<?xml version="1.0" encoding="UTF-8" standalone="no"?>
<!-- Created with Inkscape (http://www.inkscape.org/) -->

<svg
   width="67.887344mm"
   height="24.723904mm"
   viewBox="0 0 67.887346 24.723904"
   version="1.1"
   id="svg1"
   inkscape:version="1.4.1-rc (06eac75fbf, 2025-03-29)"
   sodipodi:docname="bushes6.svg"
   xmlns:inkscape="http://www.inkscape.org/namespaces/inkscape"
   xmlns:sodipodi="http://sodipodi.sourceforge.net/DTD/sodipodi-0.dtd"
   xmlns="http://www.w3.org/2000/svg"
   xmlns:svg="http://www.w3.org/2000/svg">
  <sodipodi:namedview
     id="namedview1"
     pagecolor="#ffffff"
     bordercolor="#000000"
     borderopacity="0.25"
     inkscape:showpageshadow="2"
     inkscape:pageopacity="0.0"
     inkscape:pagecheckerboard="0"
     inkscape:deskcolor="#d1d1d1"
     inkscape:document-units="mm"
     inkscape:zoom="0.72248176"
     inkscape:cx="127.33885"
     inkscape:cy="46.367952"
     inkscape:window-width="1850"
     inkscape:window-height="1016"
     inkscape:window-x="0"
     inkscape:window-y="0"
     inkscape:window-maximized="1"
     inkscape:current-layer="layer1" />
  <defs
     id="defs1" />
  <g
     inkscape:label="Layer 1"
     inkscape:groupmode="layer"
     id="layer1"
     transform="translate(-71.173016,-135.99636)">
    <path
       style="fill:#000000"
       d="m 138.63492,160.31907 c 0,-0.22687 0.121,-0.3377 0.2689,-0.2463 0.14789,0.0914 0.2004,0.27702 0.11667,0.41249 -0.22681,0.36699 -0.38557,0.29856 -0.38557,-0.16619 z m -15.10926,0.0317 c -0.10698,-0.10697 -1.13228,-0.3578 -2.08866,-0.51096 -0.21828,-0.035 -0.69453,-0.19612 -1.05833,-0.35813 -1.0718,-0.4773 -1.70037,-0.70299 -2.01466,-0.72336 -0.16218,-0.0105 -0.45984,-0.14991 -0.66146,-0.30979 -0.20163,-0.15987 -0.54518,-0.30567 -0.76346,-0.32399 -2.36696,-0.19872 -3.66002,-0.37486 -4.10105,-0.55865 -1.28294,-0.53462 -2.24119,-0.78993 -4.03565,-1.07522 -1.05545,-0.1678 -1.8559,-0.40718 -1.77879,-0.53195 0.18147,-0.29363 2.77345,-0.14046 4.57593,0.2704 0.77403,0.17643 1.47971,0.2484 1.56819,0.15992 0.19755,-0.19755 -0.73163,-0.92913 -1.19483,-0.94073 -0.18479,-0.005 -0.78011,-0.28779 -1.32292,-0.62925 -0.54281,-0.34147 -1.45822,-0.77561 -2.03425,-0.96476 -0.57603,-0.18916 -1.82619,-0.72886 -2.77813,-1.19933 -0.95194,-0.47048 -1.9467,-0.92846 -2.21059,-1.01775 -0.26388,-0.0893 -0.40448,-0.28418 -0.31244,-0.43311 0.092,-0.14892 0.30794,-0.19182 0.47979,-0.0953 0.22845,0.12827 0.22655,0.0827 -0.007,-0.16968 -0.25187,-0.27203 -0.40154,-0.27703 -0.70687,-0.0236 -0.25947,0.21534 -0.54707,0.23984 -0.87111,0.0742 -0.72556,-0.37091 -2.465871,-0.90982 -3.658758,-1.133 -0.582084,-0.1089 -1.534584,-0.31443 -2.116667,-0.45673 -0.582083,-0.1423 -1.981068,-0.33996 -3.108854,-0.43924 -1.440458,-0.12681 -2.050521,-0.28532 -2.050521,-0.53277 0,-0.19374 0.148828,-0.40609 0.330729,-0.4719 0.190635,-0.069 0.02205,-0.26463 -0.397993,-0.4619 -0.847199,-0.3979 -1.21823,-0.18736 -0.722486,0.40998 0.572916,0.69032 -0.02247,0.87979 -2.120667,0.67485 -1.091406,-0.1066 -2.043906,-0.12377 -2.116667,-0.0381 -0.07276,0.0856 -1.02526,0.18859 -2.116667,0.2288 -1.091406,0.0402 -2.192734,0.13675 -2.447395,0.21453 -0.254662,0.0778 -0.463021,0.0166 -0.463021,-0.13595 0,-0.15255 0.327422,-0.35153 0.727604,-0.44217 1.999568,-0.45289 2.286612,-0.55356 2.380366,-0.83482 0.05648,-0.16943 -0.379619,-0.43325 -0.986142,-0.59657 -0.867533,-0.2336 -1.242317,-0.21552 -1.853588,0.0894 -0.68771,0.34307 -0.808441,0.33554 -1.178674,-0.0736 -0.226866,-0.25068 -0.412157,-0.56547 -0.411759,-0.69953 0.0011,-0.3631 2.957111,-0.44551 3.846798,-0.10726 0.53953,0.20513 0.799842,0.20891 0.865288,0.0126 0.06051,-0.18153 0.614894,-0.21955 1.567973,-0.10753 1.792427,0.21066 1.740177,-0.27653 -0.07878,-0.73455 -0.646206,-0.16271 -1.17492,-0.39538 -1.17492,-0.51703 0,-0.12165 -0.446485,-0.29297 -0.992188,-0.38071 -1.909372,-0.30699 -2.182813,-0.40665 -2.182813,-0.79554 0,-0.2155 0.20836,-0.40978 0.463021,-0.43173 0.863476,-0.0744 2.049288,0.088 2.330264,0.31911 0.153859,0.12657 0.927765,0.40176 1.719792,0.61153 0.792027,0.20978 1.767471,0.50895 2.167653,0.66483 0.467129,0.18196 0.727604,0.18945 0.727604,0.0209 0,-0.38347 -2.412003,-2.64853 -3.108854,-2.91945 -0.614196,-0.23879 -0.773197,-0.63255 -0.358837,-0.88864 0.314758,-0.19453 1.831898,0.45396 2.747866,1.17454 0.421851,0.33187 0.91663,0.50898 1.160494,0.4154 0.382909,-0.14694 0.378066,-0.21512 -0.04879,-0.68678 -0.260644,-0.28801 -0.67899,-0.52365 -0.92966,-0.52365 -0.728226,0 -1.186889,-0.70655 -0.778276,-1.1989 0.877283,-1.05706 -2.053026,-1.54248 -3.17608,-0.52613 -0.450866,0.40803 -0.518527,0.39761 -1.037797,-0.15976 -0.305518,-0.32793 -0.555487,-0.67929 -0.555487,-0.78079 0,-0.42637 -1.904063,-1.03859 -3.230126,-1.03859 -1.15733,0 -1.591612,0.13359 -2.275118,0.69983 -0.464616,0.38491 -0.844756,0.90224 -0.844756,1.14962 0,0.24738 -0.238125,0.66529 -0.529167,0.92868 -0.760936,0.68863 -0.656576,1.31016 0.396875,2.36361 0.963584,0.96358 1.111879,1.32676 0.656633,1.60812 -0.276221,0.17071 -2.111841,-0.82939 -2.111841,-1.1506 0,-0.32554 -1.59492,-0.89053 -2.036037,-0.72125 -0.330554,0.12684 -0.360252,0.23987 -0.124873,0.47525 0.169855,0.16985 0.308826,0.50575 0.308826,0.74644 0,0.24069 0.285977,0.72289 0.635503,1.07156 1.862173,1.85762 2.516122,2.39942 2.733742,2.26492 0.132314,-0.0818 0.545646,0.01 0.918514,0.20304 0.372868,0.19345 1.167281,0.35847 1.765363,0.36673 1.166044,0.0161 1.619795,0.18658 1.619795,0.60861 0,0.14552 -0.110708,0.19617 -0.246017,0.11254 -0.571098,-0.35296 -4.338308,-0.66601 -4.672908,-0.38832 -0.202205,0.16782 -0.803203,0.21243 -1.484804,0.11021 -0.939757,-0.14092 -1.276301,-0.0685 -1.876763,0.40381 -0.590052,0.46414 -0.806899,0.51309 -1.120378,0.25293 -0.966684,-0.80228 -0.04044,-1.6023 2.124828,-1.83527 l 1.322917,-0.14233 -1.482078,-1.5875 c -1.210409,-1.29651 -2.089797,-2.77489 -2.089797,-3.51324 0,-0.0699 0.703126,-0.0474 1.562502,0.0498 l 1.562502,0.17677 0.173168,-1.02497 c 0.123633,-0.73178 0.582004,-1.47266 1.602392,-2.59 0.786073,-0.86076 1.433772,-1.45727 1.43933,-1.32558 0.0056,0.1317 0.225949,0.0441 0.489758,-0.19463 0.433225,-0.39206 0.667064,-0.39837 2.415906,-0.0651 1.072795,0.20441 2.284115,0.62612 2.716309,0.94565 0.686714,0.50771 0.874163,0.53774 1.566546,0.25095 0.61439,-0.25449 1.016751,-0.25679 1.83876,-0.0105 0.578747,0.17339 0.983116,0.42715 0.898598,0.56391 -0.08452,0.13675 0.02388,0.18051 0.240876,0.0972 0.598207,-0.22955 1.253281,0.25261 1.881725,1.38504 0.352889,0.63589 1.02235,1.27103 1.773768,1.68284 2.311514,1.26681 4.235749,3.93328 3.640734,5.04507 -0.362611,0.67755 -0.315379,1.48971 0.09581,1.6475 0.192923,0.074 1.175188,0.22055 2.182813,0.3256 1.007625,0.10505 2.01957,0.28838 2.248767,0.4074 0.229197,0.11903 1.108242,0.24439 1.953432,0.27858 1.42382,0.0576 2.32816,0.48255 3.31839,1.55931 0.0728,0.0791 0.66807,0.37127 1.32291,0.64922 0.65485,0.27794 1.3786,0.66161 1.60834,0.85259 0.22974,0.19098 0.60395,0.34723 0.83159,0.34723 0.22763,0 0.48241,0.17859 0.56617,0.39688 0.0838,0.21828 0.45369,0.39687 0.82206,0.39687 0.36837,0 0.66976,0.10616 0.66976,0.2359 0,0.12975 0.31803,0.31572 0.70672,0.41328 0.3887,0.0975 1.00007,0.40812 1.3586,0.69014 0.35853,0.28202 0.87768,0.51276 1.15367,0.51276 0.27598,0 0.57032,0.1786 0.65408,0.39688 0.0838,0.21828 0.3638,0.39687 0.6223,0.39687 0.2585,0 0.52897,0.2255 0.60104,0.5011 0.0815,0.31152 0.46848,0.57018 1.02304,0.68372 1.02481,0.20981 2.34646,0.73328 2.34883,0.93029 8.9e-4,0.0736 0.51592,0.14754 1.14451,0.16426 1.28937,0.0343 3.15295,0.57521 2.97482,0.86344 -0.0645,0.10437 -0.008,0.36266 0.1258,0.57399 0.1668,0.26368 0.24434,0.28047 0.24712,0.0535 0.002,-0.1819 0.18265,-0.33073 0.40093,-0.33073 0.21828,0 0.39687,0.17859 0.39687,0.39687 0,0.35847 -0.80147,0.56555 -1.08634,0.28067 z M 87.420908,147.53012 c 0.17478,-0.2828 -0.463092,-0.56019 -1.261276,-0.54848 -0.561353,0.008 -0.562644,0.0168 -0.06008,0.39688 0.582336,0.44045 1.105724,0.5005 1.321359,0.1516 z m 4.647343,-1.09261 c 0,-0.32206 -1.277563,-0.84986 -1.693725,-0.69972 -0.217094,0.0783 0.829974,0.68902 1.627579,0.94927 0.03638,0.0119 0.06615,-0.10043 0.06615,-0.24955 z m -0.265564,-1.97887 c -0.341235,-0.36323 -0.808033,-0.65692 -1.037328,-0.65266 -0.280783,0.005 -0.127899,0.27054 0.468254,0.81259 1.031557,0.93795 1.481647,0.81146 0.569074,-0.15993 z m 2.045989,0.23807 c -0.08792,-0.0879 -0.316122,-0.0973 -0.507118,-0.0209 -0.211067,0.0845 -0.148372,0.14716 0.159853,0.15985 0.278915,0.0115 0.435184,-0.051 0.347265,-0.13896 z m 43.018494,15.40295 c 0.0864,-0.22522 0.0433,-0.47986 -0.0959,-0.56587 -0.13916,-0.086 -0.25303,0.0304 -0.25303,0.25866 0,0.33945 -0.25296,0.28562 -1.38906,-0.29562 -1.74658,-0.89357 -1.71365,-0.86307 -1.24911,-1.15685 0.51461,-0.32545 0.0905,-0.32538 -0.51767,8e-5 -0.33344,0.17845 -0.62427,0.14149 -0.97479,-0.12388 -0.28751,-0.21766 -0.35918,-0.38178 -0.16884,-0.38662 0.46521,-0.0118 0.41212,-1.02315 -0.0795,-1.5148 -0.37062,-0.37061 -0.44396,-0.36416 -0.75908,0.0668 -0.32961,0.45076 -0.42,0.43105 -1.64027,-0.35764 -0.7103,-0.45908 -1.42466,-0.94699 -1.58747,-1.08425 -0.19212,-0.16196 -0.43595,-0.10962 -0.69471,0.14914 -0.35344,0.35344 -0.485,0.35409 -1.15918,0.006 -0.41828,-0.21612 -1.26652,-0.52908 -1.88498,-0.69546 -0.61846,-0.16639 -1.12448,-0.41699 -1.12448,-0.5569 0,-0.31952 0.51713,-0.31829 2.49725,0.006 0.86416,0.14151 1.61944,0.20906 1.67839,0.15011 0.0589,-0.0589 -0.35044,-0.55733 -0.90975,-1.10751 -1.06126,-1.04394 -2.01919,-1.37617 -2.59355,-0.89949 -0.24258,0.20132 -0.42316,0.17698 -0.64186,-0.0865 -0.23979,-0.28893 -0.16506,-0.45792 0.35246,-0.79701 0.36123,-0.23668 0.88123,-0.43034 1.15555,-0.43034 0.59502,0 2.69484,1.4665 2.69484,1.88205 0,0.16018 0.16409,0.22827 0.36464,0.15131 0.20055,-0.077 0.47581,-0.0288 0.61169,0.10714 0.13588,0.13588 0.69088,0.47333 1.23333,0.74989 0.97366,0.49639 0.9842,0.49625 0.82299,-0.0117 -0.25612,-0.80694 -1.31956,-1.82037 -1.9102,-1.82037 -0.29517,0 -0.6052,-0.1786 -0.68896,-0.39688 -0.0838,-0.21828 -0.3376,-0.39687 -0.56409,-0.39687 -0.24825,0 -0.47652,-0.32362 -0.57476,-0.81486 -0.11914,-0.59569 -0.2831,-0.78344 -0.60959,-0.69806 -0.24564,0.0642 -0.66834,-0.0453 -0.93932,-0.24348 -0.27099,-0.19815 -1.0764,-0.36027 -1.78982,-0.36027 -1.05757,0 -1.3217,-0.094 -1.43025,-0.50911 -0.1091,-0.41721 -0.32314,-0.49172 -1.18575,-0.41277 -0.57893,0.053 -1.22225,0.23715 -1.42959,0.40922 -0.39321,0.32634 -0.51155,0.0457 -0.17449,-0.4138 0.54243,-0.7395 1.60759,-1.00093 2.75819,-0.67697 0.6272,0.17659 1.73567,0.45068 2.46327,0.60909 1.29262,0.28143 2.84064,1.20863 3.50881,2.10166 0.1836,0.24537 0.86646,0.71215 1.51747,1.03728 1.71591,0.85697 2.23982,1.52963 2.42784,3.1172 0.11358,0.95899 0.31258,1.45515 0.65771,1.63986 0.27217,0.14567 0.78298,0.72126 1.13513,1.27911 0.47434,0.75139 0.87642,1.05856 1.55142,1.18519 0.50113,0.094 1.22943,0.46591 1.61845,0.82644 0.38902,0.36054 0.88969,0.65552 1.11261,0.65552 0.70799,0 0.21998,0.65771 -0.55551,0.74869 -0.58158,0.0682 -0.70936,-0.002 -0.58646,-0.32226 z m -8.41476,-0.90756 c -0.28907,-0.28906 -0.11762,-0.62667 0.24716,-0.4867 0.25625,0.0983 0.33461,0.02 0.23628,-0.23627 -0.19213,-0.50067 -0.59546,-0.48979 -0.79161,0.0214 -0.0854,0.22262 -0.34958,0.34765 -0.58701,0.27785 -0.23743,-0.0698 -0.90794,-0.19423 -1.49002,-0.2765 -2.15309,-0.30431 -2.64087,-0.53141 -2.72827,-1.27023 -0.0758,-0.64044 -0.19357,-0.70329 -1.45521,-0.77627 -0.80374,-0.0465 -1.31793,-0.18908 -1.24048,-0.34399 0.20312,-0.40624 2.94008,-0.17354 3.83241,0.32584 0.58402,0.32683 2.51759,0.0766 2.51759,-0.32576 0,-0.50579 1.65495,-0.0686 2.92714,0.77334 1.2572,0.83197 1.37043,1.34287 0.24786,1.11835 -0.60092,-0.12018 -0.79375,-0.0619 -0.79375,0.23982 0,0.21921 0.1786,0.4671 0.39688,0.55086 0.67105,0.2575 0.44015,0.59068 -0.39293,0.567 -0.4344,-0.0124 -0.85111,-0.0838 -0.92604,-0.1587 z m 0.42576,-1.97068 c -0.26131,-0.25936 -0.2917,-0.22897 -0.14811,0.14811 0.0993,0.26094 0.2473,0.4078 0.32876,0.32632 0.0815,-0.0815 1.7e-4,-0.29494 -0.18065,-0.47443 z m -14.18804,-2.41112 c -0.29104,-0.16305 -0.59112,-0.3783 -0.66685,-0.47833 -0.0757,-0.10004 -0.46267,-0.30545 -0.85989,-0.45647 -0.99285,-0.37748 -0.9883,-1.15423 0.005,-0.92003 0.40018,0.0943 0.83141,0.26589 0.95828,0.38124 0.12687,0.11536 0.37275,0.15523 0.54639,0.0886 0.32176,-0.12346 1.73663,1.02279 1.73629,1.40664 -2.9e-4,0.32466 -1.12676,0.31047 -1.71961,-0.0216 z m 0.98927,-1.87134 c -0.44059,-0.37074 -0.99225,-0.67407 -1.2259,-0.67407 -0.23366,0 -0.42483,-0.17859 -0.42483,-0.39687 0,-0.24939 0.25162,-0.39688 0.67707,-0.39688 0.38401,0 0.6063,0.11453 0.51355,0.26459 -0.0899,0.14552 -0.0374,0.26458 0.11668,0.26458 0.15411,0 0.2802,-0.16683 0.2802,-0.37074 0,-0.43971 -1.39561,-1.30557 -2.97253,-1.84421 l -1.12851,-0.38547 0.77069,-0.29712 c 0.5322,-0.20518 0.8556,-0.21221 1.0451,-0.0227 0.15093,0.15093 0.51849,0.27177 0.81681,0.26853 0.52293,-0.006 0.52061,-0.0226 -0.0648,-0.47315 -0.33398,-0.25699 -0.52249,-0.552 -0.41892,-0.65557 0.34992,-0.34992 1.07373,-0.19129 1.55532,0.34086 0.56907,0.62881 0.92604,0.67981 0.92604,0.13229 0,-0.21828 -0.16946,-0.39688 -0.37657,-0.39688 -0.20712,0 -0.71313,-0.2804 -1.12448,-0.62312 -0.41135,-0.34273 -1.19439,-0.76868 -1.74009,-0.94657 -1.079,-0.35172 -1.20236,-0.57234 -0.59973,-1.07248 0.31686,-0.26297 0.57171,-0.21996 1.32292,0.22326 1.15907,0.68387 1.21173,0.32138 0.0904,-0.62217 -0.63127,-0.53118 -0.75322,-0.76056 -0.49061,-0.92286 0.1922,-0.11879 0.27632,-0.40659 0.18692,-0.63956 -0.0894,-0.23297 -0.0584,-0.42358 0.0688,-0.42358 0.12726,0 0.0938,-0.30104 -0.0744,-0.66897 -0.3296,-0.72095 -1.53101,-1.21177 -1.70302,-0.69573 -0.15551,0.46652 -0.7152,0.36666 -1.24865,-0.2228 -0.54054,-0.59729 -0.37578,-0.68571 0.38843,-0.20845 0.60393,0.37716 1.10114,0.0423 0.52995,-0.35693 -0.28001,-0.1957 -0.0437,-0.23117 0.84224,-0.12643 0.86986,0.10283 1.32035,0.0385 1.5342,-0.21921 0.33874,-0.40815 -0.059,-0.82706 -0.5167,-0.54419 -0.14552,0.0899 -0.26458,0.0222 -0.26458,-0.15049 0,-0.2185 -0.32397,-0.26221 -1.06503,-0.14371 -0.87807,0.14041 -1.09042,0.0883 -1.20971,-0.29691 -0.4697,-1.51673 -1.70791,-2.37551 -3.46895,-2.40597 l -1.26777,-0.0219 0.72761,0.4463 c 0.40018,0.24547 0.7276,0.54153 0.7276,0.65791 0,0.42808 -0.82694,0.51201 -1.26663,0.12856 -0.71081,-0.61989 -2.35678,-1.31069 -2.88445,-1.21057 -0.75741,0.14371 -0.71808,1.3497 0.10026,3.07408 0.70418,1.48383 1.96065,2.7002 2.79034,2.70128 0.45807,6e-4 2.31881,2.01452 2.31881,2.5097 0,0.22016 0.091,0.40028 0.20217,0.40028 0.11119,0 0.41016,0.48009 0.66436,1.06685 0.43871,1.01264 0.40423,2.21022 -0.0721,2.50462 -0.27002,0.16688 -0.71226,-0.39294 -0.83571,-1.05792 -0.054,-0.29105 -0.21568,-0.53099 -0.3592,-0.53322 -0.49037,-0.008 -0.92242,-0.42359 -0.92242,-0.88811 0,-0.50391 -1.17286,-1.70913 -1.91823,-1.97117 -0.4908,-0.17254 -0.64632,0.20527 -0.19844,0.48208 0.14552,0.0899 0.26458,0.55297 0.26458,1.02897 0,0.68389 0.27752,1.14589 1.32292,2.20233 1.26802,1.28141 1.64544,2.22668 1.03875,2.60164 -0.32821,0.20284 -1.56792,-0.87059 -1.56792,-1.35762 0,-0.41914 -1.50959,-1.6972 -2.00467,-1.6972 -0.4314,0 -0.5014,-0.56309 -0.11769,-0.9468 0.33553,-0.33553 -0.5001,-2.2282 -0.98377,-2.2282 -0.19253,0 -0.42693,-0.20836 -0.52089,-0.46302 -0.25055,-0.67907 -0.59279,-0.82882 -1.54215,-0.67476 -0.51994,0.0844 -0.926414,0.0125 -1.048795,-0.18555 -0.254044,-0.41106 0.363575,-0.80777 1.058595,-0.67997 0.29104,0.0535 0.99095,0.18508 1.55534,0.29237 0.82505,0.15684 0.99362,0.12324 0.86007,-0.17147 -0.0914,-0.20161 -0.23406,-0.55372 -0.31712,-0.78248 -0.22037,-0.60698 -2.28484,-1.8759 -2.82589,-1.73692 -0.628021,0.16131 -0.600639,-0.54594 0.0289,-0.74574 0.27054,-0.0859 0.68726,-0.0812 0.92604,0.0105 0.89552,0.34364 0.39217,-0.42984 -0.61365,-0.94298 -1.307953,-0.66726 -1.267309,-0.6723 -1.267309,0.15701 0,0.76475 -0.600154,1.31622 -0.901601,0.82847 -0.103379,-0.16727 -0.135435,-0.38912 -0.07124,-0.493 0.336093,-0.54381 -0.463999,-1.53066 -1.589456,-1.96048 -0.664411,-0.25374 -1.20802,-0.55035 -1.20802,-0.65913 0,-0.41508 -1.104057,-0.46071 -1.872461,-0.0774 -0.441274,0.22014 -1.204748,0.41166 -1.696611,0.4256 -0.625761,0.0177 -0.931769,0.16865 -1.019092,0.50257 -0.166034,0.63491 -0.968086,0.61709 -0.968086,-0.0215 0,-0.61799 1.186075,-1.42598 2.143373,-1.46013 0.393263,-0.014 0.672663,-0.0946 0.620888,-0.17903 -0.146709,-0.23925 2.824903,-0.0459 3.771519,0.24546 0.46598,0.14341 1.113509,0.50881 1.438952,0.812 0.325444,0.3032 0.837156,0.55258 1.137138,0.55418 0.299982,0.002 0.981796,0.0751 1.515146,0.16327 0.87009,0.14387 0.97883,0.0969 1.05834,-0.45709 0.0487,-0.3396 0.41098,-0.79781 0.805,-1.01824 0.64714,-0.36206 0.83664,-0.35623 1.9603,0.0602 1.16214,0.43072 1.27599,0.432 1.73174,0.0195 0.45593,-0.41261 0.59238,-0.40981 2.08723,0.0428 0.87967,0.26635 1.65706,0.57756 1.72753,0.69158 0.0705,0.11402 0.27985,0.14908 0.4653,0.0779 0.18544,-0.0712 0.71143,0.33634 1.16887,0.90557 0.67356,0.83816 1.0605,1.06927 2.03492,1.21539 0.79266,0.11886 1.2969,0.35548 1.47779,0.69349 0.15102,0.28217 0.41922,0.5138 0.596,0.51472 0.33253,0.002 1.00572,0.99316 1.83764,2.70632 0.26393,0.54351 0.52834,1.7639 0.58758,2.71198 0.0989,1.58238 0.0644,1.72379 -0.42056,1.72379 -0.42716,0 -0.49217,0.11374 -0.33965,0.59429 0.10374,0.32686 0.36808,0.72551 0.58742,0.8859 0.44445,0.32499 0.22365,0.90105 -0.34536,0.90105 -0.29399,0 -0.31177,0.15987 -0.0889,0.79928 0.20295,0.58218 0.19484,0.90024 -0.0299,1.171 -0.16967,0.20445 -0.27148,0.58459 -0.22625,0.84477 0.12803,0.7363 -0.68529,0.72373 -1.5743,-0.0243 z m 0.46594,-8.22829 c 0,-0.87237 -0.8496,-2.23535 -1.39339,-2.23535 -0.43608,0 -0.0741,2.1979 0.46178,2.80385 0.66203,0.74859 0.93161,0.58409 0.93161,-0.5685 z m -15.92575,3.71112 c -0.0764,-0.0764 -0.572513,-0.15524 -1.102432,-0.17517 -0.602946,-0.0227 -0.96349,-0.1668 -0.96349,-0.38518 0,-0.84277 2.698452,-0.6022 2.863672,0.25529 0.0792,0.41112 -0.47846,0.62435 -0.79775,0.30506 z m 11.42783,-0.39023 c 0,-0.14552 0.17859,-0.26458 0.39687,-0.26458 0.21829,0 0.39688,0.11906 0.39688,0.26458 0,0.14552 -0.17859,0.26458 -0.39688,0.26458 -0.21828,0 -0.39687,-0.11906 -0.39687,-0.26458 z m -10.09869,-1.42993 c -0.38829,-0.20258 -1.19196,-0.45044 -1.785937,-0.55079 -1.114599,-0.18831 -1.279349,-0.35989 -0.80298,-0.83626 0.406892,-0.40689 2.901187,0.12782 3.617467,0.77549 0.98566,0.89123 0.29481,1.30201 -1.02855,0.61156 z"
       id="path17" />
  </g>
</svg>
