<?xml version="1.0" encoding="UTF-8" standalone="no"?>
<!-- Created with Inkscape (http://www.inkscape.org/) -->

<svg
   width="73.594978mm"
   height="29.197002mm"
   viewBox="0 0 73.594982 29.197003"
   version="1.1"
   id="svg1"
   inkscape:version="1.4.1-rc (06eac75fbf, 2025-03-29)"
   sodipodi:docname="bushes14.svg"
   xmlns:inkscape="http://www.inkscape.org/namespaces/inkscape"
   xmlns:sodipodi="http://sodipodi.sourceforge.net/DTD/sodipodi-0.dtd"
   xmlns="http://www.w3.org/2000/svg"
   xmlns:svg="http://www.w3.org/2000/svg">
  <sodipodi:namedview
     id="namedview1"
     pagecolor="#ffffff"
     bordercolor="#000000"
     borderopacity="0.25"
     inkscape:showpageshadow="2"
     inkscape:pageopacity="0.0"
     inkscape:pagecheckerboard="0"
     inkscape:deskcolor="#d1d1d1"
     inkscape:document-units="mm"
     inkscape:zoom="0.72248176"
     inkscape:cx="139.79592"
     inkscape:cy="54.67266"
     inkscape:window-width="1850"
     inkscape:window-height="1016"
     inkscape:window-x="0"
     inkscape:window-y="0"
     inkscape:window-maximized="1"
     inkscape:current-layer="layer1" />
  <defs
     id="defs1" />
  <g
     inkscape:label="Layer 1"
     inkscape:groupmode="layer"
     id="layer1"
     transform="translate(-67.998002,-133.87957)">
    <path
       style="fill:#000000"
       d="m 85.68614,162.95694 c -0.0652,-0.0652 -0.88876,-0.17327 -1.83004,-0.24006 -0.94128,-0.0668 -1.94954,-0.21874 -2.24058,-0.33768 -0.86278,-0.35258 -7.71649,-0.23582 -8.16831,0.13916 -0.23691,0.19661 -0.73669,0.26085 -1.27049,0.1633 -0.48397,-0.0884 -1.56687,-0.19706 -2.40643,-0.24136 -1.6147,-0.0852 -2.04226,-0.26746 -1.61944,-0.69028 0.16021,-0.16021 1.06786,-0.18014 2.38877,-0.0524 1.51619,0.14658 2.35196,0.11136 2.89897,-0.12214 0.42273,-0.18045 1.36391,-0.34183 2.09151,-0.35862 0.72761,-0.0168 1.56105,-0.12437 1.85209,-0.23907 0.46243,-0.18224 0.42071,-0.2326 -0.33073,-0.3993 -1.19522,-0.26515 -1.13646,-0.94247 0.0818,-0.94247 0.5604,0 0.87545,0.10713 0.77813,0.26459 -0.0899,0.14552 -0.0374,0.26458 0.11668,0.26458 0.15411,0 0.2802,-0.096 0.2802,-0.21323 0,-0.32359 4.30261,-0.8794 7.20943,-0.93133 1.41857,-0.0253 2.57943,-0.13077 2.57969,-0.23431 2.5e-4,-0.10353 -0.47579,-0.31648 -1.05787,-0.47321 -0.63483,-0.17095 -1.05833,-0.44304 -1.05833,-0.67996 0,-0.54414 0.79551,-0.80363 1.07538,-0.35079 0.12553,0.20311 0.58976,0.38417 1.03163,0.40236 1.47592,0.0608 1.59715,0.0972 1.59715,0.48024 0,0.37801 0.73862,0.41691 1.5875,0.0836 0.21828,-0.0857 0.7201,-0.22652 1.11514,-0.31292 0.45973,-0.10054 0.66879,-0.28602 0.58081,-0.51529 -0.1609,-0.41931 1.08827,-0.74739 1.96888,-0.5171 0.82886,0.21675 0.69554,-0.10796 -0.29139,-0.7097 -1.02753,-0.6265 -1.52135,-0.6685 -1.52135,-0.12939 0,0.51754 -0.76508,0.51487 -0.96395,-0.003 -0.23322,-0.60776 0.40376,-1.18726 1.30502,-1.18726 0.443,0 0.72793,-0.0775 0.63318,-0.17227 -0.0948,-0.0948 0.0342,-0.32909 0.28663,-0.52076 0.42291,-0.32114 0.41222,-0.34913 -0.13641,-0.35689 -0.32742,-0.005 -0.59531,0.10691 -0.59531,0.24787 0,0.14095 -0.18543,0.18512 -0.41208,0.0982 -0.22664,-0.087 -0.36098,-0.2916 -0.29854,-0.45472 0.0733,-0.19148 -0.34867,-0.30985 -1.1908,-0.33401 -1.52567,-0.0438 -1.86152,-0.26239 -1.17468,-0.76462 0.5391,-0.3942 5.1105,-0.50605 5.58964,-0.13676 0.14552,0.11215 0.74084,0.27455 1.32292,0.36088 l 1.05833,0.15696 -0.73045,-0.54127 c -1.5321,-1.13528 -4.55742,-2.42457 -3.2383,-1.38005 0.51379,0.40683 0.5084,0.41541 -0.18518,0.29539 -0.4821,-0.0834 -0.76483,0.008 -0.86962,0.28101 -0.13872,0.36152 -0.19926,0.36063 -0.56825,-0.008 -0.54139,-0.54139 -0.0872,-1.45895 0.83694,-1.6909 0.3596,-0.0902 0.65382,-0.22006 0.65382,-0.28845 0,-0.38306 -2.20653,-2.17427 -2.47042,-2.00543 -0.16924,0.10828 -1.11761,0.21101 -2.1075,0.2283 -1.55698,0.0272 -1.77602,-0.0259 -1.62362,-0.39392 0.39723,-0.95913 0.39767,-1.27253 0.002,-1.60071 -0.30819,-0.25578 -0.50683,-0.26866 -0.77034,-0.05 -0.19529,0.16207 -0.4297,0.22006 -0.52091,0.12885 -0.24695,-0.24695 -1.40722,0.5897 -2.51265,1.81182 -0.73097,0.80813 -0.98963,1.3371 -1.02715,2.10061 -0.0538,1.09397 0.13949,1.19243 2.05888,1.04906 0.37719,-0.0282 0.83825,0.13247 1.02458,0.35698 0.18633,0.22451 0.29444,0.41824 0.24024,0.4305 -0.0542,0.0123 -0.62116,0.0619 -1.25991,0.11021 -0.63875,0.0483 -1.24896,0.22965 -1.35603,0.40289 -0.11393,0.18435 -0.42561,0.24168 -0.75153,0.13824 -0.30627,-0.0972 -0.7567,-0.0649 -1.00094,0.0718 -0.38215,0.21386 -0.27108,0.40863 0.79633,1.39643 1.15419,1.06811 1.2018,1.16219 0.68495,1.35338 -0.40559,0.15004 -0.5102,0.34809 -0.38772,0.73401 0.0923,0.29069 0.0855,0.66156 -0.015,0.82416 -0.25199,0.40773 -1.41722,-1.05391 -1.42943,-1.79305 -0.005,-0.31686 -0.31686,-0.81787 -0.69252,-1.11336 -1.0882,-0.85598 -0.68334,-1.64611 1.02877,-2.00775 0.78481,-0.16577 0.80915,-0.52594 0.12917,-1.91189 -0.65159,-1.32811 1.82854,-4.39525 4.09227,-5.06084 1.08295,-0.31841 1.29771,-0.30131 2.3005,0.18318 1.36128,0.65771 1.86099,0.50076 1.8718,-0.58789 0.0184,-1.85087 2.29999,-4.13888 4.1273,-4.13888 0.79213,0 1.14894,-0.22406 2.30702,-1.44871 1.30366,-1.3786 1.42101,-1.4418 2.42463,-1.30578 1.95305,0.26469 2.25547,0.38381 3.24567,1.2784 0.54287,0.49044 1.49237,1.02779 2.11,1.1941 0.61763,0.16631 1.12296,0.41146 1.12296,0.54478 0,0.13332 0.42334,0.32182 0.94076,0.41888 0.76692,0.14388 0.92697,0.2817 0.86614,0.74585 -0.0896,0.68334 0.89648,1.74748 1.61922,1.74748 0.6189,0 1.68255,1.35263 2.10729,2.67982 0.38776,1.21166 0.14619,3.88909 -0.40594,4.49918 -0.55452,0.61274 -1.44732,0.51405 -2.03782,-0.22525 -0.26522,-0.33206 -0.76132,-0.60375 -1.10243,-0.60375 -0.34111,0 -0.67478,-0.14883 -0.74147,-0.33073 -0.097,-0.26458 -0.19139,-0.26458 -0.47184,0 -0.53232,0.50218 -0.82017,0.3973 -0.72617,-0.26458 0.0611,-0.43006 0.29111,-0.619 0.82865,-0.68063 0.61105,-0.0701 0.68805,-0.15284 0.43062,-0.46302 -0.17241,-0.20774 -0.54321,-0.37771 -0.824,-0.37771 -0.33108,0 -0.60928,-0.28324 -0.79143,-0.80577 -0.15449,-0.44318 -0.41619,-0.75637 -0.58155,-0.69598 -0.16536,0.0604 -0.50653,-0.0695 -0.75816,-0.28858 -0.38164,-0.33231 -0.47615,-0.33755 -0.56993,-0.0316 -0.0618,0.20171 -0.17964,0.5751 -0.2618,0.82977 -0.2247,0.69654 -0.95972,0.57597 -0.95972,-0.15744 0,-1.01502 0.86757,-1.59435 2.09394,-1.39824 0.60552,0.0968 1.11841,0.0556 1.21299,-0.0974 0.0901,-0.14583 0.39498,-0.26515 0.67743,-0.26515 0.73969,0 0.63329,-0.76133 -0.14791,-1.05834 -0.3638,-0.13831 -0.66328,-0.40326 -0.66551,-0.58876 -0.003,-0.23417 -0.0837,-0.21595 -0.26458,0.0596 -0.23158,0.35277 -0.28948,0.35277 -0.52106,0 -0.14329,-0.21829 -0.26368,-0.69454 -0.26752,-1.05834 -0.007,-0.65513 -0.0135,-0.65323 -0.68469,0.19844 -0.37273,0.47294 -0.87743,0.85807 -1.12154,0.85584 -0.38375,-0.004 -0.39011,-0.0393 -0.047,-0.26458 0.32907,-0.21602 0.33555,-0.30008 0.0379,-0.49204 -0.25036,-0.16146 -0.27037,-0.28627 -0.0661,-0.41249 0.56103,-0.34673 0.30293,-0.73882 -0.37444,-0.56881 -0.85964,0.21576 -1.13342,-0.40679 -0.56224,-1.27851 0.49065,-0.74883 0.23108,-1.08084 -1.15602,-1.47866 -0.66617,-0.19105 -1.05681,-0.13355 -1.81158,0.2667 -1.22018,0.64705 -2.03492,1.33569 -2.22415,1.8799 -0.0874,0.2515 -0.58927,0.49615 -1.22684,0.5981 -0.59337,0.0949 -1.58584,0.45646 -2.20548,0.80351 -0.98927,0.55407 -1.13621,0.75652 -1.20523,1.66059 -0.0752,0.98485 -0.0292,1.05115 1.05834,1.52549 1.07824,0.47029 1.52066,0.83535 1.52975,1.26228 0.002,0.10457 -0.17454,0.1216 -0.39282,0.0378 -0.25131,-0.0964 -0.39687,0.004 -0.39687,0.27289 0,0.46913 0.66603,0.5813 0.92863,0.1564 0.10768,-0.17423 0.41568,-0.13603 0.87551,0.10859 1.06217,0.56505 2.60909,1.21852 2.88454,1.21852 0.36635,0 1.9259,1.45891 1.9259,1.80162 0,0.16456 0.34723,0.55593 0.77162,0.86969 1.01014,0.74683 1.2081,1.53607 0.54115,2.15743 -0.28546,0.26595 -0.51902,0.71703 -0.51902,1.0024 0,0.6786 -0.53896,0.67086 -0.71709,-0.0103 -0.0761,-0.29105 -0.25424,-0.52917 -0.39584,-0.52917 -0.1416,0 -0.47465,-0.26789 -0.74011,-0.59531 -0.27356,-0.33741 -0.5785,-0.49365 -0.70387,-0.36066 -0.12167,0.12907 -0.0724,0.28782 0.10951,0.35278 0.1819,0.065 0.33073,0.47389 0.33073,0.90872 0,0.43483 0.18271,0.9733 0.40601,1.19661 0.31274,0.31274 0.33569,0.49073 0.0999,0.77485 -0.27939,0.33663 -0.15534,0.47929 0.34934,0.40173 0.10658,-0.0164 0.26831,0.26717 0.35941,0.63012 0.0911,0.36295 0.30155,0.66983 0.46767,0.68196 0.16613,0.0121 0.54017,0.0644 0.83121,0.11615 0.29105,0.0517 1.02638,0.14601 1.63409,0.20946 0.60771,0.0634 1.62756,0.36837 2.26635,0.6776 0.63878,0.30923 1.38197,0.56224 1.65153,0.56224 0.26956,0 1.25017,0.13236 2.17913,0.29413 1.33344,0.23221 1.67146,0.38539 1.60555,0.7276 -0.0459,0.23841 -0.26044,0.43348 -0.47673,0.43348 -0.21629,0 -0.36049,-0.1578 -0.32046,-0.35067 0.0694,-0.33433 -0.26219,-0.30014 -1.46185,0.1507 -0.1819,0.0684 -0.33073,-0.002 -0.33073,-0.15649 0,-0.16513 -0.36796,-0.23367 -0.89334,-0.16641 -0.71818,0.0919 -0.98989,-0.0142 -1.38572,-0.54127 -0.48675,-0.64817 -1.10325,-0.94055 -0.73838,-0.35019 0.11623,0.18807 0.0727,0.23369 -0.1134,0.11871 -0.1662,-0.10272 -1.09504,-0.24396 -2.0641,-0.31386 -0.96906,-0.0699 -1.88726,-0.20457 -2.04045,-0.29924 -0.27162,-0.16787 -1.15871,-0.31846 -2.09117,-0.35499 -0.29161,-0.0114 -0.46614,-0.23244 -0.47144,-0.59701 -0.008,-0.55726 -0.0225,-0.56031 -0.38477,-0.0818 -0.2395,0.31629 -0.5731,0.44559 -0.91737,0.35557 -0.29755,-0.0778 -0.59618,-0.0522 -0.66362,0.0569 -0.1533,0.24805 1.71221,0.83987 2.02942,0.64382 0.12789,-0.079 0.37613,-0.0279 0.55166,0.11374 0.17552,0.1416 0.80536,0.33756 1.39964,0.43548 1.17378,0.1934 2.75596,1.03469 2.75596,1.46541 0,0.35403 -0.45093,0.34454 -0.67261,-0.0142 -0.0961,-0.15544 -0.34876,-0.21581 -0.56154,-0.13416 -0.21278,0.0816 -0.74427,-0.0364 -1.18109,-0.26225 -0.73998,-0.38266 -2.84215,-0.71618 -4.53008,-0.71873 -0.43561,-6.6e-4 -0.7276,-0.14513 -0.7276,-0.36 0,-0.20865 -0.28346,-0.3589 -0.67707,-0.3589 -0.44442,0 -0.61221,0.10496 -0.48829,0.30546 0.11596,0.18763 0.0727,0.23371 -0.11218,0.11946 -0.16553,-0.10231 -0.73942,-0.10375 -1.27531,-0.003 -0.847,0.1589 -0.91671,0.22493 -0.53335,0.50525 0.24254,0.17736 0.70874,0.27665 1.03599,0.22066 0.32725,-0.056 0.77359,0.0201 0.99188,0.16904 0.34765,0.23726 0.34875,0.30178 0.009,0.52029 -0.24511,0.15759 -0.50315,0.15389 -0.70065,-0.01 -0.2426,-0.20133 -2.62142,-0.17252 -2.94625,0.0357 -0.21488,0.13773 -1.31953,0.0637 -1.59565,-0.10697 -0.18002,-0.11126 -0.55435,-0.13023 -0.83184,-0.0422 -0.2775,0.0881 -0.5787,0.0401 -0.66935,-0.10655 -0.0906,-0.14667 -0.51739,-0.19616 -0.94831,-0.10998 -0.53329,0.10666 -0.78349,0.0513 -0.78349,-0.17335 0,-0.25413 -0.0859,-0.25878 -0.37332,-0.0202 -0.20701,0.17181 -0.43872,0.20401 -0.52014,0.0723 -0.17057,-0.276 -4.30773,-0.21475 -4.99411,0.0739 -0.25499,0.10725 -0.73223,0.12758 -1.06053,0.0452 -0.32831,-0.0824 -0.77453,-0.0375 -0.9916,0.0997 -0.31089,0.19656 -0.25426,0.25507 0.26678,0.27563 0.87802,0.0346 1.51221,0.11585 2.74403,0.35135 0.56333,0.1077 1.63489,0.24451 2.38125,0.30402 2.69288,0.21473 3.34139,0.39666 3.34139,0.93739 0,0.35361 -0.18585,0.50591 -0.61736,0.50591 -0.33955,0 -0.67074,-0.0534 -0.73598,-0.11862 z m 6.11584,-3.32097 c -0.21828,-0.14106 -0.51594,-0.25648 -0.66146,-0.25648 -0.14552,0 -0.086,0.11542 0.13229,0.25648 0.21828,0.14107 0.51594,0.25648 0.66146,0.25648 0.14552,0 0.086,-0.11541 -0.13229,-0.25648 z m 0.66146,-0.79375 c -0.0899,-0.14552 -0.28259,-0.26458 -0.42811,-0.26458 -0.14552,0 -0.191,0.11906 -0.10106,0.26458 0.0899,0.14552 0.28258,0.26459 0.42811,0.26459 0.14552,0 0.19099,-0.11907 0.10106,-0.26459 z m 1.5875,-0.52916 c 0.0899,-0.14553 -0.0221,-0.26459 -0.24897,-0.26459 -0.22687,0 -0.41249,0.11906 -0.41249,0.26459 0,0.14552 0.11203,0.26458 0.24897,0.26458 0.13693,0 0.32255,-0.11906 0.41249,-0.26458 z m 1.35008,-0.13224 c -0.2761,-0.20899 -0.61623,-0.30938 -0.75585,-0.22309 -0.30593,0.18907 0.29587,0.61366 0.86098,0.60744 0.3052,-0.003 0.28092,-0.0921 -0.10513,-0.38435 z m 3.80929,-1.04277 c 0,-0.0642 -0.11906,-0.19027 -0.26458,-0.2802 -0.14552,-0.0899 -0.26458,-0.0374 -0.26458,0.11667 0,0.15411 0.11906,0.2802 0.26458,0.2802 0.14552,0 0.26458,-0.0525 0.26458,-0.11667 z m -2.11666,-0.41249 c 0,-0.14553 0.47625,-0.26459 1.05833,-0.26459 h 1.05833 l -0.52916,-0.52916 c -0.29105,-0.29105 -0.63973,-0.52917 -0.77486,-0.52917 -0.13512,0 -0.42779,-0.18211 -0.65038,-0.4047 -0.26429,-0.26429 -0.63802,-0.34613 -1.07723,-0.2359 -0.75429,0.18932 -0.89512,0.76315 -0.24821,1.0114 0.23338,0.0896 0.35913,0.33272 0.27945,0.54038 -0.0797,0.20765 -0.003,0.43537 0.17099,0.50605 0.51856,0.21095 0.71274,0.18526 0.71274,-0.0943 z m 0.11832,-3.1976 c -0.0852,-0.13784 -0.26767,-0.18092 -0.40551,-0.0957 -0.13783,0.0852 -0.18091,0.26767 -0.0957,0.40551 0.0852,0.13784 0.26766,0.18091 0.4055,0.0957 0.13784,-0.0852 0.18092,-0.26766 0.0957,-0.4055 z m 0.67543,-2.88782 c 0,-0.14552 -0.11907,-0.26458 -0.26459,-0.26458 -0.14552,0 -0.26458,0.11906 -0.26458,0.26458 0,0.14552 0.11906,0.26458 0.26458,0.26458 0.14552,0 0.26459,-0.11906 0.26459,-0.26458 z m -1.32292,-0.23373 c 0,-0.12854 -0.23813,-0.29599 -0.52917,-0.3721 -0.52009,-0.13601 -0.69965,0.0826 -0.35278,0.42944 0.25669,0.25668 0.88195,0.21603 0.88195,-0.0573 z m 2.11667,-0.8246 c 0,-0.29105 -0.0456,-0.52917 -0.10144,-0.52917 -0.0558,0 -0.1637,0.23812 -0.23981,0.52917 -0.0761,0.29104 -0.0305,0.52916 0.10143,0.52916 0.1319,0 0.23982,-0.23812 0.23982,-0.52916 z m -1.16307,-0.45751 c -0.26895,-0.26896 -0.49087,0.13596 -0.2702,0.49302 0.1667,0.26972 0.22902,0.26993 0.31864,0.001 0.0613,-0.18383 0.0395,-0.40616 -0.0484,-0.49408 z m 13.13519,-1.19614 c 0.2211,-0.59698 -0.4505,-2.37511 -1.04645,-2.77061 -0.58255,-0.38661 -0.58349,-0.38436 -0.47271,1.13695 0.10468,1.43752 0.39126,1.95092 1.09425,1.96034 0.16633,0.002 0.35754,-0.14478 0.42491,-0.32668 z m -3.77004,-5.73907 c 0,-0.31217 -0.51603,-0.64611 -0.70556,-0.45659 -0.18952,0.18952 0.14442,0.70556 0.45659,0.70556 0.13693,0 0.24897,-0.11204 0.24897,-0.24897 z m 8.9581,17.81258 c -0.28665,-0.0851 -0.3936,-0.32689 -0.31415,-0.71036 0.11084,-0.53493 0.0882,-0.52853 -0.28362,0.0801 -0.38529,0.63071 -0.46887,0.59404 -0.53076,-0.23285 -0.0187,-0.24927 -0.48862,-0.39737 -1.48105,-0.46673 -0.79955,-0.0559 -1.72162,-0.16172 -2.04904,-0.23521 -0.32742,-0.0735 -0.59531,-0.0382 -0.59531,0.0784 0,0.22486 -2.2546,0.16527 -2.88852,-0.0763 -0.27302,-0.10406 -0.29573,-0.22215 -0.0835,-0.43436 0.7827,-0.7827 10.5503,0.002 11.23886,0.90296 0.18267,0.239 0.73968,0.47098 1.2378,0.51551 0.49812,0.0445 0.95625,0.23497 1.01808,0.42322 0.0839,0.25545 -0.0787,0.29157 -0.64108,0.1424 -0.79664,-0.2113 -1.10044,-0.21066 -3.00246,0.006 -0.65484,0.0747 -1.3862,0.0778 -1.62523,0.007 z m 19.93511,-1.64988 c -0.28129,-0.17842 -0.28129,-0.26776 0,-0.49483 0.45635,-0.36841 2.79045,-0.39446 3.01345,-0.0336 0.2841,0.45968 -0.40505,0.70224 -1.37416,0.48368 -0.50361,-0.11359 -0.89917,-0.0987 -0.89917,0.0339 0,0.29307 -0.28858,0.29731 -0.74012,0.0109 z m -1.69156,-0.17736 c -0.0763,-0.0762 -1.11064,-0.15122 -2.29864,-0.1666 -1.18801,-0.0154 -2.21298,-0.11367 -2.27773,-0.21843 -0.10772,-0.17429 -4.64131,-0.12427 -6.68413,0.0737 -0.47295,0.0459 -0.86026,0.017 -0.8607,-0.0641 -4.4e-4,-0.0811 -1.18737,-0.15368 -2.63762,-0.16129 -1.45025,-0.008 -2.71989,-0.0969 -2.82142,-0.19844 -0.47335,-0.47334 0.55894,-0.66672 3.72682,-0.69815 2.0512,-0.0204 1.62313,-0.46699 -0.58697,-0.61243 -1.23794,-0.0815 -1.75579,-0.23769 -2.0421,-0.61606 -0.22509,-0.29747 -0.38706,-0.36818 -0.392,-0.17115 -0.006,0.22069 -0.22445,0.28155 -0.63875,0.17757 -0.94556,-0.23732 -5.1907,-0.27847 -5.19059,-0.0503 5e-5,0.10915 -0.46913,0.19844 -1.04262,0.19844 -0.5735,0 -1.11309,0.11387 -1.1991,0.25303 -0.086,0.13917 -0.32546,0.18815 -0.53211,0.10885 -0.20665,-0.0793 -0.53026,-0.0477 -0.71913,0.0703 -0.83707,0.52272 -1.58494,0.13452 -1.02971,-0.53449 0.21636,-0.26069 0.12595,-0.41636 -0.37409,-0.6442 -0.60625,-0.27622 -0.65939,-0.24759 -0.65939,0.35535 0,0.63413 -0.25977,0.77623 -1.31192,0.71767 -0.21224,-0.0118 -0.6068,0.0968 -0.87681,0.24127 -0.34481,0.18453 -0.61063,0.16339 -0.8931,-0.071 -0.34789,-0.28873 -0.22981,-0.48757 0.87505,-1.47357 0.70247,-0.62689 1.43181,-1.1398 1.62077,-1.1398 0.18895,0 0.59915,-0.23813 0.91154,-0.52917 0.3124,-0.29104 0.90273,-0.52917 1.31186,-0.52917 0.96813,0 0.94931,-0.3356 -0.0397,-0.70893 -0.62197,-0.23477 -0.84696,-0.21944 -1.09073,0.0743 -0.34666,0.41769 -1.03608,0.49934 -1.03608,0.1227 0,-0.13605 0.11834,-0.55862 0.26298,-0.93906 0.23934,-0.62951 0.35804,-0.67752 1.32023,-0.53401 1.238,0.18464 2.97126,0.86553 3.22271,1.26599 0.0966,0.15391 1.04914,0.30151 2.11667,0.32799 2.45906,0.061 8.29062,0.38003 9.39526,0.51398 0.77722,0.0942 0.83273,0.0491 0.74583,-0.60588 -0.0516,-0.38923 -0.10588,-1.00535 -0.12053,-1.36915 -0.0231,-0.57403 -0.0693,-0.60617 -0.34896,-0.2431 -0.17727,0.23009 -0.73903,0.43001 -1.24836,0.44425 -0.50932,0.0142 -1.49159,0.10936 -2.18281,0.21137 -0.76684,0.11316 -1.25677,0.0849 -1.25677,-0.0725 0,-0.44855 0.92969,-1.12125 1.78638,-1.29259 0.84706,-0.16941 1.20959,-0.63326 0.97426,-1.24654 -0.15326,-0.39937 -1.59983,-0.97587 -2.4487,-0.97587 -0.64837,0 -0.68639,-0.0941 -0.31694,-0.78441 0.2174,-0.40622 0.42016,-0.44882 1.24772,-0.26217 1.14344,0.25788 1.68139,-0.0448 1.59383,-0.89678 -0.0422,-0.41027 0.10725,-0.59224 0.53689,-0.65387 0.32742,-0.047 0.59531,0.0308 0.59531,0.17281 0,0.14202 0.2227,0.19997 0.4949,0.12879 0.2722,-0.0712 0.9261,-0.0104 1.45313,0.13516 1.00537,0.2776 1.63859,-0.0545 0.68251,-0.35793 -0.33264,-0.10557 -0.49524,-0.32352 -0.40902,-0.54821 0.086,-0.22408 -0.024,-0.37297 -0.27557,-0.37297 -0.23028,0 -0.87862,-0.2585 -1.44076,-0.57444 -0.86587,-0.48664 -1.12713,-0.52656 -1.7095,-0.26122 -0.37808,0.17227 -0.79046,0.24954 -0.91638,0.17171 -0.31068,-0.19201 0.24296,-1.71628 0.62522,-1.72136 0.1687,-0.002 0.12859,-0.11548 -0.0898,-0.25357 -0.21707,-0.13724 -0.63379,-0.19376 -0.92604,-0.12561 -0.29225,0.0682 -0.70231,0.0128 -0.91123,-0.12313 -0.3112,-0.2024 -0.31858,-0.3209 -0.0408,-0.65556 0.2543,-0.30642 0.63026,-0.36859 1.50434,-0.24879 0.80911,0.1109 1.16531,0.0643 1.16531,-0.15242 0,-0.17168 -0.14883,-0.29282 -0.33073,-0.2692 -0.73113,0.0949 -0.93665,-0.0427 -0.80656,-0.54015 0.34127,-1.30501 2.72492,-0.84061 4.57691,0.89171 0.71512,0.66891 1.47226,1.21619 1.68254,1.21619 0.21028,0 0.52952,0.38696 0.70943,0.8599 l 0.3271,0.85989 0.20139,-1.05833 c 0.21517,-1.13069 -0.30054,-2.13259 -0.96623,-1.87714 -0.18044,0.0692 -0.46022,-0.0333 -0.62173,-0.22794 -0.16151,-0.19461 -0.51685,-0.29547 -0.78964,-0.22413 -0.3153,0.0824 -0.8049,-0.16553 -1.344,-0.68073 -0.46642,-0.44573 -1.09651,-0.88928 -1.40019,-0.98567 -0.30368,-0.0964 -0.72137,-0.34447 -0.9282,-0.55129 -0.52567,-0.52567 -1.45111,-0.32864 -1.75971,0.37464 -0.6055,1.37992 -1.67167,0.91952 -1.10521,-0.47725 0.7018,-1.73047 0.74552,-2.28904 0.19051,-2.43418 -0.65082,-0.1702 -2.91955,0.57024 -2.95221,0.96349 -0.17751,2.1378 -0.0821,2.66121 0.62289,3.41583 1.12298,1.20209 1.28937,2.57208 0.3124,2.57208 -0.20969,0 -0.38126,-0.23402 -0.38126,-0.52004 0,-0.28603 -0.36747,-0.89596 -0.81659,-1.35541 -0.75102,-0.76828 -0.86925,-0.80717 -1.47242,-0.48437 -0.55486,0.29696 -0.69328,0.29177 -0.89915,-0.0337 -0.13382,-0.21155 -0.24514,-0.58428 -0.24737,-0.82829 -0.002,-0.244 -0.39058,-0.63646 -0.86299,-0.87214 -0.77921,-0.38871 -1.56063,-0.38618 -3.17596,0.0103 -0.10914,0.0268 -0.46633,0.0674 -0.79375,0.0902 -0.56335,0.0393 -0.56947,0.0611 -0.11403,0.40632 0.4589,0.34788 0.45459,0.37331 -0.0928,0.54704 -0.87938,0.2791 -1.14369,-0.20902 -0.53334,-0.98495 0.76437,-0.97173 2.42799,-1.57176 3.79227,-1.36777 1.27888,0.19122 2.83486,0.84415 2.83486,1.18958 0,0.12894 0.16222,0.23444 0.36049,0.23444 0.23857,0 0.33023,-0.24609 0.27101,-0.7276 -0.29838,-2.42617 2.3084,-4.05098 4.83757,-3.01528 0.70279,0.2878 1.85057,0.59155 2.55061,0.675 0.70004,0.0835 1.45269,0.33162 1.67255,0.55147 0.21985,0.21986 0.54359,0.39974 0.71942,0.39974 0.66821,0 3.55727,3.03144 3.88477,4.07621 0.47266,1.50784 -0.006,5.5711 -0.92711,7.86621 -0.11981,0.29861 0.0779,0.6122 0.6368,1.0102 0.44581,0.31744 0.81056,0.74063 0.81056,0.94041 0,0.56625 -0.57739,0.78374 -0.90202,0.33978 -0.16092,-0.22007 -0.78861,-0.63978 -1.39487,-0.93269 l -1.10228,-0.53257 -0.16389,0.65299 c -0.16916,0.67396 0.22244,1.39613 0.75704,1.39613 0.16731,0 0.72422,0.34622 1.23759,0.76937 0.93022,0.76678 0.94676,0.76956 4.88893,0.82373 5.39054,0.0741 6.08438,0.0493 8.00912,-0.28585 2.34049,-0.40753 2.8646,-0.14198 1.38194,0.70019 -0.81126,0.4608 -1.21484,0.56739 -1.34583,0.35545 -0.13124,-0.21235 -0.23956,-0.21782 -0.36285,-0.0183 -0.0967,0.15641 -0.55803,0.29187 -1.02526,0.30103 -1.27894,0.025 -2.04012,0.1027 -2.04012,0.20814 0,0.052 0.14882,0.2513 0.33073,0.44294 0.93475,0.98485 1.28048,1.55158 1.15152,1.88763 -0.1638,0.42686 -0.6885,0.50573 -0.6885,0.10349 0,-0.14766 -0.38419,-0.50212 -0.85376,-0.78767 -0.7374,-0.44845 -1.24915,-0.50822 -3.7551,-0.43861 -1.73118,0.0481 -2.93892,0.19329 -2.9945,0.36002 -0.0631,0.1893 -0.445,0.20038 -1.184,0.0343 -0.59997,-0.1348 -1.39834,-0.18242 -1.77414,-0.10581 -0.37581,0.0766 -1.19695,0.16495 -1.82475,0.19631 -0.6278,0.0314 -1.1932,0.14076 -1.25645,0.24311 -0.14182,0.22946 1.34368,0.76679 2.11989,0.76679 0.31298,0 0.68217,0.1091 0.82041,0.24245 0.21939,0.21162 6.11845,0.66007 7.71272,0.58633 0.32021,-0.0148 0.65765,0.0951 0.74987,0.24436 0.0922,0.14922 0.42554,0.20063 0.74072,0.11426 0.55651,-0.15251 0.55502,-0.14137 -0.0516,0.38611 -0.63935,0.55596 -0.90157,0.64855 -1.1456,0.40453 z m -28.78915,-2.77179 c 0,-0.14552 -0.18562,-0.26458 -0.41249,-0.26458 -0.22687,0 -0.33891,0.11906 -0.24897,0.26458 0.0899,0.14552 0.27556,0.26458 0.41249,0.26458 0.13693,0 0.24897,-0.11906 0.24897,-0.26458 z m 16.93333,-0.38843 c 0,-0.21363 0.32743,-0.56505 0.72761,-0.78093 0.70065,-0.37796 0.65899,-0.39184 -1.12448,-0.37459 -2.0412,0.0197 -4.21697,-0.18503 -4.62129,-0.43491 -0.14323,-0.0885 -1.24563,-0.16247 -2.44977,-0.16433 -1.47192,-0.002 -2.38444,-0.13054 -2.78467,-0.3914 -0.32742,-0.21342 -0.59531,-0.28684 -0.59531,-0.16317 0,0.12367 -0.33338,0.17593 -0.74084,0.11613 -0.69381,-0.10183 -0.74083,-0.0486 -0.74083,0.83957 0,0.98564 0.3055,1.17132 1.16833,0.7101 0.26346,-0.14083 1.36496,-0.14168 2.69459,-0.002 1.23692,0.12988 3.08239,0.30044 4.10104,0.37903 1.01864,0.0786 2.2688,0.24592 2.77812,0.37186 1.36687,0.33797 1.5875,0.32334 1.5875,-0.10529 z m -13.72108,-0.9403 c -1.31153,-0.59512 -1.36017,-0.60582 -1.36017,-0.2992 0,0.32366 1.0802,0.79635 1.85209,0.81046 0.52964,0.01 0.43161,-0.0922 -0.49192,-0.51126 z m 20.17975,-0.48513 c 0.077,-0.1245 -0.15415,-0.17015 -0.51355,-0.10145 -0.3594,0.0687 -0.65345,0.17057 -0.65345,0.22636 0,0.20472 1.03152,0.0943 1.167,-0.12491 z m -4.342,-0.83197 c 0,-0.14552 0.2311,-0.26459 0.51355,-0.26459 0.75399,0 0.86948,-0.39275 0.27396,-0.93169 -0.33033,-0.29894 -0.52293,-0.35412 -0.52293,-0.14982 0,0.19314 -0.19527,0.26144 -0.48477,0.16956 -0.29623,-0.094 -0.66391,0.0441 -0.94537,0.35508 -0.43822,0.48424 -0.43717,0.52257 0.0218,0.78945 0.61494,0.35761 1.1438,0.37241 1.1438,0.032 z m -0.26458,-3.175 c 0,-0.14552 -0.18562,-0.26459 -0.41249,-0.26459 -0.22687,0 -0.33891,0.11907 -0.24897,0.26459 0.0899,0.14552 0.27556,0.26458 0.41249,0.26458 0.13693,0 0.24897,-0.11906 0.24897,-0.26458 z m -1.92374,-0.42444 c -0.0879,-0.0879 -0.31613,-0.0973 -0.50712,-0.0209 -0.21107,0.0845 -0.14837,0.14716 0.15985,0.15985 0.27891,0.0115 0.43518,-0.051 0.34727,-0.13896 z m 0.54914,-2.53419 c -0.66021,-0.508 -1.8004,-0.64502 -1.8004,-0.21637 0,0.14552 -0.1786,0.26458 -0.39688,0.26458 -0.21828,0 -0.39687,0.10448 -0.39687,0.23219 0,0.76999 1.98355,1.19326 2.72644,0.5818 0.45601,-0.37534 0.45006,-0.41412 -0.13229,-0.8622 z m 4.02043,0.31279 c 0,-0.14552 -0.0525,-0.26458 -0.11668,-0.26458 -0.0642,0 -0.19026,0.11906 -0.2802,0.26458 -0.0899,0.14552 -0.0374,0.26459 0.11668,0.26459 0.15411,0 0.2802,-0.11907 0.2802,-0.26459 z m -0.52917,-1.05833 c 0,-0.14552 -0.11906,-0.26458 -0.26458,-0.26458 -0.14552,0 -0.26458,0.11906 -0.26458,0.26458 0,0.14552 0.11906,0.26458 0.26458,0.26458 0.14552,0 0.26458,-0.11906 0.26458,-0.26458 z m -0.79375,-1.54649 c 0,-0.12297 -0.23812,-0.43908 -0.52916,-0.70247 -0.58234,-0.52701 -0.67691,-0.37355 -0.25528,0.41427 0.2761,0.51589 0.78444,0.70265 0.78444,0.2882 z m -1.71979,-2.1613 c 0,-0.21629 -0.25859,-0.43008 -0.57464,-0.47509 -0.469,-0.0668 -0.54784,0.0207 -0.42882,0.47583 0.16439,0.6286 1.00346,0.62798 1.00346,-7.4e-4 z m -1.45521,-1.71617 c 0,-0.21828 -0.17859,-0.39687 -0.39687,-0.39687 -0.21828,0 -0.39688,0.17859 -0.39688,0.39687 0,0.21828 0.1786,0.39688 0.39688,0.39688 0.21828,0 0.39687,-0.1786 0.39687,-0.39688 z m 3.02086,-2.2136 c 0.21878,-0.35399 -0.67652,-1.00309 -1.63179,-1.18305 -1.16296,-0.21909 -1.09297,0.23176 0.13229,0.85219 1.18447,0.59978 1.31544,0.62868 1.4995,0.33086 z m -9.71913,9.23663 c -0.4646,-0.47 -0.4608,-0.5 0.11426,-0.90279 0.87344,-0.61178 1.43332,-0.0991 0.85524,0.78319 -0.22963,0.35046 -0.43358,0.63012 -0.45322,0.62147 -0.0196,-0.009 -0.25197,-0.23449 -0.51628,-0.50187 z"
       id="path22" />
  </g>
</svg>
