<?xml version="1.0" encoding="UTF-8" standalone="no"?>
<!-- Created with Inkscape (http://www.inkscape.org/) -->

<svg
   width="73.97831mm"
   height="27.813251mm"
   viewBox="0 0 73.978311 27.813252"
   version="1.1"
   id="svg1"
   inkscape:version="1.4.1-rc (06eac75fbf, 2025-03-29)"
   sodipodi:docname="bushes5.svg"
   xmlns:inkscape="http://www.inkscape.org/namespaces/inkscape"
   xmlns:sodipodi="http://sodipodi.sourceforge.net/DTD/sodipodi-0.dtd"
   xmlns="http://www.w3.org/2000/svg"
   xmlns:svg="http://www.w3.org/2000/svg">
  <sodipodi:namedview
     id="namedview1"
     pagecolor="#ffffff"
     bordercolor="#000000"
     borderopacity="0.25"
     inkscape:showpageshadow="2"
     inkscape:pageopacity="0.0"
     inkscape:pagecheckerboard="0"
     inkscape:deskcolor="#d1d1d1"
     inkscape:document-units="mm"
     inkscape:zoom="0.72248176"
     inkscape:cx="139.79592"
     inkscape:cy="53.288542"
     inkscape:window-width="1850"
     inkscape:window-height="1016"
     inkscape:window-x="0"
     inkscape:window-y="0"
     inkscape:window-maximized="1"
     inkscape:current-layer="layer1" />
  <defs
     id="defs1" />
  <g
     inkscape:label="Layer 1"
     inkscape:groupmode="layer"
     id="layer1"
     transform="translate(-67.997916,-134.14428)">
    <path
       style="fill:#000000"
       d="m 135.52189,161.67986 c -0.36562,-0.1761 -0.54821,-0.44321 -0.46002,-0.67301 0.10208,-0.26602 0.0182,-0.33192 -0.2778,-0.21832 -0.47741,0.1832 -2.22782,-0.55796 -2.22782,-0.9433 0,-0.13753 -0.11661,-0.17799 -0.25912,-0.0899 -0.3298,0.20382 -1.38724,-0.3488 -1.21151,-0.63314 0.0724,-0.11719 -0.14357,-0.16046 -0.48,-0.0962 -0.35239,0.0674 -0.79762,-0.069 -1.05032,-0.3217 -0.24125,-0.24125 -0.43864,-0.313 -0.43864,-0.15944 0,0.48217 -1.799,-0.54791 -1.9918,-1.14047 -0.15806,-0.48577 -0.1966,-0.49755 -0.3046,-0.0931 -0.068,0.25466 -0.23398,0.46302 -0.36883,0.46302 -0.13485,0 -0.24518,0.22539 -0.24518,0.50086 0,0.62089 -0.70626,0.93137 -0.98519,0.43311 -0.37646,-0.67247 -2.53245,-1.3757 -4.43877,-1.44781 -1.01865,-0.0385 -2.14974,-0.0808 -2.51354,-0.0939 -0.36381,-0.0131 -1.47076,0.0503 -2.45989,0.14094 -1.36215,0.12478 -2.0361,0.0609 -2.77813,-0.26347 -0.53883,-0.23552 -1.06899,-0.45034 -1.17813,-0.47737 -0.10914,-0.027 -0.2282,-0.0739 -0.26458,-0.10427 -0.0364,-0.0303 -0.30427,-0.0964 -0.59531,-0.14677 -0.29105,-0.0504 -1.06495,-0.22847 -1.7198,-0.39569 -1.15985,-0.29619 -4.15338,-0.50364 -9.26041,-0.64175 -5.462892,-0.14772 -8.167365,-0.53723 -7.608756,-1.09584 0.274571,-0.27457 3.407733,-0.18575 3.698326,0.10485 0.427117,0.42711 0.735428,0.39157 0.735428,-0.0848 0,-0.21829 0.119062,-0.39688 0.264583,-0.39688 0.145521,0 0.264583,0.13364 0.264583,0.29698 0,0.21352 0.104921,0.2099 0.37332,-0.0129 0.205326,-0.1704 0.435924,-0.20853 0.512441,-0.0847 0.07652,0.1238 0.974521,0.19148 1.995565,0.1504 1.03362,-0.0416 1.92867,0.0421 2.01939,0.18894 0.0896,0.145 0.25061,0.20945 0.35777,0.14322 0.47873,-0.29588 2.51298,-0.36559 3.15835,-0.10824 0.39121,0.156 1.57449,0.29164 2.62952,0.30143 1.44593,0.0134 1.91823,0.10768 1.91823,0.38289 0,0.24086 0.17456,0.30971 0.51294,0.20231 0.30621,-0.0972 1.05987,0.11435 1.86998,0.52486 1.07825,0.54639 1.58438,0.65465 2.46362,0.52694 0.60862,-0.0884 2.20585,-0.19164 3.54939,-0.22943 1.34355,-0.0378 2.52425,-0.15014 2.62379,-0.24967 0.0995,-0.0995 0.0123,-0.19014 -0.19385,-0.20134 -1.32202,-0.0718 -2.49807,-0.27954 -5.20292,-0.91896 -1.73843,-0.41096 -2.18237,-0.61323 -2.18281,-0.99452 -3.2e-4,-0.27161 0.12146,-0.40323 0.28153,-0.30429 0.15516,0.0959 0.89929,0.2161 1.65365,0.26713 2.77689,0.18786 5.03684,0.57749 6.24082,1.07596 0.49529,0.20505 0.96162,0.31173 1.03629,0.23706 0.0747,-0.0747 0.004,-0.13577 -0.15658,-0.13577 -0.1608,0 -0.26994,-0.31313 -0.24254,-0.69585 0.0917,-1.2805 -2.97053,-2.53646 -3.78665,-1.5531 -0.47077,0.56725 -1.14639,0.49037 -1.74382,-0.19844 -0.62778,-0.72382 -0.76107,-1.78594 -0.22411,-1.78594 0.67312,0 0.40701,-0.64024 -0.6001,-1.44382 -1.39893,-1.11621 -3.51738,-1.20141 -3.51738,-0.14146 0,0.68475 -0.47452,0.91368 -1.00886,0.48672 -1.3422,-1.07246 -2.27298,-1.26104 -3.10776,-0.62965 -0.28247,0.21366 -0.70921,0.39225 -0.9483,0.39688 -0.51969,0.0101 -0.81765,-0.61777 -0.46198,-0.97344 0.13892,-0.13892 0.18686,-0.42383 0.10654,-0.63314 -0.1433,-0.37344 -0.39,-0.53041 -2.25256,-1.43325 -0.9705,-0.47043 -2.91042,-0.72848 -2.91042,-0.38715 0,0.22442 0.92375,0.51037 1.7198,0.53238 0.29104,0.008 0.97716,0.41055 1.52472,0.89446 0.89437,0.79041 0.95201,0.91597 0.56711,1.23541 -0.36453,0.30254 -0.58007,0.26831 -1.44485,-0.22939 -1.14856,-0.66102 -1.72997,-0.73756 -1.93123,-0.25424 -0.10022,0.24067 -0.24025,0.20464 -0.51424,-0.13229 -0.47831,-0.5882 -0.48858,-0.5869 -1.37512,0.17488 -0.4083,0.35084 -0.90307,0.57623 -1.099484,0.50086 -0.196415,-0.0754 -0.357118,0.009 -0.357118,0.18671 0,0.19349 0.212912,0.26807 0.529166,0.18537 0.347966,-0.091 0.529166,-0.008 0.529166,0.24203 0,0.60645 -0.766513,0.73504 -1.331836,0.22343 -0.426932,-0.38637 -0.4602,-0.54372 -0.188583,-0.89198 0.288952,-0.37049 0.274806,-0.37984 -0.11422,-0.0755 -0.371641,0.29074 -0.587274,0.27119 -1.322916,-0.1199 -0.483396,-0.25699 -1.036563,-0.43582 -1.229261,-0.39739 -0.192697,0.0384 -0.490353,-0.0435 -0.661458,-0.18208 -0.171105,-0.13857 -0.936178,-0.1902 -1.700162,-0.11474 -1.559957,0.15409 -1.769057,0.56689 -0.933276,1.84245 l 0.455786,0.69562 -0.766351,-0.19234 c -0.421494,-0.10579 -1.282159,-0.56277 -1.912589,-1.01551 -0.630431,-0.45274 -1.413411,-0.85387 -1.739956,-0.89141 -2.935236,-0.33741 -3.33672,-0.33317 -3.645148,0.0385 -0.17636,0.2125 -0.596927,0.38636 -0.934593,0.38636 -0.641999,0 -2.496269,-0.96898 -2.496269,-1.30447 0,-0.55428 -4.962011,-1.22751 -8.665103,-1.17565 -1.967121,0.0275 -2.182813,-0.0183 -2.182813,-0.46444 0,-0.41251 0.209484,-0.49698 1.256771,-0.50679 0.691224,-0.006 1.822318,-0.0527 2.513542,-0.10269 0.691223,-0.05 1.25677,0.0111 1.25677,0.13576 0,0.12467 0.198126,0.15065 0.440279,0.0577 0.280077,-0.10748 0.375749,-0.0646 0.262935,0.11799 -0.265646,0.42983 0.390481,0.547 1.074834,0.19196 0.464272,-0.24087 0.887905,-0.23741 1.859019,0.0152 1.365273,0.35511 3.2421,1.35861 3.2421,1.73347 0,0.30668 1.551138,0.12123 1.899463,-0.22709 0.166452,-0.16645 0.566185,-0.18601 1.037723,-0.0508 0.502822,0.14421 0.76698,0.1232 0.76698,-0.061 0,-0.34433 2.199372,-0.0955 2.318645,0.26236 0.04459,0.13376 0.373088,0.18738 0.730003,0.11915 0.415467,-0.0794 0.702485,0.0155 0.797775,0.26381 0.163271,0.42548 1.445244,0.3256 1.445244,-0.11259 0,-0.13895 0.156819,-0.40946 0.348488,-0.60113 0.445353,-0.44535 3.597888,-0.3426 3.887945,0.12672 0.111276,0.18005 0.32395,0.25219 0.472609,0.16031 0.419271,-0.25912 1.111337,0.10717 1.115842,0.59059 0.0032,0.34394 0.05143,0.35995 0.230935,0.0767 0.174203,-0.27491 0.353528,-0.29027 0.772305,-0.0661 0.723706,0.38731 1.109375,0.36869 1.109375,-0.0536 0,-0.19001 0.297656,-0.74893 0.661456,-1.24203 0.84721,-1.14833 0.83354,-1.4936 -0.0661,-1.67056 -1.991514,-0.39171 -3.241143,-0.77818 -3.241143,-1.00238 0,-0.13685 0.297656,-0.38445 0.661458,-0.5502 0.363802,-0.16576 0.661459,-0.46937 0.661459,-0.67469 0,-0.53264 0.668093,-1.12926 1.264535,-1.12926 0.937751,0 2.174801,0.5746 2.191821,1.01807 0.0112,0.29263 0.0989,0.23226 0.26509,-0.18261 0.13658,-0.34086 0.18477,-0.72258 0.10709,-0.84827 -0.0777,-0.12569 0.1592,-0.42537 0.52639,-0.66596 0.80105,-0.52487 0.72596,-0.68934 -0.63961,-1.40112 -1.11692,-0.58217 -1.43662,-0.44512 -1.45651,0.62437 -0.007,0.38577 -0.18938,0.52948 -0.67131,0.52948 -0.583642,0 -0.648178,-0.0934 -0.54859,-0.79375 0.06208,-0.43656 0.121607,-1.32818 0.132292,-1.98138 0.01843,-1.1267 -0.03324,-1.21247 -1.007156,-1.67192 -1.240424,-0.58518 -4.661959,-0.94195 -4.661959,-0.48611 0,0.16662 -0.252011,0.30295 -0.560025,0.30295 -0.454606,0 -0.528115,0.11207 -0.390506,0.59532 0.09324,0.32742 0.24482,0.94149 0.336853,1.3646 0.155746,0.71602 0.123243,0.75577 -0.46939,0.57395 -1.367261,-0.41946 -1.71085,-0.43582 -2.140115,-0.10192 -0.557776,0.43385 -0.664521,1.94749 -0.211003,2.99201 0.18955,0.43656 0.325411,0.88305 0.301912,0.99219 -0.0235,0.10914 0.109408,0.19844 0.295348,0.19844 0.295392,0 1.249426,0.88983 1.249426,1.16534 0,0.0555 -0.18277,0.17109 -0.406155,0.25682 -0.517771,0.19868 -2.239678,-1.53442 -2.239678,-2.25424 0,-0.28714 -0.111422,-0.45321 -0.247604,-0.36904 -0.136182,0.0842 -0.328327,-0.38528 -0.426989,-1.0432 -0.138461,-0.92333 -0.07142,-1.36211 0.293869,-1.92335 0.618246,-0.94989 1.180766,-1.3698 1.848926,-1.38017 0.372774,-0.006 0.643779,-0.28943 0.86741,-0.90787 0.364489,-1.00798 1.711572,-1.80978 3.070377,-1.82753 1.79801,-0.0235 3.445471,0.39817 4.03312,1.03226 0.324385,0.35002 0.767042,0.63639 0.983687,0.63639 0.21664,0 0.47249,0.12718 0.56856,0.28262 0.0961,0.15545 0.37098,0.19948 0.61093,0.0979 0.65839,-0.27884 2.76534,-0.12397 3.11853,0.22922 0.10122,0.10122 0.34782,0.18404 0.54799,0.18404 0.95824,0 2.63985,1.98498 3.00449,3.54652 0.32368,1.38613 0.8848,2.27432 1.43682,2.27432 0.4508,0 1.02808,1.94404 0.82158,2.76677 -0.0962,0.38343 -0.0865,0.84036 0.0217,1.01539 0.10818,0.17504 0.20112,0.55651 0.20654,0.84773 0.006,0.34511 0.16412,0.50401 0.45291,0.45632 0.24369,-0.0402 0.51089,0.0366 0.59378,0.1707 0.0836,0.13533 0.58839,0.0207 1.13423,-0.25757 0.54094,-0.27578 1.19734,-0.50143 1.45868,-0.50143 0.80654,0 3.15055,1.40969 3.83956,2.30912 0.35978,0.46964 0.99927,1.02607 1.4211,1.23651 0.73355,0.36594 0.77405,0.35438 0.92964,-0.26557 0.0895,-0.3565 0.38878,-0.76918 0.66513,-0.91708 0.49262,-0.26364 2.34978,-0.074 2.61169,0.26669 0.39836,0.5182 2.38373,1.40715 3.24114,1.45123 1.13532,0.0584 1.3051,-0.27086 0.33073,-0.64131 -0.3638,-0.13832 -0.66146,-0.41934 -0.66146,-0.62448 0,-0.5092 -1.15583,-1.22761 -1.97506,-1.22761 -0.49038,0 -0.67077,-0.1398 -0.67077,-0.51985 0,-0.60703 -0.73664,-1.06765 -1.70744,-1.06765 -0.59312,0 -0.66236,0.0858 -0.52165,0.64642 0.19754,0.78709 -0.0378,1.23296 -0.54744,1.03738 -0.35516,-0.13629 -0.77174,-0.95223 -0.7948,-1.5568 -0.0156,-0.41023 -3.38557,-3.56658 -3.8079,-3.56658 -0.13728,0 -0.29177,-0.12655 -0.34333,-0.28123 -0.0516,-0.15468 -0.42703,-0.31781 -0.83437,-0.36253 -1.10212,-0.12098 -1.35583,-0.52382 -0.58854,-0.93446 0.56827,-0.30413 0.75256,-0.2851 1.39441,0.14399 0.40678,0.27194 0.83324,0.49753 0.94769,0.50131 0.11445,0.004 0.31847,0.18547 0.45337,0.40375 0.13491,0.21829 0.36697,0.39688 0.51569,0.39688 0.14872,0 0.83768,0.54099 1.53101,1.2022 1.11632,1.0646 1.40625,1.20624 2.53329,1.23759 0.69999,0.0195 1.4386,0.17308 1.64136,0.34135 0.20275,0.16828 0.89847,0.46541 1.54603,0.6603 1.09906,0.33076 1.18623,0.32049 1.31044,-0.15449 0.0778,-0.29765 0.36295,-0.50883 0.68699,-0.50883 0.71704,0 0.6991,-0.15896 -0.15742,-1.39492 -0.64603,-0.93223 -0.79182,-1.0114 -1.5875,-0.86213 -0.7598,0.14254 -0.87614,0.0925 -0.87614,-0.37679 0,-0.61037 -0.27164,-0.69285 -0.73984,-0.22465 -0.24562,0.24563 -0.40373,0.20118 -0.70596,-0.19844 -0.2142,-0.28322 -0.39324,-0.65575 -0.39787,-0.82784 -0.005,-0.1721 -0.2763,-0.3965 -0.60373,-0.49868 -0.32742,-0.10218 -0.66514,-0.29409 -0.75048,-0.42647 -0.0854,-0.13237 -0.68066,-0.26515 -1.32292,-0.29506 -1.02774,-0.0479 -1.17784,0.0167 -1.25196,0.53837 -0.0806,0.5676 -0.11714,0.57574 -0.85989,0.19165 -0.42663,-0.22062 -0.77568,-0.49974 -0.77568,-0.62028 0,-0.12053 -0.29766,-0.54033 -0.66146,-0.93288 -0.62947,-0.6792 -0.88802,-1.83858 -0.46302,-2.07626 0.10914,-0.061 0.0496,-0.0747 -0.13229,-0.0303 -0.51227,0.12488 -0.39014,-0.69121 0.13229,-0.88396 0.25466,-0.094 0.53872,-0.28361 0.63125,-0.42145 0.26916,-0.40099 4.47114,-0.33355 4.72414,0.0758 0.11748,0.19008 0.40239,0.27315 0.63314,0.18461 0.26151,-0.10036 0.5237,0.0336 0.69606,0.35568 0.15209,0.28418 0.36226,0.50377 0.46706,0.48798 0.57567,-0.0867 0.87872,0.11193 1.24173,0.81392 0.87112,1.68456 2.38659,3.45281 2.95945,3.4531 1.03432,5.2e-4 5.11748,4.53535 5.11748,5.68357 0,0.22117 0.11906,0.40213 0.26458,0.40213 0.40488,0 0.31451,1.21669 -0.11696,1.57478 -0.30831,0.25587 -0.66721,0.10561 -1.86986,-0.78284 -1.5601,-1.15251 -2.56372,-1.29269 -1.92428,-0.26878 0.18383,0.29435 0.42159,0.53517 0.52837,0.53517 0.39914,0 0.98386,1.4993 0.69671,1.78645 -0.19383,0.19382 -0.11392,0.32962 0.26464,0.44977 0.35667,0.11321 0.4948,0.32598 0.40353,0.6216 -0.12433,0.40271 -0.10779,0.4013 0.15894,-0.0135 0.36392,-0.56601 1.32975,-0.61405 1.32975,-0.0661 0,0.21828 0.11906,0.39687 0.26458,0.39687 0.14552,0 0.26458,-0.1751 0.26458,-0.38912 0,-0.31958 0.33741,-0.36333 1.88765,-0.2448 1.74934,0.13375 5.38499,-0.44926 5.78527,-0.92773 0.0728,-0.087 0.39466,-0.30453 0.71534,-0.48345 0.72654,-0.40537 0.97532,-0.0583 0.58004,0.80924 -0.22786,0.5001 -0.57282,0.69697 -1.4524,0.82887 -0.63446,0.0951 -1.21005,0.26438 -1.27908,0.37607 -0.069,0.1117 -0.72111,0.16676 -1.44906,0.12235 -0.72795,-0.0444 -1.38577,0.0199 -1.46184,0.14301 -0.18472,0.29889 -1.47383,0.0402 -1.47383,-0.29571 0,-0.14529 -0.29145,-0.0732 -0.64767,0.1602 -0.3767,0.24682 -0.71273,0.31907 -0.80319,0.17269 -0.12611,-0.20404 -1.0745,0.0336 -1.67944,0.42076 -0.0482,0.0308 0.035,0.28513 0.18486,0.5651 0.14984,0.27998 0.20892,0.75192 0.1313,1.04875 -0.1659,0.6344 -1.41559,1.30271 -1.66907,0.89258 -0.25239,-0.40837 -2.15703,-1.16941 -3.12133,-1.2472 -0.47172,-0.0381 -1.26305,-0.37838 -1.7585,-0.75629 l -0.90083,-0.68709 -0.55661,0.70761 c -0.67779,0.86166 -0.69979,1.1299 -0.0936,1.14103 1.81283,0.0333 3.49116,0.95441 3.50116,1.92159 0.003,0.27387 0.30535,0.50806 0.79529,0.61567 0.43489,0.0955 0.85863,0.28357 0.94165,0.4179 0.083,0.13432 0.38204,0.24422 0.66449,0.24422 0.28246,0 0.51356,0.12134 0.51356,0.26963 0,0.15548 0.28002,0.19934 0.66145,0.10361 0.40757,-0.10229 0.66146,-0.0534 0.66146,0.12725 0,0.16129 0.18021,0.29326 0.40047,0.29326 0.77797,0 2.24537,1.04629 2.24537,1.601 0,0.24312 0.0887,0.24228 0.38498,-0.004 0.31034,-0.25756 0.56635,-0.18118 1.32034,0.39391 1.23139,0.93923 1.01594,1.50282 -0.32718,0.85593 z m -9.20049,-4.67156 c 0.16956,-0.27435 -0.44939,-0.5569 -1.2199,-0.5569 -0.30978,0 -0.59014,-0.2212 -0.67067,-0.52916 -0.16126,-0.61664 -0.60583,-0.71372 -0.60583,-0.13229 0,0.21828 -0.14288,0.39687 -0.3175,0.39687 -0.5642,0 0.14058,0.47514 1.11125,0.74918 1.21832,0.34394 1.52667,0.35704 1.70265,0.0723 z m -3.62639,-0.98133 c -0.0879,-0.0879 -0.31613,-0.0973 -0.50712,-0.0209 -0.21107,0.0845 -0.14838,0.14716 0.15985,0.15985 0.27892,0.0115 0.43518,-0.051 0.34727,-0.13896 z m 7.74457,-1.69223 c 0,-0.14552 -0.17157,-0.26459 -0.38126,-0.26459 -0.20969,0 -0.45485,0.11907 -0.54478,0.26459 -0.0899,0.14552 0.0816,0.26458 0.38126,0.26458 0.29963,0 0.54478,-0.11906 0.54478,-0.26458 z m -7.14375,-1.20624 c 0,-0.22687 -0.11906,-0.33891 -0.26458,-0.24897 -0.14552,0.0899 -0.26459,0.27556 -0.26459,0.41249 0,0.13693 0.11907,0.24897 0.26459,0.24897 0.14552,0 0.26458,-0.18562 0.26458,-0.41249 z m 5.82083,-0.11668 c -0.73191,-0.57251 -1.05833,-0.65817 -1.05833,-0.27773 0,0.31415 0.79401,0.79009 1.32292,0.79297 0.26145,0.001 0.17116,-0.17439 -0.26459,-0.51524 z m -3.70416,-0.79375 c 0,-0.35278 -0.17639,-0.52917 -0.52917,-0.52917 -0.29104,0 -0.52917,0.11907 -0.52917,0.26459 0,0.14552 0.1786,0.26458 0.39688,0.26458 0.21828,0 0.39687,0.11906 0.39687,0.26458 0,0.14553 0.0595,0.26459 0.13229,0.26459 0.0728,0 0.1323,-0.23813 0.1323,-0.52917 z m -2.22691,-1.25677 c -0.10914,-0.10914 -0.21828,-0.14855 -0.24254,-0.0876 -0.0242,0.061 -0.30931,-0.0311 -0.63345,-0.20456 -0.49813,-0.26659 -0.56542,-0.25303 -0.43472,0.0876 0.085,0.22165 0.45941,0.403 0.8319,0.403 0.37248,0 0.58795,-0.0893 0.47881,-0.19844 z m -22.64393,-3.24115 c 0,-0.14552 -0.11906,-0.26458 -0.26458,-0.26458 -0.14552,0 -0.26458,0.11906 -0.26458,0.26458 0,0.14552 0.11906,0.26459 0.26458,0.26459 0.14552,0 0.26458,-0.11907 0.26458,-0.26459 z m 25.92917,0 c 0,-0.14552 -0.11906,-0.26458 -0.26458,-0.26458 -0.14552,0 -0.26459,0.11906 -0.26459,0.26458 0,0.14552 0.11907,0.26459 0.26459,0.26459 0.14552,0 0.26458,-0.11907 0.26458,-0.26459 z m -17.28385,-1.14653 c 0.0428,-0.55737 -0.12539,-0.79894 -0.78971,-1.13398 -0.46428,-0.23415 -1.1418,-0.70164 -1.50561,-1.03887 -0.83511,-0.77411 -2.19151,-0.96967 -2.32199,-0.33477 -0.0656,0.31923 0.33721,0.65697 1.41017,1.18235 0.82611,0.40451 1.56055,0.88802 1.6321,1.07447 0.0716,0.18645 0.29594,0.339 0.49866,0.339 0.20271,0 0.36856,0.18852 0.36856,0.41892 0,0.71074 0.65001,0.24504 0.70782,-0.50712 z m 20.98802,-0.16077 c 0,-0.13693 -0.12641,-0.32709 -0.28091,-0.42257 -0.15449,-0.0955 -0.41559,-0.48947 -0.58021,-0.87552 l -0.29931,-0.7019 -0.10099,0.75014 c -0.0678,0.5036 0.0577,0.87041 0.38177,1.11607 0.56956,0.4317 0.87965,0.47886 0.87965,0.13378 z m -28.04584,-2.50302 c 0,-0.0584 -0.42352,-0.35604 -0.94116,-0.66146 -0.98522,-0.58129 -2.233836,-0.74379 -2.233836,-0.29072 0,0.14552 0.231099,0.26459 0.513552,0.26459 0.282453,0 0.592154,0.12718 0.688224,0.28262 0.0961,0.15544 0.32225,0.22599 0.50263,0.15677 0.18037,-0.0692 0.49575,-0.0196 0.70084,0.1102 0.39324,0.24894 0.76975,0.31644 0.76975,0.138 z m 1.81025,-1.48134 c 0.43194,-0.58423 0.48803,-0.79375 0.21248,-0.79375 -0.32797,0 -1.22898,1.06004 -1.22898,1.4459 0,0.37536 0.48857,0.0619 1.0165,-0.65215 z m 3.3097,0.12494 c -0.17928,-0.46718 -1.12392,-1.03417 -1.34862,-0.80946 -0.21476,0.21476 0.73683,1.21368 1.15617,1.21368 0.20305,0 0.28307,-0.16807 0.19245,-0.40422 z m 17.63422,-0.91077 c 0,-0.28669 -0.35719,-0.78533 -0.79375,-1.10809 -0.43656,-0.32277 -0.79375,-0.74466 -0.79375,-0.93755 0,-0.19289 -0.64722,-0.64675 -1.43826,-1.00858 -1.70327,-0.77909 -1.77026,-0.78849 -1.55118,-0.21759 0.1136,0.29604 0.0675,0.3776 -0.1406,0.24897 -0.17025,-0.10522 -0.30954,-0.0937 -0.30954,0.0256 0,0.24264 1.48532,1.52678 1.78945,1.54707 0.47357,0.0316 1.38555,0.43732 1.38555,0.6164 0,0.36195 1.07403,1.35497 1.46551,1.35497 0.21261,0 0.38657,-0.23456 0.38657,-0.52124 z m -5.77845,-1.97885 c 0.26773,0.085 0.48678,0.0274 0.48678,-0.12791 0,-0.15533 -0.11171,-0.28241 -0.24825,-0.28241 -0.13653,0 -0.22583,-0.31908 -0.19843,-0.70906 0.0461,-0.65641 -0.0288,-0.71044 -1.00853,-0.72761 -1.0209,-0.0179 -1.05707,0.0108 -1.02263,0.81091 0.0196,0.4562 0.25776,1.05962 0.52917,1.34094 0.47549,0.49286 0.50224,0.49381 0.73429,0.0261 0.15669,-0.31585 0.41087,-0.43145 0.7276,-0.33093 z m -12.74238,0.0485 c 0,-1.17581 -3.66572,-2.96668 -4.45562,-2.17678 -0.25704,0.25704 0.58859,0.92425 1.17141,0.92425 0.34897,0 0.7435,0.23121 0.90296,0.52916 0.15576,0.29105 0.46134,0.52917 0.67907,0.52917 0.21773,0 0.4644,0.17859 0.54816,0.39688 0.24934,0.64976 1.15402,0.49087 1.15402,-0.20268 z m -16.752595,-0.50839 c -0.08446,-0.21107 -0.147156,-0.14837 -0.159852,0.15985 -0.01149,0.27891 0.05104,0.43518 0.138964,0.34727 0.08792,-0.0879 0.09732,-0.31613 0.02089,-0.50712 z m 19.817465,14.90214 c -0.0865,-0.13992 -0.62225,-0.33297 -1.19061,-0.42899 -0.56836,-0.096 -1.24104,-0.40404 -1.49483,-0.68448 -0.2538,-0.28044 -0.65135,-0.50807 -0.88346,-0.50584 -0.36292,0.003 -0.36751,0.0385 -0.0328,0.25019 0.66312,0.41937 0.20965,0.46956 -1.6381,0.18129 -1.10032,-0.17166 -1.83386,-0.42281 -1.92446,-0.65892 -0.23658,-0.61652 0.14134,-0.74636 0.54915,-0.18865 0.20638,0.28225 0.37524,0.38409 0.37524,0.22633 0,-0.4575 0.5436,-0.53167 2.38125,-0.32492 1.97736,0.22247 2.17393,0.26965 3.47343,0.83372 1.15962,0.50336 1.40508,0.83875 0.91283,1.24727 -0.22778,0.18905 -0.43094,0.20946 -0.52764,0.053 z m -39.952316,-8.20251 c -0.07787,-0.126 -0.44209,-0.17165 -0.809365,-0.10144 -0.39149,0.0748 -0.667773,0.005 -0.667773,-0.16778 0,-0.16248 0.208359,-0.309 0.463021,-0.32559 0.254661,-0.0166 0.790442,-0.069 1.190625,-0.11644 0.57337,-0.068 0.727604,0.0225 0.727604,0.42704 0,0.51424 -0.637996,0.7148 -0.904112,0.28421 z m 25.179631,-0.35209 c -0.545703,-0.26472 -0.992187,-0.59943 -0.992187,-0.7438 0,-0.15174 0.893137,-0.26251 2.116666,-0.26251 1.621475,0 2.116667,0.0853 2.116667,0.36448 0,0.20047 -0.178594,0.5127 -0.396875,0.69386 -0.218281,0.18115 -0.396875,0.26358 -0.396875,0.18316 0,-0.0804 -0.327422,-0.058 -0.727604,0.0499 -0.497857,0.13423 -1.040896,0.0442 -1.719792,-0.28513 z"
       id="path16" />
  </g>
</svg>
