<?xml version="1.0" encoding="UTF-8" standalone="no"?>
<!-- Created with Inkscape (http://www.inkscape.org/) -->

<svg
   width="52.277519mm"
   height="17.821688mm"
   viewBox="0 0 52.277522 17.821688"
   version="1.1"
   id="svg1"
   inkscape:version="1.4.1-rc (06eac75fbf, 2025-03-29)"
   sodipodi:docname="bushes13.svg"
   xmlns:inkscape="http://www.inkscape.org/namespaces/inkscape"
   xmlns:sodipodi="http://sodipodi.sourceforge.net/DTD/sodipodi-0.dtd"
   xmlns="http://www.w3.org/2000/svg"
   xmlns:svg="http://www.w3.org/2000/svg">
  <sodipodi:namedview
     id="namedview1"
     pagecolor="#ffffff"
     bordercolor="#000000"
     borderopacity="0.25"
     inkscape:showpageshadow="2"
     inkscape:pageopacity="0.0"
     inkscape:pagecheckerboard="0"
     inkscape:deskcolor="#d1d1d1"
     inkscape:document-units="mm"
     inkscape:zoom="0.72248176"
     inkscape:cx="98.272377"
     inkscape:cy="33.910891"
     inkscape:window-width="1850"
     inkscape:window-height="1016"
     inkscape:window-x="0"
     inkscape:window-y="0"
     inkscape:window-maximized="1"
     inkscape:current-layer="layer1" />
  <defs
     id="defs1" />
  <g
     inkscape:label="Layer 1"
     inkscape:groupmode="layer"
     id="layer1"
     transform="translate(-78.845923,-139.43582)">
    <path
       style="fill:#000000"
       d="m 82.12886,157.08129 c -0.097,-0.097 -0.17639,-0.39467 -0.17639,-0.66146 0,-0.26679 -0.0963,-0.48507 -0.21401,-0.48507 -0.11771,0 -0.44127,-0.16617 -0.71902,-0.36927 -0.47648,-0.34841 -0.44837,-0.39294 0.49764,-0.78821 0.55145,-0.23041 0.94064,-0.51925 0.86486,-0.64186 -0.17737,-0.28701 0.90332,-1.22573 1.42262,-1.23573 0.21828,-0.004 0.37703,-0.1267 0.35277,-0.27222 -0.0506,-0.30364 0.28615,-0.36086 3.28525,-0.55816 1.20054,-0.079 2.18281,-0.25359 2.18281,-0.38803 0,-0.13444 0.16586,-0.24444 0.36857,-0.24444 0.20271,0 0.43633,-0.17658 0.51915,-0.39241 0.0905,-0.23593 0.32349,-0.32606 0.58418,-0.22603 0.61906,0.23756 0.89027,-0.36867 0.55834,-1.24806 -0.2267,-0.60059 -0.20017,-0.84913 0.13119,-1.2291 0.22844,-0.26195 0.36364,-0.6185 0.30043,-0.79233 -0.0632,-0.17384 0.022,-0.57186 0.18929,-0.8845 0.28235,-0.52757 0.43585,-0.55521 2.1359,-0.38448 2.36709,0.23772 2.27287,-0.18154 -0.32427,-1.44292 -1.39098,-0.67557 -2.26217,-0.92132 -3.36799,-0.95007 -2.8769,-0.0748 -2.8501,-0.0686 -2.37124,-0.54745 0.65171,-0.65171 3.96657,-0.8164 4.55659,-0.22638 0.24707,0.24708 0.51979,0.37866 0.60604,0.29241 0.19314,-0.19314 1.72359,0.63215 2.01395,1.08601 0.22954,0.3588 0.97904,0.45746 0.97904,0.12889 0,-0.11102 -0.26019,-0.31938 -0.5782,-0.46302 -0.66292,-0.29945 -0.96234,-0.92697 -0.43604,-0.91384 0.19403,0.005 0.63973,0.24772 0.99045,0.53973 0.48377,0.40279 0.56359,0.605 0.33073,0.83786 -0.47556,0.47556 -0.36299,0.80665 0.22222,0.65361 0.40076,-0.1048 0.52917,-0.008 0.52917,0.39842 0,0.42023 0.0774,0.47252 0.35664,0.24081 0.28605,-0.23741 0.36144,-0.12704 0.38091,0.55759 0.0134,0.46947 0.15051,0.89566 0.30482,0.94709 0.1543,0.0514 0.28055,0.25846 0.28055,0.46004 0,0.2171 0.1618,0.30444 0.39687,0.21423 0.25131,-0.0964 0.39688,0.004 0.39688,0.27289 0,0.23385 0.10632,0.42518 0.23627,0.42518 0.33238,0 0.56977,-0.71843 0.39118,-1.18383 -0.26072,-0.67944 1.17852,-1.72659 2.3731,-1.72659 0.62393,0 0.64112,-0.0422 0.3729,-0.91616 -0.31218,-1.0172 -1.53247,-2.32658 -2.24851,-2.41268 -2.5853,-0.31088 -3.77072,-0.34617 -4.49838,-0.13392 -0.47294,0.13795 -0.8599,0.16252 -0.8599,0.0546 0,-0.42789 1.11263,-1.3563 1.66396,-1.38845 0.32175,-0.0188 0.93417,-0.0544 1.36094,-0.0791 0.79741,-0.0462 2.3828,0.32349 3.63975,0.84885 0.76867,0.32128 1.39607,1.23221 1.13718,1.6511 -0.0881,0.14251 0.0174,0.25912 0.23452,0.25912 0.40151,0 0.52076,0.2571 0.82857,1.78639 0.16611,0.82529 0.21544,0.85504 1.21037,0.73003 0.66348,-0.0834 1.03721,-0.0242 1.03721,0.16424 0,0.20198 0.12366,0.19192 0.39351,-0.032 0.21643,-0.17962 0.57832,-0.25566 0.80421,-0.16898 0.22589,0.0867 0.64775,0.0107 0.93748,-0.16884 0.42482,-0.26325 0.57003,-0.25695 0.75022,0.0325 0.15569,0.25013 0.27831,0.27019 0.40442,0.0661 0.0995,-0.16105 0.4191,-0.29283 0.71014,-0.29283 0.29104,0 0.45559,0.11907 0.36565,0.26459 -0.0899,0.14552 0.0291,0.26458 0.26458,0.26458 0.23546,0 0.35961,-0.11083 0.27589,-0.2463 -0.0837,-0.13546 0.14737,-0.56957 0.51355,-0.96467 0.36617,-0.39511 0.66577,-0.80161 0.66577,-0.90333 0,-0.40503 -0.97958,-1.00327 -1.91823,-1.17147 -1.11531,-0.19986 -1.23432,0.0244 -0.55947,1.05438 0.23799,0.36322 0.36603,0.72709 0.28452,0.8086 -0.3105,0.3105 -1.25409,-0.22837 -1.68895,-0.96453 -0.34927,-0.59127 -0.53402,-0.70075 -0.80416,-0.47655 -0.60186,0.49949 -1.47612,-0.51994 -1.28268,-1.49568 0.28294,-1.42717 1.8579,-2.1497 3.05554,-1.40176 0.40952,0.25575 0.58733,0.25575 0.84308,0 0.25575,-0.25575 0.22924,-0.32411 -0.12569,-0.32411 -0.24739,0 -0.44979,-0.11906 -0.44979,-0.26458 0,-0.14552 0.2899,-0.26458 0.64423,-0.26458 0.35433,0 0.93771,-0.11158 1.29641,-0.24796 0.98041,-0.37275 2.52557,0.21468 3.67202,1.39602 0.88473,0.91166 0.98808,1.16024 0.96208,2.31412 -0.031,1.37756 -0.59452,2.2509 -1.01418,1.57188 -0.12097,-0.19573 -0.15834,-0.51639 -0.0831,-0.71258 0.0753,-0.1962 0.0587,-0.77335 -0.0368,-1.28256 -0.1456,-0.77612 -0.38419,-1.0325 -1.47548,-1.5855 -1.6657,-0.84407 -2.03268,-0.8478 -1.48707,-0.0151 0.95278,1.45414 1.49186,2.57891 1.34775,2.81208 -0.0841,0.13613 -0.0269,0.24751 0.12723,0.24751 0.15411,0 0.2802,0.24515 0.2802,0.54478 0,0.29963 0.11906,0.4712 0.26458,0.38126 0.14552,-0.0899 0.26458,-0.0374 0.26458,0.11668 0,0.15411 0.16447,0.2802 0.36548,0.2802 0.20102,0 0.89348,0.5432 1.53882,1.20712 l 1.17334,1.20712 1.06077,-0.33107 c 0.86465,-0.26985 1.04104,-0.43426 0.95407,-0.88924 -0.0848,-0.4438 0.16845,-0.70794 1.2361,-1.28902 0.73854,-0.40197 1.46221,-0.65705 1.60815,-0.56685 0.14595,0.0902 0.26536,0.0518 0.26536,-0.0853 0,-0.28386 3.31882,-0.25549 3.60513,0.0308 0.10298,0.10298 0.38003,0.18723 0.61568,0.18723 0.51282,0 2.12919,2.02331 2.12919,2.66525 0,0.27019 -0.29304,0.53036 -0.72761,0.64598 -0.4398,0.11702 -0.5837,0.2461 -0.3638,0.32634 0.6042,0.22046 1.264,1.00402 1.1453,1.36013 -0.0878,0.2634 0.006,0.26098 0.44221,-0.0114 0.47531,-0.29683 0.61982,-0.27648 1.02097,0.1438 0.34656,0.36307 0.38063,0.52166 0.13185,0.61376 -0.1845,0.0683 -0.50342,0.29216 -0.70871,0.49744 -0.20528,0.20529 -0.53385,0.37326 -0.73015,0.37326 -0.1963,0 -0.62663,0.18892 -0.95631,0.41983 -0.47486,0.33262 -0.6795,0.35337 -0.98491,0.0999 -0.31641,-0.2626 -0.38551,-0.22223 -0.38551,0.22518 0,0.34422 -0.17064,0.54371 -0.46302,0.54131 -0.44589,-0.004 -2.05052,0.22972 -2.05052,0.29823 0,0.0339 -1.50742,0.20326 -3.43958,0.38654 -1.5885,0.15069 -5.23807,-0.35886 -5.67721,-0.79263 -0.30822,-0.30447 -0.31928,-0.44709 -0.0551,-0.71124 0.26416,-0.26416 0.37533,-0.25774 0.5544,0.032 0.12319,0.19932 0.33806,0.29191 0.47748,0.20574 0.13943,-0.0862 0.89688,-0.0539 1.68323,0.0717 0.78635,0.12561 1.46914,0.19106 1.51731,0.14544 0.0482,-0.0456 -0.041,-0.32321 -0.19816,-0.61686 -0.44771,-0.83655 -1.62581,-1.10206 -4.82916,-1.08838 -0.97061,0.004 -1.84084,-0.11559 -1.93384,-0.26608 -0.093,-0.15049 -0.72763,-0.27428 -1.41027,-0.2751 -0.68263,-8.1e-4 -1.65787,-0.11646 -2.1672,-0.25699 -0.71494,-0.19727 -1.37839,-0.13357 -2.91041,0.27942 -2.71753,0.73259 -4.16736,1.00302 -5.47696,1.02161 -0.63543,0.009 -1.20194,0.16833 -1.32292,0.37202 -0.2252,0.37918 -2.87641,1.78552 -3.04611,1.61582 -0.0553,-0.0553 -0.6308,0.0553 -1.27886,0.24577 -0.64805,0.19049 -2.02279,0.33402 -3.05498,0.31896 -1.6138,-0.0235 -1.86087,0.0332 -1.76368,0.40479 0.096,0.3669 -0.14004,0.43075 -1.56289,0.42286 -2.20904,-0.0123 -3.39952,0.1824 -3.65627,0.59783 -0.11518,0.18637 -0.3447,0.25524 -0.51004,0.15306 -0.16534,-0.10219 -0.65024,-0.10901 -1.07755,-0.0152 -0.69414,0.15246 -0.76042,0.25322 -0.62193,0.94564 0.1147,0.57352 0.0547,0.77501 -0.23085,0.77501 -0.21222,0 -0.46523,-0.0794 -0.56224,-0.17639 z m 1.94028,-2.73403 c 0,-0.14552 -0.11906,-0.26458 -0.26458,-0.26458 -0.14552,0 -0.26459,0.11906 -0.26459,0.26458 0,0.14552 0.11907,0.26458 0.26459,0.26458 0.14552,0 0.26458,-0.11906 0.26458,-0.26458 z m 1.19063,0 c 0.0899,-0.14552 -0.0816,-0.26458 -0.38126,-0.26458 -0.29963,0 -0.54479,0.11906 -0.54479,0.26458 0,0.14552 0.17157,0.26458 0.38126,0.26458 0.2097,0 0.45485,-0.11906 0.54479,-0.26458 z m 1.19062,-0.11668 c 0,-0.0642 -0.11906,-0.19026 -0.26458,-0.2802 -0.14552,-0.0899 -0.26459,-0.0374 -0.26459,0.11668 0,0.15411 0.11907,0.2802 0.26459,0.2802 0.14552,0 0.26458,-0.0525 0.26458,-0.11668 z m 0.98668,-0.0432 c -0.0879,-0.0879 -0.31613,-0.0973 -0.50712,-0.0209 -0.21107,0.0845 -0.14837,0.14716 0.15985,0.15985 0.27892,0.0115 0.43518,-0.051 0.34727,-0.13896 z m -0.45751,-1.32367 c 0,-0.0572 -0.32742,-0.10216 -0.72761,-0.0999 -0.52953,0.003 -0.62609,0.0683 -0.35472,0.2401 0.3369,0.21328 1.08233,0.11674 1.08233,-0.14017 z m 1.78042,0.26533 c -0.0879,-0.0879 -0.31612,-0.0973 -0.50712,-0.0209 -0.21106,0.0845 -0.14837,0.14715 0.15986,0.15985 0.27891,0.0115 0.43518,-0.0511 0.34726,-0.13897 z m 4.82881,-0.26575 c 0.58502,-0.23408 1.06368,-0.52755 1.06368,-0.65215 0,-0.45637 -1.00736,-0.74592 -2.24439,-0.64512 -1.34455,0.10956 -1.82238,0.36391 -1.5149,0.80637 0.14441,0.2078 1.11973,0.76563 1.57113,0.8986 0.0334,0.01 0.53945,-0.17362 1.12448,-0.4077 z m -3.38573,-0.69005 c -0.18985,-0.18986 -0.31309,-0.20548 -0.31309,-0.0397 0,0.35316 0.3129,0.66606 0.48948,0.48948 0.0752,-0.0752 -0.004,-0.27759 -0.17639,-0.44979 z m 30.90775,0.32191 c -0.51816,-0.33486 -0.86841,-0.33486 -0.66146,0 0.0899,0.14552 0.36485,0.26276 0.61093,0.26053 0.38557,-0.003 0.39255,-0.0395 0.0505,-0.26053 z m 3.175,-0.26902 c 0.60418,-0.0106 0.61865,-0.0365 0.16712,-0.29887 -0.60171,-0.34959 -2.81296,-0.49415 -2.81296,-0.1839 0,0.12244 0.24516,0.22262 0.54478,0.22262 0.34524,0 0.47546,0.11218 0.35551,0.30626 -0.13271,0.21473 10e-4,0.25535 0.4474,0.13591 0.35018,-0.0937 0.93434,-0.17561 1.29815,-0.18202 z m -28.2575,-0.31307 c -0.24695,-0.24694 -0.38806,-0.24694 -0.635,0 -0.24695,0.24695 -0.17639,0.3175 0.3175,0.3175 0.49389,0 0.56444,-0.0705 0.3175,-0.3175 z M 121.04,151.2826 c 0.0338,-0.27899 -0.006,-0.35768 -0.0887,-0.17487 -0.0826,0.18281 -0.25912,0.26508 -0.39221,0.18282 -0.1331,-0.0822 -0.37376,-0.0681 -0.53482,0.0314 -0.20413,0.12616 -0.18409,0.2498 0.0661,0.40819 0.50628,0.32044 0.87776,0.14535 0.94962,-0.44757 z m 6.37671,-0.12993 c 0.0485,-0.13476 0.25687,-0.24502 0.46302,-0.24502 0.76737,0 0.3352,-0.5221 -0.88194,-1.06545 -0.82862,-0.36991 -1.5579,-0.51367 -2.14066,-0.422 -0.48614,0.0765 -1.09227,0.009 -1.34695,-0.15014 -0.65534,-0.40926 -2.54141,-0.043 -2.15793,0.41907 0.15415,0.18575 0.7417,0.35581 1.30565,0.3779 1.11184,0.0436 2.06985,0.45101 2.81684,1.198 0.48452,0.48452 1.75355,0.4111 1.94197,-0.11236 z m -28.26632,-0.63983 c 0,-0.77343 -4.15076,-1.71575 -4.42376,-1.0043 -0.15415,0.40169 -1.29313,0.45843 -1.52936,0.0762 -0.20956,-0.33906 -0.66146,-0.3437 -0.66146,-0.007 0,0.37644 1.6278,1.15893 1.82104,0.87539 0.19945,-0.29264 1.35396,-0.30812 1.35396,-0.0181 0,0.11433 0.26789,0.20971 0.59531,0.21193 0.32742,0.002 0.74691,0.10027 0.9322,0.21786 0.48404,0.3072 1.91207,0.0442 1.91207,-0.35213 z m 5.68429,-0.7782 0.98337,-0.33806 -0.88643,-0.83074 c -1.07075,-1.00347 -1.5479,-1.05641 -1.5479,-0.17174 0,0.46583 -0.14394,0.66146 -0.48669,0.66146 -0.62699,0 -1.18348,-1.13441 -0.76285,-1.55504 0.21967,-0.21966 0.15497,-0.29704 -0.24835,-0.29704 -0.42718,0 -0.52006,0.13252 -0.42852,0.6114 0.0682,0.35658 -0.0574,0.75605 -0.30127,0.95844 -0.5037,0.41803 -0.53301,0.85473 -0.0874,1.30255 0.37371,0.37558 2.14887,0.21474 3.76607,-0.34123 z m 15.14292,-0.19836 c -0.0687,-0.84927 -0.16933,-0.87248 -1.44774,-0.33383 l -0.99093,0.41752 0.6436,0.34826 c 0.35398,0.19154 0.9156,0.33244 1.24804,0.31311 0.48639,-0.0283 0.59323,-0.17381 0.54703,-0.74506 z m -5.36231,-0.19741 c -0.13825,-0.13522 -0.60855,-0.32301 -1.04511,-0.4173 l -0.79375,-0.17144 0.66146,0.39136 c 0.7523,0.4451 1.57097,0.58235 1.1774,0.19738 z m -7.14766,-0.57561 c -0.23088,-0.37358 -0.64432,-0.27623 -0.64432,0.15171 0,0.23603 0.1552,0.32901 0.39535,0.23686 0.21745,-0.0835 0.32948,-0.2583 0.24897,-0.38857 z m 3.98023,0.0215 c -0.30113,-0.33274 -0.57834,-0.44163 -0.73233,-0.28764 -0.35797,0.35797 0.0163,0.82306 0.66232,0.82306 0.53995,0 0.5418,-0.0141 0.07,-0.53542 z m 5.02448,0.0196 c 0.0854,-0.13817 -0.20523,-0.51775 -0.64584,-0.84351 -0.44061,-0.32575 -0.80111,-0.74848 -0.80111,-0.9394 0,-0.19091 -0.11204,-0.34712 -0.24897,-0.34712 -0.43256,0 -0.60232,0.53791 -0.28892,0.91553 0.22844,0.27525 0.21794,0.39136 -0.0434,0.4796 -0.18963,0.064 -0.13131,0.0838 0.12961,0.0439 0.26091,-0.0399 0.61697,0.1558 0.79125,0.43485 0.34018,0.54472 0.85536,0.66388 1.10735,0.25615 z m -6.63066,-0.67482 c -0.43227,-0.65973 -0.43107,-0.66151 0.45693,-0.68005 0.71566,-0.0149 0.78651,-0.0597 0.36116,-0.22797 -0.29105,-0.11516 -0.678,-0.15358 -0.8599,-0.0854 -0.1819,0.0682 -0.33255,-0.0376 -0.33478,-0.23505 -0.007,-0.62278 -0.51651,0.36278 -0.52106,1.00797 -0.004,0.55592 0.29859,0.81792 0.99423,0.86106 0.24421,0.0152 0.21765,-0.161 -0.0966,-0.64057 z m 17.12492,-0.0765 c -0.16994,-0.0566 -0.48129,-0.27529 -0.69187,-0.48588 -0.93048,-0.93047 -4.34757,-1.68967 -3.61112,-0.8023 0.16208,0.19529 0.23139,0.41837 0.15403,0.49574 -0.0774,0.0774 0.76174,0.35318 1.86468,0.61292 1.10295,0.25974 2.08205,0.59634 2.17578,0.748 0.10701,0.17315 0.21639,0.13785 0.29396,-0.0949 0.0679,-0.20383 -0.0155,-0.41696 -0.18546,-0.47361 z m -30.99121,-0.32033 c -1.31195,-0.55051 -2.52763,-0.66989 -2.77333,-0.27234 -0.16745,0.27093 0.44758,0.46406 1.97958,0.62159 1.85176,0.19042 1.96311,0.14142 0.79375,-0.34925 z m 12.43542,0.22432 c 0,-0.0949 -0.34907,-0.29424 -0.77571,-0.44297 -0.84532,-0.29468 -1.87013,-0.14104 -1.87013,0.28036 0,0.14552 0.23801,0.20235 0.52891,0.12628 0.29089,-0.0761 0.57718,-0.0602 0.63619,0.0353 0.13953,0.22577 1.48074,0.22672 1.48074,0.001 z m 13.22511,-0.42276 c -0.002,-0.10914 -0.11482,-0.37358 -0.2502,-0.58765 -0.30483,-0.48202 -0.66246,-0.18056 -0.4482,0.3778 0.15825,0.41237 0.7059,0.57693 0.6984,0.20985 z m -8.19803,-1.29079 c 0,-0.50779 -1.09827,-0.38492 -1.27215,0.14232 -0.0845,0.25618 0.0126,0.32089 0.31001,0.20675 0.23813,-0.0914 0.43297,-0.0438 0.43297,0.10574 0,0.14954 0.11907,0.19831 0.26459,0.10837 0.14552,-0.0899 0.26458,-0.34337 0.26458,-0.56318 z m -4.21671,-4.6854 c -0.39959,-0.39959 -1.20481,-0.0548 -1.29155,0.55305 -0.0834,0.58421 -0.0755,0.58566 0.71613,0.13134 0.44023,-0.25266 0.69917,-0.56064 0.57542,-0.68439 z M 79.04744,155.6735 c -0.18577,-0.11481 -0.25595,-0.34112 -0.15596,-0.50291 0.20656,-0.33422 0.85261,-0.39408 1.03323,-0.0957 0.20103,0.33205 -0.51645,0.82164 -0.87727,0.59864 z m 9.71471,-8.94685 c -0.39834,-0.2417 -0.72426,-0.53797 -0.72426,-0.65837 0,-0.1204 -0.11906,-0.14533 -0.26458,-0.0554 -0.14552,0.0899 -0.26459,-0.008 -0.26459,-0.21811 0,-0.20989 -0.2577,-0.44902 -0.57267,-0.53139 -0.45476,-0.11892 -0.50971,-0.22563 -0.26688,-0.51822 0.16819,-0.20265 0.22116,-0.4531 0.11772,-0.55654 -0.10344,-0.10344 0.0121,-0.11126 0.25681,-0.0174 0.24468,0.0939 0.51697,0.39784 0.60507,0.67544 0.0881,0.2776 0.33779,0.50473 0.55486,0.50473 0.21706,0 0.327,0.10946 0.24432,0.24325 -0.1617,0.26164 0.42584,0.95642 0.97428,1.15211 0.1845,0.0658 0.27442,0.18711 0.19981,0.2695 -0.0746,0.0824 -0.46155,-0.0479 -0.85989,-0.28964 z"
       id="path20" />
  </g>
</svg>
