<?xml version="1.0" encoding="UTF-8" standalone="no"?>
<!-- Created with Inkscape (http://www.inkscape.org/) -->

<svg
   width="49.606693mm"
   height="24.223913mm"
   viewBox="0 0 49.606695 24.223914"
   version="1.1"
   id="svg1"
   inkscape:version="1.4.1-rc (06eac75fbf, 2025-03-29)"
   sodipodi:docname="bushes9.svg"
   xmlns:inkscape="http://www.inkscape.org/namespaces/inkscape"
   xmlns:sodipodi="http://sodipodi.sourceforge.net/DTD/sodipodi-0.dtd"
   xmlns="http://www.w3.org/2000/svg"
   xmlns:svg="http://www.w3.org/2000/svg">
  <sodipodi:namedview
     id="namedview1"
     pagecolor="#ffffff"
     bordercolor="#000000"
     borderopacity="0.25"
     inkscape:showpageshadow="2"
     inkscape:pageopacity="0.0"
     inkscape:pagecheckerboard="0"
     inkscape:deskcolor="#d1d1d1"
     inkscape:document-units="mm"
     inkscape:zoom="0.72248176"
     inkscape:cx="94.120023"
     inkscape:cy="46.367952"
     inkscape:window-width="1850"
     inkscape:window-height="1016"
     inkscape:window-x="0"
     inkscape:window-y="0"
     inkscape:window-maximized="1"
     inkscape:current-layer="layer1" />
  <defs
     id="defs1" />
  <g
     inkscape:label="Layer 1"
     inkscape:groupmode="layer"
     id="layer1"
     transform="translate(-80.168849,-135.99634)">
    <path
       style="fill:#000000"
       d="m 107.05012,160.10313 c -0.24609,-0.3982 0.10881,-1.05915 0.66321,-1.23511 0.34586,-0.10977 0.50472,-0.40513 0.50472,-0.93836 0,-0.70981 -0.0461,-0.74937 -0.52489,-0.45036 -0.43427,0.27121 -0.60119,0.2515 -0.96687,-0.11418 -0.41291,-0.41292 -0.41181,-0.48803 0.0169,-1.14226 0.25237,-0.38516 0.41957,-0.73738 0.37156,-0.78271 -0.048,-0.0453 -1.15023,0.0504 -2.44939,0.2127 -1.83679,0.22949 -2.38597,0.22351 -2.46944,-0.0269 -0.059,-0.17712 -0.31691,-0.32204 -0.57304,-0.32204 -0.25614,0 -1.13451,-0.2301 -1.951942,-0.51134 -1.860114,-0.63997 -3.395036,-0.79758 -9.189465,-0.9436 -4.423282,-0.11147 -5.385249,-0.30799 -4.306024,-0.87969 0.374282,-0.19827 4.628274,-0.44219 6.035348,-0.34607 0.145521,0.01 1.455208,0.0852 2.910416,0.16718 3.030801,0.1708 4.7376,0.50568 6.214707,1.21934 1.22807,0.59334 2.03385,0.61226 5.03008,0.11807 3.01997,-0.4981 4.32446,-0.84655 5.47233,-1.46178 0.5294,-0.28374 1.06283,-0.45391 1.18541,-0.37815 0.42138,0.26043 -0.28058,1.07602 -1.46852,1.70622 -0.90831,0.48186 -1.12313,0.71143 -0.90813,0.97049 0.1549,0.18663 0.65576,0.33933 1.11304,0.33933 0.45728,0 1.28939,0.24546 1.84914,0.54547 0.55974,0.3 1.37651,0.59087 1.81505,0.64637 0.85407,0.10809 2.05418,1.05884 2.05418,1.62737 0,0.56008 1.34761,0.77507 1.63535,0.26089 0.13876,-0.24794 0.57439,-0.43426 1.01533,-0.43426 0.55892,0 0.73241,-0.10394 0.62794,-0.3762 -0.2159,-0.56263 0.36619,-1.48206 0.82646,-1.30544 0.27312,0.10481 0.39284,-0.0245 0.39284,-0.42412 0,-1.09071 0.4819,-1.59763 1.53066,-1.6101 l 0.98288,-0.0117 -1.04829,-0.55258 c -0.57656,-0.30392 -1.52906,-0.56779 -2.11667,-0.58638 -1.26399,-0.04 -1.72983,-0.28779 -1.72983,-0.92018 0,-1.04857 2.45353,-2.27072 4.36563,-2.1746 1.2109,0.0609 1.43214,0.18082 2.61296,1.41674 0.99777,1.04431 1.24587,1.20433 1.09505,0.70625 -0.66032,-2.18071 -1.50762,-3.13669 -3.27194,-3.69161 -1.04966,-0.33014 -1.1747,-0.32058 -1.41469,0.10826 -0.2512,0.44887 -0.27796,0.44818 -0.58434,-0.0149 -0.1766,-0.26692 -0.48461,-0.9999 -0.68448,-1.62884 -0.46405,-1.46032 -1.3983,-2.21535 -2.6366,-2.13079 -1.32446,0.0904 -2.33984,0.65257 -2.43937,1.35047 -0.12752,0.8942 -0.95272,0.92513 -1.17387,0.044 -0.14562,-0.58017 -0.0465,-0.84076 0.49784,-1.30899 0.86529,-0.74429 3.41356,-1.55401 4.2388,-1.34689 0.7795,0.19564 2.57001,1.84741 2.57001,2.37087 0,0.67772 1.05616,1.18649 3.4848,1.67869 0.47684,0.0966 0.81576,0.4141 1.0421,0.97615 0.18449,0.45812 0.62136,1.21543 0.97083,1.68293 0.83491,1.11691 1.06286,2.73808 0.46854,3.33239 -0.41119,0.4112 -0.38466,0.51041 0.39647,1.48243 0.90496,1.1261 0.85659,1.61123 -0.16065,1.61123 -0.35521,0 -0.64584,0.11906 -0.64584,0.26458 0,0.33438 -0.97511,0.34872 -1.1799,0.0174 -0.14813,-0.23969 -2.70707,-1.07569 -3.29259,-1.07569 -0.15951,0 -0.29001,0.17859 -0.29001,0.39687 0,0.22138 0.23558,0.39688 0.53276,0.39688 0.29301,0 0.7395,0.11187 0.99218,0.2486 0.25269,0.13673 0.78686,0.31759 1.18704,0.40192 0.49904,0.10515 0.7276,0.31894 0.7276,0.68056 0,0.46971 -0.12272,0.5093 -1.12447,0.36277 -0.61847,-0.0905 -1.60073,-0.32015 -2.18282,-0.51041 -1.2816,-0.4189 -1.69579,-0.14299 -1.1937,0.79519 0.47508,0.8877 0.23889,1.05065 -0.95284,0.65734 -0.90586,-0.29896 -1.03073,-0.27858 -1.44766,0.23632 -0.38736,0.47836 -0.70997,0.55676 -2.13521,0.5189 -0.92341,-0.0245 -2.75048,0.0326 -4.06017,0.12693 -1.30969,0.0943 -2.22244,0.0723 -2.02834,-0.049 0.53712,-0.3356 -0.098,-0.48238 -1.67583,-0.38731 -0.7276,0.0438 -1.55555,0.0883 -1.83989,0.0988 -0.28433,0.0105 -0.66069,0.13838 -0.83634,0.28416 -0.20163,0.16734 -0.37714,0.17158 -0.47607,0.0115 z m 18.63043,-7.57125 c 0,-0.54689 -0.98831,-1.11332 -2.3151,-1.32685 -0.88239,-0.14201 -1.12448,-0.0996 -1.12448,0.19681 0,0.2127 0.49138,0.53201 1.12448,0.73072 0.61846,0.19412 1.23759,0.4513 1.37583,0.57152 0.40316,0.35059 0.93927,0.2523 0.93927,-0.1722 z m -45.269458,1.96238 c -0.70822,-0.4377 0.215301,-0.88839 1.746943,-0.85253 0.799572,0.0187 1.453768,-0.0759 1.453768,-0.21023 0,-0.13435 0.178593,-0.24426 0.396875,-0.24426 0.503807,0 0.501705,0.26175 -0.0079,0.98938 -0.333243,0.47577 -0.653953,0.57499 -1.81386,0.56113 -0.774972,-0.009 -1.574073,-0.11882 -1.775781,-0.24349 z m 18.943419,-1.91313 c -0.873125,-0.32148 -1.914922,-0.80657 -2.315105,-1.07797 -0.821355,-0.55703 -0.961199,-1.43247 -0.264583,-1.65632 1.943557,-0.62455 1.966335,-0.64571 1.497355,-1.39112 -0.591224,-0.9397 -1.156046,-1.3539 -1.846257,-1.3539 -0.31817,0 -0.73242,-0.18547 -0.920555,-0.41216 -0.188135,-0.22669 -0.748981,-0.58218 -1.246325,-0.78999 -1.008809,-0.42151 -1.030651,-0.99729 -0.04318,-1.13831 0.974705,-0.13919 1.302192,-0.54083 1.302192,-1.59704 0,-0.70767 0.157522,-1.06399 0.595313,-1.34663 0.327422,-0.21139 0.693268,-0.3562 0.812992,-0.32181 0.119724,0.0344 0.179256,-0.20826 0.132292,-0.53921 -0.05628,-0.39663 -0.275369,-0.61134 -0.642756,-0.62993 -0.768078,-0.0389 -1.635342,-0.97212 -1.738285,-1.87057 -0.07787,-0.67959 -0.18715,-0.75159 -1.210076,-0.79721 -1.045239,-0.0466 -1.12448,-0.002 -1.12448,0.63229 0,0.37534 0.203866,0.83151 0.453034,1.01371 0.383041,0.28008 0.398474,0.397 0.09989,0.75677 -0.457901,0.55174 -0.79215,0.53926 -1.004954,-0.0375 -0.09396,-0.25466 -0.279255,-0.53603 -0.411768,-0.62526 -0.132514,-0.0892 -0.260261,-0.55705 -0.283883,-1.03959 -0.03539,-0.72294 0.114111,-0.98464 0.849443,-1.48694 0.490816,-0.33527 0.988605,-0.55012 1.106197,-0.47744 0.117593,0.0727 0.28859,0.0111 0.379994,-0.13676 0.252962,-0.4093 1.350006,-0.3208 1.732221,0.13974 0.229122,0.27607 0.576694,0.35646 1.071419,0.2478 0.731642,-0.1607 2.358402,0.45828 2.358402,0.89737 0,0.11952 0.251624,0.50341 0.559165,0.8531 1.373687,1.56195 1.808667,2.31923 1.966007,3.42279 0.18423,1.29216 0.90853,2.95079 2.03889,4.66901 0.40018,0.6083 0.7276,1.17361 0.7276,1.25624 0,0.0826 0.47534,0.65487 1.05631,1.27166 0.76813,0.81548 1.01266,1.26677 0.89631,1.65418 -0.25817,0.85958 -0.56348,1.03364 -1.01722,0.5799 -0.55661,-0.5566 -1.19998,-0.28299 -1.19998,0.51033 0,0.45034 -0.14827,0.63315 -0.51355,0.63315 -0.28245,0 -0.58714,-0.11907 -0.67707,-0.26459 -0.28088,-0.45446 -0.59738,-0.29135 -0.77011,0.39688 -0.20038,0.79838 -0.37595,0.80242 -2.404893,0.0554 z m 0.396875,-1.51056 c 0,-0.14552 -0.12609,-0.26458 -0.280199,-0.26458 -0.154109,0 -0.206613,0.11906 -0.116676,0.26458 0.08994,0.14552 0.216026,0.26458 0.280198,0.26458 0.06417,0 0.116677,-0.11906 0.116677,-0.26458 z m 2.838754,-0.9536 c -0.0879,-0.0879 -0.31612,-0.0973 -0.50711,-0.0209 -0.21107,0.0845 -0.14838,0.14716 0.15985,0.15985 0.27891,0.0115 0.43518,-0.051 0.34726,-0.13896 z m -1.51584,-0.60559 c 0,-0.25449 -0.64346,-0.56275 -1.146117,-0.54906 -0.169999,0.005 -0.07797,0.18322 0.204497,0.39687 0.58304,0.44099 0.94162,0.49894 0.94162,0.15219 z m -0.52916,-1.88039 c 0,-0.14552 -0.12609,-0.26459 -0.2802,-0.26459 -0.15411,0 -0.20662,0.11907 -0.11668,0.26459 0.0899,0.14552 0.21603,0.26458 0.2802,0.26458 0.0642,0 0.11668,-0.11906 0.11668,-0.26458 z m -3.515183,-2.30566 c -0.242535,-0.24253 -0.524412,-0.35753 -0.626394,-0.25555 -0.101983,0.10198 0.04382,0.35305 0.324013,0.55793 0.659856,0.4825 0.873558,0.2688 0.302381,-0.30238 z m 1.074084,-1.71034 c -0.145004,-0.43501 -0.935108,-0.89808 -1.155793,-0.67739 -0.251715,0.25171 0.3993,0.98922 0.873208,0.98922 0.21259,0 0.339753,-0.14032 0.282585,-0.31183 z m 1.557528,-2.28707 c -0.241643,-0.26701 -0.43935,-0.61219 -0.43935,-0.76706 0,-0.15488 -0.178594,-0.35013 -0.396875,-0.43389 -0.218281,-0.0838 -0.396875,-0.31617 -0.396875,-0.51646 0,-0.2003 -0.238125,-0.57968 -0.529167,-0.84307 -0.291041,-0.26339 -0.529166,-0.40457 -0.529166,-0.31373 0,0.47675 1.220818,2.50774 1.811704,3.014 0.788345,0.67544 1.12795,0.57648 0.479729,-0.13979 z m 12.361841,9.86461 c -0.38544,-0.58826 -1.50431,-1.23902 -3.09976,-1.8029 -0.70731,-0.24998 -0.38902,-0.82026 0.50728,-0.9089 2.69653,-0.26668 3.39385,-0.19494 3.68217,0.37881 0.15674,0.3119 0.43334,0.74585 0.61467,0.96434 0.40294,0.48551 0.32385,0.91837 -0.2842,1.55537 -0.61909,0.64857 -0.89678,0.61206 -1.42016,-0.18672 z m 1.94366,-1.64331 c -0.67907,-1.52001 -1.86854,-2.71198 -2.70631,-2.71198 -0.52917,0 -0.66146,-0.1323 -0.66146,-0.66146 0,-0.64475 0.19936,-0.76773 1.10104,-0.67927 0.24177,0.0237 0.51669,-0.0816 0.61093,-0.23411 0.0942,-0.15249 0.0453,-0.27725 -0.10885,-0.27725 -0.15411,0 -0.2802,-0.14995 -0.2802,-0.33323 0,-0.18327 -0.23813,-0.48194 -0.52917,-0.6637 -0.45893,-0.28661 -0.52917,-0.26424 -0.52917,0.16854 0,0.75856 -0.69343,1.24103 -1.19062,0.82839 -0.55371,-0.45954 -0.49835,-0.80729 0.27091,-1.70178 0.80187,-0.93241 0.73877,-1.25596 -0.31309,-1.60551 -0.52259,-0.17366 -0.75442,-0.40096 -0.67466,-0.66146 0.0981,-0.32031 0.0539,-0.33307 -0.22905,-0.0661 -0.65935,0.62203 -1.1185,0.40005 -0.94692,-0.45781 0.18044,-0.9022 -0.28243,-1.27895 -1.46973,-1.19631 -1.1329,0.0788 -1.569,0.59387 -1.37563,1.62461 0.12733,0.67871 0.0756,0.8894 -0.21846,0.8894 -1.09205,0 -1.66088,-1.93747 -0.79806,-2.7182 0.7809,-0.7066 2.85862,-1.48756 3.268,-1.22835 0.20351,0.12885 0.59096,0.23611 0.861,0.23833 0.27003,0.002 0.84471,0.30171 1.27707,0.66551 0.43235,0.36381 1.02583,0.66146 1.31883,0.66146 1.05889,0 2.50904,1.37422 3.3647,3.18851 0.45242,0.95927 0.81747,2.03327 0.81124,2.38667 -0.0461,2.61241 0.0178,3.18175 0.42769,3.80724 0.43167,0.65882 0.42945,0.70964 -0.0468,1.07017 -0.70581,0.53432 -0.8653,0.49135 -1.23325,-0.33227 z m -28.839177,-4.23334 c -0.369899,-0.5457 -0.751793,-1.37483 -0.848653,-1.84251 -0.200935,-0.97018 0.329783,-1.61329 2.895533,-3.50872 1.486216,-1.09794 2.37939,-1.29779 3.399736,-0.76072 0.861117,0.45326 0.997711,0.81944 0.507658,1.36094 -0.375192,0.41458 -0.481453,0.43041 -0.717999,0.10691 -0.152699,-0.20883 -0.646817,-0.46077 -1.098041,-0.55988 -0.754735,-0.16577 -0.833105,-0.1167 -0.979044,0.61299 -0.132921,0.66461 -0.319916,0.82344 -1.15355,0.97983 -0.547203,0.10266 -1.146729,0.33847 -1.33228,0.52402 -0.556994,0.55699 -0.39395,1.85482 0.343054,2.7307 0.67213,0.79878 0.672704,1.34863 0.0014,1.34863 -0.189902,0 -0.647921,-0.44649 -1.01782,-0.99219 z"
       id="path26" />
  </g>
</svg>
