<?xml version="1.0" encoding="UTF-8" standalone="no"?>
<!-- Created with Inkscape (http://www.inkscape.org/) -->

<svg
   width="80.596779mm"
   height="20.2246mm"
   viewBox="0 0 80.59678 20.2246"
   version="1.1"
   id="svg1"
   inkscape:version="1.4.1-rc (06eac75fbf, 2025-03-29)"
   sodipodi:docname="bushes3.svg"
   xmlns:inkscape="http://www.inkscape.org/namespaces/inkscape"
   xmlns:sodipodi="http://sodipodi.sourceforge.net/DTD/sodipodi-0.dtd"
   xmlns="http://www.w3.org/2000/svg"
   xmlns:svg="http://www.w3.org/2000/svg">
  <sodipodi:namedview
     id="namedview1"
     pagecolor="#ffffff"
     bordercolor="#000000"
     borderopacity="0.25"
     inkscape:showpageshadow="2"
     inkscape:pageopacity="0.0"
     inkscape:pagecheckerboard="0"
     inkscape:deskcolor="#d1d1d1"
     inkscape:document-units="mm"
     inkscape:zoom="0.72248176"
     inkscape:cx="152.25298"
     inkscape:cy="38.063245"
     inkscape:window-width="1850"
     inkscape:window-height="1016"
     inkscape:window-x="0"
     inkscape:window-y="0"
     inkscape:window-maximized="1"
     inkscape:current-layer="layer1" />
  <defs
     id="defs1" />
  <g
     inkscape:label="Layer 1"
     inkscape:groupmode="layer"
     id="layer1"
     transform="translate(-64.822917,-138.11303)">
    <path
       style="fill:#000000"
       d="m 94.58854,158.09807 c -0.727604,-0.12143 -1.858698,-0.26188 -2.513542,-0.31211 -1.483723,-0.11382 -2.374764,-0.56802 -1.952258,-0.99516 0.426768,-0.43144 2.297693,-0.43068 4.677497,0.002 2.032794,0.3695 2.776661,0.76922 2.441299,1.31185 -0.193018,0.31231 -0.751028,0.31095 -2.652996,-0.006 z m 8.79264,-0.51111 c -0.54011,-0.63079 -0.87607,-0.67183 -1.08311,-0.13229 -0.18551,0.48344 -1.64691,0.53469 -1.82749,0.0641 -0.0702,-0.18303 -0.70805,-0.54094 -1.417369,-0.79537 -0.992932,-0.35615 -1.496191,-0.40311 -2.187237,-0.20406 -0.987565,0.28446 -1.351393,0.17591 -1.351393,-0.4032 0,-0.23794 -0.273512,-0.38373 -0.727604,-0.38782 -1.180679,-0.0106 -3.166854,-1.64536 -3.499345,-2.88014 -0.1857,-0.68963 -0.671185,-1.39108 -1.423346,-2.05652 -1.352712,-1.19673 -1.793798,-2.55033 -0.974025,-2.98905 0.747896,-0.40027 1.220068,-0.33681 2.770413,0.37234 1.297038,0.59327 1.732543,0.98417 2.787837,2.50224 0.214027,0.30788 0.519397,0.55979 0.6786,0.55979 0.159204,0 0.506352,0.44648 0.77144,0.99219 0.265087,0.54569 0.532221,0.85224 0.593631,0.68121 0.06141,-0.17103 -0.150344,-0.82451 -0.470564,-1.4522 -0.32022,-0.62768 -0.634682,-1.53055 -0.698805,-2.00637 -0.106431,-0.78978 -0.04554,-0.87935 0.699049,-1.02827 1.128926,-0.22578 1.009075,-0.65355 -0.379291,-1.35375 -1.44628,-0.72941 -1.54397,-0.73442 -1.183397,-0.0607 0.157371,0.29405 0.214064,0.65124 0.125986,0.79375 -0.38139,0.6171 -0.93788,0.14586 -1.678266,-1.42117 -0.839573,-1.77696 -2.10676,-3.08221 -2.992318,-3.08221 -0.292776,0 -1.144799,-0.53579 -1.893384,-1.19063 -1.247765,-1.09151 -1.941697,-1.36029 -3.089944,-1.19682 -0.646867,0.0921 -0.653375,0.23738 -0.04735,1.05707 0.317085,0.42888 0.576518,0.85264 0.576518,0.94169 0,0.0891 0.178594,0.34049 0.396875,0.55877 0.52893,0.52893 0.501773,0.89016 -0.06615,0.87983 -0.563429,-0.0102 -1.389062,-0.60421 -1.389062,-0.9993 0,-0.15837 -0.297657,-0.60911 -0.661459,-1.00166 -0.825321,-0.89054 -0.829982,-1.28573 -0.02466,-2.09106 0.531028,-0.53102 0.805694,-0.60971 1.653646,-0.47375 1.498314,0.24025 3.430884,1.16916 3.874265,1.86221 0.116371,0.1819 0.384262,0.33073 0.595312,0.33073 0.21105,0 0.383728,0.10022 0.383728,0.2227 0,0.12249 0.446484,0.35813 0.992187,0.52365 0.772333,0.23426 1.197385,0.62432 1.918229,1.7603 0.846133,1.33344 1.5875,1.88435 1.5875,1.17969 0,-0.40205 1.026834,-0.0434 2.032868,0.70999 0.463233,0.34692 0.95651,0.63075 1.096171,0.63075 0.322467,0 0.624702,0.76407 0.42808,1.08221 -0.08182,0.13239 -0.39592,0.24071 -0.697998,0.24071 -0.526595,0 -0.523225,0.0203 0.08176,0.49175 0.61893,0.48236 2.201184,1.36033 2.451532,1.36033 0.0699,0 0.16508,-0.26789 0.21158,-0.59531 0.0677,-0.47639 0.27999,-0.61155 1.06293,-0.67661 1.54324,-0.12823 2.93358,0.90864 3.92291,2.92557 0.40573,0.82714 0.78451,1.25677 1.10804,1.25677 0.39136,0 0.43962,-0.0971 0.23673,-0.47619 -0.18672,-0.3489 -0.11154,-0.70255 0.28125,-1.32292 0.44442,-0.70191 0.70136,-0.84607 1.50232,-0.84287 0.53141,0.002 1.48741,0.18536 2.12445,0.4072 1.33983,0.4666 1.63836,0.34028 0.96202,-0.40707 -0.43802,-0.48401 -2.56448,-1.85607 -2.87659,-1.85607 -0.0731,0 -0.17096,0.26789 -0.21746,0.59531 -0.14136,0.9953 -0.86783,0.72061 -0.95836,-0.36237 -0.0677,-0.80965 0.0141,-0.98292 0.52916,-1.12087 1.13821,-0.30486 1.85411,-0.17179 2.64186,0.49106 0.43235,0.3638 0.89602,0.66146 1.03038,0.66146 0.47552,0 0.23514,-1.21354 -0.43604,-2.20126 -0.70446,-1.03671 -1.52758,-1.50291 -2.6535,-1.50291 -0.57316,0 -0.61845,0.0656 -0.36824,0.53309 0.2245,0.41949 0.19829,0.56648 -0.12299,0.68977 -0.93569,0.35906 -1.28286,-0.1044 -1.1184,-1.49303 0.13483,-1.13838 0.093,-1.31733 -0.30776,-1.31733 -0.25508,0 -0.61162,-0.14783 -0.7923,-0.32852 -0.26164,-0.26163 -0.37958,-0.24817 -0.57931,0.0662 -0.13793,0.21707 -0.18077,0.57326 -0.0952,0.79154 0.0856,0.21828 0.21945,0.84626 0.29751,1.39551 0.0781,0.54925 0.24492,1.0623 0.3708,1.1401 0.34564,0.21361 0.27433,1.79902 -0.1042,2.31669 -0.1832,0.25053 -0.57015,0.41201 -0.8599,0.35883 -0.75594,-0.13873 -1.98202,-0.76154 -1.98202,-1.0068 0,-0.44237 -1.89248,-1.62386 -2.71135,-1.69271 -0.473288,-0.0398 -0.949817,-0.0854 -1.058958,-0.10136 -0.313703,-0.0459 -0.230922,-0.94903 0.119063,-1.29901 0.174625,-0.17463 0.508075,-0.3175 0.741005,-0.3175 0.54929,0 1.84718,0.60332 1.84985,0.8599 10e-4,0.10914 0.10641,0.19843 0.23394,0.19843 0.12754,0 0.75262,0.49088 1.38906,1.09083 0.91256,0.86024 1.17593,0.99664 1.24585,0.64525 0.11981,-0.60205 -2.86176,-3.61439 -3.41112,-3.44633 -0.24519,0.075 -0.64016,-0.18249 -0.97537,-0.63587 -0.43542,-0.58895 -0.717304,-0.73249 -1.241597,-0.63227 -0.746308,0.14267 -0.812942,0.0202 -0.404393,-0.74317 0.20127,-0.37607 0.556769,-0.51177 1.34075,-0.51177 0.98362,0 1.05273,-0.0464 0.8858,-0.59531 -0.19955,-0.65616 -1.384931,-1.76146 -1.90513,-1.77643 -0.181901,-0.005 -0.330729,0.23664 -0.330729,0.53749 0,0.59556 -0.460172,0.5512 -1.90509,-0.18364 -0.912211,-0.46393 -1.13875,-0.45672 -1.647886,0.0524 -0.83083,0.83083 -0.516294,1.82003 1.083282,3.40689 1.81932,1.80485 1.64437,2.38613 -0.349183,1.16017 -1.629315,-1.00197 -2.157506,-1.82859 -2.244695,-3.51294 -0.05649,-1.09122 0.03394,-1.36273 0.622456,-1.86895 0.952812,-0.81958 3.10449,-1.05854 5.025633,-0.55815 1.951452,0.50829 2.502112,0.82124 2.978412,1.69265 0.21638,0.39587 0.68258,1.0407 1.036,1.43296 0.57702,0.64044 0.7364,0.6873 1.56216,0.4593 1.4385,-0.39719 4.57738,1.16882 6.74817,3.36672 0.91546,0.92689 1.63814,1.83256 1.60596,2.0126 -0.0322,0.18004 0.0705,0.8036 0.22823,1.38568 0.85436,3.15337 0.87372,3.41249 0.28869,3.86395 -1.08156,0.83461 -0.48787,1.14814 2.29503,1.212 1.43128,0.0328 2.77025,0.12415 2.97549,0.20291 0.20525,0.0788 0.60514,0.0191 0.88864,-0.13267 0.28351,-0.15173 0.6613,-0.18574 0.83953,-0.0756 0.17823,0.11015 0.80084,0.21023 1.38359,0.2224 0.58275,0.0122 1.28164,0.12415 1.55309,0.24886 0.4175,0.19179 0.4665,0.1415 0.31802,-0.32635 -0.28531,-0.89892 1.06796,-1.35183 3.09501,-1.03583 0.59643,0.093 0.76075,-0.002 0.88945,-0.5149 0.0868,-0.34592 0.0256,-0.78824 -0.13593,-0.98293 -0.16158,-0.19469 -0.37111,-0.91811 -0.46561,-1.60759 -0.13249,-0.96665 -0.31427,-1.31851 -0.7941,-1.53713 -0.34224,-0.15594 -0.62227,-0.40332 -0.62227,-0.54974 0,-0.14641 -0.0695,-0.19676 -0.15434,-0.11187 -0.0849,0.0849 -0.35277,-0.0164 -0.59531,-0.22503 -0.24253,-0.20866 -0.87937,-0.73975 -1.41518,-1.18021 -1.12343,-0.92348 -2.0685,-2.69526 -2.0685,-3.87793 0,-0.67526 0.14192,-0.8661 0.81986,-1.10243 0.57026,-0.19879 0.97605,-0.20221 1.33291,-0.0112 0.28218,0.15102 0.75248,0.19859 1.04512,0.10571 0.55223,-0.17527 0.94861,0.17306 4.11501,3.61618 1.82176,1.98098 3.7996,5.02557 3.7996,5.84893 0,0.40803 0.17973,0.71857 0.46302,0.80002 0.25466,0.0732 0.65573,0.21291 0.89127,0.31041 0.55931,0.23153 0.81053,-0.6545 0.3602,-1.27037 -0.18093,-0.24744 -0.48667,-1.16077 -0.67943,-2.02963 -0.19276,-0.86885 -0.49465,-1.57974 -0.67088,-1.57974 -0.57229,0 -1.26425,-2.278 -0.98558,-3.24463 0.20416,-0.70816 0.38236,-0.86029 1.02946,-0.87885 1.1194,-0.0321 1.92294,0.44883 3.42955,2.05258 1.50209,1.59895 1.98322,2.35787 1.98322,3.12824 0,0.29444 0.23813,0.73923 0.52917,0.98843 0.29104,0.2492 0.52917,0.60522 0.52917,0.79116 0,0.20376 0.3355,0.33807 0.8445,0.33807 0.50999,0 1.54039,0.41342 2.60127,1.04368 2.02938,1.20563 2.44938,1.62979 2.216,2.23796 -0.20158,0.52532 -1.02341,0.34616 -1.84237,-0.40163 -0.30042,-0.27432 -0.64823,-0.49876 -0.77291,-0.49876 -0.12469,0 -0.41467,-0.16156 -0.64441,-0.35902 -0.45915,-0.39464 -2.70363,-1.01513 -2.91335,-0.8054 -0.31492,0.31491 0.49501,1.00799 1.53773,1.31586 1.33325,0.39366 2.17056,1.0708 1.97009,1.59321 -0.21884,0.5703 -1.00814,0.44845 -2.73197,-0.42173 -1.85635,-0.93709 -2.21291,-0.98463 -1.98438,-0.26459 0.2359,0.74323 -0.0859,1.5875 -0.60514,1.5875 -0.24046,0 -0.74958,-0.36602 -1.13139,-0.81337 -0.76082,-0.89142 -2.89367,-1.45519 -2.89367,-0.76487 0,0.18894 0.0796,0.26389 0.17696,0.16655 0.18699,-0.18698 1.14595,0.56216 1.14595,0.89523 0,0.41547 -0.75656,0.44859 -2.12697,0.0931 -1.95872,-0.50808 -2.18924,-0.49047 -1.85109,0.14138 0.56772,1.06078 0.21891,1.07088 -1.94944,0.0565 -0.88722,-0.41507 -2.05961,-0.8243 -2.60531,-0.90941 -0.89696,-0.13987 -0.99219,-0.0979 -0.99219,0.43718 0,0.32555 0.12297,0.71488 0.27326,0.86517 0.15029,0.15029 0.19982,0.46462 0.11006,0.69853 -0.14589,0.38019 -0.27434,0.36735 -1.21144,-0.12109 -0.79038,-0.41197 -1.35108,-0.51223 -2.27937,-0.4076 -0.67713,0.0763 -1.53487,0.0227 -1.90609,-0.11921 -0.37123,-0.14189 -1.53686,-0.29898 -2.59029,-0.34908 -1.83306,-0.0872 -1.93755,-0.0599 -2.43239,0.63505 -0.57302,0.80472 -2.29635,1.44871 -3.24891,1.21409 -0.333,-0.082 -1.67701,-0.30539 -2.9867,-0.49637 -2.10665,-0.3072 -2.4552,-0.29915 -3.02253,0.0698 -0.47981,0.31203 -0.66856,0.33517 -0.74965,0.0919 -0.2399,-0.71971 -0.55035,-0.26459 -0.4099,0.60091 0.12777,0.78736 0.0746,0.92604 -0.35471,0.92604 -0.27774,0 -0.70887,-0.23813 -0.95807,-0.52917 z m 11.12799,-2.23763 c 0.32428,-0.32429 -0.23864,-0.44972 -1.2508,-0.27872 -0.63129,0.10666 -1.00813,0.29391 -0.91024,0.4523 0.16081,0.26018 1.86408,0.12338 2.16104,-0.17358 z m -6.41131,-0.5489 c -0.66529,-0.5032 -1.47078,-0.49858 -1.47078,0.008 0,0.28372 0.28289,0.39447 0.99219,0.38846 0.9298,-0.008 0.95989,-0.0328 0.47859,-0.39688 z m -13.035851,-0.91789 c -0.07607,-0.29089 -0.213722,-0.53857 -0.305891,-0.5504 -0.921672,-0.11821 -1.622787,-0.0953 -1.622787,0.0529 0,0.26597 1.664505,1.27512 1.88175,1.14086 0.101882,-0.063 0.122999,-0.35249 0.04693,-0.64339 z m 9.969811,0.1987 c -0.0178,-1.36435 -3.2396,-3.79744 -3.80884,-2.8764 -0.18448,0.2985 0.59996,1.88422 0.93211,1.88422 0.13847,0 0.36169,0.28915 0.49606,0.64256 0.22536,0.59275 0.51565,0.72045 2.0577,0.9053 0.1819,0.0218 0.32724,-0.22824 0.32297,-0.55568 z m -7.404624,0.1323 c -0.0074,-0.36213 -0.493792,-0.97942 -0.649248,-0.82396 -0.208426,0.20842 0.123584,1.02239 0.417024,1.02239 0.129952,0 0.234453,-0.0893 0.232224,-0.19843 z m 14.218584,-0.15312 c 0.96511,-0.12428 0.92247,-0.31326 -0.2582,-1.14431 -2.14817,-1.51204 -3.63758,-1.77603 -3.63758,-0.64472 0,0.28702 -0.13435,0.60489 -0.29856,0.70637 -0.44682,0.27615 0.46476,0.70735 1.08153,0.51159 0.34767,-0.11034 0.59784,0.007 0.79363,0.37308 0.21289,0.3978 0.47039,0.50097 1.0083,0.404 0.39731,-0.0716 0.98721,-0.16432 1.31088,-0.20601 z m -11.08848,-0.816 c -0.21249,-0.15821 -0.49676,-0.48368 -0.63172,-0.72327 -0.279904,-0.49693 -2.776724,-2.60709 -3.084795,-2.60709 -0.464804,0 -0.149687,0.79949 0.590463,1.49807 0.436562,0.41204 0.79375,0.83886 0.79375,0.94847 0,0.66067 2.397392,1.96691 2.616092,1.42541 0.0564,-0.13967 -0.0713,-0.38338 -0.28379,-0.54159 z m 29.4177,-0.2568 c 0,-0.0558 -0.23829,-0.16374 -0.52954,-0.23991 -0.29124,-0.0762 -0.4628,-0.0305 -0.38126,0.10144 0.14242,0.23043 0.9108,0.34725 0.9108,0.13847 z m 7.40833,0.002 c 0,-0.0549 -0.17859,-0.24811 -0.39688,-0.42927 -0.32504,-0.26976 -0.39687,-0.25168 -0.39687,0.0999 0,0.2361 0.17859,0.42928 0.39687,0.42928 0.21829,0 0.39688,-0.045 0.39688,-0.0999 z m -43.920832,-1.47489 c 0,-0.32151 -2.23422,-2.19606 -2.919595,-2.44959 -0.997336,-0.36894 -0.502477,0.42826 1.142864,1.84111 0.97742,0.83931 1.776731,1.11305 1.776731,0.60848 z m 35.872412,-1.46695 c -0.0197,-1.34171 -0.0665,-1.44786 -0.60668,-1.37702 -0.32192,0.0422 -0.66152,0.15298 -0.75467,0.24613 -0.18749,0.18749 0.93456,2.58467 1.20981,2.58467 0.0951,0 0.1633,-0.6542 0.15154,-1.45378 z m 1.80863,0.83019 c -0.15368,-0.40048 -0.63938,-0.62175 -0.63938,-0.29128 0,0.18857 0.64037,0.88124 0.73384,0.79376 0.0398,-0.0373 -0.003,-0.26337 -0.0944,-0.50248 z m 4.56961,-2.88734 c -0.7743,-0.25842 -1.13811,-0.14098 -0.87617,0.28284 0.0839,0.13569 0.48273,0.18344 0.88639,0.10612 l 0.73392,-0.14059 z m -7.85482,-0.89231 c 0,-0.0623 -0.18886,-0.40152 -0.41968,-0.75381 -0.23082,-0.35228 -0.34376,-0.76336 -0.25096,-0.9135 0.3016,-0.48801 -2.20841,-2.89542 -3.21589,-3.08442 -1.19504,-0.2242 -1.529,0.12449 -1.03366,1.07926 0.52734,1.01644 2.72571,3.31321 3.17127,3.31321 0.19867,0 0.50356,0.17152 0.67754,0.38115 0.27153,0.32718 1.07138,0.31084 1.07138,-0.0219 z m 7.58856,-1.5141 c -0.20524,-0.31072 -0.65717,-0.60672 -1.0043,-0.65777 -0.34712,-0.051 -0.71396,-0.2262 -0.81519,-0.38921 -0.43463,-0.69993 -0.51911,0.16244 -0.0934,0.95302 0.41467,0.76998 0.57447,0.85873 1.37755,0.76497 0.86162,-0.10059 0.88922,-0.13519 0.5353,-0.67101 z m -29.28439,12.00274 c 0,-0.14552 0.11203,-0.26458 0.24897,-0.26458 0.13693,0 0.32255,0.11906 0.41249,0.26458 0.0899,0.14552 -0.0221,0.26459 -0.24897,0.26459 -0.22687,0 -0.41249,-0.11907 -0.41249,-0.26459 z m -26.799886,-1.08202 c -0.260614,-0.15362 -0.744868,-0.3082 -1.07612,-0.34351 -0.331253,-0.0353 -0.888656,-0.2648 -1.238674,-0.50996 -0.822987,-0.57644 -2.106155,-0.595 -2.106155,-0.0305 0,0.28117 -0.19223,0.38594 -0.595312,0.32444 -0.327422,-0.05 -0.567814,-0.23003 -0.534204,-0.40016 0.03361,-0.17013 -0.37477,-0.66862 -0.907511,-1.10775 -0.963011,-0.7938 -0.985404,-0.79798 -3.867245,-0.72289 -2.346854,0.0611 -2.960314,0.15989 -3.222698,0.51872 -0.435389,0.59543 -1.191778,0.56689 -1.191778,-0.045 0,-0.63474 0.816139,-1.36393 1.526572,-1.36393 0.307376,0 0.615886,-0.0923 0.685579,-0.20502 0.06969,-0.11277 1.243682,-0.19301 2.608866,-0.17831 1.920811,0.0207 2.68851,0.14184 3.394629,0.53575 0.501863,0.27997 0.975643,0.59285 1.052845,0.69528 0.193998,0.2574 2.046527,0.36089 2.280039,0.12738 0.104582,-0.10458 0.04926,-0.33104 -0.122941,-0.50324 -0.485375,-0.48537 -0.371643,-0.9475 0.282222,-1.14676 0.327422,-0.0998 0.799075,-0.36022 1.048118,-0.57875 0.351594,-0.30853 0.795144,-0.35498 1.984375,-0.20779 0.842363,0.10425 1.677035,0.30893 1.854827,0.45483 0.224723,0.18442 0.59717,0.096 1.221855,-0.29008 0.494228,-0.30545 1.098815,-0.55537 1.343527,-0.55537 0.584463,0 2.021318,0.73856 2.58662,1.32955 0.246497,0.2577 0.544153,0.51046 0.661458,0.56169 0.482645,0.21078 1.66849,1.8898 1.66849,2.36239 0,0.81602 -0.920736,0.60692 -1.673556,-0.38007 -0.842103,-1.10406 -3.218194,-2.65919 -3.750739,-2.45483 -0.600774,0.23054 -0.329163,1.12983 0.543838,1.80061 1.342841,1.03179 1.540915,1.65067 0.606508,1.89503 -0.402433,0.10523 -0.873078,-0.11062 -1.602423,-0.7349 -1.143982,-0.9792 -1.745239,-1.16597 -3.204938,-0.99557 l -0.986002,0.11511 0.639168,0.59236 c 0.351542,0.3258 0.840651,0.66967 1.086908,0.76417 0.51257,0.19669 0.412782,0.80254 -0.147355,0.89465 -0.206223,0.0339 -0.58818,-0.064 -0.848793,-0.21764 z m -3.864373,-6.20321 c -0.948688,-1.0805 -1.029989,-1.70417 -0.307399,-2.3581 0.475879,-0.43067 0.575791,-0.434 1.355054,-0.0453 0.462711,0.23083 0.929927,0.36491 1.038257,0.29796 0.401499,-0.24814 -0.08722,-1.6164 -0.874901,-2.44946 -0.938701,-0.99278 -1.23842,-1.07282 -1.23842,-0.33073 0,0.66386 -0.924958,0.72051 -1.284164,0.0786 -0.211678,-0.37825 -0.31935,-0.39473 -0.67117,-0.10275 -0.264304,0.21936 -0.687395,0.28043 -1.145751,0.16539 l -0.726707,-0.1824 0.698858,0.54973 c 0.384372,0.30234 0.810453,0.54972 0.946847,0.54972 0.389441,0 1.123754,0.92129 1.123754,1.40989 0,0.58202 -0.310401,0.55814 -1.130531,-0.087 -0.369999,-0.29104 -0.812111,-0.52916 -0.982471,-0.52916 -0.38011,0 -2.203507,-1.8125 -2.635568,-2.61981 -0.474672,-0.88693 0.02157,-1.26439 1.91178,-1.45419 1.711945,-0.17189 4.601785,0.32998 4.926635,0.8556 0.09343,0.15118 0.48087,0.39311 0.860966,0.53762 0.495885,0.18854 0.811975,0.61755 1.119094,1.5189 0.235406,0.69088 0.428011,1.47306 0.428011,1.73818 0,0.26512 0.187753,0.48203 0.417228,0.48203 0.66841,0 1.964022,1.47015 1.964022,2.22861 0,0.81739 -0.679508,0.9294 -0.926042,0.15264 -0.19016,-0.59914 -0.422187,-0.6626 -0.851817,-0.23297 -0.218534,0.21853 -0.689179,0.0713 -1.795065,-0.56138 -1.2923,-0.73938 -1.450556,-0.7802 -1.148288,-0.29619 0.192822,0.30875 0.427121,0.56137 0.520665,0.56137 0.09354,0 0.232351,0.23813 0.30846,0.52917 0.239254,0.91491 -0.967851,0.6571 -1.901337,-0.40608 z"
       id="path13" />
  </g>
</svg>
