<?xml version="1.0" encoding="UTF-8" standalone="no"?>
<!-- Created with Inkscape (http://www.inkscape.org/) -->

<svg
   width="73.97831mm"
   height="21.760929mm"
   viewBox="0 0 73.978312 21.76093"
   version="1.1"
   id="svg1"
   inkscape:version="1.4.1-rc (06eac75fbf, 2025-03-29)"
   sodipodi:docname="bushes8.svg"
   xmlns:inkscape="http://www.inkscape.org/namespaces/inkscape"
   xmlns:sodipodi="http://sodipodi.sourceforge.net/DTD/sodipodi-0.dtd"
   xmlns="http://www.w3.org/2000/svg"
   xmlns:svg="http://www.w3.org/2000/svg">
  <sodipodi:namedview
     id="namedview1"
     pagecolor="#ffffff"
     bordercolor="#000000"
     borderopacity="0.25"
     inkscape:showpageshadow="2"
     inkscape:pageopacity="0.0"
     inkscape:pagecheckerboard="0"
     inkscape:deskcolor="#d1d1d1"
     inkscape:document-units="mm"
     inkscape:zoom="0.72248176"
     inkscape:cx="139.79592"
     inkscape:cy="40.831481"
     inkscape:window-width="1850"
     inkscape:window-height="1016"
     inkscape:window-x="0"
     inkscape:window-y="0"
     inkscape:window-maximized="1"
     inkscape:current-layer="layer1" />
  <defs
     id="defs1" />
  <g
     inkscape:label="Layer 1"
     inkscape:groupmode="layer"
     id="layer1"
     transform="translate(-67.998016,-137.31926)">
    <path
       style="fill:#000000"
       d="m 130.1751,158.86128 c 0,-0.32877 -2.07112,-1.16135 -3.10663,-1.24883 -0.47171,-0.0399 -1.2569,-0.37698 -1.74486,-0.74917 -0.88448,-0.67462 -0.88867,-0.67507 -1.36615,-0.14745 -0.55503,0.61329 -1.07497,0.68329 -1.27149,0.17116 -0.1863,-0.48549 -2.16933,-1.49401 -2.93766,-1.49401 -0.34151,0 -0.76914,0.1786 -0.9503,0.39688 -0.47077,0.56725 -1.14639,0.49037 -1.74382,-0.19844 -0.62778,-0.72382 -0.76107,-1.78594 -0.22411,-1.78594 0.67312,0 0.40701,-0.64024 -0.6001,-1.44381 -1.39893,-1.11622 -3.51738,-1.20143 -3.51738,-0.14147 0,0.68476 -0.47451,0.91368 -1.00886,0.48671 -1.3422,-1.07246 -2.27298,-1.26104 -3.10776,-0.62963 -0.28247,0.21365 -0.70921,0.39223 -0.9483,0.39687 -0.51969,0.0101 -0.81765,-0.61777 -0.46198,-0.97343 0.13892,-0.13893 0.18686,-0.42385 0.10654,-0.63315 -0.1433,-0.37344 -0.39,-0.53041 -2.25256,-1.43325 -0.9705,-0.47044 -2.91042,-0.72849 -2.91042,-0.38716 0,0.22443 0.92375,0.51038 1.7198,0.53238 0.29104,0.008 0.97716,0.41055 1.52472,0.89446 0.89437,0.79042 0.95201,0.91598 0.56711,1.23541 -0.36453,0.30254 -0.58007,0.26832 -1.44485,-0.22939 -1.14856,-0.66102 -1.72997,-0.73756 -1.93123,-0.25423 -0.10021,0.24066 -0.24025,0.20464 -0.51424,-0.13229 -0.47831,-0.5882 -0.48858,-0.58691 -1.37512,0.17488 -0.4083,0.35084 -0.903069,0.57623 -1.099484,0.50085 -0.196415,-0.0754 -0.357118,0.009 -0.357118,0.18672 0,0.19348 0.212913,0.26806 0.529167,0.18537 0.347965,-0.091 0.529165,-0.008 0.529165,0.24203 0,0.60645 -0.766512,0.73505 -1.331836,0.22344 -0.426932,-0.38637 -0.460199,-0.54373 -0.188583,-0.89199 0.288952,-0.37049 0.274807,-0.37984 -0.114219,-0.0755 -0.371641,0.29074 -0.587275,0.27119 -1.322917,-0.1199 -0.483396,-0.25699 -1.036563,-0.43581 -1.22926,-0.39739 -0.192697,0.0384 -0.490354,-0.0435 -0.661459,-0.18208 -0.171105,-0.13857 -0.936178,-0.19021 -1.700162,-0.11474 -1.559957,0.15408 -1.769057,0.56688 -0.933276,1.84246 l 0.455787,0.6956 -0.766352,-0.19234 c -0.421493,-0.10579 -1.282158,-0.56276 -1.912589,-1.01551 -0.63043,-0.45274 -1.41341,-0.85387 -1.739956,-0.89141 -2.935236,-0.33741 -3.33672,-0.33317 -3.645147,0.0385 -0.176361,0.2125 -0.596928,0.38637 -0.934594,0.38637 -0.641999,0 -2.496268,-0.96899 -2.496268,-1.30448 0,-0.55428 -4.962012,-1.22751 -8.665104,-1.17565 -1.967121,0.0276 -2.182813,-0.0183 -2.182813,-0.46444 0,-0.41251 0.209484,-0.49698 1.256771,-0.50679 0.691224,-0.006 1.822318,-0.0527 2.513542,-0.10269 0.691224,-0.05 1.256771,0.0111 1.256771,0.13576 0,0.12468 0.198125,0.15066 0.440278,0.0577 0.280077,-0.10749 0.37575,-0.0645 0.262935,0.11798 -0.265646,0.42984 0.390481,0.54701 1.074834,0.19196 0.464272,-0.24087 0.887905,-0.23741 1.859019,0.0152 1.365273,0.35511 3.2421,1.35861 3.2421,1.73348 0,0.30668 1.551138,0.12122 1.899463,-0.2271 0.166452,-0.16645 0.566186,-0.18601 1.037723,-0.0508 0.502822,0.14421 0.76698,0.12321 0.76698,-0.061 0,-0.34432 2.199372,-0.0954 2.318646,0.26237 0.04459,0.13375 0.373087,0.18737 0.730002,0.11914 0.415468,-0.0794 0.702485,0.0155 0.797776,0.26381 0.16327,0.42548 1.445243,0.3256 1.445243,-0.11259 0,-0.13895 0.156819,-0.40946 0.348488,-0.60113 0.445353,-0.44535 3.597888,-0.3426 3.887945,0.12672 0.111276,0.18005 0.32395,0.25219 0.472609,0.16032 0.419271,-0.25913 1.111337,0.10716 1.115842,0.59058 0.0032,0.34394 0.05143,0.35995 0.230936,0.0767 0.174202,-0.2749 0.353528,-0.29026 0.772304,-0.0661 0.723707,0.38731 1.109376,0.36869 1.109376,-0.0536 0,-0.19001 0.297655,-0.74892 0.661455,-1.24203 0.84721,-1.14832 0.83354,-1.49359 -0.0661,-1.67055 -1.991514,-0.39172 -3.241143,-0.77819 -3.241143,-1.00238 0,-0.13686 0.297657,-0.38445 0.661459,-0.55021 0.363802,-0.16576 0.661458,-0.46937 0.661458,-0.67469 0,-0.53263 0.668093,-1.12925 1.264536,-1.12925 0.93775,0 2.1748,0.57459 2.19182,1.01807 0.0112,0.29262 0.0989,0.23226 0.2651,-0.18261 0.13657,-0.34086 0.18476,-0.72259 0.10708,-0.84828 -0.0777,-0.12568 0.1592,-0.42537 0.52639,-0.66596 0.80105,-0.52487 0.72596,-0.68934 -0.63961,-1.40112 -1.11692,-0.58217 -1.43662,-0.44512 -1.45651,0.62437 -0.007,0.38577 -0.18938,0.52948 -0.67131,0.52948 -0.583642,0 -0.648177,-0.0934 -0.54859,-0.79375 0.06208,-0.43656 0.121607,-1.32818 0.132292,-1.98137 0.01843,-1.12671 -0.03323,-1.21247 -1.007156,-1.67193 -1.240424,-0.58517 -4.661959,-0.94195 -4.661959,-0.48611 0,0.16662 -0.252011,0.30296 -0.560025,0.30296 -0.454606,0 -0.528115,0.11206 -0.390505,0.59531 0.09323,0.32742 0.244819,0.94149 0.336852,1.3646 0.155746,0.71603 0.123243,0.75577 -0.46939,0.57395 -1.367261,-0.41946 -1.71085,-0.43582 -2.140115,-0.10192 -0.557776,0.43386 -0.66452,1.9475 -0.211003,2.99201 0.189551,0.43657 0.325411,0.88305 0.301912,0.99219 -0.0235,0.10914 0.109408,0.19844 0.295348,0.19844 0.295393,0 1.249427,0.88983 1.249427,1.16534 0,0.0555 -0.18277,0.1711 -0.406156,0.25682 -0.517771,0.19868 -2.239678,-1.53442 -2.239678,-2.25424 0,-0.28714 -0.111421,-0.45321 -0.247603,-0.36904 -0.136182,0.0842 -0.328327,-0.38527 -0.426989,-1.0432 -0.138462,-0.92333 -0.07142,-1.36211 0.293869,-1.92335 0.618246,-0.94989 1.180765,-1.3698 1.848926,-1.38017 0.372773,-0.006 0.643778,-0.28943 0.867409,-0.90787 0.36449,-1.00798 1.711572,-1.80978 3.070377,-1.82753 1.79801,-0.0235 3.445471,0.39818 4.033121,1.03226 0.324384,0.35002 0.767042,0.6364 0.983686,0.6364 0.21664,0 0.47249,0.12718 0.56856,0.28262 0.0961,0.15544 0.37099,0.19948 0.61093,0.0979 0.65839,-0.27884 2.76534,-0.12397 3.11853,0.22922 0.10122,0.10122 0.34782,0.18405 0.54799,0.18405 0.95824,0 2.63985,1.98497 3.00449,3.54651 0.32369,1.38614 0.8848,2.27432 1.43682,2.27432 0.4508,0 1.02808,1.94404 0.82158,2.76677 -0.0962,0.38343 -0.0865,0.84036 0.0217,1.01539 0.10818,0.17504 0.20112,0.55651 0.20654,0.84773 0.006,0.34511 0.16412,0.50401 0.45291,0.45632 0.24369,-0.0402 0.51089,0.0366 0.59378,0.1707 0.0837,0.13535 0.58839,0.0207 1.13423,-0.25756 0.54094,-0.27578 1.19734,-0.50142 1.45868,-0.50142 0.80654,0 3.15055,1.40968 3.83956,2.30911 0.35978,0.46964 0.99927,1.02607 1.4211,1.23651 0.73355,0.36595 0.77405,0.35438 0.92964,-0.26557 0.0895,-0.3565 0.38878,-0.76918 0.66513,-0.91708 0.49262,-0.26364 2.34978,-0.074 2.61169,0.26669 0.39836,0.5182 2.38373,1.40716 3.24114,1.45123 1.13532,0.0584 1.3051,-0.27086 0.33073,-0.64131 -0.3638,-0.13832 -0.66146,-0.41933 -0.66146,-0.62448 0,-0.5092 -1.15583,-1.2276 -1.97506,-1.2276 -0.49038,0 -0.67077,-0.13981 -0.67077,-0.51986 0,-0.60703 -0.73664,-1.06764 -1.70744,-1.06764 -0.59312,0 -0.66236,0.0858 -0.52165,0.64642 0.19754,0.78708 -0.0378,1.23295 -0.54744,1.03737 -0.35516,-0.13629 -0.77174,-0.95223 -0.7948,-1.5568 -0.0156,-0.41023 -3.38557,-3.56658 -3.8079,-3.56658 -0.13728,0 -0.29177,-0.12655 -0.34333,-0.28123 -0.0516,-0.15467 -0.42703,-0.31781 -0.83437,-0.36253 -1.10212,-0.12098 -1.35583,-0.52381 -0.58854,-0.93446 0.56828,-0.30413 0.75256,-0.2851 1.39441,0.14399 0.40678,0.27194 0.83324,0.49753 0.94769,0.50131 0.11445,0.004 0.31847,0.18547 0.45337,0.40376 0.13491,0.21828 0.36697,0.39687 0.51569,0.39687 0.14872,0 0.83768,0.54099 1.53101,1.2022 1.11632,1.0646 1.40625,1.20625 2.53329,1.23759 0.69999,0.0195 1.4386,0.17308 1.64136,0.34135 0.20275,0.16828 0.89847,0.46541 1.54603,0.6603 1.09906,0.33077 1.18623,0.32049 1.31044,-0.15449 0.0778,-0.29765 0.36295,-0.50882 0.68699,-0.50882 0.71704,0 0.6991,-0.15897 -0.15742,-1.39493 -0.64603,-0.93222 -0.79182,-1.0114 -1.5875,-0.86213 -0.7598,0.14254 -0.87614,0.0925 -0.87614,-0.37679 0,-0.61037 -0.27164,-0.69285 -0.73984,-0.22465 -0.24562,0.24563 -0.40373,0.20118 -0.70596,-0.19843 -0.2142,-0.28322 -0.39324,-0.65575 -0.39787,-0.82785 -0.005,-0.17209 -0.2763,-0.3965 -0.60373,-0.49868 -0.32742,-0.10218 -0.66514,-0.29409 -0.75048,-0.42646 -0.0853,-0.13238 -0.68066,-0.26516 -1.32292,-0.29507 -1.02774,-0.0479 -1.17784,0.0167 -1.25196,0.53837 -0.0806,0.5676 -0.11714,0.57574 -0.85989,0.19165 -0.42663,-0.22062 -0.77568,-0.49974 -0.77568,-0.62028 0,-0.12053 -0.29766,-0.54033 -0.66146,-0.93288 -0.62947,-0.6792 -0.88802,-1.83858 -0.46302,-2.07625 0.10914,-0.061 0.0496,-0.0747 -0.13229,-0.0304 -0.51227,0.12488 -0.39014,-0.6912 0.13229,-0.88396 0.25466,-0.094 0.53872,-0.28361 0.63125,-0.42145 0.26916,-0.40099 4.47114,-0.33355 4.72414,0.0758 0.11748,0.19008 0.40239,0.27315 0.63314,0.18461 0.26151,-0.10035 0.5237,0.0336 0.69606,0.35569 0.15209,0.28417 0.36226,0.50376 0.46706,0.48798 0.57567,-0.0867 0.87872,0.11193 1.24173,0.81391 0.87112,1.68457 2.38659,3.45281 2.95945,3.4531 1.03432,5.2e-4 5.11748,4.53535 5.11748,5.68357 0,0.22117 0.11906,0.40213 0.26458,0.40213 0.40488,0 0.31451,1.21669 -0.11696,1.57478 -0.30831,0.25587 -0.66721,0.10561 -1.86986,-0.78284 -1.5601,-1.15251 -2.56372,-1.29269 -1.92427,-0.26878 0.18382,0.29435 0.42158,0.53518 0.52836,0.53518 0.39914,0 0.98386,1.49929 0.69671,1.78644 -0.19383,0.19382 -0.11392,0.32963 0.26464,0.44978 0.35667,0.1132 0.4948,0.32597 0.40353,0.62159 -0.12433,0.40271 -0.10779,0.4013 0.15894,-0.0135 0.36392,-0.56601 1.32975,-0.61405 1.32975,-0.0661 0,0.21828 0.11906,0.39688 0.26458,0.39688 0.14552,0 0.26458,-0.17511 0.26458,-0.38913 0,-0.31957 0.33741,-0.36333 1.88765,-0.2448 1.74934,0.13376 5.38499,-0.44926 5.78527,-0.92773 0.0728,-0.087 0.39466,-0.30453 0.71534,-0.48345 0.72654,-0.40537 0.97532,-0.0583 0.58004,0.80925 -0.22786,0.50009 -0.57282,0.69696 -1.4524,0.82886 -0.63446,0.0951 -1.21005,0.26438 -1.27908,0.37608 -0.069,0.1117 -0.72111,0.16675 -1.44906,0.12234 -0.72795,-0.0444 -1.38577,0.0199 -1.46184,0.14301 -0.18472,0.29889 -1.47383,0.0402 -1.47383,-0.29571 0,-0.14529 -0.29145,-0.0732 -0.64767,0.1602 -0.3767,0.24682 -0.71273,0.31907 -0.80319,0.1727 -0.12611,-0.20405 -1.0745,0.0335 -1.67944,0.42075 -0.0482,0.0308 0.035,0.28513 0.18486,0.56511 0.38639,0.72198 0.10002,1.53838 -0.66131,1.88526 -0.78659,0.3584 -0.89117,0.36555 -0.89117,0.061 z m 0.26458,-1.35163 c 0,-0.14552 -0.17157,-0.26459 -0.38126,-0.26459 -0.20969,0 -0.45485,0.11906 -0.54478,0.26459 -0.0899,0.14551 0.0816,0.26458 0.38126,0.26458 0.29963,0 0.54478,-0.11906 0.54478,-0.26458 z m -7.14375,-1.20624 c 0,-0.22687 -0.11906,-0.33891 -0.26458,-0.24898 -0.14552,0.0899 -0.26459,0.27557 -0.26459,0.41249 0,0.13693 0.11907,0.24897 0.26459,0.24897 0.14552,0 0.26458,-0.18561 0.26458,-0.41248 z m 5.82083,-0.11668 c -0.7319,-0.5725 -1.05833,-0.65818 -1.05833,-0.27773 0,0.31415 0.79401,0.79009 1.32292,0.79297 0.26145,9.9e-4 0.17116,-0.17439 -0.26459,-0.51524 z m -3.70416,-0.79375 c 0,-0.35278 -0.17639,-0.52916 -0.52917,-0.52916 -0.29104,0 -0.52917,0.11906 -0.52917,0.26458 0,0.14552 0.1786,0.26458 0.39688,0.26458 0.21828,0 0.39687,0.11907 0.39687,0.26459 0,0.14552 0.0595,0.26458 0.1323,0.26458 0.0728,0 0.13229,-0.23813 0.13229,-0.52917 z m -2.22691,-1.25677 c -0.10914,-0.10914 -0.21828,-0.14855 -0.24254,-0.0876 -0.0243,0.061 -0.30931,-0.0311 -0.63345,-0.20456 -0.49813,-0.26659 -0.56542,-0.25303 -0.43472,0.0876 0.0851,0.22165 0.45941,0.403 0.8319,0.403 0.37248,0 0.58795,-0.0893 0.47881,-0.19844 z m -22.64393,-3.24114 c 0,-0.14552 -0.11906,-0.26459 -0.26458,-0.26459 -0.14552,0 -0.26458,0.11907 -0.26458,0.26459 0,0.14552 0.11906,0.26458 0.26458,0.26458 0.14552,0 0.26458,-0.11906 0.26458,-0.26458 z m 25.92917,0 c 0,-0.14552 -0.11906,-0.26459 -0.26458,-0.26459 -0.14552,0 -0.26459,0.11907 -0.26459,0.26459 0,0.14552 0.11907,0.26458 0.26459,0.26458 0.14552,0 0.26458,-0.11906 0.26458,-0.26458 z m -17.28385,-1.14653 c 0.0428,-0.55737 -0.12539,-0.79895 -0.78971,-1.13399 -0.46428,-0.23415 -1.1418,-0.70164 -1.50561,-1.03887 -0.83511,-0.77412 -2.19151,-0.96966 -2.32199,-0.33477 -0.0656,0.31924 0.33721,0.65697 1.41017,1.18235 0.82611,0.40451 1.56055,0.88802 1.6321,1.07447 0.0716,0.18645 0.29594,0.339 0.49866,0.339 0.20271,0 0.36856,0.18852 0.36856,0.41893 0,0.71073 0.65001,0.24503 0.70782,-0.50712 z m 20.98802,-0.16078 c 0,-0.13693 -0.12641,-0.32709 -0.28091,-0.42257 -0.15449,-0.0955 -0.41559,-0.48947 -0.58021,-0.87551 l -0.29931,-0.70191 -0.10099,0.75015 c -0.0678,0.5036 0.0577,0.8704 0.38177,1.11606 0.56956,0.4317 0.87965,0.47887 0.87965,0.13378 z m -28.04584,-2.50302 c 0,-0.0584 -0.42352,-0.35604 -0.94116,-0.66146 -0.98522,-0.58129 -2.233835,-0.74379 -2.233835,-0.29071 0,0.14552 0.231098,0.26458 0.513551,0.26458 0.282454,0 0.592154,0.12718 0.688224,0.28262 0.0961,0.15544 0.32225,0.22599 0.50263,0.15677 0.18037,-0.0692 0.49575,-0.0196 0.70084,0.1102 0.39324,0.24894 0.76975,0.31644 0.76975,0.138 z m 1.81025,-1.48134 c 0.43194,-0.58423 0.48803,-0.79375 0.21248,-0.79375 -0.32797,0 -1.22898,1.06005 -1.22898,1.4459 0,0.37536 0.48857,0.0619 1.0165,-0.65215 z m 3.3097,0.12494 c -0.17928,-0.46718 -1.12392,-1.03417 -1.34862,-0.80946 -0.21476,0.21476 0.73683,1.21369 1.15617,1.21369 0.20305,0 0.28307,-0.16807 0.19245,-0.40423 z m 17.63422,-0.91077 c 0,-0.28669 -0.35719,-0.78533 -0.79375,-1.10809 -0.43656,-0.32277 -0.79375,-0.74466 -0.79375,-0.93755 0,-0.19289 -0.64721,-0.64675 -1.43825,-1.00858 -1.70328,-0.77909 -1.77027,-0.78849 -1.55119,-0.21759 0.1136,0.29604 0.0675,0.3776 -0.1406,0.24897 -0.17025,-0.10522 -0.30954,-0.0937 -0.30954,0.0257 0,0.24264 1.48532,1.52677 1.78945,1.54707 0.47357,0.0316 1.38555,0.43731 1.38555,0.61639 0,0.36195 1.07403,1.35498 1.46551,1.35498 0.21261,0 0.38657,-0.23456 0.38657,-0.52125 z m -5.77845,-1.97884 c 0.26773,0.085 0.48678,0.0274 0.48678,-0.12792 0,-0.15533 -0.11171,-0.28241 -0.24825,-0.28241 -0.13653,0 -0.22583,-0.31908 -0.19843,-0.70906 0.0461,-0.65641 -0.0288,-0.71043 -1.00853,-0.7276 -1.0209,-0.0179 -1.05707,0.0108 -1.02263,0.8109 0.0196,0.4562 0.25776,1.05962 0.52917,1.34094 0.47549,0.49286 0.50224,0.49381 0.73429,0.0261 0.15669,-0.31584 0.41087,-0.43145 0.7276,-0.33092 z m -12.74238,0.0485 c 0,-1.1758 -3.66572,-2.96668 -4.45561,-2.17678 -0.25705,0.25704 0.58858,0.92425 1.1714,0.92425 0.34897,0 0.7435,0.23121 0.90296,0.52917 0.15576,0.29104 0.46134,0.52916 0.67907,0.52916 0.21773,0 0.4644,0.1786 0.54816,0.39688 0.24934,0.64976 1.15402,0.49087 1.15402,-0.20268 z m -16.752594,-0.5084 c -0.08446,-0.21107 -0.147157,-0.14837 -0.159853,0.15986 -0.01149,0.27892 0.05105,0.43519 0.138964,0.34727 0.08792,-0.0879 0.09732,-0.31613 0.02089,-0.50712 z m -20.134852,6.69968 c -0.07788,-0.12601 -0.44209,-0.17166 -0.809365,-0.10145 -0.39149,0.0748 -0.667773,0.005 -0.667773,-0.16777 0,-0.16248 0.208359,-0.309 0.463021,-0.3256 0.254661,-0.0166 0.790442,-0.069 1.190625,-0.11644 0.57337,-0.068 0.727604,0.0225 0.727604,0.42704 0,0.51424 -0.637996,0.7148 -0.904112,0.28422 z m 25.179632,-0.3521 c -0.545704,-0.26472 -0.992188,-0.59943 -0.992188,-0.7438 0,-0.15173 0.893138,-0.26249 2.116667,-0.26249 1.621474,0 2.116666,0.0853 2.116666,0.36447 0,0.20047 -0.178593,0.5127 -0.396875,0.69386 -0.218281,0.18116 -0.396875,0.26358 -0.396875,0.18316 0,-0.0804 -0.327422,-0.058 -0.727604,0.0499 -0.497857,0.13422 -1.040895,0.0442 -1.719791,-0.28514 z"
       id="path19" />
  </g>
</svg>
