<?xml version="1.0" encoding="UTF-8" standalone="no"?>
<!-- Created with Inkscape (http://www.inkscape.org/) -->

<svg
   width="62.09885mm"
   height="20.640181mm"
   viewBox="0 0 62.098852 20.640181"
   version="1.1"
   id="svg1"
   inkscape:version="1.4.1-rc (06eac75fbf, 2025-03-29)"
   sodipodi:docname="bushes7.svg"
   xmlns:inkscape="http://www.inkscape.org/namespaces/inkscape"
   xmlns:sodipodi="http://sodipodi.sourceforge.net/DTD/sodipodi-0.dtd"
   xmlns="http://www.w3.org/2000/svg"
   xmlns:svg="http://www.w3.org/2000/svg">
  <sodipodi:namedview
     id="namedview1"
     pagecolor="#ffffff"
     bordercolor="#000000"
     borderopacity="0.25"
     inkscape:showpageshadow="2"
     inkscape:pageopacity="0.0"
     inkscape:pagecheckerboard="0"
     inkscape:deskcolor="#d1d1d1"
     inkscape:document-units="mm"
     inkscape:zoom="0.72248176"
     inkscape:cx="117.65003"
     inkscape:cy="39.447363"
     inkscape:window-width="1850"
     inkscape:window-height="1016"
     inkscape:window-x="0"
     inkscape:window-y="0"
     inkscape:window-maximized="1"
     inkscape:current-layer="layer1" />
  <defs
     id="defs1" />
  <g
     inkscape:label="Layer 1"
     inkscape:groupmode="layer"
     id="layer1"
     transform="translate(-73.818849,-137.84844)">
    <path
       style="fill:#000000"
       d="m 106.42063,158.35703 c -0.0995,-0.16092 -0.40951,-0.22 -0.68902,-0.13128 -0.32863,0.1043 -0.5645,0.0146 -0.6675,-0.25383 -0.2079,-0.54176 -0.63185,-0.53501 -0.63185,0.0101 0,0.30365 -0.13235,0.36883 -0.46302,0.22804 -0.25467,-0.10842 -1.04528,-0.18519 -1.75692,-0.1706 -0.9151,0.0188 -1.48712,-0.12545 -1.95391,-0.49262 -0.363009,-0.28555 -0.614193,-0.52945 -0.558188,-0.54201 0.679878,-0.1525 2.875438,-0.13022 3.451598,0.035 0.41134,0.11797 0.80908,0.10833 0.88936,-0.0216 0.0822,-0.13299 0.45698,-0.1103 0.86347,0.0523 0.39503,0.15799 1.51423,0.27145 2.48712,0.25214 1.05334,-0.0209 1.8427,0.0843 1.95136,0.26015 0.12353,0.19987 8.3e-4,0.2376 -0.37982,0.11678 -0.41511,-0.13174 -0.5623,-0.0665 -0.5623,0.24939 0,0.32974 -0.10614,0.36845 -0.46286,0.16882 -0.33153,-0.18553 -0.58682,-0.14684 -0.89977,0.13638 -0.30397,0.27509 -0.49194,0.30638 -0.61775,0.10283 z m 3.04276,-0.20491 c 0.01,-0.47037 0.46212,-0.9113 0.63995,-0.62356 0.0995,0.16106 0.1074,0.41189 0.0175,0.55741 -0.19073,0.30862 -0.66333,0.35617 -0.65741,0.0661 z m -10.653528,-0.24853 c -0.621688,-0.16247 -0.592946,-0.87595 0.03529,-0.87595 0.275792,0 0.560101,0.23629 0.636688,0.52917 0.07611,0.29104 0.06023,0.51535 -0.03529,0.49847 -0.09552,-0.0169 -0.382027,-0.0851 -0.636688,-0.15169 z m 20.139438,-2.1118 c -1.19249,-0.60046 -2.95314,-0.70057 -9.48996,-0.5396 -2.21472,0.0545 -3.97882,-0.0134 -4.17324,-0.1608 -0.25266,-0.1915 -0.2917,-0.13776 -0.15628,0.21514 0.12945,0.33733 0.075,0.43212 -0.19238,0.33508 -0.38429,-0.13946 -0.40038,-0.28883 -0.11111,-1.03139 0.11476,-0.29456 -0.0828,-0.61212 -0.61783,-0.9931 -0.81829,-0.58267 -1.7651,-0.50253 -1.52279,0.1289 0.0748,0.19484 0.0323,0.41834 -0.0945,0.49667 -0.12674,0.0783 -0.28647,-0.007 -0.35496,-0.18996 -0.0868,-0.23161 -0.25151,-0.17195 -0.54335,0.19678 -0.23035,0.29105 -0.43566,0.41011 -0.45624,0.26459 -0.21693,-1.53377 -0.16088,-1.93715 0.25102,-1.80655 0.32942,0.10446 0.34832,0.0774 0.0802,-0.11477 -0.22808,-0.16346 -0.69101,-0.12996 -1.32292,0.0957 -1.180235,0.42151 -1.633522,0.45317 -1.633522,0.11411 0,-0.14095 0.178593,-0.18775 0.396874,-0.10398 0.218282,0.0838 0.396875,0.0205 0.396875,-0.1406 0,-0.16109 -0.115325,-0.29289 -0.256279,-0.29289 -0.140954,0 -0.179815,-0.19926 -0.08636,-0.44281 0.128109,-0.33385 0.06233,-0.40152 -0.26733,-0.27502 -0.583776,0.22402 -1.978764,-0.38587 -1.838304,-0.8037 0.07067,-0.21024 -0.04155,-0.27228 -0.307745,-0.17014 -0.230441,0.0884 -0.418983,0.26711 -0.418983,0.39706 0,0.12995 -0.178594,0.23628 -0.396875,0.23628 -0.218282,0 -0.396875,0.17859 -0.396875,0.39687 0,0.49353 -0.614147,0.49865 -1.984375,0.0165 -1.020894,-0.3592 -1.682679,-0.20177 -1.358286,0.32311 0.08616,0.1394 0.489709,0.32007 0.896782,0.40149 0.958348,0.19167 2.194118,1.16654 2.02788,1.59975 -0.09151,0.23848 -0.713553,0.32194 -2.12709,0.28539 -1.937831,-0.0501 -2.011558,-0.029 -2.457975,0.70512 -0.2869,0.47177 -0.553791,0.6632 -0.708679,0.50832 -0.136651,-0.13665 -0.842177,-0.31305 -1.567836,-0.39199 -0.725659,-0.0789 -2.003989,-0.24197 -2.840734,-0.36228 -1.148808,-0.16519 -1.521354,-0.13875 -1.521354,0.10795 0,0.35619 -1.44613,0.96082 -1.697299,0.70965 -0.309179,-0.30918 -0.144877,-0.64857 0.242091,-0.50008 0.218281,0.0838 0.396875,0.0469 0.396875,-0.0819 0,-0.12883 -0.131698,-0.27813 -0.292663,-0.33179 -0.160965,-0.0536 0.138638,-0.32982 0.665784,-0.61371 0.546865,-0.29451 0.903029,-0.66057 0.829398,-0.85245 -0.09788,-0.25507 0.140721,-0.29461 0.987862,-0.1637 0.614301,0.0949 1.357242,0.26097 1.650981,0.36896 0.293738,0.108 1.186707,0.0808 1.984375,-0.0605 0.797667,-0.14125 1.688429,-0.2965 1.979471,-0.345 0.291042,-0.0485 0.588698,-0.1122 0.661458,-0.14156 0.07276,-0.0294 0.251355,-0.0294 0.396875,0 0.145521,0.0294 0.165365,-0.0458 0.0441,-0.1671 -0.121268,-0.12127 -0.359393,-0.2259 -0.529167,-0.23252 -0.169774,-0.007 -0.278915,-0.15544 -0.242535,-0.33072 0.03638,-0.17529 -0.112448,-0.31871 -0.330729,-0.31871 -0.218281,0 -0.396875,-0.2311 -0.396875,-0.51355 0,-0.28245 -0.119499,-0.58741 -0.265554,-0.67767 -0.146055,-0.0903 -0.192341,-0.45583 -0.102858,-0.81236 0.130943,-0.52172 0.07949,-0.6163 -0.263613,-0.48464 -0.705056,0.27055 -0.566383,-1.52341 0.169004,-2.18634 0.327422,-0.29515 0.721976,-0.75459 0.876787,-1.02096 0.204239,-0.35142 0.422039,-0.42535 0.79375,-0.26944 0.281751,0.11819 0.908617,0.26279 1.393033,0.32135 0.813609,0.0983 0.866363,0.0604 0.691944,-0.4984 -0.103848,-0.33267 -0.307084,-0.68085 -0.451634,-0.77372 -0.144551,-0.0929 -0.188719,-0.28875 -0.09815,-0.4353 0.09057,-0.14654 -0.03977,-0.34489 -0.289649,-0.44077 -0.310214,-0.11904 -0.610036,0.0394 -0.945254,0.4996 -0.42651,0.58551 -0.540763,0.62413 -0.870622,0.29427 -0.208828,-0.20883 -0.452506,-0.74379 -0.541508,-1.1888 -0.140688,-0.70343 -0.274225,-0.8091 -1.022518,-0.8091 -0.593143,0 -0.989786,-0.18506 -1.275966,-0.59531 l -0.415268,-0.59532 -0.01388,0.7183 c -0.0088,0.45461 0.178151,0.82106 0.509225,0.99825 0.287706,0.15398 0.649083,0.51535 0.803059,0.80306 0.24299,0.45403 0.195496,0.5231 -0.359684,0.5231 -0.394494,0 -1.049191,-0.40955 -1.708248,-1.06861 -0.877542,-0.87754 -1.190604,-1.03798 -1.750919,-0.89735 -0.804261,0.20185 -2.005228,-0.0499 -2.005228,-0.42033 0,-0.14275 0.131806,-0.25954 0.292903,-0.25954 0.161096,0 1.08383,-0.38683 2.05052,-0.85963 1.349442,-0.65999 2.096711,-0.85777 3.21776,-0.85166 1.853991,0.0101 3.884281,0.90539 4.112151,1.8133 0.158285,0.63066 1.231251,1.75007 1.677454,1.75007 0.128845,0 0.302797,-0.17859 0.386559,-0.39687 0.183734,-0.47881 0.966117,-0.53304 0.954238,-0.0661 -0.01372,0.53914 -0.727251,1.3239 -1.032314,1.13536 -0.155203,-0.0959 -0.282188,-0.0622 -0.282188,0.0749 0,0.13714 0.238125,0.31161 0.529167,0.38772 0.349078,0.0913 0.529167,0.36089 0.529167,0.79221 0,0.89927 0.603418,1.36827 1.288609,1.00157 0.290777,-0.15562 0.715107,-0.28294 0.942955,-0.28294 0.53599,0 0.54658,1.02416 0.01271,1.22903 -0.220858,0.0848 -0.369686,0.34581 -0.330729,0.58014 0.05606,0.33722 -0.12865,0.41009 -0.885994,0.34954 -0.779998,-0.0624 -0.983283,0.0247 -1.099997,0.471 -0.112704,0.43098 0.0065,0.57979 0.559949,0.69926 0.386717,0.0835 0.941248,0.25078 1.232289,0.37178 1.112915,0.46271 1.440962,0.49199 2.219577,0.1981 0.886074,-0.33446 1.486604,-0.0421 0.754784,0.36747 -0.652708,0.36527 -0.571139,0.76076 0.1569,0.76076 0.35281,0 0.92103,-0.34041 1.32496,-0.79375 0.67657,-0.75933 1.76149,-1.08525 1.76149,-0.52917 0,0.14552 -0.20241,0.26459 -0.44979,0.26459 -0.36228,0 -0.38456,0.0643 -0.11448,0.33072 0.26875,0.26509 0.41055,0.22879 0.71437,-0.18286 0.56892,-0.77082 0.47741,-0.91963 -0.67927,-1.1046 -0.7976,-0.12754 -1.05833,-0.29127 -1.05833,-0.66458 0,-0.61021 0.72066,-0.6494 1.52909,-0.0831 0.97753,0.68469 1.12632,0.17574 0.23358,-0.79896 -0.46014,-0.5024 -1.10643,-1.26712 -1.43619,-1.69938 l -0.59955,-0.78593 0.55156,-0.17505 c 0.78482,-0.2491 2.66693,1.6655 2.45056,2.49287 -0.10032,0.38364 -0.0398,0.55086 0.18063,0.49937 0.18231,-0.0426 0.38603,0.0714 0.45273,0.25332 0.0667,0.1819 -0.0162,0.33073 -0.18426,0.33073 -0.4553,0 0.23346,0.57012 1.4384,1.19062 1.07351,0.55283 1.71534,1.29693 1.39498,1.61729 -0.1031,0.1031 -0.42912,-0.0312 -0.7245,-0.29856 -0.40005,-0.36205 -0.6135,-0.40955 -0.83681,-0.18625 -0.2233,0.22331 -0.0872,0.42081 0.53375,0.77427 0.86852,0.49443 1.14164,1.40054 0.42216,1.40054 -0.29387,0 -0.36592,-0.15371 -0.24729,-0.5275 0.12853,-0.40494 0.0712,-0.49057 -0.24675,-0.36857 -0.26724,0.10255 -0.41418,0.0119 -0.41418,-0.25559 0,-0.28182 -0.23295,-0.40663 -0.7276,-0.38984 -0.40018,0.0136 -1.11456,-0.10196 -1.5875,-0.25677 -0.58929,-0.19288 -0.8599,-0.1951 -0.8599,-0.007 0,0.15093 -0.17859,0.20588 -0.39687,0.12212 -0.7862,-0.30169 -0.37576,0.0809 0.56645,0.52798 0.52982,0.25142 1.01996,0.67373 1.08919,0.93846 0.139,0.53153 0.47131,0.62821 0.72857,0.21195 0.10276,-0.16627 0.4535,-0.065 0.91635,0.26459 0.94024,0.6695 1.23801,0.6704 1.59423,0.005 0.38265,-0.71499 0.79375,-0.6685 0.79375,0.0898 0,0.54168 0.10732,0.60688 0.8599,0.52243 0.47294,-0.0531 1.12778,-0.0948 1.45521,-0.0927 0.32742,0.002 0.59531,-0.11395 0.59531,-0.25784 0,-0.48703 0.43781,-0.26524 0.79541,0.40295 0.27246,0.50909 0.48409,0.62136 0.90461,0.47988 0.78318,-0.26349 2.18886,-0.29426 3.39205,-0.0742 0.74202,0.13569 0.95481,0.10833 0.75004,-0.0964 -0.15722,-0.15723 -0.28586,-0.50392 -0.28586,-0.77042 0,-0.26651 -0.1786,-0.55309 -0.39688,-0.63685 -0.21828,-0.0838 -0.39687,-0.36494 -0.39687,-0.62485 0,-0.2599 -0.1786,-0.54108 -0.39688,-0.62484 -0.21828,-0.0838 -0.39687,-0.46643 -0.39687,-0.85037 0,-0.46911 0.11442,-0.65416 0.34886,-0.5642 0.22476,0.0862 0.34242,-0.0684 0.33073,-0.43471 -0.0149,-0.46726 0.1448,-0.57665 0.89619,-0.61386 0.9595,-0.0475 1.59922,-0.63174 1.59922,-1.4605 0,-0.26323 -0.11907,-0.4786 -0.26459,-0.4786 -0.14552,0 -0.26458,-0.27989 -0.26458,-0.62198 0,-0.89947 -0.53998,-2.31298 -0.81797,-2.14118 -0.13048,0.0806 -0.63614,-0.15762 -1.12368,-0.52948 -0.48753,-0.37186 -1.14307,-0.67611 -1.45676,-0.67611 -0.35923,0 -0.57034,-0.16562 -0.57034,-0.44745 0,-0.40207 -0.0359,-0.39839 -0.35376,0.0364 -0.25015,0.3421 -0.58769,0.44947 -1.15241,0.36659 -0.65031,-0.0954 -0.77689,-0.034 -0.68152,0.33066 0.0644,0.24633 -0.007,0.52465 -0.15895,0.61849 -0.15185,0.0939 -0.20706,0.3505 -0.1227,0.57035 0.1203,0.31347 0.40955,0.3613 1.34062,0.22168 1.23276,-0.18487 1.75628,0.12029 1.47297,0.85859 -0.0951,0.24773 -0.456,0.31408 -1.20006,0.2206 -0.9406,-0.11818 -1.02442,-0.0859 -0.72219,0.27828 0.28209,0.3399 0.27089,0.48302 -0.064,0.81792 -0.36485,0.36485 -0.46965,0.34222 -1.0356,-0.2237 -0.53095,-0.53091 -0.62791,-0.88655 -0.61841,-2.26814 0.009,-1.30847 0.11558,-1.71739 0.52916,-2.03012 0.28485,-0.21539 0.6696,-0.3954 0.85501,-0.40003 0.18541,-0.005 0.94291,-0.42513 1.68334,-0.93446 1.36723,-0.94049 2.75039,-1.20874 3.31602,-0.64312 0.1556,0.15561 0.4473,0.31558 0.64822,0.3555 1.27502,0.25332 1.83821,0.52135 1.72352,0.82023 -0.0781,0.20366 0.0972,0.34427 0.44724,0.3586 2.08449,0.0854 3.25391,0.34651 3.74183,0.83567 0.46678,0.46796 0.48551,0.57573 0.14127,0.81271 -0.30778,0.21187 -0.26323,0.23561 0.19843,0.10575 0.37719,-0.1061 0.59532,-0.0523 0.59532,0.14678 0,0.36105 1.11734,2.20507 2.18281,3.60243 0.51238,0.67199 0.7276,1.26613 0.7276,2.00861 0,0.87778 -0.0625,1.00245 -0.37343,0.74442 -0.31303,-0.25979 -0.35467,-0.14733 -0.25741,0.69521 0.0864,0.74892 -0.0224,1.16643 -0.42693,1.63792 -0.64699,0.75404 -0.96065,0.58975 -0.53341,-0.2794 l 0.30378,-0.61797 -0.49546,0.61327 c -0.60807,0.75265 -1.58097,0.59872 -2.3044,-0.36461 -0.31604,-0.42084 -0.74816,-0.64554 -1.24146,-0.64554 -0.42865,0 -0.75696,-0.14338 -0.7573,-0.33073 -3.3e-4,-0.1819 -0.33666,-0.34235 -0.74739,-0.35655 -1.44443,-0.05 -2.15611,-0.34422 -1.97486,-0.81656 0.13553,-0.35317 0.0683,-0.39751 -0.34006,-0.22446 -0.27993,0.1186 -0.82561,0.27027 -1.21264,0.33703 -1.79673,0.30995 -0.62115,2.42353 1.31741,2.36858 0.51585,-0.0146 0.97864,0.0957 1.02844,0.24503 0.0498,0.14939 0.43304,0.22135 0.85164,0.15991 0.514,-0.0754 0.92898,0.0562 1.27817,0.40536 0.51722,0.51722 1.81506,1.00763 2.31344,0.87418 0.89736,-0.2403 7.20007,-0.35469 8.33437,-0.15127 0.3638,0.0652 1.07818,0.17984 1.5875,0.25466 1.7761,0.26092 2.11667,0.4103 2.11667,0.92842 0,0.72081 -0.50307,0.94115 -0.90229,0.39519 -0.22849,-0.31248 -0.5625,-0.41919 -1.0315,-0.32953 -0.38147,0.0729 -0.73153,0.0187 -0.77792,-0.12042 -0.0957,-0.28721 -8.63142,-0.32447 -10.18845,-0.0445 -0.54476,0.098 -1.33485,0.3711 -1.75576,0.60698 -0.6011,0.33686 -0.79111,0.35554 -0.88563,0.0871 -0.074,-0.2102 -0.23774,-0.25326 -0.42533,-0.11184 -0.18063,0.13618 -0.589,0.0869 -1.0015,-0.12078 z m 1.75483,-1.93915 c 0.0899,-0.14552 0.0445,-0.26458 -0.10106,-0.26458 -0.14552,0 -0.33817,0.11906 -0.4281,0.26458 -0.0899,0.14552 -0.0445,0.26458 0.10106,0.26458 0.14552,0 0.33817,-0.11906 0.4281,-0.26458 z m 4.60852,-1.54697 c 0.2593,-0.4845 -0.059,-1.09886 -0.56931,-1.09886 -0.22105,0 -1.79025,-1.5064 -1.79025,-1.71861 0,-0.0621 0.26058,-0.35563 0.57906,-0.65234 l 0.57905,-0.53947 h -0.57905 c -0.75442,0 -0.74447,-0.62661 0.0163,-1.0234 0.57019,-0.29742 0.56461,-0.30449 -0.1323,-0.16768 -1.02115,0.20045 -1.97832,-0.0918 -2.12388,-0.6484 -0.21109,-0.80721 -2.83705,-0.82676 -2.83705,-0.0211 0,0.34161 0.97189,1.33144 1.3073,1.33144 0.13693,0 0.33322,0.13633 0.4362,0.30295 0.12752,0.20633 -0.0189,0.26354 -0.45904,0.1794 -0.54132,-0.10348 -0.64438,-0.0211 -0.63464,0.50753 0.0135,0.73413 0.53653,1.05049 3.18664,1.92755 1.87314,0.61992 2.56268,1.14456 2.32351,1.76784 -0.20354,0.53041 0.40344,0.40264 0.6975,-0.14682 z M 95.8333,150.67764 c 0.08994,-0.14552 0.04446,-0.26458 -0.101062,-0.26458 -0.145521,0 -0.338168,0.11906 -0.428105,0.26458 -0.08994,0.14552 -0.04446,0.26458 0.101062,0.26458 0.145521,0 0.338168,-0.11906 0.428105,-0.26458 z m -2.174535,-0.16262 c 0.285076,-0.28507 -0.624047,-1.40042 -1.018203,-1.24917 -0.206072,0.0791 -0.44795,-0.0472 -0.537506,-0.28055 -0.08956,-0.23338 -0.381189,-0.42433 -0.648074,-0.42433 -0.266884,0 -0.566685,-0.13177 -0.666224,-0.29283 -0.244267,-0.39523 -0.634602,0.23224 -0.639948,1.02874 -0.0044,0.66106 0.222618,0.8023 1.527931,0.95044 0.478788,0.0543 0.945116,0.17339 1.036285,0.26456 0.211963,0.21196 0.735179,0.2137 0.945739,0.003 z m 32.261185,-0.89571 c -0.0884,-0.60212 -0.0134,-0.79375 0.3104,-0.79375 0.2348,0 0.42691,-0.12326 0.42691,-0.2739 0,-0.18476 -0.17398,-0.18078 -0.53464,0.0122 -0.29405,0.15737 -0.64301,0.21915 -0.77546,0.13728 -0.13246,-0.0819 -0.31682,-0.0259 -0.40969,0.12438 -0.0929,0.15026 -0.29809,0.19334 -0.45604,0.0957 -0.3421,-0.21143 -0.0539,0.34031 0.53729,1.02875 0.62086,0.72296 1.03364,0.57147 0.90123,-0.33072 z m -32.854781,-2.14248 c -0.834216,-0.69934 -2.146769,-1.05316 -2.112671,-0.5695 0.01845,0.26172 2.725519,1.63175 2.896427,1.46585 0.07276,-0.0706 -0.27993,-0.47398 -0.783756,-0.89635 z m 31.740001,-0.50336 c 0,-0.29104 -0.0457,-0.52916 -0.10143,-0.52916 -0.0558,0 -0.1637,0.23812 -0.23981,0.52916 -0.0761,0.29104 -0.0305,0.52917 0.10143,0.52917 0.1319,0 0.23981,-0.23813 0.23981,-0.52917 z m -1.32291,-1.17279 c 0,-0.20848 -0.26789,-0.46265 -0.59532,-0.56483 -0.32742,-0.10218 -0.67183,-0.30491 -0.76535,-0.45052 -0.0942,-0.1466 -0.48829,-0.18485 -0.88324,-0.0857 -0.57433,0.14415 -0.65338,0.2511 -0.40593,0.54925 0.169,0.20364 0.45523,0.31348 0.63606,0.24409 0.18083,-0.0694 0.67814,0.056 1.10513,0.27868 0.94665,0.49365 0.90865,0.49243 0.90865,0.0291 z m -3.36739,-1.72054 c 0.18073,-0.69113 -0.52083,-0.92653 -0.86191,-0.28921 -0.37212,0.6953 -0.34173,0.80129 0.22969,0.80129 0.27407,0 0.55857,-0.23043 0.63222,-0.51208 z m -1.57499,-1.11198 c 0.46146,-0.31461 -0.10872,-0.76124 -0.76238,-0.59718 -0.39325,0.0987 -0.64524,0.0474 -0.64524,-0.13132 0,-0.1613 -0.41672,-0.29327 -0.92604,-0.29327 -0.50933,0 -0.92605,0.12757 -0.92605,0.28348 0,0.41801 0.69495,1.03944 1.16242,1.03944 0.22356,0 0.54013,0.24975 0.7035,0.555 l 0.29703,0.55501 0.42454,-0.62116 c 0.2335,-0.34163 0.536,-0.69713 0.67222,-0.79 z m -27.601372,-0.74157 c 0,-0.31217 -0.516031,-0.64611 -0.705555,-0.45659 -0.189525,0.18952 0.144415,0.70556 0.456587,0.70556 0.136932,0 0.248968,-0.11204 0.248968,-0.24897 z m 8.399828,12.55843 c -0.545322,-0.18747 -0.991495,-0.23956 -0.991495,-0.11576 0,0.12381 -0.191626,0.15157 -0.425836,0.0617 -0.375997,-0.14429 -0.368255,-0.19598 0.06615,-0.44167 0.27059,-0.15304 0.997997,-0.32167 1.616461,-0.37474 0.981334,-0.0842 1.124484,-0.0289 1.124484,0.43435 0,0.74598 -0.25535,0.82611 -1.38976,0.43612 z m 4.432464,0.12595 c -0.0899,-0.14552 -0.0374,-0.26458 0.11668,-0.26458 0.1541,0 0.28019,0.11906 0.28019,0.26458 0,0.14552 -0.0525,0.26459 -0.11667,0.26459 -0.0642,0 -0.19026,-0.11907 -0.2802,-0.26459 z m -29.884687,-0.25002 c 0.49529,-0.49266 3.294291,-1.86664 3.802614,-1.86664 0.285203,0 0.58335,-0.10485 0.662548,-0.233 0.25106,-0.40622 1.357508,-0.4813 1.699391,-0.11532 0.26636,0.28514 0.207039,0.39847 -0.311838,0.59575 -1.266628,0.48157 -2.840083,0.83172 -3.077663,0.68488 -0.133219,-0.0823 -0.338832,0.014 -0.456916,0.21412 -0.118084,0.2001 -0.474762,0.50026 -0.792617,0.66702 -0.70806,0.37149 -1.886837,0.41259 -1.525519,0.0532 z m 2.500312,-0.27914 c 0,-0.14552 0.126089,-0.26459 0.280198,-0.26459 0.154109,0 0.206614,0.11907 0.116677,0.26459 -0.08994,0.14552 -0.216026,0.26458 -0.280198,0.26458 -0.06417,0 -0.116677,-0.11906 -0.116677,-0.26458 z m 6.454447,-3.96283 c -0.874795,-0.35355 -1.050719,-2.05818 -0.295493,-2.8632 l 0.587921,-0.62669 -0.706555,-0.60847 c -0.923608,-0.79539 -1.191005,-3.3159 -0.351778,-3.3159 0.218281,0 0.396875,-0.19704 0.396875,-0.43788 0,-0.39297 0.05458,-0.38848 0.532146,0.0437 0.524141,0.47435 0.524516,0.4887 0.02495,0.95412 -0.409393,0.38141 -0.466866,0.65136 -0.298037,1.39993 0.298744,1.32459 0.913386,1.83694 2.145747,1.78865 0.824357,-0.0323 1.033957,0.0532 1.030729,0.42057 -0.0022,0.25362 -0.09579,0.60547 -0.207904,0.7819 -0.263481,0.41461 -1.375544,0.13033 -1.375544,-0.35164 0,-0.55362 -0.340531,-0.42668 -0.894704,0.33353 -0.468902,0.64323 -0.472745,0.73551 -0.06614,1.58816 0.61029,1.27979 0.576654,1.33733 -0.522204,0.89322 z m 24.556908,-0.73209 c -0.25163,-0.0876 -0.26543,-0.21103 -0.0523,-0.46781 0.45752,-0.55129 0.56661,-3.03936 0.13325,-3.03936 -0.19609,0 -0.39621,0.11556 -0.44472,0.25679 -0.17473,0.50874 -1.41388,-0.39583 -1.35069,-0.98599 0.063,-0.58853 -1.02082,-1.65205 -1.6836,-1.65205 -0.39576,0 -0.46895,-0.47915 -0.14988,-0.9812 0.15846,-0.24933 0.45099,-0.24658 1.32842,0.0125 0.61886,0.18273 1.04153,0.41591 0.93927,0.51818 -0.10227,0.10226 -0.057,0.18594 0.10068,0.18594 0.15765,0 0.34121,-0.14883 0.4079,-0.33073 0.19153,-0.52235 0.70808,0.10318 1.52332,1.84473 0.49903,1.06606 0.63558,1.6288 0.4512,1.85944 -0.17716,0.2216 -0.17458,0.33073 0.008,0.33073 0.14972,0 0.231,0.20836 0.18063,0.46302 -0.31395,1.58718 -0.41695,1.87217 -0.71649,1.98236 -0.18316,0.0674 -0.48681,0.0689 -0.67478,0.003 z m -9.65708,-5.09586 c -0.351149,-1.3428 1.743487,-2.18615 2.55437,-1.02846 0.2149,0.30682 0.50582,0.48672 0.64648,0.39979 0.14066,-0.0869 0.40288,0.0192 0.58271,0.2359 0.50288,0.60593 -0.56067,0.51506 -1.67639,-0.14323 l -0.910469,-0.53719 -0.160704,0.6403 c -0.204965,0.81664 -0.863667,1.09188 -1.035997,0.43289 z m 6.48513,-2.56884 c -0.26968,-0.25997 -1.03903,-0.76299 -1.70968,-1.11781 -0.67064,-0.35482 -1.34476,-0.92037 -1.49803,-1.25677 -0.18395,-0.40373 -0.50546,-0.61164 -0.94581,-0.61164 -0.740913,0 -0.921831,0.6394 -0.253491,0.89587 0.227501,0.0873 0.344071,0.27131 0.259031,0.4089 -0.127841,0.20685 -0.765069,0.22423 -1.771272,0.0483 -0.09491,-0.0166 -0.297071,-0.38736 -0.449257,-0.82392 -0.195609,-0.56113 -0.449188,-0.79375 -0.865243,-0.79375 -0.650154,0 -2.59637,0.8233 -2.607161,1.1029 -0.0038,0.0973 0.409893,0.4344 0.919216,0.74918 1.062912,0.65692 1.292698,1.47242 0.330729,1.17374 -0.93227,-0.28945 -1.973096,-1.11367 -2.121115,-1.6797 -0.174435,-0.66704 0.686812,-1.47819 2.098208,-1.97616 0.729865,-0.25751 1.174022,-0.29583 1.353124,-0.11672 0.179055,0.17905 0.430169,0.17908 0.764607,1e-4 0.62965,-0.33698 4.262144,-0.15625 5.034894,0.25051 0.91019,0.47909 1.01554,1.08034 0.17135,0.97796 -0.48732,-0.0591 -0.7199,0.0461 -0.76453,0.34596 -0.0452,0.30378 0.0827,0.39249 0.43369,0.30071 0.31071,-0.0813 0.56259,0.0386 0.67015,0.31889 0.13676,0.3564 0.21779,0.37625 0.39263,0.0962 0.16949,-0.27151 0.32882,-0.2023 0.69078,0.30009 1.00335,1.39259 0.90732,2.40988 -0.13282,1.40717 z"
       id="path18" />
  </g>
</svg>
