<?xml version="1.0" encoding="UTF-8" standalone="no"?>
<!-- Created with Inkscape (http://www.inkscape.org/) -->

<svg
   width="102.24573mm"
   height="52.639595mm"
   viewBox="0 0 102.24573 52.639597"
   version="1.1"
   id="svg1"
   inkscape:version="1.4.1-rc (06eac75fbf, 2025-03-29)"
   sodipodi:docname="bushes16.svg"
   xmlns:inkscape="http://www.inkscape.org/namespaces/inkscape"
   xmlns:sodipodi="http://sodipodi.sourceforge.net/DTD/sodipodi-0.dtd"
   xmlns="http://www.w3.org/2000/svg"
   xmlns:svg="http://www.w3.org/2000/svg">
  <sodipodi:namedview
     id="namedview1"
     pagecolor="#ffffff"
     bordercolor="#000000"
     borderopacity="0.25"
     inkscape:showpageshadow="2"
     inkscape:pageopacity="0.0"
     inkscape:pagecheckerboard="0"
     inkscape:deskcolor="#d1d1d1"
     inkscape:document-units="mm"
     inkscape:zoom="0.72248176"
     inkscape:cx="193.77652"
     inkscape:cy="100.34855"
     inkscape:window-width="1850"
     inkscape:window-height="1016"
     inkscape:window-x="0"
     inkscape:window-y="0"
     inkscape:window-maximized="1"
     inkscape:current-layer="layer1" />
  <defs
     id="defs1" />
  <g
     inkscape:label="Layer 1"
     inkscape:groupmode="layer"
     id="layer1"
     transform="translate(-53.710499,-92.604566)">
    <path
       style="fill:#000000"
       d="m 72.641389,145.00698 c -0.1702,-0.27539 0.54338,-1.07966 0.95792,-1.07966 0.28654,0 1.4169,-0.46467 3.39453,-1.39542 0.65484,-0.3082 1.47658,-0.59081 1.82608,-0.62804 0.34951,-0.0372 0.76028,-0.19248 0.91282,-0.34503 0.15254,-0.15254 0.55119,-0.27735 0.88589,-0.27735 0.3347,0 0.60854,-0.09 0.60854,-0.19999 0,-0.11 0.38695,-0.36529 0.8599,-0.5673 0.47294,-0.20202 1.41273,-0.94546 2.08843,-1.65209 0.67569,-0.70663 1.29446,-1.28478 1.37504,-1.28478 0.0806,0 1.01603,-0.41043 2.07876,-0.91206 1.06273,-0.50163 2.53654,-1.08435 3.27513,-1.29494 1.25701,-0.3584 1.36267,-0.35122 1.65214,0.11229 0.26613,0.42614 0.20062,0.55135 -0.46986,0.89807 -0.4285,0.22159 -0.93384,0.40314 -1.12296,0.40345 -0.18913,3e-4 -1.26828,0.47655 -2.39811,1.05833 -1.12982,0.58178 -2.17622,1.05777 -2.32532,1.05777 -0.1491,0 -0.76673,0.47625 -1.37251,1.05834 -0.60577,0.58208 -1.25601,1.05833 -1.44498,1.05833 -0.18897,0 -0.34358,0.10462 -0.34358,0.23248 0,0.24465 -1.49054,0.9481 -1.66777,0.78711 -0.0566,-0.0514 -0.30275,0.0722 -0.54691,0.27488 -0.24417,0.20264 -0.51327,0.29911 -0.598,0.21437 -0.0847,-0.0847 -0.40196,0.0769 -0.70496,0.35918 -0.30299,0.28228 -0.74275,0.51323 -0.97725,0.51323 -0.2345,0 -0.53947,0.10243 -0.67771,0.22763 -0.13825,0.12519 -0.9062,0.44687 -1.70656,0.71483 -0.80037,0.26797 -1.56832,0.58226 -1.70657,0.69842 -0.34472,0.28966 -1.66745,0.26677 -1.85213,-0.0321 z m 20.13502,-5.7014 c -0.082,-0.21362 -0.0352,-0.45877 0.10398,-0.54478 0.13917,-0.086 0.25303,0.0888 0.25303,0.3884 0,0.63886 -0.14714,0.70331 -0.35701,0.15638 z m -0.23323,-1.45213 c -0.18288,-0.65117 -0.0735,-1.02805 0.21474,-0.73982 0.0845,0.0845 0.11185,0.43178 0.0607,0.7717 l -0.093,0.61803 z m -38.83268,-0.18427 c 0,-0.60939 1.78474,-1.46533 3.30729,-1.58614 0.58209,-0.0462 1.47505,-0.14866 1.98438,-0.22771 1.21385,-0.18842 2.59721,-0.33942 5.03505,-0.54961 1.66525,-0.14357 2.05153,-0.10047 2.35281,0.26255 0.46593,0.56142 0.35405,0.64908 -1.05428,0.82603 -0.64354,0.0809 -1.27235,0.24928 -1.39735,0.37428 -0.125,0.125 -0.55987,0.13189 -0.96637,0.0153 -0.45314,-0.12995 -1.4409,-0.0641 -2.55292,0.1701 -0.9976,0.21014 -2.0178,0.32958 -2.26711,0.26543 -0.24931,-0.0642 -0.58669,0.0441 -0.74972,0.24054 -0.16304,0.19645 -0.6139,0.34188 -1.00192,0.32319 -0.38802,-0.0187 -1.15197,0.0597 -1.69767,0.17412 -0.8678,0.18203 -0.99219,0.14591 -0.99219,-0.28808 z m 1.73205,-2.45329 c -0.2376,-0.38444 0.42532,-1.60732 0.87132,-1.60732 0.54,0 2.15913,-0.59525 2.15913,-0.79378 0,-0.0871 -0.42715,-0.10843 -0.94922,-0.0475 l -0.94923,0.11081 0.6185,-0.95442 c 0.34017,-0.52493 0.81982,-0.95589 1.0659,-0.95769 0.24607,-0.002 0.51895,-0.11904 0.60639,-0.26053 0.0875,-0.14148 1.13627,-0.26217 2.33072,-0.2682 1.19446,-0.006 2.46939,-0.0262 2.83319,-0.0449 0.3638,-0.0187 1.34568,0.0317 2.18195,0.11205 1.7533,0.16837 2.16201,-0.11285 0.92354,-0.63545 -0.93567,-0.39483 -3.64928,-0.40871 -4.67901,-0.0239 -0.44177,0.16508 -1.03019,0.11978 -1.85208,-0.14258 -1.15965,-0.37018 -1.26194,-0.35735 -2.74085,0.34362 -1.04995,0.49765 -1.62217,0.64222 -1.80766,0.45673 -0.32832,-0.32832 0.25375,-1.39214 0.76171,-1.39214 0.18328,0 0.33323,-0.12789 0.33323,-0.2842 0,-0.17181 0.497,-0.2584 1.25677,-0.21897 0.76116,0.0395 1.62885,-0.11205 2.20027,-0.3843 0.82876,-0.39486 1.10668,-0.40776 2.2854,-0.10611 1.00353,0.25682 1.97808,0.28183 3.8648,0.0992 2.23171,-0.21608 2.54004,-0.30835 2.67141,-0.7994 0.0918,-0.34299 -0.0142,-0.67663 -0.2773,-0.87306 -0.2342,-0.17487 -0.42582,-0.59886 -0.42582,-0.94221 0,-0.9157 1.37404,-2.69071 2.44422,-3.15748 0.82159,-0.35836 0.86793,-0.42727 0.40005,-0.59505 -2.35723,-0.84528 -3.389,-1.62967 -3.75558,-2.85515 -0.18559,-0.62041 -0.33924,-1.33847 -0.34145,-1.59571 -0.006,-0.65979 1.77431,-2.31043 2.49147,-2.31043 0.5331,0 0.59521,-0.12478 0.5726,-1.15037 -0.0363,-1.64512 0.49026,-2.45437 1.91224,-2.93888 1.42808,-0.4866 2.96351,-0.52 4.41238,-0.096 0.58209,0.17034 1.2738,0.28006 1.53713,0.24381 0.26334,-0.0362 0.64508,0.0721 0.84831,0.24075 0.20323,0.16867 0.49042,0.23194 0.63821,0.1406 0.14778,-0.0913 0.53995,0.01 0.87149,0.22463 0.58839,0.38137 1.72728,0.39137 3.3743,0.0296 0.42313,-0.0929 1.00772,-0.0414 1.2991,0.11456 0.29139,0.15595 1.15175,0.35279 1.91193,0.43744 0.76018,0.0846 1.65462,0.33243 1.98764,0.55064 0.33303,0.2182 0.7298,0.31991 0.88172,0.22602 0.15192,-0.0939 0.27622,-0.0477 0.27622,0.10269 0,0.15037 0.38194,0.47092 0.84877,0.71232 0.46682,0.24141 1.2705,0.83884 1.78594,1.32764 0.54127,0.51329 1.32835,0.95393 1.8632,1.0431 1.38436,0.23079 2.38125,0.66622 2.38125,1.04009 0,0.18281 0.17563,0.47814 0.39028,0.65629 0.32086,0.26628 0.44241,0.2095 0.68331,-0.31923 0.16117,-0.35372 0.69992,-0.79027 1.19722,-0.97009 0.497311,-0.17983 0.904191,-0.4529 0.904191,-0.60682 0,-0.18602 0.11089,-0.19276 0.33073,-0.0201 0.1819,0.14286 0.6992,0.32936 1.14955,0.41444 1.07579,0.20324 3.81252,1.41884 3.80734,1.69115 -0.002,0.11715 -0.10235,0.36796 -0.22248,0.55736 -0.1702,0.26832 -0.56206,0.16608 -1.77459,-0.46302 -2.83366,-1.47019 -5.670011,-0.7286 -3.71494,0.97131 0.34867,0.30316 0.73563,0.73199 0.8599,0.95296 0.20088,0.35717 0.48198,0.34938 2.53334,-0.0702 1.26907,-0.2596 2.36807,-0.41132 2.44222,-0.33717 0.0742,0.0741 0.5241,-0.26964 0.9999,-0.76399 1.01737,-1.05704 1.6295,-1.42461 2.80095,-1.68191 0.4731,-0.10391 1.0426,-0.46732 1.26555,-0.80759 0.22295,-0.34027 0.77584,-0.74782 1.22865,-0.90567 0.71472,-0.24915 0.76879,-0.33027 0.41008,-0.61511 -0.47746,-0.37914 -0.7795,-1.72713 -0.43473,-1.94021 0.12838,-0.0793 0.16028,-0.2626 0.0709,-0.40723 -0.25237,-0.40835 0.69387,-1.28796 1.38553,-1.28796 0.47192,0 0.62045,-0.1464 0.62045,-0.61157 0,-0.33636 0.25657,-0.88697 0.57015,-1.22356 0.50987,-0.54728 0.74069,-0.59721 2.18282,-0.47225 0.88696,0.0768 1.99274,0.33509 2.45729,0.57387 0.7041,0.36189 0.93523,0.37755 1.38907,0.0941 0.72588,-0.45332 0.69684,-0.56281 -0.36397,-1.37193 -0.67346,-0.51367 -1.22088,-0.69286 -2.11667,-0.69286 -1.27914,0 -1.5565,-0.32418 -0.67911,-0.79375 0.29104,-0.15576 0.52917,-0.44168 0.52917,-0.63537 0,-0.4495 -2.32777,-2.27505 -2.90092,-2.27505 -0.23806,0 -0.5576,-0.12476 -0.71008,-0.27725 -0.19328,-0.19327 -0.4976,-0.17685 -1.00478,0.0542 -0.63181,0.28787 -0.70902,0.44553 -0.58684,1.19844 0.15812,0.97438 -0.1795,1.35055 -0.77132,0.85938 -0.43396,-0.36015 -0.3844,-2.19688 0.0716,-2.65286 0.53561,-0.53562 2.07365,-0.55325 3.59049,-0.0412 1.4675,0.49542 1.51922,0.49624 1.55119,0.0244 0.0636,-0.93856 0.10205,-1.03836 0.49609,-1.28745 0.21828,-0.13799 0.69453,-0.25766 1.05834,-0.26595 0.63678,-0.0145 0.62281,-0.0492 -0.37436,-0.9297 -0.56969,-0.50305 -1.4329,-1.14892 -1.91823,-1.43527 -0.87723,-0.51758 -0.88241,-0.51758 -0.88241,-3.9e-4 0,0.75297 -1.12064,0.6953 -1.45862,-0.0751 -0.2115,-0.48208 -0.56313,-0.634 -1.84867,-0.79871 -0.96847,-0.12408 -1.8245,-0.0983 -2.19527,0.0662 -0.33427,0.14824 -0.90355,0.26954 -1.26507,0.26954 -0.79653,0 -1.07729,0.60266 -0.68346,1.46703 0.35678,0.78305 0.004,1.02075 -1.93541,1.30247 -1.45836,0.21189 -2.9459,0.88247 -3.62495,1.63411 -0.92386,1.02262 -0.61308,4.29121 0.46276,4.86698 0.62133,0.33253 1.09674,1.21122 0.8103,1.49766 -0.23987,0.23987 -0.96211,-0.14293 -1.13889,-0.60363 -0.0909,-0.23689 -0.56389,-0.86467 -1.05107,-1.39506 -0.97426,-1.06067 -1.11587,-1.98615 -0.59241,-3.87168 0.44234,-1.59337 1.70847,-2.63103 3.71383,-3.0437 2.06192,-0.4243 2.81637,-0.76618 2.34019,-1.06047 -0.49123,-0.3036 -0.10968,-1.5096 0.59851,-1.89174 0.34652,-0.18698 1.74467,-0.32848 3.37031,-0.34107 1.52797,-0.0118 2.93862,-0.12385 3.13477,-0.24889 1.05854,-0.67481 7.71315,0.93236 7.71315,1.86282 0,0.17063 0.14883,0.36339 0.33073,0.42835 0.1819,0.065 0.25259,0.20263 0.15709,0.30593 -0.16414,0.17754 -3.26558,-0.70028 -4.25455,-1.20419 -0.6137,-0.3127 -1.06589,-0.29701 -0.8638,0.03 0.21006,0.33988 2.67325,1.49754 3.70449,1.74105 0.80907,0.19105 1.18605,0.46553 2.44637,1.7812 0.65723,0.68609 0.73811,0.70834 1.04572,0.28765 0.91135,-1.24635 6.18129,0.645 5.80513,2.08342 -0.10389,0.39728 -0.0229,0.48069 0.36752,0.37858 0.35294,-0.0923 0.85845,0.25145 1.71247,1.16446 0.66643,0.71247 1.35576,1.29987 1.53183,1.30534 0.17607,0.005 0.77658,0.40077 1.33447,0.87847 0.79519,0.68087 0.99528,1.02419 0.92605,1.58896 l -0.0883,0.72042 -0.92605,-0.79439 c -1.04676,-0.89795 -1.32291,-0.98684 -1.32291,-0.42582 0,0.21455 0.35718,0.57479 0.79375,0.80055 0.96138,0.49715 1.10073,1.45521 0.21166,1.45521 -0.66867,0 -0.39864,0.38753 0.62596,0.89835 0.68235,0.34019 0.84817,1.11659 0.22071,1.03341 -0.21828,-0.0289 -1.40891,-0.41257 -2.64583,-0.8525 -1.23693,-0.43994 -2.56936,-0.80322 -2.96095,-0.80729 -0.75698,-0.008 -1.19569,0.37443 -0.74754,0.6514 0.1479,0.0914 0.2595,0.36752 0.24802,0.6136 -0.0129,0.27547 -0.0722,0.32031 -0.15434,0.11667 -0.16804,-0.41642 -1.20592,-0.43125 -1.61411,-0.0231 -0.23384,0.23384 -0.37355,0.13438 -0.58221,-0.41444 -0.21903,-0.57607 -0.41753,-0.70517 -0.98162,-0.63839 -0.79016,0.0935 -1.18914,0.74516 -0.45625,0.74516 0.25741,0 0.72495,0.24138 1.03897,0.53639 0.31403,0.29501 0.82816,0.58591 1.14253,0.64645 0.31436,0.0605 0.7105,0.19594 0.88031,0.30089 0.16981,0.10495 2.0519,0.20985 4.18243,0.23312 2.13053,0.0233 4.00446,0.12314 4.1643,0.22193 0.15984,0.0988 0.47066,0.11052 0.6907,0.0261 0.43616,-0.16737 1.49976,0.29913 1.49976,0.6578 0,0.12253 -1.54782,0.16173 -3.43959,0.0871 -3.4275,-0.13518 -3.43958,-0.13357 -3.43958,0.45768 0,0.45939 -0.10452,0.55143 -0.46302,0.40771 -1.4187,-0.56873 -2.69595,-0.83759 -3.0159,-0.63484 -0.62523,0.39621 -1.28358,0.26369 -1.28358,-0.25837 0,-0.3534 -0.1686,-0.47537 -0.59531,-0.43064 -0.32742,0.0343 -0.80367,0.0776 -1.05834,0.0962 -0.83169,0.0606 -0.48712,0.72587 0.64503,1.24524 1.64104,0.75283 1.66399,1.2608 0.046,1.01817 -1.1752,-0.17624 -1.25403,-0.15538 -0.92254,0.24403 0.19935,0.24021 0.52647,0.43674 0.72693,0.43674 0.20047,0 0.36448,0.13364 0.36448,0.29698 0,0.20286 0.10482,0.2128 0.33073,0.0314 0.40753,-0.3273 1.8767,-0.18834 2.00262,0.18942 0.0506,0.1518 0.34997,0.26659 0.66526,0.2551 0.3153,-0.0115 0.42444,-0.0809 0.24254,-0.15434 -0.1819,-0.0734 -0.33073,-0.24678 -0.33073,-0.38529 0,-0.14895 0.21619,-0.13614 0.52916,0.0314 0.29105,0.15576 0.52917,0.44487 0.52917,0.64246 0,0.6388 -0.84087,0.70492 -1.79623,0.14125 -0.67025,-0.39546 -0.98519,-0.46326 -1.12218,-0.2416 -0.11133,0.18013 -0.25449,0.20451 -0.34461,0.0587 -0.17138,-0.27731 -0.79801,-0.26585 -1.69555,0.031 -0.69987,0.23147 -1.36687,-0.0553 -0.85885,-0.36932 0.55223,-0.3413 -1.46366,-0.92288 -4.23675,-1.22229 -2.29239,-0.24751 -7.40833,-0.16019 -7.40833,0.12645 0,0.0995 -0.4754,0.19333 -1.05644,0.20857 -0.58105,0.0152 -1.20909,0.15438 -1.39566,0.30922 -0.18657,0.15484 -0.6374,0.32145 -1.00184,0.37026 -0.92426,0.12377 -2.69701,1.21273 -2.49812,1.53454 0.0904,0.14623 0.66289,0.26478 1.27225,0.26343 0.60937,-0.001 1.52465,0.0616 2.03398,0.13981 0.50932,0.0782 1.22369,0.17396 1.5875,0.21272 0.3638,0.0388 0.98888,0.21035 1.38906,0.3813 0.88955,0.38002 0.98699,1.08328 0.13229,0.95483 -0.32742,-0.0492 -1.78594,-0.282 -3.24114,-0.51731 -1.45521,-0.23531 -3.81405,-0.43145 -5.24187,-0.43586 -2.86819,-0.009 -3.68748,0.26944 -5.42056,1.84145 -0.520091,0.47175 -1.161541,0.92626 -1.425451,1.01002 -0.6024,0.19119 -0.61427,0.54427 -0.0293,0.87163 0.38765,0.21694 0.39962,0.31346 0.0858,0.69163 -0.27255,0.32841 -0.72594,0.42278 -1.79359,0.37332 -0.9654,-0.0447 -1.49955,0.0483 -1.64689,0.28666 -0.21698,0.35108 -0.93797,0.37223 -5.24907,0.15398 -2.02383,-0.10246 -2.54599,0.30769 -2.79658,2.19669 -0.19424,1.46427 0.0346,1.39828 -5.05745,1.45838 -3.02537,0.0357 -3.1728,0.0125 -3.12841,-0.4917 0.041,-0.4654 0.009,-0.47849 -0.26458,-0.10868 -0.17115,0.23127 -0.60883,0.48947 -0.97263,0.57377 -0.3638,0.0843 -1.09586,0.31611 -1.62679,0.51513 l -0.96532,0.36184 1.03147,0.59364 c 0.64899,0.37352 1.03147,0.78693 1.03147,1.11491 0,0.61802 -0.43045,0.65355 -1.78058,0.147 -1.16271,-0.43623 -8.38931,-0.76487 -9.19963,-0.41837 -0.36707,0.15697 0.0382,0.23609 1.32292,0.25832 1.88262,0.0326 4.1527,0.25238 4.33217,0.41947 0.0543,0.0506 0.0283,0.27575 -0.0579,0.50031 -0.11783,0.30708 -0.56865,0.40976 -1.81862,0.41423 -8.46881,0.0303 -11.83053,0.36714 -13.6424,1.36712 -1.00374,0.55397 -1.03519,0.55993 -1.23646,0.23426 z m 20.30506,-6.15389 c 1.02097,-0.52959 1.48569,-0.57633 5.56835,-0.56007 l 4.45443,0.0178 0.50651,-1.18166 c 0.60898,-1.42068 0.60938,-1.42523 0.10964,-1.23347 -0.21828,0.0838 -0.39687,0.31113 -0.39687,0.50525 0,0.47489 -0.38921,0.68587 -0.90217,0.48903 -0.25313,-0.0971 -0.42075,-0.47262 -0.42075,-0.94252 0,-0.45333 0.11102,-0.71244 0.26459,-0.61753 0.14552,0.0899 0.26458,0.0566 0.26458,-0.0741 0,-0.34299 -1.5926,-0.2071 -2.45762,0.2097 -0.43549,0.20984 -0.67943,0.49883 -0.59531,0.70526 0.0784,0.19236 0.21128,0.51921 0.29533,0.72633 0.2246,0.5535 -0.86166,1.0816 -1.36519,0.6637 -0.80529,-0.66833 -2.52151,-0.7493 -4.29185,-0.2025 -0.92981,0.28719 -1.85768,0.45804 -2.06192,0.37966 -0.73731,-0.28293 -0.34618,-0.93927 0.88541,-1.48579 1.0208,-0.45299 1.60452,-0.53319 3.10886,-0.42718 1.01864,0.0718 2.05218,0.20769 2.29675,0.302 0.35362,0.13637 0.46197,-0.009 0.52917,-0.70784 0.13643,-1.41978 1.48093,-1.80522 5.20179,-1.49126 1.27603,0.10767 1.43504,0.0616 1.63898,-0.47479 0.12421,-0.32672 0.4357,-0.71148 0.6922,-0.85502 0.38969,-0.21808 0.2725,-0.31587 -0.71294,-0.59489 -0.64861,-0.18364 -1.41741,-0.37372 -1.70845,-0.4224 -0.29104,-0.0487 -0.77929,-0.21791 -1.08499,-0.37609 -0.92509,-0.47864 -1.81662,-0.21011 -1.82134,0.54859 -0.006,0.88811 -0.85347,1.05081 -1.16121,0.22281 -0.32164,-0.8654 -0.12036,-1.20671 0.91268,-1.54764 0.89164,-0.29427 3.06936,-0.17285 4.78779,0.26695 0.69969,0.17907 0.93586,0.11187 1.42074,-0.40427 l 0.58156,-0.61904 -0.89158,-0.54247 -0.89157,-0.54248 -0.46107,0.59325 c -0.50486,0.64958 -0.58004,0.6 -1.40749,-0.92811 -0.47361,-0.87466 -0.81401,-0.90961 -1.60665,-0.16496 -0.3294,0.30945 -0.77412,0.4954 -0.98827,0.41322 -0.34085,-0.13079 -0.34222,-0.30606 -0.011,-1.40656 0.20809,-0.69143 0.55584,-1.52804 0.77278,-1.85912 0.21694,-0.33109 0.39443,-0.77203 0.39443,-0.97986 0,-0.51661 0.7257,-0.75411 1.32469,-0.43354 0.59455,0.31819 2.11489,0.35096 2.11489,0.0456 0,-0.11992 -0.89772,-0.41286 -1.99494,-0.65097 -2.18768,-0.47474 -2.65172,-0.38509 -4.29467,0.82971 -0.80619,0.5961 -0.8985,0.61035 -1.34375,0.2074 -0.26295,-0.23797 -0.69097,-0.43267 -0.95114,-0.43267 -0.34311,0 -0.43496,-0.14565 -0.33438,-0.53027 0.15597,-0.59642 -0.26108,-0.76614 -2.1261,-0.86525 -0.61771,-0.0328 -1.12637,-0.17875 -1.13036,-0.32427 -0.004,-0.14552 -0.2264,0.0204 -0.49424,0.36878 -0.26783,0.34835 -0.61336,0.55525 -0.76784,0.45978 -0.15447,-0.0955 -0.31964,0.025 -0.36703,0.26773 -0.0785,0.40178 -0.11739,0.40366 -0.43461,0.0209 -0.29417,-0.35492 -0.26327,-0.50553 0.19844,-0.96725 0.30078,-0.30078 0.54687,-0.6064 0.54687,-0.67916 0,-0.26489 -0.97641,-0.12167 -2.25911,0.33137 -1.23002,0.43443 -1.31185,0.52012 -1.29829,1.35953 0.0106,0.65553 0.21484,1.05565 0.76133,1.49141 0.94151,0.75073 0.6913,1.25916 -0.50885,1.03401 -0.48532,-0.091 -1.12497,-0.0885 -1.42144,0.006 -0.58672,0.18622 -1.62364,1.67769 -1.62364,2.33538 0,0.57171 1.42271,1.85461 2.16334,1.95074 0.33813,0.0439 0.94221,0.13887 1.34239,0.21107 0.40018,0.0722 0.72761,0.0249 0.72761,-0.10513 0,-0.13001 0.401,-0.48422 0.89112,-0.78713 0.91236,-0.56387 3.34221,-0.7872 3.34221,-0.30719 0,0.13396 0.34724,0.31983 0.77165,0.41305 0.4244,0.0932 0.83738,0.3408 0.91773,0.55019 0.0804,0.20939 0.35819,0.38363 0.61742,0.38721 0.46736,0.006 1.56184,1.7693 1.27597,2.05517 -0.16969,0.16969 -1.25628,-0.38104 -1.93258,-0.97952 -0.70157,-0.62083 -2.06945,-1.34674 -2.53776,-1.34674 -0.22498,0 -0.50427,0.15601 -0.62064,0.3467 -0.42066,0.68929 -1.54049,1.2408 -2.51941,1.2408 -0.54971,0 -0.99946,0.12609 -0.99946,0.2802 0,0.15411 0.11556,0.20877 0.25681,0.12148 0.14125,-0.0873 0.60995,0.0239 1.04157,0.24709 0.43162,0.2232 0.95553,0.34029 1.16426,0.26019 0.40192,-0.15423 0.81819,0.55782 0.56531,0.967 -0.21322,0.345 -0.74106,0.29764 -1.58968,-0.14263 -0.40638,-0.21083 -0.80694,-0.34991 -0.89014,-0.30907 -0.0832,0.0408 -0.61214,0.28529 -1.17543,0.54322 -0.5633,0.25792 -1.0832,0.69466 -1.15534,0.97053 -0.0721,0.27586 -0.25092,0.50157 -0.39729,0.50157 -0.14684,0 -0.11401,0.18328 0.0733,0.40892 0.18666,0.2249 0.50964,0.34358 0.71773,0.26372 0.2081,-0.0798 0.51645,-0.0587 0.68522,0.0471 0.16877,0.10576 0.4835,0.19545 0.6994,0.19929 0.2159,0.004 0.43299,0.21535 0.48242,0.47002 0.0688,0.35466 -0.0886,0.46302 -0.67271,0.46302 -0.41942,0 -0.97667,0.15655 -1.23834,0.34789 -0.44647,0.32646 -0.43163,0.37681 0.24102,0.81754 0.39423,0.25831 0.94264,0.4106 1.21868,0.33841 0.27604,-0.0722 0.57373,-0.015 0.66153,0.12704 0.15419,0.24949 1.0769,0.69923 1.50508,0.7336 0.11494,0.009 0.71025,-0.24325 1.32292,-0.56105 z m 9.97748,-2.71386 c 0,-0.0642 -0.11907,-0.19026 -0.26459,-0.2802 -0.14552,-0.0899 -0.26458,-0.0374 -0.26458,0.11668 0,0.15411 0.11906,0.2802 0.26458,0.2802 0.14552,0 0.26459,-0.0525 0.26459,-0.11668 z m 5.19808,-2.18177 c -0.26605,-0.26605 -1.22933,-0.29628 -1.22933,-0.0386 0,0.12121 0.3175,0.22037 0.70555,0.22037 0.38806,0 0.62376,-0.0818 0.52378,-0.18178 z m 6.88826,-1.50555 c -0.0584,-0.16338 -0.3609,-0.26868 -0.67228,-0.23402 -0.31138,0.0347 -0.56615,-0.0355 -0.56615,-0.15597 0,-0.12044 -0.32086,-0.36518 -0.71302,-0.54387 -0.63536,-0.28949 -0.76225,-0.25961 -1.16495,0.27427 l -0.45193,0.59913 -1.07834,-0.7136 c -1.0573,-0.69969 -2.67717,-0.97138 -2.67717,-0.44903 0,0.14552 0.13945,0.26459 0.30989,0.26459 0.17044,0 0.53438,0.20315 0.80874,0.45144 0.32759,0.29647 1.33385,0.54919 2.93125,0.73617 2.60167,0.30453 3.44358,0.24562 3.27396,-0.22911 z m 2.201161,-1.50291 c 0,-0.11996 -0.119071,-0.2917 -0.264591,-0.38163 -0.14552,-0.0899 -0.26458,-0.4092 -0.26458,-0.70948 0,-0.45528 -0.0659,-0.49125 -0.39687,-0.21657 -0.27421,0.22757 -0.39688,0.23759 -0.39688,0.0324 0,-0.16334 -0.20836,-0.29516 -0.46302,-0.29293 -0.34055,0.003 -0.37317,0.0611 -0.12333,0.21959 0.19224,0.12199 0.26397,0.41285 0.16525,0.67012 -0.10993,0.28647 0.001,0.58311 0.30088,0.80214 0.48427,0.35411 1.443141,0.27196 1.443141,-0.12364 z m -5.142561,-1.4539 c -0.71835,-0.35614 -1.41473,-0.64753 -1.54751,-0.64753 -0.13278,0 -0.65062,-0.19418 -1.15076,-0.43151 -0.50014,-0.23733 -0.98373,-0.35712 -1.07465,-0.2662 -0.30544,0.30544 0.78836,1.22666 1.482,1.24817 0.37763,0.0117 1.22238,0.17476 1.87723,0.36232 1.7723,0.50763 1.85966,0.45162 0.41369,-0.26525 z m -3.32411,-2.89649 c 0,-0.21828 -0.17859,-0.39687 -0.39688,-0.39687 -0.41316,0 -0.52492,0.31292 -0.22048,0.61736 0.30444,0.30444 0.61736,0.19268 0.61736,-0.22049 z m -1.19759,-0.12102 c 0.47228,-0.76416 -3.45155,-1.2888 -4.18128,-0.55906 -0.38455,0.38455 0.53355,0.68132 0.97481,0.31511 0.19344,-0.16054 0.42873,-0.21487 0.52288,-0.12072 0.13858,0.13858 1.11106,0.38233 2.34421,0.58756 0.10055,0.0167 0.25327,-0.0836 0.33938,-0.22289 z m 32.616861,-0.71795 c 1.33174,-0.13174 1.65365,-0.25314 1.65365,-0.62365 0,-0.594 -1.09631,-0.81264 -1.73458,-0.34593 -0.70235,0.51357 -1.49872,0.4546 -1.39133,-0.10303 0.14604,-0.75836 1.26837,-1.16915 2.81141,-1.02903 1.87184,0.16997 1.7139,-0.37905 -0.23625,-0.82125 -2.30495,-0.52266 -4.12143,0.1349 -3.89857,1.41125 0.13632,0.78073 -0.71097,0.73276 -1.0725,-0.0607 -0.29583,-0.64926 -0.2518,-0.78718 0.49833,-1.56112 l 0.82283,-0.84894 -0.83053,-0.83053 c -0.92832,-0.92832 -1.6171,-1.17426 -2.93585,-1.04829 -0.69157,0.0661 -0.8965,0.20661 -0.8965,0.61481 0,0.40282 0.31585,0.62906 1.32291,0.94756 0.85126,0.26923 1.35574,0.58787 1.41498,0.89373 0.0788,0.40661 -0.036,0.45062 -0.79375,0.30442 -2.56028,-0.49399 -3.26385,-0.48818 -3.90655,0.0323 -0.59714,0.48353 -0.61233,0.56348 -0.2618,1.37738 0.36937,0.85766 0.38328,0.86308 1.87854,0.73133 1.38887,-0.12238 1.51274,-0.0883 1.5875,0.43613 0.07,0.49104 0.29825,0.58794 1.66858,0.70828 0.87313,0.0767 1.82563,0.10331 2.11667,0.0592 0.29104,-0.0441 1.27331,-0.15385 2.18281,-0.24382 z m -41.473441,-2.46832 c 0.30037,-0.19411 0.18398,-0.25746 -0.47863,-0.26053 -0.51714,-0.002 -0.80858,0.10425 -0.71199,0.26053 0.20542,0.33239 0.67629,0.33239 1.19062,0 z m 1.85209,-0.52916 c 0,-0.14552 -0.23813,-0.26459 -0.52917,-0.26459 -0.29104,0 -0.52917,0.11907 -0.52917,0.26459 0,0.14552 0.23813,0.26458 0.52917,0.26458 0.29104,0 0.52917,-0.11906 0.52917,-0.26458 z m 1.05833,-0.52917 c 0,-0.14552 -0.11204,-0.26458 -0.24897,-0.26458 -0.13693,0 -0.32255,0.11906 -0.41249,0.26458 -0.0899,0.14552 0.0221,0.26458 0.24897,0.26458 0.22687,0 0.41249,-0.11906 0.41249,-0.26458 z m 39.885941,-0.69212 c 0.32742,-0.0614 0.59531,-0.21686 0.59531,-0.34537 0,-0.64299 -3.16271,-0.97241 -3.37223,-0.35124 -0.19439,0.57631 1.35148,0.9641 2.77692,0.69661 z m 9.5281,-0.97851 c -1.09773,-0.89888 -2.99495,-1.39182 -3.76686,-0.97871 -0.33965,0.18178 -0.72389,0.26479 -0.85385,0.18446 -0.12997,-0.0803 -0.40921,-0.0367 -0.62055,0.097 -0.27851,0.17619 -0.12942,0.25013 0.5418,0.26871 0.50933,0.0141 1.75948,0.24038 2.77813,0.50283 2.50676,0.64587 2.78758,0.63501 1.92133,-0.0743 z M 127.26467,110.15 c 0,-0.0652 -0.65257,-0.41738 -1.45015,-0.78253 -0.79758,-0.36514 -1.51898,-0.77527 -1.60311,-0.9114 -0.0841,-0.13613 -0.39545,-0.2475 -0.69182,-0.2475 -0.29637,0 -0.86833,-0.23461 -1.27102,-0.52135 -0.99318,-0.70721 -1.17139,-0.41518 -0.28659,0.46962 0.39505,0.39505 0.7696,0.87226 0.83234,1.06046 0.0627,0.1882 0.58821,0.46265 1.16772,0.60989 0.57952,0.14725 1.41086,0.35882 1.84742,0.47016 0.7462,0.19031 1.45521,0.11852 1.45521,-0.14735 z m 2.36039,-1.51942 c 0.24847,-0.29939 0.14342,-0.45411 -0.53972,-0.7949 -1.04325,-0.52045 -1.23283,-0.37766 -0.65979,0.49692 0.49974,0.7627 0.76014,0.82739 1.19951,0.29798 z m -3.85878,-1.68607 c -0.18514,-0.28518 -0.57778,-0.43387 -1.04914,-0.39731 -0.55549,0.0431 -1.01175,-0.19398 -1.73774,-0.90289 -0.54147,-0.52873 -0.92285,-1.06103 -0.84753,-1.18291 0.0753,-0.12187 -0.0784,-0.22537 -0.34169,-0.23 -0.26325,-0.005 -0.70975,-0.18322 -0.99223,-0.39687 -0.58748,-0.44436 -1.45799,-0.51638 -1.49724,-0.12388 -0.16175,1.61757 -0.16027,1.61946 1.75948,2.24024 1.01137,0.32705 2.43417,0.90274 3.16177,1.27932 1.39827,0.7237 2.11371,0.59134 1.54432,-0.2857 z m 6.52547,0.61501 c 0,-0.0659 -0.44648,-0.32402 -0.99218,-0.57352 -0.54571,-0.24951 -1.1735,-0.60626 -1.39511,-0.79278 -0.25348,-0.21335 -0.54289,-0.25262 -0.78032,-0.10588 -0.28052,0.17337 -0.007,0.4021 1.06437,0.89098 1.39216,0.63508 2.10324,0.83158 2.10324,0.5812 z m -12.03854,-0.67387 c -0.0899,-0.14552 -0.30532,-0.26276 -0.47863,-0.26053 -0.18934,0.002 -0.15671,0.10642 0.0818,0.26053 0.50829,0.32849 0.59989,0.32849 0.39687,0 z m 12.03854,-0.52917 c 0,-0.14552 -0.11906,-0.26458 -0.26458,-0.26458 -0.14552,0 -0.26458,0.11906 -0.26458,0.26458 0,0.14552 0.11906,0.26459 0.26458,0.26459 0.14552,0 0.26458,-0.11907 0.26458,-0.26459 z m -4.03489,-1.16777 c 0.32742,-0.0126 0.59531,-0.0941 0.59531,-0.18115 0,-0.24927 -2.16365,-1.03452 -2.41775,-0.87747 -0.62806,0.38816 0.14108,1.56864 0.8228,1.26284 0.22238,-0.0998 0.67222,-0.19165 0.99964,-0.20422 z m 1.38906,-0.68431 c 0,-0.14552 -0.11906,-0.26458 -0.26458,-0.26458 -0.14552,0 -0.26459,0.11906 -0.26459,0.26458 0,0.14552 0.11907,0.26458 0.26459,0.26458 0.14552,0 0.26458,-0.11906 0.26458,-0.26458 z m -7.44456,-2.35049 c -0.4894,-0.44495 -1.03491,-0.81249 -1.21224,-0.81675 -0.41992,-0.0101 -0.14536,0.70216 0.34288,0.88952 0.20703,0.0794 0.37642,0.31805 0.37642,0.53022 0,0.21218 0.20836,0.43348 0.46302,0.49178 0.89642,0.20523 0.91008,-0.29456 0.0299,-1.09477 z m 4.26956,1.02757 c 0,-0.14552 -0.11906,-0.26458 -0.26458,-0.26458 -0.14552,0 -0.26459,0.11906 -0.26459,0.26458 0,0.14552 0.11907,0.26459 0.26459,0.26459 0.14552,0 0.26458,-0.11907 0.26458,-0.26459 z M 87.438309,134.3917 c -0.28868,-0.4671 2.44581,-2.35998 3.95729,-2.73934 0.50444,-0.12661 0.68058,-0.30516 0.57428,-0.58216 -0.0843,-0.21974 -0.0484,-0.33469 0.0798,-0.25544 0.29766,0.18397 3.1564,-0.72596 4.95718,-1.57787 0.76198,-0.36047 1.68342,-0.65541 2.04765,-0.65541 0.36422,0 0.72747,-0.10556 0.80721,-0.23459 0.0797,-0.12902 0.592781,-0.31841 1.140091,-0.42086 0.97146,-0.18185 2.97951,-0.9625 3.77324,-1.46687 0.99985,-0.63536 1.86315,-1.05781 2.30102,-1.12599 0.2624,-0.0409 0.60962,-0.15709 0.77158,-0.25828 0.31555,-0.19716 2.41611,-0.40629 5.72479,-0.56996 1.95198,-0.0966 2.05052,-0.0741 2.05054,0.46621 2e-5,0.50278 -0.12847,0.55936 -1.12448,0.49525 -1.32362,-0.0852 -1.47174,-0.0841 -3.37345,0.0246 -0.80037,0.0458 -1.69334,0.21112 -1.98438,0.36746 -0.29104,0.15633 -1.21024,0.48074 -2.04266,0.72091 -0.83243,0.24018 -1.66587,0.58083 -1.85209,0.75701 -0.6987,0.66101 -5.535251,2.83258 -6.308771,2.83258 -0.75281,0 -3.73721,1.18089 -5.00161,1.97907 -0.52166,0.32931 -1.36204,0.68733 -1.86751,0.7956 -0.89176,0.19101 -1.32414,0.37193 -3.07651,1.2873 -0.96922,0.50628 -1.31742,0.54232 -1.55325,0.16075 z m 28.540081,-9.38209 c 0.0483,-0.14552 0.339,-0.26816 0.64591,-0.27253 0.3069,-0.004 0.63953,-0.0895 0.73918,-0.18913 0.25971,-0.25971 1.21571,0.30585 1.02864,0.60853 -0.20698,0.3349 -2.52689,0.19374 -2.41373,-0.14687 z m -2.47205,-1.83647 c 0,-0.22687 0.11906,-0.41249 0.26458,-0.41249 0.14552,0 0.26458,0.11204 0.26458,0.24897 0,0.13693 -0.11906,0.32255 -0.26458,0.41249 -0.14552,0.0899 -0.26458,-0.0221 -0.26458,-0.24897 z m 2.5713,-1.81259 c -0.19647,-0.51198 1.7958,-2.0519 3.20227,-2.47519 0.67924,-0.20442 1.57795,-0.29634 1.99714,-0.20427 0.49619,0.10898 0.70293,0.0716 0.59245,-0.1072 -0.0933,-0.15102 -0.0477,-0.35 0.10143,-0.44216 0.14912,-0.0922 0.38164,0.10796 0.51671,0.44473 0.13506,0.33678 0.25312,0.45646 0.26234,0.26597 0.009,-0.19049 0.14915,-0.26453 0.31094,-0.16454 0.16179,0.1 0.38911,0.0282 0.50515,-0.15959 0.16655,-0.26948 0.30363,-0.24875 0.65078,0.0984 0.40999,0.40999 0.37129,0.44191 -0.5713,0.47112 -0.5561,0.0172 -1.11292,0.013 -1.23738,-0.009 -0.12445,-0.0223 -0.36258,0.061 -0.52916,0.18527 -0.16659,0.12423 -0.60244,0.24383 -0.96857,0.26578 -0.68689,0.0412 -3.5716,1.48644 -3.84283,1.92531 -0.2231,0.36098 -0.83773,0.30241 -0.98997,-0.0943 z m -2.70359,-1.51032 c 0.0899,-0.14552 0.21602,-0.26458 0.28019,-0.26458 0.0642,0 0.11668,0.11906 0.11668,0.26458 0,0.14552 -0.12609,0.26459 -0.2802,0.26459 -0.15411,0 -0.20661,-0.11907 -0.11667,-0.26459 z m -0.33548,-1.05833 c -0.27563,-0.44135 -0.26423,-0.52917 0.0686,-0.52917 0.22273,0 0.39912,0.23387 0.39912,0.52917 0,0.29104 -0.0309,0.52917 -0.0686,0.52917 -0.0378,0 -0.21736,-0.23813 -0.39912,-0.52917 z m -12.70996,-3.49397 c -0.594711,-0.59471 -0.375961,-1.97643 0.41158,-2.59978 0.63846,-0.50534 0.93245,-0.55518 2.39966,-0.40682 0.91963,0.093 1.87213,0.27529 2.11667,0.40509 0.24453,0.12981 0.66287,0.3043 0.92963,0.38776 0.6257,0.19576 0.40971,0.83645 -0.24891,0.73835 -0.27538,-0.041 -1.2977,-0.20996 -2.27181,-0.37543 -1.9617,-0.33322 -2.59101,-0.10426 -2.59856,0.94543 -0.006,0.86594 -0.35275,1.2909 -0.73826,0.9054 z m 41.75273,-5.33117 c -0.50933,-0.16664 -1.05231,-0.38537 -1.20664,-0.48606 -0.15433,-0.10068 -0.89847,-0.21126 -1.65365,-0.24572 -0.97788,-0.0446 -1.37305,-0.17039 -1.37305,-0.43701 0,-0.2059 0.24147,-0.4375 0.53659,-0.51468 0.36878,-0.0964 0.49012,-0.28673 0.388,-0.60848 -0.10349,-0.32607 0.18197,-0.75109 0.94059,-1.40044 l 1.08917,-0.93229 -0.55113,-0.55113 c -0.30312,-0.30312 -0.56487,-0.75949 -0.58165,-1.01415 -0.099,-1.50139 -0.44822,-2.1297 -1.28611,-2.31373 -0.41991,-0.0922 -0.90534,-0.33863 -1.07874,-0.54755 -0.17339,-0.20893 -0.48301,-0.37987 -0.68804,-0.37987 -0.20503,0 -0.44132,-0.17859 -0.52508,-0.39688 -0.0838,-0.21828 -0.26565,-0.39687 -0.40419,-0.39687 -0.13853,0 -0.18143,0.11399 -0.0953,0.25331 0.0861,0.13933 -0.2028,0.43915 -0.64201,0.66628 -0.43921,0.22712 -0.87273,0.70844 -0.96337,1.0696 -0.0907,0.36115 -0.33753,0.65664 -0.54862,0.65664 -0.21423,0 -0.30348,-0.12997 -0.202,-0.29416 0.24098,-0.38992 -0.37157,-0.75509 -1.27506,-0.76012 -1.44299,-0.008 -0.6517,-1.09432 0.85312,-1.17116 0.83517,-0.0426 1.2439,-0.22046 1.60397,-0.69782 0.61092,-0.80992 2.02367,-0.82459 3.65189,-0.0379 1.1828,0.57147 2.13787,0.53032 1.63914,-0.0706 -0.14798,-0.1783 -0.19337,-0.39985 -0.10088,-0.49234 0.30519,-0.30519 -1.08557,-2.04251 -1.76026,-2.1989 -0.3638,-0.0843 -0.92584,-0.4658 -1.24897,-0.84772 -0.46478,-0.54935 -0.65547,-0.62646 -0.91281,-0.36912 -0.46549,0.46549 -0.62516,0.40988 -0.96507,-0.33616 -0.22728,-0.49881 -0.50338,-0.66146 -1.12286,-0.66146 -1.04083,0 -0.92516,0.52181 0.23052,1.03994 0.90513,0.40579 1.14338,1.07778 0.38117,1.0751 -0.25466,-9e-4 -0.80405,-0.17949 -1.22087,-0.39688 -0.41681,-0.21738 -0.90825,-0.39524 -1.09208,-0.39524 -0.18383,0 -0.48245,-0.17859 -0.66361,-0.39688 -0.42202,-0.50849 -1.17571,-0.50552 -1.95903,0.008 -0.50204,0.32895 -0.60539,0.60492 -0.55278,1.47614 0.0722,1.19631 -0.5021,1.70519 -1.06135,0.94037 -0.48477,-0.66297 -0.86256,-0.53163 -1.06028,0.36862 -0.21865,0.9955 -1.0164,0.97337 -1.13383,-0.0315 -0.10329,-0.88376 0.7864,-1.99012 1.75638,-2.18411 0.50392,-0.10079 0.95292,-0.46735 1.3065,-1.06662 0.61324,-1.03938 1.91642,-1.51004 2.6031,-0.94014 0.33007,0.27393 0.44696,0.27117 0.62364,-0.0147 0.13301,-0.2152 0.76733,-0.36271 1.63348,-0.37986 0.94548,-0.0187 1.58649,-0.18191 1.92896,-0.49106 0.5474,-0.49415 1.34824,-0.61186 1.58263,-0.23261 0.0783,0.12672 0.51676,0.30528 0.97431,0.39679 0.93967,0.18793 4.90547,2.11571 5.54726,2.69653 0.23121,0.20924 0.55984,0.38044 0.73028,0.38044 0.17044,0 0.3099,0.20948 0.3099,0.46552 0,0.25604 0.23812,0.61423 0.52916,0.79599 0.29105,0.18176 0.52917,0.50439 0.52917,0.71696 0,0.45022 1.00856,2.45745 1.33666,2.66023 0.27836,0.17203 0.23093,3.80904 -0.052,3.98387 -0.24138,0.14918 -2.92499,-1.15943 -3.17336,-1.54742 -0.0929,-0.14508 -0.28778,-0.19028 -0.43315,-0.10044 -0.14536,0.0898 -0.24796,-0.0437 -0.22801,-0.29683 0.0229,-0.29092 -0.10971,-0.41943 -0.36061,-0.34939 -0.21828,0.0609 -0.65684,0.10379 -0.97458,0.0952 -0.48953,-0.0132 -0.54356,0.0742 -0.35403,0.57276 0.12303,0.32357 0.1288,0.74184 0.0128,0.92948 -0.31121,0.50354 0.49839,1.30604 1.50882,1.4956 0.47913,0.0899 0.93317,0.26379 1.00898,0.38646 0.0758,0.12267 0.30058,0.16058 0.49949,0.0843 0.1989,-0.0763 0.44043,-0.0113 0.53674,0.14454 0.27142,0.43918 2.41517,1.34026 3.18859,1.34026 0.83166,0 1.78655,0.46702 1.59352,0.77936 -0.076,0.123 -1.12115,0.30813 -2.32252,0.41141 -1.70305,0.1464 -2.36986,0.32737 -3.02654,0.82142 -0.93492,0.70337 -0.90367,0.69946 -2.20046,0.27517 z m 1.32291,-1.36132 c 0.36381,-0.20797 0.98186,-0.38234 1.37345,-0.3875 0.3916,-0.005 0.78558,-0.12844 0.87551,-0.27396 0.093,-0.15038 -0.13237,-0.26458 -0.52205,-0.26458 -0.37706,0 -1.113,-0.17859 -1.63542,-0.39688 -1.32114,-0.552 -3.16015,-0.52644 -3.38019,0.047 -0.21977,0.57271 0.36496,1.15012 1.26149,1.24571 0.38783,0.0413 0.78433,0.15436 0.88111,0.25114 0.24192,0.24192 0.38456,0.21443 1.1461,-0.22091 z m -0.89296,-6.74687 c 0.64323,0 0.38928,-0.43212 -0.5518,-0.93892 -1.03692,-0.55842 -1.08547,-0.53983 -1.35079,0.5173 -0.18873,0.75195 -0.17473,0.76432 0.67302,0.59477 0.47617,-0.0952 1.02947,-0.17315 1.22957,-0.17315 z m 3.04121,-0.19844 c -0.13062,-0.25466 -0.45636,-0.90951 -0.72387,-1.45521 -0.26751,-0.5457 -0.56332,-0.99219 -0.65735,-0.99219 -0.094,0 -0.69199,-0.47625 -1.32878,-1.05833 -1.30841,-1.196 -1.94904,-1.33195 -2.1819,-0.46302 -0.27625,1.03083 -0.18915,1.23906 0.69313,1.65717 1.5082,0.71473 3.10505,1.75483 3.73662,2.43381 0.4469,0.48044 0.73252,0.4049 0.46215,-0.12223 z m -5.28884,-4.80179 c -0.29279,-0.18547 -0.26736,-0.2858 0.13229,-0.52187 0.47017,-0.27772 0.46189,-0.31841 -0.1667,-0.81878 -0.97461,-0.7758 -1.99332,-0.68507 -1.67325,0.14903 0.0783,0.20406 0.30822,0.37101 0.51094,0.37101 0.20271,0 0.36856,0.16867 0.36856,0.37483 0,0.36048 0.36935,0.62314 0.92605,0.65857 0.14552,0.009 0.10147,-0.0865 -0.0979,-0.21279 z m -2.94482,-2.55779 c 0,-0.0823 -0.12151,-0.37673 -0.27002,-0.65422 -0.25498,-0.47643 -0.29919,-0.47955 -0.79375,-0.0561 -0.72903,0.62422 -0.655,0.86 0.27002,0.86 0.43656,0 0.79375,-0.0674 0.79375,-0.14968 z m 0.79375,-0.64407 c 0,-0.14552 -0.12609,-0.26458 -0.2802,-0.26458 -0.15411,0 -0.20661,0.11906 -0.11668,0.26458 0.0899,0.14552 0.21603,0.26459 0.2802,0.26459 0.0642,0 0.11668,-0.11907 0.11668,-0.26459 z m 16.03517,13.34913 c -0.24714,-0.18072 -0.66419,-0.27239 -0.92678,-0.20372 -0.26258,0.0687 -0.644,-0.0394 -0.8476,-0.24022 -0.36997,-0.36487 -1.85666,-0.39744 -3.59068,-0.0787 -0.99169,0.18232 -1.35599,-0.21803 -0.74991,-0.82411 0.44505,-0.44505 1.89557,-0.56661 3.57355,-0.29948 0.50932,0.0811 1.66303,0.2341 2.5638,0.34004 1.85679,0.21837 2.30096,0.69984 1.16733,1.26537 -0.59448,0.29657 -0.82891,0.3046 -1.18971,0.0408 z m -18.26236,-1.26195 c -0.61854,-0.45229 -0.4518,-1.36289 0.24502,-1.33811 0.91244,0.0325 1.98217,0.59751 1.98217,1.04703 0,0.33552 -0.15702,0.39269 -0.70251,0.25578 -0.40254,-0.10103 -0.77637,-0.0568 -0.8755,0.10359 -0.11753,0.19017 -0.32566,0.16827 -0.64918,-0.0683 z"
       id="path24" />
  </g>
</svg>
