<?xml version="1.0" encoding="UTF-8" standalone="no"?>
<!-- Created with Inkscape (http://www.inkscape.org/) -->

<svg
   width="78.757492mm"
   height="35.418751mm"
   viewBox="0 0 78.757494 35.418752"
   version="1.1"
   id="svg1"
   inkscape:version="1.4.1-rc (06eac75fbf, 2025-03-29)"
   sodipodi:docname="bushes17.svg"
   xmlns:inkscape="http://www.inkscape.org/namespaces/inkscape"
   xmlns:sodipodi="http://sodipodi.sourceforge.net/DTD/sodipodi-0.dtd"
   xmlns="http://www.w3.org/2000/svg"
   xmlns:svg="http://www.w3.org/2000/svg">
  <sodipodi:namedview
     id="namedview1"
     pagecolor="#ffffff"
     bordercolor="#000000"
     borderopacity="0.25"
     inkscape:showpageshadow="2"
     inkscape:pageopacity="0.0"
     inkscape:pagecheckerboard="0"
     inkscape:deskcolor="#d1d1d1"
     inkscape:document-units="mm"
     inkscape:zoom="0.72248176"
     inkscape:cx="148.10062"
     inkscape:cy="67.129722"
     inkscape:window-width="1850"
     inkscape:window-height="1016"
     inkscape:window-x="0"
     inkscape:window-y="0"
     inkscape:window-maximized="1"
     inkscape:current-layer="layer1" />
  <defs
     id="defs1" />
  <g
     inkscape:label="Layer 1"
     inkscape:groupmode="layer"
     id="layer1"
     transform="translate(-65.616747,-101.33582)">
    <path
       style="fill:#000000"
       d="m 89.263214,136.60387 c -0.24446,-0.24446 -2.26031,-0.65384 -3.62647,-0.73648 -0.65484,-0.0396 -2.73843,-0.1538 -4.6302,-0.25376 -10.27429,-0.54289 -11.29309,-0.61062 -12.51856,-0.83227 -0.5136,-0.0929 -0.83272,-0.28934 -0.7703,-0.47416 0.1139,-0.3372 0.908,-0.34782 5.35136,-0.0716 1.45521,0.0905 4.84849,0.22789 7.54062,0.30539 4.63432,0.13342 6.13251,0.22306 6.28386,0.37599 0.10058,0.10164 0.36342,0.16648 1.58196,0.39025 0.61542,0.11301 1.3298,0.36699 1.5875,0.56439 0.40915,0.31341 0.41824,0.39259 0.0717,0.62448 -0.4657,0.31161 -0.64538,0.33383 -0.87145,0.10776 z m -17.0757,-3.17271 c -0.35254,-0.25791 -0.33265,-0.33433 0.15499,-0.59531 0.3077,-0.16468 0.74588,-0.29941 0.97373,-0.29941 0.61579,0 0.50505,-0.5639 -0.3405,-1.73382 -0.41512,-0.57437 -0.81627,-1.29529 -0.89145,-1.60204 -0.16049,-0.65491 0.24399,-1.50689 0.60846,-1.28163 0.13895,0.0859 0.1891,0.25894 0.11144,0.3846 -0.0777,0.12565 0.0692,0.57447 0.32641,0.99738 1.11986,1.84144 1.94813,2.97238 2.19072,2.99128 1.12505,0.0876 2.41457,0.0312 2.55772,-0.11194 0.0951,-0.0951 0.39978,-0.173 0.67696,-0.173 0.46275,0 0.46922,-0.0348 0.0791,-0.42491 -0.302,-0.302 -0.34566,-0.52039 -0.15094,-0.75501 0.16026,-0.1931 0.20403,-0.84032 0.10546,-1.55947 -0.15668,-1.14311 -0.12743,-1.22936 0.4169,-1.22936 0.51504,0 0.57528,-0.11925 0.50121,-0.99219 -0.079,-0.93135 -0.0418,-0.98725 0.60657,-0.91164 0.51291,0.0598 0.72734,-0.0594 0.83289,-0.46302 0.11225,-0.42924 0.35604,-0.54373 1.15911,-0.54433 1.06845,-8e-4 4.32424,1.23361 4.32424,1.6395 0,0.13005 0.29766,0.55745 0.66146,0.9498 0.54644,0.58931 0.66146,0.97836 0.66146,2.23741 0,2.30154 -0.54539,2.63207 -3.9026,2.36514 -0.61692,-0.0491 -0.8531,-0.82186 -0.26459,-0.86576 0.1819,-0.0136 0.82922,-0.0614 1.43849,-0.10634 0.60927,-0.0449 1.22915,-0.15669 1.37751,-0.24838 0.54191,-0.33492 -0.036,-0.89198 -1.24543,-1.20059 -0.68191,-0.174 -1.50348,-0.42097 -1.8257,-0.54884 -0.73947,-0.29342 -1.13178,0.22424 -0.51289,0.67678 0.8189,0.59879 0.52187,1.0039 -0.62344,0.85028 -0.86317,-0.11578 -1.1305,-0.0427 -1.43525,0.39241 -0.45618,0.65129 -0.2777,1.24763 0.33026,1.10347 0.76583,-0.18159 2.81947,0.57952 2.91824,1.08155 0.0785,0.39908 -0.0673,0.44455 -1.05833,0.33013 -1.37757,-0.15905 -1.83442,-0.26839 -2.27724,-0.545 -0.18524,-0.1157 -0.68626,-0.033 -1.12448,0.1856 -0.55806,0.2784 -0.79157,0.30304 -0.79443,0.0839 -0.002,-0.18005 -0.11179,-0.14375 -0.26054,0.0864 -0.23073,0.35704 -0.37844,0.19195 -0.29591,-0.33073 0.05,-0.31681 -1.155,-0.22918 -1.49274,0.10855 -0.39837,0.39837 -3.98871,0.44493 -4.51683,0.0586 z m 9.85419,-5.26035 c 0.65639,-0.70826 1.52068,-0.83346 2.68847,-0.38947 0.39346,0.14959 0.77257,0.21479 0.84248,0.14489 0.38893,-0.38893 -2.00593,-1.73979 -3.08439,-1.73979 -0.61228,0 -1.61402,1.298 -1.61402,2.09136 0,0.73847 0.41955,0.70002 1.16746,-0.10699 z m -7.25287,2.23335 c 0,-0.15411 0.11906,-0.20662 0.26458,-0.11668 0.14552,0.0899 0.26459,0.21603 0.26459,0.2802 0,0.0642 -0.11907,0.11667 -0.26459,0.11667 -0.14552,0 -0.26458,-0.12608 -0.26458,-0.28019 z m 21.34305,0.10381 c -0.097,-0.097 -0.17639,-0.34371 -0.17639,-0.54821 0,-0.29462 0.29105,-0.33545 1.40175,-0.19668 1.31344,0.1641 1.45687,0.12363 2.27694,-0.64242 1.042716,-0.97405 1.146526,-0.99723 1.036066,-0.23133 -0.13148,0.91166 -1.668016,1.79502 -3.122286,1.79502 -0.68183,0 -1.31906,-0.0794 -1.41608,-0.17638 z m -2.17634,-1.52451 c -0.47863,-0.35225 -0.48207,-0.3902 -0.0506,-0.55747 0.97522,-0.37806 0.30437,-1.91239 -0.76399,-1.74735 -0.48534,0.075 -1.6834,-0.45537 -1.6834,-0.7452 0,-0.49027 1.18678,-0.57063 2.19655,-0.14872 0.65729,0.27463 0.93341,0.52829 0.80603,0.74045 -0.15102,0.25157 -0.10532,0.25119 0.2073,-0.002 0.28093,-0.22727 0.48452,-0.24095 0.67977,-0.0457 0.19526,0.19526 0.48272,0.0748 0.95982,-0.40235 0.52104,-0.52104 0.88617,-0.65756 1.55383,-0.58099 0.62971,0.0722 0.85109,0.21934 0.79499,0.52835 -0.0877,0.48318 0.37563,0.59293 0.53133,0.12585 0.0702,-0.2105 0.3936,-0.16346 1.064266,0.15479 0.52991,0.25146 1.17908,0.41496 1.4426,0.36333 0.36189,-0.0709 0.11796,-0.36714 -0.99686,-1.21067 -1.532926,-1.15988 -2.954396,-1.65907 -3.270026,-1.14837 -0.28392,0.45939 -0.67794,0.33993 -0.67794,-0.20553 0,-0.78963 0.67287,-1.1723 1.7169,-0.97644 0.51091,0.0959 0.92894,0.10766 0.92894,0.0263 0,-0.0814 -0.37766,-0.48545 -0.83925,-0.89788 -0.72925,-0.65158 -0.93453,-0.7139 -1.56629,-0.47543 -0.95734,0.36135 -1.66713,-0.16928 -1.43951,-1.07619 0.19637,-0.78237 -0.69744,-2.11842 -1.66273,-2.48542 -0.59075,-0.2246 -0.78507,-0.15059 -1.43752,0.54754 -0.41494,0.44398 -0.9795,0.80724 -1.25458,0.80724 -0.59275,0 -1.03406,-0.58209 -0.5609,-0.73981 0.18082,-0.0603 0.78787,-0.57331 1.34902,-1.14009 0.56114,-0.56678 1.15132,-1.03051 1.3115,-1.03051 0.16019,0 0.82055,0.48789 1.46748,1.08421 l 1.17623,1.08421 0.72463,-0.57 c 0.47819,-0.37614 0.93218,-0.51791 1.33486,-0.41684 0.54868,0.13771 2.720866,-0.80828 2.713166,-1.18158 -0.005,-0.26183 -1.997326,-1.78071 -2.576266,-1.96446 -0.48255,-0.15315 -0.59193,-0.0868 -0.59193,0.35913 0,0.30085 0.24247,0.78946 0.53882,1.08581 0.61119,0.61119 0.47993,1.04868 -0.31462,1.04868 -0.3158,0 -0.59552,-0.21873 -0.6767,-0.52916 -0.0761,-0.29104 -0.24356,-0.52917 -0.3721,-0.52917 -0.12855,0 -0.23373,-0.1357 -0.23373,-0.30156 0,-0.39634 -0.81165,-1.00229 -1.35679,-1.01294 -0.23691,-0.005 -0.6097,0.25947 -0.82842,0.5869 -0.38087,0.57016 -0.41944,0.57575 -0.913,0.13229 -0.28343,-0.25466 -0.70729,-0.46302 -0.9419,-0.46302 -0.23462,0 -0.49407,-0.10921 -0.57656,-0.24268 -0.0902,-0.14592 -0.53107,-0.13746 -1.10567,0.0212 -0.58359,0.16114 -1.05072,0.16885 -1.19976,0.0198 -0.42892,-0.42892 0.5464,-0.94605 1.71033,-0.90685 5.5771,0.18784 5.56558,0.18836 6.16174,-0.28053 0.73439,-0.5776 1.12485,-0.5829 1.7428,-0.0237 0.60477,0.54731 0.862566,0.32245 0.64126,-0.55932 -0.11112,-0.44274 -0.35168,-0.67378 -0.70154,-0.67378 -0.29284,0 -0.60096,-0.17859 -0.68473,-0.39687 -0.0838,-0.21828 -0.39042,-0.39688 -0.68146,-0.39688 -0.34793,0 -0.47988,0.12843 -0.38527,0.37498 0.0791,0.20624 -0.0369,0.44437 -0.25792,0.52917 -0.60378,0.23169 -0.62311,0.21317 -0.62311,-0.59709 0,-0.53811 0.18179,-0.83411 0.64065,-1.04318 0.79944,-0.36425 0.66487,-1.09827 -0.33716,-1.83911 -1.09419,-0.80897 -1.83023,-0.96291 -2.31001,-0.48313 -0.22956,0.22957 -0.52685,0.34974 -0.66064,0.26706 -0.13379,-0.0827 -0.24326,-0.0219 -0.24326,0.13503 0,0.27501 -1.05614,0.20655 -1.55326,-0.10069 -0.13149,-0.0813 -0.22275,0.0548 -0.2028,0.30228 0.0578,0.71684 -0.84548,0.73875 -1.0249,0.0249 -0.21311,-0.84792 -1.32289,-1.35158 -2.05009,-0.93041 -1.22147,0.70744 -1.38665,1.0551 -1.38665,2.91858 0,1.48368 0.0919,1.8732 0.51494,2.18309 0.62794,0.45997 0.32447,0.82986 -0.77953,0.95017 -0.7264,0.0792 -0.80058,0.18055 -0.87432,1.19486 -0.0614,0.84507 0.0855,1.35931 0.61855,2.16479 0.54129,0.81795 0.63834,1.16504 0.42991,1.53748 -0.14806,0.26458 -0.33711,0.45128 -0.42011,0.4149 -0.55935,-0.24518 -0.3807,0.0816 0.57958,1.06002 0.60789,0.61938 1.14214,1.36353 1.18722,1.65364 0.0451,0.29012 0.16822,0.66557 0.27362,0.83434 0.26079,0.41756 -0.0494,1.14835 -0.48746,1.14835 -0.1959,0 -0.58259,-0.50601 -0.85932,-1.12448 -0.27672,-0.61846 -0.75854,-1.35129 -1.07071,-1.6285 -0.79822,-0.70884 -0.71137,-0.12017 0.0939,0.63632 0.49712,0.46702 0.66145,0.89113 0.66145,1.70704 0,0.5971 0.19238,1.36028 0.4275,1.69597 0.29818,0.42571 0.34358,0.69425 0.15008,0.88775 -0.4002,0.40019 -1.07554,0.0591 -1.35898,-0.68641 -0.13436,-0.35339 -0.37264,-0.72186 -0.52951,-0.81881 -0.15687,-0.0969 -0.21672,-0.28711 -0.13299,-0.42257 0.0837,-0.13547 0.0361,-0.24631 -0.10593,-0.24631 -0.14198,0 -0.30487,0.14015 -0.36196,0.31143 -0.15987,0.4796 -0.73404,-0.009 -0.73404,-0.6247 0,-0.47416 0.11399,-0.52475 0.8599,-0.38163 0.47294,0.0907 0.73215,0.0759 0.57601,-0.0331 -0.15613,-0.10894 -0.36076,-0.40643 -0.45472,-0.66109 -0.094,-0.25466 -0.28989,-0.46302 -0.43541,-0.46302 -0.14553,0 -0.19605,0.17859 -0.11229,0.39688 0.22244,0.57968 -0.30166,0.48673 -1.49182,-0.26459 -0.5763,-0.3638 -1.28128,-0.66146 -1.56663,-0.66146 -0.28534,0 -0.59239,-0.11906 -0.68233,-0.26458 -0.32476,-0.52547 -0.92604,-0.26777 -0.92604,0.39688 0,0.7946 -0.65256,0.89048 -1.04683,0.15379 -0.14943,-0.27921 -0.65276,-0.59135 -1.11851,-0.69365 -0.68178,-0.14975 -0.9354,-0.0766 -1.30138,0.37537 -0.60746,0.75018 -1.35999,0.74571 -1.24804,-0.007 0.22097,-1.48648 2.39098,-1.94458 6.05988,-1.27929 1.50524,0.27296 2.62823,0.17853 2.61982,-0.22029 -0.005,-0.24841 -2.58868,-1.70839 -3.59684,-2.03269 -0.45239,-0.14552 -1.02081,-0.43038 -1.26317,-0.63302 -0.24235,-0.20263 -0.51146,-0.2976 -0.59803,-0.21103 -0.25995,0.25995 -0.88815,-0.53325 -0.88815,-1.12143 0,-0.54757 0.71419,-1.44759 1.30498,-1.64452 0.88631,-0.29543 -1.34936,-2.07854 -2.60608,-2.07854 -0.57933,0 -0.64897,0.10472 -0.93511,1.40624 -0.12753,0.58006 -0.29274,0.72635 -0.747,0.66145 -0.32079,-0.0458 -0.62442,-0.29922 -0.67474,-0.56309 -0.10269,-0.53864 0.94212,-2.21179 1.52107,-2.43582 0.71079,-0.27506 2.65153,0.1956 3.38623,0.82121 0.40426,0.34424 0.92435,0.77771 1.15575,0.96326 0.2314,0.18556 0.77756,0.6685 1.21369,1.0732 0.50713,0.47059 0.95155,0.67498 1.23292,0.56701 1.14166,-0.4381 -0.23415,-2.22888 -1.71239,-2.22888 -0.57278,0 -0.75807,-0.12494 -0.75807,-0.51115 0,-0.28113 -0.32742,-0.73655 -0.72761,-1.01204 -1.00732,-0.69345 -4.25338,-1.7021 -4.85908,-1.50986 -0.3788,0.12023 -0.49873,0.0268 -0.49873,-0.3887 0,-0.45708 -0.16545,-0.547 -1.00643,-0.547 -0.78811,0 -1.18722,0.18653 -1.83985,0.8599 -0.68925,0.71114 -0.84872,1.10839 -0.92187,2.29641 -0.091,1.47873 -0.5127,2.00326 -0.93189,1.15925 -0.36741,-0.73975 -0.0741,-2.88041 0.47557,-3.47036 0.26864,-0.28836 0.4332,-0.57953 0.36569,-0.64704 -0.21235,-0.21234 0.50545,-0.63701 1.81159,-1.07178 0.96536,-0.32133 1.44628,-0.35454 2.05605,-0.14198 0.58764,0.20485 0.89762,0.19309 1.18446,-0.045 0.30615,-0.25408 0.63788,-0.2488 1.56498,0.0249 0.64707,0.19106 1.1062,0.4611 1.02029,0.60009 -0.0859,0.139 -0.0194,0.1682 0.14772,0.0649 0.35589,-0.21994 2.15911,1.07597 2.15911,1.55167 0,0.3877 0.90966,1.26071 1.1075,1.06287 0.0762,-0.0762 0.77501,0.15639 1.55296,0.51682 1.18996,0.55131 1.48614,0.83566 1.8661,1.79158 0.35336,0.88897 0.49192,1.03549 0.63669,0.67323 0.10176,-0.25466 0.41461,-0.46302 0.6952,-0.46302 0.40563,0 0.45893,-0.0957 0.26012,-0.46721 -0.22096,-0.41288 -0.18035,-2.40041 0.0716,-3.50154 0.3951,-1.72707 1.24967,-2.45341 2.88652,-2.45341 0.95573,0 1.08419,-0.0856 1.46431,-0.97567 0.85425,-2.00031 2.97677,-1.94411 5.77941,0.15302 0.46324,0.34663 1.02879,0.63023 1.25678,0.63023 0.22799,0 0.41452,0.0895 0.41452,0.19889 0,0.10939 0.53796,0.48427 1.19546,0.83308 0.740956,0.39308 1.254816,0.87071 1.351596,1.25631 0.0859,0.34218 0.25363,0.62213 0.37278,0.62213 0.11915,0 0.16935,0.3736 0.11156,0.83023 -0.0682,0.53849 0.0781,1.08743 0.41614,1.56219 0.28667,0.40259 0.52121,0.84315 0.52121,0.97903 0,0.13588 0.65363,0.95094 1.45251,1.81124 l 1.45251,1.56419 0.59801,-0.71273 c 0.90581,-1.07956 1.74273,-1.297 2.84697,-0.73966 0.50933,0.25706 1.43206,0.61856 2.05052,0.80333 0.61847,0.18477 1.12448,0.43319 1.12448,0.55203 0,0.11885 0.56555,0.4637 1.25677,0.76632 1.83268,0.80236 2.24241,1.01916 2.96976,1.57134 0.64495,0.48963 0.64724,0.50517 0.15473,1.04939 -0.48893,0.54025 -0.51012,0.54145 -0.9641,0.0541 -0.2553,-0.27403 -1.02697,-0.77068 -1.71481,-1.10366 -1.20886,-0.5852 -1.2626,-0.58906 -1.60878,-0.11563 -0.52457,0.71739 -0.44441,0.91736 0.36945,0.92173 0.40019,0.002 1.02526,0.17883 1.38907,0.39264 0.3638,0.21381 0.87468,0.46534 1.1353,0.55896 0.71086,0.25535 0.42703,0.69549 -0.88394,1.37074 -0.87013,0.44819 -1.54806,0.59059 -2.59766,0.54564 -1.17112,-0.0501 -1.53089,0.0457 -2.05092,0.54618 -0.64573,0.62149 -1.42362,0.5907 -1.42362,-0.0564 0,-0.19748 0.26789,-0.6107 0.59532,-0.91827 0.65979,-0.61979 2.36034,-0.79415 4.43177,-0.4544 0.96952,0.15902 1.13078,0.13162 0.86839,-0.14755 -0.48902,-0.52028 -2.10138,-1.00305 -2.50192,-0.74912 -1.03288,0.65484 -1.33811,-0.05 -0.43702,-1.00917 0.35517,-0.37806 0.44492,-0.61237 0.23455,-0.61237 -0.22447,0 -0.30279,-0.25848 -0.22955,-0.75753 0.0901,-0.61411 -0.0419,-0.85923 -0.69757,-1.29475 -1.10415,-0.73343 -3.27027,-1.037 -3.481,-0.48784 -0.0851,0.22182 -0.40129,0.48155 -0.70259,0.57718 -0.48909,0.15523 -0.50066,0.20027 -0.10785,0.4201 0.67666,0.37867 0.47989,2.60117 -0.23029,2.60117 -0.18919,0 -0.39787,0.14883 -0.46374,0.33073 -0.0958,0.26459 -0.2318,0.26459 -0.67992,0 -0.76982,-0.45453 -0.89614,-0.41595 -0.57892,0.17678 0.14939,0.27913 0.20063,0.86239 0.11389,1.29614 -0.11285,0.56425 -10e-4,1.00328 0.39179,1.54302 0.99592,1.36718 0.12121,3.42235 -1.79788,4.22419 -0.86983,0.36344 -1.00521,0.34161 -2.596936,-0.41871 -2.04839,-0.97846 -2.92882,-1.06744 -1.85395,-0.18738 0.71841,0.58821 0.96788,1.58675 0.47286,1.89269 -0.14011,0.0866 -0.70565,-0.12344 -1.25677,-0.46673 -1.5069,-0.93866 -1.92807,-1.04741 -1.92807,-0.49784 0,0.45363 -0.46868,1.10295 -0.7961,1.10295 -0.0886,0 -0.39221,-0.17009 -0.67469,-0.37798 z m 9.173956,-3.52463 c -0.13912,-0.25466 -0.70921,-0.90494 -1.26686,-1.44507 -0.77711,-0.7527 -1.10642,-0.91943 -1.41001,-0.71391 -0.34261,0.23194 -0.32841,0.31095 0.10516,0.58518 0.27568,0.17437 0.99006,0.6948 1.5875,1.15652 1.29676,1.00218 1.30584,1.00603 0.98421,0.41728 z m -0.16255,-3.77031 c 0.0899,-0.14552 0.0374,-0.26458 -0.11667,-0.26458 -0.15411,0 -0.2802,0.11906 -0.2802,0.26458 0,0.14552 0.0525,0.26458 0.11667,0.26458 0.0642,0 0.19027,-0.11906 0.2802,-0.26458 z m -2.24896,-1.08411 c 0,-0.12407 -0.3452,-0.15654 -0.767106,-0.0721 -0.64143,0.12828 -0.799,0.0513 -0.9617,-0.46964 -0.22308,-0.71426 -0.58643,-1.01009 -1.24775,-1.01588 -0.98291,-0.009 -0.43711,0.92455 0.9364,1.60097 1.29874,0.63959 2.040156,0.62386 2.040156,-0.0433 z m -17.197906,-2.58142 c 0,-0.43089 -1.26121,-1.5838 -2.28169,-2.08577 -1.51632,-0.74587 -2.38165,-0.36238 -2.04938,0.90823 0.10082,0.38553 0.32328,0.47839 0.97409,0.40659 0.48988,-0.054 1.28707,0.13098 1.90177,0.44138 1.183,0.59738 1.45521,0.65903 1.45521,0.32957 z m 0.79375,-1.21365 c 0,-0.0642 -0.11906,-0.19026 -0.26459,-0.28019 -0.14552,-0.0899 -0.26458,-0.0374 -0.26458,0.11667 0,0.15411 0.11906,0.2802 0.26458,0.2802 0.14553,0 0.26459,-0.0525 0.26459,-0.11668 z m 18.256246,-0.35957 c 0,-0.27491 -0.57327,-0.84667 -0.84891,-0.84667 -0.11765,0 -0.0652,0.23813 0.11656,0.52917 0.33384,0.53457 0.73235,0.70734 0.73235,0.3175 z m -2.989556,-6.25256 c 0.0238,-0.83842 -0.53089,-1.4806 -0.93219,-1.0793 -0.13183,0.13182 0.63595,1.98728 0.82232,1.98728 0.0463,0 0.0957,-0.40859 0.10987,-0.90798 z m -21.88128,-1.05435 c 0,-0.44404 -0.47773,-0.64504 -1.13064,-0.47568 -0.44919,0.11651 -0.44919,0.13687 0,0.47769 0.61589,0.4673 1.13064,0.46638 1.13064,-0.002 z m 15.47711,-1.61632 c 0.14608,-0.17965 0.62279,-0.4113 1.05935,-0.51477 l 0.79375,-0.18814 -1.14947,-0.39115 c -1.04974,-0.35722 -1.19321,-0.35157 -1.65365,0.0651 -0.27729,0.25095 -0.50417,0.74349 -0.50417,1.09455 0,0.54119 0.0904,0.60959 0.5943,0.44966 0.32686,-0.10375 0.71381,-0.33561 0.85989,-0.51527 z m -4.89377,21.05836 c 0,-0.46052 0.79212,-0.8357 2.08865,-0.98926 1.25372,-0.14848 1.35093,-0.11926 1.35093,0.40603 0,0.31131 -0.14883,0.57075 -0.33073,0.57652 -0.1819,0.006 -0.95581,0.0585 -1.71979,0.11711 -0.76398,0.0586 -1.38906,0.009 -1.38906,-0.1104 z m -17.19792,-2.06074 c -0.7425,-0.28002 -1.8522,-1.74873 -1.84047,-2.4359 0.006,-0.37397 0.17279,-1.13178 0.36979,-1.68403 0.33752,-0.94618 0.3202,-1.04921 -0.30034,-1.78668 -1.24269,-1.47685 -1.63033,-4.78412 -0.68655,-5.8574 0.93446,-1.06268 3.79035,-0.17399 3.39939,1.05782 -0.25766,0.81183 -0.82843,0.72018 -1.38524,-0.22242 -0.92802,-1.571 -1.83771,-0.25079 -1.5196,2.20534 0.12465,0.96238 0.41799,1.56438 1.20588,2.47472 0.8018,0.9264 0.97366,1.28432 0.74752,1.5568 -0.16151,0.1946 -0.45755,0.29093 -0.65787,0.21406 -0.27179,-0.1043 -0.33332,0.0507 -0.24248,0.61104 0.39764,2.45251 0.93103,3.00098 2.78428,2.863 1.3686,-0.10189 1.81522,0.17825 1.29107,0.80981 -0.31858,0.38387 -2.33419,0.5073 -3.16538,0.19384 z m 18.69722,-5.54119 c -0.30444,-0.30444 -0.19268,-0.61737 0.22049,-0.61737 0.21828,0 0.39687,0.1786 0.39687,0.39688 0,0.41317 -0.31292,0.52492 -0.61736,0.22049 z m -24.12119,-0.88195 c -0.0899,-0.14552 -0.0374,-0.26458 0.11668,-0.26458 0.15411,0 0.2802,0.11906 0.2802,0.26458 0,0.14552 -0.0525,0.26458 -0.11668,0.26458 -0.0642,0 -0.19026,-0.11906 -0.2802,-0.26458 z m 50.932296,-2.04478 c -0.3638,-0.24017 -0.92329,-0.66732 -1.2433,-0.94921 -0.32002,-0.2819 -0.74949,-0.44821 -0.95437,-0.36959 -0.20488,0.0786 -0.71696,-0.09 -1.13794,-0.37472 -0.42099,-0.28471 -1.15117,-0.68458 -1.62263,-0.8886 -0.52098,-0.22544 -0.80432,-0.50875 -0.72238,-0.7223 0.18231,-0.47507 -1.21145,-1.26538 -2.23155,-1.26538 -0.92534,0 -1.07235,-0.375 -0.30749,-0.78434 0.28137,-0.15059 0.54926,-0.60126 0.59531,-1.0015 0.0646,-0.56167 0.27993,-0.78547 0.94362,-0.98086 0.52601,-0.15485 0.8599,-0.42479 0.8599,-0.6952 0,-0.24313 0.17859,-0.59028 0.39688,-0.77144 0.51366,-0.4263 0.50222,-0.69671 -0.0383,-0.90411 -0.24591,-0.0944 -0.65219,0.0295 -0.93428,0.28474 -0.46174,0.41787 -0.5315,0.41934 -0.93119,0.0196 -0.3624,-0.36239 -0.37556,-0.50012 -0.0817,-0.85425 0.19272,-0.2322 0.50991,-0.36098 0.70488,-0.28616 0.19497,0.0748 0.35448,0.0446 0.35448,-0.0671 0,-0.11173 0.41672,-0.1545 0.92605,-0.095 1.05961,0.12371 1.19212,-0.21287 0.39687,-1.00811 -0.38875,-0.38875 -0.88194,-0.52917 -1.85863,-0.52917 -1.19244,0 -1.35676,0.0718 -1.59424,0.69641 -0.14562,0.38302 -0.19952,0.90199 -0.11977,1.15327 0.0804,0.25338 -0.0484,0.61734 -0.28913,0.81716 -0.37651,0.31248 -0.509,0.26926 -0.99816,-0.32556 -1.23643,-1.50351 -2.63093,-1.4625 -2.89856,0.0852 -0.43176,2.49695 -0.4798,3.3407 -0.20004,3.5136 0.16183,0.10002 0.22575,0.29269 0.14202,0.42815 -0.0837,0.13547 0.0334,0.2463 0.26027,0.2463 0.46147,0 0.51408,0.22377 0.1775,0.75492 -0.40768,0.64337 -1.25946,-0.10572 -1.5835,-1.39258 -0.37549,-1.49122 -0.38669,-3.77432 -0.0196,-4.00118 0.15321,-0.0947 0.23398,-0.30586 0.17951,-0.46929 -0.0545,-0.16343 0.24203,-0.58414 0.6589,-0.93492 0.62098,-0.52252 0.96464,-0.61448 1.90168,-0.50886 1.04027,0.11725 1.18419,0.0604 1.59105,-0.62834 0.46583,-0.78859 0.76596,-0.87095 2.79865,-0.76802 0.73597,0.0373 1.3992,0.2529 1.73684,0.56469 0.30042,0.27743 0.66892,0.50442 0.81889,0.50442 0.40397,0 1.14843,0.90382 1.14843,1.39428 0,0.62827 0.56051,0.86518 0.84485,0.35709 0.13531,-0.24177 0.34665,-0.37739 0.46966,-0.30136 0.123,0.076 0.16133,-0.10007 0.0852,-0.39131 -0.0863,-0.33019 -0.002,-0.54471 0.22311,-0.56984 0.19887,-0.0222 0.48065,-0.0551 0.62617,-0.0731 0.14552,-0.0181 0.42018,-0.13019 0.61035,-0.24919 0.19017,-0.11899 0.6194,-0.14767 0.95385,-0.0637 0.46734,0.11729 0.80722,-0.0662 1.46854,-0.79297 0.75363,-0.82819 0.96937,-0.92515 1.73771,-0.78101 0.7293,0.13682 0.90599,0.0741 1.0476,-0.37213 0.2061,-0.64935 1.36177,-0.98991 2.00213,-0.58999 0.38768,0.2421 0.56661,0.13824 1.08455,-0.62949 0.74629,-1.10624 1.56731,-1.36615 2.84303,-0.90003 0.52373,0.19136 1.41006,0.32235 1.96962,0.29108 1.42131,-0.0794 2.67442,0.39352 3.08741,1.1652 0.19264,0.35995 0.44145,0.65445 0.5529,0.65445 0.11146,0 0.53783,0.13885 0.94748,0.30856 0.40966,0.16971 0.80436,0.32882 0.87712,0.35358 1.19299,0.406 1.68626,1.18382 1.96472,3.0981 0.25908,1.78103 -0.0516,2.18236 -2.01954,2.60913 -0.91573,0.19859 -1.7245,0.34805 -1.79726,0.33214 -1.93003,-0.42203 -1.91057,-0.42344 -1.73621,0.12592 0.14501,0.45688 0.0101,0.56123 -0.96585,0.74718 -0.62392,0.11888 -1.40229,0.18513 -1.72971,0.14721 -0.32742,-0.0379 -0.59531,0.0546 -0.59531,0.20567 0,0.15103 -0.1786,0.2746 -0.39688,0.2746 -0.22253,0 -0.39687,-0.23611 -0.39687,-0.53747 0,-0.29561 -0.18373,-0.60798 -0.40829,-0.69415 -0.62885,-0.24131 -0.74827,0.0759 -0.28016,0.74421 0.5743,0.81992 0.54893,0.90057 -0.40793,1.29692 -0.78597,0.32556 -0.87072,0.30097 -1.53846,-0.44636 -0.38867,-0.435 -1.59194,-1.24694 -2.67394,-1.80432 -1.08199,-0.55737 -2.00695,-1.11597 -2.05546,-1.24133 -0.0485,-0.12536 -0.32754,-0.22792 -0.62008,-0.22792 -0.29254,0 -0.59143,-0.20836 -0.6642,-0.46302 -0.18987,-0.66443 -1.39746,-1.54257 -2.38609,-1.73512 -0.67775,-0.132 -0.81825,-0.0872 -0.6993,0.22273 0.0819,0.21335 0.0103,0.38791 -0.15904,0.38791 -0.20294,0 -0.1675,0.20044 0.10399,0.58804 0.22653,0.32342 0.41187,0.79406 0.41187,1.04586 0,0.25181 0.47625,0.84056 1.05834,1.30833 1.08345,0.87069 1.30217,1.47059 0.74083,2.03194 -0.47376,0.47376 -1.00542,0.38351 -1.00542,-0.17066 0,-0.26849 -0.25595,-0.71497 -0.56878,-0.99219 l -0.56879,-0.50403 0.19079,0.79375 c 0.10492,0.43656 0.46927,1.09141 0.80966,1.45521 1.11553,1.19228 1.71131,2.67259 1.64912,4.0975 -0.0648,1.48391 -0.4224,1.72079 -1.512,1.00147 z m -0.79375,-2.69852 c 0,-0.4696 -1.39925,-1.34212 -2.15234,-1.34212 -0.61199,0 -0.75807,-0.11586 -0.75807,-0.60129 0,-0.64278 -1.17002,-1.4216 -2.35666,-1.56871 -1.0328,-0.12804 -0.93826,0.5253 0.14129,0.97636 0.54794,0.22895 1.41939,0.73953 1.93654,1.13462 1.70732,1.30436 3.18924,1.95542 3.18924,1.40114 z m -2.50724,-3.88716 c -0.2356,-0.2356 -0.49416,-0.36258 -0.57456,-0.28218 -0.23553,0.23553 0.16744,0.71056 0.60278,0.71056 0.34553,0 0.34168,-0.0585 -0.0282,-0.42838 z m -0.14049,-1.29202 c 0.62024,0.19686 0.70359,-0.1883 0.14166,-0.65465 -0.31345,-0.26015 -0.57147,-0.21065 -1.32291,0.25376 -1.13598,0.70208 -1.24319,1.17688 -0.14166,0.62737 0.43551,-0.21727 1.03083,-0.31918 1.32291,-0.22648 z m 16.47653,0.21033 c 0.11151,-0.0627 0.14375,-0.20946 0.0716,-0.32615 -0.22193,-0.35908 0.81272,-1.33878 1.41388,-1.33878 0.31232,0 0.80437,0.11906 1.09344,0.26458 0.28907,0.14552 0.75311,0.37804 1.03121,0.51671 0.36493,0.18197 0.54404,0.15207 0.64362,-0.10743 0.14904,-0.38839 -0.5985,-1.20303 -1.10394,-1.20303 -0.17044,0 -0.3099,-0.11906 -0.3099,-0.26458 0,-0.14552 -0.23812,-0.26459 -0.52916,-0.26459 -0.76552,0 -1.57767,-0.90648 -1.40472,-1.56786 0.0984,-0.37637 0.018,-0.5488 -0.25591,-0.5488 -0.21968,0 -0.46441,-0.16936 -0.54385,-0.37636 -0.0794,-0.20699 -0.41959,-0.41547 -0.75591,-0.46329 -0.47196,-0.0671 -0.60162,-0.24197 -0.56823,-0.76642 0.0335,-0.52605 -0.16516,-0.79174 -0.87967,-1.17653 -1.2259,-0.66019 -1.73348,-0.32337 -2.07401,1.37623 -0.17215,0.85927 -0.38011,1.28165 -0.59531,1.20914 -0.1819,-0.0613 -0.33073,-0.3212 -0.33073,-0.57756 0,-0.25637 -0.2188,-0.66413 -0.48622,-0.90614 -0.45523,-0.41198 -0.51721,-0.40578 -0.97234,0.0971 -0.47671,0.52675 -0.46484,0.55823 0.61239,1.6248 0.60419,0.59821 1.04326,1.17707 0.97571,1.28636 -0.0676,0.10929 0.23469,0.34679 0.67163,0.52778 0.7342,0.30412 2.02169,1.87224 2.44667,2.97999 0.1381,0.35998 0.35124,0.42861 0.91354,0.29415 0.40338,-0.0965 0.82465,-0.22667 0.93617,-0.28936 z m 0.98787,-0.34202 c 0,-0.14552 -0.11906,-0.26458 -0.26458,-0.26458 -0.14552,0 -0.26459,0.11906 -0.26459,0.26458 0,0.14552 0.11907,0.26459 0.26459,0.26459 0.14552,0 0.26458,-0.11907 0.26458,-0.26459 z m -7.9375,-0.9165 c 0,-0.16904 -1.92672,-1.46475 -2.17809,-1.46475 -0.11174,0 -0.20316,0.1786 -0.20316,0.39688 0,0.21828 0.12757,0.39687 0.28348,0.39687 0.15592,0 0.46208,0.1786 0.68036,0.39688 0.36189,0.36189 1.41741,0.56602 1.41741,0.27412 z m 11.64167,-1.97501 c 0,-0.50286 -0.85653,-1.07724 -1.6064,-1.07724 -1.01662,0 -0.98292,0.33441 0.085,0.8439 1.02902,0.49091 1.52136,0.56642 1.52136,0.23334 z m -12.17084,-0.32251 c -0.3638,-0.14729 -0.99942,-0.4374 -1.41248,-0.64469 -0.71572,-0.35917 -1.23335,-0.30909 -1.23335,0.11935 0,0.21044 1.88976,0.73526 2.77813,0.77153 0.4283,0.0175 0.40308,-0.0294 -0.1323,-0.24619 z m 10.77626,-1.97291 c -0.0879,-0.0879 -0.31612,-0.0973 -0.50712,-0.0209 -0.21106,0.0845 -0.14837,0.14716 0.15986,0.15985 0.27891,0.0115 0.43518,-0.051 0.34726,-0.13896 z m -1.45545,-0.43022 c -0.33058,-0.15932 -0.67091,-0.56798 -0.75628,-0.90814 -0.11918,-0.47484 -0.338,-0.61846 -0.94234,-0.61846 -0.95625,0 -0.8789,0.41245 0.18999,1.01309 0.43273,0.24317 0.82647,0.53142 0.87498,0.64056 0.0485,0.10914 0.34616,0.19038 0.66145,0.18053 0.57257,-0.0179 0.57253,-0.0183 -0.0278,-0.30758 z m -11.43957,10.9049 c -0.35284,-0.65929 0.17082,-0.93766 1.25296,-0.66606 l 0.72052,0.18084 -0.65496,0.50327 c -0.82945,0.63734 -0.96879,0.63543 -1.31852,-0.018 z m -0.13166,-1.32136 c -0.23678,-0.38313 0.0659,-1.17716 0.65046,-1.70615 0.67416,-0.61011 2.72602,-0.64281 3.31599,-0.0528 0.24114,0.24114 0.549,0.43844 0.68412,0.43844 0.40438,0 0.27743,0.79817 -0.15323,0.96343 -0.21941,0.0842 -0.69147,-0.0386 -1.04903,-0.27288 -1.00538,-0.65875 -2.11329,-0.55324 -2.47266,0.23549 -0.31552,0.69249 -0.69632,0.84647 -0.97565,0.39451 z m 18.19157,-5.74166 c -0.6511,-0.23802 -0.31272,-0.6026 0.71127,-0.76635 0.5731,-0.0916 1.10583,-0.33296 1.18384,-0.53626 0.26889,-0.70071 1.42188,-0.92173 2.48317,-0.47601 0.85545,0.35928 0.91982,0.44511 0.50813,0.67756 -0.25927,0.1464 -0.76015,0.22838 -1.11307,0.18219 -0.38792,-0.0508 -0.77908,0.10392 -0.98914,0.39118 -0.33694,0.46077 -2.06916,0.78908 -2.7842,0.52769 z m 2.57969,-2.91416 c -0.91164,-0.16463 -1.85209,-1.09843 -1.85209,-1.83898 0,-0.36329 -0.15834,-0.61534 -0.38657,-0.61534 -0.21261,0 -0.60966,-0.23946 -0.88233,-0.53214 -0.47201,-0.50665 -0.51573,-0.50982 -0.91223,-0.0661 -0.22905,0.2563 -0.45707,0.76366 -0.50672,1.12746 -0.12915,0.94634 -0.82862,0.8263 -1.0339,-0.17744 -0.13907,-0.67996 -0.0785,-0.86325 0.31988,-0.96742 0.2703,-0.0707 0.49146,-0.33444 0.49146,-0.58612 0,-0.39232 0.17551,-0.43356 1.23007,-0.28901 0.67655,0.0927 1.39238,0.30329 1.59074,0.46792 0.19836,0.16463 0.6918,0.33787 1.09653,0.385 1.67939,0.19553 4.54932,1.96464 4.54932,2.80433 0,0.69589 -0.39501,0.58742 -0.75743,-0.208 -0.20945,-0.4597 -0.4498,-0.63499 -0.72557,-0.52917 -0.2268,0.087 -0.5078,0.15824 -0.62444,0.15824 -0.11665,0 -0.27436,0.23813 -0.35047,0.52917 -0.0761,0.29104 -0.23882,0.51295 -0.36159,0.49314 -0.12276,-0.0198 -0.52086,-0.0898 -0.88466,-0.15549 z m 2.38125,-0.0887 c 0,-0.15411 0.11906,-0.20661 0.26458,-0.11668 0.14552,0.0899 0.26458,0.21603 0.26458,0.2802 0,0.0642 -0.11906,0.11668 -0.26458,0.11668 -0.14552,0 -0.26458,-0.12609 -0.26458,-0.2802 z"
       id="path25" />
  </g>
</svg>
