<?xml version="1.0" encoding="UTF-8" standalone="no"?>
<!-- Created with Inkscape (http://www.inkscape.org/) -->

<svg
   width="27.604401mm"
   height="24.667591mm"
   viewBox="0 0 27.604402 24.667592"
   version="1.1"
   id="svg1"
   inkscape:version="1.4.1-rc (06eac75fbf, 2025-03-29)"
   sodipodi:docname="bushes12.svg"
   xmlns:inkscape="http://www.inkscape.org/namespaces/inkscape"
   xmlns:sodipodi="http://sodipodi.sourceforge.net/DTD/sodipodi-0.dtd"
   xmlns="http://www.w3.org/2000/svg"
   xmlns:svg="http://www.w3.org/2000/svg">
  <sodipodi:namedview
     id="namedview1"
     pagecolor="#ffffff"
     bordercolor="#000000"
     borderopacity="0.25"
     inkscape:showpageshadow="2"
     inkscape:pageopacity="0.0"
     inkscape:pagecheckerboard="0"
     inkscape:deskcolor="#d1d1d1"
     inkscape:document-units="mm"
     inkscape:zoom="0.72248176"
     inkscape:cx="52.596483"
     inkscape:cy="46.367952"
     inkscape:window-width="1850"
     inkscape:window-height="1016"
     inkscape:window-x="0"
     inkscape:window-y="0"
     inkscape:window-maximized="1"
     inkscape:current-layer="layer1" />
  <defs
     id="defs1" />
  <g
     inkscape:label="Layer 1"
     inkscape:groupmode="layer"
     id="layer1"
     transform="translate(-91.016756,-135.99624)">
    <path
       style="fill:#000000"
       d="m 91.34275,160.09657 c -0.43428,-0.66279 -0.43437,-0.73685 -0.002,-1.40861 0.25123,-0.38997 0.61235,-0.80185 0.80249,-0.9153 0.2539,-0.15148 0.27776,-0.38496 0.0899,-0.8792 -0.2141,-0.56313 -0.15034,-0.76696 0.39067,-1.24896 0.55526,-0.49469 1.01291,-0.58649 3.24194,-0.65032 2.33086,-0.0667 3.94482,-0.17777 4.3152,-0.29685 0.0728,-0.0234 -0.0943,-0.21402 -0.3712,-0.42361 -0.29259,-0.22145 -0.49689,-0.68895 -0.48771,-1.11606 0.0121,-0.56206 -0.22471,-0.90366 -1.00638,-1.4519 -2.67579,-1.87672 -2.83555,-6.03452 -0.28193,-7.33728 0.5873,-0.29962 1.28091,-0.54476 1.54137,-0.54476 0.40978,0 0.47356,-0.24864 0.47356,-1.84607 0,-1.61994 0.081,-1.92545 0.66146,-2.4941 0.3638,-0.35643 1.06435,-0.70844 1.55677,-0.78227 0.49242,-0.0738 1.02225,-0.26116 1.1774,-0.41631 0.15514,-0.15514 0.50442,-0.28208 0.77616,-0.28208 0.36206,0 0.45216,-0.13208 0.33719,-0.4943 -0.24148,-0.76086 0.89817,-1.40155 1.95428,-1.09866 0.59061,0.16939 1.09561,0.12487 1.76736,-0.15581 0.8395,-0.35076 1.09759,-0.34728 2.4037,0.0324 0.92065,0.26764 1.73233,0.72001 2.18897,1.21996 0.96792,1.05974 1.85941,2.88861 1.86825,3.83267 0.005,0.5253 0.37702,1.17899 1.18839,2.08768 1.2607,1.41191 1.69385,2.69455 1.24365,3.68264 -0.16416,0.36029 -0.17904,0.74804 -0.0373,0.97194 0.12971,0.20488 0.23765,0.65704 0.23988,1.0048 0.002,0.34776 0.18403,0.76448 0.40402,0.92604 0.56971,0.41843 0.69154,1.39205 0.22285,1.78102 -0.30853,0.25605 -0.44296,0.25895 -0.59508,0.0128 -0.13013,-0.21055 -0.48643,0.0857 -1.05478,0.87715 l -0.85826,1.19511 0.74421,0.28445 c 0.40932,0.15645 0.95738,0.30111 1.21791,0.32146 0.60713,0.0474 1.35104,0.86185 1.12351,1.23 -0.0959,0.15523 -0.46479,0.20935 -0.81967,0.12028 -0.56444,-0.14166 -0.64524,-0.0726 -0.64524,0.55145 0,0.69274 -0.0326,0.70789 -1.12448,0.52321 -2.28013,-0.38564 -5.57242,-0.29672 -6.49726,0.17549 -1.27633,0.65168 -4.17974,1.38793 -4.69444,1.19042 -0.36,-0.13815 -0.38194,-0.24424 -0.11664,-0.5639 0.17973,-0.21656 0.52056,-0.39753 0.7574,-0.40216 0.23684,-0.005 0.66174,-0.18322 0.94422,-0.39688 0.47491,-0.3592 0.41512,-0.3907 -0.79375,-0.41824 -0.71904,-0.0164 -2.70533,-0.0727 -4.41399,-0.12515 -3.01282,-0.0925 -3.09702,-0.08 -2.78814,0.41462 0.17518,0.2805 0.23101,0.59749 0.12407,0.70443 -0.20034,0.20034 -2.7127,-0.58524 -3.27857,-1.02517 -0.38169,-0.29674 -1.40176,-0.0199 -1.40176,0.38044 0,0.15605 0.19794,0.42847 0.43987,0.60537 0.55914,0.40885 0.28587,1.19191 -0.41595,1.19191 -0.28702,0 -0.59433,0.11727 -0.68291,0.2606 -0.0967,0.15647 0.13493,0.21446 0.57969,0.14513 0.40742,-0.0635 1.47483,-0.1779 2.37202,-0.25421 0.89719,-0.0763 2.06039,-0.34337 2.58489,-0.59349 0.88933,-0.42409 0.98332,-0.42508 1.39377,-0.0146 0.41045,0.41045 0.40988,0.47355 -0.008,0.93572 -0.50446,0.55743 -3.43529,1.20211 -5.73383,1.26125 -0.80037,0.0206 -1.70364,0.12248 -2.00728,0.22642 -0.42285,0.14474 -0.65937,0.0252 -1.01045,-0.5106 z m 15.18015,-4.83153 c -0.005,-0.1081 -0.17861,-0.42134 -0.38662,-0.69611 -0.26538,-0.35052 -0.30233,-0.64135 -0.12388,-0.97479 0.36151,-0.67549 0.31848,-0.82575 -0.20746,-0.72446 -0.36053,0.0694 -0.44312,0.30577 -0.37661,1.07773 0.0535,0.62093 -0.0286,0.9888 -0.22068,0.9888 -0.1953,0 -0.24922,-0.26305 -0.14915,-0.7276 0.1317,-0.6114 0.0294,-0.79959 -0.64044,-1.17832 -0.97501,-0.55127 -1.04866,-1.42877 -0.18354,-2.18669 0.33749,-0.29567 0.69094,-0.74595 0.78544,-1.00061 0.1175,-0.31661 0.45655,-0.46302 1.07226,-0.46302 0.8837,0 0.8999,-0.0203 0.87173,-1.09455 -0.0225,-0.85866 0.0988,-1.17923 0.56308,-1.48748 0.41627,-0.27639 0.59178,-0.65524 0.59178,-1.27739 0,-1.37004 1.12222,-1.74253 3.02909,-1.00544 0.47175,0.18236 0.46264,0.12212 -0.10717,-0.70907 -0.77739,-1.13397 -1.30448,-1.56982 -1.89846,-1.56982 -0.42072,0 -0.42828,0.0663 -0.0829,0.72761 0.35246,0.67489 0.34147,0.73376 -0.15173,0.81264 -0.73982,0.11832 -2.11173,-1.23414 -2.11173,-2.08178 0,-0.65919 -0.42131,-1.31055 -0.84768,-1.31055 -0.11697,0 -0.18245,0.374 -0.14552,0.8311 0.0948,1.17376 -0.31557,1.17937 -1.5575,0.0213 -1.13513,-1.05848 -2.29731,-1.29709 -2.75968,-0.56658 -0.3708,0.58584 -0.28754,2.04115 0.16707,2.92027 0.22712,0.4392 0.3662,0.9388 0.30906,1.11022 -0.10709,0.32127 -0.18214,0.3379 -1.83173,0.40591 -1.3261,0.0547 -2.43627,1.02816 -2.50449,2.19613 -0.063,1.07853 0.3491,2.50525 0.78274,2.70996 0.17487,0.0825 0.79418,0.43479 1.37627,0.78275 0.87288,0.5218 1.04839,0.76342 1.00162,1.37891 -0.0773,1.0173 0.34102,1.44849 1.23234,1.27023 0.54434,-0.10887 0.7786,-0.0266 0.91164,0.32005 0.0985,0.25662 0.0533,0.59232 -0.1004,0.74601 -0.19619,0.19619 0.018,0.36549 0.71893,0.56831 1.20208,0.34781 2.98603,0.45958 2.97433,0.18635 z m 8.30191,-0.13039 c -0.0675,-0.10914 -0.53936,-0.19844 -1.04869,-0.19844 -0.50932,0 -0.87085,0.0893 -0.8034,0.19844 0.0675,0.10914 0.53936,0.19844 1.04869,0.19844 0.50932,0 0.87085,-0.0893 0.8034,-0.19844 z m -6.44141,-1.0078 c 0,-0.13694 -0.1786,-0.24897 -0.39688,-0.24897 -0.40915,0 -0.52565,0.3122 -0.22768,0.61017 0.21139,0.21138 0.62456,-0.0276 0.62456,-0.3612 z m 4.18556,-0.89561 c 0.7093,-0.10411 0.60933,-0.52348 -0.24007,-1.00701 -1.14098,-0.64951 -1.29966,-0.5908 -1.29966,0.48085 0,0.84179 0.0608,0.92459 0.56188,0.76554 0.30904,-0.0981 0.74907,-0.20581 0.97785,-0.23938 z m -3.2541,-1.07315 c 0.006,-0.63139 -1.80122,-1.59009 -2.4773,-1.31384 -0.3769,0.15399 -0.35486,0.21812 0.15677,0.45621 0.32743,0.15237 0.59532,0.48704 0.59532,0.74372 0,0.5272 0.41191,0.76703 1.19062,0.69323 0.33389,-0.0316 0.53117,-0.24543 0.53459,-0.57932 z m 5.68312,-0.21973 c 0,-0.21206 -2.42812,-1.80597 -2.55613,-1.67795 -0.25372,0.25372 0.19264,0.71044 1.18728,1.21482 0.9725,0.49316 1.36885,0.62726 1.36885,0.46313 z m -4.56138,-2.45972 c -0.21502,-0.47192 -1.3758,-1.157 -1.96039,-1.157 -0.3724,0 0.0403,1.04641 0.63479,1.60975 0.56168,0.53221 0.82704,0.62778 1.16363,0.41909 0.34499,-0.21389 0.37881,-0.39593 0.16197,-0.87184 z m 5.35513,0.67439 c 0,-0.8279 -3.18394,-2.96176 -3.68316,-2.46844 -0.18911,0.18687 1.10791,1.4308 1.49187,1.4308 0.19927,0 0.68331,0.29766 1.07565,0.66146 0.76811,0.71223 1.11564,0.82941 1.11564,0.37618 z m -1.41959,-3.57311 c -0.41697,-0.36667 -0.83191,-0.59289 -0.92209,-0.50271 -0.18577,0.18577 1.01003,1.17565 1.41564,1.17185 0.14552,-10e-4 -0.0766,-0.30248 -0.49355,-0.66914 z m -3.52861,-0.0129 c 0.26165,-0.26165 -0.3183,-1.15584 -0.74965,-1.15584 -0.41818,0 -0.4798,0.24554 -0.22697,0.9044 0.16299,0.42475 0.67221,0.55585 0.97662,0.25144 z m 4.9482,-1.36338 c 0,-0.11414 -0.3447,-0.41115 -0.76599,-0.66002 -0.64685,-0.3821 -0.78858,-0.39363 -0.91118,-0.0741 -0.0931,0.2426 0.11054,0.47192 0.56755,0.63914 0.91197,0.33368 1.10962,0.35061 1.10962,0.095 z m -2.44786,-1.8416 c 0.10335,-0.31004 -0.94039,-1.00081 -1.16811,-0.77308 -0.0721,0.0721 0.006,0.38662 0.17286,0.69897 0.3084,0.57624 0.8153,0.61399 0.99525,0.0741 z m -0.17053,-3.03804 c -0.50395,-1.3255 -2.52189,-3.1149 -3.51272,-3.1149 -0.27557,0 0.009,1.31612 0.38846,1.79715 0.36095,0.45746 -0.11082,0.92108 -0.70518,0.693 -0.248,-0.0952 -0.63988,-0.53846 -0.87085,-0.9851 -0.39546,-0.76473 -0.44078,-0.78357 -0.77749,-0.3231 -0.30701,0.41987 -0.29302,0.53665 0.099,0.82632 0.36577,0.27028 0.39078,0.40403 0.12582,0.67267 -0.18191,0.18442 -0.33073,0.41429 -0.33073,0.51082 0,0.22762 2.91652,0.84742 3.58686,0.76226 0.2828,-0.0359 0.81183,0.0573 1.17564,0.20709 0.81854,0.33709 1.17464,-0.11658 0.82119,-1.04621 z"
       id="path7" />
  </g>
</svg>
