<?xml version="1.0" encoding="UTF-8" standalone="no"?>
<!-- Created with Inkscape (http://www.inkscape.org/) -->

<svg
   width="94.153908mm"
   height="48.05304mm"
   viewBox="0 0 94.153912 48.053041"
   version="1.1"
   id="svg1"
   inkscape:version="1.4.1-rc (06eac75fbf, 2025-03-29)"
   sodipodi:docname="bushes15.svg"
   xmlns:inkscape="http://www.inkscape.org/namespaces/inkscape"
   xmlns:sodipodi="http://sodipodi.sourceforge.net/DTD/sodipodi-0.dtd"
   xmlns="http://www.w3.org/2000/svg"
   xmlns:svg="http://www.w3.org/2000/svg">
  <sodipodi:namedview
     id="namedview1"
     pagecolor="#ffffff"
     bordercolor="#000000"
     borderopacity="0.25"
     inkscape:showpageshadow="2"
     inkscape:pageopacity="0.0"
     inkscape:pagecheckerboard="0"
     inkscape:deskcolor="#d1d1d1"
     inkscape:document-units="mm"
     inkscape:zoom="0.72248176"
     inkscape:cx="177.1671"
     inkscape:cy="90.659728"
     inkscape:window-width="1850"
     inkscape:window-height="1016"
     inkscape:window-x="0"
     inkscape:window-y="0"
     inkscape:window-maximized="1"
     inkscape:current-layer="layer1" />
  <defs
     id="defs1" />
  <g
     inkscape:label="Layer 1"
     inkscape:groupmode="layer"
     id="layer1"
     transform="translate(-57.943834,-94.985818)">
    <path
       style="fill:#000000"
       d="m 58.034662,142.88269 c -0.26891,-0.26891 0.10426,-0.90018 0.53212,-0.90018 0.22305,0 0.53774,-0.18078 0.6993,-0.40173 0.24386,-0.3335 0.29375,-0.28857 0.29375,0.26459 0,0.36647 -0.14883,0.66631 -0.33073,0.66631 -0.1819,0 -0.33073,0.11906 -0.33073,0.26458 0,0.28747 -0.60778,0.36236 -0.86371,0.10643 z m 2.11344,-1.25296 c 0.12622,-0.66027 0.12075,-0.65791 1.92527,-0.8293 2.33688,-0.22194 2.87921,-0.4122 3.44666,-1.2091 0.71386,-1.00253 1.05126,-0.99433 1.05126,0.0255 0,0.4722 -0.11022,0.74124 -0.26458,0.64584 -0.14552,-0.0899 -0.26459,0.025 -0.26459,0.25552 0,0.23047 -0.32742,0.54383 -0.7276,0.69635 -0.66781,0.25453 -3.26091,0.58087 -4.36563,0.54941 -0.25466,-0.007 -0.46302,0.0985 -0.46302,0.23496 0,0.13647 -0.10255,0.24814 -0.22789,0.24814 -0.12534,0 -0.17479,-0.27782 -0.10988,-0.61737 z m 5.89402,-3.92035 c 0,-0.41688 1.32281,-2.31466 1.62534,-2.33181 0.48209,-0.0273 0.4505,0.89518 -0.0425,1.24047 -0.30011,0.21021 -0.77903,0.63269 -1.06426,0.93885 -0.39858,0.42782 -0.51861,0.46312 -0.51861,0.15249 z m 2.45735,-2.05334 c -0.25419,-0.40702 -0.2408,-0.53441 0.0686,-0.65315 0.69629,-0.2672 0.4332,-1.3894 -0.52244,-2.22846 -0.49878,-0.43794 -0.847,-0.85612 -0.77382,-0.9293 0.0732,-0.0732 -0.0992,-0.20675 -0.38297,-0.29683 -0.52439,-0.16644 -0.73923,-1.34374 -0.29529,-1.61812 0.29821,-0.1843 1.3078,0.4666 1.2461,0.80339 -0.10283,0.56125 0.36436,1.42816 0.99087,1.83866 0.35812,0.23466 0.65114,0.59258 0.65114,0.79537 0,0.2028 0.1124,0.40842 0.24978,0.45693 0.13738,0.0485 0.18124,0.59421 0.0975,1.21267 -0.16786,1.2391 -0.76774,1.51833 -1.32948,0.61884 z m 2.04057,-0.1402 c 0,-0.53182 0.5454,-0.81434 0.79437,-0.4115 0.14871,0.24062 0.33258,0.14025 0.66082,-0.3607 0.25013,-0.38175 0.55745,-0.63063 0.68295,-0.55307 0.12549,0.0776 0.52918,-0.0562 0.8971,-0.29728 0.65672,-0.4303 0.66893,-0.42568 0.66893,0.25358 0,0.67609 -0.51277,1.0153 -0.54594,0.36116 -0.009,-0.1819 -0.12728,-0.0552 -0.26235,0.28158 -0.13506,0.33678 -0.35299,0.54593 -0.48428,0.46478 -0.1313,-0.0811 -0.66426,0.0303 -1.18437,0.24759 -1.16537,0.48692 -1.22723,0.48762 -1.22723,0.0139 z m 0.10685,-3.36408 c -0.2102,-0.34011 0.67401,-0.99806 1.35563,-1.00875 0.29505,-0.005 0.80127,-0.19391 1.12495,-0.42062 0.32367,-0.22671 0.73712,-0.3283 0.91876,-0.22577 0.26321,0.14859 0.26312,0.1141 -4.6e-4,-0.16988 -0.52446,-0.56503 -0.40946,-1.12653 0.19817,-0.96763 0.2909,0.0761 0.59558,0.0304 0.67708,-0.10144 0.0815,-0.13186 0.58763,-0.24022 1.12474,-0.24081 1.17199,-0.001 3.57608,-0.82208 3.44847,-1.17737 -0.10124,-0.28191 -0.402,-0.33847 -2.86877,-0.53949 -2.10912,-0.17187 -2.42512,-0.22608 -2.84427,-0.48794 -0.81202,-0.50728 -0.12211,-0.65438 2.71574,-0.57903 3.23769,0.086 5.15561,-0.21877 5.15561,-0.81916 0,-0.9279 1.2974,0.0831 1.3145,1.02437 0.005,0.25466 0.12748,0.46302 0.273,0.46302 0.32814,0 0.32813,-0.063 -4e-5,-0.92614 -0.18123,-0.47667 -0.17447,-0.86445 0.0214,-1.23051 0.31576,-0.59 0.0761,-1.07502 -0.26139,-0.52897 -0.31578,0.51095 -3.99334,0.70299 -3.99334,0.20853 0,-0.48411 0.47277,-0.58498 3.12683,-0.66711 1.65691,-0.0513 2.35981,0.0361 2.84427,0.35353 0.35391,0.23189 0.64348,0.34089 0.64348,0.24222 0,-0.0987 0.25682,0.0474 0.57071,0.32463 0.56538,0.49934 0.56933,0.49858 0.42418,-0.0815 -0.0851,-0.33997 0.008,-0.71423 0.22305,-0.8923 0.29736,-0.24679 0.36956,-0.19269 0.36956,0.27691 0,0.34823 0.13293,0.5393 0.32961,0.47374 0.18128,-0.0604 0.33011,-0.32807 0.33073,-0.59477 7.2e-4,-0.31195 0.21207,-0.50068 0.59257,-0.52914 0.58108,-0.0435 0.92493,-0.28307 2.63569,-1.83668 0.66388,-0.60289 0.78956,-0.8575 0.55988,-1.13425 -0.16288,-0.19626 -0.48629,-0.33874 -0.71867,-0.31661 -0.81083,0.0772 -1.08398,-0.0234 -1.08398,-0.39917 0,-0.20816 0.2679,-0.4256 0.59532,-0.48321 0.53725,-0.0945 0.50634,-0.14516 -0.31688,-0.5192 -0.5017,-0.22795 -1.06725,-0.35496 -1.25677,-0.28223 -0.18952,0.0727 -0.34458,4.3e-4 -0.34458,-0.16066 0,-0.16109 0.19117,-0.29289 0.42482,-0.29289 0.50043,0 1.99666,-1.1945 1.7745,-1.41665 -0.0839,-0.0839 0.62046,-0.13941 1.56529,-0.12331 0.94484,0.0161 1.84278,-0.0479 1.99544,-0.14227 0.15266,-0.0943 0.83397,0.067 1.51402,0.35847 1.36112,0.58344 2.25093,0.68219 2.25093,0.24981 0,-0.15411 -0.11197,-0.211 -0.24881,-0.12642 -0.13685,0.0846 -0.49278,-0.1081 -0.79096,-0.42816 -0.29818,-0.32005 -0.62278,-0.50129 -0.72133,-0.40274 -0.0986,0.0985 -0.0403,0.17919 0.1295,0.17919 0.16978,0 0.30868,0.11906 0.30868,0.26458 0,0.43362 -0.35889,0.30481 -1.12184,-0.40263 -0.39576,-0.36697 -0.7815,-0.66463 -0.85719,-0.66146 -0.75186,0.0314 -0.84816,-0.0457 -0.74305,-0.59558 0.26135,-1.36716 -2.94951,-3.06923 -3.29532,-1.74684 -0.0713,0.27285 -0.23491,0.49609 -0.36346,0.49609 -0.30907,0 -0.30246,-1.51378 0.007,-1.70532 0.14157,-0.0875 0.12052,-0.46867 -0.051,-0.923 -0.225,-0.5961 -0.20901,-0.94545 0.0696,-1.52021 0.19895,-0.41044 0.34094,-0.83556 0.31555,-0.9447 -0.0254,-0.10914 0.10265,-0.20222 0.28455,-0.20685 0.19673,-0.005 0.13671,-0.15552 -0.14812,-0.37147 -0.30538,-0.23154 -0.37653,-0.4263 -0.19641,-0.53762 0.15535,-0.096 0.46863,0.0116 0.69619,0.23918 0.6707,0.6707 1.1697,0.50859 1.1697,-0.38001 0,-0.43656 0.006,-0.88304 0.014,-0.99218 0.008,-0.10915 -0.18793,-0.24022 -0.43471,-0.29128 -0.3384,-0.07 -0.41376,0.0407 -0.30661,0.45049 0.12576,0.48089 0.0313,0.53716 -0.82205,0.48971 -0.8362,-0.0465 -0.97514,-0.14901 -1.04702,-0.77251 -0.0775,-0.67216 -0.15605,-0.71341 -1.20836,-0.63463 -1.00013,0.0749 -1.17352,5.6e-4 -1.55678,-0.66724 -0.29968,-0.52216 -0.56482,-0.70025 -0.86886,-0.58358 -0.24129,0.0926 -0.53321,0.0132 -0.65079,-0.17707 -0.17065,-0.27613 -0.41618,-0.24692 -1.23006,0.14636 -0.55927,0.27024 -1.40451,0.50806 -1.87831,0.52848 -0.4738,0.0204 -0.92993,0.1056 -1.01363,0.1893 -0.29618,0.29618 0.44619,1.25582 0.97149,1.25582 0.6525,0 2.09422,0.71879 2.09422,1.0441 0,0.39536 -1.57366,0.61968 -1.98021,0.28227 -0.29062,-0.24119 -0.63232,-0.15481 -1.57654,0.39855 -1.28797,0.75479 -1.7111,1.1855 -1.16467,1.1855 0.22798,0 0.19087,0.14602 -0.11479,0.45168 -0.29532,0.29532 -0.54154,0.36182 -0.71126,0.19209 -0.4083,-0.40829 0.0434,-1.60119 0.98341,-2.59738 0.5789,-0.61347 0.85989,-1.17217 0.85989,-1.70975 0,-0.58101 0.21116,-0.94888 0.77518,-1.3505 0.51318,-0.36542 0.83504,-0.45511 0.9523,-0.26536 0.11889,0.19236 0.33551,0.14328 0.65878,-0.14927 0.58696,-0.53119 3.57929,-0.74504 4.358,-0.31144 0.29248,0.16285 0.65085,0.25827 0.79637,0.21204 0.74799,-0.23766 2.8523,0.0222 3.93387,0.48585 0.67402,0.28892 1.2255,0.41048 1.2255,0.27013 0,-0.32791 1.09531,-0.32862 1.95634,-10e-4 0.65093,0.24748 1.80902,2.07977 1.72615,2.73104 -0.12502,0.98247 0.58404,1.43923 0.91111,0.58691 0.29683,-0.77352 0.82992,-0.41482 0.85202,0.57328 0.0182,0.8158 0.2165,1.13307 1.256768,2.01113 1.30689,1.10311 1.50789,1.60227 0.80386,1.99626 -0.80471,0.45034 -0.47431,2.25377 0.62969,3.43703 0.48008,0.51454 0.40551,0.70778 -0.10917,0.28292 -0.34295,-0.28309 -0.46444,-0.29023 -0.55122,-0.0324 -0.1823,0.54165 -0.76958,0.37731 -1.245098,-0.34842 -0.24475,-0.37354 -0.67516,-0.90932 -0.95647,-1.19063 -0.28131,-0.28131 -0.51148,-0.63348 -0.51148,-0.78261 0,-0.46133 -1.33747,-0.83991 -1.75197,-0.4959 -0.47967,0.39809 -0.46419,0.76704 0.0322,0.76704 0.21828,0 0.39688,0.11487 0.39688,0.25527 0,0.28256 -1.07576,0.94802 -1.38907,0.85927 -0.10914,-0.0309 -0.19844,0.0756 -0.19844,0.23668 0,0.16109 0.18614,0.22146 0.41364,0.13416 0.86622,-0.3324 3.38424,1.38491 4.11074,2.80355 0.854208,1.66804 0.461448,3.1194 -0.84415,3.1194 -0.41435,0 -0.48352,0.12665 -0.35307,0.64642 0.26641,1.06145 -0.12127,1.3087 -0.87312,0.55685 -0.37076,-0.37076 -0.75848,-0.6741 -0.86161,-0.6741 -0.20529,0 -1.21182,1.04576 -1.03812,1.07857 0.0589,0.0111 0.28575,0.066 0.50403,0.12204 0.21828,0.056 0.9309,0.23237 1.58359,0.39195 0.65269,0.15958 1.3701,0.45611 1.59424,0.65895 0.506418,0.45831 6.168708,0.38546 7.058638,-0.0908 0.82944,-0.4439 1.32454,-0.38106 1.47308,0.18699 0.11044,0.42231 -0.0709,0.52109 -1.22591,0.66787 -0.74553,0.0947 -2.01036,0.27226 -2.81072,0.39448 -0.80037,0.12223 -1.51474,0.14911 -1.5875,0.0597 -0.0728,-0.0894 -0.66808,-0.17523 -1.32292,-0.19079 -2.686448,-0.0638 -3.118358,-0.16609 -3.410578,-0.80745 -0.31013,-0.68067 -1.24824,-0.89124 -0.99166,-0.22259 0.2405,0.62674 -1.08699,0.61689 -1.57522,-0.0117 -0.15891,-0.20459 -0.93281,-0.44893 -1.71979,-0.54299 -0.78698,-0.0941 -1.4648,-0.25832 -1.50625,-0.36503 -0.10398,-0.26762 -1.37984,-3.2e-4 -1.37984,0.28909 0,0.12856 0.16254,0.23374 0.3612,0.23374 0.46176,0 1.75547,1.01023 1.75547,1.3708 0,0.40707 -1.36013,0.002 -2.00143,-0.59666 -0.695,-0.64836 -0.98901,-0.64935 -0.78376,-0.003 0.0885,0.2788 0.0398,0.58176 -0.10827,0.67325 -0.39203,0.24229 -3.76814,0.73363 -5.37477,0.78222 -0.40018,0.0121 -0.7276,0.17084 -0.7276,0.35274 0,0.37842 0.0411,0.38402 2.44739,0.33305 1.02022,-0.0216 1.78594,0.0738 1.78594,0.22246 0,0.14316 -0.14383,0.30823 -0.31961,0.36682 -0.20548,0.0685 -0.0759,0.3694 0.36291,0.84261 l 0.68252,0.73608 0.1221,-0.83193 c 0.0907,-0.61789 0.0314,-0.7971 -0.23062,-0.69657 -0.19399,0.0744 -0.35272,0.0254 -0.35272,-0.10894 0,-0.33559 1.73726,-0.63505 2.16184,-0.37265 0.18925,0.11696 0.73386,0.17908 1.21025,0.13804 1.413,-0.12174 2.44875,0.20607 2.44875,0.77501 0,0.61088 -0.87097,1.18834 -2.11667,1.40338 -0.88069,0.15202 -0.90012,0.13941 -0.39687,-0.25753 0.49775,-0.39262 0.46242,-0.40666 -0.59532,-0.23666 -0.85182,0.13691 -1.12546,0.0949 -1.12853,-0.17325 -0.003,-0.23231 -0.0709,-0.25641 -0.19843,-0.0701 -0.33064,0.48286 -1.19443,0.68594 -1.41305,0.33221 -0.11147,-0.18035 -0.89476,-0.36833 -1.74095,-0.41779 -0.84607,-0.0495 -2.25268,-0.12893 -3.12581,-0.17659 -2.07591,-0.11334 -1.99402,-0.0856 -1.79356,-0.60797 0.1356,-0.35338 0.037,-0.32609 -0.44525,0.12314 -0.3407,0.31741 -0.75025,0.49884 -0.91011,0.40318 -0.15986,-0.0957 -0.1265,0.0284 0.0741,0.27574 0.55548,0.68473 -0.67423,1.83565 -1.87234,1.75237 -0.48054,-0.0334 -1.31725,-0.0434 -1.85935,-0.0223 -0.94419,0.0368 -0.97479,0.067 -0.7276,0.71714 0.14192,0.37328 0.25803,0.73427 0.25803,0.80221 0,0.0679 -0.64875,0.0775 -1.44166,0.0213 -1.0429,-0.074 -1.47971,-0.003 -1.5792,0.25612 -0.0756,0.19712 -0.35955,0.35841 -0.6309,0.35841 -0.27136,0 -0.5762,0.0828 -0.67743,0.18404 -0.29672,0.29672 -0.94703,0.31958 -1.12021,0.0394 z m 20.39836,-4.45675 c 0.0912,-0.14754 -0.10674,-0.26279 -0.44741,-0.26053 -0.4915,0.003 -0.53334,0.0542 -0.21405,0.26053 0.49232,0.31816 0.46483,0.31816 0.66146,0 z m 0.97455,-0.32191 c -0.18986,-0.18985 -0.31309,-0.20547 -0.31309,-0.0397 0,0.15037 0.0794,0.35277 0.17639,0.44979 0.097,0.097 0.2379,0.11487 0.31309,0.0397 0.0752,-0.0752 -0.004,-0.27759 -0.17639,-0.44979 z m -13.27768,-0.47184 c 0,-0.14552 -0.11906,-0.26458 -0.26458,-0.26458 -0.14552,0 -0.26458,0.11906 -0.26458,0.26458 0,0.14552 0.11906,0.26459 0.26458,0.26459 0.14552,0 0.26458,-0.11907 0.26458,-0.26459 z m 10.05417,-2.91041 c 0,-0.14553 -0.0525,-0.26459 -0.11668,-0.26459 -0.0642,0 -0.19026,0.11906 -0.28019,0.26459 -0.0899,0.14552 -0.0374,0.26458 0.11667,0.26458 0.15411,0 0.2802,-0.11906 0.2802,-0.26458 z m 5.56213,-2.37762 c -0.48333,-0.29872 0.62629,-0.51197 1.14717,-0.22047 0.31887,0.17845 0.43445,0.13626 0.43445,-0.15859 0,-0.24838 -0.15149,-0.34358 -0.39687,-0.24942 -0.21828,0.0838 -0.39688,0.031 -0.39688,-0.11719 0,-0.3406 -0.70368,-0.24761 -1.09614,0.14485 -0.36715,0.36714 -0.0774,1.2288 0.32877,0.97776 0.213,-0.13164 0.20732,-0.23614 -0.0205,-0.37694 z m -0.79963,-0.79738 c 0,-0.14552 -0.11906,-0.26459 -0.26458,-0.26459 -0.14552,0 -0.26459,0.11907 -0.26459,0.26459 0,0.14552 0.11907,0.26458 0.26459,0.26458 0.14552,0 0.26458,-0.11906 0.26458,-0.26458 z m -0.40415,-1.15499 c -0.28704,-0.19868 -0.81955,-0.45266 -1.18335,-0.5644 l -0.66146,-0.20316 0.66146,0.5556 c 0.3638,0.30557 0.89631,0.55955 1.18335,0.56439 0.51947,0.009 0.51947,0.007 0,-0.35243 z m 6.48957,4e-5 c 0,-0.19865 -0.25029,-0.67939 -0.5562,-1.06829 -0.40405,-0.51366 -0.64595,-0.63262 -0.88424,-0.43485 -0.18043,0.14973 -0.40638,0.1939 -0.50213,0.0982 -0.0958,-0.0958 -0.1741,-0.0543 -0.1741,0.0921 0,0.14642 0.301,0.40335 0.66889,0.57097 0.36788,0.16762 0.73781,0.48439 0.82205,0.70393 0.19105,0.49785 0.62573,0.52423 0.62573,0.038 z m -6.35,-1.47199 c 0,-0.43268 -0.81417,-1.07723 -1.36072,-1.07723 -0.29104,0 -0.70091,0.17175 -0.91083,0.38166 -0.33249,0.3325 -0.32154,0.41668 0.085,0.65342 0.58551,0.34092 2.1865,0.37178 2.1865,0.0421 z m 2.38367,-0.67744 c -0.33048,-0.3982 -0.79617,-0.31339 -0.79617,0.14499 0,0.13693 0.2527,0.24897 0.56156,0.24897 0.46732,0 0.5067,-0.0661 0.23461,-0.39396 z m 3.02321,-5.74526 c -0.10177,-0.32064 -0.34791,-0.74586 -0.547,-0.94494 -0.19908,-0.19909 -0.36196,-0.47253 -0.36196,-0.60766 0,-0.13512 -0.1786,-0.24568 -0.39688,-0.24568 -0.21828,0 -0.39687,-0.1055 -0.39687,-0.23444 0,-0.21792 -1.58089,-1.08848 -1.97662,-1.08848 -0.49676,0 0.0974,1.18995 0.78599,1.57411 1.82291,1.01701 2.77813,1.66741 2.77813,1.89161 0,0.13115 0.0675,0.23845 0.15012,0.23845 0.0826,0 0.0669,-0.26234 -0.0349,-0.58297 z m -5.67147,-0.2264 c 0,-0.13693 -0.25417,-0.50314 -0.56483,-0.8138 -0.49115,-0.49115 -0.59475,-0.51137 -0.79417,-0.15503 -0.12614,0.22539 -0.15948,0.59185 -0.0741,0.81436 0.24648,0.64231 1.4331,0.77022 1.4331,0.15447 z m 0.26459,-1.42397 c 0,-0.0642 -0.11906,-0.19027 -0.26459,-0.2802 -0.14552,-0.0899 -0.26458,-0.0374 -0.26458,0.11667 0,0.15411 0.11906,0.2802 0.26458,0.2802 0.14553,0 0.26459,-0.0525 0.26459,-0.11667 z m 1.90666,-2.26458 c 1.07533,0 1.36529,-0.57248 0.84383,-1.666 -0.31735,-0.66548 -0.66645,-0.97313 -1.2328,-1.0864 -1.41836,-0.28367 -1.54037,-0.23269 -1.20497,0.50344 0.16576,0.36381 0.47545,0.66146 0.68819,0.66146 0.32144,0 0.32856,0.0702 0.0422,0.41527 -0.18956,0.2284 -0.55926,0.35915 -0.82156,0.29056 -0.41369,-0.10818 -0.43652,-0.0492 -0.17221,0.44462 0.16758,0.31314 0.28458,0.59911 0.25999,0.63549 -0.0246,0.0364 -0.0447,0.20366 -0.0447,0.37174 0,0.18283 0.19436,0.12969 0.48386,-0.1323 0.26612,-0.24083 0.78732,-0.43788 1.15822,-0.43788 z m -14.0775,-0.79375 c 0,-0.14552 -0.11906,-0.26458 -0.26458,-0.26458 -0.14552,0 -0.26458,0.11906 -0.26458,0.26458 0,0.14552 0.11906,0.26459 0.26458,0.26459 0.14552,0 0.26458,-0.11907 0.26458,-0.26459 z m 10.05417,-2.26352 c 0,-0.43051 -1.02688,-0.78418 -1.3471,-0.46396 -0.1376,0.1376 -0.0616,0.48371 0.18277,0.83264 0.33172,0.4736 0.49544,0.5331 0.79129,0.28756 0.20517,-0.17028 0.37304,-0.46559 0.37304,-0.65624 z m -22.62088,25.28388 c -0.1889,-0.30565 1.10894,-0.87646 1.47642,-0.64934 0.13331,0.0824 0.24238,0.0237 0.24238,-0.1304 0,-0.15411 0.35718,-0.2802 0.79375,-0.2802 1.08592,0 0.99653,0.33113 -0.19844,0.73512 -1.57478,0.53239 -2.13705,0.61131 -2.31411,0.32482 z m -3.83479,-2.88355 c -0.53685,-0.14942 -0.58582,-0.22992 -0.26458,-0.43489 0.36766,-0.23458 0.59229,-0.28112 1.98171,-0.41057 0.96049,-0.0895 1.19062,0.0173 1.19062,0.5524 0,0.40822 -0.17638,0.52917 -0.7717,0.52917 -0.42443,0 -0.83175,-0.14883 -0.90515,-0.33073 -0.10676,-0.26458 -0.13763,-0.26458 -0.15434,0 -0.0228,0.36049 -0.0977,0.36708 -1.07656,0.0946 z m 5.24205,-0.037 c -0.0528,-0.15837 -0.48479,-0.299 -0.95999,-0.31251 -0.98814,-0.0281 -1.45687,-0.46286 -0.53003,-0.49162 2.47772,-0.0769 4.30048,0.0308 4.53774,0.26806 0.15974,0.15973 0.17208,0.28876 0.0287,0.30031 -0.2478,0.0199 -0.49644,0.0627 -2.14507,0.36866 -0.49987,0.0928 -0.87393,0.0394 -0.93136,-0.1329 z m 32.437338,-0.005 c -0.27945,-0.10153 -0.5839,-0.14128 -0.67655,-0.0883 -0.0926,0.0529 -0.31559,-0.081 -0.49542,-0.29769 -0.43184,-0.52034 -0.0546,-0.58449 1.48973,-0.25333 0.41891,0.0898 0.88071,0.15144 1.02623,0.13692 2.80754,-0.28019 4.36563,-0.29514 4.36563,-0.0419 0,0.16143 -0.0893,0.27397 -0.19844,0.2501 -0.10914,-0.0239 -0.4961,0.0332 -0.8599,0.12681 -1.02319,0.26331 -4.08412,0.37347 -4.65128,0.16741 z m -3.550798,-1.04457 c 0,-0.59789 0.19793,-0.642 1.189318,-0.26508 0.86661,0.32949 0.62599,0.79425 -0.411188,0.79425 -0.60174,0 -0.77813,-0.11995 -0.77813,-0.52917 z m -4.46201,-0.089 c -0.25989,-0.31314 -0.15205,-0.40909 0.62316,-0.55452 1.01699,-0.19079 1.4576,-0.0448 1.4576,0.48278 0,0.41376 -0.85111,0.45509 -1.12448,0.0546 -0.13978,-0.20478 -0.264,-0.18925 -0.42023,0.0525 -0.1792,0.27733 -0.28215,0.27053 -0.53605,-0.0354 z m 2.60993,-0.0608 c 0,-0.29372 0.206,-0.39007 0.70719,-0.33073 1.03006,0.12194 1.12089,0.74518 0.1086,0.74518 -0.56414,0 -0.81579,-0.12785 -0.81579,-0.41445 z m 12.603058,-0.8694 c -0.23773,-0.26269 -0.43223,-0.61707 -0.43223,-0.78751 0,-0.17044 -0.13395,-0.28013 -0.29766,-0.24375 -0.16371,0.0364 -0.35718,-0.0976 -0.42995,-0.29765 -0.081,-0.2227 0.008,-0.31708 0.22915,-0.24333 0.19879,0.0663 0.51478,-0.0328 0.70219,-0.22027 0.18741,-0.18741 0.5159,-0.27353 0.72997,-0.19139 0.21407,0.0822 0.38922,0.003 0.38922,-0.17593 0,-0.25551 0.0851,-0.25463 0.39687,0.004 0.2742,0.22757 0.39688,0.23759 0.39688,0.0324 0,-0.16334 0.17485,-0.29698 0.38857,-0.29698 0.23669,0 0.32904,-0.15512 0.23627,-0.39688 -0.17166,-0.44734 -0.0344,-0.4632 4.36089,-0.50385 1.50522,-0.0139 2.78687,0.0554 2.84811,0.15408 0.15041,0.24234 -0.88591,0.5558 -1.19861,0.36254 -0.13677,-0.0845 -0.33482,-0.0143 -0.44012,0.15609 -0.12934,0.20927 -0.0709,0.241 0.18015,0.0978 0.29485,-0.1682 0.30561,-0.1407 0.0521,0.13312 -0.2476,0.26742 -0.40443,0.27463 -0.69671,0.0321 -0.29654,-0.2461 -0.41031,-0.22673 -0.53208,0.0906 -0.17339,0.45186 -1.10971,0.54744 -1.36212,0.13904 -0.0899,-0.14552 -0.30532,-0.25518 -0.47863,-0.24369 -0.22721,0.0151 -0.22286,0.0581 0.0156,0.15434 1.01792,0.41074 -0.36868,0.80076 -3.32975,0.93659 -1.10239,0.0506 -1.14127,0.081 -1.00085,0.78306 0.18201,0.91006 -0.15732,1.15522 -0.72727,0.52544 z m 3.8011,-2.42032 c 0,-0.14552 -0.12609,-0.26458 -0.2802,-0.26458 -0.15411,0 -0.20661,0.11906 -0.11667,0.26458 0.0899,0.14552 0.21602,0.26458 0.2802,0.26458 0.0642,0 0.11667,-0.11906 0.11667,-0.26458 z m 1.05067,-0.25425 c 0.21407,-0.13538 0.30904,-0.32632 0.21104,-0.42432 -0.098,-0.098 -0.37094,0.0146 -0.60655,0.2502 -0.46554,0.46553 -0.22955,0.56943 0.39551,0.17412 z m -40.682948,1.77824 c -0.35052,-0.16883 -0.5471,-0.44608 -0.46605,-0.6573 0.0771,-0.20092 0.0302,-0.29733 -0.10423,-0.21425 -0.13443,0.0831 -0.2823,-0.23816 -0.32861,-0.71386 -0.0892,-0.91634 0.476,-2.15049 0.87261,-1.90537 0.12961,0.0801 0.23564,0.0486 0.23564,-0.07 0,-0.31001 1.58269,-0.9671 1.80114,-0.74779 0.17051,0.17119 -0.10105,0.44008 -1.79013,1.77256 -0.83631,0.65975 -0.49294,1.30674 0.87806,1.65446 0.77068,0.19546 1.17233,0.14433 1.95845,-0.2493 1.16774,-0.58473 2.17957,-0.6853 2.17957,-0.21664 0,0.40982 -0.80579,0.85312 -1.25677,0.69141 -0.1819,-0.0652 -0.33073,-0.004 -0.33073,0.13663 0,0.24854 -2.00509,0.86512 -2.69685,0.82931 -0.19022,-0.01 -0.61867,-0.1493 -0.9521,-0.30989 z m 33.072698,-2.03649 c -0.8595,-0.45575 -1.6425,-0.55345 -1.6425,-0.20494 0,0.15377 -0.12953,0.14874 -0.33073,-0.0128 -0.1819,-0.14609 -0.63967,-0.2303 -1.01726,-0.18712 -0.86189,0.0986 -2.22628,-0.99612 -1.99447,-1.60019 0.12999,-0.33877 0.42206,-0.38504 1.55285,-0.246 0.766,0.0942 1.80945,0.2073 2.31878,0.25137 0.50932,0.0441 1.3977,0.32962 1.97417,0.63457 0.57647,0.30494 1.19163,0.55444 1.36701,0.55444 0.17539,0 0.37894,0.14883 0.45234,0.33073 0.10676,0.26459 0.13763,0.26459 0.15434,0 0.0294,-0.46561 1.21115,-0.41249 1.61369,0.0725 0.18408,0.2218 0.24779,0.48969 0.14158,0.59531 -0.3521,0.35015 -3.84477,0.2072 -4.5898,-0.18786 z m -28.679608,-1.25604 c 0.19099,-0.0764 0.4192,-0.067 0.50712,0.0209 0.0879,0.0879 -0.0684,0.15045 -0.34727,0.13896 -0.30822,-0.0127 -0.37092,-0.0754 -0.15985,-0.15985 z m -1.65889,-0.59473 c -0.28675,-0.46398 0.38426,-0.57838 0.97315,-0.1659 l 0.58851,0.4122 h -0.70472 c -0.38759,0 -0.77321,-0.11083 -0.85694,-0.2463 z m 1.97308,-0.0183 c 0,-0.14552 0.11906,-0.26458 0.26458,-0.26458 0.14553,0 0.26459,0.11906 0.26459,0.26458 0,0.14552 -0.11906,0.26458 -0.26459,0.26458 -0.14552,0 -0.26458,-0.11906 -0.26458,-0.26458 z m 4.07148,-0.56608 c -0.3073,-0.15174 -0.74768,-0.65199 -0.97864,-1.11167 -0.40396,-0.80406 -0.42662,-0.81319 -0.59661,-0.24048 -0.19963,0.67257 -0.39699,0.73664 -0.85581,0.27781 -0.4135,-0.4135 -0.40441,-0.74083 0.0206,-0.74083 0.54309,0 1.24943,-1.00388 1.24943,-1.77573 0,-0.55463 0.0702,-0.64116 0.31859,-0.39277 0.17522,0.17523 0.2899,0.74456 0.25483,1.26518 -0.0351,0.52063 0.0299,0.88941 0.14444,0.81951 0.1145,-0.0699 0.6249,0.0703 1.13422,0.31158 0.69304,0.32829 0.92604,0.60446 0.92604,1.09763 0,0.74443 -0.6826,0.95118 -1.61706,0.48977 z m -4.07148,-0.46395 c 0,-0.2974 0.68821,-0.57481 0.90018,-0.36285 0.31849,0.31849 0.14471,0.59913 -0.37101,0.59913 -0.29104,0 -0.52917,-0.10632 -0.52917,-0.23628 z m 30.427088,-1.12141 c -0.50933,-0.14131 -1.4023,-0.30085 -1.98438,-0.35453 -2.99041,-0.27581 -3.36254,-0.36411 -3.98025,-0.94442 -0.75306,-0.70746 -0.68245,-0.96055 0.1445,-0.51798 0.31636,0.16931 2.06622,0.4135 3.88857,0.54265 1.82682,0.12946 3.48418,0.37656 3.69408,0.55076 0.30064,0.24952 0.47329,0.22337 0.82099,-0.12433 0.41067,-0.41067 0.39983,-0.44029 -0.16118,-0.44029 -0.36999,0 -0.53227,-0.11199 -0.42165,-0.29098 0.12786,-0.20689 0.0194,-0.20512 -0.3753,0.006 -0.46126,0.24686 -0.52899,0.22895 -0.4005,-0.1059 0.099,-0.25791 0.002,-0.40299 -0.27054,-0.40299 -0.23385,0 -0.42518,0.12007 -0.42518,0.26682 0,0.15998 -0.20765,0.13715 -0.51856,-0.057 -0.47418,-0.29613 -0.48296,-0.36321 -0.1026,-0.7835 0.38368,-0.42396 0.36232,-0.47311 -0.27518,-0.63312 -0.69581,-0.17463 -0.97616,-0.8954 -0.36043,-0.92662 0.1819,-0.009 0.0413,-0.13242 -0.31247,-0.27377 -0.42372,-0.16931 -0.91119,-0.16358 -1.42854,0.0168 -0.99287,0.34611 -0.97097,0.34889 -0.97097,-0.12311 0,-0.21828 0.15797,-0.39687 0.35105,-0.39687 0.2435,0 0.31346,-0.25612 0.22836,-0.83596 -0.10365,-0.70624 -0.0521,-0.80888 0.33205,-0.66146 0.25011,0.096 0.62359,0.1745 0.82997,0.1745 0.20638,0 0.37524,0.16745 0.37524,0.37211 0,0.22678 0.18428,0.32391 0.47186,0.24871 0.34748,-0.0909 0.46953,-0.38075 0.46302,-1.09971 -0.007,-0.81088 -0.10247,-0.97632 -0.56139,-0.97632 -0.3039,0 -0.77267,-0.17859 -1.04172,-0.39687 -0.44104,-0.35782 -0.47284,-0.35322 -0.32308,0.0468 0.0923,0.24649 -0.002,0.58311 -0.21191,0.7574 -0.30052,0.24941 -0.41483,0.21781 -0.55756,-0.15415 -0.12123,-0.31591 0.0162,-0.62638 0.42305,-0.95584 0.72216,-0.58478 1.42301,-0.62594 1.8522,-0.10879 0.26967,0.32493 0.38785,0.30601 0.82615,-0.13229 0.2813,-0.28131 0.51146,-0.55809 0.51146,-0.61507 0,-0.27425 -1.41473,-0.41416 -1.70999,-0.16911 -0.24239,0.20116 -0.4283,0.16858 -0.66491,-0.11651 -0.2744,-0.33064 -0.20445,-0.4429 0.42516,-0.68228 1.23953,-0.47126 3.5292,0.17778 3.09657,0.87778 -0.0936,0.15152 -0.0494,0.20079 0.0983,0.10949 0.14772,-0.0913 0.86951,0.0879 1.60398,0.3982 1.16757,0.49329 1.43823,0.5216 2.15355,0.22531 0.44998,-0.18639 0.81815,-0.48915 0.81815,-0.67281 0,-0.18365 0.25358,-0.40023 0.56353,-0.48128 0.42757,-0.11181 0.51287,-0.26289 0.35358,-0.62617 -0.11548,-0.26334 -0.22024,-0.74002 -0.2328,-1.05928 -0.0135,-0.34263 -0.18547,-0.56938 -0.41973,-0.55339 -0.93814,0.064 -1.3008,-0.0711 -1.16195,-0.43296 0.19482,-0.50768 -0.35082,-1.47588 -0.83174,-1.47588 -0.21316,0 -0.38756,-0.19418 -0.38756,-0.4315 0,-0.34408 -0.1847,-0.40152 -0.91173,-0.28354 -0.89428,0.14512 -0.90591,0.13516 -0.60723,-0.52036 0.26264,-0.57644 0.42857,-0.64819 1.20689,-0.52189 0.56136,0.0911 1.03054,0.0183 1.2415,-0.19268 0.27578,-0.27578 0.0205,-0.50097 -1.36642,-1.20551 -1.71853,-0.87298 -1.74289,-0.87589 -4.25937,-0.50875 -0.1819,0.0265 -0.33072,0.32607 -0.33072,0.66562 0,0.39308 -0.15595,0.61736 -0.42928,0.61736 -0.32525,0 -0.35913,0.0845 -0.13982,0.34876 0.21344,0.25718 0.18327,0.50035 -0.1149,0.92604 -0.51458,0.73467 -1.06465,0.73577 -1.45686,0.003 -0.25031,-0.4677 -0.22747,-0.63281 0.12298,-0.88906 0.23671,-0.17309 0.43038,-0.40545 0.43038,-0.51636 0,-0.11092 -0.17372,-0.0575 -0.38604,0.11871 -0.255,0.21163 -0.68162,0.24994 -1.25677,0.11286 -0.85174,-0.203 -1.1885,-0.22581 -2.12751,-0.14414 -0.57384,0.0499 -0.59775,0.78851 -0.0508,1.56937 0.22672,0.32368 0.33053,0.72067 0.23069,0.8822 -0.0998,0.16154 -0.077,0.36969 0.0508,0.46256 0.37845,0.27505 0.94268,1.39878 0.78268,1.55879 -0.0813,0.0813 -0.64507,-0.0476 -1.25286,-0.28631 -0.8138,-0.31967 -1.19723,-0.35761 -1.45469,-0.14394 -0.43321,0.35953 -1.150088,0.114 -1.150088,-0.39391 0,-0.45915 0.716028,-0.7973 1.521358,-0.71847 0.7012,0.0686 0.74658,-0.17505 0.18254,-0.98033 -0.24616,-0.35144 -0.37966,-0.9893 -0.33073,-1.58023 0.0805,-0.97171 0.11024,-0.99683 1.53725,-1.29613 0.80036,-0.16787 1.48497,-0.33158 1.52135,-0.3638 0.0364,-0.0322 0.21498,-0.0745 0.39688,-0.094 0.1819,-0.0195 0.34445,-0.391559 0.36123,-0.826819 0.0599,-1.55265 0.10898,-1.68395 0.6971,-1.86318 0.32742,-0.0998 0.79073,-0.35267 1.02958,-0.56198 0.23885,-0.20931 0.77121,-0.41649 1.18303,-0.4604 1.63959,-0.17481 5.3579,1.20724 5.19572,1.93119 -0.0364,0.1624 0.10381,0.29528 0.31153,0.29528 0.34889,0 1.32874,1.02607 1.52294,1.594789 0.0461,0.13492 0.4907,0.32642 0.98807,0.42555 0.75201,0.14988 0.8777,0.11093 0.74636,-0.23134 -0.11235,-0.29278 0.0418,-0.44975 0.53414,-0.54387 0.38064,-0.0728 0.84845,-0.0723 1.03957,0.001 0.57243,0.21966 0.39294,0.6059 -0.28156,0.6059 -1.27976,0 -1.63897,1.44997 -0.96307,3.88747 0.45781,1.651 0.45675,1.6914 -0.0512,1.96325 -0.28525,0.15267 -0.45179,0.34442 -0.37008,0.42613 0.0817,0.0817 0.31462,0.0107 0.51759,-0.15771 0.2858,-0.23719 0.50069,-0.19967 0.95268,0.16633 0.71562,0.57947 0.53867,1.7027 -0.33761,2.14305 -0.51019,0.25638 -0.48566,0.27118 0.21931,0.13234 0.43656,-0.086 1.35625,-0.33365 2.04376,-0.55037 0.9791,-0.30866 1.43401,-0.32991 2.09909,-0.0981 0.467,0.1628 0.91653,0.19837 0.99895,0.079 0.0824,-0.11933 0.56659,-0.21005 1.07591,-0.20161 0.73073,0.0121 0.90964,0.113 0.8483,0.47836 -0.0428,0.25466 0.0465,0.46302 0.19843,0.46302 0.1519,0 0.27619,0.11708 0.27619,0.26018 0,0.2521 -2.63997,0.19387 -3.0916,-0.0682 -0.39407,-0.22866 -1.53861,-0.0206 -1.53861,0.27973 0,0.52368 -0.5224,0.83802 -1.12904,0.67938 -0.32492,-0.085 -0.59075,-0.25966 -0.59075,-0.38821 0,-0.36929 -0.69707,-0.27215 -1.04364,0.14545 -0.24706,0.29769 -0.21906,0.52511 0.13032,1.05833 0.53435,0.81552 1.62669,0.88315 4.48509,0.2777 1.01859,-0.21576 2.12795,-0.39228 2.46523,-0.39228 0.49283,0 0.58026,-0.1039 0.44529,-0.52917 -0.0964,-0.30356 -0.0476,-0.52917 0.11446,-0.52917 0.15533,0 0.28241,0.17961 0.28241,0.39912 0,0.33116 0.0889,0.34357 0.5224,0.0729 0.46246,-0.28881 0.474,-0.35332 0.10055,-0.56232 -0.34873,-0.19515 -0.35902,-0.27672 -0.0594,-0.47055 0.25778,-0.16674 0.17984,-0.21513 -0.26982,-0.16752 -0.34776,0.0368 -0.6851,-0.0819 -0.74965,-0.26378 -0.23021,-0.64875 1.92919,-0.39267 2.7889,0.33072 1.09942,0.9251 1.50029,0.82422 0.78854,-0.19843 -1.04439,-1.50058 -1.61233,-2.05052 -2.11763,-2.05052 -0.27024,0 -0.55988,-0.1786 -0.64364,-0.39688 -0.0838,-0.21828 -0.44996,-0.39687 -0.81376,-0.39687 -0.47926,0 -0.61951,0.10931 -0.50916,0.39687 0.19355,0.50439 -0.19685,0.51571 -0.61016,0.0177 -0.58096,-0.70002 0.8158,-1.26319 2.4244,-0.97751 0.10458,0.0186 0.12161,0.21236 0.0378,0.43064 -0.0838,0.21829 -0.0304,0.39688 0.11855,0.39688 0.14896,0 0.31756,-0.14014 0.37465,-0.31143 0.059,-0.17708 0.24753,-0.2226 0.43696,-0.10553 0.18324,0.11325 0.26924,0.37245 0.19113,0.57601 -0.0987,0.25723 0.063,0.37012 0.53003,0.37012 0.6927,0 1.52945,-0.60411 1.23901,-0.89455 -0.0901,-0.0901 -0.0249,-0.16379 0.1449,-0.16379 0.51964,0 0.34296,-1.46805 -0.25784,-2.14233 l -0.56651,-0.63579 0.15743,0.83193 c 0.13828,0.73073 0.0944,0.81544 -0.36094,0.69638 -0.2851,-0.0746 -0.70921,0.0228 -0.94246,0.21641 -0.35787,0.29701 -0.47561,0.28153 -0.75392,-0.0991 -0.1814,-0.24808 -0.70477,-0.49211 -1.16304,-0.54228 -1.75062,-0.19165 -1.22793,-0.96002 0.65783,-0.96702 0.61037,-0.002 1.2281,-0.16795 1.40046,-0.37562 0.49703,-0.59888 0.0596,-1.66632 -0.86287,-2.10574 -0.45976,-0.21901 -1.09883,-0.64417 -1.42017,-0.94482 -0.74985,-0.701549 -0.99639,-0.689919 -1.03178,0.0487 -0.11694,2.44078 -1.07773,2.93335 -1.8682,0.95778 -0.42795,-1.06957 -0.7284,-1.275079 -0.96453,-0.65975 -0.12724,0.33159 -1.50437,0.31156 -1.50437,-0.0219 0,-0.32614 1.25683,-1.119419 1.78594,-1.127239 0.34242,-0.005 0.59531,-0.17345 0.59531,-0.39637 0,-0.4979 0.89637,-0.9809 1.43604,-0.7738 0.55669,0.21362 0.57269,-1.02509 0.0192,-1.48447 -0.21828,-0.18115 -0.39687,-0.25108 -0.39687,-0.15538 0,0.0957 -0.24127,0.0449 -0.53615,-0.11294 -0.42847,-0.22931 -0.69604,-0.17308 -1.33231,0.27998 -0.84721,0.60327 -1.72865,0.51589 -1.47459,-0.14618 0.19785,-0.5156 -0.0693,-0.50127 -0.6625,0.0355 -0.36677,0.33192 -0.41323,0.54624 -0.20342,0.93827 0.34986,0.65373 0.20602,2.13048 -0.22118,2.27071 -0.181,0.0594 -0.45632,-0.2266 -0.61182,-0.63558 -0.20369,-0.53577 -0.20106,-0.77083 0.009,-0.84099 0.20544,-0.0685 0.19576,-0.2135 -0.0326,-0.48869 -0.25524,-0.30755 -0.25569,-0.43399 -0.002,-0.59073 0.17747,-0.10969 0.24579,-0.39979 0.15183,-0.64467 -0.29838,-0.77754 0.38673,-1.24265 1.84355,-1.25154 0.74365,-0.005 1.7688,-0.037 2.27813,-0.0721 0.50932,-0.0351 1.28323,0.0742 1.71979,0.24289 0.63742,0.24635 0.97613,0.22735 1.71979,-0.0965 0.50932,-0.22179 1.16385,-0.42622 1.4545,-0.45431 0.7212,-0.0697 2.29475,0.37762 2.77883,0.78994 0.21828,0.18592 0.81948,0.48703 1.33599,0.66912 0.51651,0.18209 1.1714,0.52416 1.45531,0.76014 0.61975,0.51513 1.58328,1.9371 1.50088,2.215 -0.0324,0.10914 0.0673,0.19844 0.22135,0.19844 0.15411,0 0.20339,0.12428 0.10952,0.27617 -0.0939,0.151899 -0.026,0.450559 0.15093,0.663699 0.18836,0.22696 0.26142,0.75847 0.17633,1.28281 -0.0912,0.56224 -0.005,1.09629 0.23317,1.4356 0.43592,0.62236 0.18758,0.88005 -0.63964,0.66372 -0.33359,-0.0872 -0.57509,-0.35964 -0.57509,-0.64869 0,-0.27407 -0.0893,-0.47302 -0.19843,-0.4421 -0.3845,0.10892 -1.4018,-0.61531 -1.23756,-0.88104 0.0915,-0.14802 -0.0838,-0.33452 -0.38947,-0.41446 -0.30568,-0.0799 -0.55579,-0.25052 -0.55579,-0.37907 0,-0.12855 -0.11056,-0.23372 -0.24568,-0.23372 -0.3911,0 -1.06229,0.77771 -0.97706,1.13213 0.0427,0.17769 0.0277,0.23378 -0.0333,0.12464 -0.061,-0.10914 -0.27965,-0.19844 -0.48581,-0.19844 -0.42538,0 -0.50329,-0.41854 -0.1218,-0.65432 0.13917,-0.086 0.19995,-0.30139 0.13508,-0.47863 -0.24918,-0.68074 0.31526,-1.059569 1.30271,-0.87432 0.52526,0.0985 0.95502,0.26803 0.95502,0.37663 0,0.21995 1.90286,1.13889 2.05118,0.99057 0.0517,-0.0517 -0.13112,-0.46419 -0.40628,-0.91664 -0.27515,-0.45245 -0.57804,-0.744879 -0.67308,-0.649829 -0.23197,0.231959 -1.50099,-1.15889 -1.50099,-1.64509 0,-0.30504 -0.24522,-0.2611 -1.18336,0.21207 -0.68943,0.34773 -1.18639,0.78359 -1.19062,1.04426 -0.014,0.859619 -0.58557,0.792979 -1.46874,-0.17121 -0.96435,-1.05283 -0.95872,-1.47167 0.0285,-2.11851 0.35158,-0.23036 0.63924,-0.52243 0.63924,-0.64902 0,-0.34315 -0.66825,-0.53466 -1.29433,-0.37093 -0.43065,0.11262 -0.53778,0.32622 -0.48854,0.97409 0.0583,0.76682 0.006,0.82374 -0.69131,0.74948 -0.54336,-0.0579 -0.70994,0.0161 -0.59548,0.26458 0.0874,0.18972 0.2324,0.5533 0.32223,0.80797 0.0898,0.25466 0.34076,0.46302 0.55764,0.46302 0.24181,0 0.33542,0.1535 0.24203,0.39687 -0.10162,0.264809 0.0109,0.396879 0.33814,0.396879 0.55633,0 1.3548,1.07584 1.44813,1.9512 0.0811,0.76066 0.40295,1.26932 0.69066,1.0915 0.12541,-0.0775 0.29627,-0.0305 0.37968,0.10448 0.0834,0.13496 0.65719,0.22201 1.27505,0.19343 0.67723,-0.0313 1.4767,0.14046 2.01298,0.43253 0.48927,0.26647 1.02505,0.43558 1.19062,0.3758 0.43312,-0.15637 1.27078,0.32881 1.08544,0.6287 -0.0861,0.13925 0.0594,0.32913 0.32331,0.42196 1.2388,0.43579 1.77227,2.09888 1.00055,3.11919 -0.50376,0.66603 -0.49387,0.96547 0.0253,0.76624 0.24999,-0.0959 0.56429,0.0562 0.79408,0.38423 0.20919,0.29865 0.74914,0.62401 1.19991,0.72301 0.59552,0.1308 0.74009,0.25949 0.52883,0.47074 -0.50118,0.50118 -0.31873,0.78111 0.4174,0.64039 0.89286,-0.17068 1.60972,0.4385 1.15738,0.98354 -0.21192,0.25536 -0.21856,0.41857 -0.022,0.54007 0.15496,0.0958 0.21205,0.28691 0.12686,0.42475 -0.0852,0.13784 -0.26573,0.18212 -0.40119,0.0984 -0.13547,-0.0837 -0.2463,0.0929 -0.2463,0.39255 0,0.59819 -0.4064,0.73867 -0.61927,0.21406 -0.088,-0.21696 -0.20939,-0.23858 -0.35278,-0.0629 -0.25249,0.30943 -1.67379,0.43265 -1.67379,0.14511 0,-0.10587 -0.15095,-0.1925 -0.33546,-0.1925 -0.1845,0 -0.63197,-0.0744 -0.99438,-0.16538 -0.74013,-0.18576 -1.05092,-0.0303 -1.47673,0.73865 -0.16713,0.30181 -1.07653,0.81875 -2.11666,1.20318 -1.98214,0.73259 -1.89588,0.70573 -2.94931,0.91826 -0.39953,0.0806 -1.29421,0.33363 -1.98817,0.56227 -0.69397,0.22865 -1.67623,0.36734 -2.18281,0.3082 -0.50659,-0.0591 -0.92106,-0.0405 -0.92106,0.0414 0,0.0819 -1.51805,0.14331 -3.37344,0.13641 -1.85539,-0.007 -3.44312,0.0858 -3.52828,0.20601 -0.0852,0.12021 -1.18649,0.28379 -2.44739,0.36351 -1.83374,0.11593 -2.29256,0.0725 -2.29256,-0.21701 0,-0.58432 0.95223,-1.27356 1.2912,-0.93459 0.42415,0.42415 2.67755,0.46896 2.67755,0.0532 0,-0.42292 -1.40613,-0.80375 -1.53543,-0.41585 -0.0602,0.18074 -0.38119,0.13188 -0.90167,-0.13727 -0.66822,-0.34555 -0.84714,-0.35632 -1.03354,-0.0622 -0.16744,0.2642 -0.22646,0.27061 -0.22947,0.0249 -0.002,-0.1819 -0.18967,-0.33073 -0.41654,-0.33073 -0.22687,0 -0.33839,0.1199 -0.24782,0.26645 0.0906,0.14655 -0.0265,0.3398 -0.26008,0.42945 -0.24678,0.0947 -0.39238,0.39879 -0.3475,0.72573 0.0693,0.50436 -0.06,0.56741 -1.24566,0.60767 -0.7276,0.0247 -1.73963,-0.0707 -2.24895,-0.21199 z m 18.25625,-1.80272 c 0.65484,-0.14087 1.27992,-0.26131 1.38906,-0.26765 0.10914,-0.006 0.19844,-0.12708 0.19844,-0.26832 0,-0.15559 -1.2498,-0.22935 -3.17125,-0.18716 -1.74418,0.0383 -3.20588,-0.0343 -3.24822,-0.16133 -0.0423,-0.12702 -0.40975,-0.0793 -0.81646,0.10598 -0.60218,0.27437 -0.77893,0.27307 -0.95203,-0.007 -0.15194,-0.24583 -0.26495,-0.25917 -0.39621,-0.0468 -0.10101,0.16343 -0.29354,0.22923 -0.42785,0.14622 -0.13432,-0.083 -0.45351,-0.029 -0.70933,0.11993 -0.37949,0.22099 -0.28842,0.27234 0.49468,0.2789 0.52788,0.004 1.10023,0.17727 1.27189,0.3841 0.24131,0.29077 0.86373,0.35147 2.74437,0.26766 1.33776,-0.0596 2.96806,-0.22366 3.62291,-0.36454 z m -12.21714,-0.66404 c -0.11565,-0.3219 -3.1287,-0.47243 -3.1287,-0.15631 0,0.13692 0.62508,0.29151 1.38906,0.34354 1.73738,0.11832 1.84524,0.10671 1.73964,-0.18723 z m 2.42755,0.12028 c 0,-0.14552 -0.0525,-0.26458 -0.11667,-0.26458 -0.0642,0 -0.19027,0.11906 -0.2802,0.26458 -0.0899,0.14552 -0.0374,0.26459 0.11667,0.26459 0.15411,0 0.2802,-0.11907 0.2802,-0.26459 z m -1.22723,-0.39687 c -0.16103,-0.41963 -0.62485,-0.55056 -0.62485,-0.17639 0,0.2798 0.28921,0.57326 0.56496,0.57326 0.1167,0 0.14365,-0.17859 0.0599,-0.39687 z m 5.56627,-0.65135 c 0.36812,-0.13996 0.73056,-0.15538 0.80541,-0.0343 0.14097,0.22809 1.45299,0.17902 4.98533,-0.18645 1.19761,-0.12391 2.78148,-0.10531 3.78342,0.0444 1.56771,0.23429 1.77144,0.20954 2.25486,-0.27388 l 0.53143,-0.53143 -1.32877,0.0795 c -1.38787,0.083 -2.14155,-0.31948 -2.14155,-1.14368 0,-0.33417 -0.0735,-0.34941 -0.39555,-0.0821 -0.31889,0.26466 -0.52545,0.24317 -1.06581,-0.11089 -0.36864,-0.24154 -0.81231,-0.35137 -0.98594,-0.24406 -0.17362,0.1073 -0.65266,0.16942 -1.06451,0.13804 -0.41186,-0.0314 -0.94299,0.1371 -1.18029,0.3744 -0.3597,0.3597 -0.47845,0.37157 -0.71395,0.0714 -0.27566,-0.35136 -2.18474,-0.47018 -2.68489,-0.16712 -0.13389,0.0811 -0.98604,0.10956 -1.89367,0.0632 -0.90763,-0.0464 -1.71832,0.0258 -1.80155,0.1605 -0.0832,0.13466 -0.6871,0.24484 -1.34195,0.24484 -0.72637,0 -1.12686,0.10317 -1.0271,0.26458 0.0899,0.14552 0.48392,0.26503 0.87551,0.26557 0.3916,5.5e-4 1.08525,0.2286 1.54147,0.50678 0.45621,0.27819 1.11105,0.55918 1.45521,0.62444 0.34415,0.0653 0.64774,0.13486 0.67465,0.15468 0.0269,0.0198 0.35011,-0.0785 0.71824,-0.21844 z m -10.15987,-0.27469 c 0,-0.14552 -0.17859,-0.26459 -0.39688,-0.26459 -0.21828,0 -0.39687,0.11907 -0.39687,0.26459 0,0.14552 0.17859,0.26458 0.39687,0.26458 0.21829,0 0.39688,-0.11906 0.39688,-0.26458 z m -2.38125,-1.19063 c 0,-0.21828 -0.0468,-0.39687 -0.10399,-0.39687 -0.0572,0 -0.17251,0.17859 -0.25627,0.39687 -0.0838,0.21828 -0.037,0.39688 0.10398,0.39688 0.14095,0 0.25628,-0.1786 0.25628,-0.39688 z m 2.11667,-0.26458 c 0,-0.21828 -0.12609,-0.39688 -0.2802,-0.39688 -0.15411,0 -0.20662,-0.11906 -0.11668,-0.26458 0.0899,-0.14552 0.41086,-0.26458 0.71315,-0.26458 0.52262,0 0.51621,-0.0334 -0.13047,-0.6801 -0.56609,-0.5661 -0.77128,-0.6313 -1.22407,-0.38898 -0.6232,0.33353 -0.6116,0.69615 0.0461,1.43936 0.25466,0.28779 0.46302,0.61986 0.46302,0.73794 0,0.11808 0.11906,0.21469 0.26458,0.21469 0.14552,0 0.26459,-0.17859 0.26459,-0.39687 z m 28.575,0.0156 c 0,-0.0642 -0.11907,-0.19026 -0.26459,-0.2802 -0.14552,-0.0899 -0.26458,-0.0374 -0.26458,0.11668 0,0.15411 0.11906,0.2802 0.26458,0.2802 0.14552,0 0.26459,-0.0525 0.26459,-0.11668 z m -4.7625,-0.56039 c 0,-0.22687 -0.11907,-0.33891 -0.26459,-0.24897 -0.14552,0.0899 -0.26458,0.27555 -0.26458,0.41249 0,0.13693 0.11906,0.24897 0.26458,0.24897 0.14552,0 0.26459,-0.18562 0.26459,-0.41249 z m 2.38125,0.29581 c 0,-0.0642 -0.11907,-0.19026 -0.26459,-0.2802 -0.14552,-0.0899 -0.26458,-0.0374 -0.26458,0.11668 0,0.15411 0.11906,0.2802 0.26458,0.2802 0.14552,0 0.26459,-0.0525 0.26459,-0.11668 z m -22.66147,-1.17667 c -0.29164,-0.2717 -0.79994,-0.5796 -1.12955,-0.68421 -0.48999,-0.15552 -0.5822,-0.1011 -0.5056,0.29836 0.0542,0.28271 0.48252,0.61609 1.01651,0.79121 1.1283,0.37003 1.31771,0.24593 0.61864,-0.40536 z m 2.2253,-0.56169 c -0.18277,-0.29267 -0.54097,-0.59835 -0.79599,-0.67929 -0.25502,-0.0809 -0.46368,-0.23269 -0.46368,-0.33722 0,-0.10454 -0.23812,-0.19006 -0.52916,-0.19006 -0.8452,0 -0.6138,0.58264 0.46302,1.16587 1.34421,0.72805 1.7631,0.74091 1.32581,0.0407 z m -4.69925,0.003 c 0,-0.14552 -0.18562,-0.26458 -0.41249,-0.26458 -0.22687,0 -0.33891,0.11906 -0.24897,0.26458 0.0899,0.14552 0.27556,0.26459 0.41249,0.26459 0.13693,0 0.24897,-0.11907 0.24897,-0.26459 z m 24.05463,0 c 0.36796,0 0.20503,-0.92303 -0.21899,-1.24065 -0.35817,-0.2683 -0.36834,-0.39914 -0.0691,-0.88869 0.29155,-0.4769 0.29155,-0.55419 0,-0.45665 -0.19302,0.0646 -0.66714,-0.2207 -1.0536,-0.63394 -0.44363,-0.47438 -0.85815,-0.69169 -1.12448,-0.58949 -0.31957,0.12263 -0.42182,-0.005 -0.42182,-0.52789 0,-0.47506 0.14118,-0.68977 0.45357,-0.68977 0.74747,0 -0.15958,-0.70677 -1.1814,-0.92054 -0.68038,-0.14234 -0.89714,-0.0834 -1.03732,0.28186 -0.13088,0.34106 0.19778,0.7961 1.25699,1.7404 0.78881,0.70322 1.55326,1.28063 1.69878,1.28311 0.14552,0.002 0.086,0.11994 -0.13229,0.261 -0.32093,0.2074 -0.28296,0.25726 0.19844,0.26053 0.59732,0.004 0.64654,0.13353 0.68389,1.79871 0.009,0.40366 0.13544,0.55725 0.381,0.46302 0.2021,-0.0776 0.45693,-0.14101 0.5663,-0.14101 z m -4.32224,-1.70292 c 0.44393,-0.44394 0.0558,-0.81516 -0.59223,-0.56648 -0.29221,0.11213 -0.36861,0.0413 -0.26021,-0.24114 0.10436,-0.27197 -0.0105,-0.39987 -0.35912,-0.39987 -0.58938,0 -0.46624,0.70397 0.21984,1.25677 0.51296,0.4133 0.52998,0.41246 0.99172,-0.0493 z m -3.01513,-1.5294 c -0.18986,-0.18986 -0.31309,-0.20548 -0.31309,-0.0397 0,0.35316 0.3129,0.66606 0.48948,0.48948 0.0752,-0.0752 -0.004,-0.27759 -0.17639,-0.44979 z m 6.83066,-1.2739 c 0,-0.31675 -0.74629,-0.65651 -0.96395,-0.43886 -0.2317,0.2317 0.1613,0.71175 0.58269,0.71175 0.20969,0 0.38126,-0.1228 0.38126,-0.27289 z m -20.78245,-2.74636 c -0.28087,-0.20537 -0.614,-0.30955 -0.74028,-0.23151 -0.27718,0.17131 0.33634,0.59521 0.86965,0.60087 0.26934,0.003 0.23135,-0.10559 -0.12937,-0.36936 z m -8.09914,-3.00002 c -0.0853,-0.40301 0.37418,-1.124479 0.71615,-1.124479 0.60483,0 0.75303,-0.59232 0.24175,-0.96618 -0.26833,-0.19621 -0.39856,-0.35674 -0.28939,-0.35674 0.10916,0 0.11374,-0.1371 0.0102,-0.30466 -0.12987,-0.21014 -0.30244,-0.14857 -0.55617,0.19844 -0.20234,0.2767 -0.45205,0.46743 -0.55493,0.42384 -0.23424,-0.0993 -0.6065,1.549839 -0.4509,1.997489 0.12115,0.34855 0.95554,0.47352 0.88331,0.13229 z m 6.25971,-1.389059 c -0.0899,-0.14552 -0.27556,-0.26459 -0.41249,-0.26459 -0.13693,0 -0.24897,0.11907 -0.24897,0.26459 0,0.14552 0.18562,0.26458 0.41249,0.26458 0.22687,0 0.33891,-0.11906 0.24897,-0.26458 z m -1.04975,-0.5153 c -0.18588,-0.30076 -2.031,-1.16311 -2.58827,-1.20968 -0.83825,-0.07 -0.48468,0.32391 0.91028,1.01427 1.26795,0.6275 1.99755,0.71247 1.67799,0.19541 z M 82.282862,115.94775 c 0.0299,-0.2036 0.20845,-0.55589 0.39682,-0.78285 0.2923,-0.35221 0.24496,-0.43714 -0.32311,-0.57972 -0.52618,-0.13206 -0.70276,-0.38715 -0.84313,-1.21797 -0.13121,-0.77665 -0.34339,-1.11398 -0.81298,-1.29251 -0.80115,-0.3046 -0.82453,-0.50809 -0.0401,-0.34898 l 0.59532,0.12075 -0.59532,-0.44237 c -0.59445,-0.44174 -0.78855,-0.907 -0.37838,-0.907 0.11931,0 0.61288,0.3535 1.09683,0.78557 0.48394,0.43206 0.98841,0.71851 1.12102,0.63655 0.41748,-0.25802 1.53397,0.15763 1.53397,0.57107 0,0.28607 -0.20145,0.36032 -0.7276,0.26817 -0.40019,-0.0701 -0.9062,-0.0141 -1.12448,0.12447 -0.26364,0.16733 -0.28585,0.25326 -0.0662,0.25595 0.1819,0.002 0.33073,0.16252 0.33073,0.35622 0,0.19369 0.29766,0.51146 0.66146,0.70616 0.3638,0.1947 0.66146,0.5205 0.66146,0.724 0,0.25107 0.19135,0.32253 0.59531,0.22232 0.32742,-0.0812 0.44648,-0.0793 0.26458,0.004 -0.1819,0.0835 -0.33073,0.30668 -0.33073,0.49586 0,0.34044 -0.78065,0.65967 -1.63023,0.66666 -0.24179,0.002 -0.41516,-0.16297 -0.38528,-0.36657 z m 20.984508,0.20098 c -0.2449,-0.2449 0.05,-0.62455 0.48519,-0.62455 0.22282,0 0.31165,0.15977 0.22066,0.39687 -0.16149,0.42085 -0.42703,0.5065 -0.70585,0.22768 z m 1.66851,-1.53603 c 0,-0.32669 -0.14251,-0.40187 -0.52917,-0.27915 -0.29104,0.0924 -0.52917,0.0479 -0.52917,-0.0988 0,-0.49288 0.5113,-0.58888 1.20382,-0.22603 0.61071,0.31998 0.64086,0.39852 0.27086,0.70559 -0.3508,0.29114 -0.41634,0.27515 -0.41634,-0.10157 z m 36.926,-2.85216 c -0.2588,-0.14483 -0.32111,-0.52724 -0.21649,-1.32871 0.17842,-1.36693 0.56058,-1.67281 1.24151,-0.9937 0.49006,0.48877 0.49211,0.53363 0.0468,1.02567 -0.44624,0.49309 -0.44321,0.52166 0.0728,0.68545 0.29617,0.094 0.77329,0.0452 1.06026,-0.10833 0.28697,-0.15358 0.85823,-0.27924 1.26947,-0.27924 0.92059,0 2.31663,-1.19057 1.95185,-1.66457 -1.02751,-1.33516 -2.35551,-2.57432 -2.79705,-2.60993 -0.29105,-0.0235 -0.94589,-0.0234 -1.45521,2.3e-4 l -0.92605,0.0429 0.8663,0.52818 c 0.47646,0.2905 0.99163,0.52818 1.14483,0.52818 0.1532,0 0.63486,0.35633 1.07037,0.79183 0.56512,0.56512 0.74358,0.9439 0.62328,1.32292 -0.18835,0.59344 -0.34917,0.63969 -0.92665,0.2665 -0.26458,-0.17099 -0.28663,-0.25783 -0.0661,-0.26053 0.18191,-0.002 0.32972,-0.15288 0.32847,-0.33478 -0.003,-0.39203 -2.99597,-1.38122 -3.54362,-1.17107 -0.52621,0.20193 -0.74115,-0.50551 -0.27191,-0.89494 0.33236,-0.27584 0.32134,-0.36531 -0.0819,-0.66445 -0.44135,-0.32743 -0.43801,-0.36798 0.0632,-0.76796 0.95427,-0.76151 1.69401,-0.94181 2.82314,-0.68812 0.5925,0.13313 1.20576,0.37054 1.3628,0.52758 0.33846,0.33846 0.70886,0.37395 0.70886,0.0679 0,-0.11967 -0.49487,-0.54158 -1.09971,-0.93758 -0.76379,-0.50006 -1.18406,-0.63565 -1.37583,-0.44387 -0.44759,0.44758 -0.64683,0.32433 -0.83096,-0.51402 -0.1796,-0.81771 -1.20727,-1.7359 -2.12222,-1.89614 -0.50385,-0.0882 -1.18587,-0.5746 -1.18587,-0.84567 0,-0.33707 1.70103,-0.45397 2.39897,-0.16488 0.93967,0.38923 1.51537,0.0382 1.41562,-0.86318 -0.0365,-0.329649 -0.0762,-0.864979 -0.0884,-1.189629 -0.0363,-0.97237 -1.91639,-1.27013 -2.54984,-0.40384 -0.21475,0.29369 -0.35619,0.3249 -0.49015,0.10815 -0.10356,-0.16757 -0.41633,-0.30467 -0.69505,-0.30467 -0.29546,0 -0.6779,-0.33096 -0.91722,-0.79375 -0.22575,-0.43656 -0.586,-0.79375 -0.80054,-0.79375 -0.49165,0 -0.49882,0.2527 -0.018,0.63229 0.50181,0.39612 0.83463,2.01355 0.41433,2.01355 -0.17265,0 -0.24538,-0.1786 -0.16162,-0.39688 0.092,-0.23978 10e-4,-0.39687 -0.22948,-0.39687 -0.46492,0 -1.18911,-1.32943 -1.18911,-2.18291 0,-0.99166 0.45051,-1.25535 1.36519,-0.79906 0.74485,0.37159 0.81688,0.36049 1.19869,-0.18462 0.44821,-0.63991 1.42421,-0.57188 2.23165,0.15553 0.23645,0.21301 0.5341,0.36155 0.66146,0.33009 0.43482,-0.10744 1.67628,0.64364 1.82182,1.10219 0.0799,0.25168 0.37982,0.72807 0.66654,1.05867 0.28672,0.33059 0.52131,0.81152 0.52131,1.06873 0,0.30152 0.27415,0.52788 0.77165,0.63715 0.42441,0.0932 0.83384,0.331559 0.90986,0.529659 0.076,0.19811 0.41339,0.39919 0.74971,0.44686 0.54852,0.0777 0.62704,0.26376 0.76246,1.80646 0.083,0.94588 0.30912,1.97022 0.50243,2.2763 0.27064,0.42852 0.28472,0.74797 0.0612,1.38906 -0.1732,0.49686 -0.18909,0.83255 -0.0394,0.83255 0.46163,0 0.25727,0.57703 -0.25148,0.71007 -0.37664,0.0985 -0.49591,0.35707 -0.47673,1.03356 0.0141,0.49621 0.0657,0.90221 0.11474,0.90221 0.21377,0 1.5797,-0.95663 2.15714,-1.51077 0.34727,-0.33324 0.78261,-0.6059 0.96742,-0.6059 0.21389,0 0.28179,-0.20738 0.18683,-0.57054 -0.0934,-0.35721 -0.0466,-0.50715 0.12512,-0.401 0.52064,0.32177 0.541,1.19772 0.0467,2.01048 -0.2727,0.44842 -0.58886,0.78505 -0.70259,0.74807 -0.11373,-0.037 -0.49483,0.20067 -0.84688,0.52809 -0.35205,0.32743 -0.9153,0.59532 -1.25166,0.59532 -0.36723,0 -0.61157,0.15856 -0.61157,0.39687 0,0.39516 -0.59658,0.5329 -1.82636,0.42167 -0.34965,-0.0316 -0.71011,0.0628 -0.801,0.20991 -0.20173,0.3264 -3.33246,0.51807 -3.8383,0.23499 z m 5.08128,-7.93713 c -0.21483,-0.32355 -0.88599,-0.83769 -1.49148,-1.14254 -0.60548,-0.30484 -1.0197,-0.63543 -0.92049,-0.73464 0.0992,-0.0992 -0.0181,-0.18038 -0.26059,-0.18038 -0.24254,0 -0.44097,0.12689 -0.44097,0.28197 0,0.5381 0.54983,1.30553 0.93535,1.30553 0.21316,0 0.38756,0.11906 0.38756,0.26458 0,0.14552 0.29063,0.26458 0.64585,0.26458 0.35521,0 0.71942,0.11907 0.80936,0.26459 0.0899,0.14552 0.29008,0.26458 0.44476,0.26458 0.16581,0 0.12093,-0.24145 -0.10935,-0.58827 z m -1.52603,-2.82046 c 0,-0.12854 -0.23813,-0.29599 -0.52917,-0.3721 -0.52009,-0.13601 -0.69965,0.0826 -0.35278,0.42944 0.25668,0.25668 0.88195,0.21603 0.88195,-0.0573 z m -4.23334,-4.131899 c 0.27278,-0.32867 0.24424,-0.39749 -0.16604,-0.40048 -0.27248,-0.002 -0.76331,-0.0754 -1.09073,-0.16315 -0.35719,-0.0957 -0.59531,-0.0414 -0.59531,0.1359 0,0.16249 0.17859,0.29544 0.39687,0.29544 0.21829,0 0.39688,0.11907 0.39688,0.26459 0,0.40183 0.68624,0.31605 1.05833,-0.1323 z M 79.139002,110.23251 c -0.0899,-0.14552 0.0887,-0.26458 0.39687,-0.26458 0.30822,0 0.48682,0.11906 0.39688,0.26458 -0.0899,0.14552 -0.26853,0.26459 -0.39688,0.26459 -0.12834,0 -0.30693,-0.11907 -0.39687,-0.26459 z m 34.847258,-1.78593 c 0.0588,-0.34991 -0.13399,-0.4834 -0.78892,-0.54644 -0.74354,-0.0716 -0.94849,-0.25949 -1.44274,-1.32292 -0.31684,-0.68172 -0.67099,-1.27919 -0.78698,-1.32769 -0.42958,-0.17964 -0.19068,-0.44212 0.43522,-0.47817 0.39679,-0.0229 1.03427,0.3086 1.65346,0.85969 0.55423,0.49329 1.097,0.89698 1.20614,0.89709 0.10914,1.1e-4 0.19844,0.13966 0.19844,0.3101 0,0.17044 0.19232,0.52241 0.42737,0.78215 0.38529,0.42574 0.38716,0.51247 0.0189,0.88073 -0.54585,0.54585 -1.01702,0.51795 -0.92089,-0.0545 z m -15.510818,-1.88287 c -0.0779,-0.12608 0.0818,-0.43149 0.35499,-0.6787 0.32565,-0.29471 0.55663,-0.35243 0.67083,-0.16765 0.0958,0.155 0.0481,0.28182 -0.10602,0.28182 -0.15411,0 -0.2802,0.17859 -0.2802,0.39687 0,0.43049 -0.41064,0.53812 -0.6396,0.16766 z m 37.943748,-1.62679 c -0.22648,-0.42319 -0.19747,-0.5668 0.14077,-0.69659 0.54422,-0.20884 1.03787,0.27543 0.83081,0.81502 -0.21864,0.56976 -0.63011,0.51961 -0.97158,-0.11843 z m -26.00595,-0.9569 c -0.20334,-0.20335 0.27517,-1.15584 0.58067,-1.15584 0.12022,0 0.16168,0.29766 0.0921,0.66146 -0.12506,0.65419 -0.34868,0.81851 -0.67281,0.49438 z"
       id="path21" />
  </g>
</svg>
