<?xml version="1.0" encoding="UTF-8" standalone="no"?>
<!-- Created with Inkscape (http://www.inkscape.org/) -->

<svg
   width="47.0527mm"
   height="17.316921mm"
   viewBox="0 0 47.052702 17.316922"
   version="1.1"
   id="svg1"
   inkscape:version="1.4.1-rc (06eac75fbf, 2025-03-29)"
   sodipodi:docname="bushes10.svg"
   xmlns:inkscape="http://www.inkscape.org/namespaces/inkscape"
   xmlns:sodipodi="http://sodipodi.sourceforge.net/DTD/sodipodi-0.dtd"
   xmlns="http://www.w3.org/2000/svg"
   xmlns:svg="http://www.w3.org/2000/svg">
  <sodipodi:namedview
     id="namedview1"
     pagecolor="#ffffff"
     bordercolor="#000000"
     borderopacity="0.25"
     inkscape:showpageshadow="2"
     inkscape:pageopacity="0.0"
     inkscape:pagecheckerboard="0"
     inkscape:deskcolor="#d1d1d1"
     inkscape:document-units="mm"
     inkscape:zoom="0.72248176"
     inkscape:cx="88.583551"
     inkscape:cy="32.526773"
     inkscape:window-width="1850"
     inkscape:window-height="1016"
     inkscape:window-x="0"
     inkscape:window-y="0"
     inkscape:window-maximized="1"
     inkscape:current-layer="layer1" />
  <defs
     id="defs1" />
  <g
     inkscape:label="Layer 1"
     inkscape:groupmode="layer"
     id="layer1"
     transform="translate(-81.491761,-139.70047)">
    <path
       style="fill:#000000"
       d="m 110.3159,156.43107 c -1.01727,-0.85598 -2.27273,-1.11616 -2.50206,-0.51853 -0.15142,0.39457 -0.25975,0.37632 -1.02654,-0.17298 -1.98337,-1.4208 -4.2849,-2.14509 -5.8038,-1.82645 -0.51615,0.10828 -1.36543,0.0414 -2.04828,-0.16123 -0.64159,-0.19042 -1.67636,-0.34622 -2.29949,-0.34622 -1.30302,0 -1.66615,-0.35749 -1.05222,-1.03587 0.39736,-0.43908 0.5765,-0.4471 2.47331,-0.11076 1.12471,0.19943 2.31441,0.29821 2.64378,0.21952 l 0.59885,-0.14308 -0.58246,-0.78782 c -0.46669,-0.63123 -0.78032,-0.78782 -1.57789,-0.78782 -0.63809,0 -1.08062,0.15223 -1.23274,0.42405 -0.39233,0.70105 -1.25253,0.33563 -1.1935,-0.507 0.0406,-0.57979 -0.15562,-0.85391 -0.98693,-1.3787 -1.10544,-0.69783 -2.83337,-0.88062 -3.35869,-0.3553 -0.16484,0.16484 -0.48631,0.22811 -0.71437,0.14059 -0.46473,-0.17833 -0.57177,-0.96948 -0.13118,-0.96948 0.15592,0 0.46208,-0.17859 0.68036,-0.39687 0.2507,-0.2507 0.90152,-0.39676 1.76704,-0.39655 1.07954,2.5e-4 1.53322,0.14055 2.13892,0.66145 0.42282,0.36363 0.92883,0.66114 1.12448,0.66114 0.19564,0 0.35754,0.0893 0.35977,0.19844 0.002,0.10914 0.10615,0.35956 0.23094,0.55648 0.18013,0.28427 0.34724,0.29363 0.811,0.0454 0.48775,-0.26103 0.86489,-0.19329 2.2857,0.41057 1.77759,0.75548 2.35076,0.71776 1.60558,-0.10565 -0.24165,-0.26702 -0.43935,-0.6803 -0.43935,-0.91842 0,-0.23812 -0.18182,-0.96847 -0.40404,-1.62301 -0.57445,-1.69201 -0.0596,-3.75677 1.12634,-4.51697 0.45404,-0.29104 0.90364,-0.82682 0.99912,-1.19062 0.0955,-0.3638 0.39112,-0.86427 0.65699,-1.11214 0.59951,-0.55895 3.03019,-0.92831 3.29451,-0.50064 0.10146,0.16417 0.28903,0.23387 0.41682,0.15489 0.12779,-0.079 0.77128,0.39533 1.42996,1.05402 0.77953,0.77953 1.42775,1.19762 1.85684,1.19762 0.791,0 2.52971,1.45139 2.52971,2.11168 0,0.25815 0.16753,0.60839 0.37228,0.77833 0.20476,0.16993 0.45458,1.01795 0.55515,1.88448 0.10057,0.86653 0.26553,1.57551 0.36659,1.57551 0.2352,0 0.82264,2.18139 0.82264,3.05481 0,0.70829 0.2094,0.85062 1.42811,0.9707 0.63285,0.0624 0.77532,-0.03 0.81637,-0.52917 0.0274,-0.33259 0.19461,-0.74931 0.3717,-0.92605 0.41254,-0.41172 3.90859,-0.38469 4.32674,0.0335 0.16867,0.16867 0.49121,0.30614 0.71677,0.30549 0.96008,-0.003 4.77573,1.40374 4.77573,1.7604 0,0.65546 -0.61128,0.64513 -2.646,-0.0447 -2.31601,-0.78521 -2.5446,-0.83653 -4.58221,-1.02879 -1.36044,-0.12837 -1.52927,-0.092 -1.45035,0.3121 0.0602,0.30836 0.34635,0.46049 0.87821,0.46694 0.65942,0.008 0.78889,0.11656 0.78889,0.66146 0,0.53334 -0.12029,0.64209 -0.66146,0.59797 -0.3638,-0.0297 -1.52466,-0.11616 -2.57968,-0.19222 l -1.91823,-0.13829 v 0.87882 c 0,0.51137 -0.1936,1.04259 -0.46302,1.2705 -0.63194,0.53457 -2.03721,0.58146 -2.45189,0.0818 -0.29636,-0.35709 -0.37214,-0.33421 -0.63427,0.19157 -0.41811,0.83864 -1.55169,0.86626 -2.50855,0.0611 z m 1.03064,-1.14502 c 0,-0.12995 -0.19543,-0.31127 -0.4343,-0.40293 -0.36313,-0.13935 -0.3795,-0.10063 -0.0999,0.23627 0.38103,0.45912 0.53419,0.5069 0.53419,0.16666 z m -4.09623,-1.63096 c 0.21719,-0.68429 1.26317,-1.09898 2.04571,-0.81103 0.7833,0.28822 2.36405,0.32923 2.78006,0.0721 0.23386,-0.14453 0.0911,-0.3805 -0.49025,-0.81031 -0.59751,-0.44175 -0.89937,-0.52721 -1.11182,-0.31476 -0.45476,0.45475 -0.89019,0.35103 -1.83024,-0.43597 -1.21235,-1.01497 -1.94424,-1.38906 -2.7176,-1.38906 -0.95936,0 -0.86362,0.86457 0.18678,1.68663 0.72562,0.56788 0.78423,0.69259 0.3956,0.84172 -0.25093,0.0963 -0.90214,0.099 -1.44714,0.006 -1.68047,-0.28662 -2.04447,-0.29413 -2.18153,-0.045 -0.0728,0.13227 0.63197,0.45601 1.56608,0.71942 0.93411,0.26341 1.82112,0.60167 1.97115,0.7517 0.40864,0.40864 0.64139,0.33279 0.8332,-0.27156 z m 4.72883,-3.57104 c -0.40907,-0.53632 -0.7882,-0.84179 -0.84252,-0.67884 -0.0543,0.16296 -0.33244,0.29628 -0.61805,0.29628 -0.36793,0 -0.70778,-0.40486 -1.16599,-1.38906 -0.73487,-1.57844 -0.80467,-2.26958 -0.29905,-2.96105 0.31285,-0.42785 0.46458,-0.44562 1.3396,-0.15684 0.54274,0.17912 1.48234,0.78325 2.08801,1.3425 0.60567,0.55926 1.12361,0.99403 1.15098,0.96616 0.0274,-0.0279 -0.0455,-0.57023 -0.16185,-1.20526 -0.27134,-1.48055 -1.19519,-2.39866 -2.82556,-2.80802 -0.95309,-0.23931 -1.37181,-0.5036 -1.63006,-1.02888 -0.56219,-1.1435 -1.50228,-1.61748 -2.64709,-1.33461 -0.89107,0.22016 -0.97414,0.31966 -0.97414,1.16673 0,0.83264 -0.0801,0.93507 -0.79375,1.0156 -0.43656,0.0493 -0.92964,0.20192 -1.09572,0.33925 -0.30926,0.25573 -0.76174,2.43012 -0.65405,3.14307 0.0491,0.32495 0.76801,2.08663 0.94293,2.31058 0.0265,0.0339 0.45697,-0.057 0.95665,-0.20192 1.40333,-0.40707 3.01159,-0.0485 4.27824,0.95382 0.7859,0.62191 1.29325,0.84172 1.70451,0.7385 0.32853,-0.0825 0.84617,0.0356 1.17928,0.2689 0.88041,0.61666 0.90603,0.32229 0.0676,-0.77691 z m 0.69032,-1.55757 c 0,-0.0642 -0.11906,-0.19026 -0.26458,-0.2802 -0.14552,-0.0899 -0.26459,-0.0374 -0.26459,0.11668 0,0.15411 0.11907,0.2802 0.26459,0.2802 0.14552,0 0.26458,-0.0525 0.26458,-0.11668 z m -1.31761,-1.33213 c -0.38009,-0.45798 -1.06364,-0.54163 -1.06364,-0.13016 0,0.27362 1.09915,0.80727 1.29447,0.62848 0.0571,-0.0523 -0.0468,-0.27653 -0.23083,-0.49832 z m -22.32041,1.27051 c -0.0981,-0.0981 -0.44534,-0.20458 -0.77171,-0.2367 -0.9414,-0.0926 -2.08989,-0.38223 -2.60131,-0.65593 -0.25896,-0.13859 -1.24555,-0.25199 -2.19241,-0.25199 -1.83161,0 -2.43689,-0.3618 -1.61305,-0.96421 0.32246,-0.23579 0.89059,-0.30481 1.69407,-0.20581 1.32608,0.16341 2.19496,0.30302 2.39951,0.38556 0.0728,0.0294 0.22519,0.0381 0.33872,0.0194 0.11354,-0.0187 0.58979,0.16669 1.05834,0.41198 0.46854,0.24528 1.13876,0.4785 1.48937,0.51827 0.59195,0.0671 1.06872,0.49131 1.07827,0.95931 0.005,0.24685 -0.63837,0.26157 -0.8798,0.0201 z"
       id="path5" />
  </g>
</svg>
