<?xml version="1.0" encoding="UTF-8" standalone="no"?>
<!-- Created with Inkscape (http://www.inkscape.org/) -->

<svg
   width="46.007584mm"
   height="21.269178mm"
   viewBox="0 0 46.007584 21.269179"
   version="1.1"
   id="svg1"
   inkscape:version="1.4.1-rc (06eac75fbf, 2025-03-29)"
   sodipodi:docname="bushes2.svg"
   xmlns:inkscape="http://www.inkscape.org/namespaces/inkscape"
   xmlns:sodipodi="http://sodipodi.sourceforge.net/DTD/sodipodi-0.dtd"
   xmlns="http://www.w3.org/2000/svg"
   xmlns:svg="http://www.w3.org/2000/svg">
  <sodipodi:namedview
     id="namedview1"
     pagecolor="#ffffff"
     bordercolor="#000000"
     borderopacity="0.25"
     inkscape:showpageshadow="2"
     inkscape:pageopacity="0.0"
     inkscape:pagecheckerboard="0"
     inkscape:deskcolor="#d1d1d1"
     inkscape:document-units="mm"
     inkscape:zoom="0.72248176"
     inkscape:cx="87.199433"
     inkscape:cy="39.447363"
     inkscape:window-width="1850"
     inkscape:window-height="1016"
     inkscape:window-x="0"
     inkscape:window-y="0"
     inkscape:window-maximized="1"
     inkscape:current-layer="layer1" />
  <defs
     id="defs1" />
  <g
     inkscape:label="Layer 1"
     inkscape:groupmode="layer"
     id="layer1"
     transform="translate(-82.020834,-137.84844)">
    <path
       style="fill:#000000"
       d="m 114.58858,158.94593 c -0.20509,-0.12701 -0.50274,-0.1893 -0.66146,-0.13842 -0.15872,0.0509 -0.82436,-0.17323 -1.4792,-0.49804 -0.81307,-0.40328 -1.16597,-0.73404 -1.11288,-1.04304 0.0587,-0.34157 -0.11209,-0.45247 -0.69675,-0.45247 -0.5285,0 -0.81478,-0.15407 -0.90134,-0.48507 -0.0698,-0.26679 0.006,-0.50508 0.16758,-0.52952 0.16194,-0.0245 0.72758,-0.11529 1.25699,-0.20188 0.67658,-0.11066 1.33508,0.007 2.21644,0.39723 0.68964,0.30506 1.40822,0.55465 1.59683,0.55465 0.18862,0 0.70706,0.30638 1.15208,0.68085 0.83429,0.70201 1.54229,0.70307 2.12314,0.003 0.23331,-0.28111 -0.02,-0.47949 -1.23287,-0.9655 -0.83958,-0.33644 -1.60379,-0.72574 -1.69825,-0.86513 -0.0944,-0.13939 -0.36234,-0.18029 -0.59531,-0.0909 -0.31421,0.12057 -0.42358,0.002 -0.42358,-0.45822 0,-0.68113 0.50399,-1.21908 1.24362,-1.32743 0.2619,-0.0384 0.48849,-0.30159 0.50355,-0.58494 0.0393,-0.73938 0.5654,-1.62822 1.14842,-1.94024 0.29052,-0.15549 1.18016,-0.19792 2.1106,-0.10067 0.89395,0.0934 1.60448,0.0632 1.59959,-0.068 -0.005,-0.12987 -0.25127,-0.52747 -0.54763,-0.88355 -0.46484,-0.55853 -0.61123,-0.60221 -1.06608,-0.31815 -0.79071,0.4938 -1.63384,0.13513 -1.44558,-0.61496 0.1709,-0.68095 -0.69557,-1.99134 -1.31673,-1.99134 -0.47244,0 -0.4718,0.19585 0.005,1.54737 0.49165,1.39348 0.0455,1.7555 -0.83577,0.67812 -0.54568,-0.66713 -0.60855,-0.95289 -0.46951,-2.13393 0.0883,-0.75 0.0641,-1.42088 -0.0538,-1.49083 -0.11787,-0.07 -0.72792,-0.2122 -1.35567,-0.31611 l -1.14136,-0.18892 0.18269,1.01829 c 0.10048,0.56007 0.3462,1.20627 0.54605,1.43601 0.19985,0.22974 0.36336,0.55716 0.36336,0.7276 0,1.01778 -2.44341,-0.69238 -3.18858,-2.23171 -0.30875,-0.6378 -0.67057,-1.22711 -0.80403,-1.3096 -0.13346,-0.0825 -0.17418,-0.4701 -0.0905,-0.86136 0.63098,-2.94942 0.7963,-3.41963 1.4207,-4.04069 1.01317,-1.00774 1.99462,-1.17037 3.10598,-0.51465 0.59353,0.35019 1.24217,0.50914 1.81852,0.44562 1.09368,-0.12052 2.41147,0.61647 2.76501,1.54637 0.1383,0.36373 0.3924,0.66134 0.56468,0.66134 0.74513,0 3.13077,2.15303 3.6259,3.27236 0.28174,0.63692 0.92864,1.61971 1.43756,2.18398 0.50892,0.56427 1.2201,1.56173 1.5804,2.21657 0.53586,0.97391 0.60807,1.32778 0.39675,1.94412 -0.17635,0.51431 -0.16463,0.95918 0.0369,1.40151 0.36904,0.80995 0.38165,1.86142 0.025,2.08186 -0.14866,0.0919 -1.15181,-0.49641 -2.22924,-1.30731 -1.07742,-0.81089 -2.09361,-1.47434 -2.25819,-1.47434 -0.16459,0 0.0944,0.4741 0.57559,1.05356 0.48116,0.57946 1.00382,1.05571 1.16146,1.05833 0.39698,0.007 2.22691,1.87156 2.22691,2.26952 0,0.69893 -0.88811,0.65834 -1.69814,-0.0776 -1.29473,-1.17632 -3.28852,-2.16881 -2.53645,-1.26262 0.18046,0.21745 0.27421,0.67732 0.20833,1.02195 -0.168,0.87884 0.58483,1.26947 2.72829,1.41565 1.38575,0.0945 1.93218,0.0208 2.47271,-0.33333 0.77945,-0.51071 1.06577,-0.3962 0.83414,0.33361 -0.53827,1.69595 -3.8502,1.77051 -7.49339,0.1687 -0.76384,-0.33584 -0.93195,-0.3262 -1.5875,0.091 -0.40326,0.25667 -0.80003,0.55917 -0.88173,0.67223 -0.22236,0.30774 -2.97017,0.48464 -3.39935,0.21884 z m -0.42087,-1.33823 c -0.0899,-0.14552 -0.34211,-0.26458 -0.5604,-0.26458 -0.21828,0 -0.32329,0.11906 -0.23335,0.26458 0.0899,0.14553 0.34212,0.26459 0.5604,0.26459 0.21828,0 0.32329,-0.11906 0.23335,-0.26459 z m -1.45521,-0.52916 c 0,-0.14552 -0.20836,-0.26276 -0.46302,-0.26053 -0.3957,0.004 -0.40531,0.0413 -0.0662,0.26053 0.49933,0.32269 0.52917,0.32269 0.52917,0 z m 8.20209,-2.38125 c 0,-0.14552 -0.11907,-0.26459 -0.26459,-0.26459 -0.14552,0 -0.26458,0.11907 -0.26458,0.26459 0,0.14552 0.11906,0.26458 0.26458,0.26458 0.14552,0 0.26459,-0.11906 0.26459,-0.26458 z m -1.73488,-1.30625 c 0.63544,-0.70215 0.31407,-1.075 -0.92657,-1.075 -0.82771,0 -1.04272,0.0982 -1.04272,0.47625 0,1.0969 1.19081,1.45896 1.96929,0.59875 z m 3.58696,-2.39792 c 0,-0.14552 -0.10933,-0.26458 -0.24295,-0.26458 -0.13361,0 -0.46104,-0.0693 -0.7276,-0.15389 -0.4435,-0.14082 -0.44104,-0.11835 0.0289,0.26458 0.58815,0.47922 0.94162,0.53699 0.94162,0.15389 z m 0,-3.29881 c 0,-0.0284 -0.61113,-0.44765 -1.35807,-0.93165 -1.16802,-0.75685 -1.43157,-0.8341 -1.88328,-0.55201 -0.35527,0.22188 -0.61209,0.24112 -0.79373,0.0595 -0.69374,-0.69374 0.74218,-1.74452 1.95616,-1.43149 0.56495,0.14568 0.58837,0.11776 0.24859,-0.29637 -0.69944,-0.85251 -1.34147,-1.04239 -1.87918,-0.55577 -0.6451,0.58381 -1.0516,0.29664 -1.05888,-0.74805 -0.007,-0.9658 -0.83017,-2.20351 -1.28072,-1.92505 -0.16549,0.10227 -0.30089,0.42089 -0.30089,0.70803 0,0.29636 -0.25739,0.62229 -0.59531,0.75385 -0.73338,0.28551 -1.25678,-0.27474 -1.25678,-1.34529 0,-0.61598 -0.15191,-0.77269 -0.96729,-0.99782 -0.53201,-0.1469 -1.12742,-0.17747 -1.32314,-0.0679 -0.5694,0.31865 -1.41373,2.1965 -1.41373,3.14421 0,0.94008 0.27181,1.10213 0.79375,0.47323 0.18115,-0.21829 0.5832,-0.39688 0.89342,-0.39688 0.93692,0 5.01284,2.09842 5.73247,2.95127 0.69563,0.8244 1.74196,1.18387 3.49442,1.20049 0.5457,0.005 0.99219,-0.0138 0.99219,-0.0422 z m -19.68998,8.88982 c -0.0781,-0.12641 -0.61706,-0.30579 -1.19763,-0.39863 -1.71829,-0.27477 -2.454194,-0.7113 -2.326364,-1.38 0.09261,-0.48446 0.0028,-0.56966 -0.537988,-0.5103 -0.357036,0.0392 -1.433785,-0.33055 -2.392774,-0.82166 -1.90646,-0.97631 -2.430266,-1.08824 -2.430266,-0.5193 0,0.2297 0.407676,0.4425 1.058334,0.55242 0.582083,0.0983 1.058333,0.2874 1.058333,0.42013 0,0.13273 0.217371,0.24133 0.483046,0.24133 0.665228,0 1.739668,1.1941 1.540784,1.71238 -0.144695,0.37707 -0.254036,0.37533 -1.157952,-0.0185 -0.548993,-0.23918 -1.414889,-0.51871 -1.924211,-0.62118 -0.509323,-0.10247 -1.186105,-0.32622 -1.503961,-0.49722 -0.317855,-0.171 -0.816385,-0.31091 -1.107844,-0.31091 -0.457865,0 -0.509491,0.12593 -0.379651,0.92604 0.131058,0.80761 0.08048,0.92605 -0.395492,0.92605 -0.300173,0 -0.77972,-0.32743 -1.065659,-0.72761 -0.28594,-0.40018 -1.196512,-1.08479 -2.023493,-1.52135 -0.826981,-0.43657 -1.755349,-0.93532 -2.063041,-1.10835 -0.743096,-0.41787 -1.126622,-0.14719 -0.60622,0.42784 0.497981,0.55027 0.538615,1.23798 0.08338,1.41118 -0.482534,0.18359 -1.50835,-0.25663 -1.687818,-0.72432 -0.199039,-0.51869 -0.627286,-0.52303 -0.627286,-0.006 0,0.51271 -0.385934,0.50293 -1.199934,-0.0304 -0.443702,-0.29072 -0.652149,-0.67128 -0.652149,-1.19062 0,-0.79483 0.333898,-0.92638 2.088675,-0.8229 0.348406,0.0206 0.884188,-0.10043 1.190625,-0.26885 0.630348,-0.34643 1.625564,-0.28686 2.409242,0.1442 0.291041,0.16009 0.690886,0.31792 0.888544,0.35073 0.197658,0.0328 0.614377,0.28873 0.926042,0.56868 0.996372,0.895 1.238565,0.93475 1.90141,0.31204 0.506807,-0.47612 0.710623,-0.53223 1.015192,-0.27946 0.440484,0.36557 0.560138,0.22179 0.818873,-0.98397 0.239794,-1.11749 -0.258799,-1.7036 -2.207499,-2.59495 -1.46801,-0.67148 -3.739437,-2.35828 -3.739437,-2.77696 0,-0.12799 -0.238125,-0.47084 -0.529167,-0.76188 -0.911683,-0.91168 -0.622641,-2.97852 0.49665,-3.55137 0.590936,-0.30244 0.890398,-0.29246 2.016892,0.0672 1.539812,0.4916 1.675515,0.58308 3.205861,2.16127 1.62295,1.67369 1.893745,3.65481 0.536092,3.92201 -0.338026,0.0665 -0.434662,-0.12465 -0.434662,-0.8599 0,-0.51999 -0.09296,-0.94544 -0.206576,-0.94544 -0.113618,0 -0.332585,-0.33383 -0.486595,-0.74185 -0.203036,-0.53791 -0.76377,-0.98241 -2.039635,-1.61686 -1.906581,-0.94809 -2.55886,-0.92848 -2.55886,0.0769 0,1.25424 5.134456,4.98303 6.264447,4.54941 0.213658,-0.082 0.61797,-0.0263 0.89847,0.12387 0.57692,0.30876 0.631041,0.18113 0.236107,-0.55681 -0.235934,-0.44085 -0.184605,-0.51178 0.37036,-0.51178 0.450762,0 1.148857,0.5311 2.324413,1.76838 2.599242,2.73573 2.879642,2.9717 3.849452,3.23947 0.75561,0.20864 0.9923,0.16493 1.4193,-0.26206 0.28185,-0.28185 0.74355,-0.51245 1.026,-0.51245 0.65824,0 0.83268,-0.30086 0.92486,-1.59513 0.0623,-0.87472 -0.008,-1.05071 -0.4172,-1.05071 -0.27062,0 -0.49204,-0.097 -0.49204,-0.21558 0,-0.2802 -1.48386,-0.98441 -2.58295,-1.22581 -0.83003,-0.18231 -1.544571,-0.95748 -1.200105,-1.30194 0.09188,-0.0919 0.441915,-0.16708 0.777825,-0.16708 0.53174,0 0.59105,-0.0985 0.45846,-0.76143 -0.1911,-0.95549 0.28636,-1.88441 0.96858,-1.88441 0.7861,0 0.63208,-0.44012 -0.56447,-1.61297 -1.06855,-1.0474 -2.180206,-1.32818 -2.256041,-0.56984 -0.01819,0.1819 -0.04796,0.50932 -0.06615,0.7276 -0.05979,0.71744 -0.82694,0.41459 -1.262273,-0.49832 -0.313013,-0.65639 -0.858862,-1.1117 -2.04624,-1.70681 -1.756104,-0.88017 -3.339143,-1.30108 -3.339143,-0.88784 0,0.37036 3.131061,3.44575 4.299479,4.22304 1.044824,0.69506 1.310325,1.38678 0.529167,1.37866 -0.978947,-0.0102 -4.773385,-2.99558 -5.483636,-4.31444 -0.344729,-0.64012 -0.427959,-1.15512 -0.298344,-1.84602 0.176431,-0.94046 0.199935,-0.95623 1.266905,-0.85008 0.597927,0.0595 1.212511,0.23352 1.365743,0.38675 0.153232,0.15323 0.563833,0.27861 0.912447,0.27861 0.348614,0 0.949879,0.21733 1.336145,0.48297 1.213495,0.83451 2.267861,1.14972 2.968757,0.88752 1.104774,-0.4133 1.945924,0.14354 3.904884,2.585 0.75311,0.9386 1.36929,1.82095 1.36929,1.96078 0,0.34232 1.55222,1.70979 2.15962,1.90257 0.26741,0.0849 0.48621,0.26535 0.48621,0.40107 0,0.13571 0.10505,0.24675 0.23346,0.24675 0.1284,0 0.74108,0.50602 1.36151,1.12448 0.88017,0.87738 1.12154,1.30798 1.09845,1.95952 -0.0177,0.49974 0.12134,0.89296 0.34633,0.9793 0.37792,0.14502 1.45817,2.02726 1.45817,2.54075 0,0.15131 -0.21439,0.27512 -0.47642,0.27512 -0.59126,0 -1.89998,-0.59143 -1.90277,-0.8599 -10e-4,-0.10914 -0.21042,-0.20222 -0.46508,-0.20685 -0.25467,-0.005 -0.69414,-0.18322 -0.97662,-0.39687 -0.5365,-0.40579 -2.2991,-0.56136 -1.85443,-0.16367 0.13825,0.12364 0.78714,0.42842 1.44198,0.6773 2.86372,1.08838 3.37625,1.54251 2.48028,2.19765 -0.37382,0.27335 -0.53597,0.26734 -0.87429,-0.0324 -0.50287,-0.44551 -3.09899,-1.17381 -4.91328,-1.37832 l -1.32292,-0.14913 1.04761,0.93973 c 0.94269,0.84561 1.70397,1.07471 2.1359,0.64278 0.21954,-0.21954 1.18212,0.067 1.18212,0.35193 0,0.13069 -0.38695,0.47355 -0.8599,0.76191 -0.88424,0.53913 -3.21186,0.73716 -3.48425,0.29643 z m -6.202354,-5.07064 c -0.755899,-0.62973 -1.873979,-0.7431 -1.372786,-0.1392 0.173988,0.20964 0.635051,0.42993 1.024584,0.48952 0.389534,0.0596 0.767774,0.12224 0.840534,0.1392 0.07276,0.017 -0.148789,-0.20332 -0.492332,-0.48952 z m 10.644044,-2.6057 c -1.09908,-1.10401 -1.79175,-1.24975 -2.15462,-0.45334 -0.28231,0.6196 -0.25946,0.64079 0.60434,0.5605 0.49375,-0.0459 1.11191,0.079 1.37367,0.2775 0.84612,0.64165 0.95728,0.39953 0.17661,-0.38466 z m -3.62813,-2.3672 c 0.0659,-0.43153 -0.0908,-0.65677 -0.58831,-0.84592 -0.90648,-0.34465 -0.8824,-0.35835 -0.82571,0.46981 0.0791,1.15512 1.2477,1.46596 1.41402,0.37611 z"
       id="path8" />
  </g>
</svg>
