<?xml version="1.0" encoding="UTF-8" standalone="no"?>
<!-- Created with Inkscape (http://www.inkscape.org/) -->

<svg
   width="36.8269mm"
   height="12.253522mm"
   viewBox="0 0 36.826901 12.253522"
   version="1.1"
   id="svg1"
   inkscape:version="1.4.1-rc (06eac75fbf, 2025-03-29)"
   sodipodi:docname="bushes4.svg"
   xmlns:inkscape="http://www.inkscape.org/namespaces/inkscape"
   xmlns:sodipodi="http://sodipodi.sourceforge.net/DTD/sodipodi-0.dtd"
   xmlns="http://www.w3.org/2000/svg"
   xmlns:svg="http://www.w3.org/2000/svg">
  <sodipodi:namedview
     id="namedview1"
     pagecolor="#ffffff"
     bordercolor="#000000"
     borderopacity="0.25"
     inkscape:showpageshadow="2"
     inkscape:pageopacity="0.0"
     inkscape:pagecheckerboard="0"
     inkscape:deskcolor="#d1d1d1"
     inkscape:document-units="mm"
     inkscape:zoom="0.72248176"
     inkscape:cx="69.205899"
     inkscape:cy="22.837947"
     inkscape:window-width="1850"
     inkscape:window-height="1016"
     inkscape:window-x="0"
     inkscape:window-y="0"
     inkscape:window-maximized="1"
     inkscape:current-layer="layer1" />
  <defs
     id="defs1" />
  <g
     inkscape:label="Layer 1"
     inkscape:groupmode="layer"
     id="layer1"
     transform="translate(-86.783334,-142.08178)">
    <path
       style="fill:#000000"
       d="m 105.30417,153.7954 c -1.67349,-0.2569 -3.46604,-0.42093 -3.98345,-0.36452 -0.52996,0.0578 -1.15361,-0.0531 -1.428227,-0.25388 -0.458817,-0.3355 -0.443628,-0.37313 0.258277,-0.63999 0.75751,-0.28801 3.30117,-0.26382 3.30126,0.0314 8e-5,0.22538 2.86987,0.499 3.34031,0.31848 0.29249,-0.11224 0.23928,-0.22027 -0.22064,-0.44802 -1.83303,-0.9077 -3.13643,-1.13164 -5.04428,-0.86665 -0.40372,0.0561 -0.7977,-10e-4 -0.87551,-0.12695 -0.0778,-0.1259 0.0296,-0.22891 0.23862,-0.22891 0.20905,0 0.53954,-0.19212 0.73442,-0.42694 0.44122,-0.53164 2.86087,-0.32608 3.30478,0.28075 0.17255,0.23588 0.38359,0.29642 0.52916,0.1518 0.23923,-0.23766 2.76679,0.44392 3.17819,0.85702 0.11018,0.11064 -0.0174,0.36036 -0.28346,0.55493 -0.59169,0.43265 -0.25028,0.65774 0.68781,0.45347 1.20259,-0.26186 0.52307,-1.16693 -1.6839,-2.24283 -1.07305,-0.52311 -2.10012,-0.95112 -2.28238,-0.95112 -0.18226,0 -0.25779,-0.11906 -0.16786,-0.26458 0.0899,-0.14552 0.54345,-0.26641 1.00781,-0.26863 0.46435,-0.002 1.0161,-0.11277 1.22611,-0.24564 0.54675,-0.34593 -0.0374,-1.53485 -0.91882,-1.86995 -0.9217,-0.35043 -2.7829,-0.25418 -3.45289,0.17856 -0.70496,0.45534 -0.90492,0.23718 -0.90492,-0.9873 0,-0.85183 -0.1298,-1.06469 -0.94116,-1.54341 -0.64053,-0.37792 -1.39426,-0.5553 -2.359611,-0.5553 -1.758955,0 -2.255475,0.18097 -2.255475,0.82206 0,0.32447 -0.186358,0.50086 -0.529166,0.50086 -0.409706,0 -0.529167,-0.17639 -0.529167,-0.78134 0,-0.63472 0.175963,-0.86483 0.93772,-1.22631 1.918422,-0.91035 6.561939,0.26959 6.633329,1.68556 0.0422,0.83615 0.2201,0.94449 1.07752,0.65604 1.44794,-0.4871 4.1976,0.64126 4.45862,1.82966 0.11808,0.53762 0.55604,0.95487 1.6625,1.58387 0.8262,0.46969 1.62125,0.99841 1.76677,1.17494 0.20557,0.24936 0.58917,0.25196 1.71979,0.0116 1.49783,-0.31838 2.91042,-1.33167 2.91042,-2.08772 0,-0.53799 0.47885,-0.8994 1.56229,-1.17912 l 0.90083,-0.23257 -1.10721,-0.36542 c -0.84538,-0.279 -1.18042,-0.29221 -1.41677,-0.0559 -0.51187,0.51186 -0.77297,0.35236 -0.68432,-0.41805 0.0691,-0.6002 0.21112,-0.72578 0.81132,-0.71717 0.40019,0.006 0.72761,-0.0819 0.72761,-0.19487 0,-0.29632 -3.81719,-2.06452 -4.4569,-2.06452 -0.29643,0 -0.60489,-0.10669 -0.68548,-0.23708 -0.14258,-0.2307 -2.05593,0.20344 -2.39619,0.5437 -0.0909,0.0909 0.0112,0.58786 0.22695,1.10425 0.33546,0.80288 0.3387,0.98339 0.0223,1.24595 -0.29754,0.24693 -0.48514,0.11182 -0.95833,-0.69018 -0.72878,-1.23519 -0.7762,-1.75719 -0.22592,-2.48671 0.54702,-0.72521 2.21795,-0.88124 4.31153,-0.4026 0.8396,0.19195 1.56729,0.32924 1.61709,0.3051 0.19965,-0.0968 3.72582,2.30845 4.52957,3.08967 0.47262,0.45935 1.23931,1.13285 1.70376,1.49665 0.46446,0.3638 1.30303,1.30247 1.86351,2.08592 0.83546,1.16786 0.97205,1.52534 0.75821,1.98438 -0.40006,0.85878 -1.9868,1.43448 -4.19348,1.5215 -2.29059,0.0903 -3.06321,-0.10866 -3.25395,-0.83806 -0.0947,-0.36207 -0.36279,-0.52041 -0.88119,-0.52041 h -0.7451 l 0.65418,0.44769 c 1.28621,0.8802 1.38191,1.43258 0.22487,1.29787 -0.45441,-0.0529 -1.13902,0.0575 -1.52136,0.24527 -1.62634,0.79889 -2.10527,0.9079 -3.73786,0.85083 -0.94589,-0.0331 -3.08901,-0.27031 -4.7625,-0.5272 z m 6.1706,-0.81816 c 0.22359,0.22359 1.50232,-0.13852 1.50232,-0.42543 0,-0.40256 -1.40643,-0.45201 -2.19147,-0.0771 -0.40494,0.1934 -0.6656,0.46596 -0.57925,0.60568 0.10019,0.16211 0.33007,0.1614 0.63532,-0.002 0.26307,-0.1408 0.54796,-0.18635 0.63308,-0.10123 z m 2.43924,-1.74328 c -0.0959,-0.1552 -0.30102,-0.28218 -0.45577,-0.28218 -0.17544,0 -0.15537,0.15181 0.0533,0.40327 0.36289,0.43725 0.68721,0.33967 0.40245,-0.12109 z m 6.79448,0.19017 c 0.88046,-0.20159 0.73832,-0.40247 -0.51392,-0.72628 -0.6954,-0.17982 -1.42645,-0.3762 -1.62455,-0.43639 -0.23842,-0.0724 -0.30551,0.0331 -0.19844,0.31208 0.089,0.23183 0.16175,0.6034 0.16175,0.8257 0,0.39184 0.54512,0.39808 2.17516,0.0249 z m -10.90641,-0.84092 c 0,-0.0572 -0.17859,-0.17252 -0.39687,-0.25628 -0.21828,-0.0838 -0.39688,-0.037 -0.39688,0.10398 0,0.14096 0.1786,0.25628 0.39688,0.25628 0.21828,0 0.39687,-0.0468 0.39687,-0.10398 z m 10.45105,-1.48352 c -0.0899,-0.14552 -0.30533,-0.26276 -0.47864,-0.26053 -0.18934,0.002 -0.15671,0.10642 0.0818,0.26053 0.5083,0.32849 0.59989,0.32849 0.39688,0 z m -28.464761,3.59675 c -0.06063,-0.0591 -0.467431,-0.16569 -0.903993,-0.23691 -2.660922,-0.43404 -3.142922,-1.08687 -0.595313,-0.8063 0.909505,0.10017 2.576381,0.16158 3.704167,0.13647 1.224787,-0.0273 2.050521,0.0612 2.050521,0.21967 0,0.14593 -0.20836,0.28346 -0.463021,0.30562 -0.68501,0.0596 -0.940113,0.12066 -1.481911,0.35456 -0.310408,0.13401 -0.564505,0.0904 -0.693956,-0.11904 -0.153926,-0.24905 -0.33858,-0.25855 -0.749653,-0.0385 -0.600042,0.32113 -0.703914,0.34324 -0.866841,0.18448 z m 6.164894,-1.38483 c -0.408816,-0.46629 -0.92187,-0.71336 -1.5875,-0.76449 -0.540909,-0.0416 -1.159238,-0.11633 -1.374064,-0.16618 -0.231549,-0.0537 -0.425224,0.13382 -0.475643,0.46058 -0.07926,0.51366 -0.162783,0.53147 -1.226135,0.26148 -0.627597,-0.15936 -1.325897,-0.44312 -1.551777,-0.63058 -0.265919,-0.22069 -1.001762,-0.31286 -2.087438,-0.26147 -1.509006,0.0714 -1.685205,0.13892 -1.761295,0.67468 -0.05433,0.38258 -0.267071,0.59531 -0.595312,0.59531 -0.386647,0 -0.510765,-0.18556 -0.510765,-0.7636 0,-0.61526 0.183253,-0.85056 0.943338,-1.21125 0.805193,-0.38209 1.415444,-0.41932 4.167187,-0.25427 1.773118,0.10635 3.43221,0.20068 3.686871,0.20961 0.254661,0.009 0.463021,0.10979 0.463021,0.22413 0,0.11433 0.358218,0.20788 0.796041,0.20788 0.92623,0 2.416002,1.18311 2.199665,1.74687 -0.199171,0.51903 -0.39486,0.45981 -1.086194,-0.3287 z"
       id="path15" />
  </g>
</svg>
