<?xml version="1.0" encoding="UTF-8" standalone="no"?>
<!-- Created with Inkscape (http://www.inkscape.org/) -->

<svg
   width="45.876034mm"
   height="21.845591mm"
   viewBox="0 0 45.876034 21.845591"
   version="1.1"
   id="svg1"
   inkscape:version="1.4.1-rc (06eac75fbf, 2025-03-29)"
   sodipodi:docname="bushes1.svg"
   xmlns:inkscape="http://www.inkscape.org/namespaces/inkscape"
   xmlns:sodipodi="http://sodipodi.sourceforge.net/DTD/sodipodi-0.dtd"
   xmlns="http://www.w3.org/2000/svg"
   xmlns:svg="http://www.w3.org/2000/svg">
  <sodipodi:namedview
     id="namedview1"
     pagecolor="#ffffff"
     bordercolor="#000000"
     borderopacity="0.25"
     inkscape:showpageshadow="2"
     inkscape:pageopacity="0.0"
     inkscape:pagecheckerboard="0"
     inkscape:deskcolor="#d1d1d1"
     inkscape:document-units="mm"
     inkscape:zoom="0.72248176"
     inkscape:cx="85.815315"
     inkscape:cy="40.831481"
     inkscape:window-width="1850"
     inkscape:window-height="1016"
     inkscape:window-x="0"
     inkscape:window-y="0"
     inkscape:window-maximized="1"
     inkscape:current-layer="layer1" />
  <defs
     id="defs1" />
  <g
     inkscape:label="Layer 1"
     inkscape:groupmode="layer"
     id="layer1"
     transform="translate(-82.285417,-137.58345)">
    <path
       style="fill:#000000"
       d="m 107.19594,159.20027 c 0.0582,-0.17462 0.19215,-0.30857 0.29765,-0.29766 0.31637,0.0327 0.2551,0.39563 -0.086,0.50933 -0.17462,0.0582 -0.26987,-0.037 -0.21166,-0.21167 z m -14.897534,-1.46552 c -0.07115,-0.0712 -0.500989,-0.17005 -0.955188,-0.21977 -0.454199,-0.0497 -0.981372,-0.21244 -1.171496,-0.36159 -0.420808,-0.3301 -1.307195,-0.57868 -2.771401,-0.7772 -1.005628,-0.13635 -1.110542,-0.0951 -1.190625,0.46807 -0.04872,0.34262 -0.302733,0.65856 -0.570528,0.70962 -0.621628,0.11853 -1.565055,-0.73044 -1.371685,-1.23435 0.141356,-0.36837 -0.666977,-1.36351 -1.111107,-1.36789 -0.294219,-0.003 -0.870959,-1.31545 -0.870959,-1.98214 0,-0.30568 0.142875,-0.69867 0.3175,-0.87329 0.386205,-0.38621 2.232132,-0.42263 2.463292,-0.0486 0.0914,0.14789 0.28224,0.19717 0.42408,0.10951 0.14184,-0.0877 0.401899,-0.0399 0.577909,0.10621 0.214777,0.17825 0.734786,0.17068 1.581261,-0.023 1.136912,-0.26016 1.337907,-0.23194 2.038929,0.28635 0.427727,0.31623 0.881888,0.57497 1.009247,0.57497 0.276777,0 1.641948,1.49214 1.641948,1.79466 0,0.32325 2.966711,0.20263 3.604111,-0.14653 0.490805,-0.26886 0.536121,-0.44579 0.360365,-1.40692 -0.211837,-1.15845 -0.579018,-1.55329 -1.450934,-1.56024 -0.291042,-0.002 -1.215306,-0.54287 -2.053921,-1.20122 -1.258992,-0.98836 -1.498317,-1.30233 -1.373075,-1.80133 0.08342,-0.33238 0.181992,-0.81087 0.219042,-1.06331 0.124128,-0.84574 0.915819,-1.536 1.439963,-1.25549 0.281349,0.15057 0.628346,0.15781 0.854844,0.0178 0.816601,-0.50469 2.089505,-0.19163 3.062297,0.75313 0.834801,0.81075 1.1395,0.93292 2.49129,0.99893 2.416005,0.11798 2.944305,0.52095 3.624655,2.76475 0.41067,1.35438 0.50499,2.05058 0.32369,2.38933 -0.2846,0.53178 -0.20462,0.60968 0.93621,0.91177 1.33341,0.35308 2.47992,0.33224 2.62573,-0.0477 0.0879,-0.22894 0.59433,-0.35387 1.43462,-0.35387 0.82746,0 1.41748,-0.14298 1.62578,-0.39397 0.17983,-0.21668 0.41068,-0.34221 0.51301,-0.27897 0.10234,0.0632 0.39323,-0.23572 0.64644,-0.66437 0.25321,-0.42865 0.54942,-0.77936 0.65825,-0.77936 0.24626,0 0.20102,-1.77679 -0.0657,-2.57969 -0.10877,-0.32742 -0.31598,-0.59531 -0.46048,-0.59531 -0.1445,0 -0.22577,-0.44649 -0.18061,-0.99219 0.0641,-0.77451 0.1837,-0.97513 0.54514,-0.91444 0.26221,0.044 0.46302,-0.0871 0.46302,-0.30242 0,-0.45742 0.7126,-0.78214 0.93318,-0.42523 0.086,0.13917 0.29818,0.25038 0.4715,0.24715 0.47524,-0.009 -0.94166,-1.03978 -1.43843,-1.04657 -0.60108,-0.008 -1.14776,-0.69228 -0.7498,-0.93823 0.16527,-0.10214 0.23556,-0.43397 0.15621,-0.73739 -0.0793,-0.30343 -0.0287,-0.69091 0.11251,-0.86108 0.17234,-0.20766 0.1252,-0.41859 -0.14337,-0.64148 -0.22007,-0.18264 -0.40013,-0.65264 -0.40013,-1.04443 0,-0.54959 -0.2055,-0.81034 -0.8994,-1.14124 -1.34267,-0.64028 -2.70326,-0.84116 -2.95361,-0.4361 -0.12115,0.19604 -0.0782,0.38263 0.102,0.44269 0.57156,0.19052 0.32077,0.80451 -0.54847,1.34277 -1.23349,0.76381 -1.80248,1.84959 -1.60547,3.06363 0.0884,0.54506 0.32216,1.05293 0.51934,1.1286 0.19719,0.0757 0.35852,0.27479 0.35852,0.4425 0,0.1677 0.23813,0.45363 0.52917,0.63539 0.66628,0.4161 0.67026,0.86851 0.0139,1.57307 -0.32658,0.35054 -0.48298,0.8291 -0.42704,1.30666 0.0486,0.41445 0.10184,0.91613 0.11843,1.11484 0.0166,0.19871 0.52805,0.8164 1.13657,1.37265 0.91275,0.83433 1.19558,0.96362 1.61591,0.73867 0.36094,-0.19317 0.59765,-0.18319 0.81182,0.0342 0.37199,0.37763 -0.53882,1.15422 -1.10078,0.93858 -0.19798,-0.076 -0.61812,-0.14162 -0.93364,-0.14589 -0.31552,-0.004 -0.96867,-0.36696 -1.45145,-0.80599 -0.96815,-0.88044 -1.35822,-2.40766 -1.10991,-4.34563 0.11539,-0.90054 0.0276,-1.16507 -0.58916,-1.77424 -0.68298,-0.67464 -0.71517,-0.81194 -0.55834,-2.38125 0.17249,-1.72592 0.69484,-3.09864 1.31812,-3.46395 0.1981,-0.11612 0.60167,-0.7412 0.8968,-1.38907 0.52843,-1.15996 0.55571,-1.17754 1.78678,-1.15157 1.75091,0.0369 2.24251,0.22968 3.51831,1.37941 0.64251,0.57903 1.1906,0.89392 1.28633,0.73903 0.0963,-0.1558 0.58427,0.11258 1.15441,0.6349 0.94137,0.86241 1.73391,0.99457 1.80392,0.30083 0.0168,-0.16633 0.0582,-0.42148 0.092,-0.567 0.0338,-0.14552 0.0796,-0.58926 0.10177,-0.98609 0.0256,-0.4581 0.29382,-0.88762 0.73475,-1.17652 0.6539,-0.42846 0.74012,-0.42881 1.47665,-0.006 1.02659,0.58918 1.53307,0.56782 1.53307,-0.0646 0,-0.77137 0.35978,-0.86196 2.17784,-0.54836 2.19182,0.37806 2.78305,0.709 3.16787,1.7732 0.17655,0.48825 0.58617,1.06147 0.91027,1.27383 0.41919,0.27467 0.63624,0.75025 0.75207,1.64788 0.0896,0.69398 0.27862,1.47309 0.42016,1.73135 0.14155,0.25825 0.30802,1.07224 0.36994,1.80885 0.0619,0.73661 0.23679,1.48894 0.38859,1.67186 0.19465,0.23453 0.15161,0.69765 -0.14597,1.57101 -0.31667,0.92939 -0.34756,1.32812 -0.12376,1.59778 0.31129,0.37509 0.30551,2.00906 -0.007,2.00906 -0.0988,0 -0.25433,0.29766 -0.34564,0.66146 -0.10418,0.41509 -0.35318,0.66146 -0.6685,0.66146 -0.89696,0 -1.33952,0.30858 -1.33952,0.934 0,0.62033 -1.3677,2.21948 -1.93858,2.26664 -1.6419,0.13561 -4.14683,-0.48784 -4.14683,-1.0321 0,-0.13184 0.85187,-0.31113 1.89304,-0.39841 1.68118,-0.14095 2.6559,-0.48438 2.32211,-0.81817 -0.25651,-0.25651 -1.64116,-0.48851 -1.49395,-0.25031 0.22704,0.36736 -0.2321,0.98373 -0.57495,0.77184 -0.1618,-0.1 -0.29417,-0.33115 -0.29417,-0.51368 0,-0.18253 -0.40606,-0.4912 -0.90235,-0.68593 -0.95009,-0.37279 -1.01581,-0.87392 -0.20073,-1.53065 0.55428,-0.4466 0.92848,-0.41768 0.74607,0.0577 -0.22805,0.59429 0.33067,0.77578 0.87415,0.28394 0.68171,-0.61694 0.38408,-1.41409 -0.69655,-1.8656 -0.79613,-0.33265 -0.87111,-0.44363 -0.61854,-0.91556 0.27924,-0.52177 0.79795,-0.74062 0.79795,-0.33667 0,0.11019 0.54549,0.15696 1.21219,0.10393 1.16209,-0.0924 1.20508,-0.12531 1.04003,-0.79565 -0.0947,-0.38459 -0.53449,-1.07592 -0.97735,-1.53629 -0.44285,-0.46036 -0.73216,-0.9552 -0.64289,-1.09964 0.25496,-0.41253 1.29402,-0.0261 1.94738,0.72421 0.4963,0.56995 0.59505,0.60432 0.59532,0.20714 1.8e-4,-0.26189 -0.18802,-0.84037 -0.41821,-1.28551 -0.36045,-0.69703 -0.52569,-0.78792 -1.19063,-0.65493 -0.82644,0.16528 -1.00506,-0.10338 -0.40167,-0.60415 0.44416,-0.36862 0.50843,-1.99118 0.1184,-2.98918 -0.22413,-0.57351 -0.19502,-0.80395 0.14441,-1.14338 0.53452,-0.53452 0.56025,-0.4254 -0.34479,-1.46199 -0.94254,-1.07953 -1.35048,-0.85959 -1.98097,1.06802 -0.49017,1.49861 -0.53014,2.22462 -0.1605,2.9153 0.31131,0.58168 0.0879,1.32469 -0.39835,1.32469 -0.57213,0 -0.95044,-1.58266 -0.76664,-3.20724 0.15167,-1.34062 0.11133,-1.53465 -0.37294,-1.79382 -1.33384,-0.71385 -1.86218,0.0791 -0.80354,1.20594 0.48095,0.51195 0.51437,0.66923 0.21807,1.02625 -0.21245,0.25599 -0.57472,0.36522 -0.92209,0.27803 -0.3147,-0.079 -0.77704,0.006 -1.02743,0.1893 -0.37387,0.27338 -0.40517,0.46466 -0.17508,1.06986 0.15411,0.40533 0.2802,1.19843 0.2802,1.76246 0,0.56402 0.10171,1.08835 0.22603,1.16519 0.12432,0.0768 0.30008,0.84812 0.39058,1.71398 0.15617,1.4942 -0.032,2.58266 -0.67831,3.92322 -0.20937,0.4343 -0.19604,0.69065 0.0514,0.98882 0.50983,0.6143 0.14529,1.24697 -0.60937,1.05757 -0.49027,-0.12305 -0.66332,-0.0359 -0.77478,0.39037 -0.19589,0.74907 0.18254,0.68995 1.56777,-0.24493 0.64686,-0.43656 1.33223,-0.79375 1.52303,-0.79375 0.49559,0 0.19687,1.3265 -0.3423,1.52 -0.23541,0.0845 -0.74406,0.37236 -1.13032,0.63972 -0.38627,0.26736 -1.08477,0.48611 -1.55222,0.48611 -0.72024,0 -0.82875,-0.0809 -0.71124,-0.53027 0.10687,-0.40865 -0.0226,-0.56921 -0.56445,-0.70004 -0.38672,-0.0934 -1.01916,-0.39053 -1.40543,-0.66035 -0.84856,-0.59276 -1.01749,-0.60933 -1.01749,-0.0998 0,0.21492 0.29766,0.5858 0.66146,0.82418 0.3638,0.23837 0.66146,0.67272 0.66146,0.96521 0,0.45673 -0.11905,0.508 -0.8433,0.36315 -0.46382,-0.0928 -1.07737,-0.4199 -1.36345,-0.72698 l -0.52015,-0.55831 -0.42249,0.54 c -0.3452,0.44121 -0.66932,0.52534 -1.77184,0.45987 -0.74215,-0.0441 -1.59752,-0.21293 -1.90084,-0.37526 -1.16416,-0.62304 -2.96751,-0.29226 -2.96751,0.54431 0,0.60715 -0.45712,1.5418 -0.75406,1.5418 -0.11345,0 -0.40693,-0.42079 -0.65218,-0.93509 -0.44184,-0.92654 -0.45982,-0.9344 -1.967235,-0.85989 -1.407788,0.0696 -1.515142,0.11962 -1.438542,0.6705 0.06677,0.48022 -0.04467,0.59531 -0.576414,0.59531 -0.362555,0 -0.861018,-0.20182 -1.107696,-0.4485 -0.287162,-0.28716 -1.022204,-0.49 -2.043286,-0.56386 l -1.59478,-0.11536 0.165689,0.82845 c 0.147778,0.73889 -0.03147,1.05902 -0.391426,0.69907 z m -1.176663,-2.14407 c 0.107864,-0.28109 -0.01483,-0.46752 -0.368568,-0.56002 -0.291642,-0.0763 -0.530258,-0.29662 -0.530258,-0.48968 0,-0.57667 -1.107616,-1.17477 -2.175538,-1.17477 -0.677905,0 -0.999462,0.11858 -0.999462,0.36857 0,0.52876 -0.806971,0.76451 -1.158096,0.33833 -0.344587,-0.41825 -1.971955,-1.10463 -2.163907,-0.91268 -0.249596,0.2496 0.19985,0.98064 0.700612,1.13958 0.277598,0.0881 0.504724,0.25974 0.504724,0.38141 0,0.12167 0.565547,0.27844 1.256771,0.34837 2.732258,0.27645 3.904774,0.48171 4.149489,0.72643 0.366204,0.3662 0.599045,0.31705 0.784233,-0.16554 z m 9.684507,-1.01495 c 0,-0.48283 -1.001232,-0.94494 -2.047371,-0.94494 -1.453618,0 -1.284034,0.28511 0.414089,0.69618 1.547192,0.37453 1.633282,0.38764 1.633282,0.24876 z m 24.36371,-1.49615 c 0.30317,-0.30317 0.51153,-0.5847 0.46302,-0.62562 -0.89342,-0.75373 -2.51651,-0.73055 -2.22399,0.0318 0.0833,0.21703 0.15143,0.56347 0.15143,0.76985 0,0.5601 0.98068,0.45288 1.60954,-0.17599 z m -11.66371,0.0221 c 0,-0.14552 -0.20836,-0.26276 -0.46302,-0.26054 -0.3957,0.004 -0.40532,0.0413 -0.0661,0.26054 0.49932,0.32268 0.52917,0.32268 0.52917,0 z m -11.60308,-1.40193 c -0.78549,-0.78549 -1.05468,-0.32406 -0.28741,0.49266 0.3792,0.40364 0.67657,0.55206 0.73784,0.36827 0.0564,-0.16933 -0.14625,-0.55675 -0.45043,-0.86093 z m -3.875045,0.34359 c -0.08994,-0.14552 -0.342115,-0.26458 -0.560397,-0.26458 -0.218281,0 -0.32329,0.11906 -0.233353,0.26458 0.08994,0.14552 0.342115,0.26459 0.560396,0.26459 0.218282,0 0.323291,-0.11907 0.233354,-0.26459 z m 15.862345,-0.63799 c -0.28087,-0.20538 -0.60323,-0.31622 -0.71635,-0.24631 -0.35489,0.21934 0.0734,0.61972 0.6629,0.61972 0.55052,0 0.55181,-0.009 0.0534,-0.37341 z M 96.899185,150.0883 c 0.609045,-0.18806 0.340244,-0.87748 -0.706116,-1.81104 -0.714236,-0.63725 -1.273496,-0.87531 -1.563862,-0.66569 -0.05039,0.0364 -0.266868,-0.0793 -0.481053,-0.25705 -0.493284,-0.40939 -1.543987,0.24289 -1.543987,0.95851 0,1.17299 2.392732,2.64585 3.439583,2.11726 0.218281,-0.11022 0.603227,-0.26412 0.855435,-0.34199 z m 28.777895,0.23525 c 0,-0.21828 -0.11906,-0.39687 -0.26458,-0.39687 -0.14552,0 -0.26458,0.17859 -0.26458,0.39687 0,0.21828 0.11906,0.39688 0.26458,0.39688 0.14552,0 0.26458,-0.1786 0.26458,-0.39688 z m -10.05416,-0.28348 c 0,-0.22868 -0.15011,-0.5561 -0.33356,-0.72761 -1.41003,-1.31816 -2.62063,-2.2962 -2.84221,-2.2962 -0.80535,0 0.55753,1.98834 1.98514,2.89616 0.99051,0.62986 1.19063,0.65131 1.19063,0.12765 z m 10.98653,-1.68096 c -0.0958,-0.302 -0.33493,-0.5491 -0.53127,-0.5491 -0.19635,0 -0.41705,-0.14883 -0.49045,-0.33073 -0.0734,-0.1819 -0.14103,-0.0926 -0.15029,0.19844 -0.0205,0.64369 0.23996,1.06614 0.76881,1.24702 0.5356,0.18319 0.60844,0.081 0.4032,-0.56563 z m -0.45627,-3.3702 c 0.0716,-0.95803 0.0206,-1.05803 -0.52917,-1.03777 -0.43126,0.0159 -0.63215,-0.1444 -0.69,-0.55053 -0.0955,-0.6705 -0.77014,-1.00872 -1.23783,-0.62057 -0.48501,0.40253 -0.15272,1.594 0.53149,1.90575 0.32852,0.14969 0.73121,0.56603 0.89487,0.92522 0.42381,0.93018 0.93783,0.61992 1.03064,-0.6221 z m -11.97139,-1.89702 c -0.18404,-0.57988 -0.94012,-0.99802 -0.94012,-0.51993 0,0.35709 0.82789,1.32334 0.99267,1.15857 0.0627,-0.0627 0.039,-0.35007 -0.0525,-0.63864 z m 10.17238,-2.42563 c 0,-0.14552 -0.11907,-0.26458 -0.26459,-0.26458 -0.14552,0 -0.26458,0.11906 -0.26458,0.26458 0,0.14552 0.11906,0.26458 0.26458,0.26458 0.14552,0 0.26459,-0.11906 0.26459,-0.26458 z m -3.71437,8.58667 c -0.33914,-0.40864 -0.13816,-1.7075 0.26421,-1.7075 0.61975,0 0.98035,1.72792 0.40655,1.9481 -0.19651,0.0754 -0.49835,-0.0329 -0.67076,-0.2406 z m -10.54767,-6.15785 c -0.15848,-0.29612 -0.21445,-0.73046 -0.12437,-0.9652 0.13196,-0.34389 0.23608,-0.28744 0.53596,0.29059 0.23134,0.4459 0.2784,0.81117 0.12437,0.9652 -0.15404,0.15403 -0.35686,0.0441 -0.53596,-0.29059 z"
       id="path1" />
  </g>
</svg>
