<?xml version="1.0" encoding="UTF-8" standalone="no"?>
<!-- Created with Inkscape (http://www.inkscape.org/) -->

<svg
   width="40.824574mm"
   height="18.732334mm"
   viewBox="0 0 40.824575 18.732335"
   version="1.1"
   id="svg1"
   inkscape:version="1.4.1-rc (06eac75fbf, 2025-03-29)"
   sodipodi:docname="bushes11.svg"
   xmlns:inkscape="http://www.inkscape.org/namespaces/inkscape"
   xmlns:sodipodi="http://sodipodi.sourceforge.net/DTD/sodipodi-0.dtd"
   xmlns="http://www.w3.org/2000/svg"
   xmlns:svg="http://www.w3.org/2000/svg">
  <sodipodi:namedview
     id="namedview1"
     pagecolor="#ffffff"
     bordercolor="#000000"
     borderopacity="0.25"
     inkscape:showpageshadow="2"
     inkscape:pageopacity="0.0"
     inkscape:pagecheckerboard="0"
     inkscape:deskcolor="#d1d1d1"
     inkscape:document-units="mm"
     inkscape:zoom="0.72248176"
     inkscape:cx="77.510607"
     inkscape:cy="35.295009"
     inkscape:window-width="1850"
     inkscape:window-height="1016"
     inkscape:window-x="0"
     inkscape:window-y="0"
     inkscape:window-maximized="1"
     inkscape:current-layer="layer1" />
  <defs
     id="defs1" />
  <g
     inkscape:label="Layer 1"
     inkscape:groupmode="layer"
     id="layer1"
     transform="translate(-84.402181,-138.90666)">
    <path
       style="fill:#000000"
       d="m 122.18121,157.50534 c -0.32774,-0.0631 -0.71888,-0.34455 -0.8692,-0.62543 -0.17668,-0.33013 -0.55367,-0.51069 -1.06625,-0.51069 -0.43612,0 -1.22692,-0.18132 -1.75733,-0.40294 -0.65735,-0.27466 -1.05056,-0.31678 -1.23504,-0.1323 -0.46117,0.46117 -0.94118,0.2998 -1.11009,-0.37318 -0.11099,-0.44225 -0.28957,-0.59474 -0.57031,-0.48701 -0.27343,0.10493 -0.36766,0.0334 -0.28468,-0.21605 0.16247,-0.48842 1.19347,-0.50898 3.49652,-0.0698 2.44572,0.46643 2.53096,0.45277 1.70658,-0.27351 -0.59487,-0.52408 -2.96183,-1.15591 -3.73357,-0.99662 -0.10914,0.0225 -0.19844,-0.13764 -0.19844,-0.35592 0,-0.21828 -0.0893,-0.38277 -0.19844,-0.36554 -0.58049,0.0917 -0.8599,-0.0846 -0.8599,-0.54245 0,-0.3877 0.15983,-0.49408 0.66189,-0.44055 0.36403,0.0388 0.74106,0.14975 0.83784,0.24653 0.0968,0.0968 0.56582,0.17597 1.0423,0.17597 0.47648,0 0.93991,0.11906 1.02985,0.26458 0.0899,0.14552 0.29631,0.26459 0.45861,0.26459 0.1623,0 0.0155,-0.29766 -0.32632,-0.66146 -0.34177,-0.3638 -0.83878,-0.66146 -1.10445,-0.66146 -0.26568,0 -0.48305,-0.11601 -0.48305,-0.25779 0,-0.37895 -1.49148,-1.08537 -1.93347,-0.91576 -0.66074,0.25355 -0.71253,-0.58903 -0.0577,-0.93946 0.70213,-0.37577 2.27234,10e-4 3.15317,0.7574 0.48026,0.4122 0.48561,0.40427 0.13229,-0.19598 -0.61712,-1.04841 -2.08436,-2.45063 -2.37581,-2.27051 -0.15108,0.0934 -0.48825,-0.0235 -0.74926,-0.2597 -0.61073,-0.55271 -1.08671,-0.0663 -1.00402,1.02594 0.0792,1.04611 -0.48476,1.13487 -0.83459,0.13136 -0.20083,-0.5761 -0.20631,-0.98824 -0.0178,-1.34041 0.38531,-0.71995 0.15489,-0.94091 -1.19176,-1.14285 -2.84298,-0.42634 -4.1546,0.57643 -4.1546,3.17631 0,0.80862 0.1381,1.63663 0.30689,1.84 0.17793,0.2144 0.23572,0.69376 0.13753,1.14082 -0.12399,0.56452 -0.0594,0.81323 0.24118,0.92857 0.35961,0.13799 0.61356,1.23248 0.28598,1.23248 -0.0685,0 -0.64749,-0.36859 -1.28662,-0.8191 -0.90385,-0.63709 -1.44937,-0.82202 -2.45513,-0.83229 -1.81137,-0.0185 -2.20847,0.19717 -1.97441,1.07233 0.14562,0.54449 0.39944,0.74485 1.09686,0.86582 1.33741,0.23197 2.87616,0.9522 3.06047,1.43249 0.25332,0.66014 -0.0639,0.75305 -0.99137,0.29035 -0.4706,-0.23476 -1.66865,-0.50241 -2.66232,-0.59476 -1.5568,-0.14469 -1.80668,-0.10875 -1.80668,0.25987 0,0.37545 -0.30645,0.40765 -2.50516,0.26322 -1.54178,-0.10128 -2.63556,-0.062 -2.84427,0.10215 -0.18651,0.14669 -0.72606,0.34001 -1.19901,0.42961 -0.72934,0.13818 -0.85989,0.0854 -0.85989,-0.34765 0,-0.51262 -0.49283,-0.68225 -2.50308,-0.86155 -0.5336,-0.0476 -0.82879,-0.24353 -0.92604,-0.61464 -0.19272,-0.73543 -0.99881,-1.68545 -2.17562,-2.56408 -0.73032,-0.54527 -1.27733,-0.72761 -2.18282,-0.72761 -0.88474,0 -1.20828,-0.10378 -1.20828,-0.38756 0,-0.89029 1.68862,-1.03373 3.3073,-0.28093 1.09883,0.51103 2.59155,2.11511 2.64538,2.84272 0.0363,0.49012 0.20252,0.60559 0.88246,0.61287 0.46078,0.005 0.83778,-0.0776 0.83778,-0.18348 0,-0.10585 0.35719,-0.40345 0.79375,-0.66133 0.43656,-0.25788 0.79375,-0.60722 0.79375,-0.77631 0,-1.06015 2.51398,-1.29148 3.79111,-0.34885 1.62612,1.20021 1.02689,-0.29275 -0.8855,-2.20619 -1.42228,-1.42306 -2.3103,-1.64765 -2.3103,-0.58429 0,0.80818 -0.015,0.8257 -0.89657,1.04696 -0.52889,0.13274 -0.83195,0.0301 -1.25623,-0.42526 -0.30755,-0.33012 -0.55918,-0.8117 -0.55918,-1.07018 0,-0.64879 -0.72063,-0.97365 -2.15983,-0.97365 -1.1149,0 -1.20607,0.0482 -1.07065,0.56607 0.0814,0.31133 0.29971,0.85842 0.48509,1.21575 0.18539,0.35732 0.27742,0.74619 0.20451,0.86415 -0.23235,0.37595 -1.37002,-0.5742 -1.57445,-1.31493 -0.37715,-1.36658 -0.28031,-1.75893 0.52035,-2.10807 0.79333,-0.34594 3.52504,-0.38805 3.72934,-0.0575 0.0631,0.1021 0.75987,0.18564 1.54837,0.18564 2.08154,0 3.49019,0.77703 5.01255,2.76497 1.42716,1.86363 1.7012,2.62666 1.27741,3.55677 -0.23943,0.52549 -0.22041,0.68009 0.0987,0.80255 0.59932,0.22997 1.18902,-0.0928 1.18902,-0.65091 0,-0.27389 0.12599,-0.8594 0.27998,-1.30114 0.34963,-1.00293 1.98288,-1.54967 3.81055,-1.27559 l 1.20032,0.18 -0.26417,-0.69483 c -0.85463,-2.24783 0.35946,-5.68747 2.00749,-5.68747 0.74577,0 0.69055,-0.69143 -0.10678,-1.33707 -0.693,-0.56116 -1.17378,-1.73848 -0.97093,-2.3776 0.1974,-0.62194 0.69826,-0.79126 2.89072,-0.97722 1.41213,-0.11978 2.09255,-0.32904 2.94878,-0.90691 0.61219,-0.41316 1.21946,-0.7512 1.34949,-0.7512 1.03444,0 4.31705,2.68358 4.31705,3.52926 0,0.20608 0.1663,0.51272 0.36956,0.6814 0.53308,0.44241 0.21717,1.42236 -0.406,1.2594 -0.271,-0.0709 -0.49273,-0.0304 -0.49273,0.0899 0,0.12033 0.37189,0.30047 0.82642,0.4003 1.06737,0.23443 2.52283,1.09557 2.71996,1.60929 0.0847,0.2208 0.27396,0.32735 0.42051,0.23677 0.14845,-0.0917 0.26645,0.0966 0.26645,0.42542 0,0.32455 0.15711,0.77806 0.34913,1.0078 0.19202,0.22974 0.56745,1.08343 0.83427,1.89708 0.39723,1.2113 0.43043,1.63631 0.1832,2.3455 -0.16606,0.47637 -0.23358,0.97673 -0.15003,1.11191 0.0836,0.13518 0.008,0.41962 -0.16871,0.63209 -0.27771,0.33462 -0.44894,0.30838 -1.27955,-0.19606 -0.52742,-0.32031 -1.01847,-0.66013 -1.09123,-0.75517 -0.34084,-0.4452 -1.29733,-0.77205 -1.46507,-0.50064 -0.19529,0.31599 0.59439,1.30633 1.04306,1.3081 0.45224,0.002 2.80351,2.23538 2.8012,2.66101 -0.001,0.20931 -0.32253,0.52939 -0.71421,0.71129 -0.72602,0.33717 -0.82192,0.34458 -1.864,0.14393 z m 0.72819,-1.25279 c 0,-0.0642 -0.11906,-0.19027 -0.26459,-0.2802 -0.14552,-0.0899 -0.26458,-0.0374 -0.26458,0.11667 0,0.15411 0.11906,0.2802 0.26458,0.2802 0.14553,0 0.26459,-0.0525 0.26459,-0.11667 z m -25.41707,-1.6695 c -1.28418,-0.37681 -2.34787,-0.34786 -2.43855,0.0664 -0.0319,0.14552 0.23973,0.30443 0.60353,0.35313 0.36381,0.0487 0.76045,0.18341 0.88144,0.29935 0.12099,0.11594 0.64909,0.0791 1.17355,-0.0819 l 0.95358,-0.29266 z m 0.14936,-1.38883 c 0.0912,-0.14753 -0.10674,-0.26279 -0.44741,-0.26053 -0.4915,0.003 -0.53334,0.0542 -0.21405,0.26053 0.49232,0.31816 0.46482,0.31816 0.66146,0 z m 25.51781,-1.20807 c -0.35596,-0.4289 -1.65133,-1.17695 -2.0229,-1.16818 -0.18532,0.004 2.01277,1.52149 2.26822,1.56552 0.0542,0.009 -0.0562,-0.16946 -0.24532,-0.39734 z m -0.68706,-2.58462 c -0.70323,-0.82323 -1.73096,-1.42354 -3.23703,-1.89078 -0.59662,-0.1851 -0.58329,-0.13612 0.24272,0.89173 0.4807,0.59817 1.07859,1.08758 1.32864,1.08758 0.25005,0 0.79567,0.17786 1.21249,0.39524 1.16106,0.60553 1.2775,0.48123 0.45318,-0.48377 z m -27.35195,0.0782 c -0.49919,-0.31569 -0.78609,-0.319 -0.78609,-0.009 0,0.25137 0.82669,0.52927 1.05067,0.35319 0.0685,-0.0539 -0.0505,-0.20874 -0.26458,-0.34412 z M 120.84,146.3147 c -0.76544,-0.63797 -2.22874,-0.93149 -2.86599,-0.57487 -0.42625,0.23855 -0.39104,0.28931 0.30892,0.44538 0.43451,0.0969 1.08767,0.27538 1.45147,0.39669 0.3638,0.1213 0.89958,0.22599 1.19062,0.23263 0.49836,0.0114 0.49341,-0.0177 -0.085,-0.49983 z m -5.47694,-1.25641 c -0.10705,-0.25466 -0.25273,-0.73091 -0.32374,-1.05834 -0.071,-0.32742 -0.29108,-0.59531 -0.48904,-0.59531 -0.19796,0 -0.54294,-0.2793 -0.76662,-0.62068 -0.54512,-0.83196 -1.54541,-1.25353 -2.51449,-1.05971 -0.52939,0.10588 -0.79519,0.0532 -0.79519,-0.15752 0,-0.20998 -0.13361,-0.18294 -0.39687,0.0803 -0.54519,0.54519 -0.4974,1.02475 0.15805,1.58597 0.33218,0.28442 0.50322,0.67293 0.42609,0.96786 -0.10813,0.41349 0.026,0.49326 0.83413,0.49619 0.52964,0.002 1.55829,0.17337 2.28589,0.38102 1.78458,0.50929 1.80408,0.50905 1.58179,-0.0198 z m 2.25467,-0.5797 c 0,-0.13693 -0.11906,-0.32255 -0.26458,-0.41249 -0.14552,-0.0899 -0.26459,0.0221 -0.26459,0.24897 0,0.22687 0.11907,0.41249 0.26459,0.41249 0.14552,0 0.26458,-0.11204 0.26458,-0.24897 z m -0.41245,-2.25616 c -0.67193,-0.50822 -1.06494,-0.51334 -0.64588,-0.008 0.18116,0.21828 0.51615,0.39688 0.74442,0.39688 0.33227,0 0.31261,-0.0775 -0.0985,-0.38846 z m -2.01411,-1.2248 c 0.19061,-0.30522 0.28166,-0.61984 0.20233,-0.69917 -0.21616,-0.21615 -0.95077,0.4712 -0.95077,0.88962 0,0.53422 0.35178,0.4447 0.74844,-0.19045 z m -30.61513,13.61468 c -0.27611,-0.60601 -0.24368,-0.77802 0.24478,-1.29795 0.47542,-0.50607 0.6934,-0.56238 1.4003,-0.36175 1.72547,0.48971 2.17778,0.7798 2.23169,1.43129 l 0.0533,0.64354 -1.21868,-0.64799 c -1.35572,-0.72084 -1.68424,-0.66513 -1.68424,0.2856 0,0.85929 -0.62621,0.82713 -1.02711,-0.0527 z"
       id="path6" />
  </g>
</svg>
