<?xml version="1.0" encoding="UTF-8" standalone="no"?>
<!-- Created with Inkscape (http://www.inkscape.org/) -->

<svg
   width="157.06314mm"
   height="38.071457mm"
   viewBox="0 0 157.06315 38.071453"
   version="1.1"
   id="svg1"
   inkscape:version="1.4.1-rc (06eac75fbf, 2025-03-29)"
   sodipodi:docname="field8.svg"
   xmlns:inkscape="http://www.inkscape.org/namespaces/inkscape"
   xmlns:sodipodi="http://sodipodi.sourceforge.net/DTD/sodipodi-0.dtd"
   xmlns="http://www.w3.org/2000/svg"
   xmlns:svg="http://www.w3.org/2000/svg">
  <sodipodi:namedview
     id="namedview1"
     pagecolor="#ffffff"
     bordercolor="#000000"
     borderopacity="0.25"
     inkscape:showpageshadow="2"
     inkscape:pageopacity="0.0"
     inkscape:pagecheckerboard="0"
     inkscape:deskcolor="#d1d1d1"
     inkscape:document-units="mm"
     inkscape:zoom="0.72248176"
     inkscape:cx="296.20125"
     inkscape:cy="72.666194"
     inkscape:window-width="1850"
     inkscape:window-height="1016"
     inkscape:window-x="0"
     inkscape:window-y="0"
     inkscape:window-maximized="1"
     inkscape:current-layer="layer1" />
  <defs
     id="defs1" />
  <g
     inkscape:label="Layer 1"
     inkscape:groupmode="layer"
     id="layer1"
     transform="translate(-26.458327,-129.38117)">
    <path
       style="fill:#000000"
       d="m 182.76907,167.38699 c -0.3638,-0.0545 -0.77457,-0.20807 -0.91281,-0.34127 -0.13825,-0.1332 -0.46941,-0.24218 -0.73591,-0.24218 -0.26651,0 -0.55309,-0.17859 -0.63685,-0.39687 -0.0838,-0.21828 -0.31815,-0.39688 -0.52086,-0.39688 -0.20272,0 -0.36857,-0.16337 -0.36857,-0.36306 0,-0.21908 -0.42046,-0.43029 -1.06027,-0.5326 -1.09434,-0.17499 -2.37931,-1.06488 -2.37931,-1.64776 0,-0.18224 -0.22713,-0.40342 -0.50473,-0.49153 -0.2776,-0.0881 -0.57349,-0.33939 -0.65753,-0.5584 -0.1196,-0.31168 -0.26866,-0.33622 -0.6859,-0.11292 -0.50522,0.27039 -0.51029,0.32011 -0.0969,0.95104 0.33972,0.51848 0.36582,0.73589 0.11801,0.98288 -0.52323,0.5215 -1.3726,-0.80006 -1.18428,-1.84267 0.21107,-1.1686 -0.0341,-1.75059 -0.9705,-2.30373 -0.65002,-0.38398 -0.74697,-0.54994 -0.49711,-0.851 0.2528,-0.30461 0.19256,-0.374 -0.32467,-0.374 -0.34928,0 -0.83894,-0.23812 -1.08814,-0.52916 -0.2492,-0.29105 -0.63284,-0.52917 -0.85255,-0.52917 -0.2197,0 -0.39946,-0.11906 -0.39946,-0.26458 0,-0.14553 -0.16402,-0.26459 -0.36448,-0.26459 -0.20046,0 -0.50172,-0.16536 -0.66946,-0.36748 -0.16774,-0.20211 -0.83716,-0.50148 -1.48761,-0.66527 -0.65044,-0.16378 -1.18262,-0.39991 -1.18262,-0.52474 0,-0.12483 -0.50011,-0.30693 -1.11135,-0.40467 -0.61125,-0.0977 -1.27114,-0.31032 -1.46642,-0.4724 -0.26164,-0.21714 -0.43567,-0.21408 -0.66136,0.0116 -0.42682,0.42682 -0.9942,0.38263 -0.9942,-0.0774 0,-0.21105 -0.20836,-0.50862 -0.46302,-0.66127 -0.43317,-0.25964 -0.43427,-0.29995 -0.017,-0.62518 0.3759,-0.29301 0.40491,-0.53051 0.18458,-1.51113 -0.14378,-0.63992 -0.38541,-1.31288 -0.53695,-1.49548 -0.16056,-0.19346 -0.2017,-0.76897 -0.0986,-1.37921 l 0.17692,-1.04722 -1.12743,0.0841 c -1.31691,0.0982 -1.86232,0.6692 -1.65057,1.72798 0.0807,0.40368 0.0158,0.80938 -0.14542,0.90905 -0.48596,0.30033 -0.32685,1.15215 0.2968,1.58897 0.48336,0.33856 0.50691,0.41188 0.13229,0.41188 -0.25066,0 -0.45575,0.11906 -0.45575,0.26458 0,0.14552 -0.23812,0.26458 -0.52917,0.26458 -0.29104,0 -0.54405,-0.11906 -0.56224,-0.26458 -0.0639,-0.51086 -0.11583,-0.66861 -0.50122,-1.52136 -0.21375,-0.47294 -0.52358,-0.85989 -0.68852,-0.85989 -0.16494,0 -0.44811,-0.17859 -0.62927,-0.39688 -0.18115,-0.21828 -0.55292,-0.39687 -0.82614,-0.39687 -0.27323,0 -0.49942,-0.14883 -0.50266,-0.33073 -0.003,-0.1819 -0.24048,-0.0331 -0.52722,0.33073 -0.44175,0.56049 -0.5614,0.60088 -0.78381,0.26458 -0.14436,-0.21828 -0.2643,-0.65666 -0.26653,-0.97417 -0.004,-0.58523 -1.47448,-1.87693 -1.7841,-1.56731 -0.0892,0.0891 -0.44284,-0.0219 -0.78599,-0.24671 -0.81886,-0.53654 -1.19007,-0.29328 -0.86344,0.56582 0.54609,1.43632 0.20907,1.49723 -2.00869,0.36302 -1.11906,-0.57231 -1.77507,-0.75515 -2.2976,-0.64039 -0.53463,0.11743 -0.77583,0.0447 -0.89675,-0.27043 -0.29249,-0.76222 -1.95153,-1.71392 -2.57933,-1.47961 -0.30916,0.11538 -0.80024,0.12165 -1.09128,0.0139 -0.29104,-0.10772 -0.61846,-0.14419 -0.7276,-0.0811 -0.10914,0.0631 -0.19844,-1.4e-4 -0.19844,-0.14063 0,-0.14048 -0.23812,-0.19316 -0.52917,-0.11705 -0.29104,0.0761 -0.52916,0.009 -0.52916,-0.14876 0,-0.15792 -0.1786,-0.2186 -0.39688,-0.13484 -0.25348,0.0973 -0.39687,-0.005 -0.39687,-0.28219 0,-0.34759 -0.10237,-0.37971 -0.51177,-0.1606 -0.73124,0.39134 -0.84013,0.36106 -1.86948,-0.51986 -0.9338,-0.79915 -1.5875,-1.01705 -1.5875,-0.52917 0,0.14552 0.25086,0.26459 0.55747,0.26459 0.40054,0 0.51209,0.11826 0.39626,0.42011 -0.0982,0.2559 0.0631,0.60176 0.41269,0.88483 0.36323,0.29412 0.51219,0.62554 0.40579,0.9028 -0.20913,0.54499 -1.06862,0.57019 -1.50521,0.0441 -0.17983,-0.21668 -0.42431,-0.3338 -0.54328,-0.26027 -0.11898,0.0735 -0.29707,0.003 -0.39576,-0.15664 -0.0987,-0.15969 -0.45425,-0.22137 -0.79014,-0.13707 -0.3675,0.0922 -0.66408,0.0217 -0.74474,-0.177 -0.10351,-0.25504 -0.19216,-0.24722 -0.38919,0.0344 -0.14371,0.20536 -0.39774,0.2765 -0.58161,0.16286 -0.28655,-0.1771 -2.26719,-0.33135 -6.01655,-0.46855 -0.71753,-0.0263 -1.12448,-0.16406 -1.12448,-0.38078 0,-0.18679 -0.12609,-0.33962 -0.2802,-0.33962 -0.15411,0 -0.21443,0.10642 -0.13404,0.23649 0.18991,0.30728 -1.25259,0.24084 -1.47393,-0.0679 -0.0926,-0.12917 -0.74746,-0.28022 -1.45521,-0.33567 -2.39147,-0.18735 -3.66555,-0.34142 -4.26523,-0.51575 -0.32843,-0.0955 -0.95949,-0.0235 -1.40234,0.15992 -0.5944,0.2462 -0.95758,0.25845 -1.38723,0.0468 -0.32012,-0.15772 -1.15542,-0.4 -1.85623,-0.53841 -1.09591,-0.21645 -1.25261,-0.1954 -1.11991,0.15039 0.0849,0.22113 0.026,0.55667 -0.13087,0.74564 -0.23152,0.27897 -0.56826,0.24547 -1.7905,-0.17811 -1.33305,-0.46198 -2.32731,-0.6637 -4.15119,-0.84221 -0.37094,-0.0363 -0.55505,0.13083 -0.61574,0.55899 -0.0579,0.40827 -0.23332,0.58054 -0.52916,0.51957 -0.27041,-0.0557 -0.40771,-0.28781 -0.35293,-0.59655 0.077,-0.43409 0.0304,-0.45615 -0.33073,-0.15645 -0.31745,0.26347 -0.50936,0.27506 -0.78373,0.0473 -0.19984,-0.16585 -0.54499,-0.23184 -0.76699,-0.14665 -0.22201,0.0852 -0.48345,0.0258 -0.58099,-0.13204 -0.19545,-0.31625 -0.66993,-0.12752 -0.66993,0.26648 0,0.13693 0.23109,0.24897 0.51355,0.24897 0.28245,0 0.58713,0.11906 0.67707,0.26458 0.0899,0.14552 0.38759,0.26458 0.66146,0.26458 0.27386,0 0.56783,0.11309 0.65325,0.25131 0.21057,0.34071 -0.93297,0.94277 -1.14992,0.60542 -0.0906,-0.14093 -0.46245,-0.33599 -0.82625,-0.43345 -1.99003,-0.53317 -2.64583,-0.80488 -2.64583,-1.09624 0,-0.38196 -1.27122,-0.68307 -1.47714,-0.34989 -0.0779,0.12601 -0.44072,0.2291 -0.80633,0.2291 -0.6126,0 -0.63114,-0.0336 -0.23638,-0.42836 0.39475,-0.39476 0.37029,-0.45833 -0.31184,-0.81048 -0.4071,-0.21017 -1.04436,-0.67225 -1.41612,-1.02685 -0.37177,-0.3546 -0.85397,-0.64472 -1.07156,-0.64472 -0.2176,0 -0.52572,-0.1301 -0.68473,-0.2891 -0.35022,-0.35023 -1.26065,0.0625 -1.49709,0.67862 -0.20391,0.53137 -0.60184,0.51482 -0.81236,-0.0338 -0.10132,-0.26404 0.0505,-0.67067 0.38225,-1.0238 0.53275,-0.56709 0.60909,-1.47605 0.18122,-2.15793 -0.10783,-0.17185 -0.079,-0.38482 0.0642,-0.47328 0.14313,-0.0885 0.20162,-0.48364 0.12998,-0.87818 -0.0835,-0.45978 0.0874,-1.09463 0.47587,-1.76814 0.50289,-0.87181 0.79938,-1.08901 1.74067,-1.27516 0.71576,-0.14155 1.59318,-0.11499 2.37707,0.0719 0.68338,0.16297 1.51629,0.34 1.8509,0.3934 0.33462,0.0534 0.88691,0.27958 1.22733,0.50263 0.48508,0.31783 0.82557,0.34848 1.57442,0.14172 0.9586,-0.26468 1.19789,-0.58708 0.67542,-0.90999 -0.30523,-0.18864 -0.0867,-1.67485 0.30795,-2.09386 0.13019,-0.13825 0.23671,-0.45703 0.23671,-0.7084 0,-0.53576 1.20394,-1.55737 1.82161,-1.54574 0.37122,0.007 0.36653,0.0435 -0.0357,0.27773 -0.25466,0.14832 -0.46302,0.50189 -0.46302,0.7857 0,0.28381 -0.11906,0.51602 -0.26458,0.51602 -0.14552,0 -0.26458,0.21828 -0.26458,0.48507 0,0.26679 -0.0828,0.56789 -0.18405,0.66912 -0.19079,0.19078 -0.29441,0.57947 -0.48737,1.82809 -0.0946,0.61201 0.0578,0.85275 0.92109,1.45521 0.56894,0.39704 1.10496,0.98978 1.19117,1.3172 0.0862,0.32742 0.3317,0.59531 0.54555,0.59531 1.18244,0 2.3857,2.09983 2.11646,3.69346 -0.148,0.876 -0.10475,1.06904 0.23951,1.06904 0.23108,0 0.42014,-0.092 0.42014,-0.20441 0,-0.11243 0.40146,-0.42062 0.89214,-0.68487 0.66734,-0.35939 1.01736,-0.41191 1.38906,-0.20844 0.57309,0.31371 1.97801,0.68013 2.31071,0.60267 0.12446,-0.029 0.39522,0.0875 0.6017,0.25889 0.20648,0.17136 0.46184,0.21877 0.56747,0.10535 0.10562,-0.11342 0.0317,-0.26322 -0.16433,-0.33288 -0.196,-0.0697 -0.73178,-0.45264 -1.19062,-0.85106 -0.77509,-0.67303 -2.44749,-1.27165 -2.13355,-0.76369 0.0769,0.1245 0.0225,0.22636 -0.12092,0.22636 -0.29434,0 -1.09333,-1.47986 -1.09333,-2.02503 0,-0.19592 0.17859,-0.35622 0.39687,-0.35622 0.21828,0 0.39688,-0.2311 0.39688,-0.51355 0,-0.72862 0.48217,-0.93391 1.02969,-0.43841 0.25695,0.23253 0.57687,0.42353 0.71093,0.42442 0.13407,9e-4 0.58889,0.18162 1.01072,0.40161 0.42184,0.21999 0.81159,0.35536 0.86613,0.30082 0.21148,-0.21148 -0.25343,-0.96864 -0.59477,-0.96864 -0.21153,0 -0.29739,-0.16385 -0.20797,-0.39688 0.10568,-0.27539 -0.0183,-0.39687 -0.40517,-0.39687 -0.30661,0 -0.55748,-0.11906 -0.55748,-0.26458 0,-0.14553 -0.18562,-0.26459 -0.41249,-0.26459 -0.22687,0 -0.3389,0.11906 -0.24897,0.26459 0.0902,0.14596 -0.0992,0.26458 -0.42241,0.26458 -0.55608,0 -0.54677,-0.0337 0.18282,-0.66114 0.89622,-0.77075 1.82446,-0.85589 2.19098,-0.20096 0.14183,0.25345 0.33832,0.38038 0.43662,0.28208 0.0983,-0.0983 -0.0713,-0.44719 -0.37703,-0.7753 -0.30567,-0.3281 -0.55577,-0.74514 -0.55577,-0.92677 0,-0.18162 -0.36347,-0.36753 -0.80772,-0.41313 -0.7389,-0.0758 -0.77664,-0.12511 -0.4429,-0.5783 0.35213,-0.47816 0.40373,-0.47083 1.48316,0.21058 0.8723,0.55066 1.08223,0.81971 0.95423,1.223 -0.11407,0.35941 -0.0405,0.51702 0.2413,0.51702 0.52509,0 0.89208,0.70691 1.11599,2.14968 0.0988,0.63669 0.46357,1.80605 0.81057,2.59857 0.347,0.79253 0.56894,1.60244 0.49321,1.79981 -0.24904,0.64897 0.64678,1.65403 1.47426,1.65403 0.41982,0 0.76332,0.11906 0.76332,0.26458 0,0.47394 0.46967,0.28009 1.20246,-0.4963 0.54916,-0.58183 1.00583,-0.78198 1.94066,-0.85054 2.42224,-0.17766 5.84684,-0.0457 6.18921,0.2384 0.40328,0.33469 1.78191,0.2544 1.80471,-0.1051 0.008,-0.13292 -0.35084,-0.34819 -0.79836,-0.47838 -0.44753,-0.13019 -0.81368,-0.39006 -0.81368,-0.57748 0,-0.49029 0.87582,-0.69731 1.67101,-0.39498 0.83615,0.3179 1.7886,1.64347 1.2983,1.8069 -0.17973,0.0599 -0.25484,0.22532 -0.16692,0.36758 0.0879,0.14226 -0.0495,0.49001 -0.30541,0.77278 -0.25589,0.28276 -0.40429,0.57509 -0.32976,0.64962 0.0745,0.0745 0.80701,0.16309 1.62774,0.19681 0.82072,0.0337 1.49324,0.13672 1.49447,0.22889 0.004,0.33637 1.17843,0.4669 1.37778,0.1532 0.31979,-0.50322 0.25882,-0.58262 -0.4803,-0.62542 -0.38054,-0.022 -0.88222,-0.2304 -1.11485,-0.46302 -0.54172,-0.54173 -0.0783,-0.54917 0.6899,-0.0111 0.32342,0.22653 0.58804,0.29598 0.58804,0.15434 0,-0.14165 -0.12588,-0.2995 -0.27973,-0.35078 -0.39608,-0.13203 -0.006,-1.00919 0.44863,-1.00919 0.20728,0 0.44541,0.17859 0.52917,0.39687 0.0838,0.21829 0.27707,0.39688 0.42958,0.39688 0.1525,0 0.0802,-0.21774 -0.1606,-0.48386 -0.61209,-0.67634 -0.54661,-0.87643 0.22357,-0.68312 0.40757,0.10229 0.66146,0.0534 0.66146,-0.12725 0,-0.1613 0.16471,-0.29327 0.36603,-0.29327 0.20132,0 0.42293,-0.29766 0.49248,-0.66146 0.12186,-0.63747 -0.0551,-0.84754 -0.41264,-0.48997 -0.0943,0.0943 -0.76901,0.2194 -1.49931,0.27794 -1.10277,0.0884 -1.32781,0.0321 -1.32781,-0.33209 0,-0.27233 0.14393,-0.3833 0.37978,-0.2928 0.20888,0.0802 0.42206,0.0189 0.47372,-0.13608 0.0517,-0.155 0.68444,-0.31233 1.40616,-0.34962 0.72172,-0.0373 1.40426,-0.0824 1.51675,-0.1002 0.43555,-0.069 -0.67797,-1.33134 -1.53171,-1.73647 -0.49462,-0.23471 -0.97212,-0.54456 -1.06112,-0.68856 -0.089,-0.144 -0.28057,-0.18843 -0.42572,-0.0987 -0.14514,0.0897 -0.43079,-0.0572 -0.63476,-0.32641 -0.23934,-0.31593 -0.37384,-0.36591 -0.37927,-0.14096 -0.005,0.22336 -0.19254,0.29012 -0.52103,0.18586 -0.28194,-0.0895 -0.72842,-0.0399 -0.99219,0.11019 -0.26376,0.15008 -0.89629,0.37073 -1.40561,0.49032 -0.77717,0.18248 -0.98853,0.39584 -1.31476,1.32719 -0.37022,1.05695 -1.24723,1.63861 -0.97513,0.64673 0.0699,-0.25466 0.20207,-0.90805 0.2938,-1.45199 0.17472,-1.03604 0.44088,-1.26483 2.16085,-1.8574 0.71138,-0.2451 1.54406,-0.30101 2.62168,-0.17604 2.20997,0.25627 2.65572,0.39478 3.28016,1.01922 0.30139,0.30139 0.67979,0.54799 0.84088,0.54799 0.16109,0 0.22886,0.16686 0.1506,0.3708 -0.0787,0.20521 0.0563,0.43809 0.30242,0.52148 0.24459,0.0829 0.6233,0.26868 0.84158,0.4129 0.21829,0.14422 1.11125,0.58627 1.98438,0.98233 1.59641,0.72415 3.44305,2.30585 3.18312,2.72643 -0.0768,0.12426 0.27975,0.47336 0.79233,0.77579 0.51258,0.30242 1.00139,0.7308 1.08625,0.95194 0.0849,0.22114 0.3877,0.40208 0.67298,0.40208 0.39774,0 0.47965,0.123 0.35126,0.5275 -0.13048,0.41112 -0.0727,0.49115 0.26196,0.36273 0.23616,-0.0906 0.36675,-0.328 0.29019,-0.5275 -0.079,-0.20578 0.0289,-0.36273 0.24938,-0.36273 0.21371,0 0.39236,0.20835 0.39699,0.46302 0.008,0.41842 0.0459,0.41342 0.39785,-0.0519 0.37634,-0.4976 0.4317,-0.49979 1.64523,-0.0648 0.69069,0.24755 1.62842,0.4495 2.08385,0.44878 0.57913,-9.1e-4 1.28901,0.35663 2.36135,1.18932 1.35477,1.052 1.96997,1.3952 1.96997,1.09898 0,-0.53079 -0.94534,-1.74112 -1.46101,-1.87054 -0.36061,-0.0905 -0.65566,-0.3538 -0.65566,-0.58508 0,-0.31401 -0.16399,-0.37936 -0.64746,-0.25802 -0.45865,0.11512 -0.72728,0.027 -0.9212,-0.30204 -0.22686,-0.385 -0.31531,-0.40131 -0.51646,-0.0953 -0.14135,0.21506 -0.4317,0.29677 -0.69522,0.19565 -0.35324,-0.13555 -0.41608,-0.36777 -0.28648,-1.0586 0.16286,-0.86812 0.13678,-0.89808 -1.37053,-1.57452 -0.92021,-0.41297 -1.77116,-0.6282 -2.12147,-0.5366 -0.65405,0.17104 -0.71286,0.0309 -0.30606,-0.7292 0.27526,-0.51432 0.99561,-0.53158 2.69769,-0.0647 0.32893,0.0902 0.46302,-0.0262 0.46302,-0.40196 0,-0.48199 -0.54008,-0.96927 -1.98551,-1.79138 -0.55048,-0.3131 -0.61835,-1.55285 -0.11319,-2.0677 0.5189,-0.52885 0.19191,-1.10461 -1.14558,-2.01709 -2.22171,-1.51572 -4.60268,-2.25982 -5.5602,-1.73767 -0.72607,0.39594 -0.82089,0.78363 -0.45947,1.87874 0.15492,0.46941 0.33762,1.29045 0.406,1.82453 0.0684,0.53408 0.42252,1.44342 0.78697,2.02075 0.72231,1.14422 0.85035,1.85718 0.33192,1.84832 -0.91013,-0.0155 -2.91415,-4.32719 -2.57987,-5.5506 0.10001,-0.36601 0.0518,-0.8284 -0.10798,-1.03521 -0.21261,-0.27524 -0.20153,-0.4031 0.042,-0.48507 0.1819,-0.0612 0.33073,-0.2668 0.33073,-0.45683 0,-0.19003 0.2218,-0.61943 0.49289,-0.95421 0.47643,-0.58837 0.54493,-0.59735 2.05052,-0.26896 0.8567,0.18686 1.82133,0.50712 2.14363,0.71168 0.3223,0.20456 0.76879,0.37194 0.99219,0.37194 0.2234,0 0.64431,0.23812 0.93535,0.52916 0.29104,0.29104 0.66357,0.52917 0.82783,0.52917 0.16426,0 0.75992,0.41672 1.32368,0.92604 0.56376,0.50932 1.16201,0.92604 1.32945,0.92604 0.16744,0 0.91124,0.29049 1.65289,0.64552 1.31764,0.63078 2.19557,1.5218 3.2092,3.25709 0.27626,0.47294 0.59419,0.85989 0.70651,0.85989 0.1873,0 0.86117,0.92317 2.17193,2.97544 0.46606,0.72972 0.47126,0.8114 0.0661,1.03811 -0.26923,0.15067 -0.43971,0.5795 -0.43971,1.10606 0,0.47299 -0.10369,0.97308 -0.23043,1.11133 -0.69587,0.75908 -0.29324,2.85519 0.45912,2.3902 0.14515,-0.0897 0.33869,-0.0421 0.4301,0.1058 0.3189,0.51598 0.92871,0.27747 0.92871,-0.36325 0,-0.92493 0.79922,-1.75634 1.81062,-1.88354 0.69529,-0.0874 0.85276,-0.0283 0.73591,0.27617 -0.1501,0.39115 0.13275,0.53037 0.44438,0.21874 0.30385,-0.30385 3.65197,-0.26161 3.8408,0.0485 0.0989,0.16233 0.80084,0.69776 1.55995,1.18984 0.75911,0.49208 1.51606,1.22268 1.68211,1.62356 0.16605,0.40088 0.46769,0.86646 0.67032,1.03462 0.20262,0.16817 0.36841,0.62991 0.36841,1.0261 0,0.39619 0.24016,0.93769 0.53369,1.20333 0.37643,0.34067 0.51287,0.7529 0.46302,1.39893 -0.0527,0.68344 0.0621,0.99101 0.45222,1.21167 2.00629,1.13468 3.99259,2.66232 5.72769,4.4051 1.10948,1.1144 2.18105,2.10551 2.38125,2.20246 1.1277,0.54613 1.94803,1.20177 1.92332,1.53719 -0.0199,0.2707 0.18364,0.35147 0.69627,0.27623 0.39845,-0.0585 0.80511,0.0242 0.90369,0.18369 0.0986,0.15951 0.0461,0.29001 -0.11657,0.29001 -0.1627,0 -0.21437,0.13178 -0.11483,0.29283 0.1282,0.20744 0.24104,0.19565 0.38695,-0.0404 0.15491,-0.25065 0.50672,-0.14302 1.41896,0.4341 0.66714,0.42207 1.27674,0.93356 1.35468,1.13665 0.1754,0.45711 0.15087,0.46995 -0.66451,0.34781 z m -15.25015,-12.35741 c -0.0838,-0.21828 -0.25862,-0.39687 -0.38857,-0.39687 -0.12996,0 -0.23628,-0.18233 -0.23628,-0.40518 0,-0.22285 -0.20836,-0.48402 -0.46302,-0.58039 -0.25466,-0.0964 -1.01302,-0.56888 -1.68525,-1.05003 -1.24697,-0.89253 -2.88239,-1.20201 -2.8752,-0.54409 0.01,0.88306 0.35138,1.54328 0.72468,1.40003 0.46321,-0.17775 3.76962,1.3208 3.76962,1.70849 0,0.14571 0.29392,0.26492 0.65316,0.26492 0.47188,0 0.61088,-0.11015 0.50086,-0.39688 z m -2.21235,-4.35732 c 0,-0.14095 -0.17859,-0.18774 -0.39687,-0.10398 -0.24408,0.0937 -0.39688,-5.1e-4 -0.39688,-0.24458 0,-0.21828 -0.17859,-0.46541 -0.39687,-0.54917 -0.52006,-0.19957 -0.50367,0.0683 0.041,0.67016 0.46754,0.51662 1.14962,0.65165 1.14962,0.22757 z m -2.26219,-0.56721 c 0.15149,-0.14153 0.0102,-0.23484 -0.3555,-0.23484 -0.38644,0 -0.65764,-0.19422 -0.74669,-0.53474 -0.10987,-0.42016 -0.21796,-0.46991 -0.5044,-0.23219 -0.44904,0.37267 -0.46584,0.82439 -0.0463,1.24396 0.32044,0.32044 1.18652,0.19353 1.65286,-0.24219 z m -16.25864,-3.39461 c 0,-0.11997 -0.26789,-0.27623 -0.59532,-0.34724 -0.32742,-0.071 -0.80367,-0.21669 -1.05833,-0.32373 -0.27891,-0.11724 -0.46302,-0.0785 -0.46302,0.0975 0,0.16067 0.38695,0.45445 0.8599,0.65284 0.85724,0.3596 1.25677,0.33436 1.25677,-0.0794 z m -23.78345,-2.24623 c 0.3262,0.2016 1.82303,-0.13093 1.82303,-0.405 0,-0.23126 -0.86474,-0.55664 -1.74123,-0.65519 -0.30283,-0.034 -0.68978,-0.14792 -0.85989,-0.25305 -0.66844,-0.41312 -0.83121,0.16228 -0.24791,0.87633 0.33004,0.404 0.64001,0.63304 0.68882,0.50896 0.0488,-0.12408 0.20054,-0.1565 0.33718,-0.0721 z m 17.69803,-0.0545 c 0,-0.27517 -2.16589,-2.57078 -2.89704,-3.07055 -0.92577,-0.6328 -1.07171,-0.588 -1.07171,0.32899 0,0.48278 0.13742,0.79375 0.35076,0.79375 0.19291,0 0.63038,0.29765 0.97216,0.66145 0.34177,0.36381 0.76467,0.66146 0.93976,0.66146 0.1751,0 0.46658,0.1786 0.64774,0.39688 0.32701,0.39402 1.05833,0.55159 1.05833,0.22802 z m -21.62969,-0.60526 c 0.4572,-0.0453 0.15377,-0.54882 -0.33073,-0.54882 -0.29104,0 -0.52916,-0.10418 -0.52916,-0.23151 0,-0.12734 -0.29199,-0.23152 -0.64887,-0.23152 -0.6315,0 -0.63681,0.0164 -0.19843,0.61136 0.27647,0.37525 0.65479,0.57444 0.97959,0.51576 0.29104,-0.0526 0.61846,-0.10445 0.7276,-0.11527 z m 18.45469,-0.28424 c 0,-0.14552 -0.0525,-0.26458 -0.11668,-0.26458 -0.0642,0 -0.19026,0.11906 -0.28019,0.26458 -0.0899,0.14552 -0.0374,0.26458 0.11667,0.26458 0.15411,0 0.2802,-0.11906 0.2802,-0.26458 z m 13.08023,-0.58573 c -1.11458,-1.21958 -1.55364,-1.54227 -1.66669,-1.22494 -0.13036,0.36592 1.55762,2.07525 2.04932,2.07525 0.27021,0 0.14967,-0.26787 -0.38263,-0.85031 z m -53.97999,-0.10404 c 0.23018,-0.0883 0.41851,-0.32645 0.41851,-0.52916 0,-0.44937 2.4875,-0.51627 3.59135,-0.0966 0.92002,0.3498 1.05163,0.19537 0.52217,-0.61269 -0.49885,-0.76133 -2.04805,-1.11995 -2.80256,-0.64875 -0.68528,0.42796 -0.81617,0.19862 -0.85593,-1.49974 -0.019,-0.81375 -0.12923,-1.47955 -0.24484,-1.47955 -0.1156,0 -0.1918,-0.0893 -0.16932,-0.19844 0.0225,-0.10914 -0.15593,-0.64063 -0.39644,-1.18108 -0.48909,-1.09901 -1.15229,-1.56681 -1.99201,-1.40509 -0.36404,0.0701 -0.56283,-0.0264 -0.56283,-0.27329 0,-0.43414 -0.41749,-0.51186 -0.65811,-0.12252 -0.10182,0.16474 -0.33714,0.14865 -0.64589,-0.0442 -0.82452,-0.51492 -2.71997,0.0359 -3.14014,0.9126 -0.55556,1.15915 -0.58897,1.75707 -0.15828,2.83347 0.29869,0.74648 0.59378,1.04481 1.14192,1.15444 0.40653,0.0813 1.50028,0.79248 2.43055,1.58039 2.05453,1.74011 2.56958,1.97559 3.52185,1.61017 z m 9.81122,-0.63315 c -0.0899,-0.14552 -0.27556,-0.26458 -0.41249,-0.26458 -0.13693,0 -0.24897,0.11906 -0.24897,0.26458 0,0.14552 0.18562,0.26459 0.41249,0.26459 0.22687,0 0.33891,-0.11907 0.24897,-0.26459 z m 5.32121,-0.52916 c -0.0538,-0.46193 0.0313,-0.79621 0.2036,-0.79964 0.31589,-0.006 -0.89047,-1.03664 -1.22533,-1.04656 -0.10914,-0.003 -0.19844,0.23224 -0.19844,0.52328 0,0.29104 0.10462,0.52917 0.23249,0.52917 0.12786,0 0.38043,0.35718 0.56126,0.79375 0.18083,0.43656 0.37155,0.79375 0.42381,0.79375 0.0523,0 0.0534,-0.35719 0.003,-0.79375 z m 39.949,0.10583 c -0.0942,-0.24539 -0.23074,-0.38663 -0.3035,-0.31386 -0.0728,0.0728 -0.0553,0.33306 0.0389,0.57844 0.0942,0.24539 0.23074,0.38663 0.3035,0.31387 0.0728,-0.0728 0.0553,-0.33307 -0.0389,-0.57845 z m -1.47168,-1.4395 c -1.19459,-1.02109 -1.60019,-1.01854 -0.47718,0.003 0.47523,0.4323 0.98313,0.78465 1.12865,0.783 0.14552,-0.002 -0.14764,-0.35535 -0.65147,-0.78599 z m -48.9579,-0.25383 c 0,-0.14553 -0.12609,-0.26459 -0.2802,-0.26459 -0.15411,0 -0.20662,0.11906 -0.11668,0.26459 0.0899,0.14552 0.21603,0.26458 0.2802,0.26458 0.0642,0 0.11668,-0.11906 0.11668,-0.26458 z m 8.61827,-0.40256 c -0.28042,-0.21215 -0.57463,-0.32095 -0.6538,-0.24178 -0.16607,0.16607 0.50591,0.63835 0.89907,0.63187 0.14552,-0.002 0.0351,-0.17794 -0.24527,-0.39009 z m -1.57189,-0.25588 c 0.19607,0.26813 0.43195,0.41204 0.52419,0.3198 0.29108,-0.29108 -0.14321,-1.02884 -0.68977,-1.17177 -0.28867,-0.0755 -0.44826,-0.26118 -0.35466,-0.41264 0.10213,-0.16524 0.041,-0.19552 -0.15287,-0.0757 -0.18932,0.11701 -0.4766,-0.003 -0.69392,-0.28984 -0.33942,-0.44803 -0.37157,-0.40542 -0.37927,0.50267 -0.006,0.70929 0.10474,0.99219 0.38846,0.99219 0.21828,0 0.40049,0.14882 0.40492,0.33072 0.004,0.18191 0.14043,0.10266 0.30224,-0.17609 0.28499,-0.49097 0.30536,-0.49157 0.65068,-0.0193 z m -9.18165,-0.0692 c -0.0102,-0.10914 -0.12092,-0.43656 -0.24598,-0.7276 -0.2015,-0.46891 -0.22951,-0.44631 -0.24599,0.19843 -0.0102,0.40019 0.10046,0.72761 0.24599,0.72761 0.14552,0 0.25621,-0.0893 0.24598,-0.19844 z m 2.92902,-0.46302 c 0,-0.21828 -0.1786,-0.39687 -0.39688,-0.39687 -0.68857,0 -0.46543,0.52144 0.33073,0.77286 0.0364,0.0115 0.0661,-0.15771 0.0661,-0.37599 z m 46.559,-0.38654 c 0.21407,-0.13538 0.3085,-0.32686 0.20985,-0.42551 -0.24212,-0.24212 -0.99594,0.0658 -0.99594,0.40687 0,0.33605 0.27392,0.34254 0.78609,0.0186 z m -47.6979,-0.63239 c -0.21315,-0.55547 -1.96979,-1.83141 -2.2678,-1.64723 -0.1539,0.0951 -0.0984,0.47026 0.14024,0.94872 0.30361,0.60861 0.57365,0.7914 1.16917,0.7914 0.4259,0 0.77437,0.1389 0.77437,0.30868 0,0.16977 0.0742,0.23444 0.16498,0.1437 0.0907,-0.0907 0.0993,-0.33611 0.019,-0.54527 z m 45.85348,0.2408 c 0,-0.0642 -0.11907,-0.19027 -0.26459,-0.2802 -0.14552,-0.0899 -0.26458,-0.0374 -0.26458,0.11667 0,0.15411 0.11906,0.2802 0.26458,0.2802 0.14552,0 0.26459,-0.0525 0.26459,-0.11667 z m 13.75833,28.42709 c -0.15576,-0.29104 -0.2049,-0.52917 -0.1092,-0.52917 0.0957,0 0.0258,-0.17859 -0.15538,-0.39687 -0.27821,-0.33523 -0.22402,-0.39688 0.34886,-0.39688 0.76853,0 1.26436,0.51786 0.52665,0.55006 -0.37016,0.0161 -0.38869,0.0542 -0.0818,0.16782 0.81168,0.30049 1.11382,0.67131 0.74012,0.90836 -0.56106,0.35591 -0.9686,0.25852 -1.26929,-0.30332 z m -45.50833,-1.10228 c 0,-0.31522 -0.17522,-0.7617 -0.38937,-0.99219 -0.21416,-0.23049 -0.74593,-0.80603 -1.18171,-1.27897 -0.43579,-0.47294 -0.85588,-0.85989 -0.93355,-0.85989 -0.23992,0 -1.25076,-1.09531 -1.12599,-1.22008 0.56999,-0.56999 4.64289,3.70857 4.32324,4.54155 -0.22423,0.58435 -0.69262,0.45558 -0.69262,-0.19042 z m 22.82632,0.0915 c -0.85947,-0.44732 -1.22016,-1.03385 -0.45529,-0.74034 0.2443,0.0937 0.34245,0.0473 0.24232,-0.11475 -0.0926,-0.14977 -0.39641,-0.19991 -0.6752,-0.11143 -0.2788,0.0885 -0.5069,0.0408 -0.5069,-0.10591 0,-0.47464 0.43316,-0.55289 1.28362,-0.23187 0.63499,0.23968 0.79502,0.43058 0.67581,0.80617 -0.12499,0.39381 -0.0373,0.47476 0.43895,0.40521 0.32733,-0.0478 0.64589,0.0619 0.70793,0.24381 0.15639,0.4586 -0.68231,0.38464 -1.71124,-0.15089 z m 21.51572,-1.50275 c -0.23838,-0.3638 -0.33236,-0.66146 -0.20885,-0.66146 0.12351,0 0.5042,0.29766 0.84597,0.66146 0.47899,0.50985 0.52685,0.66146 0.20885,0.66146 -0.22692,0 -0.6076,-0.29766 -0.84597,-0.66146 z m -23.96913,-0.26459 c -0.18115,-0.21828 -0.49339,-0.39687 -0.69385,-0.39687 -0.20046,0 -0.36448,-0.1055 -0.36448,-0.23444 0,-0.12894 -0.44648,-0.44527 -0.99219,-0.70297 -0.5457,-0.25769 -1.43867,-0.94081 -1.98437,-1.51805 -0.5457,-0.57724 -0.99581,-0.88598 -1.00023,-0.6861 -0.005,0.24683 -0.0946,0.21487 -0.27774,-0.0996 -0.14832,-0.25466 -0.50189,-0.46302 -0.7857,-0.46302 -0.28381,0 -0.51602,-0.11906 -0.51602,-0.26458 0,-0.14552 0.12609,-0.26458 0.2802,-0.26458 0.15411,0 0.20541,-0.12101 0.11401,-0.2689 -0.0914,-0.1479 -0.27155,-0.20379 -0.40032,-0.1242 -0.42246,0.26109 -1.62025,-0.18232 -1.47998,-0.54788 0.084,-0.21884 -0.15283,-0.4093 -0.64264,-0.51688 -0.42659,-0.0937 -0.84808,-0.2876 -0.93664,-0.4309 -0.0886,-0.14331 -0.44712,-0.36932 -0.79679,-0.50227 -0.34966,-0.13294 -0.63576,-0.42325 -0.63576,-0.64513 0,-0.22189 -0.20835,-0.40721 -0.46302,-0.41184 -0.65389,-0.0119 -1.23631,-0.51481 -1.75207,-1.51294 -0.24438,-0.47294 -0.56033,-0.8599 -0.70212,-0.8599 -0.14178,0 -0.25779,-0.11906 -0.25779,-0.26458 0,-0.14552 0.18636,-0.26458 0.41414,-0.26458 0.55707,0 3.29003,2.75987 3.29003,3.32243 0,0.33638 0.0849,0.37611 0.34396,0.16107 0.25626,-0.21269 0.64414,-0.0863 1.52135,0.49563 0.64757,0.42961 1.30777,0.78161 1.46712,0.78223 0.15935,6.3e-4 0.51654,0.25193 0.79375,0.55846 0.27722,0.30652 0.95051,0.78519 1.49622,1.06371 0.5457,0.27851 0.99218,0.60156 0.99218,0.71788 0,0.11632 0.89297,0.7863 1.98438,1.48885 1.09141,0.70254 1.98437,1.37886 1.98437,1.50292 0,0.12406 0.14883,0.22739 0.33073,0.22962 0.1819,0.002 0.50933,0.12129 0.72761,0.26458 0.35278,0.23158 0.35278,0.28948 0,0.52106 -0.53592,0.35181 -0.6738,0.3351 -1.05834,-0.12824 z m 21.4974,-1.36144 c -0.61846,-0.66968 -1.12448,-1.32193 -1.12448,-1.44943 0,-0.12751 -0.29766,-0.23183 -0.66146,-0.23183 -0.43114,0 -0.66146,-0.14805 -0.66146,-0.42519 0,-0.23721 -0.15003,-0.36761 -0.33936,-0.29495 -0.18666,0.0716 -0.61656,-0.0942 -0.95536,-0.36857 -0.33879,-0.27434 -0.5135,-0.50356 -0.38823,-0.50939 0.12526,-0.006 -0.0997,-0.18822 -0.49986,-0.40532 -0.40018,-0.21711 -0.7276,-0.57053 -0.7276,-0.7854 0,-0.32556 -0.0895,-0.33517 -0.53724,-0.0577 -0.4385,0.27178 -0.57895,0.26596 -0.76417,-0.0317 -0.12481,-0.20055 -0.3593,-0.28282 -0.52109,-0.18282 -0.17838,0.11024 -0.29417,-0.0265 -0.29417,-0.34737 0,-0.61939 -0.43299,-0.97976 -0.59583,-0.4959 -0.0883,0.26227 -0.20222,0.25781 -0.54018,-0.0211 -0.23557,-0.19443 -0.53668,-0.28653 -0.66912,-0.20467 -0.13245,0.0818 -0.45377,-0.0865 -0.71406,-0.3741 -0.26028,-0.28761 -0.62079,-0.52293 -0.80113,-0.52293 -0.18033,0 -0.72422,-0.37023 -1.20862,-0.82273 -0.48441,-0.4525 -1.12208,-0.92847 -1.41705,-1.0577 -0.29496,-0.12924 -0.71489,-0.34573 -0.93318,-0.4811 -0.21828,-0.13536 -0.60523,-0.31051 -0.85989,-0.3892 -0.57785,-0.17856 -0.60087,-0.65256 -0.0421,-0.86698 0.52991,-0.20335 2.22442,0.58885 2.6942,1.25956 0.19496,0.27834 0.45887,0.50607 0.58647,0.50607 0.34981,0 2.91299,1.63767 2.91299,1.86118 0,0.21198 2.38215,1.04924 2.98527,1.04924 0.20476,0 0.5878,0.23812 0.85119,0.52916 0.26339,0.29104 0.63903,0.52917 0.83476,0.52917 0.19572,0 0.35586,0.11906 0.35586,0.26458 0,0.14552 0.17759,0.26459 0.39464,0.26459 0.21704,0 0.54334,0.23812 0.7251,0.52916 0.18176,0.29104 0.51848,0.52917 0.74828,0.52917 0.22979,0 0.65244,0.26789 0.93922,0.59531 0.28678,0.32742 1.02484,1.0097 1.64013,1.51618 0.61529,0.50647 1.06627,1.05751 1.00218,1.22453 -0.0641,0.16701 0.017,0.43724 0.1803,0.60049 0.21937,0.21937 0.19672,0.29532 -0.0868,0.29105 -0.211,-0.003 -0.88966,-0.55369 -1.50812,-1.22338 z m -68.88331,-0.35049 c -0.46431,-0.57777 -0.94617,-0.98746 -1.07081,-0.91043 -0.12463,0.077 -0.22661,-0.0456 -0.22661,-0.27244 0,-0.22687 -0.1947,-0.41249 -0.43268,-0.41249 -0.23797,0 -0.70755,-0.26789 -1.0435,-0.59531 -0.33595,-0.32742 -0.85208,-0.82077 -1.14695,-1.09634 -0.29487,-0.27556 -0.47997,-0.59188 -0.41134,-0.70292 0.0686,-0.11105 -0.14327,-0.1359 -0.47089,-0.0552 -0.32762,0.0807 -0.50742,0.0508 -0.39954,-0.0665 0.28976,-0.31489 -0.30623,-0.91521 -0.74242,-0.74783 -0.20642,0.0792 -0.44857,-0.0469 -0.53813,-0.28031 -0.0896,-0.23338 -0.45477,-0.42433 -0.81159,-0.42433 -0.35683,0 -0.58628,-0.10112 -0.50989,-0.2247 0.0764,-0.12359 -0.18449,-0.37561 -0.5797,-0.56004 -0.39522,-0.18443 -0.91112,-0.43163 -1.14644,-0.54933 -0.23533,-0.1177 -1.54502,-0.41592 -2.91042,-0.6627 -1.3654,-0.24678 -2.66375,-0.60672 -2.88522,-0.79986 -0.3423,-0.29851 -1.49207,-0.54992 -2.85409,-0.62409 -0.19049,-0.0104 -0.27276,-0.13792 -0.18282,-0.28344 0.0899,-0.14553 -0.0162,-0.26459 -0.23582,-0.26459 -0.21964,0 -0.49456,-0.15042 -0.61093,-0.33427 -0.11637,-0.18386 -0.56062,-0.45175 -0.98722,-0.59532 -0.4266,-0.14357 -0.76112,-0.3801 -0.74339,-0.52562 0.0361,-0.29647 -0.51491,-0.54381 -2.44973,-1.09956 -0.93733,-0.26924 -3.34721,-0.41588 -8.26822,-0.50312 -6.28496,-0.11142 -6.94532,-0.0822 -6.94532,0.30679 0,0.34856 -0.16272,0.39309 -0.85989,0.23532 -0.80237,-0.18158 -2.99361,-0.26177 -4.82865,-0.17671 -0.43656,0.0202 -1.15094,0.0194 -1.5875,-0.002 -1.51842,-0.0738 -2.51354,0.0501 -2.51354,0.31305 0,0.14552 0.17859,0.26459 0.39688,0.26459 0.21828,0 0.39687,0.10358 0.39687,0.23019 0,0.12661 0.56555,0.37637 1.25677,0.55502 2.1136,0.54628 2.06602,0.51763 1.5009,0.90365 -0.54147,0.36987 -2.23444,0.40504 -3.22097,0.0669 -0.32758,-0.11227 -0.72366,-0.44343 -0.88019,-0.7359 -0.16142,-0.30162 -0.44758,-0.46922 -0.66118,-0.38726 -0.20712,0.0795 -0.37658,0.0527 -0.37658,-0.0595 0,-0.34057 -2.57686,-0.76504 -3.04703,-0.50192 -0.37538,0.21007 -2.64373,0.3155 -5.02276,0.23345 -0.43656,-0.0151 -1.01702,0.0421 -1.28991,0.12692 -0.27352,0.0851 -0.42819,0.0443 -0.3447,-0.0908 0.0833,-0.13478 -0.16968,-0.20365 -0.56218,-0.15305 -0.83559,0.10772 -1.52142,-0.26609 -1.26108,-0.68734 0.1,-0.16179 0.62127,-0.29737 1.15838,-0.30128 l 0.97657,-0.007 -0.86228,-0.72049 c -0.99537,-0.83169 -1.12049,-1.75174 -0.29808,-2.19189 0.76762,-0.41082 2.68341,-0.0981 4.46765,0.7293 1.61133,0.74719 1.988,0.81657 5.42396,0.99901 7.68239,0.40792 8.0737,0.3738 7.16967,-0.62514 -0.23254,-0.25695 -0.42279,-0.61238 -0.42279,-0.78985 0,-0.17747 -0.38379,-0.48403 -0.85285,-0.68126 -0.77172,-0.32449 -0.88641,-0.31069 -1.20563,0.14506 -0.457,0.65247 -0.87458,0.6361 -1.62573,-0.0637 -0.63466,-0.59127 -1.97391,-0.89141 -2.49565,-0.5593 -0.16634,0.10589 -0.41863,0.19434 -0.56065,0.19657 -0.14201,0.002 -0.37536,0.36124 -0.51854,0.7978 -0.34398,1.04875 -0.34403,1.0488 -0.76775,0.69714 -0.45021,-0.37364 -0.35963,-1.43472 0.19471,-2.28075 0.7287,-1.11214 2.94686,-1.15175 4.44692,-0.0794 0.35469,0.25356 0.64188,0.25369 1.3417,6.3e-4 0.48973,-0.17708 1.11357,-0.32197 1.38632,-0.32197 0.27274,0 0.80007,-0.28733 1.17184,-0.6385 1.05472,-0.99631 2.46911,-1.00789 3.61386,-0.0296 0.42143,0.36015 0.96092,0.82272 1.19887,1.02794 1.66559,1.4365 1.98507,1.56491 3.03304,1.21905 0.77658,-0.2563 1.03096,-0.25985 1.1124,-0.0155 0.0728,0.21841 0.20139,0.18574 0.41415,-0.10523 0.18061,-0.247 0.83715,-0.47154 1.58327,-0.54148 1.71281,-0.16056 1.96399,-0.36002 1.19956,-0.95258 -0.5366,-0.41594 -0.57176,-0.52873 -0.23443,-0.75184 0.21828,-0.14436 1.01222,-0.2643 1.7643,-0.26653 0.75208,-0.002 1.55576,-0.0763 1.78594,-0.16465 0.49759,-0.19094 0.55865,-0.63246 0.0878,-0.63478 -0.1819,-8.9e-4 -0.66183,-0.17434 -1.06651,-0.38543 -0.40469,-0.21109 -0.9107,-0.31668 -1.12448,-0.23464 -0.21378,0.082 -0.38869,0.0235 -0.38869,-0.12998 0,-0.19528 -0.24249,-0.19459 -0.80726,0.002 -0.94488,0.32938 -1.1583,0.20081 -0.91886,-0.55359 0.13646,-0.42995 0.39437,-0.5491 1.18859,-0.5491 0.99311,0 1.01375,-0.0199 0.98733,-0.95203 -0.0265,-0.93491 -0.0435,-0.94936 -0.94435,-0.80317 -0.78275,0.12703 -1.06625,0.0144 -1.93196,-0.76776 -0.74483,-0.6729 -1.27821,-0.92647 -2.00603,-0.95364 -0.54528,-0.0203 -1.46239,-0.0632 -2.03801,-0.0953 -1.18331,-0.0659 -2.21306,0.45778 -3.08851,1.57074 -0.67483,0.8579 -0.8348,2.13863 -0.32045,2.5655 0.48655,0.4038 0.44725,1.28775 -0.0573,1.28775 -0.23242,0 -0.62166,-0.48974 -0.89372,-1.12448 -1.28333,-2.99412 0.85758,-5.32996 4.87735,-5.32143 2.85424,0.006 3.23917,0.0846 4.03511,0.82352 0.64523,0.59898 1.04772,0.73503 2.27694,0.76963 1.42355,0.0401 1.49316,0.0115 1.49316,-0.6127 0,-1.26151 0.98427,-2.47748 2.52728,-3.12219 1.40047,-0.58515 4.09096,-0.31864 5.71689,0.5663 1.16668,0.63499 1.32024,0.66011 1.74313,0.28518 0.56158,-0.4979 2.72627,-0.45646 3.90332,0.0747 0.75413,0.34032 4.08134,3.60715 4.09472,4.02041 0.0124,0.38434 0.92519,1.25995 1.3219,1.26811 0.22232,0.005 0.62243,0.30792 0.88913,0.67411 0.38946,0.53472 0.42116,0.74263 0.16102,1.05607 -0.26615,0.32069 -0.24768,0.36103 0.10359,0.22624 0.49469,-0.18983 1.38657,0.5561 0.97158,0.81257 -0.17933,0.11084 -0.17693,0.33413 0.007,0.67833 0.19913,0.37207 0.58115,0.52302 1.38978,0.54914 0.61334,0.0198 0.84728,0.0876 0.51986,0.1507 -0.32742,0.0631 -0.59531,0.21429 -0.59531,0.33607 0,0.12178 -0.23813,0.15914 -0.52917,0.083 -0.42536,-0.11123 -0.52917,-0.008 -0.52917,0.52563 0,0.72368 0.42385,0.98521 1.59669,0.98521 0.85005,0 2.00433,0.43485 2.70279,1.01821 0.25466,0.21269 0.46302,0.29416 0.46302,0.18102 0,-0.11313 0.14883,-0.0876 0.33073,0.0568 0.1819,0.14436 0.79187,0.34568 1.35549,0.44737 0.56362,0.10169 1.21846,0.28554 1.45521,0.40855 0.23675,0.12301 1.34711,0.47988 2.46748,0.79303 1.12038,0.31316 2.60866,0.84334 3.3073,1.17819 0.69864,0.33484 1.53291,0.69057 1.85394,0.79051 0.32103,0.0999 0.85681,0.50439 1.19063,0.8988 0.33381,0.39441 1.02365,1.00739 1.53297,1.36218 0.50933,0.35478 0.98557,0.72774 1.05834,0.8288 0.0728,0.10106 1.08479,0.6737 2.24895,1.27253 2.42439,1.24709 2.84823,1.54904 2.6422,1.8824 -0.18333,0.29664 -1.37911,-0.19123 -2.16571,-0.8836 -0.32002,-0.28168 -0.7578,-0.44463 -0.97285,-0.36211 -0.21504,0.0825 -0.53334,-0.0215 -0.70731,-0.23111 -0.17398,-0.20963 -0.5314,-0.38114 -0.79426,-0.38114 -0.42071,0 -1.08105,-0.56614 -2.67946,-2.29722 -0.70369,-0.76209 -1.2278,-1.14237 -1.57446,-1.14237 -0.17658,0 -0.53009,-0.18917 -0.78557,-0.42037 -0.25548,-0.23121 -0.86017,-0.51841 -1.34375,-0.63823 -0.48358,-0.11981 -1.23643,-0.33535 -1.67299,-0.47896 -2.39323,-0.78728 -3.56764,-1.10827 -4.05479,-1.10827 -0.29931,0 -0.61778,-0.11906 -0.70771,-0.26458 -0.0899,-0.14553 -0.39462,-0.26459 -0.67708,-0.26459 -0.28245,0 -0.51355,-0.11906 -0.51355,-0.26458 0,-0.14552 -0.18562,-0.26458 -0.41249,-0.26458 -0.24442,0 -0.33557,-0.12447 -0.2237,-0.30547 0.11169,-0.18071 0.0731,-0.23396 -0.0945,-0.1304 -0.1558,0.0963 -0.62068,0.0401 -1.03307,-0.12486 -0.4124,-0.16496 -1.04747,-0.33662 -1.41127,-0.38148 -0.3638,-0.0448 -1.19724,-0.22376 -1.85208,-0.39757 -0.65484,-0.1738 -1.42326,-0.30621 -1.7076,-0.29425 -0.28433,0.012 -0.64152,-0.0797 -0.79375,-0.2038 -0.15223,-0.12406 -0.63396,-0.18465 -1.07053,-0.13465 -0.43656,0.05 -1.0578,-0.0813 -1.38053,-0.29174 -0.32273,-0.21045 -0.97758,-0.3731 -1.45521,-0.36145 -0.47763,0.0117 -1.87502,-0.10156 -3.10531,-0.25159 -1.64067,-0.20007 -2.33364,-0.19248 -2.59986,0.0285 -0.27589,0.22897 -0.41792,0.2123 -0.59208,-0.0695 -0.12602,-0.2039 -0.63642,-0.38487 -1.13422,-0.40216 -0.7549,-0.0262 -0.88404,0.0491 -0.77819,0.45389 0.0972,0.37183 -0.0226,0.48532 -0.51249,0.48532 -0.35167,0 -0.77199,-0.1326 -0.93405,-0.29466 -0.19657,-0.19657 -0.98483,-0.23869 -2.36802,-0.12653 -3.55804,0.28851 -4.17999,0.29593 -4.52573,0.0539 -0.21388,-0.1497 -0.5019,-0.0853 -0.79375,0.17745 -0.26002,0.2341 -1.11685,0.46066 -1.98185,0.52402 -0.83808,0.0614 -1.60207,0.1899 -1.69774,0.28558 -0.0957,0.0957 -0.43192,0.17395 -0.74721,0.17395 -0.3153,0 -0.6634,0.0893 -0.77356,0.19843 -0.11017,0.10914 -0.44692,0.19844 -0.74834,0.19844 -0.30142,0 -0.59824,0.14883 -0.6596,0.33073 -0.0993,0.29447 1.28986,0.51534 2.16763,0.34463 0.50626,-0.0984 5.64111,-0.0399 8.0325,0.0915 1.42781,0.0785 2.80666,0.30712 3.2818,0.54415 0.45067,0.22482 0.93952,0.40877 1.08632,0.40877 0.29044,0 2.6357,1.41896 3.48824,2.1105 1.07045,0.86829 3.77835,1.7055 6.43005,1.98802 0.48059,0.0512 1.04614,0.23612 1.25677,0.41094 0.21064,0.17481 0.38298,0.25776 0.38298,0.18433 0,-0.0734 0.44648,0.0353 0.99218,0.24168 0.54571,0.20635 1.20055,0.44433 1.45521,0.52884 0.25466,0.0845 0.46302,0.25884 0.46302,0.38738 0,0.12855 0.20958,0.23373 0.46573,0.23373 0.25615,0 0.76216,0.27005 1.12448,0.60012 0.36231,0.33007 1.37313,1.06135 2.24625,1.62507 0.87313,0.56372 2.00422,1.46508 2.51354,2.00303 0.50933,0.53794 1.43206,1.29644 2.05052,1.68554 0.70842,0.4457 1.12448,0.90203 1.12448,1.23331 0,0.88254 -0.96299,0.61346 -1.87758,-0.52463 z M 40.15866,151.45769 c 0,-0.14552 -0.12609,-0.26458 -0.2802,-0.26458 -0.15411,0 -0.20661,0.11906 -0.11668,0.26458 0.0899,0.14552 0.21603,0.26458 0.2802,0.26458 0.0642,0 0.11668,-0.11906 0.11668,-0.26458 z m -1.05834,-1.68895 c 0,-0.0558 -0.29765,-0.15835 -0.66145,-0.22789 -0.36381,-0.0695 -0.66146,-0.0239 -0.66146,0.10145 0,0.12534 0.29765,0.22789 0.66146,0.22789 0.3638,0 0.66145,-0.0456 0.66145,-0.10145 z M 34.07324,149.367 c 0,-0.13123 -0.74414,-0.32108 -1.65364,-0.42189 -1.17895,-0.13067 -1.77175,-0.3331 -2.06504,-0.70517 -0.32315,-0.40994 -0.66367,-0.50277 -1.5875,-0.43275 l -1.17611,0.0891 1.49919,0.47009 c 0.82456,0.25856 1.64281,0.64314 1.81834,0.85464 0.35354,0.426 3.16476,0.55564 3.16476,0.14594 z m 1.32292,-0.026 c 0,-0.14552 -0.24515,-0.26458 -0.54478,-0.26458 -0.29963,0 -0.4712,0.11906 -0.38126,0.26458 0.0899,0.14552 0.33508,0.26459 0.54478,0.26459 0.20969,0 0.38126,-0.11907 0.38126,-0.26459 z m 13.75833,-0.39385 c 0,-0.0711 -0.20505,-0.36875 -0.45568,-0.66146 -0.32374,-0.3781 -0.78096,-0.53219 -1.57919,-0.53219 -1.53196,0 -1.27138,0.65288 0.39985,1.00184 1.63424,0.34123 1.63502,0.34132 1.63502,0.19181 z m 0.36514,-2.20063 c 0.18238,-0.29509 -2.18273,-1.79447 -3.09797,-1.96398 -0.51002,-0.0945 -0.79567,-0.0156 -0.89666,0.24757 -0.24187,0.6303 0.80549,1.41661 2.19741,1.64972 0.71488,0.11972 1.38206,0.23169 1.48261,0.2488 0.10055,0.0171 0.24213,-0.0648 0.31461,-0.18211 z m 28.87132,-1.10968 c -0.0899,-0.14553 -0.42439,-0.26276 -0.74322,-0.26054 -0.47129,0.003 -0.50548,0.052 -0.18282,0.26054 0.52126,0.33686 1.13423,0.33686 0.92604,0 z m -4.78108,-1.71103 c 0.58162,-0.47545 0.70549,-0.72081 0.49608,-0.98268 -0.62651,-0.78344 -0.10124,-2.06879 0.84541,-2.06879 1.27935,0 1.11387,-1.00373 -0.30333,-1.83989 -0.50465,-0.29775 -0.95505,-0.54136 -1.00089,-0.54136 -0.0458,0 -0.1626,0.49556 -0.25945,1.10125 -0.28602,1.78869 -0.81796,0.72538 -1.01418,-2.0273 -0.0104,-0.14552 0.063,-0.51842 0.16294,-0.82866 0.1636,-0.50763 0.0555,-0.58302 -1.07961,-0.75325 -1.03276,-0.15487 -1.30996,-0.10851 -1.52927,0.25573 -0.14733,0.24469 -0.46419,0.67727 -0.70412,0.9613 -0.43001,0.50902 -0.4434,0.50732 -0.93587,-0.11875 -0.98376,-1.25065 -2.54663,-1.81214 -5.03801,-1.81001 -1.18619,0.001 -1.47685,0.10783 -2.04216,0.75054 -0.40481,0.46024 -0.66234,1.07917 -0.66748,1.60421 -0.007,0.71614 0.10971,0.88368 0.71925,1.03253 0.40018,0.0977 0.99367,0.38359 1.31887,0.63526 0.33016,0.2555 1.07343,0.46422 1.68309,0.47264 1.13296,0.0156 2.35347,0.49572 3.3054,1.30017 0.64652,0.54635 1.72437,2.06408 1.79468,2.52711 0.11953,0.78711 0.51424,0.98231 1.96774,0.97313 1.18735,-0.008 1.66965,-0.14351 2.28091,-0.64318 z m -9.33876,-0.0437 c -0.48987,-0.21373 -0.95365,-0.32564 -1.0306,-0.24868 -0.16933,0.16932 0.96908,0.64884 1.5244,0.6421 0.21828,-0.003 -0.004,-0.17968 -0.4938,-0.39342 z m 12.26775,-0.36197 c 0.29105,-0.12507 0.38034,-0.23576 0.19844,-0.24599 -0.1819,-0.0102 -0.33073,-0.30236 -0.33073,-0.64919 0,-0.39577 -0.18615,-0.67928 -0.49987,-0.76132 -0.62524,-0.16351 -0.96926,0.0502 -1.18243,0.73465 -0.12086,0.38807 -0.004,0.61346 0.42736,0.82741 0.74395,0.3686 0.74851,0.36891 1.38723,0.0944 z m 1.50813,-0.84667 c -0.16977,-0.16977 -0.39651,-0.22085 -0.50387,-0.11349 -0.10735,0.10735 -0.0235,0.3013 0.18637,0.43099 0.49413,0.30539 0.71726,0.0823 0.3175,-0.3175 z m -12.88521,0.0529 c -0.0899,-0.14552 -0.30532,-0.26276 -0.47863,-0.26053 -0.18934,0.002 -0.15671,0.10642 0.0818,0.26053 0.50829,0.32849 0.59989,0.32849 0.39687,0 z m -3.83646,-1.01424 c 0,-0.67373 -0.28235,-0.88789 -0.70652,-0.53586 -0.2707,0.22466 -0.28491,0.38587 -0.0581,0.65916 0.42001,0.50608 0.76461,0.45051 0.76461,-0.1233 z m 1.5875,-0.0441 c 0,-0.14553 -0.12609,-0.26459 -0.28019,-0.26459 -0.15411,0 -0.20662,0.11906 -0.11668,0.26459 0.0899,0.14552 0.21602,0.26458 0.2802,0.26458 0.0642,0 0.11667,-0.11906 0.11667,-0.26458 z m 1.85209,-0.52917 c 0,-0.14552 -0.12609,-0.26458 -0.2802,-0.26458 -0.15411,0 -0.20662,0.11906 -0.11668,0.26458 0.0899,0.14552 0.21603,0.26458 0.2802,0.26458 0.0642,0 0.11668,-0.11906 0.11668,-0.26458 z m -4.23334,-0.44219 c 0,-0.26683 -0.84321,-1.14531 -1.09934,-1.14531 -0.33093,0 -0.27111,0.64038 0.0939,1.00542 0.3404,0.3404 1.00541,0.43293 1.00541,0.13989 z m 13.62604,-3.26198 c 0.0899,-0.14552 -0.0221,-0.26458 -0.24896,-0.26458 -0.22687,0 -0.41249,0.11906 -0.41249,0.26458 0,0.14552 0.11203,0.26459 0.24896,0.26459 0.13694,0 0.32256,-0.11907 0.41249,-0.26459 z m -13.36145,22.09456 c -0.65485,-0.49235 -1.38907,-1.07122 -1.6316,-1.28637 -0.24254,-0.21514 -0.50165,-0.3305 -0.5758,-0.25634 -0.0742,0.0741 -0.32526,-0.23342 -0.55801,-0.68351 -0.62297,-1.20469 -0.0764,-1.07454 2.39699,0.57072 1.3984,0.93021 2.08821,1.55659 2.08821,1.89619 0,0.78947 -0.42963,0.72934 -1.71979,-0.24069 z m 48.25929,0.26267 c -0.2761,-0.20899 -0.68791,-0.38377 -0.91513,-0.3884 -0.22723,-0.005 -0.66873,-0.24654 -0.98113,-0.53758 -0.31239,-0.29104 -0.69203,-0.52916 -0.84364,-0.52916 -0.41419,0 -0.33151,-0.7157 0.10189,-0.88201 0.20764,-0.0797 0.51987,0.0266 0.69385,0.23627 0.17398,0.20964 0.44033,0.38115 0.5919,0.38115 0.72008,0 2.30547,0.934 2.30547,1.35822 0,0.66059 -0.37181,0.8016 -0.95321,0.36151 z M 56.0998,156.18868 c -0.47294,-0.13656 -0.85989,-0.37783 -0.85989,-0.53616 0,-0.15833 -0.23044,-0.22762 -0.51208,-0.15397 -0.29606,0.0774 -0.57159,-0.0212 -0.65316,-0.23372 -0.0776,-0.2022 -0.25612,-0.36764 -0.39673,-0.36764 -0.14062,0 -0.59084,-0.13735 -1.0005,-0.30524 -0.97762,-0.40064 -0.99411,-0.40556 -2.99378,-0.89333 -0.94589,-0.23072 -1.99747,-0.4879 -2.33684,-0.5715 -0.68454,-0.16864 -1.03943,-0.78032 -0.66815,-1.15161 0.24194,-0.24194 1.18621,-0.0565 3.53415,0.69418 0.65485,0.20935 1.48828,0.43763 1.85209,0.50728 1.61959,0.31006 5.29166,2.45381 5.29166,3.08926 0,0.25783 -0.12113,0.25036 -1.25677,-0.0775 z m 102.7387,-2.76544 c -0.39962,-0.29498 -0.44406,-0.451 -0.19844,-0.69662 0.39327,-0.39327 0.94007,0.0619 0.80434,0.6695 -0.0797,0.35682 -0.15469,0.36018 -0.6059,0.0271 z m -40.95849,-1.61609 c -0.25466,-0.0681 -0.46302,-0.23035 -0.46302,-0.36064 0,-0.13028 -0.18011,-0.16776 -0.40025,-0.0833 -0.22013,0.0845 -0.56672,0.0154 -0.77019,-0.15344 -0.22194,-0.1842 -0.43174,-0.20706 -0.52439,-0.0571 -0.1883,0.30468 -1.86431,-0.039 -2.41371,-0.495 -0.44231,-0.36707 -0.52356,-1.0521 -0.12479,-1.0521 0.14552,0 0.26458,0.10418 0.26458,0.23151 0,0.28811 1.26909,0.57355 3.175,0.71412 2.17481,0.1604 2.69378,0.32979 2.59423,0.84672 -0.0911,0.47307 -0.56092,0.61684 -1.33746,0.40927 z m 20.5647,-0.0957 c -0.0936,-0.15144 -0.40411,-0.2011 -0.69003,-0.11035 -0.29372,0.0932 -0.80195,-0.0198 -1.16836,-0.25992 -0.35667,-0.2337 -0.6485,-0.35591 -0.6485,-0.27157 0,0.20614 -1.58138,-0.67727 -2.27571,-1.27128 -0.30576,-0.26158 -0.9606,-0.52282 -1.45521,-0.58054 -1.29074,-0.15063 -2.08991,-0.42821 -2.08991,-0.72588 0,-0.14437 -0.61233,-0.22587 -1.38906,-0.18489 -1.66507,0.0879 -4.00582,-0.53812 -3.16934,-0.84755 0.28805,-0.10655 1.02244,-0.0817 1.63197,0.0553 0.60953,0.13695 1.22533,0.17664 1.36843,0.0882 0.65343,-0.40383 4.32918,0.86597 7.37883,2.54905 0.50932,0.28109 1.3655,0.51126 1.90262,0.51149 0.9437,4e-4 1.69131,0.52223 1.05299,0.735 -0.17219,0.0574 -0.24577,0.21325 -0.16352,0.34634 0.0823,0.13309 0.09,0.24199 0.0173,0.24199 -0.0728,0 -0.20887,-0.12391 -0.30247,-0.27535 z m -27.31158,-2.66551 c -0.87352,-0.55942 -1.0487,-0.87998 -0.62425,-1.1423 0.1296,-0.0801 0.43,0.151 0.66756,0.51355 0.23755,0.36255 0.60074,0.65919 0.80707,0.65919 0.20634,0 0.44875,0.11906 0.53869,0.26458 0.27605,0.44667 -0.4825,0.28556 -1.38907,-0.29502 z m -2.29579,-1.16587 c -0.28041,-0.21215 -0.44084,-0.45473 -0.35649,-0.53908 0.18238,-0.18238 1.26322,0.45137 1.26322,0.7407 0,0.30337 -0.33882,0.22803 -0.90673,-0.20162 z m 15.10611,-0.17044 c -0.0697,-0.26664 -0.011,-0.55638 0.13056,-0.64386 0.31089,-0.19213 0.37254,-0.13179 0.58998,0.57745 0.11705,0.38179 0.0518,0.55121 -0.21238,0.55121 -0.20976,0 -0.43844,-0.21816 -0.50816,-0.4848 z m -1.07733,-0.11826 c -0.13198,-0.34393 -0.23947,-0.36381 -0.55434,-0.10249 -0.31541,0.26177 -0.42298,0.23984 -0.55872,-0.11391 -0.23259,-0.60612 -0.0678,-0.69549 0.8366,-0.45363 0.42925,0.1148 0.81895,0.40852 0.866,0.65271 0.10938,0.56771 -0.3729,0.58188 -0.58954,0.0173 z m -16.16476,-0.63166 c -0.0899,-0.14552 -0.42766,-0.26458 -0.75049,-0.26458 -0.32283,0 -0.82182,-0.15594 -1.10886,-0.34654 -0.28704,-0.19059 -0.85995,-0.36873 -1.27314,-0.39586 -0.41318,-0.0271 -0.85966,-0.11635 -0.99218,-0.19825 -0.38535,-0.23816 -0.27838,-0.64685 0.16931,-0.64685 0.62927,0 4.61682,1.63194 4.61682,1.88947 0,0.3125 -0.46133,0.28643 -0.66146,-0.0374 z m -15.60312,-0.61007 c -0.58672,-0.63629 -0.92669,-1.87036 -0.35882,-1.3025 0.17879,0.17879 0.53235,0.32507 0.7857,0.32507 0.59735,0 0.83287,0.40074 0.62341,1.0607 -0.20669,0.65121 -0.38616,0.63698 -1.05029,-0.0833 z m -2.06316,-0.89773 c -0.24908,-0.24908 -0.93117,-0.47423 -1.52991,-0.505 -0.59424,-0.0306 -1.37998,-0.13072 -1.74608,-0.2226 l -0.66565,-0.16707 0.69555,-0.54712 c 0.43637,-0.34325 0.93761,-0.50086 1.34511,-0.42296 0.45469,0.0869 0.64956,0.006 0.64956,-0.27018 0,-0.33289 0.33978,-0.36471 2.18034,-0.20415 2.45042,0.21375 2.58378,0.25958 2.5781,0.88593 -0.008,0.89409 -0.36096,1.13608 -1.13347,0.77733 -0.39074,-0.18146 -0.71136,-0.41922 -0.71249,-0.52836 -0.001,-0.10914 -0.18868,-0.19843 -0.41677,-0.19843 -0.2856,0 -0.36552,0.15498 -0.2567,0.49783 0.10139,0.31944 0.007,0.5558 -0.26352,0.65959 -0.23185,0.089 -0.34743,0.28166 -0.25686,0.42821 0.24939,0.40351 0.0356,0.31975 -0.46721,-0.18302 z m 54.69473,-5.70729 c -0.0896,-0.23343 -0.30184,-0.37628 -0.4717,-0.31745 -0.38182,0.13225 -1.94265,-1.1083 -1.69988,-1.35107 0.29443,-0.29442 1.45552,0.11915 2.23839,0.7973 0.58345,0.50542 0.67197,0.71045 0.4181,0.9684 -0.25535,0.25945 -0.35579,0.23932 -0.48491,-0.0972 z m -37.16074,-7.8696 c 0,-0.24768 -0.56162,-0.53902 -3.25525,-1.68864 -0.55346,-0.23621 -0.94029,-0.53626 -0.85963,-0.66677 0.19178,-0.31031 1.10418,-0.0652 1.49066,0.40051 0.17143,0.20656 0.55111,0.30359 0.87243,0.22294 0.38988,-0.0978 0.83829,0.0977 1.42493,0.62147 0.84218,0.75189 1.11103,1.37852 0.59145,1.37852 -0.14553,0 -0.26459,-0.12061 -0.26459,-0.26803 z"
       id="path7" />
  </g>
</svg>
