<?xml version="1.0" encoding="UTF-8" standalone="no"?>
<!-- Created with Inkscape (http://www.inkscape.org/) -->

<svg
   width="129.24312mm"
   height="81.627045mm"
   viewBox="0 0 129.24313 81.627036"
   version="1.1"
   id="svg1"
   inkscape:version="1.4.1-rc (06eac75fbf, 2025-03-29)"
   sodipodi:docname="field6.svg"
   xmlns:inkscape="http://www.inkscape.org/namespaces/inkscape"
   xmlns:sodipodi="http://sodipodi.sourceforge.net/DTD/sodipodi-0.dtd"
   xmlns="http://www.w3.org/2000/svg"
   xmlns:svg="http://www.w3.org/2000/svg">
  <sodipodi:namedview
     id="namedview1"
     pagecolor="#ffffff"
     bordercolor="#000000"
     borderopacity="0.25"
     inkscape:showpageshadow="2"
     inkscape:pageopacity="0.0"
     inkscape:pagecheckerboard="0"
     inkscape:deskcolor="#d1d1d1"
     inkscape:document-units="mm"
     inkscape:zoom="0.72248176"
     inkscape:cx="244.98888"
     inkscape:cy="154.32916"
     inkscape:window-width="1850"
     inkscape:window-height="1016"
     inkscape:window-x="0"
     inkscape:window-y="0"
     inkscape:window-maximized="1"
     inkscape:current-layer="layer1" />
  <defs
     id="defs1" />
  <g
     inkscape:label="Layer 1"
     inkscape:groupmode="layer"
     id="layer1"
     transform="translate(-40.216668,-107.42075)">
    <path
       style="fill:#000000"
       d="m 83.5325,188.06126 c 0.13519,-1.38764 0.85877,-1.7242 3.31256,-1.54077 1.77394,0.13261 1.91823,0.10462 1.91823,-0.37209 0,-0.28351 0.25103,-0.74935 0.55784,-1.03518 0.45315,-0.42218 0.83794,-0.49994 2.05052,-0.41435 0.82097,0.058 1.99679,0.24258 2.61293,0.41031 0.94097,0.25614 1.22456,0.2366 1.77207,-0.12215 0.35994,-0.23584 0.85459,-0.34928 1.10462,-0.25334 0.40053,0.1537 0.43347,0.0328 0.28539,-1.04757 -0.15088,-1.10084 -0.0993,-1.27489 0.5228,-1.76424 0.3796,-0.2986 1.06971,-0.54291 1.53357,-0.54291 1.69624,0 6.75818,3.38431 6.75818,4.51838 0,0.27979 -0.12409,0.50871 -0.27575,0.50871 -0.29179,0 -0.36475,-0.0511 -1.87585,-1.31372 -0.52853,-0.44162 -1.10202,-0.80295 -1.27442,-0.80295 -0.1724,0 -0.69247,-0.28715 -1.1557,-0.63811 -0.94483,-0.71583 -3.18545,-1.17447 -3.47207,-0.7107 -0.0984,0.15916 0.0173,0.62139 0.25696,1.02717 0.36397,0.61615 0.63191,0.74631 1.62527,0.78955 1.10713,0.0482 4.3245,1.25504 4.31542,1.61874 -0.009,0.3428 -0.40966,0.69124 -0.7897,0.68602 -0.21828,-0.003 -0.9755,-0.27764 -1.68272,-0.61033 -0.70721,-0.33269 -1.3511,-0.53963 -1.43086,-0.45987 -0.0798,0.0798 -0.28901,0.0255 -0.46499,-0.12053 -0.22129,-0.18365 -0.42238,-0.14215 -0.65205,0.13459 -0.42654,0.51394 -0.91773,0.50624 -1.73181,-0.0272 -0.35868,-0.23502 -0.65181,-0.32431 -0.65139,-0.19844 4.2e-4,0.12588 0.35726,0.467 0.79299,0.75804 0.43573,0.29104 0.79257,0.67097 0.79299,0.84428 10e-4,0.61458 -0.58894,0.66569 -1.33323,0.11541 -0.44771,-0.33101 -0.82057,-0.45098 -0.91695,-0.29503 -0.24122,0.3903 -1.19899,-0.19755 -1.03178,-0.63328 0.0928,-0.24172 -0.0603,-0.34543 -0.47288,-0.32039 -0.33551,0.0204 -0.90768,-0.1139 -1.27148,-0.29837 -0.79018,-0.40067 -2.61918,-0.43741 -3.175,-0.0638 -0.33521,0.22533 -0.28382,0.35987 0.33073,0.86579 0.40018,0.32945 0.7276,0.78997 0.7276,1.02339 0,0.50071 -1.23657,0.88193 -1.67895,0.51761 -0.36925,-0.3041 -3.32619,-0.87439 -3.61337,-0.69689 -0.11219,0.0693 -0.3511,-0.0512 -0.53093,-0.26791 -0.4992,-0.60149 -0.70847,-0.4761 -0.73452,0.44009 -0.0217,0.76446 -0.39005,1.26837 -0.93453,1.27857 -0.11894,0.002 -0.17282,-0.44173 -0.11974,-0.98658 z m -6.06252,0.26302 c -0.0903,-0.25466 -0.31821,-0.64381 -0.50644,-0.86479 -0.18823,-0.22097 -0.30643,-0.63769 -0.26267,-0.92604 0.10248,-0.67521 -1.09395,-1.84991 -2.72086,-2.67143 -0.21362,-0.10788 -0.46448,-0.003 -0.60845,0.2542 -0.13474,0.24076 -0.36516,0.43775 -0.51203,0.43775 -0.14688,0 -0.19773,-0.11216 -0.11301,-0.24925 0.0847,-0.13709 -0.27653,-0.45358 -0.8028,-0.70331 -0.76247,-0.36182 -0.99957,-0.38492 -1.16718,-0.11373 -0.28082,0.45438 -0.79867,0.10631 -0.79867,-0.53682 0,-0.3714 -0.18309,-0.51355 -0.66146,-0.51355 -0.3638,0 -0.66146,-0.10236 -0.66146,-0.22746 0,-0.25102 -1.94078,-0.17706 -2.37362,0.0904 -0.16239,0.10036 -0.27221,-0.1379 -0.27221,-0.59056 0,-1.04076 -0.54693,-1.69893 -1.4725,-1.77197 -0.42705,-0.0337 -0.9843,-0.15248 -1.23833,-0.26394 -0.25403,-0.11147 -1.26606,-0.11506 -2.24896,-0.008 -0.9829,0.10709 -2.1998,0.17721 -2.70424,0.15582 -0.69217,-0.0294 -0.84238,0.0359 -0.61232,0.26594 0.23006,0.23006 0.21165,0.39802 -0.075,0.6847 -0.43005,0.43005 -0.51964,1.92957 -0.11529,1.92957 0.14553,0 0.26459,0.23812 0.26459,0.52917 0,0.29398 0.17639,0.52916 0.39687,0.52916 0.50797,0 0.52027,0.95437 0.0148,1.14833 -0.44835,0.17205 -1.70812,-1.89235 -1.91168,-3.1327 -0.14662,-0.89333 0.28161,-2.24896 0.71041,-2.24896 0.15502,0 0.60445,-0.23206 0.99874,-0.51569 0.79134,-0.56924 4.48883,-1.1854 4.93992,-0.8232 0.15119,0.1214 0.76871,0.30212 1.37227,0.40161 1.21951,0.20102 2.6244,1.4879 2.36431,2.1657 -0.12401,0.32315 0.0615,0.3701 1.03793,0.26272 0.65391,-0.0719 1.18892,-0.0201 1.18892,0.1151 0,0.13521 0.28311,0.24584 0.62914,0.24584 0.34604,0 1.04044,0.17185 1.54312,0.38188 0.50268,0.21003 1.26136,0.43837 1.68595,0.50741 0.4246,0.069 0.772,0.14443 0.772,0.16753 0,0.0231 0.23797,0.0862 0.52882,0.1403 0.29085,0.0541 0.72665,0.34261 0.96845,0.64121 0.2418,0.29861 0.50069,0.54292 0.57531,0.54292 0.21978,0 1.60125,1.4751 1.9867,2.12136 0.25761,0.43191 0.27331,0.64595 0.0572,0.77953 -0.44104,0.27258 -0.0374,1.06786 0.54205,1.06786 0.57367,0 0.64321,0.28099 0.18336,0.74084 -0.44191,0.44191 -0.72942,0.39652 -0.92164,-0.14553 z m 87.52952,-2.94858 c -0.3045,-0.19292 -0.3045,-0.25032 0,-0.36858 0.19837,-0.077 -0.0923,-0.0748 -0.64599,0.005 -0.55366,0.0798 -1.26803,0.0193 -1.5875,-0.13444 -0.64433,-0.31002 -1.50007,-0.54739 -2.69751,-0.74826 -0.43656,-0.0732 -1.21047,-0.27018 -1.71979,-0.43767 -0.50932,-0.16748 -1.01298,-0.28089 -1.11923,-0.25203 -0.10626,0.0289 -0.82063,-0.17896 -1.5875,-0.46185 -0.76687,-0.28288 -1.89398,-0.5688 -2.50469,-0.63538 -0.61071,-0.0666 -1.22257,-0.19038 -1.35969,-0.27512 -0.27536,-0.17018 -3.8361,-0.98752 -4.67368,-1.07281 -0.29104,-0.0296 -0.70776,-0.12998 -0.92604,-0.22298 -0.21829,-0.093 -1.26775,-0.22033 -2.33216,-0.28294 -1.0644,-0.0626 -2.00595,-0.1845 -2.09232,-0.27088 -0.0864,-0.0864 -0.3259,-0.0169 -0.53228,0.15438 -0.29198,0.24231 -0.42703,0.22762 -0.60864,-0.0662 -0.17505,-0.28323 -0.309,-0.30205 -0.53577,-0.0753 -0.19444,0.19443 -0.56905,0.22589 -1.04944,0.0881 -0.41088,-0.11784 -0.79269,-0.16862 -0.84846,-0.11286 -0.0558,0.0558 -0.92793,0.16426 -1.93815,0.24109 -1.01021,0.0768 -2.49159,0.22088 -3.29195,0.32009 -0.80037,0.0992 -1.69334,0.19901 -1.98438,0.22175 -0.92281,0.0721 -3.11,0.42071 -5.10937,0.81439 -1.0639,0.20948 -2.02298,0.32611 -2.13127,0.25918 -0.1083,-0.0669 -0.66647,-0.0158 -1.2404,0.11365 -1.22825,0.27702 -1.85649,-0.0941 -1.10233,-0.65122 0.40668,-0.3004 0.41569,-0.36892 0.0661,-0.50305 -0.44619,-0.17121 -0.56142,-0.96563 -0.14007,-0.96563 0.45285,0 0.29028,-0.4968 -0.25872,-0.79062 -0.69216,-0.37043 -3.52073,-0.54881 -3.99657,-0.25203 -0.28622,0.17851 -0.30616,0.34411 -0.0843,0.69998 0.20954,0.33606 0.6776,0.48013 1.67731,0.51626 1.55833,0.0563 1.7399,0.14877 1.50327,0.76542 -0.12959,0.33769 -0.4707,0.41758 -1.55404,0.36393 -0.76341,-0.0378 -1.68567,3.6e-4 -2.04947,0.0848 -0.3638,0.0844 -1.37583,0.29786 -2.24896,0.47427 -2.93254,0.5925 -3.57187,0.80171 -3.57187,1.16884 0,0.51757 -0.50852,0.62229 -1.63424,0.33655 -0.76444,-0.19404 -1.10675,-0.15576 -1.58163,0.17686 -0.80862,0.56637 -1.26226,0.53823 -1.1036,-0.0685 0.0899,-0.34386 -0.37808,-1.02288 -1.5474,-2.24513 -0.92197,-0.9637 -1.63969,-1.86205 -1.59492,-1.99635 0.0448,-0.13429 -0.044,-0.32163 -0.19716,-0.41632 -0.15528,-0.096 -0.28116,0.0397 -0.28444,0.30648 -0.005,0.44266 -0.0403,0.43883 -0.46302,-0.0509 -0.25142,-0.29127 -0.93339,-0.76162 -1.51547,-1.04523 -0.58208,-0.28361 -1.25489,-0.67816 -1.49513,-0.87677 -0.38718,-0.32009 -0.47286,-0.25185 -0.75424,0.60073 -0.17459,0.52902 -0.48759,1.02714 -0.69556,1.10695 -0.22384,0.0859 -0.31654,0.33914 -0.22719,0.62067 0.18646,0.58749 -0.30066,0.93171 -0.76876,0.54322 -0.38407,-0.31874 -0.21531,-1.93786 0.40918,-3.92573 0.38621,-1.2294 1.01816,-1.51679 1.01816,-0.46302 0,0.52648 0.13295,0.66146 0.65153,0.66146 0.35835,0 1.29762,0.24173 2.08729,0.53718 1.13974,0.42643 1.94639,1.05509 3.91253,3.04916 l 2.47678,2.51198 1.32291,-0.0569 c 0.72761,-0.0313 1.44198,-0.21247 1.5875,-0.40264 0.28348,-0.37045 2.38395,-0.97712 4.43013,-1.27955 l 1.25514,-0.18551 -0.16089,-1.00611 c -0.14947,-0.93475 -0.0997,-1.03776 0.70208,-1.45236 0.64387,-0.33296 1.3509,-0.42162 2.78495,-0.3492 2.10019,0.10606 3.02713,0.61786 3.02713,1.67142 0,0.54757 0.0998,0.57115 2.14983,0.50791 1.18241,-0.0365 2.25632,-0.1728 2.38647,-0.30294 0.13912,-0.13913 -0.17201,-0.50161 -0.75505,-0.87965 -1.03247,-0.66947 -1.6999,-1.91457 -1.25311,-2.33772 0.41137,-0.3896 3.51457,-0.56237 4.23177,-0.2356 0.35786,0.16306 0.73077,0.21636 0.82867,0.11846 0.31566,-0.31566 -0.81527,-0.9492 -1.7099,-0.95787 -0.57834,-0.006 -0.92674,-0.163 -1.04353,-0.47144 -0.35405,-0.935 -1.20476,-1.46932 -2.85077,-1.7905 -1.85733,-0.36243 -2.09518,-0.36658 -3.23344,-0.0564 -1.16611,0.31773 -1.16495,0.31498 -0.89718,2.11154 0.0163,0.10914 0.38676,0.19844 0.82333,0.19844 0.67028,0 0.79375,0.10289 0.79375,0.66145 0,0.6151 -0.0904,0.66146 -1.28985,0.66146 -1.23295,0 -1.29713,-0.0365 -1.4552,-0.82682 -0.39717,-1.98581 -0.11624,-3.48799 0.72388,-3.87077 0.72335,-0.32958 3.63946,-0.21439 5.5829,0.22053 1.14906,0.25715 1.61318,0.51988 2.14113,1.21207 0.43195,0.56631 0.90064,0.88374 1.30484,0.88374 0.34692,0 0.96594,0.13113 1.37559,0.29139 0.40966,0.16026 1.68853,0.34714 2.84195,0.41527 1.33821,0.0791 2.45943,0.30872 3.09831,0.63465 1.14937,0.58636 1.28686,0.61206 1.28686,0.24052 0,-0.14864 -0.2743,-0.39524 -0.60957,-0.548 -0.90469,-0.4122 -1.31718,-1.19367 -0.97125,-1.84005 0.23808,-0.44486 0.15451,-0.63786 -0.52312,-1.20805 -1.17363,-0.98755 -1.13322,-2.23855 0.0969,-2.99879 0.49684,-0.30707 1.00286,-0.54081 1.12448,-0.51942 0.79179,0.13927 1.41238,-0.0738 1.41762,-0.48679 0.003,-0.25466 0.22592,-0.74921 0.49484,-1.099 0.42713,-0.55556 0.63548,-0.61582 1.64776,-0.47652 1.27654,0.17567 2.64491,0.77669 3.14774,1.38257 0.17866,0.21527 0.45466,0.39139 0.61335,0.39139 0.33599,0 3.74109,3.59612 3.75177,3.96225 0.002,0.0763 0.0887,0.27171 0.1922,0.43416 0.21319,0.33467 -0.67261,1.25674 -0.94532,0.98403 -0.0973,-0.0973 -0.17697,-0.0676 -0.17697,0.066 0,0.13364 0.56555,0.53195 1.25677,0.88513 0.69123,0.35317 1.92719,1.03758 2.74659,1.5209 0.93415,0.551 1.84055,0.87876 2.43017,0.87876 1.45252,0 2.32409,0.43978 3.64462,1.83904 0.88214,0.93472 1.31669,1.22239 1.5875,1.05095 0.69752,-0.44156 3.10757,-0.26729 4.34453,0.31415 0.65326,0.30706 1.18774,0.66119 1.18774,0.78695 0,0.31771 1.44874,1.03599 2.08953,1.03599 0.29056,0 1.0679,0.28691 1.7274,0.63757 0.65951,0.35066 1.35042,0.68849 1.53536,0.75072 0.26767,0.0901 0.26955,0.19401 0.009,0.50962 -0.28644,0.3472 -0.51654,0.30397 -1.85208,-0.34792 -0.83876,-0.40941 -1.77306,-0.74705 -2.07623,-0.75031 -0.30317,-0.003 -0.64051,-0.0952 -0.74965,-0.20437 -0.10914,-0.10914 -0.27782,-0.20515 -0.37483,-0.21337 -0.097,-0.008 -0.59311,-0.11774 -1.10243,-0.24339 -0.50932,-0.12564 -1.10464,-0.25968 -1.32292,-0.29785 -0.82072,-0.14351 -1.20046,-0.2586 -1.5277,-0.46299 -0.1854,-0.1158 -1.26204,-0.23899 -2.39253,-0.27376 -1.1305,-0.0348 -2.18697,-0.14452 -2.34773,-0.24387 -0.16075,-0.0994 -0.66478,-0.10613 -1.12007,-0.0151 l -0.8278,0.16557 0.65983,0.34232 c 0.36291,0.18828 1.32008,0.42482 2.12704,0.52564 0.80696,0.10083 1.53219,0.28847 1.61162,0.41698 0.0794,0.12851 0.42049,0.23366 0.75794,0.23366 0.33744,0 1.01502,0.16775 1.50574,0.37279 0.49071,0.20503 1.01127,0.38381 1.15679,0.39729 0.92048,0.0853 2.01179,0.38314 2.1352,0.58283 0.0797,0.12902 0.43158,0.23459 0.78185,0.23459 0.93367,0 2.5921,0.84077 2.17757,1.10395 -0.4333,0.2751 -1.03577,0.26795 -1.48654,-0.0176 z m -12.47162,-4.52589 c -0.21829,-0.14107 -0.57547,-0.25648 -0.79375,-0.25648 -0.35278,0 -0.35278,0.0285 0,0.25648 0.21828,0.14106 0.57546,0.25648 0.79375,0.25648 0.35277,0 0.35277,-0.0285 0,-0.25648 z m -5.81978,-1.64427 0.92498,-0.10001 -0.79375,-0.34139 c -0.43656,-0.18776 -1.2624,-0.37804 -1.8352,-0.42284 -1.16473,-0.0911 -1.91658,-0.79237 -1.45098,-1.35338 0.19653,-0.23681 0.15457,-0.56966 -0.14481,-1.14858 -0.44011,-0.85109 -0.25022,-1.67438 0.4514,-1.95705 0.18357,-0.074 -0.41038,-0.14386 -1.31989,-0.15535 -1.00062,-0.0126 -1.65364,0.0898 -1.65364,0.25931 0,0.15411 -0.11693,0.20794 -0.25984,0.11961 -0.44579,-0.27551 -3.44433,-0.40772 -3.44433,-0.15185 0,0.35465 1.08996,1.15413 2.34515,1.72014 1.38732,0.62559 1.40349,1.02738 0.0361,0.89698 -1.19479,-0.11395 -1.17292,-0.13097 -0.73423,0.57149 0.25773,0.4127 0.25436,0.58806 -0.0165,0.85631 -0.27632,0.27368 -0.39003,0.24968 -0.60268,-0.12721 -0.18634,-0.33026 -0.44928,-0.41758 -0.90957,-0.30205 -0.46013,0.11549 -0.64746,0.0534 -0.64746,-0.21474 0,-0.35719 -2.81357,-1.45267 -3.07065,-1.19558 -0.0626,0.0626 0.11838,0.63222 0.40209,1.26591 0.28371,0.63369 0.4574,1.24673 0.38596,1.36232 -0.24575,0.39763 -0.857,0.20932 -1.02351,-0.31533 -0.27046,-0.85213 -1.75026,-2.19691 -2.06793,-1.87924 -0.31883,0.31883 0.16713,1.61096 0.60587,1.61096 0.51424,0 0.26791,0.81183 -0.32505,1.07132 -0.40582,0.17759 0.41535,0.20329 2.57968,0.0808 4.75097,-0.26899 9.49072,-0.31028 9.78959,-0.0853 0.42055,0.3166 1.29865,0.44399 1.58856,0.23045 0.1461,-0.10762 0.68189,-0.24067 1.19062,-0.29567 z m 9.45568,0.1962 c 0.1103,-0.11966 -0.0725,-0.15026 -0.40613,-0.068 -0.42288,0.10425 -0.70268,-0.004 -0.92354,-0.3578 -0.17427,-0.27906 -0.52261,-0.50737 -0.77408,-0.50737 -0.29771,0 -0.40408,-0.13846 -0.30492,-0.39688 0.0838,-0.21828 0.0205,-0.39687 -0.14059,-0.39687 -0.16109,0 -0.29289,0.12756 -0.29289,0.28348 0,0.15591 -0.1882,0.0953 -0.41821,-0.13473 -0.9058,-0.9058 -1.23569,0.26032 -0.35891,1.2687 0.46254,0.53196 0.76497,0.62005 1.98226,0.57739 0.79005,-0.0277 1.52671,-0.14824 1.63701,-0.26791 z m -26.92854,-1.47973 c -0.16088,-0.3006 -0.82978,-0.77685 -1.48645,-1.05833 -1.43484,-0.61505 -1.32081,-0.60884 -1.52261,-0.083 -0.26198,0.68272 1.10702,1.68713 2.30007,1.68751 0.93015,3e-4 0.98066,-0.0386 0.70899,-0.54622 z m 21.70514,0.28196 c 0,-0.14552 -0.20836,-0.26789 -0.46303,-0.27194 -0.25466,-0.004 -0.93071,-0.36124 -1.50234,-0.79375 -0.57162,-0.43252 -1.31576,-0.78639 -1.65364,-0.78639 -0.33788,0 -0.61526,-0.0893 -0.61639,-0.19844 -0.003,-0.27263 -1.31543,-0.85989 -1.92195,-0.85989 -0.94155,0 0.6668,1.63995 1.9684,2.00706 0.63043,0.17782 1.62249,0.50812 2.20457,0.734 1.23427,0.47898 1.98438,0.543 1.98438,0.16935 z m -9.67908,-5.52101 c 0.078,-0.12614 0.6803,-0.18903 1.33854,-0.13975 0.65979,0.0494 1.19678,-0.0258 1.19678,-0.16753 0,-0.14142 -0.17859,-0.25712 -0.39687,-0.25712 -0.21828,0 -0.39688,-0.13428 -0.39688,-0.2984 0,-0.19875 -0.34509,-0.24322 -1.03333,-0.13317 -0.92587,0.14806 -1.01958,0.11264 -0.90107,-0.34053 0.11575,-0.44263 0.31795,-0.48985 1.61959,-0.37823 1.44657,0.12405 1.47489,0.1138 1.03337,-0.37409 -0.24969,-0.27589 -0.45397,-0.68216 -0.45397,-0.90281 0,-0.84943 -1.88074,-1.88544 -3.19532,-1.76014 -1.17148,0.11165 -1.40948,1.02276 -0.38867,1.48787 0.87196,0.39729 0.88978,1.112 0.0277,1.112 -0.35522,0 -0.71943,0.11906 -0.80937,0.26458 -0.25787,0.41725 -0.61136,0.31007 -0.78535,-0.23813 -0.1189,-0.37461 -0.40996,-0.50308 -1.14231,-0.50418 -1.10507,-0.002 -1.64421,0.32521 -1.64421,0.99682 0,0.5263 0.95529,1.02174 2.33965,1.2134 0.5322,0.0737 1.38436,0.2376 1.89368,0.36427 1.26121,0.31368 1.53278,0.3225 1.69801,0.0551 z m 4.23954,-1.21745 c -0.28247,-0.21365 -0.63265,-0.38846 -0.77817,-0.38846 -0.14552,0 -0.0335,0.17481 0.249,0.38846 0.28248,0.21365 0.63266,0.38846 0.77818,0.38846 0.14552,0 0.0335,-0.17481 -0.24901,-0.38846 z m -27.3688,10.70721 c 0,-0.14552 0.50602,-0.25621 1.12448,-0.24598 0.87089,0.0144 1.00514,0.0699 0.59531,0.24598 -0.73786,0.31707 -1.71979,0.31707 -1.71979,0 z m -8.47812,-2.96643 c -0.60638,-0.22432 -0.60691,-0.22856 -0.0748,-0.6013 0.75237,-0.52698 2.8894,-0.78858 3.13926,-0.38429 0.40333,0.65259 -1.93324,1.40407 -3.0645,0.98559 z m -28.03438,-1.49407 c 0,-0.31557 0.11901,-0.78051 0.26447,-1.03319 0.14546,-0.25269 0.38021,-0.75709 0.52167,-1.12089 0.14147,-0.3638 0.61575,-1.25677 1.05395,-1.98438 0.43821,-0.7276 0.90543,-1.56593 1.03826,-1.86295 0.13284,-0.29703 0.43252,-0.69856 0.66596,-0.8923 0.23344,-0.19373 0.42444,-0.56587 0.42444,-0.82697 0,-0.2611 0.0893,-0.51441 0.19844,-0.56292 0.3158,-0.14035 1.08872,-1.86525 1.2251,-2.73402 0.0685,-0.43657 0.2613,-1.4486 0.42837,-2.24896 0.16707,-0.80037 0.3281,-1.57427 0.35785,-1.71979 0.0297,-0.14552 0.15195,-0.42134 0.27157,-0.61292 0.11962,-0.19158 0.16385,-0.40197 0.0983,-0.46752 -0.0656,-0.0656 0.22985,-1.09944 0.65646,-2.29751 0.42662,-1.19806 0.83903,-2.50572 0.91648,-2.90591 0.0774,-0.40018 0.24637,-0.7276 0.37538,-0.7276 0.129,0 0.23455,-0.18998 0.23455,-0.42218 0,-0.63249 1.0561,-1.99168 1.38811,-1.78649 0.18412,0.11379 0.22903,0.0217 0.12351,-0.25329 -0.15313,-0.39904 0.0809,-1.04392 0.73873,-2.03596 0.14476,-0.21828 0.51058,-1.04488 0.81295,-1.8369 0.57829,-1.51476 0.80837,-1.73923 1.39936,-1.36523 0.49246,0.31164 -0.0685,2.03913 -0.78709,2.42369 -0.28347,0.1517 -0.44156,0.39529 -0.35131,0.54131 0.18691,0.30244 -1.10442,3.019 -1.80291,3.79275 -0.25466,0.2821 -0.46302,0.60816 -0.46302,0.72458 0,0.11642 -0.20195,0.44754 -0.44879,0.73582 -0.24684,0.28829 -0.46806,0.96862 -0.49161,1.51186 -0.0235,0.54324 -0.17877,1.03303 -0.34495,1.08842 -0.16618,0.0554 -0.30215,0.38142 -0.30215,0.72451 0,0.34309 -0.11906,0.69738 -0.26458,0.78732 -0.14552,0.0899 -0.26458,0.38469 -0.26458,0.65502 0,0.27033 -0.13004,0.53485 -0.28896,0.58783 -0.15893,0.053 -0.30776,0.42 -0.33073,0.81561 -0.023,0.39561 -0.11992,0.71937 -0.21544,0.71948 -0.0955,1e-4 -0.11186,0.23653 -0.0363,0.52539 0.0755,0.28887 0.0461,0.73536 -0.0654,0.99219 -0.11153,0.25684 -0.17714,0.67449 -0.14581,0.92813 0.0313,0.25363 -0.12895,0.7266 -0.35621,1.05105 -0.22725,0.32446 -0.41319,0.92764 -0.41319,1.34041 0,0.48137 -0.10504,0.68557 -0.29293,0.56945 -0.19554,-0.12085 -0.23566,-6.2e-4 -0.12069,0.36162 0.11631,0.36647 0.0263,0.62432 -0.27711,0.79414 -0.26298,0.14716 -0.38369,0.42257 -0.29104,0.66401 0.0884,0.23027 -0.12488,0.80003 -0.48263,1.28952 -0.35251,0.48234 -0.79092,1.17464 -0.97424,1.53844 -0.18332,0.3638 -0.48427,0.81953 -0.66877,1.01272 -0.1845,0.1932 -0.6181,0.96711 -0.96356,1.7198 -0.34547,0.75268 -0.88051,1.59533 -1.18899,1.87255 -0.55396,0.49782 -0.56087,0.49696 -0.56087,-0.0697 z m 1.32292,-1.62491 c 0,-0.14553 -0.0525,-0.26459 -0.11668,-0.26459 -0.0642,0 -0.19026,0.11906 -0.2802,0.26459 -0.0899,0.14552 -0.0374,0.26458 0.11668,0.26458 0.15411,0 0.2802,-0.11906 0.2802,-0.26458 z m -42.68413,-0.72329 c -0.19349,-0.31954 0.32527,-3.20091 0.76792,-4.26532 0.48805,-1.17358 1.72825,-3.06471 2.73997,-4.17804 0.34424,-0.37882 0.40952,-0.37524 0.71244,0.039 0.28502,0.38979 0.22035,0.55124 -0.44512,1.11119 -0.42822,0.36033 -0.77859,0.77413 -0.77859,0.91956 0,0.14542 -0.35718,1.03612 -0.79375,1.97931 -0.43656,0.9432 -0.79375,1.88519 -0.79375,2.09332 0,0.20813 -0.20836,0.38024 -0.46302,0.38246 -0.34196,0.003 -0.37387,0.0606 -0.12203,0.22039 0.25008,0.15867 0.27206,0.3976 0.0825,0.89629 -0.28192,0.7415 -0.71246,1.12231 -0.90653,0.80182 z m 15.0599,-0.0304 c -0.0851,-0.13764 -0.0804,-0.62159 0.0104,-1.07543 0.13235,-0.66178 0.2369,-0.76552 0.52798,-0.52394 0.19963,0.16567 0.36296,0.51019 0.36296,0.7656 0,0.56321 -0.67984,1.19211 -0.90131,0.83377 z M 98.50939,173.839 c -0.0724,-0.0724 0.0299,-0.87609 0.22737,-1.78594 0.19748,-0.90984 0.4106,-2.09287 0.4736,-2.62896 0.063,-0.53609 0.3158,-1.42906 0.56176,-1.98438 0.24596,-0.55532 0.4595,-1.12873 0.47452,-1.27425 0.0423,-0.40973 2.5894,-5.42353 2.83118,-5.57295 0.11794,-0.0729 0.14737,-0.30732 0.0654,-0.52094 -0.082,-0.21362 -0.009,-0.3884 0.16168,-0.3884 0.19031,0 0.24563,-0.20506 0.14276,-0.52917 -0.0924,-0.29104 -0.0652,-0.52916 0.0604,-0.52916 0.1256,0 0.231,-0.44981 0.23421,-0.99956 0.007,-1.26461 0.60478,-2.63593 1.21816,-2.79634 0.49077,-0.12833 0.63783,0.32977 0.24604,0.76642 -0.12405,0.13824 -0.42587,1.26338 -0.67073,2.50031 -0.24485,1.23693 -0.67052,2.72521 -0.94592,3.30729 -0.2754,0.58208 -0.73724,1.60081 -1.02632,2.26383 -0.28907,0.66302 -0.71442,1.36221 -0.94521,1.55375 -0.23079,0.19154 -0.41962,0.56215 -0.41962,0.82358 0,0.26143 -0.16829,0.8124 -0.37396,1.22438 -0.54831,1.09827 -1.21354,3.58158 -1.21354,4.53016 0,1.28226 -0.65219,2.48997 -1.10182,2.04033 z m 33.03372,-0.0392 c -0.53919,-0.53918 0.3986,-2.7966 1.22857,-2.95738 0.60333,-0.11687 0.58117,0.89192 -0.0453,2.05995 -0.5023,0.93659 -0.86733,1.21343 -1.18332,0.89743 z m -76.09643,-1.04179 c 0.0127,-0.30823 0.0754,-0.37092 0.15985,-0.15986 0.0764,0.191 0.067,0.4192 -0.0209,0.50712 -0.0879,0.0879 -0.15045,-0.0684 -0.13896,-0.34726 z m 16.11869,-0.24254 c 0,-0.3638 0.11906,-0.66146 0.26459,-0.66146 0.14552,0 0.26458,0.29766 0.26458,0.66146 0,0.3638 -0.11906,0.66146 -0.26458,0.66146 -0.14553,0 -0.26459,-0.29766 -0.26459,-0.66146 z m 42.56323,0.30639 c 0.16207,-0.19529 0.23319,-0.41657 0.15804,-0.49172 -0.13158,-0.13158 0.24464,-1.10992 1.40756,-3.66031 0.30089,-0.65989 0.62913,-1.52673 0.72942,-1.92631 0.13149,-0.52389 0.3066,-0.68707 0.62788,-0.5851 0.355,0.11267 0.44616,-0.0336 0.44858,-0.71952 0.003,-0.89796 0.10193,-1.11983 1.80397,-4.05269 0.57184,-0.98536 1.30926,-2.45626 1.6387,-3.26866 0.32944,-0.81239 0.7843,-1.51558 1.0108,-1.56263 0.2265,-0.047 0.41182,-0.31494 0.41182,-0.59531 0,-0.28037 0.13197,-0.50976 0.29327,-0.50976 0.35883,0 0.13435,0.99406 -0.57719,2.55599 -0.2804,0.61553 -0.50983,1.34304 -0.50983,1.6167 0,0.27366 -0.29765,0.7772 -0.66145,1.11897 -0.36381,0.34178 -0.66146,0.83028 -0.66146,1.08556 0,0.25528 -0.14883,0.62469 -0.33073,0.82091 -0.62609,0.67538 -1.40168,1.93361 -2.16826,3.51749 -0.42258,0.87313 -0.93255,1.78254 -1.13326,2.02091 -0.20071,0.23838 -0.37208,0.71463 -0.38081,1.05834 -0.0172,0.6786 -1.24621,3.41434 -1.67548,3.72972 -0.4468,0.32826 -0.74356,0.22334 -0.43157,-0.15258 z m -58.04135,-0.43868 c -0.0899,-0.14552 -0.0374,-0.26458 0.11667,-0.26458 0.15411,0 0.2802,0.11906 0.2802,0.26458 0,0.14552 -0.0525,0.26458 -0.11668,0.26458 -0.0642,0 -0.19026,-0.11906 -0.28019,-0.26458 z m 16.05962,-0.86302 c -0.34802,-0.41935 0.0517,-2.04744 0.50272,-2.04744 0.13128,0 0.2387,-0.2311 0.2387,-0.51355 0,-0.28245 0.11906,-0.58714 0.26458,-0.67707 0.14552,-0.0899 0.26459,-0.57322 0.26459,-1.07395 0,-0.50074 0.12497,-0.91043 0.27773,-0.91043 0.17458,0 0.19147,-0.15412 0.0455,-0.41497 -0.45043,-0.80488 1.01845,-4.62422 1.91,-4.96634 0.23348,-0.0896 0.33752,-0.32733 0.24677,-0.56384 -0.0863,-0.22491 0.0229,-0.68331 0.24258,-1.01866 0.21973,-0.33535 0.39951,-1.03482 0.39951,-1.55439 0,-1.17185 0.98961,-2.83948 1.69411,-2.85483 0.31387,-0.007 0.062,2.47092 -0.26215,2.57898 -0.16718,0.0557 -0.38076,0.51068 -0.47462,1.01102 -0.0939,0.50034 -0.27623,0.97495 -0.40525,1.05469 -0.12903,0.0797 -0.23714,0.40585 -0.24025,0.72469 -0.003,0.31883 -0.5389,1.40286 -1.19063,2.40894 -0.93516,1.44363 -1.19157,2.08507 -1.21629,3.04271 -0.0172,0.6674 -0.0115,1.31986 0.0127,1.44991 0.0609,0.32712 -0.83533,3.1431 -1.10363,3.46772 -0.12027,0.14552 -0.36971,0.48369 -0.5543,0.75149 -0.28861,0.4187 -0.38,0.43346 -0.65233,0.10532 z M 56.0445,170.91195 c -0.10478,-0.27307 -0.009,-0.53714 0.24627,-0.68008 0.29401,-0.16454 0.38424,-0.50244 0.30492,-1.14193 -0.062,-0.49953 0.007,-0.98197 0.15248,-1.07209 0.14581,-0.0901 0.26512,-0.37331 0.26512,-0.62931 0,-0.50037 1.55887,-2.67832 1.91701,-2.67832 0.63452,0 0.3745,1.06552 -0.8722,3.57418 -0.76348,1.53629 -1.49032,2.85641 -1.61522,2.9336 -0.12489,0.0772 -0.30416,-0.0605 -0.39838,-0.30605 z m 75.48793,-3.62729 c -0.32305,-1.28712 1.46126,-4.80093 2.80238,-5.51867 0.68587,-0.36707 0.60071,0.2906 -0.18815,1.45306 -0.35977,0.53015 -0.90715,1.79692 -1.2164,2.81504 -0.56972,1.87571 -1.11786,2.36609 -1.39783,1.25057 z m -84.83789,-1.62025 c 0,-0.32991 0.51684,-0.95419 0.78997,-0.95419 0.38933,0 0.10214,1.04009 -0.3175,1.14982 -0.26076,0.0682 -0.47247,-0.0195 -0.47247,-0.19563 z m 0.27396,-1.5495 c 0.005,-0.1819 0.17089,-0.62239 0.3683,-0.97886 0.19741,-0.35647 0.29952,-0.80295 0.2269,-0.99218 -0.0726,-0.18924 0.0387,-0.34406 0.24736,-0.34406 0.28614,0 0.36196,-0.30872 0.30848,-1.25606 -0.0591,-1.04621 0.13036,-1.65401 1.13377,-3.63802 1.29433,-2.55923 1.87586,-3.37835 2.23909,-3.15386 0.12607,0.0779 0.22922,-0.0217 0.22922,-0.22132 0,-0.39199 1.33715,-1.78491 1.71344,-1.78491 0.1261,0 0.45412,-0.20349 0.72894,-0.4522 0.37412,-0.33857 0.99374,-0.45492 2.46591,-0.46302 2.18175,-0.012 2.56696,0.323 0.92788,0.80696 -0.59052,0.17436 -1.07367,0.25547 -1.07367,0.18024 0,-0.0752 -0.1635,-0.001 -0.36334,0.16477 -0.19984,0.16585 -0.53015,0.23753 -0.73403,0.1593 -0.59272,-0.22745 -3.51836,2.27721 -3.61416,3.09411 -0.0536,0.45722 -0.28116,0.74358 -0.66799,0.84067 -0.40326,0.10121 -0.82567,0.66733 -1.35113,1.81081 -0.42045,0.91496 -0.76116,1.84216 -0.75713,2.06044 0.004,0.21828 -0.12349,0.56184 -0.28336,0.76347 -0.15987,0.20162 -0.2962,0.49928 -0.30296,0.66145 -0.007,0.16218 -0.10969,0.80908 -0.22875,1.43756 -0.16566,0.87442 -0.31226,1.10593 -0.62445,0.98613 -0.33844,-0.12988 -0.35098,-0.0879 -0.0736,0.24638 0.27611,0.33269 0.25958,0.40293 -0.0949,0.40293 -0.2361,0 -0.42505,-0.14883 -0.41989,-0.33073 z m 16.82041,-5.97276 c -0.2379,-0.38494 0.93972,-3.4546 1.59765,-4.16452 0.34241,-0.36947 0.62256,-0.74084 0.62256,-0.82529 0,-0.0844 1.26749,-1.65588 2.81665,-3.49209 2.48659,-2.94736 2.91247,-3.33857 3.6344,-3.33857 1.15001,0 1.23371,0.73406 0.12171,1.0674 -0.5732,0.17182 -1.15264,0.68883 -1.76902,1.57843 -0.50414,0.72761 -1.07685,1.41813 -1.27268,1.53451 -0.19584,0.11637 -0.52715,0.54241 -0.73624,0.94675 -0.20909,0.40434 -0.93865,1.32116 -1.62124,2.03737 -0.68259,0.71621 -1.57182,2.03237 -1.97607,2.92478 -0.74113,1.63612 -1.16022,2.14788 -1.41772,1.73123 z m 59.24174,-3.21533 c -0.25105,-0.4062 0.34024,-1.32008 2.02571,-3.13092 0.85467,-0.91824 1.48156,-1.78665 1.39308,-1.92982 -0.0885,-0.14316 -0.017,-0.43367 0.15889,-0.64557 0.17586,-0.21191 0.22719,-0.38529 0.11406,-0.38529 -0.11313,0 -0.003,-0.22404 0.24487,-0.49787 0.24782,-0.27383 0.57559,-0.95064 0.72838,-1.50402 0.1528,-0.55339 0.56381,-1.6314 0.91336,-2.39559 0.34955,-0.7642 0.63554,-1.46924 0.63554,-1.56676 0,-0.39046 1.6565,-2.23784 2.00661,-2.23784 0.20605,0 0.37464,-0.10583 0.37464,-0.23519 0,-0.12935 0.19587,-0.21865 0.43526,-0.19843 0.26948,0.0228 0.45366,-0.1829 0.48358,-0.53997 0.0266,-0.3172 0.36649,-0.99386 0.75537,-1.5037 0.38887,-0.50984 0.70704,-1.04724 0.70704,-1.19422 0,-0.14698 0.21025,-0.42281 0.46722,-0.61297 0.25697,-0.19015 1.05959,-1.0601 1.7836,-1.93323 0.72402,-0.87312 1.58533,-1.84971 1.91404,-2.17018 0.3287,-0.32047 0.59764,-0.76696 0.59764,-0.99219 0,-0.22523 0.0893,-0.41026 0.19844,-0.41118 0.21795,-0.002 0.79844,-0.94686 1.94926,-3.17332 0.74354,-1.4385 1.88173,-2.91042 2.25055,-2.91042 0.10466,0 0.41027,-0.19907 0.67912,-0.44239 0.26886,-0.24331 1.09804,-0.74932 1.84264,-1.12447 0.7446,-0.37516 1.36744,-0.78981 1.38409,-0.92146 0.045,-0.35581 -0.8888,-0.42614 -2.08639,-0.15715 -1.14029,0.25613 -1.56558,0.0659 -1.31468,-0.58789 0.17095,-0.44547 1.4815,-0.85953 2.43916,-0.77063 0.32742,0.0304 0.59531,-0.006 0.59531,-0.0802 0,-0.30136 -1.66353,-0.9703 -2.047,-0.82314 -0.22645,0.0869 -1.18648,0.26771 -2.13339,0.40181 -1.36388,0.19315 -1.87816,0.16288 -2.4748,-0.14565 -0.41423,-0.2142 -0.75314,-0.50547 -0.75314,-0.64725 0,-0.24673 0.91634,-0.38862 1.93567,-0.29974 0.74326,0.0648 1.50391,-0.45089 1.50391,-1.01959 0,-0.28257 0.28098,-0.69787 0.6244,-0.92288 0.42802,-0.28045 0.60165,-0.61643 0.55205,-1.06825 -0.0602,-0.54815 0.12025,-0.74686 1.07171,-1.1803 0.95267,-0.43399 1.11891,-0.6174 0.99367,-1.09631 -0.12712,-0.4861 -0.0621,-0.55203 0.42029,-0.42589 1.442,0.37709 0.51298,-1.07064 -1.27054,-1.97993 -0.5124,-0.26123 -1.31916,-0.44887 -1.79281,-0.41697 -0.92308,0.0622 -1.56474,-0.35104 -1.27447,-0.82071 0.0978,-0.1582 0.40886,-0.28764 0.69132,-0.28764 0.54109,0 0.63295,-0.20402 0.31106,-0.69088 -0.17597,-0.26615 -2.25394,-0.7238 -3.2371,-0.71294 -0.92645,0.0102 -2.34934,0.90918 -2.89027,1.82598 -0.57055,0.96701 -0.57518,0.9689 -1.15639,0.4728 -1.04036,-0.888 -1.69828,-1.13107 -2.79081,-1.03107 -1.28567,0.11769 -2.88668,0.83438 -3.18857,1.42737 -0.26816,0.52671 -0.35362,2.55976 -0.14777,3.51528 0.16261,0.75483 0.84567,1.18786 1.24454,0.78899 0.24846,-0.24846 1.25636,-0.104 1.25636,0.18008 0,0.0867 -0.32742,0.42189 -0.72761,0.74487 -0.71786,0.57938 -0.72052,0.59268 -0.19843,0.99372 0.29104,0.22356 0.6837,0.41026 0.87258,0.41489 0.43935,0.0108 1.45955,1.14542 2.34459,2.6076 0.56914,0.9403 0.79888,1.11727 1.29033,0.99392 0.32885,-0.0825 1.23513,-0.0188 2.01395,0.14164 0.77883,0.16043 1.64265,0.28474 1.9196,0.27624 0.73844,-0.0227 1.48763,0.57697 1.23387,0.98757 -0.17063,0.27608 -0.37075,0.26092 -1.0256,-0.0777 -0.62406,-0.32271 -1.23325,-0.38188 -2.6148,-0.25395 -0.99066,0.0917 -2.16952,0.18054 -2.61971,0.19735 -0.45018,0.0168 -1.00434,0.18451 -1.23146,0.37268 -0.25197,0.20875 -0.68586,0.27362 -1.11304,0.16641 -0.80656,-0.20244 -3.58386,0.58224 -3.58386,1.01255 0,0.38361 -2.71641,2.8612 -3.02617,2.76012 -0.56148,-0.18323 -0.41074,-0.76411 0.3932,-1.51509 0.46943,-0.43852 0.80741,-0.8328 0.75106,-0.87617 -0.0564,-0.0434 -0.78707,-0.23748 -1.62382,-0.43135 -0.83674,-0.19387 -1.52135,-0.45253 -1.52135,-0.57481 0,-0.12228 -0.40214,-0.22233 -0.89364,-0.22233 -0.49151,0 -1.04187,-0.17859 -1.22303,-0.39687 -0.18115,-0.21828 -0.49051,-0.39688 -0.68746,-0.39688 -0.19694,0 -0.74791,-0.23768 -1.22437,-0.52818 -0.47646,-0.29049 -1.24622,-0.52862 -1.71057,-0.52916 -0.46436,-5.5e-4 -0.91729,-0.11912 -1.00652,-0.2635 -0.0953,-0.15411 -1.22157,-0.22799 -2.7276,-0.17891 -1.41094,0.046 -2.821,-0.007 -3.13346,-0.11748 -0.31246,-0.11059 -0.63852,-0.13066 -0.72457,-0.0446 -0.0861,0.0861 -1.19963,0.19547 -2.4746,0.24315 -2.88856,0.10803 -4.65824,0.25583 -6.02231,0.50298 -0.58208,0.10546 -1.2828,0.23184 -1.55715,0.28085 -0.797,0.14235 -0.86781,0.39873 -0.22878,0.82834 1.05019,0.70603 0.65579,0.87258 -1.64717,0.69556 -1.95073,-0.14994 -2.26454,-0.11484 -2.41214,0.2698 -0.13168,0.34314 -0.25164,0.37414 -0.53565,0.13842 -0.27575,-0.22884 -0.36598,-0.22819 -0.36598,0.003 0,0.24331 -2.07714,1.34592 -2.53548,1.34592 -0.30451,0 -0.0448,-0.69712 0.45979,-1.23425 0.53489,-0.56936 0.59337,-0.5786 0.94568,-0.14934 0.34855,0.42467 0.36718,0.41774 0.2592,-0.0964 -0.13445,-0.64018 0.34378,-1.01033 1.67324,-1.29509 0.50455,-0.10807 1.07526,-0.32391 1.26826,-0.47965 0.25282,-0.20402 0.40685,-0.19262 0.55111,0.0408 0.1516,0.24528 0.3855,0.25353 0.96306,0.0339 0.60836,-0.2313 0.68428,-0.33971 0.37492,-0.53537 -0.29766,-0.18827 -0.23094,-0.24628 0.28678,-0.24939 0.37108,-0.002 0.7878,-0.11008 0.92604,-0.23967 0.23132,-0.21683 1.64298,-0.39045 6.20448,-0.76308 2.36913,-0.19354 8.95407,-0.14602 9.92188,0.0716 2.27555,0.51167 3.62203,0.6543 4.04415,0.42838 0.25079,-0.13421 1.98343,-0.21209 3.85031,-0.17306 3.28687,0.0687 3.40283,0.0523 3.66304,-0.51881 0.24626,-0.54047 0.43332,-0.58555 2.23753,-0.53924 1.64855,0.0423 1.95602,-0.0158 1.89022,-0.35749 -0.16254,-0.84402 -3.91951,-2.2457 -4.31295,-1.60911 -0.08,0.12943 0.004,0.47532 0.18763,0.76865 0.26888,0.43054 0.26698,0.59834 -0.01,0.87066 -0.27858,0.27408 -0.43414,0.2257 -0.82953,-0.25798 -0.26766,-0.32742 -0.67593,-0.59531 -0.90726,-0.59531 -0.23134,0 -0.42061,-0.18052 -0.42061,-0.40116 0,-0.22063 -0.44649,-0.59227 -0.99219,-0.82585 -1.57791,-0.67541 -1.74837,-0.77695 -1.85838,-1.107 -0.16167,-0.485 1.29248,-0.37649 2.47014,0.18434 0.78216,0.37248 1.41609,0.46367 2.54301,0.36579 1.55363,-0.13494 1.69762,-0.34838 0.91405,-1.35497 -0.3947,-0.50704 -0.38058,-2.68489 0.0225,-3.47573 0.18544,-0.36381 0.33789,-0.81029 0.33879,-0.99219 9e-4,-0.1819 0.18022,-0.33073 0.39851,-0.33073 0.21828,0 0.39773,-0.14883 0.39879,-0.33073 0.004,-0.69888 4.23075,-1.63541 4.61017,-1.0215 0.08,0.1294 0.43235,0.30729 0.78306,0.39531 0.47821,0.12003 0.84894,-0.0373 1.48264,-0.6293 0.46475,-0.43414 1.45689,-0.97105 2.20476,-1.19315 1.29637,-0.38498 1.39414,-0.37838 2.0974,0.14156 0.4057,0.29995 0.83969,0.4823 0.96442,0.40521 0.38925,-0.24057 1.7666,0.60263 3.11479,1.90684 0.71171,0.68849 1.61373,1.39628 2.00449,1.57286 0.39076,0.17658 0.98232,0.74066 1.31456,1.2535 0.33225,0.51284 0.68814,0.93391 0.79088,0.93571 0.10273,0.002 0.80055,0.36516 1.5507,0.80746 1.28637,0.75847 1.38355,0.77732 1.70956,0.33148 0.43552,-0.59562 0.0465,-1.13567 -0.818,-1.13567 -0.3374,0 -0.69026,-0.12428 -0.78414,-0.27617 -0.30235,-0.48922 0.43067,-1.03572 2.06015,-1.53595 l 1.59053,-0.48826 -1.01128,-0.16411 c -0.58536,-0.095 -1.15619,-0.0438 -1.35536,0.12146 -0.18925,0.15706 -0.51053,0.2217 -0.71396,0.14363 -0.20343,-0.0781 -0.60603,0.0235 -0.89466,0.22565 -0.5514,0.38621 -0.85888,0.2719 -0.85888,-0.3193 0,-0.19403 0.1786,-0.35278 0.39688,-0.35278 0.21828,0 0.39687,-0.12428 0.39687,-0.27618 0,-0.1519 0.14883,-0.25686 0.33073,-0.23324 0.64721,0.0841 1.02131,-0.0232 0.87981,-0.25212 -0.18832,-0.3047 1.19313,-0.57516 1.94009,-0.37983 0.35332,0.0924 0.52866,0.29541 0.44452,0.51468 -0.0764,0.19916 -0.0236,0.36211 0.11732,0.36211 0.14096,0 0.25628,-0.12273 0.25628,-0.27272 0,-0.14999 0.65716,0.14767 1.46035,0.66146 0.80319,0.51379 1.52551,0.93417 1.60516,0.93417 0.41412,0 3.11068,2.62396 3.3988,3.30729 0.18407,0.43657 0.67908,1.20224 1.10002,1.70151 0.72256,0.85702 1.41872,2.38606 1.42752,3.13544 0.007,0.60633 -0.79919,0.67029 -1.39854,0.11093 -0.60664,-0.56616 -2.03706,-1.05624 -2.03706,-0.69791 0,0.11345 0.16451,0.39425 0.36558,0.62399 0.51863,0.59258 0.79442,1.60834 0.43669,1.60834 -0.16044,0 -0.55542,-0.16769 -0.87772,-0.37265 -0.512,-0.32559 -3.01604,-0.96087 -4.15788,-1.05487 -0.85629,-0.0705 -1.2795,-0.5434 -1.13901,-1.27278 0.18758,-0.97384 1.12187,-1.52073 2.7165,-1.59012 0.73311,-0.0319 1.33293,-0.12885 1.33293,-0.21546 0,-0.20885 -2.54641,-1.31496 -3.02722,-1.31496 -0.20698,0 -0.63067,0.35719 -0.94153,0.79375 -0.66662,0.93618 -0.93663,0.98638 -1.33197,0.24767 -0.2177,-0.40677 -0.21045,-0.64464 0.0284,-0.93243 0.3924,-0.47281 0.20788,-0.70874 -0.37835,-0.48378 -0.30864,0.11843 -0.43474,0.49208 -0.43474,1.28813 0,1.11332 -0.42132,1.76754 -1.32292,2.05422 -0.28585,0.0909 -0.16651,0.26749 0.42665,0.6313 0.67042,0.4112 0.78454,0.61046 0.61385,1.07188 -0.28249,0.76364 -0.74392,1.01217 -0.93838,0.50541 -0.0873,-0.22751 -0.43946,-0.41365 -0.78257,-0.41365 -0.35306,0 -0.74678,-0.22969 -0.90705,-0.52916 -0.26876,-0.50219 -1.5875,-0.77452 -1.5875,-0.32783 0,0.18648 0.81865,0.9203 1.91329,1.71504 0.30058,0.21822 0.37994,0.4564 0.23081,0.6927 -0.19077,0.30226 -0.44501,0.29629 -1.58256,-0.0372 l -1.35529,-0.39729 v 0.73372 c 0,0.63133 -0.21231,0.83666 -1.52135,1.47128 -0.83675,0.40566 -1.58089,0.80933 -1.65365,0.89706 -0.0728,0.0877 -0.45971,0.36785 -0.85989,0.62251 -0.40019,0.25465 -0.72761,0.57796 -0.72761,0.71847 0,0.1405 -0.17957,0.46518 -0.39904,0.7215 -0.21947,0.25633 -0.41115,0.58511 -0.42596,0.73063 -0.0148,0.14552 -0.25195,0.58062 -0.527,0.96689 -0.27504,0.38626 -0.50008,0.82815 -0.50008,0.98196 0,0.15381 -0.47625,0.75117 -1.05834,1.32747 -0.58208,0.57629 -1.05833,1.12788 -1.05833,1.22573 0,0.0979 -0.53578,0.88244 -1.19062,1.7435 -0.65485,0.86106 -1.19063,1.68625 -1.19063,1.83375 0,0.14749 -0.29765,0.38134 -0.66146,0.51966 -0.3638,0.13832 -0.66173,0.40326 -0.66208,0.58876 -8.4e-4,0.45996 -1.39318,2.05707 -1.79331,2.05707 -0.1775,0 -0.32273,0.18654 -0.32273,0.41453 0,0.48395 -1.19995,2.15661 -2.02996,2.82965 -0.57274,0.46442 -2.20338,3.52047 -2.20338,4.12946 0,0.1762 -0.22159,0.7621 -0.49244,1.30201 -0.27084,0.5399 -0.43689,1.13834 -0.36899,1.32985 0.0693,0.19551 -0.12085,0.4121 -0.43361,0.49388 -0.64944,0.16983 -0.65683,0.19593 -0.24321,0.85824 0.2749,0.44018 0.10256,0.72069 -1.38906,2.26107 -1.88115,1.94263 -2.50998,2.39826 -2.75741,1.99791 z m 4.09722,-31.88343 c 0,-0.21551 -0.26789,-0.45355 -0.59531,-0.52898 -3.33457,-0.7682 -4.05591,-0.8838 -4.2574,-0.6823 -0.316,0.31599 0.97119,1.12124 2.16351,1.35345 1.72456,0.33588 2.6892,0.28488 2.6892,-0.14217 z m 2.61641,-0.83425 c -0.16816,-0.20262 -0.43869,-0.34185 -0.60118,-0.3094 -0.16249,0.0324 -0.56579,-0.0905 -0.89621,-0.27333 -0.98793,-0.54648 -1.23733,-0.0439 -0.29772,0.5999 0.96222,0.65933 2.34557,0.6461 1.79511,-0.0172 z m -7.77578,-0.626 c 0.0899,-0.14552 0.0374,-0.26458 -0.11668,-0.26458 -0.15411,0 -0.2802,0.11906 -0.2802,0.26458 0,0.14552 0.0525,0.26458 0.11668,0.26458 0.0642,0 0.19026,-0.11906 0.2802,-0.26458 z m 10.45104,-0.26458 c 0,-0.14553 -0.21431,-0.26459 -0.47625,-0.26459 -0.26194,0 -0.61912,-0.14287 -0.79375,-0.3175 -0.19546,-0.19546 -0.3175,-0.211 -0.3175,-0.0404 0,0.15239 0.26789,0.40627 0.59531,0.56418 0.7689,0.37082 0.99219,0.38395 0.99219,0.0583 z m 26.9875,-1.81641 c 0,-0.26954 -1.39311,-0.47895 -2.3151,-0.34801 -1.12525,0.15982 -0.59377,0.49532 0.85989,0.54282 0.80037,0.0262 1.45521,-0.0615 1.45521,-0.19481 z m -12.63403,-1.21999 c -0.12671,-0.66284 -0.59513,-0.94791 -0.59513,-0.36218 0,0.1733 -0.22908,0.0983 -0.52917,-0.1733 -0.29104,-0.26339 -0.52917,-0.35526 -0.52917,-0.20416 0,0.15111 -0.2501,0.34014 -0.55579,0.42008 -0.74806,0.19562 -0.38478,0.70911 0.50526,0.71417 0.39159,0.002 0.8849,0.11344 1.09623,0.24713 0.54816,0.34677 0.75498,0.12839 0.60777,-0.64174 z m 4.03507,0.39056 c 0.0899,-0.14552 0.0199,-0.26458 -0.15557,-0.26458 -0.1755,0 -0.82764,-0.41672 -1.44921,-0.92604 -0.62156,-0.50933 -1.26051,-0.92604 -1.4199,-0.92604 -0.15938,0 -0.52993,-0.14883 -0.82344,-0.33073 -0.43985,-0.2726 -0.57802,-0.26098 -0.78611,0.0661 -0.18306,0.28778 -0.25357,0.30167 -0.25651,0.0505 -0.002,-0.19049 -0.12505,-0.27156 -0.27295,-0.18015 -0.41037,0.25362 -0.036,0.65806 0.61525,0.66467 0.31883,0.003 0.87735,0.23872 1.24115,0.52329 0.3638,0.28457 0.84005,0.52269 1.05834,0.52916 0.21828,0.006 0.69453,0.2446 1.05833,0.52917 0.75544,0.59091 0.96074,0.63653 1.19062,0.26458 z m 0.66146,-1.83845 c 0,-0.37172 -1.20179,-1.60113 -1.56516,-1.60113 -0.17262,0 0.004,0.41672 0.39248,0.92604 0.68852,0.9027 1.17268,1.18142 1.17268,0.67509 z m 3.83646,-1.67426 c 0.50261,-0.12354 0.50092,-0.13161 -0.0337,-0.16076 -0.3096,-0.0169 -0.72632,0.17766 -0.92604,0.43233 -0.31581,0.40269 -0.31142,0.42364 0.0337,0.16076 0.21828,-0.16624 0.635,-0.36079 0.92604,-0.43233 z m -8.20208,-0.72062 c -0.0899,-0.14552 -0.27556,-0.26458 -0.41249,-0.26458 -0.13694,0 -0.24897,0.11906 -0.24897,0.26458 0,0.14552 0.18562,0.26458 0.41249,0.26458 0.22687,0 0.3389,-0.11906 0.24897,-0.26458 z m 9.39271,-0.65215 c 0,-0.0676 -0.2679,-0.2528 -0.59532,-0.41147 -0.57166,-0.27703 -0.57491,-0.27215 -0.0817,0.12298 0.53982,0.43249 0.67704,0.49095 0.67704,0.28849 z m -51.85834,40.10646 c 0,-0.56119 1.50306,-2.14806 2.0346,-2.14806 0.19066,0 0.34665,-0.0908 0.34665,-0.20169 0,-0.11093 0.78003,-0.79554 1.73339,-1.52135 2.99997,-2.28394 3.30355,-2.55563 3.68948,-3.30193 0.34383,-0.66491 1.4563,-1.28427 1.4563,-0.81079 0,0.11006 -0.35719,0.6932 -0.79375,1.29585 -0.43657,0.60266 -0.79375,1.19469 -0.79375,1.31562 0,0.24639 -2.03506,1.63679 -2.39569,1.63679 -0.12734,0 -0.3566,0.23369 -0.50946,0.51931 -0.16337,0.30526 -0.43985,0.45718 -0.67076,0.36857 -0.24576,-0.0943 -0.39284,0.007 -0.39284,0.2694 0,0.23107 -0.26789,0.48968 -0.59532,0.57469 -0.32742,0.085 -0.99617,0.68258 -1.48611,1.32795 -0.93433,1.23076 -1.62274,1.51738 -1.62274,0.67564 z m 32.91789,-0.33276 c -0.19321,-0.31263 0.38875,-1.55072 0.7289,-1.55072 0.12093,0 0.21988,-0.16014 0.21988,-0.35587 0,-0.19572 0.23812,-0.57136 0.52916,-0.83475 0.29105,-0.26339 0.52917,-0.64322 0.52917,-0.84407 0,-0.32266 0.53382,-1.30135 1.12707,-2.06635 0.11285,-0.14552 0.56506,-0.77617 1.0049,-1.40145 0.78803,-1.12026 1.44067,-1.59639 1.75599,-1.28108 0.0885,0.0885 -0.15485,0.47679 -0.54085,0.86279 -0.386,0.386 -0.8396,1.16171 -1.00801,1.7238 -0.16841,0.56209 -0.40641,1.03686 -0.5289,1.05505 -0.12248,0.0182 -0.33184,0.048 -0.46523,0.0661 -0.41288,0.0563 -0.66022,0.42995 -0.28461,0.42995 0.23317,0 0.15758,0.20993 -0.22049,0.61236 -0.31641,0.3368 -0.57529,0.77205 -0.57529,0.96722 0,0.19516 -0.29765,0.74509 -0.66145,1.22206 -0.36381,0.47697 -0.66146,0.98149 -0.66146,1.12115 0,0.37837 -0.75032,0.59486 -0.94878,0.27376 z m -58.31754,-0.56683 c 1.9e-4,-0.17734 0.71457,-1.48434 1.5875,-2.90445 0.87293,-1.42012 1.58715,-2.70004 1.58715,-2.84428 0,-0.14423 0.11906,-0.26224 0.26458,-0.26224 0.14552,0 0.26459,-0.23974 0.26459,-0.53276 0,-0.29301 0.11126,-0.7395 0.24725,-0.99219 0.13599,-0.25268 0.40318,-0.84638 0.59375,-1.31932 0.19058,-0.47294 0.4365,-0.8599 0.5465,-0.8599 0.11,0 0.2,-0.13083 0.2,-0.29074 0,-0.70232 0.88627,-2.09051 1.33466,-2.09051 0.29094,0 0.51398,-0.22676 0.56516,-0.57459 0.0465,-0.31602 0.21871,-0.61871 0.38268,-0.67264 0.53316,-0.17535 0.61074,0.66846 0.1192,1.29649 -0.26353,0.33671 -0.80071,1.20751 -1.19374,1.93512 -0.39302,0.7276 -0.94282,1.7109 -1.22176,2.1851 -0.27895,0.4742 -0.53052,0.95045 -0.55905,1.05833 -0.13797,0.52168 -1.90309,4.18144 -2.07256,4.29719 -0.10653,0.0728 -0.28354,0.41987 -0.39335,0.77134 -0.34478,1.10349 -2.25346,2.62875 -2.25256,1.80005 z m -20.11343,-2.84484 c -0.25012,-0.46735 -0.0994,-0.72809 1.14688,-1.98438 0.78916,-0.79548 1.61438,-1.44633 1.83383,-1.44633 0.21945,0 0.80049,-0.16507 1.2912,-0.36682 0.57948,-0.23825 1.10087,-0.2876 1.48752,-0.14082 0.87687,0.33289 0.72542,0.72383 -0.35923,0.92731 -0.525,0.0985 -1.5668,0.50484 -2.31511,0.903 -1.11531,0.59343 -1.40473,0.89715 -1.60565,1.685 -0.27884,1.09334 -1.00897,1.30212 -1.47944,0.42304 z m 35.61068,-2.60545 c -0.16813,-0.27205 1.27594,-2.16824 1.92105,-2.52249 0.2424,-0.13312 0.69754,-0.51425 1.01143,-0.84698 0.31388,-0.33272 1.11272,-0.85973 1.77519,-1.17113 1.12632,-0.52943 3.07806,-2.39954 3.07806,-2.94932 0,-0.13516 0.13182,-0.16427 0.29293,-0.0647 0.19712,0.12183 0.23456,-0.003 0.11446,-0.38126 -0.10588,-0.33361 -0.0636,-0.5623 0.10395,-0.5623 0.15533,0 0.28241,-0.16254 0.28241,-0.36119 0,-0.19866 0.22103,-0.64515 0.49117,-0.99219 0.27014,-0.34705 0.6369,-1.28584 0.81502,-2.0862 0.49422,-2.22075 1.54016,-4.12406 3.13673,-5.70794 0.79603,-0.7897 1.55043,-1.43581 1.67644,-1.43581 0.12602,0 0.67595,-0.4005 1.22207,-0.88999 0.88387,-0.79222 2.43805,-1.75585 2.83189,-1.75585 0.08,0 0.14147,0.20836 0.13663,0.46302 -0.0117,0.61382 -0.80668,1.54091 -1.51385,1.76536 -0.31189,0.099 -0.92614,0.5154 -1.36501,0.92536 -0.43886,0.40997 -0.84483,0.69849 -0.90215,0.64117 -0.0897,-0.0897 -1.38074,1.17907 -2.86065,2.81108 -0.42795,0.47193 -1.8162,3.68511 -1.8162,4.20368 0,0.14761 -0.1259,0.59952 -0.27978,1.00425 -0.22821,0.60025 -0.32893,0.66437 -0.5465,0.34795 -0.2058,-0.29931 -0.23101,-0.25993 -0.11036,0.17246 0.34676,1.2427 -1.49779,3.94585 -3.33054,4.88085 -0.57555,0.29363 -1.28397,0.77139 -1.57429,1.0617 -0.29031,0.29031 -0.62985,0.46479 -0.75454,0.38773 -0.12469,-0.0771 -0.2991,0.12695 -0.38758,0.45337 -0.19869,0.73306 -1.53344,1.76533 -1.68699,1.30468 -0.20152,-0.60458 -0.58984,-0.30759 -0.58984,0.45112 0,0.45391 -0.17034,0.8308 -0.41852,0.92604 -0.54225,0.20808 -0.58158,0.20429 -0.75263,-0.0725 z m -28.63547,-0.4398 c -0.0862,-0.22456 -0.0876,-0.47739 -0.003,-0.56185 0.26697,-0.26698 0.97013,0.14251 0.97013,0.56496 0,0.52812 -0.76412,0.52566 -0.96703,-0.003 z m 2.55453,-1.93524 c 0,-0.30301 4.04992,-2.68356 4.56542,-2.68356 0.22278,0 0.46425,-0.14883 0.5366,-0.33073 0.0724,-0.1819 0.5911,-0.55219 1.15278,-0.82287 0.56169,-0.27068 1.19275,-0.57684 1.40237,-0.68036 0.20962,-0.10352 0.42092,-0.30759 0.46955,-0.45348 0.13214,-0.39642 -2.5839,-1.68131 -3.554,-1.68131 -1.05696,0 -2.19146,0.50139 -2.19146,0.96851 0,0.52921 -0.77949,0.42766 -1.28051,-0.16682 -0.86339,-1.02445 -1.76286,-1.28748 -3.16176,-0.92461 -1.10989,0.2879 -2.67618,1.12635 -3.68251,1.97128 -0.17575,0.14757 -0.44365,0.26831 -0.59531,0.26831 -0.15166,0 -0.27575,0.11906 -0.27575,0.26458 0,0.14552 -0.11906,0.26459 -0.26458,0.26459 -0.14552,0 -0.26459,-0.28955 -0.26459,-0.64345 0,-0.60985 1.16468,-1.7378 1.79439,-1.7378 0.14162,0 0.41142,-0.18548 0.59955,-0.41217 1.05248,-1.26816 3.62956,-1.50007 5.61085,-0.50492 l 1.33476,0.67041 0.58954,-0.55384 c 0.46551,-0.43733 0.80508,-0.52257 1.61408,-0.40518 2.63029,0.38166 3.57335,0.62642 4.03974,1.0485 0.54901,0.49685 0.92871,0.21591 0.65881,-0.48745 -0.23736,-0.61854 1.12142,-1.77435 2.26067,-1.92297 1.11696,-0.14571 2.49013,0.31596 2.32981,0.78331 -0.0675,0.19678 -0.63461,0.34025 -1.41057,0.35683 -1.99699,0.0427 -2.16551,0.10867 -1.16537,0.45633 0.80355,0.27933 0.92138,0.43022 0.89082,1.14079 -0.0303,0.70417 0.0841,0.85551 0.81662,1.08032 1.20179,0.36884 1.68542,-0.0647 1.78453,-1.59959 0.0439,-0.6806 0.15933,-1.23754 0.25641,-1.23766 0.17452,-2.1e-4 0.74953,2.33018 0.74953,3.03769 0,0.50801 -0.77285,0.7029 -2.56848,0.64768 -1.69615,-0.0522 -3.30175,0.17277 -4.31068,0.60388 -1.82994,0.78192 -2.55384,1.09985 -2.97298,1.30572 -0.25268,0.1241 -0.63964,0.22565 -0.85989,0.22565 -0.22026,0 -0.40047,0.10517 -0.40047,0.23372 0,0.12855 -0.20836,0.30369 -0.46302,0.3892 -0.52772,0.17719 -1.45418,0.74354 -1.65903,1.01417 -0.38818,0.51283 -2.37587,0.94562 -2.37587,0.5173 z m 10.98021,-5.85856 c 0,-0.21429 -0.20836,-0.42975 -0.46302,-0.4788 -0.32487,-0.0626 -0.46302,0.0803 -0.46302,0.4788 0,0.3985 0.13815,0.54136 0.46302,0.4788 0.25466,-0.049 0.46302,-0.2645 0.46302,-0.4788 z m 33.73438,5.41082 c 0,-0.37103 0.17385,-1.01078 0.38632,-1.42166 0.21248,-0.41089 0.3219,-0.8115 0.24315,-0.89024 -0.45745,-0.45745 1.22639,-2.26379 2.81011,-3.01457 1.83428,-0.86955 2.11761,-0.92417 2.10984,-0.40677 -0.006,0.42092 -1.61018,1.38076 -2.30723,1.38076 -0.15874,0 -0.55993,0.44648 -0.89154,0.99218 -0.33161,0.54571 -0.72827,1.07712 -0.88147,1.18092 -0.15321,0.1038 -0.29892,0.46099 -0.3238,0.79375 -0.0609,0.81475 -0.19296,1.33273 -0.44083,1.7295 -0.34311,0.54922 -0.70455,0.37281 -0.70455,-0.34387 z m 1.5875,-3.02957 c 0,-0.14552 -0.11906,-0.26458 -0.26458,-0.26458 -0.14552,0 -0.26459,0.11906 -0.26459,0.26458 0,0.14552 0.11907,0.26459 0.26459,0.26459 0.14552,0 0.26458,-0.11907 0.26458,-0.26459 z m 28.42042,2.87436 c -0.13778,-0.22295 1.00688,-1.7094 2.8356,-3.6823 0.92765,-1.0008 2.63357,-3.55318 3.53986,-5.29632 0.43831,-0.84302 1.06339,-1.81641 1.38906,-2.16308 0.32568,-0.34667 0.5942,-0.74169 0.59672,-0.87784 0.0106,-0.57696 4.22949,-3.79562 5.02251,-3.8318 0.21828,-0.01 0.81359,-0.30933 1.32292,-0.66527 2.27613,-1.59066 2.93375,-1.96816 3.42865,-1.96816 0.46406,0 0.49288,0.0787 0.23552,0.64357 -0.16128,0.35397 -0.63498,0.78513 -1.05266,0.95814 -0.41769,0.17301 -0.75943,0.39984 -0.75943,0.50406 0,0.10421 -0.65712,0.46727 -1.46027,0.80678 -0.80315,0.33952 -1.60682,0.79445 -1.78594,1.01097 -0.17912,0.21652 -0.74238,0.58316 -1.25171,0.81476 -0.50932,0.2316 -1.46961,1.0164 -2.13397,1.74401 -0.66436,0.7276 -1.48048,1.62057 -1.8136,1.98437 -0.77883,0.85057 -1.44438,1.84544 -1.50335,2.24722 -0.0255,0.17362 -0.38703,0.82716 -0.80343,1.4523 -0.41641,0.62515 -0.87464,1.35818 -1.01828,1.62897 -0.14365,0.27079 -0.35201,0.49235 -0.46303,0.49235 -0.11101,0 -0.20184,0.13307 -0.20184,0.29571 0,0.38416 -1.84262,2.20397 -2.46416,2.43366 -0.26389,0.0975 -0.41233,0.28646 -0.32987,0.41988 0.24353,0.39405 -0.11383,1.02169 -0.66359,1.16546 -0.28083,0.0734 -0.5804,0.0206 -0.66571,-0.11744 z m -55.55667,-5.61458 c 0.28748,-1.60021 0.62569,-2.2858 1.13439,-2.29955 0.25826,-0.007 0.91764,-0.57252 1.46529,-1.25677 l 0.99573,-1.24408 -0.92958,-0.0821 c -0.59455,-0.0525 -0.92958,-0.2194 -0.92958,-0.46302 0,-0.39129 0.36435,-0.47485 1.68276,-0.38595 0.58193,0.0392 1.00974,-0.21266 1.85209,-1.09057 0.60245,-0.62789 1.21442,-1.15075 1.35994,-1.16192 0.14552,-0.0112 0.59976,-0.16265 1.00941,-0.3366 1.85778,-0.78888 1.98425,-0.17868 0.18122,0.87434 -0.72761,0.42495 -1.32292,0.91757 -1.32292,1.09472 0,0.17715 -0.29766,0.55622 -0.66146,0.84239 -0.3638,0.28617 -0.66146,0.63829 -0.66146,0.7825 0,0.34323 -2.16274,2.43977 -2.5168,2.43977 -0.1503,0 -0.4929,0.40781 -0.76132,0.90624 -0.26843,0.49843 -0.84647,1.24257 -1.28454,1.65365 l -0.79649,0.7474 z m -4.01481,-2.17454 c -0.14457,-0.28006 -0.21892,-0.62973 -0.16523,-0.77704 0.141,-0.38684 -3.28072,-1.74753 -4.24059,-1.68632 -0.12925,0.008 -0.33358,-0.14401 -0.45407,-0.33834 -0.1566,-0.25257 0.0196,-0.43417 0.6179,-0.63681 0.57124,-0.19348 0.8987,-0.51433 1.03142,-1.01061 0.16175,-0.60479 0.0435,-0.88715 -0.70262,-1.67821 -0.76375,-0.80972 -1.1052,-0.9679 -2.29715,-1.06416 -1.15701,-0.0934 -1.56082,-0.003 -2.3261,0.51931 -1.32196,0.90274 -1.76823,1.02658 -2.12972,0.59101 -0.17398,-0.20963 -0.53013,-0.38115 -0.79146,-0.38115 -0.77785,0 -1.31215,-0.29478 -1.31215,-0.72394 0,-0.3369 0.26602,-0.37265 1.62713,-0.21866 1.22006,0.13804 1.6807,0.0969 1.84123,-0.16426 0.11774,-0.19159 0.84404,-0.47474 1.614,-0.62922 1.18537,-0.23782 1.57647,-0.20705 2.55179,0.20077 0.63352,0.2649 1.45325,0.71872 1.82162,1.00848 0.76369,0.60072 1.39214,0.68593 1.39214,0.18875 0,-0.39588 0.77977,-1.10543 1.25677,-1.14359 0.1819,-0.0145 0.65114,-0.0443 1.04276,-0.0661 0.67903,-0.0379 0.68841,-0.057 0.20236,-0.41237 -0.49414,-0.36133 -0.48359,-0.409 0.3463,-1.56461 0.47079,-0.65556 0.85598,-1.44035 0.85598,-1.74399 0,-0.30363 0.13945,-0.55205 0.30989,-0.55205 0.17045,0 0.52879,-0.1981 0.79633,-0.44021 0.42539,-0.38498 0.57739,-0.39471 1.21145,-0.0776 1.44975,0.72514 2.29832,1.81718 1.12191,1.44381 -0.34488,-0.10946 -0.53209,-0.0466 -0.53758,0.1806 -0.005,0.2175 -0.15449,0.15544 -0.39687,-0.16503 -0.21366,-0.28247 -0.38846,-0.41672 -0.38846,-0.29833 0,0.11839 -0.16351,0.0796 -0.36334,-0.0863 -0.38736,-0.32147 -1.22416,-0.13461 -1.22416,0.27337 0,0.31836 0.42231,0.46482 1.71979,0.59642 0.58208,0.059 1.23692,0.17894 1.45521,0.26643 0.26025,0.10431 0.50678,-0.0785 0.71615,-0.53097 0.28246,-0.61048 0.237,-0.79317 -0.39426,-1.5843 -0.88306,-1.1067 -2.49309,-1.79291 -3.68293,-1.56969 -0.47976,0.09 -0.8723,0.27731 -0.8723,0.41623 0,0.13893 -0.16401,0.2526 -0.36448,0.2526 -0.20046,0 -0.50827,0.17326 -0.68402,0.38502 -0.33477,0.40339 -0.85204,0.23774 -1.91601,-0.61356 -0.39011,-0.31213 -0.55775,-0.27643 -1.24213,0.26458 -0.43514,0.34398 -0.79775,0.8192 -0.8058,1.05604 -0.0189,0.55473 -0.7006,1.12244 -1.07215,0.89281 -0.15781,-0.0975 -0.21468,-0.40498 -0.12638,-0.6832 0.28074,-0.88455 -0.42292,-2.31499 -1.28695,-2.61619 -1.35463,-0.47223 -2.28774,-0.33163 -3.0454,0.45886 -0.38581,0.40253 -1.02889,0.87623 -1.42907,1.05267 -1.10578,0.48752 -0.83344,2.4488 0.34003,2.4488 0.35227,0 0.51986,0.17972 0.51986,0.55748 0,0.39964 -0.11849,0.512 -0.41851,0.39687 -0.23019,-0.0883 -0.53185,-0.1606 -0.67038,-0.1606 -0.13852,0 -0.61011,-0.36648 -1.04797,-0.8144 -0.57884,-0.59215 -0.75208,-0.97124 -0.6348,-1.38907 0.44192,-1.57434 0.77146,-2.03968 1.8074,-2.55218 0.6031,-0.29837 1.50466,-0.88266 2.00347,-1.29842 l 0.90691,-0.75592 1.34205,0.78458 c 0.73812,0.43151 1.58784,1.01126 1.88826,1.28832 0.65297,0.60221 1.43816,0.66056 1.43816,0.10688 0,-0.21828 0.10932,-0.39687 0.24294,-0.39687 0.13362,0 0.43117,-0.0722 0.66123,-0.16051 0.26861,-0.10308 0.71707,0.15729 1.25322,0.7276 0.53883,0.57316 0.87597,0.76832 0.95067,0.55031 0.17469,-0.50981 2.0537,-1.38198 2.97735,-1.38198 1.92438,0 4.06781,1.82642 4.15054,3.53669 0.0312,0.64441 0.25154,1.21139 0.59531,1.53166 0.3002,0.27968 0.54582,0.80526 0.54582,1.16796 0,0.36718 0.19235,0.73327 0.434,0.826 0.39786,0.15267 0.39614,0.19422 -0.0206,0.49893 -0.37985,0.27775 -0.60946,0.22727 -1.39696,-0.30714 -0.51831,-0.35174 -1.06523,-0.63952 -1.21536,-0.63952 -0.15014,0 -0.4793,-0.18673 -0.73148,-0.41495 -0.58577,-0.53011 -1.25504,-0.15303 -1.86669,1.05172 l -0.43144,0.84981 0.75112,-0.11024 c 0.84667,-0.12426 2.71211,0.87377 2.55103,1.36483 -0.0544,0.16585 -0.56597,0.33926 -1.1368,0.38536 -0.57084,0.0461 -1.15099,0.19494 -1.28924,0.33073 -0.13824,0.1358 -0.64067,0.24691 -1.1165,0.24691 h -0.86515 l 0.66041,0.97317 c 0.55583,0.81906 0.81646,0.97619 1.64568,0.99219 1.32129,0.0255 1.36686,0.75633 0.0592,0.9497 -0.50932,0.0753 -1.37956,0.36861 -1.93387,0.65177 -0.8657,0.44224 -1.04143,0.46045 -1.24619,0.12915 -0.17109,-0.27684 -0.0421,-0.54218 0.45706,-0.9402 0.92061,-0.73407 0.68069,-1.22045 -0.81972,-1.66171 -1.0053,-0.29566 -1.37555,-0.3 -2.04205,-0.0239 -0.67857,0.28107 -0.85341,0.27512 -1.0502,-0.0357 -0.32875,-0.51932 -0.30454,-0.054 0.0297,0.57049 0.15065,0.28147 0.49325,0.51177 0.76136,0.51177 0.2681,0 0.63568,0.1786 0.81684,0.39688 0.18115,0.21828 0.49339,0.39687 0.69385,0.39687 0.20046,0 0.36448,0.1357 0.36448,0.30156 0,0.16586 0.16433,0.43375 0.36517,0.59532 0.3001,0.2414 0.30616,0.43164 0.034,1.06753 -0.30672,0.71671 -0.35053,0.73622 -0.594,0.26458 z m -2.27234,-4.78433 c -0.0958,-0.0958 -0.0415,-0.33388 0.12059,-0.52917 0.22357,-0.26939 0.20174,-0.35507 -0.0905,-0.35507 -0.5791,0 -0.76929,0.30489 -0.43868,0.70326 0.16208,0.19529 0.35949,0.35507 0.43868,0.35507 0.0792,0 0.0657,-0.0783 -0.0301,-0.17409 z m 4.12079,-1.13499 c 1.08709,-0.54288 0.89091,-0.88732 -0.39687,-0.69683 -0.61846,0.0915 -1.39237,0.17612 -1.71979,0.18807 -0.60622,0.0221 -0.83485,0.63557 -0.30296,0.81286 0.58038,0.19346 1.70676,0.0519 2.41962,-0.3041 z m 0.65081,-3.19234 c 0.0745,-1.06015 -0.61794,-1.05567 -0.77361,0.005 -0.12942,0.88178 -0.0398,1.07752 0.41326,0.9028 0.16767,-0.0647 0.32983,-0.47318 0.36035,-0.90781 z m -18.0005,6.14049 c -0.61814,-0.68304 -0.57491,-2.61098 0.0827,-3.68959 0.39957,-0.65534 0.70879,-0.85989 1.29988,-0.85989 1.06009,0 1.16103,0.5555 0.19058,1.04889 -0.9458,0.48084 -1.3051,1.54698 -0.9066,2.69012 0.35539,1.01947 -0.0411,1.50158 -0.66659,0.81047 z m 54.32522,-3.84833 c 0,-0.54238 1.28181,-2.02407 1.75103,-2.02407 0.2934,0 0.23722,0.2587 -0.24422,1.12448 -0.62623,1.12615 -1.50681,1.65188 -1.50681,0.89959 z m -25.92917,-4.14074 c -0.21828,-0.14106 -0.7243,-0.2583 -1.12448,-0.26053 -0.81391,-0.005 -1.02684,-0.69504 -0.26458,-0.85798 0.4689,-0.10023 2.12624,0.18 2.34229,0.39605 0.15676,0.15675 -0.1699,0.98815 -0.38623,0.98299 -0.0936,-0.002 -0.34872,-0.11946 -0.567,-0.26053 z m 44.31655,-2.11853 c -0.0906,-0.14655 0.0266,-0.33985 0.26038,-0.42956 0.50659,-0.1944 0.78892,0.0198 0.54541,0.41382 -0.21971,0.35549 -0.59132,0.36275 -0.80579,0.0157 z m 23.94595,-0.0528 c -0.65484,-0.1444 -1.32436,-0.37183 -1.48782,-0.50539 -0.16345,-0.13357 -0.49087,-0.16852 -0.7276,-0.0777 -0.31357,0.12033 -0.43041,0.0138 -0.43041,-0.39231 0,-0.49853 0.15205,-0.55747 1.43798,-0.55747 1.53958,0 2.60529,0.3013 3.21215,0.90817 0.92006,0.92005 0.26331,1.12474 -2.0043,0.62468 z m -48.4849,-5.15482 c -0.47141,-0.12319 -0.62064,-1.02127 -0.26053,-1.56789 0.10692,-0.16229 0.49205,-0.3867 0.85585,-0.49869 0.3638,-0.11198 0.74407,-0.33261 0.84504,-0.49027 0.13125,-0.20492 0.60546,-0.19816 1.6632,0.0237 0.81378,0.17069 1.6539,0.24346 1.86693,0.16172 0.21303,-0.0817 0.59569,-0.0684 0.85035,0.0298 0.44097,0.16989 0.44097,0.19077 0,0.43833 -0.25466,0.14296 -0.46302,0.49214 -0.46302,0.77595 0,0.63569 -0.70937,0.67798 -1.54574,0.0922 -0.33283,-0.23312 -0.67579,-0.35322 -0.76213,-0.26688 -0.0863,0.0863 -0.287,0.0514 -0.44591,-0.0776 -0.15891,-0.12901 -0.70565,-0.15774 -1.21497,-0.0639 -0.69275,0.12771 -0.92604,0.30402 -0.92604,0.69988 0,0.29104 0.11906,0.61664 0.26458,0.72355 0.29297,0.21524 0.0453,0.22209 -0.72761,0.0201 z"
       id="path6" />
  </g>
</svg>
