<?xml version="1.0" encoding="UTF-8" standalone="no"?>
<!-- Created with Inkscape (http://www.inkscape.org/) -->

<svg
   width="157.51375mm"
   height="86.276474mm"
   viewBox="0 0 157.51376 86.276465"
   version="1.1"
   id="svg1"
   inkscape:version="1.4.1-rc (06eac75fbf, 2025-03-29)"
   sodipodi:docname="field7.svg"
   xmlns:inkscape="http://www.inkscape.org/namespaces/inkscape"
   xmlns:sodipodi="http://sodipodi.sourceforge.net/DTD/sodipodi-0.dtd"
   xmlns="http://www.w3.org/2000/svg"
   xmlns:svg="http://www.w3.org/2000/svg">
  <sodipodi:namedview
     id="namedview1"
     pagecolor="#ffffff"
     bordercolor="#000000"
     borderopacity="0.25"
     inkscape:showpageshadow="2"
     inkscape:pageopacity="0.0"
     inkscape:pagecheckerboard="0"
     inkscape:deskcolor="#d1d1d1"
     inkscape:document-units="mm"
     inkscape:zoom="0.72248176"
     inkscape:cx="297.58537"
     inkscape:cy="164.01798"
     inkscape:window-width="1850"
     inkscape:window-height="1016"
     inkscape:window-x="0"
     inkscape:window-y="0"
     inkscape:window-maximized="1"
     inkscape:current-layer="layer1" />
  <defs
     id="defs1" />
  <g
     inkscape:label="Layer 1"
     inkscape:groupmode="layer"
     id="layer1"
     transform="translate(-26.193751,-105.0395)">
    <path
       style="fill:#000000"
       d="m 113.46737,191.09275 c -0.0753,-0.12182 -0.38046,-0.15779 -0.67815,-0.0799 -0.31834,0.0833 -0.81111,-0.0707 -1.19645,-0.37382 -0.36035,-0.28345 -0.88508,-0.51537 -1.16606,-0.51537 -0.28098,0 -0.7535,-0.12985 -1.05004,-0.28855 -0.29654,-0.1587 -1.26,-0.39044 -2.14103,-0.51497 -0.88103,-0.12454 -1.67238,-0.32211 -1.75855,-0.43906 -0.0862,-0.11694 -0.63293,-0.22733 -1.21501,-0.2453 -0.97242,-0.03 -2.3471,-0.18747 -4.564057,-0.52273 -0.5572,-0.0843 -0.8599,-0.27889 -0.8599,-0.55288 0,-0.37158 0.29676,-0.39822 2.447397,-0.21969 1.34606,0.11175 2.65575,0.19576 2.91041,0.1867 0.25466,-0.009 0.46302,0.10222 0.46302,0.24729 0,0.14506 0.10513,0.19878 0.23361,0.11938 0.35141,-0.21719 4.59441,0.7515 7.43573,1.69759 2.21144,0.73636 2.89523,1.11012 2.90994,1.59055 0.007,0.22682 -1.6264,0.14455 -1.77086,-0.0892 z m 5.67885,-1.51875 c -0.25393,-0.14792 -0.81613,-0.3138 -1.24934,-0.36862 -0.43321,-0.0548 -0.8962,-0.16678 -1.02888,-0.24878 -0.32557,-0.20121 -3.40209,-0.62393 -5.96487,-0.81959 -1.75879,-0.13428 -2.16619,-0.25619 -2.5695,-0.76892 -0.46054,-0.58548 -0.95536,-0.72596 -3.93926,-1.11831 -1.13865,-0.14972 -1.51045,-0.47619 -1.10233,-0.96795 0.35953,-0.43321 0.14791,-0.71447 -0.53757,-0.71447 -0.27136,0 -0.56191,-0.17859 -0.64567,-0.39687 -0.0878,-0.22876 -0.48315,-0.39688 -0.93335,-0.39688 -0.42958,0 -0.71086,0.11359 -0.62506,0.25242 0.0858,0.13882 0.0799,0.55554 -0.0131,0.92604 -0.1991,0.79329 -0.653877,0.8399 -2.750557,0.28195 -1.27094,-0.33822 -1.52082,-0.33783 -2.04121,0.003 -0.32614,0.21369 -0.79615,0.38853 -1.04448,0.38853 -0.24832,0 -0.67204,0.1996 -0.9416,0.44354 -0.35596,0.32214 -0.56963,0.36401 -0.78068,0.15297 -0.15981,-0.15981 -0.44261,-0.23223 -0.62844,-0.16092 -0.18583,0.0713 -0.41647,0.002 -0.51254,-0.15296 -0.0961,-0.15545 -0.40577,-0.28263 -0.68822,-0.28263 -0.28245,0 -0.513786,-0.0893 -0.514076,-0.19843 -2.9e-4,-0.10914 -0.3464,-0.22254 -0.76914,-0.252 -0.42274,-0.0295 -1.07193,-0.35689 -1.44266,-0.72761 -0.37072,-0.37072 -0.79851,-0.67404 -0.95065,-0.67404 -0.15213,0 -0.27661,-0.18562 -0.27661,-0.41249 0,-0.22687 -0.12123,-0.33756 -0.2694,-0.24599 -0.40914,0.25286 -1.97991,-0.82587 -2.33391,-1.60282 -0.1934,-0.42447 -0.48477,-0.6537 -0.76284,-0.60015 -0.24745,0.0477 -0.73978,-0.18199 -1.09406,-0.51033 -0.35428,-0.32833 -0.85785,-0.59697 -1.11906,-0.59697 -0.2612,0 -0.5485,-0.11906 -0.638428,-0.26458 -0.20061,-0.32458 -1.98438,-0.35498 -1.98438,-0.0338 0,0.12692 0.46079,0.30445 1.02397,0.39451 0.56319,0.0901 1.173078,0.3434 1.355318,0.56298 0.18223,0.21958 0.55488,0.39924 0.82811,0.39924 0.35893,0 0.49677,0.19139 0.49677,0.68977 0,0.55315 -0.0917,0.65201 -0.46302,0.49915 -0.25467,-0.10484 -0.67138,-0.25053 -0.92605,-0.32375 -0.25466,-0.0732 -0.463018,-0.26807 -0.463018,-0.433 0,-0.16493 -0.36018,-0.29987 -0.80041,-0.29987 -0.88581,0 -1.02748,0.68923 -0.16753,0.81504 0.67749,0.0991 0.85204,0.33274 0.50666,0.67812 -0.5499,0.54989 -1.59918,0.0228 -1.96423,-0.98679 -0.24388,-0.67443 -0.60509,-1.05692 -1.254305,-1.32817 -1.0084,-0.42134 -0.935523,-0.61775 0.518578,-1.39759 0.751457,-0.40301 0.897647,-0.63268 0.926207,-1.45516 0.0187,-0.53715 -0.0839,-1.04945 -0.22792,-1.13845 -0.448541,-0.27721 -2.262902,-0.35514 -2.418201,-0.10386 -0.225032,0.36411 0.129352,1.0804 0.534528,1.0804 0.427208,0 0.996896,0.96348 0.778567,1.31674 -0.191277,0.30949 -0.882901,0.0441 -1.806732,-0.69336 -0.678504,-0.54161 -0.972237,-1.41713 -0.475439,-1.41713 0.129351,0 0.218648,-0.20836 0.198437,-0.46302 -0.02021,-0.25466 0.11208,-0.43326 0.293981,-0.39688 0.181902,0.0364 0.330825,-0.0827 0.330942,-0.26458 1.33e-4,-0.20556 0.464086,-0.36067 1.225915,-0.40984 0.971293,-0.0627 1.355452,0.0428 1.850832,0.50816 0.63584,0.59734 1.21569,0.491 0.75014,-0.13758 -0.14037,-0.18953 -0.58414,-0.83866 -0.98615,-1.44252 -0.50739,-0.76214 -0.918709,-1.09791 -1.344963,-1.09791 -0.827353,0 -0.977064,0.20319 -0.695454,0.94388 0.282496,0.74302 -0.108786,1.10793 -0.679831,0.634 -0.587636,-0.48769 -0.460988,-1.43002 0.293612,-2.18462 l 0.678896,-0.67889 -0.567279,-0.3036 c -0.312004,-0.16698 -0.747588,-0.23441 -0.967965,-0.14984 -0.257375,0.0988 -0.45028,-0.0359 -0.53935,-0.3765 -0.13989,-0.53494 -0.608536,-0.66267 -2.018438,-0.55012 -0.601228,0.048 -0.731702,-0.0363 -0.65471,-0.42312 0.07986,-0.40123 0.352739,-0.48194 1.61076,-0.4764 1.883956,0.008 1.994958,-0.43716 0.45551,-1.82796 -1.104815,-0.99813 -1.445252,-1.13523 -1.719029,-0.69225 -0.271926,0.43999 -0.664475,0.29904 -0.921058,-0.33072 l -0.242547,-0.59532 -0.170263,0.57085 c -0.21902,0.73432 -0.706664,0.84755 -2.956808,0.68655 -1.171901,-0.0838 -2.056451,-0.0161 -2.434898,0.18641 -0.564925,0.30234 -0.571892,0.34293 -0.140649,0.81945 0.249546,0.27575 0.676143,0.57195 0.947993,0.65823 0.547139,0.17366 0.669019,0.81262 0.185732,0.97372 -0.343745,0.11458 -0.390573,0.0679 1.968167,1.96347 1.12945,0.90768 1.487868,1.35179 1.375831,1.70479 -0.131262,0.41357 -0.03086,0.45777 0.75148,0.33082 0.999011,-0.16212 2.033895,0.25768 2.033895,0.82505 0,0.23871 -0.299571,0.36329 -0.859896,0.35759 -2.116156,-0.0215 -2.05052,-0.0648 -2.05052,1.35059 0,1.15108 0.09816,1.37649 0.859895,1.97472 1.604271,1.25991 1.847121,1.53304 1.590897,1.78926 -0.633234,0.63324 -2.901774,-1.27774 -3.255532,-2.7424 -0.07881,-0.32628 -0.435993,-0.73657 -0.79375,-0.91177 -2.342814,-1.14729 -2.89924,-1.37896 -2.897754,-1.20652 9.2e-4,0.10681 0.367985,0.40268 0.815701,0.65751 0.851358,0.48456 0.916745,1.0616 0.137417,1.21271 -0.251112,0.0487 -1.275561,-0.3085 -2.276553,-0.79375 -1.652343,-0.80101 -1.806439,-0.94321 -1.672906,-1.54374 0.139801,-0.62872 0.127777,-0.63641 -0.242948,-0.15544 -0.267825,0.34746 -0.547091,0.44574 -0.891311,0.31365 -0.275705,-0.1058 -0.539422,-0.15491 -0.586038,-0.10914 -0.04662,0.0458 -0.201361,-0.12513 -0.343876,-0.37979 -0.142516,-0.25467 -0.379293,-0.46303 -0.526171,-0.46303 -0.146878,0 -0.201177,0.10659 -0.120664,0.23686 0.08051,0.13028 -0.02971,0.30444 -0.244932,0.38703 -0.410689,0.15759 -0.928558,-0.54612 -0.928558,-1.26177 0,-0.43228 -1.896526,-1.47878 -2.679915,-1.47878 -0.255121,0 -0.542457,-0.12718 -0.638525,-0.28262 -0.09607,-0.15544 -0.32958,-0.22318 -0.518914,-0.15053 -0.189335,0.0727 -0.415226,0.0611 -0.501981,-0.0256 -0.08675,-0.0868 -0.473145,-0.19137 -0.858645,-0.23247 -0.999941,-0.10661 -1.217017,-0.42627 -0.884103,-1.3019 l 0.287581,-0.75639 0.648293,0.75446 c 0.35656,0.41496 0.648292,0.66184 0.648292,0.54863 0,-0.11322 0.178594,-0.0576 0.396875,0.12353 0.332267,0.27576 0.396875,0.23488 0.396875,-0.25108 0,-0.31926 -0.188408,-0.76887 -0.418684,-0.99915 -0.438656,-0.43866 -0.328975,-2.05414 0.174689,-2.573 0.134197,-0.13824 0.243995,-0.46566 0.243995,-0.7276 0,-0.37899 0.229641,-0.48265 1.124479,-0.50758 0.618464,-0.0172 1.213776,-0.0172 1.322917,0 0.10914,0.0172 0.198437,-0.078 0.198437,-0.21162 0,-0.13362 0.0802,-0.45194 0.178226,-0.70739 0.136411,-0.35548 0.07632,-0.42534 -0.25611,-0.29778 -0.238885,0.0917 -0.504707,0.0528 -0.590716,-0.0864 -0.08601,-0.13917 -0.03029,-0.25303 0.123819,-0.25303 0.154109,0 0.280198,-0.12976 0.280198,-0.28835 0,-0.45978 1.410947,-1.82832 1.884973,-1.82832 0.237316,0 0.579703,-0.17859 0.76086,-0.39687 0.181157,-0.21829 0.493392,-0.39688 0.693855,-0.39688 0.200463,0 0.364478,-0.10281 0.364478,-0.22846 0,-0.59857 1.418699,-0.0547 3.571875,1.36938 2.373295,1.56963 3.058109,2.27747 2.882043,2.97898 -0.114495,0.45618 -0.0065,0.6403 0.468973,0.7993 0.828782,0.27716 1.847813,0.14172 2.358359,-0.31346 0.22974,-0.20482 0.623225,-0.37241 0.874412,-0.37241 0.251187,0 0.975722,-0.23644 1.610078,-0.52542 1.584757,-0.72194 3.415187,-0.40304 4.390196,0.76486 0.381379,0.45683 1.04922,0.88649 1.52621,0.98189 0.89795,0.17959 2.426188,1.80916 2.426188,2.58706 0,0.23372 0.11664,0.42495 0.2592,0.42495 0.31676,0 1.42443,2.10873 1.21676,2.3164 -0.0816,0.0817 -0.0137,0.31083 0.15102,0.5093 0.24762,0.29836 0.36436,0.26822 0.67417,-0.17409 0.54758,-0.78179 1.10706,-0.67645 1.08204,0.20372 -0.0266,0.93477 0.54646,2.70092 0.87633,2.70092 0.13736,0 0.37402,0.27277 0.52592,0.60615 0.26074,0.57225 0.84012,0.99948 1.89529,1.39755 0.25466,0.0961 0.46302,0.31547 0.46302,0.48755 0,0.32812 1.43985,0.94833 2.20159,0.94833 0.24433,0 0.444236,0.16471 0.444236,0.36602 0,0.4991 -0.987686,0.72886 -1.163516,0.27066 -0.0767,-0.19975 -0.32247,-0.29291 -0.54626,-0.20704 -0.22379,0.0859 -0.40689,0.0372 -0.40689,-0.10807 0,-0.14531 -0.32446,-0.34564 -0.72103,-0.44517 -0.39657,-0.0995 -1.45245,-0.82312 -2.34641,-1.60797 l -1.62538,-1.42701 -0.16766,1.22321 c -0.19424,1.4171 0.41083,2.76647 1.28861,2.87376 0.29104,0.0356 1.35032,0.14175 2.35394,0.23595 1.9829,0.18611 3.20109,0.83131 2.79874,1.48232 -0.18985,0.30719 -0.38541,0.29096 -1.20542,-0.10008 -1.12062,-0.53439 -4.79368,-0.94056 -4.01341,-0.44381 0.25466,0.16213 0.46302,0.44777 0.46302,0.63477 0,0.33906 1.42135,1.75038 1.76282,1.75038 0.0989,0 0.39763,0.19704 0.66375,0.43788 0.30522,0.27622 0.48385,0.32163 0.48385,0.12298 0,-0.23436 0.13724,-0.24145 0.53658,-0.0277 0.29511,0.15794 0.47502,0.38677 0.39979,0.5085 -0.19318,0.31256 0.57056,0.89147 0.90412,0.68532 0.1519,-0.0939 0.27618,-0.0446 0.27618,0.10952 0,0.36377 1.075796,0.35469 1.587496,-0.0134 0.34038,-0.24486 0.33408,-0.26549 -0.0442,-0.14495 -0.35872,0.11429 -0.7495,-0.27521 -0.7495,-0.74704 0,-0.0462 0.50601,-0.0662 1.12448,-0.0445 1.04143,0.0365 1.13066,-0.0143 1.2082,-0.68814 0.0792,-0.68842 -0.28415,-0.99493 -0.59096,-0.49851 -0.0779,0.12601 -0.44209,0.17166 -0.80937,0.10145 -1.584696,-0.30294 -0.0793,-1.26063 1.61623,-1.02823 1.33307,0.18272 2.80309,-0.0495 2.58164,-0.40782 -0.19749,-0.31955 -2.86226,-1.54033 -3.36229,-1.54033 -0.26779,0 -0.38703,-0.31867 -0.39729,-1.06169 -0.0132,-0.95761 0.0713,-1.09763 0.86255,-1.42822 0.8704,-0.36367 1.64169,-1.10011 0.82326,-0.78605 -0.22584,0.0867 -0.4255,0.0258 -0.44369,-0.13532 -0.0182,-0.16109 -0.0628,-0.41195 -0.0992,-0.55747 -0.0364,-0.14552 -0.0837,-0.53248 -0.10523,-0.8599 -0.0254,-0.38759 -0.33703,-0.74017 -0.89297,-1.01047 -0.46964,-0.22833 -0.97092,-0.67367 -1.11396,-0.98963 -0.14304,-0.31596 -0.38117,-0.55684 -0.52917,-0.5353 -0.148,0.0215 -0.47896,-0.0525 -0.735476,-0.16445 -0.52462,-0.22905 -1.2534,0.24426 -1.2534,0.81402 0,0.20046 -0.17859,0.36448 -0.39687,0.36448 -0.21829,0 -0.39688,-0.11906 -0.39688,-0.26459 0,-0.14552 0.14883,-0.2664 0.33073,-0.26863 0.25748,-0.003 0.25549,-0.0518 -0.009,-0.21959 -0.18683,-0.11855 -0.26365,-0.4137 -0.17072,-0.65589 0.0929,-0.24219 0.27557,-0.37447 0.40584,-0.29396 0.13027,0.0805 0.23686,-0.0392 0.23686,-0.2661 0,-0.48959 0.5581,-0.54231 1.00542,-0.095 0.24694,0.24694 0.3175,0.21609 0.3175,-0.13884 0,-0.55505 -0.91105,-0.93086 -2.43442,-1.00421 -0.6256,-0.0301 -1.28228,-0.16561 -1.45929,-0.30108 -0.17701,-0.13548 -0.47467,-0.19162 -0.66146,-0.12476 -0.18679,0.0668 -0.55152,0.0125 -0.8105,-0.12079 -0.38545,-0.19838 -0.53967,-0.0777 -0.85004,0.66512 -0.20854,0.4991 -0.56219,0.9777 -0.78589,1.06354 -0.56899,0.21834 -0.56131,-1.75161 0.009,-2.32196 0.51774,-0.51774 0.39859,-0.52113 4.19279,0.11934 3.249046,0.54845 3.991376,0.85261 3.731786,1.52908 -0.1241,0.32339 -0.0799,0.33344 0.25254,0.0575 0.28452,-0.23612 0.40294,-0.24533 0.40294,-0.0313 0,0.20391 0.19477,0.17764 0.59531,-0.0803 0.32742,-0.21087 1.03423,-0.46357 1.57068,-0.56155 0.81588,-0.14903 1.14037,-0.0565 1.98438,0.56571 1.26452,0.93225 1.93504,1.59589 1.93504,1.91518 0,0.13603 0.1786,0.31587 0.39688,0.39963 0.21828,0.0838 0.39687,0.43911 0.39687,0.78966 0,0.35055 0.17256,0.78057 0.38345,0.9556 0.32021,0.26575 0.37476,0.19949 0.33073,-0.40172 -0.029,-0.39598 0.0961,-0.77266 0.278007,-0.83706 0.1819,-0.0644 0.33073,0.0105 0.33073,0.16652 0,0.32533 0.82411,1.34799 1.08628,1.34799 0.0962,0 0.24123,-0.25359 0.32229,-0.56353 0.0984,-0.37643 0.28437,-0.51096 0.56002,-0.40518 0.56665,0.21744 0.52058,-0.24635 -0.0666,-0.66994 -0.9567,-0.69022 -0.96936,-1.05876 -0.0313,-0.91092 0.47782,0.0753 0.97267,0.32258 1.09966,0.54949 0.12698,0.22692 0.52262,0.41258 0.8792,0.41258 0.5398,0 0.64831,-0.12913 0.64831,-0.77152 0,-0.58051 0.25506,-0.97353 1.03026,-1.5875 0.56664,-0.44879 1.23607,-0.81598 1.4876,-0.81598 0.78597,0 -0.0395,-0.71446 -1.41423,-1.22404 -0.67976,-0.25197 -1.55196,-0.67495 -1.93823,-0.93996 -0.38626,-0.26501 -0.78059,-0.48184 -0.87628,-0.48184 -0.20033,0 -2.92547,-1.21158 -3.713077,-1.65082 -0.29104,-0.16231 -0.80792,-0.44112 -1.14862,-0.61957 l -0.61945,-0.32446 0.57994,-0.18406 c 0.32323,-0.10259 0.70869,-0.0553 0.8708,0.1068 0.15998,0.15997 0.48689,0.29086 0.72647,0.29086 0.507157,0 2.027697,0.72018 2.237597,1.05981 0.079,0.12789 0.67971,0.31291 1.33481,0.41115 0.97414,0.14608 1.13579,0.24526 0.88748,0.54446 -0.24139,0.29086 -0.19407,0.36583 0.23094,0.36583 0.29401,0 1.05272,0.29623 1.68604,0.65828 0.63332,0.36204 1.47188,0.6597 1.86348,0.66145 0.39159,0.002 0.78557,0.12225 0.87551,0.26777 0.0899,0.14553 0.37633,0.26459 0.63642,0.26459 0.2601,0 0.86093,0.19357 1.33519,0.43017 0.62846,0.31351 0.76712,0.48898 0.51134,0.64707 -0.19303,0.11929 -0.25618,0.31168 -0.14034,0.42752 0.11584,0.11584 0.32705,0.003 0.46936,-0.25172 0.19016,-0.3398 0.44788,-0.41782 0.97234,-0.29437 0.39248,0.0924 0.82671,0.27167 0.96496,0.3984 0.13824,0.12674 0.46567,0.23043 0.7276,0.23043 0.26194,0 0.47625,0.17859 0.47625,0.39687 0,0.53826 -1.42199,0.52459 -1.96547,-0.0189 -0.5422,-0.54219 -0.52487,-0.42423 0.12178,0.8291 0.99693,1.93222 1.48985,2.62934 1.86608,2.63918 0.70213,0.0183 1.16773,0.51835 1.96193,2.10687 0.43653,0.87313 1.00208,1.87145 1.25677,2.2185 0.56754,0.77333 0.58672,1.08879 0.0662,1.08879 -0.22048,0 -0.39687,0.23519 -0.39687,0.52917 0,0.79372 -0.53271,0.63299 -1.82425,-0.55041 -1.72194,-1.57775 -3.99658,-2.61977 -3.99658,-1.83084 0,0.14552 0.17135,0.26458 0.38078,0.26458 0.20943,0 0.93105,0.47625 1.60359,1.05834 0.67255,0.58208 1.30487,1.06109 1.40516,1.06447 0.39092,0.0132 2.16614,1.81507 1.93122,1.96026 -0.30465,0.18828 -1.39965,-0.20661 -1.90626,-0.68747 -0.45494,-0.43182 -2.69686,-1.54351 -3.11274,-1.54351 -0.16597,0 -0.30175,-0.13364 -0.30175,-0.29698 0,-0.20916 -0.11394,-0.20242 -0.38529,0.0228 -0.21191,0.17586 -0.51748,0.23805 -0.67906,0.13819 -0.16158,-0.0999 -0.43701,0.0143 -0.61206,0.25371 -0.28733,0.39295 -0.40155,0.36093 -1.17463,-0.32927 -0.73126,-0.65287 -0.83197,-0.8864 -0.6895,-1.59875 0.0959,-0.47951 0.0405,-0.98637 -0.13019,-1.19209 -0.22285,-0.26853 -0.19321,-0.56599 0.11873,-1.19128 0.38275,-0.76724 0.52448,-0.83549 1.78544,-0.85977 0.75332,-0.0145 1.66734,-0.11187 2.03114,-0.21637 l 0.66146,-0.19 -0.90009,-0.47267 c -0.81926,-0.43021 -0.92142,-0.43454 -1.13763,-0.0482 -0.32177,0.57498 -0.54154,0.53715 -1.37686,-0.237 -0.40139,-0.37199 -1.03196,-0.66146 -1.44093,-0.66146 -0.39996,0 -0.85905,-0.13184 -1.02019,-0.29299 -0.21426,-0.21426 -0.37894,-0.13239 -0.61286,0.3047 -0.27456,0.51301 -0.26049,0.5749 0.0993,0.43684 0.56237,-0.2158 0.78947,0.20675 0.32036,0.59607 -0.28965,0.2404 -0.31311,0.48702 -0.10349,1.08832 0.14906,0.42761 0.39233,0.77748 0.54059,0.77748 0.14826,0 0.20729,0.23812 0.13118,0.52916 -0.0761,0.29105 -0.0305,0.52917 0.10143,0.52917 0.1319,0 0.23981,0.59531 0.23981,1.32292 0,1.45313 -0.19911,1.58382 -1.28207,0.84154 -0.66737,-0.45742 -3.55228,-1.63529 -4.00527,-1.63529 -0.11725,0 -0.0984,0.44648 0.0419,0.99219 0.14032,0.5457 0.32025,1.26007 0.39985,1.5875 0.11395,0.46868 0.33149,0.59531 1.0227,0.59531 1.26852,0 2.06185,0.37208 2.48697,1.16641 0.59301,1.10804 -0.0102,1.46501 -1.02818,0.60845 -0.68636,-0.57753 -0.934,-0.6443 -1.6394,-0.44199 -0.457,0.13106 -0.8862,0.29358 -0.95377,0.36115 -0.20581,0.20582 0.20307,0.68723 0.58369,0.68723 0.19676,0 0.6818,0.38695 1.07787,0.85989 0.74171,0.88568 1.85601,1.39513 2.11939,0.96897 0.082,-0.13275 0.49559,-0.24136 0.919,-0.24136 0.57559,0 0.73141,-0.10014 0.61754,-0.39688 -0.16165,-0.42124 0.30192,-0.55922 0.54692,-0.16279 0.0796,0.12874 0.50966,0.28764 0.95576,0.35312 0.60863,0.0893 0.87928,-0.008 1.08423,-0.39131 0.17493,-0.32685 0.45525,-0.46272 0.77964,-0.37789 0.27859,0.0729 0.50652,0.0116 0.50652,-0.13604 0,-0.39508 1.39504,0.004 1.78145,0.50925 0.41632,0.54467 -0.0162,1.12864 -0.70299,0.94905 -0.69048,-0.18057 -0.90374,0.32001 -0.49746,1.16768 0.28721,0.59924 0.52688,0.72751 1.40402,0.75139 0.58173,0.0158 1.77206,0.24194 2.64518,0.50245 0.87313,0.2605 2.06375,0.55575 2.64584,0.65612 1.29817,0.22385 2.31724,0.74923 2.10846,1.08704 -0.20419,0.33038 -1.71853,0.30823 -2.30557,-0.0337 z m -25.406837,-4.37274 c -0.0879,-0.0879 -0.31612,-0.0973 -0.50712,-0.0209 -0.21107,0.0845 -0.14837,0.14716 0.15985,0.15985 0.27892,0.0115 0.43519,-0.051 0.34727,-0.13896 z m 4.96645,-1.42765 c 0.0899,-0.14552 0.0374,-0.26458 -0.11668,-0.26458 -0.15411,0 -0.2802,0.11906 -0.2802,0.26458 0,0.14552 0.0525,0.26458 0.11668,0.26458 0.0642,0 0.19026,-0.11906 0.2802,-0.26458 z m 3.677937,-2.07423 c 0.0755,-0.12219 -0.096,-0.65754 -0.38126,-1.18967 -0.60722,-1.13294 -0.67625,-2.44139 -0.14469,-2.74222 0.42745,-0.24191 0.26892,-1.6668 -0.18544,-1.6668 -0.15348,0 -0.49752,-0.1977 -0.76453,-0.43935 -0.59334,-0.53696 -0.973397,-0.24882 -0.55516,0.4209 0.36777,0.58889 0.14896,1.60595 -0.34549,1.60595 -0.196187,0 -0.484147,-0.23812 -0.639907,-0.52916 -0.15576,-0.29104 -0.45761,-0.52917 -0.67077,-0.52917 -0.67463,0 -0.41932,0.93534 0.42587,1.56022 0.49058,0.3627 0.7553,0.75289 0.66696,0.9831 -0.0806,0.20993 0.0986,0.58677 0.398027,0.83742 0.29947,0.25065 0.71677,0.78314 0.92733,1.18332 0.37248,0.70794 0.99154,0.9545 1.26906,0.50546 z m -2.751897,-0.85913 c 0,-0.31286 -1.12388,-0.57536 -1.89132,-0.44175 l -0.62222,0.10833 0.58152,0.24433 c 0.77418,0.32527 1.93202,0.37865 1.93202,0.0891 z m -2.11667,-1.42547 c 0,-0.30819 -1.56801,-0.91384 -1.72177,-0.66504 -0.0904,0.14621 0.11123,0.37636 0.448,0.51142 0.68227,0.27363 1.27377,0.34497 1.27377,0.15362 z m 19.314587,-1.3333 c 0,-0.0747 -0.10626,-0.34263 -0.23612,-0.59531 -0.12986,-0.25269 -0.35954,-0.77392 -0.5104,-1.1583 -0.15085,-0.38437 -0.65924,-0.8909 -1.12975,-1.12562 -1.13083,-0.56414 -1.2779,-0.35594 -0.27325,0.38683 0.45835,0.33887 0.87774,0.94455 0.97795,1.41236 0.0965,0.45047 0.22802,0.90834 0.29225,1.01748 0.13053,0.22178 0.87932,0.27505 0.87932,0.0626 z m -36.777081,-0.39329 c 0,-0.34697 1.243048,-0.34329 1.457878,0.004 0.20991,0.33964 0.65879,0.0782 0.65879,-0.38373 0,-0.40951 -1.262908,-0.71426 -2.077328,-0.50129 -0.56329,0.14731 -0.82812,1.14529 -0.30392,1.14529 0.14552,0 0.26458,-0.11906 0.26458,-0.26459 z m 31.808541,-0.2275 c -0.0405,-0.19098 0.16781,-0.4104 0.46302,-0.4876 0.75556,-0.19758 0.70133,-0.89975 -0.0585,-0.75811 -0.32742,0.061 -0.69163,0.11982 -0.80936,0.13064 -0.11773,0.0108 -0.14047,0.13872 -0.0505,0.28424 0.239,0.38671 -0.30955,0.32333 -1.20377,-0.13909 -0.97425,-0.5038 -0.99523,-0.24618 -0.0595,0.73051 0.72795,0.75981 1.86279,0.91789 1.7187,0.23941 z m -6.67313,-0.0353 c 0,-0.51938 -0.63123,-1.5893 -0.93765,-1.5893 -0.17795,0 -0.38582,-0.23812 -0.46193,-0.52917 -0.0798,-0.30522 -0.3609,-0.52916 -0.66418,-0.52916 -0.48537,0 -0.50465,0.0865 -0.25062,1.12448 0.15135,0.61846 0.3672,1.24354 0.47965,1.38906 0.2619,0.33891 1.83473,0.45386 1.83473,0.13409 z m -8.202077,-0.79555 c 0,-0.14552 -0.12609,-0.26458 -0.2802,-0.26458 -0.15411,0 -0.20662,0.11906 -0.11668,0.26458 0.0899,0.14552 0.21603,0.26458 0.2802,0.26458 0.0642,0 0.11668,-0.11906 0.11668,-0.26458 z m -14.410016,-1.25677 c -0.0985,-0.25466 -0.2452,-0.79044 -0.32596,-1.19062 -0.1543,-0.7646 -0.60986,-1.01165 -0.60986,-0.33073 0,0.46882 -0.36137,0.50529 -1.098378,0.11085 -0.29394,-0.15731 -0.59734,-0.22311 -0.67423,-0.14622 -0.27325,0.27324 1.03154,1.62559 1.727048,1.79 1.12424,0.26576 1.17022,0.25483 0.98138,-0.23328 z m 13.450896,-0.0126 c 0.23251,-0.37621 -0.22619,-0.83125 -0.60312,-0.5983 -0.1967,0.12157 -0.27583,0.35341 -0.17584,0.5152 0.21247,0.34378 0.59278,0.38435 0.77896,0.0831 z m 10.219527,-0.0535 c 0,-0.14552 -0.0525,-0.26458 -0.11667,-0.26458 -0.0642,0 -0.19027,0.11906 -0.2802,0.26458 -0.0899,0.14553 -0.0374,0.26459 0.11667,0.26459 0.15411,0 0.2802,-0.11906 0.2802,-0.26459 z m -36.778234,-1.32074 c 0.277766,-0.51901 -0.391419,-1.32509 -1.100052,-1.32509 -0.218949,0 -0.487316,-0.0893 -0.596371,-0.19844 -0.109055,-0.10914 -0.515852,-0.21229 -0.903993,-0.22922 -0.388142,-0.0169 -0.919206,-0.12095 -1.180144,-0.23113 -0.542941,-0.22926 -0.935822,0.0251 -0.566262,0.36665 0.135819,0.12552 0.723194,0.37971 1.305278,0.56488 1.47013,0.46766 2.244881,1.01752 2.071241,1.47002 -0.209651,0.54634 0.653143,0.17495 0.970303,-0.41767 z m 27.485697,-0.0128 c -0.28912,-0.16324 -0.39813,-0.5073 -0.33434,-1.05524 0.0569,-0.48826 -0.01,-0.7486 -0.16631,-0.65173 -0.14353,0.0887 -0.26097,0.33285 -0.26097,0.54255 0,0.43872 -0.23319,0.47668 -0.78488,0.12776 -0.24658,-0.15596 -0.5133,-0.14141 -0.73177,0.0399 -0.27071,0.22468 -0.19589,0.36203 0.3521,0.64633 0.38273,0.19856 0.84811,0.36102 1.03419,0.36102 0.18608,0 0.4145,0.1985 0.5076,0.44112 0.13374,0.34851 0.23688,0.37282 0.49133,0.11581 0.2533,-0.25586 0.23046,-0.37702 -0.10695,-0.56752 z m -32.248776,-0.18785 c -9.59e-4,-0.10914 -0.2383,-0.55562 -0.527424,-0.99219 -0.289124,-0.43656 -0.526464,-0.98961 -0.527423,-1.229 -9.59e-4,-0.23939 -0.297343,-0.71564 -0.658631,-1.05833 -0.423277,-0.4015 -0.658512,-0.91737 -0.661458,-1.45058 -0.0051,-0.92404 0.35036,-1.32655 1.291324,-1.46226 0.847836,-0.12227 1.367877,-0.93683 0.820772,-1.2856 -0.218282,-0.13915 -0.694532,-0.25859 -1.058334,-0.26541 l -0.661458,-0.0124 0.742358,-0.6531 c 0.858995,-0.75571 1.382134,-0.82992 1.612815,-0.22877 0.08956,0.23338 0.331714,0.35952 0.538129,0.28031 0.206416,-0.0792 0.516559,0.0262 0.689208,0.23422 0.172648,0.20803 0.422459,0.31114 0.555134,0.22914 0.132675,-0.082 -0.131944,-0.62025 -0.588043,-1.19612 -0.705223,-0.89042 -0.890751,-0.99631 -1.240275,-0.7079 -0.326474,0.26939 -0.433899,0.27113 -0.522318,0.008 -0.06122,-0.1819 -0.353403,-0.33073 -0.64929,-0.33073 -0.408881,0 -0.504553,-0.12782 -0.398691,-0.53263 0.09592,-0.3668 -0.03863,-0.62626 -0.432162,-0.83336 -0.314297,-0.1654 -0.648729,-0.41932 -0.743183,-0.56426 -0.270732,-0.41544 -1.052324,0.0199 -0.965156,0.53764 0.06481,0.38494 -0.09551,0.45632 -0.916377,0.40801 -1.204514,-0.0709 -2.312357,0.31222 -2.312357,0.79964 0,0.19651 0.297656,0.63693 0.661458,0.97871 0.692675,0.65073 0.839815,1.18145 0.402489,1.45174 -0.223215,0.13795 -1.546486,0.33598 -2.573275,0.3851 -0.556859,0.0266 -1.709575,1.37128 -1.544446,1.8016 0.133934,0.34903 0.09049,0.35527 -0.313607,0.045 -0.305389,-0.23447 -0.270555,-0.13212 0.09982,0.2933 0.312894,0.3594 0.617622,0.89158 0.677172,1.18262 0.05955,0.29104 0.25003,0.4994 0.423288,0.46302 0.173259,-0.0364 0.315016,0.0402 0.315016,0.17013 0,0.12996 0.184777,0.30719 0.410616,0.39385 0.23546,0.0904 0.341663,0.046 0.248969,-0.10399 -0.08891,-0.14385 0.09465,-0.26155 0.407903,-0.26155 0.318454,0 0.624624,0.20413 0.694468,0.46302 0.0687,0.25466 0.521939,0.76068 1.007188,1.12448 0.598209,0.44849 0.78428,0.73093 0.577918,0.87723 -0.173312,0.12287 -0.05762,0.14671 0.268692,0.0554 0.315175,-0.0882 0.649624,-0.0365 0.743219,0.11496 0.09359,0.15144 0.447133,0.27535 0.78564,0.27535 0.338506,0 1.016089,0.17393 1.505739,0.38652 0.974639,0.42314 1.817306,0.5201 1.814571,0.20879 z m -1.85034,-6.82864 c 0,-0.22687 0.119062,-0.3389 0.264583,-0.24896 0.145521,0.0899 0.264583,0.27555 0.264583,0.41249 0,0.13693 -0.119062,0.24896 -0.264583,0.24896 -0.145521,0 -0.264583,-0.18562 -0.264583,-0.41249 z m 0.264583,-2.49792 c 0,-0.14552 0.126089,-0.26459 0.280198,-0.26459 0.154109,0 0.206614,0.11907 0.116677,0.26459 -0.08994,0.14552 -0.216026,0.26458 -0.280198,0.26458 -0.06417,0 -0.116677,-0.11906 -0.116677,-0.26458 z m 18.785417,8.61457 c 0,-0.0642 -0.11907,-0.19026 -0.26459,-0.2802 -0.14552,-0.0899 -0.26458,-0.0374 -0.26458,0.11668 0,0.15411 0.11906,0.2802 0.26458,0.2802 0.14552,0 0.26459,-0.0525 0.26459,-0.11668 z m 25.039013,-0.54315 c 0.95806,-0.49966 3.44476,-0.51185 4.38469,-0.0215 0.67466,0.35196 0.69853,0.34509 0.40937,-0.11793 -0.36407,-0.58297 -1.01669,-0.93126 -2.42948,-1.29657 -1.34207,-0.34703 -3.32652,0.42086 -3.32652,1.28719 0,0.64973 0.001,0.6499 0.96194,0.1488 z m -12.868187,-0.38068 c 0,-0.13571 0.23813,-0.32233 0.52917,-0.4147 0.98213,-0.31172 0.58134,-0.73813 -0.55102,-0.58625 -1.30938,0.17562 -1.45988,0.29991 -0.99703,0.82336 0.39837,0.45053 1.01888,0.55869 1.01888,0.17759 z m -12.435416,-0.62032 c 0,-0.18585 -0.35718,-0.72898 -0.793748,-1.20695 -0.43656,-0.47798 -0.79375,-1.07907 -0.79375,-1.33576 0,-0.62342 -1.00784,-1.53268 -1.961337,-1.76948 -0.70287,-0.17456 -1.25605,-0.52347 -2.11542,-1.33426 -0.283851,-0.26781 -0.601214,-0.39038 -2.074801,-0.80134 -0.298956,-0.0834 -0.463021,0.0178 -0.463021,0.28558 0,0.22809 0.121322,0.4147 0.269606,0.4147 0.148283,0 1.027735,0.78469 1.954338,1.74376 0.926602,0.95907 1.728014,1.61572 1.780915,1.45923 0.140696,-0.4162 1.9971,0.20522 2.20345,0.73759 0.38708,0.99867 0.8188,1.61567 1.13047,1.61567 0.18378,0 0.334138,0.11907 0.334138,0.26459 0,0.14552 0.11906,0.26458 0.26458,0.26458 0.14552,0 0.26458,-0.15206 0.26458,-0.33791 z m 14.745006,0.17806 c -0.0879,-0.0879 -0.31612,-0.0973 -0.50712,-0.0209 -0.21106,0.0845 -0.14837,0.14716 0.15986,0.15985 0.27891,0.0115 0.43518,-0.051 0.34726,-0.13896 z m -17.836254,-1.18221 c -0.756923,-0.77186 -1.142079,-0.95689 -1.142079,-0.54866 0,0.43086 1.326649,1.65506 1.606269,1.48224 0.17268,-0.10672 -0.006,-0.46664 -0.46419,-0.93358 z M 65.756799,170.346 c -0.02607,-0.61473 -1.675501,-1.78881 -2.123805,-1.51175 -0.457077,0.28249 0.785782,1.71018 1.488778,1.71018 0.353893,0 0.639655,-0.0893 0.635027,-0.19843 z m 49.485491,13.69218 c -0.36381,-0.28457 -0.87833,-0.52004 -1.14338,-0.52328 -0.26506,-0.003 -0.65737,-0.18133 -0.8718,-0.39577 -0.21444,-0.21443 -0.86824,-0.51869 -1.45289,-0.67612 -0.75195,-0.20247 -1.0388,-0.41105 -0.98028,-0.71277 0.13466,-0.69434 1.31582,-0.59617 2.66638,0.22162 0.69341,0.41988 1.40011,0.76341 1.57045,0.76341 0.51284,0 1.50645,1.08797 1.35472,1.48337 -0.18533,0.48297 -0.35022,0.45983 -1.1432,-0.16046 z m -8.51935,-2.63047 c -0.37333,-0.29367 -0.99046,-0.65244 -1.37139,-0.79727 -0.68244,-0.25946 -0.92359,-0.89618 -0.45022,-1.18874 0.33092,-0.20452 1.36426,0.22503 2.00658,0.83412 0.29104,0.27599 0.74743,0.58514 1.01419,0.68701 0.54922,0.20973 0.46649,0.80726 -0.12774,0.92261 -0.21594,0.0419 -0.69808,-0.16407 -1.07142,-0.45773 z m -32.440976,-0.47254 c -0.523044,-0.0644 -0.833424,-0.23392 -0.770388,-0.42068 0.128404,-0.38041 1.783082,-0.46107 2.238745,-0.10913 0.376114,0.2905 0.191588,0.74307 -0.277285,0.68006 -0.173313,-0.0233 -0.709295,-0.0909 -1.191072,-0.15025 z M 56.85474,175.38731 c -0.316854,-0.0617 -0.718386,-0.28359 -0.892292,-0.49313 -0.173907,-0.20955 -0.487237,-0.381 -0.696288,-0.381 -0.209051,0 -0.306508,-0.11906 -0.216571,-0.26458 0.24621,-0.39838 1.610931,-0.31768 1.971322,0.11657 0.173979,0.20963 0.47417,0.32057 0.667093,0.24654 0.49164,-0.18866 0.815938,0.4396 0.372044,0.72075 -0.200544,0.12703 -0.424157,0.21656 -0.496918,0.19897 -0.07276,-0.0176 -0.391536,-0.0824 -0.70839,-0.14412 z m -5.307852,-6.30883 c -0.549642,-0.52764 -0.557489,-0.9153 -0.01853,-0.9153 0.210434,0 0.848392,1.34245 0.68436,1.44009 -0.04045,0.0241 -0.340076,-0.21207 -0.665832,-0.52479 z m -2.363978,-1.79761 c -1.936657,-1.5996 -3.987863,-2.22329 -8.936629,-2.71728 -1.259525,-0.12573 -1.633086,-0.43241 -1.082905,-0.88902 0.320593,-0.26607 0.408088,-0.26806 0.408088,-0.009 0,0.24329 0.09154,0.2534 0.350254,0.0387 0.248313,-0.20608 0.432475,-0.20846 0.632756,-0.008 0.155376,0.15537 1.039559,0.33486 1.96485,0.39886 0.925292,0.064 2.273003,0.15819 2.994915,0.20932 0.721911,0.0511 1.356911,0.22599 1.411111,0.38859 0.0542,0.1626 0.267216,0.29563 0.473371,0.29563 0.206154,0 0.374826,0.092 0.374826,0.20442 0,0.11243 0.430654,0.43634 0.957009,0.7198 0.526356,0.28346 1.330027,0.84442 1.785938,1.24657 l 0.828928,0.73118 -0.707304,0.004 c -0.389017,0.002 -1.043861,-0.27375 -1.455208,-0.6135 z m 76.76816,-1.05656 c -1.01488,-0.62982 -2.84907,-1.67677 -4.07597,-2.32655 -1.22689,-0.64978 -2.27861,-1.3251 -2.33715,-1.50071 -0.17264,-0.51791 1.31869,-0.36555 2.05434,0.20988 0.3638,0.28457 0.85136,0.52005 1.08347,0.52329 0.23211,0.003 0.63751,0.24401 0.9009,0.53505 0.26339,0.29104 0.69856,0.52916 0.96705,0.52916 0.26849,0 0.48816,0.11104 0.48816,0.24676 0,0.13571 0.26789,0.32883 0.59531,0.42915 0.84117,0.25772 2.8808,1.96135 2.69946,2.25476 -0.23702,0.38351 -0.41452,0.31621 -2.37557,-0.90079 z m -29.295757,-1.68309 c -0.25466,-0.0666 -0.46302,-0.24522 -0.46302,-0.39704 0,-0.15715 0.25641,-0.20733 0.59531,-0.11651 0.32742,0.0878 0.77391,0.16299 0.99219,0.1672 0.35277,0.007 0.35277,0.0362 0,0.26415 -0.21828,0.14106 -0.45641,0.24449 -0.52917,0.22984 -0.0728,-0.0147 -0.34065,-0.0811 -0.59531,-0.14764 z m -59.332807,-0.87595 c -0.206953,-0.33486 0.143305,-0.33486 0.661458,0 0.342024,0.22103 0.33504,0.25704 -0.05053,0.26053 -0.246073,0.002 -0.52099,-0.11501 -0.610927,-0.26053 z m 56.091657,0.0908 c -1.33655,-0.28389 -4.304116,-1.2308 -4.961476,-1.58315 -0.40048,-0.21466 -0.83054,-0.32701 -0.95568,-0.24967 -0.18386,0.11363 -2.2519,-0.52169 -2.65335,-0.81512 -0.0571,-0.0418 0.0366,-0.24509 0.20816,-0.45186 0.4175,-0.50305 1.35089,-0.2308 1.35089,0.39402 0,0.53069 0.68337,0.69718 0.84698,0.20635 0.0668,-0.20041 0.40555,-0.16317 1.08038,0.11879 0.54068,0.22592 0.98306,0.35311 0.98306,0.28265 0,-0.0704 0.26789,0.0182 0.59531,0.19702 0.32742,0.17881 0.77391,0.34122 0.992186,0.36092 0.21828,0.0197 0.66477,0.0562 0.99219,0.0811 0.33266,0.0253 0.59531,0.22036 0.59531,0.44214 0,0.44574 0.43635,0.54304 0.57465,0.12813 0.10429,-0.31288 2.33577,0.48774 2.33577,0.83804 0,0.22828 -1.02495,0.25446 -1.98438,0.0507 z m -58.009886,-2.81586 c 0.400182,-0.15813 0.727604,-0.38359 0.727604,-0.50102 0,-0.11743 0.164015,-0.21351 0.364478,-0.21351 0.200463,0 0.512698,-0.17859 0.693855,-0.39687 0.433167,-0.52193 1.058333,-0.50791 1.058333,0.0237 0,0.76799 -1.105253,1.41526 -2.381249,1.39453 -1.133834,-0.0184 -1.155919,-0.0331 -0.463021,-0.30686 z m 79.838013,0.10511 c -0.21829,-0.12244 -0.8225,-0.2989 -1.34271,-0.39213 -0.52021,-0.0932 -1.21273,-0.41816 -1.53894,-0.72207 -0.34495,-0.32138 -0.97508,-0.56339 -1.50609,-0.57844 -0.51199,-0.0145 -0.87166,-0.14805 -0.8189,-0.30404 0.13848,-0.40943 2.65294,-0.26806 3.38546,0.19034 0.3468,0.21702 0.98774,0.47794 1.4243,0.57982 0.70844,0.16532 1.71979,0.94267 1.71979,1.32186 0,0.21867 -0.87559,0.15556 -1.32291,-0.0953 z m -31.683853,-0.21261 c -0.32742,-0.0631 -0.59555,-0.25521 -0.59584,-0.42699 -2.9e-4,-0.17178 -0.44086,-0.3439 -0.97905,-0.38248 -0.53819,-0.0386 -1.043958,-0.15765 -1.123948,-0.26459 -0.08,-0.10693 -0.26449,-0.19754 -0.41001,-0.20135 -1.03867,-0.0272 -3.326121,-0.47094 -3.448526,-0.669 -0.08227,-0.13311 -0.411565,-0.2386 -0.731775,-0.23443 -0.847788,0.011 -3.669694,-0.51214 -4.286367,-0.79469 -0.291041,-0.13335 -1.005416,-0.37886 -1.5875,-0.54558 -0.582083,-0.16671 -1.236927,-0.36961 -1.455208,-0.45089 -0.218281,-0.0813 -1.11125,-0.19043 -1.984375,-0.24256 -0.873125,-0.0521 -2.301875,-0.21085 -3.175,-0.35272 -0.873125,-0.14187 -2.118702,-0.33605 -2.76795,-0.43152 -0.649248,-0.0955 -1.363623,-0.2732 -1.5875,-0.39498 -0.844553,-0.45939 -4.976212,-1.36409 -6.748358,-1.47767 -1.013865,-0.065 -2.015493,-0.2601 -2.225839,-0.43359 -0.297568,-0.24544 -0.407274,-0.24168 -0.494311,0.0169 -0.06152,0.18281 -0.227558,0.26088 -0.368964,0.17348 -0.141407,-0.0874 -0.528374,-0.18867 -0.859928,-0.22507 -2.121164,-0.23284 -5.315765,-1.43161 -4.906298,-1.84108 0.06473,-0.0647 1.209328,0.10622 2.543558,0.37988 1.334231,0.27367 3.119654,0.56948 3.967607,0.65737 0.847954,0.0879 1.958452,0.21254 2.467775,0.27701 0.509323,0.0645 1.402292,0.17782 1.984375,0.25189 0.582084,0.0741 1.713177,0.32087 2.513542,0.54845 1.850382,0.52616 3.424737,0.91706 4.101041,1.01826 0.291042,0.0435 0.707761,0.14736 0.926042,0.23069 0.666404,0.25439 4.129976,0.71029 5.396308,0.71029 0.656646,0 2.300714,0.36441 3.653485,0.80981 1.35277,0.4454 2.783413,0.85601 3.179206,0.91246 0.395793,0.0565 0.936569,0.21876 1.201723,0.36066 0.265155,0.14191 1.489137,0.39544 2.719957,0.56341 1.2826,0.17503 2.4362,0.48412 2.702508,0.72408 0.25555,0.23028 0.54015,0.34319 0.63243,0.2509 0.0923,-0.0923 0.53804,0.0246 0.99057,0.2597 0.45252,0.23511 0.99428,0.50837 1.2039,0.60724 0.41942,0.19781 0.72058,0.8249 0.36852,0.76737 -0.12127,-0.0198 -0.48838,-0.0876 -0.8158,-0.15069 z m -51.275648,-1.04254 c -0.356854,-0.38505 -0.662535,-0.83153 -0.679293,-0.99218 -0.06457,-0.61908 0.07908,-1.2512 0.442801,-1.94844 0.207986,-0.3987 0.378891,-0.86944 0.379787,-1.0461 8.97e-4,-0.17665 0.445988,-0.62314 0.989091,-0.99219 1.274819,-0.86626 3.123694,-0.94359 3.378331,-0.1413 0.121298,0.38218 0.328892,0.49197 0.745433,0.39424 0.750178,-0.176 1.359979,0.23067 1.153342,0.76916 -0.238803,0.62231 -1.650956,0.54591 -2.11341,-0.11433 -0.316077,-0.45127 -0.552893,-0.50975 -1.470211,-0.36306 -1.233148,0.19719 -1.411772,0.49912 -0.439625,0.74311 0.656808,0.16485 1.381689,1.12096 1.079199,1.42345 -0.08907,0.0891 -0.81297,0.16816 -1.608678,0.17577 -0.795707,0.008 -1.446857,0.13467 -1.447,0.28234 -1.42e-4,0.14768 0.231093,0.70016 0.513855,1.22773 0.7623,1.42229 0.189628,1.78302 -0.923622,0.5818 z M 139.6501,159.40149 c -0.47294,-0.30288 -0.86531,-0.68782 -0.87192,-0.85543 -0.007,-0.16761 -1.32483,-0.94232 -2.92937,-1.72157 -2.61764,-1.27126 -3.4735,-1.91377 -3.07718,-2.3101 0.18243,-0.18243 2.11947,0.73682 2.45681,1.16591 0.15108,0.19218 0.3892,0.3269 0.52916,0.2994 0.55727,-0.10952 1.16024,0.0292 1.49235,0.34338 0.19229,0.1819 0.64728,0.48757 1.01109,0.67926 1.07717,0.56757 2.3,1.72479 2.49744,2.36345 0.22724,0.73502 -0.005,0.74249 -1.10838,0.0357 z M 29.457919,158.17517 c -0.552879,-0.63056 -1.263538,-2.06806 -1.263538,-2.55584 0,-0.21962 0.306979,-0.68395 0.682176,-1.03185 0.602015,-0.55822 0.636202,-0.67853 0.290932,-1.0238 -0.345269,-0.34527 -0.280424,-0.5087 0.55184,-1.39086 0.906113,-0.96043 0.993585,-0.99292 2.231271,-0.82874 1.599093,0.21213 1.857356,0.071 1.515506,-0.82813 -0.372938,-0.9809 0.11575,-1.42818 0.798679,-0.73101 0.423492,0.43233 0.472741,0.7082 0.295252,1.65385 -0.117162,0.62423 -0.291429,1.21337 -0.38726,1.3092 -0.09583,0.0958 -0.616971,0.0597 -1.158088,-0.0802 -0.541117,-0.13995 -1.400568,-0.19237 -1.909891,-0.11648 -0.725847,0.10816 -0.90735,0.24584 -0.839577,0.63688 0.04755,0.2744 -0.07151,0.60071 -0.264584,0.72514 -0.212368,0.13686 -0.02639,0.16407 0.470772,0.0689 0.608841,-0.1166 0.86365,-0.0484 0.983233,0.26326 0.125291,0.3265 -0.07045,0.45771 -0.874668,0.58631 -0.646226,0.10334 -1.073283,0.32798 -1.134949,0.59701 -0.144885,0.63209 0.474159,1.74228 1.257805,2.25575 0.375877,0.24628 0.613061,0.56162 0.527076,0.70074 -0.256503,0.41503 -1.336124,0.28705 -1.771987,-0.21006 z m 77.714571,-0.25165 c -0.87312,-0.22656 -1.62718,-0.51563 -1.67569,-0.64238 -0.0485,-0.12675 -0.30186,-0.23045 -0.563,-0.23045 -0.26114,0 -0.93583,-0.20016 -1.49931,-0.44481 -0.56347,-0.24465 -1.38168,-0.47464 -1.81825,-0.51109 -0.43656,-0.0364 -1.32953,-0.30991 -1.984367,-0.6077 -0.65484,-0.29779 -1.33421,-0.54406 -1.50971,-0.54725 -0.1755,-0.003 -0.94938,-0.37745 -1.71974,-0.83167 -0.77036,-0.45422 -1.69833,-0.84049 -2.06216,-0.85838 -0.36383,-0.0179 -0.78058,-0.17811 -0.9261,-0.35604 -0.14552,-0.17793 -0.6813,-0.38159 -1.19062,-0.45259 -1.14494,-0.15958 -3.463676,-0.80961 -4.132366,-1.15845 -0.27381,-0.14285 -1.39081,-0.46891 -2.48222,-0.72459 -1.0914,-0.25567 -2.1332,-0.58089 -2.3151,-0.72271 -0.1819,-0.14181 -0.33073,-0.19132 -0.33073,-0.11001 0,0.19242 -3.741608,-0.8438 -4.095178,-1.13414 -0.14874,-0.12214 -1.044351,-0.36227 -1.990236,-0.53362 -0.945885,-0.17134 -1.957917,-0.40285 -2.248958,-0.51447 -1.065725,-0.40869 -2.394619,-0.85995 -2.910417,-0.9883 -0.291042,-0.0724 -0.767292,-0.23226 -1.058333,-0.35518 -0.672648,-0.28411 -2.608481,-0.68478 -5.225521,-1.08155 -1.4124,-0.21413 -2.050521,-0.42406 -2.050521,-0.67458 0,-0.26749 0.262472,-0.32858 0.992188,-0.23095 0.545703,0.073 1.5875,0.18575 2.315104,0.25054 0.727604,0.0648 1.561042,0.18399 1.852083,0.26491 0.291042,0.0809 1.243542,0.33935 2.116667,0.57429 0.873125,0.23494 1.706562,0.51805 1.852083,0.62915 0.145521,0.11109 0.919427,0.35261 1.719792,0.53672 0.800364,0.1841 1.79717,0.50793 2.215124,0.71961 0.417954,0.21168 1.370454,0.44805 2.116665,0.52527 0.74621,0.0772 1.47581,0.23198 1.62134,0.34392 0.14552,0.11193 0.978948,0.35901 1.852078,0.54906 0.87312,0.19006 2.29468,0.62003 3.15902,0.9555 0.86434,0.33547 1.84704,0.60995 2.18377,0.60995 0.33674,0 1.05654,0.23812 1.59956,0.52916 0.54302,0.29105 1.12517,0.52917 1.29365,0.52917 0.16849,0 0.3741,0.17659 0.45693,0.39242 0.0828,0.21582 0.311346,0.33072 0.507836,0.25532 0.38056,-0.14604 5.39249,1.42714 7.26666,2.28091 0.61687,0.28101 1.28543,0.51093 1.48567,0.51093 0.200237,0 0.667647,0.23879 1.038677,0.53064 0.48647,0.38267 0.70615,0.438 0.78773,0.19844 0.0827,-0.24295 0.42115,-0.16919 1.25957,0.27453 0.63053,0.33371 1.66003,0.67713 2.28778,0.76318 0.62774,0.086 1.27716,0.32009 1.44316,0.52011 0.16601,0.20002 0.76261,0.43736 1.3258,0.52741 0.61187,0.0978 1.02397,0.30986 1.02397,0.5268 0,0.43294 0.0235,0.43397 -1.98438,-0.087 z m 32.06563,-1.85187 c -0.27152,-0.0704 -0.44206,-0.31435 -0.39468,-0.56462 0.11426,-0.60337 2.06343,-0.79363 2.06343,-0.20141 0,0.33619 -0.82669,1.02365 -1.10709,0.92063 -0.0459,-0.0169 -0.29869,-0.0865 -0.56166,-0.1546 z m -99.931239,-1.66679 c 0,-0.14552 -0.238125,-0.26458 -0.529167,-0.26458 -0.565029,0 -1.279719,-0.60722 -1.989274,-1.69014 -0.418294,-0.6384 -0.40764,-0.70588 0.246892,-1.56402 0.376227,-0.49326 0.684049,-1.0405 0.684049,-1.21609 0,-0.3662 -1.572648,-1.086 -2.372752,-1.086 -0.631735,0 -0.695344,-0.33351 -0.149941,-0.78616 0.252843,-0.20984 0.75908,-0.25904 1.455209,-0.14143 0.587116,0.0992 1.067484,0.0747 1.067484,-0.0543 0,-0.12907 -0.669941,-0.58709 -1.488758,-1.01781 -2.63615,-1.3867 -1.234551,-1.82176 1.621049,-0.50319 0.873125,0.40317 1.740058,0.70846 1.926518,0.67843 0.186459,-0.03 0.896616,0.42202 1.578127,1.00456 0.681511,0.58254 1.290019,1.00825 1.352241,0.94603 0.265667,-0.26567 -2.133058,-2.30042 -2.991264,-2.53738 -0.516769,-0.14268 -0.93958,-0.41167 -0.93958,-0.59775 0,-0.18607 -0.294549,-0.61503 -0.654553,-0.95324 -0.575583,-0.54073 -0.674763,-0.56225 -0.822058,-0.17841 -0.198133,0.51633 -0.904639,0.58861 -0.904639,0.0925 0,-0.18917 0.148828,-0.5043 0.330729,-0.70027 0.257114,-0.27701 0.257876,-0.31523 0.0034,-0.17171 -0.180018,0.10153 -0.584086,-0.0546 -0.89793,-0.34702 -0.429533,-0.40017 -0.689626,-0.46793 -1.051906,-0.27404 -0.264704,0.14166 -0.420764,0.41528 -0.3468,0.60802 0.279318,0.72789 -0.508181,0.91641 -1.693219,0.40533 -1.325059,-0.57146 -1.245585,-1.10466 0.146061,-0.97995 0.910681,0.0816 0.936012,0.0584 0.965656,-0.88335 0.01674,-0.53193 -0.05101,-0.91671 -0.150555,-0.85506 -0.09955,0.0617 -0.665645,-0.0818 -1.257992,-0.31883 -1.193114,-0.47739 -2.578827,-0.348 -3.626776,0.33864 -0.454032,0.29749 -0.622777,0.65446 -0.622777,1.31744 0,0.77395 0.119038,0.95087 0.799335,1.18802 0.439634,0.15326 0.920073,0.50425 1.067642,0.77999 0.231979,0.43345 0.168529,0.50691 -0.468605,0.54248 -0.405303,0.0226 -0.975039,0.0266 -1.26608,0.009 -0.858867,-0.0526 -1.483661,1.04503 -1.185866,2.08339 0.24386,0.85028 2.095117,2.89382 2.621542,2.89382 0.146024,0 0.399233,0.24989 0.562688,0.5553 0.280709,0.52451 0.249435,0.54482 -0.56388,0.36619 -0.473589,-0.10402 -1.028251,-0.32414 -1.232582,-0.48916 -1.003706,-0.81061 -2.188255,-2.17434 -2.204507,-2.53798 -0.01003,-0.22434 -0.06346,-0.75429 -0.118737,-1.17766 -0.06347,-0.4861 0.136888,-1.17485 0.543695,-1.86901 0.393772,-0.67192 0.549631,-1.19553 0.400928,-1.3469 -0.26531,-0.27009 -0.0393,-1.59296 0.382969,-2.24155 0.145521,-0.22352 0.61038,-0.67182 1.033021,-0.99624 0.701043,-0.53812 0.808509,-0.55358 1.225324,-0.17637 0.384466,0.34793 0.514294,0.35667 0.819062,0.0551 0.199197,-0.19711 0.659832,-0.34876 1.023634,-0.33699 1.1139,0.036 3.193384,0.76992 3.072705,1.0844 -0.06233,0.16243 -0.01024,0.46213 0.115757,0.666 0.182447,0.29521 0.29597,0.30379 0.557604,0.0422 0.439815,-0.43982 0.751851,-0.4149 0.751851,0.06 0,0.22044 0.156952,0.32834 0.362732,0.24938 0.199503,-0.0766 0.437042,0.0545 0.527864,0.29113 0.111044,0.28937 0.338335,0.37535 0.693936,0.26248 0.420282,-0.13339 0.493345,-0.0754 0.356017,0.28245 -0.121716,0.31718 -0.06257,0.41046 0.200102,0.31556 0.20509,-0.0741 0.659846,0.11802 1.01057,0.42692 0.577596,0.50871 0.620793,0.51485 0.458456,0.0651 -0.09857,-0.27311 -0.04353,-0.66006 0.122321,-0.8599 0.22071,-0.26594 0.221934,-0.36334 0.0046,-0.36334 -0.163339,0 -0.29698,0.12262 -0.29698,0.27248 0,0.32225 -2.153384,-0.78454 -2.460543,-1.26467 -0.116371,-0.1819 -0.562856,-0.33073 -0.992187,-0.33073 -0.429332,0 -0.780603,-0.1228 -0.780603,-0.27288 0,-0.43468 0.820879,-0.63121 1.324011,-0.317 0.299548,0.18707 0.550389,0.19715 0.718657,0.0289 0.240797,-0.24079 2.072539,1.01756 3.691171,2.53574 2.691144,2.52412 2.997411,2.87711 2.997411,3.45474 0,0.34359 -0.124844,0.70187 -0.277431,0.79617 -0.187298,0.11576 -0.169052,0.30205 0.05616,0.57342 0.274058,0.33021 0.248156,0.46442 -0.145144,0.75201 -0.461622,0.33754 -0.461354,0.37948 0.0075,1.17318 0.424344,0.71836 0.436034,0.85486 0.09185,1.07247 -0.58129,0.3675 -0.62211,0.34839 -1.666543,-0.78044 -0.528157,-0.57084 -1.231892,-1.1207 -1.563855,-1.22192 -0.331964,-0.10122 -0.812659,-0.36766 -1.068213,-0.59209 -0.255553,-0.22443 -0.549762,-0.32294 -0.653796,-0.21891 -0.104034,0.10404 -0.01401,0.29811 0.20006,0.43128 0.320943,0.19966 0.330808,0.33636 0.05624,0.77936 -0.280471,0.45254 -0.26797,0.53724 0.07928,0.53724 0.917106,0 3.296395,1.68164 3.296395,2.32983 0,0.66997 -0.617403,0.53306 -2.252231,-0.49943 -0.957826,-0.60492 -1.779284,-1.05587 -1.825463,-1.00211 -0.04618,0.0538 -0.226062,0.37073 -0.39974,0.70437 -0.272997,0.52442 -0.233044,0.67665 0.29489,1.12355 0.335868,0.28432 0.81891,0.46901 1.073426,0.41042 0.254517,-0.0586 0.522526,-0.01 0.595576,0.10837 0.07305,0.1182 0.370825,0.15267 0.661722,0.0766 0.715097,-0.187 0.729538,0.85574 0.01713,1.23701 -0.650274,0.34802 -1.34031,0.35281 -1.34031,0.009 z m 1.984375,-9.26042 c 0.08994,-0.14552 0.04446,-0.26458 -0.101062,-0.26458 -0.145521,0 -0.338168,0.11906 -0.428105,0.26458 -0.08994,0.14553 -0.04446,0.26459 0.101062,0.26459 0.145521,0 0.338168,-0.11906 0.428105,-0.26459 z m -0.396875,-0.95434 c 0,-0.0572 -0.178594,-0.10399 -0.396875,-0.10399 -0.218282,0 -0.396875,0.11533 -0.396875,0.25628 0,0.14095 0.178593,0.18775 0.396875,0.10398 0.218281,-0.0838 0.396875,-0.19908 0.396875,-0.25627 z m 90.487489,9.93456 c 0,-0.15411 0.11906,-0.20661 0.26458,-0.11667 0.14552,0.0899 0.26459,0.21602 0.26459,0.28019 0,0.0642 -0.11907,0.11668 -0.26459,0.11668 -0.14552,0 -0.26458,-0.12609 -0.26458,-0.2802 z m -4.14693,-1.71825 c -0.46181,-0.20228 -0.92001,-0.49782 -1.01824,-0.65675 -0.30217,-0.48894 1.79887,0.0131 2.37969,0.56862 0.51937,0.49674 0.51937,0.49898 0,0.4775 -0.28699,-0.0119 -0.89965,-0.18709 -1.36145,-0.38937 z m -82.492802,-1.42285 c -0.180729,-0.29243 0.236645,-0.60819 0.480963,-0.36387 0.251562,0.25156 0.204679,0.61017 -0.07977,0.61017 -0.136933,0 -0.317469,-0.11083 -0.401191,-0.2463 z m 104.993892,-0.1348 c -1.03175,-0.449 -1.32717,-0.89283 -0.74339,-1.11685 0.27748,-0.10648 0.5391,-0.006 0.69138,0.26645 0.13474,0.24076 0.41765,0.43775 0.6287,0.43775 0.21105,0 0.38373,0.17859 0.38373,0.39688 0,0.21828 -0.0298,0.39221 -0.0661,0.38651 -0.0364,-0.006 -0.43881,-0.17253 -0.89428,-0.37074 z m 23.71459,-2.54247 c -0.65485,-0.44254 -1.59364,-0.97845 -2.08621,-1.1909 -0.49257,-0.21244 -1.69775,-0.98094 -2.67819,-1.70777 -0.98044,-0.72683 -1.91097,-1.32151 -2.06784,-1.32151 -0.15687,0 -0.38043,-0.15049 -0.4968,-0.33442 -0.27743,-0.4385 -2.73274,-1.6705 -3.14539,-1.57827 -0.3266,0.073 -1.74976,-0.65892 -5.53286,-2.8455 -2.4888,-1.4385 -2.93577,-1.68301 -3.89358,-2.12998 -0.39521,-0.18443 -0.66294,-0.42535 -0.59494,-0.53536 0.068,-0.11002 -0.11467,-0.13772 -0.40591,-0.0616 -0.29124,0.0762 -0.52953,0.016 -0.52953,-0.13371 0,-0.1497 -0.47563,-0.35254 -1.05695,-0.45076 -0.58132,-0.0982 -1.12413,-0.28727 -1.20624,-0.42013 -0.0821,-0.13286 -0.32144,-0.24156 -0.53185,-0.24156 -0.21041,0 -0.95395,-0.27565 -1.65232,-0.61255 -0.69837,-0.33691 -1.83195,-0.76996 -2.51906,-0.96234 -0.68711,-0.19238 -1.31279,-0.45251 -1.39039,-0.57807 -0.0776,-0.12556 -0.32016,-0.22829 -0.53902,-0.22829 -0.49258,0 -3.90357,-1.61461 -4.02466,-1.9051 -0.0485,-0.11636 -0.49499,-0.21157 -0.99218,-0.21157 -0.65749,0 -0.904,-0.11705 -0.904,-0.42927 0,-0.32911 -0.0828,-0.36051 -0.35507,-0.13458 -0.19529,0.16207 -0.43372,0.21603 -0.52984,0.11991 -0.0961,-0.0961 -0.62096,-0.21791 -1.16629,-0.27063 -1.29344,-0.12505 -2.7113,-0.79558 -2.7113,-1.28221 0,-0.4812 0.46711,-0.47682 1.32292,0.0124 0.3638,0.20797 1.01019,0.38234 1.43642,0.3875 1.07327,0.013 2.21191,0.40575 5.50154,1.89772 1.5603,0.70766 2.97202,1.28665 3.13716,1.28665 0.16513,0 0.23238,0.17686 0.14943,0.39301 -0.12288,0.32024 -0.0616,0.33731 0.33082,0.0922 0.47411,-0.29608 1.24439,-0.0286 8.36234,2.90346 0.58208,0.23978 1.21612,0.65014 1.40898,0.91191 0.19286,0.26177 0.49052,0.44487 0.66146,0.40687 0.50824,-0.11295 2.07245,0.60728 3.48581,1.60501 0.7276,0.51364 2.03729,1.27946 2.91041,1.70183 0.87313,0.42236 1.7661,0.91924 1.98438,1.10417 0.21828,0.18493 0.57547,0.35438 0.79375,0.37654 0.21828,0.0222 0.70931,0.0762 1.09117,0.12005 0.38186,0.0439 1.20899,0.45826 1.83806,0.92088 0.62907,0.46263 1.2404,0.84114 1.35852,0.84114 0.11811,0 0.70783,0.35719 1.31049,0.79375 0.60265,0.43656 1.25055,0.79375 1.43977,0.79375 0.18921,0 0.43924,0.14883 0.55561,0.33073 0.25142,0.39298 1.41858,1.12106 2.78576,1.73775 1.07954,0.48695 1.47136,1.07521 0.94052,1.41204 -0.48132,0.3054 -0.47868,0.30626 -1.7949,-0.58326 z m -28.09544,-0.30104 c -0.34864,-0.34864 -0.45968,-0.61847 -0.27926,-0.67862 0.45583,-0.15194 1.3872,0.43207 1.3872,0.86983 0,0.55428 -0.43806,0.47868 -1.10794,-0.19121 z m -31.03894,-0.53601 c -0.43656,-0.1456 -1.15093,-0.41729 -1.5875,-0.60374 -0.43656,-0.18644 -1.35929,-0.54074 -2.05052,-0.78732 -0.69726,-0.24874 -1.25677,-0.61528 -1.25677,-0.82333 0,-0.20624 0.11004,-0.37499 0.24453,-0.37499 0.48197,0 5.6367,1.83741 5.99955,2.13855 0.87787,0.72857 0.18128,0.96132 -1.34929,0.45083 z m 29.17032,-0.6551 c -0.25467,-0.0666 -0.46302,-0.22827 -0.46302,-0.35938 0,-0.32723 -1.32456,-0.98375 -3.18171,-1.57704 -0.85335,-0.27261 -1.85578,-0.695 -2.22762,-0.93865 -0.37185,-0.24364 -0.67609,-0.35518 -0.67609,-0.24787 0,0.10732 -0.15805,0.0639 -0.35122,-0.0964 -0.19317,-0.16031 -1.17544,-0.54564 -2.18281,-0.85627 -1.00738,-0.31064 -2.36738,-0.83422 -3.02222,-1.16352 -0.65484,-0.3293 -1.57758,-0.68239 -2.05052,-0.78464 -0.47294,-0.10226 -0.8599,-0.29552 -0.8599,-0.42948 0,-0.13396 -0.22354,-0.24356 -0.49677,-0.24356 -0.60787,0 -1.20283,-0.66289 -0.95495,-1.06398 0.12472,-0.20179 0.33316,-0.15601 0.66757,0.14662 0.26742,0.24202 0.5937,0.37361 0.72505,0.29243 0.13135,-0.0812 0.66779,0.0823 1.19208,0.36332 0.52429,0.281 1.51834,0.6532 2.20899,0.82711 0.69065,0.17391 1.91789,0.65209 2.72719,1.06262 0.80931,0.41054 1.65601,0.74794 1.88157,0.74978 0.22556,0.002 0.52321,0.1116 0.66146,0.24391 0.13824,0.13231 0.89942,0.43038 1.69151,0.66237 0.79209,0.232 1.51838,0.54838 1.61399,0.70307 0.0956,0.1547 0.3405,0.31183 0.54422,0.34919 0.78773,0.14445 2.50741,1.00639 3.07875,1.54314 0.93773,0.88095 0.76228,1.15375 -0.52555,0.8172 z m -36.20543,-2.02191 c -0.38515,-0.17385 -0.63239,-0.46529 -0.5647,-0.66567 0.0988,-0.29228 0.0101,-0.29735 -0.49286,-0.0282 -0.45418,0.24307 -0.63958,0.24931 -0.71467,0.024 -0.0558,-0.16729 -0.20594,-0.23955 -0.33373,-0.16058 -0.2336,0.14437 -1.44037,-0.89183 -1.25478,-1.07742 0.21749,-0.2175 3.84747,1.11132 4.55398,1.66706 0.74722,0.58776 0.7483,0.59279 0.12287,0.5715 -0.34705,-0.0118 -0.9393,-0.16065 -1.31611,-0.33073 z m -48.659666,-0.42862 c -0.487417,-0.15081 -0.557034,-0.24606 -0.264584,-0.36201 0.601794,-0.23858 1.863529,-0.0835 1.763805,0.2168 -0.114724,0.34547 -0.676199,0.39985 -1.499221,0.14521 z m -3.304625,-0.5464 c 0.0914,-0.14789 0.277025,-0.2004 0.41249,-0.11668 0.366989,0.22682 0.298559,0.38558 -0.166189,0.38558 -0.226869,0 -0.337705,-0.121 -0.246301,-0.2689 z m -6.503935,-0.27364 c -1.247364,-0.11016 -2.735646,-0.33014 -3.307292,-0.48886 -0.571646,-0.15871 -1.545372,-0.28923 -2.163836,-0.29004 -0.951232,-0.001 -1.124479,-0.0838 -1.124479,-0.53582 0,-0.44135 0.126625,-0.50934 0.727605,-0.3907 0.400182,0.079 1.50151,0.20641 2.447395,0.28313 0.945886,0.0767 1.864807,0.18781 2.042048,0.24686 0.411607,0.13713 0.700409,-0.30775 0.343127,-0.52856 -0.374661,-0.23155 0.540364,-1.4388 1.098506,-1.44932 0.242534,-0.005 0.501361,0.14051 0.575169,0.32241 0.101834,0.25097 0.198901,0.23767 0.402498,-0.0552 0.34793,-0.50045 2.146015,-0.39581 2.682402,0.1561 0.356558,0.36687 0.255747,0.39929 -0.992352,0.31909 -0.764075,-0.0491 -1.389153,2e-5 -1.389062,0.10916 9e-5,0.10914 -0.297492,0.19844 -0.661294,0.19844 -0.363802,0 -0.661459,0.10932 -0.661459,0.24294 0,0.66853 0.387816,1.08032 1.020495,1.08359 1.059076,0.005 1.922771,0.29471 1.818059,0.60885 -0.128799,0.3864 -0.281697,0.39538 -2.85753,0.16791 z m 52.803336,-1.02989 c -0.29104,-0.11753 -1.42213,-0.4744 -2.513537,-0.79304 -1.0914,-0.31864 -2.16297,-0.65356 -2.38125,-0.74427 -0.21828,-0.0907 -0.57547,-0.17708 -0.79375,-0.19193 -0.78843,-0.0536 -2.64583,-0.75658 -2.64583,-1.00133 0,-0.58604 5.86746,0.74218 6.879167,1.55724 0.21828,0.17586 0.84336,0.40259 1.38906,0.50386 0.58182,0.10797 0.99219,0.33609 0.99219,0.55155 0,0.40978 -0.1546,0.42946 -0.92605,0.11792 z m -46.698943,-2.40825 c -1.838755,-0.96652 -4.577355,-1.56002 -4.886946,-1.0591 -0.229613,0.37152 -0.933887,0.35462 -0.933887,-0.0224 0,-0.16484 0.257213,-0.52278 0.571585,-0.79543 0.314372,-0.27266 0.519095,-0.54823 0.45494,-0.61238 -0.188544,-0.18855 -2.906813,-0.35225 -3.457552,-0.20823 -0.785361,0.20538 -0.44666,0.95531 0.582166,1.28899 1.147107,0.37205 1.249545,1.04738 0.146705,0.96716 -1.156413,-0.0841 -1.404244,-0.23404 -1.867401,-1.12969 -0.39863,-0.77086 -0.391003,-0.86033 0.136474,-1.60111 0.5035,-0.7071 0.702611,-0.78462 2.015291,-0.78462 1.233694,0 1.443215,-0.0695 1.369174,-0.45393 -0.04808,-0.24965 -0.443763,-0.62615 -0.879296,-0.83666 -0.435533,-0.21051 -1.016194,-0.49346 -1.290358,-0.62879 -0.618142,-0.30513 -0.92617,0.10787 -0.753632,1.01044 0.137203,0.71773 -0.105856,0.80177 -0.798409,0.27605 -0.567047,-0.43045 -0.616301,-1.07004 -0.06615,-0.85893 0.218281,0.0838 0.396875,0.037 0.396875,-0.10398 0,-0.14096 -0.119063,-0.25628 -0.264584,-0.25628 -0.145521,0 -0.264583,-0.11601 -0.264583,-0.25779 0,-0.42965 1.542651,-1.08634 2.180529,-0.92823 0.429734,0.10653 0.697347,-0.0133 0.952712,-0.42672 0.452166,-0.73195 0.07077,-1.02325 -1.347304,-1.02904 -0.883024,-0.004 -0.992187,0.0687 -0.992187,0.6574 0,0.42271 -0.14889,0.66146 -0.41249,0.66146 -0.226869,0 -0.334009,-0.12698 -0.238089,-0.28219 0.09592,-0.1552 -0.03119,-0.43252 -0.282467,-0.61625 -0.375652,-0.27469 -0.402224,-0.43618 -0.149478,-0.90844 0.169066,-0.3159 0.452031,-0.58429 0.628812,-0.59642 0.176781,-0.0121 0.619076,-0.0548 0.982879,-0.0949 0.363802,-0.04 1.076413,0.14846 1.583581,0.41893 1.832829,0.97742 2.759561,0.37259 1.066612,-0.69612 -1.105524,-0.69789 -1.031969,-0.69035 -5.743398,-0.58856 -0.464336,0.01 -0.821523,0.14594 -0.79375,0.30202 0.02777,0.15608 -0.298926,0.28835 -0.725998,0.29393 -0.483634,0.006 -1.057424,0.28701 -1.521354,0.74423 -0.839981,0.82784 -0.924356,1.27729 -0.347985,1.85366 0.218281,0.21828 0.396875,0.52444 0.396875,0.68036 0,0.15591 0.129805,0.28348 0.288455,0.28348 0.158651,0 0.751421,0.32742 1.317268,0.72761 1.053077,0.74476 1.351433,1.38906 0.643235,1.38906 -0.218281,0 -0.396875,0.11906 -0.396875,0.26458 0,0.14552 0.165404,0.26458 0.367564,0.26458 0.20216,0 0.631103,0.21341 0.953206,0.47423 0.510462,0.41335 0.534943,0.5163 0.190703,0.802 -0.320236,0.26577 -0.573579,0.22237 -1.339357,-0.22945 -1.261001,-0.74401 -2.130505,-0.61116 -2.240211,0.34229 -0.11027,0.95835 -1.106905,1.05003 -1.106905,0.10182 0,-0.88297 0.970087,-2.02005 1.723381,-2.02005 0.994662,0 0.981421,-0.40726 -0.02609,-0.80258 -1.215016,-0.47674 -2.552244,-2.43331 -2.313414,-3.38488 0.254344,-1.01339 1.309763,-2.0497 2.410566,-2.36694 4.237972,-1.2213 6.216391,-1.33046 8.325873,-0.45936 0.289545,0.11957 0.46302,0.0726 0.46302,-0.12542 0,-0.43788 1.091133,-1.30799 1.653646,-1.31869 0.439862,-0.008 0.505156,-0.13146 0.568341,-1.07155 0.01483,-0.22071 0.295757,-0.74392 0.624271,-1.16269 0.5821,-0.74202 0.644381,-0.75744 2.447396,-0.60629 1.909169,0.16006 2.102391,0.0535 1.53907,-0.84848 -0.249206,-0.39904 -0.226667,-0.58239 0.113393,-0.92245 0.23343,-0.23343 0.671048,-0.42442 0.972484,-0.42442 0.301436,0 0.548066,-0.11906 0.548066,-0.26459 0,-0.14552 0.119062,-0.26458 0.264583,-0.26458 0.145521,0 0.264584,0.21967 0.264584,0.48816 0,0.26849 0.231406,0.69758 0.514237,0.95354 0.420564,0.3806 0.45786,0.55565 0.204745,0.96095 -0.292144,0.4678 -0.358459,0.44812 -1.183033,-0.35109 -0.864519,-0.83793 -0.872781,-0.83991 -0.800057,-0.19234 0.09079,0.80844 0.561689,1.17749 1.994908,1.56341 0.648409,0.1746 1.237589,0.53365 1.412742,0.86092 0.165253,0.30878 0.739271,0.99154 1.275597,1.51725 0.84022,0.82358 1.438468,1.72932 1.282076,1.94104 -0.02574,0.0349 0.181346,0.32983 0.4602,0.65551 0.333906,0.38998 0.596259,0.50289 0.768421,0.33073 0.356322,-0.35632 2.53683,-0.33464 2.53683,0.0252 0,0.15765 0.148828,0.23327 0.330729,0.16804 0.569072,-0.20405 1.286396,0.34536 1.679596,1.28642 0.207914,0.49761 0.519303,0.90474 0.691976,0.90474 0.227438,0 0.234123,0.0798 0.02426,0.28969 -0.209864,0.20986 -0.851957,0.17341 -2.330176,-0.13229 -1.122267,-0.23209 -2.426605,-0.42198 -2.898529,-0.42198 -0.537175,0 -1.275864,-0.30267 -1.97535,-0.80938 -0.614519,-0.44515 -1.257461,-0.75221 -1.42876,-0.68234 -0.225957,0.0922 -0.220666,0.13276 0.01928,0.14791 0.181901,0.0115 0.330729,0.19948 0.330729,0.41777 0,0.21828 0.0893,0.40598 0.198438,0.41711 0.836298,0.0853 1.242945,0.29982 1.803059,0.9511 1.12076,1.30317 0.648162,1.58685 -1.172617,0.70387 -0.674165,-0.32693 -1.533734,-0.66703 -1.910153,-0.75578 -0.632798,-0.14919 -0.675859,-0.10317 -0.571139,0.61033 0.08581,0.58466 0.331844,0.85746 1.015128,1.12556 0.664222,0.26062 0.901867,0.51515 0.901867,0.96594 0,0.76367 -0.785658,0.83246 -0.980892,0.0859 -0.08118,-0.31045 -0.26087,-0.44891 -0.438251,-0.33772 -0.165356,0.10366 -0.477262,0.19162 -0.693123,0.19546 -0.215861,0.004 -0.549779,0.33442 -0.742041,0.7346 -0.192262,0.40018 -0.480586,0.7276 -0.64072,0.7276 -0.160134,0 -0.07311,0.24094 0.193394,0.53542 0.362912,0.40102 0.408774,0.61119 0.182698,0.83727 -0.226077,0.22608 -0.534222,0.0482 -1.227534,-0.70876 -0.918128,-1.00237 -1.001878,-1.45768 -0.268124,-1.45768 0.429024,0 1.261507,-0.76036 1.671766,-1.52694 0.272565,-0.50929 -0.03721,-1.11889 -0.568571,-1.11889 -0.126811,0 -0.409159,-0.17859 -0.627441,-0.39687 -0.218281,-0.21829 -0.608042,-0.39688 -0.866135,-0.39688 -0.258094,0 -0.693009,-0.24724 -0.966478,-0.54942 -0.488941,-0.54027 -0.486321,-0.55781 0.157431,-1.05396 1.203665,-0.92768 1.812218,-0.87845 4.066445,0.32891 0.415441,0.22251 0.47213,0.19231 0.330729,-0.17618 -0.09386,-0.24459 -0.170653,-0.49451 -0.170653,-0.55536 0,-0.0609 -0.310394,-0.11066 -0.689765,-0.11066 -0.471103,0 -0.64622,-0.11348 -0.552401,-0.35796 0.07555,-0.19689 -0.06432,-0.52431 -0.310815,-0.72761 -1.409176,-1.16222 -1.34954,-1.14161 -1.757552,-0.60733 -0.332174,0.43497 -0.418402,0.44911 -0.64344,0.10556 -0.190884,-0.29141 -0.104429,-0.54573 0.325701,-0.95811 0.32206,-0.30877 0.66979,-0.5133 0.772734,-0.45453 0.167004,0.0954 1.003455,-1.2526 1.003455,-1.61708 0,-0.08 -0.397796,-0.14544 -0.883991,-0.14544 -0.486195,0 -1.429772,-0.16425 -2.096838,-0.36501 -0.925456,-0.27852 -1.353656,-0.29419 -1.807094,-0.0661 -0.863498,0.43428 -0.886953,0.82891 -0.09302,1.56508 0.771405,0.71529 0.592885,1.0218 -0.648597,1.11361 -0.378492,0.028 -0.939822,0.0695 -1.2474,0.0923 -0.474153,0.0351 -0.560001,0.21249 -0.564284,1.16589 -0.0057,1.26954 0.293239,1.78594 1.033868,1.78594 0.278858,0 1.004746,0.46428 1.613084,1.03173 l 1.106068,1.03173 0.02723,2.16471 c 0.01764,1.40197 0.141966,2.23561 0.352858,2.36595 0.375036,0.23178 0.610771,1.63476 0.344821,2.0522 -0.101492,0.1593 -0.351784,0.191 -0.57629,0.073 z m -0.94533,-2.3957 c -0.425954,-0.44804 -1.114707,-0.99226 -1.530562,-1.2094 -0.771848,-0.403 -2.022025,-0.29018 -2.022025,0.18249 0,0.53315 1.084807,1.31787 1.82184,1.31787 0.419928,0 1.099101,0.17411 1.509272,0.38691 1.04495,0.54213 1.130987,0.27879 0.221475,-0.67787 z m -2.636762,-2.78443 c 0.393713,-0.15109 0.392081,-0.20682 -0.01937,-0.66146 -0.247117,-0.27306 -0.570304,-0.49648 -0.718193,-0.49648 -0.147888,0 -0.489436,-0.19959 -0.758994,-0.44354 -0.320544,-0.29009 -0.579942,-0.3537 -0.749767,-0.18388 -0.169826,0.16983 0.02628,0.55213 0.566813,1.105 0.873246,0.89318 0.995669,0.94277 1.679509,0.68036 z m 1.823378,-1.35863 c -0.126881,-0.4852 -1.928659,-1.65711 -2.527038,-1.64364 -0.189451,0.004 0.07226,0.36612 0.581585,0.80412 0.509323,0.438 1.045105,0.9048 1.190625,1.03735 0.447105,0.40723 0.88317,0.29294 0.754828,-0.19783 z m 5.727464,-1.09392 c 0,-0.2698 -0.642274,-0.55747 -1.244662,-0.55747 -0.33234,0 -0.346794,0.0733 -0.07826,0.39687 0.356162,0.42915 1.322917,0.54651 1.322917,0.1606 z m 7.540625,-0.82206 c -0.751931,-0.32311 -2.316363,-0.32311 -2.116667,0 0.08994,0.14553 0.722042,0.25622 1.404677,0.24599 0.936802,-0.014 1.111395,-0.0744 0.71199,-0.24599 z m -4.516131,-2.20101 c -0.08963,-0.23357 -0.419854,-0.50351 -0.733833,-0.59987 -0.313978,-0.0964 -0.783867,-0.39854 -1.044197,-0.67153 -0.564343,-0.59178 -1.246464,-0.6513 -1.246464,-0.10877 0,0.44862 0.795697,0.93535 1.529099,0.93535 0.278054,0 0.721714,0.23886 0.98591,0.53079 0.536799,0.59315 0.755903,0.55618 0.509485,-0.086 z m 120.545329,10.54674 c -0.18634,-0.22453 -0.45245,-0.40823 -0.59135,-0.40823 -0.23704,0 -5.21682,-2.86668 -5.50349,-3.16816 -0.26848,-0.28236 -1.32554,-0.80059 -1.633,-0.80059 -0.1745,0 -0.56306,-0.21885 -0.86348,-0.48634 -0.30043,-0.26749 -0.96294,-0.64659 -1.47227,-0.84244 -0.50932,-0.19585 -1.64041,-0.82738 -2.51354,-1.40338 -2.04133,-1.34669 -4.05592,-2.28949 -4.89479,-2.2907 -0.3638,-5.3e-4 -1.00249,0.1769 -1.4193,0.39429 -0.41682,0.21738 -0.97245,0.39524 -1.23473,0.39524 -0.26228,0 -0.51656,0.11164 -0.56507,0.24809 -0.0485,0.13645 -0.74303,0.3227 -1.5434,0.4139 -2.05383,0.23402 -2.18925,0.23366 -2.75538,-0.007 -0.3531,-0.15025 -0.44996,-0.12413 -0.31991,0.0863 0.22693,0.36718 -0.3584,0.50096 -3.01013,0.688 -1.99436,0.14067 -3.01938,-0.10698 -2.51132,-0.60675 0.1443,-0.14195 1.01713,-0.29453 1.93962,-0.33907 0.9225,-0.0445 1.73319,-0.17148 1.80156,-0.2821 0.0684,-0.11061 0.88414,-0.20111 1.81285,-0.20111 0.98841,0 1.76664,-0.12633 1.87686,-0.30466 0.13232,-0.21411 0.28496,-0.17247 0.51349,0.14006 0.26348,0.36034 0.35206,0.37472 0.46677,0.0758 0.0779,-0.20293 0.69653,-0.53281 1.3748,-0.73308 1.76892,-0.5223 1.9855,-0.91266 0.78472,-1.41438 -0.53912,-0.22526 -1.07509,-0.40956 -1.19105,-0.40956 -0.11596,0 -0.5479,-0.17131 -0.95987,-0.38069 -0.41198,-0.20938 -1.2253,-0.57462 -1.80738,-0.81164 -0.58209,-0.23703 -1.33193,-0.56514 -1.66632,-0.72914 -0.4574,-0.22433 -0.91452,-0.21619 -1.84572,0.0329 -1.77479,0.47468 -2.1904,1.29164 -0.94563,1.85879 0.49099,0.22372 0.61811,0.40332 0.42333,0.59811 -0.19479,0.19478 -0.70345,0.15731 -1.6939,-0.12478 -0.79952,-0.22771 -2.02512,-0.35707 -2.81635,-0.29726 -0.86972,0.0658 -1.3403,0.008 -1.24116,-0.15248 0.0878,-0.1421 -0.033,-0.25837 -0.26842,-0.25837 -0.23546,0 -0.354,0.11991 -0.26343,0.26646 0.0906,0.14654 -0.0441,0.34656 -0.29925,0.44447 -0.26757,0.10268 -0.50819,0.0452 -0.56852,-0.13577 -0.0783,-0.23483 -0.28204,-0.22211 -0.80962,0.0505 -0.64363,0.3326 -3.09925,1.12974 -3.97923,1.29172 -0.20009,0.0368 -0.41605,-0.0749 -0.4799,-0.24824 -0.12288,-0.33365 1.33311,-1.22385 1.5868,-0.97017 0.0818,0.0818 0.41295,-0.0364 0.7359,-0.26255 0.42464,-0.29742 0.72235,-0.33894 1.07545,-0.14997 0.32846,0.17579 0.48826,0.17167 0.48826,-0.0126 0,-0.15064 0.2311,-0.2739 0.51355,-0.2739 0.28245,0 0.58668,-0.11832 0.67605,-0.26293 0.0894,-0.14461 0.63824,-0.2253 1.21969,-0.17931 0.58145,0.046 1.12122,-0.02 1.19949,-0.14663 0.0783,-0.12665 0.66753,-0.1515 1.30947,-0.0552 0.96991,0.14545 1.16716,0.10288 1.16716,-0.25189 0,-0.2348 0.10473,-0.39715 0.23272,-0.36077 0.12799,0.0364 0.53386,-0.2557 0.90193,-0.64907 0.76801,-0.82081 0.63536,-1.02257 -1.00235,-1.52465 -1.55084,-0.47544 -2.51354,-0.90583 -2.51354,-1.12371 0,-0.10543 -0.15903,-0.13066 -0.3534,-0.0561 -0.19437,0.0746 -0.87898,-0.0351 -1.52135,-0.24386 -2.27961,-0.74065 -2.47312,-0.73485 -4.19535,0.12576 -0.91669,0.45807 -1.76227,1.08469 -1.91445,1.41869 -0.25839,0.5671 -0.41233,0.59673 -2.95704,0.56916 -1.9434,-0.0211 -2.94009,0.0873 -3.6105,0.3925 -2.10649,0.959 -2.5657,1.10747 -3.66147,1.18384 -1.18328,0.0825 -1.99884,0.51718 -1.74396,0.92959 0.0798,0.12903 0.0487,0.23281 -0.0691,0.23062 -0.35783,-0.007 -2.35002,-0.76508 -2.06613,-0.78657 0.14552,-0.011 0.0352,-0.1936 -0.24527,-0.40575 -0.61914,-0.46841 -0.39184,-0.80296 0.29558,-0.43507 0.28159,0.1507 0.66405,0.1676 0.89304,0.0394 0.22028,-0.12328 1.01462,-0.29436 1.7652,-0.38017 0.75058,-0.0858 1.99602,-0.44995 2.76765,-0.80918 0.77163,-0.35923 1.66383,-0.6543 1.98266,-0.65572 0.31884,-0.001 0.64219,-0.10371 0.71858,-0.2273 0.0764,-0.12359 1.16318,-0.23353 2.4151,-0.2443 2.12689,-0.0183 2.36138,-0.0773 3.57408,-0.89977 0.71382,-0.4841 1.30093,-0.95657 1.30468,-1.04993 0.004,-0.0934 -0.26107,-0.24184 -0.58849,-0.32994 -0.79437,-0.21375 -1.95758,-1.13665 -1.72534,-1.36889 0.10174,-0.10174 0.69527,-0.0409 1.31896,0.13514 0.62369,0.17607 1.61023,0.4074 2.19232,0.51406 1.02684,0.18817 2.87403,0.79937 4.49791,1.48829 0.43657,0.1852 1.21047,0.41627 1.7198,0.51348 0.97986,0.18701 2.00249,0.51826 3.30729,1.07129 0.43656,0.18503 1.06164,0.41722 1.38906,0.51597 0.32742,0.0988 0.59531,0.29059 0.59531,0.42631 0,0.13571 0.25408,0.24675 0.56462,0.24675 0.77847,0 2.61038,0.56905 2.61038,0.81086 0,0.10886 0.23813,0.13566 0.52917,0.0596 0.29104,-0.0761 0.52916,-0.0199 0.52916,0.12497 0,0.25903 1.35047,0.92202 2.10536,1.03358 0.3796,0.0561 1.35016,0.46617 2.12798,0.89909 0.71441,0.39764 2.49223,1.25587 3.57187,1.7243 1.10121,0.47779 1.30454,0.55112 1.68116,0.60624 0.12427,0.0182 0.57076,0.33412 0.99219,0.70206 1.22807,1.07218 1.3885,1.1831 1.71123,1.1831 0.55678,0 2.3623,1.14946 2.3623,1.50393 0,0.19148 0.21439,0.34815 0.47642,0.34815 0.73217,0 1.90045,0.62015 1.90276,1.01002 10e-4,0.22791 0.18523,0.29043 0.53123,0.18061 0.30356,-0.0964 0.52917,-0.0476 0.52917,0.11446 0,0.15533 0.18278,0.28241 0.40618,0.28241 0.41796,0 1.71802,0.73899 2.00324,1.13869 0.0883,0.12368 0.32704,0.18662 0.53063,0.13986 0.44308,-0.10174 1.58938,0.97426 1.33738,1.25537 -0.097,0.10821 -0.0443,0.12145 0.11718,0.0294 0.44507,-0.25373 1.70783,0.4248 1.6251,0.87323 -0.10138,0.5495 -0.84129,0.63648 -1.24779,0.14668 z m -57.50808,-1.10967 c -0.0948,-0.0948 0.0302,-0.32037 0.27779,-0.50137 0.39438,-0.28838 0.30385,-0.36857 -0.73172,-0.64806 -0.64998,-0.17543 -1.4565,-0.42661 -1.79226,-0.55819 -0.33576,-0.13158 -0.9013,-0.16625 -1.25677,-0.077 -0.41981,0.10537 -0.64629,0.0495 -0.64629,-0.15936 0,-0.17714 -0.17826,-0.25318 -0.39688,-0.16928 -0.23933,0.0918 -0.39687,10e-4 -0.39687,-0.22797 0,-0.2185 -0.15868,-0.31938 -0.373,-0.23714 -0.20515,0.0787 -0.77069,-0.0695 -1.25677,-0.32934 -1.06757,-0.57072 -2.60624,-1.14387 -3.08549,-1.14933 -0.19229,-0.002 -0.5472,-0.20157 -0.78869,-0.44305 -0.40903,-0.40903 -0.33987,-0.42602 1.01109,-0.24835 0.79758,0.1049 1.49008,0.30322 1.53889,0.44071 0.0488,0.1375 0.19739,0.18285 0.33019,0.10078 0.13279,-0.0821 0.62864,0.0532 1.10188,0.30072 0.47324,0.24746 1.0714,0.55463 1.32924,0.68259 0.25785,0.12796 1.03175,0.30394 1.71979,0.39106 0.68805,0.0871 1.37005,0.29352 1.51557,0.45867 0.14553,0.16516 0.59366,0.31688 0.99587,0.33716 1.25758,0.0634 1.9819,0.33528 2.16509,0.81266 0.0971,0.25315 0.0507,0.50222 -0.10311,0.5535 -0.15384,0.0513 -0.27972,0.26192 -0.27972,0.46807 0,0.38272 -0.56687,0.51351 -0.87783,0.20255 z m -21.50137,-6.1595 c -0.0649,-0.0627 -0.68186,-0.20374 -1.37098,-0.31332 -0.68912,-0.10959 -1.84826,-0.32978 -2.575857,-0.48933 -0.72761,-0.15954 -1.53154,-0.32356 -1.78651,-0.36449 -0.25498,-0.0409 -0.63814,-0.30519 -0.85148,-0.58723 -0.21875,-0.2892 -0.39156,-0.3686 -0.39631,-0.18208 -0.0118,0.46219 -2.05238,0.42625 -3.43183,-0.0605 -0.60979,-0.21514 -1.19031,-0.36875 -1.29004,-0.34135 -0.0997,0.0274 -0.59805,-0.14416 -1.107366,-0.38125 -0.50933,-0.23709 -1.728,-0.50949 -2.70817,-0.60534 -1.09502,-0.10708 -2.00653,-0.35598 -2.36415,-0.64556 l -0.58201,-0.47128 0.86627,-0.12715 c 0.52454,-0.077 1.00517,0.0118 1.2184,0.225 0.27438,0.27438 0.37841,0.27963 0.47112,0.0238 0.0922,-0.25456 0.26056,-0.24405 0.74886,0.0468 0.60583,0.36084 4.811236,1.26913 6.956226,1.50242 0.56907,0.0619 1.16946,0.22439 1.3342,0.36111 0.49651,0.41207 3.821827,1.0912 6.494657,1.32641 2.54098,0.22361 4.97569,0.70777 5.37939,1.06974 0.12101,0.1085 -0.92892,0.18161 -2.33318,0.16246 -1.40426,-0.0191 -2.60631,-0.0861 -2.67124,-0.14887 z m -32.521832,-2.79139 c -2.060044,-0.98588 -3.600449,-1.44122 -4.36099,-1.28911 -0.82441,0.16488 -0.969521,-0.0199 -0.543992,-0.69279 0.275474,-0.4356 2.205706,-0.53455 3.022855,-0.15496 0.932351,0.43309 0.324186,-0.41998 -0.720663,-1.01087 -0.896772,-0.50716 -1.023489,-0.52081 -1.31161,-0.1413 -0.406912,0.53599 -0.980391,0.35179 -0.980391,-0.31489 0,-0.4253 -0.123395,-0.4821 -0.727605,-0.3349 -0.400182,0.0975 -0.822817,0.33788 -0.939188,0.53421 -0.116372,0.19632 -0.399841,0.35694 -0.629932,0.35694 -0.331517,0 -0.38669,-0.19507 -0.265827,-0.93986 0.110605,-0.68158 0.04741,-0.98021 -0.229964,-1.08664 -0.403144,-0.15471 -0.509145,-1.07974 -0.179995,-1.57078 0.106912,-0.15949 0.544219,-0.37575 0.971793,-0.48056 0.427575,-0.10481 0.909869,-0.37172 1.071765,-0.59313 0.171237,-0.23418 0.758445,-0.42051 1.403908,-0.44548 0.610253,-0.0236 1.110224,-0.13222 1.111048,-0.24136 8.23e-4,-0.10914 -0.162519,-0.19844 -0.362982,-0.19844 -0.200463,0 -0.517996,-0.18497 -0.705629,-0.41106 -0.249897,-0.3011 -0.77167,-0.39768 -1.950626,-0.36104 -2.087261,0.0649 -2.606794,0.20473 -2.433915,0.65524 0.174952,0.45592 -0.255952,0.7464 -0.696914,0.46981 -0.181901,-0.11409 -0.551989,-0.17098 -0.822417,-0.12642 -0.270429,0.0446 -0.773886,0.0102 -1.118795,-0.0764 -0.591755,-0.14852 -0.60251,-0.18612 -0.190783,-0.66698 0.28978,-0.33844 1.065426,-0.61107 2.30942,-0.81173 1.030203,-0.16617 2.07984,-0.41148 2.332527,-0.54513 0.935366,-0.49472 2.170815,-0.25801 3.512345,0.67296 0.72594,0.50378 1.947856,1.23346 2.71537,1.62151 1.265854,0.64002 1.483125,0.88779 2.339042,2.66731 0.615316,1.2793 0.874152,2.11887 0.744038,2.41338 -0.228863,0.51805 -0.297986,0.74142 -0.344445,1.1131 -0.01819,0.14552 -0.256619,0.26458 -0.529843,0.26458 -0.85163,0 -1.147458,0.62758 -0.540716,1.14709 0.29196,0.24998 0.459211,0.5704 0.371671,0.71204 -0.207967,0.3365 -0.368906,0.3201 -1.31856,-0.13438 z m 0.661458,-2.72699 c 0,-0.51878 -0.384162,-1.14684 -1.294682,-2.11667 -0.712075,-0.75845 -1.411871,-1.37901 -1.555103,-1.37901 -0.143231,0 -0.402767,-0.17151 -0.576745,-0.38114 -0.173979,-0.20964 -0.486214,-0.31596 -0.693856,-0.23628 -0.207641,0.0797 -0.37753,0.005 -0.37753,-0.16585 0,-0.27755 -0.952283,-0.1608 -1.306353,0.16017 -0.169373,0.15354 1.447624,1.49055 3.459716,2.86067 0.966069,0.65784 1.825536,1.376 1.909926,1.59592 0.239318,0.62365 0.434627,0.47185 0.434627,-0.33781 z m -5.027083,-1.76027 c 0,-0.0642 -0.119062,-0.19026 -0.264583,-0.2802 -0.145521,-0.0899 -0.264583,-0.0374 -0.264583,0.11668 0,0.15411 0.119062,0.2802 0.264583,0.2802 0.145521,0 0.264583,-0.0525 0.264583,-0.11668 z m -0.79375,-0.73874 c 0,-0.1116 -0.135702,-0.20292 -0.301561,-0.20292 -0.165858,0 -0.45063,-0.20386 -0.632827,-0.45303 -0.280086,-0.38304 -0.397006,-0.39847 -0.756772,-0.0999 -0.753196,0.62509 -0.502263,1.01627 0.632827,0.98651 0.582083,-0.0153 1.058333,-0.11906 1.058333,-0.23067 z m 5.159375,-1.26125 c -0.263389,-0.29104 -0.583687,-0.52917 -0.711774,-0.52917 -0.128087,0 -0.105445,0.23813 0.05032,0.52917 0.155761,0.29104 0.476059,0.52917 0.711774,0.52917 0.37827,0 0.372364,-0.0621 -0.05032,-0.52917 z m 3.392162,5.43356 c 0.148991,-0.44758 0.973463,-0.48607 0.973463,-0.0454 0,0.23753 -0.2161,0.38355 -0.532367,0.35973 -0.292801,-0.0221 -0.491295,-0.16349 -0.441096,-0.31429 z m 56.33751,0.1176 c -0.6086,-0.24786 -0.77322,-0.64747 -0.3695,-0.89699 0.34141,-0.211 1.90887,0.45113 1.8052,0.76256 -0.12333,0.37049 -0.71909,0.42628 -1.4357,0.13443 z m -6.2177,-0.73161 c -0.4412,-0.0559 -0.72761,-0.25365 -0.72761,-0.50236 0,-0.27989 0.16806,-0.36621 0.52917,-0.27178 0.90889,0.23768 0.57889,-0.30512 -0.52917,-0.87041 -1.17915,-0.60156 -1.44082,-1.2117 -0.40854,-0.95261 1.36312,0.34212 1.99604,0.68971 1.99604,1.09618 0,0.30913 0.14968,0.37375 0.5623,0.24279 0.37839,-0.1201 0.50309,-0.0827 0.38126,0.11446 -0.10409,0.16844 0.002,0.29293 0.25035,0.29293 0.38759,0 0.38462,0.0468 -0.0293,0.46066 -0.34643,0.34643 -0.48896,0.37576 -0.57479,0.11827 -0.0924,-0.27711 -0.17209,-0.27505 -0.41813,0.0108 -0.16721,0.19427 -0.63143,0.31174 -1.03161,0.26103 z m -48.873349,-0.38778 c 0.0046,-0.1819 0.172313,-0.54692 0.372633,-0.81117 0.461434,-0.60867 2.397075,-0.54119 2.397075,0.0836 0,0.26211 -0.21583,0.37305 -0.635614,0.3267 -0.349589,-0.0386 -0.910947,0.11024 -1.247462,0.33073 -0.743425,0.48712 -0.897551,0.49931 -0.886632,0.0702 z m 6.288736,-1.79487 c -1.363878,-0.22812 -1.799238,-0.42179 -1.799238,-0.80043 0,-0.33859 2.307448,-0.31785 2.517878,0.0226 0.0923,0.14938 0.36724,0.23868 0.61093,0.19844 0.46437,-0.0767 0.63808,0.63564 0.17849,0.73191 -0.14553,0.0305 -0.82415,-0.0382 -1.50806,-0.15255 z m 33.654923,-0.27458 c -1.38245,-0.28078 -2.72029,-0.62952 -2.97297,-0.77496 -0.25269,-0.14544 -0.64262,-0.26444 -0.86651,-0.26444 -0.22389,0 -1.07549,-0.23493 -1.89243,-0.52206 -0.81695,-0.28714 -1.56653,-0.4719 -1.66573,-0.41059 -0.0992,0.0613 -0.56607,-0.12308 -1.03748,-0.40977 -0.47141,-0.28668 -0.95042,-0.46356 -1.06447,-0.39308 -0.22551,0.13938 -1.81997,-0.23143 -3.03794,-0.7065 -0.75324,-0.2938 -0.75547,-0.30084 -0.16433,-0.51951 0.35281,-0.13051 0.72808,-0.11474 0.91255,0.0383 0.17232,0.14301 0.72252,0.31221 1.22266,0.37599 1.50891,0.19243 2.36928,0.47341 2.21483,0.72331 -0.0803,0.13 0.0693,0.25155 0.33256,0.27012 1.01407,0.0716 1.55893,0.15966 2.15124,0.34789 0.39414,0.12525 0.77341,0.0621 1.05833,-0.17614 0.24424,-0.20425 0.62266,-0.35982 0.84094,-0.34573 0.21828,0.0141 0.45641,-0.0408 0.52917,-0.12195 0.17143,-0.19125 4.42916,-1.75533 5.29166,-1.9439 0.3638,-0.0795 1.42421,-0.31921 2.35645,-0.5326 0.93225,-0.2134 1.8565,-0.32602 2.05389,-0.25027 0.1974,0.0757 0.50766,0.0143 0.68948,-0.13663 0.46768,-0.38814 3.43979,-1.04076 4.31486,-0.94746 0.45392,0.0484 0.85692,-0.0919 1.05945,-0.36891 0.39648,-0.54222 0.20553,-0.94331 -0.34797,-0.73091 -0.222,0.0852 -0.55462,0.0296 -0.73913,-0.12354 -0.18452,-0.15313 -0.43732,-0.25089 -0.56178,-0.21724 -0.12446,0.0337 -0.88113,-0.13263 -1.6815,-0.36952 -2.14404,-0.63459 -4.32843,-0.97963 -4.63021,-0.73138 -0.23297,0.19166 -1.22722,0.43841 -3.93631,0.9769 -0.57406,0.11411 -0.73133,0.0614 -0.63941,-0.21437 0.067,-0.20114 0.35011,-0.36571 0.62902,-0.36571 0.69415,0 1.49774,-0.70272 1.1739,-1.02655 -0.16084,-0.16084 -0.62312,-0.14201 -1.26976,0.0517 -0.55926,0.16756 -1.78347,0.37086 -2.72047,0.45179 -3.29126,0.28425 -5.87849,0.65161 -6.17085,0.87619 -0.1624,0.12476 -0.89905,0.23109 -1.63698,0.23628 -0.73793,0.005 -1.71429,0.20212 -2.16967,0.4376 -1.11611,0.57716 -1.19688,0.55066 -1.06479,-0.34933 0.10834,-0.73814 0.0743,-0.76952 -0.67311,-0.62004 -0.70041,0.14008 -0.77127,0.0964 -0.64249,-0.39605 0.0796,-0.30442 0.009,-0.60094 -0.15675,-0.65895 -0.50552,-0.17682 -2.815027,-0.22809 -2.815027,-0.0625 0,0.0854 0.25046,0.49396 0.55658,0.90802 0.36899,0.49909 0.49675,0.94136 0.37905,1.3122 -0.29012,0.91409 -0.784,0.67549 -1.58046,-0.76354 -0.28189,-0.50932 -0.68108,-1.05245 -0.88708,-1.20695 -0.4244,-0.3183 -1.90768,-0.17939 -1.90768,0.17865 0,0.12901 -0.146,0.20479 -0.32444,0.16841 -0.17845,-0.0364 -0.36311,0.18487 -0.41037,0.49168 -0.1248,0.81029 -1.15925,1.29076 -2.08816,0.96988 -0.41189,-0.14228 -2.151596,-0.22902 -3.866006,-0.19275 -3.91539,0.0828 -4.23039,-0.11469 -3.62993,-2.27618 0.24395,-0.87814 1.46999,-2.10149 2.10612,-2.10149 0.15141,0 0.27567,-0.0893 0.27613,-0.19843 4.6e-4,-0.10914 0.47671,-0.20424 1.05834,-0.21133 0.58162,-0.007 1.05749,0.0968 1.05749,0.23083 0,0.13405 0.15282,0.1169 0.3396,-0.0381 0.21529,-0.17867 0.48164,-0.19201 0.72761,-0.0365 0.57651,0.36463 1.04946,0.30461 1.04946,-0.13317 0,-0.46105 1.969896,-1.05668 2.607416,-0.78839 0.39006,0.16415 1.86539,0.36713 2.96076,0.40736 0.22484,0.008 1.04114,0.58131 1.814,1.27345 1.39174,1.24639 1.41771,1.25646 2.713237,1.05166 1.42802,-0.22574 2.78921,-1.36558 3.1237,-2.61574 0.12913,-0.48264 0.44051,-0.72772 1.15184,-0.90656 0.53618,-0.1348 0.97487,-0.34611 0.97487,-0.46957 0,-0.37437 -1.3666,-0.77131 -2.36631,-0.68731 -0.74488,0.0626 -0.9586,0.20313 -1.02553,0.67438 -0.093,0.6548 -0.77559,0.81034 -0.99918,0.22767 -0.0778,-0.20268 -0.35743,-0.31105 -0.62329,-0.24153 -0.60995,0.15951 -0.986507,-0.3967 -0.41663,-0.61539 0.23288,-0.0894 0.60068,-0.50524 0.81731,-0.92417 0.21664,-0.41893 0.56942,-0.76169 0.78397,-0.76169 0.70686,0 0.48173,-1.51525 -0.30137,-2.02835 -0.80489,-0.52738 -2.891457,-0.57801 -3.799227,-0.0922 -0.48652,0.26038 -0.64774,0.25359 -0.83059,-0.0349 -0.17629,-0.2782 -0.22778,-0.25479 -0.23093,0.10497 -0.002,0.25466 -0.11461,0.46302 -0.24974,0.46302 -0.44126,0 -1.07723,0.81893 -1.07723,1.38713 0,0.30557 0.19026,0.76581 0.42279,1.02276 0.40735,0.45012 0.32042,1.0297 -0.15444,1.0297 -0.3549,0 -1.0621,-1.58533 -1.0621,-2.3809 0,-0.63754 1.03426,-2.01362 1.0751,-1.43042 0.009,0.13169 0.12814,-0.0384 0.26426,-0.37803 0.13611,-0.33961 0.39646,-0.5635 0.57854,-0.49754 0.18208,0.066 0.51457,-0.0391 0.73887,-0.23347 0.52609,-0.45589 3.079907,-0.72152 3.312877,-0.34458 0.0954,0.1544 0.45087,0.21112 0.78987,0.12603 0.33901,-0.0851 0.69024,-0.0352 0.7805,0.11085 0.0903,0.14606 0.39522,0.26556 0.67768,0.26556 0.29548,0 0.51355,0.1807 0.51355,0.42556 0,0.32142 0.16131,0.38507 0.65923,0.2601 0.97069,-0.24363 2.27595,0.41246 3.5724,1.79568 0.63037,0.67255 1.30535,1.22282 1.49995,1.22282 0.19461,0 0.35384,0.10616 0.35384,0.2359 0,0.12975 0.27026,0.30374 0.60057,0.38664 0.33032,0.0829 0.86112,0.39347 1.17957,0.69014 0.31844,0.29667 0.70302,0.53941 0.85463,0.53941 0.1516,0 0.27564,0.53578 0.27564,1.19062 0,1.08913 -0.0556,1.19063 -0.65225,1.19063 -0.665,0 -2.61672,1.48598 -2.40393,1.83027 0.21793,0.35263 4.03086,0.15604 4.49832,-0.23192 0.41568,-0.34499 2.37546,-0.4332 3.71724,-0.16732 0.29104,0.0577 1.15424,0.18972 1.91823,0.29344 0.76398,0.10372 1.38906,0.2962 1.38906,0.42772 0,0.13153 0.28467,0.16769 0.63259,0.0804 0.34793,-0.0873 0.71214,-0.0301 0.80937,0.12725 0.0972,0.15731 0.57871,0.28602 1.06997,0.28602 0.49126,0 1.22838,0.13708 1.63803,0.30462 0.40966,0.16753 1.01272,0.27807 1.34014,0.24564 0.32743,-0.0324 0.59532,0.0686 0.59532,0.22456 0,0.15593 0.0893,0.26248 0.19843,0.23677 0.10914,-0.0257 0.73422,0.10716 1.38907,0.29527 0.65484,0.1881 1.89855,0.38466 2.76379,0.4368 1.0586,0.0638 1.64707,0.22685 1.79909,0.49849 0.12425,0.22203 0.49781,0.40368 0.83012,0.40368 0.33232,0 0.68704,0.0828 0.78826,0.18405 0.22586,0.22586 0.86117,0.36695 1.82238,0.40472 0.40018,0.0157 0.72761,0.10897 0.72761,0.2072 0,0.0982 0.47625,0.32129 1.05833,0.49569 1.50189,0.44998 1.4453,1.10541 -0.0661,0.7661 -0.61846,-0.13884 -1.42213,-0.28685 -1.78593,-0.32891 -0.36381,-0.0421 -1.01865,-0.22065 -1.45521,-0.39687 -0.43657,-0.17623 -1.13386,-0.36537 -1.54955,-0.42032 -0.41568,-0.055 -0.91648,-0.23326 -1.11288,-0.39626 -0.19641,-0.163 -0.47654,-0.22255 -0.62251,-0.13234 -0.14598,0.0902 -0.50838,0.0123 -0.80534,-0.17315 -0.43978,-0.27465 -0.64465,-0.2718 -1.10448,0.0154 -0.3105,0.19391 -0.99511,0.40434 -1.52136,0.46762 -0.52624,0.0633 -1.19492,0.18998 -1.48597,0.28158 -0.29104,0.0916 -0.76729,0.20331 -1.05833,0.24827 -0.29104,0.045 -0.97851,0.19305 -1.5277,0.32911 -0.5492,0.13605 -1.23381,0.18584 -1.52136,0.11065 -0.29018,-0.0759 -0.52281,-0.005 -0.52281,0.15872 0,0.17631 -0.50972,0.29544 -1.26405,0.29544 -0.72259,0 -1.51911,0.17866 -1.85951,0.41708 -0.32751,0.2294 -0.97908,0.46513 -1.44794,0.52384 -1.32542,0.16599 -2.39065,0.39246 -2.96913,0.63126 -0.29104,0.12014 -1.21377,0.43552 -2.05052,0.70084 -1.66523,0.52802 -1.9669,0.90198 -0.7276,0.90198 0.43656,0 0.79375,0.10197 0.79375,0.22659 0,0.12462 0.84479,0.3051 1.87731,0.40107 1.03252,0.096 2.11169,0.29991 2.39816,0.45323 0.36551,0.19561 0.6217,0.19505 0.85901,-0.002 0.18599,-0.15436 0.414,-0.20481 0.50669,-0.11213 0.0927,0.0927 0.94493,0.14717 1.89388,0.12106 0.94895,-0.0261 1.72536,0.0222 1.72536,0.10727 0,0.34134 -1.90375,0.92034 -2.96806,0.90269 -0.62314,-0.0103 -2.26407,-0.24852 -3.64652,-0.52931 z m -23.335977,-8.69446 c 0.43771,-0.0128 0.71756,-0.27811 0.99574,-0.9439 0.32244,-0.77172 0.52158,-0.92604 1.19495,-0.92604 0.71579,0 0.78714,-0.068 0.62504,-0.59531 -0.10064,-0.32743 -0.19796,-0.59532 -0.21626,-0.59532 -0.0183,0 -0.29956,-0.14883 -0.625,-0.33073 -0.61472,-0.34358 -2.37532,-0.44469 -3.0741,-0.17654 -0.23457,0.09 -0.335666,0.32655 -0.2429,0.56829 0.13187,0.34366 0.0277,0.37833 -0.612016,0.2038 -1.5183,-0.41419 -3.37602,-0.29578 -4.10999,0.26199 -0.63728,0.48428 -1.55538,1.78629 -1.55598,2.20661 -1.4e-4,0.0974 1.03278,0.153 2.29537,0.12368 1.26259,-0.0293 2.48309,0.0539 2.71223,0.18499 0.22913,0.13107 0.7738,0.19286 1.21036,0.13732 0.436556,-0.0555 1.067706,-0.10902 1.402556,-0.11884 z m 14.737017,-1.34078 c 0.20695,-0.33485 -0.1433,-0.33485 -0.66146,0 -0.34202,0.22104 -0.33504,0.25704 0.0505,0.26054 0.24608,0.002 0.52099,-0.11501 0.61093,-0.26054 z m -1.89547,-0.85989 c -0.0661,-0.10914 -0.50006,-0.19579 -0.96441,-0.19256 l -0.84429,0.006 0.64,0.49198 c 0.48147,0.37012 0.72035,0.41781 0.96441,0.19255 0.17844,-0.16468 0.27037,-0.38872 0.20429,-0.49786 z m 4.14443,0.0661 c 0,-0.14552 -0.12609,-0.26458 -0.2802,-0.26458 -0.15411,0 -0.20661,0.11906 -0.11668,0.26458 0.0899,0.14553 0.21603,0.26459 0.2802,0.26459 0.0642,0 0.11668,-0.11906 0.11668,-0.26459 z m -12.546317,-1.2883 c -0.0938,-0.15185 -0.34845,-0.20785 -0.56578,-0.12445 -0.31018,0.11903 -0.32784,0.23274 -0.0821,0.52882 0.35018,0.42195 0.93356,0.0578 0.6479,-0.40437 z m 10.262747,-0.47054 c -1.02254,-0.61898 -2.21435,-0.829 -2.21435,-0.39022 0,0.37595 0.59655,0.76116 1.5875,1.02509 1.47069,0.39171 1.78944,0.0689 0.62685,-0.63487 z m 4.9294,-1.00367 c 0,-0.0642 -0.11906,-0.19026 -0.26458,-0.28019 -0.14552,-0.0899 -0.26458,-0.0374 -0.26458,0.11667 0,0.15411 0.11906,0.2802 0.26458,0.2802 0.14552,0 0.26458,-0.0525 0.26458,-0.11668 z m -2.52331,-0.78714 c -0.45779,-0.69867 -1.18085,-1.09769 -1.18085,-0.65164 0,0.29905 1.05374,1.26738 1.39516,1.28208 0.11249,0.005 0.0161,-0.27886 -0.21431,-0.63044 z m -2.44877,-2.69266 c -0.24635,-0.4402 -1.91498,-1.69519 -2.25393,-1.69519 -0.13422,0 -0.1818,0.23801 -0.10573,0.52891 0.15003,0.57369 -0.2005,0.97109 -0.4708,0.53374 -0.28168,-0.45576 -0.97483,-0.3069 -0.87935,0.18886 0.0621,0.32232 0.39176,0.48105 1.11433,0.5365 0.5644,0.0433 1.20522,0.17894 1.42404,0.3014 0.58587,0.32787 1.4187,0.0476 1.17144,-0.39422 z m -29.42374,16.43634 c -0.509323,-0.19912 -1.372526,-0.4365 -1.91823,-0.52752 -0.608938,-0.10156 -0.992187,-0.31221 -0.992187,-0.54533 0,-0.46835 1.094076,-0.76931 1.984375,-0.54586 0.519588,0.13041 0.660589,0.0656 0.657407,-0.30205 -0.0048,-0.55506 -0.167341,-0.79421 -1.097758,-1.61521 -0.594364,-0.52446 -0.788503,-0.5708 -1.282883,-0.30621 -0.788995,0.42225 -1.15696,-0.003 -0.64056,-0.74023 0.409837,-0.58512 1.702336,-0.82804 1.702336,-0.31995 0,0.14552 0.119062,0.26458 0.264583,0.26458 0.328332,0 1.322917,0.97331 1.322917,1.29461 0,0.12996 0.161334,0.29819 0.35852,0.37386 0.197186,0.0757 0.428019,0.56587 0.512969,1.08934 0.0849,0.52347 0.34143,1.13874 0.56995,1.36727 0.43803,0.43803 0.33131,0.91137 -0.20028,0.88837 -0.17332,-0.007 -0.731836,-0.17655 -1.241159,-0.37567 z m 1.413349,-1.9258 c -0.51874,-1.52459 -1.513346,-3.29446 -2.048364,-3.64502 -0.441283,-0.28914 -0.935055,-0.3566 -1.706794,-0.2332 -0.994693,0.15906 -1.107536,0.11669 -1.343746,-0.5046 -0.364217,-0.95796 -1.171608,-1.31409 -2.485815,-1.09646 -1.473777,0.24404 -2.030713,0.56589 -2.030713,1.1735 0,0.66708 -0.457977,0.92393 -0.937632,0.52585 -0.546721,-0.45374 -0.480505,-0.89495 0.267772,-1.78423 0.487355,-0.57918 1.05171,-0.86071 2.22422,-1.10953 0.86414,-0.18339 1.678165,-0.2673 1.808944,-0.18647 0.130779,0.0808 0.66816,0.0499 1.19418,-0.0687 1.071684,-0.2417 2.321682,-0.0841 2.321682,0.29279 0,0.13613 -0.344181,0.36749 -0.764846,0.51413 -0.556648,0.19405 -0.730319,0.39866 -0.638006,0.75167 0.103405,0.39542 0.312546,0.46012 1.131949,0.35022 0.871116,-0.11684 1.130996,-0.0161 1.949401,0.75593 1.232468,1.16257 2.264508,3.1551 2.094588,4.04397 -0.14855,0.77708 -0.80025,0.91549 -1.03682,0.2202 z m 5.465818,0.19844 c 0,-0.14552 -0.13045,-0.26458 -0.28989,-0.26458 -0.15944,0 -0.61785,-0.23354 -1.0187,-0.51897 -0.55353,-0.39414 -0.97174,-0.47954 -1.73884,-0.35505 -0.885038,0.14362 -0.988168,0.10693 -0.833388,-0.29643 0.0972,-0.25318 0.17665,-0.51307 0.17665,-0.57753 0,-0.0645 0.29374,-0.22888 0.652748,-0.36538 0.46128,-0.17538 0.92693,-0.13361 1.5875,0.14239 0.51411,0.21481 0.93475,0.28445 0.93475,0.15475 0,-0.45934 -0.75358,-2.03029 -1.31823,-2.74803 -0.46029,-0.58509 -0.71142,-0.6945 -1.28081,-0.55802 -0.389538,0.0934 -0.923708,0.39375 -1.187038,0.66751 -0.49569,0.5153 -0.97642,0.44221 -0.97642,-0.14846 0,-0.55752 1.42133,-2.25592 1.89659,-2.26631 0.709028,-0.0155 1.278408,0.28328 1.278408,0.67082 0,0.19759 0.26296,0.49999 0.58436,0.67199 0.82141,0.43961 1.49748,1.34087 1.33109,1.77447 -0.0773,0.20134 -2e-4,0.45277 0.17125,0.55873 0.17146,0.10596 0.35117,0.63219 0.39938,1.16939 0.0482,0.53721 0.30749,1.21967 0.5762,1.51658 0.41849,0.46243 0.43315,0.5749 0.1022,0.78423 -0.51188,0.32378 -1.04781,0.31759 -1.04781,-0.0121 z m 9.127816,-2.11716 c -0.0901,-0.14579 0.14099,-0.38097 0.51355,-0.52262 0.37256,-0.14165 0.67738,-0.38657 0.67738,-0.54429 0,-0.15771 0.11121,-0.21801 0.24714,-0.134 0.13593,0.084 0.70147,-0.02 1.25677,-0.23105 2.57862,-0.98022 6.015467,-1.10994 6.725947,-0.25386 0.32659,0.39352 0.3507,0.38822 -2.27674,0.49976 -0.727597,0.0309 -1.382447,0.082 -1.455207,0.11368 -0.0728,0.0316 -0.42994,0.10123 -0.79375,0.15464 -1.43296,0.21038 -1.75615,0.29655 -2.74429,0.73168 -1.15914,0.51043 -1.91018,0.5754 -2.1508,0.18606 z m -10.847606,-4.23284 c -0.0899,-0.14552 0.0816,-0.26458 0.38126,-0.26458 0.29963,0 0.54478,0.11906 0.54478,0.26458 0,0.14552 -0.17157,0.26458 -0.38126,0.26458 -0.2097,0 -0.45485,-0.11906 -0.54478,-0.26458 z"
       id="path11" />
  </g>
</svg>
