<?xml version="1.0" encoding="UTF-8" standalone="no"?>
<!-- Created with Inkscape (http://www.inkscape.org/) -->

<svg
   width="88.583641mm"
   height="64.026428mm"
   viewBox="0 0 88.583647 64.026421"
   version="1.1"
   id="svg1"
   inkscape:version="1.4.1-rc (06eac75fbf, 2025-03-29)"
   sodipodi:docname="field10.svg"
   xmlns:inkscape="http://www.inkscape.org/namespaces/inkscape"
   xmlns:sodipodi="http://sodipodi.sourceforge.net/DTD/sodipodi-0.dtd"
   xmlns="http://www.w3.org/2000/svg"
   xmlns:svg="http://www.w3.org/2000/svg">
  <sodipodi:namedview
     id="namedview1"
     pagecolor="#ffffff"
     bordercolor="#000000"
     borderopacity="0.25"
     inkscape:showpageshadow="2"
     inkscape:pageopacity="0.0"
     inkscape:pagecheckerboard="0"
     inkscape:deskcolor="#d1d1d1"
     inkscape:document-units="mm"
     inkscape:zoom="0.72248176"
     inkscape:cx="167.47828"
     inkscape:cy="121.11032"
     inkscape:window-width="1850"
     inkscape:window-height="1016"
     inkscape:window-x="0"
     inkscape:window-y="0"
     inkscape:window-maximized="1"
     inkscape:current-layer="layer1" />
  <defs
     id="defs1" />
  <g
     inkscape:label="Layer 1"
     inkscape:groupmode="layer"
     id="layer1"
     transform="translate(-60.589577,-116.68115)">
    <path
       style="fill:#000000"
       d="m 121.81837,180.45574 c -0.2466,-0.39901 1.11549,-2.86293 1.848,-3.34288 0.36267,-0.23764 0.65941,-0.59697 0.65941,-0.79851 0,-0.20155 0.25797,-0.36645 0.57326,-0.36645 0.3153,0 0.49492,-0.0783 0.39917,-0.17409 -0.20029,-0.2003 0.3005,-0.88424 0.64747,-0.88424 0.1277,0 0.23218,0.23813 0.23218,0.52917 0,0.29104 -0.11104,0.52916 -0.24675,0.52916 -0.13572,0 -0.31469,0.21403 -0.39771,0.47563 -0.083,0.26159 -0.61625,0.9746 -1.18493,1.58446 -0.56869,0.60986 -1.19269,1.46739 -1.38667,1.90562 -0.35118,0.79336 -0.84381,1.02693 -1.14343,0.54213 z m -11.19801,-2.44409 c -0.4633,-0.4633 -0.40382,-0.68798 0.47625,-1.79916 0.43656,-0.55121 0.79375,-1.10735 0.79375,-1.23588 0,-0.12853 0.38256,-0.64718 0.85013,-1.15255 0.63988,-0.69163 0.87161,-0.81515 0.93704,-0.49948 0.10524,0.50784 -1.18374,3.15249 -1.53651,3.15249 -0.13786,0 -0.25444,0.20836 -0.25907,0.46302 -0.008,0.43695 -0.5753,1.38906 -0.82774,1.38906 -0.064,0 -0.25922,-0.14287 -0.43385,-0.3175 z m 16.77903,-3.33666 c -0.096,-0.15539 0.36374,-0.83645 1.02172,-1.51346 0.65799,-0.67702 1.19634,-1.33908 1.19634,-1.47124 0,-0.13217 0.0938,-0.2403 0.20843,-0.2403 0.11464,0 0.62065,-0.3474 1.12448,-0.77199 1.18281,-0.9968 0.85275,-1.48174 -0.76163,-1.11902 -0.70639,0.15872 -1.10045,0.15506 -1.10045,-0.0102 0,-0.14678 -0.33161,-0.18465 -0.77125,-0.0881 -0.60856,0.13366 -0.79743,0.0683 -0.89535,-0.30971 -0.11364,-0.4387 -0.12669,-0.44006 -0.15479,-0.0161 -0.0309,0.46639 -0.57337,0.62591 -0.92674,0.27253 -0.10477,-0.10477 -0.44159,-0.19406 -0.74849,-0.19843 -0.30691,-0.004 -0.60435,-0.1454 -0.66098,-0.3134 -0.14093,-0.41803 2.69485,-0.57507 3.59643,-0.19917 0.43723,0.1823 0.94601,0.20286 1.37697,0.0556 0.92995,-0.31768 5.70568,-0.15855 5.5342,0.18441 -0.0728,0.14552 -0.51925,0.2525 -0.99219,0.23774 -0.47294,-0.0148 -0.85989,0.0613 -0.85989,0.16904 0,0.10773 -0.20836,0.17934 -0.46303,0.15913 -0.28641,-0.0227 -0.43709,0.12363 -0.39504,0.38372 0.0899,0.55628 -2.71546,3.38841 -3.80903,3.84533 -0.47301,0.19764 -0.96916,0.55436 -1.10256,0.79273 -0.15486,0.27673 -0.30565,0.33126 -0.41715,0.15085 z m -11.01111,-1.26453 c 0,-0.53893 3.60378,-4.17041 3.93528,-3.96553 0.28107,0.17371 1.21567,-0.82446 1.22054,-1.30355 0.002,-0.19278 0.28384,-0.67346 0.62642,-1.06819 0.34257,-0.39472 1.05977,-1.39368 1.59378,-2.21989 0.88199,-1.36461 1.00938,-1.46452 1.39071,-1.09078 0.52151,0.51112 0.35285,1.07288 -0.32211,1.07288 -0.54949,0 -0.72112,0.52348 -0.17639,0.53797 0.1819,0.005 0.0628,0.23229 -0.26459,0.50543 -0.32742,0.27315 -0.59531,0.6118 -0.59531,0.75256 0,0.14075 -0.17859,0.40414 -0.39687,0.58529 -0.46295,0.38421 -0.52918,1.05834 -0.10399,1.05834 0.16109,0 0.21927,-0.19185 0.12929,-0.42634 -0.11974,-0.31204 -0.0506,-0.38297 0.25792,-0.26458 0.23183,0.089 0.47131,0.16175 0.53217,0.16175 0.0609,0 0.11065,0.16569 0.11065,0.36819 0,0.20251 -0.31393,0.44699 -0.69762,0.54329 -0.38369,0.0963 -1.07954,0.46639 -1.54633,0.82243 -0.46679,0.35604 -0.95653,0.64381 -1.08832,0.6395 -0.13178,-0.004 -0.95398,0.76013 -1.82711,1.69876 -1.66267,1.7874 -2.77812,2.4268 -2.77812,1.59247 z m -15.61042,-0.23773 c 0,-0.32883 2.43632,-3.26954 3.34683,-4.03972 1.45578,-1.23141 1.4994,-1.26304 2.01099,-1.45837 0.25466,-0.0972 0.46302,-0.30457 0.46302,-0.46075 0,-0.49343 3.06778,-3.17224 3.63287,-3.17224 0.1491,0 0.41218,-0.17001 0.58464,-0.37781 0.17246,-0.2078 0.9145,-0.69204 1.64899,-1.07609 0.73448,-0.38405 1.60388,-0.98794 1.93199,-1.34198 0.32811,-0.35403 0.72371,-0.6437 0.87912,-0.6437 0.15541,0 0.35814,-0.23812 0.45051,-0.52917 0.0924,-0.29104 0.29304,-0.52916 0.44592,-0.52916 0.15289,0 0.68479,-0.35719 1.182,-0.79375 0.49722,-0.43656 1.01895,-0.79375 1.15941,-0.79375 0.14046,0 0.25538,-0.17527 0.25538,-0.38949 0,-0.24923 -0.54783,-0.54021 -1.52136,-0.80808 -0.83674,-0.23022 -2.00158,-0.59074 -2.58853,-0.80114 -0.58695,-0.2104 -1.28613,-0.38254 -1.55375,-0.38254 -0.40079,0 -0.42896,0.0694 -0.15979,0.39374 0.2661,0.32064 0.24031,0.42693 -0.13889,0.57244 -0.44837,0.17206 -3.92866,-0.51516 -5.01789,-0.99083 -0.91738,-0.40063 -2.10169,-0.49785 -2.51354,-0.20634 -0.33878,0.23978 -0.33192,0.26018 0.0469,0.13936 0.58473,-0.18652 3.65731,0.81938 3.65731,1.19732 0,0.10053 -0.11288,0.47966 -0.25084,0.84252 -0.25981,0.68336 -1.9141,1.65629 -2.35397,1.38443 -0.13759,-0.085 -0.31355,0.0106 -0.39102,0.21248 -0.24031,0.62623 -4.14792,2.30619 -4.14792,1.78327 0,-0.39208 0.77645,-1.09506 1.20952,-1.09506 0.20789,0 0.37798,-0.0962 0.37798,-0.21369 0,-0.11753 0.7739,-0.59885 1.71979,-1.0696 0.94588,-0.47075 1.71979,-1.01377 1.71979,-1.2067 0,-0.21774 -0.95193,-0.61487 -2.50986,-1.04706 -2.6831,-0.74434 -3.12833,-0.82383 -2.54482,-0.45435 0.20311,0.12861 0.29772,0.42034 0.21024,0.6483 -0.14281,0.37215 -0.2886,0.37458 -1.42762,0.0238 -2.50044,-0.77004 -2.45919,-0.76893 -2.45919,-0.0662 0,0.76604 -0.99805,1.71052 -2.64583,2.50383 -1.31372,0.63247 -3.20221,1.28306 -3.49501,1.20403 -0.10325,-0.0279 -0.38034,0.35524 -0.61575,0.85134 -0.23542,0.4961 -0.59743,0.96701 -0.80447,1.04646 -0.20704,0.0795 -0.37644,0.28499 -0.37644,0.45676 0,0.17177 -0.41672,0.71702 -0.92604,1.21166 -0.50933,0.49465 -0.92604,1.07482 -0.92604,1.28927 0,0.40342 -3.005,2.49504 -3.58459,2.49504 -0.55017,0 -0.64085,-0.71889 -0.14705,-1.16577 0.25631,-0.23195 0.6041,-0.42173 0.77288,-0.42173 0.42732,0 1.37126,-0.8449 1.37126,-1.22738 0,-0.17381 0.0893,-0.35571 0.19843,-0.40422 0.18852,-0.0838 0.73081,-0.69591 3.07182,-3.46743 0.74605,-0.88324 1.38263,-1.32729 2.362,-1.64763 0.73739,-0.24118 1.82561,-0.82339 2.41829,-1.29379 0.59267,-0.4704 1.4088,-1.06162 1.81362,-1.31383 0.8278,-0.51572 0.76951,-0.84258 -0.18271,-1.02461 -0.47643,-0.0911 -0.68001,0.0101 -0.77854,0.3869 -0.10992,0.42031 -0.33493,0.49727 -1.27702,0.43678 -0.62898,-0.0404 -1.52419,-0.22764 -1.98934,-0.41612 -0.59543,-0.24127 -0.89807,-0.25804 -1.02252,-0.0567 -0.11706,0.18941 -0.78686,0.22476 -1.98289,0.10465 -1.98254,-0.1991 -2.57918,-0.0444 -2.09205,0.5426 0.42691,0.51439 0.11375,0.86434 -0.64385,0.71952 -0.50611,-0.0967 -0.89995,0.14086 -1.81305,1.09381 -0.64157,0.66958 -1.33572,1.21924 -1.54257,1.22147 -0.3201,0.003 -0.31906,0.0401 0.007,0.2464 0.30051,0.19012 0.22961,0.28087 -0.3289,0.42105 -0.39158,0.0983 -0.65395,0.27258 -0.58303,0.38733 0.0709,0.11475 -0.0565,0.2798 -0.28318,0.36678 -0.22667,0.087 -0.34573,0.26558 -0.26459,0.39688 0.15739,0.25465 -0.43014,0.55876 -1.07951,0.55876 -0.48222,0 -0.21973,-1.07606 0.34259,-1.40438 0.20135,-0.11757 0.47596,-0.35569 0.61025,-0.52917 0.13428,-0.17347 0.74301,-0.88096 1.35273,-1.57218 1.05621,-1.19739 1.07887,-1.25781 0.47958,-1.27882 -0.34596,-0.0121 -0.92667,-0.0774 -1.29047,-0.14504 -0.3638,-0.0676 -1.01865,-0.16491 -1.45521,-0.21615 -0.43656,-0.0512 -0.91281,-0.13152 -1.05833,-0.17839 -0.14552,-0.0469 -0.56599,0.1165 -0.93436,0.36304 -0.44606,0.29852 -1.02051,0.41165 -1.71979,0.33866 -0.57751,-0.0603 -1.19885,-0.11644 -1.38075,-0.12483 -0.34972,-0.0161 -0.47135,-0.78761 -0.13229,-0.83916 0.10914,-0.0166 0.54753,-0.0707 0.9742,-0.12014 0.42668,-0.0495 1.10962,-0.22826 1.51767,-0.39728 0.40804,-0.16902 1.11667,-0.2523 1.57473,-0.18507 0.64907,0.0953 0.86102,0.0144 0.96059,-0.3663 0.10456,-0.39984 0.39037,-0.48854 1.57416,-0.48854 1.03881,0 1.4157,-0.0932 1.33747,-0.33073 -0.0599,-0.1819 -0.39724,-0.36631 -0.74965,-0.4098 -0.60171,-0.0743 -2.38128,-0.5968 -4.00282,-1.17537 -0.39394,-0.14056 -0.78146,-0.24188 -0.86116,-0.22514 -0.0797,0.0167 -0.58587,-0.15383 -1.12484,-0.37903 -0.53896,-0.22519 -2.0138,-0.4536 -3.27743,-0.50757 -1.26362,-0.054 -2.55095,-0.23378 -2.86073,-0.39957 -0.30978,-0.16578 -0.6809,-0.22871 -0.82471,-0.13982 -0.36817,0.22754 -1.24007,-0.0892 -1.40117,-0.509 -0.14892,-0.38809 0.32485,-0.39054 4.98088,-0.0257 3.23804,0.25371 3.10247,0.23488 3.50573,0.4868 0.1819,0.11364 0.33073,0.13587 0.33073,0.0494 0,-0.0865 0.26789,-0.01 0.59531,0.17083 0.32742,0.18042 0.89297,0.37055 1.25677,0.42251 0.3638,0.052 0.77457,0.20619 0.91281,0.34273 0.13825,0.13653 0.67403,0.25247 1.19063,0.25762 0.5166,0.005 1.23692,0.17953 1.60073,0.3875 0.3638,0.20797 0.91546,0.38235 1.22591,0.3875 0.33714,0.006 0.62022,0.22263 0.70293,0.53891 0.0762,0.29124 0.0504,0.47507 -0.0573,0.40851 -0.10769,-0.0666 -0.19581,0.0361 -0.19581,0.22817 0,0.25067 0.51008,0.36205 1.80799,0.39481 1.75526,0.0443 1.80798,0.0267 1.80798,-0.60336 0,-0.35694 -0.13528,-0.69408 -0.30063,-0.74919 -0.21773,-0.0726 -0.20743,-0.24944 0.0374,-0.6414 0.50971,-0.81618 0.12191,-2.24298 -0.93116,-3.42585 -0.9896,-1.11157 -1.30136,-2.13738 -1.1457,-3.7697 l 0.0978,-1.02559 -1.06165,0.064 c -0.60847,0.0367 -1.37455,-0.11843 -1.79468,-0.36343 -0.56241,-0.32796 -0.84259,-0.35904 -1.20371,-0.13351 -0.35121,0.21934 -0.58486,0.21044 -0.92061,-0.0351 -1.0018,-0.73254 -0.0431,-1.5488 1.67345,-1.42486 1.37845,0.0995 1.60326,-0.20808 0.49156,-0.67258 -1.11041,-0.46396 -1.7215,-1.11399 -1.96523,-2.09048 -0.24471,-0.98041 0.68808,-2.0243 1.8438,-2.06342 0.73697,-0.0249 0.69691,-0.0634 -0.4245,-0.40703 -0.77688,-0.23808 -1.5417,-0.72506 -2.05257,-1.30691 -0.762,-0.86787 -0.80636,-1.03199 -0.69083,-2.55596 0.0767,-1.01211 0.31116,-1.88405 0.61936,-2.30357 0.47631,-0.64836 0.4783,-0.74818 0.0502,-2.52711 -0.28848,-1.19868 -0.36625,-2.06818 -0.22044,-2.46462 0.12391,-0.33689 0.22529,-0.89035 0.22529,-1.2299 0,-0.66188 1.31855,-3.35037 1.9556,-3.98742 0.57414,-0.57414 1.64589,-0.91631 2.89027,-0.92274 0.98698,-0.005 1.15036,-0.0985 1.50413,-0.8599 0.34717,-0.74719 0.54259,-0.8646 1.56035,-0.93743 0.97923,-0.0701 1.38361,0.0683 2.55356,0.87412 1.63836,1.12838 2.57535,2.39152 3.19149,4.30237 0.24635,0.76398 0.53499,1.38906 0.64143,1.38906 0.246,0 0.51153,-0.97866 0.51622,-1.90261 0.002,-0.3916 0.10949,-0.77742 0.23889,-0.8574 0.1294,-0.08 0.31588,-0.4666 0.41441,-0.85917 0.0985,-0.39256 0.36385,-0.84882 0.58961,-1.0139 0.22576,-0.16507 0.45279,-0.79936 0.50452,-1.40952 0.12719,-1.50013 0.52268,-2.15948 1.29529,-2.15948 0.90551,0 3.27589,0.66237 4.36923,1.22092 0.50932,0.2602 1.10463,0.49869 1.32291,0.52998 2.23576,0.32046 4.2565,1.49705 4.49071,2.61472 0.0305,0.14553 0.21252,0.56224 0.40451,0.92605 0.79454,1.50561 1.25524,2.77408 1.28786,3.54597 0.0293,0.69338 -0.0586,0.81626 -0.57028,0.79761 -0.56309,-0.0205 -0.59335,0.0551 -0.43767,1.0932 0.24824,1.65537 -0.22817,1.67449 -1.74365,0.07 l -1.32769,-1.4057 -0.42605,0.60034 c -0.23432,0.33019 -0.45121,1.0148 -0.48196,1.52136 -0.051,0.84049 0.007,0.92101 0.66682,0.92101 0.87013,0 1.99802,0.55123 2.5094,1.22642 0.3586,0.47347 0.37401,0.47013 0.38209,-0.0827 0.009,-0.59212 0.97976,-1.52561 1.88647,-1.81339 0.66369,-0.21064 2.35528,0.34842 2.35528,0.77842 0,0.55338 -0.25948,0.641 -1.03333,0.3489 -0.60302,-0.22761 -0.86451,-0.18604 -1.42903,0.22721 -0.54841,0.40145 -1.28617,1.63906 -1.64218,2.75476 -0.0232,0.0728 -0.13452,0.34211 -0.24735,0.59856 -0.11282,0.25645 -0.12226,0.85176 -0.021,1.32292 0.10129,0.47115 0.17603,1.31419 0.16608,1.87342 -0.0141,0.7943 0.15821,1.19308 0.7877,1.82257 0.95061,0.95061 0.70703,1.55758 -0.41914,1.04446 -0.57021,-0.25981 -0.70439,-0.23878 -0.84695,0.13273 -0.11134,0.29014 0.0377,0.58432 0.43498,0.85829 1.31951,0.91006 1.92259,1.63825 1.78681,2.15747 -0.14898,0.5697 0.50291,2.09583 0.89524,2.09583 0.13487,0 0.24521,0.17057 0.24521,0.37904 0,0.48903 -0.98569,0.80438 -1.41099,0.45141 -0.44885,-0.37252 -2.29051,-0.25004 -2.29199,0.15243 -0.002,0.45422 -1.01606,0.94228 -1.62661,0.78262 -0.38558,-0.10083 -0.48015,-0.0246 -0.38077,0.30695 0.0727,0.2426 0.16691,1.54205 0.20931,2.88767 0.0424,1.34562 0.13662,2.46214 0.20938,2.48116 0.35978,0.094 1.63094,0.1976 3.24115,0.26402 1.51596,0.0625 1.78594,0.14565 1.78594,0.54981 0,0.26188 -0.14288,0.47614 -0.3175,0.47614 -0.23652,0 -0.24104,0.0765 -0.0177,0.29978 0.23866,0.23866 3.24563,0.53164 3.24563,0.31623 0,-0.0311 -0.23888,-0.46147 -0.53084,-0.95631 -0.52879,-0.89623 -0.50917,-2.38669 0.0359,-2.72353 0.12672,-0.0783 0.23041,-0.46392 0.23041,-0.85689 0,-0.43935 0.21402,-0.84815 0.55578,-1.06158 0.53964,-0.33702 0.51661,-0.38366 -0.79375,-1.60743 -1.01924,-0.95189 -1.35097,-1.44912 -1.35541,-2.03166 -0.003,-0.42423 -0.23872,-1.06898 -0.52329,-1.43278 -0.61867,-0.79092 -0.68169,-1.92529 -0.13229,-2.38125 0.21828,-0.18116 0.40508,-0.28503 0.41511,-0.23083 0.01,0.0542 0.0632,0.44262 0.11818,0.86316 0.15276,1.16851 0.29266,1.39622 1.10089,1.7919 1.4507,0.71021 1.78085,0.51742 2.03716,-1.1896 0.19896,-1.325 0.30196,-1.52515 0.72761,-1.41383 0.27271,0.0713 0.49584,0.0263 0.49584,-0.0999 0,-0.3059 -2.09172,-2.3667 -2.4022,-2.3667 -0.134,0 -0.24363,-0.25086 -0.24363,-0.55748 0,-0.38513 0.12186,-0.51071 0.39418,-0.40621 0.27196,0.10436 0.44365,-0.0714 0.55376,-0.567 0.0878,-0.39505 0.21034,-0.90859 0.27238,-1.1412 0.062,-0.23262 -0.0673,-0.7684 -0.28754,-1.19063 -0.42288,-0.81088 -0.50921,-1.63986 -0.24302,-2.33355 0.12496,-0.32562 0.56541,-0.41851 1.98438,-0.41851 1.03946,0 1.82378,-0.11379 1.82378,-0.26459 0,-0.14552 -0.29063,-0.26458 -0.64585,-0.26458 -0.82651,0 -1.01929,-0.32186 -0.56494,-0.94322 0.30536,-0.41761 0.42412,-0.43861 0.78528,-0.13888 0.35949,0.29836 0.42551,0.29019 0.42551,-0.0526 0,-0.48626 -1.24887,-1.58146 -2.36848,-2.07705 -0.44359,-0.19635 -0.80652,-0.54732 -0.80652,-0.77993 0,-0.60286 1.61015,-0.28959 2.49772,0.48596 0.37472,0.32742 0.85899,0.59531 1.07616,0.59531 0.40519,0 0.53891,-0.56151 0.21166,-0.88876 -0.10077,-0.10076 -0.22208,-0.44803 -0.2696,-0.7717 -0.17608,-1.19944 -0.65714,-2.30829 -1.00143,-2.30829 -0.19517,0 -0.75148,-0.4216 -1.23625,-0.93689 -0.65201,-0.69307 -1.0321,-0.89939 -1.46049,-0.79278 -0.72073,0.17936 -1.03605,-0.27234 -0.57658,-0.82598 0.2942,-0.35449 0.27324,-0.40154 -0.14216,-0.31913 -0.52999,0.10514 -2.33996,3.33026 -2.15575,3.84125 0.0605,0.16776 -0.0448,0.51664 -0.23392,0.77529 -0.32357,0.44251 -0.36286,0.4348 -0.66544,-0.13058 -0.2286,-0.42714 -0.24489,-0.80427 -0.0563,-1.30445 0.14588,-0.38698 0.33301,-1.01626 0.41584,-1.3984 0.23461,-1.08236 1.76421,-2.62925 2.81169,-2.84348 1.25828,-0.25734 3.1842,0.69002 4.07862,2.00628 0.37126,0.54636 0.67502,1.14433 0.67502,1.32883 0,0.21919 0.39668,0.33546 1.1445,0.33546 1.72103,0 2.31583,0.76295 2.44742,3.13931 0.0583,1.05315 -0.01,1.932 -0.1569,2.02288 -0.42966,0.26555 -0.29466,0.54342 0.28523,0.58711 0.29989,0.0226 0.79047,0.35282 1.09019,0.73384 0.32648,0.41506 0.70306,0.6321 0.93939,0.54141 0.31095,-0.11932 0.3578,-0.005 0.22133,0.53839 -0.0952,0.37937 -0.0542,0.83302 0.0911,1.00812 0.14532,0.17509 0.22355,0.66972 0.17385,1.09917 -0.0497,0.42944 -0.11334,1.25706 -0.14142,1.83914 -0.0281,0.58209 -0.11111,0.90951 -0.18451,0.72761 -0.18626,-0.46161 -0.53061,-0.41229 -0.72888,0.10441 -0.0944,0.24591 0.0294,0.65219 0.28474,0.93427 0.40116,0.44329 0.40738,0.54348 0.0555,0.89531 -0.35184,0.35184 -0.46542,0.33611 -1.01499,-0.14052 -0.9474,-0.82168 -1.47268,-0.70198 -1.4181,0.32318 0.0252,0.47295 0.0549,0.93036 0.0661,1.01647 0.0186,0.14269 1.83818,0.76948 2.23388,0.76948 0.0923,0 0.16774,-0.23812 0.16774,-0.52916 0,-0.29105 0.12697,-0.52917 0.28215,-0.52917 0.15519,0 0.24449,0.32742 0.19844,0.7276 -0.0593,0.5158 0.0703,0.80621 0.44545,0.99762 0.48636,0.24817 2.25427,2.61155 2.2449,3.00103 -0.002,0.0927 -0.11221,0.33948 -0.24441,0.5484 -0.19958,0.3154 -0.31138,0.32093 -0.65884,0.0326 -0.27566,-0.22877 -0.76969,-0.29114 -1.44758,-0.18274 -0.77765,0.12435 -1.06605,0.0682 -1.18035,-0.2296 -0.0832,-0.21679 -0.63148,-0.58632 -1.21843,-0.82116 -0.58694,-0.23485 -1.06717,-0.54164 -1.06717,-0.68176 0,-0.14011 -0.17859,-0.0762 -0.39687,0.14213 -0.21828,0.21828 -0.39688,0.44619 -0.39688,0.50646 0,0.0603 0.53602,0.38528 1.19116,0.72223 1.53841,0.79123 2.69535,2.23934 2.2336,2.79571 -0.20044,0.24152 -0.53774,0.32687 -0.88242,0.22327 -0.79894,-0.24012 -2.38651,-0.97667 -2.54234,-1.17951 -0.0728,-0.0947 -0.51976,-0.17037 -0.99333,-0.16813 -0.47357,0.002 -1.158,-0.15485 -1.52095,-0.34909 -0.36296,-0.19425 -0.73358,-0.27952 -0.82361,-0.18949 -0.09,0.09 -0.14955,1.49661 -0.13227,3.12574 0.021,1.98303 -0.0752,3.09051 -0.29115,3.35071 -0.26225,0.31599 -0.20737,0.48195 0.29348,0.88751 0.33882,0.27436 0.9898,0.52082 1.44662,0.54768 0.45682,0.0269 1.0717,0.0628 1.36639,0.0799 0.29469,0.0171 0.66378,0.11015 0.82021,0.20683 0.30703,0.18976 1.98139,0.40838 4.38589,0.57266 0.82972,0.0567 1.6467,0.18844 1.81552,0.29278 0.16882,0.10434 0.40362,0.0333 0.52178,-0.15791 0.15616,-0.25266 0.31069,-0.27001 0.56574,-0.0635 0.49792,0.40312 2.92833,0.70331 5.20012,0.64228 1.54973,-0.0416 2.1135,0.0559 2.80935,0.48595 0.4788,0.29591 1.10057,0.53802 1.38171,0.53802 0.28114,0 0.62428,0.10569 0.76252,0.23485 0.42651,0.3985 1.44198,0.61832 1.44198,0.31215 0,-0.15533 -0.17859,-0.28241 -0.39687,-0.28241 -0.55578,0 -0.49401,-0.41806 0.15048,-1.0185 0.51544,-0.4802 1.05,-0.50703 2.09848,-0.10531 0.21828,0.0836 0.4564,0.16742 0.52916,0.1862 1.83781,0.4742 3.29351,1.32556 3.02086,1.76672 -0.20322,0.32881 -1.37124,0.2833 -1.48496,-0.0579 -0.12468,-0.37405 -2.38472,-0.4596 -2.50893,-0.095 -0.0523,0.15367 0.32376,0.44379 0.8358,0.6447 0.90867,0.35653 1.19498,0.86588 0.66933,1.19075 -0.14391,0.0889 -0.68877,-0.041 -1.21081,-0.28869 -0.52203,-0.24772 -1.26749,-0.4623 -1.65657,-0.47683 -0.38977,-0.0146 -0.68053,-0.16651 -0.64753,-0.3384 0.0342,-0.17806 -0.93114,-0.63233 -2.24896,-1.05833 -2.53857,-0.82062 -4.09247,-0.87295 -3.97012,-0.13371 0.0516,0.31192 -0.085,0.4236 -0.4554,0.37209 -0.48992,-0.0681 -1.14001,-0.21604 -1.45521,-0.33107 -0.0728,-0.0265 -0.4456,-0.0282 -0.82854,-0.004 -0.38294,0.0246 -1.15684,-0.154 -1.71979,-0.39685 -1.16411,-0.50217 -4.93674,-0.97191 -5.88806,-0.73315 l -0.63285,0.15884 0.76431,0.32225 c 0.43846,0.18486 0.88819,0.2255 1.05487,0.0953 0.1781,-0.13908 0.47562,-0.0224 0.76862,0.30131 0.26292,0.29053 0.69068,0.52823 0.95058,0.52823 0.47675,0 0.93098,0.45475 0.69247,0.69326 -0.19432,0.19432 -2.43765,0.0563 -2.43765,-0.14998 0,-0.0294 -0.26657,-0.10317 -0.59238,-0.16395 -0.32581,-0.0608 -0.98066,0.1262 -1.45521,0.41554 -0.47455,0.28934 -1.13072,0.52652 -1.45814,0.52706 -0.32742,5.5e-4 -0.59531,0.11203 -0.59531,0.24774 0,0.13572 -0.20836,0.31406 -0.46302,0.39632 -0.25466,0.0823 -1.20954,0.86419 -2.12196,1.73762 -0.91241,0.87343 -1.72128,1.58806 -1.79748,1.58806 -0.0762,0 -0.45956,0.29766 -0.85191,0.66146 -0.39234,0.3638 -0.85066,0.66146 -1.01847,0.66146 -0.16782,0 -0.37366,0.17859 -0.45742,0.39687 -0.0838,0.21828 -0.31963,0.39688 -0.52415,0.39688 -0.78653,0 -2.81202,1.3961 -4.32142,2.9786 -0.86642,0.90838 -2.02204,1.94926 -2.56804,2.31306 -1.30687,0.87077 -2.39765,1.99212 -3.28102,3.37297 -0.55984,0.87511 -0.88019,1.12411 -1.44667,1.12448 -0.40019,2.6e-4 -0.72761,-0.0577 -0.72761,-0.12887 z m 20.05617,-16.93628 c -0.0441,-0.14552 -0.18196,-0.23064 -0.30641,-0.18916 -0.12446,0.0415 -0.38714,-0.0581 -0.58373,-0.22121 -0.19659,-0.16316 -0.49779,-0.2099 -0.66935,-0.10387 -0.21057,0.13014 -0.10688,0.30756 0.31914,0.54606 0.70157,0.39276 1.36377,0.37577 1.24035,-0.0318 z m -2.59367,-0.66146 c -0.51815,-0.33486 -0.86841,-0.33486 -0.66146,0 0.0899,0.14552 0.36486,0.26276 0.61093,0.26053 0.38557,-0.003 0.39256,-0.0395 0.0505,-0.26053 z m 23.54792,-0.1606 c 0,-0.0572 -0.17859,-0.10399 -0.39688,-0.10399 -0.21828,0 -0.39687,0.11533 -0.39687,0.25628 0,0.14096 0.17859,0.18775 0.39687,0.10399 0.21829,-0.0838 0.39688,-0.19909 0.39688,-0.25628 z m -22.10594,-1.45328 c 0.46492,-0.0226 0.44791,-0.0566 -0.11906,-0.23821 -0.3638,-0.11651 -0.87083,-0.2237 -1.12672,-0.2382 -0.39811,-0.0226 -0.41816,0.0491 -0.13892,0.49618 0.212,0.33946 0.41674,0.43217 0.58433,0.26459 0.14188,-0.14189 0.50205,-0.26985 0.80037,-0.28436 z m -3.7049,-0.2608 c -0.0852,-0.13784 -0.26767,-0.18092 -0.40551,-0.0957 -0.13784,0.0852 -0.18092,0.26767 -0.0957,0.40551 0.0852,0.13784 0.26767,0.18091 0.40551,0.0957 0.13784,-0.0852 0.18092,-0.26766 0.0957,-0.4055 z m -6.73291,-0.50912 c 0,-0.11298 -0.17859,-0.27395 -0.39688,-0.35772 -0.21828,-0.0838 -0.39687,-0.10623 -0.39687,-0.0499 0,0.0563 -0.0689,0.28199 -0.15319,0.50156 -0.11505,0.29979 -0.0162,0.36338 0.39687,0.25536 0.30254,-0.0791 0.55007,-0.23628 0.55007,-0.34926 z m 1.25673,-0.15183 c -0.25213,-0.25213 -0.75763,0.15626 -0.56973,0.4603 0.11169,0.18071 0.25968,0.17614 0.4497,-0.0139 0.15578,-0.15577 0.20979,-0.35666 0.12003,-0.44642 z m -12.56767,-0.0208 c -0.1819,-0.0734 -0.33073,-0.29197 -0.33073,-0.4857 0,-0.5509 -6.08679,-1.05475 -6.26549,-0.51865 -0.0499,0.14984 0.11897,0.29062 0.37536,0.31285 0.2564,0.0222 1.32668,0.0999 2.37841,0.17249 1.05173,0.0726 2.1233,0.25494 2.38125,0.40511 0.25796,0.15017 0.76667,0.26726 1.13047,0.26019 0.3638,-0.007 0.51263,-0.0729 0.33073,-0.14629 z m 4.3342,-1.14769 c 0.61188,0 0.64924,-0.0801 0.59471,-1.2752 -0.032,-0.70136 0.0287,-1.41574 0.13484,-1.58752 0.30641,-0.49578 0.4446,-5.07478 0.15315,-5.07478 -0.14078,0 -0.25596,-0.1915 -0.25596,-0.42556 0,-0.32279 0.16112,-0.38511 0.66727,-0.25808 0.69269,0.17385 0.73969,0.11866 1.02883,-1.20815 0.10296,-0.47249 0.41218,-0.79159 0.94814,-0.97842 0.96647,-0.33692 0.98295,-0.47794 0.13388,-1.14581 -0.3638,-0.28617 -0.66145,-0.63072 -0.66145,-0.76568 0,-0.32907 0.96892,-0.31185 1.60489,0.0285 0.40267,0.21551 0.51177,0.1873 0.51177,-0.13229 0,-0.25426 -0.24157,-0.40618 -0.64584,-0.40618 -0.35521,0 -0.70951,-0.10302 -0.78733,-0.22893 -0.19136,-0.30964 -1.83744,-0.55947 -2.51638,-0.38192 -0.3016,0.0789 -0.54836,0.29352 -0.54836,0.47702 0,0.18349 -0.1628,0.46872 -0.36177,0.63386 -0.51367,0.4263 -0.98624,-0.21225 -0.77187,-1.04297 0.22472,-0.87088 0.8253,-1.2906 1.86124,-1.30073 0.98266,-0.01 1.09578,-0.26299 0.33073,-0.74077 -0.29104,-0.18175 -0.52917,-0.46891 -0.52917,-0.63812 0,-0.16921 -0.19025,-0.51788 -0.42279,-0.77483 -0.54495,-0.60216 -0.22639,-1.11718 0.56773,-0.91787 0.33901,0.0851 0.69323,0.0304 0.78716,-0.12162 0.0939,-0.15197 0.41306,-0.19942 0.7092,-0.10543 0.29613,0.094 0.79213,0.0418 1.10221,-0.11607 0.31008,-0.15782 0.90692,-0.4115 1.32631,-0.56373 0.69565,-0.25249 0.7274,-0.31678 0.36202,-0.73306 -0.22027,-0.25096 -0.48213,-0.72418 -0.58191,-1.05161 -0.0998,-0.32742 -0.37044,-0.59531 -0.60147,-0.59531 -0.37718,0 -0.37536,0.0494 0.0178,0.48386 0.54603,0.60336 0.56896,1.36823 0.041,1.36823 -0.21828,0 -0.39687,-0.1055 -0.39687,-0.23444 0,-0.12894 -0.41672,-0.43218 -0.92604,-0.67387 -0.50933,-0.24169 -0.92604,-0.5338 -0.92604,-0.64914 0,-0.11533 -0.29766,-0.34532 -0.66146,-0.51108 -0.3638,-0.16576 -0.66328,-0.51229 -0.66551,-0.77007 -0.007,-0.82123 -0.46971,-1.24457 -1.36992,-1.25363 -0.74462,-0.007 -0.88698,-0.11219 -0.95545,-0.70262 -0.0534,-0.46017 0.0704,-0.75169 0.3675,-0.8657 0.52742,-0.20239 2.75201,0.80568 2.76371,1.25238 0.004,0.16892 0.13734,0.0846 0.29537,-0.1874 0.17053,-0.29352 0.18846,-0.56239 0.0441,-0.66146 -0.13375,-0.0918 -0.2369,-0.58113 -0.22921,-1.08736 0.0123,-0.80903 -0.10611,-0.9774 -0.97822,-1.39115 -0.60233,-0.28576 -0.99218,-0.65702 -0.99218,-0.94488 0,-0.79789 -0.57175,-1.10917 -2.0373,-1.10917 -0.77126,0 -1.40229,-0.0953 -1.40229,-0.21166 0,-0.54858 0.76832,-0.84667 2.18222,-0.84667 1.33484,0 1.63663,0.0965 2.19867,0.70293 0.80742,0.87122 1.11629,0.65266 0.51534,-0.36467 -0.30449,-0.51545 -0.94595,-0.95018 -2.01198,-1.36354 -1.62596,-0.63048 -1.86254,-1.22937 -0.4056,-1.02673 0.45575,0.0634 0.99236,0.16407 1.19245,0.22373 0.78913,0.23532 0.52835,-0.50104 -0.28769,-0.81234 -0.47843,-0.18251 -1.24505,-0.49647 -1.7036,-0.69769 -0.91153,-0.39999 -2.20897,-0.49056 -2.20897,-0.15419 0,0.3739 0.6205,0.84667 1.11125,0.84667 0.30136,0 0.47625,0.19617 0.47625,0.5342 0,0.4249 -0.12419,0.50304 -0.60689,0.38189 -0.40735,-0.10224 -0.75877,0.0155 -1.06882,0.35811 -0.57504,0.63541 -1.49929,3.11786 -1.49929,4.02696 0,0.37313 -0.10489,0.79153 -0.23309,0.92977 -0.43129,0.4651 0.49101,5.67532 1.00464,5.67532 0.12209,0 0.37021,-0.1786 0.55136,-0.39688 0.43947,-0.52953 2.21754,-0.51606 2.66257,0.0202 0.47578,0.57327 -0.0838,0.90465 -1.21716,0.72074 -0.5007,-0.0813 -0.9267,-0.012 -1.03845,0.16882 -0.14339,0.23201 -0.28029,0.23123 -0.5628,-0.003 -0.49498,-0.41079 -0.47306,-0.11405 0.0506,0.68515 0.35614,0.54355 0.51045,0.60068 0.96516,0.35732 0.50597,-0.27078 0.53001,-0.2335 0.36887,0.57221 -0.10012,0.50059 -0.0498,1.00956 0.12001,1.21418 0.2187,0.26352 0.15226,0.64176 -0.26362,1.50087 -0.71595,1.47895 -0.7184,3.16981 -0.006,4.32206 0.30236,0.48922 0.69353,0.97952 0.86927,1.08956 0.54555,0.34159 2.24052,2.56175 2.52301,3.30476 0.22056,0.5801 0.19965,0.67999 -0.11692,0.55851 -0.21203,-0.0814 -0.38551,-0.25426 -0.38551,-0.38421 0,-0.12995 -0.11906,-0.23627 -0.26458,-0.23627 -0.14552,0 -0.26458,0.41671 -0.26458,0.92604 0,0.50932 -0.13238,0.92604 -0.29417,0.92604 -0.20699,0 -0.24928,0.84293 -0.14268,2.84427 0.0833,1.56435 0.15617,2.9463 0.16188,3.07101 0.006,0.12471 0.19871,0.15448 0.4289,0.0661 0.23018,-0.0883 0.71232,-0.1606 1.07141,-0.1606 z m -4.28389,-2.53786 c -0.24757,-0.98719 -0.47669,-2.75478 -0.50914,-3.92799 -0.0567,-2.04893 -0.0828,-2.13038 -0.66166,-2.06392 -0.33244,0.0382 -0.76126,-0.13979 -0.95637,-0.39688 -0.32935,-0.43397 -0.35428,-0.4259 -0.36212,0.11723 -0.005,0.32081 0.29804,0.88974 0.67259,1.26429 0.37455,0.37455 0.6323,0.82644 0.57278,1.00421 -0.19885,0.59391 -2.52546,0.12224 -2.97358,-0.60283 -0.10103,-0.16347 -0.44002,-0.40866 -0.7533,-0.54485 -0.31329,-0.1362 -0.77469,-0.39407 -1.02535,-0.57305 -1.08815,-0.77698 -1.58003,1.51105 -1.10859,5.15667 0.22448,1.73591 0.65196,1.96972 3.70539,2.02664 1.38365,0.0258 2.77763,0.14603 3.09775,0.26719 0.32011,0.12117 0.62021,0.18607 0.66688,0.14424 0.0467,-0.0418 -0.1177,-0.88377 -0.36528,-1.87095 z m 17.17928,1.41338 c 0.2564,-0.95673 0.19422,-1.25069 -0.23011,-1.08787 -0.22623,0.0868 -0.39687,0.48142 -0.39687,0.91774 0,0.90773 0.40021,1.01632 0.62698,0.17013 z m -0.73172,-5.94761 c -0.26895,-0.26895 -0.49086,0.13597 -0.27019,0.49302 0.16669,0.26972 0.22902,0.26993 0.31864,0.001 0.0613,-0.18383 0.0395,-0.40617 -0.0485,-0.49409 z M 95.42462,144.4101 c -0.13215,-0.39646 -0.591,-0.28274 -0.68525,0.16983 -0.0589,0.2828 0.0471,0.35907 0.34191,0.24596 0.23501,-0.0902 0.38951,-0.27729 0.34334,-0.41579 z m 10.64491,0.068 c 0,-0.35728 -0.48232,-0.60496 -0.79807,-0.40982 -0.14789,0.0914 -0.2004,0.27703 -0.11667,0.41249 0.19861,0.32137 0.91474,0.31928 0.91474,-0.003 z m -17.4625,-1.02985 c 0,-1.00745 -0.20731,-1.15215 -0.9518,-0.66435 l -0.62656,0.41054 0.59074,0.49293 c 0.81011,0.67598 0.98762,0.633 0.98762,-0.23912 z m 20.10833,0.33984 c 0,-0.18844 -2.14817,-1.16429 -2.57968,-1.17187 -0.18191,-0.003 -0.33073,0.11325 -0.33073,0.25877 0,0.14552 0.16498,0.26458 0.36663,0.26458 0.20164,0 0.70766,0.17786 1.12448,0.39525 0.76933,0.40123 1.4193,0.51722 1.4193,0.25327 z m -22.48958,-1.14938 c 0,-0.6589 -0.66647,-0.89734 -1.08812,-0.38929 -0.27012,0.32547 -0.26127,0.44674 0.0468,0.64168 0.61408,0.38858 1.04132,0.28502 1.04132,-0.25239 z m 8.13594,-0.0944 c -0.0606,-0.1819 -0.23923,-0.33073 -0.39688,-0.33073 -0.15765,0 -0.37593,-0.0893 -0.48507,-0.19844 -0.31892,-0.31892 -0.63941,-0.22918 -0.63941,0.17904 0,0.35215 0.44318,0.57746 1.27882,0.65017 0.19403,0.0169 0.30317,-0.11814 0.24254,-0.30004 z m 4.66804,-0.0878 c 0.28204,-0.73497 0.18014,-0.87675 -0.75642,-1.05245 -0.56233,-0.1055 -0.97769,-0.3632 -1.07389,-0.66628 -0.15628,-0.4924 -2.96982,-3.05878 -3.13691,-2.86134 -0.0483,0.0571 -0.15689,0.46775 -0.2413,0.91259 -0.13776,0.72604 -0.0537,0.86114 0.82189,1.32039 0.53645,0.28137 1.03489,0.58541 1.10765,0.67564 0.0728,0.0902 0.48976,0.34707 0.92667,0.57075 0.4369,0.22369 1.0209,0.65702 1.29777,0.96296 0.60212,0.66533 0.84016,0.69643 1.05454,0.13774 z m 11.00852,0.30184 c 0,-0.0642 -0.11906,-0.19026 -0.26458,-0.2802 -0.14552,-0.0899 -0.26459,-0.0374 -0.26459,0.11668 0,0.15411 0.11907,0.2802 0.26459,0.2802 0.14552,0 0.26458,-0.0525 0.26458,-0.11668 z m 10.05417,-0.67707 c 0,-0.14552 -0.1786,-0.26458 -0.39688,-0.26458 -0.21828,0 -0.39687,-0.0963 -0.39687,-0.21402 0,-0.11771 -0.16042,-0.43339 -0.35648,-0.70152 -0.31877,-0.43595 -0.44155,-0.44984 -1.16106,-0.13136 l -0.80458,0.35615 1.2272,0.58909 c 1.37074,0.65798 1.88867,0.75842 1.88867,0.36624 z m 4.21758,-0.37478 c -0.20962,-0.1992 -0.67878,-0.4468 -1.04258,-0.55023 -0.64263,-0.1827 -0.6464,-0.17622 -0.1323,0.22777 0.29105,0.2287 0.678,0.41961 0.8599,0.42424 0.1819,0.005 0.33073,0.14732 0.33073,0.3171 0,0.16977 0.0822,0.22647 0.18269,0.12599 0.10048,-0.10048 0.0112,-0.34567 -0.19844,-0.54487 z m -33.61941,0.20941 c 0.64754,-0.1295 0.82683,-0.30162 0.82683,-0.79375 0,-0.60253 -0.82089,-1.68671 -1.2771,-1.68671 -0.12031,0 -0.17067,-0.32763 -0.1119,-0.72805 0.0902,-0.61451 -0.0216,-0.77655 -0.71708,-1.03905 -0.72311,-0.27294 -0.86291,-0.2486 -1.14237,0.19888 -0.46005,0.73665 -1.24947,0.66135 -1.24947,-0.11918 0,-0.72977 0.38252,-1.10973 1.36562,-1.35647 0.7514,-0.18859 2.07396,0.46908 2.07396,1.03131 0,0.19408 0.40265,0.28532 1.08967,0.24692 1.2375,-0.0692 1.16791,-0.03 1.40092,-0.78912 0.15421,-0.50239 0.0478,-0.59188 -0.89242,-0.75073 -0.58713,-0.0992 -1.32491,-0.38879 -1.63952,-0.64354 -0.71638,-0.58009 -0.42251,-1.18544 0.46709,-0.96216 0.59355,0.14897 0.6326,0.0886 0.6326,-0.97803 0,-1.47641 -0.61124,-2.37012 -1.54694,-2.26183 -0.54847,0.0635 -0.72067,0.2439 -0.78729,0.82486 -0.0469,0.40898 0.0527,0.90978 0.22122,1.11289 0.34417,0.4147 0.13987,0.92163 -0.37144,0.92163 -0.69669,0 -1.37905,-2.27373 -0.87343,-2.91042 0.47648,-0.60001 1.78281,-1.2021 2.38644,-1.09992 0.29472,0.0499 0.81245,0.27194 1.15052,0.49345 0.59487,0.38978 0.61467,0.37782 0.61467,-0.3712 0,-0.51704 -0.28544,-1.06483 -0.8599,-1.65022 -0.47294,-0.48194 -1.09802,-1.36726 -1.38906,-1.96738 -0.29104,-0.60012 -0.82683,-1.23708 -1.19063,-1.41547 -0.3638,-0.17839 -0.67359,-0.53606 -0.68843,-0.79482 -0.0148,-0.25876 -0.0446,-0.7713 -0.0661,-1.13896 -0.06,-1.02317 -1.97021,-2.18741 -3.30985,-2.01726 -1.11496,0.14161 -2.55016,1.29048 -2.55016,2.04139 0,0.24599 -0.15945,0.5796 -0.35434,0.74134 -0.49899,0.41412 -0.53769,4.57959 -0.0533,5.73884 0.20222,0.48398 0.79287,1.15485 1.31256,1.49082 0.51969,0.33597 1.01296,0.81921 1.09616,1.07387 0.0832,0.25466 0.2623,0.46302 0.39802,0.46302 0.13571,0 0.24675,0.23813 0.24675,0.52917 0,0.38663 -0.17639,0.52917 -0.65484,0.52917 -0.59493,0 -0.64034,0.0787 -0.49632,0.85989 0.0872,0.47294 0.43707,1.07503 0.77751,1.33797 0.48087,0.3714 0.58532,0.64639 0.46813,1.23238 -0.12151,0.60754 -0.0296,0.81835 0.47264,1.08352 0.93351,0.49292 1.86556,1.58517 1.70646,1.99977 -0.0772,0.2011 0.008,0.36563 0.18959,0.36563 0.18144,0 0.74325,0.29182 1.24847,0.64849 1.05396,0.74406 0.98531,0.72723 2.07612,0.50906 z M 85.49818,129.7835 c -0.48337,-0.55521 -0.42393,-2.23515 0.086,-2.43083 0.69246,-0.26572 2.44388,0.39654 2.63415,0.99605 0.23802,0.74991 0.0222,0.87646 -0.92902,0.54485 -0.78606,-0.27402 -0.81288,-0.25872 -0.74111,0.42303 0.085,0.80766 -0.51938,1.07641 -1.05002,0.4669 z m 0.19843,10.47942 c 0,-0.49302 -3.03458,-1.26873 -3.29772,-0.84296 -0.0973,0.15746 0.0365,0.28083 0.30555,0.28181 0.26325,9.6e-4 0.81726,0.22501 1.23115,0.49788 0.68011,0.4484 1.76102,0.48724 1.76102,0.0633 z m 7.14154,-0.55593 c 0.45918,-0.2903 0.17715,-0.64841 -0.72539,-0.92109 -0.47164,-0.1425 -0.59531,-0.0754 -0.59531,0.32304 0,0.84873 0.53849,1.09258 1.3207,0.59805 z m 26.55908,-0.86686 c -0.50337,-0.84385 -1.82944,-2.2577 -2.01181,-2.14499 -0.36036,0.22271 -0.21616,1.15281 0.17873,1.15281 0.21017,0 0.71618,0.29389 1.12448,0.65309 0.84232,0.74104 0.99072,0.81206 0.7086,0.33909 z m -2.91652,-1.39753 c -0.13216,-0.3444 -0.6216,-0.5631 -0.6216,-0.27775 0,0.39309 0.3577,0.92136 0.54534,0.80539 0.12391,-0.0766 0.15823,-0.31402 0.0763,-0.52764 z m -9.35285,0.30136 c 0,-0.0572 -0.18478,-0.17489 -0.41061,-0.26155 -0.23546,-0.0904 -0.34167,-0.046 -0.24897,0.10398 0.15538,0.25141 0.65958,0.37186 0.65958,0.15757 z M 97.0737,136.68872 c 0,-0.39149 -1.62976,-1.75119 -2.09902,-1.75119 -0.54158,0 -0.27502,0.48373 0.70995,1.28838 1.1075,0.90474 1.38907,0.99855 1.38907,0.46281 z m 8.79739,-0.003 c 0.5877,-0.44612 0.58086,-0.57218 -0.0661,-1.21918 -0.6768,-0.6768 -1.04725,-0.6762 -0.87005,0.001 0.0763,0.29182 6.7e-4,0.69696 -0.1681,0.90032 -0.23505,0.28321 -0.22688,0.40182 0.0349,0.50687 0.50717,0.2035 0.56536,0.19319 1.06937,-0.18941 z m 17.52865,-0.69002 c 0.0899,-0.14552 -0.0887,-0.26458 -0.39688,-0.26458 -0.30822,0 -0.48681,0.11906 -0.39687,0.26458 0.0899,0.14552 0.26853,0.26459 0.39687,0.26459 0.12835,0 0.30694,-0.11907 0.39688,-0.26459 z m -4.98461,-0.74681 c -0.24164,-0.26702 -0.44309,-0.59517 -0.44767,-0.72923 -0.0141,-0.41449 -1.32101,-1.22394 -1.72549,-1.06873 -0.60139,0.23077 -0.45121,0.60018 0.38476,0.94645 0.42219,0.17487 1.03781,0.60557 1.36805,0.95709 0.68797,0.73231 1.08775,0.63189 0.42035,-0.10558 z m -20.44757,-0.64225 c 0.13219,-0.55103 0.077,-0.7276 -0.22736,-0.7276 -0.40514,0 -0.57484,1.0618 -0.22553,1.41111 0.22341,0.2234 0.24208,0.19522 0.45289,-0.68351 z m -15.64438,-0.12702 c 0.58515,-0.16825 0.5793,-0.27431 -0.0742,-1.34623 -0.9105,-1.49341 -1.92411,-0.66369 -1.45799,1.19349 0.12369,0.4928 0.27907,0.61169 0.61724,0.47224 0.24857,-0.10251 0.6603,-0.24628 0.91497,-0.3195 z m 37.64208,-0.84907 c -0.0965,-0.30412 -0.28631,-0.48446 -0.42175,-0.40076 -0.14811,0.0915 -0.13198,0.3657 0.0405,0.68796 0.35485,0.66305 0.61957,0.46364 0.38126,-0.2872 z m 3.16989,0.51307 c -0.0899,-0.14552 -0.30532,-0.26276 -0.47863,-0.26053 -0.18934,0.002 -0.15671,0.10642 0.0818,0.26053 0.5083,0.32849 0.59989,0.32849 0.39687,0 z M 95.75078,133.7336 c 0,-1.06349 -2.08045,-2.64245 -2.68507,-2.03783 -0.38956,0.38957 0.19327,1.38952 0.8099,1.38952 0.2681,0 0.63568,0.17859 0.81684,0.39687 0.31489,0.37942 1.05833,0.55605 1.05833,0.25144 z m -1.16306,-3.75166 c -0.26896,-0.26895 -0.49087,0.13597 -0.2702,0.49302 0.16669,0.26972 0.22902,0.26993 0.31864,10e-4 0.0613,-0.18383 0.0395,-0.40617 -0.0484,-0.49409 z m 27.30576,-1.26556 c -0.0192,-0.51113 -0.20381,-1.06949 -0.41022,-1.24079 -0.31766,-0.26363 -0.34634,-0.1514 -0.18684,0.73089 0.30804,1.7039 0.65302,1.99851 0.59706,0.5099 z m -28.20175,-2.74481 c -0.19346,-0.50845 -1.10795,-1.76758 -2.0171,-2.77728 -0.4797,-0.53275 -0.49447,-0.53426 -0.30317,-0.0309 0.1106,0.29104 0.29866,0.85384 0.4179,1.25067 0.21207,0.70571 1.44359,2.05662 1.87486,2.05662 0.11958,0 0.13196,-0.22461 0.0275,-0.49913 z m 1.31381,-0.61653 c -0.18986,-0.18985 -0.31309,-0.20547 -0.31309,-0.0397 0,0.35316 0.31289,0.66605 0.48948,0.48947 0.0752,-0.0752 -0.004,-0.27759 -0.17639,-0.44979 z m 12.07091,-0.45584 c -0.4095,-0.65572 -1.39974,-1.18983 -1.77544,-0.95763 -0.50679,0.31321 -0.31268,0.67705 0.36121,0.67705 0.35807,0 0.80455,0.17406 0.99219,0.38681 0.49907,0.56585 0.79521,0.49131 0.42204,-0.10623 z m 14.07433,0.24859 c 0,-0.14552 -0.24515,-0.26459 -0.54478,-0.26459 -0.29963,0 -0.4712,0.11907 -0.38126,0.26459 0.0899,0.14552 0.33509,0.26458 0.54478,0.26458 0.20969,0 0.38126,-0.11906 0.38126,-0.26458 z m -14.90559,-3.33662 c -0.82633,-0.76621 -0.96941,-0.78354 -0.96941,-0.1174 0,0.29893 0.30504,0.6638 0.7276,0.87031 0.96091,0.4696 1.09843,0.0414 0.24181,-0.75291 z M 89.1362,121.04674 c 0,-0.22048 0.23518,-0.39687 0.52916,-0.39687 1.11221,0 0.45277,-0.92312 -0.82749,-1.15837 -0.81284,-0.14937 -0.98052,-0.0971 -1.09523,0.34159 -0.16004,0.61197 0.46723,1.61053 1.01168,1.61053 0.21003,0 0.38188,-0.17859 0.38188,-0.39688 z m 16.01817,-0.94364 c 0.21017,-0.34007 0.15838,-0.3938 -0.60619,-0.62882 -0.48441,-0.14889 -0.59532,-0.0811 -0.59532,0.36401 0,0.58784 0.88176,0.78217 1.20151,0.26481 z m -11.61821,49.16395 c 0.10882,-0.1819 0.4135,-0.4863 0.67707,-0.67646 0.26357,-0.19015 0.47922,-0.53471 0.47922,-0.7657 0,-0.57984 2.40758,-3.70887 2.97656,-3.8685 0.64891,-0.18205 0.60481,0.66857 -0.0661,1.27577 -0.29104,0.26339 -0.52916,0.7539 -0.52916,1.09003 0,0.34035 -0.23447,0.73663 -0.52917,0.89434 -0.29104,0.15576 -0.52917,0.47035 -0.52917,0.69908 0,0.25447 -0.1488,0.35877 -0.3834,0.26875 -0.25736,-0.0988 -0.33461,-0.02 -0.23498,0.23964 0.22589,0.58866 -0.41304,1.17378 -1.28171,1.17378 -0.55071,0 -0.71935,-0.0963 -0.57911,-0.33073 z m 37.46834,-1.93534 c -0.35353,-0.25851 -0.33038,-0.34859 0.18167,-0.70725 0.36349,-0.2546 0.47872,-0.47781 0.30279,-0.58654 -0.68763,-0.42498 -0.15788,-0.67347 1.43578,-0.67347 1.7201,0 1.99709,0.14603 1.40328,0.73984 -0.24562,0.24563 -0.20702,0.39657 0.17237,0.67399 0.40428,0.29562 0.42471,0.39822 0.11807,0.59289 -0.53354,0.33873 -3.13561,0.31032 -3.61396,-0.0395 z m 1.25878,-3.25636 c 0,-0.37363 0.26106,-0.5371 1.06242,-0.66524 0.9718,-0.1554 1.04835,-0.22599 0.89736,-0.82757 -0.14535,-0.57911 -0.0747,-0.66345 0.59122,-0.70606 0.41596,-0.0266 1.08371,-0.0262 1.48389,0.001 0.40019,0.0272 0.72761,-0.0701 0.72761,-0.2162 0,-0.14607 -0.28492,-0.26559 -0.63315,-0.26559 -0.34823,0 -0.70211,-0.1797 -0.78639,-0.39933 -0.0843,-0.21963 -0.29484,-0.36846 -0.46791,-0.33073 -0.17306,0.0377 -0.38982,-0.22786 -0.48168,-0.5902 -0.22218,-0.8764 -1.93058,-1.22549 -2.91566,-0.5958 -1.22795,0.78495 -2.91729,2.36592 -2.91729,2.73016 0,0.13433 -0.14996,0.24423 -0.33323,0.24423 -0.18328,0 -0.48195,0.23813 -0.66371,0.52917 -0.38387,0.61469 -0.81203,0.68481 -1.01126,0.16561 -0.17807,-0.46404 1.34756,-2.14894 1.94969,-2.15322 0.31054,-0.002 0.43087,-0.18084 0.37832,-0.5616 -0.0522,-0.37811 0.0974,-0.60399 0.46338,-0.69969 0.29725,-0.0777 0.47373,-0.0334 0.39218,0.0986 -0.18794,0.30409 0.16709,0.30319 0.6485,-0.002 0.20277,-0.1284 0.30887,-0.46213 0.23578,-0.74164 -0.14906,-0.57 0.87637,-1.16346 2.12281,-1.22856 0.39178,-0.0205 0.95284,-0.31502 1.2468,-0.65456 0.77694,-0.89744 2.69012,-0.86508 3.91102,0.0661 0.49287,0.37593 1.00395,0.68616 1.13573,0.68939 0.13179,0.003 0.49819,0.2116 0.81424,0.46302 0.617,0.49085 0.95947,1.81985 0.44391,1.7227 -0.20618,-0.0389 -0.2634,0.30254 -0.17736,1.05833 0.0952,0.83597 0.0564,1.01619 -0.15459,0.71882 -0.24309,-0.34259 -0.28217,-0.33354 -0.28566,0.0661 -0.005,0.53095 -5.4e-4,0.53 -2.64989,0.61193 -2.68077,0.0829 -2.64583,0.0777 -2.64583,0.39809 0,0.15787 0.22354,0.21147 0.5069,0.12153 0.27879,-0.0885 0.58026,-0.0422 0.66993,0.10291 0.0897,0.14508 0.36758,0.19193 0.61758,0.10411 0.29084,-0.10217 0.35926,-0.0698 0.18996,0.0898 -0.46554,0.43903 -2.23372,0.9272 -2.75689,0.76115 -0.27823,-0.0883 -0.58244,-0.0367 -0.67604,0.11479 -0.28455,0.46042 -0.93269,0.30753 -0.93269,-0.22 z m 3.57187,-5.32548 c 0.0899,-0.14552 0.0374,-0.26459 -0.11667,-0.26459 -0.15411,0 -0.2802,0.11907 -0.2802,0.26459 0,0.14552 0.0525,0.26458 0.11668,0.26458 0.0642,0 0.19026,-0.11906 0.28019,-0.26458 z m -57.93142,3.98868 c -0.20406,-0.33016 1.32464,-1.97632 1.64908,-1.77581 0.43883,0.27121 0.28518,1.4929 -0.22188,1.76427 -0.60447,0.3235 -1.23127,0.32857 -1.4272,0.0115 z m 11.80737,-5.48601 c 0.11151,-0.57902 0.8803,-0.66093 0.8803,-0.0938 0,0.21629 -0.21917,0.43546 -0.48704,0.48705 -0.35359,0.0681 -0.46135,-0.0397 -0.39326,-0.39325 z m 55.64905,-2.40303 c -2.01799,-1.05761 -2.19432,-1.12673 -2.87443,-1.12673 -0.83538,0 -1.47415,-0.71536 -0.85196,-0.95412 0.23884,-0.0917 0.78803,-0.18109 1.22042,-0.19876 0.91066,-0.0372 0.95645,-0.11949 0.32391,-0.58201 -0.35423,-0.25902 -0.5498,-0.26583 -0.83678,-0.0292 -0.28416,0.23435 -0.39949,0.23466 -0.47809,0.001 -0.057,-0.16915 -0.3948,-0.62177 -0.75072,-1.00582 -0.68216,-0.73607 -0.80693,-1.53919 -0.40382,-2.59944 0.22528,-0.59255 0.3348,-0.62608 1.47826,-0.45255 1.75553,0.26643 1.89957,-0.31141 0.40764,-1.63538 -0.62642,-0.5559 -1.28764,-1.01072 -1.46939,-1.01072 -0.18175,0 -0.47178,-0.17029 -0.64451,-0.37842 -0.48687,-0.58664 0.56728,-1.07231 1.34531,-0.61982 0.72078,0.41919 2.60812,2.24836 2.60812,2.52773 0,0.11362 0.34024,0.33501 0.75609,0.49197 0.87416,0.32996 2.25249,2.83829 2.10926,3.83851 -0.0745,0.5202 -0.68356,1.02109 -1.65542,1.36141 -0.13491,0.0472 -0.15407,0.23347 -0.0426,0.41385 0.15464,0.25022 0.29038,0.25518 0.57264,0.0209 0.20347,-0.16887 0.55006,-0.23791 0.77019,-0.15344 0.22014,0.0845 0.40025,0.0463 0.40025,-0.0849 0,-0.47854 1.11015,-0.60027 1.54141,-0.16901 0.38903,0.38903 0.38659,0.42406 -0.0295,0.42406 -0.24946,0 -0.45357,0.10961 -0.45357,0.24357 0,0.13395 -0.35719,0.32201 -0.79375,0.41789 -0.80227,0.17621 -1.01414,0.49402 -0.52916,0.79375 0.3806,0.23523 0.32663,1.19363 -0.0661,1.17461 -0.1819,-0.009 -0.92604,-0.32801 -1.65365,-0.70934 z m -0.32227,-3.51585 c -0.19499,-0.74563 -1.8281,-2.03426 -2.74945,-2.16949 -0.68225,-0.10013 -0.76473,-0.0351 -0.76473,0.60262 0,0.56499 0.12483,0.71485 0.59547,0.71485 0.32751,0 1.13118,0.30751 1.78594,0.68336 0.65475,0.37585 1.20908,0.68839 1.23184,0.69453 0.0228,0.006 -0.0218,-0.2305 -0.0991,-0.52587 z m 0.16376,-2.53358 c -0.32735,-0.34845 -0.84232,-0.62654 -1.14438,-0.61799 -0.53065,0.015 -0.53219,0.0262 -0.0458,0.33073 0.27687,0.17335 0.68506,0.51743 0.90709,0.76464 0.22204,0.24721 0.51048,0.38347 0.64099,0.30282 0.13051,-0.0807 -0.0306,-0.43175 -0.3579,-0.7802 z m -14.04045,4.73536 c -0.82849,-0.12696 -1.13822,-0.70955 -0.64137,-1.2064 0.1929,-0.1929 0.43399,-0.61306 0.53576,-0.9337 0.12392,-0.39043 0.3976,-0.58297 0.82865,-0.58297 0.55351,0 0.64363,-0.12393 0.64363,-0.88504 0,-1.48287 1.50613,-2.24776 2.92781,-1.4869 0.35278,0.1888 0.51178,0.1888 0.51178,0 0,-0.15064 -0.18562,-0.2739 -0.41249,-0.2739 -0.22687,0 -0.33534,-0.12484 -0.24103,-0.27743 0.11721,-0.18965 0.28957,-0.1794 0.54478,0.0324 0.64805,0.53783 0.43691,1.03878 -0.43783,1.03878 -1.67479,0 -2.48066,1.09042 -1.17323,1.5875 0.36381,0.13832 0.66146,0.42924 0.66146,0.64649 0,0.30824 -0.25553,0.36915 -1.16333,0.27729 -1.39746,-0.1414 -1.95835,0.30375 -1.48863,1.18145 0.285,0.53251 0.1681,1.11167 -0.20792,1.03013 -0.10056,-0.0218 -0.50017,-0.0883 -0.88804,-0.1477 z m -69.54166,-1.2989 c -0.21828,-0.0787 -0.57547,-0.20129 -0.79375,-0.2723 -0.76722,-0.24962 0.42253,-0.62728 2.29937,-0.72989 2.13474,-0.11672 3.58896,-0.40663 3.82261,-0.76207 0.22689,-0.34516 0.75719,0.008 0.75719,0.50361 0,0.21828 -0.11907,0.32329 -0.26459,0.23335 -0.14552,-0.0899 -0.26458,-0.0469 -0.26458,0.0957 0,0.14254 -0.38695,0.34981 -0.8599,0.46059 -0.47294,0.11078 -1.03849,0.25356 -1.25677,0.31728 -0.6822,0.19916 -3.02363,0.30383 -3.43958,0.15377 z m 72.52891,-5.56025 c -1.10819,-1.24986 0.68425,-3.56357 2.61276,-3.3726 0.21828,0.0216 0.64624,0.053 0.95103,0.0698 0.6304,0.0347 1.95938,1.08242 1.95938,1.54468 0,0.53262 -0.54521,0.66986 -1.00886,0.25393 -0.62837,-0.5637 -2.16773,-0.79665 -3.04933,-0.46147 -0.65694,0.24977 -0.73511,0.39804 -0.65871,1.24933 0.095,1.05855 -0.2394,1.35564 -0.80627,0.7163 z m -20.85599,-7.54862 c -1.18006,-0.32039 -1.22489,-0.53766 -0.29251,-1.41768 0.73758,-0.69616 0.79632,-0.71315 0.62759,-0.18153 -0.12852,0.40493 -0.064,0.6334 0.20851,0.73796 0.44588,0.1711 0.77444,0.83422 0.49016,0.98926 -0.10278,0.0561 -0.56797,-0.002 -1.03375,-0.12801 z m 12.13715,-18.21322 c 0,-1.17774 0.0417,-1.31648 0.21896,-0.7276 0.12042,0.40018 0.12042,1.05502 0,1.45521 -0.17722,0.58887 -0.21896,0.45014 -0.21896,-0.72761 z m 0.12342,-2.51354 c -0.0838,-0.21828 -0.037,-0.39687 0.10398,-0.39687 0.14095,0 0.25628,0.17859 0.25628,0.39687 0,0.21828 -0.0468,0.39688 -0.10399,0.39688 -0.0572,0 -0.17251,-0.1786 -0.25627,-0.39688 z"
       id="path10" />
  </g>
</svg>
