<?xml version="1.0" encoding="UTF-8" standalone="no"?>
<!-- Created with Inkscape (http://www.inkscape.org/) -->

<svg
   width="114.65823mm"
   height="86.325943mm"
   viewBox="0 0 114.65823 86.325943"
   version="1.1"
   id="svg1"
   inkscape:version="1.4.1-rc (06eac75fbf, 2025-03-29)"
   sodipodi:docname="field1.svg"
   xmlns:inkscape="http://www.inkscape.org/namespaces/inkscape"
   xmlns:sodipodi="http://sodipodi.sourceforge.net/DTD/sodipodi-0.dtd"
   xmlns="http://www.w3.org/2000/svg"
   xmlns:svg="http://www.w3.org/2000/svg">
  <sodipodi:namedview
     id="namedview1"
     pagecolor="#ffffff"
     bordercolor="#000000"
     borderopacity="0.25"
     inkscape:showpageshadow="2"
     inkscape:pageopacity="0.0"
     inkscape:pagecheckerboard="0"
     inkscape:deskcolor="#d1d1d1"
     inkscape:document-units="mm"
     inkscape:zoom="0.72248176"
     inkscape:cx="215.92241"
     inkscape:cy="162.63386"
     inkscape:window-width="1850"
     inkscape:window-height="1016"
     inkscape:window-x="0"
     inkscape:window-y="0"
     inkscape:window-maximized="1"
     inkscape:current-layer="layer1" />
  <defs
     id="defs1" />
  <g
     inkscape:label="Layer 1"
     inkscape:groupmode="layer"
     id="layer1"
     transform="translate(-47.889584,-105.30403)">
    <path
       style="fill:#000000"
       d="m 145.00665,191.05462 c -0.51954,-0.74175 -0.52498,-1.45333 -0.015,-1.9633 0.21828,-0.21828 0.39687,-0.73195 0.39687,-1.14148 0,-0.40954 0.17786,-1.08564 0.39525,-1.50246 0.50694,-0.97202 0.5106,-1.51894 0.009,-1.3264 -0.2145,0.0823 -0.5428,-0.0692 -0.73038,-0.33697 -0.18741,-0.26756 -0.56775,-0.53046 -0.84521,-0.58423 -0.71985,-0.13948 -0.83961,-0.76717 -0.17932,-0.93984 0.64465,-0.16857 0.74044,-0.75071 0.16017,-0.97338 -0.702,-0.26938 -0.46042,-1.15332 0.39687,-1.45217 0.7314,-0.25497 1.11397,-0.8334 0.55122,-0.8334 -0.1334,0 -0.41121,-0.50601 -0.61736,-1.12448 -0.42553,-1.27658 -1.08216,-1.49227 -1.2082,-0.39687 -0.10859,0.94368 -0.3628,0.92136 -0.8018,-0.0704 -0.32548,-0.73532 -0.30458,-0.83835 0.26615,-1.31168 0.64834,-0.53771 1.23035,-0.49841 2.2637,0.15286 0.32231,0.20313 0.71558,0.36932 0.87394,0.36932 0.15836,0 0.72597,0.29766 1.26135,0.66146 0.53538,0.3638 1.32943,0.66146 1.76455,0.66146 h 0.79113 l -0.53396,-0.53396 c -0.29368,-0.29368 -0.82615,-0.58994 -1.18328,-0.65837 -0.35712,-0.0684 -0.79408,-0.33416 -0.97102,-0.59052 -0.6947,-1.00654 -0.94051,-1.16697 -1.55264,-1.01333 -0.59828,0.15016 -0.61943,0.10604 -0.52481,-1.09477 0.0542,-0.68817 0.23,-1.29503 0.39062,-1.34857 0.4587,-0.1529 0.0523,-0.58132 -0.55148,-0.58132 -0.42575,0 -0.51219,-0.12321 -0.39658,-0.5653 0.10039,-0.38388 -0.0383,-0.72072 -0.43216,-1.04953 -0.55302,-0.4617 -1.50603,-0.67899 -1.50603,-0.34338 0,0.33219 0.91111,2.09909 1.17462,2.27793 0.18745,0.12721 0.17423,0.28935 -0.0411,0.50472 -0.24669,0.24668 -0.41244,0.23835 -0.74473,-0.0374 -0.51686,-0.42895 -1.44709,-2.19836 -1.44709,-2.75254 0,-0.23853 -0.15317,-0.34033 -0.3807,-0.25302 -0.48753,0.18708 -0.85753,1.76171 -0.44617,1.89883 0.16374,0.0546 0.29771,0.37847 0.29771,0.71975 0,0.34128 0.18728,0.8078 0.41619,1.0367 0.46544,0.46544 0.41931,1.2396 -0.0838,1.40713 -0.181,0.0603 -0.45401,-0.168 -0.60667,-0.50725 -0.15267,-0.33925 -0.4493,-0.91447 -0.65919,-1.27827 -0.39983,-0.69304 -0.52072,-2.84195 -0.18692,-3.32263 0.74304,-1.07 2.62243,-1.33392 4.37006,-0.61368 0.89876,0.37041 1.12466,0.19616 0.72175,-0.55669 -0.24208,-0.45233 -0.21926,-0.70016 0.11085,-1.20398 0.22863,-0.34892 0.41568,-0.92823 0.41568,-1.28734 0,-0.80686 0.64644,-1.04845 2.17935,-0.81449 1.20079,0.18327 1.8892,0.83242 2.20125,2.07571 0.27029,1.07692 -0.76717,0.90924 -1.42328,-0.23003 -0.28683,-0.49806 -0.30105,-0.49028 -0.24197,0.13229 0.0584,0.61497 -0.0192,0.66146 -1.10296,0.66146 -0.69588,0 -1.21131,0.1333 -1.27882,0.33073 -0.0622,0.1819 0.0298,0.33073 0.20441,0.33073 0.18792,0 0.26064,0.21738 0.1782,0.53263 -0.096,0.36701 0.0384,0.62565 0.43217,0.83178 0.55303,0.28952 2.29477,2.07145 2.28698,2.33976 -0.002,0.0728 -0.12298,0.31088 -0.26859,0.52916 -0.21886,0.3281 -0.43596,0.20129 -1.25272,-0.7317 -1.49278,-1.70521 -1.52493,-1.35133 -0.0785,0.86435 0.7126,1.0916 1.33527,2.07816 1.38372,2.19237 0.0484,0.1142 0.45956,0.46833 0.91361,0.78694 0.48336,0.33919 0.88991,0.90124 0.98087,1.356 0.17534,0.87671 0.67288,1.04999 3.0705,1.06934 1.37831,0.0111 1.97421,0.32809 1.77662,0.94499 -0.0469,0.14655 -0.6841,0.22498 -1.42825,0.17579 -1.10976,-0.0733 -1.44652,0.0142 -1.93548,0.50317 l -0.59197,0.59197 0.70161,0.51108 c 1.00314,0.73074 0.9088,1.2607 -0.22444,1.2607 -0.96728,0 -1.10674,0.22631 -0.65714,1.06639 0.28143,0.52586 0.62209,2.60541 0.59558,3.63571 -0.0199,0.77477 -0.53088,1.38332 -1.16146,1.38332 -0.28394,0 -0.49677,0.18582 -0.49677,0.43373 0,0.36498 -0.2097,0.40889 -1.32291,0.27705 -1.05237,-0.12464 -1.32292,-0.0781 -1.32292,0.22773 0,0.37144 -0.30074,0.49394 -0.99219,0.40416 -0.1819,-0.0236 -0.33073,0.14086 -0.33073,0.36552 0,0.60325 -0.70247,0.49595 -1.17562,-0.17956 z m 1.37091,-1.44673 c -0.246,-0.246 -0.53596,-0.35859 -0.64435,-0.2502 -0.10839,0.10839 -0.0219,0.30784 0.19214,0.44322 0.64415,0.40737 0.93041,0.28518 0.45221,-0.19302 z m 3.28981,-1.00443 c 0.0243,-0.3621 -2.17713,-1.43637 -2.60616,-1.27174 -0.68973,0.26468 -0.32975,0.82811 0.77471,1.21255 1.24752,0.43424 1.80501,0.45226 1.83145,0.0592 z m 0.88804,-2.96694 c -0.10102,-0.53849 -0.33812,-1.10403 -0.52688,-1.25677 -0.18876,-0.15275 -0.41599,-0.59201 -0.50495,-0.97614 -0.19594,-0.8461 -0.86213,-1.15709 -1.37659,-0.64263 -0.59979,0.59979 -0.44582,1.12951 0.54882,1.88816 0.50933,0.38848 0.92605,0.84697 0.92605,1.01888 0,0.37023 0.53379,0.94755 0.87611,0.94755 0.13474,0 0.16008,-0.43191 0.0574,-0.97905 z m -4.75481,-3.17777 c -0.0811,-0.2114 -0.14749,-0.43416 -0.14749,-0.49502 0,-0.0609 -0.10633,-0.11065 -0.23628,-0.11065 -0.30277,0 -0.6032,0.77029 -0.41757,1.07065 0.23204,0.37544 0.96143,-0.0478 0.80134,-0.46498 z m 4.59737,-1.75707 c -1.11528,-0.58201 -2.16917,-0.77932 -2.03775,-0.3815 0.0622,0.18825 0.52033,0.41589 1.01808,0.50588 1.51006,0.27299 1.72977,0.24619 1.01967,-0.12438 z m -3.95111,-0.73192 c 0,-0.14552 -0.11907,-0.191 -0.26459,-0.10106 -0.14552,0.0899 -0.26458,0.28258 -0.26458,0.4281 0,0.14553 0.11906,0.191 0.26458,0.10107 0.14552,-0.0899 0.26459,-0.28259 0.26459,-0.42811 z m 0.79375,-12.50817 c 0,-0.0572 -0.1786,-0.17252 -0.39688,-0.25628 -0.21828,-0.0838 -0.39687,-0.037 -0.39687,0.10399 0,0.14095 0.17859,0.25628 0.39687,0.25628 0.21828,0 0.39688,-0.0468 0.39688,-0.10399 z m -43.09436,20.88238 c 0.04,-0.65011 0.009,-1.24596 -0.0694,-1.32411 -0.31434,-0.31433 -1.8154,0.45373 -1.8154,0.9289 0,0.74448 -0.32267,0.80268 -1.92425,0.34707 -1.167655,-0.33217 -1.506965,-0.55257 -1.634795,-1.06188 -0.0887,-0.35349 -0.0753,-0.78606 0.0299,-0.96127 0.10576,-0.17623 -0.0178,-0.14884 -0.27666,0.0613 -0.49907,0.40523 -0.54032,0.37739 -1.23414,-0.83303 -0.14782,-0.25789 -0.43244,-0.38691 -0.66048,-0.2994 -0.50547,0.19397 -0.24576,1.14005 0.44675,1.62746 0.27016,0.19016 0.49121,0.51918 0.49121,0.73116 0,0.33582 -0.12148,0.33466 -0.94402,-0.009 -0.5192,-0.21694 -1.02522,-0.37709 -1.12447,-0.35589 -0.45973,0.0982 -2.17625,-0.40692 -2.43261,-0.71583 -0.2155,-0.25965 -0.14083,-0.44748 0.30087,-0.75685 0.57072,-0.39975 0.56093,-0.40719 -0.34322,-0.26047 -0.78021,0.12662 -1.08093,0.0191 -1.85972,-0.66465 -0.94496,-0.82969 -1.26975,-0.83499 -1.26975,-0.0207 0,0.24982 -0.24703,0.51881 -0.54896,0.59777 -0.45836,0.11986 -0.50203,0.23125 -0.26458,0.67492 0.15641,0.29225 0.28438,0.84651 0.28438,1.23169 v 0.70033 l -5.49011,-0.0608 c -3.01956,-0.0334 -5.59583,-0.11982 -5.72504,-0.19194 -0.12922,-0.0721 -1.15363,-0.10685 -2.27647,-0.0772 l -2.041521,0.054 -0.335322,-0.80954 c -0.430167,-1.03852 -0.83489,-1.04869 -0.628311,-0.0158 0.137139,0.68569 0.08105,0.79375 -0.411988,0.79375 -0.733604,0 -2.405825,-0.69559 -2.405825,-1.00074 0,-0.12869 -0.179256,-0.23399 -0.398347,-0.23399 -0.219091,0 -0.383578,0.12899 -0.365526,0.28664 0.119413,1.04287 0.141852,1.03736 -2.146543,0.52708 -0.363803,-0.0811 -1.190361,-0.20122 -1.836798,-0.26688 -1.354959,-0.13763 -1.459773,-0.20118 -1.246901,-0.75591 0.0993,-0.25876 0.490784,-0.40829 1.068971,-0.40829 0.501763,0 0.956062,-0.13129 1.009552,-0.29176 0.11213,-0.33639 2.704632,-0.40873 4.368299,-0.12189 l 1.114165,0.1921 -0.142454,-1.72044 c -0.137355,-1.65886 0.144242,-2.8205 0.683728,-2.8205 0.319111,0 0.652675,1.04862 0.568102,1.78593 -0.03756,0.32742 0.06678,0.59531 0.231865,0.59531 0.165082,0 0.277202,-0.20836 0.249155,-0.46302 -0.08264,-0.75039 0.317373,-2.14711 0.707707,-2.47106 0.198891,-0.16506 0.563678,-0.22258 0.810639,-0.12781 0.299348,0.11487 0.648468,-0.0598 1.047373,-0.52404 0.32909,-0.38299 0.70632,-0.62961 0.83828,-0.54805 0.13197,0.0816 0.45115,-0.006 0.70929,-0.19492 0.38193,-0.27927 0.41383,-0.44694 0.17128,-0.90017 -0.16395,-0.30633 -0.29809,-0.77386 -0.29809,-1.03894 0,-0.52467 -1.396,-1.2899 -1.845894,-1.01185 -0.499729,0.30885 -0.277531,0.65536 0.675634,1.05361 0.67211,0.28083 0.91678,0.53108 0.84418,0.86345 -0.0586,0.26835 -0.26483,0.41386 -0.48338,0.34108 -0.20964,-0.0698 -1.036006,-0.13282 -1.83637,-0.14003 -1.13641,-0.0102 -1.437532,-0.0984 -1.374522,-0.40223 0.04438,-0.21403 0.252737,-0.52133 0.463021,-0.68289 0.210284,-0.16156 0.386076,-0.51875 0.390649,-0.79375 0.01672,-1.0055 2.552032,-2.04595 3.357182,-1.37774 0.31935,0.26504 0.36274,0.17109 0.27447,-0.59435 -0.0942,-0.8165 -0.17894,-0.90025 -0.83187,-0.82175 l -0.72701,0.0874 0.43417,-0.8396 c 0.2388,-0.46178 0.39563,-0.87562 0.34852,-0.91964 -0.0471,-0.044 -0.52598,-0.20025 -1.06416,-0.34718 -0.670267,-0.183 -1.007339,-0.18065 -1.070035,0.007 -0.127828,0.38348 -1.258748,-0.0141 -1.258748,-0.44252 0,-0.76239 0.766438,-1.01207 2.648303,-0.86272 1.06197,0.0843 1.84961,0.0426 1.84961,-0.0978 0,-0.13455 -0.15013,-0.24463 -0.33363,-0.24463 -0.1835,0 -0.62998,-0.36145 -0.99219,-0.80321 -0.3622,-0.44177 -0.937672,-0.98766 -1.27882,-1.21308 -0.589529,-0.38955 -0.611591,-0.38253 -0.445191,0.14175 0.119185,0.37552 0.05958,0.55162 -0.186711,0.55162 -0.526923,0 -0.996538,-0.55377 -0.998461,-1.17739 -9.9e-4,-0.3211 -0.315776,-0.72109 -0.771537,-0.98037 -0.7286,-0.41449 -0.756001,-0.49249 -0.511211,-1.4552 0.14226,-0.55949 0.260056,-1.19584 0.261768,-1.41412 0.0093,-1.18281 0.296458,-1.85208 0.794707,-1.85208 0.288067,0 0.450174,-0.11907 0.360238,-0.26459 -0.261294,-0.42278 -0.624569,-0.31103 -1.221793,0.37583 l -0.556834,0.64042 -0.915766,-0.51436 c -0.503671,-0.28289 -1.270449,-0.77658 -1.70395,-1.09708 -0.657943,-0.48644 -0.826777,-0.52029 -1.021734,-0.20484 -0.128452,0.20784 -0.183185,0.45938 -0.121629,0.55898 0.06156,0.0996 -0.06405,0.32714 -0.279128,0.50564 -0.215077,0.17849 -0.317574,0.44342 -0.227773,0.58872 0.0898,0.1453 0.02287,0.35097 -0.148743,0.45703 -0.726088,0.44874 1.348511,2.65841 2.495914,2.65841 0.522866,0 0.78723,0.55081 0.383981,0.80003 -0.188397,0.11644 -0.601548,0.11323 -0.918113,-0.007 -0.440917,-0.16763 -0.767825,-0.0539 -1.397335,0.48632 -1.067539,0.91606 -1.366957,1.75298 -1.000476,2.79649 0.449872,1.28095 0.636025,1.46748 2.160321,2.16471 0.786692,0.35984 1.430349,0.76983 1.430349,0.91109 0,0.14125 0.29063,0.25683 0.645844,0.25683 0.936778,0 1.091626,0.48524 0.256207,0.80287 -0.593814,0.22576 -0.816278,0.17972 -1.29232,-0.2675 -0.316266,-0.29712 -0.648639,-0.46661 -0.738605,-0.37664 -0.08997,0.09 -0.516232,-0.0875 -0.947257,-0.39445 -0.431025,-0.30692 -0.840712,-0.55803 -0.910416,-0.55803 -0.360649,0 -0.367375,1.20768 -0.0098,1.75346 0.25694,0.39214 0.300605,0.62778 0.116327,0.62778 -0.403924,0 -0.374271,0.72115 0.03572,0.8686 0.181901,0.0654 0.700063,0.0626 1.151472,-0.006 0.616796,-0.0941 0.865499,-0.008 1.000861,0.34422 0.284437,0.74123 -0.236,1.00802 -1.92593,0.98727 -1.346683,-0.0165 -1.588183,0.0545 -1.705037,0.50133 -0.100605,0.38471 0.09469,0.65677 0.748261,1.04239 0.812239,0.47923 0.865257,0.58854 0.649816,1.33974 -0.196628,0.68561 -0.12854,0.94396 0.420852,1.59687 0.360487,0.42842 0.585084,0.89276 0.499104,1.03188 -0.235465,0.38099 -1.21848,-0.0233 -1.774059,-0.72957 -0.366873,-0.46641 -0.605512,-0.56426 -0.939803,-0.38535 -0.289659,0.15502 -0.746231,0.11443 -1.291453,-0.11482 -0.652389,-0.27431 -1.02268,-0.28694 -1.635085,-0.0558 -0.786396,0.29683 -0.790685,0.30968 -0.640462,1.91838 0.13147,1.40789 0.06902,1.74607 -0.477869,2.58762 -0.346008,0.53244 -0.807699,1.04621 -1.02598,1.14171 -0.402978,0.1763 -2.559023,0.63854 -3.042708,0.65234 -1.696507,0.0484 -4.195987,-0.12011 -5.102913,-0.34399 -2.028954,-0.50086 -1.147502,-0.86245 2.295465,-0.94165 3.160393,-0.0727 3.230643,-0.0873 3.056704,-0.63534 -0.144086,-0.45397 -0.09185,-0.52785 0.273957,-0.38748 1.464711,0.56206 2.144482,0.45283 1.486748,-0.23892 -0.140399,-0.14765 -0.143745,-0.79712 -0.0081,-1.57427 0.126987,-0.7276 0.285708,-2.01901 0.352715,-2.86979 0.06701,-0.85078 0.172679,-1.59773 0.234826,-1.65987 0.26479,-0.26479 0.982485,0.26227 0.982485,0.72151 0,0.27548 0.124747,0.50086 0.277216,0.50086 0.322586,0 1.574867,-1.29305 1.574867,-1.62613 0,-0.3498 0.739263,-0.26772 1.600639,0.17772 0.429336,0.22202 0.780611,0.34721 0.780611,0.27821 0,-0.32452 -1.308388,-1.4832 -1.95051,-1.72734 -0.467293,-0.17766 -0.692019,-0.43648 -0.641228,-0.73851 0.06247,-0.37146 -0.12262,-0.47066 -0.920132,-0.49318 -1.150463,-0.0325 -1.378713,-0.18244 -1.157026,-0.76015 0.223552,-0.58256 0.949699,-0.80354 1.503661,-0.45759 0.394647,0.24646 0.495686,0.18582 0.638511,-0.38325 0.121199,-0.48289 0.03393,-0.77898 -0.305446,-1.03637 -0.551365,-0.41815 -0.823681,-0.46277 -2.525643,-0.41378 -1.286455,0.037 -1.548871,-0.18533 -0.876903,-0.74301 0.208928,-0.1734 0.460801,-0.69399 0.559719,-1.15688 0.09892,-0.46289 0.299744,-0.99044 0.446279,-1.17234 0.30886,-0.3834 1.620716,-0.43826 2.269549,-0.0949 0.245095,0.1297 0.921877,0.15406 1.503961,0.0541 1.020615,-0.17521 1.03676,-0.19356 0.453026,-0.51506 -0.332918,-0.18336 -0.831683,-0.26153 -1.108365,-0.17371 -0.337169,0.10701 -0.592552,-0.008 -0.774447,-0.34743 -0.149263,-0.2789 -0.206532,-0.57195 -0.127264,-0.65122 0.258619,-0.25862 -0.740721,-1.51295 -1.205385,-1.51295 -0.725129,0 -1.682305,-1.186 -1.477629,-1.83088 0.119576,-0.37675 0.04322,-0.60374 -0.23961,-0.71227 -0.228315,-0.0876 -0.415118,-0.38039 -0.415118,-0.65062 0,-1.05009 -2.540057,-2.11746 -3.055249,-1.28386 -0.226722,0.36685 0.596759,2.04366 1.183631,2.41016 0.301785,0.18847 0.548701,0.47989 0.548701,0.6476 0,0.49634 -0.836225,0.6687 -1.295034,0.26692 -0.751255,-0.65787 -1.546761,-0.74801 -2.462055,-0.27898 -1.1464,0.58747 -1.213314,0.72346 -1.011223,2.05509 0.176569,1.16346 1.024408,2.28725 1.725604,2.28725 0.627525,0 0.462774,0.80785 -0.298083,1.46164 -0.39332,0.33797 -0.613344,0.72921 -0.506926,0.9014 0.282102,0.45645 2.028287,1.49646 2.85553,1.70072 1.072913,0.26492 0.902655,0.8677 -0.299377,1.05992 -0.743092,0.11882 -1.067215,0.31807 -1.172529,0.72079 -0.182909,0.69945 0.03667,1.29928 0.475629,1.29928 0.184894,0 0.478237,0.17118 0.651873,0.3804 0.257036,0.30971 0.177014,0.44492 -0.430624,0.72761 -1.126038,0.52385 -2.830285,0.45678 -2.942968,-0.11582 -0.0665,-0.33795 0.08088,-0.46302 0.545644,-0.46302 0.904228,0 1.023257,-0.22566 0.575624,-1.09128 -0.349167,-0.67522 -0.347444,-0.82886 0.01552,-1.3828 0.390028,-0.59526 0.360333,-0.67532 -0.66266,-1.78653 -0.849889,-0.92318 -1.037758,-1.29935 -0.910028,-1.82216 0.08853,-0.36234 0.278926,-0.73171 0.423107,-0.82082 0.152984,-0.0945 -0.0294,-0.59145 -0.437973,-1.19327 -0.464429,-0.6841 -0.664238,-1.27621 -0.593532,-1.75887 0.07157,-0.48858 -0.01133,-0.7276 -0.252363,-0.7276 -0.261517,0 -0.195214,-0.28738 0.244261,-1.05869 0.560057,-0.98295 1.35779,-1.46775 3.271378,-1.98806 0.157803,-0.0429 0.303525,-0.51986 0.323827,-1.0599 0.04859,-1.29248 0.439699,-1.71239 1.604468,-1.7226 0.527884,-0.005 1.190906,-0.18322 1.473381,-0.39687 0.653911,-0.4946 1.465604,-0.49494 2.170907,-9.3e-4 0.304305,0.21314 0.634927,0.30589 0.734716,0.2061 0.09979,-0.0998 0.287548,-0.01 0.417245,0.20011 0.129696,0.20986 0.3123,0.30507 0.405787,0.21158 0.327248,-0.32725 -1.019486,-1.79908 -1.64617,-1.79908 -0.435312,0 -0.611701,-0.15258 -0.611701,-0.52916 0,-0.29104 0.148828,-0.53295 0.330729,-0.53758 0.201982,-0.005 0.150482,-0.14524 -0.132291,-0.3599 -0.254662,-0.19332 -0.463021,-0.49787 -0.463021,-0.67678 0,-0.38513 1.054559,-1.31475 1.505739,-1.32736 0.173313,-0.005 0.390273,-0.13041 0.482133,-0.27904 0.246402,-0.39869 -1.431567,-0.21355 -1.770962,0.19539 -0.154937,0.18669 -0.453742,0.33944 -0.664012,0.33944 -0.560596,0 -0.173949,-1.00151 0.675605,-1.74999 0.798186,-0.70321 0.937906,-0.73364 1.640974,-0.35737 0.440404,0.23569 0.511773,0.18465 0.511773,-0.36602 0,-0.4101 -0.183756,-0.68796 -0.511673,-0.77371 -0.335374,-0.0877 -0.572817,-0.45974 -0.689135,-1.07977 -0.251479,-1.3405 -0.687219,-1.6258 -1.690603,-1.10693 -0.670683,0.34682 -0.812756,0.58098 -0.812756,1.33954 0,0.90659 -0.389045,1.19224 -0.939271,0.68965 -0.436993,-0.39917 -1.877938,-0.55153 -2.197144,-0.23232 -0.166742,0.16674 -0.303168,0.20524 -0.303168,0.0856 0,-0.11969 -0.178594,-0.0694 -0.396875,0.11177 -0.218281,0.18116 -0.396875,0.24069 -0.396875,0.13229 0,-0.28669 -0.779898,0.40578 -1.072254,0.95205 -0.170355,0.31831 -0.142,0.57726 0.0893,0.81551 0.186402,0.19201 0.605978,0.72902 0.932392,1.19336 0.326413,0.46433 0.835064,0.92092 1.130335,1.01463 0.740887,0.23515 0.53763,0.6173 -0.693777,1.30437 -0.7486,0.41769 -1.07134,0.78583 -1.131174,1.29028 -0.05807,0.48959 0.03847,0.70584 0.315115,0.70584 0.630737,0 0.820717,0.57637 0.312477,0.94801 -0.633665,0.46335 -1.088173,0.23015 -1.582728,-0.81204 -0.517781,-1.09115 -0.343979,-1.62439 0.876823,-2.69019 l 0.955784,-0.83444 -0.727605,-0.33251 c -0.400182,-0.18289 -0.727604,-0.47926 -0.727604,-0.65862 0,-0.17935 -0.172025,-0.39211 -0.382277,-0.47279 -0.210252,-0.0807 -0.460096,-0.5615 -0.555208,-1.06849 -0.194874,-1.03877 0.415586,-2.14961 1.33436,-2.42811 1.8658,-0.56556 2.778993,-1.02772 2.78644,-1.4102 0.01165,-0.59844 1.033435,-1.2747 2.474099,-1.63746 1.4757,-0.37159 2.551727,-0.0298 3.093604,0.98274 0.195301,0.36492 0.763515,0.83414 1.262698,1.04272 0.499183,0.20857 1.138482,0.64628 1.420663,0.9727 0.282182,0.32641 1.039572,1.15043 1.68309,1.83115 0.643517,0.68072 1.170031,1.47629 1.170031,1.76792 0,0.29164 0.357188,0.78459 0.79375,1.09545 0.769085,0.54763 0.79375,0.5492 0.79375,0.0504 0,-0.28314 0.179914,-0.66411 0.399809,-0.8466 0.355905,-0.29538 0.354035,-0.36529 -0.01703,-0.63662 -0.371913,-0.27194 -0.339424,-0.45401 0.301445,-1.68926 0.702004,-1.35308 0.724072,-1.99159 0.04977,-1.44014 -0.220127,0.18003 -0.830445,0.19686 -1.758631,0.0485 -0.78183,-0.12495 -1.496205,-0.21795 -1.5875,-0.20667 -1.000673,0.12369 -1.726658,-0.95412 -1.379923,-2.04864 0.134444,-0.4244 0.306185,-1.46628 0.381645,-2.3153 l 0.1372,-1.54367 -1.107665,-0.4704 c -0.609216,-0.25872 -1.698997,-0.49362 -2.421735,-0.52201 -1.369278,-0.0538 -1.993222,-0.36046 -1.993222,-0.97973 0,-0.49566 -0.533094,-0.46025 -0.914031,0.0607 -0.26914,0.36807 -0.551298,0.38777 -2.10018,0.14663 -1.174697,-0.18288 -2.021431,-0.1903 -2.465185,-0.0216 -0.810583,0.30818 -1.664354,0.0872 -1.664354,-0.43074 0,-0.41692 0.845104,-0.68733 1.852083,-0.59264 0.363802,0.0342 1.302993,-0.0993 2.087091,-0.29666 1.133535,-0.28534 1.333531,-0.41041 0.976117,-0.61042 -0.247234,-0.13836 -0.617064,-0.18727 -0.821847,-0.10869 -0.204782,0.0786 -0.443222,0.0282 -0.529866,-0.11202 -0.08664,-0.14019 0.05837,-0.32292 0.322256,-0.40607 0.263885,-0.0832 0.809353,-0.32843 1.212152,-0.54507 0.565504,-0.30415 1.204392,-0.35271 2.804194,-0.21316 1.816893,0.15849 2.093319,0.12474 2.246432,-0.27427 0.10615,-0.27662 0.335884,-0.3931 0.586003,-0.29712 0.226273,0.0868 0.790816,-0.0496 1.254541,-0.30321 0.463724,-0.2536 1.140594,-0.52178 1.504155,-0.59596 0.36356,-0.0742 0.663655,-0.31234 0.666877,-0.52924 0.01246,-0.83864 0.448668,-1.56896 1.234199,-2.06632 0.757077,-0.47935 0.778031,-0.53091 0.27999,-0.68898 -0.637768,-0.20242 -1.186068,-0.11545 -1.432858,0.22727 -0.249981,0.34715 -1.012352,-0.33763 -1.012352,-0.90932 0,-0.56619 1.341231,-1.17186 2.077524,-0.93817 0.322429,0.10233 0.6142,0.0249 0.747109,-0.19837 0.445933,-0.74899 1.429081,-0.70827 2.896632,0.11996 0.782357,0.44154 1.48903,0.91049 1.570383,1.04212 0.199151,0.32224 1.968768,0.307 1.968768,-0.0169 0,-0.14095 -0.169731,-0.19114 -0.37718,-0.11154 -0.220428,0.0846 -0.5586,-0.13214 -0.813718,-0.5215 -0.25761,-0.39316 -0.592577,-0.60637 -0.817232,-0.52016 -0.231092,0.0887 -0.769106,-0.28905 -1.369094,-0.96122 -0.804275,-0.90103 -1.210198,-1.13576 -2.179026,-1.26004 -0.654844,-0.084 -1.270847,-0.27607 -1.368897,-0.4268 -0.119894,-0.18431 -0.304256,-0.1695 -0.562996,0.0452 -0.574201,0.47655 -0.789831,-0.60049 -0.222218,-1.10995 0.512901,-0.46035 1.874773,-0.44457 2.371448,0.0275 0.656745,0.62418 2.158574,0.31921 1.683234,-0.3418 -0.323333,-0.44963 -1.884634,-1.15325 -2.031547,-0.91554 -0.07854,0.12709 -0.486922,0.22128 -0.907514,0.20932 -0.750249,-0.0213 -1.34276,-0.74789 -1.34276,-1.64654 0,-0.39342 0.705475,-0.77872 1.322917,-0.72251 0.218281,0.0199 0.611247,-0.2601 0.873257,-0.62214 l 0.476382,-0.65826 -1.718454,-1.71845 c -1.62324,-1.62324 -2.506196,-2.16815 -2.19371,-1.35382 0.07696,0.20055 0.0072,0.49737 -0.155049,0.65961 -0.216907,0.2169 -0.456238,0.14347 -0.904322,-0.27749 -0.70566,-0.66293 -0.752236,-0.63914 -0.998428,0.51002 -0.144017,0.67223 -0.09691,0.85989 0.215847,0.85989 0.34508,0 0.910139,0.99308 0.658322,1.15699 -0.04967,0.0323 -0.417725,0.1994 -0.817908,0.37127 -0.632569,0.27167 -0.727075,0.46009 -0.723552,1.44263 0.0046,1.28555 0.150581,1.58482 0.988136,2.0259 0.94499,0.49764 0.702078,1.02352 -0.79375,1.71838 -0.763985,0.3549 -1.627188,0.83464 -1.918229,1.06609 -0.5004,0.39795 -0.503996,0.44039 -0.06615,0.78072 0.683293,0.53111 0.5644,1.07333 -0.30752,1.40244 -0.429346,0.16206 -0.971138,0.67876 -1.223564,1.1669 -0.429345,0.83026 -0.42838,0.92181 0.01845,1.75153 0.259313,0.48152 0.624297,0.87549 0.811075,0.87549 0.518659,0 0.749638,0.55891 0.338577,0.81927 -0.660832,0.41857 -1.013384,0.25201 -1.818175,-0.85897 -1.062246,-1.46639 -1.045574,-2.49259 0.06155,-3.78872 0.536859,-0.62851 0.827514,-1.22798 0.778126,-1.60486 -0.04336,-0.33088 0.04726,-0.67953 0.201371,-0.77478 0.485635,-0.30014 0.304463,-0.66634 -0.315106,-0.63692 -0.327422,0.0155 -1.284206,-0.0622 -2.126188,-0.1728 -1.306072,-0.17154 -1.581217,-0.13222 -1.873684,0.26775 -0.283383,0.38755 -0.683049,0.45736 -2.305582,0.40273 -1.079526,-0.0363 -2.915275,-0.0816 -4.079441,-0.10054 -1.897131,-0.0309 -2.116667,-0.087 -2.116667,-0.54125 0,-0.45661 0.1936,-0.50349 1.955306,-0.47355 2.157951,0.0367 2.849822,-0.20458 3.195727,-1.11438 0.293868,-0.77293 1.045057,-0.88591 5.272799,-0.793 2.368218,0.052 3.340454,0.16923 3.49725,0.42157 0.121533,0.19558 0.104386,0.38833 -0.03894,0.43768 -0.516526,0.17788 -0.233935,0.44245 0.529557,0.49579 1.056084,0.0738 1.230841,-0.32301 0.460611,-1.04584 -0.575539,-0.54011 -0.623987,-0.75898 -0.51273,-2.31627 0.06758,-0.94588 0.226937,-1.84997 0.354134,-2.00909 0.127198,-0.15912 0.162047,-0.78419 0.07744,-1.38906 -0.08618,-0.61614 -0.04493,-1.09976 0.09379,-1.09976 0.548622,0 1.391813,-1.00231 1.219954,-1.45017 -0.201407,-0.52485 0.286353,-0.92103 1.141325,-0.92703 0.3334,-0.002 0.645191,-0.21738 0.737676,-0.50878 0.206011,-0.64908 0.838594,-0.88776 1.464739,-0.55266 1.114441,0.59643 1.091172,0.0389 -0.02489,-0.59626 -1.058698,-0.60257 -1.564385,-0.58623 -1.564385,0.0505 0,0.80952 -0.496346,0.9063 -0.835094,0.16283 -0.333673,-0.73234 0.03017,-1.9993 0.574147,-1.9993 0.192903,0 0.189605,-0.16809 -0.01064,-0.54225 -0.477929,-0.89302 -0.218739,-1.92851 0.526321,-2.10272 0.495948,-0.11596 0.701279,-0.39141 0.859521,-1.15304 0.116784,-0.56209 0.09962,-1.20303 -0.03917,-1.46236 -0.162626,-0.30387 -0.135882,-0.68205 0.07824,-1.10638 0.263699,-0.52258 0.253944,-0.77045 -0.0515,-1.30853 -0.852914,-1.50251 -2.82751,-2.20924 -3.227914,-1.1553 -0.136087,0.35821 -0.07542,0.82841 0.167248,1.29614 0.459155,0.88502 0.383626,0.98087 -0.874695,1.10995 -1.127891,0.11571 -1.548052,0.40498 -2.078701,1.43114 -0.477508,0.9234 -0.470843,2.02251 0.01745,2.87668 0.602673,1.05427 0.466569,1.53687 -0.628365,2.22807 -1.066378,0.67318 -1.617501,1.84961 -1.106073,2.36104 0.153577,0.15357 0.27923,0.47896 0.27923,0.72308 0,0.24412 0.186444,0.59859 0.414321,0.78771 0.227876,0.18912 0.592544,0.6885 0.810373,1.10974 0.44522,0.86096 0.142568,1.52161 -0.697066,1.52161 -0.258126,0 -0.534092,0.26073 -0.618792,0.58462 -0.114938,0.43953 0.05587,0.75889 0.68822,1.2868 0.835945,0.69788 0.837388,0.70336 0.235353,0.89444 -0.766902,0.2434 -1.495792,-0.37852 -1.908219,-1.62818 -0.277805,-0.84176 -0.239121,-0.99323 0.483186,-1.89205 l 0.785166,-0.97703 -0.623213,-0.90952 c -0.810279,-1.18253 -1.245111,-2.52756 -1.058061,-3.27283 0.08296,-0.33052 0.630178,-0.86437 1.233723,-1.20358 0.810027,-0.45527 1.037991,-0.72 0.900384,-1.04562 -0.101341,-0.2398 -0.244455,-0.73366 -0.31803,-1.09746 -0.07358,-0.3638 -0.22487,-0.78052 -0.33621,-0.92604 -0.11134,-0.14552 -0.16326,-0.61131 -0.115377,-1.03508 0.09642,-0.85334 1.692126,-2.45539 2.696841,-2.70755 0.631089,-0.1584 0.672909,-0.26141 0.628862,-1.54904 -0.03433,-1.00366 0.427112,-1.59525 1.386385,-1.77741 1.384011,-0.26281 3.669492,1.45837 3.976797,2.9949 0.165484,0.82742 0.185562,0.84053 2.000195,1.30602 2.133563,0.5473 3.934005,3.22886 3.584456,5.33864 -0.103306,0.62353 -0.302555,1.35195 -0.442775,1.61871 -0.186861,0.3555 -0.133233,0.61953 0.200811,0.98864 0.250666,0.27698 0.445946,0.89216 0.433956,1.36705 -0.01199,0.4749 -0.02527,1.2504 -0.02951,1.72335 -0.0066,0.73385 -0.102638,0.85989 -0.655383,0.85989 -0.390919,0 -0.84432,0.26995 -1.143708,0.68094 -0.443726,0.60914 -0.568534,0.6479 -1.183625,0.36765 -0.378177,-0.17231 -0.83449,-0.58777 -1.014029,-0.92324 -0.289886,-0.54165 -1.269443,-1.05705 -1.524418,-0.80208 -0.185128,0.18513 0.600472,1.2059 0.928076,1.2059 0.182044,0 0.4797,0.23812 0.661458,0.52916 0.181759,0.29105 0.493002,0.52917 0.691653,0.52917 0.19865,0 0.714926,0.29766 1.14728,0.66146 0.525436,0.44213 1.108367,0.66179 1.757986,0.66245 0.534538,5.4e-4 1.35884,0.23692 1.831783,0.52527 0.767964,0.46824 0.859894,0.6534 0.859894,1.73195 0,1.4821 0.5931,2.7028 1.36833,2.81623 0.61458,0.0899 0.95319,0.85471 1.17976,2.66462 0.12666,1.01183 0.0236,1.11286 -1.02673,1.00602 -0.35045,-0.0357 -0.46303,0.14994 -0.46303,0.76329 0,0.44571 0.0893,0.8083 0.19844,0.80576 0.10914,-0.002 1.24538,-0.17623 2.52498,-0.38598 1.42468,-0.23353 2.55701,-0.29373 2.9211,-0.15531 0.68633,0.26094 2.82041,0.4026 4.98656,0.331 1.33595,-0.0442 1.51235,-0.11537 1.5875,-0.6409 0.0612,-0.42775 0.26492,-0.59235 0.73688,-0.59531 0.55089,-0.003 0.65929,-0.13916 0.69708,-0.87262 0.0457,-0.8877 0.9073,-1.9096 1.60999,-1.9096 0.20069,0 0.79232,0.1786 1.31474,0.39688 1.24596,0.52059 1.32762,0.50272 0.72843,-0.15938 -0.73358,-0.81059 -1.93068,-1.36052 -2.59739,-1.19319 -0.47467,0.11914 -0.62627,-0.006 -0.8314,-0.68453 -0.13797,-0.45663 -0.55026,-1.05061 -0.91619,-1.31996 -0.62825,-0.46243 -0.73521,-0.46591 -1.91954,-0.0624 -0.98398,0.33528 -1.2872,0.57867 -1.4073,1.12964 -0.26631,1.22178 -0.36585,1.41038 -0.68779,1.30307 -0.17273,-0.0576 -0.4282,-0.44713 -0.56772,-0.86568 -0.23053,-0.6916 -0.16196,-0.83797 0.75197,-1.60527 0.5531,-0.46435 1.39318,-0.96322 1.86683,-1.10859 1.56236,-0.4795 3.41979,0.23157 3.719,1.42372 0.0868,0.34595 0.33533,0.629 0.55222,0.629 0.57486,0 2.29134,0.84031 2.53799,1.24249 0.11637,0.18975 0.38588,0.34501 0.5989,0.34501 0.76312,0 2.3425,1.12444 2.02514,1.4418 -0.10004,0.10004 0.10125,0.39546 0.44731,0.65649 0.49686,0.37478 0.59178,0.62367 0.45131,1.18335 -0.0978,0.38981 -0.29345,0.63732 -0.43471,0.55002 -0.14125,-0.0873 -0.25683,-0.0464 -0.25683,0.091 0,0.36956 2.710785,0.67388 5.423955,0.60889 3.18513,-0.0763 7.38194,-0.0807 7.68941,-0.008 0.37993,0.0897 1.17413,-0.31518 1.17413,-0.59854 0,-0.13854 -0.13041,-0.17129 -0.28981,-0.0728 -0.15939,0.0985 -0.54635,0.0568 -0.85988,-0.0927 -0.31356,-0.14949 -0.79186,-0.34353 -1.06292,-0.43121 -0.40993,-0.1326 -0.43617,-0.22766 -0.15604,-0.5652 0.18522,-0.22318 0.4851,-0.34886 0.6664,-0.27929 0.18129,0.0696 0.51031,-0.0738 0.73117,-0.31869 0.43349,-0.4806 0.18248,-1.07682 -0.61641,-1.46414 -0.21828,-0.10583 -0.68739,-0.35884 -1.04248,-0.56224 -0.38149,-0.21854 -0.97681,-0.30767 -1.45521,-0.21789 -0.87777,0.16473 -1.79824,0.82229 -1.60002,1.14301 0.0677,0.10959 -0.0512,0.34391 -0.26423,0.52073 -0.31814,0.26404 -0.4444,0.19631 -0.70654,-0.37903 -0.28463,-0.62469 -0.2445,-0.77519 0.37078,-1.39047 0.78163,-0.78163 2.54942,-1.48075 2.96593,-1.17296 0.15211,0.1124 0.78258,0.36393 1.40105,0.55896 0.61846,0.19502 1.12447,0.45162 1.12447,0.57021 0,0.11859 0.3558,0.14446 0.79066,0.0575 0.52861,-0.10572 1.03284,-0.003 1.52136,0.31048 1.14105,0.73178 3.18486,3.01292 3.14651,3.51191 -0.0234,0.30523 0.19952,0.47695 0.69303,0.53373 0.40414,0.0465 0.7276,0.24701 0.7276,0.45103 0,0.58424 -1.64004,0.77433 -6.34999,0.736 -0.3638,-0.003 -3.2213,-0.0112 -6.35,-0.0182 -3.1287,-0.007 -7.117295,-0.0293 -8.863545,-0.0495 -4.3183,-0.0498 -17.30525,0.20231 -18.12396,0.35182 -0.3638,0.0664 -0.81029,0.13072 -0.99219,0.14284 -0.1819,0.0121 -0.33073,0.20064 -0.33073,0.41893 0,0.48143 -0.8199,0.52316 -1.29973,0.0661 -0.283287,-0.26982 -0.314114,-0.22109 -0.167381,0.26458 0.140881,0.46632 0.07567,0.59349 -0.300992,0.5869 -0.264467,-0.005 -0.711966,-0.18323 -0.994441,-0.39688 -0.282474,-0.21365 -0.758724,-0.38581 -1.058333,-0.38258 -0.512834,0.006 -0.506498,0.0353 0.108182,0.50762 0.359109,0.27595 0.954422,0.56246 1.322917,0.63667 0.377351,0.076 0.878764,0.4899 1.147968,0.9476 0.26289,0.44695 0.59621,0.81265 0.74072,0.81265 0.14451,0 0.67356,0.39898 1.17567,0.88662 0.75169,0.73004 0.91292,1.0805 0.91292,1.98438 0,0.60376 0.10288,1.09775 0.22862,1.09775 0.12575,0 0.29961,0.51789 0.38637,1.15087 0.0868,0.63298 0.37083,1.53502 0.63127,2.00453 0.45923,0.82788 0.5135,0.84874 1.79645,0.69043 0.72761,-0.0898 2.09253,-0.22447 3.03316,-0.29931 0.94063,-0.0748 1.85349,-0.25497 2.02859,-0.40029 0.44526,-0.36953 5.41768,-0.67143 8.56429,-0.51998 0.65485,0.0315 2.32172,-0.0255 3.70417,-0.12663 3.247185,-0.23761 15.611265,-0.24127 17.330205,-0.005 0.7276,0.1 1.79917,0.20421 2.38125,0.23166 0.58208,0.0274 1.14581,0.16944 1.25272,0.31553 0.1232,0.16834 0.19587,0.15141 0.19844,-0.0462 0.003,-0.21122 0.40962,-0.2753 1.26082,-0.19857 0.69122,0.0623 2.50693,0.16833 4.03489,0.23561 1.52797,0.0673 3.4925,0.20207 4.36563,0.29953 0.87312,0.0975 2.84757,0.19129 4.38765,0.20853 l 2.80015,0.0313 0.0308,-0.66146 c 0.017,-0.3638 0.0666,-0.84005 0.11027,-1.05834 0.0437,-0.21828 -0.0396,-0.44965 -0.18515,-0.51416 -0.14552,-0.0645 -0.32529,0.23314 -0.39948,0.66146 -0.17278,0.99754 -0.75958,0.9967 -1.31304,-0.002 -0.5429,-0.97952 -2.06417,-1.47612 -2.53778,-0.82842 -0.35196,0.48133 -0.90908,0.55802 -0.90908,0.12515 0,-0.17233 -0.2464,-0.23142 -0.59751,-0.1433 -0.7993,0.20061 -1.31759,-0.14967 -1.09186,-0.73793 0.15179,-0.39556 0.38247,-0.44395 1.44453,-0.30307 0.69515,0.0922 1.32869,0.0628 1.40788,-0.0653 0.0792,-0.12812 0.0714,-0.84543 -0.0172,-1.594 -0.13699,-1.15672 -0.24503,-1.36132 -0.71965,-1.36286 -0.82449,-0.003 -1.81242,-1.58567 -1.71261,-2.74419 0.0441,-0.51138 0.006,-1.00351 -0.0837,-1.09362 -0.0901,-0.0901 -0.80095,-0.20194 -1.57965,-0.2485 -0.77869,-0.0466 -1.87179,-0.17286 -2.42911,-0.28064 -0.6539,-0.12646 -1.22892,-0.0806 -1.62121,0.12937 -0.50121,0.26824 -0.7226,0.25019 -1.26141,-0.10285 -0.35943,-0.2355 -1.23722,-0.44132 -1.95066,-0.45736 -1.8035,-0.0406 -2.2232,-0.18562 -2.2232,-0.76838 0,-0.27788 -0.32546,-0.71634 -0.72324,-0.97436 -0.39778,-0.25801 -0.93356,-0.67748 -1.19062,-0.93214 -0.5786,-0.57319 -0.63538,-2.05052 -0.0788,-2.05052 0.23669,0 0.32904,-0.15512 0.23627,-0.39687 -0.10568,-0.27539 0.0183,-0.39688 0.40518,-0.39688 0.30661,0 0.55747,-0.0944 0.55747,-0.20971 0,-0.28356 2.17764,-0.84862 3.27044,-0.84862 0.48488,0 1.25278,-0.18517 1.70646,-0.4115 0.70444,-0.35142 0.80318,-0.51989 0.67636,-1.15398 -0.23668,-1.18342 1.37728,-3.72619 2.36511,-3.72619 0.22939,0 0.48079,-0.10309 0.55866,-0.2291 0.44783,-0.7246 2.55454,0.70549 3.32012,2.25379 0.2049,0.41439 0.70588,1.11062 1.11328,1.54719 1.73495,1.85914 2.13121,2.51134 2.01342,3.31388 -0.11182,0.76189 -0.0809,0.78753 0.96313,0.79874 1.46804,0.0158 3.61678,0.79802 3.96541,1.44363 0.15716,0.29104 0.73279,1.14913 1.27918,1.90687 0.54639,0.75774 0.99344,1.50188 0.99344,1.65365 0,0.15176 0.10632,0.27593 0.23627,0.27593 0.12995,0 0.31032,0.19295 0.40081,0.42877 0.12652,0.32971 0.0414,0.39655 -0.36857,0.28935 -0.75873,-0.19841 -0.65931,0.19666 0.18944,0.75279 0.3974,0.26038 0.91624,0.71262 1.15298,1.00498 0.47601,0.58786 2.52975,0.94572 6.12231,1.06681 2.16631,0.073 2.93009,0.44623 3.39375,1.65832 0.12194,0.31875 0.54665,0.64557 0.96183,0.74012 0.40891,0.0931 0.95974,0.33142 1.22407,0.52955 1.01486,0.76069 1.8512,5.80921 1.20442,7.27038 -0.53588,1.21065 -1.55273,1.39562 -1.55273,0.28245 0,-0.3866 -0.26511,-0.5371 -1.19063,-0.67589 -0.83575,-0.12533 -1.19062,-0.30365 -1.19062,-0.59829 0,-0.32826 -0.0697,-0.35001 -0.31995,-0.0998 -0.25022,0.25021 -0.19255,0.40919 0.26458,0.72938 0.90315,0.63258 0.77032,1.27647 -0.22237,1.07793 -0.50044,-0.10009 -0.74573,-0.0624 -0.64584,0.0992 0.0886,0.14333 0.85582,0.2606 1.70496,0.2606 1.34423,0 1.64163,0.0975 2.29949,0.75402 0.41557,0.41471 0.96361,1.06174 1.21787,1.43785 0.25425,0.37611 1.1906,1.05394 2.08077,1.50629 0.89017,0.45235 1.789,0.99297 1.99741,1.20138 0.57294,0.57294 1.2174,3.02211 1.03508,3.93369 -0.12588,0.62939 0.0106,1.04254 0.62884,1.9034 0.85739,1.19389 1.32422,3.09897 0.83367,3.40214 -0.19008,0.11748 -0.24093,0.68954 -0.14298,1.60867 l 0.152,1.42637 -1.46726,1.46726 c -1.41328,1.41328 -2.37324,1.83097 -2.61202,1.13653 -0.0625,-0.1819 -0.0805,-0.11495 -0.0399,0.14878 0.0662,0.42997 -0.0711,0.46139 -1.32963,0.30414 -1.0858,-0.13566 -1.55631,-0.0752 -2.07861,0.267 -0.75013,0.4915 -3.51238,0.61875 -3.9492,0.18193 -0.46412,-0.46412 0.0688,-0.83562 1.20398,-0.83931 1.99257,-0.007 2.26245,-0.17438 2.17457,-1.35276 -0.0568,-0.76098 -0.28254,-1.21853 -0.83631,-1.69478 -0.41721,-0.3588 -0.90739,-0.65252 -1.0893,-0.6527 -0.1819,-1.7e-4 -0.33072,-0.23844 -0.33072,-0.52949 0,-0.33494 0.16994,-0.52206 0.46302,-0.50982 0.72862,0.0304 2.02479,0.88156 2.31169,1.51798 0.14365,0.31864 0.32225,0.57752 0.39688,0.57529 0.33708,-0.0101 0.74081,-0.44085 0.90422,-0.96482 0.14985,-0.48052 0.0498,-0.60024 -0.6258,-0.74863 -1.05715,-0.23218 -1.08756,-0.95833 -0.0368,-0.87826 0.83153,0.0634 1.61386,-0.42552 1.61386,-1.00851 0,-0.20046 -0.19348,-0.36447 -0.42995,-0.36447 -0.33661,0 -0.39548,-0.17232 -0.2712,-0.79375 0.11899,-0.59494 0.061,-0.79375 -0.23151,-0.79375 -0.21464,0 -0.39026,-0.10633 -0.39026,-0.23628 0,-0.45871 -0.8291,-0.54651 -1.43179,-0.15161 -0.63874,0.41852 -1.48492,0.28281 -1.46982,-0.23573 0.005,-0.16634 0.24478,-0.58575 0.5332,-0.93204 0.44066,-0.52906 0.69339,-0.60694 1.58258,-0.48767 0.87531,0.1174 1.10748,0.0498 1.3434,-0.39099 0.17599,-0.32883 0.37951,-0.43861 0.53146,-0.28666 0.13544,0.13545 0.61273,0.19248 1.06063,0.12674 0.5715,-0.0839 0.70774,-0.18543 0.45684,-0.3405 -0.19665,-0.12153 -0.35754,-0.32643 -0.35754,-0.45533 0,-0.36182 -1.28192,-1.62731 -1.65365,-1.63245 -0.1819,-0.003 -0.33072,0.19954 -0.33072,0.449 0,0.42801 -0.0256,0.42795 -0.45453,-9.5e-4 -0.39752,-0.39752 -0.41127,-0.56223 -0.10959,-1.31347 0.65951,-1.64232 0.65583,-1.75454 -0.0684,-2.08454 -0.3797,-0.173 -0.69036,-0.50501 -0.69036,-0.7378 0,-0.23279 -0.31586,-0.76389 -0.7019,-1.18022 -0.64409,-0.69463 -0.81129,-0.74401 -2.03026,-0.59964 -1.56804,0.18571 -1.99736,0.49956 -1.50117,1.09743 0.49806,0.60013 -0.0657,1.1559 -0.66662,0.65717 -0.38126,-0.31641 -0.41607,-0.21965 -0.34195,0.95049 0.0749,1.18203 0.14382,1.30541 0.74398,1.33144 1.1637,0.0505 1.32292,0.0978 1.32292,0.39296 0,0.15914 -0.23813,0.35162 -0.52917,0.42773 -0.29104,0.0761 -0.52916,0.24356 -0.52916,0.37211 0,0.12855 -0.16586,0.23372 -0.36857,0.23372 -0.86034,0 -0.74001,2.19414 0.14634,2.66851 0.5814,0.31115 0.41029,0.77108 -0.28687,0.77108 -0.83972,0 -1.87215,1.02627 -1.87215,1.86098 0,1.20161 1.51005,2.37235 3.05993,2.37235 0.7235,0 0.88556,0.64453 0.22572,0.89773 -0.85607,0.32851 -1.77451,0.14018 -2.76514,-0.567 -1.83405,-1.30926 -2.08692,-2.90454 -0.72838,-4.59506 0.66858,-0.83196 0.77338,-1.10593 0.49003,-1.28106 -0.52374,-0.32368 -4.1537,-0.82531 -4.63521,-0.64053 -0.2252,0.0864 -0.40945,0.0481 -0.40945,-0.0852 0,-0.13328 -0.56555,-0.24731 -1.25678,-0.2534 -1.95354,-0.0172 -5.1939,-0.40171 -5.51652,-0.65458 -0.16052,-0.12582 -0.82164,-0.12896 -1.47439,-0.007 -0.65086,0.12159 -1.44547,0.12413 -1.7658,0.006 -0.32032,-0.1185 -1.29396,-0.16012 -2.16363,-0.0925 -1.228,0.0955 -1.58122,0.0413 -1.58122,-0.24248 0,-0.55082 0.70075,-0.7288 3.175,-0.80641 1.23693,-0.0388 2.53779,-0.14398 2.89081,-0.23373 0.35302,-0.0898 0.76974,-0.0586 0.92605,0.0692 0.1563,0.1278 2.01059,0.31786 4.12064,0.42234 2.36361,0.11703 4.0904,0.32667 4.49792,0.54604 0.90505,0.48722 2.60929,0.90087 3.03637,0.73698 0.41939,-0.16093 0.66626,-0.97287 0.49496,-1.62791 -0.0678,-0.2593 -0.47304,-0.70579 -0.90051,-0.99218 -0.42747,-0.2864 -0.77756,-0.61853 -0.77798,-0.73806 -4.2e-4,-0.11954 -0.17935,-0.39593 -0.39763,-0.61421 -0.49327,-0.49328 -0.51674,-1.15283 -0.041,-1.15283 0.19573,0 0.57137,0.23812 0.83476,0.52917 0.60341,0.66676 0.82834,0.66676 1.0027,0 0.13071,-0.49985 -0.0656,-0.64077 -0.77416,-0.55583 -0.3535,0.0424 -0.69339,-0.70763 -0.47837,-1.05555 0.0818,-0.13239 0.31739,-0.24071 0.52348,-0.24071 0.28626,0 0.31769,-0.14997 0.13315,-0.63536 -0.185,-0.48657 -0.13212,-0.7344 0.22582,-1.05833 0.25706,-0.23264 0.61782,-0.42297 0.80169,-0.42297 0.18387,0 0.60173,-0.21036 0.92857,-0.46746 l 0.59427,-0.46745 -0.75097,-0.64461 c -0.41304,-0.35454 -0.75097,-0.80523 -0.75097,-1.00152 0,-0.1963 -0.361,-0.48275 -0.80222,-0.63656 -0.59409,-0.2071 -0.73175,-0.36456 -0.53062,-0.60691 0.43033,-0.51851 1.44112,-0.3228 2.37013,0.45891 0.47046,0.39587 0.99508,0.72139 1.16582,0.72338 0.17073,0.002 0.57832,0.0754 0.90574,0.16315 0.33991,0.0911 0.59531,0.0407 0.59531,-0.11751 0,-0.15237 -0.26667,-0.31508 -0.59261,-0.36158 -0.34403,-0.0491 -0.6333,-0.30652 -0.68961,-0.61372 -0.33387,-1.82124 -1.86279,-3.7077 -2.49367,-3.07681 -0.35659,0.35658 -1.25119,-0.10332 -1.25119,-0.64321 0,-0.21677 -0.30071,-0.50845 -0.66824,-0.64818 -0.36753,-0.13974 -0.73767,-0.43501 -0.82254,-0.65616 -0.22119,-0.57642 -1.77467,-1.24764 -2.65439,-1.1469 -0.60076,0.0688 -0.76665,0.23446 -0.83535,0.83424 -0.0667,0.58218 -0.18422,0.70773 -0.52917,0.5653 -0.24389,-0.10071 -0.6518,-0.24302 -0.90646,-0.31624 -0.25466,-0.0732 -0.46302,-0.29509 -0.46302,-0.49305 0,-0.43368 -1.2644,-1.31257 -1.52025,-1.05672 -0.0995,0.0994 -0.0328,0.38347 0.14823,0.63115 0.18098,0.24768 0.3954,0.64486 0.47648,0.88261 0.0818,0.23979 0.34346,0.38376 0.58763,0.32331 0.49077,-0.1215 3.7475,2.77279 3.7475,3.33045 0,0.24232 -0.25822,0.29004 -0.90893,0.16796 -0.8544,-0.16029 -0.90461,-0.12998 -0.83689,0.50516 0.0396,0.37161 0.26181,0.82205 0.49375,1.00096 0.6165,0.47554 0.63865,1.02263 0.0756,1.86716 -0.72861,1.09285 -0.32296,2.10313 0.92595,2.30614 1.16758,0.18978 1.57343,0.43729 1.57343,0.95956 0,0.3203 -0.18982,0.37509 -0.86237,0.24892 -0.68001,-0.12757 -0.93085,-0.0521 -1.1862,0.35676 -0.26505,0.42441 -0.25064,0.5595 0.0794,0.74417 0.47212,0.26422 0.27007,1.00333 -0.33807,1.23669 -0.57858,0.22202 -0.61986,0.13204 -0.70761,-1.54235 -0.0474,-0.90558 -0.24565,-1.67128 -0.5075,-1.96062 -0.54668,-0.60407 -0.65962,-1.99244 -0.2065,-2.53842 0.20278,-0.24434 0.28032,-0.69105 0.18552,-1.06876 -0.12955,-0.51617 -0.31155,-0.63524 -0.88944,-0.5819 -0.39961,0.0369 -1.14301,-0.14968 -1.65201,-0.41459 -0.61068,-0.31783 -0.95859,-0.38221 -1.0229,-0.1893 -0.17008,0.51023 0.58627,0.98017 1.81606,1.12835 0.65484,0.0789 1.22039,0.14952 1.25677,0.15692 0.0364,0.007 0.0661,0.25157 0.0661,0.54261 0,0.58144 -0.4107,0.6617 -1.4208,0.27766 -0.36383,-0.13832 -1.23478,-0.2759 -1.93546,-0.30572 -0.70067,-0.0298 -1.45254,-0.14281 -1.67082,-0.25109 -0.21828,-0.10828 -2.75971,-0.26835 -5.64762,-0.35571 -2.88791,-0.0874 -5.33667,-0.21194 -5.44169,-0.27685 -0.10501,-0.0649 -1.55218,-0.18668 -3.21592,-0.27062 -2.80322,-0.14143 -3.5682,-0.20955 -6.46456,-0.57564 -1.12185,-0.1418 -2.24077,-0.17994 -3.96874,-0.13529 -1.6195,0.0418 -1.94335,0.0439 -4.43178,0.0284 -1.72978,-0.0108 -2.31612,0.0726 -2.31915,0.32989 -0.003,0.28059 -0.0448,0.28009 -0.22411,-0.003 -0.157,-0.24757 -0.60492,-0.30299 -1.56324,-0.19342 -3.978855,0.45492 -5.032695,0.49056 -8.708025,0.29446 -1.88455,-0.10055 -3.01895,-0.0605 -3.12447,0.11019 -0.0911,0.14744 -0.78372,0.26982 -1.53912,0.27198 -0.7554,0.002 -2.14735,0.19349 -3.09324,0.42519 -2.44164,0.59812 -2.7597,0.63482 -5.4901,0.63362 -1.34607,-5.9e-4 -2.4474,0.0907 -2.4474,0.20298 0,0.11223 0.19759,0.48614 0.43908,0.83092 0.38392,0.54813 0.39017,0.66355 0.0498,0.91877 -0.21413,0.16054 -0.46966,0.50584 -0.56783,0.76733 -0.0989,0.26341 -0.38656,0.4404 -0.64506,0.39687 -0.32498,-0.0547 -0.49396,0.12217 -0.55683,0.5829 -0.11877,0.87025 -0.78126,1.58651 -1.4721,1.59156 -0.304863,0.002 -0.728901,0.11448 -0.942302,0.24944 -0.244297,0.15451 -0.509766,0.14435 -0.716767,-0.0274 -0.336534,-0.27929 -1.834585,-0.0782 -2.053273,0.27569 -0.134741,0.21801 8.103122,0.1245 9.042572,-0.10265 0.32607,-0.0788 1.09998,-0.0191 1.71979,0.13287 0.61981,0.15192 2.49615,0.32128 4.16964,0.37637 3.84366,0.12652 4.7653,0.23211 5.42396,0.62135 0.94347,0.55758 -0.0576,0.83109 -2.42933,0.66372 -1.74675,-0.12327 -2.21665,-0.0789 -2.33138,0.22007 -0.23257,0.60606 -4.10945,0.34237 -4.632,-0.31505 -0.26951,-0.33906 -0.58793,-0.4488 -0.99219,-0.34195 -0.6007,0.15876 -0.69801,0.35824 -0.60555,1.24137 0.0473,0.4517 -0.15608,0.47469 -3.02117,0.34154 -1.78684,-0.083 -3.010473,-0.0434 -2.925087,0.0948 0.305317,0.49402 -0.724012,0.72754 -1.817118,0.41225 -1.324965,-0.38217 -4.146629,-0.28309 -4.417448,0.1551 -0.217121,0.35131 0.01323,0.62686 1.251696,1.49733 0.958063,0.67339 1.742893,0.75029 2.187675,0.21436 0.23835,-0.28719 0.521138,-0.31365 1.237673,-0.11581 0.510806,0.14104 1.190034,0.21645 1.509398,0.16758 0.617601,-0.0945 1.771281,0.87748 1.771281,1.49234 0,0.19296 0.18449,0.50396 0.40998,0.69109 0.40463,0.33582 1.44211,2.38186 1.44211,2.84403 0,0.385 0.87176,1.05908 1.60683,1.24246 0.80727,0.2014 2.2869,2.88896 1.87396,3.40383 -0.29063,0.36238 -0.0826,2.02381 0.2534,2.02381 0.12901,0 0.23456,-0.11803 0.23456,-0.26228 0,-0.14426 0.34624,-0.59317 0.76942,-0.99759 0.70981,-0.67833 0.74129,-0.78613 0.40625,-1.39136 -0.49391,-0.89224 -0.47132,-1.23035 0.17085,-2.5569 0.66103,-1.36552 1.36428,-1.48301 3.17813,-0.53099 1.01626,0.5334 1.24779,0.56745 1.82535,0.26849 0.79558,-0.41183 1.75842,-0.45122 1.98704,-0.0813 0.0914,0.14789 0.26041,0.21067 0.37556,0.1395 0.32394,-0.20021 2.12966,1.94434 2.18057,2.58972 0.0249,0.31557 0.0579,0.78612 0.0733,1.04567 0.0306,0.51661 1.84375,2.57079 2.26908,2.57079 0.16059,0 0.19774,-0.41753 0.0946,-1.06276 -0.14819,-0.92675 -0.0487,-1.2453 0.7772,-2.48925 0.8257,-1.2436 1.10999,-1.46694 2.21733,-1.74197 2.196245,-0.54547 3.420565,-0.61007 3.803005,-0.20066 0.19228,0.20583 0.59403,0.3278 0.89278,0.27103 0.33989,-0.0646 0.88973,0.20869 1.46921,0.73024 0.9515,0.85637 1.31797,0.8967 3.83646,0.42214 0.29104,-0.0548 1.03456,-0.18364 1.65226,-0.28622 0.6177,-0.10258 1.18705,-0.29 1.26522,-0.41648 0.15937,-0.25786 6.72333,-0.27652 7.13668,-0.0203 0.14552,0.0902 1.2503,0.17739 2.45507,0.19374 1.20477,0.0163 2.24163,0.0809 2.30413,0.14337 0.17867,0.17867 2.43485,0.0411 2.77514,-0.16921 0.16834,-0.10404 0.37752,-0.11771 0.46486,-0.0304 0.0873,0.0873 0.007,0.15878 -0.17821,0.15878 -0.18534,0 -0.2799,0.14883 -0.21014,0.33073 0.0768,0.20018 -0.14704,0.37172 -0.567,0.43457 -1.20623,0.18053 -5.12485,0.126 -6.91156,-0.0962 -2.13355,-0.26529 -4.73672,-0.22166 -5.1291,0.086 -0.16217,0.12714 -0.75165,0.20477 -1.30997,0.1725 -0.55831,-0.0323 -1.74893,0.0988 -2.64583,0.29133 -0.89689,0.1925 -2.07336,0.35418 -2.61438,0.35929 -0.90511,0.009 -0.96622,0.0564 -0.7653,0.59958 0.13258,0.35839 0.52329,0.65265 0.99456,0.74903 0.42691,0.0873 1.04856,0.38724 1.38145,0.66649 0.67734,0.56821 1.47302,1.93545 1.25389,2.15458 -0.0784,0.0784 0.0319,0.39144 0.24507,0.69574 0.21314,0.30431 0.38754,0.9197 0.38754,1.36754 0,0.44784 0.12296,0.93722 0.27325,1.08751 0.15029,0.15029 0.19592,0.4748 0.10139,0.72113 -0.13699,0.357 -0.24923,0.38365 -0.55322,0.13137 -0.20974,-0.17407 0.22088,0.58392 0.95694,1.68442 0.73607,1.10051 1.3383,2.12584 1.3383,2.27851 0,0.46759 -0.53069,0.63693 -0.93763,0.29919 -0.21191,-0.17586 -0.38528,-0.2124 -0.38528,-0.0812 0,0.13122 0.22296,0.39928 0.49547,0.59569 0.51999,0.37479 0.47489,1.34051 -0.0633,1.35562 -0.16493,0.005 -0.0796,0.1753 0.18964,0.37927 0.26924,0.20397 0.41104,0.49784 0.31512,0.65304 -0.22059,0.35691 -0.93692,0.37037 -0.93692,0.0176 0,-0.14552 -0.29766,-0.26458 -0.66146,-0.26458 -0.79529,0 -0.86245,0.40298 -0.13229,0.79375 0.7155,0.38292 0.70314,1.32291 -0.0174,1.32291 -0.30061,0 -0.78964,-0.13009 -1.08674,-0.28909 -0.7515,-0.40219 -1.10176,0.02 -0.76075,0.91691 0.3537,0.93029 -0.15747,1.15887 -1.28624,0.57516 -0.76781,-0.39705 -0.81763,-0.39375 -0.81763,0.0543 0,0.2624 0.17987,0.73389 0.39971,1.04776 0.52366,0.74762 0.16769,0.94782 -1.29525,0.72844 -0.73523,-0.11025 -1.22404,-0.0678 -1.33775,0.1162 -0.0985,0.15946 -0.41928,0.28993 -0.71273,0.28993 -0.46622,0 -0.52436,-0.14913 -0.46084,-1.18202 z m -17.230635,-0.97162 c 0,-0.16586 0.19318,-0.44282 0.4293,-0.61548 0.26539,-0.19405 0.36776,-0.50825 0.26813,-0.82291 -0.13747,-0.43417 -0.36826,-0.49611 -1.56965,-0.42129 -1.3676,0.0852 -1.43854,0.0545 -2.44438,-1.05834 -1.03661,-1.14683 -1.11346,-1.17573 -3.40766,-1.28135 -0.27861,-0.0128 -0.69533,0.16904 -0.92604,0.40413 -0.38477,0.39207 -0.35926,0.41269 0.30811,0.24907 0.65013,-0.15939 0.7276,-0.10656 0.7276,0.49614 0,0.88476 0.34485,1.07396 2.24896,1.23388 1.39677,0.11731 1.59766,0.20486 1.67205,0.72865 0.0507,0.35677 0.26894,0.59531 0.54474,0.59531 0.25311,0 0.69131,0.17481 0.97379,0.38846 0.61884,0.46806 1.17505,0.51716 1.17505,0.10373 z m 18.436985,-1.07097 c -0.0845,-0.21106 -0.14716,-0.14837 -0.15985,0.15985 -0.0115,0.27892 0.0511,0.43519 0.13896,0.34727 0.0879,-0.0879 0.0973,-0.31612 0.0209,-0.50712 z m -29.81407,-0.21497 c 0,-0.14552 -0.18562,-0.26459 -0.41249,-0.26459 -0.226869,0 -0.338905,0.11907 -0.248968,0.26459 0.08994,0.14552 0.275557,0.26458 0.41249,0.26458 0.136932,0 0.248968,-0.11906 0.248968,-0.26458 z m 28.67746,-0.75205 c 0.0674,-0.24122 0.20478,-0.8553 0.30521,-1.36462 0.35019,-1.77599 1.27823,-2.0756 1.06336,-0.34329 -0.0815,0.65715 -0.033,0.86321 0.15808,0.67209 0.1516,-0.1516 0.27618,-0.55549 0.27684,-0.89753 0.002,-1.02979 -0.56832,-4.20105 -0.85022,-4.7278 -0.17783,-0.33227 -0.17345,-0.54779 0.0135,-0.66331 0.37423,-0.23129 1.04746,0.3607 1.04746,0.92106 0,0.24897 0.0878,0.54045 0.19506,0.64773 0.10728,0.10729 0.19998,0.33549 0.20599,0.50712 0.006,0.17163 0.21244,0.9669 0.45872,1.76727 0.24629,0.80036 0.54916,2.05052 0.67305,2.77812 l 0.22525,1.32292 0.51002,-0.86058 c 0.58445,-0.98615 1.28941,-1.31031 1.84564,-0.84868 0.32206,0.26728 0.38418,0.18374 0.38418,-0.51661 0,-0.4595 -0.19548,-1.1338 -0.4344,-1.49845 -0.34708,-0.52972 -0.37482,-0.79377 -0.13796,-1.3136 0.30235,-0.66359 0.93916,-0.86283 1.23383,-0.38604 0.26305,0.42562 0.66146,0.30459 0.66146,-0.20094 0,-0.77811 -0.88793,-1.15886 -1.57698,-0.67623 -0.44429,0.31119 -0.65806,0.33548 -0.89216,0.10137 -0.23409,-0.2341 -0.1709,-0.55793 0.26382,-1.35154 l 0.57167,-1.04368 -1.0846,-0.72959 c -0.83193,-0.55963 -1.10743,-0.93061 -1.18259,-1.59246 -0.0784,-0.69041 0.0154,-0.90481 0.46948,-1.07278 0.52206,-0.19312 0.53224,-0.23915 0.12716,-0.57533 -0.37543,-0.31158 -0.47577,-0.30946 -0.68107,0.0144 -0.19483,0.30737 -0.35935,0.23286 -0.86209,-0.39042 -0.36369,-0.4509 -0.74917,-0.69126 -0.92968,-0.5797 -0.42486,0.26258 -0.38763,0.68852 0.0602,0.68852 0.35464,0 0.68976,0.53969 0.68976,1.11082 0,0.27332 -0.77778,0.1891 -1.65364,-0.17906 -0.32963,-0.13855 -0.46302,-0.0721 -0.46302,0.23056 0,0.42718 -0.661,0.59761 -0.87937,0.22674 -0.23098,-0.3923 0.36276,-1.44188 0.89431,-1.58089 0.68718,-0.1797 0.62184,-1.47794 -0.0811,-1.61124 -0.3605,-0.0684 -0.46302,0.0943 -0.46302,0.73465 0,0.72075 -0.061,0.78979 -0.49367,0.55826 -0.48921,-0.26182 -0.75961,-1.3845 -0.93431,-3.87912 -0.14032,-2.00373 -0.66825,-2.13393 -3.334525,-0.82234 -1.54535,0.76019 -1.73405,0.93993 -1.86034,1.77204 -0.16537,1.08955 0.19824,2.86783 0.70757,3.46041 0.19746,0.22974 0.36561,0.5274 0.37366,0.66146 0.0278,0.46363 1.525245,1.43275 2.539275,1.64344 1.59141,0.33064 1.34409,0.97641 -0.38441,1.00372 -1.260495,0.0199 -1.458185,-0.0562 -1.954095,-0.75268 -0.62483,-0.87748 -1.67645,-2.0476 -1.84024,-2.0476 -0.0599,0 -0.0635,0.47625 -0.008,1.05833 0.0568,0.59588 0.24079,1.05833 0.42101,1.05833 0.17604,0 0.5188,0.41672 0.76167,0.92605 0.4194,0.87948 0.97933,1.24874 0.97933,0.64584 0,-0.15411 0.11084,-0.2117 0.2463,-0.12798 0.13547,0.0837 0.31594,0.0395 0.40106,-0.0982 0.369055,-0.59713 2.855015,0.31536 3.006835,1.10369 0.0976,0.50669 -0.84823,0.66956 -1.14065,0.19642 -0.0899,-0.14552 -0.57705,-0.26458 -1.08247,-0.26458 -0.71078,0 -0.969285,0.13486 -1.141115,0.59531 -0.17694,0.47413 -0.0951,0.67944 0.402205,1.00861 0.48229,0.31925 0.55281,0.48486 0.30989,0.72778 -0.24292,0.24291 -0.23991,0.52067 0.0132,1.22062 0.37041,1.02434 0.16624,2.26851 -0.372265,2.26851 -0.1969,0 -0.4872,-0.47984 -0.64512,-1.06632 -0.15793,-0.58647 -0.40096,-0.99597 -0.54008,-0.90998 -0.15962,0.0987 -0.15507,0.33924 0.0123,0.65205 0.39948,0.74644 0.34186,0.80961 -0.62874,0.68923 -0.88448,-0.1097 -0.89099,-0.10284 -0.60964,0.64253 0.15641,0.41438 0.36659,0.70261 0.46707,0.64052 0.10048,-0.0621 0.24973,0.14345 0.33167,0.45679 0.12524,0.47892 0.21381,0.5159 0.55582,0.23206 0.23749,-0.1971 0.68357,-0.26818 1.071725,-0.17076 0.52533,0.13185 0.66489,0.0671 0.66489,-0.30846 0,-0.26143 0.18933,-0.74563 0.42072,-1.07599 0.31684,-0.45235 0.50606,-0.52981 0.76643,-0.31372 0.19015,0.15781 0.29084,0.49679 0.22377,0.7533 -0.15076,0.57651 1.1291,1.91941 1.64179,1.72267 0.20171,-0.0774 0.42191,-0.33808 0.48933,-0.5793 z m 1.26444,-9.58314 c -0.69291,-0.27772 -0.64699,-0.86115 0.0789,-1.00185 0.61813,-0.11982 1.72923,0.4782 1.72923,0.93071 0,0.4016 -0.89565,0.43684 -1.80808,0.0711 z m -26.502315,8.78076 c 0,-0.24822 -1.59241,-0.64552 -1.79107,-0.44687 -0.0655,0.0655 0.28097,0.23416 0.76987,0.37485 0.4889,0.1407 0.91867,0.26654 0.95505,0.27967 0.0364,0.0131 0.0661,-0.0803 0.0661,-0.20765 z m 14.00432,-1.28984 c 0.0218,-0.38759 -0.47986,-0.42573 -1.02922,-0.0782 -0.32975,0.20858 -0.31177,0.32679 0.12278,0.80696 0.4791,0.5294 0.52029,0.53425 0.69848,0.0823 0.10415,-0.26416 0.19773,-0.62911 0.20796,-0.81101 z m -4.47169,0.58612 c 0.27995,-0.33733 0.23965,-0.49676 -0.23806,-0.94182 -0.59577,-0.55504 -0.54545,-1.03336 0.10871,-1.03336 0.20692,0 0.45093,-0.29766 0.54224,-0.66146 0.0913,-0.36381 0.27511,-0.66146 0.40846,-0.66146 0.26438,0 0.77704,1.17782 0.83493,1.91823 0.0441,0.56389 0.41384,0.6077 0.6189,0.0733 0.0822,-0.21433 0.55371,-0.46551 1.04771,-0.55818 0.494,-0.0927 0.82574,-0.28572 0.73719,-0.42899 -0.0885,-0.14327 -0.43112,-0.20885 -0.76129,-0.14573 -0.53464,0.1022 -0.61809,-0.0151 -0.76298,-1.07216 -0.0973,-0.70963 -0.047,-1.32626 0.12492,-1.53346 0.15819,-0.1906 0.21846,-0.45843 0.13395,-0.59518 -0.22679,-0.36695 0.41336,-1.45904 1.30811,-2.23164 l 0.78437,-0.67728 -0.7276,-0.27835 c -0.40019,-0.15309 -0.72761,-0.43337 -0.72761,-0.62285 0,-0.4705 -1.67728,-1.91279 -1.79917,-1.54711 -0.15874,0.4762 -0.79844,0.33062 -0.9737,-0.2216 -0.0895,-0.28194 -0.0163,-0.74701 0.16259,-1.03348 0.25986,-0.41611 0.45294,-0.47234 0.95999,-0.27956 0.60422,0.22973 0.626,0.20174 0.45365,-0.58297 -0.22352,-1.01767 -0.88635,-1.8247 -1.49868,-1.8247 -0.49175,0 -0.95204,-0.66433 -1.09095,-1.57457 -0.13228,-0.86682 -1.11938,-1.41752 -2.18312,-1.21796 -0.71069,0.13332 -0.90942,0.29832 -0.90815,0.754 0.002,0.72216 0.69936,2.09787 1.20756,2.38227 0.7087,0.39661 0.39544,0.9088 -0.65894,1.07741 -0.87508,0.13993 -1.06376,0.28653 -1.20678,0.93767 -0.30626,1.39442 0.0805,2.52269 1.04235,3.04067 0.64539,0.34757 0.83951,0.6051 0.74075,0.98275 -0.0842,0.32208 -0.29329,0.46414 -0.56405,0.38329 -0.56984,-0.17017 -1.68557,0.77535 -1.57544,1.3351 0.0478,0.24289 0.32501,0.57343 0.61605,0.73455 0.76851,0.42544 0.92171,0.73269 0.63369,1.27087 -0.29241,0.54637 -1.17689,0.63876 -1.40295,0.14655 -0.0835,-0.1819 -0.0828,-0.0545 0.002,0.28315 0.11657,0.46598 0.0258,0.6473 -0.37684,0.75259 -0.46584,0.12182 -0.49669,0.23548 -0.25334,0.93355 0.2343,0.67212 0.38404,0.77367 0.96972,0.65768 0.74011,-0.14656 2.04603,0.66592 1.77506,1.10436 -0.22393,0.36232 -1.37235,0.51675 -1.85096,0.24891 -0.62149,-0.3478 -0.51335,0.026 0.17322,0.59876 0.77758,0.64869 3.66415,0.72348 4.17481,0.10817 z m -12.21738,-0.54022 c 0.26888,-0.59014 0.42094,-0.65746 1.13215,-0.50126 0.63834,0.14021 0.7851,0.10047 0.65808,-0.17819 -0.0899,-0.19725 -0.23317,-0.55249 -0.31836,-0.78941 -0.21928,-0.60987 -1.20242,-0.99428 -2.112602,-0.82603 -1.093359,0.20211 -1.578504,1.11652 -1.263392,2.38128 0.219491,0.88096 1.489624,0.82333 1.904124,-0.0864 z m 36.022245,-0.37663 c 0,-0.14552 -0.12609,-0.26459 -0.28019,-0.26459 -0.15412,0 -0.20661,0.11907 -0.11669,0.26459 0.0899,0.14552 0.21604,0.26458 0.2802,0.26458 0.0642,0 0.11668,-0.11906 0.11668,-0.26458 z m -17.548935,-1.38547 c 0.0732,-0.55168 0.0514,-0.5624 -0.27693,-0.13588 -0.19604,0.25466 -0.57442,0.46302 -0.84085,0.46302 -0.45593,0 -0.45422,0.0223 0.0292,0.37906 0.58997,0.43543 0.96979,0.18904 1.08861,-0.7062 z m -15.2594,0.59172 c 0,-0.14552 -0.11203,-0.26458 -0.24896,-0.26458 -0.13694,0 -0.32256,0.11906 -0.41249,0.26458 -0.0899,0.14552 0.0221,0.26458 0.24896,0.26458 0.22687,0 0.41249,-0.11906 0.41249,-0.26458 z m 1.68527,-0.008 c -0.18054,-0.18054 -0.48891,-0.18621 -0.91281,-0.0168 -0.60151,0.24043 -0.58505,0.25689 0.27265,0.27265 0.62654,0.0115 0.82731,-0.0687 0.64016,-0.25588 z m 15.77723,-0.75738 c 0,-0.27547 -0.18477,-0.57176 -0.41061,-0.65843 -0.22584,-0.0866 -0.36326,-0.0696 -0.30538,0.0378 0.0579,0.10748 0.17939,0.40377 0.27002,0.65843 0.21693,0.60955 0.44597,0.59012 0.44597,-0.0378 z m -3.43958,-1.04193 c 0,-0.33453 -1.29442,-0.95515 -1.52054,-0.72903 -0.10913,0.10913 0.0325,0.36728 0.31476,0.57366 0.56722,0.41477 1.20578,0.49705 1.20578,0.15537 z m -27.252081,-0.30926 c 0,-0.14552 -0.185621,-0.26458 -0.41249,-0.26458 -0.22687,0 -0.338906,0.11906 -0.248969,0.26458 0.08994,0.14552 0.275557,0.26459 0.41249,0.26459 0.136933,0 0.248969,-0.11907 0.248969,-0.26459 z m 13.324851,-0.13229 c -0.16103,-0.41962 -0.62485,-0.55055 -0.62485,-0.17639 0,0.2798 0.28921,0.57327 0.56496,0.57327 0.1167,0 0.14365,-0.1786 0.0599,-0.39688 z m 17.89067,-0.27098 c -0.18407,-0.2218 -0.38917,-0.34878 -0.45576,-0.28218 -0.18349,0.18349 0.18932,0.68545 0.50908,0.68545 0.17545,0 0.15537,-0.15181 -0.0533,-0.40327 z m -30.818646,-0.39048 c -0.08994,-0.14552 -0.282584,-0.26458 -0.428105,-0.26458 -0.145521,0 -0.190999,0.11906 -0.101062,0.26458 0.08994,0.14552 0.282584,0.26459 0.428105,0.26459 0.145521,0 0.190998,-0.11907 0.101062,-0.26459 z m 27.558156,-0.67417 c 0.17879,-0.46592 -0.65953,-1.22481 -1.15897,-1.04916 -0.17805,0.0626 -0.42928,-0.0747 -0.55829,-0.30527 -0.19136,-0.34195 -0.2681,-0.28546 -0.41675,0.30679 -0.1002,0.39926 -0.14663,0.748 -0.10317,0.775 0.37326,0.23181 1.46909,0.64996 1.74097,0.66432 0.18647,0.01 0.40976,-0.16641 0.49621,-0.39168 z m 3.53038,-0.78104 c 0,-0.21828 -0.11906,-0.39687 -0.26458,-0.39687 -0.14552,0 -0.26458,0.17859 -0.26458,0.39687 0,0.21829 0.11906,0.39688 0.26458,0.39688 0.14552,0 0.26458,-0.1786 0.26458,-0.39688 z m -31.930171,-2.19604 c 0.400237,-0.44226 0.39221,-0.50947 -0.112449,-0.94158 -0.755746,-0.64708 -1.931315,-0.47811 -2.040881,0.29335 -0.0465,0.32742 0.0428,0.6102 0.198438,0.62839 0.680264,0.0795 0.778635,0.1098 0.966492,0.29765 0.302794,0.3028 0.517592,0.24243 0.9884,-0.27781 z m 13.764021,0.14552 c 0.10434,-0.25713 0.1902,-0.25084 0.38586,0.0282 0.14584,0.20805 0.31761,0.25225 0.40854,0.10513 0.0863,-0.13962 -6.8e-4,-0.46933 -0.19325,-0.7327 -0.43838,-0.59952 -1.22041,-0.34795 -1.22041,0.39258 0,0.59234 0.40759,0.72841 0.61926,0.20674 z m 4.5345,-0.71853 c 0.0868,-0.14053 -0.1035,-0.76561 -0.42302,-1.38906 -0.31952,-0.62345 -0.63293,-0.98072 -0.69648,-0.79393 -0.0636,0.1868 0.0282,0.51281 0.20386,0.72448 0.43693,0.52647 -0.28778,0.80606 -1.04245,0.40217 -0.75527,-0.40421 -0.6888,-0.16133 0.17506,0.63969 0.74479,0.6906 1.50407,0.86803 1.78303,0.41665 z m 13.10249,-1.86115 c 0,-0.14553 -0.12609,-0.26459 -0.2802,-0.26459 -0.15411,0 -0.20661,0.11906 -0.11668,0.26459 0.0899,0.14552 0.21603,0.26458 0.2802,0.26458 0.0642,0 0.11668,-0.11906 0.11668,-0.26458 z m -2.28557,-0.92605 c -0.16103,-0.41962 -0.62485,-0.55055 -0.62485,-0.17639 0,0.27981 0.28921,0.57327 0.56496,0.57327 0.1167,0 0.14365,-0.1786 0.0599,-0.39688 z M 62.992056,171.3041 c -0.09022,-0.14599 -0.518866,-0.44244 -0.952536,-0.65878 -0.737969,-0.36815 -0.78849,-0.36075 -0.78849,0.11553 0,0.27989 0.178594,0.52377 0.396875,0.54196 0.74713,0.0623 0.8822,0.0995 1.080382,0.29766 0.266347,0.26635 0.470074,0.0374 0.263769,-0.29637 z m 45.354804,0.23023 c 0,-0.14553 -0.24514,-0.26459 -0.54478,-0.26459 -0.29963,0 -0.4712,0.11906 -0.38126,0.26459 0.0899,0.14552 0.33509,0.26458 0.54478,0.26458 0.20969,0 0.38126,-0.11906 0.38126,-0.26458 z m -43.211213,-0.38867 c -0.152794,-0.46516 -1.238783,-0.49108 -1.238783,-0.0296 0,0.27847 0.215618,0.39447 0.664195,0.35735 0.365308,-0.0302 0.623872,-0.17773 0.574588,-0.32777 z m 16.223718,0.0134 c 0,-0.27267 -1.87072,-1.23192 -2.11184,-1.08289 -0.53974,0.33358 -0.24489,0.63879 0.85507,0.88512 0.61846,0.1385 1.15424,0.26457 1.19062,0.28015 0.0364,0.0156 0.0662,-0.0215 0.0662,-0.0824 z m 12.03854,-0.15387 c -0.0899,-0.14552 -0.30532,-0.26276 -0.47864,-0.26053 -0.18934,0.002 -0.1567,0.10642 0.0818,0.26053 0.5083,0.32849 0.59989,0.32849 0.39688,0 z m 63.301555,-0.69593 c 0.91038,-0.24397 0.70834,-0.62698 -0.33073,-0.62698 -0.64676,0 -0.92604,0.11969 -0.92604,0.39687 0,0.42589 0.31263,0.48313 1.25677,0.23011 z m 2.97656,-0.0978 c 0,-0.14552 -0.17859,-0.26458 -0.39687,-0.26458 -0.21828,0 -0.39688,0.11906 -0.39688,0.26458 0,0.14552 0.1786,0.26459 0.39688,0.26459 0.21828,0 0.39687,-0.11907 0.39687,-0.26459 z m -55.18769,-0.62359 c -0.17011,-0.44329 -0.63938,-0.60702 -0.63938,-0.22308 0,0.25741 0.59027,0.87376 0.71618,0.74784 0.0495,-0.0495 0.0149,-0.28565 -0.0768,-0.52476 z m -12.476845,-0.40464 c 0.0828,-0.31681 -0.18014,-0.84824 -0.72013,-1.45521 -0.97445,-1.09531 -1.61796,-1.30298 -1.1181,-0.36083 0.30427,0.57351 1.55008,2.3151 1.65605,2.3151 0.0284,0 0.1104,-0.22458 0.18218,-0.49906 z m 69.252035,-1.42098 c 0,-0.61012 -0.60854,-1.25496 -1.18432,-1.25496 -0.35009,0 -0.71012,-0.11906 -0.80005,-0.26458 -0.22317,-0.36109 -1.71979,-0.33666 -1.71979,0.0281 0,0.28958 0.69086,0.90187 2.24219,1.98718 0.71676,0.50144 0.83512,0.51691 1.13124,0.14786 0.1819,-0.22669 0.33073,-0.5163 0.33073,-0.64357 z m -94.629133,-1.25496 c 0.367343,-0.43656 0.790909,-0.79375 0.941258,-0.79375 0.150348,0 0.203466,-0.18214 0.11804,-0.40476 -0.09672,-0.25205 -0.339606,-0.34627 -0.643778,-0.24973 -0.286502,0.0909 -0.797573,-0.0735 -1.236102,-0.39773 -0.935722,-0.6918 -2.258536,-0.83294 -2.379496,-0.25387 -0.04753,0.22754 0.215696,0.73969 0.584944,1.13811 0.369248,0.39843 0.671361,0.81353 0.671361,0.92245 0,0.30938 0.600596,0.83303 0.955438,0.83303 0.176241,0 0.620992,-0.35719 0.988335,-0.79375 z m 13.269768,0.12539 c -1.26272,-0.77773 -1.64086,-0.8402 -0.95911,-0.15846 0.54674,0.54674 1.01755,0.77849 1.62057,0.79768 0.21828,0.007 -0.0794,-0.2807 -0.66146,-0.63922 z m -4.527054,-0.76265 c -0.111116,-0.28491 -1.331794,-0.95024 -1.743403,-0.95024 -0.25054,0 -0.28585,0.89613 -0.04481,1.13717 0.290318,0.29032 1.908373,0.12117 1.788211,-0.18693 z m 85.335209,-0.78211 c -0.0606,-0.0531 -0.4079,-0.25113 -0.7717,-0.44019 -0.60505,-0.31442 -0.6305,-0.3062 -0.29834,0.0965 0.19972,0.24211 0.54699,0.44019 0.7717,0.44019 0.22472,0 0.35897,-0.0434 0.29834,-0.0965 z m -84.380035,-0.28679 c 0,-0.24407 -1.212427,-1.39985 -1.785932,-1.70248 -0.486611,-0.25678 -0.595313,-0.24488 -0.595313,0.0652 0,0.20862 0.506016,0.68441 1.124479,1.05731 1.227336,0.74002 1.256766,0.75361 1.256766,0.57999 z m 85.724995,-0.55841 c 0,-0.22687 -0.11906,-0.33891 -0.26458,-0.24897 -0.14552,0.0899 -0.26458,0.27556 -0.26458,0.41249 0,0.13693 0.11906,0.24897 0.26458,0.24897 0.14552,0 0.26458,-0.18562 0.26458,-0.41249 z m -3.59562,-0.2825 c 0.19039,-0.49614 -0.26796,-1.15709 -0.8024,-1.15709 -0.45794,0 -0.48731,1.22925 -0.0337,1.41227 0.55626,0.22445 0.66481,0.19132 0.83615,-0.25518 z m 2.53729,-0.59553 c 0,-0.1277 -0.17859,-0.38041 -0.39688,-0.56156 -0.32186,-0.26713 -0.39687,-0.25658 -0.39687,0.0558 0,0.21184 0.0794,0.46454 0.17639,0.56156 0.25127,0.25127 0.61736,0.21818 0.61736,-0.0558 z m -95.117701,-0.56156 c -0.08994,-0.14553 -0.275558,-0.26459 -0.41249,-0.26459 -0.136933,0 -0.248969,0.11906 -0.248969,0.26459 0,0.14552 0.185621,0.26458 0.41249,0.26458 0.22687,0 0.338905,-0.11906 0.248969,-0.26458 z m 91.678121,-0.51356 c 0,-0.13693 -0.11907,-0.32255 -0.26459,-0.41249 -0.14552,-0.0899 -0.26458,0.0221 -0.26458,0.24897 0,0.22687 0.11906,0.41249 0.26458,0.41249 0.14552,0 0.26459,-0.11203 0.26459,-0.24897 z M 61.515614,161.6433 c 0,-0.38121 -1.273645,-0.75399 -1.692221,-0.4953 -0.321899,0.19895 0.611406,0.86133 1.213624,0.86133 0.263228,0 0.478597,-0.16472 0.478597,-0.36603 z m 98.689576,-0.80898 c 0,-0.0642 -0.11906,-0.19027 -0.26458,-0.2802 -0.14553,-0.0899 -0.26459,-0.0374 -0.26459,0.11667 0,0.15411 0.11906,0.2802 0.26459,0.2802 0.14552,0 0.26458,-0.0525 0.26458,-0.11667 z m -94.837542,-0.81778 c -0.654419,-0.49498 -0.941618,-0.49242 -0.941618,0.008 0,0.2586 0.253494,0.39394 0.727604,0.38846 0.696929,-0.008 0.705952,-0.0248 0.214014,-0.39688 z m 3.027132,-0.76972 c 0,-0.0642 -0.119062,-0.19027 -0.264583,-0.2802 -0.145521,-0.0899 -0.264583,-0.0374 -0.264583,0.11668 0,0.1541 0.119062,0.28019 0.264583,0.28019 0.145521,0 0.264583,-0.0525 0.264583,-0.11667 z m 90.91843,-1.50826 c -0.32685,-0.74899 -0.39116,-0.79451 -0.40935,-0.28971 -0.0228,0.63169 0.5816,1.82488 0.71762,1.4168 0.0437,-0.13116 -0.095,-0.63835 -0.30827,-1.12709 z m -95.151763,-0.16351 c 0,-0.11051 -0.238125,-0.34965 -0.529167,-0.5314 -0.579341,-0.36181 -0.717513,-0.091 -0.211666,0.41484 0.358376,0.35838 0.740833,0.41855 0.740833,0.11656 z m -0.529167,-2.0324 c 0,-0.0642 -0.119062,-0.19026 -0.264583,-0.2802 -0.145521,-0.0899 -0.264583,-0.0374 -0.264583,0.11668 0,0.15411 0.119062,0.2802 0.264583,0.2802 0.145521,0 0.264583,-0.0525 0.264583,-0.11668 z m 1.088099,-1.54689 c -0.216076,-0.21608 -0.294349,-0.18647 -0.294349,0.11134 0,0.52596 0.355786,0.88174 0.487274,0.48728 0.05578,-0.16735 -0.03103,-0.43673 -0.192925,-0.59862 z m 6.164784,0.7098 c 0.229347,-0.088 0.354334,-0.2614 0.277749,-0.38532 -0.169147,-0.27369 -0.916048,-0.0217 -0.916048,0.30906 0,0.2791 0.08366,0.28909 0.638299,0.0763 z m 78.472107,-2.58725 c 0,-0.35567 -1.04214,-0.79671 -1.29205,-0.5468 -0.1367,0.13671 0.77528,0.8909 1.09361,0.9044 0.10915,0.005 0.19844,-0.15629 0.19844,-0.3576 z m -75.252309,-0.9569 c 0.20638,0 0.375236,-0.23812 0.375236,-0.52917 0,-0.42837 -0.176389,-0.52916 -0.926042,-0.52916 -0.721591,0 -0.926041,0.10709 -0.926041,0.48507 0,0.62486 0.274034,0.89083 0.735423,0.71378 0.201404,-0.0773 0.535045,-0.14052 0.741424,-0.14052 z m 1.962734,-0.26458 c 0,-0.14552 -0.11906,-0.26459 -0.26458,-0.26459 -0.145522,0 -0.264585,0.11907 -0.264585,0.26459 0,0.14552 0.119063,0.26458 0.264585,0.26458 0.14552,0 0.26458,-0.11906 0.26458,-0.26458 z m -5.671929,-0.68948 c -0.11134,-0.44361 -0.02005,-0.92298 0.256005,-1.34429 0.235979,-0.36015 0.367551,-0.81509 0.292383,-1.01097 -0.07517,-0.19589 0.01905,-0.48539 0.209374,-0.64335 0.42259,-0.35072 0.819454,0.0514 1.0816,1.09585 0.162965,0.6493 0.281324,0.70749 1.342347,0.65997 1.106668,-0.0496 1.163283,-0.091 1.156662,-0.84586 l -0.007,-0.79375 -0.496629,0.59531 c -0.856791,1.02705 -1.227359,0.70261 -1.304823,-1.14237 -0.02802,-0.66729 0.118955,-0.8878 0.826344,-1.23985 0.728027,-0.36232 0.771223,-0.43081 0.280724,-0.44513 -0.318834,-0.009 -0.653282,-0.13598 -0.743219,-0.2815 -0.289383,-0.46823 -0.702502,-0.28155 -0.536234,0.24232 0.187223,0.58988 -0.160213,0.88751 -0.76509,0.6554 -0.556315,-0.21348 -0.824821,-1.33414 -0.432823,-1.80646 0.236886,-0.28544 0.231768,-0.49689 -0.02186,-0.90301 -0.2607,-0.41744 -0.263218,-0.67944 -0.01183,-1.23118 0.371191,-0.81468 0.269386,-1.0708 -0.506251,-1.27364 -0.40783,-0.10665 -0.599363,-0.006 -0.69644,0.36494 -0.124641,0.47663 -0.854281,0.70009 -1.189937,0.36444 -0.693706,-0.69371 1.550595,-2.33338 2.319905,-1.69491 0.48413,0.40179 0.914513,0.0986 0.914513,-0.64417 0,-0.39699 -0.241484,-0.7134 -0.706004,-0.92505 -0.641585,-0.29233 -0.760493,-0.25395 -1.303169,0.42055 -0.472694,0.58752 -0.665962,0.67479 -0.927235,0.41868 -0.253887,-0.24888 -0.260129,-0.47706 -0.02705,-0.98862 0.281206,-0.61718 0.255922,-0.66117 -0.351135,-0.61093 -0.481048,0.0398 -0.654161,0.20808 -0.654161,0.63584 0,0.31994 0.148828,0.64236 0.330729,0.71649 0.459227,0.18716 -0.831754,1.21872 -1.534751,1.22634 -0.637541,0.007 -1.965936,0.58409 -1.968914,0.85548 -0.0011,0.10347 -0.269954,0.4392 -0.597376,0.74608 l -0.595313,0.55795 0.727604,0.53276 c 0.400183,0.29301 0.727605,0.71806 0.727605,0.94454 0,0.73212 0.78465,1.08484 1.75252,0.78779 0.949423,-0.29139 1.687063,0.0592 1.687063,0.80174 0,0.28898 -0.17821,0.34843 -0.672536,0.22437 -0.792939,-0.19902 -1.419721,0.31274 -1.599884,1.30628 -0.07975,0.43979 0.01681,0.72205 0.281799,0.82374 0.543793,0.20867 0.507262,0.53758 -0.136447,1.22852 -0.296762,0.31854 -0.505122,0.81766 -0.463021,1.10915 0.06369,0.44099 0.254276,0.52021 1.134881,0.47178 0.582083,-0.032 1.41552,0.10906 1.852083,0.31351 1.136303,0.53214 1.268957,0.49823 1.074944,-0.27478 z m -12.380309,-0.0548 c 0.06445,-0.19334 -0.05651,-0.25247 -0.314193,-0.15359 -0.230441,0.0884 -0.418984,0.27702 -0.418984,0.4191 0,0.34777 0.60134,0.13 0.733177,-0.26551 z m 18.207918,-1.83403 c -0.28903,-0.28903 -0.48722,0.17062 -0.27971,0.64871 0.19676,0.45333 0.21103,0.45292 0.32066,-0.009 0.0631,-0.26605 0.0447,-0.55378 -0.0409,-0.63941 z m 78.425565,-0.31645 c 0,-0.13693 -0.11906,-0.32255 -0.26458,-0.41249 -0.14553,-0.0899 -0.26459,0.0221 -0.26459,0.24897 0,0.22687 0.11906,0.41249 0.26459,0.41249 0.14552,0 0.26458,-0.11203 0.26458,-0.24897 z m -76.927195,-0.68644 c 0.091,-0.47577 -0.0177,-0.74892 -0.37363,-0.93941 -0.44127,-0.23616 -0.48719,-0.18764 -0.38029,0.40187 0.1184,0.65291 0.36655,1.20837 0.53985,1.20837 0.0472,0 0.14354,-0.30187 0.21407,-0.67083 z m 76.147225,-0.58594 c -0.54003,-0.92807 -1.00706,-1.38906 -1.40724,-1.38906 -0.62355,0 -0.27432,0.88548 0.55119,1.39758 0.91953,0.57041 1.19134,0.56771 0.85605,-0.008 z m -12.88593,-2.68683 c -0.52632,-0.6147 -1.40386,-0.72456 -1.8916,-0.23682 -0.24695,0.24695 -0.3175,0.22475 -0.3175,-0.0999 0,-0.22956 0.16997,-0.55845 0.37771,-0.73086 0.32186,-0.26712 0.28274,-0.45342 -0.26458,-1.25995 -1.22086,-1.79903 -0.4854,-2.91836 1.4697,-2.23682 1.43875,0.50155 0.9348,-0.40787 -0.63845,-1.15213 -1.39364,-0.6593 -1.43246,-0.70684 -1.29069,-1.58047 0.26211,-1.61521 -0.1019,-2.6543 -1.19529,-3.41202 -1.35704,-0.94043 -2.73256,-0.94188 -3.3474,-0.004 -0.32695,0.49899 -0.37195,0.76973 -0.16272,0.97896 0.15907,0.15907 0.28922,0.5668 0.28922,0.90606 0,0.33927 0.17791,0.68512 0.39535,0.76856 0.86617,0.33238 0.0135,0.68421 -1.29079,0.53262 -1.70819,-0.19852 -2.07041,0.0141 -1.85543,1.08901 0.14533,0.72661 1.16337,2.06367 1.16337,1.52792 0,-0.11205 0.31263,0.001 0.69474,0.25148 0.5749,0.37669 0.73812,0.39335 0.94619,0.0966 0.19555,-0.27892 0.28127,-0.28512 0.38564,-0.0279 0.0738,0.1819 0.33643,0.33073 0.5836,0.33073 0.2975,0 0.46944,0.242 0.50866,0.71592 0.0449,0.54277 -0.0149,0.64175 -0.2474,0.40926 -0.21126,-0.21126 -0.45868,-0.22531 -0.7953,-0.0452 -0.57412,0.30726 -0.60913,0.67167 -0.1579,1.64328 0.35068,0.75512 0.40702,0.77445 2.40922,0.82651 0.9841,0.0256 1.39648,0.1714 1.76221,0.62305 0.4659,0.57537 1.24666,0.85068 0.9218,0.32505 -0.0899,-0.14552 -0.0374,-0.26459 0.11667,-0.26459 0.15411,0 0.2802,0.13295 0.2802,0.29545 0,0.16513 0.23329,0.23443 0.52891,0.15713 0.29089,-0.0761 0.60047,-0.0225 0.68795,0.11903 0.0875,0.14154 0.21518,0.20122 0.28379,0.13261 0.0686,-0.0686 -0.0888,-0.37419 -0.34988,-0.67906 z m 12.0171,-0.0461 c -0.85044,-0.45531 -1.5262,-0.53595 -1.5262,-0.18212 0,0.23744 0.31994,0.36178 0.93089,0.36178 0.51198,0 0.77987,-0.0808 0.59531,-0.17966 z m -75.874115,-0.20267 c 0,-0.40886 -1.02027,-1.15409 -1.32348,-0.9667 -0.208137,0.12864 -0.160729,0.3367 0.15663,0.68738 0.465,0.51382 1.16685,0.68183 1.16685,0.27932 z m -3.70545,-0.56377 c 0.339344,-0.21453 0.320535,-0.3068 -0.132292,-0.649 -0.609038,-0.46023 -0.924753,-0.51923 -0.924753,-0.17279 0,0.13362 -0.07227,0.43128 -0.160599,0.66146 -0.183154,0.47729 0.561227,0.5753 1.217644,0.16033 z m 77.226285,-0.89228 c 0.51534,-0.62095 -0.54712,-1.32969 -1.67588,-1.11794 -0.51514,0.0966 -0.9348,0.25962 -0.93257,0.36216 0.0101,0.46384 0.45777,0.80945 1.18743,0.91669 0.43609,0.0641 0.86761,0.13436 0.95893,0.15616 0.0913,0.0218 0.29926,-0.12088 0.46209,-0.31707 z m -75.962713,-3.39706 c -0.0576,-0.17281 -0.246199,-0.36135 -0.419104,-0.41899 -0.193344,-0.0645 -0.252475,0.0565 -0.153594,0.3142 0.184553,0.48093 0.731435,0.581 0.572698,0.10479 z m 65.412713,-2.32334 c 0,-0.14095 -0.1786,-0.18774 -0.39688,-0.10398 -0.21828,0.0838 -0.39687,0.19908 -0.39687,0.25628 0,0.0572 0.17859,0.10398 0.39687,0.10398 0.21828,0 0.39688,-0.11533 0.39688,-0.25628 z M 72.36353,135.6833 c 0,-0.33267 -0.186379,-0.67637 -0.414176,-0.76378 -0.317946,-0.12201 -0.375277,-0.0364 -0.246754,0.36856 0.179112,0.56434 -0.342766,0.74089 -0.809719,0.27394 -0.336086,-0.33609 -1.033715,0.10489 -0.78994,0.49933 0.103651,0.16771 0.406541,0.23571 0.673089,0.15111 0.266549,-0.0846 0.557998,-0.0351 0.647665,0.10998 0.277518,0.44903 0.939835,-0.001 0.939835,-0.63914 z m 52.12291,-1.17501 c 0,-0.35189 -0.25549,-0.47008 -1.41184,-0.65309 -0.71375,-0.11297 -0.98442,-0.069 -0.91207,0.14804 0.0566,0.16977 0.38703,0.35203 0.73432,0.40503 0.34728,0.053 0.68826,0.1532 0.75773,0.22267 0.22389,0.2239 0.83186,0.13425 0.83186,-0.12265 z m 3.43958,-0.0156 c 0,-0.14553 0.11907,-0.26459 0.26459,-0.26459 0.14552,0 0.50271,-0.23812 0.79375,-0.52916 0.29104,-0.29105 0.76729,-0.52917 1.05833,-0.52917 0.69756,0 0.67175,-0.39929 -0.0589,-0.91104 -0.82442,-0.57745 -1.03543,-0.51502 -0.84353,0.24958 0.11859,0.47251 0.0589,0.66146 -0.20897,0.66146 -0.619,0 -1.36674,-0.68887 -1.20506,-1.11019 0.13204,-0.34411 -1.18815,-1.91451 -1.63249,-1.94189 -0.0837,-0.005 -0.42931,-0.16316 -0.76811,-0.35111 -0.33879,-0.18795 -0.78944,-0.27517 -1.00144,-0.19381 -0.334,0.12817 -0.3298,0.25552 0.0315,0.95418 0.22932,0.44345 0.34552,0.92184 0.25822,1.06309 -0.43174,0.69858 -2.50874,-0.19318 -2.50874,-1.07713 0,-0.26364 -0.20836,-0.52243 -0.46302,-0.5751 -0.77504,-0.16031 -1.65364,0.0972 -1.65364,0.48468 0,0.20131 -0.22839,0.36603 -0.50753,0.36603 -1.52938,0 -1.77628,0.9126 -0.53051,1.96085 1.21077,1.0188 2.62554,0.87364 2.62554,-0.26937 0,-0.72988 0.64147,-0.85826 1.0088,-0.20189 0.13273,0.23719 0.46607,0.45397 0.74075,0.48173 0.5947,0.0601 1.42771,0.39131 1.89514,0.75352 0.2684,0.20797 0.24648,0.36192 -0.10715,0.75268 -0.42854,0.47353 -0.38588,0.49123 1.18395,0.49123 0.90928,0 1.62851,-0.11685 1.62851,-0.26458 z m -14.77722,-0.33097 c -0.20023,-0.20024 -0.39327,-0.21478 -0.56546,-0.0426 -0.17219,0.17219 -0.0684,0.27597 0.30403,0.30402 0.42588,0.0321 0.49041,-0.0324 0.26143,-0.26143 z m 1.68471,-0.90521 c -0.56021,-0.48427 -1.29639,-0.88049 -1.63594,-0.88049 -0.95275,0 -0.73327,0.34841 0.55254,0.87714 0.64237,0.26414 1.2364,0.65864 1.32006,0.87666 0.0866,0.22573 0.2877,0.31262 0.46702,0.20179 0.21208,-0.13107 -0.0177,-0.48211 -0.70368,-1.0751 z m -18.392895,0.70728 c 0.35971,-0.10185 -1.03821,-0.49458 -1.81834,-0.51084 -0.76777,-0.016 -0.84589,0.0373 -0.55978,0.38205 0.28176,0.3395 1.41681,0.40097 2.37812,0.12879 z m 0.88661,-1.46282 c -0.0853,-0.22233 -0.36733,-0.5178 -0.62671,-0.65662 -0.63634,-0.34055 -0.94146,0.41602 -0.31506,0.78121 0.67519,0.39364 1.11814,0.33503 0.94177,-0.12459 z m -20.8142,-0.43914 c -0.0845,-0.21107 -0.14716,-0.14837 -0.15986,0.15985 -0.0115,0.27892 0.0511,0.43519 0.13897,0.34727 0.0879,-0.0879 0.0973,-0.31612 0.0209,-0.50712 z m 17.01717,0.0496 c 0,-0.14552 -0.0893,-0.2745 -0.19844,-0.28663 -0.10914,-0.0121 -0.46632,-0.0518 -0.79375,-0.0881 -0.70062,-0.0777 -0.80454,0.28123 -0.13229,0.4569 0.81216,0.21224 1.12448,0.18941 1.12448,-0.0822 z M 75.406239,131.0531 c -0.08994,-0.14552 -0.282584,-0.26459 -0.428105,-0.26459 -0.145521,0 -0.190999,0.11907 -0.101062,0.26459 0.08994,0.14552 0.282584,0.26458 0.428105,0.26458 0.145521,0 0.190998,-0.11906 0.101062,-0.26458 z m 37.703121,0 c 0,-0.14552 -0.1786,-0.26459 -0.39687,-0.26459 -0.21828,0 -0.39688,0.11907 -0.39688,0.26459 0,0.14552 0.17859,0.26458 0.39688,0.26458 0.21827,0 0.39687,-0.11906 0.39687,-0.26458 z m 17.07383,-0.2513 c -0.0974,-0.15758 -0.30061,-0.21015 -0.45161,-0.11682 -0.17777,0.10986 -0.15071,0.24622 0.0768,0.3868 0.42459,0.26242 0.61786,0.12322 0.37485,-0.26998 z m -6.4905,-0.12996 c 0,-0.0642 -0.11906,-0.19026 -0.26458,-0.2802 -0.14552,-0.0899 -0.26459,-0.0374 -0.26459,0.11668 0,0.1541 0.11907,0.28019 0.26459,0.28019 0.14552,0 0.26458,-0.0525 0.26458,-0.11667 z M 56.753114,129.6135 c 0,-0.0642 -0.119063,-0.19026 -0.264584,-0.28019 -0.145521,-0.0899 -0.264583,-0.0374 -0.264583,0.11667 0,0.15411 0.119062,0.2802 0.264583,0.2802 0.145521,0 0.264584,-0.0525 0.264584,-0.11668 z m -2.315105,-0.32313 c -0.181901,-0.0734 -0.479557,-0.0734 -0.661458,0 -0.181901,0.0734 -0.03307,0.13345 0.330729,0.13345 0.363802,0 0.51263,-0.06 0.330729,-0.13345 z m 73.223431,-0.65092 c 0,-0.31898 -0.72455,-0.29363 -0.92604,0.0324 -0.28598,0.46272 0.1381,0.85372 0.55272,0.50962 0.20533,-0.17041 0.37332,-0.41431 0.37332,-0.54202 z m -54.935592,-0.62371 c -0.239409,-0.62389 -1.942747,-1.57346 -2.257631,-1.25858 -0.182382,0.18238 -0.0056,0.42469 0.548534,0.75205 0.449687,0.26564 0.817613,0.57637 0.817613,0.69052 0,0.11414 0.234388,0.20753 0.520862,0.20753 0.351122,0 0.471902,-0.12759 0.370622,-0.39152 z m 2.018932,0.12694 c 0,-0.14552 -0.126089,-0.26458 -0.280198,-0.26458 -0.154109,0 -0.206614,0.11906 -0.116677,0.26458 0.08994,0.14552 0.216026,0.26458 0.280198,0.26458 0.06417,0 0.116677,-0.11906 0.116677,-0.26458 z m -5.55625,-0.26458 c 0,-0.14552 -0.178594,-0.26459 -0.396875,-0.26459 -0.218281,0 -0.396875,0.11907 -0.396875,0.26459 0,0.14552 0.178594,0.26458 0.396875,0.26458 0.218281,0 0.396875,-0.11906 0.396875,-0.26458 z m 57.18417,-0.86541 c -0.44049,-0.44049 -0.68998,-0.003 -0.27999,0.49115 0.24796,0.29878 0.39137,0.33446 0.46435,0.11554 0.0581,-0.17422 -0.0249,-0.44722 -0.18436,-0.60669 z m 3.40541,0.48843 c 0,-0.26242 -2.27798,-2.2634 -2.57969,-2.266 -0.53697,-0.005 -0.37759,0.47578 0.22086,0.66572 0.42151,0.13378 0.51491,0.32121 0.39606,0.79475 -0.13597,0.54172 -0.0472,0.63313 0.70518,0.72647 0.47339,0.0587 0.95001,0.12582 1.05915,0.14911 0.10914,0.0233 0.19844,-0.008 0.19844,-0.0701 z m -58.351921,-1.98599 c 0.08372,-0.13547 0.03122,-0.32109 -0.116676,-0.41249 -0.147895,-0.0914 -0.268899,0.0194 -0.268899,0.2463 0,0.46475 0.158764,0.53318 0.385575,0.16619 z m 0.408175,-4.89746 c 0,-0.0642 -0.119063,-0.19026 -0.264584,-0.2802 -0.145521,-0.0899 -0.264583,-0.0374 -0.264583,0.11668 0,0.15411 0.119062,0.2802 0.264583,0.2802 0.145521,0 0.264584,-0.0525 0.264584,-0.11668 z m -4.233334,-0.94996 c 0,-0.31675 -0.74629,-0.65652 -0.963947,-0.43886 -0.231698,0.2317 0.161304,0.71175 0.582687,0.71175 0.209693,0 0.38126,-0.1228 0.38126,-0.27289 z m 4.714358,-1.71149 c -0.294959,-0.64736 -0.745608,-0.90031 -0.745608,-0.41851 0,0.53974 0.3422,1.07997 0.684094,1.07997 0.291067,0 0.303243,-0.13092 0.06151,-0.66146 z m -2.714407,-0.27299 c -0.520524,-0.39371 -0.941617,-0.50446 -0.941617,-0.24765 0,0.12857 1.010361,0.60801 1.322916,0.62775 0.07276,0.005 -0.09882,-0.16645 -0.381299,-0.3801 z m -0.750261,-1.56592 c 0.120002,-0.0876 -2.148441,-1.73296 -2.389193,-1.73296 -0.341095,0 0.01042,1.64483 0.403422,1.88772 0.249256,0.15405 1.719673,0.0395 1.985771,-0.15476 z m 1.92531,-0.42566 c 0,-0.13693 -0.178594,-0.24897 -0.396875,-0.24897 -0.409154,0 -0.525649,0.3122 -0.227679,0.61017 0.211384,0.21138 0.624554,-0.0276 0.624554,-0.3612 z m 1.322917,-0.85751 c 0,-0.38125 -0.516937,-0.97896 -0.846667,-0.97896 -0.321089,0 -0.25303,0.64655 0.105834,1.00542 0.415478,0.41548 0.740833,0.40386 0.740833,-0.0265 z m -2.910417,-0.96626 c 0,-0.43782 -1.061095,-1.12659 -1.484987,-0.96392 -0.399826,0.15342 -0.384124,0.23753 0.150603,0.80672 0.535063,0.56955 1.334384,0.66372 1.334384,0.1572 z m 0.79375,-1.69681 c 0,-0.39784 -0.990832,-1.75787 -1.275974,-1.75142 -0.09858,0.002 -0.355785,0.11568 -0.571569,0.25213 -0.322675,0.20402 -0.232003,0.39122 0.510674,1.05428 0.988108,0.88218 1.336869,0.99827 1.336869,0.44501 z m 44.90863,75.39453 c -0.19372,-0.19372 -0.74567,-0.55568 -1.22657,-0.80436 l -0.87435,-0.45215 0.55656,-0.51851 c 0.30612,-0.28518 0.55657,-0.63294 0.55657,-0.77279 0,-0.13985 0.33733,-0.25428 0.74965,-0.25428 1.14903,0 1.19139,-0.28759 0.14691,-0.99735 -0.82048,-0.55753 -0.90086,-0.69924 -0.57912,-1.02098 0.32174,-0.32174 0.48655,-0.31725 1.18733,0.0323 0.78107,0.38965 1.67022,0.31507 1.67022,-0.14009 0,-0.41526 -0.86408,-1.07856 -1.22474,-0.94016 -0.44282,0.16993 -1.1565,-0.0779 -1.1565,-0.40166 0,-0.12995 0.19347,-0.23627 0.42995,-0.23627 0.34042,0 0.3955,-0.17215 0.26457,-0.82683 -0.0909,-0.45475 -0.16536,-0.99053 -0.16536,-1.19062 0,-0.20009 -0.22841,-0.3638 -0.50758,-0.3638 -0.29637,0 -0.74992,-0.39211 -1.08993,-0.94223 -0.35438,-0.5734 -0.72531,-0.88736 -0.94762,-0.80206 -0.24686,0.0947 -0.36529,-0.0616 -0.36529,-0.48212 0,-0.63091 0.94394,-1.15948 1.12116,-0.62781 0.0584,0.17511 0.42729,0.17098 1.09077,-0.0122 0.5514,-0.15225 1.1885,-0.20546 1.41578,-0.11824 0.27737,0.10643 0.37335,0.036 0.2919,-0.21432 -0.18493,-0.56833 -2.01286,-1.33723 -3.29715,-1.3869 -1.73476,-0.0671 -1.74378,-0.94343 -0.0142,-1.37753 0.78502,-0.19703 3.09589,0.51821 3.09589,0.95822 0,0.13348 0.23812,0.2427 0.52916,0.2427 0.34176,0 0.54088,0.18741 0.56224,0.52916 0.0182,0.29104 0.0628,0.64823 0.0992,0.79375 0.0364,0.14552 0.081,0.36964 0.0992,0.49804 0.0182,0.1284 0.49788,0.69827 1.06598,1.26636 0.61705,0.61706 1.15204,1.47535 1.32882,2.13184 0.18769,0.69702 0.48728,1.15967 0.81918,1.26501 0.29979,0.0952 0.53218,0.4127 0.54415,0.74356 0.0115,0.31762 0.0809,0.42866 0.15434,0.24675 0.23409,-0.58013 0.93881,-0.39388 0.75081,0.19844 -0.12989,0.40926 -0.0476,0.52917 0.36343,0.52917 0.29226,0 0.61093,-0.12871 0.70816,-0.28602 0.10392,-0.16816 0.46472,-0.21127 0.87551,-0.10461 0.3843,0.0998 1.04976,0.23935 1.47878,0.31017 0.63948,0.10556 0.72563,0.0632 0.47805,-0.23512 -0.33905,-0.40853 -0.28211,-1.34106 0.0879,-1.44026 0.1328,-0.0356 0.53117,0.30078 0.88526,0.74751 0.62232,0.78514 0.62725,0.82433 0.14787,1.17486 -0.4774,0.34908 -0.47499,0.36263 0.0644,0.36263 0.3196,0 0.6028,-0.19892 0.65919,-0.46301 0.0752,-0.35221 0.21107,-0.2515 0.56771,0.42075 0.25787,0.48608 0.39332,1.08061 0.301,1.32119 -0.14589,0.3802 -0.22769,0.35809 -0.62533,-0.16908 -0.62314,-0.82612 -1.47405,-0.5349 -1.23382,0.42227 0.20871,0.83156 -0.25881,1.1633 -1.09957,0.78022 -0.41366,-0.18847 -0.57567,-0.43471 -0.48142,-0.73168 0.19063,-0.60061 -0.44563,-1.08268 -1.74179,-1.3197 -1.05176,-0.19233 -1.07546,-0.17927 -1.5144,0.8339 -0.24526,0.56611 -0.58406,0.97627 -0.75289,0.91149 -0.16884,-0.0648 -0.37099,-0.0538 -0.44923,0.0245 -0.14148,0.14147 0.0661,0.45335 0.95041,1.42775 0.67602,0.7449 0.57499,0.99794 -0.46302,1.15967 -0.50932,0.0793 -1.37252,0.21679 -1.91823,0.30543 -2.16401,0.35147 -4.01571,0.34939 -4.37,-0.005 z m 4.66284,-0.71542 c 0.12468,-0.0926 -0.0745,-0.16844 -0.44256,-0.16844 -0.5281,0 -0.60381,0.0711 -0.35897,0.33712 0.17064,0.18541 0.36979,0.26121 0.44255,0.16844 0.0728,-0.0928 0.2343,-0.24447 0.35898,-0.33712 z m -2.18452,-0.73451 c -0.74171,-0.57025 -1.81692,-0.46021 -1.32263,0.13537 0.1664,0.2005 0.67493,0.36191 1.13005,0.35867 l 0.8275,-0.006 z m -1.87862,-0.29383 c 0,-0.14552 -0.11906,-0.26458 -0.26459,-0.26458 -0.14552,0 -0.26458,0.11906 -0.26458,0.26458 0,0.14553 0.11907,0.26459 0.26458,0.26459 0.14553,0 0.26459,-0.11906 0.26459,-0.26459 z m 1.85208,-0.79375 c 0,-0.14552 -0.12609,-0.26458 -0.2802,-0.26458 -0.15411,0 -0.20661,0.11906 -0.11667,0.26458 0.0899,0.14553 0.21602,0.26459 0.28019,0.26459 0.0642,0 0.11668,-0.11906 0.11668,-0.26459 z m 2.90637,-0.19843 c -0.0113,-0.55253 -0.50304,-0.92346 -0.96144,-0.72521 -0.45488,0.19672 -0.45678,0.21967 -0.0267,0.32253 0.25466,0.0609 0.46302,0.22108 0.46302,0.35593 0,0.13485 0.11907,0.24518 0.26459,0.24518 0.14552,0 0.26276,-0.0893 0.26053,-0.19843 z m 0.7978,-2.4474 c 0,-0.14552 -0.11204,-0.26458 -0.24897,-0.26458 -0.13693,0 -0.32255,0.11906 -0.41249,0.26458 -0.0899,0.14552 0.0221,0.26458 0.24897,0.26458 0.22687,0 0.41249,-0.11906 0.41249,-0.26458 z m -1.71979,-1.32291 c -0.0899,-0.14553 -0.32807,-0.26459 -0.52917,-0.26459 -0.20111,0 -0.43923,0.11906 -0.52917,0.26459 -0.0931,0.15065 0.13475,0.26458 0.52917,0.26458 0.39442,0 0.62228,-0.11393 0.52917,-0.26458 z m -1.19063,-0.80937 c 0,-0.13693 -0.17859,-0.24897 -0.39687,-0.24897 -0.40916,0 -0.52565,0.3122 -0.22768,0.61017 0.21138,0.21138 0.62455,-0.0276 0.62455,-0.3612 z m -0.30069,-1.60799 c -0.39707,-0.39708 -0.62535,-0.4666 -0.83702,-0.25494 -0.21166,0.21167 -0.1661,0.29105 0.16706,0.29105 0.25195,0 0.52636,0.17791 0.6098,0.39535 0.0834,0.21745 0.25396,0.33217 0.37893,0.25493 0.12496,-0.0772 -0.0185,-0.38611 -0.31877,-0.68639 z m -1.79613,-0.30124 c -0.0327,-0.31636 -0.39563,-0.25509 -0.50932,0.086 -0.0582,0.17463 0.037,0.26988 0.21166,0.21167 0.17463,-0.0582 0.30857,-0.19216 0.29766,-0.29766 z m 0.11245,-1.25015 c -0.0899,-0.14553 -0.27556,-0.26459 -0.41249,-0.26459 -0.13694,0 -0.24897,0.11906 -0.24897,0.26459 0,0.14552 0.18562,0.26458 0.41249,0.26458 0.22687,0 0.3389,-0.11906 0.24897,-0.26458 z m -24.004685,10.17066 c -0.12446,-0.12447 -0.78538,-0.24098 -1.99063,-0.35091 -0.1819,-0.0166 -0.33073,-0.2683 -0.33073,-0.55934 0,-0.42664 0.17639,-0.52917 0.91043,-0.52917 0.50074,0 0.98521,0.12101 1.07662,0.2689 0.0914,0.1479 0.26353,0.20874 0.38251,0.13521 0.11897,-0.0735 0.35034,0.0278 0.51414,0.22516 0.22372,0.26956 0.20866,0.43287 -0.0605,0.65625 -0.19708,0.16357 -0.42291,0.23282 -0.50183,0.1539 z m 38.953635,-0.59003 c -1.43143,-0.10705 -1.84649,-0.42758 -1.08288,-0.83625 0.38752,-0.20739 0.84643,-0.22177 1.48153,-0.0464 0.50606,0.13973 0.97483,0.16551 1.04172,0.0573 0.17384,-0.28127 -0.14179,-1.36311 -0.3586,-1.22912 -0.40484,0.2502 -0.86793,-0.33486 -0.69538,-0.87853 0.14176,-0.44664 0.39059,-0.56219 1.21064,-0.56219 0.83773,0 1.00157,-0.0798 0.86966,-0.42358 -0.0894,-0.23297 0.004,-0.5288 0.20674,-0.65741 0.30083,-0.19049 0.2887,-0.23458 -0.0654,-0.23788 -0.2391,-0.002 -0.49921,-0.17213 -0.57804,-0.37755 -0.0788,-0.20543 -0.57203,-0.52853 -1.096,-0.718 -0.83938,-0.30352 -0.94369,-0.43969 -0.87717,-1.14513 0.064,-0.67864 -0.0196,-0.80585 -0.54887,-0.83478 -0.34341,-0.0188 -0.71642,-0.18305 -0.82891,-0.36506 -0.21236,-0.34361 -1.99769,-0.4257 -2.91644,-0.1341 -0.28879,0.0917 -0.52507,0.32233 -0.52507,0.51262 0,0.19197 -0.29228,0.34597 -0.65663,0.34597 -0.42474,0 -0.58826,-0.10512 -0.46302,-0.29766 0.10649,-0.16371 0.19361,-0.97254 0.19361,-1.79741 0,-1.68298 0.42899,-2.34051 2.1185,-3.24709 0.86021,-0.46158 1.08244,-0.47911 2.19737,-0.17334 0.68221,0.18709 1.41897,0.36967 1.63726,0.40572 0.21828,0.0361 0.51593,0.40636 0.66145,0.8229 0.32226,0.9224 1.95263,2.63582 2.74842,2.88839 0.36296,0.1152 0.63894,0.47592 0.73621,0.96225 0.0856,0.42789 0.25928,0.84206 0.38601,0.92038 0.12672,0.0783 0.23041,0.41845 0.23041,0.75585 0,0.33739 0.16375,0.74935 0.36389,0.91545 0.47781,0.39655 1.0626,2.51311 0.88354,3.19784 -0.0876,0.33488 0.034,0.66165 0.32233,0.86641 0.25461,0.18081 0.60797,0.60205 0.78525,0.9361 l 0.32232,0.60734 -3.2569,-0.072 c -1.79129,-0.0396 -3.79267,-0.11205 -4.44752,-0.16103 z m 3.25512,-0.71347 c 0.0287,-0.14353 -0.15619,-0.30109 -0.41085,-0.35013 -0.28961,-0.0558 -0.46302,0.074 -0.46302,0.34651 0,0.46032 0.78192,0.46356 0.87387,0.004 z m 1.11346,-3.72743 c -0.52039,-0.68227 -0.79208,-0.86334 -0.93892,-0.62575 -0.11769,0.19041 -0.0461,0.49484 0.16623,0.7072 0.20507,0.20507 0.37286,0.47469 0.37286,0.59915 0,0.22141 0.82543,0.50685 1.02909,0.35587 0.0567,-0.042 -0.2265,-0.50842 -0.62926,-1.03647 z m -0.92899,-1.27497 c 0,-0.0572 -0.18478,-0.17489 -0.41062,-0.26155 -0.23546,-0.0904 -0.34166,-0.046 -0.24897,0.10398 0.15538,0.25141 0.65959,0.37186 0.65959,0.15757 z m -0.1791,-2.04479 c -0.33252,-0.33251 -0.69456,-0.4789 -0.8883,-0.35917 -0.23194,0.14335 -0.14355,0.3038 0.30405,0.5519 0.94871,0.52587 1.215,0.43803 0.58425,-0.19273 z m -1.66768,-0.35837 c -0.18408,-0.2218 -0.45762,-0.40327 -0.60788,-0.40327 -0.15025,0 -0.057,0.23885 0.20717,0.53079 0.54717,0.60462 0.91198,0.48853 0.40071,-0.12752 z m -3.04802,-1.56934 c 1.25242,-0.0145 2.11667,-0.13523 2.11667,-0.29561 0,-0.8993 -2.34123,-2.67074 -2.73093,-2.06629 -0.0987,0.15311 -0.65573,0.43907 -1.23782,0.63545 -1.43955,0.48567 -1.71979,0.73018 -1.71979,1.50055 0,0.59314 0.0736,0.63919 0.72761,0.45519 0.40018,-0.1126 1.6801,-0.21578 2.84426,-0.22929 z m 10.46665,8.7228 c -0.73822,-0.76166 -0.85532,-1.04306 -0.71856,-1.72684 0.12436,-0.62182 0.0383,-0.92404 -0.36058,-1.26553 -0.28818,-0.24675 -0.5247,-0.571 -0.52559,-0.72056 -9e-4,-0.14956 -0.18985,-0.62911 -0.41989,-1.06568 -0.68367,-1.29745 -0.52706,-3.0427 0.27304,-3.0427 0.23848,0 0.38641,0.51084 0.46581,1.60852 0.064,0.88469 0.22713,1.68836 0.36253,1.78594 0.1354,0.0976 0.37303,0.40731 0.52807,0.6883 0.15503,0.28098 0.78011,0.69254 1.38906,0.91457 1.08403,0.39525 1.39964,0.8761 0.81301,1.23866 -0.16179,0.1 -0.39561,0.0177 -0.5196,-0.18283 -0.18835,-0.30463 -0.2939,-0.29618 -0.6416,0.0514 -0.46154,0.46141 -0.28229,1.30375 0.27743,1.30375 0.47489,0 0.68586,0.38921 0.48902,0.90216 -0.23035,0.6003 -0.41978,0.53467 -1.41215,-0.48918 z m -83.866821,-4.3412 c -0.355557,-0.66436 0.120523,-1.09886 1.20402,-1.09886 0.606653,0 0.901484,-0.14553 1.014179,-0.5006 0.08739,-0.27533 0.386172,-0.56004 0.663968,-0.63269 0.986751,-0.25804 1.06891,0.46145 0.204995,1.79518 -0.523491,0.80818 -0.729852,0.91945 -1.710483,0.92233 -0.815782,0.002 -1.185376,-0.12791 -1.376679,-0.48536 z m 5.428944,-3.56018 c -0.432557,-0.31629 -0.436073,-0.37392 -0.04273,-0.70036 0.623269,-0.51727 1.947546,0.0742 1.465791,0.65473 -0.399437,0.48129 -0.809282,0.49443 -1.423057,0.0456 z m 75.746497,-8.76932 c -0.065,-0.065 -0.63356,-0.14855 -1.26353,-0.18572 -0.63723,-0.0376 -1.2036,-0.21928 -1.2766,-0.40951 -0.0722,-0.18806 -0.26756,-0.2575 -0.43421,-0.1543 -0.42479,0.26303 -3.61542,0.0898 -4.21036,-0.22861 -0.33676,-0.18023 -0.60461,-0.16999 -0.84851,0.0324 -0.26239,0.21777 -0.40457,0.21786 -0.53901,3.3e-4 -0.10044,-0.16251 -0.34916,-0.23156 -0.55272,-0.15345 -0.45917,0.1762 -0.47769,-0.0405 -0.0394,-0.46106 0.39613,-0.38006 3.38463,-0.25105 3.79971,0.16403 0.0949,0.0949 0.36518,0.0754 0.6007,-0.0432 0.23951,-0.12061 1.76793,-0.0272 3.46814,0.21199 2.46667,0.34699 3.05656,0.51414 3.12825,0.8864 0.0699,0.36282 -0.10016,0.45878 -0.81299,0.45878 -0.49574,0 -0.9545,-0.0532 -1.01948,-0.11814 z m -57.740365,-9.8785 c -2.70255,-0.0645 -3.11221,-0.13117 -2.97656,-0.48466 0.0865,-0.22544 0.15776,-0.48946 0.15833,-0.5867 5.7e-4,-0.0972 2.0544,-0.1768 4.56406,-0.1768 2.50966,0 5.39646,-0.0917 6.41511,-0.20386 1.01865,-0.11212 3.71753,-0.24787 5.99751,-0.30167 2.27999,-0.0538 4.2795,-0.18066 4.44336,-0.28193 0.16387,-0.10127 0.47486,-0.0373 0.69109,0.14216 0.37897,0.31452 2.694515,0.36078 5.841665,0.1167 0.70545,-0.0547 2.52542,-0.17333 4.0444,-0.26361 1.51897,-0.0903 2.83121,-0.20706 2.91609,-0.25951 0.0849,-0.0525 1.46145,0.0572 3.05906,0.24374 2.39193,0.27926 6.30944,0.45933 8.99015,0.41325 0.29104,-0.005 0.70776,-0.009 0.92604,-0.01 1.45835,-0.002 2.09542,0.66367 0.91808,0.95916 -0.38886,0.0976 -1.91536,0.0615 -3.39223,-0.0802 -1.47687,-0.14169 -2.8396,-0.17955 -3.02829,-0.0841 -0.18868,0.0954 -1.49837,0.0199 -2.91041,-0.16781 -2.31807,-0.30818 -6.97142,-0.26139 -7.51665,0.0756 -0.11643,0.072 -4.62284,0.17991 -10.014245,0.2399 -5.3914,0.06 -9.94091,0.19459 -10.11002,0.29911 -0.44301,0.2738 -5.3635,0.49802 -9.01654,0.41087 z m 47.186975,-1.08502 c 0,-0.26993 1.05664,-0.51648 1.53299,-0.3577 0.17732,0.0591 0.25509,0.21636 0.17284,0.34945 -0.1919,0.3105 -1.70583,0.31782 -1.70583,0.008 z M 67.865614,131.9635 c 0,-0.22687 0.121004,-0.3377 0.268899,-0.2463 0.147894,0.0914 0.200399,0.27703 0.116676,0.41249 -0.226811,0.36699 -0.385575,0.29856 -0.385575,-0.16619 z m 31.578181,-1.54303 c -0.64855,-1.36002 -0.28188,-2.24548 1.236145,-2.98515 0.65155,-0.31747 1.60136,-0.94326 2.11068,-1.39064 0.83966,-0.73754 1.08646,-0.81123 2.64583,-0.78999 2.83541,0.0386 4.7155,0.87619 5.14628,2.29266 0.14773,0.48577 0.0789,0.59531 -0.37425,0.59531 -0.30542,0 -0.62291,-0.17618 -0.70554,-0.39152 -0.13636,-0.35534 -1.6712,-1.46056 -2.0283,-1.46056 -0.0816,0 -0.3462,0.19789 -0.58806,0.43975 -0.40995,0.40995 -0.49394,0.40775 -1.23927,-0.0325 -0.70081,-0.41397 -0.92652,-0.43037 -1.82811,-0.13282 -0.91231,0.30109 -1.45692,1.04852 -0.764,1.04852 0.33289,0 0.34832,0.71077 0.0198,0.91378 -0.13462,0.0832 -0.55133,0.0116 -0.92604,-0.15914 -1.38628,-0.63163 -2.766745,0.87839 -1.58979,1.739 0.36958,0.27024 0.35642,0.3555 -0.12163,0.78812 -0.526195,0.47621 -0.544425,0.4675 -0.993775,-0.47479 z m -18.37679,0.41143 c -0.75532,-0.23423 -1.05175,-0.62511 -0.74989,-0.98883 0.15795,-0.19032 0.43881,-0.28786 0.62413,-0.21674 0.18532,0.0711 0.68263,0.15545 1.10513,0.18741 0.57332,0.0434 0.78983,0.20938 0.85349,0.65439 0.0733,0.51263 -0.0234,0.58799 -0.68924,0.53725 -0.42598,-0.0325 -0.94061,-0.11052 -1.14362,-0.17348 z m 16.64692,-6.04498 c 0.19099,-0.0764 0.41919,-0.067 0.50711,0.0209 0.0879,0.0879 -0.0683,0.15045 -0.34726,0.13896 -0.30823,-0.0127 -0.37092,-0.0754 -0.15985,-0.15985 z m -0.0684,-1.11912 c -0.0978,-0.1582 -0.0371,-0.28764 0.13482,-0.28764 0.2391,0 0.23975,-0.0878 0.003,-0.37332 -0.19423,-0.23404 -0.21343,-0.4329 -0.0515,-0.53301 0.35473,-0.21923 0.67698,0.89625 0.35263,1.2206 -0.17162,0.17162 -0.32189,0.1625 -0.43878,-0.0266 z m 0.14441,-3.66108 0.0264,-0.7276 0.21184,0.66146 c 0.14122,0.44097 0.22063,0.50712 0.23821,0.19844 0.0145,-0.25467 0.15817,-0.46302 0.31926,-0.46302 0.16109,0 0.22062,0.18833 0.13229,0.41851 -0.0883,0.23018 -0.1606,0.46831 -0.1606,0.52917 0,0.0609 -0.17859,0.11065 -0.39687,0.11065 -0.26296,0 -0.38798,-0.24551 -0.3705,-0.72761 z"
       id="path1" />
  </g>
</svg>
