<?xml version="1.0" encoding="UTF-8" standalone="no"?>
<!-- Created with Inkscape (http://www.inkscape.org/) -->

<svg
   width="105.79791mm"
   height="69.653282mm"
   viewBox="0 0 105.79792 69.653274"
   version="1.1"
   id="svg1"
   inkscape:version="1.4.1-rc (06eac75fbf, 2025-03-29)"
   sodipodi:docname="field9.svg"
   xmlns:inkscape="http://www.inkscape.org/namespaces/inkscape"
   xmlns:sodipodi="http://sodipodi.sourceforge.net/DTD/sodipodi-0.dtd"
   xmlns="http://www.w3.org/2000/svg"
   xmlns:svg="http://www.w3.org/2000/svg">
  <sodipodi:namedview
     id="namedview1"
     pagecolor="#ffffff"
     bordercolor="#000000"
     borderopacity="0.25"
     inkscape:showpageshadow="2"
     inkscape:pageopacity="0.0"
     inkscape:pagecheckerboard="0"
     inkscape:deskcolor="#d1d1d1"
     inkscape:document-units="mm"
     inkscape:zoom="0.72248176"
     inkscape:cx="200.69711"
     inkscape:cy="132.18327"
     inkscape:window-width="1850"
     inkscape:window-height="1016"
     inkscape:window-x="0"
     inkscape:window-y="0"
     inkscape:window-maximized="1"
     inkscape:current-layer="layer1" />
  <defs
     id="defs1" />
  <g
     inkscape:label="Layer 1"
     inkscape:groupmode="layer"
     id="layer1"
     transform="translate(-51.858327,-113.77074)">
    <path
       style="fill:#000000"
       d="m 124.07933,183.09377 c -0.61921,-0.69423 0.47037,-1.15652 2.71049,-1.15001 1.16391,0.003 1.49767,0.15112 1.49767,0.66294 0,0.24452 -0.49436,0.41844 -1.52136,0.53523 -0.83674,0.0951 -1.69994,0.21701 -1.91823,0.27079 -0.21828,0.0538 -0.56414,-0.0897 -0.76857,-0.31895 z m 3.48547,-1.95599 c -1.27931,-0.17074 -1.61534,-0.39651 -1.20336,-0.80848 0.36547,-0.36547 7.02373,-0.53551 7.24433,-0.185 0.20907,0.33216 1.88717,-0.10052 2.02796,-0.52289 0.0766,-0.22971 -0.45352,-0.31858 -1.90024,-0.31858 -1.78353,0 -2.00642,-0.055 -2.00642,-0.49477 0,-0.45211 0.24522,-0.49547 2.84427,-0.50295 1.56435,-0.005 3.02287,0.084 3.24115,0.19669 0.34572,0.17847 2.7937,-0.0273 4.36562,-0.36704 0.29104,-0.0629 0.91612,-0.12347 1.38907,-0.1346 1.07147,-0.0252 1.14947,-0.54941 0.0818,-0.54941 -0.42798,0 -0.84323,-0.10532 -0.92279,-0.23405 -0.0796,-0.12873 -0.66312,-0.31181 -1.29681,-0.40683 -0.63368,-0.095 -1.46097,-0.22878 -1.83842,-0.29722 -0.37745,-0.0684 -0.76092,-0.004 -0.85217,0.144 -0.17854,0.28888 -4.53068,0.10065 -5.01699,-0.21698 -0.15119,-0.0988 -0.57255,-0.17954 -0.93636,-0.17954 -0.52793,0 -0.67862,-0.14965 -0.7465,-0.74134 -0.0544,-0.47438 -0.29653,-0.82175 -0.67233,-0.96463 -0.32301,-0.1228 -0.7458,-0.41428 -0.93954,-0.64772 -0.19374,-0.23344 -0.47713,-0.42444 -0.62975,-0.42444 -0.15263,0 -0.46547,-0.16156 -0.69521,-0.35902 -0.45915,-0.39464 -2.70362,-1.01513 -2.91335,-0.8054 -0.32275,0.32274 0.50921,1.01466 1.60379,1.33382 0.65835,0.19197 1.40188,0.57542 1.65229,0.85212 0.41612,0.45981 0.4191,0.53927 0.0347,0.9237 -0.38444,0.38444 -0.58956,0.33703 -2.38449,-0.55113 -2.00351,-0.99136 -2.49484,-1.02849 -2.02636,-0.15315 0.32632,0.60975 -0.0633,1.40489 -0.68846,1.40489 -0.2428,0 -0.68337,-0.27895 -0.97904,-0.61988 -0.6747,-0.77799 -1.51879,-1.2322 -2.28988,-1.2322 h -0.59645 l 0.57906,0.53947 c 1.1444,1.06618 0.51905,1.42543 -1.54792,0.88926 -1.8176,-0.47147 -2.32751,-0.48571 -1.89469,-0.0529 0.40386,0.40387 0.41128,1.00542 0.0124,1.00542 -0.16781,0 -1.03101,-0.3396 -1.91823,-0.75468 -2.01853,-0.94434 -3.5975,-1.23687 -3.5975,-0.6665 0,0.2187 0.11864,0.61931 0.26364,0.89024 0.145,0.27094 0.19453,0.6727 0.11006,0.89282 -0.13221,0.34452 -0.29968,0.32405 -1.20373,-0.14717 -0.80427,-0.41921 -1.32495,-0.5097 -2.22385,-0.38649 -0.64553,0.0885 -1.49052,0.0404 -1.87775,-0.10681 -0.38722,-0.14722 -1.57507,-0.31885 -2.63967,-0.38139 -1.90573,-0.11195 -1.94264,-0.10183 -2.38984,0.65521 -0.5803,0.98238 -2.427757,1.4964 -3.963827,1.10287 -0.56319,-0.14429 -1.76834,-0.34304 -2.6781,-0.44167 -0.90977,-0.0986 -1.71778,-0.28233 -1.79559,-0.40823 -0.0778,-0.12589 -0.37525,0.005 -0.66099,0.29062 -0.56117,0.56117 -1.04868,0.67969 -1.04868,0.25493 0,-0.14552 -0.11158,-0.26458 -0.24795,-0.26458 -0.13637,0 -0.18032,0.41672 -0.0977,0.92604 0.12157,0.74914 0.0657,0.92604 -0.29228,0.92604 -0.24341,0 -0.69714,-0.23718 -1.0083,-0.52706 -0.50459,-0.47011 -0.61288,-0.4844 -1.00195,-0.1323 -0.46884,0.4243 -1.84976,0.54581 -1.84976,0.16278 0,-0.1276 -0.59855,-0.48949 -1.33012,-0.8042 -1.09791,-0.47231 -1.49772,-0.52592 -2.29027,-0.30709 -1.05086,0.29016 -1.4067,0.19097 -1.4067,-0.39212 0,-0.23305 -0.26431,-0.38126 -0.67993,-0.38126 -0.77239,0 -2.880436,-1.35361 -3.284846,-2.10925 -0.1477,-0.27599 -0.26855,-0.73671 -0.26855,-1.02384 0,-0.28912 -0.57098,-1.03539 -1.27973,-1.67263 -1.42878,-1.28459 -1.87898,-2.48614 -1.14168,-3.04705 0.64266,-0.48892 1.23198,-0.42479 2.83518,0.30853 0.96858,0.44304 1.6758,1.00184 2.16586,1.71132 0.400206,0.57942 0.914536,1.11803 1.142956,1.19693 0.22841,0.0789 0.61344,0.55895 0.85561,1.0668 0.24218,0.50785 0.56332,0.92336 0.71364,0.92336 0.15033,0 -0.0166,-0.57212 -0.37094,-1.27139 -0.35434,-0.69926 -0.72684,-1.7116 -0.82778,-2.24965 -0.17564,-0.93625 -0.14815,-0.98535 0.6398,-1.14294 1.13946,-0.22789 1.01883,-0.65402 -0.38573,-1.36263 l -1.19452,-0.60265 0.0773,0.72554 c 0.0536,0.50326 -0.0566,0.75309 -0.35976,0.81549 -0.313116,0.0644 -0.664136,-0.39065 -1.237766,-1.60474 -0.84563,-1.78977 -2.11133,-3.09662 -2.99912,-3.09662 -0.29278,0 -1.1448,-0.53578 -1.89339,-1.19062 -1.24776,-1.09151 -1.94169,-1.36029 -3.08994,-1.19682 -0.64687,0.0921 -0.65338,0.23738 -0.0473,1.05707 0.31708,0.42888 0.57652,0.90366 0.57652,1.05508 0,0.15141 0.0904,0.27529 0.20093,0.27529 0.30938,0 0.87327,1.0173 0.64284,1.15972 -0.32811,0.20278 -1.90211,-0.66348 -1.90211,-1.04684 0,-0.19261 -0.29765,-0.67137 -0.66146,-1.06392 -0.82532,-0.89054 -0.82998,-1.28573 -0.0247,-2.09106 0.53103,-0.53103 0.8057,-0.60971 1.65365,-0.47375 1.49831,0.24025 3.43088,1.16916 3.87427,1.86221 0.11637,0.1819 0.38426,0.33073 0.59531,0.33073 0.21105,0 0.38373,0.10021 0.38373,0.2227 0,0.12249 0.44648,0.35813 0.99218,0.52365 0.77234,0.23426 1.19739,0.62432 1.91823,1.7603 0.890446,1.40328 1.379326,1.7484 1.712646,1.20907 0.20157,-0.32615 0.8515,-0.0914 1.90772,0.68903 0.46323,0.34228 0.95651,0.62233 1.09617,0.62233 0.32247,0 0.6247,0.76407 0.42808,1.08221 -0.0818,0.13239 -0.39592,0.24071 -0.698,0.24071 -0.52579,0 -0.5223,0.0204 0.0818,0.4787 0.34705,0.26328 1.07037,0.73132 1.60737,1.04008 l 0.97638,0.56138 0.082,-0.70935 c 0.0704,-0.60886 0.22057,-0.72087 1.06034,-0.79065 0.97162,-0.0807 1.76726,0.28001 3.0564,1.38578 0.32749,0.28091 0.59543,0.65821 0.59543,0.83846 0,0.64029 0.93329,1.95478 1.38906,1.95643 0.51451,0.002 0.59962,-0.28507 0.20239,-0.6823 -0.17113,-0.17113 -0.0575,-0.55119 0.33073,-1.10668 0.68187,-0.97552 1.70823,-1.11209 3.50178,-0.46594 1.6055,0.5784 1.91203,0.51094 1.18668,-0.26115 -0.55785,-0.5938 -2.65916,-1.98018 -3.00133,-1.98018 -0.0731,0 -0.17097,0.26789 -0.21747,0.59531 -0.12574,0.88537 -0.86133,0.74436 -0.96714,-0.18539 -0.17149,-1.50692 1.7641,-1.99803 3.1798,-0.80679 0.43236,0.3638 0.89603,0.66145 1.03039,0.66145 0.43031,0 0.26176,-1.09987 -0.31043,-2.0257 -0.94239,-1.52481 -3.21143,-2.32272 -3.08019,-1.08315 0.0503,0.47542 -0.0702,0.59531 -0.59843,0.59531 -0.62619,0 -0.65952,-0.0741 -0.62506,-1.38906 0.0299,-1.14134 -0.0432,-1.38906 -0.4101,-1.38906 -0.24558,0 -0.5874,-0.14089 -0.7596,-0.31309 -0.74468,-0.74468 -0.8329,0.40872 -0.20012,2.61662 0.30149,1.05197 0.40718,1.98017 0.2941,2.58293 -0.1593,0.84916 -0.25391,0.93496 -0.9707,0.88034 -0.50487,-0.0385 -1.33949,-0.52158 -2.29105,-1.32616 -0.82328,-0.6961 -1.68061,-1.28327 -1.90519,-1.30482 -0.22458,-0.0215 -0.58692,-0.0634 -0.8052,-0.0931 -0.21828,-0.0297 -0.5457,-0.0716 -0.72761,-0.0931 -0.8162,-0.0967 -0.13168,-1.62667 0.72778,-1.62667 0.54929,0 1.84718,0.60332 1.84985,0.8599 0.001,0.10914 0.10608,0.19843 0.23321,0.19843 0.12713,0 0.75221,0.47761 1.38906,1.06135 0.87859,0.80532 1.17945,0.96025 1.24717,0.64223 0.11337,-0.5324 -2.99343,-3.67251 -3.39065,-3.42701 -0.16045,0.0992 -0.53371,-0.12734 -0.82947,-0.50335 -0.35946,-0.45697 -0.79455,-0.68363 -1.31229,-0.68363 -0.86013,0 -0.89931,-0.0663 -0.4907,-0.82976 0.22022,-0.41148 0.5012,-0.51166 1.25339,-0.44685 1.31768,0.11352 1.43337,-0.57325 0.27482,-1.63142 -1.0187,-0.93044 -1.54748,-1.01557 -1.54748,-0.24914 0,0.59846 -0.46008,0.55147 -1.93145,-0.19728 -1.00319,-0.5105 -1.67527,-0.24162 -1.8735,0.74952 -0.0901,0.45044 -0.1638,0.91288 -0.1638,1.02764 0,0.11476 0.67458,0.87786 1.49906,1.69579 1.81932,1.80485 1.64437,2.38613 -0.34919,1.16017 -1.58858,-0.97692 -2.128886,-1.78646 -2.241906,-3.35905 -0.0704,-0.97919 0.0329,-1.27024 0.680926,-1.91823 0.47527,-0.47527 1.07212,-0.77954 1.57969,-0.80531 0.44869,-0.0228 1.14435,-0.0646 1.54592,-0.0929 0.68363,-0.0482 2.64474,0.37603 3.71084,0.80272 0.25972,0.10395 0.82243,0.68069 1.25048,1.28164 1.48546,2.08549 1.40225,2.02638 2.44654,1.73804 0.83489,-0.23053 1.18596,-0.1514 2.91032,0.65591 2.09951,0.98296 5.488157,3.9002 5.488157,4.72469 0,0.42747 0.30619,1.895 0.81038,3.88401 0.17414,0.68696 0.13511,1.02093 -0.15704,1.34375 -0.74107,0.81887 -0.48468,1.2492 0.73572,1.23486 0.61846,-0.007 2.07698,0.009 3.24114,0.035 1.16417,0.0265 2.29526,0.0429 2.51355,0.0365 0.98111,-0.0291 2.82245,0.19331 3.27167,0.39513 0.41937,0.18841 0.46641,0.13621 0.31297,-0.34725 -0.27073,-0.85297 0.94361,-1.25305 3.16223,-1.04183 0.65467,0.0623 0.8089,-0.0313 0.88021,-0.53431 0.0476,-0.33543 -0.0416,-0.76417 -0.1981,-0.95274 -0.1565,-0.18857 -0.35995,-0.893 -0.45211,-1.56539 -0.12026,-0.87737 -0.34367,-1.33792 -0.7913,-1.63122 -0.34305,-0.22478 -0.68452,-0.40677 -0.75882,-0.40442 -0.0743,0.002 -0.36187,-0.20409 -0.63905,-0.45875 -0.27718,-0.25466 -0.81693,-0.67994 -1.19945,-0.94505 -1.08302,-0.75062 -2.03808,-2.39773 -2.16249,-3.72947 -0.12966,-1.38804 0.11374,-1.53105 2.40449,-1.41275 1.14114,0.0589 1.47178,0.216 2.47956,1.17793 l 1.16283,1.10994 -0.18162,-1.37452 c -0.0999,-0.75599 -0.42577,-2.26749 -0.72418,-3.3589 -0.29841,-1.0914 -0.60727,-2.2225 -0.68635,-2.51354 -0.0791,-0.29104 -0.36298,-0.81311 -0.63089,-1.16016 -0.26791,-0.34704 -0.48711,-0.84676 -0.48711,-1.11048 0,-0.26371 -0.28163,-1.00917 -0.62586,-1.65657 -0.34422,-0.6474 -0.71056,-1.51453 -0.81407,-1.92697 -0.25548,-1.01789 -2.43054,-5.34181 -3.91048,-7.77384 -1.62955,-2.67788 -3.91,-7.21618 -3.91,-7.78124 0,-0.88521 0.92173,-0.28781 1.60449,1.03992 1.5785,3.06962 2.23875,4.28932 2.86253,5.28809 1.28657,2.06 5.05798,9.76808 5.05798,10.3376 0,0.3178 0.17859,0.72604 0.39687,0.90719 0.21828,0.18116 0.39688,0.61246 0.39688,0.95844 0,0.34599 0.10004,0.62906 0.22232,0.62906 0.12228,0 0.37899,0.68461 0.57047,1.52136 0.19147,0.83674 0.57268,1.90069 0.84712,2.36432 0.47683,0.80553 0.63626,1.48059 1.37951,5.84086 0.18439,1.08175 0.50754,2.0645 0.73952,2.24896 0.76938,0.61181 2.85564,4.08817 2.85564,4.75839 0,0.40803 0.17973,0.71857 0.46302,0.80003 0.25466,0.0732 0.65602,0.21301 0.8919,0.31065 0.51837,0.21455 0.8988,-0.55958 0.507,-1.03168 -0.14514,-0.17488 -0.30759,-0.54674 -0.361,-0.82636 -0.0534,-0.27962 -0.23438,-0.84357 -0.40214,-1.25323 -0.16777,-0.40965 -0.30503,-0.9752 -0.30503,-1.25677 0,-0.28157 -0.16874,-0.51194 -0.37499,-0.51194 -0.62006,0 -1.33248,-2.2341 -1.03467,-3.24463 0.23136,-0.78505 0.33491,-0.85142 1.24274,-0.79646 0.54469,0.033 1.3372,0.26484 1.76112,0.51526 0.9713,0.57376 1.24116,0.31638 0.8378,-0.79909 -0.17343,-0.47961 -0.31937,-1.1017 -0.32431,-1.38241 -0.005,-0.28071 -0.23902,-0.98663 -0.52019,-1.56871 -0.28116,-0.58209 -0.51525,-1.25967 -0.52019,-1.50574 -0.005,-0.24608 -0.1124,-0.51133 -0.2388,-0.58945 -0.12641,-0.0781 -0.31023,-0.64479 -0.40848,-1.25926 -0.0983,-0.61447 -0.27834,-1.24219 -0.40018,-1.39493 -0.12184,-0.15274 -0.52307,-1.17068 -0.89163,-2.26208 -1.33362,-3.94925 -2.12281,-5.78723 -4.94189,-11.50938 -1.57724,-3.20146 -3.05144,-6.26732 -3.27601,-6.81302 -0.45622,-1.10858 -0.38646,-1.08451 -2.02282,-0.69809 -1.69491,0.40025 -3.96875,0.45937 -3.96875,0.10319 0,-0.57647 0.65476,-0.92645 1.73323,-0.92645 1.27773,0 2.77394,-0.44531 3.18116,-0.94678 0.1563,-0.19248 0.63255,-0.31 1.05834,-0.26115 0.62067,0.0712 0.76081,0.20447 0.7069,0.6722 -0.0663,0.57494 0.35642,1.75893 1.18306,3.31385 0.6585,1.23864 1.53865,3.05053 2.18491,4.49792 1.42724,3.19648 2.16652,4.78991 2.39372,5.15937 0.45475,0.73951 1.00076,1.97929 1.45657,3.3073 0.24974,0.7276 0.60491,1.6801 0.78928,2.11666 0.18437,0.43657 0.42124,1.09141 0.52637,1.45521 0.10514,0.3638 0.34295,1.01865 0.52848,1.45521 1.32966,3.12881 2.41178,6.65517 3.20405,10.44124 0.22726,1.08602 0.58174,2.3005 0.78773,2.69884 0.206,0.39835 0.37453,0.94985 0.37453,1.22556 0,0.27572 0.23813,0.7168 0.52917,0.98019 0.29104,0.26339 0.52917,0.63903 0.52917,0.83476 0,0.23032 0.32671,0.35587 0.92604,0.35587 0.52917,0 0.92604,0.13229 0.92604,0.30868 0,0.16977 0.0778,0.23088 0.17288,0.1358 0.19713,-0.19713 1.61369,0.59662 3.05429,1.71142 0.53801,0.41634 1.25239,0.86125 1.5875,0.98869 0.58703,0.22324 0.60583,0.18843 0.51448,-0.95273 -0.0911,-1.13843 -0.14765,-1.20904 -1.45521,-1.81786 -0.74822,-0.34838 -1.53899,-0.6382 -1.75727,-0.64405 -0.30799,-0.008 -0.29121,-0.0721 0.0749,-0.28523 0.2595,-0.15104 1.09294,-0.23671 1.85208,-0.1904 l 1.38027,0.0842 -0.0629,-1.32291 c -0.10793,-2.26931 -0.34989,-4.21163 -0.59327,-4.7625 -0.12859,-0.29105 -0.29166,-0.88636 -0.36239,-1.32292 -0.20906,-1.29049 -1.91883,-6.04012 -2.93434,-8.15147 -0.51803,-1.07702 -0.94187,-2.15409 -0.94187,-2.39348 0,-0.23939 -0.11906,-0.43526 -0.26459,-0.43526 -0.14552,0 -0.26458,-0.19002 -0.26458,-0.42227 0,-0.23226 -0.4011,-1.27405 -0.89134,-2.31511 -0.49024,-1.04105 -1.05516,-2.36908 -1.25536,-2.95116 -0.20021,-0.58208 -0.43639,-1.11786 -0.52485,-1.19063 -0.0885,-0.0728 -0.36656,-0.75736 -0.61799,-1.52135 -0.25143,-0.76398 -0.55047,-1.38906 -0.66453,-1.38906 -0.11405,0 -0.42159,-0.56555 -0.68341,-1.25677 -0.26183,-0.69123 -0.72694,-1.67349 -1.03358,-2.18282 -0.30664,-0.50932 -0.89491,-1.65033 -1.30726,-2.53559 l -0.74974,-1.60954 h -2.29179 c -1.43283,0 -2.58491,-0.14049 -3.07385,-0.37483 -1.34741,-0.6458 -0.68821,-0.90967 2.02579,-0.81089 l 2.55812,0.0931 -0.15354,-1.15144 c -0.14725,-1.10417 -0.13279,-1.13514 0.35229,-0.75455 0.27821,0.21828 0.62596,0.54933 0.77277,0.73568 0.14682,0.18634 0.50401,0.29593 0.79375,0.24353 0.75974,-0.13739 2.51119,-1.03906 2.51119,-1.2928 0,-0.11857 0.11906,-0.21558 0.26458,-0.21558 0.14552,0 0.26458,0.17859 0.26458,0.39688 0,0.21828 0.1786,0.39687 0.39688,0.39687 0.21828,0 0.39687,-0.10147 0.39687,-0.2255 0,-0.33316 2.66827,-3.21408 2.97684,-3.21408 0.43553,0 -0.0242,1.64072 -0.6448,2.30134 -0.65531,0.69755 -0.44029,1.14141 0.32224,0.6652 0.28245,-0.17639 0.63681,-0.32071 0.78747,-0.32071 0.15066,0 0.92877,-0.65484 1.72913,-1.45521 1.47282,-1.47282 1.97287,-1.75011 1.97287,-1.09401 0,0.87701 -2.13784,3.03353 -3.71011,3.74253 -1.00679,0.454 -1.07651,0.45437 -1.56927,0.008 -0.49407,-0.44713 -0.54541,-0.44328 -1.2257,0.0918 -0.39051,0.30718 -0.87257,0.55851 -1.07122,0.55851 -0.19866,0 -0.3612,0.11906 -0.3612,0.26458 0,0.14552 -0.23812,0.26459 -0.52916,0.26459 -0.29104,0 -0.52917,0.10685 -0.52917,0.23745 0,0.13059 -0.38695,0.21989 -0.85989,0.19843 -1.2999,-0.059 -1.24751,0.74524 0.18483,2.83738 0.66232,0.96743 1.20423,1.87848 1.20423,2.02456 0,0.14608 0.10154,0.47235 0.22565,0.72504 0.12411,0.25268 0.41854,0.90765 0.65429,1.45548 0.23575,0.54782 0.60276,1.38126 0.81558,1.85208 0.21283,0.47082 0.68088,1.51088 1.04013,2.31124 0.35924,0.80037 1.08131,2.39471 1.60459,3.54299 0.52328,1.14828 0.95142,2.19559 0.95142,2.32734 0,0.13176 0.41672,1.12963 0.92605,2.2175 0.50932,1.08787 0.92604,2.13011 0.92604,2.3161 0,0.18599 0.099,0.45126 0.21998,0.58951 0.12099,0.13824 0.37038,0.78713 0.55421,1.44198 0.18382,0.65484 0.48393,1.54781 0.6669,1.98437 0.45424,1.08382 1.05157,3.33839 1.31418,4.96023 0.0531,0.32781 0.21595,1.07227 0.36193,1.65436 0.14599,0.58208 0.28362,1.72453 0.30585,2.53878 0.0412,1.51094 0.47749,3.56826 0.52296,2.46625 0.0125,-0.30317 0.0951,-0.62358 0.18355,-0.71203 0.19469,-0.19469 1.1621,0.37499 1.1621,0.68433 0,0.399 0.77966,1.00869 1.58541,1.23977 1.00617,0.28857 3.65559,0.29665 3.8317,0.0117 0.1312,-0.21228 -0.64274,-1.01029 -0.8341,-0.86005 -0.054,0.0424 -0.74438,-0.30945 -1.5342,-0.78186 -1.11863,-0.66908 -1.37209,-0.93598 -1.14673,-1.20752 0.31699,-0.38196 1.15929,-0.22432 1.80209,0.33725 0.41374,0.36146 0.48954,0.38444 1.26844,0.38444 0.26108,0 1.13944,0.62507 1.95191,1.38906 1.16763,1.09795 1.50989,1.60702 1.6331,2.42907 0.0857,0.57201 0.30871,1.18585 0.49549,1.36409 0.18678,0.17824 1.35163,0.40243 2.58856,0.4982 3.08345,0.23875 3.16831,0.25483 4.36208,0.82663 1.22961,0.58897 1.58552,1.43045 0.60503,1.43045 -0.34537,0 -0.74631,-0.11837 -0.89098,-0.26304 -0.14467,-0.14468 -0.58521,-0.28971 -0.97896,-0.32229 -0.39376,-0.0326 -0.71592,-0.15235 -0.71592,-0.26613 0,-0.11378 -0.11906,-0.20688 -0.26458,-0.20688 -0.14552,0 -0.26459,0.29063 -0.26459,0.64585 0,0.35521 -0.14074,0.73283 -0.31277,0.83914 -0.17202,0.10632 -1.45194,0.23833 -2.84427,0.29337 -1.39232,0.055 -2.85004,0.20391 -3.23937,0.33084 -0.38933,0.12692 -1.93687,0.18186 -3.43897,0.12209 -3.08772,-0.12287 -3.65837,-0.0186 -3.65837,0.66865 0,0.26567 -0.20835,0.56998 -0.46302,0.67625 -0.95736,0.39952 -6.69605,0.64641 -8.72633,0.37543 z m 21.0956,-3.7152 c 0,-0.13003 -0.16885,-0.23641 -0.37523,-0.23641 -0.20638,0 -0.53722,-0.0622 -0.7352,-0.13813 -0.19798,-0.076 -0.56617,0.0133 -0.8182,0.19843 -0.39695,0.29155 -0.29862,0.34165 0.73519,0.37455 0.6564,0.0209 1.19344,-0.0684 1.19344,-0.19844 z m 1.32292,0.0282 c 0,-0.14552 -0.17157,-0.26458 -0.38126,-0.26458 -0.20969,0 -0.45484,0.11906 -0.54478,0.26458 -0.0899,0.14552 0.0816,0.26458 0.38126,0.26458 0.29963,0 0.54478,-0.11906 0.54478,-0.26458 z m -48.69099,-1.048 c 0.21406,-0.13538 0.31138,-0.32397 0.21626,-0.41909 -0.26053,-0.26054 -2.350377,0.15408 -2.178487,0.4322 0.19313,0.31248 1.460777,0.30401 1.962227,-0.0131 z m 42.60557,-0.27492 c 0,-0.14552 -0.12608,-0.26458 -0.28019,-0.26458 -0.15411,0 -0.20662,0.11906 -0.11668,0.26458 0.0899,0.14552 0.21603,0.26459 0.2802,0.26459 0.0642,0 0.11667,-0.11907 0.11667,-0.26459 z m -48.683327,-0.23627 c 0,-0.26384 -0.63852,-0.55748 -1.21226,-0.55748 -0.20638,0 -0.37524,0.1786 -0.37524,0.39688 0,0.26458 0.26459,0.39687 0.79375,0.39687 0.43656,0 0.79375,-0.10632 0.79375,-0.23627 z m 47.757287,-0.29289 c -0.0899,-0.14553 -0.27555,-0.26459 -0.41249,-0.26459 -0.13693,0 -0.24897,0.11906 -0.24897,0.26459 0,0.14552 0.18563,0.26458 0.41249,0.26458 0.22687,0 0.33891,-0.11906 0.24897,-0.26458 z m -60.836747,-0.72826 c -0.045,-0.30645 -0.39273,-0.5144 -1.03476,-0.61876 -1.190476,-0.19351 -1.240836,0.12994 -0.12583,0.80803 0.92848,0.56463 1.26323,0.51004 1.16059,-0.18927 z m 9.90217,0.13294 c -0.005,-1.2627 -3.05102,-3.60096 -3.76326,-2.88872 -0.21898,0.21899 -0.18039,0.42487 0.14759,0.78728 0.24426,0.2699 0.36728,0.56757 0.27338,0.66148 -0.0939,0.0939 0.034,0.24931 0.28427,0.34534 0.25026,0.096 0.55878,0.44752 0.6856,0.78108 0.21037,0.55333 0.52504,0.68714 2.04398,0.86921 0.1819,0.0218 0.3297,-0.22825 0.32844,-0.55567 z m 49.743957,0.33073 c -0.52004,-0.33607 -1.32292,-0.33607 -1.32292,0 0,0.14552 0.38695,0.26276 0.8599,0.26053 0.65252,-0.003 0.76418,-0.0659 0.46302,-0.26053 z m -57.074407,-0.16379 c 0.0901,-0.0901 -0.0148,-0.34238 -0.23308,-0.56066 -0.47,-0.47 -0.71654,-0.32178 -0.48189,0.28971 0.17359,0.45238 0.43463,0.5513 0.71497,0.27095 z m 14.99532,-0.28186 c 0.20168,-0.17684 -1.36636,-1.34953 -2.59027,-1.93719 -1.26654,-0.60812 -2.16189,-0.49696 -2.16189,0.26839 0,0.27265 -0.13435,0.57876 -0.29856,0.68024 -0.44682,0.27615 0.46476,0.70735 1.08153,0.51159 0.34673,-0.11004 0.59751,0.007 0.79089,0.36798 0.24646,0.46051 0.463,0.50882 1.66976,0.37252 0.76262,-0.0861 1.44147,-0.20472 1.50854,-0.26353 z m 39.572187,0.17032 c 0.0863,-0.13961 -0.092,-0.25383 -0.39621,-0.25383 -0.30419,0 -0.62278,-0.18164 -0.70797,-0.40363 -0.12659,-0.3299 -0.22846,-0.34257 -0.55765,-0.0694 -0.22151,0.18384 -0.68386,0.29742 -1.02743,0.2524 -0.60472,-0.0793 -0.89652,0.35079 -0.35913,0.52927 0.64828,0.21532 2.90653,0.17469 3.04839,-0.0548 z m -51.168617,-0.45227 c -0.6144,-1.14567 -3.86456,-3.99759 -4.18764,-3.67452 -0.26663,0.26664 0.4807,1.46624 1.0201,1.63744 0.26775,0.085 0.48681,0.35815 0.48681,0.60705 0,0.54713 0.6488,1.12591 1.71979,1.53417 1.12689,0.42958 1.24055,0.41726 0.96094,-0.10414 z m 54.926777,-0.226 c -0.0879,-0.0879 -0.31613,-0.0973 -0.50712,-0.0209 -0.21107,0.0845 -0.14837,0.14716 0.15985,0.15985 0.27892,0.0115 0.43519,-0.0511 0.34727,-0.13896 z m -25.85751,-0.36931 c 0,-0.14552 -0.18562,-0.26459 -0.41249,-0.26459 -0.22687,0 -0.33891,0.11907 -0.24897,0.26459 0.0899,0.14552 0.27556,0.26458 0.41249,0.26458 0.13693,0 0.24897,-0.11906 0.24897,-0.26458 z m 7.13844,-0.40327 c -0.18407,-0.2218 -0.38917,-0.34878 -0.45576,-0.28219 -0.18349,0.18349 0.18932,0.68546 0.50908,0.68546 0.17544,0 0.15537,-0.15182 -0.0533,-0.40327 z m -43.650933,-1.17106 c 0,-0.32151 -2.23422,-2.19606 -2.9196,-2.4496 -0.99733,-0.36894 -0.50247,0.42826 1.14287,1.84111 0.97742,0.83931 1.77673,1.11306 1.77673,0.60849 z m 35.872403,-1.46695 c -0.0197,-1.34172 -0.0665,-1.44787 -0.60668,-1.37702 -0.32192,0.0422 -0.66152,0.15297 -0.75467,0.24612 -0.18749,0.18749 0.93457,2.58468 1.20982,2.58468 0.0951,0 0.16329,-0.6542 0.15153,-1.45378 z m 1.9016,0.92461 c -0.18176,-0.29104 -0.42089,-0.52917 -0.53141,-0.52917 -0.2927,0 -0.24667,0.23498 0.12979,0.66257 0.49691,0.56439 0.77891,0.47073 0.40162,-0.1334 z m 5.08849,-1.05833 c 0,-0.14552 -0.12609,-0.26459 -0.2802,-0.26459 -0.15411,0 -0.20661,0.11907 -0.11668,0.26459 0.0899,0.14552 0.21603,0.26458 0.2802,0.26458 0.0642,0 0.11668,-0.11906 0.11668,-0.26458 z m -0.69084,-1.98472 c -0.86306,-0.36297 -1.02514,-0.31922 -0.81791,0.22081 0.0956,0.24909 0.38631,0.32929 0.8632,0.23812 l 0.71907,-0.13746 z m -7.91274,-0.65364 c 0.0874,-0.14141 -0.0349,-0.5529 -0.27177,-0.91441 -0.23688,-0.36151 -0.34682,-0.79299 -0.24432,-0.95883 0.30257,-0.48957 -2.22845,-2.86732 -3.25767,-3.06041 -1.17491,-0.22041 -1.5019,0.13473 -1.00531,1.09189 0.50143,0.96652 2.76361,3.30512 3.19711,3.30512 0.18214,0 0.47938,0.17859 0.66054,0.39687 0.38032,0.45826 0.69507,0.50601 0.92142,0.13977 z m 8.00218,-1.18592 c 0.033,-0.0243 -0.12255,-0.30481 -0.34573,-0.62346 -0.22924,-0.32727 -0.68707,-0.57935 -1.05225,-0.57935 -0.35555,0 -0.64646,-0.12609 -0.64646,-0.28019 0,-0.15411 -0.11498,-0.20914 -0.25552,-0.12228 -0.15426,0.0953 -0.0852,0.51503 0.17415,1.05896 0.38494,0.80724 0.51484,0.88487 1.24771,0.74573 0.44992,-0.0854 0.84507,-0.17516 0.8781,-0.19941 z m -39.881277,12.29006 c -0.30209,-0.1867 -3.022816,-0.55993 -4.761066,-0.65312 -0.21828,-0.0117 -0.635,-0.15958 -0.92604,-0.32861 -1.11899,-0.64992 0.79439,-1.18429 2.91041,-0.81283 0.43657,0.0766 1.389066,0.22932 2.116666,0.33931 1.8796,0.28412 2.51677,0.888 1.5071,1.42836 -0.27488,0.14712 -0.63409,0.15852 -0.84707,0.0269 z m 10.32018,-0.79287 c 0,-0.14552 0.17859,-0.26458 0.39687,-0.26458 0.21828,0 0.39688,0.11906 0.39688,0.26458 0,0.14552 -0.1786,0.26459 -0.39688,0.26459 -0.21828,0 -0.39687,-0.11907 -0.39687,-0.26459 z m -27.119786,-1.18342 c -0.43657,-0.19409 -0.8842,-0.29715 -0.99475,-0.229 -0.11054,0.0681 -0.51355,-0.12197 -0.89557,-0.42247 -0.83912,-0.66004 -2.21072,-0.74137 -2.21072,-0.13108 0,0.27932 -0.1949,0.3876 -0.59532,0.33073 -0.32742,-0.0465 -0.59618,-0.20361 -0.59724,-0.34913 -0.003,-0.40149 -0.73169,-1.28589 -1.33703,-1.62259 -0.32351,-0.17994 -1.6684,-0.28173 -3.36601,-0.25477 -2.42769,0.0386 -2.87851,0.11503 -3.19006,0.5411 -0.43667,0.59719 -1.31495,0.36921 -1.18463,-0.30749 0.0834,-0.43317 0.78139,-0.89566 1.93591,-1.28278 0.29104,-0.0976 1.51622,-0.19787 2.72261,-0.22285 1.89496,-0.0392 2.38926,0.0506 3.6323,0.66015 1.66821,0.81803 2.59802,1.04124 3.08463,0.74049 0.27526,-0.17011 0.27874,-0.28048 0.0171,-0.54212 -0.51707,-0.51707 -0.38633,-0.99184 0.32209,-1.16964 0.35783,-0.0898 0.78913,-0.33021 0.95844,-0.53421 0.2502,-0.30147 0.18305,-0.37092 -0.35861,-0.37092 -0.83425,0 -2.37447,-1.66694 -2.25758,-2.44332 0.0446,-0.29631 0.32225,-0.69798 0.61699,-0.89261 0.45107,-0.29785 0.65478,-0.29218 1.28702,0.0358 1.10543,0.57351 1.28414,0.49579 1.08117,-0.4702 -0.16985,-0.80837 -1.56369,-2.57969 -2.02994,-2.57969 -0.11697,0 -0.21268,0.23812 -0.21268,0.52917 0,0.66386 -0.92496,0.7205 -1.28416,0.0786 -0.21222,-0.37922 -0.31877,-0.39522 -0.6732,-0.10107 -0.23159,0.1922 -0.67441,0.28321 -0.98404,0.20224 l -0.56297,-0.14722 0.5505,0.51287 c 0.30277,0.28207 0.65608,0.51286 0.78514,0.51286 0.37846,0 1.1104,0.92935 1.1104,1.4099 0,0.57337 -0.30816,0.55905 -1.0888,-0.0506 -0.34705,-0.27102 -0.87369,-0.56871 -1.17033,-0.66152 -0.29663,-0.0928 -0.98921,-0.70694 -1.53905,-1.36473 -1.09668,-1.31198 -1.22926,-2.36076 -0.30286,-2.39576 0.29104,-0.011 0.92597,-0.11191 1.41095,-0.22427 1.15788,-0.26824 4.21559,0.31455 4.81965,0.91862 0.25752,0.25751 0.68739,0.50879 0.95527,0.55838 0.3343,0.0619 0.66484,0.62126 1.05397,1.78356 0.31557,0.94262 0.78479,1.80909 1.05833,1.95436 1.03265,0.54842 1.68204,1.35412 1.68204,2.08692 0,0.87111 -0.66713,1.03425 -0.92369,0.22588 -0.13479,-0.42469 -0.25286,-0.46725 -0.63471,-0.22878 -0.4856,0.30327 -0.51522,0.29294 -2.70778,-0.944 -0.71061,-0.4009 -0.82093,-0.41679 -0.53969,-0.0777 0.19443,0.23439 0.27754,0.54908 0.18469,0.69931 -0.094,0.15203 -0.0153,0.21422 0.1775,0.14025 0.19048,-0.0731 0.46455,0.11979 0.60906,0.42862 0.21153,0.45206 0.54585,0.5796 1.71516,0.65429 0.79884,0.051 1.71289,0.23217 2.03123,0.40254 0.4832,0.25861 0.69713,0.21669 1.29524,-0.25378 0.39404,-0.30995 0.93893,-0.56355 1.21088,-0.56355 0.57336,0 2.06023,0.75516 2.77648,1.41013 1.58949,1.45352 2.21142,2.22848 2.21262,2.75706 0.002,0.83774 -0.92387,0.77986 -1.49615,-0.0935 -0.88446,-1.34986 -4.00263,-3.30095 -4.079,-2.5523 -0.0111,0.10914 -0.059,0.39873 -0.10625,0.64353 -0.0533,0.27597 0.30621,0.71689 0.94628,1.16046 1.14074,0.79053 1.33958,1.55967 0.46251,1.78903 -0.40341,0.10549 -0.87596,-0.11308 -1.61835,-0.74853 -1.10751,-0.94799 -1.64255,-1.11771 -3.03739,-0.96346 -0.96904,0.10717 -1.12723,0.44586 -0.32689,0.69988 0.29316,0.093 0.46473,0.27966 0.38126,0.41471 -0.0835,0.13504 0.10214,0.24553 0.41244,0.24553 0.39347,0 0.53738,0.13918 0.4756,0.45998 -0.11294,0.5864 -0.66522,0.65541 -1.67001,0.20868 z m 0.66146,-3.57908 c 0,-0.14552 -0.12609,-0.26458 -0.2802,-0.26458 -0.15411,0 -0.20662,0.11906 -0.11668,0.26458 0.0899,0.14552 0.21603,0.26459 0.2802,0.26459 0.0642,0 0.11668,-0.11907 0.11668,-0.26459 z m 88.027963,2.21479 c -0.24277,-0.24277 -3.95607,-0.6571 -6.38192,-0.7121 -1.22785,-0.0278 -2.13413,-0.16611 -2.19018,-0.33418 -0.169,-0.50673 2.6479,-1.00055 4.46993,-0.7836 0.9168,0.10916 1.99725,0.18417 2.40101,0.16667 0.44586,-0.0193 0.79679,0.13156 0.89376,0.38426 0.0878,0.22884 0.41231,0.39637 0.72111,0.37229 1.31366,-0.10244 2.01665,0.0312 2.01665,0.38336 0,0.56066 -1.48927,0.96438 -1.93036,0.5233 z m -9.03676,-2.72277 c -0.19901,-0.322 0.0247,-0.43 1.59291,-0.76905 1.21332,-0.26231 2.75962,-0.1142 2.75962,0.26435 0,0.13759 -0.12427,0.17336 -0.27617,0.0795 -0.15189,-0.0939 -0.41978,-0.0534 -0.59531,0.0898 -0.17553,0.14328 -0.73586,0.26165 -1.24518,0.26304 -0.50933,0.001 -1.1805,0.0834 -1.4915,0.18218 -0.31889,0.10132 -0.64346,0.0534 -0.74437,-0.10984 z m 7.39524,-0.0944 c -2.33743,-0.35989 -2.42131,-0.39696 -1.95449,-0.86378 0.32192,-0.32192 0.65375,-0.33937 1.93815,-0.10194 0.85236,0.15757 1.77015,0.22885 2.03955,0.1584 0.26939,-0.0704 0.55648,-0.0202 0.63798,0.11165 0.0815,0.13186 0.49833,0.23975 0.9263,0.23975 0.42798,0 0.77814,0.11906 0.77814,0.26458 0,0.14552 -0.0893,0.2751 -0.19844,0.28796 -1.20446,0.14186 -2.86893,0.10327 -4.16719,-0.0966 z m -10.75838,-3.82936 c -0.0456,-0.21166 -0.11869,-1.30582 -0.31367,-4.69635 -0.0669,-1.16417 -0.25226,-2.45184 -0.41181,-2.8615 -0.15955,-0.40965 -0.2901,-1.10209 -0.2901,-1.53875 0,-0.43665 -0.13072,-1.03818 -0.29049,-1.33672 -0.15978,-0.29854 -0.31607,-0.99578 -0.34732,-1.54942 -0.0312,-0.55364 -0.20023,-1.17943 -0.37552,-1.39064 -0.17529,-0.21122 -0.24555,-0.57469 -0.15613,-0.80772 0.0894,-0.23303 -0.0747,-0.81367 -0.36461,-1.29031 -0.28996,-0.47664 -0.74,-1.55122 -1.00009,-2.38796 -0.26009,-0.83675 -0.57021,-1.52136 -0.68915,-1.52136 -0.11895,0 -0.21968,-0.20836 -0.22385,-0.46302 -0.007,-0.39789 -0.83065,-2.02045 -3.42691,-6.74687 -0.29976,-0.54571 -0.66868,-0.99219 -0.81983,-0.99219 -0.15116,0 -0.19301,-0.13238 -0.093,-0.29417 0.1,-0.16179 0.0772,-0.37015 -0.0505,-0.46302 -0.38117,-0.27702 -1.42296,-1.84563 -1.42296,-2.14252 0,-0.15141 -0.10462,-0.27529 -0.23249,-0.27529 -0.12786,0 -0.38677,-0.38696 -0.57536,-0.8599 -0.18858,-0.47294 -0.54627,-1.15755 -0.79487,-1.52135 -1.0186,-1.49065 -1.59398,-2.72997 -1.37098,-2.95297 0.26467,-0.26468 1.3862,0.59761 1.3862,1.06577 0,0.16483 0.091,0.2997 0.20217,0.2997 0.11119,0 0.41599,0.49356 0.67734,1.09681 0.26134,0.60324 0.76568,1.47769 1.12075,1.9432 0.35506,0.46552 0.64557,0.99656 0.64557,1.1801 0,0.18354 0.29766,0.68745 0.66146,1.11981 0.3638,0.43235 0.66146,0.94563 0.66146,1.14062 0,0.19499 0.0937,0.39421 0.20831,0.44272 0.26055,0.11031 3.2522,5.22426 3.37631,5.77148 0.0502,0.22117 0.39524,0.98786 0.76683,1.70374 0.3716,0.71589 0.67563,1.52118 0.67563,1.78953 0,0.26836 0.10488,0.69466 0.23306,0.94735 0.7371,1.45303 1.35444,2.94792 1.35444,3.27976 0,0.20962 0.10078,0.49424 0.22395,0.63248 0.23355,0.26213 1.01421,3.54273 1.22459,5.14615 0.58814,4.48253 0.96265,7.06606 1.06585,7.35264 0.1585,0.44014 -0.42574,1.37861 -0.85824,1.37861 -0.18328,0 -0.35247,-0.0893 -0.37599,-0.19844 z m 9.83234,-0.82223 c 0,-0.58562 -0.12715,-1.14335 -0.28255,-1.2394 -0.15541,-0.096 -0.25011,-0.55127 -0.21044,-1.01161 0.0397,-0.46034 -9.8e-4,-0.95524 -0.0903,-1.09977 -0.0893,-0.14454 -0.24845,-0.73813 -0.35362,-1.31911 -0.10517,-0.58097 -0.24743,-1.29444 -0.31615,-1.58548 -0.39457,-1.67108 -0.9131,-4.59936 -0.92533,-5.22552 -0.008,-0.40019 -0.11079,-0.72761 -0.22883,-0.72761 -0.21135,0 -0.66369,-1.78849 -0.55409,-2.1908 0.0309,-0.11354 -0.10997,-0.53025 -0.31311,-0.92604 -0.20314,-0.39579 -0.51221,-1.43399 -0.68684,-2.30712 -0.44721,-2.2361 -1.31862,-5.11737 -1.8973,-6.27331 -0.27029,-0.53991 -0.49143,-1.20207 -0.49143,-1.47147 0,-0.26939 -0.22202,-0.72812 -0.49338,-1.01939 -0.27135,-0.29127 -0.64071,-0.80489 -0.82079,-1.14137 -0.3018,-0.5639 -1.63537,-2.415 -2.53956,-3.52509 -0.20878,-0.25632 -0.3796,-0.52318 -0.3796,-0.59302 0,-0.0698 -0.42287,-0.68096 -0.93971,-1.35806 -0.51683,-0.67709 -0.8886,-1.36424 -0.82614,-1.52701 0.0794,-0.2069 -0.47559,-0.26688 -1.8449,-0.19936 -2.37757,0.11724 -3.16293,-0.0547 -3.33986,-0.73131 -0.18938,-0.7242 0.24832,-0.81338 2.75294,-0.56088 1.2567,0.12669 2.45799,0.11989 2.81523,-0.0159 0.34272,-0.13031 1.03756,-0.23692 1.54407,-0.23692 0.50652,0 1.47423,-0.29454 2.15047,-0.65453 0.67624,-0.35999 1.26138,-0.62268 1.3003,-0.58376 0.0389,0.0389 0.003,0.32925 -0.0794,0.64516 -0.17654,0.67508 -1.70942,1.65146 -2.59274,1.65146 -0.33937,0 -0.8785,0.21173 -1.19808,0.47051 l -0.58106,0.47051 0.64832,0.65397 c 0.35658,0.35969 0.72261,0.8921 0.81341,1.18314 0.0908,0.29104 0.46406,0.85139 0.82947,1.24522 0.3654,0.39383 0.66437,0.78561 0.66437,0.87061 0,0.25514 1.16565,1.83694 1.52136,2.0645 0.1819,0.11637 0.33073,0.37153 0.33073,0.56701 0,0.19548 0.17859,0.42395 0.39687,0.50771 0.21828,0.0838 0.39688,0.38291 0.39688,0.66477 0,0.28185 0.22748,0.9702 0.50552,1.52965 1.1141,2.24179 2.5137,6.65452 3.2178,10.14532 0.3082,1.52797 0.74127,3.43297 0.96239,4.23333 0.22112,0.80037 0.45427,2.05052 0.51811,2.77813 0.0638,0.7276 0.29715,1.94934 0.51848,2.71498 0.39531,1.36752 0.6274,2.52417 0.74226,3.69925 0.0319,0.32637 0.12592,0.66132 0.20894,0.74434 0.23655,0.23655 -0.18433,1.52629 -0.53636,1.64363 -0.21042,0.0701 -0.31631,-0.25101 -0.31631,-0.95933 z M 90.319783,134.88077 c -1.57141,-0.41812 -2.91344,-1.2191 -2.83267,-1.69066 0.0588,-0.34312 -0.11126,-0.45388 -0.69675,-0.45388 -0.54748,0 -0.81435,-0.15245 -0.9105,-0.52012 -0.0748,-0.28607 -0.0589,-0.50467 0.0353,-0.48577 0.0942,0.0189 0.50184,-0.0584 0.90584,-0.17176 1.09091,-0.30612 4.61986,0.78121 5.64709,1.73996 0.3976,0.3711 0.75778,0.47399 1.23763,0.35355 1.23626,-0.31028 1.03833,-0.83109 -0.55905,-1.47106 -0.82718,-0.33141 -1.58124,-0.7166 -1.6757,-0.85598 -0.0944,-0.13939 -0.36234,-0.18029 -0.59531,-0.0909 -0.31623,0.12135 -0.42358,8.1e-4 -0.42358,-0.47561 0,-0.70913 0.91658,-1.4997 1.48559,-1.28135 0.24245,0.093 0.3665,-0.0525 0.3665,-0.42997 0,-0.31384 0.18165,-0.92189 0.40366,-1.35123 0.42871,-0.82901 0.62952,-0.88266 2.96977,-0.79328 1.51167,0.0577 1.62188,-0.0662 0.89706,-1.00864 -0.42928,-0.55816 -0.54107,-0.58645 -1.05337,-0.26651 -0.75203,0.46965 -1.53363,0.0145 -1.41005,-0.82105 0.094,-0.63524 -0.86496,-1.85988 -1.45632,-1.85988 -0.44431,0 -0.43998,0.20974 0.032,1.54737 0.49123,1.3923 0.0445,1.75783 -0.8287,0.67812 -0.53822,-0.66547 -0.60066,-0.95493 -0.45889,-2.12736 0.0903,-0.74639 0.0629,-1.41726 -0.0608,-1.49083 -0.12371,-0.0736 -0.73854,-0.21877 -1.3663,-0.32268 l -1.14136,-0.18892 0.18269,1.0183 c 0.10048,0.56006 0.3462,1.20626 0.54605,1.436 0.19985,0.22974 0.36337,0.55716 0.36337,0.72761 0,1.01777 -2.44341,-0.69239 -3.18859,-2.23172 -0.30875,-0.63779 -0.65895,-1.21993 -0.77822,-1.29364 -0.2339,-0.14456 -0.22149,-0.25494 0.29764,-2.64704 0.56779,-2.61636 2.35174,-3.82464 4.11277,-2.78561 0.59352,0.35018 1.24216,0.50913 1.81851,0.44562 1.09368,-0.12053 2.41147,0.61646 2.76501,1.54636 0.1383,0.36374 0.41743,0.66134 0.62031,0.66134 0.72457,0 3.07262,2.14734 3.56543,3.26067 0.26901,0.60772 0.988167,1.68133 1.598137,2.38579 1.55291,1.79345 2.12954,3.02705 1.86265,3.98479 -0.12161,0.43642 -0.105,0.97125 0.0385,1.23938 0.33401,0.6241 0.32283,2.01921 -0.0179,2.22977 -0.14866,0.0919 -1.15181,-0.49641 -2.22923,-1.3073 -1.077417,-0.81089 -2.093607,-1.47435 -2.258197,-1.47435 -0.16458,0 0.0944,0.4741 0.57559,1.05356 0.48116,0.57946 1.0054,1.05571 1.16498,1.05834 0.422497,0.007 2.223397,1.81979 2.223397,2.23815 0,0.72711 -0.87312,0.70332 -1.69815,-0.0462 -0.448457,-0.40745 -1.185897,-0.94419 -1.638727,-1.19276 l -0.82334,-0.45194 0.0296,0.98556 c 0.0375,1.24802 0.59433,1.67578 2.367117,1.81831 0.75165,0.0604 1.49844,0.1554 1.65954,0.21105 0.1611,0.0557 0.63735,-0.12589 1.05833,-0.40343 0.95434,-0.62915 1.16231,-0.63428 1.16231,-0.0287 0,0.26368 -0.36937,0.75249 -0.82081,1.08626 -0.7337,0.54244 -1.00748,0.58847 -2.57969,0.43371 -1.746087,-0.17189 -2.539917,-0.38325 -4.221617,-1.12405 -0.82759,-0.36456 -0.92351,-0.34874 -1.76149,0.29042 -0.97501,0.74367 -3.11926,1.08347 -4.50702,0.71422 z m 0,-1.35079 c -0.0899,-0.14552 -0.34211,-0.26459 -0.5604,-0.26459 -0.21828,0 -0.32329,0.11907 -0.23335,0.26459 0.0899,0.14552 0.34212,0.26458 0.5604,0.26458 0.21828,0 0.32329,-0.11906 0.23335,-0.26458 z m -1.19062,-0.38126 c 0,-0.0642 -0.11907,-0.19026 -0.26459,-0.2802 -0.14552,-0.0899 -0.26458,-0.0374 -0.26458,0.11668 0,0.1541 0.11906,0.28019 0.26458,0.28019 0.14552,0 0.26459,-0.0525 0.26459,-0.11667 z m 7.9375,-2.52916 c 0,-0.14552 -0.11907,-0.26458 -0.26459,-0.26458 -0.14552,0 -0.26458,0.11906 -0.26458,0.26458 0,0.14552 0.11906,0.26458 0.26458,0.26458 0.14552,0 0.26459,-0.11906 0.26459,-0.26458 z m -1.43821,-2.08915 c -0.0993,-0.16066 -0.64975,-0.2921 -1.22324,-0.2921 -0.85619,0 -1.04272,0.092 -1.04272,0.51416 0,0.28279 0.26495,0.69975 0.58878,0.92657 0.54874,0.38435 0.63193,0.36924 1.22324,-0.22207 0.34896,-0.34896 0.55323,-0.76591 0.45394,-0.92656 z m 3.29029,-1.61502 c 0,-0.14552 -0.10933,-0.26458 -0.24295,-0.26458 -0.13361,0 -0.43127,-0.0723 -0.66145,-0.1606 -0.23019,-0.0883 -0.41852,-0.0375 -0.41852,0.11289 0,0.23642 0.41034,0.43573 1.12448,0.54619 0.10914,0.0169 0.19844,-0.0884 0.19844,-0.2339 z m 0,-3.29629 c 0,-0.0485 -0.60813,-0.47836 -1.3514,-0.95532 -1.14527,-0.73491 -1.42941,-0.81847 -1.86285,-0.54778 -0.28129,0.17567 -0.62566,0.24881 -0.76526,0.16253 -0.73615,-0.45496 0.28236,-1.44855 1.48487,-1.44855 1.09137,0 1.1517,-0.25821 0.19583,-0.8382 -0.63397,-0.38467 -0.77654,-0.38885 -1.31128,-0.0385 -0.79549,0.52123 -1.15241,0.25183 -1.15241,-0.8698 0,-0.55661 -0.21011,-1.14701 -0.53063,-1.49105 -0.56071,-0.60185 -0.9349,-0.45486 -1.09734,0.43104 -0.0505,0.27544 -0.30716,0.63263 -0.57034,0.79375 -0.60638,0.37122 -1.24127,-0.3806 -1.24127,-1.46985 0,-0.60709 -0.15025,-0.77519 -0.8599,-0.96207 -0.47294,-0.12455 -1.04249,-0.18033 -1.26565,-0.12397 -0.61316,0.15485 -1.60453,2.22228 -1.53064,3.19203 0.0671,0.88085 0.64106,1.16356 0.91467,0.45055 0.0838,-0.21828 0.40796,-0.39687 0.72043,-0.39687 0.94018,0 5.01533,2.09653 5.73655,2.95126 0.38142,0.45203 1.0689,0.88385 1.5875,0.99715 0.95016,0.20759 2.89912,0.31759 2.89912,0.16363 z m 32.359277,9.44239 c -0.19134,-0.125 -0.22878,-0.34931 -0.0946,-0.56649 0.27647,-0.44734 1.68936,-0.15521 1.53386,0.31713 -0.12719,0.38635 -0.99854,0.53731 -1.43931,0.24936 z m -51.870293,-0.45985 c -0.25576,-0.17572 -0.92211,-0.40331 -1.48078,-0.50574 -1.70128,-0.31194 -2.34781,-0.71092 -2.22163,-1.371 0.0922,-0.48242 0.009,-0.56585 -0.47498,-0.47803 -0.33002,0.0598 -1.37712,-0.29838 -2.39333,-0.81879 -1.96789,-1.00778 -2.49326,-1.124 -2.49326,-0.55157 0,0.2297 0.40767,0.4425 1.05833,0.55243 0.58209,0.0983 1.05834,0.2874 1.05834,0.42013 0,0.13273 0.21737,0.24132 0.48304,0.24132 0.66523,0 1.73967,1.1941 1.54079,1.71238 -0.14454,0.37666 -0.25504,0.37446 -1.15796,-0.023 -0.54899,-0.24166 -1.30593,-0.46929 -1.6821,-0.50583 -0.37616,-0.0365 -1.05485,-0.25827 -1.50821,-0.49271 -0.45336,-0.23444 -1.06084,-0.42625 -1.34996,-0.42625 -0.453,0 -0.50489,0.12801 -0.37539,0.92604 0.13192,0.81297 0.0822,0.92604 -0.40741,0.92604 -0.3106,0 -0.76019,-0.30906 -1.01475,-0.69755 -0.25138,-0.38366 -0.81967,-0.8637 -1.26287,-1.06677 -0.44319,-0.20306 -1.163,-0.60214 -1.59956,-0.88684 -1.20307,-0.78456 -1.83888,-1.02383 -1.94799,-0.73309 -0.0528,0.14055 0.0365,0.38801 0.19843,0.5499 0.39487,0.39487 0.37372,1.16004 -0.0364,1.31607 -0.48253,0.18359 -1.50835,-0.25664 -1.68781,-0.72432 -0.19904,-0.51869 -0.62729,-0.52303 -0.62729,-0.006 0,0.51271 -0.38593,0.50292 -1.19993,-0.0304 -0.70911,-0.46462 -0.8951,-1.61274 -0.29836,-1.84173 0.19459,-0.0747 0.88303,-0.16694 1.52987,-0.20505 0.64683,-0.0381 1.35083,-0.17796 1.56443,-0.31079 0.46221,-0.28743 1.5046,-0.18536 2.24045,0.2194 0.29104,0.16009 0.69088,0.31792 0.88854,0.35073 0.19766,0.0328 0.61438,0.28872 0.92604,0.56868 0.9605,0.86277 1.20831,0.90631 1.92954,0.33899 0.52892,-0.41605 0.78197,-0.47662 1.05265,-0.25198 0.4401,0.36525 0.6908,-0.16921 0.7316,-1.55966 0.027,-0.91935 -0.0326,-0.98066 -1.83798,-1.89227 -1.88861,-0.95363 -4.08727,-2.55766 -4.08727,-2.98186 0,-0.12725 -0.24838,-0.49428 -0.55197,-0.81561 -0.43731,-0.46289 -0.52616,-0.82083 -0.42775,-1.72313 0.21717,-1.99111 1.60125,-2.41557 3.98401,-1.22179 0.74873,0.37512 1.80693,1.17305 2.35155,1.77316 1.4601,1.6089 1.65141,3.59595 0.37049,3.84805 -0.33803,0.0665 -0.43466,-0.12465 -0.43466,-0.85989 0,-0.52 -0.093,-0.94545 -0.20658,-0.94545 -0.11362,0 -0.33258,-0.33383 -0.48659,-0.74185 -0.20304,-0.5379 -0.76377,-0.98241 -2.03964,-1.61686 -2.00519,-0.99713 -2.71067,-0.94558 -2.441,0.17837 0.35177,1.46607 5.05256,4.8678 6.14659,4.44798 0.21366,-0.082 0.61797,-0.0263 0.89847,0.12387 0.57692,0.30876 0.63104,0.18112 0.23611,-0.55682 -0.23594,-0.44084 -0.18461,-0.51177 0.37036,-0.51177 0.45076,0 1.14885,0.5311 2.32441,1.76838 0.92409,0.97261 1.96421,2.04304 2.31139,2.37873 0.72256,0.69866 2.43767,1.2657 2.67361,0.88394 0.0843,-0.13641 0.5956,-0.43283 1.1362,-0.65871 0.54061,-0.22588 0.99363,-0.49839 1.00672,-0.60558 0.19638,-1.60816 0.14242,-2.19813 -0.18942,-2.07079 -0.19995,0.0767 -0.36355,0.0272 -0.36355,-0.10998 0,-0.31913 -1.36544,-1.02644 -2.75593,-1.4276 -0.79179,-0.22844 -1.10312,-0.468 -1.16507,-0.89652 -0.069,-0.47743 0.0441,-0.58479 0.61633,-0.58479 0.63801,0 0.68555,-0.0698 0.52996,-0.77823 -0.21151,-0.96298 0.2399,-1.8676 0.93194,-1.8676 0.7861,0 0.63208,-0.44012 -0.56447,-1.61297 -1.25308,-1.22828 -2.21209,-1.33367 -2.21888,-0.24384 -0.007,1.04602 -0.84142,1.00246 -1.35312,-0.0706 -0.31916,-0.66929 -0.85631,-1.11859 -2.05508,-1.719 -1.77158,-0.8873 -3.34276,-1.31115 -3.34276,-0.90177 0,0.37035 3.13106,3.44574 4.29948,4.22303 1.04482,0.69507 1.31032,1.38679 0.52916,1.37867 -0.97894,-0.0102 -4.77338,-2.99559 -5.48363,-4.31444 -0.34473,-0.64013 -0.42796,-1.15512 -0.29834,-1.84603 0.17643,-0.94045 0.19993,-0.95622 1.2669,-0.85008 0.59793,0.0595 1.21251,0.23353 1.36574,0.38676 0.15323,0.15323 0.49118,0.2786 0.75099,0.2786 0.25981,0 1.181,0.37145 2.04709,0.82544 1.31742,0.69058 1.69653,0.78297 2.32034,0.56551 0.4101,-0.14296 0.98572,-0.17111 1.27916,-0.0626 0.79349,0.29353 2.66106,2.2906 3.86054,4.12824 0.614936,0.9421 1.438726,1.82545 1.968376,2.11068 0.50097,0.2698 0.91086,0.58252 0.91086,0.69495 0,0.11243 0.10505,0.20441 0.23345,0.20441 0.1284,0 0.74108,0.50602 1.36151,1.12448 0.88017,0.87739 1.12155,1.30798 1.09845,1.95952 -0.0177,0.49974 0.12135,0.89297 0.34633,0.9793 0.37793,0.14502 1.45817,2.02726 1.45817,2.54075 0,0.15132 -0.21439,0.27512 -0.47642,0.27512 -0.59126,0 -1.89997,-0.59143 -1.90276,-0.85989 -0.001,-0.10914 -0.21043,-0.20223 -0.46509,-0.20686 -0.25466,-0.005 -0.69414,-0.18322 -0.97661,-0.39687 -0.53643,-0.40574 -2.13067,-0.54944 -1.89676,-0.17097 0.0739,0.11962 1.00369,0.55592 2.06613,0.96955 1.90914,0.74328 2.31664,1.03039 2.32454,1.63783 0.006,0.44425 -0.84934,0.57883 -1.31886,0.20756 -0.41197,-0.32576 -4.568506,-1.44493 -5.366376,-1.44493 -0.70492,0 -0.54166,0.39985 0.4821,1.1807 0.793106,0.60494 1.097026,0.68723 1.984366,0.53731 0.59843,-0.1011 1.04783,-0.0712 1.04783,0.0698 0,0.93283 -3.220836,1.90144 -4.165186,1.2526 z m -6.38131,-5.16588 c -0.7559,-0.62973 -1.87398,-0.7431 -1.37279,-0.1392 0.17399,0.20965 0.63505,0.42993 1.02459,0.48953 0.38953,0.0596 0.76777,0.12223 0.84053,0.13919 0.0728,0.017 -0.14879,-0.20332 -0.49233,-0.48952 z m 11.340246,-1.95996 c 0,-0.0642 -0.11907,-0.19026 -0.26459,-0.2802 -0.14552,-0.0899 -0.26458,-0.0374 -0.26458,0.11668 0,0.15411 0.11906,0.2802 0.26458,0.2802 0.14552,0 0.26459,-0.0525 0.26459,-0.11668 z m -0.79506,-0.71082 c 0.002,-0.24822 -0.59061,-0.67424 -1.18932,-0.85504 -0.39199,-0.11837 -0.60854,0.0106 -0.83534,0.49749 -0.3032,0.65093 -0.29488,0.65665 0.85859,0.59044 0.64062,-0.0368 1.16535,-0.14157 1.16607,-0.23289 z m -3.438276,-2.22176 c 0,-0.47361 -0.1975,-0.7431 -0.67868,-0.92604 -0.9072,-0.34492 -0.88304,-0.35865 -0.82634,0.46957 0.079,1.15442 1.50502,1.58692 1.50502,0.45647 z"
       id="path3" />
  </g>
</svg>
