<?xml version="1.0" encoding="UTF-8" standalone="no"?>
<!-- Created with Inkscape (http://www.inkscape.org/) -->

<svg
   width="115.17963mm"
   height="72.547836mm"
   viewBox="0 0 115.17963 72.547836"
   version="1.1"
   id="svg1"
   inkscape:version="1.4.1-rc (06eac75fbf, 2025-03-29)"
   sodipodi:docname="field2.svg"
   xmlns:inkscape="http://www.inkscape.org/namespaces/inkscape"
   xmlns:sodipodi="http://sodipodi.sourceforge.net/DTD/sodipodi-0.dtd"
   xmlns="http://www.w3.org/2000/svg"
   xmlns:svg="http://www.w3.org/2000/svg">
  <sodipodi:namedview
     id="namedview1"
     pagecolor="#ffffff"
     bordercolor="#000000"
     borderopacity="0.25"
     inkscape:showpageshadow="2"
     inkscape:pageopacity="0.0"
     inkscape:pagecheckerboard="0"
     inkscape:deskcolor="#d1d1d1"
     inkscape:document-units="mm"
     inkscape:zoom="0.72248176"
     inkscape:cx="217.30652"
     inkscape:cy="136.33562"
     inkscape:window-width="1850"
     inkscape:window-height="1016"
     inkscape:window-x="0"
     inkscape:window-y="0"
     inkscape:window-maximized="1"
     inkscape:current-layer="layer1" />
  <defs
     id="defs1" />
  <g
     inkscape:label="Layer 1"
     inkscape:groupmode="layer"
     id="layer1"
     transform="translate(-47.360409,-112.18325)">
    <path
       style="fill:#000000"
       d="m 55.0397,184.4355 c -0.17463,-0.17463 -0.3175,-0.53181 -0.3175,-0.79375 0,-0.27564 -0.19504,-0.47796 -0.46302,-0.4803 -0.25467,-0.002 -0.64162,-0.12217 -0.8599,-0.26653 -0.33629,-0.22241 -0.2965,-0.34021 0.26063,-0.77161 0.79971,-0.61923 0.52883,-1.01343 -0.40425,-0.58829 -0.37127,0.16916 -1.05638,0.29919 -1.52248,0.28897 -0.71348,-0.0157 -0.7638,-0.0545 -0.31828,-0.24599 0.5095,-0.21894 0.50755,-0.22808 -0.0525,-0.24599 -0.80083,-0.0256 -1.9026,-1.1107 -2.20761,-2.1742 -0.33275,-1.16021 -0.32238,-2.92022 0.0225,-3.82743 0.24044,-0.6324 0.19001,-0.79638 -0.39176,-1.274 -1.55932,-1.28015 -1.92892,-4.33441 -0.65865,-5.44296 0.0834,-0.0728 0.22847,-0.34065 0.32243,-0.59532 0.194,-0.5258 1.37347,-0.63396 1.67061,-0.1532 0.12769,0.20661 0.25981,0.1251 0.3966,-0.24469 0.18661,-0.50445 0.29196,-0.52786 1.16695,-0.25932 0.70695,0.21697 1.16867,0.21711 1.74247,5.3e-4 0.50908,-0.19216 1.07076,-0.21146 1.6146,-0.0555 0.74024,0.21229 0.9131,0.15053 1.53816,-0.54959 0.9003,-1.00839 1.49742,-0.99377 2.90417,0.0711 0.62476,0.47295 1.38677,1.00697 1.69334,1.18673 0.30658,0.17975 0.44431,0.32858 0.30606,0.33073 -0.13824,0.002 -0.10848,0.14677 0.0662,0.3214 0.17462,0.17462 0.3175,0.48078 0.3175,0.68035 0,0.63433 0.62906,1.02431 1.94274,1.20437 0.70188,0.0962 1.39779,0.2501 1.54648,0.342 0.14869,0.0919 0.86746,0.21372 1.59727,0.27073 l 1.32692,0.10364 -0.62702,-0.66098 c -0.34486,-0.36353 -0.77585,-0.66303 -0.95775,-0.66554 -0.1819,-0.002 -0.33073,-0.10158 -0.33073,-0.22015 0,-0.11857 -0.41559,-0.41376 -0.92353,-0.65598 -0.64457,-0.30738 -0.9275,-0.62188 -0.93666,-1.0412 -0.007,-0.33043 -0.0195,-0.95142 -0.0273,-1.37997 -0.008,-0.42855 0.16389,-0.90937 0.38151,-1.0685 0.79889,-0.58416 -0.24349,-2.74458 -1.3383,-2.77372 -0.1819,-0.005 -0.33073,-0.11841 -0.33073,-0.25236 0,-0.13396 -0.35718,-0.32202 -0.79375,-0.4179 -0.83217,-0.18278 -0.92114,-0.31578 -0.57545,-0.86021 0.16327,-0.25714 0.44293,-0.22013 1.25272,0.16576 1.84275,0.87815 2.23315,0.93328 2.23315,0.3154 0,-0.30085 -0.11747,-0.54699 -0.26103,-0.54699 -0.14357,0 -0.43476,-0.38696 -0.6471,-0.8599 -0.58964,-1.31335 -1.25516,-1.94205 -2.72521,-2.57445 -2.48393,-1.06855 -3.30445,-0.31408 -2.15703,1.9834 0.45219,0.90542 0.52233,1.26857 0.28989,1.50101 -0.23243,0.23243 -0.46531,0.13538 -0.96253,-0.40113 -0.44804,-0.48344 -0.84851,-0.67197 -1.26364,-0.59487 -0.33425,0.0621 -0.70505,0.12171 -0.82399,0.13252 -0.29164,0.0265 0.0651,1.09691 0.51575,1.54758 0.41291,0.4129 0.47448,1.01716 0.12561,1.23277 -0.12999,0.0803 -0.3098,-0.14656 -0.39957,-0.50422 -0.11766,-0.46878 -0.28534,-0.60342 -0.60079,-0.48237 -0.30453,0.11686 -0.3761,0.0684 -0.23539,-0.15924 0.11901,-0.19257 0.0147,-0.46425 -0.25361,-0.66043 -0.46989,-0.3436 -0.34998,-1.48359 0.15605,-1.48359 0.13572,0 0.24676,-0.17859 0.24676,-0.39688 0,-0.24825 0.2508,-0.39687 0.66976,-0.39687 0.36837,0 0.71196,-0.14883 0.76353,-0.33073 0.0516,-0.1819 0.23555,-0.85123 0.40884,-1.4874 l 0.31506,-1.15667 1.83971,0.18128 c 1.94501,0.19166 3.67601,0.76628 3.67601,1.22028 0,0.14946 0.26052,0.62412 0.57893,1.05479 0.44955,0.60805 0.78571,0.78303 1.5043,0.78303 0.5955,0 1.15127,0.21222 1.55906,0.59532 0.61629,0.57896 0.64374,0.58156 0.9997,0.0948 0.20131,-0.2753 0.40628,-0.62136 0.4555,-0.76901 0.0492,-0.14766 0.61906,-0.34224 1.26631,-0.4324 1.04332,-0.14534 1.31693,-0.0646 2.41177,0.71199 0.96004,0.68095 1.40176,0.83993 1.98437,0.71418 0.41219,-0.089 1.40428,-0.20788 2.20465,-0.26425 0.80036,-0.0564 1.4552,-0.12059 1.4552,-0.1427 0,-0.0221 0.5303,-0.0772 1.17843,-0.12244 0.64814,-0.0452 1.54111,-0.14921 1.98438,-0.23108 0.44327,-0.0819 1.14665,-0.0566 1.56308,0.0561 0.6882,0.18626 0.71686,0.23834 0.31478,0.57203 -0.26463,0.21963 -1.10027,0.37536 -2.08004,0.38764 -0.90074,0.0113 -1.72518,0.13958 -1.83209,0.2851 -0.11709,0.15936 -0.196,0.12017 -0.19844,-0.0985 -0.003,-0.27372 -0.0915,-0.29057 -0.35913,-0.0684 -0.19529,0.16207 -0.41145,0.23831 -0.48035,0.1694 -0.0689,-0.0689 -0.93809,0.10716 -1.93152,0.39126 -1.127,0.32229 -1.95942,0.43081 -2.21358,0.28857 -0.24821,-0.1389 -0.813,-0.0848 -1.44575,0.13841 -0.57112,0.2015 -1.13462,0.30691 -1.25221,0.23423 -0.1176,-0.0727 -0.26252,0.014 -0.32205,0.19255 -0.0821,0.2463 -0.37454,0.22008 -1.21124,-0.10858 -0.60666,-0.2383 -1.1621,-0.33768 -1.23431,-0.22084 -0.0722,0.11685 0.0818,0.26817 0.34226,0.33628 0.52079,0.13619 1.37258,2.40456 1.37258,3.65526 0,1.01573 0.37217,1.17145 1.67397,0.70039 1.64284,-0.59446 3.12342,-0.74964 3.58561,-0.37581 0.24972,0.20198 0.33179,0.21115 0.22006,0.0246 -0.21115,-0.3526 1.36948,-0.59514 5.23598,-0.80342 4.00836,-0.21592 7.63889,-0.0592 10.98021,0.47399 0.94588,0.15094 3.87226,0.30434 6.50305,0.34089 2.63079,0.0365 4.93605,0.16088 5.12281,0.2763 0.18675,0.11542 0.41554,0.0919 0.50841,-0.0523 0.11149,-0.17311 1.20246,-0.17334 3.21156,-6.8e-4 1.67349,0.14382 3.78685,0.25091 4.69636,0.23798 1.30325,-0.0185 1.65364,0.0605 1.65364,0.37297 0,0.29281 0.12107,0.33361 0.46302,0.15603 0.49278,-0.2559 3.49564,-0.58591 6.54844,-0.71966 1.01865,-0.0446 2.77775,-0.14208 3.90912,-0.21656 1.2584,-0.0829 1.99709,-0.0384 1.90262,0.11444 -0.0849,0.13742 -0.0283,0.24986 0.12577,0.24986 0.15411,0 0.2802,0.11427 0.2802,0.25393 0,0.13967 -0.32742,0.24951 -0.7276,0.24409 -1.63371,-0.0221 -2.72133,0.0968 -2.85438,0.31208 -0.0779,0.126 -0.43218,0.11728 -0.79191,-0.0195 -0.37692,-0.14331 -1.54256,-0.16132 -2.76873,-0.0428 -1.28771,0.12448 -2.21706,0.10541 -2.37114,-0.0487 -0.16147,-0.16147 -0.37744,-0.15183 -0.59534,0.0266 -0.5732,0.46933 -3.02341,0.59562 -3.56656,0.18383 -0.53498,-0.4056 -0.89256,-0.48259 -0.84509,-0.18196 0.0827,0.52385 -0.0682,0.62952 -0.44837,0.31399 -0.34562,-0.28683 -0.45891,-0.28105 -0.66146,0.0337 -0.18953,0.29456 -0.29211,0.30621 -0.45676,0.0519 -0.15374,-0.23744 -1.37691,-0.33125 -4.43177,-0.33987 -2.32069,-0.007 -4.39803,0.011 -4.61631,0.0389 -0.21828,0.028 -1.02898,0.0321 -1.80155,0.009 -1.04584,-0.031 -1.35392,-0.12617 -1.20598,-0.37241 0.15441,-0.25703 0.11331,-0.26174 -0.18442,-0.0212 -0.22689,0.18332 -0.9759,0.26961 -1.83673,0.2116 -3.62767,-0.24445 -6.07333,-0.42115 -7.53903,-0.5447 -0.87312,-0.0736 -2.30187,-0.18736 -3.175,-0.25281 -0.87312,-0.0654 -2.03426,-0.16705 -2.58031,-0.22578 -0.54604,-0.0587 -1.04785,-0.0177 -1.11513,0.0911 -0.10805,0.17482 -1.54857,0.27201 -5.36653,0.36205 -0.61847,0.0146 -1.12448,0.10836 -1.12448,0.20838 0,0.10002 -0.44649,0.24784 -0.99219,0.32849 -3.46036,0.51141 -4.82865,0.96161 -4.82865,1.58877 0,0.12629 -0.27917,0.15955 -0.62037,0.0739 -0.56945,-0.14292 -0.61574,-0.0793 -0.56391,0.77443 0.0311,0.51157 0.13164,1.00529 0.2235,1.09716 0.0919,0.0919 0.16703,0.39805 0.16703,0.6804 0,0.35621 0.12625,0.46493 0.41238,0.35513 0.36011,-0.13818 1.16019,-0.0228 3.47173,0.50092 0.31724,0.0719 0.73396,0.28384 0.92604,0.47105 0.50267,0.48991 2.30177,1.29723 2.54958,1.14408 0.11556,-0.0714 0.67979,-0.023 1.25384,0.10763 1.05569,0.2402 1.14234,0.21572 4.0843,-1.15369 0.36264,-0.16879 0.89948,-0.56121 1.193,-0.87203 0.29577,-0.31321 1.00294,-0.62837 1.58636,-0.707 0.99552,-0.13415 3.5021,0.17403 4.36652,0.53687 0.21828,0.0916 1.05172,0.18324 1.85209,0.2036 1.47035,0.0374 2.84354,0.56749 3.85152,1.48679 0.86873,0.7923 2.50006,1.48473 3.18807,1.35321 0.56124,-0.10729 0.63332,-0.26287 0.63332,-1.36702 0,-1.2116 0.39811,-1.87081 1.50778,-2.49668 0.59412,-0.33509 2.66576,0.3721 2.82021,0.96272 0.12004,0.45901 0.20877,0.49291 0.54969,0.20997 0.33965,-0.28188 0.55339,-0.21286 1.29895,0.41951 0.93555,0.79352 1.42806,2.43741 0.97356,3.24955 -0.17561,0.3138 -0.34491,0.1905 -0.80188,-0.58401 -0.3186,-0.53999 -0.68537,-0.91623 -0.81503,-0.83609 -0.12966,0.0801 -0.62402,-0.0362 -1.09858,-0.25856 -0.47455,-0.22234 -1.30931,-0.4577 -1.85501,-0.52302 -0.83515,-0.1 -0.99219,-0.0405 -0.99219,0.37602 0,0.47422 0.47377,0.82061 2.28281,1.66902 0.93802,0.43992 1.2668,0.8438 1.01654,1.24873 -0.11926,0.19297 -0.27475,0.19171 -0.51075,-0.004 -0.44239,-0.36715 -3.06379,-1.14462 -3.24576,-0.96264 -0.0772,0.0772 0.17266,0.28301 0.55526,0.45734 0.7939,0.36172 0.88095,0.63347 0.27714,0.86517 -0.69347,0.26611 -1.16899,0.18222 -1.16899,-0.20624 0,-0.59849 -1.56568,-0.69747 -1.8755,-0.11857 -0.37121,0.69361 -0.73292,0.59983 -0.93406,-0.24219 -0.0956,-0.40019 -0.29104,-0.87644 -0.43432,-1.05834 -0.30922,-0.39258 -1.7832,-0.44726 -1.7832,-0.0661 0,0.46095 -0.49912,0.28594 -0.8028,-0.28149 -0.21483,-0.40141 -0.21235,-0.64236 0.009,-0.90947 0.24278,-0.29254 0.0194,-0.49688 -1.14546,-1.04796 -1.22824,-0.58105 -1.54948,-0.6379 -2.12433,-0.37598 -0.52299,0.23829 -0.95271,0.23146 -1.88646,-0.03 -1.46002,-0.40878 -1.84353,-0.19698 -0.62021,0.34252 2.84576,1.25501 3.32304,1.50006 3.62109,1.85918 0.50333,0.60648 -0.0765,0.79423 -1.21989,0.39501 -0.54486,-0.19024 -1.06089,-0.44178 -1.14674,-0.55899 -0.0859,-0.11721 -0.44305,-0.2282 -0.79375,-0.24666 -0.35071,-0.0185 -0.78104,-0.14161 -0.95628,-0.27368 -0.32344,-0.24375 -2.24327,-1.25375 -2.38315,-1.25375 -0.042,0 -0.0763,0.21419 -0.0763,0.47597 0,0.27045 0.45605,0.75601 1.05615,1.12448 1.02112,0.62699 1.28024,1.2812 0.5975,1.50852 -0.19744,0.0657 -0.33073,-0.12344 -0.33073,-0.4694 0,-0.39411 -0.12118,-0.53302 -0.37876,-0.43418 -0.20832,0.0799 -0.83339,-0.0708 -1.38906,-0.33503 -1.03064,-0.49004 -3.52385,-0.97427 -3.52385,-0.6844 0,0.088 0.29766,0.48106 0.66146,0.8734 0.71471,0.77079 0.79381,1.00261 0.42075,1.23317 -0.42232,0.26101 -1.08221,-0.15626 -1.08221,-0.68432 0,-0.43497 -0.0812,-0.46669 -0.55118,-0.21518 -0.42927,0.22974 -0.64871,0.20797 -0.99218,-0.0984 -0.30352,-0.27076 -0.95663,-0.38045 -2.09479,-0.35182 -1.51278,0.0381 -1.65376,-0.005 -1.65364,-0.50962 1.6e-4,-0.71474 -0.26613,-0.96741 -0.66803,-0.63385 -0.22129,0.18365 -0.42239,0.14214 -0.65206,-0.13459 -0.18264,-0.22008 -0.60841,-0.40014 -0.94614,-0.40014 -0.33773,0 -0.7983,-0.26304 -1.02348,-0.58454 -0.32019,-0.45712 -0.47917,-0.51479 -0.72938,-0.26458 -0.38698,0.38698 -1.53704,0.42673 -1.53704,0.0531 0,-0.16561 -0.18521,-0.15116 -0.48826,0.0381 -0.38514,0.24052 -0.83174,0.18894 -2.11436,-0.24421 l -1.6261,-0.54914 -0.39379,0.56222 -0.3938,0.56222 -0.6007,-0.54994 c -1.15352,-1.05605 -2.67869,-0.99609 -2.11634,0.0832 0.14233,0.27317 0.229,0.91339 0.1926,1.42271 -0.0816,1.14214 0.071,1.43867 0.54015,1.04932 0.20033,-0.16625 0.6175,-0.21776 0.93852,-0.11587 0.51249,0.16265 0.55913,0.10867 0.41213,-0.47704 -0.26949,-1.07371 0.22908,-1.2528 2.61413,-0.93904 1.16038,0.15265 2.22884,0.36218 2.37436,0.46562 0.14553,0.10344 0.56224,0.17935 0.92605,0.16869 0.3638,-0.0107 0.72099,0.0401 0.79375,0.1129 0.0728,0.0728 0.47993,0.31089 0.90482,0.52917 1.75358,0.90086 0.88769,1.38724 -1.17441,0.65969 -2.12868,-0.75104 -5.02208,-1.14857 -5.02208,-0.69 0,0.1694 0.28142,0.41498 0.62537,0.54576 0.62941,0.2393 1.09963,0.96469 0.75214,1.1603 -0.22804,0.12837 -1.13969,0.0532 -2.63428,-0.21708 -0.96982,-0.17541 -1.12448,-0.1401 -1.12448,0.25675 0,0.3865 -0.15879,0.43208 -0.99219,0.2848 l -0.99219,-0.17534 0.79375,0.66555 c 0.43657,0.36604 0.86917,0.66982 0.96133,0.67505 0.0922,0.005 0.22577,0.23202 0.29688,0.50397 0.0986,0.37715 0.46687,0.53278 1.55222,0.65603 2.19299,0.24902 4.60383,0.28177 4.95092,0.0673 0.17225,-0.10646 0.52048,-0.13072 0.77383,-0.0539 0.82341,0.24962 6.24958,0.7705 7.44959,0.71511 1.02833,-0.0475 1.12735,-0.005 0.8275,0.35649 -0.18733,0.22572 -0.50462,0.4104 -0.70508,0.4104 -0.20046,0 -0.36448,0.12609 -0.36448,0.2802 0,0.15411 -0.10798,0.21346 -0.23996,0.13189 -0.13198,-0.0816 -1.0358,-0.20733 -2.00848,-0.27948 -0.97269,-0.0721 -1.89694,-0.21054 -2.05388,-0.30754 -0.68864,-0.4256 -6.42363,-0.26988 -6.15357,0.16709 0.0634,0.10256 0.68918,0.19322 1.39064,0.20147 0.70146,0.008 1.73295,0.20617 2.29221,0.43984 0.55926,0.23368 1.29995,0.42486 1.64598,0.42486 0.34603,0 0.62915,0.11906 0.62915,0.26459 0,0.14552 -0.12609,0.26458 -0.2802,0.26458 -0.15411,0 -0.21589,0.10405 -0.13729,0.23123 0.0786,0.12717 -0.59899,0.0768 -1.50574,-0.11202 -3.17335,-0.66068 -6.77327,-0.89548 -8.1465,-0.53134 -1.16212,0.30815 -1.66083,0.37102 -3.10891,0.39189 -0.84469,0.0122 -1.34084,0.12354 -1.24453,0.27935 0.17852,0.28886 -0.31311,1.35411 -0.76384,1.65507 -0.46516,0.31059 -1.87512,0.23244 -2.23124,-0.12368 -0.2585,-0.2585 -0.35822,-0.20361 -0.48065,0.26458 -0.17453,0.6674 -0.37405,0.7328 -0.8336,0.27325 z m -1.5681,-3.80121 c 0.40358,-0.0963 0.91188,-0.42937 1.12957,-0.74017 0.21769,-0.31079 0.45304,-0.53531 0.523,-0.49893 0.07,0.0364 0.36645,0.0661 0.65888,0.0661 0.45476,0 0.51479,-0.13617 0.41493,-0.94128 -0.0813,-0.65556 -0.002,-0.9854 0.26207,-1.08664 0.20835,-0.08 0.37881,-0.29664 0.37881,-0.48153 0,-0.49926 0.70971,-0.99628 1.42261,-0.99628 0.452,0 0.59541,-0.12167 0.51333,-0.43551 -0.0874,-0.33437 -0.35618,-0.4124 -1.1572,-0.33601 -1.26682,0.12081 -1.38145,-0.31746 -0.25124,-0.96058 0.43564,-0.24789 0.79283,-0.6721 0.79375,-0.94268 10e-4,-0.40327 -0.15337,-0.47053 -0.85823,-0.37307 -0.47294,0.0654 -1.03849,0.16772 -1.25677,0.22738 -0.2246,0.0614 -0.39687,-0.0638 -0.39687,-0.28839 0,-0.21828 0.15768,-0.36416 0.35039,-0.32417 0.19272,0.04 0.27446,-0.0502 0.18164,-0.20036 -0.0928,-0.15018 0.28528,-0.70546 0.84023,-1.23394 l 1.00899,-0.96089 -0.95651,0.17435 c -0.89881,0.16384 -0.9493,0.13666 -0.83704,-0.45064 0.27141,-1.41976 -1.76405,-2.05868 -2.67863,-0.8408 -0.59916,0.79784 -1.10543,0.84964 -1.29303,0.13229 -0.0982,-0.37559 -0.35673,-0.52674 -0.89075,-0.52079 l -0.75238,0.008 0.72897,0.54385 c 0.91827,0.68508 0.71966,1.02689 -0.59667,1.02689 -0.56491,0 -1.09378,0.10788 -1.17528,0.23974 -0.0815,0.13186 -0.38617,0.17751 -0.67707,0.10144 -1.17243,-0.3066 -0.38676,1.90671 1.27489,3.59151 l 0.87776,0.88997 -0.54507,0.58021 c -0.2998,0.31911 -0.61414,1.10925 -0.69856,1.75585 -0.12945,0.99165 -0.0386,1.35021 0.5804,2.29097 0.40363,0.61343 0.9183,1.1638 1.14371,1.22305 0.40967,0.10767 0.56164,0.0889 1.93737,-0.23937 z m 11.83393,-0.10958 c 0,-0.31292 -1.16299,-0.6372 -1.64229,-0.45793 -0.2126,0.0795 -0.0917,0.23316 0.31937,0.40593 0.85427,0.35903 1.32292,0.37745 1.32292,0.052 z m 0.90848,-0.28205 c -0.28138,-0.10216 -0.56769,-0.13468 -0.63623,-0.0723 -0.21518,0.19591 0.61524,0.58716 0.88818,0.41847 0.14281,-0.0883 0.0294,-0.24405 -0.25195,-0.3462 z m -6.0895,-0.14817 c 0.59514,-0.22838 0.51845,-0.63316 -0.11996,-0.63316 -0.29616,0 -0.84935,-0.20369 -1.22931,-0.45265 -0.73514,-0.48168 -1.67179,-0.71971 -1.67179,-0.42485 0,0.0976 0.38695,0.50876 0.85989,0.91363 0.86888,0.74381 1.39786,0.88994 2.16117,0.59703 z m 2.53519,-1.14709 c 0,-0.11997 -0.30191,-0.27584 -0.6709,-0.34638 -0.63711,-0.12179 -0.64865,-0.10367 -0.22922,0.3598 0.41974,0.4638 0.90012,0.45664 0.90012,-0.0134 z m 41.64906,-6.06375 c 0.0774,-0.12522 0.0728,-0.29561 -0.0103,-0.37864 -0.20647,-0.20647 -0.89298,0.078 -0.89298,0.37005 0,0.30231 0.71748,0.30914 0.90323,0.009 z m -1.96156,-0.53776 c 0,-0.2682 -0.80587,-0.63355 -0.99041,-0.44901 -0.0665,0.0665 -0.0424,0.2479 0.0535,0.4031 0.21108,0.34155 0.93692,0.37711 0.93692,0.0459 z m -43.52396,-0.55747 c -0.0899,-0.14552 -0.27556,-0.26459 -0.41249,-0.26459 -0.13693,0 -0.24897,0.11907 -0.24897,0.26459 0,0.14552 0.18562,0.26458 0.41249,0.26458 0.22687,0 0.3389,-0.11906 0.24897,-0.26458 z m 0.79522,-2.64421 c -0.50256,-0.55532 -1.1921,-0.71419 -1.1921,-0.27466 0,0.27859 1.38664,1.08797 1.56383,0.91282 0.0597,-0.059 -0.10754,-0.34623 -0.37173,-0.63816 z m 7.18353,-1.19019 c -0.16821,-0.36266 -0.45466,-0.66032 -0.63656,-0.66145 -0.54995,-0.003 -0.37109,0.64621 0.26458,0.96104 0.32742,0.16216 0.61387,0.30945 0.63656,0.32732 0.0227,0.0179 -0.0964,-0.26424 -0.26458,-0.62691 z m 2.0235,-0.0384 c 0.0927,-0.0927 -0.066,-0.49804 -0.35278,-0.90073 -0.28674,-0.4027 -0.52135,-0.8425 -0.52135,-0.97735 0,-0.13485 -0.28962,-0.40018 -0.64361,-0.58963 -0.67991,-0.36388 -1.47305,-0.22262 -1.47305,0.26235 0,0.15867 0.1237,0.21205 0.2749,0.1186 0.26761,-0.16539 2.10635,1.61757 2.10635,2.04246 0,0.2542 0.37256,0.28128 0.60954,0.0443 z m -10.27861,-0.34154 c 0.0835,-0.13505 -0.0971,-0.32451 -0.4012,-0.42103 -0.62812,-0.19936 -0.91365,-0.0321 -0.65624,0.38438 0.21467,0.34733 0.85178,0.36942 1.05744,0.0367 z m 8.61073,-6.34074 c 0,-0.12995 -0.17859,-0.30481 -0.39687,-0.38857 -0.4033,-0.15476 -0.54187,0.12708 -0.22049,0.44845 0.25286,0.25287 0.61736,0.21751 0.61736,-0.0599 z m 5.29167,-0.59581 c 0,-0.11889 -0.32742,-0.28791 -0.7276,-0.3756 -0.40019,-0.0877 -0.87644,-0.20528 -1.05834,-0.26132 -0.1868,-0.0576 -0.33073,0.12395 -0.33073,0.41707 0,0.43597 0.16924,0.51233 1.05834,0.47749 0.58208,-0.0228 1.05833,-0.13875 1.05833,-0.25764 z m 40.59442,16.52619 c -0.17983,-0.28509 -0.77022,-0.42656 -1.97089,-0.47227 -2.0991,-0.0799 -3.48452,-0.38575 -3.36546,-0.74291 0.1414,-0.42422 1.5296,-0.4717 1.68845,-0.0577 0.1027,0.26766 0.30789,0.30151 0.76773,0.12668 0.42449,-0.16139 1.0681,-0.10777 1.98901,0.16572 0.74881,0.22237 1.85526,0.38502 2.45879,0.36146 1.62555,-0.0635 1.81363,-0.026 1.69267,0.33695 -0.0606,0.1819 -0.39795,0.3505 -0.74965,0.37467 -0.35169,0.0242 -1.0027,0.10482 -1.44668,0.17921 -0.55278,0.0926 -0.88817,0.007 -1.06397,-0.27176 z m 3.06183,-1.80485 -0.66146,-0.3795 0.66146,-0.0186 c 0.3638,-0.0102 0.98932,-0.0264 1.39005,-0.0359 0.40073,-0.01 0.93317,0.0612 1.18321,0.15715 0.38958,0.1495 0.3989,0.20969 0.0652,0.42075 -0.57232,0.36194 -1.88122,0.29058 -2.63842,-0.14384 z m 9.92187,-1.43582 c -0.29104,-0.11515 -0.66263,-0.15947 -0.82575,-0.0985 -0.16312,0.061 -0.3653,-0.0682 -0.44929,-0.28704 -0.16159,-0.42112 0.99135,-0.66586 3.04662,-0.64673 0.89531,0.008 0.95119,0.0517 0.66232,0.51428 -0.17352,0.27785 -0.35551,0.38511 -0.40443,0.23835 -0.0525,-0.15756 -0.3208,-0.10445 -0.65506,0.12968 -0.63123,0.44213 -0.63493,0.44254 -1.37441,0.14995 z m -3.77414,-0.32611 c -0.13494,-0.13494 -1.01544,-0.29394 -1.95667,-0.35333 -1.79756,-0.11342 -3.13273,-0.48884 -3.13273,-0.88086 0,-0.12786 0.47592,-0.2201 1.05761,-0.20499 0.58168,0.0151 1.05793,0.15263 1.05833,0.3056 4.5e-4,0.17236 0.67983,0.25711 1.78667,0.22288 0.98226,-0.0304 2.13173,0.0867 2.55436,0.26028 l 0.76842,0.31551 -0.94532,0.29012 c -0.5808,0.17826 -1.03993,0.19553 -1.19067,0.0448 z m 27.45435,-0.75024 c -0.21828,-0.14106 -0.80047,-0.2583 -1.29375,-0.26053 -0.53035,-0.002 -1.05074,-0.19327 -1.27339,-0.46707 -0.27211,-0.33464 -0.41451,-0.3719 -0.51353,-0.13441 -0.0863,0.20702 -0.30045,0.25 -0.57869,0.11616 -0.37271,-0.17928 -1.01346,-0.18245 -3.61668,-0.0179 -0.14552,0.009 -0.85989,-0.0749 -1.5875,-0.18686 -1.30591,-0.20096 -2.90528,-0.21938 -6.16727,-0.071 -1.24008,0.0564 -1.73232,-0.0236 -1.91418,-0.31113 -0.13465,-0.21289 -0.24664,-0.26156 -0.24887,-0.10816 -0.005,0.33278 -4.43632,0.43825 -4.63893,0.11042 -0.074,-0.1197 -0.5113,-0.16995 -0.97182,-0.11166 -0.46053,0.0583 -0.99764,-0.0271 -1.19359,-0.1897 -0.19594,-0.16262 -0.42856,-0.22336 -0.51694,-0.13498 -0.0884,0.0884 -0.41292,0.0231 -0.72121,-0.14515 -0.53115,-0.28981 -0.51199,-0.3179 0.36552,-0.53615 0.50932,-0.12667 2.16532,-0.28361 3.67999,-0.34875 1.51468,-0.0651 2.91018,-0.24809 3.10111,-0.40655 0.42373,-0.35166 1.6258,-0.36343 3.4715,-0.034 1.12126,0.20014 1.38907,0.17795 1.38907,-0.11509 0,-0.19967 -0.32743,-0.50389 -0.72761,-0.67605 -0.98922,-0.42555 -1.67767,-1.15725 -1.50709,-1.60177 0.15784,-0.41134 0.2555,-0.38916 -2.72624,-0.61925 -1.20055,-0.0926 -2.18281,-0.26518 -2.18281,-0.38342 0,-0.43725 0.64195,-0.58096 2.642,-0.59141 1.74362,-0.009 2.09874,-0.0884 2.37445,-0.52985 0.27668,-0.44303 0.22719,-0.61614 -0.33762,-1.18095 -0.64659,-0.64659 -0.65172,-0.68217 -0.22293,-1.54585 0.58608,-1.18051 1.66144,-1.51977 4.23127,-1.33494 4.9736,0.35772 5.55008,0.35121 5.39193,-0.0609 -0.0939,-0.24475 0.2765,-0.75629 0.99697,-1.37681 l 1.14641,-0.98736 -1.48395,-0.94927 c -0.81617,-0.5221 -1.74385,-0.94927 -2.06151,-0.94927 -0.55522,0 -0.55059,0.0212 0.11959,0.54837 0.38342,0.3016 0.69714,0.71832 0.69714,0.92604 0,0.50405 -1.16494,0.48996 -1.5875,-0.0192 -0.18116,-0.21828 -0.47882,-0.39688 -0.66146,-0.39688 -0.18265,0 -0.4803,-0.17859 -0.66146,-0.39687 -0.48329,-0.58233 -0.79375,-0.48495 -0.79375,0.24897 0,0.81974 -0.32101,1.01991 -0.92608,0.57747 -0.34266,-0.25056 -0.427,-0.53794 -0.30295,-1.03222 0.18699,-0.74502 0.95128,-1.11897 2.0735,-1.0145 0.63341,0.059 0.73274,-0.0455 0.89806,-0.94421 0.2182,-1.18621 0.46682,-1.39788 1.6483,-1.40333 0.90283,-0.004 1.75471,0.34119 2.3773,0.96377 0.38029,0.3803 1.1161,0.48477 1.10328,0.15665 -0.004,-0.10914 -0.34557,-0.56949 -0.75845,-1.02299 -0.55132,-0.60558 -1.08075,-0.87406 -1.99346,-1.01093 -1.04292,-0.15639 -1.19184,-0.24774 -0.92605,-0.56799 0.1742,-0.2099 0.49685,-0.3503 0.717,-0.312 0.22015,0.0383 0.44726,-0.064 0.50469,-0.2274 0.11872,-0.33772 -0.83054,-0.70252 -1.66854,-0.64122 -0.37888,0.0277 -0.61622,-0.15668 -0.73195,-0.56869 -0.15963,-0.56831 -0.19541,-0.57827 -0.52681,-0.14669 -0.47599,0.61986 -0.95867,0.58656 -0.95867,-0.0661 0,-0.29104 0.10791,-0.52917 0.23981,-0.52917 0.42457,0 -0.012,-1.02177 -0.59818,-1.39994 -1.25836,-0.81185 -3.12592,-1.25425 -4.14094,-0.98094 -1.40723,0.37893 -2.22753,1.18396 -2.23845,2.19679 -0.007,0.61862 -0.11563,0.81775 -0.40599,0.74199 -0.21829,-0.057 -0.635,-0.0817 -0.92605,-0.0551 -0.65816,0.0603 -4.77058,0.0813 -5.75468,0.0293 -0.40019,-0.0211 -0.72761,-0.13427 -0.72761,-0.25146 0,-0.25057 -1.98812,-0.65376 -3.77031,-0.76461 -0.45026,-0.028 -0.7276,-0.19654 -0.7276,-0.44213 0,-0.25705 0.25634,-0.39617 0.7276,-0.39488 1.15132,0.003 4.12067,0.53356 4.43157,0.79159 0.16166,0.13417 0.44242,0.13566 0.65628,0.004 0.21828,-0.13491 0.57454,-0.12352 0.85649,0.0274 0.26551,0.1421 0.59112,0.19138 0.72358,0.10951 0.13245,-0.0819 0.30255,-0.049 0.37798,0.0731 0.0754,0.12206 0.88716,0.19126 1.80385,0.15379 1.34597,-0.055 1.69399,-0.16053 1.8085,-0.54832 0.60793,-2.05865 1.82418,-2.93597 3.93854,-2.84097 0.78204,0.0351 1.73186,0.20431 2.11073,0.37595 1.84747,0.83698 2.54759,1.30662 2.61933,1.75706 0.0469,0.29458 0.63144,0.75786 1.45521,1.15338 1.98041,0.95087 3.56127,2.14734 3.84598,2.91083 0.13567,0.3638 0.4988,0.94757 0.80697,1.29726 0.58187,0.66027 0.75655,1.61316 0.29572,1.61316 -0.14552,0 -0.26458,0.28893 -0.26458,0.64206 0,1.00144 -0.77927,0.94509 -2.30381,-0.16658 -1.30031,-0.94816 -2.14973,-1.22542 -2.54459,-0.83055 -0.23191,0.23191 0.34916,0.91628 0.6304,0.74247 0.26974,-0.16671 2.89508,1.41714 2.89508,1.74658 0,0.25913 1.91649,1.3056 2.39106,1.3056 0.16251,0 0.64951,0.35403 1.08221,0.78673 0.4327,0.43271 1.37604,1.05709 2.09631,1.38752 0.72027,0.33043 1.30959,0.69846 1.30959,0.81785 0,0.11939 0.35129,0.51266 0.78065,0.87394 0.42935,0.36128 0.71843,0.81902 0.64238,1.0172 -0.24571,0.6403 0.37546,2.27449 1.07316,2.82331 0.76343,0.60051 0.85937,1.42841 0.25673,2.21533 -0.39997,0.52227 -0.41348,0.51969 -1.03723,-0.19844 -0.34759,-0.40018 -0.70861,-0.7276 -0.80226,-0.7276 -0.0937,0 -0.50833,-0.24071 -0.9215,-0.53492 -0.41317,-0.2942 -0.84827,-0.5102 -0.96689,-0.48001 -0.11862,0.0302 -0.68323,-0.14855 -1.2547,-0.3972 -0.77796,-0.33851 -1.11036,-0.37579 -1.32292,-0.14837 -0.20334,0.21755 -0.19005,0.33813 0.0469,0.42499 0.1819,0.0667 0.33073,0.34947 0.33073,0.62839 0,0.36621 0.18609,0.50712 0.66976,0.50712 0.36837,0 0.73803,0.17791 0.82147,0.39535 0.0834,0.21745 0.2548,0.33164 0.3808,0.25377 0.29644,-0.18321 1.73672,0.56391 2.56158,1.32876 0.52212,0.48414 0.85825,0.5731 1.77493,0.46978 0.62196,-0.0701 1.20304,-0.0106 1.29129,0.13216 0.1945,0.31472 1.496,0.1047 1.496,-0.24141 0,-0.14085 0.42344,-0.1658 0.99219,-0.0584 0.5457,0.103 1.17078,0.17426 1.38906,0.15834 0.21828,-0.0159 0.79934,0.0326 1.29123,0.10775 1.30503,0.19945 0.6524,0.67017 -0.99862,0.72027 -0.7427,0.0225 -1.35073,0.1005 -1.35118,0.17326 -0.002,0.29061 -1.84523,0.37079 -4.10081,0.17836 -3.72496,-0.31778 -4.98181,-0.31283 -5.093,0.0201 -0.0678,0.20297 0.13312,0.33073 0.52012,0.33073 0.34683,0 0.76416,0.13357 0.92742,0.29683 0.36909,0.36908 0.14396,1.02609 -0.35159,1.02609 -0.45828,0 -0.48508,-0.43806 -0.0378,-0.61852 0.1945,-0.0785 0.13659,-0.14206 -0.1406,-0.15434 -0.25923,-0.0115 -0.53985,0.1577 -0.62362,0.37598 -0.17682,0.46079 -0.3429,0.48549 -0.88943,0.13229 z m -7.40833,-1.60533 c 0,-0.15533 0.20836,-0.21845 0.46302,-0.14028 0.25466,0.0782 1.05833,0.0505 1.78594,-0.0616 l 1.32291,-0.20374 -1.32291,-0.18943 c -2.62827,-0.37635 -2.63176,-1.21055 -0.006,-1.37081 1.07803,-0.0658 1.65534,-0.24184 1.99757,-0.60918 0.52772,-0.56645 0.25879,-1.11129 -0.54853,-1.11129 -0.84017,0 -2.10476,-2.1348 -2.10476,-3.5531 0,-0.79846 -0.12112,-1.00608 -0.7276,-1.24728 -0.67979,-0.27034 -2.33214,-0.50935 -3.70417,-0.53579 -0.32742,-0.006 -0.59531,-0.0889 -0.59531,-0.18352 0,-0.0946 -0.75039,-0.1929 -1.66752,-0.21838 -1.42089,-0.0395 -1.71737,0.0335 -2.00457,0.49336 -0.59803,0.9576 0.0428,1.88711 1.90191,2.75868 0.90084,0.42233 1.63971,0.88656 1.64194,1.03164 0.002,0.14507 0.0915,0.40121 0.19841,0.56919 0.14062,0.22097 -0.31633,0.29884 -1.65271,0.28164 -1.01589,-0.0131 -1.91721,0.0464 -2.00294,0.1321 -0.16339,0.16339 1.74855,1.54706 2.65943,1.92464 0.29105,0.12064 0.8381,0.24489 1.21568,0.2761 0.98519,0.0814 2.19367,0.92034 1.83806,1.27594 -0.1979,0.19791 -0.10434,0.37867 0.31715,0.61275 0.74405,0.41322 0.99474,0.43044 0.99474,0.0684 z m 5.82083,0.0487 c 0,-0.29299 -0.80661,-0.51405 -1.28671,-0.35264 -0.3045,0.10237 -0.3045,0.15684 0,0.34976 0.47194,0.299 1.28671,0.30082 1.28671,0.003 z m -13.09687,-0.55877 c -0.68916,-0.29778 -0.92604,-0.31286 -0.92604,-0.059 0,0.11378 0.32742,0.22504 0.7276,0.24724 0.62786,0.0348 0.65506,0.009 0.19844,-0.18827 z m 3.00481,0.0278 c 0.52831,-0.33476 -0.0632,-0.60931 -0.87415,-0.40577 -0.36949,0.0927 -0.60606,0.27498 -0.52572,0.40497 0.18436,0.2983 0.92968,0.29873 1.39987,8e-4 z m 12.82568,-0.57262 1.36742,-0.0144 -1.29384,-0.52488 c -1.58015,-0.64102 -3.60095,-0.95676 -3.60095,-0.56262 0,0.41958 1.40455,1.38407 1.80758,1.24124 0.1938,-0.0687 0.96771,-0.13137 1.71979,-0.13931 z m -4.18883,-4.1748 c 0,-0.47854 -0.51786,-0.39118 -0.62058,0.10469 -0.0571,0.27588 0.042,0.39684 0.26459,0.32265 0.1958,-0.0653 0.35599,-0.25757 0.35599,-0.42734 z m -1.27446,-0.35829 c -0.0845,-0.21107 -0.14716,-0.14837 -0.15986,0.15985 -0.0115,0.27892 0.051,0.43519 0.13897,0.34727 0.0879,-0.0879 0.0973,-0.31613 0.0209,-0.50712 z m 3.03394,-0.61185 c 0,-0.13825 -0.12799,-0.29402 -0.28442,-0.34617 -0.15644,-0.0521 -0.28443,0.10363 -0.28443,0.34617 0,0.24253 0.12799,0.39831 0.28443,0.34616 0.15643,-0.0521 0.28442,-0.20792 0.28442,-0.34616 z m 2.77406,-0.28651 c -0.41697,-0.36667 -0.83369,-0.59078 -0.92604,-0.49804 -0.20206,0.20294 0.95545,1.18492 1.38275,1.17306 0.16578,-0.005 -0.0397,-0.30836 -0.45671,-0.67502 z m -3.91804,-0.90553 c 0.79042,-0.65875 0.52751,-1.07182 -0.62976,-0.98945 -0.73754,0.0525 -0.91082,0.17383 -0.91125,0.63809 -4.5e-4,0.49211 0.29213,0.80647 0.79322,0.85225 0.0728,0.007 0.40927,-0.21875 0.74779,-0.50089 z m 4.80846,-0.37985 c 0,-0.0642 -0.11906,-0.19026 -0.26458,-0.28019 -0.14552,-0.0899 -0.26458,-0.0374 -0.26458,0.11667 0,0.15411 0.11906,0.2802 0.26458,0.2802 0.14552,0 0.26458,-0.0525 0.26458,-0.11668 z m -2.67958,-1.40124 c -0.92186,-1.16674 -1.28582,-1.4504 -1.67123,-1.3025 -0.67239,0.25802 -0.4745,0.66778 0.5805,1.202 1.27539,0.64582 1.54093,0.67029 1.09073,0.1005 z m -3.34629,-1.05885 c 0.4725,-1.00626 0.26407,-1.49955 -0.50836,-1.20315 -0.608,0.23332 -1.16361,1.53249 -0.80763,1.88848 0.50627,0.50627 0.83746,0.33379 1.31599,-0.68533 z m -17.52204,5.73908 c 0,-0.16968 -0.1786,-0.23998 -0.39688,-0.15621 -0.21828,0.0838 -0.39687,0.037 -0.39687,-0.10399 0,-0.31561 0.5378,-0.32653 1.02043,-0.0207 0.25025,0.15857 0.27028,0.28228 0.0661,0.40844 -0.16106,0.0995 -0.29283,0.0421 -0.29283,-0.12753 z m 0.79375,-5.26517 c 0,-0.13326 -0.32743,-0.20529 -0.72761,-0.16007 -0.40018,0.0452 -0.93779,-0.0276 -1.1947,-0.16183 -0.2569,-0.13423 -0.89179,-0.2775 -1.41086,-0.31838 -0.51908,-0.0409 -1.03972,-0.22956 -1.15698,-0.41929 -0.11725,-0.18972 -0.32148,-0.27802 -0.45384,-0.19622 -0.13236,0.0818 -0.41356,0.0394 -0.6249,-0.0943 -0.31056,-0.19646 -0.28277,-0.24986 0.14493,-0.27846 0.29104,-0.0195 0.60869,-0.0245 0.7059,-0.0113 0.0972,0.0132 0.69251,0.0846 1.32291,0.15856 3.66153,0.42957 5.6441,0.85206 5.6441,1.20279 0,0.24737 -0.37316,0.39522 -1.12447,0.44553 -0.61847,0.0414 -1.12448,-0.0337 -1.12448,-0.167 z m 3.96875,-0.0138 c 0,-0.14552 0.12609,-0.26458 0.28019,-0.26458 0.15411,0 0.20662,0.11906 0.11668,0.26458 -0.0899,0.14553 -0.21603,0.26459 -0.2802,0.26459 -0.0642,0 -0.11667,-0.11906 -0.11667,-0.26459 z m -20.44086,-0.6853 c -0.0859,-0.0859 -1.11951,-0.18288 -2.29696,-0.21556 -2.09508,-0.0582 -2.90028,-0.35192 -2.54414,-0.92817 0.20753,-0.33579 1.20487,-0.39147 1.20487,-0.0673 0,0.26481 0.80474,0.23218 1.26329,-0.0512 0.19903,-0.123 0.39374,-0.0312 0.49532,0.23348 0.12798,0.33352 0.37174,0.39782 1.03583,0.27324 0.49326,-0.0925 0.94128,-0.0451 1.037,0.10977 0.0927,0.14999 0.42941,0.28107 0.74824,0.2913 0.5589,0.0179 0.56071,0.0268 0.0505,0.24599 -0.668,0.28705 -0.80088,0.30155 -0.99398,0.10845 z m 1.97317,-0.13561 c 0.14122,-0.42364 1.36015,-0.58569 2.79624,-0.37174 1.64553,0.24514 1.1795,0.53428 -1.00488,0.62346 -1.42549,0.0582 -1.87367,-0.005 -1.79136,-0.25172 z m 4.58836,0.0454 c -0.0837,-0.13546 -0.0312,-0.32108 0.11668,-0.41249 0.14789,-0.0914 0.2689,0.0194 0.2689,0.2463 0,0.46475 -0.15877,0.53318 -0.38558,0.16619 z M 88.4822,160.48107 c -0.0993,-0.0993 -0.63953,-0.14733 -1.20061,-0.10681 -0.94101,0.0679 -1.61164,-0.30721 -1.2305,-0.68835 0.0886,-0.0886 1.54515,-0.19851 3.23683,-0.2443 1.69167,-0.0458 3.49518,-0.19905 4.0078,-0.34059 0.51261,-0.14154 1.04272,-0.18893 1.17801,-0.10532 0.13529,0.0836 1.31892,0.14193 2.63028,0.12959 1.51135,-0.0142 2.71413,0.11537 3.28521,0.35398 0.82635,0.34527 4.03337,0.34574 5.06683,7.5e-4 0.1819,-0.0607 0.33073,0.0119 0.33073,0.16148 0,0.14955 0.11906,0.19831 0.26458,0.10838 0.14552,-0.0899 0.26459,0.009 0.26459,0.21892 0,0.51012 -1.70582,0.7392 -4.23334,0.56852 -1.0914,-0.0737 -3.05593,-0.19294 -4.36562,-0.26497 -1.30969,-0.072 -2.42094,-0.24883 -2.46945,-0.39287 -0.11877,-0.35271 -0.59086,-0.33627 -0.50711,0.0177 0.0421,0.17798 -0.97518,0.32139 -2.79985,0.39469 -1.5763,0.0633 -2.95868,0.17241 -3.07195,0.24242 -0.11328,0.07 -0.28717,0.0461 -0.38643,-0.0532 z m 32.00652,-0.0427 c -0.3517,-0.13773 -0.41372,-0.26084 -0.19844,-0.3939 0.17224,-0.10645 0.42977,-0.12148 0.57228,-0.0334 0.14251,0.0881 0.51359,0.024 0.82462,-0.1425 0.45276,-0.24231 0.64977,-0.21838 0.98821,0.12005 0.27584,0.27585 0.31108,0.42271 0.10142,0.42271 -0.1767,0 -0.32507,-0.14883 -0.3297,-0.33073 -0.005,-0.20198 -0.14524,-0.15048 -0.35989,0.13229 -0.37393,0.49259 -0.77276,0.54885 -1.5985,0.22548 z m -47.14051,-1.45751 c -0.14724,-0.38369 -2.11267,-1.62263 -2.48643,-1.56736 -0.0728,0.0108 -0.44613,0.0932 -0.8297,0.18323 -0.54863,0.12876 -0.72625,0.0534 -0.83258,-0.35322 -0.25174,-0.96263 0.68385,-1.32167 2.52218,-0.9679 0.63551,0.1223 0.99218,0.0915 0.99218,-0.0856 0,-0.15211 -0.14115,-0.27657 -0.31367,-0.27657 -0.17253,0 -0.55948,-0.22849 -0.8599,-0.50774 -0.30042,-0.27926 -0.96294,-0.58184 -1.47226,-0.67241 -0.84094,-0.14953 -0.98282,-0.0801 -1.54385,0.75539 -0.3398,0.50603 -0.75652,0.87158 -0.92605,0.81234 -0.16952,-0.0592 -0.64203,-0.16395 -1.05002,-0.23269 -0.40799,-0.0687 -1.15627,-0.48891 -1.66285,-0.93369 -0.50659,-0.44479 -1.18481,-0.81052 -1.50717,-0.81275 -0.83668,-0.006 -1.35132,-0.40226 -1.16213,-0.89529 0.21569,-0.56206 0.76967,-0.53412 2.09371,0.10559 1.30303,0.62955 1.43683,0.64396 1.43683,0.15467 0,-0.20598 -0.28716,-0.50534 -0.63814,-0.66526 -0.35098,-0.15991 -0.5897,-0.43788 -0.53049,-0.61769 0.1733,-0.52629 1.25046,-0.54246 2.3744,-0.0356 0.82194,0.37064 1.1464,0.40546 1.53237,0.16441 0.4012,-0.25055 0.50621,-0.22374 0.58132,0.14842 0.0849,0.42055 0.10541,0.41927 0.27723,-0.0173 0.13864,-0.35225 0.0139,-0.53674 -0.49311,-0.72952 -0.37327,-0.14192 -1.035,-0.61436 -1.47051,-1.04986 -0.94506,-0.94507 -1.29631,-1.00207 -1.21103,-0.19652 0.0779,0.73596 -0.34938,0.72461 -2.64895,-0.0704 -1.07229,-0.37071 -1.65364,-0.71601 -1.65364,-0.9822 0,-0.33902 0.25146,-0.38456 1.44382,-0.2615 1.2975,0.13391 1.46148,0.0934 1.61816,-0.4003 0.13461,-0.42412 -0.0588,-0.74887 -0.84851,-1.42498 -1.17473,-1.00569 -1.82749,-1.12376 -2.02555,-0.36637 -0.0828,0.3166 -0.3609,0.52917 -0.69232,0.52917 -0.73826,0 -0.73577,-0.90097 0.004,-1.41907 0.65281,-0.45724 0.42276,-1.05715 -0.31553,-0.82283 -0.70417,0.2235 -0.67267,-0.56119 0.0378,-0.94141 0.73936,-0.39569 1.90725,-0.10283 3.86092,0.96819 1.87663,1.02878 2.06237,1.07391 1.64065,0.39863 -0.1854,-0.29686 -0.50263,-0.44273 -0.796,-0.36601 -0.70172,0.1835 -0.64352,-0.8534 0.0762,-1.3575 0.70336,-0.49266 0.49956,-1.38236 -0.2293,-1.00101 -0.66932,0.3502 -2.07783,0.0728 -2.60867,-0.51377 -0.2496,-0.27581 -0.60694,-0.50147 -0.79408,-0.50147 -0.53557,0 -0.68365,-0.46015 -0.33022,-1.02609 0.37634,-0.60262 -0.0645,-1.35516 -0.79392,-1.35516 -0.34969,0 -0.32929,-0.094 0.11735,-0.54062 0.45258,-0.45259 0.65965,-0.49536 1.27162,-0.26269 0.40206,0.15286 0.83185,0.2156 0.95511,0.13942 0.12325,-0.0762 0.29888,-0.0175 0.39028,0.1304 0.0914,0.1479 0.40402,0.2689 0.6947,0.2689 0.51249,0 0.5146,-0.0236 0.0696,-0.77688 -0.25241,-0.42729 -0.73539,-0.84628 -1.0733,-0.93108 -0.37618,-0.0944 -0.61437,-0.35135 -0.61437,-0.66271 0,-0.65438 0.45321,-0.93216 0.90673,-0.55577 0.26635,0.22105 0.39091,0.19894 0.5014,-0.089 0.0809,-0.21071 0.42218,-0.42211 0.7585,-0.46977 0.86072,-0.12199 1.01796,-1.4192 0.20337,-1.67774 -0.63844,-0.20264 -0.95131,0.0213 -1.08755,0.7785 -0.12996,0.72227 -0.59285,0.41763 -0.57444,-0.37806 0.0413,-1.78536 0.22408,-1.94417 1.82266,-1.58363 0.8149,0.18379 1.0722,0.14193 1.34661,-0.21906 0.55835,-0.73454 0.40671,-1.07424 -0.56056,-1.2557 -1.1135,-0.2089 -1.56731,-0.69921 -1.33235,-1.43952 0.0968,-0.30501 0.041,-0.71723 -0.124,-0.91606 -0.16501,-0.19882 -0.26414,-0.69912 -0.22029,-1.11178 0.0686,-0.64547 -0.0219,-0.76198 -0.64789,-0.83401 -0.74689,-0.0859 -0.97751,-0.65664 -0.40766,-1.00883 0.17597,-0.10875 0.81869,-0.16706 1.42826,-0.12957 1.37137,0.0843 1.58476,-0.21559 0.84964,-1.19417 -1.40072,-1.86463 -2.80921,-3.07258 -2.4298,-2.08385 0.21371,0.55691 -0.5934,0.79592 -1.41839,0.42003 -0.54267,-0.24725 -0.75921,-0.24065 -1.02829,0.0314 -0.68471,0.69219 -0.35807,4.44833 0.47354,5.4454 0.34645,0.41538 1.01134,1.76667 1.01134,2.05538 0,0.0659 -0.29765,0.11984 -0.66146,0.11984 -0.3638,0 -0.66313,-0.14882 -0.66519,-0.33072 -0.005,-0.40966 -1.93502,-2.57969 -2.29481,-2.57969 -0.14429,0 -0.39421,0.2894 -0.55537,0.64311 -0.21209,0.46548 -0.60749,0.70564 -1.43153,0.86947 -1.09799,0.21831 -1.1376,0.26056 -1.11279,1.18705 0.0215,0.80425 0.26774,1.19508 1.51193,2.40014 1.35239,1.30985 1.45305,1.48453 1.11801,1.94015 -0.34699,0.47188 -0.46018,0.40448 -1.96633,-1.17091 -1.81613,-1.89963 -2.18189,-2.93017 -1.50473,-4.23965 0.30214,-0.58428 0.71771,-0.89578 1.46267,-1.09637 0.64597,-0.17395 1.10351,-0.47842 1.20649,-0.80286 0.18123,-0.571 1.20241,-0.94144 1.87925,-0.68172 0.3492,0.13401 0.39511,0.0372 0.25225,-0.53205 -0.45545,-1.81462 -0.4129,-3.14546 0.12894,-4.03355 0.49097,-0.8047 0.62526,-0.87121 1.44764,-0.71693 0.63072,0.11833 1.109,0.0374 1.57222,-0.26616 0.58784,-0.38516 0.6838,-0.38921 0.81989,-0.0346 0.0848,0.22091 0.43146,0.47127 0.77043,0.55634 0.35998,0.0904 0.90686,0.65049 1.31492,1.3468 0.38425,0.65566 0.81267,1.19211 0.95206,1.19211 0.13939,0 0.25343,0.16859 0.25343,0.37464 0,0.20606 0.50602,0.77112 1.12448,1.25569 1.35379,1.06072 1.77992,1.53934 2.90644,3.26446 0.75158,1.15096 1.00144,1.34011 1.9222,1.45521 0.925,0.11563 1.06908,0.22594 1.14358,0.87562 0.0614,0.53575 0.2092,0.71608 0.52916,0.64574 0.24416,-0.0537 0.41075,-0.24959 0.37019,-0.43538 -0.0406,-0.18579 0.17031,-0.40162 0.4686,-0.47962 0.42647,-0.11153 0.4777,-0.21971 0.23978,-0.50638 -0.16641,-0.20051 -0.5205,-0.36456 -0.78688,-0.36456 -0.73164,0 -1.85835,-0.58227 -1.75216,-0.90549 0.14857,-0.45221 2.42488,-0.48344 3.46804,-0.0476 1.06853,0.44646 1.25461,1.12421 0.35459,1.29149 -0.32742,0.0609 -0.0306,0.0989 0.65962,0.0845 1.2111,-0.0252 1.54758,-0.21315 0.99403,-0.55526 -0.46417,-0.28688 -0.28552,-0.85147 0.41458,-1.31019 0.44783,-0.29343 0.78578,-0.35927 0.99219,-0.19328 0.17216,0.13846 0.72974,0.33876 1.23906,0.44513 0.50932,0.10637 1.07332,0.31201 1.25333,0.45697 0.1812,0.14593 0.65362,0.17781 1.05834,0.0714 0.67157,-0.17652 0.68799,-0.20969 0.20187,-0.40782 -0.29104,-0.11862 -0.84053,-0.22404 -1.22109,-0.23427 -0.38056,-0.0102 -1.00507,-0.26492 -1.38782,-0.56598 -0.70895,-0.55767 -1.22328,-0.54064 -2.48966,0.0824 -0.83856,0.41257 -1.23763,-0.0419 -0.70481,-0.80258 0.49364,-0.70477 1.9641,-0.78972 3.13149,-0.18093 0.71674,0.37378 1.74585,0.31939 1.74585,-0.0923 0,-0.31814 -1.58549,-0.89789 -2.01002,-0.73498 -0.30462,0.11689 -0.38636,0.006 -0.32332,-0.43756 0.11661,-0.82092 1.03923,-0.8954 2.51257,-0.20285 0.66101,0.31071 1.27627,0.49049 1.36725,0.39952 0.25361,-0.25361 -1.03113,-1.14933 -2.14179,-1.49325 -1.01541,-0.31442 -1.30046,-0.84231 -0.59998,-1.11111 0.21572,-0.0828 0.90033,0.0217 1.52136,0.23213 l 1.12914,0.38264 -1.25677,-1.16331 c -1.35769,-1.25671 -1.55942,-1.73882 -0.72761,-1.73882 0.69756,0 0.67176,-0.39929 -0.0589,-0.91104 -0.74749,-0.52356 -2.32238,-0.55293 -2.32238,-0.0433 0,0.35468 -0.75636,0.81535 -0.97678,0.59492 -0.059,-0.059 -0.0283,-0.42214 0.0683,-0.80695 0.2037,-0.81161 0.8497,-1.22323 2.04509,-1.30313 0.46627,-0.0312 1.00336,-0.15432 1.19353,-0.27369 0.19018,-0.11937 0.63666,-0.14403 0.99219,-0.0548 0.84234,0.21141 0.85932,-0.34934 0.0341,-1.12464 -0.77274,-0.72595 -1.50515,-0.76797 -1.32419,-0.076 0.20313,0.77677 -0.32461,0.88901 -1.41988,0.30198 -0.55075,-0.29519 -1.16859,-0.5367 -1.37298,-0.5367 -0.20439,0 -0.50381,-0.17114 -0.66538,-0.38031 -0.61894,-0.80134 -4.13021,-0.41228 -4.13021,0.45763 0,0.19525 0.35719,1.05343 0.79375,1.90706 0.43657,0.85363 0.79375,1.58979 0.79375,1.63592 0,0.0461 -0.25137,0.0839 -0.55861,0.0839 -0.49618,0 -0.539,0.10454 -0.38313,0.93539 0.36707,1.95668 -0.92142,3.59119 -1.76549,2.23961 -0.75869,-1.21485 -1.00512,-0.26151 -0.26933,1.04193 0.40697,0.72095 0.41499,0.85047 0.0663,1.07006 -0.29703,0.18702 -0.66536,-0.0138 -1.46523,-0.79879 -1.21302,-1.19049 -1.45794,-1.28641 -1.2495,-0.48933 0.1257,0.48067 0.0628,0.53279 -0.44777,0.37076 -0.89128,-0.28288 -2.76694,-2.2503 -2.44873,-2.56852 0.1738,-0.17379 0.44537,-0.16484 0.80282,0.0265 0.87297,0.46721 1.04277,0.34971 1.15215,-0.79726 0.0907,-0.9512 0.0243,-1.11652 -0.53406,-1.32879 -0.49382,-0.18775 -0.71867,-0.13667 -0.99682,0.22646 -0.31361,0.40942 -0.39285,0.41855 -0.62473,0.072 -0.14606,-0.21828 -0.26738,-0.59695 -0.26961,-0.84149 -0.002,-0.25802 -0.2539,-0.48011 -0.59936,-0.52917 -0.48096,-0.0683 -0.61134,-0.27937 -0.67875,-1.09876 -0.0459,-0.55782 -0.29663,-1.3648 -0.55721,-1.7933 -0.63523,-1.04454 -0.43175,-1.84447 0.65933,-2.5921 1.02712,-0.70379 1.08819,-0.67994 2.85205,1.11372 0.56026,0.56973 1.42347,1.14764 1.91823,1.28426 0.49477,0.13661 0.90462,0.39161 0.91077,0.56667 0.006,0.17506 0.43435,0.58832 0.95153,0.91834 l 0.94032,0.60005 -0.18361,-1.33495 c -0.16125,-1.17246 -0.1039,-1.43874 0.4711,-2.18755 1.02898,-1.34 3.13609,-2.23038 5.39853,-2.28121 1.89592,-0.0426 1.90233,-0.0403 2.64584,0.92861 0.40992,0.53423 1.06924,1.34152 1.46515,1.79399 l 0.71985,0.82268 0.008,-0.75376 c 0.0122,-1.18332 0.75453,-2.46987 1.63576,-2.83489 1.00694,-0.41709 3.0866,-0.35227 4.23638,0.13204 1.38164,0.58197 2.64874,1.83706 2.43003,2.407 -0.14613,0.38081 -0.0882,0.44318 0.28025,0.3018 0.25544,-0.098 0.80075,-0.17823 1.21179,-0.17823 0.60218,0 0.72197,-0.097 0.61676,-0.49931 -0.2274,-0.8696 0.38561,-0.86436 0.82031,0.007 0.30104,0.60346 0.33853,0.93089 0.13469,1.1765 -0.43176,0.52024 0.10984,1.29706 1.40086,2.00923 1.35763,0.74891 2.59367,3.03893 2.6305,4.87353 0.0128,0.63527 0.18672,1.29077 0.38659,1.45665 0.40615,0.33707 0.49957,1.55973 0.11919,1.55973 -0.13433,0 -0.59608,-0.35184 -1.02611,-0.78188 -0.43004,-0.43003 -0.85591,-0.70784 -0.9464,-0.61736 -0.29975,0.29975 -0.17081,0.95374 0.28799,1.46071 0.38411,0.42444 0.39545,0.53526 0.075,0.7333 -0.22482,0.13894 -0.50531,0.12721 -0.69353,-0.029 -0.21051,-0.17471 -0.3742,-0.16821 -0.49018,0.0195 -0.0958,0.15496 -0.28691,0.21205 -0.42475,0.12686 -0.13783,-0.0852 -0.19045,-0.25224 -0.11692,-0.37122 0.28627,-0.46318 -0.76588,-0.90659 -2.19692,-0.92584 -1.08872,-0.0147 -1.66325,-0.16213 -2.09533,-0.53786 -0.73664,-0.64058 -0.76187,-0.92326 -0.0661,-0.74132 0.29104,0.0761 0.53295,0.33285 0.53758,0.57054 0.007,0.38066 0.0512,0.37581 0.36714,-0.0408 0.1973,-0.26011 0.46141,-0.44488 0.5869,-0.4106 0.38182,0.10431 1.41879,-0.32656 1.41879,-0.58951 0,-0.13571 -0.17267,-0.24675 -0.38373,-0.24675 -0.21105,0 -0.47894,-0.16121 -0.59531,-0.35825 -0.33862,-0.57335 -1.39595,-1.03228 -1.74985,-0.75952 -0.53623,0.4133 -1.21617,0.57639 -1.3694,0.32848 -0.1626,-0.2631 1.16028,-1.5929 1.58205,-1.59033 0.14701,9e-4 0.58634,0.16809 0.9763,0.37154 0.61524,0.32099 0.72898,0.31791 0.8599,-0.0233 0.22216,-0.57895 0.20029,-0.61448 -0.37829,-0.61448 -0.29104,0 -0.52917,-0.16014 -0.52917,-0.35587 0,-0.19573 -0.23589,-0.56935 -0.5242,-0.83027 -0.43585,-0.39443 -0.59383,-0.41662 -0.93726,-0.13159 -0.5293,0.43928 -0.95166,0.0416 -0.75491,-0.71084 0.20022,-0.76561 1.59199,-0.97707 2.23021,-0.33884 0.52404,0.52404 1.57802,0.92758 1.56525,0.5993 -0.0142,-0.36387 -0.6956,-1.14386 -0.85771,-0.98175 -0.32415,0.32416 -1.27503,-0.2342 -1.65712,-0.97306 -0.22042,-0.42625 -0.5294,-0.775 -0.68662,-0.775 -0.15722,0 -0.5182,-0.29537 -0.80217,-0.65639 -0.28397,-0.36101 -0.59876,-0.63368 -0.69954,-0.60594 -0.10077,0.0277 -0.59994,-0.14614 -1.10926,-0.38643 -1.27566,-0.60182 -3.04004,-1.03226 -3.50301,-0.8546 -0.21158,0.0812 -0.64849,0.67584 -0.97092,1.32145 l -0.58624,1.17383 0.678,0.88891 c 0.3729,0.4889 0.678,0.98736 0.678,1.10768 0,0.43106 0.85045,1.14812 1.20179,1.0133 0.56078,-0.21519 1.91769,0.72329 2.26777,1.56847 0.63561,1.5345 0.0118,5.2193 -0.88364,5.2193 -0.19333,0 -0.62382,-0.19074 -0.95666,-0.42386 -0.69529,-0.487 -0.70207,-0.48341 -0.93708,0.49582 -0.20384,0.84939 0.38177,1.25779 1.03098,0.719 0.3123,-0.25918 0.47542,-0.25861 0.79038,0.003 0.48967,0.40638 0.49897,0.65385 0.0418,1.11104 -0.38065,0.38065 -0.96783,1.39217 -0.96783,1.66726 0,0.092 0.32742,0.12959 0.72761,0.0835 0.65136,-0.075 0.72004,-0.17772 0.65541,-0.98075 l -0.0722,-0.89704 1.4139,0.16618 c 1.33423,0.15681 1.4453,0.12371 1.97105,-0.58741 0.78944,-1.06777 2.42538,-1.31263 3.66232,-0.54817 0.49627,0.30672 0.90232,0.72795 0.90232,0.93606 0,0.30928 0.38196,0.35011 2.09119,0.22354 1.15016,-0.0852 2.49777,-0.0426 2.9947,0.0946 0.95869,0.2647 1.79885,-0.0718 1.60613,-0.64321 -0.0592,-0.17566 0.29565,-0.34673 0.85467,-0.412 0.74699,-0.0872 1.0161,7.4e-4 1.231,0.40228 0.22288,0.41645 0.3198,0.4444 0.51117,0.14741 0.1923,-0.29843 0.27755,-0.30237 0.45918,-0.0212 0.31651,0.48998 3.55407,1.14219 5.66107,1.14045 1.89844,-0.002 2.8264,-0.42194 3.33351,-1.51008 0.40757,-0.87455 -0.0116,-1.2913 -0.96463,-0.95907 -0.91945,0.32053 -1.10924,0.21004 -1.10924,-0.64573 0,-0.5686 0.0847,-0.60459 1.12448,-0.47761 0.61846,0.0755 1.33284,0.20152 1.5875,0.27998 0.56717,0.17476 0.60692,-0.23794 0.0661,-0.68674 -0.21828,-0.18116 -0.39687,-0.67199 -0.39687,-1.09073 0,-0.52591 -0.13275,-0.76136 -0.42927,-0.76136 -0.32618,0 -0.35947,0.0841 -0.13859,0.35026 0.32042,0.38608 -0.07,0.97266 -0.64737,0.97266 -0.72977,0 -0.8284,-1.39595 -0.14681,-2.07755 0.39663,-0.39663 0.82471,-0.47606 2.2456,-0.4167 0.96555,0.0403 1.81733,-0.0266 1.89285,-0.14881 0.0755,-0.12219 -0.2859,-0.48371 -0.80314,-0.80339 -0.90273,-0.55791 -0.96123,-0.56242 -1.45848,-0.11241 -0.72144,0.65289 -1.0547,0.20539 -1.14046,-1.53144 -0.0425,-0.86155 -0.5884,-1.17533 -0.7787,-0.44764 -0.13674,0.5229 -1.24146,0.74205 -1.24146,0.24627 0,-0.32695 -0.2774,-0.33207 -0.77955,-0.0144 -0.21046,0.13316 -0.44931,0.81595 -0.53076,1.51731 -0.11618,1.00031 -0.24757,1.26728 -0.60952,1.23845 -0.55958,-0.0446 -0.56924,0.13654 -0.0443,0.8305 0.28118,0.37173 0.35164,0.84404 0.23684,1.5875 -0.27655,1.79096 -0.37963,1.95857 -1.31202,2.13349 -0.58201,0.10918 -0.84687,0.28729 -0.7608,0.51159 0.24834,0.64716 -0.41601,0.68327 -1.68158,0.0914 -0.69584,-0.32541 -1.36378,-0.56512 -1.48433,-0.53269 -0.12054,0.0324 -0.18007,-0.14196 -0.13229,-0.38754 0.0478,-0.24558 0.46858,-0.57611 0.93511,-0.73451 1.33147,-0.45208 1.55509,-0.82629 0.68784,-1.15105 -0.40828,-0.15289 -0.98045,-0.36815 -1.27149,-0.47837 -0.65296,-0.24726 -0.84885,-0.30321 -1.20903,-0.3453 -0.15564,-0.0182 -0.24493,-0.30097 -0.19843,-0.62839 0.0664,-0.46738 0.27018,-0.60461 0.9484,-0.6386 0.47513,-0.0238 1.03217,0.12503 1.23788,0.33073 0.2057,0.20571 0.54265,0.37401 0.74878,0.37401 0.20612,0 0.58772,0.23532 0.848,0.52293 0.49115,0.54271 0.93169,0.49278 0.93169,-0.10559 0,-0.61703 -1.34172,-1.70761 -2.20368,-1.79119 -0.61394,-0.0595 -0.81934,-0.20048 -0.76564,-0.52539 0.0415,-0.25084 -0.31476,-0.74008 -0.81873,-1.12448 -1.15079,-0.87775 -1.80659,-0.90476 -0.99511,-0.041 0.43776,0.46597 0.53457,0.75771 0.35684,1.0753 -0.21439,0.38309 -0.34728,0.33926 -1.09821,-0.36222 -0.46987,-0.43892 -1.26454,-1.05158 -1.76593,-1.36145 -0.97964,-0.60545 -1.21314,-1.31401 -0.43302,-1.31401 0.26322,0 0.70325,0.16428 0.97784,0.36506 0.35513,0.25968 0.69889,0.29545 1.19093,0.12393 0.48207,-0.16805 0.96545,-0.12602 1.59505,0.13871 0.85502,0.35951 0.93477,0.34594 1.49047,-0.25367 0.35114,-0.37888 0.75266,-0.56999 0.99899,-0.47546 0.22653,0.0869 0.41187,0.0262 0.41187,-0.13484 0,-0.16109 -0.14883,-0.30663 -0.33073,-0.32341 -0.1819,-0.0168 -0.44979,-0.0465 -0.59531,-0.0661 -0.3454,-0.0465 -1.45521,-1.15878 -1.45521,-1.45844 0,-0.1277 -0.18364,-0.38459 -0.40809,-0.57087 -0.3091,-0.25653 -0.48238,-0.26439 -0.71437,-0.0324 -0.47824,0.47824 -1.21099,0.36082 -1.5358,-0.24611 -0.32032,-0.59852 -0.99618,-0.556 -2.43497,0.1532 -0.52683,0.25968 -0.72247,0.27297 -0.70901,0.0482 0.0408,-0.68122 0.43746,-1.31285 1.05326,-1.67723 0.62743,-0.37126 0.61444,-0.37914 -0.4104,-0.24892 -0.65785,0.0836 -1.23377,0.003 -1.52195,-0.21286 -0.61596,-0.46145 -2.21137,-0.26529 -3.12324,0.38402 -0.85603,0.60955 -1.57251,0.67371 -1.57251,0.14082 0,-0.44148 1.22983,-1.47441 1.75547,-1.47441 0.19866,0 0.36119,-0.0893 0.36118,-0.19844 -2e-5,-0.19156 1.05251,-0.18715 3.83647,0.0161 1.51905,0.11089 2.77813,0.56248 2.77813,0.99643 0,0.20979 0.5392,0.24384 1.82175,0.11503 1.21651,-0.12216 1.88097,-0.0871 1.99999,0.10544 0.098,0.15862 0.3966,0.28839 0.66348,0.28839 0.26688,0 0.55378,0.1786 0.63754,0.39688 0.0838,0.21828 0.30486,0.40346 0.49133,0.41151 0.53498,0.0231 1.45129,1.35758 1.7862,2.60135 l 0.30616,1.13699 1.24,-0.12238 c 0.682,-0.0673 1.59226,-0.20418 2.02278,-0.30417 0.43053,-0.1 1.02585,-0.0655 1.32292,0.0766 4.60029,2.20093 4.64118,2.22411 4.64118,2.63171 0,0.19417 0.17859,0.53163 0.39687,0.74991 0.50377,0.50376 0.5123,1.3165 0.0158,1.50702 -0.24124,0.0926 -0.49765,-0.11717 -0.69881,-0.57161 -0.17476,-0.39481 -0.59859,-0.92968 -0.94185,-1.18861 -0.53661,-0.40476 -0.62411,-0.41339 -0.62411,-0.0615 0,0.22507 0.15048,0.40922 0.33441,0.40922 0.18393,0 0.63041,0.48118 0.99219,1.06928 0.36177,0.5881 0.93561,1.25221 1.27518,1.47579 0.33958,0.22358 0.78766,0.81397 0.99574,1.31197 0.44222,1.05839 0.67699,1.12867 1.03609,0.31015 0.17708,-0.40362 0.55936,-0.63872 1.18722,-0.73012 0.86321,-0.12567 0.92131,-0.19429 0.85628,-1.0114 -0.086,-1.08109 0.50575,-2.12763 1.61149,-2.84984 0.62145,-0.40589 1.46695,-0.5925 3.25497,-0.71838 2.32761,-0.16387 2.47434,-0.14063 4.03489,0.63919 0.8907,0.44509 1.61945,0.97083 1.61945,1.16831 0,0.19749 0.45799,0.68827 1.01774,1.09063 1.09053,0.78389 1.6472,1.52523 2.76598,3.68355 0.40839,0.78786 0.39944,0.82766 -0.344,1.52934 -0.41981,0.39624 -0.83385,0.94273 -0.92009,1.21443 -0.17335,0.54619 -0.70926,0.50751 -2.20422,-0.15909 -0.6849,-0.3054 -0.95818,-0.3214 -1.25677,-0.0736 -0.48273,0.40063 -0.48848,0.69284 -0.0136,0.69284 0.67075,0 2.01334,0.67614 2.01334,1.01394 0,0.54341 -0.74643,1.02841 -1.12448,0.73063 -0.44425,-0.3499 -1.66739,-0.6284 -1.87001,-0.42578 -0.0894,0.0894 -1.08938,0.2008 -2.22209,0.24745 -1.13271,0.0467 -3.10738,0.1437 -4.38816,0.21565 -1.87539,0.10536 -2.35732,0.0563 -2.47571,-0.25227 -0.0808,-0.2107 -0.48442,-0.38309 -0.89683,-0.38309 -0.41241,0 -0.81833,-0.11084 -0.90205,-0.2463 -0.22338,-0.36144 0.41462,-0.67104 1.21074,-0.58753 0.43895,0.046 0.75227,-0.0812 0.85426,-0.347 0.12608,-0.32856 0.43525,-0.39232 1.42363,-0.2936 0.69441,0.0694 1.67929,0.25646 2.18861,0.41579 0.87234,0.27289 4.44814,0.40286 4.68086,0.17014 0.0591,-0.0591 0.0274,-0.42591 -0.0703,-0.81521 -0.12548,-0.49998 -0.47888,-0.82835 -1.2035,-1.11828 -0.97711,-0.39097 -1.31307,-0.93802 -0.77884,-1.26819 0.13586,-0.084 0.75628,0.0228 1.37873,0.23725 0.62245,0.21445 1.18797,0.33367 1.25671,0.26493 0.21588,-0.21589 -0.4666,-0.73946 -1.34102,-1.02878 -1.0726,-0.3549 -1.30081,-0.93947 -0.36675,-0.93947 0.67476,0 0.68028,-0.0142 0.2562,-0.66146 -0.26437,-0.40349 -0.68274,-0.66146 -1.07274,-0.66146 -0.35163,0 -0.71094,-0.18662 -0.79847,-0.41472 -0.21227,-0.55315 0.42283,-1.69955 0.94806,-1.71132 0.23007,-0.005 0.70232,-0.1668 1.04944,-0.3592 l 0.63112,-0.34983 -0.68986,-0.17315 c -0.58574,-0.14701 -1.59677,-0.0972 -4.20209,0.20701 -0.53105,0.062 -2.05884,1.35951 -2.05884,1.74851 0,0.41923 0.59356,1.37456 1.42406,2.29203 0.50115,0.55362 0.70306,0.99763 0.58894,1.29504 -0.10106,0.26334 0.008,0.65371 0.26167,0.93362 0.47275,0.52239 0.3116,1.40603 -0.22429,1.2298 -0.18182,-0.0598 -0.58016,-0.55114 -0.88519,-1.09187 -0.53526,-0.94886 -2.0635,-2.01842 -2.88402,-2.01842 -0.44824,0 -0.55096,0.9632 -0.11811,1.10748 0.15385,0.0513 0.20325,0.29253 0.10978,0.53611 -0.13078,0.34082 -0.31084,0.38929 -0.78143,0.21037 -0.58681,-0.2231 -0.60585,-0.19041 -0.47168,0.80996 0.11847,0.88323 0.0302,1.15203 -0.57777,1.76004 l -0.7176,0.71759 -1.1172,-1.19949 c -1.29678,-1.3923 -1.74005,-1.62616 -3.27226,-1.72636 -2.0553,-0.13442 -1.2394,1.07783 1.41831,2.10727 1.74959,0.6777 2.05793,1.3174 0.69818,1.44849 -0.71694,0.0691 -0.90297,-0.0299 -1.11793,-0.59531 -0.25423,-0.66869 -0.89284,-0.90579 -1.18153,-0.43868 -0.0814,0.13176 -1.08366,0.17543 -2.22718,0.097 -1.40179,-0.0961 -2.13929,-0.0452 -2.26382,0.15635 -0.13508,0.21856 -0.37617,0.20551 -0.8973,-0.0486 -0.39192,-0.19109 -1.18871,-0.38092 -1.77065,-0.42185 -0.58194,-0.0409 -1.26901,-0.18731 -1.52682,-0.32529 -0.25782,-0.13798 -0.58827,-0.17701 -0.73433,-0.0867 -0.14606,0.0903 -0.61306,0.0878 -1.03777,-0.005 -0.58396,-0.12826 -0.73111,-0.27816 -0.60366,-0.61492 0.15237,-0.40261 0.12374,-0.40091 -0.29858,0.0177 -0.57095,0.56595 -1.05349,0.58928 -1.48304,0.0717 -0.23377,-0.28167 -0.45844,-0.31977 -0.8019,-0.13595 -0.51763,0.27703 -4.82808,0.41472 -5.22886,0.16703 -0.33344,-0.20609 -3.52388,0.46116 -3.50944,0.73396 0.006,0.11962 1.35534,0.19761 2.99781,0.17331 1.64247,-0.0243 3.19007,0.034 3.43912,0.12957 0.74314,0.28517 0.51429,0.83226 -0.40707,0.97315 -0.74777,0.11434 -9.33198,0.0415 -16.03261,-0.13604 -1.21448,-0.0322 -2.2633,0.0308 -2.33072,0.13994 -0.0674,0.10914 -0.0263,0.21363 0.0915,0.2322 0.11772,0.0186 0.45217,0.0813 0.74321,0.13938 0.29105,0.0581 1.48167,0.22538 2.64584,0.37176 2.72111,0.34215 2.96668,0.37818 4.23333,0.62118 1.73194,0.33226 1.98438,0.43863 1.98438,0.83612 0,0.5102 -2.38988,0.51039 -4.08469,3.3e-4 -0.6921,-0.20829 -1.42691,-0.31403 -1.63292,-0.23498 -0.206,0.079 -0.52186,0.0276 -0.70191,-0.11439 -0.18005,-0.14197 -0.68668,-0.25451 -1.12584,-0.25009 -0.43916,0.004 -1.13199,-0.0757 -1.53962,-0.17798 -0.65661,-0.1648 -0.73151,-0.11983 -0.65672,0.39433 0.0464,0.31919 -0.0644,0.6311 -0.24632,0.69313 -0.18191,0.062 -0.33073,-0.0162 -0.33073,-0.17384 0,-0.15765 -0.11533,-0.28663 -0.25628,-0.28663 -0.14096,0 -0.19886,0.14964 -0.12868,0.33253 0.10194,0.26563 -0.75136,0.27633 -4.24137,0.0532 -4.67184,-0.29872 -5.68386,-0.61028 -4.11927,-1.26814 l 0.8719,-0.3666 -0.758,-0.1449 c -0.98509,-0.18831 -1.10273,-0.0952 -1.31602,1.04177 -0.13797,0.73542 -0.0801,1.00735 0.25433,1.19449 0.56797,0.31784 0.54859,0.8231 -0.0524,1.36701 -0.45777,0.41428 -0.53491,0.38485 -1.3556,-0.51703 -0.6657,-0.73155 -0.92234,-0.87197 -1.09198,-0.59748 -0.15057,0.24362 0.0723,0.65996 0.69414,1.2968 0.84501,0.86536 1.21499,1.8417 0.6979,1.8417 -0.1199,0 -0.80413,-0.41672 -1.52051,-0.92604 -1.24417,-0.88457 -2.23023,-1.19122 -2.23023,-0.69356 0,0.12787 0.34585,0.37574 0.76856,0.55083 1.23421,0.51123 1.30683,2.00976 0.0819,1.68942 -0.32221,-0.0843 -0.58584,-0.2313 -0.58584,-0.32676 0,-0.25331 -1.82978,-1.19814 -1.99683,-1.03109 -0.0779,0.0779 0.16096,0.50115 0.53074,0.94061 0.36979,0.43946 0.67234,0.97174 0.67234,1.18284 0,0.43137 0.8196,1.25959 1.24647,1.25959 0.57303,0 2.50107,2.25104 3.25944,3.8055 0.80157,1.643 0.98523,2.65457 0.53272,2.93423 -0.13916,0.086 -0.19657,0.3035 -0.12757,0.48331 0.069,0.17981 0.0222,1.08163 -0.1039,2.00404 l -0.22936,1.67711 0.81995,-0.15707 c 0.45098,-0.0864 1.4748,-0.33983 2.27516,-0.56322 0.80037,-0.22338 2.16959,-0.46116 3.04271,-0.5284 0.87313,-0.0672 2.27211,-0.19533 3.10886,-0.28465 1.58077,-0.16874 2.01958,0.13347 0.99218,0.68331 -0.29104,0.15576 -0.52916,0.22556 -0.52916,0.1551 0,-0.0704 -0.44649,0.0625 -0.99219,0.29544 -0.5457,0.23294 -1.46844,0.39823 -2.05052,0.36731 -0.58209,-0.0309 -2.33813,0.2189 -3.90232,0.55516 -2.58507,0.55571 -2.84401,0.66522 -2.84427,1.20293 -2e-4,0.40745 0.34968,0.81431 1.12419,1.30729 1.50358,0.95704 2.85771,2.23098 2.67891,2.52029 -0.0796,0.12883 -0.002,0.40611 0.17219,0.61616 0.36823,0.4437 0.13281,1.29994 -0.28621,1.04097 -0.15572,-0.0962 -0.51127,0.0315 -0.79011,0.28382 -0.47197,0.42713 -0.51874,0.42815 -0.67741,0.0147 z m -3.3052,-8.8497 c -0.39103,-0.1344 -0.58966,0.13816 -0.36528,0.50122 0.14226,0.23017 0.24953,0.21762 0.41489,-0.0485 0.13101,-0.21085 0.11054,-0.39764 -0.0496,-0.45268 z m -1.97788,-0.80236 c 0.17283,-0.27965 -0.58553,-0.96933 -0.81431,-0.74055 -0.22045,0.22045 0.0984,0.97515 0.41204,0.97515 0.1415,0 0.32252,-0.10557 0.40227,-0.2346 z m 1.60131,-1.80371 c -0.41118,-0.55242 -0.78867,-1.05599 -0.83887,-1.11905 -0.0502,-0.0631 -0.21085,0.005 -0.357,0.15108 -0.17792,0.17791 0.006,0.64094 0.55677,1.40115 0.58238,0.80395 0.90484,1.05306 1.10459,0.85331 0.19975,-0.19975 0.0639,-0.57531 -0.46549,-1.28649 z m 0.7586,-2.0712 c -0.082,-0.21362 -0.31909,-0.3884 -0.52692,-0.3884 -0.29763,0 -0.31689,0.11395 -0.0907,0.53658 0.31844,0.59501 0.85356,0.46663 0.61763,-0.14818 z m -0.88618,-1.17536 c 0,-0.33219 -1.46781,-1.09662 -1.68624,-0.87818 -0.31639,0.31638 -0.16278,0.62509 0.42947,0.86314 0.80035,0.3217 1.25677,0.32716 1.25677,0.015 z m -4.82318,-2.60288 c 0.0576,-0.17273 -0.0958,-0.39099 -0.34089,-0.48504 -0.53846,-0.20662 -1.04552,0.45704 -0.57665,0.75474 0.39718,0.25217 0.78121,0.13929 0.91754,-0.2697 z m 3.86053,-7.59037 c 0.20288,-0.5287 -0.0695,-1.19063 -0.49,-1.19063 -0.3602,0 -0.72918,1.00343 -0.50334,1.36884 0.22111,0.35778 0.82955,0.24862 0.99334,-0.17821 z m 11.40642,-1.16596 0.78648,-0.0247 -0.59293,-0.4153 c -0.455,-0.31869 -0.93031,-0.37315 -2.04325,-0.23409 -1.35212,0.16893 -1.66908,0.34243 -1.29995,0.71157 0.0827,0.0827 0.64825,0.11365 1.25677,0.0688 0.60852,-0.0449 1.46032,-0.0927 1.89288,-0.10627 z m -3.90084,-0.18452 c -0.0879,-0.0879 -0.31612,-0.0973 -0.50712,-0.0209 -0.21107,0.0845 -0.14837,0.14716 0.15985,0.15985 0.27892,0.0115 0.43519,-0.051 0.34727,-0.13896 z m 14.2875,-2.11666 c -0.0879,-0.0879 -0.31612,-0.0973 -0.50712,-0.0209 -0.21107,0.0845 -0.14837,0.14715 0.15985,0.15985 0.27892,0.0115 0.43519,-0.0511 0.34727,-0.13897 z m 1.79145,-0.10474 c 0.0899,-0.14552 -0.0887,-0.26458 -0.39688,-0.26458 -0.30822,0 -0.48681,0.11906 -0.39687,0.26458 0.0899,0.14553 0.26853,0.26459 0.39687,0.26459 0.12835,0 0.30694,-0.11906 0.39688,-0.26459 z m 0.92604,-0.26458 c 0,-0.14552 -0.0525,-0.26458 -0.11668,-0.26458 -0.0642,0 -0.19026,0.11906 -0.2802,0.26458 -0.0899,0.14552 -0.0374,0.26458 0.11668,0.26458 0.15411,0 0.2802,-0.11906 0.2802,-0.26458 z m 1.76714,-1.67894 c 0.24394,-0.24395 -0.61955,-0.3522 -1.17183,-0.1469 -0.93142,0.34623 -0.73016,0.76924 0.23437,0.49262 0.45633,-0.13087 0.87818,-0.28645 0.93746,-0.34572 z m 9.60994,-0.17314 c 0,-0.14552 -0.11906,-0.26459 -0.26458,-0.26459 -0.14552,0 -0.26458,0.11907 -0.26458,0.26459 0,0.14552 0.11906,0.26458 0.26458,0.26458 0.14552,0 0.26458,-0.11906 0.26458,-0.26458 z m 15.875,-0.51986 c 0,-0.1404 -0.26789,-0.39585 -0.59531,-0.56767 -0.59212,-0.31071 -0.59261,-0.30934 -0.0913,0.25528 0.55994,0.63064 0.68659,0.68827 0.68659,0.31239 z m 7.14375,-0.53848 c 0,-0.14552 -0.0525,-0.26458 -0.11667,-0.26458 -0.0642,0 -0.19027,0.11906 -0.2802,0.26458 -0.0899,0.14553 -0.0374,0.26459 0.11667,0.26459 0.15411,0 0.2802,-0.11906 0.2802,-0.26459 z m -8.959,-0.80255 c -0.34354,-0.2862 -0.74368,-0.52036 -0.8892,-0.52036 -0.14552,0 0.0165,0.23416 0.36004,0.52036 0.34354,0.2862 0.74368,0.52037 0.8892,0.52037 0.14553,0 -0.0165,-0.23417 -0.36004,-0.52037 z m 1.80313,-0.54302 c -0.16244,-0.30351 -0.36219,-0.48498 -0.44389,-0.40327 -0.0817,0.0817 0.002,0.33003 0.18612,0.55183 0.47567,0.57315 0.60433,0.499 0.25777,-0.14856 z m 13.50587,-1.55215 c 0,-0.26567 -0.81472,-0.60908 -1.00161,-0.42219 -0.21063,0.21063 0.50748,0.94824 0.76701,0.78784 0.12903,-0.0797 0.2346,-0.24429 0.2346,-0.36565 z m -46.8353,0.0534 c -0.01,-0.48368 -0.42871,-0.81841 -0.76443,-0.61093 -0.19671,0.12157 -0.27583,0.35341 -0.17584,0.5152 0.20331,0.32897 0.94658,0.40464 0.94027,0.0957 z m 9.26042,0 c -0.002,-0.10914 -0.11947,-0.37703 -0.26053,-0.59531 -0.2074,-0.32093 -0.25726,-0.28296 -0.26054,0.19844 -0.002,0.32742 0.11502,0.59531 0.26054,0.59531 0.14552,0 0.26276,-0.0893 0.26053,-0.19844 z m 20.90613,0.0818 c 0,-0.27926 -0.50776,-0.39659 -0.65879,-0.15222 -0.0914,0.14789 0.0194,0.2689 0.2463,0.2689 0.22687,0 0.41249,-0.0525 0.41249,-0.11668 z m -21.69583,-1.47082 c 0,-0.14552 -0.11906,-0.26459 -0.26458,-0.26459 -0.14552,0 -0.26459,0.11907 -0.26459,0.26459 0,0.14552 0.11907,0.26458 0.26459,0.26458 0.14552,0 0.26458,-0.11906 0.26458,-0.26458 z m -7.68133,-0.59531 c -0.0145,-0.57034 -0.65723,-1.21453 -1.39699,-1.4002 -0.80352,-0.20167 -1.01648,0.31077 -0.24824,0.59733 0.25466,0.095 0.6186,0.38891 0.80875,0.65316 0.3981,0.55321 0.8488,0.63388 0.83648,0.14971 z m 9.05275,-0.52034 c -0.18985,-0.18986 -0.31309,-0.20548 -0.31309,-0.0397 0,0.35316 0.3129,0.66605 0.48948,0.48947 0.0752,-0.0752 -0.004,-0.27759 -0.17639,-0.44979 z m 11.85775,-1.33424 c 0,-0.18328 -0.22754,-0.47533 -0.50564,-0.64901 -0.41438,-0.25878 -0.53538,-0.23827 -0.67042,0.11364 -0.16736,0.43613 0.24433,0.85719 0.84533,0.86455 0.1819,0.002 0.33073,-0.1459 0.33073,-0.32918 z m -36.24792,-0.29992 c 0,-0.37597 -0.76202,-0.8097 -1.00161,-0.5701 -0.1689,0.1689 0.46208,0.93867 0.76942,0.93867 0.12771,0 0.23219,-0.16586 0.23219,-0.36857 z m 10.71562,0.10398 c 0.0899,-0.14552 -0.0291,-0.26458 -0.26458,-0.26458 -0.23546,0 -0.35452,0.11906 -0.26458,0.26458 0.0899,0.14552 0.209,0.26459 0.26458,0.26459 0.0556,0 0.17465,-0.11907 0.26458,-0.26459 z m -14.94895,-0.76506 c 0,-0.12975 0.29765,-0.31061 0.66145,-0.40192 0.36381,-0.0913 0.66146,-0.34234 0.66146,-0.55785 0,-0.4692 -0.56498,-0.51476 -0.99916,-0.0806 -0.23861,0.23861 -0.43008,0.20371 -0.8204,-0.14953 -0.61434,-0.55596 -0.9555,-0.18348 -0.71385,0.77936 0.10375,0.41336 0.35121,0.64642 0.68637,0.64642 0.28827,0 0.52413,-0.10615 0.52413,-0.2359 z m 41.53958,-0.55785 c 0,-0.14553 -0.18562,-0.26459 -0.41249,-0.26459 -0.22687,0 -0.33891,0.11906 -0.24897,0.26459 0.0899,0.14552 0.27556,0.26458 0.41249,0.26458 0.13693,0 0.24897,-0.11906 0.24897,-0.26458 z M 68.30767,116.5481 c -0.18333,-0.70106 -1.58262,-1.2609 -2.09294,-0.83737 -0.5866,0.48683 -0.32405,0.89066 0.69933,1.07567 1.46639,0.26509 1.52273,0.25546 1.39361,-0.2383 z m 9.83015,-0.6437 c 0.87313,-0.0298 1.97445,0.0398 2.4474,0.15469 0.73421,0.17834 0.85868,0.13812 0.85158,-0.27517 -0.013,-0.75732 -1.21275,-1.49565 -2.05845,-1.26679 -0.39125,0.10588 -1.24714,0.20931 -1.90199,0.22984 -1.14861,0.036 -2.64583,0.74721 -2.64583,1.25678 0,0.13538 0.38695,0.1806 0.8599,0.10049 0.47294,-0.0801 1.57427,-0.17003 2.44739,-0.19984 z m 30.12589,-0.0754 c -0.0838,-0.21829 -0.31815,-0.39688 -0.52086,-0.39688 -0.20272,0 -0.36857,-0.15948 -0.36857,-0.35441 0,-0.19492 -0.30326,-0.49258 -0.67391,-0.66145 -0.86556,-0.39438 -0.91359,-0.38866 -0.91359,0.10872 0,0.49967 0.43053,0.94128 1.32292,1.35696 0.92719,0.4319 1.33292,0.41329 1.15401,-0.0529 z m -57.98555,39.3589 c -1.55894,-1.67087 -1.51723,-2.39907 0.18207,-3.17864 0.84235,-0.38643 1.80239,-0.59376 2.74944,-0.59376 1.33151,0 1.46927,-0.0562 1.62118,-0.66146 0.13063,-0.52049 0.33409,-0.66146 0.95472,-0.66146 0.77514,0 1.04445,-0.33988 0.52413,-0.66145 -0.14552,-0.0899 -0.26459,-0.35548 -0.26459,-0.5901 0,-0.23461 -0.16156,-0.61454 -0.35902,-0.84428 -0.56565,-0.65812 -1.01006,-2.61338 -1.11725,-4.91562 -0.1198,-2.57283 0.0287,-3.41174 0.56743,-3.20501 0.32105,0.12319 0.33916,0.0518 0.10013,-0.39483 -0.22823,-0.42644 -0.20074,-0.64585 0.12617,-1.00707 0.22988,-0.25401 0.41796,-0.60799 0.41796,-0.78662 0,-0.17862 0.54166,-0.56437 1.20368,-0.85722 1.3287,-0.58774 2.24075,-0.51051 3.27405,0.27723 0.61944,0.47223 0.67022,0.47263 1.49094,0.0117 0.84563,-0.47496 0.849,-0.47451 0.71047,0.0965 -0.34576,1.42519 -1.47382,1.89844 -2.31352,0.97058 -0.33668,-0.37203 -0.8149,-0.52916 -1.61049,-0.52916 -0.93524,0 -1.21952,0.12625 -1.63831,0.7276 -1.29572,1.86055 -1.46256,4.88003 -0.44929,8.13122 0.38585,1.23804 0.81757,2.32268 0.95937,2.41032 0.1418,0.0876 0.37146,0.45823 0.51035,0.82355 0.21381,0.56235 0.38374,0.64574 1.10816,0.54378 0.4706,-0.0662 1.06299,-0.21045 1.31642,-0.32048 0.63491,-0.27566 0.98183,0.61882 0.37231,0.95993 -0.3062,0.17135 -0.39005,0.44198 -0.27678,0.89329 0.12938,0.51545 0.0608,0.64745 -0.33647,0.64745 -0.27444,0 -0.7636,-0.18534 -1.08702,-0.41188 -0.32342,-0.22653 -0.58986,-0.31583 -0.59209,-0.19843 -0.002,0.11739 -0.10719,0.0506 -0.23325,-0.14835 -0.28519,-0.45017 -1.79452,-0.651 -2.02993,-0.2701 -0.0956,0.15462 -0.0412,0.41362 0.1207,0.57557 0.45971,0.4597 0.35311,1.24715 -0.16857,1.24531 -0.25466,-8.9e-4 -0.79198,-0.17323 -1.19404,-0.38296 -0.87639,-0.45715 -3.26692,-0.37868 -4.08817,0.13419 -0.43991,0.27473 -0.5102,0.4619 -0.31233,0.83163 0.14044,0.26241 0.43349,0.47711 0.65121,0.47711 0.21773,0 0.46746,0.18655 0.55496,0.41457 0.11398,0.29701 0.44838,0.39368 1.17928,0.34091 2.12779,-0.15363 1.81645,0.98765 -0.32399,1.18761 -1.12354,0.10496 -1.24797,0.0465 -2.30002,-1.08111 z m 81.70237,-0.27819 c -0.3638,-0.35192 -0.92935,-0.74335 -1.25677,-0.86986 -0.67961,-0.26257 -0.7847,-1.07946 -0.20118,-1.56374 0.5855,-0.48593 2.66944,-0.58763 3.03423,-0.14809 0.41074,0.49491 -0.10334,0.79324 -1.23552,0.71699 -0.47846,-0.0322 -0.86993,0.0642 -0.86993,0.21429 0,0.15008 0.14883,0.27683 0.33073,0.28167 0.42158,0.0112 1.52136,0.92061 1.52136,1.25798 0,0.66724 -0.68809,0.72485 -1.32292,0.11076 z m 6.32355,-2.21431 c -0.6403,-0.46022 -1.20386,-0.93647 -1.25237,-1.05833 -0.0485,-0.12186 -0.32342,-0.22157 -0.61093,-0.22157 -0.2875,0 -0.45156,-0.11516 -0.36457,-0.25592 0.18668,-0.30204 1.55315,-0.0674 2.50728,0.43056 0.37019,0.1932 0.88144,0.352 1.1361,0.3529 0.33772,0.001 0.46302,0.21644 0.46302,0.79538 0,1.02247 -0.40918,1.0131 -1.87853,-0.043 z m -53.15411,-2.99886 c -0.68,-0.81934 0.0764,-1.01087 4.08945,-1.03553 2.11551,-0.013 3.84659,-0.10184 3.84687,-0.19742 2.7e-4,-0.0956 0.62557,-0.18226 1.38955,-0.19261 0.76399,-0.0104 2.04391,-0.0664 2.84427,-0.12456 1.54364,-0.11217 2.90489,0.21664 2.49225,0.602 -0.13381,0.12495 -1.37438,0.2991 -2.75683,0.38698 -1.38245,0.0879 -2.93026,0.21559 -3.43958,0.28381 -0.50933,0.0682 -2.3548,0.17906 -4.10105,0.24631 -1.74625,0.0673 -3.36428,0.19628 -3.59563,0.28671 -0.23591,0.0922 -0.57374,-0.0201 -0.7693,-0.25569 z m 26.85496,-0.0886 c -0.063,-0.063 -0.76691,-0.0995 -1.56422,-0.0811 -1.29766,0.0299 -2.04843,-0.27585 -1.65163,-0.67265 0.0797,-0.0797 2.02637,-0.17639 4.32598,-0.21491 2.2996,-0.0385 4.8657,-0.15771 5.70245,-0.26488 1.48761,-0.19053 1.73049,-0.0792 1.3015,0.59655 -0.27282,0.42977 -7.73546,1.01565 -8.11408,0.63702 z M 101.8353,149.258 c -0.3543,-0.13358 -0.80943,-0.17946 -1.01141,-0.10196 -0.2427,0.0931 -0.3368,-0.0158 -0.2775,-0.32117 0.0787,-0.40551 0.4618,-0.46586 3.12807,-0.49283 1.6711,-0.0169 3.32768,0.0765 3.68128,0.20752 0.58306,0.21607 0.60441,0.27678 0.22931,0.65188 -0.32837,0.32837 -0.52905,0.35184 -0.97365,0.11389 -0.3622,-0.19384 -0.7236,-0.21278 -1.02306,-0.0536 -0.46429,0.24678 -1.83922,0.2043 -2.10867,-0.0651 -0.079,-0.079 -0.33642,-0.0429 -0.57195,0.0803 -0.23901,0.12503 -0.71288,0.1167 -1.07242,-0.0189 z m -24.2278,-0.22564 c -0.17855,-0.28889 0.12949,-0.44459 1.25362,-0.63364 0.96526,-0.16233 1.20946,0.30305 0.33373,0.63601 -0.88304,0.33573 -1.37885,0.33499 -1.58735,-0.002 z m 63.40313,-3.31641 c -0.78522,-0.34089 -0.84869,-0.43905 -0.53124,-0.82156 0.31933,-0.38476 0.29528,-0.4137 -0.21044,-0.25319 -0.31469,0.0999 -0.64762,0.0572 -0.74174,-0.0951 -0.0939,-0.15197 -0.46114,-0.20344 -0.81602,-0.11437 -0.48121,0.12078 -0.64524,0.055 -0.64524,-0.25857 0,-0.5435 1.26006,-0.86172 1.87975,-0.47472 0.35643,0.2226 0.52533,0.21961 0.66837,-0.0118 0.10527,-0.17033 0.0283,-0.36408 -0.17114,-0.43054 -0.62437,-0.20813 -1.62007,-1.35653 -1.43532,-1.65545 0.12598,-0.20385 0.2586,-0.20322 0.46403,0.002 0.1582,0.1582 0.57772,0.28764 0.93226,0.28764 h 0.64462 l -0.63139,-0.6247 c -0.34727,-0.34359 -0.99398,-0.81029 -1.43714,-1.03713 -0.77768,-0.39806 -0.80527,-0.39243 -0.79199,0.16168 0.008,0.31576 0.11251,0.72815 0.23321,0.91643 0.20696,0.32282 -0.20959,1.11346 -0.5861,1.11243 -0.0913,-2.5e-4 -0.18892,-0.65459 -0.21688,-1.45409 -0.0419,-1.1972 0.0393,-1.5019 0.46032,-1.7272 0.38329,-0.20513 0.67733,-0.1647 1.17532,0.1616 0.85835,0.56241 0.84169,0.26331 -0.0515,-0.92363 -1.42452,-1.8931 -3.30659,-3.19998 -4.60836,-3.19998 -0.61647,0 -0.61591,0.056 0.0108,1.08649 0.27919,0.45908 0.45181,0.98009 0.38362,1.15779 -0.18328,0.47763 -1.37239,0.16267 -1.82489,-0.48337 -0.21409,-0.30565 -0.38925,-0.41753 -0.38925,-0.24861 0,0.16891 -0.30905,0.2847 -0.68677,0.25731 -0.44563,-0.0323 -0.8227,0.15038 -1.07391,0.52035 -0.35637,0.52485 -0.3283,0.62472 0.35325,1.25668 0.40721,0.37759 1.12859,0.87074 1.60307,1.0959 0.47448,0.22516 0.86269,0.51732 0.86269,0.64925 0,0.30968 -6.20961,0.12167 -7.32227,-0.2217 -0.46199,-0.14257 -0.9101,-0.18911 -0.9958,-0.1034 -0.21321,0.21321 -2.55626,0.2741 -3.11436,0.0809 -0.3016,-0.10439 -0.37817,-0.27636 -0.22988,-0.51629 0.25441,-0.41166 4.97641,-0.63321 5.47059,-0.25668 0.15981,0.12177 0.81466,0.19163 1.45521,0.15525 1.00139,-0.0569 1.15184,-0.14019 1.07331,-0.59438 -0.0502,-0.29053 -0.25485,-0.62135 -0.4547,-0.73516 -0.30365,-0.17292 -0.29261,-0.35528 0.0672,-1.10977 0.48728,-1.02183 1.53306,-1.57215 2.51788,-1.32498 0.57791,0.14505 0.68562,0.0648 0.82094,-0.61182 0.23545,-1.17727 1.98941,-1.49655 3.56587,-0.64911 1.07907,0.58008 2.96687,2.17463 2.96687,2.50602 0,0.35521 1.84131,3.08155 2.58031,3.82056 0.53974,0.53973 0.60821,0.81989 0.51405,2.10317 -0.0641,0.87319 -0.25883,1.57333 -0.4748,1.7068 -0.29163,0.18024 -0.2993,0.2932 -0.0377,0.55483 0.79133,0.79134 0.19289,0.95943 -1.22472,0.34399 z m -69.78372,-2.88676 c -0.24975,-0.65083 0.0707,-0.83668 2.07025,-1.20065 1.06163,-0.19324 2.12034,-0.4459 2.35267,-0.56146 0.23234,-0.11555 2.28903,-0.27617 4.57043,-0.35693 2.28141,-0.0808 4.23444,-0.16541 4.34008,-0.18811 0.10563,-0.0227 0.4911,0.0436 0.8566,0.14727 0.40837,0.11586 1.04518,0.0295 1.65203,-0.22406 0.67491,-0.282 1.76276,-0.404 3.43652,-0.38542 1.34695,0.0149 2.98478,-0.0558 3.63962,-0.1573 1.37348,-0.21282 2.34749,-0.21371 3.83646,-0.004 0.58208,0.0822 2.50142,0.14424 4.26519,0.1379 3.17293,-0.0114 4.78613,0.27732 4.46376,0.79891 -0.19706,0.31886 -2.71274,0.28829 -3.35508,-0.0408 -0.24583,-0.12593 -0.50888,-0.12879 -0.58455,-0.006 -0.0757,0.12244 -1.12469,0.18823 -2.33116,0.1462 -4.12155,-0.14358 -8.67575,-0.0587 -8.67604,0.16179 -2.7e-4,0.21686 -6.71974,0.14979 -7.05915,-0.0705 -0.17184,-0.11152 -0.39225,-0.0736 -0.48978,0.0842 -0.0975,0.15781 -0.34389,0.22302 -0.54745,0.14491 -0.20356,-0.0781 -0.37011,-0.04 -0.37011,0.0848 0,0.28078 -1.27899,0.5298 -3.4809,0.67774 -3.20917,0.21562 -4.8569,0.4663 -5.43499,0.82689 -0.34607,0.21585 -0.64446,0.26087 -0.73697,0.11118 -0.0981,-0.15875 -0.40236,-0.15766 -0.82478,0.003 -0.93805,0.35665 -1.42111,0.3173 -1.59265,-0.12973 z m 38.26404,-1.12834 c -1.54166,-0.14235 -2.11667,-0.33223 -2.11667,-0.69898 0,-0.27519 0.91275,-0.34884 4.29948,-0.34691 2.36471,0.001 4.56737,-0.0912 4.89479,-0.20562 0.45073,-0.15754 0.59531,-0.10852 0.59531,0.20183 0,0.55945 -0.85029,0.80062 -3.04271,0.86301 -1.01864,0.029 -1.85208,0.0781 -1.85208,0.10906 0,0.10977 -1.86541,0.16188 -2.77812,0.0776 z"
       id="path2" />
  </g>
</svg>
