<?xml version="1.0" encoding="UTF-8" standalone="no"?>
<!-- Created with Inkscape (http://www.inkscape.org/) -->

<svg
   width="98.99308mm"
   height="42.632549mm"
   viewBox="0 0 98.99308 42.632539"
   version="1.1"
   id="svg1"
   inkscape:version="1.4.1-rc (06eac75fbf, 2025-03-29)"
   sodipodi:docname="forest1.svg"
   xmlns:inkscape="http://www.inkscape.org/namespaces/inkscape"
   xmlns:sodipodi="http://sodipodi.sourceforge.net/DTD/sodipodi-0.dtd"
   xmlns="http://www.w3.org/2000/svg"
   xmlns:svg="http://www.w3.org/2000/svg">
  <sodipodi:namedview
     id="namedview1"
     pagecolor="#ffffff"
     bordercolor="#000000"
     borderopacity="0.25"
     inkscape:showpageshadow="2"
     inkscape:pageopacity="0.0"
     inkscape:pagecheckerboard="0"
     inkscape:deskcolor="#d1d1d1"
     inkscape:document-units="mm"
     inkscape:zoom="0.72248176"
     inkscape:cx="186.85593"
     inkscape:cy="79.586784"
     inkscape:window-width="1850"
     inkscape:window-height="1016"
     inkscape:window-x="0"
     inkscape:window-y="0"
     inkscape:window-maximized="1"
     inkscape:current-layer="layer1" />
  <defs
     id="defs1" />
  <g
     inkscape:label="Layer 1"
     inkscape:groupmode="layer"
     id="layer1"
     transform="translate(-56.091669,-97.896995)">
    <path
       style="fill:#000000"
       d="m 86.085777,140.4957 c -0.0913,-0.0914 -1.45091,-0.16171 -3.02124,-0.15636 -3.30844,0.0113 -8.16509,-0.5172 -8.5817,-0.9338 -0.67451,-0.67451 0.5876,-1.15246 1.60518,-0.60787 0.26072,0.13953 2.04586,0.30903 3.96699,0.37667 3.00076,0.10565 3.44889,0.0699 3.18033,-0.25369 -0.17194,-0.20717 -0.74452,-0.37799 -1.27241,-0.37959 -0.52788,-0.002 -1.41006,-0.0773 -1.9604,-0.16828 -0.93399,-0.15435 -0.97266,-0.19627 -0.58074,-0.62934 0.31305,-0.34592 0.7528,-0.44602 1.72822,-0.39339 0.71959,0.0388 1.30834,-0.0338 1.30834,-0.16149 0,-0.12765 -0.0893,-0.24393 -0.19844,-0.25841 -0.10914,-0.0145 -0.72368,-0.0734 -1.36564,-0.13092 -1.34148,-0.12022 -1.46981,-0.19766 -1.25502,-0.75739 0.0993,-0.25876 0.49078,-0.40828 1.06896,-0.40828 0.50176,0 0.95606,-0.1313 1.00955,-0.29177 0.11213,-0.33639 2.70463,-0.40873 4.3683,-0.12189 l 1.11416,0.1921 -0.14245,-1.72044 c -0.13736,-1.65886 0.14424,-2.8205 0.68373,-2.8205 0.31911,0 0.65267,1.04862 0.5681,1.78593 -0.0376,0.32742 0.0668,0.59532 0.23186,0.59532 0.16509,0 0.27721,-0.20836 0.24916,-0.46303 -0.0826,-0.75039 0.31737,-2.14711 0.70771,-2.47106 0.19889,-0.16506 0.56367,-0.22258 0.81064,-0.12781 0.29934,0.11487 0.64846,-0.0598 1.04737,-0.52404 0.32909,-0.38299 0.70632,-0.62961 0.83828,-0.54805 0.13197,0.0815 0.45115,-0.006 0.70929,-0.19491 0.38193,-0.27928 0.41383,-0.44695 0.17127,-0.90018 -0.16394,-0.30633 -0.29808,-0.77386 -0.29808,-1.03894 0,-0.52467 -1.396,-1.2899 -1.8459,-1.01185 -0.49972,0.30885 -0.27753,0.65536 0.67564,1.05361 0.67211,0.28083 0.91677,0.53108 0.84418,0.86345 -0.0586,0.26835 -0.26483,0.41386 -0.48338,0.34108 -0.20964,-0.0698 -1.03601,-0.13282 -1.83637,-0.14003 -1.13641,-0.0102 -1.43753,-0.0983 -1.37452,-0.40223 0.0444,-0.21403 0.25273,-0.52133 0.46302,-0.68289 0.21028,-0.16156 0.38607,-0.51875 0.39065,-0.79375 0.0167,-1.0055 2.55203,-2.04595 3.35717,-1.37774 0.31936,0.26504 0.36275,0.17109 0.27448,-0.59435 -0.0942,-0.8165 -0.17894,-0.90025 -0.83187,-0.82175 l -0.72702,0.0874 0.43418,-0.83961 c 0.2388,-0.46178 0.39563,-0.87562 0.34852,-0.91963 -0.0471,-0.044 -0.52598,-0.20025 -1.06416,-0.34719 -0.67027,-0.18299 -1.00734,-0.18065 -1.07004,0.007 -0.12782,0.38348 -1.25875,-0.0141 -1.25875,-0.44252 0,-0.7624 0.76644,-1.01207 2.64831,-0.86272 1.06197,0.0843 1.84961,0.0426 1.84961,-0.0978 0,-0.13455 -0.15013,-0.24463 -0.33363,-0.24463 -0.1835,0 -0.62999,-0.36145 -0.99219,-0.80322 -0.3622,-0.44176 -0.93767,-0.98765 -1.27882,-1.21307 -0.58953,-0.38955 -0.61159,-0.38253 -0.44519,0.14175 0.11918,0.37552 0.0596,0.55162 -0.18671,0.55162 -0.52693,0 -0.99654,-0.55377 -0.99846,-1.1774 -0.001,-0.3211 -0.31578,-0.72108 -0.77154,-0.98036 -0.7286,-0.41449 -0.756,-0.49249 -0.51121,-1.45521 0.14226,-0.55948 0.26005,-1.19583 0.26177,-1.41411 0.009,-1.18281 0.29645,-1.85209 0.7947,-1.85209 0.28807,0 0.45018,-0.11906 0.36024,-0.26458 -0.26129,-0.42278 -0.62457,-0.31104 -1.22179,0.37583 l -0.55684,0.64042 -0.91576,-0.51436 c -0.50367,-0.28289 -1.27045,-0.77658 -1.70395,-1.09708 -0.65795,-0.48644 -0.82678,-0.52029 -1.02174,-0.20484 -0.12845,0.20784 -0.18318,0.45938 -0.12163,0.55898 0.0616,0.0996 -0.064,0.32713 -0.27912,0.50563 -0.21508,0.1785 -0.31758,0.44343 -0.22778,0.58873 0.0898,0.1453 0.0229,0.35096 -0.14874,0.45702 -0.72609,0.44875 1.34851,2.65842 2.49591,2.65842 0.52287,0 0.78723,0.55081 0.38399,0.80003 -0.1884,0.11644 -0.60155,0.11323 -0.91812,-0.007 -0.44091,-0.16764 -0.76782,-0.0539 -1.39733,0.48632 -1.06754,0.91606 -1.36696,1.75298 -1.00048,2.79649 0.44987,1.28095 0.63603,1.46748 2.16032,2.16471 0.78669,0.35984 1.43035,0.76983 1.43035,0.91108 0,0.14126 0.29063,0.25683 0.64584,0.25683 0.93678,0 1.09163,0.48525 0.25621,0.80287 -0.59381,0.22577 -0.81628,0.17972 -1.29232,-0.2675 -0.31626,-0.29711 -0.64864,-0.4666 -0.7386,-0.37663 -0.09,0.09 -0.51624,-0.0875 -0.94726,-0.39446 -0.43102,-0.30691 -0.84071,-0.55803 -0.91042,-0.55803 -0.36064,0 -0.36737,1.20769 -0.01,1.75347 0.25694,0.39214 0.3006,0.62778 0.11632,0.62778 -0.40392,0 -0.37427,0.72115 0.0357,0.86859 0.1819,0.0654 0.70006,0.0626 1.15147,-0.006 0.6168,-0.0941 0.8655,-0.009 1.00086,0.34423 0.28444,0.74123 -0.236,1.00801 -1.92593,0.98727 -1.34668,-0.0165 -1.58818,0.0545 -1.70503,0.50132 -0.10061,0.38471 0.0947,0.65678 0.74826,1.04239 0.81224,0.47924 0.86525,0.58855 0.64981,1.33974 -0.19662,0.68561 -0.12854,0.94396 0.42085,1.59687 0.36049,0.42842 0.58509,0.89277 0.49911,1.03188 -0.23547,0.38099 -1.21848,-0.0233 -1.77406,-0.72957 -0.36687,-0.46641 -0.60551,-0.56425 -0.9398,-0.38535 -0.28966,0.15502 -0.74623,0.11443 -1.29145,-0.11482 -0.65238,-0.27431 -1.02268,-0.28694 -1.63508,-0.0558 -0.7864,0.29683 -0.79069,0.30968 -0.64046,1.91838 0.13147,1.40788 0.069,1.74607 -0.47787,2.58762 -0.34601,0.53244 -0.8077,1.04621 -1.02598,1.14171 -0.41685,0.18237 -2.58901,0.64373 -3.04271,0.64626 -2.52448,0.0141 -4.69438,-0.15689 -5.47651,-0.43155 -0.53822,-0.18901 -1.77948,-0.34365 -2.75835,-0.34365 -1.33856,0 -1.83713,-0.10249 -2.01113,-0.41342 -0.3307,-0.59091 -0.73423,-0.51034 -0.73423,0.1466 0,0.45468 -0.12442,0.53623 -0.66146,0.43357 -0.45694,-0.0873 -0.66146,-0.009 -0.66146,0.25314 0,0.78738 -0.92073,0.15436 -2.00578,-1.37901 -0.76957,-1.08753 -1.18025,-1.98466 -1.304,-2.84856 -0.12245,-0.85483 -0.347,-1.3501 -0.69705,-1.53745 -0.55503,-0.29704 -1.03524,-1.27139 -1.18284,-2.39998 -0.12505,-0.95614 0.93199,-1.66148 2.14803,-1.43335 1.15173,0.21607 2.51631,0.91001 2.69254,1.36926 0.16255,0.4236 0.87827,0.50236 0.87827,0.0967 0,-0.585 1.28296,-0.78345 2.17678,-0.33672 1.93585,0.96755 1.85114,0.94819 1.53094,0.3499 -0.32619,-0.60948 -0.15959,-1.06497 0.38952,-1.06497 0.37257,0 1.98818,2.58099 1.98818,3.17617 0,0.41968 1.02078,1.32175 1.49569,1.32175 0.36525,0 0.45672,0.28878 0.36533,1.1534 -0.0297,0.28135 0.0655,0.41932 0.22247,0.32231 0.44429,-0.27459 2.14984,0.56551 2.14984,1.05895 0,0.36131 0.1752,0.41656 0.93167,0.29381 0.51242,-0.0832 1.2924,-0.0254 1.7333,0.12826 0.88894,0.30989 1.26053,0.14606 0.84069,-0.37065 -0.17761,-0.21858 -0.19372,-0.8023 -0.0458,-1.66004 0.12546,-0.7276 0.28294,-2.01901 0.34994,-2.86979 0.067,-0.85079 0.17268,-1.59773 0.23483,-1.65988 0.26479,-0.26479 0.98248,0.26227 0.98248,0.72152 0,0.27547 0.12475,0.50086 0.27722,0.50086 0.32259,0 1.57487,-1.29305 1.57487,-1.62614 0,-0.34979 0.73926,-0.26771 1.60064,0.17773 0.42932,0.22201 0.7806,0.34721 0.7806,0.27821 0,-0.32452 -1.30838,-1.48321 -1.9505,-1.72734 -0.4673,-0.17767 -0.69202,-0.43649 -0.64123,-0.73851 0.0625,-0.37146 -0.12262,-0.47066 -0.92013,-0.49318 -1.15046,-0.0325 -1.37871,-0.18244 -1.15703,-0.76015 0.22355,-0.58257 0.9497,-0.80355 1.50366,-0.45759 0.39465,0.24646 0.49569,0.18581 0.63851,-0.38325 0.1212,-0.48289 0.0339,-0.77899 -0.30544,-1.03637 -0.55137,-0.41815 -0.82368,-0.46277 -2.52564,-0.41379 -1.28646,0.037 -1.54888,-0.18532 -0.87691,-0.74301 0.20893,-0.17339 0.4608,-0.69398 0.55972,-1.15687 0.0989,-0.46289 0.29975,-0.99044 0.44628,-1.17234 0.30886,-0.38341 1.62072,-0.43827 2.26955,-0.0949 0.24509,0.1297 0.92188,0.15407 1.50396,0.0541 1.0206,-0.17521 1.03675,-0.19356 0.45303,-0.51506 -0.33292,-0.18336 -0.83169,-0.26153 -1.10837,-0.17371 -0.33717,0.10701 -0.59255,-0.008 -0.77445,-0.34743 -0.14926,-0.2789 -0.20653,-0.57195 -0.12726,-0.65122 0.25862,-0.25862 -0.74072,-1.51295 -1.20538,-1.51295 -0.72513,0 -1.68231,-1.186 -1.47763,-1.83088 0.11957,-0.37675 0.0432,-0.60374 -0.23961,-0.71227 -0.22832,-0.0876 -0.41512,-0.38039 -0.41512,-0.65062 0,-1.05009 -2.54006,-2.11745 -3.05526,-1.28386 -0.22672,0.36685 0.59677,2.04366 1.18364,2.41017 0.30179,0.18846 0.5487,0.47988 0.5487,0.64759 0,0.49634 -0.83622,0.6687 -1.29503,0.26692 -0.75127,-0.65787 -1.54677,-0.74801 -2.46207,-0.27897 -1.1464,0.58746 -1.21331,0.72345 -1.01122,2.05508 0.17657,1.16346 1.02441,2.28726 1.7256,2.28726 0.62753,0 0.46278,0.80784 -0.29808,1.46163 -0.39332,0.33797 -0.61334,0.72921 -0.50692,0.9014 0.2821,0.45645 2.02828,1.49646 2.85553,1.70072 1.07292,0.26492 0.90266,0.86771 -0.29937,1.05992 -0.7431,0.11882 -1.06723,0.31807 -1.17254,0.72079 -0.18291,0.69945 0.0367,1.29929 0.47563,1.29929 0.18489,0 0.47823,0.17118 0.65188,0.38039 0.25704,0.30971 0.17701,0.44492 -0.43063,0.72761 -1.12604,0.52385 -2.83029,0.45679 -2.94297,-0.11582 -0.0665,-0.33795 0.0809,-0.46302 0.54564,-0.46302 0.90423,0 1.02326,-0.22566 0.57563,-1.09128 -0.34917,-0.67522 -0.34745,-0.82885 0.0155,-1.3828 0.39003,-0.59526 0.36033,-0.67531 -0.66266,-1.78653 -0.84989,-0.92318 -1.03776,-1.29935 -0.91003,-1.82215 0.0885,-0.36235 0.27893,-0.73172 0.42311,-0.82083 0.15298,-0.0945 -0.0294,-0.59145 -0.43797,-1.19327 -0.46443,-0.6841 -0.66424,-1.27621 -0.59353,-1.75887 0.0716,-0.48858 -0.0113,-0.7276 -0.25237,-0.7276 -0.26151,0 -0.19521,-0.28738 0.24426,-1.05869 0.56006,-0.98295 1.35779,-1.46775 3.27138,-1.98806 0.1578,-0.0429 0.30353,-0.51986 0.32383,-1.05989 0.0486,-1.29249 0.4397,-1.7124 1.60448,-1.72261 0.52788,-0.005 1.1909,-0.18322 1.47338,-0.39687 0.65391,-0.4946 1.4656,-0.49494 2.1709,-9.3e-4 0.30431,0.21314 0.63493,0.30589 0.73472,0.2061 0.0998,-0.0998 0.28755,-0.01 0.41724,0.20012 0.1297,0.20985 0.31231,0.30506 0.40579,0.21157 0.32725,-0.32725 -1.01948,-1.79907 -1.64617,-1.79907 -0.43531,0 -0.6117,-0.15259 -0.6117,-0.52917 0,-0.29104 0.14883,-0.53295 0.33073,-0.53758 0.20198,-0.005 0.15048,-0.14524 -0.13229,-0.3599 -0.25466,-0.19331 -0.46302,-0.49787 -0.46302,-0.67678 0,-0.38512 1.05456,-1.31475 1.50574,-1.32735 0.17331,-0.005 0.39027,-0.13042 0.48213,-0.27905 0.2464,-0.39869 -1.43157,-0.21355 -1.77096,0.19539 -0.15494,0.18669 -0.45374,0.33944 -0.66401,0.33944 -0.5606,0 -0.17395,-1.00151 0.6756,-1.74999 0.79819,-0.70321 0.93791,-0.73364 1.64098,-0.35737 0.4404,0.2357 0.51177,0.18465 0.51177,-0.36602 0,-0.4101 -0.18376,-0.68796 -0.51167,-0.77371 -0.33538,-0.0877 -0.57282,-0.45974 -0.68914,-1.07977 -0.25148,-1.3405 -0.68722,-1.6258 -1.6906,-1.10693 -0.67069,0.34682 -0.81276,0.58098 -0.81276,1.33954 0,0.90659 -0.38904,1.19225 -0.93927,0.68965 -0.43699,-0.39916 -1.87795,-0.55153 -2.19715,-0.23232 -0.16675,0.16674 -0.30317,0.20524 -0.30317,0.0856 0,-0.11968 -0.1786,-0.0694 -0.39688,0.11177 -0.21828,0.18116 -0.39687,0.24069 -0.39687,0.13229 0,-0.28669 -0.7799,0.40578 -1.07226,0.95206 -0.17035,0.31831 -0.142,0.57725 0.0893,0.81551 0.18641,0.192 0.60598,0.72901 0.9324,1.19335 0.32641,0.46434 0.83506,0.92092 1.13033,1.01464 0.74089,0.23515 0.53763,0.61729 -0.69378,1.30437 -0.7486,0.41769 -1.07134,0.78582 -1.13117,1.29028 -0.0581,0.48959 0.0385,0.70584 0.31511,0.70584 0.63074,0 0.82072,0.57637 0.31248,0.948 -0.63366,0.46335 -1.08817,0.23016 -1.58273,-0.81204 -0.51778,-1.09114 -0.34398,-1.62438 0.87683,-2.69019 l 0.95578,-0.83443 -0.7276,-0.33252 c -0.40019,-0.18288 -0.72761,-0.47926 -0.72761,-0.65861 0,-0.17935 -0.17202,-0.39211 -0.38228,-0.47279 -0.21025,-0.0807 -0.46009,-0.56151 -0.5552,-1.0685 -0.19488,-1.03876 0.41558,-2.14961 1.33436,-2.4281 1.8658,-0.56556 2.77899,-1.02772 2.78644,-1.41021 0.0117,-0.59844 1.03344,-1.2747 2.47411,-1.63746 1.47569,-0.37158 2.55172,-0.0298 3.0936,0.98274 0.1953,0.36492 0.75117,0.82899 1.23527,1.03126 0.48409,0.20227 1.02483,0.52136 1.20163,0.7091 1.99539,2.11879 3.09957,3.50853 3.09957,3.90117 0,0.26204 0.42782,0.80275 0.95072,1.20158 0.69601,0.53088 0.92116,0.87974 0.8404,1.30218 -0.11804,0.61751 -0.002,0.76854 1.29243,1.68067 0.95754,0.67478 1.74254,0.75226 2.18768,0.2159 0.23835,-0.28719 0.52114,-0.31365 1.23767,-0.11581 0.51081,0.14104 1.19004,0.21645 1.5094,0.16757 0.6176,-0.0945 1.77128,0.87749 1.77128,1.49235 0,0.19296 0.18449,0.50395 0.40998,0.69109 0.40463,0.33581 1.44211,2.38185 1.44211,2.84402 0,0.38501 0.87176,1.05909 1.60683,1.24247 0.80727,0.20139 2.2869,2.88896 1.87396,3.40383 -0.29063,0.36238 -0.0826,2.02381 0.2534,2.02381 0.12901,0 0.23456,-0.11803 0.23456,-0.26228 0,-0.14426 0.34624,-0.59317 0.76942,-0.99759 0.709813,-0.67833 0.741293,-0.78613 0.406253,-1.39136 -0.493913,-0.89225 -0.471323,-1.23036 0.17085,-2.5569 0.66103,-1.36552 1.36428,-1.48301 3.17813,-0.53099 1.01626,0.53339 1.24779,0.56745 1.82535,0.26848 0.79558,-0.41182 1.75842,-0.45122 1.98704,-0.0813 0.0914,0.14789 0.26041,0.21067 0.37556,0.1395 0.32394,-0.20021 2.12966,1.94434 2.18057,2.58972 0.0249,0.31556 0.0579,0.78612 0.0733,1.04567 0.0306,0.51661 1.84375,2.57079 2.26908,2.57079 0.16058,0 0.19774,-0.41753 0.0946,-1.06276 -0.1482,-0.92675 -0.0487,-1.2453 0.7772,-2.48925 0.8257,-1.2436 1.10999,-1.46694 2.21733,-1.74197 2.19623,-0.54547 3.42056,-0.61007 3.803,-0.20066 0.19228,0.20583 0.59403,0.32786 0.89277,0.27118 0.72175,-0.13694 2.56634,1.5141 2.94367,2.63479 0.21427,0.63636 0.48913,0.89704 1.07142,1.01613 0.43077,0.0881 1.05558,0.38867 1.38847,0.66793 0.67733,0.5682 1.47302,1.93544 1.25389,2.15458 -0.0784,0.0784 0.0319,0.39143 0.24507,0.69574 0.21314,0.30431 0.38753,0.9197 0.38753,1.36754 0,0.44783 0.12297,0.93721 0.27326,1.08751 0.15029,0.15029 0.19592,0.4748 0.10139,0.72112 -0.13699,0.357 -0.24924,0.38366 -0.55322,0.13138 -0.20974,-0.17408 0.22088,0.58391 0.95694,1.68442 0.73607,1.10051 1.3383,2.12583 1.3383,2.2785 0,0.46759 -0.53069,0.63693 -0.93763,0.2992 -0.21191,-0.17587 -0.38529,-0.2124 -0.38529,-0.0812 0,0.13122 0.22297,0.39928 0.49548,0.59569 0.51999,0.37479 0.47489,1.34051 -0.0633,1.35562 -0.16493,0.005 -0.0796,0.1753 0.18964,0.37927 0.26923,0.20397 0.41104,0.49784 0.31511,0.65304 -0.22058,0.35691 -0.93692,0.37037 -0.93692,0.0176 0,-0.14553 -0.29765,-0.26459 -0.66145,-0.26459 -0.79529,0 -0.86245,0.40298 -0.1323,0.79375 0.71551,0.38293 0.70315,1.32292 -0.0174,1.32292 -0.30061,0 -0.78964,-0.13009 -1.08674,-0.2891 -0.75149,-0.40218 -1.10175,0.02 -0.76074,0.91691 0.3537,0.9303 -0.15747,1.15887 -1.28625,0.57516 -0.76781,-0.39705 -0.81763,-0.39374 -0.81763,0.0543 0,1.51577 2.16476,2.50325 3.89293,1.7758 0.95403,-0.40159 0.97734,-0.43985 0.48827,-0.80135 -0.48815,-0.36082 -0.47589,-0.37962 0.24754,-0.37962 0.41861,0 1.03668,0.25888 1.37348,0.57529 0.37955,0.35657 0.61237,0.44543 0.61237,0.23372 0,-0.2113 0.20181,-0.28878 0.52916,-0.20318 1.15177,0.3012 0.37199,-1.05768 -1.01958,-1.77675 l -0.88728,-0.4585 0.55655,-0.51851 c 0.30611,-0.28518 0.55656,-0.63294 0.55656,-0.77279 0,-0.13985 0.33735,-0.25428 0.74966,-0.25428 1.14904,0 1.1914,-0.28759 0.1469,-0.99735 -0.82047,-0.55753 -0.90086,-0.69924 -0.57912,-1.02098 0.32175,-0.32174 0.48655,-0.31725 1.18734,0.0323 0.78108,0.38965 1.67022,0.31507 1.67022,-0.14009 0,-0.41526 -0.86407,-1.07856 -1.22474,-0.94016 -0.44281,0.16993 -1.15651,-0.0779 -1.15651,-0.40166 0,-0.12995 0.19348,-0.23627 0.42995,-0.23627 0.34043,0 0.39552,-0.17215 0.26458,-0.82683 -0.0909,-0.45475 -0.16536,-0.99053 -0.16536,-1.19062 0,-0.20009 -0.22841,-0.3638 -0.50759,-0.3638 -0.29636,0 -0.74992,-0.39211 -1.08991,-0.94223 -0.35438,-0.5734 -0.72533,-0.88736 -0.94763,-0.80206 -0.24685,0.0947 -0.36529,-0.0616 -0.36529,-0.48212 0,-0.63091 0.94394,-1.15948 1.12117,-0.62781 0.0584,0.17511 0.42729,0.17098 1.09075,-0.0122 0.55141,-0.15225 1.18852,-0.20546 1.4158,-0.11824 0.27736,0.10643 0.37334,0.036 0.2919,-0.21432 -0.18494,-0.56833 -2.01288,-1.33723 -3.29717,-1.3869 -1.73475,-0.0671 -1.74377,-0.94343 -0.0142,-1.37753 0.78502,-0.19703 3.0959,0.51821 3.0959,0.95822 0,0.13348 0.23812,0.2427 0.52917,0.2427 0.34175,0 0.54088,0.18741 0.56224,0.52916 0.0182,0.29104 0.0628,0.64823 0.0992,0.79375 0.0364,0.14552 0.081,0.36964 0.0992,0.49804 0.0182,0.1284 0.49788,0.69827 1.06598,1.26636 0.61705,0.61706 1.15205,1.47535 1.32882,2.13184 0.18769,0.69702 0.48728,1.15967 0.81918,1.26501 0.29979,0.0952 0.53218,0.4127 0.54415,0.74356 0.0115,0.31762 0.0809,0.42866 0.15434,0.24675 0.23409,-0.58013 0.93881,-0.39388 0.75081,0.19844 -0.12989,0.40927 -0.0475,0.52917 0.36344,0.52917 0.29226,0 0.61092,-0.12871 0.70815,-0.28602 0.10392,-0.16816 0.46472,-0.21127 0.87551,-0.10461 0.38431,0.0998 1.04976,0.23935 1.47878,0.31017 0.63949,0.10556 0.72563,0.0632 0.47805,-0.23513 -0.33905,-0.40852 -0.28211,-1.34105 0.0879,-1.44025 0.13281,-0.0356 0.53118,0.30078 0.88526,0.74751 0.62232,0.78514 0.62726,0.82433 0.14787,1.17486 -0.47739,0.34908 -0.47499,0.36264 0.0644,0.36264 0.3196,0 0.60281,-0.19893 0.65919,-0.46303 0.0752,-0.3522 0.21107,-0.25149 0.56771,0.42076 0.25787,0.48608 0.39332,1.08061 0.30101,1.32119 -0.1459,0.3802 -0.22769,0.35809 -0.62533,-0.16908 -0.62315,-0.82612 -1.47406,-0.5349 -1.23382,0.42227 0.2087,0.83156 -0.25882,1.1633 -1.09958,0.78023 -0.41366,-0.18848 -0.57567,-0.43472 -0.48141,-0.73169 0.19062,-0.60061 -0.44564,-1.08268 -1.74179,-1.3197 -1.05176,-0.19232 -1.07547,-0.17927 -1.51441,0.8339 -0.24525,0.56611 -0.58406,0.97627 -0.75289,0.91149 -0.16884,-0.0648 -0.37099,-0.0538 -0.44923,0.0245 -0.14259,0.14259 0.0693,0.45866 0.97087,1.44821 0.48961,0.53739 0.43502,1.2835 -0.0939,1.2835 -0.15868,0 -0.21733,0.11516 -0.13034,0.25591 0.087,0.14076 0.48097,0.20242 0.87551,0.13702 2.81242,-0.46614 6.13873,-0.59378 7.92724,-0.30418 0.91411,0.14802 1.12448,0.10601 1.12448,-0.22453 0,-0.24076 -0.32603,-0.47183 -0.79925,-0.56647 -1.02361,-0.20472 -1.21042,-0.51772 -0.52722,-0.88335 0.36715,-0.19649 0.83546,-0.20777 1.46054,-0.0352 0.50606,0.13973 0.97483,0.16551 1.04172,0.0573 0.17383,-0.28127 -0.1418,-1.36312 -0.3586,-1.22912 -0.40484,0.2502 -0.86793,-0.33487 -0.69538,-0.87853 0.14176,-0.44664 0.39059,-0.5622 1.21064,-0.5622 0.83772,0 1.00157,-0.0798 0.86965,-0.42358 -0.0894,-0.23296 0.004,-0.5288 0.20674,-0.6574 0.30084,-0.19049 0.28871,-0.23458 -0.0654,-0.23788 -0.23909,-0.002 -0.49921,-0.17213 -0.57804,-0.37756 -0.0788,-0.20542 -0.57202,-0.52852 -1.09599,-0.71799 -0.83939,-0.30353 -0.94369,-0.4397 -0.87717,-1.14513 0.064,-0.67865 -0.0196,-0.80585 -0.54888,-0.83478 -0.34341,-0.0188 -0.71641,-0.18305 -0.8289,-0.36506 -0.21237,-0.34361 -1.9977,-0.42571 -2.91645,-0.13411 -0.28878,0.0917 -0.52506,0.32234 -0.52506,0.51262 0,0.19197 -0.29229,0.34598 -0.65663,0.34598 -0.42474,0 -0.58826,-0.10512 -0.46302,-0.29766 0.10648,-0.16371 0.19361,-0.97255 0.19361,-1.79741 0,-1.68299 0.42899,-2.34052 2.1185,-3.24709 0.86021,-0.46158 1.08243,-0.47911 2.19737,-0.17335 0.68221,0.1871 1.41897,0.36967 1.63725,0.40573 0.21828,0.0361 0.51594,0.40636 0.66146,0.82289 0.32225,0.92241 1.95263,2.63582 2.74842,2.8884 0.36296,0.1152 0.63894,0.47591 0.73621,0.96225 0.0856,0.42789 0.25928,0.84206 0.386,0.92038 0.12673,0.0783 0.23041,0.41845 0.23041,0.75585 0,0.33739 0.16376,0.74935 0.3639,0.91545 0.47781,0.39655 1.0626,2.51311 0.88354,3.19784 -0.0862,0.3298 0.0333,0.66475 0.3091,0.86641 0.84236,0.61579 1.91003,2.77494 1.72895,3.49644 -0.13939,0.55536 -0.32431,0.66876 -1.09053,0.66876 -1.02993,0 -2.45954,-0.72521 -2.45954,-1.24767 0,-0.1869 -0.0893,-0.34894 -0.19844,-0.36007 -0.10914,-0.0111 -0.41329,-0.0611 -0.67589,-0.111 -0.32863,-0.0625 -0.61194,0.19126 -0.9089,0.81399 -0.48107,1.00882 -0.96032,1.12999 -1.74715,0.44173 -0.34054,-0.29788 -0.44889,-0.32651 -0.30378,-0.0803 0.12759,0.21655 -0.12892,0.13037 -0.59068,-0.19843 -1.04816,-0.74636 -2.18974,-0.78163 -2.18974,-0.0677 0,0.7981 -0.41996,0.87583 -1.56789,0.2902 -1.28259,-0.65433 -2.33415,-0.67085 -9.2625,-0.14552 -4.61077,0.3496 -6.72396,0.72318 -8.3519,1.4765 -0.31641,0.14642 -1.22063,0.15231 -2.24896,0.0147 -0.94589,-0.12662 -1.4519,-0.24531 -1.12448,-0.26376 0.33427,-0.0188 0.59531,-0.20537 0.59531,-0.42539 0,-0.52382 -1.27779,-0.82196 -1.88843,-0.44062 -0.99976,0.62437 -1.33196,0.39156 -1.25385,-0.87873 0.04,-0.65011 0.009,-1.24595 -0.0694,-1.32411 -0.31434,-0.31433 -1.8154,0.45373 -1.8154,0.9289 0,0.74448 -0.32267,0.80268 -1.92424,0.34707 -1.16767,-0.33217 -1.50698,-0.55257 -1.63481,-1.06188 -0.0887,-0.35349 -0.0753,-0.78606 0.0299,-0.96127 0.10576,-0.17623 -0.0179,-0.14884 -0.27666,0.0613 -0.49907,0.40523 -0.54032,0.37739 -1.23414,-0.83303 -0.14783,-0.25789 -0.43244,-0.38691 -0.66049,-0.2994 -0.50546,0.19397 -0.24575,1.14005 0.44676,1.62747 0.27016,0.19015 0.49121,0.51917 0.49121,0.73115 0,0.33583 -0.12148,0.33467 -0.94402,-0.009 -0.51921,-0.21694 -1.02522,-0.37709 -1.12448,-0.35589 -0.45972,0.0982 -2.17624,-0.40692 -2.43261,-0.71583 -0.21549,-0.25965 -0.14082,-0.44748 0.30087,-0.75685 0.57073,-0.39975 0.56093,-0.40719 -0.34321,-0.26047 -0.78021,0.12661 -1.08093,0.0191 -1.85972,-0.66465 -0.94496,-0.82969 -1.26975,-0.83499 -1.26975,-0.0207 0,0.24982 -0.24703,0.51881 -0.54896,0.59777 -0.45837,0.11986 -0.50203,0.23125 -0.26458,0.67492 0.44109,0.82419 0.34117,1.84006 -0.21,2.13504 -0.27191,0.14552 -0.56957,0.18939 -0.66146,0.0975 -0.0919,-0.0919 -0.16708,-0.0133 -0.16708,0.17467 0,0.2406 0.24124,0.29351 0.81501,0.17876 0.58502,-0.11701 0.78459,-0.0704 0.7072,0.16536 -0.14655,0.44634 -1.36892,0.56132 -2.05633,0.19343 -0.68834,-0.36839 -3.112333,-0.61285 -4.889843,-0.49314 -0.7276,0.049 -2.30518,0.0705 -3.50573,0.0478 -1.51685,-0.0287 -2.18405,0.0535 -2.18686,0.26949 -0.002,0.1828 -0.11358,0.14736 -0.26996,-0.086 -0.22786,-0.34008 -0.33705,-0.3122 -0.76307,0.19486 -0.66125,0.78704 -1.74767,1.18359 -3.18488,1.16249 -0.68836,-0.0101 -1.35813,0.14457 -1.60897,0.37158 -0.23635,0.21389 -0.50446,0.31415 -0.59581,0.2228 z m 62.915283,-1.95173 c 0.0899,-0.14552 0.0374,-0.26458 -0.11668,-0.26458 -0.15411,0 -0.2802,0.11906 -0.2802,0.26458 0,0.14552 0.0525,0.26459 0.11668,0.26459 0.0642,0 0.19026,-0.11907 0.2802,-0.26459 z m -58.869793,-0.38126 c 0,-0.0642 -0.11906,-0.19026 -0.26459,-0.2802 -0.14552,-0.0899 -0.26458,-0.0374 -0.26458,0.11668 0,0.15411 0.11906,0.2802 0.26458,0.2802 0.14553,0 0.26459,-0.0525 0.26459,-0.11668 z m 64.029163,-0.12901 c 0,-0.38624 -0.81095,-1.09782 -1.06922,-0.9382 -0.12805,0.0791 -0.0325,0.37789 0.21242,0.66389 0.47501,0.55477 0.8568,0.677 0.8568,0.27431 z m -21.43125,-0.28348 c 0,-0.14552 -0.18562,-0.26458 -0.41249,-0.26458 -0.22687,0 -0.3389,0.11906 -0.24897,0.26458 0.0899,0.14552 0.27556,0.26459 0.41249,0.26459 0.13694,0 0.24897,-0.11907 0.24897,-0.26459 z m -48.989733,-0.23314 c 0.25926,-0.16432 0.17003,-0.2604 -0.33073,-0.35613 -0.66198,-0.12655 -0.87565,0.0466 -0.5094,0.41288 0.22963,0.22963 0.40722,0.21763 0.84013,-0.0568 z m 3.74598,0.1044 c 0,-0.0708 -0.41671,-0.30286 -0.92604,-0.51566 -0.50932,-0.21281 -0.92604,-0.49222 -0.92604,-0.62092 0,-0.12869 -0.1819,-0.23398 -0.40422,-0.23398 -0.22233,0 -0.35748,0.12898 -0.30034,0.28663 0.0571,0.15765 -0.003,0.49499 -0.13425,0.74965 -0.21287,0.41389 -0.0827,0.46302 1.22638,0.46302 0.80548,0 1.46451,-0.0579 1.46451,-0.12874 z m 1.85209,-0.12339 c 0,-0.46737 -0.61199,-1.59995 -0.86453,-1.59995 -0.13773,0 -0.17815,0.18833 -0.0898,0.41851 0.0883,0.23019 0.1606,0.64691 0.1606,0.92605 0,0.27913 0.17859,0.50752 0.39687,0.50752 0.21828,0 0.39688,-0.11346 0.39688,-0.25213 z m 46.302083,-0.0125 c 0,-0.14552 -0.17859,-0.26458 -0.39688,-0.26458 -0.48014,0 -0.52843,-0.43891 -0.0661,-0.60112 0.1819,-0.0638 0.017,-0.11839 -0.36637,-0.12127 l -0.6971,-0.005 0.54638,0.62839 c 0.57338,0.65945 0.98011,0.81042 0.98011,0.3638 z m -33.07292,-0.30156 c 0,-0.16586 0.19319,-0.44282 0.4293,-0.61547 0.2654,-0.19406 0.36777,-0.50826 0.26814,-0.82292 -0.13747,-0.43417 -0.36827,-0.49611 -1.56965,-0.42129 -1.3676,0.0852 -1.43855,0.0545 -2.444393,-1.05833 -1.03661,-1.14684 -1.11345,-1.17574 -3.40766,-1.28136 -0.2786,-0.0128 -0.69532,0.16904 -0.92604,0.40413 -0.38476,0.39207 -0.35925,0.41269 0.30812,0.24907 0.65013,-0.15939 0.7276,-0.10656 0.7276,0.49614 0,0.88476 0.34485,1.07396 2.24896,1.23388 1.39676,0.11731 1.59766,0.20486 1.67205,0.72865 0.0507,0.35677 0.268943,0.59531 0.544743,0.59531 0.25311,0 0.69131,0.17481 0.97379,0.38846 0.61883,0.46807 1.17504,0.51717 1.17504,0.10373 z m 18.43699,-1.07097 c -0.0845,-0.21106 -0.14715,-0.14837 -0.15985,0.15986 -0.0115,0.27891 0.0511,0.43518 0.13897,0.34726 0.0879,-0.0879 0.0973,-0.31612 0.0209,-0.50712 z m 12.01663,-0.18573 c -0.7417,-0.57025 -1.81691,-0.46021 -1.32263,0.13537 0.16641,0.2005 0.67493,0.36191 1.13006,0.35867 l 0.82749,-0.006 z m -41.830703,-0.0292 c 0,-0.14552 -0.18562,-0.26458 -0.41249,-0.26458 -0.22687,0 -0.3389,0.11906 -0.24897,0.26458 0.0899,0.14552 0.27556,0.26458 0.41249,0.26458 0.13694,0 0.24897,-0.11906 0.24897,-0.26458 z m 58.817623,-0.12867 c 0.0287,-0.14353 -0.15619,-0.30109 -0.41085,-0.35013 -0.28961,-0.0558 -0.46302,0.074 -0.46302,0.34651 0,0.46032 0.78192,0.46356 0.87387,0.004 z m -30.14015,-0.62338 c 0.0674,-0.24122 0.20478,-0.85529 0.3052,-1.36462 0.3502,-1.77599 1.27822,-2.0756 1.06336,-0.34329 -0.0815,0.65715 -0.033,0.86322 0.15809,0.67209 0.1516,-0.1516 0.27617,-0.55549 0.27683,-0.89753 0.002,-1.02979 -0.56831,-4.20105 -0.85022,-4.7278 -0.17782,-0.33227 -0.17345,-0.54779 0.0135,-0.66331 0.37423,-0.23129 1.04746,0.3607 1.04746,0.92106 0,0.24897 0.0878,0.54045 0.19506,0.64773 0.10728,0.10729 0.19998,0.33549 0.20599,0.50712 0.006,0.17163 0.21244,0.9669 0.45872,1.76727 0.24629,0.80036 0.54916,2.05052 0.67305,2.77812 l 0.22525,1.32292 0.51003,-0.86058 c 0.58444,-0.98615 1.2894,-1.31031 1.84564,-0.84868 0.32205,0.26728 0.38417,0.18374 0.38417,-0.51661 0,-0.4595 -0.19548,-1.1338 -0.4344,-1.49845 -0.34709,-0.52972 -0.37482,-0.79376 -0.13797,-1.3136 0.30235,-0.66359 0.93916,-0.86283 1.23383,-0.38604 0.26305,0.42562 0.66146,0.30459 0.66146,-0.20094 0,-0.7781 -0.88793,-1.15886 -1.57698,-0.67623 -0.44429,0.31119 -0.65805,0.33548 -0.89215,0.10137 -0.2341,-0.2341 -0.1709,-0.55793 0.26381,-1.35154 l 0.57167,-1.04368 -1.0846,-0.72959 c -0.83193,-0.55963 -1.10743,-0.93061 -1.18259,-1.59246 -0.0784,-0.69041 0.0154,-0.90481 0.46948,-1.07278 0.52207,-0.19312 0.53224,-0.23915 0.12716,-0.57533 -0.37543,-0.31158 -0.47577,-0.30946 -0.68107,0.0144 -0.19482,0.30737 -0.35935,0.23286 -0.86209,-0.39042 -0.36369,-0.4509 -0.74917,-0.69126 -0.92968,-0.5797 -0.42486,0.26258 -0.38762,0.68853 0.0602,0.68853 0.35464,0 0.68977,0.53969 0.68977,1.11081 0,0.27332 -0.77779,0.1891 -1.65365,-0.17906 -0.32963,-0.13855 -0.46302,-0.0721 -0.46302,0.23056 0,0.42718 -0.66099,0.59762 -0.87936,0.22675 -0.23099,-0.3923 0.36276,-1.44189 0.8943,-1.58089 0.68719,-0.1797 0.62185,-1.47794 -0.0811,-1.61125 -0.3605,-0.0684 -0.46302,0.0943 -0.46302,0.73465 0,0.72076 -0.061,0.78979 -0.49366,0.55826 -0.48921,-0.26182 -0.75962,-1.3845 -0.93431,-3.87911 -0.14032,-2.00373 -0.66826,-2.13393 -3.33453,-0.82235 -1.54535,0.76019 -1.73404,0.93993 -1.86034,1.77204 -0.16537,1.08956 0.19825,2.86784 0.70757,3.46042 0.19746,0.22974 0.36561,0.5274 0.37366,0.66146 0.0278,0.46362 1.52525,1.43275 2.53928,1.64343 1.59141,0.33065 1.34409,0.97641 -0.38441,1.00372 -1.26049,0.0199 -1.45819,-0.0562 -1.9541,-0.75267 -0.62482,-0.87748 -1.67644,-2.04761 -1.84024,-2.04761 -0.0599,0 -0.0635,0.47625 -0.008,1.05834 0.0568,0.59588 0.24079,1.05833 0.42101,1.05833 0.17604,0 0.51879,0.41672 0.76167,0.92604 0.4194,0.87948 0.97933,1.24874 0.97933,0.64584 0,-0.1541 0.11084,-0.21169 0.2463,-0.12797 0.13547,0.0837 0.31594,0.0395 0.40106,-0.0982 0.36905,-0.59714 2.85501,0.31536 3.00683,1.10368 0.0976,0.50669 -0.84823,0.66956 -1.14065,0.19642 -0.0899,-0.14552 -0.57705,-0.26458 -1.08247,-0.26458 -0.71078,0 -0.96928,0.13486 -1.14111,0.59531 -0.17694,0.47414 -0.0951,0.67944 0.4022,1.00861 0.48229,0.31925 0.55281,0.48486 0.30989,0.72778 -0.24292,0.24292 -0.23992,0.52068 0.0132,1.22062 0.3704,1.02434 0.16624,2.26851 -0.37227,2.26851 -0.19689,0 -0.4872,-0.47984 -0.64512,-1.06631 -0.15792,-0.58648 -0.40096,-0.99597 -0.54008,-0.90999 -0.15962,0.0986 -0.15506,0.33924 0.0123,0.65205 0.39949,0.74645 0.34186,0.80962 -0.62873,0.68923 -0.88449,-0.1097 -0.891,-0.10284 -0.60965,0.64254 0.15641,0.41438 0.3666,0.70261 0.46708,0.64051 0.10048,-0.0621 0.24973,0.14346 0.33167,0.45679 0.12524,0.47892 0.2138,0.5159 0.55581,0.23206 0.23749,-0.1971 0.68358,-0.26818 1.07172,-0.17076 0.52533,0.13185 0.6649,0.0671 0.6649,-0.30846 0,-0.26143 0.18932,-0.74562 0.42071,-1.07598 0.31684,-0.45236 0.50607,-0.52982 0.76644,-0.31373 0.19014,0.15781 0.29084,0.49679 0.22376,0.7533 -0.15076,0.57651 1.1291,1.91942 1.6418,1.72268 0.2017,-0.0774 0.4219,-0.33809 0.48934,-0.57931 z m 1.26443,-9.58314 c -0.69291,-0.27772 -0.64698,-0.86115 0.0789,-1.00185 0.61814,-0.11982 1.72924,0.4782 1.72924,0.93071 0,0.4016 -0.89566,0.43684 -1.8081,0.0711 z m 10.01018,10.07061 c 0,-0.14553 -0.11906,-0.26459 -0.26458,-0.26459 -0.14552,0 -0.26458,0.11906 -0.26458,0.26459 0,0.14552 0.11906,0.26458 0.26458,0.26458 0.14552,0 0.26458,-0.11906 0.26458,-0.26458 z m -61.129473,-0.65484 c 0.47512,-0.29364 0.0674,-0.54091 -1.78332,-1.08146 -1.53933,-0.44962 -1.61825,-0.50865 -1.07136,-0.80134 0.58548,-0.31334 0.5828,-0.32058 -0.32263,-0.87255 -1.25185,-0.76315 -1.70615,-0.74093 -1.18276,0.0579 0.22215,0.33904 0.32478,0.69555 0.22808,0.79225 -0.27494,0.27495 -0.27083,1.87894 0.005,2.07099 0.32537,0.22629 3.71246,0.0902 4.12667,-0.16576 z m 62.981563,-0.13891 c 0,-0.14553 -0.12609,-0.26459 -0.2802,-0.26459 -0.15411,0 -0.20662,0.11906 -0.11668,0.26459 0.0899,0.14552 0.21603,0.26458 0.2802,0.26458 0.0642,0 0.11668,-0.11906 0.11668,-0.26458 z m -67.997923,-0.0999 c 0,-0.0549 -0.17859,-0.24811 -0.39687,-0.42927 -0.32505,-0.26976 -0.39688,-0.25168 -0.39688,0.0999 0,0.2361 0.1786,0.42928 0.39688,0.42928 0.21828,0 0.39687,-0.045 0.39687,-0.0999 z m 70.904283,-0.0985 c -0.0113,-0.55253 -0.50303,-0.92346 -0.96143,-0.72521 -0.45488,0.19672 -0.45678,0.21967 -0.0267,0.32253 0.25466,0.0609 0.46302,0.22108 0.46302,0.35593 0,0.13485 0.11906,0.24519 0.26458,0.24519 0.14552,0 0.26276,-0.0893 0.26053,-0.19844 z m -41.270953,-0.29766 c 0,-0.24821 -1.59241,-0.64552 -1.79106,-0.44687 -0.0655,0.0655 0.28096,0.23416 0.76986,0.37485 0.4889,0.1407 0.91868,0.26655 0.95506,0.27967 0.0364,0.0131 0.0661,-0.0803 0.0661,-0.20765 z M 108.6335,133.0539 c 0.0218,-0.38759 -0.47985,-0.42573 -1.02921,-0.0782 -0.32976,0.20858 -0.31177,0.3268 0.12277,0.80696 0.47911,0.5294 0.5203,0.53426 0.69849,0.0823 0.10415,-0.26416 0.19773,-0.62911 0.20795,-0.81101 z m -45.754323,0.74322 c 0,-0.36706 -0.2598,-0.47274 -1.68739,-0.68642 -1.04,-0.15566 -1.26689,-0.12213 -1.1688,0.17268 0.18422,0.55366 2.85619,1.03427 2.85619,0.51374 z m 41.282633,-0.1571 c 0.27996,-0.33733 0.23966,-0.49676 -0.23805,-0.94181 -0.59577,-0.55505 -0.54546,-1.03337 0.10871,-1.03337 0.20692,0 0.45092,-0.29766 0.54223,-0.66146 0.0913,-0.3638 0.27512,-0.66146 0.40847,-0.66146 0.26438,0 0.77704,1.17783 0.83492,1.91823 0.0441,0.56389 0.41385,0.60771 0.6189,0.0733 0.0823,-0.21432 0.55372,-0.4655 1.04772,-0.55818 0.494,-0.0927 0.82573,-0.28572 0.73719,-0.42898 -0.0886,-0.14327 -0.43113,-0.20885 -0.76129,-0.14574 -0.53464,0.10221 -0.6181,-0.0151 -0.76299,-1.07215 -0.0973,-0.70964 -0.047,-1.32626 0.12493,-1.53346 0.15818,-0.1906 0.21846,-0.45843 0.13394,-0.59518 -0.22679,-0.36695 0.41337,-1.45905 1.30812,-2.23165 l 0.78437,-0.67728 -0.72761,-0.27834 c -0.40018,-0.15309 -0.7276,-0.43337 -0.7276,-0.62285 0,-0.4705 -1.67728,-1.9128 -1.79918,-1.54711 -0.15873,0.4762 -0.79843,0.33061 -0.9737,-0.2216 -0.0895,-0.28194 -0.0163,-0.74701 0.16259,-1.03349 0.25987,-0.41611 0.45295,-0.47233 0.95999,-0.27956 0.60423,0.22973 0.62601,0.20174 0.45366,-0.58296 -0.22352,-1.01768 -0.88636,-1.82471 -1.49869,-1.82471 -0.49175,0 -0.95203,-0.66432 -1.09094,-1.57456 -0.13229,-0.86682 -1.11939,-1.41753 -2.18312,-1.21797 -0.71069,0.13333 -0.90942,0.29833 -0.90815,0.754 0.002,0.72216 0.69935,2.09787 1.20755,2.38228 0.70871,0.39661 0.39545,0.9088 -0.65894,1.0774 -0.87508,0.13993 -1.06376,0.28654 -1.20677,0.93768 -0.306273,1.39442 0.0805,2.52268 1.04234,3.04067 0.6454,0.34757 0.83951,0.6051 0.74075,0.98275 -0.0842,0.32208 -0.29328,0.46414 -0.56405,0.38328 -0.56983,-0.17017 -1.685563,0.77536 -1.575433,1.33511 0.0478,0.24288 0.325003,0.57343 0.616053,0.73455 0.7685,0.42543 0.92171,0.73269 0.63368,1.27087 -0.2924,0.54637 -1.176883,0.63876 -1.402943,0.14655 -0.0836,-0.1819 -0.0828,-0.0545 0.002,0.28315 0.11657,0.46597 0.0258,0.64729 -0.37684,0.75258 -0.46584,0.12182 -0.49669,0.23548 -0.25334,0.93356 0.2343,0.67211 0.38404,0.77366 0.96972,0.65768 0.740113,-0.14657 2.046033,0.66591 1.775063,1.10436 -0.22393,0.36231 -1.37235,0.51674 -1.850963,0.2489 -0.62149,-0.3478 -0.51335,0.026 0.17322,0.59876 0.777583,0.64869 3.664153,0.72348 4.174813,0.10817 z M 91.944427,133.0998 c 0.26889,-0.59014 0.42095,-0.65746 1.13216,-0.50126 0.63833,0.14021 0.78509,0.10047 0.65807,-0.17819 -0.0899,-0.19725 -0.23317,-0.55249 -0.31835,-0.78941 -0.21929,-0.60987 -1.20243,-0.99428 -2.11261,-0.82603 -1.09336,0.20211 -1.5785,1.11652 -1.26339,2.38128 0.21949,0.88096 1.48962,0.82334 1.90412,-0.0864 z m 59.176253,-1.05773 c -0.52039,-0.68227 -0.79209,-0.86334 -0.93893,-0.62575 -0.11768,0.19042 -0.0461,0.49484 0.16624,0.7072 0.20507,0.20507 0.37286,0.47469 0.37286,0.59915 0,0.22141 0.82542,0.50685 1.02908,0.35587 0.0567,-0.042 -0.22649,-0.50842 -0.62925,-1.03647 z m -23.154,0.6811 c 0,-0.14552 -0.12609,-0.26458 -0.28019,-0.26458 -0.15411,0 -0.20662,0.11906 -0.11668,0.26458 0.0899,0.14552 0.21602,0.26458 0.2802,0.26458 0.0642,0 0.11667,-0.11906 0.11667,-0.26458 z m -17.54893,-1.38547 c 0.0732,-0.55168 0.0514,-0.5624 -0.27694,-0.13589 -0.19603,0.25467 -0.57441,0.46303 -0.84084,0.46303 -0.45594,0 -0.45422,0.0223 0.0292,0.37906 0.58996,0.43543 0.96978,0.18904 1.08861,-0.7062 z m 26.28018,0.8563 c 0,-0.14552 -0.11203,-0.26458 -0.24897,-0.26458 -0.13693,0 -0.32255,0.11906 -0.41249,0.26458 -0.0899,0.14552 0.0221,0.26459 0.24897,0.26459 0.22687,0 0.41249,-0.11907 0.41249,-0.26459 z m -41.539583,-0.26458 c 0,-0.14552 -0.11203,-0.26458 -0.24897,-0.26458 -0.13693,0 -0.32255,0.11906 -0.41249,0.26458 -0.0899,0.14552 0.0221,0.26458 0.24897,0.26458 0.22687,0 0.41249,-0.11906 0.41249,-0.26458 z m 1.68527,-0.008 c -0.18054,-0.18054 -0.48892,-0.1862 -0.91281,-0.0168 -0.60152,0.24043 -0.58506,0.25689 0.27265,0.27265 0.62654,0.0115 0.8273,-0.0687 0.64016,-0.25588 z m -36.0811,-0.10861 c 0,-0.27926 -0.50777,-0.39658 -0.6588,-0.15222 -0.0914,0.14789 0.0194,0.2689 0.24631,0.2689 0.22686,0 0.41249,-0.0525 0.41249,-0.11668 z m 51.858333,-0.64876 c 0,-0.27548 -0.18478,-0.57177 -0.41062,-0.65843 -0.22584,-0.0867 -0.36326,-0.0696 -0.30538,0.0378 0.0579,0.10747 0.17939,0.40376 0.27003,0.65842 0.21693,0.60955 0.44597,0.59012 0.44597,-0.0378 z m 22.35729,-0.29289 c -0.0899,-0.14553 -0.32806,-0.26459 -0.52917,-0.26459 -0.2011,0 -0.43922,0.11906 -0.52916,0.26459 -0.0931,0.15065 0.13475,0.26458 0.52916,0.26458 0.39442,0 0.62228,-0.11393 0.52917,-0.26458 z m -70.393933,-0.35337 c 0.45484,-0.33258 0.43596,-0.38703 -0.321,-0.92604 -1.14519,-0.81544 -1.52529,-0.74121 -1.47054,0.2872 0.0252,0.47295 0.0549,0.88968 0.0661,0.92606 0.067,0.21765 1.32026,0.009 1.72539,-0.28722 z m 85.607473,0.24938 c 0,-0.0572 -0.18477,-0.17489 -0.41061,-0.26155 -0.23546,-0.0904 -0.34167,-0.046 -0.24897,0.10398 0.15538,0.25141 0.65958,0.37186 0.65958,0.15757 z m -89.221673,-0.54448 c 0.40538,-0.40538 -2.04661,-2.09253 -3.3796,-2.32541 -0.51374,-0.0898 -0.39234,1.39185 0.14851,1.81242 0.20777,0.16156 0.37776,0.42502 0.37776,0.58546 0,0.26299 2.58349,0.19737 2.85333,-0.0725 z m 72.817513,-0.1609 c 0,-0.13693 -0.1786,-0.24897 -0.39688,-0.24897 -0.40915,0 -0.52565,0.3122 -0.22768,0.61017 0.21139,0.21138 0.62456,-0.0276 0.62456,-0.3612 z m -24.60625,0.0603 c 0,-0.33453 -1.29442,-0.95515 -1.52054,-0.72903 -0.10913,0.10914 0.0325,0.36728 0.31475,0.57367 0.56723,0.41476 1.20579,0.49704 1.20579,0.15536 z M 81.929177,129.8128 c 0,-0.14552 -0.18562,-0.26458 -0.41249,-0.26458 -0.22686,0 -0.3389,0.11906 -0.24896,0.26458 0.0899,0.14552 0.27555,0.26459 0.41249,0.26459 0.13693,0 0.24896,-0.11907 0.24896,-0.26459 z m 13.32485,-0.13229 c -0.16102,-0.41962 -0.62485,-0.55056 -0.62485,-0.17639 0,0.2798 0.28922,0.57327 0.56496,0.57327 0.1167,0 0.14365,-0.1786 0.0599,-0.39688 z m 17.890683,-0.27098 c -0.18408,-0.22179 -0.38917,-0.34878 -0.45577,-0.28218 -0.18348,0.18348 0.18933,0.68545 0.50909,0.68545 0.17544,0 0.15537,-0.15181 -0.0533,-0.40327 z m -30.818653,-0.39048 c -0.0899,-0.14552 -0.28258,-0.26458 -0.42811,-0.26458 -0.14552,0 -0.19099,0.11906 -0.10106,0.26458 0.0899,0.14552 0.28259,0.26459 0.42811,0.26459 0.14552,0 0.191,-0.11907 0.10106,-0.26459 z m 51.160763,-0.56527 c -0.39707,-0.39708 -0.62535,-0.4666 -0.83701,-0.25494 -0.21167,0.21167 -0.16611,0.29105 0.16705,0.29105 0.25195,0 0.52637,0.17791 0.60981,0.39535 0.0834,0.21745 0.25396,0.33217 0.37892,0.25493 0.12497,-0.0772 -0.0185,-0.38611 -0.31877,-0.68639 z m 16.52576,0.26858 c -0.33251,-0.33251 -0.69456,-0.4789 -0.88829,-0.35917 -0.23194,0.14335 -0.14355,0.3038 0.30404,0.5519 0.94872,0.52587 1.21501,0.43803 0.58425,-0.19273 z m -1.66767,-0.35837 c -0.18408,-0.2218 -0.45762,-0.40327 -0.60788,-0.40327 -0.15026,0 -0.057,0.23885 0.20716,0.53079 0.54718,0.60462 0.91199,0.48853 0.40072,-0.12752 z m -38.4607,-0.0191 c 0.17879,-0.46592 -0.65952,-1.22481 -1.15897,-1.04916 -0.17805,0.0626 -0.42928,-0.0747 -0.55828,-0.30527 -0.19137,-0.34195 -0.26811,-0.28546 -0.41675,0.30679 -0.10021,0.39926 -0.14664,0.748 -0.10317,0.775 0.37325,0.23181 1.46908,0.64996 1.74097,0.66432 0.18647,0.01 0.40976,-0.1664 0.4962,-0.39168 z m 21.80648,-0.19234 c -0.0327,-0.31636 -0.39562,-0.25509 -0.50932,0.086 -0.0582,0.17463 0.037,0.26988 0.21167,0.21167 0.17462,-0.0582 0.30857,-0.19216 0.29765,-0.29766 z m -18.27609,-0.5887 c 0,-0.21828 -0.11906,-0.39687 -0.26458,-0.39687 -0.14552,0 -0.26459,0.17859 -0.26459,0.39687 0,0.21829 0.11907,0.39688 0.26459,0.39688 0.14552,0 0.26458,-0.17859 0.26458,-0.39688 z m 18.38854,-0.66145 c -0.0899,-0.14553 -0.27556,-0.26459 -0.41249,-0.26459 -0.13693,0 -0.24897,0.11906 -0.24897,0.26459 0,0.14552 0.18562,0.26458 0.41249,0.26458 0.22687,0 0.33891,-0.11906 0.24897,-0.26458 z m 13.49375,-0.10774 c 1.25241,-0.0145 2.11667,-0.13523 2.11667,-0.29561 0,-0.8993 -2.34123,-2.67074 -2.73093,-2.06629 -0.0987,0.15311 -0.65574,0.43907 -1.23782,0.63545 -1.43955,0.48567 -1.71979,0.73019 -1.71979,1.50055 0,0.59314 0.0736,0.63919 0.7276,0.45519 0.40018,-0.1126 1.6801,-0.21578 2.84427,-0.22929 z m -63.812473,-1.42685 c 0.40024,-0.44226 0.39222,-0.50947 -0.11244,-0.94158 -0.75574,-0.64708 -1.93131,-0.47811 -2.04087,0.29335 -0.0465,0.32743 0.0428,0.6102 0.19843,0.62839 0.68027,0.0795 0.77864,0.1098 0.9665,0.29765 0.30278,0.3028 0.51758,0.24242 0.98838,-0.27781 z m 13.76403,0.14552 c 0.10434,-0.25713 0.1902,-0.25084 0.38585,0.0283 0.14585,0.20805 0.31762,0.25225 0.40854,0.10513 0.0863,-0.13962 -6.7e-4,-0.46934 -0.19325,-0.7327 -0.43837,-0.59952 -1.22041,-0.34796 -1.22041,0.39258 0,0.59234 0.4076,0.72841 0.61927,0.20674 z m 4.5345,-0.71853 c 0.0868,-0.14053 -0.10351,-0.7656 -0.42303,-1.38906 -0.31951,-0.62345 -0.63293,-0.98072 -0.69647,-0.79393 -0.0635,0.1868 0.0282,0.51281 0.20385,0.72448 0.43693,0.52647 -0.28777,0.80606 -1.04244,0.40217 -0.75527,-0.40421 -0.6888,-0.16133 0.17506,0.63969 0.74478,0.6906 1.50407,0.86803 1.78303,0.41665 z m 13.102483,-1.86115 c 0,-0.14553 -0.12609,-0.26459 -0.28019,-0.26459 -0.15411,0 -0.20662,0.11906 -0.11668,0.26459 0.0899,0.14552 0.21602,0.26458 0.2802,0.26458 0.0642,0 0.11667,-0.11906 0.11667,-0.26458 z m -2.28557,-0.92605 c -0.16102,-0.41962 -0.62484,-0.55055 -0.62484,-0.17638 0,0.2798 0.28921,0.57326 0.56496,0.57326 0.1167,0 0.14365,-0.17859 0.0599,-0.39688 z m -31.956723,-0.89168 c -0.0902,-0.14599 -0.51887,-0.44244 -0.95254,-0.65878 -0.73797,-0.36815 -0.78849,-0.36075 -0.78849,0.11553 0,0.27989 0.1786,0.52378 0.39688,0.54197 0.74713,0.0623 0.8822,0.0995 1.08038,0.29765 0.26635,0.26635 0.47007,0.0374 0.26377,-0.29637 z m 45.354793,0.23023 c 0,-0.14552 -0.24515,-0.26459 -0.54478,-0.26459 -0.29963,0 -0.47119,0.11907 -0.38126,0.26459 0.0899,0.14552 0.33509,0.26458 0.54478,0.26458 0.2097,0 0.38126,-0.11906 0.38126,-0.26458 z m -43.211213,-0.38867 c -0.1528,-0.46516 -1.23878,-0.49108 -1.23878,-0.0296 0,0.27846 0.21562,0.39446 0.6642,0.35734 0.36531,-0.0302 0.62386,-0.17773 0.57458,-0.32777 z m 16.22371,0.0134 c 0,-0.27267 -1.87071,-1.23192 -2.11184,-1.08289 -0.53974,0.33357 -0.24489,0.63879 0.85507,0.88511 0.61847,0.1385 1.15425,0.26457 1.19063,0.28016 0.0364,0.0156 0.0661,-0.0215 0.0661,-0.0824 z m 12.038553,-0.15387 c -0.0899,-0.14552 -0.30533,-0.26276 -0.47864,-0.26053 -0.18934,0.002 -0.15671,0.10642 0.0818,0.26053 0.5083,0.32849 0.59989,0.32849 0.39688,0 z m 11.09042,-1.41734 c -0.17011,-0.44329 -0.63938,-0.60702 -0.63938,-0.22308 0,0.25741 0.59027,0.87376 0.71619,0.74784 0.0495,-0.0495 0.0149,-0.28565 -0.0768,-0.52476 z m -12.47684,-0.40464 c 0.0829,-0.31681 -0.18014,-0.84824 -0.72013,-1.45521 -0.97445,-1.09531 -1.61796,-1.30298 -1.11811,-0.36083 0.30428,0.57351 1.55008,2.3151 1.65605,2.3151 0.0284,0 0.11041,-0.22458 0.18219,-0.49906 z m -25.377103,-2.67594 c 0.36734,-0.43656 0.79091,-0.79375 0.94126,-0.79375 0.15034,0 0.20346,-0.18214 0.11804,-0.40476 -0.0967,-0.25205 -0.33961,-0.34627 -0.64378,-0.24973 -0.2865,0.0909 -0.79757,-0.0735 -1.2361,-0.39773 -0.93572,-0.6918 -2.25853,-0.83294 -2.37949,-0.25387 -0.0475,0.22754 0.2157,0.73969 0.58494,1.13811 0.36925,0.39843 0.67136,0.81353 0.67136,0.92245 0,0.30938 0.60059,0.83303 0.95543,0.83303 0.17624,0 0.621,-0.35718 0.98834,-0.79375 z m 13.26977,0.12539 c -1.26273,-0.77773 -1.64086,-0.8402 -0.95912,-0.15846 0.54674,0.54674 1.01756,0.77849 1.62057,0.79768 0.21829,0.007 -0.0794,-0.2807 -0.66145,-0.63922 z m -4.52706,-0.76265 c -0.11111,-0.28491 -1.33179,-0.95024 -1.7434,-0.95024 -0.25054,0 -0.28585,0.89613 -0.0448,1.13717 0.29032,0.29032 1.90837,0.12117 1.78821,-0.18693 z m 0.95518,-1.0689 c 0,-0.24407 -1.21243,-1.39985 -1.78594,-1.70248 -0.48661,-0.25678 -0.59531,-0.24488 -0.59531,0.0652 0,0.20862 0.50602,0.68441 1.12448,1.05731 1.22734,0.74002 1.25677,0.75361 1.25677,0.57999 z m -10.45104,-1.998 c -0.0899,-0.14552 -0.27556,-0.26459 -0.41249,-0.26459 -0.13693,0 -0.24897,0.11907 -0.24897,0.26459 0,0.14552 0.18562,0.26458 0.41249,0.26458 0.22687,0 0.33891,-0.11906 0.24897,-0.26458 z m -4.36562,-1.15978 c 0,-0.38121 -1.27364,-0.75399 -1.69222,-0.49529 -0.32189,0.19894 0.61141,0.86132 1.21363,0.86132 0.26323,0 0.47859,-0.16472 0.47859,-0.36603 z m 3.85203,-1.62676 c -0.65441,-0.49498 -0.94161,-0.49241 -0.94161,0.008 0,0.25861 0.2535,0.39394 0.7276,0.38846 0.69692,-0.008 0.70595,-0.0248 0.21401,-0.39687 z m 3.02713,-0.76972 c 0,-0.0642 -0.11906,-0.19027 -0.26458,-0.2802 -0.14552,-0.0899 -0.26459,-0.0374 -0.26459,0.11667 0,0.15411 0.11907,0.2802 0.26459,0.2802 0.14552,0 0.26458,-0.0525 0.26458,-0.11667 z m -4.23332,-1.67177 c 0,-0.11051 -0.23813,-0.34965 -0.52917,-0.5314 -0.57934,-0.36181 -0.71751,-0.091 -0.21167,0.41484 0.35838,0.35838 0.74084,0.41855 0.74084,0.11656 z m -0.52917,-2.0324 c 0,-0.0642 -0.11906,-0.19026 -0.26458,-0.2802 -0.14552,-0.0899 -0.26459,-0.0374 -0.26459,0.11668 0,0.15411 0.11907,0.2802 0.26459,0.2802 0.14552,0 0.26458,-0.0525 0.26458,-0.11668 z m 1.0881,-1.54689 c -0.21608,-0.21608 -0.29435,-0.18647 -0.29435,0.11134 0,0.52596 0.35579,0.88174 0.48728,0.48728 0.0558,-0.16735 -0.031,-0.43673 -0.19293,-0.59862 z m -6.70492,-3.84325 c 0.0644,-0.19335 -0.0565,-0.25248 -0.31419,-0.1536 -0.23045,0.0884 -0.41899,0.27703 -0.41899,0.41911 0,0.34776 0.60134,0.12999 0.73318,-0.26551 z m 42.129313,39.46082 c -1.97202,-0.19711 -2.67774,-0.38844 -2.5739,-0.69783 0.0582,-0.17355 0.27426,-0.3187 0.48001,-0.32254 0.20575,-0.004 0.52047,-0.0987 0.69936,-0.21068 0.17889,-0.11202 0.55802,-0.0791 0.8425,0.0731 0.28448,0.15225 0.76319,0.27682 1.0638,0.27682 0.37017,0 0.54656,0.17078 0.54656,0.52917 0,0.29104 -0.0298,0.51011 -0.0661,0.48682 -0.0364,-0.0233 -0.48287,-0.084 -0.99219,-0.1349 z m -7.99739,-2.35209 c -0.12447,-0.12447 -0.78539,-0.24098 -1.99063,-0.35091 -0.1819,-0.0166 -0.33073,-0.2683 -0.33073,-0.55934 0,-0.42664 0.17639,-0.52916 0.91043,-0.52916 0.50073,0 0.98521,0.121 1.07661,0.26889 0.0914,0.1479 0.26354,0.20874 0.38251,0.13521 0.11898,-0.0735 0.35035,0.0278 0.51415,0.22516 0.22371,0.26956 0.20865,0.43287 -0.0605,0.65625 -0.19708,0.16357 -0.42291,0.23282 -0.50183,0.1539 z m -35.901753,-5.8968 c -0.35556,-0.66436 0.12052,-1.09886 1.20403,-1.09886 0.60665,0 0.90148,-0.14553 1.01418,-0.5006 0.0874,-0.27533 0.38617,-0.56004 0.66397,-0.63269 0.98675,-0.25804 1.06891,0.46145 0.20499,1.79518 -0.52349,0.80818 -0.72985,0.91945 -1.71048,0.92233 -0.81578,0.002 -1.18539,-0.12791 -1.37669,-0.48536 z m 5.42895,-3.56018 c -0.43255,-0.31629 -0.43607,-0.37392 -0.0427,-0.70036 0.62327,-0.51727 1.94755,0.0743 1.46579,0.65473 -0.39944,0.48129 -0.80928,0.49443 -1.42306,0.0456 z m -17.15846,-0.81888 c -1.1845,-1.0469 -1.27084,-1.79105 -0.26458,-2.2803 1.71359,-0.83316 3.50331,-0.44167 4.94733,1.08221 0.82049,0.86586 0.95244,1.13299 0.65319,1.32241 -0.58381,0.36953 -0.73368,0.30737 -1.57831,-0.65461 -0.53032,-0.60399 -0.953,-0.85751 -1.28497,-0.7707 -0.27209,0.0712 -0.56483,0.0159 -0.65054,-0.12278 -0.15092,-0.24418 -1.49139,-0.12667 -1.49139,0.13074 0,0.0702 0.35719,0.46125 0.79375,0.86906 1.57536,1.4716 0.51374,1.87187 -1.12448,0.42397 z"
       id="path14" />
  </g>
</svg>
