<?xml version="1.0" encoding="UTF-8" standalone="no"?>
<!-- Created with Inkscape (http://www.inkscape.org/) -->

<svg
   width="52.657238mm"
   height="79.011536mm"
   viewBox="0 0 52.657238 79.011516"
   version="1.1"
   id="svg1"
   inkscape:version="1.4.1-rc (06eac75fbf, 2025-03-29)"
   sodipodi:docname="fourtrees1.svg"
   xmlns:inkscape="http://www.inkscape.org/namespaces/inkscape"
   xmlns:sodipodi="http://sodipodi.sourceforge.net/DTD/sodipodi-0.dtd"
   xmlns="http://www.w3.org/2000/svg"
   xmlns:svg="http://www.w3.org/2000/svg">
  <sodipodi:namedview
     id="namedview1"
     pagecolor="#ffffff"
     bordercolor="#000000"
     borderopacity="0.25"
     inkscape:showpageshadow="2"
     inkscape:pageopacity="0.0"
     inkscape:pagecheckerboard="0"
     inkscape:deskcolor="#d1d1d1"
     inkscape:document-units="mm"
     inkscape:zoom="0.72248176"
     inkscape:cx="99.656495"
     inkscape:cy="150.1768"
     inkscape:window-width="1850"
     inkscape:window-height="1016"
     inkscape:window-x="0"
     inkscape:window-y="0"
     inkscape:window-maximized="1"
     inkscape:current-layer="layer1" />
  <defs
     id="defs1" />
  <g
     inkscape:label="Layer 1"
     inkscape:groupmode="layer"
     id="layer1"
     transform="translate(-79.11042,-79.376167)">
    <path
       style="fill:#000000"
       d="m 99.334646,158.02602 c -0.39723,-0.29963 -0.46096,-0.48406 -0.2427,-0.70232 0.21826,-0.21826 0.21715,-0.44329 -0.004,-0.85692 -0.23827,-0.44522 -0.40213,-0.50638 -0.79432,-0.29649 -0.35167,0.1882 -0.76802,0.15001 -1.4441,-0.13248 -1.23348,-0.51538 -1.21337,-0.94162 0.0422,-0.89469 0.5457,0.0204 1.27869,-0.055 1.62887,-0.16758 0.45063,-0.14485 0.58202,-0.11621 0.44964,0.098 -0.12901,0.20874 0.0667,0.27311 0.63071,0.20744 0.449774,-0.0524 0.888174,-0.16562 0.974224,-0.25166 0.086,-0.0861 0.35557,-0.0499 0.59894,0.0804 0.87053,0.46589 1.14105,-0.0878 1.13132,-2.31553 -0.0102,-2.34452 -0.36474,-3.37358 -1.06837,-3.10127 -1.21003,0.4683 -1.862584,0.4462 -2.311654,-0.0783 -0.37764,-0.44105 -0.56631,-0.48498 -1.07923,-0.25128 -0.8357,0.38077 -1.52627,-0.2535 -2.07512,-1.90595 -0.35048,-1.05519 -0.36237,-1.40994 -0.0765,-2.28399 0.28718,-0.87815 0.4721,-1.05479 1.22181,-1.16706 l 0.88341,-0.13229 -0.71066,-0.66146 c -1.21896,-1.13458 -1.50599,-1.94094 -1.16828,-3.2821 0.22688,-0.90103 0.4698,-1.24543 1.04715,-1.48457 0.41345,-0.17126 0.87798,-0.23336 1.03229,-0.13799 0.48132,0.29747 0.3067,-0.28133 -0.23194,-0.76879 -0.28188,-0.25509 -0.64911,-0.37937 -0.81608,-0.27618 -0.17564,0.10855 -0.62416,-0.18717 -1.06425,-0.70169 -0.89111,-1.0418 -1.03802,-0.57697 -0.28466,0.9007 0.40203,0.78857 0.43184,1.03037 0.15532,1.25986 -0.2562,0.21263 -0.51889,0.0978 -1.04527,-0.45689 -0.61023,-0.64307 -0.68958,-0.91731 -0.60096,-2.07704 l 0.10211,-1.33614 h -0.8951 c -0.99515,0 -1.29652,-0.32749 -1.55835,-1.69334 -0.0976,-0.50932 -0.35601,-1.05702 -0.57415,-1.21712 -0.55402,-0.40658 -0.73945,-3.04645 -0.29076,-4.13935 0.19447,-0.47368 0.55147,-1.07607 0.79333,-1.33865 0.46978,-0.51001 0.5942,-1.68573 0.20392,-1.92694 -0.1297,-0.0802 -0.16732,-0.25659 -0.0836,-0.39205 0.0837,-0.13547 0.0559,-0.24654 -0.0618,-0.24683 -0.11773,-2.9e-4 -0.24363,-0.38724 -0.27978,-0.85989 -0.0649,-0.84791 0.64684,-2.57917 1.06024,-2.57917 0.38137,0 0.50805,0.74005 0.21911,1.27996 -0.38129,0.71243 0.0991,3.24 0.7009,3.68754 0.41931,0.31185 0.40302,0.38169 -0.21604,0.92604 -0.80308,0.70617 -1.56619,1.78017 -1.56619,2.20427 0,0.16893 0.23752,0.36926 0.52783,0.44517 0.6146,0.16073 0.92279,0.79676 0.68558,1.41491 -0.15137,0.39448 -0.21258,0.39085 -0.68976,-0.041 -0.40024,-0.36221 -0.5227,-0.38629 -0.5196,-0.10216 0.009,0.80351 0.40298,1.06653 1.16458,0.77697 1.3976,-0.53137 1.67011,0.38899 0.40771,1.37697 -0.55474,0.43415 -0.75152,0.76903 -0.63315,1.07751 0.1951,0.50841 1.18197,0.59783 1.63194,0.14786 0.16484,-0.16484 0.49972,-0.22297 0.74417,-0.12916 0.35456,0.13605 0.38031,0.24785 0.1273,0.55271 -0.17444,0.21018 -0.24035,0.50643 -0.14647,0.65832 0.24522,0.39679 0.9332,0.34077 0.9332,-0.076 0,-0.19369 0.29766,-0.51146 0.66146,-0.70617 0.3638,-0.1947 0.66146,-0.56781 0.66146,-0.82915 0,-0.55019 0.75357,-1.02213 1.63625,-1.02474 0.40332,-0.001 0.82968,-0.32039 1.247624,-0.93406 0.60599,-0.88978 0.61307,-0.94823 0.15545,-1.28285 -0.294034,-0.215 -0.414304,-0.52042 -0.310974,-0.7897 0.179504,-0.46776 1.394754,-1.04117 1.870514,-0.88258 0.15695,0.0523 0.48429,-0.15053 0.72742,-0.45078 0.42099,-0.5199 0.4056,-0.58072 -0.32305,-1.27706 -0.42079,-0.40214 -0.99727,-0.73116 -1.28104,-0.73116 -0.28378,0 -0.59336,-0.12523 -0.68795,-0.27828 -0.0946,-0.15306 -0.488584,-0.25234 -0.875514,-0.22063 -1.2459,0.10212 -2.42332,-0.31431 -2.42332,-0.85708 0,-0.5921 0.86886,-0.65266 2.8391,-0.19787 1.062984,0.24536 1.558964,0.22061 2.798314,-0.13968 1.4996,-0.43595 1.67389,-0.58092 1.30385,-1.08458 -0.73215,-0.99655 -1.91417,-1.07041 -1.91417,-0.1196 0,0.72763 -0.46281,0.87026 -0.79709,0.24565 -0.42649,-0.7969 -0.21938,-1.67388 0.46636,-1.97473 0.32742,-0.14365 0.59531,-0.35201 0.59531,-0.46302 0,-0.11102 0.24118,-0.20185 0.53596,-0.20185 0.50745,0 0.51464,-0.0412 0.13521,-0.77496 -0.22839,-0.44166 -0.65804,-0.81155 -0.99898,-0.86002 -0.40432,-0.0575 -0.58388,-0.24978 -0.55394,-0.59321 0.0244,-0.27949 -0.24353,-0.73456 -0.59531,-1.01127 -0.35179,-0.27671 -0.63961,-0.62006 -0.63961,-0.763 0,-0.72497 -1.113454,-2.61212 -1.541194,-2.61212 -0.2583,0 -0.59428,-0.12464 -0.74663,-0.27698 -0.40955,-0.40956 -2.35461,-0.41663 -2.84416,-0.0103 -0.23335,0.19366 -0.42427,0.55184 -0.42427,0.79596 0,0.24412 -0.10864,0.55696 -0.24143,0.69521 -0.13279,0.13824 -0.2984,0.88219 -0.36803,1.65321 -0.11358,1.25779 -0.0616,1.44447 0.50602,1.81637 0.69704,0.45672 0.8557,1.53434 0.25957,1.7631 -0.20517,0.0787 -0.79889,0.0125 -1.31937,-0.14729 -0.69586,-0.21357 -0.87587,-0.37535 -0.68011,-0.61122 0.14642,-0.17643 0.22605,-1.02015 0.17696,-1.87493 -0.0862,-1.50027 -0.11616,-1.55695 -0.86508,-1.63529 -1.13582,-0.11881 -2.51296,-1.75032 -2.3146,-2.74213 0.0916,-0.45781 0.037,-0.74859 -0.14055,-0.74859 -0.15964,0 -0.47877,-0.64846 -0.70918,-1.44103 -0.45725,-1.57289 -0.30961,-3.26725 0.30525,-3.5032 0.19991,-0.0767 0.36347,-0.47801 0.36347,-0.89177 0,-0.41533 0.19012,-0.85869 0.42445,-0.98983 0.38956,-0.218 0.38956,-0.30503 0,-1.05834 -0.23345,-0.45144 -0.42445,-1.05511 -0.42445,-1.34147 0,-1.2905 -0.5156,-1.65219 -1.39951,-0.98175 -0.40281,0.30553 -0.41891,0.41366 -0.10793,0.72465 0.57552,0.57552 1.00129,1.49978 0.75968,1.6491 -0.29817,0.18428 -2.16266,-1.37748 -2.16266,-1.81152 0,-0.50513 1.53766,-1.92664 2.28768,-2.11488 0.86833,-0.21793 2.1929,-1.717654 2.20248,-2.493724 0.006,-0.46702 -0.0769,-0.56015 -0.32297,-0.36378 -0.36049,0.28767 -1.22258,0.28133 -1.69798,-0.0125 -0.16479,-0.10185 -0.29962,-0.59433 -0.29962,-1.09441 0,-0.50008 -0.0725,-1.02659 -0.16118,-1.17003 -0.2157,-0.34901 0.55877,-1.09721 1.13574,-1.09721 0.25328,0 0.73501,-0.37128 1.07051,-0.82507 0.68926,-0.93228 0.46188,-1.28029 -0.84122,-1.28755 -0.78403,-0.004 -0.9142,-0.24079 -0.4101,-0.74488 0.24694,-0.24695 0.24694,-0.3175 0,-0.3175 -0.17463,0 -0.3175,-0.17859 -0.3175,-0.39688 0,-0.53355 1.98105,-0.53334 3.00428,3.3e-4 0.50101,0.2613 1.10234,0.33845 1.78594,0.22913 0.56684,-0.0906 1.03061,-0.1955 1.03061,-0.23303 0,-0.28997 -0.85116,-1.59808 -1.33029,-2.04445 -0.4808,-0.44794 -0.68128,-0.49321 -1.08039,-0.24396 -0.42063,0.26269 -0.5138,0.21142 -0.6577,-0.36192 -0.11504,-0.45838 -0.53447,-0.83507 -1.33675,-1.20055 -0.64301,-0.29293 -1.0942,-0.65381 -1.00264,-0.80196 0.4162,-0.67342 4.31955,0.97226 5.23139,2.20559 0.29726,0.40207 0.7736,0.73103 1.05852,0.73103 0.46385,0 0.44427,-0.0684 -0.18706,-0.65347 -0.38782,-0.35941 -0.77888,-1.02232 -0.86905,-1.47313 -0.16654,-0.83274 -1.18686,-1.74888 -1.63754,-1.47035 -0.136,0.084 -0.43572,-0.13478 -0.66604,-0.48629 -0.23032,-0.35152 -0.66007,-0.71571 -0.95498,-0.80931 -0.29492,-0.0936 -0.53622,-0.40029 -0.53622,-0.68153 0,-0.33495 -0.18254,-0.51133 -0.52917,-0.51133 -0.35277,0 -0.52916,-0.17639 -0.52916,-0.52917 0,-0.29104 0.11906,-0.52917 0.26458,-0.52917 0.50616,0 0.26042,-0.73561 -0.38757,-1.16019 -0.84363,-0.55277 -1.71761,-0.54415 -2.13087,0.021 -0.49986,0.6836 -0.1701,2.47684 0.60944,3.31418 0.58488,0.62824 0.61429,0.7412 0.23122,0.8882 -0.24139,0.0926 -0.64725,0.0748 -0.90191,-0.0396 -1.77741,-0.79859 -3.4181,0.40039 -2.36922,1.73138 0.46926,0.59546 0.98016,1.55196 0.98016,1.83501 0,0.13594 -0.36066,0.32637 -0.80148,0.42319 -0.76135,0.16722 -0.79213,0.22456 -0.6148,1.1455 0.10267,0.53321 0.1735,1.17228 0.15739,1.42017 -0.0162,0.24892 0.22947,0.52995 0.54866,0.6277 0.94091,0.28814 1.15587,0.58604 1.03199,1.43012 -0.13064,0.89008 -0.49626,1.0231 -0.98289,0.3576 -0.37054,-0.50675 -1.46794,-0.62523 -2.71231,-0.29283 -1.06516,0.28454 -1.07772,0.49123 -0.0661,1.08879 1.21712,0.71897 0.99724,1.15385 -0.8599,1.70077 -1.0317,0.30383 -1.65364,0.62946 -1.65364,0.86579 0,0.5783 1.43691,1.16071 2.88836,1.17072 1.48209,0.0102 1.916,0.51672 0.80466,0.93925 -1.36767,0.519994 -4.69067,-0.5842 -4.98498,-1.65645 -0.2103,-0.76615 1.36007,-2.31654 2.3464,-2.31654 0.36594,0 0.66535,-0.11906 0.66535,-0.26458 0,-0.14552 -0.11907,-0.26458 -0.26459,-0.26458 -0.14552,0 -0.26458,-0.32855 -0.26458,-0.73011 0,-0.86555 0.60252,-1.30742 2.11187,-1.54877 0.9436,-0.15089 1.05559,-0.24142 0.9063,-0.73258 -0.0937,-0.30823 -0.3214,-0.73901 -0.50602,-0.95729 -0.50084,-0.59216 -0.17857,-2.07324 0.55583,-2.55443 0.54817,-0.35918 0.57583,-0.45414 0.23235,-0.79763 -0.21445,-0.21445 -0.38991,-0.65525 -0.38991,-0.97955 0,-0.32431 -0.11445,-0.70409 -0.25433,-0.84397 -0.41152,-0.41152 0.31591,-1.57017 0.99115,-1.57873 0.32244,-0.004 0.8443,-0.26548 1.15971,-0.58088 0.45661,-0.45662 0.50935,-0.65071 0.25882,-0.95258 -0.20783,-0.25042 -0.23579,-0.59213 -0.0824,-1.00661 0.12775,-0.34513 0.18756,-0.75342 0.13289,-0.90733 -0.0547,-0.15391 0.19959,-0.56071 0.565,-0.904 0.84167,-0.7907 2.06023,-0.81231 2.87072,-0.0509 0.4755,0.44671 0.93646,0.57326 2.08805,0.57326 1.34401,0 1.56411,0.0863 2.43035,0.9525 0.76797,0.76797 0.9525,1.15241 0.9525,1.98438 0,1.25484 -0.66321,1.4348 -0.92332,0.25055 -0.24941,-1.1356 -1.12388,-2.12909 -1.87401,-2.12909 -0.35324,0 -0.64226,0.11972 -0.64226,0.26606 0,0.14633 0.70251,0.98622 1.56113,1.86643 l 1.56112,1.60037 0.67581,-0.67581 c 0.37169,-0.37169 0.90158,-0.6758 1.17752,-0.6758 0.71135,0 2.16817,0.53874 2.16817,0.8018 0,0.12148 0.21693,0.28972 0.48207,0.37387 0.629194,0.1997 1.587084,1.92135 1.735714,3.11967 0.0644,0.51951 0.24299,1.17969 0.3968,1.46708 0.1538,0.28739 0.2716,0.86458 0.26178,1.28265 -0.01,0.41807 0.0558,1.23638 0.14596,1.81847 0.14975,0.96742 0.0735,1.15664 -0.88766,2.20284 -1.17759,1.28178 -2.039694,1.40311 -2.557724,0.35997 -0.66045,-1.32993 -2.09816,-2.48607 -4.0481,-3.25532 -0.57328,-0.22616 -0.59926,-0.20768 -0.26847,0.1909 0.20143,0.24271 0.81852,0.7268 1.37131,1.07576 1.37421,0.8675 1.96494,1.49921 2.41968,2.58757 0.30557,0.73132 0.71098,1.07315 1.936574,1.63286 1.00306,0.45808 1.79571,1.04959 2.24606,1.67611 0.61915,0.861354 0.80051,0.956004 1.64336,0.857604 0.82573,-0.0964 1.08702,0.029 2.03466,0.97667 0.84328,0.84328 1.05889,1.23576 0.96078,1.74897 -0.0696,0.36393 -0.037,0.66169 0.0725,0.66169 0.42484,0 0.39898,1.97308 -0.0428,3.26854 -0.5215,1.52907 -0.42871,2.23213 0.48727,3.69207 0.71174,1.13441 0.63845,1.7143 -0.34041,2.69316 -0.35251,0.35251 -0.64093,0.83756 -0.64093,1.0779 0,0.24033 -0.28205,0.65882 -0.62677,0.92998 -0.51859,0.40792 -0.91721,1.36063 -0.95573,2.28419 -0.004,0.10173 0.46834,0.19691 1.05019,0.2115 1.26657,0.0318 1.76356,0.49786 2.87172,2.69312 0.91745,1.81746 1.28555,3.37666 0.85935,3.64006 -0.15859,0.098 -0.28835,0.45426 -0.28835,0.79166 0,1.21076 -0.59945,1.25832 -1.86422,0.14793 -0.64817,-0.56905 -1.31617,-1.03971 -1.48444,-1.04591 -0.55123,-0.0203 -0.0642,0.97231 0.65897,1.34319 1.43443,0.73561 2.20492,2.34172 1.02646,2.13966 -0.56113,-0.0962 -0.56772,0.17829 -0.0361,1.50683 0.32552,0.81355 0.35106,1.1667 0.11613,1.60567 -0.25612,0.47856 -0.18125,0.70922 0.50057,1.54211 0.44096,0.53866 1.04354,1.23004 1.33908,1.53639 0.29554,0.30636 0.53734,0.75284 0.53734,0.99219 0,0.23935 0.11907,0.43518 0.26459,0.43518 0.14552,0 0.26458,-0.12162 0.26458,-0.27026 0,-0.14864 0.27554,-0.3958 0.61231,-0.54924 0.80565,-0.36708 2.40575,0.54246 3.01045,1.71123 0.60209,1.16374 1.13307,3.28287 1.13561,4.53223 0.003,1.36498 -0.85265,2.83534 -1.50998,2.59544 -0.44162,-0.16118 -0.44332,-0.1407 -0.0279,0.33625 0.24333,0.27934 0.52412,0.83531 0.624,1.23549 0.16327,0.6542 0.11196,0.72761 -0.50856,0.72761 -0.4245,0 -0.69014,-0.14675 -0.69014,-0.38126 0,-0.2097 -0.13779,-0.46643 -0.30621,-0.57051 -0.22425,-0.13859 -0.25959,0.15089 -0.13204,1.08145 0.0958,0.69889 0.0618,1.40609 -0.0755,1.57155 -0.13732,0.16546 -0.27895,0.86646 -0.31474,1.55778 -0.0359,0.69357 -0.23435,1.39745 -0.44277,1.57042 -0.71212,0.59101 -2.18264,0.95035 -2.96771,0.7252 -0.86805,-0.24896 -0.98673,-0.079 -0.83752,1.1991 0.12242,1.04857 0.64217,1.23643 2.56296,0.92634 0.72761,-0.11747 1.42801,-0.15034 1.55645,-0.0731 0.12844,0.0773 2.18927,0.13222 4.57961,0.12209 3.57027,-0.0151 4.37244,0.0503 4.49372,0.36633 0.11076,0.28863 0.2359,0.3115 0.50092,0.0915 0.19431,-0.16125 0.60206,-0.21423 0.90612,-0.11773 0.30406,0.0965 0.98113,0.22859 1.50461,0.29351 0.52347,0.0649 1.03022,0.16654 1.12611,0.2258 0.0959,0.0593 1.35737,0.18367 2.8033,0.27648 2.68932,0.1726 3.73332,0.52814 2.90764,0.99021 -0.23361,0.13074 -1.45623,0.16819 -2.71693,0.0832 -2.03367,-0.13705 -2.23383,-0.11162 -1.77478,0.22543 0.49897,0.36636 0.48913,0.39095 -0.27635,0.69049 -0.75871,0.29688 -1.7843,0.27878 -8.20209,-0.14482 -3.70416,-0.24449 -11.17983,-0.32991 -11.501,-0.13142 -0.53361,0.32979 0.0741,0.5363 1.85037,0.62874 1.03716,0.054 1.71502,0.22047 1.86552,0.45821 0.18034,0.28489 0.23735,0.2916 0.24044,0.0283 0.005,-0.45362 4.53927,-0.33859 4.69143,0.11903 0.12686,0.38151 -2.22152,0.60175 -2.5812,0.24207 -0.16132,-0.16132 -0.2541,-0.1616 -0.2541,-7.8e-4 0,0.31735 -3.9432,0.19724 -5.52228,-0.16821 -1.19882,-0.27744 -1.76117,-0.12807 -1.08685,0.28868 0.85044,0.5256 -0.24315,0.81743 -3.27024,0.87269 -2.42448,0.0443 -3.194594,-0.0302 -3.618644,-0.35011 z m 25.073534,-2.90312 c 0.60618,-0.0813 -1.55106,-0.54302 -3.24114,-0.69378 -2.40716,-0.21474 -7.32412,-0.23975 -7.44904,-0.0379 -0.0675,0.10914 0.033,0.20954 0.22353,0.2231 0.19049,0.0136 0.88212,0.0632 1.53697,0.1103 0.65484,0.0471 2.43331,0.15752 3.95215,0.24537 1.51885,0.0879 2.78885,0.18705 2.82223,0.22043 0.0692,0.0692 1.46089,0.0256 2.1553,-0.0675 z m 1.38907,-0.004 c 0,-0.14552 -0.11204,-0.26458 -0.24897,-0.26458 -0.13694,0 -0.32256,0.11906 -0.41249,0.26458 -0.0899,0.14552 0.0221,0.26458 0.24897,0.26458 0.22687,0 0.41249,-0.11906 0.41249,-0.26458 z m -12.7,-0.48814 c 0,-0.11667 -0.68461,-0.22958 -1.52136,-0.25091 -0.83674,-0.0213 -1.37802,0.0506 -1.20283,0.15976 0.4413,0.27509 2.72419,0.35148 2.72419,0.0911 z m -7.04453,-1.95926 c -0.0182,-0.25466 -0.048,-0.6884 -0.0661,-0.96388 -0.032,-0.48519 -0.76196,-0.97511 -1.03942,-0.69765 -0.18383,0.18383 -0.28259,1.80497 -0.12632,2.07354 0.23768,0.40849 1.26593,0.0646 1.23189,-0.41201 z m 5.19244,-3.17585 c 0,-0.3983 -1.42037,-1.78508 -1.82832,-1.78508 -0.42021,0 -0.37636,0.0872 0.57155,1.13608 0.91311,1.01042 1.25677,1.18788 1.25677,0.649 z m -10.75644,-0.89682 c 1.56433,-0.81472 1.7536,-0.88826 2.28619,-0.88826 0.642,0 0.64079,0.0161 0.10024,-1.33484 -0.53503,-1.33716 -0.22575,-1.83989 0.83466,-1.35674 0.3746,0.17068 0.89685,0.31033 1.16057,0.31033 0.26371,0 0.99869,0.41086 1.63328,0.91303 l 1.15379,0.91303 0.93396,-0.69387 c 0.51368,-0.38164 0.96818,-0.71758 1.01001,-0.74655 0.0418,-0.029 -0.0664,-0.36524 -0.24041,-0.74725 -0.26926,-0.59096 -0.24114,-0.77944 0.18853,-1.26347 0.38207,-0.43042 0.42033,-0.59845 0.15717,-0.69028 -0.1913,-0.0668 -0.45625,-0.40656 -0.58876,-0.7551 -0.13252,-0.34854 -0.42248,-0.63371 -0.64436,-0.63371 -0.22189,0 -0.40343,-0.17554 -0.40343,-0.39008 0,-0.21454 -0.35718,-0.57479 -0.79375,-0.80054 -0.45201,-0.23375 -0.79375,-0.29363 -0.79375,-0.13909 0,0.14926 -0.11906,0.27138 -0.26458,0.27138 -0.4024,0 -0.31573,-0.9511 0.11959,-1.31238 0.4367,-0.36243 1.36258,-0.15661 2.06322,0.45864 0.93502,0.82105 0.46417,-0.23905 -0.5173,-1.16469 -0.93281,-0.87976 -0.9901,-0.89813 -1.1821,-0.37911 -0.22251,0.60151 -0.25551,0.6163 -0.85865,0.38486 -1.09993,-0.42209 0.10401,-2.14792 1.29062,-1.8501 0.81623,0.20486 0.89698,-0.30512 0.22772,-1.43809 -0.3759,-0.63636 -0.52559,-0.70885 -0.97124,-0.47034 -0.41843,0.22393 -0.59921,0.18299 -0.87852,-0.19899 -0.19342,-0.26452 -0.35167,-0.68246 -0.35167,-0.92875 0,-0.2463 -0.47325,-0.87536 -1.05167,-1.39792 -1.77207,-1.60096 -3.02279,-1.55583 -3.59025,0.12955 -0.24827,0.73738 -0.48035,0.92113 -1.464574,1.1596 -1.13859,0.27587 -1.17175,0.31362 -1.25236,1.42615 -0.0662,0.91291 0.0272,1.21984 0.46411,1.52586 0.39335,0.27551 0.50292,0.55833 0.39023,1.00731 -0.12762,0.5085 -0.0425,0.64048 0.45923,0.71184 0.33875,0.0482 0.65562,0.29596 0.70416,0.55062 0.0688,0.36097 -0.0939,0.46302 -0.73804,0.46302 -1.21468,0 -2.29918,0.6544 -2.45756,1.48291 -0.10752,0.56242 0.0914,0.96214 0.9594,1.92839 0.60226,0.6704 1.18432,1.2586 1.29346,1.3071 0.10914,0.0485 0.19844,0.25687 0.19844,0.46302 0,0.24188 -0.28772,0.37483 -0.81114,0.37483 -1.21973,0 -1.83469,0.43458 -1.83469,1.29655 0,0.8209 0.89216,2.14303 1.4461,2.14303 0.19215,0 0.4179,0.1786 0.50166,0.39688 0.19942,0.51969 1.07204,0.50408 2.112464,-0.0378 z m 6.39082,-4.85701 c -0.26339,-0.29104 -0.6721,-0.52917 -0.90825,-0.52917 -0.23615,0 -0.64174,-0.24805 -0.90133,-0.55122 -0.30993,-0.36197 -0.62534,-0.48706 -0.9187,-0.36433 -0.24569,0.10279 -0.80391,0.32108 -1.24047,0.48508 -0.43656,0.164 -0.91281,0.44479 -1.05834,0.62397 -0.16194,0.19942 -0.4037,0.23799 -0.62322,0.0994 -0.29637,-0.18707 -0.28275,-0.34217 0.0785,-0.89347 0.43893,-0.66988 0.64668,-0.77441 2.7361,-1.37666 0.8703,-0.25086 1.17704,-0.25393 1.32291,-0.0133 0.10445,0.17232 0.81499,0.71853 1.57897,1.21379 0.8114,0.52601 1.38907,1.09481 1.38907,1.36775 0,0.63555 -0.85702,0.59909 -1.45521,-0.0619 z m -1.71979,4.03239 c 0,-0.11051 -0.23813,-0.34965 -0.52917,-0.53141 -0.43045,-0.26881 -0.52917,-0.26423 -0.52917,0.0246 0,0.19526 0.0794,0.4344 0.17639,0.53141 0.24109,0.24109 0.88195,0.22325 0.88195,-0.0246 z m 6.73557,-1.93401 c -0.0837,-0.13546 -0.33837,-0.2463 -0.56588,-0.2463 -0.33633,0 -0.35254,0.0736 -0.0867,0.39396 0.34161,0.41162 0.91767,0.28128 0.65257,-0.14766 z m 0.40818,-2.24629 c 0,-0.44898 -0.68181,-0.51186 -0.94433,-0.0871 -0.19945,0.32272 0.39478,0.80799 0.73326,0.5988 0.11608,-0.0718 0.21107,-0.30202 0.21107,-0.51171 z m 0.95388,-1.83384 c -0.99854,-0.92542 -1.21434,-0.8326 -0.29507,0.1269 0.4168,0.43505 0.81492,0.73389 0.88472,0.66409 0.0698,-0.0698 -0.19555,-0.42574 -0.58965,-0.79099 z m -2.2768,-1.72242 c 0,-0.14552 -0.0525,-0.26458 -0.11668,-0.26458 -0.0642,0 -0.19026,0.11906 -0.2802,0.26458 -0.0899,0.14552 -0.0374,0.26458 0.11668,0.26458 0.15411,0 0.2802,-0.11906 0.2802,-0.26458 z m 2.81828,-0.65909 c -0.62504,-0.62505 -0.75944,-0.46887 -0.25674,0.29835 0.2514,0.38367 0.50183,0.56333 0.55653,0.39923 0.0547,-0.16409 -0.0802,-0.478 -0.29979,-0.69758 z m -0.70161,-1.56823 c 0,-0.0609 -0.0723,-0.29898 -0.1606,-0.52916 -0.23971,-0.62466 -0.87616,-0.52545 -0.70982,0.11065 0.11332,0.43331 0.87042,0.79734 0.87042,0.41851 z m -3.43959,-1.22333 c 0,-0.1516 -0.23812,-0.53124 -0.52916,-0.84364 -0.55151,-0.59196 -0.63076,-0.47738 -0.36241,0.52398 0.1578,0.5888 0.89157,0.85189 0.89157,0.31966 z m 2.69434,-1.36918 c -0.18985,-0.18985 -0.31309,-0.20547 -0.31309,-0.0397 0,0.15037 0.0794,0.35278 0.17639,0.44979 0.097,0.097 0.23791,0.11487 0.31309,0.0397 0.0752,-0.0752 -0.004,-0.2776 -0.17639,-0.4498 z m -4.26009,-1.56778 c -0.76442,-0.82051 -0.98897,-0.43051 -0.24487,0.42529 0.33538,0.38571 0.65038,0.57952 0.69999,0.43068 0.0496,-0.14885 -0.15519,-0.53403 -0.45512,-0.85597 z m -1.70592,-3.02703 c -0.41697,-0.36666 -0.82304,-0.60176 -0.90237,-0.52242 -0.2319,0.23189 0.77622,1.20661 1.23849,1.19745 0.30104,-0.006 0.2047,-0.19946 -0.33612,-0.67503 z m -4.47054,-1.0868 c -0.246,-0.246 -0.53595,-0.35859 -0.64435,-0.25019 -0.10839,0.10839 -0.0219,0.30784 0.19214,0.44322 0.64415,0.40737 0.93041,0.28518 0.45221,-0.19303 z m 2.18596,-0.87564 c 0,-0.14552 -0.17859,-0.26459 -0.39687,-0.26459 -0.21828,0 -0.39688,0.11907 -0.39688,0.26459 0,0.14552 0.1786,0.26458 0.39688,0.26458 0.21828,0 0.39687,-0.11906 0.39687,-0.26458 z m 2.57418,-6.50985 c -0.0879,-0.0879 -0.31612,-0.0973 -0.50712,-0.0209 -0.21107,0.0845 -0.14837,0.14715 0.15985,0.15985 0.27892,0.0115 0.43519,-0.0511 0.34727,-0.13896 z m -0.20562,-1.29939 c 0.7578,0.24052 0.67798,-0.23058 -0.11058,-0.6526 -0.51624,-0.27628 -0.73389,-0.28158 -1.04261,-0.0254 -0.21459,0.1781 -0.3238,0.49674 -0.2427,0.7081 0.11062,0.28826 0.23574,0.31102 0.50074,0.0911 0.19431,-0.16126 0.59712,-0.21581 0.89515,-0.12122 z m -3.13625,-4.3937 c -0.30926,-0.25043 -0.70744,-0.5037 -0.88483,-0.56283 -0.17739,-0.0591 -0.29773,-0.40713 -0.26743,-0.77333 0.0385,-0.46467 -0.13517,-0.76765 -0.57474,-1.0029 -0.99205,-0.53093 -1.21394,-0.15657 -0.70379,1.18737 0.35841,0.94418 0.70311,1.33134 1.62814,1.82868 1.02049,0.54867 1.18595,0.57534 1.26922,0.20463 0.0527,-0.23446 -0.1573,-0.63118 -0.46657,-0.88162 z m -9.503944,-2.59014 c 0.52327,-0.56911 0.99462,-1.16264 1.04745,-1.31896 0.12176,-0.36027 2.37194,-0.79185 2.88544,-0.55342 0.21209,0.0985 0.64799,0.31418 0.96866,0.47933 0.79882,0.41142 0.97545,-0.0154 0.34046,-0.82263 -0.87852,-1.11686 -4.16566,-2.81193 -4.60364,-2.37395 -0.0815,0.0815 0.0437,0.28836 0.27817,0.45978 0.35124,0.25684 0.37055,0.41579 0.10972,0.90314 -0.26473,0.49467 -0.38297,0.53632 -0.72252,0.25452 -0.60177,-0.49944 -0.96538,-1.59762 -0.6031,-1.82153 0.16359,-0.1011 0.29073,-0.28957 0.28253,-0.41882 -0.008,-0.12926 0.69825,-0.22336 1.5699,-0.20913 1.36127,0.0222 1.7312,0.14352 2.62263,0.8599 1.21229,0.97422 1.48658,1.02415 1.67468,0.30485 0.088,-0.33634 0.360904,-0.52917 0.749014,-0.52917 0.56855,0 0.58041,-0.0302 0.17214,-0.4385 -0.28495,-0.28494 -0.974274,-0.4635 -1.968514,-0.50991 -0.8415,-0.0393 -1.57392,-0.20314 -1.62759,-0.36415 -0.19096,-0.57288 0.46979,-0.97805 1.46855,-0.90051 0.5486,0.0426 1.565044,0.12311 2.258764,0.17893 1.23367,0.0993 1.25114,0.0902 0.79696,-0.41163 -0.54119,-0.59801 -2.358084,-1.52298 -2.991544,-1.52298 -0.24035,0 -0.57568,0.30437 -0.74518,0.67638 -0.33748,0.74068 -0.8351,0.6477 -0.8351,-0.15603 0,-1.18071 3.220534,-1.87834 3.905914,-0.8461 0.41124,0.61936 1.1252,0.51324 1.11402,-0.16558 -0.006,-0.39129 -1.66683,-2.41908 -1.980784,-2.41908 -0.0708,0 -0.12873,0.34444 -0.12873,0.76544 0,1.1538 -0.66879,1.22292 -1.1907,0.12306 -0.4145,-0.87348 -0.41335,-0.96084 0.0188,-1.4384 0.25308,-0.27964 0.61325,-0.50844 0.80039,-0.50844 0.638634,0 0.673824,-0.53791 0.0963,-1.472354 -0.65323,-1.05695 -1.21776,-1.06782 -1.10387,-0.0213 0.0419,0.384924 -0.0474,0.699854 -0.19844,0.699854 -0.15102,0 -0.35338,0.008 -0.44968,0.018 -0.0963,0.01 -0.32627,-0.34159 -0.51106,-0.781084 -0.29409,-0.69941 -0.27272,-0.87949 0.17128,-1.44395 0.45268,-0.5755 0.46353,-0.68119 0.1008,-0.98223 -0.34163,-0.28352 -0.43036,-0.24598 -0.55623,0.23534 -0.20792,0.79509 -0.82983,0.71579 -1.21496,-0.15492 -0.47812,-1.08094 -1.65974,-1.99833 -2.96693,-2.30347 -0.77421,-0.18072 -0.779,-0.17524 -0.30481,0.34873 0.57502,0.63539 0.33558,1.18454 -0.41291,0.94697 -0.48524,-0.154 -0.51636,-0.0889 -0.34274,0.71685 0.10503,0.48743 0.35522,1.20774 0.55597,1.6007 0.47374,0.92729 0.46267,1.00532 -0.14258,1.00532 -0.77657,0 -1.60908,1.566704 -1.60908,3.028154 0,1.28965 -0.0255,1.2516 2.18604,3.26198 0.5808,0.52797 0.16107,1.10966 -0.44047,0.61043 -0.63244,-0.52488 -1.557,-0.22919 -2.00131,0.64007 -0.22314,0.43656 -0.51404,0.87206 -0.64643,0.96778 -0.13239,0.0957 -0.23222,0.73578 -0.22184,1.42236 0.0212,1.40127 0.41914,1.95307 1.72785,2.39578 1.08057,0.36554 1.31519,1.1672 0.34161,1.1672 -0.5193,0 -0.68086,0.13435 -0.68086,0.56615 0,0.66032 0.6945,1.2655 1.46609,1.27752 0.29703,0.005 0.96818,-0.45722 1.49144,-1.02633 z m 12.718134,-2.47724 c -0.53457,-0.59281 -0.83433,-0.29798 -1.03834,1.02128 l -0.16014,1.0355 0.81082,-0.79375 c 0.75156,-0.73573 0.7799,-0.82806 0.38766,-1.26303 z m -1.53164,-1.23241 c 0.14807,-0.23959 -0.81936,-1.07644 -1.24441,-1.07644 -0.1165,0 -0.0168,0.29766 0.22159,0.66146 0.45649,0.69669 0.77008,0.82392 1.02282,0.41498 z m -2.50236,-0.41498 c -0.18115,-0.21828 -0.52315,-0.39309 -0.76,-0.38846 -0.36177,0.007 -0.3485,0.0705 0.083,0.39687 0.66848,0.50562 1.0992,0.50026 0.67703,-0.008 z m 1.0858,-3.12108 c -0.33959,-0.33959 -0.68396,-0.0771 -0.43255,0.32967 0.0974,0.15757 0.29828,0.21159 0.44642,0.12003 0.18071,-0.11169 0.17615,-0.25968 -0.0139,-0.4497 z m 2.0892,-0.63475 c 0,-0.26245 -1.37945,-1.66813 -1.637,-1.66813 -0.4261,0 -0.20112,0.52069 0.50982,1.17992 0.71824,0.66599 1.12718,0.84311 1.12718,0.48821 z m -0.52916,-2.59417 c -0.18116,-0.21828 -0.46363,-0.39309 -0.62771,-0.38846 -0.16409,0.005 -0.0672,0.18322 0.21526,0.39687 0.65978,0.49904 0.8307,0.49555 0.41245,-0.008 z m -2.28557,-1.85208 c -0.0838,-0.21828 -0.2732,-0.39688 -0.42097,-0.39688 -0.15486,0 -0.12915,0.16812 0.0607,0.39688 0.18116,0.21828 0.3706,0.39687 0.42097,0.39687 0.0504,0 0.0231,-0.17859 -0.0607,-0.39687 z m 2.28557,-0.66146 c 0,-0.14552 -0.12609,-0.26458 -0.2802,-0.26458 -0.15411,0 -0.20662,0.11906 -0.11668,0.26458 0.0899,0.14552 0.21603,0.26458 0.2802,0.26458 0.0642,0 0.11668,-0.11906 0.11668,-0.26458 z m -3.59396,-1.152764 c -0.1701,-0.44328 -0.63938,-0.60701 -0.63938,-0.22307 0,0.2574 0.59028,0.873754 0.7162,0.747834 0.0495,-0.0495 0.0149,-0.285654 -0.0768,-0.524764 z m -10.867444,-3.14672 c -0.20104,-1.07602 -0.52347,-1.45898 -0.90616,-1.0763 -0.29307,0.29307 0.10815,1.31123 0.68318,1.73371 0.39242,0.2883 0.3971,0.2745 0.22298,-0.65741 z m 5.60819,-1.40107 c -1.02161,-0.81639 -1.29847,-0.53764 -0.31054,0.31267 0.41698,0.35888 0.8337,0.57621 0.92605,0.48294 0.0923,-0.0933 -0.18463,-0.45129 -0.61551,-0.79561 z m -1.57449,-1.15282 c -0.56914,-0.6289 -1.95905,-1.22589 -2.21464,-0.95123 -0.10448,0.11227 -0.0709,0.24801 0.0746,0.30164 0.14552,0.0536 0.74012,0.3853 1.32134,0.73705 1.17925,0.71368 1.51156,0.67818 0.81867,-0.0875 z m 5.786304,0.25689 c 0.0838,-0.13557 -0.069,-0.40346 -0.33945,-0.59531 -0.270484,-0.19186 -0.540364,-0.49385 -0.599744,-0.67109 -0.0678,-0.20235 -0.24381,-0.23785 -0.47311,-0.0954 -0.30156,0.18734 -0.27852,0.34568 0.1323,0.90925 0.51385,0.70492 1.014614,0.88196 1.280004,0.45255 z m 0.84837,-1.98469 c -0.25907,-0.67514 -0.64252,-0.47227 -0.50152,0.26532 0.0869,0.4546 0.21793,0.59205 0.39532,0.41466 0.14593,-0.14593 0.19372,-0.45192 0.1062,-0.67998 z m -8.874144,-0.22064 c -0.26131,-0.25936 -0.2917,-0.22897 -0.14811,0.14812 0.0994,0.26093 0.2473,0.40778 0.32876,0.32632 0.0815,-0.0815 1.7e-4,-0.29496 -0.18065,-0.47444 z m 6.31717,0.5218 c 0,-0.13333 -2.56156,-2.03874 -2.74081,-2.03874 -0.49189,0 -0.0723,0.7608 0.49858,0.90409 0.3675,0.0922 0.90328,0.4028 1.19062,0.69014 0.44516,0.44515 1.05161,0.7015 1.05161,0.44451 z m 0.52916,-2.5099 c 0,-0.17327 -0.73623,-0.5613 -1.98437,-1.04585 -0.14552,-0.0565 0.0926,0.20159 0.52916,0.57354 0.77764,0.66253 1.45521,0.88245 1.45521,0.47231 z m -1.37236,-2.90228 c -0.0495,-0.25982 -0.37734,-0.50267 -0.74701,-0.55337 l -0.65875,-0.0904 0.52917,0.53765 c 0.65933,0.66989 0.99172,0.71011 0.87659,0.10607 z m 2.199724,0 c -0.554714,-1.02901 -2.789904,-2.64624 -3.057964,-2.21252 -0.0896,0.145 0.24491,0.45717 0.74337,0.69371 0.49847,0.23653 1.17388,0.77921 1.50093,1.20595 0.64648,0.84355 1.218254,1.06341 0.813664,0.31286 z M 94.973286,155.1189 c 0.0899,-0.14552 0.21602,-0.26458 0.2802,-0.26458 0.0642,0 0.11667,0.11906 0.11667,0.26458 0,0.14552 -0.12609,0.26458 -0.28019,0.26458 -0.15411,0 -0.20662,-0.11906 -0.11668,-0.26458 z m 6.339124,-28.32802 c -0.0959,-0.1552 -0.11087,-0.34572 -0.0332,-0.42337 0.18953,-0.18952 0.70556,0.14442 0.70556,0.45659 0,0.33813 -0.45678,0.31556 -0.67234,-0.0332 z M 91.202976,90.264556 c -0.47295,-0.13656 -0.8599,-0.35121 -0.8599,-0.477 0,-0.31607 0.77878,-0.58581 1.29404,-0.44821 0.23417,0.0625 0.75317,0.18657 1.15336,0.27563 0.40018,0.0891 0.7276,0.33825 0.7276,0.55375 0,0.44731 -0.96018,0.48705 -2.3151,0.0958 z"
       id="path13" />
  </g>
</svg>
