<?xml version="1.0" encoding="UTF-8" standalone="no"?>
<!-- Created with Inkscape (http://www.inkscape.org/) -->

<svg
   width="63.763302mm"
   height="55.565533mm"
   viewBox="0 0 63.763303 55.565521"
   version="1.1"
   id="svg1"
   inkscape:version="1.4.1-rc (06eac75fbf, 2025-03-29)"
   sodipodi:docname="hillbush5.svg"
   xmlns:inkscape="http://www.inkscape.org/namespaces/inkscape"
   xmlns:sodipodi="http://sodipodi.sourceforge.net/DTD/sodipodi-0.dtd"
   xmlns="http://www.w3.org/2000/svg"
   xmlns:svg="http://www.w3.org/2000/svg">
  <sodipodi:namedview
     id="namedview1"
     pagecolor="#ffffff"
     bordercolor="#000000"
     borderopacity="0.25"
     inkscape:showpageshadow="2"
     inkscape:pageopacity="0.0"
     inkscape:pagecheckerboard="0"
     inkscape:deskcolor="#d1d1d1"
     inkscape:document-units="mm"
     inkscape:zoom="0.72248176"
     inkscape:cx="120.41826"
     inkscape:cy="104.50091"
     inkscape:window-width="1850"
     inkscape:window-height="1016"
     inkscape:window-x="0"
     inkscape:window-y="0"
     inkscape:window-maximized="1"
     inkscape:current-layer="layer1" />
  <defs
     id="defs1" />
  <g
     inkscape:label="Layer 1"
     inkscape:groupmode="layer"
     id="layer1"
     transform="translate(-73.55418,-91.28252)">
    <path
       style="fill:#000000"
       d="m 136.50001,146.73313 c -0.0616,-0.0616 -1.36132,-0.25028 -2.88837,-0.41939 -1.52704,-0.16911 -3.19316,-0.35436 -3.70249,-0.41168 -1.41955,-0.15976 -2.46788,-0.50752 -2.58449,-0.85737 -0.0637,-0.19093 0.16548,-0.3163 0.57807,-0.3163 0.37593,0 0.68351,-0.10933 0.68351,-0.24295 0,-0.61207 -0.36645,-1.07997 -0.8458,-1.07997 -0.28852,0 -0.73061,-0.25443 -0.98242,-0.5654 -0.41597,-0.5137 -0.54647,-0.53614 -1.42732,-0.24543 -1.41844,0.46813 -2.79544,-0.15203 -2.82147,-1.2707 -0.0134,-0.57621 -2.5747,-3.01056 -3.24036,-3.07976 -0.33248,-0.0346 -0.84995,-0.078 -1.14993,-0.0966 -0.29998,-0.0186 -0.79585,-0.26708 -1.10193,-0.55223 -0.30608,-0.28516 -0.85555,-0.59352 -1.22104,-0.68526 -0.79801,-0.20028 -1.64421,-1.05546 -1.272,-1.2855 0.14284,-0.0883 0.87319,-0.0289 1.623,0.13186 0.7498,0.16081 1.42657,0.22909 1.50392,0.15174 0.18821,-0.18822 -0.91049,-1.35163 -1.31385,-1.39124 -0.81782,-0.0803 -1.41971,-0.46342 -1.81786,-1.15716 -0.23875,-0.41599 -0.69054,-0.8936 -1.00399,-1.06135 -0.54537,-0.29187 -0.56231,-0.2645 -0.39343,0.63572 0.24574,1.30989 -0.36271,1.4886 -1.80614,0.53051 -0.61486,-0.40813 -1.30891,-0.72836 -1.54234,-0.71164 -0.33042,0.0237 -0.40229,-0.17038 -0.3245,-0.87628 0.0801,-0.72706 0.007,-0.90835 -0.36933,-0.9151 -0.25809,-0.005 -0.69515,-0.17941 -0.97125,-0.3884 -0.67058,-0.50759 -0.88915,-0.32028 -0.74805,0.64104 0.0694,0.47273 0.31569,0.85978 0.60572,0.95184 0.26884,0.0853 0.78898,0.51189 1.15588,0.94792 0.56498,0.67144 0.61777,0.87177 0.34485,1.30878 -0.17723,0.28379 -0.48358,0.51598 -0.68077,0.51598 -0.61674,0 -1.89543,-1.07095 -1.89543,-1.5875 0,-0.27122 -0.36703,-0.75448 -0.81562,-1.0739 l -0.81561,-0.58077 -0.77204,0.57078 -0.77203,0.57079 -1.38891,-0.87393 c -0.7639,-0.48066 -1.71633,-1.0175 -2.11652,-1.19298 -0.40018,-0.17548 -0.7276,-0.44067 -0.7276,-0.58931 0,-0.14864 -0.21537,-0.27026 -0.4786,-0.27026 -0.26323,0 -0.70971,-0.17867 -0.99218,-0.39705 -0.50356,-0.38929 -0.50111,-0.40761 0.1252,-0.93752 0.45316,-0.3834 0.84933,-0.49422 1.3633,-0.38133 0.52856,0.11609 0.82091,0.0261 1.081,-0.33257 0.3833,-0.52867 1.53693,-1.05229 2.60545,-1.18257 0.61211,-0.0746 0.58259,-0.11997 -0.39569,-0.60762 -0.82977,-0.41362 -1.06866,-0.68924 -1.1107,-1.28147 -0.0872,-1.22913 -1.47549,-1.99696 -1.74528,-0.96529 -0.17952,0.6865 -0.88265,0.6794 -1.25303,-0.0127 -0.15949,-0.29801 -0.58756,-0.65497 -0.95127,-0.79326 -0.36371,-0.13828 -0.58757,-0.3707 -0.49746,-0.5165 0.0901,-0.14579 0.0502,-0.26508 -0.0888,-0.26508 -0.34961,0 -1.89528,-2.45711 -1.89528,-3.01286 0,-0.72571 0.7713,-2.01422 1.20572,-2.01422 0.21911,0 0.46692,-0.17859 0.55068,-0.39688 0.11637,-0.30325 0.61371,-0.39687 2.10836,-0.39687 1.87928,0 2.10758,0.0988 1.9874,0.8599 -0.0172,0.10914 0.19752,0.19843 0.47722,0.19843 0.63409,0 2.28867,1.89802 2.67498,3.06857 0.29678,0.89925 1.16913,1.41585 1.62354,0.96145 0.26232,-0.26232 4.49908,1.63134 4.67383,2.08901 0.17466,0.45742 0.84704,0.21608 1.52835,-0.54858 0.38203,-0.42876 1.0291,-0.85303 1.43794,-0.94282 0.88549,-0.19449 2.11542,0.37372 2.6967,1.24583 0.22319,0.33486 0.99141,1.27366 1.70714,2.08623 1.02681,1.16572 1.37503,1.80762 1.65063,3.04271 0.19211,0.86092 0.51314,1.80016 0.7134,2.0872 0.53646,0.76893 0.44478,1.55904 -0.25744,2.21874 -0.52166,0.49008 -0.73703,0.54001 -1.34014,0.31071 -0.92906,-0.35323 -0.94873,-0.35008 -0.94873,0.15197 0,0.25187 0.14816,0.36833 0.36347,0.28571 0.52848,-0.2028 1.06099,0.96419 0.87175,1.91043 -0.14874,0.74368 -0.0782,0.83716 0.98795,1.30876 0.63147,0.27933 1.23005,0.64043 1.33018,0.80244 0.10012,0.16201 0.35932,0.29456 0.576,0.29456 0.43245,0 1.66978,1.28277 1.68312,1.74493 0.0134,0.46363 0.92762,1.16549 1.51815,1.16549 0.29815,0 0.69031,0.17859 0.87146,0.39687 0.18116,0.21828 0.55052,0.39688 0.8208,0.39688 0.84066,0 2.71958,0.86362 3.42054,1.57221 0.3682,0.37221 0.96352,0.92653 1.32292,1.23183 0.3594,0.3053 0.77898,0.77123 0.93241,1.0354 0.19432,0.3346 0.63582,0.49604 1.45521,0.53211 1.7651,0.0777 3.42521,0.4067 3.42521,0.67879 0,0.24239 -0.60821,0.33867 -0.81748,0.1294 z m -18.52514,-16.17602 c 0.35205,-0.35205 -3.64644,-3.51018 -4.71473,-3.72384 -0.47056,-0.0941 -0.9938,-0.39246 -1.16276,-0.663 -0.16895,-0.27053 -0.51894,-0.49188 -0.77775,-0.49188 -0.37545,0 -0.43846,0.14705 -0.31172,0.7276 0.20647,0.9458 0.59425,2.05863 1.17551,3.37344 l 0.46788,1.05833 2.5912,-0.0697 c 1.42517,-0.0384 2.65473,-0.13327 2.73237,-0.21091 z m -8.54295,-4.98944 c -0.51218,-1.07933 -0.93151,-1.3486 -2.40922,-1.54708 -0.58209,-0.0782 -1.2667,-0.22615 -1.52136,-0.32882 -0.32131,-0.12953 -0.46302,-0.062 -0.46302,0.22069 0,0.22404 0.23813,0.48293 0.52917,0.5753 0.31412,0.0997 0.53081,0.40263 0.53321,0.74544 0.007,0.93838 0.35585,1.22919 1.4279,1.18888 0.72031,-0.0271 1.08676,0.0969 1.27364,0.43082 0.23607,0.42182 0.30317,0.42804 0.66917,0.062 0.366,-0.366 0.36204,-0.5011 -0.0395,-1.34727 z m -6.51027,-0.41845 c 0,-0.14552 -0.11906,-0.26458 -0.26458,-0.26458 -0.14552,0 -0.26458,0.11906 -0.26458,0.26458 0,0.14552 0.11906,0.26458 0.26458,0.26458 0.14552,0 0.26458,-0.11906 0.26458,-0.26458 z m 11.1125,-1.05833 c 0,-0.14552 -0.12609,-0.26459 -0.2802,-0.26459 -0.1541,0 -0.20661,0.11907 -0.11667,0.26459 0.0899,0.14552 0.21602,0.26458 0.2802,0.26458 0.0642,0 0.11667,-0.11906 0.11667,-0.26458 z m -10.9915,-1.56922 c 0.0837,-0.13547 0.0399,-0.31572 -0.0974,-0.40056 -0.13728,-0.0848 -0.39407,-0.59909 -0.57064,-1.14276 -0.17658,-0.54368 -0.69708,-1.35791 -1.15667,-1.80941 -0.76107,-0.74767 -0.97195,-0.81557 -2.36356,-0.76105 -0.84037,0.0329 -1.63243,0.16434 -1.76013,0.29205 -0.13319,0.13319 -0.0118,0.72454 0.28484,1.38701 0.43101,0.96267 0.61242,1.12988 1.09032,1.00491 0.85292,-0.22305 2.79954,0.382 3.44727,1.07147 0.6151,0.65475 0.8889,0.74189 1.12595,0.35834 z m 0.93734,13.43865 c -0.50933,-0.13597 -1.40229,-0.29288 -1.98438,-0.34869 -0.58208,-0.0558 -1.35599,-0.20672 -1.71979,-0.33534 -0.3638,-0.12862 -1.43233,-0.20525 -2.3745,-0.17029 -0.94218,0.0349 -1.86491,-0.0625 -2.05052,-0.21652 -0.43581,-0.36169 -0.4327,-1.1298 0.006,-1.49393 0.84971,-0.70519 6.50355,-0.0438 7.98358,0.93388 0.28704,0.18962 0.8484,0.34476 1.24746,0.34476 0.68531,0 1.27336,0.60291 1.27336,1.30552 0,0.33443 -1.08905,0.32556 -2.38125,-0.0194 z m -5.29167,-8.68803 c 0,-0.16624 -0.12423,-0.22547 -0.27606,-0.13163 -0.25544,0.15787 -1.82685,-1.36401 -1.83638,-1.7785 -0.006,-0.24923 -2.90145,-2.59422 -3.20348,-2.59422 -0.51716,0 -0.20221,0.55737 0.48727,0.86234 0.91373,0.40416 1.32059,0.91977 1.28473,1.62814 -0.0458,0.90539 -1.10926,0.85751 -1.99416,-0.0898 -0.41781,-0.44726 -1.01656,-0.8132 -1.33056,-0.8132 -0.31401,0 -0.49734,-0.11906 -0.4074,-0.26458 0.0985,-0.15945 -0.25462,-0.26459 -0.88879,-0.26459 -0.57877,0 -1.24064,-0.0723 -1.47082,-0.1606 -0.57778,-0.22171 -0.52642,-1.09241 0.0757,-1.28352 0.7019,-0.22277 2.28263,-0.25715 2.60698,-0.0567 0.15667,0.0968 0.34355,-0.17874 0.43655,-0.64372 0.15864,-0.79323 0.18982,-0.80844 1.27967,-0.62431 0.67474,0.114 1.38579,0.46382 1.79573,0.88347 0.37327,0.38211 1.45474,1.42569 2.40327,2.31907 1.338,1.2602 1.72175,1.78906 1.71189,2.35924 -0.007,0.4042 -0.16153,0.78451 -0.34343,0.84512 -0.1819,0.0606 -0.33073,-0.0258 -0.33073,-0.19204 z m -11.78953,-1.71781 c -0.28248,-0.21365 -0.77557,-0.39225 -1.09576,-0.39688 -0.32019,-0.005 -0.67738,-0.16574 -0.79375,-0.35804 -0.22897,-0.37835 -2.42932,-1.50245 -2.94095,-1.50245 -0.17234,0 -0.31334,0.11679 -0.31334,0.25954 0,0.44651 -1.15822,0.57521 -2.3899,0.26555 -0.65009,-0.16344 -1.65823,-0.32443 -2.24031,-0.35777 -1.04652,-0.0599 -1.27341,-0.43446 -0.64991,-1.07279 0.22237,-0.22766 2.14671,0.0438 3.60477,0.50844 0.46533,0.1483 0.59019,0.0662 0.66146,-0.43498 0.11122,-0.78218 0.79864,-0.91793 1.92988,-0.38112 0.48607,0.23066 0.96258,0.41938 1.05889,0.41938 0.40317,0 3.54203,1.64381 4.0596,2.126 0.98764,0.92012 0.1934,1.74508 -0.89068,0.92512 z m 3.18669,-6.87558 c -1.01373,-0.45458 -1.79581,-0.75397 -2.0451,-0.7829 -0.31529,-0.0366 -2.45071,-1.8069 -2.88977,-2.39568 -0.68031,-0.91229 -0.83154,-1.97803 -0.30913,-2.1785 0.2495,-0.0958 0.497,-0.044 0.54998,0.11492 0.2564,0.76919 3.02436,2.9812 3.73048,2.9812 0.55774,0 2.34948,1.01524 2.50445,1.41908 0.0809,0.21081 -0.055,0.56616 -0.30198,0.78968 -0.38571,0.34906 -0.56049,0.35642 -1.23893,0.0522 z m -2.3464,-5.68775 c -0.54159,-0.39185 -0.78109,-0.55043 -2.27993,-1.50957 -0.7269,-0.46515 -1.6893,-2.95716 -1.41654,-3.66795 0.26879,-0.70045 1.27173,-0.36771 1.36652,0.45337 0.0466,0.40364 0.54765,1.17798 1.15561,1.78594 0.82717,0.82716 1.27645,1.07333 1.95894,1.07333 0.64913,0 0.96932,0.15897 1.19911,0.59532 0.17242,0.32742 0.43209,0.67259 0.57703,0.76704 0.14494,0.0945 0.19482,0.35079 0.11084,0.56964 -0.20099,0.52377 -1.9144,0.48073 -2.67158,-0.0671 z m -2.74295,-6.74928 c -0.32742,-0.32738 -0.59531,-0.71785 -0.59531,-0.8677 0,-0.33853 -1.17306,-1.12706 -1.67667,-1.12706 -0.36239,0 -0.87851,-2.03094 -0.58955,-2.3199 0.21987,-0.21987 1.68851,0.48885 1.84203,0.88891 0.0787,0.20496 0.29556,0.37285 0.48203,0.37309 0.3127,4e-4 1.96203,1.58203 2.41639,2.3172 0.2804,0.4537 -0.29255,1.39167 -0.82989,1.35862 -0.24954,-0.0153 -0.72161,-0.29577 -1.04903,-0.62316 z m -4.89479,-4.5584 c -0.25466,-0.0666 -0.46302,-0.21955 -0.46302,-0.34001 0,-0.12045 -0.72923,-0.95277 -1.62051,-1.84961 -1.30818,-1.31632 -1.71763,-1.94262 -2.12436,-3.24945 -0.27711,-0.89037 -0.9171,-2.12318 -1.42219,-2.73958 -1.18096,-1.4412 -1.22245,-2.2223 -0.11806,-2.2223 0.60158,0 0.86032,0.15787 1.04202,0.63576 0.13294,0.34967 0.37038,0.71528 0.52765,0.81247 0.42964,0.26554 1.50295,2.52588 1.6994,3.57886 0.19815,1.06211 0.84286,1.71761 2.58001,2.62318 1.27979,0.66715 2.23272,1.89376 1.98094,2.54989 -0.14184,0.36962 -1.08702,0.46078 -2.08188,0.20079 z"
       id="path31"
       sodipodi:nodetypes="sssssssssssssssssssssssscsssssssscccssssssssssssssssssssssssssssssssssssssssssssssssssssssssccssssssscssssssssssssssssssssssssssssssssssssssscssssssssssssssssssscsssssssssssssssssssssssssssssssssssssssssssssssssssss" />
  </g>
</svg>
