<?xml version="1.0" encoding="UTF-8" standalone="no"?>
<!-- Created with Inkscape (http://www.inkscape.org/) -->

<svg
   width="77.486176mm"
   height="24.33927mm"
   viewBox="0 0 77.486176 24.339264"
   version="1.1"
   id="svg1"
   inkscape:version="1.4.1-rc (06eac75fbf, 2025-03-29)"
   sodipodi:docname="hillbush3.svg"
   xmlns:inkscape="http://www.inkscape.org/namespaces/inkscape"
   xmlns:sodipodi="http://sodipodi.sourceforge.net/DTD/sodipodi-0.dtd"
   xmlns="http://www.w3.org/2000/svg"
   xmlns:svg="http://www.w3.org/2000/svg">
  <sodipodi:namedview
     id="namedview1"
     pagecolor="#ffffff"
     bordercolor="#000000"
     borderopacity="0.25"
     inkscape:showpageshadow="2"
     inkscape:pageopacity="0.0"
     inkscape:pagecheckerboard="0"
     inkscape:deskcolor="#d1d1d1"
     inkscape:document-units="mm"
     inkscape:zoom="0.72248176"
     inkscape:cx="146.71651"
     inkscape:cy="46.367952"
     inkscape:window-width="1850"
     inkscape:window-height="1016"
     inkscape:window-x="0"
     inkscape:window-y="0"
     inkscape:window-maximized="1"
     inkscape:current-layer="layer1" />
  <defs
     id="defs1" />
  <g
     inkscape:label="Layer 1"
     inkscape:groupmode="layer"
     id="layer1"
     transform="translate(-66.410437,-106.62838)">
    <path
       style="fill:#000000"
       d="m 89.54454,130.73509 c -0.079,-0.12791 -0.69923,-0.16994 -1.37818,-0.0934 -0.79964,0.0901 -1.17603,0.0446 -1.0686,-0.12921 0.10548,-0.17068 -0.38334,-0.25705 -1.343,-0.23732 -1.24055,0.0255 -1.5252,-0.0513 -1.60081,-0.43199 -0.0746,-0.37575 0.0987,-0.46378 0.91962,-0.46707 1.23187,-0.005 1.55455,-0.20761 1.60464,-1.00788 0.0297,-0.47518 -0.18377,-0.7076 -0.93874,-1.02193 -0.53748,-0.22377 -1.0385,-0.50398 -1.11338,-0.62269 -0.0749,-0.11871 -0.37249,-0.19462 -0.66133,-0.1687 -0.36144,0.0324 -0.55158,-0.13848 -0.60986,-0.54818 -0.0543,-0.38212 0.0524,-0.59532 0.29821,-0.59532 0.21058,0 0.53904,-0.18817 0.72991,-0.41815 0.20411,-0.24593 0.6016,-0.36949 0.96511,-0.3 0.33994,0.065 0.70437,-0.0312 0.80984,-0.21381 0.10548,-0.18258 0.42989,-0.37622 0.72094,-0.43031 0.30685,-0.057 0.56472,-0.34757 0.61379,-0.69159 0.0465,-0.32628 0.5228,-0.91967 1.05834,-1.31865 0.53553,-0.39897 1.06891,-0.87493 1.18528,-1.05769 0.11638,-0.18277 0.45163,-0.3323 0.745,-0.3323 0.29338,0 0.79348,-0.14022 1.11133,-0.3116 0.31786,-0.17139 0.81605,-0.33743 1.10709,-0.36899 0.63327,-0.0687 1.92319,-0.3399 2.61867,-0.55063 1.82281,-0.5523 12.10024,-0.64953 12.27804,-0.11616 0.0536,0.16079 0.2361,0.21461 0.40558,0.11959 0.17789,-0.0997 0.16257,-0.0166 -0.0363,0.19679 -0.26252,0.2817 -1.30029,0.37806 -4.36562,0.40536 -3.79755,0.0338 -5.46893,0.14037 -7.97475,0.50834 -1.30147,0.19111 -5.20852,1.41145 -5.55826,1.73608 -0.13825,0.12832 -0.45293,0.23331 -0.6993,0.23331 -0.44819,0 -0.91103,0.74005 -0.6353,1.01579 0.0805,0.0805 1.1846,-0.0152 2.45363,-0.21267 1.26902,-0.19744 3.89709,-0.39172 5.84013,-0.43175 1.94305,-0.04 3.59029,-0.13023 3.66052,-0.20047 0.0702,-0.0702 0.38547,-0.0885 0.70052,-0.0405 0.31505,0.048 1.1455,0.16568 1.84544,0.26158 0.81245,0.11131 1.23101,0.28722 1.15755,0.48649 -0.0633,0.17168 -0.26392,0.27741 -0.44584,0.23496 -0.18193,-0.0425 -0.55176,0.12281 -0.82186,0.36724 -0.36406,0.32947 -0.58107,0.36975 -0.83894,0.15574 -0.2198,-0.18242 -1.366,-0.2536 -3.11381,-0.19336 -1.52129,0.0524 -2.76597,0.11664 -2.76597,0.14272 0,0.0516 -2.09157,0.25207 -3.57188,0.3423 -0.50932,0.031 -1.04606,0.13493 -1.19275,0.23085 -0.14669,0.0959 -1.42507,0.24787 -2.84085,0.33765 -3.93863,0.24976 -4.31764,0.62706 -1.6629,1.65535 1.30545,0.50566 1.97375,0.58785 4.37127,0.5376 2.09097,-0.0438 2.94551,0.0362 3.27162,0.30651 0.59306,0.49154 0.0739,1.13618 -0.86694,1.07655 -0.37541,-0.0238 -1.60531,-0.0306 -2.73309,-0.0152 -1.57434,0.0215 -2.05053,0.11462 -2.05053,0.40089 0,0.28421 0.44806,0.37706 1.88441,0.3905 1.48398,0.0139 1.95808,0.11739 2.23114,0.48704 0.19071,0.25817 0.26547,0.54347 0.16612,0.634 -0.34056,0.31037 -2.42958,0.51276 -2.42958,0.2354 0,-0.14724 -0.18562,-0.26771 -0.41249,-0.26771 -0.22687,0 -0.33891,0.11906 -0.24897,0.26458 0.0899,0.14552 -0.0151,0.26458 -0.23335,0.26458 -0.21828,0 -0.46156,-0.10465 -0.5406,-0.23255 z m -18.98712,-1.00652 c 0.191,-0.0764 0.4192,-0.067 0.50712,0.0209 0.0879,0.0879 -0.0683,0.15045 -0.34727,0.13896 -0.30822,-0.0127 -0.37091,-0.0754 -0.15985,-0.15985 z m 1.72401,-0.23902 c -0.17427,-0.45415 -1.40007,-0.48764 -2.33058,-0.0637 -0.52099,0.23738 -0.75404,0.23738 -0.99141,0 -0.17068,-0.17068 -0.67347,-0.31214 -1.1173,-0.31437 -1.01205,-0.005 -1.69851,-0.40088 -1.33162,-0.76777 0.17652,-0.17652 0.88079,-0.17619 2.11445,0.001 1.01737,0.14612 2.38555,0.19597 3.0404,0.11077 2.37333,-0.3088 3.16762,-0.24487 3.55688,0.28624 0.43737,0.59674 0.20716,0.73213 -1.65574,0.97373 -0.84322,0.10937 -1.17907,0.0503 -1.28508,-0.22593 z m 5.5355,-0.28464 c -0.43845,-0.17691 -0.42038,-0.7439 0.0358,-1.12246 0.27921,-0.23174 0.67298,-0.20103 1.65364,0.12894 1.5509,0.52184 1.64698,0.59843 1.14721,0.9145 -0.40695,0.25737 -2.26627,0.30916 -2.83661,0.079 z m 63.16926,-6.96898 c -0.3638,-0.11625 -1.35198,-0.22324 -2.19595,-0.23775 -0.84397,-0.0145 -1.87643,-0.2032 -2.29436,-0.41932 -0.48457,-0.25058 -0.79318,-0.29302 -0.85181,-0.11715 -0.0506,0.15169 -0.30386,0.19447 -0.56289,0.0951 -0.63302,-0.24291 -0.44191,-1.06053 0.22661,-0.96951 1.38333,0.18837 3.1961,0.18701 3.46341,-0.003 0.1642,-0.11647 0.61844,-0.0901 1.00941,0.0585 0.39098,0.14864 1.17161,0.27027 1.73475,0.27027 1.32335,0 2.38125,0.40849 2.38125,0.91949 0,0.26935 -0.25661,0.40342 -0.77211,0.40342 -0.42466,0 -0.93068,0.0475 -1.12448,0.10546 -0.1938,0.058 -0.65002,0.0103 -1.01383,-0.10592 z m -59.79583,-0.43026 c -0.3638,-0.0481 -1.79255,-0.21858 -3.175,-0.37872 -1.38244,-0.16014 -2.69213,-0.35948 -2.91041,-0.44298 -0.21828,-0.0835 -0.58701,-0.12913 -0.81939,-0.10139 -0.58162,0.0694 -1.23583,-0.7105 -0.73176,-0.87237 0.8899,-0.28578 2.25543,-0.33385 2.7105,-0.0954 0.27384,0.14348 1.94071,0.29536 3.70416,0.3375 1.76346,0.0421 3.5337,0.16152 3.93388,0.26529 1.05281,0.27301 0.90468,0.87121 -0.26458,1.06847 -0.5457,0.0921 -1.17078,0.19883 -1.38906,0.23728 -0.21828,0.0384 -0.69453,0.0305 -1.05834,-0.0177 z m 45.37605,-0.54081 c -0.95003,-0.20905 -1.98438,-0.67545 -1.98438,-0.89478 0,-0.9287 4.49029,-0.28298 4.86748,0.69995 0.11144,0.29042 -0.13249,0.36588 -1.10547,0.34196 -0.68666,-0.0169 -1.48659,-0.0831 -1.77763,-0.14713 z m -18.80623,-2.30774 c -0.59352,-0.45195 -1.36743,-1.19923 -1.71979,-1.66061 l -0.64065,-0.83888 -4.23333,0.058 c -2.76199,0.0378 -4.44024,0.17169 -4.82865,0.38517 -0.32742,0.17996 -0.59531,0.21388 -0.59531,0.0754 0,-0.13851 0.14883,-0.31189 0.33073,-0.38529 0.1819,-0.0734 -0.0106,-0.14285 -0.42774,-0.15434 -0.62281,-0.0172 -0.73464,0.0702 -0.62526,0.48848 0.0902,0.3449 0.0216,0.46656 -0.21235,0.37677 -0.19005,-0.0729 -0.62306,0.0434 -0.96224,0.25841 -0.86311,0.54725 -2.33648,0.82998 -2.33648,0.44836 0,-0.16567 -0.11906,-0.22764 -0.26458,-0.1377 -0.14552,0.0899 -0.26458,0.0374 -0.26458,-0.11668 0,-0.15411 0.0343,-0.2802 0.0761,-0.2802 0.0419,0 1.08368,-0.34501 2.31511,-0.76669 1.23142,-0.42167 2.81527,-0.8473 3.51966,-0.94584 0.70439,-0.0985 1.53782,-0.25161 1.85208,-0.34017 0.31426,-0.0886 1.88107,-0.1831 3.4818,-0.21009 3.88188,-0.0654 3.83646,-0.0592 3.83646,-0.52797 0,-0.22523 0.31504,-0.70148 0.70009,-1.05833 1.52815,-1.41624 6.15423,-0.43555 7.85154,1.66445 0.41264,0.51055 0.7166,0.59132 2.11666,0.56247 0.92288,-0.019 2.15334,0.15236 2.82546,0.39352 0.65484,0.23496 1.39479,0.42893 1.64433,0.43105 0.47442,0.004 1.0015,0.74972 1.0015,1.4169 0,0.49228 -0.93327,0.289 -1.82162,-0.39678 -0.34704,-0.2679 -1.03165,-0.4871 -1.52135,-0.4871 -0.4897,0 -0.89036,-0.13364 -0.89036,-0.29698 0,-0.20356 -0.10404,-0.21301 -0.33073,-0.0301 -0.34835,0.28114 -5.39829,0.24247 -5.68429,-0.0435 -0.0902,-0.0902 0.0654,-0.34464 0.34579,-0.56535 0.49823,-0.39214 0.49521,-0.41167 -0.13261,-0.85716 -0.80662,-0.57235 -3.13288,-1.1294 -3.9216,-0.93905 -0.63385,0.15296 -0.81782,0.83753 -0.26458,0.98453 0.1819,0.0483 0.92274,0.22981 1.64631,0.40329 1.57365,0.37728 1.63277,0.42351 1.20326,0.94104 -0.3686,0.44414 -1.7703,0.53395 -2.37392,0.15209 -0.21133,-0.13369 -0.4924,-0.17623 -0.62459,-0.0945 -0.1322,0.0817 0.26102,0.58036 0.87381,1.10814 1.0666,0.91862 1.09326,0.97767 0.62459,1.38332 -0.45518,0.39397 -0.56537,0.36602 -1.56871,-0.39798 z m 27.53747,-0.95402 c -0.0899,-0.14552 -0.34647,-0.26458 -0.57008,-0.26458 -0.22361,0 -0.74407,-0.24033 -1.15658,-0.53406 l -0.75002,-0.53406 -0.38853,0.5547 c -0.36998,0.52822 -0.42769,0.53444 -1.20905,0.13039 -0.51522,-0.26643 -0.82053,-0.62733 -0.82053,-0.96994 0,-0.48759 -0.1097,-0.5271 -1.03118,-0.37141 -0.65228,0.1102 -1.09813,0.0659 -1.2134,-0.12063 -0.24862,-0.40228 0.34521,-1.06541 0.95406,-1.06541 0.53127,0 0.66875,-0.39165 0.23219,-0.66146 -0.38617,-0.23867 -0.32349,-1.60611 0.0893,-1.94872 0.36621,-0.30392 0.74302,0.19211 1.08375,1.42663 0.12414,0.44979 0.32079,0.51977 1.21964,0.43405 1.2852,-0.12256 1.25619,-0.50062 -0.0948,-1.23488 -1.32436,-0.7198 -1.35357,-1.55729 -0.049,-1.40499 1.29524,0.15121 1.15342,-0.20386 -0.37615,-0.94175 -1.53942,-0.74264 -2.19086,-0.92133 -4.02409,-1.10381 -1.10639,-0.11013 -1.47721,-0.0389 -1.92467,0.36989 -1.09076,0.99639 -2.24435,0.95791 -1.85305,-0.0618 0.23718,-0.61809 2.24684,-1.63548 3.15088,-1.59514 3.08242,0.13754 4.0103,0.45799 7.17088,2.47651 0.78008,0.4982 1.51659,1.96228 1.31177,2.60762 -0.28421,0.89545 0.12635,1.86548 1.02446,2.42054 1.05457,0.65176 1.62604,1.75693 1.18394,2.28963 -0.35132,0.42331 -1.71741,0.49488 -1.9598,0.10268 z m -13.72824,-1.8034 c -0.2175,-0.35193 -2.90965,-1.63618 -3.4299,-1.63618 -0.24015,0 -0.43665,-0.1786 -0.43665,-0.39688 0,-0.75122 3.52503,-0.34923 4.37295,0.49869 0.23504,0.23505 0.54619,0.42735 0.69144,0.42735 0.14525,0 0.22604,0.26789 0.17954,0.59531 -0.0872,0.61388 -1.08511,0.98462 -1.37738,0.51171 z m 4.46783,-1.10702 c -0.26339,-0.29104 -0.62629,-0.52916 -0.80645,-0.52916 -0.18016,0 -0.39609,-0.1786 -0.47986,-0.39688 -0.0854,-0.22251 -0.47899,-0.39687 -0.89591,-0.39687 -0.48685,0 -1.06158,-0.30883 -1.66444,-0.89439 -0.50644,-0.4919 -1.15781,-0.93961 -1.44749,-0.99489 -0.29385,-0.0561 -0.5625,-0.35056 -0.6077,-0.66614 -0.0446,-0.31111 -0.28268,-0.63921 -0.52916,-0.72913 -0.24649,-0.0899 -0.74483,-0.33575 -1.10742,-0.54628 -0.59855,-0.34753 -0.67604,-0.33745 -0.84136,0.10945 -0.19921,0.53852 -0.74834,0.98403 -0.74834,0.60713 0,-0.12929 -0.24716,-0.22561 -0.54925,-0.21405 -0.40677,0.0156 -0.64066,-0.24148 -0.90163,-0.99087 -0.19381,-0.55653 -0.41161,-1.07111 -0.484,-1.1435 -0.0724,-0.0724 -1.01941,-0.21642 -2.10448,-0.32007 l -1.97285,-0.18845 0.46245,0.82335 c 0.7651,1.3622 -0.22119,2.39123 -1.06671,1.11294 -0.78461,-1.18619 -0.78106,-1.69728 0.0171,-2.46196 0.70348,-0.67399 0.86687,-0.71168 2.55989,-0.59054 1.38868,0.0994 2.08273,0.30404 2.99011,0.88183 0.65819,0.4191 1.61799,0.77692 2.16659,0.8077 0.95272,0.0535 2.58575,0.90275 4.18842,2.17826 0.60392,0.48063 0.95669,0.57696 1.59752,0.43621 0.74743,-0.16416 0.80641,-0.13013 0.64666,0.3732 -0.13593,0.42827 -0.0219,0.62393 0.50283,0.86302 0.37323,0.17006 0.6786,0.4263 0.6786,0.56942 0,0.14312 0.43763,0.63851 0.9725,1.10087 0.67433,0.58291 0.92023,0.97683 0.80205,1.28481 -0.22851,0.59548 -0.79338,0.56063 -1.37767,-0.085 z m -6.91578,-2.51354 c -0.21182,-0.55199 0.10107,-1.25699 0.49977,-1.12608 0.51982,0.17069 0.58666,1.52296 0.0753,1.52296 -0.23251,0 -0.49129,-0.1786 -0.57505,-0.39688 z"
       id="path29"
       sodipodi:nodetypes="sssssssssssssssssssssssssssssssssssssssssssssssssssssssssssssssssssscssssssssssssscssssscsssssccssssssssssssssssscscssssssscsssssssssssssssssssssssssssssscccsscsssssssssssssscssssssccsssssssssssssssssssssscssssssssssssssssssss" />
  </g>
</svg>
