<?xml version="1.0" encoding="UTF-8" standalone="no"?>
<!-- Created with Inkscape (http://www.inkscape.org/) -->

<svg
   width="147.00467mm"
   height="29.756189mm"
   viewBox="0 0 147.00467 29.756182"
   version="1.1"
   id="svg1"
   inkscape:version="1.4.1-rc (06eac75fbf, 2025-03-29)"
   sodipodi:docname="hillbush2.svg"
   xmlns:inkscape="http://www.inkscape.org/namespaces/inkscape"
   xmlns:sodipodi="http://sodipodi.sourceforge.net/DTD/sodipodi-0.dtd"
   xmlns="http://www.w3.org/2000/svg"
   xmlns:svg="http://www.w3.org/2000/svg">
  <sodipodi:namedview
     id="namedview1"
     pagecolor="#ffffff"
     bordercolor="#000000"
     borderopacity="0.25"
     inkscape:showpageshadow="2"
     inkscape:pageopacity="0.0"
     inkscape:pagecheckerboard="0"
     inkscape:deskcolor="#d1d1d1"
     inkscape:document-units="mm"
     inkscape:zoom="0.72248176"
     inkscape:cx="276.8236"
     inkscape:cy="56.056778"
     inkscape:window-width="1850"
     inkscape:window-height="1016"
     inkscape:window-x="0"
     inkscape:window-y="0"
     inkscape:window-maximized="1"
     inkscape:current-layer="layer1" />
  <defs
     id="defs1" />
  <g
     inkscape:label="Layer 1"
     inkscape:groupmode="layer"
     id="layer1"
     transform="translate(-32.014616,-103.98254)">
    <path
       style="fill:#000000"
       d="m 35.2787,133.52635 c -0.43706,-0.70718 0.76556,-1.90981 1.47275,-1.47274 0.4149,0.25642 0.21721,0.94758 -0.3105,1.08558 -0.29104,0.0761 -0.52917,0.24356 -0.52917,0.37211 0,0.29519 -0.45328,0.30597 -0.63308,0.0151 z m 141.2032,-2.13664 c -1.5175,-1.7051 -3.40636,-2.88715 -3.87102,-2.42248 -0.35999,0.35999 -1.19966,0.35606 -2.25128,-0.0105 -0.69537,-0.24241 -0.8339,-0.42846 -0.83728,-1.12448 -0.003,-0.53943 -0.081,-0.71273 -0.22188,-0.49063 -0.32201,0.50764 -3.47676,-0.0346 -4.01461,-0.69005 -0.22224,-0.27083 -0.73672,-0.57591 -1.14328,-0.67795 -0.85212,-0.21387 -0.80949,-0.81262 0.0611,-0.85812 0.57143,-0.0299 2.21849,0.4552 3.14325,0.92568 0.25282,0.12862 0.81686,0.39229 1.25342,0.58592 0.43656,0.19364 1.10978,0.56472 1.49605,0.82462 0.46548,0.31321 1.19974,0.47256 2.17746,0.47256 1.60049,0 3.60253,0.65403 3.60253,1.17688 0,0.17912 0.32228,0.47252 0.71619,0.652 0.3939,0.17947 0.8769,0.55577 1.07333,0.83622 0.19643,0.28044 0.52673,0.5099 0.73398,0.5099 0.41819,0 0.79938,1.13417 0.5285,1.57246 -0.37029,0.59915 -1.12363,0.20439 -2.44647,-1.28199 z m -138.40814,0.47751 c -0.19061,-0.30521 -0.30855,-0.57937 -0.26208,-0.60924 1.21566,-0.78159 1.74688,-1.04925 2.19052,-1.1037 0.29688,-0.0364 1.49229,-0.18699 2.65646,-0.33456 1.16416,-0.14756 2.4232,-0.20781 2.79785,-0.13388 0.47266,0.0933 0.91815,-0.0621 1.45521,-0.50765 0.71109,-0.58988 0.96762,-0.63622 3.15527,-0.56999 1.30969,0.0396 3.05062,0.13056 3.86875,0.20203 1.38835,0.12128 1.57695,0.0652 2.82965,-0.84105 0.73819,-0.53404 1.34874,-1.04735 1.35678,-1.14069 0.0247,-0.2872 -2.06328,-1.01975 -2.96731,-1.04105 -1.03002,-0.0243 -2.64032,-0.57471 -2.76365,-0.94469 -0.1074,-0.32222 1.05605,-0.88726 1.82692,-0.88726 0.59241,0 5.01737,1.80806 5.24555,2.14336 0.075,0.11014 0.70302,0.0794 1.39571,-0.0684 l 1.25942,-0.26861 -0.64368,-0.50632 c -0.35403,-0.27848 -0.74436,-0.50632 -0.8674,-0.50632 -0.3316,0 -1.6772,-1.48955 -1.6772,-1.85663 0,-0.18373 -0.18067,-0.24732 -0.43041,-0.15149 -0.23673,0.0908 -0.61224,0.0143 -0.83448,-0.17013 -0.2489,-0.20654 -1.07423,-0.32006 -2.14927,-0.29562 -0.95987,0.0218 -1.89404,-0.0821 -2.07594,-0.23083 -0.22882,-0.18715 -0.33073,-0.179 -0.33073,0.0265 0,0.16334 -0.24119,0.29698 -0.53596,0.29698 -0.51034,0 -0.51634,0.038 -0.1255,0.79375 0.41634,0.8051 0.36628,0.89204 -0.46483,0.80728 -0.25565,-0.0261 -0.54593,0.16858 -0.64506,0.43255 -0.0991,0.26398 -0.36621,0.61989 -0.59351,0.79092 -0.358,0.26939 -0.31597,0.34812 0.31434,0.58877 0.40018,0.15279 0.7276,0.41369 0.7276,0.57979 0,0.17168 0.22823,0.24231 0.5289,0.16368 0.75553,-0.19758 0.87358,0.18565 0.28001,0.90893 -0.43087,0.52502 -0.58652,0.57206 -0.99077,0.29946 -0.26378,-0.17788 -0.88363,-0.52697 -1.37744,-0.77576 -0.87372,-0.44019 -0.9104,-0.43684 -1.36533,0.12498 -0.64094,0.79152 -1.51897,0.75356 -1.72684,-0.0747 -0.09,-0.35859 -0.36502,-0.7159 -0.61115,-0.79402 -0.7003,-0.22226 -2.77149,-0.0951 -3.1379,0.19271 -0.22004,0.17281 -0.45362,0.15775 -0.69793,-0.045 -0.2707,-0.22465 -0.69903,-0.23038 -1.62981,-0.0218 -0.87418,0.19591 -1.34728,0.1983 -1.5378,0.008 -0.44627,-0.44626 -0.74699,-0.31555 -0.56842,0.24708 0.1519,0.47859 0.0602,0.51394 -1.09645,0.42281 -0.87449,-0.0689 -1.34661,0.0153 -1.53699,0.27402 -0.29164,0.39639 -4.06029,1.56589 -4.29373,1.33245 -0.16175,-0.16175 1.58396,-1.75558 2.39844,-2.18978 2.13171,-1.1364 6.22409,-1.84075 6.65394,-1.14523 0.12281,0.1987 0.3147,0.16757 0.61523,-0.0998 0.32835,-0.29215 1.14135,-0.38581 3.27579,-0.37738 3.02523,0.0119 3.73595,-0.22695 3.58987,-1.20669 -0.0673,-0.45168 -0.29223,-0.53315 -1.53412,-0.55576 -0.80036,-0.0146 -1.60404,-0.12126 -1.78594,-0.2371 -0.18419,-0.11729 -0.33073,-0.0938 -0.33073,0.053 0,0.14838 -0.37579,0.20515 -0.85989,0.12991 -0.59594,-0.0926 -1.25017,0.0661 -2.13128,0.51721 -1.28824,0.6595 -2.30049,0.67234 -2.30049,0.0292 0,-0.47104 1.63945,-1.70135 2.27393,-1.70645 0.79536,-0.006 1.04784,-0.30303 1.42496,-1.67422 0.26327,-0.95724 0.57541,-1.42577 1.23391,-1.85208 0.55207,-0.35743 0.8827,-0.78649 0.88476,-1.14817 0.005,-0.82043 0.5446,-0.9191 5.18092,-0.94672 3.80741,-0.0227 4.1451,0.0156 4.86997,0.55148 0.42838,0.31671 0.99798,0.57585 1.26579,0.57585 0.65164,0 2.70951,1.35278 2.70951,1.78115 0,0.26199 0.10998,0.27131 0.47937,0.0406 0.47838,-0.29876 0.94595,-0.13444 2.54263,0.89356 1.5577,1.0029 3.02454,3.05539 2.63455,3.68641 -0.10132,0.16395 -0.0205,0.22572 0.1936,0.14793 0.20215,-0.0734 0.33333,-0.28086 0.2915,-0.46093 -0.0418,-0.18006 0.12805,-0.47663 0.37752,-0.65905 0.39386,-0.288 0.40953,-0.43802 0.11899,-1.13944 -0.26084,-0.62974 -0.26795,-1.12875 -0.0323,-2.2641 0.32061,-1.54437 0.80399,-2.18371 1.46052,-1.93178 0.22845,0.0877 0.40024,0.009 0.40024,-0.18416 0,-0.18577 0.50602,-0.44992 1.12448,-0.58701 l 1.12448,-0.24926 0.081,-1.41986 c 0.0653,-1.14401 -0.0147,-1.48693 -0.41181,-1.76507 -0.40498,-0.28366 -0.50002,-0.72649 -0.53309,-2.48377 l -0.0402,-2.13857 0.95096,-0.39734 c 0.87271,-0.36464 0.98024,-0.35911 1.30692,0.0672 0.31154,0.40656 0.39023,0.415 0.6306,0.0676 0.24078,-0.34795 0.31774,-0.34067 0.62433,0.0591 0.29693,0.38714 0.47232,0.40966 1.16221,0.14926 0.70507,-0.26614 0.97303,-0.22153 2.02652,0.33734 0.66771,0.35422 1.21495,0.82284 1.21608,1.04137 0.001,0.21853 0.32088,0.54538 0.71054,0.72633 0.58298,0.27072 0.81346,0.26021 1.30109,-0.0593 0.41669,-0.27302 0.62251,-0.29859 0.69333,-0.0861 0.0554,0.16619 0.68937,0.33502 1.40883,0.37517 1.73893,0.0971 3.57009,0.66653 3.91828,1.21854 0.46226,0.73283 0.009,0.84006 -2.0134,0.47672 -1.05583,-0.18965 -2.09828,-0.36608 -2.31656,-0.39207 -0.21828,-0.026 -0.59593,-0.1373 -0.83922,-0.24736 -0.5479,-0.24785 -1.54203,0.25243 -1.54203,0.776 0,0.21316 0.23109,0.38756 0.51355,0.38756 0.28245,0 0.58713,0.11906 0.67707,0.26459 0.0899,0.14552 0.38073,0.26458 0.64622,0.26458 0.26548,0 0.54496,0.23812 0.62107,0.52917 0.10883,0.41617 0.3609,0.52916 1.18048,0.52916 1.15411,0 2.04566,0.68803 1.67296,1.29106 -0.15503,0.25084 -0.27125,0.26698 -0.40177,0.0558 -0.10101,-0.16343 -0.28232,-0.23616 -0.40293,-0.16162 -0.1206,0.0745 -0.82808,-0.0611 -1.57217,-0.30142 -0.74409,-0.24031 -1.42806,-0.36176 -1.51993,-0.26989 -0.31337,0.31338 0.50053,0.97358 1.20023,0.97358 0.83436,0 2.21181,1.19158 2.09266,1.81029 -0.0465,0.24127 -0.23168,0.42676 -0.41159,0.41221 -0.17991,-0.0145 -0.63591,-0.0443 -1.01333,-0.0661 -0.4282,-0.0248 -0.73524,-0.22711 -0.81657,-0.53812 -0.0883,-0.33763 -0.2937,-0.45571 -0.63669,-0.36602 -0.27849,0.0728 -0.50635,-5.3e-4 -0.50635,-0.16303 0,-0.16249 -0.17859,-0.29544 -0.39687,-0.29544 -0.21828,0 -0.39688,0.11906 -0.39688,0.26459 0,0.14552 0.11907,0.26458 0.26459,0.26458 0.41152,0 0.31116,0.79248 -0.12138,0.95846 -0.21228,0.0815 -0.83736,-0.006 -1.38907,-0.19423 -0.5517,-0.18828 -1.15499,-0.31228 -1.34064,-0.27554 -0.18565,0.0367 -0.6619,-0.16163 -1.05833,-0.44082 -1.03898,-0.7317 -1.71271,-0.87017 -2.253,-0.46304 -0.4544,0.34241 -0.45315,0.3936 0.0303,1.24602 0.33053,0.58281 0.67596,0.86689 1.00304,0.82492 0.71928,-0.0923 2.18261,-0.1343 3.44615,-0.0989 1.33519,0.0374 2.53115,0.86156 2.01369,1.38771 -0.18191,0.18496 -0.33073,0.6031 -0.33073,0.92921 0,0.32611 -0.12583,0.67069 -0.27962,0.76574 -0.39663,0.24513 -1.458,-0.0649 -1.96795,-0.57487 -0.23787,-0.23786 -0.87127,-0.4585 -1.40757,-0.4903 -1.65721,-0.0983 -3.26097,-0.51285 -4.23765,-1.09551 -0.0482,-0.0287 0.0453,-0.30057 0.20774,-0.60408 0.20968,-0.39178 0.21429,-0.70325 0.0159,-1.07393 -0.24619,-0.46001 -0.49115,-0.50834 -2.05983,-0.4064 -1.54845,0.10062 -1.85577,0.20953 -2.35884,0.836 -0.51869,0.64591 -0.53514,0.75197 -0.15932,1.02678 0.36675,0.26817 0.33985,0.32982 -0.21531,0.49335 l -0.63444,0.1869 0.62297,0.25277 c 0.37137,0.15069 0.56624,0.40059 0.48252,0.61878 -0.0935,0.24377 0.11854,0.41779 0.63508,0.5211 1.11916,0.22383 1.16985,0.20899 1.16985,-0.34256 0,-0.27507 0.0893,-0.59027 0.19844,-0.70043 0.10914,-0.11016 0.19844,-0.47108 0.19844,-0.80204 0,-0.7524 0.23462,-0.89675 0.99218,-0.61044 0.70503,0.26646 0.77834,0.90708 0.1444,1.26184 -0.38079,0.21311 -0.40225,0.35915 -0.13796,0.93919 0.18766,0.41188 0.5285,0.68685 0.85138,0.68685 0.29613,0 0.74517,0.10746 0.99786,0.23879 0.75224,0.391 2.42889,0.75532 4.95734,1.0772 1.30969,0.16673 2.49436,0.41509 2.63261,0.55191 0.13824,0.13682 0.45109,0.24877 0.69521,0.24877 0.24411,0 0.59392,0.18082 0.77734,0.40183 0.27292,0.32885 0.24733,0.49706 -0.1409,0.92604 -0.55382,0.61197 -0.75432,0.64316 -1.24361,0.19348 -0.4934,-0.45346 -1.46586,-0.99219 -1.79101,-0.99219 -0.1475,0 -0.26818,0.19899 -0.26818,0.44219 0,0.2432 -0.17408,0.63455 -0.38685,0.86965 -0.226,0.24973 -0.32265,0.67296 -0.23246,1.01787 0.14078,0.53833 0.26527,0.5757 1.41129,0.42368 0.78323,-0.1039 1.32271,-0.0602 1.43155,0.11588 0.0961,0.15544 0.34522,0.21717 0.55368,0.13718 0.20845,-0.08 0.72904,0.1038 1.15685,0.40843 0.42781,0.30463 0.96292,0.55387 1.18914,0.55387 0.62473,0 2.27124,0.88585 2.27863,1.22593 0.0116,0.53579 -1.26979,0.58705 -1.73814,0.0695 -0.23926,-0.26439 -0.51015,-0.46132 -0.60196,-0.43764 -0.41397,0.10681 -2.34453,-0.40708 -2.9178,-0.77668 -0.64416,-0.4153 -2.63358,-0.65808 -5.38371,-0.65701 -0.83599,3.3e-4 -1.58565,-0.10565 -1.66591,-0.23551 -0.0804,-0.13015 -0.38153,-0.0901 -0.6709,0.0892 -0.42932,0.26603 -0.57097,0.25299 -0.77743,-0.0716 -0.37859,-0.59516 -0.3153,-0.79375 0.25299,-0.79375 0.82971,0 0.89606,-0.49772 0.0926,-0.69444 -0.40613,-0.0994 -0.82145,-0.30817 -0.92294,-0.46386 -0.31637,-0.48537 -1.3775,-0.32402 -1.96249,0.29841 -0.30773,0.32742 -0.68666,0.59531 -0.84207,0.59531 -0.36704,0 -0.6393,-0.8678 -0.43736,-1.39406 0.19365,-0.50466 -0.50906,-1.92539 -1.05618,-2.13533 -0.25575,-0.0982 -0.64288,0.16299 -1.06812,0.72051 -0.80533,1.05585 -0.83397,1.38057 -0.13781,1.56262 0.29105,0.0761 0.52917,0.33615 0.52917,0.57786 0,0.31943 -0.1449,0.39348 -0.53047,0.27111 -0.33006,-0.10476 -0.58217,-0.0336 -0.66732,0.18827 -0.0932,0.2428 -0.54906,0.33943 -1.42826,0.30276 -1.07377,-0.0448 -1.31364,0.0312 -1.42335,0.45066 -0.11533,0.44105 -0.23438,0.46882 -0.94621,0.22067 -1.1473,-0.39995 -2.97798,0.33908 -4.10683,1.65788 -0.86755,1.01354 -1.55348,1.27676 -1.89349,0.72662 -0.0986,-0.15951 -0.55209,-0.2333 -1.0078,-0.16397 -0.45571,0.0693 -1.02442,0.0237 -1.2638,-0.1013 -0.28884,-0.15088 -0.54293,-0.0976 -0.75539,0.15841 -0.20953,0.25247 -0.47052,0.30913 -0.75538,0.164 -1.1573,-0.58966 -2.12637,-0.55084 -2.92001,0.11697 -0.55718,0.46883 -1.07855,0.65326 -1.79599,0.63531 -1.66736,-0.0417 -5.17693,0.18046 -6.227,0.39422 -0.54052,0.11003 -1.12065,0.3662 -1.28917,0.56926 -0.4136,0.49835 -0.58263,0.46664 -0.99005,-0.18574 z m 38.71418,-4.99814 c 0.25652,-0.41505 -1.0608,-1.64941 -1.85307,-1.73638 -0.39616,-0.0435 -1.03381,-0.37084 -1.417,-0.72746 -0.5431,-0.50544 -0.92171,-0.62847 -1.71716,-0.55802 -0.56125,0.0497 -1.18633,0.22805 -1.38907,0.39631 -0.28023,0.23257 -0.46376,0.22695 -0.76548,-0.0235 -0.33421,-0.27736 -0.39688,-0.22816 -0.39688,0.31156 0,0.94794 0.44174,1.26408 1.38736,0.99288 0.44255,-0.12693 0.9274,-0.15491 1.07743,-0.0622 0.15003,0.0927 0.57957,0.1955 0.95452,0.2284 1.90593,0.16721 3.45986,0.6992 3.45986,1.18448 0,0.33338 0.45226,0.32917 0.65949,-0.006 z m -12.34785,-1.55622 c 0.28206,-0.17883 0.24355,-0.44826 -0.19799,-1.38501 -1.09339,-2.31968 -1.65571,-2.71618 -7.82511,-5.51761 -1.85329,-0.84155 -2.84252,-1.04494 -5.78,-1.18836 -2.2839,-0.11151 -2.98443,-0.0597 -3.43231,0.25404 -0.3095,0.21678 -0.77436,0.39415 -1.03302,0.39415 -0.30713,0 -0.4703,0.20051 -0.4703,0.57793 0,0.31785 -0.24716,1.0885 -0.54926,1.71254 -0.30209,0.62404 -0.47229,1.25915 -0.37822,1.41136 0.0941,0.15221 0.78772,0.27734 1.54145,0.27807 0.75372,7.3e-4 1.90619,0.0135 2.56103,0.0284 0.65485,0.0149 1.72641,-0.11657 2.38125,-0.29212 2.28492,-0.61253 4.80029,-0.72426 6.67788,-0.29663 1.36272,0.31037 3.27233,1.48763 3.5045,2.1605 0.0798,0.23136 0.47059,0.58854 0.86836,0.79375 0.39777,0.2052 0.8788,0.58145 1.06895,0.83611 0.38656,0.51769 0.55528,0.55466 1.06279,0.23289 z m 4.28002,-0.8282 c 0,-0.14553 -0.0525,-0.26459 -0.11667,-0.26459 -0.0642,0 -0.19026,0.11906 -0.2802,0.26459 -0.0899,0.14552 -0.0374,0.26458 0.11668,0.26458 0.1541,0 0.28019,-0.11906 0.28019,-0.26458 z m 10.05417,-4.0702 c 0,-0.0558 -0.29766,-0.15835 -0.66146,-0.22789 -0.3638,-0.0696 -0.66146,-0.0239 -0.66146,0.10144 0,0.12534 0.29766,0.2279 0.66146,0.2279 0.3638,0 0.66146,-0.0457 0.66146,-0.10145 z m -2.91042,-5.15715 c 0,-0.35278 -0.19108,-0.49609 -0.66145,-0.49609 -0.72853,0 -0.8265,0.19215 -0.34396,0.67469 0.47636,0.47636 1.00541,0.38238 1.00541,-0.1786 z m -2.91041,-0.17367 c 0,-0.5441 -0.7911,-0.82096 -1.06758,-0.37361 -0.29293,0.47398 -0.0761,0.77879 0.55403,0.77879 0.28478,0 0.51355,-0.18049 0.51355,-0.40518 z m 6.35,0.1406 c 0,-0.14552 -0.11906,-0.26458 -0.26459,-0.26458 -0.14552,0 -0.26458,0.11906 -0.26458,0.26458 0,0.14552 0.11906,0.26458 0.26458,0.26458 0.14553,0 0.26459,-0.11906 0.26459,-0.26458 z m -7.84656,-3.38499 c -0.16445,-0.62885 -0.48318,-0.75478 -0.76328,-0.30157 -0.0959,0.1552 0.0457,0.44312 0.3147,0.63982 0.59742,0.43685 0.6424,0.40294 0.44858,-0.33825 z m 1.40526,-0.1983 c 0.0862,-0.22455 0.0853,-0.47965 -0.002,-0.56687 -0.18845,-0.18844 -0.96513,0.40946 -0.96513,0.74297 0,0.39928 0.80231,0.25318 0.96704,-0.1761 z m 3.73562,-0.69729 c -0.0572,-0.1715 -0.33498,-0.43939 -0.61736,-0.59531 -0.28238,-0.15592 -0.58339,-0.37831 -0.66891,-0.4942 -0.0855,-0.11589 -0.56178,-0.23779 -1.05834,-0.27089 -0.49656,-0.0331 -1.04619,-0.15029 -1.2214,-0.26041 -0.44125,-0.27733 -1.66581,0.0657 -1.66581,0.46667 0,0.189 0.3093,0.3169 0.7276,0.30088 0.40018,-0.0153 1.26339,0.23749 1.91823,0.56181 1.29385,0.64079 2.75742,0.80574 2.58599,0.29145 z m -4.29775,20.69774 c -0.095,-0.15374 -0.46311,-0.20664 -0.818,-0.11757 -0.50576,0.12694 -0.64524,0.0585 -0.64524,-0.31653 0,-0.37215 -0.0705,-0.40792 -0.3175,-0.16098 -0.45654,0.45654 -1.00542,0.39082 -1.00542,-0.12038 0,-0.40242 -0.038,-0.4035 -0.46906,-0.0134 -0.32092,0.29043 -0.5925,0.34644 -0.8599,0.17735 -0.21495,-0.13593 -0.8135,-0.24897 -1.3301,-0.25119 -0.5166,-0.002 -1.06871,-0.13349 -1.22691,-0.29169 -0.20712,-0.20713 -0.33752,-0.20693 -0.46585,7.1e-4 -0.12583,0.20361 -0.33061,0.20679 -0.69678,0.0108 -0.28522,-0.15264 -0.6111,-0.22035 -0.72418,-0.15046 -0.11309,0.0699 -0.37852,0.0159 -0.58985,-0.12006 -0.33439,-0.21506 -0.33275,-0.28092 0.0126,-0.50766 0.52633,-0.34551 1.77666,-0.34015 1.99216,0.009 0.15948,0.25804 1.76215,0.15117 2.24945,-0.15 0.11611,-0.0718 0.25105,-0.0232 0.29986,0.10792 0.0826,0.22197 1.67746,0.47286 4.41451,0.69446 1.35329,0.10957 1.573,0.26551 1.20222,0.85332 -0.3489,0.55312 -0.79993,0.70616 -1.02204,0.34678 z m 35.57843,-2.20639 c -0.3638,-0.16803 -0.73745,-0.41335 -0.83032,-0.54516 -0.0929,-0.13181 -0.32905,-0.14065 -0.52485,-0.0196 -0.1958,0.12101 -0.9331,0.2544 -1.63844,0.29641 -1.54863,0.0923 -1.57719,-0.33397 -0.0723,-1.07935 0.97361,-0.48225 1.03758,-0.48295 1.96997,-0.0215 0.97168,0.48091 2.08802,0.53263 2.52141,0.11682 0.13655,-0.13101 0.12486,-0.65848 -0.0279,-1.26039 -0.22365,-0.88111 -0.19323,-1.07851 0.2045,-1.32689 0.40233,-0.25126 0.52692,-0.14263 0.89691,0.78206 0.29931,0.74806 0.34733,1.17306 0.15829,1.40084 -0.14926,0.17985 -0.19676,0.40162 -0.10555,0.49283 0.0912,0.0912 -0.0316,0.46721 -0.27298,0.83556 -0.4752,0.72525 -1.19487,0.82897 -2.2787,0.3284 z m 26.56846,-1.86999 c -0.0911,-0.2374 -0.82857,-0.41604 -2.17451,-0.52673 -1.62618,-0.13375 -2.10982,-0.27465 -2.39966,-0.69911 -0.19965,-0.29239 -0.52707,-0.53161 -0.72761,-0.53161 -0.20053,0 -0.3646,-0.10914 -0.3646,-0.24253 0,-0.35104 0.59667,-0.51155 1.05833,-0.2847 0.21829,0.10726 0.99219,0.28135 1.7198,0.38688 0.7276,0.10553 1.44198,0.26623 1.5875,0.35711 0.34632,0.21628 0.60741,0.2862 1.71979,0.46054 1.7263,0.27056 2.11666,0.39056 2.11666,0.65066 0,0.14275 -0.23109,0.25954 -0.51355,0.25954 -0.28245,0 -0.58713,0.11906 -0.67707,0.26459 -0.24026,0.38875 -1.18509,0.32227 -1.34508,-0.0946 z m 3.85862,-2.02203 c 0,-0.14552 0.11906,-0.26458 0.26458,-0.26458 0.14553,0 0.26459,0.11906 0.26459,0.26458 0,0.14552 -0.11906,0.26458 -0.26459,0.26458 -0.14552,0 -0.26458,-0.11906 -0.26458,-0.26458 z m 21.72384,-0.46302 c 0.1182,-0.89333 -0.5826,-1.84294 -1.57663,-2.13639 -1.10124,-0.3251 -2.36789,-0.6277 -2.94929,-0.70458 -2.38539,-0.31543 -3.175,-0.48693 -3.175,-0.68959 0,-0.2243 0.95174,-0.37096 1.85209,-0.2854 2.01845,0.19182 4.10894,0.66259 4.88979,1.10117 0.52093,0.29259 1.15772,0.53198 1.4151,0.53198 0.2988,0 0.59493,0.3511 0.81918,0.97125 0.31591,0.87365 0.30288,1.00661 -0.12971,1.32292 -0.67193,0.49133 -1.21825,0.43822 -1.14553,-0.11136 z M 84.5455,124.66183 c -0.19359,-0.19359 -0.50385,-0.30137 -0.68946,-0.2395 -0.18561,0.0619 -0.78455,-0.0664 -1.33097,-0.28502 -0.67889,-0.27164 -1.13682,-0.31731 -1.4461,-0.14423 -0.35294,0.19751 -0.4535,0.14844 -0.45666,-0.22288 -0.003,-0.40506 -0.043,-0.4169 -0.26458,-0.0793 -0.23158,0.35277 -0.28948,0.35277 -0.52106,0 -0.4656,-0.70926 -0.28731,-1.23988 0.7894,-2.34935 0.96999,-0.99951 1.77633,-1.31701 2.77842,-1.09403 0.14552,0.0324 0.97896,0.10301 1.85208,0.15696 2.76596,0.17088 3.69368,0.44198 3.78872,1.10717 0.1,0.69993 -0.002,0.71178 -1.69615,0.19773 -2.40652,-0.73004 -5.66444,-0.27394 -5.66444,0.793 0,0.2343 0.12077,0.35135 0.26839,0.26012 0.37195,-0.22988 2.93256,0.3426 3.52592,0.7883 0.3307,0.24841 0.43113,0.54189 0.3129,0.91441 -0.19901,0.62701 -0.73194,0.71108 -1.24641,0.19661 z m 23.12636,-0.18342 c -0.64626,-0.5233 -0.77202,-1.20591 -0.25643,-1.39184 0.36892,-0.13304 1.78593,0.60164 1.78593,0.92596 0,0.11415 0.009,0.29094 0.0196,0.39288 0.0494,0.46676 -1.00168,0.5163 -1.54913,0.073 z m 48.70894,0.0538 c -0.74129,-0.39106 -1.31446,-1.28612 -1.01522,-1.58537 0.15259,-0.15258 2.50882,0.77793 2.68283,1.05949 0.15157,0.24524 -0.36599,1.02174 -0.65913,0.98891 -0.0913,-0.0102 -0.54513,-0.21859 -1.00848,-0.46303 z m -14.90914,-0.0627 c -0.31702,-0.20382 -0.2791,-0.27929 0.20731,-0.4126 0.67897,-0.18606 0.78651,-0.55042 0.19992,-0.67733 -0.35005,-0.0757 -0.34951,-0.17348 0.005,-0.85233 0.3677,-0.70481 0.35611,-0.85752 -0.1434,-1.88936 -0.29888,-0.61741 -0.50933,-1.26498 -0.46766,-1.43904 0.0479,-0.20017 -0.38408,-0.3593 -1.17547,-0.43299 -0.99456,-0.0926 -1.22212,-0.0406 -1.10928,0.25346 0.0781,0.20348 -0.0545,0.44535 -0.29459,0.53749 -0.29315,0.11249 -0.47929,0.004 -0.56663,-0.32982 -0.15056,-0.57576 -2.32864,-1.00721 -2.85971,-0.56646 -0.32504,0.26976 -3.96516,0.23133 -4.24127,-0.0448 -0.0851,-0.0851 -0.55637,-0.0642 -1.04717,0.0464 -1.07283,0.24196 -1.62298,-0.14018 -1.04045,-0.72271 0.30635,-0.30635 1.1858,-0.38471 4.18167,-0.37261 2.91133,0.0118 3.9095,-0.0732 4.29142,-0.36523 0.45563,-0.34842 0.42277,-0.36654 -0.38903,-0.21451 -0.77277,0.14471 -0.87352,0.10162 -0.78416,-0.33541 0.0614,-0.3004 0.28433,-0.47028 0.55597,-0.4237 0.24938,0.0428 0.45343,-0.0465 0.45343,-0.19844 0,-0.1519 0.11906,-0.27618 0.26458,-0.27618 0.14552,0 0.26458,0.16371 0.26458,0.3638 0,0.40807 1.3606,0.76499 1.99223,0.52261 0.28744,-0.1103 0.50302,0.0876 0.71908,0.65996 0.24882,0.6592 0.42185,0.78905 0.89366,0.67064 0.80808,-0.20282 3.42875,0.37431 3.81544,0.84023 0.17452,0.21029 0.63015,0.38413 1.01252,0.38632 0.84829,0.005 2.58361,0.58796 3.00558,1.00994 0.16995,0.16995 0.50962,0.309 0.75482,0.309 0.2452,0 0.63923,0.29517 0.87562,0.65595 0.55098,0.8409 1.89025,1.53511 2.5547,1.32422 0.29157,-0.0925 0.51594,-0.0409 0.51594,0.11866 0,0.15533 0.23813,0.28242 0.52917,0.28242 0.35278,0 0.52917,0.17638 0.52917,0.52916 0,0.63872 -0.95826,0.70262 -3.09317,0.20627 -1.06852,-0.24842 -1.45594,-0.47727 -1.6797,-0.99219 -0.20856,-0.47995 -1.03602,-1.02919 -2.92505,-1.94155 -1.44882,-0.69975 -2.83956,-1.247 -3.09054,-1.21611 -0.25099,0.0309 -0.65899,-0.0322 -0.90669,-0.14024 -0.80693,-0.35191 -1.09436,0.11799 -0.47526,0.77699 0.48311,0.51424 0.54171,0.79069 0.38673,1.82417 -0.10046,0.66994 -0.2882,1.21808 -0.4172,1.21808 -0.129,0 -0.23454,0.22355 -0.23454,0.49677 0,0.68527 -0.57873,1.12506 -1.06721,0.811 z m -30.6309,-0.9081 c -0.65489,-0.75319 -0.77895,-1.51733 -0.21095,-1.29937 0.20356,0.0781 0.44871,0.0148 0.54478,-0.1406 0.0961,-0.15544 0.0132,-0.28262 -0.18412,-0.28262 -0.19734,0 -0.82384,-0.47625 -1.39223,-1.05833 -0.56839,-0.58208 -1.27716,-1.07215 -1.57505,-1.08903 -0.44628,-0.0253 -0.46011,-0.052 -0.0786,-0.15169 0.58576,-0.15307 0.59319,-0.51222 0.0173,-0.83452 -0.29192,-0.16337 -0.61429,-0.14508 -0.93412,0.053 -0.38477,0.23829 -0.54271,0.21826 -0.74454,-0.0944 -0.70126,-1.08639 0.79709,-1.80051 1.83783,-0.87592 0.29657,0.26348 1.11511,0.9553 1.81898,1.53738 0.70387,0.58208 1.50427,1.35042 1.77868,1.70742 0.59899,0.7793 0.652,2.24809 0.10101,2.79908 -0.35414,0.35415 -0.46179,0.32441 -0.97895,-0.27037 z m -5.23114,-0.78151 c -0.0892,-0.35553 -0.0882,-0.76627 0.002,-0.91277 0.22734,-0.36784 -0.70578,-0.82206 -1.68879,-0.82206 -0.63559,0 -0.93046,-0.18932 -1.33932,-0.85989 -0.28836,-0.47295 -0.52473,-0.72495 -0.52528,-0.56001 -10e-4,0.36789 -1.28048,0.64588 -1.48079,0.32177 -0.0793,-0.12838 -0.24134,-0.17341 -0.36,-0.10008 -0.11866,0.0733 -0.65877,-0.02 -1.20024,-0.2075 l -0.9845,-0.34085 1.15238,-0.50163 c 1.4703,-0.64002 1.41417,-0.58425 1.0407,-1.03425 -0.25724,-0.30996 -0.21987,-0.43807 0.19209,-0.65855 0.28131,-0.15055 0.56549,-0.21969 0.63153,-0.15366 0.14909,0.14909 1.62763,0.34608 2.85993,0.38104 0.50932,0.0145 1.15207,0.19736 1.42832,0.40647 0.42653,0.32285 0.44904,0.44434 0.14926,0.80555 -0.25535,0.30768 -0.59563,0.37985 -1.22989,0.26086 -1.13543,-0.213 -1.21034,0.45732 -0.12518,1.12014 0.41342,0.25252 1.17379,0.83056 1.6897,1.28452 0.74599,0.65642 0.91078,0.96787 0.80497,1.52136 -0.16737,0.87558 -0.80218,0.90649 -1.01726,0.0495 z m 20.26049,-2.39629 c -0.16809,-0.50932 -0.42152,-0.92604 -0.56318,-0.92604 -0.14166,0 -0.42963,-0.4118 -0.63993,-0.91511 -0.29745,-0.7119 -0.61831,-0.98581 -1.44485,-1.23345 -0.58437,-0.17508 -1.19471,-0.47765 -1.35632,-0.67238 -0.5193,-0.62572 1.89223,-0.46093 2.53977,0.17355 0.29616,0.29019 0.91748,0.82987 1.38071,1.19929 0.87254,0.69584 1.56531,2.24069 1.30685,2.91422 -0.26546,0.69179 -0.9105,0.40696 -1.22305,-0.54008 z m -29.05088,-2.69489 c -0.13652,-0.26406 -0.32999,-0.93285 -0.42993,-1.4862 -0.0999,-0.55335 -0.35315,-1.07188 -0.56269,-1.15229 -0.20954,-0.0804 -0.63833,-0.60409 -0.95288,-1.16374 -0.32824,-0.58404 -0.80672,-1.05126 -1.12307,-1.09667 -0.30315,-0.0435 -0.59605,-0.31428 -0.6509,-0.60169 -0.0549,-0.28742 -0.28588,-0.6587 -0.51341,-0.82507 -0.36265,-0.26518 -0.33695,-0.34356 0.20836,-0.63541 0.51443,-0.27531 0.67146,-0.26645 0.90758,0.0512 0.45994,0.61873 1.67872,1.32022 1.8401,1.0591 0.24478,-0.39607 5.50539,-0.0492 7.6397,0.5038 1.1286,0.29239 1.20819,0.48833 0.46978,1.15659 -0.42683,0.38627 -0.65678,0.42117 -1.25677,0.19073 -0.4039,-0.15512 -1.76922,-0.42026 -3.03405,-0.5892 -3.00161,-0.40092 -3.39855,-0.17056 -2.28994,1.32892 0.45044,0.60925 0.66843,0.71782 1.04094,0.51846 1.27831,-0.68413 5.34418,0.23937 4.42231,1.00445 -0.37492,0.31116 -2.31239,0.2712 -2.84616,-0.0587 -0.49284,-0.30459 -0.68522,0.0979 -0.32359,0.67694 0.43377,0.69457 0.26735,0.9062 -0.77502,0.98563 -0.47433,0.0361 -1.01086,0.18891 -1.19229,0.33948 -0.23816,0.19765 -0.39887,0.14028 -0.57807,-0.20634 z m 19.07338,-1.40615 c 0.0761,-0.29104 0.0305,-0.52916 -0.10143,-0.52916 -0.1319,0 -0.23982,0.10872 -0.23982,0.2416 0,0.24933 -1.01669,-0.0166 -2.60775,-0.68214 -0.64445,-0.26956 -0.98265,-0.29284 -1.23322,-0.0849 -0.23936,0.19866 -0.39783,0.20145 -0.51671,0.009 -0.0943,-0.15259 -0.0402,-0.27743 0.12033,-0.27743 0.16049,0 0.25682,-0.20223 0.21406,-0.4494 -0.10438,-0.60335 1.42338,-0.71609 2.75866,-0.20357 1.05122,0.40348 1.52728,0.31783 2.60731,-0.46911 0.52448,-0.38215 0.82886,-0.43825 1.32292,-0.24386 0.35293,0.13887 1.12368,0.39508 1.71277,0.56936 0.58909,0.17427 1.35267,0.52926 1.69684,0.78887 l 0.62577,0.47202 -0.59372,0.31775 c -0.50297,0.26918 -0.80692,0.20988 -1.98854,-0.38797 -1.76239,-0.89169 -2.6591,-0.81867 -2.67473,0.2178 -0.0103,0.68539 -0.45306,1.22626 -1.01182,1.23614 -0.12612,0.002 -0.16703,-0.23408 -0.0909,-0.52512 z m 20.89365,-1.65364 c 0.0706,-0.47295 0.0326,-1.1143 -0.0843,-1.42524 -0.24624,-0.65476 -1.34454,-1.80817 -2.11383,-2.21988 -0.29191,-0.15622 -0.45246,-0.41068 -0.3568,-0.56547 0.18575,-0.30055 -2.8182,-0.14316 -3.33235,0.1746 -0.46848,0.28954 -1.37693,-0.14257 -1.21067,-0.57586 0.0838,-0.21826 0.066,-0.53493 -0.0394,-0.7037 -0.1054,-0.16877 -0.2255,-0.52436 -0.26688,-0.79021 -0.12526,-0.80464 -0.8027,-1.26929 -2.39393,-1.64198 -1.79155,-0.4196 -3.64572,-0.23699 -4.52713,0.44587 -0.86234,0.66808 -1.14689,0.6159 -1.6718,-0.30658 -0.26448,-0.46479 -0.66902,-0.79207 -0.97904,-0.79207 -0.29058,0 -0.62354,-0.16182 -0.73991,-0.35959 -0.24554,-0.41729 -2.19596,-0.84359 -2.19596,-0.47997 0,0.13352 -0.45097,0.31487 -1.00216,0.40301 -1.77694,0.28414 -2.81545,1.8927 -1.73298,2.68422 0.25872,0.18918 0.37162,0.49948 0.27415,0.75349 -0.14888,0.38796 -0.26101,0.37564 -1.10311,-0.12121 -1.59979,-0.94391 -1.57172,-2.80574 0.0554,-3.67525 0.47133,-0.25187 1.00711,-0.57645 1.19063,-0.7213 0.58641,-0.46284 2.9839,-0.50642 3.51707,-0.0639 0.22666,0.18811 0.71741,0.25797 1.17262,0.16693 0.43056,-0.0861 0.85401,-0.0414 0.941,0.0994 0.087,0.14075 0.37653,0.25591 0.64341,0.25591 0.26688,0 0.55852,0.19095 0.64807,0.42433 0.11028,0.28738 0.31154,0.35986 0.62362,0.22459 0.25344,-0.10986 0.87751,-0.24316 1.38684,-0.29624 0.50932,-0.0531 1.59913,-0.16448 2.4218,-0.24759 1.61465,-0.1631 2.60528,0.16433 2.60528,0.86112 0,0.28316 0.16514,0.37524 0.51082,0.28484 0.32193,-0.0842 0.73034,0.10008 1.10446,0.49831 0.32649,0.34754 0.48358,0.63551 0.34907,0.63994 -0.13451,0.004 -0.0362,0.1294 0.21846,0.27773 0.25466,0.14833 0.46302,0.49243 0.46302,0.76468 0,0.58457 1.19853,0.95323 2.71198,0.83417 0.76227,-0.06 0.99219,0.0192 0.99219,0.34158 0,0.26254 0.2298,0.41963 0.61388,0.41963 0.74529,0 2.1344,1.6351 2.2303,2.62526 0.20225,2.08812 0.0633,2.6664 -0.64087,2.6664 -0.31394,0 -0.38092,-0.20352 -0.283,-0.85989 z m -9.06406,-8.70272 c 0,-0.42818 -0.085,-0.46466 -0.52917,-0.22697 -0.53545,0.28656 -0.65946,0.57526 -0.37101,0.86371 0.29866,0.29866 0.90018,-0.12683 0.90018,-0.63674 z m -17.3598,7.33194 c -0.087,-0.22667 -0.25651,-0.35133 -0.37673,-0.27703 -0.12021,0.0743 -0.28884,0.0214 -0.37471,-0.11755 -0.0859,-0.13895 0.038,-0.36128 0.27526,-0.49407 0.395,-0.22105 0.39547,-0.25521 0.006,-0.40483 -0.23421,-0.0899 -0.42584,-0.3175 -0.42584,-0.50584 0,-0.18835 -0.26084,-0.45997 -0.57965,-0.60362 -0.31881,-0.14365 -0.84703,-0.79696 -1.17383,-1.4518 -0.3268,-0.65485 -0.75056,-1.19063 -0.9417,-1.19063 -0.19114,0 -0.40706,-0.0699 -0.47982,-0.15538 -0.0728,-0.0854 -1.08086,-0.41085 -2.24023,-0.7231 -1.43905,-0.38757 -2.19397,-0.48169 -2.37904,-0.29662 -0.34272,0.34272 0.2746,0.76849 1.12246,0.77417 0.33233,0.002 0.98259,0.39101 1.44504,0.86395 0.46244,0.47294 0.99421,0.82491 1.1817,0.78215 0.1875,-0.0428 0.34091,0.0536 0.34091,0.21406 0,0.16048 -0.11907,0.21821 -0.26459,0.12827 -0.14552,-0.0899 -0.26458,-0.0473 -0.26458,0.0946 0,0.14198 0.14274,0.30573 0.31721,0.36389 0.38835,0.12944 -0.72143,1.79044 -1.19627,1.79044 -0.17262,0 -1.14678,-0.3141 -2.1648,-0.698 -1.01801,-0.3839 -2.44624,-0.73008 -3.17385,-0.7693 -0.7276,-0.0392 -1.81315,-0.18516 -2.41233,-0.32433 -0.59917,-0.13917 -1.25402,-0.16828 -1.45521,-0.0647 -0.20118,0.10358 -0.88217,0.13342 -1.51329,0.0663 -0.94878,-0.10089 -1.12579,-0.20504 -1.02213,-0.60141 0.0806,-0.30803 0.007,-0.43412 -0.20466,-0.35275 -0.21299,0.0817 -0.38712,-0.22526 -0.49106,-0.8658 -0.0886,-0.54584 -0.12029,-1.0332 -0.0705,-1.08302 0.0949,-0.0949 2.09982,-0.86012 4.12643,-1.57493 1.46421,-0.51644 5.22977,-0.57717 6.87917,-0.11094 0.65484,0.18511 1.66688,0.4015 2.24896,0.48087 1.6664,0.22723 4.59426,2.44479 4.62069,3.49971 0.005,0.2089 0.23508,0.62562 0.51076,0.92604 0.5982,0.65188 0.9929,2.65812 0.57389,2.91708 -0.15682,0.0969 -0.35629,-0.009 -0.44327,-0.23591 z m -5.72491,-3.12714 c -0.28725,-0.43282 -1.03629,-0.76516 -2.74425,-1.21759 -1.29204,-0.34226 -2.64682,-0.66 -3.01063,-0.70611 -0.3638,-0.0461 -0.66145,-0.10723 -0.66145,-0.13584 0,-0.0286 -0.98959,-0.0956 -2.19909,-0.14893 -1.86309,-0.0821 -2.27975,-0.0218 -2.72703,0.39493 -0.52613,0.49016 -0.52584,0.49232 0.0824,0.62987 0.3357,0.0759 1.61529,0.0984 2.84353,0.05 1.46182,-0.0577 2.52818,0.0352 3.08728,0.2688 0.46976,0.19627 0.92047,0.2905 1.00158,0.20939 0.0811,-0.0811 0.32,-0.004 0.53086,0.17069 0.21085,0.175 0.86419,0.36219 1.45185,0.41598 0.58767,0.0538 1.28123,0.22162 1.54125,0.37294 0.26002,0.15133 0.63612,0.27876 0.83577,0.28319 0.29775,0.007 0.29198,-0.099 -0.0321,-0.58727 z m -3.90279,-3.34259 c 0,-0.27643 -1.35068,-0.57408 -1.68039,-0.37032 -0.1255,0.0776 -0.0666,0.24339 0.13079,0.36849 0.47164,0.29885 1.5496,0.30012 1.5496,0.002 z m -9.45153,5.27248 c -0.58989,-0.54956 -1.01855,-1.934 -0.73892,-2.38646 0.39343,-0.63658 1.08771,-0.21132 0.96136,0.58886 -0.0172,0.10914 0.0877,0.19844 0.23325,0.19844 0.14553,0 0.26459,0.29063 0.26459,0.64584 0,0.35522 0.121,0.72063 0.2689,0.81203 0.28157,0.17403 0.10893,0.6588 -0.23463,0.6588 -0.10949,0 -0.44904,-0.23288 -0.75455,-0.51751 z m -11.66911,-2.52915 c -0.59224,-0.68114 -0.77955,-1.71584 -0.31061,-1.71584 0.14552,0 0.26458,-0.11907 0.26458,-0.26459 0,-0.14552 -0.23812,-0.26458 -0.52917,-0.26458 -0.68239,0 -0.65456,-0.61725 0.0895,-1.98438 0.5639,-1.03613 0.60822,-1.05927 2.1134,-1.1031 0.84558,-0.0246 1.70497,-0.10906 1.90975,-0.18764 0.44849,-0.17211 2.02195,0.45165 2.60165,1.03135 0.28798,0.28798 0.56218,0.34451 0.88626,0.18272 0.75553,-0.37719 2.78355,0.48288 3.20381,1.35871 0.19432,0.40495 0.52174,0.8009 0.72761,0.8799 0.47713,0.1831 0.47994,0.89975 0.006,1.54782 -0.31288,0.42788 -0.43222,0.45051 -0.79375,0.15046 -0.23403,-0.19422 -0.42551,-0.69948 -0.42551,-1.12279 0,-0.87006 -0.59564,-1.24684 -1.19056,-0.75311 -0.42783,0.35507 -1.71985,0.15256 -1.71985,-0.26956 0,-0.14275 -0.15615,-0.25955 -0.34699,-0.25955 -0.19084,0 -0.58183,-0.21879 -0.86887,-0.48621 -0.59774,-0.55687 -2.75289,-1.00072 -2.75289,-0.56694 0,0.1518 0.20835,0.34688 0.46302,0.43349 1.66014,0.56463 3.49371,1.60019 3.49931,1.97633 0.0126,0.84967 -0.69786,1.12734 -1.68549,0.65867 -0.49589,-0.23531 -1.0998,-0.42784 -1.34204,-0.42784 -0.24223,0 -0.64096,-0.10259 -0.88605,-0.22798 -0.2451,-0.12539 -0.76988,-0.30546 -1.16619,-0.40015 -0.5374,-0.1284 -0.68634,-0.083 -0.58598,0.17853 0.074,0.19289 -0.10733,0.56962 -0.40299,0.83719 -0.41553,0.37605 -0.46915,0.56892 -0.23621,0.84959 0.5544,0.66801 0.0615,0.6203 -0.52177,-0.0505 z m 1.27689,-3.03876 c 0.32093,-0.2074 0.28295,-0.25726 -0.19844,-0.26053 -0.32742,-0.002 -0.59531,0.11501 -0.59531,0.26053 0,0.3315 0.28078,0.3315 0.79375,0 z"
       id="path30"
       sodipodi:nodetypes="ssssssssscsssssssssssssssccssssssssssssccssssssssssssssssssssssssscssssssssssssssscsscssssssssssssssscssscsssssscssssssssssssssssssssssssssssssssssssssssssssssssscsssssssssssssssssssssssssssssssssssssssssssssssssssssssssssccssssssssssssssssssssssssssssssssssssssssssssssssssssssssssccsccssssssssscsscssscsssssscssssccsssssssssssssssssssssssssssssssssssssssssssssssscsssssscssssssssscssssssscsscsssssssscssssssssssssscssssssssssssssssccssssssssssssssssccsscssscsssssssssssccsssssssssssssssssssssssssssssssscsssssssssssscssscccssssssssssssssssssssssssssssssscssssssssssssscsssssssscsscssssssssssssscssssscssccssssssscsscsscsssssssssssssssssssssssssssssssssssssssssssssscss" />
  </g>
</svg>
