<?xml version="1.0" encoding="UTF-8" standalone="no"?>
<!-- Created with Inkscape (http://www.inkscape.org/) -->

<svg
   width="136.23125mm"
   height="37.730198mm"
   viewBox="0 0 136.23125 37.730189"
   version="1.1"
   id="svg1"
   inkscape:version="1.4.1-rc (06eac75fbf, 2025-03-29)"
   sodipodi:docname="hillbush1.svg"
   xmlns:inkscape="http://www.inkscape.org/namespaces/inkscape"
   xmlns:sodipodi="http://sodipodi.sourceforge.net/DTD/sodipodi-0.dtd"
   xmlns="http://www.w3.org/2000/svg"
   xmlns:svg="http://www.w3.org/2000/svg">
  <sodipodi:namedview
     id="namedview1"
     pagecolor="#ffffff"
     bordercolor="#000000"
     borderopacity="0.25"
     inkscape:showpageshadow="2"
     inkscape:pageopacity="0.0"
     inkscape:pagecheckerboard="0"
     inkscape:deskcolor="#d1d1d1"
     inkscape:document-units="mm"
     inkscape:zoom="0.72248176"
     inkscape:cx="257.44595"
     inkscape:cy="71.282076"
     inkscape:window-width="1850"
     inkscape:window-height="1016"
     inkscape:window-x="0"
     inkscape:window-y="0"
     inkscape:window-maximized="1"
     inkscape:current-layer="layer1" />
  <defs
     id="defs1" />
  <g
     inkscape:label="Layer 1"
     inkscape:groupmode="layer"
     id="layer1"
     transform="translate(-37.306287,-100.01378)">
    <path
       style="fill:#000000"
       d="m 172.26354,137.4298 c 0.0236,-0.1819 0.0288,-0.47474 0.0116,-0.65075 -0.0463,-0.47225 -1.33942,-1.59541 -2.26626,-1.96833 -0.44429,-0.17877 -1.18762,-0.60891 -1.65184,-0.95588 -0.46423,-0.34697 -1.05954,-0.60845 -1.32292,-0.58107 -0.87603,0.0911 -2.60067,-0.0509 -2.26481,-0.18638 0.46069,-0.18589 0.41442,-0.61852 -0.0661,-0.61852 -0.21828,0 -0.39688,0.10791 -0.39688,0.23981 0,0.1319 -0.23513,0.17832 -0.52251,0.10317 -0.32877,-0.086 -0.83415,0.12559 -1.36298,0.57057 -0.69576,0.58544 -0.90055,0.64713 -1.1894,0.35828 -0.5219,-0.5219 -0.15345,-1.45267 0.79703,-2.01347 0.72984,-0.43062 1.08267,-0.46426 2.68357,-0.2559 2.42855,0.31608 3.84099,0.72154 4.48908,1.28865 0.29105,0.25468 1.14279,0.77012 1.89277,1.14543 0.87541,0.43808 1.56216,1.01893 1.91823,1.62242 0.68832,1.16661 0.69798,1.6082 0.0429,1.95881 -0.66903,0.35806 -0.84364,0.34551 -0.7914,-0.0568 z m -38.64892,-1.72134 c 0,-0.52056 -5.24037,-2.31277 -6.48229,-2.21693 -0.29104,0.0225 -0.91541,-0.0251 -1.3875,-0.10574 -0.85052,-0.14523 -0.85436,-0.15263 -0.42169,-0.81296 0.41534,-0.63389 0.52175,-0.65815 2.18125,-0.4973 1.89195,0.18338 4.00212,0.76938 5.0519,1.40292 2.47055,1.49097 2.84949,1.92912 1.96274,2.2694 -0.56526,0.21691 -0.90441,0.20214 -0.90441,-0.0394 z m -12.96458,-0.37689 c -0.50932,-0.14552 -1.08854,-0.39882 -1.28714,-0.56291 -0.1986,-0.16408 -0.55579,-0.30582 -0.79375,-0.31498 -0.92906,-0.0358 -2.55858,-0.48797 -2.73337,-0.75854 -0.25472,-0.3943 -0.46534,-0.12078 -0.53257,0.6916 -0.0488,0.58949 -0.21264,0.70804 -1.17887,0.85293 -0.61721,0.0926 -1.5403,0.0899 -2.05132,-0.006 -1.81829,-0.34111 -1.95487,-1.6282 -0.14203,-1.33831 1.36446,0.21818 1.90957,-0.008 1.56598,-0.65014 -0.21244,-0.39695 -0.13411,-0.57893 0.39979,-0.92876 0.73228,-0.47981 1.40651,-0.39155 3.1797,0.41623 0.59125,0.26935 1.77543,0.55441 2.63152,0.63349 1.21217,0.11196 1.72163,0.30194 2.30279,0.85873 0.57042,0.54649 0.67742,0.7979 0.45412,1.06697 -0.33367,0.40204 -0.53147,0.40637 -1.81485,0.0397 z m 18.31512,-1.15792 c -0.32342,-0.22653 -0.58804,-0.35281 -0.58804,-0.28061 0,0.0722 -0.80367,-0.27602 -1.78593,-0.7738 -0.98227,-0.49778 -1.98727,-0.90729 -2.23335,-0.91001 -0.24607,-0.003 -0.52099,-0.12401 -0.61092,-0.26953 -0.0899,-0.14552 -0.38004,-0.26458 -0.64468,-0.26458 -0.26464,0 -0.61187,-0.15751 -0.77164,-0.35002 -0.18976,-0.22864 -0.77442,-0.32504 -1.68605,-0.27799 -1.67357,0.0864 -2.32159,-0.0738 -2.32159,-0.57365 0,-0.58111 1.34181,-1.11893 2.44739,-0.98095 0.54571,0.0681 0.99219,0.22987 0.99219,0.35947 0,0.1296 0.0893,0.21611 0.19844,0.19223 0.53382,-0.11675 2.40549,0.53241 4.38707,1.52158 0.41197,0.20565 0.93527,0.37391 1.16288,0.37391 0.54281,0 2.6733,1.35324 2.84825,1.80915 0.32491,0.8467 -0.45316,1.0838 -1.39402,0.4248 z m -4.02762,-2.63083 c 0,-0.21828 -0.11906,-0.39687 -0.26458,-0.39687 -0.14552,0 -0.26459,0.17859 -0.26459,0.39687 0,0.21829 0.11907,0.39688 0.26459,0.39688 0.14552,0 0.26458,-0.17859 0.26458,-0.39688 z m -34.73925,2.34652 c -0.0919,-0.0919 -0.595601,-0.19305 -1.119401,-0.22486 -1.00463,-0.061 -1.88962,-0.69447 -1.60763,-1.15074 0.27132,-0.43899 4.393361,0.002 4.393361,0.47043 0,0.65061 -1.24473,1.32676 -1.66633,0.90517 z m 2.1955,-0.21423 c 0,-0.2097 0.11906,-0.45485 0.26458,-0.54479 0.14553,-0.0899 0.26459,0.0816 0.26459,0.38126 0,0.29963 -0.11906,0.54479 -0.26459,0.54479 -0.14552,0 -0.26458,-0.17157 -0.26458,-0.38126 z m 50.8,-0.48923 c -0.3638,-0.16802 -0.72099,-0.37243 -0.79375,-0.45424 -0.0728,-0.0818 -1.01997,-0.4408 -2.1049,-0.79777 -1.08494,-0.35696 -2.31044,-0.93328 -2.72334,-1.28071 -0.41289,-0.34743 -1.05271,-0.63169 -1.42181,-0.63169 -0.36911,0 -0.72362,-0.13686 -0.78781,-0.30413 -0.0696,-0.18151 -0.52877,-0.26484 -1.13867,-0.20667 -0.56207,0.0536 -1.10245,-0.0328 -1.20083,-0.19197 -0.0984,-0.15918 -0.46247,-0.28942 -0.8091,-0.28942 -0.34662,0 -0.71022,-0.12943 -0.80799,-0.28763 -0.0978,-0.1582 -0.40234,-0.22891 -0.67681,-0.15713 -0.27448,0.0718 -0.56572,0.0226 -0.64721,-0.10924 -0.0815,-0.13186 -0.61037,-0.23975 -1.17528,-0.23975 -0.56491,0 -1.09218,-0.1053 -1.17172,-0.234 -0.20062,-0.3246 -3.57176,-0.93479 -3.80111,-0.68802 -0.1026,0.1104 -0.0675,0.24603 0.078,0.3014 0.76245,0.29014 2.35289,1.32099 2.43801,1.58021 0.15073,0.45903 -0.44405,0.56471 -2.11233,0.37532 -0.93122,-0.10571 -1.70498,-0.35739 -1.98437,-0.64545 -0.43498,-0.44846 -0.42809,-0.49253 0.13734,-0.87767 0.68421,-0.46606 0.77636,-0.87012 0.19843,-0.87012 -0.21828,0 -0.39687,-0.22766 -0.39687,-0.50591 0,-0.83467 2.37502,-0.9925 5.75711,-0.38258 0.5149,0.0929 1.01998,0.0247 1.25364,-0.16926 0.31579,-0.26208 0.42295,-0.24235 0.55517,0.10223 0.0972,0.25328 1.06903,0.7092 2.38891,1.12072 1.22379,0.38156 2.28958,0.79813 2.36844,0.92573 0.0789,0.12759 0.41943,0.23199 0.75682,0.23199 0.3374,0 0.76854,0.18687 0.95809,0.41527 0.18956,0.22839 0.56398,0.35791 0.83206,0.2878 0.48879,-0.12782 1.84928,0.41065 2.59226,1.026 0.21828,0.18079 0.81359,0.40799 1.32292,0.50491 1.29053,0.24557 2.90374,1.01239 2.90738,1.38199 0.002,0.16977 0.14352,0.35551 0.31522,0.41274 0.33239,0.1108 0.11413,1.01094 -0.23774,0.98046 -0.11371,-0.01 -0.5044,-0.15538 -0.8682,-0.32341 z m -12.36927,-1.0261 c -1.01109,-0.22589 -1.12448,-0.32969 -1.12448,-1.0294 0,-0.67742 0.0942,-0.77557 0.72761,-0.75805 1.19899,0.0332 2.51636,0.63401 2.74495,1.25195 0.1558,0.42117 0.11413,0.58 -0.15215,0.58 -0.20169,0 -0.52528,0.0465 -0.71908,0.10337 -0.1938,0.0568 -0.85839,-0.01 -1.47685,-0.14787 z m 18.04224,-0.0794 c -0.28248,-0.21366 -0.7012,-0.39225 -0.93049,-0.39688 -0.2293,-0.005 -0.69654,-0.30607 -1.03831,-0.66987 -0.34178,-0.3638 -0.89831,-0.66146 -1.23675,-0.66146 -0.33843,0 -0.61533,-0.10789 -0.61533,-0.23976 0,-0.13186 -0.59532,-0.32163 -1.32292,-0.4217 -1.08951,-0.14984 -1.32292,-0.27599 -1.32292,-0.71497 0,-0.44167 -0.11769,-0.50348 -0.68676,-0.36065 -0.39023,0.0979 -0.84655,0.0398 -1.05682,-0.13475 -0.20352,-0.16891 -0.69601,-0.24479 -1.09442,-0.16863 -0.87072,0.16644 -2.07401,-0.40135 -2.24623,-1.05993 -0.0684,-0.26165 -0.58958,-0.70234 -1.15811,-0.97929 -0.56854,-0.27695 -1.46663,-0.72248 -1.99577,-0.99006 -0.52913,-0.26758 -1.16012,-0.48651 -1.4022,-0.48651 -0.24207,0 -0.82117,-0.19787 -1.28689,-0.43971 -0.82221,-0.42696 -1.19067,-0.49623 -3.55852,-0.66892 -0.61835,-0.0451 -1.12437,-0.1842 -1.12448,-0.30912 -1.2e-4,-0.12491 -0.28425,-0.15583 -0.6314,-0.0687 -0.79836,0.20038 -1.40956,-0.40885 -0.86424,-0.86143 0.69761,-0.57896 5.57646,-0.0415 8.12353,0.89488 0.64741,0.23801 1.62359,0.55773 2.16929,0.71047 0.5457,0.15275 0.99219,0.38379 0.99219,0.51342 0,0.12962 0.66938,0.66388 1.48751,1.18723 0.81813,0.52335 1.54704,1.17922 1.61981,1.4575 0.10158,0.38843 0.21447,0.43776 0.48603,0.21239 0.56673,-0.47034 4.93899,0.71502 5.57081,1.5103 0.16534,0.20812 0.55399,0.42719 0.86365,0.48682 1.01171,0.19484 3.25691,1.56466 3.46503,2.11406 0.3662,0.96671 -0.26848,1.25383 -1.20529,0.54527 z M 60.644239,124.7994 c 0.165525,-1.41701 4.178716,-1.29146 4.178716,0.13073 0,0.49161 -0.169697,0.53421 -2.128195,0.53421 -2.11726,0 -2.127795,-0.003 -2.050521,-0.66494 z m 9.734966,-0.58819 c -0.981083,-0.2485 -1.077823,-0.25518 -2.116667,-0.14616 -0.92547,0.0971 -1.122169,-1.03567 -0.215614,-1.24172 0.701805,-0.15951 2.766447,-0.0123 4.316656,0.30782 1.260873,0.26036 1.525213,1.05292 0.308045,0.92359 -0.412659,-0.0438 -0.888909,0.0262 -1.058334,0.15566 -0.179522,0.13717 -0.694406,0.1375 -1.234086,8.1e-4 z m -19.246493,-0.12157 c -1.016342,-0.0842 -1.45926,-0.24979 -1.65701,-0.61929 -0.462936,-0.865 0.483888,-1.11984 3.394221,-0.91354 1.408177,0.0998 2.977042,0.17099 3.486365,0.15818 0.509322,-0.0128 1.200243,-0.0269 1.535379,-0.0313 0.696882,-0.009 1.639621,0.43375 1.639621,0.77033 0,0.12484 -0.179777,0.29596 -0.399503,0.38027 -0.552403,0.21198 -6.306565,0.39568 -7.999073,0.25537 z m 57.442838,-2.3347 c -0.0927,-0.24152 -0.42016,-0.55419 -0.72774,-0.69482 -0.30757,-0.14062 -0.85688,-0.4274 -1.22069,-0.63729 -0.9178,-0.5295 -3.78612,-0.5009 -4.94561,0.0493 -0.73099,0.34687 -0.96799,0.36844 -1.13204,0.103 -0.41671,-0.67426 0.0405,-1.32794 1.14704,-1.63975 1.39983,-0.39446 4.60337,-0.39339 4.99844,0.002 0.16643,0.16643 0.56941,0.30259 0.89552,0.30259 0.32611,0 0.6684,0.12211 0.76064,0.27136 0.0974,0.15762 0.4644,-0.0458 0.87551,-0.48528 0.47025,-0.50271 1.09116,-0.81777 1.85011,-0.9388 0.75,-0.1196 1.34593,-0.41888 1.73522,-0.87146 l 0.59292,-0.6893 2.76269,0.31143 c 2.83471,0.31955 4.48248,0.84811 4.48248,1.43785 0,0.18364 -0.16886,0.56483 -0.37525,0.84708 -0.36907,0.50474 -0.38851,0.50339 -1.17991,-0.0817 -0.44257,-0.3272 -0.98392,-0.59491 -1.203,-0.59491 -0.21909,0 -0.93962,-0.18377 -1.60117,-0.40837 -1.47921,-0.5022 -2.32271,-0.22606 -1.57955,0.51711 0.41725,0.41725 0.42092,0.49553 0.041,0.87547 -0.35975,0.35975 -0.58,0.37167 -1.59855,0.0865 -1.33393,-0.37348 -2.8223,-0.15962 -2.8223,0.40553 0,0.20672 -0.17105,0.37585 -0.38011,0.37585 -0.23314,0 -0.41217,0.3246 -0.46302,0.83952 -0.0916,0.92774 -0.64886,1.30473 -0.91261,0.61742 z m -28.694711,-0.50961 c -0.52142,-0.17925 -1.5726,-0.34014 -2.33597,-0.35753 -0.763367,-0.0174 -1.538024,-0.15617 -1.721459,-0.30841 -0.183435,-0.15224 -0.421782,-0.18853 -0.52966,-0.0806 -0.107878,0.10787 -0.305283,0.21102 -0.438677,0.22921 -0.133394,0.0182 -0.2723,0.0632 -0.30868,0.0999 -0.03638,0.0368 -0.304271,0.1103 -0.595313,0.16342 -0.291042,0.0531 -0.91612,0.1705 -1.389063,0.26084 -0.745734,0.14247 -0.859895,0.0917 -0.859895,-0.38251 0,-0.66066 1.382523,-1.3907 2.684068,-1.41732 0.488294,-0.01 1.006869,-0.0891 1.15239,-0.17582 0.145521,-0.0867 0.960265,-0.11888 1.810539,-0.0715 1.93115,0.10767 3.878,0.92042 3.878,1.61894 0,0.70988 -0.26545,0.79296 -1.34628,0.42139 z m 56.697061,-0.54624 c -0.62577,-0.31837 -1.32314,-0.76422 -1.5497,-0.99079 -0.37286,-0.37286 -0.35814,-0.46574 0.15523,-0.9791 0.58127,-0.58128 0.53195,-1.07703 -0.10716,-1.07703 -0.19757,0 -0.3989,-0.0902 -0.44741,-0.20041 -0.15306,-0.34779 -2.26723,-1.91626 -2.58297,-1.91626 -0.16608,0 -0.59342,-0.19097 -0.94965,-0.42438 -0.35623,-0.2334 -1.27477,-0.44988 -2.04121,-0.48106 -0.76644,-0.0312 -1.60189,-0.1506 -1.85655,-0.26538 -0.25466,-0.11479 -0.67138,-0.12794 -0.92604,-0.0292 -0.43151,0.16728 -0.42807,0.20522 0.0506,0.55747 0.28247,0.20789 1.05638,0.38293 1.71979,0.38898 1.74325,0.0159 3.85203,0.81605 3.85203,1.4616 0,0.556 0.20177,0.5439 -3.54938,0.21285 -1.42041,-0.12536 -2.2156,-0.34532 -2.88119,-0.79701 -0.52248,-0.35456 -1.30985,-0.62386 -1.82405,-0.62386 -0.62339,0 -0.84524,-0.0963 -0.71342,-0.30954 0.1289,-0.20858 0.0467,-0.25405 -0.25211,-0.1394 -0.24387,0.0936 -0.75997,0.0259 -1.14687,-0.15036 -0.55477,-0.25277 -0.72654,-0.25127 -0.81266,0.007 -0.13309,0.39926 -0.50769,0.42087 -0.93617,0.054 -0.17576,-0.15048 -0.54857,-0.43187 -0.82846,-0.6253 -0.49037,-0.3389 -0.48278,-0.3688 0.20842,-0.8217 0.6762,-0.44306 0.79491,-0.44493 2.07125,-0.0327 0.74467,0.2405 1.79459,0.50774 2.33316,0.59386 0.83841,0.13406 0.99987,0.0776 1.12283,-0.39255 0.12194,-0.46631 0.35717,-0.55191 1.55946,-0.56748 0.77872,-0.0101 1.71352,-0.0323 2.07732,-0.0494 1.53345,-0.0721 3.54148,0.30014 3.76401,0.69778 0.12707,0.22706 0.39097,0.41284 0.58645,0.41284 0.19548,0 0.42396,0.17859 0.50772,0.39687 0.0838,0.21828 0.28482,0.39688 0.4468,0.39688 0.16198,0 0.80305,0.41671 1.42461,0.92604 0.62157,0.50932 1.25,0.92604 1.39653,0.92604 0.14653,0 0.48457,0.29049 0.7512,0.64553 0.26663,0.35505 0.78813,0.72168 1.15889,0.81473 0.37076,0.0931 0.76026,0.30858 0.86555,0.47895 0.10529,0.17036 0.58273,0.30975 1.06098,0.30975 0.69316,0 0.86955,0.10734 0.86955,0.52916 0,0.41687 -0.17639,0.52917 -0.83116,0.52917 -0.45714,0 -1.05245,0.19026 -1.32292,0.42281 -0.81187,0.69803 -1.23101,0.71715 -2.42327,0.11057 z m -53.932181,-0.2688 c -0.26243,-0.68387 0.0927,-1.11743 1.06454,-1.29975 0.96474,-0.18099 1.55606,-0.70524 1.00329,-0.88949 -0.54798,-0.18266 -0.33355,-0.79055 0.33835,-0.95918 0.77445,-0.19438 3.00427,0.32437 3.63219,0.84499 0.34581,0.28672 0.71367,0.31219 1.64374,0.11383 0.65902,-0.14056 1.26222,-0.19157 1.34043,-0.11336 0.35216,0.35216 0.0752,0.84243 -0.6922,1.22525 -1.04332,0.52048 -1.44841,0.52526 -1.64253,0.0194 -0.19326,-0.50363 -0.69807,-0.51883 -0.69807,-0.021 0,0.41677 -0.60348,0.56948 -3.23836,0.81943 -0.98074,0.093 -1.85097,0.27887 -1.93385,0.41298 -0.22873,0.37009 -0.64681,0.29182 -0.81753,-0.15306 z m -6.329883,-2.27564 c -0.265979,-0.43036 0.778443,-1.35051 1.644963,-1.44924 3.21659,-0.36648 4.09255,-0.38781 5.07399,-0.12353 0.61875,0.16661 1.10275,0.45742 1.10275,0.66259 0,0.49693 -1.04687,0.68939 -3.71095,0.68221 -3.11217,-0.008 -3.13932,-0.006 -3.31091,0.27149 -0.20598,0.33327 -0.579534,0.31295 -0.799843,-0.0435 z m 23.842624,-2.18647 c -0.371291,-0.34411 -0.675091,-0.76377 -0.675091,-0.93259 0,-0.44496 -1.24227,-0.84863 -2.35075,-0.76386 -0.93073,0.0712 -0.95654,0.0482 -0.95654,-0.85289 0,-0.85137 0.0693,-0.93273 0.8599,-1.00896 0.47294,-0.0456 0.85989,-0.13399 0.85989,-0.19642 0,-0.0624 -0.25959,-0.41208 -0.57688,-0.77699 -0.66817,-0.76846 -1.42572,-0.8487 -2.11588,-0.22412 -0.5739,0.51937 -0.62108,0.48339 -0.83418,-0.63622 -0.13333,-0.70052 -0.0552,-0.92804 0.42502,-1.23741 0.67722,-0.43631 2.01587,-0.26872 2.22592,0.27866 0.0764,0.19903 0.26929,0.36187 0.42869,0.36187 0.15941,0 0.68245,0.38055 1.16232,0.84565 0.68203,0.66106 0.87249,0.74507 0.87249,0.38485 0,-0.25344 -0.29765,-0.75846 -0.66145,-1.12226 -0.36381,-0.3638 -0.66146,-0.76919 -0.66146,-0.90087 0,-0.46696 -0.88295,-0.74786 -1.55163,-0.49363 -0.82422,0.31337 -1.13502,-0.10594 -0.72748,-0.98148 0.36368,-0.78132 0.73683,-0.9379 1.75154,-0.73496 0.86266,0.17253 1.85048,1.47432 1.85048,2.43862 0,0.31025 0.10633,0.56408 0.23628,0.56408 0.27548,0 0.670001,-0.80732 0.579221,-1.18527 -0.0343,-0.14257 -0.10522,-0.59856 -0.15771,-1.0133 -0.0525,-0.41474 -0.290751,-1.05217 -0.529481,-1.41652 -0.50553,-0.77154 -2.30403,-1.6317 -2.45633,-1.17478 -0.0535,0.16057 -0.32013,0.29196 -0.59245,0.29196 -0.35838,0 -0.54415,-0.2613 -0.67261,-0.94607 -0.20085,-1.07059 -1.30242,-2.40439 -2.09546,-2.53719 -0.29104,-0.0487 -0.61153,-0.20349 -0.7122,-0.34389 -0.24537,-0.34222 -2.12969,-0.24847 -3.26621,0.1625 -0.94946,0.34333 -1.23203,1.1265 -0.62534,1.73319 0.21167,0.21166 0.14181,0.44027 -0.25615,0.83823 -0.4947,0.49471 -0.50549,0.57054 -0.11245,0.7905 0.52708,0.29496 1.69882,2.41531 1.50661,2.72631 -0.29784,0.48191 -0.94374,0.17816 -1.45165,-0.68268 -0.57253,-0.97036 -1.77751,-1.57228 -2.38676,-1.19225 -0.29817,0.18599 -0.3059,0.32012 -0.0404,0.70058 0.1806,0.25881 0.62909,1.0361 0.99665,1.72733 0.56649,1.06536 0.78745,1.25677 1.45077,1.25677 0.59155,0 0.87707,0.18287 1.17003,0.7494 0.21314,0.41216 0.81151,1.25687 1.32971,1.87711 0.94598,1.13227 1.1846,1.95493 0.66093,2.27858 -0.27697,0.17118 -1.31582,-0.5764 -1.25302,-0.9017 0.08,-0.4143 -0.61394,-1.63736 -1.10186,-1.94207 -0.29638,-0.18509 -0.53887,-0.47945 -0.53887,-0.65414 0,-0.66883 -0.53304,-0.59387 -1.44008,0.20253 -1.26762,1.11298 -1.78128,0.91127 -1.40948,-0.55351 0.24008,-0.94582 0.19821,-1.25507 -0.30686,-2.26636 -0.52895,-1.05911 -1.3415,-1.59704 -1.3415,-0.88811 0,0.44065 -1.18757,0.16401 -1.21482,-0.28298 -0.10079,-1.65327 -0.77395,-2.38125 -2.20192,-2.38125 -0.62683,0 -1.11529,-0.31787 -2.20021,-1.43181 -1.2768,-1.31095 -1.52246,-1.44747 -2.910393,-1.6173 -1.681003,-0.2057 -4.818772,0.29344 -5.381375,0.85604 -0.401014,0.40102 -1.143282,0.43586 -1.701696,0.0799 -0.712646,-0.4543 0.0569,-1.10813 2.041195,-1.73426 4.317462,-1.36235 6.457659,-1.12264 8.386379,0.93931 0.99729,1.06619 1.43755,1.32951 2.64035,1.57921 1.5635,0.32458 1.84874,0.5485 2.11418,1.65966 0.2348,0.9829 1.13688,0.98611 1.50975,0.005 0.35584,-0.93592 0.73661,-1.16386 1.63054,-0.97608 0.81501,0.17121 0.91387,-0.071 0.33915,-0.83082 -0.48179,-0.63698 -0.51836,-1.81016 -0.0681,-2.18387 0.47898,-0.39751 2.49125,-1.02492 3.92756,-1.22457 0.99208,-0.1379 1.44412,-0.0518 2.40201,0.45751 1.09841,0.58403 2.64503,1.97111 3.09565,2.77631 0.10719,0.19155 0.48457,0.38455 0.83862,0.42889 0.35406,0.0443 0.95304,0.228 1.33109,0.40812 0.839781,0.40012 2.825421,3.3478 2.864711,4.25266 0.0157,0.36123 0.0407,1.01397 0.0555,1.45053 0.0148,0.43656 -0.11639,1.27 -0.29163,1.85208 -0.17524,0.58209 -0.33817,1.92149 -0.36207,2.97646 -0.048,2.11857 -0.25163,2.31316 -1.35275,1.29268 z m -44.595923,-6.51456 c -0.218281,-0.12647 -0.631663,-0.30446 -0.918626,-0.39555 -0.436177,-0.13845 -0.457875,-0.20601 -0.132292,-0.41192 0.310382,-0.19628 0.273061,-0.24712 -0.183804,-0.25035 -0.315295,-0.002 -0.615346,-0.1303 -0.66678,-0.2846 -0.05143,-0.1543 -0.507841,-0.29068 -1.014237,-0.30307 -0.913729,-0.0223 -1.305757,-0.30222 -1.313543,-0.93773 -0.0047,-0.38162 1.35061,-0.45229 1.72897,-0.0901 0.138245,0.13231 1.021497,0.47434 1.962783,0.76006 1.883566,0.57173 2.434198,1.08616 1.878852,1.75531 -0.38405,0.46275 -0.74244,0.50497 -1.341323,0.158 z m 21.596932,-1.19857 c -1.215529,-1.21553 -2.882287,-2.25774 -3.365442,-2.1044 -0.337744,0.1072 -0.492395,0.0506 -0.444906,-0.16293 0.133485,-0.6001 -2.758089,-1.06318 -3.10759,-0.49768 -0.0929,0.15031 0.07269,0.68276 0.367971,1.18323 0.29528,0.50046 0.433782,0.97364 0.307782,1.05152 -0.321572,0.19874 -1.417733,-0.25415 -1.836545,-0.75878 -0.192872,-0.2324 -0.808864,-0.54592 -1.368872,-0.69671 -0.871138,-0.23458 -1.23927,-0.18068 -2.548867,0.3732 -1.390928,0.58827 -1.572372,0.6099 -1.987452,0.23691 -0.25123,-0.22575 -0.403792,-0.4962 -0.339026,-0.601 0.06477,-0.10479 -0.164737,-0.31924 -0.510005,-0.47656 -0.515728,-0.23498 -0.710442,-0.19466 -1.091045,0.2259 -0.494071,0.54594 -1.439601,0.69814 -1.439601,0.23172 0,-0.15411 -0.102869,-0.21662 -0.228599,-0.13892 -0.125729,0.0777 -0.750807,-0.11716 -1.389062,-0.43305 -0.962784,-0.4765 -1.598638,-0.57084 -3.732725,-0.55381 -2.48276,0.0198 -2.562525,0.002 -2.29245,-0.50231 0.193065,-0.36075 0.453171,-0.4775 0.83902,-0.37659 0.322309,0.0843 0.91428,-0.0732 1.397358,-0.37177 0.720768,-0.44546 1.026861,-0.48221 2.185668,-0.26245 1.33176,0.25256 2.42704,0.75566 2.42704,1.11481 0,0.22465 1.01124,0.12312 1.665205,-0.16719 0.662739,-0.2942 2.374558,0.0259 2.728721,0.51023 0.337639,0.46175 1.014108,0.51111 2.11503,0.15432 0.421897,-0.13673 1.309613,-0.29512 1.972701,-0.35198 0.663088,-0.0569 1.604115,-0.30218 2.091171,-0.54515 0.494124,-0.2465 1.508449,-0.44177 2.29476,-0.44177 1.377297,0 3.536579,0.6462 3.536579,1.05837 0,0.11395 0.29422,0.28102 0.653822,0.37128 0.359601,0.0902 0.793799,0.42565 0.964889,0.74533 0.17109,0.31968 0.54684,0.77215 0.835,1.00548 0.37294,0.302 0.47098,0.59108 0.3402,1.00315 -0.21622,0.68123 -0.49033,0.728 -1.04073,0.1776 z m -30.957278,-2.50586 c -1.964817,-0.83804 -2.810487,-1.45479 -2.810487,-2.04968 0,-0.49721 1.136899,-0.25031 3.284618,0.71335 1.698723,0.76219 2.429701,1.39241 2.146503,1.85064 -0.253836,0.41071 -0.620717,0.33871 -2.620634,-0.51431 z m -8.895904,-3.87381 c 0,-0.56401 0.06716,-0.61005 0.529166,-0.36279 0.674525,0.36099 0.674525,0.69402 0,0.87041 -0.422463,0.11047 -0.529166,0.008 -0.529166,-0.50762 z"
       id="path27"
       sodipodi:nodetypes="ccsssssssssssssssccssssssssssssssscsssssssssssscssssssssssssssssssssssssssssssssssssssssssssssssssssssssssscscsscssssscscssssssssssssssssssssssssssscsscssssssssssscsssscssssscssssscssssssssssssccssssscssssssssssssssssssssssssssssssssssssssssssssssssssssssssssssssssssssssccsscsssssssssssssssssssssssssssssssssssssssssssssssssssssssssscssssssssssssccssscssssssssssssssssssssssssscsssssssssssssssssssssssss" />
  </g>
</svg>
