<?xml version="1.0" encoding="UTF-8" standalone="no"?>
<!-- Created with Inkscape (http://www.inkscape.org/) -->

<svg
   width="159.99567mm"
   height="38.44202mm"
   viewBox="0 0 159.99567 38.442012"
   version="1.1"
   id="svg1"
   inkscape:version="1.4.1-rc (06eac75fbf, 2025-03-29)"
   sodipodi:docname="hillbush4.svg"
   xmlns:inkscape="http://www.inkscape.org/namespaces/inkscape"
   xmlns:sodipodi="http://sodipodi.sourceforge.net/DTD/sodipodi-0.dtd"
   xmlns="http://www.w3.org/2000/svg"
   xmlns:svg="http://www.w3.org/2000/svg">
  <sodipodi:namedview
     id="namedview1"
     pagecolor="#ffffff"
     bordercolor="#000000"
     borderopacity="0.25"
     inkscape:showpageshadow="2"
     inkscape:pageopacity="0.0"
     inkscape:pagecheckerboard="0"
     inkscape:deskcolor="#d1d1d1"
     inkscape:document-units="mm"
     inkscape:zoom="0.72248176"
     inkscape:cx="303.12184"
     inkscape:cy="72.666194"
     inkscape:window-width="1850"
     inkscape:window-height="1016"
     inkscape:window-x="0"
     inkscape:window-y="0"
     inkscape:window-maximized="1"
     inkscape:current-layer="layer1" />
  <defs
     id="defs1" />
  <g
     inkscape:label="Layer 1"
     inkscape:groupmode="layer"
     id="layer1"
     transform="translate(-25.135437,-99.749202)">
    <path
       style="fill:#000000"
       d="m 142.5153,137.92208 c -0.34544,-0.90021 -0.16538,-2.46488 0.31313,-2.72097 0.51362,-0.27488 2.17965,-0.14866 3.2323,0.2449 1.0625,0.39724 2.49552,0.42836 2.54014,0.0552 0.0217,-0.1819 0.0544,-0.44177 0.0726,-0.57748 0.0182,-0.13572 0.27293,-0.32288 0.56608,-0.41592 0.29316,-0.0931 0.46981,-0.27144 0.39256,-0.39643 -0.0773,-0.12499 -0.0194,-0.30203 0.12845,-0.39344 0.14789,-0.0914 0.2689,-0.0476 0.2689,0.0972 0,0.14489 0.37344,0.30074 0.82987,0.34634 0.51022,0.051 0.98493,0.31775 1.23243,0.69258 0.40126,0.60771 0.39876,0.60947 -0.77937,0.54848 -1.49804,-0.0775 -1.81112,0.12459 -1.81615,1.17257 -0.003,0.56296 -0.0786,0.72669 -0.22776,0.49137 -0.17793,-0.2807 -0.25889,-0.26124 -0.39562,0.0951 -0.20019,0.52168 -1.22872,0.40294 -3.54968,-0.40981 l -1.39898,-0.4899 -0.15732,0.78661 c -0.18748,0.93736 -1.00749,1.50974 -1.2516,0.87362 z m 40.9767,-5.23137 c -0.28704,-0.19969 -0.93391,-0.45278 -1.43748,-0.56242 -1.37896,-0.30025 -2.45015,-1.18688 -2.27536,-1.88333 0.16198,-0.64536 -1.22765,-2.21827 -1.95979,-2.21827 -0.23103,0 -0.68489,-0.18549 -1.00857,-0.4122 -0.32367,-0.22671 -0.69289,-0.34769 -0.82048,-0.26883 -0.12759,0.0788 -0.6334,-0.0591 -1.12402,-0.30646 -0.49061,-0.24741 -1.01109,-0.46549 -1.15661,-0.48462 -0.14552,-0.0191 -0.42044,-0.0529 -0.61093,-0.0751 -0.19049,-0.0222 -0.26321,-0.17481 -0.16161,-0.33921 0.11301,-0.18284 0.042,-0.24761 -0.18282,-0.16681 -0.20216,0.0727 -0.57665,-0.0501 -0.8322,-0.27274 -0.76899,-0.66999 -0.82712,-0.15257 -0.0913,0.8122 0.3785,0.49624 0.68818,1.04358 0.68818,1.21631 0,0.62488 -0.78655,0.59445 -1.64956,-0.0638 -0.48494,-0.36988 -1.4135,-0.75171 -2.06347,-0.84852 -0.64997,-0.0968 -1.30628,-0.32997 -1.45847,-0.51814 -0.15219,-0.18818 -0.86656,-0.37226 -1.5875,-0.40907 -0.72093,-0.0368 -1.54891,-0.18804 -1.83996,-0.33607 -0.29104,-0.14802 -2.01744,-0.31549 -3.83645,-0.37215 -1.81901,-0.0567 -3.64054,-0.11616 -4.04783,-0.13223 -0.63333,-0.025 -0.72909,-0.12756 -0.66146,-0.70869 l 0.0791,-0.6795 2.64583,0.0905 c 3.87427,0.13259 4.76183,0.21599 7.54063,0.70855 2.77679,0.49221 3.15109,0.51653 4.49862,0.29234 0.50971,-0.0848 1.58127,-0.0323 2.38125,0.11674 0.79997,0.14902 1.71649,0.26738 2.0367,0.26304 0.32021,-0.004 0.65466,0.10933 0.74322,0.25263 0.0886,0.14329 0.45165,0.26053 0.80686,0.26053 0.35522,0 0.64585,0.11906 0.64585,0.26459 0,0.14552 0.13734,0.26458 0.3052,0.26458 0.64926,0 3.13438,1.3578 3.13438,1.71254 0,0.20577 0.2499,0.54916 0.55534,0.76309 0.30543,0.21394 0.84551,0.816 1.20016,1.33792 0.44688,0.65765 0.84495,0.94895 1.29675,0.94895 0.7863,0 1.71025,0.85763 1.71025,1.5875 0,0.62376 -0.69169,0.70232 -1.46248,0.1661 z m -35.154,-0.31999 c -0.49317,-1.28517 0.72728,-2.21718 2.69763,-2.06008 0.68355,0.0545 1.08527,0.0263 0.89273,-0.0626 -0.26697,-0.12329 -0.2168,-0.30353 0.21132,-0.75924 0.53235,-0.56667 0.61889,-0.57851 1.67299,-0.22893 1.58566,0.52588 2.25165,0.89924 2.42916,1.36182 0.2602,0.67807 -0.24896,0.87515 -1.12802,0.43662 -1.30775,-0.65239 -2.28941,-0.63171 -2.38695,0.0503 -0.0937,0.65495 -0.82817,0.93326 -1.4882,0.56389 -0.32354,-0.18106 -0.58685,-0.13308 -0.91894,0.16747 -0.25601,0.23168 -0.56408,0.33168 -0.6846,0.22223 -0.12051,-0.10946 -0.14435,0.009 -0.053,0.264 0.12816,0.35717 0.0233,0.46302 -0.4587,0.46302 -0.34366,0 -0.69712,-0.18833 -0.78544,-0.41851 z M 26.01302,131.0033 c -0.532977,-0.7881 -0.506786,-1.86996 0.05045,-2.08379 0.190913,-0.0733 0.288366,-0.35786 0.216563,-0.63243 -0.08387,-0.3207 0.131709,-0.74228 0.602826,-1.1789 0.403358,-0.37382 0.863156,-0.94515 1.021774,-1.26962 0.388159,-0.79403 1.823942,-1.45975 3.591512,-1.66527 1.409978,-0.16393 1.474435,-0.14304 2.073819,0.6723 0.587088,0.79861 0.606408,1.46929 0.02559,0.88847 -0.151487,-0.15148 -0.856182,-0.21698 -1.58309,-0.14713 -0.87002,0.0836 -1.310073,0.0257 -1.310073,-0.17237 0,-0.16403 -0.119063,-0.29824 -0.264584,-0.29824 -0.14552,0 -0.265991,0.14882 -0.267712,0.33072 -0.0017,0.18191 -0.771457,0.96795 -1.710525,1.74678 -1.882076,1.56091 -2.134486,2.00729 -1.732667,3.06415 0.580093,1.52576 0.131007,1.99463 -0.713883,0.74533 z M 183.161,128.56675 c -0.4952,-0.75644 -1.24105,-1.49339 -1.76123,-1.74023 -0.49625,-0.23549 -0.96728,-0.59756 -1.04673,-0.8046 -0.0795,-0.20704 -0.31073,-0.37644 -0.51395,-0.37644 -0.20322,0 -0.66791,-0.23472 -1.03263,-0.52161 -0.71675,-0.5638 -5.45016,-1.4249 -5.84669,-1.06363 -0.32475,0.29587 -1.17392,0.008 -1.35301,-0.45874 -0.0853,-0.22239 -0.008,-0.58169 0.17192,-0.79845 0.2703,-0.32568 0.80849,-0.3625 3.09983,-0.21202 2.59215,0.17022 2.88849,0.24968 4.54973,1.2199 0.97734,0.57079 1.81689,1.12866 1.86567,1.23971 0.0488,0.11105 0.62431,0.61774 1.27896,1.12598 2.08845,1.62139 2.7057,2.37075 2.52986,3.07134 -0.25428,1.01315 -1.00489,0.74982 -1.94173,-0.68121 z m -25.19402,0.65061 c -0.18116,-0.21828 -0.60543,-0.39688 -0.94282,-0.39688 -0.3374,0 -0.68591,-0.11724 -0.77447,-0.26053 -0.0886,-0.1433 -0.42301,-0.24677 -0.74322,-0.22994 -0.32021,0.0168 -1.02299,-0.1628 -1.56173,-0.39918 -0.71593,-0.31413 -1.15842,-0.36178 -1.64428,-0.17705 -0.43592,0.16573 -0.72183,0.16037 -0.83058,-0.0156 -0.0912,-0.14758 0.20223,-0.40726 0.65209,-0.57706 0.44986,-0.1698 0.81793,-0.46349 0.81793,-0.65264 0,-0.36371 0.82881,-0.25262 2.11666,0.28369 0.3638,0.15151 1.0499,0.29556 1.52466,0.32012 0.47477,0.0246 1.07008,0.22628 1.32292,0.44826 0.25284,0.22198 0.7276,0.48523 1.05503,0.58501 0.65591,0.19988 0.76735,0.66163 0.27781,1.15117 -0.42755,0.42756 -0.87236,0.39976 -1.27,-0.0794 z m -7.75469,-4.55664 c -0.81238,-0.12213 -1.21066,-0.73906 -0.76489,-1.18482 0.158,-0.158 0.49328,-0.19331 0.76273,-0.0803 0.26445,0.11089 0.98682,0.17724 1.60529,0.14744 0.95866,-0.0462 1.12448,0.0223 1.12448,0.46412 0,0.7376 -0.83607,0.93793 -2.72761,0.65358 z M 34.406557,123.70719 c 0,-0.33844 0.297657,-0.89497 0.661459,-1.23675 0.363802,-0.34177 0.661458,-0.77222 0.661458,-0.95655 0,-0.60519 0.506285,-0.66372 0.977793,-0.11304 0.254499,0.29723 0.766961,0.54043 1.138803,0.54043 1.019353,0 2.367801,1.01303 2.377269,1.78593 0.0046,0.37772 -0.822697,0.44638 -1.199802,0.0996 -0.369235,-0.33957 -2.475092,-0.55287 -2.650836,-0.26851 -0.08284,0.13404 -0.24797,0.18355 -0.366947,0.11002 -0.118977,-0.0735 -0.363453,0.0436 -0.543281,0.26026 -0.493309,0.5944 -1.055916,0.47645 -1.055916,-0.22137 z m 139.046483,-2.01765 c -0.0943,-0.15259 -0.10621,-0.383 -0.0265,-0.51204 0.0797,-0.12903 -0.0323,-0.38173 -0.24897,-0.56156 -0.21668,-0.17983 -0.39396,-0.53606 -0.39396,-0.79163 0,-0.26685 -0.33792,-0.60464 -0.79375,-0.79345 -0.43657,-0.18083 -0.79388,-0.46317 -0.79404,-0.62741 -4.3e-4,-0.45032 -2.4892,-2.20662 -3.41504,-2.40997 -0.44657,-0.0981 -0.87868,-0.28633 -0.96026,-0.41833 -0.24025,-0.38873 -3.80846,-2.10054 -4.37852,-2.10054 -0.28761,0 -0.58404,-0.15929 -0.65875,-0.35397 -0.19287,-0.50262 -2.22881,-0.55695 -2.22881,-0.0595 0,0.29304 -0.17703,0.32573 -0.79865,0.14745 -0.43925,-0.12597 -0.88573,-0.23815 -0.99218,-0.24928 -0.62913,-0.0658 -1.11959,-0.36161 -1.11959,-0.67536 0,-0.49033 0.58658,-0.63294 2.84524,-0.69175 1.39562,-0.0363 2.04525,0.0598 2.38125,0.35251 0.25413,0.22137 0.60222,0.35146 0.77354,0.28909 0.4636,-0.16878 5.72864,2.06231 6.03446,2.55713 0.0874,0.14134 0.59248,0.46277 1.12251,0.71429 0.89161,0.42309 1.32774,0.83363 3.70998,3.49223 0.50805,0.56699 0.85978,1.24378 0.8599,1.65463 2.3e-4,0.77651 -0.63525,1.49475 -0.9179,1.03743 z M 25.420033,120.63575 c -0.692793,-1.29449 -0.08775,-2.44744 1.456172,-2.77482 0.720799,-0.15284 0.808327,-0.27843 0.845607,-1.21329 0.02287,-0.57354 -0.07105,-1.11241 -0.20871,-1.19749 -0.137662,-0.0851 -0.250295,-0.37665 -0.250295,-0.64794 0,-0.27129 -0.277465,-0.82981 -0.61659,-1.24116 -0.339124,-0.41134 -0.76261,-1.28368 -0.94108,-1.93852 -0.277008,-1.01641 -0.259712,-1.34549 0.118197,-2.24896 0.734352,-1.75562 1.500047,-2.32466 3.357703,-2.49532 0.10914,-0.01 0.198437,-0.19682 0.198437,-0.4151 0,-0.44547 1.064737,-0.54922 1.470649,-0.14331 0.503776,0.50378 1.02575,-0.18575 0.981456,-1.29649 -0.03034,-0.76093 0.06435,-1.07374 0.325036,-1.07374 0.202319,0 0.553198,-0.26462 0.779731,-0.58804 0.226533,-0.32342 0.411878,-0.50201 0.411878,-0.39687 0,0.10514 0.267891,-0.0767 0.595313,-0.40415 0.327421,-0.32743 0.595312,-0.70446 0.595312,-0.83785 0,-0.49034 0.62315,-0.43078 0.991236,0.0947 0.208529,0.29772 0.440795,0.47965 0.516147,0.4043 0.07535,-0.0753 0.28761,0.0445 0.471686,0.26627 0.184075,0.22179 0.498698,0.40327 0.699161,0.40327 0.200463,0 0.364478,0.12525 0.364478,0.27834 0,0.15309 0.332104,0.39412 0.738008,0.53562 0.549395,0.19152 0.870589,0.59937 1.256771,1.59585 0.626842,1.61745 1.026029,2.01628 1.567946,1.56653 0.56082,-0.46544 2.554066,-0.0734 3.050958,0.60011 0.524811,0.71132 1.537357,2.33257 1.768644,2.83188 0.101111,0.21828 0.335879,0.51594 0.521705,0.66146 0.185827,0.14552 0.342694,0.6813 0.348593,1.19062 0.02764,2.38653 0.07798,2.60242 0.642122,2.75386 1.388947,0.37285 1.499552,0.2637 1.315928,-1.29865 -0.166034,-1.41269 -0.152185,-1.45521 0.473939,-1.45521 0.354733,0 0.779487,-0.13452 0.943898,-0.29893 0.164411,-0.16441 0.575176,-0.34067 0.912813,-0.3917 0.337636,-0.051 1.268727,-0.28044 2.069092,-0.5098 2.01193,-0.57657 5.944107,-0.17558 7.871354,0.8027 1.669846,0.84762 0.673288,1.79329 -1.106244,1.04976 -0.546169,-0.22821 -1.785736,-0.47124 -2.754593,-0.54008 -0.968857,-0.0688 -2.091876,-0.16567 -2.495598,-0.21517 -0.403721,-0.0495 -0.797701,0.013 -0.875511,0.1389 -0.07781,0.1259 -0.531319,0.22891 -1.007801,0.22891 -0.476481,0 -0.955626,0.0893 -1.064767,0.19843 -0.10914,0.10914 -0.277812,0.20626 -0.374826,0.21582 -0.315205,0.0311 -1.892786,1.03614 -1.894508,1.20699 -0.0038,0.37976 0.755442,0.7416 1.990673,0.94869 1.163602,0.19508 1.314946,0.29588 1.314946,0.87578 0,0.62222 -0.06644,0.65053 -1.315238,0.5604 -0.723381,-0.0522 -1.61635,-0.21964 -1.984375,-0.37208 -0.810546,-0.33574 -1.539829,-0.26323 -2.232558,0.22198 -0.285516,0.19998 -0.793425,0.29392 -1.131052,0.20918 -1.013071,-0.25427 -0.795141,0.83892 0.309948,1.55477 1.012888,0.65612 1.063419,0.77883 0.643676,1.56313 -0.270917,0.50621 -0.311492,0.51033 -0.787209,0.0798 -0.275863,-0.24965 -1.015029,-0.49669 -1.642592,-0.54897 -1.003657,-0.0836 -1.146074,-0.028 -1.182975,0.46187 -0.05416,0.71905 -0.217395,0.86772 -0.648043,0.59024 -0.191582,-0.12345 -1.17382,-0.22466 -2.182751,-0.22493 l -1.834418,-4.9e-4 -0.223667,-0.8599 c -0.151706,-0.58323 -0.391484,-0.87053 -0.745269,-0.89296 -0.286881,-0.0182 -0.67043,-0.048 -0.852331,-0.0661 -0.391166,-0.0391 -0.620614,-1.2237 -0.237025,-1.2237 0.833223,0 3.125881,0.69809 3.376693,1.02816 0.255174,0.33581 0.390706,0.31378 0.995333,-0.16182 0.384965,-0.30281 0.90688,-0.50101 1.159811,-0.44043 0.252931,0.0606 0.6317,-0.002 0.841707,-0.13894 0.309006,-0.20157 0.322704,-0.37885 0.07182,-0.92948 -0.170507,-0.37422 -0.439942,-0.6804 -0.598743,-0.6804 -0.158802,0 -0.83397,-0.37514 -1.500373,-0.83364 -1.362056,-0.93712 -1.997099,-0.81935 -2.14242,0.3973 -0.177632,1.48716 -1.948029,0.22161 -1.813933,-1.29667 0.03523,-0.39891 -0.146413,-0.53453 -0.800747,-0.59785 -0.81139,-0.0785 -2.460975,-1.53726 -2.460975,-2.17627 0,-0.14046 -0.170571,-0.25537 -0.379046,-0.25537 -0.208475,0 -0.45121,-0.22738 -0.539413,-0.50528 -0.0882,-0.2779 -0.333678,-0.64911 -0.545502,-0.8249 -0.311459,-0.25849 -0.48462,-0.1998 -0.905193,0.30683 l -0.520059,0.62647 -0.923154,-0.99219 c -1.483527,-1.59446 -2.629461,-1.30527 -2.935189,0.74073 -0.212203,1.42011 0.658993,2.91439 1.534871,2.63262 1.27678,-0.41073 2.319809,-0.44702 2.743434,-0.0954 0.238632,0.19804 0.634732,0.32606 0.880222,0.28447 0.24549,-0.0416 0.76298,0.0448 1.149979,0.1919 0.547743,0.20825 0.703633,0.44483 0.703633,1.06782 0,0.44016 -0.03717,0.8003 -0.08259,0.8003 -0.04543,0 -0.551443,-0.22476 -1.124479,-0.49946 -1.101079,-0.52784 -3.797022,-0.88785 -3.853082,-0.51453 -0.01819,0.12113 -0.04796,0.32938 -0.06615,0.46277 -0.01819,0.1334 -0.12237,0.33184 -0.23151,0.44098 -0.413111,0.41311 -0.1993,1.16857 0.330729,1.16857 0.291041,0 0.529166,0.17486 0.529166,0.38857 0,0.22421 -0.156556,0.3285 -0.370112,0.24655 -0.203562,-0.0781 -0.442073,-0.0256 -0.530025,0.11672 -0.237471,0.38423 0.10846,1.10025 0.53157,1.10025 0.202712,0 0.368567,0.17859 0.368567,0.39687 0,0.44931 -0.414319,0.53217 -0.661458,0.13229 -0.08994,-0.14552 -0.282584,-0.26458 -0.428105,-0.26458 -0.145521,0 -0.190998,0.11906 -0.101062,0.26458 0.136031,0.2201 -1.015339,0.41343 -1.778037,0.29855 -0.104796,-0.0158 -0.317344,0.20824 -0.47233,0.49784 -0.154986,0.28959 -0.203493,0.52653 -0.107795,0.52653 0.0957,0 0.02578,0.17859 -0.155379,0.39687 -0.275086,0.33146 -0.237329,0.39688 0.229067,0.39688 0.379473,0 0.538245,-0.14839 0.495418,-0.46302 -0.03466,-0.25466 0.05604,-0.46302 0.201556,-0.46302 0.360474,0 0.197743,0.98529 -0.204988,1.24115 -0.537629,0.34156 -0.951984,0.24215 -1.240911,-0.29772 z m 20.827953,-5.90437 c -0.130788,-0.39713 -1.258095,-0.61119 -1.258095,-0.23889 0,0.27833 0.436569,0.51453 1.014236,0.54873 0.194028,0.0115 0.303764,-0.12794 0.243859,-0.30984 z m -1.34745,-2.11667 c -0.0734,-0.1819 -0.133452,-0.0331 -0.133452,0.33073 0,0.3638 0.06005,0.51263 0.133452,0.33073 0.0734,-0.1819 0.0734,-0.47956 0,-0.66146 z m -1.233562,-0.47863 c 0,-0.13694 -0.119062,-0.24897 -0.264583,-0.24897 -0.145521,0 -0.264584,0.18562 -0.264584,0.41249 0,0.22687 0.119063,0.3389 0.264584,0.24897 0.145521,-0.0899 0.264583,-0.27556 0.264583,-0.41249 z m -4.233333,0.0156 c -0.218282,-0.14106 -0.575469,-0.25648 -0.79375,-0.25648 -0.352778,0 -0.352778,0.0285 0,0.25648 0.218281,0.14107 0.575468,0.25648 0.79375,0.25648 0.352777,0 0.352777,-0.0285 0,-0.25648 z m 6.614583,0 c -0.518153,-0.33485 -0.868411,-0.33485 -0.661458,0 0.08994,0.14552 0.364854,0.26276 0.610927,0.26053 0.385571,-0.003 0.392555,-0.0395 0.05053,-0.26053 z m -8.73125,-0.52916 c 0,-0.14553 -0.126089,-0.26459 -0.280198,-0.26459 -0.154109,0 -0.206614,0.11906 -0.116677,0.26459 0.08994,0.14552 0.216026,0.26458 0.280198,0.26458 0.06417,0 0.116677,-0.11906 0.116677,-0.26458 z m -1.079357,-1.33592 c -0.478455,-0.2957 -0.838098,0.0639 -0.62341,0.62341 0.151224,0.39409 0.205024,0.39596 0.58075,0.0202 0.350686,-0.35069 0.357217,-0.44924 0.04266,-0.64365 z m 6.717586,0.69144 c 0.325346,-0.24667 0.383316,-0.4221 0.180834,-0.54724 -0.16391,-0.10131 -0.323789,-0.1425 -0.355285,-0.0916 -0.0315,0.051 -0.216747,0.301 -0.411668,0.55566 -0.420174,0.54895 -0.09003,0.59578 0.586119,0.0831 z m 1.505521,0.11531 c 0,-0.14552 -0.119062,-0.26458 -0.264583,-0.26458 -0.145521,0 -0.264584,0.11906 -0.264584,0.26458 0,0.14552 0.119063,0.26458 0.264584,0.26458 0.145521,0 0.264583,-0.11906 0.264583,-0.26458 z m -4.891386,-1.09859 c 0.217998,-0.47528 0.106709,-0.73465 -0.673148,-1.56885 -0.718341,-0.76839 -1.191222,-1.02894 -2.045631,-1.1271 -1.057622,-0.1215 -1.10862,-0.0952 -1.055712,0.54405 0.03058,0.36944 0.326032,0.84891 0.656568,1.06549 0.330537,0.21658 0.600976,0.53486 0.600976,0.7073 0,1.03039 2.074879,1.34291 2.516947,0.37911 z m -4.840871,-1.06659 c -0.1722,-0.17219 -0.389315,-0.23686 -0.482478,-0.1437 -0.09316,0.0932 -0.09124,0.37303 0.0043,0.62192 0.132353,0.3449 0.247099,0.37908 0.482478,0.1437 0.23538,-0.23538 0.234366,-0.38329 -0.0043,-0.62192 z m 8.806215,0.57768 c -0.08994,-0.14552 -0.275557,-0.26458 -0.41249,-0.26458 -0.136932,0 -0.248968,0.11906 -0.248968,0.26458 0,0.14552 0.18562,0.26458 0.41249,0.26458 0.226869,0 0.338905,-0.11906 0.248968,-0.26458 z m -1.719791,-0.92604 c 0,-0.21828 -0.174857,-0.39688 -0.388571,-0.39688 -0.236695,0 -0.329045,0.15512 -0.236276,0.39688 0.08376,0.21828 0.258619,0.39687 0.388571,0.39687 0.129952,0 0.236276,-0.17859 0.236276,-0.39687 z m -10.054167,-0.23518 c 0,-0.20211 0.195545,-0.35094 0.434544,-0.33073 0.238999,0.0202 0.476993,-0.0823 0.528876,-0.22783 0.05515,-0.15469 -0.454825,-0.25935 -1.227754,-0.25198 -1.448238,0.0138 -1.688341,0.26814 -0.744523,0.78864 0.821203,0.45288 1.008857,0.45695 1.008857,0.0219 z m 2.268258,-1.42251 c 0.156135,-0.10691 0.356348,-0.39125 0.444917,-0.63187 0.120653,-0.32778 0.50463,-0.44014 1.531228,-0.4481 0.753606,-0.006 1.426243,-0.0667 1.494748,-0.13517 0.420452,-0.42045 -1.307555,-2.26309 -2.136035,-2.27774 -0.747854,-0.0132 -2.280199,1.74195 -2.280199,2.61178 0,1.00026 0.326666,1.30473 0.945341,0.8811 z m -3.736371,12.35242 c -0.130431,-0.21104 0.203559,-0.67496 0.934906,-1.29859 1.060226,-0.90407 1.26158,-0.97186 2.952186,-0.99391 1.774255,-0.0231 1.814354,-0.009 1.814354,0.65053 0,0.62879 -0.06821,0.66504 -1.012933,0.53833 -0.975793,-0.13088 -2.639957,0.34887 -2.949928,0.85041 -0.258777,0.41871 -1.52255,0.60278 -1.738585,0.25323 z m 112.707129,-0.009 c -0.24196,-0.3915 0.34681,-0.7325 0.97919,-0.56713 0.39579,0.1035 0.43981,0.21127 0.2029,0.49674 -0.36493,0.4397 -0.93294,0.47353 -1.18209,0.0704 z m 19.21072,-0.86976 c -0.27533,-0.72418 -1.24106,-1.48191 -1.88871,-1.48191 -0.61015,0 -1.17268,-0.69464 -0.71217,-0.87942 0.18798,-0.0754 -0.0809,-0.14653 -0.5975,-0.15802 -0.5166,-0.0115 -1.06531,-0.14694 -1.21937,-0.301 -0.31891,-0.3189 -2.89503,-0.57314 -3.59989,-0.35527 -0.62616,0.19355 -0.36929,0.5355 0.88169,1.1737 1.22292,0.62389 1.28487,0.85285 0.34643,1.28043 -0.72633,0.33093 -1.30929,0.10895 -2.29037,-0.87212 -0.56591,-0.56592 -1.96012,-0.26038 -2.48798,0.54523 -0.46964,0.71676 -0.83288,0.77709 -1.54474,0.25656 -0.40864,-0.2988 -0.44226,-0.44216 -0.1783,-0.76021 0.44682,-0.53838 0.19069,-1.05654 -0.81626,-1.65136 -1.12446,-0.66423 -4.12037,-1.22835 -4.74583,-0.89361 -0.3012,0.1612 -0.47173,0.1601 -0.47173,-0.003 0,-0.14052 -0.26789,-0.29636 -0.59531,-0.34632 -0.32742,-0.05 -0.56555,-0.23683 -0.52917,-0.41528 0.0382,-0.18732 -0.2134,-0.32444 -0.59531,-0.32444 -0.3638,0 -0.66146,-0.12529 -0.66146,-0.27841 0,-0.39388 -2.70939,-0.20084 -2.84227,0.2025 -0.0596,0.18095 0.21988,0.3887 0.64066,0.47621 2.22826,0.46345 3.49534,1.03489 3.64859,1.64548 0.33019,1.3156 -0.18209,1.41635 -1.84369,0.36259 -1.30071,-0.82488 -1.98408,-0.82133 -2.82008,0.0147 -0.55339,0.55339 -1.73814,0.62775 -2.36178,0.14824 -0.23056,-0.17727 -0.498,-0.6389 -0.59431,-1.02585 -0.15751,-0.63277 -0.35571,-0.73399 -1.97082,-1.00641 -1.21499,-0.20494 -2.16164,-0.22066 -2.9273,-0.0486 -1.05485,0.23701 -1.14761,0.21215 -1.36764,-0.36656 -0.12982,-0.34145 -0.50962,-0.76657 -0.84401,-0.94471 -0.33439,-0.17813 -0.72704,-0.46281 -0.87256,-0.6326 -0.53317,-0.6221 -2.39397,-0.9829 -4.31087,-0.83584 -2.02493,0.15535 -2.36463,0.009 -1.79285,-0.7731 0.26549,-0.36307 0.70286,-0.49653 1.64517,-0.502 1.27998,-0.007 1.28377,-0.0101 1.36308,-0.95614 0.046,-0.54821 -0.0657,-1.06706 -0.26459,-1.2291 -0.67634,-0.55115 -2.83454,-1.65867 -3.23222,-1.65867 -0.63116,0 -2.80043,-1.12943 -2.80043,-1.45804 0,-0.41843 -1.04771,-1.49017 -1.3027,-1.33257 -0.11706,0.0723 -0.73504,-0.12164 -1.37329,-0.43107 -1.11977,-0.54288 -3.75097,-0.90206 -5.79067,-0.79049 -1.37465,0.0752 -3.05135,0.0711 -5.44973,-0.0134 -1.73091,-0.061 -2.13748,-0.002 -2.11667,0.3049 0.0376,0.55596 -1.582186,0.96849 -2.476856,0.63079 -0.5741,-0.2167 -0.77625,-0.18931 -0.97938,0.13271 -0.34055,0.53988 -1.09046,0.2331 -1.39625,-0.57119 -0.19132,-0.50321 -0.4841,-0.65902 -1.441,-0.76688 -0.66049,-0.0744 -1.71152,-0.0228 -2.33562,0.11469 -0.62409,0.13753 -1.55143,0.31508 -2.06075,0.39458 -0.50933,0.0795 -1.08085,0.26901 -1.27005,0.42117 -0.24819,0.19959 -0.46665,0.15401 -0.7843,-0.16365 -0.38591,-0.3859 -0.39244,-0.48546 -0.0529,-0.80599 0.21308,-0.20114 1.04227,-0.56682 1.84263,-0.81264 0.80037,-0.24582 1.72734,-0.57989 2.05994,-0.74238 0.44052,-0.21522 0.83566,-0.2169 1.45521,-0.006 0.46776,0.15908 1.32673,0.3806 1.90881,0.49226 1.15675,0.2219 1.38851,0.27684 1.5875,0.37634 0.0728,0.0364 0.24623,0.081 0.38549,0.0992 0.13925,0.0182 0.42403,0.2667 0.63282,0.55225 0.31304,0.4281 0.45015,0.46066 0.78159,0.18559 0.27136,-0.22521 0.45765,-0.24346 0.57341,-0.0562 0.26332,0.42605 0.57792,0.33695 1.355856,-0.38403 0.76835,-0.71208 1.08327,-0.78915 1.68053,-0.41128 0.24172,0.15293 0.58274,0.12864 0.92605,-0.066 0.60979,-0.34566 3.32155,-0.49069 3.32155,-0.17765 0,0.11097 0.50602,0.0842 1.12448,-0.0594 2.51778,-0.58472 7.11835,0.40081 9.18776,1.9682 1.5526,1.17595 2.66856,1.76092 3.38825,1.77607 0.33199,0.007 0.67215,0.19131 0.75592,0.40959 0.0838,0.21828 0.28838,0.39696 0.45471,0.39708 0.40367,2.7e-4 2.2868,1.68977 2.2868,2.05165 0,0.15691 0.14883,0.3349 0.33073,0.39554 0.1819,0.0606 0.33073,0.51527 0.33073,1.0103 0,0.81362 0.12069,0.95736 1.25677,1.49674 0.69122,0.32817 1.25677,0.72063 1.25677,0.87213 0,0.1515 0.20836,0.35501 0.46302,0.45223 0.25466,0.0972 0.69383,0.39115 0.97593,0.65316 0.57007,0.52947 0.93118,0.58685 3.09722,0.4922 1.05392,-0.0461 1.86199,0.0977 2.74561,0.48862 1.73516,0.76754 2.81255,0.69989 1.98784,-0.12483 -0.16413,-0.16412 0.0247,-0.44304 0.5284,-0.78052 0.8321,-0.5575 1.04297,-1.18659 0.39775,-1.18659 -0.49397,0 -0.98153,-0.89473 -0.77741,-1.42665 0.0858,-0.22366 -0.0932,-0.75668 -0.39782,-1.18449 -0.30463,-0.42782 -0.55387,-0.91421 -0.55387,-1.08087 0,-0.16666 -0.18075,-0.65255 -0.40167,-1.07975 -0.32892,-0.63607 -0.34758,-0.9915 -0.10303,-1.96269 0.17268,-0.68578 0.48533,-1.24522 0.7413,-1.32646 0.81998,-0.26026 2.64576,-0.22919 2.99191,0.0509 0.18885,0.15281 0.95952,0.36065 1.7126,0.46186 0.7975,0.10718 1.42928,0.3405 1.51305,0.55879 0.0791,0.20612 0.29638,0.37683 0.48284,0.37934 0.18647,0.003 0.60505,0.28524 0.93018,0.62827 0.32512,0.34303 1.63481,1.0674 2.91041,1.60971 2.43211,1.03398 3.07171,1.53015 3.92033,3.0412 0.28359,0.50496 0.72398,1.15249 0.97864,1.43895 0.57078,0.64205 0.59657,1.57262 0.0585,2.1107 -0.61747,0.61747 -1.06925,0.26566 -1.54314,-1.20167 -0.54619,-1.69116 -1.76191,-3.23631 -2.87623,-3.65561 -0.47555,-0.17895 -1.12847,-0.45035 -1.45094,-0.60312 -0.38956,-0.18456 -0.70029,-0.1897 -0.92604,-0.0153 -0.55911,0.4319 -1.65183,0.003 -1.75122,-0.68719 -0.0487,-0.3383 -0.3166,-0.67473 -0.59532,-0.74761 -0.27871,-0.0729 -0.50675,-0.27711 -0.50675,-0.45383 0,-0.31676 -0.21355,-0.44343 -2.19179,-1.30009 -1.34246,-0.58135 -2.75164,-0.56769 -3.04114,0.0295 -0.26476,0.54615 -0.22254,1.03998 0.24986,2.92265 0.32844,1.30893 0.39526,1.38974 1.0137,1.22591 1.4015,-0.37129 4.87989,-0.32826 5.29229,0.0655 0.21828,0.2084 1.0477,0.78913 1.84316,1.29051 0.79546,0.50138 1.33124,0.92347 1.19063,0.93798 -0.14062,0.0145 0.0396,0.1086 0.40047,0.20911 0.36088,0.1005 1.04634,0.71371 1.52324,1.36269 1.00834,1.37215 1.0032,1.36665 2.09215,2.23576 1.00797,0.80447 2.09297,0.87843 2.28201,0.15556 0.17148,-0.65578 1.97052,-0.94663 4.43721,-0.71737 2.18328,0.20291 2.64525,0.36282 2.45799,0.85081 -0.0791,0.20624 -0.022,0.37498 0.12695,0.37498 0.14896,0 0.31603,-0.13557 0.37127,-0.30128 0.27393,-0.8218 3.91242,2.25756 3.91242,3.3112 0,0.92401 -0.96741,0.96785 -1.31277,0.0595 z m -1.40472,-2.43551 c -0.0879,-0.0879 -0.31612,-0.0973 -0.50712,-0.0209 -0.21107,0.0845 -0.14837,0.14716 0.15985,0.15985 0.27892,0.0115 0.43519,-0.051 0.34727,-0.13896 z m -23.2339,-1.30197 c -0.23695,-0.9873 -0.33949,-1.18401 -0.61718,-1.18401 -0.40848,0 -0.9481,0.5467 -0.9481,0.96056 0,0.17905 0.26789,0.37629 0.59532,0.4383 0.79458,0.15049 1.04436,0.0952 0.96996,-0.21485 z m 6.09916,-2.25426 c -0.32587,-0.45763 -0.90512,-0.87195 -1.34094,-0.95911 -0.42199,-0.0844 -0.76725,-0.2539 -0.76725,-0.37666 0,-0.12276 -0.17859,-0.15467 -0.39687,-0.0709 -0.57061,0.21896 -0.48896,0.59519 0.19844,0.91434 0.32742,0.15202 1.01203,0.50608 1.52135,0.78679 1.28104,0.70605 1.45203,0.64193 0.78527,-0.29445 z m 3.05119,0.2765 c -0.4982,-0.5505 -0.92604,-0.69142 -0.92604,-0.30502 0,0.12329 0.26789,0.35335 0.59531,0.51126 0.84106,0.40563 0.8688,0.38833 0.33073,-0.20624 z m -0.79375,-1.05833 c 0.0899,-0.14553 0.0374,-0.26459 -0.11668,-0.26459 -0.15411,0 -0.2802,0.11906 -0.2802,0.26459 0,0.14552 0.0525,0.26458 0.11668,0.26458 0.0642,0 0.19026,-0.11906 0.2802,-0.26458 z m -113.973764,4.83714 c -0.40265,-0.0609 -0.663514,-0.22162 -0.579698,-0.35723 0.148092,-0.23962 -0.573403,-0.37377 -1.550904,-0.28836 -0.740206,0.0647 -0.476973,-1.12543 0.272504,-1.23202 0.962294,-0.13686 2.861708,0.84 2.911215,1.49723 0.02363,0.31367 -0.03894,0.55248 -0.139033,0.53068 -0.100097,-0.0218 -0.511435,-0.0894 -0.914084,-0.1503 z m 22.560215,-7.19009 c 0,-0.16109 -0.154782,-0.29289 -0.343959,-0.29289 -0.189177,0 -0.484,-0.14004 -0.655163,-0.3112 -0.546387,-0.54639 0.16425,-1.01171 1.54507,-1.01171 0.701198,0 1.347364,-0.11725 1.435924,-0.26054 0.08856,-0.14329 0.423009,-0.26702 0.743219,-0.27495 3.077067,-0.0762 3.972278,-3e-4 4.563195,0.38689 1.043722,0.68387 0.746257,1.12052 -0.673703,0.98893 -3.498081,-0.32418 -3.394252,-0.33348 -3.25753,0.29194 0.08893,0.40681 0.05342,0.48237 -0.115455,0.24565 -0.239469,-0.33567 -1.523347,-0.17877 -2.778578,0.33957 -0.277273,0.1145 -0.46302,0.0737 -0.46302,-0.10169 z m 8.466666,-1.25285 c 0,-0.19962 0.231099,-0.36295 0.513552,-0.36295 0.282453,0 0.587136,-0.11907 0.677073,-0.26459 0.08994,-0.14552 0.03743,-0.26458 -0.116677,-0.26458 -0.399261,0 -0.347233,-0.93791 0.0713,-1.28526 0.193322,-0.16044 0.580275,-0.32729 0.859896,-0.37078 0.27962,-0.0435 0.686995,-0.19052 0.905276,-0.32674 0.218281,-0.13622 1.248324,-0.38138 2.288985,-0.5448 1.476776,-0.2319 2.028348,-0.22421 2.512763,0.035 0.364493,0.19507 0.735858,0.23655 0.899783,0.10051 0.411122,-0.3412 1.498422,0.0118 1.336447,0.43395 -0.192148,0.50073 0.251972,0.69973 0.606977,0.27198 0.163118,-0.19655 0.563562,-0.31312 0.889875,-0.25905 1.788562,0.29637 2.313086,0.43786 2.313086,0.62395 0,0.29067 -0.790793,0.56051 -1.093799,0.37324 -0.138764,-0.0858 -0.39591,-0.0423 -0.571436,0.0966 -0.506894,0.40109 -2.121905,0.32912 -2.614316,-0.11651 -0.247282,-0.22379 -0.582887,-0.32451 -0.745789,-0.22383 -0.162902,0.10068 -1.128542,-0.0209 -2.145866,-0.27024 -1.812861,-0.44426 -2.5898,-0.36799 -1.816964,0.17837 0.312408,0.22086 0.290487,0.24294 -0.11109,0.1119 -0.275166,-0.0898 -0.751416,-7.9e-4 -1.058333,0.19777 -0.306917,0.19856 -0.885453,0.44166 -1.285636,0.54021 -0.741635,0.18264 -0.938883,0.53646 -0.46302,0.83056 0.617316,0.38153 0.213467,0.80405 -0.79375,0.83046 -0.733886,0.0192 -1.058334,-0.0835 -1.058334,-0.33521 z m 19.731454,-3.54877 c -0.55239,-0.34785 -0.907348,-0.41575 -1.240714,-0.23734 -0.259784,0.13903 -0.529975,0.14794 -0.608993,0.0201 -0.07812,-0.1264 -0.428576,-0.17504 -0.778793,-0.10809 -0.666669,0.12744 -1.187528,-0.34581 -0.794796,-0.72215 0.392397,-0.37603 1.823208,-0.42751 1.749655,-0.063 -0.03638,0.18031 0.06284,0.32784 0.220486,0.32784 0.157647,0 0.237377,-0.14777 0.177176,-0.32837 -0.0602,-0.1806 0.05089,-0.48872 0.246872,-0.6847 0.298715,-0.29871 0.480501,-0.2777 1.124318,0.12993 0.422395,0.26744 0.777631,0.57556 0.789413,0.6847 0.01178,0.10914 0.110719,0.1795 0.21986,0.15637 0.871957,-0.18485 1.070355,-0.32028 0.945571,-0.64546 -0.216496,-0.56419 0.386483,-0.44254 0.698765,0.14096 0.386383,0.72196 0.342553,1.02193 -0.189128,1.29441 -0.985196,0.5049 -1.795645,0.5159 -2.559692,0.0348 z m 3.661283,-1.47305 c -0.12781,-0.68128 -0.0744,-1.02138 0.18644,-1.18657 0.66515,-0.42127 0.95148,-0.24956 0.92295,0.55349 -0.0155,0.43623 -0.11747,0.79341 -0.22661,0.79375 -0.10914,3.3e-4 -0.19843,0.17919 -0.19843,0.39747 0,0.78955 -0.50948,0.37404 -0.68435,-0.55814 z m 5.78217,0.59084 c -0.0834,-0.1349 0.068,-0.4058 0.33628,-0.602 0.95227,-0.69632 2.11099,-0.23308 1.43983,0.57561 -0.34006,0.40974 -1.52828,0.42739 -1.77611,0.0264 z m -3.97467,-0.23118 c 0.12947,-0.39313 1.2581,-0.61305 1.2581,-0.24515 0,0.2566 -0.61099,0.57588 -1.10203,0.57588 -0.14574,0 -0.21597,-0.14883 -0.15607,-0.33073 z"
       id="path28"
       sodipodi:nodetypes="sssssssssssscssscssssssssssssssssssssssssscsssscsssssssssssssssssssssscssssssssssssssssssssssssssssssssssssssssssssssssssssssssssssssssssssssssssssssssssssssssssssssssssssssssssssssssssssssssssssssssssssssssssssssssssscsscsssssssssssssssscssssssssssssssssssssssssssssssssssssssssssssssssssscsssssssssssscsssccsssssssssssssssssssssssssssssssssssccssssssssssssssscsssssssssssssssssssssssssssssssscscsssssscssssssssssscsssssssssscsssssssssssscsssssssssssscssssssssssssssssssssssssssssccsssssssssssssssssssssssssssssssssssssssssssssssssssssssssssssssssssssssssssssssssssssssssssssssscsssssss" />
  </g>
</svg>
