<?xml version="1.0" encoding="UTF-8" standalone="no"?>
<!-- Created with Inkscape (http://www.inkscape.org/) -->

<svg
   width="26.719852mm"
   height="10.150545mm"
   viewBox="0 0 26.719853 10.150544"
   version="1.1"
   id="svg1"
   inkscape:version="1.4.1-rc (06eac75fbf, 2025-03-29)"
   sodipodi:docname="smallbush5.svg"
   xmlns:inkscape="http://www.inkscape.org/namespaces/inkscape"
   xmlns:sodipodi="http://sodipodi.sourceforge.net/DTD/sodipodi-0.dtd"
   xmlns="http://www.w3.org/2000/svg"
   xmlns:svg="http://www.w3.org/2000/svg">
  <sodipodi:namedview
     id="namedview1"
     pagecolor="#ffffff"
     bordercolor="#000000"
     borderopacity="0.25"
     inkscape:showpageshadow="2"
     inkscape:pageopacity="0.0"
     inkscape:pagecheckerboard="0"
     inkscape:deskcolor="#d1d1d1"
     inkscape:document-units="mm"
     inkscape:zoom="0.72248176"
     inkscape:cx="51.212365"
     inkscape:cy="18.685593"
     inkscape:window-width="1850"
     inkscape:window-height="1016"
     inkscape:window-x="0"
     inkscape:window-y="0"
     inkscape:window-maximized="1"
     inkscape:current-layer="layer1" />
  <defs
     id="defs1" />
  <g
     inkscape:label="Layer 1"
     inkscape:groupmode="layer"
     id="layer1"
     transform="translate(-91.81047,-114.0367)">
    <path
       style="fill:#000000"
       d="m 103.05526,123.97166 c -0.43656,-0.14288 -1.23784,-0.26137 -1.78062,-0.26329 -0.54278,-0.002 -1.05702,-0.11702 -1.14276,-0.25575 -0.0857,-0.13873 -0.25408,-0.19156 -0.37409,-0.11739 -0.19205,0.1187 -0.92294,-0.11764 -2.78795,-0.90152 -0.83037,-0.34901 -1.79377,-0.29542 -2.45288,0.13645 -0.76174,0.49911 -1.08402,0.31061 -0.9216,-0.53903 0.18594,-0.97269 1.47432,-1.15812 4.03594,-0.58087 1.88571,0.42494 2.19971,0.56395 2.32093,1.02749 0.0736,0.28128 0.20651,0.41205 0.29546,0.29061 0.089,-0.12145 0.39524,-0.34993 0.68064,-0.50775 0.2854,-0.15783 0.66541,-0.646 0.84448,-1.08485 0.31389,-0.76925 0.30239,-0.79346 -0.32047,-0.67439 -0.35532,0.0679 -0.64604,0.007 -0.64604,-0.13595 0,-0.14269 -0.48454,-0.59522 -1.07675,-1.00563 -1.20426,-0.83455 -2.01584,-2.09238 -1.53987,-2.38655 0.20772,-0.12837 0.19914,-0.23768 -0.0298,-0.37915 -0.21806,-0.13477 -0.26367,-0.54172 -0.14166,-1.26394 0.15944,-0.94367 0.27939,-1.08382 1.05161,-1.22869 0.96033,-0.18015 1.81477,0.0355 1.58887,0.40099 -0.0795,0.12861 0.0197,0.17081 0.22048,0.0938 0.43179,-0.16569 1.54379,0.22092 2.06883,0.71928 0.20448,0.19409 1.05263,0.67717 1.88477,1.07351 1.09099,0.51963 1.71825,1.0362 2.24896,1.85208 0.40479,0.62231 0.82527,1.17115 0.93441,1.21966 0.10914,0.0485 0.2012,0.2271 0.20458,0.39687 0.009,0.43844 1.86918,2.44098 2.18156,2.34817 0.14288,-0.0425 0.47571,0.11823 0.73963,0.35707 0.42216,0.38205 0.54523,0.38848 1.02354,0.0535 0.59967,-0.42003 0.47189,-0.78631 -0.18621,-0.53377 -0.30378,0.11657 -0.37254,0.0443 -0.25335,-0.26633 0.11577,-0.30168 -0.006,-0.45052 -0.41708,-0.50908 -0.3637,-0.0518 -0.56696,-0.25573 -0.54394,-0.54565 0.0202,-0.25459 -0.0691,-0.4629 -0.19844,-0.4629 -0.39312,0 -0.26245,-1.78701 0.16169,-2.21116 0.21828,-0.21828 0.39688,-0.52444 0.39688,-0.68035 0,-0.15592 0.22354,-0.28349 0.49677,-0.28349 0.27322,0 0.63535,-0.16697 0.80472,-0.37105 0.44282,-0.53357 1.37403,-0.20373 2.80537,0.99369 1.49482,1.25053 1.83778,2.03698 1.42877,3.27629 -0.20348,0.61654 -0.38805,0.82532 -0.56935,0.64403 -0.14754,-0.14755 -0.4216,-0.20943 -0.60902,-0.13751 -0.18741,0.0719 -0.72237,-0.0666 -1.18878,-0.30778 -0.6097,-0.31528 -0.92872,-0.35784 -1.13513,-0.15143 -0.57392,0.57391 0.31056,0.94928 2.18656,0.92797 1.32033,-0.015 1.93227,-0.14067 2.25462,-0.46302 0.88204,-0.88204 1.28969,-0.27453 0.53693,0.80018 -0.38114,0.54415 -2.29429,1.19994 -3.43959,1.17902 -4.49572,-0.0821 -4.7701,-0.11528 -5.35504,-0.64706 -0.56651,-0.51503 -0.61508,-0.51829 -1.1058,-0.0742 -0.60166,0.5445 -1.72469,0.46185 -3.32874,-0.24498 -0.58208,-0.2565 -1.32623,-0.4521 -1.65365,-0.43468 -0.36497,0.0194 -0.59531,-0.12072 -0.59531,-0.36222 0,-0.21665 -0.11906,-0.39391 -0.26458,-0.39391 -0.39052,0 -0.30929,0.32218 0.25042,0.99314 0.27357,0.32794 0.71609,0.57697 0.98338,0.55339 1.1535,-0.10176 1.4495,0.0363 1.36429,0.63628 -0.0968,0.68128 -0.73787,0.82427 -1.93663,0.43192 z m 4.63021,-2.06995 c 0,-0.3687 -0.4864,-0.60245 -0.822,-0.39503 -0.20414,0.12616 -0.1841,0.24987 0.0661,0.40844 0.4723,0.29926 0.75585,0.29423 0.75585,-0.0134 z m -2.91042,-0.2802 c 0,-0.14552 -0.11906,-0.26458 -0.26458,-0.26458 -0.14552,0 -0.26459,0.11906 -0.26459,0.26458 0,0.14552 0.11907,0.26458 0.26459,0.26458 0.14552,0 0.26458,-0.11906 0.26458,-0.26458 z m 2.31594,-0.85989 c -0.0602,-0.18191 -0.45705,-0.49879 -0.88195,-0.7042 -0.42489,-0.20541 -0.95113,-0.47502 -1.16941,-0.59914 -0.21828,-0.12411 -0.72429,-0.35465 -1.12448,-0.51231 -0.40018,-0.15765 -0.7276,-0.45359 -0.7276,-0.65763 0,-0.48375 -0.50403,-0.47979 -0.69022,0.005 -0.14376,0.37463 0.74304,1.47567 1.18853,1.47567 0.12855,0 0.29404,0.23064 0.36775,0.51253 0.10081,0.38548 0.41998,0.53799 1.28763,0.61523 0.63448,0.0565 1.31235,0.12351 1.50638,0.14893 0.19403,0.0254 0.30354,-0.1026 0.24337,-0.2845 z m 8.25898,-1.05834 c -0.005,-0.1819 -0.17505,-0.55066 -0.3787,-0.81947 -0.20366,-0.2688 -0.3062,-0.65575 -0.22787,-0.85989 0.0783,-0.20414 0.0106,-0.37116 -0.15046,-0.37116 -0.16109,0 -0.29289,0.23813 -0.29289,0.52917 0,0.58241 -0.0329,0.60145 -0.6383,0.36915 -0.22935,-0.088 -0.35345,-0.26283 -0.27579,-0.38849 0.0777,-0.12566 -0.25044,-0.0638 -0.72912,0.13747 -1.26764,0.533 -1.17248,1.29114 0.188,1.49797 1.83242,0.27857 2.51397,0.25279 2.50513,-0.0948 z m -14.0145,-2.21366 c 0,-0.33103 0.16446,-0.38965 0.7276,-0.25931 1.87437,0.43381 2.64914,0.4736 2.85134,0.14643 0.15291,-0.24741 0.0519,-0.2957 -0.38141,-0.18237 -0.38662,0.1011 -1.18749,-0.15763 -2.32795,-0.75208 -0.9562,-0.49841 -2.09173,-0.9062 -2.52338,-0.9062 -0.7238,0 -0.7707,0.0566 -0.60323,0.72761 0.0999,0.40018 0.36936,0.93596 0.59886,1.19062 0.53499,0.59366 1.65817,0.61757 1.65817,0.0353 z m -9.525,5.71939 c 0,-0.14552 0.11906,-0.26458 0.26458,-0.26458 0.14552,0 0.26458,0.11906 0.26458,0.26458 0,0.14552 -0.11906,0.26458 -0.26458,0.26458 -0.14552,0 -0.26458,-0.11906 -0.26458,-0.26458 z m 0.81234,-0.0661 c -0.0102,-0.25467 -0.13766,-0.46303 -0.28318,-0.46303 -0.14552,0 -0.26458,-0.1318 -0.26458,-0.29289 0,-0.16109 0.1709,-0.22731 0.37978,-0.14715 0.20888,0.0802 0.4376,0.004 0.50828,-0.17013 0.0785,-0.193 0.12939,-0.16149 0.13079,0.081 10e-4,0.21828 -0.10004,0.635 -0.2251,0.92604 -0.19444,0.45249 -0.23009,0.46208 -0.24599,0.0661 z"
       id="path14" />
  </g>
</svg>
