<?xml version="1.0" encoding="UTF-8" standalone="no"?>
<!-- Created with Inkscape (http://www.inkscape.org/) -->

<svg
   width="35.604126mm"
   height="14.674774mm"
   viewBox="0 0 35.604127 14.674773"
   version="1.1"
   id="svg1"
   inkscape:version="1.4.1-rc (06eac75fbf, 2025-03-29)"
   sodipodi:docname="smallbush4.svg"
   xmlns:inkscape="http://www.inkscape.org/namespaces/inkscape"
   xmlns:sodipodi="http://sodipodi.sourceforge.net/DTD/sodipodi-0.dtd"
   xmlns="http://www.w3.org/2000/svg"
   xmlns:svg="http://www.w3.org/2000/svg">
  <sodipodi:namedview
     id="namedview1"
     pagecolor="#ffffff"
     bordercolor="#000000"
     borderopacity="0.25"
     inkscape:showpageshadow="2"
     inkscape:pageopacity="0.0"
     inkscape:pagecheckerboard="0"
     inkscape:deskcolor="#d1d1d1"
     inkscape:document-units="mm"
     inkscape:zoom="0.72248176"
     inkscape:cx="67.821781"
     inkscape:cy="28.374419"
     inkscape:window-width="1850"
     inkscape:window-height="1016"
     inkscape:window-x="0"
     inkscape:window-y="0"
     inkscape:window-maximized="1"
     inkscape:current-layer="layer1" />
  <defs
     id="defs1" />
  <g
     inkscape:label="Layer 1"
     inkscape:groupmode="layer"
     id="layer1"
     transform="translate(-87.31256,-111.65546)">
    <path
       style="fill:#000000"
       d="m 106.72655,126.14148 c -0.11974,-0.19138 -0.22579,-0.46703 -0.23567,-0.61255 -0.0371,-0.54608 -0.75414,-1.71979 -1.05071,-1.71979 -0.16956,0 -0.58792,-0.29766 -0.92969,-0.66146 -0.34178,-0.3638 -0.77506,-0.66146 -0.96286,-0.66146 -0.18779,0 -0.46888,-0.23812 -0.62464,-0.52917 -0.15576,-0.29104 -0.44022,-0.52916 -0.63213,-0.52916 -0.19192,0 -0.66398,-0.29197 -1.04903,-0.64883 -0.57871,-0.53633 -0.69863,-0.57073 -0.69168,-0.19843 0.0116,0.61991 0.56663,1.29513 1.16045,1.4117 0.55718,0.10938 1.15487,0.90418 0.8838,1.17526 -0.26502,0.26501 -2.58183,-0.48431 -2.58183,-0.83504 0,-0.16864 -0.30333,-0.26943 -0.68482,-0.22755 -1.12259,0.12323 -1.1026,0.22584 0.2676,1.37341 0.21719,0.1819 0.58348,0.33073 0.81399,0.33073 0.63672,0 1.49338,0.91587 1.30815,1.39856 -0.16247,0.4234 -0.88096,0.33656 -1.20572,-0.14572 -0.0892,-0.13253 -0.643,-0.26568 -1.23056,-0.29588 -0.58756,-0.0302 -1.2488,-0.20471 -1.46941,-0.38781 -0.22062,-0.18309 -0.73843,-0.36164 -1.1507,-0.39678 -0.7269,-0.0619 -0.82616,-0.26858 -0.58273,-1.21304 0.0544,-0.21092 -0.22518,-0.54025 -0.62986,-0.74205 -0.40839,-0.20364 -0.72761,-0.5818 -0.72761,-0.86194 0,-0.27451 -0.11195,-0.5683 -0.24878,-0.65287 -0.15419,-0.0953 -0.14832,-0.44192 0.0154,-0.91167 0.33278,-0.95458 1.59452,-1.29162 2.5331,-0.67664 0.34409,0.22546 0.73534,0.3421 0.86945,0.25923 0.13411,-0.0829 0.37613,0.0965 0.53781,0.39858 0.22016,0.41137 0.43941,0.50244 0.87317,0.3627 0.31856,-0.10263 0.72803,-0.18773 0.90993,-0.18911 0.1819,-0.001 0.33073,-0.10875 0.33073,-0.23861 0,-0.12985 0.11906,-0.16251 0.26458,-0.0726 0.58969,0.36445 0.2097,-0.34533 -0.59531,-1.11198 -0.5539,-0.5275 -1.26005,-0.88379 -1.98438,-1.0012 -1.1325,-0.18358 -1.26038,-0.36012 -1.1319,-1.56266 0.0538,-0.5039 -1.17782,-1.72084 -1.75961,-1.73859 -0.17151,-0.005 -0.51027,-0.20795 -0.75281,-0.45049 -0.24253,-0.24253 -0.78682,-0.44097 -1.20952,-0.44097 -0.4227,0 -0.76855,-0.0866 -0.76855,-0.19235 0,-0.1058 -0.47625,-0.0715 -1.05834,0.0763 -0.93482,0.23728 -1.05833,0.35971 -1.05833,1.0491 0,0.42925 0.17859,0.95906 0.39688,1.17734 0.21828,0.21828 0.39687,0.68897 0.39687,1.04598 0,0.45069 0.20427,0.72677 0.66824,0.90317 0.81459,0.30971 1.09094,0.92696 0.65188,1.456 -0.48108,0.57966 -0.63292,0.50131 -1.28833,-0.66483 -0.32715,-0.58208 -0.68059,-1.05833 -0.78542,-1.05833 -0.44511,0 -1.09845,-1.62839 -1.09845,-2.7378 0,-0.87216 0.13513,-1.29559 0.4936,-1.54668 0.27148,-0.19015 0.50068,-0.46181 0.50932,-0.6037 0.009,-0.14188 0.16269,-0.30695 0.34231,-0.36683 0.20636,-0.0688 0.26703,0.0464 0.1648,0.31275 -0.12937,0.33713 -0.045,0.38268 0.42086,0.22731 1.56159,-0.52077 3.82783,0.0343 5.13565,1.25791 0.32134,0.30064 0.6944,0.54662 0.82904,0.54662 0.13463,0 0.33195,0.2679 0.43849,0.59532 0.10653,0.32742 0.22,0.65484 0.25215,0.7276 0.0321,0.0728 0.15155,0.3442 0.26536,0.6032 0.12933,0.29434 0.37957,0.41611 0.6674,0.32475 0.25326,-0.0804 0.61093,0.0351 0.79481,0.2567 0.18388,0.22157 0.48387,0.40285 0.66664,0.40285 0.41782,0 2.51332,2.68851 2.51332,3.22457 0,0.36334 0.74397,1.23319 1.05833,1.23741 0.46667,0.006 1.05833,0.41562 1.05833,0.73224 0,0.20632 0.30918,0.49267 0.68707,0.63634 0.37788,0.14367 0.74608,0.4869 0.81821,0.76274 0.0721,0.27583 0.37373,0.56495 0.67022,0.64249 0.33341,0.0872 0.48337,0.2861 0.39309,0.52138 -0.0803,0.20923 -0.0334,0.49299 0.10418,0.63058 0.15715,0.15716 0.0609,0.42147 -0.259,0.71094 -0.4071,0.36842 -0.55278,0.39103 -0.72686,0.11281 z m -9.09524,-4.31672 c 0,-0.22048 0.23519,-0.39687 0.52917,-0.39687 0.29104,0 0.52916,-0.11706 0.52916,-0.26013 0,-0.33188 -2.52628,-1.62331 -2.7459,-1.40369 -0.32653,0.32653 -0.16207,1.39923 0.21453,1.39923 0.20848,0 0.45463,0.23813 0.547,0.52917 0.195,0.6144 0.92604,0.71883 0.92604,0.13229 z m 16.66875,3.38719 c 0,-0.23797 -0.0737,-0.35897 -0.16379,-0.26888 -0.23079,0.23078 -0.95983,-0.54966 -0.7821,-0.83724 0.0804,-0.13009 -0.0906,-0.29845 -0.38,-0.37413 -0.28941,-0.0757 -0.52619,-0.31868 -0.52619,-0.53998 0,-0.29508 0.21664,-0.37496 0.81239,-0.29957 0.55242,0.0699 0.77849,2.5e-4 0.70643,-0.2177 -0.11021,-0.33331 -3.58707,-1.38318 -3.81751,-1.15273 -0.21314,0.21313 0.548,2.07835 0.90384,2.2149 0.2361,0.0906 0.25214,0.26496 0.0578,0.62813 -0.30842,0.57629 -0.7796,0.67018 -0.7796,0.15535 0,-0.19106 -0.36384,-0.69596 -0.80854,-1.122 -0.60671,-0.58127 -0.79133,-0.97433 -0.7396,-1.57467 0.0379,-0.44002 -0.0288,-0.95824 -0.14836,-1.15161 -0.1195,-0.19336 -0.21078,-0.82267 -0.20283,-1.39847 0.008,-0.57579 -0.15677,-1.53216 -0.36603,-2.12527 -0.52782,-1.49602 -0.48366,-1.77946 0.32518,-2.08698 0.52507,-0.19963 0.76844,-0.18103 0.951,0.0727 0.17704,0.24605 0.20417,0.21282 0.0974,-0.11934 -0.10484,-0.32628 0.0227,-0.49496 0.43806,-0.57926 1.42632,-0.2895 2.06258,-0.33047 2.18005,-0.1404 0.0694,0.11235 0.36969,0.1406 0.66724,0.0628 0.34427,-0.09 0.67787,0.0393 0.91737,0.35557 0.21745,0.28718 0.37991,0.3574 0.38477,0.16631 0.0108,-0.42415 0.47121,-0.42415 0.94418,0 0.88742,0.79583 1.13384,0.95106 1.27913,0.80576 0.17299,-0.17298 2.81219,2.50548 2.81219,2.85403 0,0.12221 0.21358,0.4352 0.47462,0.69552 0.26104,0.26033 0.50813,0.86023 0.5491,1.33312 0.0858,0.99058 1.36134,2.69858 2.51937,3.37354 0.38902,0.22674 0.40309,0.33358 0.0984,0.74702 -0.3376,0.45812 -0.39165,0.4463 -1.07247,-0.23452 -0.52629,-0.52628 -0.71696,-0.60596 -0.71696,-0.29961 0,0.22954 0.11907,0.49092 0.26459,0.58086 0.52038,0.32161 0.25165,0.65356 -0.46302,0.57194 -1.00229,-0.11446 -2.18282,-0.63488 -2.18282,-0.96227 0,-0.14912 -0.12708,-0.27113 -0.28241,-0.27113 -0.15787,0 -0.21146,0.22354 -0.12153,0.5069 0.24281,0.76501 -0.32816,0.93254 -1.33333,0.39122 -0.81442,-0.43859 -0.9299,-0.44481 -1.23425,-0.0665 -0.51542,0.64067 -1.26181,0.82204 -1.26181,0.30661 z m 4.42687,-2.55065 c -0.83715,-0.68532 -2.46022,-0.85525 -2.68071,-0.28067 -0.10848,0.28269 0.13369,0.37017 1.02466,0.37017 0.64168,0 1.24029,0.11907 1.33022,0.26459 0.0899,0.14552 0.36486,0.2603 0.61093,0.25507 0.34015,-0.007 0.2718,-0.15327 -0.2851,-0.60916 z m -4.90929,-2.20671 c 0.0801,-0.41578 0.11389,-0.41578 0.52967,0 0.56936,0.56937 1.31595,0.59239 1.10166,0.034 -0.0866,-0.22559 -0.49955,-0.4786 -0.91774,-0.56224 -0.41818,-0.0836 -0.76034,-0.26232 -0.76034,-0.39708 0,-0.3716 -1.72038,-1.01175 -2.71905,-1.01175 -0.48619,0 -1.11351,0.16784 -1.39405,0.37298 -0.50054,0.36599 -0.50072,0.38331 -0.01,0.92603 0.29098,0.32154 0.84332,0.56085 1.3194,0.57166 0.45039,0.0102 1.05701,0.12092 1.34806,0.24599 0.84925,0.36493 1.40999,0.2979 1.50195,-0.17955 z m 3.28594,-0.0408 c -0.20432,-0.20431 -0.50392,-0.28964 -0.66578,-0.1896 -0.41914,0.25904 -0.15609,0.56109 0.48867,0.56109 0.47097,0 0.49603,-0.0526 0.17711,-0.37149 z m 1.68963,-0.77189 c -0.004,-0.18524 -1.96463,-1.91822 -2.1697,-1.91822 -0.0514,0 -0.0934,0.23425 -0.0934,0.52055 0,0.32004 0.28391,0.63815 0.73705,0.82585 0.40538,0.16791 0.73706,0.40991 0.73706,0.53777 0,0.12787 0.17859,0.23249 0.39687,0.23249 0.21828,0 0.39473,-0.0893 0.39211,-0.19844 z m -2.64107,-1.05393 c 0,-0.30437 -0.8759,-1.12887 -1.19923,-1.12887 -0.17791,0 -0.4706,-0.17728 -0.65043,-0.39396 -0.17983,-0.21668 -0.43253,-0.32872 -0.56156,-0.24897 -0.12904,0.0797 -0.23461,0.005 -0.23461,-0.16607 0,-0.18079 -0.2216,-0.2531 -0.52917,-0.17267 -0.29104,0.0761 -0.52916,0.0305 -0.52916,-0.10144 0,-0.13189 -0.35016,-0.23981 -0.77814,-0.23981 -0.42797,0 -0.84481,-0.10788 -0.9263,-0.23974 -0.17648,-0.28555 -1.20598,-0.0616 -1.20598,0.2623 0,0.12398 -0.14883,0.18914 -0.33073,0.14479 -0.1819,-0.0443 -0.24143,-0.0307 -0.13229,0.0304 0.10914,0.061 0.19844,0.35306 0.19844,0.64895 0,0.43872 0.10983,0.50235 0.59531,0.34491 0.97947,-0.31766 1.63586,-0.22636 3.00164,0.41751 1.85588,0.87491 3.28221,1.24112 3.28221,0.84271 z m -22.25633,5.96907 c -0.0172,-0.19309 -0.0143,-0.44922 0.007,-0.56918 0.0208,-0.11996 -0.0768,-0.14722 -0.21699,-0.0606 -0.14018,0.0866 -0.35149,-0.005 -0.46958,-0.20327 -0.11808,-0.19843 -0.54212,-0.57182 -0.9423,-0.82974 -0.40018,-0.25793 -0.72761,-0.57806 -0.72761,-0.71142 0,-0.52708 0.87154,-0.53244 1.57857,-0.01 0.41064,0.30359 1.05239,0.59294 1.4261,0.64299 1.05609,0.14143 1.09348,0.37509 0.20256,1.26601 -0.48682,0.48682 -0.83884,0.68182 -0.85731,0.47489 z m 17.63743,-1.25884 c -0.18073,-0.29242 0.23664,-0.60818 0.48096,-0.36386 0.25156,0.25156 0.20468,0.61016 -0.0798,0.61016 -0.13694,0 -0.31747,-0.11083 -0.40119,-0.2463 z m -21.15331,-1.77885 c -0.423,-0.22906 -1.16348,-0.45312 -1.6455,-0.49792 -1.07459,-0.0999 -1.42187,-0.29904 -1.42187,-0.81545 0,-0.22874 0.12726,-0.31822 0.30039,-0.21122 0.16521,0.10211 0.89504,0.20452 1.62183,0.22758 1.03038,0.0327 1.43044,0.17653 1.81628,0.65303 0.88351,1.09109 0.62053,1.34343 -0.67113,0.64398 z"
       id="path12" />
  </g>
</svg>
