<?xml version="1.0" encoding="UTF-8" standalone="no"?>
<!-- Created with Inkscape (http://www.inkscape.org/) -->

<svg
   width="27.363472mm"
   height="14.828918mm"
   viewBox="0 0 27.363473 14.828915"
   version="1.1"
   id="svg1"
   inkscape:version="1.4.1-rc (06eac75fbf, 2025-03-29)"
   sodipodi:docname="smallbush8.svg"
   xmlns:inkscape="http://www.inkscape.org/namespaces/inkscape"
   xmlns:sodipodi="http://sodipodi.sourceforge.net/DTD/sodipodi-0.dtd"
   xmlns="http://www.w3.org/2000/svg"
   xmlns:svg="http://www.w3.org/2000/svg">
  <sodipodi:namedview
     id="namedview1"
     pagecolor="#ffffff"
     bordercolor="#000000"
     borderopacity="0.25"
     inkscape:showpageshadow="2"
     inkscape:pageopacity="0.0"
     inkscape:pagecheckerboard="0"
     inkscape:deskcolor="#d1d1d1"
     inkscape:document-units="mm"
     inkscape:zoom="0.72248176"
     inkscape:cx="51.212365"
     inkscape:cy="28.374419"
     inkscape:window-width="1850"
     inkscape:window-height="1016"
     inkscape:window-x="0"
     inkscape:window-y="0"
     inkscape:window-maximized="1"
     inkscape:current-layer="layer1" />
  <defs
     id="defs1" />
  <g
     inkscape:label="Layer 1"
     inkscape:groupmode="layer"
     id="layer1"
     transform="translate(-91.810454,-111.39086)">
    <path
       style="fill:#000000"
       d="m 107.69549,125.89786 c -0.43656,-0.22973 -1.15094,-0.43894 -1.5875,-0.46491 -0.44226,-0.0263 -0.76723,-0.18379 -0.73385,-0.3556 0.0337,-0.17366 -0.94864,-0.63436 -2.24896,-1.05471 -2.53857,-0.82061 -4.09247,-0.87295 -3.97012,-0.13372 0.0516,0.31193 -0.0851,0.4236 -0.4554,0.3721 -0.48992,-0.0681 -1.14001,-0.21604 -1.45521,-0.33107 -0.0728,-0.0266 -0.42995,-0.0299 -0.79374,-0.007 -0.97892,0.0606 -4.02851,-1.16344 -4.43899,-1.78166 -0.3431,-0.51673 -0.31986,-0.52789 0.64579,-0.3101 0.6838,0.15422 1.0604,0.13095 1.18666,-0.0733 0.1325,-0.21441 0.28445,-0.21871 0.53584,-0.0152 0.49792,0.40313 2.92833,0.70332 5.20012,0.64229 1.54974,-0.0416 2.11351,0.0559 2.80936,0.48595 0.4788,0.29591 1.10057,0.53802 1.38171,0.53802 0.28114,0 0.62427,0.10568 0.76252,0.23485 0.42651,0.3985 1.44198,0.61832 1.44198,0.31215 0,-0.15533 -0.17859,-0.28242 -0.39688,-0.28242 -0.55577,0 -0.494,-0.41806 0.15049,-1.01849 0.51544,-0.48021 1.05,-0.50702 2.09847,-0.10531 0.21828,0.0836 0.45641,0.16742 0.52917,0.1862 1.8378,0.4742 3.29351,1.32556 3.02085,1.76672 -0.20321,0.32881 -1.37123,0.28329 -1.48495,-0.0579 -0.12468,-0.37405 -2.38473,-0.45959 -2.50894,-0.095 -0.0523,0.15367 0.3279,0.44541 0.845,0.6483 0.56864,0.22312 0.91041,0.52227 0.86484,0.757 -0.11094,0.57146 -0.50718,0.61201 -1.39826,0.14311 z m -0.39687,-2.38529 c 0,-0.0572 -0.1786,-0.10399 -0.39688,-0.10399 -0.21828,0 -0.39687,0.11533 -0.39687,0.25628 0,0.14095 0.17859,0.18774 0.39687,0.10399 0.21828,-0.0838 0.39688,-0.19909 0.39688,-0.25628 z m 3.57187,-0.56477 c -2.01799,-1.05761 -2.19432,-1.12673 -2.87443,-1.12673 -0.83539,0 -1.47416,-0.71536 -0.85196,-0.95411 0.23883,-0.0916 0.78802,-0.1811 1.22042,-0.19877 0.91066,-0.0372 0.95645,-0.11949 0.32391,-0.582 -0.35423,-0.25902 -0.5498,-0.26584 -0.83678,-0.0292 -0.28416,0.23435 -0.39949,0.23466 -0.47809,0.001 -0.057,-0.16915 -0.3948,-0.62177 -0.75072,-1.00582 -0.68217,-0.73607 -0.80693,-1.5392 -0.40383,-2.59944 0.22529,-0.59256 0.33481,-0.62608 1.47827,-0.45255 1.75553,0.26642 1.89956,-0.31142 0.40764,-1.63539 -0.62642,-0.55589 -1.28765,-1.01072 -1.46939,-1.01072 -0.18175,0 -0.47178,-0.17029 -0.64452,-0.37842 -0.48686,-0.58663 0.56729,-1.0723 1.34532,-0.61981 0.72078,0.41919 2.60812,2.24836 2.60812,2.52773 0,0.11362 0.34024,0.335 0.75609,0.49197 0.87416,0.32995 2.25248,2.83829 2.10925,3.8385 -0.0745,0.52021 -0.68355,1.0211 -1.65541,1.36142 -0.13491,0.0472 -0.15408,0.23347 -0.0426,0.41385 0.15465,0.25022 0.29039,0.25518 0.57265,0.0209 0.20347,-0.16887 0.55006,-0.23792 0.77019,-0.15344 0.22014,0.0845 0.40025,0.0463 0.40025,-0.0849 0,-0.36729 1.04422,-0.61367 1.40176,-0.33073 0.36564,0.28935 2.18496,0.21315 3.82376,-0.16015 1.21664,-0.27714 1.39944,-0.11408 0.64128,0.57205 -0.78183,0.70754 -2.77075,0.96655 -3.75641,0.48918 -0.57997,-0.28088 -0.88798,-0.31619 -1.01174,-0.11595 -0.0979,0.15833 -0.50414,0.36975 -0.90287,0.46983 -0.74491,0.18696 -0.92691,0.4977 -0.46037,0.78604 0.38061,0.23523 0.32664,1.19363 -0.0661,1.17461 -0.1819,-0.009 -0.92605,-0.32802 -1.65365,-0.70935 z m -0.32227,-3.51584 c -0.19499,-0.74565 -1.8281,-2.03427 -2.74946,-2.16949 -0.68225,-0.10015 -0.76473,-0.0351 -0.76473,0.60261 0,0.565 0.12483,0.71485 0.59548,0.71485 0.32751,0 1.13118,0.30752 1.78594,0.68336 0.65475,0.37586 1.20908,0.68838 1.23183,0.69453 0.0228,0.006 -0.0218,-0.2305 -0.0991,-0.52587 z m 0.16376,-2.53358 c -0.32736,-0.34846 -0.84233,-0.62656 -1.14438,-0.61799 -0.53065,0.015 -0.5322,0.0262 -0.0458,0.33072 0.27686,0.17334 0.68505,0.51743 0.90709,0.76464 0.22204,0.2472 0.51048,0.38347 0.64099,0.30281 0.1305,-0.0806 -0.0306,-0.43174 -0.3579,-0.78018 z m -14.04045,4.73535 c -0.82849,-0.12695 -1.13822,-0.70954 -0.64137,-1.20639 0.19291,-0.1929 0.434,-0.61307 0.53576,-0.9337 0.12391,-0.39044 0.39759,-0.58298 0.82865,-0.58298 0.55351,0 0.64363,-0.12392 0.64363,-0.88503 0,-1.48287 1.50613,-2.24777 2.92781,-1.48691 0.35278,0.1888 0.51177,0.1888 0.51177,0 0,-0.15064 -0.18562,-0.27389 -0.41249,-0.27389 -0.22687,0 -0.33533,-0.12484 -0.24103,-0.27743 0.11722,-0.18965 0.28958,-0.1794 0.54479,0.0324 0.64805,0.53783 0.43691,1.03878 -0.43783,1.03878 -1.6748,0 -2.48066,1.09042 -1.17323,1.5875 0.3638,0.13832 0.66146,0.42924 0.66146,0.64649 0,0.30824 -0.25554,0.36914 -1.16334,0.27729 -1.39745,-0.14141 -1.95835,0.30375 -1.48862,1.18144 0.28499,0.53251 0.16809,1.11167 -0.20793,1.03014 -0.10055,-0.0218 -0.50016,-0.0883 -0.88803,-0.14771 z m 2.98724,-6.85915 c -1.10818,-1.24985 0.68426,-3.56356 2.61276,-3.37259 0.21828,0.0216 0.64625,0.053 0.95104,0.0698 0.6304,0.0347 1.95938,1.08243 1.95938,1.54468 0,0.53264 -0.54521,0.66986 -1.00886,0.25394 -0.62838,-0.5637 -2.16773,-0.79666 -3.04934,-0.46146 -0.65693,0.24976 -0.73511,0.39803 -0.6587,1.24932 0.095,1.05855 -0.23941,1.35564 -0.80628,0.71629 z"
       id="path23" />
  </g>
</svg>
