<?xml version="1.0" encoding="UTF-8" standalone="no"?>
<!-- Created with Inkscape (http://www.inkscape.org/) -->

<svg
   width="24.048277mm"
   height="10.301682mm"
   viewBox="0 0 24.048278 10.30168"
   version="1.1"
   id="svg1"
   inkscape:version="1.4.1-rc (06eac75fbf, 2025-03-29)"
   sodipodi:docname="smallbush7.svg"
   xmlns:inkscape="http://www.inkscape.org/namespaces/inkscape"
   xmlns:sodipodi="http://sodipodi.sourceforge.net/DTD/sodipodi-0.dtd"
   xmlns="http://www.w3.org/2000/svg"
   xmlns:svg="http://www.w3.org/2000/svg">
  <sodipodi:namedview
     id="namedview1"
     pagecolor="#ffffff"
     bordercolor="#000000"
     borderopacity="0.25"
     inkscape:showpageshadow="2"
     inkscape:pageopacity="0.0"
     inkscape:pagecheckerboard="0"
     inkscape:deskcolor="#d1d1d1"
     inkscape:document-units="mm"
     inkscape:zoom="0.72248176"
     inkscape:cx="45.675893"
     inkscape:cy="18.685593"
     inkscape:window-width="1850"
     inkscape:window-height="1016"
     inkscape:window-x="0"
     inkscape:window-y="0"
     inkscape:window-maximized="1"
     inkscape:current-layer="layer1" />
  <defs
     id="defs1" />
  <g
     inkscape:label="Layer 1"
     inkscape:groupmode="layer"
     id="layer1"
     transform="translate(-93.397957,-113.77211)">
    <path
       style="fill:#000000"
       d="m 99.33352,123.80014 c -0.26351,-0.19268 -0.79369,-0.35032 -1.17819,-0.35032 -0.38449,0 -0.77638,-0.0773 -0.87085,-0.17177 -0.0945,-0.0945 -0.90293,-0.20443 -1.79656,-0.24434 -1.57372,-0.0703 -2.40078,-0.41928 -1.9818,-0.83625 0.1121,-0.11157 1.09326,-0.18847 2.18036,-0.17089 1.52789,0.0247 1.94642,-0.0465 1.84384,-0.31385 -0.073,-0.19019 0.0988,-0.64006 0.38169,-0.99973 0.67571,-0.85903 0.66786,-0.87965 -0.41166,-1.08217 -0.50933,-0.0956 -0.92604,-0.29238 -0.92604,-0.43739 0,-0.14501 -0.22499,-0.50515 -0.49998,-0.80032 -0.63556,-0.68218 -1.19543,-2.65315 -0.96231,-3.38765 0.14196,-0.44728 0.35036,-0.54372 1.01881,-0.47151 1.05566,0.11404 4.02294,1.48379 6.23596,2.87862 l 1.69144,1.0661 -0.17118,-1.29045 c -0.20843,-1.57121 0.27625,-2.46474 1.29451,-2.38647 0.74786,0.0575 3.72618,2.35368 3.94431,3.04095 0.1307,0.4118 2.01132,1.23433 1.99211,0.87129 -0.0195,-0.3689 -0.7211,-1.06105 -0.8971,-0.88505 -0.332,0.332 -1.93598,-1.73396 -2.12389,-2.73562 -0.0988,-0.5269 -0.10918,-1.02853 -0.023,-1.11474 0.31771,-0.31771 1.78675,-0.25717 2.47519,0.102 0.39021,0.20358 0.85896,0.37088 1.04168,0.37177 0.18271,9e-4 1.06454,0.71601 1.95961,1.58913 0.89508,0.87313 1.78738,1.5875 1.9829,1.5875 0.19552,0 0.35549,0.18087 0.35549,0.40192 0,0.29659 0.17334,0.35841 0.66146,0.2359 0.71481,-0.17941 0.70105,-0.21324 0.76258,1.87573 0.0299,1.01366 -0.006,1.0619 -0.85145,1.14293 -0.51125,0.049 -1.3873,-0.15262 -2.08209,-0.47921 -1.52371,-0.71623 -2.27242,-0.53307 -1.44055,0.35242 0.31284,0.333 0.5688,0.74662 0.5688,0.91914 0,0.31654 0.76457,0.401 2.8678,0.31678 0.98387,-0.0394 1.13418,0.0233 1.05129,0.43848 -0.0895,0.44821 -0.39311,0.47823 -4.05842,0.40122 -2.33821,-0.0491 -4.07014,-0.19821 -4.2263,-0.3638 -0.17788,-0.18863 -0.1562,-0.32031 0.0662,-0.40184 0.57121,-0.20944 0.36274,-0.59126 -0.52916,-0.96914 -0.79197,-0.33555 -0.89829,-0.31993 -1.34588,0.19768 -0.26729,0.3091 -0.40909,0.41317 -0.31511,0.23127 0.094,-0.1819 0.0547,-0.33073 -0.0873,-0.33073 -0.14199,0 -0.29862,0.1214 -0.34808,0.26977 -0.12084,0.36255 -3.31347,0.39082 -3.74442,0.0332 -0.18771,-0.15578 -1.16372,-0.31744 -2.16891,-0.35923 -1.56446,-0.065 -1.84126,-0.009 -1.92238,0.38703 -0.0549,0.26804 0.0634,0.46302 0.28086,0.46302 0.45752,0 1.97952,0.73926 2.17578,1.05681 0.36368,0.58844 -1.15558,0.87429 -1.87006,0.35185 z m 12.32204,-2.71596 c 0,-0.13693 -0.11907,-0.32255 -0.26459,-0.41249 -0.14552,-0.0899 -0.26458,0.0221 -0.26458,0.24897 0,0.22687 0.11906,0.41249 0.26458,0.41249 0.14552,0 0.26459,-0.11203 0.26459,-0.24897 z m -4.31797,-0.56597 c 0.20268,-0.20269 0.57916,-0.20477 1.29481,-0.007 1.36024,0.37558 1.50069,0.13443 0.21951,-0.3769 -0.56805,-0.22671 -1.33047,-0.55008 -1.69427,-0.7186 -0.3638,-0.16852 -0.72667,-0.33392 -0.80638,-0.36756 -0.0797,-0.0336 -0.29532,0.0318 -0.47914,0.14539 -0.25186,0.15566 -0.18355,0.37837 0.27722,0.90381 0.69017,0.78705 0.78768,0.82159 1.18825,0.42103 z m -3.61953,-0.24994 c 0,-0.33779 -1.14272,-0.7872 -2.0016,-0.7872 -0.81053,0 -0.85477,0.51491 -0.0489,0.56946 1.10609,0.0749 1.21901,0.0983 1.41448,0.29381 0.28189,0.28188 0.63604,0.23953 0.63604,-0.0761 z m 11.52566,-1.23705 c -0.1229,-0.32025 -0.24311,-0.3552 -0.46354,-0.13478 -0.22043,0.22043 -0.20353,0.41098 0.0652,0.73472 0.41038,0.49447 0.66894,0.1051 0.39839,-0.59994 z m -15.60642,0.11291 c -0.0127,-0.36816 0.20229,-0.68586 0.57503,-0.84973 0.32742,-0.14395 0.59531,-0.34015 0.59531,-0.43599 0,-0.23988 -2.34012,-1.71751 -3.28677,-2.07538 -1.15881,-0.43807 -1.53615,-0.20152 -1.13275,0.7101 1.05859,2.39227 3.30343,4.22383 3.24918,2.651 z m 13.84257,-0.82023 c 0.23668,-0.28518 0.15328,-0.4606 -0.38743,-0.81489 -0.84161,-0.55144 -1.00414,-0.43267 -0.65708,0.48015 0.29623,0.77916 0.59596,0.87521 1.04451,0.33474 z m -7.80702,-2.05052 c -0.57488,-0.63523 -0.89646,-0.63141 -0.89646,0.0106 0,0.54362 0.44771,0.81656 1.00361,0.61184 0.26178,-0.0964 0.2366,-0.24264 -0.10715,-0.62248 z m 5.45354,0.0327 c 0,-0.29104 0.12609,-0.52917 0.2802,-0.52917 0.5595,0 -0.0417,-0.49285 -0.80595,-0.66071 -1.22858,-0.26984 -1.45975,0.0844 -0.61633,0.94444 0.88515,0.90262 1.14208,0.95783 1.14208,0.24544 z"
       id="path9" />
  </g>
</svg>
