<?xml version="1.0" encoding="UTF-8" standalone="no"?>
<!-- Created with Inkscape (http://www.inkscape.org/) -->

<svg
   width="64.713097mm"
   height="20.369787mm"
   viewBox="0 0 64.713099 20.369786"
   version="1.1"
   id="svg1"
   inkscape:version="1.4.1-rc (06eac75fbf, 2025-03-29)"
   sodipodi:docname="smallbush3.svg"
   xmlns:inkscape="http://www.inkscape.org/namespaces/inkscape"
   xmlns:sodipodi="http://sodipodi.sourceforge.net/DTD/sodipodi-0.dtd"
   xmlns="http://www.w3.org/2000/svg"
   xmlns:svg="http://www.w3.org/2000/svg">
  <sodipodi:namedview
     id="namedview1"
     pagecolor="#ffffff"
     bordercolor="#000000"
     borderopacity="0.25"
     inkscape:showpageshadow="2"
     inkscape:pageopacity="0.0"
     inkscape:pagecheckerboard="0"
     inkscape:deskcolor="#d1d1d1"
     inkscape:document-units="mm"
     inkscape:zoom="0.72248176"
     inkscape:cx="123.1865"
     inkscape:cy="38.063245"
     inkscape:window-width="1850"
     inkscape:window-height="1016"
     inkscape:window-x="0"
     inkscape:window-y="0"
     inkscape:window-maximized="1"
     inkscape:current-layer="layer1" />
  <defs
     id="defs1" />
  <g
     inkscape:label="Layer 1"
     inkscape:groupmode="layer"
     id="layer1"
     transform="translate(-72.495905,-109.00961)">
    <path
       style="fill:#000000"
       d="m 105.43142,129.24304 c -0.0767,-0.0767 -1.3765,-0.19617 -2.88837,-0.26541 -3.21388,-0.14719 -6.0013,-0.45168 -9.49572,-1.03728 -4.63821,-0.77728 -9.56733,-1.01233 -13.09687,-0.62454 -2.99548,0.32911 -6.37035,0.40005 -7.05111,0.14822 -0.93864,-0.34722 -0.1489,-0.83869 1.43493,-0.89298 1.35326,-0.0464 4.10866,-0.29188 5.01321,-0.44665 1.16466,-0.19927 0.65304,-0.446 -0.92482,-0.446 -1.68156,0 -2.37553,-0.30356 -1.86383,-0.81526 0.34937,-0.34937 1.24381,-0.31946 3.92078,0.13111 1.30969,0.22044 2.61343,0.40502 2.89719,0.41018 0.70859,0.0129 0.18939,-0.47603 -0.63991,-0.60259 -0.35301,-0.0539 -0.68444,-0.22577 -0.73652,-0.382 -0.16272,-0.48817 0.96889,-0.65204 2.29908,-0.33293 0.70157,0.1683 1.4388,0.33069 1.63829,0.36087 0.19949,0.0302 0.48177,0.11973 0.62729,0.19901 0.14552,0.0793 0.80036,0.30508 1.45521,0.50179 0.65484,0.1967 1.36922,0.56167 1.5875,0.81104 0.22498,0.25704 0.96983,0.52225 1.71979,0.61237 l 1.32292,0.15896 -0.8599,-0.44199 c -1.61523,-0.83023 -0.81972,-1.36165 1.31984,-0.88169 0.76568,0.17176 1.57073,0.38205 1.78901,0.4673 0.49945,0.19506 1.85493,0.24535 1.84367,0.0684 -0.005,-0.0728 -0.17812,-0.35643 -0.38553,-0.63038 -0.32696,-0.43182 -0.32543,-0.59805 0.0115,-1.24954 0.44946,-0.86917 0.76536,-0.8535 4.02867,0.1998 2.26836,0.73216 2.33799,0.74053 1.91461,0.2304 -1.04989,-1.26505 -6.08997,-3.58575 -6.08997,-2.80413 0,0.16992 -0.21793,0.18362 -0.59531,0.0374 -0.32742,-0.12685 -0.56342,-0.36751 -0.52444,-0.53482 0.039,-0.1673 -0.0987,-0.47373 -0.30591,-0.68096 -0.4548,-0.4548 -2.95886,-1.47215 -3.15088,-1.28014 -0.075,0.075 -0.56134,0.019 -1.08079,-0.12443 -1.05706,-0.29187 -2.01559,-0.13782 -2.01559,0.32393 0,0.16753 0.29219,0.73458 0.6493,1.26012 0.35711,0.52554 0.57539,1.02943 0.48507,1.11976 -0.40891,0.4089 -0.93983,0.0721 -1.64883,-1.04582 -0.64756,-1.02111 -0.72675,-1.32662 -0.50712,-1.95663 0.29283,-0.84004 0.80398,-1.00808 2.75836,-0.90683 2.68068,0.13889 3.26878,0.33458 5.14239,1.71118 0.94715,0.6959 1.61274,0.98125 3.70417,1.58807 1.26716,0.36767 3.34097,1.65532 3.92328,2.43601 0.26204,0.3513 0.56557,0.43095 1.19338,0.31317 0.46308,-0.0869 1.16815,-0.0339 1.56682,0.11764 0.5821,0.22131 0.72485,0.20055 0.72485,-0.10543 0,-0.20956 0.24146,-0.51025 0.53658,-0.66819 0.32769,-0.17537 0.45727,-0.41075 0.33287,-0.60462 -0.80243,-1.2505 -0.97135,-3.73349 -0.2844,-4.18047 0.13427,-0.0874 -0.0214,-0.62315 -0.34597,-1.19063 -1.16506,-2.03706 -1.38615,-2.60213 -1.50596,-3.84895 -0.11124,-1.15768 -0.0636,-1.29178 0.56032,-1.57604 0.98925,-0.45073 3.8545,0.13054 4.47099,0.90703 0.42112,0.5304 0.4576,0.5365 0.46302,0.0773 0.003,-0.27416 -0.13041,-0.95337 -0.29699,-1.50936 -0.25402,-0.84787 -0.2317,-1.1195 0.1384,-1.68435 0.38179,-0.58269 0.63209,-0.67345 1.85729,-0.67345 1.88766,0 2.82175,0.20742 3.60739,0.80102 0.9079,0.68599 0.43098,1.14223 -0.81296,0.7777 -0.50345,-0.14754 -1.54045,-0.33882 -2.30443,-0.42507 -1.23582,-0.13951 -1.3889,-0.10234 -1.38759,0.33696 0.003,0.92289 0.52211,2.37237 1.05496,2.94431 0.29208,0.31352 0.53107,0.69782 0.53107,0.85399 0,0.15617 0.17859,0.35248 0.39687,0.43625 0.21828,0.0838 0.39688,0.3631 0.39688,0.62075 0,0.53257 -0.61979,1.14819 -0.88698,0.88101 -0.0972,-0.0973 -0.33829,0.044 -0.53564,0.31387 -0.34732,0.475 -0.38155,0.47282 -1.06923,-0.0681 -0.39074,-0.30735 -0.70188,-0.6274 -0.69143,-0.71122 0.0383,-0.30708 -0.76338,-1.65123 -1.20182,-2.0151 -0.24818,-0.20598 -0.97539,-0.50759 -1.61602,-0.67025 -1.00738,-0.25578 -1.19655,-0.2364 -1.39983,0.14344 -0.1383,0.2584 -0.13541,0.59668 0.007,0.82181 0.13314,0.21044 0.24394,0.62074 0.24622,0.91178 0.002,0.29104 0.62919,1.19908 1.39312,2.01785 1.18144,1.26627 1.56936,1.51465 2.59642,1.66247 1.18065,0.16991 1.64317,0.47717 3.84776,2.5561 0.95604,0.90154 1.43549,0.99667 1.23915,0.24587 -0.0761,-0.29104 -0.23065,-0.52916 -0.34342,-0.52916 -0.11277,0 -0.2826,-0.30902 -0.37739,-0.68671 -0.13085,-0.52134 -0.0274,-0.81242 0.4296,-1.20878 0.40914,-0.35483 0.57741,-0.75609 0.52533,-1.25264 -0.0459,-0.43784 0.10102,-0.87801 0.36675,-1.09854 0.38926,-0.32307 0.51342,-0.28013 1.01734,0.35184 0.63,0.7901 1.00751,0.89325 1.42392,0.3891 0.19584,-0.23711 0.11139,-0.52709 -0.29833,-1.02438 -0.82437,-1.00055 -1.67409,-1.36613 -2.71948,-1.17002 -1.03137,0.19349 -1.47038,-0.35313 -0.86727,-1.07984 0.27798,-0.33494 0.64786,-0.38837 1.77314,-0.25611 1.74627,0.20524 1.77107,-0.22909 0.0515,-0.90142 -1.25187,-0.48947 -1.44507,-0.7194 -1.08397,-1.29009 0.19265,-0.30448 0.44089,-0.28632 1.51705,0.11098 1.72664,0.63745 2.14234,1.03764 2.34911,2.26149 0.17232,1.01994 0.18153,1.02708 0.62237,0.48267 0.61776,-0.7629 2.02298,-0.47512 3.22708,0.66089 l 0.91557,0.86378 2.90713,-0.0733 c 3.12253,-0.0787 5.94693,-0.25456 8.42219,-0.52438 1.40956,-0.15366 1.53797,-0.12524 1.45197,0.32132 -0.17814,0.92499 -1.33683,1.16787 -6.361,1.33337 -2.66165,0.0877 -5.10726,0.15562 -5.43469,0.15098 -0.60973,-0.009 -0.7853,0.42633 -0.35313,0.87487 0.1332,0.13825 0.28203,0.54901 0.33073,0.91281 0.0861,0.64316 0.14347,0.66034 2.07293,0.62084 1.0914,-0.0223 2.33218,-0.17597 2.75728,-0.3414 1.57259,-0.61199 2.3343,0.18906 0.89761,0.94398 -0.48222,0.25339 -1.35302,0.50125 -1.9351,0.55082 -0.58209,0.0496 -1.53459,0.13098 -2.11667,0.18092 -0.58208,0.0499 -1.26669,0.179 -1.52135,0.28676 -0.25466,0.10777 -0.64162,0.12742 -0.8599,0.0436 -0.57921,-0.22226 -0.48529,0.17776 0.13229,0.56345 0.29104,0.18176 0.52917,0.52294 0.52917,0.75818 0,0.33536 -0.17365,0.39297 -0.80432,0.26684 -0.66309,-0.13262 -0.79084,-0.0808 -0.7276,0.29526 0.0448,0.26668 -0.17053,0.56559 -0.5186,0.71969 -0.32742,0.14497 -0.59531,0.41394 -0.59531,0.59771 0,0.21567 -0.39089,0.33414 -1.10243,0.33414 -1.98489,0 -0.87496,0.27991 1.46391,0.36918 2.28676,0.0873 2.55619,0.008 1.97126,-0.57644 -0.47834,-0.47834 -0.0356,-0.70977 0.70885,-0.37056 0.7963,0.36282 0.84432,0.8605 0.14414,1.49414 -1.03756,0.93899 -5.23649,0.84808 -5.48935,-0.11885 -0.10646,-0.40712 -0.77964,-0.77963 -1.4346,-0.79386 -0.0915,-0.002 -0.31807,0.3627 -0.50351,0.81041 -0.27023,0.65237 -0.44736,0.78014 -0.892,0.6434 -0.30515,-0.0938 -0.94803,-0.21264 -1.42861,-0.26399 -0.48059,-0.0514 -1.01923,-0.21407 -1.19697,-0.36159 -0.26323,-0.21846 -1.83564,-0.43026 -4.0808,-0.54967 -0.1819,-0.01 -0.33073,-0.19913 -0.33073,-0.42101 0,-0.79636 -2.71097,-1.2917 -2.99654,-0.54752 -0.098,0.25531 0.28731,0.54994 1.22846,0.93941 0.75416,0.31209 1.78793,0.78948 2.29725,1.06086 0.56505,0.30108 1.20967,0.43856 1.65364,0.35266 0.40019,-0.0774 0.72761,-0.0263 0.72761,0.11366 0,0.42322 -1.00738,1.19736 -1.64988,1.26789 -0.33174,0.0364 -1.0722,0.26218 -1.64547,0.50171 -0.57327,0.23953 -1.18655,0.38015 -1.36286,0.31249 -0.17631,-0.0677 -0.95651,0.0463 -1.73378,0.25315 -0.77727,0.20689 -1.42314,0.37758 -1.43527,0.37931 -0.0121,0.002 -0.0848,-0.0596 -0.16157,-0.13639 z m -3.38826,-1.70012 c 0,-0.3014 -1.68926,-0.80264 -2.71197,-0.80472 -0.6845,-0.001 -0.97271,0.45898 -0.55122,0.88047 0.27598,0.27598 3.26319,0.20663 3.26319,-0.0758 z m 6.41615,-0.15611 c 1.06431,-0.19288 1.27751,-0.49256 0.52917,-0.74383 -0.45001,-0.1511 -1.38632,-0.69726 -1.65365,-0.96458 -0.16385,-0.16386 -0.65422,-0.28308 -1.85989,-0.4522 -0.80302,-0.11264 -0.93966,-0.0538 -0.97534,0.41981 -0.055,0.72999 1.71418,2.21311 2.43836,2.0441 0.29104,-0.0679 0.97565,-0.20441 1.52135,-0.3033 z m -8.3988,-1.97022 c -0.0701,-0.11349 -0.45641,-0.26848 -0.85838,-0.34441 -0.40196,-0.0759 -1.0285,-0.22742 -1.3923,-0.33663 -0.65391,-0.1963 -0.65586,-0.19222 -0.17093,0.35722 0.47433,0.53744 1.5427,0.84162 2.21993,0.63205 0.18107,-0.056 0.27182,-0.19473 0.20168,-0.30823 z m -15.47984,-0.003 c 0,-0.14552 -0.11907,-0.26458 -0.26459,-0.26458 -0.14552,0 -0.26458,0.11906 -0.26458,0.26458 0,0.14552 0.11906,0.26459 0.26458,0.26459 0.14552,0 0.26459,-0.11907 0.26459,-0.26459 z m 37.43854,-2.11664 c -0.0899,-0.14553 -0.34212,-0.26459 -0.5604,-0.26459 -0.21828,0 -0.32329,0.11906 -0.23335,0.26459 0.0899,0.14552 0.34211,0.26458 0.56039,0.26458 0.21828,0 0.32329,-0.11906 0.23336,-0.26458 z m -10.23271,-1.7198 c -1.28386,-0.74938 -2.63524,-1.4552 -2.78614,-1.4552 -0.0936,0 0.10892,0.29718 0.45016,0.66041 0.79861,0.85008 0.48125,1.16859 -0.55465,0.55667 -0.44216,-0.26119 -0.87866,-0.40015 -0.97001,-0.3088 -0.362,0.36199 1.20967,1.46118 2.58397,1.80717 l 1.45521,0.36635 0.13738,-0.681 c 0.0946,-0.46884 -0.004,-0.76345 -0.31592,-0.9456 z m 1.89833,0.39688 c 0,-0.14552 -0.11906,-0.26458 -0.26458,-0.26458 -0.14552,0 -0.26458,0.11906 -0.26458,0.26458 0,0.14552 0.11906,0.26458 0.26458,0.26458 0.14552,0 0.26458,-0.11906 0.26458,-0.26458 z m 4.73957,-1.92664 c -0.23089,-0.17728 -0.5625,-0.59021 -0.73691,-0.91763 -0.28815,-0.54095 -1.09224,-0.84731 -1.09224,-0.41615 0,0.25869 1.67064,1.65098 1.98437,1.65375 0.14552,10e-4 0.0757,-0.1427 -0.15522,-0.31997 z m 4.50032,-1.02213 c -0.47796,-0.89309 -1.65587,-1.80512 -2.14265,-1.65903 -0.25643,0.077 -0.55485,-0.0661 -0.70776,-0.33934 -0.1454,-0.25982 -0.34707,-0.38971 -0.44814,-0.28864 -0.33079,0.33078 0.7829,1.88296 1.38273,1.92715 0.31513,0.0232 0.84996,0.23513 1.18851,0.47092 0.85134,0.59292 1.08498,0.55724 0.72731,-0.11106 z m -21.14614,2.92987 c 0,-0.35855 -0.50289,-0.86515 -1.26223,-1.27154 -0.5602,-0.29981 -0.83211,-1.09081 -0.37497,-1.09081 0.11819,0 0.7135,0.2409 1.32292,0.53534 0.93293,0.45074 1.10803,0.6598 1.10803,1.32292 0,0.52368 -0.13298,0.78757 -0.39687,0.78757 -0.21829,0 -0.39688,-0.12756 -0.39688,-0.28348 z m 11.90625,-10.56443 c 0,-0.14553 0.12609,-0.26459 0.2802,-0.26459 0.15411,0 0.20661,0.11906 0.11668,0.26459 -0.0899,0.14552 -0.21603,0.26458 -0.2802,0.26458 -0.0642,0 -0.11668,-0.11906 -0.11668,-0.26458 z"
       id="path11" />
  </g>
</svg>
