<?xml version="1.0" encoding="UTF-8" standalone="no"?>
<!-- Created with Inkscape (http://www.inkscape.org/) -->

<svg
   width="36.562134mm"
   height="10.909986mm"
   viewBox="0 0 36.562135 10.909984"
   version="1.1"
   id="svg1"
   inkscape:version="1.4.1-rc (06eac75fbf, 2025-03-29)"
   sodipodi:docname="smallbush6.svg"
   xmlns:inkscape="http://www.inkscape.org/namespaces/inkscape"
   xmlns:sodipodi="http://sodipodi.sourceforge.net/DTD/sodipodi-0.dtd"
   xmlns="http://www.w3.org/2000/svg"
   xmlns:svg="http://www.w3.org/2000/svg">
  <sodipodi:namedview
     id="namedview1"
     pagecolor="#ffffff"
     bordercolor="#000000"
     borderopacity="0.25"
     inkscape:showpageshadow="2"
     inkscape:pageopacity="0.0"
     inkscape:pagecheckerboard="0"
     inkscape:deskcolor="#d1d1d1"
     inkscape:document-units="mm"
     inkscape:zoom="0.72248176"
     inkscape:cx="69.205899"
     inkscape:cy="20.069711"
     inkscape:window-width="1850"
     inkscape:window-height="1016"
     inkscape:window-x="0"
     inkscape:window-y="0"
     inkscape:window-maximized="1"
     inkscape:current-layer="layer1" />
  <defs
     id="defs1" />
  <g
     inkscape:label="Layer 1"
     inkscape:groupmode="layer"
     id="layer1"
     transform="translate(-87.047968,-113.50753)">
    <path
       style="fill:#000000"
       d="m 113.42365,124.20634 c 0,-0.29263 -1.79238,-0.91503 -2.09554,-0.72767 -0.1356,0.0838 -0.77534,-0.0272 -1.42164,-0.24658 -1.24958,-0.42425 -3.37478,-0.23028 -3.96714,0.36208 -0.43486,0.43486 -1.40414,0.35879 -2.51425,-0.19732 -1.1159,-0.55901 -2.78836,-0.81723 -6.4056,-0.98901 -3.49522,-0.16598 -3.69673,-0.19556 -3.9326,-0.57731 -0.25151,-0.40707 -2.37464,-0.74396 -5.18608,-0.82289 -0.96836,-0.0272 -1.01586,-0.0625 -0.61877,-0.45956 0.55438,-0.55438 5.06348,-0.53985 5.9165,0.0191 1.4613,0.95748 3.80223,0.94802 3.00535,-0.0121 -0.51029,-0.61486 0.40757,-1.47033 1.23857,-1.15438 0.34945,0.13286 0.63536,0.18192 0.63536,0.10902 0,-0.0729 0.35128,0.0491 0.78061,0.27114 0.42934,0.22201 1.01615,0.40367 1.30402,0.40367 0.28787,0 0.702,0.17859 0.92028,0.39687 0.21828,0.21828 0.51853,0.39688 0.66721,0.39688 0.14869,0 0.36555,0.14882 0.48192,0.33072 0.11637,0.18191 0.76554,0.60902 1.44259,0.94914 0.97741,0.49102 1.34174,0.55915 1.76855,0.33073 0.29564,-0.15822 0.79341,-0.28768 1.10614,-0.28768 0.73582,0 0.54599,-0.63273 -0.22381,-0.746 -0.31603,-0.0465 -0.57459,-0.19533 -0.57459,-0.33073 0,-0.42164 -0.75439,-0.26954 -1.02036,0.20573 -0.23637,0.42238 -0.31503,0.41845 -1.20377,-0.0602 -0.52298,-0.28165 -0.95132,-0.63383 -0.95186,-0.78264 -0.001,-0.30124 -2.01052,-1.19661 -2.68546,-1.19661 -0.44847,0 -0.83527,-0.62342 -0.55852,-0.90017 0.37598,-0.37598 1.8661,-0.10105 3.35635,0.61924 1.93499,0.93525 3.06362,1.2465 3.06362,0.84488 0,-0.15794 0.30782,-0.48885 0.68404,-0.73536 0.58232,-0.38156 0.71942,-0.3923 0.92199,-0.0722 0.16699,0.26383 0.23916,0.27732 0.242,0.0452 0.002,-0.18371 0.32863,-0.33073 0.73421,-0.33073 0.64791,0 0.72988,-0.0969 0.72761,-0.8599 -0.002,-0.74214 0.0971,-0.87136 0.72504,-0.94362 0.83226,-0.0958 0.89573,-0.33976 0.31784,-1.22174 -0.50785,-0.77508 -1.65309,-1.26756 -3.0317,-1.30371 -1.98798,-0.0521 -2.71429,1.6128 -1.3143,3.01278 0.60277,0.60278 0.69683,1.58077 0.15202,1.58077 -0.64444,0 -2.16951,-1.74351 -2.1558,-2.46457 0.007,-0.36659 0.10197,-0.75578 0.21111,-0.86486 0.10914,-0.10909 0.20218,-0.38686 0.20675,-0.61727 0.0107,-0.53946 0.95637,-1.22118 2.15188,-1.55128 1.78795,-0.49367 4.364,0.58652 5.1603,2.16383 0.41517,0.82236 1.80036,2.27582 2.16894,2.27582 0.35885,0 1.88765,1.73836 1.88765,2.1464 0,0.55531 1.65686,1.29318 2.90378,1.29318 0.56856,0 1.09828,0.10442 1.17715,0.23204 0.0789,0.12762 0.67465,0.36581 1.32393,0.5293 0.64929,0.16349 1.51452,0.59109 1.92273,0.95022 l 0.7422,0.65297 -0.82965,0.008 c -0.45631,0.005 -1.17068,-0.1695 -1.5875,-0.38689 -0.41681,-0.21738 -1.04768,-0.39598 -1.40192,-0.39687 -0.35423,-9e-4 -1.15687,-0.24988 -1.78363,-0.55329 -0.65586,-0.31749 -1.84246,-0.59323 -2.79552,-0.64959 -0.91077,-0.0539 -1.71547,-0.12142 -1.78823,-0.15011 -0.0728,-0.0287 -0.25136,-0.0682 -0.39688,-0.0878 -0.14552,-0.0196 -0.96205,-0.36824 -1.81452,-0.77472 -1.66041,-0.79173 -3.07275,-1.12212 -3.72571,-0.87156 -0.65576,0.25164 -0.1883,0.89268 0.86156,1.18148 1.43843,0.39568 2.69884,0.85877 3.84378,1.41226 0.55945,0.27045 1.17179,0.49173 1.36075,0.49173 0.32564,0 0.66477,0.55095 0.66477,1.07997 0,0.13362 -0.1786,0.24295 -0.39688,0.24295 -0.21828,0 -0.39687,-0.0951 -0.39687,-0.21144 z m -14.44519,-3.3312 c -0.0816,-0.21256 -0.35709,-0.31115 -0.65315,-0.23373 -0.73016,0.19094 -0.63388,0.60136 0.14107,0.60136 0.4488,0 0.60902,-0.11503 0.51208,-0.36763 z m 15.23894,-0.6907 c 0,-0.14552 -0.11907,-0.26458 -0.26459,-0.26458 -0.14552,0 -0.26458,0.11906 -0.26458,0.26458 0,0.14552 0.11906,0.26458 0.26458,0.26458 0.14552,0 0.26459,-0.11906 0.26459,-0.26458 z m -2.0944,-1.14725 c -0.53317,-0.84208 -1.08687,-1.08291 -1.26451,-0.54999 -0.12653,0.3796 1.23661,1.73194 1.55034,1.53805 0.13431,-0.083 0.006,-0.52763 -0.28583,-0.98806 z m -18.46105,1.20356 c -1.10783,-0.70438 -2.22979,-3.76048 -1.38056,-3.76048 0.15895,0 0.59173,-0.23812 0.96173,-0.52916 1.46319,-1.15095 6.15761,-0.31887 6.15761,1.09143 0,0.74031 -0.40977,0.79843 -1.20712,0.17124 -1.06663,-0.83902 -3.70765,-0.99123 -4.60407,-0.26536 -0.64073,0.51884 -0.64161,0.52624 -0.1531,1.28362 0.27023,0.41898 0.65119,0.85699 0.84656,0.97336 0.19538,0.11637 0.35523,0.44379 0.35523,0.7276 0,0.52982 -0.41919,0.66196 -0.97628,0.30775 z"
       id="path4" />
  </g>
</svg>
