<?xml version="1.0" encoding="UTF-8" standalone="no"?>
<!-- Created with Inkscape (http://www.inkscape.org/) -->

<svg
   width="44.384617mm"
   height="15.843184mm"
   viewBox="0 0 44.384618 15.843184"
   version="1.1"
   id="svg1"
   inkscape:version="1.4.1-rc (06eac75fbf, 2025-03-29)"
   sodipodi:docname="smallbush1.svg"
   xmlns:inkscape="http://www.inkscape.org/namespaces/inkscape"
   xmlns:sodipodi="http://sodipodi.sourceforge.net/DTD/sodipodi-0.dtd"
   xmlns="http://www.w3.org/2000/svg"
   xmlns:svg="http://www.w3.org/2000/svg">
  <sodipodi:namedview
     id="namedview1"
     pagecolor="#ffffff"
     bordercolor="#000000"
     borderopacity="0.25"
     inkscape:showpageshadow="2"
     inkscape:pageopacity="0.0"
     inkscape:pagecheckerboard="0"
     inkscape:deskcolor="#d1d1d1"
     inkscape:document-units="mm"
     inkscape:zoom="0.72248176"
     inkscape:cx="84.431197"
     inkscape:cy="29.758537"
     inkscape:window-width="1850"
     inkscape:window-height="1016"
     inkscape:window-x="0"
     inkscape:window-y="0"
     inkscape:window-maximized="1"
     inkscape:current-layer="layer1" />
  <defs
     id="defs1" />
  <g
     inkscape:label="Layer 1"
     inkscape:groupmode="layer"
     id="layer1"
     transform="translate(-82.550085,-111.1258)">
    <path
       style="fill:#000000"
       d="m 108.78453,126.87547 c -0.0606,-0.0593 -1.41993,-0.1848 -3.02066,-0.27882 -9.89732,-0.58136 -9.51075,-0.53322 -9.61199,-1.19697 -0.0853,-0.55938 -0.0372,-0.56752 2.51354,-0.42483 1.43029,0.08 3.19585,0.18837 3.92345,0.24081 0.72761,0.0524 2.72582,0.19166 4.44048,0.30939 1.71465,0.11774 3.17215,0.3024 3.23887,0.41036 0.0667,0.10796 -0.17113,0.38791 -0.52856,0.62211 -0.69562,0.45578 -0.78414,0.48525 -0.95513,0.31795 z m 15.72897,-1.24849 c -0.27136,-0.10667 -0.87331,-0.20232 -1.33766,-0.21255 -0.46436,-0.0102 -0.92383,-0.14731 -1.02106,-0.30462 -0.0972,-0.15731 -0.45414,-0.2164 -0.79315,-0.13132 -0.339,0.0851 -0.69525,0.0271 -0.79164,-0.12889 -0.0964,-0.15597 -0.36207,-0.21191 -0.59038,-0.1243 -0.22831,0.0876 -0.50278,0.0174 -0.60994,-0.15596 -0.10716,-0.17339 -0.62664,-0.3441 -1.15441,-0.37936 -0.52776,-0.0353 -1.24371,-0.13542 -1.591,-0.22258 -0.38057,-0.0955 -1.13917,0.0658 -1.90945,0.40609 -1.64726,0.72768 -3.73305,0.72421 -7.76031,-0.0129 -0.80037,-0.14649 -2.14521,-0.31225 -2.98853,-0.36835 -1.62158,-0.10787 -2.35279,-0.48032 -1.73088,-0.88164 0.45603,-0.29429 3.66107,-0.31318 3.66107,-0.0216 0,0.12176 0.10207,0.1583 0.22682,0.0812 0.12475,-0.0771 0.92842,-0.01 1.78594,0.14994 0.85751,0.15957 1.8659,0.3149 2.24085,0.34518 0.37495,0.0303 0.80284,0.12991 0.95086,0.2214 0.14802,0.0915 0.70645,0.0954 1.24097,0.009 0.85685,-0.13905 0.96349,-0.23962 0.90122,-0.84997 -0.0699,-0.68471 -0.0513,-0.69226 1.70016,-0.69226 1.90494,0 2.717,-0.38329 2.10212,-0.99219 -0.26751,-0.26491 -0.38691,-0.2369 -0.59997,0.14076 -0.24781,0.43927 -0.3204,0.42571 -1.06215,-0.19844 -0.96672,-0.81344 -1.28473,-0.84348 -1.28473,-0.12136 0,0.97373 -0.92345,0.50605 -0.9419,-0.47702 -0.0152,-0.8105 -0.72905,-1.92363 -1.23361,-1.92363 -0.13277,0 -0.16901,0.22811 -0.0805,0.5069 0.25403,0.80036 -0.31458,0.90567 -1.36955,0.25366 -0.66533,-0.4112 -1.00323,-0.50016 -1.07556,-0.28318 -0.17541,0.52623 -0.87972,0.35645 -1.43155,-0.34509 -0.39986,-0.50833 -0.76497,-0.66145 -1.57726,-0.66145 -0.92108,0 -1.03628,-0.0652 -0.89608,-0.5069 0.21599,-0.68051 -0.1328,-0.84775 -1.92071,-0.92097 -0.98686,-0.0404 -1.82083,-0.25418 -2.40176,-0.61565 -1.23325,-0.76734 -3.8339,-1.20829 -5.32775,-0.90335 l -1.19063,0.24305 1.19063,0.0693 c 1.33428,0.0776 1.55093,0.11018 2.11666,0.31774 0.21829,0.0801 1.10603,0.33456 1.97277,0.56548 1.75791,0.46837 2.64135,1.13911 2.27592,1.72798 -0.19229,0.30988 -0.47745,0.25337 -1.67274,-0.33143 -1.56844,-0.76737 -2.37483,-0.95708 -4.89105,-1.15067 l -1.65367,-0.12723 v 0.81633 c 0,0.51866 -0.13347,0.81633 -0.36603,0.81633 -0.42386,0 -0.74173,-1.26114 -0.375,-1.48779 0.1361,-0.0841 0.0601,-0.35808 -0.16991,-0.6122 -0.37961,-0.41947 -0.37531,-0.49484 0.0489,-0.8562 1.53445,-1.30712 5.90243,-1.58137 7.93964,-0.49851 0.61846,0.32874 1.12448,0.72856 1.12448,0.88849 0,0.19649 0.10296,0.18782 0.3175,-0.0267 0.17462,-0.17462 0.85923,-0.31401 1.52135,-0.30974 0.95707,0.006 1.38013,0.16812 2.06375,0.79002 0.47294,0.43025 0.8599,0.903 0.8599,1.05058 0,0.14757 0.24231,0.26831 0.53847,0.26831 0.45649,0 0.49536,-0.0806 0.25528,-0.52917 -0.15576,-0.29104 -0.39808,-0.52916 -0.53848,-0.52916 -0.1404,0 -0.25527,-0.1786 -0.25527,-0.39688 0,-0.21828 -0.23813,-0.635 -0.52917,-0.92604 -0.29104,-0.29104 -0.52917,-0.70776 -0.52917,-0.92604 0,-0.21828 -0.10615,-0.39688 -0.2359,-0.39688 -0.48894,0 -0.5857,-1.37329 -0.14422,-2.04707 0.41027,-0.62615 0.53591,-0.65786 2.00018,-0.50481 1.31372,0.13731 1.97243,0.42253 4.13837,1.79193 3.07074,1.94145 3.50199,2.3535 3.50199,3.346 0,0.59997 0.20763,0.87279 1.00551,1.32122 0.97988,0.55073 2.68012,2.79086 2.8147,3.70848 0.0467,0.3186 0.41426,0.50435 1.23204,0.62268 1.4226,0.20584 4.10296,1.4438 4.57012,2.11077 0.18807,0.2685 0.78367,0.67275 1.32357,0.89833 0.5399,0.22559 0.90835,0.52874 0.81877,0.67368 -0.17831,0.28851 -1.62471,0.25945 -2.40779,-0.0484 z m -1.94859,-1.52533 c 0,-0.21539 -1.86693,-1.08889 -2.32046,-1.08571 -0.24585,0.002 1.85546,1.30221 2.12202,1.3133 0.10914,0.005 0.19844,-0.0979 0.19844,-0.22759 z m -3.04271,-1.08707 c -0.0899,-0.14552 -0.36485,-0.25621 -0.61093,-0.24598 -0.36472,0.0152 -0.34962,0.0606 0.0818,0.24598 0.70801,0.30424 0.7172,0.30424 0.52917,0 z m -4.89479,-4.7625 c -0.51296,-0.3315 -0.79375,-0.3315 -0.79375,0 0,0.14553 0.26789,0.26276 0.59532,0.26054 0.48139,-0.003 0.51936,-0.0531 0.19843,-0.26054 z m -3.50307,-1.41485 c -0.29064,-0.28248 -2.19328,-0.9664 -2.6885,-0.9664 -0.0974,0 -0.0536,0.2306 0.0972,0.51243 0.16543,0.3091 0.61531,0.54532 1.13379,0.59532 0.47275,0.0456 1.0691,0.10534 1.32522,0.13278 0.37225,0.0399 0.39879,-0.0151 0.13229,-0.27413 z m 2.97391,-0.57782 c 0,-0.22285 -0.20836,-0.48473 -0.46302,-0.58196 -0.25467,-0.0972 -0.69384,-0.39114 -0.97594,-0.65315 -0.2821,-0.26201 -0.69882,-0.47844 -0.92604,-0.48095 -0.22722,-0.002 -0.69344,-0.3001 -1.03605,-0.66129 -0.7702,-0.81199 -2.75899,-1.71539 -3.77634,-1.71539 -0.41806,0 -0.76011,0.0768 -0.76011,0.17069 0,0.0939 0.31627,0.67062 0.70283,1.28164 0.63674,1.00647 0.80616,1.1125 1.80154,1.12755 1.11472,0.0169 2.27674,0.44525 3.71333,1.36898 0.97114,0.62444 1.7198,0.68707 1.7198,0.14388 z m -23.8125,6.25199 c 0,-0.21582 -1.44799,-0.45434 -4.36563,-0.71911 -1.51596,-0.13757 -3.32019,-0.47502 -3.36733,-0.62979 -0.0222,-0.0728 0.0947,-0.37041 0.25978,-0.66146 0.25863,-0.4561 0.37552,-0.48297 0.84648,-0.19459 0.30053,0.18402 1.52752,0.39803 2.72666,0.47558 3.49925,0.2263 6.03221,1.2347 4.53985,1.80737 -0.55698,0.21374 -0.63981,0.20364 -0.63981,-0.078 z m 0.7978,-1.67963 c 0.002,-0.1819 0.0915,-0.44979 0.19843,-0.59531 0.38183,-0.51971 2.55642,-1.48083 3.70742,-1.63859 1.04628,-0.14341 1.16106,-0.10761 1.07572,0.33554 -0.0665,0.3454 -0.35877,0.51743 -0.96216,0.56636 -0.94456,0.0766 -3.0987,0.9721 -3.36158,1.39745 -0.23075,0.37338 -0.66268,0.3304 -0.65783,-0.0654 z"
       id="path2" />
  </g>
</svg>
