<?xml version="1.0" encoding="UTF-8" standalone="no"?>
<!-- Created with Inkscape (http://www.inkscape.org/) -->

<svg
   width="50.518818mm"
   height="20.769722mm"
   viewBox="0 0 50.51882 20.769721"
   version="1.1"
   id="svg1"
   inkscape:version="1.4.1-rc (06eac75fbf, 2025-03-29)"
   sodipodi:docname="smallbush2.svg"
   xmlns:inkscape="http://www.inkscape.org/namespaces/inkscape"
   xmlns:sodipodi="http://sodipodi.sourceforge.net/DTD/sodipodi-0.dtd"
   xmlns="http://www.w3.org/2000/svg"
   xmlns:svg="http://www.w3.org/2000/svg">
  <sodipodi:namedview
     id="namedview1"
     pagecolor="#ffffff"
     bordercolor="#000000"
     borderopacity="0.25"
     inkscape:showpageshadow="2"
     inkscape:pageopacity="0.0"
     inkscape:pagecheckerboard="0"
     inkscape:deskcolor="#d1d1d1"
     inkscape:document-units="mm"
     inkscape:zoom="0.72248176"
     inkscape:cx="95.504141"
     inkscape:cy="39.447363"
     inkscape:window-width="1850"
     inkscape:window-height="1016"
     inkscape:window-x="0"
     inkscape:window-y="0"
     inkscape:window-maximized="1"
     inkscape:current-layer="layer1" />
  <defs
     id="defs1" />
  <g
     inkscape:label="Layer 1"
     inkscape:groupmode="layer"
     id="layer1"
     transform="translate(-79.63965,-108.74507)">
    <path
       style="fill:#000000"
       d="m 94.98126,129.30379 c -0.36148,-0.0853 -0.65724,-0.32838 -0.65724,-0.5401 0,-0.39471 0.0475,-0.3966 5.60582,-0.22316 1.86363,0.0582 2.56976,0.33854 1.9348,0.76828 -0.40985,0.27739 -5.70344,0.27353 -6.88338,-0.005 z m -5.12557,-0.45521 c -0.033,-0.0326 -2.16896,-0.10449 -4.74653,-0.1597 -2.57757,-0.0552 -4.75778,-0.17167 -4.84492,-0.2588 -0.26975,-0.26976 0.62872,-0.97738 1.24099,-0.97738 0.49356,0 0.52965,-0.0612 0.24109,-0.40891 -0.18665,-0.22491 -0.48621,-0.35257 -0.66569,-0.2837 -0.30796,0.11818 -1.44098,-0.85613 -1.44098,-1.23912 0,-0.0978 0.39639,-0.34345 0.88087,-0.54588 0.64978,-0.2715 1.25693,-0.30861 2.31432,-0.14146 0.81115,0.12823 1.79935,0.12557 2.27629,-0.006 0.46355,-0.12799 0.88586,-0.18969 0.93845,-0.1371 0.10817,0.10818 3.65798,0.34442 7.21611,0.48024 1.30968,0.05 2.5003,0.13742 2.64582,0.19429 0.14552,0.0569 0.32411,-0.0157 0.39687,-0.16119 0.0728,-0.14553 -0.11006,-0.29929 -0.40628,-0.3417 -0.29622,-0.0424 -0.89152,-0.36183 -1.32291,-0.70981 -0.6501,-0.52442 -0.73443,-0.71499 -0.49273,-1.11351 0.16038,-0.26445 0.55135,-0.51939 0.86883,-0.56654 l 0.57721,-0.0857 -0.60424,-0.66257 c -0.33233,-0.36441 -0.87868,-0.95206 -1.21411,-1.30587 -0.33543,-0.35382 -0.77688,-1.04302 -0.981,-1.53155 -0.67463,-1.6146 0.32494,-2.14192 3.26834,-1.7242 0.34053,0.0483 1.17397,0.60092 1.85208,1.22798 0.67813,0.62705 1.72915,1.37332 2.33561,1.65836 0.60646,0.28504 1.35715,0.84179 1.66819,1.23722 0.42555,0.541 0.84027,0.73915 1.67547,0.80051 1.80282,0.13246 3.46295,0.36122 3.88805,0.53577 0.49435,0.20298 1.32292,0.29762 1.32292,0.15111 0,-0.0601 -0.17221,-0.44233 -0.3827,-0.84936 -0.35378,-0.68414 -0.33355,-0.81238 0.26768,-1.69716 0.38541,-0.56718 0.7975,-0.90065 1.01151,-0.81853 0.48916,0.18771 0.7635,-0.99077 0.43301,-1.86004 -0.1792,-0.47134 -0.16229,-0.89283 0.055,-1.36965 0.2886,-0.6334 0.40827,-0.67583 1.48851,-0.52777 0.64608,0.0885 1.30576,0.2635 1.46596,0.38876 0.1602,0.12527 0.6187,0.30597 1.01888,0.40157 0.40352,0.0964 0.72761,0.3553 0.72761,0.58127 0,0.22409 0.10315,0.3437 0.22922,0.26578 0.27032,-0.16707 0.83105,0.46504 1.36969,1.54406 l 0.38546,0.77215 0.15045,-1.43361 c 0.24447,-2.32963 -0.78069,-4.11114 -2.52899,-4.39485 -0.51081,-0.0829 -0.92875,-0.24032 -0.92875,-0.34982 0,-0.10951 -0.2218,-0.25711 -0.49288,-0.328 -0.27109,-0.0709 -0.88177,-0.69411 -1.35707,-1.38493 -0.8541,-1.2414 -0.85913,-1.26661 -0.43184,-2.16267 0.40917,-0.85803 0.48546,-0.89675 1.42321,-0.72228 1.49862,0.27881 3.49039,1.23599 3.65684,1.75736 0.0813,0.25467 0.30565,0.46303 0.49855,0.46303 0.19291,0 0.42217,0.18614 0.50947,0.41364 0.0873,0.22751 0.26272,0.34938 0.38982,0.27082 0.46662,-0.28838 2.09253,2.47685 1.76651,3.00435 -0.0827,0.13385 -0.0294,0.31816 0.11849,0.40956 0.1479,0.0914 0.2689,0.57843 0.2689,1.08229 0,1.13266 1.15599,2.96025 1.94339,3.07246 1.4705,0.20956 2.14724,-0.0784 2.63654,-1.12174 l 0.47889,-1.02118 1.66345,0.0719 c 1.95614,0.0846 3.4179,0.80025 3.55362,1.73989 0.0741,0.5129 0.006,0.58361 -0.39688,0.41205 -2.13258,-0.90818 -3.42032,-1.19519 -3.99203,-0.88976 -0.32742,0.17493 -0.59531,0.41699 -0.59531,0.53792 0,0.23314 0.0528,0.25161 1.00056,0.35021 0.77938,0.0811 0.9562,0.27359 0.74848,0.8149 -0.13976,0.36419 -0.46614,0.41993 -1.91755,0.32751 l -1.74913,-0.11137 0.78313,0.67608 c 0.43071,0.37185 1.00249,0.80275 1.2706,0.95756 0.84702,0.48907 0.3027,1.17374 -0.93314,1.17374 -0.87205,0 -1.06337,0.0867 -1.00049,0.45342 0.10061,0.58678 -0.85162,0.79777 -1.15487,0.25589 -0.29578,-0.52853 -1.77326,-0.85198 -2.15374,-0.4715 -0.41137,0.41137 -0.99216,0.3617 -1.53708,-0.13144 -0.49981,-0.45233 -1.02969,-0.30562 -1.02969,0.28509 0,0.19813 0.38695,0.44298 0.8599,0.5441 0.47294,0.10113 1.15755,0.33938 1.52135,0.52944 0.3638,0.19006 0.87972,0.4145 1.14648,0.49876 0.26677,0.0842 0.43603,0.30195 0.37615,0.48377 -0.16585,0.5036 -1.13459,0.54426 -2.52099,0.10579 -1.06333,-0.33628 -3.83616,-0.78098 -4.4894,-0.71999 -0.11043,0.0103 -0.20078,0.12789 -0.20078,0.26128 0,0.56108 -0.4244,0.57736 -1.27917,0.0491 -0.50057,-0.30937 -1.10215,-0.4888 -1.33683,-0.39875 -0.28346,0.10878 -0.42671,0.021 -0.42671,-0.26144 0,-0.23385 -0.11906,-0.42518 -0.26458,-0.42518 -0.14552,0 -0.26459,0.11034 -0.26459,0.24521 0,0.13486 -0.37567,0.43261 -0.83483,0.66167 -0.78754,0.39288 -0.85584,0.38648 -1.20563,-0.11291 -0.42889,-0.61233 -0.99799,-0.71552 -0.77752,-0.14098 0.082,0.21362 0.0376,0.45725 -0.0985,0.5414 -0.40343,0.24934 -1.31683,-0.37959 -1.31683,-0.90672 0,-0.2681 -0.14883,-0.60434 -0.33073,-0.74721 -0.36149,-0.28391 -2.05052,-0.66272 -2.05052,-0.45988 0,0.28284 1.08442,1.18401 1.42478,1.18401 0.42107,0 1.27521,1.18057 1.03089,1.42488 -0.28107,0.28107 -1.09728,0.17696 -1.31804,-0.16811 -0.11637,-0.1819 -0.41995,-0.49414 -0.67461,-0.69386 -0.37756,-0.2961 -0.53834,-0.30061 -0.87111,-0.0244 -0.28301,0.23488 -0.49258,0.25419 -0.68377,0.063 -0.39716,-0.39716 -1.218,-0.10929 -1.37245,0.48132 -0.0962,0.3679 -0.37178,0.5063 -1.01665,0.51059 l -0.88466,0.006 0.63336,0.48698 c 0.80538,0.61923 0.5179,1.20633 -0.46379,0.94717 -0.38431,-0.10145 -0.87733,-0.20882 -1.09562,-0.23859 -0.21828,-0.0298 -0.57547,-0.12534 -0.79376,-0.21239 -1.00459,-0.40062 -1.97433,-0.39972 -2.26815,0.002 -0.27398,0.37469 -0.48469,0.3585 -2.12682,-0.16337 -2.45897,-0.78145 -3.81108,-0.9307 -7.7538,-0.85585 -1.37175,0.026 -1.26837,0.3123 0.16852,0.46663 1.58289,0.17001 2.93142,0.47069 3.91048,0.87191 0.29104,0.11926 1.21377,0.35667 2.05051,0.52755 2.16525,0.44221 2.03793,1.00008 -0.21976,0.96289 -0.95762,-0.0158 -1.76814,-0.0554 -1.80117,-0.088 z m 11.36723,-4.00977 c -0.1966,-0.31812 -1.21036,-0.56419 -1.21036,-0.2938 0,0.23891 0.46646,0.47291 1.0078,0.50556 0.19049,0.0115 0.28164,-0.0838 0.20256,-0.21176 z m -2.93016,-0.54738 c 0,-0.22756 -0.33934,-0.41465 -0.8599,-0.47409 -0.97361,-0.11118 -1.03942,-0.0215 -0.4309,0.58697 0.50054,0.50054 1.2908,0.43144 1.2908,-0.11288 z m 18.91772,-0.5685 c 0,-0.29142 -1.5356,-0.83145 -1.83612,-0.64572 -0.42378,0.26191 -0.33697,0.61832 0.18247,0.74914 0.65782,0.16567 1.65365,0.10339 1.65365,-0.10342 z m -3.83646,-0.23898 c -0.0899,-0.14552 -0.27556,-0.26458 -0.41249,-0.26458 -0.13693,0 -0.24897,0.11906 -0.24897,0.26458 0,0.14552 0.18562,0.26459 0.41249,0.26459 0.22687,0 0.33891,-0.11907 0.24897,-0.26459 z m -12.76615,-0.7735 c 0.25466,-0.0111 0.46302,-0.17238 0.46302,-0.35832 0,-0.51906 -1.05738,-1.30641 -1.5174,-1.12988 -0.69976,0.26852 -1.32358,-0.10307 -1.47919,-0.88112 -0.1536,-0.76798 -1.20006,-1.63877 -2.15217,-1.79086 -0.29688,-0.0474 -0.8672,-0.16126 -1.26738,-0.25295 -0.57814,-0.13247 -0.72761,-0.0725 -0.72761,0.29212 0,0.41197 0.65966,1.11223 2.98888,3.17284 0.75425,0.66727 2.11678,1.16736 2.83196,1.03941 0.21828,-0.039 0.60523,-0.0801 0.85989,-0.0912 z m 22.82032,-0.0202 c -0.0899,-0.14552 -0.39462,-0.26459 -0.67708,-0.26459 -0.28245,0 -0.51355,-0.11906 -0.51355,-0.26458 0,-0.14552 -0.29766,-0.26458 -0.66146,-0.26458 -0.9272,0 -0.82356,0.36655 0.19844,0.70183 1.14925,0.37701 1.85406,0.41619 1.65365,0.0919 z m -11.21607,-0.52917 h 0.85727 l -0.61761,-0.65741 c -0.8403,-0.89446 -2.34723,-1.17244 -2.82367,-0.52087 -0.30546,0.41774 -0.27655,0.56636 0.21115,1.0855 0.43151,0.45932 0.6774,0.54137 1.04033,0.34713 0.2614,-0.13989 0.86104,-0.25435 1.33253,-0.25435 z m 4.31976,-0.23686 c 0.0805,-0.13027 -0.0486,-0.31167 -0.28683,-0.4031 -0.51511,-0.19767 -0.7432,-0.0347 -0.50066,0.35777 0.21264,0.34406 0.58946,0.36575 0.78749,0.0453 z m 4.64735,-1.35064 c -0.51297,-0.3315 -0.79375,-0.3315 -0.79375,0 0,0.14552 0.26789,0.26276 0.59531,0.26053 0.48139,-0.003 0.51937,-0.0531 0.19844,-0.26053 z m -6.76878,-1.42446 c 0.79045,-0.28109 0.1287,-0.72208 -1.10922,-0.73916 -0.58988,-0.008 -1.33635,0.17 -1.65882,0.39587 l -0.58632,0.41067 0.88555,0.53853 c 0.8581,0.52184 0.90221,0.52359 1.42354,0.0565 0.2959,-0.26511 0.76627,-0.5632 1.04527,-0.66241 z m 4.38753,0.13394 c 0,-0.1277 -0.1786,-0.38041 -0.39688,-0.56156 -0.43079,-0.35753 -0.48464,-0.27201 -0.23627,0.37523 0.17001,0.44304 0.63315,0.57933 0.63315,0.18633 z m -6.08542,-2.14906 c 0,-0.14552 -0.35719,-0.26459 -0.79375,-0.26459 -0.43656,0 -0.79375,0.11907 -0.79375,0.26459 0,0.14552 0.35719,0.26458 0.79375,0.26458 0.43656,0 0.79375,-0.11906 0.79375,-0.26458 z m 6.14671,-1.10993 c 0.058,-0.1739 -0.2,-0.94304 -0.57326,-1.70921 -0.51767,-1.06258 -0.85502,-1.43273 -1.42213,-1.56041 -0.43504,-0.0979 -0.83903,-0.41872 -0.97381,-0.77324 -0.3083,-0.81088 -1.51758,-1.63918 -2.72342,-1.86539 -1.07148,-0.20101 -1.15484,-0.0718 -0.65253,1.01114 0.20399,0.43979 0.68562,0.82958 1.25677,1.01713 0.50933,0.16725 0.98558,0.38303 1.05834,0.47952 0.34637,0.45932 1.50116,1.0708 2.02222,1.0708 0.43978,0 0.62715,0.20753 0.76852,0.85121 0.31249,1.42273 0.9889,2.22966 1.2393,1.47845 z m -13.15922,12.79464 c -0.0527,-0.0527 -0.5503,-0.13599 -1.10573,-0.18506 -2.94271,-0.25993 -3.27873,-0.38704 -2.73979,-1.03643 0.2614,-0.31496 0.82877,-0.37671 2.73323,-0.29743 1.76677,0.0735 2.55494,7.1e-4 2.97566,-0.27495 0.8359,-0.5477 5.94289,-0.17662 5.94289,0.43182 0,0.11612 0.23261,0.1503 0.5169,0.076 0.51908,-0.13574 2.6385,0.68683 2.65128,1.02899 0.0133,0.3554 -0.47783,0.47431 -1.28892,0.31209 -0.45151,-0.0903 -0.82093,-0.32789 -0.82093,-0.52798 0,-0.20009 -0.11906,-0.3638 -0.26458,-0.3638 -0.14552,0 -0.26458,0.16146 -0.26458,0.3588 0,0.29028 -0.2593,0.30753 -1.35768,0.0904 -1.05492,-0.20858 -1.48269,-0.1886 -1.91823,0.0896 -0.49932,0.31893 -4.7861,0.57145 -5.05952,0.29803 z"
       id="path10" />
  </g>
</svg>
