<?xml version="1.0" encoding="UTF-8" standalone="no"?>
<!-- Created with Inkscape (http://www.inkscape.org/) -->

<svg
   width="82.44516mm"
   height="35.054016mm"
   viewBox="0 0 82.44516 35.054008"
   version="1.1"
   id="svg1"
   inkscape:version="1.4.1-rc (06eac75fbf, 2025-03-29)"
   sodipodi:docname="threetrees4.svg"
   xmlns:inkscape="http://www.inkscape.org/namespaces/inkscape"
   xmlns:sodipodi="http://sodipodi.sourceforge.net/DTD/sodipodi-0.dtd"
   xmlns="http://www.w3.org/2000/svg"
   xmlns:svg="http://www.w3.org/2000/svg">
  <sodipodi:namedview
     id="namedview1"
     pagecolor="#ffffff"
     bordercolor="#000000"
     borderopacity="0.25"
     inkscape:showpageshadow="2"
     inkscape:pageopacity="0.0"
     inkscape:pagecheckerboard="0"
     inkscape:deskcolor="#d1d1d1"
     inkscape:document-units="mm"
     inkscape:zoom="0.72248176"
     inkscape:cx="156.40533"
     inkscape:cy="65.745604"
     inkscape:window-width="1850"
     inkscape:window-height="1016"
     inkscape:window-x="0"
     inkscape:window-y="0"
     inkscape:window-maximized="1"
     inkscape:current-layer="layer1" />
  <defs
     id="defs1" />
  <g
     inkscape:label="Layer 1"
     inkscape:groupmode="layer"
     id="layer1"
     transform="translate(-64.293758,-101.60118)">
    <path
       style="fill:#000000"
       d="m 77.418106,136.42652 c -0.77197,-0.28855 -1.79956,-1.76347 -2.02945,-2.91292 -0.11816,-0.59079 -0.006,-1.01089 0.42438,-1.59338 0.42696,-0.57749 0.56626,-1.09348 0.51597,-1.91126 -0.0379,-0.61611 -0.008,-1.23441 0.067,-1.37399 0.277,-0.51733 0.0375,-3.71478 -0.32126,-4.28927 -0.41604,-0.66617 -1.18378,-0.8274 -0.94221,-0.19786 0.0838,0.21828 0.037,0.39687 -0.10398,0.39687 -0.14095,0 -0.25628,-0.11906 -0.25628,-0.26458 0,-0.14553 -0.12609,-0.26459 -0.2802,-0.26459 -0.15411,0 -0.20122,0.12779 -0.10469,0.28397 0.0965,0.15618 -0.40247,-0.13091 -1.10887,-0.638 -1.22801,-0.88151 -1.31732,-0.90467 -2.03536,-0.52784 -0.85805,0.4503 -1.21903,0.27317 -0.78991,-0.38759 0.39045,-0.60121 1.45249,-0.49706 2.44973,0.24023 0.44245,0.32712 0.87443,0.5248 0.95994,0.43928 0.0855,-0.0855 -0.0916,-0.23391 -0.39362,-0.32976 -0.55852,-0.17727 -0.77831,-0.93237 -0.27138,-0.93237 0.47086,0 1.83894,0.7924 1.83894,1.06513 0,0.14178 0.41253,0.25779 0.91674,0.25779 0.66677,0 0.9996,-0.15484 1.22065,-0.56788 0.27233,-0.50885 0.24582,-0.55269 -0.25501,-0.42171 -0.30742,0.0804 -0.61897,0.049 -0.69235,-0.0697 -0.22244,-0.35992 0.17883,-1.09636 0.525,-0.96352 0.1781,0.0683 0.5231,-0.10848 0.76666,-0.39293 0.47795,-0.55821 0.9579,-0.45137 0.9579,0.21326 0,0.29826 0.16446,0.36804 0.59531,0.25258 0.32742,-0.0877 0.74688,-0.16116 0.93214,-0.16315 0.52627,-0.006 -0.34665,-1.18579 -1.14674,-1.55034 -0.36861,-0.16794 -1.02178,-0.30536 -1.4515,-0.30536 -0.62099,0 -0.7813,-0.11572 -0.7813,-0.564 0,-0.51007 0.10665,-0.5497 1.1152,-0.41443 0.61336,0.0823 1.25736,0.344 1.43111,0.58163 0.17376,0.23762 0.38629,0.42411 0.47231,0.41442 0.53391,-0.0602 0.78352,0.0759 1.6661,0.90842 0.53998,0.50933 1.07075,0.92605 1.17949,0.92605 0.10874,0 0.63633,0.29765 1.17242,0.66145 0.53609,0.36381 1.07172,0.66146 1.19027,0.66146 0.11855,0 0.15977,-0.44648 0.0916,-0.99219 -0.13078,-1.04669 -0.68336,-1.65364 -1.5055,-1.65364 -0.28275,0 -0.41956,-0.12078 -0.31975,-0.28228 0.10165,-0.16447 -0.004,-0.24729 -0.25379,-0.19844 -0.24522,0.048 -0.56977,-0.19663 -0.75937,-0.5724 -0.18212,-0.36093 -0.59331,-0.78696 -0.91377,-0.94672 -0.46361,-0.23114 -0.5166,-0.3599 -0.25937,-0.63027 0.25992,-0.27319 0.21045,-0.30575 -0.25239,-0.16616 -0.39683,0.11969 -0.65361,0.0344 -0.82652,-0.27459 -0.1884,-0.33665 -0.45672,-0.40705 -1.07797,-0.2828 -1.03519,0.20704 -1.16558,-0.47223 -0.1771,-0.92261 0.56826,-0.25891 0.88552,-0.15388 2.52211,0.83496 1.02964,0.62211 1.93862,1.06457 2.01996,0.98324 0.26182,-0.26182 -0.14138,-1.10229 -0.95741,-1.99573 -0.43731,-0.47879 -0.79511,-1.02903 -0.79511,-1.22276 0,-0.48092 -0.78435,-0.74603 -1.19613,-0.40429 -0.24135,0.20031 -0.45436,0.15923 -0.76021,-0.14663 -0.2337,-0.23369 -0.42491,-0.52648 -0.42491,-0.65064 0,-0.12415 -0.42508,-0.17301 -0.94464,-0.10856 -0.51955,0.0644 -0.88047,0.0133 -0.80204,-0.11356 0.23826,-0.38551 -1.11015,-0.83726 -2.4991,-0.83726 -1.1208,0 -1.31047,-0.0743 -1.31047,-0.51355 0,-0.28246 0.10919,-0.58103 0.24264,-0.66351 0.34744,-0.21473 3.57016,0.57692 3.67911,0.90376 0.0501,0.15032 0.4086,0.27403 0.79666,0.27493 0.38805,9e-4 1.04658,0.17949 1.4634,0.39687 0.41682,0.21739 0.96252,0.39525 1.21267,0.39525 0.25016,0 0.54101,0.0862 0.64634,0.19151 0.28602,0.28602 3.09314,0.32184 2.91723,0.0372 -0.0825,-0.13353 -0.30525,-0.20985 -0.49495,-0.16961 -0.1897,0.0402 -0.57766,-0.21306 -0.86213,-0.56288 -0.40475,-0.49773 -0.84324,-0.66308 -2.01639,-0.76037 -0.82454,-0.0684 -1.49916,-0.20038 -1.49916,-0.29334 0,-0.093 0.29541,-0.39087 0.65648,-0.66202 0.71407,-0.53625 0.65918,-0.95552 -0.1251,-0.95552 -0.27265,0 -0.57346,-0.24494 -0.66848,-0.54432 -0.1976,-0.62258 -1.13563,-1.04746 -2.41907,-1.09571 -1.38235,-0.052 -0.99856,-0.75763 0.64244,-1.18123 0.82487,-0.21293 0.84601,-0.2494 0.4622,-0.79736 -0.65442,-0.93432 -2.07148,-1.26549 -3.81213,-0.89091 -2.89229,0.62241 -3.73217,0.87722 -3.73217,1.13229 0,0.14198 -0.29723,0.61138 -0.66051,1.04312 -0.50888,0.60476 -0.60099,0.89618 -0.40123,1.26943 0.19359,0.36172 0.10037,0.77581 -0.36795,1.63447 -0.34497,0.63251 -0.68494,1.70992 -0.75548,2.39426 -0.12196,1.18316 -0.0668,1.31285 1.12338,2.64169 l 1.25165,1.39745 -0.77774,0.96779 c -0.98441,1.22497 -1.23669,2.79834 -0.60361,3.76454 0.25075,0.3827 0.38081,0.89154 0.28902,1.13076 -0.15254,0.39751 -0.21195,0.39416 -0.69055,-0.039 -0.28801,-0.26065 -0.52365,-0.74608 -0.52365,-1.07874 0,-0.33266 -0.1195,-0.67869 -0.26555,-0.76895 -0.14606,-0.0903 -0.19887,-0.48425 -0.11737,-0.87551 0.41082,-1.97213 0.7433,-2.96035 0.99597,-2.96035 0.15384,0 -0.0402,-0.33394 -0.43126,-0.74208 -0.39103,-0.40815 -0.71096,-0.85794 -0.71096,-0.99954 0,-0.14159 -0.23812,-0.46134 -0.52916,-0.71053 -0.54353,-0.46538 -0.67853,-1.01447 -0.33411,-1.35889 0.19345,-0.19345 0.21597,-0.29901 0.29381,-1.37756 0.0222,-0.30712 0.31343,-0.96196 0.64725,-1.45521 0.36247,-0.53558 0.63426,-1.3764 0.67475,-2.08744 0.0373,-0.65485 0.18161,-1.23056 0.32073,-1.27937 0.13912,-0.0488 0.1904,-0.18995 0.11395,-0.31365 -0.0764,-0.12369 0.18461,-0.54851 0.58013,-0.94403 0.42356,-0.42355 0.76095,-0.5937 0.82086,-0.41396 0.0559,0.16785 0.26666,0.30517 0.46825,0.30517 0.21617,0 0.3044,-0.16188 0.21508,-0.39464 -0.21305,-0.55519 0.0576,-0.6363 3.62356,-1.086 0.72184,-0.091 1.73162,7e-4 2.51354,0.22834 1.05249,0.30639 1.40429,0.56475 1.80671,1.32682 0.38542,0.7299 0.65803,0.94184 1.19189,0.92666 0.3807,-0.0108 0.97591,0.0704 1.32269,0.18043 0.58233,0.18483 0.61927,0.14228 0.48347,-0.55689 -0.16879,-0.86902 0.44937,-2.37581 1.12245,-2.73604 0.69464,-0.37176 2.68254,-0.39353 3.74424,-0.041 0.52588,0.17462 1.26256,0.64102 1.63708,1.03647 0.98309,1.03802 2.19287,1.9096 2.65058,1.9096 0.0656,0 0.19887,-0.63771 0.29626,-1.41714 0.14266,-1.14181 0.3534,-1.58807 1.08465,-2.29683 1.18433,-1.1479 2.44834,-1.29061 3.30975,-0.37368 0.53722,0.57184 0.65753,0.60254 1.03227,0.2634 0.23331,-0.21113 0.89894,-0.4598 1.4792,-0.55258 0.87803,-0.14041 1.14317,-0.0713 1.580594,0.41215 0.88839,0.98183 0.55209,3.67481 -0.461574,3.69605 -0.10637,0.002 -0.26811,-0.2936 -0.35942,-0.65741 -0.10706,-0.42658 -0.36721,-0.67626 -0.73264,-0.70314 -0.82489,-0.0607 -1.01388,-0.0423 -1.86286,0.18137 -0.54963,0.14479 -0.71396,0.11613 -0.5797,-0.1011 0.11021,-0.17832 0.0175,-0.30317 -0.22512,-0.30317 -0.22687,0 -0.41249,-0.11906 -0.41249,-0.26458 0,-0.48723 -0.75598,-0.27123 -0.92604,0.26458 -0.0924,0.29104 -0.37743,0.52917 -0.63347,0.52917 -0.36875,0 -0.44529,-0.17873 -0.36825,-0.8599 l 0.0973,-0.85989 -0.40767,0.89027 c -0.46451,1.0144 -0.5481,2.94618 -0.12748,2.94618 0.15411,0 0.21496,0.10558 0.13521,0.23461 -0.0797,0.12903 0.0456,0.39279 0.27856,0.58613 0.63165,0.52421 0.84753,1.32753 0.59418,2.21093 -0.1889,0.65865 -0.10485,0.94062 0.51338,1.72224 0.4066,0.51405 0.99412,1.35136 1.30561,1.86068 0.31149,0.50932 0.81137,1.13323 1.11085,1.38647 0.32704,0.27653 0.54452,0.77849 0.54452,1.25677 0,0.87764 -0.28286,1.00485 -0.88825,0.39947 -0.21828,-0.21829 -0.51329,-0.39688 -0.65559,-0.39688 -0.14229,0 -0.20073,-0.2217 -0.12987,-0.49268 0.15895,-0.60784 -0.61135,-0.96613 -1.07227,-0.49875 -0.17897,0.18149 -0.25942,0.5681 -0.17878,0.85914 0.23888,0.86207 1.10344,1.98437 1.52866,1.98437 0.28207,0 0.3507,0.17703 0.23985,0.61868 -0.0896,0.35705 0.007,0.83258 0.22749,1.12448 0.21052,0.27819 0.38655,0.81865 0.39117,1.20101 0.005,0.38236 0.16075,0.82163 0.34693,0.97615 0.36848,0.30581 2.09652,0.3495 1.91037,0.0483 -0.34042,-0.55081 2.301174,-1.16539 3.505814,-0.81564 0.67162,0.195 0.85989,0.17071 0.85989,-0.11091 0,-0.19832 -0.23812,-0.43616 -0.52916,-0.52853 -0.29105,-0.0924 -0.52917,-0.27604 -0.52917,-0.40816 0,-0.13918 0.30599,-0.13104 0.7276,0.0194 0.67283,0.24004 0.68977,0.23019 0.22497,-0.13083 -0.34805,-0.27033 -0.8951,-0.35134 -1.77869,-0.26339 -1.51514,0.15083 -1.55384,-0.30459 -0.0927,-1.09145 0.53157,-0.28627 0.78299,-0.55953 0.61204,-0.66518 -0.15959,-0.0986 -0.20834,-0.3117 -0.10835,-0.47349 0.22854,-0.36978 1.01551,-0.38173 1.37633,-0.0209 0.37241,0.37241 1.15725,0.0327 1.39228,-0.60267 0.41993,-1.13518 0.036,-1.94669 -1.18705,-2.50937 -1.08352,-0.49847 -1.30963,-0.44956 -1.19773,0.2591 0.0172,0.10914 -0.14727,0.19843 -0.36555,0.19843 -0.58003,0 -0.48459,-0.61168 0.15806,-1.01302 0.30521,-0.1906 0.48948,-0.41201 0.40947,-0.49201 -0.08,-0.08 0.0367,-0.32763 0.25937,-0.55028 0.22265,-0.22265 0.34719,-0.6252 0.27675,-0.89454 -0.0905,-0.34607 0.0153,-0.48973 0.36072,-0.48973 0.6606,0 0.9253,-0.49178 0.37778,-0.70188 -0.25108,-0.0964 -0.54084,-0.0103 -0.67417,0.20031 -0.12861,0.2031 -0.23383,0.25022 -0.23383,0.1047 0,-0.14552 0.10957,-0.4378 0.24348,-0.6495 0.41518,-0.65632 -0.44462,-1.7274 -1.67932,-2.09196 -0.60919,-0.17987 -1.29571,-0.25486 -1.52559,-0.16665 -0.253714,0.0974 -0.483724,-0.0109 -0.585274,-0.27556 -0.23265,-0.60629 0.0217,-0.91738 0.750204,-0.91738 0.4565,0 0.69597,-0.21803 0.90825,-0.82696 0.15855,-0.45483 0.54034,-1.04559 0.84843,-1.31278 0.54603,-0.47358 0.59261,-0.46936 1.84896,0.16727 0.70884,0.3592 1.3805,0.6382 1.49255,0.61999 0.73411,-0.11926 1.19577,0.18085 2.0333,1.32179 0.56886,0.77494 0.94857,1.59677 0.94857,2.05302 0,0.45946 0.19804,0.88448 0.49999,1.07305 0.4022,0.25118 0.50505,0.6501 0.5259,2.03985 0.024,1.60177 0.0936,1.79729 0.95522,2.68452 1.08749,1.11981 1.2137,2.19505 0.40203,3.42505 -0.29928,0.45352 -0.45671,1.00572 -0.3673,1.28829 0.0861,0.27201 0.0357,0.74826 -0.11193,1.05834 -0.14763,0.31008 -0.33502,0.77214 -0.4164,1.0268 -0.17554,0.54925 -0.69376,0.6217 -0.69376,0.097 0,-0.35999 -1.1783,-0.74872 -1.44899,-0.47803 -0.34367,0.34367 -0.0722,1.07605 0.68664,1.85217 0.45383,0.46419 0.69195,0.84398 0.52916,0.84398 -0.16278,0 -0.29597,0.19317 -0.29597,0.42927 0,0.33954 0.078,0.36451 0.37331,0.11944 0.20533,-0.1704 0.43736,-0.20622 0.51562,-0.0796 0.0783,0.12663 -0.0948,0.43324 -0.38458,0.68136 -0.61713,0.5284 -0.45016,0.96468 0.37116,0.9698 0.99571,0.006 1.77032,0.30755 1.77032,0.6887 0,0.20131 0.11906,0.36602 0.26458,0.36602 0.14552,0 0.26459,-0.16508 0.26459,-0.36684 0,-0.43423 1.0408,-0.611 2.51354,-0.42691 0.91722,0.11465 1.05833,0.22049 1.05833,0.79375 0,0.57272 0.12423,0.66628 0.92604,0.69737 1.08203,0.042 2.84371,0.27846 4.43177,0.59497 0.88341,0.17606 1.12448,0.14664 1.12448,-0.13724 0,-0.19874 -0.20836,-0.37863 -0.46302,-0.39974 -1.60478,-0.13307 -2.40844,-0.21715 -3.10885,-0.32526 -0.43657,-0.0674 -0.89763,-0.1322 -1.02459,-0.14402 -0.12696,-0.0118 -0.0773,-0.20647 0.11032,-0.43256 0.25373,-0.30573 0.74268,-0.39116 1.90809,-0.3334 0.86182,0.0427 1.62046,0.16425 1.68588,0.2701 0.0654,0.10585 0.44174,0.13359 0.83628,0.0616 0.39454,-0.0719 0.88353,-0.0205 1.08663,0.11426 0.48717,0.32328 0.1739,1.13174 -0.35926,0.92715 -0.22379,-0.0859 -0.4069,-0.0243 -0.4069,0.13675 0,0.16109 0.1786,0.29289 0.39688,0.29289 0.60895,0 0.77744,-0.10032 0.83575,-0.4976 0.0945,-0.64352 0.61379,-0.99801 0.86548,-0.59077 0.12319,0.19933 0.35636,0.28061 0.51815,0.18061 0.16778,-0.10369 0.29416,-0.005 0.29416,0.23069 0,0.22687 0.12609,0.41249 0.2802,0.41249 0.15411,0 0.20661,0.11906 0.11668,0.26458 -0.0899,0.14552 -0.0245,0.26459 0.14536,0.26459 0.18963,0 0.25028,-0.23348 0.15709,-0.60477 -0.12172,-0.48497 -0.0357,-0.61526 0.43434,-0.6578 1.27378,-0.11526 2.42731,-0.0244 2.71434,0.21382 0.16595,0.13772 0.38869,0.16344 0.49498,0.0572 0.10629,-0.10629 0.75018,-0.20652 1.43086,-0.22273 0.68069,-0.0162 1.62466,-0.11629 2.09772,-0.2224 0.67839,-0.15215 0.89617,-0.099 1.03075,0.25173 0.23301,0.60722 -0.38671,0.96594 -1.41145,0.81701 -0.55549,-0.0807 -0.95789,0.0152 -1.17847,0.281 -0.28584,0.34441 -0.23975,0.39548 0.31435,0.34829 1.13332,-0.0965 1.48766,0.0189 0.84773,0.27611 -0.32742,0.13161 -0.59531,0.42172 -0.59531,0.64469 0,0.62762 0.66517,0.47857 1.04683,-0.23457 0.29212,-0.54583 0.52248,-0.63439 1.56606,-0.60206 1.11521,0.0345 1.60551,0.26706 1.61639,0.76654 0.002,0.10228 -0.57516,0.11737 -1.28309,0.0335 -0.89931,-0.10651 -1.35018,-0.0504 -1.49635,0.18606 -0.15982,0.25859 -0.0156,0.29978 0.61089,0.17448 0.67328,-0.13465 0.85076,-0.0674 0.99134,0.37551 0.19142,0.60311 -0.0688,1.03952 -0.35448,0.59442 -0.19921,-0.3104 -0.88685,-0.3057 -1.85039,0.0126 -0.36487,0.12056 -0.75565,0.0784 -0.97722,-0.10552 -0.20306,-0.16853 -1.06055,-0.32129 -1.90553,-0.33948 -0.8674,-0.0187 -1.68962,-0.18384 -1.88839,-0.37934 -0.19363,-0.19045 -0.49121,-0.26026 -0.6613,-0.15515 -0.42131,0.26039 -1.85755,0.0889 -2.06591,-0.24668 -0.0929,-0.14957 -0.2936,-0.19485 -0.44607,-0.10062 -0.15247,0.0942 -0.73133,0.0695 -1.28636,-0.0549 -1.23381,-0.27656 -1.67059,-0.15257 -1.67059,0.47424 0,0.52566 0.50056,0.80001 1.45963,0.80001 0.34242,0 0.94094,0.12103 1.33003,0.26896 0.58964,0.22419 0.65275,0.33487 0.37899,0.66473 -0.20152,0.24282 -0.44268,0.30618 -0.62407,0.16397 -0.16259,-0.12748 -0.47421,-0.23529 -0.6925,-0.23958 -1.42537,-0.028 -3.77709,-0.34321 -4.951,-0.6636 -0.7639,-0.20849 -1.30672,-0.25924 -1.21681,-0.11376 0.10528,0.17035 -0.33979,0.1938 -1.26671,0.0667 -0.78596,-0.10776 -1.66714,-0.22594 -1.95818,-0.26264 -0.29104,-0.0367 -0.82683,-0.15265 -1.19063,-0.25767 -0.48542,-0.14014 -0.55787,-0.11976 -0.27224,0.0766 0.79053,0.54338 -0.002,0.60754 -0.90709,0.0734 -0.84779,-0.50021 -0.93772,-0.50967 -0.94139,-0.099 -0.003,0.28146 -0.0779,0.34357 -0.19843,0.16339 -0.19284,-0.2884 -0.66652,-0.38239 -1.88678,-0.37441 -0.34873,0.002 -0.76545,-0.10309 -0.92604,-0.23415 -0.1803,-0.14714 -0.41422,-0.10548 -0.61154,0.10892 -0.5201,0.56511 0.21422,0.93976 1.88096,0.95967 0.81615,0.01 1.54775,0.12102 1.62577,0.24726 0.078,0.12624 0.72313,0.30664 1.43356,0.40088 1.03294,0.13703 1.26427,0.25782 1.15479,0.60298 -0.11448,0.36095 -0.0924,0.36874 0.13505,0.0476 0.28375,-0.40068 3.48213,-0.65067 3.48213,-0.27217 0,0.46897 -0.85217,0.83966 -1.65122,0.71827 -0.47428,-0.072 -1.04218,-0.0373 -1.26201,0.0773 -0.61711,0.32164 -1.83784,0.006 -1.66991,-0.43122 0.078,-0.20329 0.01,-0.36962 -0.15105,-0.36962 -0.16109,0 -0.29289,0.13464 -0.29289,0.2992 0,0.20125 -0.32484,0.24048 -0.99219,0.11984 -0.5457,-0.0986 -1.25759,-0.21665 -1.58196,-0.26221 -0.32438,-0.0456 -0.75754,-0.22208 -0.96258,-0.39224 -0.28526,-0.23675 -0.54188,-0.23236 -1.09285,0.0187 -0.61404,0.27977 -0.76779,0.2628 -1.04424,-0.11527 -0.24676,-0.33746 -0.3978,-0.36972 -0.63247,-0.13505 -0.23467,0.23467 -0.30829,0.23247 -0.30829,-0.009 0,-0.19394 -0.41121,-0.3175 -1.05668,-0.3175 -0.94335,0 -1.04702,0.0632 -0.96668,0.58969 0.10697,0.70094 1.15052,1.00487 3.34627,0.97456 2.0233,-0.0279 2.11667,-0.014 2.11667,0.31614 0,0.16109 -0.1786,0.22436 -0.39688,0.1406 -0.21828,-0.0838 -0.39687,-0.0132 -0.39687,0.1569 0,0.23126 -0.08,0.22917 -0.3175,-0.008 -0.40363,-0.40363 -0.76065,-0.40935 -0.67469,-0.0108 0.0365,0.16919 -0.23039,0.30473 -0.59531,0.30234 -0.91892,-0.006 -2.11667,-0.35757 -2.11667,-0.62126 0,-0.1207 -0.23812,-0.20152 -0.52916,-0.17959 -0.65437,0.0493 -0.65414,0.0548 0.0281,0.69043 0.30652,0.28556 0.47809,0.64739 0.38126,0.80405 -0.20796,0.33649 -1.45035,0.37165 -1.94948,0.0552 -0.19221,-0.12186 -0.81112,-0.13716 -1.37535,-0.034 -0.74989,0.13713 -1.062484,0.0923 -1.161884,-0.16678 -0.0748,-0.19491 -0.30704,-0.28874 -0.51611,-0.20851 -0.20907,0.0802 -0.45873,0.0187 -0.5548,-0.13675 -0.0961,-0.15544 -0.31647,-0.2808 -0.48979,-0.27857 -0.19416,0.002 -0.16278,0.11226 0.0818,0.28598 0.30078,0.21367 0.20532,0.23964 -0.39423,0.10727 -0.4351,-0.0961 -0.87977,-0.31406 -0.98814,-0.48443 -0.13866,-0.21799 -0.19823,-0.19679 -0.20108,0.0716 -0.003,0.27448 -0.10746,0.23989 -0.37313,-0.12344 -0.31792,-0.43478 -0.314,-0.54503 0.0283,-0.79534 0.33925,-0.24806 0.29783,-0.35582 -0.28307,-0.73644 -0.89368,-0.58556 -1.22826,-0.56287 -1.22826,0.0833 0,0.29104 0.16472,0.52916 0.36603,0.52916 0.20132,0 0.42293,0.29766 0.49248,0.66146 0.15501,0.81091 -0.37153,0.88385 -1.10263,0.15275 -0.4379,-0.43789 -0.53044,-0.4521 -0.66475,-0.10208 -0.10314,0.26877 -0.37919,0.36398 -0.81421,0.28082 -0.71431,-0.13655 -0.83489,0.0474 -0.34934,0.53296 0.23538,0.23538 0.20151,0.35001 -0.14243,0.48199 -0.62023,0.238 -2.61775,-0.10923 -2.87045,-0.49898 -0.15469,-0.23859 -0.2716,-0.21891 -0.4669,0.0786 -0.38822,0.59139 -0.32578,0.79375 0.24492,0.79375 0.28245,0 0.58714,0.11906 0.67707,0.26458 0.0899,0.14553 0.28259,0.26459 0.42811,0.26459 0.14552,0 0.191,-0.11906 0.10106,-0.26459 -0.17518,-0.28345 0.20349,-0.36977 0.46684,-0.10642 0.24232,0.24232 -0.0921,0.91771 -0.36952,0.74627 -0.49109,-0.30351 -4.29206,-0.36229 -4.6421,-0.0718 -0.25466,0.21135 -0.55975,0.20301 -1.12402,-0.0307 -0.42596,-0.17644 -1.02838,-0.24022 -1.33871,-0.14173 -0.31722,0.10069 -0.93386,0.009 -1.40856,-0.20854 -0.46439,-0.21319 -1.45936,-0.46432 -2.21104,-0.55807 -1.3561,-0.16915 -1.36805,-0.16427 -1.54237,0.62943 -0.19051,0.86737 -0.21274,0.8769 -1.19198,0.51088 z m 9.33386,-1.13685 c 0.23084,0.23085 2.04323,-0.13378 2.04323,-0.41107 0,-0.124 -0.38696,-0.2079 -0.8599,-0.18644 -0.79001,0.0358 -0.85553,-0.0224 -0.80619,-0.71706 0.0495,-0.69629 -0.003,-0.74221 -0.66146,-0.58075 -0.39334,0.0964 -1.60885,0.16164 -2.70113,0.14492 -1.09228,-0.0167 -2.5188,0.0893 -3.17005,0.23564 -0.96843,0.2176 -1.26752,0.19054 -1.6422,-0.14854 -0.25196,-0.22802 -0.64114,-0.34436 -0.86484,-0.25851 -0.22778,0.0874 -0.40932,0.0142 -0.41262,-0.16635 -0.003,-0.17733 -0.23297,-0.0269 -0.51053,0.33437 -0.31739,0.41308 -0.41573,0.76395 -0.265,0.94557 0.14692,0.17703 0.11924,0.40918 -0.0716,0.59997 -0.17116,0.17116 -0.21122,0.31121 -0.089,0.31121 0.1222,0 0.36059,-0.18929 0.52975,-0.42063 0.33803,-0.46228 2.07644,-0.58361 4.11639,-0.28729 0.65485,0.0951 1.9486,0.22777 2.87501,0.29478 1.82147,0.13175 2.33702,0.34512 1.41589,0.586 -0.31943,0.0835 -0.51003,0.26636 -0.42355,0.40628 0.0873,0.14124 0.41834,0.009 0.74426,-0.29708 0.32286,-0.30332 0.66194,-0.47658 0.7535,-0.38502 z m -3.11615,0.36754 c -0.0899,-0.14552 -0.27556,-0.26458 -0.41249,-0.26458 -0.13693,0 -0.24897,0.11906 -0.24897,0.26458 0,0.14552 0.18562,0.26458 0.41249,0.26458 0.22687,0 0.33891,-0.11906 0.24897,-0.26458 z m -5.15937,-0.23628 c 0,-0.12995 -0.1786,-0.30481 -0.39688,-0.38857 -0.4033,-0.15476 -0.54186,0.12708 -0.22049,0.44846 0.25287,0.25286 0.61737,0.2175 0.61737,-0.0599 z m 25.328344,-0.71732 c -0.0879,-0.0879 -0.31612,-0.0973 -0.50712,-0.0209 -0.21107,0.0845 -0.14837,0.14715 0.15985,0.15985 0.27892,0.0115 0.43519,-0.051 0.34727,-0.13897 z m -1.71303,-1.03323 c -0.16893,-0.30187 -0.66936,-0.46185 -1.60183,-0.51208 -0.745874,-0.0402 -1.647244,-0.2638 -2.003034,-0.49692 -0.5947,-0.38966 -0.66026,-0.38901 -0.81263,0.008 -0.20692,0.53921 0.27542,0.86058 1.30738,0.87107 0.43657,0.004 1.329534,0.17059 1.984384,0.36923 1.34444,0.40782 1.47266,0.38055 1.12573,-0.23936 z m -10.386154,0.12098 c 0,-0.15309 0.35719,-0.40286 0.79375,-0.55505 0.86962,-0.30315 1.01338,-0.61321 0.39442,-0.85072 -0.21963,-0.0843 -0.36846,-0.30538 -0.33073,-0.49133 0.0674,-0.33236 -0.0434,-0.33914 -2.35206,-0.14395 -0.99709,0.0843 -0.91667,0.36056 0.17474,0.60027 0.43489,0.0955 0.78889,0.25351 0.78666,0.35109 -0.007,0.28774 -0.4377,0.88598 -0.62084,0.86147 -0.71779,-0.0961 -0.9371,0.0802 -0.30115,0.24199 1.17147,0.29808 1.45521,0.2954 1.45521,-0.0138 z M 115.7827,132.8947 c 0,-0.0642 -0.11907,-0.19026 -0.26459,-0.2802 -0.14552,-0.0899 -0.26458,-0.0374 -0.26458,0.11668 0,0.15411 0.11906,0.2802 0.26458,0.2802 0.14552,0 0.26459,-0.0525 0.26459,-0.11668 z m -15.34584,-0.36839 c 0,-0.34451 -0.31453,-0.57363 -0.570384,-0.4155 -0.27364,0.16912 -0.0377,0.63598 0.321414,0.63598 0.13694,0 0.24897,-0.0992 0.24897,-0.22048 z m -1.243894,-0.74896 c -0.10872,-0.28332 -0.0651,-0.37611 0.12231,-0.26027 0.1602,0.099 0.36605,0.059 0.45746,-0.0889 0.18507,-0.29946 -0.14158,-0.34924 -0.75274,-0.11471 -0.40469,0.15529 -0.31032,0.90414 0.11395,0.90414 0.12538,0 0.15194,-0.19812 0.059,-0.44028 z m -16.88007,-0.0889 c 0.21163,-0.34243 1.8746,-0.34195 2.51488,7.1e-4 0.77877,0.41679 0.82968,-0.0792 0.15232,-1.48403 -0.34337,-0.71215 -0.83446,-1.80151 -1.09131,-2.42081 -0.61258,-1.477 -1.03846,-1.83047 -1.56775,-1.30118 -0.22192,0.22192 -0.33888,0.57185 -0.25992,0.77763 0.079,0.20578 -0.0391,0.52578 -0.26243,0.7111 -0.2233,0.18532 -0.34062,0.44275 -0.2607,0.57205 0.19795,0.32029 -1.00176,0.74771 -1.91814,0.68339 -0.67836,-0.0476 -0.75384,0.0351 -0.82664,0.90605 l -0.0801,0.95846 1.53531,0.39472 c 0.84443,0.2171 1.61759,0.41087 1.71814,0.43061 0.10055,0.0197 0.25641,-0.0832 0.34634,-0.2287 z m 5.0936,-0.59709 c -0.45855,-0.69982 -0.53118,-2.84057 -0.0966,-2.84655 0.21228,-0.003 0.21358,-0.0584 0.005,-0.19844 -0.15949,-0.10691 -0.37019,-0.52206 -0.46821,-0.92256 -0.21641,-0.88426 0.54051,-3.37286 1.02587,-3.37286 0.30254,0 0.44582,-1.14909 0.43345,-3.47608 -0.002,-0.30232 0.15642,-0.39186 0.52258,-0.2961 0.3363,0.088 0.50919,0.33871 0.4812,0.69795 -0.10169,1.3052 0.0309,1.3325 1.10367,0.22724 1.22493,-1.26202 1.56098,-1.3325 2.95785,-0.62034 1.18362,0.60345 1.49305,0.3185 0.58718,-0.54073 -0.36075,-0.34218 -0.65797,-0.71643 -0.66049,-0.83165 -0.007,-0.30287 -0.86636,-1.1531 -1.30437,-1.28993 -0.20556,-0.0642 -0.40347,-0.31923 -0.43979,-0.56669 -0.0368,-0.25096 0.0538,-0.37589 0.2049,-0.28249 0.14902,0.0921 0.37487,0.003 0.50189,-0.19718 0.34582,-0.54599 0.28613,-0.83618 -0.13848,-0.67325 -0.20764,0.0797 -0.52623,-0.0343 -0.70797,-0.25328 -0.21633,-0.26066 -0.55876,-0.34085 -0.99159,-0.23222 -0.57683,0.14478 -0.61738,0.1132 -0.31797,-0.24757 0.41277,-0.49735 2.28797,-0.55961 2.49357,-0.0828 0.0784,0.1819 0.11445,0.0209 0.08,-0.35778 -0.077,-0.84774 -0.93044,-1.79172 -1.21036,-1.3388 -0.35841,0.57992 -1.07204,-0.26209 -0.80451,-0.94926 0.12747,-0.32742 0.35466,-0.59531 0.50487,-0.59531 0.52545,0 0.26651,-0.84106 -0.49269,-1.60026 -0.4815,-0.48149 -1.16909,-0.83029 -1.85209,-0.9395 -0.59745,-0.0955 -1.08628,-0.3215 -1.08628,-0.50214 0,-0.41086 1.87985,-0.74034 2.22943,-0.39076 0.32559,0.32559 0.68099,0.33257 0.68099,0.0134 0,-0.42987 -1.33677,-1.85023 -2.06958,-2.19898 -0.3897,-0.18546 -0.82268,-0.59669 -0.96218,-0.91384 -0.24365,-0.5539 -1.78085,-1.14081 -2.98796,-1.14081 -1.28448,0 -1.85445,1.41331 -1.12195,2.78202 0.1956,0.36548 0.24658,0.82012 0.12364,1.10273 -0.22128,0.50868 -0.2033,1.019 0.0589,1.6715 0.0877,0.21828 0.20466,0.63335 0.25989,0.92238 0.0552,0.28903 0.39077,0.76528 0.74564,1.05833 0.72851,0.60162 1.29784,1.89084 0.93424,2.11556 -0.41074,0.25386 -0.22172,1.83731 0.27638,2.31532 0.42225,0.40521 0.46233,0.80478 0.34498,3.43958 -0.18527,4.15975 -0.20116,4.25755 -0.83665,5.15002 -0.85588,1.20197 -0.99297,2.68451 -0.33769,3.65193 0.2957,0.43656 0.68818,1.03137 0.87218,1.32178 0.99999,1.57835 1.32269,1.98551 1.57362,1.98551 0.15919,0 0.11061,-0.25393 -0.11423,-0.59708 z m 0.84433,-11.86673 c -0.21299,-0.39797 -0.21691,-0.63907 -0.0137,-0.84226 0.35409,-0.35409 0.46721,-0.24498 0.69755,0.67277 0.2194,0.87413 -0.2451,0.98926 -0.68383,0.16949 z m 9.91968,11.40548 c 0.7321,0 0.94344,-0.10668 0.94344,-0.47625 0,-0.26193 -0.10345,-0.58936 -0.22988,-0.7276 -0.20998,-0.22961 -0.072,-1.97269 0.37621,-4.75328 l 0.17126,-1.06235 -1.21713,0.0968 c -1.41304,0.11238 -1.58257,0.46286 -0.37523,0.77571 1.10629,0.28667 1.3951,0.98189 0.30878,0.7433 -0.45943,-0.10091 -0.9459,-0.0329 -1.22005,0.17053 -0.4826,0.35813 -1.08615,2.85189 -0.69022,2.85189 0.12673,0 0.23042,0.23813 0.23042,0.52917 0,0.36173 -0.17639,0.52916 -0.55747,0.52916 -0.38826,0 -0.51098,-0.12116 -0.4043,-0.39917 0.17809,-0.4641 -0.24159,-1.71749 -0.57508,-1.71749 -0.39498,0 -0.44744,2.61946 -0.0602,3.00668 0.54231,0.54231 1.48683,0.86617 1.9104,0.65503 0.24509,-0.12217 0.87017,-0.22213 1.38906,-0.22213 z m -0.37948,-4.7625 c 0,-0.14552 0.11906,-0.26458 0.26458,-0.26458 0.14552,0 0.26459,0.11906 0.26459,0.26458 0,0.14553 -0.11907,0.26459 -0.26459,0.26459 -0.14552,0 -0.26458,-0.11906 -0.26458,-0.26459 z m 8.995834,4.8213 c 0,-0.11318 -0.23384,-0.406 -0.51964,-0.65071 -0.47367,-0.40556 -0.58485,-0.40873 -1.25677,-0.0358 l -0.73713,0.40909 0.74977,-0.16586 c 0.45408,-0.10044 0.68758,-0.0652 0.59208,0.0893 -0.0867,0.14034 0.0521,0.3099 0.30856,0.37679 0.75468,0.19686 0.86313,0.194 0.86313,-0.0228 z m -13.675874,-0.32338 c 0.0696,-0.0728 0.20489,-0.7276 0.30065,-1.45521 0.22534,-1.71211 0.43226,-2.57989 0.69588,-2.91846 0.13424,-0.17239 -0.0335,-0.26187 -0.45612,-0.24337 -0.36762,0.0161 -0.74745,0.13878 -0.84407,0.27263 -0.0966,0.13385 -0.52608,0.28124 -0.95434,0.32753 -0.88445,0.0956 -1.85237,0.548 -1.6358,0.76457 0.0794,0.0794 -0.0127,0.45673 -0.2046,0.83846 -0.19195,0.38173 -0.416,1.12924 -0.4979,1.66113 l -0.14891,0.96708 1.80934,-0.041 c 0.99513,-0.0226 1.86627,-0.10057 1.93587,-0.17333 z m 26.008094,0.0732 c -0.25622,-0.25622 -3.81744,-1.10642 -4.69305,-1.12042 -0.38236,-0.006 -0.84566,-0.19239 -1.02954,-0.41395 -0.19301,-0.23257 -0.54223,-0.33687 -0.82615,-0.24676 -0.29033,0.0922 -0.49181,0.0278 -0.49181,-0.15717 0,-0.18045 -0.21899,-0.25601 -0.51648,-0.17821 -0.28407,0.0743 -0.55196,0.0303 -0.59531,-0.0978 -0.0444,-0.13108 -0.8304,-0.11093 -1.79863,0.0461 -0.94588,0.15341 -2.05242,0.28909 -2.45898,0.3015 -0.52662,0.0161 -0.71587,0.14361 -0.65813,0.44346 0.0658,0.34161 0.7782,0.48233 3.7819,0.74702 2.03546,0.17937 4.59381,0.43251 5.68521,0.56253 2.60759,0.31063 3.83675,0.34943 3.60097,0.11365 z m -18.02076,-0.33777 c 0.0899,-0.14552 0.0445,-0.26458 -0.10106,-0.26458 -0.14552,0 -0.33817,0.11906 -0.42811,0.26458 -0.0899,0.14552 -0.0445,0.26458 0.10107,0.26458 0.14552,0 0.33816,-0.11906 0.4281,-0.26458 z m 30.43903,-0.47312 c -0.17792,-0.17793 -1.45511,0.27855 -1.33286,0.47637 0.0719,0.11626 0.41955,0.075 0.77265,-0.0916 0.3531,-0.16664 0.6052,-0.33979 0.56021,-0.38478 z m -53.938504,-0.10566 c -0.0845,-0.21106 -0.14715,-0.14837 -0.15985,0.15986 -0.0115,0.27891 0.0511,0.43518 0.13897,0.34726 0.0879,-0.0879 0.0973,-0.31612 0.0209,-0.50712 z m 26.013014,0.3142 c 0.32093,-0.2074 0.28296,-0.25726 -0.19844,-0.26054 -0.32742,-0.002 -0.59531,0.11501 -0.59531,0.26054 0,0.3315 0.28079,0.3315 0.79375,0 z m 21.16667,-0.92605 c 0,-0.3638 -0.0498,-0.66145 -0.11065,-0.66145 -0.0609,0 -0.32875,-0.0771 -0.59532,-0.17124 -0.39653,-0.14009 -0.42452,-0.10642 -0.15393,0.18521 0.1819,0.19604 0.33073,0.57075 0.33073,0.83269 0,0.26194 0.11906,0.47625 0.26458,0.47625 0.14553,0 0.26459,-0.29765 0.26459,-0.66146 z m -20.70916,0.23703 c -0.0879,-0.0879 -0.31612,-0.0973 -0.50712,-0.0209 -0.21106,0.0845 -0.14837,0.14715 0.15986,0.15985 0.27891,0.0115 0.43518,-0.051 0.34726,-0.13897 z m 23.61957,-0.36932 c 0.33917,-0.21919 0.32956,-0.25707 -0.0661,-0.26053 -0.25466,-0.002 -0.46302,-0.12311 -0.46302,-0.26863 0,-0.14553 -0.13364,-0.26459 -0.29698,-0.26459 -0.21845,0 -0.21905,0.0939 -0.002,0.35508 0.16208,0.19529 0.21635,0.43341 0.12059,0.52916 -0.2664,0.2664 0.25967,0.19915 0.70785,-0.0905 z m -47.432074,-0.15985 c -0.0879,-0.0879 -0.31612,-0.0973 -0.50712,-0.0209 -0.21106,0.0845 -0.14837,0.14716 0.15986,0.15985 0.27891,0.0115 0.43518,-0.0511 0.34726,-0.13896 z m 36.319584,0.0559 c 0,-0.0572 -0.18478,-0.17489 -0.41062,-0.26155 -0.23546,-0.0904 -0.34166,-0.046 -0.24897,0.10398 0.15538,0.25141 0.65959,0.37186 0.65959,0.15757 z m 12.69999,-0.1606 c 0,-0.14552 -0.17859,-0.26458 -0.39687,-0.26458 -0.21828,0 -0.39688,0.11906 -0.39688,0.26458 0,0.14552 0.1786,0.26458 0.39688,0.26458 0.21828,0 0.39687,-0.11906 0.39687,-0.26458 z m 1.19063,0 c 0.0899,-0.14552 -0.0221,-0.26458 -0.24897,-0.26458 -0.22687,0 -0.41249,0.11906 -0.41249,0.26458 0,0.14552 0.11204,0.26458 0.24897,0.26458 0.13693,0 0.32255,-0.11906 0.41249,-0.26458 z m -41.671874,-0.26458 c 0,-0.14552 -0.12609,-0.26459 -0.2802,-0.26459 -0.15411,0 -0.20662,0.11907 -0.11668,0.26459 0.0899,0.14552 0.21603,0.26458 0.2802,0.26458 0.0642,0 0.11668,-0.11906 0.11668,-0.26458 z m 15.482684,-0.007 c 0.0957,-0.1549 0.66008,-0.2129 1.31116,-0.13474 1.38277,0.16598 1.82282,-0.3974 0.71368,-0.91369 -0.38857,-0.18087 -0.91323,-0.43403 -1.16591,-0.56257 -0.25269,-0.12854 -0.8055,-0.23372 -1.22847,-0.23372 -0.4807,0 -0.84315,-0.17359 -0.96674,-0.46302 -0.16155,-0.37833 -0.23332,-0.31784 -0.39245,0.33073 -0.10711,0.43657 -0.28226,1.00346 -0.38922,1.25977 -0.14331,0.3434 -0.0935,0.42726 0.18946,0.31869 0.21117,-0.081 0.53666,0.0367 0.72331,0.26159 0.38952,0.46933 0.95971,0.53413 1.20518,0.13696 z m -24.344784,-0.35785 c 0.47907,-0.3503 0.46644,-0.39823 -0.30967,-1.17434 -0.99793,-0.99792 -1.4603,-0.72049 -1.03956,0.62375 0.31229,0.99774 0.58533,1.10917 1.34923,0.55059 z m 31.014134,-0.60615 c 0.0656,-0.19714 -0.0949,-0.25812 -0.44109,-0.16758 -0.29935,0.0783 -0.54428,0.25624 -0.54428,0.39546 0,0.35126 0.85867,0.15268 0.98537,-0.22788 z m 4.04172,0.0453 c 0,-0.50083 -0.2872,-0.50339 -0.94162,-0.008 -0.49194,0.37208 -0.48292,0.38882 0.21401,0.39688 0.47411,0.005 0.72761,-0.12986 0.72761,-0.38847 z m -34.131254,-0.39688 c 0,-0.14552 -0.12609,-0.26458 -0.2802,-0.26458 -0.15411,0 -0.20662,0.11906 -0.11668,0.26458 0.0899,0.14552 0.21603,0.26459 0.2802,0.26459 0.0642,0 0.11668,-0.11906 0.11668,-0.26459 z m 23.547914,-1.19062 c 0.35753,-0.4308 0.27201,-0.48465 -0.37523,-0.23628 -0.23019,0.0883 -0.41852,0.26693 -0.41852,0.39688 0,0.36598 0.42872,0.27924 0.79375,-0.1606 z m 2.64584,0.27389 c 0,-0.0676 -0.2679,-0.2528 -0.59532,-0.41147 -0.57166,-0.27703 -0.57491,-0.27214 -0.0817,0.12298 0.53982,0.43249 0.67704,0.49096 0.67704,0.28849 z m -14.369374,-0.81628 c 0.39219,-0.39145 0.14626,-1.44199 -0.33756,-1.44199 -0.20549,0 -0.29441,-0.16497 -0.20896,-0.38765 0.23232,-0.6054 -1.66108,-0.36381 -2.14317,0.27346 -0.59692,0.78908 -0.46898,1.26659 0.46242,1.72578 0.88359,0.43563 1.6818,0.37484 2.22727,-0.1696 z m 8.611664,-0.52446 c -0.0746,-0.39006 0.0774,-1.06863 0.35461,-1.58337 0.535,-0.99343 0.42221,-1.32054 -0.36877,-1.06949 -0.44972,0.14274 -0.50994,0.3697 -0.44516,1.67781 0.0981,1.98018 0.0948,1.96362 0.36071,1.79925 0.126,-0.0779 0.17038,-0.44877 0.0986,-0.8242 z m -18.949284,0.0148 c 0.29977,-0.29977 0.32398,-0.51515 0.10408,-0.92604 -0.31553,-0.58956 -0.48757,-0.63959 -1.02618,-0.29837 -0.22048,0.13968 -0.63311,0.0872 -1.05833,-0.13471 -0.38333,-0.20001 -0.90532,-0.36439 -1.15998,-0.36529 -0.25466,-8.9e-4 -0.46302,-0.12069 -0.46302,-0.26621 0,-0.14552 -0.12133,-0.26458 -0.26962,-0.26458 -0.30745,0 -0.0664,1.27191 0.3385,1.78594 0.14327,0.1819 0.71514,0.33072 1.27082,0.33072 0.55567,0 1.0839,0.11907 1.17384,0.26459 0.23167,0.37484 0.63573,0.32811 1.08989,-0.12605 z m 1.57484,0.0126 c 0.41648,-0.41647 0.50365,-0.94494 0.15587,-0.94494 -0.12217,0 -0.35774,0.29766 -0.5235,0.66146 -0.33776,0.74131 -0.19798,0.8491 0.36763,0.28348 z m 24.058194,-0.15119 c -0.0899,-0.14552 -0.28259,-0.26458 -0.42811,-0.26458 -0.14552,0 -0.191,0.11906 -0.10106,0.26458 0.0899,0.14552 0.28258,0.26459 0.42811,0.26459 0.14552,0 0.19099,-0.11907 0.10106,-0.26459 z m -14.276624,-0.51156 c -0.0959,-0.1552 -0.29113,-0.28219 -0.4338,-0.28219 -0.14267,0 -0.10588,0.16659 0.0818,0.37019 0.37985,0.41217 0.62352,0.35126 0.35204,-0.088 z m 11.052874,-0.32821 c 0.56882,-0.30571 0.56577,-0.31386 -0.19317,-0.51791 -0.87137,-0.23427 -1.21329,-0.10823 -1.21329,0.44726 0,0.46145 0.62126,0.49266 1.40646,0.0707 z m 2.95916,-0.21856 c 0.0899,-0.14552 -0.0816,-0.26458 -0.38126,-0.26458 -0.29963,0 -0.54478,0.11906 -0.54478,0.26458 0,0.14552 0.17157,0.26458 0.38126,0.26458 0.2097,0 0.45485,-0.11906 0.54478,-0.26458 z m -12.018694,-0.6019 c -0.0327,-0.31636 -0.39563,-0.25509 -0.50933,0.086 -0.0582,0.17462 0.037,0.26987 0.21167,0.21167 0.17462,-0.0582 0.30857,-0.19216 0.29766,-0.29766 z m -3.06256,-0.72099 c -0.0899,-0.14552 -0.28258,-0.26458 -0.4281,-0.26458 -0.14552,0 -0.191,0.11906 -0.10106,0.26458 0.0899,0.14552 0.28258,0.26458 0.4281,0.26458 0.14552,0 0.191,-0.11906 0.10106,-0.26458 z m 13.779274,-0.94291 c -0.22756,-0.22756 -0.53567,-0.3384 -0.68468,-0.2463 -0.40034,0.24742 -0.0465,0.66004 0.56597,0.66004 0.48294,0 0.49398,-0.0385 0.11871,-0.41374 z m 3.02178,-0.91748 c 0,-0.15008 -0.1786,-0.34142 -0.39688,-0.42518 -0.21828,-0.0838 -0.39763,-0.28838 -0.39855,-0.45472 -0.002,-0.38154 -1.46594,-1.22846 -2.12329,-1.22846 -0.27201,0 -0.61593,-0.20836 -0.76426,-0.46302 -0.14967,-0.25697 -0.27326,-0.31584 -0.27773,-0.13229 -0.004,0.1819 -0.18664,0.33073 -0.40492,0.33073 -0.21828,0 -0.39687,0.11906 -0.39687,0.26458 0,0.14552 0.11906,0.26458 0.26458,0.26458 0.14552,0 0.26458,0.17441 0.26458,0.38757 0,0.4981 0.96193,1.04081 1.19018,0.67148 0.23052,-0.37298 1.12303,-0.33055 1.37636,0.0654 0.22191,0.34687 1.12872,0.95 1.46836,0.97663 0.10914,0.009 0.19844,-0.10724 0.19844,-0.25733 z m -4.23334,-0.0957 c 0,-0.0572 -0.17859,-0.17251 -0.39687,-0.25628 -0.21828,-0.0838 -0.39688,-0.037 -0.39688,0.10399 0,0.14095 0.1786,0.25628 0.39688,0.25628 0.21828,0 0.39687,-0.0468 0.39687,-0.10399 z m -0.92604,-1.21893 c -0.0899,-0.14552 -0.36485,-0.25621 -0.61093,-0.24599 -0.36472,0.0152 -0.34962,0.0606 0.0818,0.24599 0.70801,0.30424 0.7172,0.30424 0.52917,0 z m 5.68854,-1.22302 c 0,-0.35158 -0.0718,-0.36966 -0.39687,-0.0999 -0.21828,0.18116 -0.39688,0.37433 -0.39688,0.42927 0,0.0549 0.1786,0.0999 0.39688,0.0999 0.21828,0 0.39687,-0.19317 0.39687,-0.42927 z m -1.5875,-1.44252 c 0,-0.27749 -0.98953,-0.47791 -1.5875,-0.32154 -0.7592,0.19854 -0.65205,0.78305 0.19844,1.08251 0.56703,0.19966 0.80059,0.16417 1.05833,-0.16081 0.1819,-0.22936 0.33073,-0.49943 0.33073,-0.60016 z m -1.32291,0.0197 c 0,-0.14552 0.11203,-0.26459 0.24896,-0.26459 0.13694,0 0.32256,0.11907 0.41249,0.26459 0.0899,0.14552 -0.0221,0.26458 -0.24896,0.26458 -0.22687,0 -0.41249,-0.11906 -0.41249,-0.26458 z m -21.431254,0.69231 c 0,-0.0558 -0.23813,-0.1637 -0.52917,-0.23981 -0.29104,-0.0761 -0.52917,-0.0305 -0.52917,0.10143 0,0.1319 0.23813,0.23982 0.52917,0.23982 0.29104,0 0.52917,-0.0457 0.52917,-0.10144 z m 22.621874,-2.01523 c -0.0899,-0.14552 -0.28258,-0.26458 -0.4281,-0.26458 -0.14553,0 -0.191,0.11906 -0.10107,0.26458 0.0899,0.14552 0.28259,0.26458 0.42811,0.26458 0.14552,0 0.191,-0.11906 0.10106,-0.26458 z m -1.88516,-1.53399 c 0.18531,-0.29983 -0.13445,-0.71692 -0.83074,-1.08364 -0.49485,-0.26062 -0.62676,-0.24389 -0.75721,0.0961 -0.29896,0.77907 1.15714,1.68467 1.58795,0.98759 z m 1.74445,-1.0457 c -0.0152,-0.35864 -0.70508,-1.12448 -1.01294,-1.12448 -0.45576,0 -0.36143,0.55767 0.16146,0.95461 0.5223,0.39648 0.86398,0.46464 0.85148,0.16987 z m -1.80145,-1.54983 c -0.0495,-0.27538 -0.15143,-0.94806 -0.22641,-1.49485 -0.16442,-1.19884 -1.42851,-2.71126 -1.88477,-2.255 -0.21537,0.21537 -0.45807,0.21647 -0.89896,0.004 -0.58768,-0.28312 -0.58257,-0.29201 0.1898,-0.32976 0.43656,-0.0213 0.61516,-0.10262 0.39688,-0.18063 -0.21829,-0.078 -0.54199,-0.32441 -0.71934,-0.54754 -0.26375,-0.33184 -0.39622,-0.34448 -0.7276,-0.0695 -0.67839,0.56301 -0.45862,1.22076 0.669,2.0022 0.59078,0.40941 1.19918,0.99115 1.35199,1.29275 0.97242,1.91921 2.08094,2.86518 1.84941,1.57823 z m -13.431564,-1.53628 c -0.17037,-0.44398 -0.52397,-0.55272 -0.71918,-0.22118 -0.0643,0.10914 -0.004,0.49609 0.13386,0.8599 0.21824,0.57582 0.28278,0.60445 0.49852,0.22117 0.1363,-0.24215 0.17536,-0.62911 0.0868,-0.85989 z m -11.26635,-0.88264 c -0.0932,-0.48886 -1.27347,-0.82463 -1.27347,-0.36228 0,0.27252 0.74165,0.8024 1.14388,0.81726 0.11981,0.004 0.17812,-0.20032 0.12959,-0.45498 z m 17.24736,-5.35781 c 0,-0.14552 -0.11203,-0.26458 -0.24897,-0.26458 -0.13693,0 -0.32255,0.11906 -0.41249,0.26458 -0.0899,0.14552 0.0221,0.26458 0.24897,0.26458 0.22687,0 0.41249,-0.11906 0.41249,-0.26458 z m -4.49791,-0.26458 c 0,-0.14552 -0.11907,-0.26459 -0.26459,-0.26459 -0.14552,0 -0.26458,0.11907 -0.26458,0.26459 0,0.14552 0.11906,0.26458 0.26458,0.26458 0.14552,0 0.26459,-0.11906 0.26459,-0.26458 z m -29.86752,29.9223 c -0.29385,-0.1861 -0.25771,-0.2903 0.18238,-0.52583 0.57843,-0.30957 1.02183,0.002 0.71326,0.50144 -0.19928,0.32244 -0.41572,0.32833 -0.89564,0.0244 z m 2.61543,-0.21731 c -1.08037,-0.3092 -1.14482,-0.35559 -0.87243,-0.62797 0.34416,-0.34417 6.30484,-0.77922 7.45452,-0.54408 1.25618,0.25691 1.0112,0.69379 -0.43122,0.76902 -0.69084,0.036 -1.61326,0.0988 -2.04983,0.13951 -0.43656,0.0407 -0.87397,-0.0407 -0.97202,-0.18079 -0.11369,-0.16249 -0.30537,-0.16302 -0.52916,-10e-4 -0.193,0.13933 -0.70809,0.23701 -1.14465,0.21708 -0.43656,-0.0199 -0.85328,0.0489 -0.92604,0.15302 -0.0728,0.10408 -0.31089,0.13813 -0.52917,0.0757 z m 78.485574,-1.79145 c 0.0838,-0.21828 0.0205,-0.39688 -0.14059,-0.39688 -0.16109,0 -0.2929,0.11906 -0.2929,0.26459 0,0.37977 -1.67905,0.32694 -2.10256,-0.0662 -0.28505,-0.26459 -0.31897,-0.26459 -0.16959,0 0.10269,0.1819 0.0606,0.33072 -0.0935,0.33072 -0.15411,0 -0.2802,-0.10518 -0.2802,-0.23373 0,-0.35495 -1.387,-0.54433 -1.91541,-0.26154 -0.3078,0.16473 -0.46584,0.15468 -0.46584,-0.0296 0,-0.16541 -0.2692,-0.21137 -0.66146,-0.11292 -0.37958,0.0953 -0.66146,0.0518 -0.66146,-0.10207 0,-0.1562 -0.41411,-0.21458 -0.99218,-0.13989 -0.80345,0.10382 -1.05553,0.0235 -1.32516,-0.42205 -0.30184,-0.4988 -0.27169,-0.55025 0.32242,-0.55025 0.50454,0 0.62112,0.10657 0.50645,0.46302 -0.1252,0.3892 -0.10422,0.39974 0.13158,0.0661 0.21679,-0.3067 0.74499,-0.37965 2.32459,-0.32107 1.12424,0.0417 2.18926,0.1963 2.36671,0.34357 0.21885,0.18163 0.37867,0.17713 0.49678,-0.014 0.0958,-0.15496 0.31036,-0.19755 0.47687,-0.0946 0.1665,0.10291 0.72382,0.22636 1.23848,0.27435 1.08636,0.10128 2.39096,0.57811 2.39096,0.87389 0,0.20812 -0.64714,0.52538 -1.07166,0.52538 -0.12906,0 -0.16611,-0.1786 -0.0823,-0.39688 z M 115.7827,127.1909 c 0,-0.14552 0.11203,-0.26458 0.24896,-0.26458 0.13694,0 0.32256,0.11906 0.41249,0.26458 0.0899,0.14552 -0.0221,0.26459 -0.24897,0.26459 -0.22686,0 -0.41248,-0.11907 -0.41248,-0.26459 z M 99.205246,112.7597 c -0.0862,-0.22456 -0.10638,-0.45858 -0.0449,-0.52005 0.27286,-0.27286 2.148544,-0.33032 3.010834,-0.0922 0.75917,0.20962 0.88779,0.33348 0.64726,0.62331 -0.30202,0.36391 -1.38908,0.45326 -1.1683,0.096 0.24097,-0.38989 -0.37127,-0.47259 -0.68652,-0.0927 -0.42795,0.51564 -1.558534,0.50643 -1.758364,-0.0143 z"
       id="path3" />
  </g>
</svg>
