<?xml version="1.0" encoding="UTF-8" standalone="no"?>
<!-- Created with Inkscape (http://www.inkscape.org/) -->

<svg
   width="58.333973mm"
   height="40.690155mm"
   viewBox="0 0 58.333973 40.690146"
   version="1.1"
   id="svg1"
   inkscape:version="1.4.1-rc (06eac75fbf, 2025-03-29)"
   sodipodi:docname="threetrees2.svg"
   xmlns:inkscape="http://www.inkscape.org/namespaces/inkscape"
   xmlns:sodipodi="http://sodipodi.sourceforge.net/DTD/sodipodi-0.dtd"
   xmlns="http://www.w3.org/2000/svg"
   xmlns:svg="http://www.w3.org/2000/svg">
  <sodipodi:namedview
     id="namedview1"
     pagecolor="#ffffff"
     bordercolor="#000000"
     borderopacity="0.25"
     inkscape:showpageshadow="2"
     inkscape:pageopacity="0.0"
     inkscape:pagecheckerboard="0"
     inkscape:deskcolor="#d1d1d1"
     inkscape:document-units="mm"
     inkscape:zoom="0.72248176"
     inkscape:cx="110.72944"
     inkscape:cy="76.818548"
     inkscape:window-width="1850"
     inkscape:window-height="1016"
     inkscape:window-x="0"
     inkscape:window-y="0"
     inkscape:window-maximized="1"
     inkscape:current-layer="layer1" />
  <defs
     id="defs1" />
  <g
     inkscape:label="Layer 1"
     inkscape:groupmode="layer"
     id="layer1"
     transform="translate(-76.200011,-98.955425)">
    <path
       style="fill:#000000"
       d="m 76.675966,139.48845 c -0.447597,-0.0875 -0.667246,-0.81441 -0.264583,-0.87561 0.10914,-0.0166 0.547532,-0.0707 0.974203,-0.12015 0.426671,-0.0495 1.109621,-0.22826 1.517666,-0.39728 0.408044,-0.16901 1.116674,-0.2523 1.574733,-0.18507 0.649072,0.0953 0.861022,0.0144 0.960589,-0.36631 0.104256,-0.39866 0.389756,-0.48853 1.552105,-0.48853 0.783392,0 1.42435,-0.11906 1.42435,-0.26458 0,-0.14552 0.245152,-0.26458 0.544781,-0.26458 0.29963,0 0.481483,0.10242 0.404118,0.2276 -0.07737,0.12518 0.689514,0.24855 1.704176,0.27416 1.79464,0.0453 1.844842,0.0289 1.844842,-0.60243 0,-0.35694 -0.135284,-0.69408 -0.300631,-0.74919 -0.217734,-0.0726 -0.207437,-0.24944 0.03735,-0.6414 0.509717,-0.81619 0.121907,-2.24298 -0.931162,-3.42585 -0.989594,-1.11157 -1.301361,-2.13738 -1.145694,-3.7697 l 0.09781,-1.0256 -1.061645,0.064 c -0.608471,0.0367 -1.374549,-0.11844 -1.79468,-0.36343 -0.56241,-0.32796 -0.84259,-0.35904 -1.203709,-0.13352 -0.351218,0.21934 -0.584867,0.21044 -0.920611,-0.0351 -1.001799,-0.73253 -0.04313,-1.54879 1.673443,-1.42485 1.378454,0.0995 1.603268,-0.20808 0.49156,-0.67258 -1.11041,-0.46396 -1.721497,-1.114 -1.965227,-2.09049 -0.244709,-0.9804 0.688076,-2.02429 1.843803,-2.06342 0.736972,-0.0249 0.696908,-0.0634 -0.424504,-0.40703 -0.776875,-0.23808 -1.541696,-0.72505 -2.052566,-1.3069 -0.762001,-0.86787 -0.80636,-1.03199 -0.690835,-2.55596 0.07672,-1.01212 0.311161,-1.88406 0.619358,-2.30357 0.476319,-0.64837 0.478301,-0.74818 0.05018,-2.52711 -0.288476,-1.19868 -0.366245,-2.06818 -0.220437,-2.46462 0.123907,-0.3369 0.225287,-0.89035 0.225287,-1.22991 0,-0.66187 1.318553,-3.35037 1.955605,-3.98743 0.574141,-0.57413 1.645888,-0.91629 2.890265,-0.92273 0.986985,-0.005 1.150364,-0.0985 1.50413,-0.8599 0.34717,-0.74718 0.542591,-0.86459 1.560354,-0.93743 0.979232,-0.0701 1.383609,0.0684 2.553564,0.87412 1.638353,1.12838 2.575351,2.39152 3.19149,4.30238 0.246341,0.76398 0.534983,1.38906 0.641426,1.38906 0.246,0 0.511532,-0.97866 0.51622,-1.90261 0.002,-0.39161 0.109486,-0.77744 0.238886,-0.85741 0.1294,-0.08 0.315887,-0.4666 0.414416,-0.85917 0.09853,-0.39257 0.363852,-0.84881 0.589608,-1.01389 0.225756,-0.16508 0.452791,-0.79937 0.504522,-1.40952 0.127184,-1.500135 0.522674,-2.159485 1.295289,-2.159485 0.905509,0 3.275889,0.66237 4.369229,1.220915 0.50932,0.26021 1.10463,0.4987 1.32292,0.52998 2.18463,0.31314 4.35715,1.55903 4.4555,2.55513 0.0111,0.11274 0.19316,0.52946 0.40451,0.92604 0.81952,1.53779 1.28983,2.81948 1.32305,3.60558 0.0293,0.69338 -0.0586,0.81625 -0.57028,0.79761 -0.56309,-0.0205 -0.59334,0.0551 -0.43767,1.09319 0.24824,1.65538 -0.22816,1.6745 -1.74363,0.07 l -1.32769,-1.40571 -0.42605,0.60035 c -0.23433,0.33019 -0.45121,1.0148 -0.48197,1.52135 -0.051,0.8405 0.007,0.92101 0.66683,0.92101 0.87013,0 1.99801,0.55124 2.5094,1.22643 0.3586,0.47347 0.37401,0.47013 0.38208,-0.0827 0.009,-0.59212 0.97975,-1.52561 1.88646,-1.81339 0.66369,-0.21065 2.35528,0.34842 2.35528,0.77842 0,0.55338 -0.25948,0.64099 -1.03332,0.3489 -0.60303,-0.22762 -0.86452,-0.18604 -1.42904,0.22721 -0.5484,0.40145 -1.28617,1.63906 -1.64216,2.75476 -0.0232,0.0728 -0.13453,0.34211 -0.24735,0.59856 -0.11283,0.25644 -0.12226,0.85176 -0.021,1.32291 0.10129,0.47116 0.17603,1.3142 0.16608,1.87343 -0.0141,0.7943 0.15821,1.19308 0.78769,1.82257 0.9506,0.9506 0.70703,1.55757 -0.41914,1.04446 -0.5702,-0.25981 -0.70438,-0.23878 -0.84694,0.13273 -0.11134,0.29014 0.0378,0.58431 0.43498,0.85828 1.31949,0.91007 1.92258,1.63826 1.7868,2.15747 -0.14898,0.56971 0.50291,2.09584 0.89524,2.09584 0.13486,0 0.24521,0.17057 0.24521,0.37904 0,0.48903 -0.98569,0.80437 -1.41099,0.45141 -0.44885,-0.37252 -2.2905,-0.25004 -2.29198,0.15242 -0.002,0.45423 -1.01607,0.94229 -1.62661,0.78263 -0.38558,-0.10083 -0.48015,-0.0246 -0.38077,0.30694 0.0727,0.2426 0.16691,1.54206 0.20931,2.88768 0.0424,1.34561 0.13662,2.46214 0.20938,2.48116 0.35977,0.0941 1.63094,0.1976 3.24114,0.26402 1.51595,0.0625 1.78593,0.14565 1.78593,0.54981 0,0.26187 -0.14287,0.47614 -0.3175,0.47614 -0.23652,0 -0.24104,0.0765 -0.0177,0.29978 0.23866,0.23866 3.24564,0.53163 3.24564,0.31623 0,-0.0311 -0.23888,-0.46147 -0.53085,-0.95631 -0.52878,-0.89623 -0.50916,-2.38669 0.0358,-2.72353 0.12673,-0.0783 0.23041,-0.46393 0.23041,-0.8569 0,-0.43934 0.21403,-0.84815 0.55578,-1.06157 0.53965,-0.33702 0.51662,-0.38366 -0.79375,-1.60744 -1.01924,-0.95188 -1.35097,-1.44912 -1.35541,-2.03166 -0.003,-0.42422 -0.23871,-1.06897 -0.52328,-1.43277 -0.61867,-0.79092 -0.68169,-1.92529 -0.1323,-2.38125 0.21829,-0.18116 0.40508,-0.28503 0.41511,-0.23084 0.01,0.0542 0.0632,0.44263 0.11819,0.86317 0.15276,1.16851 0.29265,1.39621 1.10088,1.79189 1.4507,0.71022 1.78085,0.51742 2.03717,-1.1896 0.19895,-1.32499 0.30195,-1.52514 0.7276,-1.41383 0.27272,0.0713 0.49585,0.0264 0.49585,-0.0999 0,-0.3059 -2.09172,-2.3667 -2.40221,-2.3667 -0.134,0 -0.24363,-0.25087 -0.24363,-0.55748 0,-0.38513 0.12186,-0.51071 0.39418,-0.40621 0.27196,0.10436 0.44366,-0.0714 0.55376,-0.56701 0.0878,-0.39504 0.21034,-0.90858 0.27239,-1.1412 0.062,-0.23261 -0.0674,-0.76839 -0.28755,-1.19062 -0.42287,-0.81088 -0.5092,-1.63987 -0.24301,-2.33355 0.12495,-0.32562 0.5654,-0.41852 1.98437,-0.41852 1.03947,0 1.82378,-0.11378 1.82378,-0.26458 0,-0.14552 -0.29063,-0.26458 -0.64584,-0.26458 -0.82652,0 -1.01929,-0.32186 -0.56494,-0.94323 0.30536,-0.4176 0.42412,-0.4386 0.78527,-0.13887 0.3595,0.29835 0.42551,0.29019 0.42551,-0.0526 0,-0.48626 -1.24887,-1.58146 -2.36847,-2.07705 -0.44359,-0.19635 -0.80653,-0.54732 -0.80653,-0.77993 0,-0.60286 1.61016,-0.28959 2.49772,0.48596 0.37472,0.32742 0.85899,0.59531 1.07617,0.59531 0.40518,0 0.53891,-0.56151 0.21165,-0.88876 -0.10076,-0.10077 -0.22208,-0.44803 -0.2696,-0.7717 -0.17608,-1.19944 -0.65714,-2.30829 -1.00142,-2.30829 -0.19518,0 -0.75149,-0.4216 -1.23625,-0.9369 -0.65201,-0.69307 -1.03211,-0.8994 -1.46049,-0.79279 -0.72074,0.17937 -1.03606,-0.27234 -0.57658,-0.82597 0.2942,-0.35449 0.27324,-0.40155 -0.14217,-0.31914 -0.52999,0.10514 -2.33995,3.33027 -2.15574,3.84127 0.0605,0.16776 -0.0448,0.51664 -0.23393,0.77529 -0.32357,0.44251 -0.36286,0.4348 -0.66544,-0.13058 -0.2286,-0.42714 -0.24488,-0.80428 -0.0563,-1.30446 0.14588,-0.38698 0.33301,-1.01626 0.41584,-1.3984 0.23461,-1.08236 1.76421,-2.62924 2.81169,-2.84347 1.25827,-0.25735 3.18419,0.69001 4.07862,2.00627 0.37126,0.54636 0.67501,1.14434 0.67501,1.32884 0,0.21919 0.39669,0.33546 1.14451,0.33546 1.72103,0 2.31582,0.76294 2.44742,3.1393 0.0583,1.05316 -0.01,1.93201 -0.1569,2.02289 -0.42966,0.26554 -0.29466,0.54342 0.28523,0.5871 0.29988,0.0226 0.79047,0.35282 1.09018,0.73385 0.32649,0.41506 0.70307,0.63209 0.93939,0.54141 0.31095,-0.11933 0.35781,-0.005 0.22134,0.53839 -0.0952,0.37936 -0.0542,0.83302 0.0911,1.00811 0.14532,0.1751 0.22355,0.66973 0.17385,1.09917 -0.0497,0.42945 -0.11333,1.25707 -0.14142,1.83915 -0.0281,0.58208 -0.11111,0.90951 -0.1845,0.7276 -0.18627,-0.46161 -0.53061,-0.41228 -0.72889,0.10441 -0.0944,0.24592 0.0295,0.6522 0.28474,0.93428 0.40116,0.44329 0.40738,0.54347 0.0555,0.89531 -0.35184,0.35184 -0.46542,0.33611 -1.01499,-0.14053 -0.9474,-0.82168 -1.47269,-0.70197 -1.41811,0.32318 0.0252,0.47296 0.0549,0.93037 0.0661,1.01647 0.0186,0.1427 1.83818,0.76949 2.23388,0.76949 0.0923,0 0.16774,-0.23813 0.16774,-0.52917 0,-0.29104 0.12697,-0.52916 0.28215,-0.52916 0.15519,0 0.24449,0.32742 0.19844,0.7276 -0.0593,0.51579 0.0703,0.80621 0.44545,0.99762 0.48636,0.24817 2.25427,2.61155 2.24491,3.00103 -0.002,0.0927 -0.11222,0.33947 -0.24442,0.5484 -0.19958,0.3154 -0.31138,0.32093 -0.65884,0.0326 -0.27566,-0.22878 -0.76969,-0.29114 -1.44758,-0.18275 -0.77764,0.12436 -1.06605,0.0683 -1.18035,-0.2296 -0.0832,-0.21679 -0.63148,-0.58631 -1.21842,-0.82116 -0.58695,-0.23485 -1.06718,-0.54163 -1.06718,-0.68175 0,-0.14011 -0.17859,-0.0762 -0.39687,0.14212 -0.21828,0.21828 -0.39688,0.44619 -0.39688,0.50647 0,0.0603 0.53603,0.38528 1.19116,0.72223 1.53841,0.79123 2.69535,2.23934 2.2336,2.79571 -0.20044,0.24152 -0.53774,0.32686 -0.88242,0.22327 -0.79894,-0.24013 -2.38651,-0.97667 -2.54234,-1.17951 -0.0728,-0.0947 -0.51976,-0.17037 -0.99333,-0.16813 -0.47357,0.002 -1.158,-0.15485 -1.52095,-0.3491 -0.36296,-0.19424 -0.73358,-0.27951 -0.82361,-0.18948 -0.09,0.09 -0.14955,1.49661 -0.13227,3.12573 0.021,1.98304 -0.0752,3.09051 -0.29115,3.35072 -0.26225,0.31598 -0.20737,0.48195 0.29348,0.88751 0.33882,0.27436 0.9898,0.52082 1.44662,0.54768 0.45683,0.0269 1.0717,0.0628 1.36639,0.0799 0.29469,0.0171 0.66379,0.11015 0.82021,0.20682 0.30704,0.18976 1.98139,0.40838 4.38589,0.57267 0.82972,0.0567 1.6467,0.18844 1.81552,0.29278 0.16882,0.10433 0.40774,0.0266 0.53093,-0.17272 0.17839,-0.28863 0.29087,-0.29553 0.55251,-0.0339 0.18068,0.18068 0.5982,0.32851 0.92781,0.32851 1.75834,0 4.59655,1.61992 3.75235,2.14165 -0.18036,0.11147 -0.51293,0.10367 -0.73906,-0.0174 -0.22612,-0.12103 -0.50042,-0.23177 -0.60957,-0.24612 -0.10914,-0.0144 -0.28773,-0.0387 -0.39687,-0.0541 -0.10914,-0.0154 -0.51175,-0.008 -0.89469,0.0166 -0.38293,0.0246 -1.15684,-0.154 -1.71979,-0.39684 -1.1641,-0.50217 -4.93674,-0.97192 -5.88806,-0.73315 l -0.63285,0.15884 0.76431,0.32224 c 0.43846,0.18486 0.88819,0.2255 1.05488,0.0953 0.17809,-0.13909 0.47561,-0.0224 0.76861,0.30131 0.26292,0.29054 0.69069,0.52823 0.95059,0.52823 0.47675,0 0.93097,0.45475 0.69246,0.69325 -0.19432,0.19433 -2.43765,0.0563 -2.43765,-0.14998 0,-0.0294 -0.26349,-0.10268 -0.58553,-0.16289 -0.32204,-0.0602 -1.00551,0.13831 -1.51881,0.44117 -1.18576,0.69961 -2.82894,0.58567 -5.96545,-0.41362 -1.23693,-0.39409 -2.60575,-0.78397 -3.04183,-0.86641 -0.71117,-0.13446 -0.75581,-0.10524 -0.43322,0.28346 0.30832,0.37151 0.29319,0.45885 -0.10602,0.61205 -0.44837,0.17205 -3.92865,-0.51518 -5.01788,-0.99084 -0.91738,-0.40062 -2.10169,-0.49784 -2.51354,-0.20633 -0.33878,0.23978 -0.33192,0.26018 0.0469,0.13935 0.73017,-0.23291 3.65729,0.84504 3.65729,1.34685 0,0.53724 -1.37509,0.39047 -4.32346,-0.46147 -2.8637,-0.82747 -3.46818,-0.94459 -2.84787,-0.55182 0.20311,0.12861 0.29797,0.41967 0.2108,0.64683 -0.14313,0.37299 -0.29418,0.37122 -1.5599,-0.0183 -0.77079,-0.23717 -1.758621,-0.45941 -2.195183,-0.49383 -0.436563,-0.0344 -1.180704,-0.18449 -1.653646,-0.33346 -0.684628,-0.21565 -0.859896,-0.19669 -0.859896,0.093 0,0.49428 -2.253148,0.62629 -3.359284,0.19682 -0.499798,-0.19405 -0.907635,-0.22821 -0.997055,-0.0835 -0.08734,0.14133 -1.63874,0.18787 -3.669735,0.1101 -2.743543,-0.10507 -3.886428,-0.0394 -5.189388,0.29825 -0.919031,0.23815 -1.997572,0.39873 -2.396758,0.35686 -0.399185,-0.0419 -0.937561,0.0996 -1.196389,0.31445 -0.436785,0.36251 -2.021984,0.52096 -3.101288,0.30999 z M 121.6691,138.5107 c -0.0441,-0.14552 -0.18195,-0.23064 -0.30641,-0.18915 -0.12445,0.0415 -0.38713,-0.0581 -0.58372,-0.22122 -0.19659,-0.16315 -0.4978,-0.20989 -0.66935,-0.10386 -0.21058,0.13015 -0.10689,0.30756 0.31914,0.54606 0.70156,0.39276 1.36377,0.37577 1.24034,-0.0318 z m -2.59366,-0.66146 c -0.51815,-0.33485 -0.86841,-0.33485 -0.66146,0 0.0899,0.14553 0.36486,0.26277 0.61093,0.26054 0.38557,-0.003 0.39255,-0.0395 0.0505,-0.26054 z m 1.44198,-1.61386 c 0.46492,-0.0226 0.44791,-0.0566 -0.11906,-0.23821 -0.36381,-0.11651 -0.87083,-0.2237 -1.12673,-0.23821 -0.3981,-0.0226 -0.41815,0.0491 -0.13891,0.49619 0.21199,0.33946 0.41674,0.43217 0.58432,0.26458 0.14189,-0.14188 0.50206,-0.26984 0.80038,-0.28435 z m -3.70491,-0.26081 c -0.0852,-0.13784 -0.26766,-0.18091 -0.4055,-0.0957 -0.13784,0.0852 -0.18092,0.26766 -0.0957,0.4055 0.0852,0.13784 0.26767,0.18092 0.4055,0.0957 0.13784,-0.0852 0.18092,-0.26767 0.0957,-0.40551 z m -6.7329,-0.50912 c 0,-0.11298 -0.1786,-0.27395 -0.39687,-0.35771 -0.21828,-0.0838 -0.39687,-0.10624 -0.39687,-0.0499 0,0.0563 -0.0689,0.282 -0.1532,0.50156 -0.11504,0.2998 -0.0162,0.36339 0.39688,0.25537 0.30253,-0.0791 0.55006,-0.23629 0.55006,-0.34927 z m 1.25673,-0.15182 c -0.25214,-0.25214 -0.75763,0.15626 -0.56973,0.46029 0.11169,0.18072 0.25968,0.17615 0.4497,-0.0139 0.15577,-0.15577 0.20979,-0.35666 0.12003,-0.44642 z m -12.567665,-0.0208 c -0.181901,-0.0734 -0.330729,-0.29197 -0.330729,-0.48571 0,-0.55089 -6.086789,-1.05474 -6.265488,-0.51864 -0.04995,0.14984 0.118965,0.29062 0.375359,0.31285 0.256394,0.0222 1.326678,0.0998 2.378409,0.17248 1.051731,0.0727 2.123293,0.25495 2.38125,0.40512 0.257956,0.15017 0.766668,0.26725 1.13047,0.26019 0.363802,-0.007 0.51263,-0.0729 0.330729,-0.14629 z m 4.334195,-1.14769 c 0.61188,0 0.64925,-0.0801 0.59472,-1.2752 -0.032,-0.70136 0.0287,-1.41574 0.13483,-1.58752 0.30642,-0.49578 0.4446,-5.07478 0.15315,-5.07478 -0.14078,0 -0.25596,-0.1915 -0.25596,-0.42556 0,-0.3228 0.16113,-0.38512 0.66727,-0.25808 0.6927,0.17385 0.7397,0.11865 1.02883,-1.20815 0.10297,-0.4725 0.41219,-0.79159 0.94814,-0.97843 0.96648,-0.33691 0.98295,-0.47793 0.13389,-1.1458 -0.3638,-0.28617 -0.66146,-0.63073 -0.66146,-0.76568 0,-0.32907 0.96892,-0.31186 1.6049,0.0285 0.40267,0.2155 0.51177,0.1873 0.51177,-0.13229 0,-0.25426 -0.24157,-0.40619 -0.64584,-0.40619 -0.35522,0 -0.70951,-0.10301 -0.78733,-0.22892 -0.19137,-0.30964 -1.83744,-0.55948 -2.51639,-0.38193 -0.3016,0.0789 -0.54836,0.29353 -0.54836,0.47702 0,0.18349 -0.1628,0.46873 -0.36177,0.63386 -0.51366,0.42631 -0.98623,-0.21224 -0.77187,-1.04296 0.22473,-0.87089 0.8253,-1.2906 1.86124,-1.30074 0.98266,-0.01 1.09578,-0.26298 0.33073,-0.74076 -0.29104,-0.18176 -0.52916,-0.46891 -0.52916,-0.63812 0,-0.16921 -0.19026,-0.51789 -0.4228,-0.77484 -0.54494,-0.60216 -0.22638,-1.11718 0.56774,-0.91787 0.33901,0.0851 0.69323,0.0304 0.78715,-0.12161 0.0939,-0.15198 0.41307,-0.19942 0.7092,-0.10543 0.29614,0.094 0.79213,0.0418 1.10222,-0.11607 0.31008,-0.15783 0.90692,-0.4115 1.3263,-0.56373 0.69565,-0.2525 0.7274,-0.31679 0.36203,-0.73306 -0.22028,-0.25096 -0.48214,-0.72419 -0.58192,-1.05161 -0.0998,-0.32742 -0.37044,-0.59531 -0.60147,-0.59531 -0.37718,0 -0.37536,0.0494 0.0178,0.48385 0.54604,0.60337 0.56896,1.36823 0.041,1.36823 -0.21828,0 -0.39687,-0.10549 -0.39687,-0.23443 0,-0.12894 -0.41672,-0.43219 -0.92604,-0.67388 -0.50933,-0.24169 -0.92604,-0.5338 -0.92604,-0.64913 0,-0.11534 -0.29766,-0.34532 -0.66147,-0.51108 -0.3638,-0.16576 -0.66328,-0.51229 -0.66551,-0.77008 -0.007,-0.82122 -0.46971,-1.24456 -1.36991,-1.25363 -0.74463,-0.008 -0.88698,-0.11218 -0.95545,-0.70261 -0.0534,-0.46017 0.0704,-0.75169 0.36749,-0.8657 0.52742,-0.20239 2.75202,0.80568 2.76372,1.25237 0.004,0.16892 0.13734,0.0846 0.29537,-0.1874 0.17053,-0.29351 0.18846,-0.56238 0.0441,-0.66146 -0.13376,-0.0918 -0.23691,-0.58112 -0.22922,-1.08735 0.0123,-0.80904 -0.10611,-0.9774 -0.97822,-1.39115 -0.60233,-0.28576 -0.99218,-0.65703 -0.99218,-0.94488 0,-0.79791 -0.57175,-1.10918 -2.03729,-1.10918 -0.771265,0 -1.402296,-0.0953 -1.402296,-0.21167 0,-0.54857 0.768317,-0.84666 2.182216,-0.84666 1.33485,0 1.63664,0.0965 2.19867,0.70292 0.80742,0.87124 1.11629,0.65266 0.51534,-0.36466 -0.30449,-0.51546 -0.94595,-0.95018 -2.01198,-1.36354 -1.62596,-0.63048 -1.86254,-1.22937 -0.4056,-1.02674 0.45576,0.0634 0.99236,0.16407 1.19245,0.22374 0.78913,0.23533 0.52835,-0.50104 -0.28769,-0.81234 -0.47842,-0.18251 -1.24505,-0.49647 -1.7036,-0.69769 -0.91153,-0.400005 -2.208973,-0.490565 -2.208973,-0.15419 0,0.37391 0.620503,0.84667 1.111251,0.84667 0.301362,0 0.476252,0.19618 0.476252,0.5342 0,0.4249 -0.12419,0.50305 -0.606891,0.3819 -0.407351,-0.10225 -0.758765,0.0155 -1.068817,0.35811 -0.575044,0.63541 -1.499295,3.11786 -1.499295,4.02695 0,0.37314 -0.104887,0.79154 -0.233084,0.92978 -0.431293,0.4651 0.491012,5.67531 1.004636,5.67531 0.122093,0 0.370208,-0.17859 0.551365,-0.39687 0.439472,-0.52953 2.217536,-0.51607 2.662566,0.0202 0.47578,0.57328 -0.0838,0.90466 -1.21716,0.72074 -0.500694,-0.0813 -0.926697,-0.012 -1.038449,0.16883 -0.143392,0.23201 -0.280294,0.23122 -0.562804,-0.003 -0.494972,-0.41079 -0.473057,-0.11405 0.0506,0.68515 0.356148,0.54355 0.510449,0.60068 0.965164,0.35732 0.505973,-0.27079 0.530011,-0.2335 0.368868,0.57221 -0.100116,0.50058 -0.04981,1.00956 0.120012,1.21418 0.218699,0.26352 0.152263,0.64176 -0.263622,1.50087 -0.715947,1.47894 -0.718402,3.16981 -0.0063,4.32206 0.302354,0.48921 0.693521,0.97952 0.869271,1.08956 0.54554,0.34159 2.24052,2.56175 2.52301,3.30475 0.22055,0.5801 0.19964,0.67999 -0.11692,0.55852 -0.21203,-0.0814 -0.38551,-0.25426 -0.38551,-0.38421 0,-0.12995 -0.11906,-0.23628 -0.26459,-0.23628 -0.14552,0 -0.26458,0.41672 -0.26458,0.92604 0,0.50933 -0.13238,0.92605 -0.29417,0.92605 -0.20699,0 -0.24927,0.84292 -0.14267,2.84427 0.0833,1.56434 0.15616,2.9463 0.16187,3.07101 0.006,0.12471 0.19872,0.15448 0.4289,0.0661 0.23019,-0.0883 0.71232,-0.1606 1.07142,-0.1606 z m -4.283883,-2.53787 c -0.247576,-0.98718 -0.47669,-2.75478 -0.509141,-3.92798 -0.05667,-2.04894 -0.08278,-2.13038 -0.661665,-2.06393 -0.332436,0.0382 -0.76126,-0.13979 -0.956367,-0.39687 -0.329354,-0.43397 -0.354285,-0.4259 -0.36212,0.11723 -0.0046,0.3208 0.298036,0.88973 0.672587,1.26428 0.374551,0.37455 0.632303,0.82645 0.572784,1.00422 -0.198852,0.59391 -2.525461,0.12224 -2.973577,-0.60283 -0.101032,-0.16347 -0.44002,-0.40866 -0.753306,-0.54486 -0.313286,-0.13619 -0.774693,-0.39406 -1.02535,-0.57304 -1.088148,-0.77698 -1.580032,1.51105 -1.108592,5.15667 0.224482,1.73591 0.651968,1.96972 3.705396,2.02663 1.383645,0.0258 2.77763,0.14603 3.097744,0.2672 0.320113,0.12117 0.620212,0.18607 0.666885,0.14423 0.04667,-0.0418 -0.117701,-0.88376 -0.365278,-1.87095 z m 17.179273,1.41339 c 0.25639,-0.95673 0.19421,-1.2507 -0.23011,-1.08787 -0.22623,0.0868 -0.39688,0.48142 -0.39688,0.91774 0,0.90772 0.40022,1.01632 0.62699,0.17013 z m -0.73172,-5.94761 c -0.26895,-0.26896 -0.49087,0.13596 -0.2702,0.49302 0.1667,0.26972 0.22902,0.26993 0.31864,0.001 0.0613,-0.18383 0.0395,-0.40616 -0.0484,-0.49408 z m -19.006839,-0.38869 c -0.132151,-0.39645 -0.591,-0.28273 -0.685247,0.16983 -0.05889,0.2828 0.04714,0.35908 0.341911,0.24596 0.235004,-0.0902 0.389505,-0.27728 0.343336,-0.41579 z m 10.644919,0.0681 c 0,-0.35728 -0.48232,-0.60496 -0.79807,-0.40982 -0.14789,0.0914 -0.2004,0.27702 -0.11668,0.41249 0.19862,0.32136 0.91475,0.31928 0.91475,-0.003 z m -17.462508,-1.02985 c 0,-1.00746 -0.207308,-1.15216 -0.951798,-0.66435 l -0.626562,0.41054 0.590743,0.49293 c 0.810113,0.67597 0.987617,0.633 0.987617,-0.23912 z m 20.108338,0.33984 c 0,-0.18844 -2.14818,-1.1643 -2.57969,-1.17188 -0.1819,-0.003 -0.33073,0.11325 -0.33073,0.25878 0,0.14552 0.16499,0.26458 0.36663,0.26458 0.20165,0 0.70767,0.17786 1.12448,0.39524 0.76934,0.40124 1.41931,0.51723 1.41931,0.25328 z m -22.489588,-1.14938 c 0,-0.65891 -0.666471,-0.89735 -1.088121,-0.38929 -0.270115,0.32547 -0.26127,0.44674 0.0468,0.64168 0.61408,0.38857 1.04132,0.28502 1.041321,-0.25239 z m 8.135938,-0.0945 c -0.06063,-0.1819 -0.239227,-0.33073 -0.396875,-0.33073 -0.157647,0 -0.375929,-0.0893 -0.485069,-0.19844 -0.318925,-0.31892 -0.63941,-0.22919 -0.63941,0.17904 0,0.35215 0.443176,0.57746 1.278819,0.65016 0.194028,0.0169 0.303169,-0.11813 0.242535,-0.30003 z m 4.668047,-0.0878 c 0.282033,-0.73498 0.180133,-0.87676 -0.756421,-1.05246 -0.562333,-0.10549 -0.977694,-0.3632 -1.073888,-0.66627 -0.156282,-0.49241 -2.969823,-3.05878 -3.13691,-2.86134 -0.04831,0.0571 -0.156897,0.46775 -0.241301,0.91259 -0.137759,0.72604 -0.05366,0.86114 0.821891,1.32038 0.536444,0.28138 1.034884,0.58542 1.107645,0.67564 0.07276,0.0902 0.48976,0.34707 0.926666,0.57076 0.436906,0.22369 1.020906,0.65702 1.297778,0.96296 0.602116,0.66533 0.840154,0.69642 1.05454,0.13774 z m 11.008513,0.30184 c 0,-0.0642 -0.11907,-0.19026 -0.26459,-0.2802 -0.14552,-0.0899 -0.26458,-0.0374 -0.26458,0.11668 0,0.15411 0.11906,0.2802 0.26458,0.2802 0.14552,0 0.26459,-0.0525 0.26459,-0.11668 z m 10.05416,-0.67707 c 0,-0.14553 -0.17859,-0.26459 -0.39687,-0.26459 -0.21828,0 -0.39688,-0.0963 -0.39688,-0.21401 0,-0.11771 -0.16041,-0.43339 -0.35647,-0.70152 -0.31878,-0.43595 -0.44155,-0.44984 -1.16106,-0.13136 l -0.80458,0.35614 1.2272,0.58909 c 1.37074,0.65799 1.88866,0.75843 1.88866,0.36625 z m 4.21759,-0.37478 c -0.20962,-0.1992 -0.67879,-0.44681 -1.04259,-0.55024 -0.64262,-0.18269 -0.64639,-0.17621 -0.13229,0.22778 0.29104,0.2287 0.678,0.41961 0.8599,0.42424 0.1819,0.005 0.33073,0.14732 0.33073,0.31709 0,0.16978 0.0822,0.22647 0.18268,0.12599 0.10048,-0.10047 0.0112,-0.34566 -0.19843,-0.54486 z m -33.619404,0.20941 c 0.647533,-0.12951 0.826823,-0.30162 0.826823,-0.79375 0,-0.60254 -0.820884,-1.68672 -1.277093,-1.68672 -0.120317,0 -0.170674,-0.32762 -0.111904,-0.72805 0.09019,-0.61451 -0.02164,-0.77654 -0.717083,-1.03905 -0.723104,-0.27294 -0.862907,-0.2486 -1.142365,0.19889 -0.460047,0.73665 -1.249472,0.66135 -1.249472,-0.11918 0,-0.72977 0.382524,-1.10973 1.365622,-1.35647 0.751395,-0.18859 2.073962,0.46907 2.073962,1.0313 0,0.19409 0.402648,0.28533 1.089665,0.24692 1.237507,-0.0692 1.167908,-0.03 1.400925,-0.78911 0.154206,-0.50239 0.04782,-0.59188 -0.892426,-0.75074 -0.587127,-0.0992 -1.324908,-0.38879 -1.639515,-0.64354 -0.716378,-0.58009 -0.422507,-1.18543 0.46709,-0.96216 0.59355,0.14897 0.632594,0.0886 0.632594,-0.97802 0,-1.47641 -0.61124,-2.37013 -1.546937,-2.26183 -0.548472,0.0635 -0.720671,0.2439 -0.787285,0.82485 -0.0469,0.40899 0.05265,0.90979 0.221215,1.11289 0.344174,0.41471 0.13987,0.92164 -0.37144,0.92164 -0.696692,0 -1.37905,-2.27373 -0.873433,-2.91042 0.476488,-0.60001 1.782813,-1.2021 2.386446,-1.09992 0.294715,0.0499 0.812447,0.27194 1.150515,0.49345 0.594872,0.38977 0.614669,0.37782 0.614669,-0.37121 0,-0.51704 -0.285439,-1.06482 -0.859896,-1.65021 -0.472942,-0.48194 -1.098021,-1.36726 -1.389062,-1.96738 -0.291042,-0.60012 -0.826823,-1.23708 -1.190625,-1.41547 -0.363802,-0.17839 -0.673596,-0.53606 -0.68843,-0.79482 -0.01483,-0.25877 -0.0446,-0.7713 -0.06615,-1.13897 -0.05996,-1.02317 -1.970206,-2.18742 -3.309843,-2.01727 -1.114962,0.14162 -2.550165,1.29049 -2.550165,2.0414 0,0.246 -0.159454,0.57961 -0.354342,0.74135 -0.498984,0.41412 -0.537685,4.57958 -0.05332,5.73884 0.202221,0.48398 0.792875,1.15485 1.312564,1.49082 0.519689,0.33596 1.01296,0.81921 1.096156,1.07387 0.0832,0.25466 0.262306,0.46302 0.398021,0.46302 0.135714,0 0.246754,0.23812 0.246754,0.52917 0,0.38663 -0.176389,0.52916 -0.654844,0.52916 -0.594928,0 -0.640339,0.0787 -0.496317,0.8599 0.08719,0.47294 0.437069,1.07503 0.777509,1.33797 0.480864,0.3714 0.585321,0.64639 0.468124,1.23237 -0.121508,0.60754 -0.02955,0.81835 0.472647,1.08353 0.933508,0.49291 1.865559,1.58516 1.706462,1.99976 -0.07717,0.2011 0.0081,0.36564 0.189585,0.36564 0.18144,0 0.74325,0.29182 1.248467,0.64848 1.053961,0.74406 0.985317,0.72723 2.076127,0.50907 z m -5.192448,-12.13242 c -0.483366,-0.5552 -0.423926,-2.23514 0.08601,-2.43082 0.692454,-0.26572 2.443876,0.39654 2.634151,0.99605 0.238012,0.7499 0.02223,0.87646 -0.929026,0.54485 -0.786062,-0.27403 -0.812873,-0.25872 -0.74111,0.42302 0.08502,0.80766 -0.519379,1.07641 -1.050023,0.4669 z m 0.198438,10.47943 c 0,-0.49303 -3.034581,-1.26873 -3.297719,-0.84297 -0.09732,0.15746 0.03644,0.28084 0.305541,0.28182 0.26325,9.6e-4 0.817269,0.225 1.231153,0.49788 0.680108,0.4484 1.761025,0.48723 1.761025,0.0633 z m 7.141538,-0.55593 c 0.459176,-0.2903 0.177147,-0.64842 -0.725392,-0.9211 -0.471644,-0.14249 -0.595313,-0.0754 -0.595313,0.32304 0,0.84874 0.538498,1.09259 1.320705,0.59806 z m 26.559066,-0.86686 c -0.50336,-0.84385 -1.82943,-2.25771 -2.0118,-2.14499 -0.36036,0.22271 -0.21616,1.1528 0.17873,1.1528 0.21016,0 0.71618,0.2939 1.12448,0.6531 0.84231,0.74104 0.99072,0.81205 0.70859,0.33909 z m -2.91652,-1.39754 c -0.13215,-0.34439 -0.62159,-0.56309 -0.62159,-0.27775 0,0.3931 0.35769,0.92137 0.54533,0.8054 0.12392,-0.0766 0.15824,-0.31403 0.0763,-0.52765 z m -9.35283,0.30137 c 0,-0.0572 -0.18478,-0.17489 -0.41062,-0.26155 -0.23546,-0.0904 -0.34166,-0.046 -0.24897,0.10398 0.15538,0.25141 0.65959,0.37186 0.65959,0.15757 z m -10.054171,-1.05524 c 0,-0.3915 -1.629758,-1.75119 -2.099013,-1.75119 -0.541579,0 -0.275022,0.48373 0.709951,1.28838 1.107494,0.90474 1.389062,0.99855 1.389062,0.46281 z m 8.797401,-0.003 c 0.58769,-0.44612 0.58085,-0.57219 -0.0661,-1.21919 -0.6768,-0.67679 -1.04724,-0.67619 -0.87005,10e-4 0.0763,0.29182 6.7e-4,0.69696 -0.1681,0.90031 -0.23505,0.28322 -0.22688,0.40183 0.0349,0.50687 0.50718,0.2035 0.56537,0.1932 1.06938,-0.1894 z m 17.52863,-0.69002 c 0.0899,-0.14552 -0.0887,-0.26458 -0.39687,-0.26458 -0.30822,0 -0.48681,0.11906 -0.39688,0.26458 0.0899,0.14552 0.26854,0.26458 0.39688,0.26458 0.12834,0 0.30694,-0.11906 0.39687,-0.26458 z m -4.9846,-0.74682 c -0.24165,-0.26701 -0.4431,-0.59516 -0.44767,-0.72922 -0.0141,-0.4145 -1.32102,-1.22395 -1.7255,-1.06873 -0.60138,0.23077 -0.45121,0.60017 0.38476,0.94644 0.42219,0.17488 1.03782,0.60557 1.36806,0.9571 0.68797,0.73231 1.08775,0.63188 0.42035,-0.10559 z m -20.447569,-0.64211 c 0.132194,-0.55104 0.07702,-0.72761 -0.227362,-0.72761 -0.405138,0 -0.574837,1.0618 -0.225527,1.41111 0.223407,0.22341 0.24208,0.19523 0.452889,-0.6835 z M 83.158258,116.754 c 0.585155,-0.16825 0.579308,-0.27431 -0.07422,-1.34622 -0.910505,-1.49341 -1.924112,-0.66369 -1.457989,1.19349 0.123686,0.4928 0.279071,0.61168 0.617241,0.47223 0.248568,-0.1025 0.660301,-0.24627 0.914963,-0.3195 z m 37.642082,-0.84906 c -0.0965,-0.30412 -0.28631,-0.48447 -0.42175,-0.40076 -0.14812,0.0915 -0.13198,0.3657 0.0405,0.68796 0.35485,0.66304 0.61957,0.46363 0.38126,-0.2872 z m 3.16989,0.51307 c -0.0899,-0.14553 -0.30532,-0.26276 -0.47863,-0.26054 -0.18934,0.002 -0.15671,0.10643 0.0818,0.26054 0.50829,0.32848 0.59989,0.32848 0.39687,0 z m -27.384367,-0.41002 c 0,-1.06349 -2.080449,-2.64245 -2.685065,-2.03784 -0.389569,0.38957 0.193261,1.38952 0.809894,1.38952 0.268103,0 0.63568,0.1786 0.816837,0.39688 0.314893,0.37942 1.058334,0.55605 1.058334,0.25144 z m -1.163065,-3.75166 c -0.268953,-0.26895 -0.490867,0.13597 -0.270197,0.49302 0.166697,0.26972 0.229018,0.26993 0.318639,10e-4 0.06128,-0.18383 0.03948,-0.40617 -0.04844,-0.49409 z m 27.305762,-1.26557 c -0.0192,-0.51113 -0.20382,-1.06948 -0.41022,-1.24078 -0.31766,-0.26363 -0.34635,-0.15141 -0.18684,0.73089 0.30804,1.7039 0.65302,1.99851 0.59706,0.50989 z m -28.201744,-2.7448 c -0.193459,-0.50845 -1.107949,-1.76759 -2.017102,-2.77729 -0.479697,-0.53275 -0.494472,-0.53426 -0.303173,-0.0309 0.110605,0.29104 0.298663,0.85384 0.417907,1.25066 0.212063,0.70571 1.443581,2.05663 1.874857,2.05663 0.119582,0 0.131962,-0.22461 0.02751,-0.49913 z m 1.313804,-0.61653 c -0.189856,-0.18986 -0.313091,-0.20548 -0.313091,-0.0397 0,0.35316 0.312899,0.66606 0.48948,0.48948 0.07518,-0.0752 -0.0042,-0.27759 -0.176389,-0.44979 z m 12.07091,-0.45585 c -0.4095,-0.65572 -1.39973,-1.18982 -1.77544,-0.95762 -0.50678,0.31321 -0.31267,0.67705 0.36122,0.67705 0.35806,0 0.80455,0.17406 0.99219,0.38681 0.49907,0.56585 0.79521,0.49131 0.42203,-0.10624 z m 14.07433,0.24859 c 0,-0.14552 -0.24516,-0.26458 -0.54479,-0.26458 -0.29963,0 -0.47119,0.11906 -0.38126,0.26458 0.0899,0.14552 0.33509,0.26459 0.54479,0.26459 0.20969,0 0.38126,-0.11907 0.38126,-0.26459 z m -14.90558,-3.33662 c -0.82633,-0.76622 -0.96941,-0.78355 -0.96941,-0.11741 0,0.29893 0.30504,0.66381 0.7276,0.87032 0.9609,0.46961 1.09843,0.0414 0.24181,-0.75291 z m -17.109001,-0.76443 c 0,-0.22048 0.235185,-0.39686 0.529167,-0.39686 1.112203,0 0.452768,-0.92312 -0.827492,-1.15838 -0.812841,-0.14937 -0.98052,-0.0971 -1.095233,0.3416 -0.160034,0.61197 0.467229,1.61052 1.011686,1.61052 0.21003,0 0.381872,-0.1786 0.381872,-0.39688 z m 16.018171,-0.94363 c 0.21018,-0.34008 0.15839,-0.3938 -0.60619,-0.62883 -0.4844,-0.1489 -0.59531,-0.0811 -0.59531,0.36402 0,0.58783 0.88175,0.78217 1.2015,0.26481 z m 8.13808,19.02457 c -1.18007,-0.3204 -1.2249,-0.53767 -0.29252,-1.41768 0.73759,-0.69617 0.79633,-0.71316 0.6276,-0.18153 -0.12853,0.40493 -0.064,0.6334 0.2085,0.73796 0.44588,0.1711 0.77445,0.83421 0.49017,0.98925 -0.10279,0.0561 -0.56797,-0.002 -1.03375,-0.128 z m 12.13714,-18.21323 c 0,-1.17774 0.0417,-1.31648 0.21896,-0.72759 0.12043,0.40018 0.12043,1.05501 0,1.45519 -0.17721,0.58888 -0.21896,0.45015 -0.21896,-0.7276 z"
       id="path10" />
  </g>
</svg>
