<?xml version="1.0" encoding="UTF-8" standalone="no"?>
<!-- Created with Inkscape (http://www.inkscape.org/) -->

<svg
   width="79.857025mm"
   height="30.630117mm"
   viewBox="0 0 79.857025 30.63011"
   version="1.1"
   id="svg1"
   inkscape:version="1.4.1-rc (06eac75fbf, 2025-03-29)"
   sodipodi:docname="threetrees5.svg"
   xmlns:inkscape="http://www.inkscape.org/namespaces/inkscape"
   xmlns:sodipodi="http://sodipodi.sourceforge.net/DTD/sodipodi-0.dtd"
   xmlns="http://www.w3.org/2000/svg"
   xmlns:svg="http://www.w3.org/2000/svg">
  <sodipodi:namedview
     id="namedview1"
     pagecolor="#ffffff"
     bordercolor="#000000"
     borderopacity="0.25"
     inkscape:showpageshadow="2"
     inkscape:pageopacity="0.0"
     inkscape:pagecheckerboard="0"
     inkscape:deskcolor="#d1d1d1"
     inkscape:document-units="mm"
     inkscape:zoom="0.72248176"
     inkscape:cx="150.86886"
     inkscape:cy="57.440896"
     inkscape:window-width="1850"
     inkscape:window-height="1016"
     inkscape:window-x="0"
     inkscape:window-y="0"
     inkscape:window-maximized="1"
     inkscape:current-layer="layer1" />
  <defs
     id="defs1" />
  <g
     inkscape:label="Layer 1"
     inkscape:groupmode="layer"
     id="layer1"
     transform="translate(-65.616675,-103.71784)">
    <path
       style="fill:#000000"
       d="m 74.149505,134.08692 c -1.17907,-0.34045 -1.08123,-0.76233 0.17679,-0.76233 1.29266,0 1.87373,0.21391 1.87373,0.68977 0,0.41764 -0.762,0.44461 -2.05052,0.0726 z m -2.79404,-0.13882 c -0.0936,-0.0936 -0.60965,-0.18294 -1.14671,-0.19844 -0.58244,-0.0168 -1.02631,-0.17794 -1.09999,-0.3993 -0.0978,-0.29403 0.09,-0.33585 0.90419,-0.20135 0.56523,0.0934 1.40191,0.17107 1.85928,0.17267 0.49299,0.002 0.8936,0.16451 0.98388,0.39979 0.11305,0.29458 -0.0388,0.39687 -0.58905,0.39687 -0.40774,0 -0.81796,-0.0766 -0.9116,-0.17024 z m 10.1596,-1.13823 c -0.19566,-0.12092 -0.27394,-0.35224 -0.17395,-0.51403 0.21473,-0.34744 1.20891,-0.39841 1.20891,-0.062 0,0.42709 -0.67135,0.80074 -1.03496,0.57601 z m -2.50209,-0.41597 c -0.12194,-0.31776 -0.27679,-0.35214 -0.66069,-0.14669 -0.38496,0.20603 -0.64108,0.14723 -1.10274,-0.25317 -0.67697,-0.58714 -1.73072,-0.69117 -1.93263,-0.1908 -0.10676,0.26458 -0.13763,0.26458 -0.15434,0 -0.0115,-0.1819 -0.22925,-0.3391 -0.48391,-0.34933 -0.42658,-0.0171 -0.42518,-0.0335 0.0178,-0.20812 0.26443,-0.10425 1.78248,-0.0139 3.37344,0.20077 2.47229,0.33358 2.89267,0.45995 2.89267,0.86958 0,0.54925 -0.28565,0.61698 -0.72962,0.173 -0.232,-0.23199 -0.39778,-0.23035 -0.68348,0.007 -0.29712,0.24659 -0.411,0.22494 -0.53645,-0.10199 z m 7.79437,-0.10721 c -0.20508,-0.12983 -0.51343,-0.18212 -0.68521,-0.1162 -0.37278,0.14305 -1.08135,-0.63111 -0.81835,-0.8941 0.10083,-0.10083 0.86194,-0.16787 1.69135,-0.14897 0.82941,0.0189 2.06509,-0.12491 2.74597,-0.31959 0.68087,-0.19468 1.45478,-0.3009 1.71979,-0.23604 0.26501,0.0649 0.89855,0.16167 1.40788,0.21515 0.50932,0.0535 1.01534,0.11056 1.12448,0.12683 0.10914,0.0163 0.19843,0.16378 0.19843,0.32782 0,0.19818 -0.44084,0.25588 -1.31399,0.17198 -0.7227,-0.0694 -1.25146,-0.0251 -1.17501,0.0986 0.1986,0.32135 -0.62167,0.27794 -1.2662,-0.067 -0.41548,-0.22235 -0.59628,-0.2096 -0.7589,0.0535 -0.11741,0.18997 -0.15478,0.44039 -0.083,0.55648 0.0717,0.11609 -0.0622,0.21107 -0.29766,0.21107 -0.23545,0 -0.35452,-0.11906 -0.26458,-0.26458 0.24827,-0.40171 -0.11856,-0.31612 -0.56696,0.13229 -0.44546,0.44546 -1.1003,0.50577 -1.65801,0.15272 z m 0.90205,-0.28501 c 0.0899,-0.14552 -0.0221,-0.26459 -0.24897,-0.26459 -0.22687,0 -0.41249,0.11907 -0.41249,0.26459 0,0.14552 0.11204,0.26458 0.24897,0.26458 0.13694,0 0.32256,-0.11906 0.41249,-0.26458 z m 10.35729,-1.76945 c -0.10007,-0.10008 -1.28078,-0.19354 -2.62379,-0.20769 -1.343,-0.0142 -2.58049,-0.11162 -2.74996,-0.21658 -0.16947,-0.10496 -0.35331,-0.0553 -0.40853,0.11037 -0.0699,0.20953 -0.35459,0.16976 -0.9355,-0.13064 -1.04779,-0.54183 -1.39055,-0.54502 -1.39055,-0.0129 0,0.23041 -0.14883,0.36931 -0.33073,0.30868 -0.1819,-0.0606 -0.33073,-0.45751 -0.33073,-0.88195 0,-0.73522 0.0563,-0.77265 1.19063,-0.79191 0.65484,-0.0111 1.45116,0.0724 1.76959,0.18567 0.49454,0.17587 0.591,0.10165 0.66146,-0.50895 0.0454,-0.39316 -0.0627,-0.8339 -0.24006,-0.97942 -0.21592,-0.17711 -0.25815,-0.57075 -0.12774,-1.19063 0.22966,-1.09165 0.10997,-2.44743 -0.1992,-2.25636 -0.11913,0.0736 -0.36373,-0.0434 -0.54355,-0.26009 -0.17983,-0.21668 -0.50556,-0.39397 -0.72384,-0.39397 -0.32127,0 -0.33466,0.075 -0.0703,0.39351 0.5991,0.72187 0.10592,1.27841 -0.99421,1.12196 -0.54305,-0.0772 -1.19573,-0.22441 -1.45039,-0.32708 -0.27455,-0.11068 -0.46302,-0.0675 -0.46302,0.10622 0,0.16109 0.17859,0.29289 0.39687,0.29289 0.21828,0 0.39688,0.17486 0.39688,0.38858 0,0.2242 0.15655,0.32849 0.37011,0.24654 0.40447,-0.15521 0.80272,0.28848 0.58098,0.64727 -0.0762,0.12323 -1.09522,0.0164 -2.26457,-0.23734 -1.16936,-0.25376 -2.12611,-0.39954 -2.12611,-0.32395 0,0.0756 -0.17859,-0.0108 -0.39687,-0.19193 -0.21828,-0.18116 -0.39688,-0.21228 -0.39688,-0.0692 0,0.16686 -0.37969,0.15888 -1.05833,-0.0223 -0.58208,-0.15537 -1.05833,-0.37554 -1.05833,-0.48928 0,-0.11374 -0.47625,-0.28295 -1.05834,-0.37603 -0.58208,-0.0931 -1.05833,-0.24646 -1.05833,-0.34085 0,-0.0944 -0.49042,-0.12484 -1.08983,-0.0677 -0.62118,0.0592 -1.16744,-0.0216 -1.2703,-0.18807 -0.12509,-0.20239 -0.45174,-0.21419 -1.0645,-0.0385 -0.48622,0.13945 -0.96613,0.20281 -1.06647,0.1408 -0.21397,-0.13224 -4.27639,-0.4667 -5.43077,-0.44712 -0.43657,0.007 -1.27,0.13701 -1.85209,0.28802 -1.55433,0.40322 -3.04271,0.36466 -3.04271,-0.0788 0,-0.44212 0.80709,-0.68385 2.29949,-0.68871 0.60988,-0.002 1.17895,-0.117 1.2646,-0.25559 0.11716,-0.18957 2.91821,-0.22949 2.91821,-0.0416 0,0.0199 1.54781,0.0977 3.43958,0.17288 3.75647,0.14937 5.57934,0.41333 5.51442,0.79853 -0.023,0.13651 0.69137,0.26456 1.5875,0.28455 0.89613,0.02 2.13535,0.21443 2.75381,0.43208 1.27912,0.45014 1.42077,0.28149 0.46302,-0.55126 -0.79568,-0.69184 -0.83258,-1.1355 -0.1461,-1.75676 0.98699,-0.89321 5.17837,-0.57272 6.19411,0.47362 0.64641,0.66587 2.02178,0.85611 2.02178,0.27965 0,-0.20289 0.13364,-0.36889 0.29698,-0.36889 0.20519,0 0.19517,-0.12267 -0.0324,-0.39687 -0.24129,-0.29075 -0.25164,-0.49054 -0.0387,-0.74713 0.20534,-0.24741 0.20808,-0.43286 0.009,-0.6316 -0.19874,-0.19873 -0.1851,-0.34082 0.0464,-0.48392 0.1953,-0.1207 0.47085,-0.007 0.68178,0.28156 0.51486,0.70411 0.72015,0.30629 0.43962,-0.8519 -0.17661,-0.72916 -0.3671,-0.98517 -0.69114,-0.92885 -0.59289,0.10304 -0.57869,-0.4015 0.0157,-0.55682 0.34843,-0.091 0.31569,-0.1286 -0.1323,-0.15169 -0.32742,-0.0169 -0.59531,0.11388 -0.59531,0.29058 0,0.4763 -0.69789,-0.32329 -0.91547,-1.04888 -0.0982,-0.32742 -0.0721,-0.59531 0.0581,-0.59531 0.13012,0 0.19108,-0.32742 0.13547,-0.72761 -0.0795,-0.5721 0.065,-0.83671 0.67634,-1.23812 0.77425,-0.50843 1.06333,-1.73784 0.40872,-1.73825 -0.68545,-4.3e-4 -0.86369,-0.66512 -0.42259,-1.57589 0.32389,-0.66877 0.35362,-0.92798 0.1155,-1.00736 -0.17634,-0.0588 -0.32062,-0.27554 -0.32062,-0.4817 0,-0.59001 -0.43617,-0.44032 -1.02789,0.35278 -0.29856,0.40018 -0.54662,0.5858 -0.55123,0.41249 -0.005,-0.17331 0.11262,-0.3899 0.26052,-0.4813 0.14789,-0.0914 0.19717,-0.28224 0.10951,-0.42408 -0.0877,-0.14184 -0.0218,-0.42366 0.14634,-0.62627 0.22389,-0.26977 0.22838,-0.51288 0.0168,-0.90827 -0.25474,-0.47599 -0.47838,-0.52516 -1.88952,-0.41544 -1.41674,0.11015 -1.59031,0.0715 -1.51114,-0.33691 0.13354,-0.68878 3.03888,-0.6785 3.73057,0.0132 0.27082,0.27081 0.43118,0.65193 0.35636,0.84691 -0.0748,0.19499 0.0483,0.42526 0.27358,0.51171 0.29852,0.11455 0.3644,0.0393 0.2429,-0.2773 -0.16897,-0.44032 -0.009,-0.43911 2.48906,0.019 0.21828,0.04 0.36233,0.26571 0.3201,0.50151 -0.0487,0.27206 0.0565,0.37762 0.28775,0.28886 0.33254,-0.1276 1.7734,1.65751 1.7734,2.1971 0,0.11442 0.2365,0.64928 0.52555,1.18859 0.42566,0.7942 0.47233,1.12031 0.24553,1.71587 -0.23122,0.60718 -0.2009,0.78142 0.174,0.9999 0.24971,0.14552 0.750555,0.51035 1.113005,0.81073 0.55933,0.46356 0.61359,0.63098 0.35878,1.10709 -0.52193,0.97523 -0.38004,1.41786 0.4274,1.33334 0.6528,-0.0683 0.72544,0.005 0.70653,0.71759 -0.0116,0.43656 0.10747,0.88305 0.26459,0.99219 0.19329,0.13428 0.15775,0.28061 -0.10993,0.45257 -0.3405,0.21875 -0.32405,0.30645 0.11816,0.6298 0.49615,0.36279 0.48251,0.40472 -0.39817,1.22411 -2.165635,2.01492 -2.07833,1.88893 -1.77308,2.55887 0.15657,0.34362 0.35484,0.61957 0.44062,0.61323 0.0858,-0.006 0.69072,-0.11467 1.3443,-0.24073 0.65359,-0.12607 1.27899,-0.17319 1.38978,-0.10471 0.3901,0.24109 -0.35113,1.14345 -0.93186,1.13443 -0.32335,-0.005 -1.09617,0.0675 -1.71736,0.16111 -1.084975,0.16354 -1.140755,0.13778 -1.416885,-0.65434 -0.30821,-0.88413 -0.92349,-1.34257 -1.8019,-1.34257 -0.38207,0 -0.54656,-0.17038 -0.54656,-0.56614 0,-0.50332 -0.6434,-1.25492 -1.09362,-1.27753 -0.30631,-0.0154 -0.4533,1.06261 -0.24427,1.79146 0.11334,0.3952 0.10546,0.99055 -0.0175,1.323 -0.19289,0.52143 -0.30111,0.56297 -0.78788,0.30246 -0.44404,-0.23764 -0.64604,-0.22022 -0.94803,0.0818 -0.33527,0.33528 -0.20605,0.40785 1.02306,0.57453 2.45899,0.33346 2.61642,0.36734 2.94079,0.63282 0.17495,0.14319 1.03247,0.33309 1.9056,0.422 1.886135,0.19207 3.076465,0.33584 3.439575,0.41543 0.14552,0.0319 0.65946,0.0361 1.14209,0.009 0.48263,-0.0267 1.31607,0.16357 1.85208,0.42289 0.53602,0.25932 1.13432,0.49831 1.32955,0.5311 0.66056,0.11094 0.66354,0.36391 0.004,0.36391 -0.36024,0 -0.8861,-0.17481 -1.16858,-0.38846 -0.59053,-0.44666 -0.91046,-0.50694 -0.91046,-0.17157 0,0.12855 0.2501,0.29913 0.55579,0.37907 0.30604,0.08 0.47736,0.27224 0.38126,0.42773 -0.24318,0.39346 -1.07833,0.3529 -1.4288,-0.0694 -0.17814,-0.21466 -0.62012,-0.30362 -1.13383,-0.22822 -0.61023,0.0896 -0.93924,-0.01 -1.19565,-0.36024 -0.19457,-0.26609 -0.35376,-0.34198 -0.35376,-0.16865 0,0.46979 -0.3563,0.38325 -1.0384,-0.25223 -0.5801,-0.54043 -0.60111,-0.54248 -0.4426,-0.043 0.14423,0.45441 0.0361,0.52925 -0.81042,0.56108 -0.537265,0.0202 -1.121455,-0.0833 -1.298185,-0.22996 -0.39454,-0.32744 -2.23227,-0.58671 -2.22854,-0.3144 10e-4,0.10825 0.47773,0.39633 1.05833,0.64019 0.5806,0.24385 1.05564,0.57127 1.05564,0.7276 0,0.32034 -0.34776,0.37744 -0.62292,0.10228 z m -2.81666,-1.40555 c 0,-0.14553 -0.11906,-0.26459 -0.26459,-0.26459 -0.14552,0 -0.26458,-0.17859 -0.26458,-0.39687 0,-0.43808 -0.41211,-0.53574 -0.64827,-0.15363 -0.16452,0.2662 0.53751,1.07967 0.93175,1.07967 0.13513,0 0.24569,-0.11906 0.24569,-0.26458 z m 4.49791,0 c 0,-0.14553 -0.11906,-0.26459 -0.26458,-0.26459 -0.14552,0 -0.26458,0.11906 -0.26458,0.26459 0,0.14552 0.11906,0.26458 0.26458,0.26458 0.14552,0 0.26458,-0.11906 0.26458,-0.26458 z m -11.14448,-6.22983 c 0.20674,-0.20673 -0.0636,-0.30727 -1.22479,-0.45547 -1.00118,-0.12778 -1.12448,-0.0845 -1.12448,0.39429 0,0.48378 0.11197,0.5199 1.11455,0.35958 0.613,-0.098 1.16863,-0.2323 1.23472,-0.2984 z m 1.48719,0.14441 c -0.0899,-0.14552 -0.40164,-0.26458 -0.69269,-0.26458 -0.29104,0 -0.45558,0.11906 -0.36564,0.26458 0.0899,0.14552 0.40165,0.26458 0.69269,0.26458 0.29104,0 0.45558,-0.11906 0.36564,-0.26458 z m 10.282135,-0.13229 c 0.089,-0.23199 0.004,-0.39688 -0.20487,-0.39688 -0.404255,0 -1.914015,-1.86087 -1.797295,-2.21527 0.0418,-0.12699 -0.0937,-0.16574 -0.30127,-0.0861 -0.20753,0.0796 -0.63915,-0.0386 -0.95916,-0.26274 -0.62321,-0.43652 -0.95821,-0.26505 -1.10808,0.56717 -0.0721,0.40032 0.24399,0.685 1.40431,1.26482 0.82354,0.41152 1.56448,0.9232 1.64654,1.13705 0.19479,0.5076 1.124125,0.50193 1.319825,-0.008 z m -2.741505,-0.26459 c 0,-0.21828 -0.16371,-0.39687 -0.3638,-0.39687 -0.2001,0 -0.73588,-0.0744 -1.19063,-0.16537 -1.17137,-0.23427 -1.03328,0.27882 0.16537,0.61444 1.39031,0.38928 1.38906,0.38933 1.38906,-0.0522 z m 2.645825,-0.92604 c 0,-0.14552 -0.11906,-0.26458 -0.26458,-0.26458 -0.145515,0 -0.264585,0.11906 -0.264585,0.26458 0,0.14552 0.11907,0.26458 0.264585,0.26458 0.14552,0 0.26458,-0.11906 0.26458,-0.26458 z m -1.266665,-2.4426 c -0.45821,-0.45821 -0.59249,-0.48284 -0.93139,-0.17088 -0.34652,0.31898 -0.2918,0.41958 0.43801,0.80523 0.98941,0.52282 1.27865,0.15093 0.49338,-0.63435 z m -0.32083,-1.23416 c 0,-0.13044 -0.42647,-0.61162 -0.94772,-1.06928 -0.6454,-0.56667 -1.1096,-0.78073 -1.45521,-0.67104 -0.34107,0.10825 -0.50749,0.0352 -0.50749,-0.22277 0,-0.47724 -0.92709,-0.74165 -1.65555,-0.47217 -0.54188,0.20045 -0.5415,0.20488 0.0544,0.62227 0.3301,0.23121 0.52905,0.53547 0.44212,0.67613 -0.0869,0.14066 0.0192,0.40288 0.2359,0.58271 0.35987,0.29866 0.50687,0.18351 0.42529,-0.33315 -0.0584,-0.37001 0.51348,-0.20095 0.66615,0.19692 0.0834,0.21744 0.24591,0.33714 0.36104,0.26598 0.11513,-0.0711 0.54913,0.0479 0.96446,0.26448 0.8557,0.44628 1.4166,0.5096 1.4166,0.15992 z m -4.7625,-0.55657 c 0,-0.14552 -0.12609,-0.26459 -0.2802,-0.26459 -0.15411,0 -0.20661,0.11907 -0.11667,0.26459 0.0899,0.14552 0.21602,0.26458 0.28019,0.26458 0.0642,0 0.11668,-0.11906 0.11668,-0.26458 z m 3.96875,-2.09777 c 0,-0.13513 -0.18618,-0.43187 -0.41374,-0.65943 -0.22756,-0.22756 -0.34412,-0.5264 -0.25902,-0.6641 0.0851,-0.13769 -0.0432,-0.36113 -0.28519,-0.49653 -0.3027,-0.1694 -0.39784,-0.46623 -0.30504,-0.95167 0.14964,-0.78279 -0.49676,-1.33627 -1.23138,-1.05437 -0.22883,0.0878 -0.41605,0.0279 -0.41605,-0.13324 0,-0.16109 -0.12734,-0.29289 -0.28298,-0.29289 -0.55724,0 -0.1183,1.16789 0.49313,1.31207 0.54563,0.12866 0.56963,0.19422 0.23732,0.64829 -0.47718,0.65203 -0.0453,1.99161 0.58901,1.82707 0.2303,-0.0597 0.65686,0.0719 0.9479,0.29252 0.61129,0.46338 0.92604,0.52194 0.92604,0.17228 z m -1.98437,-5.57877 c 0,-0.2382 -0.30508,-0.42802 -0.77373,-0.48143 -0.56112,-0.0639 -0.67228,-0.15087 -0.40454,-0.31634 0.20306,-0.12549 0.30031,-0.29705 0.21612,-0.38124 -0.0842,-0.0842 -0.28571,0.007 -0.44782,0.20208 -0.22059,0.26578 -0.19044,0.50408 0.11978,0.94698 0.45083,0.64365 1.29019,0.66313 1.29019,0.0299 z m 15.631615,20.53447 c -0.57042,-0.1624 -1.08164,-0.42881 -1.13604,-0.59203 -0.0913,-0.27387 1.53232,-0.26421 4.22369,0.0251 0.40018,0.043 0.9062,0.0931 1.12448,0.1113 0.47887,0.0399 0.53282,0.45813 0.0661,0.51279 -1.78473,0.20905 -3.41988,0.18719 -4.27827,-0.0572 z m -2.44575,-0.11626 c -0.14294,-0.0957 -0.34185,-0.39558 -0.44203,-0.66644 -0.14002,-0.37862 -0.0847,-0.45508 0.23938,-0.33073 0.23183,0.089 0.59037,0.16175 0.79675,0.16175 0.20638,0 0.37523,0.16585 0.37523,0.36857 0,0.4314 -0.59452,0.71773 -0.96933,0.46685 z m 14.1985,-1.12795 c -0.94588,-0.1165 -2.3151,-0.28923 -3.04271,-0.38384 -0.7276,-0.0946 -2.05497,-0.18146 -2.94971,-0.19302 -1.2311,-0.0159 -1.59426,-0.1058 -1.49305,-0.36957 0.15353,-0.40007 -0.34046,-0.47854 -0.57934,-0.092 -0.0924,0.14955 -0.95403,0.1965 -2.06613,0.11258 -2.95933,-0.22332 -3.35395,-0.27205 -3.51606,-0.43415 -0.0831,-0.0831 -0.46962,-0.0665 -0.85885,0.0371 -1.12469,0.29914 -1.75032,0.19661 -1.84724,-0.30275 -0.076,-0.39136 0.11545,-0.46302 1.23683,-0.46302 1.68146,0 1.95896,-0.40712 0.56264,-0.82547 -0.90676,-0.27167 -1.21521,-0.25532 -1.96947,0.10436 -0.77166,0.36797 -0.91455,0.37378 -1.04174,0.0423 -0.1853,-0.48288 0.2624,-1.70247 0.62495,-1.70247 0.14912,0 0.27113,-0.21431 0.27113,-0.47625 0,-0.26194 0.13891,-0.61515 0.30868,-0.78493 0.16978,-0.16977 0.30868,-0.84331 0.30868,-1.49674 0,-0.72238 0.133,-1.23909 0.33931,-1.31826 0.21521,-0.0826 0.28398,0.014 0.18802,0.26402 -0.0936,0.24389 -0.0152,0.36487 0.20563,0.31725 0.1963,-0.0423 0.39428,0.16422 0.43996,0.45901 0.0629,0.40562 0.5148,0.67285 1.85837,1.09885 0.97642,0.30959 1.86851,0.47526 1.98242,0.36817 0.36891,-0.34684 -0.0974,-1.03308 -0.88978,-1.30928 -0.4249,-0.14812 -0.77254,-0.45112 -0.77254,-0.67334 0,-0.3111 -0.18951,-0.36612 -0.824,-0.23922 -0.77771,0.15554 -0.80691,0.13288 -0.51985,-0.40349 0.35403,-0.66152 0.46708,-0.68038 1.4235,-0.23756 0.39287,0.1819 0.65847,0.47956 0.59022,0.66146 -0.16737,0.44606 0.2494,0.42022 0.63061,-0.0391 0.24313,-0.29296 0.15995,-0.48546 -0.40016,-0.92604 -0.3889,-0.30591 -0.79622,-0.55621 -0.90514,-0.55621 -0.10893,0 -0.26261,-0.24688 -0.34152,-0.54864 -0.11006,-0.42087 -0.31697,-0.5287 -0.88849,-0.46302 -0.85484,0.0982 -1.10366,0.75204 -0.51155,1.34415 0.34379,0.34379 0.34668,0.46278 0.0216,0.89201 -0.2941,0.38836 -0.3769,0.40907 -0.3835,0.0959 -0.005,-0.21966 -0.24654,-0.54809 -0.53758,-0.72985 -0.29104,-0.18176 -0.52917,-0.50805 -0.52917,-0.7251 0,-0.21705 -0.0893,-0.38053 -0.19844,-0.3633 -0.54193,0.0856 -0.87256,-0.0614 -0.71429,-0.31745 0.10757,-0.17406 -0.0159,-0.25355 -0.31512,-0.20297 -0.27057,0.0457 -0.78632,-0.12317 -1.14612,-0.37534 -0.35981,-0.25217 -0.99191,-0.45849 -1.40468,-0.45849 -0.43296,0 -0.68131,-0.11195 -0.58697,-0.26458 0.0899,-0.14553 0.58612,-0.26459 1.10263,-0.26459 0.88085,0 0.92832,-0.043 0.76528,-0.69257 -0.22129,-0.88169 0.462,-1.68868 1.42982,-1.68868 0.38619,0 0.91427,-0.15509 1.17351,-0.34465 0.41631,-0.30442 0.42481,-0.38326 0.0728,-0.67539 -0.3297,-0.27362 -0.42776,-0.2386 -0.56785,0.20279 -0.17802,0.56088 -0.25818,0.56145 -2.85686,0.0205 -0.83654,-0.17415 -1.04064,-0.12666 -1.26608,0.29458 -0.30436,0.5687 -0.77932,0.67167 -0.77932,0.16896 0,-0.42979 0.99936,-1.05737 1.34429,-0.84419 0.16582,0.10249 0.19945,-0.0955 0.0902,-0.53086 -0.27547,-1.09756 0.48154,-1.74247 1.89034,-1.61041 1.26731,0.1188 2.1495,0.51178 2.79166,1.24356 0.23535,0.2682 0.6223,0.48763 0.85989,0.48763 0.28978,0 0.43199,0.22842 0.43199,0.69386 0,0.55422 0.0722,0.6339 0.35901,0.39591 0.20635,-0.17126 0.71257,-0.22722 1.19062,-0.13161 0.4574,0.0915 0.83162,0.0805 0.83162,-0.0244 0,-0.31688 -0.8942,-1.72755 -1.09508,-1.72755 -0.10298,0 -0.53487,-0.29252 -0.95977,-0.65005 -0.55742,-0.46902 -0.85284,-0.56976 -1.06085,-0.36174 -0.15857,0.15857 -0.49014,0.21086 -0.73682,0.1162 -0.34984,-0.13425 -0.41479,-0.37997 -0.29521,-1.11685 0.12127,-0.74733 0.0748,-0.91462 -0.22225,-0.80062 -0.20656,0.0793 -0.44594,0.0302 -0.53195,-0.10891 -0.086,-0.13916 -0.8538,-0.25303 -1.70621,-0.25303 -0.85241,0 -1.58953,-0.11498 -1.63803,-0.25552 -0.0485,-0.14054 -0.50492,-0.28937 -1.01424,-0.33073 -0.93308,-0.0758 -1.79491,-0.61745 -1.48132,-0.93104 0.22045,-0.22045 1.10388,-0.362 2.34122,-0.37513 0.5457,-0.006 0.99218,-0.0917 0.99218,-0.19081 0,-0.51189 -0.87752,-1.31142 -1.64415,-1.498 -1.91704,-0.46659 -2.3246,-0.25052 -2.3246,1.23238 0,0.56427 -0.0952,1.02594 -0.21166,1.02594 -0.430135,0 -0.846675,-0.65519 -0.846675,-1.33174 0,-0.93976 -0.16021,-1.04294 -1.0802,-0.69568 -0.61776,0.23317 -0.81772,0.50107 -0.9387,1.25766 -0.30354,1.89825 -1.1561,2.0945 -1.1561,0.26613 0,-1.9407 1.45927,-2.86182 4.918185,-3.10448 1.89068,-0.13264 2.24354,-0.0925 2.38303,0.271 0.0901,0.23468 0.29481,0.42669 0.45501,0.42669 0.16019,0 0.72753,0.42601 1.26075,0.94668 0.7171,0.70024 1.271,0.9843 2.12781,1.0912 1.46444,0.18271 2.98055,1.48679 2.75824,2.3725 -0.16172,0.64436 0.8921,1.67504 1.71264,1.67504 0.56529,0 1.55017,1.3777 1.09366,1.52987 -0.16784,0.0559 -0.30516,0.20713 -0.30516,0.33596 0,0.12882 0.14883,0.17712 0.33073,0.10731 0.23702,-0.091 0.33073,0.2427 0.33073,1.17762 0,1.01603 0.14167,1.45533 0.64062,1.98644 0.53727,0.57189 0.63119,0.91526 0.58211,2.12825 -0.051,1.25939 0.0287,1.52216 0.61615,2.03295 0.77982,0.67805 0.86215,1.33051 0.23316,1.84785 -0.40168,0.33037 -0.42511,0.28041 -0.25977,-0.55393 0.16903,-0.85292 0.15423,-0.88067 -0.21154,-0.39687 -0.59296,0.78429 -0.51059,1.44106 0.1852,1.47675 0.79424,0.0407 3.27988,0.0347 4.43177,-0.0108 0.82874,-0.0327 0.87739,-0.0735 0.46303,-0.38805 -0.49818,-0.37817 -0.63986,-1.48377 -0.19014,-1.48377 0.15009,0 0.34142,0.1786 0.42518,0.39688 0.0838,0.21828 0.37769,0.39687 0.65316,0.39687 0.32925,0 0.50086,0.18665 0.50086,0.54478 0,0.29963 0.11386,0.47442 0.25303,0.38841 0.13916,-0.086 0.18068,-0.3449 0.0923,-0.57532 -0.12677,-0.33037 -0.0404,-0.38074 0.40843,-0.23828 0.84091,0.26689 0.72451,-0.44243 -0.13833,-0.84307 -0.50839,-0.23605 -0.79919,-0.2471 -1.0489,-0.0399 -0.25386,0.21069 -0.4527,0.17952 -0.74974,-0.11751 -0.52478,-0.52478 -0.52556,-0.87211 -9.8e-4,-0.43675 0.2218,0.18408 0.48624,0.25171 0.58765,0.15031 0.10141,-0.10141 0.009,-0.29515 -0.20483,-0.43053 -0.28131,-0.1779 -0.11846,-0.24727 0.58736,-0.2502 0.53711,-0.002 1.04942,0.11383 1.13846,0.2579 0.22473,0.36361 0.89684,-0.29902 0.73392,-0.72358 -0.0701,-0.18267 0.0602,-0.33212 0.28943,-0.33212 0.26982,0 0.36074,-0.14629 0.25776,-0.41466 -0.105,-0.27362 -0.24821,-0.32557 -0.42103,-0.15275 -0.43529,0.43529 -1.55809,-0.2184 -1.37359,-0.79971 0.0847,-0.26673 0.0291,-0.48496 -0.12345,-0.48496 -0.15255,0 -0.35208,0.29765 -0.44339,0.66145 -0.18002,0.71732 -0.97555,0.93644 -0.84784,0.23354 0.0428,-0.23536 -0.13697,-0.56278 -0.39941,-0.72761 -0.38249,-0.24023 -0.52944,-0.20783 -0.74075,0.16335 -0.14498,0.25466 -0.4433,0.46302 -0.66294,0.46302 -0.21964,0 -0.33084,-0.11084 -0.24712,-0.2463 0.0837,-0.13547 0.0312,-0.32109 -0.11668,-0.41249 -0.34993,-0.21627 -0.34529,-1.01107 0.008,-1.36433 0.39094,-0.39094 3.85177,0.59341 4.90157,1.39414 0.45355,0.34593 0.93986,0.62898 1.0807,0.62898 0.14083,0 0.76616,0.24645 1.38962,0.54767 1.92316,0.92917 2.50115,0.18471 1.04201,-1.34213 -0.78084,-0.81708 -0.85651,-0.84248 -1.18235,-0.39686 -0.42483,0.58099 -1.01616,0.20661 -1.26979,-0.80391 -0.14305,-0.56995 -0.57846,-0.7982 -1.29186,-0.67722 -0.11694,0.0198 -0.39368,-0.145 -0.61497,-0.3663 -0.36009,-0.36009 -0.3586,-0.41915 0.0142,-0.5622 0.58956,-0.22623 0.51722,-0.63239 -0.11263,-0.63239 -0.29104,0 -0.52917,-0.11906 -0.52917,-0.26458 0,-0.14552 0.16586,-0.26458 0.36857,-0.26458 0.20271,0 0.44596,-0.20168 0.54054,-0.44817 0.14379,-0.3747 0.24983,-0.32049 0.64689,0.33073 0.63585,1.04284 1.31699,1.58375 1.61641,1.28362 0.13177,-0.13208 0.42598,-0.68663 0.6538,-1.23233 0.3769,-0.90279 0.37654,-0.99219 -0.004,-0.99219 -0.30564,0 -0.37036,0.15091 -0.24037,0.56047 0.22529,0.70982 -0.41461,0.56293 -0.80368,-0.18449 -0.33947,-0.65213 -1.66749,-0.82014 -1.89045,-0.23915 -0.0892,0.23251 -0.32164,0.36158 -0.51648,0.28681 -0.19485,-0.0748 -0.43017,-0.0131 -0.52294,0.13698 -0.10372,0.16783 -0.38874,0.0662 -0.74017,-0.26396 -0.68198,-0.64069 -1.44427,-0.37733 -1.03332,0.357 0.13915,0.24865 0.36136,0.41165 0.4938,0.36224 0.13244,-0.0494 0.27762,0.16873 0.32264,0.48479 0.0677,0.47525 -0.0185,0.54841 -0.49828,0.42294 -0.31906,-0.0834 -0.63766,-0.37179 -0.70801,-0.64079 -0.12841,-0.49104 -0.25342,-0.52274 -2.44743,-0.62045 -0.78755,-0.0351 -1.19062,-0.17212 -1.19062,-0.40481 0,-0.42882 1.2625,-0.80479 1.73072,-0.51541 0.18587,0.11488 0.48554,0.15224 0.66592,0.083 0.18037,-0.0692 0.40656,0.001 0.50263,0.15677 0.27802,0.44986 0.74629,0.32709 0.56402,-0.14787 -0.0978,-0.25499 0.0198,-0.56574 0.28854,-0.76226 0.37335,-0.27301 0.62883,-0.2405 1.44225,0.18347 l 0.9885,0.51524 0.57262,-0.57262 c 0.37953,-0.37952 0.78909,-0.53125 1.21451,-0.44992 0.86887,0.16609 1.08907,-0.27641 0.24319,-0.48872 -0.36975,-0.0928 -0.67228,-0.25911 -0.67228,-0.36958 0,-0.11048 -0.48062,-0.17374 -1.06805,-0.1406 -1.26887,0.0716 -1.29102,-0.39996 -0.0357,-0.75998 0.84672,-0.24283 1.15248,-0.69329 0.4706,-0.69329 -0.20271,0 -0.44218,-0.19183 -0.53216,-0.4263 -0.13503,-0.35188 -0.036,-0.39448 0.56701,-0.24397 0.40183,0.10028 0.91857,0.35165 1.1483,0.5586 0.22974,0.20694 0.72187,0.37626 1.09362,0.37626 0.43965,0 0.7215,0.17433 0.80634,0.49873 0.0947,0.36228 0.30376,0.4656 0.76398,0.37762 0.56075,-0.10719 0.785,0.14722 1.95096,2.21325 0.72457,1.28389 1.32124,2.52905 1.32595,2.76701 0.005,0.23796 0.15557,0.60982 0.33528,0.82636 0.17971,0.21654 0.25705,0.57535 0.17186,0.79735 -0.0852,0.22201 -0.0438,0.47233 0.0921,0.55627 0.29198,0.18046 0.21555,1.06828 -0.17938,2.08372 -0.29061,0.74723 -0.66885,0.93013 -0.95753,0.46302 -0.19252,-0.31149 -1.19063,-0.35932 -1.19063,-0.0571 0,0.11415 0.35719,0.41854 0.79375,0.67642 0.44883,0.26513 0.79375,0.69233 0.79375,0.98309 0,0.28281 0.0893,0.51664 0.19844,0.51961 2.15218,0.0586 4.15767,0.27612 4.35375,0.4722 0.45021,0.45021 -1.15821,0.77191 -3.82099,0.76422 -2.14516,-0.006 -2.66688,0.0747 -3.11884,0.48375 -0.48621,0.44002 -0.49809,0.51616 -0.11407,0.73107 0.23577,0.13194 0.81396,0.16761 1.28487,0.0793 1.01857,-0.19108 2.45796,0.25637 2.78372,0.86535 0.18478,0.34541 0.0999,0.44318 -0.41158,0.47392 -0.51937,0.0312 -0.61349,-0.0586 -0.48514,-0.46302 0.18873,-0.59464 -0.082,-0.62964 -0.78074,-0.10094 -0.38518,0.29145 -0.59509,0.31125 -0.87111,0.0822 -0.25713,-0.2134 -0.44616,-0.2193 -0.64531,-0.0202 -0.19915,0.19915 -0.0866,0.40942 0.38407,0.71785 0.47991,0.31445 1.44822,0.4649 3.46926,0.53904 1.54195,0.0566 2.89221,0.15561 3.00059,0.2201 0.36383,0.2165 1.64423,0.11334 1.49952,-0.12081 -0.0787,-0.12734 -0.31465,-0.23152 -0.52434,-0.23152 -0.2097,0 -0.38126,-0.12186 -0.38126,-0.27081 0,-0.15255 -0.4044,-0.22625 -0.92605,-0.16877 -0.50932,0.0561 -0.92604,0.009 -0.92604,-0.10442 0,-0.11355 -0.0625,-0.36943 -0.13896,-0.56861 -0.16228,-0.42289 0.58958,-0.41932 3.44912,0.0164 1.02023,0.15545 2.62757,0.30262 3.57188,0.32705 0.94431,0.0244 1.85322,0.15214 2.0198,0.2838 0.16658,0.13166 0.40471,0.21052 0.52917,0.17526 0.12445,-0.0353 0.74127,0.0229 1.37071,0.12932 1.53687,0.25978 1.34848,0.86504 -0.24272,0.77979 -0.64146,-0.0344 -1.46395,-0.0746 -1.82775,-0.0895 -0.3638,-0.0149 -0.81533,-0.15434 -1.0034,-0.30995 -0.2248,-0.18601 -0.43134,-0.19353 -0.60291,-0.022 -0.15963,0.15963 -0.84291,0.182 -1.75957,0.0576 -1.72115,-0.23356 -1.98139,-0.14347 -1.8723,0.64817 0.0726,0.52689 -0.0252,0.56715 -1.24411,0.51191 -0.7276,-0.033 -1.97662,-0.0723 -2.77558,-0.0873 -0.79897,-0.015 -1.52893,-0.15073 -1.62214,-0.30155 -0.10984,-0.17772 -0.32665,-0.18625 -0.61615,-0.0242 -0.48703,0.27255 -3.521,-0.0803 -3.99102,-0.46414 -0.15049,-0.12291 -0.68628,-0.13137 -1.19062,-0.0188 -0.50434,0.11257 -1.27418,0.10687 -1.71074,-0.0127 -0.43656,-0.11953 -1.29977,-0.23768 -1.91823,-0.26255 -0.61846,-0.0249 -1.12448,-0.15201 -1.12448,-0.28252 0,-0.13052 -0.14391,-0.14836 -0.31981,-0.0396 -0.45925,0.28383 -4.24778,0.28909 -4.64113,0.006 -0.19626,-0.14103 -0.33073,-0.13996 -0.33073,0.003 0,0.33662 -1.14883,0.31427 -1.38501,-0.0269 -0.13335,-0.19266 -0.19565,-0.186 -0.19843,0.0212 -0.002,0.16612 -0.30961,0.37874 -0.68308,0.47247 -0.43608,0.10945 -0.64908,0.32337 -0.59532,0.59787 0.0625,0.3193 0.45186,0.44745 1.53894,0.50657 0.80036,0.0435 2.52677,0.13708 3.83646,0.2079 1.30967,0.0708 2.91703,0.24586 3.57186,0.38896 0.65486,0.14311 1.99595,0.34325 2.98025,0.44476 0.98428,0.10151 1.84735,0.27798 1.91792,0.39216 0.10048,0.16258 -1.45842,0.90801 -1.5642,0.74796 -0.0147,-0.0222 -0.80057,-0.13567 -1.74647,-0.25218 z m -16.66875,-3.27935 c 0.18374,-0.22138 0.21239,-0.39687 0.0648,-0.39687 -0.14553,0 -0.41281,0.17859 -0.59397,0.39687 -0.18373,0.22139 -0.21238,0.39688 -0.0648,0.39688 0.14552,0 0.4128,-0.1786 0.59396,-0.39688 z m 1.91823,-1.02977 c 0.25466,-0.19331 0.46302,-0.44223 0.46302,-0.55315 0,-0.11091 -0.16858,-0.0618 -0.37462,0.10925 -0.2992,0.24831 -0.40933,0.20156 -0.547,-0.23219 -0.25547,-0.80492 -0.70297,-0.65863 -0.5644,0.18451 0.0658,0.40018 0.12938,0.75737 0.14135,0.79375 0.0525,0.15975 0.45474,0.0219 0.88165,-0.30217 z m 15.34598,-0.2004 c -0.3187,-0.31869 -1.40884,-0.5187 -3.37358,-0.61895 -0.87313,-0.0446 -2.06075,-0.20576 -2.63915,-0.35826 -0.57841,-0.15249 -1.11419,-0.1863 -1.19063,-0.0751 -0.0764,0.11117 -0.58894,0.21204 -1.13891,0.22417 -0.945,0.0208 -1.77819,0.42717 -1.77819,0.86719 0,0.10958 2.06304,0.16457 4.58453,0.12219 2.52148,-0.0424 4.74822,0.0241 4.9483,0.14778 0.45094,0.27869 0.92568,0.0291 0.58763,-0.30897 z m 3.37329,0.30413 c 0,-0.14552 -0.20836,-0.26621 -0.46302,-0.26819 -0.25466,-0.002 -0.76068,-0.069 -1.12448,-0.14888 l -0.66146,-0.14526 0.66146,0.40408 c 0.75944,0.46394 1.5875,0.54648 1.5875,0.15825 z m -15.99641,-0.28219 c 0.24111,-0.39013 -0.65622,-0.9954 -1.24676,-0.84097 -0.61563,0.16099 -0.62941,0.78175 -0.0209,0.94078 0.80984,0.21163 1.08874,0.18967 1.26765,-0.0998 z m 14.54175,-1.20984 c 0.62714,-0.24065 -0.0253,-0.61785 -1.05888,-0.61217 -0.75496,0.004 -0.76865,0.0233 -0.28016,0.39282 0.57741,0.43674 0.71416,0.45914 1.33904,0.21935 z m -2.32688,-1.25364 c -0.1526,-0.4578 -0.83094,-0.35147 -0.9266,0.14524 -0.0641,0.33311 0.0519,0.40643 0.47022,0.29704 0.30547,-0.0799 0.51084,-0.2789 0.45638,-0.44228 z m 1.04858,-1.13382 c -0.0782,-0.0782 -0.28194,-0.0559 -0.45268,0.0496 -0.23017,0.14226 -0.21762,0.24953 0.0485,0.41489 0.35281,0.2192 0.69479,-0.17385 0.40414,-0.4645 z m 2.46838,-0.11514 c 0,-0.13129 -0.24595,-0.2387 -0.54656,-0.2387 -0.30061,0 -0.79064,-0.13063 -1.08895,-0.29028 -0.43122,-0.23078 -0.50903,-0.21722 -0.37965,0.0661 0.0895,0.19603 0.23358,0.55467 0.32018,0.79697 0.12981,0.36322 0.29238,0.39351 0.92621,0.17256 0.42282,-0.1474 0.76877,-0.37541 0.76877,-0.5067 z m 1.5875,0.14256 c 0,-0.20969 -0.1786,-0.38126 -0.39688,-0.38126 -0.39852,0 -0.54389,0.55853 -0.22768,0.87475 0.24692,0.24692 0.62456,-0.0515 0.62456,-0.49349 z m -4.7625,-0.63023 c 0,-0.13693 -0.11906,-0.32255 -0.26459,-0.41249 -0.14552,-0.0899 -0.26458,0.0221 -0.26458,0.24897 0,0.22687 0.11906,0.41249 0.26458,0.41249 0.14553,0 0.26459,-0.11204 0.26459,-0.24897 z m -15.61973,-2.90864 c 0.15064,-0.28147 0.27389,-0.68654 0.27389,-0.90016 0,-0.40084 -1.27684,-0.96932 -2.17717,-0.96932 -0.43807,0 -0.48396,0.12176 -0.32267,0.85612 0.31194,1.42026 1.67588,2.04119 2.22595,1.01336 z m 21.96973,-0.28198 c 0,-0.14552 -0.0525,-0.26458 -0.11668,-0.26458 -0.0642,0 -0.19026,0.11906 -0.2802,0.26458 -0.0899,0.14553 -0.0374,0.26459 0.11668,0.26459 0.15411,0 0.2802,-0.11906 0.2802,-0.26459 z m -2.11667,-3.84004 c 0,-0.43757 -0.47419,-1.35939 -0.98635,-1.91747 -0.17869,-0.19472 -0.43765,-0.55552 -0.57547,-0.80178 -0.13781,-0.24627 -0.34535,-0.35298 -0.46119,-0.23714 -0.11583,0.11584 -0.0897,0.29345 0.0581,0.39467 0.39709,0.27196 1.43573,2.13871 1.43573,2.58043 0,0.20996 0.11907,0.38175 0.26459,0.38175 0.14552,0 0.26458,-0.18021 0.26458,-0.40046 z m -23.01875,-0.92246 c 0,-0.14552 -0.12609,-0.26458 -0.2802,-0.26458 -0.15411,0 -0.20661,0.11906 -0.11667,0.26458 0.0899,0.14552 0.21602,0.26459 0.28019,0.26459 0.0642,0 0.11668,-0.11907 0.11668,-0.26459 z m 3.43958,-4.23333 c -0.21828,-0.14106 -0.57546,-0.25648 -0.79375,-0.25648 -0.35277,0 -0.35277,0.0285 0,0.25648 0.21829,0.14106 0.57547,0.25648 0.79375,0.25648 0.35278,0 0.35278,-0.0285 0,-0.25648 z m -3.9026,19.62691 c -1.11891,-0.15891 -0.59774,-0.57691 0.7193,-0.57691 1.01369,0 1.2823,0.0842 1.17347,0.36782 -0.13448,0.35045 -0.56365,0.39786 -1.89277,0.20909 z m 34.62194,-4.83074 c -0.4941,-0.30123 -0.97035,-0.44563 -1.05833,-0.32089 -0.19309,0.27376 -0.70451,0.28191 -0.97094,0.0155 -0.1065,-0.10649 -0.44384,-0.13507 -0.74966,-0.0635 -0.30582,0.0716 -0.73462,0.01 -0.9529,-0.13711 -0.34384,-0.2315 -0.34587,-0.30003 -0.0152,-0.51273 0.26319,-0.16932 0.49572,-0.10774 0.7492,0.19843 0.33896,0.40942 0.35528,0.40546 0.20973,-0.051 -0.13324,-0.41782 -0.0645,-0.46333 0.44143,-0.2922 0.32958,0.11149 1.37315,0.25453 2.31903,0.31788 1.91338,0.12814 2.37233,0.37154 1.86139,0.98719 -0.4467,0.53823 -0.75805,0.51419 -1.83372,-0.14158 z m 1.14899,-0.26668 c -0.0852,-0.13784 -0.26767,-0.18092 -0.40551,-0.0957 -0.13784,0.0852 -0.18091,0.26766 -0.0957,0.4055 0.0852,0.13784 0.26766,0.18092 0.4055,0.0957 0.13784,-0.0852 0.18092,-0.26766 0.0957,-0.4055 z M 90.087245,120.3545 c -0.20551,-0.33252 0.56868,-0.80854 1.0282,-0.63221 0.23673,0.0908 0.43041,0.25761 0.43041,0.3706 0,0.2781 -1.30388,0.51197 -1.45861,0.26161 z m -3.41266,-1.60229 c -0.37674,-0.44773 -0.68498,-0.9597 -0.68498,-1.13771 0,-0.17801 -0.13958,-0.46324 -0.31019,-0.63385 -0.1706,-0.1706 -0.33769,-0.58137 -0.37131,-0.91281 -0.0336,-0.33144 -0.20798,-1.11578 -0.38748,-1.74298 -0.38175,-1.33388 -0.0148,-2.33433 0.99722,-2.71912 0.73098,-0.27792 0.79086,-1.03519 0.0962,-1.21684 -1.32572,-0.34669 -0.58744,-2.34993 1.18307,-3.21011 0.65333,-0.31741 1.24348,-0.57712 1.31143,-0.57712 0.28312,0 -0.0823,1.17216 -0.39824,1.27747 -0.56204,0.18735 -1.59155,1.17366 -1.59155,1.52477 0,0.34554 1.76685,1.28317 2.96571,1.57382 0.97649,0.23675 1.49955,0.87136 0.98602,1.19631 -0.4702,0.29753 -0.77673,0.31395 -0.77673,0.0416 0,-0.11378 -0.32075,-0.23342 -0.71278,-0.26587 -0.39204,-0.0324 -0.80693,-0.20724 -0.922,-0.38844 -0.16574,-0.26099 -0.21004,-0.25968 -0.21325,0.006 -0.003,0.22509 -0.2208,0.28137 -0.66154,0.17076 -0.84308,-0.2116 -1.1314,0.47601 -1.21959,2.90854 -0.0619,1.70894 -0.034,1.79384 0.90658,2.75711 0.88856,0.90998 1.31101,2.1622 0.72943,2.1622 -0.13258,0 -0.5493,-0.36632 -0.92604,-0.81405 z m 0.6654,-7.99557 c -0.33959,-0.33959 -0.68396,-0.0771 -0.43255,0.32966 0.0974,0.15758 0.29828,0.21159 0.44642,0.12003 0.18072,-0.11168 0.17615,-0.25967 -0.0139,-0.44969 z m 3.33991,7.84849 c -0.08,-0.12943 0.0101,-0.44802 0.20015,-0.70796 0.40521,-0.55417 1.74601,-0.72854 1.91573,-0.24914 0.0771,0.21763 -0.15738,0.33073 -0.68556,0.33073 -0.4665,0 -0.90363,0.18044 -1.04376,0.43085 -0.13262,0.23697 -0.30657,0.32495 -0.38656,0.19552 z m 22.723765,-9.14309 c -0.14237,-0.71187 -0.0359,-0.98091 0.6813,-1.72083 0.53664,-0.55367 1.01409,-0.82496 1.29498,-0.73581 0.24532,0.0779 0.508,-0.0232 0.58552,-0.2252 0.20744,-0.54057 1.6916,-0.68784 3.49394,-0.34671 1.8192,0.34433 2.24896,0.56223 2.24896,1.14027 0,0.35872 -0.0766,0.36472 -0.59531,0.0466 -0.39001,-0.23918 -1.27964,-0.34837 -2.57969,-0.31662 -2.47371,0.0604 -3.12349,0.25748 -3.22628,0.97854 -0.0445,0.31258 -0.17637,0.50881 -0.29291,0.43605 -0.11654,-0.0728 -0.39931,0.25466 -0.62836,0.7276 -0.52382,1.08156 -0.76825,1.08557 -0.98215,0.0161 z m 7.65373,-3.48144 c -0.35108,-0.25671 -0.39901,-0.41119 -0.17127,-0.55194 0.32811,-0.20279 1.08682,0.2693 1.08682,0.67624 0,0.3342 -0.3543,0.28609 -0.91555,-0.1243 z"
       id="path4" />
  </g>
</svg>
