<?xml version="1.0" encoding="UTF-8" standalone="no"?>
<!-- Created with Inkscape (http://www.inkscape.org/) -->

<svg
   width="40.195774mm"
   height="45.934261mm"
   viewBox="0 0 40.195774 45.934251"
   version="1.1"
   id="svg1"
   inkscape:version="1.4.1-rc (06eac75fbf, 2025-03-29)"
   sodipodi:docname="threetrees1.svg"
   xmlns:inkscape="http://www.inkscape.org/namespaces/inkscape"
   xmlns:sodipodi="http://sodipodi.sourceforge.net/DTD/sodipodi-0.dtd"
   xmlns="http://www.w3.org/2000/svg"
   xmlns:svg="http://www.w3.org/2000/svg">
  <sodipodi:namedview
     id="namedview1"
     pagecolor="#ffffff"
     bordercolor="#000000"
     borderopacity="0.25"
     inkscape:showpageshadow="2"
     inkscape:pageopacity="0.0"
     inkscape:pagecheckerboard="0"
     inkscape:deskcolor="#d1d1d1"
     inkscape:document-units="mm"
     inkscape:zoom="0.72248176"
     inkscape:cx="76.126489"
     inkscape:cy="86.507374"
     inkscape:window-width="1850"
     inkscape:window-height="1016"
     inkscape:window-x="0"
     inkscape:window-y="0"
     inkscape:window-maximized="1"
     inkscape:current-layer="layer1" />
  <defs
     id="defs1" />
  <g
     inkscape:label="Layer 1"
     inkscape:groupmode="layer"
     id="layer1"
     transform="translate(-85.195845,-96.309593)">
    <path
       style="fill:#000000"
       d="m 91.997455,142.07944 c -0.0912,-0.0912 -0.974212,-0.19158 -1.962328,-0.22314 -4.629718,-0.1479 -4.310115,-0.0963 -4.310115,-0.69642 0,-0.53755 0.08433,-0.55074 2.520891,-0.39443 1.38649,0.0889 2.60688,0.18492 2.711979,0.21327 0.105098,0.0283 0.816163,-0.0364 1.580153,-0.14385 0.95494,-0.13433 1.38906,-0.31659 1.38906,-0.58316 0,-0.27598 -0.32418,-0.3948 -1.12448,-0.41217 -0.61846,-0.0134 -2.315104,-0.0496 -3.770312,-0.0803 -2.512622,-0.0531 -3.836458,-0.38536 -3.836458,-0.96293 0,-0.1404 0.111039,-0.25527 0.246754,-0.25527 0.135714,0 0.317567,-0.22312 0.404118,-0.49581 0.12276,-0.38679 0.519399,-0.53419 1.803767,-0.67036 0.905521,-0.096 2.00359,-0.3436 2.440152,-0.55023 0.436563,-0.20662 1.248975,-0.44778 1.805359,-0.5359 0.85329,-0.13514 0.96102,-0.22118 0.68835,-0.54973 -0.65736,-0.79207 0.97039,-1.3181 2.53337,-0.81871 1.03299,0.33005 1.8271,-0.90341 1.44326,-2.24177 -0.13895,-0.48448 -0.25263,-1.36386 -0.25263,-1.95418 0,-1.8419 -0.97906,-2.24005 -2.24896,-0.91456 -1.00301,1.04691 -2.24478,1.08659 -3.023503,0.0966 -0.301604,-0.38343 -0.548371,-0.80389 -0.548371,-0.93435 0,-0.46522 0.821538,-0.54205 1.287454,-0.12039 0.2607,0.23593 0.6688,0.42896 0.90688,0.42896 0.45382,0 1.07373,-0.87707 0.80784,-1.14296 -0.27858,-0.27858 1.21503,-0.50646 2.15894,-0.32938 0.76863,0.1442 0.93195,0.0934 0.9697,-0.30161 0.0482,-0.5042 0.20546,-3.07438 0.23517,-3.84324 0.0274,-0.70836 0.42651,-0.80638 1.87177,-0.45967 0.88473,0.21224 1.634365,0.62079 2.227575,1.214 1.04449,1.04449 1.073,1.05325 1.2482,0.38329 0.13087,-0.50048 -0.74797,-1.60434 -1.27955,-1.60716 -0.13614,-7.2e-4 -0.60121,-0.2843 -1.033485,-0.63017 -0.67676,-0.54148 -0.737,-0.68787 -0.43355,-1.0535 0.30443,-0.36681 0.22228,-0.53986 -0.60309,-1.2706 -1.03136,-0.91309 -1.20203,-1.46434 -0.53289,-1.72112 0.27234,-0.10451 0.65335,0.11014 1.07145,0.60362 0.57218,0.67533 0.629735,0.6961 0.48728,0.17582 -0.0888,-0.32449 -0.0448,-0.79858 0.0979,-1.05355 0.351215,-0.6276 -0.23463,-1.546 -1.73645,-2.7221 -2.0103,-1.57431 -3.05655,-2.68375 -2.78601,-2.95428 0.35761,-0.35762 1.61791,0.0197 1.91405,0.57303 0.13784,0.25756 0.52165,0.52988 0.85292,0.60515 0.92654,0.21054 2.925875,-0.16434 3.061895,-0.57411 0.0967,-0.29138 -0.11775,-0.32997 -1.0538,-0.1896 -0.978555,0.14675 -1.382695,0.0603 -2.414995,-0.51668 -0.68187,-0.38111 -1.23977,-0.78829 -1.23977,-0.90485 0,-0.39063 1.55795,-0.45273 1.9336,-0.0771 0.42146,0.42146 1.578735,0.22274 2.056685,-0.35317 0.23504,-0.2832 0.22994,-0.46477 -0.0215,-0.76779 -0.48997,-0.59038 -0.731975,-0.48666 -0.926035,0.39688 -0.1612,0.73396 -0.88369,1.13257 -0.95911,0.52916 -0.0182,-0.14552 -0.048,-0.39772 -0.0661,-0.56045 -0.0182,-0.16273 -0.45332,-0.32139 -0.96696,-0.35258 -0.97059,-0.0589 -2.37341,-0.80544 -2.37341,-1.26301 0,-0.14489 0.41607,-0.21453 0.92604,-0.15499 1.09849,0.12824 1.12955,0.0316 0.28312,-0.88128 -0.46936,-0.50618 -1.09435,-0.77413 -2.3151,-0.99255 -1.63234,-0.29206 -1.68503,-0.28336 -2.21129,0.36534 -0.43243,0.53303 -0.776968,0.66452 -1.741226,0.66452 -0.984347,0 -1.254649,0.10785 -1.492069,0.59532 -0.530382,1.08897 -0.51473,1.38159 0.128687,2.40587 0.653767,1.04074 0.645057,1.76131 -0.02129,1.76131 -0.205876,0 -0.4507,-0.20835 -0.544053,-0.46302 -0.09335,-0.25466 -0.36249,-0.81261 -0.598081,-1.2399 -0.23559,-0.42728 -0.48316,-1.26318 -0.550154,-1.85756 -0.118908,-1.05494 -0.09368,-1.09473 1.059222,-1.67051 0.649567,-0.32441 1.321007,-0.58984 1.492089,-0.58984 0.291172,0 1.586524,-0.73233 1.879935,-1.06283 0.32092,-0.36147 2.23383,-0.76321 2.39469,-0.50292 0.092,0.14892 0.2755,0.24 0.40769,0.2024 0.3784,-0.10764 2.01401,0.84211 2.51435,1.46 0.44336,0.54753 0.46594,0.54907 0.99753,0.068 0.29915,-0.27072 0.51887,-0.60687 0.48826,-0.747 -0.0306,-0.14013 0.48014,-0.46825 1.13498,-0.72915 1.144485,-0.45599 1.196145,-0.52436 1.332955,-1.76424 0.0783,-0.70943 0.286,-1.54871 0.46158,-1.86508 0.42032,-0.75734 1.76471,-1.40916 2.90644,-1.40916 1.04871,0 2.87745,0.91065 3.58647,1.78594 0.5815,0.71788 0.97298,0.76578 0.97298,0.11906 0,-0.73593 0.54236,-1.11125 1.60583,-1.11125 h 0.97083 l 0.037,-1.637664 c 0.0418,-1.8514 0.44266,-2.64849 1.6442,-3.26982 0.65381,-0.3381 0.97761,-0.36279 1.65115,-0.1259 0.46082,0.16207 1.49086,0.36225 2.28899,0.44484 1.00171,0.10365 1.55949,0.30483 1.80094,0.64956 0.19239,0.27467 0.49518,0.4994 0.67287,0.4994 0.34185,0 1.3685,1.05545 1.03339,1.06238 -0.10771,0.002 -0.0172,0.11695 0.20103,0.25493 0.21828,0.13799 0.39736,0.34452 0.39795,0.45897 5.9e-4,0.11445 0.29315,1.064424 0.65014,2.111054 0.62303,1.82666 0.63025,1.92375 0.18012,2.42113 -0.30174,0.33342 -0.36957,0.57958 -0.19025,0.6904 1.03065,0.63698 2.27219,4.36453 1.59342,4.78403 -0.15262,0.0943 -0.19274,0.55708 -0.094,1.08361 0.12954,0.69051 0.0643,0.99806 -0.2625,1.237 -0.23919,0.1749 -0.48527,0.73433 -0.54685,1.24319 -0.30986,2.5605 -0.49365,3.41526 -0.70611,3.28395 -0.12833,-0.0793 -0.53382,0.0922 -0.90109,0.38107 -0.39044,0.30712 -0.5542,0.59545 -0.39432,0.69426 0.37058,0.22904 0.34665,0.66694 -0.0365,0.66694 -0.17044,0 -0.53603,0.20465 -0.81242,0.45478 -0.32706,0.29598 -0.83238,0.42636 -1.44722,0.37339 -0.82656,-0.0712 -0.92003,-0.0206 -0.74752,0.40512 0.45163,1.11439 0.66167,2.10635 0.80365,3.79544 0.12184,1.4494 0.0744,1.81599 -0.25123,1.94094 -0.2394,0.0919 -0.33566,0.32547 -0.23848,0.57873 0.10048,0.26185 0.25732,0.33031 0.40906,0.17857 0.15174,-0.15174 0.87374,-0.10044 1.8831,0.13379 0.90035,0.20894 2.44164,0.41187 3.42509,0.45096 1.95743,0.0778 2.19668,0.18056 1.94532,0.8356 -0.14405,0.37539 -0.42632,0.4121 -1.95092,0.25371 -1.98173,-0.20587 -4.19385,-0.22739 -6.45995,-0.0628 -0.82635,0.06 -1.64528,0.0208 -1.81984,-0.0871 -0.40698,-0.25153 -0.0918,-0.76201 0.63687,-1.03157 0.46088,-0.17049 0.57393,-0.44056 0.60075,-1.43517 0.0182,-0.67385 0.18046,-1.4028 0.36064,-1.61991 0.41129,-0.49557 -0.32606,-3.78198 -1.05702,-4.71125 -0.6498,-0.82608 -0.41939,-2.09112 0.36728,-2.01656 0.30893,0.0293 0.84869,-0.0632 1.19946,-0.20546 0.5321,-0.21583 0.56498,-0.28662 0.19844,-0.42727 -0.24163,-0.0927 -0.43933,-0.35092 -0.43933,-0.57377 0,-0.38927 0.31108,-0.48537 1.45521,-0.44955 0.29104,0.009 0.0599,-0.13479 -0.51363,-0.31978 -0.57353,-0.18499 -1.09389,-0.50615 -1.15634,-0.7137 -0.0624,-0.20755 -0.35613,-0.57064 -0.6526,-0.80686 -0.29648,-0.23623 -0.55567,-0.65504 -0.57598,-0.9307 -0.0203,-0.27565 -0.12422,-0.64244 -0.23093,-0.81509 -0.563,-0.91097 0.42386,-1.98208 2.06811,-2.24468 0.7381,-0.11787 0.8266,-0.91688 0.12618,-1.13918 -0.40056,-0.12713 -0.52867,-0.33234 -0.43385,-0.69493 0.10633,-0.4066 0.031,-0.48168 -0.35882,-0.35794 -0.27136,0.0861 -0.9461,-0.0761 -1.49943,-0.36056 l -1.00605,-0.51716 0.72761,-0.33249 c 0.69395,-0.31712 0.9875,-0.77673 0.49609,-0.77673 -0.12733,0 -0.31018,-0.38695 -0.40633,-0.85989 -0.14392,-0.70792 -0.0603,-0.9594 0.47327,-1.42288 0.43495,-0.37784 0.87312,-0.51997 1.33237,-0.43218 0.37636,0.0719 0.68429,0.0106 0.68429,-0.13631 0,-0.39399 -0.74503,-0.61063 -1.47226,-0.42811 -0.51701,0.12976 -0.68654,0.028 -0.90333,-0.5422 -0.15877,-0.41758 -0.63926,-0.85753 -1.18611,-1.08602 -1.19889,-0.500924 -1.2528,-0.491054 -1.15306,0.21124 0.0546,0.38483 0.29733,0.62551 0.68638,0.68071 0.65865,0.0935 1.52427,1.19103 1.26728,1.60684 -0.10065,0.16285 -0.5198,0.11034 -1.11956,-0.14026 -0.72295,-0.30206 -1.00624,-0.3236 -1.1521,-0.0876 -0.12855,0.20799 -0.5477,0.25312 -1.24954,0.13455 -0.82061,-0.13864 -1.09083,-0.088 -1.21181,0.22732 -0.0856,0.22316 -0.053,0.46922 0.0725,0.54678 0.1255,0.0776 0.16959,0.36511 0.098,0.63898 -0.0799,0.30553 0.0717,0.6394 0.39234,0.86397 0.2874,0.20131 0.71197,0.78078 0.94348,1.28772 0.23152,0.50694 0.54369,1.1003 0.69372,1.31858 0.15004,0.21828 0.51519,0.96242 0.81145,1.65365 0.29627,0.69122 0.70223,1.25677 0.90214,1.25677 0.3977,0 0.81109,1.40991 0.54136,1.84634 -0.11475,0.18567 -0.3305,0.18477 -0.68107,-0.003 -0.38867,-0.20801 -0.51311,-0.18893 -0.51311,0.0787 0,0.1943 0.13088,0.48414 0.29083,0.6441 0.15996,0.15995 0.33349,0.73101 0.38562,1.26902 0.0521,0.538 0.23658,1.14902 0.40987,1.35782 0.22461,0.27064 0.26504,1.14303 0.1408,3.03871 l -0.17425,2.65907 0.79648,0.6989 c 1.57423,1.38136 0.73636,2.73457 -1.57198,2.53887 -0.99457,-0.0843 -1.06037,-0.0508 -0.81211,0.41303 0.14859,0.27764 0.27016,0.74272 0.27016,1.03353 0,0.30107 0.23411,0.60303 0.54373,0.7013 0.81745,0.25945 0.47375,0.76051 -0.69612,1.01484 -0.57103,0.12414 -1.34607,0.3872 -1.72232,0.58456 -0.58786,0.30838 -0.76704,0.30074 -1.27388,-0.0543 -0.66049,-0.46262 -0.87528,-0.35545 -1.01437,0.50615 -0.18455,1.14319 -0.0848,4.2532 0.14374,4.48174 0.13209,0.13209 0.73178,0.0618 1.39768,-0.16376 0.67536,-0.22879 1.66753,-0.34306 2.35696,-0.27146 4.87661,0.50645 6.41922,0.65571 7.85556,0.76008 0.90081,0.0655 2.02255,0.31796 2.49274,0.56111 0.79418,0.41068 0.81879,0.46232 0.34653,0.72692 -0.67282,0.37697 -3.6034,0.26173 -5.40063,-0.21237 -1.25832,-0.33194 -1.49019,-0.33047 -1.86839,0.0118 -0.35555,0.32176 -1.19839,0.37037 -4.77308,0.27525 l -4.34128,-0.11552 2.24896,0.48404 c 1.23693,0.26621 2.1299,0.49718 1.98438,0.51326 -0.14552,0.0161 -0.11577,0.12373 0.0661,0.23922 0.2618,0.16624 0.25534,0.31307 -0.031,0.70468 -0.34993,0.47856 -0.41246,0.4795 -1.91821,0.0288 -0.85607,-0.25626 -1.73508,-0.53623 -1.95336,-0.62216 -0.21828,-0.0859 -0.79309,-0.19794 -1.27735,-0.24892 -0.72589,-0.0764 -0.86485,-0.0103 -0.79148,0.37645 0.0654,0.34474 0.38656,0.4907 1.21122,0.55049 1.07652,0.078 1.35938,0.37852 0.9197,0.97697 -0.10691,0.14553 -0.49204,0.28931 -0.85584,0.31952 -0.3638,0.0302 -1.2718,0.15581 -2.01777,0.2791 -1.52104,0.25138 -5.923145,0.22725 -8.631715,-0.0473 -1.05889,-0.10734 -1.78594,-0.0805 -1.78594,0.066 0,0.13586 0.23813,0.30929 0.52917,0.3854 0.65126,0.17031 0.75569,1.70511 0.13229,1.94433 -0.21828,0.0838 -0.39687,0.32109 -0.39687,0.52741 0,0.59582 -1.99873,1.18551 -2.45881,0.72543 z m -0.848485,-3.53841 c 0.09751,-0.15777 -0.222944,-0.26458 -0.79375,-0.26458 -0.570807,0 -0.891256,0.10681 -0.79375,0.26458 0.08994,0.14552 0.447124,0.26458 0.79375,0.26458 0.346625,0 0.703813,-0.11906 0.79375,-0.26458 z m 6.830335,-1.42336 c 0.1054,-0.27467 -0.25466,-0.40968 -1.45472,-0.54545 -0.87713,-0.0992 -1.66164,-0.11357 -1.74336,-0.0319 -0.29078,0.29078 0.23516,0.51747 1.26027,0.54318 0.57218,0.0144 1.12427,0.11004 1.22685,0.21263 0.28912,0.28911 0.55736,0.22176 0.71096,-0.1785 z m 5.765715,-1.10104 c 0.44837,-0.14034 0.39494,-1.44435 -0.0592,-1.44435 -0.36829,0 -0.27249,-0.79272 0.097,-0.80255 0.18189,-0.005 0.62363,-0.25254 0.98162,-0.55043 0.55124,-0.45872 0.6541,-0.78139 0.67192,-2.10787 0.0221,-1.64376 -0.1396,-1.88803 -0.71249,-1.07647 -0.61354,0.86914 -1.871,1.35047 -2.91369,1.1153 -0.51784,-0.11679 -1.06772,-0.29035 -1.22197,-0.38568 -0.41111,-0.25408 -1.134805,1.45647 -1.152285,2.72362 -0.008,0.60031 -0.12007,1.15636 -0.24841,1.23568 -0.41484,0.25639 -0.24922,0.61693 0.45224,0.98446 0.688025,0.3605 3.309525,0.55736 4.105265,0.30829 z m 0.22858,-9.39219 c -0.62281,-0.39388 -0.93852,-0.29175 -0.37405,0.121 0.28225,0.20638 0.56945,0.31897 0.63822,0.2502 0.0688,-0.0688 -0.0501,-0.23582 -0.26417,-0.3712 z m -3.43193,-0.90009 c 0,-0.0642 -0.11906,-0.19026 -0.26457,-0.2802 -0.14553,-0.0899 -0.26458,-0.0374 -0.26458,0.11668 0,0.15411 0.11906,0.2802 0.26458,0.2802 0.14552,0 0.26457,-0.0525 0.26457,-0.11668 z m -1.709915,-1.15227 c -0.23282,-0.23282 -0.67449,0.52061 -0.48496,0.82727 0.0833,0.13478 0.26494,0.0422 0.40367,-0.20565 0.13872,-0.24788 0.1753,-0.52761 0.0813,-0.62162 z m 10.970345,-0.48595 c 0,-0.28859 -1.12216,-1.15552 -1.49569,-1.15552 -0.59839,0 -0.39796,0.48972 0.37121,0.907 0.79793,0.43288 1.12448,0.50505 1.12448,0.24852 z m -6.61458,-1.51376 c 0,-0.0515 -0.30219,-0.4197 -0.6715,-0.81821 -0.43049,-0.46451 -0.8262,-0.66518 -1.10257,-0.55912 -0.30943,0.11873 -0.35022,0.24629 -0.14453,0.45197 0.52124,0.52125 1.9186,1.19521 1.9186,0.92536 z m 3.43958,-0.96467 c 0,-0.14553 -0.11906,-0.26459 -0.26458,-0.26459 -0.14553,0 -0.26459,0.11906 -0.26459,0.26459 0,0.14552 0.11906,0.26458 0.26459,0.26458 0.14552,0 0.26458,-0.11906 0.26458,-0.26458 z m -0.64969,-0.77471 c -0.0835,-0.13504 0.11787,-0.32772 0.44741,-0.42817 0.32953,-0.10045 0.80751,-0.3656 1.06217,-0.58922 0.59144,-0.51935 0.61998,-2.05981 0.0423,-2.2815 -0.52332,-0.20081 -0.90216,0.0164 -0.90216,0.51734 0,0.20969 -0.12625,0.38126 -0.28056,0.38126 -0.1624,0 -0.24597,-0.41784 -0.19843,-0.99219 l 0.0821,-0.99219 1.15376,0.0742 c 1.17759,0.0758 1.87704,-0.24202 1.79025,-0.8134 -0.10323,-0.67964 -0.48738,-0.99823 -1.00541,-0.83381 -0.71936,0.22831 -3.12923,-0.92986 -3.12923,-1.50389 0,-0.64025 0.77481,-0.83287 1.48318,-0.36872 0.33818,0.22158 1.01972,0.40287 1.51454,0.40287 0.49904,0 1.19924,0.23565 1.5724,0.52917 0.79652,0.62655 1.29486,0.68749 1.08181,0.13229 -0.0838,-0.21828 -0.32188,-0.39687 -0.52916,-0.39687 -0.20728,0 -0.44262,-0.17132 -0.52297,-0.38071 -0.0803,-0.20939 -0.48098,-0.45426 -0.8903,-0.54416 -0.40931,-0.0899 -0.95499,-0.39637 -1.2126,-0.68103 -0.49528,-0.54727 -0.76462,-1.83369 -0.38393,-1.83369 0.12364,0 0.18826,-0.48983 0.14361,-1.08852 -0.0768,-1.03044 -0.16757,-1.13719 -1.70036,-2.00099 -0.89053,-0.50186 -1.86004,-0.93062 -2.15446,-0.95279 -0.72591,-0.0547 -0.5508,-0.82823 0.21213,-0.93707 0.63996,-0.0913 2.77613,0.83492 3.63507,1.57613 0.29731,0.25656 1.16678,0.51817 1.98438,0.59706 1.18713,0.11455 1.34554,0.0861 0.85989,-0.15463 -0.32742,-0.16228 -0.59531,-0.39592 -0.59531,-0.5192 0,-0.12329 -0.46922,-0.22415 -1.04272,-0.22415 -0.57349,0 -1.11953,-0.12428 -1.2134,-0.27618 -0.26895,-0.43516 0.42118,-1.07696 0.97056,-0.90259 0.27049,0.0859 0.49181,0.0436 0.49181,-0.0939 0,-0.47353 -0.81767,-0.92696 -1.77658,-0.98517 -0.5286,-0.0321 -1.10238,-0.25158 -1.27507,-0.48775 -0.17269,-0.23617 -0.56874,-0.42939 -0.88012,-0.42939 -0.66009,0 -0.73131,-0.3273 -0.17219,-0.79134 0.60176,-0.4994 0.20956,-0.81404 -0.91622,-0.73503 -0.55771,0.0391 -0.95846,0.1613 -0.89056,0.27146 0.0679,0.11017 -0.0582,0.27 -0.28013,0.35518 -0.67273,0.25815 -1.09957,2.08815 -0.62564,2.68229 0.45586,0.57149 0.006,1.09086 -1.01962,1.17715 -1.147475,0.0965 -1.491815,0.65102 -0.55096,0.88716 0.71941,0.18056 0.99123,0.63966 1.63872,2.76771 0.24353,0.80036 0.71598,1.75286 1.04989,2.11667 1.05814,1.15283 1.48438,2.44369 1.55484,4.70878 0.049,1.57637 0.18562,2.27286 0.51763,2.63973 0.24805,0.2741 0.45101,0.6775 0.45101,0.89645 0,0.21895 0.0794,0.47747 0.17639,0.57448 0.25908,0.25908 0.40776,0.21482 0.23226,-0.0692 z m -2.36615,-10.29432 c -0.0752,-0.12161 -0.0446,-0.56809 0.068,-0.99219 0.26199,-0.98725 1.52707,-1.21327 2.25971,-0.40371 0.58393,0.64523 0.31175,1.17873 -0.52023,1.01969 -0.36614,-0.07 -0.67301,0.0275 -0.75442,0.23967 -0.15158,0.39498 -0.83827,0.48402 -1.05303,0.13654 z m -0.31521,9.67996 c -0.32045,-0.56595 -1.24836,-1.52135 -1.47758,-1.52135 -0.51579,0 -0.15621,0.96304 0.50961,1.36487 0.89407,0.53958 1.21419,0.59133 0.96797,0.15648 z m 10.08017,-3.24114 c -0.42401,-1.19086 -1.00737,-1.98487 -1.45495,-1.98033 -0.25082,0.002 -0.29418,0.0764 -0.11658,0.19844 0.41177,0.28303 1.17177,2.33521 1.17631,3.1763 l 0.004,0.72225 0.33697,-0.66145 c 0.25184,-0.49436 0.26557,-0.86199 0.0543,-1.45521 z m -9.39496,0.54478 c 0,-0.0642 -0.11906,-0.19026 -0.26459,-0.2802 -0.14552,-0.0899 -0.26457,-0.0374 -0.26457,0.11668 0,0.15411 0.11906,0.2802 0.26457,0.2802 0.14553,0 0.26459,-0.0525 0.26459,-0.11668 z m -3.08998,-1.59359 c -0.41057,-0.51455 -0.912695,-0.93556 -1.115845,-0.93556 -0.22618,0 -0.098,0.25151 0.330735,0.64882 0.38505,0.35685 0.7001,0.74976 0.7001,0.87312 0,0.37326 0.64562,0.9068 0.74317,0.61416 0.0486,-0.14574 -0.24759,-0.68598 -0.65816,-1.20054 z m 17.77436,0.91652 c -0.0899,-0.14553 -0.28258,-0.26459 -0.4281,-0.26459 -0.14553,0 -0.191,0.11906 -0.10107,0.26459 0.0899,0.14552 0.28259,0.26458 0.42811,0.26458 0.14552,0 0.191,-0.11906 0.10106,-0.26458 z m 1.8204,-3.03874 c -0.0415,-0.34119 -1.42781,-1.15051 -2.01316,-1.17526 -0.39054,-0.0165 -0.41415,0.0755 -0.16158,0.62982 0.16268,0.35704 0.48755,0.7025 0.72193,0.76771 0.67412,0.18752 1.4875,0.0631 1.45281,-0.22227 z m -8.30269,-0.66543 c 0,-0.14552 -0.24515,-0.26458 -0.54478,-0.26458 -0.29963,0 -0.4712,0.11906 -0.38126,0.26458 0.0899,0.14552 0.33509,0.26458 0.54478,0.26458 0.20969,0 0.38126,-0.11906 0.38126,-0.26458 z m -1.32292,-0.78758 c 0,-0.2261 -1.96755,-1.33098 -2.3648,-1.32795 -0.13897,0.001 2.15457,1.58276 2.29866,1.58523 0.0364,6.2e-4 0.0662,-0.11515 0.0662,-0.25728 z m 7.21975,-0.47313 c 0.39199,-0.43315 0.36731,-0.49869 -0.34084,-0.90511 -0.99153,-0.56906 -1.52793,-0.0971 -0.90325,0.79479 0.48972,0.69917 0.69473,0.71735 1.24409,0.11032 z m -6.95516,-1.27023 c 0,-0.46591 -0.63308,-1.18631 -1.36212,-1.55 -1.17107,-0.58421 -1.52906,-0.53685 -1.3483,0.17833 0.18539,0.73352 0.58711,1.0233 1.16817,0.84266 0.24317,-0.0756 0.60036,0.0417 0.79375,0.26056 0.35557,0.40248 0.7485,0.5434 0.7485,0.26845 z m 9.09418,-1.75732 c -0.18132,-0.29337 -0.8921,-0.26271 -0.8921,0.0385 0,0.13648 0.22988,0.23083 0.51084,0.20966 0.28096,-0.0212 0.45252,-0.13283 0.38126,-0.24814 z m -20.20668,-0.47424 c 0,-0.14552 -0.119075,-0.26458 -0.264595,-0.26458 -0.14552,0 -0.26458,0.11906 -0.26458,0.26458 0,0.14552 0.11906,0.26458 0.26458,0.26458 0.14552,0 0.264595,-0.11906 0.264595,-0.26458 z m 19.97604,-1.5875 c 0.0899,-0.14552 0.0374,-0.26458 -0.11668,-0.26458 -0.15411,0 -0.2802,0.11906 -0.2802,0.26458 0,0.14552 0.0525,0.26458 0.11668,0.26458 0.0642,0 0.19026,-0.11906 0.2802,-0.26458 z m -2.77813,-2.76251 c 0,-0.27926 -0.50776,-0.39659 -0.65879,-0.15222 -0.0914,0.14789 0.0194,0.2689 0.2463,0.2689 0.22687,0 0.41249,-0.0525 0.41249,-0.11668 z m 3.175,-0.83141 c 0,-0.46724 -0.56958,-0.38587 -0.73311,0.10473 -0.0576,0.1728 0.0838,0.31419 0.31419,0.31419 0.23041,0 0.41892,-0.18852 0.41892,-0.41892 z m -0.26458,-2.61961 c 0,-0.54186 -1.345,-1.945104 -1.95693,-2.041674 -0.27594,-0.0435 -0.55378,0.0697 -0.61742,0.25173 -0.0765,0.21877 0.0376,0.27207 0.33677,0.15728 0.31351,-0.1203 0.68597,0.0938 1.21274,0.69713 0.41814,0.478924 0.76026,0.973694 0.76026,1.099504 0,0.1258 0.0595,0.22873 0.13229,0.22873 0.0728,0 0.13229,-0.17672 0.13229,-0.3927 z m -2.7275,-0.851484 c -0.31889,-0.17608 -0.7868,-0.25823 -1.03981,-0.18257 -0.28264,0.0845 -0.70631,-0.12818 -1.09879,-0.55167 -0.41081,-0.44328 -0.67764,-0.57267 -0.74767,-0.36257 -0.11229,0.33689 1.21744,1.639554 1.89469,1.856124 0.21007,0.0672 0.64957,-0.004 0.97666,-0.15851 l 0.59471,-0.28066 z M 97.960215,140.24388 c -0.56911,-0.41615 0.0105,-0.67159 2.377485,-1.04776 1.09187,-0.17353 1.5008,0.36999 0.77354,1.02814 -0.52237,0.47275 -2.514375,0.48514 -3.151025,0.0196 z m 21.499175,-3.27967 c -1.09887,-0.11876 -1.32292,-0.23259 -1.32292,-0.67214 0,-0.33598 0.16904,-0.52112 0.46302,-0.50712 0.25467,0.0121 1.64515,0.0419 3.08996,0.0661 1.99797,0.0335 2.72706,0.14423 3.04514,0.46231 0.23001,0.23001 0.35,0.52857 0.26663,0.66345 -0.15498,0.25077 -3.16821,0.24389 -5.54183,-0.0127 z M 88.958883,126.2229 c -0.949054,-0.66474 -0.745598,-1.54025 0.617496,-2.6572 1.066102,-0.8736 1.39299,-0.99528 2.826286,-1.05207 1.75351,-0.0695 2.8235,0.41175 2.83903,1.27688 0.0125,0.69647 -1.22999,0.61726 -1.45535,-0.0928 -0.12019,-0.3787 -0.26261,-0.46959 -0.44694,-0.28526 -0.1488,0.1488 -0.42258,0.2122 -0.60841,0.14089 -0.18583,-0.0713 -0.41326,-0.008 -0.5054,0.14141 -0.0921,0.14909 -0.33809,0.20562 -0.54654,0.12562 -0.467749,-0.17949 -1.985294,0.86318 -1.985294,1.36405 0,0.20114 0.19531,0.47501 0.434022,0.6086 0.461396,0.25821 0.282211,0.84174 -0.258473,0.84174 -0.177314,0 -0.587006,-0.18535 -0.910427,-0.41188 z m 1.853118,-5.35084 c -0.305276,-0.87571 -0.06781,-1.45529 0.977314,-2.3853 0.50068,-0.44554 0.88528,-0.56893 1.44325,-0.46302 0.41837,0.0794 0.86485,0.14437 0.99219,0.14437 0.12733,0 0.23151,0.23813 0.23151,0.52917 0,0.35278 -0.17639,0.52917 -0.52917,0.52917 -0.29104,0 -0.52917,0.0989 -0.52917,0.21987 0,0.12093 -0.27222,0.36556 -0.60494,0.54363 -0.33272,0.17807 -0.71968,0.57744 -0.8599,0.88749 -0.38302,0.84691 -0.824712,0.8448 -1.121084,-0.005 z m -2.660393,-1.57947 c -0.811735,-0.6862 -0.872097,-0.86043 -1.0609,-3.06208 -0.177093,-2.06509 -0.147526,-2.36265 0.256221,-2.57873 0.691396,-0.37003 1.308492,-0.0255 1.148556,0.64131 -0.37535,1.56484 -0.293564,2.98264 0.227349,3.94117 0.296561,0.5457 0.63634,0.99219 0.755065,0.99219 0.118724,0 0.215862,0.17859 0.215862,0.39687 0,0.60287 -0.586585,0.47707 -1.542153,-0.33073 z m 8.512617,-2.85568 c -0.0862,-0.22456 -0.0876,-0.47739 -0.003,-0.56185 0.26698,-0.26698 0.97014,0.14251 0.97014,0.56496 0,0.52812 -0.76412,0.52566 -0.96703,-0.003 z m -3.16034,-0.42807 c -0.10442,-0.16896 -0.23369,-1.06193 -0.28726,-1.98438 -0.0756,-1.3026 -0.0152,-1.67718 0.27056,-1.67718 0.36449,0 0.70449,1.55015 0.70449,3.21193 0,0.77348 -0.34731,1.00053 -0.68779,0.44963 z m 21.854465,-7.63031 c 0,-0.14552 0.11906,-0.26458 0.26458,-0.26458 0.14552,0 0.26459,0.11906 0.26459,0.26458 0,0.14552 -0.11907,0.26458 -0.26459,0.26458 -0.14552,0 -0.26458,-0.11906 -0.26458,-0.26458 z"
       id="path12" />
  </g>
</svg>
