<?xml version="1.0" encoding="UTF-8" standalone="no"?>
<!-- Created with Inkscape (http://www.inkscape.org/) -->

<svg
   width="64.723961mm"
   height="43.664135mm"
   viewBox="0 0 64.723961 43.664125"
   version="1.1"
   id="svg1"
   inkscape:version="1.4.1-rc (06eac75fbf, 2025-03-29)"
   sodipodi:docname="threetrees3.svg"
   xmlns:inkscape="http://www.inkscape.org/namespaces/inkscape"
   xmlns:sodipodi="http://sodipodi.sourceforge.net/DTD/sodipodi-0.dtd"
   xmlns="http://www.w3.org/2000/svg"
   xmlns:svg="http://www.w3.org/2000/svg">
  <sodipodi:namedview
     id="namedview1"
     pagecolor="#ffffff"
     bordercolor="#000000"
     borderopacity="0.25"
     inkscape:showpageshadow="2"
     inkscape:pageopacity="0.0"
     inkscape:pagecheckerboard="0"
     inkscape:deskcolor="#d1d1d1"
     inkscape:document-units="mm"
     inkscape:zoom="0.72248176"
     inkscape:cx="123.1865"
     inkscape:cy="82.35502"
     inkscape:window-width="1850"
     inkscape:window-height="1016"
     inkscape:window-x="0"
     inkscape:window-y="0"
     inkscape:window-maximized="1"
     inkscape:current-layer="layer1" />
  <defs
     id="defs1" />
  <g
     inkscape:label="Layer 1"
     inkscape:groupmode="layer"
     id="layer1"
     transform="translate(-73.025009,-97.367923)">
    <path
       style="fill:#000000"
       d="m 77.260249,140.93321 c -2.110052,-0.0908 -3.925755,-0.18015 -4.034896,-0.19844 -0.337538,-0.0566 -0.218254,-0.82545 0.132292,-0.85274 1.188794,-0.0925 7.495156,0.0386 7.890542,0.16413 0.266179,0.0845 0.966066,0.0238 1.555304,-0.13488 0.883769,-0.23798 1.071339,-0.40251 1.071339,-0.93974 0,-0.61445 0.30495,-0.78544 1.21413,-0.68081 0.15845,0.0182 0.49706,-0.19775 0.75247,-0.47997 0.25861,-0.28577 0.64285,-0.44464 0.86717,-0.35856 0.33801,0.1297 0.35332,0.0621 0.0952,-0.42019 -0.32442,-0.60619 -0.15496,-1.20852 0.26669,-0.94793 0.48276,0.29836 1.25254,-0.14573 1.12146,-0.64699 -0.0887,-0.339 0.0544,-0.53082 0.47865,-0.64176 1.06682,-0.27898 0.2379,-0.57838 -1.34832,-0.48701 -0.99429,0.0573 -1.60521,-0.0233 -1.73194,-0.22832 -0.27858,-0.45075 0.264,-0.70751 1.96317,-0.92902 0.81438,-0.10616 1.36164,-0.22624 1.21612,-0.26684 -0.14552,-0.0406 -0.59688,-0.14726 -1.00301,-0.23702 -0.82658,-0.18267 -0.72679,-0.67684 0.13668,-0.67684 0.30671,0 0.49741,-0.0602 0.42379,-0.13386 -0.12226,-0.12227 -1.15844,-0.24264 -4.45225,-0.51725 -0.654851,-0.0546 -1.488286,-0.21616 -1.852088,-0.35903 -0.583718,-0.22925 -0.605728,-0.28227 -0.187276,-0.45116 0.2608,-0.10526 1.094237,-0.1112 1.852084,-0.0132 2.47765,0.32042 4.04383,0.38443 4.37643,0.17887 0.44219,-0.27328 0.0977,-1.08563 -0.46038,-1.08563 -0.24637,0 -0.58151,-0.13358 -0.74476,-0.29683 -0.43521,-0.43521 -0.12124,-0.98901 0.47266,-0.8337 0.61713,0.16138 0.61733,0.15633 0.0996,-2.57291 -0.22686,-1.19592 -0.33602,-2.25087 -0.24256,-2.34433 0.0934,-0.0935 0.69313,-0.17324 1.33262,-0.17728 1.96143,-0.0124 2.24207,-0.86522 1.07823,-3.2767 -0.52143,-1.08042 -0.61897,-1.51885 -0.39731,-1.78594 0.45633,-0.54983 0.90403,-0.42139 1.30231,0.37362 l 0.36451,0.72761 0.0938,-0.92604 c 0.0967,-0.95452 1.19025,-2.38125 1.82512,-2.38125 0.19106,0 0.34738,-0.068 0.34738,-0.1512 0,-0.30727 -0.9031,-1.03947 -1.28343,-1.04055 -0.5816,-0.002 -0.65517,-0.53603 -0.14415,-1.04705 0.42946,-0.42946 0.73889,-0.43155 1.75831,-0.0119 0.28971,0.11927 0.46302,0.0717 0.46302,-0.12705 0,-0.17471 -0.23813,-0.37993 -0.52917,-0.45604 -0.29104,-0.0761 -0.52917,-0.22444 -0.52917,-0.32963 0,-0.10519 -0.31309,-0.33391 -0.69576,-0.50827 -0.57449,-0.26175 -0.77633,-0.24411 -1.15794,0.10124 -0.42292,0.38274 -0.47852,0.37797 -0.6547,-0.0562 -0.46966,-1.1573 -0.61225,-1.93202 -0.38181,-2.07444 0.15072,-0.0931 0.14843,-0.33386 -0.006,-0.62225 -0.37185,-0.69481 -0.0615,-1.50779 0.70984,-1.85921 0.90394,-0.41187 0.49966,-0.73983 -1.05486,-0.85574 -1.21809,-0.0908 -1.25678,-0.0712 -1.25678,0.63581 0,0.55312 -0.12794,0.72951 -0.52916,0.72951 -0.37499,0 -0.5266,-0.17346 -0.52037,-0.59531 0.014,-0.94509 0.87633,-1.752 2.07769,-1.94411 1.30808,-0.20916 1.44459,-0.63558 0.20348,-0.63558 -0.54902,0 -1.06686,-0.20091 -1.36393,-0.52917 -0.56526,-0.62461 -1.40882,-0.69332 -1.62411,-0.13229 -0.1945,0.50686 -0.59792,0.51033 -0.79114,0.007 -0.19367,-0.50469 0.596,-1.28963 1.40662,-1.39819 0.34812,-0.0466 0.99223,0.17107 1.43134,0.48374 0.91595,0.65221 0.91175,0.65385 1.14754,-0.44787 0.13138,-0.61389 0.0731,-0.86616 -0.22668,-0.98119 -0.22194,-0.0852 -0.50218,0.0214 -0.62275,0.23687 -0.19114,0.34155 -0.3361,0.33312 -1.13148,-0.0658 -0.51423,-0.25788 -1.51636,-0.45833 -2.29684,-0.45941 -1.65457,-0.002 -2.283831,0.56088 -2.04612,1.83126 0.41453,2.21532 0.43324,2.51354 0.15774,2.51354 -0.15849,0 -0.513145,-0.44649 -0.788133,-0.99219 -0.372337,-0.73888 -0.458143,-1.29225 -0.336107,-2.16755 0.14911,-1.06948 0.271134,-1.229 1.3545,-1.77065 1.06871,-0.53433 1.33962,-0.56667 2.64583,-0.31586 0.80037,0.15368 2.19935,0.26322 3.10886,0.24342 0.97346,-0.0212 1.65364,0.0753 1.65364,0.23446 0,0.14875 0.1737,0.27046 0.386,0.27046 0.67296,0 2.18096,0.90554 2.42335,1.4552 0.12835,0.29105 0.50125,0.6467 0.82867,0.79035 0.63167,0.27712 0.80972,1.07846 0.27894,1.25539 -0.21583,0.0719 -0.11867,0.42534 0.30572,1.11203 l 0.6221,1.00657 0.48214,-0.62696 c 0.26518,-0.34483 0.4848,-0.76752 0.48803,-0.9393 0.003,-0.17178 0.26628,-0.35036 0.58454,-0.39686 0.54879,-0.0802 0.55499,-0.10811 0.12006,-0.5409 -1.10345,-1.09805 -1.43136,-2.85094 -0.53332,-2.85094 0.29683,0 0.30676,-0.0985 0.0512,-0.50768 -0.24988,-0.40013 -0.24295,-0.59697 0.0327,-0.92913 0.42443,-0.51141 2.53491,-1.473612 3.23221,-1.473612 0.27711,0 0.56884,-0.16939 0.64828,-0.37642 0.0794,-0.20703 0.33975,-0.45136 0.57845,-0.54296 0.70948,-0.27225 3.68199,0.67165 4.5469,1.44385 0.82097,0.732962 1.05451,1.705902 0.46829,1.950912 -0.21802,0.0911 -0.0653,0.36389 0.44798,0.80034 0.52258,0.44434 0.90743,0.59009 1.17006,0.44311 0.36731,-0.20556 1.7086,0.36662 2.64351,1.12768 0.19742,0.16072 0.61414,0.41943 0.92604,0.57493 0.38901,0.19395 0.56709,0.52954 0.56709,1.06867 0,0.78259 -0.006,0.78583 -1.50874,0.76069 -1.14979,-0.0192 -1.54707,0.0746 -1.66983,0.39456 -0.16379,0.42681 0.0191,0.61132 1.86282,1.87964 1.79481,1.23466 2.63457,2.33258 2.68288,3.50767 0.0243,0.59145 0.1959,1.3588 0.3813,1.70522 0.28083,0.52472 0.26826,0.74949 -0.0753,1.34651 -0.22681,0.39415 -0.35871,0.86547 -0.29311,1.04737 0.0728,0.20177 -0.11226,0.33073 -0.47449,0.33073 -0.86017,0 -2.1531,1.51591 -1.82146,2.13559 0.13995,0.2615 0.25446,0.71438 0.25446,1.0064 0,0.60392 0.57634,1.08211 0.73403,0.60902 0.15965,-0.47892 1.11805,-0.37529 1.11805,0.1209 0,0.71082 -0.59594,2.47809 -0.83563,2.47809 -0.12249,0 -0.2086,0.0893 -0.19137,0.19844 0.10462,0.66263 -0.11203,1.07631 -0.70524,1.34659 -0.85394,0.38908 -2.02394,0.39256 -2.86679,0.009 -0.54914,-0.25021 -0.77104,-0.20739 -1.37105,0.26458 -1.40349,1.10399 -2.13028,0.50208 -0.89061,-0.73759 0.58817,-0.58817 1.06447,-0.81597 1.70605,-0.81597 0.48954,0 0.96366,0.11906 1.0536,0.26458 0.0899,0.14552 0.3041,0.26458 0.47593,0.26458 0.43866,0 -0.85265,-1.12733 -1.74515,-1.52354 -0.92946,-0.41262 -1.50891,-0.41978 -1.50891,-0.0187 0,0.17045 -0.19358,0.5238 -0.43017,0.78524 -0.34156,0.37742 -0.44051,1.14731 -0.48034,3.7374 -0.0276,1.79413 -0.13084,3.39261 -0.22945,3.55216 -0.1063,0.17199 0.1162,0.368 0.54648,0.48141 0.60088,0.15838 6.26375,0.45559 8.12657,0.42651 0.28689,-0.004 0.70361,0.14389 0.92604,0.3297 0.74686,0.6239 2.66515,1.05476 4.78214,1.07411 1.15551,0.0106 2.10175,0.0946 2.10275,0.1868 0.003,0.25339 1.36604,0.46144 1.83713,0.28035 0.31296,-0.1203 0.25741,-0.19594 -0.2282,-0.31077 -1.16795,-0.27618 -0.95947,-0.79863 0.31869,-0.79863 h 1.17614 l 0.30111,-1.49934 c 0.16561,-0.82464 0.30111,-2.12461 0.30111,-2.88884 0,-1.28789 -0.0641,-1.42915 -0.8773,-1.9317 -0.48252,-0.29822 -1.09303,-0.78059 -1.35671,-1.07194 -0.55599,-0.61437 -0.85471,-2.52092 -0.43556,-2.77997 0.17868,-0.11043 0.0368,-0.43907 -0.3838,-0.8887 -0.36703,-0.39241 -0.73605,-0.98136 -0.82004,-1.30879 -0.084,-0.32742 -0.25886,-0.59531 -0.3886,-0.59531 -0.12975,0 -0.2359,-0.2246 -0.2359,-0.49912 0,-0.38973 0.26458,-0.5388 1.20714,-0.68015 0.79074,-0.11858 1.33734,-0.073 1.58459,0.13223 0.46928,0.38947 0.25528,0.78246 -0.4261,0.78246 -0.286,0 -0.51355,0.18052 -0.51355,0.40741 0,0.77502 1.01855,2.39994 1.69857,2.70978 0.91188,0.41548 0.86336,1.00139 -0.11107,1.34108 -0.43656,0.15219 -0.79375,0.33371 -0.79375,0.40338 0,0.21444 1.63996,0.95799 1.84011,0.83429 0.10358,-0.064 0.14072,-0.44906 0.0825,-0.85565 -0.0658,-0.45958 0.1576,-1.23222 0.59044,-2.0423 0.57511,-1.07635 0.69903,-1.66325 0.71228,-3.37344 0.009,-1.13871 0.10558,-2.07038 0.21502,-2.07038 0.42407,0 0.72,0.70956 0.75474,1.80962 0.0199,0.63149 0.10003,1.25137 0.17799,1.37751 0.20648,0.33408 0.91855,-0.005 0.91855,-0.43732 0,-0.21675 0.27246,-0.36856 0.66146,-0.36856 0.92269,0 0.82885,-0.3673 -0.39801,-1.55793 -1.23068,-1.19434 -2.53164,-1.54882 -2.74134,-0.74696 -0.17392,0.6651 -0.80483,0.44672 -0.91681,-0.31735 -0.12596,-0.85945 0.60737,-1.56477 1.45787,-1.40218 0.66838,0.12777 0.68958,0.0953 0.53993,-0.82687 -0.0857,-0.52792 -0.0442,-1.02879 0.0921,-1.11305 0.31423,-0.19421 -0.12943,-1.07798 -1.02124,-2.03434 -0.58569,-0.62806 -0.63414,-0.80984 -0.37022,-1.38906 0.23867,-0.52382 0.49803,-0.66643 1.21205,-0.66643 h 0.9084 l -0.0428,-1.2422 c -0.0365,-1.05874 0.0486,-1.28878 0.57615,-1.55756 0.34045,-0.17344 0.51904,-0.3586 0.39688,-0.41145 -0.12217,-0.0528 -0.40485,-0.45327 -0.6282,-0.88983 -0.4773,-0.93298 -1.89819,-1.68642 -2.8406,-1.50627 -0.42495,0.0812 -0.76723,0.39941 -0.94969,0.88279 -0.33046,0.87551 -0.59769,0.96078 -0.81962,0.26155 -0.1811,-0.5706 0.20612,-1.74477 0.66994,-2.03142 0.17423,-0.10768 0.95549,-0.19579 1.73611,-0.19579 1.31134,0 1.41931,-0.0471 1.41931,-0.61862 0,-0.80467 -1.11298,-1.141012 -1.73091,-0.52308 -0.38847,0.38847 -0.52027,0.36702 -1.58741,-0.25837 -0.64007,-0.375112 -1.27816,-0.611312 -1.41798,-0.524902 -0.13982,0.0864 -0.3262,0.0406 -0.41419,-0.10173 -0.088,-0.14237 -0.81026,-0.22705 -1.60505,-0.18818 -1.06556,0.0521 -1.54729,0.20581 -1.83427,0.585262 -0.50472,0.66735 -0.50851,2.14193 -0.009,3.5573 0.48295,1.36881 0.49405,1.62877 0.0661,1.54918 -1.60014,-0.29764 -3.46379,1.65782 -3.1897,3.34683 0.24214,1.49209 2.96417,4.01441 4.51554,4.18425 1.52868,0.16735 1.94368,0.97391 0.5011,0.97391 -1.77929,0 -2.49891,2.02357 -1.14363,3.2159 0.48471,0.42644 0.63298,0.73286 0.474,0.9796 -0.28241,0.43828 -1.35575,0.16233 -1.35575,-0.34857 0,-0.1929 -0.16737,-0.41496 -0.37192,-0.49346 -0.69364,-0.26617 -0.78077,-1.68313 -0.16478,-2.67982 l 0.56396,-0.91252 -1.86606,-1.35726 c -1.02634,-0.74649 -1.92832,-1.61548 -2.0044,-1.93109 -0.30598,-1.26923 -0.21389,-2.75465 0.24359,-3.9289 0.43748,-1.1229 0.581,-1.25504 1.53889,-1.41688 l 1.05641,-0.17848 -0.201,-1.49353 c -0.27889,-2.07228 -0.25517,-3.446182 0.065,-3.766392 0.47089,-0.47089 3.31013,-1.08335 4.22582,-0.91157 0.6381,0.11971 1.07225,0.0241 1.60642,-0.3537 0.85938,-0.60786 4.14369,-1.03613 4.42725,-0.57732 0.0974,0.1576 0.63946,0.52242 1.20457,0.81072 0.72302,0.36886 1.17723,0.85771 1.53293,1.649862 0.27802,0.61914 0.9957,1.6769 1.59485,2.3506 1.16494,1.30986 1.62968,2.2508 1.62968,3.29955 0,0.35944 0.1755,0.92139 0.39,1.24875 0.2145,0.32737 0.41215,1.2209 0.43921,1.98562 0.0271,0.76472 0.14923,1.45221 0.27146,1.52776 0.12224,0.0755 0.22225,0.35571 0.22225,0.6226 0,0.26688 0.17668,0.55304 0.39262,0.63591 0.28326,0.10869 0.36396,0.44819 0.28972,1.21893 -0.0566,0.58755 0.002,1.06827 0.12975,1.06827 0.41899,0 1.03819,1.48347 0.74259,1.77907 -0.18399,0.18399 -0.17467,0.62537 0.0292,1.38247 0.22701,0.84304 0.22383,1.20334 -0.0131,1.48886 -0.23982,0.28897 -0.2401,0.46406 -0.001,0.75194 0.24604,0.29647 0.14813,0.67148 -0.46631,1.78594 -0.42776,0.77587 -0.85239,1.73466 -0.94363,2.13064 -0.23193,1.0067 -0.8968,1.29874 -1.94927,0.8562 -0.4709,-0.19799 -0.85619,-0.47778 -0.85619,-0.62173 0,-0.44529 0.53361,-0.61867 0.91918,-0.29867 0.2878,0.23885 0.43046,0.18557 0.66211,-0.24727 0.37715,-0.70472 0.19216,-0.98516 -0.97023,-1.47084 -1.26478,-0.52845 -1.40481,-0.50168 -1.40481,0.2686 0,0.3638 0.11906,0.66146 0.26459,0.66146 0.14552,0 0.26458,0.12852 0.26458,0.2856 0,0.17971 -0.29439,0.22095 -0.79397,0.11122 -0.62984,-0.13833 -0.8264,-0.0743 -0.95084,0.30971 -0.57848,1.78511 -0.69768,1.9393 -1.49927,1.9393 -0.45031,0 -0.95192,-0.20195 -1.15011,-0.46302 -0.3066,-0.40391 -0.35256,-0.28521 -0.3599,0.92963 -0.005,0.76596 0.14042,1.63641 0.32232,1.93434 0.27432,0.44931 0.25959,0.59535 -0.0864,0.85631 -1.29117,0.9739 -0.4349,2.42077 1.43043,2.41705 1.01868,-0.002 1.98987,0.60397 2.02058,1.2608 0.0158,0.33866 -2.04492,0.75095 -4.0543,0.81113 -1.91774,0.0574 -2.63099,0.45584 -0.81607,0.45584 0.50073,0 0.91043,0.11906 0.91043,0.26459 0,0.14552 0.23812,0.26458 0.52916,0.26458 0.36414,0 0.52917,0.17639 0.52917,0.56559 0,0.53362 -0.086,0.55514 -1.52136,0.38052 -0.83674,-0.10179 -2.40516,-0.24295 -3.48536,-0.31369 -1.08021,-0.0707 -2.09224,-0.2094 -2.24896,-0.30813 -0.15672,-0.0987 -0.64213,-0.20357 -1.0787,-0.23297 -0.43656,-0.0294 -1.68672,-0.23586 -2.77812,-0.45881 -1.09141,-0.22295 -2.68726,-0.47387 -3.54635,-0.55759 -0.85908,-0.0837 -1.69121,-0.23211 -1.84918,-0.32973 -0.15796,-0.0976 -1.28635,-0.20815 -2.50752,-0.2456 -2.21158,-0.0678 -2.7915,0.0837 -1.07113,0.27981 0.49741,0.0567 0.98518,0.11642 1.08393,0.13269 0.0987,0.0163 0.36773,0.21777 0.59774,0.44778 0.49471,0.49471 0.29021,0.98006 -0.33653,0.7987 -0.86915,-0.25151 -4.19692,-0.47322 -7.05534,-0.47005 -3.48031,0.004 -3.82639,-0.0667 -3.64927,-0.74406 0.0994,-0.38012 -0.0406,-0.5515 -0.55634,-0.68094 -0.71843,-0.18031 -0.884,-0.49314 -0.41456,-0.78326 0.15104,-0.0934 0.95471,-0.17368 1.78594,-0.17851 1.99537,-0.0116 2.14487,-0.16081 1.86902,-1.86546 -0.22618,-1.39764 -0.3205,-5.39355 -0.15251,-6.46057 0.11128,-0.70682 0.7026,-1.45364 1.00365,-1.26759 0.12257,0.0757 0.2579,-0.71971 0.30075,-1.76768 0.0841,-2.05718 0.4082,-2.49258 1.08569,-1.45859 0.35208,0.53734 0.53424,1.54952 0.68853,3.82594 0.0346,0.50993 0.51913,0.11924 0.51806,-0.4177 -0.002,-0.98507 0.24385,-1.92148 0.67857,-2.58494 0.25001,-0.38156 0.3827,-0.881 0.29488,-1.10986 -0.13895,-0.3621 -0.21024,-0.35074 -0.54927,0.0875 -0.37371,0.4831 -0.40464,0.48425 -0.75848,0.0283 -0.57827,-0.7451 -0.23586,-1.50906 0.67635,-1.50906 0.47749,0 1.03342,-0.25849 1.44841,-0.67348 l 0.67348,-0.67349 -0.65125,-0.65125 c -0.35819,-0.35819 -1.02386,-0.78114 -1.47926,-0.9399 -0.8654,-0.30168 -1.10303,-0.9417 -0.44359,-1.19475 0.31079,-0.11926 0.32346,-0.24592 0.0661,-0.66123 -0.46988,-0.7584 0.21499,-1.10661 1.18743,-0.60374 0.65008,0.33617 0.74325,0.33612 0.74325,-4.2e-4 0,-0.52859 -0.70016,-1.18275 -1.47371,-1.3769 -0.82345,-0.20667 -0.86948,-1.09252 -0.0629,-1.21008 0.46681,-0.068 0.58305,-0.26537 0.59531,-1.01059 0.0186,-1.12761 -0.46771,-1.75215 -1.67433,-2.15036 -1.14267,-0.37711 -2.67605,-1.27038 -2.67605,-1.55892 0,-0.11958 0.35168,-0.29467 0.7815,-0.38907 0.57966,-0.12732 1.08109,0.004 1.94148,0.50814 0.63798,0.37389 1.23881,0.67979 1.33516,0.67979 0.32758,0 0.17684,-0.72759 -0.21877,-1.05591 -0.21668,-0.17983 -0.32871,-0.43254 -0.24897,-0.56157 0.0798,-0.12903 0.0189,-0.2346 -0.1352,-0.2346 -0.15411,0 -0.2802,0.17859 -0.2802,0.39687 0,0.74226 -0.76723,0.40044 -1.21389,-0.54082 -0.41571,-0.87604 -1.96111,-2.03125 -1.96111,-1.46596 0,0.14067 0.11906,0.32935 0.26459,0.41928 0.44519,0.27515 0.29401,0.92605 -0.21509,0.92605 -0.51911,0 -1.90158,-1.29596 -1.90158,-1.78259 0,-0.37109 -0.8529,-0.66089 -1.36579,-0.46407 -0.53638,0.20582 -1.28174,1.54704 -1.27124,2.28748 0.01,0.66741 0.82118,1.81126 1.28534,1.81126 0.32417,0 0.66598,1.13108 0.49595,1.64116 -0.0625,0.18754 -0.28249,0.34783 -0.48885,0.35621 -0.20636,0.008 -0.69107,0.10819 -1.07714,0.2218 -0.58556,0.17231 -0.72062,0.3893 -0.81464,1.3088 -0.12866,1.25827 0.17963,2.36571 0.95181,3.41916 0.70858,0.96666 0.30228,1.43056 -0.76704,0.87579 -0.99789,-0.51771 -1.15823,-0.30843 -0.39011,0.50919 0.37687,0.40116 0.72939,0.57023 0.90504,0.43405 0.88209,-0.68389 2.65473,-0.46002 2.97546,0.37578 0.25058,0.65302 -0.28303,1.01398 -0.91528,0.61914 -0.43792,-0.27349 -0.61726,-0.27149 -0.95724,0.0107 -0.53677,0.44548 -0.52735,0.8383 0.0447,1.86161 0.44781,0.8011 0.44564,0.84147 -0.0662,1.22849 -0.29104,0.2201 -0.83443,0.46276 -1.20753,0.53926 -0.88137,0.18071 -1.55985,1.68014 -0.76025,1.68014 0.27488,0 0.88962,0.23768 1.36608,0.52818 0.47646,0.29049 1.19371,0.52862 1.59389,0.52916 0.44506,6.1e-4 0.72761,0.14411 0.72761,0.36956 0,0.5882 -0.70056,0.69917 -1.85111,0.29324 -0.58667,-0.20699 -1.15431,-0.3841 -1.26143,-0.39358 -0.10712,-0.009 -0.56962,-0.15278 -1.02778,-0.31846 -0.67095,-0.24261 -0.86271,-0.48682 -0.98557,-1.25516 -0.10747,-0.67208 -0.36948,-1.07953 -0.88676,-1.37899 -0.72968,-0.4224 -2.71687,-0.5393 -2.71801,-0.15989 -3.3e-4,0.10914 -5.9e-4,0.35603 -5.9e-4,0.54865 0,0.19262 0.44063,0.46051 0.97918,0.59531 0.68488,0.17144 1.1295,0.50343 1.47933,1.1046 l 0.50015,0.8595 -0.61944,0.23648 -0.61943,0.23648 0.66146,0.14555 c 0.3638,0.08 1.09278,0.21449 1.61996,0.29875 0.71989,0.11507 1.29623,0.51607 2.31511,1.61079 0.74612,0.80166 1.35659,1.56883 1.35659,1.70481 0,0.31628 -0.88808,0.79502 -1.47479,0.79502 -0.24818,0 -0.6019,0.20603 -0.78603,0.45785 -0.31667,0.43306 -0.38629,0.43329 -1.28594,0.004 -0.9246,-0.44091 -0.95115,-0.43892 -0.95115,0.0713 0,0.76351 -0.79104,0.66099 -2.07468,-0.26887 -1.59882,-1.15818 -1.73897,-1.07747 -1.49325,0.8599 0.11536,0.9095 0.19476,2.56436 0.17647,3.67745 -0.031,1.88763 0.002,2.01469 0.48532,1.8882 0.79675,-0.20836 2.37697,0.16916 2.37697,0.56786 0,0.21497 -0.44604,0.42173 -1.13157,0.52453 -1.35058,0.20253 -2.12391,1.06136 -1.17836,1.30862 0.31416,0.0822 0.635,0.0646 0.71296,-0.0391 0.078,-0.10367 0.73565,-0.2272 1.46151,-0.27451 0.72586,-0.0473 1.47,-0.21071 1.65365,-0.36312 0.18364,-0.15241 0.33389,-0.19881 0.33389,-0.10311 0,0.0957 0.23813,0.0465 0.52917,-0.10921 0.29104,-0.15576 0.52917,-0.4576 0.52917,-0.67077 0,-0.21316 0.17859,-0.38756 0.39687,-0.38756 0.55274,0 0.495,0.59764 -0.13513,1.39873 -0.60146,0.76463 -2.16362,1.39921 -4.0563,1.64775 -1.51191,0.19853 -1.44036,0.44721 0.15044,0.52286 0.62181,0.0296 1.10081,0.13153 1.06443,0.22658 -0.0364,0.0951 -0.0662,0.30578 -0.0662,0.46827 0,0.16513 -0.23329,0.23444 -0.5289,0.15713 -0.2909,-0.0761 -0.59234,-0.0357 -0.66987,0.0898 -0.0775,0.12545 -0.85156,0.36789 -1.72006,0.53876 -0.8685,0.17086 -1.57909,0.405 -1.57909,0.5203 0,0.44631 -1.81543,0.7561 -3.90464,0.6663 -1.20167,-0.0516 -2.2505,0.0123 -2.33072,0.14212 -0.0802,0.1298 -0.0111,0.23601 0.15373,0.23601 0.44994,0 0.18325,0.92264 -0.2719,0.94069 -0.21634,0.009 -0.57194,0.0899 -0.790221,0.18082 -0.710558,0.2958 -2.182461,0.33656 -6.085414,0.16851 z m 12.892931,-3.56654 c -0.0879,-0.0879 -0.31613,-0.0973 -0.50712,-0.0209 -0.21107,0.0845 -0.14837,0.14716 0.15985,0.15986 0.27891,0.0115 0.43518,-0.051 0.34727,-0.13897 z m 11.58103,-4.60264 c 0.0899,-0.14553 -0.0291,-0.26459 -0.26458,-0.26459 -0.23546,0 -0.35453,0.11906 -0.26459,0.26459 0.0899,0.14552 0.209,0.26458 0.26459,0.26458 0.0556,0 0.17464,-0.11906 0.26458,-0.26458 z m 23.60855,0.10473 c -0.0879,-0.0879 -0.31612,-0.0973 -0.50712,-0.0209 -0.21107,0.0845 -0.14837,0.14715 0.15985,0.15985 0.27892,0.0115 0.43519,-0.0511 0.34727,-0.13896 z m -19.77209,-5.66098 c 0,-0.14553 -0.0525,-0.26459 -0.11668,-0.26459 -0.0642,0 -0.19026,0.11906 -0.2802,0.26459 -0.0899,0.14552 -0.0374,0.26458 0.11668,0.26458 0.15411,0 0.2802,-0.11906 0.2802,-0.26458 z m -1.71682,-1.87557 c -0.002,-0.89308 -0.12419,-1.42777 -0.34323,-1.50089 -0.26136,-0.0872 -0.31293,0.27576 -0.22238,1.56529 0.1452,2.06802 0.13188,2.00945 0.37122,1.63319 0.10854,-0.17065 0.19602,-0.93456 0.19439,-1.69759 z m -14.15818,1.08182 c 0.69233,-0.69234 0.67103,-1.22411 -0.0567,-1.41441 -0.6327,-0.16545 -1.07772,0.26629 -0.86659,0.84073 0.0712,0.19381 0.12952,0.52123 0.12952,0.72761 0,0.50537 0.16678,0.47303 0.79375,-0.15393 z m 5.02708,-2.3504 c 0,-0.26834 -1.0987,-0.60785 -1.3037,-0.40285 -0.1711,0.1711 0.53033,0.6271 0.97297,0.63253 0.1819,0.002 0.33073,-0.10113 0.33073,-0.22968 z m 35.24772,-0.72697 c -0.0904,-0.47309 0.006,-0.774 0.30127,-0.93919 0.76374,-0.42741 0.46876,-1.01458 -0.77822,-1.5491 -0.6669,-0.28587 -1.24931,-0.51976 -1.29422,-0.51976 -0.0449,0 -0.0361,0.46768 0.0195,1.03929 0.0653,0.67049 0.36023,1.31658 0.83121,1.82068 0.92343,0.98837 1.08611,1.01454 0.92048,0.14808 z m -18.25215,-1.62118 c -0.73221,-0.95997 -1.54285,-1.50929 -1.74488,-1.1824 -0.07,0.11325 0.15316,0.4758 0.49589,0.80566 0.34273,0.32987 0.77434,0.94133 0.95913,1.35879 0.29608,0.66891 0.37323,0.70809 0.64968,0.33002 0.25482,-0.34849 0.18727,-0.59479 -0.35982,-1.31207 z m -18.0539,-0.82312 c 0,-0.1265 -0.40515,-0.2158 -0.90033,-0.19844 -0.49519,0.0174 -0.84535,0.12086 -0.77814,0.23 0.17096,0.27763 1.67847,0.24929 1.67847,-0.0316 z m -2.41149,-0.58244 c -0.42459,-0.26241 -0.61786,-0.12321 -0.37485,0.26998 0.0974,0.15758 0.30061,0.21015 0.45162,0.11683 0.17776,-0.10987 0.1507,-0.24622 -0.0768,-0.38681 z m 17.59672,0.12934 c 0.23295,-0.60706 0.21408,-0.63982 -0.36857,-0.63982 -0.5099,0 -0.71699,0.51773 -0.35277,0.88195 0.28973,0.28974 0.55088,0.20208 0.72134,-0.24213 z m 1.21893,-3.77381 c 0,-0.40071 -1.01736,-1.15589 -1.31193,-0.97384 -0.18195,0.11246 -0.0671,0.36074 0.31406,0.67858 0.65264,0.5443 0.99787,0.64645 0.99787,0.29526 z m -14.81666,-0.16259 c 0,-0.16581 -1.41393,-1.46592 -1.59425,-1.46592 -0.0794,0 -0.14444,0.23813 -0.14444,0.52917 0,0.37073 0.17638,0.52917 0.58914,0.52917 0.32403,0 0.66273,0.11906 0.75267,0.26458 0.16929,0.27391 0.39688,0.35591 0.39688,0.143 z m 37.67798,-0.4419 c -0.70895,-0.79258 -2.46046,-1.86626 -2.75127,-1.68654 -0.28299,0.1749 -0.0757,0.87849 0.43497,1.47665 0.22511,0.26366 0.63706,0.37605 1.11908,0.3053 0.41955,-0.0616 0.84348,0.0186 0.94206,0.17806 0.0986,0.15951 0.30973,0.29001 0.46922,0.29001 0.15948,0 0.0632,-0.25357 -0.21406,-0.56348 z m 2.72012,-0.19039 c -0.21022,-0.24021 -0.57822,-0.82371 -0.81778,-1.29665 -0.46711,-0.92214 -0.96264,-1.08679 -1.46155,-0.48565 -0.24824,0.29912 -0.17113,0.47176 0.38406,0.8599 0.38206,0.26711 0.95373,0.73784 1.27039,1.04608 0.66036,0.64281 1.20185,0.53564 0.62488,-0.12368 z M 96.83774,114.8385 c -9.2e-4,-0.10914 -0.35134,-0.39737 -0.77872,-0.64052 -0.63935,-0.36375 -0.82856,-0.38004 -1.0677,-0.0919 -0.22512,0.27125 -0.1241,0.41097 0.44799,0.61964 0.91378,0.33331 1.40062,0.37256 1.39843,0.11276 z m 35.69828,-1.28346 c -0.19335,-0.23296 -0.3786,-0.60799 -0.41169,-0.83341 -0.13348,-0.90945 -1.35641,-1.12976 -2.04537,-0.36846 -0.38119,0.42121 -0.391,0.53568 -0.0689,0.80304 0.20664,0.17149 0.47753,0.28872 0.60199,0.26051 0.12446,-0.0282 0.40488,0.0177 0.62316,0.10205 1.42651,0.55113 1.73521,0.55974 1.30077,0.0363 z m -23.57598,-0.53378 c -0.2355,-0.2355 -0.56061,-0.34634 -0.72247,-0.2463 -0.4307,0.26619 -0.0794,0.67448 0.58041,0.67448 0.52542,0 0.53658,-0.0337 0.14206,-0.42818 z M 93.13525,111.0775 c 0,-0.37475 -1.03894,-0.86712 -1.47588,-0.69944 -0.61654,0.23658 -0.428,0.64714 0.3514,0.76521 0.40018,0.0606 0.8169,0.12806 0.92604,0.14986 0.10914,0.0218 0.19844,-0.0752 0.19844,-0.21563 z m 36.11563,-0.53847 c -0.0899,-0.14553 -0.28259,-0.26459 -0.42811,-0.26459 -0.14552,0 -0.191,0.11906 -0.10106,0.26459 0.0899,0.14552 0.28258,0.26458 0.4281,0.26458 0.14552,0 0.191,-0.11906 0.10107,-0.26458 z m -17.85938,-0.38126 c 0,-0.0642 -0.11906,-0.19027 -0.26458,-0.2802 -0.14552,-0.0899 -0.26459,-0.0374 -0.26459,0.11667 0,0.15411 0.11907,0.2802 0.26459,0.2802 0.14552,0 0.26458,-0.0525 0.26458,-0.11667 z m 21.52538,-1.07799 c -0.0829,-0.21606 -0.36822,-0.39284 -0.63403,-0.39284 -0.33016,0 -0.50981,-0.22991 -0.567,-0.72565 -0.0968,-0.83896 -1.38881,-1.64697 -1.86772,-1.16806 -0.27925,0.27925 0.1974,1.89333 0.55932,1.89403 0.0915,1.8e-4 0.50818,0.29431 0.92598,0.65363 0.5875,0.50525 0.87006,0.5942 1.24692,0.39251 0.28086,-0.15031 0.42342,-0.42719 0.33653,-0.65362 z m -24.4358,0.13633 c 0,-0.14552 -0.0525,-0.26458 -0.11667,-0.26458 -0.0642,0 -0.19026,0.11906 -0.2802,0.26458 -0.0899,0.14552 -0.0374,0.26458 0.11668,0.26458 0.1541,0 0.28019,-0.11906 0.28019,-0.26458 z m -16.66875,-0.23628 c 0,-0.41773 -0.74484,-0.53737 -0.89584,-0.14389 -0.0964,0.25116 0.0309,0.38017 0.37498,0.38017 0.28647,0 0.52086,-0.10633 0.52086,-0.23628 z m 1.73067,-3.71487 c -0.0959,-0.1552 -0.37573,-0.2784 -0.6218,-0.27377 -0.39282,0.007 -0.3852,0.0555 0.0624,0.39414 0.54374,0.41135 0.84758,0.34597 0.55936,-0.12037 z m 39.27975,0.004 c 0,-0.50433 -0.93698,-1.84926 -1.36661,-1.96161 -0.28365,-0.0742 -0.47868,-0.44278 -0.53264,-1.00666 -0.0651,-0.68084 -0.22101,-0.90897 -0.66412,-0.97204 -0.91234,-0.12986 -0.62939,0.90579 0.72704,2.66109 1.06527,1.37852 1.83633,1.91564 1.83633,1.27922 z m -41.14271,-1.60894 c -0.0899,-0.14552 -0.33509,-0.26458 -0.54478,-0.26458 -0.20969,0 -0.38126,0.11906 -0.38126,0.26458 0,0.14552 0.24515,0.26458 0.54478,0.26458 0.29963,0 0.4712,-0.11906 0.38126,-0.26458 z m 14.2166,-2.07091 c 0.37199,-0.14744 0.22253,-0.34219 -0.79375,-1.03432 -0.68861,-0.46898 -1.66873,-0.918142 -2.17806,-0.998142 l -0.92604,-0.14546 0.91858,0.47077 c 1.0364,0.531152 1.85955,1.266582 1.85955,1.661392 0,0.29798 0.43818,0.31589 1.11972,0.0458 z m 21.14312,-2.423402 c 0.23909,-0.002 0.5008,-0.17583 0.58157,-0.38633 0.2066,-0.53839 -2.16398,-0.9086 -2.48561,-0.38818 -0.31665,0.51234 0.26919,1.10043 0.92167,0.9252 0.30121,-0.0809 0.74327,-0.1487 0.98237,-0.15069 z M 79.244624,131.17669 c 0.08994,-0.14553 0.424386,-0.26276 0.743219,-0.26054 0.471285,0.003 0.505476,0.052 0.182823,0.26054 -0.52126,0.33686 -1.134235,0.33686 -0.926042,0 z m 1.5875,-0.26459 c 0.08994,-0.14552 0.216026,-0.26458 0.280198,-0.26458 0.06417,0 0.116677,0.11906 0.116677,0.26458 0,0.14552 -0.126089,0.26459 -0.280198,0.26459 -0.154109,0 -0.206614,-0.11907 -0.116677,-0.26459 z m 3.510386,-5.21954 c -1.078041,-0.113 -2.584344,-1.36423 -2.584344,-2.14673 0,-0.67746 -1.02454,-3.33721 -1.324143,-3.43755 -0.428007,-0.14333 -0.314882,-1.89301 0.133518,-2.06508 0.218281,-0.0838 0.396875,-0.36822 0.396875,-0.63213 0,-0.32037 0.269732,-0.53908 0.811628,-0.6581 0.446395,-0.0981 0.87391,-0.3754 0.950033,-0.61634 0.659912,-2.0887 1.682813,-3.13082 3.290053,-3.35187 l 1.29829,-0.17856 0.004,-1.09966 c 0.005,-1.51295 0.20541,-2.12829 0.81789,-2.51078 0.80397,-0.50209 1.00719,-0.15584 0.60081,1.02368 -0.20343,0.59045 -0.29637,1.39542 -0.20653,1.78883 0.0898,0.39341 0.18045,1.01295 0.20138,1.37675 0.037,0.64264 -0.007,0.65969 -1.54946,0.59938 -1.6923,-0.0662 -2.19707,0.15957 -2.77285,1.24005 -0.2518,0.47253 -0.26354,0.67622 -0.0432,0.74966 0.16639,0.0555 0.30253,0.3767 0.30253,0.71386 0,0.51554 -0.20688,0.66265 -1.301051,0.92513 -1.625375,0.38993 -2.305188,1.05156 -1.885732,1.83533 0.16224,0.30314 0.409854,0.55117 0.550255,0.55117 0.140401,0 0.255275,0.48802 0.255275,1.08449 0,1.16624 0.64997,2.81851 1.311833,3.33477 0.22438,0.17502 0.73538,0.39284 1.13556,0.48404 0.48362,0.11022 0.72761,0.33623 0.72761,0.67397 0,0.27948 -0.0298,0.48813 -0.0662,0.46367 -0.0364,-0.0245 -0.51054,-0.091 -1.05368,-0.14798 z m 1.38441,-0.33671 c 0,-0.14552 0.11906,-0.26458 0.26458,-0.26458 0.14552,0 0.26458,0.11906 0.26458,0.26458 0,0.14552 -0.11906,0.26459 -0.26458,0.26459 -0.14552,0 -0.26458,-0.11907 -0.26458,-0.26459 z m -2.806297,-13.07487 c -0.08841,-0.23038 -0.278825,-0.41888 -0.423153,-0.41888 -0.289618,0 -1.849379,-1.58242 -1.573062,-1.59591 0.09477,-0.005 -0.0063,-0.15346 -0.224575,-0.33073 -0.218282,-0.17728 -0.431407,-0.68799 -0.473613,-1.13492 -0.06257,-0.66259 0.05475,-0.87251 0.635562,-1.13714 0.49058,-0.22353 0.797477,-0.23937 0.985938,-0.0509 0.188461,0.18846 0.413439,0.14712 0.722763,-0.13282 0.971727,-0.8794 4.662937,0.33593 3.760667,1.23819 -0.20073,0.20074 -0.44806,0.19443 -0.85197,-0.0217 -0.31302,-0.16753 -1.23223,-0.32739 -2.042691,-0.35524 -1.140066,-0.0392 -1.540084,0.0522 -1.767509,0.40362 -0.234276,0.36206 -0.178688,0.56166 0.273822,0.98324 0.312275,0.29093 0.640549,0.75826 0.729498,1.03851 0.08895,0.28025 0.406262,0.5735 0.705139,0.65166 0.338961,0.0886 0.509871,0.31512 0.454261,0.60195 -0.1193,0.61529 -0.710184,0.78464 -0.911077,0.26112 z m 38.341457,-2.97068 c -0.0952,-0.24818 0.003,-0.56079 0.22906,-0.7276 0.21782,-0.16086 0.47312,-0.6022 0.56733,-0.98075 0.11342,-0.45577 0.56232,-0.89571 1.32884,-1.30236 0.98834,-0.52432 1.32347,-0.57841 2.29241,-0.37006 1.26813,0.27268 1.90893,0.95375 1.38774,1.47494 -0.24938,0.24938 -0.45116,0.24947 -0.92009,3.8e-4 -0.33036,-0.17548 -1.01738,-0.26446 -1.5267,-0.19772 -0.50933,0.0667 -1.07487,0.12938 -1.25677,0.1392 -0.5477,0.0296 -0.37154,0.81161 0.18282,0.81161 0.97198,0 1.04439,0.82751 0.0816,0.93284 -0.25459,0.0279 -0.79806,0.18654 -1.20772,0.35265 -0.95075,0.3855 -0.95993,0.38445 -1.15855,-0.13313 z"
       id="path11" />
  </g>
</svg>
