<?xml version="1.0" encoding="UTF-8" standalone="no"?>
<!-- Created with Inkscape (http://www.inkscape.org/) -->

<svg
   width="64.179123mm"
   height="26.894957mm"
   viewBox="0 0 64.179123 26.89495"
   version="1.1"
   id="svg1"
   inkscape:version="1.4.1-rc (06eac75fbf, 2025-03-29)"
   sodipodi:docname="threetrees6.svg"
   xmlns:inkscape="http://www.inkscape.org/namespaces/inkscape"
   xmlns:sodipodi="http://sodipodi.sourceforge.net/DTD/sodipodi-0.dtd"
   xmlns="http://www.w3.org/2000/svg"
   xmlns:svg="http://www.w3.org/2000/svg">
  <sodipodi:namedview
     id="namedview1"
     pagecolor="#ffffff"
     bordercolor="#000000"
     borderopacity="0.25"
     inkscape:showpageshadow="2"
     inkscape:pageopacity="0.0"
     inkscape:pagecheckerboard="0"
     inkscape:deskcolor="#d1d1d1"
     inkscape:document-units="mm"
     inkscape:zoom="0.72248176"
     inkscape:cx="120.41826"
     inkscape:cy="50.520306"
     inkscape:window-width="1850"
     inkscape:window-height="1016"
     inkscape:window-x="0"
     inkscape:window-y="0"
     inkscape:window-maximized="1"
     inkscape:current-layer="layer1" />
  <defs
     id="defs1" />
  <g
     inkscape:label="Layer 1"
     inkscape:groupmode="layer"
     id="layer1"
     transform="translate(-73.554173,-105.56992)">
    <path
       style="fill:#000000"
       d="m 136.39272,132.42084 c -0.29104,-0.0582 -0.67472,-0.2926 -0.85262,-0.52095 -0.2822,-0.36222 -0.34269,-0.365 -0.4744,-0.0218 -0.15801,0.41175 -0.92194,0.55502 -0.92194,0.1729 0,-0.12127 -0.18562,-0.22048 -0.41249,-0.22048 -0.22687,0 -0.34363,0.11141 -0.25948,0.24757 0.0938,0.15182 -0.15596,0.15897 -0.64584,0.0185 -0.53874,-0.1545 -0.79886,-0.13561 -0.79886,0.058 0,0.15792 -0.23812,0.0716 -0.52916,-0.19176 -0.35586,-0.32205 -0.52917,-0.3682 -0.52917,-0.14091 0,0.26915 -0.0802,0.27148 -0.3935,0.0114 -0.21643,-0.17962 -0.56575,-0.26048 -0.77627,-0.1797 -0.21051,0.0808 -0.8343,-0.21197 -1.3862,-0.65056 -0.55189,-0.43859 -1.04561,-0.67091 -1.09716,-0.51627 -0.0641,0.19236 -0.27502,0.18115 -0.66769,-0.0355 -0.31568,-0.17417 -0.7792,-0.28533 -1.03004,-0.24701 -0.25084,0.0383 -1.01171,-0.17612 -1.69081,-0.47652 -0.94832,-0.41949 -1.31965,-0.4757 -1.60084,-0.24233 -0.20136,0.16711 -0.44908,0.22087 -0.55049,0.11946 -0.10141,-0.10141 -0.009,-0.29514 0.20483,-0.43052 0.28071,-0.17753 0.2939,-0.24728 0.0473,-0.2502 -0.32231,-0.004 -0.60893,-0.19492 -1.51313,-1.0089 -0.27953,-0.25163 -0.51985,-0.2693 -0.89946,-0.0662 -0.78516,0.42021 -1.07122,0.33999 -1.34375,-0.37683 -0.13878,-0.36502 -0.54431,-0.72827 -0.91766,-0.82197 -0.36795,-0.0923 -0.62426,-0.2445 -0.56959,-0.33812 0.22084,-0.37818 -0.38238,-1.36084 -0.83537,-1.36084 -0.26662,0 -0.62765,-0.14288 -0.80227,-0.3175 -0.24695,-0.24694 -0.38806,-0.24694 -0.635,0 -0.17463,0.17462 -0.20439,0.33123 -0.0661,0.34802 0.13825,0.0168 0.37042,0.0465 0.51594,0.0661 0.31076,0.0418 0.39687,0.24658 0.39687,0.94362 0,0.39991 -0.15831,0.49432 -0.7276,0.43391 -0.4286,-0.0455 -0.76363,-0.26003 -0.81527,-0.52212 -0.0602,-0.30574 -0.24646,-0.39451 -0.59531,-0.28379 -0.28404,0.0901 -0.50765,0.0367 -0.50765,-0.12129 0,-0.15533 -0.23812,-0.28241 -0.52917,-0.28241 -0.29104,0 -0.52916,-0.11907 -0.52916,-0.26459 0,-0.14552 -0.1786,-0.26458 -0.39688,-0.26458 -0.39654,0 -0.54443,-0.55799 -0.23097,-0.87145 0.0912,-0.0912 0.56211,-3.5e-4 1.04637,0.20199 0.81248,0.33947 0.89299,0.32845 1.04256,-0.14279 0.18191,-0.57317 0.81018,-0.68619 1.00023,-0.17994 0.0733,0.19516 0.22713,0.0682 0.37535,-0.30982 0.15636,-0.39871 0.32079,-0.52794 0.43553,-0.34228 0.10139,0.16404 0.35201,0.23392 0.55693,0.15529 0.29376,-0.11273 0.31108,-0.278 0.0818,-0.78112 -0.23431,-0.51427 -0.20249,-0.73568 0.16393,-1.14057 0.50376,-0.55665 1.6793,-0.87994 1.90016,-0.52258 0.17348,0.2807 0.90639,0.30572 0.89823,0.0307 -0.003,-0.10914 -0.25244,-0.49609 -0.55379,-0.85989 -0.35879,-0.43314 -0.49662,-0.50164 -0.3993,-0.19844 0.11362,0.35399 -0.002,0.46302 -0.48892,0.46302 -0.35065,0 -0.71113,-0.11906 -0.80106,-0.26458 -0.0899,-0.14552 -0.38005,-0.26459 -0.64468,-0.26459 -0.26464,0 -0.63573,-0.18624 -0.82465,-0.41388 -0.20071,-0.24184 -0.57253,-0.3564 -0.89449,-0.27559 -0.78988,0.19825 -1.29858,-0.196 -1.09215,-0.84642 0.14629,-0.4609 0.32172,-0.51994 1.1528,-0.38795 0.53914,0.0856 1.24274,0.32555 1.56357,0.53317 0.56631,0.36648 0.57677,0.35467 0.35889,-0.40502 -0.2496,-0.87031 -1.78105,-2.54303 -2.39742,-2.61857 -0.21828,-0.0268 -0.73383,-0.12011 -1.14567,-0.20746 -0.47821,-0.10142 -0.68836,-0.061 -0.58157,0.11176 0.10001,0.16181 -0.003,0.20527 -0.2561,0.10812 -0.25332,-0.0972 -0.57016,0.0368 -0.78894,0.33376 -0.32455,0.4405 -0.30305,0.51188 0.19154,0.6358 0.30642,0.0768 0.61117,0.30171 0.67722,0.49985 0.0775,0.23245 0.004,0.2885 -0.20717,0.158 -0.23993,-0.14828 -0.27742,-0.0452 -0.14049,0.38617 0.16563,0.52187 0.11647,0.56748 -0.43468,0.40329 -0.34179,-0.10182 -0.74391,-0.33841 -0.8936,-0.52577 -0.21752,-0.27225 -0.39605,-0.24032 -0.88921,0.15901 -0.33937,0.27481 -0.81848,0.49965 -1.06469,0.49965 -0.3851,0 -0.42548,0.20136 -0.28902,1.44112 0.0872,0.79262 0.36141,1.6652 0.60925,1.93907 0.24785,0.27386 0.45063,0.61894 0.45063,0.76682 0,0.14789 0.23532,0.48185 0.52293,0.74214 0.28761,0.26028 0.45918,0.57639 0.38126,0.70246 -0.0779,0.12607 -0.0212,0.22922 0.12612,0.22922 0.39883,0 1.16744,1.77805 1.0171,2.35293 -0.18377,0.70274 0.12169,1.08106 1.01673,1.25921 1.03352,0.20573 1.10919,0.20529 2.56023,-0.0147 1.00985,-0.15311 1.28959,-0.11045 1.41476,0.21574 0.30708,0.80024 -1.42002,1.6932 -1.8692,0.96643 -0.0841,-0.13613 -0.44293,0.0425 -0.79733,0.39687 -0.66496,0.66496 -1.57,0.84749 -1.86172,0.37548 -0.0914,-0.1479 -0.30176,-0.18512 -0.46745,-0.0827 -0.41648,0.2574 -1.51421,0.35534 -1.51451,0.13513 -1.3e-4,-0.0992 -0.7144,-0.18039 -1.58725,-0.18039 -0.87286,0 -1.58712,-0.10204 -1.58726,-0.22674 -1.3e-4,-0.12471 -0.2086,-0.1403 -0.46326,-0.0346 -0.25466,0.10567 -0.58209,0.18545 -0.72761,0.17731 -0.4119,-0.0231 -1.85208,-0.2713 -1.85208,-0.31924 0,-0.0236 -0.53578,-0.0988 -1.19063,-0.16712 -1.8601,-0.19405 -2.513537,-0.28289 -2.513537,-0.34174 0,-0.19758 -1.10239,-0.20269 -1.4684,-0.007 -0.24552,0.1314 -0.5315,0.1538 -0.63552,0.0498 -0.10403,-0.10402 -0.32804,-0.18912 -0.49781,-0.18912 -0.16978,0 -0.34673,-0.2679 -0.39323,-0.59532 -0.0569,-0.40041 0.0514,-0.59531 0.33073,-0.59531 0.2284,0 0.41527,-0.11906 0.41527,-0.26458 0,-0.14552 -0.17859,-0.26459 -0.39687,-0.26459 -0.21828,0 -0.39688,0.11907 -0.39688,0.26459 0,0.33872 -0.94834,0.34206 -1.57711,0.006 -0.35159,-0.18817 -0.57282,-0.15198 -0.80875,0.13229 -0.42652,0.51392 -0.95628,0.49769 -1.16092,-0.0356 -0.10733,-0.27971 -0.35463,-0.377 -0.71725,-0.28217 -0.46228,0.12089 -0.53439,0.0451 -0.4378,-0.46017 0.10405,-0.5443 0.0207,-0.60099 -0.83241,-0.56587 -0.52143,0.0215 -1.2149,-0.0523 -1.54106,-0.16385 -0.61989,-0.21206 -1.39136,-0.0421 -1.39136,0.30658 0,0.1117 0.83752,0.4724 1.86115,0.80154 1.24731,0.40106 2.05452,0.83849 2.4474,1.32624 0.46239,0.57405 1.08931,0.85228 2.96749,1.31698 2.91353,0.72087 3.53382,0.80254 6.879167,0.90575 2.08578,0.0644 2.62875,0.15912 2.56514,0.44769 -0.15509,0.7036 -0.88948,1.01134 -2.03785,0.85394 -0.66956,-0.0918 -1.18867,-0.0406 -1.29249,0.12737 -0.12006,0.19425 -0.51801,0.17168 -1.291657,-0.0733 -3.44436,-1.09047 -3.63174,-1.13376 -3.63574,-0.83995 -0.003,0.20544 -0.0644,0.21075 -0.19844,0.0171 -0.10691,-0.15446 -0.43251,-0.29551 -0.72355,-0.31344 -0.29104,-0.0179 -1.06328,-0.14859 -1.71608,-0.29036 -0.65281,-0.14177 -1.36719,-0.17278 -1.5875,-0.0689 -0.22032,0.10388 -1.11496,0.15851 -1.98808,0.1214 -1.38387,-0.0588 -1.65538,0.0121 -2.11667,0.55253 -0.54715,0.64106 -2.3822,1.10306 -2.65138,0.66751 -0.0811,-0.13129 -0.54087,-0.22393 -1.02161,-0.20585 -0.48074,0.0181 -1.00362,-0.0472 -1.16195,-0.14506 -0.15833,-0.0979 -0.36619,-0.0512 -0.46191,0.10368 -0.20256,0.32776 -2.45772,0.0707 -2.97138,-0.33873 -0.22274,-0.17754 -0.33073,-0.17122 -0.33073,0.0193 0,0.16077 -0.45703,0.26474 -1.05833,0.24076 -0.58209,-0.0232 -1.05834,-0.15978 -1.05834,-0.30348 0,-0.16563 -0.0992,-0.16206 -0.27104,0.01 -0.31416,0.31417 -3.43312,-0.10099 -3.43312,-0.45698 0,-0.12032 0.25846,-0.3571 0.57436,-0.52617 0.47597,-0.25473 0.63462,-0.22499 0.92605,0.17356 0.35155,0.48078 0.48459,0.26292 0.37211,-0.60939 -0.0232,-0.18026 0.0785,-0.55345 0.22618,-0.82933 0.21561,-0.40287 0.1807,-0.49458 -0.17739,-0.46601 -0.24521,0.0196 -0.49208,-0.18935 -0.5486,-0.46425 -0.0958,-0.46573 0.0242,-0.4873 1.75881,-0.31638 1.68624,0.16616 1.8879,0.13427 2.14096,-0.33857 0.3212,-0.60017 1.59931,-0.98013 2.89871,-0.86174 1.00865,0.0919 1.34364,-0.24929 1.34976,-1.37476 0.003,-0.60545 -0.0878,-0.71628 -0.48503,-0.5902 -1.02402,0.32501 -2.88603,-1.34846 -2.78259,-2.50082 0.0196,-0.21828 0.0494,-0.61065 0.0662,-0.87192 0.0168,-0.26128 0.31835,-0.76288 0.67014,-1.11468 0.48275,-0.48274 0.85017,-0.61298 1.49806,-0.53098 0.9657,0.12222 1.7207,0.73109 1.44988,1.16927 -0.22902,0.37057 -1.13289,0.37795 -1.25546,0.0102 -0.18023,-0.54068 -0.95562,0.0594 -1.06823,0.82668 -0.0626,0.42678 -0.0387,0.77596 0.0532,0.77596 0.0919,0 0.6137,0.40911 1.1596,0.90913 0.75061,0.68753 1.02808,0.81652 1.13834,0.52917 0.17964,-0.46811 0.78084,-0.49851 0.95363,-0.0482 0.07,0.18246 0.07,0.9058 0,1.60742 -0.11769,1.17935 -0.0902,1.25565 0.36403,1.01048 0.27023,-0.14585 0.6752,-0.32028 0.89994,-0.38761 0.33338,-0.0999 0.40188,-0.56855 0.37209,-2.54568 -0.0315,-2.09011 0.0293,-2.45849 0.44225,-2.6795 0.37517,-0.20078 0.56638,-0.12252 0.88362,0.36165 0.37649,0.57459 0.38194,0.93699 0.0486,3.22753 -0.0213,0.14663 0.39444,0.23116 0.93261,0.18961 0.53412,-0.0412 1.04836,0.05 1.14276,0.20276 0.0944,0.15275 0.30271,0.19672 0.46291,0.0977 0.19485,-0.12043 0.2274,-0.0124 0.0983,0.32641 -0.15476,0.40625 -0.12702,0.441 0.14025,0.1757 0.18324,-0.1819 0.57725,-0.33147 0.87557,-0.33236 0.29832,-9e-4 0.88343,-0.17949 1.30024,-0.39688 0.41682,-0.21738 1.13119,-0.39603 1.5875,-0.39699 l 0.82966,-0.002 -0.79375,-0.52568 c -0.43657,-0.28912 -1.00211,-0.52646 -1.25678,-0.52742 -0.25466,-9.6e-4 -0.46302,-0.14462 -0.46302,-0.31924 0,-0.23696 -0.0762,-0.24128 -0.30049,-0.017 -0.22426,0.22426 -0.40584,0.19514 -0.71579,-0.11481 -0.27308,-0.27308 -0.44931,-0.31329 -0.5146,-0.1174 -0.0709,0.21281 -0.24722,0.21875 -0.61712,0.0208 -0.2848,-0.15242 -0.73735,-0.20745 -1.00566,-0.12229 -0.52276,0.16591 -0.98656,-0.51748 -0.53895,-0.79412 0.13917,-0.086 0.25303,-0.44282 0.25303,-0.79292 0,-0.36822 0.22569,-0.75731 0.53541,-0.92307 0.47961,-0.25668 0.4934,-0.32856 0.1323,-0.68967 -0.44646,-0.44645 -0.55823,-1.28616 -0.13651,-1.02553 0.3103,0.19178 1.11205,-0.51877 0.86458,-0.76624 -0.0916,-0.0916 0.0493,-0.32431 0.31301,-0.51717 0.38014,-0.27796 0.66582,-0.2866 1.37825,-0.0417 0.49429,0.16993 1.03776,0.44801 1.20771,0.61796 0.16995,0.16995 0.54316,0.30901 0.82935,0.30901 0.28619,0 0.442,-0.0783 0.34625,-0.1741 -0.0958,-0.0958 -0.0616,-0.30967 0.076,-0.47538 0.28175,-0.33948 -0.8745,-1.81016 -1.63291,-2.07696 -0.24872,-0.0875 -0.55141,-0.54184 -0.67263,-1.00964 -0.12122,-0.46781 -0.45349,-0.97942 -0.73839,-1.13693 -0.2849,-0.1575 -0.59243,-0.38841 -0.6834,-0.51312 -0.091,-0.12471 -0.41114,-0.14876 -0.71149,-0.0534 -0.61638,0.19563 -1.2132,-0.59167 -0.9562,-1.26139 0.1938,-0.50504 -0.0123,-0.60746 -1.60649,-0.79844 -0.7276,-0.0872 -1.16681,-0.09 -0.97601,-0.006 0.27101,0.11891 0.24757,0.26196 -0.10715,0.65393 -0.62741,0.69328 -0.83058,0.6319 -1.03826,-0.31368 -0.22628,-1.03026 0.707,-2.18697 1.57454,-1.95148 0.50683,0.13758 0.51328,0.12132 0.088,-0.22214 -0.2524,-0.20382 -0.38111,-0.44838 -0.28602,-0.54347 0.26928,-0.26928 -2.78341,0.051 -3.34359,0.3508 -0.47161,0.2524 -0.87435,1.3553 -0.91857,2.51551 -0.0116,0.30537 -0.24103,0.56603 -0.54916,0.62401 -0.29104,0.0548 -0.43945,0.007 -0.3298,-0.10645 0.10965,-0.1133 0.0259,-0.47073 -0.18608,-0.79428 -0.3158,-0.48196 -0.32792,-0.74876 -0.0671,-1.47633 0.3638,-1.01474 0.54699,-1.23142 1.6258,-1.92296 1.4808,-0.94922 2.4596,-0.99124 4.09376,-0.17572 0.81289,0.40567 1.79151,0.81303 2.17471,0.90525 0.92344,0.22222 2.44199,1.65794 2.25872,2.13551 -0.0939,0.24467 0.19443,0.53146 0.83168,0.82729 1.36908,0.63558 1.90142,1.16234 1.90142,1.8815 0,0.34125 0.11193,0.62045 0.24873,0.62045 0.1368,0 0.22116,0.32742 0.18745,0.72761 -0.0863,1.02508 0.55421,1.457 1.20123,0.80998 0.2742,-0.2742 0.42713,-0.61412 0.33984,-0.75536 -0.16303,-0.26378 0.0347,-0.36456 1.22033,-0.62194 0.47186,-0.10244 0.86169,0.017 1.25677,0.38508 0.315,0.29347 0.57273,0.40988 0.57273,0.25869 0,-0.48043 1.785797,-0.29615 2.772667,0.28612 0.52296,0.30855 1.14216,0.93363 1.37599,1.38906 0.48917,0.95273 1.55237,2.01792 2.01654,2.02031 0.1744,8.9e-4 0.64922,0.17487 1.05515,0.38661 0.69782,0.36399 0.75102,0.35088 0.97587,-0.24052 0.29652,-0.77992 0.58974,-0.97012 1.05359,-0.68344 0.22733,0.1405 0.5157,0.0684 0.77876,-0.19464 0.30859,-0.30859 0.33194,-0.44635 0.0894,-0.5272 -0.58967,-0.19656 -0.34502,-0.59453 0.36549,-0.59453 0.61602,0 0.65312,-0.0493 0.33073,-0.43952 -0.3246,-0.39289 -0.29145,-0.42591 0.31234,-0.31124 0.37845,0.0719 0.82034,-0.0268 1.00494,-0.22442 0.22691,-0.24291 0.47407,-0.27531 0.794,-0.10409 0.28238,0.15112 0.61455,0.15368 0.84714,0.006 0.54062,-0.34204 0.71714,-0.31191 1.24717,0.21284 0.25723,0.25466 0.98476,0.8704 1.61674,1.36831 0.96827,0.76285 1.22715,0.85651 1.6454,0.59531 0.61555,-0.38442 2.09102,-0.40826 2.09102,-0.0338 0,0.1519 0.14883,0.24376 0.33073,0.20413 0.38476,-0.0838 1.5194,0.83261 1.5255,1.23213 0.002,0.14957 0.53807,0.86645 1.19063,1.59309 0.65256,0.72664 1.18647,1.56648 1.18647,1.86633 0,0.29984 0.40746,0.94009 0.90547,1.42278 0.49801,0.48269 0.84836,1.02647 0.77855,1.20839 -0.0698,0.18192 0.0585,0.40192 0.28515,0.4889 0.46722,0.17929 0.57109,1.63273 0.13591,1.90169 -0.1519,0.0939 -0.44434,0.0311 -0.64987,-0.13946 -0.20553,-0.17057 -0.50271,-0.2304 -0.66039,-0.13295 -0.17601,0.10878 0.0397,0.46219 0.55879,0.91538 0.63057,0.55055 0.83951,0.94846 0.82197,1.56538 -0.0197,0.69194 0.0753,0.82719 0.58076,0.82719 0.85067,0 2.34893,0.53009 2.69113,0.95213 0.32938,0.40623 3.23463,1.22614 3.58262,1.01108 0.12668,-0.0783 0.23033,-0.02 0.23033,0.12954 0,0.14954 0.14883,0.22173 0.33073,0.16042 0.65697,-0.22145 3.84004,-0.33868 4.14125,-0.15253 0.35432,0.21898 0.13586,0.98293 -0.32525,1.13736 -0.17065,0.0572 -0.5484,0.0563 -0.83944,-0.002 z M 82.969473,128.9868 c -0.19785,-0.19785 -2.89037,-0.33745 -3.39986,-0.17627 -0.25678,0.0812 -0.39738,0.26012 -0.31245,0.39754 0.0849,0.13741 0.23548,0.2053 0.33457,0.15084 0.0991,-0.0545 0.77547,-0.0207 1.50307,0.0751 1.16336,0.15307 2.22232,-0.0995 1.87467,-0.44718 z m 41.752407,-0.0195 c 0.19065,-0.30846 -0.86612,-1.15576 -1.19104,-0.95495 -0.16695,0.10318 -0.0963,0.35786 0.18565,0.66944 0.49135,0.54294 0.7933,0.62869 1.00539,0.28551 z m -12.19729,-0.57636 c -0.0761,-0.29104 -0.24775,-0.52917 -0.38141,-0.52917 -0.13427,0 -0.11629,0.23682 0.0402,0.52917 0.15576,0.29104 0.3274,0.52917 0.38142,0.52917 0.054,0 0.0359,-0.23813 -0.0402,-0.52917 z m -7.485,0 c 0,-0.14552 -0.11203,-0.26459 -0.24896,-0.26459 -0.13694,0 -0.32256,0.11907 -0.41249,0.26459 -0.0899,0.14552 0.0221,0.26459 0.24896,0.26459 0.22687,0 0.41249,-0.11907 0.41249,-0.26459 z m -14.168427,-0.22848 c -0.30387,-0.2762 -1.91007,-0.82986 -2.40751,-0.82986 -0.68,0 -0.35671,0.75871 0.37021,0.86883 1.38311,0.20953 2.29155,0.19215 2.0373,-0.039 z m 14.697597,-0.57358 c 0,-0.3935 -0.71642,-0.61038 -1.25677,-0.38046 -0.39936,0.16993 -0.37208,0.22477 0.19844,0.39881 0.94668,0.2888 1.05833,0.28687 1.05833,-0.0183 z m 1.32292,0.0166 c 0,-0.14095 -0.1786,-0.18774 -0.39688,-0.10398 -0.21828,0.0838 -0.39687,0.19909 -0.39687,0.25628 0,0.0572 0.17859,0.10398 0.39687,0.10398 0.21828,0 0.39688,-0.11532 0.39688,-0.25628 z m 16.28275,-0.0259 c 0.24254,-0.39244 0.0145,-0.55544 -0.50066,-0.35777 -0.23827,0.0914 -0.36735,0.27283 -0.28683,0.4031 0.19803,0.32042 0.57485,0.29873 0.78749,-0.0453 z m -19.37724,-0.99085 c 0.15543,-0.81307 0.003,-1.19083 -0.38482,-0.95137 -0.14725,0.091 -0.19251,0.4652 -0.10057,0.83153 0.14271,0.56859 0.0975,0.63592 -0.30929,0.46007 -0.26205,-0.1133 -0.95271,-0.23104 -1.53479,-0.26164 -0.58208,-0.0306 -1.39351,-0.1911 -1.803157,-0.35664 -0.91063,-0.368 -1.23955,-0.38013 -1.23955,-0.0457 0,0.36093 1.01503,0.86105 1.33998,0.66022 0.14888,-0.092 0.416647,-0.0462 0.595027,0.10187 0.3231,0.26814 2.4216,0.51656 2.99848,0.35496 0.16681,-0.0467 0.36422,-0.40371 0.43869,-0.79328 z m -20.982597,0.6272 c 0,-0.0642 -0.11906,-0.19027 -0.26458,-0.2802 -0.14552,-0.0899 -0.26458,-0.0374 -0.26458,0.11667 0,0.15411 0.11906,0.2802 0.26458,0.2802 0.14552,0 0.26458,-0.0525 0.26458,-0.11667 z m 38.893747,-0.2802 c -0.18115,-0.21828 -0.49339,-0.39688 -0.69385,-0.39688 -0.20046,0 -0.36448,-0.0935 -0.36448,-0.20788 0,-0.11434 -0.23812,-0.20789 -0.52917,-0.20789 -0.72096,0 -0.67964,0.0591 0.46303,0.66234 1.19927,0.63312 1.56584,0.68212 1.12447,0.15031 z m -21.35167,-1.36487 c -0.14245,-0.37124 -0.038,-0.41275 0.67819,-0.26952 0.72954,0.14591 0.88031,0.0806 1.09059,-0.47247 0.22288,-0.58622 0.36729,-0.63445 1.66773,-0.55691 0.78304,0.0467 1.69167,0.2283 2.01918,0.40358 0.69667,0.37284 1.16371,0.0953 0.4818,-0.28635 -0.25345,-0.14183 -0.46082,-0.4343 -0.46082,-0.64991 0,-0.21562 -0.20836,-0.46891 -0.46302,-0.56287 -0.25466,-0.094 -0.539,-0.28407 -0.63187,-0.42247 -0.0966,-0.14397 -0.32302,-0.15522 -0.52917,-0.0263 -0.19817,0.12394 -0.47937,0.24012 -0.62489,0.25818 -0.14553,0.0181 -0.42044,0.051 -0.61093,0.0731 -0.19049,0.0222 -0.27224,0.16021 -0.18167,0.30675 0.22181,0.35891 -0.63094,0.6648 -0.95365,0.34209 -0.77768,-0.77767 0.97724,-1.98235 2.65271,-1.82097 1.10808,0.10673 1.30614,-0.041 0.77162,-0.57552 -0.23199,-0.23199 -0.22799,-0.40062 0.0165,-0.69521 0.26949,-0.32472 0.19993,-0.40301 -0.42132,-0.47423 -0.54096,-0.062 -0.73251,-0.22105 -0.70166,-0.58249 0.0233,-0.27345 -0.18501,-0.90215 -0.46302,-1.39711 -0.278,-0.49497 -0.50546,-1.07491 -0.50546,-1.28876 0,-0.21386 -0.0893,-0.36993 -0.19844,-0.34683 -0.51122,0.10822 -1.12448,-0.42356 -1.12448,-0.97509 0,-0.49855 -0.24284,-0.69254 -1.31117,-1.04738 -0.721137,-0.23953 -1.703407,-0.44501 -2.182807,-0.45663 -0.4794,-0.0116 -0.94763,-0.13812 -1.0405,-0.28112 -0.19042,-0.2932 -0.75718,-0.0293 -0.75718,0.35258 0,0.13694 0.20836,0.26278 0.46302,0.27966 0.37398,0.0248 0.38349,0.0521 0.0495,0.14217 -0.67489,0.18192 -0.52399,2.30897 0.21248,2.99496 0.61633,0.57409 0.65678,1.48913 0.12834,2.90318 -0.20252,0.54193 -0.12191,0.74792 0.49626,1.26807 0.53216,0.44779 0.7899,0.96849 0.92388,1.86651 0.10219,0.685 0.37662,1.50961 0.60982,1.83246 0.5005,0.69287 1.148627,0.81149 0.900467,0.1648 z m 23.61074,-0.55336 c -0.17259,-1.29407 -0.42385,-1.70445 -0.83476,-1.36342 -0.33527,0.27826 -0.47738,0.15079 -0.3973,-0.35637 0.0172,-0.10914 -0.12482,-0.19844 -0.31566,-0.19844 -0.19084,0 -0.60258,-0.23813 -0.91498,-0.52917 -0.31239,-0.29104 -0.68211,-0.52916 -0.82159,-0.52916 -0.13948,0 -0.29555,-0.12588 -0.34684,-0.27973 -0.0513,-0.15385 -0.28475,-0.20623 -0.51882,-0.11641 -0.74567,0.28614 9e-4,1.22323 2.14264,2.68945 1.09846,0.752 2.02131,1.37708 2.05078,1.38907 0.0295,0.012 0.01,-0.30564 -0.0435,-0.70582 z m -15.05306,-0.40462 c -0.14845,-0.59147 -1.70267,-2.45136 -1.89072,-2.26258 -0.0479,0.0481 0.34923,0.76137 0.88262,1.58496 1.01093,1.56095 1.27422,1.73793 1.0081,0.67762 z m 9.98941,0.118 c -0.0145,-0.16978 -0.0458,-0.6361 -0.0694,-1.03629 -0.03,-0.50762 -0.30937,-0.90008 -0.92414,-1.29808 -0.97819,-0.63329 -1.65121,-0.45796 -1.43377,0.37353 0.0746,0.28526 0.0262,0.71417 -0.1075,0.95312 -0.18977,0.33911 -0.127,0.43445 0.28604,0.43445 0.29104,0 0.62438,0.16114 0.74075,0.35808 0.39676,0.67147 1.56139,0.83765 1.50804,0.21519 z m -22.482757,-1.45506 c -0.21644,-0.56405 -0.53816,-0.56373 -0.75477,7.4e-4 -0.1845,0.48081 0.37501,0.98941 0.71472,0.6497 0.11513,-0.11513 0.13315,-0.40783 0.0401,-0.65044 z m 10.206087,-0.97029 c 0,-0.14552 -0.11906,-0.26458 -0.26458,-0.26458 -0.14552,0 -0.26458,0.11906 -0.26458,0.26458 0,0.14552 0.11906,0.26458 0.26458,0.26458 0.14552,0 0.26458,-0.11906 0.26458,-0.26458 z m -11.131087,-0.7276 c -0.0394,-0.42078 -0.47436,-1.23943 -0.49198,-0.92605 -0.028,0.49742 -1.23081,0.39796 -2.39984,-0.19843 -1.11896,-0.57085 -1.85209,-0.68033 -1.85209,-0.27658 0,0.13893 0.44407,0.33591 0.98682,0.43773 0.54275,0.10182 1.34642,0.40442 1.78594,0.67245 0.79885,0.48717 2.00624,0.66534 1.97115,0.29088 z m 27.535257,-0.0661 c 0,-0.14552 -0.0525,-0.26459 -0.11668,-0.26459 -0.0642,0 -0.19026,0.11907 -0.28019,0.26459 -0.0899,0.14552 -0.0374,0.26458 0.11667,0.26458 0.15411,0 0.2802,-0.11906 0.2802,-0.26458 z m -16.93333,-0.52917 c 0,-0.14552 -0.0525,-0.26458 -0.11668,-0.26458 -0.0642,0 -0.19026,0.11906 -0.2802,0.26458 -0.0899,0.14552 -0.0374,0.26459 0.11668,0.26459 0.15411,0 0.2802,-0.11907 0.2802,-0.26459 z m 16.13958,0.14791 c 0,-0.0642 -0.11906,-0.19026 -0.26458,-0.2802 -0.14552,-0.0899 -0.26459,-0.0374 -0.26459,0.11668 0,0.15411 0.11907,0.2802 0.26459,0.2802 0.14552,0 0.26458,-0.0525 0.26458,-0.11668 z m -1.32292,-0.66146 c 0,-0.13693 -0.11906,-0.32255 -0.26458,-0.41249 -0.14552,-0.0899 -0.26458,0.0221 -0.26458,0.24897 0,0.22687 0.11906,0.41249 0.26458,0.41249 0.14552,0 0.26458,-0.11204 0.26458,-0.24897 z m -1.14603,-0.87462 c 0.029,-0.37693 -0.0933,-0.74132 -0.27162,-0.80976 -0.21473,-0.0824 -0.33248,0.18246 -0.34851,0.78392 -0.0283,1.06226 0.53866,1.08588 0.62013,0.0258 z m -13.40605,-0.0827 c 0,-0.22687 -0.121,-0.33771 -0.2689,-0.2463 -0.14789,0.0914 -0.2004,0.27702 -0.11668,0.41249 0.22682,0.36699 0.38558,0.29856 0.38558,-0.16619 z m -10.054167,-0.7477 c 0,-0.38573 -1.27719,-1.35498 -1.49649,-1.13567 -0.20609,0.20608 0.51881,1.21139 0.95976,1.33101 0.22244,0.0603 0.43421,0.12353 0.47059,0.14041 0.0364,0.0169 0.0661,-0.13421 0.0661,-0.33575 z m -3.84311,-0.15196 c 0.2323,-0.37586 -0.45043,-1.33368 -0.95063,-1.33368 -0.5562,0 -1.12712,0.68242 -0.89081,1.06478 0.1,0.16181 0.34457,0.23176 0.54347,0.15544 0.1989,-0.0763 0.43201,-0.0249 0.51802,0.11425 0.20071,0.32476 0.57899,0.32437 0.77995,-7.9e-4 z m 27.920197,-0.68784 c 0,-0.22687 -0.10659,-0.34661 -0.23686,-0.2661 -0.13027,0.0805 -0.30803,-0.0391 -0.39501,-0.26574 -0.0966,-0.25163 -0.28767,-0.3315 -0.49074,-0.20508 -0.18293,0.11387 -0.61387,0.17068 -0.95764,0.12623 -0.75246,-0.0973 -0.53621,0.41435 0.32138,0.76037 0.93213,0.37609 1.75887,0.30573 1.75887,-0.14968 z m -20.10834,-4.08543 c 0,-0.14552 -0.12609,-0.26458 -0.280187,-0.26458 -0.15411,0 -0.20662,0.11906 -0.11668,0.26458 0.0899,0.14552 0.216027,0.26459 0.280197,0.26459 0.0642,0 0.11667,-0.11907 0.11667,-0.26459 z m -10.451037,-4.23333 c -0.0899,-0.14552 -0.30532,-0.26276 -0.47863,-0.26053 -0.18934,0.002 -0.15671,0.10642 0.0818,0.26053 0.50829,0.32849 0.59989,0.32849 0.39687,0 z m -9.27156,4.47988 c -0.0961,-0.15544 -0.33137,-0.22249 -0.52289,-0.149 -0.52827,0.20272 -0.7241,-0.64274 -0.26609,-1.14883 0.22179,-0.24508 0.40699,-0.55528 0.41156,-0.68934 0.005,-0.13406 0.31376,-0.46636 0.68707,-0.73844 0.58062,-0.42317 0.95235,-0.46772 2.57137,-0.3082 2.02324,0.19935 2.55408,0.4522 2.55408,1.21655 0,0.63488 -0.46164,0.8978 -0.9153,0.52129 -0.20821,-0.1728 -1.02115,-0.26712 -1.90664,-0.22122 -1.52913,0.0793 -1.54446,0.0881 -1.62659,0.93991 -0.0817,0.84733 -0.62367,1.16446 -0.98657,0.57728 z"
       id="path8" />
  </g>
</svg>
