<?xml version="1.0" encoding="UTF-8" standalone="no"?>
<!-- Created with Inkscape (http://www.inkscape.org/) -->

<svg
   width="22.095903mm"
   height="35.282578mm"
   viewBox="0 0 22.095904 35.28257"
   version="1.1"
   id="svg1"
   inkscape:version="1.4.1-rc (06eac75fbf, 2025-03-29)"
   sodipodi:docname="tree1.svg"
   xmlns:inkscape="http://www.inkscape.org/namespaces/inkscape"
   xmlns:sodipodi="http://sodipodi.sourceforge.net/DTD/sodipodi-0.dtd"
   xmlns="http://www.w3.org/2000/svg"
   xmlns:svg="http://www.w3.org/2000/svg">
  <sodipodi:namedview
     id="namedview1"
     pagecolor="#ffffff"
     bordercolor="#000000"
     borderopacity="0.25"
     inkscape:showpageshadow="2"
     inkscape:pageopacity="0.0"
     inkscape:pagecheckerboard="0"
     inkscape:deskcolor="#d1d1d1"
     inkscape:document-units="mm"
     inkscape:zoom="0.72248176"
     inkscape:cx="41.52354"
     inkscape:cy="67.129722"
     inkscape:window-width="1850"
     inkscape:window-height="1016"
     inkscape:window-x="0"
     inkscape:window-y="0"
     inkscape:window-maximized="1"
     inkscape:current-layer="layer1" />
  <defs
     id="defs1" />
  <g
     inkscape:label="Layer 1"
     inkscape:groupmode="layer"
     id="layer1"
     transform="translate(-94.456263,-101.33669)">
    <path
       style="fill:#000000"
       d="m 103.18958,136.51177 c -1.60817,-0.20645 -1.76424,-0.81167 -0.20931,-0.81167 h 1.17825 l 0.33536,-1.65364 c 0.46726,-2.30412 0.36333,-3.91456 -0.28179,-4.36642 -1.4355,-1.00546 -2.08163,-1.83201 -2.24856,-2.8764 -0.11011,-0.68893 -0.0673,-1.15748 0.11627,-1.2709 0.18866,-0.1166 0.0565,-0.43008 -0.37664,-0.89313 -0.36703,-0.3924 -0.73604,-0.98136 -0.82003,-1.30878 -0.084,-0.32742 -0.25886,-0.59531 -0.38861,-0.59531 -0.12974,0 -0.2359,-0.22695 -0.2359,-0.50434 0,-0.40617 0.26382,-0.54062 1.35535,-0.69075 0.99704,-0.13713 1.4121,-0.0946 1.57004,0.16098 0.28758,0.46532 0.0663,0.76953 -0.55975,0.76953 -0.28246,0 -0.51356,0.17492 -0.51356,0.38872 0,0.7485 1.07653,2.44504 1.74464,2.74945 0.78804,0.35906 0.77082,1.17223 -0.0279,1.31624 -0.81408,0.14678 -1.0776,0.53171 -0.50423,0.7365 0.279,0.0996 0.71562,0.36013 0.97029,0.57885 0.50359,0.43251 0.57312,0.29573 0.47441,-0.93321 -0.026,-0.32307 0.25852,-1.19605 0.63217,-1.93996 0.37364,-0.74392 0.68118,-1.55115 0.68341,-1.79385 0.004,-0.3816 0.0387,-0.38761 0.26053,-0.0444 0.14106,0.21828 0.2583,0.26789 0.26053,0.11024 0.002,-0.15765 -0.0774,-0.3681 -0.17699,-0.46767 -0.24182,-0.24182 -0.34223,-3.34674 -0.10823,-3.34674 0.48785,0 0.81844,0.75168 0.81844,1.8609 0,0.67425 0.0712,1.29708 0.15816,1.38407 0.25747,0.25747 0.90017,-0.096 0.90017,-0.49515 0,-0.21992 0.27567,-0.36857 0.68351,-0.36857 0.45264,0 0.63143,-0.11171 0.52933,-0.33073 -0.0848,-0.1819 -0.21994,-0.50932 -0.30034,-0.7276 -0.20508,-0.55683 -1.84979,-1.5875 -2.53327,-1.5875 -0.31342,0 -0.71374,0.19678 -0.88961,0.4373 -0.37052,0.50671 -0.9292,0.26979 -0.9292,-0.39405 0,-0.8614 0.7223,-1.57103 1.45627,-1.43072 0.63902,0.12215 0.68052,0.0665 0.66726,-0.89478 -0.008,-0.56378 -0.006,-1.25125 0.003,-1.52773 0.009,-0.27648 -0.36662,-0.89858 -0.8356,-1.38244 -0.76046,-0.7846 -0.81976,-0.95202 -0.54829,-1.54784 0.23946,-0.52555 0.49819,-0.66808 1.2128,-0.66808 h 0.90841 l -0.0428,-1.24219 c -0.0365,-1.05874 0.0486,-1.28877 0.57615,-1.55756 0.34045,-0.17345 0.51904,-0.3586 0.39688,-0.41145 -0.12217,-0.0529 -0.40485,-0.45327 -0.62819,-0.88984 -0.75555,-1.47684 -3.09835,-2.04083 -3.7123,-0.89366 -0.14623,0.27323 -0.17834,0.49679 -0.0713,0.49679 0.10698,0 0.0467,0.14783 -0.134,0.32852 -0.79714,0.79713 -0.96411,-1.29289 -0.17108,-2.14143 0.19731,-0.21111 0.96992,-0.37375 1.88538,-0.39687 0.8531,-0.0216 1.52132,-0.12848 1.48494,-0.23762 -0.0364,-0.10914 -0.0661,-0.36901 -0.0661,-0.57748 0,-0.57866 -0.97703,-0.76624 -1.62545,-0.31207 -0.52483,0.3676 -0.66508,0.34695 -1.67891,-0.2472 -0.60844,-0.35656 -1.18255,-0.572 -1.2758,-0.47875 -0.0933,0.0933 -0.32483,0.0407 -0.5146,-0.11681 -0.58684,-0.48703 -3.045858,-0.23621 -3.494008,0.35639 -0.50679,0.67015 -0.51149,2.26748 -0.0102,3.46725 0.48357,1.15736 0.50649,1.72421 0.0661,1.63572 -0.77438,-0.15562 -1.79476,0.37514 -2.54689,1.32478 -0.67766,0.85561 -0.78131,1.17344 -0.64887,1.98957 0.23592,1.45382 2.95776,4.03281 4.53589,4.29783 1.627368,0.27329 1.959998,0.89775 0.478208,0.89775 -1.783928,0 -2.441028,2.07474 -1.041148,3.28733 0.56288,0.48758 0.670088,0.71995 0.44007,0.95388 -0.34609,0.35198 -1.41569,0.10472 -1.41569,-0.32727 0,-0.15605 -0.17022,-0.41591 -0.37827,-0.57748 -0.55044,-0.42746 -0.58263,-1.75219 -0.0664,-2.73147 l 0.44822,-0.85023 -1.52314,-1.10521 c -2.21705,-1.6087 -2.43857,-1.95584 -2.4306,-3.80892 0.009,-2.20718 0.60415,-3.33572 1.96578,-3.73066 0.63151,-0.18316 1.02519,-0.44586 0.97616,-0.65136 -0.22533,-0.94429 -0.49011,-3.86223 -0.37768,-4.16207 0.26544,-0.70787 2.27192,-1.47996 3.899438,-1.50051 1.08317,-0.0137 1.82115,-0.17677 2.32298,-0.51342 0.93675,-0.62839 3.49239,-0.47738 5.27641,0.31177 0.96777,0.4281 1.3227,0.77381 1.73313,1.68813 0.28388,0.63238 1.00635,1.70099 1.60551,2.37468 1.16494,1.30987 1.62968,2.25081 1.62968,3.29955 0,0.35945 0.19503,0.9512 0.43339,1.31499 0.23837,0.3638 0.44673,1.24273 0.46303,1.95319 0.0163,0.71046 0.11892,1.38096 0.22806,1.49001 0.10914,0.10905 0.19843,0.40381 0.19843,0.65503 0,0.25122 0.19398,0.5312 0.43107,0.62218 0.33452,0.12836 0.39942,0.40136 0.28976,1.21893 -0.0777,0.57943 -0.0366,1.05351 0.0913,1.05351 0.38051,0 1.03861,1.48301 0.77506,1.74658 -0.14065,0.14066 -0.1307,0.71436 0.0243,1.4044 0.17349,0.77209 0.17319,1.25554 -8.7e-4,1.42959 -0.17427,0.17428 -0.17222,0.43261 0.006,0.76576 0.20713,0.38702 0.12114,0.75835 -0.37357,1.61311 -0.35345,0.6107 -0.7873,1.55776 -0.9641,2.10458 -0.42484,1.31396 -1.08596,1.66294 -2.12877,1.12368 -0.43788,-0.22644 -0.79614,-0.52068 -0.79614,-0.65387 0,-0.42844 0.54123,-0.59277 0.91918,-0.2791 0.28779,0.23884 0.43045,0.18557 0.6621,-0.24728 0.37716,-0.70471 0.19217,-0.98515 -0.97023,-1.47083 -1.26477,-0.52846 -1.4048,-0.50168 -1.4048,0.26859 0,0.36381 0.11906,0.66146 0.26458,0.66146 0.14552,0 0.26459,0.13295 0.26459,0.29544 0,0.16971 -0.23606,0.23372 -0.55469,0.15039 -0.70902,-0.18541 -1.2974,0.0396 -1.2974,0.49607 0,0.19587 -0.13817,0.65938 -0.30705,1.03003 -0.37063,0.81344 -1.6836,0.93732 -2.23505,0.21088 -0.30619,-0.40335 -0.35257,-0.27819 -0.3599,0.97136 -0.006,0.94005 0.13428,1.59205 0.40565,1.89191 0.37729,0.4169 0.3693,0.50099 -0.0899,0.94687 -1.25723,1.22068 -0.59673,2.31243 1.42195,2.35038 0.89489,0.0168 1.27302,0.16076 1.58232,0.60235 0.22353,0.31914 0.33937,0.68874 0.25741,0.82135 -0.30843,0.49905 -5.20181,0.86904 -7.53402,0.56964 z m 5.59384,-9.44529 c -0.0904,-0.47308 0.006,-0.77399 0.30127,-0.93918 0.23889,-0.13369 0.43435,-0.42064 0.43435,-0.63765 0,-0.44868 -2.17159,-1.47633 -2.39468,-1.13323 -0.32,0.49214 0.0751,2.06719 0.55696,2.22012 0.26825,0.0851 0.56138,0.38683 0.65139,0.67043 0.24373,0.76794 0.6044,0.62351 0.45071,-0.18049 z m 2.5877,-4.44764 c 0,-0.0642 -0.11906,-0.19026 -0.26458,-0.2802 -0.14552,-0.0899 -0.26459,-0.0374 -0.26459,0.11668 0,0.15411 0.11907,0.2802 0.26459,0.2802 0.14552,0 0.26458,-0.0525 0.26458,-0.11668 z m 0.12254,-3.0685 c -1.35266,-1.41187 -2.97315,-1.93937 -2.58431,-0.84124 0.31988,0.90336 0.85898,1.29118 1.63628,1.1771 0.41955,-0.0616 0.84348,0.0186 0.94206,0.17805 0.0986,0.15951 0.31355,0.29002 0.47771,0.29002 0.16416,0 -0.0481,-0.36177 -0.47174,-0.80393 z m 2.96931,0.0501 c -0.21021,-0.24022 -0.57821,-0.82371 -0.81778,-1.29665 -0.45769,-0.90355 -0.96194,-1.08764 -1.43101,-0.52243 -0.2074,0.24989 -0.1098,0.47303 0.3761,0.85989 0.3609,0.28734 0.91884,0.77463 1.23987,1.08287 0.66871,0.64207 1.21031,0.53622 0.63282,-0.12368 z m -3.31603,-2.82793 c -0.52108,-1.14963 -1.37747,-1.43463 -2.14953,-0.71535 -0.47041,0.43826 -0.49657,0.5615 -0.17568,0.82782 0.20736,0.17209 0.47885,0.28982 0.60331,0.26161 0.12446,-0.0282 0.40488,0.0177 0.62316,0.10204 0.59063,0.22819 1.16921,0.41538 1.3568,0.43896 0.0914,0.0115 -0.0247,-0.4003 -0.25806,-0.91508 z m -3.08311,-2.50362 c -0.0899,-0.14552 -0.28259,-0.26458 -0.42811,-0.26458 -0.14552,0 -0.19099,0.11906 -0.10106,0.26458 0.0899,0.14552 0.28259,0.26458 0.42811,0.26458 0.14552,0 0.191,-0.11906 0.10106,-0.26458 z m 3.66601,-1.45924 c -0.0829,-0.21606 -0.36823,-0.39284 -0.63404,-0.39284 -0.33016,0 -0.50981,-0.22991 -0.567,-0.72565 -0.0916,-0.79418 -1.38978,-1.646 -1.833,-1.20278 -0.31813,0.31813 0.2406,1.92843 0.66911,1.92843 0.17781,0 0.58483,0.3008 0.90449,0.66845 0.47232,0.54321 0.6777,0.61681 1.0962,0.39284 0.30196,-0.16161 0.45263,-0.43811 0.36424,-0.66845 z m -0.0941,-3.81098 c 0,-0.4768 -0.93179,-1.87021 -1.25173,-1.87186 -0.17912,-9.2e-4 -0.39743,-0.32909 -0.48512,-0.72927 -0.27901,-1.27337 -0.35253,-1.38907 -0.88263,-1.38907 -0.75467,0 -0.56425,1.06741 0.3907,2.19005 0.42547,0.50018 0.98077,1.16454 1.23401,1.47635 0.47412,0.58379 0.99477,0.75326 0.99477,0.3238 z m -5.17701,-6.39913 c 0.36926,-0.34105 0.10443,-0.48158 -1.26004,-0.6686 -1.11039,-0.15219 -1.23586,-0.11649 -1.23586,0.35164 0,0.28657 0.0808,0.60182 0.17952,0.70055 0.22074,0.22075 1.97694,-0.0701 2.31638,-0.38359 z m -6.38365,10.44047 c -0.0989,-0.25776 0.0123,-0.56626 0.27288,-0.75678 0.24193,-0.1769 0.43987,-0.51803 0.43987,-0.75808 0,-0.45872 0.75967,-1.24687 1.16104,-1.20458 0.12925,0.0136 0.33339,-0.13423 0.45363,-0.32856 0.33977,-0.5491 2.74969,-0.42391 3.41407,0.17734 0.46892,0.42436 0.49234,0.54394 0.16974,0.86654 -0.28232,0.28231 -0.50364,0.305 -0.90097,0.0924 -0.69989,-0.37457 -3.23918,-0.0759 -3.23918,0.38098 0,0.18789 0.26789,0.37966 0.59531,0.42617 0.73682,0.10464 0.79257,0.86806 0.0661,0.90574 -0.29104,0.0151 -0.86434,0.16392 -1.274,0.33073 -0.9504,0.38699 -0.95986,0.38592 -1.15854,-0.13185 z"
       id="path6" />
  </g>
</svg>
