<?xml version="1.0" encoding="UTF-8" standalone="no"?>
<!-- Created with Inkscape (http://www.inkscape.org/) -->

<svg
   width="41.255695mm"
   height="37.706329mm"
   viewBox="0 0 41.255696 37.706321"
   version="1.1"
   id="svg1"
   inkscape:version="1.4.1-rc (06eac75fbf, 2025-03-29)"
   sodipodi:docname="tree2.svg"
   xmlns:inkscape="http://www.inkscape.org/namespaces/inkscape"
   xmlns:sodipodi="http://sodipodi.sourceforge.net/DTD/sodipodi-0.dtd"
   xmlns="http://www.w3.org/2000/svg"
   xmlns:svg="http://www.w3.org/2000/svg">
  <sodipodi:namedview
     id="namedview1"
     pagecolor="#ffffff"
     bordercolor="#000000"
     borderopacity="0.25"
     inkscape:showpageshadow="2"
     inkscape:pageopacity="0.0"
     inkscape:pagecheckerboard="0"
     inkscape:deskcolor="#d1d1d1"
     inkscape:document-units="mm"
     inkscape:zoom="0.72248176"
     inkscape:cx="77.510607"
     inkscape:cy="71.282076"
     inkscape:window-width="1850"
     inkscape:window-height="1016"
     inkscape:window-x="0"
     inkscape:window-y="0"
     inkscape:window-maximized="1"
     inkscape:current-layer="layer1" />
  <defs
     id="defs1" />
  <g
     inkscape:label="Layer 1"
     inkscape:groupmode="layer"
     id="layer1"
     transform="translate(-84.931263,-100.27835)">
    <path
       style="fill:#000000"
       d="m 96.79891,137.89025 c -0.156135,-0.11223 -0.360758,-0.41241 -0.454717,-0.66707 -0.128914,-0.3494 -0.470445,-0.46302 -1.391812,-0.46302 -1.512206,0 -1.49014,-0.55425 0.03436,-0.86313 1.837731,-0.37233 2.262301,-0.90331 2.283679,-2.85601 0.02293,-2.09439 -0.220699,-3.29944 -0.889931,-4.40178 -0.282109,-0.46469 -0.565519,-1.11953 -0.6298,-1.45521 -0.06428,-0.33568 -0.305513,-1.21106 -0.53607,-1.9453 -0.357845,-1.1396 -0.569911,-1.40026 -1.449085,-1.78115 -1.549536,-0.6713 -1.968826,-1.47049 -1.593126,-3.03659 0.263212,-1.09719 0.236061,-1.42571 -0.202646,-2.45191 -0.645726,-1.51044 -0.724164,-4.23107 -0.153787,-5.33406 0.399678,-0.77289 0.3892,-0.83111 -0.274227,-1.52357 -0.379381,-0.39599 -0.739613,-0.97872 -0.800515,-1.29496 -0.0609,-0.31625 -0.186532,-0.69763 -0.279176,-0.84754 -0.328439,-0.53142 -0.42928,-3.16504 -0.12119,-3.16504 0.162412,0 0.232795,-0.20836 0.156408,-0.46302 -0.312935,-1.04327 1.803565,-2.42182 3.638391,-2.36981 0.520411,0.0147 1.005719,0.18192 1.078464,0.37149 0.07274,0.18957 0.278313,0.34467 0.456819,0.34467 0.178505,0 0.658492,0.31993 1.066637,0.71096 0.729183,0.6986 0.742082,0.70076 0.742082,0.12399 0,-0.32284 -0.20836,-0.66003 -0.463021,-0.74932 -0.675065,-0.23669 -1.376401,-1.18566 -1.383179,-1.87157 -0.0032,-0.32742 0.247403,-0.84859 0.556976,-1.15817 0.499664,-0.49966 0.744738,-0.54236 2.182812,-0.38028 0.890974,0.10042 1.917614,0.17393 2.281414,0.16335 0.3638,-0.0106 1.2193,0.18129 1.90112,0.42639 0.91254,0.32804 1.28313,0.61884 1.4044,1.10202 0.10251,0.40843 0.0356,0.73618 -0.17699,0.8676 -0.2382,0.14722 -0.0608,0.32857 0.58534,0.59857 0.50989,0.21305 1.15147,0.63531 1.42574,0.93837 0.27426,0.30305 0.6673,0.55101 0.87342,0.55101 0.51209,0 1.21545,0.74348 1.25869,1.33049 0.0195,0.26514 0.41545,0.92687 0.87981,1.47051 0.46437,0.54363 0.8443,1.14784 0.8443,1.34267 0,0.52742 -0.90943,0.42815 -1.43906,-0.15708 -0.65518,-0.72396 -1.26953,-0.44506 -0.88391,0.40128 0.16018,0.35156 0.37777,0.63921 0.48353,0.63921 0.30724,0 3.16236,2.80285 3.16236,3.10447 0,0.50618 -1.13124,0.60013 -1.49304,0.124 -0.21362,-0.28111 -0.34538,-0.32606 -0.35063,-0.11961 -0.012,0.47148 -0.80644,0.40887 -1.37827,-0.10862 -0.70876,-0.64142 -0.93774,-0.19487 -0.26647,0.51967 0.53493,0.5694 0.54275,0.63527 0.12508,1.05294 -0.41767,0.41767 -0.35412,0.53272 1.01577,1.83895 1.67507,1.59723 2.49941,2.865 2.26319,3.48059 -0.19972,0.52046 -0.97397,0.56887 -0.97397,0.0609 0,-0.38034 -1.37478,-1.53065 -2.18748,-1.83031 -0.71917,-0.26518 -2.31212,0.60174 -2.30163,1.25259 0.008,0.51507 0.82156,1.73694 1.15607,1.73694 0.32295,0 1.5109,1.19648 1.82732,1.84044 0.4339,0.88306 0.29352,1.46574 -0.47436,1.96887 -0.49657,0.32537 -0.79456,0.35159 -1.43971,0.12669 -0.44745,-0.15598 -0.81354,-0.37613 -0.81354,-0.48923 0,-0.11309 -0.35776,-0.27718 -0.79502,-0.36463 -1.1682,-0.23364 -1.16872,-0.23362 -1.2629,0.0489 -0.0477,0.14318 0.26849,0.33836 0.70271,0.43372 0.94337,0.2072 1.55636,0.83782 1.18012,1.21406 -0.16827,0.16827 -0.63687,0.125 -1.34256,-0.12398 -1.56232,-0.55122 -3.41428,-0.78954 -3.61476,-0.46516 -0.23794,0.38501 0.27331,0.63483 1.51448,0.74006 1.2348,0.10469 1.64259,0.40574 1.40131,1.03451 -0.13847,0.36084 -0.35476,0.40511 -1.15961,0.23733 -1.1743,-0.2448 -2.14455,-0.24004 -2.395634,0.0118 -0.370573,0.37163 -0.111401,2.85879 0.323244,3.10203 0.23185,0.12975 0.42154,0.40439 0.42154,0.61032 0,0.78043 2.27649,1.29063 5.29166,1.18597 2.73448,-0.0949 2.9431,-0.0908 4.8948,0.0961 1.83446,0.17569 5.2068,0.46035 6.48229,0.54717 0.99744,0.0679 1.78675,0.39317 1.94317,0.80078 0.10424,0.27167 0.76885,0.37 2.60413,0.3853 2.92153,0.0244 4.31624,0.29195 4.31624,0.82815 0,0.42198 -0.23347,0.43146 -4.72943,0.1919 -2.38832,-0.12725 -2.6238,-0.097 -2.74124,0.35206 -0.1805,0.69023 -1.2348,0.49495 -1.34513,-0.24915 -0.0859,-0.57919 -0.84149,-0.82094 -0.84149,-0.26923 0,0.21362 -0.44169,0.24202 -1.52135,0.0978 -1.89871,-0.2536 -7.73905,-0.32635 -7.73906,-0.0964 0,0.0936 0.20835,0.25708 0.46301,0.36334 0.38086,0.15892 0.32347,0.2331 -0.32342,0.41803 -0.79561,0.22746 -3.12911,0.15381 -5.26221,-0.16606 -1.30571,-0.19581 -1.77916,0.1558 -1.11036,0.8246 0.26722,0.26721 0.75974,0.38445 1.38094,0.3287 1.37324,-0.12324 1.44289,0.47496 0.0975,0.83724 -0.59653,0.16063 -1.64602,0.27083 -2.33222,0.2449 -0.686187,-0.0259 -1.664335,0.0304 -2.173658,0.12524 -0.509322,0.0948 -1.053788,0.0806 -1.209924,-0.0317 z m 0.813049,-1.39467 c -0.08994,-0.14552 -0.275557,-0.26459 -0.412489,-0.26459 -0.136933,0 -0.248969,0.11907 -0.248969,0.26459 0,0.14552 0.185621,0.26458 0.41249,0.26458 0.22687,0 0.338905,-0.11906 0.248968,-0.26458 z m 1.190625,0.1479 c 0,-0.27926 -0.507765,-0.39658 -0.658791,-0.15222 -0.0914,0.14789 0.01943,0.2689 0.246302,0.2689 0.226869,0 0.412489,-0.0525 0.412489,-0.11668 z m 0.09568,-1.07395 c -0.17174,-0.44754 -0.518474,-0.51845 -0.744763,-0.15231 -0.08313,0.13451 0.05867,0.29929 0.315114,0.36618 0.256443,0.0669 0.492289,0.13544 0.524102,0.15232 0.03181,0.0169 -0.01069,-0.1479 -0.09445,-0.36619 z m 6.122026,-1.32621 c -0.82597,-0.22756 -1.86577,-0.30408 -2.76804,-0.20371 -2.07227,0.23051 -0.98158,0.5665 1.842,0.56743 l 2.24896,7.4e-4 z m -6.229297,-0.53303 c 0.151896,0.0939 0.276174,-0.0149 0.276174,-0.24181 0,-0.58046 -0.361672,-0.51268 -0.951181,0.17827 -0.383794,0.44983 -0.396341,0.50751 -0.0526,0.2418 0.248287,-0.19192 0.575709,-0.27214 0.727604,-0.17826 z m 14.166797,-0.12513 c 0.0899,-0.14552 -0.0221,-0.26458 -0.24897,-0.26458 -0.22687,0 -0.41249,0.11906 -0.41249,0.26458 0,0.14552 0.11204,0.26458 0.24897,0.26458 0.13693,0 0.32255,-0.11906 0.41249,-0.26458 z m -13.649303,-1.16259 c 0.236345,-0.28478 0.20927,-0.46569 -0.118794,-0.79375 -0.534473,-0.53448 -0.938458,-0.54908 -0.77568,-0.028 0.06819,0.21828 0.179783,0.57546 0.247976,0.79375 0.153495,0.49132 0.25823,0.49586 0.646498,0.028 z m -0.774537,-7.7671 c 0.0024,-0.35458 -0.156438,-0.59531 -0.392824,-0.59531 -0.428541,0 -0.483233,0.31195 -0.224263,1.27914 0.123527,0.46134 0.222037,0.52831 0.389211,0.26458 0.123103,-0.1942 0.225647,-0.62099 0.227876,-0.94841 z m 1.85613,-1.44198 c 0,-0.42741 -0.0782,-0.50384 -0.29444,-0.28763 -0.161947,0.16194 -0.214452,0.42388 -0.116679,0.58208 0.273679,0.44283 0.411119,0.34439 0.411119,-0.29445 z m -1.719787,-0.47625 c 0.08994,-0.14552 0.03743,-0.26458 -0.116677,-0.26458 -0.154109,0 -0.280198,0.11906 -0.280198,0.26458 0,0.14552 0.0525,0.26459 0.116677,0.26459 0.06417,0 0.190261,-0.11907 0.280198,-0.26459 z m -3.986207,-1.19062 c 0.188302,-1.00374 0.745375,-1.22106 1.186889,-0.46302 0.220796,0.37908 0.271798,0.29514 0.281343,-0.46302 0.01827,-1.45093 0.279018,-2.11667 0.829042,-2.11667 0.427621,0 0.498308,0.20643 0.498308,1.45521 0,0.80036 0.112036,1.45521 0.248968,1.45521 0.370445,0 0.484223,-0.28514 0.580683,-1.45521 0.07172,-0.86994 0.221023,-1.11638 0.83873,-1.38441 0.577772,-0.2507 0.712985,-0.44737 0.584939,-0.85081 -0.0916,-0.2886 -0.04848,-0.95231 0.09581,-1.47491 0.237432,-0.85991 0.190102,-1.03043 -0.498319,-1.79502 -0.709997,-0.78857 -0.790379,-0.81558 -1.206525,-0.40546 -0.245217,0.24167 -0.44585,0.74769 -0.44585,1.12448 0,0.77311 -0.243912,0.87102 -0.725197,0.29111 -0.532004,-0.64103 -0.117459,-2.06451 0.713572,-2.4503 0.999035,-0.46377 1.25064,-0.42282 2.173592,0.35379 0.733709,0.61738 0.830869,0.63929 0.990459,0.22338 0.35348,-0.92115 -2.119873,-2.20897 -2.598813,-1.35315 -0.321282,0.5741 -1.016634,0.26209 -1.016634,-0.45618 0,-0.82451 0.495313,-1.21523 1.540522,-1.21523 0.791856,0 0.862359,-0.052 0.561666,-0.41432 -0.423619,-0.51043 -1.836095,-1.26323 -1.841656,-0.98154 -0.0022,0.11288 -0.113434,0.0323 -0.247125,-0.17901 -0.133691,-0.21133 -0.188074,-0.47323 -0.120853,-0.582 0.209209,-0.33851 1.945953,-0.0541 2.448855,0.40102 0.961128,0.86981 1.106248,0.40501 0.153962,-0.49311 -0.540039,-0.50932 -1.136803,-0.92604 -1.32614,-0.92604 -0.189338,0 -0.412685,-0.11073 -0.496328,-0.24607 -0.08364,-0.13533 -0.805944,-0.32776 -1.605116,-0.42761 -1.579507,-0.19734 -2.242786,0.0897 -2.242786,0.97066 0,0.66089 -0.701211,0.63489 -1.06207,-0.0394 -0.229029,-0.42795 -0.173874,-0.69493 0.273291,-1.32292 0.46212,-0.64899 0.746272,-0.78677 1.622594,-0.78677 1.190374,0 1.280764,-0.43871 0.203624,-0.98828 -0.801762,-0.40908 -1.874868,-0.42394 -2.722557,-0.0377 -0.546369,0.24894 -0.680575,0.54586 -0.830464,1.83732 -0.184403,1.58882 0.01136,3.15742 0.394055,3.15742 0.269288,0 0.809508,1.4884 0.611931,1.68598 -0.07891,0.0789 0.270382,0.0763 0.776201,-0.006 0.675892,-0.10968 0.960263,-0.0435 1.072808,0.24983 0.09678,0.25221 -0.03368,0.44792 -0.354536,0.53183 -0.27922,0.073 -0.630626,0.4717 -0.780902,0.88596 -0.150275,0.41427 -0.384735,0.99134 -0.52102,1.28238 -0.136286,0.29104 -0.281714,0.77324 -0.323174,1.07155 -0.08146,0.58613 0.759274,2.67818 1.304803,3.24682 0.427242,0.44535 0.426179,0.4628 -0.12138,1.9904 -0.444845,1.24106 -0.443283,1.29349 0.04926,1.65365 0.737309,0.53913 0.858418,0.47532 1.051536,-0.55409 z m 5.648704,-1.03824 c 0.22796,-0.50032 0.21075,-0.70899 -0.0782,-0.94882 -0.491203,-0.40766 -0.922807,-0.11036 -0.922807,0.63566 0,1.10067 0.5621,1.27652 1.001037,0.31316 z m 1.90938,0.52469 c 0,-0.0642 -0.11907,-0.19027 -0.26459,-0.2802 -0.14552,-0.0899 -0.26458,-0.0374 -0.26458,0.11667 0,0.15411 0.11906,0.2802 0.26458,0.2802 0.14552,0 0.26459,-0.0525 0.26459,-0.11667 z m -0.17244,-2.37046 c -0.55122,-0.75661 -0.8859,-0.87221 -0.8859,-0.306 0,0.38091 1.06167,1.29049 1.26681,1.08535 0.0595,-0.0595 -0.11195,-0.41017 -0.38091,-0.77935 z m 0.7016,-3.70227 c 0,-0.34823 -0.19563,-0.70822 -0.43474,-0.79998 -0.60892,-0.23366 -0.667,-0.089 -0.29009,0.72274 0.40759,0.87776 0.72483,0.91157 0.72483,0.0772 z m 2.64584,-0.67946 c 0,-0.30068 -1.0632,-1.33322 -1.37281,-1.33322 -0.48649,0 -0.1638,0.6916 0.51338,1.10029 0.90881,0.54847 0.85943,0.53509 0.85943,0.23293 z m -2.27116,-4.41731 c -0.84236,-0.67392 -1.25525,-0.67835 -1.38395,-0.0148 -0.0568,0.29305 0.19483,0.50449 0.79375,0.66684 1.24514,0.33754 1.48956,0.0675 0.5902,-0.652 z m 3.59407,-1.65903 c 0,-0.40635 -1.22751,-1.3423 -1.76044,-1.3423 -0.34939,0 0.0327,0.74338 0.63596,1.23732 0.89938,0.73637 1.12448,0.75739 1.12448,0.10498 z m -4.20957,-1.5625 c -0.48218,-0.90094 -1.03303,-1.20823 -1.48842,-0.83029 -0.35163,0.29183 -0.27149,0.40016 0.59531,0.80473 0.55091,0.25713 1.0356,0.47715 1.0771,0.48893 0.0415,0.0118 -0.0413,-0.19674 -0.18399,-0.46337 z m 2.68362,-1.147 c -0.22837,-0.22837 -0.46625,-0.23304 -0.91281,-0.0179 -0.56718,0.27325 -0.54838,0.29205 0.30887,0.30887 0.69579,0.0136 0.83938,-0.0555 0.60394,-0.29096 z m -4.29488,-2.60882 c 0,-0.39987 -1.04588,-0.82609 -1.597493,-0.65101 -0.940497,0.2985 -0.594891,0.85944 0.539161,0.87509 0.582082,0.008 1.058332,-0.0928 1.058332,-0.22408 z m -3.439582,-0.90315 c 0,-0.27927 -0.507766,-0.39659 -0.658791,-0.15223 -0.0914,0.1479 0.01943,0.2689 0.246301,0.2689 0.226869,0 0.41249,-0.0525 0.41249,-0.11667 z m -6.752413,34.55006 c -0.05266,-0.0521 -0.727799,-0.15291 -1.500311,-0.22401 -0.772512,-0.0711 -1.442026,-0.23014 -1.487808,-0.35342 -0.04578,-0.12328 -0.228151,-0.16854 -0.405266,-0.10057 -0.177114,0.068 -0.790157,-0.0385 -1.362317,-0.23659 l -1.04029,-0.36016 0.759001,-0.19049 c 0.41745,-0.10478 0.829826,-0.0943 0.91639,0.0233 0.08656,0.11758 0.574108,0.23277 1.083431,0.25598 2.348298,0.10702 5.282751,0.45113 5.601477,0.65686 0.28701,0.18526 0.278697,0.27503 -0.04523,0.48838 -0.360241,0.23727 -2.288936,0.26846 -2.51908,0.0407 z"
       id="path2" />
  </g>
</svg>
