<?xml version="1.0" encoding="UTF-8" standalone="no"?>
<!-- Created with Inkscape (http://www.inkscape.org/) -->

<svg
   width="33.166744mm"
   height="31.816023mm"
   viewBox="0 0 33.166744 31.816016"
   version="1.1"
   id="svg1"
   inkscape:version="1.4.1-rc (06eac75fbf, 2025-03-29)"
   sodipodi:docname="twotrees2.svg"
   xmlns:inkscape="http://www.inkscape.org/namespaces/inkscape"
   xmlns:sodipodi="http://sodipodi.sourceforge.net/DTD/sodipodi-0.dtd"
   xmlns="http://www.w3.org/2000/svg"
   xmlns:svg="http://www.w3.org/2000/svg">
  <sodipodi:namedview
     id="namedview1"
     pagecolor="#ffffff"
     bordercolor="#000000"
     borderopacity="0.25"
     inkscape:showpageshadow="2"
     inkscape:pageopacity="0.0"
     inkscape:pagecheckerboard="0"
     inkscape:deskcolor="#d1d1d1"
     inkscape:document-units="mm"
     inkscape:zoom="0.72248176"
     inkscape:cx="62.285309"
     inkscape:cy="60.209132"
     inkscape:window-width="1850"
     inkscape:window-height="1016"
     inkscape:window-x="0"
     inkscape:window-y="0"
     inkscape:window-maximized="1"
     inkscape:current-layer="layer1" />
  <defs
     id="defs1" />
  <g
     inkscape:label="Layer 1"
     inkscape:groupmode="layer"
     id="layer1"
     transform="translate(-88.900012,-103.18876)">
    <path
       style="fill:#000000"
       d="m 107.26073,134.96297 c -0.43656,-0.0543 -0.94257,-0.22186 -1.12447,-0.37232 -0.23348,-0.19312 -0.33073,-0.17826 -0.33073,0.0505 0,0.23771 -0.4761,0.28643 -1.78594,0.18275 -2.12521,-0.16822 -1.85434,-0.0815 -2.00043,-0.6405 -0.0911,-0.34843 -0.1286,-0.31569 -0.15169,0.13229 -0.0349,0.67754 -0.49863,0.79814 -0.73187,0.19035 -0.11779,-0.30697 -0.40393,-0.36791 -1.18232,-0.25181 -0.670734,0.10004 -1.02692,0.0508 -1.02692,-0.14203 0,-0.17289 -0.215096,-0.22692 -0.519172,-0.13041 -0.285545,0.0906 -0.761595,0.035 -1.057889,-0.12353 -0.296294,-0.15857 -1.031083,-0.3373 -1.632865,-0.39716 -0.85786,-0.0854 -1.186504,0.005 -1.521799,0.41787 -0.284261,0.35012 -0.782504,0.53958 -1.485983,0.56504 -1.695594,0.0614 -3.703409,-1.1931 -2.119404,-1.32419 0.365308,-0.0302 0.664196,0.0628 0.664196,0.20665 0,0.39994 1.511809,0.31133 1.668812,-0.0978 0.126962,-0.33085 1.606158,-0.73254 3.017648,-0.81945 0.880347,-0.0542 1.005402,-0.32756 0.627705,-1.37206 -0.238048,-0.65831 -0.26393,-1.12356 -0.08427,-1.51471 0.142623,-0.3105 0.531983,-1.13154 0.865247,-1.82453 0.627139,-1.30408 0.728453,-2.78603 0.272463,-3.98537 -0.237439,-0.62451 0.12586,-2.02302 0.526988,-2.02863 0.194335,-0.003 0.09403,-1.88619 -0.139659,-2.62249 -0.141171,-0.44479 -0.314309,-0.53638 -0.757007,-0.40047 -0.557642,0.1712 -0.555722,0.15645 0.06746,-0.51811 0.526849,-0.57029 0.562297,-0.69433 0.198437,-0.69433 -0.942538,0 -0.382419,-0.50582 0.747798,-0.67531 1.212464,-0.18182 3.042544,0.39099 3.042544,0.95231 0,0.13869 0.17377,0.25217 0.38616,0.25217 0.2124,0 0.65888,0.28285 0.99219,0.62855 0.75082,0.77874 2.06739,1.62918 2.04365,1.32011 -0.0414,-0.53935 -1.5397,-2.86883 -1.80639,-2.80855 -0.16099,0.0364 -0.2927,-0.0444 -0.2927,-0.17954 0,-0.13513 -0.15021,-0.40302 -0.33381,-0.59532 -0.1836,-0.19229 -0.50148,-0.70681 -0.7064,-1.14337 -0.32492,-0.69221 -0.38704,-0.72606 -0.48562,-0.26459 -0.32161,1.50565 -1.109062,0.97548 -1.115949,-0.75134 -0.0053,-1.3194 -0.825442,-2.07362 -2.024272,-1.86148 -0.936494,0.16572 -1.256413,-0.11296 -0.800588,-0.69739 0.352564,-0.45203 1.931043,-0.63107 2.169018,-0.24602 0.221536,0.35845 0.65179,0.043 0.65179,-0.47791 0,-0.69932 -1.131703,-2.14461 -1.813231,-2.31567 -0.390545,-0.098 -0.802436,-0.002 -1.082986,0.25155 -0.584533,0.52899 -0.680984,0.51943 -1.597719,-0.15834 l -0.768344,-0.56806 -0.92032,0.7665 c -0.914356,0.76153 -0.919676,0.77857 -0.820983,2.63041 0.05464,1.02515 0.172628,2.0549 0.262206,2.28834 0.242317,0.63146 -0.381998,0.87135 -0.796408,0.30601 -0.496545,-0.67739 -0.730448,-2.0049 -0.390298,-2.21513 0.185625,-0.11472 0.154191,-0.27777 -0.09312,-0.48302 -0.320751,-0.2662 -0.315284,-0.5184 0.03881,-1.79058 0.226679,-0.81441 0.597403,-1.55078 0.82383,-1.63638 0.226428,-0.0856 0.573129,-0.31523 0.770447,-0.51029 0.283964,-0.28073 0.439864,-0.28736 0.74777,-0.0318 0.242254,0.20105 0.456262,0.22611 0.567281,0.0664 0.1574,-0.2264 0.725403,-0.29147 0.905876,-0.10378 0.05769,0.06 1.079483,0.13977 3.004073,0.23453 0.880023,0.0433 1.956867,1.20765 1.956867,2.11583 0,0.43492 0.12718,0.86937 0.28262,0.96544 0.15544,0.0961 0.21606,0.3481 0.13472,0.56008 -0.1547,0.40314 0.70234,2.31464 1.16638,2.60143 0.16154,0.0998 0.26836,-0.1961 0.26836,-0.74352 0,-0.64653 -0.17207,-1.0266 -0.59531,-1.31489 -0.56132,-0.38235 -0.56963,-0.43199 -0.14557,-0.86944 0.37569,-0.38755 0.51832,-0.40702 0.86629,-0.11823 0.60078,0.4986 0.69382,0.25012 0.33912,-0.90561 -0.19656,-0.64045 -0.60308,-1.1937 -1.09848,-1.49497 -0.43254,-0.26304 -0.81712,-0.68735 -0.85463,-0.9429 -0.12823,-0.87367 -0.69557,-1.63746 -1.335626,-1.79811 -0.796939,-0.20002 -1.144543,0.002 -1.144543,0.665 0,0.33716 -0.181752,0.51355 -0.529167,0.51355 -0.672055,0 -0.668286,-0.43002 0.01357,-1.54844 0.498887,-0.8183 0.614988,-0.87305 1.499353,-0.70715 1.093743,0.20519 2.984993,1.84063 2.984993,2.58124 0,0.36889 0.89152,0.99727 1.41489,0.99727 0.0316,0 0.0815,-0.55009 0.11072,-1.22241 0.0399,-0.91601 0.21658,-1.37381 0.70499,-1.82646 0.73396,-0.68021 2.64247,-1.11027 3.13636,-0.70674 0.40201,0.32845 1.86525,0.18293 1.99227,-0.19814 0.0519,-0.15559 0.21111,-0.21069 0.35389,-0.12245 0.14277,0.0882 0.42647,-0.0598 0.63044,-0.32908 0.34352,-0.45343 0.37148,-0.45538 0.37927,-0.0265 0.0118,0.64903 0.80217,0.58386 0.80217,-0.0661 0,-0.64817 0.21924,-0.66319 1.06561,-0.073 1.28444,0.8957 2.08193,1.73069 2.16119,2.26279 0.0443,0.29722 0.30981,0.57349 0.5901,0.61393 0.77288,0.1115 2.35719,0.9743 2.74654,1.49573 0.19015,0.25466 0.55329,0.46302 0.80698,0.46302 0.93842,0 1.55585,1.30627 0.63322,1.33969 -0.36817,0.0133 -0.34617,0.0639 0.10738,0.24684 0.35057,0.1414 0.64232,0.56829 0.75705,1.10771 0.10266,0.4827 0.3339,1.05623 0.51387,1.27451 0.64169,0.77831 0.70487,1.36392 0.16245,1.50577 -0.76311,0.19956 -0.85001,0.75725 -0.23903,1.53399 0.2995,0.38075 0.47248,0.76435 0.38439,0.85243 -0.0881,0.0881 -0.0359,0.30993 0.11606,0.49299 0.33439,0.40291 -0.49138,0.74755 -1.16855,0.4877 -0.36258,-0.13914 -0.40635,-0.0324 -0.26878,0.65546 0.097,0.48527 0.0549,0.82166 -0.1029,0.82166 -0.14697,0 -0.46874,0.30755 -0.71503,0.68344 -0.41336,0.63087 -0.4146,0.70773 -0.016,0.99917 0.26505,0.19381 0.3642,0.49182 0.25678,0.77177 -0.19069,0.49691 -1.04491,0.61879 -1.31168,0.18714 -0.0914,-0.1479 -0.26584,-0.20731 -0.38765,-0.13203 -0.2898,0.17911 -0.0429,1.09969 0.3916,1.46032 0.48934,0.40612 0.17747,1.27781 -0.49127,1.37314 -0.42664,0.0608 -0.58902,0.2954 -0.65125,0.94091 -0.0692,0.71733 -0.19197,0.85989 -0.74075,0.85989 -0.36181,0 -1.00156,0.17775 -1.42168,0.395 -0.42012,0.21725 -0.93434,0.32958 -1.14271,0.24962 -0.48543,-0.18627 -0.70468,0.61625 -0.70938,2.59653 -0.003,1.44868 -0.30026,1.97976 -0.62846,1.12448 -0.29124,-0.75897 -0.58589,-0.38806 -0.85389,1.07492 l -0.26962,1.47179 2.52782,-0.0757 c 1.39031,-0.0416 2.67665,0.0175 2.85856,0.13132 0.44168,0.27642 0.42109,0.70492 -0.0339,0.70492 -0.20054,0 -0.53452,0.25589 -0.74218,0.56865 -0.33608,0.50617 -0.64597,0.57437 -2.82001,0.62065 -1.34334,0.0286 -2.50824,-0.0545 -2.58867,-0.18463 -0.0855,-0.13835 -0.2738,-0.13624 -0.45341,0.005 -0.37809,0.2975 -2.14731,0.49825 -3.21759,0.36509 z m 2.77813,-1.11533 c 0,-0.36616 -5.45715,-0.71139 -5.80152,-0.36702 -0.075,0.075 0.005,0.22375 0.17824,0.33066 0.41632,0.2573 5.62328,0.29096 5.62328,0.0364 z m 0.55937,-1.26368 c -0.35455,-0.11818 -0.39351,-1.43322 -0.053,-1.78719 0.24259,-0.25215 0.4066,-1.34354 0.27633,-1.83885 -0.16958,-0.64476 -0.19425,-0.85693 -0.22306,-1.91823 -0.0207,-0.76396 -0.14737,-1.12448 -0.39499,-1.12448 -0.52852,0 -0.96335,-0.62229 -0.71529,-1.02366 0.11709,-0.18945 0.31864,-0.31794 0.44789,-0.28554 0.12925,0.0324 0.46478,-0.37504 0.74563,-0.90542 l 0.51063,-0.96433 -0.67482,-0.72563 c -0.37115,-0.3991 -0.87629,-1.04355 -1.12253,-1.43212 -0.45473,-0.71754 -0.79208,-2.33622 -0.4869,-2.33622 0.0919,0 0.57283,0.44298 1.06874,0.98439 0.79144,0.86405 0.93244,0.92938 1.15345,0.53447 0.13848,-0.24745 0.26218,-1.34312 0.27489,-2.43482 0.0242,-2.07942 0.45063,-3.01209 0.96054,-2.10093 0.21053,0.3762 0.46931,0.41898 1.54271,0.25501 0.70936,-0.10835 1.43857,-0.20594 1.62047,-0.21687 0.55126,-0.0331 0.38815,-0.36436 -1.00183,-2.03459 -1.19531,-1.43632 -1.5642,-1.71816 -2.14779,-1.64103 -0.0952,0.0126 -0.30563,-0.13686 -0.46765,-0.33208 -0.22654,-0.27296 -0.15219,-0.44826 0.32186,-0.75887 0.56661,-0.37125 0.72116,-0.35344 1.91162,0.22031 0.71235,0.34332 1.32865,0.59075 1.36956,0.54984 0.20827,-0.20827 -2.18294,-2.54983 -2.6039,-2.54983 -0.31433,0 -0.49072,-0.1902 -0.49072,-0.52916 0,-0.29104 0.12288,-0.52917 0.27308,-0.52917 0.6484,0 2.08967,0.79398 2.36076,1.30052 0.34486,0.64437 0.68878,0.70883 0.89632,0.16798 0.0926,-0.24134 -0.16996,-0.57959 -0.70809,-0.91217 -0.52204,-0.32264 -0.87282,-0.76596 -0.90028,-1.13778 -0.10617,-1.43741 -2.61203,-2.1898 -3.77822,-1.13441 -0.51328,0.46452 -0.54945,0.46258 -1.12291,-0.0601 -0.48567,-0.44264 -0.87424,-0.52429 -2.15448,-0.45272 -0.85907,0.048 -1.66577,0.19115 -1.79266,0.31805 -0.32916,0.32916 -0.49838,1.96652 -0.23722,2.29534 0.57937,0.7295 0.57067,1.48767 -0.0267,2.32661 -0.33638,0.47239 -0.57939,0.99911 -0.54004,1.17049 0.0394,0.17138 -0.0463,0.38442 -0.19032,0.47344 -0.158,0.0977 -0.0562,0.49909 0.25658,1.01214 0.53705,0.8808 0.7313,2.73164 0.25584,2.43779 -0.50151,-0.30995 -0.26299,0.27171 0.4083,0.99566 0.37008,0.39912 0.65363,0.87415 0.63011,1.05563 -0.10799,0.83309 0.0127,1.06219 0.39325,0.74638 0.43343,-0.35972 0.8191,0.0431 0.59653,0.62314 -0.0744,0.19402 0.0288,0.8134 0.22953,1.37639 0.52603,1.47568 0.4837,1.64536 -0.47178,1.89125 -0.67338,0.1733 -0.87839,0.37927 -0.94516,0.94961 -0.10513,0.898 0.27347,1.37772 1.51078,1.9143 1.66532,0.72218 2.27865,1.11982 2.27865,1.47732 0,0.5189 -1.05396,0.56937 -2.04722,0.098 -0.48201,-0.22873 -1.44053,-0.95645 -2.13004,-1.61717 -0.97775,-0.9369 -1.28824,-1.11118 -1.41078,-0.79186 -0.22356,0.5826 -0.59672,0.50658 -0.91245,-0.18588 -0.33186,-0.72784 -1.5693,-1.40141 -1.5693,-0.8542 0,0.19402 0.29766,0.58691 0.66146,0.87308 0.46046,0.3622 0.66146,0.77874 0.66146,1.3708 0,0.77508 -0.0587,0.83578 -0.66146,0.68448 -0.3638,-0.0913 -0.6733,-0.0745 -0.68778,0.0375 -0.0145,0.11191 -0.0734,0.72924 -0.131,1.37184 -0.12119,1.35267 -0.76207,2.21868 -1.474571,1.99255 -0.578237,-0.18353 -0.659896,0.28715 -0.0879,0.50664 0.232001,0.089 0.396871,0.48549 0.396871,0.95435 0,0.62819 0.11581,0.80205 0.53421,0.80205 0.43327,0 0.50379,0.12121 0.37321,0.64148 -0.15232,0.6069 -0.10427,0.63725 0.89156,0.56298 0.57891,-0.0432 1.19079,-0.16393 1.35972,-0.26834 0.249,-0.15389 2.58744,-0.19969 6.17553,-0.12096 0.25888,0.006 0.61607,0.24532 0.79375,0.53253 0.29373,0.47479 0.33181,0.48027 0.41941,0.0603 0.053,-0.25403 -0.0363,-0.50608 -0.19844,-0.56012 z m -0.82395,-23.83427 c 0,-0.67397 1.97518,-1.3119 2.20529,-0.71225 0.0943,0.24585 -0.13724,0.47269 -0.67336,0.65958 -0.99062,0.34533 -1.53193,0.36394 -1.53193,0.0527 z m -11.334819,22.45596 c -0.04951,-0.33742 -0.257872,-0.78134 -0.463021,-0.98649 -0.32094,-0.32094 -0.372492,-0.30574 -0.369384,0.10892 0.0066,0.88464 0.324975,1.69534 0.625388,1.59263 0.163373,-0.0559 0.25653,-0.37764 0.207017,-0.71506 z m 1.578069,-3.24433 c -0.261312,-0.25936 -0.291703,-0.22897 -0.148117,0.14811 0.09936,0.26094 0.247307,0.40779 0.328767,0.32632 0.0815,-0.0815 1.7e-4,-0.29495 -0.18065,-0.47443 z m 0.23175,-1.78408 c 0,-0.7432 -0.481961,-1.15177 -0.982457,-0.83286 -0.150155,0.0957 -0.217217,0.54677 -0.149025,1.00243 0.09852,0.65834 0.227438,0.80143 0.627731,0.69675 0.342681,-0.0896 0.503751,-0.3666 0.503751,-0.86632 z m -0.338179,-1.88177 c 0.291489,-0.29149 0.180819,-1.02999 -0.153152,-1.02204 -0.464309,0.0111 -0.830835,0.4838 -0.679951,0.877 0.198326,0.51683 0.42232,0.55582 0.833103,0.14504 z m 16.345469,-1.02609 c -0.0899,-0.14552 -0.28259,-0.26459 -0.42811,-0.26459 -0.14552,0 -0.191,0.11907 -0.10106,0.26459 0.0899,0.14552 0.28259,0.26458 0.42811,0.26458 0.14552,0 0.191,-0.11906 0.10106,-0.26458 z m -1.74762,-1.15709 c 0.3278,-0.39498 0.11418,-1.30876 -0.25293,-1.08188 -0.12391,0.0766 -0.15362,0.32604 -0.066,0.55435 0.0876,0.22831 -0.007,0.52033 -0.20999,0.64894 -0.21006,0.13301 -0.24065,0.23557 -0.0709,0.23788 0.16408,0.002 0.43403,-0.15946 0.59988,-0.35929 z m -10.29092,-0.26672 c 0,-0.20101 -0.41672,-0.68332 -0.92604,-1.0718 -0.70943,-0.5411 -0.92605,-0.61034 -0.92605,-0.29598 0,0.22568 0.17585,0.41034 0.39078,0.41034 0.21493,0 0.58581,0.29765 0.82418,0.66146 0.4926,0.7518 0.63713,0.81894 0.63713,0.29598 z m -4.811555,-0.25616 c 0.368605,0.1177 0.3793,0.0952 0.06169,-0.1297 -0.437079,-0.3095 -0.816428,-0.16272 -0.785495,0.30393 0.0161,0.24293 0.05032,0.24276 0.149386,-7.5e-4 0.07067,-0.17373 0.329164,-0.25179 0.574424,-0.17348 z m 1.749005,-1.29659 c 0.16301,-1.01795 0.10982,-1.18133 -0.5615,-1.72447 -0.964266,-0.78016 -1.799686,-0.68592 -1.800567,0.20311 -0.0015,1.52101 0.679376,2.4051 2.017357,2.61946 0.0905,0.0145 0.24566,-0.47964 0.34471,-1.0981 z m 4.65005,0.33072 c -0.20986,-0.12969 -0.44108,-0.17628 -0.51384,-0.10351 -0.0728,0.0728 0.0394,0.2384 0.24925,0.3681 0.20986,0.12969 0.44109,0.17628 0.51385,0.10352 0.0727,-0.0728 -0.0394,-0.23841 -0.24926,-0.36811 z m 8.08069,-0.79375 c 0.20982,0 0.5302,-0.23812 0.71196,-0.52916 0.18176,-0.29104 0.60941,-0.52917 0.95033,-0.52917 1.0096,0 0.51026,-0.65236 -0.56917,-0.74357 -0.69002,-0.0583 -0.97938,-0.21173 -0.9981,-0.52917 -0.0156,-0.26502 -0.10418,-0.17771 -0.21746,0.21441 -0.13831,0.4788 -0.35145,0.64383 -0.77183,0.59764 -0.60132,-0.0661 -0.6118,0.10071 -0.11886,1.89285 0.12595,0.45793 0.16265,0.46423 0.38543,0.0661 0.13542,-0.24199 0.41789,-0.43998 0.6277,-0.43998 z m 2.50264,-0.13229 c 0,-0.21828 -0.11906,-0.39687 -0.26458,-0.39687 -0.14552,0 -0.26459,0.17859 -0.26459,0.39687 0,0.21828 0.11907,0.39688 0.26459,0.39688 0.14552,0 0.26458,-0.1786 0.26458,-0.39688 z m -17.065625,-2.24896 c 0.08994,-0.14552 0.03743,-0.26458 -0.116677,-0.26458 -0.154109,0 -0.280198,0.11906 -0.280198,0.26458 0,0.14553 0.0525,0.26459 0.116677,0.26459 0.06417,0 0.190261,-0.11906 0.280198,-0.26459 z m 14.021045,0.003 c 0.0927,-0.14999 -0.0135,-0.19434 -0.24897,-0.10399 -0.45837,0.17589 -0.54223,0.36554 -0.16165,0.36554 0.13693,0 0.32171,-0.1177 0.41062,-0.26155 z m -0.5273,-1.32595 c -0.0899,-0.14552 -0.28258,-0.26459 -0.4281,-0.26459 -0.14552,0 -0.191,0.11907 -0.10106,0.26459 0.0899,0.14552 0.28258,0.26458 0.4281,0.26458 0.14552,0 0.191,-0.11906 0.10106,-0.26458 z m 6.74688,-0.35278 c 0,-0.88395 -0.2345,-1.00022 -0.82545,-0.40927 -0.58461,0.5846 -0.45032,1.02663 0.3119,1.02663 0.36162,0 0.51355,-0.18264 0.51355,-0.61736 z m -16.14489,-0.57966 c -0.18408,-0.2218 -0.38917,-0.34878 -0.45577,-0.28218 -0.18348,0.18348 0.18932,0.68545 0.50909,0.68545 0.17544,0 0.15537,-0.15181 -0.0533,-0.40327 z m 15.88031,-2.63944 c 0,-0.21828 -0.12757,-0.39687 -0.28349,-0.39687 -0.15591,0 -0.46774,-0.18427 -0.69295,-0.40948 -0.22521,-0.22521 -0.46308,-0.35586 -0.5286,-0.29034 -0.19949,0.19948 0.5371,1.20549 0.9683,1.32246 0.22244,0.0603 0.43421,0.12354 0.47059,0.14042 0.0364,0.0169 0.0661,-0.14791 0.0661,-0.36619 z m -2.11667,-2.24896 c 0,-0.14552 -0.12609,-0.26458 -0.2802,-0.26458 -0.15411,0 -0.20661,0.11906 -0.11668,0.26458 0.09,0.14553 0.21603,0.26459 0.2802,0.26459 0.0642,0 0.11668,-0.11906 0.11668,-0.26459 z m 2.11667,0.0283 c 0,-0.12995 -0.1786,-0.30481 -0.39688,-0.38857 -0.24175,-0.0928 -0.39687,-4.2e-4 -0.39687,0.23628 0,0.21371 0.17859,0.38857 0.39687,0.38857 0.21828,0 0.39688,-0.10633 0.39688,-0.23628 z m -30.380341,23.07851 c 0.04705,-0.2426 0.225006,-0.48752 0.395456,-0.54427 0.197142,-0.0656 0.25812,0.0949 0.167579,0.4411 -0.169114,0.64669 -0.686845,0.74157 -0.563035,0.10317 z m 5.787929,-6.41886 c -0.202158,-0.28048 -0.587221,-0.56741 -0.855697,-0.63762 -0.268475,-0.0702 -0.667446,-0.55679 -0.886602,-1.08131 -0.375747,-0.89929 -0.365166,-0.9987 0.185586,-1.74364 0.637205,-0.86186 1.64846,-1.05677 1.912531,-0.36861 0.107358,0.27977 -0.01355,0.46719 -0.359805,0.55773 -1.050159,0.27463 -0.968132,1.5893 0.144654,2.31843 0.351583,0.23037 0.639242,0.65423 0.639242,0.94191 0,0.66285 -0.307874,0.66802 -0.779909,0.0131 z m -2.773463,-5.44316 c -0.274288,-0.50933 -0.611933,-0.92605 -0.750321,-0.92605 -0.147042,0 -0.203063,-0.81971 -0.134794,-1.97234 0.09957,-1.68108 0.211257,-2.05196 0.756299,-2.51144 0.741128,-0.62479 1.677779,-0.93325 2.07965,-0.68488 0.486829,0.30087 0.304215,0.68964 -0.447983,0.95371 -1.388433,0.48743 -1.779112,2.49221 -0.877924,4.50508 0.766851,1.71282 0.242416,2.24647 -0.624927,0.63592 z"
       id="path5" />
  </g>
</svg>
