<?xml version="1.0" encoding="UTF-8" standalone="no"?>
<!-- Created with Inkscape (http://www.inkscape.org/) -->

<svg
   width="47.24556mm"
   height="31.595413mm"
   viewBox="0 0 47.24556 31.595406"
   version="1.1"
   id="svg1"
   inkscape:version="1.4.1-rc (06eac75fbf, 2025-03-29)"
   sodipodi:docname="twotrees1.svg"
   xmlns:inkscape="http://www.inkscape.org/namespaces/inkscape"
   xmlns:sodipodi="http://sodipodi.sourceforge.net/DTD/sodipodi-0.dtd"
   xmlns="http://www.w3.org/2000/svg"
   xmlns:svg="http://www.w3.org/2000/svg">
  <sodipodi:namedview
     id="namedview1"
     pagecolor="#ffffff"
     bordercolor="#000000"
     borderopacity="0.25"
     inkscape:showpageshadow="2"
     inkscape:pageopacity="0.0"
     inkscape:pagecheckerboard="0"
     inkscape:deskcolor="#d1d1d1"
     inkscape:document-units="mm"
     inkscape:zoom="0.72248176"
     inkscape:cx="89.967669"
     inkscape:cy="58.825014"
     inkscape:window-width="1850"
     inkscape:window-height="1016"
     inkscape:window-x="0"
     inkscape:window-y="0"
     inkscape:window-maximized="1"
     inkscape:current-layer="layer1" />
  <defs
     id="defs1" />
  <g
     inkscape:label="Layer 1"
     inkscape:groupmode="layer"
     id="layer1"
     transform="translate(-81.756262,-103.45334)">
    <path
       style="fill:#000000"
       d="m 85.204843,134.68802 c -0.167159,-0.29806 -0.468189,-0.3209 -1.511209,-0.11467 -1.448756,0.28645 -1.937372,0.21202 -1.937372,-0.29512 0,-0.33821 1.806215,-0.80064 2.71198,-0.69431 0.254662,0.0299 0.463021,-0.0722 0.463021,-0.22687 0,-0.15466 0.152133,-0.28121 0.338074,-0.28121 0.18594,0 0.530547,-0.22479 0.765792,-0.49954 0.380167,-0.444 0.724978,-0.48696 3.10151,-0.38639 2.944072,0.12459 2.865434,0.17383 2.704925,-1.69376 -0.0589,-0.68535 0.616963,-0.82734 0.864731,-0.18167 0.24848,0.64753 0.620964,0.21783 0.757799,-0.87421 0.139571,-1.11387 -0.162498,-1.92068 -0.719102,-1.92068 -0.387905,0 -0.830651,-0.98586 -0.562964,-1.25354 0.08543,-0.0854 0.438886,-0.0261 0.785452,0.13177 0.674834,0.30747 1.2242,0.0154 1.2242,-0.65094 0,-0.43153 -0.384534,-0.43877 -1.05532,-0.0199 -0.782215,0.4885 -1.324993,-0.1234 -0.711137,-0.8017 0.243947,-0.26956 0.44354,-0.62154 0.44354,-0.78218 0,-0.434 -0.982117,-0.66549 -2.007378,-0.47315 l -0.903039,0.16941 v -1.32881 c 0,-1.16287 0.09086,-1.38565 0.727604,-1.78399 0.400183,-0.25036 0.769514,-0.48353 0.820738,-0.51816 0.05122,-0.0346 -0.09761,-0.33528 -0.33073,-0.66812 -0.233124,-0.33283 -0.423862,-0.98148 -0.423862,-1.44146 0,-0.78687 0.273274,-1.03861 1.367014,-1.25931 0.472701,-0.0954 0.516688,-0.47709 0.124035,-1.07636 -0.565264,-0.8627 -0.547069,-1.39687 0.0605,-1.77631 0.460458,-0.28756 0.465257,-0.35674 0.07225,-1.04151 -0.364444,-0.63501 -0.373496,-0.86479 -0.06741,-1.71125 0.296578,-0.82017 0.295594,-1.01448 -0.0061,-1.20563 -0.752069,-0.47651 -1.219435,-0.27319 -1.077596,0.46879 0.111885,0.58529 0.05714,0.67501 -0.322913,0.52917 -0.251702,-0.0966 -0.502039,-0.17561 -0.556303,-0.17561 -0.05427,0 -0.177087,-0.41804 -0.272938,-0.92897 -0.206506,-1.10077 -0.555658,-1.38889 -1.065388,-0.87916 -0.625097,0.6251 -0.537439,2.39928 0.165519,3.35009 0.341282,0.46161 0.717185,0.83929 0.835339,0.83929 0.316688,0 0.261468,0.99827 -0.06643,1.20092 -0.154691,0.0956 -0.482113,-0.006 -0.727604,-0.22658 -0.663483,-0.59519 -2.205018,-0.80825 -2.779491,-0.38415 -0.426257,0.31467 -0.44671,0.49154 -0.179539,1.55257 0.165835,0.65859 0.66099,1.58207 1.100342,2.05218 0.943315,1.00934 0.84063,1.69473 -0.24068,1.60645 -1.015754,-0.0829 -2.254868,0.27112 -2.639962,0.75431 -0.426185,0.53475 0.487937,2.23114 1.47875,2.74421 1.07521,0.55676 1.623606,1.09512 1.623606,1.59387 0,0.42632 -0.07646,0.42321 -1.124479,-0.0458 -0.618463,-0.2768 -1.339227,-0.777 -1.601696,-1.11155 -0.262469,-0.33455 -0.659787,-0.83009 -0.882929,-1.10122 -0.223142,-0.27112 -0.346919,-0.71776 -0.275062,-0.99255 0.07186,-0.27478 0.02269,-0.43288 -0.109258,-0.35133 -0.403461,0.24935 -0.266339,-0.95266 0.156966,-1.37597 0.218281,-0.21828 0.396875,-0.32884 0.396875,-0.24568 0,0.0831 0.238125,-0.0869 0.529167,-0.37798 0.291041,-0.29104 0.70776,-0.52916 0.926041,-0.52916 0.546977,0 0.497108,-0.57329 -0.169163,-1.94468 -0.349635,-0.71965 -0.50528,-1.40715 -0.407114,-1.79828 0.245705,-0.97896 1.168914,-1.81329 2.006465,-1.81329 h 0.748116 l -0.128335,-1.79366 c -0.155548,-2.17398 0.04569,-2.41075 2.231236,-2.62523 0.846796,-0.0831 1.720896,-0.24363 1.942444,-0.35673 0.690457,-0.35249 2.990578,0.21845 3.513985,0.87223 0.885747,1.10639 1.164024,1.38825 1.865871,1.88993 0.547326,0.39122 0.69962,0.72036 0.69962,1.51204 0,0.74362 0.141345,1.08761 0.533029,1.29723 1.059499,0.56703 2.451434,3.46159 1.844874,3.83646 -0.302971,0.18725 -0.1,0.65939 0.28354,0.65939 0.13694,0 0.24897,-0.2816 0.24897,-0.62577 0,-0.34418 0.23023,-0.91846 0.51161,-1.27618 0.56712,-0.72098 0.69363,-0.45267 -1.3154,-2.78995 -0.672154,-0.78197 -0.878883,-2.91365 -0.360169,-3.71387 0.214111,-0.33031 0.857869,-0.94 1.430569,-1.35486 1.02303,-0.74108 1.03221,-0.7625 0.52379,-1.22261 -0.28462,-0.25758 -0.7424,-0.84951 -1.01728,-1.3154 -0.47625,-0.80719 -0.47814,-0.87578 -0.0401,-1.45644 0.39995,-0.53023 0.62315,-0.59092 1.71898,-0.4674 0.69264,0.0781 1.33391,0.2505 1.42505,0.38318 0.0911,0.13268 0.6122,0.57649 1.1579,0.98625 0.62359,0.46824 0.99219,0.96271 0.99219,1.33098 0,0.8856 0.23227,0.95709 1.2819,0.39452 1.29439,-0.69375 1.49072,-0.65947 2.3,0.40155 0.38413,0.50362 0.90253,0.98045 1.15199,1.05963 0.24947,0.0792 0.86018,0.54511 1.35714,1.0354 0.72068,0.71103 1.02917,1.36672 1.52423,3.23985 0.85725,3.24349 1.13383,4.61903 0.9791,4.86941 -0.0725,0.11735 -0.16795,1.52191 -0.21203,3.12123 -0.0746,2.70551 -0.13098,2.97449 -0.81051,3.8654 -0.4876,0.63927 -0.92195,0.94151 -1.30681,0.90933 -1.24518,-0.10414 -1.69232,0.0564 -1.99257,0.71537 -0.17072,0.37471 -0.26616,0.76166 -0.21208,0.8599 0.0541,0.0982 -0.15277,0.65086 -0.45966,1.22806 -0.39512,0.74314 -0.80898,1.12114 -1.41789,1.29505 -0.74816,0.21368 -0.85989,0.35973 -0.85989,1.12405 0,1.15566 0.54734,1.42178 2.52154,1.22594 0.86873,-0.0862 2.94872,-0.13853 4.62221,-0.11635 1.67349,0.0222 3.75708,0.0461 4.63021,0.0532 0.87312,0.007 2.4267,0.13328 3.4524,0.28048 1.0257,0.14719 2.89907,0.30094 4.16306,0.34166 2.47465,0.0797 2.79899,0.18107 2.19189,0.68491 -0.48658,0.40383 -3.00967,0.43216 -5.9709,0.0671 -1.23692,-0.15251 -2.66567,-0.23856 -3.175,-0.19123 -0.50932,0.0473 -1.46182,-0.0287 -2.11666,-0.16901 -0.65485,-0.14028 -2.26219,-0.239 -3.57188,-0.21937 -3.06127,0.0459 -3.09848,0.0496 -2.85309,0.28595 0.11399,0.10979 2.05273,0.28207 4.3083,0.38285 2.25557,0.10079 4.19034,0.23627 4.29948,0.30107 0.10914,0.0648 0.19844,0.35596 0.19844,0.647 0,0.29104 -0.0979,0.46866 -0.21757,0.3947 -0.11967,-0.074 -1.63771,-0.2128 -3.37344,-0.30854 -1.73573,-0.0957 -3.25318,-0.23283 -3.37211,-0.30465 -0.11894,-0.0718 -0.27658,0.10013 -0.35031,0.3821 -0.1219,0.46613 -0.26748,0.49174 -1.604,0.28215 -0.80846,-0.12678 -1.66285,-0.32862 -1.89865,-0.44854 -0.4785,-0.24336 -1.94919,-0.18286 -2.40515,0.0989 -0.16269,0.10054 -0.55912,0.0103 -0.88096,-0.20061 -0.37973,-0.24881 -1.37423,-0.39712 -2.83264,-0.42243 -1.56916,-0.0272 -2.12768,0.0404 -1.85059,0.22427 0.21828,0.1448 0.60897,0.2651 0.8682,0.26733 0.45106,0.004 0.92253,0.68277 0.65792,0.94738 -0.0697,0.0697 -1.12622,0.005 -2.34779,-0.1444 -4.023451,-0.49118 -5.792912,-0.52506 -5.792912,-0.11092 0,0.45385 -0.219744,0.4749 -5.116652,0.49028 -3.108397,0.01 -3.969499,-0.0652 -4.134768,-0.35987 z m 8.45767,-1.3476 c 0,-0.14552 -0.245152,-0.26458 -0.544782,-0.26458 -0.29963,0 -0.471197,0.11906 -0.38126,0.26458 0.08994,0.14552 0.335089,0.26459 0.544782,0.26459 0.209693,0 0.38126,-0.11907 0.38126,-0.26459 z m 6.407517,-0.0572 c -0.383911,-0.18811 -0.696062,-0.20382 -0.856776,-0.0431 -0.160713,0.16072 0.05933,0.26853 0.603945,0.29593 0.806481,0.0406 0.821321,0.0257 0.252831,-0.25282 z m 4.69201,-2.9229 c -0.10415,-0.76751 -0.14697,-1.96179 -0.0952,-2.65396 l 0.0942,-1.25848 -0.98523,0.10203 c -1.09338,0.11323 -2.01273,-0.19417 -2.89,-0.96635 -0.33039,-0.29081 -0.76543,-0.4417 -1.006634,-0.34914 -0.237143,0.091 -0.748773,-0.0765 -1.158232,-0.37926 -0.403396,-0.29824 -1.141036,-0.59834 -1.639199,-0.66689 -0.898494,-0.12364 -0.895603,-0.11887 0.360814,0.5949 0.804882,0.45725 1.235388,0.87013 1.181033,1.13267 -0.04704,0.22723 -0.289575,0.37816 -0.538961,0.3354 -0.266975,-0.0458 -0.453429,0.0913 -0.453429,0.33332 0,0.41785 -0.865132,1.30475 -1.331495,1.365 -0.140803,0.0182 -0.404833,0.0478 -0.586734,0.0658 -0.350931,0.0348 -0.411438,2.81871 -0.06872,3.16198 0.229495,0.22987 2.670432,0.42548 6.374637,0.51083 l 2.93247,0.0676 z m 3.54521,-2.24741 c 0.0681,-0.11025 0.20462,-0.63076 0.30328,-1.1567 0.16693,-0.8898 0.1242,-0.97548 -0.61494,-1.23315 -0.96107,-0.33503 -1.10391,-0.21913 -1.10391,0.89571 0,1.11231 0.99953,2.16731 1.41557,1.49414 z m -11.856169,-1.56758 c 0.417098,-0.4171 0.415104,-0.46706 -0.03167,-0.79375 -0.715157,-0.52294 -0.904814,-0.42964 -0.904814,0.44511 0,0.89538 0.284013,1.00111 0.936484,0.34864 z m 8.323929,-1.69871 c 0,-0.2834 -1.43313,-0.4827 -1.68877,-0.23486 -0.12847,0.12455 -0.16496,0.40524 -0.0811,0.62377 0.12628,0.3291 0.29132,0.34491 0.96117,0.0921 0.44479,-0.16789 0.80871,-0.38433 0.80871,-0.48098 z m 4.90567,-0.51961 c 0.24351,-0.39401 -0.0388,-0.60822 -0.5454,-0.41383 -0.23378,0.0897 -0.35095,0.28301 -0.26038,0.42956 0.21446,0.34701 0.58608,0.33976 0.80578,-0.0157 z M 94.867058,124.0575 c 0.09759,-0.1579 -0.03489,-0.68138 -0.294405,-1.16327 -0.523385,-0.97186 -2.025985,-1.64539 -2.988934,-1.33977 -0.707406,0.22453 -0.743062,0.67348 -0.05349,0.67348 0.282454,0 0.588337,0.12101 0.679741,0.2689 0.0914,0.1479 0.28224,0.19718 0.42408,0.10952 0.342696,-0.2118 1.027388,0.37806 1.314059,1.13206 0.247231,0.65027 0.631746,0.78378 0.918947,0.31908 z m 11.091512,-0.52891 c -0.20614,-0.64949 0.0969,-1.62273 0.43931,-1.41108 0.14402,0.089 0.37722,0.46526 0.51822,0.83611 l 0.25635,0.67427 0.60427,-0.56768 c 0.33235,-0.31223 0.73252,-0.56768 0.88927,-0.56768 0.15674,0 0.3597,-0.29766 0.45101,-0.66146 0.0913,-0.3638 0.31257,-0.66568 0.4917,-0.67084 0.68267,-0.0197 -1.03616,-0.76622 -1.79098,-0.77791 -0.43656,-0.007 -1.23415,-0.0851 -1.77241,-0.17409 -0.90399,-0.14946 -0.94581,-0.19466 -0.54806,-0.5924 0.39775,-0.39774 0.39672,-0.43712 -0.0135,-0.51614 -0.55119,-0.10617 -0.57517,-0.66695 -0.0472,-1.10508 0.21828,-0.18116 0.39687,-0.67199 0.39687,-1.09073 0,-0.41874 0.11907,-0.76135 0.26459,-0.76135 0.14552,0 0.26458,-0.11907 0.26458,-0.26459 0,-0.14552 -0.12426,-0.26458 -0.27613,-0.26458 -0.15187,0 -0.57822,-0.28011 -0.94745,-0.62248 l -0.67131,-0.62248 0.54936,-1.025 c 0.54198,-1.01121 0.51762,-1.90221 -0.0622,-2.27394 -0.18926,-0.12134 -0.17376,-0.30393 0.0485,-0.57175 0.37495,-0.45179 0.23649,-0.57164 -0.9559,-0.82738 -0.91067,-0.19532 -1.13092,0.0971 -0.48003,0.63725 0.3836,0.31836 0.83039,1.80246 0.60922,2.02364 -0.3,0.3 -1.05788,-0.31336 -1.52952,-1.23787 -0.59381,-1.16396 -0.66577,-1.99767 -0.18717,-2.16859 0.1819,-0.065 0.24125,-0.21398 0.13189,-0.33113 -0.30363,-0.32528 -1.42581,0.38275 -1.75631,1.10812 -0.57805,1.26869 -0.35574,2.05433 1.02911,3.63688 1.25865,1.43833 1.57593,2.01015 1.11538,2.01015 -0.46456,0 -1.15153,1.64407 -1.08119,2.58753 0.057,0.76479 0.38597,1.32704 1.47481,2.52078 0.77078,0.84504 1.40141,1.77196 1.40141,2.05983 0,0.68052 0.78,1.86742 1.09804,1.67086 0.13552,-0.0838 0.17401,-0.38039 0.0855,-0.65919 z m -4.68983,0.0884 c -0.22731,-0.25466 -0.45412,-0.75774 -0.50403,-1.11795 -0.12355,-0.89175 0.63207,-1.01294 1.08136,-0.17344 0.30564,0.57109 1.40644,1.07205 1.70333,0.77517 0.24772,-0.24772 -0.49975,-1.64092 -0.94249,-1.7567 -0.26275,-0.0687 -0.47773,-0.31467 -0.47773,-0.54658 0,-0.50633 -0.29663,-0.54117 -0.77391,-0.0909 -0.21337,0.2013 -0.3894,0.22718 -0.44979,0.0661 -0.28991,-0.77308 -2.318227,-3.31728 -2.576184,-3.2314 -0.435619,0.14503 -0.537408,0.98246 -0.119417,0.98246 0.194058,0 0.685668,0.30862 1.092467,0.68583 0.675197,0.62607 0.725274,0.79898 0.574753,1.9846 -0.136012,1.07135 -0.06594,1.43772 0.400161,2.09229 0.31077,0.43644 0.75398,0.79353 0.9849,0.79353 0.38093,0 0.38154,-0.0429 0.007,-0.46302 z m 10.91461,-0.46302 c -0.18116,-0.21828 -0.58269,-0.39512 -0.8923,-0.39297 -0.52771,0.004 -0.52155,0.0268 0.0985,0.37093 0.89094,0.49437 1.1927,0.50275 0.79375,0.022 z m -14.559362,-0.59338 c -0.359801,-0.2536 -0.733559,-0.46196 -0.830572,-0.46302 -0.09701,-0.001 -0.265686,-0.0912 -0.374827,-0.20037 -0.378883,-0.37888 -0.903993,-0.1956 -0.903993,0.31552 0,0.41237 0.222243,0.53397 1.124479,0.61523 0.618464,0.0557 1.240269,0.12208 1.381788,0.14751 0.14152,0.0254 -0.03707,-0.16127 -0.396875,-0.41487 z m 14.425602,-1.39261 c -0.52643,-0.5817 -0.81506,-0.51952 -0.56869,0.1225 0.0862,0.22456 0.35746,0.40828 0.60286,0.40828 0.40717,0 0.40418,-0.0464 -0.0342,-0.53078 z m -13.447219,-0.1527 c 0.09419,-0.24546 -0.07358,-0.65325 -0.405179,-0.98484 -0.486369,-0.48637 -0.565929,-0.5028 -0.565929,-0.11688 0,0.35784 -0.161233,0.41682 -0.79375,0.29031 -1.124193,-0.22484 -0.993698,0.28272 0.198437,0.77182 1.295931,0.53169 1.3768,0.53373 1.566421,0.0396 z m -2.900758,-0.534 c 0.05251,-0.1603 -0.303962,-0.74033 -0.792165,-1.28897 -0.706584,-0.79404 -1.113179,-1.01782 -1.993331,-1.0971 -1.230209,-0.11081 -1.272209,-0.0346 -0.71539,1.29805 0.242957,0.58147 0.667455,1.03758 1.124479,1.20819 0.908069,0.339 2.248184,0.27123 2.376407,-0.12017 z m 11.719237,-1.85607 c 0,-0.20131 0.10791,-0.36603 0.23981,-0.36603 0.35277,0 0.0739,-0.82939 -0.53385,-1.5875 l -0.53023,-0.66145 0.16713,0.85335 c 0.11282,0.57603 0.0318,1.04658 -0.24932,1.44793 -0.569,0.81237 -0.52609,0.95358 0.245,0.80618 0.3638,-0.0695 0.66146,-0.29116 0.66146,-0.49248 z m -11.426904,-1.93497 c -0.215913,-0.34574 -0.451588,-0.44272 -0.729846,-0.30034 -0.531076,0.27174 -1.07242,0.0737 -1.07242,-0.39241 0,-0.20104 -0.238125,-0.49296 -0.529167,-0.64872 -0.708964,-0.37943 -0.666513,-0.0977 0.145756,0.96721 0.535968,0.70269 0.86327,0.88487 1.589743,0.88487 0.837507,0 0.887869,-0.0431 0.595934,-0.51061 z m 2.819858,-1.02513 c -0.141539,-0.10123 -0.426101,-0.51147 -0.63236,-0.91165 -0.365085,-0.70834 -0.814765,-0.97509 -0.814765,-0.48333 0,0.3779 1.368617,1.91488 1.546615,1.73688 0.08682,-0.0868 0.04205,-0.24067 -0.09949,-0.3419 z m 8.110176,-0.75952 c -0.2306,-0.39655 -0.28223,-0.40798 -0.28884,-0.0639 -0.009,0.44558 0.26966,0.84677 0.45718,0.65926 0.0618,-0.0619 -0.0139,-0.32974 -0.16834,-0.59532 z m -10.351051,0.0666 c 0,-0.20712 -0.30824,-0.7429 -0.684978,-1.19062 -0.749835,-0.89113 -1.800801,-1.08361 -2.071067,-0.37931 -0.09175,0.23911 -0.134259,0.44747 -0.09445,0.46302 0.0398,0.0156 0.667686,0.34519 1.39529,0.73252 0.727604,0.38733 1.352682,0.71476 1.389063,0.72761 0.03638,0.0129 0.06614,-0.1461 0.06614,-0.35322 z m 10.583331,-1.85677 c 0,-0.0642 -0.11906,-0.19026 -0.26458,-0.2802 -0.14552,-0.0899 -0.26458,-0.0374 -0.26458,0.11668 0,0.15411 0.11906,0.2802 0.26458,0.2802 0.14552,0 0.26458,-0.0525 0.26458,-0.11668 z m -10.184646,-0.68 c 0.23796,-0.38503 -1.315171,-1.84915 -1.961564,-1.84915 -0.476199,0 -0.420138,0.13288 0.442669,1.04929 1.050625,1.1159 1.256552,1.22434 1.518895,0.79986 z m 14.021106,0.003 c -0.0899,-0.14552 -0.28258,-0.26458 -0.4281,-0.26458 -0.14552,0 -0.191,0.11906 -0.10107,0.26458 0.0899,0.14552 0.28259,0.26459 0.42811,0.26459 0.14552,0 0.191,-0.11907 0.10106,-0.26459 z m 0.13229,-1.96876 c 0,-0.0642 -0.11906,-0.19026 -0.26458,-0.2802 -0.14552,-0.0899 -0.26458,-0.0374 -0.26458,0.11668 0,0.15411 0.11906,0.2802 0.26458,0.2802 0.14552,0 0.26458,-0.0525 0.26458,-0.11668 z m -0.79375,-0.53547 c 0,-0.0676 -0.26789,-0.26573 -0.59531,-0.44019 -0.53981,-0.28764 -0.56146,-0.27617 -0.23219,0.12298 0.3381,0.40984 0.8275,0.59745 0.8275,0.31721 z m -15.754005,-0.38787 c 0.194371,-0.3145 -0.03361,-0.44284 -1.179325,-0.66389 l -0.926042,-0.17866 0.661458,0.53854 c 0.720157,0.58633 1.20618,0.68866 1.443909,0.30401 z m 8.587665,-4.36241 c -0.0609,-0.0609 -0.46773,-0.19536 -0.90399,-0.29874 -0.54301,-0.12867 -0.70975,-0.10183 -0.52863,0.0851 0.14553,0.15018 0.50271,0.32224 0.79375,0.38233 0.53839,0.11118 0.83929,0.0317 0.63887,-0.16869 z m -12.14824,23.2216 c -0.218282,-0.0719 -0.635,-0.23185 -0.926042,-0.35541 -0.291042,-0.12356 -0.84241,-0.29215 -1.225263,-0.37466 -0.92307,-0.19892 -1.730434,-1.80452 -1.339184,-2.66322 0.490592,-1.07673 3.466284,-1.07263 3.053063,0.004 -0.113945,0.29694 -0.382285,0.35608 -1.048481,0.2311 -0.785492,-0.14736 -0.895343,-0.10009 -0.895343,0.38527 0,0.62579 1.67294,1.62232 2.723487,1.62232 0.828271,0 1.019393,0.22704 0.697478,0.82854 -0.273837,0.51167 -0.371646,0.54195 -1.039715,0.32185 z"
       id="path1" />
  </g>
</svg>
