<?xml version="1.0" encoding="UTF-8" standalone="no"?>
<!-- Created with Inkscape (http://www.inkscape.org/) -->

<svg
   width="36.109734mm"
   height="39.970131mm"
   viewBox="0 0 36.109733 39.970122"
   version="1.1"
   id="svg1"
   inkscape:version="1.4.1-rc (06eac75fbf, 2025-03-29)"
   sodipodi:docname="twotrees3.svg"
   xmlns:inkscape="http://www.inkscape.org/namespaces/inkscape"
   xmlns:sodipodi="http://sodipodi.sourceforge.net/DTD/sodipodi-0.dtd"
   xmlns="http://www.w3.org/2000/svg"
   xmlns:svg="http://www.w3.org/2000/svg">
  <sodipodi:namedview
     id="namedview1"
     pagecolor="#ffffff"
     bordercolor="#000000"
     borderopacity="0.25"
     inkscape:showpageshadow="2"
     inkscape:pageopacity="0.0"
     inkscape:pagecheckerboard="0"
     inkscape:deskcolor="#d1d1d1"
     inkscape:document-units="mm"
     inkscape:zoom="0.72248176"
     inkscape:cx="67.821781"
     inkscape:cy="75.43443"
     inkscape:window-width="1850"
     inkscape:window-height="1016"
     inkscape:window-x="0"
     inkscape:window-y="0"
     inkscape:window-maximized="1"
     inkscape:current-layer="layer1" />
  <defs
     id="defs1" />
  <g
     inkscape:label="Layer 1"
     inkscape:groupmode="layer"
     id="layer1"
     transform="translate(-87.312512,-99.22001)">
    <path
       style="fill:#000000"
       d="m 97.503557,139.02181 c 0.0104,-0.4332 0.48558,-0.81881 1.51808,-1.23194 0.61804,-0.24729 1.123703,-0.53848 1.123703,-0.6471 0,-0.34236 -1.669653,-1.59714 -2.125203,-1.59714 -0.47056,0 -1.0498,-1.02878 -1.0498,-1.86454 0,-0.28419 0.11907,-0.51671 0.26459,-0.51671 0.63083,0 0.18813,-0.47914 -0.59532,-0.64432 -1.42129,-0.29966 -3.9026,-0.40926 -3.9026,-0.17237 0,0.24168 1.28307,0.5521 2.28203,0.5521 0.84199,0 0.80059,0.63035 -0.0674,1.02583 -0.55916,0.25477 -0.77994,0.24503 -1.12448,-0.0496 -0.60706,-0.51914 -1.3042,-0.7477 -2.71624,-0.89057 -0.696955,-0.0705 -1.302086,-0.006 -1.397536,0.14802 -0.252901,0.40921 -0.945144,0.0425 -0.945144,-0.50068 0,-0.29091 0.310653,-0.58327 0.801633,-0.75442 0.440899,-0.1537 0.976759,-0.45458 1.190801,-0.66862 0.408288,-0.40829 2.656946,-1.13701 4.477096,-1.4509 l 1.07109,-0.1847 -0.0346,-1.18145 c -0.019,-0.64979 -0.21503,-2.01488 -0.4356,-3.03352 -0.22057,-1.01865 -0.3394,-1.95338 -0.26407,-2.07718 0.0753,-0.1238 0.4797,-0.15654 0.89862,-0.0728 0.90583,0.18117 0.95213,0.006 0.20749,-0.78709 -0.47653,-0.50725 -0.66468,-0.55137 -1.34296,-0.31492 -0.97965,0.34151 -1.56176,-0.0708 -1.11574,-0.79023 0.43923,-0.7085 2.20296,-1.44156 3.19088,-1.32623 0.48417,0.0565 0.88032,0.0164 0.88032,-0.0893 0,-0.10563 0.20836,-0.2465 0.46302,-0.31305 0.31689,-0.0828 0.25426,-0.13221 -0.19844,-0.15651 -0.3638,-0.0195 -1.18539,-0.39053 -1.82575,-0.82444 -0.64036,-0.43392 -1.32497,-0.78894 -1.52135,-0.78894 -0.46824,0 -0.45815,-0.64506 0.0163,-1.03878 0.25579,-0.21229 0.4274,-0.22231 0.54513,-0.0318 0.10293,0.16654 0.58973,0.21118 1.21418,0.11132 0.8548,-0.13668 1.04237,-0.0892 1.04237,0.26401 0,0.4109 0.10448,0.47609 0.85989,0.53653 0.1819,0.0145 0.46372,0.14552 0.62627,0.29104 1.060643,0.94957 1.720153,1.45521 1.898023,1.45521 0.37395,0 0.15735,-1.25876 -0.29431,-1.71043 -0.24422,-0.24422 -0.44404,-0.54488 -0.44404,-0.66814 0,-0.40537 -1.962483,-1.44662 -2.575173,-1.36633 -0.32991,0.0432 -0.61769,-0.049 -0.63952,-0.20492 -0.12215,-0.8726 -0.0326,-0.95097 1.23031,-1.07727 l 1.322923,-0.13229 -1.147733,-0.60319 c -0.63126,-0.33175 -1.49806,-0.64397 -1.92622,-0.69382 -0.42817,-0.0498 -0.98761,-0.2799 -1.2432,-0.51121 -0.25559,-0.2313 -0.90443,-0.60428 -1.44185,-0.82883 -0.9661,-0.40366 -0.97901,-0.40079 -1.14348,0.25449 -0.0915,0.36453 -0.34005,0.66277 -0.55236,0.66277 -0.26722,0 -0.33369,-0.16491 -0.21597,-0.53581 0.11675,-0.36784 0.0601,-0.513 -0.1806,-0.46302 -0.22049,0.0458 -0.32794,-0.14442 -0.28945,-0.51233 0.0403,-0.38479 -0.0556,-0.54028 -0.280037,-0.45417 -0.187691,0.072 -0.620411,-0.11115 -0.9616,-0.40707 -0.779139,-0.67574 -0.923089,-0.67202 -1.587403,0.041 -0.473535,0.50829 -0.728054,1.67171 -0.538964,2.46366 0.03475,0.14552 0.106299,0.72613 0.159008,1.29024 0.104191,1.11509 0.490988,1.75246 1.063504,1.75246 0.200463,0 0.364479,0.1786 0.364479,0.39688 0,0.21828 0.171567,0.39687 0.38126,0.39687 0.660348,0 0.708877,0.46637 0.170712,1.64054 -0.882688,1.92587 -0.848735,2.17394 0.502626,3.67238 0.580029,0.64316 1.056275,1.25867 1.058335,1.36781 0.008,0.4219 -0.944091,0.17157 -1.257781,-0.33073 -0.192411,-0.3081 -0.220081,-0.52916 -0.06623,-0.52916 0.14533,0 0.06035,-0.23813 -0.188851,-0.52917 -0.249198,-0.29104 -0.586766,-0.52917 -0.750153,-0.52917 -0.163387,0 -0.505836,-0.23068 -0.760998,-0.51263 -0.583516,-0.64478 -0.355724,-2.39168 0.401192,-3.07668 0.657891,-0.59539 0.647101,-0.9086 -0.0313,-0.9086 -0.297656,0 -0.822175,-0.28098 -1.165597,-0.62441 -0.589051,-0.58905 -0.789659,-1.48447 -1.068356,-4.76865 -0.06837,-0.80572 0.879773,-2.39948 1.522279,-2.55883 0.445031,-0.11037 0.591467,-0.33958 0.591644,-0.92604 2.61e-4,-0.8687 0.612078,-2.5262 1.043077,-2.82583 0.585464,-0.40703 1.56376,-0.17288 2.55376,0.61121 1.19794,0.94879 1.95918,0.93963 1.95918,-0.0236 0,-0.52448 -0.12068,-0.64506 -0.59531,-0.59481 -1.25506,0.13288 -0.47391,-1.47507 0.92344,-1.90082 0.46453,-0.14153 0.84281,0.0538 1.74917,0.90334 1.19894,1.12373 2.2114,3.07676 1.68583,3.25195 -0.30383,0.10128 -0.0362,0.72522 0.31106,0.72522 0.11357,0 0.34819,-0.31099 0.52137,-0.69108 0.31919,-0.70055 0.24754,-0.9047 -0.6563,-1.86982 -0.448,-0.47837 -0.66559,-2.34331 -0.3655,-3.13261 0.33072,-0.86987 2.146937,-2.697887 3.004337,-3.023867 0.47567,-0.18085 0.92958,-0.10194 1.79197,0.31156 1.57113,0.753307 2.45548,1.558017 2.01766,1.835957 -0.2591,0.16448 -0.25148,0.21266 0.0341,0.2158 0.20224,0.002 0.51922,-0.20315 0.7044,-0.4564 0.4162,-0.56919 2.4592,-0.60934 3.82269,-0.0751 0.50932,0.19954 1.24724,0.48753 1.63983,0.63996 0.71193,0.27643 1.79193,2.10831 1.44657,2.45366 -0.0943,0.0943 -0.0254,0.34732 0.15305,0.56233 0.17845,0.21502 0.33787,0.52363 0.35428,0.68581 0.0164,0.16217 0.048,0.49673 0.0701,0.74345 0.0222,0.24672 0.36773,0.60599 0.76791,0.79838 0.60623,0.29145 0.73118,0.52556 0.74907,1.4035 0.0118,0.57954 0.22052,1.62447 0.46382,2.32207 0.4001,1.14723 0.40372,1.34307 0.0379,2.05052 -0.36634,0.70843 -0.36474,0.78215 0.017,0.78215 0.27874,0 0.37376,0.15683 0.28054,0.46303 -0.0775,0.25466 -0.16886,0.9988 -0.20295,1.65364 -0.0341,0.65484 -0.21681,1.34796 -0.40603,1.54025 -0.52269,0.53117 -0.42029,0.93354 0.4497,1.76704 0.84448,0.80907 1.13051,2.17022 0.39688,1.8887 -0.24176,-0.0928 -0.39688,-4.2e-4 -0.39688,0.23627 0,0.5476 -0.89149,0.4825 -1.91183,-0.1396 -0.47646,-0.2905 -1.04489,-0.52386 -1.26317,-0.51858 -0.22285,0.005 -0.0924,0.17507 0.29753,0.38695 0.38193,0.20753 0.76227,0.63685 0.84522,0.95404 0.1373,0.52505 0.2706,0.56251 1.48841,0.41828 1.20956,-0.14325 1.33759,-0.10833 1.33759,0.36483 0,0.31822 -0.26593,0.62436 -0.67868,0.78129 -0.91621,0.34834 -1.24463,0.32461 -1.00594,-0.0727 0.14169,-0.23584 0.0736,-0.2293 -0.23738,0.0228 -0.23984,0.19443 -0.53565,0.29196 -0.65735,0.21674 -0.1217,-0.0752 -0.69247,-0.19368 -1.26836,-0.26325 -0.5759,-0.0696 -1.23637,-0.2023 -1.46771,-0.29494 -0.23135,-0.0926 -0.54467,-0.0142 -0.69628,0.17434 -0.25092,0.31202 -0.34329,0.97627 -0.70996,5.10527 l -0.11747,1.32291 2.68745,0.066 c 1.4781,0.0363 3.04667,0.18231 3.48571,0.32451 1.28331,0.41563 2.86576,0.53137 3.22208,0.23566 0.23632,-0.19613 0.70777,-0.0613 1.66465,0.47616 0.73422,0.41238 1.33507,0.81806 1.33522,0.90151 4.6e-4,0.26004 -3.83139,-0.01 -3.92094,-0.27589 -0.0466,-0.13862 -0.42989,-0.18301 -0.85173,-0.0986 -0.42184,0.0844 -0.97902,0.0655 -1.23817,-0.0419 -0.49606,-0.20563 -0.73391,-0.23511 -4.27232,-0.52968 -1.79943,-0.1498 -2.19134,-0.11747 -2.09452,0.17276 0.0854,0.25595 0.67474,0.35912 2.08134,0.36434 1.85022,0.007 3.15286,0.3816 3.15286,0.90697 0,0.1288 -1.57758,0.22862 -3.50573,0.22183 -1.951,-0.007 -4.17773,0.13895 -5.02101,0.32881 -1.05665,0.23791 -1.69571,0.26067 -2.11138,0.0752 -0.57838,-0.25807 -0.56437,-0.28601 0.4713,-0.9398 0.58708,-0.37061 1.29907,-0.73276 1.58222,-0.8048 0.40489,-0.10301 0.37026,-0.13753 -0.16223,-0.16167 -0.85834,-0.0389 -1.71114,-0.64971 -1.46444,-1.04888 0.10359,-0.1676 0.57946,-0.30472 1.0575,-0.30472 h 0.86917 l -0.0546,-3.77032 c -0.03,-2.07367 -0.14837,-3.99201 -0.26302,-4.26299 -0.11464,-0.27097 -0.22035,-0.86465 -0.2349,-1.31929 -0.0195,-0.60796 -0.16644,-0.85098 -0.55563,-0.91871 -0.29104,-0.0506 -0.66105,-0.26022 -0.82225,-0.46572 -0.16119,-0.20551 -0.66721,-0.44847 -1.12448,-0.53992 -0.74568,-0.14914 -0.83124,-0.1015 -0.82992,0.4621 0.003,1.08456 0.52033,2.55332 0.95953,2.72186 0.33284,0.12772 0.35551,0.24127 0.10778,0.53976 -0.17255,0.20791 -0.48361,0.31283 -0.69125,0.23315 -0.20764,-0.0797 -0.39567,0.0167 -0.41783,0.21416 -0.0222,0.19747 -0.0545,0.4781 -0.0719,0.62362 -0.0174,0.14552 -0.18808,0.64133 -0.37928,1.10179 -0.40852,0.98384 -1.35088,1.4211 -2.769437,1.28503 l -1.012,-0.0971 0.16437,1.10408 c 0.0904,0.60725 0.28625,1.65488 0.43521,2.32806 l 0.27083,1.22396 1.502837,0.30193 c 1.31253,0.26369 1.5431,0.24689 1.82085,-0.13267 0.30907,-0.42238 1.13719,-0.34806 1.13719,0.10206 0,0.99344 -1.75307,1.62405 -2.71708,0.97739 -0.58232,-0.39062 -1.780837,-0.18912 -1.780837,0.29941 0,0.19936 0.41672,0.53659 0.926047,0.7494 0.50932,0.21281 0.92604,0.51206 0.92604,0.66501 0,0.34557 -0.41741,0.35652 -1.03295,0.0271 -0.724457,-0.38772 -1.548537,-0.0414 -1.742737,0.73236 -0.10196,0.40622 -0.0587,0.73459 0.10381,0.78878 0.63816,0.21272 3.201037,2.5299 3.201037,2.89416 0,0.28482 0.16642,0.34699 0.59532,0.22242 0.32742,-0.0951 0.98226,-0.21621 1.4552,-0.26911 2.03865,-0.22806 0.11383,1.20634 -2.18281,1.62666 -1.731527,0.31689 -4.103447,0.38241 -4.096987,0.11316 z m 3.303243,-15.05537 c 0.50687,-0.31554 0.48456,-0.36823 -0.52916,-1.25035 -1.177533,-1.02464 -1.165773,-1.02005 -1.717583,-0.67118 -0.31432,0.19872 -0.32779,0.3164 -0.0662,0.57803 0.18068,0.18069 0.32852,0.51902 0.32852,0.75185 0,0.94253 0.96064,1.22895 1.984373,0.59165 z m 7.27604,-1.12081 c 0,-0.14552 -0.12609,-0.26459 -0.28019,-0.26459 -0.15411,0 -0.20662,0.11907 -0.11668,0.26459 0.0899,0.14552 0.21602,0.26458 0.2802,0.26458 0.0642,0 0.11667,-0.11906 0.11667,-0.26458 z m -6.61458,-1.11125 c 0,-0.42742 -0.0782,-0.50385 -0.29445,-0.28764 -0.16194,0.16195 -0.21445,0.42388 -0.11667,0.58208 0.27368,0.44283 0.41112,0.3444 0.41112,-0.29444 z m -0.79375,0.16631 c 0,-0.25423 -0.810603,-0.97849 -0.944873,-0.84422 -0.2348,0.2348 0.20557,0.99541 0.576303,0.99541 0.20271,0 0.36857,-0.068 0.36857,-0.15119 z m 7.32449,-0.95676 c -0.0845,-0.21106 -0.14716,-0.14837 -0.15985,0.15986 -0.0115,0.27891 0.051,0.43518 0.13896,0.34726 0.0879,-0.0879 0.0973,-0.31612 0.0209,-0.50712 z m 6.69843,-1.13147 c 0,-0.23057 -1.97399,-1.46475 -2.34278,-1.46475 -0.29772,0 -0.30477,0.076 -0.037,0.39869 0.55353,0.66696 2.37975,1.48506 2.37975,1.06606 z m -7.14375,-0.77022 c 0,-0.20009 -0.0744,-0.73587 -0.16537,-1.19062 -0.13023,-0.65117 -0.30063,-0.82683 -0.80205,-0.82683 -0.73495,0 -1.13809,-0.73551 -0.59249,-1.08098 0.49021,-0.3104 1.7535,-0.30626 1.94672,0.006 0.0844,0.13657 0.47838,0.20967 0.87551,0.16246 0.39713,-0.0472 0.94499,-0.0994 1.21747,-0.11601 0.37214,-0.0227 0.42529,-0.11467 0.21357,-0.36978 -0.17867,-0.21528 -0.19201,-0.48163 -0.0365,-0.7276 0.37331,-0.59024 0.33252,-0.66226 -0.79916,-1.41117 -1.1307,-0.74827 -1.84121,-0.87192 -2.31095,-0.40218 -0.38655,0.38655 -0.86972,0.0715 -0.86972,-0.56708 0,-0.34629 0.27138,-0.5801 0.8599,-0.74082 0.99679,-0.27222 2.09478,0.0875 3.47099,1.13719 0.54088,0.41255 1.06347,0.614 1.32874,0.51221 0.38411,-0.1474 0.36413,-0.2364 -0.16449,-0.73259 -0.33095,-0.31065 -0.83954,-0.86674 -1.1302,-1.23577 -1.18478,-1.50421 -3.04202,-2.14455 -3.04202,-1.04883 0,0.81265 -0.96226,0.6834 -1.17334,-0.1576 -0.18933,-0.75438 0.14696,-1.32041 0.93265,-1.56978 0.6316,-0.20046 0.65248,-0.61617 0.0423,-0.84132 -0.6266,-0.23118 -0.85103,-0.60716 -0.85585,-1.4338 -0.006,-1.01069 -0.58214,-1.37212 -1.84698,-1.15842 -0.65909,0.11135 -1.06748,0.0785 -1.06748,-0.0858 0,-0.5459 0.33209,-1.10323 0.65737,-1.10323 0.18489,0 0.48662,-0.18128 0.6705,-0.40285 0.21303,-0.25668 0.53603,-0.33884 0.89022,-0.22642 0.51101,0.16219 0.52465,0.13598 0.169,-0.32476 -1.14557,-1.484 -2.26062,-2.26212 -3.43311,-2.39574 -1.13188,-0.12898 -1.26353,-0.0744 -2.22848,0.92405 -0.912363,0.94402 -1.006503,1.16267 -0.852953,1.98117 0.0949,0.50602 0.4076,1.21878 0.694823,1.58392 0.28721,0.36514 0.52221,0.85346 0.52221,1.08517 0,0.23171 0.11906,0.42129 0.26458,0.42129 0.38884,0 0.32212,0.81952 -0.10599,1.30208 -0.44119,0.4973 -1.025543,2.47856 -0.66537,2.25596 0.13526,-0.0836 0.32701,0.0639 0.42611,0.3278 0.0991,0.26388 0.34285,0.60198 0.54168,0.75134 0.27935,0.20983 0.30579,0.54055 0.11633,1.4552 -0.13484,0.65102 -0.23061,1.48132 -0.21282,1.84512 0.0386,0.78989 1.13984,2.41959 1.57629,2.3328 0.53837,-0.10706 1.83207,0.32868 2.47322,0.83301 0.34064,0.26794 0.85065,0.42668 1.13337,0.35275 0.38712,-0.10123 0.55672,0.0357 0.68699,0.55476 0.18084,0.7205 0.64478,0.95462 0.64478,0.32538 z m 2.06705,-0.67799 c 0.0661,-0.19844 -0.0331,-0.29766 -0.23151,-0.23151 -0.19099,0.0637 -0.39935,0.27202 -0.46302,0.46302 -0.0661,0.19843 0.0331,0.29765 0.23151,0.23151 0.191,-0.0637 0.39936,-0.27203 0.46302,-0.46302 z m 1.37253,-0.54571 c 0,-0.3315 -0.28079,-0.3315 -0.79375,0 -0.32093,0.2074 -0.28296,0.25726 0.19844,0.26054 0.32742,0.002 0.59531,-0.11502 0.59531,-0.26054 z m 1.05833,-1.71979 c -0.36394,-0.43852 -1.05833,-0.53739 -1.05833,-0.15069 0,0.1354 0.26789,0.29778 0.59531,0.36084 0.32742,0.0631 0.63966,0.13088 0.69386,0.1507 0.0542,0.0198 -0.0497,-0.14257 -0.23084,-0.36085 z m 2.64584,-2.23006 c 0,-0.34243 -0.82523,-1.13395 -1.00002,-0.95916 -0.0788,0.0788 0.0729,0.38212 0.33709,0.67406 0.53486,0.59101 0.66293,0.64609 0.66293,0.2851 z m -1.8839,-2.40015 c -0.46778,-0.58208 -0.95636,-1.05833 -1.08574,-1.05833 -0.28914,0 1.43075,2.10524 1.72533,2.1119 0.116,0.003 -0.17182,-0.47148 -0.63959,-1.05357 z m -14.255693,0.26191 c 0,-0.31568 -1.57301,-1.32024 -2.06731,-1.32024 -0.52947,0 -1.90144,-1.11995 -1.90144,-1.55215 0,-0.3338 -1.76934,-2.15202 -2.09416,-2.15202 -0.13828,0 -0.33159,-0.25257 -0.42957,-0.56128 -0.15645,-0.49292 -0.24385,-0.42042 -0.717686,0.59531 -0.296747,0.63613 -0.552027,1.51379 -0.56729,1.95035 -0.02311,0.6611 0.127006,0.86511 0.898293,1.22079 0.509323,0.23487 1.087023,0.34239 1.283783,0.23895 0.44764,-0.23536 3.22211,0.86925 3.51991,1.4014 0.21185,0.37855 2.07547,0.53918 2.07547,0.17889 z m 14.394813,-2.5201 c -0.67305,-0.88242 -1.14738,-1.08094 -1.25163,-0.52386 -0.0395,0.21129 1.54973,1.45914 1.85837,1.45914 0.0587,0 -0.21438,-0.42088 -0.60674,-0.93528 z m -14.151113,0.0754 c -0.0115,-0.32742 -0.0809,-0.44648 -0.15434,-0.26458 -0.18246,0.45217 -0.61852,0.41824 -0.61852,-0.0481 0,-0.45111 -1.3592,-1.47323 -1.95908,-1.47323 -0.76645,0 -0.44126,0.48198 0.96689,1.43309 1.63876,1.10688 1.79258,1.13763 1.76505,0.35285 z m 11.530263,-0.19844 c 0.0899,-0.14552 0.0397,-0.26458 -0.11163,-0.26458 -0.15134,0 -0.34864,-0.29277 -0.43845,-0.65061 -0.16889,-0.6729 -0.81692,-1.37787 -1.05121,-1.14358 -0.17446,0.17445 0.31018,1.43839 0.73751,1.92343 0.40003,0.45404 0.64326,0.49216 0.86378,0.13534 z m 1.15273,-2.14008 c -0.151,-0.0933 -0.4126,-0.44425 -0.58134,-0.77984 -0.16874,-0.33559 -0.4854,-0.66673 -0.70368,-0.73586 -0.3221,-0.10201 -0.31311,-0.0311 0.0477,0.37647 0.24453,0.27618 0.57879,0.85509 0.7428,1.28646 0.23233,0.61109 0.35018,0.70017 0.53361,0.40337 0.14446,-0.23374 0.12934,-0.44649 -0.0391,-0.5506 z m -13.985023,-0.24117 c 0,-0.14552 -0.12609,-0.26458 -0.2802,-0.26458 -0.15411,0 -0.20661,0.11906 -0.11668,0.26458 0.0899,0.14552 0.21603,0.26459 0.2802,0.26459 0.0642,0 0.11668,-0.11907 0.11668,-0.26459 z m 11.377083,-1.97168 c 0,-0.78229 -0.70215,-1.06813 -1.25811,-0.51217 -0.39034,0.39034 -0.37313,0.4642 0.2107,0.90459 0.75016,0.56585 1.04741,0.45448 1.04741,-0.39242 z m 3.3674,0.45033 c -0.0569,-0.10914 -0.29983,-0.62852 -0.5399,-1.15418 -0.63314,-1.38636 -1.15297,-1.75822 -1.69713,-1.21406 -0.3977,0.3977 -0.39669,0.44357 0.0133,0.60089 0.24412,0.0937 0.44385,0.30194 0.44385,0.4628 0,0.16087 0.32743,0.56057 0.72761,0.88822 0.7199,0.58943 1.25227,0.80006 1.05229,0.41633 z m 10.52323,26.39219 c -0.21577,-0.34912 0.1006,-0.84457 0.41516,-0.65016 0.32136,0.19861 0.31927,0.91474 -0.003,0.91474 -0.13693,0 -0.32255,-0.11906 -0.41249,-0.26458 z m -29.241773,-7.28244 c -0.18407,-0.2218 -0.25247,-0.48548 -0.15199,-0.58595 0.22068,-0.22069 1.01078,0.24238 1.15579,0.67739 0.15073,0.45219 -0.61015,0.38288 -1.0038,-0.0914 z"
       id="path7" />
  </g>
</svg>
