<?xml version="1.0" encoding="UTF-8" standalone="no"?>
<!-- Created with Inkscape (http://www.inkscape.org/) -->

<svg
   width="43.245483mm"
   height="42.229519mm"
   viewBox="0 0 43.245483 42.229509"
   version="1.1"
   id="svg1"
   inkscape:version="1.4.1-rc (06eac75fbf, 2025-03-29)"
   sodipodi:docname="twotrees4.svg"
   xmlns:inkscape="http://www.inkscape.org/namespaces/inkscape"
   xmlns:sodipodi="http://sodipodi.sourceforge.net/DTD/sodipodi-0.dtd"
   xmlns="http://www.w3.org/2000/svg"
   xmlns:svg="http://www.w3.org/2000/svg">
  <sodipodi:namedview
     id="namedview1"
     pagecolor="#ffffff"
     bordercolor="#000000"
     borderopacity="0.25"
     inkscape:showpageshadow="2"
     inkscape:pageopacity="0.0"
     inkscape:pagecheckerboard="0"
     inkscape:deskcolor="#d1d1d1"
     inkscape:document-units="mm"
     inkscape:zoom="0.72248176"
     inkscape:cx="81.662961"
     inkscape:cy="79.586784"
     inkscape:window-width="1850"
     inkscape:window-height="1016"
     inkscape:window-x="0"
     inkscape:window-y="0"
     inkscape:window-maximized="1"
     inkscape:current-layer="layer1" />
  <defs
     id="defs1" />
  <g
     inkscape:label="Layer 1"
     inkscape:groupmode="layer"
     id="layer1"
     transform="translate(-83.608345,-98.161676)">
    <path
       style="fill:#000000"
       d="m 95.746175,139.75497 0.08605,-0.75175 2.778125,-0.0256 c 3.11782,-0.0288 3.43958,0.0321 3.43958,0.65001 0,0.37416 -0.36331,0.43617 -2.579685,0.44029 -1.418828,0.003 -2.856535,0.10246 -3.194904,0.22181 -0.560153,0.19759 -0.607515,0.14973 -0.529167,-0.53474 z m -5.470199,-1.55825 c -0.327979,-0.25845 -0.805843,-0.36295 -1.256885,-0.27485 -0.400245,0.0782 -1.047215,0.0206 -1.437712,-0.12781 -0.507478,-0.19295 -0.932645,-0.17772 -1.490573,0.0534 -0.68114,0.28214 -0.826617,0.26037 -1.141975,-0.17091 -0.264971,-0.36237 -0.363544,-0.3925 -0.369443,-0.11294 -0.0059,0.27869 -0.08145,0.2552 -0.280845,-0.0873 -0.150039,-0.25772 -0.396422,-0.39218 -0.547518,-0.2988 -0.189365,0.11704 -0.190208,0.0119 -0.0027,-0.33846 0.192466,-0.35963 0.604067,-0.52784 1.407566,-0.57525 0.624558,-0.0368 1.179642,-0.11109 1.23352,-0.16497 0.05388,-0.0539 0.55293,0.0626 1.109004,0.25876 0.556074,0.1962 1.229919,0.32147 1.497433,0.27839 0.267514,-0.0431 0.635218,0.04 0.817119,0.18467 0.383446,0.30492 0.455229,-0.0978 0.08493,-0.47648 -0.152212,-0.15565 -0.06318,-0.47472 0.233823,-0.83799 0.378965,-0.46352 0.666547,-0.55716 1.370281,-0.4462 0.489862,0.0772 1.069251,0.14868 1.287532,0.15875 0.218281,0.0101 0.575469,0.16301 0.79375,0.33984 0.218281,0.17684 0.618644,0.40056 0.889695,0.49716 0.402841,0.14357 0.433156,0.24753 0.16604,0.56938 -0.274443,0.33068 -0.221211,0.39375 0.332371,0.39375 0.584481,0 0.648079,-0.0951 0.56143,-0.83928 -0.05375,-0.4616 -0.204833,-1.22721 -0.33575,-1.70135 -0.192037,-0.6955 -0.16645,-0.83461 0.132425,-0.71992 0.203751,0.0782 0.370456,0.0231 0.370456,-0.12242 0,-0.14552 -0.188503,-0.33692 -0.418896,-0.42533 -0.329369,-0.12639 -0.391475,-0.43749 -0.290597,-1.45565 0.124665,-1.25823 0.106384,-1.29928 -0.645535,-1.44966 -1.017747,-0.20355 -2.460649,-1.23323 -2.561113,-1.82765 -0.06629,-0.39223 0.04485,-0.4411 0.661459,-0.2908 0.407627,0.0994 0.827184,0.3249 0.932349,0.5012 0.105165,0.17629 0.746885,0.47612 1.426044,0.66627 1.098405,0.30753 1.270537,0.29691 1.557979,-0.0962 0.177729,-0.24306 0.26627,-0.73945 0.196757,-1.10308 -0.07376,-0.38585 -0.0034,-0.66114 0.169042,-0.66114 0.162485,0 0.295428,-0.38696 0.295428,-0.8599 0,-0.74083 -0.09159,-0.8599 -0.661459,-0.8599 -0.363802,0 -0.661458,0.11311 -0.661458,0.25136 0,0.14461 -0.116044,0.13531 -0.273257,-0.0219 -0.3668,-0.3668 -0.04178,-1.14517 0.500002,-1.19742 1.134565,-0.10941 3.466923,0.70569 3.865735,1.35099 0.108491,0.17554 0.34095,0.15796 0.67572,-0.0511 0.42638,-0.26627 0.57316,-0.2328 0.89215,0.20344 0.4804,0.657 0.80689,0.36466 0.58409,-0.52302 -0.13187,-0.52541 -0.33566,-0.67378 -0.92542,-0.67378 -0.99201,0 -1.563534,-0.65609 -1.149309,-1.31937 0.492949,-0.78933 -0.743546,-1.82117 -2.694562,-2.24856 -0.68835,-0.1508 -0.73488,-0.12261 -0.421317,0.25521 0.475502,0.57294 -0.04704,1.17307 -0.612671,0.70364 -0.592996,-0.49215 -0.461066,-1.53025 0.234769,-1.84729 1.199672,-0.54661 3.8511,0.45325 4.73755,1.78655 0.28528,0.42908 0.61314,0.72178 0.72858,0.65043 0.3357,-0.20747 -0.0662,-1.51197 -0.61373,-1.99178 -0.27569,-0.2416 -0.50125,-0.57424 -0.50125,-0.7392 0,-0.16495 -0.14883,-0.2741 -0.33073,-0.24254 -0.565033,0.098 -1.662883,-0.56994 -1.93273,-1.17593 -0.168925,-0.37935 -0.458376,-0.5568 -0.842076,-0.51625 -0.772484,0.0816 -1.369422,-0.91172 -0.701826,-1.1679 0.411769,-0.15801 1.731244,0.10562 2.780406,0.55552 0.306126,0.13127 0.472896,0.0129 0.584816,-0.41508 0.11274,-0.43113 -0.0442,-0.80357 -0.560538,-1.33053 -0.394411,-0.40249 -0.882578,-0.73512 -1.084817,-0.73916 -0.202239,-0.004 -0.521645,-0.21571 -0.709792,-0.47037 -0.274081,-0.37097 -0.408744,-0.39727 -0.677398,-0.13229 -0.655055,0.6461 -1.04804,0.13853 -0.527928,-0.68187 0.292121,-0.46077 2.236636,0.032 3.02513,0.76655 0.774943,0.72197 0.978323,0.63463 0.635723,-0.27302 -0.38303,-1.01477 0.0105,-1.39631 0.5562,-0.53926 0.23165,0.3638 1.47848,1.71119 2.77074,2.9942 1.47703,1.46645 2.29552,2.47358 2.20404,2.71198 -0.08,0.20858 -0.0474,0.37923 0.0726,0.37923 0.11996,0 0.20552,0.71375 0.19013,1.58611 -0.0154,0.87236 -0.12877,1.58673 -0.25196,1.5875 -0.12319,7.7e-4 -0.76503,-0.47486 -1.42631,-1.05694 -0.66128,-0.58208 -1.27487,-1.05835 -1.36352,-1.05836 -0.0887,-2e-5 -0.13871,0.53732 -0.11124,1.19407 0.04,0.95562 0.20143,1.32157 0.80843,1.83232 0.71252,0.59955 2.7135,3.665 2.7135,4.15701 0,0.12373 -0.24595,0.22496 -0.54656,0.22496 -0.30061,0 -0.792,0.13135 -1.09198,0.2919 -0.40835,0.21854 -0.59541,0.21102 -0.74433,-0.0299 -0.1548,-0.25047 -0.22348,-0.24811 -0.30973,0.0106 -0.0854,0.25633 -0.24027,0.26318 -0.67609,0.0299 -0.77813,-0.41644 -1.69641,-0.37874 -2.37643,0.0976 -0.31416,0.22004 -0.918834,0.44056 -1.343727,0.49003 -1.396356,0.16258 -1.557412,0.47985 -0.874757,1.72322 0.253893,0.46244 0.265664,0.6782 0.04446,0.81491 -0.165474,0.10227 -0.224559,0.38478 -0.131301,0.62781 0.115044,0.2998 0.03286,0.44187 -0.255622,0.44187 -0.23385,0 -0.425182,-0.11907 -0.425182,-0.26459 0,-0.14552 -0.0893,-0.26449 -0.198438,-0.26437 -0.109141,1.2e-4 -0.233363,0.54172 -0.27605,1.20356 -0.04269,0.66184 -0.19171,1.50345 -0.331162,1.87024 -0.139452,0.36678 -0.188611,0.92651 -0.109242,1.24383 0.119714,0.47863 -0.04296,0.65786 -0.954566,1.05173 -0.604379,0.26113 -1.651388,0.46748 -2.326686,0.45856 -0.675298,-0.009 -1.585002,0.047 -2.021565,0.12421 -0.505792,0.0895 -0.985722,-0.0108 -1.322916,-0.27655 z M 98.697282,127.672 c 0.667567,-0.34634 0.66964,-0.35697 0.155537,-0.79716 -0.454174,-0.38887 -0.537129,-0.39476 -0.646342,-0.0459 -0.443623,1.41726 -0.483623,1.34855 0.490805,0.84302 z m 6.153598,-7.48094 c -0.0682,-0.64007 -1.91517,-2.66702 -2.18463,-2.39756 -0.3426,0.3426 0.40009,1.8474 1.10822,2.24542 0.43395,0.24391 0.82869,0.53276 0.8772,0.6419 0.17923,0.40327 0.2705,0.17889 0.19921,-0.48976 z m 6.18172,17.87797 c -0.25863,-0.15983 -2.01119,-0.26354 -4.74933,-0.28103 -0.88386,-0.006 -3.175,-0.90025 -3.175,-1.23972 0,-0.27627 -0.10114,-0.25984 -0.43099,0.07 -0.25053,0.25053 -0.61058,0.3568 -0.8599,0.25381 -0.74701,-0.30858 -2.38596,-0.37609 -2.553393,-0.10518 -0.08857,0.14331 -0.292103,0.17955 -0.452298,0.0806 -0.187427,-0.11584 -0.231032,-0.0231 -0.122314,0.26026 0.230145,0.59975 -0.407962,0.57091 -0.964059,-0.0436 -1.09247,-1.20717 -0.51885,-1.34836 5.053294,-1.2438 3.38578,0.0635 4.43724,0.17026 4.94314,0.50174 0.35344,0.23158 1.03756,0.44462 1.52029,0.47343 0.48272,0.0288 0.99789,0.1412 1.1448,0.24974 0.39085,0.28878 2.1187,-0.12528 2.08767,-0.50029 -0.0915,-1.106 -0.11716,-1.1457 -0.63499,-0.98134 -0.29105,0.0924 -0.52924,0.0706 -0.52933,-0.0483 -9e-5,-0.11895 -0.38705,-0.23218 -0.8599,-0.25163 -1.43305,-0.0589 -4.55164,-0.4056 -4.75078,-0.52809 -0.10278,-0.0632 -0.12494,-0.27637 -0.0492,-0.47366 0.18995,-0.49501 1.45012,-0.70489 2.52032,-0.41975 0.48994,0.13053 1.38985,0.30808 1.99981,0.39455 1.10712,0.15695 1.10869,0.15596 0.91635,-0.58086 -0.10596,-0.40594 -0.17107,-1.21433 -0.14468,-1.79641 0.0264,-0.58208 -0.10742,-1.7425 -0.29735,-2.57871 -0.19549,-0.86073 -0.24316,-1.58353 -0.10985,-1.66592 0.42882,-0.26502 -0.76292,-1.96613 -1.38844,-1.98188 -0.79084,-0.0199 -1.73698,-1.20781 -1.98303,-2.48977 -0.0543,-0.2828 -0.25789,-0.83332 -0.45248,-1.22337 -0.3311,-0.66371 -0.19859,-1.37137 0.34348,-1.83431 0.0852,-0.0728 0.1549,-0.31088 0.1549,-0.52916 0,-0.25972 0.20574,-0.36827 0.59531,-0.3141 0.32743,0.0455 0.59532,0.014 0.59532,-0.07 0,-0.30178 -1.73217,-1.20141 -2.31511,-1.20238 -0.32742,-5.4e-4 -0.59531,-0.1127 -0.59531,-0.24924 0,-0.13654 -0.3516,-0.6332 -0.78133,-1.1037 -0.42973,-0.47049 -0.72562,-0.94558 -0.65753,-1.05574 0.0681,-0.11017 -0.14587,-0.23858 -0.47545,-0.28537 -0.41403,-0.0588 -0.60877,-0.2745 -0.6301,-0.69801 -0.0473,-0.93842 -0.48257,-1.19374 -2.07571,-1.21741 -0.80416,-0.012 -1.462829,-0.10188 -1.463705,-0.19986 -0.0025,-0.2741 -1.344174,-1.80624 -1.581754,-1.80624 -0.115613,0 -0.272476,0.23813 -0.348586,0.52917 -0.07817,0.29891 -0.360895,0.52917 -0.649757,0.52917 -0.40141,0 -0.510475,-0.18492 -0.507181,-0.8599 0.0023,-0.47294 -0.08767,-1.69333 -0.199949,-2.71198 -0.11228,-1.01865 -0.238003,-2.20927 -0.279383,-2.64583 -0.04138,-0.43657 -0.161888,-1.00211 -0.267793,-1.25677 -0.115648,-0.27809 -0.07557,-0.46302 0.100335,-0.46302 0.16109,0 0.292891,0.12608 0.292891,0.28019 0,0.15411 0.113863,0.20983 0.253028,0.12382 0.352145,-0.21764 0.03498,-0.93318 -0.413627,-0.93318 -0.202712,0 -0.368567,-0.23813 -0.368567,-0.52917 0,-0.81274 -1.519133,-0.74343 -1.833589,0.0837 -0.526508,1.38482 -0.432019,2.24548 0.334343,3.04539 l 0.741332,0.77378 -0.626835,0.67637 c -0.679907,0.73363 -1.085015,0.65125 -1.375545,-0.27971 -0.10218,-0.32742 -0.346615,-0.59531 -0.543188,-0.59531 -0.196573,0 -0.535898,-0.0685 -0.754056,-0.15221 -0.618305,-0.23727 -1.282928,1.47536 -1.340901,3.45528 -0.02776,0.94821 0.0407,1.72401 0.152134,1.72401 0.111437,0 0.133499,0.18011 0.04903,0.40025 -0.08447,0.22013 -0.03622,0.54755 0.10722,0.7276 0.396306,0.49743 0.663154,2.76578 0.348261,2.9604 -0.278042,0.17184 -1.071023,-1.42492 -1.181777,-2.37965 -0.03448,-0.2972 -0.141026,-0.66712 -0.236775,-0.82204 -0.09575,-0.15493 -0.123654,-0.68021 -0.06201,-1.1673 0.06164,-0.48709 -0.01121,-1.03418 -0.161897,-1.21574 -0.31843,-0.38369 0.22974,-3.26602 0.621141,-3.26602 0.130953,0 0.159874,-0.12656 0.06427,-0.28125 -0.309269,-0.50041 0.701734,-1.30625 1.638811,-1.30625 0.818057,0 0.885035,-0.0636 0.885035,-0.84111 0,-1.28099 0.547849,-2.52204 1.255701,-2.84456 0.349819,-0.15939 0.752161,-0.21803 0.894093,-0.13031 0.141931,0.0877 0.666345,-0.0343 1.165362,-0.27106 0.665195,-0.31565 1.26177,-0.38352 2.235658,-0.25433 1.197705,0.15888 1.458155,0.34429 1.359685,0.96793 -0.01723,0.10915 0.296089,0.2153 0.696271,0.2359 0.400184,0.0206 0.982384,0.0504 1.293794,0.0661 0.3114,0.0158 1.06524,0.47518 1.67521,1.02088 0.63412,0.56732 1.38303,0.99219 1.74892,0.99219 0.35194,0 0.65343,0.14883 0.66997,0.33073 0.0165,0.1819 0.0591,0.86651 0.0946,1.52135 0.0355,0.65485 0.31958,1.76604 0.63138,2.46933 0.68357,1.54188 0.7303,2.14791 0.14838,1.9246 -0.23018,-0.0883 -0.46831,-0.16059 -0.52916,-0.16059 -0.0609,0 -0.11066,-0.1786 -0.11066,-0.39688 0,-0.21828 -0.11906,-0.39687 -0.26458,-0.39687 -0.14552,0 -0.26458,-0.15632 -0.26458,-0.34738 0,-0.19105 -0.35719,-0.68958 -0.79375,-1.10783 -0.43657,-0.41826 -0.79375,-0.90404 -0.79375,-1.07953 0,-0.17549 -0.14883,-0.3729 -0.33073,-0.43869 -0.43706,-0.15809 -2.57233,-0.0325 -2.7676,0.16272 -0.0842,0.0842 0.13206,0.57159 0.48047,1.08318 0.64886,0.95275 1.66722,1.24941 2.25865,0.65798 0.19134,-0.19134 0.37501,-0.15625 0.59979,0.11458 0.25846,0.31143 0.24033,0.51806 -0.0897,1.02169 -0.39647,0.60508 -0.37512,0.66542 0.51401,1.4526 1.04242,0.92288 1.55555,2.44943 0.82335,2.44943 -0.23647,0 -0.42995,0.15631 -0.42995,0.34737 0,0.4789 1.53493,1.91006 1.78276,1.66222 0.11043,-0.11042 -0.0224,-0.36394 -0.29509,-0.56336 -0.33802,-0.24717 -0.44788,-0.55612 -0.34512,-0.97056 0.0829,-0.33438 0.2507,-1.02034 0.37287,-1.52436 0.28308,-1.16789 1.55631,-1.98457 2.70177,-1.73298 0.92389,0.20291 1.28936,1.01707 0.71459,1.59185 -0.54933,0.54932 -0.87541,0.49512 -1.05055,-0.17461 -0.13895,-0.53136 -0.19087,-0.54303 -0.75355,-0.16943 -0.65757,0.43661 -1.06089,1.80686 -0.84086,2.85677 0.35852,1.71072 1.6031,3.41226 2.50943,3.43078 0.50332,0.0103 1.09938,0.63957 0.8459,0.89305 -0.0958,0.0958 -0.61933,0.17409 -1.1635,0.17409 -0.98908,0 -0.98947,4.5e-4 -1.17478,1.34782 -0.2073,1.50722 0.37655,3.02292 1.27417,3.30782 0.2822,0.0896 0.42707,0.31165 0.34419,0.52764 -0.0787,0.20513 -0.0506,0.37297 0.0626,0.37297 0.46853,0 1.06176,-0.72317 1.3565,-1.65365 0.30595,-0.96582 1.06701,-1.39044 1.06701,-0.59531 0,0.21828 0.18157,0.39688 0.40349,0.39688 0.23666,0 0.46913,0.32819 0.56224,0.79375 0.11959,0.59791 0.30469,0.79375 0.75028,0.79375 0.51211,0 0.61245,-0.17662 0.74732,-1.31535 0.0857,-0.72343 0.29545,-1.57631 0.46615,-1.89527 l 0.31037,-0.57994 0.4306,0.54139 c 0.92627,1.16462 2.50602,1.43215 2.40144,0.4067 -0.1013,-0.99332 0.0311,-1.39087 0.46332,-1.39087 0.81355,0 -0.0814,-0.59559 -1.15787,-0.77057 -0.66343,-0.10783 -1.09755,-0.35899 -1.29091,-0.74683 -0.19511,-0.39136 -0.37912,-0.49657 -0.55714,-0.31855 -0.14619,0.14619 -0.44365,0.19755 -0.66102,0.11414 -0.31302,-0.12012 -0.37923,-0.57585 -0.31834,-2.19111 0.098,-2.59983 0.41373,-3.2545 1.4291,-2.9633 0.409,0.1173 0.81861,0.13831 0.91023,0.0467 0.0916,-0.0916 0.24942,-0.051 0.35065,0.0903 0.28068,0.39181 1.29862,0.90624 1.46467,0.74019 0.0809,-0.0809 -0.0312,-0.41917 -0.24917,-0.75176 -0.31692,-0.48366 -0.3274,-0.63315 -0.0524,-0.7468 0.25227,-0.10425 0.20291,-0.25525 -0.18532,-0.56698 -0.29104,-0.23368 -0.54405,-0.53882 -0.56224,-0.67808 -0.0182,-0.13925 -0.048,-0.34931 -0.0661,-0.46679 -0.0371,-0.23979 -1.4366,-0.19592 -1.84731,0.0579 -0.42066,0.25998 -0.58312,-0.25217 -0.22781,-0.71817 0.29385,-0.3854 0.44467,-0.37892 1.71131,0.0736 l 1.38907,0.49625 v -0.63243 c 0,-0.59019 -0.89144,-1.37793 -1.39643,-1.23398 -0.11319,0.0323 -0.27476,-0.12103 -0.35904,-0.34066 -0.0974,-0.25374 -0.50465,-0.4008 -1.11711,-0.40338 -0.53014,-0.002 -1.14248,-0.12355 -1.36076,-0.26961 -0.34692,-0.23213 -0.3385,-0.31029 0.0668,-0.62093 0.34502,-0.26441 0.4212,-0.56785 0.29766,-1.1856 -0.19477,-0.97381 -0.81527,-1.09343 -1.50336,-0.2898 -0.2545,0.29723 -0.57862,0.4688 -0.72026,0.38126 -0.40005,-0.24725 -0.3034,-0.6571 0.15496,-0.6571 0.22687,0 0.34874,-0.10315 0.27082,-0.22922 -0.0779,-0.12608 0.0874,-0.4365 0.36729,-0.68982 0.43472,-0.39342 0.61711,-0.41266 1.25053,-0.13189 0.80375,0.35626 1.73906,1.8798 1.51403,2.46621 -0.12662,0.32997 1.00287,0.6879 2.20411,0.69847 0.58164,0.005 0.35396,-0.46305 -0.30571,-0.62862 -0.55958,-0.14045 -0.62448,-0.2839 -0.53741,-1.18788 0.0909,-0.94359 0.0388,-1.0402 -0.63311,-1.17458 -0.40268,-0.0805 -1.0427,-0.45699 -1.42228,-0.83656 -0.76428,-0.76428 -2.14665,-1.27105 -2.50089,-0.91682 -0.12684,0.12684 -0.39445,0.1242 -0.60507,-0.006 -0.53139,-0.32842 0.10478,-1.06748 0.91886,-1.06748 0.46199,0 0.57355,-0.11758 0.47372,-0.4993 -0.0718,-0.27462 -0.001,-0.57931 0.15707,-0.67708 0.15819,-0.0978 0.28581,-0.43863 0.28358,-0.75746 -0.003,-0.43845 -0.061,-0.48972 -0.23788,-0.21042 -0.12929,0.20419 -0.42445,0.29614 -0.66019,0.20568 -0.6093,-0.23381 -0.82043,-0.11324 -0.73056,0.41723 0.0546,0.32208 -0.0952,0.46302 -0.49213,0.46302 -0.32088,0 -0.62355,-0.20262 -0.69165,-0.46302 -0.14377,-0.54977 -1.47928,-0.63875 -1.98573,-0.13229 -0.1819,0.1819 -0.58719,0.33073 -0.90063,0.33073 -0.69039,0 -1.76448,0.95156 -2.34817,2.08031 -0.29525,0.57095 -0.62219,0.8301 -1.04724,0.8301 -0.53014,0 -0.59899,-0.10341 -0.48442,-0.7276 0.30737,-1.6745 3.37013,-3.72412 5.94463,-3.9782 1.0261,-0.10126 1.25677,-0.0465 1.25677,0.29821 0,0.62417 0.74669,0.24073 0.84442,-0.43363 0.0913,-0.62977 1.01324,-0.95316 3.32277,-1.16547 1.00789,-0.0927 1.38906,-0.0363 1.38906,0.20547 0,0.18324 0.0663,0.26689 0.14728,0.18588 0.20314,-0.20314 2.49855,1.91745 2.49855,2.30826 0,0.17363 0.23813,0.59026 0.52917,0.92583 0.29104,0.33558 0.52734,0.80028 0.52511,1.03267 -0.006,0.61313 -0.42324,1.17819 -0.73013,0.98852 -0.14531,-0.0898 -0.41355,0.0167 -0.59611,0.23666 -0.19104,0.23019 -0.54065,0.33368 -0.82373,0.24384 -0.67721,-0.21494 -0.61999,-0.0289 0.30129,0.97982 0.74441,0.81502 0.84435,0.84899 1.62775,0.55328 1.35575,-0.51173 3.24294,0.22584 4.79761,1.87505 1.49997,1.59119 1.68677,2.16543 1.21937,3.74841 -0.39162,1.32631 -0.69457,1.42754 -2.42479,0.81022 -0.93533,-0.33372 -1.01824,-0.32045 -1.31221,0.21005 -0.48237,0.87047 -0.54553,2.04167 -0.17126,3.17572 0.31565,0.95642 0.29832,1.06336 -0.24333,1.50196 l -0.58318,0.47223 0.94483,0.97292 c 1.11272,1.14579 1.96432,2.47489 1.96571,3.0679 0.002,0.65703 -0.80581,2.11433 -1.07811,1.94604 -0.1341,-0.0829 -0.24564,-0.0544 -0.24787,0.0634 -0.002,0.11773 -0.10438,0.3723 -0.227,0.56572 -0.17069,0.26925 -0.46073,0.13384 -1.23748,-0.57776 -1.13627,-1.04096 -1.97105,-1.38294 -1.97105,-0.80747 0,0.20465 0.11906,0.3721 0.26458,0.3721 0.14552,0 0.26458,0.24068 0.26458,0.53484 0,0.31374 0.27345,0.65943 0.66146,0.83622 0.3638,0.16576 0.66146,0.45623 0.66146,0.64548 0,0.18925 0.22846,0.5571 0.5077,0.81743 0.72392,0.6749 1.00911,1.92853 0.43872,1.92853 -0.23862,0 -0.50683,-0.20836 -0.59602,-0.46302 -0.21186,-0.60494 -1.93433,-2.18281 -2.38284,-2.18281 -0.62927,0 -0.3453,0.65087 0.52128,1.19479 0.9811,0.6158 1.31517,1.71563 0.52112,1.71563 -0.27373,0 -0.73845,-0.22432 -1.03273,-0.49848 -0.29428,-0.27416 -1.06087,-0.57819 -1.70354,-0.67562 -0.64266,-0.0974 -1.4959,-0.23976 -1.89609,-0.3163 -0.54537,-0.1043 -0.7276,-0.0345 -0.7276,0.27875 0,0.22984 -0.10369,0.4179 -0.23043,0.4179 -0.13007,0 -0.13235,0.52494 -0.005,1.20543 0.28214,1.51024 0.181,2.97579 -0.26075,3.77816 -0.18712,0.33989 -0.27503,0.68317 -0.19536,0.76284 0.22241,0.22241 4.38518,0.8569 5.661,0.86286 0.8037,0.004 1.18129,0.1317 1.29976,0.44042 0.17787,0.46352 -0.61718,1.24267 -1.01631,0.99599 -0.12409,-0.0767 -0.22561,-0.0134 -0.22561,0.14076 0,0.15411 -0.18233,0.2802 -0.40518,0.2802 -0.22284,0 -0.47371,0.1786 -0.55747,0.39688 -0.16526,0.43066 -0.88943,0.55278 -0.88943,0.14998 0,-0.23515 -0.9446,-0.34322 -2.38125,-0.27242 -0.3638,0.0179 -0.89958,0.0425 -1.19063,0.0547 -0.29104,0.0121 -0.73752,-0.0697 -0.99218,-0.18182 -0.35899,-0.15808 -0.46302,-0.0786 -0.46302,0.35358 0,0.387 0.16713,0.55748 0.54656,0.55748 0.66542,0 1.5701,0.45715 1.5701,0.7934 0,0.13509 -0.50601,0.24608 -1.12448,0.24664 -0.61846,5.6e-4 -1.62174,0.0471 -2.2295,0.10344 -0.60777,0.0563 -1.24753,0.0144 -1.42169,-0.0933 z m 2.40842,-5.69369 c -0.22888,-0.76634 -0.23352,-0.76809 -0.25584,-0.0969 -0.0125,0.37593 0.0566,0.76289 0.15365,0.8599 0.30721,0.30721 0.34269,0.0423 0.10219,-0.76295 z m -1.30463,-3.47259 c -0.23058,-0.39655 -0.28222,-0.40798 -0.28882,-0.0639 -0.009,0.44558 0.26966,0.84677 0.45717,0.65925 0.0618,-0.0618 -0.0139,-0.32973 -0.16834,-0.59531 z m 1.65304,0.11245 c 0.0877,-0.32742 0.16116,-1.13535 0.16315,-1.79539 0.003,-1.02476 -0.0737,-1.20007 -0.52539,-1.20007 -0.41867,0 -0.48891,0.11234 -0.33676,0.53861 0.10574,0.29624 0.19272,1.10417 0.19332,1.79539 0.001,1.33435 0.24119,1.64837 0.50568,0.66146 z m -1.59458,-2.11775 c -0.18907,-0.30592 -0.61366,0.29587 -0.60744,0.86098 0.003,0.30521 0.0921,0.28092 0.38434,-0.10513 0.209,-0.2761 0.30939,-0.61623 0.2231,-0.75585 z m 5.20092,-1.78485 c 0,-0.14553 -0.32742,-0.26276 -0.7276,-0.26054 -0.56699,0.003 -0.64,0.0607 -0.33073,0.26054 0.51767,0.33454 1.05833,0.33454 1.05833,0 z m 5.9605,-3.85966 c -0.21549,-0.4238 -0.68309,-1.12774 -1.03911,-1.5643 -0.57965,-0.71079 -0.667,-0.74331 -0.8358,-0.31111 -0.13918,0.35633 0.11083,0.78763 0.9553,1.64809 0.6291,0.64101 1.18153,1.12776 1.22761,1.08167 0.0461,-0.0461 -0.0925,-0.43054 -0.308,-0.85435 z m -3.18237,-2.22576 c 0.0899,-0.14552 0.0374,-0.26458 -0.11668,-0.26458 -0.15411,0 -0.2802,0.11906 -0.2802,0.26458 0,0.14552 0.0525,0.26458 0.11668,0.26458 0.0642,0 0.19026,-0.11906 0.2802,-0.26458 z m -1.80416,-2.08953 c 0.0406,-1.17416 -0.01,-1.33684 -0.33073,-1.07035 -0.26971,0.22384 -0.37865,0.22881 -0.37865,0.0173 0,-0.16334 -0.22355,-0.29698 -0.49677,-0.29698 -0.27323,0 -0.63912,-0.17152 -0.8131,-0.38115 -0.58806,-0.70857 -1.07201,-0.19166 -0.92394,0.98685 0.16532,1.31574 0.46304,1.70562 1.53948,2.01602 1.22744,0.35395 1.35133,0.24172 1.40371,-1.27167 z m 1.43705,-1.42612 c -0.21608,-0.21608 -0.29435,-0.18647 -0.29435,0.11134 0,0.52596 0.35579,0.88174 0.48727,0.48728 0.0558,-0.16735 -0.031,-0.43673 -0.19292,-0.59862 z m -15.86533,-2.37157 c -0.20024,-0.20025 -0.39327,-0.21479 -0.56546,-0.0426 -0.17219,0.17219 -0.0684,0.27597 0.30403,0.30403 0.42588,0.0321 0.49041,-0.0324 0.26143,-0.26143 z m -2.85948,-0.9808 c 0.22763,-1.13818 -0.4831,-2.61748 -1.88037,-3.91375 -1.669489,-1.54882 -1.965473,-1.48949 -1.86371,0.37359 0.0784,1.43538 0.118729,1.51048 0.963693,1.79467 0.509657,0.17141 1.068021,0.62793 1.322917,1.08162 0.242577,0.43176 0.53109,0.82495 0.64113,0.87376 0.11005,0.0488 0.13279,0.19764 0.0505,0.33073 -0.0823,0.13309 0.0212,0.24198 0.22987,0.24198 0.2087,0 0.44984,-0.35211 0.53594,-0.7826 z m 19.92976,-0.33413 c 0,-0.98539 -0.81825,-2.0514 -1.24617,-1.62348 -0.16097,0.16097 -0.2008,0.7253 -0.097,1.37437 0.14485,0.90585 0.27964,1.10126 0.75964,1.10126 0.48088,0 0.58354,-0.14992 0.58354,-0.85215 z m 4.58612,-1.75853 c 0,-0.2534 -1.97,-1.62265 -2.33457,-1.62265 -0.12609,0 -0.43506,-0.22742 -0.68661,-0.50538 -0.49753,-0.54976 -1.61582,-0.92634 -2.01615,-0.67892 -0.25678,0.1587 0.96475,1.44888 1.37179,1.44888 0.12428,0 0.22595,0.17859 0.22595,0.39687 0,0.21829 0.20836,0.4036 0.46302,0.41181 0.25466,0.008 0.87974,0.1726 1.38907,0.36531 1.13984,0.43127 1.5875,0.48318 1.5875,0.18408 z m -5.8925,-0.72417 c -0.0879,-0.0879 -0.31612,-0.0973 -0.50711,-0.0209 -0.21107,0.0845 -0.14838,0.14715 0.15985,0.15985 0.27891,0.0115 0.43518,-0.051 0.34726,-0.13896 z m -20.204665,-3.74276 c -0.09794,-0.40018 -0.308567,-0.81507 -0.468062,-0.92199 -0.178264,-0.11949 -0.111599,-0.19594 0.17303,-0.19843 0.254662,-0.002 0.463021,-0.13014 0.463021,-0.28425 0,-0.15411 -0.119063,-0.20662 -0.264583,-0.11668 -0.145521,0.0899 -0.264584,-0.0207 -0.264584,-0.24594 0,-0.68199 -0.867941,-1.47385 -1.615457,-1.47385 -0.557111,0 -0.733912,0.1519 -0.846887,0.7276 -0.07853,0.40019 -0.03845,0.83514 0.08906,0.96658 0.132884,0.13696 0.124601,0.43936 -0.0194,0.70843 -0.138188,0.25821 -0.181932,0.65011 -0.09721,0.87089 0.13654,0.35582 0.542389,0.45895 2.561082,0.65077 0.382558,0.0363 0.435532,-0.0884 0.28999,-0.68313 z m 3.739865,-0.33072 c -0.0899,-0.14553 -0.32517,-0.26459 -0.52273,-0.26459 -0.19757,0 -0.4788,-0.32742 -0.62496,-0.7276 -0.14616,-0.40018 -0.27514,-0.57203 -0.28663,-0.38187 -0.0161,0.2667 -0.15531,0.25158 -0.60893,-0.0661 -0.68896,-0.48257 -0.99946,-0.52246 -0.99946,-0.1284 0,0.38374 0.51973,0.87623 1.46391,1.38717 0.88095,0.47673 1.82861,0.58563 1.5788,0.18144 z m 15.21355,-3.175 c -0.15576,-0.29105 -0.47606,-0.52917 -0.71178,-0.52917 -0.37827,0 -0.37236,0.0621 0.0503,0.52917 0.26339,0.29104 0.58369,0.52916 0.71177,0.52916 0.12809,0 0.10545,-0.23812 -0.0503,-0.52916 z m -1.32292,-0.66361 c 0,-0.0739 -0.46871,-0.32197 -1.04158,-0.55119 -0.69965,-0.27994 -0.99436,-0.53981 -0.89773,-0.7916 0.0791,-0.20617 0.012,-0.37485 -0.14905,-0.37485 -0.16109,0 -0.29289,0.24387 -0.29289,0.54193 0,0.35837 0.29128,0.66855 0.85989,0.91569 0.88864,0.38624 1.52136,0.49438 1.52136,0.26002 z m -2.91042,-1.99784 c 0,-0.13694 -0.11906,-0.24897 -0.26458,-0.24897 -0.14552,0 -0.26458,0.18562 -0.26458,0.41249 0,0.22687 0.11906,0.3389 0.26458,0.24897 0.14552,-0.0899 0.26458,-0.27556 0.26458,-0.41249 z m -10.84792,34.67603 c 0,-0.14552 0.11906,-0.26458 0.26458,-0.26458 0.14553,0 0.26459,0.11906 0.26459,0.26458 0,0.14552 -0.11906,0.26458 -0.26459,0.26458 -0.14552,0 -0.26458,-0.11906 -0.26458,-0.26458 z m -2.18876,-2.13415 c 0.0932,-0.3566 0.23301,-0.4566 0.40197,-0.28764 0.27387,0.27387 0.0584,0.83429 -0.32072,0.83429 -0.12331,0 -0.15987,-0.24599 -0.0812,-0.54665 z m -1.622165,-0.11974 c -0.442468,-0.33155 -0.452378,-0.39705 -0.0816,-0.53933 0.232118,-0.0891 0.613545,-0.12212 0.847625,-0.0734 0.35778,0.0744 0.37078,0.16035 0.0816,0.53934 -0.30205,0.39585 -0.40539,0.4048 -0.847625,0.0734 z m 21.716475,-1.09542 c -0.10024,-0.10025 -0.88522,-0.15358 -1.74439,-0.11851 -1.40356,0.0573 -1.58083,0.005 -1.74621,-0.51621 -0.11176,-0.35211 -0.0584,-0.65759 0.1357,-0.77758 0.43192,-0.26694 2.14126,0.13985 2.41734,0.57529 0.15591,0.24589 0.22303,0.25527 0.22588,0.0316 0.002,-0.17506 0.45054,-0.44229 0.99624,-0.59384 1.30727,-0.36305 1.51276,-0.34947 1.15917,0.0766 -0.16208,0.19529 -0.21914,0.43061 -0.12682,0.52294 0.0923,0.0923 -0.0575,0.25128 -0.33302,0.35323 -0.27549,0.10195 -0.56856,0.28514 -0.65126,0.40708 -0.0827,0.12194 -0.23238,0.13969 -0.33263,0.0394 z m -30.731425,-4.0448 c -0.486054,-1.07787 -0.388316,-1.99351 0.192161,-1.80024 0.181824,0.0605 0.367326,0.33833 0.412227,0.61732 0.0449,0.27898 0.152084,0.68583 0.238186,0.90411 0.627955,1.59196 -0.136376,1.84488 -0.842574,0.27881 z m -0.599725,-3.58938 c -0.170046,-0.55406 -0.185611,-0.98246 -0.03899,-1.07308 0.13423,-0.083 0.172331,-0.26688 0.08467,-0.40872 -0.08766,-0.14184 -0.01549,-0.43127 0.160373,-0.64318 0.175867,-0.2119 0.231955,-0.38528 0.12464,-0.38528 -0.107315,0 0.0057,-0.30653 0.251199,-0.68117 0.33194,-0.5066 0.385373,-0.86258 0.208504,-1.38906 -0.130798,-0.38934 -0.161823,-1.00555 -0.06894,-1.36935 l 0.168869,-0.66146 0.318022,0.58447 c 0.469721,0.86327 0.531304,2.73209 0.122811,3.72686 -0.196886,0.47946 -0.373496,1.28461 -0.392466,1.78922 -0.05102,1.357 -0.58911,1.64978 -0.938688,0.51075 z"
       id="path9" />
  </g>
</svg>
