<?xml version="1.0" encoding="UTF-8" standalone="no"?>
<!-- Created with Inkscape (http://www.inkscape.org/) -->

<svg
   width="29.994328mm"
   height="19.78813mm"
   viewBox="0 0 29.994327 19.788128"
   version="1.1"
   id="svg1"
   inkscape:version="1.4.1-rc (06eac75fbf, 2025-03-29)"
   sodipodi:docname="city6.svg"
   xmlns:inkscape="http://www.inkscape.org/namespaces/inkscape"
   xmlns:sodipodi="http://sodipodi.sourceforge.net/DTD/sodipodi-0.dtd"
   xmlns="http://www.w3.org/2000/svg"
   xmlns:svg="http://www.w3.org/2000/svg">
  <sodipodi:namedview
     id="namedview1"
     pagecolor="#ffffff"
     bordercolor="#000000"
     borderopacity="0.25"
     inkscape:showpageshadow="2"
     inkscape:pageopacity="0.0"
     inkscape:pagecheckerboard="0"
     inkscape:deskcolor="#d1d1d1"
     inkscape:document-units="mm"
     inkscape:zoom="1.0217435"
     inkscape:cx="56.765714"
     inkscape:cy="37.68069"
     inkscape:window-width="1850"
     inkscape:window-height="1016"
     inkscape:window-x="0"
     inkscape:window-y="0"
     inkscape:window-maximized="1"
     inkscape:current-layer="layer1" />
  <defs
     id="defs1" />
  <g
     inkscape:label="Layer 1"
     inkscape:groupmode="layer"
     id="layer1"
     transform="translate(-91.810413,-138.90624)">
    <path
       style="fill:#000000"
       d="m 113.66851,158.49136 c -0.21828,-0.14434 -1.25305,-0.26426 -2.29949,-0.26649 -1.04643,-0.002 -1.9762,-0.12311 -2.06613,-0.26863 -0.0899,-0.14552 -1.04947,-0.26458 -2.13228,-0.26458 -1.21898,0 -1.96876,-0.10756 -1.96876,-0.28242 0,-0.162 0.2256,-0.2108 0.52916,-0.11446 0.36824,0.11688 0.52917,0.0476 0.52917,-0.22797 0,-0.4395 -2.99288,-0.73421 -7.077611,-0.69695 -2.15277,0.0196 -2.18281,0.0109 -2.18281,-0.63645 0,-0.91955 -0.39642,-1.06188 -0.88418,-0.31746 -0.29985,0.45762 -0.72433,0.66257 -1.5503,0.74854 -1.1463,0.1193 -2.54375,-0.19738 -2.23472,-0.50641 0.0917,-0.0917 0.0266,-0.33555 -0.14473,-0.54193 -0.2409,-0.29027 -0.2327,-0.42389 0.0362,-0.59008 0.19118,-0.11816 0.2646,-0.34915 0.16314,-0.51331 -0.10146,-0.16417 -0.30719,-0.22264 -0.45717,-0.12995 -0.16624,0.10274 -0.15547,-0.0505 0.0276,-0.39256 0.20318,-0.37965 0.55608,-0.56109 1.09128,-0.56109 1.01181,0 1.30706,-0.71675 1.30706,-3.17302 0,-1.63833 0.0669,-1.8683 0.68519,-2.35463 0.87085,-0.68501 1.5821,-2.07802 1.95108,-3.82125 0.38662,-1.82661 1.079,-3.61569 1.39927,-3.61569 0.14271,0 0.19826,0.32024 0.12344,0.71163 -0.13342,0.69797 0.47663,5.48359 0.75682,5.93694 0.24806,0.40139 0.64045,0.24944 0.64045,-0.248 0,-1.06603 0.670121,-1.50578 2.294631,-1.50578 h 1.54183 l 0.13229,-1.31672 c 0.10084,-1.00366 0.26712,-1.38356 0.69938,-1.59783 0.98277,-0.48715 1.31999,-0.88373 1.68062,-1.97645 0.19279,-0.58417 0.43142,-1.06212 0.5303,-1.06212 0.23295,0 0.79387,1.23143 0.79387,1.74286 0,0.21727 0.49427,0.85144 1.09838,1.40926 0.99814,0.92164 1.08419,1.10176 0.94274,1.97338 -0.12581,0.77528 -0.0574,1.01175 0.35682,1.23344 0.4316,0.23098 0.51247,0.56506 0.51247,2.11704 0,1.52072 0.0748,1.84277 0.42774,1.84277 0.30403,0 0.38578,-0.16042 0.28268,-0.55469 -0.21098,-0.80677 0.022,-1.2163 1.05491,-1.8547 1.12626,-0.69607 1.37556,-1.31453 1.57376,-3.90406 0.0851,-1.11151 0.20904,-2.11022 0.27549,-2.21936 0.36384,-0.59758 0.56011,0.0589 0.67514,2.25803 0.13668,2.61296 0.47439,3.62696 1.2097,3.63214 0.25065,0.002 1.07827,0.83396 1.84926,1.85949 1.3071,1.73864 1.39263,1.94559 1.3495,3.26536 -0.0253,0.77498 0.0313,1.53423 0.12586,1.6872 0.0975,0.15785 0.61244,0.21905 1.19054,0.14151 0.77203,-0.10355 1.05748,-0.0354 1.17902,0.28129 0.20878,0.54408 -0.26586,0.8305 -0.73333,0.44253 -0.29273,-0.24294 -0.33771,-0.20016 -0.22853,0.21734 0.0748,0.28591 0.39282,0.59343 0.70679,0.68339 0.53548,0.15343 0.52167,0.18476 -0.2229,0.50555 -0.77196,0.33259 -3.00989,0.3886 -3.49705,0.0875 -0.30922,-0.19111 -2.20378,0.45201 -2.27219,0.77131 -0.0284,0.13243 1.04973,0.27501 2.3958,0.31685 2.56533,0.0797 3.34817,0.49859 1.19062,0.63703 -1.0535,0.0676 -1.25677,0.16623 -1.25677,0.60981 0,0.47229 -0.19907,0.53648 -1.85208,0.59721 -1.01865,0.0374 -2.03068,-0.05 -2.24896,-0.19438 z m -0.13151,-1.59472 c 0.30971,-0.50112 -0.80008,-0.83024 -3.03375,-0.89967 -2.24765,-0.0699 -3.24062,0.16387 -2.27321,0.53511 1.1753,0.451 5.08745,0.71975 5.30696,0.36456 z m -7.87905,-1.76393 c 0.0508,-0.1523 -0.46442,-0.35321 -1.14487,-0.44648 -1.94706,-0.26687 -6.719571,-0.20297 -6.719571,0.09 0,0.398 0.91866,0.52994 4.233341,0.60804 3.64198,0.0858 3.51574,0.0946 3.6311,-0.25153 z m -11.157481,-0.10994 c 0.27266,-0.44117 -0.34058,-0.94708 -0.70557,-0.58208 -0.30531,0.30531 -0.11423,0.86972 0.29445,0.86972 0.12834,0 0.31335,-0.12944 0.41112,-0.28764 z m 15.679771,-0.586 c 0.22707,-0.47376 0.6293,-0.7903 1.132,-0.89084 0.42888,-0.0858 0.84386,-0.25964 0.92218,-0.38636 0.32974,-0.53353 0.64006,-0.162 0.63629,0.76177 -0.003,0.73803 -0.0697,0.89053 -0.26053,0.59532 -0.14107,-0.21828 -0.2583,-0.26263 -0.26053,-0.0986 -0.005,0.33278 0.7397,1.03048 0.91365,0.85654 0.0611,-0.0611 0.14756,-1.41589 0.19204,-3.01056 0.0722,-2.58816 0.0312,-2.90898 -0.38194,-2.98861 -0.25455,-0.0491 -0.77662,0.15762 -1.16016,0.45932 -0.87032,0.68459 -1.21129,0.68822 -1.8166,0.0194 -0.57614,-0.63663 -1.07637,-0.67939 -1.29461,-0.11066 -0.22342,0.58223 -0.20216,5.27257 0.0249,5.49966 0.3584,0.3584 1.00461,0.0211 1.35328,-0.70639 z m 9.17797,0.078 c 0.26637,-0.431 -0.5954,-0.61338 -3.01087,-0.63721 -1.95861,-0.0193 -2.2803,0.0407 -2.36036,0.44064 -0.0833,0.41632 0.17457,0.46302 2.55693,0.46302 1.4934,0 2.72148,-0.11627 2.8143,-0.26645 z m -12.02466,-0.98281 c 0.58046,-0.24564 0.67254,-0.44386 0.64864,-1.39638 -0.0365,-1.45557 -0.73192,-1.93816 -1.24512,-0.86409 -0.3972,0.83131 -1.44886,1.13223 -1.69701,0.48558 -0.0877,-0.22849 -0.32527,-0.41543 -0.52798,-0.41543 -0.45508,0 -0.47399,0.31791 -0.0445,0.74743 0.25575,0.25575 0.2506,0.4418 -0.0244,0.88213 -0.27691,0.44341 -0.28064,0.59996 -0.0181,0.76219 0.43681,0.26997 2.06021,0.15754 2.90846,-0.20143 z m -9.538321,-0.86741 c 0.11946,-0.82546 0.21286,-0.91777 0.8599,-0.84988 0.39924,0.0419 0.72588,-0.0474 0.72588,-0.19844 0,-0.15102 0.11906,-0.27459 0.26459,-0.27459 0.465191,0 0.28348,0.92455 -0.27585,1.40345 -0.62915,0.5387 -0.46074,1.09038 0.22197,0.72711 0.24791,-0.13192 0.657781,-0.30383 0.910811,-0.38202 0.37744,-0.11663 0.41308,-0.26574 0.19844,-0.83029 -0.35633,-0.93722 -0.34496,-0.96689 0.33369,-0.87051 0.47819,0.0679 0.61147,0.27975 0.67743,1.07674 0.16087,1.94378 0.57934,0.95172 0.57934,-1.37345 0,-2.37195 -0.32262,-3.23915 -0.76864,-2.06605 -0.20191,0.53109 -0.3821,0.61047 -1.17539,0.51786 -0.829301,-0.0968 -0.946211,-0.20503 -1.017801,-0.94205 -0.0948,-0.97568 -0.8286,-1.15681 -0.95925,-0.23678 -0.11603,0.81702 -0.88894,1.19333 -1.76606,0.85985 -0.38209,-0.14527 -0.62932,-0.36992 -0.5494,-0.49922 0.19612,-0.31733 -0.55102,-0.91208 -0.88583,-0.70515 -0.14909,0.0922 -0.2554,1.17974 -0.24144,2.47017 0.0297,2.74357 0.34386,3.30018 1.79404,3.17828 0.85195,-0.0716 0.95206,-0.16534 1.07357,-1.00503 z m 17.821141,-0.66122 c -0.0659,-0.17178 0.0642,-0.46505 0.28906,-0.6517 0.2249,-0.18665 0.40892,-0.74151 0.40892,-1.23302 0,-0.4915 0.11906,-0.89364 0.26458,-0.89364 0.14552,0 0.26458,0.23812 0.26458,0.52917 0,0.29104 0.11906,0.52916 0.26459,0.52916 0.40821,0 0.31286,-0.95347 -0.1323,-1.32291 -0.21828,-0.18116 -0.39687,-0.50332 -0.39687,-0.71591 0,-0.21259 -0.14883,-0.33748 -0.33073,-0.27753 -0.19178,0.0632 -0.36401,0.67478 -0.40996,1.45571 -0.0451,0.7673 -0.24435,1.48377 -0.46302,1.66525 -0.3965,0.32906 -0.52109,1.35115 -0.20343,1.66881 0.24151,0.24151 0.5959,-0.35905 0.44458,-0.75339 z m -9.52284,-1.12471 c 0.2931,-1.01585 0.4776,-4.58797 0.30266,-5.85992 -0.19884,-1.44579 -0.75948,-1.79589 -1.48193,-0.92539 -0.53109,0.63993 -0.4121,5.29845 0.15124,5.92093 0.23265,0.25708 0.40394,0.57162 0.38064,0.69897 -0.13575,0.74182 0.43873,0.8886 0.64739,0.16541 z m 1.75415,-1.38907 c 0,-0.14552 -0.11906,-0.26458 -0.26458,-0.26458 -0.14553,0 -0.26459,0.11906 -0.26459,0.26458 0,0.14552 0.11906,0.26459 0.26459,0.26459 0.14552,0 0.26458,-0.11907 0.26458,-0.26459 z m 6.9912,-0.87564 c 0.44233,-0.70124 -0.13714,-1.35972 -1.28177,-1.45653 -1.73941,-0.14713 -2.45886,1.11513 -0.81172,1.42414 0.51093,0.0959 0.99809,0.28612 1.08258,0.42283 0.20647,0.33407 0.66581,0.15666 1.01091,-0.39044 z m -13.87037,-0.26931 c 0,-0.17599 0.28829,-0.49639 0.64064,-0.71199 0.61395,-0.37569 0.62465,-0.42987 0.25679,-1.30082 -0.32651,-0.77305 -0.4355,-0.85209 -0.72966,-0.52916 -0.44744,0.4912 -1.03443,2.56115 -0.8232,2.90293 0.20095,0.32514 0.65543,0.0748 0.65543,-0.36096 z m -3.140681,-0.58046 c 0.1067,-1.12798 -0.0457,-2.7725 -0.25702,-2.7725 -0.25294,0 -0.83563,1.78334 -0.83563,2.55746 0,0.61131 0.55118,1.23052 0.83906,0.94264 0.11224,-0.11223 0.22635,-0.43966 0.25359,-0.7276 z m 8.464321,-5.3094 c -0.002,-0.13268 -0.19776,-0.28143 -0.43456,-0.33057 -0.48716,-0.10108 -1.50705,0.7082 -1.30483,1.03539 0.16448,0.26615 1.74489,-0.37425 1.73939,-0.70482 z m 0.76178,-1.16725 c 0,-0.14552 -0.11906,-0.26458 -0.26458,-0.26458 -0.14553,0 -0.26459,0.11906 -0.26459,0.26458 0,0.14552 0.11906,0.26458 0.26459,0.26458 0.14552,0 0.26458,-0.11906 0.26458,-0.26458 z"
       id="path2" />
  </g>
</svg>
