<?xml version="1.0" encoding="UTF-8" standalone="no"?>
<!-- Created with Inkscape (http://www.inkscape.org/) -->

<svg
   width="31.205416mm"
   height="17.750116mm"
   viewBox="0 0 31.205415 17.750115"
   version="1.1"
   id="svg1"
   inkscape:version="1.4.1-rc (06eac75fbf, 2025-03-29)"
   sodipodi:docname="city5b.svg"
   xmlns:inkscape="http://www.inkscape.org/namespaces/inkscape"
   xmlns:sodipodi="http://sodipodi.sourceforge.net/DTD/sodipodi-0.dtd"
   xmlns="http://www.w3.org/2000/svg"
   xmlns:svg="http://www.w3.org/2000/svg">
  <sodipodi:namedview
     id="namedview1"
     pagecolor="#ffffff"
     bordercolor="#000000"
     borderopacity="0.25"
     inkscape:showpageshadow="2"
     inkscape:pageopacity="0.0"
     inkscape:pagecheckerboard="0"
     inkscape:deskcolor="#d1d1d1"
     inkscape:document-units="mm"
     inkscape:zoom="1.0217435"
     inkscape:cx="58.723153"
     inkscape:cy="33.765813"
     inkscape:window-width="1850"
     inkscape:window-height="1016"
     inkscape:window-x="0"
     inkscape:window-y="0"
     inkscape:window-maximized="1"
     inkscape:current-layer="layer1" />
  <defs
     id="defs1" />
  <g
     inkscape:label="Layer 1"
     inkscape:groupmode="layer"
     id="layer1"
     transform="translate(-91.281246,-139.96457)">
    <path
       style="fill:#000000"
       d="m 109.60831,157.53088 c -0.26017,-0.1456 -1.21017,-0.25631 -2.1111,-0.24602 -2.7578,0.0315 -10.096596,0.0558 -10.237016,0.0339 -0.0728,-0.0113 0.1307,-0.22635 0.45213,-0.47777 0.45377,-0.35495 0.60164,-0.78245 0.66146,-1.91235 l 0.077,-1.45521 -3.34132,-0.0307 c -3.43357,-0.0315 -4.15857,-0.17241 -3.70775,-0.72048 0.45036,-0.54751 0.65921,-2.78742 0.30022,-3.21997 -0.27443,-0.33066 -0.1788,-0.45651 0.59142,-0.77833 1.2505,-0.52249 2.40972,-2.9669 3.01559,-6.35888 0.64069,-3.58697 1.04944,-3.2298 1.81195,1.58334 0.54416,3.43483 0.67481,3.9016 1.27758,4.56419 0.42646,0.46879 0.5459,0.97058 0.56157,2.35921 0.0131,1.15603 0.13331,1.80157 0.34901,1.87347 0.42899,0.14298 0.861516,-1.01989 0.861516,-2.31619 0,-0.56402 0.11907,-1.09907 0.26459,-1.18901 0.14552,-0.0899 0.26723,-0.42439 0.27046,-0.74322 0.008,-0.75262 0.70924,-1.6073 1.74726,-2.12847 0.99988,-0.50202 1.68097,-2.02299 1.88343,-4.20592 0.14369,-1.54934 0.48911,-2.00133 0.7077,-0.92604 0.0665,0.32742 0.19416,1.42783 0.28356,2.44534 0.15561,1.77114 0.21238,1.89525 1.33139,2.91042 0.73497,0.66678 1.25165,1.40413 1.39194,1.98643 0.36131,1.49969 0.99761,1.20202 0.91264,-0.42695 -0.0498,-0.95432 0.0477,-1.45113 0.33073,-1.68604 0.22072,-0.18318 0.4013,-0.45963 0.4013,-0.61433 0,-0.15471 0.24202,-0.53889 0.53781,-0.85375 0.30621,-0.32594 0.66813,-1.27327 0.84045,-2.19986 0.37061,-1.99288 0.93776,-2.19219 1.05464,-0.37063 0.0799,1.24456 0.0896,1.25677 1.00669,1.25677 0.8791,0 0.9302,-0.0503 1.00816,-0.99219 0.11898,-1.43764 0.74676,-1.29252 0.80267,0.18555 0.0955,2.52384 0.84724,3.13577 2.14527,1.74621 0.54574,-0.58421 0.78843,-1.19904 0.96605,-2.44739 0.13047,-0.91695 0.35628,-1.66718 0.50181,-1.66718 0.14552,0 0.32761,0.65484 0.40466,1.45521 0.17563,1.8246 0.69852,2.88417 1.69376,3.43223 1.01176,0.55716 1.42311,1.71333 0.83914,2.3586 -0.57079,0.63072 -0.53145,1.58231 0.10514,2.54354 0.41224,0.62246 0.52742,1.25054 0.53374,2.91042 0.004,1.16416 0.11009,2.55585 0.23481,3.09264 0.27607,1.18826 0.28654,1.18368 -2.61588,1.14244 l -2.24421,-0.0319 -0.19744,-1.15657 c -0.1086,-0.63612 -0.31405,-1.27318 -0.45656,-1.4157 -0.45302,-0.45301 -1.04219,0.33023 -1.12723,1.49855 -0.0716,0.98397 -0.15938,1.11296 -0.80796,1.18759 -0.74733,0.086 -1.0105,-0.31542 -0.36835,-0.56184 0.19759,-0.0758 0.43713,-0.52723 0.53231,-1.00313 0.28591,-1.42952 1.6298,-2.40501 2.15115,-1.56146 0.0899,0.14552 0.27556,0.26459 0.41249,0.26459 0.46503,0 0.2514,-0.6299 -0.47864,-1.41128 l -0.7276,-0.77877 0.8451,0.15941 c 0.92941,0.17531 1.04063,0.0189 1.18989,-1.67353 l 0.0817,-0.92604 -1.32292,0.0232 c -2.95097,0.0517 -5.73554,0.34791 -6.0979,0.64864 -0.29312,0.24327 -0.38439,1.00393 -0.38439,3.20358 0,2.85295 0.007,2.8874 0.67868,3.14261 0.37328,0.14191 0.84303,0.25803 1.0439,0.25803 0.34443,0 0.96669,-0.88785 1.3444,-1.91823 0.0934,-0.25466 0.27491,-0.46302 0.40346,-0.46302 0.38737,0 0.26261,1.23415 -0.16024,1.58508 -0.21668,0.17983 -0.3338,0.42431 -0.26027,0.54328 0.0735,0.11898 0.002,0.29775 -0.15908,0.39727 -0.48824,0.30175 -3.53099,0.3595 -4.03648,0.0766 z m -5.87451,-1.52713 c 0.56652,-1.09553 0.8331,-1.1835 1.70497,-0.56267 0.9648,0.68699 2.13967,0.73246 2.14139,0.0829 6.7e-4,-0.25466 0.36698,-0.85327 0.81401,-1.33024 l 0.81279,-0.86723 -0.61558,-0.49889 c -0.70355,-0.5702 -1.30093,-0.29645 -1.09249,0.50062 0.17529,0.67029 -0.50977,0.94723 -2.3012,0.93028 -1.31435,-0.0124 -1.48862,-0.0831 -1.80038,-0.73014 -0.47491,-0.98566 -1.80173,-1.01926 -2.16837,-0.0549 -0.24577,0.64641 -0.36915,0.71142 -1.455206,0.76678 -0.43761,0.0223 -0.51705,0.18719 -0.45911,0.95301 0.11754,1.55377 0.16352,1.5875 2.163796,1.5875 1.78305,0 1.86889,-0.0296 2.25538,-0.77697 z m 16.49581,-1.41127 c 0.0485,-0.25168 -0.0397,-0.45759 -0.19586,-0.45759 -0.15619,0 -0.28398,0.11906 -0.28398,0.26458 0,0.14552 -0.11906,0.26459 -0.26458,0.26459 -0.14552,0 -0.26459,-0.35719 -0.26459,-0.79375 0,-0.43657 -0.11906,-0.79375 -0.26458,-0.79375 -0.14552,0 -0.26458,0.46911 -0.26458,1.04248 0,0.97352 0.048,1.03879 0.72502,0.98675 0.4477,-0.0344 0.75874,-0.23076 0.81315,-0.51331 z m -15.03192,-1.6159 c 0,-0.55965 -0.72113,-2.15852 -1.1092,-2.45928 -0.51877,-0.40206 -2.49721,-0.10398 -3.00041,0.45205 -0.66047,0.72982 -0.25255,1.04887 1.341,1.04887 1.23709,0 1.49287,0.0906 1.8669,0.66146 0.47587,0.72628 0.90171,0.86649 0.90171,0.2969 z m -8.543166,-1.7522 c 0.06,-1.42366 -0.12647,-1.64132 -0.66607,-0.77729 -0.67114,1.07467 -2.51324,0.20702 -2.06125,-0.97086 0.17894,-0.4663 0.22048,-0.45794 0.66727,0.13438 0.48432,0.64208 1.07822,0.57637 1.07822,-0.1193 0,-0.20846 0.23812,-0.52773 0.52916,-0.70949 0.52509,-0.32792 0.69771,-1.00478 0.34596,-1.35653 -0.10076,-0.10076 -0.22323,-0.44548 -0.27215,-0.76604 -0.1827,-1.19717 -0.57634,-1.06494 -1.25653,0.42211 -0.37501,0.81987 -1.02163,1.74188 -1.43692,2.04892 -0.56737,0.41948 -0.7957,0.85463 -0.91849,1.75048 -0.0899,0.65573 -0.0975,1.29897 -0.0168,1.42943 0.0806,0.13046 1.00278,0.23716 2.04921,0.2371 l 1.90262,-9e-5 z m 13.437956,0.13238 c 0,-0.35506 -0.20591,-0.55829 -0.62583,-0.61771 -0.85187,-0.12053 -1.28128,0.33779 -0.82809,0.88385 0.48275,0.58168 1.45392,0.40391 1.45392,-0.26614 z m 10.18646,-0.85044 c 0,-0.6617 -0.0337,-0.68449 -0.42818,-0.28997 -0.2355,0.2355 -0.34754,0.55866 -0.24897,0.71815 0.3247,0.52538 0.67715,0.30252 0.67715,-0.42818 z m -21.960416,-0.48809 c 0,-0.20969 -0.11906,-0.38126 -0.26458,-0.38126 -0.14552,0 -0.26459,0.24515 -0.26459,0.54478 0,0.29963 0.11907,0.4712 0.26459,0.38126 0.14552,-0.0899 0.26458,-0.33508 0.26458,-0.54478 z m 8.466666,-0.38126 c 0,-0.14552 -0.1786,-0.26458 -0.39688,-0.26458 -0.21828,0 -0.39687,0.11906 -0.39687,0.26458 0,0.14552 0.17859,0.26459 0.39687,0.26459 0.21828,0 0.39688,-0.11907 0.39688,-0.26459 z m 7.01991,-0.5558 c 0.1971,-0.62102 -0.2039,-1.18742 -0.64686,-0.91365 -0.1582,0.0978 -0.28764,0.4684 -0.28764,0.82361 0,0.80011 0.68809,0.86641 0.9345,0.09 z m 4.34786,-0.22055 c 0.73984,-1.3824 -0.0381,-2.65208 -1.05888,-1.72827 -0.50015,0.45263 -0.7073,1.69927 -0.34292,2.06365 0.3518,0.3518 1.13422,0.1646 1.4018,-0.33538 z M 104.2194,148.3802 c 0.52745,-0.40018 0.96334,-0.81212 0.96864,-0.91542 0.005,-0.1033 -0.46121,-0.32889 -1.03669,-0.50131 -0.88832,-0.26614 -1.14805,-0.24685 -1.7198,0.12777 -0.63709,0.41745 -0.90989,1.42735 -0.49706,1.84018 0.38095,0.38095 1.37112,0.14208 2.28491,-0.55122 z m 15.38411,0.17584 c -0.0852,-0.13784 -0.26767,-0.18091 -0.4055,-0.0957 -0.13784,0.0852 -0.18092,0.26767 -0.0957,0.40551 0.0852,0.13784 0.26767,0.18092 0.40551,0.0957 0.13783,-0.0852 0.18091,-0.26767 0.0957,-0.40551 z m -7.79124,-0.90344 c 0,-0.21828 -0.11906,-0.39688 -0.26458,-0.39688 -0.14552,0 -0.26459,0.1786 -0.26459,0.39688 0,0.21828 0.11907,0.39687 0.26459,0.39687 0.14552,0 0.26458,-0.17859 0.26458,-0.39687 z m 1.3196,-1.46141 c -0.16118,-0.30117 -0.43168,-0.44097 -0.6736,-0.34813 -0.35614,0.13666 -0.35145,0.21348 0.0394,0.64536 0.54677,0.60418 1.00235,0.39066 0.6342,-0.29723 z m 1.99409,0.54067 c 0.6752,0.56037 0.71026,0.11662 0.07,-0.88632 -0.68005,-1.06532 -1.00246,-1.21454 -1.00246,-0.46395 0,0.27892 -0.14048,0.55395 -0.31218,0.61118 -0.18339,0.0611 -0.23668,0.30083 -0.12917,0.58101 0.14926,0.38895 0.25568,0.41666 0.57677,0.15018 0.31289,-0.25967 0.47656,-0.25805 0.79702,0.008 z m -3.31369,-0.26989 c 0,-0.14552 -0.0525,-0.26458 -0.11668,-0.26458 -0.0642,0 -0.19026,0.11906 -0.28019,0.26458 -0.0899,0.14552 -0.0374,0.26459 0.11667,0.26459 0.15411,0 0.2802,-0.11907 0.2802,-0.26459 z m 6.68505,-0.4499 c 0.33861,-0.19344 -0.0693,-0.60843 -0.59802,-0.60843 -0.81181,0 -1.89846,0.50726 -1.71669,0.80137 0.15303,0.24761 1.78106,0.1119 2.31471,-0.19294 z m 1.38474,-0.0793 c 0.0899,-0.14552 -0.0291,-0.26459 -0.26458,-0.26459 -0.23546,0 -0.35452,0.11907 -0.26458,0.26459 0.0899,0.14552 0.20899,0.26458 0.26458,0.26458 0.0556,0 0.17465,-0.11906 0.26458,-0.26458 z m -6.32244,-0.98668 c -0.26895,-0.26895 -0.49086,0.13597 -0.27019,0.49302 0.16669,0.26972 0.22901,0.26993 0.31863,0.001 0.0613,-0.18383 0.0395,-0.40617 -0.0484,-0.49409 z m 1.16307,9.18876 c 0,-0.14552 0.12609,-0.26458 0.2802,-0.26458 0.1541,0 0.20661,0.11906 0.11667,0.26458 -0.0899,0.14552 -0.21602,0.26458 -0.2802,0.26458 -0.0642,0 -0.11667,-0.11906 -0.11667,-0.26458 z m -2.62406,-0.87781 c -0.44119,-0.44119 -0.3398,-1.19164 0.20003,-1.48055 0.67765,-0.36266 1.63028,-0.0601 1.63028,0.51776 0,0.6187 -1.42488,1.36823 -1.83031,0.96279 z m 3.21386,0.0344 c 0.16353,-0.4906 0.73311,-0.57197 0.73311,-0.10473 0,0.23041 -0.18851,0.41892 -0.41892,0.41892 -0.23041,0 -0.37179,-0.14138 -0.31419,-0.31419 z m 2.05603,-1.53789 c 0,-0.14552 0.11906,-0.26458 0.26458,-0.26458 0.14552,0 0.26459,0.11906 0.26459,0.26458 0,0.14552 -0.11907,0.26458 -0.26459,0.26458 -0.14552,0 -0.26458,-0.11906 -0.26458,-0.26458 z"
       id="path3" />
  </g>
</svg>
