<?xml version="1.0" encoding="UTF-8" standalone="no"?>
<!-- Created with Inkscape (http://www.inkscape.org/) -->

<svg
   width="25.759319mm"
   height="15.424354mm"
   viewBox="0 0 25.759319 15.424353"
   version="1.1"
   id="svg1"
   inkscape:version="1.4.1-rc (06eac75fbf, 2025-03-29)"
   sodipodi:docname="city4.svg"
   xmlns:inkscape="http://www.inkscape.org/namespaces/inkscape"
   xmlns:sodipodi="http://sodipodi.sourceforge.net/DTD/sodipodi-0.dtd"
   xmlns="http://www.w3.org/2000/svg"
   xmlns:svg="http://www.w3.org/2000/svg">
  <sodipodi:namedview
     id="namedview1"
     pagecolor="#ffffff"
     bordercolor="#000000"
     borderopacity="0.25"
     inkscape:showpageshadow="2"
     inkscape:pageopacity="0.0"
     inkscape:pagecheckerboard="0"
     inkscape:deskcolor="#d1d1d1"
     inkscape:document-units="mm"
     inkscape:zoom="0.72248176"
     inkscape:cx="48.444129"
     inkscape:cy="28.374419"
     inkscape:window-width="1850"
     inkscape:window-height="1016"
     inkscape:window-x="0"
     inkscape:window-y="0"
     inkscape:window-maximized="1"
     inkscape:current-layer="layer1" />
  <defs
     id="defs1" />
  <g
     inkscape:label="Layer 1"
     inkscape:groupmode="layer"
     id="layer1"
     transform="translate(-92.33958,-141.02291)">
    <path
       style="fill:#000000"
       d="m 112.64426,156.41278 c -0.0352,-0.0343 -2.50484,-0.14826 -5.48802,-0.25331 -2.98317,-0.10505 -6.0788,-0.2233 -6.87916,-0.26277 -3.49066,-0.17215 -5.77257,-0.18405 -6.01959,-0.0314 -0.2934,0.18134 -1.91791,-0.54306 -1.91791,-0.85523 0,-0.10764 0.35169,-0.53265 0.78154,-0.94447 0.42985,-0.41182 0.97122,-1.14847 1.20304,-1.637 0.23182,-0.48853 0.59551,-0.88823 0.8082,-0.88823 0.31133,0 0.32655,0.0963 0.0781,0.49411 -0.51327,0.82189 -0.0989,1.35344 1.08954,1.39766 0.58665,0.0218 1.19945,0.0516 1.36177,0.0661 0.18793,0.0169 0.33265,-0.76638 0.39842,-2.15635 0.0858,-1.81338 0.0359,-2.18281 -0.29513,-2.18281 -0.22485,0 -0.41598,0.25935 -0.43872,0.59531 -0.0222,0.32742 -0.0532,0.74121 -0.0691,0.91953 -0.0494,0.55638 -0.91875,1.26703 -1.20266,0.98312 -0.16692,-0.16692 -0.0143,-0.76566 0.43399,-1.70232 0.38031,-0.79466 0.7118,-1.62619 0.73665,-1.84784 0.0249,-0.22166 0.18589,-0.73819 0.35787,-1.14784 0.17198,-0.40966 0.3127,-1.02771 0.3127,-1.37345 0,-0.67358 0.39399,-1.09262 0.64517,-0.6862 0.0839,0.13577 0.21349,1.03998 0.28795,2.00936 0.2458,3.20001 1.42425,4.75151 1.71271,2.25489 0.0927,-0.80224 0.27967,-1.19621 0.62464,-1.31612 0.47235,-0.1642 1.21515,-1.79594 1.22346,-2.68766 0.005,-0.52363 0.99326,-1.82162 1.38711,-1.82162 0.15751,0 0.0774,0.23091 -0.17798,0.51313 -0.31167,0.34438 -0.494,1.06221 -0.55446,2.18281 -0.0852,1.57988 -0.13361,1.68752 -0.89955,2.00118 -0.44521,0.18231 -0.80939,0.42044 -0.80929,0.52916 1e-4,0.10873 1.22049,0.19768 2.71198,0.19768 2.23409,0 2.7118,-0.0699 2.7118,-0.39688 0,-0.23626 -0.29445,-0.43075 -0.7276,-0.48059 -0.86258,-0.0993 -0.92111,-0.3296 -0.19844,-0.78092 0.36503,-0.22796 0.52916,-0.61701 0.52916,-1.25427 0,-1.05665 -0.31612,-1.19786 -0.73541,-0.32848 -0.26121,0.54161 -0.28872,0.50359 -0.30501,-0.42165 -0.0138,-0.78585 -0.13817,-1.04841 -0.54708,-1.15534 -0.62539,-0.16354 -0.65059,-0.29189 -0.16681,-0.84958 0.19929,-0.22974 0.47462,-0.76745 0.61185,-1.19492 0.35018,-1.09085 0.87788,-1.18633 0.87788,-0.15885 0,0.8021 0.10749,0.94462 1.87617,2.48751 0.48209,0.42055 0.54098,0.67621 0.40022,1.73732 -0.1459,1.09988 -0.088,1.31656 0.49907,1.86811 0.78028,0.73303 0.84016,1.50498 0.20286,2.61541 -0.66575,1.16 -0.14726,1.62597 0.92615,0.83236 0.64581,-0.47747 0.84108,-0.89488 1.12664,-2.4083 0.18999,-1.0069 0.43949,-1.83072 0.55444,-1.83072 0.11496,0 0.29029,0.71846 0.38964,1.59657 0.11068,0.97827 0.38837,1.86067 0.71706,2.27852 0.4647,0.59078 0.49537,0.79549 0.22938,1.53107 -0.37526,1.03777 -0.38126,1.20842 -0.0425,1.20842 0.14552,0 0.26458,-0.29765 0.26458,-0.66146 0,-1.17313 1.41588,-0.60765 2.00423,0.80045 0.33942,0.81235 0.48198,0.8972 1.63124,0.97089 1.3947,0.0894 1.66401,0.53462 0.45057,0.7448 -0.43265,0.075 -0.77875,0.30173 -0.77875,0.51029 0,0.28609 -0.45683,0.38464 -1.92031,0.41424 -1.05618,0.0214 -1.94915,0.0108 -1.98438,-0.0235 z m 1.36673,-1.28086 c -0.0668,-0.0668 -0.68393,-0.15055 -1.37143,-0.18614 -0.68749,-0.0356 -1.24999,-0.13175 -1.25001,-0.2137 -1e-5,-0.082 -1.03294,-0.14583 -2.2954,-0.14196 -1.65187,0.005 -2.32776,0.10419 -2.41088,0.35356 -0.083,0.2491 0.13564,0.32488 0.77786,0.26955 0.49135,-0.0423 1.02973,0.007 1.1964,0.11032 0.16668,0.10301 0.46262,0.13189 0.65765,0.0642 0.19503,-0.0677 1.24758,-0.0322 2.33898,0.079 1.74452,0.17773 2.72946,0.0378 2.35683,-0.33484 z m -8.30995,-0.39852 c 0,-0.48199 1.72995,-1.37338 2.3088,-1.18965 0.3895,0.12362 0.46932,-0.0116 0.46932,-0.79492 0,-0.51913 -0.11906,-0.94387 -0.26458,-0.94387 -0.14552,0 -0.26459,0.17859 -0.26459,0.39687 0,0.50187 -0.12938,0.49766 -0.93535,-0.0304 -0.51106,-0.33486 -0.65215,-0.65353 -0.65215,-1.47303 0,-0.88713 -0.0723,-1.02278 -0.4769,-0.89437 -0.26229,0.0832 -0.70877,-0.024 -0.99218,-0.23834 -0.66974,-0.50651 -1.42738,-0.50493 -2.4498,0.005 -0.8424,0.42025 -1.03259,0.90655 -1.17776,3.01136 -0.0586,0.84941 0.003,0.92547 0.93272,1.15154 1.3289,0.32314 1.78267,0.10767 1.78267,-0.84647 0,-0.95193 0.33375,-1.20545 1.06894,-0.81199 0.43784,0.23432 0.53104,0.49441 0.45471,1.26901 l -0.096,0.97427 -4.48413,-0.062 c -2.46627,-0.0341 -4.81155,-0.13285 -5.21173,-0.21946 -0.55912,-0.121 -0.72761,-0.0582 -0.72761,0.27116 0,0.31663 0.25922,0.43194 0.99219,0.44135 3.30875,0.0425 7.29561,0.22793 7.41245,0.34477 0.29833,0.29833 2.31099,-0.016 2.31099,-0.36092 z m -2.73347,-3.7648 c 0.0482,-0.34037 0.26623,-0.61885 0.48451,-0.61885 0.57381,0 0.49476,1.03224 -0.0876,1.14439 -0.37573,0.0724 -0.46484,-0.0456 -0.39688,-0.52554 z m 7.89284,2.67684 c 0,-0.1519 0.20836,-0.24119 0.46302,-0.19843 0.31255,0.0525 0.46302,-0.0942 0.46302,-0.45143 0,-0.38058 -0.20429,-0.55267 -0.7276,-0.61288 -0.65377,-0.0752 -0.72761,-0.001 -0.72761,0.7276 0,0.44623 0.11907,0.81133 0.26459,0.81133 0.14552,0 0.26458,-0.12429 0.26458,-0.27619 z m -7.40833,-6.07381 c 0,-0.14552 0.29765,-0.26459 0.66146,-0.26459 0.3638,0 0.66145,0.11907 0.66145,0.26459 0,0.14552 -0.29765,0.26458 -0.66145,0.26458 -0.36381,0 -0.66146,-0.11906 -0.66146,-0.26458 z"
       id="path4" />
  </g>
</svg>
