<?xml version="1.0" encoding="UTF-8" standalone="no"?>
<!-- Created with Inkscape (http://www.inkscape.org/) -->

<svg
   width="15.81775mm"
   height="11.059273mm"
   viewBox="0 0 15.81775 11.059273"
   version="1.1"
   id="svg1"
   inkscape:version="1.4.1-rc (06eac75fbf, 2025-03-29)"
   sodipodi:docname="city1.svg"
   xmlns:inkscape="http://www.inkscape.org/namespaces/inkscape"
   xmlns:sodipodi="http://sodipodi.sourceforge.net/DTD/sodipodi-0.dtd"
   xmlns="http://www.w3.org/2000/svg"
   xmlns:svg="http://www.w3.org/2000/svg">
  <sodipodi:namedview
     id="namedview1"
     pagecolor="#ffffff"
     bordercolor="#000000"
     borderopacity="0.25"
     inkscape:showpageshadow="2"
     inkscape:pageopacity="0.0"
     inkscape:pagecheckerboard="0"
     inkscape:deskcolor="#d1d1d1"
     inkscape:document-units="mm"
     inkscape:zoom="0.72248176"
     inkscape:cx="333.57243"
     inkscape:cy="512.81571"
     inkscape:window-width="1850"
     inkscape:window-height="1016"
     inkscape:window-x="0"
     inkscape:window-y="0"
     inkscape:window-maximized="1"
     inkscape:current-layer="layer1" />
  <defs
     id="defs1" />
  <g
     inkscape:label="Layer 1"
     inkscape:groupmode="layer"
     id="layer1"
     transform="translate(-16.901097,-12.868832)">
    <path
       style="fill:#000000"
       d="m 28.410474,23.527275 c -1.74625,-0.20315 -5.05024,-0.37854 -7.34219,-0.38976 -3.405047,-0.0167 -4.167187,-0.0888 -4.167187,-0.39443 0,-0.20572 0.16402,-0.37403 0.36448,-0.37403 0.67362,0 0.91332,-0.64973 1.20513,-3.26669 0.32991,-2.95865 0.52454,-3.45043 1.582037,-3.99728 0.53518,-0.27675 0.80575,-0.66235 0.93018,-1.32565 0.21639,-1.15342 0.68067,-1.2322 0.68067,-0.1155 0,0.55038 0.24074,1.05048 0.73235,1.52136 0.40279,0.3858 0.94264,1.0309 1.19966,1.43354 0.66497,1.04174 1.38621,0.60263 1.62493,-0.9893 0.25976,-1.73216 0.94098,-1.44755 0.94098,0.39314 0,0.53037 0.22798,0.91643 0.76845,1.30128 0.89088,0.63436 1.34822,0.69745 1.34822,0.18599 0,-0.19866 0.24826,-0.67682 0.5517,-1.06258 0.30344,-0.38576 0.63233,-1.26502 0.73088,-1.95391 0.0985,-0.68889 0.29357,-1.193 0.43341,-1.12024 0.13983,0.0728 0.22113,0.38495 0.18067,0.69375 -0.0944,0.7203 0.86251,2.44717 1.76716,3.18911 0.56356,0.46219 0.63665,0.64199 0.37107,0.91281 -0.20712,0.21121 -0.33073,1.10362 -0.33073,2.38785 0,1.63276 0.0892,2.10052 0.43775,2.29558 0.55424,0.31017 0.28196,1.11529 -0.3633,1.07428 -0.25923,-0.0165 -1.90007,-0.19617 -3.64632,-0.39932 z m 0.57546,-1.16126 c 0.0288,-0.21661 0.1271,-0.96169 0.21845,-1.65573 0.10498,-0.79757 0.27027,-1.1975 0.44924,-1.0869 0.26398,0.16315 0.22909,-0.60616 -0.0792,-1.74597 -0.0667,-0.24654 0.11954,-0.42483 0.50492,-0.48342 0.67131,-0.10206 0.65508,-0.66477 -0.023,-0.7963 -0.72448,-0.14053 -2.03835,3.28859 -2.04132,5.32774 -0.001,0.81886 0.0862,0.99471 0.4585,0.923 0.25299,-0.0487 0.48355,-0.26581 0.51236,-0.48242 z m -4.29496,-1.00712 c 0.2941,-1.30558 0.75652,-1.48621 0.63133,-0.24661 -0.0808,0.79996 0.38272,1.4367 0.49166,0.67543 0.0271,-0.18959 0.12373,-0.91025 0.21465,-1.60148 0.10684,-0.81216 0.29447,-1.25677 0.53037,-1.25677 0.61416,0 0.73794,-0.53462 0.2489,-1.075 -0.58827,-0.65003 -1.08716,-0.64506 -2.18082,0.0217 -0.90474,0.55161 -0.95681,1.10169 -0.0827,0.87309 0.27447,-0.0718 0.57626,-0.006 0.67063,0.14712 0.099,0.16024 -0.196,0.37238 -0.69775,0.50171 -0.9211,0.23743 -1.30153,1.10013 -0.76842,1.7425 0.15061,0.18146 0.20122,0.60757 0.11249,0.9469 -0.1191,0.45543 -0.0643,0.58567 0.20951,0.49742 0.20396,-0.0657 0.48301,-0.61746 0.6201,-1.22604 z m -5.196957,0.69266 c 0.17462,-0.17463 0.317497,-0.56859 0.317497,-0.87548 0,-0.72016 0.77017,-1.72162 0.96471,-1.25442 0.25462,0.61147 0.62279,0.33776 0.62279,-0.46302 0,-0.61736 0.11759,-0.79375 0.52917,-0.79375 0.42519,0 0.52916,-0.17639 0.52916,-0.89773 0,-0.91734 -0.33268,-1.21894 -1.34455,-1.21894 -0.27914,0 -0.50753,-0.13257 -0.50753,-0.29461 0,-0.1778 0.31935,-0.24774 0.8054,-0.17641 1.00288,0.1472 1.28644,-0.22483 0.45879,-0.60193 -0.63672,-0.29011 -2.317817,0.10751 -1.96142,0.46392 0.0935,0.0934 0.01,0.41755 -0.186487,0.7202 -0.19603,0.30266 -0.42897,1.50822 -0.51764,2.67901 -0.0887,1.1708 -0.23911,2.33166 -0.33429,2.57969 -0.19991,0.52095 0.15998,0.59788 0.6244,0.13347 z m 11.694577,-0.87313 c 0,-0.21828 -0.11906,-0.39687 -0.26458,-0.39687 -0.14552,0 -0.26458,0.17859 -0.26458,0.39687 0,0.21828 0.11906,0.39688 0.26458,0.39688 0.14552,0 0.26458,-0.1786 0.26458,-0.39688 z m -1.05833,-0.54478 c 0,-0.22687 -0.11906,-0.33891 -0.26458,-0.24897 -0.14553,0.0899 -0.26459,0.27556 -0.26459,0.41249 0,0.13693 0.11906,0.24897 0.26459,0.24897 0.14552,0 0.26458,-0.18562 0.26458,-0.41249 z m 1.05833,-1.70418 c 0,-0.14552 -0.17859,-0.26458 -0.39687,-0.26458 -0.21828,0 -0.39688,0.11906 -0.39688,0.26458 0,0.14552 0.1786,0.26459 0.39688,0.26459 0.21828,0 0.39687,-0.11907 0.39687,-0.26459 z"
       id="path8" />
  </g>
</svg>
