<?xml version="1.0" encoding="UTF-8" standalone="no"?>
<!-- Created with Inkscape (http://www.inkscape.org/) -->

<svg
   width="21.909504mm"
   height="15.543388mm"
   viewBox="0 0 21.909504 15.543388"
   version="1.1"
   id="svg1"
   inkscape:version="1.4.1-rc (06eac75fbf, 2025-03-29)"
   sodipodi:docname="city3.svg"
   xmlns:inkscape="http://www.inkscape.org/namespaces/inkscape"
   xmlns:sodipodi="http://sodipodi.sourceforge.net/DTD/sodipodi-0.dtd"
   xmlns="http://www.w3.org/2000/svg"
   xmlns:svg="http://www.w3.org/2000/svg">
  <sodipodi:namedview
     id="namedview1"
     pagecolor="#ffffff"
     bordercolor="#000000"
     borderopacity="0.25"
     inkscape:showpageshadow="2"
     inkscape:pageopacity="0.0"
     inkscape:pagecheckerboard="0"
     inkscape:deskcolor="#d1d1d1"
     inkscape:document-units="mm"
     inkscape:zoom="0.72248176"
     inkscape:cx="41.52354"
     inkscape:cy="29.758537"
     inkscape:window-width="1850"
     inkscape:window-height="1016"
     inkscape:window-x="0"
     inkscape:window-y="0"
     inkscape:window-maximized="1"
     inkscape:current-layer="layer1" />
  <defs
     id="defs1" />
  <g
     inkscape:label="Layer 1"
     inkscape:groupmode="layer"
     id="layer1"
     transform="translate(-94.191665,-140.75833)">
    <path
       style="fill:#000000"
       d="m 94.235824,156.12522 c -0.16036,-0.25945 0.14647,-1.81365 0.4321,-2.18872 0.22303,-0.29289 0.66217,-2.80882 0.93518,-5.35782 0.0974,-0.9095 0.25962,-1.65364 0.36047,-1.65364 0.10085,0 0.41574,0.84827 0.69975,1.88505 0.5459,1.99277 0.9547,2.42398 1.6443,1.73438 0.38585,-0.38584 0.38052,-0.51293 -0.0626,-1.49569 l -0.48431,-1.07402 0.67929,-1.25246 c 0.64406,-1.18752 2.326656,-2.67985 3.042976,-2.69889 0.61607,-0.0164 0.3336,0.38575 -0.64432,0.91725 -0.53549,0.29104 -1.027576,0.69672 -1.093536,0.90151 -0.18743,0.58195 3.410916,0.18674 3.858086,-0.42373 0.46456,-0.63421 0.27932,-0.99216 -0.56503,-1.09181 -0.52523,-0.062 -0.68644,-0.20464 -0.59801,-0.52917 0.0666,-0.24436 0.20166,-0.92055 0.30015,-1.50263 0.0985,-0.58208 0.31601,-1.22397 0.48338,-1.42642 0.24057,-0.291 0.36028,-0.0417 0.57163,1.19063 l 0.26733,1.55871 1.06908,0.14271 c 1.31498,0.17555 2.98888,1.40519 3.18375,2.33876 0.0796,0.38144 0.25663,0.90027 0.39336,1.15296 0.3829,0.70762 0.29532,1.82853 -0.18428,2.35849 -0.4008,0.44287 -0.4008,0.49065 0,0.64445 0.82918,0.31819 1.12805,-0.0635 1.18806,-1.51723 0.10377,-2.51421 0.66154,-3.24668 0.89501,-1.17535 0.0723,0.64166 0.38546,1.69128 0.69586,2.33249 0.31041,0.64121 0.56437,1.49325 0.56437,1.89344 0,1.32033 0.4254,1.75115 1.7291,1.75115 0.69342,0 1.18132,0.12202 1.18132,0.29544 0,0.1625 -0.22922,0.2355 -0.50937,0.16224 -0.35734,-0.0934 -0.46735,-0.0237 -0.36857,0.23373 0.13011,0.33906 0.45391,0.47565 0.94408,0.39826 0.10914,-0.0172 0.19844,0.16184 0.19844,0.39794 0,0.33762 -0.0789,0.36374 -0.36984,0.12233 -0.29292,-0.24311 -0.48508,-0.16043 -0.92396,0.39751 l -0.55412,0.70445 -9.41241,0.0455 c -5.176816,0.025 -9.472826,-0.0523 -9.546676,-0.17179 z m 17.301276,-1.12794 c 0.91254,-0.32595 0.0582,-0.60868 -2.48761,-0.82325 -3.25145,-0.27404 -3.50908,-0.46023 -4.17278,-3.01566 -0.75769,-2.91731 -0.75202,-2.91042 -2.39504,-2.91042 -0.80396,0 -1.46175,-0.10372 -1.46175,-0.23049 0,-0.20993 1.92237,-0.60187 3.36354,-0.68577 0.7157,-0.0417 0.98123,-0.27687 0.74468,-0.65962 -0.23923,-0.38707 -4.48017,-0.0831 -5.649936,0.40489 -0.61642,0.25718 -0.84962,0.50753 -0.77804,0.83527 0.10705,0.49011 0.22291,0.51106 1.19528,0.21608 0.358326,-0.10871 0.595306,-0.0682 0.595306,0.10181 0,0.15533 -0.16402,0.28242 -0.36448,0.28242 -0.827276,0 -1.029206,0.72528 -0.791646,2.84337 l 0.23009,2.05142 h 1.173796 c 1.09403,0 1.18846,-0.0565 1.38932,-0.83169 0.25668,-0.99056 0.7074,-1.2188 1.56616,-0.79307 0.42325,0.20982 0.65957,0.58183 0.7127,1.12189 0.0722,0.73419 -0.0152,0.83635 -0.95673,1.11845 -0.56993,0.17075 -2.52589,0.31046 -4.346566,0.31046 -2.44655,0 -3.38724,0.0926 -3.60503,0.35507 -0.16208,0.19529 -0.24622,0.40365 -0.18698,0.46302 0.14459,0.14493 15.804946,-0.004 16.225716,-0.15418 z m -10.77897,-4.76158 c -0.43963,-0.52972 -0.14679,-1.194 0.52637,-1.194 0.30017,0 0.61489,0.18011 0.69936,0.40025 0.15204,0.3962 -0.31394,1.18725 -0.69936,1.18725 -0.10989,0 -0.34675,-0.17707 -0.52637,-0.3935 z m -3.197856,2.9598 c 0.12729,-0.33479 0.16879,-0.9364 0.0922,-1.33693 -0.21064,-1.10187 -1.18012,-0.86116 -1.4424,0.35813 -0.10956,0.50933 -0.14748,1.07487 -0.0842,1.25677 0.19724,0.56747 1.18583,0.3759 1.43442,-0.27797 z m 12.455476,-0.14034 c 0,-0.52806 -0.19502,-0.85341 -0.66106,-1.10283 -0.78285,-0.41896 -0.85963,-0.36799 -0.97251,0.64562 -0.0707,0.63451 0.0331,0.80839 0.57524,0.96384 1.03549,0.29692 1.05833,0.28599 1.05833,-0.50663 z m -2.45465,-1.7645 c 0.013,-2.02527 -0.24141,-2.56155 -0.59632,-1.25677 -0.20272,0.7453 -0.17157,2.68559 0.0488,3.04224 0.357,0.57764 0.536,-0.006 0.54747,-1.78547 z m 8.0109,2.51354 c 0,-0.14552 0.11906,-0.26458 0.26458,-0.26458 0.14552,0 0.26459,0.11906 0.26459,0.26458 0,0.14552 -0.11907,0.26459 -0.26459,0.26459 -0.14552,0 -0.26458,-0.11907 -0.26458,-0.26459 z"
       id="path5" />
  </g>
</svg>
