<?xml version="1.0" encoding="UTF-8" standalone="no"?>
<!-- Created with Inkscape (http://www.inkscape.org/) -->

<svg
   width="20.719498mm"
   height="11.586129mm"
   viewBox="0 0 20.719497 11.586128"
   version="1.1"
   id="svg1"
   inkscape:version="1.4.1-rc (06eac75fbf, 2025-03-29)"
   sodipodi:docname="city7.svg"
   xmlns:inkscape="http://www.inkscape.org/namespaces/inkscape"
   xmlns:sodipodi="http://sodipodi.sourceforge.net/DTD/sodipodi-0.dtd"
   xmlns="http://www.w3.org/2000/svg"
   xmlns:svg="http://www.w3.org/2000/svg">
  <sodipodi:namedview
     id="namedview1"
     pagecolor="#ffffff"
     bordercolor="#000000"
     borderopacity="0.25"
     inkscape:showpageshadow="2"
     inkscape:pageopacity="0.0"
     inkscape:pagecheckerboard="0"
     inkscape:deskcolor="#d1d1d1"
     inkscape:document-units="mm"
     inkscape:zoom="1.0217435"
     inkscape:cx="39.148769"
     inkscape:cy="22.021182"
     inkscape:window-width="1850"
     inkscape:window-height="1016"
     inkscape:window-x="0"
     inkscape:window-y="0"
     inkscape:window-maximized="1"
     inkscape:current-layer="layer1" />
  <defs
     id="defs1" />
  <g
     inkscape:label="Layer 1"
     inkscape:groupmode="layer"
     id="layer1"
     transform="translate(-96.572912,-143.13957)">
    <path
       style="fill:#000000"
       d="m 111.47158,154.4779 c -4.04696,-0.36521 -13.141586,-0.47336 -13.819796,-0.16435 -0.45,0.20504 -0.69986,0.1944 -0.93402,-0.0398 -0.47069,-0.47068 0.263,-1.64869 1.37447,-2.20683 1.1858,-0.59547 1.27441,-0.77773 1.48839,-3.06129 0.16184,-1.72708 0.25463,-1.97744 0.811326,-2.18909 0.34573,-0.13145 0.62859,-0.43342 0.62859,-0.67105 0,-0.48952 1.11618,-3.02854 1.32137,-3.00577 0.0736,0.008 0.55056,0.87136 1.05988,1.91822 0.99539,2.04593 1.73027,2.56382 1.97492,1.3918 0.078,-0.37347 0.20567,-0.98515 0.2838,-1.35929 0.20147,-0.96483 0.73764,-0.65554 0.98565,0.56858 0.11564,0.57074 0.42597,1.31917 0.68963,1.66317 l 0.47938,0.62546 0.81137,-1.43767 c 0.44625,-0.79071 0.85222,-1.71769 0.90216,-2.05994 0.15981,-1.09527 0.67248,-0.86411 0.99817,0.45007 0.17276,0.6971 0.60482,1.71139 0.96014,2.25397 0.49803,0.76051 0.64603,1.33938 0.64603,2.52677 0,1.69155 0.28945,2.17318 1.30969,2.17931 1.16627,0.007 1.5055,0.3838 1.16283,1.29163 -0.34809,0.9222 -0.24698,1.08412 0.68043,1.08962 0.37593,0.002 0.8621,0.11947 1.08038,0.26053 0.47438,0.30657 -1.32905,0.29769 -4.89479,-0.0241 z m -4.82864,-1.58908 c 3.99559,-0.0117 5.28154,-0.27845 3.175,-0.65855 -1.36686,-0.24664 -1.4029,-0.28749 -0.97581,-1.1062 0.20748,-0.39772 0.37797,-0.93148 0.37886,-1.18615 9e-4,-0.25466 0.0514,-0.46302 0.11229,-0.46302 0.0608,0 0.29898,-0.0723 0.52916,-0.1606 0.27464,-0.10538 0.41852,-0.0144 0.41852,0.26459 0,0.23385 0.11906,0.42518 0.26458,0.42518 0.14552,0 0.26458,-0.16886 0.26458,-0.37524 0,-0.20638 0.0796,-0.5827 0.17692,-0.83627 0.14244,-0.37118 0.067,-0.4323 -0.38714,-0.31354 -0.75544,0.19755 -1.26161,-0.40324 -0.71908,-0.85349 0.47343,-0.39292 0.52009,-0.95568 0.10071,-1.21487 -0.29781,-0.18405 -0.88757,0.54733 -0.89519,1.11015 -0.002,0.16218 -0.13711,0.45984 -0.29982,0.66146 -0.32196,0.39896 -0.92317,2.95405 -0.81897,3.48054 0.0419,0.21145 -0.30667,0.33352 -0.99389,0.34811 -2.09023,0.0444 -7.153076,0.40164 -7.606766,0.53675 -0.25466,0.0758 -0.46302,0.26432 -0.46302,0.41883 0,0.18756 0.59364,0.22337 1.785936,0.10774 0.98227,-0.0953 3.66117,-0.1787 5.95313,-0.18542 z m -5.37506,-2.11732 c 0.31923,-0.61246 0.49588,-1.30357 0.40576,-1.5875 -0.22716,-0.71574 0.30134,-0.62636 0.54679,0.0925 0.18241,0.53419 0.21472,0.50358 0.31472,-0.29823 0.1278,-1.02476 -0.0713,-1.31031 -0.98612,-1.41396 -0.60305,-0.0683 -0.67818,0.0561 -1.02231,1.69281 -0.32511,1.54631 -0.30003,2.59906 0.0619,2.59906 0.0626,0 0.36829,-0.48809 0.67923,-1.08465 z m 2.59629,-0.91454 c -0.12712,-1.58358 -0.31303,-2.23664 -0.55442,-1.94751 -0.21574,0.25842 0.17819,3.68212 0.42367,3.68212 0.1703,0 0.21857,-0.64049 0.13075,-1.73461 z m 2.9772,0.53568 c 0,-0.53542 -0.74694,-0.8058 -1.14005,-0.41268 -0.23792,0.23792 -0.21825,0.36919 0.0839,0.56024 0.59084,0.37354 1.05612,0.30853 1.05612,-0.14756 z m -0.45249,-2.09497 c -0.0824,-1.12562 -0.51919,-1.41909 -0.89254,-0.59968 -0.38437,0.8436 -0.13788,1.58425 0.48434,1.45537 0.32932,-0.0682 0.44769,-0.31634 0.4082,-0.85569 z m -3.91313,-1.99777 c -0.12801,-0.20712 -0.28021,-0.22249 -0.4566,-0.0461 -0.14552,0.14552 -0.17818,0.4044 -0.0726,0.57528 0.12801,0.20713 0.28021,0.22249 0.4566,0.0461 0.14552,-0.14552 0.17818,-0.4044 0.0726,-0.57528 z m 13.53954,6.59637 c -0.26431,-0.30869 -0.43628,-0.60553 -0.38217,-0.65964 0.23803,-0.23803 1.65929,0.3558 1.65929,0.69327 0,0.59788 -0.75339,0.57804 -1.27712,-0.0336 z"
       id="path6" />
  </g>
</svg>
