<?xml version="1.0" encoding="UTF-8" standalone="no"?>
<!-- Created with Inkscape (http://www.inkscape.org/) -->

<svg
   width="19.83934mm"
   height="15.060266mm"
   viewBox="0 0 19.83934 15.060266"
   version="1.1"
   id="svg1"
   inkscape:version="1.4.1-rc (06eac75fbf, 2025-03-29)"
   sodipodi:docname="city2.svg"
   xmlns:inkscape="http://www.inkscape.org/namespaces/inkscape"
   xmlns:sodipodi="http://sodipodi.sourceforge.net/DTD/sodipodi-0.dtd"
   xmlns="http://www.w3.org/2000/svg"
   xmlns:svg="http://www.w3.org/2000/svg">
  <sodipodi:namedview
     id="namedview1"
     pagecolor="#ffffff"
     bordercolor="#000000"
     borderopacity="0.25"
     inkscape:showpageshadow="2"
     inkscape:pageopacity="0.0"
     inkscape:pagecheckerboard="0"
     inkscape:deskcolor="#d1d1d1"
     inkscape:document-units="mm"
     inkscape:zoom="0.72248176"
     inkscape:cx="37.371186"
     inkscape:cy="28.374419"
     inkscape:window-width="1850"
     inkscape:window-height="1016"
     inkscape:window-x="0"
     inkscape:window-y="0"
     inkscape:window-maximized="1"
     inkscape:current-layer="layer1" />
  <defs
     id="defs1" />
  <g
     inkscape:label="Layer 1"
     inkscape:groupmode="layer"
     id="layer1"
     transform="translate(-95.250001,-141.02292)">
    <path
       style="fill:#000000"
       d="m 108.65189,156.00601 c -0.0547,-0.0547 -1.45755,-0.14952 -3.11746,-0.21072 -5.12343,-0.18889 -9.61677,-0.43773 -9.96333,-0.55176 -0.57318,-0.18859 -0.36095,-0.9214 0.49264,-1.70103 0.54062,-0.49378 0.83722,-1.02754 0.86371,-1.55435 0.0222,-0.44128 0.12793,-0.88991 0.23497,-0.99695 0.10704,-0.10704 0.19462,-0.63257 0.19462,-1.16785 0,-0.65319 0.18303,-1.13887 0.55659,-1.47694 0.71708,-0.64894 1.64773,-2.31655 2.09027,-3.74549 0.19154,-0.61846 0.44826,-1.12448 0.57049,-1.12448 0.12223,0 0.22485,0.50602 0.22804,1.12448 0.0116,2.24385 2.34586,5.52189 2.53021,3.5532 0.0161,-0.17163 0.0473,-0.52041 0.0695,-0.77508 0.0222,-0.25466 0.17137,-0.46302 0.33158,-0.46302 0.19082,0 0.25926,0.57034 0.19844,1.65365 -0.075,1.33478 -0.0163,1.65364 0.30403,1.65364 0.60188,0 0.43587,-3.25599 -0.18932,-3.71314 -0.41514,-0.30356 -0.4251,-0.53225 -0.1165,-2.67502 0.45889,-3.18627 1.02136,-3.75266 1.24002,-1.24866 0.2979,3.41142 0.75594,5.97303 1.09102,6.10161 0.21318,0.0818 0.35603,0.54617 0.35603,1.15734 0,1.27954 -0.70237,1.78014 -1.83778,1.30984 -0.40229,-0.16663 -1.19516,-0.2659 -1.76193,-0.22059 -1.09188,0.0873 -1.09834,0.0758 -0.84928,-1.50513 0.0753,-0.47785 -0.0858,-0.53666 -1.66093,-0.60645 -2.11117,-0.0935 -2.29525,0.0727 -2.52611,2.28151 -0.23444,2.24294 0.57915,3.20574 1.24004,1.46746 0.46373,-1.21969 1.83974,-1.01121 1.83974,0.27875 0,0.51312 0.12681,0.5718 1.12448,0.52031 0.61846,-0.0319 1.27222,0.0641 1.4528,0.21341 0.45723,0.37802 2.71438,0.0132 2.71438,-0.43872 0,-0.1938 0.1786,-0.42089 0.39688,-0.50465 0.21828,-0.0838 0.39687,-0.45369 0.39687,-0.82206 0,-0.36837 0.11907,-0.66976 0.26459,-0.66976 0.28296,0 0.34612,0.41601 0.27112,1.78593 -0.0259,0.47295 0.0811,0.8599 0.23777,0.8599 0.17506,0 0.28574,-0.68839 0.28716,-1.78594 0.001,-0.98226 0.0774,-2.41101 0.16914,-3.175 0.14378,-1.197 0.10458,-1.38906 -0.28351,-1.38906 -0.31518,0 -0.42552,0.17869 -0.36758,0.59531 0.063,0.45328 -0.0652,0.61626 -0.53724,0.6831 -0.53844,0.0762 -0.59587,0.007 -0.43655,-0.52917 0.1009,-0.33932 0.45014,-1.03367 0.77608,-1.54299 0.32594,-0.50932 0.79302,-1.25346 1.03796,-1.65365 0.63801,-1.04238 0.96231,-0.89965 0.96231,0.42354 0,1.47654 0.44869,2.75592 1.08617,3.09709 0.39553,0.21168 0.50133,0.56512 0.50133,1.67472 0,1.41664 0.36952,2.90404 0.88437,3.5598 0.23037,0.29342 0.3293,0.28503 0.57326,-0.0486 0.16217,-0.22177 0.61492,-0.48356 1.00611,-0.58174 0.55114,-0.13833 0.71126,-0.0827 0.71126,0.24704 0,0.23406 0.1786,0.42556 0.39688,0.42556 0.42159,0 0.55302,1.19707 0.19346,1.76217 -0.17943,0.282 -5.97782,0.69965 -6.22882,0.44865 z m -5.80349,-1.21863 c -0.0642,-0.19486 -0.68968,-0.36423 -1.52243,-0.41227 -1.25457,-0.0724 -1.37498,-0.0352 -1.07129,0.33073 0.42869,0.51654 2.76124,0.58987 2.59372,0.0815 z m 8.26697,0.0944 c 0,-0.41475 -0.78051,-0.55747 -3.04873,-0.55747 -2.03547,0 -2.75509,0.19339 -2.32393,0.62455 0.26294,0.26295 5.37266,0.19915 5.37266,-0.0671 z m -13.22916,-0.29289 c 0,-0.14552 -0.1786,-0.26458 -0.39688,-0.26458 -0.21828,0 -0.39687,0.11906 -0.39687,0.26458 0,0.14552 0.17859,0.26458 0.39687,0.26458 0.21828,0 0.39688,-0.11906 0.39688,-0.26458 z m 12.17083,-2.76251 c 0,-0.9373 0.12484,-1.78133 0.27743,-1.87564 0.19102,-0.11806 0.18477,-0.28312 -0.0201,-0.52995 -0.23022,-0.27741 -0.4426,-0.2924 -0.93889,-0.0663 -0.71649,0.32645 -0.8526,0.73645 -0.24449,0.73645 0.31207,0 0.39687,0.36748 0.39687,1.71979 0,0.97014 0.11533,1.7198 0.26459,1.7198 0.149,0 0.26458,-0.74445 0.26458,-1.70418 z m -9.46558,-3.99969 c 0.0812,-0.0812 0.0871,-0.37884 0.0132,-0.66145 -0.19688,-0.75287 -0.86641,-0.63881 -0.86641,0.14761 0,0.60253 0.47712,0.88989 0.85317,0.51384 z"
       id="path7" />
  </g>
</svg>
