<?xml version="1.0" encoding="UTF-8" standalone="no"?>
<!-- Created with Inkscape (http://www.inkscape.org/) -->

<svg
   width="28.76491mm"
   height="15.972271mm"
   viewBox="0 0 28.764909 15.972269"
   version="1.1"
   id="svg1"
   inkscape:version="1.4.1-rc (06eac75fbf, 2025-03-29)"
   sodipodi:docname="city8.svg"
   xmlns:inkscape="http://www.inkscape.org/namespaces/inkscape"
   xmlns:sodipodi="http://sodipodi.sourceforge.net/DTD/sodipodi-0.dtd"
   xmlns="http://www.w3.org/2000/svg"
   xmlns:svg="http://www.w3.org/2000/svg">
  <sodipodi:namedview
     id="namedview1"
     pagecolor="#ffffff"
     bordercolor="#000000"
     borderopacity="0.25"
     inkscape:showpageshadow="2"
     inkscape:pageopacity="0.0"
     inkscape:pagecheckerboard="0"
     inkscape:deskcolor="#d1d1d1"
     inkscape:document-units="mm"
     inkscape:zoom="1.0217435"
     inkscape:cx="53.829557"
     inkscape:cy="29.850936"
     inkscape:window-width="1850"
     inkscape:window-height="1016"
     inkscape:window-x="0"
     inkscape:window-y="0"
     inkscape:window-maximized="1"
     inkscape:current-layer="layer1" />
  <defs
     id="defs1" />
  <g
     inkscape:label="Layer 1"
     inkscape:groupmode="layer"
     id="layer1"
     transform="translate(-92.604162,-141.0229)">
    <path
       style="fill:#000000;stroke-width:1.13098"
       d="m 114.34865,156.8426 c 0.74764,-0.15274 0.78094,-0.87595 0.0403,-0.87595 -0.44177,0 -0.51357,-0.18483 -0.35972,-0.92604 0.10578,-0.50932 0.13181,-0.92604 0.0579,-0.92604 -0.0738,0 -0.50507,0.31265 -0.9583,0.69477 -0.45322,0.38213 -1.18279,0.7274 -1.62126,0.76725 -0.43846,0.0399 -0.94949,0.0985 -1.13563,0.13031 -0.18615,0.0318 -0.86728,0.0437 -1.51364,0.0265 -1.1721,-0.0312 -1.17319,-0.0325 -0.40851,-0.45116 0.61377,-0.3361 0.8667,-0.35497 1.268,-0.0946 0.27571,0.17889 0.53568,0.27852 0.57771,0.2214 0.71351,-0.96947 0.92252,-1.3585 0.92252,-1.71707 0,-0.33648 -0.13349,-0.30089 -0.61499,0.16399 -0.36055,0.34808 -1.0607,0.62117 -1.69217,0.66 -1.1721,0.0721 -1.36299,-0.15115 -0.56952,-0.66598 0.90875,-0.58962 0.58727,-0.87511 -0.83129,-0.79206 l -2.3007,0.13468 1.05169,-0.56693 c 0.67988,-0.36651 1.11501,-1.20323 1.24353,-1.42152 0.38467,-0.65333 1.16716,-0.45151 1.28229,0.33073 0.1895,1.28759 0.977,0.84105 1.16652,-0.66146 0.0963,-0.76398 0.12062,-1.43481 0.054,-1.49074 -0.0666,-0.0559 -0.67098,-0.14904 -1.34292,-0.20693 -1.09982,-0.0948 -1.19995,-0.0516 -1.00346,0.43241 0.2678,0.65964 -0.33835,0.71513 -0.81553,0.0746 -0.35135,-0.4716 -0.41007,-0.24136 -0.52311,2.05052 -0.026,0.52547 -0.23405,0.67958 -1.01242,0.74967 -0.53888,0.0485 -1.44794,0.36075 -2.02011,0.69384 -0.57218,0.3331 -1.23581,0.55004 -1.47474,0.48209 -0.23892,-0.0679 -0.66142,0.0237 -0.93887,0.20375 -0.27744,0.18002 -0.58746,0.26241 -0.68892,0.18309 -0.10144,-0.0793 0.28296,-0.36008 0.85427,-0.62392 1.14154,-0.52718 1.34189,-0.89477 0.48766,-0.89477 -0.7794,0 -3.877758,1.42833 -4.845758,2.23389 -0.44713,0.37209 -1.00615,0.67653 -1.24228,0.67653 -0.23611,0 -0.97104,0.24988 -1.63317,0.5553 -0.66212,0.30541 -1.20386,0.44293 -1.20386,0.30559 0,-0.32141 1.13222,-1.12548 1.58479,-1.12548 0.19083,0 0.71872,-0.26789 1.17308,-0.59531 0.45434,-0.32742 1.70791,-1.06857 2.7857,-1.647 1.07779,-0.57843 2.098928,-1.25521 2.269218,-1.50396 0.41909,-0.6122 0.39512,-4.64786 -0.0288,-4.85269 -0.704818,-0.34055 -0.29435,-0.66146 0.84609,-0.66146 1.01039,0 1.18451,-0.0894 1.18451,-0.60855 0,-0.33469 -0.17025,-0.74163 -0.37834,-0.90432 -0.27882,-0.21798 -0.1898,-0.38782 0.33843,-0.64572 0.39423,-0.19248 0.71677,-0.55241 0.71677,-0.79986 0,-0.24745 0.15231,-0.52349 0.33844,-0.61343 0.18614,-0.0899 0.34306,-0.48392 0.34873,-0.87551 0.0134,-0.93326 0.4921,-0.29998 0.8059,1.06634 0.12676,0.55181 0.54138,1.15722 0.94337,1.37734 0.56934,0.31176 0.63514,0.4701 0.31908,0.76782 -0.57599,0.54258 -0.10796,1.23589 0.83425,1.23589 0.44543,0 0.80988,0.11906 0.80988,0.26459 0,0.14552 -0.21069,0.26457 -0.46819,0.26457 -0.51333,0 -1.01003,1.08001 -0.62064,1.34952 0.1335,0.0924 0.73584,0.24002 1.33854,0.32803 0.96618,0.14109 1.12109,0.0812 1.30976,-0.50649 0.11768,-0.36659 0.12088,-0.73932 0.008,-0.82831 -0.30073,-0.2351 0.46142,-0.87191 1.04352,-0.87191 0.85271,0 1.76639,-1.12952 1.77833,-2.19842 0.015,-1.34248 0.52217,-1.03283 1.03253,0.63041 0.22684,0.73922 0.59574,1.39902 0.81978,1.46623 0.28927,0.0868 0.38486,0.94201 0.32978,2.95063 -0.0828,3.01604 0.2224,3.9075 1.5945,4.65885 0.42762,0.23416 0.64298,0.55967 0.52682,0.79633 -0.14,0.28522 -0.0414,0.35377 0.34288,0.23847 0.29814,-0.0894 0.70667,0.0153 0.91346,0.23416 0.20576,0.21778 1.28787,0.62364 2.4047,0.9019 1.57735,0.39299 1.84174,0.52686 1.18452,0.59973 -0.46535,0.0516 -0.9719,0.23064 -1.12568,0.39787 -0.20732,0.22546 -0.32396,0.21857 -0.45125,-0.0267 -0.0966,-0.18607 -0.75604,-0.33072 -1.5078,-0.33072 -0.87549,0 -1.40332,-0.13683 -1.53096,-0.39688 -0.10719,-0.21828 -0.4831,-0.39687 -0.83546,-0.39687 -0.70365,0 -0.87713,0.42344 -0.24133,0.58913 0.69357,0.18074 0.006,1.00019 -0.81174,0.96767 -0.57322,-0.0228 -0.61955,-0.0619 -0.17984,-0.15169 z m -2.45365,-1.71501 c 0,-0.17044 0.21658,-0.49787 0.48128,-0.7276 0.26472,-0.22974 0.57247,-0.7749 0.68391,-1.21146 0.20138,-0.7889 0.20001,-0.78971 -0.223,-0.13229 -0.23409,0.36381 -0.69416,0.89226 -1.02234,1.17437 -0.65385,0.56202 -0.79185,1.20689 -0.25828,1.20689 0.18614,0 0.33843,-0.13947 0.33843,-0.30991 z m -8.54215,-4.50245 c 0.0574,-1.29715 -0.0503,-1.9669 -0.33867,-2.10622 -0.31493,-0.15217 -0.25053,-0.30821 0.25241,-0.61161 0.66426,-0.40071 0.66469,-0.41369 0.0261,-0.79972 -0.86372,-0.52213 -1.6766,-0.0357 -1.39681,0.83578 0.10987,0.34221 0.0445,0.61495 -0.14746,0.61495 -0.49122,0 -0.43651,3.26211 0.0613,3.65125 0.22336,0.17462 0.64303,0.3175 0.93258,0.3175 0.41969,0 0.54351,-0.38571 0.61059,-1.90193 z m -1.61086,-0.21474 c 0,-0.29104 0.15229,-0.52917 0.33843,-0.52917 0.18614,0 0.33844,0.23813 0.33844,0.52917 0,0.29104 -0.1523,0.52917 -0.33844,0.52917 -0.18614,0 -0.33843,-0.23813 -0.33843,-0.52917 z m 9.94047,0.60922 c 0.32101,-1.83091 0.25778,-2.66989 -0.2105,-2.7931 -0.3322,-0.0874 -0.32595,-0.20328 0.0292,-0.53963 0.60327,-0.57143 0.18135,-1.04606 -0.73449,-0.82626 -1.04637,0.25114 -1.05778,0.28204 -0.39581,1.07188 0.4863,0.58022 0.56332,1.07326 0.412,2.63748 -0.14577,1.50677 -0.0915,1.89545 0.25051,1.79286 0.24014,-0.072 0.53227,-0.6765 0.64915,-1.34323 z m -7.40463,-5.27533 c 0.74554,-0.58286 0.16172,-1.04621 -0.80734,-0.64076 -0.73199,0.30627 -0.88448,0.58685 -0.48757,0.89715 0.35553,0.27795 0.6982,0.2101 1.29491,-0.25639 z m 8.29404,0.0515 c 0,-0.27926 -0.6495,-0.39659 -0.84267,-0.15222 -0.11691,0.14789 0.0248,0.26889 0.31505,0.26889 0.29019,0 0.52762,-0.0525 0.52762,-0.11667 z m -8.30607,-1.98171 c 0.10706,-0.13547 0.0399,-0.32109 -0.14925,-0.41249 -0.18917,-0.0914 -0.34396,0.0194 -0.34396,0.2463 0,0.46475 0.20309,0.53318 0.49321,0.16619 z"
       id="path15"
       sodipodi:nodetypes="cscsscsssscssssscssscscsscsscsssssssssssscsssssccssssssssscsssscsscsssssscsssccssssssscssssssscssssssssssscssssssssssssss" />
  </g>
</svg>
