<?xml version="1.0" encoding="UTF-8" standalone="no"?>
<!-- Created with Inkscape (http://www.inkscape.org/) -->

<svg
   width="30.076956mm"
   height="15.060399mm"
   viewBox="0 0 30.076956 15.060399"
   version="1.1"
   id="svg1"
   inkscape:version="1.4.2 (2aeb623e1d, 2025-05-12)"
   sodipodi:docname="forest2.svg"
   xmlns:inkscape="http://www.inkscape.org/namespaces/inkscape"
   xmlns:sodipodi="http://sodipodi.sourceforge.net/DTD/sodipodi-0.dtd"
   xmlns="http://www.w3.org/2000/svg"
   xmlns:svg="http://www.w3.org/2000/svg">
  <sodipodi:namedview
     id="namedview1"
     pagecolor="#ffffff"
     bordercolor="#000000"
     borderopacity="0.25"
     inkscape:showpageshadow="2"
     inkscape:pageopacity="0.0"
     inkscape:pagecheckerboard="0"
     inkscape:deskcolor="#d1d1d1"
     inkscape:document-units="mm"
     inkscape:zoom="0.7349537"
     inkscape:cx="336.07559"
     inkscape:cy="483.70394"
     inkscape:window-width="1854"
     inkscape:window-height="1011"
     inkscape:window-x="0"
     inkscape:window-y="0"
     inkscape:window-maximized="1"
     inkscape:current-layer="layer1" />
  <defs
     id="defs1" />
  <g
     inkscape:label="Layer 1"
     inkscape:groupmode="layer"
     id="layer1"
     transform="translate(-16.27792,-20.516252)">
    <path
       style="fill:#000000"
       d="m 30.43317,35.47357 c -2.01231,-0.31396 -3.36839,-0.45651 -7.40834,-0.77877 -2.03729,-0.16251 -3.76025,-0.34989 -3.82879,-0.41639 -0.2913,-0.28262 0.67804,-0.56264 1.49098,-0.43072 0.60911,0.0988 0.88261,0.04 0.88261,-0.19006 0,-0.25786 0.61367,-0.29308 2.71198,-0.15564 5.12562,0.33575 11.04635,1.16302 11.04635,1.54344 0,0.15923 -0.34383,0.19458 -0.8599,0.0884 -3.42782,-0.70523 -12.48769,-1.55863 -12.10468,-1.14021 0.0728,0.0795 2.03729,0.3448 4.36562,0.58957 2.32833,0.24477 4.52513,0.53145 4.88176,0.63707 1.04463,0.30938 0.26151,0.47783 -1.17759,0.25331 z m 6.48229,-1.28984 C 35.60779,33.88376 30.5289,33.4169 26.38669,33.21592 24.27168,33.1133 22.96545,32.94919 23.11035,32.8043 c 0.26325,-0.26326 7.31009,0.15338 9.96865,0.58938 0.87313,0.1432 2.30188,0.26267 3.175,0.2655 1.77396,0.006 2.77813,0.20742 2.77813,0.55795 0,0.27568 -0.82614,0.26264 -2.11667,-0.0334 z m 1.45521,-1.07471 C 36.4789,32.84546 32.69005,32.515 29.95101,32.37467 c -2.73904,-0.14033 -5.06076,-0.339 -5.15937,-0.44148 -0.1666,-0.17313 8.62385,0.0773 8.93863,0.25462 0.0784,0.0442 1.57123,0.16 3.31748,0.25744 3.05073,0.17022 4.74364,0.48429 5.27844,0.97923 0.305,0.28227 0.37452,0.28781 -3.95552,-0.31546 z m 3.96875,-0.77689 c -1.82998,-0.36079 -12.79463,-1.1561 -15.21354,-1.1035 l -1.19063,0.0259 0.66146,-0.51262 0.66146,-0.51262 -1.98438,0.0231 c -1.8612,0.0217 -1.91231,0.0373 -0.82336,0.25114 0.63856,0.12542 1.22395,0.29097 1.30087,0.36789 0.22688,0.22687 -0.79786,0.16111 -2.47943,-0.15913 -0.86348,-0.16444 -2.18959,-0.31327 -2.94694,-0.33073 -1.18341,-0.0273 -1.54605,-0.17308 -2.57968,-1.03711 -1.07903,-0.90197 -1.20271,-1.12038 -1.20271,-2.12394 0,-1.19382 0.57839,-2.29466 1.20563,-2.29466 0.21003,0 0.38187,-0.18233 0.38187,-0.40518 0,-0.22285 0.18214,-0.47507 0.40476,-0.5605 0.25591,-0.0982 0.3465,-0.33888 0.24634,-0.65446 -0.10121,-0.31888 -0.008,-0.55666 0.2567,-0.65843 0.22832,-0.0876 0.41512,-0.31057 0.41512,-0.49547 0,-0.18489 0.18682,-0.49121 0.41515,-0.68071 0.35139,-0.29163 0.50379,-0.24065 0.99219,0.33186 0.31737,0.37202 0.78526,0.74683 1.03976,0.8329 0.55522,0.18777 1.48935,-0.11787 1.49189,-0.48813 9.9e-4,-0.14553 0.21646,-0.3044 0.4788,-0.35305 0.26235,-0.0487 0.61607,-0.26643 0.78605,-0.48394 0.24257,-0.31041 0.42751,-0.33206 0.85989,-0.10066 0.30297,0.16214 0.55085,0.45532 0.55085,0.65151 0,0.19619 0.26789,0.4285 0.59532,0.51625 0.86376,0.23148 0.99218,0.207 0.99218,-0.18911 0,-0.56103 0.90144,-1.23163 1.65558,-1.23163 0.85051,0 1.49729,0.61692 1.69778,1.61939 0.0838,0.41902 0.24381,0.76186 0.35558,0.76186 0.24458,0 0.52216,-0.66918 0.53028,-1.27841 0.003,-0.24276 0.22277,-0.72341 0.48786,-1.06811 0.41383,-0.53813 0.56377,-0.58295 1.0606,-0.31706 0.31825,0.17033 1.41656,0.32522 2.4407,0.34421 1.75715,0.0326 1.88366,0.0763 2.24561,0.77624 0.22731,0.43956 0.678,0.80463 1.10635,0.89615 1.39985,0.2991 1.91341,0.62542 1.91341,1.21579 0,0.31908 0.1639,0.76812 0.36422,0.99786 0.20444,0.23447 0.4218,1.26917 0.49547,2.35869 l 0.13125,1.94098 -1.06433,0.771 c -0.58539,0.42404 -1.01671,0.78557 -0.95849,0.80339 0.0582,0.0178 0.65712,0.0618 1.3309,0.0978 2.41482,0.12902 4.14799,0.43618 4.63233,0.82098 0.45072,0.35807 0.40261,0.37856 -0.56572,0.24094 -3.17775,-0.45166 -5.07555,-0.63338 -7.9375,-0.76004 -3.55897,-0.1575 -2.35914,0.0635 3.43958,0.63364 1.89177,0.186 3.61818,0.43539 3.83646,0.5542 0.50694,0.27595 -1.0471,0.25461 -2.51354,-0.0345 z m -9.65729,-1.28401 c 0,-0.23361 -2.1039,-0.55962 -3.63802,-0.56372 -0.47295,-0.001 -0.8599,0.11175 -0.8599,0.25115 0,0.1394 0.92273,0.29404 2.05052,0.34363 1.12779,0.0496 2.13982,0.11414 2.24896,0.14342 0.10914,0.0293 0.19844,-0.0492 0.19844,-0.17448 z m 0.81302,-1.71091 c -0.20209,-0.20209 -0.28386,-0.0146 -0.28386,0.651 0,1.21625 0.37162,1.59036 0.4823,0.48553 0.047,-0.46897 -0.0423,-0.98041 -0.19844,-1.13653 z m 5.27239,1.14489 c 0,-0.14552 -0.38695,-0.26276 -0.85989,-0.26053 -0.65252,0.003 -0.76419,0.0659 -0.46302,0.26053 0.52003,0.33607 1.32291,0.33607 1.32291,0 z m -6.08541,-0.26458 c 0,-0.14756 -0.61438,-0.24798 -1.38907,-0.22704 l -1.38906,0.0375 1.05833,0.18949 c 1.59808,0.28613 1.7198,0.28613 1.7198,0 z m 2.94054,-0.0408 c -0.6099,-0.17538 -0.98577,-0.16776 -1.1774,0.0239 -0.19892,0.19892 0.0639,0.27448 0.89592,0.25762 l 1.17739,-0.0239 z M 27.806,28.42815 c -0.32739,-0.32738 -0.45475,0.20887 -0.24768,1.0428 l 0.21822,0.87882 0.0902,-0.88533 c 0.0496,-0.48694 0.0223,-0.95326 -0.0607,-1.03629 z m -7.55929,1.26016 c 0,-0.14552 -0.26789,-0.26276 -0.59531,-0.26053 -0.4814,0.003 -0.51937,0.0531 -0.19844,0.26053 0.51296,0.3315 0.79375,0.3315 0.79375,0 z m 2.2561,0.0116 c -0.086,-0.13917 -0.33116,-0.18596 -0.54478,-0.10399 -0.54693,0.20988 -0.48248,0.35701 0.15638,0.35701 0.29963,0 0.47441,-0.11386 0.3884,-0.25302 z m 4.35848,-0.0116 c 0,-0.14552 -0.29063,-0.26458 -0.64584,-0.26458 -0.35521,0 -0.71943,0.11906 -0.80937,0.26458 -0.0954,0.15436 0.17365,0.26458 0.64585,0.26458 0.44515,0 0.80936,-0.11906 0.80936,-0.26458 z m 2.11667,0 c 0,-0.14552 -0.11906,-0.26458 -0.26458,-0.26458 -0.14552,0 -0.26459,0.11906 -0.26459,0.26458 0,0.14552 0.11907,0.26458 0.26459,0.26458 0.14552,0 0.26458,-0.11906 0.26458,-0.26458 z m 11.35503,0.16542 c -0.30818,-0.27723 -3.15295,-0.44365 -3.15295,-0.18446 0,0.17111 0.64724,0.28362 1.6316,0.28362 0.89738,0 1.58199,-0.0446 1.52135,-0.0992 z M 29.77171,28.84164 c 0,-0.54533 -0.0911,-0.75558 -0.25592,-0.59075 -0.14075,0.14076 -0.1864,0.52176 -0.10143,0.84667 0.21792,0.83335 0.35735,0.7335 0.35735,-0.25592 z m 2.84439,0.51594 C 32.47294,28.9276 31.76171,28.79842 30.87526,29.04141 l -0.70668,0.1937 0.66146,0.20023 c 1.07525,0.32548 1.90825,0.28921 1.78606,-0.0778 z m 3.6379,0.0662 c -0.0899,-0.14552 -0.51368,-0.26459 -0.94166,-0.26459 -0.42797,0 -0.77813,0.11907 -0.77813,0.26459 0,0.14552 0.42375,0.26458 0.94166,0.26458 0.56039,0 0.87545,-0.10712 0.77813,-0.26458 z M 21.03641,28.96076 c -0.002,-0.25467 -0.11947,-0.64162 -0.26053,-0.8599 -0.19463,-0.30116 -0.25746,-0.1895 -0.26054,0.46302 -0.002,0.47294 0.11502,0.8599 0.26054,0.8599 0.14552,0 0.26276,-0.20836 0.26053,-0.46302 z m 1.45926,-0.0647 c -1.17261,-0.1672 -1.30938,-0.14307 -1.10089,0.19428 0.0785,0.12701 0.59644,0.16921 1.15097,0.0938 L 23.554,29.04698 Z m 1.98437,-0.13374 c 0,-0.20111 -0.11906,-0.43923 -0.26458,-0.52917 -0.15065,-0.0931 -0.26458,0.13475 -0.26458,0.52917 0,0.39442 0.11393,0.62227 0.26458,0.52917 0.14552,-0.0899 0.26458,-0.32807 0.26458,-0.52917 z m -4.23333,0.13229 c 0,-0.14552 -0.50602,-0.26276 -1.12448,-0.26053 -0.8235,0.003 -1.01825,0.0727 -0.7276,0.26053 0.52241,0.33761 1.85208,0.33761 1.85208,0 z m 6.73558,0.0183 c 0.0837,-0.13546 0.0312,-0.32108 -0.11668,-0.41249 -0.1479,-0.0914 -0.2689,0.0194 -0.2689,0.2463 0,0.46475 0.15876,0.53318 0.38558,0.16619 z m 1.86338,-0.0183 c 0.0899,-0.14552 0.0445,-0.26458 -0.10106,-0.26458 -0.14552,0 -0.33817,0.11906 -0.42811,0.26458 -0.0899,0.14552 -0.0445,0.26458 0.10106,0.26458 0.14552,0 0.33817,-0.11906 0.42811,-0.26458 z m 11.70781,0.0822 c -0.25466,-0.0665 -0.67138,-0.0665 -0.92604,0 -0.25466,0.0666 -0.0463,0.121 0.46302,0.121 0.50932,0 0.71768,-0.0544 0.46302,-0.121 z m -15.0151,-0.34678 c 0,-0.14552 -0.11907,-0.26459 -0.26459,-0.26459 -0.14552,0 -0.26458,0.11907 -0.26458,0.26459 0,0.14552 0.11906,0.26458 0.26458,0.26458 0.14552,0 0.26459,-0.11906 0.26459,-0.26458 z M 33.43406,28.334 c -0.45763,-0.29004 -1.2811,-0.29818 -1.2811,-0.0127 0,0.39721 0.26632,0.49955 0.95659,0.36759 0.49693,-0.095 0.58414,-0.19038 0.32451,-0.35494 z m 4.51768,0.4645 c -0.30048,-0.26198 -3.68211,-0.42347 -3.68211,-0.17584 0,0.16091 0.77419,0.27195 1.89618,0.27195 1.0429,0 1.84657,-0.0433 1.78593,-0.0961 z M 23.28942,28.36544 c -0.0899,-0.14552 -0.60298,-0.25271 -1.1401,-0.23821 -0.87719,0.0237 -0.90926,0.0479 -0.31511,0.23821 0.95565,0.30605 1.64436,0.30605 1.45521,0 z m 7.9375,0 c 0.0927,-0.15006 -0.12955,-0.26458 -0.51355,-0.26458 -0.37239,0 -0.67708,0.11906 -0.67708,0.26458 0,0.14552 0.2311,0.26459 0.51355,0.26459 0.28246,0 0.58714,-0.11907 0.67708,-0.26459 z M 20.24671,28.10086 c 0,-0.14721 -0.61619,-0.24913 -1.38906,-0.22975 -1.29191,0.0324 -1.3243,0.0485 -0.46302,0.22975 1.39006,0.2926 1.85208,0.2926 1.85208,0 z m 6.08542,0.0351 c 0,-0.12624 -0.59532,-0.34723 -1.32292,-0.4911 -0.7276,-0.14386 -1.32292,-0.16191 -1.32292,-0.0401 0,0.12181 0.26789,0.27864 0.59532,0.34851 2.1635,0.46166 2.05052,0.45159 2.05052,0.18269 z m 2.51354,-0.0351 c -0.0899,-0.14552 -0.27556,-0.26458 -0.41249,-0.26458 -0.13693,0 -0.24897,0.11906 -0.24897,0.26458 0,0.14552 0.18562,0.26458 0.41249,0.26458 0.22687,0 0.3389,-0.11906 0.24897,-0.26458 z m 10.5079,-0.049 c -0.3475,-0.3475 -6.67243,-0.68211 -6.34114,-0.33546 0.10891,0.11396 1.29954,0.28867 2.64584,0.38824 4.03302,0.29829 4.04618,0.2981 3.6953,-0.0528 z m 1.66293,0.049 c -0.0899,-0.14552 -0.36485,-0.27213 -0.61093,-0.28135 -0.30231,-0.0113 -0.23289,-0.10875 0.21406,-0.30038 l 0.66145,-0.2836 -0.66145,-0.20242 c -0.63249,-0.19355 -0.63539,-0.20357 -0.0661,-0.22879 0.818,-0.0362 0.75617,-0.55554 -0.0662,-0.55554 -0.59531,0 -0.66145,0.10583 -0.66145,1.05833 0,0.95901 0.0635,1.05833 0.67707,1.05833 0.38401,0 0.60629,-0.11452 0.51355,-0.26458 z M 23.02483,27.57169 c -0.0899,-0.14552 -0.96016,-0.24587 -1.93384,-0.22301 l -1.77032,0.0416 1.32291,0.18145 c 2.08572,0.28608 2.55806,0.28608 2.38125,0 z m 8.99688,0.002 c -0.0669,-0.10821 -0.96985,-0.28033 -2.0066,-0.38249 -1.03676,-0.10216 -2.05144,-0.24961 -2.25483,-0.32766 -0.2034,-0.0781 -0.36982,-0.024 -0.36982,0.12004 0,0.14407 0.80367,0.37127 1.78594,0.50488 2.27753,0.30981 2.99744,0.33137 2.84531,0.0852 z m -11.4042,-0.74977 c 3.06765,0.13417 3.40448,-0.36279 0.40214,-0.59332 l -1.96357,-0.15077 2.05053,-0.0477 c 1.15884,-0.0269 2.05052,-0.16272 2.05052,-0.31225 0,-0.14552 -0.41672,-0.26458 -0.92605,-0.26458 -0.50932,0 -0.92604,-0.11454 -0.92604,-0.25454 0,-0.1562 1.12439,-0.19947 2.91042,-0.11202 1.99019,0.0974 2.91042,0.0524 2.91042,-0.14234 0,-0.16102 -0.57509,-0.29923 -1.32292,-0.31793 -0.7276,-0.0182 -1.41221,-0.0538 -1.52135,-0.0791 -0.10915,-0.0253 -0.76399,-0.13678 -1.45521,-0.24772 -0.98953,-0.15881 -1.25677,-0.30901 -1.25677,-0.70635 0,-0.31877 -0.13361,-0.45338 -0.36274,-0.36546 -0.1995,0.0765 -0.4409,-0.0645 -0.53644,-0.3135 -0.16024,-0.41756 -0.2033,-0.41361 -0.5549,0.0509 -0.20965,0.277 -0.38496,0.71199 -0.38959,0.96665 -0.005,0.25466 -0.18701,0.46302 -0.40529,0.46302 -0.22049,0 -0.39688,0.23519 -0.39688,0.52917 0,0.34962 -0.17639,0.52917 -0.51985,0.52917 -0.61756,0 -1.13474,0.84021 -0.89759,1.45822 0.12185,0.31753 0.22258,0.35019 0.36572,0.11858 0.14036,-0.2271 0.93525,-0.28738 2.74544,-0.20821 z m 5.9792,0.37899 c 0,-0.0575 -0.47625,-0.14992 -1.05833,-0.20543 -0.58209,-0.0555 -1.05834,-0.008 -1.05834,0.1045 0,0.11299 0.47625,0.20543 1.05834,0.20543 0.58208,0 1.05833,-0.047 1.05833,-0.1045 z m 12.30312,-0.15018 c -0.6463,-0.28982 -2.85743,-0.35229 -2.68662,-0.0759 0.0675,0.10922 0.81867,0.22437 1.66926,0.25589 1.09184,0.0404 1.39095,-0.0125 1.01736,-0.17999 z m -4.17308,-0.203 c -0.54895,-0.0573 -1.38239,-0.0563 -1.85209,0.002 -0.46969,0.0585 -0.0206,0.10531 0.99809,0.10414 1.01865,-0.001 1.40294,-0.049 0.854,-0.10628 z m -7.60087,-0.30342 c 0,-0.13923 -0.14883,-0.31319 -0.33073,-0.38659 -0.18453,-0.0744 -0.0968,-0.15434 0.19843,-0.18071 1.01775,-0.0909 -0.70913,-0.47124 -2.11666,-0.46619 l -1.32292,0.005 1.28264,0.21523 c 1.67495,0.28106 2.00615,0.639 0.37178,0.40179 -1.39579,-0.20258 -2.44564,0.14231 -1.13802,0.37385 1.51786,0.26876 3.05548,0.28782 3.05548,0.0379 z m 3.9467,0.13548 c -0.0606,-0.053 -0.74574,-0.17759 -1.52245,-0.27676 -0.95743,-0.12225 -1.35712,-0.0912 -1.24116,0.0965 0.0941,0.15222 0.77918,0.27676 1.52245,0.27676 0.74327,0 1.30179,-0.0434 1.24116,-0.0965 z m 4.65225,-0.43271 c 0.10403,-0.16833 -0.58818,-0.25782 -1.90261,-0.24599 -1.40017,0.0126 -1.89557,0.0919 -1.53697,0.24599 0.74242,0.31903 3.24241,0.31903 3.43958,0 z m 2.24896,-0.13229 -1.45521,-0.3375 1.32292,-0.0615 1.32292,-0.0615 -1.13714,-0.27307 c -1.24433,-0.29881 -1.83663,-0.0257 -1.55213,0.71571 0.11888,0.30979 0.51251,0.40715 1.55649,0.38497 L 39.429,26.4542 Z m -6.65381,-0.25972 c -0.0701,-0.0701 -0.77453,-0.24475 -1.56545,-0.38816 l -1.43803,-0.26073 1.78594,0.11362 c 1.04639,0.0666 1.78594,0.008 1.78594,-0.14101 0,-0.14005 -0.47625,-0.25463 -1.05834,-0.25463 -0.58208,0 -1.05833,-0.11906 -1.05833,-0.26458 0,-0.14552 0.38695,-0.26659 0.8599,-0.26904 l 0.85989,-0.004 -0.90145,-0.577 c -0.4958,-0.31736 -0.76369,-0.62293 -0.59531,-0.67905 0.44088,-0.14696 0.37695,-0.84114 -0.0941,-1.0219 -0.22013,-0.0845 -0.57732,-0.007 -0.79375,0.17299 -0.27337,0.22688 -0.3935,0.23592 -0.3935,0.0296 0,-0.16334 -0.13197,-0.29698 -0.29327,-0.29698 -0.18302,0 -0.22895,0.25627 -0.12217,0.68172 0.15611,0.62198 0.10688,0.67415 -0.56172,0.59532 -0.53028,-0.0625 -0.75782,0.0416 -0.82327,0.37661 -0.0553,0.2831 0.0713,0.46302 0.32582,0.46302 0.22895,0 0.41627,0.18021 0.41627,0.40047 0,1.05238 0.61178,1.45161 2.22441,1.45161 0.86238,0 1.51061,-0.0573 1.44053,-0.12742 z m 9.56423,-0.1063 c 0,-0.12855 -0.23813,-0.296 -0.52917,-0.37211 -0.34392,-0.0899 -0.52916,-0.008 -0.52916,0.23373 0,0.20466 0.23812,0.3721 0.52916,0.3721 0.29104,0 0.52917,-0.10517 0.52917,-0.23372 z m -4.98772,-0.26551 c -0.51323,-0.32524 -3.47895,-0.35186 -3.47895,-0.0312 0,0.15404 0.80686,0.26418 1.91823,0.26183 1.16759,-0.002 1.77833,-0.0927 1.56072,-0.2306 z m -0.0394,-0.75901 c 0,-0.10995 -0.84044,-0.22898 -1.86765,-0.2645 -1.19268,-0.0412 -1.80857,0.031 -1.70418,0.19991 0.18836,0.30476 3.57183,0.36595 3.57183,0.0646 z m 3.175,-0.0174 c 0,-0.11951 -0.59532,-0.24446 -1.32292,-0.27766 -0.78545,-0.0358 -1.32292,0.0524 -1.32292,0.2173 0,0.1568 0.57582,0.27766 1.32292,0.27766 0.7276,0 1.32292,-0.0978 1.32292,-0.2173 z m 1.5875,-0.0473 c 0,-0.14552 -0.1786,-0.26459 -0.39688,-0.26459 -0.21828,0 -0.39687,0.11907 -0.39687,0.26459 0,0.14552 0.17859,0.26458 0.39687,0.26458 0.21828,0 0.39688,-0.11906 0.39688,-0.26458 z m -14.2875,-0.91043 c 0,-0.20969 -0.12641,-0.45938 -0.28091,-0.55487 -0.15449,-0.0955 -0.39704,-0.47908 -0.539,-0.85245 -0.19056,-0.50121 -0.33566,-0.60127 -0.55455,-0.38238 -0.21888,0.21888 -0.20783,0.40323 0.0422,0.70454 0.39282,0.47331 0.19072,0.52379 -0.53725,0.13419 -0.4094,-0.2191 -0.51177,-0.18698 -0.51177,0.1606 0,0.2733 -0.1441,0.3792 -0.38841,0.28545 -0.21362,-0.082 -0.45877,-0.0352 -0.54478,0.10399 -0.32907,0.53245 0.22729,0.78219 1.74255,0.78219 1.19223,0 1.57189,-0.0921 1.57189,-0.38126 z m 8.87256,0.13127 c -0.0952,-0.15411 -0.96563,-0.27085 -1.94287,-0.26058 -2.05786,0.0216 -1.52592,0.39244 0.69166,0.48216 0.94393,0.0382 1.3656,-0.0365 1.25121,-0.22158 z m 3.26624,0.12977 c -0.20687,-0.20688 -2.0565,-0.2607 -2.25168,-0.0655 -0.10215,0.10216 0.38973,0.18574 1.09308,0.18574 0.70336,0 1.22472,-0.0541 1.1586,-0.12022 z m 1.54787,-0.30422 c -0.0879,-0.0879 -0.31612,-0.0973 -0.50712,-0.0209 -0.21106,0.0845 -0.14837,0.14715 0.15986,0.15985 0.27891,0.0115 0.43518,-0.0511 0.34726,-0.13897 z m -5.52969,-0.9846 c 0.0504,-0.26565 -0.12723,-0.64882 -0.39467,-0.85148 -0.66913,-0.50705 -0.88315,-0.4742 -0.88315,0.13555 0,0.35429 -0.12692,0.47216 -0.39687,0.36857 -0.27755,-0.10651 -0.39688,0.0201 -0.39688,0.42115 0,0.50066 0.12565,0.56302 0.98999,0.49133 0.70901,-0.0588 1.01598,-0.21921 1.08158,-0.56512 z m 3.61697,0.35071 c -0.0899,-0.14552 -0.81133,-0.26459 -1.60311,-0.26459 -0.79178,0 -1.43959,0.11907 -1.43959,0.26459 0,0.14727 0.71076,0.26458 1.60311,0.26458 1.00137,0 1.54174,-0.0993 1.43959,-0.26458 z m -1.02738,-0.9161 c -0.017,-0.14006 -0.47743,-0.27759 -1.02314,-0.30564 -0.72232,-0.0371 -0.99218,0.0554 -0.99218,0.34036 0,0.29273 0.25784,0.36976 1.02313,0.30564 0.56272,-0.0472 1.0092,-0.20031 0.99219,-0.34036 z m -20.80074,9.71504 c 0,-0.55594 3.58815,-0.7931 5.02708,-0.33228 0.47621,0.15251 0.14275,0.22004 -1.19062,0.24113 -1.01865,0.0161 -2.29857,0.10308 -2.84427,0.19328 -0.59761,0.0988 -0.99219,0.0582 -0.99219,-0.10213 z m 0.79375,-8.00519 c 0,-0.14552 0.11906,-0.26459 0.26458,-0.26459 0.14552,0 0.26459,0.11907 0.26459,0.26459 0,0.14552 -0.11907,0.26458 -0.26459,0.26458 -0.14552,0 -0.26458,-0.11906 -0.26458,-0.26458 z"
       id="path15" />
  </g>
</svg>
