<?xml version="1.0" encoding="UTF-8" standalone="no"?>
<!-- Created with Inkscape (http://www.inkscape.org/) -->

<svg
   width="37.667057mm"
   height="14.485013mm"
   viewBox="0 0 37.667057 14.485013"
   version="1.1"
   id="svg1"
   inkscape:version="1.4.2 (2aeb623e1d, 2025-05-12)"
   sodipodi:docname="forest3.svg"
   xmlns:inkscape="http://www.inkscape.org/namespaces/inkscape"
   xmlns:sodipodi="http://sodipodi.sourceforge.net/DTD/sodipodi-0.dtd"
   xmlns="http://www.w3.org/2000/svg"
   xmlns:svg="http://www.w3.org/2000/svg">
  <sodipodi:namedview
     id="namedview1"
     pagecolor="#ffffff"
     bordercolor="#000000"
     borderopacity="0.25"
     inkscape:showpageshadow="2"
     inkscape:pageopacity="0.0"
     inkscape:pagecheckerboard="0"
     inkscape:deskcolor="#d1d1d1"
     inkscape:document-units="mm"
     inkscape:zoom="0.7349537"
     inkscape:cx="317.02677"
     inkscape:cy="418.3937"
     inkscape:window-width="1854"
     inkscape:window-height="1011"
     inkscape:window-x="0"
     inkscape:window-y="0"
     inkscape:window-maximized="1"
     inkscape:current-layer="layer1" />
  <defs
     id="defs1" />
  <g
     inkscape:label="Layer 1"
     inkscape:groupmode="layer"
     id="layer1"
     transform="translate(-21.166666,-37.835418)">
    <path
       style="fill:#000000"
       d="m 50.64975,52.048838 c -0.30959,-0.11352 -1.10838,-0.25557 -1.7751,-0.31567 -0.66672,-0.0601 -2.10519,-0.18796 -3.19659,-0.28414 -1.09141,-0.0962 -2.34597,-0.21071 -2.78791,-0.25451 -0.75831,-0.0752 -3.15414,-1.15524 -2.97032,-1.33906 0.29322,-0.29322 4.66934,-0.0948 9.72698,0.44114 2.23423,0.23674 5.20882,0.93904 4.97359,1.17427 -0.0483,0.0483 -1.27637,-0.0806 -2.72912,-0.2864 -3.61593,-0.51222 -4.37398,-0.44681 -1.89147,0.16319 2.45353,0.60289 3.41389,1.04655 2.08355,0.96255 -0.4789,-0.0302 -1.12403,-0.14786 -1.43361,-0.26137 z m -3.11961,-1.24882 c -0.51815,-0.33486 -0.86841,-0.33486 -0.66146,0 0.0899,0.14552 0.36485,0.26276 0.61093,0.26053 0.38557,-0.003 0.39255,-0.0395 0.0505,-0.26053 z m -1.08038,-0.10314 c -0.26683,-0.24964 -2.37233,-0.39674 -2.22313,-0.15532 0.0879,0.14215 0.64881,0.25846 1.24655,0.25846 0.59775,0 1.03721,-0.0464 0.97658,-0.10314 z m -4.01836,-0.3213 c -0.0879,-0.0879 -0.31612,-0.0973 -0.50712,-0.0209 -0.21107,0.0845 -0.14837,0.14715 0.15985,0.15985 0.27892,0.0115 0.43519,-0.0511 0.34727,-0.13897 z m -21.037771,0.53457 c -0.38402,-0.2808 -0.322395,-0.36737 0.508701,-0.71463 0.52011,-0.21731 1.349687,-0.48161 1.843503,-0.58732 0.493816,-0.10571 1.056609,-0.32034 1.250651,-0.47695 0.194041,-0.15661 0.551228,-0.31129 0.79375,-0.34374 1.616091,-0.2162 2.192918,-0.37763 2.821822,-0.7897 0.693822,-0.45461 0.698622,-0.4758 0.199837,-0.88231 -1.46264,-1.19207 -2.307305,-3.6498 -1.586583,-4.61651 0.348914,-0.468 0.393842,-0.44485 0.800683,0.4125 0.237065,0.49958 0.369672,1.14295 0.294681,1.42972 -0.218849,0.83687 0.33537,1.90145 1.23102,2.36461 0.456337,0.23598 0.867661,0.39051 0.914054,0.3434 0.04639,-0.0471 0.236316,-0.85956 0.422052,-1.80545 0.418203,-2.12975 0.602124,-2.38125 1.741392,-2.38125 0.500093,0 0.841827,-0.10911 0.759408,-0.24247 -0.08242,-0.13335 -0.562307,-0.20974 -1.066418,-0.16974 -0.504111,0.04 -0.853397,-0.0295 -0.77619,-0.15441 0.07721,-0.12492 0.669131,-0.22713 1.315387,-0.22713 0.845291,0 1.17501,-0.10671 1.17501,-0.38029 0,-0.27047 -0.309299,-0.37602 -1.071065,-0.36551 -0.589085,0.008 -1.14471,-0.0589 -1.234722,-0.14888 -0.09001,-0.09 0.281635,-0.16365 0.825882,-0.16365 0.797509,0 0.972348,-0.0893 0.900955,-0.45999 -0.04872,-0.25299 -0.325343,-0.50181 -0.614713,-0.55293 -0.289371,-0.0511 -0.715953,-0.33459 -0.94796,-0.62993 -0.405667,-0.5164 -0.417161,-0.50281 -0.299953,0.3545 0.09358,0.68448 0.04845,0.82212 -0.194361,0.59278 -0.173932,-0.16428 -0.382051,-0.78936 -0.462488,-1.38906 -0.126475,-0.94294 -0.07893,-1.09037 0.351608,-1.09039 0.273823,0 0.869596,0.44276 1.323941,0.98392 0.764276,0.91032 0.878102,0.96023 1.521354,0.66715 0.3824,-0.17424 0.695272,-0.49794 0.695272,-0.71934 0,-0.79954 2.646431,-0.10343 3.332934,0.87669 0.541071,0.77249 0.797097,0.72775 1.986897,-0.34716 1.15417,-1.04273 1.53936,-1.00999 2.7081,0.23015 l 0.7519,0.79782 0.49376,-0.64929 c 0.36542,-0.48052 0.59018,-0.58052 0.86464,-0.38472 1.93564,1.3809 1.70983,1.33069 2.44017,0.54264 0.81753,-0.88213 1.17542,-0.78974 1.79704,0.46396 0.49977,1.00795 0.97039,1.28554 0.97039,0.57238 0,-0.52294 1.05712,-0.92488 1.63573,-0.62195 0.24481,0.12817 0.52072,0.47129 0.61314,0.76249 0.11647,0.36695 0.40028,0.52944 0.92476,0.52944 0.5097,0 0.94444,0.23751 1.33181,0.72761 0.3521,0.44549 0.83091,0.7276 1.23488,0.7276 1.00705,0 2.10613,1.73438 2.32981,3.67651 l 0.17965,1.55984 -0.94989,-0.15414 c -0.52244,-0.0848 -0.94989,-0.0578 -0.94989,0.06 0,0.11777 0.46942,0.28919 1.04315,0.38093 0.57374,0.0917 1.12673,0.30204 1.22888,0.46732 0.1335,0.216 -0.0995,0.24699 -0.82873,0.11019 -0.93941,-0.17623 -0.98646,-0.15659 -0.63607,0.2656 0.35422,0.42681 0.26161,0.44341 -1.45116,0.25999 -1.00624,-0.10776 -1.98738,-0.2565 -2.1803,-0.33053 -0.19292,-0.074 -0.35077,-0.007 -0.35077,0.14809 0,0.15548 0.44649,0.40631 0.99219,0.5574 0.5457,0.15109 1.17078,0.40161 1.38906,0.5567 0.3244,0.23049 0.30024,0.25679 -0.13229,0.14402 -2.72038,-0.70924 -15.09058,-1.75495 -15.77275,-1.33334 -0.12245,0.0757 -1.148046,-0.0627 -2.279107,-0.30741 -2.994272,-0.64795 -4.505556,-0.86073 -6.26776,-0.88247 -2.282058,-0.0282 -1.609245,0.28106 1.169453,0.53746 1.319753,0.12178 2.603595,0.34964 2.852983,0.50637 0.353097,0.22189 0.219245,0.25461 -0.604902,0.14783 -0.582083,-0.0754 -2.010833,-0.1969 -3.175,-0.26996 l -2.116666,-0.13283 1.852083,0.34954 c 2.001684,0.37779 2.778125,0.64133 2.778125,0.94297 0,0.24564 -2.544928,-0.10659 -3.522953,-0.48761 -0.409656,-0.15959 -1.004968,-0.28077 -1.322917,-0.26928 -0.379217,0.0137 -0.185561,0.15972 0.562927,0.42444 1.544467,0.54623 1.289599,0.65464 -0.620792,0.26405 -0.868206,-0.17751 -1.935744,-0.25826 -2.372306,-0.17945 -0.709415,0.12808 -0.629926,0.18032 0.748132,0.49172 2.042638,0.46156 1.793362,0.61753 -0.432997,0.27092 -1.983201,-0.30876 -2.934383,-0.17427 -1.50576,0.21291 0.771347,0.20904 0.536385,0.25064 -1.406549,0.24902 -1.401751,-0.001 -2.506961,-0.12944 -2.769545,-0.32145 z M 52.2441,49.355768 c -0.25937,-0.21167 -2.06813,-0.33707 -2.06813,-0.14338 0,0.12715 0.38696,0.27135 0.8599,0.32045 0.78725,0.0817 1.41296,-0.01 1.20823,-0.17707 z m -3.00547,-0.42612 c -0.19767,-0.31983 -1.17932,-0.32076 -1.17932,-10e-4 0,0.26801 0.80369,0.51823 1.12879,0.35144 0.11152,-0.0572 0.13425,-0.21486 0.0505,-0.35033 z m -5.11629,-0.22665 c -0.15911,-0.0983 -0.73737,-0.11774 -1.28502,-0.0431 l -0.99572,0.1357 1.05833,0.15418 c 1.12618,0.16407 1.6998,0.0483 1.22241,-0.24677 z m 3.14322,0.10968 c 0,-0.24378 -0.2521,-0.39391 -0.66146,-0.39391 -0.3638,0 -0.66146,0.15263 -0.66146,0.33917 0,0.18654 0.29766,0.3638 0.66146,0.39391 0.43387,0.0359 0.66146,-0.0808 0.66146,-0.33917 z m 8.20208,-0.12933 c -0.21828,-0.14106 -0.78383,-0.2583 -1.25677,-0.26053 -0.47294,-0.002 -0.8599,-0.13041 -0.8599,-0.28485 0,-0.18285 0.41528,-0.21852 1.19063,-0.10225 0.80519,0.12075 1.19062,0.0832 1.19062,-0.11608 0,-0.17716 -0.52743,-0.29462 -1.32291,-0.29462 -1.31979,0 -1.46578,0.11359 -1.16232,0.9044 0.11488,0.29939 0.51027,0.41736 1.38906,0.41446 0.89068,-0.003 1.11934,-0.0746 0.83159,-0.26053 z m -15.1474,-0.18951 c -0.40018,-0.0606 -1.05502,-0.0606 -1.455205,0 -0.400183,0.0606 -0.07276,0.11023 0.727605,0.11023 0.80036,0 1.12779,-0.0496 0.7276,-0.11023 z m 11.44323,-0.0751 c -0.52146,-0.337 -1.5875,-0.337 -1.5875,0 0,0.14552 0.44649,0.26276 0.99219,0.26053 0.73802,-0.003 0.89052,-0.0697 0.59531,-0.26053 z m -6.58977,-1.13932 c -0.20947,-0.20948 -0.28939,-0.14082 -0.28939,0.24859 0,0.69949 0.37,1.07077 0.48783,0.48952 0.05,-0.2468 -0.0393,-0.57895 -0.19844,-0.73811 z m 3.67936,0.85832 c 0,-0.13647 -0.23813,-0.24814 -0.52917,-0.24814 -0.29104,0 -0.52917,0.0937 -0.52917,0.20828 0,0.11456 0.23813,0.22622 0.52917,0.24814 0.29104,0.0219 0.52917,-0.0718 0.52917,-0.20828 z m 3.78083,-0.24814 c -0.0761,-0.29104 -0.24356,-0.52916 -0.37211,-0.52916 -0.27661,0 -0.28626,0.0844 -0.0731,0.63982 0.23312,0.6075 0.60863,0.51417 0.44523,-0.11066 z m -16.480834,0.0106 c 0,-0.16984 -0.78492,-0.26185 -2.050521,-0.24035 -1.43286,0.0243 -1.771577,0.0841 -1.124479,0.19844 1.718225,0.30356 3.175,0.32279 3.175,0.0419 z m 4.050514,-0.007 c 0.60372,-0.002 0.94224,-0.1097 0.84428,-0.2682 -0.20498,-0.33166 -3.571878,-0.35244 -3.571878,-0.0221 0,0.34538 0.571576,0.54117 1.190625,0.40783 0.291043,-0.0627 0.982683,-0.1156 1.536973,-0.11758 z m 4.14752,-0.33435 c -0.002,-0.34358 -0.0862,-0.47159 -0.19844,-0.30274 -0.10691,0.16091 -0.67064,0.41649 -1.25272,0.56797 l -1.05833,0.2754 1.25677,0.0273 c 1.13615,0.0247 1.25638,-0.0298 1.25272,-0.56797 z m 2.91447,0.33073 c 0,-0.14552 -0.29766,-0.26458 -0.66146,-0.26458 -0.3638,0 -0.66146,0.11906 -0.66146,0.26458 0,0.14552 0.29766,0.26459 0.66146,0.26459 0.3638,0 0.66146,-0.11907 0.66146,-0.26459 z m -15.449822,-0.41851 c -0.08833,-0.23018 -0.160599,-0.8255 -0.160599,-1.32292 0,-0.49742 -0.119062,-0.9044 -0.264583,-0.9044 -0.145521,0 -0.264584,0.45244 -0.264584,1.00542 0,0.55298 -0.142875,1.14829 -0.3175,1.32291 -0.246944,0.24695 -0.152459,0.3175 0.425183,0.3175 0.568527,0 0.705023,-0.0981 0.582083,-0.41851 z m 17.614992,-0.16798 c -0.18986,-0.18986 -0.31309,-0.20548 -0.31309,-0.0397 0,0.35316 0.3129,0.66606 0.48948,0.48948 0.0752,-0.0752 -0.004,-0.27759 -0.17639,-0.44979 z m 1.80358,0.32191 c 0,-0.14552 -0.23813,-0.26458 -0.52917,-0.26458 -0.29104,0 -0.52917,0.11906 -0.52917,0.26458 0,0.14552 0.23813,0.26458 0.52917,0.26458 0.29104,0 0.52917,-0.11906 0.52917,-0.26458 z m -14.641443,-0.8599 c -0.0734,-0.1819 -0.133452,-0.0331 -0.133452,0.33073 0,0.36381 0.06005,0.51263 0.133452,0.33073 0.0734,-0.1819 0.0734,-0.47955 0,-0.66146 z m 5.009773,0.19802 c -0.0961,-0.90119 -0.4225,-1.17342 -0.4225,-0.35236 0,0.57074 0.18493,1.01424 0.42292,1.01424 0.0386,0 0.0384,-0.29785 -4.2e-4,-0.66188 z m 6.98583,0.5579 c 0,-0.251 -0.792,-0.37749 -0.93318,-0.14905 -0.086,0.13917 0.0888,0.25303 0.3884,0.25303 0.29963,0 0.54478,-0.0468 0.54478,-0.10398 z m -13.163019,-0.352 c -0.472942,-0.0587 -1.246848,-0.0587 -1.719791,0 -0.472943,0.0587 -0.08599,0.10671 0.859896,0.10671 0.945885,0 1.332838,-0.048 0.859895,-0.10671 z m 11.310939,-0.12949 c 0,-0.11455 -0.23813,-0.20828 -0.52917,-0.20828 -0.29104,0 -0.52916,0.11166 -0.52916,0.24814 0,0.13648 0.23812,0.2302 0.52916,0.20828 0.29104,-0.0219 0.52917,-0.13359 0.52917,-0.24814 z m 10.71562,0.0563 c -0.0899,-0.14552 -0.57321,-0.26458 -1.07394,-0.26458 -0.50074,0 -0.91043,0.11906 -0.91043,0.26458 0,0.14552 0.48328,0.26459 1.07395,0.26459 0.64859,0 1.00918,-0.1048 0.91042,-0.26459 z m -16.53645,-0.42582 c 0,-0.0568 -0.80368,-0.0877 -1.78594,-0.0685 -1.356416,0.0264 -1.563224,0.0743 -0.859898,0.19902 0.905398,0.16054 2.645838,0.0747 2.645838,-0.13051 z m 2.24895,0.16124 c 0.19341,-0.31294 -0.0655,-0.31294 -0.79375,0 -0.51017,0.21923 -0.50836,0.22806 0.0505,0.24599 0.31884,0.0102 0.65329,-0.10047 0.74322,-0.24599 z m 12.03855,-0.26458 c 0,-0.14552 0.32742,-0.27867 0.7276,-0.29589 l 0.7276,-0.0313 -0.79375,-0.20197 c -0.43656,-0.11109 -1.38906,-0.19666 -2.11666,-0.19015 l -1.32292,0.0118 1.45521,0.17833 1.45521,0.17833 -1.38907,0.0431 c -1.77145,0.055 -1.83124,0.57229 -0.0661,0.57229 0.72761,0 1.32292,-0.11906 1.32292,-0.26458 z m -21.960421,-0.54778 -0.926042,-0.17631 0.976573,-0.0348 c 1.557636,-0.0556 1.500641,-0.564 -0.06322,-0.564 -1.137676,0 -1.339913,0.0702 -1.206239,0.41851 0.08833,0.23019 0.160599,0.50394 0.160599,0.60833 0,0.1044 0.446484,0.13015 0.992187,0.0572 l 0.992188,-0.1326 z m 13.111461,0.0422 c -0.14171,-0.22929 -1.99896,-0.0335 -1.99896,0.21078 0,0.0971 0.47559,0.13112 1.05686,0.0757 0.58127,-0.0554 1.00522,-0.18434 0.9421,-0.28647 z m 1.89813,0.34571 c -0.0879,-0.0879 -0.31612,-0.0973 -0.50712,-0.0209 -0.21106,0.0845 -0.14837,0.14715 0.15986,0.15985 0.27891,0.0115 0.43518,-0.0511 0.34726,-0.13897 z m 3.11437,-0.10473 c 0.40831,-0.17546 0.26879,-0.23163 -0.61093,-0.24598 -0.69679,-0.0114 -1.07651,0.0843 -0.97657,0.24598 0.19446,0.31465 0.85527,0.31465 1.5875,0 z m -10.45104,-0.26455 c 0,-0.14552 -0.29063,-0.26458 -0.64585,-0.26458 -0.35521,0 -0.71943,0.11906 -0.80936,0.26458 -0.0954,0.15436 0.17364,0.26458 0.64584,0.26458 0.44515,0 0.80937,-0.11906 0.80937,-0.26458 z m 3.175,-0.0517 c 0,-0.11707 -0.47625,-0.21285 -1.05834,-0.21285 -0.58208,0 -1.05833,0.12388 -1.05833,0.2753 0,0.1552 0.46169,0.24806 1.05833,0.21285 0.58209,-0.0343 1.05834,-0.15823 1.05834,-0.2753 z m -6.350004,-0.22636 c -0.654844,-0.11652 -1.488282,-0.21231 -1.852084,-0.21287 -0.602726,-9.2e-4 -0.614472,0.0192 -0.132291,0.22638 0.291041,0.12506 1.124479,0.22085 1.852083,0.21287 l 1.322917,-0.0145 z m 11.377084,0.0135 c 0,-0.14552 -0.47625,-0.26459 -1.05833,-0.26459 -0.58209,0 -1.05834,0.11907 -1.05834,0.26459 0,0.14552 0.47625,0.26458 1.05834,0.26458 0.58208,0 1.05833,-0.11906 1.05833,-0.26458 z m 2.21923,-0.31269 c -0.0736,-0.11907 -0.42442,-0.21648 -0.77964,-0.21648 -0.35521,0 -0.64584,0.0974 -0.64584,0.21648 0,0.11906 0.35083,0.21647 0.77963,0.21647 0.4288,0 0.71943,-0.0974 0.64585,-0.21647 z m -6.7665,-0.81179 c 0.0663,-0.34804 -0.0973,-0.46957 -0.65885,-0.4894 -0.41085,-0.0145 -1.04466,-0.12103 -1.40846,-0.23672 -0.50388,-0.16024 -0.35102,-0.2028 0.6416,-0.17865 0.81785,0.0199 1.3433,-0.089 1.41111,-0.29245 0.0657,-0.19719 0.61751,-0.32414 1.40892,-0.32414 1.15196,0 1.30087,-0.0647 1.30087,-0.56497 0,-0.64876 -1.22837,-1.90594 -1.6236,-1.66168 -0.14526,0.0898 -0.32951,-0.0869 -0.40945,-0.39256 -0.0799,-0.30568 -0.25435,-0.55579 -0.38759,-0.55579 -0.36672,0 -0.73581,1.15166 -0.46214,1.44198 0.37316,0.39586 0.29374,1.79795 -0.0938,1.65585 -0.1819,-0.0667 -0.2936,-0.2773 -0.24822,-0.46801 0.17349,-0.7291 -0.22801,-1.57148 -0.74901,-1.57148 -0.28827,0 -0.52412,-0.16745 -0.52412,-0.37211 0,-0.24633 -0.18558,-0.32357 -0.54905,-0.22852 -0.42651,0.11153 -0.52984,0.0343 -0.46302,-0.34591 0.1557,-0.88596 -0.75339,-0.71923 -1.51373,0.27763 -0.39764,0.52134 -0.64789,1.02299 -0.5561,1.11478 0.0918,0.0918 0.0191,0.34953 -0.16154,0.57276 -0.26198,0.32374 -0.26152,0.36566 0.002,0.20717 0.1819,-0.10929 0.33073,-0.0726 0.33073,0.0815 0,0.3357 -0.26935,0.35293 -0.75041,0.048 -0.194445,-0.12325 -0.313508,-0.50838 -0.264585,-0.85585 0.07176,-0.50968 -0.02607,-0.62769 -0.506363,-0.61074 -0.401097,0.0142 -0.595312,-0.1318 -0.595312,-0.4474 0,-0.55891 -0.424251,-0.88346 -0.658791,-0.50396 -0.24708,0.39978 -0.664126,0.32526 -0.664126,-0.11867 0,-0.21316 -0.238125,-0.51501 -0.529167,-0.67077 -0.462006,-0.24725 -0.529166,-0.20121 -0.529166,0.3628 0,0.52607 -0.10319,0.61901 -0.555854,0.50064 -0.438917,-0.11478 -0.53558,-0.04 -0.459485,0.3555 0.07527,0.3912 0.348461,0.51044 1.247863,0.54463 0.633321,0.0241 1.286573,0.17981 1.451672,0.34606 0.22492,0.2265 -0.0082,0.26073 -0.929784,0.13655 -1.908918,-0.25722 -1.811005,0.31314 0.104247,0.60726 l 1.654882,0.25414 -1.433159,0.0337 c -0.788238,0.0185 -1.343495,0.12301 -1.233904,0.23215 0.190282,0.1895 0.409065,0.2209 2.071751,0.2973 0.400182,0.0184 0.727604,0.13252 0.727604,0.25364 0,0.12111 -0.654844,0.1659 -1.455208,0.0995 -0.972233,-0.0806 -1.455209,-0.022 -1.455209,0.17667 0,0.18364 0.550505,0.29735 1.439594,0.29735 0.791776,0 1.523104,0.13512 1.625173,0.30027 0.134088,0.21696 -0.155227,0.24917 -1.042718,0.11608 -0.805461,-0.12078 -1.228299,-0.0875 -1.228299,0.0966 0,0.15444 0.327422,0.29267 0.727604,0.30717 0.400183,0.0145 1.025261,0.12489 1.389063,0.2453 0.42983,0.14226 0.0129,0.18271 -1.190625,0.11552 -1.310359,-0.0731 -1.619916,-0.038 -1.058333,0.12028 1.287582,0.36283 2.903541,0.31504 3.455155,-0.10218 0.63542,-0.48061 5.28781,-0.58776 4.99566,-0.11506 -0.10927,0.1768 -0.91681,0.26589 -2.06614,0.22795 -2.25283,-0.0744 -2.54804,-0.0501 -2.5488,0.20942 -3.3e-4,0.10914 1.09983,0.13891 2.44478,0.0661 2.05616,-0.11124 2.45941,-0.20599 2.53353,-0.59531 z m -5.26764,-0.89042 c -0.30688,-0.36976 -0.28745,-0.41435 0.14411,-0.33072 0.27436,0.0532 0.54838,0.24549 0.60894,0.42739 0.15716,0.47199 -0.33337,0.40902 -0.75305,-0.0967 z m 6.97567,1.57676 c -0.17913,-0.0725 -0.53632,-0.0769 -0.79375,-0.01 -0.25743,0.0671 -0.11086,0.12638 0.3257,0.13177 0.43656,0.005 0.64719,-0.0495 0.46805,-0.12197 z m 8.92466,-0.13513 c 0,-0.12126 -0.46652,-0.22048 -1.0367,-0.22048 -0.57018,0 -1.22502,-0.0723 -1.45521,-0.1606 -0.23018,-0.0883 -0.41851,-0.0367 -0.41851,0.11471 0,0.27144 0.75879,0.43453 2.18281,0.46916 0.40018,0.01 0.72761,-0.0815 0.72761,-0.20279 z m 1.32291,0.0441 c 0,-0.14552 -0.17859,-0.26458 -0.39687,-0.26458 -0.21828,0 -0.39688,0.11906 -0.39688,0.26458 0,0.14552 0.1786,0.26458 0.39688,0.26458 0.21828,0 0.39687,-0.11906 0.39687,-0.26458 z m -7.40833,-0.22171 c 0,-0.31342 -1.79795,-0.34452 -1.9896,-0.0344 -0.0921,0.14906 0.29067,0.25614 0.91565,0.25614 0.59067,0 1.07395,-0.0998 1.07395,-0.22171 z m 2.07216,-0.0596 c 0.90646,-0.0157 0.92754,-0.0339 0.31928,-0.27676 -0.85158,-0.33995 -1.92162,-0.20105 -2.07641,0.26954 -0.0861,0.26167 0.013,0.32086 0.33196,0.19844 0.25004,-0.0959 0.89137,-0.182 1.42517,-0.19122 z m -4.18883,-0.40842 c 0,-0.0572 -0.32742,-0.10216 -0.7276,-0.0999 -0.52954,0.003 -0.6261,0.0683 -0.35472,0.24011 0.3369,0.21327 1.08232,0.11673 1.08232,-0.14018 z m -12.303123,-0.10404 c 0.213066,-0.34475 -1.980084,-0.34475 -2.513541,0 -0.284437,0.18382 -0.0078,0.25763 0.976572,0.26053 0.755396,0.002 1.447032,-0.11501 1.536969,-0.26053 z m 20.240623,-0.0441 c 0,-0.12126 -0.44648,-0.23832 -0.99219,-0.26013 -0.79809,-0.0319 -0.84985,-0.0612 -0.26458,-0.14986 0.82294,-0.12467 0.99761,-0.60424 0.22008,-0.60424 -0.27914,0 -0.68067,-0.0664 -0.89229,-0.14765 -0.29086,-0.11161 -0.35388,0.0139 -0.25822,0.51429 0.0911,0.47641 0.32263,0.68587 0.82614,0.74732 1.17314,0.14315 1.36106,0.12938 1.36106,-0.0997 z m -5.46,-0.53852 c 0.40671,-0.64969 0.0702,-0.83406 -1.0761,-0.58951 l -1.00452,0.21431 1.05833,0.17678 c 0.96438,0.16109 0.98787,0.1829 0.26458,0.24566 -0.43656,0.0379 -0.88304,0.0548 -0.99218,0.0375 -0.10914,-0.0172 -0.19844,0.0953 -0.19844,0.25001 0,0.44594 1.63552,0.16489 1.94833,-0.3348 z m 6.87918,0.18726 c -0.0834,-0.21744 -0.2583,-0.32948 -0.38857,-0.24896 -0.37357,0.23088 -0.27622,0.64432 0.15171,0.64432 0.23603,0 0.32902,-0.1552 0.23686,-0.39536 z m -9.35668,-0.13381 c 0,-0.14552 -0.35718,-0.26458 -0.79375,-0.26458 -0.43656,0 -0.79375,0.11906 -0.79375,0.26458 0,0.14552 0.35719,0.26459 0.79375,0.26459 0.43657,0 0.79375,-0.11907 0.79375,-0.26459 z m 4.56406,0.0709 c -0.61846,-0.0557 -1.12447,-0.22675 -1.12447,-0.3801 0,-0.17535 0.34365,-0.21435 0.92604,-0.10509 0.50988,0.0957 0.92604,0.065 0.92604,-0.0682 0,-0.39551 -1.93293,-0.60717 -2.16788,-0.23738 -0.48767,0.76754 -0.21568,0.9846 1.17569,0.9383 1.32802,-0.0442 1.33965,-0.0507 0.26458,-0.1475 z m -16.999474,-0.33544 c 0,-0.14552 -0.654844,-0.26458 -1.455209,-0.26458 -0.800364,0 -1.455208,0.11906 -1.455208,0.26458 0,0.14552 0.654844,0.26458 1.455208,0.26458 0.800365,0 1.455209,-0.11906 1.455209,-0.26458 z m 0,-0.79375 c 0,-0.14552 -0.112036,-0.26458 -0.248969,-0.26458 -0.136932,0 -0.322553,0.11906 -0.41249,0.26458 -0.08994,0.14552 0.0221,0.26458 0.248969,0.26458 0.226869,0 0.41249,-0.11906 0.41249,-0.26458 z m 19.457754,-0.24698 c -0.21427,-0.3467 -1.2015,-0.37628 -1.2015,-0.036 0,0.1354 0.26789,0.28897 0.59531,0.34127 0.72392,0.11562 0.83251,0.0609 0.60619,-0.30526 z m -4.5088,-0.0176 c 0.0973,-0.15746 -0.21773,-0.26459 -0.77813,-0.26459 -0.51791,0 -0.94166,0.11907 -0.94166,0.26459 0,0.14552 0.35016,0.26458 0.77814,0.26458 0.42797,0 0.85172,-0.11906 0.94165,-0.26458 z m 2.4915,-0.0943 c -0.29761,-0.25453 -1.83004,-0.3916 -1.83004,-0.16368 0,0.14188 0.43656,0.25797 0.97014,0.25797 0.53358,0 0.92053,-0.0424 0.8599,-0.0943 z m -2.62431,-0.73475 c 2.9e-4,-0.0922 -0.2376,-0.22985 -0.52864,-0.30596 -0.31661,-0.0828 -0.52917,-0.3609 -0.52917,-0.69232 0,-0.64327 -0.32926,-0.71674 -0.77971,-0.17397 -0.52522,0.63285 0.0968,1.46151 1.04723,1.39505 0.43437,-0.0304 0.79,-0.13063 0.79029,-0.2228 z m 2.31563,-0.29544 c -0.0606,-0.1819 -0.32853,-0.33073 -0.59532,-0.33073 -0.26678,0 -0.53467,0.14883 -0.59531,0.33073 -0.0698,0.20946 0.14846,0.33073 0.59531,0.33073 0.44686,0 0.66514,-0.12127 0.59532,-0.33073 z m -23.613221,0.83248 c -0.399189,-0.84524 -0.392798,-0.96151 0.107561,-1.95696 0.431184,-0.85783 0.533965,-0.94306 0.54251,-0.44988 0.0058,0.33465 0.197915,0.97079 0.426927,1.41365 0.482723,0.93348 0.288893,1.35427 -0.278412,0.60441 -0.21215,-0.28042 -0.389513,-0.38483 -0.394141,-0.23204 -0.0046,0.1528 0.13446,0.42069 0.309085,0.59532 0.238694,0.23869 0.242215,0.39278 0.01419,0.62081 -0.228027,0.22803 -0.408654,0.0803 -0.727718,-0.59531 z m 1.337075,-1.35437 c -0.448293,-0.64003 -0.553718,-1.93891 -0.176306,-2.17216 0.129564,-0.0801 0.31277,0.26591 0.407123,0.76885 0.256269,1.36604 0.634398,1.36774 0.480478,0.002 -0.165427,-1.46766 0.08365,-1.5412 0.46193,-0.13638 0.214712,0.79738 0.201875,1.17866 -0.05345,1.5875 -0.427457,0.68446 -0.611098,0.67627 -1.119778,-0.05 z"
       id="path8" />
  </g>
</svg>
