<?xml version="1.0" encoding="UTF-8" standalone="no"?>
<!-- Created with Inkscape (http://www.inkscape.org/) -->

<svg
   width="76.09343mm"
   height="31.841562mm"
   viewBox="0 0 76.09343 31.841562"
   version="1.1"
   id="svg1"
   inkscape:version="1.4.2 (2aeb623e1d, 2025-05-12)"
   sodipodi:docname="forest1.svg"
   xmlns:inkscape="http://www.inkscape.org/namespaces/inkscape"
   xmlns:sodipodi="http://sodipodi.sourceforge.net/DTD/sodipodi-0.dtd"
   xmlns="http://www.w3.org/2000/svg"
   xmlns:svg="http://www.w3.org/2000/svg">
  <sodipodi:namedview
     id="namedview1"
     pagecolor="#ffffff"
     bordercolor="#000000"
     borderopacity="0.25"
     inkscape:showpageshadow="2"
     inkscape:pageopacity="0.0"
     inkscape:pagecheckerboard="0"
     inkscape:deskcolor="#d1d1d1"
     inkscape:document-units="mm"
     inkscape:zoom="0.71535494"
     inkscape:cx="190.11541"
     inkscape:cy="529.10797"
     inkscape:window-width="1854"
     inkscape:window-height="1011"
     inkscape:window-x="0"
     inkscape:window-y="0"
     inkscape:window-maximized="1"
     inkscape:current-layer="layer1" />
  <defs
     id="defs1" />
  <g
     inkscape:label="Layer 1"
     inkscape:groupmode="layer"
     id="layer1"
     transform="translate(-54.779823,-8.5511412)">
    <path
       style="fill:#000000"
       d="m 64.859792,40.242319 c -0.58208,-0.124845 -1.26669,-0.229607 -1.52135,-0.232803 -0.25466,-0.0032 -0.46302,-0.122961 -0.46302,-0.266143 0,-0.371653 2.22988,-0.207241 2.79514,0.206089 0.65395,0.478177 0.43016,0.55901 -0.81077,0.292857 z m 1.19063,-0.998818 c -1.28636,-0.342548 -1.59809,-0.509419 -1.23691,-0.662118 0.59011,-0.249484 2.37551,0.252861 2.82542,0.794966 0.1806,0.217612 0.28402,0.379787 0.22982,0.360389 -0.0542,-0.0194 -0.87245,-0.241355 -1.81833,-0.493237 z m 1.08498,-1.447408 c -0.49467,-0.178904 -0.79233,-0.388998 -0.66146,-0.466877 0.34747,-0.206782 3.61382,0.288883 3.91975,0.594818 0.37415,0.374143 -2.14336,0.27529 -3.25829,-0.127941 z m 2.02387,-0.751474 c -0.98226,-0.146552 -1.78594,-0.368063 -1.78594,-0.492246 0,-0.247622 2.76373,-0.10047 3.50573,0.186659 0.44566,0.172456 0.67095,0.693471 0.26459,0.611885 -0.10914,-0.02191 -1.00211,-0.159746 -1.98438,-0.306298 z m 1.12448,-0.844487 c -0.50932,-0.196139 -1.19393,-0.365675 -1.52135,-0.376746 -0.32742,-0.01107 -0.59532,-0.13091 -0.59532,-0.26631 0,-0.371416 1.0747,-0.460525 2.11667,-0.175505 1.10985,0.303587 1.63406,0.66147 1.43668,0.980832 -0.18036,0.291834 -0.2895,0.279507 -1.43668,-0.162271 z m 1.05833,-1.077261 c -0.3638,-0.203581 -0.89958,-0.373725 -1.19062,-0.378098 -0.29104,-0.0044 -0.70776,-0.123368 -0.92604,-0.264433 -0.35278,-0.227982 -0.35278,-0.255647 0,-0.248986 0.97807,0.01847 3.46607,0.672031 3.46676,0.910673 10e-4,0.402248 -0.6126,0.393539 -1.3501,-0.01916 z m 0.52917,-1.261511 c -1.43174,-0.468815 -1.59509,-0.578143 -0.97526,-0.652743 0.76242,-0.09176 3.08915,0.716164 3.09094,1.073286 0.001,0.260172 -0.0957,0.240901 -2.11568,-0.420543 z m 0.57463,-0.867405 c -0.77535,-0.20099 -1.78431,-0.431428 -2.24213,-0.512084 -0.45782,-0.08066 -0.895,-0.247223 -0.97151,-0.370149 -0.0765,-0.122926 -0.85349,-0.311335 -1.72661,-0.418685 -2.50268,-0.307703 -2.9571,-0.683009 -0.66146,-0.546292 1.0914,0.065 2.46062,0.319902 3.04271,0.566451 0.58208,0.246549 1.08907,0.429024 1.12665,0.405501 0.17721,-0.110941 2.07004,0.356248 2.63875,0.651296 0.98762,0.512383 0.3575,0.629361 -1.2064,0.223962 z m -8.42159,-2.233077 c -0.14232,-0.142316 -0.99481,-0.38841 -1.89444,-0.546876 -2.168783,-0.382023 -2.094913,-0.70345 0.10924,-0.475312 1.633,0.169021 2.86329,0.774566 2.29157,1.127907 -0.13619,0.08417 -0.36406,0.0366 -0.50637,-0.105719 z m -4.942763,-1.871172 c -0.26762,-0.155582 -0.7735,-0.22803 -1.12416,-0.160996 -0.35067,0.06703 -0.846079,-0.03303 -1.100911,-0.222366 -0.39158,-0.290936 -0.219787,-0.319666 1.109331,-0.185521 0.86497,0.0873 1.877,0.317544 2.248963,0.511657 l 0.67629,0.352933 -0.66146,-0.0064 c -0.363803,-0.0035 -0.880423,-0.13371 -1.148053,-0.289292 z M 115.5275,27.697921 c -0.94588,-0.369168 -2.13651,-0.829583 -2.64583,-1.023144 -1.34043,-0.50941 -5.37224,-1.721996 -5.72098,-1.720614 -0.16336,6.47e-4 -1.77071,-0.469136 -3.57188,-1.043962 -3.63249,-1.159277 -10.4528,-2.923611 -11.301678,-2.923611 -0.30021,0 -0.66188,-0.207368 -0.80372,-0.460817 -0.30286,-0.541185 -0.64568,-0.32929 -0.41976,0.259452 0.0852,0.221947 0.62372,0.478515 1.19678,0.570151 0.573058,0.09164 1.547978,0.326637 2.166478,0.522225 0.6185,0.195587 1.66033,0.50481 2.31518,0.687164 0.65484,0.182353 1.84546,0.54984 2.64583,0.816637 2.00332,0.667796 7.12593,2.205794 9.53685,2.863315 2.12929,0.580717 4.60947,1.58583 4.40865,1.786648 -0.0668,0.06677 -0.76473,-0.163121 -1.55102,-0.51086 -0.7863,-0.347739 -2.08102,-0.780181 -2.87716,-0.960983 -2.11122,-0.479455 -9.21272,-2.539152 -12.42774,-3.6045 -1.52797,-0.506318 -3.55056,-1.04444 -4.494658,-1.195827 -0.94409,-0.151387 -1.89659,-0.434829 -2.11666,-0.62987 -0.22008,-0.195042 -0.83581,-0.534482 -1.36831,-0.754311 -0.93096,-0.384325 -0.99118,-0.375206 -1.5665,0.237191 -0.32907,0.350285 -0.54824,0.672883 -0.48703,0.716885 0.0612,0.044 1.38626,0.288474 2.94457,0.543271 2.61953,0.428319 6.668848,1.601025 7.799818,2.25887 0.78003,0.453719 0.34495,0.345221 -2.51332,-0.626764 -2.670728,-0.908206 -7.556308,-1.864123 -8.453718,-1.654061 -0.25728,0.06022 0.006,0.197023 0.59852,0.310576 3.89195,0.746314 10.705778,2.882484 10.713058,3.358598 0.001,0.09205 -1.70113,-0.400352 -3.78343,-1.094227 -4.036338,-1.345015 -8.746898,-2.479798 -11.559838,-2.784784 -0.94588,-0.102555 -1.92815,-0.225288 -2.18281,-0.272738 -0.25466,-0.04745 -0.46302,0.0108 -0.46302,0.129455 0,0.11865 0.56554,0.281059 1.25677,0.360908 3.98794,0.460679 10.84744,2.102136 11.840098,2.8333 0.14553,0.107186 0.71905,0.341329 1.2745,0.520318 0.55546,0.178989 0.9576,0.377748 0.89366,0.441687 -0.0639,0.06394 -0.63746,-0.07467 -1.27449,-0.308023 -2.848338,-1.043373 -6.771488,-2.071401 -10.641348,-2.788475 -3.95944,-0.733674 -6.83119,-1.046998 -4.8044,-0.524189 0.43656,0.112612 1.62719,0.35148 2.64583,0.53082 4.86605,0.856701 10.18646,2.40771 10.18646,2.969562 0,0.332326 -0.35332,0.26747 -2.29996,-0.422191 -2.6068,-0.923538 -4.23491,-1.389561 -6.03441,-1.727261 -0.87313,-0.163853 -2.06375,-0.405954 -2.64584,-0.538002 -4.07588,-0.92463 -3.45842,-0.44017 0.85058,0.667366 3.59726,0.9246 4.98642,1.381972 4.79099,1.577404 -0.0662,0.0662 -0.5292,-0.0048 -1.02888,-0.157856 -4.53039,-1.387361 -7.83342,-1.971807 -11.61987,-2.056043 -1.81666,-0.04041 -3.35455,-0.125015 -3.41753,-0.188001 -0.25947,-0.259471 0.27084,-0.421697 1.73367,-0.530342 1.82412,-0.135478 4.87454,-0.64375 5.25146,-0.875019 0.14552,-0.08929 0.56224,-0.170235 0.92604,-0.179883 2.82896,-0.07502 2.97196,-0.1049 2.77492,-0.579797 -0.10566,-0.254661 -0.18812,-0.641615 -0.18324,-0.859896 0.005,-0.218281 -0.16451,-0.858221 -0.37643,-1.422088 -0.40797,-1.085497 -0.34796,-1.376054 0.23778,-1.151287 0.21249,0.08154 0.33651,0.465351 0.30366,0.939808 -0.0409,0.591283 0.0415,0.764755 0.31369,0.660298 0.4202,-0.161248 0.50815,0.326999 0.10391,0.576836 -0.52117,0.322098 0.26974,1.170984 1.36605,1.466188 0.81847,0.220393 1.1393,0.217044 1.28171,-0.01338 0.12092,-0.195663 0.24755,-0.08709 0.34846,0.298767 0.27771,1.061966 0.44255,0.378112 0.20313,-0.842669 -0.15433,-0.786854 -0.24669,-0.95583 -0.28012,-0.512473 l -0.0499,0.661459 -0.25732,-0.702342 c -0.15349,-0.418926 -0.53134,-0.771116 -0.93637,-0.872773 -0.37348,-0.09374 -0.61705,-0.232436 -0.54127,-0.308221 0.2772,-0.277195 3.41595,0.518532 3.97699,1.008235 0.57579,0.502579 0.57482,0.50292 -0.26888,0.09444 -0.99416,-0.481327 -1.13762,-0.49966 -1.13762,-0.145379 0,0.145521 0.15584,0.264583 0.3463,0.264583 0.19047,0 0.57743,0.185162 0.8599,0.411471 0.49082,0.393231 0.48655,0.398335 -0.0964,0.115133 -1.01869,-0.494899 -1.23257,-0.146875 -0.23867,0.388374 0.82716,0.445458 0.97046,0.456223 1.32698,0.0997 0.26219,-0.262189 0.31832,-0.528225 0.16317,-0.773326 -0.13009,-0.205502 -0.23834,-0.605811 -0.24057,-0.889577 -0.003,-0.401285 0.0665,-0.445382 0.31345,-0.198438 0.17462,0.174625 0.52478,0.3175 0.77813,0.3175 0.84445,0 0.76621,-0.471141 -0.16999,-1.023508 -0.5091,-0.30038 -0.92564,-0.680396 -0.92564,-0.84448 0,-0.388236 2.21415,-0.09778 4.36562,0.572693 1.81204,0.564692 1.984378,0.588378 1.984378,0.272735 0,-0.125845 -0.863208,-0.436662 -1.918228,-0.690702 -2.00328,-0.482371 -3.08159,-0.911654 -2.31511,-0.921661 0.21828,-0.0028 0.99219,0.176395 1.71979,0.398324 0.72761,0.221928 1.9404,0.471773 2.695098,0.555212 1.23113,0.136112 1.44315,0.08074 2.06255,-0.538662 0.78546,-0.785459 1.06082,-0.825609 1.98923,-0.290042 l 0.66146,0.381574 -0.8599,-0.159439 c -0.68277,-0.126598 -0.85989,-0.07088 -0.85989,0.270508 0,0.284867 -0.22848,0.429948 -0.67708,0.429948 -0.384,0 -0.60629,0.114523 -0.51355,0.264584 0.22309,0.360972 1.45521,0.336463 1.45521,-0.02895 0,-0.29677 1.12488,-0.216836 2.3151,0.16451 0.43755,0.140191 0.59532,0.08556 0.59532,-0.206138 0,-0.218281 0.23812,-0.459146 0.52916,-0.535255 0.69964,-0.182958 0.67376,-0.635536 -0.0495,-0.865077 -0.55937,-0.177538 -0.56205,-0.195774 -0.0804,-0.547988 0.7354,-0.537734 0.10745,-1.021373 -1.20326,-0.926736 l -1.06242,0.07671 0.49331,-0.880644 c 0.37896,-0.676511 0.43598,-1.05186 0.24599,-1.61929 -0.21224,-0.633852 -0.30701,-0.690158 -0.66801,-0.396875 -0.36086,0.293166 -0.39496,0.273196 -0.23981,-0.140416 0.0995,-0.265203 0.046,-0.734315 -0.11897,-1.042472 l -0.29985,-0.560284 -0.49095,0.606296 c -0.52577,0.649296 -0.49925,0.669845 -0.9089,-0.704164 -0.0542,-0.181901 -0.26705,-0.3307288 -0.47293,-0.3307288 -0.4056,0 -0.69127,0.7765498 -0.697,1.8947088 -0.002,0.454349 -0.28469,0.94059 -0.79605,1.370868 -0.53979,0.454206 -0.743608,0.820201 -0.63931,1.147999 0.11794,0.370655 0.0264,0.337706 -0.398188,-0.143409 -0.72923,-0.826195 -0.69575,-1.0434 0.17629,-1.143739 0.581178,-0.06687 0.745158,-0.237463 0.814828,-0.847723 0.0711,-0.62288 0.005,-0.732635 -0.35531,-0.594185 -0.24339,0.0934 -0.758898,0.248592 -1.145558,0.34487 -0.63055,0.157005 -0.66586,0.129937 -0.3425,-0.262581 0.30696,-0.372606 0.3002,-0.46078 -0.0455,-0.593428 -0.2233,-0.08569 -0.65343,-0.02338 -0.95584,0.13847 -0.51388,0.275022 -0.54984,0.225464 -0.54984,-0.757761 0,-0.5786148 -0.12944,-1.1320228 -0.28764,-1.2297968 -0.41937,-0.259184 -0.88016,0.31105 -0.92398,1.1434248 -0.0297,0.564985 -0.15816,0.709755 -0.5879,0.662705 -0.733,-0.08025 -1.01171,0.826699 -0.49594,1.613867 0.48159,0.734999 0.62899,1.515357 0.36551,1.935084 -0.13697,0.218188 0.18739,0.370018 1.06493,0.498492 1.13866,0.1667 3.962228,1.122712 3.41928,1.157706 -0.12312,0.0079 -0.8375,-0.153774 -1.5875,-0.359353 -2.24852,-0.616333 -2.81884,-0.707029 -2.81884,-0.448267 0,0.135503 0.46526,0.324975 1.03393,0.42105 0.56866,0.09608 1.25301,0.334878 1.52077,0.530673 0.40357,0.295094 0.24756,0.293921 -0.91198,-0.0069 -1.42736,-0.370254 -2.17189,-0.293812 -2.17189,0.222991 0,0.188087 -0.11486,0.174338 -0.32852,-0.03932 -0.26163,-0.261634 -0.25089,-0.376495 0.0528,-0.564175 0.44583,-0.27554 0.42037,-2.053606 -0.0482,-3.367257 -0.35105,-0.984155 0.0436,-2.195884 0.71515,-2.195884 0.2214,0 0.40255,-0.228387 0.40255,-0.5075268 0,-0.955895 0.30916,-1.344556 1.06951,-1.344556 0.61505,0 0.80796,0.164921 1.08318,0.926042 0.25049,0.6927128 0.48813,0.9260408 0.94317,0.9260408 0.37579,0 0.60831,0.158416 0.60831,0.414449 0,0.730001 1.399258,0.356072 1.798418,-0.480594 0.22348,-0.4684548 0.55401,-0.7270788 0.92799,-0.7261288 1.07741,0.0027 2.59339,0.5574798 2.75239,1.0071858 0.24025,0.679512 0.90914,1.372588 1.32469,1.372588 0.20432,0 0.30454,-0.108318 0.22272,-0.240707 -0.25904,-0.419141 0.15453,-1.08221 0.67501,-1.08221 0.27547,0 0.50086,-0.174404 0.50086,-0.387565 0,-0.9633338 1.57744,-1.0684728 3.26502,-0.217618 0.6066,0.305836 0.72069,0.501586 0.59176,1.015298 -0.14807,0.589943 -0.10099,0.624665 0.64476,0.475515 0.57174,-0.114348 0.9555,-0.02423 1.32647,0.311494 0.50613,0.458036 0.52199,0.452653 0.52199,-0.177158 0,-0.357252 0.14287,-0.792424 0.3175,-0.967049 0.74385,-0.7438518 2.95555,0.05412 3.57633,1.29032 0.44595,0.888039 0.92587,0.801118 1.18927,-0.215397 0.24137,-0.931451 1.31727,-1.447882 1.86835,-0.896801 0.16398,0.16397 0.55841,0.298128 0.87653,0.298128 0.39773,0 0.71178,0.281085 1.00541,0.899882 0.23487,0.494935 0.42703,1.030717 0.42703,1.190625 0,0.562936 0.73832,0.283033 0.89446,-0.3391 0.31726,-1.264056 2.32382,-1.098393 3.12407,0.257925 0.28479,0.482691 0.74729,0.950455 1.02776,1.039474 0.28048,0.08902 0.50996,0.34621 0.50996,0.571534 0,0.962045 0.92983,2.994244 1.37001,2.994244 0.55543,0 1.27582,0.979071 1.27582,1.733954 0,0.32428 -0.27697,0.706107 -0.66146,0.911879 -0.77741,0.41606 -0.89175,1.453579 -0.19844,1.800708 0.25467,0.127505 1.51025,0.507263 2.7902,0.843908 1.53946,0.404903 2.2383,0.700951 2.06461,0.874637 -0.27608,0.276085 -2.22672,-0.172789 -5.14573,-1.184114 -1.09719,-0.380138 -1.62991,-0.453991 -1.83018,-0.253726 -0.20026,0.200264 -0.17334,0.312646 0.0925,0.386093 0.20623,0.05698 0.79169,0.231285 1.30101,0.387341 0.50932,0.156055 1.75948,0.482434 2.77812,0.725286 1.89566,0.451937 5.68855,2.15701 5.68855,2.557256 0,0.286551 -1.22836,-0.0081 -2.24896,-0.539509 -0.77717,-0.404638 -3.4508,-1.39592 -6.61459,-2.45244 -2.30265,-0.768951 -9.93985,-2.616037 -10.71562,-2.591614 -0.6244,0.01966 -0.61699,0.03503 0.13229,0.274305 0.43656,0.139415 0.97234,0.29841 1.19063,0.353323 7.26842,1.82851 11.32348,3.046957 13.64766,4.100788 2.08871,0.947067 2.14679,1.345698 0.0773,0.530265 -1.92207,-0.757331 -5.7371,-2.107572 -6.71347,-2.376077 -0.43656,-0.120056 -1.98437,-0.533878 -3.43958,-0.919603 -1.45521,-0.385726 -3.06255,-0.813144 -3.57187,-0.949818 -2.0487,-0.549759 -9.86439,-2.109566 -9.98184,-1.992114 -0.13443,0.134426 0.73687,0.380526 3.89642,1.100548 4.78424,1.09027 9.35664,2.320346 10.45498,2.812621 0.29321,0.131416 0.82899,0.274561 1.19063,0.318101 0.36163,0.04354 1.12129,0.277675 1.68812,0.520301 0.56683,0.242625 1.51933,0.608618 2.11667,0.813317 1.96485,0.673333 2.61642,0.95867 2.48629,1.088801 -0.0706,0.0706 -0.53443,-0.0413 -1.03073,-0.248673 -1.19082,-0.497556 -9.98141,-3.099476 -13.33409,-3.946747 -1.4552,-0.367753 -3.83645,-0.969295 -5.29166,-1.33676 -3.23901,-0.817906 -6.87918,-1.505764 -6.57449,-1.242334 0.12347,0.106745 1.35558,0.447731 2.73803,0.757745 1.38245,0.310014 4.83526,1.269532 7.67292,2.132261 2.83765,0.862729 6.58812,1.997774 8.33437,2.522322 1.74625,0.524548 3.77031,1.134044 4.49792,1.354435 0.7276,0.220391 1.79916,0.627632 2.38125,0.90498 1.03302,0.49221 1.04013,0.504782 0.29739,0.525687 -0.41852,0.01178 -1.84727,-0.413237 -3.175,-0.94448 -4.99335,-1.997909 -21.16286,-6.70702 -23.02966,-6.70702 -0.35159,0 -0.71003,-0.148828 -0.79653,-0.330729 -0.0865,-0.181901 -0.10391,-0.04882 -0.0387,0.295741 0.11342,0.599126 0.0702,0.618729 -0.98926,0.449105 -3.23676,-0.518201 -3.06655,-0.304324 0.49206,0.6183 2.18964,0.567697 4.86854,1.326752 5.95312,1.686789 1.08458,0.360036 2.92446,0.918237 4.08863,1.240445 4.48353,1.240913 10.71563,3.471981 10.71563,3.836155 0,0.180652 0.14494,0.22411 -1.85209,-0.555308 z m 4.7625,-6.049873 c 0,-0.363802 -0.11906,-0.661458 -0.26458,-0.661458 -0.14552,0 -0.26458,0.297656 -0.26458,0.661458 0,0.363802 0.11906,0.661459 0.26458,0.661459 0.14552,0 0.26458,-0.297657 0.26458,-0.661459 z m -2.11666,0.288873 c 0,-0.0594 -0.71438,-0.34925 -1.5875,-0.644108 -0.87313,-0.294859 -1.5875,-0.445756 -1.5875,-0.335326 0,0.11043 0.56554,0.388895 1.25677,0.618811 1.29726,0.431497 1.91823,0.548238 1.91823,0.360623 z m 3.70416,-0.128274 c 0,-0.29344 -0.81397,-0.62545 -1.02239,-0.417024 -0.0841,0.0841 0.0222,0.263671 0.23631,0.399052 0.49473,0.312879 0.78608,0.319541 0.78608,0.01797 z m -2.64583,-0.27608 c 0,-0.265426 -4.26662,-1.659214 -4.46669,-1.459145 -0.0657,0.06568 -0.0585,0.180325 0.0159,0.254768 0.0979,0.09786 3.34451,1.160198 4.38461,1.434693 0.0364,0.0096 0.0661,-0.09404 0.0661,-0.230316 z M 85.100422,20.98659 c 0,-0.114383 -0.17859,-0.276501 -0.39688,-0.360264 -0.26861,-0.103075 -0.39687,0.01336 -0.39687,0.360264 0,0.346906 0.12826,0.463339 0.39687,0.360264 0.21829,-0.08376 0.39688,-0.245882 0.39688,-0.360264 z m 29.382738,-0.410175 c -0.22887,-0.766333 -0.2335,-0.768086 -0.25583,-0.09694 -0.0125,0.375929 0.0566,0.762882 0.15365,0.859896 0.30721,0.307211 0.34269,0.04231 0.10218,-0.762953 z M 113.94,20.780013 c 0,-0.113617 -0.35718,-0.3414 -0.79375,-0.506184 -0.63676,-0.240349 -0.79375,-0.229296 -0.79375,0.05588 0,0.306486 0.23416,0.411143 1.38907,0.620846 0.10914,0.01982 0.19843,-0.05693 0.19843,-0.170545 z m 8.20209,-0.03598 c 0,-0.133409 -0.83233,-0.500161 -1.84961,-0.815005 -1.01728,-0.314845 -1.91219,-0.673716 -1.98869,-0.797491 -0.29073,-0.470415 0.31616,-0.463032 1.32974,0.01618 1.64045,0.775582 3.97508,0.601573 2.96866,-0.221265 -0.44393,-0.362952 -4.94246,-1.747776 -5.11549,-1.574747 -0.0758,0.07578 -1.38104,-0.25252 -2.90057,-0.729554 -1.51954,-0.477034 -2.76279,-0.782971 -2.76279,-0.67986 0,0.225863 4.31141,1.54107 5.73509,1.749504 1.53773,0.225131 4.31907,1.186315 4.31907,1.492597 0,0.150159 -0.20676,0.191433 -0.46302,0.09243 -1.51263,-0.584419 -3.58407,-1.210492 -3.68178,-1.112784 -0.0629,0.06286 -0.0393,0.413075 0.0524,0.778262 0.13166,0.524578 0.53709,0.804558 1.93111,1.333593 1.94525,0.738229 2.42592,0.830986 2.42592,0.468145 z m -3.63802,-0.548289 c -0.47295,-0.288359 -0.8599,-0.688089 -0.8599,-0.888289 0,-0.230508 -0.80052,-0.586487 -2.18281,-0.970663 -1.20055,-0.333664 -2.30188,-0.71582 -2.4474,-0.849236 -0.28459,-0.260918 0.50693,-0.105839 2.51354,0.49247 1.95411,0.582653 2.12136,0.369267 0.22935,-0.292607 -2.56172,-0.896154 -3.49472,-1.072179 -3.34633,-0.631338 0.0664,0.197251 -0.0683,0.503679 -0.29938,0.680952 -0.3718,0.285258 -0.35756,0.323282 0.12384,0.330729 0.50529,0.0078 2.97665,0.739827 4.69538,1.390755 0.43397,0.164357 0.68691,0.422803 0.60998,0.623273 -0.13212,0.344297 0.31275,0.553435 1.29445,0.608539 0.39974,0.02244 0.31885,-0.09853 -0.33072,-0.494585 z m -28.641148,0.02796 c 0,-0.238318 -0.88154,-0.54989 -1.57427,-0.556413 -0.5141,-0.0048 -0.0387,0.436236 0.64823,0.601472 0.85077,0.204637 0.92604,0.200974 0.92604,-0.04506 z m 0.79227,0.03529 c -8.1e-4,-0.109141 -0.1203,-0.626204 -0.26553,-1.14903 -0.22269,-0.801648 -0.43377,-1.00144 -1.3472,-1.275109 -1.11356,-0.333629 -1.71551,-0.185686 -1.02396,0.251661 0.21407,0.13538 0.58783,0.247969 0.83059,0.250197 0.94849,0.0087 1.27841,0.324329 1.27841,1.222984 0,0.493754 0.11907,0.897734 0.26459,0.897734 0.14552,0 0.26392,-0.0893 0.2631,-0.198437 z m 5.293148,-0.04512 c 0,-0.133958 -0.35583,-0.321712 -0.79072,-0.417231 -0.8501,-0.186713 -1.34963,-0.662125 -0.69572,-0.662125 0.21828,0 0.47046,0.119063 0.56039,0.264584 0.20589,0.333124 0.92605,0.348211 0.92605,0.0194 0,-0.13485 -0.20836,-0.299633 -0.46302,-0.366183 -0.32608,-0.08521 -0.2674,-0.136433 0.19843,-0.173181 0.65511,-0.05168 0.65384,-0.05567 -0.13229,-0.415633 -1.12741,-0.516233 -1.69379,-0.499311 -1.04276,0.03115 0.43853,0.357313 0.44592,0.397197 0.0506,0.272888 -0.25466,-0.08007 -0.4779,-0.03026 -0.49609,0.110692 -0.13119,1.01658 -0.0611,1.142942 0.68975,1.243495 0.43394,0.05811 0.84073,0.157417 0.904,0.220679 0.18271,0.18271 0.29141,0.134763 0.29141,-0.128539 z m 13.34823,-0.0023 c -0.36617,-0.358157 -1.91114,-0.691703 -1.57428,-0.339869 0.14553,0.151986 0.56224,0.329738 0.92605,0.395003 0.3638,0.06527 0.71503,0.134878 0.78052,0.154696 0.0655,0.01982 0.006,-0.07461 -0.13229,-0.20983 z M 93.56709,19.092049 c 0,-0.607122 -0.60339,-0.623627 -1.492838,-0.04084 -0.62416,0.408967 -0.64311,0.473185 -0.2289,0.77606 0.59147,0.432493 1.721738,-0.05016 1.721738,-0.735224 z m 12.96458,0.866874 c 0,-0.240742 -3.48584,-1.625477 -4.05003,-1.608859 -0.17358,0.0051 0.6369,0.415962 1.80107,0.913 2.48099,1.059253 2.24896,0.987458 2.24896,0.695859 z m 5.41073,-0.01032 c -0.13825,-0.134336 -0.84667,-0.367012 -1.57427,-0.517057 -0.72761,-0.150046 -1.68011,-0.352712 -2.11667,-0.450371 -1.16705,-0.261068 -0.52516,0.277301 0.92604,0.776694 1.32452,0.455795 3.16858,0.583007 2.7649,0.190734 z m 5.02708,0.01578 c -0.40478,-0.367937 -1.97114,-0.823715 -1.97114,-0.573562 0,0.125824 0.32742,0.348356 0.7276,0.494515 0.93148,0.340207 1.57592,0.381171 1.24354,0.07905 z m -9.8914,-1.183035 c -0.21957,-0.219568 -0.26564,-0.126043 -0.17677,0.358833 0.17164,0.936441 0.20588,0.978761 0.34732,0.429258 0.0695,-0.270118 -0.007,-0.62476 -0.17055,-0.788091 z m 6.53501,0.505474 c 0.0429,-0.517837 -0.10263,-0.675652 -0.75496,-0.818928 -1.14479,-0.251438 -1.25767,0.03603 -0.20568,0.5238 0.55104,0.255499 0.66367,0.370914 0.29537,0.302672 -0.32743,-0.06067 -0.59532,-0.01112 -0.59532,0.11011 0,0.185996 0.30496,0.326958 1.06677,0.493104 0.0774,0.01688 0.16462,-0.25796 0.19382,-0.610758 z M 97.38093,19.4612 c -0.15796,-0.106912 -0.42223,-0.432511 -0.58726,-0.723553 -0.29434,-0.519057 -0.30023,-0.518215 -0.30812,0.0441 -0.008,0.535948 0.29384,0.817286 0.91799,0.857004 0.1523,0.0097 0.14271,-0.06566 -0.0226,-0.177549 z m 6.39374,-0.02792 c -0.0783,-0.126725 -0.50207,-0.302342 -0.94166,-0.390261 -0.69345,-0.13869 -0.79953,-0.27456 -0.80132,-1.026361 -0.002,-0.6796 -0.15441,-0.937252 -0.70833,-1.194466 -0.83943,-0.389791 -1.08882,-0.24595 -0.59831,0.345082 0.29841,0.359567 0.29393,0.418148 -0.0284,0.371921 -0.84282,-0.120856 -1.15869,0.04846 -0.54707,0.293237 0.49179,0.196828 0.70342,0.150528 0.96841,-0.211867 0.30393,-0.415641 0.35748,-0.365702 0.51642,0.481514 0.1297,0.691362 0.36705,1.020466 0.88367,1.225284 0.8987,0.356295 1.43954,0.401881 1.25663,0.105917 z M 89.598342,19.134522 c 0,-0.14552 -0.1786,-0.264583 -0.39688,-0.264583 -0.21828,0 -0.39687,0.119063 -0.39687,0.264583 0,0.145521 0.17859,0.264584 0.39687,0.264584 0.21828,0 0.39688,-0.119063 0.39688,-0.264584 z m 11.619608,0.156706 c -0.0606,-0.05933 -0.76508,-0.229263 -1.56545,-0.377623 -0.80036,-0.14836 -1.66356,-0.350679 -1.91823,-0.449597 -0.31818,-0.123591 -0.46302,-0.05261 -0.46302,0.22693 0,0.223729 0.26789,0.458378 0.59532,0.521443 0.79168,0.152485 3.49155,0.216004 3.35138,0.07885 z m 4.9781,-0.845101 c -0.17483,-0.174828 -0.9873,0.181266 -0.9873,0.432719 0,0.378715 0.92214,0.418741 1.01558,0.04408 0.0492,-0.197444 0.0365,-0.412005 -0.0283,-0.476801 z m -14.481048,0.29152 c 0.27854,-0.335618 0.22229,-0.396875 -0.36448,-0.396875 -0.67075,0 -0.88236,0.252461 -0.51746,0.617362 0.2738,0.273804 0.52353,0.211372 0.88194,-0.220487 z m 19.749368,-0.0034 c 0.0845,-0.220134 0.0149,-0.567309 -0.15453,-0.771499 -0.24504,-0.295256 -0.19409,-0.407446 0.24891,-0.548048 0.43337,-0.137547 0.49094,-0.256431 0.2593,-0.535534 -0.16375,-0.197307 -0.54764,-0.395653 -0.8531,-0.44077 -0.30546,-0.04512 -0.60991,-0.247431 -0.67657,-0.449588 -0.0668,-0.202514 -4.4e-4,-0.292926 0.14774,-0.20135 0.14791,0.09141 0.43042,-0.02838 0.62781,-0.266218 0.30577,-0.368438 0.29365,-0.473565 -0.0819,-0.710455 -0.41111,-0.259325 -0.41099,-0.301241 0.002,-0.622996 0.40995,-0.319514 0.40412,-0.374675 -0.079,-0.747678 -0.28687,-0.221492 -0.67161,-0.345142 -0.85497,-0.274777 -0.21538,0.08265 -0.31173,-0.07888 -0.27218,-0.456327 0.0463,-0.44168 -0.0986,-0.60701 -0.59369,-0.677476 -0.36019,-0.05127 -0.82192,-0.331669 -1.02606,-0.623115 -0.29551,-0.421892 -0.41736,-0.456997 -0.59781,-0.172226 -0.35634,0.562316 -0.27373,1.548301 0.12972,1.548301 0.20046,0 0.51584,0.182387 0.70085,0.405303 0.29618,0.356882 0.24719,0.371396 -0.41011,0.121493 -0.78279,-0.297618 -1.44897,-0.188838 -1.44897,0.236602 0,0.137961 0.50602,0.429954 1.12448,0.648874 0.61846,0.218919 0.92387,0.407435 0.67868,0.418923 -0.24519,0.01149 -0.7512,-0.09523 -1.12448,-0.237146 -0.44835,-0.170462 -0.67868,-0.168156 -0.67868,0.0068 0,0.145657 -0.37986,0.06839 -0.84414,-0.171691 -0.74711,-0.386345 -0.79418,-0.473047 -0.40955,-0.754298 0.4924,-0.36005 0.3421,-1.468604 -0.19911,-1.468604 -0.18302,0 -0.82088,0.172223 -1.41749,0.382717 -0.5966,0.210494 -1.14667,0.282501 -1.22237,0.160016 -0.0757,-0.122486 0.0403,-0.290971 0.25772,-0.374413 0.22527,-0.08644 0.39536,-0.482544 0.39536,-0.920693 0,-0.649592 -0.12837,-0.794655 -0.82683,-0.934345 -1.445,-0.289002 -1.62775,-0.226248 -1.4869,0.510583 0.1074,0.561787 0.0344,0.668555 -0.43217,0.632171 -0.30877,-0.02408 -0.65488,-0.0306 -0.76914,-0.01449 -0.37372,0.05269 0.36047,1.1112 0.95264,1.373471 0.44358,0.196456 0.31647,0.223028 -0.54646,0.11424 -0.62024,-0.07819 -1.12448,-0.03114 -1.12448,0.104927 0,0.250074 0.50038,0.382873 2.64584,0.702204 0.65484,0.09747 1.48828,0.34585 1.85208,0.551962 l 0.66146,0.37475 -0.79375,-0.144473 c -0.43656,-0.07946 -1.65191,-0.306675 -2.70076,-0.504923 -1.04885,-0.198249 -1.97159,-0.295871 -2.05052,-0.216939 -0.38033,0.380328 -0.0438,0.584485 0.96361,0.584485 0.60891,0 1.8293,0.190347 2.71198,0.422993 2.26691,0.59749 2.35903,0.630814 2.19564,0.794212 -0.0805,0.08053 -0.86209,-0.05439 -1.73679,-0.299819 -1.67242,-0.469258 -2.81566,-0.403417 -1.63212,0.09399 l 0.66146,0.277994 -0.72761,0.01677 c -0.77731,0.01792 -1.03955,0.545938 -0.27113,0.545938 0.51756,0 4.0945,1.358055 3.95208,1.500481 -0.051,0.05097 -0.5875,-0.08191 -1.19228,-0.295295 -1.38063,-0.487115 -1.56594,0.06192 -0.2351,0.696558 0.7873,0.375436 0.96381,0.373423 1.97654,-0.02254 1.80664,-0.706368 1.94009,-1.001682 0.86312,-1.910032 -0.76481,-0.645066 -0.85694,-0.824836 -0.52916,-1.032521 0.53923,-0.341668 0.73059,-0.322167 0.97904,0.09977 0.20871,0.354474 2.8727,1.139987 3.38658,0.998582 0.14552,-0.04004 0.12517,0.06916 -0.0452,0.242675 -0.23965,0.244038 -0.59484,0.21836 -1.56848,-0.113393 -1.55366,-0.529383 -1.71666,-0.532306 -1.52288,-0.02731 0.0847,0.220858 0.28937,0.380968 0.45472,0.355799 0.16534,-0.02517 0.59828,0.09452 0.96208,0.265984 l 0.66146,0.311745 -0.71139,-0.139348 c -0.39127,-0.07664 -0.78525,-0.01985 -0.87551,0.126206 -0.0903,0.146055 0.0513,0.274384 0.31451,0.285177 0.43907,0.018 2.76556,0.977898 2.46301,1.016224 -0.0728,0.0092 -0.71676,-0.160546 -1.43111,-0.377252 -1.53331,-0.465147 -1.74389,-0.480775 -1.74389,-0.129428 0,0.145521 0.32742,0.271304 0.72761,0.279517 0.40018,0.0082 1.14432,0.172602 1.65364,0.365308 1.27682,0.483093 2.10473,0.487895 2.28687,0.01326 z m -8.37228,-2.377881 c -0.60469,-0.345671 -0.61471,-0.378928 -0.11672,-0.387499 0.29961,-0.0052 0.77586,0.165431 1.05833,0.379085 0.69253,0.523802 -0.0288,0.530248 -0.94161,0.0084 z m 4.8506,-0.874678 c -1.10077,-0.447531 -2.03982,-1.120031 -1.01415,-0.726283 0.29105,0.111728 0.91612,0.314888 1.38907,0.451467 0.47294,0.136579 0.85989,0.361792 0.85989,0.500472 0,0.138681 -0.0298,0.245495 -0.0661,0.237364 -0.0364,-0.0081 -0.56228,-0.21649 -1.16867,-0.46302 z m -6.84821,3.157797 c -0.38845,-0.356105 -1.70656,-0.604954 -1.70656,-0.322186 0,0.138172 0.26789,0.30282 0.59531,0.365884 1.07767,0.207567 1.37269,0.195966 1.11125,-0.0437 z m 19.98927,-1.050603 c 0,-0.298661 -3.01621,-1.199154 -3.47453,-1.037324 -0.19906,0.07029 0.41198,0.375855 1.35787,0.679044 1.98508,0.636285 2.11666,0.658558 2.11666,0.35828 z m -4.23333,-0.974481 c 0,-0.18982 -1.08947,-0.588363 -3.22952,-1.181401 -1.85364,-0.513669 -2.57417,-0.265889 -0.80538,0.276955 3.36504,1.032733 4.0349,1.182886 4.0349,0.904446 z M 120.29,16.245492 c -0.76922,-0.440116 -4.33036,-1.335537 -4.00114,-1.006057 0.35498,0.355266 3.02896,1.198226 3.86885,1.21964 0.42435,0.01082 0.45056,-0.03148 0.13229,-0.213583 z M 115.36781,15.1648 c -0.32576,-0.325765 -3.25559,-1.109588 -3.65271,-0.977217 -0.46767,0.15589 0.87024,0.750408 2.19095,0.973577 1.76267,0.29785 1.75596,0.297834 1.46176,0.0036 z m 4.29526,-0.03794 c -0.62804,-0.364885 -3.63933,-1.074712 -3.81481,-0.899234 -0.14628,0.146286 0.19112,0.294271 1.85761,0.814729 0.62091,0.193917 1.42658,0.35692 1.79038,0.36223 0.60206,0.0088 0.61704,-0.01615 0.16682,-0.277725 z m -4.40015,-0.853069 c 0,-0.235559 -0.46395,-0.424333 -1.32292,-0.53828 -0.7276,-0.09652 -1.32291,-0.30336 -1.32291,-0.459644 0,-0.161066 0.25787,-0.221615 0.59531,-0.13978 0.32742,0.0794 0.92273,0.224282 1.32292,0.321949 0.89915,0.219444 0.99548,-0.349097 0.18363,-1.083809 -0.43835,-0.396699 -0.6392,-0.432806 -1.03447,-0.185961 -0.40698,0.254163 -0.55722,0.207111 -0.88232,-0.276327 -0.48629,-0.723149 -0.65901,-0.57382 -0.79831,0.690189 -0.1246,1.130698 -0.0242,1.223864 1.79441,1.665731 0.7328,0.178045 1.36213,0.333843 1.39851,0.346219 0.0364,0.01238 0.0661,-0.140753 0.0661,-0.340287 z m 3.43958,-0.430961 c -0.52278,-0.337846 -1.39942,-0.337846 -1.19062,0 0.0899,0.14552 0.48391,0.26276 0.87551,0.260531 0.55688,-0.0032 0.62553,-0.05992 0.31511,-0.260531 z m 1.05834,14.102171 c -0.21829,-0.07895 -0.75407,-0.306592 -1.19063,-0.505862 -0.96061,-0.438472 -4.77829,-1.671346 -7.67292,-2.477875 -4.11067,-1.145356 -4.80455,-1.347591 -9.12812,-2.66044 -2.40109,-0.72909 -4.00844,-1.275569 -3.57188,-1.214398 0.93261,0.130677 0.8947,0.120748 5.15938,1.351263 1.81901,0.524851 4.67651,1.292668 6.35,1.70626 1.67349,0.413592 4.08314,1.069796 5.35479,1.45823 2.54953,0.778776 6.46151,2.515748 5.62542,2.49776 -0.29104,-0.0063 -0.70776,-0.07598 -0.92604,-0.154938 z m 7.00117,-0.184839 c -1.07302,-0.336146 -2.45654,-1.050863 -1.70951,-0.883122 1.33431,0.299612 2.91042,0.864755 2.91042,1.043583 0,0.115339 -0.0298,0.201742 -0.0661,0.192008 -0.0364,-0.0097 -0.54702,-0.168346 -1.13476,-0.352469 z M 54.784981,27.567771 c -0.07858,-0.12715 0.750092,-0.231181 1.841498,-0.231181 1.09141,0 2.05514,0.114504 2.14163,0.254453 0.0958,0.155032 -0.6237,0.245359 -1.841492,0.23118 -1.099317,-0.0128 -2.063053,-0.127303 -2.141636,-0.254452 z m 4.915438,-0.400881 c -0.65485,-0.210081 -2.06493,-0.381094 -3.133523,-0.380029 -1.676395,0.0017 -1.898777,-0.05123 -1.621249,-0.385626 0.176906,-0.213159 0.759506,-0.387562 1.294667,-0.387562 0.535161,0 1.086129,-0.107519 1.224375,-0.238931 0.27017,-0.256823 2.3279,-0.571023 3.801473,-0.580459 0.49736,-0.0032 1.17412,-0.218037 1.50391,-0.477449 0.44382,-0.349107 0.92484,-0.442573 1.85132,-0.359719 0.97151,0.08688 1.30679,0.01351 1.49777,-0.327751 0.2006,-0.358455 0.48584,-0.406712 1.54387,-0.261196 0.87182,0.119907 1.2978,0.0835 1.2978,-0.110917 0,-0.477046 3.29123,-0.337566 5.92038,0.250901 3.63558,0.813732 4.76851,1.109797 5.05983,1.322275 0.14552,0.106136 0.65017,0.275415 1.12145,0.376175 0.47127,0.10076 0.93265,0.305834 1.02529,0.45572 0.18369,0.297217 -1.41133,0.04067 -1.88215,-0.302728 -0.52156,-0.380399 -5.25514,-1.414201 -7.9375,-1.73353 -0.58209,-0.0693 -1.50482,-0.18762 -2.05052,-0.262943 -0.54571,-0.07532 -0.99219,-0.03633 -0.99219,0.08666 0,0.122987 0.14883,0.230849 0.33073,0.239695 1.54913,0.07533 3.79378,0.399575 4.02042,0.580764 0.15348,0.1227 1.13954,0.497728 2.19125,0.833396 1.0517,0.335667 1.86695,0.655544 1.81166,0.710837 -0.13779,0.137788 -3.33424,-0.455146 -3.98844,-0.739846 -1.35883,-0.591348 -6.63329,-1.455088 -6.98941,-1.144579 -0.25495,0.222298 0.25278,0.376595 1.72315,0.523661 0.85915,0.08593 1.68116,0.246597 1.82668,0.357035 0.14552,0.110437 0.56224,0.271573 0.92604,0.358079 0.3638,0.08651 0.89958,0.347617 1.19063,0.580245 0.51322,0.41022 0.51061,0.413938 -0.0868,0.123409 -0.3388,-0.164754 -0.78147,-0.236054 -0.98372,-0.158443 -0.20225,0.07761 -0.42563,0.04741 -0.49641,-0.06711 -0.15845,-0.256377 -2.44684,-0.756352 -4.33469,-0.94706 -0.77205,-0.07799 -1.68179,-0.211592 -2.02166,-0.296893 -0.33986,-0.0853 -0.69748,-0.02638 -0.7947,0.130931 -0.11264,0.182258 0.13099,0.286021 0.67157,0.286021 0.75305,0 4.06953,1.027059 3.88558,1.203296 -0.0399,0.03819 -0.96546,-0.0823 -2.05686,-0.267763 -2.96924,-0.504556 -5.05796,-0.670375 -4.88324,-0.387668 0.0836,0.135237 0.3533,0.247709 0.59937,0.249937 0.24608,0.0022 0.626,0.131315 0.84429,0.286859 0.29902,0.213084 0.1688,0.243116 -0.52822,0.121816 -0.5088,-0.08855 -1.52083,-0.225462 -2.248963,-0.304258 -0.72813,-0.0788 -1.46888,-0.189768 -1.64612,-0.246604 -0.17724,-0.05683 -0.38456,-0.0025 -0.46071,0.120679 -0.0761,0.123209 0.24746,0.299683 0.71913,0.392164 0.86507,0.169615 3.200773,1.174017 2.709673,1.165216 -0.14552,-0.0026 -0.80037,-0.176626 -1.455213,-0.386707 z m 32.543753,-1.020925 c -0.3638,-0.207968 -0.53539,-0.382343 -0.3813,-0.387499 0.15409,-0.0052 0.51128,0.165431 0.793748,0.379084 0.65325,0.494094 0.4446,0.498351 -0.412448,0.0084 z m 36.834748,-1.258342 c -0.47761,-0.153054 -0.82244,-0.40879 -0.7663,-0.568302 0.14015,-0.398216 0.95341,-0.211717 1.72566,0.395734 0.69947,0.5502 0.39177,0.605549 -0.95936,0.172568 z M 87.217092,20.953035 c 0,-0.275067 0.92896,-0.260384 1.85208,0.02927 0.52148,0.163631 0.3955,0.20694 -0.59531,0.204654 -0.69123,-0.0016 -1.25677,-0.106862 -1.25677,-0.233927 z m -4.36563,-3.015185 c -1.2376,-0.318116 -1.2632,-0.340914 -0.39687,-0.353511 0.50932,-0.0074 1.28323,0.150088 1.71979,0.349987 0.98409,0.450608 0.42225,0.452105 -1.32292,0.0035 z m 0.34727,-1.100751 c 0.19099,-0.07643 0.4192,-0.06703 0.50711,0.02089 0.0879,0.08792 -0.0684,0.150453 -0.34726,0.138965 -0.30823,-0.0127 -0.37092,-0.07539 -0.15985,-0.159853 z m -4.7129,-0.21668 c 0,-0.328569 1.17551,-1.445315 1.5264,-1.450092 0.22811,-0.0031 0.28101,-0.22277 0.16497,-0.685086 -0.14026,-0.55885 0.0147,-0.85872 0.86652,-1.677264 1.61048,-1.547489 4.0567,-1.72638 4.0567,-0.296664 0,0.250669 0.23812,0.671262 0.52917,0.934652 0.29104,0.263389 0.52916,0.698561 0.52916,0.967048 0,0.306823 0.19077,0.48816 0.51355,0.48816 0.28246,0 0.59863,0.137648 0.7026,0.305884 0.13581,0.21974 -0.0554,0.256997 -0.67891,0.132292 -0.47738,-0.09548 -1.01517,-0.173593 -1.19508,-0.173593 -0.211,0 -0.27964,-0.248319 -0.19337,-0.699592 0.12248,-0.640756 0.0732,-0.688023 -0.58592,-0.562022 -0.51359,0.09818 -0.63815,0.05606 -0.43501,-0.147074 0.34952,-0.349518 0.37469,-1.414847 0.0383,-1.622721 -0.13546,-0.08372 -0.32108,-0.03122 -0.41249,0.116677 -0.0914,0.147894 -0.57588,0.268899 -1.07661,0.268899 -0.87829,0 -1.1936,0.32293 -0.64585,0.661458 0.51269,0.316857 0.25687,0.669604 -0.37127,0.511951 -1.04039,-0.261121 -1.30353,0.578267 -0.53558,1.708411 0.34554,0.508507 0.56295,0.989865 0.48312,1.069685 -0.0798,0.07982 -0.26117,-0.06224 -0.40301,-0.315688 -0.2992,-0.534641 -1.41744,-0.645581 -1.216,-0.120638 0.0724,0.188591 -0.0624,0.3484 -0.30242,0.358629 -0.23813,0.01015 -0.64132,0.10793 -0.89598,0.217295 -0.25467,0.109365 -0.46303,0.113592 -0.46303,0.0094 z M 94.36084,16.22409 c 0,-0.145521 0.13364,-0.264584 0.29698,-0.264584 0.20323,0 0.19143,-0.127172 -0.0374,-0.402848 -0.19301,-0.232562 -0.54223,-0.336867 -0.82615,-0.246754 -0.27049,0.08585 -0.49181,0.02901 -0.49181,-0.126318 0,-0.343087 1.41711,-0.374158 2.05411,-0.04504 0.25269,0.130557 0.75709,0.371609 1.12089,0.535673 0.63785,0.287649 0.63162,0.293749 -0.1745,0.1709 -0.57771,-0.08804 -0.88166,-0.0083 -0.98389,0.258078 -0.16584,0.432183 -0.95827,0.532152 -0.95827,0.120891 z"
       id="path3" />
  </g>
</svg>
