<?xml version="1.0" encoding="UTF-8" standalone="no"?>
<!-- Created with Inkscape (http://www.inkscape.org/) -->

<svg
   width="19.740435mm"
   height="16.541353mm"
   viewBox="0 0 19.740435 16.541353"
   version="1.1"
   id="svg1"
   inkscape:version="1.4.2 (2aeb623e1d, 2025-05-12)"
   sodipodi:docname="trees4.svg"
   xmlns:inkscape="http://www.inkscape.org/namespaces/inkscape"
   xmlns:sodipodi="http://sodipodi.sourceforge.net/DTD/sodipodi-0.dtd"
   xmlns="http://www.w3.org/2000/svg"
   xmlns:svg="http://www.w3.org/2000/svg">
  <sodipodi:namedview
     id="namedview1"
     pagecolor="#ffffff"
     bordercolor="#000000"
     borderopacity="0.25"
     inkscape:showpageshadow="2"
     inkscape:pageopacity="0.0"
     inkscape:pagecheckerboard="0"
     inkscape:deskcolor="#d1d1d1"
     inkscape:document-units="mm"
     inkscape:zoom="0.7349537"
     inkscape:cx="232.66772"
     inkscape:cy="408.86929"
     inkscape:window-width="1854"
     inkscape:window-height="1011"
     inkscape:window-x="0"
     inkscape:window-y="0"
     inkscape:window-maximized="1"
     inkscape:current-layer="layer1" />
  <defs
     id="defs1" />
  <g
     inkscape:label="Layer 1"
     inkscape:groupmode="layer"
     id="layer1"
     transform="translate(-43.391667,-40.216666)">
    <path
       style="fill:#000000"
       d="m 44.648437,56.1792 c -0.69122,-0.30346 -1.25677,-0.66152 -1.25677,-0.79568 0,-0.13416 0.17859,-0.17539 0.39687,-0.0916 0.21829,0.0838 0.39688,0.037 0.39688,-0.10398 0,-0.14096 0.15623,-0.25628 0.34718,-0.25628 0.5459,0 2.43307,0.97956 2.84622,1.47737 0.30365,0.36588 0.16484,0.34396 -0.73769,-0.11647 -1.38286,-0.70548 -1.61247,-0.7142 -1.0005,-0.038 0.26339,0.29104 0.43067,0.5173 0.37173,0.5028 -0.0589,-0.0145 -0.6727,-0.27467 -1.36392,-0.57814 z m 2.09697,-0.83119 c -0.70206,-0.34396 -1.17152,-0.69025 -1.04325,-0.76953 0.27836,-0.17204 2.45201,0.88914 2.45201,1.19708 0,0.27632 0.0732,0.29854 -1.40876,-0.42755 z m 7.08584,0.35882 c -0.0962,-0.15571 -0.43069,-0.38629 -0.74322,-0.51239 -0.33906,-0.13681 -0.40818,-0.23533 -0.17136,-0.2443 0.21828,-0.008 0.75406,0.22153 1.19062,0.51065 0.54123,0.35844 0.65142,0.52624 0.34635,0.52743 -0.24608,9.5e-4 -0.52615,-0.12567 -0.62239,-0.28139 z m 1.31823,-0.27216 c -0.0988,-0.1599 -0.55149,-0.44705 -1.00593,-0.63813 -0.45444,-0.19108 -0.83873,-0.50674 -0.85398,-0.70148 -0.0152,-0.19473 -0.0459,-0.74715 -0.068,-1.22759 l -0.0403,-0.87352 -0.62565,0.67509 c -0.34411,0.3713 -0.87015,0.67509 -1.16899,0.67509 -1.1276,0 -2.02199,0.78209 -0.91734,0.80216 0.6519,0.0118 1.49535,0.68842 1.13549,0.91082 -0.15688,0.097 -0.68408,-0.0702 -1.17154,-0.37147 -0.48747,-0.30127 -1.1203,-0.54776 -1.40629,-0.54776 -0.75848,0 -0.93073,-0.29429 -0.40563,-0.69303 0.37674,-0.28608 0.38784,-0.35318 0.062,-0.37475 -2.26032,-0.14962 -3.55892,-0.59914 -3.6565,-1.26572 -0.0465,-0.31794 -0.32208,-0.70516 -0.6123,-0.86048 -0.40803,-0.21837 -0.49073,-0.45059 -0.36474,-1.02421 0.11507,-0.52389 0.0477,-0.78602 -0.22933,-0.89233 -0.28744,-0.1103 -0.37946,-0.52518 -0.34438,-1.55274 0.0452,-1.32382 0.0996,-1.42698 0.97391,-1.84485 0.56361,-0.26939 1.02442,-0.3479 1.1774,-0.20059 0.80878,0.77879 0.9195,-0.38932 0.11778,-1.24271 l -0.55691,-0.5928 0.55691,-0.34779 c 0.3063,-0.19129 0.55817,-0.58704 0.55972,-0.87946 0.002,-0.29242 0.40651,-0.92384 0.89991,-1.40317 0.7169,-0.69645 1.03518,-0.83683 1.58468,-0.69892 0.37818,0.0949 0.6876,0.33726 0.6876,0.53853 0,0.20127 0.23812,0.51466 0.52916,0.69642 0.29104,0.18176 0.52917,0.59948 0.52917,0.92828 0,0.77768 0.35181,0.76212 0.77811,-0.0344 0.27678,-0.51717 1.27589,-1.21985 1.73447,-1.21985 0.2653,0 1.71843,1.7583 1.71953,2.08065 0.002,0.61906 1.13818,2.41727 1.5272,2.41727 0.20361,0 0.31684,-0.14883 0.25161,-0.33073 -0.15763,-0.43963 0.27746,-1.25677 0.66918,-1.25677 0.17131,0 0.5735,-0.32742 0.89375,-0.7276 l 0.58227,-0.72761 0.75058,0.55721 c 0.41283,0.30646 0.79265,0.78271 0.84405,1.05833 0.0514,0.27562 0.2705,0.70095 0.48687,0.94519 0.23662,0.26708 0.32437,0.66156 0.22019,0.98982 -0.0953,0.30017 -0.0762,0.69565 0.0423,0.87885 0.35318,0.54588 0.24482,1.64274 -0.18136,1.83586 -0.25265,0.11448 -0.10842,0.18807 0.39687,0.20249 0.43657,0.0125 0.97235,0.1443 1.19063,0.29299 0.2864,0.19509 0.12068,0.2226 -0.59531,0.0988 l -0.99219,-0.17156 v 1.7133 1.71329 l 1.2067,0.46084 c 1.56984,0.59953 1.3683,0.7829 -0.30318,0.27585 -1.63382,-0.49564 -1.76436,-0.48702 -0.77123,0.0509 1.11233,0.60247 0.38098,0.74597 -1.03867,0.2038 -0.64429,-0.24606 -1.31538,-0.39939 -1.49131,-0.34075 -0.17594,0.0587 0.1725,0.26914 0.77432,0.46775 0.60181,0.19862 1.0942,0.46113 1.0942,0.58336 0,0.12223 -0.0298,0.22026 -0.0661,0.21784 -0.28562,-0.019 -3.44567,-1.295 -3.24115,-1.30879 0.64754,-0.0437 -0.61872,-0.53122 -1.38906,-0.53485 -0.8653,-0.004 -1.22465,-0.60652 -0.52917,-0.88716 0.19758,-0.0797 0.14431,-0.14186 -0.13229,-0.15434 -0.49001,-0.0221 -0.57576,0.52196 -0.22398,1.42105 0.15049,0.38463 0.47156,0.52265 1.26192,0.54248 0.62953,0.0158 1.42654,0.27301 1.96237,0.63329 0.49626,0.33368 0.66417,0.52001 0.37313,0.41406 -0.29104,-0.10594 -0.99085,-0.35983 -1.55512,-0.56419 -1.31634,-0.47674 -1.58478,-0.24458 -0.32556,0.28155 0.52505,0.21938 0.95464,0.52401 0.95464,0.67696 0,0.40412 -0.29535,0.34184 -1.19063,-0.25108 -1.10225,-0.72999 -1.36958,-0.66065 -0.47777,0.12393 0.70937,0.62408 0.7166,0.65347 0.16266,0.66145 -0.31884,0.005 -0.66055,-0.12245 -0.75937,-0.28234 z m -5.5475,-3.52365 -0.18626,-1.73932 -0.89536,0.11106 c -0.49245,0.0611 -0.89536,0.0163 -0.89536,-0.0994 0,-0.28011 2.83957,-0.59109 3.83953,-0.4205 0.43487,0.0742 1.19571,0.18841 1.69076,0.25383 0.88582,0.11706 1.43967,0.58525 1.18321,1.0002 -0.13874,0.22448 1.03476,0.7797 1.83052,0.86607 0.90146,0.0978 0.72792,-0.36477 -0.20229,-0.53928 -1.17247,-0.21995 -1.23002,-0.58425 -0.0735,-0.46526 0.69974,0.072 0.76134,0.0423 0.33073,-0.15952 -0.29104,-0.13639 -0.79706,-0.25636 -1.12448,-0.26658 -0.32742,-0.0102 -0.59531,-0.13766 -0.59531,-0.28318 0,-0.32706 0.17366,-0.32961 1.25852,-0.0185 0.47555,0.13638 0.85815,0.14335 0.85815,0.0156 0,-0.4316 -0.53343,-0.56129 -2.392,-0.58152 -1.0212,-0.0111 -1.92474,-0.13027 -2.00787,-0.26478 -0.0831,-0.13451 0.01,-0.2225 0.20613,-0.19552 0.699,0.0959 1.31262,-0.0168 1.1881,-0.21826 -0.0695,-0.11252 -1.29486,-0.2394 -2.72292,-0.28195 -1.42805,-0.0426 -2.64818,-0.12907 -2.71138,-0.19228 -0.0632,-0.0632 0.94672,-0.12789 2.24428,-0.14376 l 2.3592,-0.0288 -1.5875,-0.35084 -1.5875,-0.35084 1.65364,0.14107 c 1.11025,0.0947 1.65365,0.0456 1.65365,-0.14949 0,-0.15981 -0.26789,-0.30437 -0.59531,-0.32125 -0.44799,-0.0231 -0.48073,-0.0606 -0.1323,-0.15169 0.25467,-0.0666 0.46303,-0.2186 0.46303,-0.33788 0,-0.3345 -0.75702,-0.54698 -0.93319,-0.26194 -0.25355,0.41026 -0.72471,0.28894 -0.55863,-0.14384 0.23691,-0.61739 -0.0973,-1.19063 -0.69417,-1.19063 -0.50819,0 -0.51465,-0.0301 -0.10398,-0.48385 0.55651,-0.61493 0.561,-1.10365 0.0101,-1.10365 -0.30034,0 -0.38567,-0.16084 -0.28651,-0.54003 0.11441,-0.43751 0.0449,-0.50948 -0.36602,-0.37905 -0.37632,0.11944 -0.50724,0.0335 -0.50724,-0.33309 0,-0.50563 -0.4675,-1.12908 -0.84666,-1.12908 -0.11642,0 -0.21167,0.24615 -0.21167,0.547 0,0.42659 -0.11648,0.51003 -0.52917,0.37904 -0.36951,-0.11728 -0.52916,-0.0475 -0.52916,0.23114 0,0.2195 0.11906,0.47268 0.26458,0.56261 0.40279,0.24895 0.3156,0.66443 -0.10553,0.50283 -0.71584,-0.27469 -0.7559,0.47811 -0.0598,1.12357 0.38197,0.35419 0.6945,0.78203 0.6945,0.95077 0,0.22672 -0.0829,0.22392 -0.3175,-0.0107 -0.57891,-0.57891 -0.80278,-0.33406 -0.61689,0.67469 l 0.18283,0.99219 -0.56057,-0.59531 c -0.61691,-0.65514 -1.39924,-0.80938 -1.17776,-0.2322 0.10256,0.26726 -0.0393,0.32897 -0.53747,0.23374 -0.77806,-0.14873 -0.84842,0.0987 -0.26493,0.93177 0.37278,0.53222 0.37278,0.58804 0,0.58804 -0.57856,0 -0.51218,0.42891 0.13672,0.88341 0.34315,0.24036 0.44223,0.44999 0.26458,0.55979 -0.4025,0.24876 -0.3532,0.56649 0.16895,1.08863 0.24913,0.24913 0.47819,0.62484 0.50902,0.8349 0.0934,0.63645 0.909,1.0494 1.91882,0.97153 1.47251,-0.11355 1.5443,-0.15221 0.69107,-0.37213 -0.76665,-0.19761 -0.77291,-0.21127 -0.18347,-0.40034 0.3538,-0.11348 0.55405,-0.34227 0.47649,-0.54438 -0.085,-0.22145 0.006,-0.29496 0.24962,-0.2015 0.25998,0.0998 0.3834,0.54968 0.3834,1.39763 0,1.15192 0.19086,1.76521 0.46426,1.49181 0.0613,-0.0613 0.0277,-0.89417 -0.0748,-1.85079 z m -1.51986,-2.7266 c 0.4697,-0.0584 1.30314,-0.0594 1.85209,-0.002 0.54894,0.0573 0.16465,0.1051 -0.854,0.10628 -1.01865,0.001 -1.46779,-0.0457 -0.99809,-0.10414 z m 5.92754,2.96172 -0.24609,-1.05097 -0.0266,0.97055 c -0.0298,1.08957 0.29523,2.23266 0.4367,1.53563 0.0451,-0.22233 -0.0287,-0.87717 -0.16404,-1.45521 z m -2.49928,0.63549 0.74483,-0.2979 -0.77108,-0.22001 c -0.86831,-0.24774 -1.21329,-0.12418 -1.21329,0.43456 0,0.45916 0.25678,0.47643 1.23954,0.0833 z m 8.06491,-0.65558 c -0.10369,-0.58941 -0.50044,-1.05955 -0.71396,-0.84603 -0.0823,0.0823 -0.07,0.46647 0.0272,0.85378 0.19749,0.78684 0.82533,0.77975 0.6868,-0.008 z m -1.89612,-0.22152 c 0,-0.35521 -0.11906,-0.71943 -0.26458,-0.80936 -0.15437,-0.0954 -0.26459,0.17364 -0.26459,0.64584 0,0.44515 0.11906,0.80937 0.26459,0.80937 0.14552,0 0.26458,-0.29063 0.26458,-0.64585 z m 0.71252,-0.34131 c -0.0671,-0.25743 -0.12638,-0.11086 -0.13177,0.3257 -0.005,0.43656 0.0495,0.64719 0.12197,0.46805 0.0725,-0.17913 0.0769,-0.53631 0.01,-0.79375 z m 2.1979,0.4736 c 0,-0.13693 -0.11907,-0.32255 -0.26459,-0.41249 -0.14552,-0.0899 -0.26458,0.0221 -0.26458,0.24897 0,0.22687 0.11906,0.41249 0.26458,0.41249 0.14552,0 0.26459,-0.11203 0.26459,-0.24897 z m -8.33438,-0.54478 c -0.0899,-0.14552 -0.63977,-0.26458 -1.22185,-0.26458 -0.63819,0 -0.99342,0.10504 -0.89482,0.26458 0.0899,0.14552 0.63978,0.26459 1.22186,0.26459 0.63818,0 0.99341,-0.10504 0.89481,-0.26459 z m 0.76544,-0.6831 c 0.0883,-0.23018 0.1606,-0.4683 0.1606,-0.52916 0,-0.0609 -0.72429,-0.11065 -1.60955,-0.11065 -1.17038,0 -1.57929,0.0902 -1.49867,0.33073 0.061,0.1819 0.54119,0.33468 1.06712,0.33951 0.52594,0.005 1.04159,0.0941 1.14589,0.19844 0.30261,0.3026 0.56164,0.22191 0.73461,-0.22887 z m 7.03977,-0.0712 c 0,-0.24203 -1.24074,-0.56863 -2.16017,-0.56863 -0.39381,0 -0.43769,0.0736 -0.1972,0.33073 0.36148,0.38647 2.35737,0.5879 2.35737,0.2379 z m 0,-1.0978 c -0.21828,-0.14106 -0.71727,-0.2583 -1.10887,-0.26053 -0.39159,-0.002 -0.78852,-0.12789 -0.88206,-0.27924 -0.1548,-0.25048 0.55643,-0.18335 1.6602,0.15669 0.1819,0.056 0.33073,-0.002 0.33073,-0.12811 0,-0.1265 -0.44649,-0.35876 -0.99219,-0.51615 l -0.99219,-0.28615 1.02276,0.1159 c 0.67456,0.0764 1.15417,-0.0155 1.40872,-0.27005 0.31134,-0.31134 0.31822,-0.40844 0.0356,-0.50223 -2.28419,-0.75794 -3.00468,-0.94055 -3.71102,-0.94055 -1.20023,0 -0.79204,0.23144 1.41574,0.8027 1.72836,0.44722 1.30988,0.47713 -0.96553,0.069 -0.73998,-0.13272 -0.75976,-0.1161 -0.29197,0.24535 0.34762,0.2686 0.46104,0.60079 0.36918,1.0813 -0.15765,0.82467 0.038,0.92959 1.77488,0.95169 0.94611,0.012 1.20987,-0.0562 0.92604,-0.23964 z m -3.175,-0.97014 c 0,-0.38806 -0.0669,-0.63864 -0.14871,-0.55685 -0.0818,0.0818 -0.82495,-0.008 -1.65146,-0.20062 -0.82652,-0.19213 -1.55982,-0.29226 -1.62957,-0.22251 -0.18546,0.18546 0.57816,0.61843 1.09902,0.62315 0.24607,0.002 0.51413,0.11201 0.59568,0.24396 0.0816,0.13195 -0.09,0.1776 -0.38126,0.10143 -0.29125,-0.0762 -0.52953,-0.0143 -0.52953,0.13757 0,0.32436 0.59151,0.5061 1.78593,0.54873 0.76284,0.0272 0.8599,-0.0489 0.8599,-0.67486 z m -0.84336,-0.004 c 0.191,-0.0764 0.4192,-0.067 0.50712,0.0209 0.0879,0.0879 -0.0683,0.15045 -0.34727,0.13896 -0.30822,-0.0127 -0.37092,-0.0754 -0.15985,-0.15985 z m -0.10917,-1.24829 c -0.63589,-0.43489 -2.48705,-0.73739 -2.48705,-0.40642 0,0.13637 0.26789,0.24977 0.59531,0.252 0.32742,0.002 0.73935,0.0956 0.9154,0.20748 0.17605,0.11188 0.58085,0.22307 0.89956,0.24707 0.55529,0.0418 0.55849,0.0293 0.0768,-0.30013 z m -0.76726,-0.95222 c 0.10034,-0.16237 -0.27694,-0.25249 -0.97658,-0.23328 -1.06323,0.0292 -1.08658,0.0449 -0.34634,0.23328 1.14119,0.29038 1.14345,0.29038 1.32292,0 z m 4.10104,0 c -0.31522,-0.20371 -0.26078,-0.25897 0.26458,-0.26858 1.00053,-0.0183 0.12772,-0.43074 -1.32291,-0.62514 l -1.19063,-0.15955 0.92604,0.37421 c 0.84951,0.34329 0.87138,0.37806 0.26459,0.42072 l -0.66146,0.0465 0.66146,0.21184 c 0.3638,0.11651 0.84005,0.22188 1.05833,0.23416 0.35278,0.0198 0.35278,-0.006 0,-0.23416 z m -4.29347,-0.83652 c -0.42536,-0.26995 -3.11488,-0.29014 -3.11483,-0.0234 10e-6,0.10914 0.77663,0.20714 1.7258,0.21777 0.97068,0.0109 1.57843,-0.0742 1.38903,-0.19439 z m 4.14795,-0.45141 c -0.34661,-0.3166 -2.16012,-0.64374 -1.83059,-0.33021 0.25778,0.24525 0.98599,0.47213 1.6983,0.52911 0.23266,0.0186 0.28472,-0.0597 0.13229,-0.1989 z m -4.61755,-0.36572 c 3.1e-4,-0.10914 -0.60177,-0.19843 -1.33796,-0.19843 -0.7362,0 -1.27406,0.10432 -1.19526,0.23183 0.17291,0.27976 2.53241,0.24866 2.53322,-0.0334 z m 4.82921,-0.37366 c -0.1819,-0.0734 -0.47955,-0.0734 -0.66145,0 -0.1819,0.0734 -0.0331,0.13345 0.33073,0.13345 0.3638,0 0.51263,-0.06 0.33072,-0.13345 z m -5.16384,-0.45972 c 0.0873,-0.0873 -0.51588,-0.1588 -1.3405,-0.1588 -0.82461,0 -1.4993,0.0916 -1.4993,0.20346 0,0.23477 2.60128,0.19386 2.8398,-0.0447 z m -0.45855,-0.68797 c -0.21828,-0.14106 -0.81359,-0.24644 -1.32292,-0.23416 -0.8485,0.0205 -0.87066,0.0401 -0.26458,0.23416 0.3638,0.11651 0.95911,0.22188 1.32292,0.23416 0.52004,0.0175 0.57661,-0.0325 0.26458,-0.23416 z m -0.45075,-1.08575 c -0.20927,-0.20927 -0.43041,-0.21155 -0.78052,-0.008 -0.42826,0.24893 -0.39224,0.28495 0.292,0.292 0.5692,0.006 0.70146,-0.071 0.48852,-0.28395 z m -4.90706,12.64287 c -0.69123,-0.31686 -1.25677,-0.65156 -1.25677,-0.74377 0,-0.21236 1.47241,0.31048 2.51354,0.89254 1.14414,0.63965 0.22603,0.53097 -1.25677,-0.14877 z m 13.49375,-6.1761 c 0.1819,-0.0734 0.47955,-0.0734 0.66145,0 0.18191,0.0734 0.0331,0.13345 -0.33072,0.13345 -0.36381,0 -0.51263,-0.0601 -0.33073,-0.13345 z"
       id="path12" />
  </g>
</svg>
