<?xml version="1.0" encoding="UTF-8" standalone="no"?>
<!-- Created with Inkscape (http://www.inkscape.org/) -->

<svg
   width="25.381226mm"
   height="14.532915mm"
   viewBox="0 0 25.381226 14.532915"
   version="1.1"
   id="svg1"
   inkscape:version="1.4.2 (2aeb623e1d, 2025-05-12)"
   sodipodi:docname="trees2.svg"
   xmlns:inkscape="http://www.inkscape.org/namespaces/inkscape"
   xmlns:sodipodi="http://sodipodi.sourceforge.net/DTD/sodipodi-0.dtd"
   xmlns="http://www.w3.org/2000/svg"
   xmlns:svg="http://www.w3.org/2000/svg">
  <sodipodi:namedview
     id="namedview1"
     pagecolor="#ffffff"
     bordercolor="#000000"
     borderopacity="0.25"
     inkscape:showpageshadow="2"
     inkscape:pageopacity="0.0"
     inkscape:pagecheckerboard="0"
     inkscape:deskcolor="#d1d1d1"
     inkscape:document-units="mm"
     inkscape:zoom="0.7349537"
     inkscape:cx="288.45354"
     inkscape:cy="372.13228"
     inkscape:window-width="1854"
     inkscape:window-height="1011"
     inkscape:window-x="0"
     inkscape:window-y="0"
     inkscape:window-maximized="1"
     inkscape:current-layer="layer1" />
  <defs
     id="defs1" />
  <g
     inkscape:label="Layer 1"
     inkscape:groupmode="layer"
     id="layer1"
     transform="translate(-28.839581,-50.00625)">
    <path
       style="fill:#000000"
       d="m 32.201755,64.392339 c -0.0807,-0.08075 -0.8745,-0.157144 -1.76388,-0.169755 -1.61492,-0.0229 -1.99279,-0.240611 -1.19374,-0.687781 0.27099,-0.151656 1.03778,-0.07194 2.13085,0.221522 1.80708,0.485156 2.37852,0.78284 1.50277,0.78284 -0.29104,0 -0.59524,-0.06607 -0.676,-0.146826 z m 0.52166,-1.108508 c -1.27331,-0.0485 -2.31511,-0.202612 -2.31511,-0.342467 0,-0.290403 0.20182,-0.319034 1.85209,-0.262745 1.636681,0.05582 2.730721,0.255281 3.029481,0.552308 0.15875,0.157835 0.15875,0.22986 0,0.195497 -0.13825,-0.02992 -1.29316,-0.09409 -2.566461,-0.142593 z m 2.860491,-0.912455 c -4.126031,-0.288898 -4.090341,-0.505325 0.0587,-0.356206 1.93299,0.06947 3.71893,0.241413 3.96875,0.382088 0.52001,0.292833 0.52483,0.292863 -4.02749,-0.02588 z m 7.97054,-0.649263 c -0.0942,-0.09417 -2.64409,-0.248653 -5.66649,-0.343295 -3.93989,-0.123372 -5.326081,-0.245316 -4.897511,-0.430838 0.36253,-0.156938 1.559851,-0.17985 3.042701,-0.05822 1.34473,0.110296 3.84371,0.273891 5.55331,0.363543 1.73588,0.09103 3.04327,0.26832 2.96095,0.401519 -0.17123,0.277056 -0.74435,0.315898 -0.99296,0.06729 z m 6.92475,-0.483584 c -0.0691,-0.0691 -0.73717,-0.14728 -1.4846,-0.173734 -0.74743,-0.02645 -1.51441,-0.155063 -1.7044,-0.285797 -0.21639,-0.148907 0.0993,-0.187866 0.8452,-0.104294 0.65484,0.07337 1.57757,0.139454 2.05052,0.146849 0.47294,0.0074 0.85989,0.132508 0.85989,0.278029 0,0.274077 -0.3465,0.35905 -0.56661,0.138947 z m -7.28066,-0.800406 c -0.51238,-0.145521 -0.84152,-0.35388 -0.73141,-0.463021 0.11012,-0.10914 -0.40792,-0.198437 -1.15119,-0.198437 -0.74327,0 -1.42498,0.119062 -1.51492,0.264583 -0.093,0.150551 -1.38264,0.261116 -2.99218,0.256538 -2.17856,-0.0062 -2.71408,-0.07459 -2.33014,-0.297595 0.29636,-0.172131 1.23519,-0.236841 2.31511,-0.159573 0.99912,0.07149 1.81659,0.03655 1.81659,-0.07764 0,-0.431136 -0.33049,-1.044645 -0.56274,-1.044645 -1.04144,0 -3.73181,-2.845914 -2.93991,-3.109883 0.14931,-0.04977 0.21304,-0.313916 0.14163,-0.586992 -0.0904,-0.345529 0.34056,-0.990257 1.41715,-2.120301 0.85085,-0.893089 1.69962,-1.914111 1.88617,-2.268937 0.49802,-0.947259 0.7943,-0.857579 1.75467,0.531112 0.34449,0.498132 0.37782,0.489569 1.02992,-0.264583 0.62835,-0.726701 0.68737,-0.744683 0.87319,-0.266075 0.12446,0.320583 0.0809,0.552748 -0.11593,0.618372 -0.17337,0.05779 -0.42878,0.317255 -0.56757,0.57659 -0.22684,0.423863 -0.1071,0.474867 1.1848,0.50465 1.17825,0.02716 1.40965,-0.03851 1.28453,-0.36457 -0.0839,-0.218736 -0.43714,-0.469112 -0.78489,-0.556392 -0.34775,-0.08728 -0.63227,-0.324377 -0.63227,-0.526883 0,-0.495146 1.1703,-0.474001 1.5875,0.02868 0.42197,0.508448 1.16552,0.508448 1.5875,0 0.46974,-0.566003 1.25427,-0.490336 1.59924,0.154243 0.27096,0.506286 0.3326,0.517048 0.75775,0.132292 0.51968,-0.470308 1.49538,-0.556598 1.74405,-0.154243 0.0899,0.145521 0.50517,0.264583 0.92275,0.264583 0.92245,0 1.59079,0.612756 1.59079,1.458493 0,0.344819 0.11906,0.700529 0.26458,0.790466 0.14552,0.08994 0.26459,0.668463 0.26459,1.285615 0,0.617151 0.13089,1.252983 0.29086,1.412959 0.48187,0.481874 0.0187,1.402467 -0.70557,1.402467 -0.53324,0 -0.64363,0.131082 -0.64363,0.764305 0,0.662537 0.12207,0.787204 0.91676,0.936289 0.50422,0.09459 0.98104,0.275984 1.0596,0.403094 0.0785,0.12711 -0.0661,0.191296 -0.32145,0.142636 -0.25536,-0.04866 -1.02983,-0.17261 -1.72105,-0.275444 -1.16408,-0.17318 -1.25677,-0.242998 -1.25677,-0.946633 0,-0.417815 -0.11907,-0.759663 -0.26459,-0.759663 -0.14552,0 -0.26458,0.360503 -0.26458,0.801118 v 0.801119 l -1.68387,-0.172518 c -1.13386,-0.116167 -1.74392,-0.07536 -1.8677,0.124923 -0.12986,0.210124 0.40012,0.297441 1.80535,0.297441 2.47312,0 5.97955,0.503713 5.97955,0.858986 0,0.160909 -0.33873,0.192966 -0.85989,0.08138 -1.24148,-0.265816 -1.90707,-0.347923 -4.49792,-0.554864 -1.89185,-0.151109 -2.3151,-0.117473 -2.3151,0.183978 0,0.4443 -1.92288,0.497106 -3.34936,0.09198 z m 1.91719,-0.329738 c -0.23984,-0.239842 -1.74283,-0.286366 -1.74283,-0.05395 0,0.118935 0.32742,0.258171 0.7276,0.309414 0.77823,0.09965 1.2513,-0.01939 1.01523,-0.255466 z m 0.903,-1.109855 c 0,-0.427974 -0.11906,-0.85172 -0.26458,-0.941657 -0.15746,-0.09731 -0.26459,0.217739 -0.26459,0.778135 0,0.517911 0.11906,0.941657 0.26459,0.941657 0.14552,0 0.26458,-0.350161 0.26458,-0.778135 z m -3.70417,0.248968 c 0,-0.317069 -0.98193,-0.317069 -1.71979,0 -0.40983,0.17611 -0.27557,0.231585 0.59531,0.245987 0.61847,0.01023 1.12448,-0.100466 1.12448,-0.245987 z m 2.58277,0.08279 c -0.25296,-0.06622 -0.72921,-0.06863 -1.05833,-0.0053 -0.32912,0.06329 -0.12215,0.117469 0.45994,0.120406 0.58208,0.0029 0.85136,-0.04884 0.59839,-0.115066 z m -5.52449,-0.810398 c -0.0172,-0.254661 -0.12219,-0.820208 -0.23328,-1.256771 -0.18028,-0.708517 -0.20533,-0.658799 -0.23328,0.463021 -0.0172,0.691224 0.0878,1.256771 0.23328,1.256771 0.14552,0 0.2505,-0.208359 0.23328,-0.463021 z m 2.79179,-0.09516 c 0.39875,-0.366134 -0.0643,-0.606741 -0.48912,-0.254161 -0.32501,0.269738 -0.37542,0.210354 -0.3136,-0.369467 0.0405,-0.379973 0.2119,-0.829103 0.38086,-0.998066 0.16897,-0.168962 0.30721,-0.426267 0.30721,-0.571788 0,-0.14699 -0.14111,-0.123472 -0.3175,0.05292 -0.17463,0.174625 -0.50205,0.313879 -0.72761,0.309454 -0.33939,-0.0067 -0.33083,-0.05423 0.0497,-0.275914 0.25287,-0.147328 0.59487,-0.530661 0.75999,-0.851851 0.24757,-0.481571 0.23885,-0.525982 -0.0497,-0.253252 -0.51272,0.484639 -0.88486,0.404565 -0.39525,-0.08504 0.61138,-0.611376 0.50726,-1.071952 -0.11501,-0.5088 -0.29194,0.264196 -0.59247,0.418679 -0.66786,0.343294 -0.0754,-0.07538 0.0444,-0.287671 0.26621,-0.471747 0.2218,-0.184076 0.40327,-0.513277 0.40327,-0.731559 0,-0.329875 -0.0698,-0.338939 -0.41351,-0.05369 -0.36362,0.301771 -0.39076,0.252538 -0.22498,-0.407982 0.16202,-0.645572 0.12303,-0.726033 -0.27741,-0.572371 -0.34887,0.133875 -0.42642,0.07581 -0.30865,-0.231095 0.0901,-0.234804 -0.0103,-0.474213 -0.23512,-0.560474 -0.21583,-0.08282 -0.3962,-0.346205 -0.40083,-0.585297 -0.007,-0.368983 -0.0672,-0.357056 -0.39687,0.07888 -0.21366,0.282475 -0.38846,0.725222 -0.38846,0.983884 0,0.324267 -0.13271,0.419367 -0.42741,0.306281 -0.33956,-0.1303 -0.39039,-0.04736 -0.24728,0.403514 0.14277,0.44984 0.092,0.533707 -0.24487,0.404439 -0.23375,-0.0897 -0.40603,-0.05918 -0.38285,0.06781 0.10673,0.584649 -0.0538,0.86296 -0.41739,0.723452 -0.21828,-0.08376 -0.57552,-0.08374 -0.79386,4.6e-5 -0.34143,0.131016 -0.3249,0.2807 0.11805,1.069338 0.33498,0.5964 0.41249,0.951183 0.22171,1.014778 -0.3331,0.111033 1.50917,2.053491 1.94758,2.053491 0.18079,0 0.22371,-0.327789 0.11724,-0.895343 -0.12866,-0.685802 -0.068,-0.93369 0.25901,-1.059192 0.68351,-0.262288 0.9084,0.05546 0.9084,1.283515 v 1.149833 l 1.12448,-0.140543 c 0.61846,-0.0773 1.2356,-0.242578 1.37142,-0.367288 z m -5.54949,-3.163585 c -0.0959,-0.155202 -0.11765,-0.338931 -0.0483,-0.408286 0.0694,-0.06935 0.1966,0.05763 0.28277,0.282187 0.17891,0.466224 0.0264,0.548232 -0.23447,0.126099 z m 8.47755,3.457187 c 0.0899,-0.145521 -0.0667,-0.264584 -0.34819,-0.264584 -0.28144,0 -0.88378,-0.07441 -1.33853,-0.165364 -0.47275,-0.09455 -0.82682,-0.05514 -0.82682,0.09203 0,0.141566 0.36941,0.267895 0.82092,0.280733 0.45151,0.01284 0.88807,0.09049 0.97014,0.172556 0.2282,0.228202 0.54101,0.178251 0.72248,-0.115368 z m 1.70119,0.06614 c -0.0102,-0.10914 -0.12092,-0.436562 -0.24598,-0.727604 -0.2015,-0.468908 -0.22951,-0.446311 -0.24599,0.198438 -0.0102,0.400182 0.10046,0.727604 0.24599,0.727604 0.14552,0 0.25621,-0.0893 0.24598,-0.198438 z m 2.92902,-0.46302 c 0,-0.363803 -0.11907,-0.661459 -0.26459,-0.661459 -0.14552,0 -0.26458,0.297656 -0.26458,0.661459 0,0.363802 0.11906,0.661458 0.26458,0.661458 0.14552,0 0.26459,-0.297656 0.26459,-0.661458 z m -2.11667,-0.295814 c 0,-0.218281 -0.11906,-0.32329 -0.26458,-0.233353 -0.14553,0.08994 -0.26459,0.342115 -0.26459,0.560396 0,0.218282 0.11906,0.323291 0.26459,0.233354 0.14552,-0.08994 0.26458,-0.342115 0.26458,-0.560397 z m 3.70417,0.147907 c 0,-0.29963 -0.11387,-0.474411 -0.25303,-0.388402 -0.13917,0.08601 -0.18596,0.331161 -0.10399,0.544782 0.20988,0.546924 0.35702,0.482474 0.35702,-0.15638 z m -2.64584,-0.248968 c 0,-0.145521 -0.11906,-0.264584 -0.26458,-0.264584 -0.14552,0 -0.26458,0.119063 -0.26458,0.264584 0,0.14552 0.11906,0.264583 0.26458,0.264583 0.14552,0 0.26458,-0.119063 0.26458,-0.264583 z m -4.23333,-0.529167 c 0,-0.145521 -0.29766,-0.264583 -0.66146,-0.264583 -0.3638,0 -0.66146,0.119062 -0.66146,0.264583 0,0.145521 0.29766,0.264583 0.66146,0.264583 0.3638,0 0.66146,-0.119062 0.66146,-0.264583 z m 3.35706,-0.358455 c 0.0939,-0.09389 -0.44444,-0.170712 -1.1963,-0.170712 -0.75185,0 -1.36701,0.105819 -1.36701,0.235152 0,0.262009 2.29455,0.204325 2.56331,-0.06444 z m 2.57442,0.197856 c 0.75948,-0.29144 0.43665,-0.500859 -0.77211,-0.500859 -1.25376,0 -1.60516,0.280227 -0.59531,0.474733 0.32742,0.06306 0.67487,0.130876 0.77211,0.150693 0.0972,0.01982 0.36513,-0.03624 0.59531,-0.124567 z m -5.6669,-0.595619 c 0,-0.254057 -2.04176,-0.200628 -2.30265,0.06026 -0.0917,0.09174 0.38883,0.166794 1.06793,0.166794 0.6791,0 1.23472,-0.102173 1.23472,-0.227051 z m 7.47448,0.04033 c -0.583,-0.112291 -0.85255,-0.607025 -0.33073,-0.607025 0.14552,0 0.26459,-0.119062 0.26459,-0.264583 0,-0.145521 -0.21829,-0.264583 -0.48507,-0.264583 -0.28403,0 -0.48676,0.191902 -0.48915,0.46302 -0.005,0.563334 0.39893,0.862576 1.10651,0.819813 0.45639,-0.02758 0.4473,-0.04775 -0.0661,-0.146642 z m -4.32153,-0.512738 c 0.0606,-0.05186 -0.47514,-0.09246 -1.19062,-0.09023 -0.89456,0.0028 -1.1808,0.08001 -0.91645,0.247231 0.33646,0.212846 1.80235,0.103624 2.10707,-0.156996 z m 2.93247,0.0091 c 0,-0.05684 -0.56555,-0.101522 -1.25677,-0.09929 -0.71176,0.0023 -1.11488,0.09417 -0.92958,0.211867 0.31286,0.198709 2.18635,0.102243 2.18635,-0.112574 z m -6.28022,-0.289593 c -0.32542,-0.0628 -0.92073,-0.06443 -1.32291,-0.0036 -0.40219,0.06082 -0.13593,0.112199 0.59167,0.114186 0.7276,0.002 1.05666,-0.04777 0.73124,-0.110574 z m 2.44376,-0.342918 c -0.0899,-0.145521 -0.33509,-0.264584 -0.54478,-0.264584 -0.20969,0 -0.38126,0.119063 -0.38126,0.264584 0,0.14552 0.24515,0.264583 0.54478,0.264583 0.29963,0 0.4712,-0.119063 0.38126,-0.264583 z m 3.175,0 c -0.73786,-0.31707 -1.71979,-0.31707 -1.71979,0 0,0.14552 0.50601,0.256215 1.12448,0.245987 0.87089,-0.0144 1.00514,-0.06988 0.59531,-0.245987 z m -5.02708,-0.264584 c -0.0899,-0.145521 -0.63275,-0.264583 -1.20624,-0.264583 -0.5735,0 -1.04272,0.119062 -1.04272,0.264583 0,0.145521 0.54281,0.264584 1.20624,0.264584 0.73678,0 1.1426,-0.102973 1.04272,-0.264584 z m 7.01146,-0.264583 c 0,-0.145521 -0.23813,-0.264583 -0.52917,-0.264583 -0.29104,0 -0.52917,0.119062 -0.52917,0.264583 0,0.145521 0.23813,0.264583 0.52917,0.264583 0.29104,0 0.52917,-0.119062 0.52917,-0.264583 z m -4.56098,-0.18179 c -0.25297,-0.06622 -0.72922,-0.06863 -1.05834,-0.0053 -0.32911,0.06329 -0.12214,0.117469 0.45994,0.120405 0.58208,0.0029 0.85136,-0.04884 0.5984,-0.115066 z m 2.97348,-0.02988 c 0,-0.435824 -0.65777,-0.845631 -1.30969,-0.815974 -0.54589,0.02483 -0.57367,0.05499 -0.14552,0.157973 0.29104,0.07001 0.64823,0.248169 0.79375,0.395921 0.17826,0.180998 0.0919,0.217749 -0.26459,0.11265 -0.29104,-0.08579 -0.70776,-0.04147 -0.92604,0.0985 -0.28928,0.185497 -0.092,0.25559 0.72761,0.258543 0.61846,0.0022 1.12448,-0.0912 1.12448,-0.207615 z m -6.4823,-0.317437 c -0.7276,-0.1066 -1.43602,-0.09069 -1.57427,0.03535 -0.14404,0.131325 0.42078,0.214075 1.32292,0.193817 l 1.57427,-0.03535 z m 3.83646,-0.264646 c 0,-0.145521 -0.47625,-0.264583 -1.05833,-0.264583 -0.58208,0 -1.05833,0.119062 -1.05833,0.264583 0,0.145521 0.47625,0.264583 1.05833,0.264583 0.58208,0 1.05833,-0.119062 1.05833,-0.264583 z m 3.96875,0 c 0,-0.145521 -0.17859,-0.264583 -0.39687,-0.264583 -0.21828,0 -0.39688,0.119062 -0.39688,0.264583 0,0.145521 0.1786,0.264583 0.39688,0.264583 0.21828,0 0.39687,-0.119062 0.39687,-0.264583 z m -7.67291,-0.310879 c 0,-0.120058 -0.48328,-0.218288 -1.07395,-0.218288 -0.59067,0 -1.01825,0.0893 -0.95017,0.198438 0.1701,0.272715 2.02412,0.290897 2.02412,0.01985 z m 3.2902,-0.510521 c -0.18724,-0.302958 -1.89056,-0.310548 -2.07677,-0.0093 -0.23278,0.376651 0.0282,0.455514 1.1526,0.348286 0.58883,-0.05615 1.00471,-0.208719 0.92417,-0.339032 z m 2.20298,0.110443 c -0.25296,-0.06622 -0.72921,-0.06863 -1.05833,-0.0053 -0.32912,0.06329 -0.12215,0.117469 0.45994,0.120406 0.58208,0.0029 0.85136,-0.04884 0.59839,-0.115067 z m 1.91515,-0.08279 c 0,-0.145521 -0.1786,-0.264583 -0.39688,-0.264583 -0.21828,0 -0.39687,0.119062 -0.39687,0.264583 0,0.145521 0.17859,0.264583 0.39687,0.264583 0.21828,0 0.39688,-0.119062 0.39688,-0.264583 z m -7.40833,-0.487203 c 0,-0.122442 -0.60388,-0.243994 -1.34196,-0.270117 -0.85619,-0.0303 -1.28152,0.05028 -1.17501,0.22262 0.19977,0.323222 2.51697,0.366949 2.51697,0.0475 z m 5.55625,-0.08606 c 0,-0.121267 -0.38696,-0.212118 -0.8599,-0.20189 -0.67927,0.01469 -0.7515,0.06101 -0.34389,0.220486 0.67674,0.264779 1.20379,0.256637 1.20379,-0.0186 z m -3.3073,-0.220486 c -1.03904,-0.186037 -1.04237,-0.190176 -0.18282,-0.227038 1.1476,-0.04921 0.87397,-0.469908 -0.3352,-0.515366 -0.61167,-0.023 -0.93718,0.0845 -0.93718,0.309489 0,0.564017 0.29428,0.699531 1.43316,0.659953 l 1.08038,-0.03755 z m 4.7625,0 c -0.0899,-0.145521 -0.30532,-0.26276 -0.47863,-0.260532 -0.18934,0.0024 -0.15671,0.106423 0.0818,0.260532 0.5083,0.328487 0.59989,0.328487 0.39687,0 z m -1.65364,-0.439812 c -0.1819,-0.0734 -0.47956,-0.0734 -0.66146,0 -0.1819,0.0734 -0.0331,0.133452 0.33073,0.133452 0.3638,0 0.51263,-0.06005 0.33073,-0.133452 z"
       id="path18" />
  </g>
</svg>
