<?xml version="1.0" encoding="UTF-8" standalone="no"?>
<!-- Created with Inkscape (http://www.inkscape.org/) -->

<svg
   width="21.279797mm"
   height="14.812619mm"
   viewBox="0 0 21.279797 14.812619"
   version="1.1"
   id="svg1"
   inkscape:version="1.4.2 (2aeb623e1d, 2025-05-12)"
   sodipodi:docname="trees3.svg"
   xmlns:inkscape="http://www.inkscape.org/namespaces/inkscape"
   xmlns:sodipodi="http://sodipodi.sourceforge.net/DTD/sodipodi-0.dtd"
   xmlns="http://www.w3.org/2000/svg"
   xmlns:svg="http://www.w3.org/2000/svg">
  <sodipodi:namedview
     id="namedview1"
     pagecolor="#ffffff"
     bordercolor="#000000"
     borderopacity="0.25"
     inkscape:showpageshadow="2"
     inkscape:pageopacity="0.0"
     inkscape:pagecheckerboard="0"
     inkscape:deskcolor="#d1d1d1"
     inkscape:document-units="mm"
     inkscape:zoom="0.7349537"
     inkscape:cx="311.58425"
     inkscape:cy="466.01575"
     inkscape:window-width="1854"
     inkscape:window-height="1011"
     inkscape:window-x="0"
     inkscape:window-y="0"
     inkscape:window-maximized="1"
     inkscape:current-layer="layer1" />
  <defs
     id="defs1" />
  <g
     inkscape:label="Layer 1"
     inkscape:groupmode="layer"
     id="layer1"
     transform="translate(-22.892502,-25.278752)">
    <path
       style="fill:#000000"
       d="m 27.24153,39.918802 c -0.0949,-0.0949 -1.061,-0.15569 -2.14686,-0.13505 -1.88527,0.0358 -2.74967,-0.24417 -1.83605,-0.59476 0.65605,-0.25175 3.86925,0.14043 4.45688,0.54398 0.40345,0.27706 0.42847,0.3584 0.11025,0.3584 -0.22641,0 -0.48931,-0.0777 -0.58422,-0.17257 z m -0.77552,-1.08196 c -1.06931,-0.0554 -1.78594,-0.20965 -1.78594,-0.38436 0,-0.36168 4.26992,-0.10773 4.96149,0.29509 0.49683,0.28939 0.6194,0.28595 -3.17555,0.0893 z m 2.82626,-1.10063 c -0.0649,-0.0649 -0.8316,-0.089 -1.70368,-0.0534 -0.9908,0.0404 -1.5856,-0.0416 -1.5856,-0.21859 0,-0.59114 5.56973,-0.37448 5.94407,0.23123 0.1243,0.20111 -2.45484,0.24068 -2.65479,0.0407 z m -1.22288,-1.36349 c -0.56829,-0.13648 -0.549,-0.16865 0.27481,-0.45836 0.59844,-0.21045 1.04363,-0.22722 1.37167,-0.0517 0.26711,0.142959 0.99951,0.271789 1.62754,0.286299 0.62803,0.0145 1.41683,0.1038 1.7529,0.19843 0.74089,0.20863 -4.1608,0.23329 -5.02692,0.0253 z m 9.52566,-0.69542 c 0.19099,-0.0764 0.41919,-0.067 0.50711,0.0209 0.0879,0.0879 -0.0683,0.15045 -0.34726,0.13896 -0.30823,-0.0127 -0.37092,-0.0754 -0.15985,-0.15985 z m -4.84519,-0.39081 c -0.87312,-0.13334 -2.09351,-0.20726 -2.71198,-0.16426 -0.61846,0.043 -1.12448,-0.0293 -1.12448,-0.16067 0,-0.30032 6.18822,-0.0187 7.27605,0.33116 0.72969,0.23465 0.68698,0.25448 -0.52917,0.24573 -0.7276,-0.005 -2.03729,-0.11862 -2.91042,-0.25196 z m 9.12813,-0.5024 c 0,-0.15411 0.11906,-0.20661 0.26458,-0.11668 0.14552,0.0899 0.26458,0.21603 0.26458,0.2802 0,0.0642 -0.11906,0.11668 -0.26458,0.11668 -0.14552,0 -0.26458,-0.12609 -0.26458,-0.2802 z m -2.14575,-0.10166 c -0.19326,-0.19326 -5.72691,-0.70149 -7.706,-0.70775 -1.01256,-0.003 -1.76005,-0.0868 -1.66108,-0.18571 0.33222,-0.33213 6.59343,6.5e-4 8.99929,0.47831 1.60915,0.31948 2.07384,0.48245 1.43316,0.5026 -0.52145,0.0164 -1.00087,-0.023 -1.06537,-0.0874 z m 1.48429,-1.21358 c -1.49101,-0.30589 -3.8398,-0.51936 -6.28263,-0.57102 l -3.90137,-0.0825 -0.001,-0.67445 c -9.7e-4,-0.53378 -0.19997,-0.74632 -0.9541,-1.01902 -1.53066,-0.55349 -1.95755,-1.15104 -1.95755,-2.74013 0,-1.25385 0.0921,-1.47545 0.93495,-2.24896 0.51422,-0.47194 1.07977,-0.85624 1.25677,-0.85401 0.46005,0.006 1.04439,0.41503 0.93974,0.65815 -0.0488,0.11339 0.11832,0.33678 0.3714,0.49642 0.36764,0.2319 0.53745,0.17988 0.84471,-0.2588 0.38221,-0.54568 1.05763,-0.65876 1.67089,-0.27975 0.17633,0.10898 0.54604,0.0775 0.82158,-0.07 0.57612,-0.30834 1.33115,-0.20996 2.10692,0.27451 0.45333,0.28312 0.68729,0.2582 1.45427,-0.15484 0.89747,-0.48332 0.92622,-0.48265 1.58708,0.0372 0.90119,0.70887 2.12359,2.18062 2.24712,2.7055 0.29523,1.25437 0.17738,1.71742 -0.47709,1.87446 -0.41012,0.0984 -0.69291,0.37562 -0.74422,0.72954 -0.13937,0.96129 0.38284,1.57334 1.49399,1.75102 0.56848,0.0909 1.18269,0.34494 1.36493,0.56452 0.41803,0.5037 0.32966,0.49931 -2.77616,-0.13786 z m -2.51354,-1.0587 c 0,-0.31675 -0.74629,-0.65652 -0.96395,-0.43886 -0.2317,0.2317 0.1613,0.71175 0.58269,0.71175 0.20969,0 0.38126,-0.1228 0.38126,-0.27289 z m 1.71979,0.008 c -0.0899,-0.14553 -0.45415,-0.26459 -0.80937,-0.26459 -0.35521,0 -0.64584,0.11906 -0.64584,0.26459 0,0.14552 0.36422,0.26458 0.80937,0.26458 0.4722,0 0.74124,-0.11022 0.64584,-0.26458 z m -7.40833,-0.26459 c -0.0899,-0.14552 -0.48392,-0.25271 -0.87551,-0.23821 l -0.71199,0.0264 0.66145,0.21183 c 0.93914,0.30077 1.11193,0.30077 0.92605,0 z m 3.02066,0.16951 c -0.31603,-0.27253 -1.56546,-0.41184 -1.56546,-0.17455 0,0.14829 0.37704,0.26963 0.83785,0.26963 0.46082,0 0.78824,-0.0428 0.72761,-0.0951 z m 1.21267,-0.69867 c 0.0899,-0.14553 -0.0151,-0.26459 -0.23335,-0.26459 -0.21829,0 -0.47046,0.11906 -0.5604,0.26459 -0.0899,0.14552 0.0151,0.26458 0.23335,0.26458 0.21828,0 0.47046,-0.11906 0.5604,-0.26458 z m -3.37895,-0.15986 c -0.0879,-0.0879 -0.31612,-0.0973 -0.50712,-0.0209 -0.21107,0.0845 -0.14837,0.14716 0.15985,0.15986 0.27892,0.0115 0.43519,-0.0511 0.34727,-0.13897 z m 1.92374,-0.10473 c 0,-0.14552 -0.32742,-0.28242 -0.7276,-0.30422 l -0.72761,-0.0396 0.72761,-0.11022 c 0.40018,-0.0606 0.7276,-0.23686 0.7276,-0.39164 0,-0.29227 -2.25991,-0.15755 -2.57071,0.15325 -0.31901,0.31901 0.1829,0.49814 0.54763,0.19544 0.29466,-0.24455 0.3997,-0.19789 0.51079,0.22688 0.095,0.36321 0.35996,0.53475 0.82606,0.53475 0.37743,0 0.68623,-0.11907 0.68623,-0.26459 z m 2.3188,-0.37852 c -0.51732,-0.37828 -0.35271,-0.67981 0.37113,-0.67981 0.26679,0 0.48507,-0.10757 0.48507,-0.23905 0,-0.13147 -0.59539,-0.2803 -1.32308,-0.33073 -0.72769,-0.0504 -1.32301,-0.002 -1.32292,0.10676 9e-5,0.10914 0.26806,0.21465 0.59548,0.23447 l 0.59531,0.036 -0.59531,0.11466 c -0.64056,0.12338 -0.77601,0.46412 -0.30115,0.7576 0.16179,0.1 0.37562,0.05 0.47517,-0.11107 0.11916,-0.19279 0.34154,-0.10538 0.65082,0.25584 0.2584,0.30179 0.55041,0.46812 0.6489,0.36963 0.0985,-0.0985 -0.0273,-0.32994 -0.27942,-0.51433 z m 1.74563,0.24623 c -0.0838,-0.21828 -0.31815,-0.39687 -0.52086,-0.39687 -0.20271,0 -0.36857,0.17859 -0.36857,0.39687 0,0.21838 0.23426,0.39688 0.52086,0.39688 0.35429,0 0.47216,-0.12693 0.36857,-0.39688 z m -7.10714,-0.13229 c -0.0899,-0.14552 -0.39462,-0.26458 -0.67707,-0.26458 -0.28245,0 -0.51355,0.11906 -0.51355,0.26458 0,0.14552 0.30468,0.26458 0.67707,0.26458 0.38401,0 0.6063,-0.11452 0.51355,-0.26458 z m -1.71979,-1.73762 c 0,-1.37421 0.0371,-1.46125 0.55349,-1.29737 0.44208,0.14031 0.53335,0.0773 0.45343,-0.3129 -0.0592,-0.28902 -0.28525,-0.45682 -0.55349,-0.41083 -0.31044,0.0532 -0.45343,-0.0997 -0.45343,-0.48506 0,-0.33854 -0.13179,-0.51449 -0.33073,-0.44155 -0.1819,0.0667 -0.29797,0.26418 -0.25794,0.43886 0.0474,0.2067 -0.1143,0.25822 -0.46302,0.14754 -0.3304,-0.10487 -0.53581,-0.0509 -0.53581,0.14066 0,0.17089 -0.15958,0.24948 -0.35462,0.17464 -0.37514,-0.14396 -0.42141,1.00397 -0.0833,2.06748 0.15423,0.48518 1.34603,1.42746 1.82703,1.44453 0.10914,0.004 0.19844,-0.65583 0.19844,-1.466 z m 1.73869,0.67929 c 0,-0.37483 -0.17639,-0.52917 -0.60476,-0.52917 -0.33262,0 -0.60476,0.11906 -0.60476,0.26458 0,0.14552 0.14883,0.26641 0.33073,0.26864 0.22048,0.003 0.19843,0.0895 -0.0661,0.26053 -0.3137,0.20273 -0.25628,0.25733 0.27403,0.26053 0.49587,0.003 0.67091,-0.13401 0.67091,-0.52511 z m 8.1646,-0.0301 c -0.24557,-0.39734 -1.17129,-0.27584 -1.01436,0.13313 0.0812,0.21162 0.35713,0.31114 0.65018,0.2345 0.28001,-0.0732 0.44389,-0.23866 0.36418,-0.36763 z m -5.53766,-0.23451 c 0.0967,-0.15653 -0.24807,-0.28081 -0.84428,-0.30432 l -1.00781,-0.0397 1.19063,-0.17438 c 1.13901,-0.16682 1.09958,-0.35342 -0.13229,-0.626 -0.3017,-0.0668 -0.13109,-0.13203 0.39687,-0.15183 1.19864,-0.045 0.5382,-0.5458 -0.7276,-0.55176 -0.84373,-0.004 -1.18058,0.37309 -0.52917,0.59233 0.2548,0.0858 0.24352,0.21693 -0.0491,0.57138 -0.3301,0.39979 -0.3301,0.49156 0,0.70044 0.50868,0.32187 1.49968,0.3125 1.70278,-0.0161 z m 3.57187,-0.62906 c 0,-0.57371 -0.57981,-0.91267 -1.81609,-1.06168 -0.95179,-0.11473 -1.11587,-0.07 -0.98579,0.26903 0.0858,0.22366 0.15605,0.50725 0.15605,0.6302 0,0.27497 0.65048,0.45571 1.78594,0.49624 0.56884,0.0203 0.85989,-0.0927 0.85989,-0.33379 z m -2.23927,-0.4136 c -0.0917,-0.14841 0.24914,-0.18671 0.84428,-0.0948 1.32863,0.20509 1.43516,0.34375 0.26408,0.34375 -0.52499,0 -1.02375,-0.11201 -1.10836,-0.24891 z m 4.14407,0.51708 c -1.19071,-0.28199 -1.47392,-0.64214 -0.3173,-0.40349 0.70674,0.14582 0.85569,0.11725 0.62896,-0.12066 -0.1634,-0.17145 -0.69201,-0.27329 -1.17469,-0.22631 -0.83703,0.0815 -0.85606,0.10682 -0.41162,0.54844 0.26496,0.26328 0.82877,0.45134 1.30698,0.43594 l 0.841,-0.0271 z m -8.05636,-0.45055 c -0.25466,-0.0666 -0.67138,-0.0666 -0.92604,0 -0.25466,0.0666 -0.0463,0.121 0.46302,0.121 0.50932,0 0.71768,-0.0545 0.46302,-0.121 z m 8.13594,-0.87595 c -0.0899,-0.14552 -0.60298,-0.2505 -1.1401,-0.23328 l -0.97657,0.0313 0.79375,0.20198 c 1.16597,0.29669 1.50628,0.29669 1.32292,0 z m -2.77813,-0.26458 c 0,-0.14553 -0.38695,-0.26641 -0.85989,-0.26864 -0.47295,-0.002 -1.03849,-0.13131 -1.25678,-0.28686 -0.30227,-0.2154 -0.1919,-0.24754 0.46303,-0.13485 0.47294,0.0814 0.85989,0.0451 0.85989,-0.0806 0,-0.25052 -1.82851,-0.66377 -2.03285,-0.45943 -0.3408,0.3408 0.52663,1.20687 1.3056,1.30356 0.47275,0.0587 1.00837,0.12574 1.19027,0.14903 0.1819,0.0233 0.33073,-0.0767 0.33073,-0.22224 z m -3.43958,-0.26459 c 0,-0.14552 -0.50602,-0.25049 -1.12448,-0.23328 -1.05532,0.0294 -1.07566,0.0437 -0.33073,0.23328 1.16165,0.29559 1.45521,0.29559 1.45521,0 z m 5.42396,-0.26458 c 0.095,-0.15374 -0.14784,-0.25679 -0.5797,-0.24599 -0.65374,0.0164 -0.67951,0.046 -0.21405,0.24599 0.29104,0.12506 0.5519,0.23576 0.57969,0.24599 0.0278,0.0102 0.12412,-0.10047 0.21406,-0.24599 z m -5.95313,-0.52383 c -0.47613,-0.3141 -1.32292,-0.35354 -1.32292,-0.0616 0,0.11457 0.38696,0.23421 0.8599,0.26587 0.64621,0.0433 0.76127,-0.007 0.46302,-0.20425 z"
       id="path20" />
  </g>
</svg>
