<?xml version="1.0" encoding="UTF-8" standalone="no"?>
<!-- Created with Inkscape (http://www.inkscape.org/) -->

<svg
   width="21.209156mm"
   height="12.964574mm"
   viewBox="0 0 21.209156 12.964574"
   version="1.1"
   id="svg1"
   inkscape:version="1.4.2 (2aeb623e1d, 2025-05-12)"
   sodipodi:docname="trees1.svg"
   xmlns:inkscape="http://www.inkscape.org/namespaces/inkscape"
   xmlns:sodipodi="http://sodipodi.sourceforge.net/DTD/sodipodi-0.dtd"
   xmlns="http://www.w3.org/2000/svg"
   xmlns:svg="http://www.w3.org/2000/svg">
  <sodipodi:namedview
     id="namedview1"
     pagecolor="#ffffff"
     bordercolor="#000000"
     borderopacity="0.25"
     inkscape:showpageshadow="2"
     inkscape:pageopacity="0.0"
     inkscape:pagecheckerboard="0"
     inkscape:deskcolor="#d1d1d1"
     inkscape:document-units="mm"
     inkscape:zoom="0.7349537"
     inkscape:cx="272.12598"
     inkscape:cy="478.26142"
     inkscape:window-width="1854"
     inkscape:window-height="1011"
     inkscape:window-x="0"
     inkscape:window-y="0"
     inkscape:window-maximized="1"
     inkscape:current-layer="layer1" />
  <defs
     id="defs1" />
  <g
     inkscape:label="Layer 1"
     inkscape:groupmode="layer"
     id="layer1"
     transform="translate(-33.072917,-21.960417)">
    <path
       style="fill:#000000"
       d="m 39.068532,34.678238 c -0.291041,-0.117272 -1.392423,-0.199022 -2.447514,-0.181667 -1.055091,0.01735 -1.918294,-0.04386 -1.918229,-0.136024 1.59e-4,-0.224982 1.020742,-0.48581 1.918347,-0.490266 0.516755,-0.0026 0.726431,-0.13779 0.723553,-0.466634 -0.0072,-0.828082 -0.822136,-1.418535 -2.443344,-1.770395 -0.400182,-0.08685 -0.727604,-0.258653 -0.727604,-0.381777 0,-0.123124 -0.263115,-0.558357 -0.584699,-0.967186 -0.593472,-0.754477 -0.697359,-2.303172 -0.195451,-2.913681 0.12586,-0.153093 0.160867,-0.538267 0.07779,-0.855942 -0.08307,-0.317675 -0.06235,-0.787729 0.04606,-1.044565 0.108406,-0.256836 0.233721,-0.743812 0.278478,-1.082168 0.09014,-0.681418 1.793915,-2.427516 2.368681,-2.427516 0.201127,0 0.579602,0.308999 0.841057,0.686664 1.24047,1.791827 2.195165,2.243335 2.195165,1.038169 0,-0.662114 0.03341,-0.679945 2.01765,-1.076767 0.532088,-0.10641 1.9511,0.973124 1.9511,1.484328 0,0.114483 0.356326,-0.148174 0.791835,-0.583684 0.606825,-0.606825 0.931375,-0.748285 1.389062,-0.605444 0.328475,0.102514 0.666884,0.294418 0.752019,0.426452 0.09248,0.14342 0.594685,0.141224 1.247509,-0.0055 1.30751,-0.293778 1.652281,-0.0718 2.144774,1.380877 0.282025,0.831873 0.285493,1.318091 0.01838,2.576784 -0.181081,0.853291 -0.491839,1.686385 -0.690575,1.851321 -0.487132,0.404284 -0.454652,0.995394 0.112839,2.053541 0.453283,0.845195 0.551769,0.888788 2.235112,0.989344 2.233311,0.133408 3.111545,0.459239 3.111545,1.154406 0,0.621645 -0.09459,0.645884 -0.87729,0.224808 -1.032063,-0.555228 -6.261165,-1.504227 -9.44146,-1.713474 -3.489476,-0.22959 -2.233868,0.305866 1.5875,0.676992 3.446189,0.334689 6.293465,0.925953 6.746875,1.401052 0.183187,0.191951 0.0204,0.223414 -0.529167,0.102273 -2.892268,-0.637547 -8.643541,-1.515989 -11.031562,-1.684947 -2.580075,-0.182547 -2.840254,-0.158988 -2.951723,0.267271 -0.146626,0.560698 0.19184,0.803358 1.271319,0.91146 2.718443,0.272232 6.504222,1.071564 5.303633,1.119814 -0.291042,0.0117 -0.945886,-0.08707 -1.455208,-0.219477 -0.509323,-0.132409 -1.75948,-0.301684 -2.778125,-0.376168 -1.652475,-0.120829 -1.745151,-0.103952 -0.859896,0.156591 0.545703,0.160608 0.992187,0.390078 0.992187,0.509934 0,0.267146 -0.485221,0.255391 -1.190625,-0.02884 z m 2.116667,-2.928237 c -0.08994,-0.145521 -0.483917,-0.26276 -0.875511,-0.260532 -0.556886,0.0032 -0.625532,0.05992 -0.315114,0.260532 0.522779,0.337846 1.399425,0.337846 1.190625,0 z m 7.116446,-0.108037 c -0.165844,-0.432181 -2.806209,-0.718561 -2.66303,-0.288838 0.08984,0.269641 1.160582,0.57371 2.219009,0.630154 0.403153,0.0215 0.542224,-0.0854 0.444021,-0.341316 z M 36.670252,30.561648 c -0.37364,-1.991674 -0.246469,-2.126579 1.60453,-1.70211 0.759354,0.174134 0.748844,0.183378 -0.242534,0.213326 -0.569957,0.01722 -0.972029,0.09556 -0.893494,0.174095 0.119784,0.119784 0.989295,0.222601 3.069872,0.363003 0.19049,0.01285 0.28969,0.115041 0.220446,0.22708 -0.06924,0.112039 0.476963,0.141805 1.213792,0.06615 1.278103,-0.131238 2.175658,-0.767433 1.722306,-1.220785 -0.100409,-0.10041 -1.614245,-0.241526 -3.364079,-0.313593 -3.196577,-0.131651 -4.38602,-0.550163 -1.792455,-0.630685 l 1.389063,-0.04313 -1.455208,-0.178331 c -1.705372,-0.208988 -1.501472,-0.326988 0.46302,-0.267958 0.823052,0.02473 1.389063,-0.07184 1.389063,-0.236986 0,-0.297178 -0.620422,-0.484202 -2.116667,-0.638062 -0.853646,-0.08778 -0.837602,-0.09854 0.205232,-0.137568 l 1.131274,-0.04234 -0.410464,-0.79375 c -0.367559,-0.710782 -0.668125,-0.911972 -1.240647,-0.830457 -0.100273,0.01428 -0.264462,-0.232868 -0.364865,-0.549211 -0.206055,-0.649222 -1.197982,-1.5463 -1.502019,-1.358394 -0.109869,0.0679 -0.199761,0.422111 -0.199761,0.787131 0,0.558498 -0.09006,0.63509 -0.568289,0.483306 -0.51745,-0.164233 -0.553698,-0.107414 -0.405188,0.635134 0.113725,0.568623 0.04762,0.880129 -0.218366,1.028981 -0.327123,0.183067 -0.329523,0.3136 -0.01684,0.916294 0.325227,0.626876 0.310841,0.751489 -0.133148,1.153293 -0.273775,0.247763 -0.414255,0.583394 -0.312178,0.745846 0.102077,0.162453 0.153674,0.489814 0.11466,0.72747 -0.09954,0.606345 1.613563,2.346024 2.310185,2.346024 0.514786,0 0.557627,-0.09826 0.40276,-0.92377 z m 3.059739,-1.437632 c -0.611592,-0.176665 -0.621565,-0.203676 -0.132292,-0.358286 0.291042,-0.09197 0.945885,-0.06563 1.455208,0.05853 0.509323,0.12416 0.72742,0.237932 0.484661,0.252828 -0.24276,0.0149 -0.599948,0.07454 -0.79375,0.132541 -0.193803,0.058 -0.650025,0.01948 -1.013827,-0.08561 z m 2.38125,-0.01985 c 0,-0.145521 0.119062,-0.264584 0.264583,-0.264584 0.145521,0 0.264583,0.119063 0.264583,0.264584 0,0.145521 -0.119062,0.264583 -0.264583,0.264583 -0.145521,0 -0.264583,-0.119062 -0.264583,-0.264583 z m -3.632986,2.2077 c -0.179131,-0.07248 -0.536319,-0.07689 -0.79375,-0.0098 -0.257431,0.06708 -0.110869,0.126381 0.325694,0.131774 0.436562,0.0054 0.647188,-0.0495 0.468056,-0.12197 z m 6.543402,-0.122224 c 0,-0.128366 -0.526043,-0.233393 -1.168985,-0.233393 -0.642942,0 -1.357317,-0.07227 -1.5875,-0.160599 -0.230183,-0.08833 -0.418515,-0.03708 -0.418515,0.11389 0,0.150968 0.267891,0.322115 0.595313,0.380325 1.091122,0.193983 2.579687,0.136151 2.579687,-0.100223 z m -3.901453,-0.536513 c -0.133867,-0.133867 -0.462958,-0.15914 -0.731313,-0.05616 -0.467918,0.179557 -0.46702,0.194824 0.0219,0.372441 0.610222,0.221682 1.050901,0.02521 0.70941,-0.316279 z m -1.849596,0.116872 c -0.325421,-0.0628 -0.920734,-0.06443 -1.322917,-0.0036 -0.402183,0.06082 -0.13593,0.112199 0.591675,0.114185 0.727604,0.002 1.056663,-0.04777 0.731242,-0.110573 z m 8.540053,-0.325316 c -0.215144,-0.34811 -2.259837,-0.377802 -2.259837,-0.03282 0,0.137154 0.506015,0.285982 1.124479,0.33073 1.30635,0.09452 1.367911,0.07836 1.135358,-0.297914 z m -8.053475,-0.304593 c 0.238126,-0.150776 -0.195246,-0.234073 -1.21782,-0.234073 -1.022575,0 -1.455947,0.0833 -1.217821,0.234073 0.203324,0.128741 0.751343,0.234074 1.217821,0.234074 0.466477,0 1.014496,-0.105333 1.21782,-0.234074 z m 4.666613,-0.04374 c -0.122854,-0.360247 -1.233444,-0.299884 -1.637871,0.08902 -0.153478,0.147588 0.138433,0.241707 0.749653,0.241707 0.68457,0 0.965352,-0.104549 0.888218,-0.330729 z m 3.243691,-0.463021 c 0,-0.331502 -0.280786,-0.331502 -0.79375,0 -0.320928,0.2074 -0.282955,0.257256 0.198438,0.260532 0.327422,0.0022 0.595312,-0.115011 0.595312,-0.260532 z m -2.384737,-0.967168 -1.187138,-0.329322 1.113209,0.04215 c 0.612265,0.02319 1.197655,-0.04229 1.300868,-0.145505 0.103213,-0.103213 -0.239165,-0.18766 -0.76084,-0.18766 -0.521674,0 -1.136831,-0.07227 -1.367014,-0.160599 -0.314112,-0.120536 -0.418514,0.0075 -0.418514,0.513195 0,0.586927 0.127915,0.684883 0.992187,0.759805 1.496487,0.129726 1.663484,-0.121385 0.327242,-0.492069 z m 2.913904,-0.09117 c 0,-0.145521 -0.171567,-0.264583 -0.38126,-0.264583 -0.209693,0 -0.454845,0.119062 -0.544782,0.264583 -0.08994,0.145521 0.08163,0.264583 0.38126,0.264583 0.29963,0 0.544782,-0.119062 0.544782,-0.264583 z m -4.883912,-0.776147 c -0.215832,-0.349223 -3.053588,-0.377852 -3.053588,-0.03081 0,0.138259 0.68461,0.287087 1.521354,0.330729 1.733487,0.09041 1.769159,0.08343 1.532234,-0.299922 z m 3.560995,-0.254858 c 0,-0.209496 -1.996661,-0.542367 -5.490104,-0.915275 -0.618463,-0.06602 -1.124479,-0.03156 -1.124479,0.07657 0,0.108132 1.220391,0.345154 2.711979,0.526715 1.491589,0.181562 2.890573,0.365606 3.108854,0.408987 0.739987,0.147063 0.79375,0.140493 0.79375,-0.097 z m 1.256771,0.05487 c -0.254661,-0.06655 -0.463021,-0.231332 -0.463021,-0.366183 0,-0.134851 0.20836,-0.248804 0.463021,-0.253229 0.422517,-0.0073 0.419761,-0.03318 -0.03151,-0.295363 -0.37311,-0.216774 -0.548038,-0.200737 -0.712469,0.06532 -0.271548,0.439374 0.196167,1.042502 0.776374,1.001149 0.363315,-0.0259 0.358251,-0.0496 -0.0324,-0.151692 z m -1.585995,-0.942095 c -0.05992,-0.182248 -0.752832,-0.400457 -1.543402,-0.486041 l -1.434665,-0.155311 1.389062,-0.04313 c 1.850969,-0.05747 1.791465,-0.572293 -0.06615,-0.572293 -0.989938,0 -1.453912,0.105743 -1.451156,0.330729 0.0062,0.506131 0.349399,0.879598 0.789698,0.859345 0.218281,-0.01004 0.754063,0.06309 1.190625,0.162502 1.181468,0.269051 1.244188,0.263715 1.125984,-0.09581 z m -3.792331,-0.429829 c 0.167858,-0.2716 -2.501014,-0.582081 -2.889903,-0.336194 -0.145521,0.09201 0.152136,0.241683 0.661459,0.332608 1.429597,0.255212 2.072291,0.256246 2.228444,0.0036 z m 6.096034,-0.313788 c -0.08449,-0.136714 -0.533552,-0.240202 -0.997906,-0.229974 -0.629947,0.01388 -0.720857,0.06719 -0.358102,0.210023 0.734312,0.289126 1.529599,0.300827 1.356008,0.01995 z m -5.678645,-0.480081 c 0,-0.275527 -1.298639,-0.56224 -2.546615,-0.56224 -1.288817,0 -1.101677,0.434241 0.209278,0.485609 0.606236,0.02375 1.161861,0.102804 1.234723,0.175666 0.224876,0.224876 1.102614,0.146039 1.102614,-0.09904 z m 5.548587,-0.572574 c -0.505755,-0.31985 -1.505897,-0.323356 -1.702054,-0.006 -0.0844,0.136555 0.295531,0.285383 0.844281,0.330729 1.171857,0.09684 1.392391,0.01334 0.857773,-0.324761 z M 46.07999,24.606242 c 0,-0.145521 -0.528754,-0.264583 -1.17501,-0.264583 -0.646255,0 -1.248594,0.119062 -1.338531,0.264583 -0.100784,0.163071 0.35003,0.264583 1.17501,0.264583 0.736192,0 1.338531,-0.119062 1.338531,-0.264583 z M 42.283,23.926166 c -0.580235,-0.510288 -0.837028,-0.59468 -1.112889,-0.365736 -0.197234,0.16369 -0.496197,0.212583 -0.664362,0.108651 -0.168165,-0.103932 -0.407936,-0.02488 -0.532824,0.17566 -0.273938,0.439888 0.444548,0.70019 2.006024,0.726766 l 1.058333,0.01801 z m 3.069386,-0.02432 c -0.181901,-0.0734 -0.479557,-0.0734 -0.661458,0 -0.181901,0.0734 -0.03307,0.133452 0.330729,0.133452 0.363802,0 0.51263,-0.06005 0.330729,-0.133452 z m -0.330729,10.742947 c 0,-0.154109 0.119063,-0.206614 0.264583,-0.116677 0.145521,0.08994 0.264584,0.216026 0.264584,0.280198 0,0.06417 -0.119063,0.116677 -0.264584,0.116677 -0.14552,0 -0.264583,-0.126089 -0.264583,-0.280198 z m 0.79375,-0.660779 c -0.945885,-0.191804 -3.112954,-0.496056 -4.815709,-0.676117 -1.702755,-0.180061 -3.051059,-0.399967 -2.996231,-0.488679 0.227344,-0.367852 10.230293,1.004372 10.700308,1.467888 0.195827,0.193119 -1.124592,0.05456 -2.888368,-0.303092 z"
       id="path1" />
  </g>
</svg>
