<?xml version="1.0" encoding="UTF-8" standalone="no"?>
<!-- Created with Inkscape (http://www.inkscape.org/) -->

<svg
   width="53.993263mm"
   height="19.491243mm"
   viewBox="0 0 53.993263 19.491243"
   version="1.1"
   id="svg1"
   inkscape:version="1.4.2 (2aeb623e1d, 2025-05-12)"
   sodipodi:docname="mount1.svg"
   xmlns:inkscape="http://www.inkscape.org/namespaces/inkscape"
   xmlns:sodipodi="http://sodipodi.sourceforge.net/DTD/sodipodi-0.dtd"
   xmlns="http://www.w3.org/2000/svg"
   xmlns:svg="http://www.w3.org/2000/svg">
  <sodipodi:namedview
     id="namedview1"
     pagecolor="#ffffff"
     bordercolor="#000000"
     borderopacity="0.25"
     inkscape:showpageshadow="2"
     inkscape:pageopacity="0.0"
     inkscape:pagecheckerboard="0"
     inkscape:deskcolor="#d1d1d1"
     inkscape:document-units="mm"
     inkscape:zoom="0.7349537"
     inkscape:cx="295.25669"
     inkscape:cy="468.73701"
     inkscape:window-width="1854"
     inkscape:window-height="1011"
     inkscape:window-x="0"
     inkscape:window-y="0"
     inkscape:window-maximized="1"
     inkscape:current-layer="layer1" />
  <defs
     id="defs1" />
  <g
     inkscape:label="Layer 1"
     inkscape:groupmode="layer"
     id="layer1"
     transform="translate(-26.9875,-24.341663)">
    <path
       style="fill:#000000"
       d="m 28.595996,43.090267 c 1.967367,-0.90001 3.553538,-1.17216 6.366277,-1.0923 1.331737,0.0378 2.22188,-0.0488 2.331926,-0.22683 0.356901,-0.57748 3.256314,-1.81622 6.22976,-2.66159 0.945885,-0.26893 2.55285,-0.73697 3.571032,-1.0401 1.018183,-0.30313 2.233883,-0.55114 2.701543,-0.55114 0.46767,0 0.96884,-0.14883 1.1137,-0.33073 1.69122,-2.12359 1.64866,-2.09831 3.7358,-2.21844 2.61547,-0.15053 2.65731,-0.17146 2.51804,-1.25931 -0.0743,-0.58008 0.075,-1.31277 0.40772,-2.00145 0.28868,-0.59751 0.45584,-1.19809 0.37146,-1.33462 -0.22081,-0.35728 0.55688,-1.74768 1.24848,-2.2321 0.32425,-0.22711 0.92632,-0.41294 1.33793,-0.41294 0.60172,0 0.8224,-0.17714 1.12609,-0.90399 0.62769,-1.50228 1.56296,-1.96697 4.25127,-2.11225 1.29551,-0.07 2.6155,-0.20574 2.93331,-0.30161 0.95515,-0.28812 2.30004,0.3426 3.27245,1.53472 1.48688,1.82281 1.5368,1.90142 1.6684,2.62715 0.0693,0.3824 0.33065,1.0075 0.58068,1.3891 0.25003,0.3816 0.37324,0.77519 0.27379,0.87464 -0.27244,0.27243 -0.93009,-0.23487 -1.42994,-1.10304 -0.24492,-0.42538 -0.65975,-0.99701 -0.92185,-1.27031 -0.27117,-0.28274 -0.4121,-0.69998 -0.32699,-0.96813 0.0942,-0.29691 -0.0721,-0.65896 -0.44949,-0.97865 l -0.59905,-0.50742 0.50549,0.59694 c 0.27803,0.32831 0.42983,0.6726 0.33735,0.76508 -0.1701,0.1701 -1.21467,-0.9296 -1.23091,-1.29587 -0.005,-0.10914 -0.12884,-0.19844 -0.27555,-0.19844 -0.1467,0 0.54485,1.10133 1.53679,2.4474 0.99195,1.34607 1.88648,2.66706 1.98787,2.93553 0.10139,0.26848 0.42663,0.5515 0.72277,0.62895 0.29613,0.0774 0.70857,0.46983 0.91653,0.87198 0.25261,0.48848 1.01846,1.04336 2.30725,1.67165 1.92108,0.93654 3.87578,2.55699 3.08441,2.55699 -0.2164,0 -0.50657,-0.10015 -0.64481,-0.22257 -0.51105,-0.45251 -3.75376,-1.35023 -5.76254,-1.59531 -1.13938,-0.13901 -2.09188,-0.29287 -2.11667,-0.34191 -0.87032,-1.72192 -5.14831,-7.553 -6.35866,-8.66712 -1.2868,-1.18449 -0.97069,-0.3936 0.58114,1.45397 2.49662,2.97241 5.32381,6.79668 5.18758,7.0171 -0.0695,0.11248 -1.13259,0.20824 -2.3624,0.2128 l -2.23601,0.008 -1.44259,-1.90919 c -1.80114,-2.3837 -4.10178,-4.91472 -4.11774,-4.53005 -0.007,0.15926 0.59145,0.97917 1.32901,1.82202 0.73756,0.84285 1.69081,2.15226 2.11833,2.90979 0.95611,1.69412 1.22725,1.78615 6.99169,2.37316 4.37341,0.44535 6.42136,0.82396 6.87917,1.27176 0.29785,0.29134 -0.29851,0.2129 -3.175,-0.41762 -1.01865,-0.22329 -2.91056,-0.47722 -4.20425,-0.5643 -1.29369,-0.0871 -2.45253,-0.22036 -2.5752,-0.29617 -0.12267,-0.0758 -2.10029,-0.20499 -4.39471,-0.28706 -2.29442,-0.0821 -4.35027,-0.15666 -4.56855,-0.16575 -0.77083,-0.0321 -2.7876,0.30325 -3.52793,0.58661 -0.4124,0.15785 -0.85613,0.22128 -0.98608,0.14097 -0.54071,-0.33418 -2.36359,0.45166 -3.08894,1.33163 -0.62635,0.75988 -1.05026,0.97452 -2.54241,1.2873 -0.9849,0.20645 -1.835364,0.42001 -1.889929,0.47457 -0.05456,0.0546 1.827379,0.12312 4.182099,0.15234 4.65961,0.0578 6.8263,0.29803 6.98508,0.77436 0.074,0.22205 -0.42732,0.26296 -1.83008,0.14933 -2.90713,-0.2355 -9.938699,-0.21991 -11.589309,0.0257 -3.049464,0.45376 -7.143852,1.91933 -7.143575,2.55701 1.46e-4,0.33692 -0.458313,0.39404 -2.851826,0.35534 -1.5686,-0.0254 -3.622507,0.10952 -4.564237,0.29974 -0.94173,0.19023 -2.248018,0.40985 -2.902862,0.48804 l -1.190625,0.14218 z m 46.475088,-9.0966 c -0.28829,-0.31702 -0.9833,-1.29078 -1.54447,-2.1639 -1.3851,-2.1551 -3.89345,-5.47822 -4.49726,-5.95809 -0.48109,-0.38234 -0.4811,-0.37252 -4.3e-4,0.40184 0.27099,0.43656 0.75743,1.0914 1.08099,1.4552 0.32355,0.36381 1.6405,2.20079 2.92655,4.08218 1.28604,1.8814 2.38788,3.27187 2.44852,3.08994 0.0606,-0.18192 -0.12561,-0.59015 -0.4139,-0.90717 z m 1.65808,0.87881 c -0.0899,-0.14553 -0.28258,-0.26459 -0.4281,-0.26459 -0.14552,0 -0.191,0.11906 -0.10106,0.26459 0.0899,0.14552 0.28258,0.26458 0.4281,0.26458 0.14552,0 0.191,-0.11906 0.10106,-0.26458 z m -12.14962,-1.54291 c -0.9988,-1.75755 -3.93777,-4.91208 -4.42669,-4.75137 -0.58098,0.19098 -1.53125,1.79082 -1.97943,3.33249 -0.34271,1.17888 -0.35806,1.54866 -0.0854,2.05804 0.34035,0.63595 1.13599,0.73423 6.35927,0.78557 l 0.94725,0.009 z m 7.2821,-2.32757 c -2.96061,-4.11195 -4.14676,-5.58504 -4.34005,-5.38994 -0.0721,0.0728 1.4197,2.19084 3.31508,4.70685 1.89539,2.516 3.49595,4.52476 3.55682,4.46389 0.0609,-0.0609 -1.07848,-1.76222 -2.53185,-3.7808 z m -0.55644,3.37371 c 0,-0.12771 -0.16336,-0.36777 -0.36303,-0.53348 -0.19966,-0.16571 -1.41207,-1.69833 -2.69423,-3.40583 -2.18344,-2.90778 -4.20558,-5.05803 -4.48958,-4.77403 -0.0684,0.0684 0.41581,0.71018 1.07607,1.42611 0.66027,0.71594 2.05338,2.4328 3.09582,3.81524 1.04243,1.38245 2.12994,2.78144 2.41668,3.10886 0.53639,0.61249 0.95827,0.77236 0.95827,0.36313 z m 1.18261,-1.13705 c -0.54103,-0.75308 -1.08626,-1.49722 -1.21161,-1.65365 -0.12535,-0.15643 -1.1016,-1.47504 -2.16946,-2.93024 -1.84943,-2.52029 -2.82862,-3.61636 -2.82862,-3.16623 0,0.11322 0.32383,0.63382 0.71962,1.15688 0.3958,0.52306 0.80838,1.07008 0.91684,1.2156 0.10847,0.14552 0.54158,0.6813 0.96248,1.19062 0.42089,0.50932 1.33021,1.75948 2.02072,2.77813 1.4617,2.15633 1.98215,2.77812 2.32533,2.77812 0.13662,0 -0.19427,-0.61615 -0.7353,-1.36923 z m -4.88677,0.87705 c 0,-0.2671 -4.41627,-5.58137 -5.01489,-6.03462 -0.22453,-0.17001 -0.3089,-0.40813 -0.18749,-0.52917 0.26263,-0.26183 2.26332,1.93641 4.19442,4.60858 0.76243,1.05502 1.54498,1.91822 1.73898,1.91822 0.22481,0 0.065,-0.40781 -0.44061,-1.12447 -1.09399,-1.55062 -4.85188,-5.82536 -5.2289,-5.94807 -0.16955,-0.0552 -0.38361,0.13702 -0.47568,0.42711 -0.12662,0.39895 0.33524,1.13934 1.89578,3.03904 1.13475,1.38138 2.2771,2.81746 2.53855,3.19129 0.46576,0.66594 0.97984,0.90313 0.97984,0.45209 z m 2.38125,0.11564 c 0,-0.0616 -0.956,-1.3415 -2.12443,-2.84427 -2.30432,-2.96368 -4.40143,-5.24586 -4.82046,-5.24586 -0.30993,0 0.0166,0.4489 1.64462,2.26063 1.29719,1.44359 4.31891,5.30204 4.46242,5.69808 0.0858,0.23689 0.83785,0.35485 0.83785,0.13142 z m -6.74688,9.23941 c -1.89177,-0.18121 -3.54376,-0.31472 -3.67109,-0.29669 -0.12733,0.018 -0.28608,-0.11605 -0.35278,-0.29795 -0.25309,-0.69024 6.78671,-0.25684 9.44783,0.58164 l 1.19063,0.37515 -1.5875,-0.0163 c -0.87313,-0.009 -3.13532,-0.1646 -5.02709,-0.3458 z m 5.02709,-0.82569 c -0.87313,-0.2064 -3.10555,-0.44944 -4.96094,-0.54008 -1.85539,-0.0906 -3.37344,-0.27653 -3.37344,-0.41308 0,-0.34852 4.78489,-0.0519 8.41816,0.52179 1.6468,0.26005 2.90688,0.56012 2.80017,0.66684 -0.26672,0.26672 -1.01957,0.20525 -2.88395,-0.23547 z m 1.67425,-0.9105 c -0.44706,-0.24617 -7.11152,-1.09813 -8.08575,-1.03365 -1.12575,0.0745 -1.39371,0.0172 -1.39371,-0.29802 0,-0.28326 3.15858,-0.17471 4.56867,0.15702 0.32488,0.0764 1.88123,0.3031 3.45854,0.5037 1.57731,0.2006 2.98026,0.47716 3.11767,0.61457 0.29887,0.29887 -1.1368,0.34747 -1.66542,0.0564 z m 2.70196,-1.06594 c -1.91104,-0.37455 -8.32145,-1.03365 -10.05333,-1.03365 -0.88956,0 -1.59893,-0.11739 -1.59893,-0.26459 0,-0.32558 0.23524,-0.32644 3.70417,-0.0136 1.52797,0.1378 3.73063,0.32489 4.89479,0.41576 1.16417,0.0909 2.29526,0.19627 2.51354,0.23422 2.00684,0.34894 2.64584,0.52291 2.64584,0.72034 0,0.27128 -0.49348,0.25757 -2.10608,-0.0585 z m 1.97379,-0.7778 c -1.42446,-0.28982 -2.28647,-0.43289 -4.63021,-0.76847 -3.24423,-0.46452 -3.74237,-0.50919 -5.88698,-0.52786 -1.24736,-0.0109 -2.05052,-0.12692 -2.05052,-0.2963 0,-0.18448 0.69195,-0.22523 2.05052,-0.12075 1.12778,0.0867 3.41974,0.26331 5.09323,0.39241 1.67349,0.1291 3.2213,0.23161 3.43958,0.22781 0.551,-0.01 3.1616,0.53321 3.46436,0.72033 0.26412,0.16323 0.0695,0.66605 -0.23883,0.61715 -0.10055,-0.0159 -0.65907,-0.12589 -1.24115,-0.24432 z m -16.53646,-1.0496 c -0.59415,-0.19028 -0.56208,-0.21452 0.31511,-0.23821 0.53712,-0.0145 1.05016,0.0927 1.1401,0.23821 0.18915,0.30605 -0.49957,0.30605 -1.45521,0 z m 18.75049,0.14146 c -0.14327,-0.14327 -4.93349,-1.00871 -5.52133,-0.99753 -0.21828,0.004 -1.18526,-0.0966 -2.14885,-0.22388 -0.96359,-0.12729 -2.65704,-0.25479 -3.76323,-0.28335 -2.29148,-0.0592 -3.43851,-0.47845 -1.32607,-0.48474 0.74844,-0.002 3.07016,0.1777 5.15937,0.39984 2.08922,0.22214 4.28751,0.45108 4.8851,0.50875 1.54727,0.14932 3.2791,0.65087 3.2791,0.94964 0,0.26436 -0.34964,0.34572 -0.56409,0.13127 z m 0.62358,-0.94592 c -0.77454,-0.31106 -4.42702,-0.88285 -9.49592,-1.48658 -2.20686,-0.26284 -3.95247,-0.57498 -3.87914,-0.69363 0.0733,-0.11865 0.62878,-0.14806 1.23434,-0.0654 0.60556,0.0827 1.6368,0.20677 2.29165,0.27571 4.91793,0.51778 10.85026,1.36556 11.06615,1.58145 0.14026,0.14026 -0.21182,0.66716 -0.43229,0.64694 -0.10055,-0.009 -0.45371,-0.12556 -0.78479,-0.25852 z m -19.63866,-0.27351 c 0,-0.57044 1.8333,-0.58078 2.83271,-0.016 0.35734,0.20194 0.066,0.2629 -1.17906,0.24674 -0.90951,-0.0118 -1.65365,-0.11564 -1.65365,-0.23075 z m 0.41238,-1.06378 c 0.0814,-0.13173 0.87521,-0.2395 1.764,-0.2395 0.88879,0 1.56638,0.0434 1.50574,0.0965 -0.25856,0.22628 -3.40629,0.36397 -3.26974,0.14302 z m 2.69648,-0.69857 c -0.69123,-0.0545 -1.25677,-0.19373 -1.25677,-0.30939 0,-0.26163 2.36979,-0.0497 2.91041,0.26023 0.35278,0.20227 0.35278,0.22315 0,0.18791 -0.21828,-0.0218 -0.96242,-0.0842 -1.65364,-0.13875 z m -2.64584,-0.24533 c 0.18191,-0.0734 0.47956,-0.0734 0.66146,0 0.1819,0.0734 0.0331,0.13345 -0.33073,0.13345 -0.3638,0 -0.51263,-0.06 -0.33073,-0.13345 z"
       id="path10" />
  </g>
</svg>
