<?xml version="1.0" encoding="UTF-8" standalone="no"?>
<!-- Created with Inkscape (http://www.inkscape.org/) -->

<svg
   width="66.68235mm"
   height="64.453346mm"
   viewBox="0 0 66.68235 64.453346"
   version="1.1"
   id="svg1"
   inkscape:version="1.4.2 (2aeb623e1d, 2025-05-12)"
   sodipodi:docname="mountains1.svg"
   xmlns:inkscape="http://www.inkscape.org/namespaces/inkscape"
   xmlns:sodipodi="http://sodipodi.sourceforge.net/DTD/sodipodi-0.dtd"
   xmlns="http://www.w3.org/2000/svg"
   xmlns:svg="http://www.w3.org/2000/svg">
  <sodipodi:namedview
     id="namedview1"
     pagecolor="#ffffff"
     bordercolor="#000000"
     borderopacity="0.25"
     inkscape:showpageshadow="2"
     inkscape:pageopacity="0.0"
     inkscape:pagecheckerboard="0"
     inkscape:deskcolor="#d1d1d1"
     inkscape:document-units="mm"
     inkscape:zoom="0.7349537"
     inkscape:cx="330.63307"
     inkscape:cy="483.70394"
     inkscape:window-width="1854"
     inkscape:window-height="1011"
     inkscape:window-x="0"
     inkscape:window-y="0"
     inkscape:window-maximized="1"
     inkscape:current-layer="layer1" />
  <defs
     id="defs1" />
  <g
     inkscape:label="Layer 1"
     inkscape:groupmode="layer"
     id="layer1"
     transform="translate(-17.4625,-20.372916)">
    <path
       style="fill:#000000"
       d="m 54.768744,84.445984 c -0.3638,-0.19897 -1.3163,-0.54464 -2.11666,-0.76815 -6.08275,-1.69864 -6.02766,-1.67727 -6.98875,-2.71122 -0.74453,-0.800974 -0.93589,-1.222434 -0.9416,-2.073804 -0.004,-0.58769 -0.24528,-1.5356 -0.53632,-2.10646 -0.29104,-0.57087 -0.52917,-1.1368 -0.52917,-1.25764 0,-0.12083 -0.23812,-0.4753 -0.52916,-0.78769 -0.55743,-0.59833 -0.67969,-0.99738 -0.30559,-0.99738 0.34117,0 0.97456,0.83081 1.34162,1.7598 0.18119,0.45857 0.62244,1.10903 0.98056,1.44546 l 0.65112,0.6117 -0.34754,-0.784 c -0.19115,-0.4312 -0.56204,-1.18202 -0.8242,-1.66849 -0.26216,-0.48646 -0.42529,-0.93586 -0.3625,-0.99865 0.0628,-0.0628 0.55307,0.69242 1.08951,1.67824 0.84715,1.55682 0.95634,1.67069 0.83078,0.86635 -0.18071,-1.15771 0.22377,-0.41083 0.6448,1.19063 0.40619,1.54502 1.23498,2.32678 2.98238,2.81314 0.83663,0.232864 1.52114,0.367284 1.52114,0.298704 0,-0.0686 -0.33305,-0.618204 -0.7401,-1.221394 -0.40706,-0.60319 -0.82004,-1.30506 -0.91774,-1.55972 -0.2942,-0.76685 0.24645,-0.52015 0.57985,0.26458 0.40708,0.95818 1.31108,2.03791 1.52615,1.82284 0.0937,-0.0937 0.4042,0.0383 0.69001,0.29325 0.50389,0.449534 0.51359,0.443534 0.31982,-0.19786 -0.10991,-0.36381 -0.28858,-0.78052 -0.39703,-0.92604 -0.30894,-0.41452 -1.1291,-3.06276 -0.99124,-3.20063 0.068,-0.068 0.27146,0.26714 0.45214,0.74475 0.52621,1.39102 1.16933,2.58817 1.39039,2.58817 0.27525,0 0.26366,-0.0632 -0.17451,-0.95154 -0.53271,-1.08007 -0.82203,-2.34283 -0.48971,-2.13745 0.14679,0.0907 0.41861,0.70686 0.60405,1.3692 0.18545,0.66234 0.43443,1.26436 0.55329,1.33782 0.35619,0.22014 1.57257,-0.18286 1.3991,-0.46353 -0.3167,-0.51244 -0.84191,-2.85867 -0.63991,-2.85867 0.11344,0 0.35712,0.53885 0.54151,1.19744 0.32564,1.16307 0.676,1.65243 0.9715,1.35694 0.0794,-0.0795 -0.0403,-0.68668 -0.26613,-1.34941 -0.22581,-0.66273 -0.30866,-1.20497 -0.1841,-1.20497 0.12456,0 0.39267,0.49858 0.59579,1.10795 0.20313,0.60936 0.5206,1.15837 0.7055,1.22 0.25281,0.0843 0.24021,-0.0756 -0.0508,-0.64492 -0.41323,-0.80829 -0.8397,-2.47678 -0.63308,-2.47678 0.0684,0 0.39748,0.77391 0.73141,1.7198 0.33392,0.94588 0.71807,1.71978 0.85365,1.71978 0.13558,0 0.16846,-0.26788 0.0731,-0.5953 -0.0954,-0.32743 -0.2284,-1.01204 -0.29556,-1.52136 -0.10085,-0.76481 -0.083,-0.81058 0.10247,-0.26287 0.43781,1.29278 1.11721,2.37953 1.4876,2.37953 0.28895,0 0.22197,-0.33521 -0.29078,-1.45521 -0.36642,-0.80037 -0.6273,-1.65731 -0.57973,-1.90431 0.0476,-0.24701 0.40977,0.36569 0.80488,1.36156 0.39512,0.99587 0.66306,1.9002 0.59543,2.00963 -0.0676,0.10943 0.65307,0.33411 1.60157,0.49928 1.83426,0.31942 3.18758,0.74843 2.9886,0.94741 -0.0663,0.0663 -1.30325,-0.1737 -2.74867,-0.53344 -2.52414,-0.62822 -4.08329,-0.83677 -3.74783,-0.5013 0.0875,0.0875 0.61333,0.21651 1.16858,0.28676 1.23302,0.15599 5.61537,1.585854 6.10442,1.991724 0.2846,0.2362 0.28792,0.33482 0.0169,0.50231 -0.18844,0.11646 -0.51497,0.0588 -0.74013,-0.13073 -1.02788,-0.86515 -4.09805,-1.913214 -6.35137,-2.168144 -1.22882,-0.13903 -1.62156,-0.10881 -1.48376,0.11415 0.10307,0.16678 0.60566,0.30323 1.11686,0.30323 1.20056,0 5.59845,1.465884 6.41898,2.139544 1.05224,0.86389 0.44465,0.85492 -1.28658,-0.019 -1.892,-0.95508 -6.25814,-2.129744 -7.80681,-2.100334 -0.87907,0.0167 -0.69584,0.10038 1.05226,0.4806 3.02345,0.657614 5.44181,1.532494 6.28386,2.273284 1.08342,0.95315 0.89536,0.98636 -0.80581,0.14233 -2.57968,-1.27992 -4.33919,-1.85057 -6.1384,-1.99085 l -1.7209,-0.134174 2.49907,0.657234 c 2.48439,0.65337 5.30614,1.87585 5.30614,2.2988 0,0.31083 -0.36933,0.27532 -0.71322,-0.0686 -0.60098,-0.60098 -6.10036,-2.35305 -7.35657,-2.34376 -0.44628,0.003 -0.46423,0.0419 -0.11458,0.24649 0.22803,0.13342 0.73926,0.30145 1.13607,0.37341 0.96908,0.17573 4.32812,1.73766 4.69963,2.18529 0.3876,0.46704 -0.0347,0.45897 -0.70934,-0.0135 -1.35634,-0.95002 -6.58225,-2.63405 -9.03099,-2.91021 l -1.27246,-0.1435 1.05834,0.27372 c 2.42465,0.62707 5.4315,1.62639 5.57053,1.85135 0.2035,0.32927 0.0276,0.3058 -1.13341,-0.15118 -1.34309,-0.52866 -6.4215,-1.70686 -6.4215,-1.4898 0,0.0951 1.0418,0.4546 2.31511,0.79892 2.73132,0.73859 6.34232,2.07295 6.55915,2.42379 0.21647,0.35026 -0.42117,0.26379 -1.20134,-0.16291 z M 45.983604,79.5765 c -0.17762,-0.28442 -0.37419,-0.4659 -0.43682,-0.40327 -0.1134,0.1134 0.46322,0.9204 0.65764,0.9204 0.0562,0 -0.0432,-0.23271 -0.22082,-0.51713 z m 0.5885,-0.66794 c -0.63968,-0.65179 -1.22228,-1.12586 -1.29466,-1.05348 -0.17354,0.17354 1.84831,2.23855 2.19175,2.23855 0.14629,0 -0.2574,-0.53328 -0.89709,-1.18507 z m 10.4456,5.418414 c -0.0899,-0.14552 -0.0374,-0.26459 0.11668,-0.26459 0.15411,0 0.2802,0.11907 0.2802,0.26459 0,0.14552 -0.0525,0.26458 -0.11668,0.26458 -0.0642,0 -0.19026,-0.11906 -0.2802,-0.26458 z m -1.71213,-0.78342 c -0.21407,-0.13538 -0.32444,-0.31092 -0.24527,-0.39009 0.0792,-0.0792 0.37338,0.0296 0.6538,0.24178 0.55784,0.42204 0.21887,0.54509 -0.40853,0.14831 z m -18.13162,-1.59783 c -0.21184,-0.34277 1.45399,-0.34277 1.98438,0 0.29113,0.18814 0.10142,0.25756 -0.71199,0.26053 -0.60988,0.002 -1.18245,-0.11501 -1.27239,-0.26053 z m -14.809478,-0.25296 c -0.08599,-0.13913 0.13318,-0.44266 0.487035,-0.67452 0.723409,-0.473994 4.097368,-0.560624 6.993683,-0.17956 1.00341,0.13202 1.72788,0.12093 1.81983,-0.0279 0.20224,-0.327234 -0.44144,-0.728774 -1.10565,-0.689724 -0.29104,0.0171 -1.66026,0.008 -3.042708,-0.0209 -2.007287,-0.0416 -2.353671,-0.10213 -1.719791,-0.30076 0.682325,-0.21381 4.042319,-0.1202 5.871459,0.16359 0.31889,0.0495 0.72042,-0.0795 0.89229,-0.28659 0.26661,-0.32124 -0.0905,-0.38114 -2.43187,-0.40787 -1.50941,-0.0172 -2.833676,-0.0172 -2.942817,0 -0.10914,0.0172 -0.198437,-0.0793 -0.198437,-0.21461 0,-0.14472 1.279562,-0.19422 3.108854,-0.12025 2.12031,0.0857 2.97661,0.0419 2.69295,-0.13771 -0.22874,-0.14487 -1.75208,-0.28325 -3.38519,-0.3075 -2.017316,-0.03 -2.938317,-0.13703 -2.872675,-0.33395 0.100648,-0.30195 0.812868,-0.29176 4.689395,0.067 1.23693,0.11449 2.35002,0.11833 2.47355,0.008 0.31144,-0.27681 -0.82063,-0.46757 -4.00426,-0.67473 -1.496727,-0.0974 -2.648462,-0.24995 -2.559407,-0.339 0.186189,-0.18619 5.183147,-0.0816 6.272927,0.13131 0.40018,0.0782 0.72761,0.0271 0.72761,-0.11342 0,-0.33839 -1.93827,-0.61475 -4.37875,-0.62432 -1.15034,-0.005 -1.971254,-0.11941 -1.971254,-0.27591 0,-0.17533 1.213894,-0.2157 3.505734,-0.1166 2.30517,0.0997 3.1886,0.0699 2.57968,-0.087 -0.50932,-0.13122 -1.69995,-0.2567 -2.64583,-0.27883 -0.94589,-0.0221 -1.95792,-0.11156 -2.24896,-0.19872 -1.05928,-0.31721 1.42667,-0.50778 3.90734,-0.29953 1.34346,0.11279 2.53415,0.11601 2.64596,0.007 0.11182,-0.10884 0.24635,-1.122 0.29897,-2.25146 0.0812,-1.74214 0.44638,-2.94374 0.76681,-2.52281 0.048,0.0631 0.0138,1.23028 -0.076,2.59381 -0.12871,1.95436 -0.26388,2.55273 -0.63853,2.82667 -0.27786,0.20318 -0.39231,0.48168 -0.27557,0.67058 0.11902,0.19259 0.0895,0.255 -0.073,0.15453 -0.25948,-0.16037 -1.66115,1.58168 -1.66115,2.06454 0,0.12624 -0.1902,0.43969 -0.42266,0.69655 -0.46513,0.51397 -0.47837,0.50938 2.5993,0.90121 0.68783,0.0876 1.33114,0.289524 1.42957,0.448784 0.12527,0.2027 -0.17053,0.23555 -0.98602,0.1095 -2.65686,-0.410664 -4.20769,-0.497124 -4.20769,-0.23457 0,0.14771 0.68461,0.34408 1.52135,0.43637 0.83675,0.0923 1.67018,0.18641 1.85208,0.20915 0.18191,0.0228 0.33073,0.14284 0.33073,0.26688 0,0.12404 -0.26789,0.16709 -0.59531,0.0957 -1.36622,-0.29804 -2.66459,-0.40775 -6.68073,-0.56453 -3.591759,-0.14021 -4.353627,-0.10113 -5.027082,0.2579 -0.924604,0.49292 -1.103703,0.51653 -1.315732,0.17346 z m 16.842598,-0.20432 c -0.70854,-0.0872 -0.8193,-0.17791 -0.57575,-0.47136 0.24385,-0.29383 0.0827,-0.420174 -0.84249,-0.660344 -0.62922,-0.16334 -1.50123,-0.38961 -1.93779,-0.50282 -0.43656,-0.11321 -0.94258,-0.1552 -1.12448,-0.0933 -0.1819,0.0619 -0.33073,-0.0165 -0.33073,-0.1741 0,-0.15765 0.25357,-0.28664 0.56348,-0.28664 0.95186,0 4.71971,1.12258 4.57169,1.36208 -0.0766,0.123984 0.0831,0.225424 0.35489,0.225424 0.27182,0 0.72533,0.17481 1.00781,0.38846 0.49477,0.37423 0.48935,0.38722 -0.14787,0.35454 -0.3638,-0.0187 -1.05625,-0.0825 -1.53876,-0.14194 z M 51.276914,79.5172 c -0.39866,-0.60842 -1.00158,-2.40654 -1.0044,-2.99544 -7e-4,-0.14552 0.35956,0.49814 0.80056,1.43035 0.82813,1.7505 0.95286,2.70824 0.20384,1.56509 z m -12.31702,0.0155 c -3.38082,-0.69995 -3.46991,-0.74504 -1.25661,-0.63585 2.21295,0.10917 3.04255,0.29893 3.04255,0.69593 0,0.27046 -0.22615,0.26286 -1.78594,-0.0601 z m 36.71093,-0.26593 c -1.0914,-0.091 -3.08358,-0.2573 -4.42707,-0.36959 l -2.44269,-0.20417 -0.17804,-0.949 c -0.22503,-1.19955 -1.63202,-5.07481 -2.0062,-5.52566 -0.155,-0.18677 -0.21098,-0.41041 -0.12441,-0.49699 0.0866,-0.0866 0.48554,0.51162 0.88658,1.32931 0.40103,0.8177 0.886,1.48673 1.0777,1.48673 0.2759,0 0.26441,-0.16273 -0.0551,-0.78061 -0.45679,-0.88334 -0.51365,-1.33606 -0.16781,-1.33606 0.12972,0 0.42641,0.47625 0.65932,1.05833 0.2329,0.58209 0.54767,1.05834 0.69949,1.05834 0.19059,0 0.19155,-0.15787 0.003,-0.51 -0.15012,-0.2805 -0.20572,-0.68518 -0.12356,-0.89928 0.0822,-0.21411 0.0222,-0.46788 -0.13324,-0.56395 -0.42265,-0.26121 -0.34099,-0.75162 0.0972,-0.58349 0.20888,0.0802 0.43952,0.004 0.51254,-0.17013 0.0918,-0.21842 0.24892,-0.17302 0.50929,0.14716 0.20708,0.25466 0.51222,0.46302 0.67808,0.46302 0.54543,0 0.31548,-0.40685 -0.50332,-0.89053 -0.66366,-0.39203 -1.13948,-0.44524 -2.71198,-0.30325 -1.31986,0.11918 -2.35519,0.0539 -3.36231,-0.21192 -0.80036,-0.21127 -1.50952,-0.3339 -1.5759,-0.27252 -0.0664,0.0614 0.0751,0.49386 0.31448,0.96106 1.11546,2.17741 1.78959,3.62758 1.68634,3.62758 -0.20086,0 -2.80617,-5.02728 -2.80617,-5.41486 0,-0.20611 -0.13765,-0.45982 -0.30588,-0.56379 -0.5499,-0.33986 -0.006,1.50514 1.02117,3.46511 1.04634,1.9962 2.23246,5.41408 2.00601,5.78047 -0.0765,0.1238 -0.52238,-0.88804 -0.99083,-2.24852 -0.89156,-2.58934 -1.56202,-4.05808 -1.96659,-4.30811 -0.13193,-0.0815 -0.38278,-0.74393 -0.55743,-1.47199 -0.17466,-0.72805 -0.43766,-1.32373 -0.58444,-1.32373 -0.15572,0 -0.1945,0.28835 -0.0931,0.69233 0.0956,0.38078 0.24242,1.03562 0.32634,1.4552 0.0839,0.41959 0.29378,0.76289 0.46636,0.76289 0.17258,0 0.46574,0.62508 0.65147,1.38906 0.18572,0.76398 0.49763,1.86531 0.69312,2.4474 0.52763,1.57101 0.69471,2.51353 0.44557,2.51353 -0.12169,0 -0.42819,-0.8632 -0.68112,-1.91822 -0.25293,-1.05503 -0.68578,-2.37439 -0.96189,-2.93191 -0.27611,-0.55752 -0.69305,-1.68861 -0.92654,-2.51354 -0.73423,-2.59414 -2.10017,-5.86354 -2.45019,-5.86453 -0.23967,-6.9e-4 -0.18659,0.2921 0.18499,1.02046 0.60922,1.19417 2.19955,6.41105 2.01165,6.59895 -0.0706,0.0706 -0.18536,-0.0376 -0.25511,-0.24031 -0.0698,-0.20273 -0.67114,-2.01684 -1.33639,-4.03136 -1.20627,-3.65281 -2.17089,-5.90066 -2.42366,-5.647884 -0.0733,0.07334 0.054,0.495682 0.28304,0.938542 0.22901,0.442859 0.41638,1.025422 0.41638,1.294582 0,0.26917 0.1079,0.6025 0.23978,0.74075 0.31154,0.32659 1.78006,4.74729 2.02345,6.09122 0.31042,1.71406 -0.14513,0.8424 -0.78496,-1.50194 -0.32912,-1.2059 -0.72622,-2.23516 -0.88245,-2.28724 -0.15622,-0.0521 0.008,0.82634 0.36591,1.95204 0.35748,1.12569 0.60646,2.29293 0.5533,2.59387 -0.0784,0.44403 -0.13209,0.39756 -0.28465,-0.2466 -0.47173,-1.99184 -1.2824,-4.36654 -1.54632,-4.52966 -0.31085,-0.19211 -0.2534,0.1195 0.43268,2.34685 0.68858,2.23545 0.0402,1.32533 -0.75586,-1.06101 -0.42428,-1.27183 -1.10889,-2.86138 -1.52136,-3.53232 -0.85007,-1.382761 -0.99481,-2.024548 -0.23298,-1.03302 0.67774,0.88209 0.95365,0.52786 0.40909,-0.525212 -0.23974,-0.463609 -0.37269,-0.906133 -0.29544,-0.983387 0.0772,-0.07725 0.34621,0.290999 0.59768,0.818338 0.42892,0.899441 0.88838,1.267391 0.88838,0.711441 0,-1.205765 -2.05287,-3.457848 -3.14944,-3.455065 -0.84782,0.0022 -1.7362,0.586257 -3.11604,2.048777 -0.58351,0.618464 -1.25427,1.124479 -1.49058,1.124479 -0.68727,0 -4.31909,1.248019 -5.07704,1.744649 -0.52067,0.34116 -0.60635,0.50803 -0.34571,0.67332 0.56101,0.35579 1.61872,0.26233 3.20411,-0.28313 1.92993,-0.66399 3.09418,-0.3995 3.64273,0.82756 0.25248,0.56477 0.63917,0.91514 1.1593,1.05043 0.93385,0.24291 1.13384,0.11221 0.67476,-0.44095 -0.39632,-0.47754 -0.13,-0.89729 0.29785,-0.46945 0.32648,0.32649 1.34538,3.8092 1.16669,3.98789 -0.0637,0.0637 -0.19411,-0.19583 -0.28973,-0.57681 -0.0956,-0.38097 -0.27278,-0.69268 -0.39369,-0.69268 -0.12091,0 -0.0351,0.54224 0.19073,1.20497 0.22582,0.66273 0.34046,1.27508 0.25476,1.36078 -0.0857,0.0857 -0.20836,-0.01 -0.27257,-0.21277 -0.0642,-0.20273 -0.32144,-1.05321 -0.57162,-1.88996 -0.25017,-0.83674 -0.56755,-1.52135 -0.70528,-1.52135 -0.13772,0 -0.18806,0.14883 -0.11186,0.33073 0.19838,0.47355 0.88894,2.84614 1.07812,3.70417 0.0882,0.40018 0.054,0.7276 -0.0761,0.7276 -0.1301,0 -0.31166,-0.38695 -0.40346,-0.8599 -0.31237,-1.60932 -1.03683,-3.76917 -1.3946,-4.15773 -0.4967,-0.53946 -0.45007,-0.1682 0.26506,2.11042 0.7479,2.38303 1.03531,3.7752 0.74196,3.5939 -0.11869,-0.0734 -0.37015,-0.82309 -0.5588,-1.66608 -0.45325,-2.02532 -1.79644,-5.51494 -2.27594,-5.91289 -0.41344,-0.34312 -0.53271,0.0125 -0.14195,0.42322 0.26421,0.27772 2.4067,6.98577 2.4067,7.53529 0,0.74482 -0.33492,-0.0706 -1.06839,-2.60122 -0.91538,-3.15819 -1.95919,-5.60876 -2.38903,-5.60876 -0.21418,0 -0.22872,0.10336 -0.0465,0.33073 0.35886,0.44786 2.18483,5.91839 2.16609,6.48953 -0.008,0.25068 -0.4625,-0.85391 -1.0095,-2.45463 -0.54701,-1.60073 -1.16423,-3.17831 -1.37161,-3.50573 -0.44412,-0.7012 -0.92844,-0.80313 -0.62859,-0.1323 0.69146,1.54697 1.99076,5.76576 2.11031,6.85212 0.10496,0.95385 -0.0343,0.64217 -0.54175,-1.21266 -0.55557,-2.03062 -1.84576,-5.71223 -2.11936,-6.04767 -0.1066,-0.13069 -1.9808,0.82541 -1.9808,1.01048 0,0.21875 0.66078,2.33856 0.9392,3.01301 0.145,0.35124 0.11666,0.44932 -0.0925,0.32008 -0.16583,-0.10249 -0.54829,-1.01499 -0.84991,-2.02778 -0.30162,-1.01278 -0.6614,-1.84143 -0.79951,-1.84143 -0.13811,0 0.0483,0.7954 0.4142,1.76756 0.36592,0.97216 0.61689,1.8949 0.5577,2.05053 -0.0592,0.15562 -0.19237,0.0448 -0.29596,-0.24621 -0.50308,-1.41343 -1.28517,-3.21014 -1.52878,-3.51213 -0.54239,-0.67233 -0.45809,-0.10585 0.19208,1.29086 0.36549,0.78513 0.66065,1.60611 0.65592,1.82439 -0.005,0.21828 -0.30485,-0.31687 -0.66693,-1.18923 -0.36209,-0.87237 -0.8502,-1.76533 -1.08471,-1.98438 -0.38442,-0.35908 -0.40671,-0.3462 -0.22651,0.1309 0.51425,1.36149 0.41016,1.49734 -0.35478,0.46302 -1.08458,-1.46652 -1.31154,-1.43476 -0.47267,0.0661 0.366,0.65485 0.57286,1.19063 0.45968,1.19063 -0.11317,0 -0.41679,-0.46795 -0.67469,-1.03988 l -0.46892,-1.03988 -0.83538,0.5476 c -0.45946,0.30118 -1.12973,0.94444 -1.48949,1.42947 -0.65758,0.88653 -1.05099,1.12305 -1.05099,0.63186 0,-0.14553 0.11906,-0.26459 0.26458,-0.26459 0.14552,0 0.26458,-0.23624 0.26458,-0.52499 0,-1.02551 1.32563,-2.0281 3.07876,-2.3285 0.99894,-0.17117 2.32298,-0.67454 3.4416,-1.30842 0.99993,-0.56663 2.59105,-1.194167 3.53582,-1.394534 1.56013,-0.330871 1.89256,-0.529698 3.6222,-2.166429 1.04744,-0.991168 2.07137,-1.802124 2.27541,-1.802124 0.20404,0 0.89486,0.386953 1.53516,0.859896 0.64029,0.472942 1.58089,0.982116 2.09022,1.131497 0.65272,0.191439 1.07999,0.557064 1.44766,1.238785 0.4333,0.803396 0.79174,1.056579 2.11667,1.495049 3.37194,1.11592 4.52515,1.78682 5.8347,3.39443 0.68799,0.84458 1.30818,1.68488 1.37819,1.86735 0.0831,0.21655 0.69662,0.33174 1.76689,0.33174 1.51808,0 1.70436,0.0668 2.51371,0.90187 0.48076,0.49603 0.95239,1.28457 1.04806,1.75231 0.17137,0.83794 0.19915,0.85197 1.88975,0.95392 2.80236,0.169 3.69929,0.27276 6.47832,0.7495 1.45521,0.24963 2.75895,0.56192 2.89719,0.69397 0.32169,0.30728 0.5804,0.32458 -4.13564,-0.27654 -4.76597,-0.60749 -6.91312,-0.72502 -7.09592,-0.38842 -0.14708,0.27083 2.14584,0.56773 4.72457,0.61176 1.94031,0.0331 6.43292,0.80019 6.26624,1.06989 -0.0618,0.10004 -0.44669,0.15429 -0.85526,0.12057 -1.76584,-0.14577 -4.19329,-0.42971 -4.31888,-0.50519 -0.075,-0.0451 -1.26567,-0.15865 -2.64583,-0.25233 -1.38016,-0.0937 -2.71774,-0.23098 -2.9724,-0.30511 -0.30136,-0.0877 -0.46302,0.01 -0.46302,0.27993 0,0.24839 0.23875,0.42187 0.59531,0.43256 0.32742,0.01 0.9525,0.0587 1.38906,0.10858 0.43656,0.0499 1.50173,0.1615 2.36705,0.24802 2.29858,0.22983 5.09215,0.74905 4.71822,0.87695 -0.17768,0.0608 -1.50158,-0.0769 -2.94199,-0.30587 -3.52892,-0.56104 -6.12765,-0.56128 -6.12765,-5.6e-4 0,0.27364 0.20355,0.3941 0.59531,0.35232 0.62137,-0.0663 6.55401,0.27245 7.47448,0.42676 0.29104,0.0488 0.61846,0.0976 0.7276,0.10837 0.10914,0.0108 0.19844,0.14602 0.19844,0.30046 0,0.25744 -0.58678,0.22912 -3.0755,-0.14841 -2.15244,-0.32653 -5.87019,-0.42757 -6.0331,-0.16398 -0.12487,0.20204 0.22136,0.30175 1.08934,0.31371 1.7054,0.0235 4.84964,0.23144 5.50572,0.36413 0.29104,0.0589 0.79705,0.11612 1.12448,0.12726 0.32742,0.0111 0.59531,0.13587 0.59531,0.27721 0,0.26726 -1.6131,0.25908 -5.02708,-0.0255 z m -4.94532,-1.00554 c 0.11773,-0.0108 0.13354,-0.14994 0.0351,-0.30916 -0.0984,-0.15923 -0.45175,-0.23735 -0.78521,-0.1736 -0.42855,0.0819 -0.56629,0.0117 -0.46984,-0.23967 0.0806,-0.21002 -0.044,-0.35557 -0.30436,-0.35557 -0.24244,0 -0.3926,0.0893 -0.33368,0.19844 0.0589,0.10914 0.18119,0.40663 0.27175,0.66109 0.11042,0.31029 0.36346,0.42567 0.7684,0.35038 0.33207,-0.0617 0.70008,-0.1211 0.81781,-0.13191 z m 0.7605,-0.87074 c -0.18986,-0.18986 -0.31309,-0.20548 -0.31309,-0.0397 0,0.15037 0.0794,0.35278 0.17639,0.44979 0.097,0.097 0.2379,0.11487 0.31309,0.0397 0.0752,-0.0752 -0.004,-0.27759 -0.17639,-0.44979 z m -1.078,-0.65304 c -0.10449,-0.3907 -0.32923,-0.75678 -0.49941,-0.81351 -0.23196,-0.0773 -0.23843,0.10054 -0.0258,0.71037 0.34846,0.9996 0.78808,1.08593 0.52524,0.10314 z m 0.96886,-0.133 c -0.0576,-0.1728 -0.2462,-0.36134 -0.41911,-0.41898 -0.19334,-0.0645 -0.25247,0.0565 -0.15359,0.31419 0.18455,0.48094 0.73144,0.58101 0.5727,0.10479 z m 0.85438,0.0496 c 0,-0.14552 -0.11906,-0.26458 -0.26458,-0.26458 -0.14552,0 -0.26459,0.11906 -0.26459,0.26458 0,0.14553 0.11907,0.26459 0.26459,0.26459 0.14552,0 0.26458,-0.11906 0.26458,-0.26459 z m -2.91042,-0.38126 c 0,-0.42138 -0.48004,-0.81438 -0.71174,-0.58268 -0.21766,0.21765 0.12211,0.96394 0.43886,0.96394 0.15009,0 0.27288,-0.17156 0.27288,-0.38126 z m 2.64584,-0.67707 c 0,-0.14552 -0.11906,-0.26458 -0.26459,-0.26458 -0.14552,0 -0.26458,0.11906 -0.26458,0.26458 0,0.14552 0.11906,0.26458 0.26458,0.26458 0.14553,0 0.26459,-0.11906 0.26459,-0.26458 z m -0.93927,-0.23978 c -0.36689,-0.34997 -2.7649,-0.62126 -2.7649,-0.3128 0,0.22514 0.57614,0.34222 2.50031,0.50809 0.31599,0.0272 0.41853,-0.0484 0.26459,-0.19529 z m 0.81786,-0.80096 c -0.0959,-0.1552 -0.30102,-0.28219 -0.45577,-0.28219 -0.17544,0 -0.15537,0.15182 0.0533,0.40327 0.36289,0.43725 0.68721,0.33968 0.40245,-0.12108 z m -1.08052,-0.30047 c -0.2488,-0.40257 -0.64633,-0.2796 -0.48184,0.14906 0.0834,0.21744 0.26025,0.32828 0.39289,0.2463 0.13265,-0.082 0.17268,-0.25989 0.089,-0.39536 z m -0.38557,-1.02443 c 0,-0.13694 -0.11906,-0.32256 -0.26459,-0.41249 -0.14552,-0.0899 -0.26458,0.0221 -0.26458,0.24896 0,0.22687 0.11906,0.41249 0.26458,0.41249 0.14553,0 0.26459,-0.11203 0.26459,-0.24896 z m 1.05833,0.13229 c 0,-0.0642 -0.11906,-0.19026 -0.26458,-0.2802 -0.14552,-0.0899 -0.26459,-0.0374 -0.26459,0.11668 0,0.1541 0.11907,0.28019 0.26459,0.28019 0.14552,0 0.26458,-0.0525 0.26458,-0.11667 z m -6.21771,-3.05833 c -0.0899,-0.14552 -0.27555,-0.26458 -0.41249,-0.26458 -0.13693,0 -0.24897,0.11906 -0.24897,0.26458 0,0.14552 0.18563,0.26459 0.41249,0.26459 0.22687,0 0.33891,-0.11907 0.24897,-0.26459 z m -1.19062,-0.26458 c 0,-0.14552 -0.11906,-0.26458 -0.26459,-0.26458 -0.14552,0 -0.26458,0.11906 -0.26458,0.26458 0,0.14552 0.11906,0.26458 0.26458,0.26458 0.14553,0 0.26459,-0.11906 0.26459,-0.26458 z m -0.79375,-0.11668 c 0,-0.0642 -0.11906,-0.19026 -0.26459,-0.28019 -0.14552,-0.0899 -0.26458,-0.0374 -0.26458,0.11667 0,0.15411 0.11906,0.2802 0.26458,0.2802 0.14553,0 0.26459,-0.0525 0.26459,-0.11668 z m 2.41355,-0.85566 c -0.2306,-0.39655 -0.28223,-0.40798 -0.28884,-0.0639 -0.009,0.44558 0.26966,0.84677 0.45718,0.65925 0.0619,-0.0618 -0.0139,-0.32973 -0.16834,-0.59531 z m -0.82605,0.21099 c 0,-0.12771 -0.1786,-0.38041 -0.39688,-0.56157 -0.32186,-0.26712 -0.39687,-0.25658 -0.39687,0.0558 0,0.21185 0.0794,0.46455 0.17639,0.56157 0.25127,0.25127 0.61736,0.21818 0.61736,-0.0558 z m -1.05834,-0.28137 c 0,-0.34584 -0.24976,-0.46838 -1.39107,-0.6825 -0.7974,-0.14959 -0.99018,-0.10602 -0.99018,0.2238 0,0.26379 0.30606,0.44754 0.8599,0.51627 0.47294,0.0587 1.00872,0.12577 1.19063,0.14906 0.1819,0.0233 0.33072,-0.0697 0.33072,-0.20663 z m -2.91041,-0.41249 c 0,-0.21828 -0.17486,-0.39687 -0.38857,-0.39687 -0.2367,0 -0.32905,0.15512 -0.23628,0.39687 0.0838,0.21828 0.25862,0.39688 0.38857,0.39688 0.12995,0 0.23628,-0.1786 0.23628,-0.39688 z m -0.63107,-2.08998 c -0.8699,-1.8332 -1.48609,-1.61498 -0.6892,0.24407 0.39838,0.9294 0.62391,1.19289 0.83787,0.97893 0.21396,-0.21396 0.17395,-0.54315 -0.14867,-1.223 z m 2.93483,0.4439 c -0.42585,-0.42586 -0.45168,-0.42071 -0.45168,0.0901 0,0.69343 0.28576,0.97919 0.63248,0.63248 0.18479,-0.18479 0.12733,-0.41445 -0.1808,-0.72257 z m 1.2315,0.58775 c -0.16102,-0.41962 -0.62485,-0.55056 -0.62485,-0.17639 0,0.2798 0.28922,0.57326 0.56496,0.57326 0.1167,0 0.14365,-0.17859 0.0599,-0.39687 z m -7.87333,-0.5898 c -0.26895,-0.26895 -0.49086,0.13597 -0.27019,0.49302 0.16669,0.26972 0.22901,0.26993 0.31864,10e-4 0.0613,-0.18383 0.0395,-0.40617 -0.0484,-0.49409 z m 1.10243,0.4079 c -0.0576,-0.17281 -0.24619,-0.36135 -0.4191,-0.41899 -0.19334,-0.0645 -0.25247,0.0565 -0.15359,0.3142 0.18455,0.48093 0.73143,0.581 0.57269,0.10479 z m 4.81725,0.11575 c -0.003,-0.10914 -0.25244,-0.49609 -0.55379,-0.85989 -0.39131,-0.4724 -0.50306,-0.52293 -0.39099,-0.1768 0.0863,0.26656 0.15692,0.65352 0.15692,0.8599 0,0.20637 0.17859,0.37523 0.39687,0.37523 0.21828,0 0.39423,-0.0893 0.39099,-0.19844 z m -1.22043,-0.79375 c -0.15677,-0.64053 -0.61658,-1.22186 -0.81194,-1.0265 -0.14119,0.14119 0.57455,1.75411 0.77839,1.75411 0.11639,0 0.13148,-0.32742 0.0336,-0.72761 z m -5.028,-0.46302 c -0.0838,-0.21828 -0.25862,-0.39687 -0.38857,-0.39687 -0.12995,0 -0.23628,0.17859 -0.23628,0.39687 0,0.21828 0.17486,0.39688 0.38857,0.39688 0.2367,0 0.32905,-0.15513 0.23628,-0.39688 z m 0.85792,-0.32521 c -0.26895,-0.26896 -0.49087,0.13596 -0.2702,0.49301 0.1667,0.26973 0.22902,0.26993 0.31864,10e-4 0.0613,-0.18382 0.0395,-0.40616 -0.0484,-0.49408 z m -3.02916,12.59888 c -0.33106,-0.8781 -0.63777,-2.35179 -0.48946,-2.35179 0.19945,0 1.02037,2.69117 0.86755,2.84399 -0.0769,0.0769 -0.24703,-0.14459 -0.37809,-0.4922 z m 11.94917,0.23428 c -0.36115,-0.47565 -0.94503,-2.60702 -0.76383,-2.78822 0.0829,-0.0828 0.15063,-0.0993 0.15063,-0.0366 0,0.0627 0.23592,0.75942 0.52427,1.5483 0.52869,1.44645 0.56009,1.89714 0.0889,1.27658 z m 0.75415,-0.23428 c -0.12922,-0.3476 -0.30468,-1.10825 -0.3899,-1.69033 -0.12886,-0.8801 -0.0679,-0.79504 0.36192,0.50503 0.49376,1.49343 0.51757,2.50225 0.028,1.1853 z m 1.03479,-0.38947 c 0.0127,-0.30822 0.0754,-0.37092 0.15986,-0.15985 0.0764,0.191 0.067,0.4192 -0.0209,0.50712 -0.0879,0.0879 -0.15046,-0.0683 -0.13897,-0.34727 z m -7.7261,-0.57326 c -0.4335,-1.11148 -1.01547,-3.07533 -0.93514,-3.15566 0.0393,-0.0393 0.43777,0.81833 0.88543,1.90589 0.44767,1.08755 0.70584,1.97737 0.57372,1.97737 -0.13212,0 -0.36793,-0.32742 -0.52401,-0.7276 z m 1.3761,0.69377 c -0.0115,-0.0914 -0.20108,-0.59738 -0.42131,-1.12448 -0.22023,-0.52709 -0.34235,-0.95835 -0.27138,-0.95835 0.25679,0 0.96536,1.63116 0.84105,1.93616 -0.0701,0.17204 -0.13687,0.23804 -0.14836,0.14667 z m 0.65638,-0.65885 c -0.24834,-0.98947 0.002,-1.07467 0.33671,-0.11457 0.15478,0.44399 0.18145,0.80725 0.0593,0.80725 -0.12217,0 -0.30037,-0.3117 -0.39598,-0.69268 z M 47.099424,77.3155 c -0.007,-0.43656 -0.42376,-1.62072 -0.92641,-2.63146 -1.05058,-2.11252 -1.06399,-2.5943 -0.0228,-0.81757 1.03794,1.77111 1.5213,3.28429 1.21608,3.80703 -0.204,0.3494 -0.2569,0.27846 -0.26692,-0.358 z m 20.24401,-0.44308 c -0.20946,-0.74224 -1.38274,-3.59702 -1.75863,-4.27904 -0.14816,-0.26883 -0.20992,-0.54826 -0.13722,-0.62095 0.0727,-0.0727 0.37016,0.33436 0.66106,0.90455 0.65914,1.29203 1.69302,4.32609 1.52977,4.48934 -0.0667,0.0667 -0.19948,-0.15551 -0.29498,-0.4939 z m -19.4853,-0.95429 c -0.0872,-0.52579 -0.0483,-0.77262 0.0984,-0.62583 0.13331,0.13331 0.19808,0.524 0.14394,0.86821 -0.0833,0.52961 -0.12058,0.49234 -0.24238,-0.24238 z m 0.97943,0.50684 c -0.11397,-0.18441 -0.13577,-0.40675 -0.0484,-0.49408 0.2368,-0.2368 0.49498,0.11146 0.36708,0.49515 -0.0896,0.26886 -0.15194,0.26865 -0.31863,-0.001 z m 12.46508,-0.76311 c -0.0808,-0.40019 -0.21745,-0.96573 -0.30375,-1.25677 -0.0863,-0.29105 0.0751,-0.0529 0.35872,0.52916 0.59233,1.21574 0.64554,1.45521 0.32337,1.45521 -0.12733,0 -0.29759,-0.32742 -0.37834,-0.7276 z m -11.30001,0.13229 c -0.002,-0.1819 -0.0777,-0.62839 -0.16829,-0.99219 -0.11505,-0.46213 -0.0797,-0.58173 0.11718,-0.39687 0.4292,0.40289 0.69566,1.71979 0.34799,1.71979 -0.1613,0 -0.29489,-0.14883 -0.29688,-0.33073 z m -4.47181,-0.93787 c -0.1892,-0.45679 -0.50979,-0.96811 -0.71242,-1.13628 -0.4267,-0.35413 -0.48568,-0.77012 -0.1092,-0.77012 0.32918,0 1.39162,2.05899 1.26243,2.44656 -0.0532,0.1597 -0.2516,-0.0834 -0.44081,-0.54016 z m 19.35823,-1.31109 c -0.46756,-0.96339 -0.79747,-1.80427 -0.73312,-1.86861 0.0643,-0.0643 0.49545,0.67533 0.95802,1.64371 0.46257,0.96839 0.79248,1.80926 0.73313,1.86861 -0.0593,0.0593 -0.49046,-0.68032 -0.95803,-1.64371 z m -18.4326,-0.50089 c -0.25208,-0.6569 0.0258,-0.7466 0.36266,-0.11708 0.16254,0.30369 0.18491,0.55182 0.0497,0.55182 -0.13507,0 -0.32065,-0.19563 -0.41241,-0.43474 z m 10.19556,-0.12638 c -0.13926,-0.34622 -0.45182,-1.28434 -0.69456,-2.08471 -0.43059,-1.41975 -0.70864,-2.11291 -1.78324,-4.44558 -0.28841,-0.62606 -0.45122,-1.21145 -0.3618,-1.30087 0.19659,-0.19659 0.15966,-0.25151 0.92868,1.38083 0.76462,1.62298 2.46309,6.78088 2.28993,6.95404 -0.0692,0.0692 -0.23974,-0.15748 -0.37901,-0.50371 z m -2.40017,-0.96023 c -0.17333,-0.69122 -0.6522,-2.06054 -1.06415,-3.04292 -0.41195,-0.98237 -0.65747,-1.84271 -0.5456,-1.91185 0.19723,-0.12189 0.86424,1.56089 1.85907,4.69019 0.26601,0.83674 0.38964,1.52135 0.27474,1.52135 -0.11491,0 -0.35074,-0.56555 -0.52406,-1.25677 z m 0.22431,-2.23785 c -0.63944,-1.78308 -1.20726,-3.36334 -1.26184,-3.51169 -0.0637,-0.17316 0.007,-0.17023 0.19854,0.008 0.34807,0.32487 2.51491,6.45647 2.34255,6.62883 -0.0641,0.0641 -0.63982,-1.34224 -1.27925,-3.12532 z m -13.14635,1.13661 c -0.17698,-0.49654 -0.27135,-0.95322 -0.20973,-1.01485 0.20336,-0.20335 0.71945,1.01019 0.62453,1.4685 -0.0617,0.29777 -0.20147,0.14488 -0.4148,-0.45365 z m 0.63934,-0.69493 c -0.25532,-0.66534 -0.18,-0.83702 0.1319,-0.30065 0.15444,0.26557 0.22506,0.5386 0.15693,0.60672 -0.0681,0.0681 -0.19809,-0.0696 -0.28883,-0.30607 z m -8.34377,-2.56857 c -0.85395,-0.18099 -1.06704,-0.31274 -0.79375,-0.49076 0.51662,-0.33651 3.6642,0.13172 3.30436,0.49156 -0.25817,0.25818 -1.29023,0.25785 -2.51061,-8e-4 z m 1.43192,-0.96384 c -0.55708,-0.12124 -0.69002,-0.23806 -0.44586,-0.3918 0.41321,-0.26017 2.07971,0.009 2.30427,0.37282 0.17266,0.27936 -0.62453,0.28751 -1.85841,0.019 z m 37.83541,-0.5584 c -0.0899,-0.14552 -0.0445,-0.26458 0.10106,-0.26458 0.14552,0 0.33817,0.11906 0.42811,0.26458 0.0899,0.14552 0.0445,0.26458 -0.10107,0.26458 -0.14552,0 -0.33816,-0.11906 -0.4281,-0.26458 z m -9.26042,-0.79526 c -1.45521,-0.41267 -3.00302,-0.833954 -3.43958,-0.936187 -0.43656,-0.102233 -0.63508,-0.243932 -0.44115,-0.314887 0.35701,-0.130622 1.73437,0.222457 5.33594,1.367834 2.74887,0.8742 1.75927,0.7948 -1.45521,-0.11676 z m 5.55625,0.41182 c -0.58208,-0.17287 -1.38527,-0.45185 -1.78487,-0.61994 -0.89977,-0.3785 -4.48655,-1.279591 -6.04906,-1.519684 -0.63905,-0.0982 -1.34049,-0.207104 -1.55878,-0.24202 -0.72593,-0.116121 -0.40968,-0.769832 0.48452,-1.001543 0.73067,-0.189335 0.82693,-0.294014 0.56292,-0.612132 -0.1825,-0.219898 -0.20551,-0.38374 -0.0539,-0.38374 0.14552,0 0.41699,0.18364 0.60326,0.408089 0.22995,0.277067 0.42523,0.321548 0.60823,0.138543 0.18301,-0.183004 0.12714,-0.426899 -0.17399,-0.759651 -0.24395,-0.269558 -0.44354,-0.577376 -0.44354,-0.68404 0,-0.106663 0.33505,0.172898 0.74455,0.621247 0.4095,0.448349 0.82147,0.738258 0.91549,0.644243 0.22208,-0.222076 -0.53637,-1.691347 -0.87309,-1.691347 -0.14178,0 -0.25779,-0.139817 -0.25779,-0.310704 0,-0.419517 1.27455,0.799819 1.46576,1.402261 0.11103,0.349833 0.39715,0.469475 1.06288,0.444448 0.50102,-0.01883 0.91095,-0.12723 0.91095,-0.240878 0,-0.113647 -0.66767,-0.927793 -1.48371,-1.809213 -0.81604,-0.881419 -1.37951,-1.602581 -1.25215,-1.602581 0.31138,0 2.62783,2.234996 3.16301,3.051779 0.61999,0.946227 1.01349,0.802317 0.4477,-0.163734 -0.63794,-1.089248 -1.59896,-2.151091 -2.83801,-3.135766 -0.56101,-0.445837 -0.88193,-0.810612 -0.71315,-0.810612 0.2915,0 2.61065,1.95263 2.98535,2.513541 0.90427,1.353659 1.87188,2.537483 1.98311,2.426252 0.37997,-0.379974 -3.11968,-4.633812 -4.80528,-5.84082 -0.29081,-0.208244 -0.43669,-0.47068 -0.32418,-0.583192 0.28921,-0.289207 2.89562,2.317189 4.61246,4.612436 0.79712,1.065675 1.50946,1.877449 1.58297,1.803941 0.0735,-0.07351 -0.31347,-0.826362 -0.85995,-1.673009 -1.04092,-1.612675 -4.99093,-5.705275 -5.25329,-5.44292 -0.0836,0.08363 -0.37614,-0.05074 -0.65003,-0.298605 -0.48815,-0.441774 -2.41569,-0.919671 -2.41569,-0.598926 0,0.08962 0.35719,0.743439 0.79375,1.452944 0.43657,0.709504 0.79375,1.451003 0.79375,1.647775 0,0.196772 -0.50601,-0.460564 -1.12447,-1.460745 -1.51675,-2.452884 -2.60386,-3.289982 -4.64778,-3.578889 -0.8895,-0.12573 -1.73903,-0.303848 -1.88784,-0.395816 -0.50895,-0.314548 -1.90308,-2.539234 -1.7931,-2.861339 0.0604,-0.176872 0.49954,0.309454 0.97589,1.080726 1.08348,1.754316 1.33702,1.622614 0.40751,-0.211687 -0.75847,-1.496766 -0.70914,-2.189919 0.0579,-0.813402 1.05112,1.886349 1.43232,2.454103 1.5612,2.325223 0.0744,-0.07445 -0.23742,-0.873829 -0.69304,-1.776405 -1.21821,-2.413258 -0.81398,-2.195347 0.49911,0.26906 0.61898,1.161705 1.23615,2.11219 1.37149,2.11219 0.13534,0 0.24607,-0.06083 0.24607,-0.135175 0,-0.267755 -1.17195,-2.664683 -1.7917,-3.664463 -0.34827,-0.561832 -0.49691,-0.976079 -0.33032,-0.920548 0.16659,0.05553 0.87541,1.164927 1.57514,2.465324 0.69974,1.300398 1.42345,2.414761 1.60825,2.476363 0.18481,0.0616 -0.29436,-1.064364 -1.06481,-2.502145 -0.77044,-1.437781 -1.20988,-2.455685 -0.97651,-2.262008 0.23337,0.193677 0.67869,0.877626 0.9896,1.519888 0.57235,1.182309 0.9635,1.608642 1.23072,1.341419 0.13326,-0.133264 -0.39704,-1.162587 -1.82594,-3.544175 -0.73409,-1.223521 -0.3531,-1.067538 0.48468,0.198437 0.38521,0.582083 0.86315,1.058333 1.06209,1.058333 0.51051,0 0.46468,-0.151883 -0.44475,-1.473682 -1.05175,-1.528668 -0.64376,-1.504403 0.48412,0.02879 1.47228,2.001359 1.71514,1.329699 0.26681,-0.737923 -0.70224,-1.002525 -0.18803,-0.922437 0.55824,0.08695 0.75604,1.022599 0.99613,0.840807 0.43177,-0.326941 l -0.42745,-0.884483 0.75794,0.859896 c 0.98322,1.115467 1.21788,1.090893 0.66448,-0.06959 -0.35216,-0.738491 -0.66389,-0.982062 -1.51707,-1.185373 -0.59061,-0.140741 -1.56895,-0.418174 -2.17408,-0.616518 -0.98841,-0.323966 -1.08423,-0.317776 -0.94265,0.06089 0.25937,0.693722 -0.62978,-0.139153 -1.29138,-1.209642 -0.3094,-0.500618 -0.62058,-0.852179 -0.69151,-0.781248 -0.0709,0.07093 0.29984,0.823683 0.82393,1.67278 0.52409,0.849098 0.94928,1.720061 0.94485,1.935472 -0.005,0.266609 -0.10033,0.222705 -0.29709,-0.13751 -0.87316,-1.598528 -2.67844,-4.380654 -2.77796,-4.281133 -0.0636,0.06362 0.53796,1.228125 1.33685,2.5878 0.79888,1.359675 1.39954,2.525109 1.3348,2.589853 -0.15149,0.151483 -0.0804,0.256166 -1.55098,-2.285582 -0.69457,-1.200547 -1.32517,-2.182812 -1.40133,-2.182812 -0.13269,0 -3.00378,2.9441 -3.73582,3.830818 -0.30188,0.365661 -0.24468,0.563195 0.39687,1.370652 1.30008,1.63627 1.46488,1.91315 1.34687,2.262758 -0.0678,0.20089 -0.28598,0.01487 -0.53102,-0.45277 -0.22874,-0.436563 -0.81348,-1.150938 -1.29942,-1.5875 l -0.88351,-0.79375 0.6974,0.79375 c 0.67653,0.770008 1.55155,2.28396 1.55155,2.684494 0,0.108477 -0.33685,-0.332095 -0.74856,-0.979048 -0.71756,-1.127577 -1.63269,-2.095436 -1.63269,-1.72678 0,0.09666 0.23813,0.431349 0.52917,0.743745 0.29104,0.312397 0.52917,0.683059 0.52917,0.823694 0,0.263516 -0.9513,-0.461713 -1.48088,-1.128954 -0.24844,-0.313023 -0.38317,-0.247847 -0.79807,0.386071 -0.41857,0.639515 -0.48761,1.180979 -0.42755,3.353161 0.0401,1.448667 -0.0355,2.590492 -0.17131,2.590492 -0.13361,0 -0.23137,0.327421 -0.21724,0.727604 0.0954,2.701367 -0.005,2.978569 -1.64393,4.534441 -0.86018,0.816656 -1.70327,1.762917 -1.87352,2.102802 -0.50019,0.998597 -0.59192,0.47041 -0.12218,-0.703579 0.23716,-0.592735 0.83586,-1.386342 1.33043,-1.763572 0.92518,-0.705668 1.58909,-1.657304 1.3341,-1.912285 -0.0793,-0.07935 -0.59501,0.06404 -1.14591,0.318632 -0.55091,0.254595 -1.41837,0.64692 -1.92769,0.871835 -0.50932,0.224914 -1.78519,0.984695 -2.83527,1.688403 -2.06625,1.384702 -2.18523,1.407469 -5.77104,1.104357 -2.59433,-0.219301 -1.90095,-0.577067 1.24873,-0.644303 2.04689,-0.04369 2.26556,-0.10628 3.64311,-1.042687 0.80603,-0.547912 2.17989,-1.321723 3.05301,-1.719582 2.51179,-1.144552 2.88163,-1.366205 3.3711,-2.020349 0.56072,-0.749375 0.96144,-3.472826 0.74017,-5.030506 -0.26261,-1.848729 0.16252,-2.77197 1.76678,-3.836814 0.7765,-0.515415 1.54185,-1.191365 1.70077,-1.502112 0.43721,-0.854883 2.13336,-2.546675 2.39261,-2.386452 0.12547,0.07755 0.20372,0.04285 0.17387,-0.0771 -0.10018,-0.402641 0.96205,-1.937598 1.44972,-2.094889 0.71039,-0.229124 1.91915,0.362471 2.25739,1.104815 0.16225,0.356109 0.62418,0.788741 1.0265,0.961404 0.40233,0.172663 1.0408,0.523295 1.41882,0.779182 0.67255,0.455256 1.40044,0.611985 4.07519,0.877476 0.7276,0.07222 1.79916,0.266396 2.38125,0.431501 0.58208,0.165105 1.34125,0.380045 1.68705,0.477644 0.74182,0.209373 1.70141,2.554325 2.1748,5.314554 0.16223,0.945886 0.4611,1.983642 0.66416,2.306126 0.35501,0.563777 0.34945,1.95239 -0.0125,3.117832 -0.12571,0.404828 0.0567,0.678088 0.77629,1.162947 1.26445,0.851976 2.51539,2.311517 2.51539,2.934852 0,0.670699 0.55534,1.870376 0.79675,1.721177 0.52994,-0.327518 7.10974,1.5076 8.96441,2.500188 0.54968,0.294181 0.76516,0.808961 0.33862,0.808961 -0.12043,0 -0.97634,-0.307749 -1.90203,-0.683887 -1.25235,-0.508879 -7.06948,-2.211252 -7.60244,-2.224843 -0.0364,-9.27e-4 -0.0661,0.117376 -0.0661,0.262897 0,0.145521 0.24457,0.264583 0.54349,0.264583 1.96415,0 9.58465,2.942272 9.03754,3.489382 -0.16373,0.16373 -0.81171,-0.045 -1.80921,-0.58273 -1.59026,-0.857296 -6.96932,-2.739014 -7.19231,-2.516029 -0.0681,0.06806 0.2202,0.252202 0.64056,0.409212 2.82957,1.056869 4.25599,1.632467 4.60076,1.856517 0.21828,0.14185 0.66477,0.39521 0.99219,0.56304 0.32742,0.16782 0.59531,0.39105 0.59531,0.49607 0,0.27635 -1.52935,-0.30778 -2.91042,-1.11161 -1.83779,-1.069675 -6.72562,-2.649907 -7.87735,-2.54675 l -0.98619,0.08833 1.19063,0.33527 c 2.86449,0.806614 5.48353,1.690396 6.21771,2.09813 0.43656,0.24245 1.21046,0.64962 1.71979,0.90483 0.71746,0.35949 0.80111,0.46638 0.37137,0.47455 -0.30506,0.006 -1.50872,-0.45569 -2.6748,-1.02552 -2.89912,-1.416729 -7.33267,-2.685466 -9.25696,-2.649041 -0.72963,0.01381 -0.0956,0.252845 2.29997,0.86709 3.24051,0.830898 6.58634,2.140691 6.27181,2.455231 -0.0873,0.0873 -0.671,-0.0884 -1.29706,-0.39046 -1.17784,-0.56832 -4.31127,-1.594901 -5.49179,-1.799236 -0.37047,-0.06412 -1.0903,-0.22976 -1.59963,-0.368082 -0.50932,-0.138321 -1.58088,-0.241772 -2.38125,-0.229891 l -1.4552,0.0216 2.24895,0.467417 c 4.2082,0.87462 7.9375,2.066082 7.9375,2.535932 0,0.069 -0.0298,0.10995 -0.0661,0.0909 -0.0364,-0.019 -0.54239,-0.176 -1.12448,-0.34888 z m -0.30153,-5.648891 c -1.07372,-1.567932 -3.96261,-4.551001 -4.40731,-4.551001 -0.14325,0 0.28171,0.477228 0.94435,1.060506 0.66264,0.583278 1.89472,2.086765 2.73796,3.341081 0.84325,1.254317 1.58115,2.136653 1.63978,1.960746 0.0586,-0.175906 -0.35301,-0.991005 -0.91478,-1.811332 z m -0.0875,-1.361265 c -0.2968,-0.554576 -0.80163,-0.961707 -0.80163,-0.646487 0,0.204069 0.80473,1.160928 0.97636,1.160928 0.0553,0 -0.0233,-0.231494 -0.17473,-0.514431 z m -3.58329,-4.784062 c -0.61355,-1.186487 -0.73812,-0.834861 -0.1945,0.549055 0.26841,0.683303 0.49271,0.983655 0.5423,0.726163 0.0465,-0.241515 -0.11,-0.815363 -0.3478,-1.275218 z m -0.65793,0.670111 c 0,-0.322579 -2.02713,-5.151015 -2.65918,-6.333907 -1.17061,-2.190822 -1.37504,-1.668212 -0.27947,0.714425 0.56399,1.226552 1.11596,2.516046 1.2266,2.865542 0.44842,1.416436 1.1803,2.884405 1.43807,2.884405 0.15069,0 0.27398,-0.05871 0.27398,-0.130465 z m -1.44499,-1.126306 c -1.16815,-3.191182 -2.8521,-6.789967 -3.30944,-7.072621 -0.33307,-0.205846 -0.15627,0.263963 0.97156,2.581699 0.47985,0.986112 0.87246,1.832847 0.87246,1.881633 0,0.220805 1.60581,3.601477 1.71069,3.601477 0.0649,0 -0.0455,-0.446485 -0.24527,-0.992188 z m -0.97819,-0.529166 c -1.85903,-4.140907 -2.88993,-6.151563 -3.154,-6.151563 -0.16514,0 -0.23558,0.148828 -0.15652,0.33073 0.0791,0.181901 0.57425,1.34276 1.10044,2.579687 1.67323,3.933324 1.97165,4.497916 2.37743,4.497916 0.32929,0 0.30079,-0.214016 -0.16735,-1.25677 z m 4.01068,1.140094 c 0,-0.06417 -0.11906,-0.190262 -0.26458,-0.280199 -0.14552,-0.08994 -0.26458,-0.03743 -0.26458,0.116677 0,0.154109 0.11906,0.280198 0.26458,0.280198 0.14552,0 0.26458,-0.0525 0.26458,-0.116676 z m -5.83399,-2.651995 c -0.48192,-1.0966 -0.97376,-1.993818 -1.09299,-1.993818 -0.30867,0 -0.31203,-0.01053 0.71849,2.250808 0.51439,1.128758 1.00624,1.981309 1.09299,1.894558 0.0868,-0.08675 -0.23657,-1.054947 -0.71849,-2.151548 z m -1.88886,0.387432 c -0.30238,-0.727605 -0.70995,-1.322917 -0.90571,-1.322917 -0.2869,0 -0.29592,0.141104 -0.0465,0.727604 0.26954,0.633845 1.22735,1.918229 1.4305,1.918229 0.0393,0 -0.17589,-0.595312 -0.47827,-1.322916 z m 1.37027,0.727604 c -0.004,-0.495021 -1.22228,-3.017028 -1.55772,-3.22434 -0.41045,-0.25367 -0.3786,-0.106951 0.39782,1.832494 0.6302,1.57421 1.16635,2.217581 1.1599,1.391846 z m 4.79255,-0.276808 c -0.33959,-0.339589 -0.68396,-0.07713 -0.43255,0.329666 0.0974,0.157577 0.29828,0.211591 0.44642,0.120032 0.18071,-0.111686 0.17615,-0.259679 -0.0139,-0.449698 z m -0.29205,-0.951656 c 0,-0.129951 -0.17859,-0.304808 -0.39687,-0.388571 -0.4033,-0.15476 -0.54187,0.127079 -0.22049,0.448458 0.25286,0.252862 0.61736,0.217504 0.61736,-0.05989 z m -0.52917,-1.08664 c 0,-0.145521 -0.18562,-0.264584 -0.41249,-0.264584 -0.22686,0 -0.3389,0.119063 -0.24896,0.264584 0.0899,0.14552 0.27555,0.264583 0.41249,0.264583 0.13693,0 0.24896,-0.119063 0.24896,-0.264583 z m 1.05834,0 c 0,-0.145521 -0.11906,-0.264584 -0.26459,-0.264584 -0.14552,0 -0.26458,0.119063 -0.26458,0.264584 0,0.14552 0.11906,0.264583 0.26458,0.264583 0.14553,0 0.26459,-0.119063 0.26459,-0.264583 z m -1.5875,-1.190625 c -0.18116,-0.218282 -0.43013,-0.396875 -0.55326,-0.396875 -0.12314,0 -0.15535,0.178593 -0.0716,0.396875 0.0838,0.218281 0.33273,0.396875 0.55326,0.396875 0.32641,0 0.33972,-0.07379 0.0716,-0.396875 z m 1.32291,0.132291 c 0,-0.145521 -0.18562,-0.264583 -0.41249,-0.264583 -0.22686,0 -0.3389,0.119062 -0.24896,0.264583 0.0899,0.145521 0.27555,0.264584 0.41249,0.264584 0.13693,0 0.24896,-0.119063 0.24896,-0.264584 z m -6.51105,-0.641001 c -0.19954,-0.520011 -0.89728,-0.752349 -0.89728,-0.298785 0,0.331767 0.34776,0.598963 0.85159,0.654315 0.10458,0.01149 0.12514,-0.1485 0.0457,-0.35553 z m 0.95481,-0.152749 c -0.27966,-0.522536 -0.79375,-0.728175 -0.79375,-0.3175 0,0.278254 0.57466,0.846667 0.85597,0.846667 0.12154,0 0.0935,-0.238125 -0.0622,-0.529167 z m 3.96874,-0.236276 c 0,-0.129951 -0.17859,-0.304808 -0.39687,-0.388571 -0.4033,-0.15476 -0.54187,0.127079 -0.22049,0.448458 0.25287,0.252862 0.61736,0.217504 0.61736,-0.05989 z m 0.52387,-0.960743 c -0.18408,-0.221797 -0.40357,-0.334386 -0.48776,-0.250197 -0.0842,0.08419 0.0221,0.263838 0.23614,0.399218 0.56012,0.354228 0.6333,0.310883 0.25162,-0.149021 z m -1.05303,-0.125897 c 0,-0.145521 -0.18562,-0.264584 -0.41249,-0.264584 -0.22687,0 -0.33891,0.119063 -0.24897,0.264584 0.0899,0.145521 0.27556,0.264583 0.41249,0.264583 0.13693,0 0.24897,-0.119062 0.24897,-0.264583 z m 0.79375,-0.79375 c 0,-0.145521 -0.18562,-0.264584 -0.41249,-0.264584 -0.22687,0 -0.33891,0.119063 -0.24897,0.264584 0.0899,0.145521 0.27556,0.264583 0.41249,0.264583 0.13693,0 0.24897,-0.119062 0.24897,-0.264583 z m 0.88943,-0.396875 c -0.16103,-0.419623 -0.62485,-0.550556 -0.62485,-0.176389 0,0.2798 0.28921,0.573264 0.56496,0.573264 0.1167,0 0.14365,-0.178594 0.0599,-0.396875 z m -2.66259,-0.388208 c -0.0749,-0.286274 -0.30184,-0.65804 -0.50439,-0.826147 -0.44868,-0.372367 -0.46345,-0.210037 -0.0612,0.672739 0.36202,0.794556 0.76163,0.902937 0.56562,0.153408 z m -1.29929,-0.413799 c -0.24135,-0.368344 -0.49186,-0.616666 -0.5567,-0.551828 -0.18323,0.183225 0.4408,1.221543 0.73414,1.221543 0.14376,0 0.0639,-0.301372 -0.17744,-0.669715 z m 2.54328,0.0083 c -0.18116,-0.218281 -0.43012,-0.396875 -0.55326,-0.396875 -0.12313,0 -0.15535,0.178594 -0.0716,0.396875 0.0838,0.218281 0.33273,0.396875 0.55326,0.396875 0.32641,0 0.33972,-0.07379 0.0716,-0.396875 z m -27.58277,20.42338 c -1.12778,-0.14548 -2.05052,-0.36622 -2.05052,-0.49055 0,-0.27466 2.59254,0.007 4.23272,0.46051 1.41142,0.38992 0.68509,0.39991 -2.1822,0.03 z m -3.70311,-1.451859 c -0.25225,-0.303936 -0.0258,-0.338785 1.38526,-0.213228 2.26645,0.201662 2.67714,0.658466 0.55035,0.612138 -1.02451,-0.02232 -1.74657,-0.171126 -1.93561,-0.39891 z m 1.91718,-0.847606 c 0,-0.145521 0.12609,-0.264584 0.28019,-0.264584 0.15411,0 0.20662,0.119063 0.11668,0.264584 -0.0899,0.14552 -0.21603,0.264583 -0.2802,0.264583 -0.0642,0 -0.11667,-0.119063 -0.11667,-0.264583 z m -2.38125,-0.264584 c 0,-0.315947 0.71996,-0.315947 1.4552,0 0.42449,0.18241 0.3329,0.23107 -0.46302,0.245987 -0.5457,0.01023 -0.99218,-0.100466 -0.99218,-0.245987 z m -0.52917,-0.84814 c 0,-0.115606 0.65484,-0.210193 1.45521,-0.210193 0.80036,0 1.45521,0.109919 1.45521,0.244264 0,0.134345 -0.65485,0.228931 -1.45521,0.210192 -0.80037,-0.01874 -1.45521,-0.128657 -1.45521,-0.244263 z m -0.37974,-0.976219 c -0.255,-0.412592 0.55576,-0.533528 2.48979,-0.371386 2.64729,0.22194 2.58731,0.608245 -0.0944,0.608245 -1.23693,0 -2.31484,-0.106586 -2.39535,-0.236859 z m 18.99502,-0.0255 c -0.71651,-0.28915 -1.42063,-1.279959 -1.40661,-1.979329 0.009,-0.456739 0.12982,-0.398854 0.81218,0.389601 0.72661,0.839575 1.426,1.877344 1.23689,1.835312 -0.0415,-0.0092 -0.3306,-0.119737 -0.64246,-0.245584 z m 14.2375,-1.090474 c -0.6304,-0.711152 -1.02532,-1.293004 -0.87761,-1.293004 0.29638,0 2.29295,2.337292 2.12731,2.490348 -0.0569,0.05261 -0.61931,-0.486192 -1.2497,-1.197344 z m -5.30536,-1.060144 c -0.46507,-0.74814 -0.80936,-1.46893 -0.76508,-1.601756 0.0443,-0.132826 0.46906,0.435008 0.94398,1.261852 1.08958,1.896997 0.95178,2.158798 -0.1789,0.339904 z m -9.23221,-0.217941 c -0.46899,-0.42836 -0.85271,-0.987953 -0.85271,-1.243542 0,-0.510141 0.0716,-0.446186 1.15254,1.03019 0.87571,1.196014 0.81969,1.235875 -0.29983,0.213352 z m 9.9952,0.08965 c 0,-0.136518 -0.47288,-0.960034 -1.05085,-1.830035 -1.06173,-1.598189 -1.47664,-2.781036 -0.69075,-1.969246 0.55366,0.571912 2.08425,3.704844 1.90001,3.889086 -0.0871,0.08713 -0.15841,0.04671 -0.15841,-0.0898 z m 0.26413,-1.357155 c -0.36355,-0.688925 -1.05528,-1.827801 -1.53718,-2.530836 -0.4819,-0.703035 -0.83249,-1.409312 -0.7791,-1.569506 0.0534,-0.160193 0.57921,0.472667 1.16847,1.406357 1.3673,2.166493 2.27529,3.946576 2.01308,3.946576 -0.11234,0 -0.50172,-0.563666 -0.86527,-1.252591 z m -9.91213,0.303593 c -0.24665,-0.376428 -0.38013,-0.752729 -0.29664,-0.836225 0.2169,-0.2169 1.21339,0.739663 1.21339,1.164772 0,0.56782 -0.43052,0.413528 -0.91675,-0.328547 z m 10.15353,-1.762981 c -0.60792,-1.055026 -1.40936,-2.245651 -1.78096,-2.645833 -0.37161,-0.400183 -0.53212,-0.727604 -0.3567,-0.727604 0.31479,0 3.48421,4.599252 3.48421,5.056039 0,0.514708 -0.28726,0.155749 -1.34655,-1.682602 z m -9.42789,0.79375 c -0.37863,-0.489337 -0.61541,-1.256771 -0.38776,-1.256771 0.10905,0 0.3331,0.357188 0.49788,0.79375 0.32328,0.856456 0.29296,0.983949 -0.11012,0.463021 z m 11.51291,-1.050076 c -0.57269,-0.882813 -1.03759,-1.794195 -0.91523,-1.794195 0.19299,0 1.5419,2.162643 1.42305,2.281493 -0.064,0.06395 -0.29247,-0.155335 -0.50782,-0.487298 z m -10.57849,-0.731623 c -0.24603,-0.432391 -0.34443,-0.849757 -0.21867,-0.92748 0.28077,-0.173526 1.37846,1.313199 1.14324,1.548419 -0.29695,0.296948 -0.46746,0.182431 -0.92457,-0.620939 z m 0.3455,-1.591142 c -0.67109,-1.388991 -0.21146,-1.657185 0.48855,-0.285066 0.61224,1.200098 0.64209,1.342802 0.2809,1.342802 -0.14212,0 -0.48838,-0.475981 -0.76945,-1.057736 z m 0.52224,-1.064116 c -0.83199,-1.75241 -0.55127,-1.979491 0.33998,-0.275016 0.74975,1.433868 0.80176,1.603118 0.49268,1.603118 -0.11116,0 -0.48586,-0.597646 -0.83266,-1.328102 z m 0.58655,-0.722419 c -0.0919,-0.254661 -0.38579,-0.779057 -0.65315,-1.165323 -0.26736,-0.386266 -0.48611,-0.83275 -0.48611,-0.992187 0,-0.55961 0.41314,-0.281411 0.8465,0.57001 0.99703,1.95886 1.0302,2.050521 0.742,2.050521 -0.15521,0 -0.35736,-0.208359 -0.44924,-0.463021 z m -2.43149,-3.140438 c -0.0169,-0.162892 -0.50694,-0.894312 -1.08902,-1.625378 -1.07012,-1.344007 -1.22793,-1.65033 -0.85023,-1.65033 0.41015,0 2.20404,2.683981 2.08802,3.124049 -0.0649,0.246304 -0.13189,0.314551 -0.14877,0.151659 z m 0.76306,-0.629874 c -0.1691,-0.315969 -0.24793,-0.634019 -0.17517,-0.70678 0.0728,-0.07276 0.27065,0.126228 0.43975,0.442196 0.1691,0.315969 0.24793,0.634019 0.17517,0.70678 -0.0728,0.07276 -0.27065,-0.126228 -0.43975,-0.442196 z m -33.072914,0 c 0,-0.145521 0.119063,-0.264584 0.264584,-0.264584 0.14552,0 0.264583,-0.165855 0.264583,-0.368567 0,-0.503646 0.441617,-0.614998 1.918229,-0.483672 1.674866,0.148957 1.611197,0.560101 -0.0847,0.546965 -0.73781,-0.0057 -1.412497,0.06063 -1.499305,0.147442 -0.08681,0.08681 0.212171,0.157832 0.664399,0.157832 0.452228,0 0.895817,0.119063 0.985754,0.264584 0.100783,0.163071 -0.35003,0.264583 -1.17501,0.264583 -0.736193,0 -1.338532,-0.119062 -1.338532,-0.264583 z m 33.649434,-0.786291 c -0.61308,-0.829232 -0.69749,-1.066812 -0.37808,-1.06412 0.22722,0.0019 1.18923,1.609267 1.0478,1.750701 -0.0513,0.05126 -0.35264,-0.2577 -0.66972,-0.686581 z m 0.8957,0.0701 c -0.14359,-0.377083 -0.1132,-0.407474 0.14811,-0.148112 0.18082,0.179476 0.26212,0.39297 0.18065,0.474432 -0.0815,0.08146 -0.2294,-0.06538 -0.32876,-0.32632 z m -30.839617,-0.64849 c -0.6541,-0.119542 -1.388221,-0.154205 -1.631379,-0.07703 -0.243157,0.07718 -0.523635,0.0084 -0.623284,-0.152835 -0.104277,-0.168724 0.05473,-0.354846 0.374608,-0.438497 0.305684,-0.07994 0.555788,-0.305674 0.555788,-0.501635 0,-0.26808 0.361793,-0.330822 1.461279,-0.253414 1.971483,0.1388 3.036638,0.392513 3.036638,0.723306 0,0.1602 -0.247784,0.201365 -0.595313,0.0989 -1.263486,-0.372514 -3.63802,-0.494916 -3.63802,-0.187532 0,0.180151 0.472529,0.301331 1.175009,0.301331 0.646256,0 1.243511,0.110836 1.327233,0.246301 0.247694,0.400779 -0.178806,0.472061 -1.442559,0.241102 z m 31.304337,-0.156673 c -0.0897,-0.254662 -0.45191,-0.853498 -0.80488,-1.330748 -0.35297,-0.47725 -0.59676,-1.002766 -0.54174,-1.167812 0.055,-0.165047 0.3459,0.116647 0.64642,0.625988 0.30052,0.50934 0.7542,1.243215 1.00818,1.630832 0.28678,0.43769 0.34683,0.70476 0.15845,0.70476 -0.16682,0 -0.37671,-0.208359 -0.46643,-0.46302 z m -1.26619,-0.485978 c -0.24665,-0.376428 -0.38818,-0.74468 -0.31453,-0.818337 0.0737,-0.07366 0.32436,0.234328 0.55711,0.684414 0.51449,0.994916 0.37281,1.073133 -0.24258,0.133923 z m 1.06886,-1.309344 c -1.2696,-2.09119 -1.54854,-2.744012 -0.71783,-1.679943 0.63967,0.819372 2.24488,3.673702 2.066,3.673702 -0.0757,0 -0.68243,-0.897192 -1.34817,-1.993759 z m 14.92246,0.815249 c -0.66303,-0.360796 -3.36481,-1.250645 -4.88811,-1.609934 -0.43657,-0.102968 -0.6684,-0.234165 -0.51518,-0.291547 0.15321,-0.05738 1.22477,0.14164 2.38125,0.442274 2.85565,0.742347 2.856,0.742432 3.19784,0.76539 0.16578,0.01113 0.5825,0.254408 0.92605,0.540608 0.58614,0.488307 0.59202,0.520254 0.0955,0.518573 -0.29105,-9.85e-4 -0.82983,-0.165398 -1.19731,-0.365364 z m -34.91832,-0.422743 c -0.65484,-0.267216 -1.77998,-0.4925 -2.50031,-0.500631 -2.147006,-0.02423 -1.03367,-0.578872 1.34615,-0.67062 1.14411,-0.04411 2.58897,-0.217575 3.21079,-0.38548 0.62182,-0.167906 1.26021,-0.225169 1.41864,-0.127252 0.15843,0.09792 0.36405,0.05591 0.45692,-0.09336 0.0929,-0.149265 0.46651,-0.309407 0.83031,-0.355871 0.79746,-0.10185 5.02709,1.067633 5.02709,1.389981 0,0.323992 -0.47251,0.280125 -1.98438,-0.184226 -0.7276,-0.223475 -1.79917,-0.464321 -2.38125,-0.535215 l -1.05833,-0.128897 1.25677,0.57181 c 1.31677,0.599106 1.67842,1.134652 0.66146,0.979489 -0.32743,-0.04996 -0.56555,-0.236831 -0.52917,-0.415277 0.0414,-0.203001 -0.25573,-0.325 -0.79375,-0.325923 -0.47294,-8.12e-4 -1.31754,-0.128554 -1.87689,-0.283871 -0.55935,-0.155317 -1.06519,-0.234207 -1.12408,-0.175312 -0.11233,0.112323 0.74461,0.568435 1.56253,0.831673 0.26389,0.08493 0.41286,0.26271 0.33106,0.395071 -0.1316,0.212928 -0.96225,0.03407 -2.92752,-0.630377 -0.5101,-0.172462 -0.51148,-0.164435 -0.0385,0.222799 0.85016,0.69603 0.35802,0.929748 -0.88753,0.421489 z m 37.12324,0.02936 c -0.7555,-0.271959 -1.47448,-0.5568 -1.59775,-0.632982 -0.12326,-0.07618 -1.41013,-0.434529 -2.8597,-0.796329 -4.08601,-1.019831 -4.16226,-1.032657 -3.93289,-0.661532 0.11122,0.179973 -0.17646,0.05757 -0.63929,-0.271995 -0.98885,-0.704123 -1.07562,-0.908935 -0.24622,-0.581162 0.32743,0.129394 1.54782,0.432486 2.71198,0.673538 3.66913,0.759729 5.50354,1.271398 7.27604,2.029497 1.93109,0.825923 1.4062,1.00352 -0.71217,0.240965 z m 3.95555,0.241556 c -0.3262,-0.131154 -0.86198,-0.277834 -1.19063,-0.325954 -0.32864,-0.04812 -0.83566,-0.218325 -1.1267,-0.378232 -0.49072,-0.269612 -5.06549,-1.651176 -6.87917,-2.077481 -0.43656,-0.102614 -0.67193,-0.232342 -0.52304,-0.288284 0.14889,-0.05594 1.39905,0.205646 2.77813,0.581307 1.37907,0.375661 3.40038,0.921146 4.49178,1.212188 2.22564,0.593504 4.41488,1.52421 3.57188,1.518502 -0.29104,-0.002 -0.79606,-0.110891 -1.12225,-0.242046 z M 24.473958,44.904055 c -0.436562,-0.111086 -1.544917,-0.216062 -2.46301,-0.233279 -1.038358,-0.01947 -1.607457,-0.131304 -1.50574,-0.295888 0.08994,-0.14552 0.424386,-0.266406 0.743219,-0.268634 0.426062,-0.003 0.484559,-0.06433 0.220721,-0.231511 -0.466277,-0.295447 -0.173423,-0.453236 1.285019,-0.692362 0.654843,-0.107368 1.274489,-0.327699 1.376991,-0.489624 0.108204,-0.170934 1.157113,-0.320728 2.500959,-0.357161 2.044197,-0.05542 4.400597,-0.57723 5.250177,-1.162615 0.14552,-0.100269 1.39567,-0.570231 2.77812,-1.04436 1.38245,-0.474129 2.60102,-0.992602 2.70793,-1.152163 0.10691,-0.159561 0.19621,-0.659148 0.19844,-1.110192 0.002,-0.481271 0.3399,-1.301101 0.81697,-1.984375 0.44711,-0.640362 1.04549,-1.536521 1.32975,-1.991465 0.3857,-0.617324 0.77553,-0.868542 1.53661,-0.990244 1.4707,-0.235175 1.96856,-0.777057 3.4351,-3.738835 0.72055,-1.455208 1.79716,-3.225952 2.39247,-3.934986 0.59531,-0.709034 1.27378,-1.692485 1.5077,-2.185446 0.56327,-1.187001 2.29815,-2.531524 3.42702,-2.655924 0.51056,-0.05626 1.27128,0.08902 1.74275,0.332827 0.56469,0.292013 1.21885,0.389599 2.01221,0.300176 1.39028,-0.156705 3.05102,0.237281 2.89096,0.685837 -0.11842,0.331884 0.77263,2.298141 1.04145,2.298141 0.0868,0 0.0955,-0.238006 0.0195,-0.528903 -0.2086,-0.797667 0.22605,-0.876842 0.71521,-0.130283 0.25603,0.390758 0.68329,0.659186 1.04923,0.659186 0.33952,0 1.18213,0.431275 1.87247,0.958389 l 1.25517,0.958389 -0.17194,2.679632 c -0.0946,1.473798 -0.27205,3.274944 -0.39442,4.002548 -0.12237,0.727605 -0.12096,1.361102 0.003,1.407773 0.50881,0.191363 1.41882,2.079056 1.46854,3.046278 0.071,1.380538 0.46404,1.696141 2.34899,1.885969 0.87312,0.08793 1.94468,0.266654 2.38125,0.397162 0.43656,0.130509 1.29868,0.315425 1.91583,0.410925 1.35238,0.209274 3.21611,1.071506 3.41038,1.577769 0.0774,0.20157 0.8156,0.563121 1.64055,0.803448 0.82494,0.240328 1.79756,0.613905 2.16136,0.830173 0.3638,0.216268 0.98888,0.530036 1.38906,0.697261 0.40019,0.167226 0.72761,0.380301 0.72761,0.473501 0,0.342865 -2.02306,0.0063 -3.30729,-0.550296 -3.07385,-1.332115 -11.80601,-3.639279 -14.53196,-3.839558 -1.59155,-0.116933 -1.79561,0.234948 -0.28471,0.490957 1.88743,0.319809 3.69067,0.742632 7.54063,1.768117 2.25557,0.600801 4.39869,1.152935 4.7625,1.226964 1.45047,0.295153 3.96875,1.204855 3.96875,1.43367 0,0.456193 -1.28479,0.243768 -3.48768,-0.576649 -3.12464,-1.163698 -5.93529,-1.990075 -9.74149,-2.864153 -4.41798,-1.014571 -5.02708,-1.11241 -5.02708,-0.807488 0,0.141883 0.25259,0.257969 0.56132,0.257969 1.60982,0 14.45235,3.613724 15.16815,4.268124 0.42162,0.385452 -0.59133,0.262132 -1.64891,-0.200743 -0.98126,-0.429473 -3.24008,-1.140644 -5.74619,-1.809141 -0.7276,-0.194086 -2.03729,-0.548156 -2.91042,-0.786823 -2.5741,-0.703624 -4.8637,-1.14973 -5.03283,-0.980598 -0.0866,0.08664 0.23639,0.308173 0.71786,0.492286 l 0.87539,0.334751 -1.19062,-0.147242 c -2.36475,-0.292443 -2.91042,-0.441286 -2.91042,-0.793876 0,-0.196966 -0.23813,-0.485561 -0.52917,-0.641321 -0.29847,-0.159736 -0.52916,-0.176136 -0.52916,-0.03762 0,0.135072 0.17859,0.314118 0.39687,0.39788 0.21828,0.08376 0.39688,0.316861 0.39688,0.517996 0,0.29448 -0.17463,0.311045 -0.89665,0.08506 -0.74094,-0.231911 -1.04579,-0.581124 -1.75559,-2.011043 -1.9378,-3.903806 -1.98729,-4.562506 -0.0849,-1.130358 1.39666,2.519782 1.49846,2.11498 0.16725,-0.665068 -0.54033,-1.128401 -1.03203,-2.157509 -1.09266,-2.286905 -0.0606,-0.129397 0.0364,-0.14464 0.21562,-0.03387 0.17922,0.110766 0.80427,1.228667 1.389,2.484224 0.58472,1.255557 1.11733,2.136912 1.18356,1.958566 0.0662,-0.178346 -0.41675,-1.458268 -1.0733,-2.844271 -0.65656,-1.386003 -1.112,-2.518766 -1.01209,-2.517253 0.0999,0.0015 0.8094,1.292086 1.57664,2.867938 1.5317,3.146014 2.04339,3.965595 2.3096,3.69938 0.0968,-0.09678 -0.0498,-0.401696 -0.32563,-0.677579 -0.27588,-0.275883 -0.45843,-0.631135 -0.40566,-0.78945 0.0528,-0.158314 -0.32674,-1.11725 -0.84336,-2.130969 -0.51662,-1.013719 -0.9393,-1.963497 -0.9393,-2.110619 0,-0.147121 -0.1786,-0.415712 -0.39688,-0.59687 -0.21828,-0.181157 -0.39687,-0.50797 -0.39687,-0.726252 0,-0.718046 0.69209,0.119151 1.20177,1.453739 0.59392,1.555138 1.42078,2.97668 1.73144,2.97668 0.2578,0 -0.73365,-2.368815 -1.76098,-4.207423 -0.35794,-0.640592 -0.61584,-1.199665 -0.57312,-1.242384 0.27044,-0.27044 0.84953,0.619596 1.73858,2.672131 1.09541,2.528947 1.936,3.449441 1.07091,1.1727 -1.14894,-3.023755 -1.97922,-4.207727 -2.96448,-4.22732 -0.4054,-0.0081 -0.86451,-0.459422 -1.54746,-1.521354 -1.61321,-2.508386 -2.13756,-3.494266 -1.85847,-3.494266 0.146,0 0.63084,0.625078 1.07741,1.389062 0.99817,1.707645 2.33831,3.2723 2.58848,3.022135 0.10223,-0.102235 -0.21633,-0.749625 -0.70792,-1.438644 -2.5973,-3.640389 -3.07677,-4.560053 -2.37741,-4.560053 0.14552,0 0.26458,0.110529 0.26458,0.24562 0,0.717 3.5893,6.042859 3.87796,5.754191 0.063,-0.06303 -0.79561,-1.551931 -1.9081,-3.308659 -1.11249,-1.756729 -1.97694,-3.33138 -1.92099,-3.499225 0.0559,-0.167846 0.4408,0.317822 0.85523,1.079262 0.92132,1.69277 2.70655,4.402285 3.03382,4.604548 0.13198,0.08157 0.30528,-0.02191 0.38512,-0.229955 0.0798,-0.208043 0.0556,-0.415719 -0.0538,-0.461501 -0.59216,-0.247722 -4.53101,-7.094698 -4.08136,-7.094698 0.12972,0 0.5037,0.551288 0.83105,1.225083 0.78218,1.609943 2.84546,4.80261 3.69675,5.720229 0.73511,0.792387 1.25158,0.961593 1.00949,0.33073 -0.0838,-0.218282 -0.037,-0.396875 0.10399,-0.396875 0.34643,0 0.32655,-0.719093 -0.0259,-0.936921 -0.1552,-0.09592 -0.36012,-0.09647 -0.45536,-0.0012 -0.0952,0.09524 -0.0151,0.270878 0.17814,0.390296 0.24783,0.153163 0.26446,0.270807 0.0565,0.399358 -0.275,0.169959 -1.08455,-0.405923 -1.08455,-0.771505 0,-0.09023 -0.46281,-0.860825 -1.02847,-1.71244 -0.56566,-0.851615 -1.48839,-2.392845 -2.05052,-3.424955 -0.60468,-1.110245 -1.19439,-1.877287 -1.44406,-1.878334 -0.23211,-9.74e-4 -0.63752,-0.239895 -0.90091,-0.530937 -1.10722,-1.223471 -3.46313,-0.09264 -4.25692,2.043321 -0.25836,0.695184 -0.92758,1.7709 -1.48717,2.39048 -0.55958,0.61958 -1.13256,1.393486 -1.27328,1.719792 -0.14072,0.326305 -0.82953,1.664844 -1.53069,2.974532 -1.0821,2.021245 -1.43232,2.452305 -2.31651,2.851243 -0.57292,0.258497 -1.22027,0.567741 -1.43855,0.68721 -0.77756,0.42557 -2.61219,3.092237 -2.778,4.037868 -0.0927,0.528956 -0.40386,1.214218 -0.69135,1.522805 -0.64567,0.693044 -2.66817,1.735647 -4.0757,2.101038 -0.57965,0.150473 -1.55852,0.404877 -2.17527,0.565341 -0.62228,0.161904 -1.0933,0.434783 -1.05833,0.613123 0.0464,0.236376 -0.60175,0.309874 -2.450515,0.277899 -2.237869,-0.0387 -2.38296,-0.01438 -1.322917,0.221816 2.385812,0.531592 1.786282,0.779509 -1.455208,0.60176 -1.74625,-0.09576 -3.096929,-0.09348 -3.00151,0.0051 0.09542,0.09854 0.57167,0.23222 1.058334,0.297059 2.055594,0.273867 2.604635,0.410789 2.604635,0.649551 0,0.283776 -0.302671,0.281282 -1.455209,-0.01199 z m 50.932286,-3.138781 c 0,-0.438443 -6.68447,-2.139841 -8.44462,-2.14941 -1.14265,-0.0062 -0.43887,0.238519 2.24291,0.779941 3.52522,0.711704 5.6618,1.234314 5.86113,1.433642 0.22682,0.22682 0.34058,0.205384 0.34058,-0.06417 z m -14.5211,-1.425281 c -0.69312,-1.351062 -0.84463,-1.540284 -1.10466,-1.379581 -0.26479,0.163653 0.39546,1.375913 1.03959,1.908747 0.55818,0.461738 0.56113,0.437781 0.0651,-0.529166 z m 0.76277,-0.951181 c 0,-0.326335 -1.0352,-1.210667 -1.21119,-1.034675 -0.0823,0.08229 0.064,0.399058 0.325,0.703933 0.49075,0.573155 0.88619,0.720739 0.88619,0.330742 z m 1.5928,-0.696071 c -0.18407,-0.221798 -0.45762,-0.403269 -0.60787,-0.403269 -0.15026,0 -0.057,0.238855 0.20716,0.530789 0.54718,0.604622 0.91199,0.488528 0.40071,-0.12752 z m -0.93134,0.125898 c -0.0899,-0.145521 -0.28259,-0.264584 -0.42811,-0.264584 -0.14552,0 -0.191,0.119063 -0.10106,0.264584 0.0899,0.14552 0.28258,0.264583 0.4281,0.264583 0.14553,0 0.191,-0.119063 0.10107,-0.264583 z m 1.81547,-0.132292 c -0.16103,-0.419623 -0.62485,-0.550556 -0.62485,-0.176389 0,0.279801 0.28921,0.573264 0.56496,0.573264 0.1167,0 0.14365,-0.178594 0.0599,-0.396875 z m -1.61162,-1.224898 c -0.15952,-0.15952 -0.44134,-0.196528 -0.62626,-0.08224 -0.24836,0.153497 -0.20253,0.256329 0.17539,0.393525 0.62641,0.227409 0.84124,0.07909 0.45087,-0.311285 z m 0.98677,0.03427 c 0,-0.145521 -0.12609,-0.264583 -0.2802,-0.264583 -0.15411,0 -0.20661,0.119062 -0.11667,0.264583 0.0899,0.145521 0.21602,0.264583 0.28019,0.264583 0.0642,0 0.11668,-0.119062 0.11668,-0.264583 z m 1.05833,0 c 0,-0.145521 -0.12608,-0.264583 -0.28019,-0.264583 -0.15411,0 -0.20662,0.119062 -0.11668,0.264583 0.0899,0.145521 0.21603,0.264583 0.2802,0.264583 0.0642,0 0.11667,-0.119062 0.11667,-0.264583 z m -3.4408,-0.06615 c -0.006,-0.335795 -1.33514,-3.222205 -1.59325,-3.460534 -0.36875,-0.340484 -0.37805,-0.373716 0.59856,2.137618 0.2971,0.763984 0.64272,1.389062 0.76805,1.389062 0.12532,0 0.22731,-0.02977 0.22664,-0.06615 z m 0.24124,-1.975525 c -0.54699,-1.276074 -1.03238,-2.016653 -1.20719,-1.841845 -0.17823,0.178228 1.21979,3.089773 1.4836,3.089773 0.14218,0 0.0178,-0.561567 -0.27641,-1.247928 z m 1.30338,1.048252 c -0.0485,-0.109822 -0.31273,-0.764666 -0.58716,-1.455209 -0.49032,-1.233782 -1.16577,-1.803361 -0.81027,-0.683266 0.42494,1.338851 0.93889,2.338151 1.20255,2.338151 0.15569,0 0.24339,-0.08985 0.19488,-0.199676 z m 0.57228,-0.66022 c -10e-4,-0.417681 -1.04576,-2.150305 -1.20207,-1.99399 -0.13217,0.132175 0.88354,2.324719 1.07694,2.324719 0.0694,0 0.12567,-0.148828 0.12513,-0.330729 z m 0.82343,-0.132291 c -0.13997,-0.254662 -0.4445,-0.701146 -0.67672,-0.992188 -0.33987,-0.425955 -0.33075,-0.336914 0.0468,0.456511 0.25794,0.542123 0.56246,0.988607 0.67672,0.992188 0.11427,0.0036 0.0932,-0.20185 -0.0468,-0.456511 z m -1.91334,-3.339247 c -0.35081,-0.769944 -0.84124,-0.966813 -0.57952,-0.232628 0.20949,0.587635 0.6555,1.169255 0.79199,1.032772 0.0575,-0.05747 -0.0381,-0.417537 -0.21247,-0.800144 z m -2.0841,0.362684 c 0,-0.145521 -0.23813,-0.264583 -0.52917,-0.264583 -0.29104,0 -0.52916,0.119062 -0.52916,0.264583 0,0.145521 0.23812,0.264583 0.52916,0.264583 0.29104,0 0.52917,-0.119062 0.52917,-0.264583 z m 1.32291,0.147907 c 0,-0.06417 -0.11906,-0.190262 -0.26458,-0.280199 -0.14552,-0.08994 -0.26458,-0.03743 -0.26458,0.116677 0,0.154109 0.11906,0.280198 0.26458,0.280198 0.14552,0 0.26458,-0.0525 0.26458,-0.116676 z m 1.29823,-1.427919 c -0.16041,-0.46016 -0.44887,-0.836654 -0.64101,-0.836654 -0.19214,0 -0.53768,-0.07227 -0.76787,-0.1606 -0.77627,-0.297882 -0.42605,0.35786 0.36644,0.686122 0.43172,0.178825 0.85931,0.55943 0.9502,0.845788 0.0909,0.286358 0.21444,0.471454 0.27457,0.411324 0.0601,-0.06013 -0.0219,-0.48582 -0.18233,-0.94598 z m -2.88573,0.105002 c 0,-0.06417 -0.11906,-0.190261 -0.26458,-0.280198 -0.14552,-0.08994 -0.26458,-0.03743 -0.26458,0.116677 0,0.154109 0.11906,0.280198 0.26458,0.280198 0.14552,0 0.26458,-0.05251 0.26458,-0.116677 z m 1.05834,0 c 0,-0.06417 -0.11906,-0.190261 -0.26459,-0.280198 -0.14552,-0.08994 -0.26458,-0.03743 -0.26458,0.116677 0,0.154109 0.11906,0.280198 0.26458,0.280198 0.14553,0 0.26459,-0.05251 0.26459,-0.116677 z m 1.94776,-1.603115 c -0.0838,-0.218281 -0.25488,-0.396875 -0.38027,-0.396875 -0.12538,0 -0.15943,0.178594 -0.0757,0.396875 0.0838,0.218281 0.25489,0.396875 0.38027,0.396875 0.12539,0 0.15944,-0.178594 0.0757,-0.396875 z m -0.88943,-0.38126 c 0,-0.312171 -0.51603,-0.646111 -0.70555,-0.456587 -0.18953,0.189524 0.14441,0.705556 0.45658,0.705556 0.13694,0 0.24897,-0.112036 0.24897,-0.248969 z m 0.3748,-1.16837 c -0.17011,-0.443288 -0.63938,-0.607016 -0.63938,-0.223078 0,0.257404 0.59027,0.873755 0.71619,0.747834 0.0495,-0.04951 0.0149,-0.285647 -0.0768,-0.524756 z m 1.2127,0.506912 c 0,-0.06417 -0.11906,-0.190262 -0.26458,-0.280198 -0.14552,-0.08994 -0.26459,-0.03743 -0.26459,0.116676 0,0.154109 0.11907,0.280199 0.26459,0.280199 0.14552,0 0.26458,-0.0525 0.26458,-0.116677 z m -2.65114,-1.080342 c -0.18407,-0.221798 -0.38917,-0.348782 -0.45576,-0.282187 -0.18349,0.183488 0.18932,0.685456 0.50908,0.685456 0.17544,0 0.15537,-0.151814 -0.0533,-0.403269 z m -1.6632,-0.482027 c -0.20748,-0.167931 -1.04767,-1.458928 -1.86707,-2.868883 -1.28932,-2.218537 -2.02067,-3.219176 -2.02067,-2.764678 0,0.229413 2.97051,5.317572 3.37734,5.785013 0.21865,0.25123 0.50782,0.388628 0.6426,0.305329 0.13478,-0.0833 0.0753,-0.28885 -0.1322,-0.456781 z m 2.57247,-0.532043 c -0.17011,-0.443288 -0.63938,-0.607016 -0.63938,-0.223078 0,0.257404 0.59027,0.873755 0.71619,0.747835 0.0495,-0.04951 0.0149,-0.285648 -0.0768,-0.524757 z m 0.73205,0.0371 c -0.18986,-0.189856 -0.3131,-0.205477 -0.3131,-0.03969 0,0.353161 0.3129,0.66606 0.48948,0.489479 0.0752,-0.07519 -0.004,-0.277592 -0.17638,-0.449791 z m -3.13701,-0.956373 c -0.41138,-0.412014 -1.14629,-1.543107 -1.63314,-2.513542 -0.4954,-0.987477 -1.05831,-1.764426 -1.27835,-1.764426 -0.313,0 -0.27303,0.202323 0.19598,0.992188 1.82982,3.081586 2.53102,4.030432 2.98009,4.032581 0.40521,0.0019 0.36243,-0.11882 -0.26458,-0.746801 z m 3.70897,0.07625 c -0.0862,-0.224557 -0.21342,-0.351541 -0.28278,-0.282186 -0.0694,0.06936 -0.0476,0.253083 0.0483,0.408286 0.2609,0.422132 0.41338,0.340125 0.23448,-0.1261 z m -0.88506,-0.369849 c 0,-0.136932 -0.11906,-0.322553 -0.26458,-0.41249 -0.14552,-0.08994 -0.26458,0.0221 -0.26458,0.248969 0,0.226869 0.11906,0.41249 0.26458,0.41249 0.14552,0 0.26458,-0.112036 0.26458,-0.248969 z m -1.32291,-0.280198 c 0,-0.145521 -0.12609,-0.264583 -0.2802,-0.264583 -0.15411,0 -0.20661,0.119062 -0.11668,0.264583 0.0899,0.145521 0.21603,0.264583 0.2802,0.264583 0.0642,0 0.11668,-0.119062 0.11668,-0.264583 z m -2.0289,-1.71283 c -0.82906,-1.56131 -1.41068,-2.317442 -1.41068,-1.83394 0,0.367719 1.88146,3.54677 2.09908,3.54677 0.12161,0 -0.18817,-0.770773 -0.6884,-1.71283 z m -18.39149,19.212691 c -2.45674,-0.525053 -2.87525,-0.833144 -1.1211,-0.825309 1.15929,0.0052 3.54982,0.794348 3.54982,1.171878 0,0.177174 0.0659,0.186577 -2.42872,-0.346569 z m 17.70841,-0.453288 c -0.40018,-0.217102 -0.7276,-0.509992 -0.7276,-0.650865 0,-0.357733 0.05,-0.338567 1.05833,0.405325 0.98787,0.728831 0.80727,0.862915 -0.33073,0.24554 z m -14.43155,-1.713342 c -0.33388,-0.133999 -0.78734,-0.675102 -1.00768,-1.202451 -0.46786,-1.119729 -0.31058,-1.526241 0.20775,-0.536976 0.1948,0.371806 0.76303,0.977644 1.26273,1.346308 0.90638,0.668707 0.68739,0.854726 -0.4628,0.393119 z m 10.5576,-1.054419 c -0.18846,-0.629029 -0.52382,-1.420187 -0.74525,-1.758129 -0.22649,-0.345672 -0.28187,-0.614441 -0.12659,-0.614441 0.30761,0 1.44296,2.830883 1.30334,3.249751 -0.0489,0.146579 -0.24303,-0.248152 -0.4315,-0.877181 z m 0.66692,-0.934842 c -1.07794,-2.269825 -1.12459,-2.43274 -0.56328,-1.966895 0.21828,0.181157 0.39687,0.44149 0.39687,0.578517 0,0.137027 0.30278,0.911078 0.67284,1.720113 0.37006,0.809035 0.62354,1.520273 0.56328,1.580528 -0.0602,0.06025 -0.54162,-0.800263 -1.06971,-1.912263 z m -11.22022,0.03903 c -0.96274,-0.869775 -1.34364,-1.834633 -0.84575,-2.142348 0.13069,-0.08077 0.47697,0.322354 0.76954,0.895822 0.29256,0.573467 0.84896,1.292048 1.23645,1.596845 0.50993,0.40111 0.58525,0.554177 0.27272,0.554177 -0.23748,0 -0.88232,-0.407023 -1.43296,-0.904496 z m 0.98871,-1.124336 c -0.6736,-0.408718 -1.84115,-1.972109 -1.84115,-2.465374 0,-0.500086 0.54094,-0.271704 0.77456,0.327018 0.12776,0.327422 0.61802,0.985156 1.08946,1.461631 0.97187,0.982247 0.962,1.274308 -0.0229,0.676725 z m -0.87872,-2.889126 c -0.57233,-0.717294 -0.68276,-1.023795 -0.452,-1.254551 0.35125,-0.351251 0.80153,0.16784 0.80844,0.931985 0.002,0.24641 0.26867,0.633363 0.59209,0.859896 0.38955,0.27285 0.45653,0.411875 0.19843,0.41187 -0.21428,-4e-6 -0.73041,-0.427144 -1.14696,-0.9492 z m 9.28651,-0.175271 c -0.42854,-0.325427 -0.98852,-1.528875 -0.98852,-2.124442 0,-0.41014 0.56484,0.223718 1.3037,1.462983 0.59968,1.005833 0.4771,1.263088 -0.31518,0.661459 z m -0.54301,-2.462548 c -0.26429,-0.362988 -0.4359,-0.924793 -0.38136,-1.248456 0.0924,-0.548053 0.12433,-0.533952 0.46554,0.20527 0.20151,0.436563 0.5404,1.00211 0.7531,1.256771 0.32594,0.39025 0.3283,0.461714 0.015,0.454707 -0.20445,-0.0046 -0.58797,-0.305305 -0.85226,-0.668292 z m 0.3771,-1.399525 c -0.30691,-0.431025 -0.55659,-1.003427 -0.55484,-1.272004 0.002,-0.298946 0.26087,-0.03754 0.66765,0.674062 0.77338,1.352917 0.70036,1.739933 -0.11281,0.597942 z m 0.31891,-1.297306 c -0.0906,-0.254662 -0.22435,-0.570714 -0.29716,-0.702339 -0.0728,-0.131625 -0.009,-0.163246 0.14115,-0.07027 0.27563,0.170343 0.65205,1.235629 0.43662,1.235629 -0.0637,0 -0.18998,-0.20836 -0.28061,-0.46302 z"
       id="path2" />
  </g>
</svg>
