<?xml version="1.0" encoding="UTF-8" standalone="no"?>
<!-- Created with Inkscape (http://www.inkscape.org/) -->

<svg
   width="137.0006mm"
   height="39.797356mm"
   viewBox="0 0 137.0006 39.797356"
   version="1.1"
   id="svg1"
   inkscape:version="1.4.2 (2aeb623e1d, 2025-05-12)"
   sodipodi:docname="mountains2.svg"
   xmlns:inkscape="http://www.inkscape.org/namespaces/inkscape"
   xmlns:sodipodi="http://sodipodi.sourceforge.net/DTD/sodipodi-0.dtd"
   xmlns="http://www.w3.org/2000/svg"
   xmlns:svg="http://www.w3.org/2000/svg">
  <sodipodi:namedview
     id="namedview1"
     pagecolor="#ffffff"
     bordercolor="#000000"
     borderopacity="0.25"
     inkscape:showpageshadow="2"
     inkscape:pageopacity="0.0"
     inkscape:pagecheckerboard="0"
     inkscape:deskcolor="#d1d1d1"
     inkscape:document-units="mm"
     inkscape:zoom="0.7349537"
     inkscape:cx="314.30551"
     inkscape:cy="487.78583"
     inkscape:window-width="1854"
     inkscape:window-height="1011"
     inkscape:window-x="0"
     inkscape:window-y="0"
     inkscape:window-maximized="1"
     inkscape:current-layer="layer1" />
  <defs
     id="defs1" />
  <g
     inkscape:label="Layer 1"
     inkscape:groupmode="layer"
     id="layer1"
     transform="translate(-21.790421,-19.609583)">
    <path
       style="fill:#000000"
       d="m 26.42799,59.010703 c -0.72761,-0.20426 -2.0367,-0.44107 -2.9091,-0.52625 -1.73161,-0.16907 -2.02338,-0.29223 -1.48322,-0.62607 0.51322,-0.31719 5.84753,0.90594 5.84753,1.3408 0,0.12661 -0.0298,0.21956 -0.0661,0.20654 -0.0364,-0.013 -0.66146,-0.19077 -1.38907,-0.39502 z m 5.42396,-0.60402 c -0.94589,-0.40652 -2.46126,-0.89421 -3.36749,-1.08373 -0.90623,-0.18953 -1.59516,-0.42961 -1.53094,-0.53352 0.25676,-0.41544 7.01509,1.77361 7.01509,2.27221 0,0.20378 -0.42352,0.0727 -2.11666,-0.65496 z m 2.60996,-0.13697 c -0.67458,-0.32382 -2.16286,-0.80627 -3.3073,-1.07212 -2.76752,-0.64289 -3.00458,-0.72967 -2.39079,-0.87525 0.26606,-0.0631 1.45669,0.14737 2.64583,0.46774 2.33495,0.62905 5.67216,2.06343 4.80792,2.06651 -0.29104,0.001 -1.08109,-0.26306 -1.75566,-0.58688 z m -7.21651,-0.18134 c -2.44212,-0.52606 -2.75271,-0.64834 -2.44031,-0.96074 0.26104,-0.26104 2.82486,0.31414 4.1851,0.9389 1.42378,0.65395 1.20253,0.65672 -1.74479,0.0218 z m 9.63363,-0.27858 c -0.50932,-0.13692 -1.34276,-0.41532 -1.85208,-0.61867 -0.50933,-0.20335 -1.78925,-0.56966 -2.84427,-0.81403 -1.05503,-0.24436 -1.91823,-0.56442 -1.91823,-0.71123 0,-0.15539 0.24878,-0.18945 0.59531,-0.0815 0.32742,0.102 1.54781,0.40074 2.71198,0.66386 2.03561,0.46009 4.63021,1.42198 4.63021,1.71655 0,0.17606 -0.16223,0.15705 -1.32292,-0.15498 z m 1.98625,-0.49404 c -0.0927,-0.14999 0.0135,-0.19434 0.24897,-0.10399 0.45837,0.17589 0.54223,0.36554 0.16165,0.36554 -0.13694,0 -0.32171,-0.1177 -0.41062,-0.26155 z m -1.42403,-0.56676 c -0.34562,-0.1306 -1.71484,-0.49888 -3.04271,-0.81841 -1.32786,-0.31952 -2.20869,-0.6237 -1.95738,-0.67596 0.51311,-0.10671 4.92226,0.90963 5.50281,1.26843 0.55863,0.34525 0.21808,0.49832 -0.50272,0.22594 z m 1.68674,-0.45728 c -1.3095,-0.59419 -4.63572,-1.36024 -5.90621,-1.36024 -0.58751,0 -0.85117,-0.0934 -0.69514,-0.24617 0.61452,-0.60186 8.05183,1.15215 8.05557,1.89981 10e-4,0.2952 -0.28395,0.23761 -1.45422,-0.2934 z m 1.5875,-1.00382 c -0.94806,-0.35836 -4.51223,-1.11734 -5.35781,-1.14094 -0.74655,-0.0208 -0.26459,-0.44756 0.52916,-0.46852 0.47295,-0.0125 1.27662,-0.0879 1.78594,-0.16758 0.50932,-0.0797 0.68792,-0.0787 0.39688,0.002 -0.90439,0.25118 -1.08925,0.62478 -0.30916,0.62478 0.80857,0 3.87546,0.96635 4.26468,1.34376 0.35292,0.34223 -0.0495,0.28274 -1.30969,-0.19359 z m 2.91042,-0.23105 c -0.14553,-0.0536 -1.13412,-0.35536 -2.19687,-0.67061 -1.06276,-0.31525 -1.88037,-0.6251 -1.8169,-0.68857 0.26274,-0.26274 3.53667,0.51026 4.14697,0.97914 0.60131,0.46197 0.54277,0.62897 -0.1332,0.38004 z m 1.85208,-0.66982 c -0.43656,-0.12414 -1.38906,-0.40534 -2.11667,-0.62489 l -1.32291,-0.39919 1.4552,0.0351 c 1.4478,0.0349 3.60028,0.75535 3.26342,1.09222 -0.20156,0.20155 -0.20923,0.20093 -1.27904,-0.10326 z m 2.38125,-0.67669 c -0.58208,-0.22229 -1.51429,-0.53161 -2.07157,-0.68737 -0.65733,-0.18374 -0.89681,-0.35516 -0.68178,-0.48805 0.32771,-0.20254 3.83882,0.90583 4.32762,1.36611 0.38268,0.36036 -0.37005,0.26918 -1.57427,-0.19069 z m -9.26837,-0.64381 c -0.12715,-0.20574 1.13159,-0.63282 4.11856,-1.3974 1.43401,-0.36707 1.4458,-0.37832 1.46468,-1.39812 0.0105,-0.56544 0.14723,-1.3315 0.30391,-1.70234 0.3466,-0.82041 3.02157,-3.33515 4.66137,-4.38215 1.00524,-0.64184 1.23999,-0.95534 1.46394,-1.95504 0.29159,-1.30164 0.58515,-2.93431 0.71357,-3.9686 0.0941,-0.75757 1.2395,-1.85224 1.93815,-1.85224 0.37501,0 0.48063,-0.24105 0.51606,-1.17774 0.0552,-1.45866 0.34585,-2.24654 1.06922,-2.89816 0.31291,-0.28187 0.55953,-0.82609 0.55953,-1.23472 0,-0.40188 0.0893,-0.77038 0.19844,-0.81889 0.10914,-0.0485 0.61516,-0.90525 1.12448,-1.90387 1.00546,-1.97139 1.50742,-2.42677 3.23416,-2.93405 0.981299,-0.28829 1.142274,-0.44026 1.212905,-1.14507 0.111818,-1.11581 0.538427,-1.38731 2.364713,-1.50494 2.017086,-0.12991 3.55745,-0.40977 3.945821,-0.71689 0.484837,-0.3834 2.749273,-0.37062 4.130714,0.0233 1.02579,0.29252 1.416018,0.58777 2.082926,1.57594 0.811901,1.20301 0.960799,1.57381 1.000183,2.49078 0.01113,0.25923 0.228603,0.54791 0.483265,0.64151 0.254661,0.0936 0.554118,0.32063 0.66546,0.50452 0.15045,0.24848 0.388268,0.16107 0.926041,-0.34035 0.970112,-0.90453 2.867254,-2.20304 3.21867,-2.20304 0.155682,0 0.283058,-0.17486 0.283058,-0.38857 0,-0.23174 0.155716,-0.32882 0.385796,-0.24053 0.438581,0.1683 0.570071,-0.28134 0.772,-2.6399 0.07295,-0.85207 0.209333,-1.62598 0.303073,-1.7198 0.09374,-0.0938 2.412961,-0.17058 5.153823,-0.17058 4.894258,0 4.995469,0.0113 5.65896,0.63422 0.371565,0.34882 0.813607,1.0632 0.982316,1.5875 0.168709,0.52431 0.393872,1.07234 0.500363,1.21786 0.10649,0.14553 0.26698,0.57266 0.356644,0.9492 0.246274,1.03421 1.19375,2.09351 1.872512,2.09351 0.935347,0 1.371017,0.74237 1.844962,3.14375 0.240732,1.21973 0.501576,2.32106 0.579653,2.44739 0.07808,0.12633 0.657493,0.2297 1.28759,0.2297 h 1.145632 l -0.076,-2.19393 c -0.14364,-4.14734 0.66299,-5.60403 2.93454,-5.29947 1.0286,0.13791 1.09735,0.10245 1.44423,-0.74496 1.08344,-2.64672 2.58165,-3.7594 5.04299,-3.74529 1.24555,0.007 1.8439,0.20061 3.70595,1.19827 1.85471,0.99373 2.48213,1.19736 3.80807,1.23592 1.32887,0.0386 1.68448,0.15456 2.18281,0.71152 0.32742,0.36595 0.60171,0.80755 0.60954,0.98134 0.20896,4.64216 0.49698,6.86735 0.93434,7.21857 0.244,0.19594 0.8898,0.21432 2.02015,0.0575 2.26567,-0.31433 2.74471,-0.15467 3.13062,1.04344 0.1758,0.54577 0.40391,1.11137 0.50692,1.25689 0.10301,0.14552 0.70602,1.50899 1.34003,3.02995 1.3902,3.33505 2.92931,5.698 4.35684,6.68895 0.99166,0.68838 1.28336,0.74457 4.63021,0.89195 1.96453,0.0865 4.22671,0.30835 5.02708,0.49296 0.80036,0.18462 1.92122,0.35644 2.4908,0.38182 0.56958,0.0254 1.10872,0.0914 1.1981,0.1466 0.0894,0.0552 1.17117,0.23344 2.40399,0.39601 1.23281,0.16256 3.07492,0.51803 4.09357,0.78991 1.01864,0.27189 2.50692,0.63994 3.30729,0.81789 0.80036,0.17795 1.75286,0.47744 2.11666,0.66554 0.56546,0.29235 0.5964,0.36744 0.21317,0.51734 -0.24656,0.0964 -2.09203,-0.24483 -4.10104,-0.75838 -4.03293,-1.03091 -8.28972,-1.87243 -10.92879,-2.16051 -0.94589,-0.10325 -1.95792,-0.23353 -2.24896,-0.28951 -1.19529,-0.22992 -5.80692,-0.4242 -5.63366,-0.23734 0.10295,0.11103 0.87686,0.25145 1.71979,0.31206 5.66427,0.40726 17.8962,2.71609 18.70374,3.53041 0.2127,0.21448 0.18421,0.2585 -0.1055,0.16302 -1.13362,-0.37362 -7.91444,-1.77963 -10.45104,-2.16703 -1.60073,-0.24448 -3.14854,-0.49007 -3.43958,-0.54577 -0.29104,-0.0557 -1.18401,-0.16576 -1.98437,-0.24459 -0.80037,-0.0788 -1.78855,-0.19541 -2.19597,-0.25905 -0.40742,-0.0636 -0.67517,-0.01 -0.59502,0.12009 0.0802,0.1297 0.77069,0.31459 1.53451,0.41088 1.22937,0.15498 9.53378,1.55206 10.91377,1.83606 2.54034,0.52281 4.40441,1.07349 3.90595,1.15389 -0.32558,0.0525 -1.57574,-0.15066 -2.77812,-0.4515 -4.25879,-1.06556 -11.6002,-2.15013 -15.40012,-2.27512 -3.34231,-0.10993 -3.77941,-0.1812 -4.65159,-0.75838 -1.34304,-0.88878 -4.35483,-2.36449 -6.03621,-2.95761 -0.78827,-0.27807 -1.53317,-0.7344 -1.68603,-1.03289 -0.22501,-0.43934 -0.21144,-0.47573 0.076,-0.20401 0.46322,0.43786 0.77322,0.41872 0.77322,-0.0477 0,-0.20816 -0.25857,-0.41652 -0.57459,-0.46302 -0.31603,-0.0465 -0.60475,-0.23635 -0.64162,-0.42189 -0.0369,-0.18554 -0.007,-0.21531 0.0675,-0.0662 0.074,0.14916 0.49169,0.2712 0.92825,0.2712 1.0792,0 0.84262,-0.62116 -0.30231,-0.79375 -0.48269,-0.0728 -0.96834,-0.31089 -1.07923,-0.52917 -0.60817,-1.19715 -2.15933,-5.32267 -2.04447,-5.43753 0.13526,-0.13526 0.89918,1.53222 1.55167,3.38701 0.19198,0.5457 0.50222,0.99219 0.68943,0.99219 0.23791,0 0.13522,-0.45802 -0.34111,-1.52135 -1.00306,-2.23918 -1.19347,-2.77062 -1.04567,-2.91842 0.11776,-0.11776 0.79172,1.26682 1.4994,3.08033 0.17557,0.44991 0.39076,0.58653 0.76832,0.48779 0.28845,-0.0754 0.52446,-0.0165 0.52446,0.13098 0,0.14746 0.17478,0.20105 0.3884,0.11907 0.21362,-0.082 0.46234,-0.0294 0.55272,0.11684 0.10963,0.17739 0.27304,0.17564 0.49102,-0.005 0.2256,-0.18724 0.42299,-0.17484 0.6379,0.0401 0.23855,0.23856 0.31121,0.23515 0.31121,-0.0146 0,-0.1792 -0.17108,-0.39146 -0.38017,-0.47169 -0.2091,-0.0802 -0.32677,-0.28506 -0.26149,-0.45516 0.12592,-0.32814 -1.44201,-0.93675 -1.96457,-0.76257 -0.50284,0.16762 -0.0587,0.58647 0.62185,0.58647 0.34663,0 0.69231,0.10045 0.76818,0.22322 0.0759,0.12277 -0.30084,0.19657 -0.83715,0.16401 -0.53632,-0.0326 -1.06356,-0.2223 -1.17165,-0.42165 -0.5876,-1.08364 -1.28944,-2.94767 -1.15897,-3.07814 0.18254,-0.18254 0.18641,-0.17706 0.74951,1.06204 0.24799,0.5457 0.57891,0.99219 0.73537,0.99219 0.15647,0 0.23371,-0.0893 0.17167,-0.19844 -0.062,-0.10914 -0.32832,-0.66084 -0.59172,-1.226 -0.46271,-0.99283 -0.46258,-1.0395 0.004,-1.38059 0.58052,-0.42449 0.934,-0.2582 0.934,0.43939 0,0.28297 0.18046,0.51355 0.40191,0.51355 0.297,0 0.36431,-0.18994 0.25784,-0.7276 -0.1375,-0.69439 -0.12346,-0.68835 0.30754,0.13229 0.2484,0.47294 0.55711,0.8599 0.68604,0.8599 0.26773,0 0.001,-1.02581 -0.3952,-1.52136 -0.18025,-0.2253 -0.16993,-0.33073 0.0324,-0.33073 0.16334,0 0.29699,-0.12199 0.29699,-0.2711 0,-0.16876 -0.82011,-0.24464 -2.1725,-0.20099 l -2.17249,0.0701 -0.31339,-1.45265 c -0.88307,-4.09316 -1.6337,-7.17147 -1.78582,-7.3236 -0.4066,-0.40659 -0.37764,0.19993 0.0976,2.04457 0.60807,2.36013 1.40102,6.87575 1.23632,7.04045 -0.0644,0.0644 -0.26417,-0.69202 -0.44403,-1.68083 -0.27468,-1.51006 -0.86182,-4.27614 -1.46274,-6.89106 -0.0752,-0.32742 -0.23484,-0.59531 -0.35467,-0.59531 -0.11982,0 0.0594,1.33945 0.39823,2.97656 0.79038,3.81858 1.12104,6.28385 0.84284,6.28385 -0.12066,0 -0.22407,-0.38695 -0.2298,-0.85989 -0.006,-0.47295 -0.24406,-1.93146 -0.52961,-3.24115 -0.28555,-1.30969 -0.65448,-3.00633 -0.81985,-3.77031 -0.35969,-1.66178 -0.82342,-1.86003 -0.61886,-0.26458 l 0.14417,1.12447 -0.47177,-1.16877 c -0.87638,-2.17113 -1.03385,-1.3793 -0.30361,1.52671 0.39808,1.58415 0.7858,3.63997 0.8616,4.56847 l 0.13781,1.68818 -0.37417,-1.98438 c -0.59773,-3.17009 -1.82458,-7.4921 -2.15752,-7.60067 -0.22486,-0.0733 -0.21638,0.23651 0.032,1.1708 0.95039,3.57448 1.69633,7.75279 1.38408,7.75279 -0.0715,0 -0.26662,-0.80367 -0.43366,-1.78594 -0.54349,-3.19612 -1.63276,-7.43462 -1.98599,-7.72778 -0.25582,-0.21231 -0.219,0.2452 0.14238,1.76941 0.26808,1.13067 0.48208,2.29389 0.47556,2.58493 -0.007,0.29105 -0.29762,-0.59518 -0.6469,-1.96939 -0.66379,-2.61168 -0.89622,-3.00939 -1.94288,-3.32441 -0.54851,-0.16508 -0.60688,-0.12377 -0.42712,0.30233 0.48583,1.15156 1.4417,5.60482 1.41215,6.57897 -0.0254,0.83804 -0.0523,0.89311 -0.12925,0.26459 -0.23622,-1.93022 -1.49077,-6.74823 -1.83059,-7.03026 -0.47396,-0.39334 -0.4712,-0.34763 0.15908,2.63865 0.74886,3.54809 0.61588,3.82911 -0.23988,0.50694 -0.86842,-3.37131 -1.10615,-3.74786 -2.09946,-3.32539 -0.38913,0.16551 -0.89577,0.45675 -1.12586,0.64721 -0.23009,0.19046 -0.51707,0.25674 -0.63773,0.14728 -0.12066,-0.10946 -0.12829,-0.0414 -0.017,0.1513 0.12146,0.21019 -0.007,0.5806 -0.32139,0.92604 -0.99134,1.08956 -1.17464,1.73397 -0.98009,3.4456 0.10178,0.89542 0.0839,1.53034 -0.0398,1.41093 -0.23822,-0.23006 -0.25997,-0.34441 -0.32355,-1.70111 -0.0282,-0.60083 -0.16984,-0.8599 -0.47025,-0.8599 -0.33661,0 -0.39548,0.17232 -0.2712,0.79375 0.0896,0.44776 0.0463,0.79375 -0.0992,0.79375 -0.14188,0 -0.25797,-0.29766 -0.25797,-0.66146 0,-0.57351 -0.11748,-0.66146 -0.88357,-0.66146 -0.70714,0 -0.94977,0.14529 -1.21509,0.72761 -0.44068,0.96717 -0.62913,2.47479 -0.56738,4.53902 0.0293,0.9798 -0.0695,1.76902 -0.23413,1.87079 -0.19711,0.12182 -0.15608,0.53697 0.1332,1.34796 0.56915,1.59554 0.89791,3.42087 0.61615,3.42087 -0.12674,0 -0.2304,-0.32742 -0.23037,-0.7276 3e-5,-0.40018 -0.26669,-1.47146 -0.59272,-2.38061 -0.55806,-1.55622 -0.6394,-1.65004 -1.389116,-1.60227 -0.648748,0.0413 -1.38214,0.34306 -2.214271,0.911 -0.05226,0.0357 0.140834,0.39913 0.429088,0.80769 0.719606,1.01994 1.916199,3.42889 1.908869,3.84289 -0.003,0.18674 -0.397949,-0.38754 -0.876987,-1.27617 -0.479038,-0.88863 -1.130764,-1.94596 -1.448279,-2.34962 l -0.577301,-0.73392 -0.394951,0.94526 c -0.363193,0.86924 -0.352629,1.04398 0.131372,2.17311 0.289478,0.67532 0.522666,1.42635 0.518195,1.66895 -0.0045,0.2426 -0.272798,-0.21221 -0.596283,-1.01069 -0.34067,-0.84089 -0.777641,-1.48826 -1.038477,-1.53849 -0.410279,-0.079 -0.416246,-0.0184 -0.0671,0.68146 0.210771,0.4225 0.449691,1.17435 0.530933,1.67078 0.119163,0.72816 0.01561,0.60636 -0.535808,-0.63015 -0.375937,-0.84301 -0.631227,-1.61692 -0.567312,-1.71979 0.248716,-0.4003 -2.938338,0.013 -4.00616,0.51959 -1.264041,0.59962 -1.649161,1.13707 -1.649161,2.30146 0,1.67294 -0.434563,2.21608 -2.248959,2.81088 -0.516078,0.16918 -0.514186,0.18569 0.07647,0.6676 0.563871,0.46006 0.682461,0.46639 1.719792,0.0917 0.612787,-0.22134 1.411815,-0.45816 1.775617,-0.52627 0.363802,-0.0681 1.111402,-0.2428 1.661334,-0.3882 2.047974,-0.5415 7.752845,0.71003 8.249695,1.8098 0.13956,0.30891 0.53212,0.68849 0.87235,0.84351 0.86652,0.39481 1.05058,0.3508 0.44584,-0.10661 -0.83761,-0.63353 -0.0541,-0.45826 0.94634,0.2117 0.50672,0.33934 1.54639,0.95357 2.31038,1.36496 1.2441,0.66993 1.76022,1.19305 1.17707,1.19305 -0.1166,0 -1.33699,-0.56991 -2.71198,-1.26647 -2.70846,-1.37209 -4.069042,-1.88053 -7.130196,-2.66451 -4.273738,-1.09454 -5.387774,-1.03179 -1.692518,0.0953 1.251927,0.38186 2.213232,0.75729 2.136232,0.83429 -0.077,0.077 -1.213005,-0.1687 -2.524456,-0.54599 -1.311452,-0.3773 -2.57744,-0.68599 -2.813306,-0.68599 -0.864402,0 -0.117543,0.44837 1.322173,0.79375 0.813927,0.19526 1.540878,0.45373 1.615445,0.57438 0.177648,0.28744 0.250239,0.2994 -1.880028,-0.3098 -3.561708,-1.01855 -2.560013,-0.28955 1.466841,1.06752 1.376049,0.46374 2.617123,0.95114 2.757941,1.08312 0.279038,0.26153 -1.202313,-0.16489 -3.695616,-1.06381 -1.892486,-0.68231 -5.707061,-1.68567 -5.853157,-1.53957 -0.05683,0.0568 1.355939,0.60663 3.139495,1.22176 1.783556,0.61514 4.646761,1.60162 6.362678,2.19219 1.715916,0.59056 3.084972,1.10862 3.042352,1.15124 -0.186227,0.18623 -3.294383,-0.77533 -8.146576,-2.52027 -4.687856,-1.68584 -5.071293,-1.80531 -6.419399,-2.00023 -1.205644,-0.17431 -2.021606,-0.65028 -1.114792,-0.65028 0.646969,0 0.312616,-0.64742 -0.387253,-0.74986 -0.382623,-0.056 -0.53899,0.0167 -0.426682,0.19844 0.0975,0.15776 0.06392,0.28684 -0.07462,0.28684 -0.13854,0 -0.320424,-0.1786 -0.404186,-0.39688 -0.16836,-0.43874 -0.69807,-0.54554 -0.69807,-0.14074 0,0.14087 0.326062,0.42697 0.724583,0.63578 l 0.724583,0.37965 -1.319896,0.19991 c -0.725942,0.10995 -1.141301,0.25504 -0.92302,0.32241 0.218282,0.0674 0.754063,0.2777 1.190625,0.4674 0.436563,0.1897 1.686719,0.60853 2.778125,0.93075 1.091406,0.32221 2.520156,0.85182 3.175,1.17692 0.654844,0.32509 1.905,0.81169 2.778125,1.08133 0.873125,0.26964 1.406858,0.52624 1.186075,0.57023 -0.220784,0.044 -1.411409,-0.29731 -2.645834,-0.75845 -7.628396,-2.84967 -10.443001,-3.69661 -12.622732,-3.79829 -1.196933,-0.0558 -2.278873,-0.16494 -2.40431,-0.24246 -0.346641,-0.21424 -2.494642,-0.66769 -2.315837,-0.48888 0.08595,0.0859 0.958423,0.41883 1.93883,0.73973 4.279708,1.40083 11.094539,3.88727 11.661244,4.25469 1.097261,0.71139 0.460589,0.62783 -1.558586,-0.20457 -3.139334,-1.29418 -12.18737,-4.38891 -13.347182,-4.56517 -1.051705,-0.15984 -1.050048,-0.15775 0.264583,0.33396 0.727604,0.27215 2.334948,0.82642 3.571875,1.23173 2.268031,0.74315 6.954292,2.78193 6.784573,2.95165 -0.05037,0.0504 -0.972428,-0.28328 -2.049016,-0.74145 -4.91775,-2.09285 -10.662993,-3.9378 -12.863191,-4.1307 l -1.645342,-0.14425 -0.444693,-1.22122 c -0.367322,-1.00873 -1.095857,-2.71 -1.642638,-3.83587 -0.06235,-0.12838 0.258998,-0.17877 0.7141,-0.11197 0.455101,0.0668 0.827457,0.0838 0.827457,0.0377 0,-0.046 -0.803672,-1.66253 -1.785937,-3.59219 -2.113521,-4.15203 -2.053742,-4.02035 -1.735907,-3.82392 0.138035,0.0853 0.948325,1.53064 1.800645,3.21183 0.852321,1.6812 1.707329,3.05672 1.90002,3.05672 0.19269,0 0.350346,-0.0641 0.350346,-0.14238 0,-0.21432 -3.185827,-6.28975 -3.497945,-6.67064 -0.149058,-0.1819 -0.59287,-0.33073 -0.986248,-0.33073 -1.412747,0 -2.592787,2.11125 -2.848247,5.09589 -0.12774,1.49245 -0.0742,1.87578 0.32339,2.31511 0.60255,0.66581 1.98197,0.7192 1.98197,0.0767 0,-0.34984 0.07055,-0.37924 0.317497,-0.13229 0.59061,0.59061 0.749874,0.32214 0.36101,-0.60854 -0.524672,-1.25572 -0.285849,-1.17254 0.379823,0.13229 0.322,0.63117 0.728448,1.05833 1.007014,1.05833 0.259154,0 0.47797,0.20613 0.491526,0.46302 0.01344,0.25466 0.465297,1.51293 1.004131,2.79615 0.538834,1.28321 0.914277,2.5036 0.834318,2.71198 -0.10196,0.2657 0.0497,0.37885 0.507773,0.37885 0.359235,0 0.653155,-0.13231 0.653155,-0.29403 0,-0.1959 0.331106,-0.23296 0.992187,-0.11105 1.15931,0.2138 4.311989,1.18816 4.696354,1.45145 0.145521,0.0997 0.800364,0.3477 1.455208,0.55116 0.654844,0.20346 2.143125,0.76808 3.307292,1.25472 1.164166,0.48664 2.592916,1.07855 3.175,1.31535 1.413851,0.57518 2.738803,1.38643 2.266347,1.38766 -0.208717,5.5e-4 -0.86356,-0.22783 -1.455208,-0.50751 -4.147768,-1.96068 -9.85724,-4.18344 -12.717389,-4.95102 -1.589131,-0.42647 -1.455208,-0.41643 -1.455208,-0.10916 0,0.13868 0.386953,0.36919 0.859896,0.51225 3.739774,1.13123 12.104687,4.65896 12.104687,5.10491 0,0.211 -2.007256,-0.4783 -2.516755,-0.86428 -0.147288,-0.11157 -0.980726,-0.46575 -1.852083,-0.78706 -0.871358,-0.3213 -1.7075,-0.68073 -1.858093,-0.79873 -0.150593,-0.118 -1.162624,-0.5327 -2.248958,-0.92155 -1.086334,-0.38884 -2.101863,-0.80846 -2.25673,-0.93249 -0.260614,-0.2087 -3.368905,-1.02326 -3.938527,-1.03212 -0.562872,-0.009 0.336085,0.47328 1.971146,1.05698 0.945886,0.33767 3.386667,1.32184 5.423958,2.18704 2.037292,0.8652 4.001823,1.69318 4.365625,1.83995 0.363802,0.14677 0.526342,0.31755 0.361199,0.3795 -0.165143,0.062 -1.296237,-0.35081 -2.513542,-0.91726 -3.369375,-1.56788 -9.007036,-3.72442 -11.008098,-4.21085 -1.884995,-0.45823 -2.087518,-0.60088 -2.359715,-1.66219 -0.09331,-0.3638 -0.50897,-1.40858 -0.9237,-2.32173 -0.41473,-0.91315 -0.75671,-1.74659 -0.75994,-1.85208 -0.01,-0.31151 -1.04013,-1.53987 -1.04657,-1.24743 -0.003,0.14701 0.40938,1.21858 0.91693,2.38125 0.50754,1.16267 0.9152,2.29254 0.90591,2.51082 -0.009,0.21828 -0.15842,0.0397 -0.3314,-0.39687 -0.79099,-1.99634 -1.58253,-3.57188 -1.79449,-3.57188 -0.30215,0 -0.29719,0.0407 0.13318,1.09217 0.76744,1.87501 0.68457,2.14356 -0.15285,0.49533 -0.6782,-1.33483 -0.99466,-1.70788 -1.41377,-1.66657 -0.34671,0.0342 -0.5524,-0.11167 -0.57469,-0.40748 -0.0281,-0.37337 0.13694,-0.44067 0.87072,-0.35501 0.49797,0.0581 0.92065,0.003 0.93929,-0.12168 0.0186,-0.12506 0.0732,-1.03527 0.12123,-2.02269 0.10555,-2.16923 0.82652,-4.87486 1.47064,-5.51899 0.25877,-0.25877 0.86204,-0.5748 1.340602,-0.70228 0.647264,-0.17243 0.850394,-0.36139 0.793137,-0.73782 -0.142634,-0.93771 -0.252166,-1.56392 -0.286139,-1.63588 -0.0614,-0.13005 -2.27387,1.05144 -2.74575,1.46628 -0.25466,0.22388 -0.46302,0.60597 -0.46302,0.84909 0,0.24312 -0.29148,0.71587 -0.64773,1.05056 -0.35625,0.33468 -0.72934,0.98051 -0.82909,1.43518 -0.0997,0.45467 -0.53454,1.4527 -0.96622,2.21786 -0.82553,1.46325 -1.01913,2.97107 -0.46691,3.63645 0.25854,0.31152 0.20167,0.43039 -0.30427,0.63599 -0.34223,0.13908 -0.95387,0.32397 -1.3592,0.41086 -0.87724,0.18807 -1.14224,0.77875 -1.52661,3.4028 -0.404,2.75804 -0.61522,3.15061 -2.04916,3.80844 -0.79228,0.36347 -1.80068,1.19303 -2.72823,2.24438 -1.80194,2.04247 -2.08716,2.5591 -2.08716,3.78058 0,0.84255 -0.11009,1.00293 -0.921,1.34175 -1.38482,0.57862 -5.15495,1.40506 -5.30466,1.16282 z m 94.59649,-6.98284 c 0,-0.18548 -3.98794,-2.37557 -5.22552,-2.86975 -2.04081,-0.81491 -1.17073,0.008 1.5875,1.50119 2.37147,1.28393 3.63802,1.76038 3.63802,1.36856 z m 0.13229,-0.98104 c -2.03928,-1.1982 -3.56764,-1.90527 -3.74182,-1.73109 -0.19237,0.19237 4.50459,2.79682 5.06474,2.80838 0.30234,0.006 -0.26473,-0.45554 -1.32292,-1.07729 z m 2.94601,0.89914 c -0.0704,-0.10914 -1.36996,-0.84937 -2.88802,-1.64496 -1.90873,-1.00033 -2.89679,-1.68468 -3.20324,-2.21864 -0.24373,-0.42468 -0.52075,-0.69453 -0.6156,-0.59968 -0.39759,0.39758 1.02587,1.60278 3.62856,3.07218 2.67432,1.50985 3.3524,1.81627 3.0783,1.3911 z m -37.145578,-3.12451 c -0.910701,-0.35214 -2.160857,-0.70225 -2.778124,-0.77803 -0.724796,-0.089 -0.348679,0.0823 1.061908,0.48369 1.201317,0.34181 2.262958,0.70022 2.359201,0.79646 0.09624,0.0962 0.363503,0.1667 0.593913,0.15656 0.23041,-0.0101 -0.3262,-0.30654 -1.236898,-0.65868 z m -35.260101,-0.26615 c -0.358765,-0.94363 -0.32236,-1.09793 0.117208,-0.49679 0.703105,0.96156 0.746436,0.1478 0.08111,-1.52326 -1.204612,-3.02555 -1.64259,-3.90311 -2.02195,-4.05131 -0.651757,-0.2546 -0.940131,0.31417 -0.56809,1.12047 0.186473,0.40413 0.627246,1.6123 0.979496,2.68482 0.740266,2.25394 1.073744,2.94475 1.421534,2.94475 0.152826,0 0.149237,-0.26168 -0.0093,-0.67868 z m -0.861749,-2.28354 c -0.219255,-0.62635 -0.488295,-1.37695 -0.597865,-1.66799 -0.130827,-0.3475 -0.110032,-0.43833 0.06057,-0.26458 0.352442,0.35894 1.229611,2.77771 1.066494,2.94083 -0.07181,0.0718 -0.309948,-0.38191 -0.529203,-1.00826 z m -0.962897,-2.50625 c -0.01149,-0.16999 -0.08941,-0.52718 -0.173157,-0.79375 -0.144741,-0.46069 -0.137274,-0.46127 0.151017,-0.0117 0.166808,0.26015 0.244728,0.61734 0.173157,0.79375 -0.09392,0.23151 -0.135941,0.23476 -0.151017,0.0117 z m 28.289527,5.20389 c 0,-0.14553 -0.119063,-0.26459 -0.264584,-0.26459 -0.145521,0 -0.264583,0.11906 -0.264583,0.26459 0,0.14552 0.119062,0.26458 0.264583,0.26458 0.145521,0 0.264584,-0.11906 0.264584,-0.26458 z m -27.383237,-0.46303 c -0.103273,-0.25466 -0.397276,-1.05833 -0.653339,-1.78593 -0.811266,-2.30522 -1.653001,-4.10104 -1.922226,-4.10104 -0.14317,0 -0.19933,0.14882 -0.12479,0.33073 0.0745,0.1819 0.635444,1.61065 1.246454,3.17499 0.611011,1.56435 1.230345,2.84428 1.3763,2.84428 0.147877,0 0.182235,-0.20501 0.0776,-0.46303 z m 18.051163,0.30317 c -0.08792,-0.0879 -0.316122,-0.0973 -0.507118,-0.0209 -0.211067,0.0845 -0.148372,0.14715 0.159852,0.15985 0.278915,0.0115 0.435185,-0.0511 0.347266,-0.13897 z m 48.387842,-0.3212 c -0.19865,-0.32143 -1.74952,-0.55799 -1.74952,-0.26687 0,0.12032 0.29063,0.21876 0.64584,0.21876 0.35522,0 0.72433,0.12698 0.82025,0.28219 0.0959,0.1552 0.23393,0.22265 0.30669,0.14989 0.0728,-0.0728 0.0623,-0.24555 -0.0233,-0.38397 z m -67.36811,0.018 c -0.003,-0.30737 -1.68421,-4.63104 -2.03104,-5.22331 -0.16973,-0.28983 -0.3942,-0.44136 -0.49883,-0.33672 -0.10464,0.10463 0.18409,1.02742 0.64161,2.05064 0.457519,1.02322 0.831853,1.97067 0.831853,2.10544 0,0.52386 0.529847,1.60239 0.787202,1.60239 0.149122,0 0.270265,-0.0893 0.269205,-0.19844 z m 13.758953,-0.13229 c -7.19e-4,-0.0364 -0.363583,-1.0779 -0.806366,-2.31449 -0.750888,-2.09706 -1.308994,-3.14956 -1.308994,-2.46855 0,0.31836 1.270987,4.28653 1.482647,4.629 0.121182,0.19608 0.636019,0.32142 0.632713,0.15404 z m 0.13431,-2.62491 c -0.534422,-1.35757 -1.267161,-3.24222 -1.628309,-4.18811 -1.12817,-2.9548 -1.473066,-3.6746 -1.980925,-4.1342 -0.741989,-0.67149 -0.607023,-0.14738 0.671276,2.6068 0.640087,1.3791 1.607824,3.74547 2.150527,5.25858 0.878967,2.45065 1.359662,3.3247 1.662126,3.02224 0.05334,-0.0533 -0.340273,-1.20773 -0.874695,-2.56531 z m 3.033548,2.09575 -0.29165,-0.59532 0.490907,0.60724 c 0.541758,0.67013 0.882233,0.5645 0.679485,-0.21081 -0.07177,-0.27444 -0.366416,-0.53544 -0.654775,-0.58 -0.519522,-0.0803 -0.969944,-1.07342 -5.25484,-11.58652 -0.892947,-2.19086 -1.575262,-3.24696 -1.575262,-2.43822 0,0.24855 1.193575,3.25553 3.4343,8.65206 0.604225,1.45521 1.409987,3.47928 1.790582,4.49792 0.380595,1.01865 0.81921,1.93956 0.9747,2.04647 0.530892,0.36503 0.698496,0.20309 0.406553,-0.39282 z m 3.143254,0.19453 c 0.14659,-0.14659 -0.230434,-0.65755 -0.485187,-0.65755 -0.126263,0 -0.285209,0.20836 -0.353215,0.46302 -0.104716,0.39213 -0.15292,0.37187 -0.314843,-0.1323 -0.203485,-0.63357 -0.923228,-0.82953 -0.923228,-0.25135 0,0.61147 0.630324,1.01094 1.321457,0.83747 0.364008,-0.0914 0.703765,-0.20804 0.755016,-0.25929 z m 4.008943,0.1362 c 0,-0.14553 -0.245151,-0.26459 -0.544781,-0.26459 -0.29963,0 -0.471197,0.11906 -0.38126,0.26459 0.08994,0.14552 0.335088,0.26458 0.544781,0.26458 0.209693,0 0.38126,-0.11906 0.38126,-0.26458 z m -9.019463,-2.18282 c -0.442239,-1.20054 -1.104582,-2.89718 -1.471872,-3.77031 -0.36729,-0.87312 -1.329322,-3.25437 -2.137848,-5.29167 -0.808526,-2.03729 -1.504598,-3.74596 -1.546827,-3.79705 -0.04223,-0.0511 -0.499026,-0.14979 -1.015107,-0.21934 l -0.938328,-0.12645 0.689613,1.54226 c 0.733837,1.64116 1.93886,3.15861 1.955327,2.46228 0.0095,-0.40122 1.404836,2.95905 3.0788,7.41435 1.125146,2.9946 1.601125,3.96875 1.939179,3.96875 0.138124,0 -0.110698,-0.98227 -0.552937,-2.18282 z m -5.367207,-11.30531 c -0.597067,-1.49222 -0.505058,-1.71427 0.123391,-0.29779 0.283804,0.63968 0.468892,1.21017 0.411306,1.26775 -0.05759,0.0576 -0.298199,-0.3789 -0.534697,-0.96996 z m 53.111512,13.09125 c -0.16102,-0.41962 -0.62484,-0.55056 -0.62484,-0.17639 0,0.2798 0.28921,0.57327 0.56496,0.57327 0.1167,0 0.14365,-0.1786 0.0599,-0.39688 z m 0.95735,-0.006 c -0.18408,-0.2218 -0.38917,-0.34878 -0.45577,-0.28219 -0.18348,0.18349 0.18932,0.68546 0.50909,0.68546 0.17544,0 0.15537,-0.15182 -0.0533,-0.40327 z m 1.19593,0.13868 c -0.0899,-0.14552 -0.27556,-0.26458 -0.41249,-0.26458 -0.13693,0 -0.24897,0.11906 -0.24897,0.26458 0,0.14552 0.18562,0.26459 0.41249,0.26459 0.22687,0 0.33891,-0.11907 0.24897,-0.26459 z m -55.694787,-0.25527 c 0,-0.1404 -0.238125,-0.38272 -0.529167,-0.53848 -0.571977,-0.30611 -0.613718,-0.26361 -0.368567,0.37524 0.173289,0.45158 0.897734,0.58331 0.897734,0.16324 z m 2.753508,-1.16643 c -0.496669,-1.90195 -1.114339,-3.3408 -1.434142,-3.3408 -0.317204,0 -0.346191,0.44531 -0.04125,0.63377 0.120878,0.0747 0.372648,0.82587 0.55949,1.66926 0.373976,1.6881 0.70549,2.45947 1.057007,2.45947 0.126586,0 0.06309,-0.63976 -0.1411,-1.4217 z m 12.548227,1.22326 c -0.296949,-0.66813 -1.437569,-2.44365 -1.570931,-2.44535 -0.0879,-10e-4 0.125086,0.59327 0.473304,1.32088 0.348219,0.7276 0.757482,1.32291 0.909473,1.32291 0.151992,0 0.236661,-0.0893 0.188154,-0.19844 z m 42.553822,-0.19843 c 0,-0.21828 -0.15875,-0.39688 -0.35278,-0.39688 -0.44588,0 -0.46161,0.44116 -0.0221,0.61852 0.1819,0.0734 0.34065,0.14286 0.35278,0.15434 0.0121,0.0115 0.0221,-0.1577 0.0221,-0.37598 z m -62.874754,-0.38214 c -0.323692,-0.60483 -0.801636,-0.95132 -0.801636,-0.58116 0,0.56207 0.34043,1.09559 0.699075,1.09559 0.29228,0 0.315512,-0.11653 0.102561,-0.51443 z m 1.050447,-0.0147 c 0,-0.29398 -0.176389,-0.52916 -0.396875,-0.52916 -0.445308,0 -0.463202,0.0484 -0.236276,0.63981 0.226859,0.59119 0.633151,0.52018 0.633151,-0.11065 z m 1.251417,0.0822 c 0.05163,-0.15488 -0.08976,-0.35206 -0.314193,-0.43818 -0.285986,-0.10974 -0.408057,0.006 -0.408057,0.38632 0,0.54435 0.545043,0.58348 0.72225,0.0519 z m 0.986242,-0.10049 c -0.248805,-0.40257 -0.64633,-0.2796 -0.481839,0.14905 0.08344,0.21745 0.260241,0.32829 0.392887,0.24631 0.132646,-0.082 0.172675,-0.25989 0.08895,-0.39536 z m 2.657133,0.28287 c -0.08994,-0.14553 -0.275558,-0.26459 -0.41249,-0.26459 -0.136933,0 -0.248969,0.11906 -0.248969,0.26459 0,0.14552 0.185621,0.26458 0.41249,0.26458 0.22687,0 0.338905,-0.11906 0.248969,-0.26458 z m 1.043294,-0.33073 c -0.226695,-0.7375 -0.286321,-0.80623 -0.597704,-0.68902 -0.331572,0.12481 0.110589,1.28433 0.489755,1.28433 0.179545,0 0.220876,-0.22793 0.107949,-0.59531 z m 11.921288,0.0661 c -0.08994,-0.14552 -0.282584,-0.26458 -0.428105,-0.26458 -0.145521,0 -0.190999,0.11906 -0.101062,0.26458 0.08994,0.14552 0.282584,0.26459 0.428105,0.26459 0.145521,0 0.190999,-0.11907 0.101062,-0.26459 z m 42.456173,-0.1118 c -0.21308,-0.20701 -0.98244,-0.46308 -1.70967,-0.56903 -1.22437,-0.17838 -1.29465,-0.15938 -0.9494,0.25662 0.29523,0.35573 0.42003,0.3778 0.59948,0.10601 0.17753,-0.26888 0.28577,-0.24293 0.49953,0.11976 0.16852,0.28595 0.59311,0.46303 1.11019,0.46303 0.72918,0 0.78727,-0.0486 0.44987,-0.37639 z m -43.646798,-0.12447 c 0,-0.12996 -0.178594,-0.30481 -0.396875,-0.38857 -0.241753,-0.0928 -0.396875,-4.2e-4 -0.396875,0.23627 0,0.21372 0.178594,0.38857 0.396875,0.38857 0.218281,0 0.396875,-0.10632 0.396875,-0.23627 z m -4.55855,-0.3425 c -0.163532,-0.4906 -0.733116,-0.57197 -0.733116,-0.10473 0,0.2304 0.188516,0.41892 0.418923,0.41892 0.230408,0 0.371795,-0.14139 0.314193,-0.31419 z m 0.854384,-0.0827 c 0,-0.21828 -0.119063,-0.39687 -0.264584,-0.39687 -0.14552,0 -0.264583,0.17859 -0.264583,0.39687 0,0.21829 0.119063,0.39688 0.264583,0.39688 0.145521,0 0.264584,-0.17859 0.264584,-0.39688 z m 1.322916,0.1323 c 0,-0.14553 -0.18562,-0.26459 -0.412489,-0.26459 -0.22687,0 -0.338906,0.11906 -0.248969,0.26459 0.08994,0.14552 0.275557,0.26458 0.41249,0.26458 0.136933,0 0.248968,-0.11906 0.248968,-0.26458 z m 1.058333,0 c 0,-0.14553 -0.18562,-0.26459 -0.41249,-0.26459 -0.226869,0 -0.338905,0.11906 -0.248968,0.26459 0.08994,0.14552 0.275557,0.26458 0.41249,0.26458 0.136932,0 0.248968,-0.11906 0.248968,-0.26458 z m 5.899292,-0.2051 c 0.458286,-0.5064 0.78747,-2.93282 0.456758,-3.36678 -0.350279,-0.45963 -0.601927,-2.32142 -0.287508,-2.12709 0.154802,0.0957 0.281458,0.52411 0.281458,0.95208 0,0.87025 0.191107,0.95178 0.941618,0.40172 0.661645,-0.48493 0.614218,-2.66985 -0.114508,-5.27527 -0.349477,-1.24949 -0.400339,-1.70302 -0.163196,-1.45521 0.389062,0.40657 1.188169,4.04872 1.188169,5.41541 0,0.49375 0.133051,0.89774 0.295669,0.89774 0.380341,0 0.06522,-3.66441 -0.442796,-5.14905 -0.335465,-0.98038 -0.318394,-1.49009 0.03797,-1.13372 0.253352,0.25335 0.5881,1.9953 0.782884,4.07393 0.100206,1.06934 0.287266,1.94425 0.41569,1.94425 0.347658,0 0.265514,-2.27681 -0.152733,-4.23333 -0.306191,-1.43233 -0.307701,-1.63814 -0.009,-1.23127 0.325622,0.44359 0.725993,2.95811 0.725993,4.55957 0,0.36702 0.155318,0.64045 0.363802,0.64045 0.203975,0 0.363802,-0.26925 0.363802,-0.61287 0,-0.64516 -0.453116,-3.3814 -0.709078,-4.28192 -0.08272,-0.29104 -0.04818,-0.43181 0.07677,-0.31281 0.299942,0.28566 0.858431,2.96125 0.879903,4.21541 0.0096,0.55764 0.149376,0.99219 0.319263,0.99219 0.293006,0 0.230373,-1.47768 -0.16822,-3.96875 -0.112509,-0.70314 -0.08909,-0.79423 0.0973,-0.37841 0.135012,0.30119 0.330293,1.33962 0.433957,2.30762 0.108029,1.00876 0.352168,1.89584 0.57197,2.07826 0.321017,0.26642 0.360727,0.21377 0.243758,-0.32325 -0.07685,-0.35283 -0.331382,-2.4069 -0.56562,-4.56461 -0.43951,-4.04857 -0.865397,-6.11593 -1.572806,-7.63478 -0.224794,-0.48265 -0.336212,-0.63941 -0.247597,-0.34837 0.135578,0.44528 1.169564,5.86489 1.169564,6.13024 0,0.0481 -0.119063,0.0875 -0.264584,0.0875 -0.145521,0 -0.264583,-0.28988 -0.264583,-0.64416 0,-1.28187 -1.492256,-7.47678 -1.741095,-7.22794 -0.05755,0.0575 0.190509,1.40583 0.551247,2.99618 0.360738,1.59035 0.647151,3.1892 0.636473,3.553 -0.01068,0.3638 -0.303552,-0.5887 -0.650832,-2.11667 -0.808871,-3.55888 -1.180129,-4.84761 -1.348116,-4.67962 -0.123519,0.12352 0.543653,4.20301 0.862679,5.27494 0.07579,0.25466 0.03441,0.46302 -0.09195,0.46302 -0.126366,0 -0.388867,-0.92274 -0.583336,-2.05052 -0.32515,-1.88566 -0.900747,-3.77032 -1.151496,-3.77032 -0.05712,0 0.0027,0.56555 0.132824,1.25677 0.470246,2.4971 0.693038,4.18713 0.688867,5.22552 l -0.0042,1.05834 -0.212596,-0.92604 c -0.116927,-0.50933 -0.277827,-1.4161 -0.357554,-2.01505 -0.07973,-0.59895 -0.266776,-1.61098 -0.415663,-2.24896 -0.148887,-0.63797 -0.303449,-1.45309 -0.343472,-1.81137 -0.06942,-0.6214 -0.164217,-0.65429 -2.057143,-0.71367 -1.091406,-0.0342 -2.555155,0.007 -3.252776,0.0917 -1.070664,0.12998 -1.332819,0.27855 -1.681618,0.95306 -0.265715,0.51383 -0.358648,1.13535 -0.260345,1.74112 0.119524,0.73654 0.02899,1.07392 -0.415022,1.54655 -0.312343,0.33247 -0.725736,0.60449 -0.918651,0.60449 -0.228207,0 -0.35217,0.34666 -0.354806,0.99219 -0.0022,0.5457 -0.119467,1.17078 -0.260532,1.38906 -0.185258,0.28667 -0.257605,0.0436 -0.260531,-0.87551 -0.0055,-1.72762 -0.519675,-1.34774 -0.579443,0.42811 -0.04472,1.3286 -0.04953,1.33673 -0.147505,0.24897 -0.06554,-0.72762 -0.229463,-1.12448 -0.464472,-1.12448 -0.283803,0 -0.309395,0.18758 -0.117079,0.85815 0.135363,0.47198 0.237746,1.15659 0.227518,1.52135 -0.01704,0.60754 -0.03768,0.61879 -0.245987,0.13404 -0.125065,-0.29104 -0.235759,-0.87734 -0.245987,-1.30289 l -0.0186,-0.77373 -0.661458,0.62141 c -0.773837,0.72698 -0.786101,0.79397 -0.269256,1.47078 0.366008,0.47929 0.38147,0.45616 0.231511,-0.3463 -0.103864,-0.5558 -0.05543,-0.8599 0.136964,-0.8599 0.165951,0 0.301684,0.43902 0.306759,0.99219 0.005,0.5457 0.332428,1.94076 0.727604,3.10012 0.833597,2.4456 1.652203,3.19352 3.808377,3.47955 2.019717,0.26792 2.283786,0.58948 2.995951,3.6482 0.164547,0.70672 1.148617,1.69527 1.818408,1.82669 0.309337,0.0607 0.633275,0.12657 0.719862,0.14639 0.08659,0.0198 0.348705,-0.17533 0.582486,-0.43365 z m -0.18356,-2.20443 c -0.06466,-0.20273 -0.245215,-0.72579 -0.401242,-1.16235 -0.28303,-0.79192 -0.283499,-0.7914 -0.203235,0.2254 0.07077,0.89647 0.03869,0.96204 -0.266444,0.54474 -0.488898,-0.6686 -0.46402,-2.06232 0.03341,-1.87144 0.223227,0.0857 0.422145,-0.0393 0.481617,-0.30243 0.05572,-0.24659 0.252179,0.2457 0.436565,1.09398 0.184386,0.84829 0.268118,1.60947 0.18607,1.69152 -0.08205,0.082 -0.202079,-0.0167 -0.266736,-0.21942 z m 0.898851,-3.59945 c 0,-0.84826 -0.242758,-2.41831 -0.539462,-3.489 -0.534095,-1.92735 -0.527842,-2.89764 0.0096,-1.48415 0.719295,1.89189 1.25736,6.06584 0.81703,6.33798 -0.193911,0.11985 -0.287133,-0.32327 -0.287133,-1.36483 z m -1.951471,-4.40516 c -0.08962,-0.35706 -0.235716,-0.83886 -0.324666,-1.07066 -0.08895,-0.2318 -0.04318,-0.42145 0.101718,-0.42145 0.144894,0 0.343904,0.42888 0.442243,0.95307 0.204059,1.08773 0.0274,1.52196 -0.219295,0.53904 z m -1.197155,-0.63222 c 0.02354,-0.88548 0.04915,-0.92105 0.23821,-0.33073 0.302887,0.94577 0.302887,1.32292 0,1.32292 -0.145521,0 -0.252715,-0.44648 -0.23821,-0.99219 z m -1.261096,-0.0661 c 0,-0.43657 0.09922,-0.79375 0.220486,-0.79375 0.121268,0 0.220486,0.35718 0.220486,0.79375 0,0.43656 -0.09922,0.79375 -0.220486,0.79375 -0.121267,0 -0.220486,-0.35719 -0.220486,-0.79375 z m 8.684832,0 c 0,-0.36381 0.06005,-0.51263 0.133452,-0.33073 0.0734,0.1819 0.0734,0.47955 0,0.66146 -0.0734,0.1819 -0.133452,0.0331 -0.133452,-0.33073 z m -0.923721,-0.44098 c -0.09701,-0.097 -0.172768,-0.3649 -0.168343,-0.59531 0.0066,-0.34404 0.05824,-0.33261 0.288836,0.0639 0.284896,0.48993 0.202302,0.85417 -0.120493,0.53137 z m -1.192946,-1.67569 c 0,-0.3638 0.06005,-0.51263 0.133452,-0.33073 0.0734,0.1819 0.0734,0.47956 0,0.66146 -0.0734,0.1819 -0.133452,0.0331 -0.133452,-0.33073 z m -20.679275,12.96924 c 0,-0.14275 -0.327422,-0.33128 -0.727604,-0.41897 -0.400182,-0.0877 -0.876432,-0.20528 -1.058333,-0.26132 -0.181901,-0.056 -0.330729,0.0647 -0.330729,0.26828 0,0.34405 0.531144,0.54817 1.653645,0.63552 0.254662,0.0198 0.463021,-0.0808 0.463021,-0.22351 z m 1.190625,-0.005 c -0.08994,-0.14552 -0.342115,-0.26458 -0.560396,-0.26458 -0.218281,0 -0.323291,0.11906 -0.233354,0.26458 0.08994,0.14552 0.342115,0.26459 0.560397,0.26459 0.218281,0 0.32329,-0.11907 0.233353,-0.26459 z m 56.488539,0.14791 c 0,-0.0642 -0.11906,-0.19026 -0.26458,-0.2802 -0.14552,-0.0899 -0.26459,-0.0374 -0.26459,0.11668 0,0.15411 0.11907,0.2802 0.26459,0.2802 0.14552,0 0.26458,-0.0525 0.26458,-0.11668 z m -61.38333,-0.39688 c 0,-0.31217 -0.516031,-0.64611 -0.705556,-0.45658 -0.189524,0.18952 0.144416,0.70555 0.456587,0.70555 0.136933,0 0.248969,-0.11203 0.248969,-0.24897 z m 0.989037,-0.1983 c -0.245999,-0.246 -0.52156,-0.37298 -0.612357,-0.28219 -0.260398,0.2604 0.139353,0.72946 0.621673,0.72946 0.403879,0 0.403154,-0.0348 -0.0093,-0.44727 z m 16.738045,0.1983 c 0,-0.13693 -0.119063,-0.32255 -0.264584,-0.41249 -0.14552,-0.0899 -0.264583,0.0221 -0.264583,0.24897 0,0.22687 0.119063,0.41249 0.264583,0.41249 0.145521,0 0.264584,-0.11203 0.264584,-0.24897 z m 42.333328,-0.0156 c 0,-0.14552 -0.16885,-0.26458 -0.37523,-0.26458 -0.20638,0 -0.59333,-0.0693 -0.8599,-0.1539 -0.4435,-0.14082 -0.44104,-0.11835 0.0289,0.26459 0.57936,0.47206 1.2062,0.55203 1.2062,0.15389 z m -61.383327,-0.39688 c 0,-0.21828 -0.178594,-0.39687 -0.396875,-0.39687 -0.413166,0 -0.524924,0.31292 -0.220486,0.61736 0.304439,0.30444 0.617361,0.19268 0.617361,-0.22049 z m 6.955829,-0.13229 c -0.07611,-0.29104 -0.243556,-0.52916 -0.372105,-0.52916 -0.273367,0 -0.314016,0.62526 -0.05734,0.88194 0.34687,0.34687 0.565447,0.16731 0.42944,-0.35278 z m 9.652286,0.21498 c -0.163532,-0.4906 -0.733116,-0.57197 -0.733116,-0.10473 0,0.2304 0.188516,0.41892 0.418924,0.41892 0.230408,0 0.371794,-0.14139 0.314192,-0.31419 z m 1.383551,-0.0827 c 0,-0.21828 0.202406,-0.39687 0.449791,-0.39687 0.335694,0 0.373567,-0.0762 0.149301,-0.30049 -0.224266,-0.22427 -0.410275,-0.19071 -0.733274,0.13229 -0.238031,0.23803 -0.550367,0.43278 -0.694082,0.43278 -0.143715,0 -0.187715,0.11907 -0.09778,0.26459 0.252638,0.40877 0.926041,0.31257 0.926042,-0.1323 z m 44.181361,-0.46302 c 0.002,-0.10914 -0.11501,-0.19843 -0.26053,-0.19843 -0.14552,0 -0.26276,0.26789 -0.26053,0.59531 0.003,0.48139 0.0531,0.51936 0.26053,0.19844 0.14106,-0.21829 0.2583,-0.48618 0.26053,-0.59532 z m -56.352194,0.22675 c 0,-0.20271 -0.178593,-0.4371 -0.396875,-0.52086 -0.443686,-0.17026 -0.465576,-0.12664 -0.236276,0.47091 0.198358,0.51691 0.633151,0.55121 0.633151,0.0499 z m 8.466666,-0.0724 c 0,-0.22678 -0.330729,-0.35277 -0.926041,-0.35277 -0.839177,0 -1.145663,0.22135 -0.79375,0.57326 0.298778,0.29878 1.719791,0.1166 1.719791,-0.22049 z m 1.058334,0.17639 c 0,-0.14552 -0.126089,-0.26458 -0.280198,-0.26458 -0.154109,0 -0.206614,0.11906 -0.116677,0.26458 0.08994,0.14552 0.216026,0.26459 0.280198,0.26459 0.06417,0 0.116677,-0.11907 0.116677,-0.26459 z m 42.068744,-0.26458 c -0.24388,-0.4557 -0.79375,-0.74563 -0.79375,-0.41852 0,0.42703 0.38408,0.94769 0.69908,0.94769 0.29589,0 0.31643,-0.11482 0.0947,-0.52917 z m 1.05834,0.13229 c 0,-0.21828 -0.1786,-0.39687 -0.39688,-0.39687 -0.41317,0 -0.52492,0.31292 -0.22048,0.61736 0.30443,0.30444 0.61736,0.19268 0.61736,-0.22049 z m 1.05833,0.13229 c 0,-0.14552 -0.17859,-0.26458 -0.39688,-0.26458 -0.21828,0 -0.39687,0.11906 -0.39687,0.26458 0,0.14552 0.17859,0.26459 0.39687,0.26459 0.21829,0 0.39688,-0.11907 0.39688,-0.26459 z m -55.03333,-0.39687 c 0,-0.21828 -0.178594,-0.39688 -0.396875,-0.39688 -0.413167,0 -0.524925,0.31293 -0.220486,0.61736 0.304438,0.30444 0.617361,0.19268 0.617361,-0.22048 z m -3.704167,-0.28198 c 0,-0.63789 -0.506599,-1.43781 -0.91058,-1.43781 -0.2282,0 -0.313234,0.18952 -0.229204,0.51085 0.08627,0.3299 0.288373,0.46165 0.570543,0.37192 0.345797,-0.10996 0.360884,-0.0847 0.07232,0.12102 -0.200544,0.14298 -0.282814,0.39233 -0.182822,0.55412 0.266667,0.43148 0.67974,0.35849 0.67974,-0.1201 z m 1.058333,0.0174 c 0,-0.21828 -0.119062,-0.39687 -0.264583,-0.39687 -0.145521,0 -0.264583,0.17859 -0.264583,0.39687 0,0.21829 0.119062,0.39688 0.264583,0.39688 0.145521,0 0.264583,-0.17859 0.264583,-0.39688 z m 1.455209,0.1323 c -0.08994,-0.14552 -0.275558,-0.26459 -0.41249,-0.26459 -0.136933,0 -0.248969,0.11907 -0.248969,0.26459 0,0.14552 0.185621,0.26458 0.41249,0.26458 0.22687,0 0.338906,-0.11906 0.248969,-0.26458 z m 57.665935,0.0187 c -0.13825,-0.13522 -0.60854,-0.33357 -1.04511,-0.44076 -0.71895,-0.17654 -0.75953,-0.15337 -0.43062,0.24586 0.19972,0.24242 0.67002,0.44076 1.0451,0.44076 0.42398,0 0.58689,-0.093 0.43063,-0.24586 z m -61.419478,-0.48174 c -0.245309,-0.68814 -0.644333,-1.13578 -0.881667,-0.9891 -0.29659,0.1833 0.334907,1.44756 0.724302,1.45005 0.19381,10e-4 0.256583,-0.18263 0.157365,-0.46095 z m 17.90875,0.36312 c 0,-0.0549 -0.178594,-0.24811 -0.396875,-0.42927 -0.325043,-0.26976 -0.396875,-0.25168 -0.396875,0.0999 0,0.2361 0.178594,0.42928 0.396875,0.42928 0.218281,0 0.396875,-0.045 0.396875,-0.0999 z m -10.847916,-0.51099 c 0,-0.54802 -0.725617,-1.39913 -0.970555,-1.13841 -0.121038,0.12883 -0.0705,0.28764 0.112308,0.35291 0.182808,0.0653 0.265078,0.22756 0.182823,0.36065 -0.181404,0.29352 0.08273,0.77115 0.426456,0.77115 0.136932,0 0.248968,-0.15583 0.248968,-0.3463 z m 6.151562,-0.23431 c -0.626662,-0.62666 -0.974385,-0.55477 -0.705524,0.14587 0.09176,0.23911 0.418672,0.43474 0.726482,0.43474 h 0.559656 z m 1.196137,0.26642 c -0.0576,-0.17281 -0.246198,-0.36135 -0.419103,-0.41898 -0.193344,-0.0645 -0.252475,0.0565 -0.153594,0.31419 0.184553,0.48094 0.731435,0.581 0.572697,0.10479 z m 1.118967,0.0652 c 0,-0.31217 -0.516031,-0.64611 -0.705555,-0.45658 -0.189524,0.18952 0.144416,0.70555 0.456587,0.70555 0.136933,0 0.248968,-0.11203 0.248968,-0.24897 z m 1.058333,-0.0156 c 0,-0.14552 -0.18562,-0.26458 -0.412489,-0.26458 -0.22687,0 -0.338905,0.11906 -0.248969,0.26458 0.08994,0.14552 0.275558,0.26458 0.41249,0.26458 0.136933,0 0.248968,-0.11906 0.248968,-0.26458 z m 42.068745,0 c 0,-0.14552 -0.18562,-0.26458 -0.41249,-0.26458 -0.22687,0 -0.3389,0.11906 -0.24897,0.26458 0.0899,0.14552 0.27556,0.26458 0.41249,0.26458 0.13694,0 0.24897,-0.11906 0.24897,-0.26458 z m 0.79375,0.14791 c 0,-0.0642 -0.11906,-0.19027 -0.26458,-0.2802 -0.14552,-0.0899 -0.26458,-0.0374 -0.26458,0.11667 0,0.15411 0.11906,0.2802 0.26458,0.2802 0.14552,0 0.26458,-0.0525 0.26458,-0.11667 z m 3.55424,-0.38717 c -0.13582,-0.12674 -0.51409,-0.31113 -0.84059,-0.40976 -0.4606,-0.13914 -0.55947,-0.0902 -0.44113,0.21814 0.0839,0.2186 0.30922,0.33734 0.50074,0.26384 0.19152,-0.0735 0.43171,0.001 0.53377,0.1666 0.10205,0.16513 0.25498,0.23079 0.33985,0.14592 0.0849,-0.0849 0.0432,-0.258 -0.0926,-0.38474 z m -58.587567,-0.0253 c 0,-0.14552 -0.126089,-0.26459 -0.280198,-0.26459 -0.154109,0 -0.206614,0.11907 -0.116677,0.26459 0.08994,0.14552 0.216026,0.26458 0.280198,0.26458 0.06417,0 0.116677,-0.11906 0.116677,-0.26458 z m 1.5875,0 c 0,-0.14552 -0.245152,-0.26459 -0.544782,-0.26459 -0.299629,0 -0.471197,0.11907 -0.38126,0.26459 0.08994,0.14552 0.335089,0.26458 0.544782,0.26458 0.209693,0 0.38126,-0.11906 0.38126,-0.26458 z m -3.96875,-0.26459 c 0,-0.14552 -0.119062,-0.26458 -0.264583,-0.26458 -0.145521,0 -0.264584,0.11906 -0.264584,0.26458 0,0.14552 0.119063,0.26459 0.264584,0.26459 0.145521,0 0.264583,-0.11907 0.264583,-0.26459 z m 1.322917,0 c 0,-0.14552 -0.185621,-0.26458 -0.41249,-0.26458 -0.22687,0 -0.338905,0.11906 -0.248969,0.26458 0.08994,0.14552 0.275558,0.26459 0.41249,0.26459 0.136933,0 0.248969,-0.11907 0.248969,-0.26459 z m 15.081249,-0.26458 c -0.279653,-0.52254 -0.79375,-0.72818 -0.79375,-0.3175 0,0.27825 0.574662,0.84667 0.855975,0.84667 0.121537,0 0.09354,-0.23813 -0.06222,-0.52917 z m -2.347075,-0.60083 c -0.440494,-0.44049 -0.689976,-0.003 -0.279987,0.49116 0.247962,0.29877 0.39137,0.33445 0.464344,0.11553 0.05807,-0.17421 -0.02489,-0.44722 -0.184357,-0.60669 z m 1.288741,0.63323 c 0,-0.12771 -0.178593,-0.38041 -0.396875,-0.56157 -0.430797,-0.35753 -0.484647,-0.27201 -0.236276,0.37524 0.170009,0.44303 0.633151,0.57933 0.633151,0.18633 z m -2.381249,-0.56157 c 0,-0.29398 -0.176389,-0.52916 -0.396875,-0.52916 -0.445308,0 -0.463203,0.0484 -0.236276,0.63981 0.226859,0.59119 0.633151,0.52018 0.633151,-0.11065 z m -13.58012,-0.10803 c -0.09263,-0.24138 0.09726,-0.43291 0.53913,-0.54381 0.542312,-0.13611 0.613265,-0.23598 0.346188,-0.48728 -0.261059,-0.24564 -0.363774,-0.23992 -0.460875,0.0257 -0.09968,0.27264 -0.204774,0.27552 -0.519615,0.0142 -0.328199,-0.27239 -0.379565,-0.24379 -0.304999,0.16981 0.06239,0.34608 -0.11152,0.55127 -0.571792,0.67463 -0.655919,0.17578 -0.654811,0.17837 0.132292,0.30866 0.436562,0.0723 0.836254,0.14924 0.888203,0.17104 0.05195,0.0218 0.03011,-0.12803 -0.04853,-0.33297 z m 1.541579,0.10803 c 0.08994,-0.14552 -0.0221,-0.26458 -0.248969,-0.26458 -0.226869,0 -0.41249,0.11906 -0.41249,0.26458 0,0.14552 0.112036,0.26459 0.248969,0.26459 0.136932,0 0.322553,-0.11907 0.41249,-0.26459 z m 9.86056,0.0661 c -0.05798,-0.10914 -0.258139,-0.58539 -0.444807,-1.05833 -0.285814,-0.72415 -0.816795,-1.19162 -0.816795,-0.71911 0,0.46395 0.816371,1.97588 1.066881,1.97588 0.165073,0 0.252697,-0.0893 0.194721,-0.19844 z m 1.119648,-0.0505 c 0,-0.31217 -0.516032,-0.64611 -0.705556,-0.45659 -0.189524,0.18952 0.144416,0.70556 0.456587,0.70556 0.136933,0 0.248969,-0.11204 0.248969,-0.24897 z m 48.683327,0.0152 c 0,-0.12856 -0.29765,-0.29064 -0.66146,-0.36019 -0.67883,-0.12977 -0.92322,0.17962 -0.33072,0.4187 0.54036,0.21804 0.99218,0.1914 0.99218,-0.0585 z m -53.974994,-0.26303 c 0,-0.12771 -0.178594,-0.38041 -0.396875,-0.56157 -0.430797,-0.35753 -0.484647,-0.27201 -0.236276,0.37524 0.170009,0.44303 0.633151,0.57933 0.633151,0.18633 z m -1.427647,-0.75449 c -0.268953,-0.26896 -0.490868,0.13596 -0.270197,0.49302 0.166696,0.26972 0.229017,0.26993 0.318638,0.001 0.06128,-0.18383 0.03948,-0.40616 -0.04844,-0.49408 z m -6.509852,0.19292 c 0,-0.14552 -0.185621,-0.26458 -0.41249,-0.26458 -0.22687,0 -0.338906,0.11906 -0.248969,0.26458 0.08994,0.14552 0.275557,0.26459 0.41249,0.26459 0.136933,0 0.248969,-0.11907 0.248969,-0.26459 z m 3.006096,-0.13229 c -0.08376,-0.21828 -0.258619,-0.39687 -0.388571,-0.39687 -0.129951,0 -0.236276,0.17859 -0.236276,0.39687 0,0.21828 0.174857,0.39688 0.388571,0.39688 0.236695,0 0.329046,-0.15513 0.236276,-0.39688 z m 1.49182,0.29698 c 0,-0.0549 -0.178594,-0.24811 -0.396875,-0.42927 -0.325043,-0.26976 -0.396875,-0.25168 -0.396875,0.0999 0,0.2361 0.178594,0.42928 0.396875,0.42928 0.218281,0 0.396875,-0.045 0.396875,-0.0999 z m 0.88943,-0.29698 c -0.161024,-0.41962 -0.624847,-0.55056 -0.624847,-0.17639 0,0.2798 0.289213,0.57327 0.56496,0.57327 0.1167,0 0.14365,-0.1786 0.05989,-0.39688 z m 7.221351,-0.51775 c -0.08617,-0.22456 -0.357457,-0.40829 -0.60286,-0.40829 -0.40717,0 -0.404182,0.0464 0.03417,0.53079 0.526424,0.58169 0.815055,0.51952 0.568688,-0.1225 z m 2.472552,0.53337 c 0,-0.0642 -0.119063,-0.19027 -0.264584,-0.2802 -0.14552,-0.0899 -0.264583,-0.0374 -0.264583,0.11667 0,0.15411 0.119063,0.2802 0.264583,0.2802 0.145521,0 0.264584,-0.0525 0.264584,-0.11667 z m 0.793749,-0.14791 c 0,-0.14552 -0.126089,-0.26458 -0.280197,-0.26458 -0.15411,0 -0.206614,0.11906 -0.116677,0.26458 0.08994,0.14552 0.216025,0.26458 0.280198,0.26458 0.06417,0 0.116676,-0.11906 0.116676,-0.26458 z m 45.508335,0 c 0,-0.14552 -0.12609,-0.26458 -0.2802,-0.26458 -0.15411,0 -0.20662,0.11906 -0.11668,0.26458 0.0899,0.14552 0.21603,0.26458 0.2802,0.26458 0.0642,0 0.11668,-0.11906 0.11668,-0.26458 z m -1.85209,-0.26458 c 0,-0.14552 -0.18562,-0.26459 -0.41249,-0.26459 -0.22687,0 -0.3389,0.11907 -0.24897,0.26459 0.0899,0.14552 0.27556,0.26458 0.41249,0.26458 0.13694,0 0.24897,-0.11906 0.24897,-0.26458 z m -53.302656,-0.51157 c -0.214108,-0.34643 -0.936921,-0.37498 -0.936921,-0.037 0,0.13485 0.208359,0.29153 0.463021,0.34817 0.577398,0.12843 0.697038,0.0499 0.4739,-0.31117 z m 52.244326,0.39489 c 0,-0.0642 -0.11906,-0.19026 -0.26458,-0.2802 -0.14552,-0.0899 -0.26459,-0.0374 -0.26459,0.11668 0,0.15411 0.11907,0.2802 0.26459,0.2802 0.14552,0 0.26458,-0.0525 0.26458,-0.11668 z m -60.029265,-4.29278 c -1.017586,-2.01318 -2.032405,-3.89846 -2.255154,-4.1895 -0.401458,-0.52454 -0.405072,-0.5241 -0.413413,0.0505 -0.0046,0.31883 0.113937,0.65531 0.263478,0.74774 0.149541,0.0924 0.993407,1.67702 1.875257,3.52134 1.668131,3.48876 2.135269,4.26438 2.28956,3.80151 0.04973,-0.14921 -0.742143,-1.91843 -1.759728,-3.93162 z m 1.27977,0.39436 c -2.039221,-4.07863 -3.63882,-6.83282 -3.968422,-6.83282 -0.416881,0 -0.290742,0.44992 0.419601,1.49667 0.369882,0.54505 1.399504,2.48511 2.288047,4.31123 1.730897,3.55731 2.638498,5.04388 2.794229,4.57669 0.05332,-0.15996 -0.636737,-1.75825 -1.533455,-3.55177 z m 2.922415,3.5982 c 0,-0.76293 -5.981093,-11.48935 -6.406506,-11.48935 -0.364955,0 -0.229076,0.35979 0.747572,1.9795 0.524859,0.87044 1.78804,3.25169 2.807069,5.29166 1.01903,2.03998 1.973091,3.85787 2.120136,4.03977 0.274189,0.33919 0.731729,0.45075 0.731729,0.17842 z m 1.058333,-0.12966 c 0,-0.15509 -0.123252,-0.51228 -0.273892,-0.79375 -0.150641,-0.28148 -0.169752,-0.51178 -0.04247,-0.51178 0.127283,0 0.367044,0.29766 0.532803,0.66146 0.16576,0.3638 0.492449,0.66146 0.725977,0.66146 0.233528,0 0.381088,-0.0893 0.327912,-0.19844 -0.05318,-0.10914 -0.270058,-0.54617 -0.481958,-0.97117 -0.29742,-0.59654 -0.310567,-0.79764 -0.05766,-0.88195 0.476665,-0.15889 0.400938,-0.87715 -0.135404,-1.2843 -0.254661,-0.19331 -0.334946,-0.35526 -0.178412,-0.35989 0.156535,-0.005 0.564242,0.28924 0.906017,0.65304 0.747379,0.79555 1.354873,0.89851 0.639878,0.10845 -0.275258,-0.30416 -0.50207,-0.75064 -0.504028,-0.99219 -0.002,-0.24873 -0.233028,-0.45566 -0.532725,-0.4772 -0.291042,-0.0209 -0.665351,-0.0507 -0.831799,-0.0661 -0.166448,-0.0155 -1.039395,-1.48664 -1.939882,-3.26927 -0.900488,-1.78263 -1.803265,-3.41266 -2.006173,-3.62227 -0.438939,-0.45346 -0.841456,-0.17774 -0.450495,0.30858 0.14906,0.18542 0.865023,1.46822 1.591031,2.85067 0.726007,1.38244 1.705351,3.20522 2.17632,4.05061 0.470968,0.84538 0.798427,1.59494 0.727685,1.66568 -0.149589,0.14959 -1.327917,-1.89057 -3.148726,-5.45171 -0.706845,-1.38245 -1.513391,-2.80942 -1.792325,-3.17105 -0.897429,-1.16348 -0.899498,-0.34108 -0.0031,1.24078 1.705573,3.00987 4.268444,8.05771 4.150775,8.17538 -0.06585,0.0659 -0.570502,-0.74681 -1.121441,-1.80592 -2.35889,-4.53466 -4.417959,-8.14336 -4.646474,-8.14336 -0.315212,0 -0.318946,0.61161 -0.0057,0.93927 0.132146,0.13825 1.184474,2.0373 2.338506,4.22011 1.154032,2.18281 2.443117,4.59383 2.864634,5.35781 0.724972,1.31399 1.171178,1.73578 1.171178,1.10709 z m 26.165794,-1.7024 c -0.822317,-5.31614 -1.13555,-6.96505 -1.457578,-7.67292 -0.198604,-0.43656 -0.310041,-0.55562 -0.247639,-0.26458 0.0624,0.29104 0.24789,1.48166 0.412195,2.64583 0.164305,1.16417 0.340751,2.41432 0.392103,2.77813 0.05135,0.3638 0.175841,1.43536 0.276642,2.38125 0.200052,1.8772 0.336409,2.27912 0.658605,1.94128 0.116178,-0.12182 0.10073,-0.93587 -0.03433,-1.80899 z m 30.322743,1.45521 c -0.0899,-0.14552 -0.28258,-0.26459 -0.4281,-0.26459 -0.14552,0 -0.191,0.11907 -0.10107,0.26459 0.0899,0.14552 0.28259,0.26458 0.42811,0.26458 0.14552,0 0.191,-0.11906 0.10106,-0.26458 z m 0.92604,0.1479 c 0,-0.0642 -0.11906,-0.19026 -0.26458,-0.2802 -0.14552,-0.0899 -0.26458,-0.0374 -0.26458,0.11668 0,0.15411 0.11906,0.2802 0.26458,0.2802 0.14552,0 0.26458,-0.0525 0.26458,-0.11668 z m -50.006244,-0.54478 c 0,-0.21828 -0.174857,-0.39687 -0.388571,-0.39687 -0.236695,0 -0.329045,0.15512 -0.236276,0.39687 0.08376,0.21828 0.258619,0.39688 0.388571,0.39688 0.129952,0 0.236276,-0.1786 0.236276,-0.39688 z m 47.032824,0.19844 c -0.89267,-1.87972 -1.40275,-2.28044 -0.92617,-0.72761 0.15632,0.50933 0.44985,0.92605 0.65231,0.92605 0.20245,0 0.32569,-0.0893 0.27386,-0.19844 z m 0.98905,-0.0661 c -0.0899,-0.14552 -0.27556,-0.26458 -0.41249,-0.26458 -0.13693,0 -0.24897,0.11906 -0.24897,0.26458 0,0.14552 0.18562,0.26459 0.41249,0.26459 0.22687,0 0.3389,-0.11907 0.24897,-0.26459 z m -53.31354,-0.26458 c 0,-0.14552 -0.185621,-0.26458 -0.41249,-0.26458 -0.22687,0 -0.338906,0.11906 -0.248969,0.26458 0.08994,0.14552 0.275558,0.26458 0.41249,0.26458 0.136933,0 0.248969,-0.11906 0.248969,-0.26458 z m 1.058333,0.14791 c 0,-0.0642 -0.119063,-0.19027 -0.264583,-0.2802 -0.145521,-0.0899 -0.264584,-0.0374 -0.264584,0.11667 0,0.15411 0.119063,0.2802 0.264584,0.2802 0.14552,0 0.264583,-0.0525 0.264583,-0.11667 z m 5.027083,-0.14791 c 0,-0.14552 -0.119063,-0.26458 -0.264583,-0.26458 -0.145521,0 -0.264584,0.11906 -0.264584,0.26458 0,0.14552 0.119063,0.26458 0.264584,0.26458 0.14552,0 0.264583,-0.11906 0.264583,-0.26458 z m 48.557364,-1.03839 c -0.0958,-0.30201 -0.28276,-0.54911 -0.41536,-0.54911 -0.13259,0 -0.10523,0.29816 0.0608,0.66258 0.35196,0.77247 0.60957,0.69002 0.35455,-0.11347 z m -55.039655,0.24464 c 0.08994,-0.14552 -0.08866,-0.26458 -0.396875,-0.26458 -0.308218,0 -0.486812,0.11906 -0.396875,0.26458 0.08994,0.14552 0.26853,0.26458 0.396875,0.26458 0.128344,0 0.306938,-0.11906 0.396875,-0.26458 z m 1.021722,-0.13229 c -0.08376,-0.21828 -0.25862,-0.39688 -0.388572,-0.39688 -0.129951,0 -0.236275,0.1786 -0.236275,0.39688 0,0.21828 0.174857,0.39687 0.388571,0.39687 0.236694,0 0.329045,-0.15512 0.236276,-0.39687 z m 3.88272,-0.39091 c -0.175687,-0.10858 -0.300332,-0.3002 -0.276989,-0.42581 0.02334,-0.12561 -0.09544,-0.27435 -0.263971,-0.33052 -0.182563,-0.0609 -0.119874,0.2573 0.155098,0.78713 0.286549,0.55214 0.507721,0.75229 0.583402,0.52795 0.06704,-0.19874 -0.02185,-0.45017 -0.19754,-0.55875 z m 1.313266,0.53881 c 0,-0.13693 -0.119063,-0.32255 -0.264584,-0.41249 -0.145521,-0.0899 -0.264583,0.0221 -0.264583,0.24897 0,0.22687 0.119062,0.41249 0.264583,0.41249 0.145521,0 0.264584,-0.11203 0.264584,-0.24897 z m 1.058333,0.1323 c 0,-0.0642 -0.119063,-0.19027 -0.264583,-0.2802 -0.145521,-0.0899 -0.264584,-0.0374 -0.264584,0.11667 0,0.15411 0.119063,0.2802 0.264584,0.2802 0.14552,0 0.264583,-0.0525 0.264583,-0.11667 z m 18.035145,-0.96477 c -0.132422,-0.35112 -0.318368,-1.28191 -0.413213,-2.06843 -0.217175,-1.80096 -0.692466,-3.7866 -0.98304,-4.10687 -0.250108,-0.27568 -0.143939,0.73931 0.440788,4.21398 0.493533,2.93277 0.584143,3.21181 0.930491,2.86546 0.167912,-0.16792 0.177106,-0.50076 0.02497,-0.90414 z m 0.656712,-1.53028 -0.146538,-1.48937 0.318486,1.10608 c 0.175167,0.60834 0.422573,1.20365 0.549791,1.32291 0.12964,0.12154 0.166764,-0.0157 0.08446,-0.31232 -0.08076,-0.29104 -0.345631,-1.4519 -0.588594,-2.57969 -0.493919,-2.29268 -0.800868,-2.71185 -0.581235,-0.79375 l 0.143907,1.25677 -0.372317,-1.19062 c -0.542712,-1.73554 -0.634538,-1.94306 -0.790668,-1.78693 -0.07749,0.0775 0.03327,0.83867 0.24613,1.69151 0.212863,0.85284 0.466429,2.23684 0.56348,3.07555 0.108669,0.93911 0.280791,1.46045 0.448045,1.35708 0.163139,-0.10083 0.213074,-0.76258 0.125051,-1.65722 z m -20.147065,1.28876 c -0.08994,-0.14552 -0.282584,-0.26459 -0.428105,-0.26459 -0.145521,0 -0.190999,0.11907 -0.101062,0.26459 0.08994,0.14552 0.282584,0.26458 0.428105,0.26458 0.145521,0 0.190998,-0.11906 0.101062,-0.26458 z m 1.190625,0.1479 c 0,-0.0642 -0.119063,-0.19026 -0.264584,-0.2802 -0.145521,-0.0899 -0.264583,-0.0374 -0.264583,0.11668 0,0.15411 0.119062,0.2802 0.264583,0.2802 0.145521,0 0.264584,-0.0525 0.264584,-0.11668 z m -2.645834,-1.06113 c 0,-0.15467 -1.886376,-4.47587 -2.01724,-4.62098 -0.05468,-0.0606 -0.161301,-0.0484 -0.236926,0.0273 -0.198742,0.19874 1.732292,4.7132 2.016045,4.7132 0.130967,0 0.238121,-0.0538 0.238121,-0.11948 z m 0.910353,-0.47584 c -0.101002,-0.32742 -0.347151,-0.91682 -0.546996,-1.30977 -0.458316,-0.90119 -0.461565,-1.15163 -0.01008,-0.77693 0.194302,0.16126 0.512985,0.77711 0.708185,1.36858 0.358589,1.08653 0.694065,1.49819 0.984365,1.20789 0.306852,-0.30685 -1.1116,-2.80001 -1.681899,-2.9562 -0.309164,-0.0847 -0.693564,-0.44245 -0.854224,-0.79506 -0.36994,-0.81193 -0.938435,-0.86215 -0.683975,-0.0604 0.452802,1.42665 1.708372,3.91723 1.974786,3.91723 0.182372,0 0.223955,-0.22538 0.109839,-0.59532 z m -5.452366,-0.92604 c -0.997685,-2.24479 -1.660976,-3.50573 -1.844119,-3.50573 -0.125648,0 -0.228451,0.13216 -0.228451,0.2937 0,0.48233 1.640729,3.41047 1.910995,3.41047 0.137373,0 0.210082,-0.0893 0.161575,-0.19844 z m -1.70145,-1.45521 c -1.747159,-3.4863 -3.082658,-5.74531 -3.312562,-5.60322 -0.143264,0.0885 -0.03514,0.51477 0.252139,0.99397 0.276628,0.46142 0.959316,1.73191 1.517084,2.82332 1.28217,2.50887 1.701959,3.175 2.000856,3.175 0.131236,0 -0.07465,-0.62508 -0.457517,-1.38907 z m -0.37112,-2.45619 c 0,-0.23475 -1.253047,-2.60014 -1.677053,-3.16579 -0.615252,-0.82078 -0.79463,-0.29482 -0.23833,0.69882 1.071989,1.91473 1.526559,2.60478 1.716946,2.60639 0.10914,9.2e-4 0.198437,-0.0618 0.198437,-0.13942 z m 3.439584,-0.0765 c 0,-0.37892 -1.579011,-3.15014 -1.9886,-3.49007 -0.673522,-0.55898 -0.47047,0.17524 0.556163,2.01103 0.841893,1.50545 1.432437,2.1152 1.432437,1.47904 z m 0.274312,-1.35063 c -0.672137,-1.33149 -1.332646,-2.21464 -1.332646,-1.78183 0,0.3891 1.646846,3.35006 1.863255,3.35006 0.143566,0 -0.09521,-0.7057 -0.530609,-1.56823 z m -3.480412,-0.45121 c -1.20733,-2.03488 -1.897038,-2.21667 -0.753557,-0.19862 0.851215,1.50226 1.310985,2.04451 1.539645,1.81585 0.05987,-0.0599 -0.29387,-0.78762 -0.786088,-1.61723 z m 1.444544,0.49809 c -0.836979,-1.62267 -1.566339,-2.58136 -1.738377,-2.28495 -0.201878,0.34781 1.638681,3.54172 2.040996,3.54172 0.241975,0 0.15122,-0.37691 -0.302619,-1.25677 z m 2.871978,-0.14231 c -0.45397,-1.02627 -1.110422,-1.84556 -1.110422,-1.38587 0,0.35382 1.369035,2.82702 1.495104,2.70095 0.07514,-0.0751 -0.09797,-0.66692 -0.384682,-1.31508 z M 49.04986,52.765193 c -0.3638,-0.15311 -0.89958,-0.37823 -1.19062,-0.50025 -0.29104,-0.12203 -0.82682,-0.25673 -1.19063,-0.29935 -0.3638,-0.0426 -0.54239,-0.15368 -0.39687,-0.24681 0.34158,-0.21862 3.75275,0.6419 4.16036,1.04952 0.40028,0.40027 -0.42821,0.39841 -1.38224,-0.003 z m 1.32292,-1.00871 c -0.50932,-0.27885 -1.19393,-0.51198 -1.52135,-0.51808 -0.32743,-0.006 -0.59532,-0.12446 -0.59532,-0.26302 0,-0.13856 0.56555,-0.0708 1.25677,0.15058 0.69123,0.22138 1.46513,0.46769 1.7198,0.54737 0.25466,0.0797 0.46302,0.25004 0.46302,0.37859 0,0.33814 -0.27976,0.27566 -1.32292,-0.29544 z m 2.38125,-0.41875 c -1.23693,-0.5087 -2.75497,-0.99596 -3.37344,-1.0828 -0.61846,-0.0868 -1.12448,-0.26616 -1.12448,-0.39849 0,-0.51818 4.12493,0.68735 6.47209,1.89149 1.64897,0.84596 0.49942,0.6071 -1.97417,-0.4102 z m 91.81041,0.36706 c -0.3638,-0.1555 -1.13771,-0.37598 -1.71979,-0.48997 -0.58208,-0.11398 -1.79427,-0.39263 -2.69375,-0.61922 -0.89948,-0.22659 -2.50683,-0.48206 -3.57188,-0.5677 -1.06505,-0.0857 -2.09139,-0.20662 -2.28076,-0.26882 -0.18937,-0.0622 -1.08233,-0.1861 -1.98437,-0.27533 -1.83592,-0.18163 -2.33263,-0.37424 -0.95657,-0.37094 0.98131,0.002 5.09957,0.42508 6.59254,0.67669 0.64144,0.10811 0.84334,0.0711 0.65694,-0.12039 -0.14801,-0.15206 -1.81489,-0.46324 -3.70417,-0.69151 -1.88928,-0.22827 -3.97084,-0.52555 -4.62569,-0.66062 -1.90589,-0.39312 1.92746,-0.0815 5.24424,0.42633 2.3964,0.3669 3.31082,0.36491 2.9358,-0.006 -0.13705,-0.13569 -3.75931,-0.61915 -6.06337,-0.80927 -3.17625,-0.26208 -4.24568,-0.40802 -4.70383,-0.6419 -1.48422,-0.75766 -3.42146,-1.73298 -3.76284,-1.89442 -1.94185,-0.91834 -4.39361,-1.57234 -5.89443,-1.57234 -0.65053,0 -1.70377,-0.18756 -2.34053,-0.41678 -1.20244,-0.43287 -7.3959,-0.63652 -12.08268,-0.39729 -2.49306,0.12725 -2.87353,-0.0667 -3.08133,-1.57073 l -0.12746,-0.9225 0.2977,0.98071 c 0.16374,0.5394 0.47008,1.04686 0.68077,1.12771 0.30774,0.11809 0.35284,-0.0487 0.22936,-0.84842 l -0.1537,-0.99582 0.40533,1.10961 c 0.25221,0.69046 0.53296,1.06064 0.74318,0.97997 0.27304,-0.10477 0.2703,-0.39008 -0.0143,-1.48723 -0.19368,-0.74668 -0.29668,-1.41306 -0.22888,-1.48086 0.0678,-0.0678 0.17156,0.0426 0.23059,0.24533 0.61244,2.10343 0.82901,2.61755 1.10258,2.61755 0.23164,0 0.18381,-0.48753 -0.17464,-1.78021 -0.55768,-2.01118 -0.59126,-2.2801 -0.25905,-2.07478 0.12903,0.0797 0.31246,0.59278 0.40762,1.14009 0.23422,1.34696 0.68822,2.45032 1.00825,2.45032 0.15022,0 0.18576,-0.25572 0.0827,-0.59531 -0.64927,-2.14007 -0.95784,-3.47937 -0.88671,-3.84871 0.0451,-0.23436 0.36672,0.58037 0.71464,1.81052 0.34792,1.23014 0.73233,2.34775 0.85424,2.48357 0.50707,0.56493 0.51817,-0.18786 0.0258,-1.75231 -0.74355,-2.36273 -0.94448,-3.3119 -0.63347,-2.99255 0.14172,0.14552 0.43854,0.97896 0.6596,1.85208 0.60692,2.39714 0.90624,3.05143 1.32282,2.89158 0.29939,-0.11489 0.25192,-0.45944 -0.25612,-1.85907 -0.65746,-1.81129 -0.84556,-2.97598 -0.35903,-2.22313 0.14106,0.21828 0.2583,0.61292 0.26053,0.87699 0.006,0.69599 1.08131,3.09176 1.38786,3.09176 0.14317,0 0.18028,-0.20836 0.0825,-0.46303 -0.39708,-1.03381 -1.17559,-4.09729 -0.99684,-3.92261 0.10562,0.1032 0.48968,1.10243 0.85348,2.22049 0.41815,1.28508 0.816,2.06128 1.08157,2.11014 0.35868,0.066 0.32758,-0.19864 -0.21266,-1.80941 -0.34802,-1.03768 -0.583,-2.02496 -0.52217,-2.19395 0.0608,-0.16899 0.25788,0.22646 0.43788,0.87879 0.53453,1.93718 1.10312,3.17958 1.45514,3.17958 0.22874,0 0.098,-0.6563 -0.42561,-2.13585 -0.4157,-1.17471 -0.75581,-2.26612 -0.75581,-2.42535 0,-0.61185 0.36199,0.12418 1.02765,2.08954 0.87073,2.57083 1.53473,2.98229 0.78618,0.48718 -0.28873,-0.96241 -0.48097,-1.88183 -0.42719,-2.04315 0.0538,-0.16132 0.37105,0.62725 0.70506,1.75238 0.33402,1.12513 0.65637,1.99661 0.71635,1.93664 0.06,-0.06 -0.0694,-1.04183 -0.28755,-2.1819 -0.21813,-1.14006 -0.34834,-2.1211 -0.28936,-2.18008 0.25434,-0.25435 0.63898,0.99725 0.81554,2.65374 0.17366,1.62925 0.46782,2.32471 0.83006,1.96246 0.0755,-0.0755 -0.007,-1.06974 -0.18294,-2.20931 -0.22827,-1.47657 -0.66094,-2.75617 -1.50577,-4.45318 -0.65201,-1.30969 -1.29198,-2.49436 -1.42217,-2.6326 -0.13018,-0.13825 -0.2367,-0.36974 -0.2367,-0.51443 0,-0.87203 2.19649,3.03761 3.0507,5.43009 0.30836,0.86368 0.72972,3.39369 0.67732,4.06694 -0.0113,0.14552 0.48469,0.39938 1.10226,0.56412 0.61757,0.16475 1.3396,0.38907 1.60451,0.49849 0.51802,0.21395 0.51623,0.41723 0.0239,-2.71626 -0.0857,-0.5457 -0.0817,-0.91865 0.009,-0.82878 0.0907,0.0899 0.28689,0.92058 0.43593,1.84602 0.29676,1.84273 0.49507,2.08154 1.73356,2.08757 0.81473,0.004 0.82769,-0.0152 0.62317,-0.92199 -0.11816,-0.52393 -0.10606,-0.92604 0.0279,-0.92604 0.1302,0 0.23672,0.22838 0.23672,0.50752 0,0.80525 0.28803,1.34456 0.71808,1.34456 0.25319,0 0.33873,-0.15151 0.23627,-0.41852 -0.0883,-0.23018 -0.1606,-0.69155 -0.1606,-1.02526 0,-0.46931 -0.18936,-0.64461 -0.83601,-0.77394 -0.4598,-0.092 -0.76165,-0.24156 -0.67076,-0.33245 0.21544,-0.21544 -0.28816,-1.154 -0.6192,-1.154 -0.1404,0 -0.2605,0.20836 -0.26689,0.46302 -0.0105,0.417 -0.42723,-0.51493 -1.03533,-2.3151 -0.12289,-0.3638 -0.39628,-1.07818 -0.60752,-1.5875 -0.75276,-1.81496 -0.80963,-1.98824 -0.7581,-2.30997 0.0287,-0.17907 -0.58435,-0.98275 -1.36231,-1.78594 -0.77795,-0.80319 -1.2633,-1.46034 -1.07857,-1.46034 0.42584,0 2.41799,2.05824 2.62576,2.71287 0.17256,0.54369 1.12228,0.9913 2.10331,0.9913 0.35228,0 0.75431,0.22307 0.9031,0.50109 0.40655,0.75964 1.59735,4.61936 1.46576,4.75095 -0.0634,0.0634 -0.19044,-0.0803 -0.28219,-0.31938 -0.20879,-0.54411 -0.90396,-0.57323 -0.90396,-0.0379 0,0.21828 0.17009,0.39687 0.37797,0.39687 0.57539,0 1.20953,0.75801 1.20953,1.4458 0,0.53493 0.68534,1.13206 0.9712,0.8462 0.1462,-0.14621 -1.46724,-4.88741 -2.05943,-6.05177 -0.52761,-1.03736 -0.67544,-1.82338 -0.26075,-1.38637 0.44801,0.47212 2.08072,4.74622 2.39538,6.27062 0.20557,0.99589 0.44463,1.52136 0.69215,1.52136 0.20796,0 0.37811,-0.0581 0.37811,-0.12913 0,-0.30852 -1.67712,-5.32774 -2.14467,-6.41849 -0.28295,-0.66011 -0.45891,-1.25574 -0.39102,-1.32364 0.18667,-0.18666 0.89983,1.58083 1.99646,4.94798 0.54273,1.66642 1.15397,3.1176 1.35832,3.22485 0.20434,0.10725 1.33761,0.67127 2.51836,1.25338 1.18076,0.58212 2.84763,1.44596 3.70417,1.91967 2.89176,1.59926 3.89435,2.08165 4.31416,2.07574 0.30144,-0.004 0.23353,-0.15139 -0.24328,-0.52712 l -0.66146,-0.52123 0.79375,0.11851 c 0.43657,0.0652 1.98438,0.18441 3.43959,0.26495 1.45521,0.0805 3.47927,0.26549 4.49791,0.41102 3.18746,0.45536 11.41054,2.24023 10.70151,2.32283 -0.37156,0.0433 -1.50265,-0.1032 -2.51354,-0.32551 -7.63396,-1.67889 -16.01639,-2.78414 -15.2997,-2.01733 0.16313,0.17454 0.81798,0.37112 1.45521,0.43685 0.63723,0.0657 2.34923,0.309 3.80444,0.54061 1.45521,0.2316 2.79466,0.42734 2.97656,0.43497 0.1819,0.008 0.33073,0.12582 0.33073,0.26266 0,0.13683 -0.17055,0.18334 -0.37901,0.10335 -0.66374,-0.2547 -3.73,-0.51898 -3.52871,-0.30413 0.10633,0.11348 1.46317,0.42267 3.01521,0.68707 4.19317,0.71435 6.96648,1.38911 6.19838,1.50811 -0.35599,0.0551 -1.36802,-0.0892 -2.24896,-0.32085 -1.56157,-0.41058 -6.00569,-1.22482 -6.59729,-1.20875 -0.76851,0.0209 0.76054,0.5147 3.26117,1.05321 1.51992,0.32731 3.12727,0.75355 3.57188,0.9472 l 0.80837,0.35209 -0.79375,-0.006 c -0.43656,-0.004 -1.0914,-0.13364 -1.4552,-0.28914 z m -14.70069,-4.47263 c -0.12291,-0.19887 0.002,-0.19344 0.39593,0.0172 0.31667,0.16948 0.71458,0.26187 0.88424,0.20532 0.16966,-0.0566 -0.58108,-0.57853 -1.66832,-1.15994 -1.08723,-0.58141 -2.33397,-1.25352 -2.77053,-1.49357 -2.35367,-1.29422 -6.10949,-2.76606 -6.37665,-2.49891 -0.0686,0.0686 0.56423,0.39852 1.4062,0.73324 2.09673,0.83353 7.83155,3.69915 7.68873,3.84197 -0.0637,0.0637 -1.35626,-0.53018 -2.87228,-1.31981 -2.86058,-1.48992 -6.33407,-2.91146 -6.3205,-2.58668 0.004,0.10262 1.85593,1.07955 4.11476,2.17095 4.7029,2.27232 5.91459,2.73128 5.51842,2.09027 z m -10.43472,-6.85277 c -0.15576,-0.29104 -0.44646,-0.52916 -0.646,-0.52916 -0.23253,0 -0.31311,0.18999 -0.22442,0.52916 0.0777,0.29721 0.3609,0.52917 0.646,0.52917 0.42563,0 0.46188,-0.0855 0.22442,-0.52917 z m -1.69496,-1.56006 c -0.35135,-0.38824 -0.37559,-0.53089 -0.10715,-0.63065 0.24816,-0.0922 0.21186,-0.18465 -0.12753,-0.32471 -0.61895,-0.25542 -0.69799,-0.14658 -0.5297,0.72949 0.098,0.51007 0.30102,0.7276 0.6791,0.7276 0.51274,0 0.51695,-0.0247 0.0853,-0.50173 z m 1.16579,-0.5566 c 0,-0.14552 -0.18562,-0.26459 -0.41249,-0.26459 -0.22687,0 -0.33891,0.11907 -0.24897,0.26459 0.0899,0.14552 0.27556,0.26458 0.41249,0.26458 0.13693,0 0.24897,-0.11906 0.24897,-0.26458 z m -1.5999,-1.20557 c -0.39334,-0.47394 -1.07655,-0.505 -0.89844,-0.0408 0.072,0.1876 0.37491,0.35947 0.67316,0.38193 0.44401,0.0334 0.48483,-0.0284 0.22528,-0.34109 z m 1.33532,0.14723 c 0,-0.14552 -0.18562,-0.26458 -0.41249,-0.26458 -0.22687,0 -0.33891,0.11906 -0.24897,0.26458 0.0899,0.14552 0.27556,0.26459 0.41249,0.26459 0.13693,0 0.24897,-0.11907 0.24897,-0.26459 z m -0.52917,-1.01542 c 0,-0.24053 -1.8656,-0.64675 -2.06312,-0.44923 -0.0586,0.0586 -0.0434,0.20862 0.0337,0.33339 0.19096,0.30898 2.02945,0.41392 2.02945,0.11584 z m -0.26458,-0.82105 c 0,-0.31217 -0.51603,-0.64611 -0.70556,-0.45658 -0.18952,0.18952 0.14442,0.70555 0.45659,0.70555 0.13693,0 0.24897,-0.11203 0.24897,-0.24897 z m -1.71979,-0.54478 c -0.0899,-0.14552 -0.27556,-0.26458 -0.41249,-0.26458 -0.13694,0 -0.24897,0.11906 -0.24897,0.26458 0,0.14552 0.18562,0.26459 0.41249,0.26459 0.22687,0 0.3389,-0.11907 0.24897,-0.26459 z m -59.39896,16.68211 c -0.3638,-0.11315 -1.37583,-0.50671 -2.24896,-0.87457 -0.87312,-0.36785 -2.27211,-0.80926 -3.10885,-0.9809 -0.83675,-0.17164 -1.52136,-0.41004 -1.52136,-0.52977 0,-0.11974 0.46769,-0.11262 1.03932,0.0158 1.48601,0.33388 6.14419,2.02541 6.46723,2.34844 0.30602,0.30602 0.29069,0.30654 -0.62738,0.021 z m 1.07701,-0.71044 c -1.61142,-0.71543 -5.21627,-1.85452 -6.9475,-2.19533 -0.92235,-0.18157 -0.99212,-0.23016 -0.36412,-0.2536 0.84172,-0.0314 4.0844,0.70604 4.51482,1.02676 0.14552,0.10843 0.91943,0.41038 1.71979,0.67098 2.13109,0.69391 3.00758,1.09298 2.74543,1.25003 -0.12754,0.0764 -0.87833,-0.14807 -1.66842,-0.49884 z m -10.33743,0.16792 c 0,-0.14553 0.12609,-0.26459 0.2802,-0.26459 0.15411,0 0.20662,0.11906 0.11668,0.26459 -0.0899,0.14552 -0.21603,0.26458 -0.2802,0.26458 -0.0642,0 -0.11668,-0.11906 -0.11668,-0.26458 z m 12.7,-0.64348 c -0.69612,-0.37645 -5.73605,-1.82299 -7.54062,-2.16429 -0.77897,-0.14732 -0.90168,-0.227 -0.46487,-0.30186 0.91693,-0.15712 8.22231,1.86321 9.32841,2.57982 0.642657,0.41635 -0.528958,0.31569 -1.32292,-0.11367 z m 86.38646,-0.32486 c -2.88524,-0.60358 -3.71107,-0.88409 -2.11667,-0.71897 1.54034,0.15952 5.15938,0.89773 5.15938,1.05241 0,0.18855 -1.14976,0.0626 -3.04271,-0.33344 z m -75.53854,-0.43626 c -1.254796,-0.65068 -7.431226,-2.88508 -9.70216,-3.50987 -2.34055,-0.64395 -3.32062,-1.11724 -1.67492,-0.80884 2.576573,0.48284 12.538042,3.92429 12.858107,4.44216 0.210717,0.34095 -0.737954,0.26187 -1.481027,-0.12345 z m -9.260417,-0.21044 c -2.767893,-0.98684 -5.111333,-1.61245 -6.539613,-1.74582 -0.92374,-0.0863 -1.75345,-0.27646 -1.8438,-0.42266 -0.33403,-0.54047 6.6078,0.98877 8.694927,1.91543 1.149321,0.51029 0.923806,0.69347 -0.311514,0.25305 z m 1.190625,-0.61911 c -1.438337,-0.65593 -7.351818,-2.26377 -8.325928,-2.26377 -0.46477,0 -0.53708,-0.0787 -0.3165,-0.3445 0.15725,-0.18947 0.22635,-0.63596 0.15356,-0.99219 -0.14327,-0.70108 -0.21277,-0.76278 0.86046,0.76388 0.55977,0.79626 0.61958,0.16069 0.0838,-0.89025 -0.60818,-1.19291 -0.62715,-1.27703 -0.23303,-1.03346 0.16068,0.0993 0.50836,0.6635 0.77263,1.25378 0.26427,0.59027 0.63883,1.10364 0.83235,1.14083 1.46433,0.28137 8.033296,2.55433 8.39959,2.90637 0.337264,0.32415 -1.090793,-0.0226 -2.22691,-0.54069 z m 9.921875,0.30642 c -1.155877,-0.58882 -6.384032,-2.50276 -9.194271,-3.36586 -3.196152,-0.98162 -3.656632,-1.48367 -0.595312,-0.64905 0.979412,0.26702 6.409612,2.23748 8.246159,2.99229 1.115648,0.45852 2.157445,0.83368 2.315104,0.83368 0.157659,0 0.286653,0.11906 0.286653,0.26458 0,0.35007 -0.25901,0.33156 -1.058333,-0.0756 z m -6.879166,-0.35809 c -1.586736,-0.70768 -6.217097,-2.15975 -7.500967,-2.35228 -0.67368,-0.10102 -1.16878,-0.27445 -1.10022,-0.38539 0.33242,-0.53786 9.924103,2.39036 9.924103,3.02971 0,0.22413 -0.327899,0.15174 -1.322916,-0.29204 z m 7.828611,-0.26684 c -1.458084,-0.75841 -6.612109,-2.69418 -9.789857,-3.67691 -1.151446,-0.35609 -2.153555,-0.70746 -2.22691,-0.78081 -0.354496,-0.3545 0.963659,-0.0456 3.440499,0.80622 1.502617,0.51678 3.622784,1.24335 4.711482,1.6146 2.17747,0.74252 4.898898,2.04346 5.16064,2.46697 0.220498,0.35677 0.210519,0.35346 -1.295854,-0.43007 z m 15.057845,-0.88693 c -0.08994,-0.14552 -0.03743,-0.26458 0.116677,-0.26458 0.154109,0 0.280198,0.11906 0.280198,0.26458 0,0.14552 -0.0525,0.26459 -0.116676,0.26459 -0.06417,0 -0.190262,-0.11907 -0.280199,-0.26459 z m -6.349999,-0.26458 c -0.08994,-0.14552 -0.04446,-0.26458 0.101061,-0.26458 0.145521,0 0.338168,0.11906 0.428105,0.26458 0.08994,0.14552 0.04446,0.26458 -0.101062,0.26458 -0.14552,0 -0.338168,-0.11906 -0.428104,-0.26458 z m 10.451041,-0.82045 c -1.67349,-0.59368 -3.57849,-1.23785 -4.233333,-1.43147 -4.133639,-1.22223 -4.850252,-1.4527 -4.996541,-1.60695 -0.340727,-0.35927 1.867328,0.25922 6.848624,1.91832 2.837656,0.94513 5.272484,1.82792 5.410729,1.96177 0.369449,0.3577 0.28594,0.3345 -3.029479,-0.84167 z m 6.418826,0.3597 c -1.053552,-0.38013 -1.863024,-0.74366 -1.798828,-0.80786 0.125923,-0.12592 2.421997,0.59703 3.714377,1.16953 1.36018,0.60253 0.0945,0.36355 -1.915549,-0.36167 z m -11.710493,0.19617 c -0.339168,-0.21919 -0.329551,-0.25707 0.06615,-0.26054 0.254662,-0.002 0.463021,0.11501 0.463021,0.26054 0,0.32268 -0.02984,0.32268 -0.529167,0 z m 13.951262,-0.45601 c -0.98529,-0.37373 -1.750106,-0.72084 -1.69958,-0.77137 0.13062,-0.13062 3.43988,0.98537 3.74238,1.26206 0.40078,0.36657 -0.0995,0.24639 -2.0428,-0.49069 z m 2.5638,0.0894 c -0.73937,-0.34428 -2.55991,-1.07249 -4.04565,-1.61825 -1.48574,-0.54576 -2.647483,-1.04615 -2.581653,-1.11198 0.254162,-0.25416 8.103913,2.79591 8.103913,3.14883 0,0.28034 0.0624,0.29802 -1.47661,-0.4186 z m -19.822353,-0.87992 c -0.873125,-0.36778 -1.825625,-0.77549 -2.116667,-0.90603 -0.291041,-0.13054 -1.541197,-0.58605 -2.778124,-1.01225 -2.513393,-0.86601 -2.368909,-1.08363 0.187368,-0.2822 2.016651,0.63225 6.203482,2.34282 6.546277,2.67455 0.398756,0.38588 -0.106527,0.25561 -1.838854,-0.47407 z m 13.890624,-0.47328 c -0.864116,-0.49397 -0.561752,-0.49951 0.564936,-0.0103 0.48965,0.21258 0.711679,0.38696 0.493397,0.3875 -0.218281,5.4e-4 -0.694531,-0.16918 -1.058333,-0.37715 z M 56.18706,44.727783 c -0.14191,-0.37327 -0.25803,-0.75085 -0.25803,-0.83906 0,-0.0882 -0.19705,-0.37811 -0.43788,-0.64423 -0.24084,-0.26612 -0.30663,-0.48386 -0.14622,-0.48386 0.16042,0 0.59068,0.59531 0.95613,1.32292 0.36546,0.7276 0.54737,1.32292 0.40425,1.32292 -0.14311,0 -0.37633,-0.30541 -0.51825,-0.67869 z m 39.694051,-0.24736 c -0.509323,-0.19614 -0.731352,-0.36567 -0.493397,-0.37674 0.237954,-0.0111 0.833266,0.1538 1.322916,0.36639 1.115594,0.48434 0.423733,0.49298 -0.829519,0.0103 z M 56.31257,43.263493 c -0.37603,-0.74207 -0.62859,-1.40434 -0.56123,-1.4717 0.12174,-0.12174 0.80204,1.0875 1.2521,2.22561 0.42711,1.0801 0.005,0.61964 -0.69087,-0.75391 z m 0.66211,-0.29594 c -0.19168,-0.47761 -0.56327,-1.15026 -0.82576,-1.49479 -0.2625,-0.34452 -0.40621,-0.74137 -0.31938,-0.88188 0.18591,-0.3008 0.93258,0.86326 1.37683,2.14651 0.40643,1.174 0.22101,1.3582 -0.23169,0.23016 z m 3.20857,0.16791 c 0.0127,-0.30823 0.0754,-0.37092 0.15985,-0.15985 0.0764,0.19099 0.067,0.4192 -0.0209,0.50711 -0.0879,0.0879 -0.15045,-0.0683 -0.13896,-0.34726 z m 22.683669,-0.0264 c 0.190996,-0.0764 0.419199,-0.067 0.507118,0.0209 0.08792,0.0879 -0.06835,0.15045 -0.347265,0.13896 -0.308225,-0.0127 -0.37092,-0.0754 -0.159853,-0.15985 z m 34.606041,-0.50236 c -0.22649,-0.59021 -0.19999,-1.9631 0.0378,-1.96089 0.10914,0.001 0.22266,0.53679 0.25226,1.19062 0.0566,1.25063 -0.0238,1.46421 -0.2901,0.77027 z m -60.16794,-1.89661 c -0.17456,-0.83673 -0.49817,-1.86647 -0.71913,-2.2883 -0.22096,-0.42183 -0.34839,-0.82033 -0.28318,-0.88554 0.19874,-0.19873 1.18437,1.9302 1.45854,3.15036 0.14187,0.63139 0.16866,1.23727 0.0595,1.3464 -0.10912,0.10913 -0.34122,-0.48618 -0.51578,-1.32292 z m 42.280258,0.68353 c 0,-0.96342 0.115497,-0.92851 0.364695,0.11024 0.103627,0.43194 0.06499,0.72761 -0.09507,0.72761 -0.148293,0 -0.269624,-0.37704 -0.269625,-0.83785 z m 14.308392,0.15434 c 0.0127,-0.30823 0.0754,-0.37092 0.15985,-0.15985 0.0764,0.19099 0.067,0.4192 -0.0209,0.50711 -0.0879,0.0879 -0.15046,-0.0684 -0.13897,-0.34726 z m 0.93346,4.1e-4 c -0.0883,-0.23019 -0.1606,-0.81489 -0.1606,-1.29935 0,-0.48445 -0.23332,-1.63046 -0.51848,-2.54669 -0.28516,-0.91622 -0.471,-1.71333 -0.41299,-1.77134 0.18036,-0.18036 1.15174,3.45543 1.27685,4.77912 0.12508,1.32339 0.0799,1.52813 -0.18478,0.83826 z m -1.15221,-1.56586 c 0.003,-0.58209 0.0571,-0.78906 0.1204,-0.45994 0.0633,0.32912 0.0609,0.80537 -0.005,1.05833 -0.0662,0.25297 -0.118,-0.0163 -0.11506,-0.59839 z m -14.179509,-0.0662 c -0.0666,-0.10914 -0.249498,-0.67469 -0.406434,-1.25677 -0.156936,-0.58208 -0.704782,-1.6938 -1.217435,-2.47049 -0.973628,-1.47507 -1.105278,-1.76881 -0.673038,-1.50167 0.488259,0.30176 2.128093,3.34884 2.361653,4.38834 0.22236,0.98965 0.200378,1.27504 -0.06475,0.84059 z m -1.141748,-0.73901 c -0.08617,-0.22456 -0.09755,-0.46741 -0.0253,-0.53966 0.07226,-0.0723 0.194881,0.11147 0.272499,0.40828 0.164875,0.63049 -0.01832,0.72784 -0.247199,0.13138 z m 3.777847,10e-4 c -0.0907,-0.23646 -0.15475,-0.62855 -0.14224,-0.87131 0.0125,-0.24276 0.12763,-0.0902 0.25583,0.33907 0.24942,0.83509 0.16121,1.24837 -0.11359,0.53224 z m 12.52373,-2.56767 c -1.18681,-3.14503 -1.16274,-3.06372 -0.72498,-2.44919 0.44527,0.62509 1.90652,4.60649 1.74862,4.76439 -0.0599,0.0599 -0.52053,-0.98195 -1.02364,-2.3152 z m -11.77355,1.63425 c -0.0959,-0.1552 -0.11766,-0.33893 -0.0483,-0.40828 0.0694,-0.0694 0.1966,0.0576 0.28277,0.28218 0.17891,0.46623 0.0264,0.54824 -0.23447,0.1261 z m -5.500743,-1.46485 c -0.395898,-0.80722 -0.601053,-1.39428 -0.4559,-1.30457 0.285565,0.17649 1.397854,2.5501 1.259723,2.68823 -0.04621,0.0462 -0.407926,-0.57644 -0.803823,-1.38366 z m 8.574353,-0.79661 c -0.16907,-0.67141 -0.66753,-1.93418 -1.10771,-2.80616 -0.4804,-0.95167 -0.66093,-1.54067 -0.45163,-1.47345 0.54631,0.17544 2.59649,5.50034 2.11772,5.50034 -0.13805,0 -0.38932,-0.54933 -0.55838,-1.22073 z m 4.51536,0.41988 c -0.17602,-0.50542 -0.6339,-1.39519 -1.01749,-1.97727 -0.42911,-0.65114 -0.51951,-0.91203 -0.23495,-0.67808 0.58587,0.48169 1.80734,2.86974 1.67338,3.2716 -0.0555,0.16648 -0.24491,-0.11084 -0.42094,-0.61625 z m 2.01774,-0.45816 c -0.25209,-0.71454 -0.7581,-1.7409 -1.12448,-2.28079 -0.70241,-1.03506 -0.85268,-1.59356 -0.387,-1.43833 0.38707,0.12902 2.15828,4.10041 2.0544,4.60635 -0.0465,0.22657 -0.29083,-0.17268 -0.54292,-0.88723 z m -9.43285,0.61517 c -0.0169,-0.28135 -0.27769,-1.20724 -0.57957,-2.05752 -0.30189,-0.85028 -0.49996,-1.69165 -0.44017,-1.8697 0.16158,-0.48114 1.31478,3.42424 1.17244,3.97053 -0.10774,0.41349 -0.12559,0.40842 -0.1527,-0.0433 z m 0.75957,-0.69204 c -0.16657,-0.61859 -0.59265,-1.78 -0.94686,-2.58091 -0.3542,-0.80092 -0.58797,-1.51224 -0.51949,-1.58072 0.1625,-0.16251 1.3818,2.60045 1.74841,3.96194 0.15696,0.5829 0.22585,1.11935 0.15309,1.19211 -0.0728,0.0728 -0.26858,-0.37383 -0.43515,-0.99242 z m 4.27758,-0.0532 c -0.15765,-0.61846 -0.51614,-1.57096 -0.79664,-2.11667 -0.3416,-0.66459 -0.40518,-0.99218 -0.19255,-0.99218 0.41102,0 1.28065,1.99454 1.60582,3.68303 0.20086,1.04295 -0.33053,0.54815 -0.61663,-0.57418 z m -45.133841,-0.89411 c -0.383567,-0.83782 -1.05063,-2.09739 -1.482362,-2.79904 -0.796927,-1.29517 -1.009057,-1.86229 -0.509857,-1.36309 0.637952,0.63795 3.016913,5.35814 2.806522,5.56853 -0.0643,0.0643 -0.430736,-0.56858 -0.814303,-1.4064 z m 43.715751,-0.31943 c -0.96293,-2.37148 -1.14789,-3.03216 -0.50913,-1.81867 0.67871,1.28937 1.46417,3.34452 1.32935,3.47821 -0.0574,0.0569 -0.42649,-0.68988 -0.82022,-1.65954 z m -44.246277,1.09266 c -0.143586,-0.37708 -0.113195,-0.40748 0.148112,-0.14811 0.180821,0.17947 0.262115,0.39297 0.180653,0.47443 -0.08146,0.0815 -0.229406,-0.0654 -0.328765,-0.32632 z m 41.787157,-1.60389 c -0.43657,-1.10483 -0.83897,-2.12292 -0.89422,-2.26243 -0.0553,-0.1395 0.0217,-0.17811 0.17113,-0.0858 0.29941,0.18504 1.78708,4.09016 1.62074,4.2544 -0.0572,0.0564 -0.46109,-0.80137 -0.89765,-1.90619 z m 8.51627,0.15381 c -0.39798,-0.74194 -0.66925,-1.40332 -0.60283,-1.46974 0.0664,-0.0664 0.43444,0.49822 0.81781,1.25476 0.90713,1.79014 0.72672,1.97055 -0.21498,0.21498 z m -52.93359,0.43625 c -0.25531,-0.66534 -0.17999,-0.83702 0.13191,-0.30065 0.15443,0.26557 0.22505,0.5386 0.15693,0.60672 -0.0681,0.0681 -0.1981,-0.0696 -0.28884,-0.30607 z m 1.617974,-0.79606 c -0.391373,-0.64795 -0.65648,-1.17808 -0.589128,-1.17808 0.180034,0 1.506797,2.15007 1.395464,2.26141 -0.05211,0.0521 -0.414963,-0.43539 -0.806336,-1.08333 z m -1.259084,-0.25844 c -0.18408,-0.22179 -0.26784,-0.47012 -0.18613,-0.55182 0.0817,-0.0817 0.28146,0.0998 0.44389,0.40327 0.346563,0.64755 0.217909,0.7217 -0.25776,0.14855 z m 58.23452,-1.60315 c 0.0127,-0.30823 0.0754,-0.37092 0.15985,-0.15985 0.0764,0.19099 0.067,0.4192 -0.0209,0.50711 -0.0879,0.0879 -0.15045,-0.0684 -0.13896,-0.34726 z m -4.47111,-2.27361 c -0.0262,-0.535 -0.299,-2.20188 -0.60615,-3.70416 -0.75599,-3.69755 -0.82674,-4.26636 -0.35622,-2.86372 0.69199,2.06285 1.21074,5.01062 1.10853,6.29918 -0.0848,1.06912 -0.10509,1.10642 -0.14616,0.2687 z m -4.23925,0.0467 c 0,-0.3638 0.0601,-0.51263 0.13345,-0.33073 0.0734,0.1819 0.0734,0.47956 0,0.66146 -0.0734,0.1819 -0.13345,0.0331 -0.13345,-0.33073 z m 0.98279,0.0661 c -0.0463,-0.63535 -0.12769,-1.31375 -0.32524,-2.71198 l -0.16821,-1.19063 0.35065,0.92604 c 0.35425,0.93555 0.58797,3.43959 0.32105,3.43959 -0.0795,0 -0.15968,-0.20836 -0.17825,-0.46302 z m 0.56293,0.19843 c 0,-0.14552 0.11204,-0.26458 0.24897,-0.26458 0.13693,0 0.32256,0.11906 0.41249,0.26458 0.0899,0.14552 -0.0221,0.26459 -0.24897,0.26459 -0.22687,0 -0.41249,-0.11907 -0.41249,-0.26459 z m -3.52777,-0.17639 c -0.097,-0.097 -0.1793,-0.60303 -0.18286,-1.12448 -0.006,-0.83732 -0.14042,-1.63355 -0.66774,-3.94682 -0.0774,-0.33961 -0.0373,-0.55352 0.0892,-0.47535 0.27081,0.16737 0.76922,2.3669 0.98208,4.33398 0.14926,1.37943 0.11797,1.55135 -0.2207,1.21267 z m 0.87735,-0.6835 c -0.005,-0.67323 -0.64833,-3.79332 -0.92714,-4.49792 -0.10077,-0.25466 -0.0744,-0.46302 0.0587,-0.46302 0.13304,0 0.43727,0.80367 0.67607,1.78594 0.65322,2.6869 0.78929,3.77031 0.47356,3.77031 -0.15211,0 -0.27864,-0.26789 -0.28116,-0.59531 z m 6.25254,-0.69235 c -0.10392,-0.78097 -0.13241,-1.47649 -0.0633,-1.5456 0.17644,-0.17645 0.5104,2.1954 0.36866,2.61828 -0.064,0.191 -0.20144,-0.29171 -0.30536,-1.07268 z m 2.77901,-0.86013 c -0.17188,-1.0408 -0.26127,-1.94359 -0.19864,-2.00622 0.0626,-0.0626 0.25707,0.73511 0.4321,1.77276 0.17502,1.03765 0.26441,1.94045 0.19864,2.00622 -0.0658,0.0658 -0.26022,-0.73197 -0.4321,-1.77276 z m -11.21104,-0.4319 c -0.0762,-0.98226 -0.22398,-1.99429 -0.32844,-2.24896 -0.10446,-0.25466 -0.0787,-0.46302 0.0572,-0.46302 0.13594,0 0.3868,0.75787 0.55747,1.68415 0.36906,2.00294 0.39248,2.81377 0.0813,2.81377 -0.12596,0 -0.29136,-0.80367 -0.36754,-1.78594 z m 5.11309,1.07395 c -0.0102,-0.46435 0.10047,-0.91787 0.24599,-1.0078 0.31733,-0.19612 0.31733,0.58444 0,1.32291 -0.19168,0.44606 -0.23031,0.39657 -0.24599,-0.31511 z m -2.33483,-0.94166 c -0.16985,-0.76398 -0.37987,-1.68671 -0.46671,-2.05052 l -0.15789,-0.66146 0.38159,0.66146 c 0.35107,0.60857 0.88963,3.43959 0.65432,3.43959 -0.0564,0 -0.24147,-0.62508 -0.41131,-1.38907 z"
       id="path6" />
  </g>
</svg>
