<?xml version="1.0" encoding="UTF-8" standalone="no"?>
<!-- Created with Inkscape (http://www.inkscape.org/) -->

<svg
   width="139.20789mm"
   height="45.428894mm"
   viewBox="0 0 139.20786 45.428898"
   version="1.1"
   id="svg1"
   inkscape:version="1.4.1-rc (06eac75fbf, 2025-03-29)"
   sodipodi:docname="hill4a.svg"
   xmlns:inkscape="http://www.inkscape.org/namespaces/inkscape"
   xmlns:sodipodi="http://sodipodi.sourceforge.net/DTD/sodipodi-0.dtd"
   xmlns="http://www.w3.org/2000/svg"
   xmlns:svg="http://www.w3.org/2000/svg">
  <sodipodi:namedview
     id="namedview1"
     pagecolor="#ffffff"
     bordercolor="#000000"
     borderopacity="0.25"
     inkscape:showpageshadow="2"
     inkscape:pageopacity="0.0"
     inkscape:pagecheckerboard="0"
     inkscape:deskcolor="#d1d1d1"
     inkscape:document-units="mm"
     inkscape:zoom="0.72248176"
     inkscape:cx="262.98242"
     inkscape:cy="85.123256"
     inkscape:window-width="1850"
     inkscape:window-height="1016"
     inkscape:window-x="0"
     inkscape:window-y="0"
     inkscape:window-maximized="1"
     inkscape:current-layer="layer1" />
  <defs
     id="defs1" />
  <g
     inkscape:label="Layer 1"
     inkscape:groupmode="layer"
     id="layer1"
     transform="translate(-36.777051,-125.41282)">
    <path
       style="fill:#000000"
       d="m 67.28095,170.74199 c -0.43665,-0.43664 -0.13139,-0.63491 0.97754,-0.63491 1.79839,0 5.0826,-0.48058 7.42748,-1.08687 1.16417,-0.30101 2.5656,-0.66136 3.1143,-0.80079 0.5487,-0.13943 1.1306,-0.17133 1.29311,-0.0709 0.33515,0.20714 -1.20487,1.02954 -2.43303,1.29929 -0.43399,0.0953 -1.15394,0.35533 -1.59989,0.5778 -0.51488,0.25685 -1.84169,0.44637 -3.63535,0.51925 -1.55351,0.0631 -3.30283,0.17693 -3.88739,0.25291 -0.58456,0.076 -1.1501,0.0509 -1.25677,-0.0558 z m 13.82898,-2.61971 -0.66146,-0.35657 0.74483,-0.28452 c 0.40966,-0.15649 0.80314,-0.28452 0.87441,-0.28452 0.0713,0 0.62907,-0.22494 1.23955,-0.49986 0.61048,-0.27492 1.9434,-0.82673 2.96205,-1.22624 1.01864,-0.39951 1.99519,-0.83925 2.17011,-0.97721 0.17492,-0.13795 0.56187,-0.17344 0.8599,-0.0788 0.29802,0.0946 0.54186,0.0671 0.54186,-0.0611 0,-0.12816 0.42034,-0.39795 0.93408,-0.59953 0.92697,-0.36371 0.92948,-0.36905 0.33073,-0.70146 -0.43737,-0.24282 -0.48489,-0.33755 -0.17273,-0.34434 0.23685,-0.005 0.59403,-0.20684 0.79375,-0.44818 0.55268,-0.66787 2.36111,-1.40097 3.47198,-1.40747 0.54571,-0.003 0.99219,-0.10313 0.99219,-0.22208 0,-0.25928 2.59135,-1.10665 3.38424,-1.10665 0.30779,0 0.83311,-0.10848 1.16737,-0.24107 0.62976,-0.24979 4.77088,-1.06155 6.16402,-1.20829 0.43656,-0.046 1.32953,-0.28321 1.98437,-0.52718 0.65485,-0.24397 1.33945,-0.43285 1.52136,-0.41973 0.1819,0.0131 0.62838,0.0457 0.99218,0.0724 0.88405,0.0648 0.83344,0.26492 -0.19843,0.78444 -1.18116,0.59469 -3.17988,1.09737 -6.68073,1.6802 -0.58209,0.0969 -1.15158,0.23342 -1.26555,0.30336 -0.19898,0.12211 -1.11937,0.26998 -3.10008,0.49805 -2.25075,0.25917 -4.50673,0.87656 -6.28381,1.71968 -1.055,0.50054 -1.9182,1.00317 -1.91823,1.11695 -2e-5,0.11379 0.322,0.0382 0.7156,-0.16807 0.53279,-0.27916 0.87081,-0.30427 1.32292,-0.0983 0.76225,0.34731 0.76493,0.55419 0.012,0.92343 -0.92794,0.45504 -5.87784,2.0008 -6.0825,1.89945 -0.038,-0.0188 -0.88966,0.39352 -1.89261,0.9163 -1.00295,0.52277 -2.1842,0.95049 -2.625,0.95049 -0.4408,0 -0.98942,0.16943 -1.21916,0.37651 -0.35347,0.31861 -0.51944,0.32167 -1.07917,0.0199 z m -11.90625,-1.47594 c 0,-0.42355 0.97832,-0.74757 3.5969,-1.19129 1.44145,-0.24426 2.69679,-0.56288 2.78967,-0.70806 0.0929,-0.14517 0.27337,-0.19935 0.40112,-0.1204 0.12774,0.0789 1.12332,-0.12452 2.21239,-0.45216 2.67514,-0.8048 2.80828,-0.85507 4.62596,-1.74689 0.87313,-0.42839 1.94469,-0.85915 2.38125,-0.95724 0.43657,-0.0981 1.16218,-0.45714 1.61248,-0.79787 0.4503,-0.34073 0.98608,-0.6233 1.19062,-0.62793 0.20455,-0.005 0.60302,-0.18322 0.88549,-0.39687 0.28248,-0.21366 0.72896,-0.38846 0.99219,-0.38846 0.26323,0 0.4786,-0.11907 0.4786,-0.26459 0,-0.14552 0.20836,-0.2664 0.46302,-0.26863 0.39639,-0.003 0.40591,-0.0415 0.0661,-0.26458 -0.35277,-0.23159 -0.35277,-0.28948 0,-0.52107 0.21829,-0.14329 0.53113,-0.26235 0.69521,-0.26458 0.16408,-0.002 0.43787,-0.17219 0.60842,-0.37768 0.33402,-0.40247 2.86271,-1.10448 3.10514,-0.86205 0.28827,0.28827 -0.98932,1.72636 -2.12489,2.39185 -0.63543,0.37239 -1.85573,0.93628 -2.71179,1.25309 -0.85605,0.31682 -1.8725,0.79731 -2.25876,1.06776 -0.38627,0.27045 -0.8395,0.49173 -1.00718,0.49173 -0.16768,0 -1.22086,0.46884 -2.3404,1.04186 -1.11955,0.57303 -2.39272,1.12527 -2.82929,1.22721 -0.43656,0.10194 -0.90777,0.25072 -1.04714,0.33063 -0.13936,0.0799 -0.51219,0.17288 -0.82849,0.2066 -0.31631,0.0337 -1.03572,0.29218 -1.59869,0.57434 -1.51701,0.76032 -2.45991,0.92981 -2.96713,0.53335 -0.3912,-0.30576 -0.39912,-0.29291 -0.0746,0.1209 0.32827,0.41858 0.28761,0.46302 -0.42354,0.46302 -0.43266,0 -1.13185,0.10982 -1.55375,0.24403 -1.06494,0.33879 -4.33896,0.53798 -4.33896,0.26398 z m 2.21306,-3.55296 c 0.41681,-0.21705 1.10142,-0.39463 1.52135,-0.39463 0.41993,0 0.76351,-0.13295 0.76351,-0.29544 0,-0.16249 0.21776,-0.2385 0.48391,-0.1689 0.26615,0.0696 0.70563,-0.0356 0.97661,-0.23372 0.27099,-0.19815 0.71984,-0.36027 0.99746,-0.36027 0.27761,0 0.87993,-0.17583 1.33849,-0.39074 0.76416,-0.35812 4.78631,-1.72593 5.07524,-1.72593 0.0683,0 0.12412,0.18529 0.12412,0.41175 0,0.48935 -1.8122,1.34309 -3.38468,1.59454 -0.61228,0.0979 -1.11324,0.28185 -1.11324,0.40878 0,0.12692 -0.28311,0.23076 -0.62914,0.23076 -0.34603,0 -1.05111,0.17631 -1.56685,0.3918 -0.98598,0.41197 -2.17573,0.64731 -4.15401,0.82168 l -1.19062,0.10495 z m -33.02968,-1.1765 c -0.0946,-0.15312 -0.44943,-0.20879 -0.78844,-0.1237 -0.33901,0.0851 -0.69592,0.026 -0.79315,-0.13132 -0.11112,-0.1798 0.10745,-0.28603 0.5885,-0.28603 0.4209,0 0.84445,-0.0792 0.94123,-0.17596 0.0968,-0.0968 0.48542,-0.20896 0.86364,-0.24928 0.37822,-0.0403 0.82489,-0.25794 0.99261,-0.48357 0.5626,-0.75691 3.87681,-1.07118 3.87681,-0.36763 0,0.13714 0.14282,0.16108 0.31737,0.0532 0.4856,-0.30012 1.53421,-0.28384 1.53877,0.0239 0.002,0.15033 0.10069,0.12103 0.2188,-0.0651 0.11812,-0.18613 0.56278,-0.3371 0.98814,-0.33549 7.53961,0.0285 8.57859,-0.001 8.57859,-0.245 0,-0.14944 -0.44648,-0.28619 -0.99219,-0.30389 -4.0834,-0.13241 -5.45191,-0.34919 -5.28701,-0.83748 0.116,-0.34349 0.88799,-0.35459 5.35316,-0.077 1.45521,0.0905 4.84849,0.2279 7.54062,0.3054 4.63432,0.13342 6.13252,0.22306 6.28386,0.37599 0.10058,0.10164 0.36342,0.16648 1.58196,0.39024 0.61542,0.11302 1.3298,0.367 1.5875,0.5644 0.40924,0.31348 0.41831,0.3927 0.0717,0.62575 -0.21828,0.14675 -0.57546,0.19363 -0.79375,0.10417 -0.76449,-0.31333 -2.52422,-0.6628 -3.70416,-0.73563 -0.65485,-0.0404 -1.78743,-0.11298 -2.51686,-0.16125 -0.90382,-0.0598 -1.53602,0.0497 -1.98486,0.34378 -0.44663,0.29264 -1.58162,0.49122 -3.52626,0.61694 -2.028,0.13111 -2.90779,0.29004 -3.00477,0.54277 -0.10849,0.28272 -0.78053,0.32931 -3.2173,0.22304 -3.70353,-0.16151 -7.02458,-0.16816 -8.10724,-0.0162 -0.43657,0.0613 -1.92485,0.13602 -3.3073,0.16612 -1.38244,0.0301 -2.65177,0.1633 -2.82071,0.29601 -0.18933,0.14871 -0.37319,0.13447 -0.47924,-0.0371 z m 19.15291,-2.29806 c 0.0606,-0.0523 -0.26679,-0.0951 -0.72761,-0.0951 -0.46082,0 -0.83785,0.12133 -0.83785,0.26962 0,0.2373 1.24943,0.098 1.56546,-0.17455 z m 3.19704,0.009 c 0,-0.0572 -0.17859,-0.10398 -0.39687,-0.10398 -0.21828,0 -0.39688,0.11533 -0.39688,0.25628 0,0.14095 0.1786,0.18775 0.39688,0.10398 0.21828,-0.0838 0.39687,-0.19908 0.39687,-0.25628 z m 13.05742,0.36134 c -0.24877,-0.40252 0.86354,-1.13874 1.83193,-1.21253 0.46238,-0.0352 1.08342,-0.2231 1.38008,-0.41748 0.29666,-0.19438 0.95435,-0.44231 1.46154,-0.55095 0.50719,-0.10865 1.06761,-0.31464 1.24539,-0.45775 0.45661,-0.36758 2.16822,-0.72223 2.31777,-0.48026 0.33288,0.53861 -2.40728,1.93316 -4.41896,2.24894 -0.39579,0.0621 -0.9883,0.25676 -1.31669,0.43251 -0.94492,0.5057 -2.31121,0.74471 -2.50106,0.43752 z m 10.50116,-1.25991 c 0.64898,-0.43702 1.77528,-1.21096 2.50288,-1.71986 0.72761,-0.5089 1.91823,-1.21602 2.64584,-1.57137 1.69042,-0.82559 2.34836,-1.36013 2.12297,-1.7248 -0.23034,-0.37271 0.8395,-1.25846 1.77963,-1.4734 0.40018,-0.0915 0.7276,-0.2729 0.7276,-0.40312 0,-0.31971 1.43694,-1.04411 2.07114,-1.04411 0.28045,0 0.64738,-0.16565 0.81541,-0.36811 0.16803,-0.20246 0.83468,-0.44747 1.48144,-0.54445 0.64676,-0.097 1.24646,-0.29047 1.33267,-0.42996 0.0862,-0.13949 0.25935,-0.1902 0.38476,-0.11269 0.12541,0.0775 0.30281,0.0199 0.39421,-0.12797 0.0914,-0.1479 0.43164,-0.2689 0.75609,-0.2689 0.32444,0 1.05922,-0.23928 1.63283,-0.53172 0.57361,-0.29245 1.52152,-0.58324 2.10647,-0.64622 1.77981,-0.19161 2.61471,-0.35581 3.44478,-0.67747 0.43656,-0.16917 1.62718,-0.34933 2.64583,-0.40037 1.01865,-0.051 2.37266,-0.27859 3.00892,-0.50569 0.63626,-0.22709 1.96838,-0.47426 2.96026,-0.54926 0.99188,-0.075 2.41822,-0.25296 3.16963,-0.39547 0.75141,-0.1425 1.67592,-0.18136 2.05446,-0.0864 0.37855,0.095 1.22799,0.18353 1.88764,0.19671 0.84836,0.0169 1.22199,0.14144 1.27666,0.42537 0.0653,0.33906 -0.38626,0.40345 -2.90681,0.41454 -2.76462,0.0122 -7.2983,0.63206 -8.54034,1.16773 -0.29105,0.12552 -1.36261,0.2967 -2.38125,0.38041 -3.32771,0.27345 -4.20801,0.41374 -6.08542,0.96977 -1.01865,0.30169 -2.68552,0.79514 -3.70417,1.09655 -1.01864,0.30142 -1.9821,0.64724 -2.14101,0.76849 -0.15891,0.12126 -0.3562,0.15319 -0.43843,0.071 -0.0822,-0.0822 -0.48799,0.0209 -0.9017,0.2291 -0.4137,0.20822 -1.14605,0.45353 -1.62744,0.54513 -0.98519,0.18745 -1.48442,0.59492 -1.74856,1.42715 -0.14633,0.46104 -2.93744,2.52761 -3.99077,2.95482 -0.14552,0.059 -0.63301,0.38644 -1.08331,0.72761 -0.4503,0.34116 -0.9873,0.62029 -1.19333,0.62029 -0.20603,0 -0.70809,0.30923 -1.11569,0.68717 -0.73047,0.67734 -3.17012,1.69408 -4.06489,1.69408 -0.27552,0 0.0127,-0.31759 0.721,-0.79459 z m -30.39323,-1.2211 c -0.35254,-0.25792 -0.33265,-0.33434 0.15499,-0.59531 0.3077,-0.16468 0.74588,-0.29942 0.97373,-0.29942 0.61579,0 0.50505,-0.56389 -0.3405,-1.73381 -0.41512,-0.57437 -0.81627,-1.29529 -0.89144,-1.60204 -0.16049,-0.65491 0.24398,-1.50689 0.60845,-1.28164 0.13895,0.0859 0.1891,0.25895 0.11144,0.3846 -0.0777,0.12566 0.0692,0.57448 0.32641,0.99738 1.11986,1.84144 1.94813,2.97238 2.19073,2.99128 1.12504,0.0876 2.41456,0.0312 2.55771,-0.11194 0.0951,-0.0951 0.39978,-0.17299 0.67696,-0.17299 0.46275,0 0.46922,-0.0348 0.0791,-0.42491 -0.302,-0.302 -0.34566,-0.52039 -0.15094,-0.75501 0.16026,-0.19311 0.20403,-0.84033 0.10546,-1.55947 -0.15668,-1.14311 -0.12743,-1.22936 0.4169,-1.22936 0.51504,0 0.57529,-0.11925 0.50122,-0.99219 -0.079,-0.93136 -0.0418,-0.98725 0.60656,-0.91164 0.51291,0.0598 0.72735,-0.0594 0.83289,-0.46302 0.11225,-0.42924 0.35604,-0.54373 1.15911,-0.54433 1.06846,-8e-4 4.32425,1.23361 4.32425,1.6395 0,0.13004 0.29765,0.55745 0.66146,0.94979 0.54644,0.58931 0.66145,0.97837 0.66145,2.23741 0,2.30154 -0.54539,2.63207 -3.9026,2.36514 -0.61692,-0.049 -0.8531,-0.82185 -0.26458,-0.86575 0.1819,-0.0136 0.82922,-0.0614 1.43848,-0.10634 0.60927,-0.0449 1.22915,-0.1567 1.37751,-0.24839 0.54191,-0.33492 -0.036,-0.89197 -1.24543,-1.20058 -0.68191,-0.174 -1.50347,-0.42098 -1.8257,-0.54884 -0.73947,-0.29343 -1.13178,0.22423 -0.51289,0.67677 0.8189,0.5988 0.52188,1.0039 -0.62344,0.85028 -0.86317,-0.11577 -1.1305,-0.0427 -1.43525,0.39242 -0.45618,0.65129 -0.2777,1.24763 0.33026,1.10347 0.76584,-0.18159 2.81947,0.57952 2.91824,1.08155 0.0785,0.39907 -0.0673,0.44455 -1.05833,0.33012 -1.37757,-0.15905 -1.83442,-0.26838 -2.27724,-0.54499 -0.18524,-0.11571 -0.68626,-0.033 -1.12448,0.1856 -0.55806,0.2784 -0.79157,0.30304 -0.79443,0.0838 -0.002,-0.18004 -0.11179,-0.14374 -0.26053,0.0864 -0.23074,0.35703 -0.37845,0.19194 -0.29592,-0.33073 0.05,-0.31681 -1.155,-0.22919 -1.49273,0.10855 -0.39838,0.39837 -3.98872,0.44493 -4.51684,0.0586 z m 9.85419,-5.26035 c 0.65639,-0.70826 1.52068,-0.83347 2.68848,-0.38947 0.39345,0.14959 0.77257,0.21479 0.84247,0.14489 0.38893,-0.38894 -2.00593,-1.7398 -3.08439,-1.7398 -0.61228,0 -1.61401,1.29801 -1.61401,2.09137 0,0.73846 0.41954,0.70001 1.16745,-0.10699 z m 33.11811,3.93071 c -0.0757,-0.19736 -0.006,-0.35884 0.15574,-0.35884 0.1614,0 0.78274,-0.22342 1.38076,-0.4965 1.23028,-0.56178 3.29207,-1.091 4.2505,-1.091 0.35312,0 0.71862,-0.1239 0.81221,-0.27534 0.0936,-0.15144 0.37737,-0.20959 0.63059,-0.12922 0.25323,0.0804 1.39948,-0.15191 2.54722,-0.51618 1.14775,-0.36427 2.98437,-0.7375 4.08138,-0.8294 1.09702,-0.0919 3.00661,-0.31515 4.24354,-0.49613 2.22971,-0.32625 2.64583,-0.30804 2.64583,0.11578 0,0.2076 -1.52197,0.63008 -2.38125,0.661 -0.21828,0.008 -0.5236,0.0969 -0.6785,0.19799 -0.15489,0.10104 -0.86927,0.21122 -1.5875,0.24486 -0.71823,0.0336 -1.56274,0.22533 -1.87669,0.42599 -0.38675,0.24719 -0.62659,0.27456 -0.74382,0.0849 -0.18303,-0.29615 -0.31149,-0.27764 -3.84474,0.55401 -3.02792,0.7127 -4.26382,1.03936 -4.89479,1.29373 -0.29104,0.11733 -0.94589,0.28143 -1.45521,0.36466 -0.50932,0.0832 -1.42589,0.25421 -2.03681,0.37994 -0.85292,0.17554 -1.14273,0.14531 -1.24846,-0.13024 z m -12.56927,-0.20189 c -0.20402,-0.24584 -0.12022,-0.47536 0.31357,-0.85883 0.77976,-0.6893 2.09259,-1.51246 2.52172,-1.58114 0.92012,-0.14726 3.92532,-1.96746 5.295,-3.20708 0.74906,-0.67793 1.63883,-0.78732 1.63883,-0.20147 0,0.45117 -3.00798,2.72715 -3.9026,2.95289 -0.32742,0.0826 -0.59531,0.24281 -0.59531,0.35597 0,0.11316 -0.44649,0.41382 -0.99219,0.66813 -0.5457,0.25431 -1.66908,0.85492 -2.49638,1.3347 -1.18235,0.68568 -1.56378,0.80054 -1.78264,0.53683 z m -5.31213,-0.87979 c -0.82307,-0.15132 -1.32291,-0.54744 -1.32291,-1.04838 0,-0.30875 0.27329,-0.34937 1.40174,-0.20838 1.31344,0.1641 1.45688,0.12363 2.27694,-0.64242 1.03022,-0.96237 1.08382,-0.97723 1.08382,-0.30051 0,0.4661 -2.20349,2.4504 -2.61774,2.35734 -0.0882,-0.0198 -0.45804,-0.0908 -0.82185,-0.15765 z m -22.48958,-0.61569 c 0,-0.15411 0.11906,-0.20661 0.26458,-0.11667 0.14552,0.0899 0.26459,0.21602 0.26459,0.28019 0,0.0642 -0.11907,0.11668 -0.26459,0.11668 -0.14552,0 -0.26458,-0.12609 -0.26458,-0.2802 z m 19.16672,-1.42069 c -0.47864,-0.35226 -0.48208,-0.3902 -0.0506,-0.55748 0.97522,-0.37805 0.30436,-1.91239 -0.764,-1.74734 -0.48533,0.075 -1.6834,-0.45538 -1.6834,-0.7452 0,-0.49028 1.18679,-0.57063 2.19655,-0.14873 0.65729,0.27464 0.93341,0.52829 0.80604,0.74046 -0.15103,0.25156 -0.10532,0.25119 0.20729,-0.002 0.28094,-0.22727 0.48452,-0.24096 0.67978,-0.0457 0.19525,0.19525 0.48271,0.0747 0.95981,-0.40235 0.52104,-0.52104 0.88617,-0.65756 1.55383,-0.58099 0.62972,0.0722 0.85109,0.21934 0.795,0.52834 -0.0877,0.48319 0.37563,0.59294 0.53132,0.12585 0.0702,-0.2105 0.3936,-0.16346 1.06427,0.1548 0.52991,0.25146 1.17908,0.41496 1.44261,0.36333 0.36188,-0.0709 0.11796,-0.36715 -0.99687,-1.21067 -1.53292,-1.15988 -2.9544,-1.65907 -3.27003,-1.14837 -0.28392,0.45938 -0.67793,0.33993 -0.67793,-0.20554 0,-0.78962 0.67286,-1.1723 1.71689,-0.97644 0.51092,0.0959 0.92894,0.10767 0.92894,0.0263 0,-0.0814 -0.37766,-0.48545 -0.83924,-0.89788 -0.72926,-0.65159 -0.93454,-0.7139 -1.56629,-0.47544 -0.95735,0.36136 -1.66713,-0.16928 -1.43951,-1.07618 0.19636,-0.78238 -0.69745,-2.11842 -1.66274,-2.48543 -0.59074,-0.2246 -0.78507,-0.15058 -1.43752,0.54754 -0.41494,0.44399 -0.9795,0.80725 -1.25458,0.80725 -0.59274,0 -1.03406,-0.58209 -0.56089,-0.73981 0.18081,-0.0603 0.78787,-0.57331 1.34901,-1.1401 0.56115,-0.56678 1.15132,-1.03051 1.31151,-1.03051 0.16018,0 0.82054,0.4879 1.46747,1.08421 l 1.17623,1.08421 0.72464,-0.56999 c 0.47818,-0.37614 0.93217,-0.51791 1.33486,-0.41685 0.54868,0.13771 2.72087,-0.80827 2.71316,-1.18158 -0.005,-0.26183 -1.99732,-1.7807 -2.57627,-1.96445 -0.48255,-0.15316 -0.59192,-0.0868 -0.59192,0.35912 0,0.30085 0.24247,0.78947 0.53881,1.08582 0.61119,0.61118 0.47993,1.04868 -0.31461,1.04868 -0.31581,0 -0.59553,-0.21873 -0.67671,-0.52917 -0.0761,-0.29104 -0.24355,-0.52916 -0.3721,-0.52916 -0.12855,0 -0.23373,-0.13571 -0.23373,-0.30156 0,-0.39634 -0.81164,-1.0023 -1.35679,-1.01294 -0.23691,-0.005 -0.6097,0.25947 -0.82842,0.58689 -0.38087,0.57016 -0.41944,0.57575 -0.913,0.13229 -0.28343,-0.25466 -0.70729,-0.46302 -0.9419,-0.46302 -0.23462,0 -0.49407,-0.1092 -0.57656,-0.24268 -0.0902,-0.14591 -0.53107,-0.13746 -1.10567,0.0212 -0.58359,0.16113 -1.05071,0.16884 -1.19976,0.0198 -0.42892,-0.42892 0.5464,-0.94606 1.71033,-0.90686 5.57711,0.18784 5.56559,0.18837 6.16175,-0.28052 0.73438,-0.5776 1.12484,-0.58291 1.74279,-0.0237 0.60477,0.54731 0.86257,0.32245 0.64126,-0.55932 -0.11112,-0.44274 -0.35168,-0.67378 -0.70154,-0.67378 -0.29283,0 -0.60096,-0.17859 -0.68472,-0.39687 -0.0838,-0.21829 -0.39042,-0.39688 -0.68146,-0.39688 -0.34794,0 -0.47989,0.12843 -0.38528,0.37498 0.0791,0.20624 -0.0369,0.44436 -0.25791,0.52917 -0.60379,0.23169 -0.62312,0.21317 -0.62312,-0.5971 0,-0.5381 0.18179,-0.8341 0.64065,-1.04318 0.79945,-0.36425 0.66488,-1.09827 -0.33716,-1.8391 -1.09419,-0.80898 -1.83022,-0.96291 -2.31,-0.48313 -0.22957,0.22956 -0.52686,0.34974 -0.66065,0.26705 -0.13379,-0.0827 -0.24325,-0.0219 -0.24325,0.13504 0,0.27501 -1.05614,0.20654 -1.55327,-0.10069 -0.13149,-0.0813 -0.22275,0.0548 -0.2028,0.30227 0.0578,0.71684 -0.84548,0.73876 -1.0249,0.0249 -0.21311,-0.84791 -1.32289,-1.35157 -2.05009,-0.9304 -1.22147,0.70743 -1.38665,1.0551 -1.38665,2.91857 0,1.48368 0.0919,1.8732 0.51495,2.1831 0.62793,0.45996 0.32447,0.82985 -0.77953,0.95017 -0.72641,0.0792 -0.80059,0.18054 -0.87433,1.19486 -0.0614,0.84507 0.0855,1.35931 0.61855,2.16479 0.54129,0.81794 0.63834,1.16503 0.42991,1.53748 -0.14806,0.26457 -0.33711,0.45128 -0.42011,0.4149 -0.55935,-0.24519 -0.3807,0.0815 0.57958,1.06001 0.60789,0.61939 1.14214,1.36353 1.18723,1.65365 0.0451,0.29011 0.16821,0.66557 0.27362,0.83433 0.26078,0.41757 -0.0494,1.14836 -0.48746,1.14836 -0.19591,0 -0.5826,-0.50602 -0.85933,-1.12448 -0.27672,-0.61846 -0.75854,-1.35129 -1.07071,-1.62851 -0.79822,-0.70884 -0.71137,-0.12017 0.0939,0.63632 0.49712,0.46702 0.66146,0.89113 0.66146,1.70704 0,0.5971 0.19237,1.36029 0.42749,1.69597 0.29819,0.42572 0.34358,0.69425 0.15008,0.88776 -0.40019,0.40019 -1.07554,0.0591 -1.35897,-0.68641 -0.13436,-0.35339 -0.37264,-0.72186 -0.52951,-0.81881 -0.15688,-0.0969 -0.21672,-0.28711 -0.133,-0.42258 0.0837,-0.13546 0.0361,-0.2463 -0.10593,-0.2463 -0.14198,0 -0.30486,0.14014 -0.36196,0.31143 -0.15987,0.4796 -0.73404,-0.009 -0.73404,-0.6247 0,-0.47416 0.114,-0.52475 0.8599,-0.38163 0.47294,0.0907 0.73215,0.0759 0.57601,-0.0331 -0.15613,-0.10894 -0.36075,-0.40643 -0.45471,-0.66109 -0.094,-0.25466 -0.2899,-0.46302 -0.43542,-0.46302 -0.14552,0 -0.19605,0.17859 -0.11229,0.39687 0.22245,0.57969 -0.30166,0.48673 -1.49182,-0.26458 -0.5763,-0.3638 -1.28128,-0.66146 -1.56663,-0.66146 -0.28534,0 -0.59239,-0.11906 -0.68233,-0.26458 -0.32476,-0.52547 -0.92604,-0.26778 -0.92604,0.39687 0,0.79461 -0.65256,0.89048 -1.04682,0.1538 -0.14943,-0.27921 -0.65276,-0.59136 -1.11851,-0.69365 -0.68179,-0.14975 -0.93541,-0.0766 -1.30139,0.37537 -0.60745,0.75017 -1.35999,0.74571 -1.24804,-0.007 0.22097,-1.48648 2.39098,-1.94459 6.05989,-1.27929 1.50523,0.27295 2.62823,0.17852 2.61981,-0.22029 -0.005,-0.24841 -2.58868,-1.7084 -3.59684,-2.03269 -0.45239,-0.14553 -1.02081,-0.43038 -1.26316,-0.63302 -0.24236,-0.20264 -0.51147,-0.2976 -0.59804,-0.21104 -0.25995,0.25995 -0.88815,-0.53324 -0.88815,-1.12142 0,-0.54758 0.71419,-1.44759 1.30499,-1.64452 0.8863,-0.29543 -1.34937,-2.07855 -2.60609,-2.07855 -0.57933,0 -0.64897,0.10473 -0.93511,1.40624 -0.12753,0.58007 -0.29274,0.72636 -0.747,0.66146 -0.32079,-0.0458 -0.62442,-0.29922 -0.67473,-0.56309 -0.1027,-0.53864 0.94211,-2.21179 1.52106,-2.43583 0.71079,-0.27505 2.65153,0.19561 3.38623,0.82122 0.40426,0.34424 0.92435,0.77771 1.15575,0.96326 0.2314,0.18555 0.77756,0.66849 1.21369,1.0732 0.50713,0.47059 0.95155,0.67498 1.23292,0.56701 1.14167,-0.4381 -0.23415,-2.22888 -1.71239,-2.22888 -0.57277,0 -0.75807,-0.12494 -0.75807,-0.51115 0,-0.28114 -0.32742,-0.73655 -0.7276,-1.01205 -1.00732,-0.69345 -4.25339,-1.70209 -4.85909,-1.50985 -0.3788,0.12023 -0.49873,0.0268 -0.49873,-0.38871 0,-0.45707 -0.16545,-0.54699 -1.00643,-0.54699 -0.78811,0 -1.18722,0.18653 -1.83985,0.85989 -0.68925,0.71115 -0.84872,1.1084 -0.92187,2.29641 -0.091,1.47873 -0.5127,2.00326 -0.93189,1.15925 -0.36741,-0.73974 -0.0741,-2.8804 0.47557,-3.47036 0.26864,-0.28835 0.4332,-0.57952 0.36569,-0.64703 -0.21234,-0.21235 0.50545,-0.63701 1.81159,-1.07178 0.96536,-0.32134 1.44628,-0.35455 2.05605,-0.14198 0.58764,0.20485 0.89762,0.19308 1.18446,-0.045 0.30616,-0.25409 0.63788,-0.2488 1.56499,0.0249 0.64706,0.19105 1.10619,0.46109 1.02029,0.60009 -0.0859,0.13899 -0.0194,0.16819 0.14772,0.0649 0.35588,-0.21995 2.1591,1.07596 2.1591,1.55167 0,0.3877 0.90966,1.26071 1.1075,1.06287 0.0762,-0.0762 0.77501,0.15638 1.55296,0.51681 1.18996,0.55132 1.48614,0.83567 1.86611,1.79158 0.35335,0.88898 0.49191,1.03549 0.63668,0.67324 0.10177,-0.25466 0.41461,-0.46302 0.6952,-0.46302 0.40563,0 0.45893,-0.0957 0.26013,-0.46721 -0.22097,-0.41288 -0.18036,-2.40041 0.0716,-3.50154 0.39509,-1.72707 1.24966,-2.45341 2.88652,-2.45341 0.95573,0 1.08418,-0.0856 1.4643,-0.97567 0.85425,-2.00031 2.97677,-1.94411 5.77942,0.15302 0.46323,0.34662 1.02878,0.63022 1.25677,0.63022 0.22799,0 0.41453,0.0895 0.41453,0.1989 0,0.10939 0.53795,0.48427 1.19545,0.83307 0.74096,0.39308 1.25482,0.87072 1.3516,1.25632 0.0859,0.34217 0.25363,0.62213 0.37278,0.62213 0.11915,0 0.16935,0.3736 0.11156,0.83022 -0.0682,0.53849 0.0781,1.08743 0.41615,1.5622 0.28666,0.40259 0.52121,0.84315 0.52121,0.97903 0,0.13588 0.65363,0.95093 1.45251,1.81124 l 1.4525,1.56419 0.59802,-0.71273 c 0.9058,-1.07957 1.74272,-1.297 2.84697,-0.73967 0.50932,0.25707 1.43206,0.61857 2.05052,0.80334 0.61846,0.18477 1.12448,0.43318 1.12448,0.55203 0,0.11885 0.56554,0.46369 1.25677,0.76632 0.69122,0.30262 1.53489,0.68838 1.87482,0.85724 0.93971,0.4668 1.94559,1.48564 1.76124,1.78393 -0.20113,0.32543 1.21638,-0.25226 1.59042,-0.64815 0.14604,-0.15459 0.4437,-0.32009 0.66146,-0.3678 0.71938,-0.15759 2.03541,-0.85746 2.59808,-1.38166 0.30461,-0.28379 0.78702,-0.51598 1.07204,-0.51598 0.28501,0 1.89747,-0.71433 3.58323,-1.5874 1.68576,-0.87307 3.15419,-1.56246 3.26317,-1.53198 0.10898,0.0305 0.61486,-0.14007 1.12418,-0.379 0.50933,-0.23893 1.15431,-0.47227 1.43329,-0.51854 0.27898,-0.0463 0.5626,-0.25037 0.63027,-0.45357 0.1786,-0.53634 -2.36003,-0.16156 -3.4636,0.51132 -0.4669,0.28469 -1.1168,0.51805 -1.44423,0.5186 -0.32742,5.4e-4 -0.59531,0.13279 -0.59531,0.29388 0,0.16109 -0.17859,0.22436 -0.39687,0.14059 -0.21828,-0.0838 -0.39688,-0.0317 -0.39688,0.11559 0,0.14733 -0.14883,0.24075 -0.33073,0.2076 -0.42687,-0.0778 -1.93594,0.65394 -3.08183,1.49438 -0.49447,0.36265 -1.14931,0.65731 -1.45521,0.65479 -0.57839,-0.005 -1.83039,-1.49823 -1.58663,-1.89264 0.1901,-0.30759 1.09699,-0.27325 1.72993,0.0655 0.40455,0.21651 0.74986,0.18176 1.43782,-0.1447 1.07714,-0.51114 1.12022,-0.73237 0.25325,-1.30043 -1.01938,-0.66792 -2.11492,-0.5555 -2.48418,0.25494 -0.17096,0.37523 -0.45797,0.63326 -0.63778,0.57339 -0.56545,-0.18827 -0.50954,-0.90305 0.12868,-1.64502 0.496,-0.57663 0.85051,-0.71851 1.83246,-0.73335 1.18309,-0.0179 1.50948,0.13647 2.61942,1.23877 0.79537,0.7899 0.59626,0.1209 -0.236,-0.79293 -0.40533,-0.44505 -1.62223,-1.26522 -2.70422,-1.8226 -1.082,-0.55738 -2.00696,-1.11598 -2.05546,-1.24133 -0.0485,-0.12536 -0.32755,-0.22792 -0.62009,-0.22792 -0.29254,0 -0.59143,-0.20836 -0.6642,-0.46302 -0.18986,-0.66443 -1.39746,-1.54257 -2.38609,-1.73512 -0.67775,-0.132 -0.81825,-0.0873 -0.6993,0.22273 0.0819,0.21335 0.0103,0.38791 -0.15903,0.38791 -0.20295,0 -0.1675,0.20044 0.10398,0.58804 0.22653,0.32342 0.41188,0.79406 0.41188,1.04586 0,0.25181 0.47625,0.84055 1.05833,1.30833 1.08345,0.87068 1.30218,1.47059 0.74083,2.03193 -0.47376,0.47376 -1.00541,0.38352 -1.00541,-0.17066 0,-0.26848 -0.25596,-0.71497 -0.56879,-0.99218 l -0.56878,-0.50403 0.19078,0.79375 c 0.10493,0.43656 0.46928,1.09141 0.80966,1.45521 0.95931,1.02531 1.7349,2.72828 1.69671,3.72551 -0.019,0.49758 0.0528,1.17259 0.15979,1.50001 0.13172,0.40331 0.0879,0.59531 -0.13593,0.59531 -0.40703,0 -2.04088,-0.96165 -2.82675,-1.66377 -0.32002,-0.28592 -0.74948,-0.45552 -0.95437,-0.3769 -0.20488,0.0786 -0.71695,-0.09 -1.13794,-0.37471 -0.42098,-0.28472 -1.15117,-0.68459 -1.62263,-0.8886 -0.52097,-0.22544 -0.80432,-0.50875 -0.72237,-0.7223 0.1823,-0.47507 -1.21145,-1.26539 -2.23156,-1.26539 -0.92534,0 -1.07235,-0.37499 -0.30749,-0.78434 0.28137,-0.15058 0.54926,-0.60125 0.59531,-1.00149 0.0646,-0.56167 0.27993,-0.78547 0.94363,-0.98086 0.52601,-0.15486 0.85989,-0.4248 0.85989,-0.69521 0,-0.24313 0.1786,-0.59027 0.39688,-0.77143 0.51367,-0.42631 0.50222,-0.69671 -0.0383,-0.90411 -0.24592,-0.0944 -0.6522,0.0294 -0.93428,0.28473 -0.46174,0.41788 -0.53151,0.41935 -0.9312,0.0197 -0.36239,-0.36239 -0.37556,-0.50013 -0.0817,-0.85425 0.19271,-0.23221 0.50991,-0.36098 0.70487,-0.28617 0.19497,0.0748 0.35449,0.0446 0.35449,-0.0671 0,-0.11173 0.41672,-0.1545 0.92604,-0.095 1.05962,0.12371 1.19212,-0.21287 0.39687,-1.00812 -0.38875,-0.38875 -0.88194,-0.52916 -1.85863,-0.52916 -1.19243,0 -1.35675,0.0718 -1.59424,0.6964 -0.14562,0.38302 -0.19952,0.902 -0.11976,1.15327 0.0804,0.25338 -0.0484,0.61734 -0.28914,0.81717 -0.37651,0.31247 -0.509,0.26926 -0.99816,-0.32556 -1.23643,-1.50351 -2.63093,-1.4625 -2.89856,0.0852 -0.43176,2.49695 -0.4798,3.34069 -0.20004,3.51359 0.16184,0.10002 0.22575,0.29269 0.14203,0.42816 -0.0837,0.13546 0.0334,0.2463 0.26026,0.2463 0.46147,0 0.51409,0.22376 0.17751,0.75492 -0.40768,0.64337 -1.25947,-0.10572 -1.58351,-1.39258 -0.37549,-1.49123 -0.38669,-3.77432 -0.0196,-4.00118 0.1532,-0.0947 0.23398,-0.30587 0.1795,-0.4693 -0.0545,-0.16342 0.24203,-0.58414 0.6589,-0.93491 0.62099,-0.52253 0.96464,-0.61448 1.90168,-0.50886 1.04028,0.11725 1.18419,0.0604 1.59105,-0.62834 0.46583,-0.78859 0.76596,-0.87095 2.79865,-0.76803 0.73598,0.0373 1.3992,0.2529 1.73685,0.5647 0.30042,0.27743 0.66892,0.50441 0.81888,0.50441 0.40398,0 1.14844,0.90383 1.14844,1.39428 0,0.62827 0.56051,0.86518 0.84485,0.3571 0.1353,-0.24178 0.34665,-0.37739 0.46965,-0.30137 0.12301,0.076 0.16133,-0.10007 0.0852,-0.39131 -0.0863,-0.33018 -0.002,-0.5447 0.22312,-0.56983 0.19887,-0.0222 0.48065,-0.0551 0.62617,-0.0731 0.14552,-0.0181 0.42017,-0.1302 0.61035,-0.24919 0.19017,-0.11899 0.6194,-0.14768 0.95384,-0.0637 0.46735,0.1173 0.80722,-0.0662 1.46854,-0.79296 0.75363,-0.82819 0.96937,-0.92515 1.73772,-0.78101 0.7293,0.13682 0.90598,0.074 1.0476,-0.37214 0.20609,-0.64934 1.36177,-0.9899 2.00213,-0.58999 0.38767,0.24211 0.56661,0.13825 1.08454,-0.62949 0.7463,-1.10623 1.56732,-1.36614 2.84303,-0.90003 0.52374,0.19136 1.41007,0.32235 1.96963,0.29109 1.42131,-0.0794 2.67442,0.39352 3.0874,1.16519 0.19265,0.35995 0.44145,0.65446 0.55291,0.65446 0.11146,0 0.53782,0.13885 0.94748,0.30856 0.40965,0.16971 0.80436,0.32882 0.87712,0.35358 1.38325,0.47075 1.92443,1.5547 1.94589,3.89749 0.009,0.9847 0.052,1.79037 0.0955,1.79037 0.39271,0 2.66189,-1.46923 2.54965,-1.65083 -0.0807,-0.13053 -0.31322,-0.17342 -0.51678,-0.0953 -0.44695,0.17151 -1.16386,-0.0722 -1.16386,-0.39572 0,-0.12823 0.4689,-0.30813 1.042,-0.39977 0.5731,-0.0916 1.10583,-0.33296 1.18384,-0.53626 0.30452,-0.79357 1.4516,-0.92888 2.75811,-0.32534 1.06951,0.49407 2.00507,0.69935 2.22594,0.48843 0.0364,-0.0347 0.30427,-0.0917 0.59531,-0.12648 0.94261,-0.11278 5.01824,-1.25992 5.32428,-1.49859 0.16346,-0.12747 0.49088,-0.15745 0.7276,-0.0666 0.23673,0.0908 0.43042,0.0505 0.43042,-0.0897 0,-0.47869 8.49219,-1.19017 14.02291,-1.17484 4.80395,0.0133 4.96634,0.0273 5.40303,0.46395 0.22756,0.22756 0.54413,0.33317 0.70348,0.23468 0.15935,-0.0985 1.41042,0.0947 2.78015,0.42928 1.95962,0.47867 2.49043,0.70668 2.49043,1.06976 0,0.39942 -0.11557,0.42525 -0.8599,0.19225 -2.07062,-0.64818 -4.39245,-0.96555 -6.01927,-0.82277 -0.94589,0.083 -2.43417,0.13343 -3.30729,0.11203 -0.87313,-0.0214 -1.93944,-0.0424 -2.36958,-0.0466 -0.43014,-0.004 -0.88786,-0.15362 -1.01715,-0.33201 -0.16086,-0.22196 -0.18925,-0.18131 -0.0899,0.12877 0.12676,0.3957 -0.0796,0.45607 -1.62869,0.47642 -0.9756,0.0128 -2.52125,0.034 -3.43476,0.047 -1.62113,0.0231 -2.31065,0.33274 -1.65005,0.74101 0.42936,0.26536 6.59988,0.2461 6.76503,-0.0211 0.25326,-0.40978 1.94989,0.76868 1.96586,1.36547 0.002,0.0833 -0.62103,0.11096 -1.38501,0.0615 -5.19239,-0.33624 -14.93134,0.0448 -17.92552,0.70139 -0.65485,0.1436 -1.72641,0.31251 -2.38125,0.37536 -0.65485,0.0628 -1.39899,0.19807 -1.65365,0.30049 -0.30442,0.12244 -0.46441,0.0633 -0.46707,-0.1728 -0.003,-0.299 -0.0417,-0.29971 -0.22891,-0.004 -0.18886,0.29798 -2.32078,0.81899 -5.03794,1.2312 -0.35238,0.0535 -0.74525,0.28403 -0.87304,0.51239 -0.14994,0.26792 -0.6031,0.41519 -1.27754,0.41519 -0.84036,0 -1.04519,0.0959 -1.04519,0.48924 0,0.42653 0.21193,0.48587 1.65365,0.46302 0.9095,-0.0144 1.71317,-0.0857 1.78594,-0.15851 0.39089,-0.39089 1.29656,-0.74209 1.37019,-0.53134 0.0513,0.1469 0.50082,0.14906 1.13429,0.005 0.66523,-0.15082 1.16503,-0.14183 1.36551,0.0246 0.17799,0.14771 0.37948,0.1601 0.46092,0.0283 0.0796,-0.12876 0.70938,-0.25547 1.39956,-0.28157 0.69018,-0.0261 1.34822,-0.19443 1.46232,-0.37405 0.18984,-0.29889 0.32318,-0.0823 0.24687,0.40102 -0.0501,0.31733 0.44359,0.22887 0.55291,-0.0991 0.0679,-0.20366 1.3894,-0.29495 4.18923,-0.28941 8.7582,0.0174 10.33778,0.1608 9.88248,0.89749 -0.20044,0.32432 -3.56748,0.20469 -4.02664,-0.14308 -0.2155,-0.16322 -0.41968,-0.17024 -0.52916,-0.0182 -0.2154,0.29912 -6.65282,0.31956 -7.12876,0.0226 -0.18475,-0.11526 -0.72053,-0.0868 -1.19063,0.0632 -0.47009,0.15003 -1.86675,0.33264 -3.10368,0.4058 -1.23693,0.0732 -2.24896,0.15267 -2.24896,0.17668 0,0.0531 -0.57113,0.12866 -2.64583,0.35017 -0.87312,0.0932 -2.00422,0.27905 -2.51354,0.41295 -0.50932,0.1339 -1.75948,0.44791 -2.77813,0.69779 -1.01864,0.24989 -2.17316,0.61313 -2.5656,0.8072 -0.39243,0.19407 -0.94057,0.38751 -1.21808,0.42986 -0.27751,0.0424 -0.78987,0.25983 -1.13857,0.48329 -0.3487,0.22346 -0.84236,0.48295 -1.09702,0.57664 -0.25466,0.0937 -0.46302,0.28776 -0.46302,0.43125 0,0.1435 -0.41672,0.33908 -0.92604,0.43463 -0.50932,0.0956 -0.92604,0.25226 -0.92604,0.34824 0,0.096 -0.56555,0.46969 -1.25677,0.83045 -0.69123,0.36077 -1.29646,0.74523 -1.34497,0.85437 -0.0485,0.10914 -0.28663,0.19889 -0.52916,0.19943 -0.24254,5.4e-4 -0.83081,0.23867 -1.30727,0.52917 -0.47646,0.29049 -1.03834,0.52817 -1.24862,0.52817 -0.50948,0 -2.39822,0.99534 -2.79425,1.47253 -0.17325,0.20876 -0.53855,0.37956 -0.81178,0.37956 -0.27322,0 -0.49677,0.17859 -0.49677,0.39687 0,0.21828 0.1786,0.39688 0.39688,0.39688 0.21828,0 0.39687,-0.10001 0.39687,-0.22224 0,-0.12223 0.50602,-0.385 1.12448,-0.58393 0.61847,-0.19894 1.7127,-0.65236 2.43163,-1.00762 0.71893,-0.35525 1.67143,-0.74017 2.11666,-0.85538 0.44524,-0.1152 1.34531,-0.34584 2.00015,-0.51252 0.65485,-0.16669 1.42875,-0.40448 1.71979,-0.52843 0.29104,-0.12396 0.82683,-0.30186 1.19063,-0.39533 0.3638,-0.0935 1.04699,-0.344 1.5182,-0.55672 0.47122,-0.21272 1.24512,-0.4284 1.7198,-0.4793 0.47467,-0.0509 1.57741,-0.29526 2.45054,-0.54302 0.87312,-0.24776 2.42094,-0.49631 3.43958,-0.55232 1.01865,-0.056 2.14974,-0.16633 2.51355,-0.24514 1.16207,-0.25174 2.42386,-0.38368 6.35,-0.66397 2.11005,-0.15064 4.04481,-0.3197 4.29947,-0.37568 0.25467,-0.056 0.46303,0.006 0.46303,0.13803 0,0.1319 0.32742,0.24164 0.7276,0.24387 0.56698,0.003 0.63999,0.0607 0.33073,0.26053 -0.21828,0.14106 -0.83633,0.2583 -1.37345,0.26053 -0.53711,0.002 -1.05373,0.1289 -1.14803,0.28148 -0.11796,0.19087 -0.28385,0.18416 -0.53164,-0.0215 -0.26801,-0.22243 -0.74539,-0.21895 -1.86562,0.0136 -0.82799,0.17189 -1.93524,0.30844 -2.46054,0.30343 -0.5253,-0.005 -1.43135,0.11923 -2.01343,0.27606 -0.58208,0.15683 -1.59411,0.31996 -2.24896,0.3625 -3.22246,0.20935 -4.55532,0.46878 -9.55218,1.85923 -6.72203,1.87051 -7.32593,2.04996 -8.30719,2.46856 -1.3399,0.57159 -4.47267,1.65943 -4.93887,1.715 -0.24252,0.0289 -0.59971,0.1745 -0.79375,0.32352 -0.54942,0.42196 -2.0731,0.9765 -2.23586,0.81374 -0.15623,-0.15623 -1.73199,0.31773 -1.9534,0.58754 -0.35638,0.43428 -1.63284,1.07824 -1.85956,0.93812 -0.14141,-0.0874 -0.25711,-0.0243 -0.25711,0.14019 0,0.54269 -0.6523,0.9648 -1.7662,1.14292 -0.60387,0.0966 -1.28695,0.2481 -1.51796,0.33674 -0.65834,0.25263 -0.49134,-0.35622 0.20322,-0.7409 1.89828,-1.05134 3.61011,-2.13738 3.61011,-2.29038 0,-0.0962 0.49798,-0.33032 1.10663,-0.52028 1.19562,-0.37315 2.71843,-1.33827 2.48302,-1.57368 -0.0797,-0.0797 -0.68421,-0.22682 -1.34325,-0.32684 -1.05218,-0.15968 -1.27758,-0.10252 -1.849,0.4689 -0.66289,0.66289 -1.45573,0.65352 -1.45573,-0.0172 0,-0.19748 0.26789,-0.61071 0.59531,-0.91827 0.65979,-0.61979 2.36034,-0.79415 4.43177,-0.4544 0.96952,0.15901 1.13079,0.13161 0.8684,-0.14755 -0.48902,-0.52028 -2.10139,-1.00305 -2.50192,-0.74912 -1.03288,0.65484 -1.33812,-0.05 -0.43702,-1.00918 0.35516,-0.37806 0.44491,-0.61236 0.23455,-0.61236 -0.22447,0 -0.3028,-0.25848 -0.22955,-0.75753 0.0901,-0.61412 -0.0419,-0.85924 -0.69758,-1.29475 -1.10414,-0.73343 -3.27027,-1.037 -3.481,-0.48784 -0.0851,0.22182 -0.40128,0.48155 -0.70259,0.57718 -0.48909,0.15523 -0.50065,0.20027 -0.10785,0.42009 0.67666,0.37868 0.47989,2.60118 -0.23029,2.60118 -0.18918,0 -0.39787,0.14883 -0.46374,0.33073 -0.0958,0.26458 -0.2318,0.26458 -0.67992,0 -0.76982,-0.45453 -0.89614,-0.41596 -0.57891,0.17678 0.14938,0.27913 0.19948,0.86811 0.11134,1.30886 -0.11694,0.58467 -0.012,0.98988 0.38819,1.49861 0.64003,0.81366 0.54496,1.85985 -0.29628,3.26037 -0.40225,0.66968 -0.4531,0.93599 -0.20769,1.08766 0.24182,0.14945 0.21774,0.242 -0.0941,0.36166 -0.26513,0.10174 -0.41906,0.0181 -0.41906,-0.22776 0,-0.46119 -0.36504,-0.49503 -1.09953,-0.10194 -0.43139,0.23087 -0.86784,0.12792 -2.24345,-0.52917 -2.07354,-0.99047 -2.9627,-1.08543 -1.88254,-0.20103 0.71841,0.58821 0.96789,1.58675 0.47286,1.89269 -0.1401,0.0866 -0.70565,-0.12344 -1.25677,-0.46674 -1.50689,-0.93866 -1.92807,-1.04741 -1.92807,-0.49783 0,0.45362 -0.46867,1.10294 -0.7961,1.10294 -0.0886,0 -0.39221,-0.17009 -0.67468,-0.37797 z m 9.17395,-3.52463 c -0.13912,-0.25466 -0.70921,-0.90495 -1.26686,-1.44508 -0.77711,-0.75269 -1.10642,-0.91943 -1.41,-0.71391 -0.34262,0.23194 -0.32842,0.31096 0.10515,0.58518 0.27569,0.17437 0.99006,0.69481 1.5875,1.15653 1.29676,1.00218 1.30584,1.00603 0.98421,0.41728 z m -0.16254,-3.77031 c 0.0899,-0.14552 0.0374,-0.26459 -0.11668,-0.26459 -0.15411,0 -0.2802,0.11907 -0.2802,0.26459 0,0.14552 0.0525,0.26458 0.11668,0.26458 0.0642,0 0.19026,-0.11906 0.2802,-0.26458 z m -2.24896,-1.08412 c 0,-0.12406 -0.3452,-0.15653 -0.76712,-0.0722 -0.64142,0.12829 -0.79899,0.0513 -0.9617,-0.46963 -0.22307,-0.71427 -0.58642,-1.0101 -1.24774,-1.01588 -0.98291,-0.009 -0.43712,0.92455 0.93639,1.60096 1.29874,0.6396 2.04017,0.62386 2.04017,-0.0433 z m 14.81666,0.0447 c 0,-0.41544 -0.71835,-0.99352 -2.01398,-1.62073 -1.19744,-0.57967 -1.25034,-0.58331 -1.59662,-0.10974 -0.53493,0.73156 -0.45859,0.83468 0.73659,0.99498 0.6021,0.0808 1.28246,0.33456 1.5119,0.56401 0.45345,0.45345 1.36211,0.56785 1.36211,0.17148 z M 65.23493,142.1 c 0,-0.4309 -1.2612,-1.58381 -2.28169,-2.08578 -1.51632,-0.74586 -2.38165,-0.36237 -2.04938,0.90824 0.10082,0.38553 0.32328,0.47838 0.9741,0.40659 0.48987,-0.054 1.28707,0.13097 1.90176,0.44138 1.183,0.59738 1.45521,0.65903 1.45521,0.32957 z m 0.79375,-1.21365 c 0,-0.0642 -0.11906,-0.19026 -0.26458,-0.2802 -0.14552,-0.0899 -0.26459,-0.0374 -0.26459,0.11668 0,0.15411 0.11907,0.2802 0.26459,0.2802 0.14552,0 0.26458,-0.0525 0.26458,-0.11668 z m 18.25625,-0.35957 c 0,-0.27491 -0.57327,-0.84667 -0.84891,-0.84667 -0.11765,0 -0.0652,0.23813 0.11656,0.52917 0.33385,0.53457 0.73235,0.70733 0.73235,0.3175 z m 13.22917,-1.09205 c 0,-0.4696 -1.39925,-1.34212 -2.15235,-1.34212 -0.61199,0 -0.75807,-0.11587 -0.75807,-0.60129 0,-0.64278 -1.17001,-1.42161 -2.35665,-1.56872 -1.03281,-0.12803 -0.93826,0.52531 0.14128,0.97637 0.54795,0.22894 1.41939,0.73952 1.93655,1.13462 1.70731,1.30435 3.18924,1.95541 3.18924,1.40114 z m 13.02295,-2.86347 c 0.066,-0.25467 0.07,-0.61185 0.009,-0.79375 -0.16102,-0.47859 -0.86093,-0.40689 -0.86093,0.0882 0,0.62863 -0.64827,0.29096 -0.74812,-0.38968 -0.0858,-0.58453 -0.71519,-1.03538 -1.01998,-0.73059 -0.27972,0.27972 1.27107,2.06855 1.66293,1.91818 0.20336,-0.078 0.36975,-0.0266 0.36975,0.11439 0,0.44151 0.46153,0.27911 0.58754,-0.20674 z m -15.53019,-1.02369 c -0.23561,-0.2356 -0.49416,-0.36259 -0.57456,-0.28219 -0.23554,0.23554 0.16743,0.71056 0.60277,0.71056 0.34554,0 0.34169,-0.0585 -0.0282,-0.42837 z m 16.72308,0.26852 c -0.0879,-0.0879 -0.31612,-0.0973 -0.50712,-0.0209 -0.21106,0.0845 -0.14837,0.14716 0.15985,0.15986 0.27892,0.0115 0.43519,-0.0511 0.34727,-0.13897 z m -30.43456,-1.54188 c 0.0238,-0.83841 -0.5309,-1.4806 -0.9322,-1.0793 -0.13182,0.13183 0.63595,1.98728 0.82232,1.98728 0.0463,0 0.0957,-0.40859 0.10988,-0.90798 z m 33.14439,0.65374 c 0.4896,-0.30964 0.35752,-0.43108 -0.71994,-0.66191 -0.9099,-0.19494 -0.95323,-0.1641 -0.6993,0.49764 0.17863,0.46549 0.8247,0.54027 1.41924,0.16427 z m -19.5734,-0.6724 c 0.62024,0.19686 0.70358,-0.1883 0.14166,-0.65466 -0.31346,-0.26014 -0.57148,-0.21065 -1.32292,0.25377 -1.13598,0.70207 -1.24319,1.17688 -0.14166,0.62736 0.43552,-0.21726 1.03083,-0.31917 1.32292,-0.22647 z m 16.47652,0.21032 c 0.11152,-0.0627 0.14375,-0.20946 0.0716,-0.32614 -0.22192,-0.35908 0.81273,-1.33879 1.41388,-1.33879 0.31233,0 0.80438,0.11907 1.09345,0.26459 0.28906,0.14552 0.75311,0.37804 1.03121,0.51671 0.36492,0.18197 0.54403,0.15207 0.64361,-0.10743 0.14904,-0.38839 -0.5985,-1.20303 -1.10394,-1.20303 -0.17044,0 -0.30989,-0.11907 -0.30989,-0.26459 0,-0.14552 -0.23813,-0.26458 -0.52917,-0.26458 -0.76551,0 -1.57767,-0.90648 -1.40471,-1.56786 0.0984,-0.37637 0.018,-0.54881 -0.25591,-0.54881 -0.21969,0 -0.46442,-0.16936 -0.54385,-0.37635 -0.0794,-0.20699 -0.41959,-0.41547 -0.75591,-0.46329 -0.47197,-0.0671 -0.60162,-0.24198 -0.56823,-0.76643 0.0335,-0.52604 -0.16517,-0.79174 -0.87968,-1.17652 -1.22589,-0.66019 -1.73348,-0.32338 -2.074,1.37623 -0.17216,0.85927 -0.38012,1.28165 -0.59531,1.20913 -0.1819,-0.0613 -0.33073,-0.3212 -0.33073,-0.57756 0,-0.25636 -0.2188,-0.66412 -0.48622,-0.90613 -0.45523,-0.41198 -0.51721,-0.40579 -0.97235,0.0971 -0.4767,0.52676 -0.46484,0.55824 0.6124,1.62481 0.60418,0.59821 1.04325,1.17707 0.9757,1.28636 -0.0675,0.10929 0.23469,0.34679 0.67163,0.52778 0.73421,0.30412 2.02169,1.87224 2.44667,2.97999 0.13811,0.35998 0.35124,0.4286 0.91355,0.29415 0.40337,-0.0965 0.82465,-0.22667 0.93616,-0.28937 z m 0.98787,-0.34201 c 0,-0.14552 -0.11906,-0.26458 -0.26458,-0.26458 -0.14552,0 -0.26458,0.11906 -0.26458,0.26458 0,0.14552 0.11906,0.26458 0.26458,0.26458 0.14552,0 0.26458,-0.11906 0.26458,-0.26458 z M 59.4141,133.21987 c 0,-0.44404 -0.47774,-0.64504 -1.13065,-0.47568 -0.44919,0.11651 -0.44919,0.13687 0,0.47768 0.61589,0.4673 1.13065,0.46639 1.13065,-0.002 z m 44.97916,-0.0125 c 0,-0.16904 -1.92671,-1.46475 -2.17808,-1.46475 -0.11174,0 -0.20317,0.17859 -0.20317,0.39688 0,0.21828 0.12757,0.39687 0.28349,0.39687 0.15591,0 0.46207,0.17859 0.68035,0.39688 0.36189,0.36189 1.41741,0.56602 1.41741,0.27412 z m 18.25626,-0.14183 c 0,-0.14552 -0.12609,-0.26459 -0.2802,-0.26459 -0.15411,0 -0.20662,0.11907 -0.11668,0.26459 0.0899,0.14552 0.21603,0.26458 0.2802,0.26458 0.0642,0 0.11668,-0.11906 0.11668,-0.26458 z m -47.75831,-1.46198 c 0.14608,-0.17965 0.62278,-0.4113 1.05935,-0.51478 l 0.79375,-0.18814 -1.14948,-0.39115 c -1.04974,-0.35721 -1.19321,-0.35156 -1.65364,0.0651 -0.2773,0.25095 -0.50418,0.7435 -0.50418,1.09456 0,0.54119 0.0904,0.60959 0.5943,0.44965 0.32686,-0.10374 0.71382,-0.33561 0.8599,-0.51526 z m 49.08122,0.1361 c 0,-0.14389 -0.17859,-0.26162 -0.39687,-0.26162 -0.21828,0 -0.4832,-0.009 -0.5887,-0.0199 -0.1055,-0.0109 -0.2258,0.0821 -0.26732,0.20665 -0.0415,0.12457 0.22339,0.25123 0.5887,0.28147 0.3653,0.0302 0.66419,-0.0628 0.66419,-0.20665 z m 10.82805,-0.43561 c 2.87941,-0.14477 4.54727,-0.56812 2.53341,-0.64305 -0.58208,-0.0217 -1.1774,-0.0141 -1.32292,0.0167 -1.07555,0.22801 -2.04516,0.15604 -2.16675,-0.16084 -0.22772,-0.59341 -0.66215,-0.40939 -0.46914,0.19872 0.12937,0.40763 0.0801,0.52488 -0.18061,0.42995 -0.19717,-0.0718 -0.32756,-0.26798 -0.28975,-0.43598 0.0417,-0.18527 -0.18418,-0.13974 -0.57403,0.1157 -0.35353,0.23164 -0.80118,0.39964 -0.99479,0.37333 -0.70398,-0.0957 -1.04083,0.0211 -0.86793,0.30089 0.10067,0.16288 0.46903,0.21266 0.85564,0.11563 0.37338,-0.0937 1.93797,-0.23369 3.47687,-0.31106 z m -18.76555,-0.0717 c 0,-0.50285 -0.85652,-1.07723 -1.6064,-1.07723 -1.01661,0 -0.98291,0.33441 0.085,0.8439 1.02901,0.49091 1.52135,0.56642 1.52135,0.23333 z m -12.17083,-0.3225 c -0.3638,-0.14729 -0.99942,-0.4374 -1.41249,-0.64469 -0.71572,-0.35918 -1.23335,-0.30909 -1.23335,0.11934 0,0.21045 1.88976,0.73527 2.77813,0.77154 0.4283,0.0175 0.40308,-0.0294 -0.13229,-0.24619 z m 38.1,-1.40057 c 0,-0.0642 -0.11906,-0.19026 -0.26458,-0.2802 -0.14553,-0.0899 -0.26459,-0.0374 -0.26459,0.11668 0,0.1541 0.11906,0.28019 0.26459,0.28019 0.14552,0 0.26458,-0.0525 0.26458,-0.11667 z m -27.32374,-0.57235 c -0.0879,-0.0879 -0.31612,-0.0973 -0.50712,-0.0209 -0.21107,0.0845 -0.14837,0.14715 0.15985,0.15985 0.27892,0.0115 0.43519,-0.0511 0.34727,-0.13897 z m -1.45545,-0.43022 c -0.33059,-0.15932 -0.67091,-0.56798 -0.75629,-0.90813 -0.11918,-0.47485 -0.338,-0.61846 -0.94234,-0.61846 -0.95624,0 -0.87889,0.41244 0.18999,1.01309 0.43273,0.24316 0.82647,0.53142 0.87498,0.64056 0.0485,0.10914 0.34616,0.19038 0.66146,0.18053 0.57256,-0.0179 0.57253,-0.0183 -0.0278,-0.30759 z m -43.18748,24.15521 c 0,-0.46053 0.79212,-0.8357 2.08865,-0.98926 1.25373,-0.14848 1.35093,-0.11927 1.35093,0.40602 0,0.31131 -0.14882,0.57075 -0.33073,0.57653 -0.1819,0.006 -0.9558,0.0585 -1.71979,0.11711 -0.76398,0.0586 -1.38906,0.009 -1.38906,-0.1104 z m -17.19792,-2.06075 c -0.7425,-0.28001 -1.8522,-1.74872 -1.84047,-2.43589 0.006,-0.37397 0.17279,-1.13179 0.36979,-1.68403 0.33752,-0.94618 0.3202,-1.04921 -0.30034,-1.78668 -1.24269,-1.47685 -1.63033,-4.78412 -0.68655,-5.85741 0.93446,-1.06267 3.79036,-0.17398 3.3994,1.05782 -0.25767,0.81183 -0.82844,0.72019 -1.38525,-0.22241 -0.92801,-1.571 -1.83771,-0.2508 -1.5196,2.20534 0.12465,0.96238 0.41799,1.56438 1.20588,2.47472 0.8018,0.9264 0.97366,1.28432 0.74752,1.55679 -0.16151,0.19461 -0.45755,0.29094 -0.65786,0.21407 -0.2718,-0.1043 -0.33333,0.0507 -0.24249,0.61104 0.39764,2.4525 0.93103,3.00097 2.78429,2.863 1.36859,-0.1019 1.81522,0.17824 1.29106,0.80981 -0.31858,0.38386 -2.33419,0.50729 -3.16538,0.19383 z m 18.69723,-5.54119 c -0.30444,-0.30444 -0.19268,-0.61736 0.22048,-0.61736 0.21828,0 0.39688,0.17859 0.39688,0.39688 0,0.41316 -0.31293,0.52492 -0.61736,0.22048 z m -24.12118,-0.88194 c -0.0899,-0.14552 -0.0374,-0.26459 0.11667,-0.26459 0.15411,0 0.2802,0.11907 0.2802,0.26459 0,0.14552 -0.0525,0.26458 -0.11668,0.26458 -0.0642,0 -0.19026,-0.11906 -0.28019,-0.26458 z m 127.92485,-7.87136 c -6.5e-4,-0.10914 -0.43387,-0.22089 -0.9627,-0.24833 -0.52884,-0.0274 -1.0879,-0.17626 -1.24236,-0.33073 -0.15446,-0.15446 -0.55468,-0.28083 -0.88938,-0.28083 -0.33469,0 -0.60854,-0.11533 -0.60854,-0.25628 0,-0.14096 -0.15806,-0.19563 -0.35125,-0.1215 -0.54951,0.21087 -1.76541,-0.35674 -1.76541,-0.82413 0,-0.31652 0.148,-0.37422 0.59531,-0.23206 0.32742,0.10406 0.7739,0.20363 0.99219,0.22127 0.21828,0.0176 0.66476,0.18283 0.99218,0.36711 0.32743,0.18427 0.59532,0.26713 0.59532,0.18413 0,-0.083 0.26541,-0.009 0.58981,0.16475 0.3244,0.17361 0.93689,0.35607 1.36108,0.40546 0.87563,0.10195 1.55373,0.56571 1.33787,0.91498 -0.1764,0.28541 -0.64247,0.31158 -0.64412,0.0362 z m -8.04617,-3.20485 c -0.0776,-0.12556 -0.70971,-0.38216 -1.40468,-0.57022 -0.69497,-0.18806 -1.39988,-0.4467 -1.56646,-0.57475 -0.16659,-0.12804 -0.40471,-0.20973 -0.52917,-0.18152 -0.12446,0.0282 -0.40488,-0.0205 -0.62316,-0.10817 -0.21829,-0.0877 -1.05172,-0.25655 -1.85209,-0.37522 -0.81275,-0.12051 -1.3968,-0.33147 -1.32291,-0.47786 0.0728,-0.14415 0.25135,-0.26524 0.39687,-0.26909 0.14552,-0.004 0.38596,-0.0832 0.53431,-0.17635 0.14835,-0.0932 0.90888,0.0557 1.69007,0.33083 0.78118,0.2751 1.50137,0.45011 1.60041,0.38889 0.25863,-0.15984 2.67168,1.04284 2.92957,1.46011 0.17418,0.28183 0.29508,0.28574 0.61536,0.0199 0.32879,-0.27287 0.44978,-0.23514 0.69093,0.21545 0.25881,0.48358 0.21719,0.54625 -0.36281,0.54625 -0.36033,0 -0.71864,-0.10273 -0.79624,-0.22829 z m -44.86931,-3.66739 c -0.91163,-0.16464 -1.85208,-1.09843 -1.85208,-1.83898 0,-0.36329 -0.15835,-0.61534 -0.38657,-0.61534 -0.21261,0 -0.60966,-0.23947 -0.88234,-0.53215 -0.47201,-0.50664 -0.51573,-0.50981 -0.91222,-0.0661 -0.22905,0.2563 -0.45708,0.76365 -0.50673,1.12746 -0.12914,0.94634 -0.82861,0.8263 -1.0339,-0.17744 -0.13906,-0.67997 -0.0785,-0.86325 0.31989,-0.96742 0.2703,-0.0707 0.49145,-0.33444 0.49145,-0.58613 0,-0.39231 0.17552,-0.43355 1.23008,-0.28901 0.67654,0.0927 1.39237,0.3033 1.59074,0.46793 0.19836,0.16462 0.6918,0.33787 1.09652,0.385 1.6794,0.19553 4.54933,1.96464 4.54933,2.80432 0,0.6959 -0.39502,0.58742 -0.75743,-0.20799 -0.20946,-0.45971 -0.4498,-0.63499 -0.72557,-0.52917 -0.2268,0.087 -0.5078,0.15824 -0.62445,0.15824 -0.11665,0 -0.27436,0.23813 -0.35046,0.52917 -0.0761,0.29104 -0.23883,0.51295 -0.36159,0.49313 -0.12277,-0.0198 -0.52087,-0.0898 -0.88467,-0.15548 z m 2.38125,-0.0887 c 0,-0.15411 0.11906,-0.20662 0.26459,-0.11668 0.14552,0.0899 0.26458,0.21602 0.26458,0.2802 0,0.0642 -0.11906,0.11667 -0.26458,0.11667 -0.14553,0 -0.26459,-0.12609 -0.26459,-0.28019 z"
       id="path1" />
  </g>
</svg>
