<?xml version="1.0" encoding="UTF-8" standalone="no"?>
<!-- Created with Inkscape (http://www.inkscape.org/) -->

<svg
   width="122.28923mm"
   height="48.118828mm"
   viewBox="0 0 122.28921 48.118832"
   version="1.1"
   id="svg1"
   inkscape:version="1.4.1-rc (06eac75fbf, 2025-03-29)"
   sodipodi:docname="hill3.svg"
   xmlns:inkscape="http://www.inkscape.org/namespaces/inkscape"
   xmlns:sodipodi="http://sodipodi.sourceforge.net/DTD/sodipodi-0.dtd"
   xmlns="http://www.w3.org/2000/svg"
   xmlns:svg="http://www.w3.org/2000/svg">
  <sodipodi:namedview
     id="namedview1"
     pagecolor="#ffffff"
     bordercolor="#000000"
     borderopacity="0.25"
     inkscape:showpageshadow="2"
     inkscape:pageopacity="0.0"
     inkscape:pagecheckerboard="0"
     inkscape:deskcolor="#d1d1d1"
     inkscape:document-units="mm"
     inkscape:zoom="0.72248176"
     inkscape:cx="231.1477"
     inkscape:cy="90.659728"
     inkscape:window-width="1850"
     inkscape:window-height="1016"
     inkscape:window-x="0"
     inkscape:window-y="0"
     inkscape:window-maximized="1"
     inkscape:current-layer="layer1" />
  <defs
     id="defs1" />
  <g
     inkscape:label="Layer 1"
     inkscape:groupmode="layer"
     id="layer1"
     transform="translate(-45.24373,-124.08992)">
    <path
       style="fill:#000000"
       d="m 152.92914,171.9414 c -0.50932,-0.14023 -1.52135,-0.53719 -2.24895,-0.88214 -0.72761,-0.34495 -1.66274,-0.70111 -2.07808,-0.79147 -0.9064,-0.19718 -2.02297,-0.89218 -2.02297,-1.25917 0,-0.49568 2.45874,0.0935 4.62012,1.10704 1.16972,0.54854 2.45418,1.13022 2.85436,1.29263 0.40019,0.16241 0.72761,0.4169 0.72761,0.56554 0,0.32351 -0.59728,0.31305 -1.85209,-0.0324 z m 12.83229,-3.54266 c -0.58208,-0.50634 -1.27661,-1.10836 -1.5434,-1.33781 -0.26679,-0.22946 -0.5448,-0.35746 -0.6178,-0.28445 -0.19897,0.19896 -1.67525,-0.36827 -1.67525,-0.64369 0,-0.13129 -0.24232,-0.2387 -0.53848,-0.2387 -0.29616,0 -0.82011,-0.18454 -1.16433,-0.41008 -0.67155,-0.44002 -2.95337,-1.35289 -4.25032,-1.7004 -0.43656,-0.11698 -1.17145,-0.40845 -1.63309,-0.64773 -0.46164,-0.23927 -1.52638,-0.614 -2.36609,-0.83271 -0.83971,-0.21872 -1.65263,-0.50086 -1.80649,-0.62698 -0.15386,-0.12613 -0.5774,-0.27049 -0.9412,-0.32081 -0.46235,-0.064 -0.68837,-0.28182 -0.75085,-0.72375 -0.0783,-0.55358 -0.0124,-0.60852 0.52917,-0.44151 0.3402,0.10491 1.26243,0.35329 2.0494,0.55195 0.78696,0.19867 1.50134,0.46031 1.5875,0.58142 0.0862,0.12112 1.22821,0.5648 2.5379,0.98597 1.30969,0.42116 2.54622,0.89219 2.74784,1.04672 0.20163,0.15454 0.49928,0.28412 0.66146,0.28796 0.16218,0.004 0.65617,0.20378 1.09776,0.44432 0.44159,0.24054 1.24658,0.52058 1.78886,0.62231 0.54228,0.10174 1.05233,0.29234 1.13343,0.42357 0.0811,0.13123 0.55604,0.40931 1.05541,0.61796 0.49937,0.20865 0.90795,0.50077 0.90795,0.64915 0,0.14838 0.16181,0.20769 0.35958,0.13179 0.19778,-0.0759 0.91405,0.37839 1.59173,1.0095 0.96731,0.90086 1.16299,1.21663 0.91041,1.46921 -0.44083,0.44083 -0.4729,0.42906 -1.6711,-0.61321 z m -85.195816,-0.66416 c -1.01865,-0.11057 -2.09021,-0.15201 -2.38125,-0.0921 -0.29105,0.0599 -0.70776,-0.0136 -0.92605,-0.1633 -0.34587,-0.23726 -0.33462,-0.31985 0.0876,-0.64276 0.50437,-0.38578 1.74905,-0.35683 5.16943,0.12026 1.82705,0.25485 2.03004,0.3436 1.76535,0.77188 -0.19098,0.30901 -0.91294,0.31018 -3.71504,0.006 z m 19.960586,-1.03305 c -0.37231,-0.11297 -0.923086,-0.33715 -1.223976,-0.49818 -0.30089,-0.16103 -1.15161,-0.33686 -1.8905,-0.39073 -0.73889,-0.0539 -1.52756,-0.25075 -1.75259,-0.43751 -0.29944,-0.24852 -0.40915,-0.25575 -0.40915,-0.027 0,0.17193 -0.0958,0.25337 -0.21296,0.18098 -0.46481,-0.28727 -6.33452,-1.57519 -7.32766,-1.60782 -1.90003,-0.0624 -3.3073,-0.42668 -3.3073,-0.85606 0,-0.33589 0.32194,-0.37695 1.9807,-0.2526 1.08938,0.0817 2.19071,0.2534 2.44739,0.38165 0.25669,0.12825 1.00249,0.25639 1.65733,0.28476 1.55866,0.0675 5.05155,0.78305 5.45432,1.11732 0.17374,0.14419 0.59518,0.19349 0.93652,0.10955 0.3722,-0.0915 1.04016,0.0628 1.66875,0.38548 0.57647,0.29596 1.26699,0.5381 1.534486,0.5381 0.71034,0 2.09109,0.7739 1.90833,1.0696 -0.17989,0.29107 -0.51067,0.29162 -1.46369,0.002 z m 52.66348,-0.48011 c -0.003,-0.33555 -0.0618,-0.36872 -0.21779,-0.12286 -0.14074,0.22176 -0.72953,0.31518 -1.72413,0.27356 -1.19583,-0.05 -1.49344,-0.14773 -1.42895,-0.46906 0.0674,-0.33579 0.54748,-0.39968 2.7811,-0.37009 1.48481,0.0197 2.90059,0.11287 3.14618,0.20711 0.71449,0.27418 0.0682,0.6758 -1.31223,0.81548 -1.04834,0.10608 -1.24076,0.0544 -1.24418,-0.33414 z m -95.642818,-3.05453 c -1.30969,-0.11752 -2.64914,-0.23658 -2.97656,-0.26459 -0.32743,-0.028 -0.59532,-0.13149 -0.59532,-0.22996 0,-0.0985 -0.17546,-0.21753 -0.38991,-0.26458 -0.27215,-0.0597 -0.31647,-0.20306 -0.14674,-0.47465 0.20317,-0.32511 0.39007,-0.33599 1.1363,-0.0661 0.49122,0.17763 1.20507,0.32296 1.58633,0.32296 0.38127,0 0.77037,0.12484 0.86467,0.27743 0.10654,0.17239 0.28777,0.18522 0.47864,0.0339 0.16894,-0.13394 1.182597,-0.32673 2.252567,-0.42842 1.57547,-0.14972 1.90643,-0.11843 1.74046,0.16455 -0.11272,0.19218 0.0333,0.14107 0.32439,-0.1136 0.29812,-0.26077 0.95363,-0.46302 1.50069,-0.46302 0.86652,0 0.97135,-0.0733 0.97135,-0.67928 0,-0.52405 -0.10582,-0.6472 -0.46302,-0.53888 -0.42198,0.12797 -2.43101,0.59371 -3.57287,0.82826 -0.25521,0.0524 -0.55518,0.15166 -0.6666,0.22053 -0.11142,0.0689 -0.8209,-0.0925 -1.576617,-0.35868 -0.98519,-0.34695 -2.14429,-0.48496 -4.09589,-0.48771 -2.93374,-0.004 -7.460492,-0.26752 -8.211982,-0.47782 -0.25466,-0.0713 -0.46302,-0.30023 -0.46302,-0.50881 0,-0.32218 0.82599,-0.35533 5.490112,-0.22033 3.01955,0.0874 5.96635,0.2835 6.54843,0.43578 0.58209,0.15228 1.594117,0.26267 2.248957,0.24531 0.65485,-0.0174 1.84547,-0.0368 2.64584,-0.0433 1.65689,-0.0133 3.15068,-0.48433 2.6052,-0.82146 -0.18751,-0.11588 -0.24499,-0.30647 -0.12774,-0.42352 0.19044,-0.19012 1.63221,-0.21025 6.91524,-0.0966 0.87313,0.0188 1.88516,-0.0355 2.248965,-0.12068 0.3638,-0.0852 1.97115,-0.2976 3.57188,-0.47208 2.73262,-0.29785 2.91225,-0.3536 2.94043,-0.91255 0.0266,-0.52684 -0.0967,-0.59531 -1.07156,-0.59531 -0.60587,0 -1.22981,-0.12823 -1.38654,-0.28495 -0.19726,-0.19726 -0.60032,-0.20433 -1.30968,-0.023 -2.69878,0.69002 -4.272125,0.92068 -8.565365,1.2557 -0.50932,0.0397 -0.92604,0.088 -0.92604,0.10735 0,0.21738 -2.51836,0.20945 -2.65298,-0.008 -0.27741,-0.44887 0.006,-0.57404 1.51609,-0.67041 2.09756,-0.13383 3.65043,-0.3859 3.65043,-0.59257 0,-0.10107 -0.58812,-0.45358 -1.30693,-0.78334 -0.71881,-0.32976 -1.38168,-0.83508 -1.47304,-1.12293 -0.0914,-0.28785 -0.29699,-0.52336 -0.45696,-0.52336 -0.15997,0 -0.21251,-0.0784 -0.11676,-0.1741 0.0958,-0.0957 0.0535,-0.31939 -0.0939,-0.49698 -0.30597,-0.36868 0.10313,-1.70614 0.61985,-2.02645 0.21371,-0.13248 0.0393,-0.43034 -0.54551,-0.93143 -0.85146,-0.72962 -1.20727,-1.94527 -0.77437,-2.64571 0.22848,-0.36969 1.70922,-1.13367 2.19726,-1.13367 0.23721,0 0.3069,-0.23392 0.21675,-0.7276 -0.24621,-1.34843 0.0948,-1.50193 3.50282,-1.57688 1.71574,-0.0377 3.265905,-0.12477 3.444805,-0.19342 0.1789,-0.0687 0.39243,-0.0162 0.47451,0.11665 0.0821,0.13281 0.32757,0.17304 0.54552,0.0894 0.37446,-0.1437 0.35965,-0.43831 -0.081,-1.61076 -0.0684,-0.1819 0.0543,-0.33073 0.27258,-0.33073 0.75492,0 0.65706,-0.69151 -0.24062,-1.7003 -0.71045,-0.79838 -0.88248,-1.19636 -0.81241,-1.87941 0.12214,-1.19055 0.82116,-2.16876 1.85995,-2.60279 0.74852,-0.31276 0.86404,-0.48239 0.81462,-1.19626 -0.083,-1.19823 0.80594,-2.83806 1.94817,-3.59395 0.8655,-0.57276 1.31192,-0.65933 3.63357,-0.70464 2.52782,-0.0493 4.04224,0.27771 3.7177,0.80283 -0.0719,0.11629 0.19268,0.37328 0.5879,0.57109 0.39521,0.19782 0.8802,0.47909 1.07775,0.62505 0.19754,0.14596 0.9053,0.45409 1.57279,0.68472 0.72103,0.24913 1.38068,0.69427 1.6252,1.09671 0.22637,0.37255 0.88415,1.37904 1.46172,2.23664 1.22408,1.81753 1.59018,2.39851 2.02456,3.21291 0.17464,0.32743 0.41748,0.59532 0.53965,0.59532 0.12216,0 0.22211,0.17859 0.22211,0.39687 0,0.21828 0.11906,0.39688 0.26458,0.39688 0.14552,0 0.26459,0.35424 0.26459,0.7872 0,0.75376 0.0309,0.77469 0.7276,0.49274 0.40018,-0.16195 1.14432,-0.36896 1.65365,-0.46003 0.69724,-0.12467 0.94712,-0.31324 1.01136,-0.76321 0.0469,-0.3287 0.500146,-1.00052 1.007156,-1.49292 0.52339,-0.50831 0.80532,-0.96731 0.65227,-1.0619 -0.30489,-0.18843 0.17175,-1.47063 0.54668,-1.47063 0.12216,0 0.22211,-0.27989 0.22211,-0.62198 0,-1.27597 0.53596,-2.24789 1.33655,-2.42373 0.42196,-0.0927 0.90152,-0.0855 1.06569,0.016 0.44296,0.27376 -0.5968,-1.26257 -1.21151,-1.79011 -0.72258,-0.62011 -0.92615,-0.58318 -0.92615,0.168 0,0.92173 -0.26421,1.47685 -0.7029,1.47685 -1.02119,0 -3.230196,-1.72802 -3.256326,-2.54729 -0.005,-0.16409 -0.19003,-0.44815 -0.41066,-0.63126 -0.35012,-0.29057 -0.38215,-0.20214 -0.2518,0.69521 0.0822,0.56547 0.20342,1.20672 0.26951,1.425 0.0733,0.24197 -0.035,0.19642 -0.27738,-0.11671 -0.21863,-0.28248 -0.41565,-0.75873 -0.43782,-1.05834 -0.0222,-0.2996 -0.0523,-0.71587 -0.0671,-0.92504 -0.0481,-0.68261 -1.66428,-0.89364 -2.75619,-0.35987 -0.89369,0.43688 -0.97122,0.56443 -0.95248,1.5671 0.0154,0.82567 0.28931,1.48545 1.12448,2.70899 1.26709,1.85628 1.42045,2.51476 0.50877,2.1845 -1.08854,-0.39432 -2.50612,-2.59237 -2.73153,-4.23542 -0.23789,-1.734 -0.1946,-2.1512 0.27337,-2.6346 0.42579,-0.43984 3.29585,-1.40889 3.60565,-1.21743 0.21501,0.13289 0.42321,-0.4405 0.58158,-1.60172 0.0397,-0.29104 0.16505,-0.67799 0.27857,-0.85989 0.13315,-0.21336 0.0545,-0.33073 -0.2217,-0.33073 -0.23546,0 -0.35603,-0.11663 -0.26794,-0.25917 0.10145,-0.16414 0.34251,-0.14529 0.65747,0.0514 0.35564,0.2221 0.67246,0.23232 1.11222,0.0359 0.44662,-0.19952 0.83215,-0.18065 1.408656,0.0689 0.43656,0.18901 1.21047,0.35168 1.71979,0.36148 0.50933,0.01 1.18,0.22353 1.49039,0.47495 0.64678,0.52391 1.29464,1.63918 1.20695,2.07773 -0.0683,0.34178 0.83222,0.98564 1.80058,1.28735 0.3638,0.11335 0.72099,0.29565 0.79375,0.40512 0.0728,0.10946 0.53894,0.42544 1.03596,0.70218 0.49701,0.27674 1.0328,0.73165 1.19062,1.01091 0.15783,0.27927 0.42736,0.66169 0.59897,0.84983 0.27521,0.30174 0.92603,2.69643 1.02767,3.78131 0.0205,0.21828 0.0548,0.54571 0.0764,0.72761 0.0283,0.23878 0.74228,0.33073 2.56833,0.33073 1.66229,0 2.47162,-0.0931 2.36129,-0.2716 -0.0923,-0.14938 -0.3077,-0.24233 -0.47863,-0.20656 -0.51172,0.1071 -1.76599,-0.87022 -1.76599,-1.37605 0,-0.25874 0.1786,-0.53896 0.39688,-0.62272 0.21828,-0.0838 0.39687,-0.38142 0.39687,-0.66146 0,-0.28004 0.18424,-0.57987 0.40942,-0.66628 0.22519,-0.0864 0.53745,-0.52437 0.69393,-0.97324 0.28415,-0.8151 1.33718,-1.46563 1.85471,-1.14578 0.15164,0.0937 0.22809,-0.0363 0.17623,-0.29973 -0.10733,-0.54526 -1.4731,-0.7817 -1.99818,-0.34592 -0.4996,0.41463 -1.89421,0.0545 -2.47215,-0.63833 -0.65575,-0.78614 -0.64292,-1.40471 0.039,-1.88237 l 0.55509,-0.3888 -0.62123,-0.39453 c -0.83877,-0.53269 -2.87019,-0.85507 -2.87019,-0.4555 0,0.16554 0.18346,0.65575 0.40769,1.08936 0.62435,1.20736 0.18973,1.47197 -0.81624,0.49694 -0.88776,-0.86045 -1.06004,-0.88445 -2.7003,-0.37606 -0.48003,0.14878 -0.59532,0.0823 -0.59532,-0.34312 0,-0.66897 0.4866,-1.07339 1.54657,-1.28538 0.62951,-0.1259 0.83468,-0.30839 0.83468,-0.74241 0,-0.7396 0.47765,-1.21046 1.22793,-1.21046 0.32611,0 0.66624,-0.11863 0.75585,-0.26362 0.10375,-0.16788 0.42171,-0.1314 0.87551,0.10043 0.39192,0.20022 1.11424,0.4506 1.60515,0.55639 0.49091,0.1058 1.28411,0.42337 1.76266,0.70573 0.86073,0.50784 1.43432,0.31836 1.02773,-0.33951 -0.11271,-0.18237 -0.0414,-0.24865 0.18282,-0.17002 0.20216,0.0709 0.69197,-0.0982 1.08847,-0.37579 0.89396,-0.62584 2.40414,-0.41991 3.26995,0.4459 0.43039,0.43039 1.02623,0.62301 2.29308,0.74131 2.10518,0.19659 3.53443,0.84679 3.95628,1.79981 0.17576,0.39708 0.70165,0.90417 1.16863,1.12685 0.46698,0.22269 0.92173,0.63387 1.01055,0.91373 0.14528,0.45774 0.28705,0.48323 1.41168,0.2539 1.64329,-0.3351 2.26879,-0.39925 5.88038,-0.60313 2.5,-0.14113 3.53303,-0.0749 5.79172,0.37127 1.51196,0.29867 2.85663,0.47652 2.98815,0.39524 0.13153,-0.0813 0.43076,0.0113 0.66497,0.20571 0.2342,0.19443 0.67547,0.37467 0.9806,0.40055 0.52159,0.0442 1.5002,0.2782 3.99435,0.955 0.58208,0.15795 1.35599,0.48785 1.71979,0.73312 0.3638,0.24526 1.29837,0.76686 2.07683,1.15911 1.37713,0.69391 2.95025,2.03932 2.95025,2.52319 0,0.54457 -0.63098,0.57307 -1.02849,0.0465 -0.47667,-0.63149 -2.1945,-1.62747 -2.80701,-1.62747 -0.2188,0 -0.39783,-0.10537 -0.39783,-0.23415 0,-0.51681 -1.48873,-1.14655 -4.5053,-1.90574 -1.74506,-0.43919 -3.29073,-0.72566 -3.43481,-0.63662 -0.14409,0.0891 -0.26197,0.0497 -0.26197,-0.0874 0,-0.35231 -1.13278,-0.60703 -1.42041,-0.3194 -0.27088,0.27088 -0.96084,-0.3028 -0.96084,-0.79891 0,-0.20738 -0.1136,-0.23146 -0.33073,-0.0701 -0.1819,0.13516 -0.62839,0.21921 -0.99219,0.18677 -3.28069,-0.29256 -4.86531,-0.28157 -8.05783,0.0559 -2.03071,0.21466 -3.72088,0.41897 -3.75592,0.45401 -0.0351,0.035 0.0398,0.23122 0.16631,0.43593 0.19762,0.31976 0.29316,0.3198 0.67818,2.6e-4 0.50665,-0.42048 2.51256,-0.42103 6.33905,-0.002 3.85357,0.42227 6.51267,0.95545 6.76674,1.35681 0.1922,0.30363 0.23738,0.3064 0.24067,0.0148 0.003,-0.23492 0.16412,-0.29568 0.46707,-0.17576 0.25466,0.10081 0.81123,0.22958 1.23682,0.28617 0.42559,0.0566 0.89588,0.22498 1.0451,0.3742 0.14922,0.14921 0.60238,0.2713 1.00702,0.2713 0.40465,0 1.73814,0.47625 2.96332,1.05834 1.22518,0.58208 2.31286,1.05833 2.41707,1.05833 0.45036,0 2.7246,1.89955 2.85046,2.38084 0.23811,0.91056 -0.20702,0.81472 -1.88424,-0.40571 -0.89296,-0.64976 -1.79874,-1.18138 -2.01286,-1.18138 -0.21411,0 -0.80042,-0.279 -1.30292,-0.62 -0.50249,-0.34101 -2.0444,-0.89622 -3.42645,-1.23382 -1.82537,-0.44589 -2.4757,-0.71057 -2.37711,-0.9675 0.0746,-0.19452 0.004,-0.35368 -0.15717,-0.35368 -0.16109,0 -0.29289,0.1318 -0.29289,0.29289 0,0.17664 -0.18378,0.2157 -0.46302,0.0984 -0.25466,-0.10696 -1.29646,-0.28979 -2.31511,-0.40628 -2.14566,-0.2454 -3.01935,-0.38814 -4.75153,-0.77633 -1.92434,-0.43126 -5.99252,-0.30514 -6.56566,0.20354 -0.27267,0.24201 -0.35997,0.48405 -0.20838,0.57774 0.44489,0.27496 0.024,1.1843 -0.70805,1.52978 -0.63302,0.29874 -0.82632,0.23997 -2.10315,-0.63943 -0.77334,-0.53262 -1.49534,-0.87892 -1.60444,-0.76957 -0.24319,0.24376 1.1421,1.47673 1.65916,1.47673 0.44058,0 1.02148,0.96476 0.70038,1.1632 -0.33562,0.20743 -2.16853,-0.39886 -3.28348,-1.08611 l -0.99015,-0.61033 -0.54474,0.54474 c -0.3242,0.3242 -0.7348,0.48441 -1.0142,0.39573 -0.39088,-0.12406 -0.46613,0.006 -0.44949,0.77944 0.0197,0.91393 0.0386,0.92916 1.21061,0.97447 2.32547,0.0899 4.25095,0.40851 5.41929,0.89667 0.49562,0.20708 1.05661,0.32364 1.24665,0.25902 0.45944,-0.15624 2.12743,0.68679 2.27885,1.15177 0.0658,0.20216 0.003,0.29546 -0.13953,0.20735 -0.14257,-0.0881 -0.78309,-0.21951 -1.42338,-0.292 -1.18765,-0.13445 -3.80892,-0.57162 -5.00063,-0.834 -1.2633,-0.27814 -8.99447,-0.60029 -8.99838,-0.37495 -0.001,0.0728 -1.3373,0.152 -2.96899,0.17609 -1.78991,0.0264 -3.00326,0.15351 -3.05889,0.32039 -0.0526,0.15776 -0.42495,0.21005 -0.86669,0.1217 -0.43763,-0.0875 -0.93837,-0.0189 -1.15129,0.15782 -0.41839,0.34724 -1.04085,0.0787 -2.17529,-0.93845 -0.60498,-0.54243 -2.81733,-1.04339 -3.29744,-0.74667 -0.47657,0.29454 -0.21795,0.85289 0.54058,1.16709 0.42778,0.17719 0.88088,0.25845 1.00689,0.18057 0.126,-0.0779 0.44959,0.26785 0.71909,0.76827 l 0.48999,0.90986 2.40573,0.0417 c 1.32315,0.0229 2.58432,0.0292 2.80261,0.014 0.21828,-0.0152 1.52796,0.13516 2.91041,0.33418 1.38245,0.19902 2.98979,0.36784 3.57188,0.37516 0.58208,0.007 1.35599,0.0866 1.71979,0.1762 0.3638,0.0896 1.25677,0.2806 1.98437,0.42447 0.72761,0.14387 2.75167,0.6801 4.49792,1.19163 1.74625,0.51152 3.89001,0.97314 4.76392,1.02581 1.60763,0.0969 7.19672,2.13198 10.1005,3.67777 0.69902,0.37212 1.41108,0.67659 1.58235,0.67659 0.17126,0 0.64846,0.16231 1.06043,0.36068 0.41198,0.19838 1.10539,0.5299 1.54093,0.7367 0.81897,0.38888 1.24168,1.28387 0.60638,1.28387 -0.19818,0 -0.8274,-0.23813 -1.39826,-0.52917 -0.57086,-0.29104 -1.29583,-0.52917 -1.61105,-0.52917 -0.31521,0 -0.71498,-0.17094 -0.88838,-0.37986 -0.17339,-0.20893 -0.66422,-0.45652 -1.09073,-0.55019 -0.43381,-0.0953 -0.77547,-0.34378 -0.77547,-0.56401 0,-0.26904 -0.16229,-0.34217 -0.51261,-0.23098 -0.28194,0.0895 -0.72843,0.0452 -0.99219,-0.0985 -1.61904,-0.88188 -3.88936,-1.88781 -4.83589,-2.14268 -0.6054,-0.16302 -1.27188,-0.36207 -1.48106,-0.44234 -0.23348,-0.0896 -0.38033,0.0182 -0.38033,0.27923 0,0.563 -0.59568,0.53699 -1.80256,-0.0787 -1.7121,-0.87344 -9.9392,-3.06857 -10.41005,-2.77756 -0.13529,0.0836 -0.39842,0.0255 -0.58473,-0.12911 -0.18631,-0.15462 -0.58386,-0.23393 -0.88346,-0.17623 -0.29959,0.0577 -1.00514,0.003 -1.56789,-0.1221 -0.56275,-0.12485 -1.67803,-0.29989 -2.47839,-0.38898 -0.80037,-0.0891 -1.7231,-0.22844 -2.05052,-0.30968 -0.32742,-0.0813 -0.59531,-0.0346 -0.59531,0.10361 0,0.13822 -0.59532,0.2417 -1.32292,0.22994 -0.93955,-0.0152 -1.32292,-0.12742 -1.32292,-0.38732 0,-0.25304 -0.10204,-0.28689 -0.33073,-0.10971 -0.1819,0.14094 -0.92604,0.27387 -1.65364,0.29541 -3.64194,0.10778 -9.172456,1.00762 -10.054166,1.63585 -0.22713,0.16183 -2.65036,1.02382 -3.43958,1.22352 -0.14552,0.0368 -0.9362,0.28437 -1.75707,0.5501 l -1.49249,0.48315 0.60482,0.70314 c 0.59981,0.69732 0.61545,0.69992 1.88936,0.31478 0.7065,-0.21359 1.82033,-0.44561 2.47517,-0.51558 0.65484,-0.07 1.9211,-0.28105 2.81391,-0.46906 1.31833,-0.27761 2.208,-0.27915 4.735736,-0.008 1.71185,0.1835 3.47123,0.4587 3.90973,0.61156 0.43849,0.15286 0.84311,0.23208 0.89914,0.17605 0.22074,-0.22074 2.31614,0.57239 2.56828,0.97212 0.34296,0.54371 0.0502,0.84104 -0.56174,0.5705 -0.92546,-0.40914 -2.72339,-0.82924 -2.72339,-0.63634 0,0.26368 -1.84596,-0.16566 -2.18955,-0.50925 -0.17765,-0.17765 -0.43757,-0.18457 -0.74535,-0.0199 -0.25991,0.1391 -0.53428,0.15307 -0.6097,0.031 -0.23407,-0.37875 -6.126786,-0.20703 -6.608266,0.19257 -0.23343,0.19372 -1.06565,0.39045 -1.8494,0.43719 -0.78375,0.0467 -1.87121,0.27141 -2.41659,0.49928 -0.54538,0.22787 -1.27695,0.41432 -1.62572,0.41432 -0.34876,0 -1.48833,0.29844 -2.53238,0.66321 -1.18392,0.41364 -1.99181,0.56968 -2.14683,0.41466 -0.5075,-0.50749 0.0718,-0.95883 1.84031,-1.43382 2.75307,-0.73941 2.56937,-0.65066 2.16824,-1.04758 -0.42844,-0.42395 -2.81438,-1.11547 -3.04679,-0.88306 -0.0922,0.0922 -0.0329,0.46357 0.13191,0.82522 0.25673,0.56345 0.22359,0.69821 -0.2316,0.94181 -0.29215,0.15636 -0.77053,0.20832 -1.06306,0.11548 -0.29252,-0.0928 -0.69984,-0.0294 -0.90514,0.14098 -0.30016,0.24912 -0.40381,0.18814 -0.52917,-0.31132 -0.0857,-0.34161 -0.50736,-0.82283 -0.93694,-1.06938 -0.88092,-0.50557 -0.89808,-0.49002 -0.47757,0.43289 0.23423,0.51408 0.22684,0.75841 -0.0324,1.07075 -0.28609,0.34473 -0.19001,0.46563 0.64855,0.816 1.60038,0.66868 2.76688,2.24965 1.64442,2.22869 -0.17332,-0.003 -0.61277,-0.23871 -0.97658,-0.52328 -0.708,-0.55381 -1.32291,-0.68508 -1.32291,-0.28242 0,0.13572 0.25874,0.32888 0.57497,0.42925 0.31624,0.10037 0.8,0.39213 1.07503,0.64836 0.45957,0.42816 0.60048,0.43427 1.74014,0.0754 3.2758,-1.03141 3.94411,-1.21077 4.70565,-1.26287 0.45086,-0.0308 0.92711,-0.11734 1.05833,-0.19221 0.79139,-0.45158 5.46367,-0.8642 9.829796,-0.8681 2.57166,-0.002 2.97662,-0.0612 2.97656,-0.43312 -5e-5,-0.35321 0.24018,-0.41363 1.3385,-0.33668 0.73621,0.0516 1.45091,0.16323 1.58822,0.24809 0.1373,0.0849 0.81487,0.25784 1.5057,0.38441 2.12615,0.38953 7.03798,1.69109 8.26751,2.19077 0.21828,0.0887 1.34938,0.46436 2.51354,0.83479 5.17918,1.64796 6.36197,2.0588 6.67494,2.31854 0.18354,0.15233 0.54621,0.22138 0.80595,0.15346 0.25973,-0.0679 0.6181,0.0326 0.79636,0.22348 0.17827,0.19084 0.81884,0.48019 1.42348,0.643 1.45245,0.39111 2.34169,0.99325 2.16125,1.46348 -0.21374,0.55701 -0.61718,0.45748 -0.61718,-0.15226 0,-0.29104 -0.11907,-0.52916 -0.26459,-0.52916 -0.14552,0 -0.26458,0.17656 -0.26458,0.39235 0,0.32647 -0.14749,0.30952 -0.87833,-0.10097 -0.48309,-0.27133 -1.40322,-0.58201 -2.04475,-0.6904 -0.64152,-0.10838 -1.4086,-0.35575 -1.70461,-0.5497 -0.29601,-0.19396 -1.3496,-0.54082 -2.34131,-0.77081 -0.99171,-0.23 -2.00228,-0.5248 -2.2457,-0.65513 -0.24343,-0.13032 -0.79978,-0.3553 -1.23634,-0.49995 -0.43657,-0.14465 -1.62719,-0.5765 -2.64584,-0.95969 -1.88677,-0.70974 -6.34563,-1.98466 -6.94531,-1.98587 -0.1819,-3.7e-4 -0.33073,0.1709 -0.33073,0.38059 0,0.61104 -0.46573,0.73084 -1.13539,0.29206 -0.34164,-0.22385 -1.32727,-0.48626 -2.19028,-0.58314 -1.8917,-0.21234 -9.297956,-0.17128 -10.961826,0.0608 -1.49801,0.20893 -2.72644,0.3112 -4.18923,0.34877 -0.78976,0.0203 -1.11248,0.13236 -1.03711,0.36018 0.0713,0.21549 1.0239,0.40181 2.73402,0.53474 1.44354,0.11221 3.04133,0.25733 3.55066,0.32248 2.90511,0.37161 4.519826,0.67847 5.693606,1.08203 0.72482,0.2492 1.73106,0.50094 2.2361,0.55943 0.86041,0.0996 1.31722,0.43501 1.32665,0.97398 0.002,0.12733 -0.3829,0.14865 -0.85584,0.0474 -0.47295,-0.10126 -1.09802,-0.22841 -1.38907,-0.28255 -0.75426,-0.14031 -1.25671,-0.28453 -1.77326,-0.509 -0.2477,-0.10764 -0.56244,-0.12643 -0.69943,-0.0418 -0.137,0.0847 -0.76248,-0.0272 -1.389956,-0.24859 -0.62748,-0.22138 -1.28336,-0.34784 -1.45751,-0.28101 -0.17415,0.0668 -0.39728,0.0409 -0.49585,-0.0577 -0.0986,-0.0986 -0.94286,-0.19632 -1.87622,-0.21724 -0.93336,-0.0209 -1.96569,-0.10446 -2.29406,-0.18564 -1.7518,-0.43311 -7.90178,-0.10416 -9.43976,0.50491 -0.52077,0.20623 -1.30405,0.41259 -1.74061,0.45858 -0.43656,0.046 -1.03188,0.22169 -1.32292,0.39045 -0.46598,0.27021 -0.40259,0.30781 0.53092,0.31489 0.58304,0.004 1.41648,-0.0903 1.85208,-0.2106 1.05425,-0.29106 2.12497,0.001 2.07817,0.5677 -0.045,0.54467 -0.20901,0.55131 2.0853,-0.0845 1.05026,-0.29104 2.04805,-0.52917 2.2173,-0.52917 0.43259,0 0.69007,0.79402 0.29375,0.90584 -0.17945,0.0506 -0.83228,0.2295 -1.45075,0.39748 -1.34757,0.36602 -1.45817,0.71506 -0.24107,0.76082 0.48588,0.0183 1.21025,0.15747 1.60971,0.30935 0.39946,0.15187 0.81477,0.22145 0.92292,0.15461 0.16873,-0.10428 3.0801,0.308 5.71209,0.80888 0.43656,0.0831 1.15094,0.17273 1.5875,0.19922 0.43656,0.0265 0.92319,0.12969 1.08139,0.22934 0.32406,0.20412 2.243026,0.70423 3.360266,0.87573 0.40562,0.0623 0.95471,0.22945 1.2202,0.37154 0.26549,0.14209 0.91334,0.30579 1.43965,0.36379 1.0635,0.1172 1.84457,0.62579 1.59105,1.036 -0.19985,0.32336 -2.2867,0.10834 -3.4009,-0.3504 -0.43656,-0.17975 -0.88645,-0.30645 -0.99975,-0.28157 -0.1133,0.0249 -0.69504,-0.19103 -1.29275,-0.47981 -0.59772,-0.28879 -1.182,-0.4662 -1.298406,-0.39426 -0.11641,0.0719 -0.69622,0.0219 -1.28848,-0.11114 -0.67617,-0.15193 -1.13525,-0.14743 -1.23384,0.0121 -0.0904,0.14625 -0.3594,0.0709 -0.63399,-0.17761 -0.26234,-0.23742 -0.63747,-0.40966 -0.83363,-0.38277 -0.78301,0.10736 -1.52718,-0.0305 -1.8591,-0.34452 -0.1923,-0.1819 -0.82588,-0.34721 -1.40796,-0.36735 -1.12476,-0.0389 -2.33158,-0.1661 -5.96624,-0.62873 -2.18728,-0.2784 -3.69105,-0.0893 -3.69105,0.46405 0,0.46842 -4.05155,2.00741 -6.08542,2.31155 -0.3638,0.0544 -1.43536,0.21933 -2.38125,0.36649 -2.445345,0.38046 -4.937545,0.57324 -4.585575,0.35471 0.16443,-0.10209 -0.8766,-0.19019 -2.31341,-0.19579 -1.89501,-0.007 -2.64829,0.0834 -2.74318,0.33073 -0.072,0.1875 -0.37268,0.3409 -0.66828,0.3409 -0.29561,0 -0.53747,0.0952 -0.53747,0.21165 0,0.2655 -3.10333,0.92221 -3.42335,0.72443 -0.12959,-0.0801 -0.27556,-0.0556 -0.32437,0.0545 -0.0488,0.11005 -1.16031,0.10394 -2.469987,-0.0136 z m 16.271872,-2.72329 c 0.80037,-0.0827 2.26667,-0.31892 3.25844,-0.52494 0.99178,-0.20601 1.86201,-0.37457 1.93385,-0.37457 0.0718,0 0.0535,-0.12478 -0.0408,-0.27728 -0.10071,-0.16295 -0.62533,-0.21532 -1.27238,-0.127 -3.81462,0.52064 -9.234045,0.72064 -8.993795,0.3319 0.10895,-0.17629 0.0368,-0.19156 -0.20229,-0.0428 -0.20439,0.12713 -0.65566,0.19442 -1.00284,0.14953 -0.57869,-0.0748 -1.07451,0.31044 -1.08451,0.84271 -0.002,0.11857 0.76297,0.18114 1.70044,0.13904 0.93748,-0.0421 1.79993,0.0189 1.91656,0.13551 0.11663,0.11663 0.68906,0.14146 1.27207,0.0552 0.583,-0.0863 1.71485,-0.22456 2.515215,-0.30725 z m 10.7312,-3.66922 c 0.52835,-0.39963 0.49484,-0.40529 -2.39682,-0.40529 -0.0728,0 -0.13698,0.0893 -0.14271,0.19843 -0.006,0.10914 0.38123,0.27206 0.8599,0.36205 0.47867,0.09 0.93685,0.17928 1.01817,0.19844 0.0813,0.0192 0.37899,-0.13998 0.66146,-0.35363 z m -10.86349,-0.92036 c 0.30144,-0.1215 0.67149,-0.0996 0.8599,0.051 0.20533,0.16407 0.33072,0.1677 0.33072,0.01 0,-0.14009 0.68461,-0.4025 1.52136,-0.58312 3.34272,-0.72157 5.09323,-1.18986 5.09323,-1.36252 0,-0.0998 -0.35719,-0.32943 -0.79375,-0.51026 -0.43656,-0.18083 -0.79375,-0.41951 -0.79375,-0.53041 0,-0.21707 -1.10245,-0.572 -1.26666,-0.4078 -0.0545,0.0545 0.0347,0.34923 0.1983,0.65489 0.24324,0.45451 0.21545,0.58721 -0.15255,0.72843 -0.30225,0.11598 -0.65346,-0.0639 -1.06974,-0.54785 -0.81584,-0.94847 -0.78194,-1.34902 0.17398,-2.05576 1.04101,-0.76965 1.01759,-1.41116 -0.0661,-1.81178 -1.0659,-0.39403 -2.57969,-0.60309 -2.57969,-0.35626 0,0.10111 0.19959,0.40438 0.44354,0.67394 0.33063,0.36534 0.36716,0.56648 0.1435,0.79014 -0.55625,0.55625 -1.79749,-0.9312 -1.47605,-1.76885 0.33656,-0.87707 1.83873,-0.96566 4.43579,-0.2616 0.72183,0.19569 0.75671,0.16974 0.5725,-0.42592 -0.10789,-0.34886 -0.19218,-0.85744 -0.18731,-1.13018 0.011,-0.61502 -0.51596,-1.17195 -0.96667,-1.02172 -0.18549,0.0618 -0.48209,-0.002 -0.65909,-0.14267 -0.17701,-0.14031 -0.76635,-0.33518 -1.30964,-0.43306 -0.98659,-0.17774 -0.98761,-0.17696 -0.82683,0.62696 0.13381,0.66903 0.0768,0.80492 -0.33761,0.80492 -0.27422,0 -0.64957,-0.24176 -0.83411,-0.53725 -0.23732,-0.38002 -0.546315,-0.50789 -1.055835,-0.43695 -0.62313,0.0868 -0.70986,0.20716 -0.64284,0.89232 0.0508,0.51895 -0.0861,0.91746 -0.39688,1.15583 -0.26089,0.2001 -0.39497,0.26852 -0.29796,0.15205 0.097,-0.11647 -0.0518,-0.43997 -0.33073,-0.71889 -0.27891,-0.27891 -0.50711,-0.8643 -0.50711,-1.30086 0,-0.72816 -0.0752,-0.79375 -0.91043,-0.79375 -1.19964,0 -1.32076,0.27878 -0.50385,1.15977 0.37074,0.39983 0.62188,0.77915 0.55808,0.84295 -0.0638,0.0638 -0.81998,0.24422 -1.68041,0.40095 -0.86044,0.15674 -1.64983,0.36669 -1.75421,0.46657 -0.38416,0.36761 0.13021,1.32902 0.87643,1.63811 0.49324,0.20431 0.77603,0.5201 0.78944,0.88156 0.0115,0.30977 0.0809,0.41438 0.15434,0.23248 0.18522,-0.45902 0.61852,-0.41517 0.61852,0.0626 0,0.21633 -0.41672,0.56744 -0.92604,0.78025 -1.32288,0.55273 -1.24608,1.35726 0.24883,2.60685 0.82514,0.68973 1.43553,0.98458 2.05052,0.99049 0.48161,0.005 1.10677,0.18322 1.38924,0.39687 0.56376,0.42641 1.06095,0.46314 1.867665,0.13798 z m 16.20022,-3.34895 c -0.0879,-0.0879 -0.31613,-0.0973 -0.50712,-0.0209 -0.21107,0.0845 -0.14837,0.14716 0.15985,0.15985 0.27892,0.0115 0.43518,-0.051 0.34727,-0.13896 z m -8.92418,-1.69223 c 0,-0.14552 -0.24515,-0.26459 -0.54478,-0.26459 -0.29963,0 -0.4712,0.11907 -0.38126,0.26459 0.0899,0.14552 0.33509,0.26458 0.54478,0.26458 0.20969,0 0.38126,-0.11906 0.38126,-0.26458 z m 0.79375,-1.83647 c 0,-0.13693 -0.11906,-0.32256 -0.26458,-0.41249 -0.14552,-0.0899 -0.26459,0.0221 -0.26459,0.24897 0,0.22687 0.11907,0.41249 0.26459,0.41249 0.14552,0 0.26458,-0.11204 0.26458,-0.24897 z m 1.20294,-3.43139 c -0.92554,-1.7898 -3.58014,-3.13221 -4.29144,-2.17014 -0.26055,0.3524 -0.2238,0.44159 0.21139,0.51311 0.44633,0.0734 0.47422,0.14987 0.18265,0.50119 -0.29822,0.35933 -0.2691,0.39081 0.21843,0.23607 0.45196,-0.14345 0.59555,-0.0469 0.73057,0.491 0.13496,0.53773 0.33633,0.6732 1.0229,0.68814 0.47017,0.0102 1.09298,0.12092 1.38402,0.24599 0.87563,0.37627 0.95775,0.29963 0.54148,-0.50536 z m 2.81112,0.33206 c 0.26612,-0.24084 0.48386,-0.75386 0.48386,-1.14006 0,-0.95044 0.55919,-1.64771 1.60335,-1.99927 0.55061,-0.18539 0.88441,-0.48022 0.91144,-0.80505 0.0235,-0.28189 0.12563,-0.76632 0.22703,-1.07651 0.2136,-0.65341 -0.0664,-0.80702 -1.41891,-0.77848 -0.72951,0.0154 -0.90954,0.1178 -0.84829,0.48256 0.0527,0.31375 -0.0945,0.46302 -0.45641,0.46302 -0.46056,0 -0.5111,-0.11847 -0.36687,-0.85989 0.092,-0.47295 0.29266,-0.94193 0.44589,-1.04218 0.17955,-0.11748 0.0991,-0.38062 -0.22624,-0.74013 -0.68056,-0.75201 -1.8231,-0.62814 -1.94198,0.21053 -0.1276,0.90023 -1.24211,0.70481 -1.22138,-0.21416 0.008,-0.3638 0.15275,-0.63312 0.32121,-0.59849 0.16845,0.0346 0.24242,-0.10343 0.16438,-0.30682 -0.17511,-0.45631 0.65193,-0.74882 1.8302,-0.6473 0.49542,0.0427 1.13815,-0.11806 1.50803,-0.37713 0.35454,-0.24833 0.98524,-0.45151 1.40155,-0.45151 1.0198,0 0.80796,-0.50681 -0.4973,-1.18975 -0.82829,-0.43338 -1.03671,-0.68964 -1.0284,-1.2644 0.0103,-0.70944 -0.0159,-0.72085 -1.65364,-0.72085 -1.43726,0 -1.66408,0.0661 -1.66408,0.48507 0,1.27563 -0.962,0.86815 -1.19413,-0.5058 -0.0964,-0.57068 -0.2375,-1.0376 -0.31352,-1.0376 -0.076,0 -0.71565,0.37416 -1.42139,0.83147 -1.12733,0.73048 -1.30415,0.97128 -1.45581,1.98261 -0.0949,0.63312 -0.094,1.5702 0.002,2.0824 0.13807,0.73598 0.0808,0.96729 -0.27307,1.10309 -0.27216,0.10443 -0.57392,-6.9e-4 -0.76941,-0.26804 -0.40339,-0.55168 -0.62685,-0.55204 -1.23465,-0.002 -0.5316,0.48109 -0.62886,1.44263 -0.22268,2.20158 0.57043,1.06587 1.75137,1.99154 2.43677,1.91006 0.37328,-0.0444 1.43699,0.27939 2.36381,0.71948 1.30241,0.61844 1.88041,1.08867 2.54501,2.07052 0.47294,0.6987 0.8599,1.41673 0.8599,1.59562 0,0.45832 0.53285,0.40395 1.10364,-0.11261 z m 2.86511,-0.0626 c 0,-0.12975 0.29765,-0.31061 0.66146,-0.40192 0.3638,-0.0913 0.66145,-0.28281 0.66145,-0.42556 0,-0.14275 0.35719,-0.25954 0.79375,-0.25954 1.06046,0 1.01424,-0.43315 -0.0661,-0.61996 -0.47294,-0.0818 -1.23168,-0.22515 -1.68608,-0.31861 -0.77813,-0.16004 -0.83381,-0.11845 -0.95722,0.71505 -0.0721,0.48674 -0.0745,1.03381 -0.005,1.21571 0.1436,0.37806 0.59818,0.45012 0.59818,0.0948 z m 6.34604,-2.31934 c 0.2508,-0.24777 -1.19767,-1.13726 -1.86136,-1.14305 -0.37107,-0.003 -0.78779,-0.1105 -0.92604,-0.23837 -0.13824,-0.12787 -0.70797,-0.31376 -1.26606,-0.41309 -0.86796,-0.15448 -1.00189,-0.11539 -0.92604,0.27028 0.0931,0.47318 0.23008,0.57248 1.94075,1.4065 0.95851,0.46731 2.61976,0.53167 3.03875,0.11773 z m 9.085366,-2.13631 c 0.44564,-0.25814 -0.91475,-0.89491 -1.7415,-0.81515 -0.66573,0.0642 -0.87711,0.22027 -0.94471,0.6974 -0.0838,0.59123 -0.0384,0.6076 1.19063,0.42931 0.70274,-0.10194 1.37575,-0.24215 1.49558,-0.31156 z m -9.756976,-0.40168 c -0.21901,-0.55804 -1.97393,-1.55627 -2.99125,-1.70149 l -0.96339,-0.13752 0.79375,0.70111 c 1.3381,1.18191 3.4809,1.95331 3.16089,1.1379 z m -4.35993,-2.68164 c 0.0154,-0.42899 -1.19595,-1.35786 -1.65543,-1.26937 -0.62613,0.12058 -0.56785,0.50911 0.2341,1.56052 0.64398,0.84429 0.70963,0.87067 1.04992,0.42185 0.19965,-0.26332 0.36678,-0.58417 0.37141,-0.713 z m 18.926116,0.10195 c 0.0899,-0.14552 0.0374,-0.26458 -0.11668,-0.26458 -0.1541,0 -0.28019,0.11906 -0.28019,0.26458 0,0.14552 0.0525,0.26458 0.11667,0.26458 0.0642,0 0.19026,-0.11906 0.2802,-0.26458 z m -16.536456,-0.52917 c 0,-0.14552 -0.11906,-0.26458 -0.26458,-0.26458 -0.14552,0 -0.26458,0.11906 -0.26458,0.26458 0,0.14552 0.11906,0.26459 0.26458,0.26459 0.14552,0 0.26458,-0.11907 0.26458,-0.26459 z m 15.141966,-0.6114 c -0.32444,-0.14477 -0.58988,-0.35387 -0.58988,-0.46467 0,-0.37727 -2.63244,-1.82288 -3.03685,-1.66769 -0.42009,0.1612 -0.53573,1.07515 -0.20025,1.58256 0.10691,0.1617 0.7502,0.3759 1.42952,0.47599 0.67933,0.10009 1.37644,0.35224 1.54914,0.56033 0.2467,0.29725 0.43449,0.31387 0.8761,0.0775 l 0.5621,-0.30083 z m 13.3942,0.641 c 0.27862,-0.17655 0.29155,-0.35114 0.0583,-0.78702 -0.24482,-0.45746 -0.38669,-0.50586 -0.77395,-0.26401 -0.39012,0.24363 -0.69714,0.12592 -1.73218,-0.66414 -1.51214,-1.15424 -2.80497,-1.31826 -2.80497,-0.35585 0,0.61637 1.1438,1.51226 1.93074,1.51226 0.21664,0 0.46242,0.17859 0.54619,0.39687 0.1689,0.44016 2.15406,0.55594 2.7759,0.16189 z m -29.594496,-1.57609 c 0,-0.12297 -0.23812,-0.43908 -0.52917,-0.70247 -0.51231,-0.46363 -0.52916,-0.46213 -0.52916,0.0472 0,0.28934 0.0794,0.60545 0.17639,0.70247 0.25195,0.25195 0.88194,0.21825 0.88194,-0.0472 z m 30.539736,-1.01129 c 0.12902,-0.33621 0.24272,-0.36767 0.4781,-0.13229 0.43322,0.43322 0.74461,0.38454 0.56326,-0.0881 -0.11311,-0.29475 0.0422,-0.39904 0.60361,-0.40529 0.68869,-0.008 0.71433,-0.04 0.2883,-0.36326 -0.53388,-0.40512 -0.37626,-1.10663 0.28748,-1.27952 0.24459,-0.0637 1.27815,-0.0927 2.2968,-0.0645 1.01865,0.0282 1.67349,-0.006 1.45521,-0.0755 -0.21828,-0.0698 -0.69453,-0.4034 -1.05833,-0.74132 -0.36381,-0.33793 -1.09614,-0.79599 -1.62741,-1.01791 -0.82519,-0.3447 -1.01066,-0.34961 -1.27287,-0.0337 -0.16882,0.20341 -0.26992,0.54945 -0.22468,0.76899 0.0452,0.21953 -0.007,0.40696 -0.11619,0.4165 -0.60865,0.0532 -0.7276,-0.0326 -0.7276,-0.52495 0,-0.72838 0.7309,-2.10353 1.11804,-2.10353 0.54954,0 -0.1438,-0.44982 -1.22825,-0.79685 -0.90101,-0.28833 -1.07746,-0.27523 -1.35208,0.10033 -0.39046,0.53399 -1.18355,0.56794 -1.18355,0.0507 0,-0.2097 0.11195,-0.45045 0.24878,-0.53502 0.40976,-0.25324 -0.25673,-1.74452 -0.91337,-2.04371 -0.76288,-0.34759 -2.12348,0.24637 -2.09148,0.91303 0.0121,0.2527 0.0419,0.93571 0.0661,1.51779 0.0269,0.64646 0.17281,1.05852 0.37483,1.05881 0.1819,2.6e-4 0.67066,0.53853 1.08613,1.19616 0.61414,0.97208 0.69467,1.26888 0.43063,1.58703 -0.26149,0.31507 -0.24932,0.39133 0.0624,0.39133 0.21297,0 0.71123,0.59532 1.10724,1.32292 0.76338,1.40259 1.05477,1.59595 1.32882,0.8818 z m -2.22932,-0.35263 c 0,-0.14552 -0.13181,-0.26459 -0.2929,-0.26459 -0.16108,0 -0.22198,-0.18477 -0.13532,-0.41061 0.0892,-0.23249 0.0456,-0.34142 -0.10056,-0.25109 -0.14197,0.0877 -0.52024,-0.0847 -0.84061,-0.38313 -0.84103,-0.78354 -1.45833,-0.6969 -1.59344,0.22365 -0.0728,0.49594 -0.007,0.72602 0.18516,0.65211 0.16369,-0.0628 0.76634,0.0547 1.33921,0.26117 1.32986,0.47928 1.43846,0.49231 1.43846,0.17249 z m -12.7,-0.52917 c 0,-0.14552 -0.1786,-0.26458 -0.39688,-0.26458 -0.21828,0 -0.39687,0.11906 -0.39687,0.26458 0,0.14552 0.17859,0.26458 0.39687,0.26458 0.21828,0 0.39688,-0.11906 0.39688,-0.26458 z m 21.69583,0 c 0,-0.14552 -0.18562,-0.26458 -0.41249,-0.26458 -0.22687,0 -0.33891,0.11906 -0.24897,0.26458 0.0899,0.14552 0.27556,0.26458 0.41249,0.26458 0.13693,0 0.24897,-0.11906 0.24897,-0.26458 z m -20.03673,-0.81311 c -0.17355,-0.66364 -3.67227,-3.06551 -4.00307,-2.7481 -0.0523,0.0501 0.17127,0.46512 0.49673,0.92219 0.43492,0.61079 0.73646,0.79318 1.13782,0.68822 0.38879,-0.10167 0.80188,0.1206 1.43423,0.77171 1.03567,1.06639 1.12678,1.10208 0.93429,0.36598 z m 32.20756,0.43185 c 0,-0.0642 -0.11906,-0.19026 -0.26458,-0.2802 -0.14552,-0.0899 -0.26459,-0.0374 -0.26459,0.11668 0,0.15411 0.11907,0.2802 0.26459,0.2802 0.14552,0 0.26458,-0.0525 0.26458,-0.11668 z m -14.81666,-0.26458 c 0,-0.27926 -0.50777,-0.39659 -0.6588,-0.15223 -0.0914,0.1479 0.0194,0.2689 0.24631,0.2689 0.22686,0 0.41249,-0.0525 0.41249,-0.11667 z m 2.91041,-1.73541 c 0,-0.14552 -0.11906,-0.26458 -0.26458,-0.26458 -0.14552,0 -0.26458,0.11906 -0.26458,0.26458 0,0.14552 0.11906,0.26458 0.26458,0.26458 0.14552,0 0.26458,-0.11906 0.26458,-0.26458 z m -13.84963,-1.70838 c -0.16921,-0.44096 -0.96703,-0.57036 -0.96703,-0.15685 0,0.27272 0.85752,0.83132 1.02267,0.66617 0.0556,-0.0556 0.0305,-0.28476 -0.0556,-0.50932 z m -11.55037,-0.49999 c 0,-0.80741 -1.73992,-2.62359 -2.33807,-2.44055 -0.24203,0.0741 -0.8944,0.03 -1.449716,-0.0978 -1.12394,-0.2588 -1.4244,0.0341 -1.13787,1.10932 0.26453,0.99267 0.59209,1.3129 1.38753,1.35653 0.418006,0.0229 0.908836,0.13582 1.090736,0.25087 0.1819,0.11505 0.44156,0.14068 0.57703,0.0569 0.13546,-0.0837 0.32108,-0.0312 0.41249,0.11668 0.0914,0.14789 0.45682,0.2689 0.81203,0.2689 0.50125,0 0.64584,-0.139 0.64584,-0.62087 z m 12.11695,-1.21918 c -0.17763,-0.28442 -0.36003,-0.48006 -0.40535,-0.43475 -0.15683,0.15684 0.25225,0.95188 0.48979,0.95188 0.13118,0 0.0932,-0.23271 -0.0844,-0.51713 z m 49.0018,34.18186 c -0.72268,-0.83674 -3.08335,-2.66827 -4.52903,-3.51385 -0.78325,-0.45812 -1.66222,-1.04225 -1.95326,-1.29807 -0.29104,-0.25582 -1.2157,-0.74333 -2.05479,-1.08338 -0.83909,-0.34004 -1.75685,-0.83368 -2.03946,-1.09697 -0.28261,-0.26329 -0.66764,-0.48233 -0.85563,-0.48675 -0.23221,-0.005 -0.21031,-0.085 0.0683,-0.24812 0.50571,-0.29604 3.58313,0.73113 4.97804,1.66156 0.52902,0.35286 1.6167,1.0117 2.41706,1.46407 2.27118,1.2837 4.63511,3.31208 5.29332,4.54196 0.24295,0.45396 0.19867,0.52559 -0.32307,0.52257 -0.33255,-0.002 -0.78322,-0.21029 -1.0015,-0.46302 z m -46.98657,-3.34082 c -0.27837,-0.19013 -0.92285,-0.42274 -1.43218,-0.51692 -0.50932,-0.0942 -1.87854,-0.46581 -3.04271,-0.82586 -1.16416,-0.36005 -2.92649,-0.85618 -3.91629,-1.10252 -1.04937,-0.26117 -1.89796,-0.63163 -2.0355,-0.88861 -0.19975,-0.37324 -0.10649,-0.43074 0.60901,-0.37548 1.62029,0.12512 3.8976,0.60464 4.28445,0.90215 0.14552,0.11191 0.6813,0.28347 1.19063,0.38124 1.01788,0.19539 3.75872,1.09496 4.69635,1.5414 0.59781,0.28464 0.78703,0.83806 0.37385,1.09342 -0.12181,0.0753 -0.44923,-0.0187 -0.72761,-0.20882 z m 33.7574,-4.44231 c -0.3638,-0.12013 -1.3163,-0.36693 -2.11666,-0.54844 -1.21773,-0.27617 -1.4698,-0.43321 -1.5446,-0.96228 -0.093,-0.65797 -0.13939,-0.65179 1.41231,-0.18819 0.14552,0.0435 0.44317,0.14668 0.66145,0.22933 0.21829,0.0827 0.92413,0.30899 1.56855,0.50298 1.18119,0.35558 1.65393,0.84897 1.02232,1.067 -0.18805,0.0649 -0.63956,0.0197 -1.00337,-0.1004 z m 11.08117,-2.8307 c -0.55831,-0.43917 -1.28741,-0.88122 -3.04127,-1.84394 -1.18825,-0.65225 -4.01373,-1.88378 -4.8649,-2.12045 -0.50932,-0.14162 -1.60414,-0.50419 -2.43294,-0.8057 -0.82879,-0.30152 -1.67995,-0.4818 -1.89146,-0.40064 -0.21152,0.0812 -0.46317,0.0204 -0.55924,-0.13505 -0.0961,-0.15544 -0.30946,-0.28262 -0.47421,-0.28262 -0.16474,0 -0.08,0.16053 0.18833,0.35674 0.26833,0.1962 0.41299,0.47789 0.32147,0.62598 -0.27487,0.44474 -1.58144,0.0588 -2.42799,-0.71715 -0.73544,-0.67414 -2.24896,-1.28251 -2.24896,-0.904 0,0.091 0.29766,0.39954 0.66146,0.6857 0.3638,0.28617 0.66146,0.69026 0.66146,0.89798 0,0.49589 -0.7678,0.48858 -0.95879,-0.009 -0.0816,-0.21275 -0.38734,-0.46263 -0.67934,-0.55531 -0.40527,-0.12863 -0.50514,-0.34417 -0.42199,-0.91074 0.092,-0.62707 -0.027,-0.80708 -0.76755,-1.1602 -0.48207,-0.22989 -0.8765,-0.54599 -0.8765,-0.70245 0,-0.15646 -0.13013,-0.20405 -0.28918,-0.10576 -0.15905,0.0983 -0.90319,-0.12168 -1.65364,-0.48885 -1.4192,-0.69436 -2.22527,-0.92829 -4.0103,-1.16382 -0.58208,-0.0768 -1.26278,-0.32025 -1.51265,-0.54099 -0.24988,-0.22074 -0.68868,-0.34006 -0.9751,-0.26516 -0.30486,0.0797 -0.57927,-0.0162 -0.66186,-0.23145 -0.0776,-0.2022 -0.34722,-0.36764 -0.59917,-0.36764 -0.33648,0 -0.37989,-0.0782 -0.16353,-0.29456 0.43351,-0.43351 4.50389,0.20503 6.33355,0.99357 0.45855,0.19763 1.06118,0.35933 1.33917,0.35933 0.27799,0 0.76103,0.23812 1.07343,0.52916 0.31239,0.29104 0.85789,0.52917 1.21221,0.52917 0.35431,0 0.71274,0.17859 0.7965,0.39687 0.0838,0.21829 0.39416,0.39688 0.68977,0.39688 0.30136,0 0.53747,0.17434 0.53747,0.39687 0,0.21829 0.20069,0.39688 0.44597,0.39688 0.24528,0 0.72559,0.26269 1.06736,0.58377 0.54831,0.5151 0.71784,0.54736 1.4415,0.27421 0.46568,-0.17578 1.00491,-0.2164 1.24774,-0.094 0.2352,0.11856 1.20155,0.37144 2.14743,0.56195 2.84525,0.57307 9.12149,3.08808 10.11152,4.05188 0.18674,0.18179 0.76407,0.59012 1.28297,0.90739 0.5189,0.31728 1.16243,0.81884 1.43007,1.11458 0.47697,0.52704 0.47339,0.53771 -0.18016,0.53771 -0.36673,0 -0.95112,-0.22366 -1.29865,-0.49702 z m -31.58637,-0.46872 c -5.41349,-2.11429 -10.72369,-3.75488 -13.49375,-4.16889 -1.49115,-0.22286 -2.24811,-0.53128 -2.38834,-0.9731 -0.0932,-0.29358 -0.49216,-0.54312 -1.00001,-0.62543 -1.54474,-0.25038 -3.74362,-0.41928 -4.68144,-0.35959 -2.95176,0.18789 -9.342346,-0.19921 -10.114956,-0.6127 -0.72184,-0.38632 -0.41858,-0.9052 0.48245,-0.82545 0.422926,0.0374 3.507396,0.10535 6.854376,0.15093 7.49963,0.10213 10.87645,0.54857 12.54882,1.65901 0.63601,0.42231 1.2874,0.83706 1.44753,0.92168 1.3598,0.71851 2.11486,1.03678 2.45964,1.03678 0.2232,0 2.08879,0.54791 4.14575,1.21757 5.56347,1.81124 6.73112,2.40974 5.57037,2.85516 -0.55237,0.21197 -0.5992,0.20491 -1.83044,-0.27597 z m 26.80149,-5.05094 c -0.24782,-0.0565 -0.52365,-0.33294 -0.61295,-0.61429 -0.0893,-0.28135 -0.45208,-0.58427 -0.80618,-0.67314 -0.3541,-0.0889 -0.64382,-0.27382 -0.64382,-0.41099 0,-0.13717 -0.38696,-0.4237 -0.8599,-0.63672 -1.14208,-0.51443 -1.74311,-0.89589 -2.78646,-1.76849 -0.47848,-0.40019 -0.99519,-0.72761 -1.14824,-0.72761 -0.15305,0 -0.79637,-0.37207 -1.4296,-0.82682 -0.63323,-0.45475 -1.45637,-0.82682 -1.82919,-0.82682 -0.37283,0 -0.67786,-0.13465 -0.67786,-0.29922 0,-0.16457 -0.38696,-0.45732 -0.8599,-0.65056 -1.8188,-0.74316 -2.19724,-0.90524 -2.64224,-1.13161 -0.25269,-0.12855 -0.94103,-0.23372 -1.52966,-0.23372 -0.70961,0 -1.1218,-0.1344 -1.22328,-0.39886 -0.0843,-0.21967 -0.46689,-0.39504 -0.8516,-0.39035 -0.38419,0.005 -1.83949,-0.15802 -3.23399,-0.36155 -2.43132,-0.35485 -4.35588,-0.38047 -4.67413,-0.0622 -0.18482,0.18481 -0.8602,-0.34911 -0.8602,-0.68003 0,-0.30081 1.11105,-0.73783 1.41623,-0.55707 0.12408,0.0735 1.25517,0.16739 2.51354,0.20865 2.78152,0.0912 4.31315,0.29682 4.51661,0.60635 0.0839,0.12766 0.33117,0.23284 0.54945,0.23372 0.87757,0.004 3.60814,0.67912 4.15788,1.02871 0.3223,0.20495 0.77528,0.37264 1.00661,0.37264 0.57885,0 5.39914,2.53818 6.21259,3.27131 0.36381,0.32788 1.41257,0.97887 2.3306,1.44664 0.91803,0.46777 2.26817,1.324 3.00032,1.90273 0.73215,0.57873 1.43956,1.05224 1.57201,1.05224 0.28869,0 0.32565,0.98378 0.0424,1.12846 -0.10914,0.0557 -0.40121,0.0551 -0.64903,-0.001 z m -59.171166,-9.85832 c 0,-0.3638 0.0601,-0.51263 0.13345,-0.33073 0.0734,0.1819 0.0734,0.47956 0,0.66146 -0.0734,0.1819 -0.13345,0.0331 -0.13345,-0.33073 z m -0.38296,-2.1164 c -0.0761,-0.2909 -0.0304,-0.59558 0.10144,-0.67708 0.13186,-0.0815 0.23974,0.15652 0.23974,0.52891 0,0.81069 -0.1508,0.87618 -0.34118,0.14817 z m -1.5109,-9.90653 c 0,-0.37239 0.0937,-0.67707 0.20828,-0.67707 0.30023,0 0.33372,1.01917 0.0395,1.20103 -0.13626,0.0842 -0.24774,-0.15157 -0.24774,-0.52396 z"
       id="path6" />
  </g>
</svg>
