<?xml version="1.0" encoding="UTF-8" standalone="no"?>
<!-- Created with Inkscape (http://www.inkscape.org/) -->

<svg
   width="131.86516mm"
   height="48.801308mm"
   viewBox="0 0 131.86514 48.801311"
   version="1.1"
   id="svg1"
   inkscape:version="1.4.1-rc (06eac75fbf, 2025-03-29)"
   sodipodi:docname="hill1.svg"
   xmlns:inkscape="http://www.inkscape.org/namespaces/inkscape"
   xmlns:sodipodi="http://sodipodi.sourceforge.net/DTD/sodipodi-0.dtd"
   xmlns="http://www.w3.org/2000/svg"
   xmlns:svg="http://www.w3.org/2000/svg">
  <sodipodi:namedview
     id="namedview1"
     pagecolor="#ffffff"
     bordercolor="#000000"
     borderopacity="0.25"
     inkscape:showpageshadow="2"
     inkscape:pageopacity="0.0"
     inkscape:pagecheckerboard="0"
     inkscape:deskcolor="#d1d1d1"
     inkscape:document-units="mm"
     inkscape:zoom="0.72248176"
     inkscape:cx="249.14124"
     inkscape:cy="92.043846"
     inkscape:window-width="1850"
     inkscape:window-height="1016"
     inkscape:window-x="0"
     inkscape:window-y="0"
     inkscape:window-maximized="1"
     inkscape:current-layer="layer1" />
  <defs
     id="defs1" />
  <g
     inkscape:label="Layer 1"
     inkscape:groupmode="layer"
     id="layer1"
     transform="translate(-40.48123,-123.82534)">
    <path
       style="fill:#000000"
       d="m 86.265891,172.34404 c -0.0961,-0.15544 -0.33787,-0.22 -0.53733,-0.14346 -0.52871,0.20288 -1.89641,-0.33629 -2.08238,-0.8209 -0.23346,-0.60841 -0.13249,-0.62311 1.43673,-0.20915 1.50888,0.39803 3.66089,0.47113 4.10454,0.13942 0.14552,-0.10881 0.62177,-0.2828 1.05833,-0.38666 0.43657,-0.10386 1.36109,-0.53699 2.0545,-0.96252 0.69341,-0.42553 1.59876,-0.7737 2.01188,-0.7737 0.44035,0 1.05533,-0.28191 1.48632,-0.68133 0.56019,-0.51917 0.9,-0.64046 1.4277,-0.50961 0.38089,0.0945 0.72999,0.27534 0.77578,0.40196 0.0458,0.12662 0.60449,-0.0608 1.24155,-0.41644 0.63705,-0.35566 1.343719,-0.64666 1.570379,-0.64666 0.22666,0 0.4121,-0.10462 0.4121,-0.23248 0,-0.12787 0.36001,-0.38161 0.80002,-0.56387 0.44001,-0.18225 0.8865,-0.48488 0.99219,-0.67249 0.28736,-0.51009 1.6484,-0.79647 1.64332,-0.34578 -0.002,0.19768 -0.0915,0.47915 -0.19843,0.6255 -0.37606,0.51477 -2.14788,1.71829 -2.52968,1.71829 -0.21242,0 -0.44871,0.16284 -0.52508,0.36187 -0.0764,0.19904 -0.4427,0.41996 -0.81405,0.49095 -0.37136,0.071 -0.612239,0.0272 -0.53529,-0.0973 0.0769,-0.1245 0.0237,-0.22637 -0.118249,-0.22637 -0.14198,0 -0.29784,0.11578 -0.34634,0.25729 -0.0485,0.1415 -0.62398,0.30161 -1.27882,0.35579 -1.05219,0.0871 -1.71714,0.34257 -3.175,1.22002 -0.21829,0.13138 -1.56628,0.72518 -2.99555,1.31955 -2.03578,0.8466 -2.93506,1.08069 -4.15158,1.08069 -0.85409,0 -1.6315,-0.12718 -1.72756,-0.28262 z m -10.8044,-3.0805 c -0.10784,-0.10783 -1.71926,-0.21294 -3.58094,-0.23358 -1.86168,-0.0206 -3.57562,-0.14426 -3.80876,-0.27473 -0.62483,-0.34968 -0.14632,-0.90783 0.7627,-0.88964 0.42559,0.009 1.25004,0.0281 1.83213,0.0435 0.58208,0.0154 1.29645,0.009 1.5875,-0.0139 0.29104,-0.0231 1.30307,-0.044 2.24895,-0.0465 0.94589,-0.002 2.19605,-0.12616 2.77813,-0.27484 1.32998,-0.33973 4.58561,-1.03213 5.30503,-1.12827 0.29839,-0.0399 0.69214,-0.16497 0.87501,-0.27798 0.18287,-0.11302 0.6531,-0.25834 1.04497,-0.32294 0.39187,-0.0646 0.90641,-0.14927 1.14342,-0.18817 0.23702,-0.0389 0.71587,-0.25742 1.06411,-0.4856 0.34825,-0.22818 1.1366,-0.49992 1.75188,-0.60387 0.92489,-0.15626 1.11871,-0.11622 1.11871,0.23112 0,0.23108 -0.13734,0.42013 -0.3052,0.42013 -0.16786,0 -0.91826,0.29003 -1.66755,0.6445 -0.74929,0.35447 -1.9514,0.79074 -2.67136,0.96949 -0.71996,0.17875 -1.58063,0.50016 -1.91259,0.71426 -0.33196,0.2141 -0.67504,0.3178 -0.76239,0.23045 -0.0873,-0.0874 -0.39379,-0.0331 -0.68096,0.12061 -0.28718,0.15369 -0.8966,0.31325 -1.35428,0.35458 -1.63608,0.14773 -4.27214,0.7215 -4.42095,0.96227 -0.0833,0.13482 -0.23973,0.1569 -0.34756,0.0491 z m 7.05946,-0.68938 c -0.26259,-0.42537 0.86148,-0.9346 1.904,-0.86257 1.09045,0.0753 4.9975,-1.09465 6.12715,-1.83482 0.33061,-0.21662 0.78551,-0.39386 1.01088,-0.39386 0.22538,0 0.64087,-0.14432 0.92332,-0.32072 0.28245,-0.17639 0.60252,-0.23173 0.71127,-0.12298 0.22673,0.22673 -1.05562,1.50203 -1.51033,1.50203 -0.31609,0 -1.91601,1.04867 -2.046,1.34105 -0.0415,0.0933 -0.37667,0.11195 -0.74492,0.0416 -0.4789,-0.0915 -0.78207,0.0327 -1.06475,0.43626 -0.32379,0.46227 -0.49177,0.51258 -0.92941,0.27836 -0.2938,-0.15723 -0.73324,-0.20376 -0.97653,-0.10339 -0.63972,0.26391 -3.24741,0.29385 -3.40468,0.0391 z m -16.88901,-1.78063 c -0.29903,-0.48382 0.24192,-0.80324 1.75871,-1.03848 0.78314,-0.12145 1.66618,-0.28014 1.96233,-0.35263 0.29614,-0.0725 1.24864,-0.2178 2.11666,-0.32289 0.86803,-0.1051 1.72184,-0.30571 1.89737,-0.4458 0.17552,-0.14009 0.43449,-0.18342 0.57548,-0.0963 0.14099,0.0871 0.53316,0.0505 0.87149,-0.0814 0.33832,-0.13191 1.32951,-0.45605 2.20264,-0.72031 0.87312,-0.26425 1.70656,-0.56109 1.85208,-0.65964 0.14552,-0.0986 0.80036,-0.26362 1.45521,-0.36682 0.65484,-0.1032 1.47287,-0.36693 1.81783,-0.58608 0.80921,-0.51406 4.18243,-0.7475 3.67989,-0.25465 -0.46402,0.45506 -3.23291,1.55023 -4.54967,1.79951 -0.59419,0.11249 -2.44956,0.57285 -4.12305,1.02304 -3.95847,1.06485 -7.47433,1.83479 -9.12813,1.99896 -0.7276,0.0722 -1.52125,0.1922 -1.76367,0.2666 -0.24241,0.0744 -0.52374,0.001 -0.62517,-0.16312 z m -5.7939,-2.01707 c -0.24398,-0.63581 0.3069,-0.87932 1.96503,-0.8686 2.04857,0.0132 3.42303,-0.14321 4.56286,-0.51939 0.54068,-0.17844 1.09059,-0.25797 1.22204,-0.17673 0.13144,0.0812 0.93744,-0.086 1.79111,-0.37156 0.85367,-0.28559 1.73248,-0.52219 1.95291,-0.52577 0.22044,-0.004 0.82073,-0.23157 1.33398,-0.50666 0.51326,-0.27509 1.34493,-0.55976 1.84817,-0.6326 0.87024,-0.12595 1.17279,-0.2257 3.03164,-0.99942 0.43657,-0.18171 0.96043,-0.3637 1.16414,-0.40443 0.20372,-0.0407 0.44184,-0.18283 0.52917,-0.31578 0.23663,-0.36028 2.89098,-0.61096 3.08832,-0.29167 0.0914,0.14787 0.10827,0.32673 0.0375,0.39747 -0.17071,0.17071 -9.131,3.28515 -9.97854,3.46836 -0.3638,0.0786 -0.78052,0.2276 -0.92604,0.33101 -0.45738,0.32504 -2.78542,0.88019 -2.9598,0.70581 -0.0916,-0.0916 -0.32917,-0.0315 -0.52798,0.13349 -0.1988,0.16499 -0.43693,0.22453 -0.52916,0.13229 -0.0922,-0.0922 -0.30137,-0.0568 -0.46475,0.0788 -0.26826,0.22264 -4.8784,0.80721 -6.36595,0.80721 -0.33282,0 -0.68142,-0.19884 -0.77468,-0.44186 z m -5.11257,-2.67777 c -0.73617,-0.0562 -1.12448,-0.21143 -1.12448,-0.44962 0,-0.50875 0.63004,-0.64968 2.85043,-0.63759 1.05842,0.006 2.30857,-0.10726 2.77813,-0.25117 0.99416,-0.30468 3.18611,-0.66091 4.2136,-0.68478 0.39272,-0.009 0.86301,-0.16541 1.0451,-0.34731 0.18209,-0.1819 0.60492,-0.33073 0.93962,-0.33073 0.33469,0 0.60854,-0.12609 0.60854,-0.2802 0,-0.15411 0.11529,-0.20894 0.2562,-0.12186 0.1409,0.0871 0.76598,-0.0723 1.38906,-0.3541 0.62307,-0.28184 1.66864,-0.66025 2.32349,-0.8409 0.65484,-0.18065 1.6747,-0.55006 2.26635,-0.8209 0.59164,-0.27085 1.24649,-0.49389 1.4552,-0.49564 0.20872,-0.002 0.89766,-0.29941 1.53098,-0.66146 0.63331,-0.36205 1.36287,-0.65827 1.62124,-0.65827 0.25837,0 0.61799,-0.1786 0.79914,-0.39688 0.18116,-0.21828 0.53017,-0.39687 0.77558,-0.39687 0.24541,0 0.67732,-0.17481 0.95979,-0.38846 0.58562,-0.44294 1.85894,-0.53252 2.09688,-0.14752 0.13003,0.21039 -5.08796,2.91723 -5.62355,2.91723 -0.0871,0 -0.64237,0.22234 -1.23401,0.49409 -2.46444,1.13194 -3.02573,1.35799 -3.37195,1.35799 -0.20029,0 -0.59901,0.1617 -0.88605,0.35934 -0.28704,0.19763 -0.99814,0.45629 -1.58023,0.5748 -0.58208,0.1185 -1.11786,0.2318 -1.19062,0.25176 -0.0728,0.02 -0.84667,0.1922 -1.71979,0.38274 -0.87313,0.19054 -2.10511,0.57645 -2.73774,0.85757 -0.63263,0.28112 -1.28748,0.46387 -1.45521,0.4061 -0.16773,-0.0578 -0.66216,-0.002 -1.09872,0.12379 -0.43656,0.12585 -1.38906,0.28755 -2.11667,0.35933 -0.7276,0.0718 -1.62057,0.16083 -1.98437,0.19791 -0.36381,0.0371 -1.16748,0.0288 -1.78594,-0.0184 z m -4.82865,-2.15857 c 0,-0.35327 1.83053,-1.71071 2.03338,-1.50786 0.0918,0.0918 0.34604,0.0191 0.56499,-0.16154 0.31813,-0.26246 0.42119,-0.25981 0.51304,0.0132 0.0841,0.24986 0.23241,0.20941 0.55229,-0.15059 0.60438,-0.68019 3.31531,-1.38316 5.90144,-1.5303 1.18977,-0.0677 2.29254,-0.2243 2.4506,-0.34802 0.15806,-0.12372 0.46598,-0.23903 0.68426,-0.25625 2.58664,-0.20405 7.66423,-1.85109 7.67086,-2.48822 0.001,-0.10914 0.22413,-0.19844 0.49555,-0.19844 0.27141,0 0.77743,-0.22176 1.12448,-0.4928 0.88317,-0.68974 3.67395,-1.97594 4.46745,-2.05892 0.3638,-0.038 0.90117,-0.34633 1.19416,-0.68507 0.62203,-0.71916 2.08908,-1.38898 2.49404,-1.1387 0.42396,0.26202 0.33688,0.66811 -0.18247,0.85091 -1.12982,0.39769 -2.69284,1.16289 -2.83058,1.38577 -0.46209,0.74766 -7.88832,4.25443 -11.45015,5.40692 -1.83374,0.59333 -4.89362,1.16457 -6.42292,1.19908 -0.21828,0.005 -0.87312,0.12147 -1.45521,0.25898 -0.58208,0.13752 -1.77271,0.39205 -2.64583,0.56561 -0.87313,0.17357 -1.64703,0.40416 -1.71979,0.51242 -0.15537,0.23118 -2.58073,1.07497 -3.08984,1.07497 -0.19236,0 -0.34975,-0.113 -0.34975,-0.25112 z m -9.37288,-2.83533 c -0.42855,-1.11678 2.4481,-2.47629 5.03103,-2.37767 0.78729,0.0301 1.43144,-0.0122 1.43144,-0.094 0,-0.26747 1.52472,-1.05648 2.04158,-1.05648 0.27761,0 0.75652,-0.34056 1.06426,-0.7568 0.31465,-0.42558 0.9154,-0.82797 1.37267,-0.91943 0.62006,-0.12401 0.81412,-0.30556 0.8172,-0.76455 0.002,-0.33106 0.0915,-0.73294 0.19844,-0.89305 0.2922,-0.43761 1.36266,-0.94455 1.63678,-0.77513 0.13246,0.0819 0.31562,0.0278 0.40702,-0.12006 0.27671,-0.44772 2.13968,-0.30269 3.76306,0.29294 1.80994,0.66409 2.05198,0.85052 1.83575,1.414 -0.14882,0.38782 -0.23402,0.38702 -1.00051,-0.009 -1.17543,-0.60784 -4.30124,-1.01354 -4.9859,-0.64712 -0.29467,0.15771 -0.53577,0.44269 -0.53577,0.6333 0,0.42913 0.9094,1.28306 1.13072,1.06174 0.0889,-0.0889 0.5352,0.1042 0.99165,0.42923 0.66153,0.47105 0.94997,0.53626 1.42152,0.32141 0.32538,-0.14825 1.08986,-0.23239 1.69885,-0.18697 0.60899,0.0454 1.10726,-0.0187 1.10726,-0.14242 0,-0.12376 0.26789,-0.30005 0.59531,-0.39176 0.63911,-0.17902 1.63509,-0.58036 2.37766,-0.95811 0.25269,-0.12854 0.74413,-0.23372 1.09209,-0.23372 0.34795,0 0.78087,-0.17859 0.96202,-0.39687 0.18116,-0.21828 0.46576,-0.39688 0.63244,-0.39688 0.16668,0 0.75913,-0.30991 1.31656,-0.68869 0.55743,-0.37878 1.15061,-0.71343 1.31819,-0.74366 0.16758,-0.0302 0.72141,-0.31664 1.23073,-0.63646 0.50932,-0.31982 1.31112,-0.68943 1.78178,-0.82136 0.47065,-0.13193 1.17132,-0.48811 1.55703,-0.79152 0.38572,-0.3034 0.85799,-0.55164 1.0495,-0.55164 0.33707,0 5.12711,-2.14929 5.93044,-2.66099 0.21828,-0.13904 0.57547,-0.32091 0.79375,-0.40416 0.21828,-0.0832 0.73959,-0.33638 1.15846,-0.56251 0.41887,-0.22613 1.21959,-0.43789 1.77938,-0.47057 0.55978,-0.0327 1.19362,-0.20534 1.40853,-0.3837 0.46429,-0.38533 1.47446,-0.1299 1.47446,0.37284 0,0.38867 -1.32335,0.93409 -2.26639,0.93409 -0.32996,0 -0.63961,0.0934 -0.68812,0.20764 -0.0485,0.1142 -1.10022,0.60433 -2.33715,1.08918 -1.23693,0.48484 -2.66568,1.10314 -3.175,1.37399 -0.50933,0.27085 -1.46183,0.73026 -2.11667,1.0209 -0.65484,0.29065 -1.36922,0.64641 -1.5875,0.79059 -0.21828,0.14419 -0.99219,0.5084 -1.71979,0.80937 -0.7276,0.30096 -1.50151,0.6625 -1.71979,0.8034 -0.21828,0.14091 -0.69453,0.37502 -1.05834,0.52026 -0.3638,0.14524 -0.89504,0.39984 -1.18053,0.56578 -1.62423,0.9441 -2.81575,1.4895 -3.59421,1.64519 -0.48349,0.0967 -1.06548,0.32943 -1.29331,0.51718 -0.3941,0.32476 -2.62021,1.09967 -4.91215,1.70992 -2.74933,0.73203 -3.2755,0.84532 -4.7038,1.01279 -0.84084,0.0986 -1.592,0.28153 -1.66926,0.40653 -0.0773,0.125 -0.66922,0.22728 -1.31548,0.22728 -0.86806,0 -1.17501,-0.10367 -1.17501,-0.39687 0,-0.21829 -0.18642,-0.39688 -0.41427,-0.39688 -0.5733,0 -1.47904,0.51299 -1.33039,0.75351 0.35837,0.57985 -0.33832,0.76218 -2.22409,0.58207 -2.23358,-0.21333 -3.34527,-4.7e-4 -3.86377,0.7398 -0.46355,0.66181 -1.35059,0.88894 -1.54036,0.39442 z m 14.95921,-3.43208 c 0.32397,-0.39036 0.26229,-0.42177 -0.62488,-0.3182 -0.54139,0.0632 -1.01835,0.0129 -1.05991,-0.1118 -0.0902,-0.27066 -2.14095,-0.33342 -2.55397,-0.0782 -0.15908,0.0983 -0.28923,0.35032 -0.28923,0.56001 0,0.58859 4.03482,0.54238 4.52799,-0.0518 z m 7.69739,-4.51024 c 0.0505,-0.28953 -0.15378,-0.5017 -0.58372,-0.60616 -0.41306,-0.10037 -0.69294,-0.37816 -0.74529,-0.73975 -0.0612,-0.42284 -0.36619,-0.65506 -1.13058,-0.86089 -1.19027,-0.32051 -1.49644,-0.20498 -1.83806,0.69356 -0.30202,0.79436 -0.93173,0.81928 -1.34178,0.0531 -0.2336,-0.43648 -0.23552,-0.6081 -0.008,-0.68405 0.16729,-0.0558 0.22902,-0.223 0.13716,-0.37163 -0.10561,-0.17087 -0.25392,-0.13824 -0.40337,0.0888 -0.19185,0.29139 -0.28772,0.27181 -0.50924,-0.10405 -0.15009,-0.25466 -0.49807,-0.46302 -0.77329,-0.46302 -0.27522,0 -0.57519,-0.121 -0.66659,-0.2689 -0.0914,-0.14789 -0.29419,-0.18979 -0.45062,-0.0931 -0.15644,0.0967 -0.62661,0.16606 -1.04482,0.15417 -0.49099,-0.014 -0.69645,0.0818 -0.57992,0.27037 0.10965,0.17742 0.0337,0.2368 -0.19368,0.15134 -0.68693,-0.25822 -1.42889,0.21525 -1.56679,0.99982 -0.0826,0.47011 -0.325,0.80095 -0.62976,0.85964 -0.70698,0.13615 -0.91357,-0.36819 -0.58319,-1.42374 0.27581,-0.8812 0.56411,-1.04269 1.74029,-0.97487 0.21616,0.0125 0.47958,-0.1176 0.58539,-0.28905 0.1058,-0.17144 0.46473,-0.33547 0.79761,-0.36452 2.05433,-0.17926 3.15598,-0.0997 3.92405,0.28348 1.00121,0.49948 1.9181,0.54951 2.67238,0.14583 0.29285,-0.15672 0.7315,-0.19735 0.97479,-0.0903 0.24329,0.10707 0.54418,0.17159 0.66864,0.14338 0.12446,-0.0282 0.38369,0.0793 0.57608,0.23902 0.38201,0.31704 2.62563,-0.28239 2.65022,-0.70806 0.0799,-1.38305 1.13329,-2.07247 2.54706,-1.66701 0.48181,0.13819 0.91213,0.25124 0.95627,0.25124 0.0441,0 -0.13368,-0.29751 -0.39513,-0.66113 -0.29472,-0.40989 -1.01579,-0.82286 -1.89743,-1.0867 -1.68575,-0.50448 -1.9829,-0.28411 -1.7325,1.28481 0.19195,1.20262 -0.1162,1.26487 -0.91475,0.18478 -1.26506,-1.71108 0.17557,-3.3784 2.43919,-2.823 1.55234,0.38087 3.12639,1.49222 3.74678,2.64538 0.55978,1.04049 0.92605,1.26311 0.92605,0.56285 0,-0.23219 0.23753,-0.75576 0.52785,-1.16347 l 0.52785,-0.7413 -1.21383,-1.35007 c -0.66761,-0.74253 -1.43389,-1.35006 -1.70286,-1.35006 -0.26897,0 -0.56262,-0.11907 -0.65256,-0.26459 -0.0899,-0.14552 -0.44712,-0.26458 -0.79375,-0.26458 -0.34662,0 -0.69913,-0.11149 -0.78334,-0.24775 -0.0842,-0.13626 -0.35913,-0.26011 -0.61093,-0.27523 -0.2518,-0.0151 -1.20951,-0.0932 -2.12825,-0.17347 -1.49424,-0.1306 -1.77417,-0.0741 -2.65392,0.53556 -1.23469,0.85564 -1.33881,1.69059 -0.40873,3.27766 0.55081,0.93987 0.61959,1.22533 0.33729,1.3998 -0.49901,0.3084 -1.25999,-0.44535 -1.86518,-1.84747 -0.49853,-1.15502 -0.49819,-1.17942 0.0319,-2.30706 0.74966,-1.59482 1.72338,-2.04675 4.45186,-2.0662 1.67463,-0.0119 2.24955,0.078 2.43769,0.38124 0.13541,0.21828 0.51846,0.40871 0.85122,0.42317 0.33276,0.0145 1.0515,0.11701 1.59721,0.22789 0.66738,0.13559 1.00301,0.10533 1.02526,-0.0924 0.0182,-0.16172 0.0628,-0.4131 0.0992,-0.55862 0.0364,-0.14552 0.081,-0.55352 0.0992,-0.90666 0.0427,-0.829 1.26583,-1.45493 3.15767,-1.61591 1.50201,-0.12781 2.14482,0.095 3.13741,1.08761 0.52276,0.52276 0.83323,0.6013 2.09022,0.52875 0.81195,-0.0469 1.60109,-0.21002 1.75364,-0.36257 0.15255,-0.15255 0.44145,-0.2144 0.642,-0.13744 0.20054,0.077 0.36463,0.0372 0.36463,-0.0884 0,-0.12557 0.38695,-0.39252 0.8599,-0.59322 0.47294,-0.20071 1.42544,-0.64158 2.11666,-0.97971 0.69123,-0.33814 1.25677,-0.54172 1.25677,-0.45242 0,0.0893 0.21427,-0.0315 0.47616,-0.26853 0.26189,-0.23701 1.00358,-0.617 1.6482,-0.84444 0.64462,-0.22744 1.56825,-0.64729 2.05251,-0.93301 0.48425,-0.28571 1.03951,-0.51948 1.23391,-0.51948 0.19439,0 0.42197,-0.1786 0.50574,-0.39688 0.0838,-0.21828 0.36209,-0.39687 0.6185,-0.39687 0.46198,0 2.40528,-0.69778 4.44519,-1.59612 1.67077,-0.73578 3.997039,-1.43986 5.492419,-1.66236 0.57837,-0.0861 0.67018,-0.0366 0.44218,0.23809 -0.29479,0.3552 -2.621639,1.33977 -2.932079,1.24067 -0.0949,-0.0303 -1.02075,0.35776 -2.05752,0.86233 -1.03676,0.50456 -1.99741,0.91739 -2.13478,0.91739 -0.35704,0 -6.8611,2.94089 -8.33522,3.76887 -0.78097,0.43866 -1.62626,0.83112 -3.83646,1.78125 -1.0914,0.46918 -2.16297,0.96165 -2.38125,1.09438 -0.21828,0.13274 -0.90289,0.47373 -1.52135,0.75776 -0.61846,0.28404 -1.12448,0.63973 -1.12448,0.79042 0,0.15069 -0.17859,0.27398 -0.39688,0.27398 -0.21828,0 -0.39687,0.11907 -0.39687,0.26459 0,0.14552 0.13364,0.26458 0.29698,0.26458 0.21264,0 0.21646,0.097 0.0135,0.34163 -0.21105,0.25431 -0.14522,0.428 0.25753,0.67953 0.45062,0.28142 0.6177,0.26854 0.99957,-0.077 0.25218,-0.22822 0.58804,-0.41494 0.74636,-0.41494 0.15831,0 0.32753,-0.0893 0.37604,-0.19844 0.11808,-0.26568 2.19888,-1.38906 2.57291,-1.38906 0.1628,0 0.88961,-0.28637 1.61513,-0.63637 0.72553,-0.35001 1.94533,-0.78886 2.71069,-0.97524 0.76535,-0.18638 1.59991,-0.51378 1.85457,-0.72755 0.25466,-0.21378 0.46302,-0.30479 0.46302,-0.20224 0,0.10254 0.20828,0.0699 0.46285,-0.0726 0.33472,-0.18731 0.59109,-0.14298 0.92604,0.16016 0.42649,0.38596 0.46319,0.37736 0.46319,-0.10853 0,-0.60307 0.97962,-1.14181 2.0762,-1.14181 0.40061,0 0.84149,-0.095 0.97974,-0.2112 0.50051,-0.42056 3.04425,-1.16266 3.45069,-1.0067 0.68266,0.26196 0.27299,0.78265 -0.7027,0.89313 -0.50003,0.0566 -1.32586,0.32014 -1.83518,0.58561 -1.26919,0.66152 -3.65552,1.55277 -4.70186,1.75605 -0.47597,0.0925 -0.92627,0.26661 -1.00066,0.38698 -0.0744,0.12037 -0.30904,0.15217 -0.52143,0.0707 -0.21443,-0.0823 -0.45736,0.0373 -0.54624,0.26895 -0.088,0.22942 -0.59506,0.49833 -1.12671,0.59757 -1.11007,0.20723 -4.47793,1.58315 -5.06768,2.07038 -0.21828,0.18034 -0.99219,0.60646 -1.71979,0.94694 -1.38174,0.64657 -2.51199,1.359 -3.48615,2.19741 -0.31665,0.27252 -0.68599,0.42735 -0.82076,0.34405 -0.13477,-0.0833 -0.70454,0.0828 -1.26616,0.36916 -0.56161,0.28633 -1.22491,0.52059 -1.47398,0.52059 -0.24908,0 -0.80033,0.34746 -1.225,0.77213 -0.42467,0.42467 -1.11844,0.81162 -1.54171,0.85989 -0.49155,0.0561 -0.86393,0.30284 -1.03076,0.68309 -0.18484,0.42133 -0.4864,0.59531 -1.03185,0.59531 -0.42388,0 -1.59673,0.47625 -2.60634,1.05833 -2.03579,1.17372 -2.37783,1.26633 -2.26379,0.6129 z m 1.95199,-1.3405 c 0.63202,-0.40018 1.15349,-0.80588 1.1588,-0.90155 0.005,-0.0957 -0.63116,-0.21474 -1.41438,-0.26459 -1.38038,-0.0879 -1.41712,-0.0724 -1.19805,0.50238 0.1243,0.32616 0.15707,0.77265 0.0728,0.99219 -0.21824,0.56873 0.0735,0.49935 1.3808,-0.32843 z m 3.74802,-2.38087 c 0.11562,-0.34687 -1.91993,-0.96696 -2.475,-0.75395 -0.60974,0.23397 -0.41752,0.83219 0.35846,1.11557 0.8124,0.29668 1.96261,0.10016 2.11654,-0.36162 z m 3.90273,-1.91861 c 0.0927,-0.15006 -0.12954,-0.26458 -0.51355,-0.26458 -0.37239,0 -0.67707,0.11906 -0.67707,0.26458 0,0.14552 0.2311,0.26458 0.51355,0.26458 0.28245,0 0.58714,-0.11906 0.67707,-0.26458 z m 2.77813,-1.5875 c 0,-0.14552 -0.11906,-0.26458 -0.26459,-0.26458 -0.14552,0 -0.26458,0.11906 -0.26458,0.26458 0,0.14552 0.11906,0.26458 0.26458,0.26458 0.14553,0 0.26459,-0.11906 0.26459,-0.26458 z m -0.37713,-1.61945 c 0.23371,-0.37815 -1.17318,-0.90482 -1.512,-0.56601 -0.15799,0.158 -0.21647,0.40182 -0.12994,0.54183 0.19624,0.31752 1.44924,0.33598 1.64194,0.0242 z m -3.32704,-1.00748 c 0,-0.88208 1.8208,-1.3958 2.90003,-0.81821 0.33912,0.18149 0.56653,0.15956 0.75975,-0.0733 0.20166,-0.24299 0.0386,-0.6147 -0.60668,-1.38335 -0.76747,-0.91414 -1.03248,-1.05487 -2.03392,-1.08007 -1.46746,-0.0369 -1.81293,0.24902 -1.81293,1.50068 0,0.55567 -0.1371,1.09505 -0.30466,1.19861 -0.21111,0.13047 -0.15495,0.29777 0.18286,0.54478 0.56861,0.41578 0.91555,0.45777 0.91555,0.11081 z m 8.73125,9.53696 c 0,-0.12855 0.22922,-0.29367 0.50937,-0.36693 0.35734,-0.0935 0.46735,-0.0237 0.36857,0.23372 -0.15383,0.40087 -0.87794,0.51073 -0.87794,0.13321 z m 90.487489,-13.97527 c -0.3638,-0.23164 -1.00113,-0.65434 -1.41629,-0.93935 -0.5875,-0.40331 -1.11542,-0.50193 -2.38125,-0.44487 -3.65076,0.16458 -5.93339,-0.22059 -6.20481,-1.04699 -0.0995,-0.30288 0.21437,-0.33528 1.76646,-0.18234 2.17714,0.21453 4.26714,-0.0258 4.26714,-0.49071 0,-0.29622 -1.94201,-1.73675 -2.34135,-1.73675 -0.0975,0 -0.31922,-0.22742 -0.4928,-0.50537 -0.17359,-0.27796 -0.70434,-0.59075 -1.17944,-0.6951 -0.47511,-0.10436 -1.04633,-0.27614 -1.26939,-0.38174 -1.92646,-0.91208 -2.38993,-1.17373 -2.38993,-1.34924 0,-0.24431 1.25422,-0.13999 1.97081,0.16392 0.28359,0.12027 0.90831,0.22662 1.38829,0.23633 0.64769,0.0131 0.87287,0.13703 0.87345,0.48068 4.3e-4,0.25466 0.12239,0.46302 0.27103,0.46302 0.29576,0 2.04801,1.08581 3.30162,2.04591 1.01692,0.77882 1.2404,0.93329 1.86653,1.29022 0.2831,0.16138 0.45519,0.3758 0.38243,0.47648 -0.0728,0.10069 0.25186,0.36911 0.72137,0.59651 1.12101,0.54292 2.2558,1.60834 2.12643,1.99645 -0.15873,0.47617 -0.53763,0.48307 -1.2603,0.0229 z m -68.17695,-7.64556 c -0.16944,-0.44157 0.16119,-0.89309 0.73978,-1.01028 0.20092,-0.0407 0.5439,-0.14532 0.76218,-0.23251 0.45342,-0.18109 2.84347,-0.42775 8.20208,-0.84646 2.66915,-0.20857 8.26067,-0.45801 11.90625,-0.53115 1.81901,-0.0365 3.90261,-0.14614 4.63021,-0.24366 1.97927,-0.2653 4.41402,-0.38162 4.80967,-0.2298 0.44399,0.17037 0.45899,0.86788 0.019,0.88175 -1.28815,0.0406 -3.61726,0.28681 -4.16718,0.44048 -0.3638,0.10167 -2.86411,0.21482 -5.55625,0.25146 -2.69214,0.0366 -5.43057,0.12732 -6.08542,0.20153 -0.65484,0.0742 -3.25377,0.19758 -5.7754,0.27416 -2.52163,0.0766 -4.70385,0.21283 -4.84938,0.30277 -0.14553,0.0899 -0.82082,0.22132 -1.50064,0.29194 -0.67982,0.0706 -1.62822,0.29207 -2.10755,0.49209 -0.76147,0.31777 -0.89119,0.31242 -1.02732,-0.0423 z m 44.36445,-0.24889 c -0.94588,-0.33917 -1.98065,-0.62434 -2.29949,-0.6337 -0.31883,-0.009 -0.65328,-0.13609 -0.74322,-0.28161 -0.0899,-0.14552 -0.39462,-0.26458 -0.67707,-0.26458 -0.28245,0 -0.51355,-0.1318 -0.51355,-0.29289 0,-0.16109 -0.16754,-0.22861 -0.37231,-0.15003 -0.20476,0.0786 -1.11205,-0.0297 -2.01618,-0.24063 -0.90414,-0.21092 -2.16468,-0.34432 -2.80121,-0.29645 -1.40058,0.10532 -1.98245,-0.15609 -1.47494,-0.66263 0.55548,-0.55442 4.39501,-0.37048 6.13174,0.29375 0.79831,0.30532 1.63174,0.5548 1.85208,0.55439 0.22033,-4e-4 0.87686,0.22976 1.45894,0.51147 0.58209,0.28172 1.65365,0.60947 2.38125,0.72834 1.05218,0.1719 1.32292,0.31992 1.32292,0.72325 0,0.71107 -0.29333,0.71255 -2.24896,0.0113 z m 5.95313,-0.12156 c 0.0899,-0.14552 0.42438,-0.26276 0.74322,-0.26053 0.47128,0.003 0.50547,0.052 0.18282,0.26053 -0.52126,0.33686 -1.13424,0.33686 -0.92604,0 z m 2.77812,0.0524 c -0.85898,-0.11828 -0.87814,-0.1402 -0.26458,-0.30278 0.78796,-0.20879 1.85208,-0.0472 1.85208,0.28123 0,0.12856 -0.14883,0.21469 -0.33073,0.1914 -0.1819,-0.0233 -0.74745,-0.0997 -1.25677,-0.16985 z"
       id="path7" />
  </g>
</svg>
