<?xml version="1.0" encoding="UTF-8" standalone="no"?>
<!-- Created with Inkscape (http://www.inkscape.org/) -->

<svg
   width="135.11609mm"
   height="42.269543mm"
   viewBox="0 0 135.11607 42.269546"
   version="1.1"
   id="svg1"
   inkscape:version="1.4.1-rc (06eac75fbf, 2025-03-29)"
   sodipodi:docname="hill2.svg"
   xmlns:inkscape="http://www.inkscape.org/namespaces/inkscape"
   xmlns:sodipodi="http://sodipodi.sourceforge.net/DTD/sodipodi-0.dtd"
   xmlns="http://www.w3.org/2000/svg"
   xmlns:svg="http://www.w3.org/2000/svg">
  <sodipodi:namedview
     id="namedview1"
     pagecolor="#ffffff"
     bordercolor="#000000"
     borderopacity="0.25"
     inkscape:showpageshadow="2"
     inkscape:pageopacity="0.0"
     inkscape:pagecheckerboard="0"
     inkscape:deskcolor="#d1d1d1"
     inkscape:document-units="mm"
     inkscape:zoom="0.72248176"
     inkscape:cx="254.67771"
     inkscape:cy="79.586784"
     inkscape:window-width="1850"
     inkscape:window-height="1016"
     inkscape:window-x="0"
     inkscape:window-y="0"
     inkscape:window-maximized="1"
     inkscape:current-layer="layer1" />
  <defs
     id="defs1" />
  <g
     inkscape:label="Layer 1"
     inkscape:groupmode="layer"
     id="layer1"
     transform="translate(-38.893732,-127.00034)">
    <path
       style="fill:#000000"
       d="m 172.73943,168.93062 c -0.3638,-0.23163 -1.00113,-0.65434 -1.41629,-0.93935 -0.58749,-0.4033 -1.11542,-0.50193 -2.38125,-0.44487 -3.65076,0.16458 -5.93338,-0.22058 -6.20481,-1.04699 -0.0995,-0.30288 0.21437,-0.33528 1.76646,-0.18234 2.17714,0.21453 4.26714,-0.0258 4.26714,-0.49071 0,-0.29621 -1.94201,-1.73675 -2.34135,-1.73675 -0.0975,0 -0.31922,-0.22742 -0.4928,-0.50537 -0.17359,-0.27796 -0.70434,-0.59075 -1.17944,-0.6951 -0.47511,-0.10435 -1.04633,-0.27614 -1.26939,-0.38174 -1.92646,-0.91207 -2.38993,-1.17373 -2.38993,-1.34924 0,-0.23098 1.32112,-0.17482 1.72246,0.0732 0.14627,0.0904 0.74128,0.24988 1.32226,0.35441 l 1.05632,0.19006 -0.77711,-0.82749 c -0.42741,-0.45513 -0.92751,-0.8275 -1.11133,-0.8275 -0.18382,0 -0.45558,-0.20836 -0.60391,-0.46302 -0.14833,-0.25466 -0.27331,-0.3798 -0.27773,-0.27808 -0.004,0.10171 -0.43763,0.005 -0.96269,-0.21394 -1.11924,-0.46765 -1.32175,-0.36696 -0.88885,0.44193 0.29349,0.54839 0.27142,0.57689 -0.30929,0.39936 -0.34394,-0.10514 -1.54808,-0.37326 -2.67586,-0.59581 -1.38383,-0.27308 -2.05052,-0.5246 -2.05052,-0.77358 0,-0.20292 -0.21432,-0.36894 -0.47625,-0.36894 -0.26194,0 -0.61299,-0.13673 -0.7801,-0.30385 -0.22875,-0.22875 -0.67964,-0.22838 -1.82416,0.001 -0.91685,0.18413 -1.61618,0.20944 -1.76185,0.0638 -0.55833,-0.55833 2.0882,-1.11015 5.47002,-1.14054 0.82547,-0.007 1.56475,-0.11687 1.64284,-0.24322 0.21742,-0.3518 0.50234,-0.27882 1.16908,0.29944 0.33557,0.29104 0.82301,0.52917 1.0832,0.52917 0.26019,0 0.54665,0.11906 0.63659,0.26458 0.0899,0.14552 0.39624,0.26459 0.68066,0.26459 0.47056,0 1.22659,0.3349 1.9517,0.86456 0.15293,0.11171 0.78154,0.5571 1.39691,0.98977 1.01614,0.71445 1.09508,0.84919 0.85989,1.46776 -0.33021,0.86854 -0.32726,1.17582 0.0113,1.17582 0.29575,0 2.048,1.08581 3.30161,2.04591 1.01692,0.77882 1.2404,0.93329 1.86653,1.29022 0.2831,0.16138 0.45519,0.3758 0.38243,0.47648 -0.0728,0.10069 0.25186,0.36911 0.72137,0.59651 1.12101,0.54292 2.2558,1.60834 2.12643,1.99645 -0.15873,0.47618 -0.53763,0.48307 -1.2603,0.0229 z M 72.19876,168.65367 c 0.001,-0.21548 2.06499,-1.12447 2.55317,-1.12447 0.1648,0 0.36386,-0.16737 0.44236,-0.37193 0.0785,-0.20456 0.53597,-0.4583 1.01661,-0.56387 0.48064,-0.10556 1.1383,-0.36518 1.46145,-0.57692 0.32316,-0.21174 0.71054,-0.30897 0.86085,-0.21608 0.15031,0.0929 0.66156,-0.002 1.13612,-0.21 0.47455,-0.2084 1.5772,-0.53225 2.45032,-0.71967 0.87313,-0.18742 1.72855,-0.44797 1.90095,-0.57899 0.48411,-0.36794 2.05254,-0.12802 2.13799,0.32704 0.0983,0.52348 -0.89175,0.92307 -3.64206,1.46997 -1.23693,0.24596 -2.64046,0.61889 -3.11895,0.82873 -0.4785,0.20985 -1.13334,0.39888 -1.45521,0.42007 -0.32187,0.0212 -0.70428,0.19174 -0.8498,0.37898 -0.51041,0.65676 -4.8966,1.4967 -4.8938,0.93714 z m -8.81408,-0.27422 c -0.40881,-0.0521 -0.6987,-0.22843 -0.64421,-0.3919 0.14641,-0.43923 1.47432,-0.74259 2.95728,-0.67558 0.71786,0.0324 1.34456,-0.0591 1.39268,-0.20347 0.0558,-0.16736 -1.69263,-0.26117 -4.82508,-0.2589 -4.00268,0.003 -4.95635,-0.0673 -5.14902,-0.37904 -0.32419,-0.52455 0.0784,-0.7226 1.52793,-0.75169 0.66351,-0.0133 1.32241,-0.14025 1.46423,-0.28206 0.16741,-0.16741 -0.32411,-0.21445 -1.40131,-0.13411 -1.88837,0.14084 -2.649,-0.0227 -2.649,-0.56946 0,-0.22793 -0.26371,-0.37904 -0.66146,-0.37904 -0.41157,0 -0.66145,0.14993 -0.66145,0.39687 0,0.51052 -0.2388,0.50223 -0.82541,-0.0287 -0.38519,-0.34859 -0.7238,-0.38292 -1.87292,-0.18985 -1.75996,0.29571 -2.95545,0.0968 -3.07253,-0.51114 -0.0571,-0.29637 0.0835,-0.46967 0.39364,-0.4853 0.45376,-0.0229 3.58783,-0.20005 5.6418,-0.31895 0.50932,-0.0295 1.0002,-0.1552 1.09083,-0.27936 0.0906,-0.12417 0.41369,-0.0925 0.71789,0.0703 0.4089,0.21884 1.03396,0.2166 2.39748,-0.009 1.82951,-0.30214 1.84123,-0.30939 1.45446,-0.89968 -0.35226,-0.53761 -0.49697,-0.57103 -1.49843,-0.34601 -0.60968,0.13698 -1.94443,0.29766 -2.9661,0.35706 -1.02167,0.0594 -2.4529,0.16371 -3.18051,0.23181 -4.9562,0.46388 -5.20148,0.46721 -5.51284,0.0748 -0.26896,-0.33898 -0.64326,-0.34155 -2.95382,-0.0203 -1.45521,0.20232 -2.88396,0.47803 -3.175,0.61269 -0.90833,0.42026 -1.84039,0.53851 -2.24987,0.28544 -0.33546,-0.20733 -0.31566,-0.30044 0.13449,-0.63233 0.67503,-0.49769 2.07327,-0.84949 4.8935,-1.2312 1.23693,-0.16742 2.50372,-0.40326 2.8151,-0.5241 0.31137,-0.12084 2.15684,-0.30223 4.10104,-0.4031 1.9442,-0.10086 4.7128,-0.33192 6.15245,-0.51346 2.60612,-0.32863 3.60016,-0.28429 3.60016,0.16061 0,0.44667 1.28602,0.31561 5.77932,-0.58898 1.37371,-0.27655 1.44249,-0.26146 2.43188,0.53363 1.06819,0.85843 1.46386,0.96632 2.09022,0.56997 0.28974,-0.18334 0.11758,-0.35366 -0.7276,-0.71982 -0.60893,-0.26381 -1.10715,-0.63016 -1.10715,-0.81411 0,-0.21237 -0.41051,-0.34548 -1.12448,-0.36463 -1.92918,-0.0518 -2.65442,-0.19576 -3.06778,-0.60912 -0.35642,-0.35642 -0.34449,-0.42002 0.11039,-0.58846 0.2805,-0.10388 0.57561,-0.28533 0.65581,-0.40322 0.0802,-0.1179 0.52669,-0.10513 0.99219,0.0284 0.96803,0.27763 1.14283,0.007 0.25106,-0.38801 -0.32743,-0.14521 -0.57878,-0.4711 -0.55857,-0.7242 0.0202,-0.25311 -0.10856,-0.46019 -0.28615,-0.46019 -0.1776,0 -0.45151,-0.56203 -0.6087,-1.24894 -0.23203,-1.01397 -0.21006,-1.39541 0.11678,-2.02744 0.39685,-0.76743 0.38477,-1.13311 -0.12342,-3.73508 -0.26589,-1.36141 0.40305,-3.47669 1.56236,-4.94044 0.78602,-0.99244 0.91426,-1.05527 1.84889,-0.90581 0.96191,0.15381 1.0034,0.12982 0.98314,-0.56846 -0.0573,-1.97346 0.39549,-3.66214 1.30719,-4.87544 0.97125,-1.29257 1.43582,-1.5332 2.96837,-1.53754 0.92243,-0.003 2.64584,0.83265 2.64584,1.28232 0,0.13001 0.35295,0.38258 0.78434,0.56126 0.4314,0.17869 0.77448,0.4015 0.76242,0.49513 -0.0773,0.59974 0.14838,0.8279 0.97146,0.98231 0.68503,0.12852 1.27959,0.5682 2.25229,1.66564 0.72686,0.82006 1.39122,1.75381 1.47636,2.07499 0.19233,0.72556 -0.25559,2.08505 -0.65755,1.99572 -0.16371,-0.0364 -0.29766,0.14817 -0.29766,0.41011 0,0.26194 -0.14243,0.61868 -0.31651,0.79276 -0.24562,0.24562 -0.20118,0.40373 0.19844,0.70596 0.66851,0.50559 1.34468,0.50973 1.53667,0.009 0.0838,-0.21828 0.36439,-0.39831 0.62362,-0.40006 0.25923,-0.002 1.00711,-0.31487 1.66195,-0.69582 0.65484,-0.38095 1.42875,-0.72426 1.71979,-0.76291 0.77778,-0.10329 2.84596,-0.94652 3.32747,-1.35665 0.22937,-0.19538 0.94375,-0.45419 1.5875,-0.57514 1.07534,-0.20204 2.5428,-0.75059 3.78432,-1.41463 0.27347,-0.14626 0.8529,-0.31095 1.28763,-0.36597 0.43473,-0.055 1.33939,-0.36578 2.01035,-0.69059 0.67097,-0.32481 1.50486,-0.56698 1.8531,-0.53816 0.34823,0.0288 1.17135,-0.13032 1.82915,-0.35364 1.17764,-0.39982 1.67168,-0.5019 4.03194,-0.83304 1.36571,-0.19161 3.0656,-0.202 3.83646,-0.0235 0.65148,0.1509 0.836,0.87502 0.27757,1.08931 -0.25544,0.098 -0.40986,0.0109 -0.40986,-0.23129 0,-0.21371 -0.11907,-0.38857 -0.26459,-0.38857 -0.14552,0 -0.26458,0.10188 -0.26458,0.22639 0,0.12452 -0.8632,0.29675 -1.91823,0.38273 -1.05503,0.086 -2.57307,0.34797 -3.37344,0.5822 -0.80036,0.23423 -1.99099,0.48854 -2.64583,0.56513 -0.65484,0.0766 -1.38408,0.313 -1.62053,0.52536 -0.23645,0.21235 -0.53411,0.36223 -0.66146,0.33306 -0.12735,-0.0292 -0.41015,0.0136 -0.62843,0.0951 -0.21828,0.0815 -1.17078,0.34664 -2.11666,0.58921 -0.94589,0.24257 -2.22451,0.67104 -2.84139,0.95216 -0.61688,0.28112 -1.27172,0.51174 -1.45521,0.51248 -0.18349,7.5e-4 -0.80986,0.29469 -1.39195,0.65321 -0.58208,0.35851 -1.28227,0.65556 -1.55597,0.6601 -0.63164,0.0105 -5.9087,2.33241 -6.74794,2.96912 -0.34704,0.26329 -0.7443,0.47872 -0.88278,0.47872 -0.13849,0 -0.74751,0.33845 -1.35339,0.75211 -0.60587,0.41367 -1.53936,1.03509 -2.07443,1.38093 -0.53507,0.34585 -0.95179,0.73321 -0.92604,0.86081 0.0257,0.1276 -0.21958,0.33523 -0.54517,0.4614 -0.48581,0.18826 -0.65438,0.11029 -0.93994,-0.43472 -0.34772,-0.66364 -0.34832,-0.66373 -0.83201,-0.12926 -0.47344,0.52315 -0.46757,0.54112 0.26816,0.82084 0.89813,0.34147 1.79901,0.15652 2.46072,-0.50519 0.26608,-0.26608 1.00719,-0.76529 1.64691,-1.10936 0.63972,-0.34406 1.34173,-0.75354 1.56001,-0.90994 0.21828,-0.1564 0.87312,-0.44177 1.45521,-0.63415 0.58208,-0.19239 1.41552,-0.50153 1.85208,-0.68698 0.43656,-0.18545 1.68672,-0.60692 2.77813,-0.9366 1.0914,-0.32967 2.17234,-0.75955 2.40208,-0.95527 0.22974,-0.19573 0.76552,-0.3566 1.19062,-0.3575 0.42511,-9e-4 1.10801,-0.17641 1.51756,-0.39002 0.40955,-0.21362 1.48111,-0.53635 2.38125,-0.71718 0.90013,-0.18084 1.69614,-0.40594 1.7689,-0.50023 0.0728,-0.0943 0.79938,-0.25345 1.6147,-0.35369 0.81532,-0.10025 2.01716,-0.3432 2.67076,-0.53991 1.55282,-0.46733 2.24031,-0.1175 1.27079,0.64664 -0.3638,0.28673 -0.96995,0.52398 -1.34701,0.52722 -0.37705,0.003 -1.27002,0.18178 -1.98437,0.39677 -0.71436,0.21499 -1.32802,0.39644 -1.3637,0.40324 -1.53622,0.29238 -1.65492,0.35987 -1.65492,0.94091 0,0.67351 0.0613,0.64596 -3.175,1.42618 -2.55572,0.61613 -4.00805,1.09574 -4.53332,1.49705 -0.50688,0.38726 -2.57361,0.95196 -2.85273,0.77946 -0.12728,-0.0787 -0.29887,0.0327 -0.38131,0.24759 -0.0824,0.21483 -0.63069,0.46749 -1.21835,0.56146 -0.58765,0.094 -1.06845,0.2747 -1.06845,0.40162 0,0.12692 -0.2455,0.23077 -0.54556,0.23077 -0.30005,0 -1.16325,0.28256 -1.91822,0.6279 -0.75498,0.34535 -1.58104,0.6988 -1.8357,0.78545 -0.25466,0.0867 -0.46302,0.38482 -0.46302,0.66261 0,0.65136 -0.66749,1.2092 -1.11289,0.93008 -0.18828,-0.11799 -0.63128,-0.25419 -0.98445,-0.30268 -0.35318,-0.0485 -0.99056,-0.33627 -1.41642,-0.63951 -0.62255,-0.4433 -0.81736,-0.48166 -0.99406,-0.19575 -0.30042,0.48609 -0.0718,0.77591 0.62083,0.78711 0.31883,0.005 0.87735,0.17953 1.24115,0.3875 1.47729,0.84449 3.61952,0.26989 6.87917,-1.84517 0.21828,-0.14163 0.51594,-0.26746 0.66146,-0.27963 0.28648,-0.0239 0.85423,-0.23822 2.15665,-0.81395 0.45856,-0.2027 1.12071,-0.36854 1.47146,-0.36854 0.35075,0 0.86854,-0.20881 1.15064,-0.46402 0.57028,-0.51591 1.68634,-0.48393 2.11103,0.0605 0.28196,0.36145 0.79059,0.30671 3.51206,-0.37794 0.62779,-0.15793 1.24464,-0.22336 1.37078,-0.1454 0.12615,0.078 0.30534,0.0188 0.39821,-0.13147 0.0929,-0.15027 0.293,-0.19649 0.44474,-0.10271 0.15173,0.0938 0.3615,0.032 0.46615,-0.13735 0.10464,-0.16932 0.65688,-0.37266 1.22719,-0.45187 0.5703,-0.0792 1.27505,-0.24497 1.56609,-0.36836 0.50099,-0.21241 4.58598,-0.9438 6.87916,-1.23167 0.58209,-0.0731 1.2145,-0.18166 1.40537,-0.24131 0.38833,-0.12137 9.57368,-0.43088 11.42693,-0.38504 3.67445,0.0909 5.91327,0.2844 6.21825,0.53751 0.2495,0.20707 0.37349,0.20038 0.44835,-0.0242 0.0715,-0.21442 1.00006,-0.30273 3.00229,-0.28554 2.98761,0.0256 4.34048,0.24534 4.34865,0.70617 0.004,0.24121 -2.70866,0.26677 -12.82692,0.12083 -2.41478,-0.0348 -10.34292,0.25114 -12.03854,0.43423 -2.48105,0.2679 -7.44396,1.2288 -9.525,1.8442 -0.65484,0.19364 -1.72641,0.4055 -2.38125,0.47079 -1.45806,0.14537 -3.63668,0.65005 -4.41003,1.02158 -0.31546,0.15155 -0.88318,0.27555 -1.26159,0.27555 -0.37842,0 -0.75242,0.10418 -0.83111,0.23152 -0.0787,0.12733 -0.37313,0.23151 -0.65429,0.23151 -0.28117,0 -1.435,0.302 -2.56408,0.67111 -2.91684,0.95357 -4.31701,1.3758 -5.22786,1.57649 -1.20985,0.26658 -2.51354,1.17047 -2.51354,1.74272 0,0.27918 -0.11906,0.50759 -0.26458,0.50759 -0.14552,0 -0.26459,0.1786 -0.26459,0.39688 0,0.50352 0.45459,0.5015 1.42843,-0.006 0.42183,-0.21998 0.82511,-0.34183 0.89618,-0.27077 0.0711,0.0711 0.45868,-0.1054 0.86137,-0.39214 0.40269,-0.28674 0.89921,-0.52135 1.10337,-0.52135 0.20416,0 1.17451,-0.40417 2.15634,-0.89815 0.98182,-0.49399 2.31445,-0.97753 2.96139,-1.07455 0.64694,-0.097 1.17626,-0.28816 1.17626,-0.42476 0,-0.1366 0.2282,-0.24837 0.50711,-0.24837 0.27892,0 0.54681,-0.10738 0.59532,-0.23862 0.0485,-0.13124 0.6835,-0.30278 1.41111,-0.38121 0.7276,-0.0784 1.73885,-0.26871 2.24721,-0.42284 1.18641,-0.35972 1.20924,-0.35787 1.70507,0.13796 0.60253,0.60253 0.32955,0.83113 -1.2406,1.0389 -1.65031,0.21838 -5.06819,1.26286 -7.01839,2.14479 -0.76797,0.34729 -1.55558,0.63144 -1.75026,0.63144 -0.19468,0 -0.67063,0.24909 -1.05768,0.55354 -0.38704,0.30445 -0.84958,0.58412 -1.02787,0.62149 -0.17828,0.0374 -0.50274,0.14047 -0.72102,0.2291 -0.21829,0.0886 -1.24894,0.45265 -2.29034,0.80894 -1.0414,0.35629 -2.14273,0.89708 -2.4474,1.20174 -0.30466,0.30466 -0.80105,0.55394 -1.10308,0.55394 -0.30203,0 -1.34383,0.46271 -2.3151,1.02826 -1.54976,0.90238 -3.82788,1.63592 -5.47013,1.76136 -2.20453,0.16839 -7.21118,1.04576 -7.49979,1.31427 -0.28681,0.26685 0.20188,0.33338 2.51355,0.34221 1.57827,0.006 3.76439,0.0317 4.85805,0.0571 2.16906,0.0503 4.33377,-0.49643 5.68444,-1.43563 0.43657,-0.30356 0.79375,-0.50516 0.79375,-0.44799 0,0.0572 0.26789,0.0189 0.59532,-0.085 0.32742,-0.10392 0.59531,-0.29998 0.59531,-0.4357 0,-0.13571 0.20836,-0.2472 0.46302,-0.24774 0.25466,-5.4e-4 0.85285,-0.23867 1.32931,-0.52917 0.47646,-0.29049 1.14653,-0.52817 1.48904,-0.52817 0.34252,0 1.06688,-0.18557 1.60971,-0.41238 0.54282,-0.22681 1.04062,-0.3587 1.10623,-0.29309 0.0656,0.0656 0.73735,-0.11927 1.49276,-0.41084 1.89265,-0.73051 3.8666,-1.26474 4.38231,-1.18604 0.71796,0.10957 0.73463,0.54331 0.0339,0.88126 -1.06114,0.51174 -4.58181,1.78869 -5.15938,1.8713 -0.29104,0.0416 -0.82682,0.15549 -1.19062,0.25302 -0.3638,0.0975 -0.76329,0.15361 -0.88775,0.12463 -0.12445,-0.029 -0.36258,0.0541 -0.52916,0.1847 -0.16659,0.13056 -0.61457,0.31165 -0.99552,0.40243 -0.38096,0.0908 -2.07396,0.82156 -3.76223,1.62398 -1.68826,0.80242 -3.23509,1.45894 -3.43738,1.45894 -0.20229,0 -1.06913,0.35551 -1.92632,0.79003 -1.22374,0.62032 -2.03975,0.82352 -3.79884,0.94597 -1.23218,0.0858 -2.30374,0.18099 -2.38125,0.21161 -0.0775,0.0306 -0.47541,0.0131 -0.88422,-0.039 z m 5.50579,-5.61275 c 0.0899,-0.14553 -0.0221,-0.26459 -0.24896,-0.26459 -0.22687,0 -0.41249,0.11906 -0.41249,0.26459 0,0.14552 0.11203,0.26458 0.24896,0.26458 0.13694,0 0.32256,-0.11906 0.41249,-0.26458 z m -3.46151,-0.90273 c 1.8195,0.11966 2.1965,-0.25858 0.41881,-0.42019 -1.94533,-0.17685 -3.175,-0.0205 -3.175,0.40377 0,0.49643 0.59382,0.64129 1.05833,0.25819 0.23386,-0.19288 0.93125,-0.29219 1.69786,-0.24177 z m 9.80064,-2.02529 c -0.0959,-0.15521 -0.24212,-0.21448 -0.32488,-0.13172 -0.0828,0.0828 -0.35963,-0.0388 -0.61528,-0.27017 -0.25564,-0.23135 -0.68202,-0.3688 -0.94751,-0.30544 -0.37532,0.0896 -0.27668,0.21016 0.44334,0.542 1.07807,0.49687 1.69271,0.56722 1.44433,0.16533 z m 1.73067,-0.72323 c 0,-0.34632 -0.6059,-0.84667 -1.02526,-0.84667 -0.30304,0 -0.27643,0.11474 0.11907,0.51344 0.54208,0.54647 0.90619,0.68036 0.90619,0.33323 z m -2.03119,-1.40795 c -0.33316,-0.33316 -0.69441,-0.47899 -0.88885,-0.35882 -0.22407,0.13849 -0.0862,0.30905 0.43633,0.53979 1.0588,0.46755 1.08897,0.45548 0.45252,-0.18097 z m 3.08952,0.0321 c 0,-0.14552 -0.12609,-0.26458 -0.2802,-0.26458 -0.15411,0 -0.20661,0.11906 -0.11668,0.26458 0.0899,0.14552 0.21603,0.26459 0.2802,0.26459 0.0642,0 0.11668,-0.11907 0.11668,-0.26459 z m -8.19813,-1.57529 c -0.36163,-0.27785 -0.71863,-0.44406 -0.79333,-0.36935 -0.16873,0.16872 0.78829,0.88846 1.17067,0.88043 0.15409,-0.003 -0.0157,-0.23322 -0.37734,-0.51108 z m -1.77703,-1.46742 c 0.50241,-1.05357 1.49749,-1.26643 2.0888,-0.44682 0.19015,0.26357 0.48402,0.56173 0.65304,0.66259 0.37553,0.2241 1.93766,-0.62463 1.93998,-1.05402 9.2e-4,-0.17 0.0739,-0.49742 0.16227,-0.72761 0.0883,-0.23018 0.0549,-0.41851 -0.0743,-0.41851 -0.12919,0 -0.36971,0.35719 -0.53449,0.79375 -0.16479,0.43656 -0.41514,0.79375 -0.55633,0.79375 -0.4301,0 -0.5066,-1.14866 -0.13685,-2.05482 0.33962,-0.83231 0.45311,-0.9043 1.51486,-0.96092 0.27819,-0.0148 0.56153,-0.19237 0.62964,-0.39453 0.0808,-0.23969 0.01,-0.29693 -0.20465,-0.16454 -0.18645,0.11523 -0.42356,0.0492 -0.54836,-0.15273 -0.13847,-0.22404 -0.60418,-0.32801 -1.25786,-0.28081 -0.89273,0.0644 -1.06096,-0.0108 -1.20214,-0.53804 -0.2931,-1.09446 -0.30244,-1.07575 1.62434,-3.25224 0.26024,-0.29396 -1.62996,-1.99095 -2.21764,-1.99095 -0.20451,0 -0.37184,-0.12735 -0.37184,-0.28299 0,-0.69642 -1.15479,-0.0406 -1.66296,0.94444 -0.93965,1.8214 -0.98297,1.95296 -0.97882,2.97298 0.005,1.30372 0.18342,1.53624 1.47118,1.92064 2.13836,0.63829 1.96831,1.97924 -0.2404,1.89569 -1.16812,-0.0442 -1.34505,0.18404 -1.24915,1.61121 0.0171,0.25467 0.0571,0.82021 0.0889,1.25678 0.077,1.05882 0.52116,1.00354 1.0628,-0.1323 z m 7.32933,-3.0427 c 0,-0.14553 -0.11907,-0.26459 -0.26459,-0.26459 -0.14552,0 -0.26458,0.11906 -0.26458,0.26459 0,0.14552 0.11906,0.26458 0.26458,0.26458 0.14552,0 0.26459,-0.11906 0.26459,-0.26458 z m 2.64583,-1.17501 c 0,-0.0642 -0.11906,-0.19027 -0.26458,-0.2802 -0.14552,-0.0899 -0.26459,-0.0374 -0.26459,0.11667 0,0.15411 0.11907,0.2802 0.26459,0.2802 0.14552,0 0.26458,-0.0525 0.26458,-0.11667 z m -0.55121,-3.66837 c -1.26374,-0.47142 -1.56593,-0.87082 -1.04983,-1.38756 0.13807,-0.13825 0.32983,-0.74456 0.42614,-1.34737 0.16275,-1.01877 0.12198,-1.12147 -0.57854,-1.45722 -1.01816,-0.488 -1.07513,-1.11336 -0.21923,-2.4067 0.57786,-0.87321 0.67225,-1.22028 0.48068,-1.76749 -0.28632,-0.81782 -2.01303,-1.51612 -3.0842,-1.24728 -0.83279,0.20902 -1.50569,1.36348 -1.51764,2.60375 -0.005,0.48017 -0.18666,1.10885 -0.4045,1.39706 -0.56824,0.75178 -0.24406,1.83617 0.89993,3.01022 0.5325,0.5465 1.50397,1.63112 2.15882,2.41027 0.65484,0.77915 1.54781,1.63626 1.98437,1.90469 l 0.79375,0.48805 0.70556,-0.85758 0.70556,-0.85757 z m -3.54983,1.13921 c -0.0899,-0.14552 -0.28259,-0.26458 -0.42811,-0.26458 -0.14552,0 -0.191,0.11906 -0.10106,0.26458 0.0899,0.14552 0.28259,0.26458 0.42811,0.26458 0.14552,0 0.19099,-0.11906 0.10106,-0.26458 z m 7.40949,-0.002 c 0.0906,-0.14655 -0.0512,-0.33594 -0.31512,-0.42087 -0.26388,-0.0849 -0.7475,-0.2827 -1.0747,-0.4395 -0.7222,-0.34608 -1.06206,-0.0955 -0.55634,0.41024 0.66689,0.6669 1.66895,0.89866 1.94616,0.45013 z m -2.5147,-2.13041 c 0,-0.13694 -0.17859,-0.24897 -0.39688,-0.24897 -0.40915,0 -0.52564,0.3122 -0.22767,0.61017 0.21138,0.21138 0.62455,-0.0276 0.62455,-0.3612 z m 1.96014,-1.56623 c -0.0558,-0.80629 -2.16256,-3.49959 -2.55545,-3.26693 -0.43582,0.25807 -0.15179,0.8528 0.7276,1.52354 0.50932,0.38848 0.92604,0.82352 0.92604,0.96676 0,0.22922 0.77284,1.56472 0.90549,1.56472 0.028,0 0.0263,-0.35464 -0.004,-0.78809 z m 0.94622,-1.26243 c -0.005,-0.56976 -0.44029,-1.29749 -0.65042,-1.08736 -0.16854,0.16853 0.29104,1.55038 0.51564,1.55038 0.0764,0 0.13701,-0.20836 0.13478,-0.46302 z m 73.16135,17.92552 c 0.0899,-0.14552 0.42438,-0.26276 0.74322,-0.26053 0.47128,0.003 0.50547,0.052 0.18282,0.26053 -0.52126,0.33687 -1.13424,0.33687 -0.92604,0 z m 2.77812,0.0524 c -0.85898,-0.11828 -0.87814,-0.1402 -0.26458,-0.30278 0.78796,-0.20879 1.85208,-0.0472 1.85208,0.28124 0,0.12855 -0.14883,0.21468 -0.33073,0.19139 -0.1819,-0.0233 -0.74744,-0.0997 -1.25677,-0.16985 z m 4.74653,-4.84379 c -0.51025,-0.3982 -1.19587,-0.55511 -2.77813,-0.63579 -4.20401,-0.21437 -5.10486,-0.38709 -5.19431,-0.99592 -0.0768,-0.52294 -0.23651,-0.55299 -2.8595,-0.5382 -1.52797,0.009 -2.99803,-0.0643 -3.2668,-0.16199 -0.45109,-0.164 -0.4551,-0.20552 -0.0522,-0.53992 0.63735,-0.52896 6.78341,-0.59632 8.65048,-0.0948 0.77845,0.2091 1.71858,0.42413 2.08919,0.47786 1.21674,0.17639 2.89805,0.97937 2.89805,1.38409 0,0.2234 0.15534,0.33685 0.35586,0.2599 0.45044,-0.17285 2.55455,0.75406 2.55455,1.12534 0,0.47331 -1.68373,0.27626 -2.39722,-0.28055 z m -17.8434,-2.61693 c 0.0899,-0.14552 0.38759,-0.26458 0.66146,-0.26458 0.27386,0 0.57152,0.11906 0.66145,0.26458 0.0957,0.15478 -0.17884,0.26458 -0.66145,0.26458 -0.48262,0 -0.75712,-0.1098 -0.66146,-0.26458 z m 12.03854,-1.09125 c -0.3638,-0.14518 -1.25677,-0.31505 -1.98438,-0.37749 -0.7276,-0.0624 -1.78344,-0.25746 -2.3463,-0.43337 -0.90375,-0.28246 -1.06408,-0.2642 -1.37146,0.15617 -0.45037,0.61591 -0.91134,0.32178 -0.9165,-0.58478 -0.004,-0.62583 -0.51067,-1.86662 -0.52106,-1.27491 -0.002,0.12696 -0.16773,0.095 -0.36779,-0.071 -0.20006,-0.16603 -1.71775,-0.4283 -3.37264,-0.58282 -1.6549,-0.15451 -3.05374,-0.32577 -3.10853,-0.38056 -0.0548,-0.0548 -0.0299,-0.28145 0.0554,-0.50368 0.12664,-0.33003 0.54401,-0.38261 2.27844,-0.28701 1.16787,0.0644 2.35574,0.24137 2.63971,0.39335 0.28397,0.15198 0.57782,0.17679 0.65301,0.0551 0.0752,-0.12166 0.50137,-0.16767 0.94709,-0.10225 0.88967,0.13058 1.85874,1.15684 1.85874,1.96844 0,0.44711 0.13368,0.49674 0.99219,0.36833 1.78894,-0.26758 2.8319,-0.24241 3.63802,0.0878 0.43656,0.17882 1.17879,0.38948 1.64941,0.46813 0.47061,0.0786 0.9912,0.30633 1.15687,0.50595 0.16567,0.19962 0.495,0.37131 0.73184,0.38154 0.33132,0.0143 0.30859,0.071 -0.0985,0.24599 -0.70569,0.30324 -1.7039,0.29017 -2.51354,-0.0329 z m -9.07088,-5.78175 c -0.14837,-0.56737 0.48069,-1.43665 0.86691,-1.19796 0.28664,0.17716 -0.075,1.52609 -0.44187,1.64839 -0.15544,0.0518 -0.34671,-0.15088 -0.42504,-0.45043 z m 1.92713,-0.63194 c 0,-0.59669 -0.98398,-1.6599 -1.96864,-2.12715 -0.75269,-0.35717 -1.13023,-0.8595 -2.02961,-2.70041 -0.68642,-1.40501 -1.31598,-2.34236 -1.66218,-2.47481 -0.30651,-0.11727 -0.78409,-0.465 -1.06131,-0.77274 -0.27721,-0.30775 -0.71009,-0.55953 -0.96194,-0.55953 -0.25185,0 -0.79895,-0.17786 -1.21576,-0.39525 -0.41682,-0.21738 -1.04768,-0.39598 -1.40192,-0.39687 -0.35424,-9e-4 -1.12829,-0.23604 -1.72011,-0.52253 -0.59182,-0.2865 -1.8498,-0.57946 -2.79551,-0.65104 -0.94571,-0.0716 -1.77901,-0.14855 -1.85177,-0.17107 -0.0728,-0.0225 -0.25135,-0.057 -0.39688,-0.0766 -0.14552,-0.0196 -0.94559,-0.36483 -1.77793,-0.76719 -1.61002,-0.7783 -3.74219,-1.2102 -3.99055,-0.80834 -0.25107,0.40624 0.16524,0.8057 1.13828,1.09223 1.36005,0.40049 2.64067,0.8642 3.83645,1.38917 0.58209,0.25554 1.2667,0.53146 1.52136,0.61316 0.56593,0.18154 0.62226,1.22347 0.0661,1.22347 -0.21828,0 -0.39687,-0.10615 -0.39687,-0.2359 0,-0.26994 -1.00271,-0.55839 -2.44784,-0.70416 -0.54595,-0.0551 -1.22656,-0.22532 -1.51246,-0.37833 -0.61999,-0.33181 -2.56521,-0.0782 -3.30847,0.43142 -0.76658,0.52557 -1.7158,0.43352 -2.97929,-0.28892 -0.61597,-0.35219 -1.18312,-0.53813 -1.26034,-0.41318 -0.0772,0.12494 -0.52575,0.11001 -0.99673,-0.0332 -0.47098,-0.1432 -2.10649,-0.31736 -3.63445,-0.38703 -3.84077,-0.17511 -3.80473,-0.17017 -4.1019,-0.56262 -0.4864,-0.64235 -5.44786,-1.00329 -6.35286,-0.46216 -0.29308,0.17525 -1.10607,0.33014 -1.80664,0.3442 -0.70057,0.0141 -1.9656,0.16168 -2.81118,0.32804 -1.19201,0.23451 -1.61597,0.44924 -1.88705,0.95576 -0.4712,0.88046 -1.25413,1.29552 -1.45522,0.77149 -0.27581,-0.71877 0.0161,-1.26516 1.09129,-2.04297 1.26864,-0.91772 3.38618,-1.3272 5.28501,-1.022 0.99134,0.15934 1.52187,0.11287 2.11667,-0.18539 1.01334,-0.50813 5.04241,-0.48278 5.83809,0.0367 1.46339,0.95547 3.79927,0.94415 3.00361,-0.0146 -0.49197,-0.59278 0.42933,-1.51262 1.13614,-1.13435 0.28519,0.15263 0.58295,0.21308 0.6617,0.13433 0.0788,-0.0788 0.47936,0.0307 0.89024,0.24315 0.41089,0.21247 0.9826,0.38632 1.27047,0.38632 0.28788,0 0.70201,0.17859 0.92029,0.39687 0.21828,0.21829 0.51852,0.39688 0.66721,0.39688 0.14868,0 0.36554,0.14883 0.48192,0.33073 0.11637,0.1819 0.76553,0.60901 1.44259,0.94914 0.97741,0.49101 1.34174,0.55914 1.76854,0.33073 0.29565,-0.15823 0.78349,-0.28768 1.0841,-0.28768 0.83619,0 0.65282,-0.37076 -0.42497,-0.85928 -0.90684,-0.41103 -0.99306,-0.41091 -1.29477,0.002 -0.30014,0.41046 -0.39145,0.40532 -1.27743,-0.0718 -0.5248,-0.28263 -0.95463,-0.63562 -0.95518,-0.78443 -0.001,-0.30124 -2.01051,-1.1966 -2.68546,-1.1966 -0.46026,0 -0.86635,-0.69255 -0.52852,-0.90134 0.50934,-0.31478 2.09399,-0.0101 3.32148,0.63861 2.17917,1.15169 2.75095,1.20622 3.64696,0.34779 0.64442,-0.61739 0.80981,-0.67347 1.0175,-0.345 0.16663,0.26352 0.24934,0.2837 0.25206,0.0615 0.002,-0.19066 0.34236,-0.33073 0.80285,-0.33073 0.72869,0 0.78359,-0.0605 0.62564,-0.68985 -0.1935,-0.771 0.18612,-1.15158 1.15525,-1.15818 0.73803,-0.005 0.73623,-0.21153 -0.01,-1.09457 -0.82469,-0.97652 -1.6374,-1.33483 -3.0276,-1.33483 -2.11193,0 -2.82589,1.52328 -1.38793,2.96125 0.62171,0.6217 0.69298,1.58077 0.11748,1.58077 -0.57953,0 -2.08511,-1.80458 -2.06612,-2.47645 0.0639,-2.26202 2.18106,-3.60494 4.68211,-2.9699 0.6746,0.17129 1.36988,0.45476 1.54505,0.62993 0.17518,0.17518 0.45884,0.3185 0.63036,0.3185 0.17152,0 0.45882,0.3548 0.63845,0.78845 0.34782,0.83973 1.92873,2.65113 2.31377,2.65113 0.40602,0 1.92176,1.72877 1.92176,2.19186 0,0.56331 1.58516,1.24773 2.88981,1.24773 0.53521,0 1.08621,0.10375 1.22446,0.23057 0.13824,0.12681 0.96573,0.44134 1.83885,0.69895 2.57816,0.76067 3.6372,1.49402 4.45616,3.08573 1.29082,2.50881 2.18192,3.78738 2.70485,3.881 1.36177,0.24377 3.01432,2.96084 2.03045,3.33839 -0.53422,0.205 -0.5925,0.18348 -0.5925,-0.21875 z M 118.34217,134.3531 c -0.0816,-0.21255 -0.3571,-0.31115 -0.65316,-0.23373 -0.73016,0.19094 -0.63388,0.60136 0.14108,0.60136 0.44879,0 0.60901,-0.11503 0.51208,-0.36763 z m 15.23893,-0.6907 c 0,-0.14552 -0.0525,-0.26458 -0.11668,-0.26458 -0.0642,0 -0.19026,0.11906 -0.2802,0.26458 -0.0899,0.14552 -0.0374,0.26458 0.11668,0.26458 0.15411,0 0.2802,-0.11906 0.2802,-0.26458 z m -2.09348,-1.1458 c -0.33476,-0.52871 -0.77002,-0.85421 -1.1849,-0.8861 -0.63093,-0.0485 -0.63889,-0.0298 -0.21005,0.49403 1.35396,1.65383 2.37565,1.94099 1.39495,0.39207 z m -18.46197,1.20211 c -1.14576,-0.7285 -2.22005,-3.75068 -1.33882,-3.76636 0.1819,-0.003 0.62838,-0.23871 0.99219,-0.52328 1.45526,-1.13833 6.08541,-0.3079 6.08541,1.09144 0,0.73894 -0.40935,0.79875 -1.20161,0.17556 -1.7732,-1.3948 -6.22007,-0.5244 -4.76332,0.93235 0.22477,0.22477 0.40868,0.52351 0.40868,0.66386 0,0.14034 0.1786,0.3237 0.39688,0.40747 0.21828,0.0838 0.39687,0.39415 0.39687,0.68976 0,0.54875 -0.41231,0.68778 -0.97628,0.3292 z"
       id="path5" />
  </g>
</svg>
