<?xml version="1.0" encoding="UTF-8" standalone="no"?>
<!-- Created with Inkscape (http://www.inkscape.org/) -->

<svg
   width="109.00366mm"
   height="40.196106mm"
   viewBox="0 0 109.00364 40.19611"
   version="1.1"
   id="svg1"
   inkscape:version="1.4.1-rc (06eac75fbf, 2025-03-29)"
   sodipodi:docname="hill5.svg"
   xmlns:inkscape="http://www.inkscape.org/namespaces/inkscape"
   xmlns:sodipodi="http://sodipodi.sourceforge.net/DTD/sodipodi-0.dtd"
   xmlns="http://www.w3.org/2000/svg"
   xmlns:svg="http://www.w3.org/2000/svg">
  <sodipodi:namedview
     id="namedview1"
     pagecolor="#ffffff"
     bordercolor="#000000"
     borderopacity="0.25"
     inkscape:showpageshadow="2"
     inkscape:pageopacity="0.0"
     inkscape:pagecheckerboard="0"
     inkscape:deskcolor="#d1d1d1"
     inkscape:document-units="mm"
     inkscape:zoom="0.72248176"
     inkscape:cx="206.23358"
     inkscape:cy="75.43443"
     inkscape:window-width="1850"
     inkscape:window-height="1016"
     inkscape:window-x="0"
     inkscape:window-y="0"
     inkscape:window-maximized="1"
     inkscape:current-layer="layer1" />
  <defs
     id="defs1" />
  <g
     inkscape:label="Layer 1"
     inkscape:groupmode="layer"
     id="layer1"
     transform="translate(-51.85832,-127.79407)">
    <path
       style="fill:#000000"
       d="m 57.35515,167.84619 c -0.0812,-0.0812 -0.0856,-0.38491 -0.01,-0.67493 0.1116,-0.4268 0.28265,-0.49553 0.89726,-0.36054 0.50353,0.1106 0.75937,0.0609 0.75937,-0.1475 0,-0.20102 0.23255,-0.25592 0.64524,-0.15234 0.35489,0.0891 0.7191,0.0424 0.80937,-0.10361 0.0903,-0.14606 0.37692,-0.26556 0.63702,-0.26556 0.2601,0 0.83731,-0.18178 1.28269,-0.40397 0.44539,-0.22219 1.41618,-0.54802 2.15732,-0.72407 0.74114,-0.17606 1.34753,-0.40866 1.34753,-0.51691 0,-0.19022 3.22391,-1.79463 3.60615,-1.79463 0.10375,0 0.39887,-0.19026 0.65582,-0.42279 0.44381,-0.40165 1.02969,-0.32221 1.02969,0.13961 0,0.28252 -3.60532,2.36496 -4.47032,2.58206 -0.37029,0.0929 -0.97325,0.44715 -1.33991,0.78713 -0.36666,0.33999 -0.96553,0.61505 -1.33081,0.61125 -0.86654,-0.009 -5.4005,1.13866 -5.51486,1.39597 -0.10254,0.23072 -0.9451,0.26758 -1.16185,0.0508 z m 14.1441,-7.31372 c 0.13117,-0.39352 0.58448,-0.61534 2.0549,-1.00554 0.65485,-0.17378 1.38615,-0.41641 1.62512,-0.53918 0.43218,-0.22203 0.75613,-0.0907 0.75613,0.30651 0,0.11446 -0.56554,0.46471 -1.25677,0.77833 -1.45552,0.66041 -3.33694,0.93254 -3.17938,0.45988 z m 4.47781,-5.37312 c 0.50047,-0.52003 1.10638,-0.79434 2.10236,-0.95178 0.76959,-0.12165 1.43074,-0.18971 1.46921,-0.15124 0.0385,0.0385 0.005,0.31875 -0.0746,0.62284 -0.11627,0.44462 -0.41211,0.58051 -1.51086,0.694 -0.75145,0.0776 -1.66394,0.22564 -2.02774,0.32894 l -0.66146,0.18782 z m 5.46605,0.19303 c -1.09494,-0.27058 -1.46488,-0.47292 -1.36076,-0.74426 0.16214,-0.42253 0.61555,-0.50701 0.61555,-0.11469 0,0.14189 0.32742,0.19333 0.72761,0.11432 0.99511,-0.19648 1.88891,0.17669 1.68313,0.70271 -0.14426,0.36875 -0.32462,0.37329 -1.66553,0.0419 z M 63.2354,154.51711 c 0,-0.47566 1.06405,-1.00919 2.91042,-1.45932 1.09141,-0.26608 2.09748,-0.5862 2.23573,-0.71138 0.38699,-0.35044 1.26213,-0.27132 1.14063,0.10312 -0.12062,0.3717 -2.58947,1.25641 -2.94292,1.05459 -0.12541,-0.0716 -0.31456,0.01 -0.42033,0.18097 -0.22322,0.36118 -2.92353,1.12967 -2.92353,0.83202 z m 7.40834,-1.97939 c 0,-0.23041 0.18851,-0.41892 0.41892,-0.41892 0.23041,0 0.37179,0.14139 0.31419,0.31419 -0.16353,0.4906 -0.73311,0.57197 -0.73311,0.10473 z m 14.94895,-1.20613 c -0.29104,-0.12147 -0.79705,-0.15972 -1.12448,-0.085 -0.36849,0.0841 -0.59531,0.0118 -0.59531,-0.18983 0,-0.24946 -0.0868,-0.25358 -0.37119,-0.0176 -0.43437,0.3605 -7.30172,0.0924 -7.30172,-0.28508 0,-0.12499 -0.23271,-0.0819 -0.51714,0.0957 -0.60909,0.38039 -1.04902,0.0835 -0.57648,-0.38903 0.59753,-0.59753 12.04659,-0.17717 12.68967,0.46592 0.0542,0.0542 0.0165,0.23136 -0.0837,0.39363 -0.13302,0.21523 -0.28333,0.21123 -0.55566,-0.0148 -0.2684,-0.22275 -0.37332,-0.22636 -0.37332,-0.0129 0,0.34179 -0.43119,0.35589 -1.19063,0.0389 z m 33.23613,0.0182 c -0.26946,-0.17066 -0.14908,-0.27941 0.45657,-0.41243 0.95125,-0.20893 1.62953,0.0572 1.06211,0.41674 -0.46009,0.29153 -1.05422,0.28984 -1.51868,-0.004 z m 2.62945,-0.0157 c -0.21781,-0.13461 -0.18991,-0.28281 0.0982,-0.52195 0.27363,-0.22709 1.57017,-0.3505 4.05136,-0.38561 2.00692,-0.0284 3.79053,-0.13913 3.96357,-0.24608 0.56227,-0.3475 1.66188,0.10016 1.66188,0.67657 0,0.3795 -0.0952,0.46295 -0.33073,0.28991 -0.34915,-0.25651 -1.40607,-0.25566 -3.37344,0.003 -2.04489,0.26855 -5.75252,0.3812 -6.07088,0.18444 z m 5.15149,-2.11489 c -0.0863,-0.1396 -0.004,-0.50426 0.18282,-0.81036 0.29303,-0.48009 0.54878,-0.54518 1.86153,-0.47379 0.83701,0.0455 1.52162,0.0156 1.52136,-0.0664 -8.1e-4,-0.25041 3.28412,0.0613 3.63754,0.34519 0.22593,0.18148 0.33073,0.17155 0.33073,-0.0313 0,-0.16334 0.17859,-0.29698 0.39687,-0.29698 0.21828,0 0.39688,0.0904 0.39688,0.20093 0,0.40834 -0.97665,0.79275 -1.73334,0.68225 -0.42911,-0.0627 -1.43505,-0.13877 -2.23541,-0.16913 -0.80037,-0.0304 -1.59581,-0.14585 -1.76766,-0.25665 -0.17185,-0.1108 -0.38723,-0.0804 -0.47864,0.0675 -0.0914,0.14789 -0.39728,0.2689 -0.67974,0.2689 -0.28245,0 -0.51355,0.17859 -0.51355,0.39687 0,0.43882 -0.67198,0.54338 -0.91939,0.14305 z m -7.21655,-0.27774 c -0.64414,-0.26524 -0.76877,-0.65292 -0.30253,-0.94107 0.40573,-0.25076 2.38885,0.43807 2.27365,0.78974 -0.12319,0.37604 -1.22075,0.46031 -1.97112,0.15133 z m -5.483,-0.74053 c -0.045,-0.0448 -0.0185,-0.3236 0.0589,-0.61955 0.12227,-0.46757 0.28321,-0.5165 1.22799,-0.37337 0.598,0.0906 1.41946,0.20152 1.82546,0.24649 0.92638,0.1026 1.60324,0.68439 0.83609,0.71865 -1.84684,0.0825 -3.8791,0.0968 -3.94842,0.0278 z m -38.32759,-0.75638 c -0.43496,-0.43496 -0.12999,-0.88194 0.60175,-0.88194 1.02742,0 1.22272,0.37644 0.39174,0.75506 -0.78123,0.35595 -0.76632,0.35405 -0.99349,0.12688 z m 3.20886,-0.65094 c -0.56101,-0.34672 -0.0974,-0.49615 1.93088,-0.62233 1.07795,-0.067 2.85289,-0.19008 3.94429,-0.27339 1.09141,-0.0833 2.99641,-0.19023 4.23334,-0.23759 1.23692,-0.0474 2.42755,-0.15456 2.64583,-0.2382 0.60198,-0.23067 5.55683,-0.43599 5.5522,-0.23008 -0.013,0.5757 -0.60401,0.83954 -2.11645,0.94479 -0.93593,0.0651 -1.74405,0.24547 -1.79581,0.40078 -0.064,0.19197 -1.30638,0.2344 -3.88105,0.13253 -2.10543,-0.0833 -3.8514,-0.0455 -3.93214,0.0851 -0.0799,0.12923 -0.90045,0.15679 -1.82353,0.0612 -0.92307,-0.0955 -2.29752,-0.0943 -3.05433,0.003 -0.7568,0.0971 -1.52326,0.0855 -1.70323,-0.0257 z m 54.28562,-0.50072 c -0.72842,-0.45018 1.40116,-1.0318 4.05974,-1.10876 2.31014,-0.0669 3.15865,0.0774 2.76573,0.47034 -0.0826,0.0826 -1.20378,0.20903 -2.4915,0.28094 -2.90238,0.16207 -3.33935,0.21237 -3.68149,0.42383 -0.14991,0.0926 -0.44353,0.0628 -0.65248,-0.0664 z m -34.65211,-2.49221 c -2.94309,-0.27159 -3.78516,-0.6393 -2.19593,-0.95891 0.7544,-0.15172 7.60688,0.20833 8.81051,0.46293 l 0.66146,0.13991 -0.66146,0.28214 c -0.9019,0.3847 -2.99344,0.40808 -6.61458,0.0739 z m -26.19375,-1.19072 c 0,-0.38271 0.84536,-0.58726 3.0427,-0.73623 1.16417,-0.0789 2.25182,-0.25007 2.417,-0.38031 0.16518,-0.13025 1.41534,-0.22589 2.77813,-0.21255 1.36278,0.0134 2.9871,0.0116 3.60959,-0.004 1.27757,-0.0318 1.67965,0.12847 1.49953,0.59778 -0.0805,0.20977 -0.88453,0.34392 -2.30354,0.38432 -2.98958,0.0851 -7.11197,0.28187 -9.25748,0.44183 -0.98226,0.0732 -1.78593,0.0323 -1.78593,-0.0909 z m 62.70625,-0.54758 c 0,-0.37797 0.67073,-0.70476 2.14385,-1.04453 1.65255,-0.38114 6.55067,-0.22809 8.24104,0.25752 1.19267,0.34262 1.40151,1.13615 0.26458,1.00533 -0.40922,-0.0471 -0.69866,-0.22843 -0.66145,-0.41445 0.0364,-0.1819 -0.0529,-0.33072 -0.19844,-0.33072 -0.14552,0 -0.26641,0.14882 -0.26864,0.33072 -0.003,0.20949 -0.0753,0.23186 -0.19843,0.061 -0.28735,-0.39872 -3.08326,-0.47382 -5.4919,-0.14752 -3.38382,0.45842 -3.83061,0.49138 -3.83061,0.28264 z m -48.25258,-0.18429 c -0.37804,-0.37804 -0.0945,-0.54252 1.22289,-0.70932 2.95017,-0.37353 4.93918,-0.49537 7.86844,-0.48199 1.67189,0.008 3.10314,-0.0886 3.18056,-0.21388 0.0774,-0.12526 0.82241,-0.26484 1.65553,-0.31017 0.83312,-0.0453 1.47876,-0.19181 1.43476,-0.32553 -0.13623,-0.41393 -2.00964,-0.93442 -4.25421,-1.18193 -1.18031,-0.13016 -2.38414,-0.29441 -2.67519,-0.36501 -0.29104,-0.0706 -1.3626,-0.21953 -2.38125,-0.33097 -1.01864,-0.11144 -2.20927,-0.25255 -2.64583,-0.31357 -1.26358,-0.17663 -10.7272,-0.16165 -12.03854,0.0191 -0.65484,0.0902 -2.32172,0.28798 -3.70417,0.43944 -1.38245,0.15145 -3.04932,0.36439 -3.70416,0.4732 -1.41052,0.23437 -2.18493,0.12017 -2.04438,-0.30149 0.10845,-0.32533 1.68485,-0.67768 3.63188,-0.81177 0.65484,-0.0451 1.36921,-0.15466 1.5875,-0.24346 0.21828,-0.0888 1.4908,-0.21425 2.82782,-0.27878 1.33702,-0.0645 2.55739,-0.19548 2.71192,-0.29098 0.42151,-0.26051 9.7753,-0.37897 10.62739,-0.1346 0.61965,0.17772 3.34665,0.49272 5.39641,0.62336 0.29104,0.0185 0.67799,0.12925 0.85989,0.24601 0.1819,0.11676 0.4266,0.15304 0.54377,0.0806 0.18513,-0.11442 0.73563,-0.0242 2.4328,0.39846 0.21828,0.0544 0.4129,-0.0797 0.4325,-0.29802 0.0196,-0.21829 0.0494,-0.53831 0.0661,-0.71117 0.0168,-0.17285 0.23888,-0.32322 0.49354,-0.33415 1.49763,-0.0643 2.05052,-0.17478 2.05052,-0.40989 0,-0.14552 -0.10609,-0.22922 -0.23575,-0.186 -0.12967,0.0432 -0.64536,-0.11579 -1.14598,-0.35335 -0.50063,-0.23756 -1.34704,-0.48418 -1.88092,-0.54803 -0.53387,-0.0639 -1.32787,-0.28012 -1.76443,-0.48059 -0.43656,-0.20046 -1.56766,-0.42801 -2.51354,-0.50565 -0.94589,-0.0777 -2.25557,-0.2166 -2.91042,-0.30879 -0.65484,-0.0922 -1.7264,-0.19341 -2.38125,-0.22494 -0.65484,-0.0315 -1.33122,-0.14432 -1.50307,-0.25066 -0.17185,-0.10633 -0.38058,-0.0831 -0.46385,0.0517 -0.0833,0.13474 -0.65705,0.2521 -1.27506,0.26081 -1.20867,0.017 -1.49661,0.0415 -6.61706,0.56327 -3.23208,0.32932 -4.02551,0.27258 -3.48478,-0.24921 0.21376,-0.20627 1.35418,-0.38181 5.93549,-0.91363 0.50932,-0.0591 1.75948,-0.24918 2.77812,-0.42234 1.92261,-0.32684 7.82799,-0.14898 8.59896,0.25897 0.21828,0.1155 1.15527,0.28552 2.08219,0.37782 0.92692,0.0923 1.91164,0.28895 2.18828,0.437 0.27663,0.14805 0.63805,0.18569 0.80316,0.0836 0.1651,-0.10204 0.69842,-0.22941 1.18516,-0.28305 0.64808,-0.0714 0.88496,0.007 0.88496,0.2932 0,0.40361 1.94289,1.39237 3.26389,1.66104 0.41269,0.0839 0.81205,0.31343 0.88748,0.50998 0.0887,0.23114 0.36224,0.30088 0.77444,0.19742 0.35052,-0.088 0.7846,-0.044 0.96461,0.0978 0.18001,0.14176 1.0257,0.47335 1.87931,0.73687 0.8536,0.26352 1.96022,0.75615 2.45914,1.09472 1.14801,0.77906 1.3535,0.77141 2.24593,-0.0836 l 0.7298,-0.69919 -0.58303,-0.43226 c -0.91935,-0.68162 -1.875,-1.10846 -2.67945,-1.19676 -0.40803,-0.0448 -0.84557,-0.24515 -0.97232,-0.44525 -0.12674,-0.20009 -0.23227,-0.27032 -0.2345,-0.15606 -0.002,0.11426 -0.2718,0.0645 -0.59904,-0.11069 -0.32725,-0.17514 -0.8928,-0.34477 -1.25677,-0.37697 -0.36398,-0.0322 -1.0785,-0.14313 -1.58782,-0.24653 -1.15739,-0.23497 -1.46302,-0.24028 -2.77813,-0.0483 -1.39384,0.20351 -2.21252,-0.016 -2.131,-0.57137 0.0844,-0.57527 1.7169,-0.84536 3.15563,-0.5221 0.59789,0.13433 1.54513,0.21117 2.10499,0.17075 0.7407,-0.0535 1.08723,0.0503 1.2724,0.38124 0.19349,0.34574 0.61599,0.45613 1.76269,0.46054 0.93088,0.004 1.95373,0.20795 2.67209,0.53387 0.64013,0.29043 1.23079,0.46114 1.31257,0.37936 0.2677,-0.2677 -1.39404,-1.43081 -2.47645,-1.73335 -0.58208,-0.1627 -1.53924,-0.51382 -2.12701,-0.78028 -0.58777,-0.26645 -1.54027,-0.54041 -2.11666,-0.60881 -1.78912,-0.21229 -2.76739,-0.49628 -2.7773,-0.80623 -0.005,-0.16371 -0.28654,0.041 -0.62513,0.45487 -0.5539,0.67709 -0.67231,0.71713 -1.18111,0.39938 -0.31102,-0.19424 -0.5655,-0.50684 -0.5655,-0.69468 0,-0.22017 -0.30553,-0.32202 -0.85989,-0.28664 -1.11904,0.0714 -3.63802,-0.77462 -3.63802,-1.22188 0,-0.19102 0.20278,-0.42512 0.45062,-0.52022 0.56155,-0.21549 3.27892,0.0964 3.68957,0.42353 0.32294,0.25722 0.56158,0.31368 2.54053,0.60104 1.04103,0.15116 1.25678,0.27759 1.25678,0.73645 0,0.53123 0.021,0.53493 0.51257,0.0901 0.43922,-0.39749 0.64696,-0.41953 1.45153,-0.154 0.51642,0.17044 0.99589,0.40202 1.06548,0.51463 0.0696,0.11261 0.50429,0.21549 0.96598,0.22861 0.47911,0.0136 0.7387,-0.0749 0.60475,-0.20628 -0.40935,-0.40144 -3.31525,-1.85318 -3.70944,-1.85318 -0.20808,0 -0.44035,-0.16165 -0.51616,-0.35923 -0.0987,-0.25715 -0.79172,-0.37752 -2.43909,-0.42364 -3.34297,-0.0936 -7.26093,-0.0342 -7.40742,0.1123 -0.0696,0.0696 0.19474,0.24876 0.58748,0.39808 0.39274,0.14932 0.63678,0.39656 0.54231,0.54942 -0.11904,0.19261 -0.27914,0.18882 -0.52154,-0.0124 -0.19237,-0.15965 -0.41303,-0.1879 -0.49037,-0.0628 -0.0773,0.12513 -0.53441,0.18359 -1.01574,0.12992 -0.48132,-0.0537 -2.34901,-0.14182 -4.1504,-0.19587 -1.8014,-0.054 -3.38559,-0.20859 -3.52043,-0.34343 -0.1505,-0.15049 -0.6737,-0.14918 -1.35495,0.003 -0.61037,0.13672 -1.56921,0.23476 -2.13074,0.21786 -0.56154,-0.0169 -1.1814,0.10243 -1.37748,0.26516 -0.19607,0.16273 -0.48078,0.21906 -0.63267,0.12518 -0.1519,-0.0939 -0.27617,-0.0311 -0.27617,0.13955 0,0.19921 -0.30634,0.26527 -0.85607,0.18458 -0.47084,-0.0691 -1.03639,-0.035 -1.25678,0.0759 -0.57185,0.28755 -4.51856,0.76042 -4.95354,0.5935 -0.45135,-0.17319 -0.29869,-0.72686 0.21,-0.76163 0.20575,-0.0141 0.55269,-0.0934 0.77097,-0.17624 0.21828,-0.0829 0.57547,-0.15851 0.79375,-0.16811 0.21828,-0.01 1.11125,-0.13472 1.98437,-0.27807 0.87313,-0.14334 1.78842,-0.19935 2.03398,-0.12447 0.24555,0.0749 0.66227,0.0196 0.92604,-0.12295 0.84441,-0.45624 2.82811,-0.87397 3.91915,-0.8253 0.58208,0.026 1.65365,0.0421 2.38125,0.0358 0.7276,-0.006 2.09682,-0.004 3.04271,0.005 2.83182,0.0277 3.67001,-0.0385 5.10944,-0.40392 1.77544,-0.4507 6.7088,-0.56793 7.18732,-0.17079 0.21709,0.18018 0.41678,0.19743 0.51148,0.0442 0.19614,-0.31736 3.39891,0.35784 4.60472,0.97076 0.48207,0.24504 1.05881,0.64585 1.28163,0.8907 0.22282,0.24485 0.55346,0.38826 0.73475,0.31869 0.1813,-0.0696 0.48235,0.0575 0.669,0.28243 0.18665,0.2249 0.48263,0.40891 0.65773,0.40891 0.17509,0 0.59799,0.29766 0.93976,0.66146 0.34178,0.3638 0.73951,0.66146 0.88384,0.66146 0.50789,0 4.37381,2.75175 4.48997,3.19594 0.14972,0.57252 -0.32153,1.33106 -0.52121,0.83895 -0.0738,-0.1819 -0.34603,-0.33072 -0.60493,-0.33072 -0.43989,0 -0.51038,0.37422 -0.27409,1.4552 0.15312,0.7005 -0.0636,0.92605 -0.88986,0.92605 -0.95727,0 -1.7608,0.65747 -1.7608,1.44075 0,0.3517 -0.14388,0.43542 -0.56087,0.32637 -0.69993,-0.18303 -2.56089,0.74099 -1.95816,0.97228 0.63433,0.24342 0.48546,0.76221 -0.15994,0.55737 -0.36759,-0.11667 -0.50188,-0.0807 -0.38781,0.10386 0.12207,0.19752 -0.0737,0.1958 -0.65182,-0.006 -0.78659,-0.2742 -2.55276,-0.17898 -3.92955,0.21187 -0.47678,0.13535 -0.58455,0.0964 -0.42912,-0.15509 0.35528,-0.57486 -0.42484,-0.79758 -2.80849,-0.8018 -1.77859,-0.003 -2.32022,0.0831 -2.43721,0.38792 -0.12384,0.32274 -0.79469,0.38501 -3.79862,0.35256 -2.00651,-0.0217 -4.85334,0.0355 -6.32629,0.12699 -1.47296,0.0915 -2.75288,0.0916 -2.84428,2.1e-4 z m 22.75224,-1.79193 c 0.21507,-0.21508 0.59352,-0.51127 0.841,-0.65822 0.40707,-0.24171 0.38691,-0.31736 -0.2115,-0.7937 -0.3638,-0.28959 -0.96507,-0.52918 -1.33614,-0.53241 -0.37108,-0.003 -0.79479,-0.12599 -0.94158,-0.27278 -0.41293,-0.41293 -4.27081,-0.55385 -6.15927,-0.22499 -1.30666,0.22755 -1.59132,0.35303 -1.24302,0.54794 0.24845,0.13904 0.63384,0.18293 0.85642,0.0975 0.22257,-0.0854 0.54276,-0.0674 0.71153,0.0399 0.30525,0.19422 0.45186,0.23944 0.98095,0.30257 0.15247,0.0182 0.55528,0.33311 0.89514,0.69982 0.44233,0.47728 0.97792,0.70318 1.88473,0.79494 0.69675,0.0705 1.32581,0.18718 1.39792,0.25929 0.29175,0.29175 1.95858,0.10531 2.32382,-0.25993 z m 3.69977,-6.68106 c -0.26895,-0.26895 -0.49087,0.13597 -0.2702,0.49302 0.1667,0.26972 0.22902,0.26993 0.31864,0.001 0.0613,-0.18383 0.0395,-0.40617 -0.0484,-0.49409 z m -61.2786,7.09515 c 0,-0.57989 3.488,-2.29208 5.15937,-2.53263 0.29105,-0.0419 1.10714,-0.21203 1.81354,-0.3781 1.98992,-0.46781 5.44521,-0.47883 5.72984,-0.0183 0.35515,0.57464 -0.16272,0.75203 -2.21436,0.75852 -1.70602,0.005 -5.14927,0.59892 -6.38735,1.10101 -0.29104,0.11803 -0.96699,0.28647 -1.5021,0.37431 -0.53511,0.0878 -1.01136,0.25658 -1.05833,0.37498 -0.12717,0.32055 -1.54061,0.61432 -1.54061,0.3202 z m 10.31875,-0.1619 c 0,-0.48486 1.0684,-0.93621 2.50778,-1.05943 0.57892,-0.0496 1.09486,-0.21694 1.14653,-0.37196 0.12214,-0.36641 1.10819,-0.36788 1.10819,-0.002 0,0.15411 -0.13713,0.19545 -0.30472,0.0919 -0.1676,-0.10358 -0.43549,-0.0213 -0.59532,0.18282 -0.15982,0.20413 -0.64777,0.53387 -1.08434,0.73275 -0.43656,0.19888 -1.00049,0.46677 -1.25318,0.59531 -0.7204,0.36647 -1.52494,0.27694 -1.52494,-0.16971 z m 80.83954,-1.69814 c -0.39743,-0.64305 1.80973,-1.30874 4.09661,-1.23556 1.75152,0.0561 2.37635,0.24603 2.37635,0.72252 0,0.14552 -0.0893,0.21137 -0.19844,0.14633 -0.10914,-0.065 -1.0914,-0.01 -2.18281,0.12306 -3.68004,0.44752 -3.95557,0.46392 -4.09171,0.24365 z m 7.46515,-0.22311 c -0.51126,-0.0645 -0.72761,-0.24384 -0.72761,-0.60332 0,-0.42612 0.18787,-0.51091 1.12448,-0.50754 1.35985,0.005 1.9842,0.30516 1.46773,0.70584 -0.50352,0.39064 -1.04525,0.50831 -1.8646,0.40502 z m -85.27813,-2.68456 c 0.25451,-0.28123 0.60962,-0.45497 0.78913,-0.38608 0.17951,0.0689 0.64036,0.006 1.02411,-0.14003 0.41624,-0.15825 0.75803,-0.16768 0.84721,-0.0234 0.0822,0.13304 -0.47095,0.42615 -1.22928,0.65135 -1.7874,0.5308 -1.99064,0.51633 -1.43117,-0.10187 z m 79.69183,0.30515 c -0.27277,-0.44135 0.71592,-1.04008 1.98977,-1.20497 0.98291,-0.12722 1.22082,-0.0825 1.17624,0.2213 -0.0793,0.54015 -0.2507,0.66162 -1.11549,0.79044 -0.42004,0.0626 -1.01816,0.18841 -1.32915,0.27963 -0.311,0.0912 -0.63562,0.0523 -0.72137,-0.0864 z m 3.72763,-1.02616 c -0.11464,-0.59971 -0.0619,-0.61962 1.63077,-0.6157 3.12873,0.007 3.32222,1.03345 0.2193,1.1631 -1.63185,0.0682 -1.73842,0.0366 -1.85007,-0.5474 z m -77.53098,-0.0112 c -0.26271,-0.0681 -0.43212,-0.26265 -0.37647,-0.43233 0.11723,-0.35738 1.36273,-0.55607 1.98614,-0.31685 0.34,0.13047 0.27605,0.24113 -0.31718,0.5489 -0.40866,0.21202 -0.75917,0.37167 -0.77892,0.35479 -0.0197,-0.0169 -0.25085,-0.0864 -0.51357,-0.15451 z m 46.64746,-0.23325 c 0,-0.17247 0.20836,-0.37612 0.46302,-0.45255 0.25466,-0.0764 1.35599,-0.5748 2.4474,-1.10747 1.0914,-0.53266 1.83838,-0.82022 1.65994,-0.63901 -0.23534,0.239 -0.24561,0.42446 -0.0374,0.67535 0.21989,0.26495 0.12153,0.40879 -0.4204,0.61483 -0.38909,0.14794 -0.85983,0.26897 -1.04608,0.26897 -0.18625,0 -0.54328,0.22613 -0.7934,0.5025 -0.50688,0.5601 -2.27309,0.66685 -2.27309,0.13738 z M 73.81874,134.2878 c 0,-0.44861 0.71554,-0.76577 0.93318,-0.41363 0.086,0.13917 0.0828,0.37209 -0.007,0.51762 -0.24449,0.39559 -0.92604,0.31905 -0.92604,-0.10399 z m -7.27605,-1.21893 c -0.27304,-0.4418 0.12246,-0.79375 0.89196,-0.79375 0.40065,0 1.22435,-0.2396 1.83046,-0.53244 1.32775,-0.6415 3.68621,-1.21693 3.94147,-0.96166 0.36228,0.36228 -0.71822,1.07077 -1.63302,1.07077 -0.5114,0 -0.92982,0.12501 -0.92982,0.27781 0,0.15279 -0.35719,0.30096 -0.79375,0.32926 -1.44641,0.0937 -1.71535,0.15573 -2.24169,0.51669 -0.62262,0.42698 -0.84723,0.44665 -1.06561,0.0933 z m 79.02709,-0.0733 c -0.25179,-0.30338 -0.24588,-0.44723 0.0277,-0.67427 0.39063,-0.3242 1.51085,-0.12304 1.51085,0.27131 0,0.14067 -0.14883,0.20564 -0.33073,0.14436 -0.1819,-0.0613 -0.45606,0.0586 -0.60923,0.26642 -0.24089,0.3268 -0.32174,0.32575 -0.59858,-0.008 z m 7.72671,0.0246 c -0.0618,-0.0995 -0.52078,-0.11475 -1.01984,-0.0338 -0.49907,0.081 -1.81323,0.0624 -2.92036,-0.0414 -1.6747,-0.15694 -1.99891,-0.26241 -1.92933,-0.6277 0.0895,-0.46976 1.03636,-0.71718 1.72838,-0.45163 0.23157,0.0889 2.45533,0.22637 4.94169,0.30557 4.56343,0.14536 5.63915,0.37179 4.25906,0.89649 -0.78684,0.29916 -4.86804,0.26077 -5.0596,-0.0476 z m -30.52579,-0.11885 c 0.009,-0.48247 0.43762,-0.78387 1.71574,-1.20518 0.72761,-0.23984 2.29415,-0.79419 3.48121,-1.23188 1.18706,-0.43769 2.22598,-0.72811 2.30871,-0.64538 0.0827,0.0827 0.34876,-0.0142 0.59117,-0.21536 0.29305,-0.24322 1.02666,-0.34932 2.18921,-0.31662 0.96165,0.0271 2.26677,-0.0667 2.90026,-0.20832 1.2363,-0.27639 2.10281,-0.0966 4.27215,0.88657 0.65485,0.29678 1.46744,0.57357 1.80578,0.61511 0.33833,0.0415 0.75505,0.19162 0.92604,0.33351 0.20682,0.17163 0.62089,0.1184 1.23693,-0.15902 0.50933,-0.22936 0.98558,-0.43756 1.05834,-0.46267 0.0728,-0.0251 0.46746,-0.1845 0.87712,-0.35421 0.40965,-0.1697 0.92349,-0.30855 1.14187,-0.30855 0.21837,0 0.65711,-0.14273 0.97496,-0.31716 0.8501,-0.46653 3.78531,-0.51099 5.605,-0.0849 0.87313,0.20444 2.00422,0.44542 2.51355,0.53551 1.37846,0.24381 3.78985,0.97598 4.16718,1.26527 0.57296,0.43928 0.3598,0.78348 -0.39687,0.64085 -1.42342,-0.26831 -2.2813,-0.48171 -2.5136,-0.62528 -0.20892,-0.12912 -2.89107,-0.55566 -4.6963,-0.74684 -0.3638,-0.0385 -0.72099,-0.0995 -0.79375,-0.1355 -0.0728,-0.036 -0.23836,-0.0458 -0.368,-0.0217 -0.12964,0.0241 -0.99809,0.097 -1.9299,0.16207 -1.75526,0.12258 -3.60924,0.62027 -5.60969,1.50589 -0.65219,0.28873 -1.23178,0.40771 -1.32292,0.27158 -0.21631,-0.32312 -1.87072,-1.12688 -2.31951,-1.12688 -0.19593,0 -0.35623,-0.11906 -0.35623,-0.26458 0,-0.14552 -0.0893,-0.24395 -0.19844,-0.21873 -0.40543,0.0937 -3.38792,-0.34415 -3.77987,-0.55489 -0.81594,-0.4387 -4.97246,0.3149 -7.26648,1.31745 -0.29104,0.12719 -0.88635,0.26522 -1.32292,0.30673 -0.52475,0.0499 -0.88226,0.27723 -1.05492,0.67079 -0.21493,0.4899 -0.47261,0.59596 -1.45521,0.59893 -0.65672,0.002 -1.46192,0.0754 -1.78935,0.16315 -0.32742,0.0877 -0.59348,0.0564 -0.59126,-0.0698 z"
       id="path2" />
  </g>
</svg>
