<?xml version="1.0" encoding="UTF-8" standalone="no"?>
<!-- Created with Inkscape (http://www.inkscape.org/) -->

<svg
   width="112.47887mm"
   height="30.265198mm"
   viewBox="0 0 112.47884 30.265201"
   version="1.1"
   id="svg1"
   inkscape:version="1.4.1-rc (06eac75fbf, 2025-03-29)"
   sodipodi:docname="hill6.svg"
   xmlns:inkscape="http://www.inkscape.org/namespaces/inkscape"
   xmlns:sodipodi="http://sodipodi.sourceforge.net/DTD/sodipodi-0.dtd"
   xmlns="http://www.w3.org/2000/svg"
   xmlns:svg="http://www.w3.org/2000/svg">
  <sodipodi:namedview
     id="namedview1"
     pagecolor="#ffffff"
     bordercolor="#000000"
     borderopacity="0.25"
     inkscape:showpageshadow="2"
     inkscape:pageopacity="0.0"
     inkscape:pagecheckerboard="0"
     inkscape:deskcolor="#d1d1d1"
     inkscape:document-units="mm"
     inkscape:zoom="0.72248176"
     inkscape:cx="211.77005"
     inkscape:cy="57.440896"
     inkscape:window-width="1850"
     inkscape:window-height="1016"
     inkscape:window-x="0"
     inkscape:window-y="0"
     inkscape:window-maximized="1"
     inkscape:current-layer="layer1" />
  <defs
     id="defs1" />
  <g
     inkscape:label="Layer 1"
     inkscape:groupmode="layer"
     id="layer1"
     transform="translate(-50.27083,-132.55656)">
    <path
       style="fill:#000000"
       d="m 138.37705,162.74665 c 0,-0.10135 0.17969,-0.36395 0.39931,-0.58357 0.56521,-0.56522 0.29346,-0.82886 -1.06423,-1.03246 -1.73678,-0.26044 -1.17204,-0.64711 0.94512,-0.64711 1.67463,0 1.83647,0.0478 1.83647,0.54206 0,0.50125 0.10954,0.52926 1.45521,0.37208 0.9358,-0.10931 1.45521,-0.0723 1.45521,0.10379 0,0.38876 -0.42348,0.60177 -1.40085,0.7046 -0.46646,0.0491 -1.08624,0.15006 -1.37728,0.2244 -1.44977,0.37031 -2.24896,0.48268 -2.24896,0.31621 z m 1.85209,-1.16071 c 0,-0.3445 -0.31453,-0.57362 -0.57039,-0.41549 -0.27364,0.16911 -0.0377,0.63598 0.32142,0.63598 0.13693,0 0.24897,-0.0992 0.24897,-0.22049 z m -11.48302,-0.27008 c -0.17195,-0.28497 0.4623,-0.69665 1.16427,-0.75569 3.04861,-0.25643 6.08545,-0.11544 6.08528,0.28251 -9e-5,0.20754 -0.8502,0.2997 -2.71198,0.29401 -1.49151,-0.005 -3.09943,0.0723 -3.57315,0.17089 -0.47372,0.0985 -0.90771,0.10227 -0.96442,0.008 z m 13.23586,-1.50308 c -0.11456,-0.29853 1.3e-4,-0.48041 0.36273,-0.57523 0.29164,-0.0763 0.53026,-0.23338 0.53026,-0.34914 0,-0.35231 -1.83564,-0.51943 -4.82865,-0.4396 -2.10168,0.0561 -2.84427,-0.008 -2.84427,-0.24661 0,-0.49007 1.115,-0.60539 5.02709,-0.51994 4.4242,0.0967 8.17093,0.42014 8.35722,0.72156 0.0774,0.12519 0.40481,0.22761 0.72764,0.22761 0.64634,0 1.76305,0.67985 1.76305,1.07334 0,0.33714 -1.78449,0.32004 -1.89723,-0.0182 -0.18945,-0.56834 -4.86738,-0.28928 -6.60144,0.39381 -0.26858,0.1058 -0.49149,0.006 -0.5964,-0.26762 z m 11.60196,-2.25045 c -0.0936,-0.15144 -0.39285,-0.20467 -0.66501,-0.11829 -0.27216,0.0864 -0.76816,-0.0174 -1.10221,-0.23058 -0.74193,-0.47351 -3.80167,-0.98764 -6.81944,-1.14587 -1.23382,-0.0647 -2.39498,-0.24349 -2.58034,-0.39733 -0.18537,-0.15384 -0.67987,-0.21115 -1.09889,-0.12734 -0.41902,0.0838 -0.83879,0.0754 -0.93282,-0.0186 -0.094,-0.094 -1.26856,-0.21684 -2.61007,-0.27291 -1.34151,-0.0561 -2.49557,-0.15843 -2.56459,-0.22744 -0.20847,-0.20847 0.61263,-0.61751 1.24825,-0.62183 0.32743,-0.002 0.59532,-0.12312 0.59532,-0.26864 0,-0.14552 -0.26789,-0.26536 -0.59532,-0.26632 -0.32742,-9.6e-4 -0.94658,-0.2333 -1.37592,-0.51631 l -0.78061,-0.51457 1.1501,0.10527 c 0.63255,0.0579 1.27552,0.23071 1.42883,0.38402 0.15331,0.15331 0.67166,0.27875 1.15187,0.27875 0.48022,0 0.87313,0.11906 0.87313,0.26458 0,0.14552 0.19037,0.26458 0.42303,0.26458 0.23267,0 0.79822,0.1688 1.25677,0.37511 0.45856,0.2063 1.96483,0.44769 3.34728,0.53641 1.38245,0.0887 3.18558,0.20665 4.00695,0.26206 0.82138,0.0554 2.33297,0.30481 3.35909,0.55421 1.76185,0.42822 3.4006,0.37036 3.10398,-0.10958 -0.12667,-0.20496 -1.91975,-0.83382 -4.64918,-1.63056 -0.65485,-0.19115 -1.32437,-0.44722 -1.48782,-0.56904 -0.16346,-0.12182 -0.46784,-0.156 -0.67642,-0.076 -0.32434,0.12447 -3.15499,-0.13704 -5.90556,-0.54557 -0.43656,-0.0648 -0.97234,-0.1376 -1.19062,-0.1617 -2.68852,-0.29673 -5.68854,-0.98223 -5.68854,-1.29982 0,-0.50112 0.81202,-0.62373 1.96214,-0.29627 0.95277,0.27127 4.71896,0.78475 7.43057,1.01307 0.80036,0.0674 2.05052,0.24254 2.77812,0.38922 0.72761,0.14667 1.73964,0.30729 2.24896,0.35693 0.50932,0.0496 1.46182,0.27902 2.11667,0.50973 1.40356,0.49451 2.11666,0.53976 2.11666,0.1343 0,-0.16109 -0.18188,-0.2231 -0.40417,-0.13779 -0.22931,0.088 -0.59817,-0.0715 -0.85255,-0.36857 -0.24661,-0.28802 -0.67055,-0.52367 -0.9421,-0.52367 -0.27154,0 -1.23922,-0.34506 -2.15041,-0.7668 -0.91118,-0.42175 -2.06153,-0.83562 -2.55633,-0.91973 -0.49481,-0.0841 -1.79261,-0.40124 -2.88402,-0.70475 -1.09141,-0.30351 -2.887,-0.58456 -3.9902,-0.62454 -1.10321,-0.04 -2.11524,-0.13459 -2.24896,-0.21022 -0.13372,-0.0756 -1.43376,-0.46434 -2.88897,-0.86379 -1.4552,-0.39945 -3.15601,-0.89281 -3.77955,-1.09635 -0.62355,-0.20354 -1.32948,-0.37007 -1.56872,-0.37007 -0.23924,0 -0.80063,-0.11195 -1.24752,-0.24878 -1.26272,-0.38663 -8.02518,-1.27785 -9.937,-1.3096 -0.94388,-0.0157 -2.37263,-0.14157 -3.175,-0.27977 -0.80238,-0.13821 -1.89465,-0.2455 -2.42727,-0.23844 -0.53262,0.007 -1.18747,-0.10975 -1.45521,-0.25959 -0.44534,-0.24923 -0.42482,-0.29601 0.2408,-0.54908 0.50663,-0.19263 0.94857,-0.19238 1.4552,8.2e-4 0.40019,0.1526 1.32292,0.25395 2.05052,0.22521 0.72761,-0.0287 1.38245,-0.0259 1.45521,0.006 0.0728,0.0322 1.02526,0.10882 2.11667,0.17035 1.09141,0.0615 2.52914,0.22288 3.19497,0.35854 0.66583,0.13566 1.45598,0.18248 1.75588,0.10405 0.29991,-0.0784 1.2828,0.0464 2.18421,0.27728 0.90141,0.23093 1.85969,0.41988 2.1295,0.41988 0.26982,0 0.82575,0.13829 1.2354,0.30731 0.40966,0.16902 0.84431,0.28468 0.96589,0.25704 0.36991,-0.0841 3.38442,0.51295 3.84517,0.76158 0.81212,0.43825 3.87014,1.29884 4.93577,1.38902 0.58547,0.0496 1.19377,0.16999 1.35177,0.26764 0.158,0.0976 0.81007,0.0842 1.44905,-0.0298 0.88118,-0.15725 1.38542,-0.0985 2.08781,0.24305 0.50932,0.2477 1.34276,0.52563 1.85208,0.61761 l 0.92604,0.16725 -0.66146,-0.45819 c -0.3638,-0.252 -0.81861,-0.6117 -1.01069,-0.79934 -0.19207,-0.18764 -0.66832,-0.41898 -1.05833,-0.51409 -0.39001,-0.0951 -1.04566,-0.45248 -1.45701,-0.79415 -0.41134,-0.34167 -0.91736,-0.62121 -1.12448,-0.62121 -0.20711,0 -0.37657,-0.0928 -0.37657,-0.20618 0,-0.31913 -4.16763,-2.2095 -6.74688,-3.06027 -1.5279,-0.50398 -6.76147,-1.48611 -7.95072,-1.49204 -0.44384,-0.002 -0.92009,-0.11641 -1.05834,-0.25378 -0.13824,-0.13737 -0.84666,-0.27161 -1.57427,-0.29832 -0.7276,-0.0267 -1.8587,-0.16491 -2.51354,-0.30713 -0.65484,-0.14221 -1.96453,-0.28994 -2.91042,-0.32827 -0.94588,-0.0383 -2.79135,-0.16754 -4.10104,-0.28713 -1.30969,-0.11958 -2.5211,-0.19165 -2.69203,-0.16014 -0.43806,0.0808 -0.68588,-0.41103 -0.32082,-0.63665 0.2932,-0.18121 5.24168,-0.18307 6.58473,-0.002 0.3638,0.0489 1.43536,0.17072 2.38125,0.27066 0.94588,0.0999 2.61276,0.34397 3.70416,0.54227 1.09141,0.1983 3.3536,0.56441 5.02709,0.81359 1.67349,0.24917 3.15581,0.55539 3.29406,0.68049 0.13824,0.12511 0.7097,0.22746 1.26991,0.22746 0.5602,0 1.3996,0.20533 1.86531,0.45628 0.46572,0.25095 1.02535,0.47276 1.24363,0.4929 0.36498,0.0337 2.09498,0.82201 3.70417,1.68792 0.3638,0.19576 0.89958,0.47754 1.19062,0.62618 0.29105,0.14863 1.48167,0.82328 2.64584,1.49922 1.16416,0.67594 2.41348,1.39894 2.77624,1.60668 0.36277,0.20773 0.94438,0.58605 1.29246,0.84072 0.88752,0.64932 1.09067,0.58285 1.09067,-0.35689 0,-1.1488 -0.69779,-2.49102 -1.48041,-2.8476 -1.00102,-0.4561 -1.16673,-0.37394 -0.99344,0.49251 0.19359,0.96796 -0.12568,1.01025 -1.06373,0.1409 -0.38744,-0.35907 -1.26803,-0.98077 -1.95687,-1.38156 -0.68883,-0.40079 -1.48323,-0.94044 -1.76533,-1.19923 -0.2821,-0.25879 -0.6608,-0.47053 -0.84155,-0.47053 -0.51845,0 -2.19382,-1.15529 -2.20622,-1.52135 -0.006,-0.1819 0.10787,-0.33073 0.25339,-0.33073 0.58922,0 0.20771,-0.56485 -0.66146,-0.97933 -0.50933,-0.24288 -0.92604,-0.51909 -0.92604,-0.6138 0,-0.0947 -0.48691,-0.19129 -1.08202,-0.21461 -0.59511,-0.0233 -1.19043,-0.10939 -1.32292,-0.19128 -0.13249,-0.0819 -0.2409,-0.0298 -0.2409,0.1157 0,0.14552 0.11907,0.33817 0.26459,0.42811 0.4244,0.2623 0.30521,0.66122 -0.19844,0.66413 -0.47169,0.003 -3.25896,-0.86899 -4.69636,-1.46879 -0.43656,-0.18216 -1.32953,-0.41652 -1.98437,-0.5208 -0.65484,-0.10427 -1.32677,-0.29923 -1.49317,-0.43325 -0.60237,-0.48516 -7.2087,-0.93044 -17.02766,-1.1477 -2.54662,-0.0564 -4.80285,-0.11007 -5.01386,-0.11938 -0.77278,-0.0341 0.15242,-0.54793 1.32336,-0.73497 1.4947,-0.23875 8.19925,-0.2217 13.34779,0.0339 4.061,0.20164 8.37661,0.88856 10.39079,1.6539 1.44611,0.54949 1.73672,0.2793 0.49047,-0.45601 -0.52766,-0.31133 -0.95939,-0.67335 -0.95939,-0.8045 0,-0.13114 -0.13945,-0.23845 -0.30989,-0.23845 -0.17045,0 -0.49787,-0.16181 -0.72761,-0.35958 -0.50371,-0.43362 -2.48017,-0.93765 -4.34497,-1.10804 -4.90558,-0.44822 -9.96336,-0.619 -9.96336,-0.33641 0,0.39065 -1.33578,0.2263 -1.49311,-0.18371 -0.19928,-0.5193 0.41164,-1.25275 0.89041,-1.06903 0.20398,0.0783 1.82201,0.15458 3.59563,0.16957 3.95261,0.0334 7.43875,0.40058 9.70707,1.02237 0.50932,0.13962 1.36582,0.3228 1.90332,0.40708 0.65513,0.10271 1.0317,0.32471 1.14239,0.67348 0.0908,0.28614 0.42495,0.65407 0.74252,0.81762 0.31757,0.16355 0.83135,0.52827 1.14174,0.8105 0.61867,0.56252 3.39113,1.38529 3.94796,1.17162 0.44394,-0.17036 2.35501,0.55281 3.55276,1.34439 0.50672,0.33489 1.02507,0.60889 1.15188,0.60889 0.12682,0 0.91831,0.56555 1.75888,1.25677 1.78849,1.47074 3.05928,2.23491 3.95138,2.37613 1.86088,0.29457 3.9905,1.84557 3.9905,2.90627 0,0.34697 0.18101,0.98089 0.40224,1.4087 0.22123,0.42781 0.39101,0.86374 0.37729,0.96872 -0.031,0.23724 0.87122,0.58203 1.13093,0.4322 0.10487,-0.0605 0.53626,0.0687 0.95864,0.28714 0.42239,0.21843 0.83363,0.33148 0.91388,0.25124 0.35952,-0.35952 1.27261,0.28581 1.6633,1.17554 0.84756,1.93013 1.00107,2.16938 1.6751,2.61066 0.37611,0.24624 0.90652,0.73051 1.17871,1.07617 0.27218,0.34565 0.64432,0.57112 0.82697,0.50103 0.18266,-0.0701 0.63076,0.0275 0.99579,0.21688 0.36503,0.18938 1.1663,0.35126 1.78061,0.35974 1.08597,0.015 1.55052,0.17578 1.28241,0.44389 -0.0723,0.0723 -1.06295,0.0134 -2.20141,-0.13095 -1.44154,-0.18277 -2.17305,-0.17686 -2.40963,0.0195 -0.20221,0.16781 -0.80321,0.21242 -1.48481,0.11021 -0.92808,-0.13917 -1.27758,-0.0675 -1.84418,0.37819 -0.79805,0.62774 -0.91581,0.65582 -1.15145,0.27455 z m 0.0782,-5.06636 c -0.15238,-0.45712 -1.28133,-1.19554 -2.11271,-1.38187 l -0.71828,-0.16099 0.66416,0.66416 c 0.36529,0.36529 0.83031,0.66416 1.03339,0.66416 0.20308,0 0.44282,0.11906 0.53276,0.26458 0.23006,0.37226 0.72763,0.3308 0.60068,-0.05 z m -23.10144,3.73613 c -0.0601,-0.0972 -0.83435,-0.25885 -1.72056,-0.35911 -1.86811,-0.21135 -2.36931,-0.36866 -2.36931,-0.74364 0,-0.28526 3.58686,-0.0436 4.0958,0.27596 0.28599,0.17957 0.44623,0.21122 1.39431,0.2754 1.03705,0.0702 0.70778,0.78487 -0.34782,0.75494 -0.51873,-0.0147 -0.99231,-0.1063 -1.05242,-0.20355 z m -4.91695,-0.8972 c -0.13142,-0.13142 -4.7597,-0.50072 -6.12778,-0.48896 -0.42512,0.004 -0.69503,-0.11778 -0.63764,-0.28689 0.10896,-0.32109 2.19667,-0.41049 4.98894,-0.21363 1.95864,0.13809 2.63054,0.39612 2.18684,0.83982 -0.15401,0.15401 -0.33867,0.22135 -0.41036,0.14966 z m -75.04219,-1.6633 c -0.1819,-0.0612 -0.33073,-0.21807 -0.33073,-0.34851 0,-0.28391 1.69112,-1.16067 2.71198,-1.40603 0.61125,-0.14691 0.72761,-0.0894 0.72761,0.35933 0,0.35507 -0.17475,0.53421 -0.52112,0.53421 -0.28662,0 -0.9117,0.21878 -1.38906,0.48618 -0.47737,0.2674 -1.01678,0.43607 -1.19868,0.37482 z m 82.88073,-0.861 c -0.0899,-0.14552 -0.0445,-0.26459 0.10106,-0.26459 0.14552,0 0.33817,0.11907 0.42811,0.26459 0.0899,0.14552 0.0445,0.26458 -0.10106,0.26458 -0.14552,0 -0.33817,-0.11906 -0.42811,-0.26458 z m -2.23582,-0.62186 c -0.15261,-0.15262 -0.77204,-0.30291 -1.37649,-0.33398 -0.60445,-0.0311 -1.34865,-0.17524 -1.65376,-0.32038 -1.043,-0.49615 -3.29915,-1.10503 -4.09459,-1.10503 -0.43701,0 -0.87173,-0.12485 -0.96603,-0.27743 -0.10868,-0.17585 -0.28394,-0.1863 -0.47863,-0.0286 -0.18769,0.15207 -0.82179,0.15746 -1.6301,0.0138 -0.7276,-0.12926 -1.88846,-0.3023 -2.57968,-0.38453 -0.69123,-0.0822 -1.25677,-0.26127 -1.25677,-0.39788 0,-0.37826 1.78873,-0.43149 2.64583,-0.0787 0.21828,0.0898 0.87312,0.14266 1.45521,0.11738 0.58208,-0.0253 1.61758,0.12439 2.30111,0.33258 0.68353,0.20819 1.29841,0.3229 1.3664,0.25491 0.068,-0.068 0.40171,0.0293 0.7416,0.21615 0.33988,0.18687 1.24425,0.36221 2.0097,0.38963 0.76545,0.0274 1.684,0.24136 2.04121,0.47541 0.35722,0.23406 0.9811,0.42821 1.3864,0.43144 0.4053,0.003 1.03413,0.23424 1.3974,0.51333 l 0.66049,0.50744 -0.8459,-0.0241 c -0.46525,-0.0132 -0.97078,-0.14892 -1.1234,-0.30154 z M 55.4714,150.98211 c 0.50276,-0.58718 1.94318,-0.7704 1.94318,-0.24717 0,0.17709 0.21451,0.11147 0.51015,-0.15609 0.36699,-0.33212 0.63638,-0.39103 0.96002,-0.20991 0.77916,0.43604 0.17439,0.67926 -2.47997,0.99736 l -1.40667,0.16857 z m 6.70568,0.22582 c -0.3638,-0.10817 -1.10794,-0.20854 -1.65364,-0.22304 -0.71026,-0.0189 -0.99219,-0.14339 -0.99219,-0.43819 0,-0.33361 0.28339,-0.39642 1.49218,-0.33073 1.44528,0.0785 1.50141,0.0561 1.78594,-0.71266 0.6508,-1.75851 0.78515,-1.85359 2.59004,-1.83308 2.54762,0.029 4.45059,0.48561 4.45059,1.06801 0,0.43477 -0.10577,0.44395 -1.32292,0.11485 -1.68836,-0.45651 -3.54515,-0.54346 -4.01296,-0.18793 -0.24259,0.18438 -0.52434,0.77904 -0.6261,1.32146 -0.21031,1.12104 -0.75073,1.50681 -1.71094,1.22131 z m 10.05417,-5.95146 c 0,-0.22571 0.38695,-0.5813 0.8599,-0.79021 0.47294,-0.20891 1.21708,-0.67849 1.65364,-1.04352 0.43656,-0.36502 0.89003,-0.66427 1.0077,-0.665 0.2255,-0.001 2.23768,-1.51003 2.69382,-2.0197 0.44639,-0.49879 5.62599,-1.24867 6.0502,-0.87592 0.31899,0.28029 -1.06425,1.13281 -1.54111,0.94982 -0.21584,-0.0828 -0.7823,0.008 -1.25881,0.20112 -0.47651,0.19344 -1.0004,0.30266 -1.1642,0.24271 -0.16381,-0.0599 -1.07701,0.42445 -2.02934,1.07644 -1.68683,1.15485 -3.85253,2.2763 -4.39589,2.2763 -0.14839,0 -0.39723,0.23813 -0.55299,0.52917 -0.3347,0.62538 -1.32292,0.71412 -1.32292,0.11879 z m 64.4217,-3.56539 c -0.0923,-0.14938 -0.3077,-0.25434 -0.47863,-0.23323 -0.67429,0.0832 -0.97224,-0.0411 -0.97224,-0.4056 0,-0.20969 0.12466,-0.4583 0.27701,-0.55246 0.37923,-0.23437 2.69565,0.88355 2.49695,1.20504 -0.21031,0.3403 -1.11005,0.33095 -1.32309,-0.0138 z m -51.35416,-1.42923 c -0.27865,-0.72616 0.14354,-1.71614 0.89306,-2.09409 0.39808,-0.20073 1.75438,-0.44086 3.01401,-0.53361 2.15672,-0.15882 2.28263,-0.13954 2.15965,0.33072 -0.0774,0.2958 -0.36382,0.49887 -0.70273,0.49816 -0.31469,-6.6e-4 -0.98887,0.0786 -1.4982,0.1761 -1.02896,0.197 -1.82453,0.32836 -2.29753,0.37937 -0.17223,0.0186 -0.35083,0.36017 -0.39687,0.75911 -0.094,0.81405 -0.91464,1.15332 -1.17139,0.48424 z m 8.63576,-1.09109 c -0.50522,-0.35621 -1.18983,-0.64766 -1.52135,-0.64766 -0.35942,0 -0.60278,-0.16024 -0.60278,-0.39688 0,-0.55029 0.67556,-0.49645 2.31927,0.18483 0.90565,0.37537 1.37671,0.71952 1.32803,0.97026 -0.11958,0.616 -0.53553,0.58581 -1.52317,-0.11055 z m 2.90295,-4.11926 c -0.64319,-0.34473 -1.47155,-0.49646 -2.71198,-0.49674 -0.98226,-2.3e-4 -1.78438,-0.0897 -1.78248,-0.19885 0.006,-0.35387 4.07743,-1.88962 4.75904,-1.79518 0.36381,0.0504 1.00341,0.22451 1.42136,0.3869 0.41794,0.16239 1.66809,0.2823 2.77812,0.26646 1.11003,-0.0158 2.42162,0.0971 2.91466,0.25086 0.76464,0.23855 1.01152,0.1977 1.67938,-0.27786 0.71326,-0.50789 0.90431,-0.53015 2.14628,-0.25005 1.71487,0.38675 2.08635,0.61986 1.87315,1.17544 -0.20873,0.54395 -0.55371,0.55371 -1.53225,0.0434 -0.96506,-0.50331 -1.51774,-0.50791 -1.32707,-0.011 0.27112,0.70654 -0.14515,0.96207 -0.91703,0.56292 -0.87536,-0.45267 -3.10447,-0.49098 -3.7919,-0.0652 -0.39535,0.24488 -0.54796,0.22892 -0.73843,-0.0772 -0.15604,-0.25082 -0.59062,-0.36231 -1.24147,-0.31847 -0.55076,0.0371 -1.57661,-0.0706 -2.27966,-0.23922 -0.70306,-0.16866 -1.3504,-0.23453 -1.43855,-0.14638 -0.0881,0.0881 0.20759,0.23384 0.6572,0.32376 0.44962,0.0899 1.0847,0.44794 1.4113,0.79559 l 0.59382,0.63209 -0.77372,-0.0324 c -0.42555,-0.0178 -1.19045,-0.25578 -1.69977,-0.52876 z"
       id="path4" />
  </g>
</svg>
