<?xml version="1.0" encoding="UTF-8" standalone="no"?>
<!-- Created with Inkscape (http://www.inkscape.org/) -->

<svg
   width="108.89519mm"
   height="42.589218mm"
   viewBox="0 0 108.89517 42.589222"
   version="1.1"
   id="svg1"
   inkscape:version="1.4.1-rc (06eac75fbf, 2025-03-29)"
   sodipodi:docname="hill4b.svg"
   xmlns:inkscape="http://www.inkscape.org/namespaces/inkscape"
   xmlns:sodipodi="http://sodipodi.sourceforge.net/DTD/sodipodi-0.dtd"
   xmlns="http://www.w3.org/2000/svg"
   xmlns:svg="http://www.w3.org/2000/svg">
  <sodipodi:namedview
     id="namedview1"
     pagecolor="#ffffff"
     bordercolor="#000000"
     borderopacity="0.25"
     inkscape:showpageshadow="2"
     inkscape:pageopacity="0.0"
     inkscape:pagecheckerboard="0"
     inkscape:deskcolor="#d1d1d1"
     inkscape:document-units="mm"
     inkscape:zoom="0.72248176"
     inkscape:cx="206.23358"
     inkscape:cy="79.586784"
     inkscape:window-width="1850"
     inkscape:window-height="1016"
     inkscape:window-x="0"
     inkscape:window-y="0"
     inkscape:window-maximized="1"
     inkscape:current-layer="layer1" />
  <defs
     id="defs1" />
  <g
     inkscape:label="Layer 1"
     inkscape:groupmode="layer"
     id="layer1"
     transform="translate(-51.858313,-126.73574)">
    <path
       style="fill:#000000"
       d="m 52.04951,169.22523 c -0.43665,-0.43665 -0.13139,-0.63491 0.97754,-0.63491 1.79839,0 5.0826,-0.48058 7.42748,-1.08687 1.16417,-0.30101 2.5656,-0.66137 3.1143,-0.80079 0.5487,-0.13943 1.1306,-0.17133 1.29311,-0.0709 0.33515,0.20713 -1.20487,1.02954 -2.43303,1.29929 -0.43399,0.0953 -1.15394,0.35533 -1.59989,0.57779 -0.51488,0.25686 -1.84169,0.44637 -3.63535,0.51925 -1.55351,0.0631 -3.30283,0.17693 -3.88739,0.25292 -0.58456,0.076 -1.15011,0.0509 -1.25677,-0.0558 z m 13.82898,-2.61972 -0.66146,-0.35657 0.74483,-0.28452 c 0.40966,-0.15648 0.80314,-0.28452 0.87441,-0.28452 0.0713,0 0.62907,-0.22493 1.23955,-0.49985 0.61048,-0.27493 1.9434,-0.82673 2.96205,-1.22624 1.01864,-0.39951 1.99519,-0.83926 2.17011,-0.97721 0.17492,-0.13796 0.56187,-0.17344 0.8599,-0.0789 0.29802,0.0946 0.54186,0.0671 0.54186,-0.061 0,-0.12817 0.42034,-0.39796 0.93408,-0.59953 0.92697,-0.36372 0.92948,-0.36906 0.33073,-0.70147 -0.43737,-0.24281 -0.48489,-0.33754 -0.17273,-0.34434 0.23685,-0.005 0.59403,-0.20684 0.79375,-0.44818 0.55268,-0.66786 2.36111,-1.40096 3.47198,-1.40747 0.54571,-0.003 0.99219,-0.10313 0.99219,-0.22207 0,-0.25928 2.59135,-1.10665 3.38424,-1.10665 0.30779,0 0.83311,-0.10849 1.16738,-0.24107 0.62975,-0.2498 4.77087,-1.06155 6.16401,-1.20829 0.43656,-0.046 1.32953,-0.28322 1.98437,-0.52719 0.65485,-0.24396 1.33946,-0.43284 1.52136,-0.41973 0.1819,0.0131 0.62838,0.0457 0.99218,0.0724 0.88406,0.0648 0.83344,0.26492 -0.19843,0.78445 -1.18116,0.59469 -3.17988,1.09736 -6.68073,1.6802 -0.58209,0.0969 -1.15158,0.23341 -1.26555,0.30336 -0.19898,0.12211 -1.11937,0.26998 -3.10008,0.49805 -2.25075,0.25917 -4.50673,0.87656 -6.28381,1.71968 -1.055,0.50053 -1.9182,1.00316 -1.91823,1.11695 -2e-5,0.11379 0.322,0.0381 0.7156,-0.16808 0.53279,-0.27915 0.87081,-0.30426 1.32292,-0.0983 0.76225,0.34731 0.76493,0.55419 0.012,0.92343 -0.92794,0.45504 -5.87784,2.0008 -6.0825,1.89945 -0.038,-0.0188 -0.88966,0.39352 -1.89261,0.91629 -1.00295,0.52278 -2.1842,0.9505 -2.625,0.9505 -0.4408,0 -0.98942,0.16943 -1.21916,0.37651 -0.35347,0.3186 -0.51944,0.32167 -1.07917,0.0199 z m -11.90625,-1.47593 c 0,-0.42356 0.97832,-0.74758 3.5969,-1.1913 1.44145,-0.24425 2.69679,-0.56288 2.78967,-0.70805 0.0929,-0.14518 0.27337,-0.19936 0.40112,-0.12041 0.12774,0.0789 1.12332,-0.12452 2.21239,-0.45216 2.67514,-0.80479 2.80828,-0.85507 4.62596,-1.74689 0.87313,-0.42838 1.94469,-0.85914 2.38125,-0.95724 0.43657,-0.0981 1.16218,-0.45714 1.61248,-0.79787 0.4503,-0.34073 0.98608,-0.62329 1.19062,-0.62792 0.20455,-0.005 0.60302,-0.18322 0.88549,-0.39688 0.28248,-0.21365 0.72896,-0.38846 0.99219,-0.38846 0.26323,0 0.4786,-0.11906 0.4786,-0.26458 0,-0.14552 0.20836,-0.26641 0.46302,-0.26864 0.39639,-0.003 0.40591,-0.0415 0.0661,-0.26458 -0.35277,-0.23158 -0.35277,-0.28948 0,-0.52106 0.21829,-0.1433 0.53113,-0.26236 0.69521,-0.26459 0.16409,-0.002 0.43787,-0.17218 0.60842,-0.37768 0.33402,-0.40247 2.86271,-1.10448 3.10515,-0.86204 0.28826,0.28826 -0.98933,1.72636 -2.1249,2.39185 -0.63543,0.37238 -1.85573,0.93627 -2.71178,1.25309 -0.85606,0.31681 -1.87251,0.7973 -2.25877,1.06775 -0.38627,0.27045 -0.8395,0.49173 -1.00718,0.49173 -0.16768,0 -1.22086,0.46884 -2.3404,1.04187 -1.11955,0.57303 -2.39272,1.12527 -2.82929,1.22721 -0.43656,0.10193 -0.90777,0.25071 -1.04714,0.33062 -0.13936,0.0799 -0.51219,0.17288 -0.82849,0.20661 -0.31631,0.0337 -1.03572,0.29217 -1.59869,0.57433 -1.51701,0.76032 -2.45991,0.92981 -2.96713,0.53336 -0.3912,-0.30576 -0.39912,-0.29291 -0.0746,0.1209 0.32827,0.41857 0.28761,0.46302 -0.42354,0.46302 -0.43266,0 -1.13185,0.10981 -1.55375,0.24403 -1.06494,0.33878 -4.33896,0.53797 -4.33896,0.26398 z m 2.21306,-3.55297 c 0.41681,-0.21704 1.10142,-0.39462 1.52135,-0.39462 0.41993,0 0.76351,-0.13295 0.76351,-0.29545 0,-0.16249 0.21776,-0.23849 0.48391,-0.16889 0.26615,0.0696 0.70563,-0.0356 0.97661,-0.23373 0.27099,-0.19815 0.71984,-0.36027 0.99746,-0.36027 0.27761,0 0.87993,-0.17583 1.33849,-0.39073 0.76416,-0.35813 4.78631,-1.72593 5.07524,-1.72593 0.0683,0 0.12412,0.18528 0.12412,0.41175 0,0.48935 -1.8122,1.34308 -3.38468,1.59453 -0.61228,0.0979 -1.11324,0.28186 -1.11324,0.40878 0,0.12692 -0.28311,0.23077 -0.62914,0.23077 -0.34603,0 -1.05111,0.17631 -1.56685,0.3918 -0.98598,0.41197 -2.17573,0.6473 -4.15401,0.82168 l -1.19062,0.10494 z m 2.37769,-3.10431 c -0.24877,-0.40251 0.86354,-1.13874 1.83193,-1.21253 0.46238,-0.0352 1.08342,-0.22309 1.38008,-0.41747 0.29666,-0.19438 0.95435,-0.44231 1.46154,-0.55096 0.50719,-0.10865 1.06761,-0.31463 1.24539,-0.45774 0.45661,-0.36758 2.16822,-0.72224 2.31777,-0.48026 0.33288,0.53861 -2.40728,1.93316 -4.41896,2.24894 -0.39579,0.0621 -0.9883,0.25676 -1.31669,0.4325 -0.94492,0.50571 -2.31121,0.74472 -2.50106,0.43752 z m 10.50116,-1.2599 c 0.64898,-0.43703 1.77528,-1.21096 2.50288,-1.71986 0.72761,-0.5089 1.91823,-1.21602 2.64584,-1.57138 1.69042,-0.82559 2.34836,-1.36012 2.12297,-1.7248 -0.23034,-0.3727 0.8395,-1.25845 1.77963,-1.4734 0.40018,-0.0915 0.72761,-0.2729 0.72761,-0.40312 0,-0.31971 1.43693,-1.0441 2.07113,-1.0441 0.28045,0 0.64738,-0.16565 0.81541,-0.36812 0.16803,-0.20246 0.83468,-0.44746 1.48144,-0.54445 0.64676,-0.097 1.24646,-0.29047 1.33267,-0.42995 0.0862,-0.13949 0.25935,-0.1902 0.38476,-0.11269 0.12541,0.0775 0.30281,0.0199 0.39421,-0.12798 0.0914,-0.14789 0.43164,-0.2689 0.75609,-0.2689 0.32444,0 1.05922,-0.23927 1.63283,-0.53172 0.57362,-0.29244 1.52152,-0.58324 2.10647,-0.64621 1.77981,-0.19162 2.61471,-0.35581 3.44478,-0.67747 0.43656,-0.16917 1.62719,-0.34934 2.64583,-0.40037 1.01865,-0.051 2.37266,-0.2786 3.00892,-0.50569 0.63626,-0.22709 1.96838,-0.47426 2.96026,-0.54927 0.99189,-0.075 2.41822,-0.25296 3.16963,-0.39546 0.75141,-0.1425 1.67592,-0.18136 2.05447,-0.0864 0.37854,0.095 1.22798,0.18353 1.88763,0.1967 0.84836,0.017 1.22199,0.14144 1.27666,0.42538 0.0653,0.33905 -0.38625,0.40344 -2.9068,0.41454 -2.76463,0.0122 -7.29831,0.63205 -8.54035,1.16772 -0.29104,0.12552 -1.36261,0.29671 -2.38125,0.38042 -3.3277,0.27345 -4.20801,0.41373 -6.08542,0.96976 -1.01865,0.30169 -2.68552,0.79514 -3.70417,1.09656 -1.01864,0.30141 -1.9821,0.64723 -2.14101,0.76849 -0.15891,0.12126 -0.3562,0.15319 -0.43843,0.071 -0.0822,-0.0822 -0.48799,0.0209 -0.9017,0.22909 -0.4137,0.20823 -1.14605,0.45354 -1.62744,0.54513 -0.98519,0.18746 -1.48442,0.59492 -1.74856,1.42716 -0.14633,0.46103 -2.93744,2.52761 -3.99077,2.95482 -0.14552,0.059 -0.63301,0.38644 -1.08331,0.7276 -0.4503,0.34116 -0.9873,0.6203 -1.19333,0.6203 -0.20603,0 -0.70809,0.30922 -1.11569,0.68717 -0.73047,0.67733 -3.17012,1.69408 -4.06489,1.69408 -0.27552,0 0.0127,-0.3176 0.721,-0.79459 z m 12.57907,-2.55074 c -0.0757,-0.19736 -0.006,-0.35884 0.15574,-0.35884 0.1614,0 0.78274,-0.22343 1.38076,-0.4965 1.23028,-0.56179 3.29207,-1.091 4.2505,-1.091 0.35312,0 0.71862,-0.12391 0.81222,-0.27535 0.0936,-0.15144 0.37736,-0.20958 0.63059,-0.12921 0.25322,0.0804 1.39947,-0.15191 2.54721,-0.51619 1.14775,-0.36427 2.98437,-0.7375 4.08138,-0.82939 1.09702,-0.0919 3.00661,-0.31516 4.24354,-0.49614 2.22972,-0.32624 2.64583,-0.30803 2.64583,0.11578 0,0.20761 -1.52197,0.63009 -2.38125,0.66101 -0.21828,0.008 -0.5236,0.0969 -0.6785,0.19799 -0.15489,0.10103 -0.86927,0.21122 -1.5875,0.24486 -0.71823,0.0336 -1.56274,0.22532 -1.87668,0.42598 -0.38676,0.24719 -0.6266,0.27457 -0.74382,0.0849 -0.18304,-0.29616 -0.3115,-0.27765 -3.84475,0.554 -3.02792,0.71271 -4.26382,1.03937 -4.89479,1.29374 -0.29104,0.11733 -0.94588,0.28143 -1.45521,0.36466 -0.50932,0.0832 -1.42588,0.2542 -2.03681,0.37994 -0.85292,0.17553 -1.14273,0.1453 -1.24846,-0.13024 z m -12.56927,-0.2019 c -0.20402,-0.24583 -0.12022,-0.47535 0.31357,-0.85883 0.77976,-0.6893 2.09259,-1.51246 2.52172,-1.58114 0.92012,-0.14726 3.92532,-1.96745 5.295,-3.20708 0.74906,-0.67793 1.63884,-0.78731 1.63884,-0.20147 0,0.45118 -3.00798,2.72716 -3.90261,2.9529 -0.32742,0.0826 -0.59531,0.2428 -0.59531,0.35597 0,0.11316 -0.44649,0.41382 -0.99219,0.66813 -0.5457,0.2543 -1.66908,0.85492 -2.49638,1.3347 -1.18235,0.68567 -1.56378,0.80053 -1.78264,0.53682 z m 2.09621,-3.81836 c 0,-0.15315 0.28045,-0.43378 0.62322,-0.62362 1.89828,-1.05134 3.61011,-2.13739 3.61011,-2.29038 0,-0.0962 0.49799,-0.33033 1.10663,-0.52028 1.16909,-0.36488 2.72019,-1.33651 2.49426,-1.56244 -0.0736,-0.0736 0.48513,-0.59321 1.24154,-1.15478 0.7564,-0.56157 1.65329,-1.2623 1.99307,-1.55718 0.64556,-0.56025 1.25254,-0.72919 0.96847,-0.26956 -0.20196,0.32678 1.21425,-0.2496 1.5897,-0.64699 0.14604,-0.15458 0.4437,-0.32009 0.66146,-0.36779 0.71938,-0.15759 2.03541,-0.85746 2.59808,-1.38167 0.30461,-0.28379 0.78703,-0.51597 1.07204,-0.51597 0.28501,0 1.89747,-0.71434 3.58323,-1.58741 1.68577,-0.87307 3.15419,-1.56246 3.26317,-1.53198 0.10898,0.0305 0.61486,-0.14006 1.12419,-0.379 0.50932,-0.23893 1.1543,-0.47227 1.43328,-0.51854 0.27898,-0.0463 0.5626,-0.25037 0.63027,-0.45357 0.1786,-0.53633 -2.36003,-0.16156 -3.4636,0.51133 -0.4669,0.28468 -1.1168,0.51805 -1.44422,0.51859 -0.32743,5.5e-4 -0.59532,0.13279 -0.59532,0.29388 0,0.16109 -0.17859,0.22436 -0.39687,0.1406 -0.21828,-0.0838 -0.39688,-0.0317 -0.39688,0.11558 0,0.14733 -0.14883,0.24076 -0.33073,0.2076 -0.42687,-0.0778 -1.93594,0.65395 -3.08183,1.49438 -0.49447,0.36265 -1.19983,0.65937 -1.56748,0.65937 H 87.2175 l 0.62061,-0.66061 c 0.34133,-0.36333 1.70154,-1.21185 3.02268,-1.88561 2.63136,-1.34194 3.85729,-1.78818 3.85729,-1.40406 0,0.4645 0.46745,0.2461 0.60583,-0.28305 0.0805,-0.30779 0.36089,-0.52917 0.67026,-0.52917 0.29254,0 0.57158,-0.11728 0.62009,-0.26063 0.0903,-0.26678 0.87896,-0.47489 4.58611,-1.2101 1.16416,-0.23088 2.71198,-0.71066 3.43958,-1.06617 1.4743,-0.72034 1.99327,-0.78796 2.46063,-0.3206 0.24694,0.24694 0.3175,0.23172 0.3175,-0.0685 0,-0.30829 2.5262,-1.46645 3.77031,-1.72854 0.10914,-0.023 0.2282,-0.0719 0.26458,-0.10865 0.0364,-0.0368 0.30427,-0.0953 0.59532,-0.13015 0.9426,-0.11278 5.01823,-1.25993 5.32427,-1.4986 0.16346,-0.12747 0.49088,-0.15744 0.72761,-0.0666 0.23672,0.0908 0.43041,0.0505 0.43041,-0.0897 0,-0.4787 8.4922,-1.19018 14.02291,-1.17485 4.80395,0.0133 4.96634,0.0273 5.40303,0.46396 0.22756,0.22756 0.54413,0.33316 0.70348,0.23468 0.15936,-0.0985 1.41043,0.0947 2.78016,0.42927 1.95962,0.47868 2.49042,0.70669 2.49042,1.06977 0,0.39941 -0.11557,0.42525 -0.8599,0.19225 -2.07061,-0.64819 -4.39244,-0.96556 -6.01927,-0.82277 -0.94588,0.083 -2.43417,0.13343 -3.30729,0.11203 -0.87313,-0.0214 -1.93943,-0.0424 -2.36958,-0.0466 -0.43014,-0.004 -0.88785,-0.15362 -1.01714,-0.33201 -0.16087,-0.22197 -0.18925,-0.18132 -0.0899,0.12876 0.12676,0.39571 -0.0796,0.45607 -1.62868,0.47642 -0.97561,0.0128 -2.52126,0.0339 -3.43477,0.047 -1.62113,0.0231 -2.31064,0.33274 -1.65005,0.74102 0.42937,0.26536 6.59988,0.24609 6.76503,-0.0211 0.25326,-0.40978 1.94989,0.76869 1.96586,1.36547 0.002,0.0833 -0.62103,0.11097 -1.38501,0.0615 -5.19239,-0.33623 -14.93133,0.0448 -17.92552,0.7014 -0.65485,0.14359 -1.72641,0.3125 -2.38125,0.37535 -0.65485,0.0628 -1.39899,0.19807 -1.65365,0.3005 -0.30442,0.12244 -0.46441,0.0632 -0.46707,-0.17281 -0.003,-0.29899 -0.0417,-0.29971 -0.22891,-0.004 -0.18886,0.29799 -2.32077,0.819 -5.03794,1.23121 -0.35238,0.0534 -0.74525,0.28403 -0.87304,0.51238 -0.14994,0.26792 -0.60309,0.4152 -1.27754,0.4152 -0.84036,0 -1.04519,0.0959 -1.04519,0.48923 0,0.42654 0.21193,0.48588 1.65365,0.46302 0.9095,-0.0144 1.71318,-0.0857 1.78594,-0.1585 0.39089,-0.3909 1.29656,-0.7421 1.37019,-0.53134 0.0513,0.1469 0.50082,0.14906 1.1343,0.005 0.66523,-0.15081 1.16502,-0.14182 1.3655,0.0246 0.17799,0.14772 0.37948,0.16011 0.46092,0.0283 0.0796,-0.12876 0.70938,-0.25547 1.39956,-0.28158 0.69018,-0.0261 1.34823,-0.19443 1.46232,-0.37405 0.18985,-0.29889 0.32319,-0.0823 0.24687,0.40102 -0.0501,0.31733 0.44359,0.22887 0.55291,-0.0991 0.0679,-0.20365 1.3894,-0.29495 4.18923,-0.2894 8.7582,0.0173 10.33778,0.1608 9.88248,0.89748 -0.20044,0.32432 -3.56748,0.20469 -4.02664,-0.14307 -0.2155,-0.16322 -0.41967,-0.17024 -0.52916,-0.0182 -0.2154,0.29913 -6.65282,0.31956 -7.12876,0.0226 -0.18475,-0.11525 -0.72053,-0.0868 -1.19062,0.0632 -0.4701,0.15003 -1.86676,0.33264 -3.10369,0.40581 -1.23692,0.0732 -2.24895,0.15266 -2.24895,0.17667 0,0.0531 -0.57114,0.12867 -2.64584,0.35018 -0.87312,0.0932 -2.00422,0.27904 -2.51354,0.41294 -0.50932,0.1339 -1.75948,0.44791 -2.77813,0.6978 -1.01864,0.24988 -2.17316,0.61312 -2.5656,0.80719 -0.39243,0.19408 -0.94057,0.38751 -1.21808,0.42987 -0.27751,0.0423 -0.81544,0.28069 -1.1954,0.52965 -0.37996,0.24896 -0.81783,0.45266 -0.97304,0.45266 -0.1552,0 -0.34948,0.17535 -0.43173,0.38967 -0.0822,0.21433 -0.55475,0.4657 -1.05003,0.55862 -0.49527,0.0929 -0.90049,0.24746 -0.90049,0.34345 0,0.096 -0.56555,0.46969 -1.25677,0.83045 -0.69123,0.36076 -1.29646,0.74523 -1.34497,0.85437 -0.0485,0.10914 -0.28663,0.19888 -0.52916,0.19942 -0.24254,5.5e-4 -0.83081,0.23867 -1.30727,0.52917 -0.47646,0.2905 -1.03834,0.52818 -1.24862,0.52818 -0.50948,0 -2.39822,0.99533 -2.79425,1.47253 -0.17325,0.20875 -0.53855,0.37955 -0.81177,0.37955 -0.27323,0 -0.49677,0.1786 -0.49677,0.39688 0,0.21828 0.17859,0.39687 0.39687,0.39687 0.21828,0 0.39688,-0.1 0.39688,-0.22223 0,-0.12223 0.50601,-0.385 1.12447,-0.58394 0.61847,-0.19893 1.7127,-0.65236 2.43163,-1.00761 0.71893,-0.35526 1.67143,-0.74018 2.11666,-0.85538 0.44524,-0.11521 1.34531,-0.34585 2.00015,-0.51253 0.65485,-0.16668 1.42875,-0.40448 1.71979,-0.52843 0.29105,-0.12395 0.82683,-0.30185 1.19063,-0.39533 0.3638,-0.0935 1.04699,-0.344 1.51821,-0.55671 0.47121,-0.21272 1.24511,-0.42841 1.71979,-0.4793 0.47467,-0.0509 1.57742,-0.29526 2.45054,-0.54303 0.87313,-0.24776 2.42094,-0.49631 3.43958,-0.55232 1.01865,-0.056 2.14974,-0.16633 2.51355,-0.24514 1.16207,-0.25174 2.42386,-0.38367 6.35,-0.66397 2.11005,-0.15064 4.04481,-0.31969 4.29948,-0.37567 0.25466,-0.056 0.46302,0.006 0.46302,0.13803 0,0.1319 0.32742,0.24164 0.7276,0.24386 0.56699,0.003 0.64,0.0607 0.33073,0.26054 -0.21828,0.14106 -0.83633,0.2583 -1.37345,0.26053 -0.53711,0.002 -1.05373,0.12889 -1.14803,0.28148 -0.11796,0.19086 -0.28385,0.18416 -0.53164,-0.0215 -0.26801,-0.22243 -0.74539,-0.21895 -1.86562,0.0136 -0.82799,0.17189 -1.93523,0.30844 -2.46054,0.30344 -0.5253,-0.005 -1.43134,0.11922 -2.01343,0.27606 -0.58208,0.15683 -1.59411,0.31995 -2.24896,0.3625 -3.22246,0.20935 -4.55532,0.46877 -9.55218,1.85923 -6.72203,1.8705 -7.32592,2.04996 -8.30719,2.46856 -1.3399,0.57158 -4.47267,1.65943 -4.93887,1.715 -0.24252,0.0289 -0.59971,0.17449 -0.79375,0.32352 -0.54942,0.42196 -2.0731,0.9765 -2.23586,0.81373 -0.15623,-0.15622 -1.73199,0.31773 -1.9534,0.58755 -0.35638,0.43428 -1.63284,1.07823 -1.85956,0.93812 -0.14141,-0.0874 -0.25711,-0.0243 -0.25711,0.14019 0,0.54269 -0.6523,0.9648 -1.7662,1.14292 -0.60387,0.0966 -1.28695,0.2481 -1.51796,0.33674 -0.231,0.0886 -0.42,0.0359 -0.42,-0.11728 z m 48.39888,-20.85423 c 2.87941,-0.14478 4.54727,-0.56812 2.53341,-0.64305 -0.58208,-0.0217 -1.17739,-0.0141 -1.32291,0.0167 -1.07556,0.22801 -2.04516,0.15603 -2.16676,-0.16084 -0.22771,-0.59342 -0.66215,-0.4094 -0.46914,0.19872 0.12938,0.40763 0.0801,0.52487 -0.18061,0.42994 -0.19717,-0.0718 -0.32756,-0.26798 -0.28975,-0.43598 0.0417,-0.18527 -0.18417,-0.13974 -0.57403,0.11571 -0.35353,0.23164 -0.80118,0.39963 -0.99479,0.37333 -0.70398,-0.0957 -1.04083,0.0211 -0.86792,0.30088 0.10066,0.16289 0.46902,0.21267 0.85563,0.11564 0.37338,-0.0937 1.93797,-0.23369 3.47687,-0.31106 z m 7.16362,-1.79478 c 0,-0.0642 -0.11906,-0.19026 -0.26458,-0.2802 -0.14552,-0.0899 -0.26459,-0.0374 -0.26459,0.11668 0,0.15411 0.11907,0.2802 0.26459,0.2802 0.14552,0 0.26458,-0.0525 0.26458,-0.11668 z m -42.20104,13.08126 c 0.0899,-0.14552 0.21602,-0.26458 0.2802,-0.26458 0.0642,0 0.11667,0.11906 0.11667,0.26458 0,0.14552 -0.12609,0.26459 -0.2802,0.26459 -0.15411,0 -0.20661,-0.11907 -0.11667,-0.26459 z m 75.53736,-6.28385 c -6.6e-4,-0.10914 -0.43387,-0.22089 -0.96271,-0.24833 -0.52883,-0.0274 -1.08789,-0.17627 -1.24235,-0.33073 -0.15446,-0.15446 -0.55468,-0.28084 -0.88938,-0.28084 -0.3347,0 -0.60854,-0.11532 -0.60854,-0.25628 0,-0.14095 -0.15807,-0.19562 -0.35125,-0.12149 -0.54952,0.21087 -1.76542,-0.35674 -1.76542,-0.82413 0,-0.31653 0.148,-0.37422 0.59531,-0.23206 0.32742,0.10405 0.77391,0.20362 0.99219,0.22126 0.21828,0.0176 0.66476,0.18284 0.99219,0.36711 0.32742,0.18427 0.59531,0.26713 0.59531,0.18413 0,-0.083 0.26542,-0.009 0.58982,0.16475 0.32439,0.17362 0.93688,0.35607 1.36108,0.40546 0.87562,0.10196 1.55372,0.56571 1.33786,0.91498 -0.17639,0.28542 -0.64247,0.31159 -0.64411,0.0362 z m -8.04618,-3.20485 c -0.0776,-0.12556 -0.7097,-0.38216 -1.40468,-0.57023 -0.69497,-0.18806 -1.39988,-0.44669 -1.56646,-0.57474 -0.16659,-0.12805 -0.40471,-0.20973 -0.52917,-0.18152 -0.12446,0.0282 -0.40488,-0.0205 -0.62316,-0.10818 -0.21828,-0.0877 -1.05172,-0.25655 -1.85208,-0.37522 -0.81276,-0.1205 -1.39681,-0.33147 -1.32292,-0.47785 0.0728,-0.14416 0.25135,-0.26525 0.39687,-0.26909 0.14552,-0.004 0.38596,-0.0832 0.53432,-0.17635 0.14835,-0.0932 0.90887,0.0557 1.69006,0.33083 0.78118,0.2751 1.50137,0.4501 1.60041,0.38889 0.25863,-0.15984 2.67168,1.04283 2.92957,1.4601 0.17418,0.28183 0.29509,0.28575 0.61536,0.0199 0.32879,-0.27287 0.44978,-0.23514 0.69093,0.21546 0.25881,0.48358 0.21719,0.54625 -0.36281,0.54625 -0.36033,0 -0.71864,-0.10274 -0.79624,-0.22829 z"
       id="path3" />
  </g>
</svg>
