<?xml version="1.0" encoding="UTF-8" standalone="no"?>
<!-- Created with Inkscape (http://www.inkscape.org/) -->

<svg
   width="102.25636mm"
   height="49.457169mm"
   viewBox="0 0 102.25635 49.457171"
   version="1.1"
   id="svg1"
   inkscape:version="1.4.1-rc (06eac75fbf, 2025-03-29)"
   sodipodi:docname="mount5.svg"
   xmlns:inkscape="http://www.inkscape.org/namespaces/inkscape"
   xmlns:sodipodi="http://sodipodi.sourceforge.net/DTD/sodipodi-0.dtd"
   xmlns="http://www.w3.org/2000/svg"
   xmlns:svg="http://www.w3.org/2000/svg">
  <sodipodi:namedview
     id="namedview1"
     pagecolor="#ffffff"
     bordercolor="#000000"
     borderopacity="0.25"
     inkscape:showpageshadow="2"
     inkscape:pageopacity="0.0"
     inkscape:pagecheckerboard="0"
     inkscape:deskcolor="#d1d1d1"
     inkscape:document-units="mm"
     inkscape:zoom="0.72248176"
     inkscape:cx="193.77652"
     inkscape:cy="93.427964"
     inkscape:window-width="1850"
     inkscape:window-height="1016"
     inkscape:window-x="0"
     inkscape:window-y="0"
     inkscape:window-maximized="1"
     inkscape:current-layer="layer1" />
  <defs
     id="defs1" />
  <g
     inkscape:label="Layer 1"
     inkscape:groupmode="layer"
     id="layer1"
     transform="translate(-54.50415,-123.82541)">
    <path
       style="fill:#000000"
       d="m 56.75308,172.7784 c 0,-0.63537 2.10954,-2.84856 3.61578,-3.79344 0.60623,-0.38029 1.17881,-0.81533 1.27239,-0.96675 0.19908,-0.32212 1.19725,-0.37459 1.19725,-0.0629 0,0.40437 -2.16348,2.39538 -3.07067,2.82587 -0.5011,0.23779 -1.22164,0.90162 -1.6012,1.47518 -0.74092,1.11959 -1.41355,1.36802 -1.41355,0.52207 z m 5.50333,-1.11966 c 0.17463,-0.17462 0.3175,-0.51346 0.3175,-0.75297 0,-0.23951 0.72569,-1.29976 1.61264,-2.35611 0.88695,-1.05635 1.51203,-2.0029 1.38907,-2.10343 -0.55017,-0.44981 -2.29032,-0.84394 -3.01925,-0.68384 -0.46402,0.10191 -0.94768,0.0509 -1.15589,-0.12188 -0.27074,-0.2247 -0.46157,-0.19355 -0.78291,0.12779 -0.5331,0.5331 -0.54507,1.07814 -0.028,1.27654 0.21828,0.0838 0.39687,0.39042 0.39687,0.68146 0,0.36167 -0.12562,0.48096 -0.39687,0.37687 -0.21828,-0.0838 -0.39688,-0.31815 -0.39688,-0.52086 0,-0.20271 -0.11906,-0.36857 -0.26458,-0.36857 -0.14552,0 -0.26458,0.10195 -0.26458,0.22655 0,0.12459 -0.92274,0.30743 -2.05052,0.4063 -1.12779,0.0989 -2.28865,0.20529 -2.57969,0.23648 -0.31285,0.0335 -0.52917,-0.10077 -0.52917,-0.32852 0,-0.42565 1.64225,-0.98655 3.35619,-1.14629 0.90425,-0.0843 1.12664,-0.2275 1.41384,-0.91053 0.27617,-0.65681 0.54611,-0.84521 1.42341,-0.99343 0.65436,-0.11055 1.0826,-0.32701 1.0826,-0.54721 0,-0.20037 0.22885,-0.48678 0.50854,-0.63647 0.27969,-0.14969 0.70208,-0.46571 0.93864,-0.70227 0.60282,-0.60281 0.82612,-0.24576 0.39023,0.62396 -0.20087,0.4008 -0.40873,0.81802 -0.4619,0.92716 -0.0532,0.10914 0.24413,0.19844 0.66068,0.19844 0.51213,0 1.07615,0.30963 1.74184,0.95622 0.54146,0.52592 0.98447,0.82912 0.98447,0.67377 0,-0.33792 2.33912,-2.68832 2.67542,-2.68832 0.12925,0 0.235,0.12073 0.235,0.26829 0,0.42128 -1.16097,2.10584 -1.45521,2.11149 -0.14552,0.003 -0.53038,0.39122 -0.85525,0.86317 -1.13647,1.65099 -4.52118,5.22371 -4.94882,5.22371 -0.14019,0 -0.11201,-0.14287 0.0626,-0.3175 z m 10.45522,-1.07156 c 0.5405,-1.27542 0.89656,-1.78208 1.25361,-1.78387 0.46307,-0.002 1.94014,-1.4772 2.18814,-2.18488 0.0892,-0.25466 0.28506,-0.46302 0.43515,-0.46302 0.15009,0 0.27288,-0.12834 0.27288,-0.28519 0,-0.15686 0.9525,-1.45012 2.11667,-2.87391 1.16417,-1.4238 2.11667,-2.72321 2.11667,-2.88757 0,-0.16437 0.23812,-0.44756 0.52916,-0.62932 0.29105,-0.18175 0.52917,-0.42439 0.52917,-0.53919 0,-0.1739 1.35371,-2.04116 2.39386,-3.30201 0.60028,-0.72764 -0.32738,-0.29763 -1.13066,0.52411 -0.57111,0.58424 -1.035,0.82871 -1.46545,0.77231 -0.45511,-0.0596 -0.66977,0.0702 -0.77381,0.46807 -0.0792,0.30284 -0.24917,0.55062 -0.37771,0.55062 -0.12855,0 -0.23373,0.18125 -0.23373,0.40278 0,0.22154 -0.47625,0.91946 -1.05833,1.55095 -0.58209,0.63148 -1.05834,1.35594 -1.05834,1.60989 0,0.3086 -0.13618,0.40948 -0.41061,0.30417 -0.23506,-0.0902 -0.34163,-0.0459 -0.24926,0.10352 0.18771,0.30372 -0.5019,1.3933 -0.73458,1.16063 -0.086,-0.086 -0.40571,0.391 -0.71048,1.06001 -0.30477,0.66901 -0.72974,1.21638 -0.94439,1.21638 -0.21464,0 -0.39026,0.17034 -0.39026,0.37853 0,0.57182 -1.12931,2.22674 -1.64011,2.40345 -0.24722,0.0855 -0.5212,0.38145 -0.60885,0.6576 -0.0876,0.27616 -0.3853,0.57381 -0.66146,0.66146 -0.27615,0.0876 -0.57574,0.3914 -0.66575,0.67499 -0.13576,0.42774 -1.18633,0.77896 -1.18633,0.39661 0,-0.2492 1.64961,-2.54909 2.33069,-3.24947 0.39181,-0.4029 1.00996,-1.13377 1.37366,-1.62415 0.3637,-0.49039 1.14762,-1.50635 1.74204,-2.2577 0.59442,-0.75135 1.30113,-1.71935 1.57046,-2.1511 0.26933,-0.43176 0.7337,-0.98523 1.03195,-1.22994 0.29824,-0.24471 0.46493,-0.52224 0.37043,-0.61675 -0.29454,-0.29454 -1.11642,0.30514 -2.42462,1.76912 -0.69259,0.77507 -1.70768,1.88548 -2.25574,2.46756 -0.54806,0.58208 -1.074,1.26669 -1.16875,1.52135 -0.0947,0.25466 -0.37623,0.46302 -0.62552,0.46302 -0.47119,0 -4.05773,3.63001 -4.05998,4.10918 -7.1e-4,0.15 -0.35796,0.40736 -0.79389,0.5719 -1.1787,0.44491 -1.29223,-0.0908 -0.23488,-1.10834 1.18818,-1.14345 2.08177,-2.17691 3.3566,-3.88204 0.57999,-0.77577 1.54337,-1.9119 2.14084,-2.52474 0.59746,-0.61285 1.08629,-1.23792 1.08629,-1.38907 0,-0.15114 0.11907,-0.2748 0.26459,-0.2748 0.47425,0 0.2783,-0.46387 -0.25486,-0.60329 -0.28569,-0.0747 -0.65969,0.0332 -0.8311,0.2397 -0.17142,0.20654 -0.52296,0.30847 -0.78121,0.22651 -0.64892,-0.20596 -0.84511,0.23094 -0.4717,1.05047 0.47355,1.03934 -0.0511,1.42093 -1.01419,0.73757 -1.01508,-0.7203 -2.90581,-1.33042 -3.6701,-1.18432 -0.34452,0.0659 -0.81299,0.40453 -1.04105,0.75259 -0.43278,0.6605 -1.46726,0.87575 -1.45199,0.30212 0.0209,-0.78661 1.83709,-2.2491 2.37792,-1.91485 0.14251,0.0881 0.25911,0.0341 0.25911,-0.12006 0,-0.30902 1.12755,-0.38736 1.4165,-0.0984 0.32744,0.32743 1.35321,0.29062 1.75899,-0.0631 0.49616,-0.43255 1.78308,-0.95753 2.6129,-1.06592 0.34596,-0.0452 0.88174,-0.30594 1.19063,-0.57945 0.30888,-0.27351 1.09739,-0.64881 1.75223,-0.83399 0.65484,-0.18519 1.40383,-0.44819 1.66441,-0.58446 0.26058,-0.13627 0.57983,-0.18222 0.70943,-0.10212 0.2668,0.16489 2.1567,-0.64955 2.44524,-1.05375 0.10388,-0.14553 0.0444,-0.39948 -0.13229,-0.56435 -0.40489,-0.3779 -2.79401,-0.6416 -2.98679,-0.32967 -0.20728,0.33539 -1.62157,0.28602 -2.20267,-0.0769 -0.41286,-0.25783 -0.70873,-0.1682 -1.77404,0.53743 -0.7032,0.46578 -1.46088,0.81217 -1.68373,0.76976 -0.53383,-0.10159 -0.70982,-1.26233 -0.1914,-1.26233 0.21058,0 0.522,-0.16762 0.69203,-0.3725 0.47822,-0.57622 2.20192,-1.32732 2.8645,-1.24821 0.81282,0.0971 0.75348,-0.44891 -0.0834,-0.76709 -0.90191,-0.3429 -3.59698,-0.32899 -4.52962,0.0234 -0.90282,0.34111 -2.05129,1.40275 -2.76512,2.55606 l -0.52801,0.85311 0.82384,1.19741 c 0.45312,0.65858 0.93719,1.19742 1.07572,1.19742 0.13853,0 0.25187,0.17859 0.25187,0.39687 0,0.21828 -0.0611,0.39688 -0.13588,0.39688 -0.21321,0 -1.26128,-0.62692 -1.65872,-0.99219 -0.19793,-0.1819 -0.51607,-0.33073 -0.70698,-0.33073 -0.19092,0 -0.41891,-0.26789 -0.50666,-0.59531 -0.31079,-1.15973 -0.15866,-2.01954 0.4947,-2.79602 0.3638,-0.43236 0.66146,-0.905 0.66146,-1.05033 0,-0.14532 0.17859,-0.33276 0.39687,-0.41652 0.21828,-0.0838 0.39688,-0.32106 0.39688,-0.52733 0,-0.45443 1.65759,-1.2871 2.17045,-1.0903 0.20166,0.0774 0.88004,-0.0404 1.50752,-0.26182 0.62748,-0.22139 1.27702,-0.31586 1.44343,-0.20994 0.16641,0.10593 0.36209,0.20412 0.43485,0.21822 0.0728,0.0141 0.47768,0.12263 0.89983,0.24119 0.46334,0.13013 0.94253,0.10628 1.20908,-0.0602 0.62492,-0.39027 2.87702,-0.1855 3.42623,0.31153 0.25351,0.22942 0.54056,0.3375 0.63789,0.24017 0.0973,-0.0973 0.17697,0.0192 0.17697,0.25896 0,0.25762 0.29762,0.50605 0.7276,0.60735 0.40018,0.0943 1.02526,0.43884 1.38906,0.76569 0.77841,0.69934 2.22552,1.06118 2.01129,0.5029 -0.0748,-0.19506 -0.009,-0.43294 0.14544,-0.52864 0.16792,-0.10378 0.21653,-0.58046 0.12047,-1.18119 -0.24327,-1.52133 0.17609,-2.36593 1.17474,-2.36593 0.74472,0 0.7814,-0.0378 0.40342,-0.41577 -0.52795,-0.52795 -0.52771,-1.022 7.6e-4,-1.55047 0.36597,-0.36597 0.36843,-0.43499 0.0202,-0.5686 -0.24804,-0.0952 -0.36571,-0.41659 -0.31454,-0.85914 0.045,-0.38888 -0.0994,-0.91294 -0.32084,-1.16457 -0.36077,-0.40997 -0.35977,-0.47393 0.01,-0.61568 0.22671,-0.087 0.65181,-0.0299 0.94466,0.12677 0.85906,0.45976 1.68326,0.36397 1.5321,-0.17806 -0.071,-0.25466 -0.2042,-0.72484 -0.29596,-1.04483 -0.0917,-0.32 -0.30956,-0.54072 -0.48401,-0.4905 -0.17445,0.0502 -1.16144,0.23826 -2.19331,0.41787 -1.25133,0.2178 -1.97375,0.48287 -2.16927,0.79594 -0.24703,0.39556 -0.1862,0.49623 0.38673,0.64003 0.96482,0.24215 1.56327,0.90025 1.25831,1.38371 -0.26577,0.42132 -0.3383,0.42932 -1.65431,0.18244 -0.49452,-0.0928 -1.00153,-0.0432 -1.15802,0.11334 -0.40779,0.40779 -0.0305,1.57062 0.72178,2.22475 0.80831,0.70282 0.86984,1.53194 0.11368,1.53194 -0.29742,0 -0.51057,-0.14883 -0.47366,-0.33073 0.10559,-0.52038 -0.54625,-1.5142 -0.90784,-1.38414 -0.17968,0.0646 -0.53646,-0.30461 -0.79284,-0.82055 -0.40799,-0.82102 -0.41927,-1.00501 -0.0904,-1.47454 0.20667,-0.29505 0.63433,-0.71757 0.95036,-0.93893 0.40091,-0.28081 0.53063,-0.5777 0.42913,-0.98213 -0.25878,-1.03105 1.06922,-1.85479 3.65655,-2.26812 1.99986,-0.31948 3.5903,-0.13193 3.5903,0.42337 0,0.20209 0.0976,0.36743 0.21693,0.36743 0.45472,0 1.82377,1.47532 1.75795,1.89441 -0.0388,0.24697 0.15084,0.49668 0.43328,0.57054 0.27624,0.0722 0.50225,0.29245 0.50225,0.48935 0,0.1969 0.23117,0.50236 0.5137,0.6788 0.43266,0.27021 0.53806,0.24402 0.66821,-0.16604 0.085,-0.26777 0.38961,-0.6996 0.67693,-0.95963 0.28733,-0.26002 0.52241,-0.67399 0.52241,-0.91993 0,-0.24593 0.24796,-0.67154 0.55101,-0.94581 0.30306,-0.27426 0.70578,-0.85826 0.89494,-1.29777 0.18916,-0.43952 0.59368,-1.05949 0.89892,-1.37771 0.30525,-0.31822 0.78273,-1.17794 1.06108,-1.91049 0.27835,-0.73256 0.86014,-1.78188 1.29287,-2.33184 0.43273,-0.54995 0.87879,-1.29477 0.99125,-1.65515 0.29977,-0.96065 1.27298,-2.38042 1.63429,-2.3842 0.1721,-0.002 0.3825,-0.22257 0.46757,-0.49059 0.19316,-0.6086 1.46849,-1.8339 1.46849,-1.41089 0,0.17089 0.12609,0.3107 0.2802,0.3107 0.15411,0 0.20755,-0.11755 0.11875,-0.26123 -0.0888,-0.14367 0.31156,-0.73899 0.88968,-1.32291 0.95227,-0.96184 1.1775,-1.06169 2.39479,-1.06169 1.59596,0 1.40747,0.0206 2.39354,-0.26216 0.47202,-0.13537 0.8568,-0.12815 0.94699,0.0178 0.0903,0.14617 0.38223,0.12255 0.72006,-0.0582 0.51285,-0.27447 0.83763,-0.34828 2.01239,-0.45735 0.34007,-0.0316 2.6383,-2.23857 3.12206,-2.99813 0.12013,-0.18862 0.61502,-0.5513 1.09975,-0.80596 0.93667,-0.49209 2.02916,-0.62669 1.77717,-0.21896 -0.0875,0.14165 0.25138,0.13301 0.80763,-0.0206 0.87672,-0.24207 1.04916,-0.19176 2.02178,0.58985 0.58482,0.46998 1.37212,0.88841 1.74955,0.92984 0.7092,0.0779 2.22089,1.64071 1.97377,2.04057 -0.075,0.12135 0.10442,0.2836 0.3987,0.36056 0.29428,0.077 0.69933,0.45589 0.90011,0.84208 0.83347,1.60317 1.41537,2.41871 1.72693,2.42029 0.19556,9.9e-4 0.33238,0.35311 0.33478,0.86157 0.003,0.57148 0.0791,0.74152 0.22776,0.50698 0.17994,-0.28386 0.25535,-0.27047 0.3854,0.0684 0.0889,0.23174 0.46268,0.5585 0.83057,0.72612 0.36788,0.16762 0.66888,0.46424 0.66888,0.65916 0,0.19493 0.11906,0.35441 0.26459,0.35441 0.14552,0 0.26458,0.23813 0.26458,0.52917 0,0.29104 -0.16767,0.52916 -0.37259,0.52916 -0.35976,0 -2.80241,-2.19715 -2.80241,-2.52075 0,-0.0876 -0.36375,-0.46532 -0.80833,-0.8394 -0.44596,-0.37526 -0.74621,-0.84204 -0.66976,-1.04126 0.0762,-0.1986 0.0288,-0.36109 -0.1053,-0.36109 -0.13413,0 -0.44172,-0.44648 -0.68354,-0.99218 -1.00693,-2.27231 -1.16089,-2.56134 -1.16663,-2.19009 -0.004,0.26122 -0.14175,0.19583 -0.4179,-0.19844 -0.22654,-0.32342 -0.56527,-0.58804 -0.75275,-0.58804 -0.18747,0 -0.55636,-0.23812 -0.81975,-0.52916 -0.26339,-0.29104 -0.68869,-0.52917 -0.94511,-0.52917 -0.25643,0 -0.99018,-0.22459 -1.63056,-0.4991 -1.02362,-0.43878 -1.26657,-0.4561 -2.01037,-0.14336 -0.46531,0.19566 -0.92602,0.5642 -1.02379,0.81899 -0.33832,0.88164 -2.30364,2.73389 -2.90079,2.73389 -0.32244,0 -0.65985,0.11906 -0.74979,0.26458 -0.0899,0.14552 -0.43034,0.26458 -0.75645,0.26458 -0.3261,0 -0.72617,0.13325 -0.88902,0.2961 -0.16558,0.16558 -1.28474,0.31137 -2.53882,0.33073 -1.76222,0.0272 -2.35646,0.13759 -2.77361,0.5152 -0.29198,0.26432 -0.70982,0.44291 -0.92851,0.39688 -0.2187,-0.046 -0.61731,0.16269 -0.88582,0.46383 -0.2685,0.30115 -0.69438,0.624 -0.94639,0.71746 -0.37451,0.13888 -0.44918,0.46724 -0.40876,1.79759 0.0389,1.28015 -0.0489,1.69956 -0.41108,1.96441 -0.25329,0.18522 -0.51233,0.6057 -0.57563,0.93442 -0.12612,0.65489 -1.21241,2.36827 -1.50332,2.37116 -0.10009,9.9e-4 -0.16884,0.21017 -0.15277,0.46483 0.0161,0.25466 -0.52711,1.62342 -1.20707,3.04169 -0.67996,1.41828 -1.24008,2.72796 -1.2447,2.91042 -0.005,0.18246 -0.17825,0.55606 -0.38583,0.83022 -0.20758,0.27417 -0.63783,1.34573 -0.95612,2.38125 -0.31828,1.03553 -0.65068,1.9423 -0.73865,2.01506 -0.088,0.0728 -0.50197,0.8169 -0.91999,1.65365 -0.41802,0.83674 -0.87253,1.52135 -1.01001,1.52135 -0.13749,0 -0.1744,0.23813 -0.082,0.52917 0.0924,0.29104 0.0648,0.52917 -0.0613,0.52917 -0.12609,0 -0.38387,0.42756 -0.57284,0.95014 -0.26528,0.73364 -0.45827,0.92015 -0.8469,0.81852 -0.31399,-0.0821 -0.50333,0.005 -0.50333,0.23117 0,0.19954 -0.23812,0.49024 -0.52916,0.646 -0.29104,0.15576 -0.52917,0.45169 -0.52917,0.65762 0,0.20593 -0.15133,0.46963 -0.3363,0.586 -0.18496,0.11638 -0.48007,0.53901 -0.65579,0.93919 -0.31705,0.72207 -0.94892,0.9613 -1.25044,0.47342 -0.0864,-0.1398 0.20422,-0.75298 0.64584,-1.36262 0.44162,-0.60963 0.80294,-1.22815 0.80294,-1.37448 0,-0.14633 0.29766,-0.6563 0.66146,-1.13327 0.3638,-0.47697 0.66146,-0.99423 0.66146,-1.14946 0,-0.15523 0.12576,-0.28223 0.27946,-0.28223 0.1537,0 0.52151,-0.5472 0.81735,-1.21599 0.29583,-0.66879 0.9222,-1.65105 1.39191,-2.18281 0.93944,-1.06353 1.38727,-1.95664 2.27583,-4.5387 0.32551,-0.94589 0.75586,-1.90776 0.95635,-2.1375 0.20048,-0.22974 0.36451,-0.65843 0.36451,-0.95263 0,-0.46001 1.74195,-4.19715 2.50611,-5.37654 0.27168,-0.41931 0.29389,-0.48519 0.5693,-1.68818 0.28847,-1.26 -0.48624,-0.70297 -1.0905,0.7841 -0.29075,0.71552 -0.66893,1.44951 -0.8404,1.63109 -0.17147,0.18157 -0.61258,0.966 -0.98024,1.74319 -0.36767,0.77718 -0.85269,1.56593 -1.07784,1.75278 -0.22514,0.18685 -0.40934,0.55054 -0.40934,0.80819 0,0.25766 -0.18424,0.53916 -0.40942,0.62558 -0.22519,0.0864 -0.53449,0.51586 -0.68735,0.95434 -0.15285,0.43849 -0.37141,0.79724 -0.48569,0.79724 -0.11428,0 -0.639,0.7239 -1.16605,1.60866 -0.65538,1.10018 -0.88735,1.73539 -0.73389,2.0096 0.36837,0.65825 0.0452,1.67341 -0.53281,1.67341 -0.29002,0 -0.43948,0.12047 -0.34305,0.2765 0.094,0.15208 -0.30504,0.89622 -0.88672,1.65365 -0.58168,0.75743 -1.57429,2.15105 -2.20579,3.09693 -0.73959,1.10778 -1.35483,1.7492 -1.72887,1.80243 -0.34012,0.0484 -0.52741,0.22146 -0.45209,0.41774 0.0707,0.18432 -0.17398,0.56235 -0.5438,0.84007 -0.36981,0.27772 -0.67239,0.68914 -0.67239,0.91427 0,0.22512 -0.33915,0.60966 -0.75367,0.85452 -0.41452,0.24487 -1.0396,0.86504 -1.38906,1.37816 -0.34947,0.51312 -0.72853,0.93376 -0.84236,0.93476 -0.11383,9.9e-4 -0.29583,0.24203 -0.40444,0.53563 -0.22149,0.59876 -1.22131,1.84261 -2.89432,3.60077 -0.61847,0.64994 -1.12448,1.27278 -1.12448,1.38408 0,0.31778 -1.04717,1.36049 -1.3663,1.36049 -0.51591,0 0.0103,-1.61763 0.70365,-2.163 0.36446,-0.28668 0.66265,-0.69119 0.66265,-0.89891 0,-0.20772 0.11906,-0.37767 0.26458,-0.37767 0.14552,0 0.26458,-0.16626 0.26458,-0.36947 0,-0.20321 0.38818,-0.71029 0.86262,-1.12685 0.47444,-0.41656 1.15344,-1.17304 1.50889,-1.68106 0.35545,-0.50801 1.0686,-1.35414 1.58478,-1.88028 1.90482,-1.94157 7.15621,-8.09271 7.15621,-8.38232 0,-0.13414 0.41557,-0.76666 0.92348,-1.4056 1.26186,-1.5874 1.17239,-2.13818 -0.12943,-0.79674 -0.58192,0.59963 -1.11689,1.09023 -1.18881,1.09023 -0.0719,0 -0.60784,0.20668 -1.19092,0.45929 -0.74265,0.32174 -1.06015,0.62161 -1.06015,1.00129 0,0.32164 -0.32272,0.73263 -0.79375,1.01088 -0.43656,0.25788 -0.79375,0.58121 -0.79375,0.7185 0,0.1373 -0.22375,0.47338 -0.49722,0.74685 -0.61405,0.61405 -2.67778,3.39166 -2.67778,3.60407 0,0.0853 -0.29766,0.47614 -0.66146,0.86849 -0.3638,0.39234 -0.66146,0.8634 -0.66146,1.04678 0,0.18339 -0.11103,0.33344 -0.24675,0.33344 -0.13571,0 -0.32426,0.2442 -0.41899,0.54266 -0.0947,0.29847 -0.48971,0.88653 -0.87772,1.3068 -0.38802,0.42027 -1.12221,1.24686 -1.63154,1.83687 -0.50932,0.59 -1.22369,1.41468 -1.5875,1.83262 -0.3638,0.41794 -0.88481,1.07132 -1.1578,1.45195 -0.27299,0.38063 -0.58147,0.63944 -0.68552,0.57513 -0.10406,-0.0643 -0.44981,0.23559 -0.76835,0.66644 -0.56409,0.76296 -1.82715,1.13465 -1.53811,0.45263 z m 3.81344,-11.48855 c 0.065,-0.19752 -0.0969,-0.2579 -0.44642,-0.16651 -0.776,0.20293 -0.9915,0.67195 -0.25951,0.56481 0.33217,-0.0486 0.64984,-0.22785 0.70593,-0.3983 z m 5.09884,-4.45914 c 0,-0.0764 -0.26789,-0.258 -0.59531,-0.40363 -0.32742,-0.14564 -0.99987,-0.55941 -1.49433,-0.9195 -0.49447,-0.36008 -1.18371,-0.6547 -1.53166,-0.6547 -0.61075,0 -0.61626,0.0173 -0.15932,0.49835 0.26034,0.27409 0.86029,0.5812 1.33323,0.68248 0.47294,0.10127 0.85989,0.28545 0.85989,0.40929 0,0.1935 0.26109,0.2857 1.38907,0.49052 0.10914,0.0198 0.19843,-0.0265 0.19843,-0.10281 z m 4.89221,-2.23822 c 0.0885,-0.14322 0.54202,-0.36256 1.0078,-0.48743 l 0.84687,-0.22703 -1.14231,-0.2003 c -1.27709,-0.22394 -1.23657,-0.23972 -1.48848,0.57984 -0.13376,0.43512 -0.0756,0.59531 0.21609,0.59531 0.2195,0 0.47151,-0.11718 0.56003,-0.26039 z m 3.83223,-2.10649 c 0.63223,-0.48581 0.63847,-0.52091 0.18227,-1.02501 -0.36101,-0.39891 -0.39059,-0.55042 -0.12548,-0.64259 0.19079,-0.0663 -0.0103,-0.12643 -0.44685,-0.13354 -0.43656,-0.007 -1.13384,-0.10055 -1.5495,-0.20764 -0.87433,-0.22526 -1.22131,0.1369 -1.11215,1.16078 0.0545,0.51154 0.24695,0.68743 0.83707,0.76518 0.42143,0.0555 0.80593,0.21271 0.85444,0.34929 0.13652,0.38439 0.64206,0.28535 1.3602,-0.26647 z m 0.2714,-2.6602 c 0,-0.14552 -0.16402,-0.26459 -0.36448,-0.26459 -0.20046,0 -0.5127,-0.17859 -0.69386,-0.39687 -0.41266,-0.49724 -1.08989,-0.52241 -0.9023,-0.0335 0.24947,0.6501 1.96064,1.25667 1.96064,0.69501 z m -0.31273,-1.45521 c -0.33908,-0.7442 -0.823,-0.91625 -0.55816,-0.19844 0.14283,0.38713 0.56587,0.84022 0.79907,0.85585 0.0333,0.002 -0.0751,-0.29361 -0.24091,-0.65741 z m 12.08669,-11.50938 c 0.0899,-0.14552 0.0374,-0.26458 -0.11668,-0.26458 -0.15411,0 -0.2802,0.11906 -0.2802,0.26458 0,0.14552 0.0525,0.26459 0.11668,0.26459 0.0642,0 0.19026,-0.11907 0.2802,-0.26459 z m -18.33297,35.41972 c 0.0548,-0.16446 1.45555,-1.38485 3.11272,-2.71198 1.87637,-1.50266 3.49616,-3.06174 4.29368,-4.13274 0.70435,-0.94588 1.40183,-1.86862 1.54997,-2.05052 0.14813,-0.1819 0.20362,-0.33073 0.12329,-0.33073 -0.0803,0 0.12756,-0.44648 0.46196,-0.99218 0.33441,-0.54571 0.75007,-1.31961 0.92369,-1.7198 0.17363,-0.40018 0.4373,-0.7276 0.58594,-0.7276 0.14864,0 0.27026,-0.27392 0.27026,-0.60871 0,-0.69704 0.56407,-2.03198 0.85989,-2.03506 0.10914,-0.001 0.19844,-0.27323 0.19844,-0.60465 0,-0.33142 0.19018,-0.87411 0.42263,-1.20597 0.40232,-0.57439 0.44006,-0.5804 0.78534,-0.12502 0.27168,0.35832 0.36481,0.38305 0.37112,0.0986 0.005,-0.20891 0.2748,-0.66338 0.60038,-1.00995 0.32559,-0.34657 0.59383,-0.77096 0.59611,-0.94309 0.008,-0.60774 0.78231,-2.82652 0.98635,-2.82652 0.11375,0 0.20682,-0.22206 0.20682,-0.49348 0,-0.27142 0.23845,-0.79662 0.52988,-1.16712 0.29674,-0.37724 0.45834,-0.86009 0.36728,-1.09739 -0.0894,-0.23306 -0.0466,-0.57106 0.0951,-0.75111 0.14174,-0.18004 0.34139,-0.68454 0.44367,-1.1211 0.10229,-0.43657 0.47589,-1.41146 0.83024,-2.16643 0.35434,-0.75498 0.64426,-1.59018 0.64426,-1.856 0,-0.26583 0.23812,-0.92762 0.52916,-1.47064 0.29105,-0.54302 0.5309,-1.1961 0.53302,-1.45129 0.002,-0.25519 0.19427,-0.99976 0.42701,-1.6546 0.23273,-0.65485 0.47578,-1.60735 0.5401,-2.11667 0.16866,-1.33559 0.28617,-1.5875 0.74053,-1.5875 0.2558,0 0.40518,0.24386 0.40518,0.66146 0,0.81054 0.31383,0.85593 0.66486,0.0962 0.14365,-0.31092 0.38024,-0.57881 0.52576,-0.59532 0.48758,-0.0553 0.44105,1.16654 -0.0873,2.29355 -0.28778,0.61381 -0.67805,1.59228 -0.86728,2.17436 -0.18922,0.58208 -0.43879,1.17144 -0.55461,1.30969 -0.31992,0.38188 -0.25246,0.67468 0.15545,0.67468 0.20131,0 0.42829,0.23813 0.50439,0.52917 0.0761,0.29104 0.0305,0.52917 -0.10143,0.52917 -0.1319,0 -0.23357,0.20836 -0.22593,0.46302 0.0113,0.37825 0.0942,0.34753 0.45271,-0.16779 0.24136,-0.34695 0.46561,-0.8232 0.49832,-1.05834 0.0927,-0.66641 0.64841,-2.49463 0.91296,-3.00362 0.13134,-0.25268 0.23879,-0.6269 0.23879,-0.83158 0,-0.3104 0.52343,-0.69336 0.94769,-0.69336 0.28161,0 0.0647,2.06617 -0.28786,2.74222 -0.21738,0.41682 -0.39524,0.98237 -0.39524,1.25677 0,0.27441 -0.0997,0.49893 -0.22161,0.49893 -0.12189,0 -0.44291,0.68461 -0.71339,1.52135 -0.3012,0.93178 -0.83052,1.84936 -1.36589,2.36776 -0.50746,0.49138 -0.87411,1.11071 -0.87411,1.47651 0,0.34656 -0.29716,1.21584 -0.66035,1.93172 -0.3632,0.71589 -0.66085,1.51573 -0.66146,1.77742 -6.1e-4,0.26169 -0.23841,0.96696 -0.52845,1.56727 -0.29004,0.60031 -0.4728,1.14602 -0.40614,1.21268 0.0667,0.0667 -0.15897,0.61155 -0.50142,1.21085 -0.34245,0.59931 -0.69862,1.52417 -0.79149,2.05525 -0.0929,0.53108 -0.33665,1.10485 -0.54173,1.27505 -0.20507,0.1702 -0.4477,0.65018 -0.53917,1.06664 -0.0915,0.41645 -0.32768,0.89111 -0.5249,1.05479 -0.19723,0.16369 -0.57625,0.90286 -0.84226,1.64261 -0.266,0.73975 -0.74266,1.5147 -1.05923,1.72213 -0.35726,0.23408 -0.64349,0.77907 -0.75461,1.43681 -0.0985,0.58282 -0.34576,1.12365 -0.54954,1.20185 -0.20377,0.0782 -0.3705,0.36655 -0.3705,0.64079 0,0.27424 -0.23813,0.64733 -0.52917,0.82909 -0.29104,0.18175 -0.52917,0.4249 -0.52917,0.54032 0,0.11542 -0.35718,0.55902 -0.79375,0.98577 -0.43656,0.42676 -0.79375,0.89327 -0.79375,1.03671 0,0.32695 -1.9594,1.66234 -3.12357,2.12882 -0.5966,0.23905 -0.96072,0.26435 -1.14548,0.0796 -0.18477,-0.18476 0.21941,-0.57507 1.27149,-1.22789 2.04537,-1.26915 2.45818,-1.64541 3.51935,-3.20784 0.49417,-0.72761 0.97956,-1.38245 1.07863,-1.45521 0.47423,-0.34828 1.83917,-3.16845 1.83917,-3.80001 0,-0.39298 0.17859,-0.78305 0.39687,-0.86681 0.21828,-0.0838 0.39688,-0.3085 0.39688,-0.49942 0,-0.48319 0.85656,-2.06535 1.25677,-2.32139 0.1819,-0.11637 0.33073,-0.33789 0.33073,-0.49226 0,-0.15437 0.39888,-1.13072 0.8864,-2.16967 0.92669,-1.97486 1.34044,-3.03173 1.87887,-4.7994 0.1773,-0.58208 0.54191,-1.53458 0.81024,-2.11666 0.26834,-0.58209 0.50286,-1.1774 0.52116,-1.32292 0.0183,-0.14552 0.18229,-0.61737 0.36443,-1.04855 0.31597,-0.74801 0.60427,-2.00549 0.95766,-4.17697 0.12386,-0.76111 0.0729,-0.99219 -0.21871,-0.99219 -0.2091,0 -0.46188,0.32742 -0.56173,0.7276 -0.0999,0.40019 -0.46994,1.30294 -0.82243,2.00612 -0.35249,0.70318 -0.64089,1.50685 -0.64089,1.78594 0,0.27908 -0.1096,0.50742 -0.24356,0.50742 -0.13396,0 -0.32172,0.35583 -0.41723,0.79072 -0.0955,0.43489 -0.28358,0.85864 -0.4179,0.94166 -0.13433,0.083 -0.24423,0.3669 -0.24423,0.63085 0,0.41621 -0.49113,1.73863 -1.33323,3.5899 -0.13239,0.29104 -0.48959,1.21151 -0.79379,2.04549 -0.30419,0.83398 -0.66442,1.58515 -0.80052,1.66926 -0.1361,0.0841 -0.24746,0.38403 -0.24746,0.66649 0,0.28245 -0.26789,0.78144 -0.59531,1.10886 -0.32742,0.32742 -0.56394,0.68944 -0.5256,0.80447 0.12655,0.37965 -0.49632,1.28024 -0.81254,1.17483 -0.39274,-0.13091 -1.1341,0.80368 -1.67081,2.10628 -0.22835,0.55421 -0.82049,1.62314 -1.31588,2.37541 -0.49538,0.75226 -0.90069,1.47672 -0.90069,1.60991 0,0.13318 -0.32742,0.54178 -0.72761,0.908 -0.40018,0.36622 -0.90619,0.93784 -1.12448,1.27028 -0.9501,1.44698 -3.17411,3.34663 -3.77031,3.22043 -0.10914,-0.0231 -0.19844,0.13659 -0.19844,0.35487 0,0.21828 -0.2282,0.39688 -0.50711,0.39688 -0.27892,0 -0.54681,0.0893 -0.59532,0.19843 -0.0981,0.22073 -1.65489,1.12448 -1.937,1.12448 -0.0988,0 -0.13481,-0.13456 -0.08,-0.29903 z M 81.068,169.64496 c 0.17972,-0.3358 0.45644,-0.49917 0.69224,-0.40868 0.42955,0.16483 0.53981,0.6233 0.1499,0.6233 -0.13362,0 -0.44513,0.0776 -0.69224,0.17241 -0.38602,0.14813 -0.40713,0.0936 -0.1499,-0.38703 z m 1.01246,-0.73995 c -0.23306,-0.23306 0.40468,-1.1621 0.79772,-1.1621 0.18328,0 0.33323,-0.10755 0.33323,-0.239 0,-0.20993 1.59998,-2.07166 3.37344,-3.92532 0.32742,-0.34223 0.59587,-0.70612 0.59654,-0.80864 6.7e-4,-0.10253 0.35786,-0.56691 0.79375,-1.03196 0.43589,-0.46505 0.79252,-0.97107 0.79252,-1.12448 0,-0.15341 0.11907,-0.27893 0.26459,-0.27893 0.4538,0 0.28913,1.29096 -0.19844,1.55574 -0.25466,0.1383 -0.75819,0.79733 -1.11895,1.46452 -0.36077,0.66719 -0.80725,1.21307 -0.99219,1.21307 -0.18494,0 -0.33626,0.18743 -0.33626,0.41652 0,0.52708 -2.86415,3.55223 -3.36318,3.55223 -0.20472,0 -0.29863,0.11906 -0.20869,0.26458 0.1748,0.28283 -0.46463,0.37322 -0.73408,0.10377 z m 13.2162,-2.12963 c -0.0956,-0.0956 0.36082,-0.74533 1.01423,-1.44388 0.65342,-0.69855 1.18802,-1.3954 1.18802,-1.54856 0,-0.15316 0.64911,-1.15619 1.44245,-2.22896 0.79335,-1.07276 1.37844,-2.01449 1.30019,-2.09274 -0.0782,-0.0782 0.22516,-0.52672 0.67422,-0.99662 0.44906,-0.4699 0.81648,-1.04545 0.81648,-1.279 0,-0.23355 0.35753,-0.76209 0.79452,-1.17454 0.43699,-0.41244 0.87209,-1.05896 0.9669,-1.43671 0.0948,-0.37775 0.33185,-0.99241 0.52676,-1.36591 0.19492,-0.3735 0.35512,-0.81334 0.35602,-0.97742 9e-4,-0.16409 0.18023,-0.44656 0.39851,-0.62771 0.21828,-0.18116 0.39687,-0.60543 0.39687,-0.94283 0,-0.33739 0.10557,-0.67869 0.23459,-0.75843 0.12902,-0.0797 0.31366,-0.56644 0.41029,-1.08156 0.0966,-0.51513 0.40984,-1.33341 0.696,-1.81842 0.34361,-0.58236 0.55087,-1.50075 0.61033,-2.70436 0.0906,-1.83434 0.64993,-3.25502 1.75914,-4.46836 0.26607,-0.29104 0.55999,-0.83653 0.65316,-1.2122 0.21491,-0.86651 1.44505,-2.2132 1.7464,-1.91185 0.30604,0.30604 -0.30802,2.24733 -0.66729,2.10955 -0.15578,-0.0597 -0.30099,0.18314 -0.32269,0.53975 -0.0217,0.3566 -0.42007,1.26068 -0.88529,2.00905 -0.59694,0.96028 -0.88275,1.79108 -0.97126,2.82324 -0.069,0.80441 -0.28054,1.64131 -0.47012,1.8598 -0.18959,0.21848 -0.49738,1.04982 -0.68399,1.84741 -0.1866,0.79759 -0.55849,1.80962 -0.82641,2.24896 -0.26792,0.43933 -0.48758,1.03904 -0.48812,1.33268 -5.4e-4,0.29364 -0.29864,0.97194 -0.66245,1.50732 -0.3638,0.53538 -0.66146,1.14311 -0.66146,1.35051 0,0.46663 -2.40581,5.30624 -2.69817,5.42772 -0.11673,0.0485 -0.21443,0.2271 -0.21709,0.39688 -0.003,0.16977 -0.83611,1.18299 -1.85209,2.2516 -1.01597,1.0686 -1.84723,2.09892 -1.84723,2.2896 0,0.19067 -0.37909,0.77488 -0.84243,1.29823 -0.78976,0.89204 -1.48745,1.1793 -1.88899,0.77776 z m 8.28767,-7.36684 c 0,-0.36381 0.09,-0.66146 0.2,-0.66146 0.10999,0 0.35567,-0.3517 0.54594,-0.78155 0.19027,-0.42985 0.63802,-1.21195 0.995,-1.73799 0.35698,-0.52604 0.58604,-1.05838 0.50903,-1.183 -0.077,-0.12461 -0.005,-0.5629 0.16086,-0.97399 0.16549,-0.41109 0.39587,-0.98556 0.51195,-1.2766 0.11608,-0.29104 0.28224,-0.85709 0.36925,-1.25788 0.087,-0.4008 0.56103,-1.59142 1.05338,-2.64583 0.49235,-1.05442 0.97638,-2.19178 1.07562,-2.52748 0.11154,-0.37733 0.34742,-0.5782 0.61781,-0.52613 0.5788,0.11147 0.71621,0.93176 0.24907,1.4869 -0.20518,0.24384 -0.53806,0.97912 -0.73974,1.63396 -0.20168,0.65485 -0.75861,2.06043 -1.23764,3.12352 -0.47902,1.06308 -0.87095,2.14539 -0.87095,2.40512 0,0.25973 -0.35503,1.11634 -0.78895,1.90357 -0.43393,0.78723 -0.79112,1.63969 -0.79375,1.89436 -0.003,0.25466 -0.12386,0.46302 -0.26938,0.46302 -0.14552,0 -0.26458,0.1744 -0.26458,0.38756 0,0.33864 -0.74848,0.93535 -1.17323,0.93535 -0.0823,0 -0.14969,-0.29765 -0.14969,-0.66145 z m 49.83349,-2.0847 c -1.77812,-0.38676 -4.09017,-1.52689 -3.93761,-1.94173 0.0652,-0.17724 0.005,-0.39262 -0.13452,-0.47863 -0.13916,-0.086 -0.25302,0.0363 -0.25302,0.27172 0,0.23625 -0.12667,0.34983 -0.28263,0.25344 -0.15544,-0.0961 -0.21871,-0.34122 -0.14059,-0.54478 0.0781,-0.20357 0.0215,-0.37012 -0.1258,-0.37012 -0.66738,0 -3.15371,-3.52921 -2.76217,-3.92075 0.20985,-0.20986 2.16359,2.00815 2.51395,2.85401 0.17127,0.41348 0.51001,0.82097 0.75275,0.90555 0.24275,0.0846 0.79855,0.36602 1.23511,0.62544 1.1379,0.67615 3.49718,1.3838 4.97017,1.49076 1.35597,0.0985 1.75772,0.29529 1.36219,0.66736 -0.43792,0.41196 -1.79947,0.49188 -3.19783,0.18773 z m -44.63703,-1.67058 c -0.0906,-0.0906 -0.0426,-0.31204 0.10679,-0.49201 0.14936,-0.17997 0.2438,-0.42905 0.20986,-0.55351 -0.0646,-0.23701 0.18866,-1.17913 0.55878,-2.07837 0.11979,-0.29104 0.37177,-1.06495 0.55995,-1.71979 0.50823,-1.76849 1.26483,-3.175 1.70791,-3.175 0.51887,0 0.51537,1.23684 -0.005,1.75719 -0.21806,0.21806 -0.47452,0.71557 -0.5699,1.10558 -0.0954,0.39001 -0.27968,0.77907 -0.40955,0.8646 -0.12987,0.0855 -0.2632,0.56177 -0.2963,1.05833 -0.0331,0.49656 -0.13018,1.0219 -0.21573,1.16742 -0.0856,0.14552 -0.23294,0.58857 -0.32754,0.98455 -0.17074,0.71469 -1.00336,1.39693 -1.31929,1.08101 z m 28.49594,-12.18587 c -0.22652,-0.5457 -0.57763,-1.0874 -0.78025,-1.20377 -0.20262,-0.11637 -0.3684,-0.4438 -0.3684,-0.72761 0,-0.28998 -0.17987,-0.51602 -0.41065,-0.51602 -0.22585,0 -0.53515,-0.35718 -0.68734,-0.79375 -0.15218,-0.43656 -0.38983,-0.79375 -0.52809,-0.79375 -0.30481,0 -1.52885,-1.35494 -1.54057,-1.70531 -0.005,-0.13756 -0.30848,-0.56336 -0.67529,-0.94623 -0.66384,-0.6929 -0.66449,-0.69833 -0.13968,-1.17328 0.51368,-0.46486 0.53936,-0.45483 0.99766,0.39001 0.25873,0.47693 0.78032,1.23652 1.15909,1.68796 0.37878,0.45145 0.73597,0.96068 0.79375,1.13164 0.0578,0.17095 0.43262,0.70673 0.83297,1.19062 0.40034,0.48389 1.21091,1.46056 1.80127,2.17038 0.61511,0.73958 1.01036,1.45483 0.92576,1.67529 -0.0812,0.21158 -0.14763,0.4345 -0.14763,0.49535 0,0.0609 -0.18467,0.11066 -0.41037,0.11066 -0.22571,0 -0.59571,-0.44649 -0.82223,-0.99219 z"
       id="path17" />
  </g>
</svg>
