<?xml version="1.0" encoding="UTF-8" standalone="no"?>
<!-- Created with Inkscape (http://www.inkscape.org/) -->

<svg
   width="94.703758mm"
   height="42.948887mm"
   viewBox="0 0 94.703752 42.94889"
   version="1.1"
   id="svg1"
   inkscape:version="1.4.1-rc (06eac75fbf, 2025-03-29)"
   sodipodi:docname="mount9.svg"
   xmlns:inkscape="http://www.inkscape.org/namespaces/inkscape"
   xmlns:sodipodi="http://sodipodi.sourceforge.net/DTD/sodipodi-0.dtd"
   xmlns="http://www.w3.org/2000/svg"
   xmlns:svg="http://www.w3.org/2000/svg">
  <sodipodi:namedview
     id="namedview1"
     pagecolor="#ffffff"
     bordercolor="#000000"
     borderopacity="0.25"
     inkscape:showpageshadow="2"
     inkscape:pageopacity="0.0"
     inkscape:pagecheckerboard="0"
     inkscape:deskcolor="#d1d1d1"
     inkscape:document-units="mm"
     inkscape:zoom="0.72248176"
     inkscape:cx="178.55122"
     inkscape:cy="80.970902"
     inkscape:window-width="1850"
     inkscape:window-height="1016"
     inkscape:window-x="0"
     inkscape:window-y="0"
     inkscape:window-maximized="1"
     inkscape:current-layer="layer1" />
  <defs
     id="defs1" />
  <g
     inkscape:label="Layer 1"
     inkscape:groupmode="layer"
     id="layer1"
     transform="translate(-58.472895,-126.73575)">
    <path
       style="fill:#000000"
       d="m 71.24118,169.61941 c -0.31686,-0.0508 -0.71839,-0.26376 -0.8923,-0.4733 -0.26459,-0.31881 -0.17029,-0.38099 0.57785,-0.38099 0.49172,0 1.26784,-0.1072 1.72471,-0.23823 0.45687,-0.13103 1.45781,-0.27986 2.22431,-0.33073 1.98597,-0.13181 2.03107,0.44081 0.0651,0.82734 -0.84487,0.16612 -1.71472,0.37588 -1.933,0.46614 -0.50252,0.20778 -1.03551,0.24693 -1.76672,0.12977 z m -1.46474,-1.60046 c -0.96041,-0.38134 -0.0243,-0.87282 1.91978,-1.00789 1.06973,-0.0743 2.14401,-0.24165 2.38729,-0.37185 0.24327,-0.1302 0.49518,-0.18385 0.5598,-0.11924 0.0646,0.0646 1.29177,-0.29676 2.72702,-0.80306 1.43524,-0.5063 2.8367,-0.92054 3.11435,-0.92054 0.86918,0 0.36908,0.55096 -1.00184,1.10373 -0.72356,0.29175 -1.52231,0.63902 -1.775,0.7717 -0.25268,0.13268 -0.67535,0.24124 -0.93927,0.24124 -0.26391,0 -0.59295,0.10315 -0.73119,0.22923 -0.13825,0.12608 -1.37991,0.37839 -2.75926,0.56069 -1.37935,0.1823 -2.6295,0.36848 -2.77812,0.41372 -0.14863,0.0452 -0.47422,0.001 -0.72356,-0.0977 z m -2.32479,-2.81129 c 0,-0.4545 0.87047,-0.67309 1.96994,-0.49467 0.48932,0.0794 0.94987,0.0176 1.0476,-0.14049 0.0959,-0.1552 0.33577,-0.22027 0.53299,-0.14458 0.19722,0.0757 1.29473,-0.0628 2.43892,-0.30765 1.14419,-0.24489 2.378,-0.48684 2.7418,-0.53766 1.43256,-0.20014 3.89257,-0.84933 4.63817,-1.22401 0.43218,-0.21718 1.35134,-0.55742 2.04256,-0.7561 1.24623,-0.35821 1.50202,-0.59208 0.99219,-0.90717 -0.14552,-0.0899 -0.26459,-0.348 -0.26459,-0.57347 0,-0.29258 0.17043,-0.36757 0.59532,-0.26196 0.36691,0.0912 0.8488,-0.044 1.25603,-0.35252 l 0.66072,-0.5005 -0.66072,-0.24899 c -0.3634,-0.13695 -0.83932,-0.16038 -1.0576,-0.0521 -0.99066,0.49154 -5.50743,1.93817 -6.25007,2.00177 -0.45437,0.0389 -1.2878,0.35696 -1.85208,0.70677 -0.98254,0.60911 -5.69529,2.3248 -6.38378,2.32404 -0.18191,-2e-4 -0.33073,-0.25123 -0.33073,-0.55784 0,-0.38683 0.12148,-0.51086 0.39687,-0.40518 0.21828,0.0838 0.39688,0.0565 0.39688,-0.0606 0,-0.11709 0.68461,-0.42184 1.52135,-0.67721 2.35882,-0.7199 3.15922,-1.05379 3.70058,-1.54372 0.27495,-0.24882 1.02819,-0.51864 1.67388,-0.5996 1.45777,-0.18278 5.7897,-1.64033 6.35419,-2.13797 0.22974,-0.20253 0.58905,-0.36824 0.79847,-0.36824 0.45478,0 2.36284,-1.25666 2.32177,-1.52913 -0.091,-0.60386 0.10518,-0.85212 0.67345,-0.85212 0.79159,0 3.06464,-0.95135 3.06464,-1.28266 0,-0.13372 0.23813,-0.30539 0.52917,-0.3815 1.04389,-0.27299 0.49848,-0.5859 -1.12484,-0.64535 -1.82275,-0.0668 -2.63803,0.31847 -2.70887,1.27994 -0.0354,0.48111 -0.24048,0.58483 -1.34344,0.67962 -0.71589,0.0615 -1.6596,0.33161 -2.09713,0.6002 -1.64786,1.01157 -5.40554,2.89922 -7.03837,3.53569 -3.31903,1.29373 -4.56904,1.47548 -5.34128,0.77661 -0.3783,-0.34236 -0.53271,-0.36603 -0.69324,-0.10629 -0.1136,0.18379 -0.31469,0.30636 -0.44687,0.27238 -0.13219,-0.034 -0.88703,0.13832 -1.67742,0.3829 -1.78019,0.55088 -2.72934,0.56131 -3.73543,0.041 -0.42934,-0.22201 -0.77968,-0.43037 -0.77855,-0.46302 0.001,-0.0326 0.61018,-0.0817 1.35342,-0.10897 0.74325,-0.0273 1.81519,-0.23521 2.38211,-0.46205 0.56691,-0.22683 1.11873,-0.39876 1.22627,-0.38206 0.5668,0.088 1.12712,-0.0757 1.48536,-0.43391 0.22088,-0.22088 0.49727,-0.38057 0.61421,-0.35487 0.11693,0.0257 0.42097,-0.0444 0.67563,-0.15587 0.25466,-0.11144 0.65502,-0.12893 0.88969,-0.0389 0.35532,0.13634 0.36923,0.23295 0.0832,0.57764 -0.60303,0.7266 0.25693,0.96258 1.25653,0.3448 0.47076,-0.29095 1.01005,-0.49758 1.19843,-0.45918 0.18838,0.0384 0.61039,-0.0784 0.93781,-0.25959 0.32743,-0.18118 0.59532,-0.27084 0.59532,-0.19925 0,0.2091 5.10677,-2.54642 5.64011,-3.0433 0.62062,-0.5782 0.31722,-0.76924 -1.52331,-0.9592 -1.50664,-0.1555 -4.03854,0.51242 -4.46068,1.17674 -0.11637,0.18313 -0.50332,0.33297 -0.8599,0.33297 -0.81334,0 -0.85586,0.46289 -0.053,0.57691 0.32742,0.0465 0.59531,0.26314 0.59531,0.48142 0,0.39755 -0.27284,0.42859 -2.51354,0.28595 -1.13634,-0.0723 -2.66794,0.20233 -3.09727,0.55545 -0.17552,0.14437 -0.43621,0.19014 -0.5793,0.1017 -0.14309,-0.0884 -0.53526,0.12564 -0.87148,0.47572 -0.65064,0.67744 -2.41759,1.36833 -2.83683,1.10922 -0.13831,-0.0855 -0.32626,-0.0344 -0.41766,0.11348 -0.23539,0.38086 -0.92953,0.33444 -0.9246,-0.0618 0.002,-0.1819 0.59758,-0.62205 1.32292,-0.9781 0.72534,-0.35606 1.3188,-0.75575 1.3188,-0.88821 0,-0.13245 0.17859,-0.17229 0.39687,-0.0885 0.21829,0.0838 0.39688,0.037 0.39688,-0.10398 0,-0.31879 -0.16315,-0.31826 -1.32392,0.004 -0.50987,0.14166 -1.82395,0.30868 -2.92018,0.37117 -1.85763,0.1059 -2.03674,0.0683 -2.63436,-0.5526 -0.61669,-0.64074 -0.62242,-0.67997 -0.14969,-1.02563 0.27034,-0.19768 0.57956,-0.30501 0.68715,-0.23851 0.10759,0.0665 0.34276,-0.0564 0.52258,-0.27306 0.17983,-0.21668 0.6473,-0.39396 1.03882,-0.39396 0.44556,0 0.99632,-0.29692 1.47231,-0.79375 0.41825,-0.43656 0.96117,-0.79375 1.20649,-0.79375 0.64508,0 2.89455,-1.03771 2.89455,-1.3353 0,-0.13871 0.17349,-0.2522 0.38553,-0.2522 0.32023,0 4.78395,-2.20779 5.15308,-2.54875 0.0631,-0.0583 -0.0262,-0.24679 -0.19844,-0.41899 -0.1722,-0.1722 -0.31309,-0.58275 -0.31309,-0.91233 0,-0.64623 0.68306,-1.13085 1.98438,-1.40788 0.6039,-0.12856 0.76987,-0.2916 0.69392,-0.68166 -0.21733,-1.11608 -0.12909,-1.30397 0.82743,-1.76177 0.54571,-0.26118 0.99219,-0.65843 0.99219,-0.88278 0,-0.98487 3.80897,-3.82977 6.35,-4.74279 0.61534,-0.2211 0.89996,-0.47741 0.8483,-0.76394 -0.0428,-0.23716 0.0862,-0.43119 0.28663,-0.43119 0.57846,0 0.74032,0.31453 0.38413,0.74642 -0.28779,0.34896 -0.14835,0.37891 1.12677,0.24198 0.80037,-0.0859 2.28865,-0.0756 3.3073,0.023 1.01864,0.0986 2.11997,0.1412 2.44739,0.0947 0.67074,-0.0953 0.80477,-0.77773 0.19844,-1.0104 -0.21828,-0.0838 -0.39688,-0.31201 -0.39688,-0.50723 0,-0.43162 1.14244,-1.70512 1.52965,-1.70512 0.15309,0 0.31803,-0.11735 0.36653,-0.26079 0.0485,-0.14344 1.10023,-0.32378 2.33716,-0.40076 2.27568,-0.14162 4.07014,-0.53225 4.72304,-1.02815 0.19658,-0.14931 0.53402,-0.29739 0.74985,-0.32907 0.21584,-0.0317 0.53125,-0.22754 0.70092,-0.43525 0.33603,-0.41138 2.74084,-1.77931 3.12801,-1.77931 0.13164,0 0.59788,-0.40835 1.0361,-0.90745 0.43822,-0.4991 1.15213,-0.98551 1.58648,-1.08091 0.43435,-0.0954 1.29256,-0.45217 1.90714,-0.79282 0.6177,-0.34238 1.81462,-0.69287 2.67645,-0.78374 0.85747,-0.0904 1.67258,-0.18848 1.81136,-0.21795 0.13879,-0.0295 0.35612,0.2143 0.48296,0.54173 0.21918,0.56575 0.16866,0.59536 -1.01761,0.59634 -1.83945,10e-4 -4.63696,0.85481 -4.84031,1.47638 -0.48892,1.4944 -0.60031,1.69759 -0.93061,1.69759 -0.19795,0 -0.54293,0.2793 -0.7666,0.62068 -0.22368,0.34137 -0.71806,0.76255 -1.09863,0.93594 -0.88826,0.40473 -0.6295,0.65512 0.63204,0.61161 0.7046,-0.0243 1.16209,-0.22831 1.57377,-0.70179 0.38772,-0.44593 0.73151,-0.60954 1.03559,-0.49286 0.31785,0.12198 0.39494,0.0772 0.25549,-0.14843 -0.12067,-0.19526 0.0817,-0.58388 0.5114,-0.98213 0.56047,-0.51943 0.78973,-0.59376 1.08233,-0.35091 0.57648,0.47843 0.43998,1.02402 -0.32938,1.31653 -0.6744,0.2564 -0.68183,0.28091 -0.19843,0.65491 0.47646,0.36863 0.47843,0.40699 0.0385,0.74895 -0.25505,0.19822 -0.76106,0.32777 -1.12448,0.28788 -0.36341,-0.0399 -0.66075,0.0356 -0.66075,0.16781 0,0.28087 -2.41922,2.61981 -2.71198,2.622 -0.10914,8.1e-4 -0.19844,0.1871 -0.19844,0.41396 0,0.22687 0.0932,0.35489 0.20712,0.28449 0.11391,-0.0704 0.76126,-0.19317 1.43855,-0.27283 0.77667,-0.0913 1.7831,-0.49772 2.72524,-1.1004 0.82159,-0.52556 1.54502,-0.90435 1.60763,-0.84174 0.0626,0.0626 -0.056,0.51906 -0.26366,1.01435 -0.33552,0.8004 -1.98116,2.47457 -3.4655,3.52557 -0.29081,0.20592 -0.45792,0.44522 -0.37136,0.53179 0.24301,0.24301 1.91001,-0.53423 2.46784,-1.15062 0.55958,-0.61833 0.65582,-0.64269 1.19396,-0.30219 0.31515,0.19942 0.24704,0.4371 -0.39688,1.38502 -0.42752,0.62935 -1.16426,1.51553 -1.63721,1.96927 -0.47294,0.45375 -0.85989,0.94703 -0.85989,1.09618 0,0.39073 0.80796,0.64394 1.15801,0.36291 0.62188,-0.49926 1.9211,-0.60175 2.27179,-0.1792 0.28997,0.3494 0.20341,0.46531 -0.59733,0.79988 -0.98239,0.41047 -2.82625,2.16664 -2.83018,2.69559 -0.001,0.16977 -0.15112,0.37258 -0.33302,0.45067 -0.49283,0.21159 0.81641,-0.003 2.24407,-0.3676 2.70639,-0.6914 2.65503,0.48248 -0.0613,1.4004 -0.49944,0.16877 -1.47603,1.97963 -1.21036,2.24433 0.24497,0.24407 1.25998,-0.96401 1.06924,-1.27264 -0.27345,-0.44245 0.85173,-0.73462 2.66228,-0.6913 l 1.84447,0.0441 0.39687,1.24788 c 0.30468,0.95798 0.4835,1.19417 0.76976,1.01666 0.20508,-0.12716 0.51255,-0.17761 0.68327,-0.1121 0.17071,0.0655 0.79462,0.0103 1.38646,-0.12267 1.00651,-0.22615 1.97859,-0.0128 1.61199,0.35382 -0.29619,0.29618 -2.97739,0.91736 -3.97346,0.92056 -1.02248,0.003 -1.80094,-0.69549 -1.80094,-1.61659 0,-0.33578 -0.2912,-0.46681 -1.19761,-0.5389 -1.13157,-0.09 -1.23369,-0.0407 -1.85208,0.89372 -0.35996,0.54394 -0.65447,1.05901 -0.65447,1.1446 0,0.0856 -0.29766,0.54586 -0.66146,1.02283 -1.05787,1.38694 -0.76769,1.3406 0.6285,-0.10036 1.23424,-1.27382 1.94366,-1.61405 2.26873,-1.08808 0.0827,0.13379 -0.0293,0.42295 -0.24897,0.64256 -0.21961,0.21962 -0.3993,0.48052 -0.3993,0.57977 0,0.0992 -0.93681,1.11979 -2.0818,2.26786 -1.59336,1.59764 -2.25278,2.0874 -2.81052,2.0874 -0.64918,0 -0.68909,-0.0482 -0.3656,-0.4415 0.3292,-0.40025 0.28374,-0.42578 -0.48651,-0.27325 -1.11885,0.22156 -1.30205,-0.15222 -0.47834,-0.97594 0.36659,-0.36658 0.66652,-0.85052 0.66652,-1.07541 0,-0.2249 0.14883,-0.40966 0.33073,-0.41058 0.4575,-0.002 1.29996,-1.5279 0.95981,-1.73812 -0.26944,-0.16653 -0.81275,0.21616 -2.18183,1.53681 -0.41745,0.40268 -0.91073,0.73215 -1.09618,0.73215 -0.49257,0 -0.69061,-0.72476 -0.24478,-0.89584 0.20909,-0.0802 0.38016,-0.33271 0.38016,-0.56105 0,-0.73853 -2.00541,-0.28565 -3.17515,0.71705 -1.67823,1.43855 -3.63605,2.85651 -3.94409,2.85651 -0.159,0 -0.28909,0.10508 -0.28909,0.2335 0,0.51305 -4.50508,3.11888 -5.13513,2.97026 -0.13218,-0.0312 -0.32566,0.0814 -0.42995,0.2501 -0.14338,0.232 -0.23641,0.23107 -0.38159,-0.004 -0.11756,-0.19021 0.0235,-0.36698 0.3638,-0.45598 0.30568,-0.0799 0.55579,-0.30169 0.55579,-0.49279 0,-0.1911 0.53696,-0.61563 1.19324,-0.94339 0.65629,-0.32777 1.38911,-0.81237 1.62851,-1.0769 0.23939,-0.26453 0.56564,-0.48447 0.72498,-0.48876 0.15935,-0.004 1.12023,-0.7782 2.13528,-1.7198 1.01506,-0.94159 1.96756,-1.72035 2.11667,-1.73058 0.14911,-0.0102 0.033,-0.118 -0.25806,-0.23949 -0.77573,-0.32382 -2.24953,-0.0506 -3.30729,0.61303 -0.50932,0.31957 -1.25346,0.74774 -1.65365,0.9515 -0.40018,0.20376 -0.7276,0.4595 -0.7276,0.56831 0,0.10881 -0.78215,0.57888 -1.73811,1.04459 -1.07017,0.52135 -1.82431,1.07347 -1.96242,1.43671 -0.15239,0.40084 -0.61141,0.69835 -1.43186,0.92806 -0.66415,0.18595 -1.34346,0.50185 -1.50956,0.70199 -0.16611,0.20014 -0.4806,0.3639 -0.69889,0.3639 -0.32137,0 -0.33471,0.0749 -0.0701,0.39374 0.26567,0.32011 0.24199,0.42628 -0.1266,0.56772 -0.26252,0.10074 -0.56402,0.0185 -0.71621,-0.1953 -0.20946,-0.29429 -0.2341,-0.27918 -0.12132,0.0744 0.0778,0.24402 -0.03,0.58602 -0.23963,0.76 -0.20963,0.17398 -0.38114,0.22763 -0.38114,0.11924 0,-0.1084 -0.16179,-0.0628 -0.35953,0.10129 -0.19774,0.16411 -1.06094,0.5383 -1.91823,0.83154 -0.85729,0.29323 -2.15401,0.76087 -2.88162,1.0392 -0.7276,0.27833 -2.21588,0.764 -3.30729,1.07927 -1.09141,0.31527 -2.16297,0.64001 -2.38125,0.72165 -0.21828,0.0816 -1.17078,0.17601 -2.11667,0.2097 -0.94588,0.0337 -1.71979,0.0797 -1.71979,0.10235 0,0.0226 -0.56555,0.0913 -1.25677,0.15272 -0.87184,0.0774 -1.25801,0.0128 -1.26082,-0.21096 -0.003,-0.21283 -0.0702,-0.22825 -0.19844,-0.0453 -0.28708,0.40949 -1.38501,0.41085 -1.38501,0.002 z m 21.9609,-7.96701 c 0.21855,-0.18972 0.75433,-0.49841 1.19063,-0.68598 l 0.79326,-0.34102 -1.0688,-0.0867 c -0.77855,-0.0632 -1.40759,0.10259 -2.31632,0.61049 -0.68613,0.38349 -1.17815,0.80948 -1.09338,0.94665 0.19881,0.32168 1.97747,0.006 2.49461,-0.44339 z M 64.7984,156.16028 c 0.3141,-0.0997 0.32193,-0.16537 0.0405,-0.33932 -0.42434,-0.26226 -2.4633,0.2154 -2.26805,0.53132 0.12755,0.20638 1.28761,0.10639 2.22759,-0.192 z m 5.0345,0.009 c 0,-0.0572 -0.17859,-0.10398 -0.39688,-0.10398 -0.21828,0 -0.39687,0.11533 -0.39687,0.25628 0,0.14095 0.17859,0.18775 0.39687,0.10398 0.21829,-0.0838 0.39688,-0.19909 0.39688,-0.25628 z m 39.60561,-1.04262 c 0.22521,-0.22521 0.34143,-0.47751 0.25828,-0.56067 -0.15239,-0.15238 -0.97014,0.53793 -0.97014,0.81895 0,0.26769 0.29173,0.16184 0.71186,-0.25828 z m -38.40567,-0.74642 1.29859,-0.62673 -1.23974,-0.0249 c -0.68185,-0.0137 -1.31178,0.0917 -1.39984,0.23417 -0.088,0.14248 -0.26847,0.19207 -0.40093,0.11021 -0.30223,-0.18679 -1.3101,0.33534 -1.3101,0.67869 0,0.4725 1.74282,0.26039 3.05202,-0.37146 z m 3.9966,0.0507 c 1.08931,-0.54403 1.68157,-1.29187 0.69044,-0.87181 -0.25466,0.10793 -0.93927,0.36713 -1.52135,0.576 -1.34502,0.48263 -1.76548,0.87187 -0.9418,0.87187 0.34059,0 1.13831,-0.25922 1.77271,-0.57606 z m 19.49791,-0.60458 c 0.75521,-0.36949 1.66809,-1.02891 2.02862,-1.46537 0.36052,-0.43646 0.8354,-0.79735 1.05528,-0.80197 0.21987,-0.005 0.81649,-0.43244 1.32582,-0.95072 0.50932,-0.51827 1.19393,-1.04732 1.52135,-1.17567 0.71042,-0.27848 0.77648,-0.69711 0.13229,-0.83834 -0.61148,-0.13405 -1.69961,0.33482 -2.13167,0.91854 -0.19015,0.2569 -0.48931,0.46709 -0.6648,0.46709 -0.17549,0 -0.54898,0.30615 -0.82998,0.68033 -0.281,0.37418 -1.0534,0.99584 -1.71645,1.38147 -0.95662,0.55636 -3.16531,2.10549 -3.68136,2.58203 -0.37312,0.34455 1.85123,-0.25448 2.9609,-0.79739 z m -11.46528,-1.33287 c 0,-0.41987 -0.4609,-0.508 -1.19117,-0.22777 -0.35155,0.1349 -0.36931,0.21437 -0.0878,0.39283 0.56524,0.3583 1.27896,0.26619 1.27896,-0.16506 z m -8.10119,-0.0815 c 0.0727,-0.11759 -0.33702,-0.24147 -0.91043,-0.27531 -0.58512,-0.0345 -1.04255,0.0593 -1.04255,0.21379 0,0.32171 1.75795,0.37708 1.95298,0.0615 z m 5.0429,-0.45609 c 0.5047,-0.38174 0.50408,-0.38846 -0.0358,-0.38846 -0.30214,0 -0.94998,0.17393 -1.43963,0.38652 l -0.89027,0.38652 0.92604,0.002 c 0.50932,0.001 1.15716,-0.17287 1.43963,-0.38652 z m 23.31051,-0.66946 c 0.44295,-0.26867 1.13021,-0.85308 1.52724,-1.29868 l 0.72189,-0.8102 -0.72316,-0.27494 c -0.85452,-0.32489 -1.90107,-0.11287 -2.48524,0.50347 -0.23018,0.24286 -0.79573,0.72726 -1.25677,1.07644 -1.32203,1.00128 -1.00973,1.72776 0.61694,1.43518 0.43656,-0.0785 1.15616,-0.36259 1.5991,-0.63127 z m -7.63263,-1.3065 c 0.90166,-0.65485 1.6458,-1.3424 1.65364,-1.5279 0.008,-0.18551 0.28873,-0.44163 0.62418,-0.56917 0.33545,-0.12754 1.13912,-0.71672 1.78594,-1.30929 1.03637,-0.94947 1.10533,-1.07825 0.58071,-1.08448 -0.75581,-0.009 -0.75941,-0.30648 -0.009,-0.77489 0.38054,-0.23765 1.64397,-0.39937 3.604,-0.46131 2.9466,-0.0931 3.04077,-0.11512 3.97811,-0.92907 0.97455,-0.84626 1.48579,-1.50531 1.30667,-1.68443 -0.0543,-0.0543 -0.96006,0.0206 -2.01274,0.16646 -1.05269,0.14588 -2.47767,0.22902 -3.16663,0.18476 -0.82704,-0.0531 -1.34915,0.0426 -1.53666,0.28168 -0.21198,0.2703 -0.41329,0.29152 -0.79375,0.0837 -0.28036,-0.15315 -1.06863,-0.40545 -1.7517,-0.56067 -1.21385,-0.27583 -1.26476,-0.26128 -2.24896,0.64264 -0.55385,0.50867 -1.0963,0.92543 -1.20544,0.92612 -0.10914,7e-4 -0.19844,0.17986 -0.19844,0.39814 0,0.47794 1.84509,0.56262 2.30205,0.10566 0.2119,-0.2119 0.34371,-0.12584 0.48394,0.31597 0.16194,0.51023 -0.0346,0.80718 -1.23049,1.85948 -0.78276,0.68876 -1.9899,1.5597 -2.68253,1.93541 -1.01932,0.55293 -4.1635,2.72092 -4.68614,3.2312 -0.37557,0.36669 0.75158,0.50424 2.05993,0.25136 1.07205,-0.2072 1.97534,-0.63285 3.14367,-1.48137 z m -7.24439,1.27997 c 0.67164,-0.3574 2.61624,-1.83363 2.86344,-2.17376 0.0929,-0.12779 0.30124,-0.15053 0.46303,-0.0505 0.16179,0.1 0.29416,0.0557 0.29416,-0.0984 0,-0.15411 -0.16867,-0.2802 -0.37483,-0.2802 -0.20615,0 -0.42154,-0.14015 -0.47863,-0.31143 -0.0671,-0.20127 -0.23867,-0.2273 -0.48507,-0.0736 -0.40941,0.2554 -0.9363,0.40243 -1.57189,0.43863 -0.21828,0.0124 -0.69453,0.22489 -1.05833,0.47214 -0.3638,0.24725 -1.28178,0.72543 -2.03994,1.06261 -0.75817,0.33719 -1.31549,0.715 -1.23849,0.83958 0.077,0.12459 0.24989,0.1586 0.3842,0.0756 0.13431,-0.083 0.45351,-0.029 0.70932,0.11993 0.62696,0.36511 1.82656,0.35536 2.53303,-0.0206 z m 18.37824,-0.0257 c 0.33132,-0.0248 1.28382,-0.6762 2.11666,-1.44758 l 1.51427,-1.4025 -0.92604,0.17421 c -0.92111,0.17329 -2.39335,0.8079 -2.64583,1.14049 -0.0728,0.0958 -0.51925,0.44453 -0.99219,0.77485 -0.9949,0.69487 -1.12675,1.17063 -0.26458,0.9547 0.32742,-0.082 0.86639,-0.16938 1.19771,-0.19417 z m -30.89719,-0.31266 c 0,-0.0642 -0.11907,-0.19026 -0.26459,-0.2802 -0.14552,-0.0899 -0.26458,-0.0374 -0.26458,0.11668 0,0.15411 0.11906,0.2802 0.26458,0.2802 0.14552,0 0.26459,-0.0525 0.26459,-0.11668 z m 2.57672,-0.41249 c 0.63637,-0.34107 0.81152,-0.52917 0.49276,-0.52917 -0.76041,0 -2.54032,0.5855 -2.54032,0.83563 0,0.39283 1.03067,0.23857 2.04756,-0.30646 z m 5.88994,-0.59451 0.92605,-0.59253 -0.86685,-0.0852 c -0.74675,-0.0734 -2.70503,0.76748 -2.70503,1.16155 0,0.35708 1.86447,0.0162 2.64583,-0.4838 z m -0.52916,-2.58587 c 0,-0.3549 -0.0649,-0.33912 -1.28685,0.31314 -0.58974,0.31479 -1.01123,0.67109 -0.93664,0.79178 0.16845,0.27257 2.22349,-0.74864 2.22349,-1.10492 z m -5.29167,0.79913 c 0,-0.14552 -0.12609,-0.26458 -0.2802,-0.26458 -0.15411,0 -0.20661,0.11906 -0.11667,0.26458 0.0899,0.14552 0.21602,0.26458 0.28019,0.26458 0.0642,0 0.11668,-0.11906 0.11668,-0.26458 z m 27.24127,-0.52917 c 0.81795,0 2.20789,-0.69589 2.93425,-1.46907 0.8255,-0.8787 0.4666,-1.10601 -0.92938,-0.58863 -0.63911,0.23687 -1.39301,0.37027 -1.67533,0.29644 -0.37677,-0.0985 -0.66606,0.1129 -1.0875,0.79481 -0.31579,0.51097 -0.7185,0.98759 -0.89489,1.05915 -0.17639,0.0716 -0.10533,0.13951 0.15792,0.151 0.29238,0.0128 0.41345,0.14959 0.31111,0.35162 -0.0921,0.1819 0.003,0.12237 0.21199,-0.13229 0.20874,-0.25467 0.64606,-0.46303 0.97183,-0.46303 z m -17.75575,0.23871 c 0.45828,-0.15976 0.83323,-0.38843 0.83323,-0.50815 0,-0.11972 0.32742,-0.29114 0.7276,-0.38094 0.40019,-0.0898 1.02526,-0.39426 1.38907,-0.6766 l 0.66146,-0.51333 -1.32292,-0.005 c -1.09639,-0.004 -1.58362,0.16829 -2.8454,1.00722 -1.8882,1.25541 -1.59293,1.82629 0.55696,1.07684 z m -10.80844,-0.23871 c 0,-0.14552 -0.11906,-0.26458 -0.26458,-0.26458 -0.14552,0 -0.26458,0.11906 -0.26458,0.26458 0,0.14553 0.11906,0.26459 0.26458,0.26459 0.14552,0 0.26458,-0.11906 0.26458,-0.26459 z m 16.86624,-0.28193 c 0.25519,-0.30513 0.91046,-0.78565 1.45616,-1.06784 1.24324,-0.64287 1.2673,-1.03147 0.0639,-1.03147 -0.61159,0 -1.30218,0.27082 -2.02407,0.79375 -0.60266,0.43657 -1.24189,0.79375 -1.42052,0.79375 -0.17863,0 -0.46474,0.16865 -0.63581,0.37477 -0.24724,0.29791 -0.21319,0.39479 0.16604,0.47237 1.35018,0.27624 1.95357,0.19173 2.39435,-0.33533 z m 8.5554,0.28194 c 0.13362,0 0.24295,-0.15213 0.24295,-0.33807 0,-0.18594 0.24319,-0.5463 0.54042,-0.8008 0.63705,-0.54546 0.46704,-0.97779 -0.3845,-0.97779 -0.59405,0 -2.27259,1.35533 -2.27259,1.83498 0,0.29003 0.78298,0.52431 1.27841,0.38253 0.1938,-0.0555 0.46169,-0.10085 0.59531,-0.10085 z m -24.17038,-0.42443 c -0.0879,-0.0879 -0.31612,-0.0973 -0.50712,-0.0209 -0.21106,0.0845 -0.14837,0.14715 0.15986,0.15985 0.27891,0.0115 0.43518,-0.051 0.34726,-0.13896 z m 6.68624,-0.52992 c 0,-0.0572 -0.17859,-0.10398 -0.39687,-0.10398 -0.21828,0 -0.39688,0.11533 -0.39688,0.25628 0,0.14095 0.1786,0.18775 0.39688,0.10398 0.21828,-0.0838 0.39687,-0.19908 0.39687,-0.25628 z m 1.19063,-0.63315 c 0.0899,-0.14552 0.0374,-0.26458 -0.11668,-0.26458 -0.15411,0 -0.2802,0.11906 -0.2802,0.26458 0,0.14552 0.0525,0.26459 0.11668,0.26459 0.0642,0 0.19026,-0.11907 0.2802,-0.26459 z m -5.05708,-0.71965 c 0.10477,-0.10477 0.44159,-0.19407 0.74849,-0.19844 0.30691,-0.004 0.61037,-0.16346 0.67436,-0.35353 0.0893,-0.26532 -0.30471,-0.33326 -1.69658,-0.29255 -1.9957,0.0584 -3.12433,0.36098 -2.87158,0.76993 0.18643,0.30165 2.85496,0.36493 3.14531,0.0746 z m 13.69262,-2.19601 c 0.87948,-0.87074 1.03241,-1.14854 0.73535,-1.33587 -0.24011,-0.15141 -0.47025,-0.11711 -0.63964,0.0953 -0.14552,0.18252 -0.88966,0.72849 -1.65365,1.21327 -1.61967,1.02776 -1.79017,1.48976 -0.47076,1.27564 0.59552,-0.0966 1.30859,-0.53543 2.0287,-1.24838 z m -6.2701,0.3709 c 0.21843,-0.87027 0.0757,-1.01627 -0.62635,-0.64056 -0.45094,0.24133 -0.50313,0.39441 -0.27794,0.81518 0.38025,0.71051 0.69752,0.64924 0.90429,-0.17462 z m -2.62732,-0.63248 c 0.21679,-0.17992 0.39417,-0.41957 0.39417,-0.53255 0,-0.24884 -3.38357,-0.13605 -4.0349,0.1345 -0.54191,0.22509 -0.60131,0.5644 -0.13229,0.75562 0.59206,0.24138 3.36836,-0.0217 3.77302,-0.35757 z m 5.55355,-0.39524 c 0.45036,-0.32293 0.46303,-0.38069 0.085,-0.38785 -0.24427,-0.005 -0.63122,0.17868 -0.8599,0.40736 -0.4954,0.4954 -0.57003,1.06048 -0.085,0.64396 0.1819,-0.15622 0.56885,-0.45478 0.8599,-0.66347 z m -3.00152,-1.55951 c 0.4734,-0.33158 0.40031,-0.35839 -0.75054,-0.27528 -0.70127,0.0506 -1.39409,0.0992 -1.53961,0.10789 -0.14552,0.009 -0.12179,0.10659 0.0527,0.21753 0.55762,0.35448 1.69617,0.32896 2.23741,-0.0501 z m 13.6736,-0.29196 c 0.54284,-0.46098 1.50973,-1.94518 1.30711,-2.00643 -0.61469,-0.18581 -1.35327,-0.066 -1.72434,0.2797 -0.2559,0.23841 -0.55492,0.45607 -0.6645,0.48369 -0.10957,0.0276 -0.68187,0.39986 -1.27178,0.82719 l -1.07255,0.77695 0.8749,0.084 c 1.57428,0.1512 1.91995,0.0909 2.55116,-0.44513 z m 3.91259,0.0796 c 0.072,-0.11652 0.36577,-0.21186 0.65279,-0.21186 0.28702,0 0.59957,-0.20836 0.69456,-0.46302 0.095,-0.25466 0.38891,-0.6186 0.65316,-0.80875 0.60366,-0.43441 0.6528,-1.23223 0.0619,-1.00549 -0.23019,0.0883 -0.90332,0.16059 -1.49586,0.16059 -0.92364,0 -1.22152,0.15619 -2.08808,1.09484 -0.55591,0.60216 -0.94468,1.20173 -0.86394,1.33237 0.17658,0.28572 2.19959,0.20203 2.38544,-0.0987 z m -7.49676,-1.02707 c 0.26033,-0.27924 0.58775,-0.50771 0.7276,-0.50771 0.13985,0 0.25428,-0.11906 0.25428,-0.26458 0,-0.52825 -1.28829,-0.24722 -2.08946,0.4558 -0.45153,0.3962 -0.82096,0.82583 -0.82096,0.95472 0,0.38083 1.41506,-0.0875 1.92854,-0.63823 z m -3.03036,-0.48592 c 0.33989,-0.18108 0.56325,-0.38396 0.49637,-0.45085 -0.23336,-0.23336 -2.03819,1.01231 -1.86731,1.2888 0.11173,0.18078 0.27434,0.14037 0.46263,-0.11498 0.15968,-0.21655 0.56843,-0.54189 0.90831,-0.72297 z m -9.024,0.0829 c -0.0879,-0.0879 -0.31613,-0.0973 -0.50712,-0.0209 -0.21107,0.0845 -0.14837,0.14715 0.15985,0.15985 0.27891,0.0115 0.43518,-0.051 0.34727,-0.13897 z m 15.31496,-2.76855 c 0.56571,-0.44646 1.3091,-1.13106 1.65197,-1.52136 0.34287,-0.39029 0.72554,-0.68128 0.85038,-0.64664 0.12483,0.0346 0.15898,-0.1142 0.0759,-0.33073 -0.0951,-0.2479 0.006,-0.3937 0.2741,-0.3937 0.23386,0 0.42519,-0.17057 0.42519,-0.37905 0,-0.20847 0.24709,-0.45747 0.5491,-0.55332 0.30201,-0.0959 0.49599,-0.2274 0.43107,-0.29232 -0.18531,-0.18531 -1.50934,0.48691 -1.50934,0.7663 0,0.13773 -0.16686,0.18639 -0.3708,0.10813 -0.2227,-0.0855 -0.42587,0.0683 -0.50866,0.38487 -0.0758,0.28994 -0.29592,0.50572 -0.4891,0.47951 -0.76824,-0.10424 -0.9721,0.0572 -1.38951,1.10042 -0.24108,0.6025 -0.6577,1.14379 -0.93647,1.21669 -0.59031,0.15437 -0.94803,0.87293 -0.43458,0.87293 0.19371,0 0.81505,-0.36528 1.38076,-0.81173 z m 3.80669,0.018 c 0.46735,-0.43656 0.95619,-0.79375 1.08632,-0.79375 0.13013,0 0.2366,-0.0498 0.2366,-0.11065 0,-0.0609 0.0795,-0.3178 0.17665,-0.57099 0.15475,-0.40327 0.0517,-0.44005 -0.83169,-0.2967 -1.04516,0.16961 -2.25538,1.07426 -2.25538,1.68592 0,0.19291 -0.23812,0.35075 -0.52916,0.35075 -0.29104,0 -0.52917,0.11906 -0.52917,0.26459 0,0.14552 0.40413,0.26458 0.89806,0.26458 0.63263,0 1.1492,-0.2346 1.74777,-0.79375 z m -39.00396,27.08193 c -0.22201,-0.57855 -0.15737,-0.61904 1.26667,-0.79345 1.09621,-0.13425 1.22479,-0.0948 1.22479,0.37595 0,0.85094 -2.18465,1.21702 -2.49146,0.4175 z m 60.36907,-2.92264 c -0.25466,-0.0666 -0.46302,-0.27598 -0.46302,-0.46541 0,-0.29986 0.51506,-0.5043 2.11666,-0.84017 1.63152,-0.34213 2.0371,-0.47906 2.42933,-0.8202 0.24472,-0.21284 0.87699,-0.42713 1.40505,-0.47621 0.84753,-0.0788 0.95047,-0.0241 0.87797,0.46665 -0.0575,0.38904 -0.31426,0.5866 -0.8555,0.65823 -0.42535,0.0563 -0.98693,0.21665 -1.24796,0.35635 -0.40155,0.2149 -3.79951,1.34982 -3.79951,1.26903 0,-0.015 -0.20836,-0.0817 -0.46302,-0.14827 z m -4.53422,-2.34881 c -0.20873,-0.54394 0.0481,-0.9732 0.4381,-0.73218 0.44887,0.27742 1.6077,0.29909 1.9516,0.0365 0.16659,-0.1272 0.40471,-0.20819 0.52917,-0.17999 0.12446,0.0282 0.40488,-0.0259 0.62316,-0.12014 0.21828,-0.0943 1.09545,-0.40924 1.94927,-0.69989 1.51506,-0.51575 2.01948,-0.51008 2.01948,0.0227 0,0.3279 -1.79259,1.09721 -2.10571,0.90369 -0.12669,-0.0783 -0.27723,-0.002 -0.33455,0.17025 -0.0573,0.17194 -0.57349,0.3392 -1.14707,0.3717 -0.57358,0.0325 -1.22147,0.12142 -1.43975,0.19759 -0.21828,0.0762 -0.82955,0.21012 -1.35837,0.29764 -0.74082,0.12262 -0.99909,0.0611 -1.12533,-0.26784 z m -11.27464,-1.14058 c 0,-0.27322 0.1786,-0.64499 0.39688,-0.82615 0.21828,-0.18115 0.39687,-0.4325 0.39687,-0.55854 0,-0.23436 0.56337,-0.98973 1.38907,-1.86247 0.25466,-0.26917 0.46302,-0.61697 0.46302,-0.77289 0,-0.45692 0.75971,-1.08542 1.19984,-0.9926 0.33671,0.071 0.28355,0.33156 -0.31436,1.54067 -0.39579,0.80036 -0.91141,1.6338 -1.14583,1.85208 -0.23442,0.21828 -0.69656,0.78383 -1.02699,1.25677 -0.66331,0.9494 -1.3585,1.13522 -1.3585,0.36313 z m 10.44017,-1.10833 c -0.23934,-0.38726 -0.10555,-0.47411 0.94985,-0.61666 0.50221,-0.0678 1.50842,-0.308 2.23603,-0.53371 1.45557,-0.45151 2.49236,-0.34678 1.91904,0.19387 -0.47926,0.45193 -2.26639,1.03594 -2.57896,0.84276 -0.14637,-0.0905 -0.26613,-0.0384 -0.26613,0.11573 0,0.36655 -2.03317,0.36476 -2.25983,-0.002 z m -63.25107,-1.08365 c -0.40524,-0.6557 0.61133,-0.78456 2.37477,-0.30102 0.31933,0.0876 0.43163,0.0317 0.31511,-0.15688 -0.11209,-0.18137 0.048,-0.29293 0.42044,-0.29293 0.52187,0 0.5502,0.0482 0.21405,0.36404 -0.4971,0.46709 -3.0884,0.76859 -3.32437,0.38679 z m 61.07913,-0.65033 c -0.1819,-0.0795 -0.33073,-0.35595 -0.33073,-0.61426 0,-0.39277 0.24906,-0.47331 1.52136,-0.49203 0.83674,-0.0123 1.95603,-0.20442 2.4873,-0.42692 0.86247,-0.36121 1.00156,-0.36163 1.29847,-0.004 0.19887,0.23962 0.23601,0.49641 0.0924,0.63887 -0.53939,0.53502 -4.35358,1.21092 -5.06879,0.89821 z m 31.81223,-2.77138 c -0.57993,-0.30481 -1.29254,-0.70373 -1.58358,-0.88647 -0.29104,-0.18275 -1.46733,-0.54022 -2.61398,-0.79439 -2.0756,-0.46007 -4.00882,-1.30722 -4.80887,-2.10727 -0.23108,-0.23109 -0.56068,-0.42016 -0.73244,-0.42016 -0.32112,0 -1.31794,-1.74991 -1.64687,-2.89106 -0.10179,-0.35316 -0.46803,-0.94726 -0.81385,-1.32022 -0.34583,-0.37296 -0.62878,-0.76862 -0.62878,-0.87925 0,-0.11062 -0.18852,-0.20114 -0.41893,-0.20114 -0.2304,0 -0.36871,-0.14882 -0.30734,-0.33073 0.0714,-0.21163 -0.56375,-0.55124 -1.76389,-0.94312 -2.08434,-0.6806 -3.06609,-1.42618 -3.06609,-2.32853 0,-0.32984 -0.12871,-0.67927 -0.28602,-0.77649 -0.15732,-0.0972 -0.21364,-0.46518 -0.12517,-0.81768 0.11358,-0.45252 -0.0356,-0.89854 -0.50773,-1.51746 -0.36772,-0.48211 -0.66858,-1.05293 -0.66858,-1.26849 0,-0.21556 -0.29399,-0.66811 -0.65331,-1.00567 -0.35931,-0.33756 -0.58989,-0.71634 -0.51239,-0.84174 0.0775,-0.12539 -0.075,-0.31066 -0.33889,-0.41169 -0.26388,-0.10104 -0.67748,-0.42762 -0.9191,-0.72574 -0.39989,-0.49339 -0.76766,-0.54713 -4.09792,-0.5988 -2.01223,-0.0312 -3.69599,-0.16895 -3.74169,-0.30605 -0.0457,-0.1371 0.16096,-0.42022 0.45925,-0.62914 0.51984,-0.36411 0.49571,-0.39462 -0.58149,-0.73521 -0.61811,-0.19543 -1.21313,-0.3779 -1.32228,-0.40548 -0.10914,-0.0276 -0.25796,-0.0799 -0.33072,-0.11631 -0.0728,-0.0364 -0.57878,-0.0829 -1.12448,-0.10327 -1.23099,-0.0461 -1.65365,-0.30149 -1.65365,-0.99936 0,-0.42768 0.12577,-0.51247 0.59531,-0.40132 0.32743,0.0775 1.39625,0.22305 2.37517,0.32344 1.34541,0.13797 1.94644,0.3369 2.46229,0.81498 0.37534,0.34785 0.61836,0.73612 0.54005,0.86283 -0.22326,0.36124 1.98229,0.86955 3.15531,0.72719 0.58208,-0.0706 1.05833,-0.14603 1.05833,-0.16754 0,-0.0215 0.21567,-0.0801 0.47927,-0.13012 0.49084,-0.0932 3.0926,1.36914 3.0926,1.73825 0,0.11261 0.31248,0.57609 0.69439,1.02996 0.3819,0.45388 0.62079,0.89882 0.53085,0.98876 -0.0899,0.0899 0.0704,0.32739 0.35636,0.52768 0.46837,0.32806 1.23512,2.27466 1.10586,2.80753 -0.0285,0.11759 0.15294,0.64541 0.40326,1.17292 0.33332,0.70242 0.3701,0.98745 0.13742,1.06501 -0.17475,0.0583 -0.31772,0.23886 -0.31772,0.40136 0,0.21473 0.082,0.21343 0.30024,-0.005 0.22393,-0.22393 0.46939,-0.1894 0.96577,0.13584 0.36605,0.23984 0.81115,0.45744 0.98913,0.48356 1.22267,0.17945 4.09486,2.24097 4.09486,2.93909 0,0.14736 0.27966,0.55205 0.62146,0.89931 0.3418,0.34727 0.70131,0.95905 0.79891,1.35951 0.16264,0.66726 2.01921,2.89146 2.01921,2.41903 0,-0.11307 0.14883,-0.0236 0.33073,0.19893 0.38011,0.46489 3.2468,1.58716 3.47396,1.36 0.0832,-0.0832 0.31394,-0.0163 0.51274,0.14872 0.19881,0.16499 0.4309,0.23056 0.51576,0.1457 0.0849,-0.0849 0.60968,-0.007 1.16628,0.17284 2.3414,0.75684 4.0547,1.83252 4.0547,2.5457 0,0.49616 -0.50637,0.43639 -1.72371,-0.20345 z"
       id="path20" />
  </g>
</svg>
