<?xml version="1.0" encoding="UTF-8" standalone="no"?>
<!-- Created with Inkscape (http://www.inkscape.org/) -->

<svg
   width="118.42439mm"
   height="76.199501mm"
   viewBox="0 0 118.42438 76.199507"
   version="1.1"
   id="svg1"
   inkscape:version="1.4.1-rc (06eac75fbf, 2025-03-29)"
   sodipodi:docname="mount16b.svg"
   xmlns:inkscape="http://www.inkscape.org/namespaces/inkscape"
   xmlns:sodipodi="http://sodipodi.sourceforge.net/DTD/sodipodi-0.dtd"
   xmlns="http://www.w3.org/2000/svg"
   xmlns:svg="http://www.w3.org/2000/svg">
  <sodipodi:namedview
     id="namedview1"
     pagecolor="#ffffff"
     bordercolor="#000000"
     borderopacity="0.25"
     inkscape:showpageshadow="2"
     inkscape:pageopacity="0.0"
     inkscape:pagecheckerboard="0"
     inkscape:deskcolor="#d1d1d1"
     inkscape:document-units="mm"
     inkscape:zoom="0.72248176"
     inkscape:cx="224.22711"
     inkscape:cy="143.25621"
     inkscape:window-width="1850"
     inkscape:window-height="1016"
     inkscape:window-x="0"
     inkscape:window-y="0"
     inkscape:window-maximized="1"
     inkscape:current-layer="layer1" />
  <defs
     id="defs1" />
  <g
     inkscape:label="Layer 1"
     inkscape:groupmode="layer"
     id="layer1"
     transform="translate(-47.095814,-110.33159)">
    <path
       style="fill:#000000"
       d="m 47.131265,186.37233 c -0.23968,-0.3878 0.79078,-1.35633 1.44305,-1.35633 0.29572,0 0.9208,-0.15497 1.38906,-0.34438 0.95533,-0.38642 1.77744,-0.30718 1.77744,0.17132 0,0.30304 -1.55935,1.28493 -2.2057,1.38889 -0.16931,0.0272 -0.74069,0.13269 -1.26972,0.23435 -0.58782,0.11296 -1.02888,0.0765 -1.13413,-0.0939 z m 6.53346,-0.49247 c -0.18147,-0.47289 0.57856,-1.12844 1.30827,-1.12844 0.26687,0 1.16685,-0.24368 1.99995,-0.5415 0.83311,-0.29783 1.89157,-0.59346 2.35213,-0.65696 1.54759,-0.21337 4.85116,-1.42318 4.85116,-1.77655 0,-0.11 0.12428,-0.19999 0.27617,-0.19999 0.1519,0 0.99373,-0.59716 1.87074,-1.32701 1.50805,-1.25502 2.08642,-1.44664 2.08642,-0.69125 0,0.9066 -3.94793,3.17866 -8.33437,4.79646 -0.72761,0.26835 -1.44198,0.56929 -1.5875,0.66875 -0.24092,0.16467 -1.43311,0.4979 -3.7878,1.05873 -0.6835,0.1628 -0.91224,0.11811 -1.03517,-0.20224 z m -1.27333,-1.41063 c -0.0959,-0.1552 -0.13271,-0.31975 -0.0818,-0.36566 0.35016,-0.31552 2.79504,-1.25363 3.3643,-1.29089 1.19794,-0.0784 0.78494,0.62423 -0.75812,1.2898 -1.61174,0.6952 -2.26295,0.78981 -2.52442,0.36675 z m 18.53019,-7.3932 c -0.0908,-0.14688 0.21123,-0.4743 0.67112,-0.7276 0.4599,-0.25331 1.25789,-0.78798 1.77332,-1.18816 0.51542,-0.40018 1.07515,-0.7276 1.24382,-0.7276 0.16867,0 0.53925,-0.17547 0.82351,-0.38994 2.47374,-1.86634 3.23408,-2.35892 3.69184,-2.39169 0.40756,-0.0292 0.55957,-0.27633 0.66146,-1.07552 0.19716,-1.54643 0.87008,-1.38314 1.10633,0.26846 0.22881,1.59955 0.14071,1.76112 -0.85201,1.56257 -0.49683,-0.0994 -0.78349,-0.0478 -0.78349,0.14096 0,0.16371 -0.13133,0.29766 -0.29185,0.29766 -0.16052,0 -0.85928,0.50601 -1.5528,1.12448 -1.24731,1.11231 -5.23908,3.37343 -5.95545,3.37343 -0.20391,0 -0.44502,-0.12017 -0.5358,-0.26705 z m 12.03352,-5.17413 c -0.34235,-0.90045 -0.33986,-0.90882 0.27113,-0.90882 0.41157,0 0.52917,0.17639 0.52917,0.79375 0,0.97201 -0.4499,1.0367 -0.8003,0.11507 z m -0.39353,-2.25069 c -0.21954,-1.29941 -0.23726,-2.87148 -0.0347,-3.07408 0.081,-0.081 0.34094,-0.0731 0.57756,0.0177 0.34647,0.13296 0.40474,0.43547 0.29933,1.55404 -0.072,0.76393 -0.0121,1.53257 0.13314,1.70809 0.31399,0.37955 0.0683,0.87149 -0.43535,0.87149 -0.21253,0 -0.43196,-0.43775 -0.54001,-1.07729 z m 4.5387,0.61427 c -0.54651,-1.94102 -0.42361,-4.56406 0.21385,-4.56406 0.3386,0 0.88001,3.32166 0.72235,4.43177 -0.1,0.70403 -0.74938,0.7958 -0.9362,0.13229 z m 3.22875,-0.52917 c -0.48113,-0.83422 -1.30705,-4.44475 -1.33066,-5.81701 -0.002,-0.11124 -0.1083,-0.39812 -0.23641,-0.6375 -0.15535,-0.29027 -0.10924,-0.53789 0.13845,-0.74345 0.29983,-0.24884 0.44507,-0.1395 0.75391,0.56753 0.43353,0.9925 0.89771,2.61164 1.08542,3.78616 0.0698,0.43656 0.23238,1.27307 0.36135,1.85891 0.38313,1.74038 -0.0315,2.2695 -0.77206,0.98536 z m 3.26258,-3.30036 c -0.17116,-0.17116 -0.3112,-0.47977 -0.3112,-0.68579 0,-0.42277 -0.749,-2.85025 -1.09563,-3.55088 -0.37519,-0.75838 -0.27269,-1.78953 0.17789,-1.78953 0.22285,0 0.46966,0.20836 0.54848,0.46302 0.0788,0.25466 0.23853,0.64552 0.35493,0.86858 0.11639,0.22306 0.29752,0.79663 0.4025,1.27459 0.10498,0.47797 0.35751,1.18844 0.56118,1.57882 0.4652,0.89168 0.47268,1.48877 0.0233,1.86171 -0.25577,0.21228 -0.4342,0.20674 -0.66146,-0.0205 z m 12.981175,-1.20263 c -1.64768,-1.74511 -2.37056,-2.75552 -3.47596,-4.85848 -0.64009,-1.21773 -1.3247,-2.40202 -1.52136,-2.63176 -0.19666,-0.22974 -0.35756,-0.55716 -0.35756,-0.7276 0,-0.37876 -0.43689,-0.40869 -0.66146,-0.0453 -0.0899,0.14552 -0.40736,0.26458 -0.705375,0.26458 -0.40953,0 -0.49708,-0.11308 -0.35848,-0.46302 0.10085,-0.25466 0.23065,-0.70115 0.28842,-0.99219 0.0578,-0.29104 0.17605,-0.85659 0.262835,-1.25677 0.34623,-1.59669 -0.602075,-0.48683 -1.402515,1.64143 -0.28144,0.74832 0.40368,2.94279 1.427095,4.57102 0.34117,0.54281 0.62031,1.05365 0.62031,1.13519 0,0.0815 0.24996,0.48635 0.55547,0.89957 0.45466,0.61497 0.50099,0.85307 0.25527,1.3122 -0.1651,0.3085 -0.3943,0.5609 -0.50935,0.5609 -0.31349,0 -1.359715,-1.17925 -1.359715,-1.5326 0,-0.16933 -0.42349,-1.21241 -0.94109,-2.31796 -0.70388,-1.50342 -1.0229,-1.94219 -1.26565,-1.74073 -0.19797,0.1643 -0.47446,0.17671 -0.70891,0.0318 -0.31586,-0.19521 -0.32874,-0.38489 -0.0723,-1.0644 0.18031,-0.47769 0.247,-1.37657 0.15794,-2.12858 -0.14731,-1.24382 -0.12563,-1.3017 0.48761,-1.3017 0.56103,0 0.72286,-0.24134 1.28629,-1.91823 0.35449,-1.05503 0.79665,-2.15308 0.98258,-2.44012 0.18593,-0.28705 0.33806,-0.99186 0.33806,-1.56625 v -1.04436 l -0.99889,1.11472 c -0.76526,0.854 -1.27049,1.90105 -2.16008,4.47667 -1.07281,3.10607 -1.72396,4.28798 -2.36235,4.28798 -0.25858,0 0.22654,-2.5278 0.60158,-3.13462 0.4374,-0.70774 1.1647,-3.74476 0.93132,-3.88899 -0.35808,-0.22131 -0.29906,-0.6493 0.0896,-0.6493 0.18395,0 0.54383,-0.48328 0.79973,-1.07396 0.3348,-0.77281 0.60103,-1.05102 0.94945,-0.99218 0.6032,0.10186 2.653555,-1.53701 2.972535,-2.37599 0.17656,-0.46439 0.40415,-0.60106 0.89538,-0.53767 0.43181,0.0557 0.98665,-0.18836 1.61104,-0.70875 0.52382,-0.43656 1.06058,-0.80863 1.19282,-0.82682 0.13223,-0.0182 0.37106,-0.0479 0.53073,-0.0661 0.52456,-0.0598 3.94302,-3.54868 3.94302,-4.02429 0,-0.25565 0.9525,-1.4289 2.11667,-2.60724 1.25911,-1.27443 2.11667,-2.36191 2.11667,-2.68417 0,-0.79424 0.48454,-1.56581 0.88647,-1.41158 0.55859,0.21436 1.39034,-0.68165 2.40407,-2.58978 1.09479,-2.06071 1.12184,-2.21789 0.41362,-2.4031 -0.29104,-0.0761 -0.52916,-0.32928 -0.52916,-0.56261 0,-0.23333 0.23812,-0.62813 0.52916,-0.87732 0.29426,-0.25195 0.52917,-0.78051 0.52917,-1.19063 0,-0.41012 0.23491,-0.93868 0.52917,-1.19062 0.29104,-0.2492 0.52916,-0.65502 0.52916,-0.90182 0,-0.72789 0.29524,-1.28575 0.68046,-1.28575 0.19759,0 0.47575,-0.21767 0.61813,-0.4837 0.15974,-0.29849 0.82182,-0.60969 1.7291,-0.81273 0.80863,-0.18096 1.47068,-0.40978 1.47122,-0.50848 5.5e-4,-0.0987 0.56609,-0.39733 1.25677,-0.66361 2.37136,-0.91424 3.50474,-1.53533 3.50474,-1.92061 0,-0.16219 0.35719,-0.66865 0.79374,-1.12547 0.43656,-0.45682 0.79419,-0.9805 0.79474,-1.16372 0.002,-0.7726 1.08712,-2.02014 2.24339,-2.57988 0.68077,-0.32956 1.43654,-0.79772 1.6795,-1.04036 0.64392,-0.64308 1.75961,-1.06235 2.16319,-0.81292 0.1924,0.11891 0.75106,0.15108 1.24149,0.0715 0.52807,-0.0857 1.29256,0.0234 1.87478,0.26763 0.54072,0.22677 1.36148,0.56593 1.82393,0.75369 0.46245,0.18775 0.8013,0.4054 0.75299,0.48366 -0.0483,0.0783 0.22452,0.1611 0.60627,0.18407 0.38175,0.023 0.73744,0.1718 0.79041,0.33073 0.053,0.15893 0.20864,0.28896 0.34591,0.28896 0.13727,0 0.63336,0.34511 1.10243,0.76691 0.46906,0.4218 1.37736,1.16594 2.01843,1.65365 0.64108,0.4877 1.29166,1.12486 1.44575,1.4159 0.56956,1.07579 1.8688,2.91691 2.20312,3.122 0.18971,0.11637 0.34674,0.41403 0.34897,0.66146 0.003,0.30684 0.068,0.34931 0.20512,0.13359 0.1423,-0.22384 0.49865,-0.24916 1.21923,-0.0866 1.34411,0.30315 2.6164,1.68145 3.21041,3.47793 0.79933,2.41742 1.72104,3.61851 3.54917,4.625 0.86646,0.47703 1.78945,1.16317 2.54394,1.89114 0.18853,0.1819 0.47654,0.33073 0.64003,0.33073 0.16348,0 0.42176,0.35718 0.57395,0.79375 0.15218,0.43656 0.43418,0.79375 0.62667,0.79375 0.19248,0 0.42723,0.35179 0.52167,0.78175 0.0944,0.42997 0.37179,0.84981 0.61633,0.93298 0.24455,0.0832 0.77206,0.44005 1.17224,0.79306 1.20736,1.06502 0.82975,2.16599 -0.40876,1.19178 -0.36817,-0.2896 -0.94283,-0.49633 -1.27702,-0.45941 -0.41526,0.0459 -0.64035,-0.0909 -0.71096,-0.43193 -0.30784,-1.48677 -3.48976,-5.45341 -4.3749,-5.45383 -0.26829,-1.3e-4 -0.54452,-0.2086 -0.61385,-0.46326 -0.0693,-0.25466 -0.56461,-0.66717 -1.10064,-0.91668 -1.04167,-0.48488 -1.65079,-1.41721 -2.21008,-3.3828 -0.60288,-2.11876 -1.46586,-3.13844 -3.04457,-3.59738 -0.76981,-0.22379 -1.51253,-0.33714 -1.65048,-0.25188 -0.31815,0.19663 -1.53273,-1.46411 -2.56178,-3.50281 -1.23905,-2.45474 -6.88336,-5.87802 -10.3275,-6.26363 -0.55079,-0.0617 -0.54192,0.004 0.34235,2.54933 0.49928,1.43695 0.84684,2.71125 0.77235,2.83178 -0.0745,0.12052 0.0356,0.44503 0.24455,0.72113 0.47142,0.62281 0.50881,1.42907 0.0661,1.42501 -0.30557,-0.003 -1.35611,-1.85612 -1.41463,-2.49564 -0.0141,-0.1537 -0.11479,-0.51757 -0.22382,-0.80862 -0.10904,-0.29104 -0.26466,-0.70776 -0.34584,-0.92604 -0.0812,-0.21828 -0.1935,-0.66934 -0.24961,-1.00235 -0.15805,-0.93795 -0.57386,-1.90806 -0.81783,-1.90806 -0.70376,0 -1.10319,0.69858 -0.94548,1.65364 0.0901,0.5457 0.26733,0.99219 0.39381,0.99219 0.12648,0 0.22998,0.17179 0.22998,0.38175 0,0.20996 0.23041,0.77551 0.51204,1.25677 0.28161,0.48126 0.65549,1.45071 0.83083,2.15433 0.17534,0.70361 0.4807,1.34143 0.67858,1.41737 0.19788,0.0759 0.3598,0.35881 0.3598,0.62861 0,0.26981 0.22499,0.70355 0.49996,0.96388 0.58875,0.55737 0.61138,1.79625 0.0328,1.79625 -0.21628,0 -0.43901,-0.23761 -0.49493,-0.52801 -0.0559,-0.29041 -0.32545,-0.81248 -0.59895,-1.16016 -0.27348,-0.34769 -0.49725,-0.91749 -0.49725,-1.26623 0,-0.34875 -0.18039,-0.70331 -0.40087,-0.78792 -0.22048,-0.0846 -0.68161,-0.74043 -1.02473,-1.45738 -0.54738,-1.14376 -0.64298,-1.23046 -0.7798,-0.70723 -0.0892,0.34095 -0.0186,0.68122 0.16483,0.79455 0.17644,0.10902 0.32554,0.76881 0.33137,1.46619 0.006,0.69738 0.12173,1.44587 0.25759,1.66332 0.13585,0.21745 0.26178,0.51443 0.27984,0.65995 0.0181,0.14552 0.051,0.39953 0.0731,0.56445 0.0222,0.16493 0.26909,0.35971 0.54872,0.43283 0.38072,0.0996 0.55027,0.45623 0.67501,1.41992 0.0916,0.70783 0.28228,1.49807 0.42367,1.75608 0.29683,0.54168 -0.10874,1.51526 -0.63122,1.51526 -0.22533,0 -0.29569,0.34315 -0.22416,1.09318 0.0717,0.75147 0.0129,1.03674 -0.18789,0.91263 -0.20071,-0.12405 -0.22607,-0.002 -0.0811,0.39006 0.24056,0.6503 0.0897,2.10205 -0.21846,2.10205 -0.11262,0 -0.48606,-0.35503 -0.82986,-0.78896 -0.38996,-0.49219 -0.78748,-0.73804 -1.05678,-0.65358 -0.2507,0.0786 -0.50181,-0.0473 -0.59894,-0.30045 -0.14291,-0.37243 -0.2437,-0.33864 -0.69279,0.23229 -0.65188,0.82873 -0.65325,1.0124 -0.0137,1.8255 0.72132,0.91702 0.83273,2.19874 0.19113,2.19874 -0.32925,0 -0.60211,-0.33301 -0.84012,-1.02531 -0.19386,-0.56393 -0.48044,-1.15329 -0.63685,-1.30969 -0.15641,-0.15641 -0.28438,-0.48023 -0.28438,-0.71962 0,-0.23938 -0.24232,-0.65454 -0.53849,-0.92257 -0.29618,-0.26804 -0.48185,-0.63497 -0.41261,-0.81542 0.13926,-0.36291 -0.52794,-1.04764 -0.69215,-0.71034 -0.0566,0.11621 -0.0794,0.74707 -0.0507,1.40191 0.0287,0.65484 0.0644,1.75617 0.0793,2.44739 0.0293,1.35929 0.39432,1.67352 0.66965,0.57652 0.31932,-1.27227 0.81171,-0.54456 0.83345,1.23178 0.0114,0.93359 0.103,2.02486 0.20348,2.42504 0.20519,0.81719 0.70178,0.98881 0.70178,0.24253 0,-0.67209 0.28209,-0.88811 0.70326,-0.53857 0.21302,0.17679 0.35508,0.84038 0.35508,1.65863 0,0.80671 0.1684,1.60436 0.4122,1.95244 0.22671,0.32367 0.34383,0.69913 0.26027,0.83434 -0.0836,0.13521 -0.0443,0.31238 0.0873,0.39371 0.1316,0.0813 0.31943,-0.3867 0.41741,-1.04005 0.11305,-0.75393 0.31283,-1.18793 0.54681,-1.18793 0.40118,0 0.54949,0.68441 0.76987,3.55283 0.12777,1.66304 0.39218,2.25153 1.01719,2.26395 0.11207,0.002 0.12529,-1.11251 0.0294,-2.47721 -0.0959,-1.3647 -0.0939,-2.8019 0.004,-3.1938 0.19849,-0.79086 0.81332,-0.78357 0.83387,0.01 0.0388,1.50041 0.48515,3.83476 0.94781,4.95744 0.57118,1.38601 0.33711,2.18437 -0.55719,1.90053 -0.30172,-0.0958 -0.5464,0.0748 -0.75072,0.5232 -0.31217,0.68513 -1.28156,0.96947 -1.0249,0.30062 0.14059,-0.36637 -0.27041,-0.95828 -0.66539,-0.95828 -0.11642,0 -0.21167,0.35016 -0.21167,0.77813 0,0.86984 -0.27815,1.15367 -0.89764,0.91595 -0.33265,-0.12765 -0.39322,-0.47275 -0.30163,-1.7187 0.11585,-1.57613 -0.32312,-3.47079 -0.79551,-3.43348 -0.1455,0.0115 -0.25418,1.23583 -0.25418,2.86356 0,1.56393 -0.0897,2.98158 -0.19929,3.15035 -0.10961,0.16877 -0.12664,0.49619 -0.0378,0.7276 0.0888,0.23142 0.0351,0.42076 -0.11944,0.42076 -0.29593,0 -0.6547,-1.48192 -0.65656,-2.71198 -7.4e-4,-0.48864 -0.13869,-0.72628 -0.42003,-0.72356 -0.76709,0.007 -1.019,0.38253 -1.03347,1.53889 -0.0141,1.13029 -0.60766,2.42581 -1.11134,2.42581 -0.32771,0 -0.32127,-1.21276 0.0189,-3.5669 0.14681,-1.01591 0.19013,-2.19675 0.0963,-2.62409 -0.30287,-1.37899 -0.61725,-0.15154 -1.00964,3.94203 -0.091,0.94946 -0.92513,3.04271 -1.21246,3.04271 -0.56242,0 -0.77678,-0.72664 -0.46109,-1.56301 0.28853,-0.76439 0.26737,-0.90313 -0.18853,-1.23649 -0.74324,-0.54348 -0.82275,-0.4935 -1.19155,0.74898 -0.3214,1.08284 -1.05539,2.05052 -1.55534,2.05052 -0.51544,0 -1.60478,-1.09183 -1.4616,-1.46494 0.0817,-0.21293 0.0168,-0.38714 -0.14433,-0.38714 -0.16109,0 -0.29289,0.18732 -0.29289,0.41627 0,0.25546 -0.17888,0.38039 -0.46302,0.32337 -0.37829,-0.0759 -0.44693,-0.32156 -0.37504,-1.34232 0.0984,-1.39701 -0.22241,-1.62093 -0.74754,-0.5218 -0.55406,1.15973 -0.4956,1.6259 0.33398,2.66346 0.42857,0.53601 0.88257,1.24245 1.00887,1.56987 0.1263,0.32743 0.33875,0.59532 0.47211,0.59532 0.13334,0 0.31715,0.29765 0.40845,0.66145 0.0913,0.36381 0.28282,0.66146 0.42556,0.66146 0.35641,0 0.32809,0.72016 -0.0372,0.94592 -0.36741,0.22708 -1.30654,-0.77567 -3.59515,-3.8387 -0.0471,-0.0631 -0.22656,0.0262 -0.39876,0.19844 -0.35151,0.35151 -0.75279,0.41677 -0.70509,0.11466 0.0172,-0.10915 0.005,-0.3175 -0.0261,-0.46303 -0.0316,-0.14552 -0.0754,-0.55173 -0.0975,-0.90269 -0.0591,-0.94068 -0.60602,-0.96394 -0.79207,-0.0337 -0.11898,0.59492 -0.308,0.80408 -0.72663,0.80408 -0.61083,0 -0.61178,-0.19002 -0.0125,-2.50831 0.22466,-0.86906 0.19621,-1.13712 -0.16276,-1.53377 -0.41665,-0.4604 -0.45143,-0.44946 -0.82462,0.25935 -0.21429,0.40701 -0.48573,1.25082 -0.6032,1.87512 -0.18356,0.97553 -0.11214,1.31906 0.50801,2.44359 0.39688,0.71966 0.87042,1.3102 1.05232,1.31229 0.18191,0.002 0.33073,0.24194 0.33073,0.53298 0,0.29104 0.11375,0.52917 0.25277,0.52917 0.3368,0 2.39307,3.48025 2.39307,4.05029 0,0.68332 -0.9737,0.55627 -1.15101,-0.15019 -0.0825,-0.3288 -0.57169,-1.05814 -1.08702,-1.62076 -0.51534,-0.56261 -0.93697,-1.16811 -0.93697,-1.34555 0,-0.17743 -0.23813,-0.53811 -0.52917,-0.8015 -0.29104,-0.26339 -0.52917,-0.63903 -0.52917,-0.83476 0,-0.19572 -0.11906,-0.35586 -0.26458,-0.35586 -0.14552,0 -0.26458,-0.16402 -0.26458,-0.36448 0,-0.20047 -0.17859,-0.5127 -0.39688,-0.69386 -0.33478,-0.27784 -0.39687,-0.22588 -0.39687,0.33208 0,0.36381 -0.16421,0.79774 -0.36491,0.96431 -0.2905,0.24109 -0.38994,0.1719 -0.48766,-0.33925 -0.0675,-0.35316 -0.008,-0.8471 0.13219,-1.09765 0.27028,-0.48296 -0.14838,-2.33827 -0.67266,-2.98087 -0.37897,-0.4645 -0.71266,0.0599 -0.72356,1.13701 -0.004,0.43656 -0.16695,1.25015 -0.36117,1.80798 -0.31317,0.89946 -0.29809,1.12219 0.13328,1.9683 0.26753,0.52473 0.91021,1.49708 1.42819,2.16077 1.59872,2.04842 2.52498,3.64579 2.68465,4.62969 0.12468,0.76824 0.0704,0.94263 -0.29316,0.94263 -0.28354,0 -0.68858,-0.52957 -1.1114,-1.45312 -0.36589,-0.79922 -0.86532,-1.6034 -1.10983,-1.78708 -0.57494,-0.43189 -1.57534,-1.85953 -1.89833,-2.7091 -0.13912,-0.3659 -0.37918,-0.66528 -0.53348,-0.66528 -0.15429,0 -0.51019,-0.53578 -0.79089,-1.19063 -0.2807,-0.65484 -0.62443,-1.19062 -0.76383,-1.19062 -0.32898,0 -0.87161,1.65262 -0.89664,2.73077 -0.0228,0.98161 2.83079,6.99027 4.0459,8.51929 0.6114,0.76934 0.72384,1.07805 0.49366,1.35539 -0.48206,0.58085 -0.93905,0.41649 -1.30615,-0.46977 -0.18884,-0.45589 -0.59024,-1.14145 -0.892,-1.52345 -0.8065,-1.02096 -1.06249,-1.47519 -2.51337,-4.45973 -1.14411,-2.35353 -1.39805,-2.70245 -1.92556,-2.64584 -0.57117,0.0613 -0.60418,-0.0181 -0.55,-1.32385 0.0317,-0.76398 -0.056,-1.38906 -0.19489,-1.38906 -0.33186,0 -1.05338,1.7438 -1.05338,2.54585 0,0.38286 -0.15537,0.62915 -0.39688,0.62915 -0.21828,0 -0.39687,0.13222 -0.39687,0.29383 0,0.47432 1.87329,4.12707 2.41443,4.70792 0.27279,0.2928 0.49598,0.65641 0.49598,0.80802 0,0.15161 0.11907,0.27565 0.26459,0.27565 0.14552,0 0.26458,0.15004 0.26458,0.33343 0,0.18339 0.27642,0.63154 0.61427,0.9959 0.69544,0.75 1.04383,1.77081 0.68088,1.99512 -0.13346,0.0825 -0.56878,-0.19541 -0.96735,-0.61755 z m -3.81846,-10.84284 c 0.15283,-0.5457 0.45974,-1.46844 0.68203,-2.05052 0.22228,-0.58209 0.40939,-1.45597 0.41578,-1.94198 0.0111,-0.84671 1.33952,-5.20171 1.89719,-6.21972 0.38843,-0.70909 0.0898,-0.83737 -0.55364,-0.23787 -0.44093,0.41079 -1.66787,3.43661 -2.70859,6.67978 -0.07,0.21828 -0.33245,1.02989 -0.58313,1.80358 -0.48357,1.49253 -0.37017,2.95892 0.22882,2.95892 0.18902,0 0.46871,-0.44649 0.62154,-0.99219 z m 4.19312,-1.26818 c 0.21425,-0.55836 -0.14338,-0.85982 -0.44821,-0.3778 -0.32391,0.51216 -0.31741,0.78608 0.0186,0.78608 0.15009,0 0.34339,-0.18373 0.42956,-0.40828 z m -5.70295,-1.84068 c 0.27213,-0.87312 0.49654,-1.84085 0.49869,-2.1505 0.002,-0.30965 0.18249,-0.99043 0.40077,-1.51285 0.46579,-1.1148 0.52475,-2.37649 0.10451,-2.23641 -0.34454,0.11484 -1.02085,1.94324 -1.02657,2.7753 -0.002,0.31883 -0.11617,0.64903 -0.25328,0.73377 -0.13711,0.0847 -0.32181,0.71684 -0.41043,1.40467 -0.0886,0.68784 -0.2741,1.45735 -0.41216,1.71004 -0.372695,0.68209 -0.305185,1.04542 0.17632,0.94903 0.26227,-0.0525 0.6185,-0.69881 0.92215,-1.67305 z m 4.42899,0.0661 c 0.13854,-1.17376 0.19457,-1.4077 0.66465,-2.77501 0.50781,-1.47705 0.78219,-1.80109 1.26986,-1.4997 0.21349,0.13195 0.16917,0.28737 -0.14814,0.51938 -0.26272,0.19211 -0.34275,0.3991 -0.19065,0.4931 0.38308,0.23675 0.57614,-0.20107 1.00731,-2.28428 0.23812,-1.1505 0.29171,-1.95952 0.13986,-2.11137 -0.42853,-0.42853 -2.20531,2.37658 -2.61341,4.12596 -0.20466,0.87728 -0.47464,1.65878 -0.59997,1.73666 -0.20849,0.12957 -0.37723,1.25455 -0.30896,2.05984 0.049,0.57851 0.70626,0.35541 0.77945,-0.26458 z m 4.16168,-1.71979 c 0.096,-0.5457 0.34865,-1.70656 0.56144,-2.57969 0.21278,-0.87312 0.42343,-1.94469 0.46812,-2.38125 0.18319,-1.78956 0.4571,-3.43831 0.61317,-3.69084 0.0913,-0.14773 0.18604,-0.44929 0.21054,-0.67013 0.0245,-0.22084 0.13216,-0.60989 0.23927,-0.86455 0.22388,-0.53232 -0.19942,-0.62905 -0.57889,-0.13229 -0.50306,0.65856 -0.89148,2.07645 -2.01132,7.34219 -0.36995,1.73955 -0.31473,3.96875 0.0983,3.96875 0.12364,0 0.30336,-0.44649 0.39938,-0.99219 z m 13.51479,0.13229 c -0.0188,-0.1819 0.12421,-1.11973 0.31779,-2.08406 0.33931,-1.69045 0.32973,-1.78759 -0.26717,-2.7087 -0.6962,-1.07432 -1.016,-1.21173 -1.016,-0.43656 0,0.28896 -0.14454,1.06582 -0.32121,1.72636 -0.27292,1.02039 -0.25687,1.3293 0.10672,2.05432 0.23535,0.46933 0.49523,1.06169 0.57749,1.31635 0.17045,0.52769 0.65419,0.63393 0.60238,0.13229 z m -9.96121,-2.04073 c 0,-0.28565 0.24251,-1.13463 0.53892,-1.88662 0.49951,-1.26728 0.50737,-1.4021 0.10742,-1.84403 -0.23732,-0.26223 -0.59889,-0.41255 -0.8035,-0.33403 -0.22452,0.0862 -0.37202,-0.0258 -0.37202,-0.28243 0,-0.23385 -0.11366,-0.42518 -0.25259,-0.42518 -0.22672,0 -0.34622,0.47782 -0.65952,2.63685 -0.0532,0.36673 0.12577,0.93275 0.40871,1.29245 0.27687,0.35199 0.5034,0.80252 0.5034,1.00117 0,0.19866 0.11907,0.3612 0.26459,0.3612 0.14552,0 0.26458,-0.23372 0.26459,-0.51938 z m 5.00165,-0.20823 c -0.0323,-0.25466 0.0327,-0.79044 0.14434,-1.19062 0.11168,-0.40019 0.11736,-1.05503 0.0126,-1.45521 -0.16996,-0.64952 -0.23823,-0.54303 -0.63624,0.99219 -0.24522,0.94588 -0.40355,1.80908 -0.35185,1.91823 0.1925,0.4063 0.88808,0.18486 0.83111,-0.26459 z m 8.33062,-1.45521 c 0.095,-0.61846 0.24322,-2.11354 0.32933,-3.32239 0.13833,-1.94187 0.0995,-2.23966 -0.33345,-2.55623 -0.26951,-0.19707 -0.56704,-0.31071 -0.66117,-0.25253 -0.0941,0.0582 -0.31506,1.26801 -0.49092,2.68852 -0.27974,2.25948 -0.26652,2.70692 0.10564,3.57493 0.23397,0.5457 0.52719,0.99218 0.6516,0.99218 0.1244,0 0.30394,-0.50601 0.39897,-1.12448 z m 4.3948,-0.47863 c 0,-0.13693 -0.11906,-0.24897 -0.26457,-0.24897 -0.14553,0 -0.26459,0.18562 -0.26459,0.41249 0,0.22687 0.11906,0.3389 0.26459,0.24897 0.14551,-0.0899 0.26457,-0.27556 0.26457,-0.41249 z m -14.15106,-1.23824 c 0.36246,-1.83634 0.34647,-2.16459 -0.15314,-3.14455 -0.5527,-1.08409 -0.61757,-0.9994 -0.98158,1.28143 -0.18745,1.17457 -0.15499,1.69187 0.14506,2.3114 0.472,0.97454 0.73207,0.85673 0.98966,-0.44828 z m 4.01306,0.41049 c -0.0845,-0.21106 -0.14716,-0.14837 -0.15986,0.15986 -0.0115,0.27891 0.0511,0.43518 0.13897,0.34726 0.0879,-0.0879 0.0973,-0.31612 0.0209,-0.50712 z m 9.9936,-2.62838 c -0.0682,-1.32315 -0.19752,-2.52476 -0.28743,-2.67024 -0.28167,-0.45575 -0.61815,0.38882 -0.62245,1.56231 -0.002,0.60987 -0.12505,1.18364 -0.27295,1.27505 -0.14789,0.0914 -0.18943,0.29477 -0.0923,0.45192 0.0971,0.15716 0.1995,0.59542 0.22748,0.97391 0.10266,1.38813 0.10118,1.38566 0.65267,1.09051 0.47226,-0.25274 0.50779,-0.4941 0.39498,-2.68346 z m -9.5412,1.46573 c 0.0883,-0.23019 0.15307,-0.85526 0.14383,-1.38906 -0.013,-0.75272 -0.0634,-0.85179 -0.22463,-0.44139 -0.36536,0.93009 -0.54683,2.24896 -0.30945,2.24896 0.12632,0 0.30193,-0.18833 0.39025,-0.41851 z m -1.49906,-0.54632 c -0.0736,-0.38513 0.0425,-1.21788 0.25809,-1.85054 0.36863,-1.08189 0.35722,-1.22203 -0.19186,-2.35627 -0.32109,-0.66329 -0.62972,-1.16006 -0.68584,-1.10394 -0.12993,0.12994 -0.36872,1.56679 -0.51519,3.10004 -0.13694,1.43352 0.30029,2.91096 0.86146,2.91096 0.29769,0 0.37119,-0.18832 0.27334,-0.70025 z m 4.60828,-0.42423 c 0.17991,-4.05074 0.12564,-5.50893 -0.21558,-5.79211 -0.20052,-0.16641 -0.40171,-0.25584 -0.4471,-0.19872 -0.0454,0.0571 -0.26556,1.15965 -0.48927,2.45006 -0.36478,2.10418 -0.36512,2.45219 -0.003,3.37344 0.49758,1.2667 1.10247,1.35432 1.15519,0.16733 z m 4.45973,-1.78594 c 0,-0.29104 -0.11908,-0.52916 -0.26459,-0.52916 -0.14553,0 -0.26459,0.23812 -0.26459,0.52916 0,0.29104 0.11906,0.52917 0.26459,0.52917 0.14551,0 0.26459,-0.23813 0.26459,-0.52917 z m -13.81631,-1.77405 c 0.56453,-3.43337 0.65967,-4.9088 0.30898,-4.79191 -0.2049,0.0683 -0.36036,0.84815 -0.42374,2.12573 -0.0551,1.10982 -0.26128,2.40118 -0.45827,2.86969 -0.34927,0.83065 -0.29228,1.94641 0.0874,1.71174 0.1045,-0.0646 0.32303,-0.92645 0.48561,-1.91525 z m 13.81631,-0.25442 c 0,-0.53358 -0.0828,-0.88732 -0.18405,-0.78609 -0.24566,0.24566 -0.36185,1.01507 -0.21526,1.4255 0.221,0.61881 0.39931,0.3333 0.39931,-0.63941 z m -6.61166,-0.0937 c 0.15737,-0.29405 0.21545,-0.649 0.12906,-0.78878 -0.0864,-0.13978 -0.027,-0.97167 0.13206,-1.84865 0.19695,-1.08608 0.20351,-1.74149 0.0206,-2.05549 -0.23181,-0.39793 -0.26965,-0.36749 -0.27659,0.22252 -0.004,0.37593 -0.0909,0.76633 -0.19209,0.86755 -0.20399,0.20398 -0.19659,0.16343 -0.45315,2.48384 -0.18801,1.70047 0.0791,2.16735 0.64012,1.11901 z m -4.49445,-2.68411 c -0.008,-0.6789 -0.18418,-1.56138 -0.39154,-1.96106 l -0.37702,-0.7267 -0.12518,0.63815 c -0.22435,1.14376 -0.11209,4.06479 0.17706,4.60689 0.25799,0.4837 0.30153,0.4496 0.50672,-0.39687 0.12347,-0.50932 0.21795,-1.48151 0.20996,-2.16041 z m 9.83245,0.39798 c -0.0234,-1.12252 -0.16319,-2.1615 -0.31053,-2.30884 -0.14735,-0.14734 -0.2679,-0.46947 -0.2679,-0.71584 0,-0.66509 -0.73522,-0.8412 -0.93139,-0.2231 -0.28367,0.89374 -0.17994,3.44941 0.17511,4.31447 0.86684,2.11204 1.39233,1.69207 1.33471,-1.06669 z m 1.3746,0.82265 c 0.0904,-0.23546 0.046,-0.34167 -0.10398,-0.24897 -0.14386,0.0889 -0.26156,0.27368 -0.26156,0.41061 0,0.38059 0.18965,0.29672 0.36554,-0.16164 z m -8.27934,-4.8314 c 0.009,-1.78686 -0.0984,-2.86361 -0.31126,-3.12007 -0.51572,-0.6214 -0.73339,-0.12396 -0.99763,2.2799 -0.28321,2.57652 -0.15377,3.89205 0.45076,4.58112 0.40481,0.46142 0.43354,0.44944 0.63421,-0.26458 0.11561,-0.41135 0.21637,-1.97571 0.22392,-3.47637 z m 4.0774,-0.41064 c 0.0669,-1.91808 -4e-4,-2.59472 -0.28121,-2.82777 -0.30852,-0.25605 -0.36401,-0.0737 -0.33784,1.11047 0.0172,0.77925 -0.004,1.96369 -0.0469,2.63207 -0.073,1.13527 0.15817,2.02647 0.44999,1.73466 0.0704,-0.0704 0.16758,-1.26265 0.21593,-2.64943 z m -1.78186,-2.02 c 0.0111,-1.42494 -0.25466,-2.15303 -0.64378,-1.76391 -0.30002,0.30003 -0.3682,1.95256 -0.10873,2.63505 0.44341,1.16625 0.73933,0.82368 0.75251,-0.87114 z m 4.43579,0.46276 c -0.0815,-0.47295 -0.0431,-1.75287 0.0853,-2.84427 0.1284,-1.09141 0.14591,-2.14973 0.0389,-2.35184 -0.11564,-0.21842 -0.26902,0.2287 -0.37818,1.10242 -0.1728,1.38304 -0.70354,2.11848 -1.08427,1.50244 -0.38546,-0.62369 -0.57046,-0.1612 -0.29567,0.73916 0.35478,1.16248 1.24751,2.71198 1.56246,2.71198 0.12075,0 0.15288,-0.38695 0.0714,-0.85989 z m 3.56372,-3.25676 c 0,-0.95448 -0.0893,-1.68022 -0.19843,-1.61277 -0.10915,0.0674 -0.18356,0.4912 -0.16537,0.94166 0.0182,0.45046 0.048,1.1762 0.0662,1.61276 0.0634,1.52178 0.29765,0.78071 0.29765,-0.94165 z m 3.5608,-0.5797 c -0.0222,-1.12779 -0.14546,-2.34818 -0.2739,-2.71198 -0.1932,-0.54723 -0.26041,-0.36447 -0.38918,1.05833 -0.19096,2.10993 -0.0219,3.70417 0.39291,3.70417 0.21442,0 0.29804,-0.63468 0.27017,-2.05052 z m -11.76288,0.0818 c 0,-0.64626 -0.11906,-1.2486 -0.26458,-1.33853 -0.16307,-0.10079 -0.26459,0.35003 -0.26459,1.17501 0,0.73619 0.11907,1.33853 0.26459,1.33853 0.14552,0 0.26458,-0.52876 0.26458,-1.17501 z m -1.77549,-0.41275 c -0.0761,-0.2909 -0.24349,-0.52891 -0.37203,-0.52891 -0.27278,0 -0.29862,0.31675 -0.0737,0.90288 0.22621,0.58949 0.61287,0.26509 0.44574,-0.37397 z m 4.98357,-2.18297 c -0.0139,-0.92617 0.067,-2.03421 0.17981,-2.46233 0.11279,-0.42812 0.16226,-1.04649 0.10993,-1.37415 -0.1472,-0.92167 -0.70924,-0.14703 -0.76819,1.05877 -0.15731,3.21758 -0.15105,4.10889 0.0309,4.40329 0.3497,0.56584 0.47367,0.11561 0.44755,-1.62558 z m 3.6711,0.33115 c 0,-0.72761 0.009,-1.40924 0.0198,-1.51474 0.0109,-0.10551 -0.10485,-0.23339 -0.25725,-0.2842 -0.16107,-0.0537 -0.26288,0.28623 -0.24313,0.81171 0.0187,0.49725 -0.0445,1.03111 -0.14047,1.18636 -0.21146,0.34216 0.0561,1.12378 0.38473,1.12378 0.12995,0 0.23628,-0.59531 0.23628,-1.32291 z m -8.59536,-0.46908 c 0.0584,-0.74209 -0.009,-0.83652 -0.56398,-0.79059 -0.61887,0.0512 -0.8233,0.44925 -0.43181,0.84074 0.10914,0.10914 0.21332,0.30758 0.2315,0.44097 0.0689,0.50531 0.10713,0.54859 0.3986,0.45143 0.16466,-0.0549 0.32921,-0.47904 0.36569,-0.94255 z m 11.66562,0.27615 c -0.26895,-0.26895 -0.49087,0.13597 -0.27019,0.49302 0.16668,0.26972 0.22902,0.26993 0.31863,10e-4 0.0613,-0.18383 0.0395,-0.40617 -0.0484,-0.49409 z m -4.42734,-3.4451 c 0.0349,-1.10406 -0.0413,-1.38906 -0.37122,-1.38906 -0.34067,0 -0.39204,0.24901 -0.28652,1.38906 0.0707,0.76399 0.14379,1.62719 0.16241,1.91823 l 0.0339,0.52917 0.2088,-0.52917 c 0.11484,-0.29104 0.22854,-1.15424 0.25267,-1.91823 z m 3.33179,0.72761 c 0.0947,-0.80037 0.23224,-1.66117 0.30554,-1.91289 0.0733,-0.25173 0.0106,-0.66845 -0.13941,-0.92604 -0.2964,-0.50913 -0.29543,-0.51022 -0.41016,0.45768 -0.0431,0.3638 -0.16779,1.22039 -0.27703,1.90353 -0.17593,1.1001 -0.0277,2.31973 0.24755,2.03694 0.0557,-0.0572 0.17876,-0.75886 0.27351,-1.55922 z m -7.6939,0.61309 c 0.25627,0.0983 0.40856,-0.0994 0.4867,-0.63186 0.12473,-0.84982 -0.0211,-0.89801 -1.28343,-0.42412 -0.72528,0.27227 -0.79841,0.38778 -0.59267,0.93611 0.19328,0.51512 0.30369,0.56827 0.62556,0.30113 0.21497,-0.17841 0.5587,-0.25998 0.76384,-0.18126 z m 9.15876,-0.62871 c 0,-0.13693 -0.11906,-0.24896 -0.26457,-0.24896 -0.14553,0 -0.26459,0.18562 -0.26459,0.41249 0,0.22686 0.11906,0.3389 0.26459,0.24896 0.14551,-0.0899 0.26457,-0.27555 0.26457,-0.41249 z m -2.80014,-3.75469 c -0.0803,-0.25467 -0.25698,-0.46302 -0.39269,-0.46302 -0.28947,0 -0.33663,1.93859 -0.054,2.22119 0.26203,0.26203 0.62865,-1.1809 0.44671,-1.75817 z m 2.37822,-2.6911 c 0.12158,-0.98026 -0.40638,-2.32979 -0.71447,-1.82625 -0.42573,0.69583 -0.0949,3.53932 0.35904,3.08543 0.12511,-0.1251 0.28503,-0.69173 0.35543,-1.25918 z m -2.06763,0.44409 c -0.18347,-0.18349 -0.68545,0.18932 -0.68545,0.50908 0,0.17544 0.15181,0.15537 0.40327,-0.0533 0.2218,-0.18407 0.34878,-0.38917 0.28218,-0.45576 z m -33.541425,49.47513 c -1.65568,-1.94449 -3.37014,-7.20989 -2.3476,-7.20989 0.31598,0 0.71794,0.57239 0.929,1.32291 0.29659,1.05464 1.15986,2.85335 1.45781,3.0375 0.15016,0.0928 0.27302,0.39983 0.27302,0.68228 0,0.28246 0.10616,0.51356 0.2359,0.51356 0.12975,0 0.30783,0.28659 0.39575,0.63687 0.0879,0.35029 0.23262,0.82654 0.32157,1.05834 0.22662,0.59056 -0.75466,0.55833 -1.26545,-0.0416 z m -14.65746,-4.39512 c -0.25041,-0.64633 0.31875,-1.57997 2.01147,-3.29961 1.25937,-1.27939 4.48253,-3.34189 4.94488,-3.16423 0.11049,0.0425 0.24101,-0.13117 0.29005,-0.38583 0.049,-0.25466 -0.0386,-0.46302 -0.19481,-0.46302 -0.15619,0 -0.28398,-0.12709 -0.28398,-0.28241 0,-0.15579 0.22255,-0.21178 0.49636,-0.12488 0.3458,0.10976 0.53597,0.006 0.6269,-0.34159 0.076,-0.2907 0.4488,-0.56026 0.89269,-0.64551 0.91593,-0.17591 1.17502,0.001 0.61901,0.42383 -0.22379,0.17001 -0.56333,0.84488 -0.75451,1.49973 -0.44424,1.52163 -0.72513,1.85115 -1.58212,1.85606 -1.41209,0.008 -3.73792,1.17931 -3.73792,1.8823 0,0.11923 -0.42573,0.60679 -0.94608,1.08348 -1.20627,1.10505 -1.37401,1.28227 -1.82217,1.92503 -0.35463,0.50863 -0.37636,0.51005 -0.55977,0.0367 z m 9.28456,-4.13217 c -0.0975,-0.15785 0.24872,-1.16103 0.7695,-2.22929 1.09596,-2.2481 1.12235,-2.38175 0.4348,-2.20195 -0.85795,0.22436 -0.87447,-0.55487 -0.0211,-0.99615 1.13308,-0.58594 1.52826,-0.49562 1.72364,0.39395 0.13836,0.62995 -0.0615,1.23723 -0.97228,2.95488 -1.13624,2.14276 -1.59213,2.63259 -1.93454,2.07856 z m 54.447945,-10.49879 c -0.21663,-0.56453 0.3747,-0.86271 1.38553,-0.69868 0.48443,0.0786 0.92691,0.0116 1.0305,-0.15597 0.28882,-0.46732 0.67949,-0.34095 0.67949,0.2198 0,0.66497 -0.22848,0.78883 -1.71156,0.92785 -0.93677,0.0878 -1.26445,0.0184 -1.38396,-0.293 z m -2.14428,-2.76849 c -0.35043,-0.12963 -0.58103,-0.43973 -0.58103,-0.78131 0,-0.4686 0.11167,-0.53835 0.6468,-0.40404 0.35574,0.0893 1.27847,0.23217 2.05052,0.31752 1.65489,0.18295 1.82987,0.29578 1.18735,0.76559 -0.52591,0.38456 -2.38494,0.44209 -3.30364,0.10224 z m 10.32724,-2.4685 c -1.15582,-0.41055 -1.84868,-1.10809 -1.47341,-1.48336 0.20236,-0.20237 0.52654,-0.13661 1.12712,0.22862 0.625,0.38009 1.14736,0.47838 2.0197,0.38006 0.97355,-0.10974 1.17665,-0.0568 1.17665,0.30696 0,0.24177 -0.14884,0.48544 -0.33074,0.54148 -0.95585,0.29447 -1.74113,0.30265 -2.51932,0.0262 z m -11.15156,-0.42832 c -0.48261,-0.1973 -0.56524,-0.33664 -0.33575,-0.56613 0.35771,-0.35772 2.21276,0.0251 2.19437,0.45283 -0.0157,0.36484 -1.08408,0.42997 -1.85862,0.1133 z m -3.7457,-2.41208 c -0.27266,-1.11069 -0.0836,-1.2545 1.4093,-1.07194 0.95128,0.11632 1.25498,0.39895 0.75847,0.70581 -0.27679,0.17107 -2.13847,0.4855 -2.16777,0.36613 z m 13.76052,-0.75508 c -0.19446,-0.12018 -0.44599,-0.16139 -0.55896,-0.0916 -0.34098,0.21074 -1.80424,-1.02112 -1.80424,-1.51892 0,-0.63138 0.41115,-0.83793 0.83857,-0.42127 0.4237,0.41304 2.16016,1.24917 2.59426,1.24917 0.46895,0 0.20251,0.86676 -0.28851,0.93857 -0.23516,0.0344 -0.58667,-0.0358 -0.78112,-0.15598 z m -16.73889,-1.22357 c -0.38353,-0.38352 -0.13742,-0.61736 0.64976,-0.61736 0.70435,0 0.77759,0.0585 0.49677,0.39688 -0.34752,0.41873 -0.85139,0.51563 -1.14653,0.22048 z m 12.06059,-2.50087 c -0.83395,-0.24079 -1.13447,-0.82598 -0.59531,-1.1592 0.14552,-0.0899 0.26457,-0.0374 0.26457,0.11668 0,0.15411 0.30548,0.2802 0.67886,0.2802 0.85103,0 1.76789,0.47373 1.5619,0.80702 -0.18669,0.30208 -0.75509,0.28878 -1.91002,-0.0447 z M 137.161,132.69459 c -0.12388,-2.23975 0.10128,-6.93371 0.36821,-7.67678 0.58565,-1.63028 0.86563,-0.79885 0.78864,2.34205 -0.10935,4.46201 -0.30622,6.06234 -0.74572,6.06234 -0.21846,0 -0.38743,-0.29902 -0.41113,-0.72761 z m 1.86585,-1.63424 c -0.0618,-1.28139 -0.0372,-1.76171 0.10956,-2.13607 0.0856,-0.21828 0.19115,-0.69453 0.23467,-1.05833 0.045,-0.37641 0.25015,-0.66146 0.47599,-0.66146 0.48091,0 0.67672,2.00246 0.32757,3.34992 -0.2617,1.00995 -1.10553,1.3819 -1.14779,0.50594 z"
       id="path10" />
  </g>
</svg>
