<?xml version="1.0" encoding="UTF-8" standalone="no"?>
<!-- Created with Inkscape (http://www.inkscape.org/) -->

<svg
   width="138.88467mm"
   height="69.207222mm"
   viewBox="0 0 138.88467 69.207225"
   version="1.1"
   id="svg1"
   inkscape:version="1.4.1-rc (06eac75fbf, 2025-03-29)"
   sodipodi:docname="mount2.svg"
   xmlns:inkscape="http://www.inkscape.org/namespaces/inkscape"
   xmlns:sodipodi="http://sodipodi.sourceforge.net/DTD/sodipodi-0.dtd"
   xmlns="http://www.w3.org/2000/svg"
   xmlns:svg="http://www.w3.org/2000/svg">
  <sodipodi:namedview
     id="namedview1"
     pagecolor="#ffffff"
     bordercolor="#000000"
     borderopacity="0.25"
     inkscape:showpageshadow="2"
     inkscape:pageopacity="0.0"
     inkscape:pagecheckerboard="0"
     inkscape:deskcolor="#d1d1d1"
     inkscape:document-units="mm"
     inkscape:zoom="0.72248176"
     inkscape:cx="262.98242"
     inkscape:cy="130.79915"
     inkscape:window-width="1850"
     inkscape:window-height="1016"
     inkscape:window-x="0"
     inkscape:window-y="0"
     inkscape:window-maximized="1"
     inkscape:current-layer="layer1" />
  <defs
     id="defs1" />
  <g
     inkscape:label="Layer 1"
     inkscape:groupmode="layer"
     id="layer1"
     transform="translate(-35.98333,-113.77118)">
    <path
       style="fill:#000000"
       d="m 35.98333,182.57758 c 0,-0.48739 2.70536,-3.24695 3.12447,-3.18706 0.52257,0.0747 0.85686,-0.0667 0.71198,-0.30112 -0.0899,-0.14552 -0.0455,-0.26458 0.0989,-0.26458 0.1443,0 0.33795,-0.23813 0.43032,-0.52917 0.0924,-0.29104 0.33852,-0.52917 0.547,-0.52917 0.50238,0 0.48814,0.76849 -0.0178,0.96266 -0.21828,0.0838 -0.39688,0.27319 -0.39688,0.42096 0,0.15487 0.16812,0.12915 0.39688,-0.0607 0.31755,-0.26355 0.39687,-0.26182 0.39687,0.009 0,0.23784 0.14336,0.20825 0.48386,-0.0999 0.26612,-0.24083 0.60725,-0.43788 0.75806,-0.43788 0.15082,0 0.57736,-0.23844 0.94785,-0.52988 0.37381,-0.29404 0.86075,-0.45808 1.09402,-0.36857 0.23121,0.0887 0.42038,0.0295 0.42038,-0.13157 0,-0.16109 0.29765,-0.29289 0.66146,-0.29289 0.3638,0 0.66146,-0.1168 0.66146,-0.25955 0,-0.14275 0.32742,-0.33967 0.7276,-0.43761 0.40018,-0.0979 0.78713,-0.26391 0.8599,-0.36883 0.0728,-0.10491 0.7095,-0.55545 1.41499,-1.00118 1.02819,-0.64964 1.40879,-0.76249 1.91823,-0.56881 0.41109,0.1563 0.63553,0.14722 0.63553,-0.0257 0,-0.17813 0.17018,-0.17626 0.50999,0.006 0.2805,0.15012 0.69722,0.20111 0.92605,0.1133 0.27196,-0.10437 0.41604,-0.0124 0.41604,0.26553 0,0.29661 -0.2415,0.42518 -0.79862,0.42518 -0.98203,0 -3.20295,1.13186 -4.22357,2.15248 -0.41687,0.41687 -0.89684,0.75794 -1.06661,0.75794 -0.37879,0 -1.29866,1.06768 -1.31073,1.52135 -0.005,0.1819 -0.10802,0.33073 -0.22929,0.33073 -0.12127,0 -0.56775,0.35388 -0.99219,0.7864 -0.68771,0.70081 -1.69774,1.07793 -1.69774,0.63389 0,-0.56559 1.27832,-2.06837 2.02471,-2.38024 0.48714,-0.20353 0.88571,-0.46219 0.88571,-0.57479 0,-0.50162 -1.22562,-0.20494 -3.08799,0.74748 -1.24255,0.63545 -2.35004,1.02028 -2.879,1.0004 -0.9082,-0.0341 -2.3449,0.88265 -2.62726,1.67652 -0.085,0.23895 -0.35895,0.50692 -0.60879,0.59549 -0.24984,0.0886 -0.60308,0.2304 -0.78499,0.3152 -0.20522,0.0957 -0.33072,-0.0449 -0.33072,-0.3705 z m 14.68437,-7.45693 c 0.0899,-0.14552 0.0374,-0.26458 -0.11668,-0.26458 -0.15411,0 -0.28019,0.11906 -0.28019,0.26458 0,0.14552 0.0525,0.26458 0.11667,0.26458 0.0642,0 0.19026,-0.11906 0.2802,-0.26458 z m 35.58646,3.62378 c 0,-0.18974 0.41672,-0.74888 0.92604,-1.24253 0.50932,-0.49366 0.92604,-1.05279 0.92604,-1.24253 0,-0.18973 0.0928,-0.34497 0.20615,-0.34497 0.48711,0 3.71917,-3.38537 3.80369,-3.98411 0.0626,-0.44372 0.23624,-0.62175 0.55422,-0.56836 0.54176,0.091 0.60174,-0.2282 0.1323,-0.70398 -0.26535,-0.26893 -0.16145,-0.48724 0.52558,-1.10432 0.47097,-0.42302 1.02417,-0.70472 1.22932,-0.62599 0.20515,0.0787 0.55304,-0.1139 0.77308,-0.42806 0.92411,-1.31934 2.40163,-1.70011 1.73042,-0.44594 -0.16889,0.31558 -0.43711,0.71049 -0.59602,0.87756 -0.15892,0.16707 -0.46754,0.57004 -0.68582,0.89548 -0.21828,0.32545 -0.87313,1.10069 -1.45521,1.72278 -0.58208,0.62208 -1.53764,1.65032 -2.12346,2.28498 -0.58583,0.63465 -1.62762,1.66239 -2.31511,2.28385 -0.68748,0.62146 -1.24997,1.18868 -1.24997,1.2605 0,0.0718 -0.38695,0.48259 -0.8599,0.91283 -0.91818,0.83529 -1.52135,1.01481 -1.52135,0.45281 z m -11.64167,-0.71336 c 0,-0.14552 -0.29765,-0.26459 -0.66146,-0.26459 -0.3638,0 -0.66145,-0.116 -0.66145,-0.25779 0,-0.4798 1.5743,-1.0755 3.10625,-1.17537 1.8183,-0.11854 5.92817,-0.91915 6.24871,-1.21726 0.12477,-0.11604 -0.0241,-0.34525 -0.33073,-0.50938 -1.07068,-0.57301 -0.45135,-1.02438 1.69139,-1.2327 1.56001,-0.15167 1.75402,-0.27378 1.57407,-0.99077 -0.11672,-0.46505 0.004,-0.76414 0.45652,-1.13029 0.33838,-0.27385 0.97184,-1.03368 1.40768,-1.68853 0.43584,-0.65484 1.32881,-1.86096 1.98437,-2.68027 3.62056,-4.52485 3.76125,-4.7307 3.54955,-5.19348 -0.11588,-0.25334 -0.23353,-0.57968 -0.26144,-0.7252 -0.0279,-0.14553 -0.0781,-0.32412 -0.11144,-0.39688 -0.0334,-0.0728 -0.1009,-0.47778 -0.15005,-0.90005 -0.20626,-1.77221 -0.73493,-1.47742 -2.08861,1.16463 -0.55919,1.09141 -1.4116,2.52016 -1.89424,3.175 -0.48264,0.65485 -1.23211,1.67016 -1.6655,2.25625 -0.43338,0.58609 -0.87431,1.30047 -0.97984,1.5875 -0.10553,0.28703 -0.49891,0.82196 -0.87418,1.18873 -0.37527,0.36677 -0.93219,1.01 -1.23761,1.42941 -0.57452,0.78893 -1.26475,0.7508 -0.98137,-0.0542 0.088,-0.25001 0.8637,-1.38703 1.72377,-2.52672 0.86007,-1.13969 1.69495,-2.36008 1.85528,-2.71198 0.16034,-0.35189 0.36419,-0.63981 0.45301,-0.63981 0.0888,0 0.43622,-0.50602 0.77198,-1.12448 l 0.61049,-1.12448 -0.8806,-1.51143 c -0.79101,-1.35769 -1.54205,-1.9738 -1.54205,-1.26503 0,0.14644 -0.69356,1.4859 -1.54125,2.97657 -2.57165,4.52226 -2.52569,4.44998 -3.28739,5.16898 -0.25467,0.24038 -0.46302,0.62588 -0.46302,0.85667 0,0.23078 -0.47344,0.76987 -1.05208,1.19797 -0.57865,0.42809 -1.0549,0.85142 -1.05834,0.94071 -0.0265,0.6893 -2.34348,2.04243 -2.76885,1.61706 -0.1878,-0.18779 0.35486,-1.11796 0.65222,-1.11796 0.39514,0 1.31663,-0.87445 1.31663,-1.24942 0,-0.18594 0.14883,-0.34358 0.33073,-0.35031 0.1819,-0.007 0.53596,-0.27462 0.78681,-0.59531 0.67767,-0.86639 3.38038,-4.7033 3.38038,-4.79899 0,-0.0455 0.53578,-0.97411 1.19062,-2.06361 0.65484,-1.0895 1.19063,-2.11661 1.19063,-2.28247 0,-0.16585 0.10097,-0.30155 0.22439,-0.30155 0.12342,0 0.43968,-0.47739 0.70278,-1.06086 0.38893,-0.86249 0.42118,-1.1864 0.17248,-1.73224 -0.16825,-0.36926 -0.3059,-0.90391 -0.3059,-1.1881 0,-0.72638 -0.38604,-0.64228 -0.94124,0.20505 -0.85204,1.30039 -2.78363,3.03107 -3.20322,2.87006 -0.21821,-0.0837 -0.5656,-0.15225 -0.77198,-0.15225 -0.20638,0 -0.37523,-0.17156 -0.37523,-0.38126 0,-0.72468 -0.55574,-0.71965 -1.53279,0.0139 -0.53941,0.40497 -1.04028,0.80213 -1.11304,0.88258 -0.20594,0.22771 -1.13146,0.78328 -1.76024,1.05663 -0.31329,0.1362 -0.64368,0.36748 -0.73421,0.51396 -0.3223,0.52149 -4.71264,2.41215 -5.6013,2.41215 -0.49505,0 -0.89993,-0.0893 -0.89974,-0.19844 3.4e-4,-0.19201 2.23011,-1.31656 3.30694,-1.6678 0.29105,-0.0949 1.58661,-0.87472 2.87903,-1.73287 1.29243,-0.85815 2.69839,-1.78366 3.12435,-2.05669 0.49279,-0.31587 0.719,-0.64101 0.62193,-0.89395 -0.27384,-0.71363 1.46873,-2.60554 3.32822,-3.61343 1.82434,-0.98884 2.8132,-1.17364 3.35908,-0.62776 0.25237,0.25237 0.64808,-0.0277 1.83886,-1.30166 0.8345,-0.89278 1.75541,-1.66256 2.04645,-1.71063 0.54827,-0.0906 0.58155,0.0339 0.27723,1.03708 -0.0993,0.32742 -0.072,0.59531 0.0608,0.59531 0.4083,0 1.06785,-0.88755 1.22885,-1.65364 0.0841,-0.40018 0.21387,-1.02197 0.2884,-1.38174 0.16451,-0.79424 1.06279,-1.69206 2.04731,-2.04627 0.83263,-0.29956 0.969,-0.73918 0.2293,-0.73918 -0.59382,0 -0.77103,-0.55291 -0.70272,-2.19255 0.0439,-1.05519 0.21114,-1.38205 1.25758,-2.45861 1.06284,-1.09345 1.36987,-1.2573 2.57264,-1.37287 1.12967,-0.10854 1.58677,-0.0109 2.64433,0.56466 l 1.27858,0.69589 1.52141,-0.91615 c 1.05041,-0.63252 1.65394,-0.84822 1.94947,-0.69672 0.23543,0.12069 0.5807,0.16479 0.76727,0.098 0.18656,-0.0668 0.61597,0.0599 0.95425,0.28158 0.55495,0.36362 0.65752,0.36051 1.04985,-0.0318 0.2787,-0.2787 0.43482,-0.31946 0.43482,-0.11354 0,0.17671 0.12428,0.32128 0.27618,0.32128 0.1519,0 0.24119,-0.19954 0.19843,-0.44342 -0.0623,-0.35564 0.15798,-0.45221 1.11289,-0.4878 1.19874,-0.0447 2.73204,-0.70469 3.55962,-1.53227 0.24581,-0.24581 0.73607,-0.44692 1.08948,-0.44692 1.01307,0 0.77091,-0.70369 -0.30207,-0.87781 -1.3035,-0.21153 -2.20394,0.19386 -2.53407,1.14087 -0.29903,0.8578 -0.61321,1.01626 -0.84052,0.42391 -0.1937,-0.50477 0.0762,-1.51547 0.55164,-2.0656 0.26907,-0.31135 0.33607,-0.72417 0.21471,-1.32292 -0.45785,-2.25884 -0.46849,-2.6231 -0.0895,-3.06494 0.21284,-0.24817 0.46708,-0.67577 0.56499,-0.95022 0.15789,-0.4426 0.36427,-0.47998 1.82615,-0.33074 l 1.64815,0.16824 0.0289,-0.80763 c 0.035,-0.97922 0.55432,-2.01132 1.1328,-2.25141 0.86091,-0.35731 2.22515,-0.33877 2.59925,0.0353 0.20785,0.20785 0.54195,0.37791 0.74243,0.37791 0.20048,0 0.68236,0.41672 1.07083,0.92604 0.38848,0.50933 0.84103,0.92454 1.00566,0.92271 0.33967,-0.004 2.81287,-2.7402 2.81287,-3.11224 0,-0.13349 0.18165,-0.60685 0.40368,-1.05192 0.36191,-0.72546 0.56631,-0.82809 1.97489,-0.99157 1.48845,-0.17275 1.62256,-0.2497 2.54632,-1.46101 0.85768,-1.12467 1.12533,-1.29932 2.22248,-1.45021 1.34615,-0.18515 3.54997,0.26343 3.29791,0.67127 -0.0847,0.13706 0.0246,0.18066 0.24291,0.0969 0.21832,-0.0838 0.66367,0.0962 0.98968,0.39991 0.32601,0.30372 0.74515,0.55222 0.93142,0.55222 0.19235,0 0.27288,0.17148 0.18639,0.39687 -0.0964,0.25132 0.004,0.39688 0.27288,0.39688 0.23385,0 0.42519,-0.1229 0.42519,-0.27311 0,-0.38088 1.13169,-0.77147 1.46408,-0.5053 0.1504,0.12043 0.44155,0.11509 0.647,-0.0119 0.20544,-0.12698 0.94285,-0.16344 1.63868,-0.081 l 1.26515,0.14983 0.53525,-1.24869 c 0.29439,-0.68678 0.53525,-1.46869 0.53525,-1.73758 0,-1.15187 2.60328,-4.40422 3.30863,-4.13355 0.21755,0.0835 0.39554,0.0594 0.39554,-0.0536 0,-0.45485 2.17878,-1.1223 4.16304,-1.27532 2.89513,-0.22325 4.47515,0.19457 6.2447,1.65136 l 1.40722,1.15851 2.98951,0.26234 c 2.17054,0.19047 3.32462,0.42684 4.21283,0.86284 0.67283,0.33027 1.4734,0.62276 1.77904,0.64997 0.62294,0.0555 2.21701,1.07564 3.36408,2.15294 1.88779,1.77298 2.5625,2.49725 2.5625,2.75076 0,0.1502 0.35718,0.6799 0.79375,1.17712 0.86597,0.98628 0.99913,1.54394 0.4216,1.76556 -0.23546,0.0904 -0.48886,-0.13898 -0.68991,-0.62436 -0.17478,-0.42193 -0.54309,-0.83867 -0.81848,-0.92608 -0.46878,-0.14878 -0.53652,-0.27232 -0.60997,-1.11251 -0.0158,-0.18028 -0.73227,-0.98261 -1.59224,-1.78294 -1.19367,-1.11091 -1.71238,-1.42817 -2.19261,-1.34109 -0.47421,0.086 -0.70293,-0.0481 -0.92923,-0.54477 -0.19241,-0.4223 -0.49661,-0.6438 -0.84728,-0.61694 -1.17211,0.0898 -1.30479,0.0221 -0.91022,-0.46434 0.19972,-0.24621 0.24406,-0.38067 0.0985,-0.29878 -0.14552,0.0819 -1.03849,0.0375 -1.98437,-0.0986 -0.94589,-0.13613 -1.95792,-0.27735 -2.24896,-0.31381 -3.11469,-0.39026 -3.58856,-0.53283 -5.0358,-1.51507 -1.06836,-0.7251 -1.61615,-0.9542 -1.8391,-0.76916 -0.17465,0.14494 -0.39588,0.18518 -0.49163,0.0894 -0.0958,-0.0957 -0.17409,-0.0352 -0.17409,0.13458 0,0.16978 -0.11907,0.30868 -0.26459,0.30868 -0.14552,0 -0.26458,-0.23812 -0.26458,-0.52916 0,-0.29104 0.12609,-0.52917 0.2802,-0.52917 0.15411,0 0.21157,-0.11104 0.12769,-0.24676 -0.0839,-0.13571 -0.49292,-0.23707 -0.90898,-0.22524 -0.73514,0.0209 -0.75553,0.0596 -0.723,1.37123 0.03,1.21027 -0.0281,1.35846 -0.56185,1.43428 -0.67648,0.0961 -0.85538,-0.66282 -0.21424,-0.90885 0.30251,-0.11608 0.32102,-0.278 0.0898,-0.78544 -0.16019,-0.35157 -0.45776,-0.63922 -0.66127,-0.63922 -0.20351,0 -0.3048,-0.10553 -0.22509,-0.2345 0.18578,-0.3006 -0.79066,-0.56495 -1.08357,-0.29335 -0.12142,0.11257 -0.91736,0.40327 -1.76878,0.64599 -1.65736,0.47249 -2.32861,1.03434 -3.29755,2.76013 -0.53493,0.95277 -0.55627,1.09048 -0.16899,1.09048 0.36877,0 0.4121,0.16671 0.25784,0.99219 -0.10198,0.5457 -0.30408,1.1358 -0.4491,1.31132 -0.14503,0.17553 -0.19196,0.43519 -0.1043,0.57704 0.0877,0.14184 0.0539,0.32308 -0.075,0.40276 -0.21755,0.13445 -0.15433,0.58862 0.46368,3.33127 l 0.20867,0.92605 0.28338,-0.68564 c 0.15585,-0.3771 0.36918,-1.25781 0.47405,-1.95714 0.10487,-0.69932 0.35239,-1.58141 0.55004,-1.96019 0.19765,-0.37879 0.3601,-0.83753 0.361,-1.01943 8.9e-4,-0.1819 0.12871,-0.33073 0.28404,-0.33073 0.16421,0 0.21043,-0.22679 0.11043,-0.54186 -0.0946,-0.29803 -0.0595,-0.68498 0.078,-0.8599 0.30035,-0.38214 0.68339,-1.70314 0.70454,-2.42977 0.008,-0.28833 0.21606,-0.5635 0.46149,-0.61148 0.37642,-0.0736 0.44144,0.13257 0.41564,1.31799 -0.0168,0.77288 0.12054,2.10092 0.30525,2.9512 0.28597,1.31645 0.41085,1.52635 0.84113,1.41383 0.42431,-0.11096 0.5053,0.0123 0.5053,0.76914 0,0.4957 -0.10641,0.90127 -0.23646,0.90127 -0.13274,0 -0.11628,0.47343 0.0375,1.07942 0.20455,0.80585 0.53269,1.25062 1.29478,1.75495 0.98469,0.65163 1.3065,1.13438 0.75622,1.13438 -0.14552,0 -0.26458,0.17084 -0.26458,0.37965 0,0.20881 -0.13829,0.71482 -0.30731,1.12448 -0.16902,0.40965 -0.28809,0.83412 -0.26459,0.94326 0.0235,0.10914 -0.075,0.19844 -0.21889,0.19844 -0.14389,0 -0.25569,0.26789 -0.24844,0.59531 0.007,0.32743 -0.13126,1.15239 -0.30781,1.83325 -0.29929,1.15421 -0.27184,1.3384 0.40584,2.72353 0.59341,1.21289 0.79508,1.42896 1.0986,1.17707 0.20447,-0.1697 0.37176,-0.47729 0.37176,-0.68356 0,-0.20626 0.26219,-0.87629 0.58265,-1.48895 0.32046,-0.61267 0.56128,-1.19515 0.53516,-1.29441 -0.0261,-0.0993 0.12368,-0.59014 0.3329,-1.09087 0.20922,-0.50072 0.30854,-0.98226 0.22072,-1.07008 -0.0878,-0.0878 0.0411,-0.23671 0.28649,-0.33087 0.24538,-0.0942 0.50937,-0.10799 0.58663,-0.0307 0.25088,0.25087 -1.00376,4.41764 -1.59354,5.29232 -0.31534,0.46765 -0.7343,1.24208 -0.93103,1.72095 -0.19673,0.47887 -0.6757,1.31231 -1.06438,1.85209 -0.38868,0.53977 -0.7852,1.18977 -0.88117,1.44443 -0.096,0.25466 -0.29729,0.46302 -0.44737,0.46302 -0.15009,0 -0.27289,0.17859 -0.27289,0.39687 0,0.21828 -0.1786,0.39688 -0.39688,0.39688 -0.21828,0 -0.39687,0.17859 -0.39687,0.39687 0,0.21828 -0.18562,0.39688 -0.41249,0.39688 -0.22687,0 -0.34727,0.10552 -0.26756,0.2345 0.0797,0.12898 -0.072,0.29124 -0.33716,0.36057 -0.77548,0.2028 -0.5671,-0.46414 0.53177,-1.70196 0.55763,-0.62814 1.01404,-1.2254 1.01424,-1.32724 2e-4,-0.10185 0.3767,-0.7428 0.83666,-1.42433 0.67257,-0.99656 0.77694,-1.3229 0.53311,-1.66691 -0.16675,-0.23527 -0.47747,-0.81471 -0.6905,-1.28765 -0.43552,-0.96691 -1.0535,-1.11393 -1.46335,-0.34813 -0.4191,0.7831 -0.32919,1.57783 0.27438,2.42548 0.57012,0.80065 0.60081,1.57486 0.0694,1.75176 -0.16958,0.0565 -0.46139,-0.32062 -0.64846,-0.83797 -0.18707,-0.51734 -0.41381,-0.94062 -0.50385,-0.94062 -0.1842,0 -1.31748,1.25461 -1.31748,1.45853 0,0.2788 -2.71622,2.7748 -3.01962,2.7748 -0.1761,0 -0.5585,0.22202 -0.84976,0.49338 -0.29127,0.27136 -0.78304,0.62903 -1.09283,0.79482 -0.6183,0.3309 -0.61084,0.70118 0.0457,2.27262 0.56148,1.34381 0.29248,1.53757 -0.65792,0.4739 -0.42248,-0.47285 -0.82093,-0.85972 -0.88543,-0.85972 -0.18534,0 -1.74226,2.37943 -1.74226,2.66269 0,0.1402 0.13785,0.47565 0.30634,0.74544 0.49215,0.78806 0.1085,1.37119 -0.78461,1.19257 -0.66678,-0.13335 -0.83487,-0.0308 -1.33299,0.81348 -0.3135,0.53134 -0.56999,1.12821 -0.56999,1.32638 0,0.44213 -0.82863,2.05292 -1.18842,2.3102 -0.53624,0.38347 -0.69407,-0.28699 -0.26355,-1.11953 0.35251,-0.68169 0.38403,-0.99497 0.15145,-1.50544 -0.16154,-0.35453 -0.22564,-0.75475 -0.14244,-0.88936 0.0832,-0.13462 0.0252,-0.24476 -0.12893,-0.24476 -0.15411,0 -0.2802,-0.23813 -0.2802,-0.52917 0,-0.85879 -0.76476,-0.6079 -1.25025,0.41017 -0.36175,0.75861 -0.38638,1.03789 -0.12801,1.45162 0.54632,0.8748 0.39604,1.1218 -0.57202,0.94019 -0.75621,-0.14187 -0.95753,-0.0672 -1.32292,0.49041 -0.23703,0.36176 -0.43096,0.82072 -0.43096,1.0199 0,0.19919 -0.48304,0.88538 -1.07341,1.52488 -0.67409,0.73016 -1.02781,1.33711 -0.95082,1.63152 0.0857,0.32762 -0.0293,0.46881 -0.3818,0.46881 -0.75292,0 -0.64151,-1.10826 0.18353,-1.82563 0.69786,-0.60678 0.72812,-0.97578 0.25167,-3.06916 -0.0662,-0.29104 -0.19293,-0.88367 -0.28152,-1.31696 -0.20604,-1.00766 -0.31943,-1.10748 -0.8692,-0.76521 -0.60688,0.37783 -1.68438,3.06432 -1.36041,3.39186 0.13674,0.13824 0.24862,0.62045 0.24862,1.07156 0,0.45111 0.14288,0.96308 0.3175,1.13771 0.24695,0.24694 0.24533,0.38967 -0.007,0.64228 -0.52108,0.52108 -1.20532,-0.10378 -1.47229,-1.3445 -0.12982,-0.60332 -0.33818,-1.09695 -0.46302,-1.09695 -0.12485,0 -0.22699,0.11906 -0.22699,0.26459 0,0.14552 -0.1786,0.26458 -0.39688,0.26458 -0.50764,0 -0.50425,-0.0417 0.16454,-2.02162 0.65054,-1.92592 0.54893,-2.6785 -0.29082,-2.15406 -0.29435,0.18382 -0.53517,0.48417 -0.53517,0.66745 0,0.18327 -0.10519,0.33323 -0.23374,0.33323 -0.12856,0 -0.29509,0.26789 -0.37007,0.59531 -0.075,0.32742 -0.2855,1.01203 -0.46783,1.52136 -0.18233,0.50932 -0.39318,1.10463 -0.46856,1.32291 -0.0754,0.21828 -0.15959,1.11125 -0.18715,1.98438 -0.0778,2.46394 -0.09,2.51354 -0.62305,2.51354 -0.5273,0 -0.8148,-0.67175 -0.82099,-1.91823 -0.002,-0.46877 -0.1448,-0.7276 -0.40049,-0.7276 -0.21828,0 -0.39687,-0.1786 -0.39687,-0.39688 0,-0.21828 0.10517,-0.39687 0.23372,-0.39687 0.26122,0 0.60137,-0.89243 0.67069,-1.75965 0.025,-0.31296 0.19472,-0.74884 0.37713,-0.96863 0.18791,-0.22642 0.22636,-0.46469 0.0887,-0.54976 -0.22582,-0.13957 -0.15801,-0.7135 0.35468,-3.00206 0.2602,-1.16147 1.27777,-2.23485 1.8981,-2.00219 0.40854,0.15322 0.42864,0.11849 0.13831,-0.23892 -0.18684,-0.23001 -0.42667,-0.92755 -0.53294,-1.5501 -0.18537,-1.08586 -0.84714,-1.80662 -0.84714,-0.92265 0,0.23498 -0.1786,0.49576 -0.39688,0.57952 -0.21828,0.0838 -0.40171,0.28839 -0.40763,0.45472 -0.006,0.16633 -0.3631,0.71464 -0.79375,1.21847 -0.96795,1.13243 -1.08268,2.51574 -0.22721,2.73945 0.3773,0.0987 0.48668,0.25717 0.34058,0.49356 -0.11836,0.19151 -0.21963,0.76507 -0.22505,1.27457 -0.009,0.84417 -0.0744,0.92195 -0.73746,0.87656 -0.40018,-0.0274 -0.73671,0.0321 -0.74785,0.13229 -0.0797,0.7172 -0.24779,1.21743 -0.49059,1.46023 -0.1556,0.1556 -0.28291,0.60927 -0.28291,1.00814 0,0.39887 -0.1327,0.80722 -0.29488,0.90746 -0.45005,0.27814 -0.0373,3.14374 0.61107,4.24267 0.48509,0.82217 0.50524,0.98369 0.16513,1.3238 -0.21306,0.21306 -0.57353,0.31594 -0.80105,0.22863 -0.50587,-0.19412 -1.27571,-2.82801 -1.37403,-4.70106 -0.0538,-1.02494 -0.16793,-1.35593 -0.44605,-1.29365 -0.95644,0.21418 -1.13097,0.78171 -1.1356,3.69282 -0.004,2.74144 0.0284,2.91119 0.74125,3.84586 0.61262,0.80318 0.68709,1.0486 0.41697,1.37408 -0.44171,0.53223 -0.98979,0.50083 -1.16546,-0.0668 -0.0788,-0.25466 -0.32859,-1.3512 -0.55504,-2.43675 -0.22644,-1.08555 -0.55594,-2.06285 -0.7322,-2.17179 -0.2267,-0.14011 -0.23802,-0.28053 -0.0387,-0.47986 0.41569,-0.41568 0.14687,-1.8542 -0.31348,-1.67754 -0.20328,0.078 -0.3696,0.41217 -0.3696,0.74258 0,0.33042 -0.1786,0.74897 -0.39688,0.93013 -0.21828,0.18116 -0.39687,0.55293 -0.39687,0.82615 0,0.27322 -0.11347,0.49677 -0.25215,0.49677 -0.28599,0 -0.82223,1.72826 -0.6834,2.20255 0.0501,0.17104 0.17997,0.54912 0.28867,0.84016 0.59665,1.59752 0.76909,2.77812 0.40578,2.77812 -0.39148,0 -0.87577,-1.276 -0.63605,-1.67585 0.10174,-0.16969 -0.0165,-0.14512 -0.26269,0.0546 -0.39996,0.32443 -0.45213,0.28214 -0.48958,-0.39687 -0.0231,-0.418 -0.0208,-0.98922 0.005,-1.26938 0.0424,-0.45975 -0.005,-0.44936 -0.48724,0.10663 -0.29385,0.3388 -0.53426,0.75793 -0.53426,0.93139 0,0.17346 -0.23365,0.52683 -0.51921,0.78526 -0.28556,0.25843 -0.65199,0.8722 -0.81427,1.36392 -0.16228,0.49173 -0.38751,0.89405 -0.50049,0.89405 -0.27197,0 -1.60562,1.24238 -1.60562,1.49574 0,0.29147 -4.20029,4.3251 -4.5038,4.3251 -0.14228,0 -0.2587,-0.11906 -0.2587,-0.26458 0,-0.14552 0.11906,-0.26458 0.26459,-0.26458 0.14552,0 0.26458,-0.17057 0.26458,-0.37905 0,-0.20847 0.22629,-0.45087 0.50286,-0.53865 0.27658,-0.0878 0.5765,-0.45299 0.6665,-0.81158 0.09,-0.35859 0.28043,-0.65198 0.42318,-0.65198 0.29654,0 0.31564,-1.23185 0.0429,-2.76847 l -0.18611,-1.04869 -0.96125,1.44556 c -1.08244,1.62783 -2.47732,3.16536 -2.87167,3.16536 -0.14426,0 -0.26228,0.18233 -0.26228,0.40517 0,0.22285 -0.20836,0.47636 -0.46303,0.56335 -0.25466,0.087 -0.90898,0.63865 -1.45404,1.22591 -0.5716,0.61586 -1.27954,1.09852 -1.67275,1.14044 -0.85777,0.0914 -0.78782,-0.004 2.33304,-3.17079 1.27331,-1.29221 2.31511,-2.50585 2.31511,-2.69698 0,-0.19114 0.23975,-0.51545 0.53278,-0.7207 0.51403,-0.36004 2.64222,-3.21635 2.64222,-3.54621 0,-0.0889 0.30425,-0.5606 0.67611,-1.04814 0.37186,-0.48753 0.60296,-1.00479 0.51355,-1.14945 -0.0894,-0.14467 -0.0478,-0.26303 0.0924,-0.26303 0.30838,0 1.89296,-2.74721 1.89296,-3.28184 0,-0.20869 -0.17251,-0.71651 -0.38335,-1.12849 -0.21085,-0.41197 -0.45409,-0.98048 -0.54055,-1.26335 -0.13774,-0.45067 -0.22522,-0.40157 -0.70694,0.39687 -0.30236,0.50115 -0.65443,0.95088 -0.78237,0.99938 -0.12794,0.0485 -0.23262,0.24298 -0.23262,0.43216 0,0.18919 -0.25771,0.41136 -0.57268,0.49373 -0.46964,0.12281 -0.51462,0.21972 -0.24998,0.5386 0.26313,0.31705 0.14937,0.62481 -0.61624,1.66703 -0.51642,0.70301 -1.29047,1.75773 -1.72012,2.34383 -0.42964,0.58609 -0.85987,1.2707 -0.95605,1.52135 -0.0962,0.25065 -0.33223,0.45573 -0.52455,0.45573 -0.19232,0 -0.50959,0.15992 -0.70505,0.35538 -0.19546,0.19546 -0.55279,0.28475 -0.79407,0.19844 -0.36798,-0.13164 -0.29197,-0.31674 0.4715,-1.14822 0.5006,-0.5452 1.05779,-0.96192 1.23819,-0.92604 0.1804,0.0359 0.29406,-0.0961 0.25257,-0.29334 -0.0415,-0.19722 0.0729,-0.53734 0.25426,-0.75583 0.32623,-0.39308 0.81746,-1.18645 1.1767,-1.90042 0.10893,-0.21649 -0.001,-0.5057 -0.26673,-0.69978 -0.58783,-0.42984 -0.7126,-1.84165 -0.16275,-1.84165 0.21869,0 0.40957,0.25112 0.42516,0.55934 0.0523,1.03452 0.3762,1.22213 0.91885,0.53228 0.27944,-0.35525 0.50807,-0.76138 0.50807,-0.90251 0,-0.14113 0.19479,-0.41826 0.43286,-0.61585 0.23807,-0.19758 0.71432,-0.8051 1.05833,-1.35005 0.977,-1.54767 0.7853,-3.19974 -0.2226,-1.9184 -0.28229,0.35887 -0.62367,0.65249 -0.75863,0.65249 -0.37754,0 -0.29124,-0.99594 0.16231,-1.873 0.22423,-0.43361 0.3156,-0.93371 0.20306,-1.11134 -0.11255,-0.17762 -0.21839,-0.62356 -0.23521,-0.99096 -0.0285,-0.62271 -0.55191,-2.4971 -0.83478,-2.98945 -0.20221,-0.35196 -0.8778,0.79924 -0.71619,1.22038 0.0817,0.21293 -0.38988,1.15258 -1.05839,2.1089 -1.18343,1.69291 -1.56427,3.11808 -0.93686,3.50584 0.14789,0.0914 0.20339,0.27218 0.12333,0.40173 -0.15715,0.25426 0.36697,1.32859 0.79839,1.63656 0.164,0.11707 0.091,0.36254 -0.19215,0.64572 -0.43261,0.43273 -0.48687,0.38433 -1.02746,-0.91647 -0.3139,-0.75533 -0.66525,-1.37333 -0.78077,-1.37333 -0.34772,0 -1.83607,1.94095 -1.83607,2.3944 0,0.23196 -0.35388,0.88944 -0.78639,1.46107 -0.43252,0.57163 -0.78971,1.24768 -0.79375,1.50234 -0.004,0.25466 -0.12401,0.46302 -0.26657,0.46302 -0.14256,0 -0.49891,0.46987 -0.79189,1.04415 -0.29298,0.57428 -0.69473,1.13982 -0.89279,1.25677 -0.19806,0.11694 -0.50557,0.48953 -0.68335,0.82796 -0.37855,0.72065 -0.59133,0.97821 -2.55185,3.08883 -2.10815,2.26955 -3.63222,4.10105 -3.41269,4.10105 0.43697,0 2.503,-1.49226 2.64629,-1.91136 0.0858,-0.25088 0.52282,-0.71738 0.97122,-1.03667 0.76232,-0.54282 0.83687,-0.55098 1.14792,-0.12559 0.26995,0.36917 0.25929,0.602 -0.0565,1.23511 -0.21406,0.42909 -0.47812,0.78017 -0.58679,0.78017 -0.10866,0 -0.68027,0.41317 -1.27023,0.91815 -0.58995,0.50499 -1.61867,1.06419 -2.28604,1.24269 -0.92108,0.24635 -1.28653,0.50109 -1.51697,1.05743 -0.16697,0.40309 -0.5289,0.8044 -0.80429,0.89181 -0.27539,0.0874 -0.50071,0.26996 -0.50071,0.40567 0,0.13572 -0.35159,0.24676 -0.7813,0.24676 -0.42972,0 -1.0548,0.10937 -1.38906,0.24305 -0.33427,0.13369 -0.84589,0.33208 -1.13693,0.44089 -0.29104,0.1088 -1.37136,0.21009 -2.40069,0.22508 -1.29161,0.0188 -2.08808,0.16913 -2.57038,0.48515 -0.80412,0.52688 -0.98206,0.56191 -0.98206,0.19333 z m 30.95625,-9.67626 c 0,-0.1836 0.13828,-0.37991 0.30728,-0.43624 0.18193,-0.0606 0.29914,-0.63626 0.28733,-1.41112 -0.011,-0.71977 0.0671,-1.42774 0.17353,-1.57327 0.1064,-0.14552 0.41955,-0.95236 0.69588,-1.79297 0.51476,-1.56588 1.3497,-2.4301 2.07784,-2.15068 0.72094,0.27665 1.40891,-3.51454 0.75621,-4.16723 -0.25012,-0.25013 -1.0319,0.68254 -1.1829,1.41121 -0.0399,0.19232 -0.34035,0.72868 -0.66777,1.19192 -0.32742,0.46323 -0.59531,1.07557 -0.59531,1.36075 0,0.28518 -0.17074,0.58403 -0.37941,0.66411 -0.55263,0.21206 -1.77791,2.88662 -1.46554,3.19899 0.16193,0.16193 0.047,0.47377 -0.31755,0.86185 -0.55869,0.5947 -1.15575,3.34184 -0.83804,3.85591 0.17974,0.29083 1.14845,-0.56383 1.14845,-1.01323 z m 3.70285,-5.48676 c 7.8e-4,-0.28145 -0.11881,-0.4044 -0.29026,-0.29843 -0.29005,0.17926 -1.03998,1.76277 -1.02182,2.15763 0.0197,0.42805 1.31083,-1.40148 1.31208,-1.8592 z m -19.83138,-2.36564 c 0.14439,-0.32742 0.62153,-1.19062 1.0603,-1.91823 0.43877,-0.7276 0.86627,-1.47192 0.95,-1.65404 0.18507,-0.40256 -0.71168,-3.50533 -1.01309,-3.50533 -0.11798,0 -0.21451,0.11898 -0.21451,0.2644 0,0.14542 -0.65485,0.93513 -1.45521,1.7549 -0.80036,0.81978 -1.45521,1.71248 -1.45521,1.98379 0,0.61937 1.37812,3.66983 1.65793,3.66983 0.11399,0 0.32539,-0.26789 0.46979,-0.59532 z m 5.5452,-0.99218 c 0.15576,-0.29105 0.21335,-0.52917 0.12797,-0.52917 -0.0854,0 0.15607,-0.28851 0.53655,-0.64112 0.38048,-0.35262 0.7373,-1.00081 0.79294,-1.44042 0.0556,-0.43962 0.28948,-1.16348 0.51965,-1.60858 0.38198,-0.73868 0.38152,-0.93645 -0.005,-2.26714 -0.2331,-0.80183 -0.50514,-1.40761 -0.60454,-1.34618 -0.0994,0.0614 -0.64451,1.01322 -1.21134,2.11508 -0.56684,1.10187 -1.24469,2.07134 -1.50635,2.15439 -0.40596,0.12884 -0.46225,0.39842 -0.38379,1.83801 0.0506,0.92787 0.17083,1.81466 0.26725,1.97066 0.28884,0.46736 1.16383,0.3209 1.46698,-0.24553 z m 17.22971,-1.32292 c 0.32715,-0.58208 0.69195,-1.05833 0.81068,-1.05833 0.11872,0 0.21586,-0.23394 0.21586,-0.51986 0,-0.28592 0.24189,-0.64931 0.53753,-0.80754 l 0.53752,-0.28767 -0.53752,-0.68336 c -0.29564,-0.37584 -0.53753,-0.96495 -0.53753,-1.30913 0,-0.34418 -0.11906,-0.62578 -0.26458,-0.62578 -0.14553,0 -0.26459,0.23813 -0.26459,0.52917 0,0.29104 -0.10319,0.52917 -0.22931,0.52917 -0.35252,0 -1.36137,2.61263 -1.07678,2.78852 0.13627,0.0842 0.24776,0.027 0.24776,-0.12708 0,-0.1541 0.11831,-0.28019 0.26292,-0.28019 0.33736,0 0.20439,0.89212 -0.20681,1.3876 -0.17386,0.20948 -0.24064,0.45634 -0.1484,0.54858 0.0922,0.0922 0.0171,0.34917 -0.16699,0.57096 -0.20689,0.24929 -0.22775,0.40327 -0.0546,0.40327 0.15403,0 0.54772,-0.47625 0.87487,-1.05833 z m -4.74131,0.0209 c 0.4031,-0.47079 1.07641,-1.56635 1.15112,-1.87301 0.0177,-0.0728 0.12932,-0.35459 0.248,-0.62628 0.23982,-0.54904 -0.1179,-1.84087 -0.51759,-1.86915 -0.14085,-0.01 -0.38964,0.45813 -0.55285,1.04022 -0.39013,1.39134 -1.25315,1.66201 -1.12775,0.35369 0.0642,-0.66997 0.19628,-0.86411 0.54765,-0.80511 0.46065,0.0774 0.66184,-0.35049 0.24392,-0.51872 -0.1205,-0.0485 -0.14632,-0.82778 -0.0574,-1.73172 0.12768,-1.29755 0.0701,-1.76505 -0.27376,-2.22086 -0.44971,-0.59619 -1.03727,-0.49658 -1.03727,0.17583 0,0.2097 -0.0968,0.38126 -0.21501,0.38126 -0.11825,0 -0.47556,0.59673 -0.79402,1.32607 -0.48191,1.10366 -0.52392,1.41429 -0.25052,1.85208 0.35061,0.56142 0.73038,0.69735 0.73038,0.26144 0,-0.14552 0.1786,-0.26459 0.39688,-0.26459 0.4474,0 0.55892,1.19154 0.13598,1.45293 -0.30561,0.18888 -0.20051,1.27739 0.22541,2.33461 0.16504,0.40966 0.30007,0.85614 0.30007,0.99219 0,0.40141 0.37987,0.28437 0.84673,-0.26088 z m -24.3053,-3.1884 c 1.12704,-1.28519 1.21771,-1.47271 0.747,-1.54493 -0.29466,-0.0452 -1.09912,0.21773 -1.78769,0.58428 l -1.25195,0.66646 -0.0817,1.66469 -0.0817,1.66468 0.58661,-0.78622 c 0.32264,-0.43242 1.16385,-1.44446 1.86935,-2.24896 z m 5.49785,-1.39659 c 0.84998,-0.90951 1.54792,-1.72118 1.55098,-1.80373 0.003,-0.0825 -0.44638,-0.0825 -0.99877,0 -1.05839,0.15816 -2.11957,0.87822 -2.57521,1.7474 -0.32604,0.62196 -0.20203,1.70997 0.19489,1.70997 0.15549,0 0.97814,-0.74414 1.82811,-1.65364 z m 4.71066,0 c 0.58111,-0.61847 1.27002,-1.5412 1.53092,-2.05052 0.26089,-0.50933 0.57203,-0.99779 0.69142,-1.08547 0.26801,-0.19683 0.45304,-2.6187 0.20006,-2.6187 -0.10054,0 -0.86801,0.70838 -1.70547,1.57417 -1.30942,1.35371 -1.48322,1.6479 -1.24093,2.10061 0.32702,0.61105 0.0187,0.9092 -0.66779,0.64577 -0.36669,-0.14071 -0.4285,-0.0796 -0.28846,0.28536 0.098,0.25545 0.17822,0.87143 0.17822,1.36885 0,0.49743 0.0552,0.90441 0.12274,0.90441 0.0675,0 0.59818,-0.50602 1.17929,-1.12448 z m 17.80622,0.39687 c 0.17035,-0.40018 0.31841,-0.8496 0.32901,-0.99871 0.0106,-0.14911 0.27364,-0.70221 0.58452,-1.2291 0.32346,-0.54823 0.46609,-1.05713 0.33346,-1.18976 -0.12747,-0.12747 -0.27617,-0.46734 -0.33046,-0.75527 -0.19153,-1.01599 -0.50465,-1.97872 -0.64356,-1.97872 -0.23653,0 -0.83937,0.86165 -1.54716,2.21141 l -0.67404,1.28536 0.59705,1.6912 c 0.32837,0.93016 0.69703,1.6912 0.81924,1.6912 0.12221,0 0.36158,-0.32743 0.53194,-0.72761 z m 4.91627,-1.32291 c 0.28195,-0.40019 0.773,-1.24201 1.09124,-1.87073 0.52195,-1.03121 0.5495,-1.28332 0.28133,-2.57507 -0.1635,-0.78758 -0.40949,-1.50131 -0.54665,-1.58608 -0.26715,-0.16511 -1.44271,1.08105 -2.09959,2.22568 -0.2201,0.38354 -0.51235,0.87422 -0.64945,1.09041 -0.58091,0.91603 0.18075,3.44339 1.03773,3.44339 0.20501,0 0.60344,-0.32742 0.88539,-0.7276 z m 14.20358,-0.0529 c 0.13792,-0.43457 -0.56481,-2.35936 -0.76245,-2.08834 -0.0364,0.0499 -0.0156,0.65628 0.0462,1.34751 0.11663,1.30504 0.43328,1.63253 0.7163,0.74083 z m -30.86588,-1.79917 c 0.47117,-0.98226 1.15055,-2.19049 1.50973,-2.68496 0.69142,-0.95184 0.83611,-1.73474 0.37343,-2.02068 -0.64967,-0.40152 -1.50079,0.20327 -2.56588,1.82328 -1.10345,1.67834 -1.11603,1.72371 -0.85699,3.08965 0.1446,0.76246 0.26291,1.42957 0.26291,1.48247 0,0.0529 0.0945,0.0962 0.21007,0.0962 0.11554,0 0.59557,-0.80367 1.06673,-1.78594 z m 5.0926,-0.33073 c 0.13485,0 0.24518,-0.15059 0.24518,-0.33464 0,-0.18406 0.24706,-0.79562 0.54903,-1.35902 0.43931,-0.81965 0.51367,-1.28148 0.37209,-2.31089 -0.0973,-0.70759 -0.28364,-1.35247 -0.41406,-1.43307 -0.29209,-0.18052 -2.48862,2.02789 -2.38203,2.39492 0.0423,0.14552 0.24589,0.91942 0.45251,1.71979 0.52504,2.03382 0.68097,2.37286 0.82135,1.78594 0.0609,-0.25467 0.22108,-0.46303 0.35593,-0.46303 z m 21.94102,0.11668 c 0,-0.22687 -0.11907,-0.3389 -0.26459,-0.24897 -0.14552,0.0899 -0.26458,0.27556 -0.26458,0.41249 0,0.13694 0.11906,0.24897 0.26458,0.24897 0.14552,0 0.26459,-0.18562 0.26459,-0.41249 z m 9.41689,0.18704 c -0.0766,-0.124 0.0792,-0.65407 0.34627,-1.17794 0.49485,-0.97062 0.53168,-1.91769 0.10427,-2.68143 -0.21045,-0.37605 -0.30348,-0.35552 -0.7966,0.17588 -0.30707,0.33091 -0.5911,0.78024 -0.63116,0.99853 -0.0994,0.54161 0.29237,2.17409 0.61911,2.57968 0.29984,0.37221 0.57264,0.45241 0.35811,0.10528 z m -5.00833,-0.89903 c -0.0734,-0.1819 -0.13346,-0.0331 -0.13346,0.33073 0,0.3638 0.0601,0.51263 0.13346,0.33073 0.0734,-0.1819 0.0734,-0.47956 0,-0.66146 z m -38.33316,-0.4986 c 0.54119,-0.60165 1.37092,-1.49065 1.84387,-1.97555 1.32514,-1.35866 1.11637,-1.77188 -0.53767,-1.06416 -1.24849,0.53419 -2.39684,1.84502 -2.18926,2.49903 0.0928,0.29245 0.0449,0.60831 -0.10658,0.7019 -0.28062,0.17343 -0.39038,0.93269 -0.13483,0.93269 0.0773,0 0.58329,-0.49226 1.12447,-1.09391 z m 30.6173,0.82933 c 0.0899,-0.14552 0.0374,-0.26458 -0.11667,-0.26458 -0.15411,0 -0.2802,0.11906 -0.2802,0.26458 0,0.14552 0.0525,0.26458 0.11668,0.26458 0.0642,0 0.19026,-0.11906 0.28019,-0.26458 z m -13.70534,-1.60679 c 0.32018,-0.64424 0.76667,-1.40391 0.99219,-1.68817 0.60952,-0.76828 0.51247,-3.58421 -0.12354,-3.58421 -0.37488,0 -2.64143,3.66584 -2.64143,4.27216 0,0.87917 0.59998,2.36254 0.91444,2.26085 0.1519,-0.0491 0.53815,-0.6164 0.85834,-1.26063 z m 23.5476,0.31608 c 0.50802,-0.95177 0.55552,-1.7613 0.17266,-2.94262 -0.18991,-0.58595 -0.69356,0.4066 -0.80265,1.5818 -0.16127,1.73718 -0.19719,1.85778 -0.55333,1.85778 -0.19568,0 -0.28221,0.11906 -0.19227,0.26458 0.32602,0.52751 0.83916,0.24343 1.37559,-0.76154 z m -4.68288,-2.41184 c 0,-1.51497 -0.98991,-1.23445 -1.78727,0.50649 -0.23858,0.52091 -0.47975,1.0364 -0.53593,1.14554 -0.0562,0.10914 0.0864,0.19844 0.31677,0.19844 0.23041,0 0.41893,0.21828 0.41893,0.48507 0,0.26679 0.0726,0.55764 0.16128,0.64635 0.26627,0.26627 1.42622,-2.15891 1.42622,-2.98189 z m -13.27921,0.16012 c 0.6588,-1.00245 1.22632,-2.19308 1.26116,-2.64583 0.0656,-0.85191 -0.39888,-2.27841 -0.74179,-2.27841 -0.10739,0 -0.79719,0.80368 -1.5329,1.78594 l -1.33765,1.78594 0.14721,1.81919 c 0.16861,2.08351 0.36071,2.56405 0.74065,1.85281 0.14603,-0.27335 0.80452,-1.31719 1.46332,-2.31964 z m 15.84965,1.2096 c 0.0485,-0.88827 -0.0207,-1.3432 -0.18855,-1.23944 -0.14587,0.0902 -0.26522,0.34822 -0.26522,0.57349 0,0.25535 -0.14944,0.35222 -0.39688,0.25727 -0.45127,-0.17317 -0.55748,0.49435 -0.12153,0.76379 0.15144,0.0936 0.19948,0.40922 0.10674,0.70139 -0.13148,0.41429 -0.0632,0.51093 0.31008,0.43904 0.37773,-0.0727 0.49486,-0.38817 0.55536,-1.49554 z m -5.00637,-1.92755 c 0.46664,-0.45622 0.84843,-0.97938 0.84843,-1.16257 0,-0.1832 0.18128,-0.48354 0.40285,-0.66742 0.22156,-0.18389 0.34771,-0.52589 0.28033,-0.76 -0.0674,-0.23412 -0.25326,-0.93169 -0.41305,-1.55015 -0.15979,-0.61846 -0.38438,-1.12448 -0.49908,-1.12448 -0.28096,0 -2.68147,2.21635 -2.68147,2.47576 0,0.11296 -0.29003,0.58563 -0.64451,1.05038 l -0.64452,0.84501 0.64452,0.62032 c 0.35448,0.34118 0.64451,0.88167 0.64451,1.20109 0,0.31943 0.14883,0.73011 0.33073,0.91262 0.26497,0.26586 0.38562,0.19833 0.60678,-0.33961 0.15183,-0.3693 0.65785,-1.04473 1.12448,-1.50095 z m -27.89517,0.49747 c -0.23464,-0.37966 -0.75932,-0.21084 -1.11506,0.35879 -0.2941,0.47093 -0.29368,0.6015 0.003,0.78681 0.37889,0.23707 1.34944,-0.76232 1.11256,-1.1456 z m 21.15573,1.05058 c 0.45055,-0.47838 2.16892,-2.65661 2.38441,-3.02253 0.10071,-0.171 0.0708,-0.58771 -0.0665,-0.92604 -0.13729,-0.33833 -0.31967,-0.94256 -0.40527,-1.34274 -0.10759,-0.50294 -0.32107,-0.72761 -0.69137,-0.72761 -0.29465,0 -0.50716,0.14883 -0.47224,0.33073 0.0349,0.1819 -0.38262,0.80698 -0.92788,1.38906 -0.69056,0.73721 -0.94825,1.2189 -0.84925,1.5875 0.0782,0.29104 0.14374,0.73379 0.14573,0.98389 0.002,0.29483 0.14316,0.40117 0.40049,0.30242 0.21828,-0.0838 0.39687,-0.0205 0.39687,0.14059 0,0.16109 -0.14883,0.26313 -0.33073,0.22675 -0.1819,-0.0364 -0.31882,0.0827 -0.30427,0.26458 0.10218,1.27721 0.18177,1.36491 0.72005,0.7934 z m 19.76583,-2.11631 c 0.96475,-2.1254 0.44032,-2.77709 -0.89154,-1.10788 -0.54969,0.68891 -0.70856,1.11619 -0.59027,1.58749 0.24744,0.98591 0.9146,0.76998 1.48181,-0.47961 z m -3.30025,-1.16223 c -0.31668,-1.26174 -0.68464,-1.97229 -0.93972,-1.81464 -0.14579,0.0901 -0.26507,0.33539 -0.26507,0.54508 0,0.2097 -0.11907,0.38126 -0.26459,0.38126 -0.14552,0 -0.26458,0.11907 -0.26458,0.26459 0,0.14552 0.17859,0.26458 0.39687,0.26458 0.37909,0 0.5066,0.5232 0.41914,1.71979 -0.0355,0.48599 0.007,0.47656 0.51497,-0.11556 0.36352,-0.42331 0.50191,-0.85091 0.40298,-1.2451 z m -4.18136,-0.0565 c 0.9281,-1.00933 1.07654,-1.71125 0.48665,-2.30114 -0.20529,-0.20529 -0.43616,-0.52421 -0.51305,-0.7087 -0.0947,-0.22725 -0.34023,-0.10076 -0.76117,0.39215 -0.34798,0.40747 -0.90802,0.73679 -1.27289,0.74849 -0.35833,0.0115 -0.50617,0.0798 -0.32852,0.15176 0.22088,0.0895 0.27288,0.49651 0.16449,1.28733 -0.22208,1.62027 -0.007,2.09427 0.76536,1.68385 0.32958,-0.17522 0.98619,-0.7394 1.45913,-1.25374 z m -31.57341,0.19122 c -0.19596,-0.31706 -0.83689,-0.28759 -1.04431,0.048 -0.0942,0.15248 -0.0988,0.46635 -0.0101,0.69747 0.14444,0.37641 0.21519,0.37141 0.67866,-0.048 0.28458,-0.25754 0.45366,-0.5714 0.37575,-0.69747 z m 8.30529,-0.36925 c 0.46458,-0.6591 0.84469,-1.34484 0.84469,-1.52386 0,-0.17902 0.24526,-0.47866 0.54502,-0.66587 0.40236,-0.25128 0.52356,-0.5617 0.46302,-1.18595 -0.11054,-1.13989 -0.87884,-1.29749 -1.09348,-0.22431 -0.16065,0.80324 -1.11928,1.94901 -1.87252,2.23806 -0.50289,0.19297 -0.63273,1.20254 -0.28674,2.22956 0.19359,0.57465 0.53062,0.36578 1.40001,-0.86763 z m -13.31052,0.55199 c 0.70954,-0.17719 1.64999,-0.67537 2.22329,-1.17775 0.7651,-0.67043 2.16176,-0.72996 3.07575,-0.13109 0.67065,0.43942 1.977,0.3294 1.977,-0.1665 0,-0.14275 0.26789,-0.26333 0.59531,-0.26796 0.5643,-0.008 0.57008,-0.0275 0.11093,-0.37551 -0.46653,-0.35358 -0.46409,-0.38739 0.0661,-0.91763 0.30279,-0.30279 0.69935,-0.55431 0.88125,-0.55894 0.57031,-0.0145 1.3233,-0.71299 0.99042,-0.91872 -0.16391,-0.10131 -0.36528,-0.11692 -0.44749,-0.0347 -0.0822,0.0822 -0.36473,0.0343 -0.6278,-0.10652 -0.31222,-0.16709 -0.53526,-0.16386 -0.64229,0.009 -0.0902,0.14591 -0.36047,0.26529 -0.60066,0.26529 -0.24018,0 -0.93956,0.54773 -1.55418,1.21718 -1.09491,1.19259 -1.68206,1.3325 -1.68206,0.40083 0,-0.58758 -0.98308,-1.49436 -1.84901,-1.7055 -0.94905,-0.23141 -2.51217,0.31269 -3.31966,1.15553 -1.12452,1.17374 -1.03026,4.01237 0.11783,3.54865 0.23135,-0.0934 0.5397,-0.19963 0.68522,-0.23597 z m 9.119,-0.40305 c 1.02139,-0.99844 1.05154,-1.41328 0.0758,-1.04229 -1.14512,0.43538 -1.70839,1.04607 -1.35621,1.47041 0.3876,0.46704 0.35283,0.47867 1.28046,-0.42812 z m 29.11329,0.38796 c 0,-0.21828 -0.0468,-0.39688 -0.10399,-0.39688 -0.0572,0 -0.17251,0.1786 -0.25628,0.39688 -0.0838,0.21828 -0.037,0.39687 0.10399,0.39687 0.14095,0 0.25628,-0.17859 0.25628,-0.39687 z m 4.23333,-1.18032 c 0,-0.13985 0.24749,-0.48485 0.54997,-0.76665 0.52176,-0.48609 0.5282,-0.5545 0.1255,-1.33323 -0.49911,-0.96517 -0.6517,-0.99652 -1.4103,-0.28978 -0.57066,0.53165 -0.56918,0.84054 0.01,2.04862 0.28881,0.60263 0.72505,0.80782 0.72505,0.34104 z m -24.07708,-0.67177 0.62141,-0.66145 -0.61831,-0.65816 c -0.79838,-0.84984 -1.32602,-0.46978 -1.32602,0.95514 0,1.21567 0.41567,1.33019 1.32292,0.36447 z m 27.65867,0.33073 c 0.65397,-0.58646 1.03461,-0.85268 1.734,-1.21273 0.37696,-0.19407 1.06239,-0.67461 1.52317,-1.06789 0.77545,-0.66183 0.81305,-0.76831 0.50525,-1.43103 -0.1829,-0.39379 -0.39208,-0.71677 -0.46484,-0.71773 -0.0728,-9.6e-4 -0.47823,0.29577 -0.90105,0.65939 -0.74112,0.63737 -1.49172,0.87372 -1.46945,0.4627 0.006,-0.10914 0.3631,-0.61066 0.79375,-1.11448 0.43065,-0.50383 0.783,-1.11437 0.783,-1.35675 0,-0.60235 -0.7518,-2.35741 -1.00982,-2.35741 -0.11494,0 -0.50029,0.59346 -0.85635,1.3188 -0.48874,0.99564 -0.79325,1.31981 -1.24269,1.32292 -0.85159,0.006 -0.99993,-0.0788 -0.90003,-0.51386 0.072,-0.3134 -0.41508,-2.27607 -0.64842,-2.61293 -0.10265,-0.14819 -1.16352,0.9977 -1.16352,1.25677 0,0.13339 -0.14509,0.29089 -0.32241,0.35 -0.24951,0.0832 -0.2402,0.35653 0.0412,1.20921 0.35869,1.08686 0.37735,1.09955 1.38073,0.9391 0.80323,-0.12844 1.01713,-0.0785 1.01713,0.23762 0,0.22014 -0.29765,0.59529 -0.66146,0.83366 -0.7901,0.5177 -0.812,0.69583 -0.17571,1.42947 0.39064,0.45041 0.67554,0.52926 1.4552,0.40274 0.77893,-0.1264 0.96947,-0.0739 0.96947,0.26737 0,0.23359 -0.36561,0.61377 -0.81247,0.84485 -0.66238,0.34253 -0.75415,0.49042 -0.49677,0.80054 0.3851,0.46403 0.45579,0.46784 0.92208,0.0497 z m -21.6394,-1.9413 c 0.47294,-0.47237 0.85809,-1.07714 0.85588,-1.34393 -0.005,-0.66426 -0.74993,-2.98163 -0.77204,-2.40331 -0.01,0.25466 -0.10699,0.4633 -0.21613,0.46364 -0.10914,3.5e-4 -0.57593,0.32777 -1.03731,0.72761 -0.96448,0.83583 -1.16458,2.02954 -0.57999,3.45982 0.31442,0.76924 0.39352,0.82215 0.62484,0.41788 0.14567,-0.25457 0.65181,-0.84934 1.12475,-1.32171 z m 3.81756,1.37531 c 0.19229,-0.20216 0.58775,-0.69992 0.87879,-1.10613 0.29105,-0.40622 0.91612,-1.09338 1.38907,-1.52704 0.47294,-0.43366 0.85989,-0.94233 0.85989,-1.13038 0,-0.46918 -0.57312,-1.68973 -0.79343,-1.68973 -0.0986,0 -0.98834,0.76639 -1.97713,1.70309 -1.38603,1.313 -1.76511,1.82812 -1.65506,2.24896 0.0829,0.31714 0.0145,0.5494 -0.16321,0.55428 -0.16828,0.005 -0.0976,0.16659 0.15706,0.3599 0.25466,0.19332 0.46302,0.48719 0.46302,0.65305 0,0.41195 0.41753,0.37918 0.841,-0.066 z m 10.82908,-0.71101 c 0.42436,-0.30217 0.70512,-0.65689 0.62392,-0.78828 -0.21289,-0.34446 0.37558,-1.33605 0.75055,-1.26471 1.19046,0.2265 1.84382,-0.7728 1.24131,-1.89859 -0.23125,-0.43209 -0.37895,-0.45905 -1.12448,-0.2052 -1.20654,0.41082 -2.76654,1.96587 -2.68652,2.67799 0.0354,0.31514 0.0743,0.9004 0.0864,1.30059 0.0264,0.87259 0.11388,0.88664 1.10879,0.1782 z m -4.11089,-0.94524 c 0.93439,-1.16376 1.16899,-2.1212 0.73125,-2.98431 -0.17922,-0.35336 -0.26539,-0.74032 -0.19149,-0.85989 0.0739,-0.11958 -0.005,-0.21741 -0.1764,-0.21741 -0.17092,0 -0.77514,0.50602 -1.3427,1.12448 -1.08414,1.18135 -1.16812,1.82085 -0.43431,3.30729 0.39044,0.79091 0.50564,0.76074 1.41365,-0.37016 z m -14.18209,-2.01109 c 0.005,-0.5457 -0.0725,-0.99219 -0.17133,-0.99219 -0.30953,0 -1.93702,1.90123 -1.93702,2.26282 0,0.52049 0.85123,0.59475 1.51304,0.132 0.42538,-0.29743 0.58929,-0.68362 0.59531,-1.40263 z m -2.48714,-0.5951 c 0.57214,-0.50921 1.12955,-0.92593 1.23869,-0.92604 0.10914,-1.2e-4 0.19844,-0.11927 0.19844,-0.2648 0,-0.39281 -0.73473,-0.32043 -0.97905,0.0965 -0.11637,0.19857 -0.59853,0.55882 -1.07148,0.80055 -0.85099,0.43497 -1.02548,0.70131 -0.6835,1.04329 0.23269,0.23269 0.12063,0.29745 1.2969,-0.74945 z m 12.28504,-4.02508 c 0,-0.33294 -0.11532,-0.60534 -0.25628,-0.60534 -0.14095,0 -0.18372,-0.18907 -0.0951,-0.42016 0.12423,-0.32372 0.0161,-0.39963 -0.47132,-0.33072 -0.5295,0.0749 -0.63256,0.2403 -0.63256,1.01546 0,0.90915 -0.0181,0.92446 -0.99218,0.83921 -0.58674,-0.0514 -0.99219,0.0297 -0.99219,0.19844 0,0.1569 -0.16402,0.28527 -0.36448,0.28527 -0.74033,0 -0.89754,0.61614 -0.60191,2.35911 l 0.28794,1.69765 2.05901,-2.21679 c 1.32305,-1.42443 2.05902,-2.43316 2.05902,-2.82213 z m 21.27825,3.76439 c 0.39095,-0.72596 0.44382,-1.10559 0.2487,-1.78593 -0.23329,-0.81344 -1.02174,-1.23516 -1.02174,-0.54651 0,0.17463 -0.14883,0.46633 -0.33073,0.64823 -0.34608,0.34608 -0.45908,2.12502 -0.15434,2.42976 0.37795,0.37795 0.78201,0.13851 1.25811,-0.74555 z m -13.86991,0.12414 c 0.2489,-0.1634 0.29822,-0.33452 0.13229,-0.45897 -0.40835,-0.30627 -0.46221,-1.12448 -0.074,-1.12448 0.40955,0 1.34899,-2.03072 1.11477,-2.4097 -0.10185,-0.1648 -0.31063,-0.13833 -0.56336,0.0714 -0.22085,0.18329 -0.65673,0.46006 -0.96863,0.61506 -0.8763,0.43547 -1.25338,1.90006 -0.72732,2.82502 0.47235,0.83053 0.52157,0.85235 1.08627,0.48165 z m -14.44904,-1.89536 c -0.068,-0.10997 0.11916,-0.35155 0.41585,-0.53683 0.45197,-0.28226 0.76848,-1.00335 0.44041,-1.00335 -0.086,0 -1.70169,0.54354 -2.77504,0.93359 -0.27273,0.0991 -0.28773,0.21873 -0.0616,0.49122 0.16443,0.19811 0.22463,0.55389 0.13379,0.79062 -0.0908,0.23672 -0.0909,0.62382 -2.4e-4,0.86021 0.13701,0.35702 0.31779,0.28035 1.06766,-0.45285 0.4965,-0.48546 0.84712,-0.97264 0.77916,-1.08261 z m 15.77195,0.83453 c 0,-0.14913 0.29766,-0.3843 0.66146,-0.52262 0.3638,-0.13832 0.66146,-0.43303 0.66146,-0.65491 0,-0.5542 -0.14684,-0.51242 -1.06063,0.30177 -0.80585,0.71802 -1.00287,1.14689 -0.52687,1.14689 0.14552,0 0.26458,-0.12201 0.26458,-0.27113 z m -4.98548,-2.24241 c 0.39937,-0.4544 0.43082,-1.28209 0.0643,-1.69131 -0.0511,-0.0571 -0.62104,0.41916 -1.26644,1.05834 -1.0189,1.00907 -1.14088,1.24583 -0.92615,1.79762 l 0.24731,0.63548 0.70796,-0.63548 c 0.38938,-0.34952 0.91725,-0.87361 1.17306,-1.16465 z m 15.7647,0.33073 c 0.70851,-1.47839 0.84763,-2.93475 0.33166,-3.47183 -0.12188,-0.12687 -0.15864,-0.39476 -0.0817,-0.59531 0.0828,-0.21578 -0.0322,-0.36464 -0.28171,-0.36464 -0.778,0 -1.56817,2.62748 -1.13386,3.77032 0.0968,0.25466 0.23176,0.64161 0.29995,0.85989 0.17835,0.57089 0.53627,0.48885 0.86565,-0.19843 z m -3.29624,-0.81014 c 0.50301,-0.96926 0.50266,-0.9828 -0.0486,-1.91714 -0.30536,-0.51755 -0.5552,-1.11278 -0.5552,-1.32274 0,-0.73591 -0.49744,-0.37095 -1.07752,0.79055 l -0.58548,1.1723 0.57705,1.22762 c 0.31737,0.67519 0.71343,1.18216 0.88011,1.12659 0.16669,-0.0556 0.53103,-0.54029 0.80965,-1.07718 z m -24.8377,-0.41955 c 0.46968,-0.51898 0.47407,-0.58867 0.0655,-1.04011 -1.11593,-1.23309 -0.25813,-1.99813 2.0739,-1.84964 0.94685,0.0603 1.71835,0.0445 1.71443,-0.0352 -0.004,-0.0797 -0.35434,-0.56155 -0.77872,-1.07087 -0.74747,-0.89708 -0.78359,-0.90981 -1.15488,-0.40687 -0.32734,0.44343 -0.44583,0.46726 -0.81203,0.16334 -0.35044,-0.29084 -0.36775,-0.42977 -0.0948,-0.76044 0.29334,-0.35534 0.19586,-0.38616 -0.80087,-0.25326 -0.62417,0.0832 -1.3109,0.29743 -1.52606,0.476 -0.34183,0.28369 -0.32205,0.4419 0.15669,1.2533 0.8606,1.45862 0.31083,1.68257 -1.597,0.65053 -1.22175,-0.6609 -1.70926,-0.79856 -2.18605,-0.61728 -0.88905,0.33801 -1.2626,0.89841 -1.08716,1.63095 0.0845,0.35302 0.16678,0.85021 0.18275,1.10487 0.016,0.25466 0.18212,0.47791 0.36922,0.4961 0.65036,0.0632 2.01369,0.58336 2.97646,1.13557 0.743,0.42617 1.5875,0.12976 2.49858,-0.87698 z m 31.84812,0.443 c 0.26691,-0.70713 0.24807,-1.04616 -0.11023,-1.98438 -0.23768,-0.62234 -0.51111,-1.13154 -0.60763,-1.13154 -0.0965,0 -0.33105,0.43022 -0.52119,0.95604 -0.30355,0.83943 -0.28582,1.08111 0.14528,1.98134 0.27005,0.56392 0.55419,1.02667 0.63143,1.02834 0.0772,0.002 0.28529,-0.38074 0.46234,-0.8498 z m -11.09306,-0.58178 c 0.25934,-0.53232 0.27792,-0.81379 0.0676,-1.02411 -0.43884,-0.43884 -1.43296,0.72624 -1.21246,1.42097 0.22037,0.69433 0.69307,0.53047 1.14485,-0.39686 z m -9.81648,-0.95067 c 0.92042,-0.83732 1.05702,-1.19915 0.52916,-1.40169 -0.22151,-0.085 -0.13413,-0.27198 0.26459,-0.56622 0.61189,-0.45155 0.86062,-1.99681 0.32142,-1.99681 -0.34005,0 -1.51749,0.74551 -2.29451,1.45277 -0.50652,0.46107 -0.55314,0.66752 -0.35135,1.5559 0.12797,0.56336 0.16968,1.18843 0.0927,1.38906 -0.23831,0.62103 0.53549,0.38803 1.438,-0.43301 z m 3.50573,-0.67304 c 0,-0.2097 -0.11907,-0.38126 -0.26459,-0.38126 -0.14552,0 -0.26458,0.24515 -0.26458,0.54478 0,0.29963 0.11906,0.47119 0.26458,0.38126 0.14552,-0.0899 0.26459,-0.33509 0.26459,-0.54478 z m 3.11436,-0.16629 c -0.0576,-0.17281 -0.2462,-0.36135 -0.4191,-0.41898 -0.19335,-0.0644 -0.25248,0.0565 -0.1536,0.31419 0.18456,0.48094 0.73144,0.581 0.5727,0.10479 z m 2.06391,-0.32837 c 0.48826,-0.48825 0.48133,-0.56437 -0.17479,-1.91973 -0.6217,-1.28427 -0.90675,-1.41398 -1.20107,-0.54656 -0.23125,0.68155 -0.19037,1.09297 0.21032,2.11667 0.3195,0.81627 0.61135,0.90381 1.16554,0.34962 z m 13.97082,-1.14649 c 0.83312,-2.58437 0.82047,-3.0455 -0.10223,-3.72768 -0.45772,-0.3384 -0.85501,-0.57503 -0.88288,-0.52584 -0.32085,0.56639 -0.59332,1.91053 -0.58128,2.86757 0.008,0.65485 -0.10473,1.2781 -0.25105,1.38501 -0.16481,0.12043 -0.1377,0.19593 0.0713,0.19844 0.1855,0.002 0.45317,0.30887 0.59481,0.68143 0.33936,0.89257 0.65896,0.6486 1.15138,-0.87893 z m -10.64515,-0.21552 c 0.34813,-0.74061 0.48866,-1.41185 0.3834,-1.83125 -0.19245,-0.76677 -0.63496,-0.87032 -0.85066,-0.19907 -0.0818,0.25466 -0.3667,0.99751 -0.63304,1.65077 -0.34198,0.83882 -0.40362,1.28491 -0.2098,1.51844 0.38431,0.46307 0.67647,0.20909 1.3101,-1.13889 z m 3.62724,0.41707 c 0.15219,-0.43656 0.40899,-0.79375 0.57067,-0.79375 0.16168,0 0.22546,-0.11083 0.14174,-0.2463 -0.0837,-0.13546 -0.0385,-0.31658 0.10049,-0.40249 0.25431,-0.15717 -0.57605,-2.964 -1.00323,-3.39118 -0.30882,-0.30882 -1.20373,2.13699 -1.18778,3.24622 0.0152,1.0561 0.49163,2.38125 0.85616,2.38125 0.13489,0 0.36977,-0.35718 0.52195,-0.79375 z m 3.78638,0.0662 c 0.29009,-0.7178 0.32009,-1.14025 0.13621,-1.91823 -0.0516,-0.21828 -0.1857,-0.84336 -0.29802,-1.38906 -0.11233,-0.5457 -0.2956,-0.99219 -0.40727,-0.99219 -0.33598,0 -0.92755,1.65593 -0.94521,2.64584 -0.0141,0.78914 0.72099,2.38125 1.09942,2.38125 0.0664,0 0.25314,-0.32742 0.41487,-0.72761 z m -13.96173,-0.48404 c 0.0882,-0.22985 0.0875,-0.87333 -10e-4,-1.42997 -0.14042,-0.87808 -0.0794,-1.05617 0.46076,-1.34526 l 0.62261,-0.33321 -0.92356,-0.31668 c -0.80104,-0.27466 -1.01867,-0.24997 -1.64063,0.1862 -0.98812,0.69293 -1.99419,2.1357 -1.5845,2.27226 0.17446,0.0582 0.31721,0.27441 0.31721,0.48056 0,0.23153 0.27816,0.37638 0.7276,0.37888 0.40018,0.002 0.9062,0.11947 1.12448,0.26053 0.55108,0.35614 0.71259,0.32855 0.8975,-0.15331 z m -8.97702,-0.55527 c 0.48843,-0.38973 1.04761,-0.73489 1.24264,-0.76702 0.19502,-0.0321 1.00943,-0.40351 1.8098,-0.82526 1.01818,-0.53654 1.48139,-0.94794 1.5424,-1.36988 0.0586,-0.40497 0.21516,-0.55395 0.47676,-0.45356 0.21926,0.0841 0.31877,0.0349 0.22761,-0.11256 -0.0891,-0.14412 0.1686,-0.38772 0.57261,-0.54132 0.42916,-0.16317 0.61561,-0.35547 0.44846,-0.46253 -0.15736,-0.10078 -0.36761,-0.44451 -0.46722,-0.76384 -0.22909,-0.73442 0.74646,-1.44431 1.86744,-1.3589 0.42407,0.0323 0.91646,-0.0311 1.09419,-0.14097 0.17774,-0.10985 0.32316,-0.0736 0.32316,0.0805 0,0.15411 0.44649,0.27907 0.99219,0.27769 l 0.99219,-0.002 -1.0874,-0.65183 c -1.55035,-0.92936 -2.79358,-1.02659 -3.8655,-0.30232 -0.47736,0.32254 -0.88505,0.81913 -0.90596,1.10353 -0.0209,0.2844 -0.0507,0.66592 -0.0661,0.84782 -0.0155,0.1819 -0.20672,0.33073 -0.425,0.33073 -0.21828,0 -0.39688,0.17156 -0.39688,0.38126 0,0.67458 -0.55142,0.7484 -1.17993,0.15795 -0.49478,-0.46482 -0.79479,-0.54018 -1.57083,-0.3946 -1.07755,0.20215 -1.4602,0.5728 -0.83788,0.81161 0.66548,0.25537 0.48486,0.58419 -0.6346,1.15529 -0.57653,0.29413 -1.2909,0.79525 -1.5875,1.1136 -0.66429,0.71304 -0.70491,1.94377 -0.0762,2.30994 0.60803,0.35415 0.50005,0.38435 1.51163,-0.42281 z m 13.63577,-0.84199 c 0,-0.12522 0.29407,-0.661 0.65348,-1.19063 0.41513,-0.61172 0.53094,-0.96296 0.3175,-0.96296 -0.18479,0 -0.45895,0.12296 -0.60924,0.27325 -0.32605,0.32606 -1.15592,0.0617 -1.15448,-0.36771 0.002,-0.45828 -2.71935,-2.80238 -3.02998,-2.6104 -0.14918,0.0922 -0.77947,0.19716 -1.40064,0.23325 -0.62118,0.0361 -1.33715,0.18187 -1.59105,0.32396 -0.4077,0.22817 -0.37461,0.29144 0.2832,0.54154 0.40965,0.15576 0.91126,0.28319 1.11468,0.28319 0.20342,0 0.99934,0.24478 1.76871,0.54395 2.84452,1.10611 2.85407,1.11277 2.85407,1.99008 0,0.44955 0.0794,0.89673 0.17639,0.99375 0.24949,0.24949 0.61736,0.21894 0.61736,-0.0513 z m 3.73463,-2.16934 c 0.60787,-1.15513 0.95379,-2.0868 0.82327,-2.21732 -0.27912,-0.27913 -0.58915,-0.14826 -0.58915,0.24869 0,0.21828 -0.12757,0.39688 -0.28348,0.39688 -0.60249,0 -1.07555,0.76105 -0.79682,1.28188 0.14736,0.27534 0.18282,0.59211 0.0788,0.70393 -0.10402,0.11181 -0.019,0.15015 0.18885,0.0852 0.20788,-0.065 0.46822,-0.28963 0.57853,-0.49925 z m 7.14144,-0.94079 c 0.15116,-0.18428 0.0926,-0.58166 -0.15601,-1.05833 -0.21893,-0.41979 -0.39879,-0.97162 -0.39968,-1.22628 -9e-4,-0.25466 -0.10955,-0.46302 -0.24144,-0.46302 -0.1319,0 -0.17755,-0.23812 -0.10144,-0.52917 0.2156,-0.82443 -0.3016,-0.6216 -0.62939,0.24683 -0.23538,0.62358 -0.19426,1.0783 0.20934,2.31511 0.74565,2.28497 0.83613,2.44161 0.96549,1.6714 0.0611,-0.36381 0.22001,-0.79425 0.35313,-0.95654 z m -9.97567,-1.1762 c 0.0652,-0.35496 0.12746,-0.73695 0.13827,-0.84887 0.0253,-0.26168 1.44638,0.0808 1.56306,0.37671 0.12408,0.31465 0.83785,0.27978 0.83785,-0.0409 0,-0.14552 -0.16401,-0.26459 -0.36448,-0.26459 -0.20046,0 -0.52392,-0.19212 -0.7188,-0.42693 -0.27492,-0.33126 -0.64599,-0.3924 -1.65578,-0.2728 -0.7158,0.0848 -1.35646,0.20915 -1.42371,0.27639 -0.0672,0.0672 0.2124,0.54166 0.62143,1.05427 0.83225,1.04303 0.8373,1.04377 1.00216,0.14676 z m -6.58894,-0.77768 c 0.0899,-0.14552 0.0374,-0.26458 -0.11668,-0.26458 -0.15411,0 -0.2802,0.11906 -0.2802,0.26458 0,0.14552 0.0525,0.26458 0.11668,0.26458 0.0642,0 0.19026,-0.11906 0.2802,-0.26458 z m -76.06771,51.09199 c 0,-0.23468 0.84193,-1.0026 2.78584,-2.54095 0.55166,-0.43656 1.37936,-1.1807 1.83935,-1.65364 0.97955,-1.00714 1.46329,-1.09526 1.45247,-0.26459 -0.008,0.58635 -1.35366,2.31511 -1.80255,2.31511 -0.12665,0 -0.77603,0.41672 -1.44307,0.92604 -0.66704,0.50932 -1.339,0.92604 -1.49325,0.92604 -0.15425,0 -0.28046,0.11907 -0.28046,0.26459 0,0.14552 -0.23812,0.26458 -0.52916,0.26458 -0.29105,0 -0.52917,-0.10673 -0.52917,-0.23718 z m 6.08542,-0.68886 c 0,-0.21828 0.10269,-0.39688 0.2282,-0.39688 0.18996,0 1.0446,-0.60007 2.54992,-1.7904 2.91124,-2.30206 4.06394,-3.34168 4.31423,-3.891 0.16755,-0.36773 0.50066,-0.6686 0.74025,-0.6686 0.34042,0 0.4018,0.16911 0.28087,0.77377 -0.22965,1.14826 -1.61883,2.47919 -5.28414,5.06259 -1.24072,0.87449 -1.60977,1.02183 -1.91823,0.76583 -0.30617,-0.2541 -0.38194,-0.23182 -0.38194,0.11229 0,0.2361 -0.11906,0.42927 -0.26458,0.42927 -0.14552,0 -0.26458,-0.17859 -0.26458,-0.39687 z m 7.01275,-1.7177 c -0.22832,-0.36943 0.032,-0.7521 1.98308,-2.91536 0.94588,-1.04874 1.86549,-2.10221 2.04358,-2.34104 1.73011,-2.32029 2.21697,-3.02777 2.60615,-3.78718 0.24815,-0.48421 0.52567,-0.93992 0.61672,-1.01268 0.091,-0.0728 0.40184,-0.63694 0.69068,-1.25374 0.56908,-1.21523 1.05341,-1.43488 1.31897,-0.59816 0.10533,0.33186 -0.0361,0.81597 -0.37905,1.29761 -0.30088,0.42255 -0.54705,0.95122 -0.54705,1.17483 0,0.22361 -0.12718,0.48516 -0.28262,0.58123 -0.15544,0.0961 -0.21871,0.34122 -0.1406,0.54478 0.0819,0.21356 -0.0223,0.37011 -0.24654,0.37011 -0.21372,0 -0.38857,0.0906 -0.38857,0.20133 0,0.11073 -0.41444,0.67628 -0.92097,1.25677 -0.50653,0.5805 -0.92325,1.15773 -0.92604,1.28274 -0.005,0.24456 -0.47125,0.79086 -2.48343,2.91271 -0.70826,0.74685 -1.46609,1.6258 -1.68408,1.95323 -0.41646,0.62552 -0.98632,0.77602 -1.26023,0.33282 z m 27.32268,-0.99428 c -0.11827,-0.55204 0.50527,-2.18412 0.98207,-2.57053 0.18578,-0.15056 0.40747,-0.57573 0.49266,-0.94483 0.17088,-0.74043 1.62168,-1.95959 2.03092,-1.70666 0.39936,0.24682 0.30628,1.11233 -0.13796,1.2828 -0.21828,0.0838 -0.39687,0.33044 -0.39687,0.54817 0,0.21772 -0.23409,0.52114 -0.52019,0.67426 -0.28871,0.15451 -0.65039,0.77676 -0.81281,1.39837 -0.39301,1.50409 -1.42079,2.33144 -1.63782,1.31842 z m 22.54998,-8.53282 c 0,-0.14552 0.12609,-0.26458 0.2802,-0.26458 0.15411,0 0.20661,0.11906 0.11668,0.26458 -0.0899,0.14552 -0.21603,0.26459 -0.2802,0.26459 -0.0642,0 -0.11668,-0.11907 -0.11668,-0.26459 z m 0.28547,-4.12309 c 0.0127,-0.30822 0.0754,-0.37092 0.15986,-0.15985 0.0764,0.191 0.067,0.4192 -0.0209,0.50712 -0.0879,0.0879 -0.15046,-0.0684 -0.13897,-0.34727 z m -0.16406,-3.83201 c -0.0959,-0.1552 -0.11765,-0.33893 -0.0483,-0.40829 0.0694,-0.0694 0.19661,0.0576 0.28278,0.28219 0.1789,0.46623 0.0264,0.54823 -0.23448,0.1261 z M 84.93124,150.5144 c 0,-0.14552 0.11906,-0.26459 0.26459,-0.26459 0.14552,0 0.26458,0.11907 0.26458,0.26459 0,0.14552 -0.11906,0.26458 -0.26458,0.26458 -0.14553,0 -0.26459,-0.11906 -0.26459,-0.26458 z m 66.14584,-5.78244 c 0,-0.41408 2.4008,-2.70337 2.66428,-2.54053 0.14259,0.0881 0.23707,0.0621 0.20996,-0.0579 -0.0962,-0.42558 1.32941,-3.5857 1.68982,-3.74588 0.10914,-0.0485 0.19844,-0.28991 0.19844,-0.53644 0,-0.24654 0.16083,-0.6831 0.3574,-0.97014 0.19657,-0.28704 0.43567,-0.84416 0.53133,-1.23805 0.2214,-0.91161 1.20576,-2.59114 1.51865,-2.59114 0.13115,0 0.23845,0.35719 0.23845,0.79375 0,0.43657 -0.11533,0.79375 -0.25628,0.79375 -0.14095,0 -0.19237,0.16655 -0.11426,0.37012 0.0781,0.20356 0.0148,0.44871 -0.14059,0.54478 -0.15544,0.0961 -0.28262,0.45537 -0.28262,0.79846 0,0.34309 -0.11152,0.66348 -0.24783,0.71199 -0.1363,0.0485 -0.88044,1.33348 -1.65364,2.8555 -1.14345,2.25085 -1.66691,2.97919 -2.8048,3.90261 -1.36563,1.10824 -1.90831,1.36677 -1.90831,0.90911 z m 5.62239,-0.35879 c 0.0364,-0.17622 0.25696,-0.53702 0.49017,-0.80178 0.5494,-0.62372 1.82494,-3.22916 1.82494,-3.72766 0,-0.21187 0.14882,-0.4435 0.33072,-0.51473 0.18191,-0.0712 0.47981,-0.61869 0.66202,-1.21657 0.36322,-1.19182 1.06028,-2.15012 1.56398,-2.15012 0.59276,0 0.65659,0.52571 0.15282,1.25858 -0.2744,0.39919 -0.70555,1.17505 -0.9581,1.72413 -0.2861,0.62201 -0.57807,0.93151 -0.77459,0.82108 -0.24097,-0.13543 -0.24253,-0.0983 -0.007,0.15714 0.23735,0.25702 0.19144,0.54147 -0.19844,1.22944 -0.27898,0.49228 -0.75475,1.34153 -1.05726,1.88724 -0.59785,1.07848 -1.20636,1.65364 -1.74951,1.65364 -0.19047,0 -0.31654,-0.14418 -0.28016,-0.32039 z m -2.02843,-1.17265 c -0.0753,-0.19634 0.20454,-0.60856 0.6235,-0.91831 0.41812,-0.30913 0.97969,-0.99436 1.24793,-1.52274 0.4841,-0.95355 1.53593,-2.15084 1.89042,-2.15185 0.10165,-2.9e-4 0.20867,-0.34335 0.23784,-0.76235 0.0292,-0.41901 0.29706,-1.1963 0.59531,-1.72732 0.29826,-0.53101 0.54229,-1.14045 0.54229,-1.35431 0,-0.21385 0.12279,-0.38883 0.27288,-0.38883 0.36624,0 0.61426,0.6979 0.42412,1.19341 -0.0843,0.21981 -0.1476,0.42816 -0.14055,0.46302 0.0934,0.46209 -2.51659,4.97609 -2.99429,5.17864 -0.1144,0.0485 -0.208,0.23059 -0.208,0.40461 0,0.17403 -0.23812,0.48805 -0.52916,0.69782 -0.29105,0.20977 -0.52917,0.51983 -0.52917,0.68903 0,0.45292 -1.26812,0.62917 -1.43312,0.19918 z m 8.9595,-15.99251 c -0.27266,-0.44117 0.34057,-0.94708 0.70556,-0.58208 0.30531,0.30531 0.11423,0.86972 -0.29444,0.86972 -0.12835,0 -0.31335,-0.12944 -0.41112,-0.28764 z m -9.64305,-1.26863 c 0,-0.14552 0.11906,-0.33817 0.26459,-0.42811 0.14552,-0.0899 0.26458,-0.0445 0.26458,0.10106 0,0.14552 -0.11906,0.33817 -0.26458,0.42811 -0.14553,0.0899 -0.26459,0.0445 -0.26459,-0.10106 z m 0.65058,-2.1655 c -0.0959,-0.15521 -0.10808,-0.34851 -0.027,-0.42956 0.21766,-0.21766 0.96395,0.12211 0.96395,0.43886 0,0.3591 -0.71361,0.35202 -0.93692,-0.009 z m -4.95006,-4.23885 c -0.59107,-1.0385 -0.61957,-2.84383 -0.0484,-3.06303 0.62414,-0.2395 0.85615,0.16571 0.96641,1.68794 0.055,0.75896 0.18021,1.46018 0.27829,1.55826 0.0981,0.0981 0.11502,0.28079 0.0376,0.40602 -0.27775,0.4494 -0.77909,0.21003 -1.23397,-0.58919 z"
       id="path28" />
  </g>
</svg>
