<?xml version="1.0" encoding="UTF-8" standalone="no"?>
<!-- Created with Inkscape (http://www.inkscape.org/) -->

<svg
   width="131.23174mm"
   height="55.151104mm"
   viewBox="0 0 131.23172 55.151107"
   version="1.1"
   id="svg1"
   inkscape:version="1.4.1-rc (06eac75fbf, 2025-03-29)"
   sodipodi:docname="mount6.svg"
   xmlns:inkscape="http://www.inkscape.org/namespaces/inkscape"
   xmlns:sodipodi="http://sodipodi.sourceforge.net/DTD/sodipodi-0.dtd"
   xmlns="http://www.w3.org/2000/svg"
   xmlns:svg="http://www.w3.org/2000/svg">
  <sodipodi:namedview
     id="namedview1"
     pagecolor="#ffffff"
     bordercolor="#000000"
     borderopacity="0.25"
     inkscape:showpageshadow="2"
     inkscape:pageopacity="0.0"
     inkscape:pagecheckerboard="0"
     inkscape:deskcolor="#d1d1d1"
     inkscape:document-units="mm"
     inkscape:zoom="0.72248176"
     inkscape:cx="247.75712"
     inkscape:cy="104.50091"
     inkscape:window-width="1850"
     inkscape:window-height="1016"
     inkscape:window-x="0"
     inkscape:window-y="0"
     inkscape:window-maximized="1"
     inkscape:current-layer="layer1" />
  <defs
     id="defs1" />
  <g
     inkscape:label="Layer 1"
     inkscape:groupmode="layer"
     id="layer1"
     transform="translate(-40.216649,-120.915)">
    <path
       style="fill:#000000"
       d="m 52.49254,175.66937 c 0.18116,-0.21828 0.71791,-0.39688 1.19278,-0.39688 0.47487,0 1.20443,-0.17786 1.62125,-0.39524 0.87945,-0.45867 1.5834,-0.51058 1.81618,-0.13393 0.0899,0.14553 -0.0519,0.26641 -0.31511,0.26864 -0.39824,0.003 -0.41322,0.0454 -0.0892,0.25035 0.32973,0.20852 0.31421,0.27517 -0.10119,0.43458 -0.27012,0.10365 -0.72869,0.0396 -1.02023,-0.14245 -0.4198,-0.26216 -0.57146,-0.26295 -0.73162,-0.004 -0.11113,0.1798 -0.45236,0.26145 -0.75829,0.18145 -0.30594,-0.08 -0.55625,-0.0375 -0.55625,0.0944 0,0.1319 -0.31224,0.23981 -0.69386,0.23981 -0.58676,0 -0.64301,-0.0613 -0.36448,-0.39687 z m 11.4609,-2.06282 c -0.24474,-0.396 0.52064,-0.71762 0.91967,-0.38646 0.24477,0.20315 0.41674,0.21091 0.53804,0.0243 0.0981,-0.15086 0.50569,-0.35156 0.90587,-0.44601 0.40018,-0.0944 1.05067,-0.24999 1.44551,-0.34565 0.39485,-0.0957 1.01626,-0.45056 1.3809,-0.78868 0.37799,-0.35049 0.76234,-0.51541 0.89411,-0.38365 0.32536,0.32537 -0.23783,1.27593 -0.87597,1.47846 -0.29119,0.0924 -0.52944,0.28611 -0.52944,0.43041 0,0.1443 -0.11661,0.19031 -0.25912,0.10223 -0.14251,-0.0881 -0.52947,-0.0114 -0.85989,0.17031 -0.71028,0.39067 -3.34156,0.49767 -3.55968,0.14475 z m 28.82191,-0.64805 c -0.1819,-0.0612 -0.33072,-0.21808 -0.33072,-0.34851 0,-0.28391 1.69111,-1.16068 2.71197,-1.40604 0.61125,-0.14691 0.72761,-0.0894 0.72761,0.35933 0,0.35507 -0.17475,0.53421 -0.52112,0.53421 -0.28662,0 -0.91169,0.21878 -1.38906,0.48618 -0.47737,0.2674 -1.01677,0.43607 -1.19868,0.37483 z m 4.86984,-2.6895 c 0.50276,-0.58718 1.94319,-0.7704 1.94319,-0.24717 0,0.1771 0.2145,0.11147 0.51014,-0.15608 0.367,-0.33213 0.63638,-0.39103 0.96002,-0.20992 0.77916,0.43605 0.17439,0.67927 -2.47997,0.99736 l -1.40667,0.16858 z m 6.70569,0.22582 c -0.36381,-0.10816 -1.10795,-0.20853 -1.65365,-0.22304 -0.71026,-0.0189 -0.99219,-0.14339 -0.99219,-0.43819 0,-0.33361 0.28339,-0.39642 1.49218,-0.33073 1.44528,0.0785 1.50142,0.0561 1.78594,-0.71266 0.6508,-1.7585 0.78515,-1.85359 2.59004,-1.83307 2.54762,0.029 4.45059,0.48561 4.45059,1.068 0,0.43477 -0.10577,0.44395 -1.32291,0.11485 -1.68837,-0.45651 -3.54516,-0.54346 -4.01297,-0.18792 -0.24259,0.18438 -0.52434,0.77903 -0.6261,1.32146 -0.21031,1.12104 -0.75073,1.5068 -1.71093,1.2213 z m -31.81615,-0.71033 c -0.25466,-0.0589 -0.46302,-0.22033 -0.46302,-0.35878 0,-0.32351 1.31427,-0.82774 1.73583,-0.66597 0.3291,0.12629 0.78985,-0.16763 2.43069,-1.5506 0.93106,-0.78472 0.93346,-0.78516 0.73267,-0.13229 -0.1108,0.36026 -0.31142,0.79288 -0.44583,0.96137 -0.31557,0.39562 -2.08672,1.23707 -2.60128,1.23583 -0.21828,-5.3e-4 -0.51593,0.1382 -0.66146,0.30827 -0.14552,0.17007 -0.47294,0.26105 -0.7276,0.20217 z m -32.1821,-3.21854 c -0.26946,-0.17066 -0.14908,-0.27941 0.45657,-0.41243 0.95125,-0.20893 1.62953,0.0572 1.06211,0.41674 -0.46009,0.29153 -1.05422,0.28984 -1.51868,-0.004 z m 2.62945,-0.0157 c -0.21781,-0.13461 -0.18991,-0.28281 0.0982,-0.52196 0.27363,-0.22709 1.57016,-0.35049 4.05136,-0.3856 2.00692,-0.0284 3.79053,-0.13914 3.96357,-0.24608 0.56227,-0.34751 1.66188,0.10016 1.66188,0.67657 0,0.3795 -0.0952,0.46294 -0.33073,0.2899 -0.34915,-0.2565 -1.40607,-0.25565 -3.37344,0.003 -2.04489,0.26856 -5.75252,0.3812 -6.07088,0.18445 z m 33.66053,-0.45727 c 0.25884,-0.0674 0.43708,-0.32097 0.39688,-0.56462 -0.0633,-0.38391 0.32874,-0.46496 2.96972,-0.61391 1.67349,-0.0944 3.37013,-0.2571 3.77031,-0.36158 1.05683,-0.27591 0.96922,0.52695 -0.1189,1.08963 -0.70072,0.36236 -1.31585,0.40808 -3.57187,0.26545 -1.79273,-0.11334 -2.72537,-0.0797 -2.72537,0.0982 0,0.14878 -0.26789,0.2567 -0.59532,0.23982 -0.45857,-0.0236 -0.48738,-0.0588 -0.12545,-0.15301 z m 37.76243,-1.54959 c 0,-0.22571 0.38695,-0.5813 0.8599,-0.79021 0.47294,-0.20891 1.21708,-0.6785 1.65364,-1.04352 0.43657,-0.36503 0.89003,-0.66427 1.00771,-0.665 0.22549,-0.001 2.23767,-1.51003 2.69381,-2.0197 0.4464,-0.49879 5.62599,-1.24867 6.0502,-0.87592 0.319,0.28029 -1.06424,1.13281 -1.54111,0.94982 -0.21584,-0.0828 -0.7823,0.008 -1.25881,0.20112 -0.47651,0.19344 -1.0004,0.30266 -1.1642,0.24271 -0.1638,-0.06 -1.07701,0.42445 -2.02934,1.07644 -1.68682,1.15485 -3.85253,2.2763 -4.39589,2.2763 -0.14838,0 -0.39723,0.23813 -0.55299,0.52917 -0.3347,0.62538 -1.32292,0.71412 -1.32292,0.11879 z m -66.27147,-0.10803 c -0.0863,-0.1396 -0.004,-0.50427 0.18282,-0.81037 0.29303,-0.48008 0.54878,-0.54517 1.86153,-0.47378 0.83701,0.0455 1.52162,0.0156 1.52136,-0.0664 -8.1e-4,-0.25041 3.28412,0.0613 3.63753,0.34519 0.22594,0.18148 0.33073,0.17155 0.33073,-0.0313 0,-0.16334 0.1786,-0.29698 0.39688,-0.29698 0.21828,0 0.39687,0.0904 0.39687,0.20094 0,0.40833 -0.97664,0.79274 -1.73333,0.68224 -0.42911,-0.0627 -1.43505,-0.13877 -2.23542,-0.16912 -0.80036,-0.0304 -1.59581,-0.14585 -1.76765,-0.25665 -0.17185,-0.1108 -0.38723,-0.0805 -0.47864,0.0674 -0.0914,0.14789 -0.39728,0.2689 -0.67974,0.2689 -0.28245,0 -0.51355,0.17859 -0.51355,0.39687 0,0.43882 -0.67198,0.54338 -0.91939,0.14306 z m 6.46734,-2.92631 c -0.72842,-0.45018 1.40116,-1.0318 4.05974,-1.10876 2.31014,-0.0669 3.15865,0.0774 2.76572,0.47034 -0.0826,0.0826 -1.20377,0.20903 -2.49149,0.28093 -2.90239,0.16208 -3.33936,0.21238 -3.6815,0.42384 -0.14991,0.0926 -0.44352,0.0628 -0.65247,-0.0663 z m 26.86351,-1.76302 c -0.70998,-0.18152 -1.14387,-0.60666 -0.64823,-0.63515 0.211,-0.0121 0.6813,-0.0683 1.0451,-0.12484 0.3638,-0.0565 1.3163,-0.15907 2.11667,-0.22784 3.98434,-0.34236 5.21859,-0.52142 5.87384,-0.85215 1.09786,-0.55413 2.06366,-0.47136 2.06366,0.17685 0,0.29561 -0.20836,0.60406 -0.46302,0.68545 -0.25466,0.0814 -0.70115,0.25132 -0.99219,0.37761 -0.9763,0.42367 -7.88369,0.88443 -8.99583,0.60007 z m 46.00816,-0.19726 c -0.27865,-0.72616 0.14355,-1.71615 0.89306,-2.0941 0.39808,-0.20072 1.75438,-0.44085 3.01401,-0.5336 2.15672,-0.15883 2.28263,-0.13954 2.15965,0.33072 -0.0774,0.29579 -0.36382,0.49887 -0.70273,0.49816 -0.31469,-6.6e-4 -0.98887,0.0786 -1.4982,0.17609 -1.02896,0.19701 -1.82453,0.32837 -2.29753,0.37938 -0.17223,0.0186 -0.35082,0.36017 -0.39687,0.7591 -0.094,0.81406 -0.91464,1.15332 -1.17139,0.48425 z m 8.63576,-1.09109 c -0.50522,-0.35622 -1.18983,-0.64766 -1.52135,-0.64766 -0.35942,0 -0.60278,-0.16024 -0.60278,-0.39689 0,-0.55028 0.67556,-0.49644 2.31927,0.18484 0.90566,0.37537 1.37671,0.71952 1.32803,0.97026 -0.11958,0.61599 -0.53553,0.5858 -1.52317,-0.11055 z m -31.2283,-0.64766 c 0,-0.14553 0.11906,-0.26459 0.26459,-0.26459 0.14552,0 0.26458,0.11906 0.26458,0.26459 0,0.14552 -0.11906,0.26458 -0.26458,0.26458 -0.14553,0 -0.26459,-0.11906 -0.26459,-0.26458 z m -20.14988,-0.44695 c -0.42611,-0.51343 0.12355,-1.09229 0.63452,-0.66823 0.4187,0.34749 0.80308,0.13767 1.22881,-0.67077 0.17243,-0.32742 0.46417,-0.59531 0.64832,-0.59531 0.63816,0 1.6346,-0.63115 2.39701,-1.51827 l 0.76607,-0.89138 -0.63378,0.0871 c -0.34858,0.0479 -0.81237,0.20308 -1.03065,0.34492 -0.21828,0.14184 -0.93266,0.27371 -1.5875,0.29307 -0.65484,0.0194 -1.36922,0.0931 -1.5875,0.16397 -1.01623,0.32977 -3.49873,0.68759 -3.846,0.55433 -0.4316,-0.16563 -0.50767,-0.51558 -0.15894,-0.73111 0.12562,-0.0776 1.40554,-0.27637 2.84427,-0.44162 1.43873,-0.16525 2.72899,-0.40641 2.86723,-0.53591 0.40538,-0.37975 0.89104,-0.27157 1.02147,0.22755 0.10709,0.40977 0.12453,0.41213 0.15169,0.0205 0.0183,-0.26426 0.43034,-0.5735 1.02288,-0.76772 1.46383,-0.47981 2.09574,-0.90261 4.29948,-2.8766 1.16758,-1.04586 1.38984,-1.36958 1.12448,-1.63782 -0.26633,-0.26922 -0.33073,-0.26391 -0.33073,0.0273 0,0.19888 -0.0798,0.28176 -0.17743,0.18416 -0.23291,-0.23291 0.96143,-1.49826 1.41418,-1.49826 0.19291,0 0.35075,-0.17859 0.35075,-0.39687 0,-0.21829 0.12757,-0.39688 0.28348,-0.39688 0.15592,0 0.44329,-0.14883 0.63861,-0.33073 0.19532,-0.1819 0.70933,-0.60146 1.14224,-0.93235 0.43291,-0.33089 0.94245,-0.98573 1.13231,-1.4552 0.18986,-0.46948 0.41149,-0.91313 0.49251,-0.98589 0.4935,-0.44317 1.8671,-2.67092 1.8671,-3.02812 0,-0.23543 0.17406,-0.49486 0.38681,-0.5765 0.21274,-0.0816 0.46693,-0.40532 0.56486,-0.7193 0.0979,-0.31398 0.51918,-0.96196 0.93611,-1.43997 0.41693,-0.47801 0.75806,-1.028 0.75806,-1.22221 0,-0.19421 0.47625,-0.95125 1.05833,-1.68231 0.58208,-0.73107 1.05833,-1.4141 1.05833,-1.51785 0,-0.10374 0.35719,-0.63961 0.79375,-1.19082 0.43656,-0.5512 0.79375,-1.10735 0.79375,-1.23588 0,-0.12853 0.38553,-0.64717 0.85674,-1.15255 0.83273,-0.89312 0.85926,-0.90162 0.94709,-0.30332 0.0593,0.40418 0.21941,0.56602 0.46618,0.47133 0.50223,-0.19273 0.49897,0.73051 -0.004,1.14797 -0.20893,0.1734 -0.45471,0.656 -0.54618,1.07245 -0.0915,0.41645 -0.33724,0.89906 -0.54617,1.07245 -0.20893,0.17339 -0.37987,0.45852 -0.37987,0.63362 0,0.1751 -0.29765,0.59799 -0.66146,0.93977 -0.3638,0.34177 -0.66145,0.75589 -0.66145,0.92025 0,0.16437 -0.40296,0.68941 -0.89546,1.16676 -0.56258,0.54528 -0.84971,1.0428 -0.77242,1.33839 0.11655,0.44568 -0.64683,0.91028 -1.37898,0.83927 -0.1478,-0.0143 -0.42748,0.22814 -0.62151,0.53882 -0.3087,0.4943 -0.29991,0.54357 0.0703,0.39424 0.23269,-0.0939 0.63143,-0.23917 0.8861,-0.32292 0.44097,-0.14502 0.44097,-0.13809 0,0.14544 -0.25467,0.16374 -0.46356,0.55968 -0.46421,0.87987 -6.8e-4,0.33032 -0.63021,1.28728 -1.45521,2.21209 -0.79971,0.89645 -1.45402,1.74521 -1.45402,1.88613 0,0.14091 -0.35719,0.40416 -0.79375,0.58499 -0.43656,0.18083 -0.79375,0.4354 -0.79375,0.56572 0,0.13031 -0.50602,0.75321 -1.12448,1.38422 -0.61846,0.63101 -1.42214,1.5494 -1.78594,2.04088 l -0.66146,0.8936 1.23774,-0.72242 c 0.68076,-0.39733 1.4249,-0.72242 1.65365,-0.72242 0.56612,0 0.5312,0.96489 -0.0471,1.30172 -0.25696,0.14967 -0.31583,0.27327 -0.13229,0.27774 0.1819,0.004 0.33073,0.18663 0.33073,0.40492 0,0.57708 0.33263,0.5025 2.39836,-0.53779 1.19632,-0.60245 2.52299,-1.58986 3.73265,-2.77812 1.03217,-1.01391 1.98941,-1.84347 2.12719,-1.84347 0.13905,0 0.17518,0.34299 0.0812,0.77085 -0.13942,0.63478 -0.0697,0.80245 0.39499,0.94994 0.35927,0.11403 0.50927,0.32247 0.41286,0.57371 -0.0833,0.21704 -0.15142,0.49103 -0.15142,0.60887 0,0.11785 -0.30505,0.29083 -0.67787,0.3844 -0.37283,0.0936 -1.3551,0.62213 -2.18282,1.17458 -0.82772,0.55244 -2.04072,1.15537 -2.69556,1.33985 -0.65485,0.18448 -1.36922,0.48111 -1.5875,0.65918 -0.21829,0.17807 -0.91555,0.48721 -1.54947,0.68699 -0.63393,0.19977 -1.21222,0.51858 -1.28508,0.70847 -0.0729,0.18988 -0.32074,0.34524 -0.55083,0.34524 -0.57371,0 -2.16684,1.11519 -2.16907,1.51833 -0.003,0.45697 -0.84302,1.39209 -1.25123,1.39209 -0.18594,0 -0.33807,0.12162 -0.33807,0.27026 0,0.14864 -0.32743,0.40159 -0.72761,0.56211 -0.40018,0.16052 -0.96573,0.38798 -1.25677,0.50546 -0.29104,0.11749 -0.88635,0.27153 -1.32292,0.34232 -0.43656,0.0708 -1.27,0.24533 -1.85208,0.38786 -1.93382,0.47356 -3.80904,0.5328 -4.14259,0.13088 z m 7.08201,-2.09065 c 1.47989,-0.65448 1.89284,-1.1669 0.51963,-0.64481 -0.39345,0.14959 -1.00161,0.27198 -1.35146,0.27198 -0.52523,0 -2.76905,0.95428 -2.76905,1.17766 0,0.26597 2.38494,-0.26708 3.60088,-0.80483 z m 3.146,-2.88301 c 0.29104,-0.33163 0.77027,-0.67593 1.06495,-0.76511 0.70076,-0.21209 2.50692,-1.97249 2.50692,-2.44342 0,-0.5127 -0.2673,-0.46087 -1.32764,0.2574 -0.50672,0.34326 -1.21897,0.71502 -1.58277,0.82614 -0.36381,0.11112 -0.78053,0.2901 -0.92605,0.39775 -0.14552,0.10765 -0.59019,0.27348 -0.98815,0.36851 -0.50131,0.11973 -0.77666,0.39508 -0.89638,0.89639 -0.095,0.39797 -0.29361,0.87671 -0.44125,1.06387 -0.51229,0.64943 2.00568,0.0647 2.59037,-0.60153 z m 1.05646,-3.30762 c 0.0927,-0.14998 -0.0135,-0.19434 -0.24897,-0.10398 -0.45837,0.17589 -0.54223,0.36553 -0.16165,0.36553 0.13693,0 0.32171,-0.11768 0.41062,-0.26155 z m 9.65916,8.50121 c 0,-0.42582 0.57196,-0.67742 1.71979,-0.7565 0.58209,-0.0401 1.4039,-0.10312 1.82626,-0.14002 0.93482,-0.0817 1.20962,0.45354 0.36738,0.71553 -1.08952,0.33891 -3.91343,0.4695 -3.91343,0.18099 z m -49.2125,-0.30447 c 0,-1.23282 7.4225,-1.76183 10.41054,-0.74196 1.17323,0.40044 1.30301,0.87657 0.23894,0.87657 -0.44097,0 -0.70154,-0.13029 -0.66146,-0.33073 0.0364,-0.1819 -0.0529,-0.33073 -0.19843,-0.33073 -0.14552,0 -0.26641,0.14883 -0.26864,0.33073 -0.003,0.20949 -0.0753,0.23185 -0.19844,0.061 -0.28734,-0.39872 -3.08325,-0.47381 -5.49189,-0.14751 -3.38382,0.45841 -3.83062,0.49137 -3.83062,0.28263 z m 55.09147,-1.12217 c 0.213,-0.32742 0.64424,-0.71283 0.95832,-0.85648 0.31407,-0.14365 0.57105,-0.45834 0.57105,-0.69929 0,-0.577 0.70109,-0.82753 1.34755,-0.48156 0.2835,0.15173 0.62384,0.20889 0.7563,0.12704 0.13246,-0.0819 0.3128,-0.0324 0.40077,0.10993 0.0931,0.15068 0.40474,0.16958 0.74589,0.0453 0.99847,-0.36384 2.70261,-0.21646 2.70261,0.23376 0,0.30005 -0.45182,0.43509 -1.85208,0.55356 -2.40898,0.20381 -4.92744,0.81374 -5.08864,1.23237 -0.07,0.1819 -0.30773,0.33072 -0.52819,0.33072 -0.35404,0 -0.35563,-0.0695 -0.0136,-0.59531 z m 3.11686,-1.53695 c 0,-0.13694 -0.17859,-0.24897 -0.39687,-0.24897 -0.40915,0 -0.52565,0.31219 -0.22768,0.61017 0.21138,0.21138 0.62455,-0.0276 0.62455,-0.3612 z m -19.56637,1.56565 c 0.0151,-0.42367 4.09559,-2.87297 4.78635,-2.87297 0.52568,0 2.38763,-0.80491 2.63342,-1.1384 0.19764,-0.26817 4.29739,-0.3247 5.53202,-0.0763 1.03403,0.20807 3.12898,1.19074 3.37004,1.58078 0.0936,0.15146 -0.0469,0.17309 -0.35007,0.0539 -0.27854,-0.10951 -0.87606,-0.23534 -1.32783,-0.27965 -0.45177,-0.0443 -1.05134,-0.20358 -1.33238,-0.35399 -0.91594,-0.49019 -3.60657,-0.45403 -4.38956,0.059 -0.81402,0.53337 -1.24015,0.63566 -2.76432,0.66355 -0.62509,0.0114 -1.28512,0.1998 -1.5187,0.43338 -0.22721,0.22721 -0.6442,0.43052 -0.92663,0.4518 -0.28243,0.0213 -0.49199,0.14573 -0.46568,0.27656 0.0568,0.28253 -1.50162,1.13513 -2.53185,1.38514 -0.52576,0.12759 -0.72405,0.0769 -0.71481,-0.18284 z m 75.65804,-0.39965 c -0.21828,-0.0719 -0.635,-0.23614 -0.92604,-0.36494 -0.88657,-0.39238 -2.67012,-0.79023 -4.15112,-0.926 -4.92655,-0.45164 -10.00409,-0.6245 -10.00409,-0.34057 0,0.38875 -1.33539,0.22732 -1.49182,-0.18034 -0.0838,-0.21828 -0.35387,-0.39688 -0.60024,-0.39688 -0.24637,0 -0.59883,-0.14882 -0.78325,-0.33073 -0.26868,-0.265 -0.40505,-0.23632 -0.68625,0.1444 -0.2544,0.34443 -0.5413,0.42733 -1.04302,0.30141 -0.38065,-0.0955 -0.75752,-0.27957 -0.83749,-0.40898 -0.2538,-0.41064 -1.17121,-0.27515 -1.00847,0.14894 0.27112,0.70654 -0.14515,0.96207 -0.91703,0.56292 -0.87536,-0.45267 -3.10447,-0.49099 -3.7919,-0.0652 -0.39535,0.24488 -0.54796,0.22892 -0.73843,-0.0772 -0.15604,-0.25082 -0.59062,-0.3623 -1.24146,-0.31847 -0.55077,0.0371 -1.57661,-0.0706 -2.27967,-0.23922 -0.70306,-0.16866 -1.3504,-0.23453 -1.43855,-0.14638 -0.0881,0.0882 0.20759,0.23384 0.65721,0.32376 0.44961,0.0899 1.08469,0.44794 1.41129,0.79559 l 0.59382,0.63209 h -0.65163 c -0.3584,0 -1.11871,-0.23812 -1.68957,-0.52916 -0.73607,-0.37528 -1.56029,-0.52917 -2.83407,-0.52917 -1.02103,0 -1.79614,-0.11418 -1.79614,-0.26458 0,-0.14552 0.17157,-0.26459 0.38126,-0.26459 0.90386,0 0.56515,-0.52225 -0.79521,-1.22609 -1.35846,-0.70286 -1.48488,-0.72443 -1.72959,-0.29526 -0.32993,0.57865 -0.92998,0.59736 -1.2426,0.0387 -0.20185,-0.36068 -0.32057,-0.37237 -0.7921,-0.0779 -0.47784,0.29843 -0.63382,0.27474 -1.12632,-0.17102 -0.49201,-0.44534 -1.00099,-0.52304 -3.65282,-0.55768 -1.69464,-0.0221 -3.55741,-0.12063 -4.13949,-0.21887 -1.55461,-0.26236 -1.34696,-0.27976 -4.01877,0.33675 -0.89413,0.20631 -1.13686,0.18145 -1.25584,-0.12861 -0.10077,-0.2626 -0.001,-0.35355 0.3146,-0.28712 0.25415,0.0535 0.66145,-0.1243 0.90511,-0.39507 0.39648,-0.44058 0.74389,-0.47754 3.30729,-0.35183 3.56358,0.17476 4.50672,0.20171 5.51011,0.15746 1.24682,-0.055 3.15227,0.13903 3.50473,0.35687 0.39454,0.24384 1.39006,-0.25481 1.39006,-0.69628 0,-0.45634 1.45676,-1.77577 1.96061,-1.77577 0.4664,0 0.57444,-0.66747 0.15046,-0.9295 -0.1486,-0.0918 -1.14361,-0.2291 -2.21112,-0.30503 -1.64434,-0.11696 -1.96665,-0.0711 -2.1092,0.30043 -0.2367,0.61682 -0.70117,0.24254 -0.70117,-0.56503 0,-0.49054 -0.10809,-0.63267 -0.39687,-0.52185 -0.22475,0.0863 -0.39688,0.006 -0.39688,-0.18468 0,-0.21258 0.71484,-0.45708 1.93641,-0.66235 1.66126,-0.27914 2.04661,-0.26791 2.71198,0.0791 1.66602,0.86878 1.89909,0.32763 0.48529,-1.12677 -0.93532,-0.96218 -0.98212,-0.97749 -2.71198,-0.88721 -0.96813,0.0505 -2.11742,0.11007 -2.55399,0.13229 -0.50986,0.026 -0.77009,-0.0779 -0.7276,-0.2903 0.0364,-0.1819 -0.20175,-0.34444 -0.52917,-0.3612 -1.64124,-0.084 -2.13802,0.25119 -1.88231,1.27001 0.22211,0.88494 -0.1274,1.26065 -0.69494,0.74704 -0.64124,-0.58032 -0.39531,-1.38815 0.74183,-2.43674 0.81791,-0.75422 1.03765,-0.82911 2.00538,-0.68345 0.59775,0.09 1.92025,0.18501 2.9389,0.21122 2.4164,0.0622 3.69232,0.70888 4.90304,2.48522 0.9403,1.3796 1.57925,1.72698 1.57925,0.8586 0,-0.61459 1.58403,-1.31873 3.04271,-1.35254 0.58208,-0.0135 1.7573,-0.0649 2.6116,-0.11433 2.18567,-0.12637 4.7446,0.7509 6.0771,2.08341 0.18717,0.18717 0.80909,0.58415 1.38205,0.8822 1.15809,0.60243 2.28214,1.59143 2.92659,2.575 0.39735,0.60642 1.15786,0.89898 1.15786,0.44542 0,-0.49714 -1.41089,-2.20999 -2.12425,-2.57889 -0.43239,-0.22359 -0.78616,-0.57527 -0.78616,-0.78149 0,-0.62169 -1.06284,-2.22306 -1.58558,-2.38897 -0.26885,-0.0853 -0.76622,-0.20828 -1.10527,-0.27323 -0.65478,-0.12542 -1.2779,-0.79124 -1.2779,-1.36545 0,-0.19047 -0.24945,-0.59576 -0.55434,-0.90064 -0.74311,-0.74311 -3.55947,-0.92203 -4.31296,-0.27401 -0.37449,0.32208 -0.53101,0.34762 -0.61737,0.10074 -0.0636,-0.1819 -0.33686,-0.33073 -0.60718,-0.33073 -0.64333,0 -0.91064,-0.45865 -0.53272,-0.91401 0.47192,-0.56863 -0.95315,-3.16557 -2.06707,-3.76687 -0.48753,-0.26317 -1.26144,-0.68138 -1.71979,-0.92935 -0.45835,-0.24797 -0.98219,-0.40054 -1.16409,-0.33904 -0.19045,0.0644 -0.33073,-0.1091 -0.33073,-0.40904 0,-0.70796 1.50837,-0.70696 2.8979,0.002 0.92404,0.47141 2.65835,2.5556 2.65835,3.19465 0,0.13823 0.0893,0.25207 0.19843,0.25299 0.10915,9.2e-4 0.39772,0.35194 0.64129,0.78005 0.41116,0.72267 0.55317,0.77807 1.98438,0.77419 0.84784,-0.002 1.98744,0.18382 2.53245,0.4136 0.54501,0.22978 1.06781,0.38666 1.16179,0.34862 0.1695,-0.0686 0.2789,0.10604 0.87161,1.3916 0.20124,0.43647 0.68772,0.78567 1.40752,1.01032 1.13213,0.35333 1.61062,0.83775 2.33835,2.36732 0.23111,0.48575 0.79291,1.10985 1.24844,1.38687 0.97905,0.5954 2.34415,3.18043 2.3014,4.35805 -0.0159,0.43656 0.0707,0.91281 0.19241,1.05834 0.12167,0.14552 0.36599,0.47254 0.54293,0.72672 0.27524,0.3954 0.79941,0.46592 3.629,0.48826 4.04302,0.0319 8.87851,0.55414 9.83833,1.06252 0.2451,0.12982 0.78789,0.23604 1.2062,0.23604 0.84457,0 1.49822,0.42181 1.74248,1.12448 0.16506,0.47481 0.0738,0.51783 -0.61618,0.2905 z m -26.25289,-3.48949 c 0.25491,-0.16177 0.17009,-0.39524 -0.34582,-0.95191 -0.61828,-0.66714 -0.71418,-0.69571 -1.00411,-0.29922 -0.29472,0.40306 -0.40893,0.38994 -1.41841,-0.16302 -1.0442,-0.57195 -1.12261,-0.57899 -1.60343,-0.14385 -0.64936,0.58767 -0.86076,0.57765 -0.86076,-0.0408 0,-0.32143 -0.23479,-0.5432 -0.66145,-0.62475 -0.7358,-0.14066 -0.95701,0.49711 -0.26459,0.76282 0.21828,0.0838 0.39688,0.31113 0.39688,0.50525 0,0.52945 0.55565,0.76814 0.81928,0.35193 0.14505,-0.22902 0.23245,-0.24981 0.235,-0.0559 0.002,0.16979 0.33147,0.42827 0.73165,0.57444 0.88727,0.32406 3.51073,0.3802 3.97576,0.0851 z m -7.34919,-0.38612 c 0,-0.53002 -0.57026,-0.97895 -1.24354,-0.97895 -0.76348,0 -0.76643,0.18034 -0.0132,0.80869 0.69718,0.5816 1.25677,0.65743 1.25677,0.17026 z m 9.26248,-0.64822 c 0.003,-0.32028 1.36342,-0.85989 2.16735,-0.85989 0.40755,0 0.741,-0.11907 0.741,-0.26459 0,-0.14553 -0.0298,-0.26916 -0.0661,-0.27476 -0.0364,-0.006 -0.84005,-0.0749 -1.78593,-0.15395 -1.77098,-0.14803 -2.30382,-0.37734 -2.004,-0.86246 0.10341,-0.16732 0.90779,-0.24226 2.01012,-0.18726 1.92374,0.096 2.09912,-0.0923 0.74045,-0.79493 -0.58046,-0.30016 -0.88806,-0.33682 -1.09447,-0.13041 -0.15791,0.1579 -0.51699,0.28711 -0.79797,0.28711 -0.43654,0 -0.4889,-0.13538 -0.35989,-0.93039 0.12387,-0.76333 0.047,-0.99715 -0.4284,-1.30221 -0.9798,-0.6288 -3.41499,-1.15776 -4.94501,-1.07412 -0.80036,0.0437 -1.87193,0.0931 -2.38125,0.10968 -1.66417,0.0541 -1.81301,0.36209 -0.83395,1.72541 0.89442,1.24545 0.90152,1.87728 0.0179,1.59684 -0.27879,-0.0885 -0.5069,-0.0408 -0.5069,0.10592 0,0.55924 0.52314,0.67269 4.36425,0.94642 1.08231,0.0771 1.96113,0.27711 2.11667,0.48168 0.14628,0.1924 0.64896,0.50589 1.11708,0.69666 0.46812,0.19077 0.98871,0.51265 1.15688,0.71528 0.32906,0.3965 0.76882,0.49329 0.77219,0.16996 z m -12.80576,-0.87077 c 0.64401,-0.24485 0.68041,-0.31956 0.32763,-0.67234 -0.30653,-0.30652 -0.55787,-0.33565 -1.10415,-0.12795 -0.75397,0.28665 -0.91912,0.68158 -0.37656,0.90051 0.1819,0.0734 0.35275,0.14286 0.37965,0.15435 0.0269,0.0115 0.37495,-0.10306 0.77343,-0.25457 z m 16.77244,0.15878 c 0,-0.0642 -0.11906,-0.19027 -0.26458,-0.28019 -0.14552,-0.0899 -0.26458,-0.0374 -0.26458,0.11667 0,0.15411 0.11906,0.28019 0.26458,0.28019 0.14552,0 0.26458,-0.0525 0.26458,-0.11667 z m -81.63731,3.72951 c -0.17526,-0.69828 -0.25735,-0.73991 -1.14605,-0.58112 -2.65741,0.4748 -3.86836,0.13925 -2.28017,-0.63182 0.96576,-0.46889 4.73795,-0.58853 5.31238,-0.1685 0.53777,0.39323 0.21205,1.20819 -0.48288,1.20819 -0.29581,0 -0.69009,0.20822 -0.87617,0.46271 -0.30855,0.42197 -0.35495,0.39649 -0.52711,-0.28946 z m 43.33888,-0.10268 c -0.45812,-0.15883 -0.41687,-0.86433 0.0505,-0.86433 0.20969,0 0.43996,0.095 0.51171,0.21107 0.20116,0.32549 -0.19155,0.78179 -0.56224,0.65326 z m -40.08438,-0.54316 c -0.40967,-0.0516 -0.7276,-0.25615 -0.7276,-0.46801 0,-0.57013 0.824,-1.41244 1.22953,-1.25682 0.20939,0.0804 0.35797,-0.0391 0.35797,-0.28781 0,-0.23385 0.15584,-0.42518 0.34631,-0.42518 0.19046,0 0.57742,-0.18476 0.85989,-0.41058 0.49515,-0.39584 0.49067,-0.4042 -0.12463,-0.23313 -0.35103,0.0976 -1.32321,0.20296 -2.16041,0.23413 -1.41806,0.0528 -1.53051,0.0131 -1.64396,-0.58036 l -0.12179,-0.63707 2.01761,0.15052 c 3.22273,0.24043 3.6909,0.21614 4.3194,-0.22407 0.32674,-0.22886 0.85821,-0.41611 1.18104,-0.41611 1.05074,0 0.96541,-0.52664 -0.0938,-0.57878 -1.43529,-0.0707 -2.31003,-0.13696 -2.46301,-0.18667 -0.0728,-0.0236 -1.4147,-0.0818 -2.98209,-0.12936 -1.56738,-0.0475 -2.92154,-0.15814 -3.00925,-0.24583 -0.3683,-0.36831 0.19946,-0.97603 0.91185,-0.97603 0.41688,0 0.82005,0.0621 0.89593,0.13797 0.0759,0.0759 2.20909,0.20536 4.74045,0.28771 2.86501,0.0932 4.74122,0.26463 4.96999,0.45411 0.20214,0.16742 0.65232,0.26707 1.00042,0.22146 0.77259,-0.10125 2.77421,-1.20891 2.76527,-1.53026 -0.0226,-0.81307 0.64771,-2.53073 1.1844,-3.03494 0.34954,-0.32837 0.63553,-0.74883 0.63553,-0.93434 0,-0.34986 1.58792,-1.68518 2.00935,-1.68969 0.13178,-0.001 0.75372,-0.41129 1.38209,-0.91084 0.64889,-0.51585 1.31199,-0.84321 1.53482,-0.75771 0.46546,0.17862 1.6847,-0.88766 1.69673,-1.48387 0.005,-0.22929 0.18323,-0.64801 0.39688,-0.93049 0.59717,-0.78953 0.46677,-0.94012 -0.42767,-0.49392 -0.57482,0.28676 -0.89904,0.32422 -1.09655,0.12671 -0.19752,-0.19752 0.56799,-1.0866 2.58911,-3.0071 1.57824,-1.49968 3.35161,-3.2591 3.94082,-3.90983 1.50162,-1.65842 2.2703,-2.40913 3.32864,-3.25078 0.50471,-0.40138 1.29203,-1.02646 1.74959,-1.38907 0.45757,-0.3626 0.9583,-0.65928 1.11273,-0.65928 0.15444,0 0.71941,-0.29766 1.2555,-0.66146 1.0389,-0.70503 1.56476,-0.82104 1.82353,-0.40234 0.20824,0.33693 -0.3237,1.32838 -0.7127,1.32838 -0.16532,0 -0.4896,0.17106 -0.72062,0.38012 -0.23102,0.20907 -0.76605,0.44287 -1.18895,0.51956 -0.83332,0.15111 -2.43407,1.54451 -2.68591,2.33801 -0.0859,0.27053 -0.0202,0.65565 0.14597,0.85585 0.90389,1.08912 -3.26815,8.50937 -7.0669,12.56893 -0.616,0.65829 -1.12202,1.34572 -1.12448,1.52763 -0.002,0.1819 -0.16048,0.33072 -0.35113,0.33072 -0.38951,0 -1.93252,1.43155 -2.31665,2.14931 -0.18488,0.34545 -0.13534,0.53279 0.18888,0.71423 0.27111,0.15172 0.37458,0.41514 0.27005,0.68753 -0.23145,0.60316 -1.95874,1.28643 -2.75001,1.08783 -0.50401,-0.1265 -0.67689,-0.0436 -0.78703,0.37762 -0.0776,0.29686 -0.25264,0.53973 -0.38891,0.53973 -0.13627,0 -0.6858,0.29766 -1.22118,0.66146 -0.53538,0.3638 -1.17541,0.66146 -1.42227,0.66146 -0.24687,0 -0.60619,0.15022 -0.79848,0.33382 -0.45942,0.43864 -1.71733,0.9891 -2.26028,0.9891 -0.35598,0 -0.33092,-0.10606 0.14474,-0.61237 0.61842,-0.65827 0.68459,-0.92256 0.35927,-1.43477 -0.15893,-0.25024 -0.42288,-0.25906 -1.12043,-0.0374 -0.50188,0.15945 -1.15064,0.31508 -1.44168,0.34585 -0.29104,0.0308 -0.98162,0.15129 -1.53463,0.26781 -0.96768,0.20391 -0.98491,0.22626 -0.45859,0.59491 0.82091,0.57499 0.43984,0.8298 -1.24944,0.83544 -2.44716,0.008 -2.97505,0.0866 -2.97505,0.44221 0,0.18452 -0.20836,0.41637 -0.46302,0.51522 -0.41246,0.16011 -0.39606,0.21582 0.1502,0.51022 0.48464,0.26119 0.54011,0.38726 0.26458,0.60125 -0.50863,0.39503 -1.04791,0.51312 -1.86999,0.40949 z m 12.10469,-5.34824 c 0.0899,-0.14553 -0.0221,-0.26458 -0.24897,-0.26458 -0.22687,0 -0.41249,0.11905 -0.41249,0.26458 0,0.14552 0.11204,0.26457 0.24897,0.26457 0.13693,0 0.32255,-0.11905 0.41249,-0.26457 z m 2.43612,-2.02653 c 0.40638,-0.5325 1.06294,-1.33617 1.45901,-1.78594 0.91227,-1.03593 2.58716,-3.56633 2.58716,-3.90861 0,-0.4448 -1.92955,0.88235 -3.12296,2.14796 -1.86387,1.97666 -1.90412,2.02877 -1.90412,2.46441 0,0.23032 -0.13787,0.46474 -0.30637,0.52089 -0.36072,0.12025 -0.0842,1.52949 0.30013,1.52949 0.13655,0 0.58076,-0.4357 0.98715,-0.9682 z m 5.19332,-3.33128 c 1.84368,-1.78263 3.35183,-3.38998 3.35146,-3.57188 -3.8e-4,-0.18191 0.15223,-0.33073 0.33914,-0.33073 0.1869,0 0.56457,-0.38695 0.83925,-0.85989 0.27468,-0.47294 0.99663,-1.51475 1.60433,-2.3151 1.41035,-1.8575 3.44497,-6.31288 3.05909,-6.69876 -0.4117,-0.4117 -1.30571,0.1938 -2.53521,1.71703 -0.58208,0.72115 -1.37139,1.6556 -1.75402,2.07655 -0.8918,0.98113 -2.08244,3.00948 -2.08244,3.54759 0,0.37455 -0.30749,0.53447 -0.85989,0.44725 -0.10914,-0.0172 -0.19844,0.0877 -0.19844,0.23325 0,0.14551 0.11906,0.26459 0.26458,0.26459 0.14552,0 0.26459,0.11532 0.26459,0.25626 0,0.14096 -0.1786,0.18775 -0.39688,0.104 -0.29944,-0.11492 -0.39687,0.0463 -0.39687,0.65661 0,0.4449 -0.1672,0.90413 -0.37155,1.02049 -0.20435,0.11637 -0.76037,0.92597 -1.23561,1.79909 -0.82122,1.50879 -1.66853,2.51354 -2.11966,2.51354 -0.11345,0 -0.29086,0.2679 -0.39424,0.59532 -0.10339,0.32742 -0.40907,0.78787 -0.67929,1.02322 -0.52311,0.45559 -0.63219,0.76271 -0.2709,0.76271 0.12123,0 1.72889,-1.45852 3.57256,-3.24114 z m -25.32042,8.32663 c -0.27277,-0.44134 0.71591,-1.04007 1.98977,-1.20495 0.98291,-0.12723 1.22082,-0.0825 1.17623,0.22128 -0.0793,0.54015 -0.2507,0.66163 -1.11549,0.79045 -0.42003,0.0626 -1.01815,0.18841 -1.32915,0.27964 -0.311,0.0912 -0.63561,0.0523 -0.72136,-0.0864 z m 21.63142,-0.21233 c 0.0883,-0.23019 0.1606,-0.46832 0.1606,-0.52918 0,-0.0609 0.16133,-0.11064 0.35851,-0.11064 0.37568,0 4.13941,-3.62042 4.13941,-3.9818 0,-0.30938 1.85252,-1.39763 2.04742,-1.20272 0.45556,0.45556 -2.98007,4.65535 -3.8083,4.65535 -0.19568,0 -0.35654,0.14883 -0.35746,0.33073 -0.002,0.41575 -1.45074,1.25677 -2.16474,1.25677 -0.38009,0 -0.48931,-0.12175 -0.37544,-0.41851 z m -20.9571,-2.82979 c -0.25179,-0.30338 -0.24588,-0.44723 0.0277,-0.67427 0.39063,-0.3242 1.51085,-0.12303 1.51085,0.27131 0,0.14068 -0.14883,0.20564 -0.33073,0.14436 -0.1819,-0.0613 -0.45606,0.0586 -0.60924,0.26641 -0.24088,0.32682 -0.32174,0.32576 -0.59857,-0.008 z m 28.08815,-3.85014 c 0.24084,-0.26612 0.43789,-0.56859 0.43789,-0.67217 0,-0.27333 1.13591,-1.85143 1.50291,-2.08795 0.17176,-0.1107 0.84739,-1.00366 1.50141,-1.98437 0.65401,-0.98071 1.4479,-2.05858 1.7642,-2.39524 0.31629,-0.33666 0.69571,-1.05104 0.84315,-1.58749 0.14744,-0.53647 0.35826,-1.03492 0.4685,-1.10767 0.11023,-0.0728 0.51687,-0.72761 0.90364,-1.45521 0.38676,-0.7276 0.92946,-1.6801 1.20598,-2.11667 0.27653,-0.43656 0.51148,-1.05461 0.52212,-1.37345 0.0106,-0.31883 0.1384,-0.65328 0.28392,-0.74321 0.14552,-0.0899 0.26458,-0.37085 0.26458,-0.62425 0,-0.46218 2.72611,-3.47679 3.14406,-3.47679 0.12252,0 0.6777,-0.36155 1.23374,-0.80343 0.55604,-0.44188 1.17223,-0.74155 1.36931,-0.66592 0.19709,0.0756 0.4261,-0.0391 0.50892,-0.25491 0.14085,-0.36702 0.88772,-0.57124 0.88772,-0.24273 0,0.40809 -0.59016,1.17324 -0.90492,1.17324 -0.19642,0 -0.55217,0.29765 -0.79054,0.66145 -0.23837,0.36381 -0.61004,0.66146 -0.82593,0.66146 -0.21589,0 -0.65133,0.29766 -0.96766,0.66146 -0.31632,0.3638 -0.7134,0.66146 -0.88241,0.66146 -0.169,0 -0.45324,0.48719 -0.63164,1.08264 -0.17841,0.59545 -0.72067,1.63725 -1.20503,2.3151 -0.48436,0.67786 -1.06624,1.68063 -1.29306,2.22837 -0.22683,0.54775 -0.59315,1.06526 -0.81404,1.15003 -0.22089,0.0848 -0.47764,0.55934 -0.57056,1.05461 -0.0929,0.49528 -0.26917,0.9005 -0.39169,0.9005 -0.12252,0 -0.44841,0.50601 -0.72421,1.12448 -0.2758,0.61846 -0.90645,1.6076 -1.40144,2.19808 -0.495,0.59049 -1.19765,1.6773 -1.56145,2.41514 -0.3638,0.73784 -0.98957,1.56441 -1.3906,1.83681 -0.40103,0.2724 -0.79027,0.68557 -0.86498,0.91815 -0.13336,0.41514 -1.18956,1.03234 -1.76663,1.03234 -0.1617,0 -0.0968,-0.21696 0.14474,-0.48386 z m 6.43511,0.30746 c -0.35963,-0.35963 -0.15858,-0.85164 0.41892,-1.02516 0.7337,-0.22047 2.57969,-1.95506 2.57969,-2.42401 0,-0.18876 0.14883,-0.34517 0.33073,-0.34762 0.52652,-0.007 5.22552,-8.21382 5.22552,-9.12635 0,-0.16609 0.29765,-0.58161 0.66146,-0.92339 0.3638,-0.34176 0.66146,-0.72473 0.66146,-0.85104 0,-0.12628 0.12312,-0.37342 0.2736,-0.54918 0.15049,-0.17576 0.41838,-0.51591 0.59531,-0.75587 0.36978,-0.50149 1.51234,-0.91193 1.51234,-0.54327 0,0.32058 -1.80234,2.97393 -2.71876,4.00245 -0.39705,0.44562 -0.78813,1.27359 -0.88362,1.87072 -0.0942,0.58918 -0.27472,1.13518 -0.40113,1.21331 -0.1264,0.0781 -0.22983,0.3743 -0.22983,0.65818 0,0.28388 -0.23812,0.72003 -0.52916,0.96923 -0.29105,0.2492 -0.52917,0.59028 -0.52917,0.75796 0,0.44484 -3.3472,4.81309 -4.69404,6.12596 -1.07362,1.04653 -1.85077,1.37064 -2.27332,0.94808 z m 30.51527,-12.75224 c 0,-0.36282 -1.95971,-1.62324 -2.52776,-1.62578 -0.76046,-0.003 -2.49932,-1.75819 -2.49932,-2.52223 0,-0.58475 0.056,-0.61362 0.65775,-0.33943 0.36176,0.16483 0.83117,0.56437 1.04314,0.88786 0.21197,0.32351 0.70037,0.66725 1.08534,0.76387 1.40968,0.3538 3.62585,3.06431 2.50544,3.06431 -0.14552,0 -0.26459,-0.10286 -0.26459,-0.2286 z m -30.16249,-7.57459 c 0,-1.83786 2.53017,-2.97938 7.09616,-3.20154 2.67108,-0.12995 3.28681,-0.0787 4.53895,0.37753 1.11674,0.40693 1.57135,0.46221 1.98421,0.24125 0.74794,-0.40029 3.63545,-0.9155 4.68723,-0.83632 2.39972,0.18063 3.24351,0.33393 3.33411,0.60575 0.0546,0.16378 0.24972,0.29778 0.43361,0.29778 0.61594,0 1.47364,0.98053 1.47364,1.68468 0,0.94098 -0.6159,0.89573 -1.32292,-0.0972 -0.31086,-0.43656 -0.71962,-0.79375 -0.90837,-0.79375 -0.18875,0 -0.65022,-0.24152 -1.02549,-0.53671 -0.59605,-0.46886 -0.82636,-0.50192 -1.82162,-0.26157 -0.62662,0.15135 -1.6164,0.30842 -2.19951,0.34908 -0.58311,0.0407 -1.17842,0.14273 -1.32292,0.22681 -0.14449,0.0841 -0.69145,0.29098 -1.21546,0.45973 -0.81794,0.26342 -1.13616,0.22802 -2.24896,-0.25012 -0.98172,-0.42183 -1.80975,-0.55137 -3.41287,-0.53393 -2.82524,0.0307 -3.13033,0.0563 -3.43959,0.28764 -0.26186,0.19593 -1.83855,0.59202 -2.12304,0.53334 -0.0811,-0.0167 -0.60955,0.4505 -1.17429,1.03828 -0.56474,0.58779 -1.09567,1.0687 -1.17984,1.0687 -0.0842,0 -0.15303,-0.29675 -0.15303,-0.65945 z"
       id="path23" />
  </g>
</svg>
