<?xml version="1.0" encoding="UTF-8" standalone="no"?>
<!-- Created with Inkscape (http://www.inkscape.org/) -->

<svg
   width="113.18427mm"
   height="48.881329mm"
   viewBox="0 0 113.18426 48.881331"
   version="1.1"
   id="svg1"
   inkscape:version="1.4.1-rc (06eac75fbf, 2025-03-29)"
   sodipodi:docname="mount3.svg"
   xmlns:inkscape="http://www.inkscape.org/namespaces/inkscape"
   xmlns:sodipodi="http://sodipodi.sourceforge.net/DTD/sodipodi-0.dtd"
   xmlns="http://www.w3.org/2000/svg"
   xmlns:svg="http://www.w3.org/2000/svg">
  <sodipodi:namedview
     id="namedview1"
     pagecolor="#ffffff"
     bordercolor="#000000"
     borderopacity="0.25"
     inkscape:showpageshadow="2"
     inkscape:pageopacity="0.0"
     inkscape:pagecheckerboard="0"
     inkscape:deskcolor="#d1d1d1"
     inkscape:document-units="mm"
     inkscape:zoom="0.72248176"
     inkscape:cx="214.53829"
     inkscape:cy="93.427964"
     inkscape:window-width="1850"
     inkscape:window-height="1016"
     inkscape:window-x="0"
     inkscape:window-y="0"
     inkscape:window-maximized="1"
     inkscape:current-layer="layer1" />
  <defs
     id="defs1" />
  <g
     inkscape:label="Layer 1"
     inkscape:groupmode="layer"
     id="layer1"
     transform="translate(-48.947904,-123.82542)">
    <path
       style="fill:#000000"
       d="m 52.26504,171.93899 c 0.42572,-0.72068 0.78403,-0.89503 1.61124,-0.78402 0.19018,0.0255 0.31775,-0.1092 0.28348,-0.29938 -0.0817,-0.45335 0.80032,-2.00827 1.55401,-2.73962 0.46144,-0.44776 0.55936,-0.76019 0.43428,-1.38559 -0.14154,-0.70771 -0.0606,-0.85967 0.65549,-1.22995 0.44934,-0.23236 1.50392,-0.48604 2.34352,-0.56373 1.69236,-0.15659 1.78521,-0.21219 2.01958,-1.20942 0.15058,-0.6407 0.0646,-0.72978 -1.0634,-1.10112 -1.38536,-0.45608 -1.83103,-0.37652 -2.02398,0.36132 -0.13286,0.50805 -0.97689,0.73572 -0.97689,0.26351 0,-0.70353 0.59696,-1.6436 1.18588,-1.86751 0.39677,-0.15085 0.66621,-0.46145 0.66621,-0.76798 0,-0.55948 0.91415,-0.87424 2.53902,-0.87424 1.04853,0 1.48234,-0.44284 0.64763,-0.66112 -0.35512,-0.0929 -0.51626,-0.29125 -0.42652,-0.5251 0.0793,-0.20672 0.0563,-0.32747 -0.0512,-0.26834 -0.10747,0.0591 -1.1479,-0.0288 -2.31207,-0.1953 -1.82285,-0.26077 -2.11667,-0.37479 -2.11667,-0.82137 0,-0.34306 -0.21058,-0.54837 -0.62222,-0.60664 -1.11657,-0.15804 -1.91111,0.2067 -2.26052,1.0377 -0.28356,0.67439 -0.38583,0.73875 -0.65621,0.41297 -0.36713,-0.44237 -0.15761,-1.59119 0.37008,-2.02913 0.19309,-0.16026 0.62789,-0.32089 0.96623,-0.35696 0.91321,-0.0974 0.85609,-0.52273 -0.11642,-0.86703 -0.87409,-0.30945 -3.05183,-0.19368 -3.46786,0.18436 -0.12688,0.11528 -0.4037,0.14322 -0.61516,0.0621 -0.23421,-0.0899 -0.35988,-0.004 -0.32154,0.21911 0.0824,0.47992 -0.29686,1.82181 -0.51495,1.82205 -0.0934,1e-4 -0.18693,0.29776 -0.20792,0.66146 -0.021,0.3637 0.0539,0.66127 0.16634,0.66127 0.11247,0 0.35341,0.3595 0.53541,0.79889 0.182,0.43939 0.85129,1.32673 1.48731,1.97188 1.07541,1.09084 1.43108,1.73105 0.95795,1.72433 -0.30582,-0.004 -2.52049,-2.1352 -3.29695,-3.17218 -0.48048,-0.6417 -0.69244,-1.25101 -0.6903,-1.98438 0.003,-1.0324 0.69953,-3.03361 1.05794,-3.03967 0.0987,-0.002 0.34147,-0.15187 0.5394,-0.33377 1.10775,-1.01808 2.97394,-1.12888 4.16625,-0.24737 0.37471,0.27704 0.97665,0.59406 1.33764,0.70449 0.36098,0.11043 0.83972,0.36115 1.06386,0.55715 0.34198,0.29905 0.52209,0.29691 1.11999,-0.0133 0.39187,-0.20331 0.77119,-0.27465 0.84294,-0.15856 0.0718,0.1161 0.41976,0.15578 0.77334,0.0882 0.46316,-0.0885 0.88272,0.1063 1.50077,0.69694 0.47183,0.45091 0.95928,0.81984 1.08322,0.81984 0.12394,0 0.22534,0.23812 0.22534,0.52917 0,0.29104 0.1357,0.52916 0.30156,0.52916 0.16586,0 0.4463,0.19794 0.6232,0.43987 0.21981,0.3006 0.48035,0.37461 0.82292,0.23378 0.3284,-0.13501 0.38722,-0.24869 0.17055,-0.32962 -0.51001,-0.19051 -0.39208,-1.07643 0.22552,-1.69402 0.53639,-0.5364 0.54016,-0.58613 0.10544,-1.39335 -0.86766,-1.61114 0.1647,-3.62371 2.32093,-4.52464 0.90398,-0.37771 1.10737,-0.37603 2.31552,0.0191 0.72847,0.23827 1.39043,0.53992 1.47104,0.67034 0.0806,0.13042 0.27478,0.15788 0.43151,0.061 0.39562,-0.2445 2.55944,0.98077 2.74072,1.55195 0.16842,0.53063 0.54748,0.61866 0.69955,0.16246 0.0714,-0.21413 0.29502,-0.18148 0.74965,0.10943 0.35636,0.22803 1.18372,0.55706 1.83856,0.73117 1.78532,0.47469 2.43029,0.81649 3.34297,1.77158 0.45619,0.47739 0.91932,0.86798 1.02917,0.86798 0.10985,0 0.35942,0.20836 0.5546,0.46302 0.24461,0.31916 0.41808,0.37134 0.55833,0.16795 0.11191,-0.16229 0.47136,-0.37867 0.79878,-0.48085 0.44318,-0.1383 0.59532,-0.0798 0.59532,0.22892 0,0.61851 0.72784,0.50072 1.11602,-0.18061 0.18655,-0.32742 0.48801,-0.60721 0.66991,-0.62177 0.1819,-0.0146 0.55972,-0.0443 0.8396,-0.0661 0.56311,-0.0439 2.13697,-1.26593 2.13697,-1.65923 0,-0.13727 -0.2679,-0.34994 -0.59532,-0.4726 -0.50623,-0.18964 -0.6151,-0.12235 -0.7276,0.44972 -0.20185,1.02643 -0.73216,0.99578 -1.24123,-0.0717 -0.37379,-0.78384 -0.56683,-0.93367 -1.0475,-0.81303 -0.81253,0.20393 -0.98063,-0.20807 -0.385,-0.94364 0.40552,-0.5008 0.72387,-0.60574 1.7077,-0.56292 1.0047,0.0437 1.18216,-0.018 1.04909,-0.36476 -0.0881,-0.22956 0.006,-0.52261 0.20911,-0.65122 0.27674,-0.17522 0.21801,-0.23484 -0.23433,-0.23788 -0.33925,-0.002 -0.66878,-0.20683 -0.7524,-0.46707 -0.51485,-1.60217 -0.73696,-1.90422 -1.6767,-2.28023 -0.54996,-0.22005 -1.23398,-0.33889 -1.52005,-0.26408 -0.35862,0.0938 -0.65756,-0.0737 -0.96273,-0.53948 -0.92419,-1.41048 -2.60318,-1.73743 -4.00223,-0.77934 -0.48798,0.33418 -0.46648,0.3574 0.33073,0.3574 0.46894,0 0.8508,0.0893 0.84857,0.19844 -0.009,0.42795 -0.46787,0.89726 -0.81787,0.83601 -0.20279,-0.0355 -0.81519,0.0282 -1.36089,0.14142 -1.07,0.22209 -1.32883,0.8612 -0.59531,1.46997 0.21828,0.18115 0.39687,0.55666 0.39687,0.83445 0,0.27779 0.1786,0.5736 0.39688,0.65737 0.57475,0.22055 0.51599,1.19721 -0.0662,1.09946 -0.31282,-0.0525 -0.49131,0.12193 -0.55022,0.5378 -0.0598,0.42183 -0.21227,0.56754 -0.48466,0.46302 -0.2186,-0.0839 -0.42935,-0.15252 -0.46832,-0.15252 -0.039,0 -0.0174,-0.53578 0.048,-1.19063 0.0717,-0.71879 0.0106,-1.19062 -0.15425,-1.19062 -0.30695,0 -0.64542,-0.88009 -0.69296,-1.80181 -0.0433,-0.83883 1.18894,-2.18118 1.85316,-2.01882 0.37851,0.0925 0.6218,-0.093 0.91583,-0.69833 0.47389,-0.97563 2.08694,-1.66392 3.04546,-1.29949 0.32983,0.1254 0.64194,0.32499 0.69359,0.44354 0.2549,0.58514 1.97076,1.4497 3.15571,1.59003 0.81031,0.096 1.45162,0.33348 1.64632,0.60971 0.2133,0.30261 0.49141,0.39164 0.83962,0.26879 0.28637,-0.10104 0.91267,-0.0634 1.39178,0.0837 1.11354,0.34176 2.94779,2.66531 2.85489,3.61648 -0.0355,0.3638 0.0385,0.86259 0.16443,1.10842 0.13791,0.26915 0.12349,0.51219 -0.0363,0.61093 -0.60989,0.37693 -0.17463,0.57107 1.23531,0.55098 1.26729,-0.018 1.63779,-0.1423 2.38288,-0.7991 0.48525,-0.42775 1.11878,-0.81382 1.40785,-0.85794 0.55642,-0.0849 1.58783,-0.9805 1.58783,-1.37873 0,-0.24107 -0.62489,-0.55748 -1.101,-0.55748 -0.15721,0 -0.19152,0.32981 -0.0848,0.81554 0.16181,0.73674 0.12172,0.80704 -0.41498,0.7276 -0.9021,-0.13351 -1.22789,-0.83685 -0.85061,-1.83637 0.21045,-0.55754 0.23061,-0.9945 0.0605,-1.31226 -0.37343,-0.69775 -0.31096,-1.9874 0.11333,-2.33953 0.58049,-0.48176 0.70488,-1.30878 0.19737,-1.31226 -0.23835,-0.002 -0.99899,-0.14918 -1.69031,-0.32788 -1.00907,-0.26083 -1.38237,-0.25777 -1.893,0.0155 -0.34983,0.18723 -0.73676,0.27817 -0.85985,0.20209 -0.12309,-0.0761 -0.55774,0.12797 -0.9659,0.45342 -0.67497,0.53821 -0.71295,0.65568 -0.41991,1.29885 0.39199,0.86032 0.20277,1.11178 -0.53821,0.71521 -0.40712,-0.21788 -0.54218,-0.52349 -0.5064,-1.14591 0.0561,-0.97568 0.73377,-2.32089 1.13867,-2.26025 0.15095,0.0226 0.63165,-0.10871 1.06821,-0.29182 0.43657,-0.18311 1.60428,-0.36015 2.59493,-0.39343 1.4985,-0.0503 1.84376,0.0191 2.05456,0.41294 0.13936,0.26039 0.41479,0.4115 0.61207,0.33579 0.19729,-0.0757 0.42986,0.0478 0.51683,0.27444 0.087,0.22664 0.39633,0.41208 0.68745,0.41208 0.68119,0 2.53724,0.95037 3.71476,1.9021 0.90239,0.72935 1.85795,0.98495 1.85795,0.49698 0,-0.13571 0.25873,-0.32887 0.57497,-0.42924 0.31623,-0.10037 0.81493,-0.40605 1.10822,-0.67929 0.29329,-0.27324 0.69932,-0.4968 0.90229,-0.4968 0.45275,0 0.30221,-0.55456 -0.21998,-0.81033 -1.69644,-0.83092 -1.81597,-0.85887 -2.22419,-0.52007 -0.22325,0.18527 -0.4059,0.61994 -0.4059,0.96592 0,0.44066 -0.14989,0.62906 -0.50048,0.62906 -0.65775,0 -0.95058,-1.16853 -0.54077,-2.15791 0.29772,-0.71875 0.38723,-0.75205 1.93348,-0.71934 0.89172,0.0189 1.69199,0.14486 1.77838,0.27998 0.19226,0.30071 2.02663,0.55217 2.38996,0.32762 0.15216,-0.094 0.0612,-0.31884 -0.21609,-0.53405 -0.4564,-0.35423 -0.44957,-0.39645 0.14577,-0.90064 0.34354,-0.29094 0.84537,-0.52899 1.11517,-0.52899 0.2698,0 0.61799,-0.23812 0.77375,-0.52917 0.15576,-0.29104 0.44487,-0.52916 0.64246,-0.52916 0.19759,0 0.43069,-0.18614 0.51799,-0.41365 0.0873,-0.2275 0.26109,-0.35038 0.3862,-0.27306 0.12511,0.0773 0.44888,-0.0213 0.71949,-0.21918 0.42179,-0.30842 0.44063,-0.42167 0.13201,-0.79354 -0.30817,-0.37133 -0.29144,-0.48392 0.11621,-0.782 0.33113,-0.24213 0.3834,-0.40558 0.17155,-0.53651 -0.50325,-0.31102 -0.35641,-1.58496 0.2245,-1.94774 0.29105,-0.18176 0.52917,-0.22443 0.52917,-0.0948 0,0.1296 0.44649,0.0829 0.99219,-0.10376 0.67279,-0.23015 1.01995,-0.52238 1.07843,-0.9078 0.0594,-0.39146 0.53455,-0.78067 1.52634,-1.25026 0.79206,-0.37502 1.5012,-0.78071 1.57588,-0.90154 0.0747,-0.12084 0.31056,-0.15263 0.52418,-0.0707 0.21362,0.082 0.3884,0.0157 0.3884,-0.14719 0,-0.16292 0.66794,-0.59162 1.48431,-0.95266 1.58004,-0.69877 1.52396,-0.56627 1.01365,-2.39524 -0.195,-0.69887 0.82184,-1.19948 2.64011,-1.2998 1.26975,-0.07 1.44454,-0.18078 2.16819,-1.37362 0.26033,-0.42912 0.6159,-0.4779 3.04088,-0.41721 1.51034,0.0378 3.58034,0.23782 4.59999,0.44449 2.48845,0.50437 4.29385,0.37106 4.80213,-0.35461 0.21399,-0.30552 0.50637,-0.55549 0.64972,-0.55549 0.14335,0 0.51624,-0.23812 0.82864,-0.52916 0.6028,-0.5616 1.41562,-0.67501 2.03373,-0.28377 0.28289,0.17906 -0.0905,0.53835 -1.52135,1.46398 -1.04294,0.67467 -1.89718,1.3102 -1.89832,1.41229 -0.009,0.81916 -4.046,0.97781 -5.65548,0.22227 -0.94662,-0.44438 -1.28736,-0.50829 -2.47839,-0.46487 -0.81141,0.0296 -0.85998,0.0873 -0.86137,1.02354 -8.1e-4,0.5457 -0.125,1.43698 -0.27598,1.98062 -0.15098,0.54363 -0.29915,1.63354 -0.32926,2.42201 -0.0301,0.78848 -0.13392,1.30554 -0.23068,1.14903 -0.17767,-0.28737 -1.01469,1.4237 -1.01469,2.07427 0,0.19328 0.18343,0.45407 0.40761,0.57953 0.503,0.28149 0.23269,1.14713 -0.29498,0.94465 -0.20501,-0.0787 -0.41965,0.0181 -0.47697,0.21514 -0.0573,0.197 -0.31874,1.13209 -0.58094,2.07797 -0.26219,0.94589 -0.69254,2.13475 -0.95634,2.64192 -0.2638,0.50717 -0.47963,1.03515 -0.47963,1.17329 0,0.60482 -2.03278,3.33528 -2.59906,3.49109 -1.08028,0.29724 -1.26714,-0.29889 -0.41684,-1.32986 1.60705,-1.94851 1.9671,-2.52044 2.12487,-3.37524 0.0895,-0.48477 0.32195,-1.01022 0.51662,-1.16767 0.19466,-0.15745 0.43482,-0.79205 0.53367,-1.41023 0.17871,-1.11763 0.17542,-1.12347 -0.58508,-1.03665 -0.58185,0.0664 -0.77205,0.23108 -0.7951,0.68832 -0.0167,0.33056 -0.22502,0.81618 -0.46302,1.07917 -0.238,0.26298 -0.43273,0.76967 -0.43273,1.12596 0,0.36476 -0.37428,1.04928 -0.85663,1.56667 -0.86995,0.93313 -1.23282,1.45213 -1.84487,2.63865 -0.18766,0.3638 -0.63142,0.99184 -0.98612,1.39565 -0.3547,0.4038 -0.79685,1.17613 -0.98255,1.71629 -0.18569,0.54016 -0.51929,1.11494 -0.74133,1.2773 -0.22205,0.16236 -0.58736,0.69972 -0.81183,1.19413 -0.70561,1.55421 -2.03818,3.20725 -4.69073,5.81882 -0.40018,0.394 -0.7276,0.84719 -0.7276,1.00709 0,0.1599 -0.0893,0.29983 -0.19844,0.31096 -0.10914,0.0111 -0.4068,0.0601 -0.66146,0.10888 -0.25466,0.0487 -0.46302,-0.0599 -0.46302,-0.2414 0,-0.39242 1.58497,-2.49244 2.97656,-3.9438 0.54571,-0.56915 0.99219,-1.13038 0.99219,-1.24719 0,-0.11681 0.30824,-0.5787 0.68498,-1.02643 0.37674,-0.44773 0.59241,-0.81405 0.47928,-0.81405 -0.11314,0 0.0534,-0.24142 0.37015,-0.53649 0.31672,-0.29507 0.64973,-0.83085 0.74003,-1.19062 0.0903,-0.35978 0.25789,-0.65414 0.37243,-0.65414 0.32305,0 1.29974,-2.1311 1.15252,-2.51475 -0.0721,-0.18778 0.59141,-1.09125 1.47438,-2.00773 0.88297,-0.91647 1.6054,-1.75687 1.6054,-1.86756 0,-0.11069 0.35719,-0.80705 0.79375,-1.54746 0.99301,-1.68414 1.01476,-2.08554 0.10361,-1.91136 -0.46431,0.0888 -0.80719,0.41207 -1.04784,0.98804 -0.19674,0.47087 -0.57903,0.91399 -0.84953,0.98473 -0.2705,0.0707 -0.70094,0.5693 -0.95652,1.10791 -0.25559,0.53862 -0.63871,1.04607 -0.85138,1.12768 -0.21266,0.0816 -0.55808,0.47985 -0.76758,0.885 -0.20951,0.40514 -0.53392,0.89672 -0.72091,1.09241 -0.18699,0.19569 -0.49324,0.65345 -0.68056,1.01726 -0.88049,1.71003 -1.18086,2.16106 -1.5279,2.29423 -0.20587,0.079 -0.37431,0.28244 -0.37431,0.45209 0,0.16965 -0.39575,0.90937 -0.87944,1.64382 -0.4837,0.73446 -0.95621,1.53541 -1.05003,1.77991 -0.0938,0.24449 -0.28163,0.44453 -0.41734,0.44453 -0.24325,0 -0.79516,0.8387 -2.08933,3.175 -0.36274,0.65484 -0.82269,1.37859 -1.02211,1.60833 -0.19942,0.22974 -0.36523,0.5274 -0.36846,0.66146 -0.003,0.13406 -0.23872,0.54141 -0.52329,0.90521 -0.28457,0.3638 -0.52005,0.84636 -0.52328,1.07235 -0.008,0.59069 -1.56977,2.63182 -2.01315,2.63182 -0.47507,0 -0.48251,-0.78331 -0.0139,-1.46249 0.19805,-0.28704 0.86899,-1.47439 1.49097,-2.63856 0.62198,-1.16416 1.3529,-2.4327 1.62427,-2.81896 0.27137,-0.38627 0.49341,-0.78237 0.49341,-0.88024 0,-0.0978 0.47624,-0.843 1.05833,-1.65587 0.58208,-0.81287 1.05833,-1.63716 1.05833,-1.83175 0,-0.19459 0.0989,-0.3538 0.21988,-0.3538 0.12093,0 0.377,-0.29359 0.56904,-0.65243 0.19204,-0.35883 0.43723,-0.598 0.54486,-0.53148 0.10764,0.0665 0.27368,-0.29473 0.36899,-0.80278 0.0953,-0.50805 0.28991,-0.92373 0.43244,-0.92373 0.14252,0 0.36414,-0.26789 0.49246,-0.59531 0.12833,-0.32742 0.7207,-1.28521 1.31637,-2.12841 0.59568,-0.84321 1.08304,-1.68566 1.08304,-1.87211 0,-0.18646 0.30897,-0.62765 0.6866,-0.98044 1.03528,-0.96718 1.53376,-2.04978 1.15433,-2.50696 -0.22982,-0.27692 -0.44002,-0.30219 -0.82037,-0.0986 -0.28126,0.15052 -0.745,0.19953 -1.03055,0.1089 -0.36396,-0.11552 -0.51917,-0.0417 -0.51917,0.2468 0,0.26897 0.20598,0.38975 0.59445,0.34856 0.95501,-0.10125 0.90494,0.87946 -0.0848,1.66041 -1.3176,1.03969 -2.89093,2.59856 -2.89093,2.86437 0,0.13356 -0.56707,0.83741 -1.26016,1.5641 -0.69308,0.72669 -1.43701,1.66386 -1.65317,2.0826 -0.21616,0.41873 -0.93944,1.4757 -1.6073,2.34883 -0.66786,0.87312 -1.29446,1.76609 -1.39245,1.98437 -0.098,0.21829 -0.41119,0.75407 -0.69599,1.19063 -0.56015,0.85863 -1.32843,2.46029 -1.32843,2.76943 0,0.10519 -0.23813,0.40676 -0.52917,0.67015 -0.29104,0.26339 -0.52916,0.68301 -0.52916,0.93249 0,0.62034 -2.13404,3.25702 -2.41153,2.97953 -0.23579,-0.23579 0.66883,-2.66377 1.40825,-3.77973 0.24105,-0.3638 0.51582,-0.97711 0.6106,-1.36291 0.0948,-0.3858 0.37515,-0.92158 0.62303,-1.19063 0.24789,-0.26904 0.60957,-0.87612 0.80373,-1.34906 0.19417,-0.47294 0.45765,-0.8599 0.58551,-0.8599 0.12787,0 0.24039,-0.14882 0.25005,-0.33072 0.01,-0.18191 0.42429,-0.86651 0.92139,-1.52136 0.49711,-0.65484 1.1442,-1.63266 1.43798,-2.17293 0.5717,-1.05134 2.69121,-3.78673 3.44161,-4.44165 0.8445,-0.73704 0.83981,-1.27126 -0.0128,-1.45853 -0.90916,-0.19968 -2.36615,0.0649 -2.36615,0.42974 0,0.13865 -0.25723,0.34725 -0.57162,0.46355 -0.48537,0.17955 -0.50594,0.23666 -0.13633,0.37849 0.28015,0.10751 0.53435,-0.0181 0.71322,-0.35227 0.30923,-0.5778 0.48029,-0.62252 1.03605,-0.27085 0.31481,0.19921 0.32059,0.31179 0.0337,0.65741 -0.19036,0.22937 -0.26165,0.41704 -0.15842,0.41704 0.10323,0 -0.77516,0.94237 -1.95198,2.09415 -1.17682,1.15179 -2.13967,2.17177 -2.13967,2.26662 0,0.0949 -0.41568,0.61101 -0.92375,1.147 -0.50806,0.53599 -0.92477,1.12335 -0.92604,1.30525 -0.001,0.1819 -0.11909,0.33073 -0.26183,0.33073 -0.14275,0 -0.33425,0.29766 -0.42556,0.66146 -0.0913,0.3638 -0.24261,0.66146 -0.33623,0.66146 -0.0936,0 -0.45018,0.52776 -0.79237,1.1728 -0.34219,0.64503 -0.78847,1.23661 -0.99174,1.31461 -0.20326,0.078 -0.36956,0.37375 -0.36956,0.65724 0,0.28348 -0.0893,0.5551 -0.19844,0.60361 -0.24162,0.10739 -1.26439,2.21748 -1.51755,3.1309 -0.38765,1.39865 -0.8033,2.09463 -1.41827,2.37482 -0.35106,0.15996 -0.66731,0.25661 -0.70278,0.21478 -0.0355,-0.0418 0.28485,-0.90949 0.71181,-1.92814 0.42696,-1.01864 0.81026,-1.97114 0.85177,-2.11666 0.0415,-0.14552 0.23113,-0.62177 0.42138,-1.05834 0.19024,-0.43656 0.3775,-0.94879 0.41614,-1.13828 0.0386,-0.18949 0.28624,-0.66574 0.55022,-1.05833 0.26398,-0.39259 0.69455,-1.13052 0.95681,-1.63985 1.02287,-1.98645 1.32357,-2.43306 2.32838,-3.45817 0.57206,-0.58362 1.04011,-1.2349 1.04011,-1.44731 0,-0.2124 0.1786,-0.38618 0.39688,-0.38618 0.21828,0 0.39687,-0.11443 0.39687,-0.25428 0,-0.13985 0.20836,-0.46727 0.46302,-0.7276 0.25466,-0.26033 0.74802,-0.79687 1.09634,-1.1923 l 0.63332,-0.71896 -0.8979,0.32209 c -0.49385,0.17715 -1.05524,0.47092 -1.24753,0.65282 -0.1923,0.1819 -0.50698,0.33073 -0.6993,0.33073 -0.435,0 -0.76837,0.7337 -0.69127,1.52135 0.0321,0.32742 -0.0693,0.59531 -0.22524,0.59531 -0.15594,0 -0.28352,0.18837 -0.28352,0.4186 0,0.23023 -0.47222,0.91484 -1.04936,1.52135 -0.57715,0.60652 -1.60377,1.78737 -2.28137,2.62412 -0.6776,0.83674 -1.33089,1.52135 -1.45176,1.52135 -0.12087,0 -0.41314,0.40751 -0.64949,0.90558 -0.23635,0.49806 -0.59912,0.97058 -0.80617,1.05003 -0.20704,0.0795 -0.37643,0.28764 -0.37643,0.46265 0,0.17501 -0.18712,0.52496 -0.41582,0.77767 -0.39705,0.43874 -2.24798,3.84974 -3.67744,6.777 -0.36903,0.75569 -0.78963,1.44733 -0.93468,1.53697 -0.14505,0.0897 -0.26373,0.50613 -0.26373,0.92552 0,0.41938 -0.11906,0.8361 -0.26458,0.92604 -0.42746,0.26418 -0.3343,-3.46437 0.0973,-3.89601 0.41622,-0.41622 2.14841,-3.75016 2.40911,-4.6368 0.0963,-0.32742 0.27471,-0.59532 0.39653,-0.59532 0.12183,0 0.59359,-0.62507 1.04837,-1.38906 0.45478,-0.76398 1.29665,-2.03027 1.87081,-2.81396 1.59767,-2.18071 0.96425,-2.52883 -1.51094,-0.83041 -1.81419,1.24487 -1.8804,1.30304 -2.68736,2.36147 -0.3438,0.45093 -0.78672,0.81988 -0.98427,0.81988 -0.19754,0 -0.61979,0.35251 -0.93833,0.78336 -0.31854,0.43085 -0.69769,0.71011 -0.84255,0.62058 -0.14595,-0.0902 -0.18116,-0.0297 -0.079,0.13563 0.10143,0.16413 -0.0588,0.50664 -0.356,0.76114 -0.29723,0.2545 -0.54042,0.65981 -0.54042,0.9007 0,0.24088 -0.17544,0.58357 -0.38987,0.76153 -0.21444,0.17796 -0.46508,0.72445 -0.557,1.21442 -0.0919,0.48997 -0.43976,1.18503 -0.77299,1.54458 -0.33322,0.35956 -0.54185,0.71774 -0.46363,0.79596 0.0782,0.0782 -0.008,0.3237 -0.19245,0.5455 -0.39019,0.47014 -1.18954,0.55644 -0.9061,0.0978 0.10383,-0.168 0.2181,-0.57255 0.25393,-0.89901 0.0996,-0.90697 1.75622,-4.32945 2.06741,-4.27103 0.15099,0.0283 0.28689,-0.12707 0.302,-0.34535 0.0151,-0.21828 0.1233,-0.60675 0.2404,-0.86326 0.23331,-0.51107 -0.2758,-1.34622 -0.67156,-1.10163 -0.12988,0.0803 -0.66185,-0.008 -1.18217,-0.19614 -0.83336,-0.30135 -0.97567,-0.28912 -1.19492,0.10266 -0.13689,0.24461 -0.42523,0.62108 -0.64074,0.8366 -0.34608,0.34607 -0.3343,0.41011 0.10085,0.54823 0.27099,0.086 0.669,0.0887 0.88447,0.006 0.49181,-0.18873 1.11536,0.52926 0.91442,1.0529 -0.11622,0.30288 -0.45422,0.35938 -1.48481,0.24819 -0.8271,-0.0892 -1.33432,-0.041 -1.33432,0.12676 0,0.14889 -0.29766,0.59189 -0.66146,0.98444 -0.36381,0.39255 -0.66146,1.02529 -0.66146,1.4061 0,0.45432 -0.19774,0.78217 -0.57512,0.95355 -0.31631,0.14365 -0.60732,0.49604 -0.64669,0.7831 -0.0394,0.28705 -0.23138,0.64424 -0.4267,0.79375 -0.19532,0.14951 -0.31117,0.48604 -0.25745,0.74786 0.13963,0.68044 -0.65574,1.77293 -1.29076,1.77293 -0.36475,0 -0.47197,-0.10679 -0.33207,-0.33073 0.11364,-0.1819 0.23227,-0.50052 0.26363,-0.70805 0.0314,-0.20753 0.23053,-0.74331 0.44261,-1.19062 0.21207,-0.44732 0.52566,-1.1705 0.69687,-1.60706 0.1712,-0.43656 0.66053,-1.48517 1.08739,-2.33025 0.62383,-1.23502 0.72008,-1.64119 0.49053,-2.07011 -0.23889,-0.44638 -0.19584,-0.55709 0.26338,-0.67718 0.64717,-0.16923 0.72862,-0.82325 0.13109,-1.05255 -0.65697,-0.2521 -3.30665,2.49169 -3.22107,3.33547 0.0555,0.54726 -0.0697,0.68614 -0.72668,0.80578 -0.55308,0.10072 -0.80193,0.30382 -0.82072,0.66982 -0.0148,0.2889 -0.0587,0.64433 -0.0975,0.78985 -0.0388,0.14552 -0.0564,0.35388 -0.0392,0.46302 0.0172,0.10915 -0.32358,0.19844 -0.75737,0.19844 -0.62063,0 -0.82409,0.14096 -0.95473,0.66146 -0.0913,0.3638 -0.0913,0.95911 0,1.32292 0.14908,0.59397 0.0861,0.66146 -0.61716,0.66146 -0.43075,0 -0.84872,-0.10606 -0.92883,-0.23567 -0.19961,-0.32299 -3.14801,-0.14234 -3.85534,0.23621 -0.71149,0.38078 -0.92108,0.20449 -0.5597,-0.47076 0.44843,-0.83791 3.2332,-1.64413 3.86572,-1.11918 0.37223,0.30892 1.02569,-0.31621 1.31174,-1.25488 0.14027,-0.46028 0.0724,-0.60297 -0.29944,-0.62907 -0.26446,-0.0186 -0.7785,-0.0671 -1.1423,-0.10795 -0.36381,-0.0408 -1.00718,0.0935 -1.42972,0.29835 -0.42254,0.20489 -0.91524,0.37253 -1.0949,0.37253 -0.5132,0 -2.81632,2.40038 -2.66971,2.78245 0.0724,0.18856 -0.0953,0.54816 -0.37263,0.79911 -0.47972,0.43414 -0.57571,0.42128 -1.97875,-0.26517 l -1.47458,-0.72144 -0.64923,0.70053 c -0.78618,0.8483 -0.79765,0.93785 -0.12007,0.93785 0.91444,0 0.57509,0.49718 -0.46302,0.67837 -0.5457,0.0952 -2.94329,0.75549 -5.32797,1.4672 -2.38468,0.71171 -4.65772,1.29402 -5.05118,1.29402 -0.39347,0 -1.26991,0.16688 -1.94766,0.37085 l -1.23226,0.37086 z m 4.17587,-1.41448 c 0.43657,-0.0864 1.26216,-0.21643 1.83465,-0.28895 1.27744,-0.16183 1.324,-0.20537 0.95561,-0.89372 -0.27386,-0.51171 -1.17903,-0.72804 -2.36005,-0.56404 -0.39532,0.0549 -2.15,1.66675 -2.15,1.975 0,0.10424 0.20836,0.13087 0.46302,0.0592 0.25466,-0.0717 0.82021,-0.20106 1.25677,-0.28746 z m 5.11081,-3.23739 c -0.0727,-0.61597 -0.25752,-0.74744 -1.40664,-1.00065 -1.42135,-0.3132 -2.24896,-0.25763 -2.24896,0.151 0,0.15625 -0.19756,0.14876 -0.51177,-0.0194 -0.6983,-0.37372 -1.04028,-0.33083 -0.52031,0.0652 0.23273,0.17727 0.41132,0.43756 0.39688,0.57842 -0.0364,0.35478 1.85489,0.88966 3.23246,0.91419 1.08725,0.0194 1.13804,-0.0137 1.05834,-0.68881 z m 2.5203,0.32581 c 0.09,-0.23461 -0.0607,-0.44928 -0.3885,-0.55332 -0.69478,-0.22052 -0.92411,0.0236 -0.50104,0.53338 0.41983,0.50586 0.70066,0.51216 0.88954,0.0199 z m 1.23244,-0.80729 c 0.27518,-0.33158 0.23698,-0.39688 -0.23219,-0.39688 -0.32278,0 -0.56156,0.16876 -0.56156,0.39688 0,0.21828 0.10448,0.39687 0.23218,0.39687 0.1277,0 0.38041,-0.17859 0.56157,-0.39687 z m 1.84263,-1.5667 c -0.50869,-0.49377 -1.36234,-0.63127 -1.4991,-0.24146 -0.10884,0.31024 0.40278,0.52991 1.36681,0.58684 0.4544,0.0268 0.47102,-0.0166 0.13229,-0.34538 z m 5.18047,-2.00612 c 0.86672,-0.63607 1.61554,-1.25326 1.66405,-1.37153 0.11129,-0.27134 1.6316,-0.28535 1.6316,-0.015 0,0.32676 1.52814,0.90373 2.14921,0.81146 0.31618,-0.047 0.70609,-0.30123 0.86647,-0.56501 0.23701,-0.3898 0.17466,-0.57556 -0.33302,-0.99219 -0.75591,-0.62033 -1.55622,-0.65624 -2.17358,-0.0975 -0.38946,0.35245 -0.62012,0.36668 -1.52926,0.0943 -0.84954,-0.25452 -1.32074,-0.25074 -2.28177,0.0183 -1.22021,0.34164 -1.90992,0.18294 -1.18831,-0.27342 0.32644,-0.20645 0.31454,-0.2468 -0.0738,-0.2502 -0.76631,-0.007 -0.52043,-0.53079 0.26459,-0.56395 0.40018,-0.0169 1.32291,-0.0584 2.05052,-0.0922 0.7276,-0.0338 1.76533,-0.30042 2.30606,-0.59252 0.88311,-0.47707 0.94696,-0.58058 0.62758,-1.01735 -0.33409,-0.45691 -0.38259,-0.45922 -0.8036,-0.0382 -0.6809,0.6809 -1.1651,0.53977 -1.41159,-0.41145 -0.2296,-0.88606 -1.11533,-1.37455 -1.11533,-0.61511 0,0.22895 -0.11906,0.41627 -0.26458,0.41627 -0.14552,0 -0.26458,0.20509 -0.26458,0.45575 0,0.36692 -0.0836,0.33643 -0.42879,-0.15643 -0.4013,-0.57294 -0.39354,-0.65985 0.12109,-1.35592 l 0.54987,-0.74374 -0.7164,-0.20022 c -0.8217,-0.22965 -1.65162,-0.16515 -2.04819,0.15916 -0.3858,0.3155 -1.02429,-0.14365 -0.84596,-0.60835 0.0816,-0.21257 0.68091,-0.52061 1.33187,-0.68452 0.94592,-0.23819 1.21901,-0.43925 1.3601,-1.0014 0.2046,-0.81519 -0.0467,-1.15189 -0.93709,-1.25541 -0.3495,-0.0406 -0.81406,-0.14401 -1.03234,-0.22972 -1.5822,-0.62125 -3.13924,-0.32956 -3.68508,0.69036 -0.17676,0.33026 -0.28312,1.06871 -0.23637,1.64098 0.0829,1.01465 0.11423,1.0444 1.26182,1.19754 0.64725,0.0864 1.22272,0.29473 1.27882,0.46302 0.0561,0.16829 0.38973,0.30599 0.7414,0.30599 0.39198,0 0.63941,0.15358 0.63941,0.39687 0,0.47595 -0.20114,0.48709 -1.75055,0.0969 -2.0502,-0.51625 -3.26124,0.57176 -1.95361,1.75514 0.29104,0.26339 0.52916,0.64276 0.52916,0.84306 0,0.20029 0.1786,0.4327 0.39688,0.51647 0.21828,0.0838 0.39687,0.26359 0.39687,0.39963 0,0.13604 0.23813,0.50294 0.52917,0.81533 0.29104,0.3124 0.52917,0.72414 0.52917,0.91498 0,0.19084 0.16508,0.34699 0.36684,0.34699 0.4263,0 0.71444,1.45872 0.35845,1.8147 -0.14304,0.14304 -0.0976,0.46986 0.11288,0.81109 l 0.35245,0.57152 0.54081,-0.624 c 0.29744,-0.34321 1.24994,-1.14443 2.11667,-1.78051 z m -9.93352,1.73737 c 0,-0.29015 0.23508,-0.34406 0.99219,-0.22753 l 0.99218,0.15271 -0.70319,-0.56622 c -0.38675,-0.31142 -0.88858,-0.56622 -1.11517,-0.56622 -0.47393,0 -0.94468,0.76867 -0.76967,1.25677 0.16277,0.45394 0.60366,0.41778 0.60366,-0.0495 z m 2.62378,-2.6263 c -0.0606,-0.0529 -0.67972,-0.4099 -1.37576,-0.79339 -0.96041,-0.52916 -1.58235,-0.68349 -2.57968,-0.64009 -0.7228,0.0314 -1.31417,0.15035 -1.31417,0.26422 0,0.11388 0.0893,0.21616 0.19843,0.22729 0.63285,0.0646 1.30007,0.24662 1.77463,0.48423 0.52271,0.26172 1.43804,0.4318 2.76739,0.51422 0.35167,0.0218 0.5898,-0.004 0.52916,-0.0565 z m 14.17726,-2.8143 c -0.0899,-0.14552 -0.27556,-0.26458 -0.41249,-0.26458 -0.13693,0 -0.24897,0.11906 -0.24897,0.26458 0,0.14552 0.18562,0.26459 0.41249,0.26459 0.22687,0 0.33891,-0.11907 0.24897,-0.26459 z m -16.23904,-0.59972 c -0.26131,-0.25936 -0.2917,-0.22897 -0.14812,0.14811 0.0994,0.26094 0.24731,0.40779 0.32877,0.32632 0.0815,-0.0815 1.7e-4,-0.29495 -0.18065,-0.47443 z m 16.9005,-1.36904 c 0,-0.0642 -0.11906,-0.19026 -0.26458,-0.28019 -0.14553,-0.0899 -0.26459,-0.0374 -0.26459,0.11667 0,0.15411 0.11906,0.2802 0.26459,0.2802 0.14552,0 0.26458,-0.0525 0.26458,-0.11668 z m 12.55563,-0.8733 c 0.21299,-0.55505 0.14835,-0.59064 -1.40725,-0.77488 -1.59149,-0.18849 -1.77705,0.14646 -0.4989,0.90059 0.94232,0.55598 1.66279,0.50847 1.90615,-0.12571 z m -33.45771,-0.2315 c 0,-0.0558 -0.30469,-0.10144 -0.67708,-0.10144 -0.37239,0 -0.61039,0.10789 -0.5289,0.23975 0.13555,0.21933 1.20598,0.0966 1.20598,-0.13831 z m 16.13958,-0.84568 c 0,-0.5961 -1.32685,-1.90159 -1.93271,-1.90159 -0.30206,0 -0.44854,0.21602 -0.44854,0.66146 0,0.41157 0.14993,0.66146 0.39687,0.66146 0.21829,0 0.39688,0.1229 0.39688,0.27311 0,0.24368 0.86916,0.72451 1.38906,0.76845 0.10914,0.009 0.19844,-0.19908 0.19844,-0.46289 z m 1.85208,0.23849 c 0,-0.26899 -0.67651,-0.22884 -0.96248,0.0571 -0.10122,0.10122 0.0739,0.18405 0.38922,0.18405 0.31529,0 0.57326,-0.10853 0.57326,-0.24118 z m 16.93334,-0.83278 c 0,-0.13693 -0.11907,-0.24897 -0.26459,-0.24897 -0.14552,0 -0.26458,0.18562 -0.26458,0.41249 0,0.22687 0.11906,0.33891 0.26458,0.24897 0.14552,-0.0899 0.26459,-0.27555 0.26459,-0.41249 z m -20.90209,-2.36563 c 0,-0.14552 -0.11906,-0.26459 -0.26458,-0.26459 -0.14552,0 -0.26458,0.11907 -0.26458,0.26459 0,0.14552 0.11906,0.26458 0.26458,0.26458 0.14552,0 0.26458,-0.11906 0.26458,-0.26458 z m 16.50232,-0.21283 c -0.15586,-0.10122 -0.33101,-0.32115 -0.38921,-0.48871 -0.074,-0.21293 -0.20951,-0.19197 -0.45022,0.0696 -0.28735,0.31228 -0.24352,0.41242 0.26459,0.60455 0.65163,0.24641 1.04459,0.11963 0.57484,-0.18545 z m 12.07268,-0.84551 c 0,-0.14552 -0.29765,-0.26458 -0.66146,-0.26458 -0.3638,0 -0.66145,0.11906 -0.66145,0.26458 0,0.14552 0.29765,0.26459 0.66145,0.26459 0.36381,0 0.66146,-0.11907 0.66146,-0.26459 z m -10.84791,-0.71644 c 0,-0.26098 -1.9122,-2.19397 -2.17037,-2.19397 -0.58296,0 -0.092,1.05841 0.77816,1.67753 1.00079,0.71207 1.39221,0.85727 1.39221,0.51644 z m 10.05416,-1.88468 c 0,-0.52311 -0.67525,-0.96581 -2.07436,-1.35998 -0.74791,-0.2107 -0.85974,-0.18643 -0.72761,0.15792 0.0859,0.22378 0.15614,0.46249 0.15614,0.53047 0,0.13762 2.13511,1.14109 2.44739,1.15024 0.10914,0.003 0.19844,-0.2122 0.19844,-0.47865 z m -0.86541,-2.85039 c -0.0879,-0.0879 -0.31612,-0.0973 -0.50711,-0.0209 -0.21107,0.0845 -0.14838,0.14715 0.15985,0.15985 0.27891,0.0115 0.43518,-0.0511 0.34726,-0.13897 z m 15.64477,-4.16607 c 0.49403,-0.52587 0.52651,-0.66954 0.2106,-0.93172 -0.45901,-0.38095 -1.76079,0.039 -1.76079,0.56796 0,0.36114 0.50719,0.98551 0.80054,0.98551 0.091,0 0.4284,-0.27978 0.74965,-0.62175 z m 2.48485,-4.18029 c -0.17022,-0.17022 -0.49896,-0.20896 -0.77611,-0.0915 -0.42525,0.18029 -0.40438,0.22523 0.18065,0.3889 0.78424,0.21942 1.00303,0.11013 0.59546,-0.29744 z m -1.65379,0.18906 c 0,-0.0633 -0.11612,-0.42048 -0.25804,-0.79375 -0.18176,-0.47807 -0.45304,-0.67868 -0.91773,-0.67868 -0.51809,0 -0.62241,0.0994 -0.48597,0.46302 0.20619,0.5495 0.86781,1.10427 1.33101,1.11606 0.1819,0.005 0.33073,-0.0434 0.33073,-0.10665 z m 11.64166,-1.90232 c 0,-0.36478 0.13118,-0.90833 0.2915,-1.20789 0.16032,-0.29956 0.33618,-0.79775 0.3908,-1.10709 0.3135,-1.77546 0.59811,-3.0212 0.82364,-3.60514 0.14051,-0.3638 0.28487,-1.227 0.32079,-1.91822 0.0639,-1.2301 -0.19798,-1.58631 -0.68092,-0.92604 -0.28703,0.39242 -1.04083,3.5167 -1.27523,5.28549 -0.0912,0.68784 -0.26756,1.31354 -0.39201,1.39045 -0.40955,0.25312 -0.60973,2.24406 -0.26714,2.65685 0.42515,0.51227 0.78857,0.25031 0.78857,-0.56841 z m -6.35005,0.42833 c 3e-5,-0.0736 -0.3869,-0.28983 -0.85984,-0.48047 -0.47294,-0.19064 -1.26159,-0.52246 -1.75255,-0.73739 -1.15588,-0.506 -1.30268,-0.31976 -0.52739,0.66909 0.55643,0.70971 0.76648,0.79233 1.88301,0.74071 0.6912,-0.032 1.25675,-0.11833 1.25677,-0.19194 z m 0.8112,-2.65359 c 0.66191,-0.35424 0.65956,-1.23104 -0.004,-1.4416 -0.33618,-0.1067 -0.71195,0.0327 -1.07969,0.4004 -0.54268,0.54268 -0.5457,0.57798 -0.0797,0.93116 0.59201,0.44868 0.53972,0.44373 1.16323,0.11004 z m 3.05205,-2.25197 c 0.20022,-0.79776 0.072,-0.98576 -0.51803,-0.75935 -0.64778,0.24858 -0.53745,1.43313 0.13347,1.43313 0.1185,0 0.29155,-0.3032 0.38456,-0.67378 z m 0.90476,-3.02702 c -0.49269,-0.30449 -0.64742,-0.14977 -0.42634,0.42634 0.13577,0.35381 0.24342,0.38276 0.49349,0.13269 0.25007,-0.25007 0.23542,-0.37202 -0.0672,-0.55903 z m 5.59257,22.22163 c 0,-0.3638 0.06,-0.51263 0.13345,-0.33072 0.0734,0.1819 0.0734,0.47955 0,0.66145 -0.0734,0.18191 -0.13345,0.0331 -0.13345,-0.33073 z m 28.74858,-1.50917 c -0.82952,-0.41502 -2.73324,-2.50554 -3.32405,-3.6502 -0.22533,-0.43656 -0.62423,-0.94523 -0.88645,-1.13037 -0.26222,-0.18515 -0.66674,-0.5266 -0.89893,-0.75879 -0.23219,-0.23219 -1.032,-0.55759 -1.77736,-0.72311 -1.74641,-0.38781 -2.12834,-1.10945 -0.46942,-0.88694 0.62244,0.0835 1.20384,0.25583 1.29201,0.38299 0.0882,0.12715 0.39951,0.24568 0.69188,0.2634 0.29237,0.0177 0.70779,0.0715 0.92315,0.1196 0.29212,0.0652 0.36898,-0.11421 0.30263,-0.70636 -0.0489,-0.43657 -0.18336,-0.91282 -0.29877,-1.05834 -0.1773,-0.22354 -0.19032,-0.85287 -0.0371,-1.79524 0.0186,-0.11426 0.26197,-0.0856 0.54089,0.0637 0.50466,0.27008 0.57481,0.68741 0.63709,3.79009 0.0145,0.72109 0.11883,0.96227 0.37399,0.86435 0.19465,-0.0747 0.42133,0.0705 0.50373,0.32275 0.51874,1.58783 1.3944,2.81557 2.54213,3.56429 1.24373,0.81134 1.56637,1.36212 0.92605,1.58084 -0.18191,0.0621 -0.65054,-0.0471 -1.04142,-0.24261 z m -34.29577,-0.83506 c -0.2733,-0.17333 -0.21942,-0.43663 0.25639,-1.25272 0.33133,-0.56829 0.74335,-1.179 0.9156,-1.35713 0.17225,-0.17814 0.63266,-1.19017 1.02314,-2.24896 0.39048,-1.0588 0.77755,-2.10367 0.86016,-2.32196 0.0826,-0.21828 0.12428,-0.60604 0.0926,-0.8617 -0.0317,-0.25565 0.13166,-0.53744 0.36297,-0.62621 0.32811,-0.12591 0.35289,-0.24292 0.11271,-0.53232 -0.23861,-0.28751 -0.21038,-0.47865 0.12554,-0.84983 0.23836,-0.26339 0.43339,-0.61835 0.43339,-0.78879 0,-0.17044 0.12609,-0.3099 0.2802,-0.3099 0.15411,0 0.19838,-0.13237 0.0984,-0.29416 -0.1,-0.16179 -0.048,-0.37689 0.11565,-0.478 0.1636,-0.10111 0.36032,-0.81536 0.43715,-1.58723 0.0768,-0.77187 0.25589,-1.6205 0.3979,-1.88585 0.14202,-0.26536 0.26199,-0.75819 0.26662,-1.09517 0.005,-0.33699 0.18618,-0.84786 0.40344,-1.13528 0.32406,-0.42869 0.48357,-0.46727 0.88791,-0.21475 0.43678,0.27277 0.54146,0.18065 0.91948,-0.8092 0.23463,-0.61435 0.42659,-1.26185 0.42659,-1.43889 0,-0.17703 0.23813,-0.32188 0.52917,-0.32188 0.56377,0 0.75706,0.88625 0.26027,1.19329 -0.1479,0.0914 -0.19596,0.28421 -0.10681,0.42846 0.0891,0.14425 0.0236,0.59669 -0.14574,1.00543 -0.1693,0.40874 -0.48074,1.50288 -0.69208,2.43142 -0.3489,1.53289 -0.49869,2.52927 -0.73114,4.86327 -0.0435,0.43657 -0.16373,1.32953 -0.26723,1.98438 -0.1035,0.65484 -0.23137,1.68842 -0.28416,2.29685 -0.0528,0.60842 -0.18287,1.24681 -0.28907,1.41864 -0.1062,0.17183 -0.0378,0.40838 0.15195,0.52566 0.18977,0.11729 0.38287,0.46116 0.42911,0.76417 0.0661,0.43337 -0.0567,0.55093 -0.57572,0.55093 -0.38758,0 -0.6598,0.15206 -0.6598,0.36857 0,0.38163 -0.76354,0.80816 -1.0084,0.56331 -0.0764,-0.0764 0.006,-0.70428 0.18323,-1.39529 0.17717,-0.69101 0.38204,-1.73263 0.45527,-2.31472 0.0732,-0.58208 0.24581,-1.48728 0.38352,-2.01156 0.13771,-0.52427 0.30252,-1.66257 0.36625,-2.52954 0.0637,-0.86697 0.13749,-1.68817 0.16391,-1.82489 0.0264,-0.13673 0.0201,-0.60578 -0.014,-1.04234 -0.0441,-0.56481 -0.0959,-0.64112 -0.17934,-0.26458 -0.0645,0.29104 -0.40329,1.3626 -0.75283,2.38125 -0.34953,1.01864 -0.71487,2.3581 -0.81185,2.97656 -0.097,0.61846 -0.28018,1.12448 -0.4071,1.12448 -0.12693,0 -0.20101,0.0966 -0.16463,0.21471 0.0364,0.11808 -0.25185,0.86222 -0.64051,1.65364 -0.38867,0.79142 -0.88793,1.85942 -1.10947,2.37334 -0.22155,0.51392 -0.64769,1.21674 -0.94699,1.56183 -0.29929,0.3451 -0.54417,0.78782 -0.54417,0.98384 0,0.3993 -0.48353,0.46113 -1.0075,0.12882 z m 7.3575,-16.15496 c 0,-0.13362 0.0818,-0.46104 0.18183,-0.7276 0.16006,-0.42664 0.12839,-0.44119 -0.26459,-0.12154 -0.48807,0.39702 -0.6038,1.09208 -0.18183,1.09208 0.14553,0 0.26459,-0.10932 0.26459,-0.24294 z m 14.83763,9.54746 c -0.15705,-0.0485 -0.28555,-0.26544 -0.28555,-0.48206 0,-0.32399 0.26989,-0.3619 1.52136,-0.21365 0.83674,0.0991 1.68312,0.33323 1.88083,0.52026 0.29492,0.27897 0.0729,0.33319 -1.2358,0.30185 -0.87741,-0.021 -1.72379,-0.0779 -1.88084,-0.1264 z m -48.04284,-0.30868 c -0.26299,-0.42553 0.11248,-0.79375 0.80937,-0.79375 0.46945,0 0.64584,0.14452 0.64584,0.52916 0,0.38465 -0.17639,0.52917 -0.64584,0.52917 -0.35522,0 -0.71943,-0.11906 -0.80937,-0.26458 z m 53.9877,-0.7732 c -0.0829,-0.13422 -0.13591,-0.7593 -0.11768,-1.38906 0.0182,-0.62977 -0.10444,-1.49314 -0.2726,-1.9186 -0.16815,-0.42546 -0.22853,-1.12509 -0.13416,-1.55472 0.13916,-0.63362 0.0422,-0.89233 -0.51355,-1.36984 -0.37681,-0.32379 -0.60784,-0.66596 -0.51342,-0.76039 0.0944,-0.0944 0.0231,-0.17169 -0.1586,-0.17169 -0.32094,0 -2.60641,-1.71732 -2.993,-2.24896 -0.10582,-0.14552 -0.12757,-0.47294 -0.0483,-0.7276 0.0792,-0.25467 0.017,-0.46303 -0.13833,-0.46303 -0.15533,0 -0.2841,-0.20835 -0.28615,-0.46302 -0.006,-0.78099 -1.89219,-2.53694 -3.62307,-3.37343 -1.93249,-0.93393 -2.2663,-1.71979 -0.73052,-1.71979 0.58646,0 0.99105,0.14777 1.08664,0.39687 0.0838,0.21828 0.31894,0.39688 0.52262,0.39688 0.20367,0 0.62912,0.29765 0.94544,0.66145 0.31633,0.36381 0.68341,0.66146 0.81574,0.66146 0.31352,0 1.2313,1.10271 1.24267,1.49305 0.005,0.16633 0.15876,0.35997 0.34205,0.4303 0.18328,0.0703 0.48048,0.67838 0.66044,1.35122 0.25324,0.94684 0.44891,1.22335 0.86568,1.22335 0.29617,0 0.61083,0.20836 0.69925,0.46302 0.0884,0.25466 0.79109,1.11786 1.56148,1.91823 l 1.40072,1.45521 0.0418,2.64583 c 0.023,1.45521 0.031,2.79466 0.0177,2.97656 -0.0281,0.38587 -0.45405,0.44075 -0.67286,0.0867 z m 0.38417,-5.46013 c 0,-0.22686 -0.121,-0.3377 -0.26889,-0.2463 -0.1479,0.0914 -0.2004,0.27703 -0.11668,0.41249 0.22681,0.36699 0.38557,0.29856 0.38557,-0.16619 z"
       id="path29" />
  </g>
</svg>
