<?xml version="1.0" encoding="UTF-8" standalone="no"?>
<!-- Created with Inkscape (http://www.inkscape.org/) -->

<svg
   width="153.73152mm"
   height="78.619743mm"
   viewBox="0 0 153.73152 78.619749"
   version="1.1"
   id="svg1"
   inkscape:version="1.4.1-rc (06eac75fbf, 2025-03-29)"
   sodipodi:docname="mount16a.svg"
   xmlns:inkscape="http://www.inkscape.org/namespaces/inkscape"
   xmlns:sodipodi="http://sodipodi.sourceforge.net/DTD/sodipodi-0.dtd"
   xmlns="http://www.w3.org/2000/svg"
   xmlns:svg="http://www.w3.org/2000/svg">
  <sodipodi:namedview
     id="namedview1"
     pagecolor="#ffffff"
     bordercolor="#000000"
     borderopacity="0.25"
     inkscape:showpageshadow="2"
     inkscape:pageopacity="0.0"
     inkscape:pagecheckerboard="0"
     inkscape:deskcolor="#d1d1d1"
     inkscape:document-units="mm"
     inkscape:zoom="0.72248176"
     inkscape:cx="290.66478"
     inkscape:cy="148.79268"
     inkscape:window-width="1850"
     inkscape:window-height="1016"
     inkscape:window-x="0"
     inkscape:window-y="0"
     inkscape:window-maximized="1"
     inkscape:current-layer="layer1" />
  <defs
     id="defs1" />
  <g
     inkscape:label="Layer 1"
     inkscape:groupmode="layer"
     id="layer1"
     transform="translate(-29.368733,-109.00866)">
    <path
       style="fill:#000000"
       d="m 44.251553,187.48657 c -0.400037,-0.16142 -0.443648,-0.8831 -0.05336,-0.8831 0.15255,0 0.747404,-0.2271 1.321897,-0.50467 0.574493,-0.27756 1.287876,-0.44102 1.585296,-0.36325 0.511113,0.13366 0.516174,0.16859 0.0923,0.63696 -0.246652,0.27255 -0.617104,0.49554 -0.823226,0.49554 -0.206121,0 -0.55336,0.17859 -0.771641,0.39687 -0.403402,0.40341 -0.757064,0.46142 -1.351266,0.22165 z m 6.33408,-1.0808 c 0.07369,-0.38264 0.395921,-0.46611 1.870395,-0.48446 1.549107,-0.0193 1.887132,-0.11642 2.592548,-0.74495 0.446149,-0.39752 0.944675,-0.67827 1.107834,-0.62388 0.16316,0.0544 0.613454,-0.25568 1.000654,-0.68903 0.466772,-0.52241 0.851664,-0.73124 1.142213,-0.61975 0.638445,0.24499 0.544062,0.58481 -0.421683,1.5182 -0.981951,0.94906 -2.262913,1.57698 -3.217033,1.57698 -0.359887,0 -0.727926,0.11906 -0.817863,0.26459 -0.08994,0.14552 -0.8796,0.26458 -1.754807,0.26458 -1.37212,0 -1.579023,-0.0637 -1.502258,-0.46228 z m 14.125632,-1.35639 c -0.239673,-0.3878 0.790787,-1.35633 1.443056,-1.35633 0.295716,0 0.920794,-0.15497 1.389063,-0.34438 0.955327,-0.38642 1.777439,-0.30718 1.777439,0.17132 0,0.30303 -1.559353,1.28493 -2.205702,1.38889 -0.169312,0.0272 -0.740689,0.13269 -1.269727,0.23435 -0.587816,0.11296 -1.028871,0.0765 -1.134129,-0.0938 z m 6.533461,-0.49247 c -0.181465,-0.47289 0.578562,-1.12844 1.308277,-1.12844 0.266864,0 1.166842,-0.24368 1.999951,-0.54151 0.833109,-0.29782 1.891567,-0.59345 2.35213,-0.65695 1.547584,-0.21337 4.851156,-1.42318 4.851156,-1.77655 0,-0.11 0.124278,-0.19999 0.276173,-0.19999 0.151896,0 0.993726,-0.59716 1.870733,-1.32701 1.508056,-1.25502 2.086427,-1.44664 2.086427,-0.69126 0,0.90661 -3.947937,3.17867 -8.334375,4.79647 -0.727604,0.26835 -1.441979,0.56929 -1.5875,0.66875 -0.240921,0.16467 -1.433112,0.4979 -3.787795,1.05873 -0.683504,0.1628 -0.912248,0.11811 -1.035177,-0.20224 z m -1.273324,-1.41063 c -0.09592,-0.1552 -0.132713,-0.31975 -0.08176,-0.36566 0.350154,-0.31552 2.79504,-1.25363 3.364296,-1.2909 1.197947,-0.0784 0.784946,0.62424 -0.758114,1.28981 -1.611744,0.6952 -2.262954,0.78981 -2.524422,0.36675 z m -40.602661,-7.08667 c 0,-0.62939 0.735844,-2.21204 1.771341,-3.80979 0.913099,-1.4089 1.295163,-1.78594 1.809725,-1.78594 0.82669,0 0.824298,0.31628 -0.0092,1.21563 -0.363802,0.39255 -0.661458,0.8622 -0.661458,1.04366 0,0.18146 -0.16593,0.3936 -0.368734,0.47143 -0.202803,0.0778 -0.672466,0.80493 -1.043695,1.6158 -0.397432,0.86811 -0.844168,1.47432 -1.086475,1.47432 -0.226332,0 -0.411512,-0.1013 -0.411512,-0.22511 z m 59.132848,-0.30653 c -0.09078,-0.14688 0.211229,-0.4743 0.671122,-0.7276 0.459893,-0.25331 1.257884,-0.78798 1.773314,-1.18816 0.515429,-0.40018 1.07515,-0.7276 1.243824,-0.7276 0.168673,0 0.539255,-0.17547 0.823514,-0.38994 2.473728,-1.86634 3.234078,-2.35892 3.691838,-2.39169 0.40756,-0.0292 0.55956,-0.27633 0.66145,-1.07553 0.19716,-1.54643 0.87009,-1.38313 1.10634,0.26847 0.2288,1.59954 0.14071,1.76111 -0.85201,1.56257 -0.49683,-0.0994 -0.78349,-0.0478 -0.78349,0.14096 0,0.16371 -0.13134,0.29766 -0.29186,0.29766 -0.16052,0 -0.85928,0.50601 -1.5528,1.12447 -1.247302,1.11232 -5.239072,3.37344 -5.95544,3.37344 -0.203915,0 -0.445026,-0.12017 -0.535802,-0.26705 z m -52.518265,-0.60704 c 0,-1.51608 2.726961,-5.43987 3.558773,-5.12067 0.642572,0.24658 0.483129,0.94029 -0.383773,1.66974 -0.436563,0.36734 -0.79375,0.77637 -0.79375,0.90896 0,0.13258 -0.231484,0.47255 -0.514409,0.75547 -0.282925,0.28293 -0.593832,0.93777 -0.690904,1.45521 -0.128251,0.68363 -0.313093,0.9408 -0.676216,0.9408 -0.345289,0 -0.499721,-0.18836 -0.499721,-0.60951 z m 14.434417,-0.11765 c -0.144796,-0.65925 -0.05426,-1.70174 0.258535,-2.97701 0.01785,-0.0728 0.126012,-0.58009 0.240367,-1.1274 0.114355,-0.54731 0.313484,-1.06035 0.442508,-1.14009 0.129024,-0.0797 0.234589,-0.43562 0.234589,-0.79083 0,-0.35522 0.119063,-0.64584 0.264583,-0.64584 0.145521,0 0.264584,-0.14897 0.264584,-0.33104 0,-0.60423 2.421763,-3.60935 3.350117,-4.15709 0.502405,-0.29643 0.940863,-0.53896 0.974352,-0.53896 0.03349,0 0.08782,0.35339 0.120729,0.78532 0.04605,0.60437 -0.108631,0.89316 -0.671326,1.25334 -0.948481,0.60713 -1.392622,1.03756 -1.392622,1.34963 0,0.1381 -0.178594,0.3993 -0.396875,0.58046 -0.218282,0.18116 -0.396875,0.54019 -0.396875,0.79784 0,0.25766 -0.178594,0.537 -0.396875,0.62076 -0.218282,0.0838 -0.396875,0.34313 -0.396875,0.57637 0,0.23324 -0.16773,0.59181 -0.372733,0.79681 -0.205003,0.20501 -0.453772,0.88111 -0.55282,1.50246 -0.189665,1.18981 -0.79859,3.19705 -1.172635,3.86543 -0.167911,0.30004 -0.264876,0.19837 -0.400728,-0.42016 z m 11.147483,0.55628 c -0.350322,-0.35032 -0.17602,-1.6633 0.510532,-3.84572 0.764917,-2.43152 0.867462,-2.77721 0.908848,-3.06378 0.03542,-0.24526 1.954902,-4.11243 2.657994,-5.35504 0.288184,-0.50932 0.750193,-1.40229 1.026687,-1.98437 0.276494,-0.58209 0.92667,-1.46865 1.444835,-1.97014 l 0.94212,-0.91179 -0.0032,0.7795 c -0.0018,0.42873 -0.31407,1.31529 -0.694037,1.97013 -2.684328,4.62623 -4.063519,7.34535 -4.073691,8.03143 -0.0046,0.31214 -0.183222,0.79865 -0.396875,1.08112 -0.213653,0.28248 -0.38846,0.82421 -0.38846,1.20386 0,0.37964 -0.142875,0.83314 -0.3175,1.00776 -0.174625,0.17463 -0.241407,0.3175 -0.148404,0.3175 0.260493,0 -0.729631,2.73567 -1.025863,2.83441 -0.143604,0.0479 -0.342953,0.005 -0.442999,-0.0949 z m -20.320702,-0.66962 c -0.09816,-1.98038 0.735997,-3.67749 2.804377,-5.70559 1.610233,-1.57887 2.517758,-2.05376 2.517758,-1.31749 0,0.18618 -0.625078,0.99171 -1.389063,1.79007 -2.030306,2.12164 -2.681892,3.15103 -2.837668,4.48299 -0.0996,0.85164 -0.269878,1.21266 -0.601915,1.27617 -0.327529,0.0627 -0.471936,-0.0913 -0.493489,-0.52615 z m 12.730468,-0.4474 c 0,-0.58417 0.119063,-1.13571 0.264583,-1.22564 0.145521,-0.0899 0.264584,-0.39094 0.264584,-0.6689 0,-1.28809 1.96585,-6.15408 3.598533,-8.90731 0.808123,-1.36275 3.280633,-3.52311 3.280633,-2.86645 0,0.55503 -0.449674,1.43449 -1.098621,2.14865 -0.895145,0.9851 -3.959997,6.9831 -4.110853,8.04505 -0.05168,0.3638 -0.215625,0.90156 -0.364322,1.19502 -0.148697,0.29346 -0.421683,1.12675 -0.606637,1.85177 -0.216315,0.84796 -0.495318,1.34884 -0.78209,1.40407 -0.358246,0.069 -0.44581,-0.12276 -0.44581,-0.97626 z m -7.494133,-0.33454 c -0.193649,-0.74052 2.258659,-5.80475 3.430118,-7.0835 0.479343,-0.52325 1.036842,-1.17906 1.238888,-1.45736 0.227066,-0.31277 0.53353,-0.44225 0.802491,-0.33904 0.635832,0.24399 0.54981,0.51637 -0.604097,1.91275 -0.571579,0.69169 -1.11341,1.55316 -1.204069,1.91438 -0.09066,0.36121 -0.575504,1.19459 -1.077433,1.85194 -0.501929,0.65736 -0.912598,1.40917 -0.912598,1.6707 0,0.26153 -0.119063,0.54909 -0.264583,0.63903 -0.145521,0.0899 -0.264584,0.38188 -0.264584,0.64876 0,0.26689 -0.188331,0.55752 -0.418514,0.64585 -0.575006,0.22065 -0.560252,0.22885 -0.725619,-0.40351 z m 19.466529,0.10948 c -0.482417,-0.17305 -0.406565,-1.19449 0.237628,-3.19995 1.100391,-3.42568 3.143419,-7.95516 3.863413,-8.56535 0.181901,-0.15415 0.330729,-0.4443 0.330729,-0.64476 0,-0.20047 0.09339,-0.36448 0.207538,-0.36448 0.114145,0 0.403487,-0.33172 0.642982,-0.73715 1.050727,-1.77874 3.480095,-3.76932 3.984547,-3.26487 0.19772,0.19772 -0.06458,0.66011 -0.88818,1.5657 -1.820956,2.00223 -2.62397,2.99906 -2.62397,3.25727 0,0.13056 -0.178594,0.23738 -0.396875,0.23738 -0.218281,0 -0.396875,0.21025 -0.396875,0.46722 0,0.25697 -0.47625,1.28221 -1.058333,2.2783 -0.582084,0.99609 -1.058334,2.08588 -1.058334,2.42176 0,0.33587 -0.178112,0.94774 -0.395805,1.35972 -0.325893,0.61674 -1.146538,2.47978 -1.320582,2.998 -0.02444,0.0728 -0.137993,0.58009 -0.252349,1.1274 -0.224704,1.07545 -0.365651,1.24671 -0.875534,1.06381 z m 14.584115,-0.72949 c -0.09497,-0.24748 -0.04196,-0.87585 0.117794,-1.39637 0.159754,-0.52053 0.236922,-1.03304 0.171485,-1.13892 -0.06544,-0.10588 0.296865,-1.224 0.805116,-2.48472 0.508252,-1.26072 0.924827,-2.43436 0.925724,-2.6081 8.96e-4,-0.17375 0.178858,-0.65571 0.39547,-1.07104 0.216613,-0.41533 0.335964,-0.84879 0.265225,-0.96325 -0.07074,-0.11446 0.168019,-0.40246 0.530571,-0.64002 0.362553,-0.23755 0.659187,-0.60041 0.659187,-0.80636 0,-0.20595 0.357798,-0.76618 0.795106,-1.24498 0.437309,-0.47879 0.862051,-1.08145 0.943872,-1.33924 0.08182,-0.2578 0.232728,-0.46872 0.335351,-0.46872 0.102622,0 0.411004,-0.41672 0.685293,-0.92604 0.546839,-1.01542 0.944544,-1.19915 0.944544,-0.43636 0,0.72386 -0.544466,2.15615 -0.819632,2.15615 -0.131286,0 -0.23898,0.14883 -0.239322,0.33073 -3.41e-4,0.1819 -0.359421,0.74745 -0.797955,1.25677 -0.438534,0.50932 -1.043814,1.40229 -1.345067,1.98438 -0.301254,0.58208 -0.735391,1.41552 -0.964751,1.85208 -0.816152,1.55346 -0.883744,1.75846 -0.734668,2.22815 0.08296,0.2614 -0.02279,0.61937 -0.234999,0.79549 -0.212213,0.17612 -0.468239,0.69894 -0.568947,1.16183 -0.100708,0.46289 -0.346486,1.07647 -0.546174,1.36351 -0.199687,0.28704 -0.363068,0.89754 -0.363068,1.35666 0,1.00425 -0.687809,1.74809 -0.960155,1.03837 z m -4.201736,-0.44683 c -0.09212,-0.24005 0.01959,-0.98748 0.248245,-1.66096 0.228651,-0.67348 0.415841,-1.36917 0.415978,-1.54599 3.65e-4,-0.47328 2.632532,-5.57722 4.027812,-7.81019 1.043137,-1.66941 2.815056,-3.46072 3.446419,-3.48414 0.549315,-0.0204 0.05911,0.9902 -1.124479,2.31816 -0.727605,0.81635 -1.322917,1.63911 -1.322917,1.82834 0,0.18923 -0.186497,0.55242 -0.414439,0.80708 -0.787194,0.87947 -1.928737,2.82411 -1.789788,3.04894 0.07667,0.12405 -0.039,0.42641 -0.257049,0.6719 -0.218046,0.24549 -0.694996,1.16085 -1.05989,2.03414 -1.233266,2.95152 -1.987084,4.26911 -2.169892,3.79272 z m -5.21592,-0.14103 c -0.145257,-0.28686 -0.08534,-0.60529 0.279669,-1.48639 0.169708,-0.40966 0.308559,-0.9011 0.308559,-1.09209 0,-0.19099 0.178594,-0.49547 0.396875,-0.67663 0.218281,-0.18116 0.396875,-0.48923 0.396875,-0.68461 0,-0.49452 0.741065,-2.751 1.165456,-3.54872 0.193545,-0.3638 0.304186,-0.79242 0.245868,-0.95248 -0.05832,-0.16006 0.07653,-0.44253 0.299656,-0.62771 0.223128,-0.18518 0.405687,-0.5007 0.405687,-0.70117 0,-0.20046 0.119062,-0.36447 0.264583,-0.36447 0.145521,0 0.264583,-0.10868 0.264583,-0.24149 0,-0.13282 0.413857,-0.8699 0.919683,-1.63796 0.505825,-0.76806 0.853804,-1.46235 0.773285,-1.54287 -0.288796,-0.28879 -2.222134,2.07786 -2.222134,2.72018 0,0.39206 -0.257056,0.80971 -0.661459,1.07468 -0.43582,0.28556 -0.662545,0.67953 -0.664645,1.15491 -0.0018,0.39683 -0.283898,1.21236 -0.62699,1.81231 -0.343091,0.59994 -0.765095,1.6715 -0.937785,2.38125 -0.366186,1.505 -0.913972,2.34901 -1.349766,2.07967 -0.338186,-0.20901 -0.304365,-0.42038 0.526541,-3.29073 0.648415,-2.23994 1.604339,-4.59931 1.916591,-4.73044 0.115507,-0.0485 0.213968,-0.28663 0.218803,-0.52917 0.01741,-0.87342 1.429025,-2.5331 2.379977,-2.79821 0.505188,-0.14084 0.978056,-0.33943 1.050816,-0.44131 0.221087,-0.30959 2.129765,-0.75169 2.549643,-0.59057 0.315022,0.12089 0.254159,0.29645 -0.305161,0.88025 -0.384265,0.40109 -1.005056,1.30826 -1.379536,2.01593 -1.578476,2.98295 -1.907161,3.69197 -1.915005,4.13096 -0.0046,0.25466 -0.128884,0.46302 -0.276296,0.46302 -0.344089,0 -1.558487,2.7653 -1.975287,4.49792 -0.05251,0.21828 -0.378203,0.92449 -0.723763,1.56936 -0.615146,1.14797 -1.110702,1.58043 -1.325323,1.15658 z m -11.813296,-1.60146 c 0.126586,-0.69123 0.394774,-1.61396 0.595973,-2.05052 1.119101,-2.42823 1.486801,-3.37177 1.486801,-3.81523 0,-0.27158 0.18614,-0.56521 0.413645,-0.65251 0.227505,-0.0873 0.344838,-0.27007 0.260741,-0.40614 -0.0841,-0.13607 0.05718,-0.31578 0.31396,-0.39935 0.256774,-0.0836 0.980236,-0.85758 1.607693,-1.72001 1.384235,-1.90263 1.785986,-2.27187 2.03445,-1.86985 0.188374,0.30479 -0.499904,1.98496 -0.919323,2.24418 -0.774916,0.47892 -4.240332,6.9389 -4.240332,7.90452 0,0.57391 -1.053273,2.02168 -1.470807,2.02168 -0.229268,0 -0.25141,-0.33608 -0.0828,-1.25677 z m 41.234561,-0.74483 c -0.34235,-0.90045 -0.33986,-0.90882 0.27113,-0.90882 0.41157,0 0.52916,0.17639 0.52916,0.79375 0,0.97201 -0.44989,1.03669 -0.80029,0.11507 z m -15.868454,-1.99166 c 0,-0.75957 0.9848,-4.00935 1.676314,-5.53174 0.329934,-0.72636 1.18845,-2.04195 1.679791,-2.57411 0.172368,-0.18669 0.388751,-0.57686 0.480851,-0.86704 0.0921,-0.29018 0.280419,-0.5276 0.418488,-0.5276 0.138069,0 0.447257,-0.41149 0.687086,-0.91441 0.467934,-0.98127 0.907223,-1.27608 1.539762,-1.03336 0.600089,0.23028 0.481724,0.6619 -0.464285,1.69303 -1.064669,1.16046 -1.784287,2.24552 -1.785898,2.69283 -6.73e-4,0.18702 -0.357861,0.72053 -0.79375,1.18558 -0.435889,0.46505 -0.792526,1.13121 -0.792526,1.48035 0,0.34914 -0.238125,0.8503 -0.529166,1.11369 -0.291042,0.26339 -0.529167,0.75942 -0.529167,1.1023 0,0.67928 -1.06819,2.97972 -1.389062,2.99147 -0.109141,0.004 -0.198438,-0.36095 -0.198438,-0.81099 z m 15.474924,-0.25903 c -0.219539,-1.29941 -0.237269,-2.87148 -0.0347,-3.07408 0.081,-0.081 0.34093,-0.073 0.57755,0.0178 0.34647,0.13296 0.40474,0.43547 0.29934,1.55404 -0.072,0.76393 -0.0121,1.53257 0.13313,1.70809 0.314,0.37955 0.0683,0.87149 -0.43535,0.87149 -0.21253,0 -0.43196,-0.43775 -0.54001,-1.07729 z m 4.5387,0.61427 c -0.54652,-1.94102 -0.42361,-4.56406 0.21385,-4.56406 0.3386,0 0.88001,3.32166 0.72235,4.43177 -0.1,0.70403 -0.74938,0.7958 -0.9362,0.13229 z m 3.22875,-0.52917 c -0.48113,-0.83422 -1.30705,-4.44475 -1.33066,-5.81701 -0.002,-0.11124 -0.1083,-0.39812 -0.23641,-0.6375 -0.15535,-0.29028 -0.10924,-0.53789 0.13844,-0.74345 0.29983,-0.24884 0.44508,-0.1395 0.75392,0.56753 0.43353,0.9925 0.89771,2.61164 1.08542,3.78616 0.0698,0.43656 0.23238,1.27307 0.36135,1.85891 0.38313,1.74038 -0.0315,2.2695 -0.77206,0.98536 z m -32.092193,-1.63144 c -0.18558,-0.30028 0.250543,-1.49652 0.631416,-1.73191 0.154497,-0.0955 0.280903,-0.40471 0.280903,-0.68716 0,-0.28245 0.0893,-0.51492 0.198438,-0.51659 0.10914,-0.002 0.430311,-0.48688 0.713712,-1.07825 0.670114,-1.39831 2.888769,-3.68121 3.577617,-3.68121 0.847735,0 0.648221,0.46461 -1.007348,2.34584 -1.437747,1.63371 -3.482419,4.76978 -3.482419,5.34125 0,0.32092 -0.715055,0.32721 -0.912319,0.008 z m 14.141486,-0.81561 c 0,-2.19634 2.321992,-7.55087 3.951344,-9.11183 0.737214,-0.70627 0.811154,-0.72806 0.811154,-0.23908 0,0.66175 -0.559081,1.80493 -1.743428,3.56486 -0.496322,0.73753 -0.902404,1.61963 -0.902404,1.96022 0,0.34059 -0.119062,0.69284 -0.264583,0.78278 -0.145521,0.0899 -0.264583,0.43034 -0.264583,0.75644 0,0.32611 -0.115166,0.7081 -0.255925,0.84886 -0.140758,0.14075 -0.352629,0.72136 -0.470823,1.29024 -0.302209,1.45454 -0.860752,1.55026 -0.860752,0.14751 z M 111.17162,165.113 c -0.17116,-0.17116 -0.3112,-0.47977 -0.3112,-0.6858 0,-0.42276 -0.749,-2.85024 -1.09564,-3.55087 -0.37519,-0.75838 -0.27269,-1.78953 0.17789,-1.78953 0.22286,0 0.46967,0.20836 0.54849,0.46302 0.0788,0.25466 0.23853,0.64552 0.35493,0.86858 0.11639,0.22306 0.29751,0.79662 0.40249,1.27459 0.10498,0.47797 0.35751,1.18844 0.56118,1.57882 0.46522,0.89168 0.4727,1.48877 0.0233,1.86171 -0.25577,0.21227 -0.4342,0.20674 -0.66146,-0.0205 z m 12.98122,-1.20263 c -1.64768,-1.74512 -2.37057,-2.75552 -3.47597,-4.85848 -0.64009,-1.21773 -1.3247,-2.40202 -1.52136,-2.63176 -0.19665,-0.22974 -0.35755,-0.55716 -0.35755,-0.7276 0,-0.37876 -0.43689,-0.40869 -0.66146,-0.0453 -0.0899,0.14553 -0.40736,0.26459 -0.70538,0.26459 -0.40954,0 -0.49709,-0.11308 -0.3585,-0.46302 0.10086,-0.25466 0.23065,-0.70115 0.28843,-0.99219 0.0578,-0.29104 0.17606,-0.85659 0.26284,-1.25677 0.34623,-1.59669 -0.60208,-0.48684 -1.40252,1.64143 -0.28144,0.74832 0.40368,2.94279 1.4271,4.57102 0.34117,0.54281 0.62032,1.05365 0.62032,1.13519 0,0.0815 0.24996,0.48635 0.55546,0.89957 0.45467,0.61497 0.50099,0.85307 0.25527,1.3122 -0.1651,0.3085 -0.3943,0.5609 -0.50934,0.5609 -0.31349,0 -1.35973,-1.17925 -1.35973,-1.5326 0,-0.16933 -0.42349,-1.21241 -0.94109,-2.31796 -0.70388,-1.50343 -1.02291,-1.94219 -1.26566,-1.74073 -0.19797,0.1643 -0.47446,0.17671 -0.70891,0.0318 -0.31586,-0.19521 -0.32874,-0.38489 -0.0722,-1.06441 0.18031,-0.47768 0.247,-1.37657 0.15794,-2.12857 -0.14731,-1.24382 -0.12563,-1.30171 0.48761,-1.30171 0.56104,0 0.72287,-0.24133 1.2863,-1.91822 0.35449,-1.05503 0.79665,-2.15309 0.98258,-2.44013 0.18593,-0.28704 0.33807,-0.99185 0.33807,-1.56625 v -1.04435 l -0.9989,1.11472 c -0.76526,0.854 -1.2705,1.90105 -2.16009,4.47667 -1.07282,3.10607 -1.72397,4.28798 -2.36237,4.28798 -0.25858,0 0.22655,-2.5278 0.60159,-3.13463 0.4374,-0.70773 1.16471,-3.74475 0.93132,-3.88898 -0.35808,-0.22131 -0.29906,-0.64931 0.0895,-0.64931 0.18396,0 0.54384,-0.48327 0.79974,-1.07395 0.3348,-0.77281 0.60103,-1.05102 0.94946,-0.99218 0.6032,0.10186 2.65356,-1.53701 2.97253,-2.37599 0.17657,-0.46439 0.40416,-0.60106 0.89539,-0.53767 0.43181,0.0557 0.98665,-0.18836 1.61104,-0.70875 0.52381,-0.43656 1.06058,-0.80863 1.19281,-0.82682 0.13224,-0.0182 0.37107,-0.048 0.53074,-0.0661 0.52456,-0.0598 3.94302,-3.54867 3.94302,-4.02428 0,-0.25565 0.9525,-1.42891 2.11667,-2.60724 1.2591,-1.27443 2.11667,-2.36191 2.11667,-2.68417 0,-0.79425 0.48454,-1.56581 0.88647,-1.41158 0.55859,0.21436 1.39034,-0.68165 2.40407,-2.58978 1.09479,-2.06072 1.12184,-2.2179 0.41362,-2.4031 -0.29104,-0.0761 -0.52916,-0.32928 -0.52916,-0.56261 0,-0.23333 0.23812,-0.62813 0.52916,-0.87733 0.29425,-0.25194 0.52917,-0.7805 0.52917,-1.19062 0,-0.41012 0.23491,-0.93868 0.52917,-1.19063 0.29104,-0.24919 0.52916,-0.65501 0.52916,-0.90181 0,-0.72789 0.29524,-1.28575 0.68046,-1.28575 0.19759,0 0.47575,-0.21767 0.61813,-0.4837 0.15974,-0.29849 0.82182,-0.60969 1.7291,-0.81273 0.80862,-0.18096 1.47067,-0.40978 1.47122,-0.50849 5.5e-4,-0.0987 0.56609,-0.39732 1.25677,-0.6636 2.37136,-0.91424 3.50474,-1.53533 3.50474,-1.92061 0,-0.16219 0.35719,-0.66865 0.79375,-1.12547 0.43656,-0.45682 0.79419,-0.9805 0.79474,-1.16372 0.002,-0.7726 1.08712,-2.02014 2.24339,-2.57989 0.68077,-0.32955 1.43654,-0.79771 1.6795,-1.04035 0.64392,-0.64308 1.7596,-1.06235 2.16319,-0.81292 0.1924,0.11891 0.75106,0.15108 1.24148,0.0715 0.52808,-0.0857 1.29256,0.0234 1.87479,0.26763 0.54072,0.22677 1.36148,0.56593 1.82393,0.75369 0.46245,0.18775 0.80129,0.4054 0.75299,0.48366 -0.0483,0.0783 0.22452,0.16109 0.60627,0.18407 0.38175,0.023 0.73744,0.1718 0.79041,0.33073 0.053,0.15892 0.20864,0.28896 0.34591,0.28896 0.13727,0 0.63336,0.34511 1.10243,0.76691 0.46906,0.4218 1.37736,1.16594 2.01843,1.65365 0.64107,0.4877 1.29166,1.12485 1.44575,1.4159 0.56956,1.07579 1.86879,2.91691 2.20312,3.122 0.1897,0.11637 0.34674,0.41402 0.34897,0.66146 0.003,0.30684 0.068,0.34931 0.20512,0.13359 0.1423,-0.22384 0.49864,-0.24916 1.21923,-0.0866 1.34411,0.30314 2.6164,1.68145 3.21041,3.47792 0.79933,2.41743 1.72104,3.61852 3.54917,4.62501 0.86646,0.47703 1.78945,1.16317 2.54394,1.89114 0.18853,0.1819 0.47654,0.33072 0.64003,0.33072 0.16348,0 0.42176,0.35719 0.57394,0.79375 0.15219,0.43657 0.43419,0.79375 0.62668,0.79375 0.19248,0 0.42723,0.35179 0.52167,0.78176 0.0944,0.42997 0.37179,0.84981 0.61633,0.93298 0.24455,0.0832 0.77206,0.44005 1.17224,0.79305 1.20736,1.06503 0.82975,2.166 -0.40876,1.19179 -0.36817,-0.2896 -0.94283,-0.49634 -1.27703,-0.45941 -0.41526,0.0459 -0.64034,-0.0909 -0.71096,-0.43194 -0.30783,-1.48676 -3.48975,-5.4534 -4.37489,-5.45382 -0.26829,-1.3e-4 -0.54452,-0.2086 -0.61385,-0.46326 -0.0693,-0.25466 -0.56462,-0.66717 -1.10064,-0.91668 -1.04167,-0.48488 -1.65079,-1.41721 -2.21008,-3.3828 -0.60288,-2.11876 -1.46586,-3.13844 -3.04457,-3.59738 -0.76981,-0.2238 -1.51253,-0.33714 -1.65048,-0.25188 -0.31815,0.19663 -1.53274,-1.46411 -2.56179,-3.50282 -1.23904,-2.45473 -6.88335,-5.87801 -10.32749,-6.26362 -0.55079,-0.0617 -0.54192,0.004 0.34235,2.54933 0.49928,1.43695 0.84684,2.71125 0.77235,2.83177 -0.0745,0.12053 0.0356,0.44504 0.24455,0.72114 0.47142,0.6228 0.50881,1.42907 0.0661,1.42501 -0.30557,-0.003 -1.35611,-1.85612 -1.41463,-2.49564 -0.0141,-0.1537 -0.11479,-0.51758 -0.22382,-0.80862 -0.10904,-0.29104 -0.26467,-0.70776 -0.34584,-0.92604 -0.0812,-0.21828 -0.1935,-0.66934 -0.24961,-1.00235 -0.15805,-0.93795 -0.57386,-1.90807 -0.81783,-1.90807 -0.70377,0 -1.10319,0.69859 -0.94548,1.65365 0.0901,0.5457 0.26733,0.99219 0.39381,0.99219 0.12648,0 0.22996,0.17179 0.22996,0.38175 0,0.20996 0.23042,0.77551 0.51205,1.25677 0.28162,0.48126 0.65549,1.45071 0.83083,2.15432 0.17534,0.70362 0.4807,1.34144 0.67858,1.41737 0.19789,0.0759 0.35979,0.35882 0.35979,0.62862 0,0.2698 0.22499,0.70355 0.49998,0.96388 0.58875,0.55737 0.61138,1.79625 0.0328,1.79625 -0.21628,0 -0.439,-0.23761 -0.49493,-0.52801 -0.0559,-0.29041 -0.32545,-0.81248 -0.59894,-1.16016 -0.27349,-0.34769 -0.49725,-0.91749 -0.49725,-1.26624 0,-0.34874 -0.18039,-0.7033 -0.40087,-0.78791 -0.22048,-0.0846 -0.68161,-0.74043 -1.02473,-1.45738 -0.54739,-1.14376 -0.64298,-1.23046 -0.77981,-0.70723 -0.0892,0.34095 -0.0186,0.68121 0.16484,0.79455 0.17643,0.10902 0.32554,0.76881 0.33136,1.46619 0.006,0.69737 0.12174,1.44587 0.25759,1.66332 0.13586,0.21745 0.26179,0.51443 0.27985,0.65995 0.0181,0.14552 0.051,0.39952 0.0731,0.56445 0.0222,0.16493 0.26909,0.3597 0.54873,0.43283 0.38071,0.0996 0.55027,0.45623 0.67501,1.41992 0.0916,0.70783 0.28227,1.49807 0.42366,1.75608 0.29684,0.54168 -0.10873,1.51526 -0.63122,1.51526 -0.22532,0 -0.29568,0.34315 -0.22416,1.09318 0.0717,0.75146 0.0129,1.03674 -0.18788,0.91263 -0.20071,-0.12405 -0.22607,-0.002 -0.0811,0.39006 0.24056,0.6503 0.0897,2.10205 -0.21846,2.10205 -0.11262,0 -0.48606,-0.35504 -0.82986,-0.78896 -0.38996,-0.49219 -0.78748,-0.73804 -1.05678,-0.65358 -0.2507,0.0786 -0.50181,-0.0473 -0.59894,-0.30045 -0.14292,-0.37243 -0.2437,-0.33864 -0.69279,0.23229 -0.65188,0.82873 -0.65325,1.0124 -0.0137,1.8255 0.72132,0.91702 0.83273,2.19874 0.19112,2.19874 -0.32924,0 -0.60211,-0.33302 -0.84011,-1.02532 -0.19386,-0.56392 -0.48045,-1.15328 -0.63686,-1.30968 -0.1564,-0.15641 -0.28437,-0.48024 -0.28437,-0.71962 0,-0.23938 -0.24232,-0.65454 -0.5385,-0.92258 -0.29617,-0.26803 -0.48184,-0.63496 -0.4126,-0.81541 0.13926,-0.36291 -0.52794,-1.04764 -0.69215,-0.71034 -0.0566,0.1162 -0.0794,0.74706 -0.0507,1.40191 0.0287,0.65484 0.0644,1.75617 0.0793,2.44739 0.0293,1.35929 0.39432,1.67352 0.66965,0.57652 0.31932,-1.27227 0.8117,-0.54456 0.83345,1.23178 0.0114,0.93359 0.103,2.02485 0.20348,2.42504 0.20519,0.81718 0.70178,0.98881 0.70178,0.24253 0,-0.67209 0.28208,-0.88812 0.70326,-0.53857 0.21302,0.17679 0.35507,0.84038 0.35507,1.65862 0,0.80672 0.16841,1.60437 0.41221,1.95245 0.22671,0.32367 0.34383,0.69913 0.26027,0.83434 -0.0836,0.13521 -0.0443,0.31238 0.0873,0.39371 0.1316,0.0813 0.31943,-0.3867 0.41741,-1.04006 0.11305,-0.75392 0.31283,-1.18792 0.54681,-1.18792 0.40118,0 0.54949,0.68441 0.76987,3.55283 0.12777,1.66304 0.39218,2.25153 1.01718,2.26395 0.11208,0.002 0.1253,-1.11252 0.0294,-2.47721 -0.0959,-1.3647 -0.0939,-2.80191 0.004,-3.1938 0.1985,-0.79086 0.81333,-0.78357 0.83388,0.01 0.0388,1.50041 0.48515,3.83476 0.94781,4.95744 0.57117,1.38601 0.33711,2.18437 -0.55719,1.90053 -0.30172,-0.0958 -0.5464,0.0748 -0.75072,0.5232 -0.31217,0.68513 -1.28156,0.96947 -1.0249,0.30062 0.14059,-0.36637 -0.27041,-0.95828 -0.66539,-0.95828 -0.11642,0 -0.21167,0.35016 -0.21167,0.77813 0,0.86984 -0.27815,1.15367 -0.89764,0.91595 -0.33265,-0.12765 -0.39322,-0.47275 -0.30163,-1.7187 0.11585,-1.57613 -0.32312,-3.47079 -0.79551,-3.43349 -0.1455,0.0115 -0.25418,1.23584 -0.25418,2.86357 0,1.56392 -0.0897,2.98158 -0.19929,3.15035 -0.10962,0.16877 -0.12664,0.49619 -0.0378,0.7276 0.0888,0.23142 0.0351,0.42075 -0.11945,0.42075 -0.29592,0 -0.65469,-1.48191 -0.65655,-2.71197 -7.4e-4,-0.48864 -0.13869,-0.72628 -0.42003,-0.72356 -0.7671,0.007 -1.01901,0.38253 -1.03347,1.53889 -0.0141,1.13029 -0.60766,2.42581 -1.11134,2.42581 -0.32771,0 -0.32127,-1.21276 0.0189,-3.5669 0.14681,-1.01591 0.19013,-2.19675 0.0963,-2.6241 -0.30288,-1.37898 -0.61725,-0.15153 -1.00964,3.94204 -0.091,0.94946 -0.92513,3.04271 -1.21246,3.04271 -0.56242,0 -0.77678,-0.72664 -0.46109,-1.56301 0.28853,-0.76439 0.26737,-0.90313 -0.18853,-1.23649 -0.74325,-0.54348 -0.82276,-0.4935 -1.19155,0.74898 -0.32141,1.08284 -1.0554,2.05052 -1.55534,2.05052 -0.51544,0 -1.60478,-1.09183 -1.4616,-1.46494 0.0817,-0.21293 0.0168,-0.38714 -0.14433,-0.38714 -0.16109,0 -0.29289,0.18732 -0.29289,0.41627 0,0.25546 -0.17888,0.38039 -0.46303,0.32337 -0.37828,-0.0759 -0.44692,-0.32156 -0.37504,-1.34232 0.0984,-1.39701 -0.22242,-1.62093 -0.74753,-0.5218 -0.55406,1.15972 -0.49561,1.62589 0.33398,2.66346 0.42856,0.53601 0.88255,1.24245 1.00886,1.56987 0.12631,0.32742 0.33876,0.59531 0.47211,0.59531 0.13334,0 0.31715,0.29766 0.40846,0.66146 0.0913,0.36381 0.28281,0.66146 0.42556,0.66146 0.35641,0 0.32808,0.72016 -0.0372,0.94592 -0.36741,0.22708 -1.30655,-0.77568 -3.59515,-3.8387 -0.0471,-0.0631 -0.22656,0.0262 -0.39876,0.19844 -0.35151,0.35151 -0.75279,0.41676 -0.70509,0.11465 0.0172,-0.10914 0.006,-0.3175 -0.0261,-0.46302 -0.0316,-0.14552 -0.0754,-0.55173 -0.0975,-0.90269 -0.0591,-0.94068 -0.60602,-0.96394 -0.79207,-0.0337 -0.11898,0.59492 -0.308,0.80408 -0.72663,0.80408 -0.61084,0 -0.61178,-0.19002 -0.0125,-2.50831 0.22465,-0.86906 0.19621,-1.13712 -0.16276,-1.53378 -0.41665,-0.46039 -0.45143,-0.44945 -0.82462,0.25936 -0.21429,0.40701 -0.48573,1.25082 -0.6032,1.87512 -0.18356,0.97553 -0.11214,1.31906 0.50801,2.44359 0.39687,0.71966 0.87042,1.3102 1.05232,1.31229 0.1819,0.002 0.33073,0.24194 0.33073,0.53298 0,0.29104 0.11375,0.52917 0.25277,0.52917 0.3368,0 2.39307,3.48024 2.39307,4.05028 0,0.68333 -0.97371,0.55628 -1.15102,-0.15019 -0.0825,-0.3288 -0.57168,-1.05814 -1.08701,-1.62075 -0.51534,-0.56262 -0.93697,-1.16811 -0.93697,-1.34555 0,-0.17744 -0.23813,-0.53811 -0.52917,-0.8015 -0.29104,-0.26339 -0.52917,-0.63903 -0.52917,-0.83476 0,-0.19572 -0.11906,-0.35587 -0.26458,-0.35587 -0.14552,0 -0.26458,-0.16401 -0.26458,-0.36447 0,-0.20047 -0.1786,-0.5127 -0.39688,-0.69386 -0.33478,-0.27784 -0.39687,-0.22588 -0.39687,0.33208 0,0.3638 -0.16421,0.79774 -0.36491,0.96431 -0.2905,0.24109 -0.38994,0.1719 -0.48766,-0.33926 -0.0675,-0.35315 -0.008,-0.84709 0.13219,-1.09764 0.27028,-0.48297 -0.14838,-2.33827 -0.67266,-2.98087 -0.37897,-0.4645 -0.71266,0.0599 -0.72356,1.13701 -0.004,0.43656 -0.16695,1.25015 -0.36117,1.80798 -0.31317,0.89946 -0.29809,1.12219 0.13328,1.9683 0.26753,0.52473 0.91021,1.49708 1.42819,2.16076 1.5987,2.04843 2.52498,3.6458 2.68465,4.6297 0.12467,0.76824 0.0704,0.94263 -0.29317,0.94263 -0.28354,0 -0.68857,-0.52957 -1.11139,-1.45312 -0.36589,-0.79922 -0.86532,-1.6034 -1.10984,-1.78708 -0.57494,-0.43189 -1.57533,-1.85953 -1.89834,-2.7091 -0.13911,-0.36591 -0.37917,-0.66528 -0.53347,-0.66528 -0.15429,0 -0.5102,-0.53578 -0.79089,-1.19063 -0.2807,-0.65484 -0.62443,-1.19062 -0.76383,-1.19062 -0.32898,0 -0.87161,1.65262 -0.89664,2.73077 -0.0228,0.98161 2.83079,6.99027 4.0459,8.51929 0.6114,0.76934 0.72383,1.07804 0.49366,1.35538 -0.48206,0.58086 -0.93905,0.4165 -1.30615,-0.46976 -0.18884,-0.4559 -0.59024,-1.14145 -0.892,-1.52345 -0.8065,-1.02096 -1.0625,-1.47519 -2.51337,-4.45973 -1.14411,-2.35353 -1.39805,-2.70245 -1.92556,-2.64584 -0.57117,0.0613 -0.60418,-0.0181 -0.55,-1.32385 0.0317,-0.76398 -0.056,-1.38906 -0.19488,-1.38906 -0.33186,0 -1.05338,1.7438 -1.05338,2.54585 0,0.38285 -0.15537,0.62915 -0.39688,0.62915 -0.21828,0 -0.39687,0.13222 -0.39687,0.29383 0,0.47432 1.87329,4.12707 2.41443,4.70792 0.27279,0.2928 0.49598,0.65641 0.49598,0.80802 0,0.1516 0.11906,0.27564 0.26459,0.27564 0.14552,0 0.26458,0.15005 0.26458,0.33344 0,0.18339 0.27642,0.63154 0.61427,0.9959 0.69544,0.75 1.04381,1.77081 0.68088,1.99512 -0.13347,0.0825 -0.56878,-0.19541 -0.96735,-0.61755 z m -3.81847,-10.84284 c 0.15283,-0.54571 0.45974,-1.46844 0.68203,-2.05052 0.22229,-0.58209 0.40939,-1.45598 0.41578,-1.94198 0.0111,-0.84671 1.33952,-5.20171 1.89719,-6.21973 0.38843,-0.70908 0.0898,-0.83736 -0.55364,-0.23786 -0.44093,0.41078 -1.66787,3.43661 -2.70859,6.67977 -0.07,0.21829 -0.33245,1.0299 -0.58313,1.80359 -0.48357,1.49252 -0.37017,2.95891 0.22883,2.95891 0.18901,0 0.46871,-0.44648 0.62153,-0.99218 z m 4.19312,-1.26818 c 0.21426,-0.55837 -0.14337,-0.85982 -0.4482,-0.37781 -0.32391,0.51217 -0.31741,0.78609 0.0186,0.78609 0.15008,0 0.34339,-0.18373 0.42956,-0.40828 z m -5.70295,-1.84068 c 0.27213,-0.87312 0.49654,-1.84085 0.49869,-2.1505 0.002,-0.30965 0.18249,-0.99043 0.40077,-1.51285 0.46579,-1.1148 0.52475,-2.37649 0.10451,-2.23641 -0.34454,0.11484 -1.02085,1.94324 -1.02657,2.77529 -0.002,0.31884 -0.11617,0.64903 -0.25328,0.73378 -0.13711,0.0847 -0.32181,0.71684 -0.41043,1.40467 -0.0886,0.68783 -0.2741,1.45735 -0.41217,1.71004 -0.37269,0.68209 -0.30517,1.04542 0.17633,0.94903 0.26227,-0.0525 0.6185,-0.69881 0.92215,-1.67305 z m 4.42899,0.0661 c 0.13854,-1.17376 0.19457,-1.4077 0.66465,-2.77501 0.5078,-1.47705 0.78219,-1.8011 1.26986,-1.4997 0.21349,0.13195 0.16917,0.28737 -0.14813,0.51938 -0.26272,0.19211 -0.34275,0.3991 -0.19065,0.4931 0.38307,0.23675 0.57614,-0.20107 1.00731,-2.28428 0.23812,-1.1505 0.29171,-1.95952 0.13986,-2.11137 -0.42853,-0.42853 -2.20531,2.37658 -2.61341,4.12596 -0.20466,0.87728 -0.47464,1.65878 -0.59997,1.73666 -0.20849,0.12957 -0.37723,1.25454 -0.30896,2.05984 0.049,0.57851 0.70626,0.35541 0.77944,-0.26458 z m 4.16168,-1.71979 c 0.096,-0.54571 0.34866,-1.70657 0.56144,-2.57969 0.21278,-0.87313 0.42343,-1.94469 0.46812,-2.38125 0.18319,-1.78956 0.4571,-3.43832 0.61317,-3.69084 0.0913,-0.14773 0.18605,-0.44929 0.21054,-0.67013 0.0245,-0.22084 0.13216,-0.60989 0.23927,-0.86455 0.22388,-0.53232 -0.19942,-0.62906 -0.57889,-0.13229 -0.50306,0.65856 -0.89148,2.07645 -2.01132,7.34218 -0.36994,1.73956 -0.31473,3.96875 0.0983,3.96875 0.12364,0 0.30336,-0.44648 0.39937,-0.99218 z m 13.51479,0.13229 c -0.0188,-0.1819 0.12421,-1.11973 0.31779,-2.08406 0.33932,-1.69045 0.32974,-1.7876 -0.26717,-2.70871 -0.69621,-1.07432 -1.016,-1.21172 -1.016,-0.43655 0,0.28895 -0.14454,1.06581 -0.32121,1.72636 -0.27292,1.02039 -0.25687,1.3293 0.10672,2.05432 0.23536,0.46933 0.49523,1.06169 0.57749,1.31635 0.17045,0.52769 0.65419,0.63392 0.60238,0.13229 z m -9.96121,-2.04073 c 0,-0.28565 0.24251,-1.13463 0.53892,-1.88662 0.49952,-1.26728 0.50737,-1.4021 0.10743,-1.84403 -0.23732,-0.26223 -0.59889,-0.41255 -0.8035,-0.33403 -0.22452,0.0861 -0.37202,-0.0258 -0.37202,-0.28243 0,-0.23385 -0.11367,-0.42518 -0.25259,-0.42518 -0.22672,0 -0.34623,0.47782 -0.65953,2.63685 -0.0532,0.36673 0.12578,0.93275 0.40872,1.29245 0.27687,0.35199 0.5034,0.80251 0.5034,1.00117 0,0.19866 0.11906,0.36119 0.26459,0.36119 0.14552,0 0.26458,-0.23371 0.26458,-0.51937 z m 5.00166,-0.20823 c -0.0323,-0.25466 0.0327,-0.79044 0.14434,-1.19062 0.11167,-0.40019 0.11736,-1.05503 0.0126,-1.45521 -0.16996,-0.64952 -0.23824,-0.54303 -0.63625,0.99218 -0.24522,0.94589 -0.40355,1.80909 -0.35184,1.91823 0.19249,0.40631 0.88807,0.18487 0.83111,-0.26458 z m 8.3306,-1.45521 c 0.095,-0.61846 0.24323,-2.11354 0.32934,-3.32239 0.13833,-1.94187 0.0995,-2.23966 -0.33345,-2.55623 -0.26952,-0.19707 -0.56704,-0.31071 -0.66118,-0.25253 -0.0941,0.0582 -0.31504,1.26801 -0.49091,2.68852 -0.27974,2.25948 -0.26652,2.70692 0.10564,3.57492 0.23397,0.54571 0.52719,0.99219 0.65159,0.99219 0.12441,0 0.30395,-0.50601 0.39897,-1.12448 z m 4.39482,-0.47863 c 0,-0.13694 -0.11906,-0.24897 -0.26458,-0.24897 -0.14552,0 -0.26459,0.18562 -0.26459,0.41249 0,0.22687 0.11907,0.3389 0.26459,0.24897 0.14552,-0.0899 0.26458,-0.27556 0.26458,-0.41249 z m -14.15107,-1.23824 c 0.36246,-1.83634 0.34647,-2.16459 -0.15314,-3.14456 -0.5527,-1.08408 -0.61758,-0.99939 -0.98157,1.28144 -0.18746,1.17457 -0.15499,1.69187 0.14506,2.3114 0.47198,0.97454 0.73207,0.85673 0.98965,-0.44828 z m 4.01306,0.41049 c -0.0845,-0.21106 -0.14715,-0.14837 -0.15985,0.15985 -0.0115,0.27892 0.0511,0.43519 0.13896,0.34727 0.0879,-0.0879 0.0973,-0.31612 0.0209,-0.50712 z m 9.99361,-2.62838 c -0.0682,-1.32315 -0.19752,-2.52476 -0.28743,-2.67024 -0.28167,-0.45575 -0.61816,0.38882 -0.62245,1.5623 -0.002,0.60988 -0.12506,1.18365 -0.27295,1.27506 -0.1479,0.0914 -0.18943,0.29477 -0.0923,0.45192 0.0971,0.15716 0.19949,0.59542 0.22748,0.97391 0.10265,1.38813 0.10118,1.38566 0.65266,1.09051 0.47227,-0.25275 0.50779,-0.4941 0.39499,-2.68346 z m -9.5412,1.46573 c 0.0883,-0.23019 0.15305,-0.85526 0.14383,-1.38907 -0.013,-0.75271 -0.0634,-0.85178 -0.22464,-0.44138 -0.36536,0.93009 -0.54683,2.24896 -0.30945,2.24896 0.12632,0 0.30193,-0.18833 0.39026,-0.41851 z m -1.49907,-0.54632 c -0.0736,-0.38513 0.0425,-1.21788 0.25809,-1.85054 0.36863,-1.08189 0.35722,-1.22203 -0.19186,-2.35628 -0.32109,-0.66328 -0.62972,-1.16005 -0.68584,-1.10393 -0.12993,0.12993 -0.36872,1.56679 -0.51519,3.10004 -0.13694,1.43352 0.30029,2.91096 0.86146,2.91096 0.29769,0 0.3712,-0.18832 0.27334,-0.70025 z m 4.60828,-0.42423 c 0.17991,-4.05074 0.12564,-5.50893 -0.21557,-5.79211 -0.20052,-0.16641 -0.40171,-0.25584 -0.4471,-0.19872 -0.0454,0.0571 -0.26557,1.15964 -0.48927,2.45006 -0.36478,2.10418 -0.36512,2.45218 -0.003,3.37344 0.49757,1.2667 1.10246,1.35431 1.15518,0.16733 z m 4.45972,-1.78594 c 0,-0.29104 -0.11906,-0.52917 -0.26458,-0.52917 -0.14552,0 -0.26458,0.23813 -0.26458,0.52917 0,0.29104 0.11906,0.52917 0.26458,0.52917 0.14552,0 0.26458,-0.23813 0.26458,-0.52917 z m -13.8163,-1.77405 c 0.56453,-3.43337 0.65967,-4.90881 0.30898,-4.79191 -0.2049,0.0683 -0.36036,0.84814 -0.42374,2.12573 -0.0551,1.10982 -0.26128,2.40118 -0.45827,2.86968 -0.34927,0.83066 -0.29228,1.94642 0.0874,1.71175 0.1045,-0.0646 0.32303,-0.92645 0.48561,-1.91525 z m 13.8163,-0.25442 c 0,-0.53358 -0.0828,-0.88732 -0.18404,-0.78609 -0.24566,0.24565 -0.36185,1.01506 -0.21526,1.4255 0.221,0.61881 0.3993,0.3333 0.3993,-0.63941 z m -6.61165,-0.0937 c 0.15737,-0.29405 0.21544,-0.649 0.12906,-0.78878 -0.0864,-0.13978 -0.027,-0.97168 0.13206,-1.84865 0.19695,-1.08609 0.20351,-1.74149 0.0206,-2.05549 -0.23181,-0.39793 -0.26965,-0.36749 -0.27659,0.22252 -0.004,0.37593 -0.0909,0.76632 -0.1921,0.86755 -0.20398,0.20398 -0.19658,0.16342 -0.45314,2.48384 -0.18801,1.70047 0.0791,2.16735 0.64012,1.11901 z m -4.49445,-2.68411 c -0.008,-0.6789 -0.18419,-1.56138 -0.39154,-1.96107 l -0.37702,-0.72669 -0.12518,0.63814 c -0.22435,1.14377 -0.11209,4.0648 0.17706,4.6069 0.25799,0.4837 0.30153,0.4496 0.50672,-0.39687 0.12346,-0.50933 0.21794,-1.48151 0.20996,-2.16041 z m 9.83245,0.39798 c -0.0234,-1.12252 -0.16319,-2.1615 -0.31053,-2.30884 -0.14734,-0.14735 -0.2679,-0.46947 -0.2679,-0.71584 0,-0.66509 -0.73522,-0.8412 -0.93139,-0.22311 -0.28367,0.89375 -0.17994,3.44942 0.17511,4.31448 0.86684,2.11204 1.39234,1.69207 1.33471,-1.06669 z m 1.37461,0.82264 c 0.0904,-0.23546 0.046,-0.34166 -0.10399,-0.24896 -0.14385,0.0889 -0.26155,0.27368 -0.26155,0.41061 0,0.38059 0.18965,0.29672 0.36554,-0.16165 z m -8.27935,-4.83139 c 0.009,-1.78686 -0.0984,-2.86361 -0.31126,-3.12007 -0.51572,-0.6214 -0.73339,-0.12396 -0.99763,2.2799 -0.28321,2.57652 -0.15377,3.89205 0.45076,4.58112 0.40481,0.46142 0.43354,0.44944 0.63421,-0.26458 0.11561,-0.41135 0.21637,-1.97571 0.22392,-3.47637 z m 4.07741,-0.41064 c 0.0669,-1.91809 -4e-4,-2.59472 -0.28122,-2.82778 -0.30851,-0.25604 -0.364,-0.0737 -0.33784,1.11047 0.0172,0.77926 -0.004,1.9637 -0.0469,2.63208 -0.073,1.13527 0.15818,2.02647 0.44999,1.73466 0.0704,-0.0704 0.16758,-1.26265 0.21593,-2.64943 z m -1.78186,-2.02 c 0.0111,-1.42494 -0.25466,-2.15304 -0.64379,-1.76391 -0.30002,0.30002 -0.3682,1.95256 -0.10872,2.63505 0.44341,1.16625 0.73933,0.82368 0.75251,-0.87114 z m 4.43578,0.46276 c -0.0815,-0.47295 -0.0431,-1.75287 0.0853,-2.84428 0.1284,-1.0914 0.14591,-2.14973 0.0389,-2.35183 -0.11564,-0.21842 -0.26903,0.2287 -0.37819,1.10242 -0.1728,1.38304 -0.70354,2.11847 -1.08427,1.50244 -0.38546,-0.62369 -0.57046,-0.1612 -0.29568,0.73916 0.35479,1.16248 1.24752,2.71198 1.56248,2.71198 0.12074,0 0.15287,-0.38695 0.0714,-0.85989 z m 3.56373,-3.25677 c 0,-0.95447 -0.0893,-1.68021 -0.19844,-1.61276 -0.10914,0.0675 -0.18355,0.4912 -0.16536,0.94166 0.0182,0.45045 0.048,1.1762 0.0661,1.61276 0.0634,1.52177 0.29765,0.78071 0.29765,-0.94166 z m 3.56079,-0.57969 c -0.0222,-1.12779 -0.14545,-2.34818 -0.27389,-2.71198 -0.1932,-0.54724 -0.26041,-0.36448 -0.38918,1.05833 -0.19096,2.10993 -0.0219,3.70417 0.39291,3.70417 0.21442,0 0.29804,-0.63468 0.27016,-2.05052 z m -11.76287,0.0818 c 0,-0.64626 -0.11906,-1.2486 -0.26458,-1.33853 -0.16308,-0.10079 -0.26459,0.35003 -0.26459,1.17501 0,0.73619 0.11906,1.33853 0.26459,1.33853 0.14552,0 0.26458,-0.52876 0.26458,-1.17501 z m -1.77549,-0.41276 c -0.0761,-0.29089 -0.24349,-0.5289 -0.37204,-0.5289 -0.27277,0 -0.29863,0.31675 -0.0737,0.90288 0.22621,0.58949 0.61287,0.26508 0.44575,-0.37398 z m 4.98356,-2.18297 c -0.0139,-0.92616 0.067,-2.03421 0.17981,-2.46232 0.11279,-0.42812 0.16226,-1.04649 0.10993,-1.37415 -0.1472,-0.92168 -0.70924,-0.14703 -0.76819,1.05877 -0.15731,3.21757 -0.15105,4.10888 0.0309,4.40329 0.34971,0.56584 0.47367,0.11561 0.44755,-1.62559 z m 3.67109,0.33115 c 0,-0.7276 0.009,-1.40923 0.0199,-1.51474 0.0109,-0.1055 -0.10486,-0.23338 -0.25726,-0.28419 -0.16107,-0.0537 -0.26288,0.28623 -0.24312,0.81171 0.0187,0.49725 -0.0445,1.03111 -0.14047,1.18636 -0.21147,0.34216 0.0561,1.12378 0.38473,1.12378 0.12995,0 0.23627,-0.59531 0.23627,-1.32292 z m -8.59535,-0.46907 c 0.0584,-0.74209 -0.009,-0.83652 -0.56397,-0.79059 -0.61888,0.0512 -0.82331,0.44925 -0.43182,0.84074 0.10914,0.10914 0.21332,0.30758 0.23151,0.44097 0.0689,0.50531 0.10712,0.54859 0.3986,0.45142 0.16466,-0.0549 0.32921,-0.47903 0.36568,-0.94254 z m 11.66562,0.27615 c -0.26895,-0.26895 -0.49086,0.13597 -0.27019,0.49302 0.16669,0.26972 0.22901,0.26993 0.31864,0.001 0.0613,-0.18382 0.0395,-0.40616 -0.0485,-0.49408 z m -4.42733,-3.4451 c 0.0349,-1.10406 -0.0413,-1.38906 -0.37122,-1.38906 -0.34068,0 -0.39205,0.24901 -0.28654,1.38906 0.0707,0.76399 0.1438,1.62719 0.16242,1.91823 l 0.0339,0.52917 0.20881,-0.52917 c 0.11484,-0.29104 0.22854,-1.15424 0.25267,-1.91823 z m 3.33178,0.72761 c 0.0947,-0.80037 0.23224,-1.66117 0.30553,-1.91289 0.0733,-0.25173 0.0106,-0.66845 -0.1394,-0.92604 -0.2964,-0.50913 -0.29543,-0.51022 -0.41016,0.45768 -0.0431,0.3638 -0.16779,1.22039 -0.27704,1.90353 -0.17592,1.1001 -0.0277,2.31973 0.24756,2.03694 0.0557,-0.0572 0.17876,-0.75886 0.27351,-1.55922 z m -7.6939,0.61308 c 0.25627,0.0983 0.40856,-0.0994 0.48671,-0.63185 0.12473,-0.84982 -0.0211,-0.89801 -1.28343,-0.42412 -0.72528,0.27227 -0.79841,0.38778 -0.59267,0.93611 0.19328,0.51512 0.30368,0.56826 0.62556,0.30113 0.21497,-0.17841 0.5587,-0.25998 0.76383,-0.18127 z m 9.15877,-0.6287 c 0,-0.13693 -0.11906,-0.24897 -0.26459,-0.24897 -0.14552,0 -0.26458,0.18562 -0.26458,0.41249 0,0.22687 0.11906,0.33891 0.26458,0.24897 0.14553,-0.0899 0.26459,-0.27555 0.26459,-0.41249 z m -2.80015,-3.7547 c -0.0803,-0.25466 -0.25697,-0.46302 -0.39268,-0.46302 -0.28947,0 -0.33663,1.9386 -0.054,2.2212 0.26203,0.26203 0.62865,-1.1809 0.44671,-1.75818 z m 2.37821,-2.69109 c 0.12159,-0.98026 -0.40636,-2.32979 -0.71445,-1.82625 -0.42575,0.69582 -0.0949,3.53932 0.35904,3.08542 0.1251,-0.12509 0.28503,-0.69172 0.35541,-1.25917 z m -2.06761,0.44408 c -0.18348,-0.18348 -0.68545,0.18933 -0.68545,0.50909 0,0.17544 0.15181,0.15537 0.40327,-0.0533 0.2218,-0.18408 0.34878,-0.38917 0.28218,-0.45577 z m -33.54146,49.47514 c -1.65568,-1.94449 -3.37015,-7.2099 -2.3476,-7.2099 0.31598,0 0.71793,0.5724 0.929,1.32292 0.29659,1.05464 1.15987,2.85335 1.45782,3.0375 0.15016,0.0928 0.27302,0.39983 0.27302,0.68228 0,0.28246 0.10615,0.51356 0.23591,0.51356 0.12974,0 0.30783,0.28659 0.39575,0.63687 0.0879,0.35029 0.23262,0.82654 0.32157,1.05834 0.22662,0.59056 -0.75466,0.55833 -1.26547,-0.0416 z m -14.65748,-4.39512 c -0.250409,-0.64634 0.31874,-1.57997 2.01147,-3.29961 1.25937,-1.27939 4.48253,-3.34189 4.94488,-3.16423 0.11049,0.0424 0.24101,-0.13117 0.29005,-0.38583 0.0491,-0.25466 -0.0386,-0.46302 -0.19481,-0.46302 -0.15619,0 -0.28398,-0.12709 -0.28398,-0.28241 0,-0.15579 0.22255,-0.21178 0.49636,-0.12488 0.3458,0.10976 0.53596,0.006 0.6269,-0.34159 0.076,-0.2907 0.4488,-0.56026 0.89269,-0.64551 0.91593,-0.17591 1.17502,0.001 0.61901,0.42383 -0.2238,0.17001 -0.56333,0.84488 -0.75451,1.49972 -0.44424,1.52164 -0.72513,1.85116 -1.58212,1.85607 -1.41209,0.008 -3.73792,1.17931 -3.73792,1.8823 0,0.11923 -0.42574,0.60679 -0.94608,1.08347 -1.20627,1.10506 -1.37401,1.28228 -1.82217,1.92504 -0.35463,0.50863 -0.37636,0.51005 -0.55977,0.0367 z m 9.28456,-4.13217 c -0.0976,-0.15785 0.24872,-1.16103 0.76951,-2.22929 1.09596,-2.2481 1.12235,-2.38175 0.4348,-2.20195 -0.85796,0.22435 -0.87448,-0.55487 -0.0211,-0.99615 1.13308,-0.58594 1.52827,-0.49562 1.72365,0.39395 0.13836,0.62995 -0.0615,1.23723 -0.97229,2.95488 -1.13624,2.14276 -1.59214,2.63259 -1.93455,2.07856 z m 54.44799,-10.49879 c -0.21663,-0.56453 0.3747,-0.86272 1.38553,-0.69868 0.48443,0.0786 0.92692,0.0116 1.03051,-0.15598 0.28882,-0.46732 0.67948,-0.34094 0.67948,0.21981 0,0.66497 -0.22848,0.78883 -1.71156,0.92785 -0.93678,0.0878 -1.26445,0.0184 -1.38396,-0.293 z m -2.14429,-2.76849 c -0.35042,-0.12963 -0.58102,-0.43973 -0.58102,-0.78132 0,-0.46859 0.11167,-0.53834 0.6468,-0.40404 0.35574,0.0893 1.27847,0.23217 2.05052,0.31753 1.65489,0.18295 1.82987,0.29577 1.18735,0.76559 -0.52591,0.38456 -2.38494,0.44209 -3.30365,0.10224 z m 10.32726,-2.4685 c -1.15582,-0.41055 -1.84868,-1.10809 -1.47341,-1.48336 0.20236,-0.20237 0.52653,-0.13661 1.12711,0.22862 0.625,0.38009 1.14735,0.47838 2.01969,0.38005 0.97356,-0.10973 1.17666,-0.0568 1.17666,0.30697 0,0.24177 -0.14883,0.48544 -0.33073,0.54147 -0.95585,0.29448 -1.74113,0.30266 -2.51932,0.0263 z M 160.888,138.95942 c -0.48261,-0.19731 -0.56524,-0.33664 -0.33576,-0.56613 0.35772,-0.35772 2.21276,0.0251 2.19437,0.45283 -0.0157,0.36484 -1.08407,0.42997 -1.85861,0.1133 z m -3.74571,-2.41208 c -0.27265,-1.11069 -0.0836,-1.2545 1.40931,-1.07194 0.95128,0.11632 1.25499,0.39895 0.75848,0.70581 -0.2768,0.17107 -2.13848,0.4855 -2.16779,0.36613 z m 13.76053,-0.75508 c -0.19446,-0.12018 -0.44599,-0.16139 -0.55896,-0.0916 -0.34098,0.21074 -1.80424,-1.02112 -1.80424,-1.51892 0,-0.63138 0.41115,-0.83793 0.83857,-0.42127 0.4237,0.41304 2.16016,1.24916 2.59426,1.24916 0.46895,0 0.20251,0.86677 -0.28852,0.93858 -0.23515,0.0344 -0.58666,-0.0358 -0.78111,-0.15598 z m -16.73889,-1.22357 c -0.38353,-0.38353 -0.13743,-0.61736 0.64976,-0.61736 0.70435,0 0.77758,0.0585 0.49676,0.39688 -0.34752,0.41873 -0.85138,0.51563 -1.14652,0.22048 z m 12.06059,-2.50087 c -0.83395,-0.24079 -1.13448,-0.82598 -0.59532,-1.1592 0.14553,-0.0899 0.26459,-0.0374 0.26459,0.11668 0,0.15411 0.30548,0.2802 0.67885,0.2802 0.85103,0 1.76789,0.47373 1.5619,0.80702 -0.18669,0.30208 -0.75509,0.28877 -1.91002,-0.0447 z m -11.48347,-0.69618 c -0.12387,-2.23975 0.10128,-6.93371 0.36821,-7.67678 0.58565,-1.63028 0.86563,-0.79885 0.78865,2.34205 -0.10936,4.46201 -0.30622,6.06234 -0.74573,6.06234 -0.21847,0 -0.38743,-0.29902 -0.41113,-0.72761 z m 1.86586,-1.63424 c -0.0618,-1.28139 -0.0372,-1.76171 0.10955,-2.13607 0.0856,-0.21828 0.19115,-0.69453 0.23467,-1.05833 0.045,-0.37641 0.25015,-0.66146 0.47599,-0.66146 0.48092,0 0.67673,2.00246 0.32757,3.34992 -0.2617,1.00995 -1.10553,1.3819 -1.14778,0.50594 z"
       id="path8" />
  </g>
</svg>
