<?xml version="1.0" encoding="UTF-8" standalone="no"?>
<!-- Created with Inkscape (http://www.inkscape.org/) -->

<svg
   width="118.93615mm"
   height="63.194904mm"
   viewBox="0 0 118.93614 63.194907"
   version="1.1"
   id="svg1"
   inkscape:version="1.4.1-rc (06eac75fbf, 2025-03-29)"
   sodipodi:docname="mount4.svg"
   xmlns:inkscape="http://www.inkscape.org/namespaces/inkscape"
   xmlns:sodipodi="http://sodipodi.sourceforge.net/DTD/sodipodi-0.dtd"
   xmlns="http://www.w3.org/2000/svg"
   xmlns:svg="http://www.w3.org/2000/svg">
  <sodipodi:namedview
     id="namedview1"
     pagecolor="#ffffff"
     bordercolor="#000000"
     borderopacity="0.25"
     inkscape:showpageshadow="2"
     inkscape:pageopacity="0.0"
     inkscape:pagecheckerboard="0"
     inkscape:deskcolor="#d1d1d1"
     inkscape:document-units="mm"
     inkscape:zoom="0.72248176"
     inkscape:cx="224.22711"
     inkscape:cy="119.72621"
     inkscape:window-width="1850"
     inkscape:window-height="1016"
     inkscape:window-x="0"
     inkscape:window-y="0"
     inkscape:window-maximized="1"
     inkscape:current-layer="layer1" />
  <defs
     id="defs1" />
  <g
     inkscape:label="Layer 1"
     inkscape:groupmode="layer"
     id="layer1"
     transform="translate(-46.302071,-116.94625)">
    <path
       style="fill:#000000"
       d="m 87.570554,179.10825 c 0.18029,-1.12747 -0.0943,-1.35061 -1.37698,-1.1191 -0.44505,0.0803 -0.58171,0.24638 -0.49033,0.5958 0.14696,0.56199 -0.36146,1.08765 -0.79263,0.81949 -0.46978,-0.29216 -0.26626,-1.69828 0.37644,-2.60087 0.32464,-0.45591 0.83546,-1.34863 1.13517,-1.98381 0.2997,-0.63518 0.76521,-1.57159 1.03446,-2.08091 0.27933,-0.52839 0.38292,-0.99253 0.24124,-1.08088 -0.13658,-0.0852 -0.33523,-0.47982 -0.44145,-0.87702 -0.19297,-0.72154 -0.19366,-0.72172 -0.78253,-0.211 -0.32416,0.28115 -0.58939,0.62942 -0.58939,0.77395 0,0.14452 -0.3011,0.70648 -0.66912,1.24878 -0.52662,0.77601 -0.63305,1.17833 -0.49972,1.88901 0.15831,0.84391 0.12331,0.90299 -0.53501,0.90299 -0.55133,0 -0.78628,0.19596 -1.0812,0.9018 -0.20723,0.49599 -0.52808,0.95223 -0.71298,1.01387 -0.1849,0.0616 -0.33669,0.33018 -0.33731,0.59677 -0.001,0.64472 -0.61584,0.82764 -0.83772,0.24943 -0.10853,-0.28284 -0.008,-0.57977 0.26445,-0.77878 0.24192,-0.1769 0.43986,-0.45733 0.43986,-0.62319 0,-0.16586 0.11906,-0.30156 0.26458,-0.30156 0.14553,0 0.26459,-0.22355 0.26459,-0.49677 0,-0.27323 0.17859,-0.64499 0.39687,-0.82615 0.51226,-0.42513 0.51109,-1.2957 -0.002,-1.49258 -0.21937,-0.0842 -0.81469,-0.0751 -1.32291,0.0203 -0.79877,0.14985 -0.92405,0.2755 -0.92405,0.9268 0,0.44298 -0.17246,0.81964 -0.41852,0.91406 -0.62325,0.23916 -0.71182,0.2007 -0.54414,-0.23628 0.21676,-0.56485 -0.0802,-1.19062 -0.56496,-1.19062 -0.22696,0 -0.33386,0.0788 -0.23754,0.17512 0.0963,0.0963 -0.12196,0.56462 -0.48507,1.04068 -0.3631,0.47606 -0.66019,1.05209 -0.66019,1.28008 0,0.54421 -0.96268,0.53847 -1.26826,-0.008 -0.38896,-0.69502 -0.0649,-1.69456 0.54945,-1.69456 0.29833,0 0.45464,-0.0878 0.34736,-0.19507 -0.10729,-0.10728 -0.39502,-0.19658 -0.63941,-0.19843 -0.30529,-0.002 -0.48575,-0.29319 -0.57664,-0.92942 -0.18026,-1.26183 -1.06874,-1.42436 -1.50263,-0.27488 -0.28948,0.76693 -0.94924,1.06735 -1.25556,0.57171 -0.079,-0.12778 0.0865,-0.69333 0.36773,-1.25677 1.72433,-3.45467 1.86494,-3.82821 1.69535,-4.5039 -0.0959,-0.38219 -0.18918,-0.94629 -0.20722,-1.25355 -0.0694,-1.1811 -1.7435,-0.17575 -1.7435,1.04702 0,0.31817 -0.18545,0.7324 -0.4121,0.9205 -0.22665,0.1881 -0.38109,0.64917 -0.3432,1.02458 0.0379,0.37542 -0.068,0.92071 -0.23523,1.21175 -0.61453,1.06925 -1.75915,-0.47422 -1.24059,-1.67289 0.29573,-0.68359 0.28477,-3.06277 -0.0152,-3.30819 -0.17498,-0.14315 -0.15387,-0.26462 0.0612,-0.35199 0.2506,-0.10182 0.23737,-0.22441 -0.0559,-0.51767 -0.3181,-0.3181 -0.47852,-0.32583 -0.93175,-0.0449 -0.45084,0.27946 -0.58756,0.27501 -0.77442,-0.0252 -0.28084,-0.45125 -0.70539,-0.2164 -0.89085,0.4928 -0.15073,0.57642 0.20972,0.74611 0.43027,0.20256 0.18255,-0.44989 0.71164,0.30538 0.60046,0.85716 -0.28359,1.40757 -0.91436,2.1194 -1.87806,2.1194 -0.27477,0 -0.29215,-0.19002 -0.0805,-0.87982 0.237,-0.7722 0.19121,-0.96486 -0.37434,-1.5751 -0.43949,-0.47422 -0.81815,-0.64983 -1.19097,-0.55234 -0.30063,0.0786 -0.62804,0.0112 -0.72757,-0.14986 -0.21881,-0.35405 0.31225,-2.10532 0.81301,-2.68108 0.61173,-0.70334 0.73441,-1.95825 0.23979,-2.45287 -0.2421,-0.2421 -0.52882,-0.44018 -0.63715,-0.44018 -0.31643,0 -1.35274,2.00384 -1.35274,2.61571 0,0.56844 -0.56836,0.7307 -1.41776,0.40476 -0.33001,-0.12664 -0.34775,-0.27517 -0.0983,-0.82274 0.25651,-0.56299 0.22782,-0.72423 -0.18222,-1.02406 -0.41616,-0.30431 -0.63505,-0.28017 -1.51088,0.16665 -0.56332,0.28739 -1.02422,0.6265 -1.02422,0.75359 0,0.12709 -0.47458,0.11061 -1.05463,-0.0366 -0.58005,-0.14724 -0.99661,-0.3616 -0.92568,-0.47636 0.0709,-0.11477 -0.10933,-0.14635 -0.40057,-0.0702 -0.29124,0.0762 -0.52953,0.0194 -0.52953,-0.12611 0,-0.14552 0.2224,-0.32274 0.49422,-0.39382 0.42,-0.10983 0.48419,-0.3549 0.42743,-1.6319 -0.0681,-1.53266 -0.27606,-2.07554 -0.60531,-1.58028 -0.10123,0.15227 -0.56278,0.49705 -1.02566,0.76619 -0.75897,0.44128 -1.67193,2.05485 -1.67193,2.95495 0,0.32131 -1.14062,1.14606 -1.58499,1.14606 -0.17,0 -0.11646,-0.33907 0.13579,-0.85989 0.30172,-0.62295 0.31378,-0.73231 0.0438,-0.39688 -0.20499,0.25466 -0.50841,0.46302 -0.67426,0.46302 -0.16586,0 -0.30156,0.22255 -0.30156,0.49455 0,0.36522 -0.25584,0.53607 -0.9783,0.6533 -0.53806,0.0873 -1.02914,0.10791 -1.09128,0.0458 -0.12758,-0.12758 0.92231,-1.31673 2.4003,-2.71871 0.54571,-0.51764 0.99219,-1.0411 0.99219,-1.16324 0,-0.39688 -0.69808,-0.23484 -1.32291,0.30708 -0.33558,0.29104 -0.81399,0.52917 -1.06314,0.52917 -0.24915,0 -0.73695,0.21853 -1.084,0.48563 -0.34704,0.26709 -1.01794,0.65334 -1.49089,0.85833 -0.47294,0.20499 -0.85989,0.46271 -0.85989,0.57271 0,0.11 -0.42375,0.2 -0.94166,0.2 -0.51791,0 -0.87514,-0.10763 -0.79385,-0.23916 0.22352,-0.36167 5.38945,-3.7236 6.18844,-4.02737 2.64786,-1.00672 3.79426,-1.61463 4.05374,-2.14962 0.12352,-0.25466 0.3248,-0.67138 0.44729,-0.92604 0.12249,-0.25466 0.71781,-0.62315 1.32292,-0.81886 0.99589,-0.3221 1.1002,-0.43847 1.1002,-1.22746 0,-0.47939 0.20836,-1.12863 0.46302,-1.44274 0.44964,-0.55462 0.51059,-0.56002 2.10897,-0.18687 0.90527,0.21134 1.96312,0.63375 2.35078,0.93869 1.27199,1.00054 1.47258,0.81111 1.79444,-1.69453 0.0896,-0.69752 0.005,-1.23343 -0.24793,-1.57193 -0.58852,-0.7874 -0.46802,-1.09159 0.55706,-1.40619 0.87192,-0.2676 0.96234,-0.24175 1.23309,0.35248 0.31076,0.68205 0.60194,0.80831 0.8687,0.37668 0.0899,-0.14552 0.38188,-0.26458 0.64876,-0.26458 0.26689,0 0.55372,-0.17843 0.6374,-0.39651 0.17527,-0.45674 0.98217,-0.40096 1.59845,0.11051 0.33839,0.28084 0.50182,0.28511 0.81955,0.0214 0.21829,-0.18116 0.39688,-0.48347 0.39688,-0.6718 0,-0.18834 0.14883,-0.40282 0.33073,-0.47663 0.23844,-0.0968 0.24839,-0.19519 0.0357,-0.35278 -0.76468,-0.56646 -0.90134,-3.03875 -0.21067,-3.81129 0.2054,-0.22974 0.37344,-0.54793 0.37344,-0.70708 0,-0.15916 0.41782,-0.42727 0.92848,-0.59581 0.51067,-0.16853 0.86919,-0.40235 0.79673,-0.5196 -0.20825,-0.33696 0.844,-0.50872 1.1629,-0.18982 0.47815,0.47815 0.32259,0.97428 -0.30842,0.98361 -1.0108,0.0149 -2.3151,1.43004 -2.3151,2.51176 0,0.24128 0.22418,0.72369 0.49819,1.07203 0.48776,0.62008 0.5113,0.62329 1.12448,0.15292 0.34446,-0.26424 0.84286,-0.55965 1.10755,-0.65646 0.33798,-0.12362 0.43114,-0.33396 0.3129,-0.70649 -0.10326,-0.32535 -0.0482,-0.53047 0.14236,-0.53047 0.17827,0 0.2403,-0.1835 0.14552,-0.4305 -0.0983,-0.25621 0.0241,-0.57414 0.30242,-0.78533 0.44524,-0.33787 0.44446,-0.35525 -0.0164,-0.36326 -0.39611,-0.007 -0.45326,-0.14857 -0.31458,-0.77998 0.12568,-0.57218 0.054,-0.83621 -0.27753,-1.02172 -0.32197,-0.18018 -0.35883,-0.30465 -0.13177,-0.44498 0.17338,-0.10715 0.52546,-0.005 0.78241,0.22797 0.25695,0.23254 0.60664,0.4228 0.77708,0.4228 0.17044,0 0.3099,0.25086 0.3099,0.55747 0,0.39964 0.11849,0.512 0.41851,0.39687 0.23018,-0.0883 0.46831,-0.16059 0.52917,-0.16059 0.0609,0 0.11065,-0.18806 0.11065,-0.4179 0,-0.32393 0.17334,-0.37983 0.77084,-0.24859 0.62862,0.13806 0.80277,0.0687 0.94387,-0.37586 0.0952,-0.29983 0.286,-0.54515 0.42407,-0.54515 0.13806,0 0.44683,-0.41061 0.68615,-0.91245 0.33789,-0.70857 0.61775,-0.93027 1.25249,-0.99219 0.61601,-0.0601 0.8382,-0.2264 0.90192,-0.67506 0.0465,-0.32742 -0.0428,-0.59531 -0.19844,-0.59531 -0.15564,0 -0.28298,0.17057 -0.28298,0.37905 0,0.37969 -0.97796,0.84786 -1.23473,0.59109 -0.21496,-0.21496 0.1895,-1.25785 0.43015,-1.10912 0.11862,0.0733 0.19934,-0.0738 0.17939,-0.32689 -0.02,-0.25309 0.14232,-0.4762 0.3606,-0.4958 0.86135,-0.0773 0.91222,-0.11464 0.52917,-0.38825 -0.31885,-0.22775 -0.27984,-0.25783 0.19844,-0.15301 0.40082,0.0879 0.59531,0.007 0.59531,-0.24818 0,-0.4154 1.22388,-0.98716 1.60667,-0.75058 0.13164,0.0814 0.1612,-0.0557 0.0657,-0.30465 -0.14931,-0.38909 -0.0521,-0.42826 0.69294,-0.27925 0.81747,0.1635 0.8574,0.13663 0.70415,-0.47398 -0.13762,-0.54829 -0.0206,-0.71464 0.76529,-1.08755 0.92435,-0.43863 1.30767,-0.84693 0.50648,-0.53949 -0.26859,0.10307 -0.17303,-0.13338 0.26363,-0.65232 0.51723,-0.61469 0.6237,-0.92838 0.43487,-1.28121 -0.80714,-1.50816 1.35297,-3.66728 2.88764,-2.88631 0.74904,0.38118 1.75085,1.33794 1.91427,1.8282 0.16582,0.49745 1.61852,-0.0814 1.92893,-0.76855 0.14365,-0.318 0.47481,-0.57819 0.73591,-0.57819 0.2611,0 0.5191,-0.14883 0.57333,-0.33073 0.0542,-0.1819 0.18904,-0.56886 0.29958,-0.8599 0.11053,-0.29104 0.21666,-0.64823 0.23584,-0.79375 0.0192,-0.14552 0.14853,-0.24528 0.28744,-0.2217 0.1389,0.0236 0.6832,0.12316 1.20953,0.22128 0.879306,0.16392 0.967596,0.12286 1.087786,-0.5059 0.11083,-0.57975 0.0353,-0.6843 -0.49395,-0.6843 -0.37897,0 -0.624766,-0.15615 -0.624766,-0.39688 0,-0.21828 -0.0966,-0.39687 -0.2147,-0.39687 -0.11808,0 -0.45546,-0.22432 -0.74974,-0.49848 -1.60037,-1.49097 -3.17457,-0.52794 -2.92542,1.78963 0.10265,0.95488 0.0191,1.40312 -0.35345,1.89707 l -0.48785,0.64676 -0.24919,-0.66072 c -0.13705,-0.3634 -0.19339,-0.75523 -0.12518,-0.87075 0.0682,-0.11551 -0.0156,-0.37819 -0.18614,-0.58372 -0.17058,-0.20553 -0.23333,-0.49797 -0.13945,-0.64987 0.0939,-0.15189 0.0744,-0.27435 -0.0434,-0.27212 -0.41714,0.008 -0.80666,0.40071 -0.99475,1.00318 -0.23993,0.7685 -1.03929,0.66742 -1.15542,-0.1461 -0.1069,-0.74883 1.11257,-1.91947 1.99952,-1.91947 0.43101,0 0.69518,-0.18197 0.78989,-0.54413 0.0783,-0.29927 0.29176,-0.48677 0.47445,-0.41667 0.21115,0.081 0.28817,-0.0407 0.21141,-0.33424 -0.18881,-0.72204 0.53469,-1.14304 1.61579,-0.94022 0.52035,0.0976 0.9461,0.2833 0.9461,0.41263 0,0.12932 0.1744,0.23513 0.38756,0.23513 0.21316,0 0.51501,0.23813 0.67077,0.52917 0.15576,0.29104 0.45404,0.52917 0.662846,0.52917 0.2088,0 0.64372,0.35719 0.96648,0.79375 0.66405,0.89817 1.28109,1.03972 1.28109,0.29389 0,-0.27492 0.21186,-0.76149 0.4708,-1.08127 0.39446,-0.48714 0.63041,-0.55147 1.45521,-0.39674 0.54142,0.10157 0.9844,0.29049 0.9844,0.41981 0,0.12933 0.15595,0.23514 0.34655,0.23514 0.19059,0 0.99427,0.55289 1.78593,1.22865 1.0891,0.92963 1.44584,1.41256 1.46586,1.98437 0.0165,0.47112 -0.10807,0.75573 -0.33073,0.75573 -0.19646,0 -0.35719,-0.10462 -0.35719,-0.23248 0,-0.12787 -0.35719,-0.38044 -0.79375,-0.56127 -0.43656,-0.18083 -0.79375,-0.41951 -0.79375,-0.53041 0,-0.19935 -0.21944,-0.3014 -1.66914,-0.77622 -0.57575,-0.18858 -0.77724,-0.15443 -0.89468,0.15162 -0.14607,0.38065 0.7932,1.2707 1.37319,1.30123 0.14552,0.008 0.68131,0.24218 1.19063,0.52116 1.11345,0.60987 2.89004,0.75192 3.08396,0.24657 0.0742,-0.19325 0.30357,-0.28662 0.50981,-0.20748 0.20624,0.0791 0.37498,0.0213 0.37498,-0.12848 0,-0.1498 0.38695,-0.40152 0.85989,-0.55938 0.47295,-0.15785 1.27662,-0.77733 1.78594,-1.3766 0.50933,-0.59928 1.313,-1.48147 1.78594,-1.96041 0.47294,-0.47895 0.8599,-0.9998 0.8599,-1.15746 0,-0.15765 0.12756,-0.28664 0.28348,-0.28664 0.15591,0 0.46207,-0.17859 0.68036,-0.39687 0.44159,-0.4416 2.21116,-0.54747 2.21116,-0.1323 0,0.14553 -0.12162,0.26459 -0.27026,0.26459 -0.14865,0 -0.93565,0.65484 -1.74891,1.45521 -0.81325,0.80036 -1.65116,1.4552 -1.86202,1.4552 -0.21086,0 -0.3054,0.12617 -0.2101,0.28038 0.2352,0.38056 -2.0042,2.45634 -3.24254,3.00562 -0.5503,0.24409 -1.20729,0.5571 -1.45998,0.69557 -0.25269,0.13847 -0.72894,0.25932 -1.05833,0.26854 l -0.59891,0.0168 0.62552,0.25046 c 0.52202,0.20902 0.5705,0.31674 0.29302,0.65108 -0.18287,0.22034 -0.24611,0.48704 -0.14053,0.59267 0.33139,0.33155 1.47095,0.23363 1.47095,-0.1264 0,-0.20499 0.32044,-0.34302 0.79634,-0.34302 0.46892,0 0.98263,-0.21757 1.24943,-0.52917 0.2492,-0.29104 0.64349,-0.52916 0.87621,-0.52916 0.23271,0 0.88563,-0.22497 1.45093,-0.49994 0.5653,-0.27497 1.18187,-0.44082 1.37016,-0.36857 0.59537,0.22847 0.37159,0.81121 -0.4514,1.1755 -0.43656,0.19324 -0.79375,0.44135 -0.79375,0.55135 0,0.10999 -0.27781,0.19999 -0.61736,0.19999 -0.33955,0 -0.7075,0.0893 -0.81766,0.19844 -0.11016,0.10914 -0.45743,0.19844 -0.7717,0.19844 -0.35732,0 -0.57267,0.16648 -0.57478,0.44434 -0.002,0.24439 -0.0911,0.53213 -0.19844,0.63941 -0.65698,0.65699 0.59061,0.68018 2.27677,0.0423 0.59192,-0.22391 0.80231,-0.20508 0.98814,0.0885 0.12985,0.20513 0.23747,0.43248 0.23915,0.50525 0.005,0.20755 -2.19453,1.05832 -2.73587,1.05832 -0.90272,0 -2.28782,0.84051 -2.45001,1.48672 -0.087,0.34647 -0.30858,0.62995 -0.49248,0.62995 -0.37852,0 -0.69099,1.58414 -0.54798,2.77812 0.0557,0.4649 -0.0758,0.98558 -0.31737,1.25677 -0.22683,0.25466 -0.29202,0.46302 -0.14485,0.46302 0.15908,0 0.25616,0.80456 0.23944,1.98445 -0.0202,1.4262 0.0649,1.98442 0.3026,1.98437 0.1819,-4e-5 0.33073,-0.0941 0.33073,-0.20894 0,-0.11487 0.32742,-0.20417 0.72761,-0.19843 0.6002,0.009 0.74226,-0.11697 0.81132,-0.71718 0.0611,-0.53101 -0.0331,-0.7276 -0.34856,-0.7276 -0.32479,0 -0.38789,-0.14802 -0.25376,-0.59531 0.0982,-0.32743 0.3248,-0.75012 0.50358,-0.93932 0.26565,-0.28114 0.39116,-0.26437 0.68671,0.0918 0.30859,0.37183 0.30024,0.47012 -0.0569,0.66999 -0.32024,0.17922 -0.38691,0.51501 -0.28382,1.4296 0.0892,0.79173 0.0338,1.19537 -0.16426,1.19537 -0.16445,0 -0.29899,0.11906 -0.29899,0.26459 0,0.14552 0.14883,0.26459 0.33073,0.2646 0.22226,2e-5 0.34195,0.49895 0.36495,1.52136 0.0188,0.83673 0.0633,2.44386 0.0989,3.57141 0.0614,1.94566 -0.25832,3.04385 -0.7904,2.71501 -0.32081,-0.19827 -0.5338,-1.65403 -0.36528,-2.49664 0.11269,-0.56342 0.26749,-0.73103 0.56849,-0.61552 0.31051,0.11916 0.3692,0.0429 0.23541,-0.30572 -0.098,-0.25545 -0.17823,-0.51424 -0.17823,-0.5751 0,-0.0609 -0.17859,-0.11065 -0.39687,-0.11065 -0.51358,0 -0.50189,-0.23917 0.041,-0.83907 0.24854,-0.27463 0.30933,-0.48385 0.14059,-0.48385 -0.1635,0 -0.22875,-0.1786 -0.14499,-0.39688 0.0838,-0.21828 0.0371,-0.39687 -0.10374,-0.39687 -0.14082,0 -0.22298,-0.41672 -0.18256,-0.92604 0.0868,-1.09395 -0.10656,-1.15274 -0.92522,-0.28132 -0.56842,0.60506 -0.58609,0.7264 -0.28725,1.97212 0.17514,0.73006 0.35157,2.59288 0.39207,4.13959 0.0615,2.34701 0.005,2.83834 -0.33831,2.97027 -0.22657,0.087 -0.45878,0.0176 -0.51601,-0.1541 -0.16593,-0.49778 -0.69397,-0.36284 -1.10788,0.28312 -0.52501,0.81936 -0.56365,1.25678 -0.11099,1.25678 0.20997,0 0.44741,0.17107 0.52765,0.38016 0.22864,0.59585 0.89782,0.1971 2.48916,-1.48325 1.57676,-1.66495 2.66779,-2.07191 2.44614,-0.91242 -0.0663,0.34669 -0.40308,0.75909 -0.74845,0.91645 -0.82272,0.37485 -2.32112,2.43936 -2.00205,2.75843 0.14592,0.14592 0.46273,0.12346 0.7993,-0.0567 0.47289,-0.25309 0.55757,-0.22466 0.55757,0.18715 0,0.26706 -0.14089,0.62645 -0.31309,0.79865 -0.39654,0.39655 -0.19663,0.59646 0.69111,0.69111 0.3855,0.0411 0.83964,0.21346 1.0092,0.38302 0.39564,0.39564 0.29412,1.91685 -0.19024,2.85044 -0.20688,0.39876 -0.29853,0.85061 -0.20366,1.00411 0.0949,0.15349 0.18946,0.78191 0.21021,1.39649 0.0277,0.82024 -0.0746,1.14821 -0.38446,1.2332 -0.32728,0.0898 -0.29108,0.15806 0.16106,0.30383 0.44298,0.14282 0.62568,0.47091 0.75963,1.36419 0.13085,0.87253 0.2838,1.15547 0.59248,1.09602 0.32815,-0.0632 0.40226,-0.38759 0.3506,-1.53459 -0.0441,-0.97953 0.066,-1.62724 0.33721,-1.98362 0.514,-0.6754 0.52013,-0.92604 0.0227,-0.92604 -0.4169,0 -0.52425,-0.3136 -0.21367,-0.62418 0.10076,-0.10076 0.22323,-0.44548 0.27215,-0.76604 0.14948,-0.97944 0.54801,-1.1498 1.15803,-0.49503 0.36233,0.38891 0.51486,0.82444 0.43502,1.24209 -0.0676,0.35374 -0.0311,0.64316 0.0811,0.64316 0.11222,0 0.17862,0.56321 0.14755,1.25157 -0.0311,0.68837 0.1084,1.73016 0.30993,2.3151 0.20152,0.58494 0.32383,1.51001 0.27179,2.05572 -0.052,0.54571 -0.0169,0.9922 0.078,0.9922 0.52708,0 0.705,6.1844 0.19558,6.79821 -0.56986,0.68665 -0.88521,0.35671 -0.87093,-0.91123 0.0253,-2.25001 -0.32501,-6.0203 -0.65129,-7.00892 -0.21904,-0.6637 -0.43807,-0.92025 -0.69991,-0.81977 -0.2096,0.0804 -0.38109,0.31912 -0.38109,0.53042 0,0.2113 0.11906,0.3106 0.26458,0.22066 0.3772,-0.23312 0.3241,0.40886 -0.10124,1.22402 -0.26464,0.50719 -0.3231,1.32891 -0.21647,3.0427 0.25381,4.07921 0.17708,5.39057 -0.31544,5.39057 -0.53539,0 -0.73715,-0.68861 -0.81399,-2.77812 -0.0375,-1.01865 -0.0844,-2.02187 -0.10423,-2.22939 -0.0199,-0.20751 -0.44828,0.2024 -0.95202,0.91092 -0.82314,1.15777 -0.90502,1.42974 -0.80862,2.68598 0.11734,1.52915 -0.0953,1.85266 -0.92585,1.40819 -0.72303,-0.38696 -1.58297,-0.0885 -1.58297,0.54942 0,0.52751 -0.64148,0.70718 -0.91939,0.25752 -0.16943,-0.27415 0.25855,-1.13799 0.96038,-1.93842 0.76704,-0.87479 0.9353,-3.36401 0.2274,-3.36401 -0.12381,0 -0.41344,-0.0723 -0.64363,-0.1606 -0.31078,-0.11926 -0.41851,0.005 -0.41851,0.48154 0,0.35318 -0.40966,1.12074 -0.91036,1.70569 -0.50069,0.58495 -0.99145,1.38666 -1.09057,1.78159 -0.13324,0.53084 -0.32162,0.69711 -0.72257,0.63772 -0.82158,-0.12167 -0.8086,-0.56107 0.0417,-1.41136 0.42284,-0.42284 0.70497,-0.93516 0.62695,-1.13848 -0.10568,-0.2754 0.003,-0.3236 0.42733,-0.18902 0.62989,0.19992 0.74846,-0.0991 0.24068,-0.60685 -0.22162,-0.22162 -0.23873,-0.38951 -0.0526,-0.51594 0.15177,-0.10308 0.49493,-0.78273 0.76257,-1.51034 0.26764,-0.7276 0.61872,-1.4911 0.78017,-1.69667 0.21837,-0.27804 0.20885,-0.40226 -0.0372,-0.48507 -0.1819,-0.0612 -0.33073,-0.45858 -0.33073,-0.88301 0,-0.42444 -0.11906,-0.7717 -0.26459,-0.7717 -0.23773,0 -0.3664,0.39826 -0.19843,0.61421 0.0364,0.0468 -0.14222,0.2934 -0.39688,0.54806 -0.25466,0.25466 -0.46302,0.63473 -0.46302,0.84459 0,0.20986 -0.11126,0.58831 -0.24725,0.841 -0.13599,0.25268 -0.40318,0.84638 -0.59376,1.31932 -0.19057,0.47295 -0.4365,0.8599 -0.54649,0.8599 -0.11,0 -0.2,0.36013 -0.2,0.8003 0,0.61521 -0.15665,0.85986 -0.67738,1.05784 -0.37256,0.14164 -0.61199,0.36333 -0.53208,0.49264 0.25662,0.41521 -0.60651,0.89065 -1.30065,0.71643 -0.70733,-0.17753 -0.88459,-0.7848 -0.33154,-1.13583 0.18334,-0.11638 0.56646,-0.65595 0.85138,-1.19906 0.40712,-0.77606 0.44904,-1.05646 0.19582,-1.30969 -0.17722,-0.17722 -0.32222,-0.65559 -0.32222,-1.06305 0,-0.50588 -0.13565,-0.74083 -0.42773,-0.74083 -0.4239,0 -0.41752,0.30407 0.0292,1.38906 0.14606,0.35478 0.0603,0.46302 -0.36686,0.46302 -0.30661,0 -0.57784,0.14883 -0.60273,0.33073 -0.0596,0.43557 -0.13356,1.23257 -0.19028,2.05052 -0.0438,0.63218 -0.0626,0.6393 -0.42479,0.16092 -0.20841,-0.2753 -0.41823,-0.61846 -0.46627,-0.76258 -0.0509,-0.15259 -0.43612,-0.0817 -0.92244,0.16982 -0.459296,0.23751 -1.185456,0.43184 -1.613676,0.43184 -0.8217,0 -1.09978,-0.37342 -1.09978,-1.47684 0,-0.47574 -0.14402,-0.63982 -0.56156,-0.63982 -0.44495,0 -0.49922,0.0751 -0.26133,0.36177 0.22754,0.27416 0.20905,0.43745 -0.0763,0.6743 -0.20712,0.1719 -0.43835,0.21259 -0.51384,0.0904 -0.0755,-0.12216 -0.59212,-0.2485 -1.14804,-0.28076 -0.55592,-0.0323 -1.32788,-0.12389 -1.71547,-0.20362 -0.55145,-0.11343 -0.74232,-0.0264 -0.87772,0.40021 -0.18661,0.58794 -0.53471,0.70793 -0.80149,0.27626 -0.23659,-0.38281 -0.6588,-0.0529 -0.6588,0.51471 0,0.34213 0.34052,0.5745 1.19063,0.81252 0.66954,0.18746 1.19062,0.492 1.19062,0.69584 0,0.41259 -0.2108,0.42657 -1.79999,0.11934 -1.30226,-0.25175 -1.90417,0.11906 -1.90417,1.17309 0,0.34856 -0.26143,0.81067 -0.58804,1.03944 -0.32342,0.22653 -0.49896,0.41187 -0.39008,0.41187 0.10888,0 0.0132,0.35719 -0.21251,0.79375 -0.59412,1.14892 -1.02982,1.01983 -0.82754,-0.24518 z m 0.4756,-2.95932 c -0.0854,-0.3541 -0.54179,-0.75211 -0.87176,-0.7602 -0.0909,-0.002 -0.16536,0.27262 -0.16536,0.61076 0,0.46663 0.13551,0.60239 0.56224,0.5633 0.32638,-0.0299 0.52559,-0.20351 0.47488,-0.41386 z m 1.89751,-2.13954 c 0.0836,-0.31985 0.0127,-0.74945 -0.15759,-0.95467 -0.24342,-0.29331 -0.20441,-0.4501 0.18234,-0.7329 0.27061,-0.19787 0.59354,-0.29703 0.71762,-0.22034 0.26881,0.16614 0.2812,-0.0768 0.0602,-1.18164 -0.21025,-1.05125 -0.83623,-1.06854 -1.1972,-0.0331 -0.15218,0.43656 -0.38412,0.79375 -0.5154,0.79375 -0.36185,0 -0.28551,2.08583 0.092,2.51464 0.46278,0.52563 0.64261,0.48479 0.81796,-0.18577 z m -1.84149,-0.0937 c 0.0904,-0.23546 0.046,-0.34166 -0.10398,-0.24897 -0.14386,0.0889 -0.26156,0.27369 -0.26156,0.41062 0,0.38059 0.18965,0.29672 0.36554,-0.16165 z m -10.15512,-0.531 c 0,-0.20969 0.10742,-0.38126 0.2387,-0.38126 0.2154,0 0.91582,-1.6011 0.75468,-1.72514 -0.037,-0.0285 -0.50476,0.003 -1.03938,0.0695 -0.9521,0.11884 -0.97012,0.14243 -0.87797,1.14909 0.0517,0.56527 0.16997,1.15056 0.26272,1.30064 0.21901,0.35436 0.66125,0.0783 0.66125,-0.41283 z m 21.02719,-0.39289 c -0.21135,-0.34197 0.60782,-1.64469 0.91487,-1.45492 0.122636,0.0758 0.356996,-0.0237 0.520806,-0.22105 0.22563,-0.27187 0.19798,-0.44172 -0.11408,-0.7007 -0.28315,-0.235 -0.360296,-0.57677 -0.24682,-1.09344 0.12764,-0.58112 0.0691,-0.75159 -0.257856,-0.75159 -0.30734,0 -0.38182,0.16383 -0.2725,0.5994 0.11056,0.44052 -0.0604,0.80142 -0.64506,1.36153 -0.63622,0.60954 -0.74293,0.86036 -0.53296,1.25269 0.14439,0.2698 0.18423,0.49055 0.0885,0.49055 -0.0957,0 -0.0258,0.17859 0.15538,0.39687 0.37546,0.4524 0.64659,0.53636 0.38968,0.12066 z m -15.60323,-2.23661 c 0,-1.05286 -0.13354,-1.72399 -0.39688,-1.99455 -0.3565,-0.36629 -0.4701,-0.33557 -1.11688,0.30206 -0.86157,0.8494 -1.29443,2.79392 -0.70718,3.17686 0.20287,0.13229 0.78557,0.20945 1.2949,0.17147 l 0.92604,-0.0691 z m 17.594786,1.45449 c 0,-0.14552 -0.18562,-0.26458 -0.41249,-0.26458 -0.22687,0 -0.3389,0.11906 -0.24897,0.26458 0.0899,0.14552 0.27556,0.26459 0.41249,0.26459 0.13694,0 0.24897,-0.11907 0.24897,-0.26459 z m -4.762496,-0.26458 c 0,-0.14552 0.1786,-0.26458 0.39688,-0.26458 0.51076,0 0.50778,-0.37233 -0.006,-0.79906 -0.47546,-0.39459 -0.52609,-0.35433 -0.75518,0.60062 -0.10362,0.43194 -0.065,0.7276 0.0951,0.7276 0.14829,0 0.26962,-0.11906 0.26962,-0.26458 z m 16.132856,-0.25785 c 0.28734,-0.28734 0.5979,-0.82313 0.69014,-1.19063 0.0922,-0.3675 0.28874,-0.66819 0.43667,-0.66819 0.16678,0 0.19543,-0.32672 0.0754,-0.85989 -0.23028,-1.02298 -0.26038,-1.20542 -0.52381,-3.175 -0.13665,-1.02171 -0.32381,-1.52136 -0.56987,-1.52136 -0.26327,0 -0.36639,0.37231 -0.36639,1.32292 0,0.7276 -0.11487,1.32292 -0.25527,1.32292 -0.66398,0 -1.33367,2.84706 -0.75396,3.20534 0.15672,0.0969 0.31365,0.45708 0.34874,0.80049 0.0351,0.3434 0.079,0.7732 0.0976,0.9551 0.0465,0.45524 0.21266,0.41643 0.82079,-0.1917 z m -17.020136,-1.13147 c 0.56358,-1.37818 0.56388,-1.38948 0.0392,-1.47688 -0.65896,-0.10978 -1.91633,0.19001 -1.70083,0.40552 0.0877,0.0877 -0.0471,0.32748 -0.29951,0.53291 -0.30204,0.24584 -0.35546,0.41739 -0.15626,0.50187 0.16645,0.0706 0.2447,0.34991 0.17389,0.62071 -0.11947,0.45682 0.18277,0.66746 1.11097,0.77425 0.14552,0.0167 0.52015,-0.59453 0.83251,-1.35838 z m -9.91127,-0.0559 c 1.09596,-1.55484 1.54258,-2.88925 1.26978,-3.79383 -0.2074,-0.68776 -0.30804,-0.63027 -0.37114,0.21201 -0.0186,0.24837 -0.29313,0.39354 -0.73369,0.38798 -0.38717,-0.005 -0.64628,0.0844 -0.57581,0.19843 0.0705,0.11404 -0.0995,0.20734 -0.37763,0.20734 -0.45541,0 -0.50306,0.19752 -0.47863,1.98414 0.0149,1.09128 0.11888,1.98425 0.23102,1.98437 0.11214,1.3e-4 0.57839,-0.53107 1.0361,-1.18044 z m 20.162146,0.52427 c 0.36102,-0.36102 0.56099,-0.71536 0.44438,-0.78743 -0.32206,-0.19905 0.002,-1.49097 0.41348,-1.64891 0.19903,-0.0764 0.36188,-0.3011 0.36188,-0.49939 0,-0.19828 0.22782,-0.76614 0.50627,-1.2619 0.38571,-0.68673 0.48524,-1.29615 0.41794,-2.5591 -0.0493,-0.92447 -0.23052,-1.7456 -0.40979,-1.85639 -0.19633,-0.12134 -0.25565,-0.46089 -0.15239,-0.87232 0.0936,-0.3731 0.0454,-0.75006 -0.10807,-0.84493 -0.32855,-0.20305 -1.10017,0.36911 -0.91086,0.67541 0.0721,0.1166 -0.005,0.2572 -0.17032,0.31245 -0.38079,0.12693 -0.0458,1.28098 0.34725,1.19615 0.15484,-0.0334 0.3361,0.088 0.40279,0.26995 0.0667,0.1819 -0.0147,0.33073 -0.18097,0.33073 -0.16624,0 -0.23553,0.10796 -0.15398,0.23991 0.0816,0.13195 -0.09,0.1776 -0.38126,0.10143 -0.35967,-0.094 -0.52953,-0.008 -0.52953,0.26733 0,0.22319 -0.25597,0.98121 -0.56882,1.6845 -0.31285,0.70329 -0.54604,1.6359 -0.51819,2.07246 0.059,0.92572 0.21587,3.02709 0.26163,3.50573 0.0447,0.46766 0.18411,0.41877 0.92856,-0.32568 z m 9.15724,0.27515 c 0,-0.27926 -0.50777,-0.39659 -0.6588,-0.15223 -0.0914,0.1479 0.0194,0.2689 0.24631,0.2689 0.22686,0 0.41249,-0.0525 0.41249,-0.11667 z m -34.716136,-0.78272 c -0.18763,-0.20361 -0.38285,-0.33059 -0.4338,-0.28219 -0.15693,0.14908 0.24081,0.65238 0.51556,0.65238 0.14267,0 0.10588,-0.16659 -0.0818,-0.37019 z m 9.36719,-1.20644 c 0.53025,-1.36846 0.67592,-2.54709 0.35453,-2.86849 -0.0836,-0.0836 -0.49143,0.25465 -0.90632,0.75163 -0.70916,0.84945 -0.84586,1.60194 -0.59277,3.26286 0.0583,0.38242 0.86551,-0.42584 1.14456,-1.146 z m -10.18738,-0.54004 c 0.18145,-0.21828 0.3337,-0.78247 0.33833,-1.25375 0.009,-0.87522 0.7219,-2.00209 1.11394,-1.75979 0.11956,0.0739 0.21739,0.54404 0.21739,1.04478 0,1.02829 0.2411,1.13811 0.90007,0.40996 0.5754,-0.63581 0.76339,-2.46816 0.39398,-3.84005 -0.23527,-0.87374 -0.3302,-0.98113 -0.53841,-0.60908 -0.13902,0.24842 -0.42545,0.45168 -0.6365,0.45168 -0.26095,0 -0.38373,0.29149 -0.38373,0.91104 0,0.63589 -0.17402,1.03293 -0.5762,1.31463 -0.52596,0.36839 -0.60657,0.36025 -0.92429,-0.0934 -0.29888,-0.42671 -0.25528,-0.6593 0.30843,-1.64536 0.72196,-1.26286 0.79475,-1.54527 0.39831,-1.54527 -0.14552,0 -0.26458,0.19704 -0.26458,0.43788 0,0.40745 -0.0336,0.40745 -0.48385,0 -0.43347,-0.39229 -1.414,-0.66004 -1.03719,-0.28323 0.22804,0.22804 -0.65105,1.16826 -1.09231,1.16826 -0.30743,0 -0.29621,-0.0916 0.0594,-0.48449 0.24115,-0.26647 0.36301,-0.55994 0.2708,-0.65215 -0.25943,-0.25943 -1.15641,0.31516 -1.15641,0.74077 0,0.2499 -0.15794,0.32099 -0.46302,0.20843 -0.97506,-0.35975 -1.19203,-1.52701 -0.29639,-1.59448 0.6937,-0.0523 1.78748,-1.03678 2.12559,-1.91328 0.17464,-0.45272 0.31377,-0.55206 0.45443,-0.32447 0.15085,0.24408 0.32556,0.19228 0.68278,-0.20244 0.34111,-0.37693 0.40175,-0.62762 0.20951,-0.86615 -0.1488,-0.18463 -0.35299,-0.72128 -0.45375,-1.19256 -0.10076,-0.47127 -0.3115,-0.93615 -0.4683,-1.03307 -0.16938,-0.10468 -0.20848,-0.0522 -0.0963,0.12926 0.10975,0.17759 0.0272,0.30547 -0.19725,0.30547 -0.21232,0 -0.8244,0.43836 -1.36018,0.97414 -0.71351,0.71351 -0.94245,1.13995 -0.85569,1.59382 0.0651,0.34082 0.003,0.69124 -0.13889,0.77872 -0.16254,0.10045 -0.15461,0.22254 0.0215,0.33139 0.16599,0.10259 0.18715,0.32075 0.0523,0.53901 -0.18895,0.30572 -0.29936,0.2939 -0.66436,-0.0711 -0.24077,-0.24077 -0.36361,-0.55773 -0.27298,-0.70437 0.0906,-0.14664 -0.0208,-0.26661 -0.24772,-0.26661 -0.22687,0 -0.41249,0.17358 -0.41249,0.38573 0,0.62163 -2.07462,2.62458 -2.82219,2.72469 -0.52372,0.0701 -0.64818,-0.003 -0.53016,-0.31029 0.0848,-0.22106 0.0297,-0.47892 -0.12255,-0.573 -0.15922,-0.0984 -0.20751,-0.54037 -0.11367,-1.04054 l 0.16311,-0.86947 -0.90189,0.20341 c -0.49605,0.11188 -1.03501,0.28568 -1.19769,0.38622 -0.42189,0.26074 -0.36696,0.69145 0.0669,0.52494 0.59715,-0.22914 0.73703,0.64418 0.15322,0.95663 -0.41631,0.2228 -0.46742,0.38298 -0.25116,0.78707 0.14934,0.27903 0.24015,0.65968 0.2018,0.84589 -0.0473,0.22993 0.18494,0.31 0.72403,0.24957 0.96373,-0.10804 1.15653,-0.26072 0.69187,-0.54789 -0.21521,-0.13301 0.0643,-0.20613 0.72197,-0.18888 0.86619,0.0227 1.10075,0.13822 1.2164,0.59901 0.2319,0.92395 2.96199,1.20207 2.88927,0.29433 -0.0254,-0.31743 0.15788,-0.45867 0.59531,-0.45867 0.61639,0 0.67636,0.0932 0.76561,1.19062 0.0656,0.80642 0.68069,2.24896 0.95897,2.24896 0.13585,0 0.32388,-0.20836 0.41784,-0.46302 0.19639,-0.5323 0.59336,-0.85002 1.06933,-0.85585 0.61766,-0.008 0.33435,0.73143 -0.34587,0.90215 -0.43245,0.10854 -0.65686,0.3337 -0.6219,0.624 0.0301,0.2498 -0.14171,0.89684 -0.38174,1.43787 -0.53856,1.21388 -0.53877,1.20311 0.0266,1.33215 0.43919,0.10025 1.37877,-0.52138 2.10065,-1.3898 z m 12.78216,0.79375 c 0,-0.14552 -0.20836,-0.26276 -0.46302,-0.26053 -0.3957,0.003 -0.40532,0.0413 -0.0661,0.26053 0.49932,0.32269 0.52916,0.32269 0.52916,0 z m -11.17314,-0.84336 c -0.1599,-0.47972 -0.64492,-0.54742 -0.64492,-0.09 0,0.22232 0.16867,0.40422 0.37483,0.40422 0.20615,0 0.3277,-0.14138 0.27009,-0.31419 z m 20.830426,0.0496 c 0.0899,-0.14552 0.0374,-0.26458 -0.11668,-0.26458 -0.15411,0 -0.2802,0.11906 -0.2802,0.26458 0,0.14552 0.0525,0.26458 0.11668,0.26458 0.0642,0 0.19026,-0.11906 0.2802,-0.26458 z m -28.971876,-0.52917 c 0,-0.14552 -0.11906,-0.26458 -0.26458,-0.26458 -0.14552,0 -0.26458,0.11906 -0.26458,0.26458 0,0.14552 0.11906,0.26459 0.26458,0.26459 0.14552,0 0.26458,-0.11907 0.26458,-0.26459 z m 26.12773,-0.19843 c 0.0626,-0.18785 -0.10896,-0.33073 -0.397,-0.33073 -0.28041,0 -0.50711,0.18229 -0.50711,0.40778 0,0.47452 0.7415,0.41132 0.90411,-0.077 z m -6.81314,-0.49426 c 0,-0.21828 -0.11906,-0.32329 -0.26459,-0.23335 -0.14552,0.0899 -0.26458,0.34212 -0.26458,0.5604 0,0.21828 0.11906,0.32329 0.26458,0.23335 0.14553,-0.0899 0.26459,-0.34211 0.26459,-0.5604 z m 2.38125,-0.56158 c 0,-0.18327 0.1865,-0.33323 0.41445,-0.33323 0.29486,0 0.39029,-0.20692 0.33073,-0.71714 -0.0943,-0.80754 -1.06574,-1.2234 -1.88955,-0.80887 -0.40095,0.20176 -0.4519,0.43044 -0.30021,1.34753 0.10049,0.60749 0.23402,1.19138 0.29674,1.29754 0.16558,0.28027 1.14784,-0.3922 1.14784,-0.78583 z m 8.466666,0.24004 c 0,-0.26679 -0.0858,-0.57083 -0.19059,-0.67565 -0.10481,-0.10482 -0.15546,-0.59819 -0.11254,-1.09638 0.0959,-1.11261 -0.17297,-2.04027 -0.52771,-1.82102 -0.14497,0.0896 -0.20437,0.31719 -0.132,0.50577 0.0724,0.18858 -0.0981,0.77142 -0.37884,1.29519 -0.65752,1.22679 -0.6429,1.55689 0.0849,1.91735 0.90043,0.44595 1.25677,0.41043 1.25678,-0.12526 z m -5.405056,-0.15749 c 0.20788,-0.20789 0.37797,-0.53644 0.37797,-0.73011 0,-0.19367 0.23813,-0.50084 0.52917,-0.6826 0.57543,-0.35936 0.73879,-1.7527 0.24153,-2.06002 -0.1582,-0.0978 -0.22706,-0.40939 -0.15303,-0.69248 0.0954,-0.3649 0.0151,-0.49098 -0.27589,-0.43316 -0.59195,0.1176 -0.68105,1.81997 -0.117,2.23556 0.39819,0.29338 0.39003,0.33675 -0.0925,0.49202 -1.25751,0.40465 -1.63059,0.9547 -1.27538,1.88037 0.17768,0.46303 0.29395,0.46157 0.76511,-0.01 z m 13.728126,-0.13291 c 0.0837,-0.13547 0.0312,-0.32109 -0.11668,-0.41249 -0.14789,-0.0914 -0.26889,-0.41187 -0.26889,-0.71214 0,-0.45529 0.0659,-0.49125 0.39687,-0.21657 0.33608,0.27892 0.4043,0.21296 0.44534,-0.43062 0.0267,-0.41801 0.035,-1.02098 0.0184,-1.33994 -0.0207,-0.40083 0.0868,-0.53508 0.34841,-0.43471 0.20814,0.0799 0.37843,0.0134 0.37843,-0.14767 0,-0.16109 -0.1294,-0.29289 -0.28756,-0.29289 -0.19306,0 -0.24105,-0.60627 -0.14602,-1.84496 0.0801,-1.0439 0.0326,-1.91227 -0.10931,-1.99999 -0.13797,-0.0853 -0.25086,-0.38613 -0.25086,-0.66859 0,-0.28245 -0.11746,-0.51355 -0.26103,-0.51355 -0.37115,0 -0.95016,1.50117 -1.17529,3.04711 -0.10561,0.72518 -0.41091,1.69525 -0.67844,2.1557 -0.50763,0.87368 -0.6883,1.95256 -0.49118,2.93313 0.0611,0.30393 0.85673,0.82755 1.06339,0.69983 0.10069,-0.0622 0.25786,0.008 0.34926,0.15575 0.20766,0.336 0.58472,0.34685 0.78512,0.0226 z m -38.253236,-0.52192 c 0.41621,-0.26362 0.17752,-0.81928 -0.35193,-0.81928 -0.38701,0 -0.73203,0.64768 -0.47954,0.90017 0.21215,0.21215 0.39725,0.19414 0.83147,-0.0809 z m 12.13694,-0.35626 c -0.0401,-0.20026 0.21308,-0.32722 0.64169,-0.32183 0.38931,0.005 0.65316,-0.0796 0.58634,-0.18768 -0.0668,-0.10811 0.0266,-0.43374 0.20767,-0.72362 0.35207,-0.56376 0.0625,-1.89584 -0.44352,-2.04031 -0.27704,-0.0791 -1.74513,2.70026 -1.72906,3.27344 0.005,0.1819 0.18786,0.33073 0.40615,0.33073 0.21828,0 0.36711,-0.14883 0.33073,-0.33073 z m 31.551556,-0.18282 c 0,-0.13693 -0.12718,-0.32757 -0.28262,-0.42364 -0.15544,-0.0961 -0.22258,-0.33115 -0.14919,-0.52239 0.0734,-0.19125 0.038,-0.68523 -0.0787,-1.09772 l -0.21213,-0.74999 -0.19298,0.96918 c -0.22922,1.15122 0.009,2.07353 0.53657,2.07353 0.20847,0 0.37904,-0.11204 0.37904,-0.24897 z m -27.754216,-1.07395 c 0.51604,0 1.15409,-1.48038 0.7466,-1.73223 -0.38455,-0.23766 -0.0166,-0.64902 0.58051,-0.64902 0.29107,0 0.45439,-0.12099 0.36298,-0.2689 -0.0914,-0.14789 -0.28978,-0.19252 -0.44083,-0.0992 -0.17121,0.10582 -0.21377,-0.0221 -0.11301,-0.33955 0.14345,-0.45196 0.0519,-0.49647 -0.81357,-0.39543 -0.53637,0.0626 -1.21522,0.33744 -1.50855,0.61072 -0.47178,0.43953 -0.49675,0.598 -0.21641,1.37327 0.1743,0.48203 0.31691,1.15966 0.31691,1.50586 0,0.48956 0.0706,0.55888 0.3175,0.31194 0.17463,-0.17463 0.52017,-0.3175 0.76787,-0.3175 z m -21.72287,0.14791 c 0,-0.0642 -0.11906,-0.19027 -0.26458,-0.2802 -0.14552,-0.0899 -0.26458,-0.0374 -0.26458,0.11667 0,0.15411 0.11906,0.2802 0.26458,0.2802 0.14552,0 0.26458,-0.0525 0.26458,-0.11667 z m 17.34285,-1.11259 c 0.84221,-0.90877 0.81803,-1.07698 -0.14659,-1.0196 -1.01409,0.0603 -1.1209,0.18106 -0.90857,1.02702 0.21502,0.85672 0.25456,0.85645 1.05516,-0.007 z m 19.434236,0.18127 c 0,-0.12266 0.47625,-1.22988 1.05833,-2.4605 0.58209,-1.23062 1.05834,-2.42873 1.05834,-2.66248 0,-0.54853 -0.95367,-1.0916 -1.20443,-0.68586 -0.098,0.15859 -0.4029,0.22959 -0.67752,0.15778 -0.31057,-0.0812 -0.4993,0.007 -0.4993,0.23323 0,0.20009 0.15951,0.30259 0.35448,0.22777 0.19497,-0.0748 0.49566,0.0341 0.66821,0.24199 0.24834,0.29923 0.22261,0.41298 -0.12344,0.54577 -0.24044,0.0923 -0.58082,0.0485 -0.7564,-0.0972 -0.37045,-0.30744 -0.4396,0.0313 -0.37635,1.84332 0.0229,0.65484 0.0336,1.63892 0.024,2.18684 -0.01,0.55029 0.0925,0.92821 0.22826,0.84428 0.13521,-0.0836 0.24585,-0.25229 0.24585,-0.37495 z m -2.95683,-1.13482 c 0.28604,-1.05424 0.18896,-1.25677 -0.60235,-1.25677 -0.639846,0 -1.107296,0.65834 -0.662596,0.93318 0.13917,0.086 0.25303,0.38748 0.25303,0.66993 0,0.84265 0.759886,0.58257 1.011916,-0.34634 z m -7.891086,-0.0818 c 0,-0.22687 -0.11906,-0.33891 -0.26458,-0.24897 -0.14552,0.0899 -0.26459,0.27556 -0.26459,0.41249 0,0.13693 0.11907,0.24897 0.26459,0.24897 0.14552,0 0.26458,-0.18562 0.26458,-0.41249 z m 2.98686,-0.31008 c 0.1292,-0.67587 0.11409,-0.68971 -0.23374,-0.21402 -0.42516,0.58144 -0.47754,0.93659 -0.13813,0.93659 0.12856,0 0.2959,-0.32516 0.37187,-0.72257 z m -28.65144,0.1934 c 0,-0.14552 -0.0525,-0.26458 -0.11668,-0.26458 -0.0642,0 -0.19026,0.11906 -0.2802,0.26458 -0.0899,0.14552 -0.0374,0.26459 0.11668,0.26459 0.15411,0 0.2802,-0.11907 0.2802,-0.26459 z m 41.426226,-1.3797 c 0.10095,-1.07331 0.21285,-1.58476 0.42173,-1.92759 0.0887,-0.14552 0.15972,-0.61248 0.15792,-1.0377 -0.002,-0.44246 0.20063,-0.92222 0.47348,-1.12173 0.43726,-0.31973 0.40711,-0.36255 -0.3638,-0.51673 -0.58572,-0.11714 -0.84056,-0.31852 -0.84056,-0.6642 0,-0.27286 0.14883,-0.49988 0.33073,-0.50451 0.5191,-0.0132 -0.63618,-0.78534 -1.17505,-0.78534 -0.58744,0 -0.63008,0.41443 -0.065,0.63128 0.2275,0.0873 0.33632,0.28385 0.2418,0.43678 -0.0945,0.15292 -0.0411,0.43562 0.11879,0.62822 0.36784,0.44322 -0.31805,1.09639 -0.82879,0.78925 -0.27272,-0.164 -0.27703,-0.12513 -0.0212,0.19115 0.17659,0.21835 0.38747,1.16394 0.46861,2.10131 0.13791,1.59322 0.59883,3.0498 0.87704,2.7716 0.0674,-0.0674 0.15933,-0.5137 0.20429,-0.99179 z m -30.374426,0.56746 c 0.90417,-0.31519 1.31861,-1.01456 0.79726,-1.34537 -0.60868,-0.38621 -0.98045,-0.23738 -1.39123,0.55697 -0.61727,1.19368 -0.60715,1.20712 0.59397,0.7884 z m 20.03674,0.0185 c 0.0899,-0.14552 0.0374,-0.26458 -0.11668,-0.26458 -0.15411,0 -0.2802,0.11906 -0.2802,0.26458 0,0.14552 0.0525,0.26459 0.11668,0.26459 0.0642,0 0.19026,-0.11907 0.2802,-0.26459 z m -16.49561,-1.32291 c 0.19912,0 0.20446,-0.10248 0.0172,-0.33073 -0.43282,-0.52764 -0.48016,-1.67424 -0.0886,-2.14603 0.75326,-0.90763 -0.2925,-0.27937 -1.60639,0.96505 -0.27448,0.25997 -0.41755,0.60455 -0.31793,0.76574 0.0996,0.16118 0.17166,0.62593 0.16009,1.03277 -0.0272,0.95747 0.73905,1.16109 1.20789,0.32097 0.18655,-0.33428 0.46902,-0.60777 0.62771,-0.60777 z m 3.93778,0.78387 c 0.28561,-0.28561 0.3932,-0.51929 0.23909,-0.51929 -0.15411,0 -0.20787,-0.11704 -0.11946,-0.26008 0.22022,-0.35632 -0.13218,-2.12117 -0.42354,-2.12117 -0.12932,0 -0.23514,0.22355 -0.23514,0.49677 0,0.60333 -0.82729,1.3789 -0.98175,0.92038 -0.0561,-0.16645 -0.32719,-0.24374 -0.60248,-0.17175 -0.37633,0.0984 -0.47668,0.3194 -0.4044,0.89052 0.13341,1.05414 0.23869,1.16364 1.18043,1.22764 0.52817,0.0359 1.01598,-0.13175 1.34725,-0.46302 z m -13.0129,-1.22707 c -0.38883,-0.46851 -0.83404,-0.0698 -0.6008,0.538 0.13426,0.34986 0.25267,0.38081 0.54111,0.14143 0.28534,-0.23682 0.2989,-0.39119 0.0597,-0.67943 z m 28.495156,-0.002 c -0.2017,-1.11236 -0.74799,-1.53179 -1.435696,-1.10231 -0.30948,0.19328 -0.56269,0.61288 -0.56269,0.93246 0,0.45726 0.18319,0.60378 0.859896,0.68776 0.47294,0.0587 0.95152,0.12577 1.06351,0.14906 0.11198,0.0233 0.14573,-0.27685 0.075,-0.66697 z m -8.205786,-0.10111 c 0.0956,-0.15469 -0.042,-0.51977 -0.30585,-0.81129 -0.45392,-0.50158 -0.49791,-0.50507 -0.81966,-0.065 -0.18701,0.25574 -0.34001,0.62082 -0.34001,0.81129 0,0.41354 1.21676,0.46754 1.46552,0.065 z m -31.17616,-2.1092 c 0.17576,-0.14046 0.44365,-0.25538 0.59531,-0.25538 0.16003,0 0.27575,-0.65324 0.27575,-1.55664 0,-1.33413 0.0756,-1.57642 0.52917,-1.69502 0.4209,-0.11007 0.52916,-0.008 0.52916,0.4983 0,0.78272 0.0735,0.78546 1.1352,0.0423 0.46705,-0.32693 0.90002,-0.62581 0.96216,-0.66419 0.25267,-0.15605 -0.91006,-0.7894 -1.22638,-0.66802 -0.18799,0.0721 -0.34181,0.0143 -0.34181,-0.12865 0,-0.33167 -1.34077,-0.60553 -2.05286,-0.41932 -0.70272,0.18377 -0.95202,1.13793 -0.44398,1.6993 0.34842,0.385 0.3479,0.47271 -0.004,0.76518 -0.29241,0.24268 -0.60347,0.25871 -1.1723,0.0604 -0.66647,-0.23233 -0.85529,-0.18367 -1.35616,0.34948 -0.59496,0.6333 -0.52737,1.27301 0.10871,1.02892 0.53198,-0.20414 0.71664,0.92297 0.28726,1.75331 -0.54473,1.0534 -0.18514,1.15007 0.90159,0.24236 0.52476,-0.43831 1.09792,-0.91185 1.27367,-1.05231 z m 11.31204,0.60928 c 0.64136,-0.68861 1.11238,-1.30575 1.0467,-1.37143 -0.0657,-0.0657 -0.25747,0.0187 -0.42621,0.18738 -0.19836,0.19836 -0.41438,0.21751 -0.61118,0.0542 -0.19561,-0.16234 -0.60445,-0.13936 -1.14401,0.0643 -0.73916,0.27901 -0.83961,0.4366 -0.83961,1.31725 0,1.37036 0.526,1.3033 1.97431,-0.25168 z m 14.69444,0.97896 c 0.0728,-0.0263 0.36727,-0.0649 0.65447,-0.0858 0.28719,-0.0209 0.76344,-0.42705 1.05833,-0.90253 0.31727,-0.51158 0.8346,-0.93042 1.26719,-1.02595 0.73841,-0.16306 1.2209,-1.09175 0.86576,-1.66638 -0.22675,-0.36689 0.19749,-0.35488 1.04103,0.0295 0.55237,0.25168 0.73895,0.23473 1.00464,-0.0913 0.17946,-0.22018 0.71464,-0.66603 1.18929,-0.99076 0.47466,-0.32474 0.79805,-0.69554 0.71864,-0.82402 -0.0794,-0.12847 0.006,-0.47358 0.18871,-0.76691 0.26282,-0.42085 0.26471,-0.60168 0.009,-0.85743 -0.17826,-0.17826 -0.32411,-0.66421 -0.32411,-1.0799 v -0.75579 l -0.82172,0.47798 c -0.9469,0.55079 -1.38384,1.43223 -1.32144,2.66579 0.0291,0.57603 -0.0968,0.91881 -0.37696,1.02633 -0.23362,0.0896 -0.35503,0.33258 -0.27303,0.54628 0.0898,0.23407 0.018,0.3404 -0.18323,0.2714 -0.182,-0.0624 -0.33014,-0.48275 -0.32919,-0.93414 10e-4,-0.56036 -0.1453,-0.85915 -0.46176,-0.9419 -0.37504,-0.0981 -0.43301,2.3e-4 -0.30377,0.51515 0.13879,0.55297 0.0672,0.63636 -0.54604,0.63636 -0.49419,0 -0.64619,0.0992 -0.50706,0.33073 0.2762,0.45974 -0.6773,-0.30989 -1.39195,-1.12353 -0.34893,-0.39726 -0.47289,-0.72679 -0.31104,-0.82682 0.60222,-0.37219 -0.42586,-0.54567 -1.37581,-0.23216 -0.88534,0.29219 -1.49028,0.96394 -1.52706,1.69571 -0.007,0.13244 -0.20137,0.34671 -0.43269,0.47616 -0.23132,0.12946 -0.42058,0.42124 -0.42058,0.64841 0,0.30121 0.13819,0.24392 0.51038,-0.21158 0.34124,-0.41762 0.59888,-0.53694 0.77738,-0.36004 0.34639,0.34326 0.59944,2.46061 0.31508,2.63635 -0.16845,0.10411 -0.20231,1.57485 -0.0444,1.92605 0.0268,0.0595 1.0484,-0.0956 1.35192,-0.20524 z m 0.52916,-3.18215 c 0,-0.15411 -0.11906,-0.20662 -0.26458,-0.11668 -0.40185,0.24836 -0.3161,-0.28932 0.10139,-0.63581 0.28327,-0.2351 0.40286,-0.20763 0.52917,0.12153 0.23483,0.61196 0.20154,0.91116 -0.10139,0.91116 -0.14552,0 -0.26459,-0.12609 -0.26459,-0.2802 z m 0.8599,-0.68878 c -0.46069,-0.18589 -0.41442,-0.61852 0.0662,-0.61852 0.21828,0 0.39688,0.17859 0.39688,0.39687 0,0.21828 -0.0298,0.38748 -0.0661,0.37599 -0.0364,-0.0115 -0.21498,-0.0809 -0.39688,-0.15434 z m 8.58443,3.54866 c 1.19659,-2.60617 1.47477,-3.10885 1.7204,-3.10885 0.17618,0 0.23264,-0.48957 0.15257,-1.32292 -0.0831,-0.86437 -0.0259,-1.32348 0.164766,-1.32454 0.16054,-9e-4 -0.0491,-0.17949 -0.465946,-0.39688 -0.95117,-0.49607 -0.82269,-0.52233 -1.6127,0.32966 -0.74669,0.80527 -0.86483,1.82089 -0.30144,2.59137 0.32512,0.44463 0.3115,0.54848 -0.11079,0.84426 -0.26484,0.1855 -0.69046,0.2571 -0.94583,0.1591 -0.37553,-0.1441 -0.42674,-0.0809 -0.26784,0.33079 0.10805,0.27992 0.3363,0.95544 0.50722,1.50114 0.35299,1.12697 0.76036,1.2664 1.15959,0.39687 z m -7.06308,-0.0818 c 0,-0.22687 -0.11906,-0.3389 -0.26458,-0.24897 -0.14552,0.0899 -0.26458,0.27556 -0.26458,0.41249 0,0.13694 0.11906,0.24897 0.26458,0.24897 0.14552,0 0.26458,-0.18562 0.26458,-0.41249 z m -6.61458,-1.60239 c 0,-0.18432 -0.12013,-0.40938 -0.26695,-0.50012 -0.45885,-0.28359 -1.32055,0.14624 -1.32055,0.6587 0,0.26911 -0.14883,0.54934 -0.33073,0.62274 -0.19757,0.0797 -0.14431,0.14186 0.13229,0.15434 0.25467,0.0115 0.46302,0.16071 0.46302,0.33159 0,0.17089 0.29766,0.0311 0.66146,-0.3107 0.3638,-0.34178 0.66146,-0.77222 0.66146,-0.95655 z m -18.84382,0.80893 c 0.32367,-0.22671 0.70735,-0.33875 0.85262,-0.24897 0.37945,0.23452 0.32621,-0.49009 -0.0666,-0.90648 -0.22279,-0.23616 -0.23806,-0.38507 -0.0468,-0.45625 0.15762,-0.0587 0.2296,-0.47605 0.16178,-0.93815 -0.1137,-0.77463 -0.14721,-0.79824 -0.4824,-0.33985 -0.19812,0.27095 -0.36328,0.38057 -0.36702,0.24362 -0.004,-0.13696 -0.3069,0.3354 -0.67368,1.04967 -0.9083,1.76883 -0.63295,2.47546 0.62208,1.59641 z m 37.100066,-0.26487 c 0,-0.22687 -0.121,-0.33771 -0.2689,-0.2463 -0.14789,0.0914 -0.2004,0.27702 -0.11667,0.41249 0.22681,0.36699 0.38557,0.29856 0.38557,-0.16619 z m -8.280406,-0.76694 c -0.32072,-0.50316 -0.73899,-0.91988 -0.92947,-0.92604 -0.19049,-0.006 -0.26454,0.12118 -0.16454,0.28297 0.1,0.16179 0.0254,0.39084 -0.16581,0.509 -0.54801,0.33869 0.1926,1.04892 1.09378,1.04892 h 0.74917 z m -24.46178,-1.03859 c 0.30254,0.0899 0.46302,-0.006 0.46302,-0.27714 0,-0.22809 -0.11906,-0.41471 -0.26458,-0.41471 -0.1467,0 -0.26458,-0.70035 -0.26458,-1.57188 0,-0.86454 -0.0904,-1.62773 -0.2008,-1.69599 -0.284,-0.17552 -1.91106,1.32811 -1.69611,1.56746 0.0974,0.10847 -0.039,0.11947 -0.30321,0.0244 -0.40613,-0.14609 -0.447,-0.0811 -0.26458,0.42087 0.11866,0.3265 0.20122,1.18896 0.18348,1.91656 -0.0177,0.7276 0.0936,1.4031 0.24743,1.5011 0.15383,0.098 0.58507,-0.22376 0.9583,-0.71504 0.45682,-0.60128 0.82995,-0.84827 1.14163,-0.75567 z m 11.31094,-0.0619 c 0,-0.22817 -0.24004,-0.47763 -0.53342,-0.55435 -0.29338,-0.0767 -0.50174,-0.29589 -0.46302,-0.48704 0.0387,-0.19116 -0.0487,-0.3256 -0.19418,-0.29876 -0.14552,0.0268 -0.23482,0.13809 -0.19844,0.24723 0.0364,0.10914 -0.11472,0.19844 -0.33577,0.19844 -0.38346,0 -0.37714,0.50696 0.0224,1.79519 0.14898,0.48037 1.70245,-0.34152 1.70245,-0.90071 z m 20.967156,-0.49595 c -0.0768,-0.40153 -0.25197,-0.57479 -0.48921,-0.48375 -0.4425,0.1698 -0.43928,0.13212 -0.0898,1.05122 0.33011,0.86825 0.77093,0.43625 0.57905,-0.56747 z m 4.37993,0.87147 c 0.45996,-0.45997 0.39343,-1.71341 -0.10102,-1.90315 -0.64527,-0.24761 -1.09353,-0.18847 -0.65844,0.0869 0.47785,0.30239 0.59112,1.02926 0.25753,1.65258 -0.29084,0.54343 0.0206,0.645 0.50193,0.16369 z m -31.624326,-0.14214 c 0.16894,0.23825 0.20002,0.21933 0.1142,-0.0695 -0.0649,-0.21828 0.0391,-0.57819 0.23106,-0.79979 0.22264,-0.25706 0.2638,-0.54071 0.11371,-0.78356 -0.19052,-0.30827 -0.34403,-0.24235 -0.8074,0.34673 -0.41821,0.53167 -0.66099,0.65364 -0.90235,0.45333 -0.23235,-0.19283 -0.57715,-0.15084 -1.16359,0.14172 -1.00218,0.49995 -1.07664,0.74976 -0.17193,0.57682 0.3638,-0.0695 0.66146,-0.0322 0.66146,0.083 0,0.11519 0.38086,0.1002 0.84637,-0.0333 0.60768,-0.17428 0.91182,-0.15042 1.07847,0.0846 z m 21.2262,-0.0695 c 0.0899,-0.14552 0.0374,-0.26458 -0.11668,-0.26458 -0.15411,0 -0.2802,0.11906 -0.2802,0.26458 0,0.14552 0.0525,0.26459 0.11668,0.26459 0.0642,0 0.19026,-0.11907 0.2802,-0.26459 z m -18.77264,-0.96287 0.62139,-0.62139 -0.66718,-0.16746 c -0.76891,-0.19298 -1.02219,0.0116 -1.25902,1.01707 -0.13916,0.59083 -0.0929,0.69109 0.25685,0.55687 0.23461,-0.09 0.70619,-0.44332 1.04796,-0.78509 z m 6.26708,0.0505 c 0.0681,-0.35631 0.01,-0.76221 -0.13031,-0.90199 -0.13979,-0.13979 -0.28157,-0.60259 -0.31507,-1.02844 -0.0682,-0.86656 -0.32373,-1.39048 -0.67825,-1.39048 -0.30254,0 -0.0467,2.58894 0.33333,3.37344 0.37393,0.77185 0.63604,0.75443 0.7903,-0.0525 z m 21.239476,0.37894 c 0.0914,-0.14789 0.30679,-0.18457 0.47863,-0.0815 0.20364,0.12213 0.19389,0.041 -0.028,-0.23296 -0.39386,-0.48629 -1.37933,-0.33101 -1.37933,0.21734 0,0.42346 0.68289,0.49487 0.92871,0.0971 z m -32.849326,-0.91727 c 0.0863,-0.22479 0.32567,-0.32522 0.56048,-0.23512 0.29649,0.11377 0.36463,0.0393 0.24629,-0.26904 -0.09,-0.23449 -0.0518,-0.42634 0.0849,-0.42634 0.5271,0 0.78073,-1.68762 0.44833,-2.98313 -0.17829,-0.69483 -0.33574,-1.34968 -0.34989,-1.4552 -0.0241,-0.17949 -0.17222,-0.19755 -0.81411,-0.0993 -0.14257,0.0218 -0.51075,0.53275 -0.81819,1.13538 -0.45688,0.89556 -0.52076,1.31844 -0.3497,2.31511 0.11511,0.67067 0.22754,1.398 0.24985,1.61628 0.0713,0.69814 0.11413,0.79375 0.35518,0.79375 0.12996,0 0.30404,-0.17659 0.38686,-0.39242 z m 32.424786,-0.77977 c 0.47936,-0.35366 1.03828,-0.57904 1.24203,-0.50086 0.36896,0.14159 0.51605,-0.44743 0.40558,-1.62412 -0.0268,-0.28548 0.0281,-0.7022 0.12195,-0.92605 0.0939,-0.22384 0.20345,-0.7509 0.24351,-1.17124 0.0531,-0.55713 0.003,-0.66469 -0.18401,-0.39688 -0.19813,0.28339 -0.28753,0.29177 -0.39105,0.0366 -0.20364,-0.50186 -0.5628,-0.39627 -0.75944,0.22327 -0.0967,0.3047 -0.54605,1.10256 -0.99854,1.77302 -0.75026,1.11168 -1.12455,2.5134 -0.80792,3.02572 0.17061,0.27605 0.14389,0.28647 1.12789,-0.43951 z m -27.426706,-0.32891 c 0.65525,-0.1318 0.71519,-0.23661 0.61184,-1.06986 -0.063,-0.50807 -0.1645,-0.97368 -0.22553,-1.03471 -0.23072,-0.23073 -0.96659,0.23482 -1.11619,0.70616 -0.0857,0.27016 -0.37508,0.56076 -0.64297,0.64578 -0.26788,0.085 -0.55154,0.40114 -0.63034,0.70247 -0.12582,0.48114 -0.0568,0.52647 0.56675,0.37208 0.39051,-0.0967 1.03691,-0.24156 1.43644,-0.32192 z m 8.81758,-0.35098 c 0.25611,0 0.3782,-0.14669 0.29739,-0.35728 -0.0947,-0.24682 0.1,-0.36402 0.62962,-0.37908 0.91536,-0.026 1.36933,-0.2651 1.15669,-0.60916 -0.0852,-0.13784 -0.26573,-0.18212 -0.40119,-0.0984 -0.13547,0.0837 -0.2463,-0.0818 -0.2463,-0.36779 0,-0.38975 -0.13256,-0.48535 -0.52917,-0.38163 -0.29104,0.0761 -0.52917,0.0183 -0.52917,-0.12838 0,-0.3472 -1.23181,-0.65329 -1.84537,-0.45855 -0.64418,0.20446 -0.86617,1.46704 -0.35758,2.03369 0.25986,0.28952 0.33215,0.65332 0.20772,1.04536 -0.18785,0.59186 -0.18007,0.59423 0.49601,0.15125 0.37777,-0.24752 0.88238,-0.45004 1.12135,-0.45004 z m -5.52284,-0.0662 c 0.0682,0.1819 0.24015,0.33073 0.38213,0.33073 0.14198,0 0.16723,-0.14711 0.0561,-0.32692 -0.11113,-0.17981 -0.16659,-0.74535 -0.12325,-1.25677 0.0433,-0.51142 -0.0106,-0.84159 -0.11996,-0.73371 -0.10931,0.10788 -0.38082,0.0483 -0.60336,-0.13229 -0.34002,-0.27601 -0.37639,-0.25317 -0.22783,0.14305 0.13051,0.34809 3.2e-4,0.53858 -0.4974,0.72781 -0.54387,0.20679 -0.63827,0.37134 -0.48845,0.85143 0.26442,0.84728 0.71752,1.05612 1.13695,0.52402 0.26009,-0.32996 0.39576,-0.36558 0.48507,-0.12735 z m 1.4028,0.0662 c 0,-0.14553 -0.11906,-0.26459 -0.26459,-0.26459 -0.14552,0 -0.26458,0.11906 -0.26458,0.26459 0,0.14552 0.11906,0.26458 0.26458,0.26458 0.14553,0 0.26459,-0.11906 0.26459,-0.26458 z m 19.975286,-0.17602 c 0.21854,-0.29886 0.25183,-0.7457 0.10349,-1.38906 -0.12028,-0.52166 -0.158,-1.14681 -0.0838,-1.38922 0.0742,-0.24242 0.0269,-0.5075 -0.1051,-0.58907 -0.39742,-0.24562 -1.17439,0.83238 -1.11732,1.55022 0.0293,0.36863 0.0739,1.02742 0.0992,1.46398 0.0511,0.88377 0.58953,1.05607 1.10352,0.35315 z m -10.648726,7.9e-4 c -0.1819,-0.0734 -0.33073,-0.25533 -0.33073,-0.4043 0,-0.14896 0.16409,-0.20787 0.36464,-0.13092 0.51863,0.19902 0.95828,-0.33415 0.95828,-1.16216 0,-0.76877 0.54338,-1.38309 1.10857,-1.2533 0.19475,0.0447 1.06678,-0.43798 1.93786,-1.07268 0.87108,-0.63469 1.37923,-1.08595 1.12923,-1.0028 -0.59009,0.19627 -0.87184,-0.26936 -0.46188,-0.76333 0.2564,-0.30894 0.23907,-0.38528 -0.0875,-0.38528 -0.22397,0 -0.46858,-0.14883 -0.54358,-0.33073 -0.0927,-0.22474 -0.33638,-0.11343 -0.76051,0.34735 -0.34328,0.37294 -0.83997,0.7609 -1.10376,0.86212 -0.29187,0.112 -0.41709,0.33854 -0.31988,0.57869 0.0879,0.21706 0.23202,0.57324 0.32035,0.79152 0.0883,0.21829 0.0288,0.39688 -0.1323,0.39688 -0.16109,0 -0.27879,-0.0893 -0.26155,-0.19844 0.12393,-0.7849 -0.0692,-0.92449 -1.08967,-0.78762 -1.15983,0.15557 -1.26091,0.0609 -0.65278,-0.61103 0.22306,-0.24648 0.42421,-0.7321 0.447,-1.07917 0.0517,-0.78792 -0.3271,-2.61541 -0.54218,-2.61541 -0.37639,0 -2.63712,2.48001 -2.52561,2.77059 0.0675,0.1758 -0.0614,0.47235 -0.28626,0.659 -0.22491,0.18666 -0.40892,0.45843 -0.40892,0.60396 0,0.16711 0.12539,0.16052 0.34037,-0.0179 0.26034,-0.21607 0.35295,-0.13037 0.39391,0.36448 0.0294,0.35582 -0.0642,0.64696 -0.20808,0.64696 -0.14389,0 -0.26162,0.11532 -0.26162,0.25627 0,0.14096 0.1786,0.18775 0.39688,0.10399 0.29888,-0.11469 0.39687,0.0453 0.39687,0.64812 0,1.06608 0.24069,1.63745 0.68977,1.63745 0.20271,0 0.36857,0.22939 0.36857,0.50977 0,0.28037 0.20836,0.56421 0.46302,0.63076 0.63449,0.16581 1.06622,0.17048 0.66146,0.007 z m -29.4349,-0.98178 c 0,-0.16408 -0.29765,-0.29833 -0.66145,-0.29833 -0.70873,0 -0.85502,0.36206 -0.35026,0.86683 0.34546,0.34546 1.01171,-0.0289 1.01171,-0.5685 z m 36.69375,-0.69521 c 0.40797,0 0.87301,-1.01852 0.68762,-1.50599 -0.066,-0.17346 -0.15243,-0.70924 -0.19214,-1.19063 -0.0397,-0.48139 -0.0892,-1.03014 -0.10988,-1.21945 -0.0248,-0.22624 -0.3527,-0.10392 -0.95692,0.35695 -0.91144,0.69519 -0.91799,0.71496 -0.77141,2.32857 0.20007,2.20246 0.34715,2.58568 0.70073,1.82586 0.15237,-0.32742 0.44127,-0.59531 0.642,-0.59531 z m -29.58206,-0.0817 c 0.57428,-0.52473 0.9903,-1.17143 1.03847,-1.61428 0.11094,-1.02008 -0.53208,-0.77603 -0.86366,0.32779 -0.31339,1.04326 -0.77588,0.95279 -0.88711,-0.17354 -0.0628,-0.63611 -0.21138,-0.83952 -0.61315,-0.83952 -0.4337,0 -0.49323,0.10837 -0.32697,0.59531 0.1118,0.32743 0.224,0.92274 0.24934,1.32292 0.0994,1.56925 0.10216,1.57001 1.40308,0.38132 z m 7.47342,-0.51361 c 1.20412,-1.16967 1.38767,-1.67511 0.82444,-2.27029 -0.18324,-0.19363 -0.27322,-0.44905 -0.19996,-0.56759 0.0733,-0.11854 -0.0522,-0.28669 -0.27892,-0.37367 -0.22667,-0.087 -0.34328,-0.26954 -0.25914,-0.40569 0.0841,-0.13614 -0.11667,-0.28581 -0.44625,-0.33259 -0.76442,-0.10852 -1.60919,0.81662 -1.19839,1.31239 0.19908,0.24025 0.19018,0.64231 -0.0305,1.37893 -0.3049,1.01768 -0.17406,2.38299 0.22837,2.38299 0.11152,0 0.72369,-0.50602 1.36038,-1.12448 z m 32.643016,-2.91023 c 0,-0.98216 -0.0893,-1.78583 -0.19844,-1.78593 -0.10914,-1.1e-4 -0.19843,-0.17879 -0.19843,-0.39707 0,-0.21828 -0.11907,-0.39687 -0.26459,-0.39687 -0.14552,0 -0.26458,0.24515 -0.26458,0.54478 0,0.34856 -0.11149,0.47587 -0.30955,0.35347 -0.20211,-0.12492 -0.25609,-0.052 -0.15552,0.21006 0.0857,0.22326 -0.0686,0.592 -0.34772,0.83097 -0.40554,0.34724 -0.45181,0.5609 -0.24135,1.11446 0.14321,0.37668 0.26039,1.20297 0.26039,1.83621 v 1.15135 l 0.85989,-0.83784 c 0.80245,-0.78186 0.8599,-0.95715 0.8599,-2.62359 z m -20.618596,2.73122 c 0,-0.28036 -0.085,-0.45723 -0.18884,-0.39304 -0.27533,0.17017 -0.55931,-0.89014 -0.33542,-1.2524 0.11839,-0.19157 0.0749,-0.23653 -0.11522,-0.11905 -0.181,0.11187 -0.30546,0.0207 -0.30546,-0.2237 0,-0.57762 -0.41447,-0.51348 -1.04326,0.16146 -0.40335,0.43294 -0.46293,0.66044 -0.2425,0.92604 0.16072,0.19365 0.45522,0.3521 0.65445,0.3521 0.19923,0 0.51095,0.23812 0.69271,0.52916 0.4197,0.67204 0.88354,0.68224 0.88354,0.0194 z m 15.986646,-1.26257 c 9.6e-4,-0.1744 0.2994,-0.63827 0.6632,-1.03082 0.49499,-0.5341 0.66146,-1.00364 0.66146,-1.86571 0,-1.38682 -0.38914,-1.48378 -1.32292,-0.32963 -1.19063,1.47162 -1.55481,2.34036 -1.41215,3.36862 0.23609,1.7017 0.33341,1.80583 0.89358,0.95604 0.2833,-0.42977 0.51587,-0.92409 0.51683,-1.0985 z m -23.562086,0.0107 c -0.1334,-0.35088 -0.22983,-0.72312 -0.21428,-0.82722 0.074,-0.49541 -0.0773,-0.58176 -0.56356,-0.32155 -0.29104,0.15576 -0.52916,0.47035 -0.52916,0.69908 0,0.24796 -0.14971,0.35842 -0.37081,0.27358 -0.45243,-0.17361 -0.71097,0.63874 -0.38733,1.21704 0.20869,0.37291 0.33127,0.37338 1.26934,0.005 0.94144,-0.36981 1.01571,-0.46742 0.7958,-1.04583 z m 2.27204,0.69173 c 0.0939,-0.1519 0.0336,-0.4413 -0.13386,-0.64312 -0.16749,-0.20182 -0.31492,-0.73239 -0.32762,-1.17904 -0.0127,-0.44665 -0.13106,-0.81209 -0.26302,-0.81209 -0.13197,0 -0.16283,-0.12476 -0.0686,-0.27725 0.0942,-0.15249 0.10397,-0.45284 0.0216,-0.66745 -0.12295,-0.32039 -0.24359,-0.33159 -0.67435,-0.0626 -0.28854,0.1802 -0.41757,0.39379 -0.28674,0.47465 0.13084,0.0809 0.29698,0.47292 0.36921,0.87126 0.0722,0.39833 0.21132,0.97625 0.30908,1.28426 0.11168,0.35187 0.0775,0.49808 -0.092,0.39335 -0.2152,-0.133 -0.24848,0.25077 -0.0718,0.82802 0.0608,0.19863 1.07338,0.024 1.21803,-0.21002 z m 1.55897,-1.04675 c 0.10169,0 0.1113,0.11906 0.0214,0.26459 -0.0899,0.14552 -0.0374,0.26458 0.11668,0.26458 0.15411,0 0.2802,-0.16014 0.2802,-0.35587 0,-0.42438 0.81707,-1.21367 1.187,-1.14663 0.14353,0.026 0.30563,-0.19083 0.36022,-0.48188 0.0546,-0.29104 0.26458,-0.62438 0.46664,-0.74075 0.20206,-0.11637 0.36739,-0.38426 0.36739,-0.59531 0,-0.21105 0.11906,-0.38373 0.26458,-0.38373 0.14552,0 0.26458,-0.17486 0.26458,-0.38857 0,-0.23669 -0.15512,-0.32904 -0.39687,-0.23628 -0.23199,0.089 -0.39838,0.003 -0.40049,-0.20674 -0.002,-0.19747 -0.0713,-0.61118 -0.154,-0.91935 -0.12219,-0.45526 -0.0102,-0.58712 0.59742,-0.70327 0.97974,-0.18729 1.20856,-0.0173 0.81817,0.60779 -0.2242,0.35901 -0.23565,0.59333 -0.0386,0.79037 0.19704,0.19703 0.61267,-0.0167 1.40193,-0.721 1.0629,-0.94846 1.12493,-1.08451 1.18012,-2.58857 0.032,-0.87313 -0.0259,-2.06375 -0.12871,-2.64584 -0.11244,-0.63648 -0.0757,-1.19271 0.0923,-1.39545 0.15356,-0.18542 0.20437,-0.41196 0.11292,-0.50342 -0.0915,-0.0915 -0.43536,0.17578 -0.76422,0.59386 -0.58875,0.74846 -0.77181,0.92063 -2.02439,1.90386 -0.53343,0.41872 -0.58437,0.58121 -0.33073,1.05513 0.3376,0.63082 0.39156,1.91427 0.0973,2.31477 -0.10691,0.14552 -0.40275,0.28112 -0.65741,0.30133 -0.34611,0.0275 -0.46302,-0.16338 -0.46302,-0.75591 0,-0.5882 0.10019,-0.75421 0.3884,-0.64361 0.21362,0.082 0.45877,0.0352 0.54478,-0.10399 0.086,-0.13916 -0.1483,-0.25302 -0.52069,-0.25302 -0.37239,0 -0.67707,-0.11907 -0.67707,-0.26459 0,-0.14552 -0.11907,-0.26458 -0.26459,-0.26458 -0.14552,0 -0.26458,0.13517 -0.26458,0.30039 0,0.31767 -0.91221,1.21529 -1.74939,1.72142 -0.27476,0.16611 -0.47328,0.54137 -0.44115,0.83391 0.0321,0.29254 -0.10561,0.66803 -0.3061,0.83442 -0.2635,0.21869 -0.30424,0.5375 -0.14699,1.15046 0.11964,0.46637 0.20639,1.08607 0.19278,1.37711 -0.0136,0.29104 2.7e-4,1.06494 0.0308,1.71979 0.0491,1.05106 0.0968,1.13635 0.40707,0.7276 0.19331,-0.25466 0.43468,-0.46302 0.53637,-0.46302 z m 16.423276,-0.85989 c 0.47969,-0.81084 0.88779,-3.90261 0.51512,-3.90261 -0.0907,0 -0.48126,0.24902 -0.86801,0.55338 -0.638696,0.50262 -0.703696,0.72102 -0.708716,2.38125 -0.006,2.0403 0.275356,2.29699 1.061606,0.96798 z m -21.561286,-0.51212 c 0,-0.17252 0.25974,-0.59015 0.5772,-0.92808 0.55896,-0.59498 0.56314,-0.64388 0.13229,-1.54738 -0.54601,-1.14499 -0.55187,-1.27727 -0.048,-1.08393 0.21828,0.0838 0.39687,0.037 0.39687,-0.10399 0,-0.14095 -0.17859,-0.25627 -0.39687,-0.25627 -0.24837,0 -0.39688,-0.25089 -0.39688,-0.67051 0,-0.58407 -0.0938,-0.6551 -0.7276,-0.55093 -0.40018,0.0658 -0.82393,0.12938 -0.94166,0.14135 -0.11773,0.012 -0.12305,0.16898 -0.0118,0.34893 0.34986,0.56608 0.36318,2.68081 0.0183,2.89998 -0.24957,0.15859 -0.24752,0.20523 0.009,0.20837 0.1819,0.002 0.33073,0.19048 0.33073,0.41832 0,0.56221 0.48906,1.43782 0.80306,1.43782 0.1404,0 0.25528,-0.14116 0.25528,-0.31368 z m 17.72708,-0.61236 c 0,-0.21828 0.11906,-0.39688 0.26458,-0.39688 0.14553,0 0.26459,-0.17859 0.26459,-0.39687 0,-0.21828 0.14883,-0.36711 0.33073,-0.33073 0.20754,0.0415 0.36164,-0.30891 0.41372,-0.94081 0.0879,-1.06632 0.72011,-1.59761 1.13028,-0.94983 0.16714,0.26396 0.23499,0.27496 0.23788,0.0386 0.002,-0.1819 0.18265,-0.33072 0.400926,-0.33072 0.21828,0 0.39687,-0.17157 0.39687,-0.38126 0,-0.46368 0.41412,-0.74326 1.15692,-0.78107 0.30569,-0.0156 0.5958,-0.23624 0.6447,-0.49039 0.0631,-0.32795 -0.0319,-0.41574 -0.32719,-0.30242 -0.41647,0.15981 -0.52408,-0.0958 -0.42993,-1.02143 0.0259,-0.25466 -0.0865,-0.46302 -0.24973,-0.46302 -0.16325,0 -0.22324,-0.11906 -0.13331,-0.26458 0.0899,-0.14552 0.0374,-0.26458 -0.11667,-0.26458 -0.15411,0 -0.2802,0.11906 -0.2802,0.26458 0,0.14552 -0.15213,0.26458 -0.33808,0.26458 -0.595386,0 -1.337396,1.13877 -1.370916,2.10399 -0.0228,0.65555 -0.16785,0.96172 -0.48466,1.02273 -0.2487,0.0479 -0.45218,-0.0407 -0.45218,-0.1969 0,-0.41561 -0.50436,-0.34658 -0.98587,0.13493 -0.556,0.556 -0.91308,4.079 -0.41343,4.079 0.18754,0 0.34097,-0.17859 0.34097,-0.39687 z m -8.81444,-1.09743 c -0.23553,-0.23553 -0.71056,0.16744 -0.71056,0.60277 0,0.34554 0.0585,0.34169 0.42837,-0.0282 0.23561,-0.23561 0.36259,-0.49416 0.28219,-0.57456 z m 5.11027,0.0235 c 0,-0.20969 0.23813,-0.38126 0.52917,-0.38126 0.29104,0 0.52917,-0.11906 0.52917,-0.26458 0,-0.14553 0.12609,-0.26459 0.2802,-0.26459 0.15411,0 0.20745,0.1177 0.11855,0.26155 -0.0889,0.14386 -10e-4,0.20003 0.19463,0.12484 0.28019,-0.10752 0.31441,-0.57305 0.16023,-2.17978 -0.15656,-1.63141 -0.11469,-2.16764 0.20776,-2.66134 0.50107,-0.76714 0.1986,-1.16656 -0.33294,-0.43964 -0.21264,0.29081 -0.41127,0.4913 -0.44138,0.44552 -0.19513,-0.29656 -1.10643,0.45722 -1.80606,1.49387 -0.87761,1.30036 -0.87382,1.16806 -0.11485,4.01332 0.0582,0.21828 0.11498,0.43366 0.12611,0.47863 0.0618,0.24969 0.54941,-0.30636 0.54941,-0.62654 z m -16.64128,-0.9888 c -0.33959,-0.33959 -0.68396,-0.0771 -0.43255,0.32967 0.0974,0.15757 0.29828,0.21159 0.44642,0.12003 0.18071,-0.11169 0.17615,-0.25968 -0.0139,-0.4497 z m 27.224616,-0.0848 c 0,-0.20131 0.10087,-0.36601 0.22415,-0.36601 0.12328,0 0.35335,-0.2679 0.51126,-0.59532 0.22858,-0.47396 0.29076,-0.50093 0.30501,-0.13229 0.01,0.25466 0.1363,0.46302 0.281,0.46302 0.16,0 0.20865,-0.59611 0.12415,-1.52135 -0.0764,-0.83675 -0.14375,-1.90831 -0.14961,-2.38125 -0.006,-0.47295 -0.12353,-0.8599 -0.26148,-0.8599 -0.13817,0 -0.17305,-0.30982 -0.0777,-0.68986 0.10361,-0.4128 0.0512,-0.7652 -0.13042,-0.87746 -0.22689,-0.14023 -0.22824,-0.40368 -0.005,-1.04305 0.16402,-0.47048 0.22826,-1.20515 0.14278,-1.63258 -0.11747,-0.58731 -0.0158,-0.90726 0.41631,-1.30981 0.71963,-0.67044 0.48249,-0.67814 -0.68527,-0.0222 -0.49981,0.28073 -0.97162,0.44755 -1.04846,0.37071 -0.0768,-0.0768 -0.0744,0.11019 0.006,0.41563 0.0835,0.3192 0.0196,0.55533 -0.15021,0.55533 -0.1625,0 -0.29545,0.11907 -0.29545,0.26459 0,0.14552 0.1786,0.26458 0.39688,0.26458 0.21828,0 0.39687,0.0445 0.39687,0.099 0,0.29182 -1.40073,2.54687 -1.58199,2.54687 -0.206,0 0.16084,2.10662 0.41028,2.35606 0.0672,0.0672 0.26309,-0.0187 0.43529,-0.19089 0.4373,-0.43729 0.68247,-0.39065 0.78806,0.14993 0.0513,0.26285 -0.23385,0.73697 -0.65968,1.09669 -0.64829,0.54763 -0.74145,0.79907 -0.68622,1.85208 0.0352,0.67013 0.1103,1.35409 0.16701,1.51991 0.14124,0.41305 1.12725,0.12234 1.12725,-0.33235 z m 3.78404,-0.50329 c 0.72767,-0.87638 1.14302,-2.90479 0.65637,-3.20555 -0.29737,-0.18379 -0.256,-1.15509 0.0492,-1.15509 0.14096,0 0.18775,-0.1786 0.10399,-0.39688 -0.0838,-0.21828 -0.37768,-0.39687 -0.65316,-0.39687 -0.60367,0 -0.61143,-0.077 -0.10617,-1.05409 0.24428,-0.4724 0.35256,-1.21256 0.28415,-1.94236 -0.0826,-0.88102 0.0101,-1.30862 0.3667,-1.69136 0.63805,-0.68487 0.86418,-1.47274 0.65822,-2.29333 -0.14932,-0.59497 -0.2164,-0.62943 -0.55875,-0.28708 -0.21398,0.21398 -0.47362,0.38905 -0.57697,0.38905 -0.10336,0 -0.35121,0.56554 -0.55077,1.25677 -0.19957,0.69122 -0.59802,1.59426 -0.88546,2.00675 -0.45314,0.65027 -0.49814,1.00205 -0.33848,2.64584 0.21135,2.176 0.3325,3.28991 0.37985,3.49266 0.0182,0.0779 0.27366,0.0128 0.56771,-0.14453 0.9787,-0.52378 1.12838,0.0336 0.21449,0.79865 -0.48478,0.40584 -0.95335,0.69419 -1.04126,0.64078 -0.0879,-0.0534 -0.0381,0.43496 0.11072,1.08528 0.14881,0.65031 0.3398,1.17379 0.42443,1.16328 0.0846,-0.0105 0.48746,-0.42087 0.89519,-0.91192 z m -26.009036,-0.78877 c 0,-0.64676 -0.11969,-0.92604 -0.39688,-0.92604 -0.40463,0 -0.57807,1.31811 -0.22048,1.6757 0.39541,0.39541 0.61736,0.1259 0.61736,-0.74966 z m 15.93943,-3.13134 c -0.0791,-0.60609 -0.22086,-1.13364 -0.31507,-1.17231 -0.0942,-0.0387 -0.12144,-0.49738 -0.0605,-1.01933 l 0.11079,-0.94901 -0.69357,0.45445 c -0.38147,0.24994 -0.70416,0.70864 -0.71709,1.01933 -0.0499,1.20012 0.0573,3.23289 0.19513,3.69859 0.13178,0.44523 0.20908,0.42592 0.88424,-0.22092 0.644,-0.61699 0.72122,-0.85156 0.59607,-1.8108 z m -12.95034,1.41155 c 0.23864,0 0.37787,-0.14883 0.30942,-0.33073 -0.0685,-0.1819 0.25277,-0.73245 0.71385,-1.22345 1.15124,-1.22595 0.80949,-1.79121 -1.00317,-1.65923 -1.40399,0.10222 -1.76314,0.39434 -1.5585,1.2676 0.0804,0.34327 -0.0135,0.62397 -0.23767,0.70998 -0.31255,0.11994 -0.30405,0.28933 0.0541,1.07962 0.38215,0.84314 0.46825,0.8981 0.85645,0.54679 0.23737,-0.21482 0.62683,-0.39058 0.86547,-0.39058 z m 7.56305,0.55404 c 0.28577,-0.18098 0.23804,-0.27212 -0.21837,-0.41698 -0.65603,-0.20821 -0.94889,-0.0486 -0.68736,0.37451 0.20997,0.33973 0.42078,0.34961 0.90573,0.0425 z m -10.39846,-1.84235 c -0.0939,-0.15184 -0.34011,-0.21104 -0.54724,-0.13156 -0.29603,0.1136 -0.30837,0.21962 -0.0577,0.49549 0.35307,0.38853 0.87565,0.0741 0.60491,-0.36393 z m -1.21202,-0.0502 c 0,-0.13693 -0.11906,-0.24897 -0.26458,-0.24897 -0.14552,0 -0.26458,0.18562 -0.26458,0.41249 0,0.22687 0.11906,0.33891 0.26458,0.24897 0.14552,-0.0899 0.26458,-0.27556 0.26458,-0.41249 z m 12.4883,-0.44741 c 0.19049,-0.40018 0.61371,-0.84513 0.94048,-0.98878 0.66536,-0.29248 0.68,-0.37239 0.33823,-1.84643 -0.26567,-1.14587 0.0218,-1.8021 0.67888,-1.54993 0.29525,0.11329 0.31391,0.23226 0.0805,0.51344 -0.23621,0.28461 -0.2132,0.36597 0.10349,0.36597 0.22398,0 0.44919,0.12588 0.50047,0.27973 0.13062,0.39187 1.00919,0.009 1.00919,-0.44033 0,-0.20271 0.16471,-0.36857 0.36601,-0.36857 0.20131,0 0.42829,-0.23812 0.5044,-0.52916 0.0761,-0.29104 0.0305,-0.52917 -0.10143,-0.52917 -0.1319,0 -0.23982,-0.17859 -0.23982,-0.39687 0,-0.21828 0.11907,-0.39688 0.26459,-0.39688 0.41788,0 0.30948,-0.48427 -0.22892,-1.02266 -0.35937,-0.35937 -0.61543,-0.42527 -0.94211,-0.24245 -0.24674,0.13808 -0.6065,0.19047 -0.79947,0.11642 -0.23676,-0.0909 -0.30906,0.0252 -0.22234,0.35681 0.10365,0.39638 0.008,0.46875 -0.49297,0.37415 -0.34182,-0.0645 -0.47266,-0.0465 -0.29075,0.04 0.1819,0.0865 0.33072,0.32594 0.33072,0.5321 0,0.20615 0.11907,0.37482 0.26459,0.37482 0.14552,0 0.26458,0.11907 0.26458,0.26459 0,0.14552 -0.29765,0.26458 -0.66146,0.26458 -0.48507,0 -0.66146,-0.14111 -0.66146,-0.52917 0,-0.76524 -0.3318,-0.65878 -1.50978,0.48442 -1.02582,0.99552 -1.04311,1.04386 -0.96988,2.71198 0.0955,2.17566 0.28081,2.88902 0.75048,2.88902 0.20756,0 0.53325,-0.32742 0.72373,-0.72761 z m 7.349776,-1.41758 c 0.69444,-0.81807 0.8997,-1.28117 0.83619,-1.88664 -0.0486,-0.46331 0.0656,-0.89909 0.27026,-1.03114 0.29105,-0.1878 0.28346,-0.27529 -0.0424,-0.48923 -0.58807,-0.38605 -1.31857,-0.32325 -1.49182,0.12824 -0.0838,0.21828 -0.349036,0.39687 -0.589506,0.39687 -0.48945,0 -1.20286,0.95963 -0.86749,1.16689 0.11844,0.0732 0.23462,0.62516 0.25819,1.22658 0.0751,1.91571 0.34597,1.99705 1.626616,0.48843 z m -11.255506,-1.86101 c 1.18158,-1.28272 1.24796,-1.43285 1.16389,-2.63251 -0.0759,-1.0829 -0.0104,-1.29739 0.44,-1.44138 0.48994,-0.15663 0.48013,-0.18349 -0.13229,-0.36238 -0.40023,-0.1169 -0.64633,-0.37249 -0.62316,-0.64718 0.0303,-0.3594 -0.0386,-0.39017 -0.33073,-0.14772 -0.20296,0.16845 -0.36903,0.47402 -0.36903,0.67905 0,0.20503 -0.16938,0.43778 -0.37641,0.51722 -0.20703,0.0794 -0.43909,0.30777 -0.5157,0.50739 -0.09,0.23461 -0.005,0.31142 0.24045,0.21723 0.24315,-0.0933 0.47689,0.10986 0.64988,0.56485 0.31574,0.83045 0.15988,1.19531 -0.5106,1.19531 -0.26464,0 -0.6255,0.17393 -0.80192,0.3865 -0.41432,0.49923 -0.69304,2.52393 -0.34744,2.52393 0.143,0 0.82388,-0.61214 1.51306,-1.36031 z m -3.95236,-1.28553 c -0.0899,-0.14552 -0.28258,-0.26459 -0.4281,-0.26459 -0.14552,0 -0.191,0.11907 -0.10106,0.26459 0.0899,0.14552 0.28258,0.26458 0.4281,0.26458 0.14552,0 0.191,-0.11906 0.10106,-0.26458 z m 0.80933,-0.40529 c -0.66254,-0.50112 -1.06278,-0.50218 -0.62132,-0.002 0.18764,0.21274 0.51975,0.38755 0.73803,0.38846 0.29927,0.001 0.27057,-0.0939 -0.11671,-0.38681 z m 1.4018,-0.35948 c 0.22526,-0.14274 0.29256,-0.43698 0.18061,-0.7897 -0.17433,-0.54926 -0.67195,-0.79251 -0.67195,-0.32847 0,0.12854 -0.23812,0.29599 -0.52916,0.3721 -0.90944,0.23782 -0.64535,0.71041 0.52916,0.94693 0.0728,0.0147 0.29387,-0.0757 0.49134,-0.20086 z m 15.648246,-0.8663 c 0,-0.23189 0.22955,-0.55436 1.01229,-1.42202 0.19295,-0.21389 0.4045,-0.83484 0.47011,-1.37988 0.0656,-0.54504 0.18932,-1.2172 0.27491,-1.49369 0.14813,-0.47851 0.11898,-0.47661 -0.60582,0.0395 -1.64507,1.1714 -2.17521,1.89759 -2.03912,2.79324 0.0706,0.46473 0.12835,1.18055 0.12831,1.59071 -6e-5,0.61789 0.065,0.69172 0.37962,0.43062 0.20884,-0.17331 0.3797,-0.42462 0.3797,-0.55847 z m -2.64584,0.0153 c 0,-0.38037 -0.459076,-0.27137 -0.619666,0.14713 -0.0983,0.25625 -0.02,0.33461 0.236266,0.23627 0.21087,-0.0809 0.3834,-0.25344 0.3834,-0.3834 z m -7.422826,-0.65496 c 0.95188,-0.62991 1.02197,-0.75902 0.89781,-1.65364 -0.20596,-1.484 -0.27751,-1.60233 -0.87454,-1.4462 -0.40529,0.10598 -0.50917,0.28193 -0.38934,0.65948 0.1182,0.37241 0.0177,0.55305 -0.3632,0.65265 -0.54707,0.14306 -0.78594,0.85206 -0.63192,1.87567 0.11148,0.74085 0.10849,0.74105 1.36119,-0.088 z m 6.04775,0.11574 c -0.0441,-0.0939 0.14924,-0.4241 0.42956,-0.73386 0.38259,-0.42275 0.561106,-0.47999 0.715896,-0.22955 0.14009,0.22668 0.20135,0.16507 0.19107,-0.19218 -0.008,-0.28921 0.10513,-0.90383 0.25211,-1.36581 0.14699,-0.46199 0.20199,-0.90524 0.12223,-0.98499 -0.24415,-0.24415 -0.60037,0.10996 -0.60037,0.59681 0,0.28438 -0.347626,0.5861 -0.909296,0.7892 -0.83443,0.30174 -0.9081,0.41615 -0.89467,1.38943 0.0107,0.77676 0.1162,1.03934 0.39411,0.98111 0.20872,-0.0437 0.34342,-0.1563 0.29936,-0.25016 z m 1.957166,-0.54372 c -0.24695,-0.24694 -0.3175,-0.17638 -0.3175,0.3175 0,0.49389 0.0705,0.56445 0.3175,0.3175 0.24694,-0.24694 0.24694,-0.38805 0,-0.635 z m 5.68919,-0.54239 c 0.33469,-0.44161 0.9434,-2.59696 0.77966,-2.76069 -0.0712,-0.0712 -0.33903,0.20826 -0.59514,0.62107 -0.2561,0.41281 -0.6171,0.87857 -0.80221,1.03504 -0.18616,0.15735 -0.26932,0.54163 -0.18609,0.85989 0.16992,0.64977 0.4355,0.73062 0.80378,0.24469 z m -9.181686,-0.31512 c 0,-0.0642 -0.11906,-0.19026 -0.26459,-0.28019 -0.14552,-0.0899 -0.26458,-0.0374 -0.26458,0.11667 0,0.15411 0.11906,0.2802 0.26458,0.2802 0.14553,0 0.26459,-0.0525 0.26459,-0.11668 z m -0.38399,-2.63616 c 0.0863,-1.08819 0.0655,-1.10157 -0.81595,-0.52402 -0.60032,0.39335 -0.65215,0.39335 -0.65215,0 0,-0.49857 -0.51144,-0.58582 -0.56614,-0.0966 -0.10301,0.92119 0.12955,2.46995 0.39607,2.63766 0.50469,0.31759 1.55559,-0.97637 1.63817,-2.01706 z m 13.392056,1.10403 c 0.45429,-0.71573 0.25561,-0.99705 -0.50101,-0.70938 -0.50481,0.19193 -0.75029,0.18996 -0.81579,-0.006 -0.19017,-0.57051 -0.44833,-0.25396 -0.51098,0.62654 -0.064,0.89975 -0.0582,0.90475 0.77515,0.66575 0.4618,-0.13244 0.93549,-0.3918 1.05263,-0.57636 z m -11.023696,-1.26165 c 0.0899,-0.14552 0.39462,-0.26458 0.677076,-0.26458 0.71552,0 0.70075,-1.04273 -0.0156,-1.10243 -1.125396,-0.0938 -1.320726,-0.083 -1.256766,0.0696 0.0364,0.0868 -0.0929,0.34945 -0.28737,0.58372 -0.19442,0.23428 -0.27669,0.55023 -0.18282,0.70213 0.21687,0.3509 0.85152,0.35781 1.0655,0.0116 z m 3.777496,-0.51425 c 0.95608,-0.87324 1.02834,-1.12727 0.45584,-1.60241 -0.26438,-0.21942 -0.39688,-0.23244 -0.39688,-0.039 0,0.18493 -0.30433,0.2295 -0.83816,0.12273 -0.72159,-0.14432 -0.81358,-0.10359 -0.66145,0.29284 0.0972,0.25326 0.17669,0.80792 0.17669,1.23258 0,0.96822 0.19767,0.96717 1.26396,-0.007 z m 4.00251,-0.73781 c 0.3049,0.023 0.55437,0.13548 0.55437,0.25004 0,0.11455 0.23812,0.20827 0.52917,0.20827 0.58683,0 0.70463,-0.38949 0.2102,-0.69506 -0.17543,-0.10842 -1.11383,-0.20756 -2.08533,-0.22031 -1.36642,-0.0179 -1.67444,0.044 -1.36041,0.27367 0.22328,0.16327 0.32121,0.43397 0.21763,0.60157 -0.10358,0.16759 -0.10266,0.44332 0.002,0.61273 0.1292,0.20904 0.38115,0.0862 0.78417,-0.38233 0.32991,-0.38355 0.84016,-0.67178 1.14817,-0.64858 z m -14.431536,-0.22241 c -0.43227,-0.65972 -1.50732,-0.87565 -1.8223,-0.36602 -0.28835,0.46657 0.31558,0.91207 1.30324,0.96133 0.9367,0.0467 0.93843,0.0447 0.51906,-0.59531 z m 8.343966,-1.72425 c -0.73362,-0.63627 -1.881006,-0.6954 -1.646726,-0.0849 0.10409,0.27126 0.37822,0.37912 0.772186,0.30381 0.37017,-0.0708 0.6674,0.0307 0.75448,0.25765 0.079,0.20594 0.26949,0.29667 0.42326,0.20164 0.17278,-0.10679 0.057,-0.36586 -0.3032,-0.67823 z m 2.67319,-3.68044 c 0,-0.14552 -0.0525,-0.26459 -0.11668,-0.26459 -0.0642,0 -0.19026,0.11907 -0.2802,0.26459 -0.0899,0.14552 -0.0374,0.26458 0.11668,0.26458 0.15411,0 0.2802,-0.11906 0.2802,-0.26458 z m -23.812496,53.44583 c 0,-0.14552 0.17859,-0.26458 0.39687,-0.26458 0.21828,0 0.39688,0.11906 0.39688,0.26458 0,0.14552 -0.1786,0.26458 -0.39688,0.26458 -0.21828,0 -0.39687,-0.11906 -0.39687,-0.26458 z m 13.68484,-0.79677 c -0.25062,-0.29271 -0.45189,-0.73919 -0.44726,-0.99219 0.008,-0.41362 0.0476,-0.40821 0.39687,0.0536 0.21366,0.28248 0.38846,0.37177 0.38846,0.19844 0,-0.48021 0.44612,-0.37563 0.63077,0.14787 0.0898,0.25466 0.2327,0.61185 0.3175,0.79375 0.2544,0.54575 -0.78608,0.3828 -1.28634,-0.20146 z m 25.283186,-2.68533 c 0.0822,-0.53271 0.0728,-1.04511 -0.0207,-1.13867 -0.20548,-0.20548 -0.32345,-9.28636 -0.1316,-10.12975 0.15945,-0.70095 0.85898,-0.80374 0.90029,-0.13229 0.12581,2.04483 0.23441,5.41529 0.20247,6.28385 -0.0721,1.95949 -0.0586,2.37693 0.11589,3.59587 0.15561,1.08699 0.10087,1.2816 -0.5209,1.85208 l -0.69478,0.63747 z M 71.993934,171.9451 c -0.0899,-0.14552 0.0221,-0.26458 0.24896,-0.26458 0.22687,0 0.41249,0.11906 0.41249,0.26458 0,0.14552 -0.11203,0.26458 -0.24896,0.26458 -0.13694,0 -0.32256,-0.11906 -0.41249,-0.26458 z m 50.572266,-3.34234 c -0.083,-0.27177 -0.15035,-0.97037 -0.14977,-1.55245 5.9e-4,-0.58209 -0.0104,-1.74294 -0.0243,-2.57969 -0.0155,-0.929 0.0859,-1.52135 0.26046,-1.52135 0.17098,0 0.12354,-0.24774 -0.11804,-0.61644 -0.22215,-0.33904 -0.32699,-0.69335 -0.23298,-0.78735 0.094,-0.094 0.0128,-0.36147 -0.1805,-0.59436 -0.29243,-0.35236 -0.29163,-0.46038 0.005,-0.64357 0.64061,-0.39592 1.19539,0.23944 1.22898,1.4075 0.0174,0.60606 0.11811,1.75677 0.22373,2.55713 0.30375,2.30168 0.17693,3.77459 -0.37287,4.33058 -0.47706,0.48243 -0.49218,0.48243 -0.63945,0 z m 2.81028,-3.18352 c 0.0352,-1.88932 -0.30125,-4.62574 -0.61524,-5.00408 -0.25335,-0.30526 -0.20628,-0.37631 0.24925,-0.37631 0.30886,0 0.5802,0.0893 0.60298,0.19844 0.0228,0.10914 0.0812,0.49609 0.12976,0.85989 0.0486,0.3638 0.16047,1.03431 0.2486,1.49002 0.0953,0.49265 0.0407,0.90244 -0.13455,1.01077 -0.20208,0.12489 -0.12965,0.41414 0.23027,0.9196 l 0.52507,0.73739 -0.62752,0.58953 -0.62751,0.58952 z m -6.63502,-6.10573 c 0.11133,-0.96459 1.00976,-1.18561 1.00976,-0.24841 0,0.54693 -0.4231,0.97375 -0.96526,0.97375 -0.0705,0 -0.0905,-0.3264 -0.0445,-0.72534 z m 2.86184,-1.65591 c 0,-0.14552 0.23813,-0.26458 0.52917,-0.26458 0.29104,0 0.52917,0.11906 0.52917,0.26458 0,0.14552 -0.23813,0.26458 -0.52917,0.26458 -0.29104,0 -0.52917,-0.11906 -0.52917,-0.26458 z m 0.90168,-1.89151 c -0.10382,-0.16799 0.0308,-0.46597 0.2991,-0.66217 0.63092,-0.46134 0.91589,-0.45175 0.91589,0.0308 0,0.53551 -0.96448,1.03668 -1.21499,0.63134 z m -1.57402,-6.85734 c -0.0959,-0.15521 -0.10294,-0.35364 -0.0156,-0.44098 0.0873,-0.0873 0.15879,-0.0199 0.15879,0.1499 0,0.40669 0.71941,0.3994 0.85544,-0.009 0.0662,-0.1985 0.1704,-0.14896 0.27833,0.13229 0.13295,0.34647 0.0263,0.44964 -0.465,0.44964 -0.35065,0 -0.71602,-0.12698 -0.81194,-0.28218 z m 42.99789,-2.98168 c -0.36808,-0.16941 -1.26105,-0.71543 -1.98438,-1.21338 -0.72332,-0.49795 -1.58302,-0.88623 -1.91044,-0.86286 -0.36982,0.0264 -0.59531,-0.1067 -0.59531,-0.3514 0,-0.21665 0.17859,-0.39391 0.39687,-0.39391 0.21828,0 0.39688,-0.11907 0.39688,-0.26459 0,-0.14552 0.11906,-0.26458 0.26458,-0.26458 0.14552,0 0.26458,0.15292 0.26458,0.33983 0,0.38952 1.43325,1.31372 1.67007,1.07691 0.0863,-0.0863 0.35363,0.04 0.59417,0.28053 0.27131,0.27131 0.65279,0.37714 1.00479,0.27875 0.40884,-0.11427 0.46552,-0.0881 0.20281,0.0937 -0.51689,0.3577 -0.0949,0.89621 0.5435,0.69359 0.41072,-0.13036 0.5107,-0.0628 0.44075,0.29804 -0.11587,0.59773 -0.45394,0.67362 -1.28887,0.28934 z m -5.92052,-4.01438 c -0.27739,-0.20963 -1.17036,-0.56797 -1.98437,-0.7963 -0.81402,-0.22833 -2.20464,-0.77505 -3.09028,-1.21494 -1.33887,-0.66501 -1.86704,-0.78571 -3.13403,-0.71624 -0.83808,0.046 -1.58021,0.17486 -1.64918,0.28645 -0.069,0.1116 -0.25494,0.12284 -0.41327,0.025 -0.15833,-0.0978 -0.69197,-0.16273 -1.18586,-0.14416 -0.49389,0.0186 -1.39792,-0.15989 -2.00895,-0.39656 -1.14934,-0.44519 -2.83076,-1.95049 -2.83076,-2.53426 0,-0.34531 -1.04784,-1.14131 -1.37988,-1.04824 -0.10409,0.0292 -0.50553,-0.0672 -0.89208,-0.21417 -0.49847,-0.18951 -0.81021,-0.17807 -1.0722,0.0394 -0.23639,0.19619 -0.86054,0.2484 -1.7335,0.14501 -1.41442,-0.16751 -2.35276,-0.66999 -1.39139,-0.74508 0.28377,-0.0222 0.635,-0.068 0.78052,-0.10177 0.14552,-0.0338 0.38365,-0.0881 0.52917,-0.12056 0.14552,-0.0325 0.62177,-0.0595 1.05833,-0.0601 0.43656,-5.4e-4 0.94258,-0.12133 1.12448,-0.26842 0.22039,-0.17821 0.33072,-0.17876 0.33072,-0.002 0,0.14619 0.50515,0.27276 1.12256,0.28129 0.84646,0.0117 1.2404,0.16577 1.6017,0.6265 0.26352,0.33605 0.6292,0.79487 0.81262,1.0196 0.18341,0.22472 0.41348,0.61705 0.51125,0.87184 0.0978,0.25479 0.58525,0.63351 1.08328,0.84161 0.49804,0.20809 0.9669,0.53013 1.04191,0.71565 0.10983,0.27161 0.18249,0.27212 0.37303,0.003 0.13898,-0.19656 0.7206,-0.31736 1.40921,-0.29271 0.64491,0.0231 1.57,-0.0464 2.05575,-0.15447 0.90715,-0.20179 4.27619,0.56795 4.27619,0.97699 0,0.11096 0.22355,0.20175 0.49677,0.20175 0.27322,0 0.6439,0.17728 0.82373,0.39396 0.17983,0.21668 0.43775,0.32549 0.57315,0.2418 0.13541,-0.0837 0.38981,-0.0393 0.56534,0.0987 0.28342,0.22281 1.24267,0.5379 2.25803,0.74172 0.87689,0.17603 1.13575,0.40868 1.05622,0.94928 -0.10659,0.72457 -0.47175,0.83901 -1.11821,0.35044 z m 1.95955,0.13449 c 0,-0.14552 0.12609,-0.26458 0.2802,-0.26458 0.15411,0 0.20662,0.11906 0.11668,0.26458 -0.0899,0.14552 -0.21603,0.26459 -0.2802,0.26459 -0.0642,0 -0.11668,-0.11907 -0.11668,-0.26459 z m -46.97911,-5.44132 c -0.49362,-0.39812 -0.48576,-0.40993 0.20211,-0.30355 0.50038,0.0774 0.74677,-0.0169 0.81895,-0.31337 0.0883,-0.36254 0.13397,-0.35302 0.31504,0.0657 0.13951,0.3226 0.0858,0.56952 -0.15749,0.72355 -0.50109,0.31729 -0.5872,0.30471 -1.17861,-0.1723 z m 1.8897,-0.0488 c -0.0849,-0.0849 -0.15433,-0.24483 -0.15433,-0.35544 0,-0.26497 1.55173,-1.03316 2.09117,-1.03524 0.2323,-9e-4 0.736,-0.16528 1.11932,-0.36529 1.10172,-0.57485 1.5177,-0.0858 0.62822,0.73853 -0.40754,0.3777 -0.8129,0.69583 -0.90079,0.70696 -0.0879,0.0111 -0.39792,0.0723 -0.68897,0.13596 -1.17134,0.25614 -1.94827,0.32087 -2.09462,0.17452 z m 38.58136,-2.25383 c -1.21491,-1.26755 -2.09681,-1.96987 -2.72324,-2.16869 -0.30706,-0.0975 -0.55829,-0.27658 -0.55829,-0.39806 0,-0.30393 -1.50315,-0.8018 -2.42073,-0.8018 -0.41485,0 -0.75427,-0.13295 -0.75427,-0.29544 0,-0.1625 -0.21949,-0.23805 -0.48775,-0.16789 -0.51787,0.13542 -1.26405,-0.72761 -1.14354,-1.32261 0.0368,-0.1819 -0.0276,-0.33073 -0.14317,-0.33073 -0.11558,0 -0.72572,-0.47127 -1.35585,-1.04727 -0.87927,-0.80373 -1.10583,-1.17291 -0.97424,-1.5875 0.0943,-0.29713 0.0543,-0.54023 -0.0889,-0.54023 -0.1432,0 -0.30653,0.13852 -0.36297,0.30782 -0.15776,0.4733 -1.52899,-0.84213 -1.52899,-1.46678 0,-0.38334 -0.0809,-0.45344 -0.28636,-0.24801 -0.29197,0.29197 -1.77069,-0.24934 -2.12446,-0.77771 -0.089,-0.13297 -0.26762,-0.23502 -0.39687,-0.22678 -0.12925,0.008 -0.70321,-0.11109 -1.27547,-0.26518 -0.57225,-0.15409 -1.28662,-0.30761 -1.5875,-0.34116 -0.30087,-0.0335 -0.80593,-0.20108 -1.12236,-0.37229 -0.31642,-0.17121 -0.79267,-0.34828 -1.05833,-0.39348 -0.26566,-0.0452 -0.89973,-0.30806 -1.40905,-0.58413 -0.50934,-0.27607 -1.40231,-0.73909 -1.98439,-1.02893 -1.30883,-0.65171 -1.54393,-0.97776 -1.05657,-1.46528 0.41588,-0.41601 0.51368,-0.38231 3.04096,1.04788 0.65484,0.37058 1.905,0.89265 2.77812,1.16016 0.87313,0.26752 1.79424,0.59063 2.04693,0.71805 0.25269,0.12741 0.63964,0.23165 0.8599,0.23165 0.22025,0 0.40046,0.15085 0.40046,0.33521 0,0.21161 0.40133,0.34574 1.08841,0.36375 0.92035,0.0241 1.24245,0.19706 2.08609,1.12 0.54873,0.6003 1.11778,1.09146 1.26455,1.09146 0.33455,0 3.52793,3.12186 3.92386,3.83599 0.16122,0.29078 0.7474,0.65615 1.30263,0.81194 0.56889,0.15961 1.09686,0.50626 1.20963,0.79422 0.11007,0.28104 0.2085,0.35412 0.21873,0.16242 0.0267,-0.50047 1.00544,-0.15469 2.18589,0.77225 0.53717,0.42181 1.10272,0.76693 1.25677,0.76693 0.15406,0 0.2801,0.12609 0.2801,0.2802 0,0.1541 0.11309,0.2103 0.25131,0.12488 0.13822,-0.0854 0.38053,0.0861 0.53847,0.38126 0.15795,0.29511 0.46158,0.53657 0.67474,0.53657 0.21316,0 0.38756,0.22539 0.38756,0.50086 0,0.27547 0.1786,0.56939 0.39688,0.65316 0.54677,0.20981 0.50007,0.69915 -0.0661,0.69318 -0.25466,-0.003 -0.8318,-0.38964 -1.28253,-0.85989 z m -41.97684,0.13662 c -0.25466,-0.0574 -0.48088,-0.21473 -0.50271,-0.34958 -0.12033,-0.74336 -0.0438,-0.91141 0.43656,-0.95838 0.29105,-0.0285 1.18401,-0.12404 1.98438,-0.21241 2.6429,-0.2918 3.43958,-0.32917 3.43958,-0.16132 0,0.27454 -1.15328,0.93697 -1.71979,0.98782 -1.26986,0.11399 -2.62336,0.38813 -2.88812,0.58497 -0.15778,0.11732 -0.49524,0.16632 -0.7499,0.1089 z m 7.35643,-15.38837 c -0.1753,-0.28366 0.16514,-0.39917 0.88158,-0.29914 0.23293,0.0325 0.30833,-0.10078 0.20674,-0.36552 -0.12034,-0.31361 0.0109,-0.41673 0.53022,-0.41673 0.37957,0 0.8483,-0.20836 1.04161,-0.46302 0.21466,-0.28277 0.35476,-0.33427 0.3599,-0.13229 0.0123,0.48207 0.82213,0.40456 1.20208,-0.11505 0.30205,-0.41307 0.41096,-0.41481 1.48438,-0.0236 0.63713,0.2322 1.57513,0.49409 2.08446,0.58197 1.23993,0.21393 1.63978,0.50161 1.43586,1.03304 -0.18478,0.48153 -1.04214,0.60029 -1.3017,0.18031 -0.0961,-0.15548 0.0317,-0.19334 0.31511,-0.0934 0.37694,0.13298 0.41136,0.0974 0.16441,-0.16987 -0.5844,-0.6325 -5.05812,-0.40035 -7.66143,0.39756 -0.31181,0.0956 -0.64519,0.0443 -0.74322,-0.11432 z"
       id="path25" />
  </g>
</svg>
