<?xml version="1.0" encoding="UTF-8" standalone="no"?>
<!-- Created with Inkscape (http://www.inkscape.org/) -->

<svg
   width="217.22293mm"
   height="67.882912mm"
   viewBox="0 0 217.22292 67.882917"
   version="1.1"
   id="svg1"
   inkscape:version="1.4.1-rc (06eac75fbf, 2025-03-29)"
   sodipodi:docname="mount12.svg"
   xmlns:inkscape="http://www.inkscape.org/namespaces/inkscape"
   xmlns:sodipodi="http://sodipodi.sourceforge.net/DTD/sodipodi-0.dtd"
   xmlns="http://www.w3.org/2000/svg"
   xmlns:svg="http://www.w3.org/2000/svg">
  <sodipodi:namedview
     id="namedview1"
     pagecolor="#ffffff"
     bordercolor="#000000"
     borderopacity="0.25"
     inkscape:showpageshadow="2"
     inkscape:pageopacity="0.0"
     inkscape:pagecheckerboard="0"
     inkscape:deskcolor="#d1d1d1"
     inkscape:document-units="mm"
     inkscape:zoom="0.72248176"
     inkscape:cx="411.08304"
     inkscape:cy="128.03091"
     inkscape:window-width="1850"
     inkscape:window-height="1016"
     inkscape:window-x="0"
     inkscape:window-y="0"
     inkscape:window-maximized="1"
     inkscape:current-layer="layer1" />
  <defs
     id="defs1" />
  <g
     inkscape:label="Layer 1"
     inkscape:groupmode="layer"
     id="layer1"
     transform="translate(2.910438,-114.30033)">
    <path
       style="fill:#000000"
       d="m 151.67239,181.85251 c 0.0606,-0.1819 0.32852,-0.33073 0.59531,-0.33073 0.26679,0 0.53468,0.14883 0.59531,0.33073 0.0698,0.20947 -0.14846,0.33073 -0.59531,0.33073 -0.44685,0 -0.66513,-0.12126 -0.59531,-0.33073 z m -2.88289,-2.11666 c -0.40931,-0.65028 1.10193,-1.01367 1.70549,-0.41011 0.19865,0.19866 0.3175,0.21297 0.3175,0.0382 0,-0.17363 0.75078,-0.26871 1.98484,-0.25135 1.09166,0.0154 1.98463,0.11721 1.98437,0.22635 -2.5e-4,0.10914 -4.6e-4,0.30846 -4.6e-4,0.44293 0,0.28992 -5.80837,0.24527 -5.99174,-0.0461 z m -43.14005,-4.78054 c -0.0738,-0.11906 -0.30078,-0.15256 -0.50435,-0.0744 -0.24241,0.093 -0.37011,-0.0438 -0.37011,-0.39667 0,-0.38878 0.12885,-0.50061 0.46302,-0.40184 1.61388,0.477 4.25308,0.45118 6.08098,-0.0595 1.94359,-0.543 2.65501,-0.39605 1.87224,0.38673 -0.68163,0.68163 -7.16652,1.15089 -7.54178,0.54574 z m 44.50158,-0.20718 c -2.69348,-0.42416 -3.04271,-0.52874 -3.04271,-0.91125 0,-0.4909 0.96967,-0.49691 1.89953,-0.0118 0.3899,0.20342 0.75991,0.31884 0.82227,0.25649 0.0624,-0.0624 1.43998,-0.14138 3.06141,-0.17563 2.17022,-0.0458 2.94804,0.0225 2.94804,0.25906 0,0.54081 -3.60832,0.91069 -5.68854,0.58311 z m -48.15416,-0.96395 c -1.89225,-0.97869 -2.552248,-1.91969 -1.34644,-1.91969 0.39409,0 0.91605,0.32869 1.36552,0.8599 0.40016,0.47294 0.83979,0.82602 0.97696,0.78462 0.47331,-0.14288 1.25291,0.24432 1.25291,0.62227 0,0.54793 -0.739,0.43387 -2.24895,-0.3471 z m 11.54906,-0.31896 c 0.11369,-0.34108 0.47659,-0.40235 0.50932,-0.086 0.0109,0.10551 -0.12303,0.23945 -0.29765,0.29766 -0.17463,0.0582 -0.26988,-0.037 -0.21167,-0.21167 z m 50.36344,-2.01343 c -0.14553,-0.0386 -0.60923,-0.14671 -1.03046,-0.24026 -1.20962,-0.26862 -0.41004,-0.76187 1.2905,-0.79609 0.80286,-0.0162 1.45975,0.0141 1.45975,0.0673 0,0.39991 -1.23722,1.09705 -1.71979,0.96907 z m -14.31983,-0.96251 c -0.0844,-0.1366 -0.33079,-0.18033 -0.54748,-0.0972 -0.52183,0.20024 -0.88554,-0.0454 -0.7171,-0.48437 0.19514,-0.50852 3.94686,-0.50086 4.36994,0.009 0.17032,0.20522 0.24767,0.43511 0.17191,0.51088 -0.25743,0.25743 -3.12296,0.31141 -3.27727,0.0617 z m 7.48235,0.12979 c -0.4513,-0.11639 -0.44426,-0.15598 0.0949,-0.53365 0.49064,-0.34366 0.61893,-0.35028 0.81415,-0.042 0.46864,0.73995 0.25428,0.8757 -0.90909,0.57569 z m 9.35843,-0.0673 c -0.33229,-0.21015 -0.32091,-0.27261 0.0776,-0.42551 0.25686,-0.0986 0.54022,-0.10601 0.6297,-0.0165 0.0895,0.0895 0.2927,0.0618 0.45161,-0.0614 0.15891,-0.12324 0.55682,-0.28966 0.88424,-0.36981 0.4499,-0.11014 0.59531,-0.0301 0.59531,0.3278 0,0.70544 -1.79775,1.07709 -2.63842,0.54544 z M 154.78124,170.277 c 0,-0.14552 0.23813,-0.26458 0.52917,-0.26458 0.29104,0 0.61548,-0.009 0.72099,-0.0198 0.1055,-0.0109 0.23448,0.10814 0.28663,0.26458 0.054,0.16185 -0.25677,0.28443 -0.72099,0.28443 -0.44869,0 -0.8158,-0.11907 -0.8158,-0.26459 z m 16.29239,-0.26458 c -0.71632,-0.0728 -1.34654,-0.26677 -1.40048,-0.43114 -0.09,-0.27438 0.2525,-0.28094 2.96747,-0.0568 0.14552,0.012 0.47294,-0.0646 0.7276,-0.17027 0.3432,-0.1424 0.46407,-0.065 0.46707,0.29921 0.003,0.32303 0.0725,0.38371 0.20382,0.17715 0.31169,-0.49018 1.61454,-0.89397 2.31621,-0.71786 0.58478,0.14676 0.60131,0.19341 0.20801,0.58671 -0.44886,0.44885 -2.82096,0.58412 -5.4897,0.31304 z m -70.84769,-0.46974 c -0.512518,-0.34066 -0.646578,-0.58046 -0.477468,-0.85408 0.1952,-0.31585 0.386748,-0.3256 1.128248,-0.0575 0.49122,0.17762 1.33116,0.32296 1.86654,0.32296 0.53537,0 0.9734,0.1318 0.9734,0.29289 0,0.16109 0.17859,0.22436 0.39687,0.14059 0.21828,-0.0838 0.39688,-0.0378 0.39688,0.10208 0,0.13991 -0.44649,0.23803 -0.99219,0.21806 -0.5457,-0.02 -1.34937,0.0413 -1.78594,0.13615 -0.55104,0.11973 -1.01164,0.0276 -1.50634,-0.30118 z m 77.09943,0.007 c 0.11083,-0.66006 0.34577,-0.76868 1.39713,-0.64594 1.20858,0.14109 1.18268,0.48463 -0.0626,0.83046 -1.32613,0.36829 -1.42504,0.35461 -1.33452,-0.18452 z m -42.23051,-0.55474 c -0.0849,-0.13734 0.0406,-0.32452 0.27889,-0.41595 0.58477,-0.2244 0.72152,-0.0365 0.25515,0.35052 -0.22639,0.18789 -0.44203,0.21431 -0.53404,0.0654 z m -1.87716,-0.83432 c -0.0899,-0.14552 -0.0899,-0.38365 0,-0.52917 0.0899,-0.14552 0.0602,-0.26458 -0.066,-0.26458 -0.42565,0 -1.89393,-3.05097 -1.65462,-3.43818 0.19085,-0.30881 0.2928,-0.30809 0.66972,0.005 0.24454,0.20295 0.55098,0.61201 0.681,0.90903 0.24094,0.55045 0.52634,1.03128 1.37886,2.32304 0.26386,0.39981 0.40566,0.84681 0.31511,0.99332 -0.21247,0.34379 -1.11191,0.34502 -1.32403,0.002 z m -35.441558,-1.03795 c -0.083,-0.1343 -0.79661,-0.22907 -1.58579,-0.2106 -1.52758,0.0358 -2.42797,-0.30345 -3.73941,-1.40881 -0.72994,-0.61524 -1.00514,-0.67925 -2.64583,-0.61549 -1.92099,0.0746 -4.78173,-0.3318 -5.3253,-0.75662 -0.17553,-0.13718 -0.44342,-0.17261 -0.59531,-0.0787 -0.1519,0.0939 -0.27617,0.0446 -0.27617,-0.10951 0,-0.15411 -0.16402,-0.2802 -0.36448,-0.2802 -0.20047,0 -0.52232,-0.19018 -0.71523,-0.42263 -0.31722,-0.38222 -0.20014,-0.40435 1.22437,-0.23142 0.86632,0.10517 1.77566,0.29535 2.02075,0.42263 0.2451,0.12728 0.74409,0.23142 1.10887,0.23142 0.36478,0 0.72699,0.10316 0.80492,0.22925 0.0779,0.12609 1.08206,0.17458 2.23142,0.10777 1.89585,-0.11021 2.13992,-0.0676 2.63064,0.45911 0.61173,0.65661 1.78507,1.32054 2.33377,1.32054 0.64342,0 0.39396,-0.66352 -0.43316,-1.15211 -1.07246,-0.63351 -1.76034,-1.68526 -1.36246,-2.08314 0.2205,-0.2205 0.42472,-0.18268 0.78777,0.14587 0.26956,0.24395 0.5788,0.44354 0.6872,0.44354 0.1084,0 0.78505,0.64333 1.50367,1.42962 0.85459,0.93505 1.46568,1.39151 1.76646,1.31947 0.78663,-0.1884 1.22281,0.27106 0.87474,0.92143 -0.31952,0.59704 -0.68261,0.72124 -0.93144,0.31862 z m 40.598518,-0.41435 c 0.33047,-0.3982 0.79616,-0.31339 0.79616,0.14499 0,0.13694 -0.2527,0.24897 -0.56156,0.24897 -0.46732,0 -0.50669,-0.0661 -0.2346,-0.39396 z m 40.05853,-1.23927 c -0.17631,-0.28527 0.22628,-0.40478 1.96388,-0.58297 1.2283,-0.12597 1.39536,-0.0869 1.31882,0.30838 -0.07,0.36151 -0.39537,0.4571 -1.61639,0.4749 -0.84081,0.0123 -1.59065,-0.0779 -1.66631,-0.20031 z m -51.7712,-1.26908 c -0.86707,-1.22581 -1.1775,-3.84456 -0.45575,-3.84456 0.27481,0 0.47825,0.46025 0.66146,1.49644 0.14552,0.82305 0.47294,1.72539 0.7276,2.00521 0.53693,0.58998 0.61376,1.39571 0.1323,1.38749 -0.18191,-0.003 -0.66143,-0.47317 -1.06561,-1.04458 z M 24.850582,163.72885 c -0.0111,-0.10915 -0.0705,-0.43657 -0.13192,-0.72761 -0.2657,-1.25891 -0.38969,-1.91231 -0.53974,-2.84427 -0.0878,-0.5457 -0.25318,-0.99219 -0.36738,-0.99219 -0.11421,0 -0.20539,-0.26789 -0.20262,-0.59531 0.006,-0.65241 -0.75136,-3.72118 -1.12567,-4.56406 -0.12924,-0.29104 -0.4336,-1.36261 -0.67634,-2.38125 -0.24275,-1.01865 -0.49867,-1.95034 -0.56871,-2.07042 -0.19719,-0.33804 -1.39446,0.91129 -1.39446,1.45508 0,0.26568 -0.17859,0.48305 -0.39687,0.48305 -0.21828,0 -0.39688,0.2045 -0.39688,0.45445 0,0.48581 0.90985,4.43308 1.33276,5.78204 0.35813,1.1423 0.31814,2.23017 -0.082,2.23017 -0.47905,0 -1.47628,-1.90921 -1.06827,-2.04521 0.20985,-0.07 0.1512,-0.26689 -0.17731,-0.5954 -0.29375,-0.29375 -0.56497,-1.08398 -0.6754,-1.96784 -0.18905,-1.51305 -0.43926,-1.81144 -0.87142,-1.03921 -0.14742,0.26343 -0.41606,0.3721 -0.6746,0.27288 -0.57788,-0.22175 -0.54382,-0.46852 0.22003,-1.59412 0.56943,-0.8391 0.61359,-1.06422 0.3576,-1.82286 -0.16064,-0.47604 -0.32825,-0.90947 -0.37248,-0.96317 -0.15057,-0.18284 -0.89936,0.71982 -0.89936,1.08416 0,0.19957 -0.1337,0.49655 -0.29711,0.65996 -0.21974,0.21974 -0.1854,0.87074 0.13191,2.50031 0.23596,1.21177 0.47987,2.50087 0.54203,2.86467 0.0622,0.3638 0.13999,0.72099 0.17297,0.79375 0.033,0.0728 0.0876,0.25135 0.12143,0.39687 0.0338,0.14553 0.085,0.32412 0.11375,0.39688 0.0288,0.0728 0.10474,0.44958 0.16885,0.83738 0.10162,0.61467 -0.006,0.74555 -0.83919,1.02053 -0.52567,0.17348 -1.29768,0.24705 -1.71557,0.16347 -0.41789,-0.0836 -0.83098,-0.0368 -0.91797,0.10395 -0.087,0.14076 -0.37812,0.25592 -0.64695,0.25592 -0.36408,0 -0.45223,-0.13978 -0.34551,-0.54786 0.13181,-0.50405 0.064,-0.533 -0.84749,-0.362 -1.12256,0.2106 -1.59688,-0.19579 -1.16671,-0.99958 0.1421,-0.26551 0.18538,-0.60083 0.0962,-0.74516 -0.0892,-0.14433 0.14292,-0.90734 0.51582,-1.69559 0.3729,-0.78824 0.61085,-1.60815 0.52878,-1.82202 -0.15754,-0.41053 0.29598,-0.82052 0.92061,-0.83226 0.44794,-0.008 1.58449,-1.90317 1.60061,-2.6684 0.006,-0.29961 -0.16333,-0.77586 -0.37699,-1.05833 -0.34462,-0.45564 -0.38941,-0.46239 -0.39687,-0.0599 -0.005,0.24954 -0.2467,0.58124 -0.53794,0.7371 -0.57476,0.30761 -1.99592,2.83762 -1.89314,3.37026 0.11094,0.57494 -0.50733,1.42719 -0.96863,1.3352 -0.46717,-0.0932 -2.29975,2.2302 -2.47439,3.13707 -0.10907,0.56635 -1.30545,1.23156 -1.63045,0.90656 -0.12501,-0.125 -0.024,-0.53435 0.22589,-0.91578 0.43891,-0.66987 0.43547,-0.68975 -0.11955,-0.68975 -0.53305,0 -0.5622,-0.0979 -0.43344,-1.45521 0.12371,-1.30401 0.0856,-1.4552 -0.36715,-1.4552 -0.27787,0 -0.57413,0.21716 -0.65837,0.48258 -0.0842,0.26542 -0.48437,0.79989 -0.88916,1.18771 -0.68696,0.65815 -0.7749,0.67788 -1.31988,0.29616 -0.32113,-0.22493 -0.58387,-0.63331 -0.58387,-0.90751 0,-0.56705 -0.43421,-0.94695 -0.58055,-0.50794 -0.0579,0.17368 -0.35837,0.0705 -0.7502,-0.25756 -0.4182,-0.35016 -0.55295,-0.62069 -0.37412,-0.75109 0.15373,-0.1121 0.55239,-0.40182 0.88592,-0.64382 0.46084,-0.33439 0.54611,-0.54777 0.35522,-0.88886 -0.22738,-0.40631 -0.26667,-0.40849 -0.41459,-0.023 -0.0899,0.23421 -0.40527,0.42584 -0.70088,0.42584 -0.29561,0 -0.53747,0.11906 -0.53747,0.26458 0,0.14552 -0.23812,0.26458 -0.52917,0.26458 -0.76531,0 -0.65762,-0.35354 0.46302,-1.52003 0.54571,-0.56804 1.23032,-1.37103 1.52136,-1.78443 0.29104,-0.4134 0.67799,-0.90208 0.85989,-1.08594 0.18191,-0.18387 0.33073,-0.5214 0.33073,-0.75007 0,-0.22868 0.16798,-0.41578 0.37328,-0.41578 0.48094,0 1.58161,-2.26088 1.36961,-2.81334 -0.13215,-0.34437 -0.23481,-0.36054 -0.56248,-0.0886 -0.48088,0.39909 -1.79172,2.3092 -2.05414,2.9932 -0.103,0.26848 -0.41656,0.5481 -0.69679,0.62138 -0.30102,0.0787 -0.45165,0.28407 -0.36809,0.50182 0.0778,0.20271 -0.0495,0.44185 -0.28289,0.5314 -0.23338,0.0896 -0.42433,0.30014 -0.42433,0.46796 0,0.50925 -1.35291,1.80003 -1.73357,1.65395 -0.2299,-0.0882 -0.30359,3.1e-4 -0.20787,0.24974 0.10445,0.2722 0.0223,0.33805 -0.27806,0.2228 -0.23448,-0.09 -0.42633,-0.28132 -0.42633,-0.4252 0,-0.44377 0.89186,-1.79845 1.18402,-1.79845 0.32994,0 1.07417,-1.08997 0.97553,-1.42872 -0.0381,-0.13095 0.29415,-0.6072 0.7384,-1.05833 0.44425,-0.45113 1.59417,-1.83227 2.55537,-3.0692 0.96121,-1.23693 1.79357,-2.29784 1.84971,-2.35758 0.0561,-0.0597 0.32081,0.0894 0.58817,0.33131 0.26736,0.24196 0.56575,0.36029 0.66308,0.26296 0.0973,-0.0973 0.17697,-0.0381 0.17697,0.13171 0,0.16978 0.11532,0.30868 0.25628,0.30868 0.14095,0 0.19364,-0.16323 0.11708,-0.36273 -0.0765,-0.1995 0.0538,-0.43679 0.28966,-0.5273 0.23587,-0.0905 0.35983,-0.27624 0.27547,-0.41273 -0.0844,-0.1365 -0.0324,-0.32296 0.11552,-0.41436 0.1479,-0.0914 0.2689,-0.37016 0.2689,-0.61946 0,-0.2493 0.33072,-0.86735 0.73494,-1.37345 0.40421,-0.50609 1.02929,-1.36585 1.38906,-1.91055 0.35977,-0.54471 0.72067,-0.9912 0.802,-0.99219 0.0813,-0.001 0.37898,-0.19012 0.66145,-0.42028 0.43853,-0.35732 0.44592,-0.3972 0.0506,-0.27289 -0.53796,0.16915 -0.58727,-0.13365 -0.15731,-0.96588 0.16814,-0.32544 0.39229,-0.77031 0.49812,-0.98859 0.10582,-0.21828 0.40833,-0.35653 0.67225,-0.30721 0.42165,0.0788 0.43495,0.0356 0.10969,-0.35634 -0.32037,-0.38603 -0.31104,-0.47907 0.0694,-0.69197 0.24174,-0.13529 0.37221,-0.42142 0.28992,-0.63586 -0.14089,-0.36716 -0.0421,-0.43098 0.7669,-0.49571 0.1819,-0.0145 0.49349,-0.24506 0.69241,-0.51224 0.21408,-0.28754 0.56499,-0.43262 0.85989,-0.3555 0.30902,0.0808 0.49822,-0.007 0.49822,-0.23251 0,-0.19954 0.23755,-0.48993 0.52788,-0.64531 0.29034,-0.15538 1.05201,-0.7919 1.6926,-1.41449 1.22878,-1.19423 3.12979,-1.99046 3.68578,-1.54376 0.1713,0.13762 1.14489,0.20407 2.16353,0.14767 4.53075,-0.25085 5.82084,-0.33343 5.82084,-0.37258 0,-0.023 0.53578,-0.0792 1.19062,-0.12482 0.65485,-0.0456 1.19063,-0.10252 1.19063,-0.12647 0,-0.0239 0.46191,-0.0995 1.02646,-0.1679 0.56456,-0.0684 1.35052,-0.29194 1.74658,-0.49675 0.54224,-0.28041 0.79519,-0.29731 1.02406,-0.0684 0.22886,0.22886 0.30602,0.20917 0.31235,-0.0797 0.006,-0.27905 0.11432,-0.24363 0.39688,0.12995 0.27873,0.36852 0.38846,0.40545 0.38846,0.13074 0,-0.35763 2.22828,-1.57038 2.88537,-1.57038 0.16325,0 0.50355,-0.11037 0.75624,-0.24527 0.76544,-0.40863 1.478,-0.63459 2.29124,-0.72658 0.42542,-0.0481 0.97057,-0.26586 1.21146,-0.48386 0.24089,-0.21801 0.53951,-0.39637 0.66361,-0.39637 0.12409,0 1.33466,-0.54309 2.69014,-1.20686 2.26439,-1.10885 2.99569,-1.26607 2.99569,-0.64405 0,0.21901 -0.50176,0.54367 -2.11667,1.36957 -0.3638,0.18605 -0.74196,0.45256 -0.84035,0.59225 -0.0984,0.13968 -0.51512,0.29739 -0.92605,0.35046 -0.95241,0.123 -1.95701,1.04947 -1.4675,1.35337 0.21246,0.1319 0.39439,1.08669 0.48989,2.57098 0.20376,3.16707 0.25148,3.61691 0.4329,4.08095 0.0853,0.21828 0.21489,0.75406 0.28789,1.19062 0.45469,2.71922 1.48578,5.24692 2.84534,6.97533 0.63836,0.81154 0.48361,1.01709 -0.66479,0.88302 -0.67411,-0.0787 -0.97833,-0.26644 -1.09598,-0.67635 -0.0896,-0.31208 -0.44,-1.16273 -0.77874,-1.89033 -1.01579,-2.18193 -1.47723,-3.5808 -1.62112,-4.9145 -0.075,-0.69527 -0.2325,-1.60033 -0.34998,-2.01127 l -0.21361,-0.74715 -0.31801,0.79375 c -0.17491,0.43656 -0.33003,1.03188 -0.34472,1.32292 -0.0147,0.29104 -0.13495,0.67278 -0.26726,0.8483 -0.1323,0.17553 -0.14804,0.46882 -0.035,0.65175 0.11306,0.18294 0.24558,0.69417 0.29449,1.13607 0.14949,1.35065 0.22822,1.70667 0.41979,1.89823 0.10122,0.10123 0.18404,0.50534 0.18404,0.89802 0,0.39269 0.21991,0.99792 0.48868,1.34497 0.26877,0.34704 0.55894,1.07748 0.64482,1.62318 0.12852,0.81661 0.0772,0.99183 -0.29024,0.99015 -0.57074,-0.003 -1.71481,-1.98184 -1.51304,-2.61756 0.0862,-0.27172 -0.0226,-0.62604 -0.25029,-0.81503 -0.22156,-0.18388 -0.40663,-0.52811 -0.41126,-0.76496 -0.0126,-0.64608 -0.78533,0.44215 -0.78533,1.10602 0,0.37919 -0.13531,0.47407 -0.52917,0.37107 -0.69502,-0.18175 -0.69501,0.43324 4e-5,1.79654 0.29107,0.57091 0.46164,1.25093 0.37905,1.51116 -0.0826,0.26022 -0.0231,0.47313 0.13225,0.47313 0.15532,0 0.28241,0.17859 0.28241,0.39687 0,0.74486 -0.80342,0.41469 -0.96573,-0.39687 -0.0873,-0.43656 -0.26133,-0.79375 -0.38671,-0.79375 -0.32792,0 -1.02881,-1.79008 -1.02881,-2.62758 0,-0.67515 -0.63994,-1.88537 -0.84888,-1.60534 -0.0541,0.0725 -0.21268,0.47673 -0.35236,0.89822 -0.2085,0.62913 -0.60711,1.02601 -1.39395,1.38787 -0.0449,0.0206 0.0978,0.46714 0.31723,0.99219 0.21938,0.52505 0.33678,0.95464 0.26088,0.95464 -0.0759,0 0.10877,0.31371 0.41038,0.69714 0.3016,0.38343 0.54837,0.86129 0.54837,1.06192 0,0.20063 0.11906,0.6013 0.26458,0.89036 0.79346,1.57617 0.78711,1.52393 0.20403,1.67641 -0.78016,0.20402 -0.88998,0.0861 -1.2494,-1.34125 -0.17419,-0.69176 -0.41288,-1.3784 -0.53043,-1.52585 -0.57517,-0.72153 -1.86563,-3.45353 -1.76058,-3.72729 0.0657,-0.17129 -0.0497,-0.63751 -0.25643,-1.03606 -0.20677,-0.39854 -0.37594,-0.94211 -0.37594,-1.20793 0,-0.67419 -0.50595,-0.91572 -0.96231,-0.45937 -0.30766,0.30766 -0.32302,0.53344 -0.0786,1.15578 0.32599,0.83015 1.05232,4.01851 0.98063,4.30463 -0.15498,0.61847 0.42582,3.27101 0.74286,3.39267 0.54227,0.20809 0.46766,1.7676 -0.11923,2.49238 l -0.49503,0.61134 -0.43102,-1.48264 c -0.23705,-0.81545 -0.43101,-1.8591 -0.43101,-2.31921 0,-0.46011 -0.11603,-1.05336 -0.25784,-1.31834 -0.14181,-0.26497 -0.31082,-1.20124 -0.37559,-2.08058 -0.0648,-0.87935 -0.31904,-2.02298 -0.56504,-2.5414 -0.24601,-0.51843 -0.37985,-1.11834 -0.29742,-1.33313 0.0824,-0.2148 0.0597,-0.44626 -0.0504,-0.51434 -0.11016,-0.0681 -0.23033,-0.63285 -0.26704,-1.25503 -0.0367,-0.62217 -0.1793,-1.26685 -0.31687,-1.4326 -0.26963,-0.32488 -0.35199,-2.03439 -0.20842,-4.32583 0.0612,-0.97702 -0.0153,-1.46721 -0.24103,-1.5434 -0.20493,-0.0692 -0.33073,0.13477 -0.33073,0.53618 0,0.35631 -0.2199,0.93177 -0.48867,1.27882 -1.02713,1.32627 -0.7742,4.06722 0.37554,4.06955 0.54354,0.001 0.55651,0.19255 0.20997,3.1007 -0.10493,0.88061 0.0146,1.75298 0.40642,2.96574 0.30529,0.94498 0.55508,2.08021 0.55508,2.52272 0,0.44252 0.1318,0.80458 0.29289,0.80458 0.16109,0 0.2218,0.18525 0.13492,0.41166 -0.0869,0.22642 0.0242,0.8477 0.24688,1.38063 0.22268,0.53293 0.47155,1.38947 0.55305,1.90344 0.0815,0.51396 0.26529,1.15364 0.40842,1.4215 0.26131,0.48904 -0.16344,2.02652 -0.55986,2.02652 -0.10032,0 -0.3934,-0.74414 -0.65129,-1.65365 -0.25788,-0.9095 -0.56364,-1.89177 -0.67945,-2.18281 -0.11581,-0.29104 -0.34329,-1.39003 -0.5055,-2.44219 -0.39543,-2.56491 -0.38439,-2.52247 -0.76142,-2.92822 -0.1819,-0.19576 -0.33073,-0.6689 -0.33073,-1.05141 0,-0.76967 -0.40824,-0.53505 -0.58534,0.3364 -0.0591,0.29104 -0.23709,0.50347 -0.39542,0.47207 -0.16126,-0.032 -0.22992,0.16456 -0.15609,0.44686 0.0725,0.27717 -0.0749,1.12615 -0.32746,1.8866 -0.38873,1.17035 -0.40297,1.42674 -0.0928,1.66981 0.20156,0.15794 0.39307,0.6949 0.42559,1.19325 0.0325,0.49834 0.19659,0.99105 0.36462,1.09489 0.16803,0.10385 0.2237,0.32119 0.12371,0.48298 -0.1,0.16179 -0.0656,0.29417 0.0763,0.29417 0.14198,0 0.26712,0.50601 0.27809,1.12448 0.011,0.61846 0.0396,1.30307 0.0637,1.52135 0.18657,1.69072 -0.46368,1.68426 -1.00869,-0.01 -0.20888,-0.64933 -0.48442,-1.41872 -0.61233,-1.70976 -0.1279,-0.29104 -0.30833,-0.98782 -0.40095,-1.54839 -0.0926,-0.56058 -0.23941,-0.9482 -0.32622,-0.86139 -0.30316,0.30315 -0.24591,1.887 0.0967,2.67436 0.18994,0.43656 0.37838,1.32508 0.41876,1.97448 0.0584,0.93904 -0.0194,1.1999 -0.38016,1.27435 -0.31894,0.0658 -0.49921,-0.12756 -0.60734,-0.65156 -0.35802,-1.73495 -0.69598,-2.72956 -0.92747,-2.72956 -0.25798,0 -0.0692,1.42837 0.27974,2.11667 0.11066,0.21828 0.28761,0.97313 0.39322,1.67745 0.10561,0.70432 0.45471,1.77588 0.77579,2.38125 0.87279,1.6456 1.01798,2.4824 0.5473,3.15439 l -0.40455,0.57757 v -0.57243 c 0,-0.31483 -0.11906,-0.64601 -0.26458,-0.73594 -0.14552,-0.0899 -0.26532,-0.36486 -0.26621,-0.61093 -9e-4,-0.24607 -0.15359,-0.74506 -0.33931,-1.10886 -0.18572,-0.36381 -0.50741,-1.19724 -0.71488,-1.85209 -0.20746,-0.65484 -0.44672,-1.25015 -0.53168,-1.32291 -0.1466,-0.12554 -0.31868,-0.68337 -1.06103,-3.43959 -0.17638,-0.65484 -0.32454,-1.51804 -0.32926,-1.91823 -0.005,-0.44702 -0.153,-0.7276 -0.38309,-0.7276 -0.20599,0 -0.3008,0.11929 -0.21069,0.26508 0.0901,0.14579 -0.14899,0.38401 -0.53132,0.52937 -0.56647,0.21537 -0.65986,0.37445 -0.50455,0.8594 0.10482,0.32731 0.22282,0.99244 0.26221,1.47807 0.0394,0.48563 0.26906,1.10112 0.51036,1.36776 0.24131,0.26664 0.41578,0.76227 0.38772,1.10141 -0.0281,0.33914 -0.029,0.67615 -0.002,0.74891 0.0269,0.0728 0.0999,0.40652 0.16207,0.74169 0.0622,0.33517 0.29635,0.96374 0.52031,1.39683 0.22396,0.43309 0.34433,0.88916 0.26749,1.01349 -0.0768,0.12433 0.0353,0.80544 0.24919,1.51358 0.2139,0.70814 0.32341,1.49589 0.24336,1.75056 -0.08,0.25466 -0.0317,0.46302 0.10743,0.46302 0.33214,0 0.6507,1.73047 0.44048,2.39281 -0.15565,0.4904 -0.89946,0.74225 -0.94262,0.31917 z m -10.03392,-4.0349 c 0,-0.14552 -0.11906,-0.26458 -0.26458,-0.26458 -0.14552,0 -0.26459,-0.29766 -0.26459,-0.66146 0,-0.74637 0.0775,-0.78019 0.84582,-0.36901 0.515,0.27562 0.53655,0.23967 0.37439,-0.62468 -0.0946,-0.50442 -0.38668,-1.35838 -0.64901,-1.89769 -0.40279,-0.8281 -0.52715,-0.92009 -0.79977,-0.59159 -0.45266,0.54542 -0.85232,2.02776 -0.54671,2.02776 0.13537,0 0.24612,0.52586 0.24612,1.16858 0,1.06028 0.19237,1.3861 0.85989,1.45636 0.10914,0.0115 0.19844,-0.0982 0.19844,-0.24369 z m -2.23666,-1.21258 c 0.0135,-0.70326 -0.14806,-0.79479 -0.60188,-0.34097 -0.22166,0.22166 -0.22083,0.42296 0.003,0.78172 0.36411,0.58304 0.58206,0.42258 0.59866,-0.44075 z m -3.9149,-3.2445 c 0.87046,-1.28401 1.1285,-2.29114 0.53646,-2.09379 -0.17789,0.0593 -0.38624,0.35914 -0.46302,0.66633 -0.0768,0.30718 -0.40748,0.86481 -0.7349,1.23917 -0.57786,0.66068 -0.79932,1.47738 -0.39688,1.46355 0.10914,-0.004 0.58539,-0.57762 1.05834,-1.27526 z m -4.45165,-1.27845 c 1.20907,-2.23229 1.06489,-2.84811 -0.3331,-1.42272 -0.48159,0.49103 -0.80168,1.15099 -0.89473,1.84473 -0.20494,1.5279 0.25788,1.36883 1.22783,-0.42201 z m 3.15635,-0.15145 c 0.17105,-0.32742 0.59184,-1.11623 0.93508,-1.7529 0.34325,-0.63667 0.56571,-1.38082 0.49437,-1.65365 -0.15459,-0.59113 -0.59717,-0.66464 -0.59717,-0.0992 0,0.21828 -0.11629,0.39688 -0.25841,0.39688 -0.14213,0 -0.49931,0.49861 -0.79375,1.10803 -0.82646,1.71057 -0.61825,3.60518 0.21988,2.00082 z m 3.5488,-2.68096 c -0.0663,-0.34675 0.01,-0.71096 0.16898,-0.80937 0.15922,-0.0984 0.2895,-0.0458 0.2895,0.11689 0,0.1627 0.11906,0.22223 0.26458,0.13229 0.42394,-0.262 0.30695,-0.58866 -0.26432,-0.73805 -0.2909,-0.0761 -0.60898,-0.009 -0.70686,0.14963 -0.31657,0.51222 -0.28026,1.77905 0.051,1.77905 0.19199,0 0.26998,-0.2494 0.19714,-0.63044 z m -4.21683,-1.54825 c 0.14575,-0.57832 0.13755,-0.58134 -0.23264,-0.0858 -0.42497,0.5688 -0.51317,1.05285 -0.15107,0.82906 0.12795,-0.0791 0.30062,-0.41353 0.38371,-0.74322 z m 13.0408,-0.46714 c 0.62031,0 0.98447,-1.14926 1.00606,-3.175 0.0116,-1.09141 0.11327,-2.05268 0.22585,-2.13615 0.11258,-0.0835 -0.0363,-0.36982 -0.33073,-0.63632 -0.48276,-0.43689 -0.53542,-0.44113 -0.53542,-0.0431 0,0.24281 -0.10949,0.64822 -0.2433,0.90091 -1.37061,2.58817 -1.82664,4.65789 -1.26597,5.74566 0.26389,0.51196 0.27587,0.51048 0.53317,-0.0661 0.14476,-0.32444 0.41942,-0.58988 0.61034,-0.58988 z m 6.69716,0.59531 c -0.0102,-0.10914 -0.11433,-0.43656 -0.23134,-0.72761 -0.11701,-0.29104 -0.10949,-0.72811 0.0167,-0.97127 0.1262,-0.24316 0.30034,-0.88811 0.38697,-1.43322 0.0866,-0.54512 0.25848,-1.25666 0.38187,-1.58121 0.12339,-0.32455 0.16245,-0.65199 0.0868,-0.72765 -0.0757,-0.0756 -0.17016,-0.53438 -0.21002,-1.01939 -0.12178,-1.48217 -0.13878,-1.5433 -0.42903,-1.5433 -0.15466,0 -0.25364,0.20836 -0.21995,0.46302 0.0337,0.25467 -0.0775,0.76068 -0.2471,1.12448 -0.1696,0.36381 -0.48166,1.42651 -0.69346,2.36156 -0.36377,1.60595 -0.35469,1.77079 0.16402,2.97656 0.30202,0.70206 0.65352,1.27647 0.78112,1.27647 0.12761,0 0.22364,-0.0893 0.21341,-0.19844 z m -10.04207,-1.5875 c 0.76169,-1.40123 0.80357,-1.60571 0.53035,-2.58977 -0.16315,-0.58763 -0.27413,-1.18294 -0.24662,-1.32292 0.27791,-1.41398 -0.94117,0.72241 -1.66249,2.91347 -0.41978,1.27511 -0.2713,2.52057 0.30051,2.52057 0.13819,0 0.6234,-0.68461 1.07825,-1.52135 z m -5.21902,0.18486 c 0.40018,-0.5785 0.7276,-1.16929 0.7276,-1.31287 0,-0.14358 0.10458,-0.26105 0.2324,-0.26105 0.34,0 0.82295,-2.08729 0.52549,-2.27113 -0.13473,-0.0833 -0.16852,-0.55882 -0.0751,-1.0568 0.19754,-1.05298 -0.27102,-1.26328 -0.52854,-0.23722 -0.0922,0.36751 -0.40715,0.90763 -0.69979,1.20028 -0.29265,0.29265 -0.46628,0.63858 -0.38583,0.76873 0.0804,0.13016 0.0179,0.31598 -0.13896,0.41293 -0.42608,0.26333 -0.86363,1.45942 -0.91679,2.50612 -0.0845,1.66456 0.23732,1.72871 1.25952,0.25101 z m -2.90586,-1.0803 c 0.14211,-0.0923 0.20707,-0.32175 0.14437,-0.50987 -0.13121,-0.39361 -1.27922,1.33327 -1.26281,1.89956 0.006,0.2011 0.20172,0.008 0.43533,-0.42811 0.23361,-0.43656 0.54101,-0.86927 0.68311,-0.96158 z m 15.21646,-1.7595 c 0.0828,-0.82986 0.0296,-1.12865 -0.17808,-1.00028 -0.56907,0.3517 -1.02089,1.61007 -0.88967,2.47782 0.13149,0.86953 0.13371,0.87072 0.54084,0.28946 0.22485,-0.32102 0.46196,-1.11617 0.52691,-1.767 z m -16.42934,-0.63582 c -0.0845,-0.21106 -0.14716,-0.14837 -0.15985,0.15986 -0.0115,0.27891 0.051,0.43518 0.13896,0.34726 0.0879,-0.0879 0.0973,-0.31612 0.0209,-0.50712 z m 8.95025,-3.40283 c 0.1749,-0.66192 0.25422,-1.61442 0.17627,-2.11667 l -0.14173,-0.91318 -0.23348,0.92604 c -0.12842,0.50933 -0.22922,1.16417 -0.224,1.45521 0.005,0.29104 -0.15346,0.88636 -0.35262,1.32292 -0.19916,0.43656 -0.43755,1.21047 -0.52974,1.71979 l -0.16763,0.92604 0.57747,-1.05833 c 0.31761,-0.58209 0.72057,-1.5999 0.89546,-2.26182 z m -5.68244,1.93109 c 0.41069,-1.29528 1.01173,-2.2373 1.3099,-2.05302 0.13229,0.0818 0.17302,-0.24937 0.0921,-0.74835 -0.11557,-0.71219 -0.0185,-1.01306 0.47515,-1.47298 0.50819,-0.47346 0.55233,-0.62004 0.24407,-0.81056 -0.31171,-0.19264 -0.31689,-0.30418 -0.0302,-0.64961 0.21082,-0.25402 0.23613,-0.41704 0.0648,-0.41704 -0.29618,0 -0.67282,0.47889 -0.72832,0.92604 -0.0181,0.14552 -0.051,0.41341 -0.0731,0.59531 -0.0222,0.1819 -0.21889,0.33073 -0.43718,0.33073 -0.21828,0 -0.39687,0.11131 -0.39687,0.24736 0,0.13605 -0.14233,0.58253 -0.31628,0.99219 -0.17395,0.40965 -0.32983,0.86389 -0.3464,1.00941 -0.10865,0.95455 -0.48249,1.49421 -0.95033,1.37187 -0.59364,-0.15524 -0.68444,0.22193 -0.10678,0.4436 0.21828,0.0838 0.39687,0.39416 0.39687,0.68977 0,0.87612 0.46411,0.61321 0.80272,-0.45472 z m 8.10973,0.82061 c -0.0944,-0.0944 0.0383,-0.36226 0.2948,-0.59531 0.82427,-0.74892 1.44927,-3.93183 1.30367,-6.63914 -0.0713,-1.32504 -0.18656,-2.46614 -0.25622,-2.5358 -0.0696,-0.0697 -0.19695,0.38628 -0.28288,1.0132 -0.0859,0.62691 -0.39759,1.67193 -0.69259,2.32225 -0.29499,0.65033 -0.53897,1.48603 -0.54217,1.85711 -0.003,0.37107 -0.11599,0.78779 -0.25065,0.92604 -0.27935,0.28677 -0.57809,3.44127 -0.34771,3.67164 0.0834,0.0834 0.33017,0.15159 0.54846,0.15159 0.21828,0 0.31966,-0.0772 0.22529,-0.17158 z m 4.12374,-1.72389 c 0.15556,-0.0966 0.31271,-0.45381 0.34921,-0.79375 0.0365,-0.33994 0.16539,-1.0123 0.28642,-1.49412 0.307,-1.22222 0.11662,-3.225 -0.30657,-3.225 -0.48768,0 -1.26467,1.29026 -1.11702,1.85489 0.0687,0.26287 0.0303,0.99486 -0.0854,1.62664 -0.12787,0.69813 -0.1071,1.27343 0.053,1.46671 0.14485,0.17492 0.18632,0.56081 0.0921,0.85753 -0.0942,0.29672 -0.0744,0.68939 0.044,0.87259 0.14752,0.22835 0.24448,0.12509 0.30833,-0.32836 0.0512,-0.3638 0.22043,-0.74051 0.37599,-0.83713 z m 0.98673,0.83713 c 0,-0.14552 -0.0525,-0.26458 -0.11668,-0.26458 -0.0642,0 -0.19026,0.11906 -0.2802,0.26458 -0.0899,0.14552 -0.0374,0.26459 0.11668,0.26459 0.15411,0 0.2802,-0.11907 0.2802,-0.26459 z m 1.51584,-0.68902 c -0.0879,-0.0879 -0.31612,-0.0973 -0.50712,-0.0209 -0.21106,0.0845 -0.14837,0.14715 0.15986,0.15985 0.27891,0.0115 0.43518,-0.0511 0.34726,-0.13897 z m 3.51124,-0.74733 c 0,-0.19074 0.24079,-1.10052 0.53509,-2.02175 0.37357,-1.16939 0.48284,-1.99838 0.36201,-2.74645 -0.0952,-0.58932 -0.18715,-1.51797 -0.20436,-2.06368 -0.0337,-1.07003 -0.42815,-1.40455 -0.42815,-0.36312 0,0.34598 -0.16042,0.76219 -0.35648,0.92491 -0.22075,0.1832 -0.34002,0.77478 -0.31327,1.55375 0.0238,0.69184 -0.10068,1.40242 -0.27652,1.57906 -0.3135,0.31492 -0.28214,3.02607 0.0411,3.549 0.19514,0.31573 0.64063,0.0294 0.64063,-0.41172 z m -14.19235,-1.54904 c 0.0581,-0.46809 0.35813,-1.74164 0.66671,-2.83012 0.9737,-3.4346 0.63806,-3.56132 -0.67967,-0.25662 -0.73612,1.84607 -0.81608,2.3974 -0.64088,4.41849 0.0619,0.71351 0.0678,0.7159 0.30562,0.12346 0.13341,-0.33228 0.2901,-0.98713 0.34822,-1.45521 z m 11.01735,0.60414 c 0.17455,-0.7276 0.41469,-1.32291 0.53363,-1.32291 0.11895,0 0.34654,-0.6074 0.50575,-1.34978 0.30966,-1.44391 -0.0337,-3.57494 -0.52687,-3.27013 -0.14111,0.0872 -0.19314,0.26116 -0.11563,0.38657 0.0775,0.12541 0.0199,0.30281 -0.12798,0.39421 -0.14789,0.0914 -0.2689,0.39729 -0.2689,0.67974 0,0.28246 -0.0893,0.51355 -0.19843,0.51355 -0.10915,0 -0.2241,0.26789 -0.25546,0.59532 -0.42039,4.3893 -0.19381,6.07335 0.45389,3.37343 z m -16.36799,0.58532 c -0.19088,-0.0636 -0.47285,0.0101 -0.6266,0.16386 -0.19634,0.19634 -0.093,0.23078 0.34705,0.11569 0.35777,-0.0936 0.47771,-0.21349 0.27955,-0.27955 z m 0.85001,-2.29664 c 0.082,-0.21362 0.0352,-0.45877 -0.10399,-0.54478 -0.13916,-0.086 -0.25303,0.0888 -0.25303,0.38841 0,0.63885 0.14714,0.7033 0.35702,0.15637 z m 27.53011,-2.23605 c 0.077,-0.64309 0.27723,-1.25402 0.44486,-1.35763 0.22858,-0.14126 0.22216,-0.43878 -0.0257,-1.18968 -0.18175,-0.55072 -0.30978,-1.89323 -0.28451,-2.98336 0.0408,-1.75838 -6e-5,-1.94385 -0.36189,-1.64356 -0.22431,0.18616 -0.40784,0.54745 -0.40784,0.80285 0,0.25541 -0.18548,0.61831 -0.41217,0.80644 -0.6412,0.53216 -1.28494,2.13466 -1.29684,3.22832 -0.006,0.54562 0.0739,0.9921 0.17745,0.99218 0.20286,1.6e-4 0.72113,1.73598 0.85804,2.8738 0.0462,0.38402 0.0996,0.81728 0.11864,0.96281 0.0819,0.62576 1.06242,-1.42786 1.18992,-2.49217 z m 3.06618,0.50779 c 0.63788,0 0.98391,-2.80379 0.71035,-5.75593 -0.15735,-1.69818 -0.6827,-3.19958 -0.69936,-1.99875 -0.004,0.31884 -0.11142,0.64359 -0.23776,0.72167 -0.12634,0.0781 -0.31207,0.76288 -0.41274,1.52177 -0.10067,0.75889 -0.2644,1.5057 -0.36385,1.65958 -0.28814,0.44588 -0.24936,1.58485 0.0611,1.79307 0.19625,0.13164 0.17065,0.37279 -0.083,0.78173 -0.26054,0.42008 -0.2797,0.6204 -0.0661,0.69158 0.16535,0.0551 0.30063,0.31868 0.30063,0.58569 0,0.26701 0.0893,0.70357 0.19844,0.97014 0.16521,0.40351 0.21246,0.36283 0.28216,-0.24295 0.046,-0.40018 0.18564,-0.7276 0.31021,-0.7276 z m -22.64913,-1.35908 c -0.0529,-0.0927 0.081,-0.31559 0.29769,-0.49542 0.21668,-0.17983 0.39397,-0.59227 0.39397,-0.91654 0,-0.84315 0.53262,-2.25604 0.85047,-2.25604 0.15137,0 0.20858,-0.31896 0.13047,-0.72752 -0.0816,-0.42667 0.0367,-1.02507 0.28598,-1.44707 0.50567,-0.85602 0.35674,-1.08598 -0.5551,-0.85712 -0.71748,0.18008 -1.16805,0.89766 -0.73262,1.16677 0.15769,0.0975 0.008,0.6843 -0.37754,1.47636 -0.35159,0.72304 -0.6925,1.81429 -0.75759,2.425 -0.0651,0.61071 -0.19432,1.23332 -0.28719,1.38359 -0.0929,0.15027 -0.0256,0.54091 0.14952,0.8681 0.308,0.57552 0.32455,0.57785 0.50829,0.0716 0.10446,-0.2878 0.1466,-0.59907 0.0936,-0.69172 z m 4.14364,-1.68363 c -0.28461,-0.41067 -0.27431,-1.45521 0.0144,-1.45521 0.14215,0 0.0248,-0.25078 -0.26076,-0.5573 -0.68683,-0.73722 -1.15801,-0.45266 -0.80181,0.48423 0.14678,0.38606 0.24812,0.94739 0.22519,1.2474 -0.0229,0.30001 -0.0197,1.02172 0.007,1.6038 l 0.0489,1.05833 0.47514,-1.05833 c 0.26133,-0.58208 0.39263,-1.1774 0.29177,-1.32292 z m 11.73241,-0.70861 c -0.10897,-0.17633 -0.067,-0.22631 0.10228,-0.1217 0.15795,0.0976 0.36196,0.0565 0.45337,-0.0914 0.0914,-0.1479 -0.0269,-0.2689 -0.26294,-0.2689 -0.25024,0 -0.40948,-0.19302 -0.38202,-0.46302 0.10241,-1.0067 -0.011,-1.49775 -0.28303,-1.2257 -0.42303,0.42302 -0.78463,1.92486 -0.50506,2.09764 0.1348,0.0833 0.24986,0.5314 0.25568,0.99575 l 0.0106,0.84429 0.39802,-0.73388 c 0.21891,-0.40364 0.3148,-0.86852 0.2131,-1.03307 z m -19.97494,0.13535 c 0.35962,-0.7893 0.029,-0.78427 -0.54636,0.008 -0.33687,0.46408 -0.35794,0.60905 -0.0885,0.60905 0.19447,0 0.48017,-0.27781 0.63488,-0.61736 z m 11.06973,0.15402 c 0.11012,-0.42109 0.19812,-0.46802 0.37211,-0.19844 0.18718,0.29004 0.27242,0.28381 0.47732,-0.0349 0.14566,-0.22657 0.15196,-0.50547 0.0151,-0.67033 -0.13662,-0.16462 -0.132,-0.44411 0.0111,-0.67034 0.13497,-0.2134 0.24294,-0.92378 0.23993,-1.57862 l -0.005,-1.19063 -0.65063,0.79375 c -0.35785,0.43656 -0.65122,0.98714 -0.65194,1.22351 -7.3e-4,0.23636 -0.17083,0.91021 -0.37802,1.49743 -0.20718,0.58722 -0.3064,1.13797 -0.22048,1.22389 0.31249,0.31249 0.64997,0.14381 0.79095,-0.39532 z m 3.37384,-0.4598 c 0.0967,-0.38965 0.41756,-0.96753 0.71306,-1.28418 0.2955,-0.31665 0.46442,-0.69362 0.37537,-0.8377 -0.089,-0.14408 -0.0293,-0.59938 0.13285,-1.01177 0.16212,-0.4124 0.39069,-1.06992 0.50794,-1.46118 l 0.21317,-0.71136 -1.42865,0.0499 c -1.5629,0.0546 -2.11834,0.56545 -1.05456,0.96989 0.46095,0.17526 0.59771,0.38587 0.49804,0.76698 -0.0756,0.28896 -0.30129,0.58828 -0.50162,0.66516 -0.26352,0.10112 -0.35945,0.64999 -0.34695,1.98522 0.0132,1.4146 0.0988,1.81417 0.36642,1.71147 0.19203,-0.0737 0.42825,-0.45279 0.52493,-0.84244 z m -12.03427,0.10091 c 0,-0.0642 -0.11907,-0.19026 -0.26459,-0.2802 -0.14552,-0.0899 -0.26458,-0.0374 -0.26458,0.11668 0,0.1541 0.11906,0.28019 0.26458,0.28019 0.14552,0 0.26459,-0.0525 0.26459,-0.11667 z m 18.78541,-1.32292 c 0,-0.0642 -0.11906,-0.19026 -0.26458,-0.2802 -0.14552,-0.0899 -0.26458,-0.0374 -0.26458,0.11668 0,0.15411 0.11906,0.2802 0.26458,0.2802 0.14552,0 0.26458,-0.0525 0.26458,-0.11668 z m 0.26459,-1.24312 c 0,-0.16581 0.35718,-0.88197 0.79375,-1.59148 0.43656,-0.7095 0.79375,-1.45689 0.79375,-1.66086 0,-0.20397 0.14882,-0.424 0.33073,-0.48897 0.1819,-0.065 0.26654,-0.18867 0.1881,-0.27491 -0.0784,-0.0862 -0.67375,0.0317 -1.32292,0.26213 -0.64916,0.2304 -1.59701,0.43349 -2.10633,0.4513 -0.77746,0.0272 -0.94,0.13851 -1.01301,0.69384 -0.0849,0.64589 -0.0773,0.64901 0.32232,0.13229 0.2251,-0.29104 0.41306,-0.42529 0.41769,-0.29833 0.005,0.12696 0.16842,0.098 0.36398,-0.0643 0.28212,-0.23414 0.41873,-0.0842 0.66146,0.72591 0.16824,0.56154 0.30589,1.23399 0.30589,1.49432 0,0.4453 -0.034,0.44348 -0.57464,-0.0307 -0.31606,-0.27721 -0.51301,-0.38496 -0.43768,-0.23944 0.0753,0.14552 0.21113,0.47294 0.30176,0.7276 0.18161,0.51029 0.97515,0.64176 0.97515,0.16156 z m 7.27604,-1.55062 c 0.0899,-0.14552 0.0374,-0.26458 -0.11668,-0.26458 -0.15411,0 -0.2802,0.11906 -0.2802,0.26458 0,0.14552 0.0525,0.26458 0.11668,0.26458 0.0642,0 0.19026,-0.11906 0.2802,-0.26458 z m -2.69534,-1.85208 c 0.44189,-1.32084 0.32879,-1.45902 -0.99142,-1.21135 l -0.88023,0.16513 0.49756,0.97593 c 0.27365,0.53676 0.49755,1.15316 0.49755,1.36977 0,0.65026 0.44492,-0.009 0.87654,-1.29948 z m 1.24013,0.66146 c 0,-0.21829 -0.0468,-0.39688 -0.10398,-0.39688 -0.0572,0 -0.17252,0.17859 -0.25628,0.39688 -0.0838,0.21828 -0.037,0.39687 0.10398,0.39687 0.14095,0 0.25628,-0.17859 0.25628,-0.39687 z m 2.13507,-0.66146 c 0.1354,0 0.24618,-0.11907 0.24618,-0.26459 0,-0.14552 -0.16471,-0.26458 -0.36603,-0.26458 -0.37679,0 -0.74247,1.18215 -0.45599,1.47411 0.0883,0.09 0.19861,-0.0858 0.24511,-0.39066 0.0465,-0.30486 0.19533,-0.55428 0.33073,-0.55428 z m -1.47361,-0.52917 c 0.0899,-0.14552 0.0374,-0.26458 -0.11668,-0.26458 -0.15411,0 -0.2802,0.11906 -0.2802,0.26458 0,0.14552 0.0525,0.26458 0.11668,0.26458 0.0642,0 0.19026,-0.11906 0.2802,-0.26458 z m 0.77904,-1.87589 c -0.24145,-0.39067 -0.91133,0.0667 -0.91133,0.62229 0,0.52295 0.0182,0.52535 0.52292,0.0686 0.28761,-0.26028 0.46239,-0.57119 0.38841,-0.69091 z M 185.82902,162.8028 c -0.0675,-0.10914 -0.42797,-0.19843 -0.801,-0.19843 -0.57288,0 -0.62707,-0.0617 -0.34886,-0.39688 0.38317,-0.4617 1.73729,-0.53208 2.00183,-0.10404 0.11057,0.17891 0.24531,0.19433 0.34634,0.0396 0.0909,-0.13927 1.44529,-0.3239 3.00964,-0.41029 2.34431,-0.12948 2.84427,-0.0916 2.84427,0.21564 0,0.63772 -1.0365,0.96783 -2.86911,0.91377 -0.9686,-0.0286 -1.88016,-0.0208 -2.02568,0.0173 -0.60489,0.15841 -2.04361,0.10723 -2.15743,-0.0767 z m -62.70648,-0.34214 c -0.21426,-0.55836 0.14337,-0.85981 0.4482,-0.3778 0.32391,0.51217 0.31741,0.78609 -0.0186,0.78609 -0.15008,0 -0.34339,-0.18373 -0.42956,-0.40829 z m -34.915448,-0.32362 c -0.4572,-0.29983 -1.72712,-2.96005 -1.54993,-3.24676 0.2663,-0.43088 0.5905,-0.28376 0.75067,0.34065 0.084,0.32742 0.44556,0.90834 0.80349,1.29094 0.35794,0.3826 0.68908,0.90603 0.73588,1.16318 0.0945,0.51938 -0.28445,0.75082 -0.74011,0.45199 z m 94.014768,0.0385 c -0.39233,-0.39233 -0.15968,-0.56571 0.67136,-0.50034 0.47294,0.0372 0.83383,0.17219 0.80197,0.29997 -0.0735,0.29484 -1.22258,0.45112 -1.47333,0.20037 z m -59.37662,-0.84435 c -0.17506,-0.10884 -0.39912,-0.70338 -0.49792,-1.32119 -0.15497,-0.96917 -0.25212,-1.1003 -0.70796,-0.95562 -0.49711,0.15778 -0.51778,0.0839 -0.34974,-1.25002 0.27153,-2.15546 0.30242,-2.31565 0.48101,-2.49424 0.0912,-0.0912 0.10175,-0.33277 0.0234,-0.53683 -0.0783,-0.20405 -0.0106,-0.37101 0.15052,-0.37101 0.17016,0 0.29289,-0.49235 0.29289,-1.17501 0,-0.64625 0.11906,-1.24859 0.26458,-1.33853 0.14553,-0.0899 0.26459,-0.0235 0.26459,0.14754 0,0.17472 0.2191,0.25376 0.49988,0.18033 0.27493,-0.0719 0.64947,-0.0383 0.8323,0.0747 0.46876,0.28971 0.10851,1.05261 -0.49706,1.05261 -0.53462,0 -0.83361,0.88631 -0.83675,2.48047 -9e-4,0.45475 -0.17886,1.16664 -0.39547,1.58196 -0.41632,0.79824 -0.32925,1.22924 0.24832,1.22924 0.53411,0 1.03437,1.44572 0.77062,2.22703 -0.14351,0.42512 -0.34022,0.59477 -0.54326,0.46854 z m -44.660868,-0.57874 c -0.70865,-0.2709 -1.57954,-1.26606 -1.58394,-1.80995 -0.002,-0.24925 -0.18255,-0.41044 -0.41743,-0.37272 -0.45143,0.0725 -1.43735,-1.67379 -1.07235,-1.89937 0.1185,-0.0732 0.47161,0.10548 0.78469,0.39716 0.85376,0.7954 0.68532,0.16078 -0.2124,-0.80023 -0.4299,-0.46021 -1.10633,-1.50041 -1.50319,-2.31155 -0.66726,-1.36383 -0.68787,-1.49944 -0.27397,-1.80209 0.41951,-0.30675 0.41791,-0.39171 -0.0255,-1.35445 -0.26018,-0.56495 -0.64263,-1.32483 -0.8499,-1.68863 -0.76384,-1.34077 -0.62267,-2.3414 0.25317,-1.79443 0.29434,0.18382 0.53517,0.43991 0.53517,0.56909 0,0.12919 0.38394,0.90422 0.85319,1.7223 0.46925,0.81807 0.86784,1.60647 0.88574,1.75199 0.0179,0.14553 0.0507,0.47295 0.0729,0.72761 0.0233,0.26735 0.25639,0.46302 0.55163,0.46302 0.28124,0 0.58683,0.23785 0.6791,0.52855 0.0923,0.29071 0.45334,0.60023 0.80239,0.68784 0.401,0.10064 0.80847,0.53742 1.10684,1.18647 0.25972,0.56495 0.68057,1.09688 0.93523,1.18207 0.25466,0.0852 0.46302,0.26593 0.46302,0.40165 0,0.13571 0.1786,0.24675 0.39688,0.24675 0.22048,0 0.39687,0.23519 0.39687,0.52917 0,0.62328 -0.0181,0.62761 -0.82965,0.19809 -0.8212,-0.43463 -4.46201,-4.02827 -4.46201,-4.4042 0,-0.16049 -0.18662,-0.29181 -0.41471,-0.29181 -0.69069,0 0.0123,1.52179 1.2212,2.64354 0.0798,0.074 0.40687,0.50969 0.72688,0.96816 0.92438,1.32432 2.24263,2.7383 2.55291,2.7383 0.15661,0 0.62925,0.31945 1.05032,0.70988 0.70702,0.65559 0.72705,0.72373 0.26188,0.891 -0.51038,0.18353 -1.76158,-0.5042 -2.41351,-1.32658 -0.46639,-0.58834 -0.41338,0.0311 0.0606,0.7078 0.45703,0.6525 0.23925,0.9004 -0.532,0.60557 z m -0.13229,-1.82394 c 0,-0.12995 -0.19544,-0.31127 -0.4343,-0.40293 -0.36314,-0.13935 -0.37951,-0.10064 -0.0999,0.23627 0.38104,0.45912 0.5342,0.5069 0.5342,0.16666 z m 112.848768,1.30105 c -0.32113,-0.5196 0.35821,-0.98099 1.38221,-0.93874 0.54728,0.0226 1.05609,-0.0471 1.13069,-0.15492 0.0746,-0.10779 0.49131,-0.23468 0.92604,-0.28199 0.95591,-0.10401 1.09918,0.53291 0.1951,0.86735 -0.37674,0.13936 -0.59532,0.11927 -0.59532,-0.0547 0,-0.15122 -0.1871,-0.0878 -0.41577,0.14082 -0.22868,0.22868 -0.69519,0.41578 -1.03669,0.41578 -0.34151,0 -0.79721,0.0676 -1.01268,0.15033 -0.21546,0.0827 -0.47357,0.0179 -0.57358,-0.14389 z m -2.39611,-0.28863 c -0.22271,-0.36034 -0.16251,-0.4026 0.84684,-0.59445 0.75784,-0.14405 1.14841,0.11646 1.14841,0.76598 0,0.24748 -1.83372,0.0898 -1.99525,-0.17153 z m 7.44939,-0.72732 c -0.089,-0.14402 0.21297,-0.39252 0.67107,-0.55222 1.1126,-0.38785 1.54771,-0.36587 1.54771,0.0782 0,0.48394 -0.77433,0.77068 -1.17754,0.43604 -0.21106,-0.17516 -0.41058,-0.16899 -0.59806,0.0185 -0.18252,0.18252 -0.33819,0.18936 -0.44318,0.0195 z m -77.31131,-0.68438 c -0.15653,-0.16756 -0.26432,-0.57997 -0.23953,-0.91647 0.0248,-0.33649 -0.0987,-0.75557 -0.27441,-0.93129 -0.17572,-0.17572 -0.40275,-0.58183 -0.50452,-0.90246 -0.23339,-0.73535 -0.67854,-0.7604 -0.67854,-0.0382 0,0.32877 -0.11538,0.47348 -0.29098,0.36495 -0.21102,-0.13042 -0.21082,-0.0301 7.2e-4,0.3652 0.33709,0.62986 -0.0334,1.01129 -0.47059,0.4845 -0.59501,-0.71694 -0.83027,-4.95391 -0.30989,-5.58093 0.1367,-0.16471 0.18563,-0.69863 0.10874,-1.1865 -0.0915,-0.58069 -0.0181,-0.96419 0.21267,-1.11046 0.26706,-0.1693 0.23649,-0.22442 -0.12618,-0.22749 -0.31586,-0.003 -0.40861,-0.11652 -0.27274,-0.33478 0.11324,-0.1819 0.17127,-0.59862 0.12897,-0.92604 -0.0864,-0.66842 0.18078,-0.75444 0.82169,-0.26458 0.35299,0.2698 0.39134,0.55007 0.20818,1.52135 -0.24572,1.30309 -0.38662,3.36666 -0.3186,4.66633 0.0368,0.70249 0.16247,0.84733 0.819,0.94369 0.60701,0.0891 0.8145,-0.005 0.95466,-0.43299 0.0985,-0.30075 0.16203,-0.64865 0.14119,-0.77311 -0.0208,-0.12445 0.1023,-0.39522 0.27367,-0.6017 0.17136,-0.20648 0.24193,-0.44506 0.15681,-0.53018 -0.0851,-0.0851 0.0844,-0.76685 0.37671,-1.51496 0.51346,-1.31411 1.15904,-2.24653 1.38885,-2.00591 0.15117,0.15829 -0.8119,3.97238 -1.14585,4.53792 -0.15039,0.25468 -0.22328,1.54861 -0.16668,2.95878 0.10039,2.50094 -0.11486,3.16167 -0.79335,2.43533 z m -32.591078,-0.62965 c -0.2452,-0.51957 -0.24653,-0.7616 -0.006,-1.05165 0.26732,-0.32211 0.36268,-0.30839 0.65733,0.0946 0.18956,0.25924 0.34465,0.67397 0.34465,0.92163 0,0.73831 -0.6535,0.76156 -0.99617,0.0354 z m 49.753738,0.008 c -0.0956,-0.25466 -0.32218,-0.58208 -0.5036,-0.7276 -0.18143,-0.14552 -0.36498,-0.7992 -0.4079,-1.45262 -0.061,-0.92835 0.0163,-1.20621 0.35357,-1.27116 0.31437,-0.0605 0.55532,0.29812 0.88705,1.32033 0.25049,0.7719 0.55056,1.50725 0.66682,1.63413 0.29864,0.32589 0.004,0.95994 -0.44533,0.95994 -0.20728,0 -0.45506,-0.20836 -0.55061,-0.46302 z m -11.0915,-0.39687 c 0.0766,-0.1819 0.27929,-0.83675 0.45034,-1.45521 0.17104,-0.61846 0.41592,-1.12448 0.54416,-1.12448 0.12825,0 0.23318,-0.2282 0.23318,-0.50712 0,-0.27891 0.12435,-0.54857 0.27634,-0.59923 0.15198,-0.0507 0.29638,-0.35824 0.32089,-0.68351 0.0439,-0.58226 0.56063,-0.80792 0.8347,-0.36448 0.0771,0.12481 0.0131,0.63082 -0.14237,1.12448 -0.15543,0.49366 -0.31374,1.07616 -0.35178,1.29444 -0.14364,0.82409 -0.7105,1.95379 -1.14662,2.28513 -0.58039,0.44095 -1.19966,0.45917 -1.01884,0.03 z M 29.864142,156.0555 c -0.0186,-0.25466 -0.0732,-0.70115 -0.12147,-0.99219 -0.25156,-1.51788 -0.23979,-1.5875 0.2685,-1.5875 0.73182,0 1.03438,1.3088 0.52864,2.28679 -0.44999,0.87018 -0.62794,0.94732 -0.67567,0.2929 z m 157.725428,-0.0702 c -0.34835,-0.22868 -0.34928,-0.29112 -0.008,-0.51073 0.21407,-0.13761 0.29689,-0.34252 0.18405,-0.45536 -0.11284,-0.11283 -0.28798,-0.0761 -0.38921,0.0816 -0.4062,0.63293 -1.90384,0.10421 -1.90384,-0.67213 0,-0.38119 -0.95213,-1.08519 -1.46766,-1.08519 -0.36307,0 -0.0395,0.51902 0.41317,0.66268 0.86479,0.27447 0.32831,0.6471 -0.73976,0.5138 -0.54113,-0.0675 -1.51966,-0.1587 -2.1745,-0.2026 -1.20197,-0.0806 -3.52792,-0.75981 -4.7815,-1.39634 -0.37425,-0.19003 -0.91003,-0.34191 -1.19063,-0.33752 -0.56934,0.009 -2.6058,-0.48686 -3.42058,-0.83274 -0.29104,-0.12354 -1.24354,-0.2921 -2.11667,-0.37458 -1.6422,-0.15512 -2.5494,-0.29243 -2.77812,-0.42048 -0.0728,-0.0407 -0.25136,-0.0927 -0.39688,-0.11558 -0.6614,-0.10378 -1.45521,-0.46237 -1.45521,-0.65737 0,-0.11806 -0.34863,-0.35906 -0.77473,-0.53556 -0.42611,-0.1765 -0.83909,-0.4886 -0.91774,-0.69356 -0.0787,-0.20496 -0.32533,-0.37265 -0.54818,-0.37265 -0.22285,0 -0.40518,-0.11906 -0.40518,-0.26458 0,-0.14552 -0.0893,-0.24536 -0.19844,-0.22186 -0.10914,0.0235 -0.55562,-0.10393 -0.99218,-0.28318 -0.43657,-0.17925 -0.82186,-0.32224 -0.85622,-0.31775 -0.0344,0.004 -0.57013,-0.17787 -1.19062,-0.40524 -0.62049,-0.22737 -1.60441,-0.45937 -2.1865,-0.51556 -0.58208,-0.0562 -1.41552,-0.23413 -1.85208,-0.39541 -1.54943,-0.57243 -2.7721,-1.17093 -2.77509,-1.35843 -0.002,-0.10457 -0.18163,-0.1216 -0.39991,-0.0378 -0.21828,0.0838 -0.39688,0.30358 -0.39688,0.48847 0,0.52022 -0.70603,1.02152 -0.92949,0.65996 -0.17976,-0.29086 1.32684,-1.8465 1.78829,-1.8465 0.12888,0 0.46462,0.12325 0.7461,0.2739 0.56849,0.30424 0.68725,0.007 0.19427,-0.48556 -0.17462,-0.17463 -0.23266,-0.3175 -0.12897,-0.3175 0.10369,0 -0.11062,-0.47389 -0.47625,-1.05308 -0.36563,-0.57919 -0.66478,-1.1745 -0.66478,-1.32292 0,-0.14841 -0.12307,-0.26984 -0.2735,-0.26984 -0.40672,0 -1.87774,-1.58209 -1.71534,-1.84486 0.077,-0.12463 0.05,-0.26654 -0.06,-0.31535 -0.36626,-0.16245 -1.41649,-2.34653 -1.25443,-2.60875 0.0877,-0.14197 -0.023,-0.25812 -0.24616,-0.25812 -0.44112,0 -1.32071,-1.46381 -1.09705,-1.8257 0.0757,-0.12247 -0.0729,-0.46543 -0.33027,-0.76214 -0.25734,-0.29671 -0.76088,-1.14089 -1.11899,-1.87595 -0.35811,-0.73507 -0.79993,-1.34111 -0.98183,-1.34676 -0.1819,-0.006 -0.33073,-0.12524 -0.33073,-0.26574 0,-0.37175 -1.50615,-1.85437 -1.69349,-1.66703 -0.0872,0.0872 -0.1586,-0.0253 -0.1586,-0.24998 0,-0.22471 -0.17609,-0.55472 -0.39131,-0.73334 -0.29054,-0.24112 -0.32221,-0.45388 -0.12298,-0.82614 0.19057,-0.3561 0.18076,-0.50139 -0.0339,-0.50139 -0.16621,0 -0.23367,-0.17859 -0.14991,-0.39687 0.0838,-0.21828 0.063,-0.39688 -0.0462,-0.39688 -0.10918,0 -0.35629,-0.56554 -0.54913,-1.25677 -0.19283,-0.69122 -0.59653,-1.60712 -0.8971,-2.03532 -0.36691,-0.52272 -0.44456,-0.81253 -0.23632,-0.88195 0.1706,-0.0569 0.31018,-0.22055 0.31018,-0.36375 0,-0.1432 -0.22801,-0.188 -0.50668,-0.0995 -0.34239,0.10867 -0.63579,-0.0235 -0.90489,-0.40773 -0.21903,-0.3127 -0.52579,-0.4897 -0.68171,-0.39334 -0.25651,0.15853 -2.53163,-0.38844 -3.85985,-0.92796 -0.8096,-0.32886 -1.79493,-0.59607 -2.38125,-0.64575 -1.27729,-0.10824 -3.04283,-0.47054 -3.0442,-0.62469 -8.3e-4,-0.0926 -0.46983,-0.18582 -1.04223,-0.20713 -0.5724,-0.0213 -1.42793,-0.23189 -1.90119,-0.46798 -0.47325,-0.23609 -1.3437,-0.50519 -1.93433,-0.59799 -0.59064,-0.0928 -1.32499,-0.33139 -1.63191,-0.5302 -0.30692,-0.19881 -0.74617,-0.28928 -0.97612,-0.20104 -0.22995,0.0882 -0.62122,0.0468 -0.8695,-0.0922 -0.29802,-0.16678 -0.88791,-0.13749 -1.73587,0.0862 -1.08894,0.28726 -1.28444,0.28207 -1.28444,-0.0341 0,-0.20511 -0.11906,-0.37292 -0.26458,-0.37292 -0.14552,0 -0.26459,0.1744 -0.26459,0.38756 0,0.21316 -0.23812,0.51501 -0.52916,0.67077 -0.43703,0.23389 -0.52987,0.20096 -0.53322,-0.18913 -0.002,-0.27944 -0.0834,-0.35801 -0.19844,-0.19241 -0.40759,0.58694 -1.53241,1.17529 -2.24694,1.17529 -0.4093,0 -1.02878,0.18647 -1.37661,0.41438 -0.34783,0.22791 -1.08778,0.46775 -1.64434,0.53299 -0.5693,0.0667 -1.20405,0.34839 -1.4512,0.64395 -0.4764,0.56973 -1.17922,0.6969 -1.33123,0.24087 -0.0522,-0.15646 -1.04434,-0.4569 -2.20486,-0.66764 -3.63563,-0.66021 -3.99242,-0.68021 -4.3544,-0.24404 -0.37697,0.45422 -1.09623,0.52785 -1.47326,0.15082 -0.14828,-0.14827 -0.644408,-0.16299 -1.208178,-0.0358 -0.54004,0.1218 -1.14482,0.11041 -1.38884,-0.0261 -0.25615,-0.14335 -0.43223,-0.14434 -0.43223,-0.002 0,0.38526 -3.36789,0.60189 -4.10884,0.26429 -0.35952,-0.1638 -0.65366,-0.40197 -0.65366,-0.52925 0,-0.12728 0.24803,-0.0987 0.55117,0.0636 0.43849,0.23467 0.65286,0.20297 1.04848,-0.15507 0.28121,-0.25449 1.04768,-0.48679 1.76393,-0.53459 0.69664,-0.0465 1.80241,-0.12837 2.45725,-0.18194 0.65485,-0.0536 1.2781,0.0287 1.38501,0.18277 0.12691,0.18292 0.195788,0.16066 0.198438,-0.0641 0.005,-0.42237 4.69802,-0.39551 5.24273,0.03 0.39912,0.31179 1.49353,0.44404 3.36028,0.40608 0.7276,-0.0148 1.7113,-0.0325 2.18599,-0.0394 0.71153,-0.0103 0.83625,-0.097 0.7103,-0.4938 -0.10571,-0.33308 -0.0428,-0.43916 0.2041,-0.3444 0.19627,0.0753 0.9482,-0.16305 1.67094,-0.52972 0.72275,-0.36667 1.55221,-0.6689 1.84325,-0.67162 0.29104,-0.003 1.0481,-0.18568 1.68234,-0.40657 0.94341,-0.32855 1.22938,-0.33989 1.57215,-0.0623 0.3209,0.25989 0.37246,0.2619 0.22027,0.009 -0.14613,-0.24324 0.10292,-0.33555 0.9414,-0.34896 0.62705,-0.01 1.46751,-0.0614 1.8677,-0.11424 0.40018,-0.0528 0.7276,0.0149 0.7276,0.15052 0,0.13559 0.0893,0.2281 0.19844,0.20558 0.56601,-0.11683 3.03774,0.42169 3.1383,0.68374 0.0642,0.16722 0.50051,0.33164 0.96965,0.36538 0.46914,0.0337 0.97205,0.21253 1.11757,0.39733 0.16053,0.20385 1.04041,0.36555 2.23732,0.41115 1.08501,0.0413 2.2161,0.20585 2.51354,0.36558 0.29744,0.15973 0.83846,0.32412 1.20226,0.36532 1.33386,0.15102 3.57455,0.68132 4.09515,0.96918 0.29428,0.16273 0.75363,0.26225 1.02077,0.22118 0.54825,-0.0843 1.56058,0.71037 1.34639,1.05692 -0.0769,0.12441 0.0152,0.16928 0.20468,0.0997 0.18946,-0.0696 0.47242,-0.0384 0.6288,0.0692 0.36328,0.24999 1.96463,3.46991 1.96463,3.95039 0,0.1996 0.18214,0.43281 0.40476,0.51824 0.24209,0.0929 0.34572,0.34135 0.25785,0.61821 -0.0808,0.25458 -0.0278,0.77627 0.11785,1.15929 0.19649,0.5168 0.18117,0.69848 -0.0594,0.70445 -0.1783,0.004 -0.11582,0.1294 0.13884,0.27773 0.25466,0.14833 0.46302,0.44236 0.46302,0.65341 0,0.21105 0.1389,0.38373 0.30868,0.38373 0.16977,0 0.24843,0.0602 0.17478,0.1339 -0.0736,0.0736 0.33047,0.62203 0.89801,1.21865 0.56755,0.59662 1.10604,1.01063 1.19664,0.92003 0.0906,-0.0906 0.3211,0.16468 0.51223,0.56729 0.56096,1.18168 1.44372,2.56881 1.7682,2.77847 0.2024,0.13079 0.17097,0.19835 -0.096,0.20649 -0.31292,0.01 -0.29893,0.0691 0.0661,0.28178 0.25466,0.14833 0.46302,0.50758 0.46302,0.79834 0,0.29076 0.29946,0.80618 0.66547,1.14539 0.36601,0.3392 0.60029,0.78659 0.52062,0.9942 -0.0797,0.20761 0.21693,0.87689 0.65911,1.4873 0.71275,0.98392 0.92384,1.10983 1.86063,1.10983 0.95073,0 1.05667,0.0663 1.05667,0.66146 0,0.39314 -0.15149,0.66145 -0.37346,0.66145 -0.43445,0 -0.38548,0.84945 0.0575,0.9971 0.16457,0.0549 0.37578,0.5078 0.46934,1.00653 0.0936,0.49874 0.27593,0.90679 0.40526,0.90679 0.12932,0 0.23513,0.2311 0.23513,0.51355 0,0.6258 0.46902,0.95018 1.2315,0.85173 0.31353,-0.0405 0.64798,0.0525 0.74322,0.2066 0.0953,0.15411 0.41806,0.2802 0.71737,0.2802 0.60149,0 3.03443,0.73371 3.65791,1.10313 0.21829,0.12933 0.60524,0.30511 0.8599,0.39062 0.25466,0.0855 0.46302,0.26767 0.46302,0.40481 0,0.13714 0.11998,0.17519 0.26661,0.0846 0.14664,-0.0906 0.4539,0.0225 0.68279,0.2514 0.2289,0.2289 0.52564,0.34853 0.65943,0.26584 0.13379,-0.0827 0.24325,-0.0323 0.24325,0.11203 0,0.1443 0.26789,0.34597 0.59532,0.44815 0.32742,0.10218 0.65484,0.26178 0.7276,0.35467 0.3687,0.4707 1.65069,1.08271 2.26796,1.08271 0.55655,0 0.66313,0.0944 0.5228,0.46302 -0.14134,0.37125 -0.11024,0.39747 0.1569,0.13229 0.18324,-0.1819 0.57725,-0.32133 0.87557,-0.30984 0.29832,0.0115 0.39283,0.0812 0.21002,0.15489 -0.18281,0.0737 -0.26429,0.24417 -0.18107,0.37883 0.0848,0.13727 0.40199,0.0692 0.72198,-0.15489 0.74168,-0.5195 1.77584,-0.52115 1.77584,-0.003 0,0.43886 0.22814,0.49595 0.72382,0.18111 0.38677,-0.24567 -1.76566,-2.16549 -2.42786,-2.16549 -0.22694,0 -0.41263,-0.13197 -0.41263,-0.29326 0,-0.18259 0.25581,-0.22907 0.6778,-0.12315 0.49551,0.12436 0.79791,0.0279 1.12447,-0.35865 0.43909,-0.51976 0.47542,-0.52073 2.13517,-0.0568 0.92866,0.25956 1.82162,0.64233 1.98437,0.85059 0.16275,0.20826 0.8078,0.71155 1.43344,1.11841 0.62565,0.40687 1.20393,0.91278 1.28508,1.12424 0.21253,0.55384 0.62009,0.47323 0.62009,-0.12264 0,-0.27892 0.14883,-0.57311 0.33073,-0.65376 0.1819,-0.0807 0.0992,-0.12034 -0.18376,-0.0882 -0.3086,0.0351 -0.63798,-0.18374 -0.82309,-0.54678 -0.48495,-0.95106 -1.48525,-1.91489 -2.55865,-2.46535 -0.5422,-0.27805 -1.07798,-0.49049 -1.19063,-0.47209 -0.75463,0.12328 -1.17013,-0.14021 -1.51223,-0.95896 -0.21366,-0.51137 -0.60221,-1.00789 -0.86344,-1.10337 -0.26124,-0.0955 -0.75892,-0.39147 -1.10597,-0.65774 -0.34704,-0.26627 -0.96509,-0.48413 -1.37344,-0.48413 -0.40835,0 -0.81604,-0.11907 -0.90598,-0.26459 -0.22603,-0.36572 -1.28175,-0.33221 -1.66687,0.0529 -0.17463,0.17462 -0.3175,0.71041 -0.3175,1.19062 0,1.10414 -0.449,1.12455 -0.90455,0.0411 -0.49654,-1.18093 0.12867,-2.24819 1.54277,-2.63357 0.96232,-0.26226 1.18959,-0.2034 3.23252,0.83721 1.20859,0.61562 2.12983,1.22868 2.04721,1.36237 -0.0826,0.13368 0.0701,0.20533 0.33935,0.15922 0.26926,-0.0461 0.46505,0.0493 0.43507,0.21196 -0.0693,0.37614 1.71552,1.8137 2.50252,2.01562 0.38418,0.0986 0.67595,0.01 0.8211,-0.24944 0.1795,-0.32075 0.33834,-0.34177 0.78327,-0.10365 0.30723,0.16443 0.49574,0.46124 0.41936,0.66029 -0.0763,0.19888 0.16624,0.6907 0.53902,1.09294 0.37277,0.40223 0.67777,0.89752 0.67777,1.10063 0,0.61146 0.9831,1.47166 1.68192,1.47166 0.6968,0 1.10132,0.74895 0.64888,1.20139 -0.16204,0.16204 -0.002,0.25382 0.44315,0.25382 0.38334,0 0.92926,0.24933 1.21318,0.55408 0.33537,0.35997 0.81649,0.54396 1.37339,0.5252 0.47146,-0.0159 1.29227,0.21748 1.82404,0.51858 1.13339,0.64175 1.31096,0.54973 1.10143,-0.57076 -0.3289,-1.75886 -2.01279,-2.47188 -2.81271,-1.191 -0.16989,0.27204 -0.4721,0.49463 -0.67158,0.49463 -0.47554,0 -0.17112,-1.85673 0.37341,-2.27746 0.48206,-0.37247 0.82412,-1.95588 0.42252,-1.95588 -0.15914,0 -0.22257,-0.17404 -0.14094,-0.38676 0.0816,-0.21271 -0.0417,-0.76782 -0.27403,-1.23357 -0.23235,-0.46575 -0.3461,-0.91679 -0.25279,-1.0023 0.0933,-0.0855 0.22392,-0.003 0.29024,0.18263 0.0837,0.23466 0.40407,0.28494 1.04704,0.16431 1.2096,-0.22692 4.31619,0.68195 4.31619,1.26276 0,0.12131 0.48582,0.65948 1.07961,1.19593 0.81232,0.73387 1.05068,1.12676 0.96274,1.58681 -0.0643,0.33629 -0.0255,0.61144 0.0862,0.61144 0.11172,0 0.14086,0.23813 0.0648,0.52917 -0.0774,0.29585 -0.008,0.52917 0.15706,0.52917 0.61764,0 0.26157,0.46979 -0.46642,0.61539 -0.7736,0.15472 -1.47221,0.68975 -1.69499,1.29811 -0.0983,0.26847 -0.19284,0.26941 -0.47341,0.005 -0.55603,-0.52456 -1.03849,-0.38593 -1.03849,0.29841 0,0.54104 -0.68361,2.55344 -0.86345,2.5418 -0.0344,-0.002 -0.24119,-0.12129 -0.45947,-0.26458 z m -6.18415,-3.50228 c 0.0306,-0.78451 -0.24725,-1.24162 -0.76116,-1.25212 -0.29251,-0.006 -0.24144,0.67042 0.10862,1.43871 0.41228,0.90486 0.61215,0.84771 0.65254,-0.18659 z m -1.86632,0.19336 c -0.54374,-0.41136 -0.84758,-0.34598 -0.55936,0.12037 0.0959,0.1552 0.37573,0.2784 0.6218,0.27377 0.39282,-0.007 0.3852,-0.0555 -0.0624,-0.39414 z m -2.21114,-1.43661 c -0.76893,-0.71541 -1.82224,-1.44073 -2.34068,-1.61183 -1.04335,-0.34434 -2.46823,-1.04273 -2.13261,-1.04529 0.11773,-9e-4 0.13261,-0.1334 0.0331,-0.29446 -0.12678,-0.20514 -0.24578,-0.18799 -0.39735,0.0573 -0.25767,0.41691 0.18318,1.02931 0.74095,1.02931 0.2165,0 0.92184,0.53578 1.56742,1.19062 0.75777,0.76864 1.40386,1.19063 1.82292,1.19063 0.35703,0 0.64914,0.11033 0.64914,0.24518 0,0.22356 0.51844,0.44704 1.19063,0.51324 0.14552,0.0143 -0.36455,-0.55927 -1.13349,-1.27467 z m 13.89934,-0.47506 c 0.0602,-0.18059 -0.22522,-0.45559 -0.63427,-0.61111 -0.40905,-0.15552 -0.80608,-0.38365 -0.88228,-0.50695 -0.24733,-0.40018 -2.76539,-0.72998 -3.4026,-0.44565 -0.84962,0.37911 -0.61493,1.09936 0.35901,1.10174 0.43456,0.001 1.06274,0.19418 1.39594,0.42915 0.71828,0.50652 2.99842,0.53017 3.1642,0.0328 z m -0.60825,-1.88477 c -1.56313,-1.43186 -4.35239,-2.66339 -4.35239,-1.9217 0,0.24626 2.49673,1.3582 3.04968,1.3582 0.18331,0 0.40182,0.17859 0.48558,0.39687 0.0838,0.21828 0.35844,0.39688 0.61039,0.39688 0.27602,0 0.35819,-0.0915 0.20674,-0.23025 z m -108.532078,6.66639 c -0.61783,-0.43098 -0.78811,-0.87989 -0.33375,-0.87989 0.32817,0 1.32594,0.84064 1.32594,1.11713 0,0.30584 -0.32507,0.22812 -0.99219,-0.23724 z m 49.278648,0.14022 c -0.95152,-0.51554 -2.45368,-2.35178 -2.63135,-3.21654 -0.29356,-1.42884 -0.39197,-2.83087 -0.19841,-2.82661 0.58227,0.0128 1.63122,1.63019 1.1593,1.78749 -0.272,0.0907 1.09813,2.64394 1.60841,2.99731 0.32698,0.22645 0.99291,1.56275 0.77396,1.55311 -0.10051,-0.004 -0.42087,-0.13707 -0.71191,-0.29476 z m 66.01354,-1.02011 c 0,-0.14552 0.12609,-0.26459 0.28019,-0.26459 0.15411,0 0.20662,0.11907 0.11668,0.26459 -0.0899,0.14552 -0.21602,0.26458 -0.2802,0.26458 -0.0642,0 -0.11667,-0.11906 -0.11667,-0.26458 z m -83.99621,-0.25003 c -0.0945,-0.15288 -0.22468,-1.72704 -0.28931,-3.49813 -0.0646,-1.77108 -0.1758,-3.27844 -0.24704,-3.34968 -0.0712,-0.0712 -0.007,-0.27677 0.14205,-0.45674 0.14937,-0.17997 0.24636,-0.42905 0.21555,-0.55351 -0.13982,-0.56477 0.61811,-2.47525 0.982,-2.47525 0.62955,0 0.74001,0.72539 0.29362,1.92821 -0.53707,1.44717 -0.64128,2.93974 -0.23909,3.42435 0.17559,0.21157 0.23099,0.47302 0.12311,0.581 -0.10788,0.10798 -0.19614,1.15861 -0.19614,2.33474 0,1.38524 -0.10795,2.17443 -0.30648,2.24069 -0.16857,0.0563 -0.38379,-0.0228 -0.47827,-0.17568 z m -32.883478,-0.18979 c -0.1819,-0.0734 -0.33379,-0.27235 -0.33752,-0.44213 -0.004,-0.16977 -0.59905,-0.88943 -1.32292,-1.59924 -0.72387,-0.70981 -1.31612,-1.45395 -1.31612,-1.65365 0,-0.19969 -0.11906,-0.36308 -0.26458,-0.36308 -0.14553,0 -0.26641,-0.26789 -0.26864,-0.59531 -0.003,-0.493 -0.0523,-0.52711 -0.28473,-0.19844 -0.18626,0.26337 -0.32212,0.29671 -0.40388,0.0991 -0.0678,-0.16377 -0.60532,-0.93768 -1.19455,-1.71979 -0.58924,-0.78211 -1.18254,-1.70546 -1.31845,-2.05189 -0.1359,-0.34642 -0.47204,-0.94576 -0.74696,-1.33185 -0.27492,-0.38609 -0.58249,-1.14249 -0.6835,-1.6809 -0.16637,-0.88683 -0.11921,-1.00341 0.50139,-1.23936 0.51267,-0.19492 0.63835,-0.37909 0.49947,-0.73194 -0.17743,-0.45084 -0.18971,-0.45091 -0.28024,-0.002 -0.20212,1.00303 -1.60771,-0.0287 -1.63137,-1.19747 -0.005,-0.25466 -0.12844,-0.46302 -0.27396,-0.46302 -0.14552,0 -0.26458,-0.13083 -0.26458,-0.29074 0,-0.15991 -0.16774,-0.66593 -0.37275,-1.12448 -0.40348,-0.90246 -0.70329,-2.07158 -0.77359,-3.01655 -0.0244,-0.32742 -0.21693,-0.59531 -0.42794,-0.59531 -0.28354,0 -0.30619,-0.0774 -0.0868,-0.29683 0.16326,-0.16325 0.22431,-0.49067 0.13567,-0.7276 -0.13989,-0.37394 -0.10224,-0.38286 0.28526,-0.0677 0.38303,0.31157 0.44642,0.30486 0.44642,-0.0472 0,-0.22571 -0.18496,-0.59533 -0.41102,-0.82139 -0.22606,-0.22606 -0.47147,-0.91257 -0.54536,-1.52558 -0.0739,-0.613 -0.18729,-1.20022 -0.252,-1.30492 -0.25969,-0.42019 -0.83164,-4.04369 -0.71106,-4.5048 0.14348,-0.54866 0.85886,-0.68333 0.865,-0.16284 0.002,0.1819 0.16135,0.0331 0.35378,-0.33073 0.20297,-0.38373 0.25496,-0.78624 0.12382,-0.95865 -0.12432,-0.16345 -0.15736,-0.47619 -0.0734,-0.69496 0.10457,-0.27249 -0.0669,-0.45286 -0.54435,-0.5727 -0.38335,-0.0962 -1.46361,-0.82528 -2.4006,-1.62014 -0.93698,-0.79487 -1.86601,-1.44521 -2.06451,-1.44521 -0.19851,0 -0.51708,-0.18817 -0.70795,-0.41815 -0.20401,-0.24582 -0.60161,-0.36949 -0.96476,-0.30007 -0.33974,0.0649 -0.68645,0.007 -0.77045,-0.12905 -0.084,-0.13593 -0.31548,-0.18469 -0.51438,-0.10837 -0.1989,0.0763 -0.43501,0.0201 -0.52467,-0.12501 -0.0897,-0.14509 -0.4209,-0.17903 -0.73608,-0.0754 -0.31518,0.1036 -0.90339,0.16586 -1.30715,0.13836 -0.44812,-0.0305 -0.79414,0.10643 -0.8882,0.35156 -0.0848,0.22087 -0.31895,0.40157 -0.52043,0.40157 -0.20148,0 -0.51504,0.23813 -0.69679,0.52917 -0.20241,0.3241 -0.61702,0.52917 -1.06989,0.52917 -0.40668,0 -1.00311,0.16744 -1.32542,0.3721 -0.7822,0.49669 -2.04121,0.47388 -2.04121,-0.037 0,-0.28198 0.17847,-0.3477 0.63388,-0.2334 0.42913,0.10771 0.68283,0.0315 0.78544,-0.2359 0.0834,-0.21724 0.32002,-0.39499 0.52589,-0.39499 0.20588,0 0.4366,-0.23812 0.51271,-0.52917 0.0863,-0.3299 0.36089,-0.52916 0.72929,-0.52916 0.325,0 0.76259,-0.20836 0.97241,-0.46302 0.36333,-0.44098 0.37456,-0.44098 0.23591,0 -0.0801,0.25466 -0.0164,0.46302 0.14154,0.46302 0.16212,0 0.23311,-0.28255 0.16305,-0.64902 -0.10165,-0.53174 3.5e-4,-0.67414 0.56447,-0.78805 2.11304,-0.42669 4.62484,-0.17935 5.76493,0.56766 0.33324,0.21835 0.8202,0.30987 1.12836,0.21206 0.35847,-0.11377 0.54349,-0.054 0.54617,0.1765 0.003,0.27644 0.0518,0.27312 0.23501,-0.0161 0.1479,-0.23351 0.36052,-0.28171 0.59126,-0.13405 0.19817,0.12681 0.59843,0.25252 0.88947,0.27934 2.71206,0.24993 3.85422,0.57371 4.49792,1.2751 1.21755,1.32666 2.24896,2.77683 2.24896,3.16205 0,0.22682 0.0674,0.41239 0.14968,0.41239 0.29669,0 1.31121,-0.62308 1.57011,-0.96431 0.14552,-0.1918 0.50271,-0.38415 0.79375,-0.42746 1.01358,-0.15083 1.16537,-0.39729 0.88037,-1.42947 -0.28079,-1.01696 0.0807,-2.37896 0.55376,-2.08657 0.13269,0.082 0.5432,0.0343 0.91225,-0.10601 0.56095,-0.21328 0.64482,-0.18688 0.51135,0.16093 -0.12413,0.32346 -0.0379,0.37742 0.38727,0.24246 0.30081,-0.0955 0.6235,-0.0497 0.7171,0.10175 0.0936,0.15144 0.33555,0.27535 0.53767,0.27535 0.71755,0 -0.0942,-1.47042 -1.06809,-1.93486 -1.13731,-0.54235 -2.10162,-0.24422 -2.34486,0.72494 -0.11392,0.45388 -0.35133,0.68075 -0.71237,0.68075 -0.48604,0 -0.52788,-0.12387 -0.40849,-1.20958 0.19773,-1.79811 0.46484,-2.00952 1.96757,-1.55727 0.68037,0.20476 1.27765,0.49415 1.32729,0.64308 0.0496,0.14893 0.37807,0.19855 0.72983,0.11026 0.35176,-0.0883 0.63956,-0.0462 0.63956,0.0935 0,0.13971 0.32742,0.615 0.7276,1.0562 1.31068,1.44501 2.4474,2.93962 2.4474,3.21795 0,0.78705 1.71936,0.90015 2.17909,0.14335 0.10709,-0.1763 0.60114,-0.39679 1.09789,-0.48998 0.49675,-0.0932 1.05908,-0.35728 1.24962,-0.58687 0.19054,-0.22959 0.64545,-0.53112 1.01091,-0.67007 0.52721,-0.20045 0.74006,-0.15376 1.03043,0.226 0.34219,0.44754 0.35495,0.44161 0.1965,-0.0914 -0.24931,-0.83863 0.98963,-1.21842 2.16525,-0.66374 1.0062,0.47474 1.16781,0.94084 0.19843,0.57228 -0.40857,-0.15534 -0.66145,-0.15673 -0.66145,-0.004 0,0.13631 -0.45781,0.37112 -1.01736,0.52179 -1.09655,0.29527 -2.43187,0.96796 -4.93577,2.48649 -0.87312,0.52952 -1.9079,0.96307 -2.29949,0.96344 -0.39159,3.8e-4 -0.77506,0.10274 -0.85215,0.22747 -0.0771,0.12473 -0.83144,0.37348 -1.67633,0.55278 -1.53029,0.32475 -1.53608,0.3296 -1.51207,1.2675 0.0166,0.6473 0.24613,1.16354 0.73467,1.65208 0.85535,0.85535 0.86975,0.96001 0.15769,1.14622 -0.41771,0.10923 -0.51057,0.27792 -0.3798,0.68995 0.21534,0.67846 -0.0234,1.10191 -0.51483,0.91332 -0.43157,-0.16561 -0.64497,-0.99964 -0.89011,-3.47891 -0.11105,-1.12308 -0.29786,-1.7913 -0.50664,-1.81217 -0.1819,-0.0182 -0.50933,-0.048 -0.72761,-0.0661 -0.21828,-0.0182 -0.39687,-0.25345 -0.39687,-0.52279 0,-0.45237 -0.54358,-0.565 -1.66715,-0.34545 -0.11656,0.0228 -0.38605,0.45814 -0.59886,0.96746 -0.40001,0.95736 -1.07593,1.22379 -1.34248,0.52917 -0.0838,-0.21829 -0.44523,-0.39688 -0.80327,-0.39688 -0.53837,0 -0.62085,0.095 -0.47678,0.54888 0.37738,1.18901 2.00104,4.21362 2.26195,4.21362 0.15211,0 0.20205,0.12058 0.11096,0.26795 -0.0911,0.14738 0.0228,0.6456 0.25306,1.10717 0.26386,0.52892 0.32589,0.93198 0.16777,1.0901 -0.45512,0.45511 -1.04797,-0.04 -1.33811,-1.11751 -0.1571,-0.58343 -0.40178,-1.13256 -0.54373,-1.22029 -0.32401,-0.20025 -1.4408,-2.5612 -1.35717,-2.86913 0.0341,-0.12549 -0.10157,-0.36362 -0.30144,-0.52917 -0.19987,-0.16555 -0.51082,-0.82055 -0.691,-1.45556 -0.26073,-0.91889 -0.26045,-1.3167 0.001,-1.94881 0.27264,-0.65822 0.26468,-0.83024 -0.0465,-1.00447 -0.20652,-0.11563 -0.84383,-0.58247 -1.41624,-1.03743 -0.57241,-0.45496 -1.20722,-0.76331 -1.4107,-0.68523 -0.20348,0.0781 -0.47929,0.14196 -0.6129,0.14196 -0.13362,0 -0.24295,0.1786 -0.24295,0.39688 0,0.21828 0.13829,0.36711 0.30731,0.33073 0.16902,-0.0364 0.38209,0.23151 0.47348,0.59531 0.11723,0.4666 0.37483,0.68587 0.87447,0.74432 0.57027,0.0667 0.7409,0.25671 0.87566,0.97502 0.0921,0.49069 0.089,1.01895 -0.007,1.17391 -0.0958,0.15496 -0.0536,0.28175 0.0936,0.28175 0.26151,0 0.81739,1.60466 0.82033,2.36802 0.003,0.67925 -0.48204,-0.0749 -0.57348,-0.89241 -0.11665,-1.04283 -0.65872,-1.16131 -0.87193,-0.19057 -0.11376,0.51793 0.0682,1.57211 0.53639,3.10695 0.38972,1.27767 0.71727,2.89974 0.72791,3.6046 0.0138,0.91501 0.1145,1.24504 0.35207,1.15388 0.20005,-0.0768 0.27684,0.018 0.19257,0.23756 -0.0771,0.20089 0.11294,0.70757 0.42227,1.12597 0.30934,0.4184 0.58874,1.05164 0.62089,1.40722 0.0322,0.35557 0.25323,0.94414 0.49128,1.30795 0.23805,0.3638 0.51131,1.03846 0.60724,1.49925 0.0959,0.46078 0.34575,0.90353 0.55514,0.98388 0.20939,0.0804 0.38071,0.31398 0.38071,0.51917 0,0.2052 0.34042,0.51409 0.7565,0.68644 1.03489,0.42866 3.54783,2.96068 3.24195,3.26656 -0.13256,0.13256 -0.46392,0.17026 -0.73637,0.0838 -0.60101,-0.19075 -2.08054,-1.5101 -2.24428,-2.0013 -0.065,-0.19507 -0.24977,-0.30704 -0.41055,-0.24883 -0.34979,0.12663 0.11756,1.0736 1.63592,3.31474 0.5789,0.85447 1.19063,1.86294 1.3594,2.24104 0.16878,0.37809 0.97505,1.33982 1.79173,2.13717 1.52317,1.48713 1.9607,2.5209 0.9557,2.25809 -0.29104,-0.0761 -0.52917,-0.0305 -0.52917,0.10143 0,0.1319 0.1055,0.23982 0.23444,0.23982 0.21222,0 1.08848,1.57642 1.08848,1.95821 0,0.18429 -0.51551,0.17557 -0.99219,-0.0168 z m -0.86386,-3.27176 c -0.15794,-0.29512 -0.40738,-0.46228 -0.55431,-0.37148 -0.15815,0.0978 -0.0718,0.31323 0.21171,0.52817 0.64207,0.4868 0.67815,0.4703 0.3426,-0.15669 z m -1.75718,-1.79008 c -0.084,-0.32107 -0.25783,-0.58376 -0.38638,-0.58376 -0.12855,0 -0.23372,-0.24927 -0.23372,-0.55394 0,-0.3323 -0.21274,-0.60957 -0.53172,-0.69298 -0.29244,-0.0765 -0.72272,-0.54158 -0.95619,-1.03356 -0.40408,-0.85155 -0.89334,-1.19655 -0.89334,-0.62994 0,0.14552 0.11135,0.26459 0.24745,0.26459 0.1361,0 0.39815,0.41672 0.58232,0.92604 0.18417,0.50932 0.48598,0.92604 0.67069,0.92604 0.1847,0 0.60532,0.46827 0.93471,1.0406 0.65694,1.14145 0.79862,1.22576 0.56618,0.33691 z m -3.53052,-6.2723 c 0,-0.40143 -0.48248,-0.79635 -0.70322,-0.5756 -0.0764,0.0764 -0.0599,0.38767 0.0366,0.69179 0.18588,0.58565 0.66657,0.50186 0.66657,-0.11619 z m -0.39688,-1.19063 c 0.0899,-0.14552 0.0374,-0.26458 -0.11667,-0.26458 -0.15411,0 -0.2802,0.11906 -0.2802,0.26458 0,0.14552 0.0525,0.26459 0.11668,0.26459 0.0642,0 0.19026,-0.11907 0.28019,-0.26459 z m -1.19062,-2.10105 c 0,-0.13693 -0.11906,-0.32255 -0.26458,-0.41249 -0.14553,-0.0899 -0.26459,0.0221 -0.26459,0.24897 0,0.22687 0.11906,0.41249 0.26459,0.41249 0.14552,0 0.26458,-0.11204 0.26458,-0.24897 z m 7.38359,-17.51268 c -0.84209,-0.65622 -1.79722,-0.89513 -2.15365,-0.53871 -0.49878,0.49878 0.7513,1.27293 1.84862,1.14483 l 0.94174,-0.10995 z m 2.93295,-0.48763 c 0.25629,-0.16204 0.30267,-0.33412 0.13229,-0.49082 -0.38893,-0.3577 -2.72662,-0.60372 -2.91044,-0.30629 -0.0867,0.1402 0.0181,0.18751 0.23278,0.10513 0.23175,-0.0889 0.50985,0.0735 0.68451,0.39991 0.30919,0.57773 1.19028,0.71602 1.86086,0.29207 z m -3.01806,-1.36619 c 0.19756,-0.31966 -0.85065,-1.27075 -1.4115,-1.28073 -0.54372,-0.01 -0.37375,0.82616 0.19844,0.97579 0.29104,0.0761 0.52916,0.24355 0.52916,0.3721 0,0.33436 0.4639,0.2888 0.6839,-0.0672 z m -23.83494,-1.02203 c -0.0899,-0.14552 -0.28258,-0.26458 -0.4281,-0.26458 -0.14552,0 -0.191,0.11906 -0.10107,0.26458 0.0899,0.14552 0.28259,0.26458 0.42811,0.26458 0.14552,0 0.191,-0.11906 0.10106,-0.26458 z m 136.921868,34.67896 c 0,-0.1354 -0.26667,-0.28423 -0.59261,-0.33073 -0.94223,-0.13443 -0.91387,-0.9224 0.0332,-0.9224 0.57205,0 0.82553,0.1497 0.93334,0.55122 0.21009,0.78244 0.19098,0.94809 -0.10935,0.94809 -0.14552,0 -0.26459,-0.11078 -0.26459,-0.24618 z m 2.54491,-0.51483 c -0.61069,-0.63743 -0.70137,-0.90874 -0.55841,-1.6708 0.20559,-1.09588 0.64027,-1.81344 0.82567,-1.36297 0.0693,0.16845 0.37438,0.58517 0.6779,0.92605 l 0.55186,0.61977 -0.167,-0.70002 c -0.20612,-0.86401 0.38699,-1.19384 0.84062,-0.46747 0.25163,0.40293 0.2238,0.60245 -0.14394,1.03194 -0.58899,0.6879 -0.96393,0.67226 -1.50831,-0.0629 l -0.44082,-0.59531 0.14351,0.70571 c 0.0884,0.43467 0.0167,0.7569 -0.18675,0.83901 -0.18166,0.0733 -0.0889,0.1427 0.20616,0.15419 0.69298,0.027 1.76653,0.77777 1.56904,1.09732 -0.28986,0.469 -1.08344,0.24335 -1.80953,-0.51453 z m 5.39259,-0.28462 c -0.21828,-0.12142 -0.72195,-0.34892 -1.11926,-0.50556 -0.4674,-0.18427 -0.67031,-0.4205 -0.57486,-0.66926 0.1845,-0.4808 0.99204,-0.81184 1.11086,-0.45539 0.0486,0.14568 0.24383,0.20517 0.43395,0.13222 0.45664,-0.17523 1.20765,0.59565 1.20765,1.2396 0,0.53507 -0.38984,0.63024 -1.05834,0.25839 z m 2.61276,-0.12295 c -0.1935,-0.90303 -0.54799,-1.47725 -0.91196,-1.47725 -0.1976,0 -0.47528,-0.21678 -0.61708,-0.48174 -0.1418,-0.26495 -0.7322,-0.69565 -1.312,-0.9571 -0.74066,-0.33399 -1.00832,-0.59491 -0.89996,-0.87729 0.10307,-0.26859 0.0305,-0.35791 -0.21866,-0.26927 -0.51522,0.18327 -1.29893,-0.26095 -1.29893,-0.73624 0,-0.29408 0.18261,-0.34896 0.7276,-0.21868 1.15511,0.27613 1.64518,0.60869 1.49061,1.01151 -0.10512,0.27392 0.008,0.33386 0.42561,0.22475 0.36345,-0.0951 0.8708,0.0744 1.40467,0.46909 0.77574,0.57353 2.33031,0.83603 2.70891,0.45743 0.21905,-0.21905 -2.39988,-2.78072 -3.05566,-2.98886 -0.28971,-0.0919 -0.52674,-0.38855 -0.52674,-0.65912 0,-0.27056 -0.14883,-0.54283 -0.33073,-0.60505 -0.1819,-0.0622 -0.0371,-0.0622 0.32167,-3e-5 0.7062,0.12241 2.93914,1.64346 3.93154,2.67812 0.42762,0.44583 0.5685,0.82743 0.46205,1.25155 -0.0842,0.33559 -0.0336,0.68402 0.11242,0.77428 0.14605,0.0903 0.26934,0.008 0.27396,-0.18222 0.005,-0.21361 0.15729,-0.14952 0.39688,0.16725 0.38453,0.5084 0.38863,0.5084 0.40523,0 0.014,-0.43037 0.0582,-0.40986 0.27265,0.12657 0.29217,0.73097 -0.0458,1.26144 -0.58953,0.92538 -0.40181,-0.24833 -2.02275,-0.25692 -2.26766,-0.012 -0.0916,0.0916 -0.18575,0.42755 -0.20925,0.74659 -0.0377,0.51241 -0.60989,1.03249 -0.69564,0.63234 z m -9.97038,-0.43876 c 0.0522,-0.15644 0.20792,-0.28443 0.34616,-0.28443 0.13825,0 0.29402,0.12799 0.34617,0.28443 0.0521,0.15643 -0.10363,0.28442 -0.34617,0.28442 -0.24253,0 -0.3983,-0.12799 -0.34616,-0.28442 z m -67.51946,-1.39127 c 0,-0.21828 -0.0893,-0.43656 -0.19844,-0.48507 -0.10914,-0.0485 -0.41279,-0.50491 -0.67479,-1.01424 -1.09199,-2.12285 -1.30276,-2.4151 -1.64665,-2.28313 -0.33768,0.12958 -1.40466,-1.30233 -1.65034,-2.21478 -0.2668,-0.99092 0.004,-2.52577 0.72168,-4.09041 0.39626,-0.86391 0.50063,-1.34605 0.30544,-1.41111 -0.37977,-0.12659 -0.37931,-0.90637 10e-4,-1.74114 0.17587,-0.38599 0.44631,-0.59586 0.66146,-0.5133 0.45449,0.1744 0.47539,0.78586 0.0332,0.97168 -0.24322,0.1022 -0.21832,0.21088 0.0941,0.41068 0.34979,0.22372 0.38671,0.51272 0.20908,1.63641 -0.11865,0.7506 -0.39911,1.56735 -0.62324,1.81501 -0.24791,0.27393 -0.40752,0.94806 -0.40752,1.72116 0,1.57616 0.73208,2.84051 2.17045,3.74851 0.64065,0.40442 0.99397,0.80262 0.90889,1.02434 -0.0766,0.1995 0.003,0.42995 0.17667,0.51211 0.2433,0.11507 0.24369,0.18358 0.002,0.29822 -0.21694,0.10276 -0.1504,0.31262 0.21498,0.67799 0.55016,0.55017 0.55688,1.0491 0.0165,1.22921 -0.1728,0.0576 -0.31419,-0.0739 -0.31419,-0.29214 z m 72.42969,-0.16657 c -0.51555,-0.50226 -0.59345,-0.80357 -0.20775,-0.80357 0.25587,0 0.92296,1.03725 0.75835,1.17915 -0.0482,0.0415 -0.29594,-0.12749 -0.5506,-0.37558 z m 9.59114,0.0312 c 0,-0.12297 0.23813,-0.43908 0.52917,-0.70247 0.5715,-0.5172 0.70771,-1.19062 0.24082,-1.19062 -0.15859,0 -0.63484,-0.32704 -1.05833,-0.72675 -1.35999,-1.28361 -0.92175,-1.81016 1.41168,-1.69614 0.83612,0.0408 1.66746,-0.0167 1.84743,-0.12796 0.48766,-0.30139 1.3535,-0.32636 1.70203,-0.0491 0.19031,0.1514 0.36969,0.14322 0.4715,-0.0215 0.16841,-0.2725 0.94112,-0.10509 0.94112,0.2039 0,0.3347 -1.5583,0.85472 -2.82067,0.94128 -0.70421,0.0483 -1.48873,0.10254 -1.74339,0.12056 -0.62995,0.0446 -0.58609,0.46804 0.0661,0.6386 0.97694,0.25547 0.62157,1.84181 -0.54809,2.44666 -0.86229,0.44591 -1.03941,0.47377 -1.03941,0.16352 z M 83.236312,149.93156 c -0.6333,-0.6998 -0.5117,-0.82554 0.37202,-0.38469 0.90224,0.4501 0.93786,0.50988 0.42173,0.70794 -0.20461,0.0785 -0.5618,-0.0669 -0.79375,-0.32325 z m 27.171868,0.17978 c -0.14688,-0.18675 -0.33904,-0.71984 -0.42701,-1.18465 -0.13179,-0.6963 -0.065,-0.87526 0.37958,-1.01635 0.6911,-0.21934 0.69903,-0.2078 0.80621,1.17317 0.0923,1.18916 -0.25833,1.66409 -0.75878,1.02783 z m 42.16843,-0.93486 c -0.29959,-0.4767 0.0275,-0.86475 0.69889,-0.8292 0.42207,0.0223 0.45822,0.0627 0.13295,0.14856 -0.24572,0.0648 -0.48664,0.3189 -0.53538,0.56462 -0.0654,0.32959 -0.14313,0.36002 -0.29646,0.11602 z m 44.80255,-0.85989 c 0,-0.14552 0.11203,-0.26459 0.24896,-0.26459 0.13694,0 0.32256,0.11907 0.41249,0.26459 0.0899,0.14552 -0.0221,0.26458 -0.24896,0.26458 -0.22687,0 -0.41249,-0.11906 -0.41249,-0.26458 z m -93.345,-0.58209 c -0.4446,-0.4446 -0.39523,-0.74083 0.12347,-0.74083 0.24254,0 0.36345,0.0775 0.2687,0.17228 -0.0948,0.0948 0.0342,0.32909 0.28663,0.52075 0.38813,0.29473 0.39566,0.34977 0.0488,0.35689 -0.22555,0.005 -0.55298,-0.13446 -0.7276,-0.30909 z m 19.52625,0.0529 c 0,-0.14552 0.11906,-0.26458 0.26458,-0.26458 0.14552,0 0.26458,0.11906 0.26458,0.26458 0,0.14552 -0.11906,0.26458 -0.26458,0.26458 -0.14552,0 -0.26458,-0.11906 -0.26458,-0.26458 z m -13.49375,-1.04272 c 0,-0.42797 -0.12152,-0.85324 -0.27005,-0.94503 -0.27078,-0.16735 -0.2107,-1.50182 0.10109,-2.24558 0.0915,-0.21828 0.21845,-0.8136 0.2821,-1.32292 0.0636,-0.50932 0.13865,-0.95581 0.16666,-0.99219 0.028,-0.0364 0.0717,-0.15544 0.097,-0.26458 0.20274,-0.87309 0.51165,-1.38906 0.83164,-1.38906 0.45167,0 0.4651,0.2732 0.10551,2.1467 -0.15044,0.78384 -0.33805,2.31433 -0.41691,3.40108 -0.0789,1.08675 -0.20091,2.06902 -0.27124,2.18281 -0.28797,0.46595 -0.62581,0.15758 -0.62581,-0.57123 z m 56.35625,0.55081 c 0,-0.14928 -0.50602,-0.30803 -1.12448,-0.35277 -0.95094,-0.0688 -1.12573,-0.17034 -1.1326,-0.65787 -0.0111,-0.78766 -0.74139,-1.53119 -2.1579,-2.19703 -1.27654,-0.60005 -1.93502,-0.42153 -1.93502,0.52458 0,0.62547 -0.74802,1.26724 -0.8828,0.7574 -0.0524,-0.19829 -0.22223,-0.74787 -0.37735,-1.22129 -0.248,-0.75688 -0.21381,-0.90855 0.28334,-1.25677 0.81634,-0.57178 2.19579,-0.48869 3.11016,0.18734 0.43396,0.32083 1.07751,0.58873 1.43011,0.59531 0.48453,0.009 0.79514,0.30272 1.2719,1.20259 0.47736,0.901 0.81876,1.22344 1.40345,1.32552 0.53651,0.0937 0.77265,0.28908 0.77265,0.63941 0,0.27748 -0.14883,0.55413 -0.33073,0.61476 -0.1819,0.0606 -0.33073,-0.0119 -0.33073,-0.16118 z m -59.52374,-0.69872 c -0.15435,-1.74147 0.0162,-4.02649 0.3397,-4.54984 0.10189,-0.16486 0.0357,-0.36005 -0.14713,-0.43375 -0.18898,-0.0762 -0.11864,-0.14302 0.16304,-0.15489 0.42059,-0.0177 0.44314,-0.0839 0.14931,-0.43793 -0.20468,-0.24662 -0.24495,-0.48989 -0.0985,-0.59531 0.13616,-0.0981 0.26851,-0.29734 0.29411,-0.44286 0.0256,-0.14552 0.13513,-0.49247 0.2434,-0.77101 0.13775,-0.35437 0.10392,-0.44898 -0.11269,-0.31511 -0.3366,0.20803 -0.41421,-0.31765 -0.14895,-1.00891 0.22732,-0.59238 0.50498,-0.52124 1.0173,0.26066 0.34852,0.53191 0.37703,0.76106 0.1315,1.05692 -0.17244,0.20777 -0.24605,0.63577 -0.16358,0.95111 0.0825,0.31534 0.027,0.803 -0.12318,1.08368 -0.32058,0.59899 -0.55147,2.08538 -0.51619,3.32303 0.0138,0.48514 -0.086,0.80761 -0.22373,0.7225 -0.15478,-0.0957 -0.15648,0.16785 -0.005,0.69777 0.17625,0.61452 0.15311,0.90933 -0.0832,1.05939 -0.52713,0.3348 -0.65457,0.25559 -0.71671,-0.44545 z m 9.42929,0.22049 c -0.097,-0.097 -0.17639,-0.46412 -0.17639,-0.8158 0,-0.86997 0.63731,-0.62624 0.74518,0.28499 0.0794,0.67078 -0.18348,0.91612 -0.56879,0.53081 z m 83.62414,-0.45621 c -0.40362,-0.17878 -0.65167,-0.40723 -0.55122,-0.50768 0.28576,-0.28576 0.49694,-0.22228 1.15278,0.34653 0.68321,0.59255 0.48954,0.64443 -0.60156,0.16115 z m -23.80742,-1.10054 c -0.1895,-0.99129 0.0342,-1.63605 0.62068,-1.78943 0.58065,-0.15185 0.8933,0.19786 0.60048,0.67166 -0.11017,0.17825 -0.20649,0.62255 -0.21406,0.98733 -0.0194,0.93705 -0.83277,1.04239 -1.0071,0.13044 z m -134.709518,0.19156 c -0.0743,-0.12027 -0.0696,-0.46922 0.0105,-0.77545 0.0999,-0.38204 0.28272,-0.5063 0.58255,-0.39594 0.57517,0.21171 0.81682,0.59734 0.64874,1.03533 -0.14922,0.38887 -1.02612,0.48495 -1.24175,0.13606 z m 142.185158,-0.0303 c 0,-0.13693 0.11907,-0.32255 0.26459,-0.41249 0.14552,-0.0899 0.26458,0.0221 0.26458,0.24897 0,0.22687 -0.11906,0.41249 -0.26458,0.41249 -0.14552,0 -0.26459,-0.11203 -0.26459,-0.24897 z m -80.21828,-0.47701 c -0.37005,-0.43086 -0.41852,-1.54094 -0.23566,-5.39727 0.0249,-0.52583 0.83323,-0.8889 1.08218,-0.4861 0.0978,0.15826 0.0822,0.89255 -0.0346,1.63177 -0.11685,0.73921 -0.23973,1.87086 -0.27306,2.51478 -0.0333,0.64392 -0.16977,1.23822 -0.3032,1.32069 -0.13342,0.0825 -0.0845,0.24763 0.10872,0.36705 0.19323,0.11942 0.28458,0.28386 0.20302,0.36542 -0.0816,0.0816 -0.32788,-0.0608 -0.54737,-0.31634 z m 79.20956,-0.0843 c 0.0637,-0.191 0.27202,-0.39936 0.46302,-0.46302 0.19844,-0.0661 0.29766,0.0331 0.23151,0.23151 -0.0637,0.19099 -0.27202,0.39935 -0.46302,0.46302 -0.19844,0.0661 -0.29766,-0.0331 -0.23151,-0.23151 z m -2.31281,-0.53568 c -0.0978,-0.1582 -0.40234,-0.22891 -0.67681,-0.15713 -0.27448,0.0718 -0.56251,0.0278 -0.64007,-0.0977 -0.0776,-0.1255 -0.30377,-0.16574 -0.50267,-0.0894 -0.55981,0.21482 -0.79212,-0.42748 -0.32396,-0.89565 0.3436,-0.34359 0.54066,-0.36271 1.10209,-0.1069 0.37603,0.17133 0.95729,0.3115 1.29169,0.3115 0.5552,0 1.48376,0.71676 1.48376,1.14532 0,0.29632 -1.54342,0.19839 -1.73403,-0.11003 z m -50.2626,-0.46803 c -0.0615,-0.0615 -0.0555,-0.20318 0.0135,-0.31474 0.15757,-0.25496 1.18316,-0.003 1.18316,0.29107 0,0.21666 -0.98417,0.23613 -1.19663,0.0237 z M 100.0671,143.223 c -0.151118,-0.18209 -0.325418,-0.68811 -0.387328,-1.12448 -0.0619,-0.43637 -0.20567,-1.0069 -0.31948,-1.26783 -0.11381,-0.26094 -0.13371,-0.54764 -0.0442,-0.63712 0.0895,-0.0895 0.0319,-0.32022 -0.12786,-0.51276 -0.40216,-0.48458 -0.74649,-3.56703 -0.46028,-4.12053 0.13182,-0.25493 0.4055,-0.38748 0.62564,-0.303 0.21523,0.0826 0.33053,0.24852 0.25623,0.36874 -0.0743,0.12022 -0.0395,0.27765 0.0773,0.34986 0.19159,0.11841 0.356718,1.90452 0.407088,4.4032 0.0103,0.50932 0.11936,0.9952 0.24243,1.07974 0.12307,0.0845 0.29466,0.59055 0.3813,1.12448 0.16043,0.98858 -0.12691,1.271 -0.65084,0.6397 z m -3.681848,-1.71944 c -0.58127,-1.28592 -0.68458,-1.88199 -0.66757,-3.8517 0.0172,-1.9859 -0.0355,-2.2842 -0.35607,-2.01813 -0.30461,0.25281 -0.3762,0.20798 -0.3762,-0.23558 0,-0.49691 0.0757,-0.52141 0.8148,-0.26375 0.95209,0.3319 0.95648,0.34216 1.13318,2.64902 0.0746,0.97348 0.34226,2.35188 0.59486,3.06311 0.45519,1.2816 0.38609,2.17838 -0.16785,2.17838 -0.15809,0 -0.59691,-0.68461 -0.97515,-1.52135 z m -21.53022,-1.7198 c -0.0121,-0.1819 -0.0524,-0.60706 -0.0895,-0.94481 -0.0371,-0.33775 0.14124,-0.87934 0.39625,-1.20354 0.28315,-0.35996 0.42369,-0.89345 0.36098,-1.37029 -0.42028,-3.19593 -0.4168,-3.51126 0.0447,-4.05022 0.25429,-0.29698 0.54667,-0.48784 0.64975,-0.42414 0.10307,0.0637 0.31725,-0.0406 0.47595,-0.23185 0.21119,-0.25447 0.13465,-1.13442 -0.28547,-3.28212 -0.47802,-2.44361 -0.51585,-3.00454 -0.22617,-3.35357 0.51635,-0.62218 0.81204,-0.51009 0.8137,0.30846 0.002,0.83534 0.42736,2.59117 0.82094,3.38629 0.14756,0.29811 0.21127,0.89343 0.14157,1.32292 -0.0697,0.42949 -0.13651,1.05581 -0.14848,1.39182 -0.012,0.33601 -0.12491,0.54718 -0.25098,0.46926 -0.12607,-0.0779 -0.43176,0.0821 -0.6793,0.35566 -0.36923,0.408 -0.42606,0.8581 -0.31637,2.50599 0.14527,2.18237 0.26418,2.54046 0.84363,2.54046 0.20969,0 0.38126,0.12609 0.38126,0.28019 0,0.15411 0.10659,0.21433 0.23686,0.13382 0.25406,-0.15702 0.60871,0.50431 0.38853,0.72449 -0.0726,0.0726 -0.55176,0.016 -1.06492,-0.12571 -0.51315,-0.14169 -0.95161,-0.21917 -0.97434,-0.17218 -0.95706,1.97807 -1.46396,2.55856 -1.51859,1.73907 z m 54.790788,-0.0818 c 0,-0.22687 0.11907,-0.3389 0.26459,-0.24896 0.14552,0.0899 0.26458,0.27555 0.26458,0.41248 0,0.13694 -0.11906,0.24897 -0.26458,0.24897 -0.14552,0 -0.26459,-0.18562 -0.26459,-0.41249 z M 92.661152,137.2599 c -0.41531,-0.85644 -0.62229,-1.80508 -0.66145,-3.03161 -0.0314,-0.98181 -0.1463,-1.78548 -0.25544,-1.78593 -0.33321,-0.001 -0.22143,-0.5448 0.19844,-0.96466 0.21828,-0.21828 0.39688,-0.26931 0.39688,-0.1134 0,0.15592 0.18661,0.28349 0.4147,0.28349 0.30438,0 0.36918,0.15837 0.24359,0.59531 -0.0941,0.32742 -0.22922,0.80367 -0.30024,1.05833 -0.071,0.25466 -0.0219,0.46302 0.10907,0.46302 0.131,0 0.21481,0.26789 0.18623,0.59532 -0.0286,0.32742 0.0642,0.74262 0.20611,0.92267 0.14194,0.18005 0.1913,0.50136 0.10969,0.71403 -0.0816,0.21268 0.0321,0.74846 0.25268,1.19063 0.37168,0.74506 0.31995,1.35392 -0.11297,1.32957 -0.10055,-0.006 -0.45483,-0.5712 -0.78729,-1.25677 z m 26.749368,-0.33636 c -0.72314,-0.27376 -1.22099,-1.1698 -1.01338,-1.8239 0.0867,-0.2733 0.0338,-0.57348 -0.11764,-0.66708 -0.3677,-0.22725 -0.35348,-1.19727 0.0175,-1.19727 0.16109,0 0.22436,-0.1786 0.14059,-0.39688 -0.10288,-0.26812 0.013,-0.39687 0.35732,-0.39687 0.43496,0 0.50608,0.1841 0.48547,1.25677 -0.0133,0.69122 0.17734,1.71612 0.42362,2.27755 0.51493,1.17389 0.4928,1.24536 -0.29353,0.94768 z M 89.530012,135.4181 c -0.0956,-0.40018 -0.29857,-0.88551 -0.45105,-1.0785 -0.19989,-0.253 -0.17126,-0.41908 0.10263,-0.59531 0.26281,-0.1691 0.29037,-0.30557 0.0894,-0.44286 -0.48584,-0.33196 -0.47536,-3.96855 0.0136,-4.71479 0.41836,-0.6385 1.20287,-0.88532 1.20287,-0.37844 0,0.14552 -0.17859,0.26459 -0.39687,0.26459 -0.21828,0 -0.39688,0.11906 -0.39688,0.26458 0,0.14552 0.11906,0.26458 0.26459,0.26458 0.35689,0 0.33462,0.68878 -0.0418,1.29146 -0.17303,0.27707 -0.21893,0.70728 -0.10547,0.9886 0.11048,0.27394 0.23069,0.91479 0.26713,1.42411 0.0364,0.50932 0.15694,1.49159 0.2678,2.18281 0.16969,1.05811 0.13486,1.25677 -0.22033,1.25677 -0.2417,0 -0.49611,-0.31074 -0.59569,-0.7276 z m -17.16832,-1.85208 c -0.44055,-1.49619 -0.55904,-1.83629 -1.1592,-3.32712 -0.16549,-0.41109 -0.2379,-0.84935 -0.16092,-0.97391 0.077,-0.12456 0.0333,-0.29242 -0.0972,-0.37303 -0.31347,-0.19373 -1.1661,-2.81694 -0.97704,-3.00599 0.081,-0.081 0.14721,0.0432 0.14721,0.27593 0,0.23273 0.22737,0.49531 0.50527,0.58351 0.7483,0.2375 1.12337,0.80465 1.27045,1.92104 0.0722,0.54833 0.25208,1.14516 0.39966,1.32628 0.14758,0.18113 0.20789,0.56039 0.13404,0.84281 -0.0811,0.30997 0.0233,0.57397 0.26337,0.66608 0.24412,0.0937 0.34455,0.35567 0.26012,0.67855 -0.0826,0.31582 -0.007,0.52595 0.19017,0.52595 0.47155,0 0.9638,1.72812 0.59679,2.09513 -0.57579,0.57579 -0.93455,0.25296 -1.37276,-1.23523 z m 6.90747,0.79816 c -0.20246,-0.20247 -0.33611,-0.23968 -1.08479,-0.30207 -0.47747,-0.0398 -0.53711,-0.81353 -0.0662,-0.85817 1.00012,-0.0948 2.07081,0.64606 1.60577,1.1111 -0.13859,0.13859 -0.34327,0.1607 -0.45483,0.0491 z m 1.42875,-0.17454 c 0,-0.44687 0.64646,-0.72968 1.19062,-0.52087 0.71978,0.27621 0.44615,0.88943 -0.39687,0.88943 -0.50207,0 -0.79375,-0.13543 -0.79375,-0.36856 z m 6.23249,-1.19502 c -0.31861,-0.51552 -0.36828,-4.49207 -0.0575,-4.6068 0.2307,-0.0852 0.22795,-0.1978 -0.011,-0.45166 -0.44424,-0.47193 0.0747,-1.47267 0.55637,-1.07292 0.2364,0.19619 0.30691,0.97109 0.24231,2.66292 -0.0572,1.49695 0.009,2.38621 0.1773,2.38621 0.43438,0 0.30692,0.98694 -0.1501,1.16232 -0.54396,0.20874 -0.58128,0.20479 -0.75733,-0.0801 z m 28.163338,-1.21454 c 0,-0.21828 -0.12609,-0.39688 -0.2802,-0.39688 -0.15411,0 -0.20541,-0.121 -0.11401,-0.2689 0.0914,-0.14789 0.30679,-0.19065 0.47864,-0.095 0.17185,0.0956 0.11253,-0.0386 -0.13182,-0.2982 -0.40367,-0.42896 -0.40693,-0.52905 -0.0357,-1.09561 0.51084,-0.77963 0.87559,-0.80813 0.67811,-0.053 -0.10889,0.41641 -0.0585,0.51447 0.18664,0.36298 0.62458,-0.38601 0.7596,0.43755 0.22131,1.34988 -0.55435,0.93954 -1.00296,1.16083 -1.00296,0.49473 z m -68.434978,-0.56283 c -0.72708,-0.63277 -1.46819,-2.93467 -1.27136,-3.94885 0.0833,-0.42899 0.17579,-1.12365 0.20562,-1.54367 0.0305,-0.42994 0.29033,-0.92044 0.59446,-1.12238 0.5317,-0.35303 0.54023,-0.31731 0.54023,2.2617 0,1.72713 0.11436,2.75818 0.33547,3.02461 0.1845,0.22231 0.2971,0.72368 0.2502,1.11415 -0.0844,0.70282 -0.091,0.70497 -0.65462,0.21444 z m 37.21415,-1.63966 c 0,-0.13713 -0.24546,-0.31353 -0.54548,-0.39198 -0.30001,-0.0785 -0.51935,-0.3007 -0.48743,-0.49388 0.0319,-0.19318 -0.0294,-0.55029 -0.13636,-0.79358 -0.10692,-0.24329 -0.0662,-0.68195 0.0906,-0.97479 0.15673,-0.29285 0.28496,-0.89747 0.28496,-1.3436 0,-0.83495 0.33628,-1.00989 1.05833,-0.55058 0.32712,0.20809 0.33875,0.34625 0.0661,0.78611 -0.39688,0.64038 -0.43426,1.76853 -0.0661,1.99604 0.14552,0.0899 0.26459,0.50665 0.26459,0.92604 0,0.41939 -0.11907,0.83611 -0.26459,0.92604 -0.14552,0.0899 -0.26458,0.0513 -0.26458,-0.0858 z m 29.762958,-0.31537 c -0.0914,-0.14789 -0.27703,-0.2004 -0.41249,-0.11668 -0.35634,0.22023 -0.3028,-0.24584 0.0712,-0.61984 0.24695,-0.24694 0.21078,-0.3175 -0.16277,-0.3175 -0.43028,0 -0.46055,-0.15839 -0.29073,-1.52135 0.22637,-1.81698 0.53541,-2.48058 1.06124,-2.2788 0.30655,0.11763 0.32616,0.26441 0.0934,0.69923 -0.18681,0.34906 -0.23465,1.2587 -0.13082,2.48709 0.15933,1.88488 0.1131,2.2215 -0.22907,1.66785 z m 2.5162,-5.55193 c 0,-0.14552 0.11204,-0.26459 0.24897,-0.26459 0.13694,0 0.32256,0.11907 0.41249,0.26459 0.0899,0.14552 -0.0221,0.26458 -0.24897,0.26458 -0.22686,0 -0.41249,-0.11906 -0.41249,-0.26458 z m -66.005468,-2.58795 c -0.18131,-0.47248 0.35051,-0.90878 0.87347,-0.71657 0.1938,0.0712 0.46169,0.12952 0.59531,0.12952 0.52566,0 0.20166,0.42873 -0.53378,0.70633 -0.64182,0.24226 -0.80422,0.22154 -0.935,-0.11928 z m 23.72836,-0.15865 c -0.33681,-0.33275 -0.53833,-0.77234 -0.45436,-0.99116 0.21582,-0.56242 -1.8204,-2.34067 -2.4821,-2.16763 -0.3524,0.0922 -0.56205,-0.0363 -0.68346,-0.41886 -0.44598,-1.40516 -2.28848,-1.84649 -3.33592,-0.79905 -0.56896,0.56896 -1.30246,0.52073 -1.30246,-0.0856 0,-0.37232 0.9135,-1.25773 1.29763,-1.25773 0.12829,0 0.30179,-0.17859 0.38555,-0.39687 0.35099,-0.91468 2.92641,-0.15784 3.32172,0.97615 0.16722,0.47966 0.44642,0.74364 0.78655,0.74364 0.29003,0 0.6021,0.121 0.69351,0.2689 0.0914,0.14789 0.26204,0.20965 0.3792,0.13725 0.11716,-0.0724 0.49589,0.1492 0.84161,0.49246 1.48934,1.47871 2.01184,2.23916 1.95073,2.8391 -0.0352,0.34535 -0.0792,0.77674 -0.0977,0.95864 -0.0511,0.50078 -0.62418,0.36893 -1.30047,-0.2992 z"
       id="path18" />
  </g>
</svg>
