<?xml version="1.0" encoding="UTF-8" standalone="no"?>
<!-- Created with Inkscape (http://www.inkscape.org/) -->

<svg
   width="204.22197mm"
   height="86.63237mm"
   viewBox="0 0 204.22196 86.632376"
   version="1.1"
   id="svg1"
   inkscape:version="1.4.1-rc (06eac75fbf, 2025-03-29)"
   sodipodi:docname="mount14a.svg"
   xmlns:inkscape="http://www.inkscape.org/namespaces/inkscape"
   xmlns:sodipodi="http://sodipodi.sourceforge.net/DTD/sodipodi-0.dtd"
   xmlns="http://www.w3.org/2000/svg"
   xmlns:svg="http://www.w3.org/2000/svg">
  <sodipodi:namedview
     id="namedview1"
     pagecolor="#ffffff"
     bordercolor="#000000"
     borderopacity="0.25"
     inkscape:showpageshadow="2"
     inkscape:pageopacity="0.0"
     inkscape:pagecheckerboard="0"
     inkscape:deskcolor="#d1d1d1"
     inkscape:document-units="mm"
     inkscape:zoom="0.72248176"
     inkscape:cx="386.16892"
     inkscape:cy="164.01798"
     inkscape:window-width="1850"
     inkscape:window-height="1016"
     inkscape:window-x="0"
     inkscape:window-y="0"
     inkscape:window-maximized="1"
     inkscape:current-layer="layer1" />
  <defs
     id="defs1" />
  <g
     inkscape:label="Layer 1"
     inkscape:groupmode="layer"
     id="layer1"
     transform="translate(-3.7041466,-105.03992)">
    <path
       style="fill:#000000"
       d="m 160.05123,191.26987 c -0.94589,-0.21152 -2.31511,-0.48206 -3.04271,-0.60119 -0.72761,-0.11914 -1.91823,-0.40938 -2.64584,-0.64497 -1.71649,-0.55579 -1.8938,-0.54443 -2.07087,0.13268 -0.14222,0.54388 -0.24213,0.55914 -2.4738,0.37807 -1.27908,-0.10379 -2.46074,-0.30086 -2.62592,-0.43795 -0.30953,-0.25688 -1.37688,-0.32731 -3.67732,-0.24263 -0.86951,0.032 -2.13905,-0.22168 -3.70417,-0.74017 -1.30969,-0.43387 -2.87326,-0.84826 -3.47461,-0.92087 -1.30351,-0.15738 -2.52556,-0.71076 -2.6914,-1.21872 -0.094,-0.28777 0.0867,-0.32784 0.84035,-0.18645 0.76719,0.14392 0.96004,0.098 0.96004,-0.22876 0,-0.53504 0.21761,-0.51693 1.7074,0.14208 1.0769,0.47636 1.30531,0.50095 1.68728,0.18166 0.48043,-0.4016 0.66542,-0.41398 1.57041,-0.10514 0.33938,0.11582 1.00712,0.07 1.53908,-0.10552 0.85301,-0.28152 1.76816,-0.0867 0.95413,0.20317 -0.56379,0.20073 0.44526,1.12439 1.24781,1.14222 0.81692,0.0181 4.17174,0.86816 4.42466,1.12108 0.0973,0.0973 0.43181,0.11298 0.74331,0.0348 0.3115,-0.0782 0.90853,-0.0121 1.32672,0.14694 0.99169,0.37704 1.51306,-0.0733 0.63646,-0.54972 -0.34305,-0.18644 -0.80232,-0.35893 -1.0206,-0.38331 -0.96301,-0.10752 -5.81742,-1.566 -7.10105,-2.13347 -2.13255,-0.94276 -1.35104,-1.76716 0.88334,-0.93182 0.43657,0.16322 2.04391,0.66208 3.57188,1.10858 1.52797,0.44651 3.50089,1.04233 4.38428,1.32404 0.88338,0.28172 1.95494,0.51287 2.38125,0.51369 1.28228,0.002 2.73551,0.51771 3.03421,1.07584 0.15454,0.28875 0.38434,0.46112 0.51068,0.38304 0.12634,-0.0781 0.92404,0.0495 1.77266,0.28356 0.84863,0.23404 1.84062,0.48916 2.20442,0.56693 0.74628,0.15955 1.32292,0.55033 1.32292,0.89655 0,0.32278 -1.14869,0.24889 -3.175,-0.20424 z m 0.66145,-3.00101 c -1.01864,-0.26844 -2.86411,-0.80958 -4.10104,-1.20255 -1.23692,-0.39296 -2.45732,-0.72586 -2.71198,-0.73977 -0.25466,-0.0139 -0.46302,-0.11885 -0.46302,-0.23319 0,-0.11434 -0.29063,-0.20789 -0.64584,-0.20789 -0.35521,0 -0.70917,-0.10247 -0.78657,-0.2277 -0.0774,-0.12524 -0.8881,-0.43578 -1.80156,-0.6901 -0.91345,-0.25431 -1.95848,-0.61143 -2.32228,-0.79359 -0.3638,-0.18216 -1.55442,-0.59934 -2.64583,-0.92706 -1.09141,-0.32772 -2.63922,-0.89854 -3.43958,-1.26849 -0.80037,-0.36995 -1.71679,-0.79006 -2.03649,-0.93359 -0.65669,-0.29481 -1.00176,-0.9583 -0.67062,-1.28945 0.12137,-0.12137 0.80988,0.0632 1.53003,0.41026 0.72015,0.34701 1.96421,0.84895 2.76458,1.11543 0.80036,0.26648 1.69006,0.63755 1.9771,0.82461 0.86584,0.56424 4.63748,0.38363 4.63748,-0.22207 0,-0.12973 -0.47625,-0.42643 -1.05833,-0.65933 -0.58209,-0.2329 -1.05834,-0.53481 -1.05834,-0.67091 0,-0.1361 -0.14883,-0.22234 -0.33073,-0.19165 -0.54384,0.0918 -2.30938,-0.33847 -2.47258,-0.60253 -0.0834,-0.13495 -0.37974,-0.17296 -0.65854,-0.0845 -0.28336,0.0899 -0.5069,0.0363 -0.5069,-0.12153 0,-0.15533 -0.13083,-0.28241 -0.29074,-0.28241 -0.15991,0 -0.72546,-0.19074 -1.25677,-0.42385 -1.15779,-0.50799 -1.72496,-0.73585 -2.9504,-1.18532 -0.50933,-0.18681 -1.23765,-0.59454 -1.6185,-0.90608 -0.38085,-0.31154 -1.06546,-0.72094 -1.52135,-0.90978 -0.51283,-0.21242 -0.8289,-0.53288 -0.8289,-0.84041 0,-0.82542 1.16985,-0.60588 2.26248,0.42459 0.53748,0.50692 1.06347,0.86837 1.16887,0.80323 0.10539,-0.0651 0.86625,0.23158 1.69078,0.65937 0.82454,0.4278 1.52742,0.77235 1.56195,0.76568 0.0345,-0.007 0.41998,0.12492 0.85654,0.29243 1.92819,0.73984 2.95026,1.04812 3.48683,1.0517 0.31703,0.002 0.7626,0.19004 0.99016,0.4176 0.22756,0.22756 0.51763,0.34954 0.64461,0.27106 0.12697,-0.0785 0.90932,0.2043 1.73854,0.62838 0.82923,0.42408 1.76684,0.80812 2.08357,0.85342 0.85623,0.12244 0.93279,1.00839 0.0871,1.00839 -0.36588,0 -0.73883,-0.11906 -0.82877,-0.26458 -0.25989,-0.42051 -0.92828,-0.3137 -0.76122,0.12165 0.0989,0.25762 -0.13544,0.50197 -0.70366,0.73383 l -0.85187,0.3476 0.89379,0.43818 c 1.1104,0.54437 3.30665,1.33443 5.39171,1.93955 0.87313,0.2534 1.70657,0.5481 1.85209,0.65489 0.14552,0.10679 1.28697,0.38063 2.53656,0.60854 2.43146,0.44347 4.52122,1.41036 3.89978,1.80434 -0.45609,0.28916 -0.54776,0.27921 -2.73218,-0.29643 z m 2.24896,-0.002 c 0,-0.14552 -0.0525,-0.26458 -0.11667,-0.26458 -0.0642,0 -0.19027,0.11906 -0.2802,0.26458 -0.0899,0.14552 -0.0374,0.26458 0.11667,0.26458 0.15411,0 0.2802,-0.11906 0.2802,-0.26458 z m 7.79195,-1.86626 c -0.28375,-0.1035 -1.38272,-0.45488 -2.44216,-0.78085 -1.1377,-0.35005 -2.03158,-0.78947 -2.18353,-1.07339 -0.36663,-0.68506 0.0185,-0.80462 1.21686,-0.3777 0.57246,0.20394 1.30023,0.37603 1.61725,0.38242 0.31703,0.006 0.77706,0.21225 1.02228,0.45748 0.31359,0.31359 0.95171,0.45943 2.1509,0.49158 1.60453,0.043 2.53433,0.40745 2.11342,0.82837 -0.25305,0.25305 -2.85191,0.30665 -3.49502,0.0721 z m -9.90861,-0.67592 c -0.80037,-0.2108 -1.69334,-0.49147 -1.98438,-0.62371 -0.29104,-0.13224 -0.82682,-0.32202 -1.19062,-0.42174 -0.76321,-0.20919 -1.32292,-0.60803 -1.32292,-0.94268 0,-0.32329 1.23341,-0.29093 1.78953,0.0469 0.25268,0.15352 1.47146,0.55263 2.70839,0.8869 1.44638,0.39088 2.24895,0.73847 2.24895,0.97402 0,0.50726 -0.55285,0.52699 -2.24895,0.0803 z m -28.7073,-0.38845 c -0.43656,-0.13823 -1.06336,-0.18753 -1.39289,-0.10955 -0.77641,0.18372 -3.5019,-1.05099 -3.5019,-1.58644 0,-0.22026 0.20836,-0.41456 0.46302,-0.4318 0.6222,-0.0421 0.64955,-0.0378 1.25677,0.19537 0.89424,0.34344 -0.0771,-0.48489 -1.4552,-1.24094 -0.89279,-0.4898 -1.19063,-0.81017 -1.19063,-1.28067 0,-0.68127 0.91028,-1.44219 1.10189,-0.92109 0.33553,0.91249 0.8231,1.18176 2.33953,1.29206 1.99385,0.14503 3.57581,0.37144 3.87133,0.55408 0.35224,0.2177 0.2691,0.93191 -0.10285,0.88361 -0.97022,-0.12599 -2.57969,0.0555 -2.57969,0.29088 0,0.52859 1.48778,0.87391 3.96875,0.92117 1.38245,0.0263 2.84096,0.0665 3.24115,0.0892 1.90001,0.10803 -0.24465,1.15242 -2.55411,1.24377 -0.8872,0.0351 -1.85121,0.12857 -2.14225,0.20773 -0.29104,0.0791 -0.88635,0.0308 -1.32292,-0.10743 z M 4.2777927,184.09463 c -0.820627,-0.13517 -0.746961,-0.54711 0.132291,-0.73977 0.400183,-0.0877 0.906198,-0.21694 1.12448,-0.28723 0.602988,-0.19418 4.5580883,-0.95975 5.1593753,-0.99868 0.291041,-0.0188 0.797057,-0.18405 1.124479,-0.36714 0.372373,-0.20822 0.595312,-0.23031 0.595312,-0.059 0,0.15064 0.119063,0.27389 0.264584,0.27389 0.14552,0 0.264583,-0.19133 0.264583,-0.42518 0,-0.27895 0.143892,-0.36997 0.418372,-0.26464 0.230105,0.0883 0.673316,-0.018 0.984914,-0.23628 0.311597,-0.21825 0.813892,-0.39682 1.11621,-0.39682 0.302319,0 0.66278,-0.10369 0.801025,-0.23042 0.414375,-0.37987 1.552221,-0.55765 1.959213,-0.30612 0.880323,0.54407 -1.733702,1.74765 -5.143139,2.36805 -0.725237,0.13197 -1.405003,0.18656 -1.510592,0.1213 -0.105588,-0.0653 -0.405181,-0.0105 -0.665761,0.12179 -0.666365,0.33817 -4.0424582,1.10529 -4.8526383,1.10263 -0.371078,-10e-4 -0.787797,0.0932 -0.926042,0.20972 -0.138244,0.11657 -0.519244,0.16782 -0.846666,0.11389 z m 157.2847873,-0.0798 c -0.55121,-0.13307 -1.53309,-0.48379 -2.18196,-0.77939 -0.64888,-0.2956 -1.47554,-0.6499 -1.83703,-0.78734 -0.43699,-0.16614 -0.60513,-0.38573 -0.50171,-0.65523 0.20897,-0.54457 0.22743,-0.54179 3.61703,0.54537 1.63031,0.52289 3.23208,1.0289 3.5595,1.12448 1.84701,0.53912 -0.60133,1.0481 -2.65583,0.55211 z m -6.14156,-2.46044 c -0.43656,-0.16454 -0.96529,-0.40952 -1.17495,-0.5444 -0.20967,-0.13489 -0.98357,-0.56693 -1.7198,-0.96008 -0.73622,-0.39316 -1.7553,-0.96122 -2.26463,-1.26235 -0.50932,-0.30114 -1.46182,-0.81744 -2.11666,-1.14733 -1.84322,-0.92857 -2.64486,-1.53976 -2.65653,-2.02541 -0.006,-0.24475 -0.65871,-0.86172 -1.45073,-1.37105 -1.34326,-0.86379 -1.90078,-1.48849 -1.59835,-1.79091 0.17127,-0.17128 4.40954,1.99095 4.91186,2.50586 0.29939,0.30691 0.31622,0.43676 0.0685,0.52866 -0.40987,0.15207 0.1217,0.73864 1.03605,1.14326 0.33838,0.14974 1.32961,0.68578 2.20274,1.1912 0.87312,0.50543 1.88515,1.05277 2.24896,1.21633 0.3638,0.16355 1.09438,0.52093 1.62352,0.79419 0.52914,0.27326 1.19917,0.49683 1.48896,0.49683 0.82173,0 1.26716,0.68524 0.76915,1.18325 -0.22234,0.22234 -0.44252,0.39005 -0.4893,0.37268 -0.0468,-0.0174 -0.44223,-0.16619 -0.87879,-0.33073 z M 22.494909,180.75863 c -0.223036,-0.26874 -0.214001,-0.427 0.03587,-0.62835 0.324443,-0.26144 1.853994,-0.70142 2.511606,-0.72248 0.179042,-0.006 0.537896,-0.18771 0.797452,-0.4044 0.259557,-0.21669 0.827443,-0.57239 1.261969,-0.79043 0.434527,-0.21805 0.852182,-0.47879 0.928124,-0.57941 0.31358,-0.4155 2.163685,-1.53768 2.535123,-1.53768 0.220407,0 0.327155,-0.11907 0.237218,-0.26459 -0.08994,-0.14552 0.08163,-0.26458 0.38126,-0.26458 0.368393,0 0.544782,0.17133 0.544782,0.52917 0,0.29104 -0.109943,0.52916 -0.244317,0.52916 -0.134375,0 -0.790249,0.41672 -1.457498,0.92605 -0.66725,0.50932 -1.376166,0.92604 -1.57537,0.92604 -0.199203,0 -0.512947,0.18165 -0.697208,0.40367 -0.366503,0.44161 -3.151177,1.79025 -4.263562,2.06489 -0.447857,0.11056 -0.803984,0.0436 -0.995449,-0.18706 z m 103.696341,-1.98412 c -1.14054,-0.42579 -2.20183,-1.63002 -1.79504,-2.03681 0.19676,-0.19677 1.93858,0.5466 2.17425,0.92792 0.0791,0.12796 0.38159,0.17048 0.67223,0.0945 0.29064,-0.076 0.8263,0.057 1.19036,0.29553 0.46864,0.30706 0.66193,0.33811 0.66193,0.10633 0,-0.2084 0.16827,-0.15906 0.46302,0.13576 0.40495,0.40506 0.41325,0.49461 0.0661,0.7141 -0.58431,0.36949 -2.08548,0.26572 -3.43289,-0.2373 z M 67.415715,177.3747 c -0.04988,-0.98222 0.04432,-1.36717 0.507152,-2.07257 0.2387,-0.36381 0.402668,-0.81029 0.364375,-0.99219 -0.03829,-0.1819 0.04638,-0.33073 0.188155,-0.33073 0.141779,0 0.295826,-0.26391 0.342327,-0.58647 0.08644,-0.59958 1.370294,-1.52327 1.682826,-1.21074 0.15736,0.15736 -0.584387,1.74561 -0.9629,2.06179 -0.401539,0.33542 -1.509209,2.6292 -1.471429,3.04706 0.02327,0.25733 -0.106527,0.52037 -0.288428,0.58454 -0.198805,0.0701 -0.343234,-0.12959 -0.362078,-0.50069 z m -30.594172,-0.52248 c -0.467811,-0.47103 -0.410627,-1.53604 0.09285,-1.72924 0.491974,-0.18879 0.973446,0.42911 0.648092,0.83173 -0.121538,0.1504 -0.263555,0.4888 -0.315595,0.75198 -0.07595,0.38413 -0.159863,0.41284 -0.425347,0.14553 z m 160.669517,-1.43666 c -0.43295,-0.32717 -0.46099,-0.44025 -0.15592,-0.62879 0.50215,-0.31035 1.41834,0.0588 1.49831,0.60369 0.081,0.55172 -0.62797,0.56498 -1.34239,0.0251 z m -72.40897,-0.51035 c -0.0728,-0.0728 -0.52344,-0.17786 -1.00147,-0.23352 -0.80864,-0.0942 -1.32198,-0.50265 -1.33159,-1.05964 -0.005,-0.29496 2.94385,0.0342 3.27523,0.36561 0.14855,0.14855 0.11147,0.40305 -0.095,0.6518 -0.34859,0.42002 -0.61591,0.50703 -0.84719,0.27575 z m 47.4513,-0.29563 c 0.11524,-0.5765 2.22138,-0.78129 2.73658,-0.26609 0.53458,0.53458 0.21482,0.69405 -1.39162,0.69405 -1.17661,0 -1.41532,-0.0759 -1.34496,-0.42796 z m 22.20088,0.17737 c -0.20433,-0.12629 -0.52478,-0.1708 -0.7121,-0.0989 -0.18733,0.0719 -1.03056,-0.0699 -1.87385,-0.31503 -2.10071,-0.6107 -6.40553,-1.1383 -7.29531,-0.89412 -0.42444,0.11648 -1.20042,0.0633 -1.85208,-0.12691 l -1.12158,-0.32739 2.24896,-0.31677 c 2.7945,-0.39362 4.83751,-0.40291 6.06663,-0.0276 2.16497,0.66107 2.60656,0.77341 3.40636,0.86653 0.46161,0.0537 0.98957,0.22204 1.17325,0.37398 0.18368,0.15194 0.68197,0.31655 1.10731,0.36581 0.42534,0.0493 0.81574,0.21896 0.86756,0.37713 0.11456,0.34968 -1.48999,0.44785 -2.01515,0.12329 z M 37.360057,174.26636 c -0.250636,-0.40134 -0.241765,-0.56853 0.04269,-0.80461 0.197487,-0.1639 0.438173,-0.61318 0.534859,-0.9984 0.09669,-0.38523 0.347441,-0.82683 0.557235,-0.98134 0.209794,-0.15451 0.588854,-0.69729 0.842355,-1.20619 0.477569,-0.9587 1.386953,-1.41555 1.386953,-0.69676 0,0.40925 -1.009648,2.30394 -1.360695,2.55345 -0.106535,0.0757 -0.321644,0.4742 -0.478021,0.8855 -0.156377,0.4113 -0.523523,0.81038 -0.815879,0.88683 -0.417505,0.10918 -0.46664,0.21722 -0.229001,0.50356 0.166406,0.20051 0.197555,0.36456 0.06922,0.36456 -0.128335,0 -0.375706,-0.22797 -0.549716,-0.5066 z M 203.3106,173.78841 c -1.30969,-0.50237 -2.49436,-1.02214 -2.6326,-1.15505 -0.13825,-0.13291 -0.4733,-0.24165 -0.74456,-0.24165 -0.27126,0 -1.11065,-0.28094 -1.86531,-0.6243 -0.75466,-0.34337 -1.96742,-0.70818 -2.69503,-0.8107 -0.7276,-0.10252 -1.73963,-0.31464 -2.24896,-0.47139 -0.50932,-0.15675 -1.09191,-0.33052 -1.29464,-0.38616 -0.20273,-0.0556 -0.31665,-0.1531 -0.25316,-0.21659 0.17382,-0.17382 4.67035,0.32883 5.05209,0.56475 0.18252,0.11281 0.63908,0.17287 1.01459,0.13349 0.37551,-0.0394 0.82892,0.10452 1.00758,0.31979 0.17866,0.21528 0.824,0.47461 1.43409,0.57629 0.61008,0.10169 1.64408,0.46818 2.29776,0.81444 0.65369,0.34625 1.4276,0.63137 1.7198,0.6336 0.73082,0.006 1.29816,0.40505 1.07896,0.75972 -0.11551,0.1869 0.03,0.26985 0.39996,0.22802 0.63891,-0.0722 0.99924,0.45308 0.45259,0.65983 -0.18805,0.0711 -1.41347,-0.28172 -2.72316,-0.78409 z m -129.907032,0.46085 c -0.200437,-0.32431 0.294382,-1.29714 1.006393,-1.97858 0.369638,-0.35377 0.57506,-0.41614 0.648176,-0.19679 0.05887,0.17661 0.221715,0.25024 0.361873,0.16362 0.156828,-0.0969 0.135678,-0.30107 -0.055,-0.53081 -0.248441,-0.29936 -0.209049,-0.37332 0.198819,-0.37332 0.279756,0 0.622751,-0.11411 0.762212,-0.25357 0.161699,-0.1617 0.396553,-0.15994 0.64823,0.005 0.337303,0.22085 0.317755,0.3031 -0.134504,0.5659 -0.291041,0.16912 -1.057743,0.88132 -1.703781,1.58266 -1.211086,1.31476 -1.458228,1.45971 -1.732423,1.01605 z m 88.643332,-0.25177 c -0.20617,-0.33358 0.0816,-0.43281 1.17933,-0.40659 0.50932,0.0122 0.98557,-0.0591 1.05833,-0.15835 0.0728,-0.0993 0.42995,-0.0603 0.79375,0.0866 l 0.66146,0.26706 -0.66146,0.20242 c -0.95383,0.2919 -2.85306,0.29745 -3.03141,0.009 z m 13.48517,-0.0139 c -0.11507,-0.18619 -0.0484,-0.42359 0.15416,-0.54876 0.48192,-0.29785 0.60695,-0.12074 0.30086,0.4262 -0.18876,0.3373 -0.30325,0.36813 -0.45502,0.12256 z m -96.885109,-1.87824 c 0.04624,-0.30301 0.20731,-0.63043 0.357928,-0.72761 0.150618,-0.0972 0.439301,-0.6389 0.641519,-1.20384 0.363215,-1.01471 1.975461,-2.62637 2.46432,-2.46342 0.543236,0.18108 0.393048,0.66446 -0.500982,1.61241 -0.513105,0.54405 -1.242023,1.51663 -1.619817,2.16128 -0.720948,1.23021 -1.490213,1.58602 -1.342968,0.62118 z m 6.924064,0.0218 c -0.0899,-0.14552 -0.0477,-0.26459 0.0938,-0.26459 0.14999,0 0.17807,-0.29633 0.0673,-0.71044 -0.343057,-1.28272 1.39233,-5.37497 2.27934,-5.37497 0.51177,0 0.29763,1.25921 -0.46198,2.71655 -0.28779,0.55215 -0.52326,1.23134 -0.52326,1.50931 0,0.27798 -0.10991,0.57333 -0.24423,0.65635 -0.13433,0.083 -0.32238,0.50676 -0.4179,0.94165 -0.17561,0.79957 -0.49368,1.01058 -0.79308,0.52614 z m 56.858145,-0.87446 c -1.11707,-0.57309 -1.76407,-1.24627 -2.36882,-2.46468 -0.26564,-0.53519 -0.70674,-0.91077 -1.25399,-1.06772 -0.46469,-0.13327 -0.88427,-0.45016 -0.93333,-0.70489 -0.11414,-0.59267 -1.33357,-1.82099 -1.62749,-1.63934 -0.12297,0.076 -0.75642,-0.0902 -1.40766,-0.36936 -0.65124,-0.27915 -1.28707,-0.40889 -1.41297,-0.2883 -0.30416,0.29134 -1.19021,0.38668 -1.6841,0.18122 -0.21828,-0.0908 -0.7243,-0.28475 -1.12448,-0.43099 -0.40018,-0.14624 -0.7276,-0.43469 -0.7276,-0.641 0,-0.40378 0.70511,-0.78233 1.05474,-0.56624 0.11728,0.0725 1.37759,0.19782 2.80068,0.27852 1.42309,0.0807 2.71537,0.23014 2.87173,0.33209 0.15637,0.10194 1.2368,0.24489 2.40097,0.31765 1.6463,0.10289 2.11667,0.22048 2.11667,0.52916 0,0.29771 -0.38125,0.41674 -1.52581,0.47636 l -1.5258,0.0795 0.73205,0.59794 c 0.40263,0.32887 1.23104,0.74226 1.8409,0.91864 0.60987,0.17639 1.6162,0.54785 2.23629,0.82548 1.11598,0.49964 1.12017,0.50659 0.4125,0.6842 -0.39321,0.0987 -1.01882,0.10316 -1.39025,0.01 -1.20386,-0.30215 -0.30947,0.74408 1.58194,1.85051 0.94174,0.55089 1.66024,1.08577 1.59668,1.18862 -0.27034,0.43742 -1.72413,0.3843 -2.66285,-0.0973 z m -24.9579,-1.26775 c -2.57588,-0.57055 -2.93325,-0.80515 -2.43701,-1.59976 0.24805,-0.39718 0.26487,-0.63471 0.0595,-0.84006 -0.15747,-0.15747 -0.29182,-0.47085 -0.29856,-0.69641 -0.007,-0.22556 -0.47747,-0.76729 -1.04608,-1.20385 -1.00942,-0.77501 -1.40177,-1.7198 -0.7142,-1.7198 0.70312,0 1.76847,0.67664 1.77047,1.12448 0.002,0.33869 0.21743,0.46302 0.80412,0.46302 0.87876,0 1.29113,0.58132 0.81734,1.1522 -0.3154,0.38004 -0.14055,0.69989 0.38262,0.69989 0.17948,0 0.74304,0.41672 1.25236,0.92604 0.64366,0.64366 1.16628,0.92604 1.71385,0.92604 0.83689,0 1.54106,0.58655 1.25665,1.04674 -0.22574,0.36526 -0.8886,0.31341 -3.56108,-0.27853 z m -26.909775,-0.10675 c -0.0838,-0.21828 -0.064,-0.60524 0.0438,-0.8599 0.17297,-0.40833 0.47058,-1.76064 0.74242,-3.37343 0.12023,-0.71334 0.74253,-1.67736 1.19479,-1.85091 0.27733,-0.10643 0.3221,0.007 0.18123,0.45791 -0.23664,0.758 -1.13245,4.33236 -1.32718,5.2956 -0.16005,0.79165 -0.5925,0.96292 -0.83509,0.33073 z m 105.636555,-0.40144 c -0.56492,-0.28195 -1.10466,-0.46472 -1.19943,-0.40615 -0.0948,0.0586 -0.74189,-0.18225 -1.43806,-0.53515 -0.69616,-0.3529 -1.54186,-0.64164 -1.87932,-0.64164 -0.33746,0 -1.49031,-0.28895 -2.56189,-0.64211 -2.25852,-0.74433 -5.67683,-1.31171 -6.13261,-1.01789 -0.1725,0.1112 -1.50426,0.22738 -2.95947,0.25818 -2.88519,0.0611 -4.1912,0.23018 -5.06527,0.65585 -0.39103,0.19043 -0.84329,0.19175 -1.45521,0.004 -0.48832,-0.14963 -1.30457,-0.34164 -1.8139,-0.42669 -0.50932,-0.085 -1.27198,-0.45226 -1.6948,-0.81603 -0.42281,-0.36376 -1.01813,-0.66212 -1.32291,-0.66302 -0.30479,-9e-4 -0.90352,-0.18381 -1.33052,-0.40648 -0.42699,-0.22266 -0.94375,-0.3406 -1.14835,-0.26209 -0.2046,0.0785 -0.74821,-0.0532 -1.20802,-0.29276 -1.48436,-0.77325 -1.68203,-0.85013 -2.65553,-1.03276 -0.52724,-0.0989 -0.95862,-0.27737 -0.95862,-0.39657 0,-0.11921 -0.24284,-0.25479 -0.53964,-0.30129 -0.29681,-0.0465 -0.52964,-0.20361 -0.51741,-0.34913 0.0268,-0.31895 1.37076,-0.21792 2.64455,0.19881 0.50933,0.16663 1.1344,0.27187 1.38907,0.23388 0.25466,-0.038 0.46302,0.0442 0.46302,0.18269 0,0.13848 0.44648,0.33521 0.99218,0.43719 0.54571,0.10197 1.11125,0.2773 1.25677,0.3896 0.14553,0.11231 0.7087,0.27238 1.2515,0.35571 0.5428,0.0833 1.38441,0.45471 1.87025,0.82527 1.58938,1.21228 4.42995,1.89016 5.10245,1.21765 0.65289,-0.65289 11.11148,-0.91846 12.5456,-0.31857 0.50932,0.21306 1.81338,0.6113 2.89791,0.885 1.08453,0.27369 2.06032,0.64074 2.16842,0.81566 0.10811,0.17492 0.26886,0.24574 0.35723,0.15737 0.48195,-0.48195 4.36602,1.45193 4.36602,2.17383 0,0.35291 -0.25016,0.30326 -1.42401,-0.28261 z M 42.841137,168.78609 c -1.78e-4,-0.30961 0.178271,-0.71114 0.396552,-0.8923 0.218281,-0.18115 0.39704,-0.46362 0.397241,-0.62771 5.04e-4,-0.41066 1.926695,-2.54729 2.29641,-2.54729 0.407198,0 0.107345,1.06617 -0.349116,1.24133 -0.198088,0.076 -0.36016,0.25751 -0.36016,0.40333 0,0.14583 -0.236467,0.52004 -0.525483,0.83159 -0.289015,0.31156 -0.824651,0.92365 -1.190301,1.36021 -0.605865,0.72336 -0.664849,0.74383 -0.665143,0.23084 z m 53.313218,-1.15688 c 0.0899,-0.14552 0.054,-0.26458 -0.0799,-0.26458 -0.25868,0 0.0979,-1.9016 0.50792,-2.70839 0.1284,-0.25269 0.23346,-0.74413 0.23346,-1.09208 0,-0.34796 0.184007,-0.78537 0.408907,-0.97203 0.22491,-0.18665 0.34348,-0.5099 0.2635,-0.71834 -0.0892,-0.23246 0.0596,-0.43257 0.38483,-0.51763 0.29164,-0.0763 0.53026,-0.24384 0.53026,-0.37239 0,-0.12855 0.10791,-0.23373 0.23981,-0.23373 0.1319,0 0.17848,0.26789 0.10351,0.59532 -0.21811,0.95256 -0.71987,2.05052 -0.93708,2.05052 -0.10999,0 -0.20378,0.32742 -0.20841,0.7276 -0.005,0.40018 -0.17504,0.94754 -0.3787,1.21634 -0.20366,0.26881 -0.31407,0.63523 -0.24537,0.81427 0.17187,0.44788 -0.347537,1.7397 -0.699487,1.7397 -0.15771,0 -0.21317,-0.11906 -0.12323,-0.26458 z m -21.042938,-1.6193 c -0.315263,-1.1708 -0.06522,-2.89812 0.4441,-3.06789 0.389916,-0.12997 0.695243,0.70593 0.395477,1.0827 -0.130048,0.16346 -0.14047,0.53532 -0.02316,0.82637 0.336306,0.83437 0.285705,1.18753 -0.146394,1.02172 -0.218281,-0.0838 -0.396875,-0.0332 -0.396875,0.11229 0,0.14552 0.18614,0.33601 0.413645,0.42331 0.227504,0.0873 0.33954,0.27863 0.248968,0.42518 -0.326731,0.52866 -0.647684,0.24615 -0.93576,-0.82368 z m -24.73215,0.0283 c -0.198345,-0.32093 0.94674,-2.79506 1.68214,-3.63451 0.448045,-0.51144 1.098157,-0.80546 1.098157,-0.49665 0,0.32625 -1.117924,2.54717 -1.282146,2.54717 -0.109478,0 -0.349738,0.41672 -0.533912,0.92604 -0.337388,0.93303 -0.658718,1.15229 -0.964239,0.65795 z m 5.801956,-1.36569 c 0.121636,-1.41892 0.48065,-2.35792 1.55029,-4.05476 1.597907,-2.53487 2.728954,-2.94719 1.640593,-0.59808 -0.350048,0.75555 -0.789743,1.56016 -0.977101,1.78804 -0.187357,0.22788 -0.496467,0.60977 -0.686912,0.84864 -0.190444,0.23887 -0.4881,0.99983 -0.661458,1.69102 -0.417884,1.66615 -0.999088,1.8845 -0.865412,0.32514 z m 43.121659,-0.0596 c -0.0908,-0.23652 -0.0551,-0.57735 0.0792,-0.7574 0.13435,-0.18005 0.22966,-0.74408 0.2118,-1.2534 -0.0179,-0.50933 0.0631,-1.05603 0.17985,-1.2149 0.11677,-0.15887 0.251728,-0.64893 0.299908,-1.08903 0.10182,-0.93 1.09217,-2.72316 1.504,-2.72316 0.58706,0 0.58076,0.83768 -0.011,1.46763 -0.33428,0.35582 -0.53479,0.71994 -0.44558,0.80915 0.0892,0.0892 -0.0708,0.75318 -0.35546,1.47549 -0.28471,0.72232 -0.44942,1.4237 -0.36602,1.55864 0.0834,0.13494 0.0233,0.24534 -0.13361,0.24534 -0.16639,0 -0.22093,0.25624 -0.1309,0.61495 0.19397,0.77284 -0.564918,1.56319 -0.832188,0.86669 z M 83.151468,164.3175 c -0.08469,-0.22071 -0.09265,-0.72215 -0.01769,-1.11432 0.08624,-0.45113 -0.0052,-0.8165 -0.248983,-0.99475 -0.497286,-0.36363 -0.190552,-1.19381 0.441084,-1.19381 0.388401,0 0.49311,0.26245 0.567005,1.42118 0.04985,0.78165 0.05214,1.61509 0.0051,1.85209 -0.107647,0.54221 -0.543173,0.55949 -0.746508,0.0296 z m -13.426527,-1.38465 c 0.09801,-0.83675 0.159467,-1.84878 0.13658,-2.24896 -0.02289,-0.40018 0.09208,-0.72761 0.255481,-0.72761 0.163401,0 0.230793,-0.17277 0.14976,-0.38394 -0.08103,-0.21117 0.07154,-0.65424 0.339049,-0.98461 0.404374,-0.49938 0.425237,-0.64654 0.123738,-0.87282 -0.306552,-0.23007 -0.303783,-0.43587 0.01791,-1.3305 0.209302,-0.58209 0.385776,-1.2752 0.392163,-1.54025 0.0064,-0.26506 0.196054,-0.66636 0.421482,-0.89179 0.225427,-0.22543 0.478435,-0.75271 0.562239,-1.17173 0.0838,-0.41902 0.267232,-0.76186 0.407617,-0.76186 0.140385,0 0.478729,-0.26789 0.751875,-0.59531 l 0.496629,-0.59531 0.0088,0.64062 c 0.0048,0.35235 -0.145152,0.8286 -0.333318,1.05834 -0.188167,0.22974 -0.501009,0.89395 -0.695204,1.47604 -0.194195,0.58208 -0.569702,1.5141 -0.83446,2.07115 -0.264757,0.55705 -0.510508,1.68814 -0.546111,2.51354 -0.0356,0.8254 -0.231145,1.70044 -0.434535,1.94453 -0.204057,0.24489 -0.369967,1.0157 -0.370171,1.71979 -4.77e-4,1.64853 -0.161391,2.20203 -0.640177,2.20203 -0.316055,0 -0.354669,-0.28062 -0.209344,-1.52135 z m -2.966784,0.83602 c 0.0888,-0.23142 0.07945,-0.55346 -0.02079,-0.71564 -0.318478,-0.51531 -0.3626,-1.83527 -0.07301,-2.18421 0.195288,-0.23531 0.19554,-0.38819 8.37e-4,-0.50852 -0.482208,-0.29802 0.301853,-2.9018 1.574232,-5.22785 1.01175,-1.8496 1.478227,-2.22982 1.233317,-1.00527 -0.09548,0.47738 -0.173593,0.97215 -0.173593,1.09948 0,0.12733 -0.17726,0.23151 -0.393911,0.23151 -0.235741,0 -0.388993,0.23904 -0.381662,0.59531 0.01367,0.66424 -0.709259,3.55133 -1.043463,4.16719 -0.248237,0.45744 -0.201307,2.49772 0.0776,3.37343 0.157004,0.49297 0.0907,0.59532 -0.385704,0.59532 -0.417189,0 -0.530929,-0.11564 -0.413846,-0.42075 z m 36.277413,0.12463 c -0.46384,-1.20875 0.0201,-7.20266 0.61643,-7.63532 0.10489,-0.0761 0.17372,-0.40625 0.15297,-0.73367 -0.0208,-0.32742 0.0651,-0.59531 0.19071,-0.59531 0.12566,0 0.22846,-0.17057 0.22846,-0.37905 0,-0.37492 0.97655,-0.84926 1.2289,-0.59691 0.0719,0.0719 0.0173,0.35063 -0.12136,0.61947 -0.90832,1.76147 -1.389,3.47332 -1.52964,5.44747 -0.0649,0.91074 -0.15541,2.16212 -0.20118,2.78085 -0.0897,1.21325 -0.33619,1.6895 -0.56529,1.09247 z m 3.3743,-0.22078 c -0.22727,-0.36392 -0.23821,-0.56919 -0.037,-0.69355 0.1572,-0.0972 0.22075,-0.50203 0.14121,-0.89972 -0.0795,-0.3977 -0.0121,-0.8556 0.14988,-1.01757 0.21627,-0.21628 0.17861,-0.33897 -0.14178,-0.46191 -0.30756,-0.11802 -0.36942,-0.29622 -0.20967,-0.60399 0.12463,-0.24011 0.19616,-1.21048 0.15897,-2.15636 -0.0372,-0.94589 0.012,-1.83886 0.10928,-1.98438 0.48176,-0.72049 0.30593,-1.75753 -0.41848,-2.46821 -0.96069,-0.9425 -1.67356,-1.84507 -1.67356,-2.1189 0,-0.48774 -1.26966,-1.37153 -1.87414,-1.30456 -0.58795,0.0651 -0.63242,-0.009 -0.55257,-0.92135 0.0514,-0.58674 -0.0297,-0.99219 -0.19844,-0.99219 -0.1569,0 -0.28527,-0.18233 -0.28527,-0.40518 0,-0.22284 -0.17859,-0.47371 -0.39688,-0.55747 -0.21828,-0.0838 -0.39687,-0.37065 -0.39687,-0.63754 0,-0.86474 -0.46779,-0.80223 -0.6059,0.081 -0.0738,0.47178 -0.308698,1.54031 -0.522058,2.37451 -0.50516,1.9751 -0.34721,2.71898 0.895868,4.21927 0.56421,0.68096 1.02584,1.35442 1.02584,1.49659 0,0.41737 -1.12064,0.003 -1.708738,-0.63109 -0.29786,-0.3214 -0.77939,-0.62988 -1.07006,-0.68552 -0.34541,-0.0661 -0.57587,-0.37509 -0.66527,-0.89191 -0.16156,-0.93408 -1.600647,-3.83345 -1.902717,-3.83345 -0.21913,0 -0.24821,0.1726 -0.35662,2.11667 -0.17555,3.14823 -0.60942,5.48537 -1.04968,5.65431 -0.45242,0.17361 -0.7315,-0.62816 -0.51663,-1.48426 0.104,-0.41439 0.0152,-0.75764 -0.2539,-0.98094 -0.22763,-0.18892 -0.41388,-0.52342 -0.41388,-0.74333 0,-0.40135 -1.26555,-1.65111 -1.67258,-1.65171 -0.11956,-1.8e-4 -0.18054,0.28078 -0.13551,0.62435 0.045,0.34357 -0.0881,0.82949 -0.29588,1.07982 -0.26873,0.3238 -0.30169,0.58256 -0.11423,0.89668 0.14493,0.24284 0.25683,1.02321 0.24867,1.73415 -0.0125,1.08676 -0.10845,1.32724 -0.60259,1.51003 -0.77381,0.28624 -1.49313,-0.39777 -1.28603,-1.22291 0.0902,-0.35925 -0.007,-0.72219 -0.24545,-0.9204 -0.21687,-0.17999 -0.39432,-0.5508 -0.39432,-0.82402 0,-0.27989 -0.18563,-0.49677 -0.42518,-0.49677 -0.27021,0 -0.36939,0.1454 -0.2721,0.39893 0.0842,0.21942 0.0322,1.26121 -0.11558,2.31511 -0.14777,1.05389 -0.29322,2.12605 -0.32322,2.38257 -0.03,0.25653 -0.17361,0.43512 -0.31913,0.39688 -0.16122,-0.0424 -0.26458,-1.58803 -0.26458,-3.95679 0,-2.75589 -0.0963,-3.98413 -0.33073,-4.2201 -0.1819,-0.18307 -0.33073,-0.58288 -0.33073,-0.88848 0,-0.30559 -0.1148,-0.67043 -0.25511,-0.81074 -0.14032,-0.14031 -0.28915,-0.67014 -0.33073,-1.1774 -0.11063,-1.34939 0.6164,-1.21658 1.10685,0.2022 0.4483,1.29686 0.7109,1.43659 0.74582,0.39688 0.0134,-0.40018 0.19393,-1.20386 0.40109,-1.78594 0.21872,-0.61461 0.34818,-1.79097 0.30878,-2.80577 -0.0631,-1.62577 -0.0146,-1.79773 0.69751,-2.46982 0.42096,-0.39731 0.76538,-0.89277 0.76538,-1.101 0,-0.82885 0.67923,-2.48695 1.01877,-2.48695 0.21289,0 0.29798,-0.16361 0.20758,-0.39917 -0.0842,-0.21955 -0.0328,-0.7157 0.11425,-1.10255 l 0.26742,-0.70338 0.40162,0.57338 c 0.35538,0.50739 0.3565,0.63779 0.01,1.13293 -0.21555,0.30775 -0.33325,0.71242 -0.26155,0.89928 0.0717,0.18685 0.008,0.41512 -0.14069,0.50726 -0.14909,0.0921 -0.20999,0.32668 -0.13535,0.52121 0.0747,0.19452 -0.10915,0.78964 -0.40843,1.32249 -0.29928,0.53285 -0.54415,1.27067 -0.54415,1.63962 0,0.36894 -0.12903,0.9119 -0.28674,1.20658 -0.20977,0.39196 -0.20051,0.74394 0.0345,1.31126 0.29497,0.71211 0.26085,0.82735 -0.41752,1.41026 -0.6309,0.54211 -0.75535,0.87873 -0.85252,2.30601 -0.0626,0.91917 -0.23899,1.90517 -0.39202,2.19111 -0.20017,0.37402 -0.19335,0.54817 0.0243,0.62072 0.16639,0.0555 0.30252,0.31446 0.30252,0.57556 0,0.2611 0.1786,0.62294 0.39688,0.8041 0.21828,0.18115 0.39687,0.48965 0.39687,0.68555 0,0.21374 0.1648,0.29294 0.41208,0.19804 0.22665,-0.087 0.36057,-0.29238 0.2976,-0.45647 -0.063,-0.16409 -0.03,-1.19052 0.0732,-2.28096 0.14244,-1.50475 0.0891,-2.25292 -0.22125,-3.10407 -0.33111,-0.90804 -0.3448,-1.18496 -0.0719,-1.45521 0.27155,-0.26893 0.38776,-0.24382 0.59826,0.12926 0.31272,0.55423 0.8093,0.62403 0.60233,0.0847 -0.0799,-0.2081 0.0265,-0.77365 0.23634,-1.25677 0.53195,-1.22475 1.08566,-4.01876 1.17035,-5.9055 0.0392,-0.87313 0.0808,-1.78784 0.0924,-2.03269 0.0116,-0.24485 0.42184,-0.75078 0.91155,-1.1243 0.4897,-0.37351 0.96334,-0.90905 1.05253,-1.19007 0.0892,-0.28103 0.49218,-0.58344 0.89551,-0.67202 0.74181,-0.16293 2.310657,-1.62345 2.828547,-2.63324 0.21129,-0.41198 0.49575,-0.53263 1.13503,-0.48141 1.118148,0.0896 2.162678,-0.47404 3.264918,-1.76176 0.49235,-0.5752 1.18891,-1.12153 1.54791,-1.21406 1.08974,-0.28088 1.8621,-1.10409 2.03489,-2.16887 0.12019,-0.74065 0.52269,-1.35379 1.55677,-2.37148 1.00021,-0.98435 1.47619,-1.6967 1.68291,-2.51862 0.46393,-1.84464 1.79108,-3.92419 2.50438,-3.92419 0.15791,0 0.43582,-0.23813 0.61758,-0.52917 0.18176,-0.29104 0.49689,-0.52916 0.70028,-0.52916 0.40819,0 0.71749,-1.67132 0.8138,-4.39736 0.0593,-1.67994 0.90614,-3.68626 1.72233,-4.08075 0.21828,-0.1055 0.70809,-0.33613 1.08847,-0.5125 0.38037,-0.17638 0.98762,-0.59518 1.34943,-0.93067 0.36181,-0.33549 0.77807,-0.5324 0.92503,-0.43758 0.14696,0.0948 0.32657,1.02281 0.39914,2.06221 0.0805,1.15227 0.35305,2.34653 0.69848,3.06009 0.31159,0.64366 0.57032,1.34106 0.57494,1.54978 0.005,0.20872 0.17923,0.60513 0.38799,0.88092 0.34695,0.45834 0.38169,0.39012 0.4042,-0.79375 0.0493,-2.59171 -0.0303,-3.33402 -0.42153,-3.93105 -0.2193,-0.3347 -0.43858,-1.05272 -0.4873,-1.59561 -0.0487,-0.54289 -0.2492,-1.08635 -0.44553,-1.20768 -0.19633,-0.12134 -0.30087,-0.25685 -0.23233,-0.30115 1.09746,-0.70914 1.87938,-0.94586 2.90276,-0.87878 1.71634,0.11252 4.09183,0.86481 4.63862,1.46901 0.25876,0.28593 0.62961,0.51987 0.8241,0.51987 0.19449,0 0.50234,0.23812 0.6841,0.52916 0.18175,0.29104 0.42929,0.52917 0.55008,0.52917 0.12079,0 0.8139,0.50111 1.54025,1.11357 0.82773,0.69795 1.38857,1.00652 1.50267,0.82674 0.10013,-0.15776 1.03749,-0.34903 2.08303,-0.42505 l 1.90097,-0.13823 0.65505,0.96513 c 0.36028,0.53082 0.96336,1.28736 1.34017,1.68119 0.37682,0.39383 0.6884,0.81055 0.69241,0.92604 0.004,0.11549 0.43275,0.50764 0.95276,0.87144 0.52002,0.3638 1.14926,0.8475 1.39832,1.07487 0.24906,0.22738 0.60671,0.36212 0.79479,0.29943 0.24109,-0.0804 0.28946,0.0514 0.16399,0.44674 -0.16034,0.50518 -0.11358,0.53625 0.47195,0.31364 0.53577,-0.2037 0.75965,-0.1303 1.27468,0.41793 0.34362,0.36576 0.56523,0.74473 0.49247,0.84215 -0.0728,0.0974 0.21151,0.21637 0.63171,0.26435 0.58978,0.0673 0.72935,-0.003 0.61202,-0.30883 -0.17837,-0.46485 0.42905,-0.77792 0.79646,-0.4105 0.13892,0.13892 0.70981,0.29361 1.26863,0.34375 0.72739,0.0653 1.15965,0.28831 1.52152,0.78507 0.278,0.38165 0.67182,0.6939 0.87514,0.6939 0.37428,0 2.32161,2.40162 2.28431,2.8172 -0.0111,0.12403 0.19598,0.46364 0.46027,0.75468 0.26428,0.29104 0.92395,1.48166 1.46593,2.64583 0.99514,2.13757 2.07443,3.57188 2.68776,3.57188 0.46131,0 1.76842,1.76562 1.55853,2.10523 -0.25875,0.41867 -0.61543,0.33096 -0.78146,-0.19216 -0.0817,-0.2575 -0.57923,-0.70009 -1.10557,-0.98354 -1.08618,-0.58495 -2.75025,-2.4846 -2.75025,-3.1396 0,-0.28075 -0.22071,-0.43577 -0.62045,-0.43577 -1.14794,0 -2.09854,-1.72978 -1.42167,-2.58696 0.19177,-0.24285 0.0463,-0.61527 -0.51693,-1.32292 -0.43111,-0.5417 -0.86178,-1.1943 -0.95705,-1.45022 -0.0953,-0.25592 -0.48274,-0.60634 -0.86104,-0.77871 -0.55678,-0.25368 -0.73193,-0.24205 -0.91924,0.061 -0.19535,0.3161 -0.25628,0.3096 -0.39108,-0.0417 -0.0878,-0.22887 -0.124,-0.56784 -0.0804,-0.75326 0.0436,-0.18542 -0.0573,-0.38762 -0.22419,-0.44932 -0.16692,-0.0617 -0.28599,0.10201 -0.26459,0.3638 0.0244,0.29819 -0.10934,0.44196 -0.35796,0.38488 -0.21828,-0.0501 -0.74074,-0.13584 -1.16101,-0.19049 -0.42028,-0.0547 -0.98655,-0.30066 -1.25839,-0.54668 -0.27185,-0.24601 -0.58184,-0.35972 -0.68887,-0.25268 -0.10704,0.10703 0.0127,0.31066 0.2662,0.45249 0.25345,0.14184 0.46082,0.43351 0.46082,0.64817 0,0.21465 0.32742,0.51255 0.7276,0.66201 1.39418,0.52068 2.97657,1.35135 2.97657,1.56254 0,0.4178 -0.91236,0.56231 -1.18614,0.18788 -0.17813,-0.2436 -0.57503,-0.33062 -1.13388,-0.24859 -0.47291,0.0694 -1.02673,-0.0123 -1.23073,-0.18163 -0.28295,-0.23483 -0.4179,-0.23176 -0.56914,0.0129 -0.22624,0.36608 1.11117,1.649 1.48085,1.42052 0.24989,-0.15444 1.31612,0.64682 1.31612,0.98905 0,0.11318 -0.20836,0.2076 -0.46302,0.20983 -1.06321,0.009 -1.16514,0.40709 -0.34328,1.33963 1.13988,1.29337 1.06053,1.71773 -0.29624,1.58429 -0.399,-0.0392 -0.39314,0.0507 0.0615,0.94238 0.27642,0.54217 0.78873,1.29212 1.13849,1.66656 0.34975,0.37444 0.83382,1.07291 1.07572,1.55216 0.24189,0.47926 0.73173,1.00438 1.08853,1.16695 0.35681,0.16257 0.64874,0.39418 0.64874,0.51467 0,0.36869 0.89052,1.28348 1.24942,1.28348 0.18594,0 0.33808,0.17859 0.33808,0.39687 0,0.71001 -0.98168,0.34695 -2.32504,-0.85989 -0.36446,-0.32743 -0.77135,-0.59532 -0.90421,-0.59532 -0.13286,0 -0.16798,-0.11906 -0.078,-0.26458 0.0899,-0.14552 0.0335,-0.26458 -0.12549,-0.26458 -0.4809,0 -2.12596,-1.80232 -1.98362,-2.17324 0.073,-0.19025 -0.20948,-0.72059 -0.62776,-1.17854 -0.74957,-0.82068 -0.99604,-1.36783 -1.26121,-2.79979 -0.10272,-0.55473 -0.0308,-0.7276 0.3028,-0.7276 0.24064,0 0.4998,0.23812 0.57591,0.52917 0.12591,0.48146 0.60583,0.76504 0.60583,0.35798 0,-0.25638 -1.90009,-2.55545 -2.44026,-2.95267 -0.25859,-0.19016 -0.47015,-0.56746 -0.47015,-0.83846 0,-0.271 -0.20836,-0.86547 -0.46302,-1.32104 -0.44098,-0.78888 -0.44098,-0.84484 0,-1.17509 0.64852,-0.4857 0.59933,-0.57331 -0.58883,-1.04872 -0.78093,-0.31246 -1.00964,-0.53086 -0.88797,-0.84793 0.12168,-0.31709 0.37552,-0.38765 0.9857,-0.274 0.77385,0.14414 0.79156,0.12998 0.30336,-0.24269 -0.28516,-0.21767 -0.64235,-0.35229 -0.79375,-0.29915 -0.55904,0.19621 -4.37633,-2.83768 -4.37633,-3.4782 0,-0.36726 -2.51724,-1.63837 -3.24455,-1.63837 -0.90009,0 -1.46778,0.67596 -0.72977,0.86896 0.54905,0.14358 0.7618,0.98313 0.24913,0.98313 -0.33972,0 -0.10195,1.35928 0.4308,2.46269 0.27519,0.56998 0.28968,0.89436 0.0623,1.39351 -0.24876,0.54597 -0.21481,0.71067 0.21109,1.02413 0.49911,0.36736 0.49915,0.37678 0.002,0.56927 -0.37737,0.14617 -0.66176,2.2e-4 -1.12316,-0.57642 -0.62625,-0.78265 -0.84022,-1.96277 -0.35588,-1.96277 0.14552,0 0.26458,-0.23812 0.26458,-0.52916 0,-0.29105 -0.10922,-0.52917 -0.2427,-0.52917 -0.13349,0 -0.45315,-0.55105 -0.71036,-1.22456 -0.44469,-1.16439 -0.44498,-1.24115 -0.006,-1.56213 0.42771,-0.31276 0.40278,-0.39781 -0.33905,-1.15669 -0.44039,-0.45052 -0.92379,-0.81912 -1.07421,-0.81912 -0.15043,0 -0.28839,-0.11906 -0.30658,-0.26458 -0.0182,-0.14552 -0.0479,-0.36761 -0.0661,-0.49352 -0.0524,-0.3625 -1.70982,-1.8275 -2.5311,-2.23721 l -0.74718,-0.37274 -0.18408,2.01475 c -0.10125,1.10812 -0.23502,2.37195 -0.29726,2.80851 -0.0622,0.43656 -0.16805,1.86531 -0.23513,3.175 -0.0671,1.30969 -0.19574,3.15515 -0.28592,4.10104 -0.31983,3.35483 -0.23735,6.35 0.17486,6.35 0.16109,0 0.22993,-0.16409 0.15297,-0.36463 -0.077,-0.20055 -0.006,-0.49821 0.1569,-0.66146 0.16325,-0.16326 0.2199,-0.29683 0.12588,-0.29683 -0.094,0 0.0129,-0.61914 0.23764,-1.37586 0.2912,-0.98058 0.42931,-2.82394 0.48072,-6.41615 0.0397,-2.77215 0.15979,-5.24864 0.26692,-5.5033 0.10713,-0.25466 0.39217,-0.46302 0.63344,-0.46302 0.38931,0 0.44477,0.51007 0.49297,4.53413 0.0299,2.49376 0.10957,4.58938 0.1771,4.65691 0.0675,0.0675 0.25427,-0.36548 0.41496,-0.96225 0.16681,-0.61947 0.45232,-1.08504 0.66541,-1.08504 0.30227,0 0.36316,0.56587 0.32025,2.97656 -0.039,2.19188 -0.1401,2.96959 -0.38344,2.95011 -0.18174,-0.0146 -0.46499,-0.0443 -0.62944,-0.0661 -0.19756,-0.0262 -0.251,-0.46548 -0.15752,-1.29484 0.0799,-0.70892 0.0132,-1.48615 -0.1533,-1.78594 -0.24991,-0.45 -0.34041,-0.22877 -0.59464,1.45359 -0.16492,1.09141 -0.49968,2.91425 -0.74391,4.05077 -0.41909,1.95026 -0.41822,2.11011 0.0154,2.84427 0.25273,0.42783 0.52898,0.77788 0.61389,0.77788 0.0849,0 0.30508,-0.41672 0.48925,-0.92604 0.32332,-0.89412 0.89162,-1.20355 1.22367,-0.66628 0.0883,0.14287 -0.0795,1.0658 -0.37289,2.05094 -0.46984,1.57764 -0.7311,2.66585 -0.79509,3.31169 -0.0108,0.10914 -0.19826,0.19844 -0.41654,0.19844 -0.42988,0 -0.43824,-0.0333 -0.49255,-1.96186 -0.0219,-0.77633 -0.1699,-1.34502 -0.36734,-1.41111 -0.35845,-0.11999 -0.43147,0.50884 -0.38399,3.30682 0.0218,1.28232 -0.0582,1.65365 -0.35621,1.65365 -0.21626,0 -0.38428,0.24754 -0.38428,0.56614 0,0.59412 -0.67365,1.26322 -1.28622,1.27753 -0.27283,0.006 -0.31596,-0.23219 -0.17785,-0.98377 0.10028,-0.54571 0.29212,-1.1053 0.42632,-1.24355 0.35589,-0.36662 0.28352,-1.26172 -0.14809,-1.83168 -0.35959,-0.47485 -0.38036,-0.46932 -0.4974,0.13229 -0.0672,0.34531 -0.12248,0.86596 -0.12291,1.157 -0.001,0.90833 -0.58948,2.8878 -0.92057,3.09829 -0.22502,0.14306 -0.20174,0.20338 0.0809,0.20952 0.56363,0.0123 1.55326,1.5285 1.39432,2.13629 -0.19418,0.74251 -0.76804,0.62277 -1.29561,-0.27034 -0.4859,-0.82256 -0.89246,-0.83676 -0.89246,-0.0312 0,0.26464 -0.17151,0.6235 -0.38115,0.79748 -0.20963,0.17398 -0.32057,0.47417 -0.24654,0.66709 0.074,0.19293 0.007,0.42937 -0.14802,0.52544 -0.15544,0.0961 -0.28262,0.46904 -0.28262,0.82882 0,0.35978 -0.17775,0.72235 -0.39499,0.80572 -0.26033,0.0999 -0.34339,0.35718 -0.24364,0.75462 0.0832,0.33168 0.0325,1.03364 -0.11285,1.55992 -0.20506,0.74268 -0.18754,0.95686 0.0783,0.95686 0.18836,0 0.70882,0.0733 1.15659,0.16282 0.73059,0.14612 0.83357,0.0853 1.00374,-0.59269 0.39355,-1.56801 1.58782,-2.00949 1.34225,-0.49617 -0.18393,1.13339 0.19125,1.22038 0.57056,0.13229 0.15426,-0.44251 0.46684,-0.79375 0.70638,-0.79375 0.36946,0 0.40215,0.21319 0.23328,1.52135 -0.28329,2.19444 -0.22842,2.43687 0.73985,3.26883 1.02549,0.88112 0.77819,1.22505 -0.8975,1.24817 -0.57514,0.008 -1.21858,0.15791 -1.42988,0.33327 -0.33373,0.27698 -0.32581,0.38333 0.0604,0.81007 0.49846,0.5508 1.4255,0.64535 1.87918,0.19166 0.22303,-0.22302 0.5032,-0.13853 1.09662,0.33073 1.31142,1.03705 1.08537,1.37287 -0.82732,1.22909 -0.90951,-0.0684 -1.84682,-0.20821 -2.08291,-0.31076 -0.84822,-0.36842 -0.22571,1.02907 0.7594,1.7048 1.05435,0.72323 0.95655,0.70096 3.85938,0.87912 1.14007,0.07 2.14502,0.19939 2.23321,0.28758 0.0882,0.0882 -0.0454,0.36588 -0.29678,0.61708 -0.74358,0.74292 -3.37886,0.55833 -5.3322,-0.37348 -1.09953,-0.52452 -1.5762,-0.89963 -1.55075,-1.22032 0.0231,-0.29053 -0.14944,-0.46302 -0.46302,-0.46302 -0.39314,0 -0.49977,-0.19424 -0.49977,-0.91043 0,-0.50073 -0.10362,-0.97447 -0.23027,-1.05274 -0.12664,-0.0783 -0.28657,-1.11504 -0.35539,-2.30394 -0.13652,-2.35818 -0.52188,-2.97392 -1.766,-2.82171 -0.57911,0.0708 -0.63354,0.20047 -0.64653,1.53963 -0.008,0.80425 0.0573,1.64848 0.14461,1.87608 0.0873,0.22759 0.0575,0.57761 -0.0662,0.77781 -0.13455,0.2177 -0.0986,0.51622 0.0893,0.74269 0.17285,0.20827 0.32323,1.07547 0.33419,1.9271 0.0166,1.29258 -0.0549,1.54842 -0.43276,1.54842 -0.32536,0 -0.48642,-0.27904 -0.57268,-0.99218 -0.066,-0.54571 -0.0195,-1.03188 0.10334,-1.08039 0.4632,-0.18289 0.22655,-0.82243 -0.23966,-0.64771 -0.38825,0.1455 -0.40999,0.10819 -0.13459,-0.23109 0.18064,-0.22253 0.25363,-0.47941 0.16221,-0.57083 -0.14633,-0.14633 -0.3915,-1.70353 -0.38274,-2.43092 0.02,-1.65861 0.14751,-2.82299 0.32093,-2.93017 0.11682,-0.0722 0.0945,-0.44132 -0.0496,-0.82027 -0.20577,-0.54123 -0.14483,-0.91369 0.28417,-1.73675 0.3051,-0.58535 0.47583,-1.26921 0.38685,-1.54956 -0.17372,-0.54735 0.34183,-2.32895 0.7966,-2.75284 0.15612,-0.14552 0.27783,-0.5027 0.27046,-0.79375 -0.007,-0.29104 0.12576,-0.82682 0.29585,-1.19062 0.38271,-0.81856 0.44067,-3.62611 0.0795,-3.84935 -0.14589,-0.0902 -0.19952,-0.37103 -0.11918,-0.62415 0.17165,-0.54083 -0.56212,-2.14108 -0.98177,-2.14108 -0.15912,0 -0.21753,0.0718 -0.12981,0.15949 0.0877,0.0877 0.0622,0.41542 -0.0567,0.7282 -0.11892,0.31279 -0.29602,1.4614 -0.39356,2.55248 -0.0975,1.09108 -0.23966,2.23569 -0.31582,2.54357 -0.0762,0.30788 -0.003,1.06404 0.16326,1.68035 0.32114,1.19261 0.28505,1.33707 -0.35756,1.43139 -0.22464,0.033 -0.63755,0.2673 -0.9176,0.52074 -0.46378,0.41972 -0.52385,0.42252 -0.67391,0.0315 -0.0906,-0.23612 -0.0893,-0.9013 0.003,-1.47817 0.12976,-0.81147 0.0271,-1.32225 -0.45361,-2.25689 -0.34172,-0.66443 -0.65004,-1.10572 -0.68516,-0.98065 -0.0351,0.12507 -0.18201,1.11573 -0.32644,2.20147 -0.19272,1.44883 -0.18096,2.07242 0.0442,2.34373 0.23893,0.28791 0.20467,0.44435 -0.15494,0.7073 -0.25395,0.18569 -0.50825,0.70524 -0.56511,1.15456 -0.13417,1.06013 -0.33999,1.37061 -0.79328,1.19666 -0.47336,-0.18164 -0.7312,-0.85429 -0.47863,-1.24863 0.32042,-0.50027 0.32725,-2.62916 0.0111,-3.44377 l -0.29332,-0.75566 -0.28701,0.88473 c -0.29367,0.9053 -1.12046,1.33679 -1.47189,0.76816 -0.10449,-0.16905 0.0262,-1.08688 0.29037,-2.03961 0.42589,-1.5359 0.43786,-1.83391 0.10561,-2.62908 -0.40248,-0.96328 -1.07391,-1.18795 -1.29642,-0.43381 -0.21682,0.73488 -0.009,3.53786 0.34758,4.69635 0.55233,1.79259 0.63488,2.51354 0.2878,2.51354 -0.17566,0 -0.38131,-0.23678 -0.45699,-0.52619 -0.0757,-0.2894 -0.2349,-0.46605 -0.35382,-0.39256 -0.11892,0.0735 -0.2922,0.0107 -0.38508,-0.13958 -0.25797,-0.41742 -0.66061,-0.0411 -0.47462,0.44361 0.0932,0.24279 -0.0144,0.55689 -0.24956,0.72886 -0.36002,0.26326 -0.36966,0.47145 -0.0748,1.61539 0.18617,0.72225 0.28267,1.40826 0.21445,1.52447 -0.15693,0.26734 -0.86912,-0.30771 -0.87524,-0.70671 -0.003,-0.16408 -0.30017,-0.57872 -0.66145,-0.92141 l -0.65689,-0.62308 -0.008,0.75537 c -0.009,0.79831 -0.52603,1.68142 -0.98463,1.68142 -0.56353,0 -0.6238,-1.08644 -0.13211,-2.38125 0.33757,-0.88892 0.34466,-1.92235 0.0183,-2.65972 -0.31622,-0.71438 -0.87183,-0.94188 -0.88154,-0.36094 -0.002,0.13339 -0.1032,0.39888 -0.22438,0.58998 -0.12119,0.1911 -0.24382,0.80438 -0.27253,1.36285 -0.0287,0.55847 -0.22539,1.22515 -0.43707,1.48151 -0.29553,0.3579 -0.3081,0.49196 -0.0542,0.57743 0.1819,0.0612 0.33073,0.31303 0.33073,0.55956 0,0.24654 0.18204,0.70816 0.40454,1.02582 0.25573,0.3651 0.34137,0.82926 0.23282,1.26176 -0.15688,0.62508 -0.21058,0.64902 -0.62152,0.27713 -0.40935,-0.37046 -0.50082,-0.34364 -1.01727,0.2982 -0.46397,0.57662 -0.59652,0.62956 -0.72673,0.29023 -0.0876,-0.22826 -0.0303,-0.89381 0.12724,-1.479 0.23682,-0.87947 0.20257,-1.27767 -0.19748,-2.29611 -0.43392,-1.10468 -0.93699,-1.50321 -1.0053,-0.79641 -0.0141,0.14552 -0.11391,0.46724 -0.22188,0.71493 -0.10798,0.2477 -0.12429,0.56689 -0.0363,0.70932 0.088,0.14244 0.0391,0.33376 -0.10885,0.42516 -0.50623,0.31287 -0.30723,2.13516 0.29197,2.67364 0.30847,0.27722 0.94338,1.10026 1.4109,1.82898 0.56679,0.88344 1.21559,1.5006 1.94702,1.85208 1.47798,0.71023 1.86462,1.73113 0.98772,2.60804 -0.68552,0.68551 -0.89591,2.14141 -0.89225,6.17418 0.002,2.70768 -0.30848,3.37122 -1.03478,2.20823 z m -15.679475,-8.59561 c 0,-0.0642 -0.11906,-0.19026 -0.26458,-0.2802 -0.14552,-0.0899 -0.26458,-0.0374 -0.26458,0.11668 0,0.1541 0.11906,0.28019 0.26458,0.28019 0.14552,0 0.26458,-0.0525 0.26458,-0.11667 z m 4.08934,-4.27536 c 0.0615,-1.14964 0.12474,-2.09026 0.14046,-2.09026 0.0157,0 0.08,-0.58107 0.14293,-1.29127 0.0742,-0.83796 -0.0224,-1.53458 -0.27529,-1.98437 -0.21431,-0.38121 -0.51442,-1.04115 -0.66692,-1.46654 -0.25957,-0.72405 -0.30561,-0.74507 -0.72138,-0.3293 -0.24427,0.24426 -0.47031,0.8534 -0.50231,1.35364 -0.032,0.50024 -0.23892,1.18537 -0.45981,1.5225 -0.25966,0.39628 -0.31821,0.74795 -0.16564,0.99482 0.1298,0.21002 0.17046,0.70956 0.0904,1.1101 -0.0956,0.47788 0.002,0.8761 0.28437,1.15827 0.23651,0.23651 0.36236,0.53948 0.27968,0.67327 -0.0827,0.13379 -0.0326,0.24326 0.1113,0.24326 0.1439,0 0.52879,0.53494 0.85533,1.18875 0.32653,0.65382 0.6345,1.14795 0.68437,1.09808 0.0499,-0.0499 0.14103,-1.0313 0.20256,-2.18095 z m 31.364825,-2.27547 c 0,-1.63542 -0.48545,-1.44219 -0.71718,0.28547 -0.1196,0.89169 -0.0676,1.09037 0.28547,1.09037 0.34388,0 0.43171,-0.27992 0.43171,-1.37584 z m -27.824648,0.11907 c -0.0239,-0.10914 0.0344,-0.4961 0.12954,-0.8599 0.0951,-0.3638 0.22393,-0.97844 0.28625,-1.36586 0.0623,-0.38741 0.24216,-0.94513 0.39963,-1.23937 0.43325,-0.80954 0.3574,-1.17898 -0.50262,-2.44818 -0.43392,-0.64037 -0.7911,-1.42516 -0.79375,-1.744 -0.003,-0.31883 -0.12388,-0.65328 -0.2694,-0.74322 -0.22065,-0.13636 -0.29472,0.16683 -0.25922,1.06111 0.003,0.0743 -0.1588,0.46124 -0.35944,0.8599 -0.342607,0.68073 -0.502737,1.7866 -0.526377,3.63524 -0.01,0.78275 1.259617,3.04271 1.709367,3.04271 0.12618,0 0.20989,-0.0893 0.18602,-0.19843 z m 4.528248,-4.95472 c 0.3148,-2.65629 0.30537,-2.80932 -0.22609,-3.66925 -0.30503,-0.49354 -0.55459,-1.11815 -0.55459,-1.38801 0,-0.86348 -0.826,0.57471 -0.85183,1.48317 -0.0124,0.43436 -0.12206,0.78974 -0.24381,0.78974 -0.12174,0 -0.21182,0.26789 -0.20017,0.59532 0.0117,0.32742 -0.0413,0.98857 -0.11777,1.46923 -0.10312,0.64863 0.0271,1.11855 0.50503,1.82286 0.35418,0.52191 0.64396,1.11092 0.64396,1.30889 0,0.19797 0.16127,0.35995 0.35838,0.35995 0.25774,0 0.45063,-0.77839 0.68689,-2.7719 z m -7.072185,-2.19227 c 0.51734,-0.62541 0.82468,-4.55967 0.39014,-4.99416 -0.31991,-0.31988 -0.70459,0.45337 -0.70917,1.42552 -0.002,0.47294 -0.094,0.8599 -0.20404,0.8599 -0.11,0 -0.36331,0.36893 -0.5629,0.81985 -0.29707,0.67112 -0.30313,1.01913 -0.0334,1.91823 0.55073,1.83576 0.6252,1.94663 0.73777,1.09837 0.0579,-0.43656 0.22965,-0.94403 0.38159,-1.12771 z m 10.651945,-1.59662 c 0.12753,-1.32311 0.0804,-2.0408 -0.16287,-2.47932 -0.38734,-0.69826 -0.41443,-0.79167 -0.46033,-1.58732 -0.0364,-0.63021 -0.34985,-0.46995 -0.48943,0.2502 -0.0968,0.49946 -0.35988,4.03185 -0.37876,5.08557 -0.007,0.3638 0.12844,1.01864 0.29989,1.4552 l 0.31173,0.79375 0.35013,-0.82797 c 0.19258,-0.45538 0.43091,-1.66593 0.52964,-2.69011 z m 4.35265,2.5259 c -0.007,-0.32742 0.0573,-1.25016 0.14221,-2.05052 0.0849,-0.80037 0.0372,-1.63281 -0.10608,-1.84988 -0.76796,-1.16337 -1.33957,2.04257 -0.65463,3.67156 0.4087,0.97201 0.63549,1.05592 0.6185,0.22884 z m -10.55246,-1.71979 c 0.19922,-0.40019 0.36868,-0.86803 0.37657,-1.03966 0.008,-0.17163 0.0945,-0.39224 0.19251,-0.49023 0.098,-0.098 0.0667,-0.47138 -0.0696,-0.82975 -0.14278,-0.37552 -0.15051,-0.8404 -0.0183,-1.09727 0.12621,-0.24513 0.37787,-1.27914 0.55924,-2.29778 0.18137,-1.01865 0.49352,-2.11377 0.69367,-2.4336 0.20014,-0.31983 0.27137,-0.6387 0.15827,-0.7086 -0.26831,-0.16582 -2.351948,1.43705 -2.536918,1.95157 -0.0785,0.21828 -0.39324,0.70401 -0.69949,1.07939 -0.66766,0.81838 -1.22101,2.96465 -0.80048,3.10483 0.15381,0.0513 0.27965,0.32142 0.27965,0.60033 0,0.29139 0.18261,0.50712 0.42927,0.50712 0.34549,0 0.36697,0.0751 0.11008,0.3846 -0.25331,0.30522 -0.22091,0.55096 0.15694,1.19062 0.58478,0.98995 0.7105,0.99839 1.168508,0.0784 z m 3.64384,-2.65341 c -0.0308,-0.40435 0.0342,-0.88117 0.14449,-1.05962 0.17206,-0.27838 0.37707,-1.72518 0.82358,-5.81197 0.0517,-0.47295 0.048,-0.8599 -0.008,-0.8599 -0.0562,0 -0.58887,0.25368 -1.18371,0.56372 -0.81649,0.42558 -1.03385,0.66873 -0.88697,0.99219 0.10701,0.23566 0.16682,0.78565 0.13292,1.22221 -0.20379,2.62409 -0.12253,3.76681 0.33397,4.69636 0.5815,1.18407 0.71876,1.23885 0.64395,0.25701 z m 4.89168,0.22478 c -0.0734,-0.28072 -0.005,-1.11001 0.15229,-1.84287 0.30077,-1.40242 0.16717,-2.23341 -0.33261,-2.06886 -0.37711,0.12417 -0.67473,3.03344 -0.39148,3.82681 0.259,0.72541 0.7587,0.79962 0.5718,0.0849 z m 8.12609,-1.16263 c -0.004,-0.75333 0.0148,-1.60781 0.0411,-1.89885 0.10793,-1.19769 -0.055,-2.02566 -0.37739,-1.91737 -0.2001,0.0672 -0.33977,0.62457 -0.35362,1.41112 -0.0126,0.715 -0.1171,1.6366 -0.23224,2.04799 -0.22258,0.79529 0.27587,2.13031 0.69798,1.86943 0.12694,-0.0785 0.22783,-0.759 0.22419,-1.51232 z m 2.81064,-0.0429 c -0.083,-0.21616 0.0675,-1.07936 0.33437,-1.91822 0.64572,-2.02983 0.83396,-5.56438 0.41589,-7.80906 -0.15124,-0.81208 -0.10749,-0.99219 0.24103,-0.99219 0.23421,0 0.4394,-0.20836 0.45599,-0.46302 0.0166,-0.25466 0.0718,-0.82021 0.12258,-1.25677 0.0508,-0.43656 -0.13518,-1.27 -0.41334,-1.85209 -0.27816,-0.58208 -0.63431,-1.40226 -0.79144,-1.82263 -0.15713,-0.42036 -0.32923,-0.71802 -0.38245,-0.66146 -0.21012,0.22332 -0.39246,4.46847 -0.19193,4.46847 0.11774,0 0.35019,0.26789 0.51655,0.59531 0.33634,0.66199 0.0839,2.35597 -0.34534,2.31781 -0.14552,-0.0129 -0.32793,0.36811 -0.40534,0.84678 -0.0774,0.47867 -0.25601,0.85175 -0.39688,0.82906 -0.1438,-0.0231 -0.279,0.89444 -0.30831,2.09243 -0.0313,1.27904 -0.17507,2.20962 -0.35897,2.32328 -0.22166,0.13699 -0.22553,0.23982 -0.014,0.37058 0.16106,0.0995 0.29283,0.46757 0.29283,0.81785 0,0.76136 0.79074,2.5069 1.13565,2.5069 0.13414,0 0.17602,-0.17686 0.0931,-0.39303 z m -7.86327,-3.73079 c 0.14953,-1.73938 0.13361,-2.73663 -0.0473,-2.96018 -0.15002,-0.18542 -0.20045,-0.40943 -0.11207,-0.49781 0.0884,-0.0884 0.0179,-0.41292 -0.15651,-0.72121 -0.27856,-0.49227 -0.34258,-0.335 -0.52572,1.29156 -0.11469,1.01865 -0.21256,2.07022 -0.21748,2.33683 -0.005,0.26661 -0.1129,0.75818 -0.23996,1.09238 -0.15976,0.42019 -0.11289,0.7763 0.15193,1.15439 0.21063,0.30071 0.36669,0.64258 0.34679,0.7597 -0.0867,0.51037 0.0423,0.69984 0.30064,0.44152 0.15077,-0.15077 0.37561,-1.45451 0.49964,-2.89718 z m 1.60747,1.47799 c 0,-0.14552 -0.12609,-0.26459 -0.2802,-0.26459 -0.15411,0 -0.20661,0.11907 -0.11668,0.26459 0.0899,0.14552 0.21603,0.26458 0.2802,0.26458 0.0642,0 0.11668,-0.11906 0.11668,-0.26458 z m 1.89223,-2.18282 c -0.004,-0.56902 0.12136,-0.99218 0.29394,-0.99218 0.21562,0 0.21091,-0.09 -0.0166,-0.3175 -0.17462,-0.17463 -0.32128,-0.62111 -0.32591,-0.99219 -0.005,-0.37108 -0.18322,-0.9058 -0.39688,-1.18828 -0.21365,-0.28247 -0.38846,-0.71438 -0.38846,-0.95979 0,-0.24541 -0.16095,-0.57978 -0.35767,-0.74304 -0.59181,-0.49116 -0.79391,3.52352 -0.26728,5.30929 0.55265,1.87397 0.91565,2.31523 1.22939,1.49445 0.13005,-0.34021 0.23331,-1.06505 0.22946,-1.61076 z m -8.12526,-1.12448 c -0.10477,-2.97947 -0.10438,-2.97769 -0.69023,-3.1309 -0.46192,-0.12079 -0.67687,0.33738 -0.32388,0.69036 0.0887,0.0887 0.19584,1.23175 0.23819,2.54021 0.0794,2.45226 0.29842,3.32574 0.66362,2.64629 0.10782,-0.20059 0.15835,-1.43627 0.1123,-2.74596 z m 16.77676,0.49858 c 0.0254,-0.67168 0.10592,-1.31786 0.17892,-1.43598 0.073,-0.11811 -0.34418,-1.20568 -0.92706,-2.4168 -0.90785,-1.88634 -1.06542,-2.08825 -1.0991,-1.4083 -0.11509,2.32335 -0.0136,3.0112 0.64788,4.39116 0.39039,0.81441 0.7098,1.61808 0.7098,1.78594 0,0.16786 0.0998,0.3052 0.22168,0.3052 0.12193,0 0.24247,-0.54955 0.26788,-1.22122 z m -13.54192,-7.28534 c -0.26838,-0.18096 -0.98079,0.32741 -0.82404,0.58803 0.05,0.0832 -0.0809,0.48254 -0.29095,0.88743 -0.21006,0.40489 -0.316,0.84284 -0.23543,0.97322 0.0806,0.13037 0.0553,0.38464 -0.0562,0.56505 -0.42463,0.68705 -0.35565,2.93987 0.10562,3.44956 0.42302,0.46743 0.47479,0.31753 1.00123,-2.8991 0.3468,-2.11896 0.45931,-3.45663 0.29978,-3.56419 z m 16.46181,6.58833 c -0.0293,-0.1819 0.0329,-0.52657 0.13832,-0.76593 0.27704,-0.62908 0.0779,-2.41667 -0.28242,-2.53489 -0.28911,-0.0949 -0.62172,2.71553 -0.39903,3.37168 0.12901,0.38015 0.60582,0.31794 0.54313,-0.0709 z m -9.39126,-0.31006 c -0.0794,-0.20691 -0.0168,-0.61461 0.13918,-0.906 0.57294,-1.07054 0.4059,-4.72147 -0.27732,-6.06157 l -0.47777,-0.93712 -0.26647,0.70086 c -0.15693,0.41277 -0.1737,0.94558 -0.0408,1.29618 0.23821,0.62837 0.12938,4.84388 -0.13614,5.2735 -0.0856,0.1385 0.0647,0.4187 0.33389,0.62267 0.63309,0.47963 0.90673,0.48396 0.72542,0.0115 z m -4.96887,-4.53022 c -0.0405,-0.66124 0.0256,-1.26358 0.14684,-1.33853 0.39793,-0.24593 0.23085,-1.35692 -0.29986,-1.99396 -0.2862,-0.34355 -0.53609,-0.5651 -0.55532,-0.49234 -0.12343,0.46719 -0.14285,2.55817 -0.0257,2.76694 0.0782,0.13936 0.17307,0.54297 0.21081,0.89691 0.17805,1.66999 0.62406,1.80722 0.52322,0.16098 z m 11.97775,-0.71597 c -0.0293,-1.49153 -0.49796,-3.63802 -0.79437,-3.63802 -0.0995,0 -0.3294,-0.38696 -0.51086,-0.8599 l -0.32992,-0.8599 -0.18555,1.19058 c -0.19247,1.23496 0.0135,2.3663 0.65653,3.60569 0.20603,0.39712 0.31091,0.82509 0.23307,0.95104 -0.16057,0.25981 0.37833,0.99957 0.72817,0.99957 0.1266,0 0.21792,-0.62508 0.20293,-1.38906 z m -9.04583,0.0486 c -0.07,-0.26786 0.0238,-0.69378 0.20863,-0.9465 0.22216,-0.30381 0.2637,-0.71155 0.12263,-1.20345 -0.11735,-0.40917 -0.16978,-1.30926 -0.11652,-2.0002 0.0542,-0.703 -0.0609,-1.60581 -0.26141,-2.05 -0.23226,-0.51458 -0.36582,-0.6309 -0.37975,-0.33072 -0.0118,0.25466 -0.15513,0.46302 -0.31847,0.46302 -0.21642,0 -0.21812,0.095 -0.006,0.35025 0.18971,0.22858 0.20067,0.44027 0.0316,0.60937 -0.14252,0.14252 -0.31903,0.96312 -0.39224,1.82355 -0.11565,1.35908 -0.028,1.96176 0.54989,3.78203 0.16916,0.53283 0.70691,0.0569 0.56197,-0.49735 z m 38.80172,-1.44906 c -0.0862,-0.22455 -0.21341,-0.35154 -0.28277,-0.28218 -0.0694,0.0693 -0.0476,0.25308 0.0483,0.40828 0.26089,0.42214 0.41338,0.34013 0.23447,-0.1261 z m -36.21062,-5.31668 c -0.0881,-1.6542 -0.30474,-3.09951 -0.52551,-3.50573 -0.44493,-0.81865 -0.46475,-0.69546 -0.39861,2.47696 0.0437,2.09573 0.47182,3.84332 0.94156,3.84332 0.0728,0 0.065,-1.26655 -0.0174,-2.81455 z m 3.59813,1.16091 c 0.10724,-1.57233 -0.17464,-3.48889 -0.73579,-5.00278 -0.72575,-1.95796 -1.14802,-2.3155 -1.12239,-0.95035 0.009,0.47294 0.005,1.43494 -0.009,2.13777 -0.0173,0.86443 0.19397,1.74185 0.65292,2.71198 0.64246,1.35806 1.16492,1.83265 1.21466,1.10338 z m -8.02832,-0.0903 c -0.0861,-0.0861 0.002,-0.68136 0.19459,-1.32291 0.19308,-0.64156 0.24364,-1.16646 0.11236,-1.16646 -0.13128,0 -0.23869,0.11906 -0.23869,0.26458 0,0.14552 -0.17057,0.26459 -0.37904,0.26459 -0.20848,0 -0.45226,0.23067 -0.54175,0.51261 -0.16974,0.53483 0.33949,1.60405 0.76395,1.60405 0.13477,0 0.17463,-0.0704 0.0886,-0.15646 z m 11.34551,-1.36489 c 0.0375,-0.3502 -0.0808,-0.59531 -0.28723,-0.59531 -0.26459,0 -0.29948,-0.22824 -0.14178,-0.92745 0.1166,-0.51701 0.10427,-0.99229 -0.0279,-1.07395 -0.13037,-0.0806 -0.23703,-0.41437 -0.23703,-0.74177 0,-0.3274 -0.16351,-0.81889 -0.36335,-1.09218 -0.35423,-0.48445 -0.36746,-0.48396 -0.52726,0.0195 -0.45774,1.44218 -0.45553,3.0793 0.005,3.77202 0.25792,0.38788 0.48018,0.8243 0.49392,0.96982 0.0137,0.14552 0.12522,0.48597 0.24772,0.75656 0.21713,0.47959 0.22968,0.47959 0.49841,0 0.15162,-0.27059 0.30435,-0.75987 0.3394,-1.08729 z m 18.0915,-0.18282 c 0,-0.0642 -0.11906,-0.19027 -0.26458,-0.2802 -0.14552,-0.0899 -0.26458,-0.0374 -0.26458,0.11667 0,0.15411 0.11906,0.2802 0.26458,0.2802 0.14552,0 0.26458,-0.0525 0.26458,-0.11667 z m -26.90929,-2.99218 c -0.212,-1.37386 -0.34279,-1.41592 -0.34279,-0.11024 0,0.60633 0.11158,1.10243 0.24795,1.10243 0.13735,0 0.17965,-0.44258 0.0948,-0.99219 z m 10.03815,-0.12366 c -0.27325,-0.56718 -0.29205,-0.54838 -0.30887,0.30887 -0.0136,0.69579 0.0555,0.83938 0.29096,0.60394 0.22838,-0.22837 0.23305,-0.46626 0.0179,-0.91281 z m 0.22366,-1.06697 c 0.0117,-0.1819 0.0123,-1.30635 0.001,-2.49878 -0.0109,-1.19244 0.0986,-2.24126 0.24332,-2.33072 0.14475,-0.0895 0.26319,-0.45329 0.26319,-0.80851 0,-0.35521 0.11906,-0.64584 0.26458,-0.64584 0.14552,0 0.26459,-0.17859 0.26459,-0.39688 0,-0.21828 -0.1786,-0.39687 -0.39688,-0.39687 -0.21828,0 -0.39687,-0.11906 -0.39687,-0.26458 0,-0.14552 -0.24759,-0.26459 -0.55019,-0.26459 -0.45947,0 -0.52594,0.11998 -0.40314,0.72761 0.29182,1.44388 0.40088,4.28263 0.17001,4.42532 -0.1378,0.0852 -0.13454,0.49975 0.008,0.99614 0.13412,0.46764 0.17685,1.06135 0.095,1.31935 -0.0819,0.25799 -0.0218,0.46908 0.13353,0.46908 0.15533,0 0.29198,-0.14883 0.30368,-0.33073 z m -10.34812,-2.44739 c 0,-0.95064 -0.0722,-1.21123 -0.25648,-0.92604 -0.14107,0.21828 -0.25648,0.99218 -0.25648,1.71979 0,0.95063 0.0722,1.21123 0.25648,0.92604 0.14106,-0.21828 0.25648,-0.99219 0.25648,-1.71979 z m 2.42358,-0.0253 c 0.0523,-3.44219 -0.0114,-4.07575 -0.41008,-4.07575 -0.64299,0 -0.8001,1.63128 -0.38222,3.96875 0.49974,2.79534 0.75094,2.82927 0.7923,0.107 z m 6.45765,-4.8695 c 0.21301,0 0.38729,-0.10616 0.38729,-0.2359 0,-0.27345 -1.31576,-0.65321 -1.52796,-0.44101 -0.30442,0.30443 -0.15776,3.51544 0.21219,4.64566 l 0.38973,1.19062 0.0757,-2.57969 c 0.0603,-2.05381 0.15468,-2.57968 0.46303,-2.57968 z m -63.154387,55.88492 c -0.02293,-0.25009 -0.02254,-0.63331 8.54e-4,-0.85159 0.02339,-0.21828 0.05503,-0.75406 0.07031,-1.19062 0.02748,-0.78536 1.226124,-3.58051 1.880632,-4.38551 0.186365,-0.22922 0.657137,-0.62388 1.04616,-0.87703 0.692899,-0.4509 0.704313,-0.4488 0.559998,0.10306 -0.08102,0.30984 -0.421897,0.74326 -0.757494,0.96315 -0.335598,0.21989 -0.551708,0.55217 -0.480246,0.7384 0.07146,0.18623 -0.156754,0.98684 -0.507148,1.77915 -0.350394,0.7923 -0.719418,1.98962 -0.820054,2.66071 -0.18075,1.20532 -0.908489,1.98236 -0.99301,1.06028 z m 17.686838,0.27289 c -0.304869,-0.53464 -0.458983,-2.45555 -0.474663,-5.91633 -0.01712,-3.77804 0.07228,-4.42208 1.281293,-9.23107 0.237803,-0.94588 0.417552,-1.92815 0.399443,-2.18281 -0.01811,-0.25466 0.08576,-0.46302 0.230828,-0.46302 0.145066,0 0.188515,-0.12174 0.09656,-0.27054 -0.09196,-0.14879 0.139138,-0.81863 0.513552,-1.48853 0.374413,-0.6699 0.683823,-1.41136 0.687577,-1.64769 0.0038,-0.23727 0.463006,-0.63978 1.025459,-0.8988 0.560249,-0.25801 1.389531,-0.82356 1.84285,-1.25677 0.45332,-0.43322 0.93774,-0.78767 1.07648,-0.78767 0.13875,0 0.70538,-0.41615 1.25918,-0.92478 0.5538,-0.50863 1.15574,-0.92534 1.33764,-0.92604 0.1819,-6.9e-4 0.33073,-0.12033 0.33073,-0.26585 0,-0.14552 0.12735,-0.26458 0.28299,-0.26458 0.55424,0 0.10147,1.15777 -0.61301,1.56751 -0.94064,0.53945 -2.05123,2.07406 -2.05123,2.83439 0,0.32722 -0.24049,1.00255 -0.53443,1.50073 -0.29394,0.49819 -0.45921,1.10183 -0.36728,1.34141 0.0919,0.23959 0.0245,0.60748 -0.1498,0.81753 -0.17433,0.21005 -0.242313,0.5027 -0.15108,0.65032 0.0912,0.14762 0.004,0.59932 -0.193333,1.00378 -0.197569,0.40445 -0.391215,1.21162 -0.430323,1.7937 -0.03911,0.58209 -0.243069,1.80659 -0.453246,2.72113 -0.369613,1.60829 -0.292274,3.88865 0.163456,4.8195 0.106867,0.21828 0.277709,0.85833 0.379649,1.42232 0.180835,1.00049 0.168802,1.02129 -0.494341,0.85486 -0.639791,-0.16058 -0.679697,-0.11206 -0.679873,0.82663 -1.64e-4,0.87631 -0.08016,1.00185 -0.659708,1.03528 -0.388188,0.0224 -0.590917,-0.073 -0.492767,-0.23177 0.307197,-0.49705 0.323539,-6.14487 0.01833,-6.33455 -0.197254,-0.12259 -0.168203,-0.32439 0.09301,-0.6461 0.208924,-0.25731 0.243509,-0.38613 0.07686,-0.28627 -0.328755,0.19699 -0.623036,-0.3509 -0.623036,-1.15996 0,-0.57079 0.52536,-0.67008 1.005416,-0.19002 0.246945,0.24694 0.3175,0.0779 0.3175,-0.76049 0,-0.59289 0.178594,-1.58417 0.396875,-2.20285 0.218282,-0.61867 0.396875,-1.48839 0.396875,-1.93271 0,-0.44431 0.111486,-1.17348 0.247747,-1.62038 0.460226,-1.5094 0.774357,-3.45717 0.588435,-3.64859 -0.314344,-0.32365 -1.894515,1.36396 -1.894515,2.02332 0,0.33861 -0.178594,0.76387 -0.396875,0.94503 -0.218281,0.18116 -0.400662,0.64222 -0.40529,1.02458 -0.0046,0.38237 -0.185657,0.92966 -0.402286,1.2162 -0.359074,0.47497 -0.921847,2.06605 -1.079112,3.05089 -0.03486,0.21828 -0.195963,1.05172 -0.358015,1.85208 -0.162051,0.80036 -0.352604,1.99099 -0.423451,2.64583 -0.164743,1.52273 -0.173008,7.49844 -0.01217,8.7974 0.08912,0.71975 0.0242,0.99219 -0.236443,0.99219 -0.197613,0 -0.410217,-0.0893 -0.472453,-0.19844 z M 207.5929,162.96685 c 0.13704,-0.35712 0.0731,-0.41737 -0.29359,-0.27666 -0.30716,0.11786 -0.7405,-0.0487 -1.25686,-0.48323 -0.43344,-0.36472 -0.91359,-0.66313 -1.067,-0.66313 -0.1534,0 -1.5217,-0.60693 -3.04067,-1.34875 -1.51896,-0.74181 -2.83316,-1.27733 -2.92045,-1.19005 -0.0873,0.0873 -0.34696,-0.008 -0.57705,-0.21115 -0.44918,-0.39713 -2.69955,-1.2188 -3.33801,-1.2188 -0.21319,0 -0.38763,-0.10517 -0.38763,-0.23372 0,-0.35734 2.75759,-0.12475 3.75085,0.31637 0.48365,0.21479 1.4513,0.61149 2.15033,0.88155 0.69903,0.27005 1.50835,0.70927 1.79848,0.97602 0.42056,0.38668 0.60543,0.42034 0.91184,0.16604 0.30991,-0.2572 0.38434,-0.23359 0.38434,0.1219 0,0.24248 0.14882,0.42155 0.33073,0.39793 0.70202,-0.0912 0.99218,0.0352 0.99218,0.43224 0,0.22687 0.1166,0.34042 0.25912,0.25234 0.3197,-0.19758 1.09647,0.20383 1.98135,1.02392 0.70898,0.65706 0.83861,1.0862 0.4084,1.35208 -0.15565,0.0962 -0.19061,-0.0232 -0.0864,-0.2949 z m -95.05934,-0.40464 c -0.79711,-0.38657 -1.57791,-2.24144 -1.15701,-2.7486 0.25798,-0.31084 0.2398,-0.38644 -0.0929,-0.38644 -0.22751,0 -0.48724,0.11906 -0.57718,0.26458 -0.35541,0.57507 -0.92604,0.2571 -0.92604,-0.51602 0,-0.42933 -0.15481,-0.87582 -0.34402,-0.99219 -0.31956,-0.19653 -0.97889,-2.00817 -0.97889,-2.68967 0,-0.16502 0.23812,-0.30004 0.52916,-0.30004 0.29104,0 0.52917,0.14288 0.52917,0.3175 0,0.22244 0.0835,0.23403 0.27876,0.0387 0.15332,-0.15332 0.33641,-1.27846 0.40687,-2.50031 0.0705,-1.22185 0.30627,-2.68061 0.52402,-3.24167 0.37527,-0.96693 0.9535,-1.75801 1.28499,-1.75801 0.29639,0 0.14433,0.82285 -0.26849,1.45289 -0.23082,0.35228 -0.3529,0.74856 -0.27129,0.88061 0.0816,0.13206 -0.0215,1.06003 -0.22906,2.06216 -0.2076,1.00213 -0.33935,2.34211 -0.29278,2.97773 0.0466,0.63563 -0.003,1.54245 -0.10917,2.01516 -0.2312,1.02512 0.0955,1.72395 0.80596,1.72395 0.33963,0 0.51602,0.18089 0.51602,0.52917 0,0.29398 0.17639,0.52917 0.39688,0.52917 0.21828,0 0.39687,0.16996 0.39687,0.3777 0,0.20773 0.37307,0.66966 0.82903,1.02651 0.46721,0.36564 0.74908,0.77817 0.64585,0.94522 -0.22286,0.36059 -1.14454,0.35663 -1.89671,-0.008 z m 19.20725,-0.42079 c -1.53259,-0.10571 -3.70417,-0.61933 -3.70417,-0.8761 0,-0.13232 -0.29765,-0.31528 -0.66146,-0.40659 -0.3638,-0.0913 -0.66145,-0.28589 -0.66145,-0.4324 0,-0.29738 2.36451,-0.083 4.10104,0.37182 0.60909,0.15953 1.93371,0.20512 3.12058,0.10739 1.63872,-0.13492 2.14294,-0.0891 2.45513,0.22308 0.34745,0.34745 0.32315,0.43817 -0.21017,0.78456 -0.56367,0.36612 -1.63906,0.4214 -4.4395,0.22824 z m -56.772351,-0.97688 c -0.09533,-0.37982 -0.08813,-1.55119 0.016,-2.60304 0.104131,-1.05185 0.221489,-2.46388 0.260796,-3.13784 0.066,-1.13154 0.521012,-3.52588 0.848175,-4.46316 0.07619,-0.21828 0.186349,-0.87313 0.244795,-1.45521 0.373156,-3.71641 0.694961,-4.61536 1.656065,-4.62616 0.432452,-0.005 0.197893,2.08618 -0.355306,3.16747 -0.187106,0.36572 -0.490561,1.94486 -0.674345,3.50921 -0.183784,1.56435 -0.406126,2.84452 -0.494094,2.84482 -0.08797,2.9e-4 -0.199006,0.80269 -0.24675,1.78309 -0.04775,0.9804 -0.209284,1.85824 -0.358977,1.95076 -0.179201,0.11075 -0.16482,0.23455 0.0421,0.36244 0.199596,0.12335 0.244545,0.44919 0.123187,0.89297 -0.105096,0.3843 -0.176651,0.95402 -0.159012,1.26603 0.01764,0.31202 -0.139241,0.70948 -0.348621,0.88325 -0.311282,0.25834 -0.412293,0.19004 -0.554016,-0.37463 z m 8.039412,-0.5952 c 0.190996,-0.0764 0.419199,-0.067 0.507118,0.0209 0.08792,0.0879 -0.06835,0.15045 -0.347265,0.13897 -0.308225,-0.0127 -0.37092,-0.0754 -0.159853,-0.15986 z m 31.033689,-1.50551 c -0.16585,-0.19984 -0.23312,-0.54166 -0.14948,-0.75961 0.0836,-0.21795 -0.0105,-0.45866 -0.20924,-0.53491 -0.44746,-0.17171 -0.59096,-6.20337 -0.15994,-6.72271 0.14949,-0.18013 0.19876,-0.44567 0.1095,-0.5901 -0.21399,-0.34624 0.34544,-2.60951 0.87275,-3.5309 0.22903,-0.40018 0.56934,-0.7276 0.75625,-0.7276 0.45967,0 0.43048,1.07574 -0.0477,1.75846 -0.21314,0.3043 -0.30589,0.63492 -0.2061,0.73471 0.0998,0.0998 0.0254,0.27788 -0.16534,0.39576 -0.2596,0.16044 -0.34849,1.17695 -0.35359,4.04339 -0.004,2.106 0.0734,4.1944 0.17149,4.6409 0.10656,0.48517 0.0639,0.88254 -0.10608,0.98758 -0.15642,0.0967 -0.21589,0.2866 -0.13217,0.42207 0.2329,0.37684 -0.0402,0.2928 -0.38034,-0.11704 z m 41.55116,-0.0327 c 0.0617,-0.31396 0.51685,-0.57974 1.358,-0.79306 0.69582,-0.17646 1.31034,-0.24768 1.36561,-0.15827 0.25139,0.40677 -0.66077,1.07883 -1.68696,1.24293 -0.99379,0.15891 -1.11837,0.12387 -1.03665,-0.2916 z m -38.00363,-0.99303 c -0.51498,-2.89834 -0.58311,-10.11048 -0.101,-10.69138 0.16203,-0.19524 0.20591,-0.35497 0.0975,-0.35497 -0.1084,0 -0.0489,-0.17859 0.13229,-0.39688 0.58257,-0.70194 0.7105,-0.43208 0.59582,1.25678 -0.0618,0.9095 -0.10113,2.33825 -0.0875,3.175 0.0209,1.28145 -0.0485,1.52268 -0.4402,1.52976 -0.41687,0.008 -0.42196,0.0418 -0.0492,0.33073 0.77869,0.60355 1.37103,5.03918 0.70863,5.30646 -0.19758,0.0797 -0.14432,0.14187 0.13229,0.15435 0.72012,0.0325 0.54468,0.55005 -0.18645,0.55005 -0.52501,0 -0.67875,-0.16479 -0.80225,-0.8599 z m -39.915497,0.1323 c -0.38985,-1.41154 -0.428297,-2.88726 -0.08737,-3.3535 0.637556,-0.87191 0.97334,-0.23447 0.97334,1.84776 0,1.53246 -0.084,1.96876 -0.379045,1.96876 -0.208475,0 -0.436592,-0.20836 -0.506926,-0.46302 z m 74.764037,-0.26686 c -0.48349,-0.16117 -0.3909,-0.80165 0.13912,-0.96237 0.94035,-0.28515 2.71198,-0.10993 2.71198,0.26823 0,0.20113 -0.0893,0.37087 -0.19844,0.37721 -0.10914,0.006 -0.67776,0.10453 -1.2636,0.21821 -0.58584,0.11367 -1.21092,0.1581 -1.38906,0.0987 z m 37.73889,-1.96293 c -0.97483,-1.23083 -2.11756,-1.79834 -3.27009,-1.62401 -0.43656,0.066 -1.32953,-0.0126 -1.98437,-0.17469 -0.65484,-0.16211 -2.14313,-0.51144 -3.30729,-0.77629 -1.16417,-0.26485 -2.47386,-0.63526 -2.91042,-0.82313 -0.43656,-0.18787 -0.91281,-0.35959 -1.05833,-0.3816 -0.14552,-0.022 -0.47598,-0.1364 -0.73436,-0.25422 -0.36176,-0.16496 -0.401,-0.29709 -0.17065,-0.57463 0.21357,-0.25735 0.43753,-0.28634 0.7831,-0.1014 0.2662,0.14247 0.83914,0.25903 1.2732,0.25903 0.43407,0 1.34474,0.23812 2.02371,0.52916 0.67897,0.29104 1.56684,0.52917 1.97304,0.52917 0.40621,0 1.22995,0.17337 1.83054,0.38528 0.6006,0.2119 1.65736,0.4511 2.34837,0.53156 1.79671,0.20921 2.85419,0.55149 2.77774,0.89909 -0.0364,0.16541 0.11813,0.30074 0.34336,0.30074 0.47688,0 1.70716,1.24682 1.70716,1.73012 0,0.80139 -0.80951,0.5751 -1.62471,-0.45418 z m -40.97321,-0.48219 c 0,-0.14552 0.11906,-0.26459 0.26458,-0.26459 0.14552,0 0.26459,0.11907 0.26459,0.26459 0,0.14552 -0.11907,0.26458 -0.26459,0.26458 -0.14552,0 -0.26458,-0.11906 -0.26458,-0.26458 z m 2.38125,-0.90715 c 0,-0.21502 0.83211,-0.94494 1.07723,-0.94494 0.4129,0 0.273,0.72666 -0.17283,0.89774 -0.48804,0.18728 -0.9044,0.20901 -0.9044,0.0472 z m -7.08465,-0.70916 c 0.0705,-0.20244 0.34118,-0.32916 0.60163,-0.2816 0.26045,0.0476 0.56905,-0.0681 0.68577,-0.25692 0.11673,-0.18887 0.30006,-0.25556 0.40741,-0.14821 0.2781,0.27811 -0.17382,0.64723 -1.0608,0.86645 -0.58948,0.14569 -0.73309,0.10498 -0.63401,-0.17972 z m 2.37104,-0.30916 c -0.2725,-0.32835 -0.18609,-0.51593 0.50592,-1.09822 0.459,-0.38622 0.89343,-0.64335 0.9654,-0.57138 0.25968,0.25968 -0.21609,1.4784 -0.57716,1.4784 -0.20338,0 -0.41383,0.13212 -0.46765,0.2936 -0.063,0.18893 -0.21502,0.15243 -0.42651,-0.1024 z m -4.25463,-3.07897 c -0.20311,-0.1286 -0.29614,-0.42443 -0.20674,-0.6574 0.12192,-0.31774 0.52822,-0.42358 1.62605,-0.42358 0.80493,0 1.46351,-0.10518 1.46351,-0.23372 0,-0.2441 1.09006,-0.6165 1.27199,-0.43457 0.2684,0.2684 -1.25291,1.44641 -2.19803,1.70202 -1.27374,0.34449 -1.47951,0.34946 -1.95678,0.0473 z m 29.04895,-2.22695 c -0.97712,-0.4385 -1.53587,-0.95055 -1.98501,-1.81909 -0.65434,-1.26536 -0.15713,-1.30014 1.10135,-0.077 0.65642,0.63797 1.42766,1.23426 1.71385,1.3251 0.56711,0.17999 0.72622,0.93662 0.18962,0.90175 -0.1819,-0.0118 -0.64082,-0.16065 -1.01981,-0.33073 z m -31.25936,-1.52013 c -0.73145,-0.4275 -0.54209,-0.77348 0.42333,-0.77348 0.56494,0 1.28368,-0.28783 1.98208,-0.79375 1.15572,-0.8372 1.62949,-0.98336 1.62949,-0.50271 0,0.50158 -1.77327,2.09021 -2.33315,2.09021 -0.29369,0 -0.69255,0.0563 -0.88636,0.12517 -0.1938,0.0688 -0.56073,0.003 -0.81539,-0.14544 z m 26.21651,-1.06727 c -0.38766,-0.14537 -0.77665,-0.45141 -0.8644,-0.6801 -0.1423,-0.37082 -0.0885,-0.36926 0.4971,0.0145 0.74815,0.49021 1.04589,0.55129 0.80756,0.16568 -0.0989,-0.16009 0.26831,-0.26459 0.92983,-0.26459 0.89831,0 1.0777,0.0826 1.00564,0.46302 -0.10358,0.54675 -1.31258,0.7002 -2.37573,0.30153 z m -28.50876,-1.78018 c -0.23821,-0.4451 -0.19746,-0.56476 0.23956,-0.70347 0.28963,-0.0919 0.65687,-0.0866 0.81608,0.0118 0.15921,0.0984 0.69135,-0.0375 1.18255,-0.30205 0.95385,-0.51369 1.34816,-0.40176 1.07671,0.30563 -0.0965,0.25134 -0.33423,0.37165 -0.56186,0.2843 -0.2394,-0.0919 -0.39464,0.001 -0.39464,0.23713 0,0.21372 -0.20836,0.3902 -0.46302,0.39219 -0.25466,0.002 -0.72072,0.0727 -1.03568,0.15722 -0.40624,0.10897 -0.65608,-0.002 -0.8597,-0.38272 z m 26.70007,0.002 c 0,-0.32471 -0.1786,-0.65892 -0.39688,-0.74268 -0.21828,-0.0838 -0.39804,-0.34792 -0.39946,-0.58701 -0.006,-0.96608 -1.29941,-3.13035 -2.45923,-4.11421 -1.31861,-1.11857 -1.47228,-1.51684 -1.65768,-4.29615 -0.0665,-0.99766 -0.14915,-2.11159 -0.18356,-2.47539 -0.0416,-0.43939 0.0707,-0.66146 0.33431,-0.66146 0.21828,0 0.40077,0.23812 0.40553,0.52916 0.005,0.29105 0.1018,0.9083 0.21564,1.37167 0.11384,0.46337 0.21748,1.21176 0.23031,1.66308 0.0128,0.45132 0.12415,0.8829 0.24738,0.95906 0.12323,0.0761 0.22405,0.41452 0.22405,0.75191 0,0.3374 0.1786,0.76167 0.39688,0.94283 0.21828,0.18115 0.39687,0.24864 0.39687,0.14996 0,-0.0987 0.41829,0.2737 0.92953,0.8275 0.9548,1.03428 1.61998,2.75193 1.28885,3.32812 -0.10547,0.18353 -0.084,0.23088 0.0495,0.10895 0.3319,-0.30325 0.95773,2.25529 0.63146,2.58155 -0.1616,0.16161 -0.25349,0.0395 -0.25349,-0.33689 z m -28.44271,-2.42586 c -0.23841,-0.38575 0.12684,-0.85245 0.54236,-0.69301 0.49923,0.19158 1.97118,-0.58963 1.97118,-1.04616 0,-0.40911 0.41418,-0.51302 0.63308,-0.15883 0.30469,0.493 -0.20108,1.31716 -1.05955,1.72653 -1.03667,0.49436 -1.8464,0.56088 -2.08707,0.17147 z m -0.66146,-3.06161 c 0,-0.30602 0.73645,-0.87624 0.90893,-0.70377 0.098,0.098 0.28581,0.004 0.41735,-0.20882 0.17473,-0.28271 0.31804,-0.30815 0.53179,-0.0944 0.40773,0.40772 -0.37988,1.15817 -1.21551,1.15817 -0.35341,0 -0.64256,-0.068 -0.64256,-0.15119 z"
       id="path11" />
  </g>
</svg>
