<?xml version="1.0" encoding="UTF-8" standalone="no"?>
<!-- Created with Inkscape (http://www.inkscape.org/) -->

<svg
   width="95.185295mm"
   height="40.202839mm"
   viewBox="0 0 95.185289 40.202842"
   version="1.1"
   id="svg1"
   inkscape:version="1.4.1-rc (06eac75fbf, 2025-03-29)"
   sodipodi:docname="mount10.svg"
   xmlns:inkscape="http://www.inkscape.org/namespaces/inkscape"
   xmlns:sodipodi="http://sodipodi.sourceforge.net/DTD/sodipodi-0.dtd"
   xmlns="http://www.w3.org/2000/svg"
   xmlns:svg="http://www.w3.org/2000/svg">
  <sodipodi:namedview
     id="namedview1"
     pagecolor="#ffffff"
     bordercolor="#000000"
     borderopacity="0.25"
     inkscape:showpageshadow="2"
     inkscape:pageopacity="0.0"
     inkscape:pagecheckerboard="0"
     inkscape:deskcolor="#d1d1d1"
     inkscape:document-units="mm"
     inkscape:zoom="0.72248176"
     inkscape:cx="179.93534"
     inkscape:cy="75.43443"
     inkscape:window-width="1850"
     inkscape:window-height="1016"
     inkscape:window-x="0"
     inkscape:window-y="0"
     inkscape:window-maximized="1"
     inkscape:current-layer="layer1" />
  <defs
     id="defs1" />
  <g
     inkscape:label="Layer 1"
     inkscape:groupmode="layer"
     id="layer1"
     transform="translate(-58.208321,-128.05866)">
    <path
       style="fill:#000000"
       d="m 58.94453,167.74385 c 0,-0.42314 0.11426,-0.53303 0.42876,-0.41234 0.33199,0.12739 0.39654,0.0413 0.28601,-0.38137 -0.0977,-0.37369 0.10087,-0.79511 0.62957,-1.33597 1.12675,-1.15265 0.94595,-1.56495 -0.21619,-0.493 -0.54369,0.50148 -1.02986,1.00109 -1.08039,1.11023 -0.0505,0.10914 -0.26855,0.19844 -0.48451,0.19844 -0.71449,0 -0.10218,-1.13153 1.32381,-2.44634 0.74904,-0.69064 1.51073,-1.25619 1.69263,-1.25677 0.1819,-5.8e-4 0.33073,-0.10847 0.33073,-0.23976 0,-0.13128 0.33462,-0.35535 0.7436,-0.49792 0.40899,-0.14258 0.92247,-0.43808 1.14107,-0.65668 0.50653,-0.50654 2.47753,-1.51711 2.95893,-1.51711 0.20172,0 0.71248,-0.17046 1.13502,-0.3788 0.42254,-0.20834 0.9422,-0.4167 1.15479,-0.46302 0.2126,-0.0463 0.6069,-0.27851 0.87621,-0.51597 0.26932,-0.23745 1.64319,-0.87989 3.05304,-1.42763 1.40986,-0.54774 2.94937,-1.17024 3.42113,-1.38333 0.47176,-0.21309 1.03731,-0.31853 1.25677,-0.23431 0.44965,0.17254 0.54951,0.96347 0.12165,0.96347 -0.15255,0 -0.77022,0.23813 -1.37261,0.52917 -0.60239,0.29104 -1.22171,0.53181 -1.37628,0.53505 -0.15457,0.003 -0.57869,0.23871 -0.94249,0.52328 -0.3638,0.28457 -0.85662,0.52005 -1.09515,0.52329 -0.62306,0.008 -5.52593,2.6014 -6.32766,3.34647 -0.37177,0.34549 -0.75328,0.62816 -0.8478,0.62816 -0.17447,0 -3.09049,2.0968 -4.58791,3.29898 -0.45099,0.36207 -0.93146,1.04703 -1.06772,1.52212 -0.29092,1.01441 -1.15501,1.35978 -1.15501,0.46166 z m 2.91042,-0.62435 c 0,-0.65841 3.9677,-4.39383 4.66706,-4.39383 0.17376,0 0.35561,-0.0893 0.40412,-0.19844 0.22426,-0.50459 3.46161,-2.41385 5.24757,-3.0948 1.0914,-0.41614 2.30041,-0.97649 2.68667,-1.24523 0.38627,-0.26873 0.8215,-0.48861 0.96719,-0.48861 0.2546,0 2.13801,-0.86738 2.96072,-1.36352 0.21828,-0.13164 0.635,-0.31647 0.92604,-0.41073 0.29104,-0.0943 1.90995,-0.86471 3.59758,-1.71211 1.68762,-0.8474 3.20567,-1.54073 3.37343,-1.54073 0.16777,0 0.30503,-0.12654 0.30503,-0.28121 0,-0.15467 0.20836,-0.26121 0.46302,-0.23676 0.73194,0.0703 1.65365,-0.30543 1.65365,-0.67406 0,-0.18512 0.40991,-0.41347 0.91091,-0.50746 0.5966,-0.11192 1.29597,-0.57491 2.02682,-1.34175 0.61374,-0.64397 1.21586,-1.10908 1.33804,-1.03357 0.12218,0.0755 0.22505,-0.0781 0.2286,-0.34134 0.004,-0.26524 0.90829,-1.24539 2.02921,-2.19843 2.15744,-1.83431 5.27795,-5.29966 5.65853,-6.28385 0.12661,-0.32742 0.34419,-0.59532 0.48351,-0.59532 0.13931,0 0.32865,-0.23742 0.42075,-0.5276 0.0921,-0.29018 0.30849,-0.68075 0.48086,-0.86794 0.44408,-0.48228 1.11416,-1.62584 2.20543,-3.76383 0.74789,-1.46525 1.24595,-2.06369 2.3846,-2.86522 1.43831,-1.01245 1.44014,-1.0129 2.7485,-0.67758 0.72008,0.18455 1.30924,0.43732 1.30924,0.56171 0,0.12439 0.14882,0.19969 0.33073,0.16734 0.1819,-0.0324 0.77132,0.16026 1.30983,0.42804 l 0.9791,0.48686 1.6992,-0.83651 c 0.93456,-0.46008 2.06451,-0.83652 2.51101,-0.83652 0.4465,0 0.89041,-0.12717 0.98648,-0.28262 0.0961,-0.15544 0.33137,-0.22249 0.52289,-0.14899 0.19152,0.0735 0.41386,-0.0375 0.4941,-0.24655 0.10174,-0.26513 0.57539,-0.38017 1.5653,-0.38017 0.78067,0 1.50719,-0.0878 1.61447,-0.19506 0.10729,-0.10729 0.33549,-0.2025 0.50712,-0.21159 0.77842,-0.0412 2.31617,-0.46956 2.44726,-0.68168 0.32532,-0.52637 1.88893,-0.17162 3.85068,0.87365 1.14396,0.60952 2.14668,1.31855 2.22827,1.57562 0.24829,0.7823 2.64369,2.74996 3.72903,3.06316 0.56177,0.16211 1.52741,0.44268 2.14588,0.6235 0.61846,0.18082 1.12448,0.42877 1.12448,0.551 0,0.12223 0.16919,0.22223 0.37598,0.22223 0.66534,0 2.77082,2.35227 3.0571,3.41543 0.35132,1.30471 0.40565,2.14318 0.18262,2.81854 -0.22664,0.68633 0.83499,1.87946 2.33742,2.62695 0.58209,0.2896 1.15355,0.67656 1.26992,0.8599 0.11637,0.18334 0.38901,0.33335 0.60585,0.33335 1.11902,0 3.44449,1.73423 4.61222,3.43958 0.34876,0.50933 0.84734,1.08163 1.10796,1.27178 0.61676,0.45001 0.62406,1.37464 0.0108,1.37225 -0.25466,-9.9e-4 -0.72855,-0.39187 -1.05308,-0.8686 -1.38911,-2.04059 -4.06949,-4.24763 -5.82993,-4.80039 -0.33639,-0.10563 -0.52152,-0.31374 -0.42214,-0.47455 0.10415,-0.16851 0.0539,-0.21029 -0.12217,-0.1015 -0.16456,0.1017 -0.62944,0.006 -1.03307,-0.21311 -0.40363,-0.21891 -0.61482,-0.40392 -0.46929,-0.41112 0.14552,-0.007 -0.23451,-0.31224 -0.84451,-0.67787 -1.0191,-0.61083 -1.10307,-0.74479 -1.03503,-1.65114 0.0407,-0.5425 0.20109,-0.96037 0.35638,-0.92859 0.15528,0.0318 0.35241,-0.12483 0.43806,-0.34803 0.11848,-0.30876 0.0296,-0.36577 -0.37178,-0.23839 -0.45518,0.14447 -0.5275,0.0461 -0.5275,-0.71758 0,-0.48675 -0.18549,-1.14982 -0.4122,-1.4735 -0.22671,-0.32367 -0.33875,-0.70735 -0.24897,-0.85262 0.0898,-0.14527 -0.0947,-0.26412 -0.40986,-0.26412 -0.43322,0 -0.53048,-0.11103 -0.3985,-0.45495 0.096,-0.25023 0.0895,-0.36986 -0.0145,-0.26585 -0.10401,0.104 -0.57861,-0.10798 -1.05467,-0.47109 -0.47605,-0.36311 -0.99256,-0.66019 -1.14779,-0.66019 -0.15523,0 -0.28224,-0.11523 -0.28224,-0.25606 0,-0.15423 -0.2362,-0.16868 -0.59394,-0.0363 -0.62256,0.2303 -2.05189,-0.12455 -2.05189,-0.50941 0,-0.12147 -0.2446,-0.2985 -0.54355,-0.39338 -0.29895,-0.0949 -1.45981,-1.05486 -2.57969,-2.13329 -1.11987,-1.07842 -2.2445,-1.96131 -2.49916,-1.96198 -0.25466,-6.6e-4 -0.46302,-0.10583 -0.46302,-0.23369 0,-0.33659 -1.34361,-0.78293 -2.11666,-0.70315 -1.27541,0.13162 -2.65293,0.46847 -2.78416,0.68081 -0.0729,0.1179 0.2261,0.46969 0.66438,0.78177 0.86445,0.61555 1.03257,1.25129 0.39553,1.49575 -0.24458,0.0938 -0.61378,-0.11608 -0.94525,-0.53747 -0.29915,-0.38031 -0.76347,-0.69148 -1.03183,-0.69148 -0.26835,0 -0.5276,-0.1008 -0.57611,-0.22401 -0.12358,-0.31389 -2.86631,-0.60191 -2.86631,-0.30099 0,0.13409 -0.15634,0.18382 -0.34743,0.11049 -0.51042,-0.19587 -1.14683,0.66527 -1.35695,1.83615 -0.10115,0.56361 -0.28906,1.21846 -0.41757,1.4552 -0.61528,1.13343 -1.10662,2.44946 -0.96674,2.58934 0.0856,0.0856 -0.0765,0.61062 -0.36027,1.16677 -0.51765,1.01469 -0.29023,1.70999 0.34993,1.06983 0.16194,-0.16194 0.53852,-0.29819 0.83684,-0.30276 0.56417,-0.009 1.5941,-1.1618 1.36653,-1.53002 -0.0716,-0.11587 -0.0346,-0.63467 0.0823,-1.15289 0.11687,-0.51822 0.12319,-1.10696 0.014,-1.30831 -0.26119,-0.4818 0.20684,-1.72648 0.52761,-1.40313 0.38307,0.38615 0.73897,2.33316 0.53032,2.90115 -0.10449,0.28443 -0.27441,0.90409 -0.37761,1.37704 -0.15371,0.70439 -0.10695,0.85989 0.25856,0.85989 0.29818,0 0.39293,0.13884 0.28561,0.41852 -0.0883,0.23018 -0.1606,0.4683 -0.1606,0.52916 0,0.0609 -0.23813,0.11065 -0.52917,0.11065 -0.37242,0 -0.52912,0.17635 -0.52902,0.59532 1.2e-4,0.5178 0.13592,0.59442 1.04308,0.58851 0.57362,-0.004 1.12528,-0.0891 1.22592,-0.18977 0.19668,-0.19668 0.37194,-1.13724 0.46799,-2.5116 0.0749,-1.07164 0.56304,-1.63811 1.01883,-1.18233 0.34177,0.34178 0.32066,2.37268 -0.0293,2.82195 -0.11775,0.15114 -0.29469,0.61172 -0.3932,1.02352 -0.15944,0.66645 -0.11984,0.7299 0.36039,0.57748 0.44484,-0.14119 0.53951,-0.0551 0.53951,0.49083 0,0.36413 -0.11844,0.97359 -0.26321,1.35435 -0.14476,0.38075 -0.32409,1.01358 -0.39851,1.40628 -0.0744,0.39271 -0.30062,1.48791 -0.50266,2.4338 -0.21344,0.99921 -0.27056,1.83914 -0.13632,2.00465 0.13436,0.16567 0.10109,0.62909 -0.0795,1.10754 -0.26946,0.71389 -0.40813,0.80316 -1.04859,0.67507 -0.56878,-0.11376 -0.7729,-0.034 -0.88997,0.34767 -0.27113,0.88397 -1.73649,3.78874 -1.99048,3.94572 -0.46885,0.28976 -0.24537,-1.54368 0.32812,-2.69199 0.56493,-1.13116 0.4439,-2.02586 -0.14314,-1.05818 -0.6985,1.15139 -2.28185,2.89705 -3.05311,3.36609 -1.38723,0.84362 -1.79345,0.55079 -0.82746,-0.59649 2.34656,-2.78694 2.87959,-3.51029 2.98219,-4.04702 0.10943,-0.57244 0.0371,-0.61194 -1.05709,-0.57701 -1.10179,0.0352 -1.21635,0.11125 -1.84913,1.22811 -0.37101,0.65485 -0.95029,1.66688 -1.28729,2.24896 -0.33699,0.58209 -0.74771,1.38576 -0.91271,1.78594 -0.16499,0.40018 -0.46694,0.7276 -0.67098,0.7276 -0.45965,0 -0.49426,0.97113 -0.0403,1.12993 0.50728,0.17744 -0.38297,1.05147 -1.78332,1.75085 -0.65629,0.32776 -1.19325,0.75229 -1.19325,0.94339 0,0.40109 -0.81172,0.66495 -2.06158,0.67014 -0.5011,0.002 -1.11217,0.22833 -1.43895,0.53278 -0.3124,0.29104 -0.43351,0.52917 -0.26914,0.52917 0.16437,0 0.37364,-0.12101 0.46505,-0.2689 0.0914,-0.1479 0.28224,-0.19718 0.42408,-0.10952 0.14184,0.0877 0.42366,0.0218 0.62626,-0.14633 0.2716,-0.22541 0.51183,-0.22895 0.91445,-0.0135 0.76693,0.41044 0.68156,0.70105 -0.31381,1.06828 -0.52256,0.19279 -0.71881,0.37106 -0.50026,0.45444 0.36034,0.13747 2.94697,-0.93999 2.94843,-1.22817 4.3e-4,-0.0843 0.41715,-0.16214 0.92604,-0.17306 0.5089,-0.0109 0.92527,0.0599 0.92527,0.15743 0,0.3159 -0.90061,0.97434 -1.98438,1.45078 -0.58208,0.2559 -2.00042,0.92593 -3.15187,1.48897 -2.22661,1.08878 -3.70396,1.35093 -3.41832,0.60657 0.088,-0.22943 0.44149,-0.52414 0.78544,-0.65491 0.34396,-0.13077 0.62538,-0.43205 0.62538,-0.6695 0,-0.24418 -0.14368,-0.37049 -0.33073,-0.29076 -0.1819,0.0775 -0.98558,0.40348 -1.78594,0.72433 -0.80036,0.32084 -1.77547,0.74889 -2.16689,0.95122 -0.39143,0.20233 -1.22486,0.43894 -1.85208,0.52581 l -1.1404,0.15794 0.50402,-0.56037 c 0.27722,-0.3082 0.66579,-0.56037 0.86349,-0.56037 0.1977,0 0.5662,-0.11168 0.81889,-0.24818 0.25268,-0.1365 1.14404,-0.55671 1.98078,-0.93379 1.79452,-0.80872 2.08023,-1.42004 0.3088,-0.66071 -0.66691,0.28587 -1.42574,0.51977 -1.68629,0.51977 -0.43766,0 -2.67553,0.55503 -5.56782,1.38092 -0.65484,0.18699 -1.74147,0.65055 -2.41473,1.03015 -1.43742,0.81043 -2.61235,1.15628 -2.61235,0.76897 0,-0.1483 0.11873,-0.26963 0.26384,-0.26963 0.14511,0 0.99165,-0.53578 1.88119,-1.19062 0.88954,-0.65485 1.90573,-1.19063 2.2582,-1.19063 0.35246,0 1.08351,-0.18999 1.62454,-0.42221 0.54103,-0.23221 1.87665,-0.64028 2.96806,-0.90681 1.09141,-0.26654 2.34156,-0.63062 2.77813,-0.80908 0.74415,-0.30418 0.9472,-0.37196 1.78593,-0.59612 0.38384,-0.10259 1.4638,-0.557 3.00554,-1.26464 0.59803,-0.27448 1.20853,-0.49905 1.35667,-0.49905 0.14814,0 0.39948,-0.1568 0.55853,-0.34844 0.23583,-0.28417 0.0344,-0.31469 -1.09208,-0.16545 -0.75969,0.10065 -1.46706,0.13352 -1.57193,0.073 -0.32224,-0.18583 -1.79371,0.69688 -1.79371,1.07601 0,0.33336 -1.39732,0.8282 -1.98196,0.70189 -0.60836,-0.13143 -3.67237,0.11819 -4.01905,0.32742 -0.11918,0.0719 -0.80805,0.20995 -1.53083,0.3067 -0.72277,0.0967 -1.43715,0.27167 -1.5875,0.38872 -0.15035,0.11705 -0.85666,0.28896 -1.56959,0.38201 -0.71292,0.0931 -1.44491,0.2926 -1.62665,0.44342 -0.18173,0.15083 -0.61046,0.3261 -0.95273,0.3895 -1.46248,0.27088 -5.55271,1.63993 -7.50148,2.51084 -1.35772,0.60676 -4.04504,1.58724 -4.35036,1.58724 -0.18705,0 -0.80145,0.2593 -1.36534,0.57623 -0.56389,0.31692 -1.10643,0.49504 -1.20564,0.39583 -0.19926,-0.19926 0.9225,-1.50122 1.29344,-1.50122 0.12814,0 0.73659,-0.22943 1.35212,-0.50983 0.61553,-0.28041 1.44243,-0.59097 1.83757,-0.69014 0.39513,-0.0992 0.71842,-0.28647 0.71842,-0.41622 0,-0.12974 0.18021,-0.2359 0.40047,-0.2359 0.22025,0 0.60721,-0.1117 0.85989,-0.24823 1.22251,-0.66052 4.07562,-1.86843 4.41327,-1.86843 0.20931,0 0.45214,-0.11583 0.53964,-0.2574 0.0875,-0.14156 0.65214,-0.39016 1.25478,-0.55243 1.31596,-0.35436 4.53472,-1.83671 4.65869,-2.1455 0.0485,-0.12082 0.28663,-0.21977 0.52916,-0.21989 0.24254,-1.2e-4 1.03629,-0.22554 1.76389,-0.50094 0.93402,-0.35352 1.3477,-0.66402 1.40722,-1.05623 0.0795,-0.52356 0.0414,-0.53436 -0.66146,-0.1878 -0.41017,0.20224 -1.63873,0.57169 -2.73013,0.82099 -2.47956,0.56639 -4.61287,1.26438 -5.09997,1.66864 -0.20497,0.17011 -0.43883,0.24314 -0.51969,0.16229 -0.0808,-0.0809 -1.0224,0.29409 -2.09232,0.8332 -1.06992,0.53912 -2.54063,1.27496 -3.26823,1.6352 -0.7276,0.36025 -1.38245,0.7442 -1.45521,0.85323 -0.0728,0.10902 -0.42995,0.28943 -0.79375,0.40089 -0.3638,0.11147 -0.99912,0.44058 -1.41183,0.73135 -0.4127,0.29077 -1.24614,0.78777 -1.85208,1.10444 -2.18966,1.14432 -3.21806,1.80771 -3.56072,2.29693 -0.41763,0.59624 -1.11287,0.65926 -1.11287,0.10088 0,-0.42534 1.77669,-2.14638 2.73077,-2.64525 0.31709,-0.1658 1.08489,-0.62353 1.70623,-1.01719 0.62135,-0.39366 3.06213,-1.71469 5.42396,-2.93563 2.36184,-1.22094 4.65144,-2.40785 5.088,-2.63758 0.43656,-0.22973 1.06867,-0.41843 1.40468,-0.41932 0.33601,-9e-4 0.548,-0.10344 0.4711,-0.22787 -0.23051,-0.37298 -3.63118,-0.13127 -5.05078,0.359 -0.7276,0.25128 -2.45401,0.99063 -3.83646,1.643 -4.4193,2.08545 -4.6605,2.19299 -4.91859,2.19299 -0.13948,0 -1.19377,0.53578 -2.34287,1.19062 -1.1491,0.65484 -2.18666,1.19063 -2.30568,1.19063 -0.22638,0 -1.04253,0.62315 -1.77625,1.35623 -0.23681,0.2366 -0.69846,0.51252 -1.02588,0.61314 -0.32742,0.10062 -0.59531,0.37016 -0.59531,0.59897 0,0.45604 -0.73357,1.1141 -1.25677,1.12741 -0.53133,0.0135 -0.38289,-0.60221 0.33073,-1.37181 0.3638,-0.39234 0.66496,-0.80784 0.66925,-0.92333 0.0111,-0.30001 2.67733,-2.19436 3.08844,-2.19436 0.18884,0 0.34335,-0.0968 0.34335,-0.21518 0,-0.11835 1.93476,-1.13991 4.29948,-2.27013 2.36471,-1.13022 4.89479,-2.36027 5.62239,-2.73343 0.72761,-0.37317 1.50151,-0.69494 1.71979,-0.71506 0.21829,-0.0201 1.74087,-0.4834 3.38352,-1.02952 1.64266,-0.54613 3.09295,-0.92726 3.22287,-0.84696 0.12992,0.0803 0.311,0.025 0.40241,-0.12291 0.0914,-0.14789 0.39728,-0.2689 0.67974,-0.2689 0.60365,0 0.62273,-0.0868 0.18282,-0.83191 -0.26513,-0.44903 -0.26452,-0.5841 0.003,-0.68092 0.18357,-0.0664 0.45613,-0.34944 0.6057,-0.62891 0.26394,-0.49318 0.23858,-0.49577 -0.86293,-0.0879 -1.12491,0.41654 -3.68481,1.48245 -3.88455,1.61747 -0.0571,0.0386 0.038,0.24108 0.21129,0.44992 0.36085,0.4348 0.008,0.77843 -0.90119,0.87827 -1.50429,0.16515 -2.4586,0.4624 -3.175,0.98893 -0.43656,0.32086 -1.35703,0.73819 -2.04549,0.9274 -0.68846,0.18921 -1.38765,0.50777 -1.55375,0.70791 -0.16611,0.20014 -0.43626,0.36463 -0.60034,0.36553 -0.16408,8.9e-4 -0.65552,0.19179 -1.09208,0.42422 -0.43657,0.23243 -1.24274,0.58448 -1.7915,0.78235 -1.59435,0.57486 -2.88926,1.21494 -4.07701,2.01529 -0.6083,0.40989 -1.20361,0.7501 -1.32291,0.75601 -0.11931,0.006 -0.62914,0.3631 -1.13296,0.79375 -0.50383,0.43065 -1.02596,0.783 -1.16029,0.783 -0.13433,0 -0.52009,0.29765 -0.85725,0.66146 -0.33717,0.3638 -0.69087,0.66146 -0.78602,0.66146 -0.0952,0 -0.60685,0.33995 -1.13711,0.75546 -1.46935,1.15136 -2.15474,1.46707 -2.15474,0.99253 z m 34.38035,-8.20266 c 0.70426,-0.25446 0.80917,-0.36791 0.46302,-0.50074 -0.24615,-0.0945 -0.44754,-0.0494 -0.44754,0.10016 0,0.14954 -0.0908,0.21578 -0.20176,0.1472 -0.11097,-0.0686 -0.49792,0.0392 -0.8599,0.23959 -0.81259,0.44978 -0.18347,0.45807 1.04618,0.0138 z m 7.15001,-2.012 c 0.11664,0 0.27958,-0.26789 0.36207,-0.59531 0.13643,-0.5415 0.11865,-0.55346 -0.19674,-0.1323 -0.19071,0.25467 -0.54198,0.46302 -0.78059,0.46302 -0.23862,0 -0.43386,0.13181 -0.43386,0.2929 0,0.16109 0.18833,0.22062 0.41852,0.13229 0.23018,-0.0883 0.51395,-0.1606 0.6306,-0.1606 z m 6.6768,-1.41201 c 0.55293,-0.59297 1.00533,-1.18063 1.00533,-1.30592 0,-0.12529 0.28426,-0.6068 0.63169,-1.07004 0.34743,-0.46323 0.8724,-1.34826 1.16661,-1.96672 0.44036,-0.92568 0.46594,-1.12448 0.14467,-1.12448 -0.63216,0 -1.4138,0.51712 -1.4138,0.93535 0,0.21316 -0.11906,0.38757 -0.26458,0.38757 -0.14552,0 -0.26459,0.23508 -0.26459,0.52241 0,0.28732 -0.76368,1.46833 -1.69707,2.62445 -0.93339,1.15612 -1.62661,2.17251 -1.54049,2.25863 0.31723,0.31723 1.25374,-0.21191 2.23223,-1.26125 z m -12.11086,0.74487 c 0.28042,-0.21215 0.42975,-0.46583 0.33185,-0.56373 -0.26599,-0.26599 -1.55901,0.39727 -1.37017,0.70283 0.21661,0.35048 0.42876,0.32206 1.03832,-0.1391 z m 3.59119,-0.12661 c 0,-0.14552 -0.11906,-0.26459 -0.26458,-0.26459 -0.14552,0 -0.26458,0.11907 -0.26458,0.26459 0,0.14552 0.11906,0.26458 0.26458,0.26458 0.14552,0 0.26458,-0.11906 0.26458,-0.26458 z m 4.54037,-0.0227 c 0.84616,-0.45285 3.0913,-2.9451 3.37603,-3.74759 0.24249,-0.68345 0.2126,-0.72761 -0.49252,-0.72761 -0.41287,0 -1.02789,0.22448 -1.36671,0.49884 -0.50849,0.41175 -0.55827,0.56846 -0.28512,0.89758 0.27347,0.32952 0.22165,0.48406 -0.29853,0.89022 -0.64285,0.50195 -1.95136,2.47586 -1.64124,2.47586 0.0942,0 0.41284,-0.12929 0.70809,-0.2873 z m -10.75807,-1.0451 c 0,-0.29984 -0.29821,-0.36796 -1.31958,-0.30139 -0.72576,0.0473 -1.3806,0.17827 -1.4552,0.29105 -0.0746,0.11279 -0.31423,0.27935 -0.53252,0.37014 -0.21828,0.0908 0.43657,0.13414 1.45521,0.0963 1.41846,-0.0526 1.85209,-0.15944 1.85209,-0.45613 z m 6.2177,0.27407 c 0,-0.14552 -0.12609,-0.26459 -0.28019,-0.26459 -0.15411,0 -0.20662,0.11907 -0.11668,0.26459 0.0899,0.14552 0.21602,0.26458 0.2802,0.26458 0.0642,0 0.11667,-0.11906 0.11667,-0.26458 z m 4.50079,-2.57729 c 0.7589,-0.96478 0.6661,-1.12688 -0.64513,-1.12688 -0.94215,0 -1.27585,0.13276 -1.705,0.67835 -0.74843,0.95147 -0.50376,1.33958 0.76804,1.21829 0.73743,-0.0703 1.2145,-0.30244 1.58209,-0.76976 z m -11.98557,0.46423 c 0.55826,-0.003 1.66395,-0.92015 1.66395,-1.37954 0,-0.37606 -2.15996,0.10829 -3.25389,0.72965 -0.85281,0.48441 -0.95469,0.61919 -0.55004,0.72765 0.27315,0.0732 0.73476,0.0865 1.02581,0.0295 0.29104,-0.057 0.79241,-0.10526 1.11417,-0.10725 z m 4.55087,-0.64006 0.59791,-0.63644 -0.5743,-0.18228 c -0.40632,-0.12896 -0.7588,-0.009 -1.20509,0.41032 -0.34694,0.32593 -0.56791,0.69436 -0.49105,0.81873 0.26297,0.42549 1.07432,0.22644 1.67253,-0.41033 z m 3.26464,-0.0207 c 0.83798,-0.73755 0.8659,-0.82068 0.34308,-1.02131 -0.37192,-0.14272 -1.99672,1.05574 -1.99672,1.47278 0,0.42547 0.95287,0.16532 1.65364,-0.45147 z m 8.40052,-1.45954 c 0,-0.14552 -0.11906,-0.26458 -0.26458,-0.26458 -0.14552,0 -0.26458,0.11906 -0.26458,0.26458 0,0.14553 0.11906,0.26459 0.26458,0.26459 0.14552,0 0.26458,-0.11906 0.26458,-0.26459 z m -16.33802,-0.45775 c 0.25466,-0.0732 0.46302,-0.23028 0.46302,-0.34902 0,-0.11875 0.20836,-0.2868 0.46302,-0.37345 0.95002,-0.32327 1.70259,-1.16056 1.44955,-1.61272 -0.20781,-0.37133 -0.38102,-0.30258 -1.27496,0.50606 -0.56897,0.51468 -1.39167,1.25024 -1.82823,1.63459 -0.56887,0.50082 -0.64383,0.64623 -0.26458,0.51324 0.29104,-0.10206 0.73752,-0.24547 0.99218,-0.3187 z m 3.39508,-0.336 c 0.13362,0 0.24294,-0.17859 0.24294,-0.39687 0,-0.21828 0.13891,-0.39688 0.30868,-0.39688 0.16978,0 0.23434,-0.0743 0.14347,-0.16521 -0.0909,-0.0909 -0.5572,0.16869 -1.03628,0.57678 -0.47909,0.4081 -0.65298,0.66104 -0.38641,0.56209 0.26656,-0.099 0.59398,-0.17991 0.7276,-0.17991 z m 4.01767,-0.65263 c 0.50447,-0.50448 0.85372,-0.98073 0.77611,-1.05834 -0.40081,-0.4008 -1.4013,-0.0549 -2.04131,0.70567 -0.66321,0.78818 -0.67857,0.86012 -0.22196,1.03973 0.26981,0.10613 0.50842,0.20133 0.53025,0.21156 0.0218,0.0102 0.45243,-0.39415 0.95691,-0.89862 z m 2.96294,0.0961 c 0.97555,-0.85655 1.21834,-1.56009 0.53837,-1.56009 -0.43418,0 -1.4552,0.91273 -1.4552,1.30087 0,0.13339 -0.14015,0.28925 -0.31143,0.34634 -0.27007,0.09 -0.10728,0.73404 0.18554,0.73404 0.0591,0 0.52834,-0.36952 1.04272,-0.82116 z m 3.225,-0.50726 c 0.0879,-0.4396 0.26353,-0.86334 0.39026,-0.94166 0.36909,-0.22811 0.26585,-0.64034 -0.16037,-0.64034 -0.21493,0 -0.59902,0.32742 -0.85354,0.72761 -0.25453,0.40018 -0.61446,0.82281 -0.79985,0.93918 -0.58849,0.3694 -0.36474,0.71446 0.46328,0.71446 0.67885,0 0.82463,-0.12134 0.96022,-0.79925 z m 2.81993,0.28898 c 0.50146,-0.19065 1.24032,-1.39177 1.24032,-2.01629 0,-0.0365 -0.41202,-0.0664 -0.9156,-0.0664 -1.04885,0 -1.39399,0.31638 -1.62944,1.49366 -0.18375,0.91874 0.10022,1.04694 1.30472,0.58899 z m 3.62157,-0.79586 c 0,-0.26464 0.17859,-0.62938 0.39687,-0.81054 0.54885,-0.4555 0.53153,-1.4312 -0.0216,-1.21893 -0.23018,0.0883 -0.62298,0.1606 -0.87289,0.1606 -0.27444,0 -0.58019,0.34795 -0.77211,0.87868 -0.41564,1.14944 -0.40127,1.51802 0.0524,1.34394 0.20356,-0.0781 0.44992,-0.0129 0.54745,0.14491 0.24616,0.3983 0.66994,0.0829 0.66994,-0.49866 z m 5.82083,0.2478 c 0,-0.14552 -0.17859,-0.26459 -0.39687,-0.26459 -0.21828,0 -0.39688,0.11907 -0.39688,0.26459 0,0.14552 0.1786,0.26458 0.39688,0.26458 0.21828,0 0.39687,-0.11906 0.39687,-0.26458 z m -1.5875,-1.30128 c 0,-0.13362 0.0608,-0.40151 0.13501,-0.59531 0.0965,-0.25174 -0.16618,-0.36971 -0.91963,-0.4131 -0.80762,-0.0465 -1.11811,0.0579 -1.32563,0.44562 -0.40972,0.76557 -0.36388,0.80573 0.91963,0.80573 0.65484,0 1.19062,-0.10932 1.19062,-0.24294 z m 2.68108,-0.76661 c 0.20414,-0.55555 0.15748,-0.6049 -0.50037,-0.52917 -0.52731,0.0607 -0.74935,0.25193 -0.81282,0.70001 -0.0717,0.50634 0.0177,0.60088 0.50037,0.52916 0.32323,-0.048 0.689,-0.36303 0.81282,-0.7 z m -21.76066,-0.634 c 0.67111,-0.61291 1.26017,-1.20903 1.309,-1.32471 0.12214,-0.28931 -1.01576,-0.0947 -1.23503,0.21124 -0.0972,0.13557 -0.62316,0.5793 -1.16887,0.98606 -0.5457,0.40676 -0.99218,0.85256 -0.99218,0.99068 0,0.57148 0.9433,0.18131 2.08708,-0.86327 z m 5.27046,-0.45699 c 1.12636,-1.38002 1.26957,-1.7601 0.55168,-1.4641 -0.33521,0.13821 -2.08234,2.29512 -2.3199,2.86402 -0.27263,0.65288 0.76004,-0.1647 1.76822,-1.39992 z m -2.97527,0.47212 c 0.75387,-0.80971 0.45866,-0.81594 -0.47967,-0.0101 -0.40191,0.34516 -0.62679,0.84479 -0.38023,0.84479 0.0455,0 0.43249,-0.3756 0.8599,-0.83467 z m 5.24666,-0.0902 c 0.16112,-0.29042 0.50883,-0.85515 0.77269,-1.25497 0.26387,-0.39981 0.39955,-0.8567 0.30153,-1.0153 -0.10638,-0.17213 -0.38306,0.0485 -0.68636,0.5472 -0.27948,0.45956 -0.74259,1.08722 -1.02914,1.39479 -0.28654,0.30757 -0.52099,0.66456 -0.52099,0.79331 0,0.42086 0.86217,0.0759 1.16227,-0.46503 z m 2.76403,-1.20978 c 0.50402,-1.21281 0.514,-1.3326 0.10446,-1.25373 -0.24904,0.048 -0.49784,0.32396 -0.55288,0.61333 -0.055,0.28937 -0.33241,0.85355 -0.61637,1.25373 -0.50942,0.71792 -0.50947,0.7276 -0.004,0.7276 0.36551,0 0.67127,-0.38347 1.06917,-1.34093 z m 2.67898,0.82916 c 0.41443,-0.77438 0.33709,-1.00195 -0.38757,-1.14048 -0.59946,-0.1146 -0.78691,0.064 -0.69279,0.66007 0.0172,0.10914 -0.0877,0.19843 -0.23325,0.19843 -0.14552,0 -0.26458,0.1786 -0.26458,0.39688 0,0.5907 1.24924,0.49975 1.57819,-0.1149 z m 3.38442,-0.48041 c 0.0733,-0.22325 -0.19954,-0.33073 -0.83952,-0.33073 -0.68344,0 -0.94809,0.11546 -0.94809,0.41364 0,0.50842 1.61812,0.43337 1.78761,-0.0829 z m 3.61526,-0.38091 c 0.53414,-0.76261 0.43389,-0.81299 -0.78087,-0.39243 -1.28207,0.44387 -1.51334,0.97177 -0.42572,0.97177 0.52398,0 0.94107,-0.20026 1.20659,-0.57934 z m -16.51537,-0.0821 c 0,-0.21828 -0.0468,-0.39688 -0.10399,-0.39688 -0.0572,0 -0.17251,0.1786 -0.25628,0.39688 -0.0838,0.21828 -0.037,0.39687 0.10399,0.39687 0.14095,0 0.25628,-0.17859 0.25628,-0.39687 z m 19.0546,-0.87863 c 0.57686,-1.5515 0.59047,-1.95128 0.0629,-1.84726 -0.30116,0.0594 -0.46436,0.33493 -0.46436,0.78406 0,0.38087 -0.20836,0.92344 -0.46302,1.2057 -0.60068,0.66579 -0.59136,1.11702 0.0198,0.95721 0.26553,-0.0694 0.64566,-0.56431 0.84473,-1.09971 z m -8.80775,-0.48922 c 0.0587,-0.17855 -0.10041,-0.27108 -0.37615,-0.21868 -0.2629,0.05 -0.56729,0.0999 -0.67643,0.11107 -0.10914,0.0111 -0.19844,0.14759 -0.19844,0.30323 0,0.37586 1.12064,0.20063 1.25102,-0.19562 z m 2.97196,0.0449 c 0.42553,0 0.76369,-0.22405 0.97605,-0.64669 0.40497,-0.80594 0.21583,-1.15765 -0.43519,-0.80923 -0.27265,0.14591 -0.71303,0.26529 -0.97864,0.26529 -0.54198,0 -1.24338,0.94058 -0.99776,1.338 0.0878,0.14197 0.30014,0.1669 0.47199,0.0554 0.17184,-0.11151 0.60544,-0.20275 0.96355,-0.20275 z m -13.4834,-0.85849 c 0,-0.18267 0.10518,-0.33214 0.23373,-0.33214 0.12855,0 0.30004,-0.25358 0.38109,-0.56353 0.0891,-0.34079 0.29183,-0.50809 0.51287,-0.42327 0.20102,0.0771 0.50856,-0.0888 0.68341,-0.36881 0.28851,-0.46197 0.2527,-0.49723 -0.38716,-0.3812 -0.38779,0.0703 -0.95612,-0.003 -1.26294,-0.16184 -0.30683,-0.15933 -0.48058,-0.20619 -0.38611,-0.10414 0.0945,0.10205 -0.23296,0.80007 -0.72761,1.55116 -0.49465,0.75108 -0.89936,1.43986 -0.89936,1.5306 0,0.0908 0.41672,0.0346 0.92604,-0.12485 0.50932,-0.15942 0.92604,-0.43931 0.92604,-0.62198 z m 2.67842,-0.39828 c 0.87271,-1.12695 0.6793,-1.02856 -1.04021,0.52917 -0.48083,0.43558 -0.54626,0.59531 -0.24387,0.59531 0.22731,0 0.80514,-0.50602 1.28408,-1.12448 z m 15.22457,-0.0888 c 0.32719,-0.56963 0.60006,-1.11918 0.60637,-1.2212 0.022,-0.35493 -2.23983,0.82234 -2.59186,1.34907 -0.46035,0.68881 -0.25757,0.97999 0.65471,0.94005 0.56213,-0.0246 0.87636,-0.27676 1.33078,-1.06792 z m -9.28484,-0.66923 c 0.42013,-0.66552 0.59233,-1.1837 0.44301,-1.33302 -0.14933,-0.14933 -0.51313,0.27388 -0.93589,1.08873 -0.8309,1.60153 -0.47519,1.77783 0.49288,0.24429 z m 3.08296,-0.58589 c 0.33383,-0.52478 0.23002,-0.70662 -0.4034,-0.70662 -0.68661,0 -1.24354,0.45128 -1.24354,1.00764 0,0.44364 1.32761,0.20099 1.64694,-0.30102 z m -6.14511,-0.0449 c 0.27937,-0.33662 0.22427,-0.38789 -0.36448,-0.33917 -0.73479,0.0608 -0.91425,0.33802 -0.36287,0.56051 0.1819,0.0734 0.34592,0.14285 0.36448,0.15434 0.0186,0.0115 0.18185,-0.15757 0.36287,-0.37568 z m 9.99018,-0.59849 c 0.34907,-0.52573 0.34243,-0.60383 -0.0646,-0.76003 -0.24953,-0.0958 -0.53097,-0.0675 -0.62543,0.0629 -0.0945,0.13035 -0.40986,0.27242 -0.7009,0.31571 -0.93915,0.1397 -1.19062,0.29311 -1.19062,0.7263 0,0.68334 2.08371,0.40498 2.58159,-0.34487 z m -12.25074,-1.02138 c 0.35621,-0.13668 1.20248,-1.3848 1.20248,-1.77346 0,-0.34208 -1.71547,0.31183 -1.95912,0.74678 -0.15941,0.28456 -0.46843,0.66517 -0.68671,0.8458 -0.33691,0.27879 -0.29021,0.32968 0.30909,0.33682 0.38828,0.005 0.8987,-0.0655 1.13426,-0.15594 z m 3.66116,-0.76169 0.73888,-0.92604 h -0.6965 c -0.64221,0 -2.23648,1.17819 -2.23648,1.65279 0,0.10961 0.32742,0.19929 0.72761,0.19929 0.51441,-1e-5 0.9441,-0.27134 1.46649,-0.92604 z m 3.05369,-0.38092 c 0.0601,-0.41043 -0.0247,-0.56676 -0.26459,-0.48772 -0.19414,0.064 -0.39277,0.38817 -0.4414,0.7204 -0.0601,0.41044 0.0247,0.56677 0.26458,0.48772 0.19415,-0.064 0.39278,-0.38817 0.44141,-0.7204 z m 2.43726,0.22597 c 0.16243,-0.3035 0.22986,-0.61729 0.14985,-0.69729 -0.23344,-0.23345 -1.51769,0.71742 -1.34542,0.99616 0.2676,0.43298 0.88672,0.27822 1.19557,-0.29887 z m -1.40119,-2.54569 c 0.56974,-1.22681 0.44522,-1.43912 -0.79147,-1.34946 -0.8186,0.0594 -1.14596,0.20662 -1.21003,0.54438 -0.0594,0.31314 0.0798,0.46302 0.42988,0.46302 0.2952,0 0.57719,0.22744 0.65609,0.52916 0.19022,0.72739 0.52235,0.65951 0.91553,-0.1871 z m 2.38605,0.12096 c 0.16097,-0.32742 0.3708,-0.87294 0.46629,-1.21226 0.15001,-0.53308 0.0897,-0.60502 -0.44392,-0.52917 -0.69478,0.0988 -1.37659,1.25829 -1.12515,1.91352 0.23214,0.60495 0.76138,0.52237 1.10278,-0.17209 z m -6.51159,-0.46302 c 0.45682,-0.43656 0.7215,-0.79375 0.58818,-0.79375 -0.27915,0 -2.21733,1.28034 -2.21733,1.46474 0,0.38849 0.91474,0.0117 1.62915,-0.67099 z m 1.82441,0.39687 c -0.0208,-0.39272 -0.61268,-0.32057 -0.75,0.0914 -0.0742,0.22254 0.0468,0.32173 0.32265,0.26458 0.24273,-0.0503 0.43503,-0.21048 0.42735,-0.356 z m -3.83956,-0.94364 c 0.24975,-0.4041 0.052,-0.51306 -0.61477,-0.3387 -0.31943,0.0835 -0.51556,0.25741 -0.43585,0.38638 0.19995,0.32352 0.83914,0.29451 1.05062,-0.0477 z m 1.17975,-0.93675 c 0,-0.0572 -0.17859,-0.10398 -0.39688,-0.10398 -0.21828,0 -0.39687,0.11532 -0.39687,0.25628 0,0.14095 0.17859,0.18774 0.39687,0.10398 0.21829,-0.0838 0.39688,-0.19909 0.39688,-0.25628 z m 8.48437,-1.44649 c 0.13133,-0.20751 0.2406,-0.46658 0.24283,-0.57572 0.006,-0.28756 -0.90219,-0.24335 -1.76466,0.0859 -0.71172,0.27171 -0.72247,0.30077 -0.24185,0.6537 0.59807,0.43918 1.431,0.36178 1.76368,-0.16389 z m -6.10312,-0.21631 c 0,-0.38843 -1.23713,-0.57737 -1.96601,-0.30025 -1.01257,0.38498 -0.83124,0.53615 0.64309,0.53615 0.72761,0 1.32292,-0.10615 1.32292,-0.2359 z m -3.96875,32.17699 c 0,-0.426 0.95566,-1.2639 1.18265,-1.03691 0.093,0.093 0.25186,0.0375 0.35309,-0.12339 0.10123,-0.16083 0.89843,-0.67464 1.77155,-1.14179 0.87313,-0.46714 1.70061,-0.95718 1.83886,-1.08897 0.13824,-0.13179 0.52519,-0.23961 0.85989,-0.23961 0.3347,0 0.60854,-0.11906 0.60854,-0.26458 0,-0.14553 0.1786,-0.26459 0.39688,-0.26459 0.21828,0 0.39687,0.11056 0.39687,0.24569 0,0.35075 -0.77334,1.07723 -1.14672,1.07723 -0.17335,0 -0.5335,0.29071 -0.80033,0.64603 -0.26683,0.35532 -0.82264,0.72016 -1.23514,0.81076 -0.4125,0.0906 -0.89186,0.33566 -1.06526,0.54459 -0.17339,0.20893 -0.50904,0.3806 -0.74588,0.3815 -0.23684,8.9e-4 -0.77166,0.17949 -1.18847,0.39687 -0.92777,0.48386 -1.22653,0.49779 -1.22653,0.0572 z m 13.66294,-5.66634 c -0.29796,-0.29797 -0.18147,-0.61016 0.22768,-0.61016 0.21829,0 0.39688,0.11203 0.39688,0.24896 0,0.33364 -0.41317,0.57259 -0.62456,0.3612 z m 5.57276,-0.77724 c -0.29119,-0.29119 0.34188,-1.15584 0.84626,-1.15584 0.2663,0 0.773,-0.22719 1.12601,-0.50487 1.12155,-0.88221 1.54619,-0.83336 1.54619,0.17787 0,0.52457 -1.95594,1.50362 -2.54915,1.27599 -0.19869,-0.0762 -0.36126,-0.0233 -0.36126,0.11765 0,0.28948 -0.3556,0.34164 -0.60805,0.0892 z m -5.291,-1.8621 c -0.18953,-0.30667 0.25214,-1.0601 0.48496,-0.82728 0.094,0.094 0.0574,0.37375 -0.0813,0.62163 -0.13873,0.24788 -0.32038,0.34042 -0.40367,0.20565 z m 2.33829,-1.12784 c -0.29936,-0.48438 0.11623,-0.81174 1.03052,-0.81174 0.48296,0 1.32504,-0.18673 1.87129,-0.41497 0.7045,-0.29436 1.07533,-0.33281 1.27585,-0.13229 0.40176,0.40175 -0.066,0.7974 -1.31216,1.10993 -1.84602,0.46296 -2.68807,0.53615 -2.8655,0.24907 z m -1.80981,-2.03716 c -0.27001,-0.27001 -0.22762,-1.62784 0.0563,-1.80332 0.1331,-0.0822 0.29308,2e-5 0.35552,0.18283 0.0905,0.26503 0.29203,0.26651 0.99451,0.007 0.66487,-0.24532 0.97077,-0.25054 1.24702,-0.0213 0.3045,0.25271 0.25984,0.40228 -0.26561,0.8895 -0.66743,0.61887 -2.07474,1.05793 -2.38774,0.74494 z m 1.40182,-17.27979 c 0,-0.13694 0.11906,-0.32256 0.26458,-0.41249 0.14552,-0.0899 0.26459,0.0221 0.26459,0.24896 0,0.22687 -0.11907,0.41249 -0.26459,0.41249 -0.14552,0 -0.26458,-0.11203 -0.26458,-0.24896 z"
       id="path22" />
  </g>
</svg>
