<?xml version="1.0" encoding="UTF-8" standalone="no"?>
<!-- Created with Inkscape (http://www.inkscape.org/) -->

<svg
   width="130.11865mm"
   height="68.369171mm"
   viewBox="0 0 130.11864 68.369175"
   version="1.1"
   id="svg1"
   inkscape:version="1.4.1-rc (06eac75fbf, 2025-03-29)"
   sodipodi:docname="mount7.svg"
   xmlns:inkscape="http://www.inkscape.org/namespaces/inkscape"
   xmlns:sodipodi="http://sodipodi.sourceforge.net/DTD/sodipodi-0.dtd"
   xmlns="http://www.w3.org/2000/svg"
   xmlns:svg="http://www.w3.org/2000/svg">
  <sodipodi:namedview
     id="namedview1"
     pagecolor="#ffffff"
     bordercolor="#000000"
     borderopacity="0.25"
     inkscape:showpageshadow="2"
     inkscape:pageopacity="0.0"
     inkscape:pagecheckerboard="0"
     inkscape:deskcolor="#d1d1d1"
     inkscape:document-units="mm"
     inkscape:zoom="0.72248176"
     inkscape:cx="246.373"
     inkscape:cy="129.41503"
     inkscape:window-width="1850"
     inkscape:window-height="1016"
     inkscape:window-x="0"
     inkscape:window-y="0"
     inkscape:window-maximized="1"
     inkscape:current-layer="layer1" />
  <defs
     id="defs1" />
  <g
     inkscape:label="Layer 1"
     inkscape:groupmode="layer"
     id="layer1"
     transform="translate(-40.745814,-114.03575)">
    <path
       style="fill:#000000"
       d="m 98.254467,182.22569 c -0.0895,-0.14476 -0.22071,-0.95471 -0.29166,-1.79991 -0.0709,-0.84519 -0.17815,-1.77483 -0.23822,-2.06588 -0.0601,-0.29104 -0.11833,-0.61472 -0.12946,-0.7193 -0.0111,-0.10457 -0.19884,-0.1216 -0.41712,-0.0378 -0.2722,0.10445 -0.39687,-0.0159 -0.39687,-0.38313 0,-0.29449 0.12723,-0.57784 0.28273,-0.62967 0.16032,-0.0534 0.24624,-0.58393 0.19844,-1.2253 l -0.0843,-1.13104 -1.25391,1.13755 c -1.18635,1.07627 -1.25096,1.2052 -1.19926,2.39306 0.0391,0.89846 -0.0773,1.38741 -0.40931,1.71933 -0.40603,0.40593 -0.49603,0.41429 -0.72092,0.067 -0.14133,-0.21828 -0.22632,-0.87313 -0.18887,-1.45521 0.0654,-1.01629 0.0387,-1.05489 -0.67163,-0.97166 l -0.73973,0.0867 0.41466,-0.99242 c 0.22806,-0.54583 0.51088,-1.12061 0.62849,-1.2773 0.32897,-0.43827 0.35423,-2.21022 0.0399,-2.79759 -0.15452,-0.28873 -0.29666,-0.94281 -0.31586,-1.45352 -0.0553,-1.47155 -0.98489,-1.17725 -1.52634,0.48324 -0.24849,0.76205 -0.25975,1.28942 -0.0452,2.11667 0.27119,1.04551 0.75564,4.5664 0.95943,6.97287 0.0627,0.74032 -0.0335,1.21433 -0.28945,1.42677 -0.55695,0.46223 -0.73609,0.14052 -0.94275,-1.69301 -0.48639,-4.31535 -0.69624,-5.7709 -0.85492,-5.92958 -0.0949,-0.0949 -0.35655,0.0901 -0.58144,0.41123 -0.22489,0.32108 -0.51591,0.51764 -0.64671,0.4368 -0.30369,-0.18769 -0.0367,-1.6685 0.43855,-2.43226 0.44569,-0.71625 0.45519,-1.16705 0.0529,-2.5098 l -0.31175,-1.04053 -0.48859,1.00449 c -0.71168,1.46313 -0.83147,2.7107 -0.38098,3.96782 0.21692,0.60531 0.31417,1.18995 0.21613,1.29919 -0.098,0.10925 -0.0592,0.13167 0.0863,0.0498 0.29573,-0.16634 0.50836,3.26465 0.25232,4.07136 -0.23021,0.72535 -1.17651,0.63959 -1.15617,-0.10477 0.0287,-1.05073 -0.21358,-3.12385 -0.38516,-3.29543 -0.0914,-0.0914 -0.1662,-0.43699 -0.1662,-0.76795 0,-0.73413 -0.47276,-1.08783 -0.69164,-0.51745 -0.0873,0.2275 -0.44364,0.41364 -0.79188,0.41364 -0.84673,0 -0.83397,-0.76437 0.0283,-1.69479 0.66748,-0.72022 0.85965,-1.69176 0.42623,-2.15489 -0.12937,-0.13825 -0.30367,-0.96573 -0.38734,-1.83886 -0.0837,-0.87312 -0.1564,-1.61726 -0.16164,-1.65364 -0.005,-0.0364 -0.13115,-0.0661 -0.27979,-0.0661 -0.14865,0 -0.40979,0.32742 -0.58033,0.7276 -0.17054,0.40019 -0.48166,0.93327 -0.69138,1.18464 -0.27034,0.32404 -0.32691,0.74751 -0.19438,1.45521 0.10281,0.549 0.23058,1.2363 0.28392,1.52734 0.12889,0.70319 0.66077,4.48402 0.82203,5.84338 0.16474,1.38861 -0.45712,2.08461 -0.99981,1.11902 -0.1893,-0.33682 -0.36198,-0.79099 -0.38374,-1.00927 -0.0218,-0.21829 -0.19059,-1.17079 -0.37518,-2.11667 -0.1846,-0.94589 -0.36205,-2.01745 -0.39435,-2.38125 -0.0323,-0.3638 -0.0741,-0.81029 -0.0928,-0.99219 -0.0525,-0.5093 -0.66235,-0.39193 -1.03104,0.19844 -0.18176,0.29104 -0.48821,0.52917 -0.68101,0.52917 -0.52101,0 -0.43523,-0.82221 0.17697,-1.69636 0.6822,-0.97408 1.01698,-2.96385 0.56219,-3.3413 -0.2447,-0.20308 -0.53482,0.17458 -1.15937,1.50921 -0.77513,1.65642 -0.81207,1.86379 -0.53173,2.98499 0.1657,0.6627 0.42905,2.12045 0.58521,3.23943 0.22866,1.63836 0.21452,2.11816 -0.0726,2.46411 -0.4768,0.57452 -0.61148,0.30657 -1.33487,-2.65561 -0.70389,-2.88233 -0.73892,-2.94716 -1.2207,-2.25932 -0.21134,0.30173 -0.54576,0.5486 -0.74315,0.5486 -0.26829,0 -0.30352,0.18367 -0.13958,0.7276 0.12061,0.40018 0.34839,1.15278 0.50618,1.67243 0.15778,0.51966 0.28688,1.13645 0.28688,1.37066 0,0.23421 0.24284,0.46388 0.53965,0.51038 1.51886,0.23797 -0.31837,1.50054 -2.51313,1.72706 -1.24392,0.12838 -1.4661,0.0856 -1.4661,-0.28258 0,-0.23864 0.0893,-0.44908 0.19844,-0.46765 0.10914,-0.0186 0.45013,-0.0611 0.75777,-0.0944 1.00647,-0.10917 1.2216,-0.40233 1.04527,-1.42439 -0.30261,-1.75409 -0.47667,-4.6682 -0.26675,-4.46609 0.2335,0.22481 1.17569,-0.53394 1.17569,-0.94679 0,-0.14789 0.19124,-0.48021 0.42498,-0.73849 0.37272,-0.41186 0.38305,-0.64213 0.084,-1.87292 -0.18754,-0.77182 -0.42238,-1.50049 -0.52187,-1.61927 -0.29466,-0.35176 -1.65381,2.18026 -1.36669,2.54606 0.1363,0.17365 0.31638,0.76221 0.40018,1.30792 0.13095,0.85265 0.0815,0.99218 -0.35171,0.99218 -0.27724,0 -0.66894,-0.31465 -0.87044,-0.69923 -0.23418,-0.44695 -0.43379,-0.59014 -0.55324,-0.39687 -0.30388,0.49169 -1.21397,0.36133 -1.21397,-0.1739 0,-0.26193 0.10652,-0.58936 0.23671,-0.7276 0.13019,-0.13825 0.32427,-0.66574 0.43129,-1.17221 0.17323,-0.81981 0.14871,-0.88278 -0.22347,-0.5739 -0.46037,0.38207 -1.50286,2.40032 -1.50286,2.90951 0,0.1769 -0.17859,0.39018 -0.39687,0.47394 -0.26944,0.10339 -0.39688,0.52552 -0.39688,1.31461 0,1.11508 -0.0323,1.16232 -0.79375,1.16232 -0.84714,0 -0.90091,-0.11005 -0.80798,-1.65365 0.0599,-0.99444 -0.3828,-1.3798 -0.68384,-0.59531 -0.13135,0.3423 -1.4186,0.59834 -1.4186,0.28216 0,-0.0631 0.36751,-0.7059 0.81668,-1.42847 0.80057,-1.28784 0.80953,-1.33909 0.45417,-2.59727 -0.51926,-1.83848 -0.67724,-1.72724 -2.20778,1.5546 -0.5634,1.20807 -0.65672,1.66392 -0.46042,2.24896 0.14476,0.4314 0.15151,1.11537 0.0164,1.65981 -0.1264,0.50933 -0.27334,1.30177 -0.32653,1.76099 -0.0878,0.75784 -0.0195,0.84821 0.73925,0.97867 0.45977,0.0791 1.70591,0.10192 2.7692,0.0508 1.84515,-0.0887 1.92954,-0.0673 1.85208,0.47018 -0.0636,0.44095 -0.33946,0.60755 -1.27178,0.76796 -0.65485,0.11266 -1.36922,0.1299 -1.5875,0.0383 -0.21829,-0.0916 -0.88442,-0.1433 -1.48031,-0.11489 -0.82556,0.0394 -1.27547,-0.10994 -1.89028,-0.62727 -0.44376,-0.3734 -1.10734,-0.67891 -1.47461,-0.67891 -1.01388,0 -1.5048,-0.26819 -1.5048,-0.82206 0,-0.51672 0.0757,-0.53716 2.05052,-0.55362 0.97442,-0.008 1.12199,-0.0847 1.10588,-0.57362 -0.0102,-0.31034 -0.10513,-0.78415 -0.2109,-1.05292 -0.17461,-0.44372 -0.22456,-0.4498 -0.54297,-0.0661 -0.4464,0.53788 -1.07962,0.54674 -1.07962,0.0151 0,-0.22408 0.24847,-0.89445 0.55214,-1.4897 0.40262,-0.78919 0.50534,-1.33178 0.37932,-2.00354 l -0.17283,-0.92124 -0.97463,1.34482 c -0.89512,1.23512 -1.67172,1.68031 -2.00121,1.1472 -0.1704,-0.27572 0.1768,-0.87936 1.95824,-3.40459 0.80344,-1.13891 1.78523,-2.68129 2.18174,-3.4275 0.39651,-0.74622 0.87046,-1.63919 1.05323,-1.98438 0.43959,-0.83025 2.31061,-3.68442 2.78459,-4.24779 0.42097,-0.50036 1.11858,-0.36132 1.11858,0.22294 0,0.21043 -0.29766,0.82064 -0.66146,1.35602 -0.3638,0.53539 -0.66146,1.09725 -0.66146,1.2486 0,0.15134 -0.38695,0.7424 -0.85989,1.31346 -1.47842,1.78513 -3.36837,5.01322 -3.09525,5.28676 0.13804,0.13824 0.25098,0.46567 0.25098,0.7276 0,1.00884 0.52349,0.38025 1.75174,-2.10343 0.70166,-1.41883 1.60658,-3.07739 2.01095,-3.6857 0.40437,-0.6083 0.73787,-1.26314 0.74111,-1.45521 0.003,-0.19206 0.23871,-0.64686 0.52328,-1.01066 0.28457,-0.3638 0.52005,-0.74546 0.52328,-0.84814 0.003,-0.10268 0.29493,-0.61262 0.6482,-1.13319 0.35327,-0.52058 0.68069,-1.05284 0.7276,-1.18281 0.0469,-0.12997 0.41272,-0.31756 0.8129,-0.41685 0.6101,-0.15139 0.7276,-0.0957 0.7276,0.34491 0,0.289 -0.18729,0.6809 -0.41621,0.87088 -0.62951,0.52245 -1.49639,2.3698 -1.35884,2.89576 0.0793,0.30305 -0.23493,0.77234 -0.90382,1.35006 -0.56391,0.48705 -1.02529,1.03178 -1.02529,1.21051 0,0.17872 -0.3006,0.76791 -0.668,1.3093 -0.68319,1.00674 -0.73538,1.5527 -0.14842,1.5527 0.18157,0 0.4778,0.27594 0.65831,0.61321 0.40215,0.75144 0.5517,0.59591 1.73441,-1.80384 0.46617,-0.94588 0.98146,-1.95791 1.14508,-2.24896 1.1365,-2.0216 2.3057,-4.49017 2.3057,-4.86812 0,-0.2475 0.14585,-0.59585 0.3241,-0.7741 0.25575,-0.25575 0.25546,-0.43403 -0.001,-0.84529 -0.27351,-0.43797 -0.2402,-0.60646 0.20864,-1.0553 0.29376,-0.29377 1.00876,-0.72403 1.58888,-0.95615 0.58012,-0.23212 1.05476,-0.50932 1.05476,-0.61601 0,-0.10668 0.45361,-0.32988 1.00803,-0.49599 0.55442,-0.1661 1.28955,-0.60167 1.63362,-0.96792 0.34408,-0.36625 0.78343,-0.66591 0.97634,-0.66591 0.19292,0 0.56075,-0.20836 0.81741,-0.46302 0.25666,-0.25466 0.79244,-0.60929 1.19062,-0.78808 0.39819,-0.17878 0.72398,-0.5062 0.72398,-0.7276 0,-0.2214 0.12388,-0.40255 0.2753,-0.40255 0.15141,0 0.61634,-0.25214 1.03318,-0.56032 0.41683,-0.30818 0.88826,-0.47975 1.04762,-0.38126 0.49756,0.3075 0.32063,0.61446 -0.52386,0.90885 -0.44748,0.156 -0.73759,0.40661 -0.64469,0.55692 0.0929,0.15032 -0.0172,0.34473 -0.24474,0.43203 -0.2275,0.0873 -0.41364,0.26506 -0.41364,0.39501 0,0.37752 0.57836,0.27376 1.09866,-0.1971 0.44794,-0.40538 0.49428,-0.39255 0.71718,0.19843 0.1472,0.3903 0.138,0.82291 -0.0241,1.13172 -0.1443,0.27494 -0.35944,0.81072 -0.47808,1.19062 -0.11865,0.3799 -0.46013,1.33667 -0.75885,2.12616 -0.29871,0.78949 -0.61285,1.90295 -0.69808,2.47436 -0.0852,0.57141 -0.26645,1.3322 -0.40273,1.69065 -0.13628,0.35844 -0.24852,0.91185 -0.24942,1.2298 -8.9e-4,0.31795 -0.17456,0.90962 -0.38591,1.31482 -0.21136,0.4052 -0.44091,1.22952 -0.5101,1.83181 -0.0701,0.61061 -0.3091,1.19765 -0.54012,1.32693 -0.48416,0.27095 -0.53678,1.06987 -0.12156,1.84572 0.26813,0.501 0.35666,0.41607 1.0524,-1.00959 0.79643,-1.63196 0.92362,-2.36172 0.52219,-2.99616 -0.33994,-0.53727 0.39162,-1.89805 0.91286,-1.69803 0.21714,0.0833 0.40967,0.0197 0.42786,-0.14139 0.0182,-0.16109 0.048,-0.406 0.0661,-0.54425 0.0182,-0.13824 0.1819,-0.40018 0.36381,-0.58208 0.1819,-0.1819 0.33073,-0.49728 0.33073,-0.70085 0,-0.20356 0.16608,-0.7453 0.36907,-1.20385 0.20299,-0.45856 0.51063,-1.66718 0.68364,-2.68582 0.17301,-1.01865 0.42365,-2.38787 0.55698,-3.04271 0.13333,-0.65484 0.33792,-1.78895 0.45464,-2.52025 0.27103,-1.69814 0.477,-2.01398 1.19575,-1.83358 0.4539,0.11392 0.88665,-0.17046 1.96816,-1.29338 0.76249,-0.79167 1.39141,-1.54156 1.39762,-1.66641 0.0187,-0.37714 1.88803,-2.31825 3.29601,-3.42266 0.7276,-0.57072 1.36709,-1.14045 1.42109,-1.26605 0.054,-0.12561 0.201,-0.0661 0.32668,0.13229 0.18082,0.2854 0.22935,0.26776 0.23255,-0.0845 0.004,-0.42676 0.75346,-0.84307 1.59155,-0.88393 0.218293,-0.0106 0.873133,-0.22552 1.455213,-0.47751 1.24719,-0.53992 2.37917,-2.01794 3.2764,-4.27796 0.34681,-0.87358 0.77331,-1.76692 0.94779,-1.9852 0.67954,-0.85015 2.24913,-5.14354 2.25524,-6.1689 0.006,-0.98551 1.79484,-4.30777 2.92289,-5.42806 1.81732,-1.80481 2.90456,-2.24805 4.99158,-2.03493 0.96013,0.098 1.97475,0.17508 2.25471,0.17118 0.27996,-0.004 0.90918,0.34427 1.39826,0.77369 0.48909,0.42943 1.05034,0.78077 1.24722,0.78077 0.19688,0 1.13822,0.36513 2.09188,0.8114 1.84296,0.86243 2.23822,0.83212 3.32534,-0.255 0.83386,-0.83386 5.51919,-1.70477 8.95113,-1.66384 1.67748,0.02 1.9619,-0.0478 2.3151,-0.55208 0.22147,-0.31619 0.40267,-0.48341 0.40267,-0.3716 0,0.17143 1.74586,-1.02019 2.8331,-1.93371 0.45512,-0.3824 0.87107,-0.33193 0.87107,0.10568 0,0.34255 -1.54645,1.48482 -3.49009,2.57791 -0.42888,0.2412 -0.98258,0.62207 -1.23044,0.84638 -0.29741,0.26915 -0.98848,0.41064 -2.03225,0.41607 -3.47424,0.0181 -6.56208,0.66346 -8.57954,1.79316 -1.30421,0.73031 -2.80846,1.00778 -3.08015,0.56816 -0.24194,-0.39146 -4.35001,-2.34253 -4.93232,-2.34253 -0.26748,0 -0.77617,-0.18991 -1.13042,-0.42202 -0.46809,-0.30671 -1.04703,-0.38798 -2.11862,-0.29742 -1.61794,0.13672 -1.64121,0.14644 -1.72278,0.71944 -0.14294,1.00397 0.0381,1.53413 0.57149,1.67362 0.6371,0.1666 0.62751,0.44747 -0.15969,4.67638 -0.45383,2.43801 -0.4062,5.30193 0.12734,7.65665 0.32121,1.4176 0.3313,1.4289 0.68067,0.76211 0.19504,-0.37225 0.3254,-1.2579 0.28969,-1.9681 -0.0357,-0.71021 0.0138,-1.88659 0.11005,-2.6142 0.11377,-0.8602 0.0487,-1.69308 -0.18618,-2.38125 -0.41718,-1.22254 -0.47039,-2.15497 -0.13481,-2.36237 0.12872,-0.0795 0.2516,-1.24531 0.27307,-2.59056 0.0379,-2.37642 0.28846,-3.23573 0.78914,-2.70676 0.13085,0.13825 0.31779,2.21589 0.41542,4.61698 0.0976,2.4011 0.27455,4.84188 0.39313,5.42396 l 0.2156,1.05833 0.0372,-1.05833 c 0.18814,-5.3549 0.2702,-6.81701 0.38931,-6.93612 0.0761,-0.0761 0.32211,0.0454 0.54673,0.27006 0.31569,0.3157 0.38851,0.87837 0.32081,2.4789 -0.092,2.17564 0.009,2.99654 0.36735,2.99654 0.11874,0 0.29528,-0.25011 0.3923,-0.5558 0.33591,-1.05836 0.64133,-0.0892 0.7426,2.35637 0.0557,1.34602 0.1678,2.51376 0.24902,2.59499 0.0812,0.0812 0.28058,-0.10065 0.44301,-0.40415 0.16243,-0.30351 0.46554,-0.55183 0.67358,-0.55183 0.30844,0 0.37732,0.62265 0.37317,3.37344 -0.003,1.85539 0.0457,3.67109 0.10783,4.03489 0.0621,0.3638 0.13836,0.89959 0.16944,1.19063 0.0437,0.40877 0.10873,0.35462 0.28605,-0.238 0.14752,-0.49305 0.10692,-1.29665 -0.11361,-2.24896 -0.39156,-1.69085 -0.31605,-2.14325 0.3577,-2.14325 0.27966,0 0.61194,-0.33055 0.80793,-0.80372 0.1831,-0.44205 0.46544,-0.75951 0.62741,-0.70547 0.30863,0.10297 0.31277,1.01521 0.0204,4.48575 -0.18315,2.17382 0.20176,2.90752 0.51095,0.97395 0.13287,-0.83095 0.2764,-1.05598 0.62913,-0.98634 0.30385,0.06 0.46429,0.35424 0.4788,0.87813 0.012,0.43335 0.0454,1.08556 0.0742,1.44937 0.05,0.63191 0.0658,0.63782 0.35244,0.13229 0.38189,-0.67346 0.81455,-0.95949 1.06798,-0.70606 0.10887,0.10887 0.21636,1.69496 0.23886,3.52464 0.0411,3.34381 -0.28761,4.98663 -0.99783,4.98663 -0.36088,0 -0.68954,-0.74014 -0.47954,-1.07994 0.13667,-0.22113 0.45037,-2.95291 0.40769,-3.55027 -0.0779,-1.09076 -0.49369,-2.57903 -0.62826,-2.24896 -0.26779,0.65681 -1.30391,5.6497 -1.28776,6.20551 0.008,0.28434 -0.0961,0.65085 -0.23188,0.81447 -0.1358,0.16363 -0.34372,0.76347 -0.46204,1.33298 -0.14049,0.67617 -0.42362,1.13942 -0.81593,1.33501 -0.33043,0.16474 -0.95117,0.63521 -1.37941,1.04549 -0.91316,0.87486 -1.48481,0.62542 -0.96479,-0.42099 0.7483,-1.50573 0.95972,-2.53506 0.7752,-3.77417 -0.29602,-1.98787 -1.02033,-1.44112 -1.08833,0.82154 -0.0149,0.49476 -0.3149,1.25583 -0.68783,1.74477 -0.36381,0.47697 -0.66411,0.97504 -0.66735,1.10682 -0.003,0.13179 -0.21909,0.51676 -0.47968,0.85551 -0.39605,0.51483 -0.52415,0.55523 -0.78061,0.24622 -0.23679,-0.28532 -0.18237,-0.69752 0.23853,-1.80652 0.29994,-0.79027 0.64135,-1.55591 0.7587,-1.70143 0.11735,-0.14552 0.18461,-0.91943 0.14947,-1.71979 -0.0884,-2.01289 -0.10894,-2.11667 -0.41948,-2.11667 -0.16907,0 -0.22071,0.44704 -0.13456,1.16475 0.0913,0.76072 0.004,1.42612 -0.25316,1.91823 -0.21614,0.41441 -0.39371,0.96658 -0.39461,1.22704 -9e-4,0.26046 -0.22522,0.9153 -0.49851,1.45521 -0.27328,0.5399 -0.57859,1.36037 -0.67846,1.82326 -0.0999,0.46289 -0.35253,0.98348 -0.56146,1.15687 -0.20892,0.1734 -0.37987,0.47928 -0.37987,0.67974 0,0.20047 -0.17859,0.36448 -0.39687,0.36448 -0.57414,0 -0.4934,-0.59453 0.35231,-2.59419 0.51581,-1.21962 0.75918,-2.26595 0.78126,-3.35893 0.0292,-1.44404 -0.003,-1.54109 -0.35231,-1.07391 -0.21141,0.28247 -0.38439,0.70247 -0.38439,0.93331 0,0.70524 -0.8079,1.64699 -1.26306,1.47233 -0.22793,-0.0875 -0.51141,-0.006 -0.62996,0.18066 -0.31224,0.49209 -0.27165,0.74617 0.10709,0.67042 0.53484,-0.10697 0.31135,3.09973 -0.295,4.23271 -0.16517,0.30863 -0.30123,0.95593 -0.30234,1.43844 -0.001,0.48251 -0.22832,1.62143 -0.50491,2.53093 -0.27659,0.90951 -0.43046,1.65365 -0.34194,1.65365 0.0885,0 0.0181,0.14287 -0.15654,0.3175 -0.17463,0.17462 -0.3175,0.68765 -0.3175,1.14005 0,0.45241 -0.17481,1.05368 -0.38846,1.33615 -0.21366,0.28248 -0.39225,0.82256 -0.39688,1.20019 -0.005,0.37763 -0.24654,0.9021 -0.53758,1.16548 -0.29104,0.26339 -0.52917,0.70354 -0.52917,0.97812 0,0.27457 -0.23812,0.75482 -0.52916,1.06721 -0.31283,0.33578 -0.52917,0.93372 -0.52917,1.46255 0,0.77635 -0.0787,0.88338 -0.59531,0.81001 -0.38258,-0.0543 -0.62553,-0.29729 -0.67986,-0.67986 -0.0947,-0.66706 -0.57691,-0.82286 -0.57691,-0.18642 0,0.2249 -0.29488,0.70378 -0.65528,1.06418 -0.99157,0.99157 -1.12647,1.39946 -1.17474,3.55197 -0.0464,2.07123 -0.31202,2.72833 -0.87512,2.16523 -0.21643,-0.21642 -0.32389,-1.2951 -0.32389,-3.25114 v -2.92726 l -0.60084,0.75083 c -0.33046,0.41296 -0.60143,0.84013 -0.60215,0.94927 -0.002,0.35754 -0.4703,0.20775 -0.62704,-0.20073 -0.1631,-0.42503 0.007,-0.88187 1.03336,-2.77583 0.39742,-0.73334 0.64628,-1.6285 0.64796,-2.33072 0.003,-1.26703 -0.3877,-1.28447 -0.66331,-0.0296 -0.0977,0.44473 -0.34497,0.87282 -0.54953,0.95132 -0.20456,0.0785 -0.37192,0.40934 -0.37192,0.73522 0,0.32587 -0.18689,0.96713 -0.41531,1.425 -0.41503,0.83194 -0.36286,1.4542 0.22127,2.63944 0.22278,0.45204 0.22407,0.66061 0.005,0.79607 -0.16333,0.10094 -0.33643,0.59922 -0.38465,1.10727 -0.12258,1.2916 -0.58148,1.05239 -0.79712,-0.41553 -0.261593,-1.78064 -0.426343,-2.12879 -0.820573,-1.73403 -0.21753,0.21782 -0.32206,1.36226 -0.32206,3.52622 0,2.19165 -0.0968,3.23655 -0.30648,3.3076 -0.16857,0.0571 -0.37968,-0.0146 -0.46914,-0.15933 z m -2.25291,-9.02577 c 0.35518,-0.23385 0.6041,-2.11606 0.27986,-2.11606 -0.16172,0 -0.29403,0.2339 -0.29403,0.51978 0,0.28588 -0.29301,1.0446 -0.65112,1.68604 -0.35811,0.64144 -0.57207,1.24531 -0.47545,1.34192 0.0966,0.0966 0.34739,-0.15609 0.55728,-0.56156 0.20989,-0.40547 0.47245,-0.79702 0.58346,-0.87012 z m 3.18737,0.59593 c 0.15291,-0.40019 0.20965,-1.14432 0.12609,-1.65364 -0.0836,-0.50933 -0.17193,-1.07487 -0.19638,-1.25677 -0.0671,-0.4996 -0.43123,-0.39719 -0.75789,0.21317 -0.33063,0.61778 -0.077,3.42485 0.3095,3.42485 0.13236,0 0.36576,-0.32743 0.51868,-0.72761 z m 6.586043,-1.95455 c 0.9144,-1.71558 1.02664,-2.5347 0.69339,-5.06048 -0.28053,-2.12626 -0.53228,-1.87321 -1.1222,1.12805 -0.0715,0.3638 -0.24195,0.77457 -0.37877,0.91282 -0.13681,0.13824 -0.24875,0.46566 -0.24875,0.7276 0,0.26194 -0.10657,0.47625 -0.23682,0.47625 -0.17366,0 -0.21462,2.84536 -0.0486,3.37343 0.11766,0.37418 0.6276,-0.21782 1.34172,-1.55767 z m -10.437073,-1.40871 c 0.0421,-0.3833 0.22286,-0.87327 0.40175,-1.08882 0.45281,-0.5456 0.14943,-4.67993 -0.40108,-5.4659 -0.22523,-0.32157 -0.40952,-0.7963 -0.40952,-1.05496 0,-0.44973 -0.27119,-0.58367 -0.99218,-0.49005 -0.46924,0.0609 -0.40954,-0.25419 0.13229,-0.6983 0.25466,-0.20874 0.30942,-0.30118 0.12168,-0.20544 -0.25889,0.13204 -0.29502,-0.007 -0.14958,-0.57569 0.28562,-1.11684 0.26192,-1.74212 -0.0704,-1.8582 -0.51221,-0.1789 -1.28556,2.76349 -1.18648,4.51426 0.0231,0.40805 0.0975,0.43776 0.422,0.16846 0.21667,-0.17983 0.33401,-0.42396 0.26074,-0.54252 -0.15356,-0.24845 0.89787,-0.64136 1.12051,-0.41872 0.0813,0.0813 -0.10994,0.83711 -0.425,1.67956 -0.52523,1.40446 -0.54751,1.69645 -0.26823,3.51434 0.27566,1.7943 0.36768,2.51518 0.4714,3.69297 0.0567,0.64345 0.88209,-0.35084 0.97212,-1.17098 z m -23.13488,-0.72738 c 0.44552,-0.88257 0.85819,-1.85617 0.91703,-2.16354 0.0588,-0.30736 0.25721,-0.68029 0.44081,-0.82872 0.73173,-0.59155 2.29599,-4.48523 1.72551,-4.29507 -0.16516,0.055 -0.4148,0.44984 -0.55477,0.87731 -0.13997,0.42747 -0.47483,1.06116 -0.74414,1.40821 -0.26931,0.34704 -0.48966,0.837 -0.48966,1.0888 0,0.25179 -0.23812,0.76053 -0.52916,1.13053 -0.29105,0.37 -0.53134,0.77301 -0.53399,0.89557 -0.003,0.12257 -0.35983,0.74679 -0.79375,1.38715 -0.75144,1.10896 -1.09862,2.6302 -0.51843,2.27163 0.14878,-0.0919 0.63503,-0.88929 1.08055,-1.77187 z m 28.943403,0.58692 c 0.0982,-0.58098 0.47771,-1.67664 0.84347,-2.4348 0.7338,-1.52111 0.80709,-2.39978 0.34877,-4.1818 -0.16842,-0.65484 -0.29793,-1.46505 -0.2878,-1.80046 0.0246,-0.81275 -0.40803,-0.51438 -0.59177,0.40816 -0.0801,0.40196 -0.4603,1.61332 -0.84498,2.69192 -0.636593,1.7849 -0.674403,2.10311 -0.42094,3.54203 0.15317,0.86953 0.22164,1.67295 0.15216,1.78537 -0.16649,0.26939 0.13762,1.0459 0.40961,1.0459 0.11716,0 0.29333,-0.47535 0.39148,-1.05632 z m 7.55615,-0.20045 c 0.008,-0.10915 0.0656,-0.73422 0.1273,-1.38907 0.13016,-1.38239 -0.25244,-0.96419 -0.54464,0.59532 -0.12419,0.66283 -0.0883,0.99218 0.10813,0.99218 0.16171,0 0.30086,-0.0893 0.30921,-0.19843 z M 79.583867,168.9672 c 0.31471,-0.22397 1.31076,-3.24415 1.15372,-3.49825 -0.0813,-0.1316 0.0314,-0.44012 0.25045,-0.68561 0.21908,-0.2455 0.4355,-0.80354 0.48092,-1.2401 0.0454,-0.43656 0.23503,-1.0286 0.42134,-1.31564 0.18632,-0.28705 0.33875,-0.96463 0.33875,-1.50574 0,-0.54112 0.10791,-1.05054 0.2398,-1.13205 0.13189,-0.0815 0.3222,-0.74736 0.42292,-1.47967 0.10072,-0.7323 0.41957,-1.95256 0.70856,-2.71168 0.80748,-2.12108 0.8434,-2.30667 0.44552,-2.30221 -0.63628,0.007 -1.15413,0.48789 -1.19641,1.11072 -0.0356,0.52471 -0.53706,2.11015 -1.06999,3.38314 -0.0914,0.21828 -0.18641,0.45641 -0.21117,0.52917 -0.0248,0.0728 -0.16871,0.42995 -0.31988,0.79375 -0.15116,0.3638 -0.36552,1.07818 -0.47634,1.5875 -0.11082,0.50932 -0.48318,1.34063 -0.82746,1.84736 -0.34428,0.50672 -0.63113,1.16156 -0.63744,1.4552 -0.006,0.29365 -0.28401,1.0086 -0.61711,1.58878 l -0.60563,1.05489 0.54479,1.67562 c 0.29963,0.92159 0.59518,1.51846 0.65678,1.32637 0.0616,-0.1921 0.19564,-0.40879 0.29788,-0.48155 z m 8.30723,-0.32749 c 0.38372,-1.98556 0.41755,-2.5553 0.16114,-2.71377 -0.14887,-0.092 -0.3421,0.0189 -0.42941,0.24636 -0.0873,0.22751 -0.38411,0.41365 -0.65958,0.41365 -0.59905,0 -0.59289,-0.0628 -0.12417,1.26573 0.20719,0.58722 0.31433,1.13005 0.23809,1.20628 -0.20823,0.20824 0.18248,0.73204 0.43133,0.57825 0.11868,-0.0734 0.29085,-0.52178 0.3826,-0.9965 z m 3.57324,-0.85894 c 0.59917,-1.44561 0.59967,-1.45836 0.13554,-3.42711 -0.25623,-1.08686 -0.54842,-1.92509 -0.64931,-1.86274 -0.1009,0.0624 -0.25852,0.56276 -0.35029,1.11201 -0.0918,0.54925 -0.26173,1.53442 -0.37772,2.18927 -0.21355,1.20571 0.0722,3.43958 0.44004,3.43958 0.11018,0 0.47096,-0.65295 0.80174,-1.45101 z m -15.84987,0.40829 c 0,-0.28245 0.121,-0.58834 0.2689,-0.67974 0.14789,-0.0914 0.21154,-0.25899 0.14144,-0.37242 -0.0701,-0.11343 0.10655,-0.45741 0.39256,-0.7644 0.28601,-0.307 0.52002,-0.7193 0.52002,-0.91623 0,-0.19692 0.21503,-0.58885 0.47785,-0.87095 0.26281,-0.28211 0.50236,-0.63198 0.53233,-0.7775 0.13532,-0.65721 0.37625,-1.38413 0.70152,-2.11667 0.96716,-2.17813 2.2637,-5.44469 2.32995,-5.87019 0.0411,-0.26389 0.16758,-0.62863 0.28109,-0.81053 0.11852,-0.18992 0.0813,-0.33073 -0.0873,-0.33073 -0.16153,0 -0.47996,0.44648 -0.70762,0.99218 -0.22765,0.54571 -0.81362,1.5949 -1.30214,2.33154 -0.97031,1.46312 -1.69652,3.0403 -1.69652,3.68449 0,0.22585 -0.29915,0.88452 -0.66477,1.46371 -0.36563,0.57919 -0.57399,1.0549 -0.46302,1.05713 0.11096,0.002 0.0501,0.10027 -0.13518,0.21788 -0.18531,0.11761 -0.38309,0.44321 -0.43952,0.72355 -0.0564,0.28035 -0.23223,0.8449 -0.39068,1.25455 -0.36091,0.93314 -0.37486,2.29788 -0.0235,2.29788 0.14552,0 0.26459,-0.2311 0.26459,-0.51355 z m 22.81994,-0.38474 c 0.50437,-1.05768 0.351,-2.20323 -0.23038,-1.72072 -0.20051,0.16641 -0.36638,0.55587 -0.36861,0.86547 -0.002,0.30961 -0.11344,0.73583 -0.24713,0.94716 -0.24936,0.39418 -0.13803,0.80638 0.21779,0.80638 0.10998,0 0.39273,-0.40423 0.62833,-0.89829 z m 6.477483,-2.58685 c 0.0707,-0.62979 0.26227,-1.30946 0.42565,-1.51039 0.16338,-0.20092 0.32275,-1.43063 0.35416,-2.73269 0.0466,-1.93263 -0.007,-2.31426 -0.29137,-2.07815 -0.19167,0.15907 -0.41992,0.73393 -0.50723,1.27748 -0.0873,0.54355 -0.3367,1.76217 -0.55419,2.70806 -0.21749,0.94588 -0.39962,2.14643 -0.40473,2.66788 -0.0179,1.82383 0.76548,1.55767 0.97771,-0.33219 z M 86.822637,164.913 c 0.20204,-0.48356 0.36735,-1.20496 0.36735,-1.60312 v -0.72392 l -0.49609,0.81577 c -0.44286,0.72821 -0.6983,2.39047 -0.36736,2.39047 0.0708,0 0.29405,-0.39564 0.4961,-0.8792 z m 21.203863,0.0825 c 0.064,-0.33205 0.24924,-1.00664 0.41176,-1.49908 0.47893,-1.45118 -0.0631,-7.87479 -0.64805,-7.67981 -0.1614,0.0538 -0.30071,0.20696 -0.30959,0.34035 -0.009,0.1334 -0.099,0.95691 -0.20019,1.83004 -0.16297,1.40563 -0.22394,3.03214 -0.16592,4.42656 0.0105,0.2518 0.12533,0.5235 0.25524,0.60378 0.12991,0.0803 0.16878,0.32166 0.0864,0.53637 -0.16425,0.42804 0.13143,2.36818 0.33057,2.16904 0.0679,-0.0679 0.17585,-0.3952 0.23979,-0.72725 z m -10.620753,-1.90874 c -0.48537,-0.78535 -0.8462,0.49984 -0.43779,1.55933 0.14766,0.38306 0.22641,0.29191 0.37565,-0.43485 0.10385,-0.50572 0.13182,-1.01174 0.0621,-1.12448 z m 2.55039,0.0178 c 0,-0.29684 0.169313,-0.91489 0.376243,-1.37345 0.62742,-1.39033 1.01302,-4.95662 0.58247,-5.38717 -0.25726,-0.25727 -0.36133,-0.0278 -0.50521,1.11385 -0.0734,0.58208 -0.3141,1.54995 -0.534993,2.15081 -0.39171,1.0655 -0.52887,2.1118 -0.47449,3.6195 0.0303,0.84016 0.55598,0.72336 0.55598,-0.12354 z m -9.82385,-4.04927 c 0.0459,-1.39164 -0.0195,-2.03522 -0.18917,-1.86208 -0.4868,0.4967 -1.23734,5.7531 -0.90178,6.31557 0.30076,0.50412 1.02494,-2.45218 1.09095,-4.45349 z m 20.499053,4.15719 c 0.0701,-0.25466 0.26945,-1.11787 0.44292,-1.91823 0.17346,-0.80037 0.42176,-1.66195 0.55176,-1.91464 0.33052,-0.64244 0.30344,-0.69918 -0.26294,-0.55108 -0.27462,0.0718 -0.58252,-0.004 -0.68424,-0.16865 -0.24768,-0.40077 0.38274,-1.12912 0.82906,-0.95785 0.19497,0.0748 0.35449,0.0334 0.35449,-0.0919 0,-0.12539 -0.19191,-0.30162 -0.42646,-0.39162 -0.32153,-0.12339 -0.38698,-0.37447 -0.26601,-1.0205 0.0883,-0.47126 0.27891,-1.67658 0.42369,-2.67848 0.14478,-1.0019 0.39479,-1.98015 0.55559,-2.1739 0.36754,-0.44286 0.10696,-3.73969 -0.42907,-5.42858 -0.27379,-0.86263 -0.65135,-0.26301 -0.65436,1.03921 -0.002,0.68263 -0.17881,1.82113 -0.39387,2.52999 -0.21505,0.70886 -0.32154,1.56559 -0.23664,1.90385 0.0911,0.363 -0.0185,0.86187 -0.26759,1.21743 -0.45662,0.65192 -0.56551,1.54301 -0.18856,1.54301 0.29985,0 0.33546,2.14551 0.0416,2.50545 -0.12244,0.14997 -0.19089,1.22517 -0.1521,2.38934 0.0388,1.16417 0.0865,2.68221 0.10612,3.37344 0.0351,1.24099 0.40898,1.69289 0.65663,0.79375 z m -6.93074,-2.64583 c 0.0222,-0.25467 0.0534,-0.60345 0.0695,-0.77508 0.0161,-0.17163 0.117,-0.39983 0.22429,-0.50712 0.10728,-0.10728 0.19506,-0.57209 0.19506,-1.0329 0,-0.46082 0.0818,-0.91965 0.18178,-1.01962 0.19621,-0.19623 0.2004,-0.22145 0.47901,-2.88298 0.12954,-1.23756 0.0974,-1.78595 -0.10463,-1.78595 -0.37012,0 -0.39296,-2.56794 -0.0239,-2.69094 0.31876,-0.10625 0.68434,-3.52793 0.57328,-5.36561 -0.0721,-1.19254 -0.51044,-0.47767 -0.64088,1.04509 -0.21705,2.53383 -1.04182,6.88548 -1.47932,7.80521 -0.42846,0.90071 -0.53833,3.96137 -0.22558,6.28385 0.0637,0.47295 0.13068,0.97896 0.14887,1.12448 0.0568,0.45451 0.56014,0.28875 0.60254,-0.19843 z m -6.827353,-0.66146 c 0.083,-0.47295 0.0624,-1.51474 -0.046,-2.31511 -0.1852,-1.36835 -0.21735,-1.41846 -0.53867,-0.83949 -0.51276,0.92396 -0.33685,4.01449 0.22851,4.01449 0.11281,0 0.27306,-0.38695 0.35611,-0.85989 z m -19.70171,-1.01501 c 0.88255,-1.72434 0.98013,-2.09385 0.55298,-2.09385 -0.14916,0 -0.34313,0.35967 -0.43105,0.79926 -0.0879,0.4396 -0.26353,0.86333 -0.39026,0.94167 -0.12672,0.0783 -0.23041,0.33435 -0.23041,0.56897 0,0.23461 -0.19704,0.64431 -0.43788,0.91043 -0.24083,0.26612 -0.31406,0.48384 -0.16272,0.48384 0.15134,0 0.64604,-0.72464 1.09934,-1.61032 z m 15.88581,-2.74207 c 0.0112,-0.89461 -0.0785,-1.46576 -0.20767,-1.32292 -0.29282,0.32383 -0.8369,3.13876 -0.81142,4.19808 l 0.0196,0.81577 0.48992,-1.05833 c 0.29143,-0.62954 0.49787,-1.69617 0.50954,-2.63261 z m -4.4783,1.1774 c 0,-0.43656 -0.046,-0.79375 -0.10226,-0.79375 -0.0562,0 -0.15468,0.35719 -0.21876,0.79375 -0.0641,0.43655 -0.0181,0.79374 0.10226,0.79374 0.12032,0 0.21876,-0.35719 0.21876,-0.79374 z m 6.78207,-1.05092 c 0.0904,-0.28033 0.17943,-0.30231 0.31778,-0.0785 0.10572,0.17106 0.22641,-0.24899 0.26819,-0.93345 0.20071,-3.28799 0.19533,-3.34435 -0.32904,-3.44797 -0.3662,-0.0724 -0.45861,0.013 -0.34228,0.31611 0.0876,0.22838 0.0435,0.4868 -0.098,0.57428 -0.14154,0.0875 -0.20141,0.24956 -0.13304,0.36018 0.0684,0.11062 -0.0303,0.72747 -0.21923,1.37078 -0.24471,0.83316 -0.26939,1.43605 -0.0858,2.09569 0.14987,0.53846 0.30758,0.75993 0.3768,0.52917 0.0655,-0.21829 0.17555,-0.57214 0.24461,-0.78634 z m 11.320553,-1.12069 c -0.0368,-0.33358 -0.0768,-0.69581 -0.0889,-0.80495 -0.0121,-0.10914 -0.14773,-0.19844 -0.30133,-0.19844 -0.16388,0 -0.22856,0.35533 -0.15653,0.8599 0.15665,1.09736 0.13408,1.04637 0.39242,0.88671 0.12165,-0.0752 0.19111,-0.40964 0.15434,-0.74322 z m -15.068903,-0.8352 c -0.0749,-0.31077 0.14478,-1.66636 0.48816,-3.01243 0.62994,-2.46943 0.60337,-2.82977 -0.14628,-1.98438 -0.79186,0.89299 -1.61772,5.44 -1.08484,5.97288 0.3238,0.3238 0.88009,-0.40704 0.74296,-0.97607 z m 16.971543,0.21629 c 0.0478,-0.42973 0.2401,-1.61476 0.42732,-2.63341 0.34029,-1.85149 0.26701,-3.80317 -0.14687,-3.91137 -0.12072,-0.0316 -0.26228,0.53793 -0.31458,1.26554 -0.0523,0.7276 -0.25284,2.03729 -0.44565,2.91041 -0.38706,1.75277 -0.33203,3.39177 0.10894,3.24478 0.15615,-0.0521 0.32303,-0.44624 0.37084,-0.87595 z M 98.727067,151.637 c 0.22707,-0.87313 0.66304,-3.19485 0.96882,-5.15938 0.305783,-1.96453 0.663403,-3.90382 0.794723,-4.30954 0.23774,-0.7345 0.23455,-0.73692 -0.743173,-0.56388 -0.54006,0.0956 -1.22005,0.4032 -1.5111,0.6836 -0.29104,0.2804 -0.76729,0.68071 -1.05833,0.88958 -0.43018,0.30873 -0.46088,0.42472 -0.1641,0.62007 0.25294,0.1665 0.31324,0.51339 0.19635,1.12951 -0.0928,0.48906 -0.22585,1.42499 -0.29568,2.07983 -0.12535,1.17549 -0.12063,1.17045 0.37112,-0.39688 0.27394,-0.87312 0.57317,-1.91795 0.66495,-2.32183 0.17886,-0.78712 1.02091,-1.77921 1.51014,-1.77921 0.38546,0 0.0906,1.94759 -0.46073,3.04271 -0.56125,1.11492 -0.99614,3.18119 -1.03307,4.90844 -0.0173,0.80787 -0.11203,1.59931 -0.21058,1.75876 -0.0985,0.15945 -0.10029,0.68426 -0.004,1.16626 0.20354,1.01768 0.30054,0.84369 0.97456,-1.74805 z m 1.09677,2.24896 c 0.0899,-0.14552 0.0374,-0.26459 -0.11667,-0.26459 -0.15411,0 -0.2802,0.11907 -0.2802,0.26459 0,0.14552 0.0525,0.26458 0.11668,0.26458 0.0642,0 0.19026,-0.11906 0.28019,-0.26458 z m 2.615923,-3.39939 c 0.0556,-1.37729 0.20911,-2.30479 0.39144,-2.36557 0.16497,-0.055 0.29994,-0.63366 0.29994,-1.28594 0,-0.65229 0.11617,-1.40305 0.25816,-1.66836 0.14199,-0.26531 0.54789,-1.94041 0.90199,-3.72244 0.35411,-1.78203 0.80348,-3.34292 0.99861,-3.46864 0.57775,-0.37224 1.15814,-0.12806 1.05142,0.44235 -0.0534,0.28546 -0.15274,1.2334 -0.22073,2.10653 -0.14479,1.85934 0.30869,1.75823 0.58534,-0.13051 0.0958,-0.65386 0.31289,-1.27712 0.48248,-1.38501 0.22088,-0.14052 0.20665,-0.19732 -0.0502,-0.20022 -0.26339,-0.003 -0.32744,-0.30242 -0.24137,-1.12853 0.0644,-0.61847 0.014,-1.40902 -0.11202,-1.7568 -0.15986,-0.44106 -0.11632,-0.76117 0.14393,-1.05833 0.52578,-0.60036 0.72857,-1.42004 0.45794,-1.85106 -0.16907,-0.26928 -0.37662,-0.0358 -0.78118,0.87879 -0.30302,0.68502 -0.59085,1.54344 -0.63961,1.9076 -0.0488,0.36416 -0.22568,0.74678 -0.39314,0.85028 -0.16745,0.10349 -0.4787,0.60071 -0.69165,1.10494 -0.40814,0.96641 -1.99765,2.62633 -3.01419,3.14772 -0.33149,0.17002 -0.53263,0.42255 -0.44696,0.56116 0.0978,0.15829 0.34013,0.15335 0.65147,-0.0133 1.13249,-0.60609 1.35167,-0.13817 0.62118,1.32614 -0.2597,0.52057 -0.48052,1.75087 -0.54155,3.01721 -0.0567,1.17602 -0.22609,2.73353 -0.37646,3.46114 -0.48915,2.36682 -0.55437,3.23972 -0.25583,3.42423 0.15918,0.0984 0.29697,0.43974 0.30619,0.75857 0.0163,0.56289 0.0241,0.56134 0.27002,-0.0533 0.13928,-0.34818 0.29442,-1.65256 0.34475,-2.89863 z m 5.0322,-0.71807 c 0.20338,-0.97025 0.3438,-2.43504 0.31203,-3.25509 -0.0318,-0.82005 0.0446,-1.62843 0.16963,-1.79642 0.26736,-0.35911 -0.0103,-1.67895 -0.35325,-1.67895 -0.12975,0 -0.23719,0.32742 -0.23876,0.7276 -0.002,0.40019 -0.18071,1.31386 -0.39807,2.03039 -0.23945,0.78935 -0.33446,1.75066 -0.24108,2.43926 0.0848,0.62506 0.0751,1.26429 -0.0214,1.4205 -0.0965,0.15621 -0.2157,0.96354 -0.26479,1.79407 -0.0853,1.44296 -0.0725,1.47834 0.28832,0.79639 0.20768,-0.39252 0.544,-1.50751 0.74738,-2.47775 z m -13.072073,1.7032 c 0,-0.29202 0.11642,-0.74849 0.25872,-1.01437 0.14229,-0.26588 0.27547,-1.12126 0.29595,-1.90084 0.0205,-0.77957 0.20446,-1.6853 0.40884,-2.01272 0.20438,-0.32742 0.25682,-0.59531 0.11653,-0.59531 -0.7535,0 -2.13121,4.59296 -1.74382,5.81351 0.20766,0.65428 0.66378,0.45482 0.66378,-0.29027 z m -4.58728,-0.56231 c -0.0734,-0.1819 -0.13345,-0.0331 -0.13345,0.33073 0,0.3638 0.06,0.51263 0.13345,0.33073 0.0734,-0.18191 0.0734,-0.47956 0,-0.66146 z m 24.839333,-2.1827 c 0.0994,-0.79571 0.095,-1.65704 -0.01,-1.91405 -0.17614,-0.43178 -0.20718,-0.42708 -0.40823,0.0619 -0.3047,0.74104 -0.31202,3.63848 -0.009,3.45103 0.13534,-0.0837 0.32741,-0.80312 0.42683,-1.59884 z m 7.97452,0.87632 c -0.0845,-0.21106 -0.14716,-0.14837 -0.15985,0.15986 -0.0115,0.27891 0.0511,0.43518 0.13896,0.34726 0.0879,-0.0879 0.0973,-0.31612 0.0209,-0.50712 z m 0.34843,-1.15663 c 0,-0.20969 -0.11907,-0.38126 -0.26459,-0.38126 -0.14552,0 -0.26458,0.24515 -0.26458,0.54478 0,0.29963 0.11906,0.4712 0.26458,0.38126 0.14552,-0.0899 0.26459,-0.33508 0.26459,-0.54478 z m -6.10402,-1.25677 c 0.0102,-0.11773 -0.10046,-0.14047 -0.24598,-0.0505 -0.14552,0.0899 -0.25622,0.42439 -0.24599,0.74322 0.0179,0.5589 0.0268,0.56071 0.24599,0.0505 0.12506,-0.29104 0.23575,-0.62549 0.24598,-0.74322 z m 2.51464,-1.3073 c 0.22805,-1.41311 0.37915,-5.56965 0.23014,-6.3305 -0.27686,-1.41356 -0.74188,-0.4733 -0.8428,1.70414 -0.17827,3.84605 -0.0953,5.48626 0.27758,5.48626 0.10797,0 0.25876,-0.38696 0.33508,-0.8599 z m -23.713813,-0.8669 c -0.0815,-0.0815 -0.2294,0.0654 -0.32876,0.32632 -0.14359,0.37709 -0.1132,0.40748 0.14811,0.14812 0.18082,-0.17948 0.26212,-0.39297 0.18065,-0.47444 z m 14.701783,-0.85593 c 0.35116,-1.82651 0.44332,-3.76727 0.17888,-3.76727 -0.15261,0 -0.27747,-0.25797 -0.27747,-0.57327 0,-1.1211 -0.36882,-0.18363 -0.4107,1.04394 -0.0234,0.68701 -0.0738,1.36818 -0.11188,1.5137 -0.0381,0.14552 -0.0551,0.83716 -0.0379,1.53697 0.0329,1.33721 0.42141,1.48217 0.65909,0.24593 z m 3.19939,-1.99164 c 0.10782,-1.19927 0.0525,-1.96986 -0.17014,-2.37141 -0.18142,-0.32717 -0.30044,-0.69648 -0.26451,-0.82069 0.12323,-0.42587 -0.25551,-1.2371 -0.50545,-1.08264 -0.13742,0.0849 -0.18715,0.25588 -0.11051,0.37988 0.0766,0.124 -7.3e-4,1.04227 -0.17192,2.04061 -0.27473,1.60207 -0.25436,1.96415 0.17349,3.08445 0.58779,1.53911 0.8251,1.26083 1.04904,-1.2302 z m 2.37906,0.48214 c 0.0958,-1.0138 0.26282,-1.9663 0.37119,-2.11667 0.30246,-0.4197 0.3736,-1.98094 0.10651,-2.33724 -0.13087,-0.17457 -0.25987,-0.66501 -0.28667,-1.08985 -0.0507,-0.80296 -0.21468,-1.13269 -0.44758,-0.89979 -0.3884,0.3884 -0.60454,7.59886 -0.24521,8.18026 0.26204,0.424 0.31488,0.24113 0.50176,-1.73671 z m 1.46671,1.71098 c 0,-0.14552 -0.0525,-0.26459 -0.11668,-0.26459 -0.0642,0 -0.19026,0.11907 -0.2802,0.26459 -0.0899,0.14552 -0.0374,0.26458 0.11668,0.26458 0.15411,0 0.2802,-0.11906 0.2802,-0.26458 z m -9.6573,-2.11667 c 0.0899,-0.14552 0.0374,-0.26458 -0.11667,-0.26458 -0.15411,0 -0.2802,0.11906 -0.2802,0.26458 0,0.14552 0.0525,0.26458 0.11668,0.26458 0.0642,0 0.19026,-0.11906 0.28019,-0.26458 z m 1.16446,-7.09322 c 0.0144,-0.91809 -0.0755,-1.60646 -0.19964,-1.5297 -0.33644,0.20793 -0.60145,3.70424 -0.37823,4.98996 l 0.19435,1.11942 0.17868,-1.45521 c 0.0983,-0.80036 0.19045,-2.20638 0.20484,-3.12447 z m 9.40758,2.349 c 0.0837,-0.13546 0.0312,-0.32108 -0.11668,-0.41249 -0.14789,-0.0914 -0.2689,0.0194 -0.2689,0.2463 0,0.46475 0.15877,0.53318 0.38558,0.16619 z m -6.72943,-2.12221 c -0.0923,-0.51633 -0.0892,-1.31496 0.007,-1.77474 0.0961,-0.45977 0.0801,-1.41227 -0.0357,-2.11666 -0.11577,-0.70439 -0.21759,-1.42954 -0.22627,-1.61144 -0.0263,-0.55101 -0.54493,-0.3698 -0.54493,0.19039 0,0.28661 -0.23369,0.93717 -0.51931,1.44569 -0.34698,0.61778 -0.42496,0.98287 -0.235,1.10028 0.15637,0.0966 0.39367,0.0116 0.52734,-0.18892 0.15907,-0.23865 0.18283,-0.0904 0.0688,0.42912 -0.0958,0.43656 -0.18328,0.85328 -0.19432,0.92604 -0.0531,0.35008 0.37928,2.84901 0.51675,2.98647 0.38822,0.38823 0.7945,-0.49778 0.63565,-1.38623 z m 6.60844,-1.07107 c 0,-0.14552 -0.12609,-0.26458 -0.2802,-0.26458 -0.15411,0 -0.20662,0.11906 -0.11668,0.26458 0.0899,0.14552 0.21603,0.26458 0.2802,0.26458 0.0642,0 0.11668,-0.11906 0.11668,-0.26458 z m -1.32292,-0.79375 c 0,-0.14552 -0.12609,-0.26458 -0.2802,-0.26458 -0.15411,0 -0.20661,0.11906 -0.11668,0.26458 0.0899,0.14552 0.21603,0.26458 0.2802,0.26458 0.0642,0 0.11668,-0.11906 0.11668,-0.26458 z m -8.53671,-2.13756 c 0.17975,-0.35231 0.31681,-1.05728 0.30457,-1.56661 l -0.0223,-0.92604 -0.36226,1.19063 c -0.19924,0.65484 -0.49422,1.41194 -0.65552,1.68243 -0.2292,0.38438 -0.2166,0.46651 0.0577,0.37598 0.19303,-0.0637 0.49803,-0.40408 0.67778,-0.75639 z m 0.62402,-3.49971 c -0.20947,-0.20947 -0.28939,-0.14082 -0.28939,0.24859 0,0.69949 0.37,1.07078 0.48783,0.48952 0.05,-0.24679 -0.0393,-0.57894 -0.19844,-0.73811 z m 2.9466,-2.89554 c 0.0641,-0.61847 0.0417,-1.33965 -0.0498,-1.60264 -0.15954,-0.45853 -0.18466,-0.45795 -0.61185,0.0141 -0.59457,0.65699 -0.71473,1.7686 -0.1931,1.78629 0.21828,0.007 0.38034,0.21895 0.36013,0.4701 -0.0812,1.00905 0.3862,0.37795 0.49461,-0.66784 z m -53.705263,51.63715 c -0.32743,-0.12363 -0.59532,-0.32388 -0.59532,-0.44498 0,-0.3439 0.59659,-0.85519 0.99786,-0.85519 0.35359,0 1.11881,0.61407 1.11881,0.89783 0,0.35001 -0.97623,0.60818 -1.52135,0.40234 z m -6.53229,-1.01709 c -2.7437,-0.58878 -3.04557,-1.17276 -0.50821,-0.98314 2.74081,0.20483 3.91267,0.50691 4.01434,1.03481 0.11149,0.57892 -0.6177,0.56817 -3.50613,-0.0517 z m 8.68565,-0.13213 c -0.20728,-0.54016 0.0953,-0.9447 0.70652,-0.9447 0.67079,0 0.65834,0.57603 -0.0216,1.00068 -0.44339,0.2769 -0.56085,0.2673 -0.6849,-0.056 z m -8.9151,-1.64307 c -0.21138,-0.21138 0.0276,-0.62455 0.3612,-0.62455 0.13694,0 0.24897,0.17859 0.24897,0.39687 0,0.40916 -0.3122,0.52565 -0.61017,0.22768 z m 7.83887,-1.08757 c 0.0345,-1.13565 -0.0163,-1.25113 -0.52718,-1.19824 -0.87198,0.0903 -0.97556,-0.67795 -0.22421,-1.66301 0.36654,-0.48057 0.66644,-1.00076 0.66644,-1.15599 0,-0.15523 0.186,-0.4906 0.41333,-0.74526 1.20264,-1.34722 3.50194,-4.52936 3.36888,-4.66241 -0.0846,-0.0846 0.0418,-0.22885 0.28097,-0.32061 0.2391,-0.0917 0.43474,-0.29525 0.43474,-0.45222 0,-0.15697 0.46613,-0.83819 1.03584,-1.51383 0.5697,-0.67565 0.95657,-1.33815 0.85969,-1.47224 -0.0969,-0.13409 -0.56206,-0.44608 -1.03375,-0.69331 -0.82978,-0.43493 -0.86716,-0.43168 -1.15188,0.10031 -0.25981,0.48546 -0.46325,0.53239 -1.73776,0.40085 -1.42921,-0.14751 -1.44269,-0.14222 -1.36147,0.53446 0.0451,0.37589 0.29004,0.81368 0.54427,0.97286 0.37516,0.2349 0.59145,0.15005 1.14827,-0.45045 0.37733,-0.40693 0.82417,-0.69063 0.99298,-0.63045 0.58171,0.20739 0.16634,1.31171 -0.8726,2.31997 -0.57285,0.55592 -1.22579,1.36709 -1.451,1.80259 -0.22521,0.4355 -0.76763,1.00339 -1.20538,1.26197 -0.43775,0.25859 -1.01538,0.91373 -1.28361,1.45587 -0.90057,1.82021 -3.13437,3.83041 -3.66587,3.29892 -0.41028,-0.41029 2.56847,-4.39968 3.2851,-4.39968 0.1522,0 0.42467,-0.35718 0.6055,-0.79375 0.18083,-0.43656 0.41095,-0.79375 0.51138,-0.79375 0.28523,0 1.34071,-1.04958 1.34071,-1.33322 0,-0.13985 -0.41672,-0.25428 -0.92605,-0.25428 -0.50932,0 -0.92604,0.10255 -0.92604,0.2279 0,0.12534 -0.29765,0.17099 -0.66146,0.10144 -0.3638,-0.0695 -0.66145,-0.0117 -0.66145,0.1285 0,0.14022 -0.23813,0.52951 -0.52917,0.86508 -0.29104,0.33557 -0.52917,0.74976 -0.52917,0.9204 0,0.17065 -0.3119,0.59892 -0.69311,0.95171 -0.38122,0.35279 -0.97349,1.08074 -1.31618,1.61768 -0.41088,0.6438 -0.80556,0.96251 -1.15897,0.93589 -0.68798,-0.0518 -0.69145,-0.76332 -0.007,-1.38297 0.29105,-0.26339 0.52917,-0.66918 0.52917,-0.90176 0,-0.23258 0.35438,-0.75735 0.78751,-1.16616 0.43313,-0.4088 1.03395,-1.08938 1.33516,-1.51238 l 0.54764,-0.7691 -0.67369,-0.16909 c -0.37054,-0.093 -0.6737,-0.32203 -0.6737,-0.50897 0,-0.42845 0.88346,-0.78881 1.00919,-0.41164 0.15372,0.46116 0.99201,0.31668 1.51489,-0.26109 0.65304,-0.7216 1.59883,-0.58982 1.51393,0.21094 -0.0369,0.34813 0.0819,0.59446 0.28663,0.59446 0.57904,0 0.72525,-0.32878 0.34346,-0.77228 -0.58094,-0.67484 -0.66049,-1.4906 -0.2012,-2.0633 0.54896,-0.68452 2.14658,-1.24011 2.51282,-0.87387 0.17862,0.17862 0.37586,0.006 0.59924,-0.52569 0.39047,-0.92864 0.82219,-0.98541 2.00579,-0.26377 1.08499,0.66152 1.52775,0.67051 1.52775,0.031 0,-0.38593 0.255,-0.5351 1.12448,-0.65775 0.61846,-0.0872 1.30307,-0.11988 1.52135,-0.0725 0.21828,0.0473 0.83912,0.1772 1.37964,0.28855 0.54051,0.11135 1.12817,0.37767 1.3059,0.59182 0.66216,0.79786 -0.46332,0.8728 -3.61158,0.24051 -0.74636,-0.1499 -0.76324,-0.13574 -0.2828,0.23721 0.50184,0.38955 0.50033,0.40793 -0.0845,1.03048 -0.32751,0.34863 -0.56781,0.79598 -0.534,0.99412 0.10282,0.60249 -0.32739,1.81468 -0.64871,1.82786 -0.16613,0.007 -0.71877,0.61085 -1.22809,1.34229 -0.50932,0.73145 -1.26506,1.76767 -1.67941,2.30272 -0.41436,0.53504 -0.93651,1.32552 -1.16035,1.75663 -0.22384,0.4311 -0.75052,1.12737 -1.17042,1.54727 l -0.76345,0.76344 0.5559,0.89947 c 0.41731,0.67521 0.50925,1.11184 0.3688,1.75133 -0.25392,1.1561 -0.68772,1.79529 -1.2184,1.79529 -0.35642,0 -0.43473,-0.24364 -0.40397,-1.25677 z m -14.28115,0.0547 c -0.19652,-0.51212 -0.0444,-0.66653 0.71283,-0.72357 0.32965,-0.0248 0.65499,-0.25788 0.72298,-0.51787 0.13971,-0.53424 0.72339,-0.72827 2.43185,-0.80842 0.95573,-0.0448 1.19969,0.0364 1.27978,0.42638 0.065,0.3163 -0.0926,0.53187 -0.4588,0.62763 -0.43011,0.11248 -0.49072,0.22663 -0.26482,0.49882 0.54805,0.66037 -0.0358,0.90532 -2.15779,0.90532 -1.6571,0 -2.14294,-0.0875 -2.26603,-0.40829 z m 5.90948,-0.41595 c -0.0805,-0.30781 -0.0435,-0.75429 0.0821,-0.99219 0.25936,-0.491 0.59741,-1.49086 0.50406,-1.49086 -0.034,0 0.0816,-0.26789 0.25681,-0.59531 0.17523,-0.32743 0.50544,-0.59532 0.7338,-0.59532 0.3354,0 0.38802,0.22197 0.27377,1.15487 -0.29179,2.38258 -1.46765,3.98305 -1.85055,2.51881 z m -6.97873,-1.80737 c -0.10277,-0.39301 -0.23681,-0.47836 -0.46016,-0.293 -0.41187,0.34183 -2.17089,0.0508 -2.5653,-0.42445 -0.22272,-0.26836 -0.23029,-0.54072 -0.0274,-0.98602 0.30588,-0.67134 1.34363,-0.94853 3.57038,-0.95368 0.92948,-0.002 1.37804,-0.14152 1.71244,-0.53207 0.2492,-0.29105 0.55067,-0.52917 0.66993,-0.52917 0.11927,0 0.47245,-0.23813 0.78484,-0.52917 0.64539,-0.60126 1.26197,-0.69373 1.26197,-0.18925 0,0.63453 -3.14612,4.07598 -4.31908,4.72451 -0.38911,0.21514 -0.51071,0.1594 -0.62763,-0.2877 z m 0.44879,-1.07256 c 0.43878,-0.28356 0.3828,-0.30836 -0.8599,-0.38096 -1.12881,-0.066 -1.55932,0.1772 -0.72494,0.40944 0.94341,0.26258 1.13993,0.25905 1.58484,-0.0285 z m 3.54482,0.15721 c -0.0785,-0.20457 0.0385,-0.59153 0.26009,-0.85989 0.22155,-0.26837 0.9351,-1.18144 1.58567,-2.02905 1.9467,-2.53631 3.8137,-4.41203 4.39152,-4.41203 0.68516,0 0.68877,0.57407 0.008,1.19063 -0.29104,0.26339 -0.52917,0.63903 -0.52917,0.83476 0,0.19573 -0.11985,0.35587 -0.26633,0.35587 -0.14649,0 -0.49171,0.26789 -0.76716,0.59532 -1.34394,1.59749 -2.60189,3.11257 -3.19984,3.85389 -0.71609,0.88778 -1.25633,1.05927 -1.48226,0.47049 z M 150.27003,161.9863 c -1.5231,-0.99359 -1.71087,-1.25403 -1.24214,-1.72291 0.31605,-0.31614 0.48927,-0.26845 1.20136,0.33073 0.45764,0.38507 1.01291,0.70014 1.23394,0.70014 0.44062,0 1.93925,0.98578 1.938,1.27479 -4.3e-4,0.0992 -0.42754,0.18978 -0.94912,0.20123 -0.63555,0.0139 -1.35526,-0.24464 -2.18204,-0.78398 z m -4.54449,-4.2685 c -1.0538,-0.71861 -2.1331,-1.22917 -2.77813,-1.31418 -1.52321,-0.20076 -2.7728,-0.69484 -3.8582,-1.52551 -0.5229,-0.40018 -1.06919,-0.7276 -1.21398,-0.7276 -0.26133,0 -1.93576,-1.71038 -1.93576,-1.97732 0,-0.32717 1.0152,-0.1042 1.1523,0.25307 0.085,0.22142 0.32628,0.32499 0.5538,0.23768 0.2724,-0.10453 0.49264,0.0805 0.67887,0.57033 0.15162,0.39877 0.33943,0.66128 0.41736,0.58335 0.0779,-0.0779 0.81414,0.19748 1.636,0.61204 1.19104,0.60077 1.7167,0.72325 2.59017,0.60353 0.86711,-0.11885 1.20065,-0.043 1.59775,0.36327 0.60196,0.61587 2.95026,2.19363 3.26495,2.19363 0.29817,0 0.58424,0.77951 0.39716,1.08221 -0.26399,0.42715 -0.74558,0.24344 -2.50229,-0.9545 z m -3.07736,-4.44453 c -2.65855,-1.22008 -4.08206,-2.20451 -3.89451,-2.69325 0.19721,-0.51393 0.35271,-0.4963 1.15455,0.13091 0.3638,0.28457 0.78052,0.52155 0.92604,0.52663 0.14552,0.005 0.91943,0.33601 1.71979,0.7354 0.80036,0.39939 1.89878,0.89521 2.44092,1.10182 0.77031,0.29357 0.92223,0.45215 0.6952,0.7257 -0.43207,0.52062 -0.95701,0.42964 -3.04199,-0.52721 z m 14.01931,0.21796 c -0.56697,-0.41458 -0.12364,-0.70821 1.19525,-0.79165 0.52975,-0.0335 1.08225,-0.0921 1.22777,-0.13009 0.71889,-0.18788 1.71979,0.0271 1.71979,0.36937 0,0.67473 -3.36237,1.12304 -4.14281,0.55237 z m -22.97698,-2.12052 c -1.4344,-0.50869 -2.40221,-1.69323 -1.72526,-2.11161 0.24362,-0.15057 1.3025,0.27408 1.59297,0.63884 0.0728,0.0914 0.6383,0.38929 1.25677,0.66203 2.08061,0.91757 1.1232,1.60785 -1.12448,0.81074 z m 22.09271,-0.87682 c -1.00553,-0.45564 -1.85209,-1.20977 -1.85209,-1.64986 0,-0.78833 0.45045,-0.8336 1.16678,-0.11727 0.36948,0.36947 1.06177,0.73924 1.53844,0.8217 1.59249,0.27549 1.71996,0.36268 1.14682,0.78449 -0.54084,0.39803 -1.3356,0.46199 -1.99995,0.16094 z m -14.13398,-0.80694 c -0.0783,-0.12662 -0.85918,-0.49832 -1.7354,-0.826 -0.87622,-0.32769 -1.59312,-0.70034 -1.59312,-0.82812 0,-0.12777 -0.22962,-0.23232 -0.51027,-0.23232 -0.59825,0 -1.34182,-0.66933 -1.34182,-1.20786 0,-0.46059 0.69621,-0.37367 1.5875,0.19818 1.63153,1.04678 3.3711,1.80343 4.14619,1.80343 0.87109,0 1.79381,0.65148 1.52917,1.07966 -0.191,0.30904 -1.89272,0.31969 -2.08225,0.013 z m 28.22304,-2.47395 c -0.32742,-0.15791 -0.59531,-0.4475 -0.59531,-0.64355 0,-0.19604 -0.11907,-0.35644 -0.26459,-0.35644 -0.14552,0 -0.26458,-0.21967 -0.26458,-0.48816 0,-0.26849 -0.24539,-0.71024 -0.54532,-0.98167 -0.45999,-0.41628 -0.58194,-0.43425 -0.77936,-0.11481 -0.36969,0.59816 -0.57535,0.16034 -0.9578,-2.03898 -0.26854,-1.54429 -0.58601,-2.38363 -1.286,-3.39998 -0.55878,-0.81133 -0.92944,-1.66752 -0.92944,-2.14696 0,-0.84025 -1.29328,-5.40488 -1.78711,-6.30757 -0.15922,-0.29104 -0.4339,-1.09778 -0.6104,-1.79275 -0.1765,-0.69497 -0.42544,-1.32819 -0.55321,-1.40715 -0.12776,-0.079 -0.39478,-0.53246 -0.59338,-1.00776 -0.39924,-0.95554 -2.21636,-2.53448 -3.50255,-3.04347 -0.86011,-0.34038 -1.28336,-0.75146 -2.61357,-2.53845 -0.43329,-0.58208 -0.84802,-1.11786 -0.92161,-1.19062 -0.0736,-0.0728 -0.32686,-0.48948 -0.56283,-0.92605 -0.52867,-0.97809 -3.30298,-2.91448 -4.50491,-3.1443 -2.10306,-0.40213 -2.39741,-0.40352 -2.99173,-0.0141 -0.49372,0.32349 -0.64859,0.3363 -0.75826,0.0627 -0.0897,-0.22379 -0.14512,-0.18455 -0.15872,0.11238 -0.0115,0.25092 -0.37454,0.63911 -0.80679,0.86263 -0.43225,0.22353 -0.92012,0.65719 -1.08416,0.96371 -0.27809,0.51961 -0.32782,0.52752 -0.73545,0.11693 -0.40677,-0.40973 -0.39117,-0.47707 0.22427,-0.96778 1.66161,-1.32488 3.60155,-2.53171 3.9026,-2.42781 0.1819,0.0628 0.33073,-0.0142 0.33073,-0.17104 0,-0.43054 1.71234,-0.0802 3.4161,0.69889 1.49139,0.68199 3.22263,2.20977 4.14025,3.65368 1.71807,2.70344 3.16953,4.17184 4.18427,4.23313 0.77459,0.0468 1.75313,0.47724 1.75313,0.77119 0,0.17995 0.25267,0.554 0.56149,0.83121 1.00887,0.90561 3.38591,6.33408 3.81572,8.71399 0.10434,0.57775 0.29323,1.1817 0.41976,1.34211 0.12653,0.16041 0.30656,1.02362 0.40007,1.91823 0.0935,0.89461 0.2608,1.62657 0.37176,1.62657 0.289,0 1.57495,2.26142 1.57495,2.76963 0,0.61332 0.90862,2.30527 1.549,2.88441 0.47649,0.43092 2.15517,3.33455 2.15517,3.72783 0,0.20532 -0.31023,0.1491 -0.99219,-0.1798 z m -16.87637,-0.98766 c -0.84481,-0.34165 -1.3237,-1.03424 -0.96391,-1.39403 0.21615,-0.21615 0.47017,-0.22228 0.9016,-0.0217 0.33036,0.15356 0.92808,0.41054 1.32826,0.57106 0.40018,0.16052 0.72761,0.44768 0.72761,0.63813 0,0.40095 -1.20436,0.52574 -1.99356,0.20657 z m -22.94129,-0.45069 c -0.89331,-0.47065 -1.4216,-1.35686 -1.0377,-1.74076 0.18391,-0.18391 0.49893,-0.0903 0.98623,0.29299 0.39381,0.30977 1.04441,0.56321 1.44577,0.56321 0.66446,0 1.05096,0.39718 1.05096,1.07998 0,0.36757 -1.62285,0.23788 -2.44526,-0.19542 z m 9.05985,-2.01541 c -1.86765,-1.0754 -2.64226,-1.65488 -2.64403,-1.978 -0.003,-0.58728 0.9153,-0.35201 1.80764,0.46302 0.47798,0.43656 0.98495,0.79375 1.12661,0.79375 0.342,0 1.56186,0.80638 1.56186,1.03246 0,0.36512 -0.95662,0.20437 -1.85208,-0.31123 z m 9.28106,-2.55488 c -0.84739,-0.75655 -0.90613,-1.34135 -0.13473,-1.34135 0.21111,0 0.58773,0.23812 0.83693,0.52917 0.2492,0.29104 0.60522,0.52916 0.79116,0.52916 0.18594,0 0.33808,0.23813 0.33808,0.52917 0,0.77348 -0.81155,0.6644 -1.83144,-0.24615 z m -9.06469,-1.17676 c -1.29536,-0.77021 -2.06846,-1.48983 -2.06846,-1.92539 0,-0.62343 0.21235,-0.52499 2.87544,1.33294 0.60132,0.41952 1.09331,0.866 1.09331,0.99219 0,0.39144 -0.88154,0.206 -1.90029,-0.39974 z m -12.07273,-0.70406 c -0.57552,-0.53618 -0.78468,-1.31261 -0.3536,-1.31261 0.37217,0 1.9745,1.16564 2.0913,1.52135 0.17724,0.53981 -1.09875,0.38653 -1.7377,-0.20874 z m 10.2884,-3.37745 c -1.55478,-1.059 -1.88857,-1.54791 -1.22947,-1.80083 0.25098,-0.0963 0.82032,0.14454 1.40692,0.59518 0.54193,0.41632 1.22427,0.879 1.51631,1.02817 0.29203,0.14918 0.57052,0.4766 0.61886,0.72761 0.1413,0.73372 -0.73313,0.52572 -2.31262,-0.55013 z m -11.83938,-0.45778 c -0.9989,-0.44349 -1.67391,-1.32602 -1.67391,-2.18851 0,-0.78492 0.54557,-0.64662 0.98278,0.24914 0.17673,0.36208 0.65298,0.81357 1.05834,1.00331 0.40535,0.18975 0.89502,0.42049 1.08816,0.51277 0.19314,0.0923 0.37173,0.28683 0.39688,0.43235 0.0707,0.40922 -0.92109,0.40436 -1.85225,-0.009 z m 12.89857,-2.81464 c -1.28327,-0.87267 -1.3956,-1.38678 -0.25019,-1.14507 1.12479,0.23736 1.355,0.45579 1.24438,1.1807 l -0.0885,0.58023 z m -17.37825,-3.48295 c -0.85439,-0.73492 -0.67882,-1.41125 0.23306,-0.89781 0.61967,0.3489 1.22767,0.99418 1.24138,1.3175 0.0172,0.40537 -0.77858,0.17886 -1.47444,-0.41969 z m 14.7487,-1.91156 c -1.10665,-0.78678 -1.88877,-1.67334 -1.88877,-2.14101 0,-0.53531 0.387,-0.43898 1.84811,0.46005 1.10249,0.67837 1.32689,0.94685 1.32689,1.5875 0,0.91425 -0.11951,0.92293 -1.28623,0.0935 z"
       id="path24" />
  </g>
</svg>
