<?xml version="1.0" encoding="UTF-8" standalone="no"?>
<!-- Created with Inkscape (http://www.inkscape.org/) -->

<svg
   width="205.58131mm"
   height="77.572723mm"
   viewBox="0 0 205.5813 77.572729"
   version="1.1"
   id="svg1"
   inkscape:version="1.4.1-rc (06eac75fbf, 2025-03-29)"
   sodipodi:docname="mount13.svg"
   xmlns:inkscape="http://www.inkscape.org/namespaces/inkscape"
   xmlns:sodipodi="http://sodipodi.sourceforge.net/DTD/sodipodi-0.dtd"
   xmlns="http://www.w3.org/2000/svg"
   xmlns:svg="http://www.w3.org/2000/svg">
  <sodipodi:namedview
     id="namedview1"
     pagecolor="#ffffff"
     bordercolor="#000000"
     borderopacity="0.25"
     inkscape:showpageshadow="2"
     inkscape:pageopacity="0.0"
     inkscape:pagecheckerboard="0"
     inkscape:deskcolor="#d1d1d1"
     inkscape:document-units="mm"
     inkscape:zoom="0.72248176"
     inkscape:cx="387.55304"
     inkscape:cy="147.40857"
     inkscape:window-width="1850"
     inkscape:window-height="1016"
     inkscape:window-x="0"
     inkscape:window-y="0"
     inkscape:window-maximized="1"
     inkscape:current-layer="layer1" />
  <defs
     id="defs1" />
  <g
     inkscape:label="Layer 1"
     inkscape:groupmode="layer"
     id="layer1"
     transform="translate(-3.17498,-109.27325)">
    <path
       style="fill:#000000"
       d="m 30.48751,186.47275 c 0.0568,-0.26039 0.24985,-0.44206 0.429,-0.40372 0.17916,0.0383 0.53569,-0.0426 0.7923,-0.17997 0.2566,-0.13733 0.62505,-0.15174 0.81877,-0.032 0.40851,0.25247 -0.138,0.60908 -1.39432,0.90983 -0.62922,0.15063 -0.73249,0.10358 -0.64575,-0.29413 z m 96.57861,-0.39553 c -0.73835,-0.15847 -1.12448,-0.38285 -1.12448,-0.65346 0,-0.35081 0.26574,-0.38442 1.78594,-0.22588 1.59459,0.16629 2.48935,0.47996 2.16517,0.75902 -0.31411,0.2704 -1.82725,0.3348 -2.82663,0.12032 z m -87.24635,-0.73936 c -0.13218,-0.60182 -0.32174,-0.79375 -0.78391,-0.79375 -0.37017,0 -0.65976,0.19187 -0.73734,0.48853 -0.0994,0.38019 -0.31165,0.46155 -0.9569,0.36685 -0.45603,-0.0669 -0.82914,-0.27403 -0.82914,-0.46023 0,-0.31738 -0.59311,-0.70188 -1.19063,-0.77187 -0.14552,-0.017 -0.54446,-0.12968 -0.88653,-0.2503 -0.38792,-0.13678 -0.73139,-0.10985 -0.91281,0.0716 -0.37922,0.37922 -1.58108,0.37798 -1.45459,-0.002 0.14652,-0.43957 2.01799,-1.00484 2.81692,-0.85084 0.97489,0.18793 1.16329,0.24042 1.71157,0.47691 0.82531,0.35599 1.10726,-0.25615 0.50632,-1.09926 -1.07671,-1.5106 -1.56826,-1.77543 -3.41962,-1.8423 -1.29799,-0.0469 -1.89996,0.0514 -2.34836,0.38334 l -0.60297,0.44639 0.82558,0.85989 0.82559,0.8599 h -0.67271 c -0.36999,0 -1.04481,-0.18563 -1.49959,-0.4125 -0.65094,-0.32473 -0.7763,-0.50771 -0.58914,-0.8599 0.13077,-0.24606 0.30739,-0.66916 0.39249,-0.94021 0.12199,-0.38853 0.23308,-0.4278 0.52493,-0.18559 0.39767,0.33004 0.83879,-0.0443 0.56818,-0.48214 -0.0797,-0.12897 0.12162,-0.30594 0.44741,-0.39326 0.97555,-0.26147 1.78242,-0.18726 1.79137,0.16475 0.005,0.20659 0.13675,0.16185 0.35033,-0.11921 0.20828,-0.27407 0.62237,-0.42003 1.05946,-0.37343 0.9074,0.0967 2.3599,1.15115 2.12015,1.53906 -0.10065,0.16286 -0.0607,0.21806 0.0902,0.12476 0.14892,-0.092 0.60778,0.36581 1.01968,1.01745 0.78847,1.2474 0.63834,1.18916 3.42151,1.32727 0.43656,0.0217 0.93057,-0.0657 1.0978,-0.19408 0.16723,-0.12842 0.76254,-0.28154 1.32292,-0.34027 0.56037,-0.0587 1.07512,-0.11365 1.14388,-0.12204 0.0688,-0.008 -0.1396,-0.20059 -0.46302,-0.42712 -0.76329,-0.53463 -0.74312,-0.81475 0.0734,-1.01969 0.93475,-0.23461 0.82475,-0.71628 -0.41844,-1.83232 -0.59395,-0.5332 -1.00202,-0.96945 -0.90684,-0.96945 0.0952,0 -0.0711,-0.31038 -0.36948,-0.68973 -0.43022,-0.54693 -0.4839,-0.79932 -0.25928,-1.21903 0.20238,-0.37815 0.20072,-0.61185 -0.006,-0.81839 -0.82373,-0.82373 0.18621,-2.14268 1.83544,-2.39704 3.59751,-0.55484 4.64343,-0.27763 6.65163,1.76291 0.8169,0.83006 1.56909,1.5092 1.67152,1.5092 0.35052,0 1.72314,1.09397 1.72314,1.37333 0,0.17725 -0.14007,0.16272 -0.38417,-0.0399 -0.2113,-0.17536 -0.618,-0.24462 -0.90378,-0.15392 -0.28578,0.0907 -0.58658,0.0565 -0.66846,-0.0759 -0.0864,-0.13973 -0.62338,-0.14909 -1.27903,-0.0223 -0.6216,0.12021 -1.21948,0.22376 -1.32862,0.23009 -0.38386,0.0223 -0.1936,0.54069 0.19844,0.54069 0.21828,0 0.39687,0.1 0.39687,0.22212 0,0.12216 0.30934,0.36305 0.68741,0.53531 0.42579,0.19401 0.63231,0.45678 0.54264,0.69046 -0.0916,0.23873 -0.0157,0.32772 0.20678,0.24235 0.33968,-0.13035 1.47359,1.04601 1.47359,1.52875 0,0.68392 -0.84794,0.42672 -1.69907,-0.51538 -0.88412,-0.97861 -1.03101,-1.0417 -2.3799,-1.0222 -1.67872,0.0243 -1.69463,0.25109 -0.0467,0.66603 1.23653,0.31136 2.00904,0.88534 2.00904,1.49273 0,0.3374 -0.92749,0.34762 -1.26121,0.0139 -0.0722,-0.0722 -0.35854,-0.01 -0.6363,0.139 -0.38573,0.20643 -0.71628,0.13971 -1.3994,-0.28249 l -0.89438,-0.55275 -0.42291,0.60378 c -0.38916,0.55561 -0.38746,0.6297 0.0213,0.92858 1.35003,0.98716 1.98752,1.72523 1.72063,1.99211 -0.19731,0.19731 -0.40107,0.18002 -0.68836,-0.0584 -0.32475,-0.26952 -0.4886,-0.27186 -0.80233,-0.0115 -0.32572,0.27033 -0.51988,0.184 -1.11725,-0.49677 -0.39765,-0.45318 -0.87509,-0.82396 -1.06097,-0.82396 -0.18587,0 -0.33795,-0.13752 -0.33795,-0.30559 0,-0.18284 -0.19436,-0.1297 -0.48386,0.13229 -0.26612,0.24084 -0.74136,0.43788 -1.05609,0.43788 -0.31473,0 -0.71717,0.23208 -0.8943,0.51572 -0.23567,0.37735 -0.41196,0.44112 -0.65711,0.23766 -0.24981,-0.20733 -0.41482,-0.10295 -0.64868,0.41033 -0.41069,0.90136 -0.67595,0.86996 -0.89017,-0.10537 z m 6.84255,-4.89479 c -0.0838,-0.21829 -0.27319,-0.39688 -0.42096,-0.39688 -0.15487,0 -0.12915,0.16812 0.0607,0.39688 0.18116,0.21828 0.37059,0.39687 0.42097,0.39687 0.0504,0 0.0231,-0.17859 -0.0607,-0.39687 z m 0.25405,-1.75149 c 0.96408,0.0173 0.8096,-0.44184 -0.3597,-1.06894 -1.74265,-0.93459 -3.06994,-0.4306 -2.18674,0.83035 0.31849,0.45471 0.56333,0.54443 1.10452,0.40472 0.38242,-0.0987 1.03129,-0.17348 1.44192,-0.16613 z m 2.67786,-1.58194 c 1.08021,-0.63734 1.09623,-0.69296 0.42983,-1.49164 -0.76928,-0.92197 -1.82576,-1.22281 -4.10899,-1.17005 -2.25018,0.052 -2.66811,0.22764 -2.41786,1.01613 0.12431,0.39165 0.45008,0.51095 1.52272,0.55762 0.75052,0.0327 1.50581,0.17659 1.67843,0.31984 0.17262,0.14326 0.37281,0.20151 0.44489,0.12944 0.0721,-0.0721 0.4183,0.15452 0.7694,0.50355 0.3511,0.34902 0.66133,0.64715 0.68939,0.6625 0.0281,0.0154 0.47455,-0.22198 0.99219,-0.52739 z m -27.36925,6.90301 c 0,-0.32122 1.08653,-0.79079 1.40065,-0.60532 0.11552,0.0682 0.35364,0.015 0.52917,-0.11827 0.17552,-0.13325 0.79539,-0.26777 1.37747,-0.29894 0.58208,-0.0312 1.09802,-0.17052 1.14653,-0.30968 0.11739,-0.33675 1.10243,-0.3264 1.10243,0.0116 0,0.14552 -0.16586,0.26459 -0.36857,0.26459 -0.20271,0 -0.43092,0.16249 -0.50713,0.36109 -0.077,0.2006 -0.70697,0.43222 -1.41737,0.52111 -0.70335,0.088 -1.72529,0.22598 -2.27099,0.3066 -0.61258,0.0905 -0.99219,0.0397 -0.99219,-0.13276 z m 101.33541,0.002 c 0,-0.14552 -0.18529,-0.26458 -0.41175,-0.26458 -0.61363,0 -1.47568,-2.13836 -1.2722,-3.15577 0.20106,-1.00529 0.68397,-0.9343 0.9036,0.13284 0.2029,0.98585 0.71623,1.96651 1.3454,2.57021 0.63996,0.61407 0.62652,0.98188 -0.0359,0.98188 -0.29104,0 -0.52917,-0.11906 -0.52917,-0.26458 z m -67.64772,-2.02852 c -0.0986,-0.26676 -0.47611,-0.96127 -0.83896,-1.54335 -0.36284,-0.58209 -0.62926,-1.10456 -0.59204,-1.16105 0.0372,-0.0565 -0.0913,-0.20349 -0.28566,-0.32668 -0.26403,-0.16736 -0.22486,-0.22499 0.15501,-0.22801 0.27958,-0.002 0.6963,-0.16579 0.92604,-0.36347 0.6049,-0.52047 2.0682,-0.9635 3.1824,-0.9635 0.53126,0 1.08319,-0.11726 1.22651,-0.26058 0.21414,-0.21414 1.06097,-0.40448 2.29265,-0.51532 0.10914,-0.01 0.19844,-0.23752 0.19844,-0.50601 0,-0.26849 0.23812,-0.70366 0.52917,-0.96705 0.29104,-0.26339 0.52916,-0.67207 0.52916,-0.90818 0,-0.23611 0.18549,-0.69411 0.41221,-1.01779 0.22671,-0.32368 0.32824,-0.72435 0.22562,-0.89039 -0.11904,-0.19261 -0.3192,-0.0488 -0.55295,0.39734 -0.4016,0.76648 -1.40779,0.96622 -1.40779,0.27945 0,-0.23088 0.61825,-1.31411 1.37388,-2.40718 1.45415,-2.10351 2.47743,-2.81595 3.00609,-2.09295 0.2096,0.28665 0.55559,0.35809 1.19849,0.24748 0.70075,-0.12056 1.08705,-0.43053 1.71928,-1.37956 0.49619,-0.74482 1.05085,-1.25857 1.4167,-1.31222 0.60033,-0.088 0.6001,-0.0861 -0.15399,1.27058 -0.74191,1.33476 -0.7459,1.36417 -0.22608,1.6652 0.29104,0.16855 0.75795,0.34329 1.03757,0.38833 0.27962,0.045 0.65252,0.20148 0.82866,0.34767 0.24321,0.20184 0.34757,-0.13363 0.43379,-1.39433 0.0927,-1.3559 0.29388,-1.93891 1.0977,-3.18147 0.54129,-0.83675 1.10331,-1.52136 1.24892,-1.52136 0.3647,0 0.64439,0.80764 0.35285,1.01889 -0.13034,0.0945 -0.27389,0.34197 -0.31899,0.55004 -0.0451,0.20806 -0.29366,0.68431 -0.55235,1.05833 -0.46299,0.66941 -1.00349,2.4262 -1.14536,3.72274 -0.0821,0.75042 -0.80844,0.8469 -2.17871,0.2894 -1.07371,-0.43685 -1.99362,-0.17195 -1.99876,0.57554 -0.002,0.32465 -0.11633,0.76787 -0.25356,0.98494 -0.36967,0.58471 -0.88744,-0.0444 -0.85903,-1.04382 0.0195,-0.68657 -0.0738,-0.80606 -0.62934,-0.80606 -1.08449,0 -2.365,0.6645 -2.40912,1.25017 -0.0509,0.6756 0.98515,1.25359 1.85549,1.03515 0.40587,-0.10187 0.76547,-0.0263 0.95361,0.20041 0.23976,0.28889 0.11531,0.47412 -0.60351,0.89823 -0.60606,0.35759 -0.99341,0.44645 -1.17118,0.26868 -0.35592,-0.35592 -1.37722,-0.0102 -1.37722,0.46624 0,0.22792 0.26371,0.37904 0.66146,0.37904 0.36634,0 0.66146,0.15346 0.66146,0.34396 0,0.50921 -0.54078,0.95789 -0.96043,0.79686 -0.20173,-0.0774 -0.77756,0.0542 -1.27962,0.29243 -1.10415,0.52395 -1.00308,1.06174 0.27907,1.48489 1.02714,0.33899 1.14957,0.76912 0.35936,1.2626 -0.47622,0.29741 -0.66869,0.23996 -1.55942,-0.46552 -1.21503,-0.96231 -1.26222,-0.96718 -2.06505,-0.21296 -0.5721,0.53745 -1.16004,0.67341 -3.10829,0.71878 -1.7808,0.0415 -2.11073,0.56329 -1.16495,1.84252 0.58211,0.78734 0.60085,1.62134 0.0406,1.80787 -0.18182,0.0605 -0.41125,-0.10819 -0.50984,-0.37495 z m 60.02713,-2.04464 c -0.55939,-0.55246 -0.5735,-0.63118 -0.17284,-0.9637 0.37405,-0.31043 0.47229,-0.29782 0.68843,0.0884 0.13867,0.24779 0.42481,0.45052 0.63586,0.45052 0.21105,0 0.38373,0.23813 0.38373,0.52917 0,0.71133 -0.76167,0.65952 -1.53518,-0.10441 z m -1.12828,-1.9246 c -0.15701,-0.41201 -0.35164,-1.07867 -0.43253,-1.48147 -0.1203,-0.5991 -0.0687,-0.70227 0.28384,-0.56701 0.26338,0.10107 0.44142,0.0258 0.45798,-0.19368 0.0359,-0.4757 0.53192,1.31573 0.58942,2.12868 0.0648,0.91628 -0.5626,0.9955 -0.89871,0.11348 z m -86.14205,-0.21995 c 0.21828,-0.21828 0.46118,-0.39687 0.53976,-0.39687 0.0786,0 0.0744,0.17859 -0.009,0.39687 -0.0838,0.21828 -0.32665,0.39688 -0.53976,0.39688 -0.33605,0 -0.3348,-0.0527 0.009,-0.39688 z m 0.96555,-0.33073 c 0.004,-0.41437 2.20246,-2.74364 2.95978,-3.13526 1.15298,-0.59623 1.18654,-0.28496 0.0786,0.72902 -0.53179,0.48669 -1.33343,1.27184 -1.78142,1.74478 -0.78408,0.82776 -1.26055,1.07849 -1.25696,0.66146 z M 17.15015,176.2934 c -0.0879,-0.60046 -0.54043,-0.79881 -2.89374,-1.26839 -1.59729,-0.31872 -2.65969,-0.0195 -3.09222,0.8708 -0.39578,0.81468 -1.11005,0.95221 -1.11005,0.21374 0,-0.27323 -0.14882,-0.61766 -0.33072,-0.76541 -0.50187,-0.40764 -2.60039,-0.23297 -3.59647,0.29935 -0.48646,0.25997 -0.94859,0.40857 -1.02694,0.33022 -0.0784,-0.0784 -0.37861,0.0229 -0.66725,0.22511 -0.53281,0.3732 -1.25778,0.28429 -1.25778,-0.15426 0,-0.1323 0.42375,-0.44263 0.94168,-0.68961 0.81862,-0.39037 0.97368,-0.39846 1.18657,-0.0619 0.20449,0.3233 0.24556,0.31079 0.24895,-0.0758 0.002,-0.26798 0.20466,-0.46302 0.4803,-0.46302 0.26194,0 0.61429,-0.13804 0.78302,-0.30676 0.38501,-0.38502 2.89116,-0.41114 3.26822,-0.0341 0.19752,0.19751 0.58683,0.16007 1.31673,-0.12665 0.84295,-0.33112 1.0859,-0.59125 1.30211,-1.39418 0.14619,-0.54291 0.44843,-1.13868 0.67165,-1.32394 0.50149,-0.41619 1.9725,-0.52231 3.24915,-0.23438 0.67426,0.15207 1.08092,0.11479 1.36306,-0.12497 0.53599,-0.45549 2.52983,-1.21755 3.18558,-1.21755 0.2881,0 0.76194,-0.23812 1.05298,-0.52916 0.39309,-0.3931 0.43097,-0.52917 0.14729,-0.52917 -0.60436,0 -1.20563,-1.08498 -1.20563,-2.17554 0,-1.20737 0.62169,-1.91172 2.03335,-2.30372 1.28929,-0.35802 3.44123,-0.36486 3.65953,-0.0116 0.0923,0.14938 0.30771,0.24784 0.47864,0.21881 0.17093,-0.029 0.63467,0.10437 1.03054,0.29647 0.52995,0.25714 0.81269,0.27214 1.07211,0.0568 0.45902,-0.38095 1.51542,-0.10035 1.51542,0.40253 0,0.21494 -0.20836,0.44751 -0.46302,0.51684 -0.40193,0.10942 -1.38907,1.7519 -1.38907,2.31124 0,0.28907 -0.59094,0.82336 -1.14124,1.03184 -0.26573,0.10066 -0.39817,0.31384 -0.29684,0.47779 0.21801,0.35275 -0.40639,0.80197 -0.7874,0.56649 -0.45094,-0.27869 -2.53871,-0.12842 -2.94922,0.21227 -0.28785,0.2389 -0.31302,0.41251 -0.0975,0.67225 0.35114,0.4231 0.10444,0.90253 -0.4644,0.90253 -0.33769,0 -0.35317,-0.0729 -0.0843,-0.39687 0.26976,-0.32505 0.25168,-0.39688 -0.0999,-0.39688 -0.2361,0 -0.42928,0.1915 -0.42928,0.42556 0,0.31876 -0.16165,0.38498 -0.64414,0.26389 -0.51206,-0.12852 -0.83709,0.0419 -1.5852,0.83121 -0.51759,0.54609 -0.9421,1.13579 -0.94336,1.31046 -0.001,0.17467 -0.20966,0.43363 -0.46311,0.57547 -0.25345,0.14184 -0.37085,0.34786 -0.26088,0.45783 0.20047,0.20046 -1.05663,1.69183 -1.42607,1.69183 -0.10818,0 -0.23473,-0.25987 -0.28123,-0.5775 z m 0.514,-0.67927 c -0.0346,-0.10914 0.0947,-0.57518 0.28728,-1.03564 0.31915,-0.76297 0.29884,-0.88855 -0.22911,-1.4165 -0.31862,-0.31861 -0.77531,-0.61737 -1.01488,-0.66391 -0.23957,-0.0465 -0.43559,-0.10891 -0.43559,-0.13862 0,-0.1404 -1.3895,-0.21475 -1.91823,-0.10263 -0.75788,0.16071 -0.87266,1.56991 -0.13229,1.62424 1.40576,0.10318 1.83238,0.27733 2.56605,1.04753 0.86597,0.90909 0.97457,0.994 0.87677,0.68553 z m 2.31187,-3.91081 c 0.88989,-0.72943 0.83991,-0.78017 -0.35739,-0.36279 -0.45828,0.15976 -0.83324,0.45742 -0.83324,0.66146 0,0.52047 0.27567,0.45132 1.19063,-0.29867 z m 7.80521,-2.61599 c 0,-0.51557 -0.42804,-0.94768 -0.93874,-0.94768 -0.74611,0 -1.12179,0.49924 -0.61651,0.81928 0.36934,0.23394 1.55525,0.33185 1.55525,0.1284 z m -1.23826,-2.10922 c 1.70813,-0.0261 1.89972,-0.082 1.89972,-0.55376 0,-0.60212 -1.12455,-0.88969 -3.57915,-0.91529 -2.17809,-0.0227 -3.08107,0.78022 -2.37053,2.10786 0.26104,0.48776 0.29256,0.48634 1.20914,-0.0545 0.70144,-0.41386 1.42492,-0.56268 2.84082,-0.58436 z m 82.77121,8.78828 c -0.71847,-0.45997 -0.80851,-0.60909 -0.47911,-0.79343 0.43442,-0.24311 2.55449,0.69547 2.55449,1.1309 0,0.43046 -1.1741,0.23954 -2.07538,-0.33747 z m -53.39625,-0.36324 c -0.27147,-0.70743 1.45594,-3.75359 1.9008,-3.35192 0.11541,0.1042 0.11955,0.0331 0.009,-0.15794 -0.27474,-0.47571 0.58446,-1.37239 1.31502,-1.37239 0.68949,0 1.38037,0.70562 1.02528,1.04714 -0.13207,0.12703 -0.53225,0.27082 -0.88927,0.31952 -0.50277,0.0686 -0.86069,0.50243 -1.5875,1.92427 -0.97698,1.91125 -1.4782,2.36097 -1.77354,1.59132 z m -20.46379,-0.48094 c 0,-0.19866 0.23813,-0.66392 0.52917,-1.03392 0.29104,-0.37 0.52917,-0.79686 0.52917,-0.94858 0,-0.15172 0.14953,-0.37106 0.33229,-0.48743 0.18276,-0.11637 0.64551,-0.62831 1.02834,-1.13763 0.38282,-0.50932 0.94766,-1.21215 1.2552,-1.56184 0.30754,-0.34969 0.55917,-0.7363 0.55917,-0.85913 0,-0.12284 0.42993,-0.69922 0.9554,-1.28085 l 0.9554,-1.05752 -0.42623,-1.06527 c -0.49987,-1.24928 -0.5401,-2.37109 -0.13205,-3.6816 0.75216,-2.41566 1.98717,-4.18402 2.72449,-3.90108 0.5764,0.22119 0.52941,0.53773 -0.2103,1.41684 -0.86181,1.0242 -1.45791,2.53494 -1.65207,4.18696 -0.20561,1.74941 0.23854,2.15365 1.13513,1.03315 l 0.61635,-0.77028 0.001,0.7276 c 7.3e-4,0.40018 -0.11775,0.7276 -0.26327,0.7276 -0.14552,0 -0.24099,0.0893 -0.21216,0.19844 0.0954,0.3611 -0.34821,1.38906 -0.59942,1.38906 -0.13571,0 -0.24675,0.16917 -0.24675,0.37592 0,0.20676 -0.46482,0.84541 -1.03293,1.41922 -0.56811,0.57382 -1.24118,1.44646 -1.4957,1.93919 -0.25452,0.49274 -0.86127,1.29474 -1.34832,1.78224 -0.48705,0.48749 -0.88555,0.99351 -0.88555,1.12448 0,0.13096 -0.17859,0.23812 -0.39687,0.23812 -0.21829,0 -0.39688,0.15213 -0.39688,0.33807 0,0.31158 -0.89598,1.24943 -1.19365,1.24943 -0.0711,0 -0.12927,-0.16254 -0.12927,-0.36119 z m 5.02709,-1.66742 c 0,-0.27316 0.35196,-0.92365 0.78213,-1.44552 0.43018,-0.52188 1.16124,-1.65033 1.62459,-2.50768 0.46334,-0.85735 0.98465,-1.73741 1.15846,-1.95569 0.17382,-0.21828 0.57962,-0.91764 0.9018,-1.55414 0.32218,-0.63649 1.02649,-1.81131 1.56513,-2.61071 2.1971,-3.26072 2.38256,-3.7554 2.19109,-5.84426 -0.0956,-1.04343 -0.0938,-1.89714 0.004,-1.89714 0.0979,0 0.43786,-0.64038 0.75553,-1.42307 0.54432,-1.34114 1.91201,-3.07485 2.42569,-3.07485 0.12825,0 0.23318,0.22036 0.23318,0.48969 0,0.69098 -0.5392,2.15615 -0.79349,2.15615 -0.3585,0 -1.22553,1.67701 -1.38953,2.68764 -0.13726,0.84584 -0.0971,0.94054 0.34929,0.8238 0.2981,-0.0779 0.5658,0.0281 0.65453,0.25938 0.15677,0.40854 -0.81891,2.37242 -1.89698,3.81829 -0.34539,0.46324 -0.62798,0.96334 -0.62798,1.11134 0,0.148 -0.15582,0.3643 -0.34627,0.48067 -0.19045,0.11637 -0.5091,0.61436 -0.70812,1.10663 -0.19902,0.49228 -0.62117,1.20665 -0.93812,1.5875 -0.31695,0.38085 -0.97613,1.44133 -1.46484,2.35663 -0.48871,0.9153 -1.08915,1.87948 -1.3343,2.14262 -0.24516,0.26314 -0.48841,0.70489 -0.54057,0.98166 -0.0522,0.27676 -0.36203,0.62074 -0.6886,0.76439 -0.32657,0.14365 -0.59582,0.38177 -0.59834,0.52917 -0.003,0.14739 -0.30017,0.54837 -0.66146,0.89107 -0.59765,0.56689 -0.65688,0.57829 -0.65688,0.12643 z m 3.58509,-0.33126 c -0.0827,-0.13376 0.26749,-0.68619 0.77813,-1.22763 0.51065,-0.54144 0.92844,-1.10537 0.92844,-1.25318 0,-0.14781 0.32064,-0.68913 0.71254,-1.20292 1.18668,-1.55583 2.50777,-3.57823 2.7507,-4.21094 0.12612,-0.32849 0.37368,-0.56661 0.55013,-0.52917 0.17646,0.0374 0.37013,-0.17004 0.43038,-0.46108 0.16081,-0.7768 1.34319,-3.3103 1.92859,-4.13241 0.27876,-0.39148 0.50683,-0.90176 0.50683,-1.13396 0,-0.23219 0.11906,-0.42217 0.26458,-0.42217 0.14552,0 0.26459,-0.12428 0.26459,-0.27618 0,-0.1519 -0.17079,-0.2412 -0.37953,-0.19844 -0.20874,0.0428 -0.39315,0.0182 -0.40982,-0.0545 -0.45508,-1.98719 -0.45405,-2.21028 0.0175,-3.78196 0.35141,-1.17136 0.81175,-1.98454 1.57038,-2.77404 1.80118,-1.87449 2.66738,-1.1627 0.928,0.76257 -0.50563,0.55968 -0.98907,1.34801 -1.07431,1.75186 -0.0852,0.40386 -0.26485,0.9378 -0.39913,1.18656 -0.13427,0.24875 -0.17091,0.81838 -0.0814,1.26583 0.14715,0.73576 0.19373,0.76841 0.48705,0.34147 0.17839,-0.25964 0.4766,-0.94833 0.6627,-1.53041 0.60208,-1.88326 1.52309,-3.4071 2.99839,-4.96094 0.79445,-0.83675 1.56923,-1.52136 1.72172,-1.52136 0.63749,0 0.55965,0.60226 -0.20215,1.56413 -0.44675,0.56406 -0.81227,1.15726 -0.81227,1.31822 0,0.16096 -0.11034,0.29265 -0.2452,0.29265 -0.47965,0 -1.16427,1.74491 -1.32438,3.3755 -0.19858,2.02235 0.0847,2.03177 1.17271,0.039 0.43656,-0.79961 1.1807,-2.03736 1.65364,-2.75054 0.47294,-0.71319 0.8599,-1.44602 0.8599,-1.62851 0,-0.52481 1.57436,-2.71878 2.28514,-3.18451 0.60063,-0.39354 0.67133,-0.38821 1.02369,0.0772 0.45882,0.60607 0.44183,0.66145 0.4892,-1.59464 0.0252,-1.19968 0.15235,-1.86801 0.36915,-1.94028 0.18191,-0.0606 0.33073,-0.25652 0.33073,-0.43531 0,-0.17879 0.36838,-0.59742 0.81863,-0.9303 0.6726,-0.49728 1.01989,-0.57506 1.94699,-0.43603 0.98306,0.14742 1.18068,0.0912 1.53454,-0.43671 0.67099,-1.00098 2.04689,-2.28548 2.90854,-2.71533 1.00961,-0.50366 0.99339,-0.50503 0.99339,0.084 0,0.51695 -0.63009,1.17887 -1.37176,1.44105 -0.75542,0.26705 -1.07444,1.14305 -0.59198,1.62551 0.35434,0.35433 0.36801,0.56431 0.0916,1.40744 -0.17866,0.54503 -0.5948,1.34815 -0.92474,1.78472 -0.89446,1.18348 -3.55315,6.24232 -3.55315,6.76077 0,0.24776 -0.1786,0.59869 -0.39688,0.77985 -0.21828,0.18116 -0.39687,0.54936 -0.39687,0.81823 0,0.26887 -0.35719,1.19176 -0.79375,2.05086 -0.92203,1.81442 -0.96401,2.4298 -0.26459,3.87779 0.28117,0.58208 0.51525,1.20716 0.52019,1.38906 0.005,0.1819 0.12804,0.33073 0.27356,0.33073 0.14552,0 0.26459,0.13005 0.26459,0.28899 0,0.15895 0.23812,0.59173 0.52916,0.96173 0.65355,0.83085 0.70643,1.73338 0.0945,1.61295 -0.23907,-0.0471 -0.56353,-0.32367 -0.72103,-0.61471 -0.1575,-0.29105 -0.5749,-0.97781 -0.92756,-1.52615 -0.35266,-0.54834 -0.56964,-1.06853 -0.4822,-1.15598 0.0874,-0.0874 -0.0247,-0.34272 -0.24929,-0.56728 -0.34796,-0.34796 -0.44323,-0.35308 -0.6448,-0.0346 -0.13009,0.2055 -0.23835,0.56811 -0.24058,0.8058 -0.004,0.46942 -0.97232,0.85365 -1.20441,0.47812 -0.0784,-0.12687 0.10604,-0.71799 0.4099,-1.31359 0.66632,-1.3061 0.66131,-3.77427 -0.008,-3.90125 -0.84171,-0.15969 -1.39222,1.4334 -1.33933,3.87583 0.0309,1.42696 0.1875,2.49232 0.41832,2.8458 0.3861,0.59127 0.28349,0.89022 -0.30553,0.89022 -0.46099,0 -1.15008,-1.68392 -1.15008,-2.81044 0,-0.49155 -0.0991,-0.89373 -0.2203,-0.89373 -0.2731,0 -1.73754,1.81748 -1.972,2.4474 -0.0948,0.25466 -0.30216,0.46302 -0.46084,0.46302 -0.15868,0 -0.22156,0.10832 -0.13974,0.24071 0.26486,0.42855 -0.14934,1.05871 -1.06983,1.6276 -0.49488,0.30585 -0.89979,0.72498 -0.89979,0.93139 0,0.20642 -0.11906,0.3753 -0.26458,0.3753 -0.14552,0 -0.26458,0.14922 -0.26458,0.33159 0,0.48436 -1.53128,1.85106 -1.85193,1.65288 -0.32773,-0.20255 0.40619,-1.56538 1.19047,-2.21059 0.82471,-0.67847 1.97864,-3.23719 1.81607,-4.02695 -0.17829,-0.86613 1.09632,-2.53446 1.61039,-2.10782 0.38884,0.32271 1.04714,-0.34495 2.07627,-2.10578 0.68318,-1.16892 1.45919,-2.19317 2.89003,-3.81451 0.66617,-0.75486 0.72043,-0.77291 0.72761,-0.24202 0.0102,0.75214 0.27095,1.4107 0.55861,1.4107 0.23299,0 1.08014,-1.70592 1.70001,-3.42331 0.18706,-0.51827 0.7029,-1.59716 1.1463,-2.39752 0.4434,-0.80037 1.22545,-2.27297 1.73788,-3.27245 l 0.93168,-1.81724 -0.58597,-0.48906 c -0.78061,-0.65152 -1.54332,-0.62936 -2.46851,0.0717 -0.41981,0.31812 -0.79983,0.6027 -0.84448,0.63241 -0.0447,0.0297 -0.12531,0.53593 -0.17923,1.12494 -0.0646,0.7056 0.0308,1.17786 0.27964,1.38436 0.59026,0.48988 0.46245,0.88946 -0.77,2.4072 -0.63121,0.77732 -1.22879,1.74074 -1.32796,2.14092 -0.23479,0.94749 -0.96397,0.96941 -0.96397,0.029 0,-0.38424 0.25881,-1.21684 0.57514,-1.85022 0.31632,-0.63337 0.47861,-1.24172 0.36065,-1.35189 -0.11797,-0.11017 -0.26633,-0.0554 -0.3297,0.12171 -0.0634,0.17711 -0.41552,0.76456 -0.78257,1.30544 -0.36705,0.54088 -0.77693,1.2294 -0.91083,1.53006 -0.1339,0.30066 -0.45005,0.8575 -0.70255,1.23743 -0.2525,0.37994 -1.0426,1.57056 -1.75578,2.64584 -1.57448,2.37389 -2.21982,3.04229 -2.58489,2.67722 -0.17771,-0.17771 -0.16471,-0.32791 0.0393,-0.454 0.35107,-0.21697 -0.39535,-1.19422 -0.91215,-1.19422 -0.3551,0 -1.45975,1.95647 -1.47064,2.60469 -0.004,0.24091 -0.36124,0.90572 -0.79375,1.47734 -0.43252,0.57163 -0.78639,1.14512 -0.78639,1.27443 0,0.1293 -0.28839,0.61411 -0.64086,1.07734 -0.35247,0.46324 -0.72336,1.17281 -0.82419,1.57683 -0.10083,0.40402 -0.39406,0.84736 -0.65162,0.98521 -0.25756,0.13784 -0.55113,0.58064 -0.65236,0.984 -0.10124,0.40335 -0.59118,1.2302 -1.08877,1.83744 -0.49759,0.60724 -0.9047,1.22867 -0.9047,1.38096 0,0.15229 -0.23672,0.40358 -0.52605,0.55843 -0.28932,0.15484 -0.59988,0.57574 -0.69014,0.93535 -0.0902,0.3596 -0.25775,0.65382 -0.37223,0.65382 -0.11447,0 -0.48851,0.2956 -0.83121,0.65688 -0.67561,0.71227 -0.90705,0.79819 -1.13903,0.42283 z m 26.25225,-29.86987 c 0.0644,-0.19334 -0.0565,-0.25247 -0.31419,-0.15359 -0.23044,0.0884 -0.41899,0.27702 -0.41899,0.4191 0,0.34777 0.60134,0.13 0.73318,-0.26551 z m -46.63838,29.58391 c -0.0899,-0.14552 0.0151,-0.26459 0.23335,-0.26459 0.21828,0 0.47046,0.11907 0.5604,0.26459 0.0899,0.14552 -0.0151,0.26458 -0.23336,0.26458 -0.21828,0 -0.47046,-0.11906 -0.56039,-0.26458 z m 82.6136,-0.0226 c -0.70765,-0.41209 -1.33405,-2.1053 -1.02763,-2.77782 0.15017,-0.32959 0.15722,-0.70712 0.0173,-0.9281 -0.1297,-0.20489 -0.23764,-0.70696 -0.23987,-1.11573 -0.003,-0.48662 -0.10779,-0.67911 -0.30453,-0.55751 -0.21851,0.13504 -0.25227,-0.23967 -0.12375,-1.37345 0.3477,-3.06759 0.36024,-3.94797 0.0637,-4.46957 -0.34878,-0.6134 -0.36756,-1.24492 -0.0728,-2.4474 0.34744,-1.41727 0.98671,-0.94953 0.81687,0.59768 -0.0469,0.4277 0.0147,0.89979 0.13708,1.04909 0.12234,0.1493 0.26361,0.55521 0.31393,0.90203 0.0706,0.48616 0.27328,0.64473 0.88525,0.69239 1.84864,0.144 3.00991,0.4589 3.16295,0.8577 0.26468,0.68975 -0.18661,0.8442 -1.31087,0.44863 -1.48914,-0.52394 -2.08752,-0.4973 -1.85676,0.0827 0.31261,0.78572 0.42223,1.65385 0.20829,1.64959 -0.11198,-0.002 -0.37906,-0.115 -0.5935,-0.25061 -0.91897,-0.58115 -1.14603,2.12558 -0.27157,3.23728 0.29104,0.37 0.52917,0.76533 0.52917,0.87852 0,0.43169 1.13153,1.38583 1.48337,1.25082 0.20279,-0.0778 0.36871,-0.01 0.36871,0.1514 0,0.16109 0.35719,0.29289 0.79375,0.29289 0.52917,0 0.79375,-0.13229 0.79375,-0.39687 0,-0.53505 0.69512,-0.50638 0.90374,0.0373 0.0916,0.23878 0.0915,0.67083 -3.4e-4,0.9601 -0.14849,0.46786 -0.32982,0.50915 -1.64166,0.37375 -0.87013,-0.0898 -1.77602,-0.37495 -2.20961,-0.69552 -1.03293,-0.76367 -1.41456,-0.67763 -0.81737,0.18429 0.98052,1.41517 0.97759,1.94016 -0.008,1.36646 z m 61.76218,-0.33096 c -0.90016,-0.40167 -0.55062,-0.80148 1.03282,-1.18136 0.78933,-0.18936 1.63282,-0.57631 1.87443,-0.85989 0.52596,-0.61733 0.90474,-0.65779 1.1116,-0.11872 0.21252,0.55382 -0.006,0.97604 -0.80894,1.56429 -0.8798,0.64443 -2.44832,0.9355 -3.20991,0.59568 z m -12.70674,-1.687 c -1.56494,-0.53697 -2.04399,-0.83445 -2.44886,-1.52066 -0.27684,-0.4692 -0.8301,-1.01448 -1.22947,-1.21172 l -0.72613,-0.35864 1.05833,-0.15667 c 1.2219,-0.18088 1.71989,0.0714 1.5352,0.7776 -0.0852,0.3259 0.0836,0.63226 0.49034,0.89001 0.69869,0.44271 3.20048,1.02097 3.71993,0.85981 0.18697,-0.058 0.84596,-0.17633 1.46442,-0.26294 0.99678,-0.13959 1.12448,-0.0981 1.12448,0.36551 0,1.22714 -2.3603,1.51942 -4.98824,0.6177 z m 23.47342,0.5938 c -0.0557,-0.0557 -0.95818,-0.15939 -2.00563,-0.23052 -1.04744,-0.0711 -2.02868,-0.20612 -2.18053,-0.29997 -0.46246,-0.28581 -0.30863,-0.66858 0.26868,-0.66858 0.29963,0 0.4712,0.11907 0.38126,0.26459 -0.0899,0.14552 -0.0374,0.26458 0.11668,0.26458 0.15411,0 0.2802,-0.0992 0.2802,-0.22049 0,-0.12126 0.50601,-0.23335 1.12448,-0.24907 1.29122,-0.0328 1.55266,-0.0859 2.91041,-0.59074 0.62506,-0.23241 0.99219,-0.53928 0.99219,-0.82932 0,-0.72583 0.53359,-0.86764 0.96219,-0.25573 0.2149,0.30682 0.60714,0.55785 0.87163,0.55785 0.2645,0 0.94235,0.15449 1.50635,0.34332 0.58011,0.19422 1.42762,0.27088 1.9515,0.17651 l 0.92604,-0.16681 -0.99219,-0.44465 c -0.5457,-0.24455 -0.99219,-0.5621 -0.99219,-0.70567 0,-0.3395 0.45094,-0.33708 0.66146,0.004 0.0899,0.14552 0.28259,0.26458 0.42811,0.26458 0.14552,0 0.19099,-0.11906 0.10106,-0.26458 -0.30679,-0.4964 0.66977,-0.26597 1.74235,0.41112 0.58871,0.37163 1.02403,0.81812 0.96739,0.99218 -0.3035,0.93271 -3.23717,1.32432 -5.22328,0.69725 -2.10044,-0.66316 -2.64584,-0.73701 -2.64584,-0.35827 0,0.34462 -1.93802,1.52317 -2.15232,1.30887 z m -102.57202,-1.7995 c -0.16354,-0.19705 -0.32193,-1.0653 -0.35198,-1.92944 -0.0614,-1.76467 0.65051,-3.68398 1.83394,-4.94461 0.75445,-0.80365 1.76176,-0.95848 2.01095,-0.30908 0.2274,0.59258 0.20934,0.63981 -0.24458,0.63981 -0.22284,0 -0.48133,0.19847 -0.57442,0.44104 -0.0931,0.24258 -0.53289,0.76596 -0.97735,1.16309 -0.74891,0.66915 -0.81533,0.87427 -0.90669,2.8001 -0.10402,2.19263 -0.30153,2.72751 -0.78987,2.13909 z M 37.6004,167.01464 c 0.0385,-0.47265 -0.0719,-1.1203 -0.24541,-1.43924 -0.33318,-0.61247 -0.32012,-2.46139 0.0174,-2.46229 0.10914,-2.9e-4 0.19903,-0.14936 0.19975,-0.33126 0.002,-0.56385 1.2118,-1.88504 1.54004,-1.68217 0.22765,0.1407 0.21076,0.41708 -0.066,1.07943 -0.20459,0.48967 -0.30646,0.95583 -0.22638,1.03592 0.0801,0.0801 -0.0515,0.44641 -0.29235,0.81404 -0.3189,0.4867 -0.40623,1.05887 -0.32124,2.1046 0.0901,1.10869 0.0264,1.47086 -0.27955,1.58825 -0.3094,0.11873 -0.38093,-0.0364 -0.32625,-0.70728 z m -5.03332,0.3457 c -0.28537,-0.17637 -0.2154,-0.50683 0.35358,-1.66978 0.9194,-1.87918 1.57151,-2.57243 2.25231,-2.3944 0.42444,0.11099 0.48018,0.23833 0.27343,0.62464 -0.14283,0.26687 -0.37842,0.55861 -0.52354,0.6483 -0.14512,0.0897 -0.49578,0.67216 -0.77923,1.29438 -0.61408,1.34798 -1.08855,1.79846 -1.57655,1.49686 z m 149.21986,-0.16446 c -0.4993,-0.21664 -1.07868,-0.53569 -1.28751,-0.709 -0.47264,-0.39227 -2.13908,-0.98374 -2.78662,-0.98907 -0.55065,-0.005 -3.84226,-1.26246 -4.34651,-1.66107 -0.18295,-0.14462 -1.01553,-0.31001 -1.85019,-0.36753 -1.51382,-0.10432 -2.97655,-0.57135 -2.97655,-0.95039 0,-0.23349 0.85728,-0.21401 1.98437,0.0451 0.43656,0.10035 1.11497,0.0964 1.50757,-0.009 0.46688,-0.12515 0.81183,-0.0733 0.99714,0.15003 0.15582,0.18776 0.59228,0.34138 0.96991,0.34138 0.37763,0 0.76236,0.11899 0.85495,0.26442 0.0926,0.14543 0.57515,0.35272 1.07235,0.46065 0.49719,0.10794 1.2711,0.42011 1.71979,0.69371 0.44868,0.27361 1.17484,0.49792 1.61367,0.49846 1.25453,0.002 2.65272,0.88149 2.58645,1.62775 -0.0466,0.52462 -0.01,0.55644 0.23563,0.20294 0.25812,-0.37205 0.41332,-0.37741 1.37817,-0.0476 0.59801,0.2044 1.2004,0.48236 1.33864,0.6177 0.41154,0.40286 -2.00619,0.26753 -3.01126,-0.16856 z m -52.33957,-1.37971 c -0.32742,-0.052 -0.59531,-0.21237 -0.59531,-0.35636 0,-0.14399 -0.10557,-0.19655 -0.23461,-0.1168 -0.35173,0.21738 -0.77292,-0.41565 -0.86998,-1.30753 -0.10716,-0.9847 0.45684,-1.06364 0.92273,-0.12915 0.18138,0.3638 0.48734,0.66146 0.67991,0.66146 0.37597,0 1.68495,-0.88649 2.99563,-2.02875 0.72831,-0.63472 1.5334,-0.75376 1.5334,-0.22672 0,0.27345 -2.39503,2.65234 -2.67034,2.65234 -0.1207,0 -0.43246,0.21287 -0.69279,0.47304 -0.26091,0.26074 -0.74049,0.4306 -1.06864,0.37847 z m -8.35642,-0.49873 c -0.27447,-0.27447 -0.20739,-1.14653 0.0882,-1.14653 0.14552,0 0.26458,0.29766 0.26458,0.66146 0,0.69269 -0.0611,0.77673 -0.35277,0.48507 z m -39.97957,-1.28332 c -0.096,-0.5118 -0.1057,-1.04199 -0.0215,-1.1782 0.0842,-0.1362 0.19538,-0.84079 0.24712,-1.56575 0.13019,-1.82441 1.36921,-3.48943 2.07296,-2.78568 0.0849,0.0849 -0.0735,0.54071 -0.35209,1.01286 -0.28298,0.47962 -0.57267,1.60825 -0.65645,2.55756 -0.0825,0.93452 -0.20413,1.96702 -0.27032,2.29444 -0.18603,0.92013 -0.82352,0.71056 -1.01971,-0.33523 z m 4.41417,-0.61197 c -0.36624,-0.23156 -0.85207,-3.47629 -0.70703,-4.72202 0.13375,-1.14872 0.59779,-2.24974 1.23478,-2.92974 1.1005,-1.1748 1.93458,-0.49848 0.90064,0.73029 -0.80616,0.95807 -1.15932,3.25997 -0.78243,5.09985 0.27938,1.36383 -0.0227,2.21567 -0.64596,1.82162 z M 70.81631,162.638 c -0.0599,-0.10278 0.0443,-0.7816 0.23167,-1.50847 0.18733,-0.72687 0.28882,-1.40537 0.22553,-1.50778 -0.0633,-0.10241 0.0245,-0.74048 0.19509,-1.41795 0.23849,-0.94712 0.23648,-1.72979 -0.009,-3.38701 -0.17537,-1.18539 -0.34506,-2.65496 -0.3771,-3.2657 -0.0527,-1.00469 -0.44449,-2.00986 -0.43517,-1.11646 0.004,0.42587 -1.5284,5.44152 -1.86268,6.09493 -0.32434,0.63398 0.24414,2.58254 1.1363,3.89486 0.5534,0.814 0.69843,1.23053 0.49819,1.43076 -0.38536,0.38537 -0.94941,-0.11449 -1.84149,-1.63193 -0.61253,-1.04191 -0.72421,-1.12829 -0.79691,-0.6164 -0.0465,0.32742 -0.1883,0.59531 -0.31511,0.59531 -0.48267,0 -0.55855,-0.59444 -0.23636,-1.85158 0.23799,-0.92856 0.25502,-1.47607 0.0594,-1.90813 -0.57747,-1.27527 0.32937,-4.69088 0.97015,-3.65407 0.31925,0.51656 0.33063,0.49458 1.16258,-2.24351 0.39794,-1.30969 0.96603,-2.97656 1.26243,-3.70417 0.29639,-0.7276 0.63301,-1.70487 0.74805,-2.1717 0.34007,-1.38006 2.03475,-4.63895 2.90362,-5.58369 0.44322,-0.48192 0.80585,-0.98375 0.80585,-1.11517 0,-0.13142 0.25091,-0.37323 0.55758,-0.53735 0.74446,-0.39843 1.21767,0.0542 0.65006,0.62186 -0.22764,0.22763 -0.41389,0.48088 -0.41389,0.56278 0,0.0819 -0.41672,0.69483 -0.92604,1.36208 -0.50932,0.66725 -0.92604,1.37674 -0.92604,1.57664 0,0.19991 -0.20836,0.48836 -0.46302,0.641 -0.4359,0.26128 -0.43294,0.30079 0.0506,0.67461 0.28247,0.21839 0.67248,0.39707 0.86669,0.39707 0.28474,0 0.27663,0.14787 -0.0419,0.76381 -0.29567,0.57175 -0.33793,1.0541 -0.16808,1.91823 0.1248,0.63493 0.24069,0.97582 0.25753,0.75754 0.0168,-0.21828 0.21549,-0.75142 0.44145,-1.18476 0.22595,-0.43334 0.47311,-1.56443 0.54924,-2.51354 0.17817,-2.22141 0.52004,-3.09737 1.28366,-3.28902 0.41823,-0.10497 0.95482,-0.76697 1.68076,-2.07354 0.58651,-1.05564 1.36889,-2.2623 1.73861,-2.68146 0.36972,-0.41916 0.60689,-0.8678 0.52706,-0.99698 -0.15377,-0.24879 -1.36687,0.51514 -1.96776,1.23916 -0.53215,0.64121 -3.37815,2.0116 -3.56151,1.71493 -0.19182,-0.31039 0.61137,-1.59187 0.99773,-1.59187 0.15295,0 0.46668,-0.18192 0.69717,-0.40427 0.57075,-0.55059 2.12689,-1.62888 2.93261,-2.03208 0.3638,-0.18205 0.72099,-0.4083 0.79375,-0.50278 0.22468,-0.29173 2.64093,-2.08796 2.80869,-2.08796 0.087,0 0.75641,-0.47625 1.48748,-1.05833 0.73106,-0.58208 1.49124,-1.05833 1.68928,-1.05833 0.19804,0 0.50878,-0.23813 0.69054,-0.52917 0.18176,-0.29104 0.47451,-0.52917 0.65055,-0.52917 0.17605,0 0.4153,-0.15398 0.53167,-0.34218 0.25075,-0.40554 1.85609,-0.90093 3.51888,-1.08589 0.65484,-0.0728 1.60734,-0.34285 2.11666,-0.60001 0.50933,-0.25717 1.06473,-0.4716 1.23425,-0.47652 0.32954,-0.01 1.1828,-0.71442 2.12085,-1.752 0.77531,-0.85758 1.71994,-1.53638 2.9949,-2.15209 0.3638,-0.17569 1.12203,-0.60193 1.68494,-0.9472 1.06185,-0.65129 3.57981,-1.42322 3.93213,-1.20548 0.11081,0.0685 0.86334,-0.31481 1.6723,-0.85176 1.39402,-0.9253 2.7648,-2.50929 2.7648,-3.19483 0,-0.56613 2.953,-3.7962 3.47056,-3.7962 0.75619,0 0.60967,0.85252 -0.29556,1.71979 -0.43656,0.41825 -0.79375,0.90551 -0.79375,1.0828 0,0.17729 -0.43256,0.83962 -0.96125,1.47185 -0.52868,0.63223 -1.14605,1.53647 -1.37192,2.00941 -0.22587,0.47294 -0.56721,0.8599 -0.75854,0.8599 -0.19133,0 -0.34787,0.11906 -0.34787,0.26458 0,0.14552 -0.28916,0.26458 -0.64256,0.26458 -0.35341,0 -0.82875,0.18619 -1.05631,0.41375 -0.22756,0.22756 -0.52133,0.34725 -0.65282,0.26599 -0.13149,-0.0813 -0.57889,0.0295 -0.99421,0.24608 -0.41533,0.21661 -0.91005,0.39457 -1.09938,0.39547 -0.18932,9e-4 -0.52762,0.44055 -0.75176,0.97701 -0.22415,0.53645 -0.69432,1.35136 -1.04484,1.81091 -0.35051,0.45954 -0.63729,1.04181 -0.63729,1.29393 0,0.25212 -0.38695,0.8362 -0.8599,1.29795 -0.59703,0.5829 -0.9853,1.32474 -1.27012,2.42675 -0.36509,1.4126 -0.49364,1.6018 -1.16847,1.71979 -0.54409,0.0951 -0.92279,0.43149 -1.34086,1.19092 -0.51845,0.94178 -0.55833,1.25591 -0.36214,2.85247 0.23792,1.93609 0.80703,3.13342 1.20355,2.53213 0.12434,-0.18853 0.54863,-1.00095 0.94288,-1.80537 0.39425,-0.80441 0.72167,-1.31374 0.72761,-1.13184 0.006,0.1819 0.11333,0.33073 0.23868,0.33073 0.12534,0 0.17221,-0.29127 0.10416,-0.64726 -0.0725,-0.37923 0.0845,-0.95443 0.37918,-1.38906 0.2766,-0.40799 0.79361,-1.33712 1.14891,-2.06472 0.3553,-0.72761 0.7965,-1.41813 0.98043,-1.5345 0.18393,-0.11637 0.33442,-0.38427 0.33442,-0.59532 0,-0.21105 0.11906,-0.38372 0.26459,-0.38372 0.14552,0 0.26458,-0.16638 0.26458,-0.36973 0,-0.92378 4.99018,-6.24486 5.85651,-6.24486 0.59479,0 0.0577,0.83282 -1.75891,2.72749 -1.08952,1.13632 -1.98093,2.16438 -1.98093,2.28459 0,0.27868 -1.4974,2.66683 -2.4474,3.90328 -0.40018,0.52084 -0.7276,1.15416 -0.7276,1.40738 0,0.25321 -0.1786,0.60861 -0.39688,0.78976 -0.21828,0.18116 -0.39916,0.58269 -0.40195,0.8923 -0.003,0.3096 -0.41951,1.03786 -0.92604,1.61835 -0.50653,0.5805 -0.92613,1.23534 -0.93244,1.45521 -0.006,0.21987 -0.30316,0.87602 -0.65966,1.4581 -0.97711,1.59539 -1.02464,1.75024 -0.69783,2.27355 0.41416,0.66318 0.114,1.29833 -0.61357,1.29833 -0.42572,0 -0.72855,0.26457 -1.03003,0.89988 -0.23486,0.49493 -0.42702,1.08322 -0.42702,1.3073 0,0.22408 -0.11906,0.48101 -0.26458,0.57094 -0.14553,0.0899 -0.26459,0.4653 -0.26459,0.83414 0,0.43855 -0.17561,0.71654 -0.5075,0.80333 -0.27913,0.073 -0.65932,0.50833 -0.84487,0.96741 -0.18556,0.45909 -0.41043,0.89424 -0.49971,0.967 -0.0893,0.0728 -0.32403,0.54901 -0.52166,1.05833 -0.49248,1.26919 -2.17608,3.89747 -2.61725,4.08578 -0.28393,0.12121 -0.32245,-0.0503 -0.18081,-0.80529 0.099,-0.52762 0.29162,-1.09462 0.42808,-1.26 0.41086,-0.49792 2.66297,-5.00698 2.90943,-5.82509 0.18062,-0.59958 0.0822,-1.06283 -0.46213,-2.17443 -0.38041,-0.7769 -0.7776,-1.35942 -0.88265,-1.29449 -0.10505,0.0649 -0.26758,0.59693 -0.36118,1.18224 -0.0936,0.58531 -0.25808,1.0642 -0.36553,1.0642 -0.2869,0 -1.21878,3.0678 -1.02643,3.37903 0.0901,0.14585 -0.0134,0.41231 -0.23008,0.59213 -0.21667,0.17983 -0.39396,0.54059 -0.39396,0.80169 0,0.26109 -0.11742,0.5144 -0.26095,0.56291 -0.14352,0.0485 -0.34007,0.68351 -0.43677,1.41111 -0.0967,0.72761 -0.33647,1.41813 -0.5328,1.5345 -0.19634,0.11637 -0.35698,0.48088 -0.35698,0.81001 0,0.32913 -0.24276,0.859 -0.53947,1.17748 -1.02051,1.09539 -1.36906,0.54097 -0.66992,-1.06562 0.78453,-1.80279 1.85819,-5.8901 1.75453,-6.67935 -0.0643,-0.48996 -1.05173,-1.94851 -1.34045,-1.98009 -0.24495,-0.0268 -0.76852,1.42485 -0.94901,2.6312 -0.098,0.65484 -0.32311,1.36922 -0.50031,1.5875 -0.40906,0.50391 -1.19495,2.95631 -1.19495,3.7289 0,0.32273 0.29766,0.97702 0.66146,1.45399 0.6913,0.90635 0.83992,1.43169 0.40502,1.43169 -0.48072,0 -2.3894,-1.11082 -2.3894,-1.39059 0,-0.43042 -1.16621,-2.81967 -1.38227,-2.8319 -0.29391,-0.0166 -0.99898,1.47903 -0.99898,2.11914 0,0.70434 -1.61859,2.36793 -2.30387,2.36793 -0.33568,0 -0.6631,-0.359 -0.97767,-1.07199 -0.56178,-1.2733 -1.02258,-1.23555 -1.23992,0.10157 -0.0868,0.53377 -0.36765,1.36026 -0.6242,1.83664 l -0.46645,0.86615 1.12251,1.62669 c 0.68048,0.98612 1.0594,1.79111 0.96227,2.04423 -0.21295,0.55495 -0.68262,0.53085 -0.88602,-0.0455 -0.20042,-0.56786 -1.15485,-1.65365 -1.4536,-1.65365 -0.12016,0 -0.21846,0.40821 -0.21846,0.90714 0,0.49893 -0.16289,1.07003 -0.36197,1.26911 -0.19908,0.19909 -0.44523,0.62431 -0.547,0.94494 -0.10176,0.32064 -0.33321,0.58298 -0.51431,0.58298 -0.43666,0 -1.5849,-1.55107 -1.75172,-2.36625 -0.0728,-0.35555 -0.25136,-0.61564 -0.39688,-0.57796 -0.14552,0.0377 -0.23088,0.23368 -0.18969,0.43559 0.0412,0.2019 -0.10764,0.80394 -0.33073,1.33787 -0.22309,0.53394 -0.40562,1.24117 -0.40562,1.57163 0,0.5742 -0.65782,1.10302 -0.88575,0.71204 z m 4.33375,-3.57593 c 0.005,-0.31884 0.18322,-0.81082 0.39687,-1.09329 0.52717,-0.69699 0.48835,-1.64298 -0.10212,-2.48828 -0.26982,-0.38626 -0.56231,-0.99995 -0.64997,-1.36376 -0.0877,-0.3638 -0.33936,-0.89958 -0.55933,-1.19062 -0.39444,-0.52188 -0.40007,-0.52078 -0.40837,0.0793 -0.005,0.33465 -0.19821,0.97548 -0.43018,1.42407 -0.23197,0.44858 -0.36308,1.12728 -0.29134,1.50821 0.26901,1.42857 0.44384,1.98438 0.70691,2.24745 0.14893,0.14893 0.27078,0.46128 0.27078,0.69411 0,0.51674 0.53112,1.08836 0.8361,0.89987 0.12223,-0.0755 0.22602,-0.39821 0.23065,-0.71704 z m 1.98724,-7.65063 c 0.44845,-1.49672 0.44604,-1.53906 -0.20343,-3.57187 -0.36149,-1.13146 -0.7638,-2.03902 -0.89401,-2.01681 -0.30815,0.0526 -1.05374,2.27042 -1.28476,3.82163 -0.15765,1.05858 -0.0685,1.43106 0.68803,2.87427 0.78289,1.49353 0.88756,1.59602 1.05474,1.03277 0.10207,-0.34392 0.38982,-1.30692 0.63943,-2.13999 z m 4.04176,-0.27126 c 0.85914,-2.3168 0.94871,-2.80211 0.63836,-3.45867 -0.61311,-1.29707 -0.89607,-2.28001 -0.73252,-2.54463 0.0954,-0.1543 0.004,-0.28055 -0.20315,-0.28055 -0.41175,0 -0.93695,1.32298 -1.56145,3.93326 -0.39646,1.65711 -0.3925,1.70304 0.24535,2.84427 0.35657,0.63798 0.72749,1.15997 0.82425,1.15997 0.0968,0 0.45189,-0.74414 0.78916,-1.65365 z m -8.01476,-0.14731 c -0.0741,-0.0741 -0.007,-0.2887 0.14924,-0.47689 0.20225,-0.24371 0.20181,-1.01205 -0.002,-2.67018 -0.15704,-1.28041 -0.28586,-2.47684 -0.28627,-2.65874 -0.003,-1.18753 -1.45984,1.4186 -1.73826,3.10885 -0.13719,0.8329 -0.11443,0.87947 0.22635,0.46302 0.68053,-0.83167 1.02431,-0.55269 0.9781,0.79375 -0.0237,0.69123 -0.0318,1.67349 -0.018,2.18281 l 0.0251,0.92605 0.39998,-0.76697 c 0.21998,-0.42184 0.33935,-0.8276 0.26525,-0.9017 z m 12.4159,-1.70477 c 0.10422,-0.61847 0.24949,-1.49006 0.32282,-1.93687 0.0768,-0.46798 -0.0581,-1.25316 -0.3183,-1.85208 l -0.45165,-1.0397 -0.55662,1.19063 c -0.74581,1.59531 -0.77561,3.86198 -0.0577,4.38695 0.75696,0.5535 0.85343,0.48544 1.06143,-0.74893 z m -6.83439,-2.77813 c 0.0814,-0.25466 0.24366,-0.70114 0.36059,-0.99218 1.0281,-2.55892 1.17706,-3.6558 0.67009,-4.93418 -0.0951,-0.23994 -0.0387,-0.51926 0.12545,-0.62071 0.20353,-0.12579 0.14995,-0.29304 -0.16847,-0.52588 -0.40324,-0.29486 -0.56777,-0.23345 -1.20646,0.45026 -0.40674,0.43542 -0.74027,0.92791 -0.74116,1.09442 -9e-4,0.16652 -0.18825,0.65994 -0.41633,1.0965 -0.39061,0.74764 -0.38461,1.18802 0.0468,3.43959 0.26955,1.40661 1.01839,1.96548 1.32945,0.99218 z m 5.14344,-2.47677 c 0.44779,-0.91812 0.44624,-1.01527 -0.0398,-2.48847 -0.27816,-0.84317 -0.50575,-1.70308 -0.50575,-1.9109 0,-1.35337 -1.5751,1.63879 -1.63494,3.10583 -0.0148,0.3638 0.25058,1.30518 0.5898,2.09196 0.58285,1.35179 0.63075,1.39546 0.87073,0.79375 0.13967,-0.35022 0.46364,-1.06669 0.71993,-1.59217 z m 2.9989,-0.39137 c 0.0888,-0.23142 0.10285,-0.51558 0.0312,-0.63148 -0.0716,-0.1159 0.0471,-0.35786 0.26373,-0.53769 0.21668,-0.17983 0.39396,-0.61787 0.39396,-0.97342 0,-0.35555 0.12699,-0.88373 0.2822,-1.17374 0.33228,-0.62089 0.0632,-2.1548 -0.35361,-2.01586 -0.15828,0.0528 -0.45976,0.62462 -0.66995,1.27079 -0.21019,0.64617 -0.54609,1.56585 -0.74644,2.04373 -0.44811,1.06881 -0.46216,1.70555 -0.0468,2.12092 0.4272,0.4272 0.65268,0.39967 0.84567,-0.10325 z m 4.29838,-0.70373 c 0.11656,-0.47294 0.21711,-0.99259 0.22345,-1.15477 0.006,-0.16217 0.15172,-0.46381 0.32309,-0.6703 0.17137,-0.20649 0.55896,-0.95252 0.8613,-1.65786 0.47834,-1.11592 0.51485,-1.47548 0.28119,-2.76928 -0.14769,-0.81777 -0.29515,-1.81428 -0.32768,-2.21446 -0.0325,-0.40018 -0.1455,-0.7276 -0.25103,-0.7276 -0.32065,0 -1.01562,1.14388 -1.01562,1.67167 0,0.27258 -0.21957,0.81163 -0.48793,1.1979 -0.26835,0.38627 -0.70665,1.32197 -0.97398,2.07935 -0.39703,1.1248 -0.42882,1.50269 -0.17354,2.06297 0.17189,0.37726 0.31253,0.89471 0.31253,1.14989 0,0.55831 0.58982,1.88742 0.83887,1.89032 0.0976,0.001 0.27279,-0.38489 0.38935,-0.85783 z m 5.78196,-3.32016 c 0.49993,-1.16011 0.4781,-1.56653 -0.28354,-5.2788 -0.20766,-1.01214 -0.5653,-0.66963 -1.32639,1.27026 -0.40257,1.02607 -0.82981,1.92606 -0.94943,1.99999 -0.11962,0.0739 -0.21749,0.25348 -0.21749,0.399 0,0.14552 0.11906,0.191 0.26459,0.10106 0.14874,-0.0919 0.26458,0.11878 0.26458,0.48124 0,0.65805 0.58127,2.2644 0.9531,2.63392 0.28167,0.27991 0.71144,-0.25347 1.29458,-1.60667 z m -2.51226,0.87276 c 0,-0.21828 -0.11533,-0.39687 -0.25628,-0.39687 -0.14096,0 -0.18775,0.17859 -0.10399,0.39687 0.0838,0.21828 0.19909,0.39688 0.25628,0.39688 0.0572,0 0.10399,-0.1786 0.10399,-0.39688 z m -8.71283,-1.41023 c 0.17055,-0.53406 0.41476,-1.08413 0.5427,-1.22237 0.12795,-0.13825 0.23263,-0.42653 0.23263,-0.64063 0,-0.2141 0.19888,-0.60903 0.44195,-0.87762 0.29777,-0.32903 0.47757,-1.10765 0.55113,-2.38656 0.13151,-2.28672 -0.0482,-2.22473 -1.96641,0.67813 -1.30868,1.98049 -1.39246,2.38891 -1.00024,4.87574 0.14313,0.90749 0.24935,1.07451 0.53344,0.83873 0.1951,-0.16191 0.49426,-0.73135 0.6648,-1.26542 z m -4.09012,-0.24341 c 0.10209,-0.54571 0.36774,-1.12584 0.59035,-1.2892 0.29459,-0.21617 0.43592,-0.94934 0.51934,-2.69399 l 0.1146,-2.39699 -0.98586,0.44504 c -0.73439,0.33152 -0.86053,0.46845 -0.49452,0.53686 0.89808,0.16785 0.92057,0.47791 0.13916,1.91875 -0.67479,1.24425 -0.75776,1.62571 -0.64167,2.95036 0.15275,1.74301 0.4878,1.97672 0.7586,0.52917 z m 8.0418,-3.175 c 7.5e-4,-0.25467 0.29469,-0.93927 0.6532,-1.52136 0.35852,-0.58208 0.65556,-1.26669 0.6601,-1.52135 0.005,-0.25466 0.12532,-0.46302 0.26839,-0.46302 0.14307,0 0.56179,-0.59532 0.9305,-1.32292 0.3687,-0.7276 0.78743,-1.32292 0.9305,-1.32292 0.14307,0 0.23653,-0.0893 0.2077,-0.19843 -0.10707,-0.40532 0.34997,-1.3451 0.72395,-1.48861 0.21274,-0.0816 0.38056,-0.36053 0.37293,-0.61976 -0.0125,-0.42399 -0.0516,-0.41755 -0.38939,0.0641 -0.20654,0.29449 -0.79561,0.99406 -1.30904,1.55461 -0.51344,0.56054 -0.93353,1.24233 -0.93353,1.51508 0,0.27275 -0.14883,0.49914 -0.33073,0.50309 -0.1819,0.004 -0.80529,0.98622 -1.38532,2.18281 -1.54694,3.19134 -1.52031,3.10168 -0.92125,3.10168 0.31894,0 0.52116,-0.17938 0.52199,-0.46302 z m 5.39143,-2.24896 c 0.71392,-1.50361 0.94004,-2.36213 1.04613,-3.9719 0.0744,-1.12952 0.0341,-1.99113 -0.0896,-1.91468 -0.12369,0.0764 -0.72596,0.88153 -1.33837,1.78909 -0.90875,1.34669 -1.12574,1.90603 -1.18014,3.04209 -0.0367,0.7656 0.0389,1.45723 0.16792,1.53697 0.12901,0.0797 0.23457,0.4356 0.23457,0.79081 0,0.35522 0.0559,0.64585 0.12433,0.64585 0.0684,0 0.53419,-0.86321 1.03512,-1.91823 z m -8.43549,-2.23665 c 0.68079,-0.72649 1.86985,-1.03204 2.37731,-0.61089 0.30631,0.25421 0.46957,0.23689 0.79031,-0.0839 0.22234,-0.22234 0.40425,-0.51162 0.40425,-0.64284 0,-0.13122 0.47457,-0.7648 1.0546,-1.40796 0.58003,-0.64316 1.05628,-1.26407 1.05833,-1.3798 0.007,-0.38938 -1.96937,0.14953 -3.30355,0.90084 -0.72761,0.40973 -2.1266,1.41329 -3.10887,2.23013 -1.49266,1.24128 -1.7607,1.58577 -1.6322,2.09772 0.0846,0.3369 0.025,0.69209 -0.13229,0.78932 -0.15731,0.0972 -0.28602,0.48821 -0.28602,0.86886 0,0.62838 0.10352,0.55912 1.12448,-0.75238 0.61847,-0.79445 1.36261,-1.69857 1.65365,-2.00915 z m 11.24479,-2.82418 c 0,-0.20047 0.17859,-0.5127 0.39687,-0.69386 0.21829,-0.18116 0.39688,-0.5469 0.39688,-0.81275 0,-0.26586 0.53578,-1.05056 1.19062,-1.74379 0.65485,-0.69323 1.19063,-1.41737 1.19063,-1.6092 0,-0.19183 0.17618,-0.41639 0.39152,-0.49902 0.45533,-0.17473 1.58772,-1.91086 1.38111,-2.11747 -0.21056,-0.21056 -1.17079,0.36694 -2.75319,1.65583 -0.78171,0.63671 -1.65059,1.15765 -1.93084,1.15765 -0.28026,0 -0.64304,0.24939 -0.80617,0.5542 -0.26476,0.49472 -0.23736,0.53541 0.25528,0.37905 0.71964,-0.22841 0.74128,0.40082 0.0357,1.03933 -0.48458,0.43854 -0.48977,0.50731 -0.0849,1.12529 0.34418,0.5253 0.36826,0.75909 0.11925,1.15783 -0.38111,0.61026 -0.39102,0.77138 -0.0474,0.77138 0.14552,0 0.26458,-0.16401 0.26458,-0.36447 z m -2.065,-2.46315 c 1.04545,-1.00161 0.92389,-1.30673 -0.18396,-0.46173 -0.50932,0.38848 -0.92604,0.81126 -0.92604,0.93951 0,0.4043 0.34374,0.25634 1.11,-0.47778 z m -6.13604,35.90259 c -0.44544,-0.87313 -0.51424,-1.43125 -0.43111,-3.49706 0.0941,-2.3381 0.33592,-3.28904 1.1814,-4.64555 0.28329,-0.45452 0.4582,-0.53 0.72161,-0.31139 0.3644,0.30243 0.31595,0.59544 -0.34384,2.0796 -0.53995,1.21457 -0.64223,4.66395 -0.17227,5.80935 0.46061,1.12258 0.45768,1.26499 -0.0298,1.45206 -0.27048,0.1038 -0.56384,-0.17722 -0.92595,-0.88701 z m 8.88863,0.16081 c -0.23266,-0.38061 -0.6016,-0.98549 -0.81988,-1.34418 -0.21828,-0.35868 -0.39688,-0.76086 -0.39688,-0.89373 0,-0.13286 -0.20205,-0.7026 -0.449,-1.26608 -0.24695,-0.56347 -0.46553,-1.26262 -0.48573,-1.55366 -0.0202,-0.29104 -0.18197,-1.04277 -0.35949,-1.67052 -0.53684,-1.89838 -0.79497,-5.02138 -0.50256,-6.08039 0.37703,-1.36549 1.5322,-2.20433 1.5322,-1.11263 0,0.29104 0.11906,0.52916 0.26458,0.52916 0.14552,0 0.26525,-0.50601 0.26606,-1.12448 0.002,-1.59553 0.46382,-3.05605 1.06844,-3.37963 0.28467,-0.15235 0.51759,-0.42905 0.51759,-0.61487 0,-0.18583 0.24124,-0.83719 0.53609,-1.44746 0.29485,-0.61027 0.60824,-1.47032 0.69642,-1.91122 0.0882,-0.44091 0.50178,-1.16717 0.91911,-1.61393 0.41734,-0.44676 0.75879,-0.97582 0.75879,-1.17569 0,-0.44113 2.6869,-5.76225 2.97241,-5.88654 0.11142,-0.0485 0.20266,-0.2271 0.20274,-0.39687 1.4e-4,-0.29798 1.42483,-2.70678 2.51339,-4.24956 1.16897,-1.65673 4.36977,-4.92266 4.82449,-4.92266 0.48975,0 0.11807,0.6155 -1.35807,2.24896 -0.65753,0.7276 -1.49363,1.93137 -1.85801,2.67504 -0.36438,0.74367 -0.93486,1.53449 -1.26775,1.75739 -0.33288,0.22289 -0.89984,0.98365 -1.2599,1.69058 -0.36007,0.70692 -1.02106,1.88063 -1.46888,2.60824 -0.82229,1.33603 -2.24425,4.52982 -2.24284,5.03752 4.1e-4,0.15126 -0.41626,1.07482 -0.92595,2.05235 -0.838,1.60721 -0.92726,1.98609 -0.93256,3.95831 -0.008,2.89347 0.20622,5.81813 0.55644,7.60494 0.15688,0.80036 0.30583,1.83197 0.33101,2.29246 0.0252,0.46048 0.11803,0.90977 0.20633,0.9984 0.27355,0.27457 -0.071,1.47164 -0.42359,1.47164 -0.60737,0 -0.86108,-0.63743 -1.15839,-2.91042 -0.84936,-6.49348 -1.1449,-8.25761 -1.34409,-8.02316 -1.10974,1.30615 -0.9213,7.05286 0.29345,8.94921 0.0932,0.14552 0.30987,0.78794 0.48146,1.4276 0.17158,0.63967 0.55687,1.49428 0.85619,1.89913 0.29933,0.40486 0.47594,0.91406 0.39249,1.13155 -0.28096,0.73216 -1.1524,0.16422 -1.69684,-1.10586 -0.29134,-0.67966 -0.83374,-1.95013 -1.20532,-2.82326 -0.37159,-0.87312 -0.82134,-2.51023 -0.99946,-3.63802 -0.31468,-1.99246 -0.59921,-2.53474 -0.83295,-1.5875 -0.10007,0.40553 0.40834,5.80275 0.57947,6.15156 0.0357,0.0728 0.0466,0.23412 0.0243,0.35858 -0.0223,0.12446 0.0671,0.36259 0.19877,0.52917 0.13166,0.16658 0.38964,0.77913 0.57327,1.36121 0.18364,0.58209 0.46351,1.29646 0.62193,1.5875 0.74344,1.36578 0.95792,2.36967 0.58579,2.7418 -0.30635,0.30634 -0.42714,0.25557 -0.78505,-0.32998 z m -3.83697,-0.58726 c -0.76014,-0.96636 -0.94432,-2.12822 -0.94824,-5.98177 -0.003,-2.84805 0.0672,-3.43421 0.45771,-3.82512 0.68323,-0.68401 1.05921,-0.16335 0.70878,0.98154 -0.65923,2.15373 0.0976,8.11399 1.10966,8.7395 0.20514,0.12679 0.12606,0.2848 -0.24079,0.48113 -0.46071,0.24657 -0.63093,0.18468 -1.08712,-0.39528 z m 69.27899,-0.12099 c -0.28212,-0.28212 -0.51295,-0.6207 -0.51295,-0.75241 0,-0.13171 0.92274,-0.1932 2.05052,-0.13666 1.12779,0.0565 2.49701,0.10478 3.04271,0.10718 0.70362,0.003 0.99219,0.11979 0.99219,0.40124 0,0.21828 -0.14883,0.40286 -0.33073,0.41018 -0.32029,0.0129 -1.20797,0.10189 -3.5881,0.35981 -0.88709,0.0961 -1.25474,0.01 -1.65364,-0.38934 z m -38.97178,-0.38013 c -0.57684,-0.57684 -0.54867,-0.73346 0.0951,-0.52912 0.5873,0.1864 2.65414,-0.73476 3.33387,-1.48586 0.44066,-0.48692 1.16315,-0.40055 1.16315,0.13906 0,0.52232 -1.68136,1.98686 -2.24968,1.95956 -0.29064,-0.014 -0.83875,0.0594 -1.21802,0.16295 -0.48264,0.1318 -0.82007,0.0578 -1.12447,-0.24659 z m -1.36096,-0.13253 c -0.21577,-0.34912 0.1006,-0.84457 0.41516,-0.65016 0.32137,0.19861 0.31928,0.91474 -0.003,0.91474 -0.13693,0 -0.32255,-0.11906 -0.41249,-0.26458 z m -78.97812,-1.4396 c 0,-0.64625 0.12222,-1.25054 0.2716,-1.34286 0.14938,-0.0923 0.24302,-0.30771 0.20809,-0.47864 -0.1,-0.48922 1.33631,-3.15528 2.07277,-3.84752 0.49953,-0.46953 0.742,-0.55068 0.96855,-0.32413 0.22654,0.22655 0.20861,0.44958 -0.0717,0.89091 -0.73521,1.15774 -1.64577,2.84722 -1.70869,3.17032 -0.15388,0.79019 -0.69915,2.46807 -0.8807,2.71006 -0.50917,0.67865 -0.85997,0.36123 -0.85997,-0.77814 z m 77.54212,0.21329 c -0.71888,-0.91391 -0.77975,-2.82906 -0.0854,-2.68556 0.27233,0.0563 0.44361,0.30784 0.41589,0.61085 -0.0259,0.28334 0.0515,0.57644 0.17199,0.65132 0.12052,0.0749 0.26079,0.37428 0.31172,0.66532 0.0509,0.29104 0.19714,0.60515 0.32492,0.69802 0.26189,0.19034 -0.008,0.75719 -0.36104,0.75719 -0.12637,0 -0.47653,-0.31371 -0.77813,-0.69714 z m 38.87454,-1.19553 c -0.50932,-0.14159 -1.28323,-0.60617 -1.71979,-1.0324 -2.65253,-2.58973 -3.37264,-3.10084 -4.59776,-3.26336 -1.13697,-0.15083 -2.67828,-1.13782 -2.67828,-1.71507 0,-0.11504 -0.32742,-0.37604 -0.7276,-0.58001 -1.26922,-0.64689 -2.44073,-1.43144 -2.44412,-1.6368 -0.005,-0.32282 1.26888,-0.22675 2.21042,0.16665 0.48058,0.2008 1.31365,0.90189 1.85126,1.55797 0.87225,1.06447 1.12802,1.21169 2.3759,1.36761 0.94032,0.11748 1.52032,0.34384 1.77052,0.69098 0.20466,0.28395 0.47746,0.51627 0.60623,0.51627 0.12877,0 0.58787,0.29765 1.02023,0.66146 0.43235,0.3638 0.94265,0.66145 1.13399,0.66145 0.19134,0 0.41902,0.28343 0.50597,0.62985 0.17996,0.71701 0.8107,0.94885 2.59565,0.95404 1.38103,0.004 1.87312,0.42637 1.12994,0.96979 -0.5566,0.40701 -1.68502,0.42619 -3.03256,0.0516 z m -42.34869,-2.42494 c -0.37225,-0.3282 -0.86428,-1.06858 -1.09338,-1.64529 -0.26763,-0.67367 -0.61,-1.07789 -0.95761,-1.13059 -0.67886,-0.10292 -1.27786,-0.78737 -0.95191,-1.08771 0.13207,-0.12171 0.67914,-0.29925 1.2157,-0.39454 0.91926,-0.16325 1.00081,-0.12006 1.4129,0.74836 0.24053,0.50689 0.35407,1.05633 0.2523,1.221 -0.23884,0.38644 1.15169,1.84388 1.75924,1.84388 0.2555,0 0.88743,-0.24951 1.4043,-0.55447 0.83663,-0.49363 0.95768,-0.50777 1.10306,-0.12892 0.22994,0.59922 -0.31951,1.15827 -1.4459,1.47114 -1.40936,0.39146 -1.94266,0.32371 -2.6987,-0.34286 z m 55.04869,-2.07824 c -0.50932,-0.14102 -1.40229,-0.38844 -1.98437,-0.54981 -0.58208,-0.16137 -1.20585,-0.40451 -1.38615,-0.54031 -0.55689,-0.41944 -0.064,-0.75729 0.81602,-0.55939 0.45909,0.10324 1.01331,0.17948 1.23159,0.16941 0.21828,-0.0101 0.69453,0.0814 1.05833,0.20315 0.3638,0.1218 0.98888,0.29293 1.38906,0.38029 0.79402,0.17334 0.9763,0.79046 0.30909,1.04649 -0.23018,0.0883 -0.43854,0.14845 -0.46302,0.13359 -0.0245,-0.0148 -0.46122,-0.14239 -0.97055,-0.28342 z m -68.51777,-0.46592 c -0.15064,-0.28148 -0.27389,-0.69467 -0.27389,-0.9182 0,-0.22354 -0.32742,-1.09457 -0.72761,-1.93563 -0.65379,-1.37406 -0.7276,-1.81772 -0.7276,-4.37346 0,-1.56435 -0.0595,-2.84222 -0.13229,-2.8397 -0.0728,0.003 -0.41183,0.38947 -0.75348,0.85989 l -0.62119,0.85533 0.18111,-1.05833 c 0.15297,-0.8939 1.19557,-3.27695 3.27015,-7.47448 0.23375,-0.47295 0.51698,-0.8599 0.62941,-0.8599 0.11243,0 0.20442,-0.21567 0.20442,-0.47928 0,-0.2636 0.22821,-0.72424 0.50715,-1.02363 0.27893,-0.2994 0.62392,-0.96728 0.76664,-1.48418 0.49681,-1.79928 3.31007,-5.21499 4.29519,-5.21499 0.69358,0 0.65145,0.25261 -0.21117,1.26604 -1.60869,1.88993 -2.18281,2.65555 -2.18281,2.91087 0,0.14731 -0.42436,0.89842 -0.94302,1.66915 -0.51867,0.77073 -1.00828,1.72758 -1.08803,2.12634 -0.0797,0.39876 -0.2917,0.78131 -0.47099,0.85011 -0.21604,0.0829 -0.28935,0.5348 -0.21735,1.33983 0.10225,1.14342 0.0704,1.21474 -0.54206,1.21474 -0.78377,0 -0.99414,0.4516 -0.79165,1.69941 0.0974,0.60037 0.0141,1.15155 -0.23223,1.53661 -0.45545,0.71188 -0.66098,6.40874 -0.24059,6.66855 0.14303,0.0884 0.21139,0.41345 0.1519,0.72233 -0.0595,0.30889 -0.0234,0.69333 0.0803,0.85433 0.10363,0.161 0.33642,0.70945 0.51731,1.21877 0.61645,1.73572 0.26544,3.20179 -0.44759,1.86948 z m 103.00524,0.23299 c -0.49562,-0.49562 -6.09359,-1.372 -6.69792,-1.04858 -0.41003,0.21945 -0.73123,0.17867 -1.39497,-0.17708 -0.47426,-0.25419 -1.10041,-0.49006 -1.39145,-0.52414 -0.29104,-0.0341 -1.24083,-0.1928 -2.11064,-0.35271 -1.34992,-0.24817 -1.62537,-0.23071 -1.88125,0.11923 -0.41547,0.56819 -0.83481,0.51217 -1.04152,-0.13913 -0.0959,-0.30201 -0.24175,-0.48163 -0.32422,-0.39917 -0.0825,0.0825 -0.28258,0.0399 -0.44471,-0.0947 -0.16213,-0.13455 -0.94699,-0.31183 -1.74414,-0.39395 -3.69923,-0.38107 -3.81437,-0.38579 -3.42636,-0.14041 0.21423,0.13548 0.6574,0.24815 0.98482,0.25038 0.32742,0.002 0.59531,0.137 0.59531,0.29949 0,0.16582 0.23368,0.23433 0.53263,0.15616 0.34823,-0.0911 0.62328,0.0301 0.79446,0.34996 0.33537,0.62664 -0.22242,1.03862 -0.63962,0.47241 -0.15983,-0.21691 -0.43942,-0.34424 -0.62132,-0.28296 -0.18191,0.0613 -0.33073,-0.0709 -0.33073,-0.29374 0,-0.3359 -0.13663,-0.35753 -0.79928,-0.12653 -0.54201,0.18895 -0.90395,0.19214 -1.12448,0.01 -0.28728,-0.23738 -1.61754,-0.56939 -2.82043,-0.70393 -0.22835,-0.0255 -0.59378,-0.11422 -0.81206,-0.19708 -0.84288,-0.31994 -4.20178,-0.81519 -6.35,-0.93626 -1.23693,-0.0697 -2.30428,-0.17839 -2.3719,-0.2415 -0.25509,-0.23813 0.47594,-1.01211 0.88564,-0.93768 0.23536,0.0428 0.42792,-0.0312 0.42792,-0.16426 0,-0.1331 -0.74414,-0.32602 -1.65364,-0.42871 -2.63973,-0.29804 -2.96702,-0.40925 -4.00617,-1.36124 -0.54132,-0.49591 -1.13374,-0.90166 -1.31648,-0.90166 -0.18274,0 -0.56461,-0.20836 -0.8486,-0.46302 -1.253,-1.12359 -1.36629,-1.1722 -1.92247,-0.82486 -0.38282,0.23908 -0.62547,0.25103 -0.88063,0.0434 -0.74958,-0.60997 -2.37728,-1.40134 -2.8823,-1.40134 -0.67481,0 -2.36467,-0.69935 -2.36482,-0.97869 -7e-5,-0.11656 0.50595,-0.17866 1.12448,-0.13799 1.89646,0.12471 2.92907,0.0804 3.12175,-0.13379 0.10128,-0.1126 0.2603,-0.71075 0.35339,-1.32922 0.137,-0.91025 0.0915,-1.12448 -0.23906,-1.12448 -0.22457,0 -0.47684,0.1786 -0.5606,0.39688 -0.16975,0.44237 -1.07851,0.52019 -1.67431,0.14337 -0.24417,-0.15443 -0.50959,-0.14448 -0.71601,0.0268 -0.42651,0.35397 -0.90006,0.0567 -0.7078,-0.44431 0.10308,-0.26863 0.49819,-0.37626 1.27357,-0.34693 0.65456,0.0248 1.37059,-0.13011 1.71415,-0.37074 0.66675,-0.46702 2.04988,-0.22562 2.5446,0.44411 0.42531,0.57575 1.60109,0.79918 1.7781,0.33789 0.0981,-0.25566 0.4589,-0.35663 1.0942,-0.30623 0.5213,0.0414 0.94782,-0.0194 0.94782,-0.13502 0,-0.31795 -0.78382,-0.9023 -0.96598,-0.72014 -0.33837,0.33837 -1.67987,-0.62982 -1.6839,-1.21531 -0.007,-1.01965 -0.37825,-1.35905 -0.90756,-0.82974 -0.46629,0.46629 -0.62852,0.38108 -1.05185,-0.55253 -0.066,-0.14552 -0.30649,-0.0329 -0.53445,0.25036 -0.52169,0.64813 -0.87572,0.32171 -0.98896,-0.91182 l -0.085,-0.92604 h -1.38895 c -0.76392,0 -1.389,0.0893 -1.38906,0.19844 -6e-5,0.10914 -0.11918,0.19843 -0.2647,0.19843 -0.40119,0 -0.31646,-0.98181 0.0985,-1.14103 0.19968,-0.0766 0.8949,-0.21907 1.54494,-0.31655 0.9184,-0.13772 1.27986,-0.0793 1.62133,0.2622 0.24169,0.24169 0.43943,0.3577 0.43943,0.25781 0,-0.0999 0.29347,0.0107 0.65215,0.24569 0.35868,0.23501 0.87988,0.4273 1.15823,0.4273 0.27834,0 0.65668,0.18147 0.84076,0.40327 0.46718,0.56292 0.60307,0.31799 0.24146,-0.43522 -0.41025,-0.85454 -3.12546,-3.14305 -3.72907,-3.14305 -0.26755,0 -0.48645,-0.11679 -0.48645,-0.25954 0,-0.14275 -0.32742,-0.33776 -0.7276,-0.43336 -0.84349,-0.2015 -1.38906,-0.58006 -1.38906,-0.96385 0,-0.36011 2.58049,-0.0498 3.08793,0.37137 0.21234,0.17622 0.66741,0.33272 1.01127,0.34778 0.34387,0.0151 0.85151,0.23217 1.12811,0.48248 0.27659,0.25032 0.76515,0.45512 1.08568,0.45512 0.32053,0 0.66109,0.20407 0.7568,0.45349 0.0957,0.24942 0.61241,1.1135 1.14822,1.92018 0.53581,0.80667 1.06143,1.983 1.16805,2.61407 l 0.19385,1.14738 0.47145,-0.77524 c 0.54601,-0.89783 2.5417,-1.92244 3.83949,-1.97123 1.33703,-0.0503 4.78433,1.79778 5.27249,2.82651 0.64235,1.35363 1.03258,2.37385 0.98772,2.58224 -0.1225,0.56894 0.55438,0.058 1.30159,-0.98243 0.98818,-1.37603 2.4228,-2.44329 3.601,-2.67893 0.9573,-0.19146 3.51389,0.55837 3.535,1.03679 0.0149,0.33706 2.01307,2.02925 2.39621,2.02925 0.12978,0 0.23597,-0.16626 0.23597,-0.36946 0,-0.59681 1.83544,-2.05157 2.47364,-1.9606 0.741,0.10561 0.77596,1.09235 0.0437,1.23337 -0.28896,0.0556 -0.74739,0.35493 -1.01873,0.66508 -0.57379,0.65584 -0.48815,2.2861 0.20676,3.93608 0.22954,0.54501 0.40805,1.06187 0.3967,1.14857 -0.0113,0.0867 0.19565,0.32162 0.46,0.52202 0.26435,0.2004 0.39429,0.36815 0.28875,0.37278 -0.10554,0.005 -0.0834,0.29375 0.0492,0.64249 0.1742,0.45818 0.13107,0.77012 -0.15546,1.12448 -0.28443,0.35175 -0.43548,0.3969 -0.53426,0.15967 -0.0757,-0.1819 -0.24992,-0.33073 -0.38705,-0.33073 -0.13713,0 -0.0677,0.35128 0.15434,0.78061 0.22202,0.42934 0.40367,1.32231 0.40367,1.98438 0,1.12921 0.0451,1.20571 0.7276,1.23511 0.40019,0.0172 0.89352,0.008 1.09631,-0.0203 0.20279,-0.0284 0.46441,0.10319 0.58138,0.29245 0.16308,0.26387 0.37185,0.19457 0.89532,-0.2972 0.64474,-0.6057 0.75048,-0.62317 1.90426,-0.31458 0.67188,0.1797 1.5502,0.56071 1.95182,0.84668 0.7214,0.51368 1.83914,0.70797 1.83914,0.31969 0,-0.26869 -1.69591,-1.81183 -2.44442,-2.22424 -0.32906,-0.18129 -0.89594,-0.36844 -1.25974,-0.41588 -1.28146,-0.16711 -1.50901,-0.33279 -0.98603,-0.71791 0.44919,-0.33079 0.44919,-0.3524 0,-0.50719 -0.25805,-0.0889 -0.82637,-0.39249 -1.26293,-0.67459 -0.43656,-0.2821 -0.98937,-0.52162 -1.22847,-0.53225 -0.35457,-0.0158 -0.75591,-0.51889 -0.75591,-0.94762 0,-0.32671 1.01743,-0.22532 1.45521,0.14501 0.29104,0.2462 0.92996,0.52294 1.41982,0.61499 0.84124,0.15807 0.88357,0.13033 0.76309,-0.49996 -0.0702,-0.36702 -0.0245,-0.73102 0.10153,-0.8089 0.41113,-0.25409 0.24103,-0.63953 -0.28223,-0.63953 -0.28124,0 -0.58029,-0.21723 -0.66456,-0.48275 -0.0843,-0.26551 -0.53171,-0.65246 -0.99431,-0.85989 -1.25625,-0.5633 -1.25667,-1.03861 -9.1e-4,-1.03861 1.33876,0 1.86502,-0.54401 1.38818,-1.435 -0.47521,-0.88793 -1.46936,-1.29516 -2.14288,-0.87777 -0.43527,0.26974 -0.57567,0.25751 -0.7861,-0.0685 -0.51298,-0.79472 -0.16908,-1.18743 1.11246,-1.27036 1.04829,-0.0678 1.25797,0.001 1.40451,0.46302 0.0947,0.29852 0.39179,0.54276 0.66009,0.54276 0.2683,0 0.80271,0.37423 1.18758,0.83162 0.49595,0.5894 0.97295,0.85614 1.6377,0.91579 1.19957,0.10764 1.58334,0.44047 2.22987,1.93388 0.28894,0.66743 0.63594,1.41337 0.77111,1.65765 0.1664,0.30074 0.14205,0.48622 -0.0754,0.57443 -0.1806,0.0733 -0.11852,0.13941 0.14184,0.15116 0.25466,0.0115 0.46302,0.1849 0.46302,0.38537 0,0.20046 0.17859,0.51269 0.39687,0.69385 0.6453,0.53555 0.49743,1.5049 -0.2585,1.69462 l -0.65538,0.16449 0.56541,1.08477 c 0.48492,0.93034 0.52172,1.20559 0.2585,1.9335 -0.42429,1.17335 -0.40997,1.20804 0.49887,1.20804 0.7935,0 2.10464,0.98148 2.10464,1.57547 0,0.34829 -0.0875,0.34786 -0.43753,-0.002 z m -3.64419,-4.63449 c -0.37854,-0.37854 -0.41619,-0.37139 -0.41619,0.0789 0,0.6863 0.62907,1.31728 0.74692,0.7492 0.047,-0.22657 -0.10182,-0.59924 -0.33073,-0.82815 z m -12.71932,0.41535 c -0.0899,-0.14552 -0.28258,-0.26458 -0.4281,-0.26458 -0.14552,0 -0.191,0.11906 -0.10107,0.26458 0.0899,0.14552 0.28259,0.26459 0.42811,0.26459 0.14552,0 0.191,-0.11907 0.10106,-0.26459 z m -1.45526,-0.51211 c 7e-5,-0.47126 -1.0374,-1.60455 -1.46888,-1.60455 -0.1751,0 -0.46658,0.17859 -0.64773,0.39687 -0.47315,0.57011 -0.76709,0.48918 -0.72072,-0.19844 0.0692,-1.02678 1.17726,-1.72043 2.02417,-1.26718 0.37179,0.19897 0.54488,0.11492 0.81929,-0.39783 0.39006,-0.72882 0.48,-0.75397 1.41924,-0.39687 0.54411,0.20687 0.63838,0.18119 0.51502,-0.14028 -0.0831,-0.21642 -0.42004,-0.53873 -0.74887,-0.71624 -0.32883,-0.17751 -1.34554,-1.01847 -2.25936,-1.86881 -1.2323,-1.14669 -1.56955,-1.60289 -1.30558,-1.76603 0.2179,-0.13467 0.75705,-0.0153 1.39033,0.30775 0.56893,0.29025 1.096,0.46615 1.17125,0.39089 0.28252,-0.28252 -1.00755,-1.99028 -1.39203,-1.84275 -0.29556,0.11342 -0.38358,-0.0951 -0.38358,-0.90858 0,-0.86447 -0.10787,-1.08883 -0.59531,-1.23812 -1.16193,-0.35588 -2.15851,-0.34999 -2.71718,0.0161 -0.31141,0.20405 -0.63431,0.30289 -0.71756,0.21964 -0.0832,-0.0832 -0.57014,0.39713 -1.082,1.06748 -0.82188,1.07639 -0.90276,1.31816 -0.69208,2.06866 0.23766,0.84661 0.39359,1.01802 2.63751,2.89938 0.92593,0.77633 1.1014,1.0435 0.80937,1.23229 -0.20509,0.13259 -0.52237,0.1837 -0.70507,0.11359 -0.24692,-0.0948 -0.29471,0.15192 -0.18619,0.961 0.11647,0.86833 0.045,1.16415 -0.35327,1.46266 -0.4356,0.32648 -0.54143,0.3187 -0.82999,-0.061 -0.1819,-0.23939 -0.33073,-0.8611 -0.33073,-1.38159 0,-0.57346 -0.26062,-1.32989 -0.66146,-1.91977 -0.3638,-0.53538 -0.66145,-1.0988 -0.66145,-1.25204 0,-0.15324 -0.11907,-0.27862 -0.26459,-0.27862 -0.14552,0 -0.23481,-0.0916 -0.19843,-0.20356 0.0364,-0.11196 -0.18881,-0.52829 -0.50042,-0.92518 -0.47221,-0.60143 -0.70356,-0.69422 -1.38907,-0.55711 -0.82437,0.16487 -1.17133,0.8921 -0.42562,0.8921 0.22049,0 0.39688,0.23519 0.39688,0.52917 0,0.36108 0.17639,0.52916 0.5553,0.52916 1.04586,0 2.53475,2.11342 1.92116,2.72701 -0.0932,0.0932 -0.21639,0.71651 -0.27386,1.38522 -0.0901,1.04824 -0.0394,1.20635 0.36781,1.14694 0.25976,-0.0379 0.71042,0.003 1.00146,0.0918 0.29104,0.0884 1.09702,0.23793 1.79106,0.33226 0.69404,0.0943 1.2114,0.25317 1.14969,0.35297 -0.0617,0.0998 0.70987,0.18146 1.71462,0.18146 1.41097,0 1.82683,-0.0865 1.82687,-0.37982 z m -2.11661,-3.60783 c 0,-0.22867 -0.1786,-0.59436 -0.39688,-0.81265 -0.43745,-0.43745 -0.51466,-1.35101 -0.16131,-1.90867 0.15856,-0.25025 0.28227,-0.27028 0.40844,-0.0661 0.0995,0.16106 0.10072,0.29283 0.003,0.29283 -0.0981,0 -0.002,0.26964 0.21427,0.59919 0.21593,0.32956 0.47721,0.9844 0.58062,1.45521 0.15001,0.68301 0.10355,0.85602 -0.22989,0.85602 -0.22984,0 -0.41789,-0.1871 -0.41789,-0.41578 z m 5.42395,3.85536 c -0.0899,-0.14552 -0.28258,-0.26458 -0.4281,-0.26458 -0.14552,0 -0.191,0.11906 -0.10106,0.26458 0.0899,0.14552 0.28258,0.26458 0.4281,0.26458 0.14552,0 0.191,-0.11906 0.10106,-0.26458 z m -0.92604,-0.71313 c 0,-0.26244 -1.37945,-1.66812 -1.637,-1.66812 -0.11829,0 -0.21508,0.11906 -0.21508,0.26458 0,0.14552 0.15847,0.26459 0.35217,0.26459 0.19369,0 0.51146,0.29765 0.70616,0.66146 0.32998,0.61657 0.79375,0.89556 0.79375,0.47749 z m 10.05417,-0.95901 c 0,-0.67156 -1.3007,-2.29661 -1.83822,-2.29661 -0.22302,0 -0.2819,0.21482 -0.17529,0.63956 0.1,0.39826 0.0359,0.68407 -0.16976,0.75753 -0.39202,0.14002 -0.36827,0.16192 0.99264,0.9153 1.29622,0.71756 1.19063,0.71896 1.19063,-0.0158 z m -22.225,-0.15054 c 0,-0.0982 -0.29766,-0.20321 -0.66146,-0.23331 -0.68065,-0.0563 -0.91996,0.33422 -0.33073,0.53976 0.38897,0.13568 0.99219,-0.0506 0.99219,-0.30645 z m 23.8125,-1.08774 c 0,-0.14552 -0.12609,-0.26458 -0.2802,-0.26458 -0.15411,0 -0.20661,0.11906 -0.11668,0.26458 0.0899,0.14552 0.21603,0.26459 0.2802,0.26459 0.0642,0 0.11668,-0.11907 0.11668,-0.26459 z M 177.03788,145.754 c 0.3913,-0.35412 0.70558,-0.38224 1.87292,-0.16755 0.77149,0.14189 1.62732,0.35235 1.90184,0.46769 0.80789,0.33943 0.39375,-0.39751 -0.73829,-1.31374 l -0.99915,-0.80868 -0.49792,0.61491 c -0.35068,0.43306 -0.65661,0.56455 -1.03449,0.44462 -1.17971,-0.37443 -0.0427,-1.96109 1.41734,-1.97792 l 0.76329,-0.009 -0.63099,-0.48086 c -0.58807,-0.44816 -1.1094,-0.68846 -2.94105,-1.35566 -0.74966,-0.27308 -0.78164,-1.07389 -0.0429,-1.07389 0.20271,0 0.37231,-0.14883 0.37688,-0.33073 0.005,-0.1819 0.31352,-0.55317 0.68655,-0.82503 0.58233,-0.4244 0.76823,-0.44614 1.3146,-0.15373 0.35001,0.18731 0.63637,0.43952 0.63637,0.56045 0,0.12093 0.11906,0.21987 0.26458,0.21987 0.53016,0 0.24323,-0.74237 -0.65505,-1.69483 -0.5058,-0.5363 -1.01746,-1.1499 -1.13702,-1.36354 -0.1486,-0.26553 -0.84986,-0.43332 -2.2163,-0.53029 -1.94602,-0.13809 -2.01126,-0.12303 -2.46481,0.56919 -0.33822,0.51619 -0.42143,0.99107 -0.30365,1.73296 0.55411,3.49009 0.55925,3.23494 -0.0619,3.07249 -0.46314,-0.12111 -0.56956,-0.0333 -0.56956,0.46992 0,0.38649 -0.19869,0.68192 -0.52917,0.78681 -0.29104,0.0924 -0.52916,0.28474 -0.52916,0.42748 0,0.14274 -0.35512,0.40884 -0.78915,0.59133 -0.73803,0.31032 -0.76379,0.368 -0.39774,0.89061 0.33584,0.47948 0.49668,0.51907 1.133,0.27889 1.00245,-0.37839 2.86195,-0.0628 4.15493,0.70511 1.29707,0.77037 1.42635,0.78658 2.01603,0.25293 z m 16.64494,-1.94106 c -0.16008,-0.29911 -0.40592,-0.54383 -0.54632,-0.54383 -0.1404,0 -0.25528,-0.29063 -0.25528,-0.64585 0,-0.59098 -0.41621,-1.1428 -0.67031,-0.8887 -0.22022,0.22022 0.29867,1.48666 0.9349,2.28176 0.69185,0.86462 1.03836,0.73339 0.53701,-0.20338 z m 8.43927,-0.17051 c -0.17041,-0.20533 -0.41431,-0.37332 -0.54201,-0.37332 -0.35802,0 -0.27467,0.73441 0.0985,0.86829 0.52988,0.19007 0.78017,-0.0893 0.44347,-0.49497 z m 1.34247,-0.87009 c 0,-0.70088 -0.68046,-1.23844 -0.88684,-0.70061 -0.10056,0.26206 0.005,0.41095 0.29983,0.42452 0.27869,0.0128 0.32605,0.0728 0.12234,0.15488 -0.18281,0.0737 -0.26508,0.2429 -0.18283,0.37599 0.25789,0.41726 0.6475,0.26395 0.6475,-0.25478 z m -34.2554,-0.36313 c -0.009,-0.32742 -0.40156,-0.97313 -0.87224,-1.4349 -0.83096,-0.81523 -0.87922,-0.82791 -1.66286,-0.43698 -0.75168,0.37499 -0.95646,1.01199 -0.32533,1.01199 0.15323,0 0.60603,0.32742 1.00622,0.7276 0.91246,0.91246 1.87766,0.98133 1.85421,0.13229 z m 31.82454,-0.1819 c 0.0661,-0.19844 -0.0331,-0.29766 -0.23151,-0.23151 -0.191,0.0637 -0.39936,0.27202 -0.46302,0.46302 -0.0661,0.19844 0.0331,0.29766 0.23151,0.23151 0.19099,-0.0637 0.39935,-0.27202 0.46302,-0.46302 z m -8.68695,-1.21356 c -0.18408,-0.22179 -0.38917,-0.34878 -0.45577,-0.28218 -0.18348,0.18349 0.18932,0.68545 0.50909,0.68545 0.17544,0 0.15537,-0.15181 -0.0533,-0.40327 z m -22.21969,-0.11028 c 0,-0.13693 -0.11907,-0.32255 -0.26459,-0.41249 -0.14552,-0.0899 -0.26458,0.0221 -0.26458,0.24897 0,0.22687 0.11906,0.41249 0.26458,0.41249 0.14552,0 0.26459,-0.11204 0.26459,-0.24897 z m 8.73125,-0.52695 c 0,-0.28443 -1.0293,-0.66423 -1.23706,-0.45647 -0.0764,0.0764 -0.0604,0.26583 0.0356,0.42104 0.21448,0.34702 1.20151,0.37613 1.20151,0.0354 z m 0.20922,12.24429 c -0.97633,-0.18212 -2.13128,-0.51529 -2.56655,-0.74037 -0.43527,-0.22509 -1.02182,-0.40925 -1.30346,-0.40925 -0.28163,0 -0.84455,-0.1725 -1.25094,-0.38333 -0.40638,-0.21084 -0.84269,-0.31917 -0.96958,-0.24075 -0.12689,0.0784 -0.63194,-0.0478 -1.12233,-0.28052 -0.49039,-0.2327 -1.2507,-0.49491 -1.68958,-0.58269 -0.75678,-0.15135 -1.28909,-0.74611 -0.88637,-0.99036 0.28826,-0.17483 3.51097,0.51464 4.58175,0.98022 0.52542,0.22845 1.23979,0.46811 1.5875,0.53256 2.32019,0.43011 2.84498,0.55885 3.65316,0.89619 0.49735,0.2076 1.50938,0.42717 2.24896,0.48793 2.21721,0.18216 2.637,0.33003 2.25239,0.79345 -0.38328,0.46183 -1.82868,0.44172 -4.53495,-0.0631 z m -16.4811,-0.49579 c -0.58208,-0.2097 -1.37873,-0.38307 -1.77032,-0.38526 -0.39159,-0.002 -0.77652,-0.1084 -0.8554,-0.23603 -0.0789,-0.12762 -0.68121,-0.36746 -1.33853,-0.53297 -0.74575,-0.18779 -1.19512,-0.44873 -1.19512,-0.694 0,-0.49006 0.14366,-0.48894 2.03761,0.0159 0.84384,0.22492 1.83192,0.4577 2.19572,0.51729 0.3638,0.0596 1.43231,0.23966 2.37446,0.40014 0.94215,0.16049 1.91888,0.23795 2.17052,0.17215 0.25163,-0.0658 0.66309,0.0307 0.91437,0.21442 0.42588,0.31141 0.41893,0.35436 -0.10261,0.63347 -0.76991,0.41205 -3.15209,0.35555 -4.4307,-0.10509 z m -7.13568,-3.07765 c -1.80385,-0.26719 -3.03411,-0.92987 -3.04672,-1.64111 -0.004,-0.24378 0.39409,-0.18527 3.30324,0.48504 1.01864,0.23471 2.12258,0.35937 2.4532,0.27703 0.40973,-0.10205 0.65367,-0.0128 0.76616,0.28036 0.33236,0.86612 -0.59361,1.02561 -3.47588,0.59868 z m -5.29973,-1.98022 c -0.95398,-0.21842 -1.7198,-0.70538 -1.7198,-1.09357 0,-0.29448 0.22555,-0.34216 0.99219,-0.20973 0.5457,0.0943 1.44488,0.23946 1.99817,0.32264 0.74485,0.11199 0.98467,0.26388 0.92388,0.58516 -0.0839,0.44319 -1.1483,0.63503 -2.19444,0.3955 z m -38.9599,-0.80148 c -0.81222,-0.56658 -0.74712,-0.8799 0.18282,-0.8799 0.87171,0 1.15364,0.27822 0.91421,0.90217 -0.19666,0.51248 -0.33444,0.50968 -1.09703,-0.0223 z m 27.72639,-0.6145 c -1.22047,-0.41522 -1.5685,-0.44025 -2.24896,-0.16176 -0.90551,0.3706 -2.12795,0.17972 -2.12795,-0.33227 0,-0.18538 0.65484,-0.55974 1.45521,-0.83189 1.26589,-0.43045 1.54952,-0.4481 2.18015,-0.13563 1.17725,0.5833 2.2186,0.71924 3.27506,0.42754 1.72179,-0.47541 2.2432,0.69584 0.56951,1.27929 -1.05557,0.36798 -1.37458,0.34276 -3.10302,-0.24528 z m 5.47882,-1.79645 c -1.7147,-0.76994 -1.10846,-1.1919 1.12685,-0.78433 2.2174,0.4043 2.22507,0.40789 1.84711,0.86331 -0.42668,0.51411 -1.73021,0.4795 -2.97396,-0.079 z m -15.91647,0.0123 c -0.10769,-0.1077 -0.81215,-0.38883 -1.56545,-0.62474 -1.23473,-0.38668 -1.36964,-0.50422 -1.36964,-1.19325 0,-0.6188 0.10075,-0.7467 0.52916,-0.67174 0.29104,0.0509 0.60056,0.20757 0.68781,0.3481 0.31816,0.51243 1.70135,1.04299 2.53245,0.97138 1.10517,-0.0952 1.34764,0.17484 0.74996,0.83527 -0.48685,0.53797 -1.20707,0.6922 -1.56429,0.33498 z m 31.0765,-2.17646 c -0.21134,-0.13126 -0.47923,-0.17995 -0.59532,-0.1082 -0.11608,0.0717 -0.21107,-0.0632 -0.21107,-0.29987 0,-0.32409 0.14697,-0.38515 0.59532,-0.24733 0.74355,0.22855 0.80499,0.28397 0.68902,0.6214 -0.0584,0.16985 -0.23857,0.18267 -0.47795,0.034 z m -19.16704,-0.75761 c -0.0849,-0.13734 -0.56774,-0.32727 -1.073,-0.42206 -0.53135,-0.0997 -1.25852,-0.53065 -1.72473,-1.02218 -0.44333,-0.46741 -1.06964,-1.11689 -1.39179,-1.44327 -0.56565,-0.57309 -0.56923,-0.60937 -0.10443,-1.05834 0.45956,-0.4439 0.49507,-0.44129 0.78618,0.0579 0.59439,1.01926 1.97956,2.25532 2.52738,2.25532 0.3056,0 0.55563,0.10184 0.55563,0.22631 0,0.12447 0.38695,0.33728 0.85989,0.47292 0.47295,0.13564 0.8599,0.42075 0.8599,0.63359 0,0.43779 -1.05832,0.6828 -1.29503,0.2998 z m -19.19031,-0.39079 c -0.96187,-0.33521 -1.41535,-0.97725 -0.69024,-0.97725 0.59235,0 1.99329,0.7486 1.99329,1.06513 0,0.3199 -0.16485,0.30878 -1.30305,-0.0879 z m 30.14263,-1.95835 c -1.23775,-0.40046 -3.25973,-1.12947 -5.27373,-1.90141 -1.46695,-0.56226 -1.82907,-1.23376 -0.51231,-0.94999 0.49019,0.10564 1.21276,0.35632 1.60571,0.55707 0.84111,0.42971 2.06366,0.48296 2.06366,0.0899 0,-0.57556 -1.0434,-2.27223 -1.89294,-3.07809 -0.48685,-0.46182 -1.16843,-1.15774 -1.51463,-1.54648 -0.69831,-0.78414 -3.27533,-2.50864 -3.74879,-2.50864 -0.3751,0 -1.9398,-0.85413 -2.05996,-1.12448 -0.0485,-0.10914 -0.30937,-0.19844 -0.57969,-0.19844 -0.27033,0 -0.56629,-0.121 -0.65769,-0.2689 -0.0914,-0.14789 -0.29726,-0.18789 -0.45746,-0.0889 -0.18474,0.11417 -0.23219,0.0261 -0.12973,-0.24093 0.0888,-0.23151 -0.01,-0.56328 -0.21962,-0.73726 -0.20964,-0.17397 -0.38115,-0.42053 -0.38115,-0.54789 0,-0.63289 -2.58626,-3.84043 -4.49351,-5.57298 -0.31772,-0.28861 -0.51448,-0.58794 -0.43725,-0.66518 0.24067,-0.24067 1.98342,0.97703 2.56279,1.79068 0.30355,0.4263 0.7224,0.77509 0.93078,0.77509 0.20837,0 0.37885,0.17185 0.37885,0.38188 0,0.21003 0.23562,0.5469 0.52359,0.7486 0.58473,0.40956 1.55882,1.7902 2.0597,2.91934 0.20779,0.46841 0.44625,0.6703 0.64595,0.54687 0.24546,-0.1517 0.24521,-0.21944 -0.001,-0.30155 -0.43618,-0.14539 -0.38483,-1.40605 0.0824,-2.02353 0.34894,-0.46113 0.50822,-0.47894 1.77752,-0.1987 2.30958,0.50992 2.46375,0.50413 2.35938,-0.0885 -0.0512,-0.29104 -0.11079,-1.09201 -0.13229,-1.77993 -0.0319,-1.02198 0.0858,-1.37561 0.64351,-1.93336 0.65158,-0.65159 0.7397,-0.66824 1.93884,-0.36629 0.70622,0.17783 1.39201,0.54162 1.56635,0.83089 0.17056,0.28301 0.74657,0.7401 1.28002,1.01574 0.53345,0.27565 1.22616,0.86106 1.53937,1.30092 0.3132,0.43985 0.7002,0.79974 0.85998,0.79974 0.32084,0 0.55113,0.1922 2.38489,1.99051 1.8683,1.83218 2.31564,2.49099 2.31564,3.41033 0,1.00989 0.77395,1.7908 1.41775,1.43051 0.23889,-0.13368 0.43434,-0.39499 0.43434,-0.58067 0,-0.45661 1.12752,-1.48818 1.6266,-1.48818 0.68847,0 0.78012,0.33549 0.24762,0.90641 -0.28153,0.30184 -0.55051,0.96083 -0.59773,1.46444 -0.0608,0.6486 -0.2402,0.95726 -0.61503,1.05833 -1.05524,0.28454 -1.7198,0.92056 -1.7198,1.64593 0,0.39297 0.11994,0.78862 0.26654,0.87922 0.14659,0.0906 0.49285,0.63314 0.76945,1.20564 0.72444,1.49943 0.14727,1.64793 -1.07067,0.27547 -0.98918,-1.11466 -0.99568,-1.11725 -0.9437,-0.37631 0.0389,0.5541 -0.0668,0.74608 -0.41068,0.74608 -0.25466,0 -0.48784,-0.11907 -0.51817,-0.26459 -0.22407,-1.07489 -2.93176,-4.64191 -3.26822,-4.30544 -0.28121,0.28121 0.19657,1.44751 0.95791,2.33831 0.80561,0.9426 0.93482,1.44203 0.53603,2.07183 -0.35302,0.55752 -1.08099,0.13624 -1.08099,-0.62556 0,-0.36837 -0.10517,-0.66976 -0.23372,-0.66976 -0.12855,0 -0.29833,-0.24704 -0.37728,-0.54896 -0.12449,-0.47604 -0.22092,-0.50756 -0.72597,-0.23727 -0.46177,0.24713 -0.6294,0.23753 -0.80929,-0.0463 -0.36517,-0.57629 -0.27654,-0.90579 0.43506,-1.6174 0.61489,-0.61489 0.63512,-0.70498 0.24569,-1.09441 -0.2334,-0.2334 -0.53096,-0.42436 -0.66123,-0.42436 -0.40558,0 -2.14076,-1.88159 -2.03432,-2.20597 0.0555,-0.16916 0.55492,-0.34552 1.10979,-0.39191 0.78158,-0.0653 1.25582,0.093 2.10497,0.70283 1.56942,1.12707 2.13693,1.17362 2.13693,0.17526 0,-0.43657 -0.11906,-0.88531 -0.26458,-0.99722 -0.16475,-0.12669 -0.0868,-0.33963 0.20664,-0.56434 0.43612,-0.33398 0.39669,-0.40688 -0.52917,-0.97849 -0.55021,-0.33969 -1.41711,-0.74771 -1.92643,-0.9067 -0.75761,-0.23649 -0.91282,-0.4044 -0.85335,-0.92314 0.04,-0.34874 0.21858,-0.72674 0.39688,-0.84002 0.24348,-0.15469 0.23204,-0.20696 -0.046,-0.21 -0.20358,-0.002 -0.77468,-0.42058 -1.2691,-0.92968 -1.17526,-1.21012 -2.29592,-1.77055 -3.33854,-1.66957 -0.83041,0.0804 -0.84289,0.10223 -0.83263,1.45443 0.009,1.15975 -0.0733,1.39667 -0.52916,1.52674 -0.51371,0.14659 -0.50469,0.18274 0.18801,0.75383 0.40019,0.32993 0.72761,0.73232 0.72761,0.8942 0,0.16188 0.41672,0.71105 0.92604,1.22037 0.95218,0.95219 1.15857,1.59777 0.61767,1.93207 -0.32629,0.20165 -1.54009,-1.11041 -1.5424,-1.66725 -0.002,-0.56195 -1.67906,-1.5988 -2.56903,-1.58862 -0.585,0.007 -1.00865,-0.18856 -1.36628,-0.62971 -0.67593,-0.83375 -0.9258,-0.54315 -0.69707,0.81069 0.14955,0.8852 0.37619,1.21024 1.21163,1.73762 0.56522,0.35681 1.1491,0.64874 1.29751,0.64874 0.14842,0 0.26984,0.092 0.26984,0.20442 0,0.11243 0.40026,0.41997 0.88947,0.68343 1.10789,0.59663 3.52639,2.86582 4.55261,4.27153 0.42494,0.58208 0.86586,1.12691 0.97982,1.21072 0.11395,0.0838 0.17416,0.52391 0.13379,0.97799 -0.0404,0.45408 0.0457,0.8378 0.19119,0.85271 0.14552,0.0149 0.5126,0.18962 0.81574,0.38824 0.30313,0.19862 1.1068,0.44445 1.78593,0.5463 1.23384,0.18502 1.6478,0.70373 0.81627,1.02281 -0.57413,0.22032 -1.10079,0.15875 -2.4919,-0.29133 z m -17.13177,-2.88262 c -0.73496,-0.83847 -0.75344,-1.16336 -0.0661,-1.16336 0.29105,0 0.52917,0.12756 0.52917,0.28348 0,0.15591 0.17859,0.46207 0.39688,0.68036 0.21828,0.21828 0.39687,0.50743 0.39687,0.64256 0,0.46741 -0.66384,0.2334 -1.25677,-0.44304 z m 1.91823,-0.98846 c -0.447,-0.56452 -0.92604,-1.47627 -0.92604,-1.76254 0,-0.14955 -0.38696,-0.61945 -0.8599,-1.04423 -0.7113,-0.63888 -0.79967,-0.83254 -0.51135,-1.12075 0.28828,-0.28818 0.40768,-0.26837 0.69062,0.1146 0.18815,0.25466 0.46977,0.46302 0.62582,0.46302 0.15605,0 0.36861,0.26743 0.47235,0.59429 0.10375,0.32687 0.33827,0.71382 0.52117,0.8599 0.32687,0.26107 0.68129,2.25958 0.39722,2.23991 -0.0799,-0.006 -0.26437,-0.16043 -0.40989,-0.3442 z m -4.96094,-5.24993 c -0.87783,-0.42944 -1.38179,-1.27497 -0.75991,-1.27497 0.61019,0 2.14897,0.84391 2.14897,1.17856 0,0.59572 -0.32264,0.61812 -1.38906,0.0964 z m -3.12765,-1.47515 c -0.37414,-0.25371 -1.02777,-0.7887 -1.45251,-1.18889 -0.67017,-0.63142 -0.70435,-0.7276 -0.25864,-0.7276 0.62649,0 3.24802,1.5541 3.4325,2.03486 0.19524,0.50879 -0.90838,0.4329 -1.72135,-0.11837 z m 2.66463,-9.07229 c 0,-0.11577 -0.35719,-0.28894 -0.79375,-0.38482 -0.43656,-0.0959 -0.79375,-0.3273 -0.79375,-0.51425 0,-0.18695 -0.53453,-0.54405 -1.18785,-0.79355 -0.65332,-0.2495 -1.51652,-0.81699 -1.91823,-1.26107 -0.40171,-0.44408 -0.93874,-1.03002 -1.1934,-1.30209 -0.25466,-0.27207 -0.46302,-0.5542 -0.46302,-0.62696 0,-0.32808 0.52704,-0.076 1.09671,0.52459 0.3427,0.36129 0.76279,0.65895 0.93355,0.66146 0.17075,0.003 0.83813,0.40736 1.48307,0.89965 0.64493,0.49229 1.57679,1.04426 2.07079,1.22659 0.49399,0.18234 1.16279,0.65765 1.48622,1.05623 l 0.58805,0.72471 h -0.6542 c -0.3598,0 -0.65419,-0.0947 -0.65419,-0.21049 z m -9.78958,-7.92249 c 0,-0.14389 -0.26789,-0.25381 -0.59531,-0.24427 -0.32743,0.01 -1.30398,-0.0392 -2.17013,-0.10838 -0.86615,-0.0692 -1.84842,-0.0217 -2.18282,0.10543 -0.50708,0.1928 -0.60799,0.14442 -0.60799,-0.29146 0,-0.34924 0.17864,-0.52261 0.53847,-0.52261 0.29617,0 0.80218,-0.16219 1.12448,-0.36043 0.6809,-0.41878 1.58322,-0.39602 2.70219,0.0682 1.26384,0.52429 2.24701,1.61516 1.45569,1.61516 -0.14552,0 -0.26458,-0.11773 -0.26458,-0.26162 z"
       id="path21" />
  </g>
</svg>
