<?xml version="1.0" encoding="UTF-8" standalone="no"?>
<!-- Created with Inkscape (http://www.inkscape.org/) -->

<svg
   width="112.59356mm"
   height="55.221359mm"
   viewBox="0 0 112.59356 55.221363"
   version="1.1"
   id="svg1"
   inkscape:version="1.4.1-rc (06eac75fbf, 2025-03-29)"
   sodipodi:docname="mount15.svg"
   xmlns:inkscape="http://www.inkscape.org/namespaces/inkscape"
   xmlns:sodipodi="http://sodipodi.sourceforge.net/DTD/sodipodi-0.dtd"
   xmlns="http://www.w3.org/2000/svg"
   xmlns:svg="http://www.w3.org/2000/svg">
  <sodipodi:namedview
     id="namedview1"
     pagecolor="#ffffff"
     bordercolor="#000000"
     borderopacity="0.25"
     inkscape:showpageshadow="2"
     inkscape:pageopacity="0.0"
     inkscape:pagecheckerboard="0"
     inkscape:deskcolor="#d1d1d1"
     inkscape:document-units="mm"
     inkscape:zoom="0.72248176"
     inkscape:cx="213.15417"
     inkscape:cy="104.50091"
     inkscape:window-width="1850"
     inkscape:window-height="1016"
     inkscape:window-x="0"
     inkscape:window-y="0"
     inkscape:window-maximized="1"
     inkscape:current-layer="layer1" />
  <defs
     id="defs1" />
  <g
     inkscape:label="Layer 1"
     inkscape:groupmode="layer"
     id="layer1"
     transform="translate(-49.74165,-120.65034)">
    <path
       style="fill:#000000"
       d="m 63.513286,175.6466 c 0,-0.62939 0.735844,-2.21204 1.771342,-3.8098 0.913098,-1.40889 1.295162,-1.78594 1.809724,-1.78594 0.82669,0 0.824299,0.31628 -0.0092,1.21563 -0.363802,0.39255 -0.661458,0.8622 -0.661458,1.04366 0,0.18146 -0.16593,0.39361 -0.368734,0.47143 -0.202803,0.0778 -0.672466,0.80494 -1.043696,1.61581 -0.397431,0.8681 -0.844167,1.47431 -1.086474,1.47431 -0.226332,0 -0.411513,-0.1013 -0.411513,-0.2251 z m 6.614583,-0.91358 c 0,-1.51608 2.726962,-5.43987 3.558773,-5.12067 0.642573,0.24658 0.48313,0.94029 -0.383773,1.66974 -0.436562,0.36734 -0.79375,0.77638 -0.79375,0.90896 0,0.13259 -0.231484,0.47255 -0.514409,0.75547 -0.282925,0.28293 -0.593832,0.93777 -0.690904,1.45521 -0.12825,0.68364 -0.313093,0.9408 -0.676216,0.9408 -0.345289,0 -0.499721,-0.18836 -0.499721,-0.60951 z m 14.434417,-0.11765 c -0.144795,-0.65925 -0.05426,-1.70174 0.258536,-2.97701 0.01785,-0.0728 0.126011,-0.58009 0.240366,-1.1274 0.114356,-0.54731 0.313484,-1.06035 0.442508,-1.14009 0.129025,-0.0797 0.23459,-0.43561 0.23459,-0.79083 0,-0.35521 0.119062,-0.64584 0.264583,-0.64584 0.145521,0 0.264583,-0.14897 0.264583,-0.33103 0,-0.60424 2.421764,-3.60936 3.350117,-4.1571 0.502405,-0.29642 0.940864,-0.53896 0.974353,-0.53896 0.03349,0 0.08782,0.3534 0.120728,0.78532 0.04605,0.60437 -0.10863,0.89316 -0.671325,1.25334 -0.948481,0.60713 -1.392623,1.03756 -1.392623,1.34963 0,0.1381 -0.178593,0.39931 -0.396875,0.58046 -0.218281,0.18116 -0.396875,0.54019 -0.396875,0.79784 0,0.25766 -0.178593,0.537 -0.396875,0.62076 -0.218281,0.0838 -0.396875,0.34313 -0.396875,0.57637 0,0.23325 -0.167729,0.59181 -0.372732,0.79681 -0.205003,0.20501 -0.453772,0.88111 -0.55282,1.50246 -0.189665,1.18981 -0.79859,3.19705 -1.172635,3.86543 -0.167911,0.30004 -0.264876,0.19837 -0.400729,-0.42016 z m 11.147484,0.55628 c -0.350322,-0.35032 -0.17602,-1.6633 0.510532,-3.84571 0.764916,-2.43153 0.867461,-2.77722 0.908848,-3.06379 0.01554,-0.10761 0.495048,-1.09289 1.065571,-2.18951 0.570523,-1.09662 1.040362,-2.10865 1.044087,-2.24896 0.0037,-0.14031 0.420443,-0.90443 0.926042,-1.69806 0.5056,-0.79362 0.91927,-1.65391 0.91927,-1.91175 0,-0.25784 0.53578,-1.49308 1.19062,-2.74498 0.65485,-1.2519 1.19063,-2.32637 1.19063,-2.38772 0,-0.24765 -1.30416,-0.0914 -1.46946,0.17608 -0.0978,0.1582 -0.40973,0.22697 -0.69325,0.15283 -0.30621,-0.0801 -0.57518,0.0207 -0.6625,0.24828 -0.11922,0.31068 -0.22259,0.32037 -0.54686,0.0512 -0.336189,-0.27901 -0.6024,-0.11157 -1.671924,1.05158 -0.699638,0.76089 -1.390125,1.38343 -1.534417,1.38343 -0.421142,0 -1.342482,1.32292 -1.192871,1.7128 0.15868,0.41352 -0.530726,1.87538 -1.262726,2.67757 -0.894629,0.98042 -3.961595,6.97947 -4.112967,8.04505 -0.05168,0.3638 -0.215625,0.90156 -0.364322,1.19502 -0.148697,0.29346 -0.421684,1.12676 -0.606637,1.85177 -0.216316,0.84796 -0.495318,1.34885 -0.78209,1.40407 -0.358246,0.069 -0.44581,-0.12276 -0.44581,-0.97626 0,-0.58417 0.119062,-1.1357 0.264583,-1.22564 0.145521,-0.0899 0.264583,-0.39094 0.264583,-0.6689 0,-1.17263 2.094261,-6.57029 3.179472,-8.19464 1.557719,-2.3316 1.847612,-2.87642 1.847612,-3.47233 0,-0.90026 1.964535,-3.2042 4.342771,-5.09306 0.526422,-0.4181 0.925513,-0.95293 0.886868,-1.18852 -0.05007,-0.30523 0.189852,-0.46698 0.834745,-0.56274 1.2989,-0.19289 1.38807,-0.78555 0.105851,-0.70353 -0.62841,0.0402 -1.039398,0.20942 -1.090769,0.44911 -0.100143,0.46726 -1.875391,1.62282 -3.473711,2.26114 -0.644803,0.25751 -1.359178,0.62403 -1.5875,0.81447 -2.02846,1.69193 -2.940552,2.61544 -3.297491,3.33877 -0.696297,1.41104 -1.939362,2.74137 -2.262734,2.42158 -0.751556,-0.74323 3.152779,-5.77847 5.622032,-7.25048 0.553358,-0.32987 0.947975,-0.6579 0.876927,-0.72895 -0.180851,-0.18085 -2.555265,0.986 -3.260881,1.60248 -0.321255,0.28067 -0.797505,0.5275 -1.058334,0.54849 -0.968844,0.078 -2.630013,1.20586 -3.913816,2.6573 -2.719689,3.07483 -3.062769,3.40448 -3.292751,3.16385 -0.33143,-0.34678 0.777262,-2.71922 1.356692,-2.90312 0.264468,-0.0839 0.480851,-0.30178 0.480851,-0.48409 0,-0.1823 0.443849,-0.68029 0.986332,-1.10665 0.542482,-0.42635 1.420116,-1.16213 1.950296,-1.63508 0.530181,-0.47294 1.143316,-0.85989 1.362522,-0.85989 0.219206,0 0.537156,-0.167 0.706557,-0.37112 0.474085,-0.57124 2.92922,-1.65403 4.255732,-1.87691 0.654281,-0.10993 1.903977,-0.4282 2.777102,-0.70727 1.474264,-0.4712 2.807833,-0.76794 3.439583,-0.76536 0.28066,0.001 0.73357,0.089 3.01066,0.58431 1.2351,0.26863 1.54978,0.24772 2.38125,-0.15826 1.65878,-0.80993 1.75396,-0.88131 1.65978,-1.24483 -0.32057,-1.23733 -0.28281,-1.53913 0.22664,-1.81179 0.2958,-0.1583 0.64088,-0.22413 0.76685,-0.14627 0.12597,0.0779 0.29137,-0.0968 0.36756,-0.38818 0.0774,-0.29615 0.58655,-0.71573 1.15456,-0.95154 0.55882,-0.232 1.10602,-0.57826 1.216,-0.76946 0.10999,-0.19121 0.7946,-0.54515 1.52136,-0.78654 0.72676,-0.24139 1.32138,-0.55785 1.32138,-0.70323 0,-0.15047 0.31345,-0.19596 0.72761,-0.10561 1.02746,0.22416 3.01775,-0.1999 3.75422,-0.79988 1.07053,-0.87214 2.39148,-2.31849 2.50684,-2.74484 0.0608,-0.22464 0.36937,-1.89671 0.68574,-3.71572 0.3556,-2.04457 0.76818,-3.581 1.08062,-4.02418 0.27796,-0.39429 0.50539,-0.80177 0.50539,-0.90551 0,-0.10374 0.20836,-0.64127 0.46302,-1.19451 l 0.46302,-1.0059 1.76811,-0.007 c 1.9822,-0.008 1.84843,0.13715 2.31963,-2.51066 0.15615,-0.87743 0.45631,-1.67602 0.67621,-1.79908 0.21748,-0.12171 0.39542,-0.34238 0.39542,-0.49038 0,-0.53262 1.39637,-2.08587 1.87519,-2.08587 0.30036,0 0.4369,-0.13695 0.35343,-0.35448 -0.16931,-0.44123 0.55504,-1.07801 0.94917,-0.83442 0.20066,0.12401 0.1565,0.38415 -0.14273,0.84084 -0.36067,0.55045 -0.37987,0.79022 -0.11457,1.43071 0.47229,1.14021 0.88213,0.96215 0.68097,-0.29586 -0.15076,-0.94278 -0.10141,-1.09142 0.4292,-1.29257 0.52588,-0.19936 0.63206,-0.11989 0.86414,0.64676 0.14552,0.48072 0.35388,0.96317 0.46302,1.07209 0.10914,0.10892 0.19843,0.40175 0.19843,0.65072 0,0.24897 0.19577,0.61514 0.43504,0.81372 0.38943,0.3232 0.41334,0.29266 0.22801,-0.29126 -0.11387,-0.35878 -0.2413,-1.34011 -0.28318,-2.18074 -0.0667,-1.33914 -0.0154,-1.52842 0.41425,-1.52842 0.49782,0 1.58226,1.15 1.59302,1.68932 0.003,0.16228 0.23871,0.59271 0.52328,0.95651 0.55032,0.70354 0.62054,0.58042 0.53966,-0.94625 -0.043,-0.81225 0.61474,-1.69064 0.98809,-1.3195 0.10562,0.105 0.27624,1.52095 0.37914,3.14656 0.1029,1.62561 0.20301,3.19377 0.22246,3.48481 0.0195,0.29105 0.14525,1.06495 0.27955,1.7198 0.58775,2.86588 0.44965,7.63708 -0.17402,6.01185 -0.10967,-0.28581 -0.4601,-0.4556 -0.94027,-0.4556 -0.42099,0 -0.76544,-0.0963 -0.76544,-0.21402 0,-0.11771 -0.17929,-0.44513 -0.39842,-0.7276 -0.37077,-0.47795 -0.37962,-0.46103 -0.12753,0.24376 0.25192,0.70433 0.72411,3.76563 0.86264,5.59265 0.0331,0.43656 0.23878,0.93532 0.45706,1.10836 0.30902,0.24498 0.33116,0.42252 0.1,0.80209 -0.25462,0.41811 -0.37465,2.03945 -0.47556,6.42392 -0.0376,1.63213 -0.75333,2.12897 -1.23878,0.8599 -0.16667,-0.43572 -0.18446,-0.88682 -0.0444,-1.12448 0.33298,-0.56483 0.16001,-6.86203 -0.21053,-7.66465 -0.74589,-1.61566 -1.33066,-2.64906 -1.7688,-3.12579 -0.26858,-0.29223 -0.32997,-0.12012 -0.32668,0.91581 0.005,1.44214 0.3395,2.2733 0.62072,1.54044 0.0931,-0.24259 0.30762,-0.39494 0.47673,-0.33857 0.53821,0.1794 0.60763,1.27204 0.41656,6.55609 -0.17137,4.73886 -0.29495,5.29167 -1.18294,5.29167 -0.59872,0 -0.64985,-0.08 -0.5071,-0.79375 0.26401,-1.32005 -0.2327,-0.88915 -0.59226,0.51379 -0.18431,0.71915 -0.50952,1.45229 -0.72269,1.6292 -0.71369,0.59231 -0.87946,-0.0848 -0.52463,-2.14299 0.18816,-1.09141 0.31695,-2.63922 0.28621,-3.43958 -0.12108,-3.15188 -0.0699,-2.95037 -0.6559,-2.58444 -0.36497,0.22793 -0.52983,0.61859 -0.5313,1.25902 -0.005,1.95894 -0.81531,7.05384 -1.256,7.89245 -0.38833,0.73895 -0.58113,0.86124 -1.21377,0.76983 -0.52212,-0.0754 -0.79374,0.02 -0.88822,0.31213 -0.32503,1.00482 -0.93527,2.17964 -1.79856,3.46248 -0.50971,0.75741 -0.92673,1.65578 -0.92673,1.99637 0,0.34059 -0.11907,0.69284 -0.26459,0.78278 -0.14552,0.0899 -0.26458,0.43034 -0.26458,0.75645 0,0.32611 -0.11517,0.70809 -0.25593,0.84885 -0.14075,0.14076 -0.35262,0.72137 -0.47082,1.29024 -0.30067,1.44715 -0.86075,1.55183 -0.86075,0.16087 0,-3.18759 3.67665,-10.06787 5.38001,-10.06787 0.72071,0 1.33674,-2.26953 1.61588,-5.95312 0.0772,-1.01865 0.19464,-2.22896 0.26099,-2.68959 0.0823,-0.57127 -6.2e-4,-0.88403 -0.26083,-0.98388 -0.31173,-0.11962 -0.38221,0.22695 -0.38552,1.89583 -0.004,2.15172 -0.28333,3.0513 -0.78952,2.54511 -0.16286,-0.16287 -0.32904,-1.70292 -0.38518,-3.56967 -0.10036,-3.33744 -0.28052,-4.47384 -0.70924,-4.47384 -0.13328,0 -0.21825,1.72419 -0.19233,3.9026 0.0687,5.77686 -0.2369,7.97588 -1.1119,7.99959 -0.0822,0.002 -0.1246,-1.10174 -0.0941,-2.45326 0.0518,-2.30114 -0.28465,-4.12996 -0.86704,-4.71235 -0.12334,-0.12334 -0.22952,1.99767 -0.23597,4.71334 -0.008,3.55667 -0.0992,4.96677 -0.3247,5.04192 -0.17215,0.0574 -0.31357,0.24324 -0.31426,0.41302 -7e-4,0.16977 -0.38765,0.72983 -0.8599,1.24456 -1.06467,1.16047 -1.78428,2.24553 -1.7859,2.69283 -6.7e-4,0.18702 -0.35786,0.72053 -0.79375,1.18558 -0.43588,0.46505 -0.79252,1.13121 -0.79252,1.48035 0,0.34914 -0.23813,0.8503 -0.52917,1.11369 -0.29104,0.26339 -0.52916,0.75943 -0.52916,1.1023 0,0.67928 -1.06819,2.97973 -1.38907,2.99148 -0.57798,0.0212 0.30127,-3.75241 1.47788,-6.34274 0.32993,-0.72636 1.18845,-2.04195 1.67979,-2.57411 0.17237,-0.18669 0.38875,-0.57686 0.48085,-0.86704 0.0921,-0.29018 0.27544,-0.5276 0.40741,-0.5276 0.13198,0 0.43774,-0.38695 0.67948,-0.85989 0.24173,-0.47295 0.60448,-0.95651 0.80611,-1.0746 0.20162,-0.11808 0.29431,-0.33166 0.20596,-0.47461 -0.0883,-0.14295 -0.0454,-0.40352 0.0954,-0.57905 0.53052,-0.66135 0.52268,-2.40546 -0.0157,-3.49414 -0.76291,-1.54269 -1.02318,-1.82509 -1.29183,-1.40159 -0.11976,0.18879 -0.21956,0.73403 -0.22179,1.21165 -0.009,1.95149 -1.31835,3.54934 -1.54781,1.88901 -0.16649,-1.20469 -0.57162,-1.18222 -0.61208,0.034 -0.0783,2.35435 -0.48986,3.51133 -1.15778,3.25503 -0.46205,-0.17731 -0.39855,-1.342 0.27194,-4.98805 0.18732,-1.01865 0.24891,-1.91161 0.13687,-1.98437 -0.11204,-0.0728 -0.30134,-0.54902 -0.42066,-1.05834 l -0.21695,-0.92604 -0.19355,1.19063 c -0.10646,0.65484 -0.20238,2.15052 -0.21317,3.32374 -0.021,2.28491 -0.53421,3.78587 -1.73852,5.08467 l -0.61149,0.65947 -0.43322,-0.83776 c -0.35094,-0.67864 -0.49678,-0.77342 -0.76784,-0.49904 -0.58153,0.58865 -0.72474,1.27258 -0.30054,1.43536 0.63788,0.24478 0.47389,0.59203 -1.15225,2.43981 -1.45982,1.6588 -3.48242,4.77228 -3.48242,5.36065 0,0.1484 -0.20836,0.22644 -0.46302,0.17342 -0.55646,-0.11584 -0.51488,-1.15247 0.0722,-1.80124 0.21492,-0.23749 0.39077,-0.63078 0.39077,-0.87398 0,-0.2432 0.0893,-0.44355 0.19844,-0.44522 0.10914,-0.002 0.43519,-0.49692 0.72455,-1.10055 0.28937,-0.60363 1.02662,-1.598 1.63834,-2.20973 0.81115,-0.81114 1.0735,-1.2603 0.96917,-1.65927 -0.281,-1.07454 -1.80757,0.0671 -2.90607,2.17322 -1.72864,3.31432 -1.93127,3.75202 -1.93907,4.18842 -0.005,0.25467 -0.12889,0.46302 -0.2763,0.46302 -0.34409,0 -1.55849,2.7653 -1.97529,4.49792 -0.0525,0.21828 -0.38251,0.93266 -0.73335,1.5875 -0.92971,1.73534 -1.95436,1.48125 -1.06697,-0.26458 0.18491,-0.3638 0.33694,-0.85524 0.33784,-1.09208 8.9e-4,-0.23685 0.18022,-0.57885 0.3985,-0.76001 0.21828,-0.18115 0.39688,-0.48923 0.39688,-0.6846 0,-0.49453 0.74106,-2.75101 1.16545,-3.54873 0.19355,-0.3638 0.30419,-0.79242 0.24587,-0.95248 -0.0583,-0.16006 0.0765,-0.44253 0.29966,-0.62771 0.22312,-0.18518 0.40568,-0.5007 0.40568,-0.70116 0,-0.20047 0.11907,-0.36448 0.26459,-0.36448 0.14552,0 0.26458,-0.10867 0.26458,-0.24149 0,-0.13282 0.41386,-0.8699 0.91968,-1.63796 0.50583,-0.76805 0.85381,-1.46234 0.77329,-1.54286 -0.2888,-0.2888 -2.22214,2.07786 -2.22214,2.72017 0,0.39207 -0.25705,0.80971 -0.66145,1.07468 -0.43582,0.28556 -0.66255,0.67953 -0.66465,1.15491 -0.002,0.39683 -0.2839,1.21237 -0.62699,1.81231 -0.34309,0.59994 -0.76509,1.6715 -0.93778,2.38125 -0.36619,1.505 -0.91398,2.34901 -1.34977,2.07968 -0.33819,-0.20901 -0.30437,-0.42038 0.52654,-3.29074 0.64841,-2.23994 1.60434,-4.59931 1.91659,-4.73044 0.11551,-0.0485 0.21397,-0.28663 0.2188,-0.52916 0.0182,-0.91295 1.43483,-2.54927 2.42026,-2.79558 1.01151,-0.25284 0.99984,-0.23152 1.89661,-3.46623 0.35648,-1.28585 0.30951,-3.04271 -0.0813,-3.04271 -0.74293,0 -1.82388,2.53289 -1.85138,4.33819 -0.008,0.52076 -0.372,1.16293 -1.13616,2.00408 -1.78234,1.96191 -2.57969,2.95406 -2.57969,3.20994 0,0.13056 -0.17859,0.23737 -0.39687,0.23737 -0.21828,0 -0.39688,0.21025 -0.39688,0.46722 0,0.25698 -0.47625,1.28221 -1.05833,2.2783 -0.58208,0.9961 -1.05833,2.08589 -1.05833,2.42176 0,0.33587 -0.17812,0.94775 -0.39581,1.35972 -0.34056,0.6445 -1.19774,2.59872 -1.31501,2.998 -0.0214,0.0728 -0.13543,0.54901 -0.25346,1.05834 -0.28175,1.2157 -0.36166,1.32753 -0.82232,1.15076 -0.538369,-0.20659 -0.485891,-1.14497 0.17995,-3.21784 1.10039,-3.42568 3.14342,-7.95515 3.86342,-8.56534 0.1819,-0.15416 0.33073,-0.44431 0.33073,-0.64477 0,-0.20046 0.0934,-0.36448 0.20753,-0.36448 0.11415,0 0.41503,-0.35126 0.66863,-0.78057 0.25361,-0.42931 0.79892,-1.11839 1.21181,-1.53128 0.76608,-0.76608 1.76851,-2.45065 1.4583,-2.45065 -0.0943,0 -0.0358,-0.1635 0.13006,-0.36334 0.29571,-0.35631 0.14688,-1.22416 -0.20994,-1.22416 -0.0996,0 -0.50145,0.62508 -0.89293,1.38906 -1.77758,3.46909 -2.48533,4.51748 -2.88352,4.27138 -0.2781,-0.17188 -0.0322,-1.68236 0.33793,-2.07533 0.13019,-0.13825 0.23671,-0.47825 0.23671,-0.75556 0,-0.27731 0.29765,-0.85795 0.66146,-1.2903 0.3638,-0.43235 0.6641,-0.92579 0.66734,-1.09653 0.003,-0.17073 0.23871,-0.60808 0.52328,-0.97189 0.28457,-0.3638 0.52005,-0.81028 0.52328,-0.99218 0.01,-0.55564 -0.67843,-0.36813 -1.02486,0.27918 -0.17953,0.33546 -0.66453,0.73754 -1.07778,0.89353 -0.63717,0.2405 -0.74737,0.42433 -0.72511,1.20955 0.0157,0.55234 -0.15732,1.10952 -0.42871,1.38091 -0.26753,0.26753 -0.43519,0.79872 -0.40697,1.28938 0.032,0.55728 -0.29136,1.40564 -0.97375,2.55422 -2.598565,4.37388 -4.084619,7.29851 -4.096596,8.06233 -0.0046,0.29514 -0.183222,0.76774 -0.396875,1.05022 -0.213653,0.28247 -0.38846,0.82421 -0.38846,1.20385 0,0.37965 -0.142875,0.83314 -0.3175,1.00776 -0.174625,0.17463 -0.241407,0.3175 -0.148404,0.3175 0.260493,0 -0.729632,2.73567 -1.025863,2.83441 -0.143604,0.0479 -0.342953,0.005 -0.442999,-0.0949 z m 17.01602,-17.82079 c 0,-0.14552 -0.0525,-0.26458 -0.11668,-0.26458 -0.0642,0 -0.19026,0.11906 -0.2802,0.26458 -0.0899,0.14553 -0.0374,0.26459 0.11668,0.26459 0.15411,0 0.2802,-0.11906 0.2802,-0.26459 z m 1.98442,-1.32945 c 0.0898,-0.65125 0.18287,-1.36268 0.20671,-1.58096 0.0238,-0.21828 -0.0556,-1.15188 -0.17663,-2.07466 -0.14772,-1.12663 -0.12646,-1.7713 0.0647,-1.96247 0.2032,-0.2032 0.33314,-0.15842 0.45396,0.15643 0.27539,0.71766 0.55996,0.51007 0.84609,-0.61722 0.22254,-0.87672 0.20187,-1.05833 -0.12046,-1.05833 -0.55728,0 -1.93589,1.45517 -1.93589,2.0434 0,0.27313 -0.11223,0.60971 -0.24941,0.74795 -0.44964,0.45315 -0.73309,2.33162 -0.47709,3.16177 0.33928,1.10024 1.01682,2.57601 1.13047,2.46235 0.0518,-0.0518 0.16769,-0.62701 0.25754,-1.27826 z m 2.90732,-0.45648 c 0.41391,-1.61385 0.41151,-2.07747 -0.0167,-3.22964 -0.41746,-1.12333 -1.19302,-2.32639 -0.8267,-1.28238 0.0866,0.24691 0.0556,1.08034 -0.069,1.85208 -0.15047,0.93221 -0.12425,1.73618 0.0781,2.39535 0.36224,1.17978 0.58164,1.24937 0.83421,0.26459 z m -5.99382,-5.37272 c -0.10046,-0.6865 -0.44839,-0.87737 -0.98287,-0.53922 -0.30177,0.19093 -0.27881,0.3473 0.13229,0.90094 0.55474,0.74707 0.98599,0.56367 0.85058,-0.36172 z m 10.77827,-0.58041 c -0.10598,-2.07073 -0.14986,-2.3151 -0.41578,-2.3151 -0.2912,0 -0.37174,2.97965 -0.0882,3.26319 0.40351,0.40351 0.55824,0.11241 0.50397,-0.94809 z m 12.92377,0.66146 c 0.25852,-0.81961 0.46085,-5.76554 0.22459,-5.4901 -0.46068,0.53708 -0.79514,2.1686 -0.82715,4.03489 -0.0307,1.7916 0.26851,2.51428 0.60256,1.45521 z m -16.6191,-1.6084 c 0.0165,-0.82525 0.0766,-1.67198 0.13344,-1.88161 0.0569,-0.20964 -0.10496,-0.42673 -0.35962,-0.48243 -0.37149,-0.0812 -0.47346,0.0987 -0.51584,0.91033 -0.0768,1.4701 -0.0231,2.41639 0.16467,2.90581 0.28785,0.75013 0.54628,0.10015 0.57735,-1.4521 z m 6.20137,0.41778 c 0.006,-0.0364 0.0743,-1.01865 0.15128,-2.18282 0.11687,-1.76854 0.0507,-2.31248 -0.40247,-3.30729 -0.52773,-1.15854 -0.54347,-1.16923 -0.5842,-0.39687 -0.10135,1.92179 -0.15213,2.43886 -0.33059,3.36606 -0.19444,1.0102 0.35217,2.58706 0.89679,2.58706 0.14178,0 0.26292,-0.0298 0.26919,-0.0661 z m -8.34311,-0.98788 c -0.076,-0.12303 -0.0155,-0.28447 0.13459,-0.35874 0.15007,-0.0743 0.12104,-0.10435 -0.0645,-0.0668 -0.18554,0.0375 -0.37855,0.28082 -0.42892,0.54065 -0.057,0.29406 0.0195,0.40375 0.20275,0.29053 0.16188,-0.10005 0.23212,-0.28258 0.15608,-0.40562 z m -1.98704,-0.004 c 0,-0.14552 -0.29766,-0.26458 -0.66146,-0.26458 -0.3638,0 -0.66146,0.11906 -0.66146,0.26458 0,0.14552 0.29766,0.26458 0.66146,0.26458 0.3638,0 0.66146,-0.11906 0.66146,-0.26458 z m 13.0475,-5.55625 c -0.0383,-1.38245 -0.0744,-2.77553 -0.0803,-3.09574 -0.006,-0.32021 -0.13527,-0.6592 -0.28754,-0.75331 -0.15227,-0.0941 -0.39695,-0.48696 -0.54372,-0.87301 -0.24631,-0.64782 -0.28802,-0.66411 -0.54136,-0.21142 -0.17369,0.31036 -0.20193,1.2334 -0.0769,2.51354 0.10867,1.11268 0.21497,2.57045 0.23622,3.23948 0.0217,0.68311 0.25543,1.5473 0.53313,1.97111 0.45344,0.69204 0.50842,0.71186 0.66231,0.23879 0.0923,-0.28375 0.13649,-1.64699 0.0982,-3.02944 z m 4.38606,0.16494 c -0.0593,-2.84117 -0.56818,-4.90656 -1.26617,-5.13885 -0.29265,-0.0974 -0.34047,0.13088 -0.23094,1.10262 0.077,0.68325 0.0285,1.22546 -0.10957,1.22546 -0.13623,0 -0.15943,0.14281 -0.0516,0.31736 0.20586,0.33309 0.35808,1.26626 0.36699,2.24973 0.006,0.63963 0.94324,2.98916 1.19266,2.98916 0.0857,0 0.13009,-1.23547 0.0986,-2.74548 z m -9.27068,1.75329 c 0.0227,-0.40018 0.0771,-1.10983 0.12084,-1.57698 0.0587,-0.62691 -0.002,-0.78173 -0.23171,-0.59108 -0.36804,0.30544 -0.67824,1.96856 -0.46892,2.51404 0.23673,0.6169 0.53522,0.43878 0.57979,-0.34598 z m 11.29216,-1.61645 c -0.096,-0.43691 -0.33779,-0.92992 -0.53739,-1.09558 -0.29727,-0.24671 -0.34369,-0.1492 -0.25658,0.53907 0.10441,0.82503 0.613,1.70635 0.84868,1.47067 0.0659,-0.0659 0.0413,-0.47724 -0.0547,-0.91416 z m 1.71162,-0.3174 c 0,-0.29963 -0.11906,-0.47119 -0.26458,-0.38126 -0.14552,0.0899 -0.26458,0.33509 -0.26458,0.54479 0,0.20969 0.11906,0.38126 0.26458,0.38126 0.14552,0 0.26458,-0.24516 0.26458,-0.54479 z m -12.43541,-1.3073 c 0,-0.14552 -0.0525,-0.26458 -0.11668,-0.26458 -0.0642,0 -0.19026,0.11906 -0.2802,0.26458 -0.0899,0.14552 -0.0374,0.26459 0.11668,0.26459 0.15411,0 0.2802,-0.11907 0.2802,-0.26459 z m 10.70658,-2.17099 c -0.12619,-2.60306 -0.44581,-3.94274 -1.06282,-4.45482 -0.31995,-0.26553 -0.38335,-0.18955 -0.38335,0.45941 0,1.55873 1.13328,6.43099 1.49584,6.43099 0.0376,0 0.0153,-1.09601 -0.0497,-2.43558 z m -4.75626,-1.96945 c -0.0942,-2.04789 -0.29525,-3.61377 -0.51816,-4.0349 -0.26971,-0.50956 -0.3978,-0.58518 -0.49344,-0.29132 -0.33354,1.02479 -0.36952,1.65139 -0.14776,2.57333 0.1321,0.5492 0.31387,1.71292 0.40393,2.58604 0.15317,1.48502 0.47109,2.51354 0.77693,2.51354 0.0728,0 0.0631,-1.50601 -0.0215,-3.34669 z m 7.69872,0.50242 c -0.0857,-0.5457 -0.21762,-1.52797 -0.29318,-2.18281 -0.0756,-0.65484 -0.25478,-1.23056 -0.39827,-1.27937 -0.14349,-0.0488 -0.20193,-0.18415 -0.12986,-0.30075 0.0721,-0.1166 -0.0463,-0.35914 -0.26294,-0.53897 -0.21668,-0.17982 -0.39396,-0.47639 -0.39396,-0.65904 0,-0.18264 -0.1531,-0.45914 -0.34021,-0.61443 -0.27184,-0.2256 -0.32954,0.0471 -0.28707,1.35666 0.0747,2.30426 0.34019,3.3599 1.09422,4.351 0.86608,1.1384 1.20387,1.09421 1.01127,-0.13229 z m 2.60448,-2.6461 c -0.12517,-0.57369 -1.17227,-8.19732 -1.17227,-8.53494 0,-0.13507 -0.18303,-0.17535 -0.40673,-0.0895 -0.2237,0.0858 -0.62513,-0.0416 -0.89205,-0.28314 -0.46716,-0.42277 -0.48045,-0.37199 -0.35508,1.35698 0.0913,1.25894 0.27278,1.93199 0.60679,2.25025 0.64468,0.61426 0.91801,1.54761 0.52444,1.79085 -0.41161,0.25439 -0.0889,2.5167 0.4191,2.93833 0.20246,0.16803 0.36811,0.4596 0.36811,0.64793 0,0.35168 0.52551,0.65555 0.83506,0.48285 0.0955,-0.0533 0.12816,-0.30509 0.0726,-0.55961 z m -8.23298,-0.66119 c -0.0802,-0.61846 -0.13767,-1.42214 -0.12779,-1.78594 0.0217,-0.7971 -0.77137,-2.86071 -1.15653,-3.00949 -0.35568,-0.13738 -0.19873,3.15451 0.19394,4.06783 0.64351,1.49674 0.84192,1.85208 1.03416,1.85208 0.11109,0 0.13639,-0.50602 0.0562,-1.12448 z m -6.17251,-0.79375 c -0.003,-0.4648 -0.0573,-0.51107 -0.24712,-0.21107 -0.13369,0.21133 -0.18438,0.47922 -0.11263,0.59531 0.22949,0.37133 0.36392,0.22775 0.35975,-0.38424 z m 7.81388,-5.21659 c -0.62551,-1.20961 -0.93131,-0.97198 -0.92485,0.71867 0.004,1.02949 0.19601,1.90629 0.59411,2.71198 l 0.5883,1.19063 0.0788,-1.9093 c 0.0555,-1.34606 -0.0437,-2.1461 -0.33632,-2.71198 z m 2.77176,1.29664 c -0.58581,-1.2996 -1.09143,-2.09932 -1.32731,-2.09932 -0.13301,0 -0.18949,0.14883 -0.1255,0.33073 0.064,0.1819 0.1715,0.65857 0.23893,1.05927 0.0674,0.40069 0.39829,1.11507 0.73525,1.5875 0.54715,0.76711 0.62102,0.80052 0.69082,0.31245 0.043,-0.30058 -0.0525,-0.83636 -0.21219,-1.19063 z m -4.97481,-2.49353 c -0.1066,-0.91314 -0.13338,-0.93574 -0.60397,-0.50987 -0.47313,0.42818 -0.45772,0.64848 0.0954,1.36419 0.4116,0.53253 0.62799,0.169 0.50852,-0.85432 z m -55.378912,47.4433 c -0.09816,-1.98039 0.735996,-3.6775 2.804376,-5.70559 1.610234,-1.57887 2.517759,-2.05376 2.517759,-1.31749 0,0.18618 -0.625079,0.9917 -1.389063,1.79006 -2.030306,2.12165 -2.681892,3.15103 -2.837669,4.48299 -0.0996,0.85165 -0.269878,1.21266 -0.601914,1.27617 -0.327529,0.0627 -0.471937,-0.0913 -0.493489,-0.52614 z m 5.236334,-0.78195 c -0.193649,-0.74052 2.25866,-5.80475 3.430119,-7.0835 0.479342,-0.52324 1.036841,-1.17906 1.238887,-1.45736 0.227066,-0.31277 0.533531,-0.44224 0.802492,-0.33903 0.635832,0.24399 0.54981,0.51636 -0.604098,1.91275 -0.571578,0.69169 -1.113409,1.55315 -1.204068,1.91437 -0.09066,0.36121 -0.575505,1.19459 -1.077433,1.85195 -0.501929,0.65735 -0.912598,1.40917 -0.912598,1.67069 0,0.26153 -0.119063,0.54909 -0.264584,0.63903 -0.145521,0.0899 -0.264583,0.38188 -0.264583,0.64877 0,0.26688 -0.188332,0.55751 -0.418515,0.64584 -0.575006,0.22065 -0.560252,0.22885 -0.725619,-0.40351 z m 34.050648,-0.62001 c -0.095,-0.24748 -0.042,-0.87585 0.11779,-1.39637 0.15976,-0.52053 0.23692,-1.03304 0.17149,-1.13892 -0.0654,-0.10588 0.29686,-1.224 0.80511,-2.48472 0.50825,-1.26071 0.92483,-2.43436 0.92573,-2.6081 8.9e-4,-0.17374 0.17885,-0.65571 0.39547,-1.07104 0.21661,-0.41533 0.33596,-0.84879 0.26522,-0.96324 -0.0707,-0.11446 0.16802,-0.40247 0.53057,-0.64003 0.36256,-0.23755 0.65919,-0.60041 0.65919,-0.80636 0,-0.20594 0.3578,-0.76618 0.79511,-1.24497 0.4373,-0.47879 0.86205,-1.08146 0.94387,-1.33925 0.0818,-0.25779 0.23273,-0.46872 0.33535,-0.46872 0.10262,0 0.411,-0.41671 0.68529,-0.92604 0.54684,-1.01542 0.94455,-1.19915 0.94455,-0.43635 0,0.72386 -0.54447,2.15614 -0.81964,2.15614 -0.13128,0 -0.23898,0.14883 -0.23932,0.33073 -3.4e-4,0.1819 -0.35942,0.74745 -0.79795,1.25677 -0.43854,0.50933 -1.04382,1.4023 -1.34507,1.98438 -0.30125,0.58208 -0.73539,1.41552 -0.96475,1.85208 -0.81615,1.55346 -0.88375,1.75846 -0.73467,2.22816 0.083,0.26139 -0.0228,0.61936 -0.235,0.79548 -0.21221,0.17612 -0.46824,0.69895 -0.56895,1.16183 -0.1007,0.46289 -0.34648,1.07647 -0.54617,1.36351 -0.19969,0.28704 -0.36307,0.89754 -0.36307,1.35666 0,1.00426 -0.68781,1.74809 -0.96015,1.03837 z m -4.20174,-0.44682 c -0.0921,-0.24006 0.0196,-0.98749 0.24825,-1.66097 0.22865,-0.67347 0.41584,-1.36917 0.41597,-1.54598 3.7e-4,-0.47328 2.63254,-5.57723 4.02782,-7.81019 1.04313,-1.66941 2.81505,-3.46073 3.44642,-3.48414 0.54931,-0.0204 0.0591,0.99019 -1.12448,2.31815 -0.72761,0.81636 -1.32292,1.63911 -1.32292,1.82834 0,0.18923 -0.1865,0.55242 -0.41444,0.80708 -0.78719,0.87948 -1.92874,2.82412 -1.78979,3.04894 0.0767,0.12405 -0.039,0.42641 -0.25705,0.6719 -0.21804,0.24549 -0.69499,1.16086 -1.05989,2.03414 -1.23326,2.95153 -1.98708,4.26912 -2.16989,3.79273 z m -17.029216,-1.7425 c 0.126587,-0.69122 0.394775,-1.61396 0.595974,-2.05052 1.119101,-2.42823 1.486801,-3.37177 1.486801,-3.81523 0,-0.27158 0.18614,-0.56521 0.413645,-0.65251 0.227504,-0.0873 0.344838,-0.27006 0.260741,-0.40613 -0.0841,-0.13608 0.07595,-0.32004 0.355663,-0.40882 0.581448,-0.18454 0.992524,-1.01048 0.572593,-1.15046 -0.444672,-0.14822 -0.323873,-1.16411 0.25043,-2.10606 0.290498,-0.47646 0.528178,-1.02927 0.528178,-1.22846 0,-0.1992 0.178594,-0.43071 0.396875,-0.51447 0.218281,-0.0838 0.396875,-0.32857 0.396875,-0.54401 0,-0.21544 0.422211,-0.71375 0.938246,-1.10735 1.265455,-0.96521 1.688155,-0.54013 0.785525,0.78996 -0.36872,0.54335 -0.922044,1.48699 -1.229599,2.09697 l -0.55919,1.10907 0.666055,-0.61521 c 0.447821,-0.41364 0.726354,-0.51764 0.850094,-0.31743 0.19169,0.31016 -0.490638,1.98898 -0.914966,2.25123 -0.774915,0.47893 -4.240332,6.9389 -4.240332,7.90452 0,0.57392 -1.053273,2.02168 -1.470806,2.02168 -0.229268,0 -0.251411,-0.33608 -0.0828,-1.25677 z m -43.516051,-2.09691 c -0.639354,-0.63936 0.426605,-2.56575 2.145681,-3.87766 2.85324,-2.17744 3.50106,-2.45759 3.50106,-1.51405 0,0.33289 -0.532413,0.86842 -1.505495,1.51431 -1.75327,1.16376 -3.257006,2.59799 -3.257006,3.10646 0,0.44191 -0.648163,1.00701 -0.88424,0.77094 z m 7.363758,-3.30502 c -0.262985,-0.68533 0.648576,-2.32035 2.042969,-3.66436 0.752414,-0.72523 1.464381,-1.31861 1.582146,-1.31861 0.117766,0 0.21412,0.41672 0.21412,0.92605 0,0.73611 -0.10397,0.92604 -0.506934,0.92604 -0.484991,0 -2.1389,1.78789 -2.1389,2.31217 0,0.13841 -0.235643,0.4649 -0.523651,0.72554 -0.435855,0.39445 -0.548145,0.41007 -0.66975,0.0932 z m 5.320599,-0.44273 c -0.07849,-0.12699 -0.08872,-0.51589 -0.02275,-0.86421 0.47062,-2.48468 0.795823,-3.23746 1.91923,-4.44264 0.397756,-0.42671 1.010105,-1.09041 1.360775,-1.47488 0.907952,-0.99548 2.12277,-1.58628 2.49545,-1.2136 0.215751,0.21575 0.04905,0.50354 -0.625713,1.08023 -0.5059,0.43237 -1.019796,0.7864 -1.141991,0.78674 -0.265885,7.5e-4 -1.211728,1.09601 -1.224233,1.41764 -0.0048,0.12451 -0.306459,0.58013 -0.670261,1.01249 -0.363802,0.43235 -0.661458,1.00054 -0.661458,1.26265 0,0.60085 -0.703415,2.3062 -1.036042,2.51178 -0.137671,0.0851 -0.314526,0.0508 -0.393011,-0.0762 z m 4.496402,-0.002 c -0.176073,-0.28489 0.630009,-3.00377 0.958499,-3.23297 0.118549,-0.0827 0.465061,-0.6185 0.770026,-1.19063 0.304965,-0.57212 0.728591,-1.36765 0.941391,-1.76783 0.2128,-0.40018 0.497251,-0.72761 0.632113,-0.72761 0.134863,0 0.245205,-0.1227 0.245205,-0.27266 0,-0.14997 0.423674,-0.64466 0.941497,-1.09931 0.579016,-0.50839 0.830231,-0.89542 0.652497,-1.00526 -0.434119,-0.2683 -0.02229,-1.06235 0.55098,-1.06235 0.275473,0 0.500859,-0.11609 0.500859,-0.25797 0,-0.5145 2.499165,-1.44678 3.96875,-1.48048 0.800365,-0.0183 1.663834,-0.1238 1.918821,-0.23433 0.254987,-0.11052 0.747182,-0.12978 1.093766,-0.0428 0.41091,0.10314 1.259429,-0.12716 2.43882,-0.66192 2.172421,-0.98503 5.925676,-1.42479 5.925676,-0.69431 0,0.43525 -2.005846,1.61945 -2.366032,1.39684 -0.322597,-0.19937 -2.58058,0.53026 -4.463004,1.44216 -0.918314,0.44485 -1.79958,0.72853 -1.958368,0.6304 -0.158788,-0.0981 -0.419471,-0.0114 -0.579296,0.19272 -0.159825,0.20413 -0.633512,0.54839 -1.052637,0.76502 -0.419125,0.21663 -0.884721,0.66311 -1.034657,0.99219 -0.149936,0.32907 -0.411493,0.59831 -0.581236,0.59831 -0.693157,0 -3.072593,3.03021 -4.16386,5.30267 -0.622115,1.29549 -1.191774,2.35878 -1.265911,2.36285 -0.07414,0.004 -0.269512,-0.20832 -0.434169,-0.47198 -0.235109,-0.37647 -0.184661,-0.7296 0.235005,-1.64503 0.293909,-0.64111 0.742404,-1.64578 0.996655,-2.2326 0.254251,-0.58682 0.955844,-1.62389 1.559096,-2.3046 0.697103,-0.78662 0.989934,-1.30372 0.803526,-1.41893 -0.161312,-0.0997 -0.234569,-0.40583 -0.162792,-0.68031 0.07178,-0.27447 -0.0071,-0.57778 -0.175388,-0.67401 -0.168239,-0.0962 -0.22375,-0.0837 -0.123357,0.0279 0.192243,0.21369 -0.0616,0.60109 -1.042429,1.59084 -0.327421,0.3304 -0.595312,0.70745 -0.595312,0.83788 0,0.13043 -0.366656,0.53349 -0.814791,0.8957 -0.448136,0.3622 -1.139597,1.3134 -1.536582,2.11376 -1.770669,3.56987 -2.449923,4.54814 -2.783361,4.00862 z m 9.632651,-9.41696 c 0,-0.0642 -0.119063,-0.19026 -0.264584,-0.2802 -0.145521,-0.0899 -0.264583,-0.0374 -0.264583,0.11668 0,0.15411 0.119062,0.28019 0.264583,0.28019 0.145521,0 0.264584,-0.0525 0.264584,-0.11667 z m 0.423099,6.24452 c -0.166682,-0.26969 0.764263,-2.08296 1.45685,-2.83761 0.275715,-0.30042 0.501301,-0.63685 0.501301,-0.74763 0,-0.37489 3.705035,-3.86552 4.102952,-3.86552 0.21723,0 0.394964,-0.10935 0.394964,-0.24299 0,-0.13364 0.744141,-0.42137 1.653646,-0.63939 2.293638,-0.54983 4.428564,-1.39335 4.795054,-1.89455 0.38751,-0.52995 4.234308,-1.17523 5.892127,-0.98837 1.954649,0.22032 1.852476,1.43764 -0.107707,1.28327 -0.485685,-0.0383 -0.94354,0.0283 -1.017456,0.14791 -0.07392,0.1196 -0.430765,0.21745 -0.792996,0.21745 -0.362232,0 -2.230439,0.54171 -4.151573,1.20379 -1.921133,0.66209 -3.701777,1.25065 -3.956985,1.30792 -0.255209,0.0573 -0.612396,0.19716 -0.79375,0.31086 -0.181354,0.11371 -0.604219,0.24448 -0.939699,0.2906 -0.557977,0.0767 -1.716114,0.92099 -2.625404,1.91391 -0.937711,1.02396 -2.453647,3.06091 -2.457745,3.30245 -0.0059,0.34875 -1.176892,1.46005 -1.53846,1.46005 -0.152802,0 -0.339606,-0.1 -0.415119,-0.22215 z m 63.005558,-15.84928 c 0.11809,-3.16276 0.22619,-3.95987 0.57151,-4.21393 0.36985,-0.27212 0.44908,-0.15938 0.60226,0.85704 0.097,0.64371 0.12889,1.67678 0.0709,2.29571 -0.058,0.61893 -0.11823,1.89874 -0.13375,2.84403 -0.0162,0.98636 -0.15913,1.802 -0.33544,1.91418 -0.85615,0.54473 -0.92209,0.23036 -0.77544,-3.69703 z m 18.32816,-10.84992 c -2.9e-4,-0.1819 -0.13347,-0.33073 -0.29596,-0.33073 -0.16249,0 -0.23585,-0.22787 -0.16302,-0.50638 0.23247,-0.88897 -2.52377,-2.58997 -4.92735,-3.04088 -0.85238,-0.15991 -2.3295,-1.45803 -2.62471,-2.30664 -0.3004,-0.86353 -5.29674,-4.94592 -6.27702,-5.12881 -0.0728,-0.0136 -0.79268,-0.1134 -1.59982,-0.22184 -0.80713,-0.10843 -1.81917,-0.42895 -2.24896,-0.71227 -0.42979,-0.28331 -0.99353,-0.51589 -1.25276,-0.51685 -0.25923,-9.6e-4 -0.53023,-0.15525 -0.60223,-0.34287 -0.072,-0.18761 -0.49233,-0.36866 -0.93408,-0.40232 -0.44175,-0.0337 -0.88512,-0.078 -0.98527,-0.0986 -0.35934,-0.0737 -2.70764,0.64738 -2.84804,0.87455 -0.25816,0.41771 -0.64135,0.2434 -0.64135,-0.29175 0,-0.86617 1.67801,-1.52986 3.83505,-1.51685 1.64733,0.01 1.98372,0.10468 3.06156,0.86228 0.81797,0.57493 1.67698,0.91352 2.64725,1.04344 2.01489,0.26979 4.14102,1.29614 5.53742,2.67309 0.65485,0.64573 1.78917,1.73779 2.52072,2.4268 0.73154,0.689 1.54044,1.58395 1.79756,1.98877 0.25712,0.40482 0.55485,0.68205 0.66162,0.61606 0.31048,-0.19189 2.7645,0.72833 3.46776,1.30036 0.35333,0.2874 1.19912,1.02856 1.87952,1.64703 0.77229,0.70198 1.48915,1.12448 1.90795,1.12448 0.36897,0 0.95193,0.23416 1.29547,0.52036 l 0.62463,0.52036 -0.79375,0.0456 c -2.38377,0.13704 -3.0417,0.0881 -3.04219,-0.22646 z m -17.13244,-1.45812 c -0.14218,-0.1803 -0.27342,-0.50641 -0.29165,-0.72469 -0.0182,-0.21828 -0.14483,-1.05172 -0.28133,-1.85208 -0.32663,-1.91516 -0.33813,-3.4779 -0.0292,-3.96654 0.47014,-0.74364 0.80668,0.11823 0.93581,2.39658 0.0696,1.22728 0.19478,2.66587 0.27826,3.19687 0.15843,1.00773 -0.16741,1.51353 -0.61189,0.94986 z"
       id="path9" />
  </g>
</svg>
