<?xml version="1.0" encoding="UTF-8" standalone="no"?>
<!-- Created with Inkscape (http://www.inkscape.org/) -->

<svg
   width="142.72322mm"
   height="58.9813mm"
   viewBox="0 0 142.72322 58.981303"
   version="1.1"
   id="svg1"
   inkscape:version="1.4.1-rc (06eac75fbf, 2025-03-29)"
   sodipodi:docname="mount1.svg"
   xmlns:inkscape="http://www.inkscape.org/namespaces/inkscape"
   xmlns:sodipodi="http://sodipodi.sourceforge.net/DTD/sodipodi-0.dtd"
   xmlns="http://www.w3.org/2000/svg"
   xmlns:svg="http://www.w3.org/2000/svg">
  <sodipodi:namedview
     id="namedview1"
     pagecolor="#ffffff"
     bordercolor="#000000"
     borderopacity="0.25"
     inkscape:showpageshadow="2"
     inkscape:pageopacity="0.0"
     inkscape:pagecheckerboard="0"
     inkscape:deskcolor="#d1d1d1"
     inkscape:document-units="mm"
     inkscape:zoom="0.72248176"
     inkscape:cx="269.90301"
     inkscape:cy="111.4215"
     inkscape:window-width="1850"
     inkscape:window-height="1016"
     inkscape:window-x="0"
     inkscape:window-y="0"
     inkscape:window-maximized="1"
     inkscape:current-layer="layer1" />
  <defs
     id="defs1" />
  <g
     inkscape:label="Layer 1"
     inkscape:groupmode="layer"
     id="layer1"
     transform="translate(-34.131251,-118.79824)">
    <path
       style="fill:#000000"
       d="m 77.24013,177.71693 c -0.077,-0.1246 0.0295,-0.26532 0.2367,-0.31272 0.63442,-0.14511 3.511,-2.8689 10.27924,-9.73326 0.57915,-0.58737 0.9935,-1.26706 0.99533,-1.63272 0.002,-0.34454 0.16765,-1.24434 0.36872,-1.99955 0.20107,-0.75522 0.31716,-1.42155 0.25797,-1.48073 -0.18104,-0.18105 0.61341,-1.87071 1.19333,-2.53802 0.55099,-0.63403 2.14559,-1.0431 2.14559,-0.55042 0,0.1458 -0.26789,0.38972 -0.59531,0.54205 -0.65257,0.30361 -1.41475,1.73288 -1.6866,3.16278 -0.0956,0.503 -0.28036,1.1229 -0.4105,1.37756 -0.13014,0.25466 -0.13484,0.46302 -0.0105,0.46302 0.23903,0 0.59806,-0.38846 2.30639,-2.49544 0.58186,-0.71764 1.8616,-2.07857 2.84387,-3.02427 0.98226,-0.94571 1.78593,-1.80432 1.78593,-1.90803 0,-0.10371 -0.18882,-0.26102 -0.41961,-0.34958 -0.4478,-0.17184 -1.30018,0.18796 -1.30018,0.54881 0,0.11938 -0.23812,0.19409 -0.52916,0.16604 -1.03483,-0.0998 -1.87026,-0.0802 -3.24115,0.0761 -1.2296,0.14013 -1.38999,0.10221 -1.39711,-0.33026 -0.008,-0.46022 -0.0238,-0.46156 -0.27915,-0.023 -0.14911,0.25606 -0.6644,0.62989 -1.14511,0.83074 -1.1542,0.48226 -2.00728,1.428 -2.00728,2.22532 0,0.61113 0.0719,0.5823 1.4204,-0.56977 0.78122,-0.66742 1.49559,-1.13829 1.5875,-1.04638 0.42364,0.42364 0.0175,1.06319 -1.94956,3.07032 -1.16417,1.18785 -2.11667,2.25119 -2.11667,2.36297 0,0.11179 -0.48876,0.64482 -1.08614,1.18451 -0.59737,0.53969 -1.18974,1.25376 -1.31637,1.58681 -0.12662,0.33305 -0.39261,0.60555 -0.59107,0.60555 -0.19846,0 -0.89584,0.56555 -1.54972,1.25677 -0.65389,0.69123 -1.65383,1.61396 -2.22209,2.05052 -0.56826,0.43657 -1.52425,1.24024 -2.12443,1.78594 -0.60018,0.5457 -1.17521,0.99219 -1.27785,0.99219 -0.10264,0 -0.57963,0.41672 -1.05998,0.92604 -0.83329,0.88354 -1.47235,1.18702 -1.47235,0.69919 0,-0.12477 1.57758,-1.78556 3.50573,-3.69065 1.92815,-1.90509 3.62479,-3.58969 3.77031,-3.74355 0.14552,-0.15387 0.53729,-0.48738 0.87059,-0.74113 0.53723,-0.40899 0.57979,-0.58148 0.37501,-1.51969 -0.19438,-0.89054 -0.12553,-1.26808 0.43423,-2.38125 0.93296,-1.85537 2.18164,-3.57188 2.59836,-3.57188 0.19361,0 0.35202,-0.11906 0.35202,-0.26458 0,-0.14552 0.14883,-0.26641 0.33073,-0.26864 0.60712,-0.007 1.01209,-0.42996 0.84055,-0.87699 -0.0933,-0.24303 -0.31229,-0.44187 -0.48673,-0.44187 -0.53122,0 -2.03375,1.23876 -2.71048,2.23465 -0.35144,0.51719 -0.81702,0.94035 -1.03462,0.94035 -0.68173,0 -0.74352,-0.7856 -0.11445,-1.45521 0.87311,-0.92938 0.5415,-1.45521 -0.91774,-1.45521 -1.02254,0 -1.19893,0.0778 -1.19893,0.52917 0,0.583 -0.41891,0.72186 -0.59862,0.19844 -0.0669,-0.19478 -0.6534,0.25091 -1.42685,1.08424 l -1.31329,1.41497 -0.64572,-0.81726 c -0.65483,-0.82878 -1.95867,-1.18411 -1.67997,-0.45783 0.13339,0.34761 -0.48653,0.63326 -1.87617,0.8645 -2.18607,0.36378 -4.91359,1.82513 -4.69936,2.51783 0.10069,0.32557 -1.14136,1.45028 -1.47776,1.33815 -0.16785,-0.056 -0.30517,-0.32993 -0.30517,-0.60884 0,-0.62075 -0.0931,-0.6261 -1.0015,-0.0575 -1.10284,0.69033 -2.31512,2.06954 -2.2246,2.53091 0.0805,0.41011 -0.90108,0.91799 -1.19878,0.62029 -0.27849,-0.2785 1.1095,-2.59034 1.69192,-2.81805 0.40716,-0.1592 0.53387,-0.37933 0.4353,-0.75625 -0.14858,-0.56818 0.45712,-0.84286 2.03343,-0.92213 0.60049,-0.0302 0.94564,-0.30165 1.55788,-1.22524 1.24099,-1.87209 2.3,-2.73885 3.74359,-3.06397 1.61268,-0.36321 3.88839,-0.20585 4.70603,0.32541 0.51466,0.33439 0.69201,0.34254 1.08561,0.0499 0.25876,-0.19241 0.99152,-0.74363 1.62836,-1.22494 1.09577,-0.82815 1.24679,-0.86739 2.81458,-0.73135 0.91117,0.0791 1.87468,0.2799 2.14113,0.4463 0.40354,0.25201 0.75178,0.12007 2.08504,-0.79 1.07641,-0.73476 1.88571,-1.09255 2.47127,-1.09255 0.47889,0 1.402,-0.31136 2.05136,-0.69191 1.05144,-0.61618 1.35355,-0.67234 2.7605,-0.51317 1.31566,0.14886 1.63471,0.10372 1.90791,-0.2699 0.18043,-0.24675 0.70893,-0.46231 1.17444,-0.47902 0.68947,-0.0247 0.83127,-0.12847 0.76486,-0.55953 -0.0448,-0.29105 -0.22752,-0.49941 -0.40597,-0.46303 -0.17844,0.0364 -0.32445,-0.15924 -0.32445,-0.43471 0,-0.27547 -0.17658,-0.56862 -0.39241,-0.65144 -0.22664,-0.087 -0.32536,-0.32533 -0.23369,-0.56423 0.12016,-0.31312 0.24503,-0.34203 0.51381,-0.11896 0.27793,0.23066 0.39239,0.14603 0.5268,-0.38953 0.0944,-0.37632 0.10643,-0.85437 0.0266,-1.06234 -0.26824,-0.69901 0.42175,-0.87574 2.22362,-0.56953 2.08022,0.35351 4.40837,1.66809 5.10552,2.88281 l 0.48123,0.83849 0.51502,-0.63602 c 0.35652,-0.44029 0.43034,-0.72069 0.23987,-0.91116 -0.42923,-0.42923 -0.32584,-1.20705 0.27204,-2.0467 0.61797,-0.86786 1.07958,-0.92783 3.0676,-0.39851 l 1.36583,0.36366 0.92011,-0.82982 c 2.26778,-2.04524 4.6833,-3.50124 5.37085,-3.2374 0.20355,0.0781 0.37009,0.0388 0.37009,-0.0874 0,-0.12619 0.89339,-0.55527 1.9853,-0.95352 1.11822,-0.40784 2.36415,-1.08401 2.85273,-1.54819 1.34941,-1.28205 3.65878,-4.17446 4.76544,-5.96856 1.04729,-1.69786 1.67617,-2.18821 2.04371,-1.59352 0.14127,0.22859 -0.0871,0.72548 -0.65626,1.42762 -0.90421,1.11558 -1.99509,3.08416 -1.99509,3.60032 0,0.1625 -0.8684,1.17234 -1.92978,2.24409 -1.88066,1.89906 -3.23555,4.02038 -3.1651,4.95555 0.0192,0.25493 -0.0701,0.4635 -0.19851,0.4635 -0.12838,0 -0.17714,0.50602 -0.10834,1.12448 0.18506,1.66373 0.92951,3.90261 1.29764,3.90261 0.42473,0 1.15565,-2.94785 1.15964,-4.67688 0.005,-2.23298 0.44433,-3.45705 1.30845,-3.64685 0.56482,-0.12405 0.94001,-0.54334 1.61601,-1.8059 0.48423,-0.90438 1.19991,-2.23964 1.59041,-2.96725 0.7791,-1.45166 3.04929,-4.83466 4.08366,-6.08541 0.50518,-0.61087 0.72952,-0.72216 0.97368,-0.48303 0.24553,0.24049 0.0257,0.76248 -0.97244,2.309 -2.33484,3.61763 -2.47134,3.91202 -2.47596,5.33982 -0.002,0.73973 0.0754,1.42468 0.17278,1.52211 0.33429,0.33429 1.71692,-2.83576 1.74093,-3.99155 0.0128,-0.61846 0.12232,-1.12448 0.24327,-1.12448 0.12095,0 0.21991,-0.16471 0.21991,-0.36602 0,-0.20131 0.23813,-0.42828 0.52917,-0.50439 0.29961,-0.0784 0.52917,-0.3609 0.52917,-0.65131 0,-0.28211 0.23812,-0.72843 0.52916,-0.99182 0.29105,-0.26339 0.52917,-0.6402 0.52917,-0.83735 0,-0.19715 0.23813,-0.56234 0.52917,-0.81154 0.67046,-0.57407 0.68174,-0.94874 0.0223,-0.73943 -0.59121,0.18765 -1.04203,-0.35118 -0.54884,-0.65599 0.18423,-0.11386 0.78172,-0.27846 1.32775,-0.36577 0.79282,-0.12678 1.02832,-0.30035 1.16923,-0.86176 0.097,-0.38666 0.57075,-1.19101 1.05268,-1.78746 0.48193,-0.59645 1.17322,-1.56228 1.5362,-2.1463 0.36297,-0.58402 0.94414,-1.31415 1.29148,-1.62251 0.34734,-0.30835 1.28637,-1.14453 2.08674,-1.85817 1.78595,-1.59242 3.20086,-2.54591 4.765,-3.21109 1.38497,-0.58897 4.89768,-1.00015 5.14369,-0.60208 0.0893,0.14454 0.3372,0.19573 0.55082,0.11375 0.21362,-0.082 0.38841,-0.0461 0.38841,0.0797 0,0.12579 0.56554,0.2342 1.25677,0.24091 1.77796,0.0173 3.02761,0.27025 4.38158,0.88705 1.66259,0.7574 3.71701,1.19324 3.84299,0.81528 0.0666,-0.19992 0.23952,-0.17234 0.53412,0.0852 0.23957,0.20945 0.79277,0.44768 1.22933,0.5294 2.68724,0.50301 3.79424,0.77199 4.49791,1.0929 3.02218,1.37824 5.39388,2.62635 5.29493,2.78645 -0.22231,0.3597 1.32173,1.53977 2.0061,1.53321 0.71954,-0.007 2.09168,0.7464 2.09168,1.14833 0,0.32444 -2.84094,0.29602 -3.04271,-0.0304 -0.0899,-0.14553 -0.39462,-0.26459 -0.67707,-0.26459 -0.33517,0 -0.51355,-0.18169 -0.51355,-0.52307 0,-0.28768 -0.32307,-0.73417 -0.71793,-0.99218 -0.39486,-0.25802 -0.97776,-0.70725 -1.29535,-0.99829 -0.58598,-0.53701 -3.67959,-1.74947 -4.76889,-1.86904 -0.32776,-0.036 -0.7505,-0.16095 -0.93941,-0.2777 -0.18891,-0.11675 -0.72133,-0.22866 -1.18315,-0.24868 -0.46183,-0.02 -1.26789,-0.23959 -1.79124,-0.48794 -0.52336,-0.24834 -1.06553,-0.3811 -1.20483,-0.29501 -0.41204,0.25465 -4.69208,-1.03827 -5.05345,-1.52655 -0.0843,-0.11386 -0.7391,-0.2706 -1.4552,-0.34832 -0.71611,-0.0777 -1.4806,-0.20528 -1.69888,-0.28347 -0.64883,-0.2324 -2.46785,-0.32954 -2.76238,-0.14751 -0.15028,0.0929 -0.81062,0.19995 -1.46741,0.23794 -1.11466,0.0645 -1.73298,0.25937 -3.04626,0.9602 -0.29104,0.15531 -0.82773,0.4334 -1.19264,0.61798 -0.36491,0.18457 -1.07288,0.75798 -1.57326,1.27424 -0.50038,0.51626 -1.00303,0.93865 -1.11701,0.93865 -0.52444,0 -2.73343,2.7408 -3.39004,4.20618 -0.15633,0.34887 -0.76082,1.09683 -1.34333,1.66214 -1.28756,1.24953 -2.10475,2.54097 -1.91718,3.02977 0.2152,0.56081 0.59905,0.42976 0.87617,-0.29913 0.18997,-0.49966 0.43107,-0.65395 0.98564,-0.63077 0.45363,0.019 0.55599,0.0772 0.26789,0.15232 -0.25644,0.0669 -0.39125,0.24299 -0.29957,0.39134 0.0917,0.14834 -0.067,0.58581 -0.35264,0.97216 -1.06053,1.43447 -1.39347,2.38282 -1.35915,3.87144 0.0313,1.3599 0.0645,1.43564 0.41123,0.94057 0.20742,-0.29613 0.42861,-0.80576 0.49154,-1.1325 0.0629,-0.32673 0.23464,-0.63414 0.38161,-0.68313 0.14696,-0.049 0.2672,-0.30688 0.2672,-0.57309 0,-0.26622 0.41611,-1.11585 0.92468,-1.88808 0.50857,-0.77223 1.05359,-1.79465 1.21114,-2.27205 0.15756,-0.4774 0.38828,-0.868 0.5127,-0.868 0.12443,0 0.30761,-0.26789 0.40707,-0.59531 0.0995,-0.32743 0.44754,-0.9525 0.77351,-1.38907 0.32597,-0.43656 0.68404,-1.08268 0.79571,-1.43581 0.11166,-0.35314 0.60505,-1.05601 1.0964,-1.56194 0.49136,-0.50593 0.89338,-1.06282 0.89338,-1.23753 0,-0.31293 0.74411,-1.27903 1.88353,-2.44545 0.5514,-0.56445 1.56187,-0.82302 1.55097,-0.39687 -0.003,0.10914 -0.41951,0.67339 -0.92604,1.25388 -0.50653,0.58049 -0.92096,1.27625 -0.92096,1.54612 0,0.26988 -0.23813,0.55296 -0.52917,0.62907 -0.29104,0.0761 -0.52917,0.30806 -0.52917,0.51546 0,0.20739 -0.23812,0.63267 -0.52916,0.94507 -0.29105,0.3124 -0.52917,0.71995 -0.52917,0.90567 0,0.18572 -0.20836,0.44962 -0.46302,0.58644 -0.25466,0.13681 -0.81287,0.94468 -1.24046,1.79524 -0.42758,0.85057 -1.17173,2.16585 -1.65364,2.92284 -0.48192,0.75699 -0.87621,1.54613 -0.87621,1.75363 0,0.20749 -0.19902,0.83829 -0.44226,1.40177 -0.40542,0.93916 -0.67071,3.80262 -0.35229,3.80262 0.0749,0 0.40891,-0.62508 0.74223,-1.38906 0.80063,-1.83503 2.49377,-5.28871 2.75634,-5.6224 0.4986,-0.63363 2.01238,-2.97924 2.39098,-3.70482 0.51533,-0.98763 3.96503,-4.62955 4.3852,-4.62955 0.17016,0 0.30938,0.13656 0.30938,0.30348 0,0.29258 -1.46022,2.19666 -2.3744,3.09614 -0.24418,0.24026 -0.9707,1.21074 -1.61447,2.15663 -0.64378,0.94588 -1.2598,1.75948 -1.36894,1.80798 -0.10914,0.0485 -0.19844,0.36135 -0.19844,0.69521 0,0.33386 -0.18315,0.75901 -0.40699,0.94479 -0.36484,0.30279 -3.03259,5.62457 -3.03259,6.04958 0,0.0953 -0.34193,0.8705 -0.75985,1.72276 -0.76209,1.55415 -0.80341,2.27375 -0.16116,2.80677 0.25106,0.20837 0.40403,0.19275 0.56297,-0.0575 0.28817,-0.45367 1.41358,-3.19875 1.41514,-3.45181 6.8e-4,-0.10881 0.42531,-0.78812 0.94364,-1.5096 0.51833,-0.72147 0.91873,-1.38877 0.88978,-1.48289 -0.029,-0.0941 0.39263,-0.76754 0.93684,-1.49649 0.89065,-1.193 1.03015,-1.28471 1.39665,-0.9182 0.3665,0.3665 0.32202,0.51467 -0.44534,1.48353 -0.70284,0.88741 -0.821,1.21978 -0.67307,1.89329 l 0.17942,0.81691 0.43634,-0.61728 c 0.23998,-0.33951 0.62376,-0.9639 0.85285,-1.38754 0.49914,-0.92303 1.56954,-1.21881 1.56954,-0.43371 0,0.28188 -0.22213,0.66809 -0.49362,0.85825 -0.27149,0.19016 -0.57861,0.73269 -0.68248,1.20563 -0.10388,0.47293 -0.29847,0.85988 -0.43243,0.85988 -0.13396,0 -0.24356,0.17179 -0.24356,0.38175 0,0.20996 -0.25557,0.81492 -0.56795,1.34435 -0.54118,0.91725 -0.54762,1.00523 -0.13657,1.86721 0.5215,1.0936 0.90289,1.15372 1.12298,0.177 0.29917,-1.3277 1.36121,-4.41576 1.94793,-5.66397 0.67462,-1.43519 1.38542,-2.15788 1.9987,-2.03214 0.36605,0.0751 0.30653,0.27967 -0.37238,1.27997 -0.44444,0.65484 -0.81025,1.37517 -0.81289,1.60073 -0.003,0.22555 -0.11307,0.52321 -0.24538,0.66145 -0.37467,0.39148 -1.08235,3.02535 -1.08235,4.02832 0,0.68027 -0.13043,0.93689 -0.52917,1.04117 -0.29104,0.0761 -0.52917,0.34873 -0.52917,0.60583 0,0.25709 -0.22891,0.52731 -0.5087,0.60047 -1.18804,0.31068 -3.22966,-1.87772 -2.72226,-2.91797 0.17673,-0.36232 0.2181,-1.67385 0.0763,-2.41987 -0.0684,-0.35997 -1.07942,0.95204 -1.0826,1.40494 -0.002,0.30486 -0.17669,0.85196 -0.38787,1.21576 -0.59226,1.02029 -1.53458,3.00265 -1.61339,3.3941 -0.1603,0.79617 -0.38284,1.10382 -0.79848,1.10382 -0.36178,0 -0.41009,-0.18073 -0.2747,-1.02745 0.12173,-0.76125 0.0567,-1.11672 -0.25093,-1.37204 -0.52397,-0.43486 -0.73193,-0.14647 -1.34873,1.87032 -0.77634,2.53843 -1.33415,2.6791 -2.24501,0.56616 l -0.52921,-1.22762 -0.48161,0.92514 c -0.32772,0.62952 -0.40525,1.06783 -0.24264,1.37167 0.29583,0.55277 0.31333,1.53965 0.0273,1.53965 -0.11642,0 -0.3411,-0.12944 -0.4993,-0.28764 -0.43316,-0.43315 -0.6626,0.11448 -0.68228,1.62846 -0.0119,0.91864 -0.124,1.30501 -0.37849,1.30501 -0.39134,0 -0.43916,0.098 -0.87123,1.78594 -0.15831,0.61846 -0.40754,1.12448 -0.55384,1.12448 -0.27216,0 -0.19566,-1.65712 0.1613,-3.49404 0.15872,-0.8168 0.0308,-1.31252 -0.76621,-2.96916 l -0.95674,-1.98866 -0.6144,0.58791 c -0.33792,0.32335 -0.55358,0.70365 -0.47925,0.84512 0.0743,0.14146 0.10356,0.69475 0.065,1.22952 -0.0731,1.01191 1.05587,3.67264 1.55828,3.67264 0.31808,0 0.32711,0.27838 0.0245,0.75592 -0.26621,0.42012 -1.3487,0.17239 -1.35779,-0.31072 -0.003,-0.1721 -0.22437,-0.59706 -0.49141,-0.94435 l -0.48553,-0.63145 -0.20941,0.76374 c -0.34004,1.24016 -0.37903,2.28406 -0.10447,2.79708 0.19465,0.36371 0.16165,0.4802 -0.13604,0.4802 -0.21617,0 -0.51584,0.20836 -0.66593,0.46302 -0.23792,0.40368 -0.30664,0.41216 -0.53627,0.0662 -0.14487,-0.21828 -0.20253,-0.59269 -0.12816,-0.83201 0.0744,-0.23933 -0.0421,-0.6125 -0.25888,-0.82926 -0.4742,-0.4742 -1.42143,-1.99539 -1.64279,-2.63821 -0.0877,-0.25466 -0.25297,-0.46302 -0.36728,-0.46302 -0.28056,0 -0.78878,1.50588 -0.78878,2.3372 0,0.72919 0.9822,2.95447 1.30405,2.95447 0.31621,0 0.81693,1.28902 0.56194,1.44662 -0.41579,0.25697 -1.04281,-0.15744 -1.37553,-0.90909 -0.39676,-0.89634 -1.25042,-1.51668 -1.38514,-1.00654 -0.0489,0.18519 -0.23074,0.77832 -0.40407,1.31806 -0.26531,0.82612 -0.24711,1.08519 0.11504,1.6379 0.4115,0.62802 0.40057,0.68233 -0.25138,1.24919 -0.37486,0.32594 -0.68157,0.86178 -0.68157,1.19075 0,0.32897 -0.13238,0.67994 -0.29417,0.77993 -0.48939,0.30246 -0.71924,-0.42337 -0.44667,-1.41054 0.2874,-1.04089 0.094,-2.51611 -0.39747,-3.03101 -0.58483,-0.61277 -1.24294,-1.7681 -1.24294,-2.182 0,-0.22341 -0.15838,-0.40619 -0.35196,-0.40619 -0.2015,0 -0.6399,0.84611 -1.02551,1.97923 -0.56494,1.66009 -0.61484,2.02793 -0.30949,2.28135 0.20022,0.16617 0.36404,0.53316 0.36404,0.81553 0,0.37936 -0.15399,0.49179 -0.58981,0.43063 -0.4431,-0.0622 -0.63049,0.0817 -0.75339,0.57868 -0.31716,1.28238 -0.57339,1.85208 -0.83301,1.85208 -0.14778,0 -0.18989,0.28894 -0.0964,0.66146 0.12666,0.50465 0.0629,0.66146 -0.26897,0.66146 -0.3544,0 -0.39884,-0.15931 -0.23983,-0.8599 0.10733,-0.47294 0.1814,-1.14815 0.16458,-1.50046 -0.0168,-0.35231 0.15614,-0.92553 0.38436,-1.27382 0.44259,-0.67548 0.32671,-1.91464 -0.23656,-2.52955 -0.17001,-0.1856 -0.4877,-0.68084 -0.70598,-1.10054 -0.54961,-1.05676 -0.94133,-1.10195 -1.35967,-0.15684 -0.19635,0.44359 -0.447,0.80652 -0.557,0.80652 -0.43648,0 -0.16326,1.18885 0.46146,2.0079 0.83004,1.08824 0.83432,1.43169 0.0178,1.43169 -0.417,0 -0.70439,-0.19145 -0.8162,-0.54373 -0.28117,-0.88589 -0.7119,-0.45866 -1.36372,1.35262 -0.3372,0.93702 -0.73282,1.74358 -0.87915,1.79235 -0.14633,0.0488 -0.26605,0.3694 -0.26605,0.71248 0,0.34309 -0.11906,0.69738 -0.26458,0.78732 -0.14552,0.0899 -0.26459,0.39462 -0.26459,0.67707 0,0.28246 -0.11906,0.51355 -0.26458,0.51355 -0.14552,0 -0.26458,0.11907 -0.26458,0.26459 0,0.14552 -0.23813,0.50271 -0.52917,0.79375 -0.61941,0.61941 -0.71374,0.21297 -0.2274,-0.97974 0.16597,-0.40703 0.44805,-1.09724 0.62685,-1.5338 0.1788,-0.43657 0.66418,-1.68672 1.07863,-2.77813 0.41445,-1.09141 0.87651,-2.06961 1.02679,-2.17378 0.1628,-0.11285 0.27326,-1.50118 0.27326,-3.4346 0,-2.95056 0.0446,-3.2539 0.49112,-3.34114 0.76091,-0.14864 1.11531,0.36942 0.60312,0.88162 -0.46105,0.46105 -0.6138,2.51165 -0.1871,2.51165 0.45084,0 1.05672,-0.80393 0.90461,-1.20032 -0.0826,-0.2152 0.0312,-0.66805 0.25288,-1.00635 0.22166,-0.3383 0.47358,-1.24876 0.55982,-2.02325 0.18004,-1.61687 0.49305,-2.12017 1.2031,-1.93449 0.37509,0.0981 0.63437,-0.12462 1.03291,-0.88721 1.12199,-2.14689 2.90318,-3.58191 2.62232,-2.11268 -0.0945,0.49434 -0.0223,0.59986 0.34474,0.50388 0.43213,-0.11301 2.35893,-3.63253 2.35893,-4.30887 0,-0.20635 -0.27219,-0.23694 -0.85989,-0.0966 -0.47294,0.11291 -1.21708,0.18515 -1.65365,0.16054 -0.52729,-0.0297 -0.67324,0.0305 -0.43477,0.17954 0.50363,0.31466 -0.0774,0.63804 -0.75822,0.42197 -0.34254,-0.10872 -0.52972,-0.0453 -0.53516,0.18136 -0.005,0.1917 -0.54103,0.6718 -1.19207,1.06688 -0.65104,0.39507 -1.33188,1.0436 -1.51299,1.44116 -0.18111,0.39756 -0.80554,1.16942 -1.38762,1.71524 -0.92113,0.86375 -1.01748,1.0591 -0.74318,1.50688 0.36718,0.59938 0.21069,0.83487 -0.55769,0.83924 -0.54376,0.003 -0.75064,0.30511 -3.10295,4.52975 -0.68418,1.22876 -0.68857,1.26656 -0.19843,1.71012 0.95754,0.86657 0.32418,2.5357 -0.65411,1.7238 -0.29495,-0.24479 -0.29395,-0.0601 0.006,1.09488 0.19841,0.76415 0.30458,1.53618 0.23592,1.71562 -0.19296,0.50437 -0.91386,0.0922 -1.36517,-0.78056 l -0.407,-0.78704 -0.77384,0.86676 c -0.42562,0.47672 -0.77385,0.95647 -0.77385,1.06611 0,0.4066 -1.74219,3.04529 -2.64166,4.00101 -0.51162,0.54362 -1.40646,1.54402 -1.98854,2.22312 -0.58209,0.6791 -1.86201,2.07239 -2.84428,3.0962 -0.98226,1.02381 -1.78593,1.93207 -1.78593,2.01836 0,0.0863 -0.38199,0.30107 -0.84885,0.47729 -1.43424,0.54137 -1.54094,-0.0669 -0.21012,-1.19785 1.29001,-1.09623 1.52004,-1.32147 3.90324,-3.82204 0.9095,-0.9543 1.65364,-1.86855 1.65364,-2.03167 0,-0.16312 0.18562,-0.29658 0.41249,-0.29658 0.22687,0 0.33891,-0.11906 0.24897,-0.26458 -0.0899,-0.14552 -0.0374,-0.26459 0.11668,-0.26459 0.15411,0 0.2802,-0.12552 0.2802,-0.27893 0,-0.15341 0.3495,-0.6529 0.77668,-1.10998 0.42717,-0.45707 0.93011,-1.13523 1.11764,-1.507 0.18752,-0.37178 0.67146,-1.06706 1.0754,-1.54506 0.40394,-0.47801 0.73444,-0.99541 0.73444,-1.14978 0,-0.15438 0.26771,-0.65625 0.59491,-1.11528 0.32719,-0.45902 0.59997,-0.89412 0.60617,-0.96688 0.0642,-0.75419 1.08321,-2.95894 1.6806,-3.63629 0.41627,-0.47199 0.91147,-1.24589 1.10045,-1.71979 0.18898,-0.4739 0.56018,-1.17661 0.82489,-1.56157 0.43075,-0.62645 0.43722,-0.71685 0.0616,-0.86099 -0.27916,-0.10713 -0.46611,0.0165 -0.55834,0.36921 -0.0893,0.3416 -0.36076,0.53026 -0.76287,0.53026 -0.34332,0 -0.95451,0.20836 -1.35821,0.46302 -0.59655,0.37631 -0.74284,0.67315 -0.78121,1.58512 -0.036,0.85642 -0.22846,1.29495 -0.81268,1.85209 -0.421,0.40149 -1.46565,1.77564 -2.32144,3.05368 -1.23271,1.84092 -1.5586,2.54296 -1.56858,3.37904 -0.0118,0.98971 -0.0543,1.04623 -0.68385,0.9088 -0.53556,-0.11692 -0.84313,0.0476 -1.52136,0.81365 -0.46755,0.5281 -0.85009,1.19067 -0.85009,1.47238 0,0.2817 -0.23195,0.598 -0.51546,0.70287 -0.2835,0.10488 -1.24177,1.05354 -2.12948,2.10814 -0.88772,1.0546 -1.71761,1.91746 -1.84421,1.91746 -0.1266,0 -0.48773,0.41672 -0.80251,0.92604 -0.31478,0.50932 -0.71145,0.92778 -0.88148,0.92989 -0.17003,0.002 -1.29518,0.89509 -2.50033,1.98438 -2.19842,1.98706 -2.94105,2.37937 -2.87265,1.5175 0.0396,-0.49949 0.52547,-1.1231 0.87775,-1.12669 0.11953,-0.001 1.62085,-1.37043 3.33626,-3.04271 1.71541,-1.67227 3.20482,-3.04049 3.3098,-3.04049 0.10497,0 0.34245,-0.24275 0.52774,-0.53944 0.18528,-0.29668 0.44728,-0.4712 0.58221,-0.38781 0.13492,0.0834 0.11805,-0.21346 -0.0375,-0.65966 -0.22578,-0.64767 -0.3563,-0.75029 -0.64721,-0.50885 -0.20042,0.16633 -0.78479,0.25334 -1.2986,0.19336 -1.01222,-0.11818 -1.1793,0.38423 -0.17684,0.53174 0.31602,0.0465 0.57459,0.25486 0.57459,0.46302 0,0.4679 -0.24118,0.47402 -1.29074,0.0327 -0.63698,-0.26783 -0.75117,-0.41692 -0.50663,-0.66146 0.24454,-0.24454 0.23988,-0.3157 -0.0207,-0.3157 -0.32717,0 -1.09235,0.62235 -1.09235,0.88845 0,0.27417 -5.24196,5.46155 -5.51902,5.46155 -0.15929,0 -0.50072,0.32546 -0.75873,0.72324 -0.65598,1.0113 -1.25397,1.57754 -1.87377,1.77426 -0.29197,0.0927 -0.59764,0.34254 -0.67928,0.55528 -0.0816,0.21274 -0.36052,0.38754 -0.61975,0.38844 -0.25923,8.9e-4 -0.79673,0.17138 -1.19445,0.37886 -0.39772,0.20747 -0.78613,0.27528 -0.86313,0.15068 z m 17.65969,-11.84585 c 0.40019,-0.37982 0.72578,-0.81713 0.72356,-0.97181 -0.002,-0.15467 -0.11489,-0.10597 -0.25035,0.10823 -0.21685,0.3429 -0.26206,0.3429 -0.37804,0 -0.3054,-0.9028 -0.36432,-2.5261 -0.10312,-2.84083 0.15499,-0.18674 0.21371,-0.40762 0.13048,-0.49085 -0.0832,-0.0832 -0.7848,0.53713 -1.55905,1.37855 -0.77426,0.84143 -1.80715,1.91452 -2.2953,2.38464 -0.87388,0.8416 -0.87796,0.85613 -0.26458,0.94295 2.20632,0.31227 3.27275,0.17594 3.9964,-0.51088 z m -10.12031,-2.36395 c 0,-0.1985 0.15875,-0.42182 0.35278,-0.49627 0.21937,-0.0842 0.35278,-0.57179 0.35278,-1.28939 0,-0.72147 -0.10744,-1.11179 -0.28664,-1.04135 -0.57031,0.22416 -2.30846,3.03767 -2.4623,3.98568 l -0.15756,0.97095 1.10047,-0.88437 c 0.60526,-0.48639 1.10047,-1.04676 1.10047,-1.24525 z m 11.79529,0.14362 c 0.23749,-0.45926 0.65727,-1.07702 0.93284,-1.37281 0.27557,-0.29579 0.50104,-0.68402 0.50104,-0.86274 0,-0.17871 0.14883,-0.37809 0.33073,-0.44305 0.1819,-0.065 0.2511,-0.20412 0.15378,-0.30924 -0.0973,-0.10512 -0.58716,0.004 -1.08852,0.24144 -0.7309,0.34683 -0.99734,0.69818 -1.3444,1.77278 -0.23806,0.73712 -0.43284,1.44561 -0.43284,1.57442 0,0.52549 0.54303,0.18111 0.94737,-0.6008 z m 3.01025,-4.57809 c 0.21217,-0.28711 1.07537,-1.32326 1.91823,-2.30257 0.84287,-0.9793 1.53248,-1.84656 1.53248,-1.92724 0,-0.0807 -0.22522,-0.14668 -0.50048,-0.14668 -0.31667,0 -0.56309,0.24944 -0.67094,0.67915 -0.12442,0.49573 -0.32868,0.66646 -0.75629,0.63217 -1.84961,-0.14832 -2.19217,-0.0147 -2.65558,1.03561 -0.24849,0.56321 -0.74765,1.34325 -1.10925,1.73343 -0.3616,0.39017 -0.65746,0.76757 -0.65746,0.83866 0,0.0711 0.56555,0.0956 1.25677,0.0544 0.88414,-0.0527 1.37115,-0.22966 1.64252,-0.5969 z m 15.18459,-2.0601 c -0.0693,-0.11208 0.0602,-0.38997 0.28779,-0.61753 0.22756,-0.22756 0.41375,-0.64336 0.41375,-0.92401 0,-0.28065 0.10791,-0.51027 0.23981,-0.51027 0.1319,0 0.17801,-0.23634 0.10247,-0.52521 -0.0755,-0.28887 -0.0461,-0.73535 0.0654,-0.99218 0.21198,-0.48817 0.20581,-0.93777 -0.0331,-2.41099 -0.13904,-0.85726 -0.16008,-0.8708 -0.65599,-0.42201 -0.28179,0.25501 -0.51234,0.62497 -0.51234,0.82212 0,0.19715 -0.23813,0.56235 -0.52917,0.81154 -0.29104,0.2492 -0.52917,0.71578 -0.52917,1.03685 0,0.32107 -0.17859,0.76235 -0.39687,0.98063 -0.56975,0.56975 -0.49275,1.3214 0.29451,2.87499 0.68714,1.356 0.69351,1.36044 1.03512,0.72213 0.18906,-0.35325 0.28706,-0.73397 0.21779,-0.84606 z m -28.47429,0.69876 c -0.0879,-0.0879 -0.31612,-0.0973 -0.50712,-0.0209 -0.21106,0.0845 -0.14837,0.14715 0.15986,0.15985 0.27891,0.0115 0.43518,-0.051 0.34726,-0.13896 z m 33.48145,-1.1846 c 0.30052,-1.71731 0.28698,-1.84164 -0.35775,-3.28575 -0.32484,-0.72761 -0.62246,-1.48105 -0.66137,-1.67431 -0.23013,-1.14303 -0.41466,-1.24031 -0.83916,-0.44236 -0.46083,0.86622 -0.69257,3.57187 -0.30594,3.57187 0.13192,0 0.23985,0.19532 0.23985,0.43404 0,0.68113 1.12619,2.76238 1.43871,2.65878 0.15459,-0.0512 0.37314,-0.61927 0.48566,-1.26227 z m -29.17646,-0.78153 c 0,-0.35041 -0.35829,-0.32031 -0.74083,0.0622 -0.49942,0.49943 -0.37111,0.78814 0.21167,0.47625 0.29104,-0.15576 0.52916,-0.39807 0.52916,-0.53847 z m 6.21771,-0.25527 c -0.40928,-0.45225 -1.45521,-0.75306 -1.45521,-0.41851 0,0.57897 0.43873,0.94768 1.12765,0.94768 0.78969,0 0.7965,-0.011 0.32756,-0.52917 z m 1.98438,-0.52917 c 0,-0.14552 -0.18562,-0.26458 -0.41249,-0.26458 -0.22687,0 -0.33891,0.11906 -0.24897,0.26458 0.0899,0.14552 0.27556,0.26459 0.41249,0.26459 0.13693,0 0.24897,-0.11907 0.24897,-0.26459 z m 2.77812,-1.05833 c 0.0899,-0.14552 0.0374,-0.26458 -0.11667,-0.26458 -0.15411,0 -0.2802,0.11906 -0.2802,0.26458 0,0.14552 0.0525,0.26458 0.11667,0.26458 0.0642,0 0.19027,-0.11906 0.2802,-0.26458 z m 23.3044,-0.2305 c -0.0784,-0.12677 0.13119,-0.77102 0.46564,-1.43166 0.57594,-1.13761 0.58761,-1.26538 0.22059,-2.41533 -0.21313,-0.66779 -0.49625,-1.21417 -0.62916,-1.21417 -0.13291,0 -0.16635,-0.12185 -0.0743,-0.27077 0.17326,-0.28034 -0.40931,-1.8459 -0.6869,-1.8459 -0.0864,0 -0.37054,0.62817 -0.63151,1.39592 -0.40515,1.19195 -0.43001,1.6033 -0.17012,2.81512 0.35047,1.63419 1.03402,3.19729 1.39818,3.19729 0.13752,0 0.18594,-0.10373 0.10759,-0.2305 z m -26.34711,-1.2247 c 0.49311,-0.36381 1.11155,-0.66146 1.37432,-0.66146 0.6769,0 0.59231,-0.40066 -0.21937,-1.03913 -0.92257,-0.72569 -2.36177,-0.73051 -2.74779,-0.009 -0.29277,0.54704 -0.14645,1.43912 0.33471,2.04053 0.33018,0.4127 0.20634,0.44525 1.25813,-0.33073 z m 3.3073,-0.27279 c -0.89734,-0.73554 -1.43622,-0.8711 -0.90148,-0.22678 0.30794,0.37105 1.16524,0.84834 1.56293,0.87016 0.0728,0.004 -0.22489,-0.28553 -0.66145,-0.64338 z m 4.88849,-1.66908 0.80024,-0.48665 -0.69117,-0.31492 c -0.80537,-0.36695 -1.42569,-0.0226 -1.42569,0.79146 0,0.62378 0.30369,0.62611 1.31662,0.0101 z m 24.46084,-2.44143 c -0.0131,-0.88572 -0.19612,-1.55244 -0.56205,-2.04739 -0.29846,-0.40368 -0.63081,-1.14598 -0.73856,-1.64956 -0.32313,-1.51012 -0.5934,-1.81954 -0.8157,-0.93384 -0.40767,1.62429 1.1673,6.91386 1.8539,6.22639 0.155,-0.1552 0.27309,-0.87322 0.26241,-1.5956 z m -4.37399,-1.10681 c 0.55968,-2.14743 0.63681,-3.2558 0.29801,-4.28238 -0.38317,-1.16101 -0.66014,-1.18614 -1.21643,-0.1104 -0.54675,1.05729 -0.56681,3.82786 -0.0316,4.36308 0.10123,0.10122 0.18405,0.46186 0.18405,0.8014 0,1.06612 0.38917,0.67404 0.76597,-0.7717 z m 5.63124,-1.45521 c 0.4657,-1.13445 0.51449,-1.42212 0.50466,-2.9754 -0.0111,-1.75112 -0.24067,-2.91157 -0.57602,-2.91157 -0.13847,0 -0.17446,-0.45167 -0.082,-1.02961 0.0906,-0.56629 0.0417,-1.24921 -0.10847,-1.51762 -0.2446,-0.43708 -0.29277,-0.40557 -0.46163,0.30201 -0.10369,0.4345 -0.33772,0.9686 -0.52006,1.18688 -0.58684,0.70251 -0.92866,2.98904 -0.61733,4.12941 0.15466,0.56648 0.39813,1.17358 0.54105,1.34911 0.14292,0.17552 0.18813,0.43519 0.10047,0.57703 -0.0877,0.14184 -0.0384,0.33267 0.10951,0.42408 0.1479,0.0914 0.2689,0.39728 0.2689,0.67974 0,0.75245 0.49602,0.6262 0.84096,-0.21406 z m 3.19394,-0.95085 c 0.49431,-1.50535 0.61062,-3.22617 0.2338,-3.45906 -0.29207,-0.18051 -0.97626,0.59195 -1.21339,1.36994 -0.20128,0.66037 0.0819,3.50412 0.34862,3.50108 0.0924,-0.001 0.37631,-0.63644 0.63097,-1.41196 z m -1.74696,-5.11763 c -0.36582,-0.36582 -0.66762,0.24167 -0.36429,0.7333 0.32156,0.52119 0.32632,0.52079 0.41283,-0.035 0.0481,-0.30923 0.0263,-0.62348 -0.0485,-0.69831 z m 9.61831,0.44609 c 0,-0.14552 -0.20836,-0.26276 -0.46302,-0.26053 -0.3957,0.004 -0.40531,0.0413 -0.0661,0.26053 0.49932,0.32269 0.52916,0.32269 0.52916,0 z m -97.03594,37.39295 c -0.49751,-0.19677 -0.39738,-0.8777 0.13229,-0.8996 1.78386,-0.0737 3.21568,-0.32684 3.90261,-0.68988 0.29104,-0.15382 1.00541,-0.42208 1.5875,-0.59614 1.45442,-0.43493 3.09524,-1.11435 3.57187,-1.47903 0.21828,-0.16701 0.8136,-0.46428 1.32292,-0.6606 0.50932,-0.19631 1.34063,-0.63264 1.84736,-0.96961 1.12684,-0.74936 1.32764,-0.76199 1.32764,-0.0835 0,0.29104 -0.10168,0.52916 -0.22595,0.52916 -0.12427,0 -0.54712,0.29766 -0.93967,0.66146 -0.39255,0.3638 -0.88619,0.66146 -1.09697,0.66146 -0.21078,0 -0.38324,0.11533 -0.38324,0.25628 0,0.14095 -0.17759,0.18813 -0.39465,0.10484 -0.21777,-0.0836 -0.46186,0.0237 -0.54462,0.23939 -0.0825,0.21495 -0.6788,0.60891 -1.32514,0.87544 -0.64635,0.26654 -1.17518,0.56406 -1.17518,0.66115 0,0.0971 -0.50601,0.26795 -1.12448,0.37969 -0.61846,0.11175 -1.24354,0.23505 -1.38906,0.274 -0.14552,0.0389 -1.09802,0.2052 -2.11667,0.36944 -1.01864,0.16424 -2.03067,0.34321 -2.24895,0.39774 -0.21829,0.0545 -0.54571,0.0403 -0.72761,-0.0317 z m -12.19372,-2.44122 c -0.38769,-0.23961 -0.014,-1.44486 0.6888,-2.22141 0.5666,-0.62609 2.01105,-1.30104 2.62039,-1.22443 0.26621,0.0335 0.6626,-0.007 0.88089,-0.09 0.21828,-0.083 0.72009,-0.22155 1.11514,-0.30795 0.50483,-0.11041 0.67219,-0.27714 0.56322,-0.56112 -0.0853,-0.22222 0.0653,-0.64755 0.3347,-0.94518 0.80176,-0.88595 1.94103,-1.20719 3.8521,-1.08621 1.67099,0.10578 1.76876,0.08 1.85208,-0.48897 0.0585,-0.39939 0.35392,-0.68212 0.88171,-0.84382 0.43657,-0.13375 1.32953,-0.48882 1.98438,-0.78904 1.41459,-0.64855 4.84959,-0.73049 5.4498,-0.13 0.11113,0.11118 0.50796,-0.0826 0.88185,-0.43055 1.18476,-1.10266 4.61985,-2.00235 5.6139,-1.47035 1.03726,0.55512 -0.0942,1.08281 -2.90689,1.35572 -0.19472,0.0189 -0.4575,0.30647 -0.58394,0.63905 -0.24941,0.65599 -1.50419,1.42378 -2.32685,1.42378 -0.28215,0 -0.77277,-0.21035 -1.09028,-0.46745 -0.58408,-0.47297 -0.67912,-0.47317 -4.50842,-0.01 -1.09713,0.13284 -1.78608,1.00613 -0.79375,1.00613 0.65213,0 0.69697,0.68812 0.0661,1.01521 -0.25466,0.13205 -1.87387,0.29964 -3.59825,0.37243 -2.9464,0.12437 -3.1771,0.17421 -3.83044,0.82756 l -0.69522,0.69521 0.92003,0.0314 c 0.50601,0.0172 1.06885,0.012 1.25076,-0.0116 0.1819,-0.0236 0.33073,0.14087 0.33073,0.36553 0,0.24338 -0.24061,0.4137 -0.59532,0.42141 -2.07316,0.045 -4.87985,0.33123 -5.26385,0.53675 -0.24888,0.13319 -0.61667,0.17917 -0.81732,0.10217 -0.2366,-0.0908 -0.57429,0.27942 -0.96078,1.05329 -0.67555,1.35266 -0.85226,1.51818 -1.31531,1.23201 z m 33.02966,-0.10168 c 0,-0.18674 1.39898,-1.66559 3.10885,-3.28634 4.99593,-4.73553 8.26823,-8.0166 8.26823,-8.29041 0,-0.14 0.23813,-0.25456 0.52917,-0.25456 0.29104,0 0.52917,0.13635 0.52917,0.30299 0,0.61867 -1.41656,2.49857 -2.41146,3.20023 -0.56547,0.3988 -1.02813,0.8989 -1.02813,1.11134 0,0.21242 -0.16609,0.48144 -0.36908,0.59782 -0.46386,0.26591 -2.90546,2.40194 -4.94372,4.325 -2.54549,2.40161 -3.68303,3.11012 -3.68303,2.29393 z m -5.55625,-0.61276 c 0,-0.2388 2.61585,-2.75188 2.86442,-2.75188 0.11875,0 1.00948,-0.78195 1.9794,-1.73766 1.64362,-1.61954 2.32862,-1.95187 2.1987,-1.06666 -0.0496,0.33786 -1.211,1.5284 -3.7252,3.81863 -0.60426,0.55044 -1.12549,0.82171 -1.38647,0.72155 -0.33528,-0.12866 -0.35664,-0.0863 -0.10772,0.21363 0.25226,0.30395 0.15265,0.42911 -0.53123,0.66751 -0.94816,0.33053 -1.2919,0.36642 -1.2919,0.13488 z m 50.8,-7.91126 c 0,-0.21828 0.11906,-0.39687 0.26458,-0.39687 0.14553,0 0.26459,0.17859 0.26459,0.39687 0,0.21829 -0.11906,0.39688 -0.26459,0.39688 -0.14552,0 -0.26458,-0.17859 -0.26458,-0.39688 z m 11.85913,-4.5028 c -0.25681,-0.56659 -0.32054,-0.98974 -0.16368,-1.08668 0.15943,-0.0985 0.16301,-0.25268 0.009,-0.40625 -0.30161,-0.30162 0.20206,-2.38251 0.54871,-2.26696 0.27823,0.0927 0.42216,2.57415 0.14931,2.57415 -0.10236,0 -0.0519,0.35553 0.11211,0.79006 0.45865,1.2151 -0.1249,1.56715 -0.65588,0.39568 z m -45.19663,-0.92115 c 0,-0.14552 0.12609,-0.26459 0.2802,-0.26459 0.15411,0 0.20661,0.11907 0.11667,0.26459 -0.0899,0.14553 -0.21602,0.26458 -0.28019,0.26458 -0.0642,0 -0.11668,-0.11905 -0.11668,-0.26458 z m 69.18854,-17.72708 c 0.0899,-0.14552 0.21603,-0.26458 0.2802,-0.26458 0.0642,0 0.11668,0.11906 0.11668,0.26458 0,0.14552 -0.12609,0.26458 -0.2802,0.26458 -0.15411,0 -0.20661,-0.11906 -0.11668,-0.26458 z"
       id="path27" />
  </g>
</svg>
