<?xml version="1.0" encoding="UTF-8" standalone="no"?>
<!-- Created with Inkscape (http://www.inkscape.org/) -->

<svg
   width="129.81177mm"
   height="48.557621mm"
   viewBox="0 0 129.81176 48.557625"
   version="1.1"
   id="svg1"
   inkscape:version="1.4.1-rc (06eac75fbf, 2025-03-29)"
   sodipodi:docname="mount11.svg"
   xmlns:inkscape="http://www.inkscape.org/namespaces/inkscape"
   xmlns:sodipodi="http://sodipodi.sourceforge.net/DTD/sodipodi-0.dtd"
   xmlns="http://www.w3.org/2000/svg"
   xmlns:svg="http://www.w3.org/2000/svg">
  <sodipodi:namedview
     id="namedview1"
     pagecolor="#ffffff"
     bordercolor="#000000"
     borderopacity="0.25"
     inkscape:showpageshadow="2"
     inkscape:pageopacity="0.0"
     inkscape:pagecheckerboard="0"
     inkscape:deskcolor="#d1d1d1"
     inkscape:document-units="mm"
     inkscape:zoom="0.72248176"
     inkscape:cx="244.98888"
     inkscape:cy="92.043846"
     inkscape:window-width="1850"
     inkscape:window-height="1016"
     inkscape:window-x="0"
     inkscape:window-y="0"
     inkscape:window-maximized="1"
     inkscape:current-layer="layer1" />
  <defs
     id="defs1" />
  <g
     inkscape:label="Layer 1"
     inkscape:groupmode="layer"
     id="layer1"
     transform="translate(-41.010395,-123.82533)">
    <path
       style="fill:#000000"
       d="m 71.73574,172.10275 c 0,-0.15411 0.11906,-0.20662 0.26458,-0.11668 0.14552,0.0899 0.26459,0.21603 0.26459,0.2802 0,0.0642 -0.11907,0.11668 -0.26459,0.11668 -0.14552,0 -0.26458,-0.12609 -0.26458,-0.2802 z m -2.90973,-1.70598 c 0.76434,-2.01037 1.54978,-2.8701 4.63188,-5.06997 1.74258,-1.24378 2.89516,-1.9291 6.08306,-3.61697 1.44211,-0.76354 4.38588,-1.83024 4.56277,-1.65335 0.28837,0.28836 -0.49425,1.10124 -1.10926,1.15214 -0.38097,0.0315 -0.94937,0.29647 -1.26309,0.58874 -0.56083,0.52249 -0.83585,0.62962 -1.43271,0.55808 -0.16534,-0.0198 -0.36996,0.14467 -0.45471,0.36553 -0.0847,0.22086 -0.31398,0.40156 -0.50939,0.40156 -0.1954,0 -0.58701,0.20836 -0.87023,0.46302 -0.28322,0.25466 -1.2284,0.83444 -2.10041,1.2884 -0.87201,0.45395 -1.703,1.07903 -1.84664,1.38906 -0.14365,0.31003 -0.49329,0.56369 -0.77698,0.56369 -0.29756,0 -1.38294,0.89556 -2.56529,2.11666 -2.14205,2.21226 -2.78992,2.61312 -2.349,1.45341 z m -7.14444,-0.78264 c 0,-0.51444 0.0893,-0.9376 0.19844,-0.94035 0.10914,-0.003 0.54725,-0.57427 0.97358,-1.27004 0.42633,-0.69578 1.31053,-1.6758 1.96491,-2.17782 0.65437,-0.50202 1.31759,-1.03954 1.47381,-1.19449 0.15623,-0.15494 0.52218,-0.43035 0.81322,-0.61201 0.48534,-0.30293 0.4689,-0.31753 -0.19844,-0.17626 -1.04233,0.22066 -0.90281,-0.26797 0.29185,-1.02213 1.37793,-0.86985 7.599,-3.89226 7.88225,-3.82947 0.12454,0.0276 0.70268,-0.16094 1.28476,-0.41899 1.88885,-0.83737 2.36844,-1.00478 3.17484,-1.10823 0.43647,-0.056 1.25988,-0.33251 1.8298,-0.61448 0.56992,-0.28197 1.14075,-0.44807 1.26852,-0.3691 0.12778,0.079 0.39153,0.0114 0.58614,-0.15007 0.45067,-0.37403 3.13658,-1.08242 4.51779,-1.19155 0.99384,-0.0785 5.13493,-1.42024 5.42396,-1.75738 0.21375,-0.24933 3.11371,-1.56548 3.44933,-1.56548 0.16891,0 0.63466,-0.32742 1.03499,-0.7276 0.40033,-0.40019 1.04954,-0.94615 1.44269,-1.21325 0.59527,-0.40444 0.65931,-0.55252 0.38296,-0.88551 -0.27332,-0.32932 -0.24071,-0.4529 0.18482,-0.70061 0.28416,-0.16542 0.81266,-0.32752 1.17444,-0.36022 0.36178,-0.0327 0.69983,-0.18562 0.75123,-0.33982 0.0514,-0.15419 0.23958,-0.42706 0.41818,-0.60636 0.66703,-0.66966 1.25539,-1.76723 1.09042,-2.03416 -0.0939,-0.15192 -0.46688,-0.27622 -0.82886,-0.27622 -0.47071,0 -0.78651,0.24174 -1.10886,0.8488 -0.2479,0.46683 -0.77814,1.19037 -1.17832,1.60785 -0.40019,0.41748 -0.72761,0.82351 -0.72761,0.9023 0,0.0788 -0.38658,0.48076 -0.85906,0.89329 -0.95107,0.83037 -1.6325,0.64216 -1.0503,-0.29009 0.49012,-0.78482 -0.0783,-0.63083 -1.00105,0.27118 -0.4466,0.43657 -0.91248,0.79375 -1.03528,0.79375 -0.12281,0 -0.7285,0.65485 -1.34597,1.45521 -1.11876,1.45012 -1.12776,1.45521 -2.57188,1.45521 -0.79706,0 -1.88391,0.19073 -2.41522,0.42385 -0.53132,0.23312 -1.20415,0.52832 -1.4952,0.656 -0.29104,0.12768 -0.85658,0.35072 -1.25677,0.49564 -0.40018,0.14492 -0.7276,0.38469 -0.7276,0.53281 0,0.16358 -0.6492,0.23391 -1.65365,0.17914 -0.9095,-0.0496 -1.62388,-0.16783 -1.5875,-0.26276 0.0364,-0.0949 0.0661,-0.26357 0.0661,-0.37476 0,-0.3267 2.05227,-1.12075 2.89662,-1.12075 0.42698,0 0.8499,-0.11907 0.93984,-0.26459 0.15739,-0.25466 -0.24298,-0.39031 -0.79375,-0.26894 -1.7163,0.37822 -3.24553,0.89964 -3.61251,1.23176 -0.28522,0.25812 -0.72905,0.35859 -1.19837,0.27128 -0.40995,-0.0763 -1.27656,0.002 -1.9258,0.17351 -0.91806,0.2428 -1.21465,0.45921 -1.33439,0.97364 -0.13755,0.59091 -0.35102,0.69116 -2.00137,0.9399 -1.01607,0.15313 -2.02294,0.38824 -2.23748,0.52246 -0.21455,0.13422 -0.68774,0.28394 -1.05154,0.33271 -0.3638,0.0488 -0.92516,0.26015 -1.24746,0.46972 -0.32231,0.20958 -0.80987,0.38105 -1.08348,0.38105 -0.2736,0 -0.70869,0.2334 -0.96685,0.51866 -0.25816,0.28527 -0.54451,0.50929 -0.63632,0.49784 -0.0918,-0.0115 -0.22647,0.002 -0.29923,0.0307 -0.0728,0.0284 -0.34657,0.0923 -0.60846,0.14214 -0.2619,0.0498 -0.66477,0.24906 -0.89528,0.44278 -0.23051,0.19371 -0.90145,0.59033 -1.49098,0.88137 -0.58952,0.29104 -1.19868,0.75879 -1.35367,1.03944 -0.43979,0.79632 -1.58088,1.72517 -1.82568,1.4861 -0.68072,-0.66477 2.26074,-3.59645 5.00115,-4.98453 1.24246,-0.62934 2.00088,-1.37747 1.39641,-1.37747 -0.20375,0 -0.57436,0.23813 -0.82355,0.52917 -0.2492,0.29104 -0.7247,0.52917 -1.05666,0.52917 -0.53755,0 -3.61809,1.98429 -4.71547,3.03741 -0.23049,0.2212 -0.53644,0.40217 -0.67989,0.40217 -0.14345,0 -0.50747,0.26789 -0.80892,0.59531 -0.30146,0.32743 -1.03766,0.88737 -1.63601,1.24432 -0.72707,0.43374 -1.04432,0.78631 -0.9565,1.06299 0.0961,0.30295 -0.38267,0.66031 -1.78515,1.3323 -1.0541,0.50507 -2.06537,0.90316 -2.24727,0.88464 -0.1819,-0.0185 -0.33073,0.13168 -0.33073,0.3338 0,0.20211 -0.23813,0.36747 -0.52917,0.36747 -0.29104,0 -0.50056,0.0893 -0.46559,0.19844 0.035,0.10914 -0.32556,0.61516 -0.80117,1.12448 -0.47561,0.50932 -1.21063,1.34276 -1.63338,1.85208 -0.61517,0.74114 -0.8353,0.86028 -1.10247,0.59668 -0.46521,-0.45899 0.003,-1.71188 0.7652,-2.04848 0.32537,-0.14365 0.59158,-0.38177 0.59158,-0.52917 10e-6,-0.14739 0.41701,-0.60071 0.92668,-1.00738 0.50967,-0.40666 1.15926,-1.18057 1.44353,-1.71979 0.70902,-1.34489 2.04437,-2.78292 2.38737,-2.57094 0.15543,0.0961 0.25441,0.0765 0.21995,-0.0434 -0.0984,-0.34234 0.67164,-1.40873 1.01719,-1.40873 0.17115,0 0.35087,-0.0947 0.39937,-0.21049 0.0485,-0.11577 0.71328,-0.61207 1.47726,-1.10289 0.76399,-0.49082 1.38906,-0.99141 1.38906,-1.11243 0,-0.12101 0.18342,-0.22002 0.40759,-0.22002 0.46401,0 1.97366,-1.04829 1.97366,-1.3705 0,-0.34453 -6.38199,2.95684 -7.58515,3.92376 -0.60657,0.48748 -1.29118,0.88632 -1.52135,0.88632 -0.23017,0 -0.4185,0.17057 -0.4185,0.37905 0,0.20847 -0.21236,0.44644 -0.47192,0.52882 -0.25955,0.0824 -0.66661,0.47736 -0.90457,0.87773 -0.76456,1.28639 -1.99711,2.24307 -3.57085,2.77163 -0.84422,0.28354 -1.90953,0.79953 -2.36734,1.14664 -0.68357,0.51827 -2.45815,1.14026 -3.3348,1.16883 -0.55827,0.0182 -0.0632,-0.57965 0.99219,-1.19814 0.87035,-0.51006 1.19063,-0.86345 1.19063,-1.31372 0,-0.58153 1.3709,-2.24417 1.85038,-2.24417 0.1222,0 0.26187,-0.10868 0.31038,-0.24152 0.12071,-0.33055 4.11748,-2.6689 4.56176,-2.6689 0.42638,0 2.68196,-1.06812 4.52227,-2.14151 0.7276,-0.42439 1.73963,-0.97936 2.24896,-1.23328 0.50932,-0.25392 0.98557,-0.53695 1.05833,-0.62896 0.21459,-0.27138 2.61273,-1.02333 3.26362,-1.02333 0.32961,0 0.73343,0.13413 0.89736,0.29807 0.22104,0.22103 0.61942,0.11846 1.54145,-0.39688 0.68386,-0.38222 1.46652,-0.69494 1.73923,-0.69494 0.32732,0 0.49584,-0.18884 0.49584,-0.55563 0,-0.48967 0.73094,-1.3228 2.51354,-2.86496 0.29104,-0.25178 1.42214,-0.84631 2.51354,-1.32117 1.09141,-0.47486 2.37851,-1.16157 2.86023,-1.52602 1.59701,-1.20827 4.08181,-1.87486 7.66998,-2.05762 3.50553,-0.17856 5.30834,-0.41762 6.31213,-0.83703 0.54503,-0.22773 1.57799,-0.47716 2.29546,-0.55429 1.39804,-0.15029 2.07773,-0.43325 3.02106,-1.25769 0.55726,-0.48701 0.84942,-1.12012 0.38425,-0.83262 -0.11609,0.0718 -0.37925,0.0265 -0.5848,-0.10053 -0.59286,-0.36641 0.36234,-1.23627 1.38963,-1.26548 1.03479,-0.0294 2.29874,-1.39953 2.30954,-2.50352 0.004,-0.43332 0.15254,-0.72761 0.36668,-0.72761 0.19776,0 0.7633,-0.4902 1.25677,-1.08933 0.49346,-0.59914 1.71039,-1.92089 2.70429,-2.93722 1.45185,-1.48463 1.93138,-1.82412 2.43939,-1.72701 0.34777,0.0665 0.57387,0.0263 0.50245,-0.0892 -0.0714,-0.11556 0.0221,-0.30672 0.20787,-0.4248 0.18575,-0.11808 0.80457,-1.14667 1.37516,-2.28575 1.08472,-2.16546 2.25715,-3.34723 4.18559,-4.21894 0.94165,-0.42566 1.03319,-0.42395 1.78499,0.0332 0.43584,0.26505 0.7072,0.56715 0.60302,0.67133 -0.10418,0.10418 0.0153,0.11086 0.26553,0.0148 0.25023,-0.096 0.45496,-0.34044 0.45496,-0.54315 0,-0.20271 0.13364,-0.36857 0.29698,-0.36857 0.1988,0 0.18256,-0.13786 -0.0491,-0.41704 -0.43297,-0.52169 0.0195,-0.8752 1.20736,-0.94324 0.43656,-0.025 1.15094,-0.0892 1.5875,-0.14257 1.36241,-0.16667 2.32076,-0.0813 3.47137,0.30939 1.00543,0.34135 1.20475,0.33142 2.10138,-0.10471 0.75449,-0.36699 1.49789,-0.46614 3.11902,-0.41602 1.85237,0.0573 2.19176,0.14403 2.61687,0.66902 0.26865,0.33177 0.42866,0.75904 0.35558,0.94949 -0.0731,0.19045 0.0557,0.45183 0.28627,0.58084 0.30024,0.16802 0.38726,0.50779 0.30673,1.19762 -0.0618,0.52968 -0.0173,0.96306 0.099,0.96306 0.1163,0 0.21146,0.15332 0.21146,0.34072 0,0.1874 0.35234,0.75294 0.78299,1.25677 0.43065,0.50383 0.78784,1.03624 0.79375,1.18313 0.006,0.1469 0.2535,0.41868 0.55019,0.60397 0.29669,0.18528 0.46281,0.46086 0.36915,0.6124 -0.0936,0.15153 0.0654,0.53459 0.35347,0.85124 0.28807,0.31665 0.71872,1.1764 0.95702,1.91056 0.50992,1.57099 1.10884,2.50162 1.60996,2.50162 0.19769,0 0.69657,0.35719 1.10862,0.79375 0.41204,0.43656 0.89838,0.79375 1.08076,0.79375 0.18237,0 0.33159,0.0958 0.33159,0.21288 0,0.11708 0.43057,0.68263 0.95683,1.25677 0.52625,0.57414 1.12157,1.27875 1.32291,1.56579 0.42016,0.59898 0.49801,2.76561 0.10151,2.82508 -0.80888,0.12133 -0.90689,0.0274 -0.9603,-0.91997 -0.0314,-0.55691 -0.24177,-1.40175 -0.46749,-1.87741 -0.39848,-0.83975 -2.60028,-2.7861 -3.1797,-2.81081 -0.15802,-0.007 -0.64449,-0.48201 -1.08106,-1.05617 -0.43656,-0.57416 -0.9889,-1.28601 -1.22742,-1.5819 -0.23852,-0.29588 -0.57578,-0.92193 -0.74946,-1.39122 -0.17367,-0.46928 -0.42587,-1.03184 -0.56043,-1.25012 -0.13456,-0.21828 -0.39123,-0.69453 -0.57037,-1.05833 -0.17915,-0.36381 -0.47594,-0.8188 -0.65954,-1.01109 -0.1836,-0.1923 -0.33382,-0.49744 -0.33382,-0.6781 0,-0.18066 -0.35295,-0.66663 -0.78434,-1.07993 -0.43139,-0.41329 -0.71879,-0.8575 -0.63868,-0.98713 0.0801,-0.12963 0.0316,-0.3793 -0.10772,-0.55482 -0.13936,-0.17553 -0.21872,-0.53402 -0.17636,-0.79665 0.0424,-0.26263 -0.15305,-0.99765 -0.43426,-1.63337 -0.40757,-0.92137 -0.68506,-1.19446 -1.36778,-1.34607 -0.93675,-0.20802 -3.23821,-0.18695 -3.95182,0.0362 -0.63061,0.19718 -0.28873,0.90722 0.43682,0.90722 0.83319,0 1.52515,0.85793 1.42159,1.76254 -0.10317,0.90133 -0.84082,1.02467 -0.96355,0.16112 -0.0461,-0.32444 -0.4033,-0.81546 -0.79375,-1.09114 -1.89377,-1.33714 -5.60471,-2.32296 -5.60471,-1.48891 0,0.24994 -0.26042,0.39182 -0.71918,0.39182 -0.45261,0 -0.94573,0.26365 -1.33038,0.7113 -0.60703,0.70644 -1.04101,1.84257 -0.79703,2.08655 0.26671,0.26671 1.59402,-0.45321 2.40164,-1.30264 1.0683,-1.12358 1.6802,-1.02069 1.06556,0.17917 -0.23642,0.46154 -0.50318,0.89869 -0.59279,0.97145 -0.2568,0.20851 -0.76143,1.8709 -0.96379,3.175 -0.10161,0.65484 -0.22537,1.40918 -0.27502,1.6763 -0.0497,0.26712 0.0832,0.99653 0.29516,1.62091 0.46257,1.36246 0.4351,3.21239 -0.0537,3.61808 -0.19435,0.16129 -0.35336,0.50222 -0.35336,0.75763 0,0.2554 -0.1654,0.60165 -0.36757,0.76943 -0.40821,0.33878 -0.73441,1.61182 -0.41301,1.61182 0.11241,0 0.50827,-0.38696 0.87969,-0.8599 0.37143,-0.47294 0.88803,-1.09802 1.148,-1.38906 0.46765,-0.52353 0.47361,-0.5211 0.55931,0.22856 0.0508,0.444 0.27529,0.80707 0.54228,0.87689 0.25061,0.0655 0.60396,0.35664 0.78523,0.64689 0.2767,0.44307 0.23929,0.67383 -0.23313,1.43822 -0.30949,0.50076 -0.49346,0.92536 -0.40883,0.94355 0.0846,0.0182 0.29277,0.048 0.46255,0.0661 0.67195,0.072 0.459,0.65765 -0.42983,1.18207 -0.51545,0.30412 -0.95207,0.73556 -0.97026,0.95875 -0.0182,0.22319 -0.053,0.49509 -0.0772,0.60424 -0.10532,0.47323 -1.08098,2.12745 -1.77802,3.01463 -0.41663,0.53027 -0.7575,1.08945 -0.7575,1.24263 0,0.36112 -2.70565,2.15888 -3.24913,2.15888 -0.22893,0 -0.45473,-0.17963 -0.50179,-0.39918 -0.0636,-0.29667 -0.35267,-0.16079 -1.12579,0.52917 -0.57214,0.51059 -1.19125,0.92834 -1.3758,0.92834 -0.18455,0 -0.84753,0.34223 -1.47329,0.7605 -0.62576,0.41827 -1.41011,0.84443 -1.74299,0.94702 -1.07869,0.33244 -2.70866,1.37212 -2.50417,1.59728 0.10945,0.1205 -0.005,0.1458 -0.25555,0.0562 -0.25,-0.0896 -0.52067,-0.0559 -0.60148,0.0748 -0.0808,0.13075 -0.6814,0.31789 -1.33464,0.41584 -0.65324,0.098 -1.24007,0.26283 -1.30407,0.36638 -0.064,0.10354 -0.74714,0.21544 -1.5181,0.24865 -0.77096,0.0332 -1.63987,0.0836 -1.93091,0.11194 -0.31689,0.0309 -0.52917,-0.10766 -0.52917,-0.34533 0,-0.23398 0.27149,-0.41683 0.66146,-0.4455 1.49218,-0.10968 2.84251,-0.47067 3.94201,-1.05385 0.64014,-0.33952 1.42,-0.61732 1.73302,-0.61732 0.31303,0 0.68225,-0.11284 0.82049,-0.25075 0.22064,-0.22011 1.28871,-0.82331 3.23801,-1.82867 0.76986,-0.39706 1.6497,-0.85766 2.30874,-1.20865 0.29309,-0.15609 0.90184,-0.54818 1.35278,-0.8713 0.45094,-0.32312 0.89575,-0.51164 0.98846,-0.41892 0.0927,0.0927 0.16857,-0.0299 0.16857,-0.2724 0,-0.24254 0.11907,-0.44098 0.26459,-0.44098 0.14552,0 0.26458,-0.13364 0.26458,-0.29698 0,-0.20386 -0.10369,-0.2131 -0.33073,-0.0295 -0.1819,0.14713 -1.10463,0.35259 -2.05052,0.45658 -0.94589,0.10399 -2.03625,0.22626 -2.42303,0.27171 -0.84739,0.0996 -1.8103,0.58497 -1.8103,0.91256 0,0.1306 -0.23813,0.31302 -0.52917,0.4054 -0.33532,0.10642 -0.52917,0.40032 -0.52917,0.80227 0,0.66448 -0.88882,1.3553 -1.56464,1.21607 -0.20571,-0.0424 -0.62243,0.048 -0.92604,0.20073 -1.12927,0.56824 -3.48201,1.35254 -4.05775,1.35267 -0.34245,7e-5 -0.59532,-0.16207 -0.59532,-0.38174 0,-0.44574 0.99443,-1.20513 1.58023,-1.20674 0.35936,-9.8e-4 0.93293,-0.26984 3.79705,-1.77986 0.41089,-0.21663 0.81058,-0.55938 0.88821,-0.76166 0.0776,-0.20228 0.27834,-0.36778 0.44605,-0.36778 0.16771,0 0.45364,-0.23813 0.63539,-0.52917 0.18176,-0.29104 0.47829,-0.53025 0.65896,-0.53157 0.18067,-0.001 0.60978,-0.35851 0.95358,-0.79375 0.3438,-0.43524 0.84982,-0.79135 1.12448,-0.79135 0.27466,0 0.49939,-0.17562 0.49939,-0.39026 0,-0.61195 -1.56571,-0.19141 -2.5889,0.69536 -0.478,0.41428 -1.1567,0.75324 -1.5082,0.75324 -0.35151,0 -0.73432,0.14882 -0.85069,0.33072 -0.23006,0.3596 -0.76479,0.71826 -2.19596,1.47289 -0.50933,0.26856 -1.35622,0.73532 -1.88198,1.03725 -0.52577,0.30193 -1.18061,0.66733 -1.45521,0.81202 -0.90953,0.47921 -3.93319,1.64032 -4.26958,1.63954 -0.18191,-4.2e-4 -0.33073,0.11533 -0.33073,0.25721 0,0.26673 1.42334,0.0897 2.0881,-0.25976 0.55151,-0.2899 1.33755,-0.005 1.17257,0.42474 -0.0958,0.24968 0.0504,0.3708 0.44758,0.3708 1.00417,0 0.15955,0.66984 -1.50465,1.1933 -1.22838,0.38637 -1.64685,0.41481 -2.35199,0.15982 -0.69852,-0.25258 -1.07134,-0.23119 -2.00833,0.11524 -0.63282,0.23397 -1.56729,0.52341 -2.07662,0.6432 -2.08163,0.48959 -5.15053,1.85949 -6.0869,2.71709 -0.292,0.26743 -0.92141,0.46302 -1.49002,0.46302 -1.05062,0 -2.74183,0.50972 -2.74183,0.82638 0,0.105 -0.41672,0.32844 -0.92604,0.49653 -0.50932,0.1681 -0.92605,0.41545 -0.92605,0.54969 0,0.13423 -0.18715,0.24406 -0.4159,0.24406 -0.58715,0 -2.68133,1.26781 -2.85901,1.73083 -0.0814,0.21221 -0.39167,0.38584 -0.68942,0.38584 -0.3116,0 -0.73622,0.32032 -1.00049,0.75475 -0.483,0.79398 -2.3561,2.94942 -2.56309,2.94942 -0.0665,0 -0.41861,0.29765 -0.78241,0.66146 -1.3983,1.3983 -1.49666,0.6335 -0.182,-1.41522 1.83879,-2.86552 6.63536,-6.33468 10.29259,-7.44422 0.97439,-0.29562 2.00974,-0.64358 2.30078,-0.77326 0.29104,-0.12967 0.90757,-0.37775 1.37005,-0.55128 0.46249,-0.17353 0.90524,-0.48321 0.98389,-0.68816 0.0786,-0.20496 0.40617,-0.37266 0.72783,-0.37266 0.75656,0 2.34219,-0.57334 2.34219,-0.8469 0,-0.11628 0.16492,-0.21143 0.36649,-0.21143 0.55154,0 3.16744,-0.84776 3.46997,-1.12454 0.4176,-0.38207 -2.36252,0.0428 -4.02665,0.61529 -0.81408,0.28009 -1.69964,0.50925 -1.9679,0.50925 -0.26826,0 -0.48774,0.11906 -0.48774,0.26458 0,0.14553 -0.33735,0.26459 -0.74966,0.26459 -0.41231,0 -0.83895,0.0893 -0.94809,0.19844 -0.10914,0.10914 -0.27781,0.20872 -0.37482,0.22128 -0.097,0.0126 -0.35499,0.0919 -0.57327,0.17634 -0.61249,0.23688 -1.94222,0.56462 -2.35957,0.58157 -0.20636,0.008 -0.42464,0.16356 -0.48507,0.34484 -0.0604,0.18129 -0.23078,0.32961 -0.37857,0.32961 -0.14778,0 -0.67687,0.19369 -1.17576,0.43043 -0.69106,0.32793 -0.8696,0.54845 -0.74976,0.92604 0.12587,0.39658 0.0216,0.49561 -0.52198,0.49561 -0.37361,0 -0.90888,0.20836 -1.18949,0.46302 -0.98148,0.89072 -1.32251,1.1237 -2.32062,1.58537 -0.5531,0.25584 -1.16122,0.67351 -1.35137,0.92818 -0.19016,0.25466 -0.50372,0.46302 -0.69682,0.46302 -0.1931,0 -0.78135,0.47625 -1.30722,1.05833 -0.52588,0.58208 -1.04985,1.05833 -1.16437,1.05833 -0.11453,0 -0.41922,0.35719 -0.67711,0.79375 -0.25788,0.43657 -0.64074,0.79375 -0.85079,0.79375 -0.22954,0 -0.38192,0.26021 -0.38192,0.65215 0,0.38136 -0.21972,0.76974 -0.52917,0.93535 -0.48278,0.25838 -0.52916,0.20122 -0.52916,-0.65215 z M 46.1018,165.22356 c 0.58735,-0.29964 1.38627,-0.508 1.7754,-0.46302 0.5988,0.0692 0.81928,-0.10986 1.4351,-1.16562 0.40018,-0.68607 0.72761,-1.29936 0.72761,-1.36287 0,-0.0635 -0.4154,-0.1037 -0.9231,-0.0893 -0.5077,0.0144 -0.80788,0.0974 -0.66706,0.18439 0.26263,0.16232 -0.60997,1.05998 -1.03039,1.05998 -0.12829,0 -0.29834,0.1696 -0.37788,0.37688 -0.0795,0.20729 -0.55932,0.57367 -1.06617,0.81419 -0.50686,0.24051 -0.98656,0.6067 -1.06601,0.81374 -0.18961,0.49413 -0.0741,0.47782 1.1925,-0.16836 z m 9.43866,-1.80599 c 0.30021,-0.37375 0.37179,-0.37725 0.59611,-0.0292 0.1978,0.30694 0.23993,0.2527 0.18799,-0.24202 -0.0507,-0.48339 0.22102,-0.85861 1.12368,-1.55137 0.65484,-0.50256 1.23335,-1.02841 1.28556,-1.16855 0.12809,-0.34377 -0.91083,0.25809 -2.25613,1.30701 -0.60657,0.47294 -1.23868,0.8599 -1.40468,0.8599 -0.166,0 -0.23192,0.11308 -0.1465,0.2513 0.0854,0.13822 -0.0895,0.38232 -0.38867,0.54245 -0.29919,0.16012 -0.47731,0.39902 -0.39581,0.53088 0.19389,0.31371 0.96662,0.0372 1.39845,-0.50042 z m 4.72196,-4.06678 c 0.15762,-0.26239 0.11534,-0.26256 -0.20805,-8.7e-4 -0.22322,0.18064 -0.46949,0.2648 -0.54727,0.18703 -0.0778,-0.0778 -0.21296,0.0451 -0.30043,0.273 -0.12965,0.33788 -0.0651,0.36415 0.34946,0.14228 0.27966,-0.14967 0.59749,-0.42032 0.70629,-0.60144 z m 10.47329,-3.73784 c 0.7683,-0.34673 1.6648,-0.71194 1.99222,-0.81158 0.32742,-0.0996 0.59531,-0.28537 0.59531,-0.41273 0,-0.51738 -4.22829,0.93982 -4.63458,1.59722 -0.27279,0.44138 0.59164,0.28391 2.04705,-0.37291 z m 18.2641,0.1906 c -0.1819,-0.0734 -0.47956,-0.0734 -0.66146,0 -0.1819,0.0734 -0.0331,0.13345 0.33073,0.13345 0.3638,0 0.51263,-0.0601 0.33073,-0.13345 z m -14.27819,-1.78829 c 0.3223,-0.20681 1.21108,-0.5777 1.97506,-0.8242 0.76399,-0.24651 1.38906,-0.55355 1.38906,-0.68232 0,-0.41333 -0.81496,-0.25153 -2.07767,0.4125 -0.67629,0.35565 -1.43798,0.7091 -1.69264,0.78545 -0.25466,0.0763 -0.46302,0.26161 -0.46302,0.4117 0,0.3647 0.17191,0.3443 0.86921,-0.10313 z m -6.55838,-0.63884 c -0.18921,-0.18922 -0.92542,0.19235 -0.92542,0.47963 0,0.17414 0.18983,0.15658 0.51714,-0.0478 0.28442,-0.17762 0.46815,-0.37194 0.40828,-0.4318 z m 5.17323,-0.83559 c 0.22556,-9e-4 0.54622,-0.13775 0.71259,-0.30412 0.16637,-0.16637 0.63668,-0.34368 1.04511,-0.39401 0.40844,-0.0503 1.21887,-0.19247 1.80095,-0.31586 l 1.05833,-0.22435 -1.00668,-0.20756 c -1.35392,-0.27916 -3.16083,-0.0102 -5.51048,0.82036 -2.38632,0.84348 -2.92929,1.27625 -1.35425,1.07939 0.61844,-0.0773 1.186,-0.0409 1.26126,0.0808 0.0752,0.12177 0.46222,0.0516 0.85994,-0.15584 0.39772,-0.20748 0.90767,-0.37796 1.13323,-0.37886 z m 17.47839,-2.41975 c 1.62386,-0.86551 1.87553,-1.17598 1.09536,-1.3513 -0.46757,-0.10508 -3.04493,1.13933 -3.76086,1.81583 -0.75944,0.71761 1.03398,0.40506 2.6655,-0.46453 z m -4.00873,-0.40926 c 1.08577,-0.56716 1.74133,-1.05302 1.56654,-1.16104 -0.1653,-0.10216 -0.21694,-0.34789 -0.11474,-0.54606 0.1156,-0.22418 0.0534,-0.20809 -0.16454,0.0426 -0.1927,0.22159 -1.15588,0.79551 -2.14041,1.27537 -0.98453,0.47987 -1.72164,0.98317 -1.63803,1.11846 0.23898,0.38667 0.50234,0.30957 2.49118,-0.72931 z m -6.64787,-0.1976 c 0.0679,-0.33994 -0.078,-0.42321 -0.63371,-0.36192 -0.40318,0.0445 -0.77301,-0.0663 -0.83774,-0.25098 -0.13616,-0.38838 0.14159,-0.49573 1.89102,-0.73091 1.57796,-0.21213 1.14271,-0.65476 -0.47527,-0.48334 -1.59332,0.16881 -3.10314,0.65267 -3.95846,1.2686 l -0.75102,0.54082 1.41248,0.2915 c 1.91468,0.39513 3.24079,0.28685 3.3527,-0.27377 z m 1.63165,0.11456 c 0,-0.14552 -0.0525,-0.26458 -0.11668,-0.26458 -0.0642,0 -0.19026,0.11906 -0.28019,0.26458 -0.0899,0.14552 -0.0374,0.26458 0.11667,0.26458 0.15411,0 0.2802,-0.11906 0.2802,-0.26458 z m 30.69167,-0.13229 c 0.18985,-0.22876 0.21557,-0.39688 0.0607,-0.39688 -0.14777,0 -0.33721,0.1786 -0.42097,0.39688 -0.0838,0.21828 -0.11108,0.39687 -0.0607,0.39687 0.0504,0 0.23981,-0.17859 0.42097,-0.39687 z m -29.10417,-0.42774 c 0,-0.27661 -0.0844,-0.28625 -0.63982,-0.0731 -0.6075,0.23313 -0.51418,0.60863 0.11066,0.44523 0.29104,-0.0761 0.52916,-0.24355 0.52916,-0.3721 z m 23.38861,-0.0903 c 0.16038,-0.28489 0.44043,-0.68035 0.62233,-0.87879 0.43752,-0.4773 0.41746,-0.60426 -0.0662,-0.41868 -0.21828,0.0838 -0.39687,0.22955 -0.39687,0.32398 0,0.0944 -0.35719,0.32979 -0.79375,0.52303 -0.43657,0.19325 -0.79375,0.52825 -0.79375,0.74445 0,0.56383 1.06917,0.34374 1.42818,-0.29399 z m 3.86348,-0.54034 c 0.50932,-0.19614 0.8301,-0.36567 0.71285,-0.37674 -0.11726,-0.0111 0.12087,-0.31402 0.52916,-0.67323 l 0.74236,-0.6531 -0.66146,-0.0388 c -1.25608,-0.0737 -1.70594,0.0776 -2.30674,0.77619 -0.64559,0.75062 -0.70313,0.91035 -0.42728,1.1862 0.22246,0.22246 0.28713,0.21236 1.41111,-0.22049 z m -18.91771,-1.62605 c 0.43656,-0.37454 0.64104,-0.59896 0.4544,-0.49871 -0.59987,0.32221 -1.8968,0.63454 -1.87147,0.4507 0.076,-0.55197 -0.0827,-0.61512 -0.41246,-0.16412 -0.27798,0.38015 -0.295,0.56238 -0.0661,0.70798 0.54113,0.34427 1.08104,0.20305 1.89567,-0.49585 z m 3.22409,0.12473 c 0.3368,-0.31641 0.61054,-0.7629 0.60831,-0.99219 -0.003,-0.26833 -0.0733,-0.3122 -0.19843,-0.12309 -0.10692,0.1616 -0.57379,0.48817 -1.03751,0.72572 -1.08831,0.55752 -1.33258,0.96484 -0.57861,0.96484 0.32663,0 0.86944,-0.25888 1.20624,-0.57528 z m 19.40108,-0.0897 c 0.40687,-0.4331 0.53451,-0.75515 0.36607,-0.92359 -0.34221,-0.34221 -1.31606,0.3393 -1.50225,1.05129 -0.19537,0.74711 0.3745,0.68306 1.13618,-0.1277 z m -7.9408,-0.46861 c 0.44376,-0.36115 1.32292,-1.8528 1.32292,-2.24457 0,-0.21317 -0.52317,-0.24932 -1.37791,-0.0952 -0.20084,0.0362 -1.53251,2.21241 -1.53251,2.50441 0,0.29771 1.16828,0.17655 1.5875,-0.16463 z m 3.175,-1.13848 c 0.36381,-0.51401 0.81879,-1.10604 1.01109,-1.31563 0.29267,-0.31899 0.27858,-0.38107 -0.0865,-0.38107 -0.61913,0 -1.98292,1.44178 -1.98292,2.09631 0,0.78461 0.30048,0.67115 1.05833,-0.39961 z m 3.58247,-0.92344 c 0.21246,-0.41084 0.38306,-0.96125 0.37912,-1.22314 -0.006,-0.3632 -0.22514,-0.24171 -0.92604,0.51214 -0.50538,0.54357 -0.91888,1.1575 -0.91888,1.36429 0,0.63095 1.04181,0.16663 1.4658,-0.65329 z m -17.86997,-0.30774 c 0,-0.27187 -0.20237,-0.25286 -0.81855,0.0769 -0.28555,0.15282 -0.4508,0.3885 -0.36722,0.52374 0.16288,0.26355 1.18577,-0.25461 1.18577,-0.60066 z m 4.16446,0.52666 c 0.14327,-0.1819 0.33871,-0.65815 0.43431,-1.05833 0.0956,-0.40018 0.33556,-0.72761 0.53325,-0.72761 0.43461,0 1.01415,-0.6448 0.78527,-0.87368 -0.20079,-0.20079 -1.68395,0.53846 -1.68395,0.83933 0,0.11914 -0.29088,0.55515 -0.6464,0.96888 -0.35551,0.41374 -0.58661,0.84898 -0.51355,0.9672 0.19916,0.32224 0.79594,0.25891 1.09107,-0.11579 z m 16.40254,-1.40963 c 0.69466,-1.21986 0.73712,-1.47078 0.21499,-1.27042 -0.40409,0.15507 -1.4674,1.78851 -1.4674,2.2542 0,0.55517 0.68041,0.0207 1.25241,-0.98378 z m -18.4424,0.0867 0.55772,-0.59531 -0.86646,-0.087 c -0.81339,-0.0816 -1.55127,0.42426 -1.55127,1.06358 0,0.45646 1.33074,0.18366 1.86001,-0.3813 z m 6.6728,-0.92604 c -0.0364,-0.1819 0.0568,-0.33073 0.20696,-0.33073 0.15021,0 0.37319,-0.26789 0.4955,-0.59531 0.18813,-0.50359 0.11548,-0.62517 -0.47154,-0.78906 -0.38167,-0.10657 -0.72813,-0.0933 -0.76991,0.0295 -0.0418,0.12277 -0.30033,0.66328 -0.57455,1.20115 l -0.49858,0.97793 0.83913,-0.0814 c 0.49883,-0.0484 0.81231,-0.21549 0.77299,-0.41209 z m 5.39975,-1.14413 c 0.6277,-1.16905 0.62782,-1.17112 0.0757,-1.25805 -0.86816,-0.13668 -1.18827,0.0916 -1.81536,1.29471 -0.43968,0.84355 -0.50437,1.17136 -0.26087,1.32186 0.58369,0.36074 1.36069,-0.16691 2.0005,-1.35852 z m 1.90295,0.78752 c 0.45828,-0.15976 0.83324,-0.4684 0.83324,-0.68587 0,-0.21747 0.23812,-0.69813 0.52916,-1.06813 0.6439,-0.81858 0.7039,-1.51878 0.11066,-1.29113 -0.23019,0.0883 -0.51982,0.1606 -0.64363,0.1606 -0.20422,0 -0.61261,0.88609 -0.64465,1.39871 -0.007,0.11445 -0.14401,0.29304 -0.30412,0.39688 -0.29839,0.19349 -0.99993,1.37941 -0.81601,1.37941 0.0562,0 0.47708,-0.13071 0.93535,-0.29047 z m -12.46208,-0.74762 c 0.1819,-0.0111 0.33073,-0.18426 0.33073,-0.38472 0,-0.20047 0.1786,-0.5127 0.39688,-0.69386 0.21828,-0.18116 0.39687,-0.49042 0.39687,-0.68724 0,-0.59289 -1.64532,-0.13684 -2.30231,0.63815 -0.63281,0.74648 -0.42566,1.39301 0.39564,1.23485 0.24831,-0.0478 0.60029,-0.096 0.78219,-0.10718 z m 7.55115,-0.28483 c 0.0761,-0.29104 0.0305,-0.52917 -0.10144,-0.52917 -0.13189,0 -0.23981,0.0498 -0.23981,0.11066 0,0.0609 -0.0723,0.29898 -0.1606,0.52916 -0.0883,0.23019 -0.0427,0.41852 0.10143,0.41852 0.14412,0 0.32431,-0.23813 0.40042,-0.52917 z m -3.83515,-1.60554 c 0.46644,-0.88305 0.84807,-1.71649 0.84807,-1.85209 0,-0.5065 -0.7652,-0.22376 -0.94391,0.34878 -0.1022,0.32742 -0.52695,0.9864 -0.94387,1.46441 -0.86443,0.99106 -0.97696,1.64444 -0.2832,1.64444 0.31141,0 0.76675,-0.55262 1.32291,-1.60554 z m 2.93885,-1.07977 c 0.35088,-1.00655 0.35151,-1.01886 0.0518,-1.01886 -0.13129,0 -0.36941,0.37496 -0.52917,0.83324 -0.35088,1.00654 -0.35151,1.01885 -0.0518,1.01885 0.13129,0 0.36941,-0.37496 0.52917,-0.83323 z m 2.07576,0.23791 c 0.38124,-0.79023 0.58975,-1.78694 0.37275,-1.78188 -0.45601,0.0106 -0.77477,0.47969 -0.94124,1.38501 -0.20188,1.09786 0.12141,1.32356 0.56849,0.39687 z m 3.27637,-0.34861 c 0.54457,-0.2816 0.75124,-0.54719 0.64376,-0.82728 -0.0871,-0.22689 -0.0202,-0.57891 0.14855,-0.78226 0.16877,-0.20336 0.23932,-0.43726 0.15679,-0.51979 -0.26055,-0.26056 -1.24826,0.18233 -1.24826,0.55972 0,0.19866 -0.23813,0.43679 -0.52917,0.52916 -0.29104,0.0924 -0.52917,0.26925 -0.52917,0.39307 0,0.12381 -0.0723,0.41344 -0.1606,0.64363 -0.21015,0.54765 0.4631,0.54931 1.5181,0.004 z m -9.63979,-0.84201 c 0.90521,-0.97921 1.82345,-2.4474 1.53066,-2.4474 -0.0829,0 -0.46477,0.29129 -0.84871,0.6473 -0.38395,0.35602 -0.7895,0.59081 -0.90122,0.52176 -0.11173,-0.0691 -0.32739,0.10663 -0.47926,0.3904 -0.15187,0.28377 -0.46309,0.70291 -0.69161,0.93142 -0.42216,0.42217 -0.31476,0.94871 0.19351,0.94871 0.15369,0 0.69217,-0.44649 1.19663,-0.99219 z m 12.80048,-0.78091 c 0.34937,-0.91893 0.30219,-1.4019 -0.13695,-1.4019 -0.47594,0 -0.56396,0.15513 -0.78585,1.38507 -0.152,0.84252 -0.11513,0.96396 0.2501,0.82381 0.23561,-0.0904 0.53832,-0.45356 0.6727,-0.80698 z m -7.4286,-1.13732 c 0,-0.14552 -0.11907,-0.26458 -0.26459,-0.26458 -0.14552,0 -0.26458,0.11906 -0.26458,0.26458 0,0.14552 0.11906,0.26458 0.26458,0.26458 0.14552,0 0.26459,-0.11906 0.26459,-0.26458 z m 2.5421,-0.46302 c 0.4898,-0.64522 0.45196,-0.8599 -0.15154,-0.8599 -0.44359,0 -1.06765,0.68578 -1.06765,1.17323 0,0.34397 0.8948,0.11401 1.21919,-0.31333 z m -2.27752,-0.61093 c 0,-0.13693 -0.11906,-0.24897 -0.26458,-0.24897 -0.14552,0 -0.26459,0.18562 -0.26459,0.41249 0,0.22687 0.11907,0.33891 0.26459,0.24897 0.14552,-0.0899 0.26458,-0.27556 0.26458,-0.41249 z m 5.18478,0.0777 c 0.36732,-0.24622 0.70411,-1.57822 0.43859,-1.7346 -0.10968,-0.0646 -0.44888,-0.023 -0.75379,0.0924 -0.38908,0.14728 -0.5613,0.45356 -0.57761,1.02726 -0.0227,0.79995 0.29269,1.01721 0.89281,0.61494 z m -2.00978,-0.98813 c 0,-0.21828 -0.11906,-0.39688 -0.26458,-0.39688 -0.14552,0 -0.26459,0.1786 -0.26459,0.39688 0,0.21828 0.11907,0.39687 0.26459,0.39687 0.14552,0 0.26458,-0.17859 0.26458,-0.39687 z m -2.12072,-1.65365 c -0.002,-0.10914 -0.10472,-0.35725 -0.22776,-0.55135 -0.18235,-0.28766 -0.25161,-0.28021 -0.3746,0.0403 -0.083,0.21626 -0.0797,0.46436 0.007,0.55135 0.2225,0.2225 0.59993,0.19695 0.59508,-0.0403 z m 2.3853,-0.59531 c 0,-0.14552 -0.0525,-0.26458 -0.11667,-0.26458 -0.0642,0 -0.19027,0.11906 -0.2802,0.26458 -0.0899,0.14552 -0.0374,0.26458 0.11667,0.26458 0.15411,0 0.2802,-0.11906 0.2802,-0.26458 z m 2.92781,-0.27389 c 0.72699,-0.38907 0.66702,-1.10788 -0.0835,-1.00128 -0.38257,0.0543 -0.62552,0.29728 -0.67986,0.67986 -0.0947,0.66681 0.0244,0.71694 0.7634,0.32142 z m -57.1674,38.50466 c 0,-0.0736 0.53578,-0.662 1.19063,-1.30757 0.65484,-0.64558 1.19062,-1.31958 1.19062,-1.49779 0,-0.17822 0.0705,-0.25352 0.15669,-0.16734 0.16754,0.16754 0.94168,-0.45119 3.275,-2.61751 2.33189,-2.16499 4.40192,-3.01738 4.04884,-1.66723 -0.0737,0.28165 -0.21487,0.51208 -0.31382,0.51208 -0.22353,0 -1.09889,0.66181 -2.36306,1.78658 -0.53195,0.47329 -1.17555,0.9278 -1.43021,1.01001 -0.25466,0.0822 -0.46302,0.26053 -0.46302,0.39624 0,0.13572 -0.11906,0.24676 -0.26458,0.24676 -0.14552,0 -0.47295,0.18193 -0.72761,0.4043 -3.02047,2.63744 -4.29948,3.50057 -4.29948,2.90147 z m 18.25626,-0.80357 c 0,-1.04227 2.11049,-3.11133 4.18603,-4.10386 0.9719,-0.46476 2.44752,-1.26136 3.27916,-1.77022 0.84379,-0.5163 1.69157,-0.85632 1.91823,-0.76934 0.22339,0.0857 0.40616,0.0463 0.40616,-0.0877 0,-0.28695 2.33428,-1.93793 2.91042,-2.05847 1.427,-0.29856 2.38058,-0.3642 2.37649,-0.16359 -0.005,0.27098 -2.50539,1.95307 -2.90258,1.95307 -0.14722,0 -0.26766,0.12428 -0.26766,0.27618 0,0.1519 -0.14883,0.25546 -0.33073,0.23014 -0.45197,-0.0629 -2.05052,0.61891 -2.05052,0.8746 0,0.11362 -0.16254,0.20658 -0.3612,0.20658 -0.19865,0 -0.66392,0.23812 -1.03392,0.52916 -0.36999,0.29105 -0.84408,0.52917 -1.05353,0.52917 -0.20944,0 -0.65536,0.23813 -0.99093,0.52917 -0.33558,0.29104 -0.81784,0.52916 -1.07171,0.52916 -0.54053,0 -3.83644,2.82823 -4.08545,3.50573 -0.26302,0.71566 -0.92826,0.56533 -0.92826,-0.20977 z m 10.05417,-2.3183 c 0,-0.1899 0.64495,-0.93404 1.43322,-1.65365 1.91665,-1.74969 2.19969,-1.96984 2.53266,-1.96984 0.15623,0 0.34786,-0.16627 0.42585,-0.3695 0.078,-0.20323 0.63979,-0.44465 1.24847,-0.53648 0.60867,-0.0918 1.58292,-0.33706 2.165,-0.54493 1.42066,-0.50733 3.41577,-0.5112 3.83386,-0.007 0.41951,0.50548 0.19866,0.57753 -2.33301,0.76118 -1.94337,0.14098 -4.18813,0.95211 -4.62285,1.67045 -0.11637,0.19229 -0.35571,0.34963 -0.53187,0.34963 -0.17615,0 -0.64129,0.29765 -1.03364,0.66145 -0.39234,0.36381 -0.82511,0.66146 -0.96171,0.66146 -0.1366,0 -0.52875,0.2956 -0.87144,0.65689 -0.67898,0.71582 -1.28454,0.86703 -1.28454,0.32076 z m 24.47769,-5.46952 c -0.30683,-0.49647 0.14922,-0.7998 1.2025,-0.7998 0.5735,0 1.04272,-0.0961 1.04272,-0.21366 0,-0.31582 2.06651,-1.17149 2.3725,-0.98237 0.43668,0.26988 -0.3064,1.19828 -1.31416,1.64189 -1.15498,0.50841 -3.08058,0.71472 -3.30356,0.35394 z m 48.4897,-0.18827 c -0.62317,-0.1864 -1.391,-0.34072 -1.7063,-0.34293 -0.31529,-0.002 -0.62273,-0.15242 -0.68318,-0.33379 -0.0768,-0.23045 -0.86048,-0.33509 -2.60174,-0.34741 -4.57929,-0.0324 -7.3124,-0.52881 -7.58925,-1.37844 -0.0843,-0.25872 0.24532,-0.29509 1.43567,-0.15838 0.84981,0.0976 1.60463,0.26382 1.67739,0.36938 0.0728,0.10556 0.48948,0.18565 0.92605,0.17796 0.43656,-0.008 1.47835,0.0638 2.3151,0.15876 0.97247,0.1104 1.52135,0.0752 1.52135,-0.0977 0,-0.33741 1.7039,-0.0531 2.69884,0.45035 0.39296,0.19884 1.00689,0.36152 1.3643,0.36152 0.51956,0 0.62208,-0.10608 0.51144,-0.52917 -0.13336,-0.50997 0.28439,-0.75066 0.55182,-0.31794 0.0718,0.11617 0.64437,0.19449 1.27239,0.17405 0.62801,-0.0204 1.36457,0.075 1.63679,0.21205 0.36506,0.18382 0.44316,0.16542 0.29759,-0.0701 -0.13654,-0.22093 -0.0445,-0.27353 0.2988,-0.17071 0.27289,0.0817 1.25318,0.22242 2.17842,0.31262 1.30774,0.12749 1.65701,0.0883 1.56887,-0.17616 -0.0624,-0.1871 -0.52173,-0.36555 -1.0208,-0.39657 -1.73868,-0.10808 -3.74482,-0.55797 -3.94703,-0.88515 -0.15365,-0.24861 -0.22934,-0.25229 -0.30845,-0.015 -0.0681,0.20423 -0.36166,0.25004 -0.8373,0.13066 -0.40286,-0.10111 -0.68774,-0.31803 -0.63307,-0.48204 0.16556,-0.49669 2.05307,-0.65945 3.21564,-0.27728 0.59049,0.19412 1.43082,0.39834 1.86738,0.45384 0.43656,0.0555 1.03187,0.19073 1.32292,0.30052 1.07028,0.40374 1.34806,0.46345 2.58047,0.55468 1.63406,0.12096 2.03125,0.36989 1.25394,0.78589 -0.4166,0.22296 -0.92304,0.25058 -1.64019,0.0894 -1.03691,-0.23298 -1.86141,-0.0603 -1.31741,0.27592 0.14952,0.0924 0.35379,0.49444 0.45392,0.89341 l 0.18206,0.7254 -3.8567,-0.0544 c -2.20198,-0.0311 -4.34283,-0.1998 -4.98973,-0.3933 z M 103.967,160.0803 c -0.37472,-0.38384 0.13426,-0.92661 0.86892,-0.92661 0.42041,0 1.44947,-0.23661 2.28679,-0.52579 2.09318,-0.72292 4.08626,-1.08033 3.96304,-0.71069 -0.10955,0.32865 -1.73815,1.21641 -3.10209,1.69097 -1.17543,0.40897 -3.7795,0.71505 -4.01666,0.47212 z m 30.77535,-0.64619 c -1.07018,-0.54652 -1.56614,-1.27567 -1.01232,-1.48819 0.51571,-0.1979 3.0932,0.96013 3.0932,1.38973 0,0.19101 -0.10932,0.3473 -0.24294,0.3473 -0.13362,0 -0.40151,0.0463 -0.59531,0.10298 -0.19381,0.0566 -0.75299,-0.10163 -1.24263,-0.35173 z m -34.40401,-0.24802 c -0.67485,-0.44496 -0.12059,-1.11348 0.86798,-1.04691 0.64377,0.0434 1.62046,-0.30577 3.37843,-1.20764 1.36008,-0.69774 2.66084,-1.43568 2.89058,-1.63986 0.47472,-0.4219 1.19841,-0.48844 1.41962,-0.13053 0.21057,0.34071 -0.11558,1.08202 -0.47657,1.08321 -0.16634,5.5e-4 -1.0168,0.37371 -1.88993,0.82926 -0.87312,0.45555 -2.12328,1.10415 -2.77812,1.44133 -1.39928,0.7205 -2.89186,1.01409 -3.41199,0.67114 z m 27.85201,-1.26389 c -0.19943,-0.79461 0.1444,-1.50505 0.78989,-1.63209 0.3037,-0.0598 0.43357,0.0997 0.43105,0.52917 -0.01,1.70581 -0.87379,2.48608 -1.22094,1.10292 z m 2.21674,0.41664 c -0.25466,-0.14833 -0.46302,-0.44237 -0.46302,-0.65342 0,-0.42534 0.72259,-0.50444 1.29532,-0.14179 0.20311,0.1286 0.29614,0.42444 0.20674,0.65741 -0.18705,0.48743 -0.39207,0.51463 -1.03904,0.1378 z m 36.89506,-0.78648 c -0.62633,-0.27814 -1.22165,-0.4859 -1.32292,-0.46169 -0.10126,0.0242 -0.83896,-0.0854 -1.63933,-0.24362 -2.00921,-0.39715 -5.52556,-0.87129 -6.48229,-0.87407 -0.43656,-0.001 -0.97234,-0.11954 -1.19063,-0.26283 -0.65842,-0.43224 0.20897,-0.80322 1.5875,-0.67897 0.65485,0.059 1.19063,0.12497 1.19063,0.14656 0,0.13958 3.20096,0.0714 3.30729,-0.0704 0.13978,-0.18647 -1.76706,-1.24521 -2.24267,-1.24521 -0.15329,0 -0.75042,-0.25282 -1.32695,-0.56183 -0.87027,-0.46644 -1.3286,-0.53565 -2.69945,-0.40763 -1.53772,0.14359 -2.26207,0.0252 -4.11583,-0.67285 -0.96056,-0.36169 -0.95209,-1.00353 0.0132,-1.00353 0.40746,0 0.86297,0.12214 1.01225,0.27142 0.14928,0.14928 1.29289,0.29919 2.54135,0.33314 1.79847,0.0489 2.38506,0.16592 2.82421,0.56334 0.30596,0.27689 0.55428,0.36471 0.55428,0.19603 0,-0.44066 0.93498,-0.37615 1.32291,0.0913 0.18116,0.21828 0.48066,0.39687 0.66555,0.39687 0.1849,0 0.4076,0.18614 0.4949,0.41365 0.0873,0.2275 0.2726,0.34327 0.41178,0.25725 0.13917,-0.086 0.96969,0.085 1.8456,0.38011 0.87591,0.29507 1.77491,0.53649 1.99779,0.53649 0.22287,0 0.40522,0.11906 0.40522,0.26459 0,0.14552 0.12609,0.26458 0.2802,0.26458 0.1541,0 0.20661,-0.11906 0.11667,-0.26458 -0.25735,-0.41641 0.17632,-0.30888 0.63927,0.1585 0.23048,0.2327 1.07391,0.82163 1.87427,1.30874 l 1.45521,0.88565 -0.98369,0.41105 c -1.18372,0.49464 -1.11738,0.4981 -2.53635,-0.13203 z m -42.64974,-0.26806 c 0,-0.7535 0.47359,-1.5701 0.91057,-1.5701 0.21442,0 0.31418,-0.18937 0.24392,-0.46302 -0.14434,-0.56221 0.89208,-1.30041 1.28046,-0.91202 0.31333,0.31332 -0.24526,1.46504 -1.28554,2.65056 -0.85928,0.97927 -1.14941,1.05362 -1.14941,0.29458 z m -3.70416,-2.10494 c 0,-0.31374 0.27344,-0.65943 0.66146,-0.83622 0.3638,-0.16576 0.66145,-0.40133 0.66145,-0.5235 0,-0.12216 0.17268,-0.22211 0.38373,-0.22211 0.21105,0 0.47894,-0.15985 0.59531,-0.35523 0.11638,-0.19537 0.54615,-0.57093 0.95506,-0.83457 0.68942,-0.44451 0.77506,-0.44777 1.17788,-0.0449 0.40284,0.40283 0.39616,0.46832 -0.092,0.90072 -1.24268,1.10082 -3.48183,2.45068 -4.06521,2.45068 -0.15274,0 -0.27772,-0.24068 -0.27772,-0.53484 z m -2.64584,-2.36051 c 0,-0.26619 0.51269,-0.79157 1.19063,-1.22009 0.65484,-0.41392 1.19062,-0.84791 1.19062,-0.96441 0,-0.1165 0.13045,-0.21182 0.28989,-0.21182 0.15944,0 0.61854,-0.23402 1.02023,-0.52005 0.61725,-0.43952 0.80345,-0.4666 1.20244,-0.17484 0.42903,0.31371 0.43251,0.3604 0.0381,0.51174 -0.2387,0.0916 -0.43399,0.34887 -0.43399,0.57172 0,0.22285 -0.16236,0.40518 -0.3608,0.40518 -0.19844,0 -0.64492,0.28012 -0.99219,0.62248 -1.28326,1.26515 -3.14493,1.84532 -3.14493,0.98009 z m -1.05833,-0.84999 c 0,-0.62168 0.87229,-1.91161 2.34285,-3.46456 0.95114,-1.00443 1.45843,-1.21262 1.76117,-0.72278 0.18299,0.29609 -0.84048,2.11184 -1.19036,2.11184 -0.12,0 -0.64588,0.59532 -1.16861,1.32292 -1.00339,1.39665 -1.74505,1.7165 -1.74505,0.75258 z m 30.39574,-1.18692 c -0.0172,-0.12491 -0.0168,-0.31769 9.4e-4,-0.42839 0.0177,-0.1107 -0.1853,-0.0654 -0.45122,0.10068 -0.66064,0.41258 -2.13245,-0.30099 -3.31059,-1.60505 -0.65774,-0.72804 -1.11666,-0.99612 -1.73537,-1.01371 -1.44942,-0.0412 -2.67451,-0.57048 -2.67451,-1.15546 0,-0.42366 0.11625,-0.49083 0.59531,-0.34397 0.32742,0.10038 0.73531,0.29424 0.90641,0.43081 0.17111,0.13657 0.46876,0.22695 0.66146,0.20085 0.1927,-0.0261 0.80433,-0.0334 1.35918,-0.0161 0.87344,0.0271 0.99771,0.10755 0.92604,0.59919 -0.054,0.37015 0.0721,0.59134 0.36204,0.63537 0.5806,0.0882 1.78517,0.96997 1.79583,1.31464 0.005,0.1479 0.63339,0.28621 1.39737,0.30737 2.60915,0.0723 2.47328,0.0413 2.04107,0.46466 -0.46712,0.45753 -1.83,0.8278 -1.87396,0.50912 z M 69.1108,150.26819 c 0.0127,-0.30822 0.0754,-0.37092 0.15985,-0.15985 0.0764,0.19099 0.067,0.4192 -0.0209,0.50712 -0.0879,0.0879 -0.15046,-0.0684 -0.13897,-0.34727 z m 0,-1.05833 c 0.0127,-0.30823 0.0754,-0.37092 0.15985,-0.15986 0.0764,0.191 0.067,0.4192 -0.0209,0.50712 -0.0879,0.0879 -0.15046,-0.0684 -0.13897,-0.34726 z m 42.57703,-23.92275 c 0,-0.14552 0.11204,-0.26458 0.24897,-0.26458 0.13693,0 0.32255,0.11906 0.41249,0.26458 0.0899,0.14552 -0.0221,0.26459 -0.24897,0.26459 -0.22687,0 -0.41249,-0.11907 -0.41249,-0.26459 z"
       id="path26" />
  </g>
</svg>
