<?xml version="1.0" encoding="UTF-8" standalone="no"?>
<!-- Created with Inkscape (http://www.inkscape.org/) -->

<svg
   width="114.35966mm"
   height="52.707478mm"
   viewBox="0 0 114.35965 52.707481"
   version="1.1"
   id="svg1"
   inkscape:version="1.4.1-rc (06eac75fbf, 2025-03-29)"
   sodipodi:docname="mount8.svg"
   xmlns:inkscape="http://www.inkscape.org/namespaces/inkscape"
   xmlns:sodipodi="http://sodipodi.sourceforge.net/DTD/sodipodi-0.dtd"
   xmlns="http://www.w3.org/2000/svg"
   xmlns:svg="http://www.w3.org/2000/svg">
  <sodipodi:namedview
     id="namedview1"
     pagecolor="#ffffff"
     bordercolor="#000000"
     borderopacity="0.25"
     inkscape:showpageshadow="2"
     inkscape:pageopacity="0.0"
     inkscape:pagecheckerboard="0"
     inkscape:deskcolor="#d1d1d1"
     inkscape:document-units="mm"
     inkscape:zoom="0.72248176"
     inkscape:cx="215.92241"
     inkscape:cy="98.964436"
     inkscape:window-width="1850"
     inkscape:window-height="1016"
     inkscape:window-x="0"
     inkscape:window-y="0"
     inkscape:window-maximized="1"
     inkscape:current-layer="layer1" />
  <defs
     id="defs1" />
  <g
     inkscape:label="Layer 1"
     inkscape:groupmode="layer"
     id="layer1"
     transform="translate(-48.683313,-121.97325)">
    <path
       style="fill:#000000"
       d="m 53.62934,174.61317 c 0.255,-0.27406 4.85272,-2.03911 5.75022,-2.20748 0.49864,-0.0935 0.95311,-0.30388 1.00993,-0.46741 0.282,-0.8115 0.70574,-1.70457 1.18526,-2.49802 l 0.5305,-0.87778 -1.1291,0.13741 c -2.42464,0.29509 -5.54161,0.9525 -6.48707,1.36822 -0.54562,0.2399 -1.23015,0.52978 -1.52119,0.64418 -0.29105,0.1144 -1.29105,0.57458 -2.22223,1.02261 -0.93119,0.44804 -1.78919,0.75521 -1.90668,0.68259 -0.47666,-0.29459 0.16137,-0.92697 1.63942,-1.62491 0.85989,-0.40605 1.56344,-0.82236 1.56344,-0.92514 0,-0.10278 0.41672,-0.26505 0.92605,-0.3606 0.50932,-0.0956 0.92604,-0.26142 0.92604,-0.3686 0,-0.10718 0.36915,-0.20537 0.82034,-0.2182 0.45119,-0.0128 1.02977,-0.21284 1.28572,-0.44448 0.25596,-0.23164 0.91169,-0.4783 1.45718,-0.54814 0.54548,-0.0698 1.11672,-0.20419 1.26941,-0.29856 0.15268,-0.0944 0.9435,-0.20412 1.75737,-0.24389 1.47486,-0.0721 2.38029,-0.34008 3.27324,-0.9689 0.36413,-0.25642 0.51543,-0.25952 0.669,-0.0137 0.27421,0.43896 3.22607,0.1346 3.22607,-0.33262 0,-0.1858 0.11026,-0.3775 0.24502,-0.42601 0.13476,-0.0485 0.32464,-0.40913 0.42194,-0.80139 0.17657,-0.71178 0.1749,-0.71268 -0.84033,-0.45055 -0.55949,0.14446 -1.25538,0.36684 -1.54642,0.49418 -0.6236,0.27284 -1.81294,0.56241 -2.87719,0.7005 -0.41828,0.0543 -1.25172,0.24321 -1.85208,0.41984 -0.60036,0.17664 -1.21063,0.32921 -1.35615,0.33906 -0.14552,0.01 -0.38364,0.0843 -0.52916,0.16547 -0.14552,0.0812 -0.95306,0.30631 -1.79454,0.50034 -1.11294,0.25663 -1.6093,0.27344 -1.82107,0.0617 -0.54947,-0.54947 -0.0121,-0.9891 1.99872,-1.63509 1.9973,-0.64165 2.22986,-0.85079 1.76427,-1.58665 -0.18175,-0.28726 0.12123,-0.66308 1.22652,-1.52135 0.80734,-0.62692 1.60878,-1.13985 1.78098,-1.13985 0.1722,0 0.90202,-0.29124 1.62181,-0.64721 0.7198,-0.35597 3.01421,-1.11601 5.09868,-1.68897 2.79702,-0.76883 3.89273,-1.18848 4.1822,-1.60175 0.21572,-0.30799 0.5343,-0.56263 0.70795,-0.56587 0.17365,-0.003 0.61338,-0.23871 0.97719,-0.52328 0.3638,-0.28457 0.89958,-0.52384 1.19062,-0.5317 0.69402,-0.0188 1.53948,-0.67069 1.40254,-1.08151 -0.0594,-0.1781 0.40287,-0.79467 1.02719,-1.37015 l 1.13514,-1.04632 3.37694,-0.0843 c 3.76166,-0.0939 5.80009,-0.53902 6.25375,-1.36573 0.16401,-0.29887 0.74406,-1.06344 1.28901,-1.69905 0.54495,-0.6356 1.27103,-1.57236 1.6135,-2.08169 0.34247,-0.50932 0.76865,-0.89332 0.94707,-0.85334 0.17842,0.04 0.24436,-0.0568 0.14653,-0.21511 -0.0978,-0.15829 -0.006,-0.48867 0.2047,-0.73416 0.21041,-0.24549 0.46487,-0.62494 0.56546,-0.84322 0.71957,-1.56152 3.66806,-5.02708 4.27703,-5.02708 0.18641,0 0.38226,-0.13004 0.43524,-0.28896 0.053,-0.15893 0.42,-0.30776 0.81561,-0.33073 0.39561,-0.023 0.71938,-0.1054 0.71948,-0.18316 4e-4,-0.30605 1.57558,-1.04924 2.22382,-1.04924 1.04635,0 0.83122,0.33739 -0.76507,1.19991 -1.36936,0.73989 -2.0606,1.44593 -1.41564,1.44593 0.18645,0 0.23517,0.34341 0.13569,0.95646 l -0.15522,0.95646 0.57538,-0.49344 c 1.28553,-1.10246 1.32428,-1.1549 0.85329,-1.1549 -0.24081,0 -0.39814,-0.10585 -0.34963,-0.23522 0.17095,-0.45594 2.39049,-2.1443 2.62687,-1.99821 0.13169,0.0814 0.24038,-0.0674 0.24151,-0.33064 0.002,-0.4204 1.03926,-1.1401 1.64344,-1.1401 0.1194,0 0.67158,-0.2869 1.22707,-0.63756 0.64869,-0.40951 1.13918,-0.55772 1.37117,-0.41434 0.46341,0.2864 0.78334,0.0853 0.78334,-0.49229 0,-0.25005 0.32742,-0.77752 0.72761,-1.17217 1.49109,-1.47044 1.91822,-1.97757 1.91822,-2.27745 0,-0.44972 3.75103,-4.2666 4.19299,-4.2666 0.20633,0 0.56771,-0.21002 0.80306,-0.46671 0.69398,-0.75689 2.62741,-1.91788 3.47682,-2.08776 0.43315,-0.0866 0.78755,-0.26872 0.78755,-0.40464 0,-0.13592 0.0893,-0.19441 0.19844,-0.12998 0.10914,0.0644 1.21047,-0.0575 2.44739,-0.27088 1.23693,-0.21342 3.33463,-0.37055 4.66155,-0.34917 1.99561,0.0321 2.44079,-0.0346 2.57576,-0.38637 0.12625,-0.329 0.27783,-0.36387 0.66982,-0.15408 0.38513,0.20611 0.54273,0.17712 0.65708,-0.12088 0.0827,-0.21562 0.42207,-0.39625 0.75405,-0.40141 0.33199,-0.005 0.88487,-0.16532 1.22861,-0.35592 0.42511,-0.23572 0.97439,-0.28265 1.7175,-0.14677 0.60088,0.10988 1.17486,0.14889 1.27551,0.0867 0.20456,-0.12642 2.11221,0.88799 3.92263,2.08591 1.12614,0.74514 2.62321,2.23076 2.63871,2.61852 0.0121,0.3032 3.65484,3.92304 3.94783,3.92304 0.65834,0 5.17629,2.88128 6.31419,4.02682 1.64847,1.65953 2.97427,3.41687 2.97427,3.94239 0,0.29078 0.11906,0.4551 0.26458,0.36516 0.14552,-0.0899 0.26458,0.0168 0.26458,0.23722 0,0.90837 2.85646,4.12841 3.66225,4.12841 0.14897,0 0.34642,0.23812 0.4388,0.52917 0.0924,0.29104 0.32578,0.52916 0.51868,0.52916 0.49907,0 0.71848,0.74158 0.3971,1.34209 -0.43339,0.8098 -1.16546,0.6231 -1.53206,-0.39072 -0.33542,-0.92759 -1.60913,-2.07724 -2.80523,-2.53199 -0.39881,-0.15163 -0.67954,-0.46493 -0.67954,-0.7584 0,-0.27502 -0.23812,-0.80276 -0.52916,-1.17276 -0.29104,-0.37 -0.52917,-0.82028 -0.52917,-1.00062 0,-0.18034 -0.44648,-0.86802 -0.99219,-1.52817 -0.5457,-0.66016 -1.05172,-1.33715 -1.12448,-1.50443 -0.21856,-0.50249 -2.85274,-2.73108 -3.90913,-3.30723 -0.54211,-0.29567 -1.70003,-1.0097 -2.57316,-1.58674 -0.87312,-0.57703 -1.84823,-1.16381 -2.16689,-1.30395 -0.31867,-0.14014 -1.40692,-1.30226 -2.41834,-2.5825 -3.2697,-4.13872 -4.79002,-5.10296 -8.04862,-5.10472 -1.12779,-6.1e-4 -2.05052,0.0882 -2.05052,0.19738 0,0.10917 -0.68748,0.41815 -1.52772,0.68663 -1.15752,0.36986 -2.50275,0.50314 -5.55158,0.55003 -3.17959,0.0489 -4.12201,0.14741 -4.49156,0.46947 -0.25723,0.22417 -0.76752,0.51242 -1.13397,0.64054 -1.43592,0.50206 -3.93613,2.08247 -4.0632,2.56839 -0.0956,0.36571 -0.29027,0.47174 -0.67921,0.37003 -0.29984,-0.0784 -0.47773,-0.0334 -0.39531,0.0999 0.0824,0.13336 -0.096,0.55503 -0.39651,0.93705 -0.3005,0.38202 -0.54636,0.85712 -0.54636,1.05578 0,0.19866 -0.16995,0.36119 -0.37767,0.36119 -0.41548,0 -1.56519,1.32034 -1.3431,1.54243 0.0763,0.0763 0.28633,-0.0478 0.46673,-0.27582 0.1804,-0.22801 1.56066,-1.15188 3.06725,-2.05305 2.13469,-1.27686 2.88661,-1.6015 3.4069,-1.47091 0.52701,0.13227 0.63517,0.0829 0.51345,-0.23428 -0.19605,-0.5109 0.13033,-0.72101 0.62907,-0.40497 0.31286,0.19825 0.23679,0.36312 -0.40951,0.8875 -0.63972,0.51906 -0.8113,0.56614 -0.88423,0.24262 -0.11946,-0.53 -1.47192,1.43837 -1.48643,2.16336 -0.007,0.34586 -0.2203,0.55891 -0.61597,0.61503 -0.33297,0.0472 -0.74856,0.31512 -0.92354,0.59531 -0.17499,0.2802 -0.60175,0.50945 -0.94837,0.50945 -0.53375,0 -0.57915,0.0615 -0.29659,0.40199 0.35884,0.43237 1.73003,0.33928 2.82218,-0.19161 0.69917,-0.33985 1.40691,-0.11379 1.40691,0.44939 0,0.24588 -0.3198,0.47575 -0.79375,0.57054 -0.43656,0.0873 -0.79375,0.28502 -0.79375,0.43935 0,0.15434 -0.26789,0.57537 -0.59531,0.93564 -0.32742,0.36026 -0.41672,0.54698 -0.19844,0.41493 0.51101,-0.30914 3.14104,-0.84934 3.31043,-0.67994 0.55987,0.55987 -1.13473,1.37693 -4.44,2.14078 -0.69402,0.16039 -1.47961,0.49768 -1.74576,0.74954 -0.26614,0.25186 -0.9918,0.91319 -1.61257,1.46963 -0.8558,0.76711 -1.24234,1.3871 -1.59881,2.56446 -0.50329,1.66224 -0.42888,2.09932 0.24375,1.4319 0.23045,-0.22867 0.81185,-0.64719 1.29199,-0.93005 0.48015,-0.28286 0.80055,-0.63151 0.71199,-0.77479 -0.0885,-0.14328 -0.0264,-0.26051 0.1381,-0.26051 0.36532,0 1.05505,-0.66077 1.05505,-1.01075 0,-0.14014 0.26789,-0.32358 0.59531,-0.40764 0.32742,-0.0841 1.07156,-0.5783 1.65365,-1.09829 0.91372,-0.81627 1.19688,-0.92887 2.07237,-0.82413 0.55772,0.0667 1.0807,0.18798 1.16218,0.26946 0.22058,0.22058 -0.46453,0.95468 -0.89096,0.95468 -0.4339,0 -2.34965,1.16919 -2.61243,1.59438 -0.38265,0.61914 0.13638,0.5465 0.79399,-0.11111 0.72789,-0.72788 1.31254,-0.87632 1.60266,-0.4069 0.0961,0.15544 0.37099,0.20435 0.61093,0.10867 0.47616,-0.18986 1.52885,-0.42728 2.15605,-0.48626 0.21828,-0.0205 0.39687,0.1283 0.39687,0.33072 0,0.20242 -0.17859,0.4604 -0.39687,0.57329 -0.88411,0.45725 -2.34559,1.04305 -2.60224,1.04305 -0.15031,0 -0.96576,0.28666 -1.81209,0.63704 -0.84634,0.35037 -1.77359,0.71396 -2.06055,0.80798 -0.34684,0.11363 -0.41864,0.23467 -0.21418,0.36103 0.20632,0.12751 -0.0357,0.57313 -0.73502,1.35358 -0.78562,0.87673 -1.04259,1.38752 -1.04259,2.07244 v 0.90895 l 1.58572,-1.54916 c 0.87215,-0.85204 1.58653,-1.68401 1.5875,-1.84884 0.002,-0.3257 2.59404,-1.68469 3.21335,-1.68469 0.20939,0 0.84778,-0.23813 1.41864,-0.52917 0.57086,-0.29104 1.0858,-0.52916 1.14431,-0.52916 0.0585,0 0.053,0.36353 -0.0122,0.80785 -0.0872,0.59385 0.01,0.87668 0.36684,1.06765 0.26698,0.14288 0.48504,0.40442 0.48459,0.5812 -9.9e-4,0.38325 -2.33392,1.57202 -2.67336,1.36223 -0.12993,-0.0803 -0.23623,-0.0324 -0.23623,0.10641 0,0.24958 -1.62856,0.56979 -2.91201,0.57257 -0.73695,0.002 -3.43799,2.35669 -3.43799,2.99765 0,0.20743 -0.18401,0.52986 -0.40892,0.71651 -0.2249,0.18666 -0.35248,0.48644 -0.28351,0.66618 0.23081,0.60148 -0.7654,3.41813 -1.24137,3.50979 -0.32662,0.0629 -0.44745,-0.0977 -0.44745,-0.59469 0,-0.37447 -0.11301,-0.68085 -0.25112,-0.68085 -0.51794,0 -1.66659,1.89131 -1.96513,3.23569 -0.3282,1.47795 -0.64291,1.69443 -1.11627,0.76785 -0.28039,-0.54884 -0.33845,-0.52314 -1.78594,0.79064 -0.97241,0.88259 -1.49613,1.56622 -1.49613,1.95297 0,1.35502 -0.32859,2.24868 -0.82682,2.24868 -0.37656,0 -0.49609,-0.19431 -0.49609,-0.80646 v -0.80646 l -1.18839,0.81763 c -0.65361,0.4497 -1.26061,1.10538 -1.34888,1.45707 -0.24098,0.96015 -0.7982,1.32935 -1.125,0.7454 -0.28036,-0.50097 -0.52694,-0.42054 -3.2169,1.04938 -0.3638,0.1988 -1.13771,0.60718 -1.71979,0.9075 -0.64116,0.33081 -1.09166,0.76619 -1.14288,1.10454 -0.0722,0.47705 -0.26588,0.55848 -1.32817,0.55848 -0.88029,0 -1.7832,0.26478 -3.09046,0.90628 l -1.84683,0.90628 2.3058,0.0198 c 1.9627,0.0168 2.34488,0.0928 2.56846,0.51055 0.25089,0.46879 0.055,0.4922 -4.37012,0.52209 -2.54803,0.0172 -4.76711,0.11431 -4.93128,0.21577 -0.16418,0.10147 -0.88128,0.15789 -1.59356,0.12539 -1.2178,-0.0556 -3.63657,0.77534 -3.6366,1.24926 -1e-5,0.20498 1.88527,0.14202 3.07753,-0.10278 0.52229,-0.10724 0.90009,-0.0544 1.02205,0.14294 0.3194,0.5168 -0.24879,0.82895 -1.75154,0.96225 -0.78209,0.0694 -1.58222,0.18008 -1.77807,0.24601 -0.19585,0.0659 -1.8534,0.18117 -3.68346,0.25606 -1.87665,0.0768 -3.48434,0.26645 -3.68739,0.43497 -0.26879,0.22308 -0.62265,0.21211 -1.39646,-0.0433 -0.64555,-0.21305 -1.65025,-0.28639 -2.66395,-0.19447 l -1.62752,0.14757 0.11098,-0.75613 c 0.10383,-0.70746 0.0587,-0.74987 -0.70091,-0.65889 -0.44653,0.0535 -1.05,0.15671 -1.34104,0.22939 -0.29104,0.0727 -0.84808,0.14126 -1.23787,0.1524 -0.38979,0.0111 -0.88348,0.19501 -1.09708,0.40861 -0.21361,0.21361 -0.72813,0.37591 -1.14338,0.36067 -0.41525,-0.0152 -1.41937,0.16039 -2.23137,0.39029 -1.56788,0.44392 -4.43429,0.88097 -4.21218,0.64225 z m 15.83552,-2.07205 c 1.51227,-0.52717 0.81007,-0.94849 -1.28343,-0.77006 -0.61819,0.0527 -1.04488,0.4016 -1.05428,0.86209 -0.006,0.29488 1.38491,0.24012 2.33771,-0.092 z m 4.36971,-0.63873 c 0.18181,-0.47378 -1.02894,-0.7445 -1.7069,-0.38167 -0.39611,0.21199 -0.4668,0.37864 -0.26418,0.62278 0.34131,0.41125 1.78869,0.2342 1.97108,-0.24111 z m 3.33503,0.14529 c 0.21407,-0.13511 0.31139,-0.32348 0.21627,-0.4186 -0.22611,-0.2261 -2.36213,0.13507 -2.21422,0.37439 0.17699,0.28638 1.56556,0.3171 1.99795,0.0442 z m -11.70015,-1.13827 c 1.25614,-0.4394 1.14509,-1.0064 -0.13229,-0.67545 -0.54571,0.14138 -1.23031,0.25288 -1.52136,0.24777 -0.29104,-0.005 -0.82682,0.23206 -1.19062,0.52705 l -0.66146,0.53635 1.32292,-0.16747 c 0.7276,-0.0921 1.70987,-0.30282 2.18281,-0.46825 z m 5.02708,-0.90876 c 0.47575,-0.64041 0.41108,-0.84228 -0.26458,-0.82598 -1.23703,0.0298 -2.73239,0.81454 -2.44338,1.28217 0.21273,0.34421 2.38524,-0.0218 2.70796,-0.45619 z m 3.61049,-0.43673 c 0.25343,-0.9446 0.1939,-1.01489 -0.70007,-0.82652 -1.09561,0.23086 -1.34906,0.47618 -1.14762,1.11085 0.22884,0.72101 1.63606,0.50446 1.84769,-0.28433 z m 3.7128,0.20606 c 0.22868,-0.22867 0.41578,-0.64539 0.41578,-0.92604 0,-0.41837 -0.18938,-0.51027 -1.05154,-0.51027 -0.89047,0 -1.11176,0.11645 -1.44466,0.76021 -0.21621,0.41811 -0.31849,0.83483 -0.22728,0.92604 0.32767,0.32767 1.90044,0.15733 2.3077,-0.24994 z m 3.59078,-0.21071 c 1.69914,-0.39638 2.10155,-1.07065 0.80847,-1.35465 -0.83608,-0.18364 -2.37034,0.0364 -2.42974,0.34851 -0.13409,0.70453 -0.13226,1.36623 0.004,1.35683 0.0893,-0.006 0.81715,-0.16397 1.61752,-0.35069 z M 65.21011,169.0009 c 1.11106,-0.18327 1.91299,-0.70459 1.91299,-1.2436 0,-0.15567 -0.19996,-0.19338 -0.46303,-0.0873 -0.25466,0.10266 -0.93927,0.25055 -1.52135,0.32862 -1.26764,0.17003 -1.71979,0.48384 -1.71979,1.19362 0,0.38937 0.0874,0.45861 0.33073,0.2621 0.1819,-0.14689 0.8391,-0.35092 1.46045,-0.45342 z m 5.81559,-1.07758 c 0.1819,-0.0562 0.33073,-0.28104 0.33073,-0.49961 0,-0.3152 -0.23258,-0.36566 -1.12448,-0.24398 -1.1083,0.15121 -1.78594,0.4914 -1.78594,0.89658 0,0.19091 1.81519,0.0833 2.57969,-0.15299 z m 14.08906,0.14577 c 0,-0.14552 -0.11906,-0.26458 -0.26458,-0.26458 -0.14552,0 -0.26458,0.11906 -0.26458,0.26458 0,0.14552 0.11906,0.26458 0.26458,0.26458 0.14552,0 0.26458,-0.11906 0.26458,-0.26458 z M 73.3408,167.53992 c 0.0899,-0.14552 0.39462,-0.26458 0.67708,-0.26458 0.28245,0 0.51355,-0.12661 0.51355,-0.28135 0,-0.49328 -1.70619,-0.16447 -1.80317,0.34749 -0.0939,0.49591 0.34151,0.63698 0.61254,0.19844 z m 4.29288,-0.79375 c 0.046,-0.61048 -0.51273,-0.70204 -0.96423,-0.15802 -0.23653,0.285 -0.2287,0.40297 0.0337,0.50828 0.65635,0.26335 0.89091,0.17506 0.93048,-0.35026 z m 6.28611,-0.26708 c 0.49809,-0.17766 0.49336,-0.19718 -0.0928,-0.38321 -0.36161,-0.11478 -0.73816,-0.0755 -0.90846,0.0948 -0.15998,0.15998 -0.50518,0.29087 -0.76712,0.29087 -0.26194,0 -0.47625,0.11608 -0.47625,0.25797 0,0.25446 1.18717,0.1167 2.24461,-0.26047 z m 3.1267,0.0243 c 0.3196,-0.0328 0.95641,-1.70661 0.87092,-2.28911 -0.0412,-0.28093 -0.15291,-0.48101 -0.24818,-0.44463 -0.0953,0.0364 -0.28578,0.0661 -0.42336,0.0661 -0.13758,0 -0.40659,0.32742 -0.59779,0.7276 -0.19121,0.40018 -0.60229,0.76406 -0.91351,0.80862 -0.61581,0.0882 -1.01568,1.00743 -0.52557,1.20823 0.16645,0.0682 0.60029,0.0837 0.9641,0.0344 0.3638,-0.0493 0.75683,-0.0993 0.87339,-0.1113 z m 4.41827,-0.53531 c 0,-0.45838 -0.46569,-0.54319 -0.79616,-0.145 -0.27209,0.32785 -0.23272,0.39397 0.2346,0.39397 0.30886,0 0.56156,-0.11204 0.56156,-0.24897 z m -19.7623,-0.39512 c 0.26307,-0.19947 0.51131,-0.67212 0.55164,-1.05034 0.0403,-0.37822 0.1525,-0.76686 0.24928,-0.86364 0.39163,-0.39162 0.13074,-0.60684 -0.65806,-0.54288 -0.50229,0.0407 -0.94955,0.27382 -1.12448,0.58601 -0.15975,0.2851 -0.42726,0.64017 -0.59447,0.78905 -0.1672,0.14887 -0.38359,0.53857 -0.48085,0.86599 -0.15869,0.53422 -0.0867,0.59445 0.70089,0.5869 0.48275,-0.005 1.09297,-0.17162 1.35605,-0.37109 z m 2.89484,-0.27126 c 0.77615,-0.32429 0.97403,-0.58383 1.23486,-1.61968 0.34626,-1.37515 0.28706,-1.55345 -0.43925,-1.32293 -0.67176,0.21321 -1.54561,1.43361 -1.77529,2.47935 -0.21532,0.98032 -0.23525,0.97089 0.97968,0.46326 z m 20.35556,-0.72505 c 0.84642,-0.47501 1.0011,-0.74153 1.00577,-1.73304 0.005,-1.02701 -0.38019,-1.08728 -1.37119,-0.21466 -0.56526,0.49774 -1.53518,2.19588 -1.53518,2.68782 0,0.12823 1.15412,-0.32119 1.9006,-0.74012 z m -33.53625,0.13941 c 1.01093,-0.10868 1.49478,-0.21035 2.00232,-0.42075 0.21828,-0.0905 1.17078,-0.36113 2.11667,-0.60142 0.94588,-0.24029 1.95791,-0.53462 2.24895,-0.65407 0.56268,-0.23094 2.308,-0.69877 3.83646,-1.02836 1.36776,-0.29493 2.11006,-0.76966 2.40132,-1.53574 0.14263,-0.37513 0.22622,-0.70732 0.18577,-0.73819 -0.0404,-0.0309 -0.96651,0.10145 -2.05792,0.29403 -1.09141,0.19258 -2.69875,0.42094 -3.57188,0.50748 -0.87312,0.0865 -1.94468,0.31937 -2.38125,0.51741 -1.88137,0.85347 -3.20222,1.47457 -3.57187,1.67961 -0.21828,0.12107 -0.86339,0.44781 -1.43357,0.72608 -0.68604,0.33482 -1.06665,0.71275 -1.12528,1.11737 -0.0606,0.4182 0.0105,0.55018 0.225,0.41762 0.17247,-0.1066 0.67884,-0.23307 1.12528,-0.28107 z m 17.14972,0.27283 c 0.60522,-0.10004 0.99218,-0.31094 0.99218,-0.54075 0,-0.59966 -2.48073,-0.36316 -2.59671,0.24755 -0.0957,0.50393 0.1063,0.54084 1.60453,0.2932 z m 11.4247,-0.65391 c -0.26692,-0.43188 -0.64293,-0.24067 -0.64293,0.32696 0,0.46733 0.0661,0.5067 0.39396,0.23461 0.21668,-0.17983 0.32871,-0.43253 0.24897,-0.56157 z m -5.85867,0.0599 c 0.21626,-0.21627 0.21111,-0.37787 -0.0194,-0.60838 -0.24213,-0.24213 -0.23114,-0.40847 0.0481,-0.7276 0.19908,-0.22755 0.44927,-0.69947 0.55598,-1.04871 l 0.19401,-0.63499 -0.79887,0.56884 c -0.43938,0.31287 -0.88157,0.56885 -0.98263,0.56885 -0.10106,0 -0.5769,0.18656 -1.05741,0.41457 -0.92472,0.43881 -1.38752,1.40265 -0.85001,1.77025 0.42493,0.29061 2.53653,0.0709 2.91025,-0.30283 z m 6.80324,-1.37823 c 0.0728,-0.0867 0.45901,-0.23766 0.85834,-0.33538 0.39933,-0.0977 0.70722,-0.26489 0.6842,-0.37147 -0.023,-0.10658 0.0515,-0.52675 0.16562,-0.93371 0.27239,-0.97147 0.0753,-1.12044 -0.75917,-0.5737 -0.37642,0.24664 -0.68441,0.35898 -0.68441,0.24964 0,-0.10934 -0.29245,0.0936 -0.64989,0.45109 -0.68452,0.68452 -1.26824,1.91386 -1.02448,2.15762 0.13821,0.13821 1.13589,-0.31759 1.40979,-0.64409 z m -12.02677,0.30904 c -0.0835,-0.13505 0.0881,-0.32166 0.38126,-0.41471 0.29761,-0.0945 0.53301,-0.40028 0.53301,-0.69249 0,-0.46078 -0.11859,-0.50152 -0.99219,-0.34088 -0.5457,0.10034 -1.07966,0.31409 -1.18658,0.47501 -0.35435,0.53333 -0.21114,0.90674 0.29682,0.77391 0.27462,-0.0718 0.5793,-0.001 0.67708,0.15706 0.0978,0.1582 0.23729,0.28763 0.31005,0.28763 0.0728,0 0.064,-0.11049 -0.0194,-0.24553 z m 19.62045,-1.49679 c 0.69247,-0.52817 0.9791,-0.61566 1.25819,-0.38403 0.19879,0.16498 0.41795,0.20489 0.48703,0.0887 0.22664,-0.38126 0.5047,-2.98941 0.31871,-2.98941 -0.3967,0 -2.75337,2.02162 -3.02173,2.59214 -0.31966,0.67957 -0.37659,1.37661 -0.11242,1.37661 0.0954,0 0.577,-0.3078 1.07022,-0.68399 z M 87.7606,161.65843 c 0,-0.15486 -0.16812,-0.12914 -0.39688,0.0607 -0.21828,0.18116 -0.39687,0.37059 -0.39687,0.42097 0,0.0504 0.17859,0.0231 0.39687,-0.0607 0.21828,-0.0838 0.39688,-0.2732 0.39688,-0.42097 z m 8.05994,-1.0839 c 0.65453,-0.53572 0.77262,-0.80914 0.71553,-1.65675 -0.0376,-0.55833 -0.11457,-1.06135 -0.17105,-1.11783 -0.0565,-0.0565 -0.58682,0.28638 -1.17855,0.76191 -0.96193,0.77303 -1.07587,0.98698 -1.07587,2.02024 0,1.28587 0.13035,1.28529 1.70994,-0.008 z m -11.73382,-0.70325 c 0.49266,-0.43424 1.03167,-0.79142 1.1978,-0.79375 0.31662,-0.004 0.74919,-1.29013 0.51339,-1.52594 -0.22548,-0.22547 -3.13135,1.3526 -3.43961,1.86794 -0.227,0.37947 -0.17993,0.55746 0.22734,0.8599 0.63249,0.46966 0.44837,0.51972 1.50108,-0.40815 z m 3.34872,0.30979 c 0.0644,-0.19335 -0.0565,-0.25248 -0.31419,-0.1536 -0.23044,0.0884 -0.41899,0.27703 -0.41899,0.41911 0,0.34776 0.60134,0.13 0.73318,-0.26551 z m 3.50016,-0.18172 c 0.18115,-0.21828 0.45595,-0.39688 0.61065,-0.39688 0.3564,0 1.50601,-1.06828 1.50601,-1.39946 0,-0.1369 -0.29765,-0.0539 -0.66146,0.18451 -0.3638,0.23837 -0.66145,0.37021 -0.66145,0.29297 0,-0.0772 -0.35719,0.17782 -0.79375,0.5668 -0.78831,0.70239 -1.00657,1.14893 -0.56157,1.14893 0.12771,0 0.38041,-0.17859 0.56157,-0.39687 z m -13.91172,-0.44706 c 0.44813,-0.63979 0.326,-1.02202 -0.16853,-0.52749 -0.1722,0.1722 -0.5274,0.31309 -0.78934,0.31309 -0.26194,0 -0.47625,0.17859 -0.47625,0.39687 0,0.59945 0.97317,0.47562 1.43412,-0.18247 z m 26.516,-0.55092 c 0.35145,-0.30683 0.51497,-0.68811 0.43169,-1.00658 -0.0737,-0.28196 0.0151,-0.87284 0.19747,-1.31305 0.18234,-0.44022 0.2558,-0.87614 0.16323,-0.96871 -0.2453,-0.24529 -1.49042,0.48101 -1.49042,0.86939 0,0.18157 -0.10324,0.36981 -0.22941,0.41832 -0.12617,0.0485 -0.31636,0.797 -0.42263,1.66332 -0.21197,1.72792 -0.2359,1.72194 1.35007,0.33731 z m -14.61697,0.18259 c 0.2209,-0.57564 0.20149,-1.17072 -0.0378,-1.16057 -0.49402,0.0209 -1.17763,0.79438 -1.03368,1.1695 0.20438,0.53261 0.86582,0.5271 1.07151,-0.009 z m 10.81008,-1.25894 c 0.25466,-0.20089 0.46302,-0.48185 0.46302,-0.62435 0,-0.1425 0.29766,-0.39471 0.66146,-0.56047 0.45411,-0.20691 0.67374,-0.53125 0.70063,-1.03466 0.062,-1.16085 0.10957,-1.4785 0.34037,-2.274 0.28348,-0.97709 -0.26299,-1.6349 -0.70574,-0.84951 -0.16128,0.2861 -0.57059,0.79753 -0.90956,1.13651 -0.33898,0.33897 -0.61632,0.68655 -0.61632,0.77239 0,0.0858 -0.30009,0.43418 -0.66686,0.7741 -0.56873,0.52707 -1.18523,2.39266 -1.18523,3.5866 0,0.24507 1.11687,-0.29443 1.91823,-0.92661 z m -19.20993,0.16356 c 0.57196,-0.36557 1.02751,-1.39652 0.61708,-1.39652 -0.1215,0 -0.3807,0.15978 -0.576,0.35508 -0.1953,0.1953 -0.62052,0.49715 -0.94494,0.67077 -0.71072,0.38037 -0.81996,1.15887 -0.12683,0.90385 0.25466,-0.0937 0.71847,-0.33363 1.03069,-0.53318 z m 11.55733,-1.2088 c 0.68005,-0.62435 1.23646,-1.33873 1.23646,-1.5875 0,-0.58595 -0.0591,-0.57578 -1.21591,0.20923 -1.15445,0.78343 -1.67456,1.41593 -1.6861,2.05044 -0.0127,0.7014 0.31236,0.57019 1.66555,-0.67217 z m -15.72237,0.45718 c 0.64083,-0.22315 1.31452,-0.34841 1.4971,-0.27835 0.1909,0.0733 0.40156,-0.14996 0.49577,-0.52534 0.12032,-0.47939 0.31998,-0.63541 0.75187,-0.58755 1.03352,0.11454 2.79364,-0.54799 2.95334,-1.11165 0.0815,-0.2878 0.21817,-0.76886 0.30363,-1.06902 0.14674,-0.51536 0.0635,-0.54115 -1.49399,-0.46302 -1.57447,0.079 -1.67899,0.12741 -2.30162,1.06648 -0.35874,0.54106 -0.87707,1.0551 -1.15185,1.14231 -0.27477,0.0872 -0.49959,0.2696 -0.49959,0.40532 0,0.13571 -0.1177,0.24675 -0.26156,0.24675 -0.14386,0 -0.47128,0.17633 -0.7276,0.39185 -0.25633,0.21552 -0.70417,0.56892 -0.99522,0.78534 -0.71387,0.53083 -0.0998,0.52949 1.42972,-0.003 z m 12.40493,-0.84334 c 0.671,-0.57433 0.87997,-0.99235 0.99199,-1.98438 0.15718,-1.39199 0.1146,-1.43727 -0.79266,-0.84281 -0.41105,0.26933 -0.69316,0.77726 -0.80746,1.45382 -0.0966,0.57193 -0.28439,1.10705 -0.41725,1.18916 -0.2956,0.18269 -0.32209,0.91181 -0.0331,0.91181 0.11464,0 0.59097,-0.32742 1.05851,-0.7276 z m 7.08319,-0.25447 c 1.17187,-0.97956 1.43645,-1.39918 0.88222,-1.39918 -0.47686,0 -2.35318,1.59998 -2.35318,2.00661 0,0.54906 0.17279,0.47771 1.47096,-0.60743 z m 11.32204,-0.12151 c 1.18244,-1.01344 1.27287,-1.17494 1.14722,-2.04881 -0.075,-0.52176 -0.044,-1.18677 0.0688,-1.47782 0.11288,-0.29104 0.15166,-0.67219 0.0862,-0.84701 -0.16399,-0.43786 -1.75931,0.6284 -2.29369,1.53303 -0.41536,0.70315 -0.80381,3.94563 -0.4723,3.94248 0.0991,-9.4e-4 0.75777,-0.49678 1.46376,-1.10187 z m -20.7305,0.14514 c 0,-0.57403 -0.0658,-0.63923 -0.38115,-0.37753 -0.20963,0.17398 -0.31595,0.48622 -0.23627,0.69386 0.23847,0.62146 0.61742,0.42731 0.61742,-0.31633 z m -0.26458,-2.01562 c 0,-0.11052 0.14882,-0.20468 0.33073,-0.20925 0.1819,-0.005 0.55781,-0.31969 0.83536,-0.70026 l 0.50464,-0.69195 -0.76922,0.1867 c -0.42307,0.10268 -1.45383,0.25351 -2.29058,0.33518 -1.39612,0.13627 -1.52135,0.20167 -1.52135,0.79447 0,0.58991 0.0804,0.6332 0.92604,0.49881 0.71287,-0.1133 0.92604,-0.0556 0.92604,0.2505 0,0.33145 0.0881,0.34264 0.52917,0.0672 0.29104,-0.18176 0.52917,-0.42089 0.52917,-0.53141 z m 18.79282,-2.54772 c -0.006,-0.52828 0.063,-1.43676 0.15254,-2.01884 l 0.16283,-1.05834 -0.60235,0.66146 c -0.33129,0.3638 -0.83439,0.9219 -1.11799,1.24021 -0.37749,0.42369 -0.54914,1.09715 -0.64064,2.51354 l -0.125,1.93479 1.09045,-1.15615 c 0.87346,-0.92609 1.0884,-1.34729 1.08016,-2.11667 z m -12.61331,1.94592 c 0.45757,-0.366 0.96142,-0.76933 1.11966,-0.89629 0.15824,-0.12697 0.30952,-0.84713 0.33618,-1.60037 l 0.0485,-1.36952 -1.05946,0.8514 c -0.76494,0.61473 -1.10385,1.11587 -1.21918,1.80279 -0.0879,0.52327 -0.21689,1.15975 -0.28675,1.41441 -0.17299,0.63059 0.08,0.58234 1.06107,-0.20242 z m 4.00094,-0.65137 c 0.71336,-0.72425 1.21443,-1.39941 1.11349,-1.50035 -0.10094,-0.10094 -0.45862,0.0749 -0.79485,0.39077 -0.33623,0.31587 -0.70875,0.57431 -0.82782,0.57431 -0.32695,0 -1.20461,1.08974 -1.20461,1.49569 0,0.61026 0.37213,0.40172 1.71379,-0.96042 z m 3.41197,0.1499 c 0.31163,0.11959 0.43049,0.0149 0.43049,-0.37913 0,-0.29938 0.15311,-0.63954 0.34025,-0.75591 0.53909,-0.33524 1.51184,-1.70048 1.51184,-2.12186 0,-0.24375 -0.50663,0.0189 -1.38907,0.72022 -1.48317,1.17871 -2.03118,1.92753 -2.03273,2.77755 -9e-4,0.49856 0.0196,0.50212 0.35389,0.0616 0.21119,-0.2783 0.52912,-0.40074 0.78533,-0.30242 z m 10.72102,-0.75551 c 0.28279,-0.62077 0.82155,-1.46034 1.19724,-1.86571 0.41327,-0.44593 0.68307,-1.04517 0.68307,-1.51716 0,-0.95363 -0.32081,-1.00236 -0.79282,-0.12041 -0.19418,0.36284 -0.63102,0.84183 -0.97075,1.06443 -0.42317,0.27728 -0.61768,0.65823 -0.61768,1.20977 0,0.44277 -0.12457,1.0378 -0.27682,1.32228 -0.24373,0.45541 -0.15772,1.03548 0.15353,1.03548 0.0605,0 0.34144,-0.50791 0.62423,-1.12868 z m -13.78993,-2.26152 c 1.24655,-1.11721 1.42001,-1.40526 1.6262,-2.70052 0.12695,-0.79745 0.17138,-1.54767 0.0987,-1.66715 -0.0727,-0.11948 -0.76754,0.42331 -1.5442,1.20618 -1.21151,1.22122 -1.43383,1.60443 -1.56507,2.69767 -0.0841,0.70084 -0.21735,1.37845 -0.29606,1.5058 -0.35402,0.57281 0.40113,0.10456 1.68039,-1.04198 z m 10.52192,0.41363 c 1.97809,-1.64129 2.58889,-2.84427 1.44415,-2.84427 -0.66683,0 -0.66815,-0.28111 -0.005,-1.1238 0.28813,-0.3663 0.64617,-0.98766 0.79564,-1.3808 0.31507,-0.82869 0.0609,-1.50119 -0.31406,-0.8311 -0.13432,0.24003 -0.35597,0.36735 -0.49255,0.28294 -0.13658,-0.0844 -0.24832,0.0974 -0.24832,0.40395 0,0.30658 -0.32598,0.85952 -0.7244,1.22876 -0.49579,0.45948 -0.82442,1.14435 -1.04134,2.17018 -0.3291,1.55627 -0.43069,2.68946 -0.24111,2.68946 0.0604,0 0.43267,-0.2679 0.82728,-0.59532 z m -6.38949,-1.70593 c 1.46391,-1.48744 2.04535,-2.48151 0.88833,-1.51874 -1.50799,1.25482 -2.57969,2.36946 -2.57969,2.68306 0,0.52272 0.0962,0.45651 1.69136,-1.16432 z m 3.78615,-1.19024 c 1.11262,-1.0784 1.19412,-1.83332 0.10369,-0.96041 -0.74633,0.59745 -1.52016,1.80606 -1.15635,1.80606 0.0991,0 0.57279,-0.38054 1.05266,-0.84565 z m 7.48707,-1.5356 c 0.4466,-0.43656 0.85595,-0.79375 0.90967,-0.79375 0.0537,0 0.52586,-0.37909 1.04921,-0.84243 0.96331,-0.85285 1.30014,-1.7292 0.55467,-1.44314 -0.21829,0.0838 -0.39688,0.037 -0.39688,-0.10398 0,-0.14096 -0.13295,-0.25628 -0.29544,-0.25628 -0.16344,0 -0.23469,0.23232 -0.15947,0.51996 0.0965,0.3689 -0.0291,0.57185 -0.43216,0.69857 -0.31248,0.0982 -0.98138,0.57862 -1.48646,1.06753 -0.50508,0.48892 -1.0111,0.88894 -1.12448,0.88894 -0.11339,0 -0.20616,0.23812 -0.20616,0.52917 0,0.7604 0.64973,0.65212 1.5875,-0.26459 z m -8.99583,-2.70203 c 0,-0.40565 -0.0893,-0.73755 -0.19844,-0.73754 -0.31439,1e-5 -1.65364,1.7837 -1.65364,2.20241 0,0.20824 -0.1786,0.52684 -0.39688,0.708 -0.21828,0.18115 -0.39687,0.51868 -0.39687,0.75005 0,0.26687 0.48368,-0.0557 1.32291,-0.88235 0.9595,-0.94506 1.32292,-1.50564 1.32292,-2.04057 z m 17.0812,1.76229 c 0.49358,-0.39458 0.48782,-0.40373 -0.14787,-0.23484 -0.81632,0.21687 -1.32423,0.64542 -0.76494,0.64542 0.21957,0 0.63034,-0.18476 0.91281,-0.41058 z m -22.09676,-1.08713 c 1.02857,-0.95167 1.28929,-1.41271 0.79889,-1.41271 -0.28632,0 -2.1276,1.88602 -2.13103,2.18281 -0.004,0.36752 0.28052,0.2029 1.33214,-0.7701 z m 23.67957,0.42177 c 0.28822,-0.46635 -0.0156,-0.53173 -0.55936,-0.12037 -0.44764,0.33866 -0.45526,0.38675 -0.0625,0.39414 0.24607,0.005 0.52589,-0.11857 0.62181,-0.27377 z m -14.23775,-0.40683 c -0.0879,-0.0879 -0.31612,-0.0973 -0.50712,-0.0209 -0.21107,0.0845 -0.14837,0.14715 0.15985,0.15985 0.27892,0.0115 0.43519,-0.051 0.34727,-0.13896 z m -9.96758,-0.96463 c 0.27315,-0.32742 0.50059,-0.69367 0.50543,-0.81387 0.0108,-0.26914 -1.54365,0.9342 -1.56405,1.21074 -0.03,0.40669 0.57861,0.17852 1.05862,-0.39687 z m 7.12882,-0.0661 c 0,-0.21828 0.12015,-0.39687 0.26699,-0.39687 0.50593,0 1.91467,-1.56567 1.76341,-1.95984 -0.0818,-0.2132 0.0827,-0.68191 0.36563,-1.04157 0.28292,-0.35966 0.51439,-0.8477 0.51439,-1.08453 0,-0.58531 -0.64022,-0.22665 -2.06693,1.15792 -0.80629,0.78247 -1.10807,1.28735 -1.10807,1.85378 0,0.42813 -0.11387,0.8488 -0.25303,0.93481 -0.29416,0.1818 -0.0676,0.93318 0.28133,0.93318 0.12996,0 0.23628,-0.17859 0.23628,-0.39688 z m -5.46908,-1.60968 c -0.0884,-0.23048 -0.23492,-0.31978 -0.32551,-0.19844 -0.0906,0.12134 -0.27245,0.30992 -0.40415,0.41906 -0.1317,0.10914 0.0148,0.19844 0.32551,0.19844 0.40677,0 0.51993,-0.11733 0.40415,-0.41906 z m 10.43953,-0.49506 c 0.55078,-0.01 0.72952,-0.1856 0.91483,-0.90083 0.12667,-0.4889 0.1646,-0.95462 0.0843,-1.03493 -0.15223,-0.15223 -1.47076,1.25945 -1.47133,1.57528 -1.8e-4,0.0993 -0.23845,0.25618 -0.52949,0.34856 -0.29104,0.0924 -0.52917,0.29357 -0.52917,0.4471 0,0.16578 0.17187,0.13652 0.42317,-0.0721 0.23275,-0.19316 0.73121,-0.35657 1.1077,-0.36313 z m 47.84149,-1.13089 c -0.26895,-0.26895 -0.49087,0.13597 -0.2702,0.49302 0.1667,0.26972 0.22902,0.26993 0.31864,0.001 0.0613,-0.18383 0.0395,-0.40617 -0.0484,-0.49409 z m -51.75361,-1.65916 c 0.15576,-0.29104 0.17841,-0.52916 0.0503,-0.52916 -0.12809,0 -0.44839,0.23812 -0.71177,0.52916 -0.42268,0.46706 -0.42859,0.52917 -0.0503,0.52917 0.23571,0 0.55601,-0.23813 0.71177,-0.52917 z m 3.90261,0.019 c 0.77464,-0.85358 1.08335,-1.17672 1.91388,-2.00334 0.43863,-0.43657 0.79764,-0.92439 0.7978,-1.08405 1.6e-4,-0.15966 0.26819,-0.4195 0.59561,-0.57741 0.36831,-0.17762 0.44398,-0.29355 0.19844,-0.30402 -0.37741,-0.0161 -2.10072,0.91058 -2.38125,1.28045 -0.0728,0.0959 -0.53809,0.48568 -1.03407,0.86609 -0.66601,0.51083 -0.90812,0.90616 -0.92604,1.51209 -0.028,0.94767 0.18525,1.02684 0.83563,0.31019 z m 3.58219,-0.21741 c 1.85538,-1.72628 2.83395,-2.69998 2.83395,-2.81983 0,-0.0707 -0.53802,-0.0626 -1.1956,0.0179 -1.67832,0.20554 -2.77315,1.20442 -2.77315,2.5301 0,0.54968 0.0794,0.99942 0.17639,0.99942 0.097,0 0.5283,-0.32742 0.95841,-0.72761 z m -1.92855,-3.50572 c 0,-0.14553 -0.12608,-0.26459 -0.28019,-0.26459 -0.15411,0 -0.20662,0.11906 -0.11668,0.26459 0.0899,0.14552 0.21603,0.26458 0.2802,0.26458 0.0642,0 0.11667,-0.11906 0.11667,-0.26458 z m 1.35038,-1.13671 c -0.33958,-0.33959 -0.68396,-0.0771 -0.43255,0.32967 0.0974,0.15757 0.29828,0.21159 0.44643,0.12003 0.18071,-0.11169 0.17614,-0.25968 -0.0139,-0.4497 z m 18.59914,31.52087 c -0.40524,-0.6557 0.61133,-0.78455 2.37476,-0.30102 0.31934,0.0876 0.43164,0.0317 0.31512,-0.15688 -0.11209,-0.18137 0.048,-0.29293 0.42044,-0.29293 0.52186,0 0.5502,0.0482 0.21405,0.36404 -0.4971,0.4671 -3.0884,0.76859 -3.32437,0.38679 z m -25.1179,-3.15985 c 3.47412,-3.25292 5.79118,-5.64071 6.18172,-6.37044 0.18904,-0.35324 0.69323,-1.01622 1.1204,-1.4733 0.42717,-0.45707 0.7768,-0.9268 0.77695,-1.04383 3.6e-4,-0.27652 3.02344,-3.18504 4.28156,-4.11931 0.53599,-0.39803 1.18748,-0.72368 1.44774,-0.72368 0.26027,0 1.27475,-0.25297 2.25441,-0.56216 2.89835,-0.91473 3.55637,-0.0254 0.73253,0.99003 -0.7195,0.25872 -1.30818,0.61514 -1.30818,0.79203 0,0.24681 -0.18274,0.25265 -0.78556,0.0251 -0.64266,-0.24258 -0.87128,-0.21894 -1.25677,0.12994 -2.6121,2.36405 -3.87532,3.6435 -3.73539,3.78343 0.0923,0.0923 0.74051,-0.44428 1.44037,-1.19249 1.50533,-1.60932 2.15617,-2.01958 2.56125,-1.6145 0.4479,0.4479 -0.16753,1.31913 -2.07174,2.93284 -0.93962,0.79627 -1.70841,1.59144 -1.70841,1.76703 0,0.3873 -0.72865,1.15082 -1.09825,1.15082 -0.36582,0 0.004,-1.58947 0.48087,-2.06624 0.36157,-0.36158 0.38449,-0.83324 0.0452,-0.93017 -0.17389,-0.0497 -2.33823,2.74007 -2.33823,3.01387 0,0.4256 -5.32818,5.59065 -6.61459,6.41206 -2.76493,1.7655 -2.90994,1.44358 -0.40588,-0.90104 z m 22.0113,0.43836 c -0.20391,-0.53138 0.0609,-0.62911 2.10152,-0.77555 0.88782,-0.0637 2.3761,-0.41038 3.30729,-0.77036 2.58236,-0.99831 2.61911,-1.00639 2.61911,-0.57617 0,0.21372 -0.11533,0.38857 -0.25628,0.38857 -0.14095,0 -0.18775,0.1786 -0.10398,0.39688 0.19188,0.50003 1.47453,0.51689 2.42392,0.0319 0.39295,-0.20075 1.13118,-0.45429 1.64051,-0.56342 0.50932,-0.10912 1.26259,-0.48065 1.67394,-0.82561 0.41135,-0.34497 0.9769,-0.62721 1.25677,-0.62721 0.27988,0 0.50887,-0.11906 0.50887,-0.26458 0,-0.33275 0.97463,-0.34948 1.17812,-0.0202 0.16911,0.27362 -1.20631,1.34315 -1.7273,1.34315 -0.18436,0 -0.55653,0.2003 -0.82705,0.44512 -0.67066,0.60694 -4.6147,1.91113 -5.82122,1.92492 -0.53885,0.006 -1.27596,-0.12376 -1.63801,-0.28872 -0.49574,-0.22588 -0.97245,-0.22041 -1.93068,0.0221 -0.69982,0.17713 -1.94018,0.38231 -2.75634,0.45596 -1.2082,0.10901 -1.51465,0.0539 -1.64919,-0.29673 z m -8.73132,-1.64761 c -0.30275,-0.30274 -0.18849,-1.35662 0.18787,-1.73299 0.19909,-0.19908 0.44511,-0.62391 0.54672,-0.94407 0.19996,-0.63001 2.32781,-2.01855 2.83448,-1.84966 0.17106,0.057 -0.42354,0.91322 -1.3249,1.90784 -1.39095,1.53486 -1.58632,1.8687 -1.30786,2.23484 0.18005,0.23674 0.22318,0.34217 0.0958,0.23429 -0.12733,-0.10788 -0.37249,-0.0791 -0.54479,0.0639 -0.1723,0.143 -0.39161,0.18165 -0.48736,0.0859 z m -3.55107,-1.45204 c -0.40964,-0.40964 -0.41547,-1.03215 -0.0186,-1.99007 0.1697,-0.40966 0.31853,-0.83254 0.33073,-0.93975 0.0623,-0.54817 3.15506,-4.03244 3.27088,-3.68499 0.051,0.15307 0.26367,0.21273 0.47255,0.13257 0.92911,-0.35653 0.14449,0.81541 -2.33929,3.49406 -0.459,0.49501 -0.72052,1.07177 -0.72052,1.58907 0,1.08367 -0.54515,1.84968 -0.99572,1.39911 z m 24.19723,-1.99988 c -1.25375,-0.18847 -0.63125,-0.72582 1.02906,-0.8883 1.44763,-0.14166 2.65738,-0.58834 3.05147,-1.12669 0.25532,-0.34878 1.88569,-0.34252 2.00927,0.008 0.16805,0.47632 -4.11898,2.29608 -5.08193,2.15717 -0.14552,-0.021 -0.59906,-0.0884 -1.00787,-0.1499 z m -2.23328,-2.63837 c -0.1819,-0.0688 -0.33072,-0.2774 -0.33072,-0.46352 0,-0.34661 2.73194,-0.81737 3.17048,-0.54633 0.12315,0.0761 0.26384,0.0196 0.31265,-0.12558 0.0488,-0.14517 0.44593,-0.29101 0.88249,-0.32408 0.43656,-0.0331 0.94602,-0.20763 1.13214,-0.38791 0.32417,-0.31402 1.12011,-0.21322 1.11378,0.14106 -0.004,0.20784 -1.6284,0.95384 -2.96212,1.36009 -1.14379,0.34841 -2.8441,0.52582 -3.3187,0.34627 z m -2.53559,-3.43241 c -0.42042,-0.42043 -0.1328,-0.88212 0.55122,-0.88481 0.91557,-0.004 2.82562,-0.57778 4.31361,-1.29669 1.40515,-0.6789 1.57337,-0.68446 1.57337,-0.052 0,0.32488 -0.25437,0.56433 -0.72495,0.68244 -0.39873,0.10007 -0.79251,0.29125 -0.87507,0.42484 -0.13776,0.2229 -3.71206,1.28202 -4.37515,1.29643 -0.15765,0.003 -0.36601,-0.0731 -0.46303,-0.17016 z m -2.033,-3.00203 c -0.76064,-0.57375 -0.53362,-0.69695 1.66936,-0.90595 0.98841,-0.0938 2.09827,-0.30771 2.46634,-0.47542 0.53812,-0.24518 0.71656,-0.23012 0.91081,0.0769 0.38696,0.6116 0.32201,0.67016 -1.13937,1.02714 -2.98532,0.72925 -3.28025,0.75018 -3.90714,0.27732 z m -1.65086,-4.19637 c -0.13113,-0.50146 -0.037,-0.56271 0.86477,-0.56271 0.55656,0 1.17049,-0.0562 1.3643,-0.12485 0.37514,-0.13291 1.46443,0.55618 1.23766,0.78295 -0.0739,0.0739 -0.85107,0.20932 -1.72699,0.30087 -1.47171,0.15382 -1.60375,0.12375 -1.73974,-0.39626 z m -1.51961,-2.26468 c 0,-0.40136 0.5982,-0.67318 2.41,-1.09511 0.48246,-0.11235 0.73653,-0.04 0.84411,0.24035 0.11285,0.29407 -0.17211,0.51216 -1.06807,0.81744 -1.51756,0.51709 -2.18604,0.5285 -2.18604,0.0373 z m -5.25377,-1.43733 c -0.29923,-0.19518 -0.30001,-0.27059 -0.005,-0.45313 0.38117,-0.23557 0.47718,-0.2564 2.4803,-0.53797 1.17124,-0.16465 1.28432,-0.13936 0.98625,0.22054 -0.18516,0.22357 -0.67729,0.47463 -1.09361,0.55789 -0.41632,0.0833 -1.03873,0.21786 -1.38313,0.2991 -0.3444,0.0812 -0.78772,0.0423 -0.98516,-0.0864 z m -6.12331,-8.91486 c 0,-0.22687 0.121,-0.33771 0.2689,-0.2463 0.14789,0.0914 0.2004,0.27702 0.11667,0.41249 -0.22681,0.36699 -0.38557,0.29856 -0.38557,-0.16619 z m 2.52174,-3.2784 c -0.13542,-0.21912 0.61692,-0.80703 1.03274,-0.80703 0.34145,0 0.11695,0.7497 -0.26883,0.89774 -0.54622,0.2096 -0.58084,0.20549 -0.76391,-0.0907 z"
       id="path19" />
  </g>
</svg>
