<?xml version="1.0" encoding="UTF-8" standalone="no"?>
<!-- Created with Inkscape (http://www.inkscape.org/) -->

<svg
   width="23.177618mm"
   height="10.830788mm"
   viewBox="0 0 23.177613 10.830786"
   version="1.1"
   id="svg1"
   inkscape:version="1.4.1-rc (06eac75fbf, 2025-03-29)"
   sodipodi:docname="forest2.svg"
   xmlns:inkscape="http://www.inkscape.org/namespaces/inkscape"
   xmlns:sodipodi="http://sodipodi.sourceforge.net/DTD/sodipodi-0.dtd"
   xmlns="http://www.w3.org/2000/svg"
   xmlns:svg="http://www.w3.org/2000/svg">
  <sodipodi:namedview
     id="namedview1"
     pagecolor="#ffffff"
     bordercolor="#000000"
     borderopacity="0.25"
     inkscape:showpageshadow="2"
     inkscape:pageopacity="0.0"
     inkscape:pagecheckerboard="0"
     inkscape:deskcolor="#d1d1d1"
     inkscape:document-units="mm"
     inkscape:zoom="1.4449635"
     inkscape:cx="44.291776"
     inkscape:cy="21.107799"
     inkscape:window-width="1850"
     inkscape:window-height="1016"
     inkscape:window-x="0"
     inkscape:window-y="0"
     inkscape:window-maximized="1"
     inkscape:current-layer="layer1" />
  <defs
     id="defs1" />
  <g
     inkscape:label="Layer 1"
     inkscape:groupmode="layer"
     id="layer1"
     transform="translate(-80.697907,-146.84381)">
    <path
       style="fill:#000000;stroke-width:0.360176"
       d="m 86.144537,157.62171 c -0.16807,-0.13268 0.31835,-0.30132 1.22303,-0.424 0.82524,-0.11191 1.05716,-0.11618 1.40394,-0.0259 0.2796,0.0729 0.40486,0.15187 0.38319,0.24174 -0.0435,0.18064 -0.44506,0.21515 -0.6156,0.0529 -0.15648,-0.14884 -0.37723,-0.18027 -0.26572,-0.0378 0.0516,0.0659 -0.1654,0.0826 -0.7401,0.057 -0.61011,-0.0272 -0.82673,-0.008 -0.86772,0.0761 -0.0558,0.11478 -0.40121,0.15453 -0.52102,0.06 z m 6.45757,-0.23644 c -0.0293,-0.0231 -0.34099,-0.063 -0.69275,-0.0886 -0.35176,-0.0257 -0.77832,-0.0696 -0.94793,-0.0976 -0.17439,-0.0289 -0.28219,-0.0175 -0.24812,0.0259 0.0339,0.0433 -0.14805,0.0388 -0.4156,-0.0102 -0.50598,-0.0927 -0.63576,-0.21544 -0.23453,-0.22185 2.30233,-0.0368 3.11385,0.0281 3.06153,0.24493 -0.0319,0.13214 -0.40769,0.23816 -0.5226,0.14744 z m 4.94211,-0.36624 c -0.14748,-0.0216 -0.29433,-0.0726 -0.32634,-0.11323 -0.032,-0.0406 -0.39399,-0.088 -0.80441,-0.10532 -0.63186,-0.0266 -0.75192,-0.0562 -0.78344,-0.19276 -0.0445,-0.19289 -0.23091,-0.37096 -0.23091,-0.22059 0,0.18408 -0.017,0.22746 -0.13248,0.33726 -0.0907,0.0863 -0.16607,0.0702 -0.36627,-0.0783 -0.13862,-0.10281 -0.25357,-0.26601 -0.25544,-0.36267 -0.003,-0.16412 -0.0128,-0.16594 -0.1459,-0.0276 -0.17922,0.18638 -0.34753,0.18878 -0.47655,0.007 -0.074,-0.10442 -0.25772,-0.14316 -0.70251,-0.14817 -0.33125,-0.004 -0.61515,0.0237 -0.63087,0.061 -0.0519,0.12309 -0.75126,0.16021 -1.00431,0.0533 -0.13664,-0.0577 -0.30044,-0.22938 -0.36401,-0.38144 -0.18406,-0.44028 -0.38069,-0.51528 -0.52055,-0.19857 -0.0836,0.18936 -0.166,0.25153 -0.28539,0.21536 -0.10192,-0.0309 -0.1405,-0.0159 -0.0982,0.0381 0.0383,0.0489 0.1885,0.1246 0.33379,0.16821 0.2947,0.0884 0.24517,0.24896 -0.0768,0.24896 -0.1145,0 -0.20818,0.0309 -0.20818,0.0687 0,0.0378 0.28866,0.0663 0.64145,0.0634 0.60355,-0.005 1.0953,0.13376 0.9318,0.26284 -0.0405,0.032 -0.22998,0.0518 -0.42119,0.0441 -0.19121,-0.008 -0.82402,-0.0316 -1.40624,-0.0532 -0.58222,-0.0216 -1.08423,-0.0595 -1.11557,-0.0843 -0.0314,-0.0247 -0.11723,0.02 -0.19088,0.0996 -0.11042,0.11921 -0.17808,0.12749 -0.38599,0.0472 -0.13866,-0.0535 -0.32191,-0.11215 -0.40723,-0.13024 -0.11263,-0.0239 -0.15671,-0.17224 -0.16089,-0.54144 -0.004,-0.36692 -0.058,-0.5498 -0.19346,-0.65671 -0.10323,-0.0815 -0.18769,-0.22093 -0.18769,-0.30986 0,-0.10611 -0.10136,-0.18126 -0.29495,-0.21866 -0.16222,-0.0313 -0.33041,-0.0987 -0.37375,-0.14979 -0.0543,-0.0639 -0.0793,-0.0599 -0.0804,0.013 -5.8e-4,0.0582 -0.0982,0.10584 -0.21615,0.10584 -0.11798,0 -0.21451,0.0422 -0.21451,0.0937 0,0.0515 -0.0724,0.0718 -0.16088,0.045 -0.10795,-0.0327 -0.16089,0.004 -0.16089,0.11089 0,0.0878 -0.0603,0.17664 -0.13407,0.19743 -0.31634,0.0892 0.089,0.17802 0.77267,0.16932 0.57861,-0.007 0.75367,0.0193 0.80386,0.12259 0.0353,0.0726 0.051,0.13606 0.0348,0.14104 -0.0162,0.005 -0.1243,0.0505 -0.24036,0.10122 -0.14224,0.0621 -0.34066,0.0662 -0.60874,0.0125 -0.32529,-0.0652 -0.44739,-0.0511 -0.67047,0.0772 -0.15,0.0863 -0.27425,0.24012 -0.27611,0.34187 -0.006,0.33215 -0.20239,0.61938 -0.4234,0.61938 -0.11596,0 -0.23679,-0.0332 -0.2685,-0.0737 -0.0317,-0.0405 -0.58927,-0.10086 -1.239,-0.1341 -0.64972,-0.0333 -1.20961,-0.0966 -1.24418,-0.14075 -0.0368,-0.047 0.0951,-0.0666 0.31798,-0.0472 0.22757,0.0198 0.35506,2.1e-4 0.31679,-0.0487 -0.0377,-0.0481 0.0237,-0.0598 0.14879,-0.0285 0.22619,0.0567 0.56481,-0.0122 0.56481,-0.11481 0,-0.0771 -0.1122,-0.0921 -0.91166,-0.12192 -0.53795,-0.0201 -0.64913,-0.0507 -0.67763,-0.18641 -0.0188,-0.0893 -0.10322,-0.28247 -0.1877,-0.42922 -0.0845,-0.14675 -0.15359,-0.29435 -0.15359,-0.32801 0,-0.0337 -0.21814,-0.21278 -0.48474,-0.39804 -0.2666,-0.18526 -0.53736,-0.41447 -0.60169,-0.50935 -0.10768,-0.15884 -0.2069,-0.95698 -0.20798,-1.67296 -4e-4,-0.39453 0.24268,-1.10014 0.38031,-1.10306 0.0603,-0.001 0.23035,-0.13107 0.37782,-0.28841 0.27784,-0.29644 0.5989,-0.38378 1.41776,-0.3857 0.3219,-4.6e-4 0.38614,0.0252 0.33295,0.13463 -0.0362,0.0745 0.002,0.16922 0.0838,0.21037 0.17565,0.0878 0.37888,0.10312 0.27445,0.0207 -0.0395,-0.0312 0.005,-0.14972 0.0996,-0.26337 0.0943,-0.11364 0.14923,-0.29858 0.12202,-0.41097 -0.0272,-0.11239 -0.006,-0.22569 0.0477,-0.25178 0.0535,-0.0261 0.0706,-0.1138 0.0379,-0.19492 -0.0406,-0.10089 0.0936,-0.26059 0.42465,-0.50556 0.26618,-0.19695 0.48395,-0.38933 0.48395,-0.42752 0,-0.0382 0.15686,-0.12945 0.34858,-0.20279 0.31565,-0.12076 0.37265,-0.12091 0.60339,-0.001 0.19499,0.10078 0.27379,0.10748 0.3356,0.0285 0.0617,-0.0788 0.0931,-0.0759 0.13271,0.0122 0.0813,0.18075 0.1893,0.0443 0.35332,-0.4466 0.0832,-0.24889 0.20078,-0.46556 0.26136,-0.4815 0.0606,-0.0159 0.11014,-0.0822 0.11014,-0.14732 0,-0.12985 0.40601,-0.23846 0.71549,-0.19141 0.31098,0.0473 0.24431,0.28583 -0.072,0.25751 -0.36878,-0.033 -0.49964,0.16814 -0.64151,0.98607 -0.15333,0.88407 -0.0429,1.20728 0.60874,1.78126 0.82911,0.73032 1.49534,0.89329 1.37082,0.33532 -0.0387,-0.1736 -0.0107,-0.29523 0.0785,-0.34073 0.11078,-0.0565 0.10631,-0.0878 -0.0222,-0.15544 -0.13344,-0.0702 -0.13606,-0.0973 -0.0153,-0.15877 0.0867,-0.0442 0.11827,-0.14194 0.078,-0.24206 -0.0412,-0.10245 -0.004,-0.20969 0.0958,-0.27495 0.13947,-0.0914 0.1655,-0.0715 0.17832,0.13622 0.008,0.13377 0.0278,0.43572 0.0433,0.67102 0.0156,0.23529 0.10289,0.56869 0.19403,0.74087 0.16177,0.30565 0.1601,0.3131 -0.0702,0.31437 -0.1916,9.2e-4 -0.20567,0.0167 -0.075,0.0834 0.0885,0.0452 0.10565,0.0827 0.0382,0.0834 -0.0675,4.6e-4 -0.11577,0.0965 -0.10726,0.21291 0.009,0.11639 0.0551,0.21165 0.10357,0.21168 0.15379,10e-5 0.35987,0.20917 0.31379,0.31833 -0.0244,0.0578 0.008,0.10508 0.0718,0.10508 0.1501,0 0.14925,0.40792 -0.002,0.74941 -0.0773,0.1751 -0.18895,0.26665 -0.32513,0.26665 -0.28059,0 -0.36206,0.20669 -0.16779,0.42565 0.17873,0.20143 0.30552,0.1163 0.23814,-0.1599 -0.0383,-0.15713 -0.016,-0.16992 0.16408,-0.0939 0.11465,0.0484 0.20845,0.15703 0.20845,0.24131 0,0.0843 0.0904,0.21784 0.20092,0.29679 0.14438,0.10314 0.19281,0.23788 0.1721,0.47881 -0.0331,0.38536 0.0997,0.44582 0.22494,0.10243 0.14015,-0.38418 0.13983,-0.56267 -0.001,-0.74088 -0.0738,-0.0931 -0.13411,-0.30269 -0.13407,-0.46569 1.2e-4,-0.49792 -0.15078,-1.27006 -0.24821,-1.27006 -0.10341,0 -0.0639,-0.81193 0.0502,-1.03068 0.069,-0.13239 0.0862,-0.13239 0.26305,0 0.10406,0.0779 0.17592,0.1625 0.15967,0.188 -0.0163,0.0255 0.0148,0.10172 0.069,0.16935 0.0782,0.0975 0.0989,0.0863 0.10019,-0.0546 5.8e-4,-0.0977 0.10131,-0.21269 0.22314,-0.2556 0.21903,-0.0772 0.21843,-0.0808 -0.0535,-0.33045 -0.32165,-0.29526 -0.32704,-0.32301 -0.11292,-0.581 0.14504,-0.17475 0.14489,-0.22858 -0.002,-0.50505 -0.0901,-0.1702 -0.2114,-0.30945 -0.2696,-0.30945 -0.0582,0 -0.10582,-0.0572 -0.10582,-0.12701 0,-0.0699 -0.0668,-0.127 -0.14837,-0.127 -0.25463,0 -0.28457,-0.33559 -0.0467,-0.52338 0.19815,-0.15643 0.20268,-0.18427 0.0496,-0.30509 -0.13561,-0.10705 -0.22022,-0.11431 -0.43443,-0.0373 -0.22091,0.0795 -0.27159,0.16457 -0.29891,0.50188 -0.027,0.33351 -0.0719,0.41061 -0.25107,0.43085 -0.16027,0.0181 -0.22301,-0.0261 -0.23642,-0.16673 -0.0101,-0.10526 0.0398,-0.22056 0.11091,-0.25621 0.0777,-0.039 0.0103,-0.0653 -0.16915,-0.0661 -0.2827,-0.001 -0.3866,-0.0874 -0.43784,-0.36299 -0.0124,-0.0665 -0.10903,-0.22518 -0.21482,-0.35264 -0.23334,-0.28114 -0.19778,-0.32601 0.15016,-0.18945 0.1455,0.0571 0.31526,0.22669 0.37724,0.37686 0.18145,0.4396 0.33606,0.50321 0.42644,0.17544 0.043,-0.15595 0.13234,-0.3407 0.19854,-0.41056 0.18285,-0.19295 0.63731,-0.19325 0.89925,-4.6e-4 0.29156,0.21444 0.41472,0.21465 0.48555,9.3e-4 0.0308,-0.093 0.14504,-0.1978 0.25383,-0.23285 0.16146,-0.052 0.19946,-0.16234 0.20673,-0.60036 0.009,-0.51217 0.15481,-0.75204 0.38899,-0.63778 0.0475,0.0232 0.16186,-0.0174 0.25411,-0.0902 0.22473,-0.17742 0.43142,-0.16687 0.60694,0.0309 0.0797,0.0899 0.28544,0.1912 0.45714,0.22522 0.1717,0.034 0.42513,0.15101 0.56316,0.25999 0.13805,0.10897 0.29353,0.19813 0.34551,0.19813 0.17538,0 0.40042,0.4711 0.31357,0.65643 -0.11019,0.23516 0.12926,0.40363 0.40498,0.28493 0.10786,-0.0464 0.3308,-0.10689 0.49544,-0.13435 0.16463,-0.0275 0.27033,-0.087 0.23486,-0.13228 -0.0355,-0.0453 0.0614,-0.12013 0.21526,-0.1663 0.37675,-0.11308 0.8677,0.0578 1.30605,0.45446 0.18668,0.16895 0.41003,0.30718 0.49632,0.30718 0.26791,0 0.44753,0.26029 0.46074,0.66767 0.0298,0.92017 0.0322,0.92785 0.28552,0.95838 0.13273,0.016 0.22775,0.0794 0.21116,0.14083 -0.0165,0.0615 0.0316,0.0945 0.10726,0.0734 0.0841,-0.0234 0.12826,-0.15792 0.11381,-0.34662 -0.0197,-0.25659 0.0118,-0.30829 0.18769,-0.30829 0.16328,0 0.21131,0.0577 0.21131,0.25401 0,0.17632 0.0524,0.25402 0.17148,0.25402 0.19836,0 0.900133,0.24818 1.070683,0.37864 0.0638,0.0488 0.14916,0.19313 0.18974,0.32073 0.0502,0.15805 0.14351,0.23201 0.29255,0.23201 0.12034,0 0.19047,0.0362 0.15584,0.0804 -0.0346,0.0442 0.0318,0.12044 0.1475,0.16935 0.24723,0.10445 0.36348,0.11439 0.29712,0.0254 -0.0261,-0.0349 0.002,-0.15877 0.0632,-0.27519 0.19445,-0.37244 0.19942,-0.50675 0.0167,-0.4514 -0.0918,0.0278 -0.28486,4.6e-4 -0.4291,-0.0602 -0.21476,-0.0907 -0.25228,-0.15791 -0.2073,-0.37111 0.0302,-0.14317 0.0748,-0.35556 0.099,-0.47199 0.0242,-0.11642 0.0776,-0.27825 0.11866,-0.35962 0.0527,-0.10453 -0.0232,-0.21565 -0.25856,-0.37871 -0.18322,-0.12692 -0.33313,-0.27396 -0.33313,-0.32676 0,-0.0528 -0.13273,-0.0946 -0.29495,-0.0928 -0.162233,0.001 -0.379423,-0.0269 -0.482653,-0.0635 -0.13595,-0.0483 -0.1877,-0.0292 -0.1877,0.0693 0,0.0748 -0.0724,0.13606 -0.16088,0.13606 -0.0885,0 -0.16088,0.0495 -0.16088,0.11008 0,0.20446 -0.22879,0.3141 -0.38995,0.18688 -0.20685,-0.1633 -0.1884,-0.20987 0.18844,-0.47546 0.27082,-0.19088 0.32553,-0.28563 0.28641,-0.49602 -0.0278,-0.14951 0.009,-0.29753 0.0861,-0.34818 0.15261,-0.1 0.901523,-0.0163 0.901523,0.10074 0,0.0414 0.0734,0.0753 0.16319,0.0753 0.0897,0 0.4707,0.19079 0.84657,0.42397 0.67621,0.41952 0.68245,0.42723 0.59441,0.73536 -0.0729,0.25511 -0.0474,0.35744 0.14071,0.56603 0.21966,0.24353 0.25682,0.66636 0.15901,1.80967 -0.0129,0.15174 -0.19412,0.13045 -0.36027,-0.0423 -0.13238,-0.13767 -0.14272,-0.13511 -0.14589,0.0362 -0.002,0.1014 -0.1319,0.26415 -0.28893,0.36166 -0.26808,0.16646 -0.27379,0.18405 -0.0937,0.28803 0.1513,0.0873 0.16789,0.14605 0.0785,0.27793 -0.0624,0.092 -0.0804,0.20933 -0.0401,0.2608 0.10724,0.13698 0.55529,-0.17429 0.55529,-0.38577 0,-0.2715 0.34711,-0.29153 0.8913,-0.0514 0.39696,0.17515 0.50966,0.27629 0.56436,0.50649 0.0376,0.15821 0.1357,0.33177 0.21802,0.3857 0.0823,0.0539 0.14966,0.15587 0.14966,0.22653 0,0.0707 0.0652,0.17078 0.14488,0.22248 0.12028,0.0781 0.10082,0.20618 -0.1146,0.75466 -0.21122,0.53779 -0.31297,0.6792 -0.54709,0.76032 -0.15818,0.0548 -0.31448,0.12888 -0.34733,0.16459 -0.0328,0.0357 -0.2259,0.0754 -0.42902,0.0882 -0.34201,0.0216 -0.37326,0.0477 -0.42292,0.35353 -0.0295,0.18163 -0.11547,0.34631 -0.19105,0.36595 -0.0756,0.0196 -0.13069,0.004 -0.12247,-0.0357 0.0393,-0.18783 -0.15808,-0.45844 -0.31707,-0.43467 -0.23661,0.0354 -0.28095,0.44365 -0.0736,0.67739 0.0923,0.10407 0.16789,0.22241 0.16789,0.26299 0,0.10764 -1.08457,-0.022 -1.36681,-0.16344 -0.351383,-0.17602 -0.861083,-0.20515 -0.934833,-0.0534 -0.0473,0.0973 -0.11136,0.0747 -0.28687,-0.10146 -0.14342,-0.14394 -0.2898,-0.20902 -0.40074,-0.17817 -0.0961,0.0267 -0.0616,-0.0215 0.0768,-0.10715 0.22735,-0.14076 0.2473,-0.20808 0.20732,-0.69965 -0.0425,-0.5227 -0.0548,-0.54305 -0.31421,-0.52174 -0.57007,0.0468 -0.88992,-0.56752 -0.67872,-1.30362 0.13314,-0.46401 0.0872,-1.38569 -0.0691,-1.38569 -0.0517,0 -0.094,-0.093 -0.094,-0.20669 0,-0.11367 -0.0483,-0.23023 -0.10725,-0.259 -0.059,-0.0288 -0.10726,-0.15973 -0.10726,-0.29098 0,-0.13126 -0.0686,-0.28362 -0.1525,-0.33856 -0.24532,-0.16074 -0.3116,-0.695 -0.12185,-0.98227 0.0912,-0.13803 0.16608,-0.27449 0.16644,-0.30324 3.6e-4,-0.0287 -0.33841,-0.32476 -0.75281,-0.65781 -0.63429,-0.50975 -0.7364,-0.63072 -0.6455,-0.7648 0.0813,-0.11993 0.0687,-0.17117 -0.0509,-0.20742 -0.0874,-0.0265 -0.16259,-0.0207 -0.16708,0.0127 -0.005,0.0334 -0.028,0.30851 -0.0524,0.61121 -0.0434,0.54035 -0.20714,0.93139 -0.38996,0.93139 -0.17412,0 -0.21917,-0.2602 -0.0702,-0.40535 0.18144,-0.17676 0.19088,-0.4576 0.017,-0.50337 -0.077,-0.0202 -0.15383,0.0943 -0.19407,0.28941 -0.0366,0.17763 -0.1082,0.40425 -0.15905,0.50362 -0.0631,0.12326 -0.0419,0.23761 0.0665,0.35986 0.20128,0.22684 0.39747,0.23312 0.30771,0.01 -0.082,-0.20391 0.23847,-0.24422 0.33661,-0.0423 0.034,0.0699 0.12896,0.127 0.21114,0.127 0.0943,0 0.1494,0.0931 0.1494,0.25249 0,0.19574 0.13104,0.35054 0.58289,0.68864 0.4446,0.33268 0.59951,0.51382 0.65296,0.76357 0.0386,0.18007 0.1137,0.32742 0.16702,0.32742 0.10309,0 0.0488,1.18721 -0.0716,1.56596 -0.0392,0.12347 -0.17676,0.25612 -0.30559,0.29478 -0.19445,0.0584 -0.22657,0.12201 -0.18918,0.37485 0.0248,0.1675 0.0813,0.30454 0.12568,0.30454 0.0444,0 0.0622,0.10478 0.0396,0.23285 -0.0409,0.23216 -0.0407,0.23224 0.0721,0.0273 0.0622,-0.11306 0.0871,-0.33498 0.0552,-0.49317 -0.0478,-0.23735 -0.0265,-0.28283 0.12203,-0.26015 0.19239,0.0294 0.44509,0.77322 0.45808,1.34842 0.009,0.41615 0.20943,0.83818 0.39726,0.83818 0.2215,0 0.61115,0.30858 0.52637,0.41687 -0.0716,0.0914 -0.41597,0.10223 -0.91674,0.0287 z m -12.67004,-0.66041 c 0.0245,-0.0193 -0.004,-0.0837 -0.0634,-0.14303 -0.0593,-0.0593 -0.10916,-0.16503 -0.11068,-0.23489 -0.002,-0.0699 -0.0527,-0.35562 -0.1138,-0.63503 -0.0956,-0.43731 -0.0839,-0.5502 0.0841,-0.81097 0.11315,-0.17569 0.17209,-0.39798 0.14031,-0.5292 -0.0301,-0.12444 -0.007,-0.22625 0.0519,-0.22625 0.17729,0 0.33833,0.20682 0.42885,0.55077 0.0472,0.17921 0.1362,0.33911 0.19784,0.35533 0.16834,0.0443 0.32315,-0.46423 0.3036,-0.99726 -0.0228,-0.62002 -0.28425,-0.95386 -0.70868,-0.90468 -0.20281,0.0235 -0.30323,-0.002 -0.30323,-0.0772 0,-0.15882 -0.49972,-0.14034 -0.57833,0.0214 -0.0358,0.0736 -0.0352,0.22749 0.001,0.3421 0.0437,0.13734 0.003,0.2631 -0.11786,0.36895 -0.10125,0.0883 -0.15106,0.2028 -0.11068,0.25438 0.0404,0.0516 0.0875,0.21591 0.10473,0.36519 0.0172,0.14927 0.0665,0.37619 0.10959,0.50425 0.0705,0.2097 0.0509,0.23284 -0.1977,0.23284 -0.16622,0 -0.32165,-0.0674 -0.39079,-0.16934 -0.13504,-0.1992 -0.32177,-0.22376 -0.32177,-0.0423 0,0.0699 0.0515,0.12702 0.11449,0.12702 0.14021,0 0.0158,0.35399 -0.15576,0.44322 -0.0658,0.0342 -0.0806,0.0628 -0.0328,0.0635 0.0477,4.6e-4 0.0572,0.039 0.0211,0.0851 -0.12512,0.15982 -0.36379,-0.11043 -0.24868,-0.28159 0.12217,-0.18167 0.081,-0.2426 -0.10314,-0.15275 -0.18867,0.0921 -0.19736,0.4351 -0.0191,0.7527 0.13946,0.24845 0.19894,0.27518 0.61238,0.27518 0.25186,0 0.56587,0.0476 0.69779,0.10584 0.13193,0.0582 0.25307,0.10991 0.26921,0.11489 0.0161,0.005 8e-5,0.0692 -0.0357,0.14283 -0.038,0.0781 -0.1394,0.11507 -0.24385,0.0888 -0.14387,-0.0362 -0.14934,-0.0284 -0.028,0.0397 0.13661,0.0767 0.63749,0.0569 0.74691,-0.0295 z m 11.63287,-0.42238 c -0.01,-0.27824 -0.0392,-0.60115 -0.0648,-0.71758 -0.0256,-0.11642 -0.0832,-0.39266 -0.128,-0.61386 -0.0887,-0.4379 -0.3122,-0.53862 -0.42287,-0.19052 -0.037,0.11643 -0.14513,0.21168 -0.24026,0.21168 -0.14492,0 -0.15959,0.0583 -0.0905,0.35986 0.0453,0.19792 0.086,0.59623 0.0903,0.88514 0.007,0.49504 0.0235,0.52726 0.28023,0.55966 0.56639,0.0715 0.59546,0.0465 0.57595,-0.49438 z m 0.61547,-0.0686 c -0.0707,-0.15027 -0.0943,-0.11766 -0.1306,0.18095 -0.0244,0.20033 -0.0198,0.38367 0.0103,0.40741 0.10544,0.0832 0.20564,-0.40696 0.12027,-0.58836 z m 3.388143,0.32198 c -0.0229,-0.1645 -0.0692,-0.32072 -0.10264,-0.34716 -0.0939,-0.0741 -0.30125,0.0549 -0.23147,0.14408 0.0339,0.0434 0.0106,0.0788 -0.0519,0.0788 -0.159733,0 -0.142143,0.31547 0.0205,0.36727 0.33025,0.10521 0.407,0.0542 0.36551,-0.24301 z m -11.075243,0.14387 c 0.0304,-0.0388 -0.003,-0.0754 -0.0741,-0.0813 -0.0712,-0.006 -0.27415,-0.0334 -0.45112,-0.0611 l -0.32177,-0.0504 0.26814,0.12865 c 0.30385,0.14578 0.49807,0.16729 0.57886,0.0641 z m 10.22951,-0.0982 c -0.0841,-0.10635 -0.2034,-0.15119 -0.32267,-0.1213 -0.11101,0.0278 -0.18921,0.004 -0.18921,-0.0571 0,-0.0575 -0.0253,-0.0845 -0.0562,-0.0602 -0.10701,0.0845 0.0746,0.31169 0.21506,0.26912 0.0776,-0.0235 0.17302,-0.002 0.21197,0.0477 0.039,0.0497 0.11663,0.0904 0.17263,0.0904 0.056,0 0.0418,-0.0759 -0.0316,-0.16871 z m -10.14144,-0.27549 c 0.0257,-0.0584 -0.021,-0.28941 -0.10363,-0.51337 -0.13581,-0.36786 -0.17806,-0.40467 -0.43725,-0.38103 -0.223,0.0204 -0.31528,0.0948 -0.41418,0.33396 -0.2009,0.48587 -0.0981,0.63656 0.44542,0.65279 0.28846,0.009 0.48056,-0.0262 0.50964,-0.0924 z m 4.9607,-0.46603 c -0.0444,-0.17463 -0.0741,-0.56302 -0.066,-0.86309 0.01,-0.35396 -0.0322,-0.56955 -0.11887,-0.61386 -0.0941,-0.0481 -0.0605,-0.0841 0.11375,-0.12176 0.14045,-0.0304 0.22477,-0.1 0.19506,-0.16111 -0.0712,-0.1464 0.17352,-0.39002 0.31442,-0.31304 0.0623,0.034 0.17679,0.18575 0.25434,0.3371 0.14641,0.28576 0.19795,0.30971 0.48159,0.22379 0.23306,-0.0706 0.21269,-0.34439 -0.0449,-0.60287 -0.31835,-0.3195 -0.27197,-0.39069 0.21451,-0.32927 0.38109,0.0481 0.42902,0.0351 0.42902,-0.11619 0,-0.0937 -0.0483,-0.17034 -0.10725,-0.17034 -0.059,0 -0.10726,-0.0921 -0.10726,-0.20463 0,-0.11254 -0.0437,-0.21732 -0.0971,-0.23284 -0.12679,-0.0369 -0.17116,-0.41178 -0.0704,-0.59527 0.0964,-0.17562 -0.18102,-0.48609 -0.6522,-0.72992 -0.31987,-0.16554 -0.34715,-0.16706 -0.50626,-0.0283 -0.10059,0.0877 -0.21062,0.43453 -0.27382,0.86297 -0.0581,0.39395 -0.13821,0.8401 -0.178,0.99145 -0.0592,0.22536 -0.0391,0.27518 0.11089,0.27518 0.10077,0 0.16593,0.041 0.1448,0.091 -0.0211,0.0501 -0.0734,0.0882 -0.1162,0.0847 -0.0428,-0.004 -0.14479,-0.006 -0.22671,-0.006 -0.25516,0 -0.31154,-0.5704 -0.12067,-1.22088 0.15453,-0.52668 0.15749,-0.64072 0.0243,-0.93824 -0.0834,-0.18627 -0.21919,-0.33868 -0.30173,-0.33868 -0.0825,0 -0.13802,0.0476 -0.12328,0.10584 0.0148,0.0582 -0.0214,0.10584 -0.0804,0.10584 -0.059,0 -0.10726,0.0571 -0.10726,0.127 0,0.0699 -0.0448,0.12701 -0.0996,0.12701 -0.0547,0 -0.0996,-0.34291 -0.0996,-0.76204 0,-0.41912 0.042,-0.76204 0.0933,-0.76204 0.11977,0 0.26369,0.17551 0.27775,0.33869 0.006,0.0699 0.0196,0.2413 0.0301,0.38102 0.0164,0.21816 0.0348,0.23276 0.13014,0.10347 0.1894,-0.25687 -0.20052,-2.00753 -0.5066,-2.27454 -0.10966,-0.0956 -0.18644,-0.25593 -0.17063,-0.35616 0.0332,-0.2104 -0.38475,-0.40368 -0.75213,-0.34783 -0.12511,0.019 -0.28707,-0.005 -0.35993,-0.0522 -0.17575,-0.11515 -0.29514,0.0364 -0.2051,0.26034 0.0546,0.13581 0.0307,0.1569 -0.12441,0.1099 -0.16269,-0.0493 -0.15557,-0.0216 0.0466,0.1813 0.27525,0.27624 0.2885,0.3692 0.0831,0.58315 -0.12077,0.12581 -0.19058,0.13717 -0.37198,0.0605 -0.19885,-0.084 -0.2233,-0.0709 -0.2233,0.11967 0,0.25254 0.37362,0.63791 0.89125,0.91929 0.25494,0.13858 0.2762,0.76632 0.0331,0.97836 -0.19153,0.16707 -0.23521,0.64839 -0.0663,0.73079 0.1546,0.0754 0.13197,0.36083 -0.0349,0.44031 -0.20556,0.0979 -0.29804,0.34862 -0.15446,0.41867 0.0677,0.033 0.32538,0.0518 0.57268,0.0416 0.37683,-0.0154 0.50376,0.0244 0.78394,0.24554 0.18387,0.14516 0.33431,0.31054 0.33431,0.36753 0,0.189 0.26599,0.5594 0.40221,0.56007 0.17894,9.2e-4 0.16903,0.0838 -0.0308,0.25819 -0.13687,0.11941 -0.14253,0.18267 -0.0332,0.37202 0.10315,0.17872 0.10381,0.31039 0.003,0.60779 -0.0937,0.27658 -0.097,0.4263 -0.0121,0.55149 0.14752,0.21761 0.0527,0.42548 -0.1641,0.3598 -0.0907,-0.0275 -0.16495,-0.008 -0.16495,0.0438 0,0.055 0.2045,0.0937 0.49459,0.0937 h 0.49458 z m -1.24492,0.0113 c 0.23394,-0.12935 0.24406,-0.17457 0.18499,-0.82554 -0.13157,-1.44971 -0.22931,-1.71277 -0.60171,-1.61947 -0.11088,0.0278 -0.21206,-0.006 -0.24924,-0.082 -0.0419,-0.0862 -0.17902,-0.12139 -0.41491,-0.10649 -0.26795,0.0169 -0.36029,0.066 -0.38558,0.20474 -0.0183,0.10037 -0.0963,0.22379 -0.17333,0.27427 -0.11464,0.0751 -0.11525,0.17609 -0.003,0.55592 0.17648,0.59935 0.11699,0.79078 -0.2295,0.73848 -0.24414,-0.0368 -0.25465,-0.0243 -0.15267,0.18233 0.0602,0.12203 0.15883,0.32181 0.21911,0.44394 l 0.10959,0.22205 0.2658,-0.22642 c 0.14619,-0.12452 0.26654,-0.29113 0.26744,-0.37022 5.9e-4,-0.0791 0.0501,-0.20097 0.1093,-0.27082 0.0931,-0.1099 0.12911,-0.10479 0.267,0.0379 0.0876,0.0907 0.13173,0.23358 0.098,0.31752 -0.0391,0.0972 -0.007,0.15262 0.0882,0.15262 0.10514,0 0.13551,0.0754 0.10231,0.25401 -0.0546,0.2937 0.1096,0.33228 0.49865,0.11716 z m 9.501773,-0.13076 c 0.20545,-0.0739 0.27403,-0.16311 0.2766,-0.35984 0.002,-0.14388 0.0743,-0.33556 0.16088,-0.42595 0.21348,-0.22281 0.19833,-0.57296 -0.0334,-0.77223 -0.10498,-0.0903 -0.35377,-0.34435 -0.55287,-0.56459 -0.32866,-0.36358 -0.37496,-0.38697 -0.50287,-0.25401 -0.0775,0.0805 -0.1424,0.19813 -0.14428,0.26133 -0.002,0.0695 -0.0703,0.0946 -0.17279,0.0636 -0.13957,-0.0423 -0.15695,-0.007 -0.0987,0.20269 0.0527,0.18947 0.0276,0.26704 -0.0988,0.30532 -0.0932,0.0282 -0.16942,0.1044 -0.16942,0.16927 0,0.13641 -0.17081,0.15761 -0.26814,0.0333 -0.10571,-0.13502 -0.2975,-0.0979 -0.22842,0.0443 0.0344,0.0709 -0.0251,0.19826 -0.13246,0.28298 -0.25728,0.20311 -0.34634,0.49215 -0.18436,0.59828 0.0714,0.0468 0.30772,0.0622 0.52521,0.0344 0.3264,-0.0418 0.39542,-0.0857 0.39542,-0.25126 0,-0.12592 0.0627,-0.2006 0.16854,-0.2006 0.27752,0 0.475,0.22337 0.475,0.53726 0,0.16244 0.0603,0.31456 0.13406,0.33805 0.0737,0.0235 0.14387,0.0457 0.15583,0.0494 0.012,0.004 0.14471,-0.0375 0.29496,-0.0916 z m -3.300223,-0.25629 c -0.0343,-0.0675 -0.0597,-0.0475 -0.0648,0.0512 -0.005,0.0893 0.0207,0.13926 0.0563,0.11113 0.0357,-0.0281 0.0394,-0.10117 0.008,-0.16229 z m 0.677523,0.0582 c 0,-0.0699 -0.0426,-0.12701 -0.0947,-0.12701 -0.0522,0 -0.121263,-0.08 -0.153673,-0.17786 -0.0324,-0.0978 -0.10833,-0.15375 -0.16871,-0.1243 -0.0604,0.0295 -0.0803,0.11903 -0.0442,0.19903 0.14755,0.32722 0.461313,0.48375 0.461313,0.23014 z m -0.625683,-0.49924 c 0.0197,-0.0883 -0.0246,-0.17721 -0.0983,-0.19757 -0.0896,-0.0247 -0.13407,0.0553 -0.13407,0.24099 0,0.28813 0.16536,0.25722 0.23236,-0.0435 z M 88.981677,154.482 c -0.0228,-0.15372 -0.0843,-0.2795 -0.13686,-0.2795 -0.0525,0 -0.0955,-0.0953 -0.0955,-0.21168 0,-0.15805 -0.0566,-0.21168 -0.22345,-0.21168 -0.33693,0 -0.18487,-0.20607 0.16785,-0.22747 0.43461,-0.0263 0.59187,-0.0882 0.59187,-0.23259 0,-0.17991 -0.41741,-0.34501 -0.56924,-0.22515 -0.0645,0.0509 -0.16787,0.0913 -0.22981,0.0898 -0.0619,-0.001 -0.0161,-0.063 0.10189,-0.13673 0.14862,-0.0929 0.17333,-0.14621 0.0804,-0.1737 -0.0737,-0.0218 -0.13406,-0.14319 -0.13406,-0.2697 0,-0.12651 -0.0538,-0.27254 -0.11968,-0.3245 -0.0658,-0.052 -0.17563,-0.18308 -0.24402,-0.29137 -0.14331,-0.22693 -0.53398,-0.33612 -0.42886,-0.11987 0.0412,0.0848 0.006,0.13316 -0.0971,0.13316 -0.089,0 -0.21748,-0.12383 -0.28544,-0.27518 -0.11836,-0.26356 -0.13013,-0.26824 -0.27863,-0.11082 -0.18291,0.19388 -0.20384,0.52155 -0.0385,0.60224 0.0641,0.0313 0.092,0.13112 0.062,0.22185 -0.03,0.0907 0.006,0.18333 0.08,0.20577 0.13954,0.0423 0.18699,0.24332 0.10557,0.44723 -0.0374,0.0938 -0.0896,0.0868 -0.25979,-0.0348 -0.27202,-0.19434 -0.37281,-0.11488 -0.2389,0.18836 0.0576,0.13051 0.0908,0.34111 0.0736,0.46802 -0.0171,0.12691 0.002,0.22713 0.0417,0.22271 0.0401,-0.005 0.18454,-0.004 0.32104,0.002 0.21316,0.009 0.24343,0.0487 0.21451,0.28388 -0.0213,0.17256 0.0159,0.27826 0.10039,0.28576 0.27685,0.0246 0.29097,0.0379 0.13407,0.1264 -0.12925,0.0729 -0.11344,0.0825 0.0804,0.049 0.13273,-0.023 0.24134,-0.0167 0.24137,0.0138 3e-5,0.0306 0.23054,0.0575 0.51225,0.0599 l 0.5122,0.004 z m -2.64657,0.038 c -0.044,-0.33126 -0.051,-0.34702 -0.12823,-0.28609 -0.15211,0.12008 -0.1494,0.47661 0.003,0.47661 0.0914,0 0.14004,-0.0743 0.12461,-0.19052 z m -4.2116,-0.18126 c 0.0398,-0.16464 -0.0203,-0.22856 -0.32254,-0.34232 -0.20436,-0.0769 -0.39837,-0.11871 -0.43113,-0.0928 -0.0327,0.0258 0.0207,0.1799 0.11879,0.34231 0.21231,0.35146 0.55995,0.4023 0.63488,0.0928 z m 0.78143,0.0119 c 0.0264,-0.0582 0.0684,-0.29636 0.0934,-0.5292 0.0396,-0.36781 0.008,-0.45443 -0.2371,-0.66021 -0.23842,-0.19981 -0.25775,-0.24964 -0.12363,-0.31862 0.0875,-0.045 0.24035,-0.0664 0.33978,-0.0477 0.29366,0.0554 0.41381,-0.35268 0.16341,-0.55502 -0.29067,-0.2349 -0.50507,-0.53758 -0.50507,-0.71306 0,-0.20956 -0.22587,-0.39086 -0.37899,-0.3042 -0.057,0.0323 -0.21175,0.21554 -0.34385,0.40729 -0.22763,0.33038 -0.23122,0.36283 -0.0687,0.62009 0.0944,0.14931 0.23865,0.29179 0.32064,0.31663 0.18876,0.0572 0.19938,0.53508 0.0119,0.53508 -0.0755,0 -0.20678,-0.0762 -0.29182,-0.16934 -0.085,-0.0931 -0.19896,-0.16934 -0.25318,-0.16934 -0.0542,0 -0.1633,-0.0667 -0.24242,-0.14818 -0.12577,-0.12954 -0.15739,-0.13221 -0.2515,-0.0212 -0.145,0.17107 -0.13834,0.22028 0.0499,0.36892 0.20692,0.16335 0.20338,0.22378 -0.0131,0.22378 -0.14252,0 -0.14985,0.023 -0.0405,0.127 0.0734,0.0699 0.16981,0.12701 0.21417,0.12701 0.0444,0 0.26624,0.13422 0.49311,0.29826 0.22686,0.16404 0.46893,0.28115 0.53793,0.26025 0.0712,-0.0216 0.15259,0.0691 0.18823,0.20977 0.0642,0.25328 0.25124,0.332 0.3373,0.14194 z m -0.53731,-0.91022 c 0.0365,-0.0466 0.0876,-0.0847 0.11359,-0.0847 0.026,0 0.0473,0.0381 0.0473,0.0847 0,0.0466 -0.0511,0.0847 -0.11358,0.0847 -0.0625,0 -0.0838,-0.0381 -0.0473,-0.0847 z m 17.989183,0.82313 c -0.0163,-0.0732 0.0728,-0.18965 0.19796,-0.25886 0.16249,-0.0899 0.20726,-0.17646 0.1565,-0.30273 -0.0418,-0.10397 -0.0239,-0.17687 0.0434,-0.17687 0.14482,0 0.15073,-0.31101 0.007,-0.38102 -0.059,-0.0288 -0.10725,-0.16031 -0.10725,-0.29229 0,-0.35607 -0.31802,-0.41779 -0.33447,-0.0649 -0.007,0.14989 -0.007,0.30111 0,0.33603 0.007,0.0349 -0.0328,0.0635 -0.0884,0.0635 -0.0556,0 -0.11593,0.16193 -0.13407,0.35985 -0.0274,0.29915 -0.0737,0.36442 -0.274303,0.38691 -0.13273,0.0149 -0.24132,0.0594 -0.24132,0.0989 0,0.0395 -0.0293,0.13213 -0.0651,0.20579 -0.0467,0.096 -0.001,0.13393 0.16088,0.13393 0.12429,0 0.22745,-0.0476 0.22924,-0.10584 0.002,-0.0582 0.054,-0.037 0.115973,0.0471 0.13236,0.17963 0.37677,0.14337 0.33376,-0.0495 z m -16.675303,-0.27123 c 0,-0.12697 -0.0611,-0.21321 -0.15115,-0.21321 -0.12933,0 -0.14691,0.1906 -0.0453,0.49185 0.005,0.0144 0.051,0.006 0.10267,-0.0196 0.0516,-0.0252 0.0939,-0.14174 0.0939,-0.25901 z m 15.07319,0.0196 c 0.0388,-0.0847 0.094,-0.0847 0.27562,0 0.29077,0.13554 0.35406,0.13334 0.31512,-0.0109 -0.0174,-0.0642 0.0892,-0.19707 0.23663,-0.29523 l 0.26813,-0.17848 -0.45583,-0.34285 c -0.25071,-0.18857 -0.45583,-0.37959 -0.45583,-0.42447 0,-0.0449 -0.0483,-0.0816 -0.10726,-0.0816 -0.059,0 -0.10726,-0.0762 -0.10726,-0.16935 0,-0.23968 0.20966,-0.21049 0.67824,0.0944 0.43507,0.28311 0.56458,0.28036 0.44805,-0.01 -0.0455,-0.11331 -0.13176,-0.16408 -0.22869,-0.13472 -0.1168,0.0354 -0.13149,0.0131 -0.0589,-0.0892 0.12784,-0.18034 -0.0806,-0.50215 -0.56563,-0.87328 -0.29577,-0.22631 -0.40939,-0.26867 -0.50922,-0.18986 -0.18253,0.14409 -0.41291,0.12671 -0.33889,-0.0256 0.034,-0.0699 0.008,-0.12701 -0.057,-0.12701 -0.0653,0 -0.11873,0.0572 -0.11873,0.12701 0,0.0699 -0.038,0.12701 -0.0844,0.12701 -0.0464,0 -0.0955,0.1143 -0.10895,0.25401 -0.0239,0.24683 0.11295,0.3406 0.24702,0.16934 0.12985,-0.16585 0.24366,-0.0797 0.35594,0.26955 0.0952,0.29592 0.086,0.37034 -0.0558,0.45216 -0.13736,0.0793 -0.15985,0.2188 -0.11809,0.73257 0.0284,0.34905 0.0863,0.679 0.1288,0.73324 0.1021,0.13043 0.35584,0.12603 0.41697,-0.007 z m -2.39949,-0.33306 c 0.0918,-0.20792 0.0881,-0.28485 -0.0163,-0.33646 -0.0932,-0.0461 -0.14593,-0.001 -0.16929,0.14255 -0.0186,0.1152 -0.079,0.20946 -0.13407,0.20946 -0.055,0 -0.10013,0.0572 -0.10013,0.127 0,0.23251 0.29903,0.13097 0.41981,-0.14255 z m -4.81728,-0.96254 c 0,-0.079 -0.11115,-0.12265 -0.31243,-0.12265 -0.28694,0 -0.31006,0.0225 -0.28341,0.27519 0.016,0.15134 0.0359,0.30932 0.0443,0.35105 0.0236,0.11723 0.55154,-0.3648 0.55154,-0.50359 z m -2.25235,0.009 c 0,-0.0206 -0.0482,-0.0609 -0.10725,-0.0897 -0.059,-0.0288 -0.10725,-0.012 -0.10725,0.0373 0,0.0493 0.0482,0.0897 0.10725,0.0897 0.059,0 0.10725,-0.0168 0.10725,-0.0373 z m -0.19485,-0.40436 c -0.0769,-0.0608 -0.12691,-0.0658 -0.12691,-0.0127 0,0.11302 0.12684,0.21315 0.19842,0.15664 0.0305,-0.0241 -0.002,-0.0888 -0.0715,-0.14394 z m -2.89966,-0.003 c 0.009,-0.0582 0.0208,-0.18205 0.0268,-0.27518 0.007,-0.10651 0.0806,-0.16498 0.19863,-0.15759 0.22274,0.0139 0.24773,-0.10234 0.0426,-0.19806 -0.20422,-0.0953 -0.27178,-0.29577 -0.15834,-0.4699 0.0682,-0.10469 0.0551,-0.14817 -0.0447,-0.14817 -0.0777,0 -0.15203,-0.10265 -0.16518,-0.22811 -0.0132,-0.12545 -0.0609,-0.24928 -0.10602,-0.27518 -0.11847,-0.0679 -0.34587,-0.49768 -0.34587,-0.65363 0,-0.0897 0.0674,-0.11898 0.20732,-0.0901 0.17841,0.0368 0.19412,0.0154 0.11263,-0.15383 -0.0639,-0.13263 -0.0546,-0.20718 0.0286,-0.22906 0.07,-0.0184 0.0421,-0.057 -0.0646,-0.0893 -0.11231,-0.034 -0.16149,-0.0233 -0.12231,0.0268 0.0361,0.046 0.0168,0.0837 -0.0427,0.0837 -0.0595,0 -0.15803,-0.0667 -0.21888,-0.14818 -0.0965,-0.12923 -0.12437,-0.13194 -0.21819,-0.0212 -0.0592,0.0699 -0.10832,0.19463 -0.10922,0.27728 -5.8e-4,0.0826 -0.11387,0.18395 -0.25103,0.22512 -0.48449,0.14542 -0.61859,0.44258 -0.58537,1.29716 0.0273,0.7042 0.0514,0.78399 0.24486,0.8121 0.31287,0.0455 1.10222,0.33741 1.17963,0.43628 0.0942,0.12035 0.37248,0.10546 0.39144,-0.0209 z m 10.49511,-0.12034 c 0,-0.0854 -0.34182,-0.36652 -0.44564,-0.36652 -0.16523,0 -0.0938,0.24413 0.0971,0.3319 0.22037,0.10133 0.34858,0.11406 0.34858,0.0346 z m -5.06238,-0.21281 c 0.0299,-0.12391 -0.002,-0.12947 -0.2394,-0.0423 -0.33829,0.12393 -0.35901,0.2485 -0.0352,0.21203 0.13213,-0.0149 0.25572,-0.0913 0.27465,-0.16969 z m 8.444643,-0.57138 c -0.0936,-0.14284 -0.253343,-0.25912 -0.355063,-0.2584 -0.10482,4.6e-4 -0.13847,0.0282 -0.0777,0.0635 0.059,0.0342 0.20379,0.21167 0.32177,0.39435 0.136603,0.2115 0.226603,0.28277 0.247803,0.1962 0.0183,-0.0748 -0.0433,-0.25282 -0.13682,-0.39565 z m -10.890113,0.24833 c 0,-0.0466 -0.0845,-0.0841 -0.1877,-0.0834 -0.1604,9.3e-4 -0.16431,0.0132 -0.0268,0.0834 0.20241,0.10326 0.21451,0.10326 0.21451,0 z m 2.36479,-0.45494 c -0.0639,-0.13273 -0.0558,-0.23331 0.0241,-0.29635 0.0665,-0.0525 0.0746,-0.0954 0.0179,-0.0954 -0.0566,0 -0.16171,0.0743 -0.23357,0.16518 -0.10626,0.13431 -0.0996,0.18968 0.0355,0.29635 0.23019,0.18171 0.26881,0.16444 0.15602,-0.0698 z m 7.71554,-0.0319 c -0.002,-0.0811 -0.20903,-0.3367 -0.21123,-0.26094 -5.8e-4,0.0311 -0.0309,0.11684 -0.0667,0.19051 -0.0427,0.0879 -0.006,0.13393 0.10725,0.13393 0.0948,0 0.17162,-0.0286 0.17072,-0.0635 z m 2.575763,-0.18552 c 0.0295,-0.004 -0.0188,-0.0445 -0.10726,-0.0897 -0.1169,-0.0596 -0.1225,-0.0824 -0.0205,-0.0834 0.0772,-4.6e-4 0.11068,-0.0392 0.0744,-0.0856 -0.0363,-0.0464 -0.0863,-0.16743 -0.11107,-0.26896 -0.0676,-0.27723 -0.22734,-0.36919 -0.42091,-0.24236 -0.21597,0.1415 -0.21179,0.39417 0.008,0.46064 0.10897,0.033 0.15263,0.11408 0.1179,0.21892 -0.0443,0.13371 -0.01,0.15976 0.17553,0.13227 0.12687,-0.0188 0.25481,-0.0377 0.28431,-0.0418 z m -4.182953,-0.21933 c 0,-0.11788 -0.0745,-0.2369 -0.1655,-0.26447 -0.23176,-0.0702 -0.30061,0.0119 -0.22073,0.26318 0.0904,0.2842 0.38623,0.28518 0.38623,0.001 z m -5.90066,-0.40659 c 0.002,-0.20691 -0.26446,-0.13102 -0.27354,0.0778 -0.004,0.0891 0.0142,0.1947 0.0402,0.2346 0.0651,0.1 0.23131,-0.12257 0.23331,-0.31244 z m -0.21288,-0.22579 c 0,-0.0466 -0.0752,-0.0847 -0.16721,-0.0847 -0.092,0 -0.13738,0.0381 -0.10092,0.0847 0.0365,0.0466 0.1117,0.0847 0.16721,0.0847 0.0555,0 0.10092,-0.0381 0.10092,-0.0847 z m 2.83661,-0.76927 c -0.0345,-0.0441 -0.10851,-0.0579 -0.16439,-0.0306 -0.0559,0.0273 -0.0733,0.0857 -0.0388,0.12977 0.0346,0.0441 0.10851,0.0579 0.16439,0.0306 0.0559,-0.0273 0.0733,-0.0857 0.0388,-0.12976 z m 6.754803,-0.26795 c -0.13861,-0.26761 -1.11826,-0.62005 -1.11826,-0.40231 0,0.0566 0.0677,0.0824 0.15032,0.0574 0.0894,-0.0271 0.17227,0.0207 0.20447,0.11794 0.0311,0.094 0.14696,0.16349 0.27238,0.16349 0.12002,0 0.24804,0.0381 0.2845,0.0847 0.0958,0.12234 0.27159,0.10432 0.20659,-0.0212 z m -1.360763,-0.39826 c 0.0824,-0.10416 0.0919,-0.18441 0.0258,-0.21668 -0.15827,-0.0772 -0.31957,0.0327 -0.31957,0.21775 0,0.21049 0.12678,0.21003 0.29377,-9.3e-4 z m -12.19908,7.8705 c -0.0885,-0.0452 -0.11877,-0.0827 -0.0673,-0.0834 0.0515,-4.7e-4 0.0325,-0.0594 -0.0421,-0.13035 -0.14585,-0.13873 -0.0866,-0.23175 0.16613,-0.26104 0.11256,-0.0131 0.15778,0.0645 0.15778,0.27057 0,0.32313 0.007,0.31694 -0.21451,0.20419 z m 11.1123,-6.63962 c 0.0358,-0.0738 0.1123,-0.13408 0.1699,-0.13408 0.14097,0 0.0527,0.19244 -0.10764,0.23463 -0.0784,0.0207 -0.10235,-0.0181 -0.0623,-0.10055 z"
       id="path33-0-1"
       sodipodi:nodetypes="sssssssssscssscsscccsssssscsssssssscsssssssssssssssscssssssssscsssssssssssssssscsscscsssssssscsssssssssssssscssscscsssscsssssssscsssssscssscsssssssssscssssssccsssssssssssssssscsssssssssssscscssssscssssssscsssssssssssssssssssssssssssssssssssssssssssssssssssssssssssssssssssssssscccscssssssssssccssssssssccsssssssssccssssssssssccsssssssssssscssssscscssssssssscsscsssssssssssssssssssssssssssssscsssssssssssssssssscsscsssscccsssssscssscscsssssccsssssssssssssssssssssssssssssssssssssscssssscssssssssssssssssscscsssscscssccscscscssssssssssssssssssssssccsssssssssssssssssssssssssssssssscssssssssssssssssssssssssssssssscsssssssscssscssssssssssssssscsssssssscssccsssccsssccscccscscccccsscssssssssssssscssscsssssssssssssssssssssscscccscssssssssss" />
  </g>
</svg>
