<?xml version="1.0" encoding="UTF-8" standalone="no"?>
<!-- Created with Inkscape (http://www.inkscape.org/) -->

<svg
   width="23.218027mm"
   height="12.562321mm"
   viewBox="0 0 23.218022 12.562319"
   version="1.1"
   id="svg1"
   inkscape:version="1.4.1-rc (06eac75fbf, 2025-03-29)"
   sodipodi:docname="forest1.svg"
   xmlns:inkscape="http://www.inkscape.org/namespaces/inkscape"
   xmlns:sodipodi="http://sodipodi.sourceforge.net/DTD/sodipodi-0.dtd"
   xmlns="http://www.w3.org/2000/svg"
   xmlns:svg="http://www.w3.org/2000/svg">
  <sodipodi:namedview
     id="namedview1"
     pagecolor="#ffffff"
     bordercolor="#000000"
     borderopacity="0.25"
     inkscape:showpageshadow="2"
     inkscape:pageopacity="0.0"
     inkscape:pagecheckerboard="0"
     inkscape:deskcolor="#d1d1d1"
     inkscape:document-units="mm"
     inkscape:zoom="1.4449635"
     inkscape:cx="44.291776"
     inkscape:cy="23.876035"
     inkscape:window-width="1850"
     inkscape:window-height="1016"
     inkscape:window-x="0"
     inkscape:window-y="0"
     inkscape:window-maximized="1"
     inkscape:current-layer="layer1" />
  <defs
     id="defs1" />
  <g
     inkscape:label="Layer 1"
     inkscape:groupmode="layer"
     id="layer1"
     transform="translate(-80.697908,-146.05007)">
    <path
       style="fill:#000000;stroke-width:0.382684"
       d="m 86.203216,158.52572 c -0.041,-0.0497 0.006,-0.0644 0.11008,-0.0344 0.20268,0.0583 0.23976,0.12107 0.0715,0.12107 -0.0605,0 -0.14225,-0.039 -0.18156,-0.0866 z m 14.296444,-0.0886 c 0.0337,-0.0964 0.10954,-0.17526 0.16865,-0.17526 0.0594,0 0.0514,0.0784 -0.0178,0.17526 -0.0689,0.0964 -0.14477,0.17526 -0.16865,0.17526 -0.0239,0 -0.0159,-0.0789 0.0178,-0.17526 z m -13.838264,-0.058 c 0.0371,-0.0724 0.0674,-0.15296 0.0674,-0.17902 0,-0.0261 0.079,0.002 0.17548,0.0617 0.14004,0.0871 0.17549,0.087 0.17549,-2.3e-4 0,-0.0781 0.10845,-0.0909 0.38021,-0.0448 0.20912,0.0355 0.52826,0.0593 0.70921,0.053 0.41916,-0.0147 0.62941,0.0751 0.41468,0.17697 -0.2311,0.10969 -0.91916,0.0948 -0.91916,-0.0198 0,-0.0609 -0.0994,-0.0751 -0.26322,-0.0376 -0.56943,0.13035 -0.81041,0.12704 -0.74013,-0.0101 z m -3.98194,-0.16685 c 0.0549,-0.10721 0.0161,-0.1243 -0.17761,-0.0782 -0.16671,0.0396 -0.22168,0.0272 -0.16785,-0.0381 0.044,-0.0534 0.21021,-0.097 0.36929,-0.097 0.15908,0 0.31954,-0.0591 0.35658,-0.13144 0.0878,-0.17144 0.27629,-0.16956 0.27629,0.003 0,0.0738 -0.0803,0.15728 -0.17847,0.18549 -0.13763,0.0396 -0.14774,0.079 -0.0442,0.17252 0.10876,0.0982 0.0736,0.12121 -0.18501,0.12121 -0.2417,0 -0.30223,-0.0334 -0.24904,-0.13718 z m 10.2498,-0.0381 c 0,-0.0482 0.0821,-0.0876 0.18239,-0.0876 0.10031,0 0.14986,0.0394 0.11009,0.0876 -0.0397,0.0482 -0.12185,0.0876 -0.18239,0.0876 -0.0606,0 -0.11009,-0.0394 -0.11009,-0.0876 z m 1.87183,-0.005 c 0,-0.051 0.0526,-0.0684 0.11699,-0.0386 0.0643,0.0298 0.11699,0.0715 0.11699,0.0928 0,0.0213 -0.0526,0.0386 -0.11699,0.0386 -0.0643,0 -0.11699,-0.0418 -0.11699,-0.0928 z m -0.96697,-0.10437 c -0.0343,-0.0669 0.0518,-0.11445 0.22146,-0.12218 0.31413,-0.0143 0.37236,0.0981 0.0925,0.17853 -0.24584,0.0707 -0.24924,0.0701 -0.31396,-0.0564 z m 8.057074,-0.11721 c -0.10006,-0.19531 -0.0921,-0.21141 0.10473,-0.21141 0.0965,0 0.17548,0.0568 0.17548,0.12628 0,0.18539 -0.19802,0.24556 -0.28021,0.0851 z m -11.417734,-0.0338 c -0.096,-0.0454 -0.2934,-0.0603 -0.43871,-0.0329 -0.1453,0.0273 -0.26419,0.0146 -0.26419,-0.0283 0,-0.0986 0.72224,-0.30721 0.81121,-0.23426 0.0364,0.0298 -0.008,0.0739 -0.0977,0.0978 -0.11754,0.0312 -0.0844,0.0765 0.11699,0.16016 0.15451,0.0641 0.22829,0.11741 0.16395,0.11838 -0.0643,9.9e-4 -0.19553,-0.0354 -0.29151,-0.0809 z m 10.762034,-0.002 c 0,-0.0482 0.0557,-0.0876 0.1239,-0.0876 0.0681,0 0.0914,0.0394 0.0516,0.0876 -0.0398,0.0482 -0.0955,0.0876 -0.1239,0.0876 -0.0284,0 -0.0516,-0.0394 -0.0516,-0.0876 z m -1.911844,-0.13591 c 0.071,-0.13861 0.27399,-0.17471 0.27399,-0.0487 0,0.043 -0.0763,0.10019 -0.16952,0.12699 -0.11331,0.0325 -0.14795,0.007 -0.10447,-0.0783 z m -0.95321,-0.0408 c 0.0404,-0.049 0.12249,-0.0664 0.18239,-0.0386 0.16226,0.0751 0.13201,0.1277 -0.0735,0.1277 -0.10031,0 -0.14932,-0.0401 -0.1089,-0.0891 z m -16.51253,-0.10546 c -0.031,-0.0376 0.0393,-0.0684 0.15632,-0.0684 0.11701,0 0.287,-0.0887 0.37776,-0.19717 0.17947,-0.21443 0.26735,-1.20493 0.1069,-1.20493 -0.0543,0 -0.1028,0.069 -0.10789,0.15336 -0.006,0.0916 -0.033,0.10925 -0.0682,0.0438 -0.0325,-0.0602 -0.13359,-0.10954 -0.22474,-0.10954 -0.0911,0 -0.16573,-0.0349 -0.16573,-0.0776 0,-0.0427 -0.17388,-0.13945 -0.38639,-0.21499 -0.79033,-0.28092 -1.07261,-0.74186 -0.65717,-1.07311 0.14598,-0.11639 0.21675,-0.21222 0.15728,-0.21296 -0.0595,-6.6e-4 -0.039,-0.0342 0.0454,-0.0743 0.17133,-0.0814 0.21695,-0.47848 0.0895,-0.77921 -0.0653,-0.15422 -0.0374,-0.19735 0.12925,-0.19953 0.19856,-0.003 0.1975,-0.0114 -0.016,-0.13228 -0.20495,-0.1161 -0.23294,-0.2632 -0.27037,-1.42123 -0.0469,-1.45157 0.0999,-1.94896 0.57541,-1.94896 0.13681,0 0.31312,-0.0659 0.39179,-0.14653 0.13147,-0.13467 0.16064,-0.13112 0.36062,0.0438 0.14118,0.12351 0.35222,0.19034 0.60104,0.19034 0.22748,0 0.47864,0.0713 0.61744,0.17527 0.12869,0.0964 0.262,0.17526 0.29624,0.17526 0.11077,0 0.26352,-0.39161 0.18801,-0.48197 -0.1483,-0.17747 -0.0694,-0.44332 0.18762,-0.6322 0.14625,-0.10748 0.26578,-0.14657 0.26794,-0.0876 0.002,0.0585 0.11336,0.008 0.24716,-0.11267 0.25714,-0.23157 0.30743,-0.23238 0.5349,-0.009 0.12722,0.1251 0.1444,0.12133 0.16009,-0.0351 0.01,-0.0964 0.009,-0.22439 -10e-4,-0.28443 -0.0104,-0.06 0.17075,-0.1769 0.40251,-0.25969 0.36606,-0.13075 0.43561,-0.13368 0.52968,-0.0223 0.0596,0.0705 0.10909,0.19725 0.11007,0.2816 8.9e-4,0.0843 0.0557,0.15335 0.12168,0.15335 0.0659,0 0.17044,0.0996 0.23222,0.22133 0.0618,0.12172 0.19179,0.24416 0.28891,0.27207 0.0971,0.0279 0.14744,0.0861 0.11184,0.12921 -0.0356,0.0431 -0.009,0.0784 0.0592,0.0784 0.0681,0 0.1239,0.0549 0.1239,0.12207 0,0.18511 0.31915,0.23768 0.42234,0.0696 0.0499,-0.0813 0.0988,-0.18725 0.10873,-0.23545 0.01,-0.0482 0.055,-0.15076 0.10025,-0.22791 0.0452,-0.0772 0.0665,-0.17651 0.0472,-0.22077 -0.0193,-0.0443 0.0834,-0.1759 0.22816,-0.2925 0.14478,-0.1166 0.26323,-0.1717 0.26323,-0.12245 0,0.0493 -0.0362,0.11664 -0.0804,0.14976 -0.0896,0.0671 -0.11361,0.1902 -0.20261,1.03878 -0.0371,0.35384 -0.0145,0.60966 0.0569,0.6427 0.0652,0.0302 0.0866,0.13045 0.0474,0.22279 -0.0571,0.13467 -0.0137,0.16788 0.21947,0.16788 0.15984,0 0.31085,-0.0455 0.33559,-0.10107 0.0692,-0.15561 0.69462,0.18615 0.64915,0.35475 -0.0393,0.14552 0.37122,0.44737 0.60836,0.44737 0.0741,0 0.0974,0.0452 0.0519,0.10034 -0.057,0.0691 0.0124,0.0867 0.22322,0.0565 0.20045,-0.0287 0.38683,0.0126 0.54032,0.1197 0.23153,0.16157 0.23413,0.15981 0.21869,-0.14784 -0.0191,-0.38098 -0.1545,-0.45729 -0.45267,-0.25516 -0.24332,0.16494 -0.26098,0.14329 -0.23037,-0.28219 0.011,-0.15246 -0.0647,-0.46397 -0.16818,-0.69224 -0.12255,-0.27038 -0.16261,-0.54244 -0.11495,-0.78053 l 0.0732,-0.36548 -0.75859,-0.27974 c -0.6598,-0.2433 -1.00957,-0.48724 -0.85966,-0.59954 0.12103,-0.0907 0.77907,-0.18363 0.77907,-0.11008 0,0.0448 0.13162,0.0815 0.29248,0.0815 0.18198,0 0.29247,-0.0496 0.29247,-0.13144 0,-0.21233 0.34429,-0.15066 0.48924,0.0876 0.0733,0.12049 0.18309,0.21908 0.24399,0.21908 0.0609,0 0.0836,0.0529 0.0505,0.11748 -0.0331,0.0646 0.0929,0.22569 0.27996,0.35795 0.18707,0.13226 0.34014,0.27657 0.34014,0.32068 0,0.0441 0.0825,0.0802 0.18336,0.0802 0.13812,0 0.16176,-0.0487 0.0958,-0.19717 -0.14868,-0.33469 -0.11258,-0.79486 0.0904,-1.15279 0.10676,-0.18821 0.1671,-0.3949 0.1341,-0.45932 -0.033,-0.0644 0.0272,-0.14218 0.13366,-0.1728 0.13755,-0.0395 0.17546,-0.12226 0.13084,-0.28553 -0.0471,-0.17225 0.0223,-0.29957 0.27665,-0.50786 0.63772,-0.52222 1.35345,-0.69961 1.35345,-0.33544 0,0.10595 0.18506,0.27042 0.46795,0.41587 0.25738,0.13234 0.39905,0.24078 0.31482,0.24099 -0.0842,2.1e-4 -0.11929,0.0414 -0.0779,0.0916 0.0414,0.0502 0.17313,0.0679 0.29277,0.0395 0.16077,-0.0382 0.43044,0.10746 1.0337,0.55844 0.4489,0.33559 0.7853,0.63329 0.74754,0.66157 -0.0378,0.0283 0.0204,0.0514 0.12927,0.0514 0.1263,0 0.2233,-0.0951 0.2681,-0.26289 0.0386,-0.14459 0.12189,-0.26289 0.18508,-0.26289 0.0632,0 0.087,-0.0544 0.053,-0.12086 -0.0655,-0.12779 0.59956,-0.66783 0.82238,-0.66783 0.072,0 0.15162,-0.0465 0.17693,-0.10339 0.0808,-0.18164 0.44554,0.002 0.61785,0.31061 0.0912,0.16353 0.24371,0.3197 0.33889,0.34706 0.0952,0.0273 0.16708,0.12086 0.15979,0.20779 -0.007,0.0869 0.0263,0.24833 0.0746,0.35866 0.0797,0.18182 0.0596,0.19528 -0.21392,0.14386 -0.33696,-0.0633 -0.38409,6.6e-4 -0.13674,0.18605 0.0908,0.068 0.13729,0.20321 0.10335,0.30045 -0.0503,0.14405 -0.005,0.17681 0.24439,0.17681 0.19411,0 0.30612,-0.0481 0.30612,-0.13145 0,-0.0918 0.12348,-0.13145 0.409464,-0.13145 0.22822,0 0.39651,0.041 0.38021,0.0927 -0.0161,0.051 0.19591,0.18898 0.4711,0.30671 0.58768,0.25141 0.61105,0.25457 0.61105,0.0826 0,-0.0723 0.079,-0.13145 0.17549,-0.13145 0.0965,0 0.17548,0.0591 0.17548,0.13145 0,0.0723 0.0549,0.13144 0.12188,0.13144 0.067,0 0.2349,0.0789 0.37303,0.17526 0.13813,0.0964 0.21306,0.17526 0.16652,0.17526 -0.0465,0 0.0981,0.12015 0.32131,0.26698 0.56561,0.37199 0.81161,0.88922 0.66492,1.39802 -0.24167,0.83831 -0.39183,1.05158 -0.74037,1.05158 -0.17729,0 -0.32235,0.0418 -0.32235,0.0928 0,0.051 0.0526,0.0684 0.11699,0.0386 0.0643,-0.0298 0.11699,0.007 0.11699,0.0825 0,0.0751 -0.079,0.13662 -0.17548,0.13662 -0.23655,0 -0.22145,0.0532 0.079,0.27827 0.24679,0.18485 0.24767,0.19263 0.0293,0.25673 -0.20725,0.0608 -0.20445,0.0666 0.035,0.0723 0.22572,0.005 0.25099,0.0411 0.19017,0.26884 -0.0416,0.1559 -0.0108,0.31619 0.0757,0.39434 0.16158,0.14583 0.40719,0.18278 0.29272,0.044 -0.0398,-0.0482 -0.0177,-0.0876 0.0491,-0.0876 0.0806,0 0.0766,-0.0737 -0.0121,-0.21945 -0.15979,-0.26269 -0.0557,-0.3758 0.19971,-0.21702 0.14654,0.0911 0.15305,0.12893 0.0321,0.18641 -0.1129,0.0536 -0.0993,0.0725 0.053,0.0735 0.26571,0.002 0.25903,0.0999 -0.0222,0.32601 -0.12482,0.10035 -0.19501,0.20638 -0.15599,0.23561 0.039,0.0292 0.01,0.0531 -0.0655,0.0531 -0.0751,0 -0.13649,0.10228 -0.13649,0.22728 0,0.15035 -0.0759,0.24216 -0.22439,0.27124 -0.12342,0.0242 -0.28719,0.15749 -0.36392,0.29625 -0.0767,0.13877 -0.27328,0.3525 -0.43677,0.47496 -0.30764,0.23044 -0.28598,0.41686 0.0259,0.22296 0.14785,-0.0919 0.19631,-0.0704 0.29965,0.13323 0.17102,0.33696 -0.0298,0.47753 -0.36118,0.25286 -0.24313,-0.16481 -0.25007,-0.16482 -0.41025,-6.6e-4 -0.0942,0.0966 -0.12117,0.20689 -0.0639,0.26173 0.0545,0.0522 0.0975,0.2282 0.0955,0.39122 -0.003,0.27454 -0.0157,0.28424 -0.1678,0.13145 -0.0903,-0.0907 -0.22341,-0.15254 -0.29573,-0.13736 -0.26209,0.055 -0.67644,-0.18323 -0.60636,-0.34862 0.0887,-0.20943 -0.2941,-0.68673 -0.55083,-0.68673 -0.11102,0 -0.23439,-0.0394 -0.27416,-0.0876 -0.148254,-0.17969 -0.247544,-0.0767 -0.274524,0.2848 -0.03,0.40193 -0.34417,0.67472 -0.77838,0.67585 -0.1511,3.3e-4 -0.18448,-0.023 -0.0942,-0.066 0.22174,-0.10559 0.10072,-0.41572 -0.15348,-0.39334 -0.12114,0.0107 -0.36154,-0.0226 -0.53424,-0.074 -0.39481,-0.11738 -1.03138,-0.0206 -1.03138,0.15677 0,0.0727 0.15793,0.17675 0.35097,0.23133 0.19303,0.0546 0.35096,0.13164 0.35096,0.17125 0,0.0396 -0.22374,0.14365 -0.4972,0.23121 -0.47836,0.15317 -0.50029,0.15323 -0.57866,0.002 -0.0803,-0.15554 -0.56198,-0.20328 -0.56198,-0.0557 0,0.0412 0.11845,0.0476 0.26322,0.0143 0.23598,-0.0543 0.23007,-0.0408 -0.0571,0.1311 -0.31459,0.18824 -0.32719,0.18883 -0.69979,0.0328 -0.54156,-0.22681 -0.7087,-0.3634 -0.6308,-0.51547 0.049,-0.0956 0.12621,-0.11058 0.27459,-0.0534 0.11356,0.0438 0.28543,0.0589 0.38195,0.0337 0.22375,-0.0584 0.53815,-0.38525 0.48108,-0.50009 -0.0239,-0.0482 -0.0368,-0.33181 -0.0285,-0.63024 0.008,-0.29843 -0.0375,-0.56694 -0.10178,-0.59668 -0.0643,-0.0297 -0.11681,-0.13062 -0.11681,-0.22417 0,-0.0935 -0.0658,-0.1707 -0.14624,-0.17143 -0.11385,-0.001 -0.11297,-0.0172 0.004,-0.0727 0.1513,-0.0719 0.0786,-0.36408 -0.0906,-0.36408 -0.13289,0 -0.22188,-0.43393 -0.10052,-0.49012 0.0568,-0.0263 0.0727,-0.0848 0.0354,-0.12997 -0.0373,-0.0452 0.0189,-0.10712 0.12489,-0.13759 0.15404,-0.0443 0.1614,-0.0703 0.0367,-0.12948 -0.1195,-0.0568 -0.1081,-0.0744 0.0487,-0.0754 0.14935,-9.9e-4 0.20473,0.0689 0.20473,0.25847 0,0.1756 0.081,0.29226 0.24978,0.35994 0.19957,0.08 0.21721,0.11559 0.0877,0.17701 -0.12724,0.0603 -0.11608,0.0771 0.052,0.0782 0.17029,9.9e-4 0.20134,0.0506 0.15195,0.24233 -0.0341,0.13254 -0.0252,0.57574 0.02,0.98489 0.0686,0.62236 0.11693,0.74891 0.29559,0.77448 0.11746,0.0168 0.28049,-0.038 0.36228,-0.12178 0.18289,-0.18735 0.0254,-0.84625 -0.28138,-1.17753 -0.2233,-0.2411 -0.2948,-1.05158 -0.0928,-1.05158 0.0671,0 0.24261,-0.10509 0.38996,-0.23354 0.2155,-0.18786 0.26203,-0.32075 0.2379,-0.67942 -0.0165,-0.24524 -0.0935,-0.53481 -0.17117,-0.64349 -0.0777,-0.10867 -0.12593,-0.37469 -0.10731,-0.59115 0.0513,-0.59642 0.44334,-0.48277 0.44334,0.12852 0,0.13475 0.0758,0.29214 0.16853,0.34977 0.0927,0.0576 0.14231,0.15594 0.11026,0.2185 -0.0725,0.14145 0.30416,0.26052 0.45846,0.14494 0.0729,-0.0546 0.0425,-0.21716 -0.0856,-0.45691 -0.10932,-0.20466 -0.18495,-0.54052 -0.16805,-0.74634 0.0255,-0.31021 -0.0232,-0.41164 -0.28427,-0.5929 l -0.31499,-0.21867 -0.0718,0.21443 c -0.1049,0.31307 -0.36768,0.26218 -0.57616,-0.11159 l -0.18186,-0.32601 -0.34616,0.27745 c -0.1904,0.15259 -0.34617,0.31463 -0.34617,0.36009 0,0.0455 -0.0921,0.0772 -0.20473,0.0705 -0.15662,-0.009 -0.21342,0.0669 -0.24168,0.32448 -0.0203,0.18517 0.0109,0.44149 0.0693,0.56961 0.07,0.15351 0.0544,0.39729 -0.0458,0.71492 -0.0837,0.26508 -0.15434,0.6053 -0.15707,0.75604 -0.003,0.15074 -0.0839,0.32316 -0.18044,0.38316 -0.0965,0.06 -0.17548,0.16297 -0.17548,0.22881 0,0.23486 -0.39532,0.47224 -0.78643,0.47224 -0.36938,0 -0.38347,0.0129 -0.38347,0.35053 0,0.19279 0.0395,0.35064 0.0877,0.35078 0.0482,1.4e-4 0.0921,0.14583 0.0975,0.32374 0.005,0.17792 0.0682,0.33809 0.13967,0.35593 0.0715,0.0179 0.10068,0.0896 0.0649,0.15935 -0.0358,0.0698 -0.0138,0.17569 0.0488,0.23532 0.16234,0.15467 0.0387,0.74423 -0.16854,0.8038 -0.2657,0.0764 -0.38703,-0.0216 -0.38703,-0.31263 0,-0.20593 -0.0451,-0.25676 -0.20473,-0.23061 -0.11261,0.0185 -0.19158,0.0805 -0.17549,0.13787 0.0161,0.0574 -0.0234,0.10434 -0.0877,0.10434 -0.0644,0 -0.11699,-0.0394 -0.11699,-0.0876 0,-0.0482 -0.074,-0.0876 -0.16453,-0.0876 -0.10652,0 -0.14312,-0.0613 -0.1038,-0.17396 0.0334,-0.0957 0.0202,-0.24355 -0.0293,-0.32861 -0.0495,-0.0851 -0.099,-0.34176 -0.11002,-0.57042 -0.011,-0.22867 -0.0554,-0.44227 -0.0986,-0.47467 -0.0939,-0.0703 -0.0936,-0.0726 -0.11796,1.16785 -0.0106,0.53817 -0.0612,1.00999 -0.11254,1.04848 -0.19861,0.14891 -0.49169,-0.1204 -0.47825,-0.43947 0.0162,-0.38569 -0.0803,-0.40383 -0.28706,-0.0539 -0.0855,0.14459 -0.22421,0.26289 -0.30835,0.26289 -0.0842,0 -0.18932,0.1084 -0.23371,0.24088 -0.0786,0.23458 -0.0852,0.23631 -0.25127,0.0662 -0.0938,-0.0961 -0.16267,-0.25379 -0.15301,-0.35042 0.01,-0.0966 0.005,-0.20527 -0.01,-0.24142 -0.0352,-0.084 -0.0819,-0.22379 -0.10069,-0.30155 -0.008,-0.0333 -0.0856,0.0122 -0.17236,0.10102 -0.18217,0.18662 -0.42721,0.11315 -0.42721,-0.12809 0,-0.0907 -0.0576,-0.19158 -0.128,-0.22418 -0.0704,-0.0326 -0.10403,-0.15322 -0.0747,-0.26806 0.035,-0.13728 -0.001,-0.20881 -0.10597,-0.20881 -0.0876,0 -0.14884,-0.0296 -0.13609,-0.0657 0.0568,-0.16119 -0.17444,-0.46007 -0.35603,-0.46007 -0.11005,0 -0.30046,-0.0878 -0.42314,-0.19512 l -0.22304,-0.19513 -0.0992,0.26085 c -0.0574,0.15083 -0.0505,0.46415 0.0164,0.74282 0.0636,0.26509 0.14083,0.68305 0.17169,0.9288 0.0555,0.4416 0.0526,0.44632 -0.24705,0.40341 -0.2048,-0.0293 -0.35234,0.007 -0.45473,0.11187 -0.0885,0.0907 -0.22876,0.13308 -0.33711,0.10194 -0.10851,-0.0312 -0.21317,6.6e-4 -0.25212,0.0766 -0.0842,0.16441 -0.37978,0.16915 -0.46264,0.007 -0.0615,-0.12012 -0.65722,-0.12503 -1.29554,-0.0107 -0.1667,0.0299 -0.37624,-0.0313 -0.6084,-0.17766 -0.45438,-0.28638 -0.3781,-0.44785 0.19237,-0.40721 0.39837,0.0284 0.43779,0.0114 0.45319,-0.19503 0.0161,-0.21554 -0.0683,-0.26476 -0.39865,-0.23237 -0.0813,0.008 -0.18055,-0.0494 -0.22059,-0.12759 -0.0531,-0.10369 -0.15523,-0.12657 -0.37799,-0.0847 -0.47355,0.089 -0.59899,0.21169 -0.59899,0.58571 0,0.30582 0.027,0.33928 0.23398,0.29008 0.241,-0.0573 0.3151,0.0814 0.14444,0.27044 -0.1486,0.16458 -0.84999,0.30973 -0.9009,0.18644 -0.13832,-0.33492 -0.16148,-0.35903 -0.17022,-0.17725 -0.005,0.10559 -0.0626,0.21672 -0.12792,0.24694 -0.17826,0.0825 -1.41169,0.10239 -1.47655,0.0238 z m 13.93759,-0.4189 c -0.0398,-0.0482 -0.13501,-0.087 -0.21164,-0.0863 -0.0837,6.6e-4 -0.0693,0.0352 0.0361,0.0863 0.22475,0.1088 0.26525,0.1088 0.17549,0 z m -12.30846,-0.26289 c 0.0689,-0.19738 -0.0348,-0.22713 -0.24448,-0.0701 -0.18688,0.13999 -0.17767,0.24537 0.0215,0.24537 0.089,0 0.18937,-0.0789 0.22303,-0.17526 z m 4.64567,-0.43816 c 0,-0.0482 -0.0232,-0.0876 -0.0516,-0.0876 -0.0284,0 -0.0841,0.0394 -0.12389,0.0876 -0.0397,0.0482 -0.0165,0.0876 0.0516,0.0876 0.0681,0 0.12389,-0.0394 0.12389,-0.0876 z m -0.86523,-0.41442 c -0.11892,-0.0891 -0.21705,0.045 -0.11948,0.16329 0.0737,0.0893 0.10127,0.0894 0.1409,3.3e-4 0.0271,-0.0609 0.0175,-0.13453 -0.0214,-0.16365 z m 4.86708,-1.08465 c -0.006,-0.87937 -0.0406,-1.08597 -0.1914,-1.14917 -0.10108,-0.0424 -0.18379,-0.13423 -0.18379,-0.20413 0,-0.0699 -0.0526,-0.1271 -0.11699,-0.1271 -0.14792,0 -0.15315,0.28805 -0.007,0.39873 0.0684,0.0519 0.0644,0.24165 -0.0106,0.50331 -0.0662,0.23104 -0.0806,0.48736 -0.0321,0.56961 0.0766,0.12992 0.13161,0.41121 0.17477,0.8944 0.0253,0.28329 0.11214,0.3833 0.24584,0.28315 0.0809,-0.0606 0.12624,-0.49653 0.12146,-1.1688 z m 7.22865,1.0607 c -0.0783,-0.0363 -0.25506,-0.0434 -0.39271,-0.0159 -0.24004,0.048 -0.23831,0.0524 0.0422,0.1069 0.33602,0.0653 0.56166,0.007 0.35051,-0.091 z m 2.427964,-0.13855 c -0.11148,-0.0835 -0.33499,0.0518 -0.25191,0.15245 0.0494,0.0599 0.11482,0.0583 0.19884,-0.005 0.0689,-0.0516 0.0928,-0.11813 0.0531,-0.14786 z m -17.008474,0.0149 c 0.11609,0.0334 0.21718,5e-5 0.26133,-0.0861 0.0396,-0.0773 0.17165,-0.14054 0.29346,-0.14054 0.2947,0 0.28129,-0.14711 -0.0259,-0.28406 -0.13605,-0.0607 -0.34291,-0.26802 -0.4597,-0.46081 l -0.21234,-0.35053 -0.008,0.27963 c -0.005,0.1538 -0.0665,0.30661 -0.13775,0.33958 -0.0903,0.0418 -0.0815,0.0836 0.0293,0.13822 0.12865,0.0634 0.11947,0.0956 -0.0485,0.16969 -0.11396,0.0503 -0.17891,0.1257 -0.14433,0.16761 0.0346,0.0419 0.008,0.10136 -0.0579,0.13211 -0.0664,0.0308 -0.0889,0.0945 -0.05,0.14176 0.0454,0.055 0.12473,0.0523 0.22106,-0.008 0.0826,-0.0514 0.23543,-0.0689 0.33956,-0.039 z m -1.99534,-0.34137 c -0.036,-0.0436 -0.10488,-0.0314 -0.15314,0.0271 -0.0627,0.076 -0.11058,0.0787 -0.16776,0.009 -0.044,-0.0533 -0.0479,-0.13597 -0.009,-0.18361 0.0415,-0.0503 -0.007,-0.064 -0.11643,-0.0326 -0.16317,0.0469 -0.15343,0.0815 0.074,0.26283 0.18791,0.14983 0.28667,0.17879 0.34959,0.10252 0.0482,-0.0585 0.0583,-0.14196 0.0223,-0.18555 z m 3.82449,0.20234 c 0,-0.0482 -0.0526,-0.0876 -0.11699,-0.0876 -0.0643,0 -0.11699,0.0394 -0.11699,0.0876 0,0.0482 0.0526,0.0876 0.11699,0.0876 0.0644,0 0.11699,-0.0394 0.11699,-0.0876 z m 1.36802,-0.4389 c 0.005,-0.24139 0.0671,-0.49149 0.13832,-0.55576 0.0712,-0.0643 0.0948,-0.1428 0.0525,-0.17452 -0.12243,-0.0917 -0.27196,-0.067 -0.27196,0.045 0,0.0565 -0.0854,0.17328 -0.18967,0.25963 -0.12232,0.10124 -0.15749,0.21261 -0.0991,0.31361 0.092,0.15901 0.12193,0.24484 0.15391,0.44142 0.01,0.0602 0.0604,0.10954 0.11247,0.10954 0.0521,0 0.0986,-0.1975 0.10348,-0.4389 z m 12.119264,0.11272 c -0.0137,-0.0963 0.10472,-0.26634 0.26322,-0.37788 l 0.2882,-0.20281 v 0.23953 c 0,0.13174 0.0432,0.21952 0.096,0.19508 0.0528,-0.0244 0.26339,0.0318 0.46796,0.12499 0.20457,0.0932 0.37195,0.12688 0.37195,0.0749 0,-0.052 -0.10083,-0.1143 -0.22407,-0.13844 -0.20297,-0.0398 -0.43375,-0.39819 -0.37605,-0.58404 0.0128,-0.0411 -0.0839,-0.14433 -0.21479,-0.22936 -0.1309,-0.085 -0.23799,-0.18745 -0.23799,-0.22758 0,-0.0401 0.0632,-0.0256 0.14038,0.0322 0.17495,0.13104 0.56155,0.13808 0.56155,0.0102 0,-0.0522 0.0658,-0.0784 0.14624,-0.0582 0.0827,0.0208 0.148,0.18575 0.15029,0.37974 0.004,0.34013 0.008,0.34291 0.44877,0.33233 0.73192,-0.0175 0.82407,-0.15994 0.54362,-0.84006 -0.13087,-0.31739 -0.20584,-0.63976 -0.1666,-0.71636 0.0496,-0.0968 -0.0246,-0.16661 -0.24282,-0.22876 -0.17281,-0.0492 -0.35847,-0.069 -0.41259,-0.0439 -0.0541,0.025 -0.23973,-0.003 -0.41246,-0.0616 -0.26992,-0.0921 -0.33568,-0.085 -0.46789,0.0504 -0.0846,0.0867 -0.24994,0.14313 -0.3674,0.12545 -0.24303,-0.0366 -0.710744,0.24314 -0.575704,0.34429 0.0488,0.0366 0.156104,-0.002 0.238364,-0.0867 0.0823,-0.0843 0.21835,-0.15322 0.30241,-0.15322 0.0841,0 0.11819,0.0259 0.0759,0.0577 -0.0423,0.0317 -0.0225,0.10681 0.044,0.16688 0.11081,0.10001 0.0404,0.56414 -0.0856,0.56414 -0.11109,0 -0.37485,-0.24384 -0.31348,-0.28982 0.0351,-0.0263 -0.099,-0.11085 -0.298044,-0.18794 -0.19902,-0.0771 -0.36184,-0.103 -0.36184,-0.0576 0,0.0454 0.0658,0.1033 0.14623,0.12861 0.20339,0.064 -0.24061,0.2705 -0.59768,0.27794 -0.31286,0.007 -0.46497,-0.18376 -0.26602,-0.33278 0.15065,-0.11285 0.17825,-0.32711 0.0421,-0.32711 -0.0497,0 -0.19124,0.14027 -0.3145,0.31171 -0.21346,0.29691 -0.23453,0.56649 -0.11263,1.44091 0.0168,0.1205 0.0348,0.28837 0.0401,0.37305 0.008,0.13519 0.11292,0.15002 0.85768,0.12162 0.765794,-0.0292 0.845744,-0.0494 0.823204,-0.20742 z m 0.25894,-0.7254 c 0.0398,-0.0482 0.12184,-0.0876 0.18239,-0.0876 0.0605,0 0.11009,0.0394 0.11009,0.0876 0,0.0482 -0.0821,0.0876 -0.18239,0.0876 -0.10032,0 -0.14985,-0.0394 -0.11009,-0.0876 z m 1.81333,0.61342 c 0,-0.0482 -0.0232,-0.0876 -0.0516,-0.0876 -0.0284,0 -0.0841,0.0394 -0.12389,0.0876 -0.0398,0.0482 -0.0166,0.0876 0.0516,0.0876 0.0681,0 0.12389,-0.0394 0.12389,-0.0876 z m -19.388464,-0.24635 c -0.10606,-0.0505 -0.0809,-0.10869 0.0958,-0.22203 0.187,-0.11994 0.2222,-0.21271 0.16052,-0.42309 -0.0435,-0.1482 -0.0889,-0.31974 -0.10091,-0.3812 -0.012,-0.0615 -0.0804,-0.16502 -0.15189,-0.23013 -0.0715,-0.0651 -0.14815,-0.19725 -0.17035,-0.29364 -0.0345,-0.14976 0.0149,-0.17126 0.33985,-0.14775 0.26265,0.019 0.38022,-0.01 0.38022,-0.0931 0,-0.13058 -0.48185,-0.48003 -0.90871,-0.65903 -0.24009,-0.10067 -0.27616,-0.0897 -0.38021,0.11525 -0.0632,0.12456 -0.11495,0.28073 -0.11495,0.34704 0,0.0663 -0.0485,0.14305 -0.10786,0.17051 -0.18198,0.0842 -0.0456,1.30661 0.15174,1.36006 0.0939,0.0254 0.28424,0.15471 0.4229,0.28725 0.13868,0.13254 0.31412,0.24039 0.38988,0.23965 0.1007,-0.001 0.0991,-0.0197 -0.006,-0.0697 z m 3.83288,-0.12608 c 0.002,-0.10844 0.10569,-0.35491 0.23001,-0.5477 0.27954,-0.43349 0.28288,-0.51531 0.038,-0.931 -0.20248,-0.34376 -0.506,-0.51957 -0.506,-0.29309 0,0.12956 -0.22108,0.18549 -0.24891,0.063 -0.008,-0.0362 -0.0288,-0.1446 -0.0457,-0.24099 -0.0169,-0.0964 -0.0715,-0.2501 -0.12121,-0.34157 -0.0782,-0.14376 -0.0482,-0.16026 0.22118,-0.1217 0.35841,0.0513 0.39986,-0.0606 0.12951,-0.34973 -0.20566,-0.21994 -0.40283,-0.25552 -0.40283,-0.0727 0,0.14858 -0.31639,0.25363 -0.41262,0.137 -0.12028,-0.14578 -0.43832,-0.0974 -0.36035,0.0548 0.0391,0.0762 -0.004,0.21813 -0.0943,0.31538 -0.11852,0.12676 -0.13508,0.24259 -0.0585,0.40913 0.0588,0.12777 0.0937,0.42948 0.0776,0.67047 -0.0161,0.24099 0.0234,0.44994 0.0877,0.46434 0.0644,0.0144 0.23693,0.085 0.38352,0.157 0.14659,0.072 0.32275,0.10479 0.39146,0.073 0.0761,-0.0352 0.10735,0.006 0.08,0.10589 -0.0247,0.0901 -0.13093,0.15878 -0.23597,0.15272 -0.12858,-0.007 -0.16897,0.0355 -0.1236,0.13145 0.12571,0.2657 0.29281,0.36154 0.63036,0.36154 0.26994,0 0.33742,-0.0391 0.34061,-0.19717 z m -0.41973,-0.51152 c -0.0433,-0.0524 -0.02,-0.13915 0.0516,-0.19279 0.0956,-0.0716 0.13019,-0.0463 0.13019,0.0953 0,0.21159 -0.0608,0.24419 -0.18178,0.0975 z m -2.34811,0.0289 c 0.0291,-0.25649 -0.008,-0.3764 -0.12799,-0.41079 -0.33683,-0.0968 -0.40703,-0.0443 -0.22265,0.16645 0.13817,0.15795 0.15925,0.27188 0.0794,0.42915 -0.0598,0.11776 -0.0761,0.23854 -0.0362,0.2684 0.13594,0.10183 0.26636,-0.0904 0.30742,-0.45321 z m 3.46581,0.2855 c 0,-0.0723 0.004,-0.16004 0.009,-0.19498 0.005,-0.0349 -0.0562,-0.0798 -0.13563,-0.0996 -0.0925,-0.0231 -0.11798,0.0155 -0.0709,0.10735 0.0531,0.10373 0.008,0.1434 -0.16375,0.1434 -0.13046,0 -0.20467,0.0394 -0.16491,0.0876 0.1131,0.13707 0.52646,0.10267 0.52646,-0.0438 z m 10.41203,-0.21908 c 0,-0.0482 -0.0232,-0.0876 -0.0516,-0.0876 -0.0284,0 -0.0841,0.0394 -0.1239,0.0876 -0.0398,0.0482 -0.0165,0.0876 0.0516,0.0876 0.0682,0 0.1239,-0.0394 0.1239,-0.0876 z m -6.43441,-0.0825 c 0,-0.0453 -0.0526,-0.10683 -0.11698,-0.13662 -0.0644,-0.0298 -0.11699,0.007 -0.11699,0.0825 0,0.0751 0.0526,0.13662 0.11699,0.13662 0.0643,0 0.11698,-0.0371 0.11698,-0.0825 z m -3.22219,-0.0867 c 0.037,-0.0449 0.0138,-0.10634 -0.0516,-0.13662 -0.0654,-0.0303 -0.1189,0.006 -0.1189,0.0816 0,0.15392 0.0702,0.17659 0.17049,0.055 z m 2.33203,-0.19677 c -0.0378,-0.0458 0.008,-0.14975 0.10178,-0.23105 0.25632,-0.22233 0.31875,-0.52176 0.13287,-0.63732 -0.0899,-0.0559 -0.16341,-0.15308 -0.16341,-0.21604 0,-0.063 -0.0686,-0.16656 -0.15237,-0.23025 -0.20333,-0.15453 -0.56936,-0.85341 -0.4945,-0.94415 0.0326,-0.0396 -0.0155,-0.11847 -0.10702,-0.17535 -0.13344,-0.0829 -0.20531,-0.0589 -0.36313,0.12152 -0.21215,0.24253 -0.59621,0.31815 -0.47485,0.0935 0.0391,-0.0723 0.10297,-0.19059 0.14203,-0.26289 0.0552,-0.10214 -0.0215,-0.13144 -0.34407,-0.13144 -0.22829,0 -0.44761,0.0394 -0.48737,0.0876 -0.0397,0.0482 -0.15415,0.0876 -0.25417,0.0876 -0.13622,0 -0.1687,-0.0671 -0.12943,-0.26757 0.0391,-0.19982 -0.004,-0.29028 -0.17135,-0.35727 -0.3348,-0.13422 -0.51785,-0.0387 -0.60682,0.31648 -0.0779,0.31114 0.11826,0.83414 0.3129,0.83414 0.0486,0 0.0884,0.0592 0.0884,0.13145 0,0.19309 0.43919,0.1602 0.58495,-0.0438 0.0849,-0.11883 0.0862,-0.17527 0.004,-0.17527 -0.2181,0 -0.12715,-0.15214 0.18152,-0.30363 0.38779,-0.19033 0.45517,-0.13249 0.28791,0.24713 -0.0741,0.16818 -0.1559,0.5022 -0.18179,0.74227 -0.041,0.38006 -0.006,0.46876 0.26868,0.68596 0.19827,0.15665 0.31597,0.34726 0.31636,0.51235 4.4e-4,0.23465 0.0432,0.26594 0.39673,0.29124 0.35093,0.0251 0.38887,0.008 0.33267,-0.15336 -0.0467,-0.1337 -0.008,-0.1817 0.14527,-0.1817 0.27277,0 0.51636,0.22421 0.40045,0.3686 -0.0684,0.0852 -0.0421,0.0837 0.10562,-0.006 0.10817,-0.0657 0.16576,-0.15692 0.12799,-0.20269 z m 7.35908,0.0441 c -0.0597,-0.11651 -0.0289,-0.13346 0.14991,-0.0824 0.18053,0.0515 0.19612,0.0424 0.0788,-0.0461 -0.17356,-0.13097 -0.45649,0.0242 -0.32802,0.17996 0.12041,0.14593 0.18364,0.11321 0.0993,-0.0514 z m -4.32761,-0.59269 c 0.13538,0.0389 0.18048,0.004 0.16707,-0.12946 -0.0101,-0.10053 -0.0598,-0.18277 -0.11048,-0.18277 -0.0506,0 -0.0921,-0.0986 -0.0921,-0.21908 0,-0.12049 0.0481,-0.21907 0.10688,-0.21907 0.0588,0 0.0815,-0.21924 0.0506,-0.48718 -0.043,-0.3717 -0.0198,-0.48267 0.0978,-0.46816 0.0848,0.0105 0.24764,-0.0115 0.36189,-0.0488 0.17221,-0.0563 0.18221,-0.0909 0.0585,-0.20255 -0.0821,-0.0741 -0.13606,-0.14834 -0.11997,-0.16503 0.0777,-0.0806 0.0162,-0.20991 -0.0789,-0.16587 -0.0595,0.0275 -0.275,-0.0641 -0.4789,-0.20356 -0.3472,-0.23754 -0.81679,-0.28862 -0.81679,-0.0888 0,0.0426 -0.0526,0.0774 -0.11699,0.0774 -0.0644,0 -0.11699,-0.0765 -0.11699,-0.17009 0,-0.0935 -0.0608,-0.19823 -0.13507,-0.23262 -0.0837,-0.0387 -0.1033,-0.0241 -0.0516,0.0386 0.0493,0.0598 0.01,0.10117 -0.0967,0.10117 -0.0991,0 -0.21064,0.091 -0.24788,0.20211 -0.0972,0.28997 0.007,1.28757 0.16475,1.57978 0.0738,0.13659 0.1068,0.28151 0.0734,0.32205 -0.091,0.1103 0.18863,0.5487 0.45494,0.71325 0.2049,0.12659 0.26507,0.12905 0.48744,0.0199 0.13953,-0.0685 0.33714,-0.10051 0.43914,-0.0712 z m 0.58092,0.15608 c -0.0792,-0.024 -0.23714,-0.0255 -0.35097,-0.003 -0.11382,0.0222 -0.049,0.0419 0.14401,0.0436 0.19303,0.002 0.28616,-0.0164 0.20696,-0.0404 z m 4.03307,-0.48911 c 0.0155,-0.15409 -0.004,-0.16816 -0.0903,-0.0657 -0.13524,0.16022 -0.14359,0.26178 -0.0215,0.26178 0.0506,0 0.10097,-0.0882 0.11181,-0.19606 z m -10.41879,-0.0123 c -0.034,-0.0664 -0.003,-0.16501 0.0694,-0.21908 0.12549,-0.094 -0.0145,-0.14365 -0.30203,-0.10712 -0.0517,0.007 -0.17392,-0.0479 -0.27158,-0.12107 -0.22623,-0.16946 -0.39484,-0.17013 -0.39484,-0.002 0,0.0723 0.0503,0.13145 0.11167,0.13145 0.0614,0 0.24328,0.0986 0.40415,0.21908 0.32452,0.24309 0.47753,0.28233 0.38326,0.0983 z m -3.078,-0.24071 c 0.11189,-0.41908 0.0912,-0.49874 -0.14438,-0.55474 -0.25963,-0.0617 -0.60143,0.0227 -0.60143,0.14847 0,0.12924 0.46968,0.68011 0.57986,0.68011 0.0511,0 0.12573,-0.12323 0.16595,-0.27384 z m 10.4941,0.10312 c 0.005,-0.0748 0.0339,-0.21485 0.0644,-0.31125 0.20734,-0.65595 0.18571,-0.88855 -0.10626,-1.14281 l -0.29254,-0.25475 -0.12563,0.34084 c -0.10529,0.28564 -0.095,0.35761 0.0635,0.44441 0.1312,0.0719 0.1486,0.12235 0.0568,0.16484 -0.0984,0.0455 -0.0982,0.10222 8.8e-4,0.22085 0.16945,0.20324 0.0459,0.44903 -0.25543,0.50806 -0.37806,0.074 -0.26721,0.18391 0.17608,0.17449 0.28285,-0.006 0.41223,-0.0507 0.41841,-0.14468 z m 4.19679,0.0446 c 0.0769,-0.0694 0.1228,-0.23698 0.10206,-0.37244 l -0.0377,-0.24628 -0.20473,0.29826 c -0.1126,0.16405 -0.20473,0.33165 -0.20473,0.37244 0,0.1159 0.19095,0.0871 0.3451,-0.052 z m -0.69607,-0.36617 c 0,-0.0723 -0.0526,-0.10708 -0.11699,-0.0773 -0.0643,0.0298 -0.11699,0.11331 -0.11699,0.18561 0,0.0723 0.0526,0.10707 0.11699,0.0773 0.0644,-0.0298 0.11699,-0.1133 0.11699,-0.1856 z m -7.4873,0.0155 c 0,-0.0213 -0.0526,-0.063 -0.11699,-0.0928 -0.0644,-0.0298 -0.11699,-0.0124 -0.11699,0.0386 0,0.051 0.0526,0.0928 0.11699,0.0928 0.0643,0 0.11699,-0.0174 0.11699,-0.0387 z m -3.10021,-0.13662 c 0.0397,-0.0482 0.0197,-0.0876 -0.0447,-0.0876 -0.0643,0 -0.14953,0.0394 -0.18929,0.0876 -0.0397,0.0482 -0.0197,0.0876 0.0447,0.0876 0.0643,0 0.14953,-0.0394 0.1893,-0.0876 z m -5.79256,-0.78804 c 0.16885,-0.0677 0.29347,-0.0304 0.58825,0.17582 0.48405,0.33871 0.73185,0.34688 0.62783,0.0207 -0.0423,-0.13255 -0.12179,-0.28405 -0.1767,-0.33668 -0.0549,-0.0526 -0.0652,-0.12165 -0.0229,-0.15336 0.0423,-0.0317 -0.0153,-0.0577 -0.12807,-0.0577 -0.13507,0 -0.28924,-0.14928 -0.45174,-0.43739 -0.21063,-0.37343 -0.30404,-0.44544 -0.63884,-0.49249 -0.21567,-0.0303 -0.42105,-0.0334 -0.45639,-0.007 -0.10878,0.0815 -0.10685,1.28752 0.002,1.28744 0.0563,-4e-5 0.0693,0.12368 0.0289,0.27494 l -0.0734,0.275 0.24336,-0.23174 c 0.13385,-0.12746 0.33977,-0.27039 0.4576,-0.31763 z m 11.96542,0.47276 c 0.10546,-0.079 -0.0397,-0.3044 -0.16018,-0.24865 -0.0576,0.0267 -0.10473,0.10531 -0.10473,0.17476 0,0.12905 0.13938,0.16793 0.26491,0.0739 z m -3.6576,-0.0739 c 0,-0.0213 -0.0526,-0.063 -0.11699,-0.0928 -0.0643,-0.0298 -0.11699,-0.0124 -0.11699,0.0386 0,0.0511 0.0526,0.0928 0.11699,0.0928 0.0644,0 0.11699,-0.0174 0.11699,-0.0386 z m 9.575304,-0.15853 c -0.0442,-0.17244 0.12862,-0.48335 0.29526,-0.53125 0.0922,-0.0265 0.20613,0.0695 0.29094,0.24515 0.14133,0.29276 0.38314,0.39215 0.95972,0.39445 0.34899,0.001 0.91033,-0.47469 0.66246,-0.56185 -0.10039,-0.0353 -0.10447,-0.0644 -0.0136,-0.0974 0.23148,-0.0839 0.5756,-0.30642 0.45529,-0.29444 -0.27272,0.0272 -0.41838,-0.0162 -0.39897,-0.11865 0.0543,-0.28701 -0.19687,-0.68819 -0.69701,-1.11311 -0.46647,-0.39631 -0.59028,-0.45655 -0.82408,-0.40097 -0.21304,0.0506 -0.23865,0.0827 -0.11346,0.14212 0.11626,0.0552 0.0748,0.0771 -0.14751,0.0781 -0.17207,6.6e-4 -0.33992,-0.0586 -0.37847,-0.13389 -0.0535,-0.1044 -0.12099,-0.11449 -0.296124,-0.0443 -0.20011,0.0802 -0.22258,0.17196 -0.19063,0.77839 0.0358,0.68015 0.0333,0.68704 -0.23858,0.64811 -0.15113,-0.0216 -0.27048,-0.0646 -0.26521,-0.0955 0.0284,-0.16611 -0.0309,-0.27963 -0.12354,-0.23674 -0.15012,0.0695 -0.10831,0.66259 0.0467,0.66259 0.0709,0 0.18749,-0.0439 0.25909,-0.0975 0.19739,-0.14785 0.4081,-0.0115 0.27345,0.17693 -0.0785,0.10992 -0.0593,0.21249 0.0648,0.3452 0.0971,0.10385 0.13408,0.18942 0.0822,0.19015 -0.0519,6.7e-4 -0.0154,0.0396 0.0811,0.0863 0.228864,0.11079 0.249634,0.10869 0.216174,-0.0219 z m 2.9206,-0.4984 c 0.0292,-0.0657 -0.0146,-0.0986 -0.10236,-0.0767 -0.0845,0.0211 -0.17658,0.0901 -0.20473,0.15335 -0.0293,0.0657 0.0146,0.0986 0.10236,0.0767 0.0844,-0.0211 0.17658,-0.0901 0.20473,-0.15336 z m -3.721714,-0.005 c 0,-0.0482 -0.0232,-0.0876 -0.0516,-0.0876 -0.0284,0 -0.0841,0.0394 -0.1239,0.0876 -0.0398,0.0482 -0.0166,0.0876 0.0516,0.0876 0.0681,0 0.1239,-0.0394 0.1239,-0.0876 z m -14.15569,-0.0755 c 0,-0.0415 0.13161,-0.0566 0.29248,-0.0336 0.18011,0.0258 0.29247,0.002 0.29247,-0.0629 0,-0.12862 0.71859,-0.0306 0.84189,0.11486 0.0448,0.0529 0.0606,-0.0961 0.035,-0.33093 -0.0256,-0.23486 -0.0976,-0.46532 -0.16007,-0.51212 -0.0625,-0.0468 -0.0858,-0.13945 -0.0517,-0.20587 0.0456,-0.089 -0.0503,-0.12077 -0.36406,-0.12077 -0.36276,0 -0.46175,-0.0455 -0.66751,-0.30671 -0.27076,-0.34374 -0.35546,-0.36685 -0.61958,-0.169 -0.12489,0.0935 -0.18384,0.30078 -0.18384,0.64628 0,0.75238 0.10518,1.05627 0.36559,1.05627 0.12064,0 0.21935,-0.034 0.21935,-0.0755 z m -1.46736,-0.36873 c -0.11001,-0.13334 -0.28578,-0.0926 -0.21305,0.0494 0.0369,0.072 0.11507,0.10872 0.17372,0.0816 0.0587,-0.0272 0.0763,-0.0861 0.0393,-0.13094 z m 4.68456,0.006 c 0.0397,-0.0482 -0.0129,-0.0876 -0.11698,-0.0876 -0.10412,0 -0.15676,0.0394 -0.117,0.0876 0.0397,0.0482 0.0924,0.0876 0.117,0.0876 0.0246,0 0.0772,-0.0394 0.11698,-0.0876 z m 7.16526,-0.19717 c 0.0638,-0.0602 0.17979,-0.25772 0.25768,-0.43883 0.0779,-0.18111 0.23662,-0.36738 0.35275,-0.41394 0.11614,-0.0465 0.24331,-0.18061 0.28261,-0.29789 0.0393,-0.11729 0.10114,-0.2712 0.13742,-0.34203 0.0435,-0.0848 -0.0293,-0.14669 -0.21313,-0.18125 -0.22931,-0.0431 -0.28129,-0.11147 -0.29136,-0.38324 -0.0212,-0.57273 -0.0397,-0.64262 -0.15561,-0.58895 -0.0622,0.0288 -0.10099,0.0986 -0.0863,0.15524 0.10703,0.41224 -0.35083,1.52368 -0.53548,1.29988 -0.0393,-0.0476 -0.008,-0.10243 0.0696,-0.1218 0.0875,-0.0218 0.0632,-0.0576 -0.0638,-0.0941 -0.12251,-0.0352 -0.17616,-0.0241 -0.13342,0.0277 0.0393,0.0476 0.0464,0.0866 0.0156,0.0866 -0.0307,0 -0.1391,0.0239 -0.24088,0.0532 -0.13958,0.0401 -0.18505,-0.003 -0.18505,-0.17526 0,-0.12565 -0.022,-0.22846 -0.0489,-0.22846 -0.1868,0 -0.41903,0.12661 -0.41903,0.22846 0,0.0671 -0.079,0.12207 -0.17548,0.12207 -0.20111,0 -0.23754,-0.22382 -0.0505,-0.3104 0.0687,-0.0318 0.0973,-0.1118 0.0635,-0.17773 -0.0338,-0.0659 0.0146,-0.22953 0.10751,-0.36357 0.0929,-0.13403 0.14035,-0.31122 0.10545,-0.39374 -0.0349,-0.0825 -0.009,-0.22651 0.0579,-0.31997 0.13228,-0.18514 -0.0412,-0.70443 -0.27384,-0.81987 -0.0904,-0.0449 -0.0867,-0.11184 0.0127,-0.23204 0.11995,-0.14503 0.10336,-0.17629 -0.117,-0.22055 -0.14121,-0.0283 -0.30939,-0.0515 -0.37374,-0.0514 -0.17848,3.1e-4 -0.94048,0.53285 -0.90256,0.63078 0.0184,0.0474 -0.0165,0.13126 -0.0775,0.18644 -0.31301,0.2833 -0.43166,1.80912 -0.14068,1.80912 0.0534,0 0.12865,0.1183 0.16726,0.2629 0.0569,0.21294 0.12925,0.26289 0.38103,0.26289 0.3504,0 1.1528,0.56481 1.02406,0.72084 -0.0499,0.0604 0.0306,0.0779 0.22855,0.0495 0.21977,-0.0315 0.3781,0.0141 0.56423,0.16256 0.28933,0.23068 0.48402,0.25939 0.65634,0.0968 z m -12.09499,-0.19717 c -0.0371,-0.0723 -0.088,-0.13145 -0.11332,-0.13145 -0.0253,0 -0.046,0.0592 -0.046,0.13145 0,0.0723 0.051,0.13144 0.11332,0.13144 0.0623,0 0.083,-0.0591 0.046,-0.13144 z m 3.86431,-0.0948 c 0.10026,-0.19571 0.0924,-0.21191 -0.10309,-0.21191 -0.0958,0 -0.16638,-0.069 -0.15695,-0.15336 0.0311,-0.2783 -0.0183,-0.46006 -0.12526,-0.46006 -0.11359,0 -0.0551,0.57111 0.0964,0.94203 0.032,0.0782 0.23003,-0.002 0.2889,-0.1167 z m 4.3658,-0.134 c 0.0953,-0.0714 0.0792,-0.19995 -0.0603,-0.48198 -0.10467,-0.21154 -0.22849,-0.38461 -0.27515,-0.38461 -0.14942,0 -0.22371,0.16118 -0.10057,0.21819 0.0654,0.0303 0.11889,0.0945 0.11889,0.14268 0,0.0482 -0.0493,0.0648 -0.10946,0.037 -0.0669,-0.0309 -0.071,0.0498 -0.0107,0.20731 0.0543,0.14189 0.0685,0.28067 0.0315,0.3084 -0.037,0.0277 0.01,0.0504 0.10428,0.0504 0.0944,0 0.23007,-0.0438 0.30156,-0.0973 z m -3.47586,-0.11456 c 0,-0.13993 -0.16902,-0.31388 -0.30499,-0.31388 -0.16807,0 -0.22298,0.18874 -0.085,0.29211 0.0852,0.0638 0.38996,0.0808 0.38996,0.0218 z m 5.26451,-0.051 c 0,-0.0482 -0.10529,-0.0876 -0.23398,-0.0876 -0.12868,0 -0.23398,0.0394 -0.23398,0.0876 0,0.0482 0.1053,0.0876 0.23398,0.0876 0.12869,0 0.23398,-0.0394 0.23398,-0.0876 z m 5.30425,-0.0388 c 0.0709,-0.13847 -0.032,-0.44176 -0.3206,-0.94424 -0.20951,-0.36484 -0.25203,-0.80999 -0.0693,-0.72539 0.0648,0.03 0.1494,-0.007 0.188,-0.0825 0.0386,-0.0754 0.15405,-0.137 0.25655,-0.137 0.13774,0 0.15212,-0.0256 0.0551,-0.0983 -0.0722,-0.0541 -0.10336,-0.15275 -0.0693,-0.21928 0.0341,-0.0665 -0.0601,-0.19502 -0.2093,-0.28552 -0.26932,-0.16336 -0.27365,-0.16264 -0.60101,0.0999 -0.18135,0.14543 -0.30396,0.28371 -0.27246,0.30731 0.0798,0.0597 -0.23046,0.49149 -0.45214,0.6293 -0.21358,0.13278 -0.23496,0.41762 -0.0575,0.76586 0.11411,0.22389 0.13933,0.23283 0.27285,0.0967 0.133,-0.13561 0.17144,-0.13723 0.40072,-0.017 0.13948,0.0732 0.25361,0.18998 0.25361,0.25954 0,0.0696 0.079,0.12648 0.17548,0.12648 0.0965,0 0.16925,0.0296 0.16163,0.0657 -0.0576,0.27311 0.16577,0.39611 0.28757,0.15838 z m 3.879404,-0.13646 c -0.0398,-0.0482 -0.13501,-0.087 -0.21164,-0.0863 -0.0837,6.6e-4 -0.0693,0.0352 0.0362,0.0863 0.22475,0.10879 0.26525,0.10879 0.17549,0 z m -10.353544,-0.13662 c 0,-0.0751 -0.0535,-0.11185 -0.1189,-0.0816 -0.0654,0.0303 -0.0886,0.0918 -0.0516,0.13662 0.10029,0.12155 0.17049,0.0989 0.17049,-0.055 z m -5.3815,-0.38917 c 0,-0.0482 -0.05,-0.0876 -0.11106,-0.0876 -0.0611,0 -0.27142,-0.12816 -0.46741,-0.2848 -0.33804,-0.27015 -0.35639,-0.27452 -0.35691,-0.0849 -2.9e-4,0.10996 0.0784,0.22262 0.17495,0.25036 0.0965,0.0278 0.17548,0.10538 0.17548,0.17252 0,0.0718 0.12047,0.12207 0.29248,0.12207 0.16086,0 0.29247,-0.0394 0.29247,-0.0876 z m 3.90295,-0.48198 c -0.0712,-0.13898 -0.27629,-0.18234 -0.27629,-0.0584 0,0.0927 0.12788,0.18987 0.24981,0.18987 0.0516,0 0.0635,-0.0591 0.0265,-0.13145 z m 6.08369,6.7e-4 c -0.0369,-0.072 -0.11983,-0.10653 -0.1843,-0.0767 -0.0721,0.0334 -0.0561,0.0833 0.0415,0.1296 0.21302,0.1011 0.22032,0.0984 0.1428,-0.0529 z m 3.408614,-0.0443 c -0.0398,-0.0482 -0.135,-0.087 -0.21163,-0.0863 -0.0837,6.6e-4 -0.0693,0.0352 0.0361,0.0863 0.22475,0.10879 0.26525,0.10879 0.17548,0 z m -5.556984,-0.30671 c 0,-0.0723 -0.047,-0.13145 -0.10447,-0.13145 -0.0575,0 -0.13478,0.0592 -0.17182,0.13145 -0.041,0.0801 -1.8e-4,0.13144 0.10448,0.13144 0.0945,0 0.17181,-0.0591 0.17181,-0.13144 z m 2.28129,-0.13145 c 0.0398,-0.0482 0.0197,-0.0876 -0.0447,-0.0876 -0.0643,0 -0.14952,0.0394 -0.18929,0.0876 -0.0398,0.0482 -0.0197,0.0876 0.0447,0.0876 0.0643,0 0.14952,-0.0394 0.18929,-0.0876 z m 1.84258,8.84803 c -0.35021,-0.10544 -0.33203,-0.14507 0.0877,-0.19122 0.28068,-0.0309 0.35097,-0.007 0.35097,0.1215 0,0.17716 -0.0536,0.18568 -0.43871,0.0697 z m -9.85611,-0.063 c 1.3e-4,-0.0361 0.15807,-0.074 0.35097,-0.0841 0.19291,-0.0101 0.35074,0.0195 0.35074,0.0657 0,0.0463 -0.15794,0.0841 -0.35097,0.0841 -0.19303,0 -0.35086,-0.0296 -0.35074,-0.0657 z m -7.29383,-0.24494 c 0.0356,-0.0696 0.11192,-0.10467 0.16953,-0.078 0.14507,0.0672 0.13172,0.0993 -0.0648,0.15575 -0.11308,0.0325 -0.14795,0.007 -0.10473,-0.0778 z m 15.83381,0.0505 c 0,-0.0467 0.079,-0.0622 0.17548,-0.0344 0.0965,0.0278 0.17549,0.0659 0.17549,0.0849 0,0.0189 -0.079,0.0344 -0.17549,0.0344 -0.0965,0 -0.17548,-0.0382 -0.17548,-0.0849 z m -8.77419,-6.66273 c 0,-0.0482 0.0526,-0.0876 0.11699,-0.0876 0.0644,0 0.11699,0.0394 0.11699,0.0876 0,0.0482 -0.0526,0.0876 -0.11699,0.0876 -0.0643,0 -0.11699,-0.0394 -0.11699,-0.0876 z m 10.74107,-1.98775 c 0.0844,-0.0253 0.18535,-0.0222 0.22423,0.007 0.0389,0.0291 -0.0302,0.0498 -0.15355,0.046 -0.13629,-0.004 -0.16401,-0.025 -0.0707,-0.0529 z m -5.52287,-2.68044 c -0.0389,0.0291 0.0389,-0.0291 0,0 z"
       id="path34-0"
       sodipodi:nodetypes="ssssssssssscsssssssscssssssssccsssssssssssssssssssssccscssssssssssssssscssssssssscssccssssssssscssscsscsssssssssssssscsssssssscsssscssssssssssssssssssssssssssssssssssscssssssssssssssssssssssssssssscsssssssssscscssssssccscsssscssscssssssscsscssscssscsscsssssssssssssscsscssssssssssssssssssssssssssssscsssscsssssssssscsssssscssssssssssssssccscsssssssssssscsscccssssssssccssssscssccccssscsscsssssccsscscsssssssssssssssssssscsssssssscsssssssccssscscssssssssssssssssssssssssssssssssssssssssssssssscsssssscssssssssssssssssssscssccssssccssssssssssssssccsssssssssssccssssssssscsssssccsssssscssssscssssssssssssssssscccccsssssccsssssccssssscsscssscssccsscssssssssssssssssssscssscssscsccsccsssssssssssscssssssscssscsssssscsssssscsssssssssssssssssssssssssssssscssssssssscscsssssssssccsscsscssssssccssssscsssscsssssssssscssccssssscssssssssssssssssccscsssssssssscssssssssssssscssssssssssssssssssssssssssssssssssssssssss" />
  </g>
</svg>
