<?xml version="1.0" encoding="UTF-8" standalone="no"?>
<!-- Created with Inkscape (http://www.inkscape.org/) -->

<svg
   width="70.377823mm"
   height="75.183968mm"
   viewBox="0 0 70.377815 75.183972"
   version="1.1"
   id="svg1"
   inkscape:version="1.4.1-rc (06eac75fbf, 2025-03-29)"
   sodipodi:docname="boat1.svg"
   xmlns:inkscape="http://www.inkscape.org/namespaces/inkscape"
   xmlns:sodipodi="http://sodipodi.sourceforge.net/DTD/sodipodi-0.dtd"
   xmlns="http://www.w3.org/2000/svg"
   xmlns:svg="http://www.w3.org/2000/svg">
  <sodipodi:namedview
     id="namedview1"
     pagecolor="#ffffff"
     bordercolor="#000000"
     borderopacity="0.25"
     inkscape:showpageshadow="2"
     inkscape:pageopacity="0.0"
     inkscape:pagecheckerboard="0"
     inkscape:deskcolor="#d1d1d1"
     inkscape:document-units="mm"
     inkscape:zoom="0.72248176"
     inkscape:cx="132.87533"
     inkscape:cy="141.87209"
     inkscape:window-width="1850"
     inkscape:window-height="1016"
     inkscape:window-x="0"
     inkscape:window-y="0"
     inkscape:window-maximized="1"
     inkscape:current-layer="layer1" />
  <defs
     id="defs1" />
  <g
     inkscape:label="Layer 1"
     inkscape:groupmode="layer"
     id="layer1"
     transform="translate(-70.643732,-110.86075)">
    <path
       style="fill:#000000"
       d="m 101.20311,185.96037 c -1.883198,-0.27594 -2.161758,-0.36877 -2.403648,-0.80101 -0.16322,-0.29165 -0.54739,-0.38149 -1.35933,-0.31789 -1.16683,0.0914 -3.79005,-0.38973 -6.22504,-1.14174 -1.01612,-0.3138 -1.38907,-0.55952 -1.38907,-0.91518 0,-0.56977 0.007,-0.5712 0.97497,-0.20259 0.89978,0.3426 3.02565,0.79691 4.3809,0.93623 0.54464,0.056 1.12507,0.13185 1.28985,0.16859 0.16478,0.0367 0.35687,-0.0901 0.42688,-0.28198 0.0703,-0.19273 -0.0332,-0.32172 -0.23151,-0.2883 -0.19734,0.0333 -0.69397,-0.0777 -1.10362,-0.24654 -0.40966,-0.16886 -0.96818,-0.30701 -1.24116,-0.30701 -0.27298,0 -0.56991,-0.11907 -0.65985,-0.26459 -0.0899,-0.14552 -0.39462,-0.26458 -0.67707,-0.26458 -0.28246,0 -0.51355,-0.10493 -0.51355,-0.23317 0,-0.12825 -0.56555,-0.37729 -1.25677,-0.55342 -0.69123,-0.17613 -1.4949,-0.38378 -1.78594,-0.46146 -0.29104,-0.0777 -0.85271,-0.13139 -1.24816,-0.11937 -0.39544,0.012 -0.793,-0.0979 -0.88345,-0.24426 -0.10722,-0.17349 -0.29322,-0.15924 -0.53441,0.0409 -0.20347,0.16887 -0.53525,0.2436 -0.73728,0.16608 -0.20202,-0.0775 -0.67884,0.0207 -1.05959,0.2182 -0.59378,0.30806 -0.74902,0.30239 -1.09125,-0.0398 -0.21944,-0.21945 -0.40736,-0.30119 -0.41758,-0.18166 -0.0102,0.11954 -0.10093,0.009 -0.20156,-0.2447 -0.1696,-0.4283 -0.20659,-0.42419 -0.5067,0.0564 -0.27061,0.43333 -0.25925,0.49365 0.0693,0.36759 0.24714,-0.0948 0.39301,0.007 0.39301,0.27437 0,0.23385 -0.12045,0.42518 -0.26766,0.42518 -0.43446,0 -2.89741,1.69484 -2.90259,1.99737 -0.0132,0.76848 -4.16868,1.35288 -4.84079,0.68077 -0.14054,-0.14055 -0.41961,-0.19257 -0.62016,-0.11561 -0.20055,0.077 -0.36464,-0.005 -0.36464,-0.18128 0,-0.17666 -0.16991,-0.25599 -0.37759,-0.1763 -0.57816,0.22186 -1.95312,-0.39562 -2.09579,-0.94119 -0.11168,-0.42708 -0.0104,-0.46443 0.84249,-0.31061 0.53319,0.0962 1.14803,0.26649 1.36631,0.3785 0.21828,0.11202 0.48617,0.21541 0.59531,0.22976 0.10914,0.0144 0.22821,0.0331 0.26459,0.0417 0.0364,0.009 0.71968,0.0555 1.51844,0.10418 1.1788,0.0719 1.72989,-0.0516 2.92625,-0.6555 1.74937,-0.88308 2.48104,-1.57971 1.45268,-1.38313 -0.36063,0.0689 -0.79297,0.29075 -0.96075,0.49292 -0.16779,0.20216 -0.64767,0.36757 -1.06642,0.36757 -0.41874,0 -0.76135,0.0937 -0.76135,0.20828 0,0.11455 -0.23813,0.22622 -0.52917,0.24814 -0.86137,0.0649 -0.62848,-0.81157 0.33073,-1.24465 0.47295,-0.21353 0.95343,-0.36025 1.06775,-0.32603 0.11432,0.0342 0.64023,-0.2316 1.16868,-0.59069 0.52845,-0.35909 1.06,-0.5916 1.18121,-0.51669 0.12121,0.0749 0.22038,0.005 0.22038,-0.15559 0,-0.16049 0.14883,-0.2678 0.33073,-0.23847 0.1819,0.0293 0.53878,-0.0376 0.79307,-0.14874 0.41307,-0.18053 3.74061,-0.0759 5.08377,0.15981 0.31522,0.0553 0.55375,-0.0759 0.60744,-0.33413 0.10078,-0.48476 -2.38231,-1.69227 -2.99582,-1.45685 -0.19946,0.0765 -0.43323,0.025 -0.51948,-0.11458 -0.0929,-0.15035 -0.33894,-0.16009 -0.60378,-0.0239 -0.66395,0.34143 -3.22509,0.62007 -3.22509,0.35088 0,-1.02954 3.86317,-1.88833 5.20812,-1.15778 0.31786,0.17265 0.74797,0.31391 0.95581,0.31391 0.31961,0 1.46708,0.77019 2.75459,1.84892 0.17576,0.14726 0.53294,0.27196 0.79375,0.27712 0.61287,0.0121 1.94284,0.75829 1.40023,0.78559 -0.21828,0.011 -0.0397,0.2111 0.39687,0.44471 0.43656,0.23361 0.85328,0.50876 0.92604,0.61144 0.0728,0.10268 0.42995,0.24769 0.79375,0.32225 0.36381,0.0746 0.84006,0.18159 1.05834,0.23787 0.40681,0.10487 0.43536,-0.0889 0.12899,-0.87579 -0.14325,-0.36791 -0.0394,-0.43304 0.57571,-0.3609 0.41278,0.0484 1.1502,0.10161 1.63871,0.1182 0.69088,0.0235 0.85289,0.12218 0.72927,0.44435 -0.1241,0.32339 -0.0364,0.3753 0.39987,0.23682 0.40507,-0.12857 0.52414,-0.0787 0.43279,0.18113 -0.0875,0.24905 -0.51827,0.33718 -1.41083,0.28866 -0.94879,-0.0516 -1.20725,0.008 -0.98828,0.22669 0.16308,0.16309 1.05176,0.34273 1.97483,0.39921 0.92307,0.0565 1.529478,0.0338 1.34758,-0.0503 -0.43002,-0.19892 -0.42867,-0.60561 0.002,-0.54243 0.182888,0.0268 0.624188,0.2531 0.980678,0.50279 0.63653,0.44584 0.63887,0.46116 0.13049,0.85472 -0.28471,0.22041 -0.93437,0.3888 -1.443688,0.37421 -1.79631,-0.0515 -2.38125,0.0279 -2.38125,0.32292 0,0.34818 4.236278,0.12206 4.974748,-0.26554 0.39663,-0.20818 2.37607,-0.65126 3.09504,-0.6928 0.14552,-0.008 0.38365,-0.0898 0.52917,-0.18097 0.49895,-0.31244 2.77812,-0.54893 2.77812,-0.28825 0,0.48415 -1.01698,1.17023 -1.89516,1.27852 -1.63019,0.20101 -2.73299,0.44488 -3.01276,0.66625 -0.15274,0.12085 -0.77565,0.29936 -1.38425,0.39668 -0.6086,0.0973 -1.04536,0.27593 -0.97059,0.39692 0.0748,0.12099 0.2987,0.15754 0.4976,0.0812 0.1989,-0.0763 0.44044,-0.0113 0.53675,0.14457 0.11442,0.18513 0.33583,0.19731 0.63885,0.0352 0.25505,-0.13651 1.11103,-0.31062 1.90217,-0.38692 2.38188,-0.22973 4.19886,-0.93646 10.50041,-4.08422 0.47295,-0.23624 0.8599,-0.62536 0.8599,-0.86471 0,-0.54833 1.49881,-0.84089 4.23333,-0.82634 2.85299,0.0152 4.47275,0.18694 5.75469,0.61023 1.75933,0.58092 1.34729,0.86662 -0.92604,0.64209 -1.12779,-0.11139 -2.80198,-0.20399 -3.72042,-0.20578 -1.68514,-0.003 -3.75406,0.49649 -3.75406,0.90683 0,0.12223 -0.17507,0.22223 -0.38904,0.22223 -0.48855,0 -2.92341,1.12669 -3.97659,1.84009 -0.43656,0.29572 -0.98605,0.53846 -1.22109,0.53942 -0.23503,9.6e-4 -0.71167,0.22541 -1.0592,0.49877 -1.48474,1.1679 -7.31321,2.23909 -10.02283,1.84206 z m 8.56917,-3.97478 c -0.21232,-0.34355 1.37061,-1.84067 2.58865,-2.44831 0.93663,-0.46725 1.80676,-0.25386 1.80676,0.44309 0,0.44174 -0.0665,0.47549 -0.39687,0.20133 -0.28352,-0.2353 -0.39688,-0.24268 -0.39688,-0.0259 0,0.16694 -0.26789,0.42268 -0.59531,0.56831 -0.32742,0.14564 -0.99988,0.55941 -1.49434,0.9195 -1.01325,0.73789 -1.23614,0.78829 -1.51201,0.34193 z m -3.54209,-1.28128 c 0,-0.33988 1.28048,-0.84465 1.61626,-0.63713 0.13691,0.0846 0.21622,-0.004 0.17623,-0.19655 -0.0404,-0.19452 0.13327,-0.33405 0.39032,-0.31365 0.25466,0.0202 0.46302,-0.0562 0.46302,-0.16975 0,-0.11358 0.29766,-0.28121 0.66146,-0.37252 0.3638,-0.0913 0.66146,-0.28281 0.66146,-0.42556 0,-0.14274 0.25852,-0.25954 0.57448,-0.25954 0.31596,0 0.76245,-0.16796 0.99219,-0.37325 0.49283,-0.44038 1.58904,-0.66986 4.12187,-0.86286 4.49938,-0.34285 6.74688,-0.0591 6.74688,0.85167 0,0.2984 -0.23439,0.35971 -0.99219,0.25953 -2.24785,-0.29717 -5.07359,-0.3855 -5.21117,-0.1629 -0.081,0.13097 -0.36605,0.18089 -0.63358,0.11094 -0.26752,-0.07 -1.14394,0.0639 -1.9476,0.29758 -0.80365,0.23363 -1.72929,0.47641 -2.05698,0.53952 -0.32768,0.0631 -0.73106,0.29044 -0.8964,0.50519 -0.6768,0.87904 -4.66625,1.91293 -4.66625,1.20928 z m 25.34497,0.0264 c -2.36732,-0.33071 -2.01117,-0.9367 0.6977,-1.18712 1.00832,-0.0932 1.96082,-0.26907 2.11667,-0.39079 0.42171,-0.32936 3.06149,-0.57649 3.06149,-0.28661 0,0.13589 -0.29454,0.321 -0.65455,0.41136 -0.36,0.0904 -1.31962,0.50934 -2.13248,0.93108 -0.81287,0.42174 -1.56012,0.75089 -1.66056,0.73145 -0.10044,-0.0194 -0.74316,-0.11366 -1.42827,-0.20937 z m -53.919968,-1.22967 c 0,-0.54623 1.28342,-1.70061 1.89072,-1.70061 1.06349,0 0.17958,1.31645 -1.24846,1.85939 -0.50571,0.19227 -0.64226,0.15851 -0.64226,-0.15878 z m 59.917248,-0.92446 c -0.0959,-0.1552 -0.11087,-0.34572 -0.0332,-0.42337 0.18952,-0.18952 0.70555,0.14442 0.70555,0.45659 0,0.33813 -0.45678,0.31556 -0.67234,-0.0332 z m -40.602668,-1.83713 c -1.96506,-0.58923 -2.70672,-0.93071 -3.86143,-1.77791 -0.4503,-0.33038 -1.06264,-0.60069 -1.36075,-0.60069 -0.70286,0 -1.02567,-0.81436 -0.48076,-1.21281 0.2262,-0.16541 0.41128,-0.42941 0.41128,-0.58668 0,-0.50363 0.40665,-0.56152 1.44263,-0.20537 1.23571,0.42482 1.67707,1.06153 1.00917,1.45585 -0.42904,0.25331 -0.41854,0.28971 0.12788,0.44335 0.32743,0.0921 0.59532,0.26271 0.59532,0.37922 0,0.11651 0.53074,0.41453 1.17943,0.66227 1.07786,0.41164 1.8549,0.41574 3.31848,0.0175 0.21828,-0.0594 1.023848,-0.19308 1.790148,-0.29709 0.76974,-0.10448 1.489,-0.36017 1.60718,-0.57135 0.11765,-0.21023 0.62177,-0.39091 1.12027,-0.40151 0.4985,-0.0106 1.21869,-0.17707 1.60042,-0.36994 0.38173,-0.19288 0.76193,-0.28282 0.84487,-0.19987 0.1352,0.13519 0.63608,-0.85266 1.44621,-2.85224 0.45137,-1.11409 -0.0833,-2.78738 -0.96121,-3.00833 l -0.70101,-0.17643 0.79375,-0.6459 c 1.06552,-0.86706 1.09937,-0.89134 2.85553,-2.0479 0.84293,-0.55514 1.67524,-1.23775 1.84958,-1.5169 0.17433,-0.27915 0.42884,-0.50755 0.56556,-0.50755 0.13673,0 0.75175,-0.5403 1.36671,-1.20067 0.95978,-1.03064 1.13329,-1.39594 1.22533,-2.57968 0.059,-0.75847 0.0619,-1.51612 0.007,-1.68368 -0.14582,-0.44133 -1.16923,-0.64731 -1.56873,-0.31575 -0.37044,0.30743 -0.19875,0.85557 0.19228,0.6139 0.1312,-0.0811 0.30796,0.12916 0.39281,0.46721 0.1782,0.71003 -0.4048,2.00825 -0.83715,1.86413 -0.16091,-0.0536 -0.37021,0.11571 -0.46512,0.37632 -0.40042,1.09952 -1.02259,1.94016 -1.75704,2.374 -0.43098,0.25459 -0.78361,0.5361 -0.78361,0.62558 0,0.25567 -2.29747,1.83989 -2.66825,1.83989 -0.18304,0 -0.52076,0.16675 -0.7505,0.37056 -0.77125,0.68421 -2.79539,1.67354 -3.16029,1.54465 -0.428,-0.15118 -0.86936,0.45329 -0.62084,0.85028 0.25182,0.40227 0.3533,0.93422 0.40618,2.1293 0.0258,0.58208 0.1174,1.11787 0.20366,1.19063 0.0863,0.0728 0.22859,0.50165 0.3163,0.9531 0.137,0.7052 0.0404,0.90923 -0.686,1.44867 -0.59271,0.44017 -1.24905,0.64382 -2.19543,0.68123 -0.74248,0.0293 -1.784278,0.13482 -2.315098,0.23441 -0.66699,0.12513 -0.96515,0.0847 -0.96515,-0.1308 0,-0.18491 -0.20265,-0.24754 -0.49783,-0.15385 -0.32154,0.10205 -0.55608,0.006 -0.66232,-0.27063 -0.28091,-0.73205 0.0241,-0.83173 1.71255,-0.55981 1.18643,0.19107 1.76775,0.17914 2.124408,-0.0436 0.27006,-0.16865 0.65047,-0.30664 0.84536,-0.30664 0.41935,0 1.57487,-1.16477 1.36436,-1.37529 -0.16682,-0.16681 -0.44463,-2.09641 -0.46383,-3.22153 l -0.013,-0.76035 -1.58162,0.14342 c -0.869888,0.0789 -1.772778,0.0413 -2.006418,-0.0836 -0.23365,-0.12484 -0.73863,-0.29256 -1.12219,-0.37271 -0.38357,-0.0802 -0.97888,-0.44247 -1.32292,-0.80516 -0.34404,-0.36269 -0.71483,-0.66149 -0.82397,-0.664 -0.10914,-0.002 -0.43656,-0.2427 -0.7276,-0.53374 -0.29105,-0.29104 -0.70358,-0.52917 -0.91674,-0.52917 -0.45058,0 -1.00613,0.89936 -0.7276,1.17789 0.10402,0.10402 0.19616,0.2685 0.20476,0.36552 0.10628,1.19911 0.49585,2.42534 0.77052,2.42534 0.18851,0 0.40503,0.23813 0.48114,0.52917 0.10979,0.41986 0.008,0.52917 -0.49221,0.52917 -0.70323,0 -1.30781,-0.76269 -1.57301,-1.98438 -0.0948,-0.43656 -0.23225,-0.97234 -0.30551,-1.19062 -0.1947,-0.58013 -0.41015,-2.86999 -0.39208,-4.16719 0.0132,-0.9445 -0.0671,-1.12448 -0.50118,-1.12448 -0.39817,0 -0.52641,0.19745 -0.55853,0.8599 -0.0229,0.47294 -0.0216,1.03849 0.003,1.25677 0.0245,0.21828 0.11001,1.11125 0.19,1.98437 0.08,0.87313 0.25887,1.93717 0.39748,2.36455 0.31144,0.96021 -0.0891,1.51839 -0.6683,0.9314 -0.38393,-0.38906 -0.54093,-0.98989 -0.82669,-3.16366 -0.0861,-0.65484 -0.25307,-1.6378 -0.37107,-2.18436 -0.118,-0.54656 -0.12784,-1.04733 -0.0219,-1.11283 0.31556,-0.19503 -0.009,-1.6829 -0.39948,-1.83284 -0.59697,-0.22908 -0.73997,0.34776 -0.81015,3.26795 -0.0925,3.84771 0.41169,5.06201 2.31441,5.57436 0.55243,0.14875 1.17986,0.4459 1.3943,0.66034 0.21443,0.21444 0.51745,0.38988 0.67336,0.38988 0.15592,0 0.28348,0.1228 0.28348,0.27289 0,0.51785 -0.84459,0.59463 -1.75664,0.1597 -0.50477,-0.24071 -1.18991,-0.36719 -1.52858,-0.28219 -0.45893,0.11518 -0.75338,-0.0234 -1.16719,-0.54952 -0.30439,-0.38696 -0.68249,-0.62381 -0.84022,-0.52632 -0.15774,0.0975 -0.45308,0.0393 -0.65631,-0.12942 -0.20323,-0.16866 -0.58496,-0.28426 -0.8483,-0.25689 -0.26334,0.0274 -0.53833,0.0206 -0.61109,-0.0151 -0.4279,-0.2098 -4.1831,-0.15841 -4.82699,0.0661 -0.55398,0.19312 -0.85632,0.18093 -1.08003,-0.0435 -0.50949,-0.51121 0.80547,-1.33967 2.07056,-1.30451 1.77139,0.0492 1.98438,-0.01 1.98438,-0.55054 0,-0.7149 -0.43962,-0.91581 -0.60661,-0.27723 -0.21112,0.80731 -0.94768,0.62543 -1.35144,-0.3337 -0.54784,-1.30136 -1.04207,-3.40923 -1.00811,-4.29948 0.083,-2.17489 0.35245,-3.06802 1.00002,-3.31422 0.37262,-0.14168 0.64322,-0.45802 0.64322,-0.75197 0,-0.27907 0.192,-0.58108 0.42667,-0.67113 0.34555,-0.1326 0.36454,-0.2386 0.0999,-0.55748 -0.17972,-0.21656 -0.52056,-0.40334 -0.7574,-0.41507 -0.23684,-0.0117 -0.89825,-0.27962 -1.4698,-0.59531 l -1.03918,-0.57399 -0.0777,-2.11666 c -0.0427,-1.16446 0.0581,-2.45798 0.22425,-2.87536 0.26443,-0.6644 0.23133,-0.81236 -0.26637,-1.19062 -0.38991,-0.29634 -0.5214,-0.60944 -0.41882,-0.99733 0.15893,-0.60096 -0.56446,-1.68357 -1.12495,-1.68357 -0.17438,0 -0.39553,-0.3573 -0.49145,-0.794 -0.11583,-0.5274 -0.37826,-0.84517 -0.78157,-0.94639 -0.33395,-0.0838 -0.73576,-0.43459 -0.89291,-0.7795 -0.24439,-0.53637 -0.20706,-0.65207 0.25802,-0.79968 0.29906,-0.0949 0.67463,-0.0417 0.83461,0.11829 0.15998,0.15997 0.45481,0.29086 0.65518,0.29086 0.20037,0 0.73313,0.36882 1.1839,0.8196 0.45078,0.45077 1.29287,1.13538 1.87131,1.52135 0.57845,0.38597 1.2175,0.82083 1.42013,0.96635 0.26856,0.19287 0.49088,0.11363 0.82031,-0.29237 0.48744,-0.60075 1.37795,-1.02444 1.37795,-0.65562 0,0.12432 -0.17786,0.56707 -0.39524,0.98389 -0.45897,0.88003 -0.50985,1.4193 -0.13392,1.4193 0.14552,0 0.35388,0 0.46302,0 0.10914,0 0.20343,-0.0893 0.20953,-0.19843 0.017,-0.30466 0.93375,-1.96506 1.53079,-2.77261 0.44127,-0.59687 0.60356,-0.66569 0.93584,-0.39688 0.32332,0.26158 0.36098,0.25707 0.19244,-0.0231 -0.11525,-0.19155 -0.20954,-0.75747 -0.20954,-1.25759 0,-0.7014 -0.17544,-1.03425 -0.76729,-1.45568 -0.42201,-0.3005 -0.76729,-0.67926 -0.76729,-0.84169 0,-0.4582 -1.0801,-2.57906 -1.31345,-2.57906 -0.11435,0 -0.28216,-0.37125 -0.37291,-0.82501 -0.19489,-0.97445 -1.35582,-2.94618 -2.26535,-3.84747 l -0.64441,-0.63858 0.55299,-0.55299 c 0.42182,-0.42182 0.99829,-0.58484 2.43035,-0.68731 1.03255,-0.0739 1.87736,-0.22599 1.87736,-0.33804 0,-0.11204 0.65484,-0.1642 1.45521,-0.1159 1.42968,0.0863 1.45521,0.0752 1.45521,-0.63385 0,-0.39693 -0.13398,-0.85566 -0.29774,-1.01942 -0.19113,-0.19112 -0.22728,-0.66008 -0.10096,-1.30968 0.31432,-1.61647 0.35275,-3.83891 0.0853,-4.93475 -0.17993,-0.73731 -0.15621,-1.12186 0.0873,-1.41528 0.37213,-0.44839 0.50595,-1.60701 0.53652,-4.64512 0.0133,-1.32141 0.14099,-2.14564 0.36068,-2.32796 0.59054,-0.49011 0.76347,0.25821 0.71157,3.07929 -0.0429,2.33386 0.0184,2.75874 0.474,3.28407 0.36408,0.41978 0.44276,0.70046 0.25856,0.9224 -0.14711,0.17725 -0.23169,1.39404 -0.19034,2.73835 0.0409,1.33063 -0.031,2.41934 -0.15982,2.41934 -0.12882,0 -0.14558,0.20836 -0.0372,0.46302 0.40865,0.96057 0.40412,2.45812 -0.008,2.61624 -0.21837,0.0838 -0.39703,0.27325 -0.39703,0.42102 0,0.15589 0.16519,0.13158 0.39351,-0.0579 0.21642,-0.17961 0.55644,-0.26405 0.75558,-0.18763 0.19914,0.0764 1.05258,-0.0889 1.89652,-0.36728 0.84395,-0.27842 1.8037,-0.50622 2.13279,-0.50622 0.32908,0 0.63802,-0.10645 0.68653,-0.23656 0.0485,-0.1301 0.55282,-0.15974 1.1207,-0.0659 0.91905,0.15195 0.98446,0.21058 0.59531,0.53354 -0.24045,0.19956 -0.44098,0.55662 -0.44561,0.79347 -0.0122,0.62382 -0.6944,1.45327 -0.9093,1.10554 -0.0961,-0.15553 -0.10201,-0.51204 -0.0131,-0.79223 0.13633,-0.42955 0.0353,-0.50586 -0.64438,-0.48654 -0.78458,0.0223 -1.09779,0.52462 -0.54149,0.86843 0.14552,0.0899 0.26458,0.39462 0.26458,0.67708 0,0.75234 -0.96475,0.65185 -1.67558,-0.17453 l -0.59186,-0.68808 -1.84284,0.4564 c -1.01356,0.25102 -1.87474,0.48341 -1.91372,0.51642 -0.11279,0.0955 0.67297,1.52478 0.93455,1.6999 0.35662,0.23876 1.62218,3.0321 1.47882,3.26406 -0.32163,0.52041 -0.82928,0.0576 -1.6673,-1.52015 -0.50177,-0.94465 -1.00473,-1.71756 -1.11769,-1.71756 -0.11295,0 -0.38464,-0.34666 -0.60374,-0.77036 -0.42561,-0.82302 -0.84961,-0.84391 -2.25386,-0.11103 -0.36776,0.19193 -1.17467,0.3497 -1.79313,0.3506 -1.17674,0.002 -1.37957,0.2379 -0.74727,0.87021 0.20747,0.20747 0.56411,0.78152 0.79254,1.27567 0.70506,1.52519 1.47724,2.72529 2.13543,3.31881 0.34661,0.31254 0.92074,1.14598 1.27586,1.85208 0.53507,1.0639 0.65301,1.71438 0.68847,3.79736 0.0235,1.38245 0.10823,2.88603 0.18819,3.34129 0.0891,0.50702 -0.0201,1.14778 -0.28171,1.65365 -0.37019,0.71588 -0.37467,0.82589 -0.0336,0.82589 0.38419,0 0.94877,-1.53591 1.00872,-2.74418 0.0612,-1.23322 0.98138,-1.62887 1.46348,-0.62926 0.2429,0.50365 0.28986,0.35725 0.30501,-0.95081 0.0153,-1.32563 0.0949,-1.56625 0.55766,-1.68727 0.45951,-0.12016 0.48857,-0.20497 0.19551,-0.57054 -0.41265,-0.51474 -1.26442,-2.03448 -1.26442,-2.256 0,-0.0866 0.41648,-0.12776 0.92551,-0.0915 0.50903,0.0363 0.92575,0.17374 0.92604,0.30543 2.9e-4,0.1317 0.21826,0.0424 0.48438,-0.19844 0.26612,-0.24083 0.62331,-0.43788 0.79375,-0.43788 0.44448,0 0.38258,-0.44466 -0.087,-0.62484 -0.63008,-0.24179 -0.46209,-0.67348 0.33073,-0.84992 1.48941,-0.33146 1.66742,-0.43061 2.01742,-1.12368 0.19689,-0.38987 0.34441,-1.1851 0.32783,-1.76718 -0.0243,-0.85236 -0.12026,-1.04321 -0.49316,-0.98059 -0.35306,0.0593 -0.46303,-0.10584 -0.46303,-0.69521 0,-1.25499 1.12581,-1.72467 1.69096,-0.70545 0.16138,0.29104 0.44225,0.62438 0.62415,0.74075 0.1819,0.11637 0.33073,0.33176 0.33073,0.47863 0,0.14688 -0.13746,0.1821 -0.30547,0.0783 -0.19077,-0.1179 -0.23358,-0.0725 -0.11401,0.121 0.1053,0.17038 0.30714,0.23828 0.44852,0.1509 0.28624,-0.17691 0.0386,-1.21548 -0.34935,-1.46527 -0.36499,-0.235 -0.60411,-2.35324 -0.26564,-2.35324 0.15261,0 0.70174,0.50602 1.22028,1.12448 l 0.94281,1.12448 0.005,-1.15243 c 0.004,-0.8483 -0.16938,-1.35988 -0.65628,-1.93853 -0.3638,-0.43235 -0.66146,-0.96651 -0.66146,-1.18703 0,-0.33966 0.12583,-0.32645 0.82349,0.0864 1.44042,0.85251 2.222458,3.95454 1.44102,5.7159 -0.15031,0.33879 -0.10748,0.42793 0.15687,0.32649 0.199988,-0.0768 0.517598,-0.52458 0.705808,-0.99519 0.1882,-0.47061 0.5172,-1.21359 0.73111,-1.65108 0.21391,-0.43748 0.449,-1.33045 0.52243,-1.98437 0.0734,-0.65393 0.18563,-1.33778 0.24934,-1.51968 0.21676,-0.61893 -0.18693,-1.12448 -0.8979,-1.12448 -0.52565,0 -0.71973,-0.1406 -0.75007,-0.54337 -0.0225,-0.29885 0.13015,-0.60902 0.33925,-0.68926 0.27913,-0.10711 0.33803,-0.40947 0.22161,-1.13753 -0.18006,-1.12604 0.15357,-1.40603 1.72108,-1.44434 1.05494,-0.0258 1.06162,-0.0475 1.0659,-3.46154 0.004,-3.38246 0.01,-3.30729 -0.23839,-3.30729 -0.12406,0 -0.30941,0.89468 -0.41188,1.98819 -0.10247,1.0935 -0.27525,2.04316 -0.38396,2.11035 -0.10871,0.0672 -0.15128,0.39289 -0.0946,0.72379 0.11184,0.6528 -0.29885,1.49105 -0.58858,1.20132 -0.24305,-0.24305 -0.25156,-2.16774 -0.0243,-5.49449 0.22358,-3.27249 0.38527,-5.9496 0.41646,-6.89542 0.0248,-0.75293 0.89541,-1.83583 1.47588,-1.83583 0.52255,0 0.72398,1.33928 0.76257,5.07017 0.0232,2.23875 -0.064,3.25746 -0.29496,3.44909 -0.372,0.30861 -0.17047,0.83507 0.22589,0.5901 0.15118,-0.0934 0.25689,0.26157 0.25479,0.85558 -0.0113,3.20689 0.0134,3.53906 0.25232,3.39139 0.14095,-0.0871 0.25628,-0.44902 0.25628,-0.80423 0,-0.66229 0.8268,-1.70418 1.35236,-1.70418 0.27764,0 0.26514,0.19926 -0.14406,2.29692 -0.0761,0.3901 0.0828,0.70512 0.49016,0.97207 0.65405,0.42854 1.31571,2.3371 1.16931,3.37285 -0.089,0.62965 -0.19442,0.67727 -1.6294,0.73597 -0.6155,0.0252 -0.7312,0.13467 -0.66133,0.62583 0.0536,0.37696 0.25446,0.58184 0.54757,0.55857 0.25459,-0.0202 0.46289,0.05 0.46289,0.15609 0,0.26844 1.7486,0.77094 3.175,0.9124 0.82901,0.0822 1.39615,-0.0163 1.86733,-0.32454 0.37218,-0.24344 1.44375,-0.9475 2.38125,-1.56459 0.9375,-0.61708 1.83492,-1.12309 1.99427,-1.12447 0.15934,-0.001 0.51405,-0.2504 0.78824,-0.55338 0.48924,-0.54061 0.48763,-0.57075 -0.087,-1.61975 -0.32202,-0.58789 -0.52087,-1.17344 -0.4419,-1.30122 0.30327,-0.4907 1.05812,-0.19435 1.50506,0.59086 0.38459,0.67569 0.58232,0.79082 1.12447,0.65474 0.71749,-0.18007 0.8347,0.0981 0.36094,0.85672 -0.23846,0.38184 -0.10565,0.91033 0.67489,2.6856 0.53448,1.21562 1.01946,2.63718 1.07774,3.15904 0.0583,0.52186 0.20255,1.30602 0.32059,1.74258 0.11805,0.43656 0.15362,1.44859 0.0791,2.24896 -0.0746,0.80036 -0.0323,1.89968 0.0939,2.44291 0.25593,1.10154 10e-4,3.81506 -0.38029,4.05082 -0.13534,0.0836 -0.24606,0.54981 -0.24606,1.03592 0,0.57464 -0.32992,1.3741 -0.94307,2.28523 -0.51868,0.77076 -1.17681,1.88405 -1.4625,2.47398 -0.28569,0.58993 -1.22807,2.07022 -2.09417,3.28954 -0.8661,1.21931 -1.50467,2.33029 -1.41905,2.46883 0.28653,0.46362 3.00837,-0.42464 3.00837,-0.98176 0,-0.18306 0.74855,-1.09627 1.66344,-2.02935 0.91489,-0.93308 1.87298,-2.13808 2.12908,-2.67778 0.2561,-0.53969 0.5702,-0.98126 0.69799,-0.98126 0.1278,0 0.79011,-0.92273 1.4718,-2.05052 1.20636,-1.99579 2.95038,-4.3421 3.35972,-4.51996 0.11163,-0.0485 0.20297,-0.30937 0.20297,-0.5797 0,-0.27033 0.11152,-0.56043 0.24783,-0.64467 0.1363,-0.0842 0.41451,-0.47822 0.61823,-0.87551 0.87682,-1.70991 1.66454,-2.94995 2.93675,-4.62305 0.74611,-0.98122 1.55462,-2.05278 1.79669,-2.38125 0.35706,-0.48449 0.50527,-0.5339 0.78523,-0.26177 0.38322,0.37248 -0.0779,1.50026 -1.3032,3.18766 -0.35038,0.4825 -0.57267,0.94166 -0.49398,1.02036 0.0787,0.0787 -0.0879,0.39098 -0.37015,0.69397 -0.28228,0.30299 -0.51655,0.7368 -0.5206,0.96402 -0.004,0.22722 -0.36123,0.88082 -0.79375,1.45245 -0.43251,0.57163 -0.78638,1.1967 -0.78638,1.38906 0,0.19236 -0.11747,0.34975 -0.26104,0.34975 -0.20771,0 -1.0509,1.52079 -1.17357,2.11666 -0.015,0.0728 -0.47223,0.79946 -1.01611,1.61489 -0.54388,0.81542 -0.99092,1.58933 -0.99344,1.71979 -0.002,0.13046 -0.30017,0.51758 -0.66146,0.86028 -0.68483,0.64959 -0.84477,1.09671 -0.3923,1.09671 0.14552,0 0.26458,0.36138 0.26458,0.80306 0,0.73409 0.0478,0.77749 0.55622,0.50538 0.30592,-0.16372 0.78217,-0.23859 1.05833,-0.16637 0.31733,0.083 0.50212,-0.006 0.50212,-0.2408 0,-0.20466 -0.11906,-0.3721 -0.26458,-0.3721 -0.96066,0 0.55477,-2.12007 1.78593,-2.49851 0.7544,-0.23189 0.77047,0.1613 0.0862,2.10824 -0.28003,0.79673 -0.44404,1.4486 -0.36448,1.4486 0.0796,0 0.003,0.17098 -0.17067,0.37996 -0.23407,0.28204 -0.24002,0.5207 -0.0231,0.92604 0.18797,0.35124 0.19689,0.54608 0.025,0.54608 -0.15582,0 -0.20113,0.33075 -0.10866,0.7931 0.0872,0.4362 0.0292,0.94903 -0.12899,1.13963 -0.15818,0.1906 -0.46185,1.01553 -0.67482,1.83317 -0.21297,0.81763 -0.63415,1.73355 -0.93596,2.03536 -0.64919,0.64919 -0.69696,1.15469 -0.15187,1.60708 0.21828,0.18115 0.39687,0.60542 0.39687,0.94282 0,0.33739 0.0893,0.66864 0.19844,0.73609 0.33347,0.2061 0.37338,4.11354 0.0582,5.69498 -0.57897,2.90471 -1.23563,4.15569 -2.03406,3.875 -0.48207,-0.16946 -0.68822,0.34848 -0.28993,0.72841 0.58952,0.56234 3.79835,1.55426 5.01494,1.55022 0.63442,-0.002 2.58224,-0.0172 4.32849,-0.0336 1.74625,-0.0164 3.81633,0.0959 4.60018,0.24961 0.78384,0.15366 1.45572,0.27939 1.49304,0.27939 0.0373,0 0.13822,0.18331 0.2242,0.40737 0.13444,0.35035 -0.1171,0.39068 -1.79715,0.28814 -1.07441,-0.0656 -2.21872,-0.26118 -2.54291,-0.43468 -0.3242,-0.17351 -0.6636,-0.21387 -0.75423,-0.0897 -0.0906,0.12416 -0.87917,0.24282 -1.75229,0.26367 -0.87313,0.0209 -2.02879,0.12489 -2.56813,0.23118 -0.53935,0.1063 -1.19419,0.10351 -1.45521,-0.006 -0.26102,-0.10969 -0.9746,-0.1943 -1.58574,-0.18802 -0.63726,0.007 -1.24102,-0.14504 -1.41565,-0.35545 -0.16747,-0.20179 -0.701,-0.44128 -1.18562,-0.53219 -0.48462,-0.0909 -0.94277,-0.32595 -1.01812,-0.5223 -0.18537,-0.48306 -1.9421,-0.92599 -4.22913,-1.0663 -2.88683,-0.1771 -4.50604,-0.10701 -4.69786,0.20336 -0.0957,0.15478 -0.29088,0.20913 -0.43383,0.12078 -0.14295,-0.0883 -0.9004,0.003 -1.68323,0.20305 -2.61287,0.66762 -3.71672,0.77374 -3.9696,0.3816 -0.16521,-0.2562 -0.28887,-0.27425 -0.43028,-0.0628 -0.10914,0.16318 -0.82352,0.62214 -1.5875,1.01992 -0.76398,0.39777 -1.38906,0.84645 -1.38906,0.99706 0,0.38035 -0.83289,0.97507 -1.37976,0.98521 -0.24954,0.005 -0.57445,0.23402 -0.72202,0.50975 -0.63643,1.1892 -4.695138,1.63695 -7.423218,0.81893 z m 14.450608,-5.4174 c 1.11992,-0.0832 1.32446,-0.24888 1.55005,-1.25517 0.31662,-1.41235 0.40831,-3.74162 0.15349,-3.89911 -0.13019,-0.0805 -0.27603,-0.32094 -0.32408,-0.53437 -0.25483,-1.13202 -0.69068,-1.10107 -2.46453,0.175 -1.25634,0.9038 -1.69079,1.36498 -1.56446,1.66072 0.0962,0.22519 0.21076,1.24288 0.25459,2.26152 0.0438,1.01865 0.0877,1.89476 0.0974,1.94691 0.01,0.0522 0.34516,0.007 0.74534,-0.0997 0.40019,-0.10698 1.09866,-0.2221 1.55217,-0.25581 z m 7.11294,-1.03984 c 0.46601,-0.0131 1.07419,-0.29551 1.47295,-0.68386 0.37357,-0.3638 0.94656,-0.84005 1.27332,-1.05833 0.7003,-0.46782 1.33982,-1.76447 1.2397,-2.51355 -0.17332,-1.29678 -0.48765,-2.51354 -0.64933,-2.51354 -0.097,0 -0.38022,0.23813 -0.62942,0.52917 -0.2492,0.29104 -0.58446,0.52917 -0.74503,0.52917 -0.16057,0 -0.35421,-0.23813 -0.43032,-0.52917 -0.0761,-0.29104 -0.24356,-0.54405 -0.37211,-0.56224 -0.12855,-0.0182 -0.37263,-0.048 -0.5424,-0.0661 -0.70327,-0.0754 -0.44775,-0.66581 0.41074,-0.94914 0.50776,-0.16758 1.22703,-0.54367 1.59836,-0.83576 0.99738,-0.78454 2.31159,-0.5922 2.6544,0.3885 0.21634,0.61887 0.17705,0.81643 -0.22015,1.10687 -0.26592,0.19445 -0.40081,0.48733 -0.29975,0.65084 0.1633,0.26424 0.34411,1.08874 0.45021,2.05301 0.0547,0.49671 0.42258,0.39831 0.74195,-0.19843 0.15576,-0.29105 0.21035,-0.52917 0.1213,-0.52917 -0.089,0 0.20399,-0.30788 0.65118,-0.68417 0.72846,-0.61295 0.80711,-0.82163 0.75562,-2.00487 -0.0316,-0.72639 -0.15023,-1.37804 -0.26361,-1.44812 -0.11339,-0.0701 -0.20616,-0.45772 -0.20616,-0.86144 0,-0.40372 -0.0733,-0.80729 -0.16278,-0.89682 -0.0895,-0.0895 -0.78574,0.16964 -1.54714,0.57594 -1.96899,1.05072 -2.87215,1.28704 -5.23018,1.36857 -0.2518,0.009 -0.52671,0.12732 -0.61093,0.26358 -0.20148,0.326 -1.18022,0.32059 -1.18022,-0.006 0,-0.88046 2.49811,-1.92759 4.45837,-1.86881 0.64786,0.0194 1.19402,-0.22542 2.0289,-0.90954 0.62833,-0.51487 1.38324,-0.93612 1.67758,-0.93612 0.29435,0 0.60996,-0.12101 0.70136,-0.2689 0.0914,-0.1479 0.2688,-0.20549 0.39421,-0.12798 0.30594,0.18908 0.62962,-0.37416 0.6931,-1.2061 0.0285,-0.37304 0.23528,-1.11748 0.45958,-1.6543 0.2243,-0.53683 0.30285,-0.97606 0.17457,-0.97606 -0.12829,0 -0.30435,0.22399 -0.39123,0.49774 -0.0869,0.27376 -0.3628,0.73658 -0.61315,1.02849 -0.25034,0.29191 -0.79517,0.96015 -1.21073,1.48497 -0.41556,0.52482 -0.85495,0.8928 -0.97641,0.81773 -0.12147,-0.0751 -0.46547,0.12607 -0.76445,0.44699 -0.38885,0.41738 -0.89161,0.59815 -1.76612,0.635 -0.67238,0.0283 -1.30473,0.18454 -1.40522,0.34714 -0.10049,0.16259 -0.50346,0.32217 -0.89549,0.35462 -0.39203,0.0324 -0.71278,0.13224 -0.71278,0.22177 0,0.0895 -0.14883,0.17104 -0.33073,0.18115 -0.1819,0.0101 -0.71768,0.10436 -1.19063,0.20946 -0.54694,0.12154 -0.85989,0.0896 -0.85989,-0.0877 0,-0.45606 0.7805,-1.09834 1.53985,-1.26715 1.95226,-0.434 5.22714,-1.91322 6.29243,-2.8422 0.63995,-0.55807 1.16355,-1.14401 1.16355,-1.30209 0,-0.15807 0.16932,-0.47538 0.37626,-0.70512 0.20694,-0.22974 0.45741,-0.74286 0.55659,-1.14028 l 0.18033,-0.72258 -1.68107,0.85325 c -0.92459,0.46929 -1.7406,0.92245 -1.81336,1.00701 -0.0728,0.0846 -0.84667,0.50202 -1.71979,0.92766 -0.87313,0.42565 -1.64703,0.84879 -1.71979,0.94032 -0.0728,0.0915 -0.74784,0.25022 -1.50018,0.35264 -1.79377,0.24421 -2.13438,0.67659 -2.09225,2.65594 0.0186,0.87313 -0.10777,1.88516 -0.2808,2.24896 -0.37213,0.78242 -1.89779,2.38125 -2.27227,2.38125 -0.38991,0 0.017,1.40018 0.51827,1.7832 0.23607,0.1804 0.35334,0.40388 0.26059,0.49663 -0.0927,0.0927 0.005,0.58477 0.21775,1.09338 0.21251,0.50861 0.38639,1.20531 0.38639,1.54822 0,0.58179 0.0487,0.60196 0.7276,0.30165 1.10838,-0.49025 1.40581,-0.99713 1.23408,-2.10307 -0.15421,-0.99307 0.039,-2.06168 0.37281,-2.06168 0.2462,0 0.78842,1.26094 1.0025,2.3313 0.14495,0.72477 0.0514,1.00051 -0.55404,1.63242 -0.95365,0.99539 -2.17284,1.51473 -2.58601,1.10156 -0.48894,-0.48894 -0.61962,-0.35963 -0.64799,0.64123 l -0.0268,0.94401 1.76025,-0.194 c 0.96815,-0.1067 2.11745,-0.20408 2.55401,-0.2164 z m 5.68854,-1.46199 c 0,-0.31218 -0.51603,-0.64612 -0.70556,-0.45659 -0.18952,0.18952 0.14442,0.70555 0.45659,0.70555 0.13693,0 0.24897,-0.11203 0.24897,-0.24896 z m -38.619378,-2.76799 c -0.13182,-0.34673 -0.17407,-0.88133 -0.0939,-1.18799 0.084,-0.32119 0.0206,-0.55756 -0.14963,-0.55756 -0.40524,0 -0.38584,-2.97877 0.0221,-3.38666 0.24694,-0.24695 0.24582,-0.3175 -0.005,-0.3175 -0.21193,0 -0.26561,-0.22685 -0.15653,-0.66146 0.12554,-0.5002 0.0623,-0.66146 -0.25954,-0.66146 -0.23406,0 -0.42556,0.21431 -0.42556,0.47625 0,0.26194 -0.099,0.58936 -0.22003,0.7276 -0.36857,0.42105 0.0751,4.66166 0.62717,5.99448 0.43102,1.04058 0.5474,1.15972 0.70823,0.72497 0.10584,-0.28613 0.0846,-0.80393 -0.0472,-1.15067 z m 40.471458,1.16487 c 0.31288,-0.31288 0.52867,-0.88063 0.52794,-1.38906 l -10e-4,-0.8599 -0.85867,0.91632 c -0.83057,0.88634 -1.0022,1.24586 -0.79407,1.66337 0.16916,0.33932 0.57524,0.22005 1.12602,-0.33073 z m -25.06386,-1.09261 c -0.15952,-0.15952 -0.44133,-0.19652 -0.62625,-0.0822 -0.24837,0.1535 -0.20254,0.25633 0.17538,0.39353 0.62641,0.22741 0.84124,0.0791 0.45087,-0.31129 z m -18.828878,-1.02713 c -0.51993,-1.16129 -0.82184,-1.57071 -0.82184,-1.11448 0,0.30179 1.03685,2.17589 1.20382,2.17589 0.0513,0 -0.12062,-0.47764 -0.38198,-1.06141 z m 22.815568,0.26369 c 1.71194,-0.83766 2.72742,-1.52764 3.95985,-2.69058 0.71377,-0.67352 0.72133,-0.70678 0.19844,-0.87274 -0.57101,-0.18123 -0.7294,-0.78458 -0.27904,-1.06292 0.14552,-0.0899 0.26459,-0.33509 0.26459,-0.54478 0,-0.7491 -0.40983,-0.35979 -1.01892,0.96792 l -0.61895,1.34918 -1.14879,-0.17227 c -0.96222,-0.1443 -1.19226,-0.091 -1.41644,0.32783 -0.14721,0.27506 -0.19988,0.75925 -0.11706,1.07598 0.11834,0.45254 0.0588,0.54064 -0.27816,0.41135 -0.23617,-0.0906 -0.42877,-0.033 -0.42877,0.12836 0,0.16109 -0.12609,0.29289 -0.28019,0.29289 -0.15411,0 -0.19079,-0.14883 -0.0815,-0.33073 0.14215,-0.23662 0.0748,-0.23033 -0.23659,0.0221 -0.36004,0.29186 -0.56138,1.89368 -0.23826,1.89558 0.0492,2.9e-4 0.82313,-0.35844 1.71979,-0.79718 z m -3.09341,-0.86908 c 0.48944,-0.2892 0.45464,-1.24362 -0.0454,-1.24362 -0.48692,0 -1.01,1.24877 -0.76719,1.83156 0.15138,0.36336 0.19205,0.36602 0.31417,0.0205 0.0772,-0.21828 0.30142,-0.49208 0.49837,-0.60845 z m -2.154308,0.0774 c 0.0906,-0.14655 -0.0266,-0.33985 -0.26038,-0.42956 -0.50658,-0.19439 -0.78891,0.0198 -0.5454,0.41383 0.2197,0.35549 0.59132,0.36274 0.80578,0.0157 z m -12.97117,-2.7644 c -0.0117,-1.09854 -0.13437,-1.99507 -0.27253,-1.99229 -0.24197,0.005 -0.36653,3.46339 -0.15074,4.18544 0.23512,0.78673 0.44356,-0.29326 0.42327,-2.19315 z m 11.37897,0.48501 c 0.22023,-0.5271 0.40042,-1.17419 0.40042,-1.43799 0,-0.26379 0.13885,-0.8148 0.30856,-1.22446 0.429,-1.03556 0.41538,-0.94875 0.45212,-2.88089 0.0286,-1.5044 0.0956,-1.72713 0.49609,-1.64987 0.629638,0.12147 0.741868,3.13226 0.16381,4.39476 -1.06184,2.31914 -0.53712,3.81105 0.795498,2.26179 0.68195,-0.79281 1.10103,-2.43747 0.71856,-2.81994 -0.12564,-0.12563 -0.0577,-0.56497 0.15259,-0.98647 0.258,-0.51716 0.3433,-1.32395 0.267,-2.52534 -0.12973,-2.04258 0.002,-2.75657 0.50805,-2.75657 0.33829,0 0.72679,0.92154 0.62067,1.47226 -0.0262,0.13614 -0.0331,0.60472 -0.0154,1.04128 l 0.0323,0.79375 0.47557,-0.79375 c 0.32961,-0.55016 0.46272,-1.26162 0.43374,-2.31827 -0.0308,-1.12099 0.0816,-1.66685 0.42455,-2.06226 0.49659,-0.57257 0.48756,-1.16144 -0.0556,-3.62312 -0.16856,-0.76398 -0.39207,-1.38906 -0.49669,-1.38906 -0.10463,0 -0.33818,-0.35719 -0.51901,-0.79375 -0.18083,-0.43656 -0.45324,-0.79375 -0.60536,-0.79375 -0.15212,0 -0.21132,-0.0653 -0.13156,-0.14503 0.0798,-0.0798 -0.0724,-0.40718 -0.33811,-0.7276 -0.26573,-0.32042 -0.84693,-1.01502 -1.29156,-1.54355 -0.44462,-0.52853 -0.80841,-1.09408 -0.80841,-1.25677 0,-0.56894 0.93406,-0.28814 1.87711,0.5643 0.88558,0.80049 2.60093,3.37323 2.24907,3.37323 -0.0866,0 0.0744,0.23185 0.35778,0.51521 0.76166,0.76166 1.13233,2.48027 1.14431,5.30563 0.008,1.86016 -0.12555,2.89181 -0.51334,3.96875 -0.28819,0.80036 -0.49982,1.93145 -0.47029,2.51354 0.0295,0.58208 -0.008,1.16353 -0.084,1.2921 -0.0757,0.12858 -0.16152,0.62677 -0.19068,1.1071 -0.0292,0.48033 -0.24912,1.1726 -0.48878,1.53837 -0.24412,0.37258 -0.32763,0.73187 -0.18988,0.817 0.29682,0.18344 1.33575,-0.87732 1.33575,-1.36382 0,-0.19027 0.23985,-1.039 0.533,-1.88608 0.29315,-0.84708 0.57575,-2.06795 0.628,-2.71303 0.0946,-1.16823 0.32578,-3.01993 0.58725,-4.7044 0.13095,-0.84358 0.1608,-0.86458 0.62796,-0.4418 0.3565,0.32263 0.46151,0.70908 0.38443,1.41484 -0.0583,0.53403 -0.16905,1.823 -0.24607,2.86437 -0.20749,2.80553 -0.55696,4.37651 -1.03282,4.64281 -0.5335,0.29857 -0.54801,0.89999 -0.0265,1.10009 0.26995,0.10359 0.39687,-0.0143 0.39687,-0.36856 0,-0.28648 0.0956,-0.52087 0.21251,-0.52087 0.11688,0 0.50209,-0.8632 0.85602,-1.91823 0.51446,-1.53351 0.65302,-2.52847 0.69086,-4.96093 0.0404,-2.59653 0.11161,-3.05579 0.48564,-3.13187 0.26724,-0.0544 0.49467,0.12636 0.58271,0.46302 0.0794,0.3037 0.23052,0.55218 0.33577,0.55218 0.37242,0 0.84355,-1.99903 0.7171,-3.04271 -0.4027,-3.32389 -0.53607,-4.02349 -0.8683,-4.55475 -0.20156,-0.3223 -0.36647,-0.7321 -0.36647,-0.91065 0,-0.17856 -0.48452,-1.14022 -1.07671,-2.13701 -0.59218,-0.9968 -1.03308,-1.94324 -0.97976,-2.1032 0.0533,-0.15996 0.50808,-0.33306 1.01056,-0.38466 0.61383,-0.063 0.7915,-0.0156 0.54145,0.14466 -0.30351,0.19448 -0.21808,0.47112 0.46302,1.49939 0.45935,0.6935 0.83519,1.46404 0.83519,1.71231 0,0.24828 0.17859,0.59963 0.39687,0.78079 0.21828,0.18115 0.39688,0.53308 0.39688,0.78205 0,0.24897 0.0818,0.53447 0.18178,0.63445 0.21451,0.21451 0.2684,0.53561 0.47275,2.81683 0.20053,2.23866 0.35597,2.91042 0.67342,2.91042 0.14275,0 0.25955,-0.4097 0.25955,-0.91043 0,-1.09096 0.39301,-1.41147 1.02711,-0.83762 0.43167,0.39066 0.49613,0.35435 0.90937,-0.51222 0.24462,-0.51298 0.44477,-1.3491 0.44477,-1.85806 0,-0.54932 0.1506,-0.98316 0.3706,-1.06758 0.51053,-0.19591 0.24917,-4.09121 -0.37102,-5.52972 -0.25096,-0.58208 -0.66633,-1.55781 -0.92303,-2.16829 -0.25671,-0.61048 -0.73797,-1.36476 -1.06947,-1.67619 -0.57717,-0.54222 -0.63184,-0.54715 -1.28928,-0.11638 -0.37761,0.24741 -0.68656,0.55521 -0.68656,0.684 0,0.12878 -0.16585,0.23415 -0.36856,0.23415 -0.20272,0 -0.4371,0.1786 -0.52087,0.39688 -0.0838,0.21828 -0.32401,0.39687 -0.53389,0.39687 -0.20987,0 -1.27144,0.41672 -2.35903,0.92605 -1.08759,0.50932 -2.16977,0.92604 -2.40484,0.92604 -0.23506,0 -0.42739,0.1 -0.42739,0.22211 0,0.19233 -1.13009,0.83622 -1.46766,0.83622 -0.0659,0 -0.11984,-0.19935 -0.11984,-0.443 0,-0.38088 -0.0835,-0.36508 -0.59531,0.11268 -0.32742,0.30562 -0.94457,0.64242 -1.37143,0.74844 -0.42686,0.10602 -1.08171,0.35224 -1.455208,0.54715 -0.3735,0.19491 -0.86598,0.35512 -1.0944,0.35602 -0.48778,0.002 -1.59769,1.19676 -1.50244,1.61741 0.0361,0.15948 -0.4435,0.44485 -1.0658,0.63416 -0.62231,0.1893 -1.42179,0.53442 -1.77663,0.76691 -0.35484,0.2325 -0.85771,0.42455 -1.11749,0.42678 -1.11922,0.01 -1.25057,0.41264 -0.52922,1.62391 0.37673,0.63259 1.10993,1.62642 1.62933,2.2085 0.51941,0.58208 1.26076,1.59411 1.64744,2.24896 0.38668,0.65484 0.81283,1.26346 0.947,1.35249 0.13417,0.089 0.22144,0.24297 0.19394,0.34208 -0.0566,0.20412 0.4488,1.63413 0.83278,2.35619 0.14006,0.26339 0.34811,1.25511 0.46233,2.20383 0.19102,1.58673 0.13899,1.89524 -0.6494,3.85056 -0.7117,1.7651 -0.81191,2.25516 -0.59081,2.8894 0.35359,1.01431 0.65331,0.96302 1.13698,-0.19457 z m 12.816578,-1.61547 c 0.85209,-1.03374 1.09511,-1.69384 0.41614,-1.13035 -0.21829,0.18116 -0.39688,0.23452 -0.39688,0.11857 0,-0.11594 -0.29766,0.0688 -0.66146,0.4106 -0.64675,0.6076 -0.90362,1.5875 -0.41614,1.5875 0.13493,0 0.61118,-0.44385 1.05834,-0.98632 z m -17.707818,0.0429 c 0,-0.37337 -0.11254,-0.88914 -0.25009,-1.14616 -0.32387,-0.60514 -0.39227,-2.50061 -0.14204,-3.93577 l 0.19712,-1.13057 -1.3701,0.0485 c -1.05137,0.0372 -1.53649,-0.0834 -2.08531,-0.51848 -0.39337,-0.31183 -1.87484,-1.35022 -3.29218,-2.30754 -1.41733,-0.95731 -2.74782,-1.91142 -2.95663,-2.12024 -0.3479,-0.34789 -1.74244,-1.003 -1.74244,-0.81853 0,0.21681 3.6484,3.75398 3.93635,3.81634 0.18345,0.0397 0.59321,0.34426 0.91058,0.67673 0.31736,0.33247 1.05328,0.88874 1.63536,1.23617 0.58208,0.34742 1.15724,0.79364 1.27813,0.99159 0.17836,0.29206 0.29598,0.29668 0.62394,0.0245 0.33385,-0.27707 0.46821,-0.24781 0.7724,0.16819 0.52391,0.71649 0.48748,2.25454 -0.0534,2.25454 -0.23191,0 -0.48392,-0.23812 -0.56003,-0.52916 -0.0761,-0.29104 -0.30309,-0.52917 -0.5044,-0.52917 -0.2013,0 -0.36601,-0.11906 -0.36601,-0.26458 0,-0.14552 -0.11002,-0.26459 -0.24448,-0.26459 -0.13447,0 -1.27338,-0.74414 -2.53092,-1.65364 -1.25754,-0.90951 -2.48047,-1.77271 -2.71764,-1.91823 -0.23716,-0.14552 -0.64311,-0.44928 -0.90211,-0.67502 -0.61726,-0.53799 -2.60036,-1.59372 -2.55327,-1.35927 0.0201,0.10021 -0.0322,0.3608 -0.11624,0.57908 -0.35202,0.91408 -0.36841,1.83074 -0.035,1.95868 0.19077,0.0732 0.44779,0.52565 0.57115,1.00544 0.16965,0.6598 0.49577,1.00845 1.33848,1.43096 0.6128,0.30724 1.32039,0.73965 1.57243,0.96089 0.25204,0.22125 0.72614,0.48391 1.05356,0.58369 0.32743,0.0998 0.59532,0.27427 0.59532,0.38775 0,0.30964 3.1025,1.87467 3.71633,1.87467 0.29349,0 0.60331,0.18164 0.68849,0.40363 0.11944,0.31125 0.23865,0.33412 0.52087,0.0999 0.20128,-0.16705 0.36597,-0.45317 0.36597,-0.63581 0,-0.18265 0.18364,-0.48449 0.40809,-0.67077 0.61754,-0.51251 1.15327,0.0959 0.70977,0.80607 -0.48408,0.77514 -0.40772,1.29223 0.16857,1.14153 0.29562,-0.0773 0.55687,0.0384 0.65316,0.28935 0.25201,0.65673 0.70625,0.48908 0.70625,-0.26066 z m 2.19704,-0.66385 c 0.12445,-0.49844 0.28842,-1.28511 0.36438,-1.74815 0.16377,-0.99838 0.86037,-1.39995 1.06579,-0.61441 0.22336,0.85412 0.5309,0.60876 0.41317,-0.32964 -0.0593,-0.47294 -0.11681,-1.18732 -0.12773,-1.5875 -0.0109,-0.40018 -0.10794,-0.7276 -0.2156,-0.7276 -0.10766,0 -0.27747,-0.26789 -0.37736,-0.59532 -0.17038,-0.55853 -0.20668,-0.53813 -0.58761,0.33034 -0.22331,0.50911 -0.44835,1.22348 -0.50009,1.5875 -0.0517,0.36402 -0.27539,1.49529 -0.49699,2.51394 -0.49074,2.25586 -0.49333,2.32013 -0.0882,2.18507 0.17817,-0.0594 0.42576,-0.51579 0.55021,-1.01423 z m 7.460248,0.28436 c 0.0899,-0.14552 0.0374,-0.26458 -0.11668,-0.26458 -0.15411,0 -0.2802,0.11906 -0.2802,0.26458 0,0.14552 0.0525,0.26459 0.11668,0.26459 0.0642,0 0.19026,-0.11907 0.2802,-0.26459 z m -19.242008,-2.00976 c -0.15939,-0.34983 -0.41357,-0.63606 -0.56484,-0.63606 -0.16848,0 -0.15343,0.1216 0.0389,0.31389 0.24213,0.24212 0.21806,0.41978 -0.10529,0.77707 -0.5872,0.64885 -0.20216,1.19768 0.43543,0.62067 0.39789,-0.36009 0.43328,-0.55445 0.19584,-1.07557 z m 20.009148,-0.59301 c 0.10457,-0.1692 0.0842,-0.30763 -0.0454,-0.30763 -0.41919,0 -0.93402,1.26456 -0.71983,1.76808 0.17052,0.40086 0.23539,0.34495 0.38981,-0.33597 0.10189,-0.44927 0.27081,-0.95528 0.37538,-1.12448 z m 6.26392,0.81685 c 0.17887,-0.54571 0.47315,-1.23032 0.65396,-1.52136 0.51995,-0.83696 0.89044,-4.45846 0.49781,-4.86613 -0.0549,-0.057 -0.3276,0.17768 -0.60601,0.52151 -0.33893,0.41856 -0.60775,1.41451 -0.81354,3.01404 -0.16904,1.3139 -0.37041,2.71634 -0.44748,3.11652 -0.20874,1.0838 0.33979,0.88089 0.71526,-0.26458 z m 1.14786,0.303 c 0.22935,-0.088 0.35434,-0.2614 0.27775,-0.38532 -0.16915,-0.27369 -0.91605,-0.0217 -0.91605,0.30906 0,0.2791 0.0837,0.28909 0.6383,0.0763 z m 1.56002,-4.84502 c -0.16425,-0.22177 -0.3441,0.17018 -0.48437,1.05558 l -0.14365,0.90675 0.35483,-0.92604 c 0.19517,-0.50933 0.3181,-0.97566 0.27319,-1.03629 z m -18.073318,1.30087 c 0,-0.14552 -0.0525,-0.26458 -0.11667,-0.26458 -0.0642,0 -0.19026,0.11906 -0.2802,0.26458 -0.0899,0.14552 -0.0374,0.26458 0.11667,0.26458 0.15411,0 0.2802,-0.11906 0.2802,-0.26458 z m 0.5308,-1.40468 c 9e-4,-0.31883 0.1816,-0.9248 0.40156,-1.34658 0.36158,-0.69333 0.3573,-0.83197 -0.0446,-1.44531 -0.42107,-0.64264 -0.45522,-0.65104 -0.64755,-0.15916 -0.30943,0.79139 -0.28901,3.88795 0.0244,3.69427 0.14552,-0.0899 0.26532,-0.42438 0.26622,-0.74322 z m 19.811118,-1.24115 c 0.11918,0 0.2034,-0.32743 0.18715,-0.72761 -0.0162,-0.40018 0.0536,-1.13703 0.15514,-1.63743 0.25999,-1.28088 -0.0109,-2.44328 -0.54531,-2.33975 -0.34138,0.0661 -0.43953,0.48148 -0.48752,2.06307 -0.0331,1.08914 -0.12673,2.45651 -0.20819,3.03859 l -0.14811,1.05833 0.41508,-0.7276 c 0.22829,-0.40018 0.51259,-0.7276 0.63176,-0.7276 z m -1.82513,-0.59532 c 0.002,-0.10914 -0.11502,-0.19843 -0.26054,-0.19843 -0.14552,0 -0.26276,0.26789 -0.26053,0.59531 0.003,0.48139 0.0531,0.51936 0.26053,0.19844 0.14107,-0.21829 0.25831,-0.48618 0.26054,-0.59532 z m 10.47517,-0.32882 c 0.44234,-0.41777 0.71303,-2.06448 0.30829,-1.87542 -0.18061,0.0844 -0.50697,0.22133 -0.72525,0.30437 -0.34666,0.13189 -1.32291,1.83776 -1.32291,2.31161 0,0.20777 1.3394,-0.36234 1.73987,-0.74056 z m -32.696118,-0.14981 c 0,-0.65548 -0.31237,-0.65689 -0.72057,-0.003 -0.24895,0.39863 -0.2484,0.53556 0.002,0.62575 0.47278,0.16995 0.71807,-0.0427 0.71807,-0.6225 z m 1.58345,-0.18282 c 0.002,-0.18191 -0.11502,-0.33073 -0.26054,-0.33073 -0.14552,0 -0.26276,0.32742 -0.26053,0.7276 0.003,0.56699 0.0607,0.63999 0.26053,0.33073 0.14107,-0.21828 0.25831,-0.5457 0.26054,-0.7276 z m 20.641548,-0.61093 c 0,-0.13693 -0.11907,-0.24897 -0.26459,-0.24897 -0.14552,0 -0.26458,0.18562 -0.26458,0.41249 0,0.22687 0.11906,0.3389 0.26458,0.24897 0.14552,-0.0899 0.26459,-0.27556 0.26459,-0.41249 z m -23.631758,-0.56316 c -0.0845,-0.21107 -0.14716,-0.14837 -0.15986,0.15985 -0.0115,0.27891 0.0511,0.43518 0.13897,0.34726 0.0879,-0.0879 0.0973,-0.31612 0.0209,-0.50711 z m 1.91328,-1.4056 -0.0145,-0.52917 -0.2274,0.52917 c -0.12506,0.29104 -0.23393,0.70776 -0.24193,0.92604 -0.0129,0.35278 0.0139,0.35278 0.24193,0 0.14107,-0.21828 0.24994,-0.635 0.24194,-0.92604 z m 3.14786,0.73064 c -0.0487,-0.25299 -0.28624,-0.49805 -0.52783,-0.54457 -0.32752,-0.0631 -0.40302,0.0539 -0.29683,0.45998 0.17338,0.66299 0.95142,0.7428 0.82466,0.0846 z m -8.38441,-0.61797 c 0.0986,-0.35301 0.19123,-1.17549 0.20574,-1.82774 l 0.0264,-1.18589 -0.6241,0.92131 c -0.87046,1.28499 -1.06276,2.02385 -0.64863,2.4921 0.46119,0.52146 0.82191,0.38288 1.04062,-0.39978 z m 30.953598,-2.30316 c 0.0544,-1.81212 -0.14645,-2.33477 -0.51947,-1.35194 -0.28412,0.7486 -0.0671,3.54354 0.2505,3.22595 0.12062,-0.12062 0.24166,-0.96393 0.26897,-1.87401 z m -36.134568,1.28205 c -0.0959,-0.1552 -0.30101,-0.28219 -0.45577,-0.28219 -0.17544,0 -0.15537,0.15182 0.0533,0.40327 0.36289,0.43725 0.68722,0.33968 0.40245,-0.12108 z m 39.295978,-4.7801 c 0.18755,-0.65485 0.42396,-1.30969 0.52535,-1.45521 0.10139,-0.14552 0.0901,-1.0378 -0.0251,-1.98284 -0.12059,-0.98927 -0.10718,-1.84149 0.0316,-2.00872 0.13258,-0.15975 0.15701,-0.37451 0.0543,-0.47723 -0.10273,-0.10273 -0.21009,-0.44896 -0.23858,-0.76941 -0.21367,-2.40293 -0.50098,-4.09384 -0.79039,-4.65167 -0.18705,-0.36054 -0.30345,-0.72359 -0.25866,-0.80679 0.0448,-0.0832 -0.16967,-0.6191 -0.47656,-1.19091 -0.59188,-1.10279 -1.21945,-1.53224 -1.21945,-0.83448 0,0.23041 -0.1698,0.41892 -0.37734,0.41892 -0.20754,0 -1.16386,0.75616 -2.12516,1.68035 -1.51443,1.45597 -1.69369,1.72527 -1.34245,2.01677 0.22295,0.18503 0.40537,0.49453 0.40537,0.68776 0,0.19323 0.18231,0.45336 0.40514,0.57806 0.22284,0.1247 0.46802,0.57341 0.54485,0.99712 0.0768,0.42371 0.26628,0.92291 0.421,1.10933 0.15471,0.18642 0.19261,0.33895 0.0842,0.33895 -0.1084,0 -0.0489,0.17859 0.13229,0.39687 0.18116,0.21828 0.25108,0.39688 0.15538,0.39688 -0.0957,0 -0.0467,0.23792 0.10897,0.52872 0.15563,0.2908 0.33944,0.97541 0.40848,1.52135 0.069,0.54595 0.19041,1.34982 0.26972,1.78639 0.21729,1.19605 0.21817,1.27584 0.0225,2.05525 -0.19889,0.79244 -0.11583,0.85338 0.62374,0.45757 0.33704,-0.18038 0.55092,-0.17598 0.66818,0.0137 0.23188,0.37519 0.24735,2.34069 0.0249,3.16196 -0.0985,0.36381 0.22714,-0.11244 0.72374,-1.05833 0.4966,-0.94588 1.05636,-2.25557 1.24391,-2.91042 z m -16.81728,0.52916 c 0.0899,-0.14552 0.0374,-0.26458 -0.11667,-0.26458 -0.15411,0 -0.2802,0.11906 -0.2802,0.26458 0,0.14552 0.0525,0.26459 0.11668,0.26459 0.0642,0 0.19026,-0.11907 0.28019,-0.26459 z m -6.386608,-4.89479 c -0.16102,-0.41962 -0.62484,-0.55056 -0.62484,-0.17639 0,0.2798 0.28921,0.57327 0.56496,0.57327 0.1167,0 0.14365,-0.1786 0.0599,-0.39688 z m 2.66157,-0.49792 0.928668,-0.63021 -0.833238,-0.16664 c -0.87838,-0.17568 -1.25366,0.11119 -1.26113,0.96404 -0.005,0.59499 0.0554,0.5863 1.1657,-0.16719 z m 2.955868,-1.38397 c 0.35029,-0.0879 0.64599,-0.23624 0.65713,-0.3296 0.0111,-0.0934 0.0601,-0.37764 0.10872,-0.63173 0.0487,-0.25408 -0.0202,-0.52916 -0.15311,-0.61128 -0.13287,-0.0821 -0.16658,-0.61838 -0.0749,-1.19168 0.11127,-0.69579 0.0675,-1.04236 -0.13171,-1.04236 -0.16412,0 -0.2984,0.24287 -0.2984,0.53971 0,0.29684 -0.23303,0.99647 -0.51783,1.55474 -0.28481,0.55826 -0.44636,1.0865 -0.35901,1.17385 0.0873,0.0873 -0.0368,0.2339 -0.27592,0.32565 -0.23911,0.0917 -0.43474,0.28589 -0.43474,0.43142 0,0.14552 0.18965,0.1918 0.42145,0.10285 0.2318,-0.0889 0.70805,-0.23366 1.05833,-0.32157 z m -3.728738,-1.16082 c 0.0899,-0.14552 0.0374,-0.26458 -0.11668,-0.26458 -0.15411,0 -0.2802,0.11906 -0.2802,0.26458 0,0.14552 0.0525,0.26459 0.11668,0.26459 0.0642,0 0.19026,-0.11907 0.2802,-0.26459 z m 7.011458,-0.52918 c 0,-0.11158 -0.29766,-0.25978 -0.66146,-0.32932 -0.60985,-0.11658 -0.90654,0.26065 -0.51385,0.65334 0.1995,0.19949 1.17531,-0.0695 1.17531,-0.32402 z m 3.4682,-2.38123 c 0.12064,0 0.15539,-0.16669 0.0772,-0.37042 -0.0824,-0.21484 -0.51203,-0.37042 -1.02285,-0.37042 -0.48438,0 -1.12602,-0.0779 -1.42585,-0.17302 -0.53437,-0.16961 -0.53717,-0.14958 -0.14149,1.01169 l 0.40367,1.18471 0.94497,-0.64127 c 0.51974,-0.3527 1.04369,-0.64127 1.16433,-0.64127 z m 1.38481,0.67493 c 0.0983,-0.25626 0.02,-0.33461 -0.23628,-0.23628 -0.21087,0.0809 -0.3834,0.25345 -0.3834,0.3834 0,0.38037 0.45908,0.27138 0.61968,-0.14712 z m 2.29074,-1.7645 c 0,-0.14552 -0.11907,-0.191 -0.26459,-0.10106 -0.14552,0.0899 -0.26458,0.28259 -0.26458,0.42811 0,0.14552 0.11906,0.191 0.26458,0.10106 0.14552,-0.0899 0.26459,-0.28259 0.26459,-0.42811 z m -8.5479,-1.2205 c -0.0671,-0.25743 -0.12638,-0.11087 -0.13177,0.32569 -0.005,0.43656 0.0495,0.64719 0.12197,0.46806 0.0725,-0.17913 0.0769,-0.53632 0.01,-0.79375 z m -1.24169,-0.86493 c 0,-0.14552 -0.0525,-0.26459 -0.11667,-0.26459 -0.0642,0 -0.19026,0.11907 -0.2802,0.26459 -0.0899,0.14552 -0.0374,0.26458 0.11668,0.26458 0.1541,0 0.28019,-0.11906 0.28019,-0.26458 z m 0.0121,-1.87475 c 0.36175,-0.67592 0.20128,-0.87448 -0.52135,-0.64512 -0.6229,0.1977 -0.75776,1.19695 -0.16154,1.19695 0.21316,0 0.52046,-0.24832 0.68289,-0.55183 z m 3.57547,-0.7457 c -0.2562,-0.41455 -0.59443,-0.35799 -0.78199,0.13078 -0.25176,0.65609 0.10892,1.01149 0.56433,0.55607 0.21828,-0.21828 0.31623,-0.52736 0.21766,-0.68685 z M 72.231232,174.7921 c -1.10185,-0.2075 -1.5875,-0.42037 -1.5875,-0.69583 0,-0.31632 0.4565,-0.41068 2.24896,-0.46488 2.72836,-0.0825 2.91042,-0.10349 2.91042,-0.33569 0,-0.19406 4.47982,-2.442 5.4901,-2.75489 0.87544,-0.27113 0.77077,0.46519 -0.13229,0.93064 -0.40018,0.20626 -0.78714,0.43474 -0.8599,0.50773 -0.38739,0.38863 -5.21634,2.81077 -5.95312,2.98602 -0.29104,0.0692 -1.24354,-0.009 -2.11667,-0.1731 z m 23.52446,-2.5865 c -0.0583,-0.094 0.11616,-0.44524 0.38769,-0.78056 0.47273,-0.5838 0.51362,-0.58976 0.96308,-0.1403 0.34569,0.34569 0.52117,0.38557 0.66593,0.15135 0.1081,-0.17492 0.31215,-0.24659 0.45343,-0.15928 0.14128,0.0873 0.77967,0.0663 1.41864,-0.0466 0.987438,-0.17456 1.152308,-0.29255 1.098748,-0.78632 -0.0347,-0.31951 0.0419,-0.58093 0.17013,-0.58093 0.34664,0 0.57092,0.75228 0.27821,0.93318 -0.13916,0.086 -0.25303,0.37457 -0.25303,0.64125 0,0.30099 -0.27594,0.56555 -0.7276,0.69761 -0.877778,0.25665 -4.306118,0.31099 -4.455228,0.0706 z m -9.50154,-0.33012 c -0.87313,-0.16102 -1.74507,-0.39448 -1.93766,-0.51882 -0.56709,-0.3661 0.5752,-1.01119 1.46417,-0.82686 0.96803,0.20072 2.72245,0.72209 2.72245,0.80905 0,0.27384 -0.35363,0.89809 -0.49133,0.86736 -0.0936,-0.0209 -0.88451,-0.16972 -1.75763,-0.33073 z"
       id="path1" />
  </g>
</svg>
