<?xml version="1.0" encoding="UTF-8" standalone="no"?>
<!-- Created with Inkscape (http://www.inkscape.org/) -->

<svg
   width="114.52375mm"
   height="67.074928mm"
   viewBox="0 0 114.52374 67.074932"
   version="1.1"
   id="svg1"
   inkscape:version="1.4.1-rc (06eac75fbf, 2025-03-29)"
   sodipodi:docname="boat2.svg"
   xmlns:inkscape="http://www.inkscape.org/namespaces/inkscape"
   xmlns:sodipodi="http://sodipodi.sourceforge.net/DTD/sodipodi-0.dtd"
   xmlns="http://www.w3.org/2000/svg"
   xmlns:svg="http://www.w3.org/2000/svg">
  <sodipodi:namedview
     id="namedview1"
     pagecolor="#ffffff"
     bordercolor="#000000"
     borderopacity="0.25"
     inkscape:showpageshadow="2"
     inkscape:pageopacity="0.0"
     inkscape:pagecheckerboard="0"
     inkscape:deskcolor="#d1d1d1"
     inkscape:document-units="mm"
     inkscape:zoom="0.72248176"
     inkscape:cx="217.30652"
     inkscape:cy="126.6468"
     inkscape:window-width="1850"
     inkscape:window-height="1016"
     inkscape:window-x="0"
     inkscape:window-y="0"
     inkscape:window-maximized="1"
     inkscape:current-layer="layer1" />
  <defs
     id="defs1" />
  <g
     inkscape:label="Layer 1"
     inkscape:groupmode="layer"
     id="layer1"
     transform="translate(-48.418731,-114.8295)">
    <path
       style="fill:#000000"
       d="m 114.29999,181.67414 c 0,-0.19222 -0.99968,-0.43808 -2.77812,-0.68325 -0.64948,-0.0895 -1.89217,-0.4588 -2.31511,-0.68793 -0.27354,-0.14819 -0.46302,-0.15179 -0.46302,-0.009 0,0.13313 -0.23812,0.17979 -0.52916,0.10368 -0.29105,-0.0761 -0.52917,-0.30309 -0.52917,-0.5044 0,-0.41604 -0.42029,-0.49165 -0.65169,-0.11723 -0.14628,0.23668 -1.5065,-0.0858 -2.12644,-0.5041 -0.14552,-0.0982 -0.80036,-0.3402 -1.4552,-0.53779 -0.65485,-0.19759 -1.3786,-0.51669 -1.60834,-0.70911 -0.54931,-0.46009 -1.68601,-0.4468 -2.076984,0.0243 -0.26721,0.32198 -0.41011,0.3222 -1.02458,0.002 -0.93855,-0.48964 -3.00193,-0.47718 -4.20476,0.0254 -0.52809,0.22065 -1.18492,0.32985 -1.45962,0.24266 -0.27471,-0.0872 -1.08145,0.0507 -1.79277,0.30654 -1.09069,0.39221 -1.36042,0.40935 -1.7218,0.10943 -0.34704,-0.28801 -0.4131,-0.28962 -0.34744,-0.008 0.0508,0.2177 -0.38757,0.47083 -1.17569,0.67883 -0.95019,0.25076 -1.25678,0.25589 -1.25678,0.021 0,-0.4083 0.99641,-1.25316 1.40213,-1.18888 0.33652,0.0533 0.73256,-0.0806 2.43433,-0.8234 1.24704,-0.54428 4.80673,-1.10449 5.63757,-0.88722 0.40015,0.10464 0.58014,0.0327 0.58014,-0.23193 0,-0.56944 -0.30347,-0.76893 -0.68635,-0.45117 -0.22266,0.18479 -0.50207,0.19378 -0.81809,0.0263 -0.26396,-0.13989 -1.65353,-0.22964 -3.08794,-0.19946 -2.13249,0.0449 -2.65347,0.13615 -2.85741,0.50057 -0.13718,0.24512 -0.37434,0.44568 -0.52702,0.44568 -0.15267,0 -0.65277,0.16622 -1.11133,0.36937 -1.02209,0.45281 -3.85124,1.00035 -4.16545,0.80616 -0.12608,-0.0779 -0.47742,-0.009 -0.78077,0.15351 -0.33796,0.18087 -0.67308,0.20208 -0.86537,0.0548 -0.1726,-0.13223 -0.76351,-0.22016 -1.31314,-0.19539 -0.61618,0.0278 -0.96228,-0.0646 -0.90269,-0.24096 0.0532,-0.1573 0.38378,-0.29965 0.73474,-0.31633 0.35096,-0.0167 0.85848,-0.12332 1.12783,-0.23699 0.31717,-0.13385 0.56853,-0.0792 0.71337,0.1552 0.18538,0.29995 0.24981,0.29371 0.37651,-0.0365 0.10171,-0.26504 0.57128,-0.41626 1.40329,-0.4519 1.33753,-0.0573 2.70565,-0.50572 2.70565,-0.88682 0,-0.12787 -0.11906,-0.23248 -0.26458,-0.23248 -0.14552,0 -0.26482,0.0893 -0.26512,0.19843 -2.9e-4,0.10914 -0.41701,0.22814 -0.92604,0.26443 -0.67546,0.0482 -0.92551,-0.0412 -0.92551,-0.33073 0,-0.21819 0.20836,-0.40822 0.46302,-0.42228 2.52059,-0.13914 3.42251,-0.29632 4.50022,-0.78427 0.68996,-0.31239 1.58861,-0.5634 1.99701,-0.5578 0.40873,0.006 0.80802,-0.16048 0.8882,-0.36943 0.0801,-0.20878 0.29414,-0.3796 0.4756,-0.3796 0.18147,0 0.65133,-0.29786 1.04415,-0.66191 0.64676,-0.5994 0.88214,-0.65155 2.49222,-0.55213 0.97791,0.0604 2.37054,-0.003 3.09474,-0.14013 0.899874,-0.1708 1.903064,-0.15018 3.168804,0.0651 1.90217,0.32357 2.61721,0.64267 2.36273,1.05443 -0.26716,0.43226 0.168,0.81431 0.55843,0.49028 0.25364,-0.21051 0.61919,-0.22141 1.23322,-0.0368 0.47999,0.14433 1.29788,0.39225 1.81753,0.55093 0.51966,0.15867 1.19724,0.2885 1.50574,0.2885 0.30851,0 0.63807,0.12484 0.73238,0.27743 0.10453,0.16913 0.29137,0.1843 0.47863,0.0388 0.31679,-0.24604 5.09774,-0.24412 5.34401,0.002 0.15459,0.15459 2.52044,0.0177 2.69401,-0.15588 0.0611,-0.0611 -0.0449,-0.36074 -0.23554,-0.66595 -0.25049,-0.40111 -0.61795,-0.55493 -1.32563,-0.55493 -0.53849,0 -1.04262,-0.10283 -1.12029,-0.22851 -0.0777,-0.12567 -0.63032,-0.2285 -1.22811,-0.2285 -0.85927,0 -1.12954,0.11528 -1.29052,0.55047 -0.19263,0.52071 -0.25224,0.49817 -1.10261,-0.41684 -0.66851,-0.71931 -1.18725,-1.00862 -2.02345,-1.12849 -1.0001,-0.14336 -1.12448,-0.10297 -1.12448,0.36514 0,0.28948 -0.11854,0.59959 -0.26342,0.68913 -0.35577,0.21988 -1.58867,-1.1442 -1.58867,-1.75771 0,-0.26979 -0.1318,-0.49053 -0.29289,-0.49053 -0.16109,0 -0.22436,0.1786 -0.14059,0.39688 0.12071,0.31458 -0.0819,0.39687 -0.97711,0.39687 -0.62118,0 -1.25884,-0.12943 -1.41704,-0.28763 -0.18404,-0.18404 -0.34554,-0.19396 -0.44839,-0.0276 -0.0991,0.16035 -0.53619,0.17542 -1.13973,0.0393 -0.53845,-0.12144 -1.06962,-0.16478 -1.18039,-0.0963 -0.11077,0.0685 -0.6379,-0.0579 -1.1714,-0.28082 -0.5335,-0.22291 -1.246094,-0.40529 -1.583534,-0.40529 -0.33744,0 -0.69011,-0.12391 -0.7837,-0.27535 -0.0936,-0.15144 -0.40161,-0.20189 -0.68448,-0.11211 -0.28286,0.0898 -1.15447,0.19965 -1.93691,0.24416 -0.78244,0.0445 -1.54479,0.15644 -1.69411,0.24872 -0.14932,0.0923 -0.34648,0.0465 -0.43813,-0.10182 -0.112,-0.18123 -0.32913,-0.18264 -0.66234,-0.004 -0.27265,0.14592 -0.73053,0.2653 -1.01751,0.2653 -0.39681,0 -0.48761,-0.13071 -0.37907,-0.54575 0.0961,-0.36769 -0.0414,-0.67471 -0.42165,-0.94104 -0.85288,-0.59738 -0.70484,-0.96847 0.29553,-0.74081 1.12448,0.2559 4.16719,0.31456 4.16719,0.0803 0,-0.26252 -1.60414,-0.7841 -1.88247,-0.61208 -0.12881,0.0796 -0.23419,0.0187 -0.23419,-0.13546 0,-0.15411 -0.47625,-0.2802 -1.05834,-0.2802 -0.58208,0 -1.05832,-0.0893 -1.05831,-0.19843 10e-6,-0.10914 -1.57757,-0.1582 -3.50573,-0.10902 -4.86117,0.12399 -4.96096,0.13416 -4.96096,0.50589 0,0.38076 -0.95245,0.45152 -1.17744,0.0875 -0.21299,-0.34463 0.59085,-1.07967 1.18072,-1.07967 0.27206,0 0.56633,-0.11597 0.65393,-0.25772 0.0895,-0.14481 1.38176,-0.24165 2.94966,-0.22104 2.14776,0.0282 2.84493,-0.0495 3.02728,-0.33759 0.36679,-0.57944 0.29226,-0.77115 -0.29976,-0.77115 -0.29963,0 -0.4712,0.11907 -0.38126,0.26459 0.2051,0.33187 -0.39921,0.33867 -0.91838,0.0103 -0.46539,-0.29432 -0.29433,-0.51468 0.5215,-0.67179 0.33042,-0.0636 0.663,-0.17793 0.73906,-0.25399 0.0761,-0.0761 0.29872,-0.005 0.4948,0.15758 0.21396,0.17756 0.77274,0.22932 1.39744,0.12942 0.59877,-0.0958 1.11054,-0.0538 1.20481,0.0987 0.22983,0.37188 0.99294,0.33249 0.86718,-0.0448 -0.11823,-0.35471 -0.63544,-0.43724 -3.31423,-0.52885 -1.8588,-0.0636 -2.35891,-0.25843 -1.50458,-0.58627 0.2275,-0.0873 0.35109,-0.25994 0.27464,-0.38365 -0.15604,-0.25248 3.28125,-0.16278 4.13402,0.10787 0.4579,0.14533 0.51645,0.0922 0.35153,-0.31917 -0.10883,-0.27146 -0.22388,-0.64757 -0.25567,-0.8358 -0.0318,-0.18824 -0.2584,-0.57655 -0.5036,-0.86292 -0.2452,-0.28638 -0.44581,-0.6741 -0.44581,-0.86161 0,-0.18752 -0.10023,-0.45405 -0.22272,-0.59229 -0.12249,-0.13825 -0.36744,-0.92832 -0.54434,-1.75572 -0.17689,-0.8274 -0.44749,-1.54632 -0.60133,-1.5976 -0.15384,-0.0513 -0.33169,-0.56491 -0.39522,-1.1414 -0.0635,-0.57649 -0.21912,-1.50933 -0.34577,-2.07299 -0.31065,-1.38262 -0.11689,-1.75344 0.9162,-1.75344 0.67231,0 0.90126,-0.13148 1.02008,-0.58584 0.0843,-0.32222 0.0684,-0.64964 -0.0353,-0.72761 -0.24905,-0.1873 -0.24206,-1.2305 0.01,-1.48486 0.10914,-0.11016 0.19843,-0.47108 0.19843,-0.80204 0,-0.33096 0.12604,-0.67964 0.28008,-0.77485 0.16463,-0.10174 0.20734,-0.50424 0.10362,-0.97648 l -0.17646,-0.80338 1.01885,0.19113 c 1.33252,0.24999 1.47224,0.35465 1.28039,0.95912 -0.0885,0.27879 -0.0477,0.5069 0.0907,0.5069 0.13835,0 0.31491,-0.24228 0.39235,-0.5384 0.10765,-0.41165 0.30073,-0.50939 0.82024,-0.41519 0.3737,0.0678 0.81379,0.20624 0.97798,0.30771 0.16419,0.10148 0.39932,0.0214 0.52251,-0.17791 0.17839,-0.28863 0.29087,-0.29553 0.55251,-0.0339 0.18068,0.18069 0.54283,0.32852 0.80476,0.32852 0.26194,0 0.47625,0.10792 0.47625,0.23981 0,0.1319 0.22937,0.17984 0.5097,0.10653 0.312604,-0.0817 0.690254,0.0776 0.976634,0.41205 0.33719,0.39381 0.55879,0.46912 0.79749,0.27101 0.23514,-0.19514 0.69786,-0.10394 1.60306,0.31595 1.4983,0.69502 2.51304,0.87368 4.02385,0.70844 0.99846,-0.1092 0.94676,0.50934 -0.0707,0.84512 -1.14697,0.37853 -1.61616,0.91409 -1.33995,1.52949 0.11513,0.25652 0.2349,0.64499 0.26616,0.86327 0.0484,0.33825 0.37177,1.68762 0.76077,3.175 0.23369,0.89353 1.01247,2.13704 1.50268,2.39939 0.28758,0.15391 0.50294,0.48068 0.4786,0.72616 -0.14778,1.48983 0.65535,1.45427 1.45424,-0.0644 0.71248,-1.35437 1.32451,-1.59195 1.15676,-0.44904 -0.0668,0.4551 -0.023,0.82746 0.0973,0.82746 0.12032,0 0.21876,-0.16586 0.21876,-0.36857 0,-0.31677 0.52798,-0.68976 0.97637,-0.68976 0.2015,0 -0.17697,1.41111 -0.45471,1.69535 -0.13996,0.14324 -0.4019,0.10133 -0.64913,-0.10385 -0.47351,-0.39299 -0.53221,-0.3586 -0.78353,0.45902 -0.13097,0.42609 -0.0749,0.59531 0.19725,0.59531 0.48179,0 3.61191,0.99437 3.99679,1.26969 0.15886,0.11364 0.64603,0.18861 1.08259,0.16661 0.43656,-0.022 1.10304,-0.0565 1.48108,-0.0767 0.7024,-0.0375 0.80883,-0.34257 0.82041,-2.35179 0.002,-0.32742 0.096,-0.59531 0.20917,-0.59531 0.11316,0 0.26801,-0.23813 0.34412,-0.52917 0.0761,-0.29104 0.26963,-0.52916 0.43004,-0.52916 0.32847,0 0.1107,2.72916 -0.27834,3.48833 -0.38966,0.76037 -0.26588,0.87658 0.95851,0.89984 1.13164,0.0215 1.19412,-0.0167 1.3454,-0.82312 0.0873,-0.46512 0.10736,-1.8246 0.0447,-3.02106 -0.0836,-1.59486 -0.019,-2.27041 0.24204,-2.53142 0.19581,-0.19582 0.34662,-0.57289 0.33513,-0.83795 -0.0121,-0.27789 -0.0774,-0.3419 -0.15434,-0.15119 -0.28917,0.71665 -0.48623,0.26059 -0.48623,-1.12531 0,-1.69072 0.46984,-1.95402 1.06075,-0.59448 0.20556,0.47295 0.37841,0.70404 0.38411,0.51355 0.0139,-0.46529 0.53952,-0.12076 0.53952,0.35366 0,0.22281 -0.15977,0.31165 -0.39688,0.22066 -0.21828,-0.0838 -0.39687,-0.0205 -0.39687,0.1406 0,0.16109 0.16471,0.29289 0.36601,0.29289 0.7405,0 0.75432,2.64017 0.0181,3.4537 -0.21125,0.23343 -0.38409,0.8545 -0.38409,1.38016 0,0.52566 -0.12484,1.0329 -0.27743,1.1272 -0.18643,0.11522 -0.16473,0.30803 0.0661,0.58781 0.27193,0.32952 0.27461,0.43956 0.0129,0.52766 -0.49629,0.16704 -0.39852,0.69134 0.19844,1.06415 0.35218,0.21994 0.52916,0.23474 0.52916,0.0442 0,-0.15742 0.20836,-0.2461 0.46303,-0.19705 0.63574,0.12243 0.58535,0.8488 -0.0661,0.95331 -0.46802,0.0751 -1.43761,0.46711 -2.82541,1.14237 -0.28054,0.13651 -0.49214,0.0978 -0.57442,-0.10507 -0.0772,-0.19024 -0.13879,-0.14268 -0.15116,0.11665 -0.017,0.35687 -0.22885,0.41405 -1.14537,0.30916 -0.61846,-0.0708 -1.44435,-0.22921 -1.8353,-0.35208 -0.42614,-0.13393 -1.07907,-0.11038 -1.63035,0.0588 -0.50739,0.15572 -1.1375,0.18682 -1.40584,0.0694 -0.26747,-0.11705 -0.54584,-0.23309 -0.6186,-0.25785 -0.0728,-0.0248 -0.46971,-0.18472 -0.8821,-0.35547 -0.4124,-0.17075 -0.86412,-0.23981 -1.00382,-0.15346 -0.13971,0.0863 -0.51954,-0.017 -0.84406,-0.22962 -0.32452,-0.21263 -0.90299,-0.38661 -1.28548,-0.38661 -0.3825,0 -0.95827,-0.18409 -1.2795,-0.40909 -0.5342,-0.37416 -0.66627,-0.36427 -1.54715,0.11586 -1.05328,0.5741 -2.19779,1.79382 -1.99345,2.12444 0.0708,0.11461 -0.0153,0.4776 -0.19141,0.80666 -0.59611,1.11384 -0.50849,1.85891 0.31067,2.64174 0.42569,0.40682 0.91452,0.73966 1.08628,0.73966 0.17177,0 0.53731,0.20363 0.81232,0.4525 0.42157,0.38152 0.53623,0.39388 0.73097,0.0788 0.12704,-0.20555 0.15517,-0.49637 0.0625,-0.64628 -0.34402,-0.55665 -0.24132,-1.36955 0.30302,-2.39854 0.30793,-0.58208 0.6206,-1.35599 0.69483,-1.71979 0.0864,-0.42347 0.3425,-0.69109 0.71177,-0.7438 0.55925,-0.0798 2.5621,0.49528 3.53146,1.01407 0.26219,0.14032 0.87864,0.319 1.36987,0.39707 1.30851,0.20796 5.23408,0.29813 5.23408,0.12023 0,-0.16958 3.01045,-0.83473 3.35423,-0.7411 0.1197,0.0326 0.74603,-0.20265 1.39182,-0.52277 0.6458,-0.32012 1.36017,-0.58218 1.5875,-0.58236 0.22733,-1.7e-4 0.75927,-0.29783 1.18208,-0.66145 0.42282,-0.36363 0.86931,-0.67602 0.99219,-0.69421 0.49781,-0.0737 0.63766,-0.12387 1.03315,-0.37071 0.22707,-0.14172 0.61402,-0.55206 0.8599,-0.91186 0.24588,-0.3598 0.44729,-0.5384 0.44758,-0.39688 2.9e-4,0.14152 0.65513,-1.04804 1.45521,-2.64347 0.80007,-1.59543 1.45468,-2.99606 1.45468,-3.11251 0,-0.11646 0.35033,-0.94728 0.77852,-1.84628 0.53981,-1.13335 0.70505,-1.76096 0.53889,-2.04686 -0.19391,-0.33363 -0.30305,-0.24822 -0.57195,0.44758 -0.18277,0.47294 -0.42527,0.85989 -0.53888,0.85989 -0.11362,0 -0.20658,0.16868 -0.20658,0.37483 0,0.20615 -0.0893,0.41451 -0.19844,0.46302 -0.45702,0.20312 -1.62132,2.83249 -1.79645,4.05694 -0.24817,1.73526 -0.32017,1.82403 -1.07709,1.32808 -0.58735,-0.38485 -0.65556,-0.3844 -0.80511,0.005 -0.11346,0.29567 -0.35455,0.3778 -0.78898,0.26877 -0.62801,-0.15762 -0.90504,0.24499 -0.30599,0.44467 0.5832,0.1944 -0.99406,1.58058 -1.9213,1.68854 -1.05747,0.12313 -1.28613,0.31409 -0.7719,0.64466 0.34163,0.2196 0.34069,0.28205 -0.008,0.51073 -1.22362,0.80325 -1.65338,-0.1391 -0.50525,-1.10789 2.1992,-1.85569 3.32456,-3.3461 2.88982,-3.82723 -0.41922,-0.46395 -0.50096,-2.16595 -0.11923,-2.48276 0.39805,-0.33036 0.25013,-0.89434 -0.16695,-0.63657 -0.13741,0.0849 -0.26139,-0.41032 -0.28042,-1.12016 -0.0188,-0.69981 -0.0775,-1.62957 -0.13053,-2.06614 -0.053,-0.43656 -0.0954,-1.15185 -0.0942,-1.58953 10e-4,-0.43769 -0.36144,-2.64035 -0.80591,-4.8948 -0.90843,-4.60787 -0.95314,-4.96513 -1.1753,-9.39066 -0.20564,-4.09638 -0.33174,-4.75645 -0.82971,-4.34317 -0.22611,0.18765 -0.28558,0.43034 -0.14898,0.60796 0.37495,0.48753 0.19938,3.60779 -0.2175,3.86544 -0.31042,0.19184 -0.31093,0.29289 -0.003,0.66352 0.24918,0.30024 0.27363,0.49305 0.0781,0.61547 -0.15945,0.0998 -0.29809,1.09279 -0.31501,2.25615 -0.0166,1.14283 -0.087,2.16976 -0.15642,2.28206 -0.2876,0.46536 -0.39867,2.62135 -0.14317,2.77926 0.50106,0.30967 0.30161,1.76885 -0.31487,2.30352 -0.45652,0.39594 -0.509,0.55705 -0.23634,0.72557 0.19645,0.12141 0.24118,0.28417 0.10177,0.37033 -0.13679,0.0845 -0.19552,0.51614 -0.13051,0.95911 0.0999,0.68071 0.0316,0.8054 -0.44099,0.8054 -0.41648,0 -0.55919,-0.16483 -0.55919,-0.64584 0,-0.35522 0.10666,-0.71177 0.23704,-0.79234 0.13037,-0.0806 0.15931,-0.53409 0.0643,-1.00781 -0.22447,-1.11934 -0.0723,-2.63427 0.24495,-2.43821 0.13609,0.0841 0.24744,-0.0199 0.24744,-0.23125 0,-0.40916 -0.7087,-0.80958 -0.87678,-0.49539 -0.38098,0.71217 -0.75441,2.85786 -0.63038,3.62214 0.0822,0.50637 0.0378,0.98967 -0.0987,1.074 -0.13645,0.0843 -0.24451,0.83066 -0.24012,1.6585 0.0137,2.58966 -0.21282,5.14194 -0.47144,5.31133 -0.13652,0.0894 -0.22325,0.46023 -0.19273,0.82404 0.0707,0.84297 -0.10954,1.32291 -0.49688,1.32291 -0.31432,0 -0.3372,-1.74507 -0.0573,-4.36562 0.0777,-0.72761 0.20476,-2.21589 0.28229,-3.30729 0.27683,-3.89702 0.45587,-5.4278 0.66535,-5.68855 0.1169,-0.14552 0.27752,-1.09802 0.35691,-2.11666 0.0794,-1.01865 0.22451,-2.12175 0.32247,-2.45133 0.14289,-0.48074 0.0933,-0.56671 -0.25065,-0.43471 -0.23582,0.0905 -0.44562,0.36015 -0.46622,0.59924 -0.0206,0.23909 -0.0544,0.67284 -0.0751,0.96388 -0.0733,1.02925 -0.47863,1.98438 -0.84213,1.98438 -0.37671,0 -0.51215,-0.82618 -0.1885,-1.14984 0.0988,-0.0988 0.22595,-0.67594 0.28248,-1.28245 0.0565,-0.60652 0.27332,-1.43256 0.48176,-1.83564 0.20844,-0.40308 0.37899,-1.02187 0.37899,-1.37508 0,-0.35321 0.17728,-0.78933 0.39396,-0.96916 0.21668,-0.17983 0.33872,-0.41634 0.27121,-0.52558 -0.0675,-0.10924 0.11703,-0.69492 0.4101,-1.30151 0.29307,-0.60659 0.46166,-1.21809 0.37464,-1.3589 -0.087,-0.14081 -0.0321,-0.25601 0.12197,-0.25601 0.15411,0 0.2802,0.10786 0.2802,0.23969 0,0.13183 0.30041,0.10206 0.66758,-0.0661 0.87456,-0.40066 0.79875,-1.3542 -0.10813,-1.36008 -0.67849,-0.004 -1.3475,-0.76858 -0.97689,-1.11587 0.12391,-0.11612 0.27845,-0.0623 0.34342,0.1196 0.065,0.1819 0.37608,0.32694 0.69138,0.32231 0.53289,-0.008 0.54065,-0.0332 0.11024,-0.3599 -0.56419,-0.42828 -0.59332,-0.69002 -0.0768,-0.69002 0.2557,0 0.37124,-0.2459 0.3419,-0.7276 -0.0244,-0.40018 0.0427,-1.16028 0.14917,-1.68909 0.14962,-0.74345 0.10209,-0.99657 -0.2096,-1.11618 -0.26174,-0.10044 -0.40986,0.005 -0.42236,0.30003 -0.0106,0.2501 -0.0404,1.04796 -0.0662,1.77304 -0.0361,1.01621 -0.15187,1.33875 -0.50499,1.40751 -0.38637,0.0752 -0.44986,-0.10013 -0.40548,-1.11988 0.0289,-0.66499 0.13464,-1.20908 0.23489,-1.20908 0.10025,0 0.11983,-0.23876 0.0435,-0.53057 -0.0763,-0.29182 -0.004,-0.69345 0.16163,-0.89251 0.1652,-0.19906 0.23337,-0.53654 0.15148,-0.74995 -0.21915,-0.57109 0.54978,-1.08924 1.32695,-0.89418 0.67105,0.16842 0.94718,-0.21373 0.33417,-0.46247 -0.51996,-0.21098 0.28288,-0.66662 0.89331,-0.50699 0.77353,0.20228 0.80036,0.43933 0.20266,1.79053 -0.4035,0.91219 -0.48633,1.40114 -0.30588,1.80556 0.24062,0.53924 0.26125,0.53359 0.74454,-0.20401 0.27338,-0.41723 0.62281,-1.59464 0.77651,-2.61646 0.27658,-1.83885 0.8086,-2.62974 0.97575,-1.45055 0.0476,0.33581 -0.0246,1.41314 -0.1604,2.39407 -0.18088,1.30632 -0.36791,1.82189 -0.69904,1.92699 -0.49438,0.15691 -0.85623,1.10212 -0.50501,1.31919 0.21334,0.13185 0.0795,2.95512 -0.15829,3.33994 -0.0655,0.10602 -0.009,0.26064 0.12492,0.3436 0.13423,0.083 0.18166,0.38948 0.10538,0.68115 -0.0763,0.29167 -0.0193,0.67851 0.12658,0.85964 0.14589,0.18112 0.34468,0.70117 0.44176,1.15566 0.13497,0.63193 0.0745,0.86551 -0.25719,0.99277 -0.34826,0.13364 -0.39786,0.37851 -0.25178,1.24313 0.10005,0.59219 0.18052,1.51466 0.17882,2.04994 -0.003,0.89575 1.11552,6.06323 1.36655,6.31427 0.0602,0.0602 0.0168,0.52017 -0.0964,1.02221 -0.11323,0.50204 -0.11468,0.91279 -0.003,0.91279 0.25517,0 0.56007,2.14435 0.69599,4.89479 0.18824,3.80933 0.42389,5.15938 0.90056,5.15938 0.12746,0 0.40041,-0.24079 0.60655,-0.53509 0.249,-0.35551 0.54263,-0.48033 0.8749,-0.37192 0.36367,0.11866 0.40373,0.0942 0.14683,-0.0898 -0.53473,-0.38286 -0.008,-1.94179 1.12152,-3.32044 0.52077,-0.63554 0.88335,-1.21903 0.80574,-1.29664 -0.0776,-0.0776 0.19132,-0.43126 0.59765,-0.78586 0.40633,-0.35461 0.86985,-0.87544 1.03005,-1.1574 0.1602,-0.28197 0.60668,-0.55035 0.99219,-0.59639 0.3855,-0.046 0.70092,-0.18542 0.70092,-0.30971 0,-0.12429 0.36523,-0.3062 0.81162,-0.40425 0.4464,-0.098 0.85169,-0.31586 0.90066,-0.48404 0.18428,-0.63292 0.42573,-1.12312 0.93253,-1.89328 0.54221,-0.82397 1.07728,-1.92312 1.15921,-2.38125 0.026,-0.14552 0.11763,-0.38365 0.20356,-0.52917 0.0859,-0.14552 0.23494,-0.70109 0.33112,-1.2346 0.1949,-1.08112 1.70367,-5.76067 1.99052,-6.17373 0.10106,-0.14552 0.16338,-0.53143 0.13849,-0.85757 -0.0249,-0.32615 0.11705,-0.72768 0.3154,-0.8923 0.19835,-0.16461 0.36064,-0.53067 0.36064,-0.81346 0,-0.71339 0.50337,-1.58488 0.80702,-1.39722 0.13822,0.0854 0.2611,-5.3e-4 0.27307,-0.19102 0.0579,-0.922 0.29894,-1.93796 0.48899,-2.06118 0.11642,-0.0755 0.29528,-0.40514 0.39746,-0.73256 0.10218,-0.32743 0.35635,-0.59532 0.56483,-0.59532 0.39072,0 0.47011,-0.24878 0.39279,-1.23088 -0.0247,-0.31318 0.19476,-0.73724 0.48759,-0.94234 0.30758,-0.21544 0.65504,-0.92012 0.82281,-1.66872 0.15971,-0.71268 0.38287,-1.41972 0.4959,-1.57119 0.11302,-0.15148 0.42133,-0.87072 0.68512,-1.59832 0.26379,-0.72761 0.57911,-1.45077 0.70072,-1.60703 0.12237,-0.15724 0.10076,-0.40446 -0.0484,-0.55361 -0.18294,-0.18295 -0.13483,-0.38126 0.1498,-0.61749 0.82393,-0.6838 0.98034,0.0754 0.42695,2.07232 -0.28793,1.03903 -0.59772,2.00923 -0.68843,2.156 -0.0907,0.14677 -0.22072,1.00292 -0.28892,1.90255 -0.0682,0.89964 -0.25039,1.78801 -0.40489,1.97416 -0.15449,0.18615 -0.20408,0.46273 -0.1102,0.61463 0.0939,0.1519 0.0572,0.27617 -0.0815,0.27617 -0.13871,0 -0.25257,0.26789 -0.25303,0.59532 -4.5e-4,0.32742 -0.0644,0.9525 -0.14205,1.38906 -0.0777,0.43656 -0.14943,0.94258 -0.15946,1.12448 -0.0249,0.45129 -0.50005,0.41587 -0.9897,-0.0738 -0.36294,-0.36295 -0.361,-0.49616 0.0189,-1.29675 0.48161,-1.01491 0.5477,-1.73833 0.15882,-1.73833 -0.14552,0 -0.26458,0.22137 -0.26458,0.49193 0,0.27055 -0.34178,1.13376 -0.75951,1.91822 -0.41773,0.78447 -0.84963,1.84303 -0.95977,2.35235 -0.2388,1.10432 -1.6785,4.23334 -1.94781,4.23334 -0.10407,0 -0.2071,0.44833 -0.22895,0.9963 -0.0219,0.54796 -0.22501,1.35163 -0.45146,1.78593 -0.22646,0.43431 -0.41247,0.99699 -0.41337,1.25042 -9e-4,0.25343 -0.21702,0.59529 -0.48026,0.75969 -0.32558,0.20333 -0.44489,0.52883 -0.37311,1.01791 0.064,0.43636 -0.0673,0.89178 -0.33402,1.15854 -0.31998,0.31998 -0.34444,0.44064 -0.0899,0.44359 0.27866,0.003 0.27562,0.0509 -0.015,0.235 -0.20054,0.12703 -0.29175,0.34887 -0.20268,0.49298 0.0891,0.14412 -0.0242,0.63512 -0.25167,1.09112 -0.22748,0.45601 -0.36383,0.97648 -0.30299,1.15662 0.0608,0.18014 0.31147,-0.0594 0.55694,-0.53237 0.26756,-0.51548 0.6493,-0.8599 0.95308,-0.8599 0.58585,0 1.04774,0.57974 0.58483,0.73404 -0.17128,0.0571 -0.31142,0.51763 -0.31142,1.02342 0,0.55553 0.10645,0.85381 0.26889,0.75341 0.1479,-0.0914 0.2004,-0.27702 0.11668,-0.41249 -0.19932,-0.3225 -0.0227,-0.31073 0.77225,0.0515 0.64197,0.2925 1.1194,1.34505 0.82568,1.8203 -0.25456,0.41189 0.49504,1.32151 1.08903,1.32151 0.60582,0 0.84982,0.81353 1.05983,3.53369 0.0812,1.05138 0.028,1.25741 -0.29292,1.13427 -0.32778,-0.12578 -0.3389,-0.0652 -0.0678,0.36891 0.17839,0.28566 0.42424,0.51938 0.54632,0.51938 0.12207,0 0.14128,0.36733 0.0427,0.8163 -0.0986,0.44896 -0.2088,1.37169 -0.24486,2.05052 -0.0706,1.329 -0.18666,1.85175 -0.68518,3.0863 -0.17629,0.43656 -0.34583,1.09141 -0.37676,1.45521 -0.0309,0.3638 -0.26217,1.12259 -0.51387,1.68619 l -0.45764,1.02474 0.74476,-0.13808 c 0.40961,-0.076 1.04241,-0.219 1.40621,-0.31789 1.73652,-0.47204 4.37418,-0.83981 4.4575,-0.62151 0.0505,0.1324 0.25401,0.10616 0.45218,-0.0583 0.42705,-0.35441 2.05251,-0.0714 1.81327,0.31566 -0.0885,0.14313 -0.51104,0.22351 -0.93906,0.17861 -0.42802,-0.0449 -0.8627,0.0504 -0.96595,0.21174 -0.2763,0.43176 -1.30745,0.69347 -1.50065,0.38086 -0.16143,-0.26119 -0.31813,-0.21766 -1.62969,0.45272 -0.38209,0.1953 -0.64766,0.20062 -0.83161,0.0167 -0.18395,-0.18395 -0.49316,-0.12421 -0.96826,0.18709 -0.3839,0.25154 -0.76904,0.3863 -0.85588,0.29946 -0.25356,-0.25356 -3.79435,1.76432 -3.79435,2.16238 0,0.23858 0.1576,0.2987 0.46302,0.17663 0.25466,-0.10179 0.78793,-0.21047 1.18504,-0.24152 0.39711,-0.0311 1.02218,-0.33846 1.38906,-0.68312 0.36688,-0.34466 0.66705,-0.55244 0.66705,-0.46174 0,0.0907 0.40159,-0.003 0.89243,-0.20798 0.49084,-0.20508 0.95986,-0.30546 1.04226,-0.22306 0.0824,0.0824 0.68835,-0.0558 1.34655,-0.30721 0.65819,-0.25136 1.36529,-0.39234 1.57133,-0.31328 0.20604,0.0791 0.50657,0.0118 0.66785,-0.14948 0.16127,-0.16128 0.56274,-0.33083 0.89213,-0.37677 0.3294,-0.046 0.83703,-0.20211 1.12807,-0.34703 0.93972,-0.46793 5.29482,-0.96809 6.89544,-0.79191 0.849,0.0935 1.99633,0.16105 2.54963,0.15021 0.88122,-0.0173 1.00601,0.0563 1.00599,0.59344 -1e-5,0.49313 -0.10379,0.5802 -0.53023,0.44486 -0.29161,-0.0926 -0.80267,-0.19733 -1.13567,-0.23284 -0.333,-0.0355 -0.74925,-0.15342 -0.925,-0.26204 -0.17574,-0.10861 -0.31953,-0.0768 -0.31953,0.0707 0,0.43563 -1.80252,0.6627 -2.25826,0.28447 -0.2202,-0.18275 -0.47686,-0.25578 -0.57036,-0.16228 -0.0935,0.0935 -0.0241,0.17 0.1543,0.17 0.17836,0 0.25371,0.1142 0.16744,0.25379 -0.091,0.14717 -0.8756,0.18667 -1.86769,0.094 -1.20133,-0.11218 -1.71085,-0.0696 -1.71085,0.14308 0,0.16852 -0.40237,0.30285 -0.90714,0.30285 -0.49893,0 -1.10033,0.19318 -1.33645,0.4293 -0.29997,0.29997 -0.69946,0.38545 -1.32615,0.28375 -0.53682,-0.0871 -0.93546,-0.0297 -0.99301,0.1429 -0.10695,0.32086 -0.58902,0.46098 -2.25027,0.65411 -1.45866,0.16957 -1.5568,0.8507 -0.13229,0.9182 2.47532,0.11731 4.03489,0.10533 4.03489,-0.031 0,-0.29766 3.12525,-0.42144 4.10104,-0.16242 0.43657,0.11588 1.21047,0.26437 1.7198,0.32997 0.50932,0.0656 1.16416,0.15024 1.4552,0.18807 0.29105,0.0378 0.99257,0.27601 1.55894,0.52928 0.56637,0.25327 1.28433,0.39659 1.59547,0.3185 1.14541,-0.28748 1.65215,0.0656 1.69588,1.18153 0.0237,0.60352 -0.0812,1.03862 -0.25029,1.03862 -0.16004,0 -0.22245,-0.17859 -0.13869,-0.39688 0.10511,-0.2739 -0.0296,-0.40936 -0.43471,-0.43717 -0.86594,-0.0594 -1.02773,-0.0921 -2.04222,-0.41151 -2.51508,-0.79198 -2.86695,-0.5457 -0.63713,0.44595 0.81079,0.36057 1.53098,0.74753 1.60043,0.85989 0.22642,0.36636 -0.19479,0.77687 -0.52383,0.51053 -0.40344,-0.32656 -2.77273,-1.14501 -3.61447,-1.24859 -0.3638,-0.0448 -1.19724,-0.21557 -1.85208,-0.37955 -1.71274,-0.42891 -2.87368,-0.47837 -3.00807,-0.12817 -0.0642,0.16727 -0.57449,0.31989 -1.134,0.33915 -1.40621,0.0484 -2.72453,0.28411 -3.94856,0.7059 -0.70705,0.24364 -1.14049,0.27244 -1.36085,0.0904 -0.2251,-0.18593 -0.45193,-0.13852 -0.74651,0.15606 -0.23273,0.23273 -0.50394,0.43646 -0.60268,0.45272 -0.0987,0.0163 -0.59626,0.0745 -1.10558,0.12942 -0.50933,0.0549 -1.16417,0.20537 -1.45521,0.33435 -1.63984,0.72675 -1.95032,0.7997 -2.06515,0.4852 -0.1533,-0.41987 -1.10985,0.12048 -1.10985,0.62695 0,0.19645 -0.38846,0.43664 -0.86325,0.53374 -0.47478,0.0971 -1.17563,0.48894 -1.55743,0.87074 -0.3818,0.38181 -0.85655,0.69419 -1.05499,0.69419 -0.19843,0 -0.36079,0.11872 -0.36079,0.26383 0,0.37406 -1.6712,1.03454 -1.95759,0.77366 -0.13079,-0.11914 -0.60704,-0.0199 -1.05833,0.22045 -0.4513,0.24039 -0.9782,0.40564 -1.1709,0.36721 -0.1927,-0.0384 -0.51949,0.0705 -0.7262,0.24206 -0.20671,0.17155 -0.61447,0.24951 -0.90615,0.17323 -0.29167,-0.0763 -0.60087,-0.0245 -0.68711,0.11504 -0.0862,0.13954 -0.29472,0.20721 -0.46328,0.15037 -0.16857,-0.0568 -0.44243,0.0812 -0.60859,0.30678 -0.25411,0.34497 -0.36968,0.35402 -0.7276,0.057 -0.36122,-0.29979 -0.42551,-0.28828 -0.42551,0.0761 0,0.32907 -0.26417,0.42927 -1.13175,0.42927 -0.62246,0 -1.39658,0.18549 -1.72026,0.41221 -0.32367,0.22671 -0.70735,0.33874 -0.85262,0.24896 -0.14526,-0.0898 -0.26412,-0.0133 -0.26412,0.16988 0,0.25158 -0.0747,0.25844 -0.30511,0.028 -0.18635,-0.18634 -0.46958,-0.21781 -0.72761,-0.0808 -0.42018,0.22306 -0.99129,0.27371 -4.23973,0.37596 -1.05925,0.0333 -1.7411,0.17504 -1.80799,0.37572 -0.12334,0.37002 -0.59246,0.43941 -0.59246,0.0876 z m 6.68464,-1.61805 c 0.82031,-0.43966 0.98827,-0.46214 0.98827,-0.13229 0,0.21856 0.1318,0.39739 0.29289,0.39739 0.16109,0 0.22436,-0.1786 0.1406,-0.39688 -0.10149,-0.26447 0.0107,-0.39687 0.33625,-0.39687 0.7,0 2.40526,-0.75285 2.40526,-1.06189 0,-0.47201 0.79355,-0.27219 0.80217,0.20199 0.008,0.44097 0.0251,0.44097 0.35989,0 0.19332,-0.25466 0.58848,-0.46302 0.87815,-0.46302 0.46946,0 1.58937,-0.29839 2.72229,-0.72533 0.21828,-0.0823 0.51594,-0.16252 0.66146,-0.17836 0.14552,-0.0158 1.07656,-0.4143 2.06898,-0.88547 0.99242,-0.47117 1.86702,-0.85667 1.94354,-0.85667 0.0765,0 0.47579,-0.23972 0.88725,-0.53271 0.41147,-0.29299 1.73953,-0.89629 2.95126,-1.34066 3.01751,-1.1066 3.59522,-1.27657 3.76433,-1.10746 0.0802,0.0802 0.34017,-0.0155 0.57772,-0.21263 0.36981,-0.30692 0.48483,-0.28605 0.80014,0.14516 0.28553,0.39049 0.36825,0.41314 0.36825,0.10087 0,-0.60195 0.94626,-0.96857 3.37343,-1.307 2.62113,-0.36548 3.03077,-0.95268 0.56779,-0.81389 -0.94111,0.053 -1.73688,-0.0298 -1.90548,-0.19844 -0.15922,-0.15922 -0.67537,-0.28949 -1.147,-0.28949 -0.47164,0 -0.9323,-0.12101 -1.0237,-0.2689 -0.0914,-0.1479 -0.30679,-0.18101 -0.47864,-0.0736 -0.40129,0.25085 -0.85829,0.36289 -2.16453,0.53066 -0.58208,0.0748 -1.19207,0.24365 -1.35553,0.37532 -0.16345,0.13166 -0.49088,0.16506 -0.7276,0.0742 -0.25183,-0.0966 -0.43041,-0.0319 -0.43041,0.15604 0,0.17666 -0.15617,0.26127 -0.34705,0.18802 -0.19088,-0.0733 -0.63736,0.09 -0.99219,0.36268 -0.35482,0.27273 -0.80134,0.49851 -0.99225,0.50175 -0.35596,0.006 -3.00606,1.19828 -3.2862,1.47843 -0.0857,0.0857 -0.81655,0.1962 -1.62402,0.24548 -0.80747,0.0493 -1.62178,0.1881 -1.80957,0.3085 -0.18779,0.1204 -0.57956,0.25027 -0.8706,0.28859 -1.13087,0.14892 -2.40341,0.32139 -2.88194,0.3906 -0.27538,0.0398 -0.55322,-0.0765 -0.61743,-0.2585 -0.0792,-0.22444 0.0394,-0.27235 0.3684,-0.1489 0.42837,0.16071 0.44233,0.12939 0.1193,-0.26767 -0.24871,-0.30571 -0.46546,-0.367 -0.67702,-0.19142 -0.21257,0.17642 -0.44662,0.10006 -0.73861,-0.24095 -0.31141,-0.3637 -0.70217,-0.47648 -1.43965,-0.41549 -0.55672,0.0461 -1.15275,-0.0303 -1.3245,-0.16974 -0.21511,-0.1746 -0.40884,-0.073 -0.62263,0.32643 -0.24557,0.45885 -0.23561,0.62726 0.0477,0.80678 0.19693,0.12479 0.45727,0.22871 0.57853,0.23094 0.12127,0.002 0.16592,0.15288 0.0992,0.33478 -0.0667,0.1819 -0.25521,0.30096 -0.41892,0.26458 -0.16371,-0.0364 -0.29766,0.11245 -0.29766,0.33073 0,0.21828 -0.11906,0.39688 -0.26458,0.39688 -0.14552,0 -0.26458,-0.11907 -0.26458,-0.26459 0,-0.47366 -0.52892,-0.27842 -0.53758,0.19844 -0.008,0.41896 -0.0454,0.41414 -0.39688,-0.0506 -0.21365,-0.28247 -0.38846,-0.38699 -0.38846,-0.23225 0,0.27443 -1.9869,0.76337 -2.51353,0.61853 -0.14552,-0.04 -1.51474,-0.10968 -3.04271,-0.15479 -3.85441,-0.11382 -5.51785,-0.34901 -6.68704,-0.94549 -0.55221,-0.28172 -1.11078,-0.44624 -1.24125,-0.3656 -0.13048,0.0806 -0.31201,0.0256 -0.40342,-0.12228 -0.0914,-0.1479 -0.45843,-0.2689 -0.81562,-0.2689 -0.6459,0 -1.44546,-0.35386 -2.2589,-0.99971 -0.29133,-0.23131 -0.62592,-0.26329 -1.05833,-0.10114 -0.34777,0.13041 -1.465754,0.31792 -2.484404,0.41668 -2.25117,0.21827 -4.60903,0.70044 -4.78029,0.97754 -0.0693,0.11207 0.085,0.20128 0.3428,0.19824 1.40313,-0.0166 5.09895,0.41078 5.09895,0.58958 0,0.11486 0.20836,0.20408 0.46302,0.19826 1.120034,-0.0256 4.978914,0.89377 6.208544,1.47915 0.54065,0.25739 1.67175,0.68535 2.51354,0.95101 0.84179,0.26567 1.50076,0.61125 1.46438,0.76796 -0.0364,0.15671 0.11468,0.28493 0.3357,0.28493 0.22101,0 1.26281,0.30786 2.3151,0.68413 1.54891,0.55385 2.37758,0.68178 4.35142,0.67178 1.34098,-0.007 2.50887,0.10207 2.5953,0.24191 0.22076,0.35721 0.39876,0.32493 1.51889,-0.27542 z m 10.38098,-2.11615 c 0.0899,-0.14552 0.0445,-0.26459 -0.10106,-0.26459 -0.14552,0 -0.33817,0.11907 -0.4281,0.26459 -0.0899,0.14552 -0.0445,0.26458 0.10106,0.26458 0.14552,0 0.33817,-0.11906 0.4281,-0.26458 z m -29.86076,-1.77084 c -0.31449,-0.31449 -0.72259,0.34216 -0.52792,0.84946 0.17519,0.45653 0.20574,0.45034 0.44712,-0.0906 0.14249,-0.31933 0.17885,-0.66082 0.0808,-0.75887 z m 26.95034,-3.10334 c 0.58209,-0.20256 1.05834,-0.52819 1.05834,-0.72362 0,-0.19543 -0.13803,-0.32916 -0.30672,-0.29719 -0.1687,0.032 -0.70086,0.12758 -1.18259,0.21245 -1.05506,0.18588 -1.13423,0.25176 -0.93293,0.77633 0.18696,0.48723 0.0641,0.48435 1.3639,0.032 z m -10.69585,-0.95724 c 0.37913,-0.2029 0.47157,-0.44488 0.35197,-0.92137 -0.0892,-0.35542 -0.0322,-1.01917 0.12674,-1.47502 0.15891,-0.45585 0.20545,-0.96389 0.10341,-1.12899 -0.10204,-0.1651 -0.15202,-0.61952 -0.11108,-1.00983 0.0659,-0.62847 -0.026,-0.71929 -0.8035,-0.79391 -1.9567,-0.18778 -2.81479,0.0561 -3.34214,0.94989 -0.27526,0.46653 -0.5852,1.29985 -0.68875,1.85183 -0.235,1.25267 0.34229,2.00701 1.54032,2.01272 0.45039,0.002 1.11655,0.16906 1.48035,0.37093 0.85103,0.47223 0.74927,0.46134 1.34268,0.14375 z m 5.97956,-0.34431 c 0.0555,-0.0555 -0.0186,-0.41505 -0.16455,-0.79904 -0.14599,-0.38398 -0.17909,-0.69855 -0.0736,-0.69904 0.10554,-4.9e-4 0.20395,-0.64922 0.2187,-1.44161 0.0159,-0.85159 0.20518,-1.71296 0.46302,-2.10647 0.62856,-0.95931 0.54954,-1.1205 -0.48983,-0.99916 -0.50932,0.0595 -0.92604,0.18825 -0.92604,0.28621 0,0.0979 -0.62022,0.20508 -1.37827,0.23806 -0.75804,0.033 -1.46529,0.14817 -1.57167,0.25598 -0.42027,0.42591 -0.84153,3.82642 -0.60656,4.89624 l 0.1752,0.79766 2.12633,-0.16397 c 1.16948,-0.0902 2.17173,-0.20937 2.22722,-0.26486 z m 2.46733,-0.57115 c 0,-0.21828 -0.17859,-0.39687 -0.39687,-0.39687 -0.47888,0 -0.5328,-0.7032 -0.0661,-0.86269 0.1819,-0.0622 0.96294,0.0656 1.73565,0.28391 1.03585,0.29268 1.73091,0.33395 2.64584,0.15714 1.46844,-0.2838 1.65792,-0.89187 0.38101,-1.22276 -0.94726,-0.24545 -1.06483,-0.50198 -0.46009,-1.00387 0.32317,-0.26821 0.61647,-0.24906 1.5302,0.0999 1.58187,0.60412 2.29248,0.5411 3.14875,-0.27926 0.83006,-0.79526 0.93469,-1.14112 0.3452,-1.14112 -0.21828,0 -0.39687,-0.0987 -0.39687,-0.21945 0,-0.12069 -0.26789,-0.20999 -0.59531,-0.19844 -0.77817,0.0275 -0.97645,-1.01782 -0.26528,-1.39842 0.3914,-0.20948 0.65663,-0.11364 1.27282,0.45991 0.51756,0.48174 1.04437,0.71457 1.57214,0.69481 0.43657,-0.0163 0.93641,0.0758 1.11076,0.20466 0.45348,0.33525 1.772,-0.36141 1.89318,-1.0003 0.055,-0.28993 0.22739,-0.60737 0.3831,-0.70542 0.19484,-0.12269 0.17607,-0.30724 -0.0602,-0.59194 -0.49525,-0.59674 -0.17303,-1.15926 0.80992,-1.41397 0.61791,-0.16011 0.92522,-0.43768 1.11045,-1.00297 0.14086,-0.42988 0.36961,-0.85575 0.50834,-0.94639 0.15702,-0.10259 0.14415,-0.36673 -0.0341,-0.69982 -0.22217,-0.41514 -0.19526,-0.61062 0.12011,-0.87236 0.30084,-0.24967 0.38775,-0.75532 0.33447,-1.94601 -0.0396,-0.88478 0.0202,-1.75751 0.13277,-1.93941 0.1264,-0.20417 0.064,-0.33073 -0.16303,-0.33073 -0.20227,0 -0.52708,0.29765 -0.72178,0.66145 -0.31364,0.58605 -0.92892,0.82812 -1.71168,0.67345 -0.14106,-0.0279 -0.58755,-0.0601 -0.99219,-0.0716 -0.40464,-0.0115 -0.73571,-0.12889 -0.73571,-0.26085 0,-0.13196 -0.10103,-0.17749 -0.22452,-0.10118 -0.26983,0.16677 -1.36298,-0.80253 -1.36298,-1.20856 0,-0.1957 0.11778,-0.18892 0.37114,0.0213 0.28256,0.2345 0.39586,0.23389 0.47468,-0.003 0.0744,-0.22317 0.33858,-0.18905 0.93863,0.12125 0.45931,0.23752 1.01401,0.43185 1.23267,0.43185 0.67352,0 1.74538,-0.59478 1.74538,-0.96851 0,-0.19492 0.1318,-0.35441 0.29289,-0.35441 0.16971,0 0.21875,0.19474 0.11662,0.46302 -0.13809,0.36272 -0.10653,0.39381 0.14568,0.14351 0.25289,-0.25096 0.25156,-0.40435 -0.006,-0.71491 -0.18048,-0.21746 -0.25057,-0.63981 -0.15575,-0.93856 0.11623,-0.3662 0.0372,-0.59506 -0.24273,-0.70246 -0.22831,-0.0876 -0.41511,-0.37765 -0.41511,-0.64454 0,-0.26688 -0.10991,-0.55317 -0.24423,-0.63618 -0.13433,-0.083 -0.32844,-0.53653 -0.43136,-1.00781 -0.18704,-0.85648 -1.1765,-2.38594 -1.1765,-1.81858 0,0.16514 -0.13945,0.30026 -0.30989,0.30026 -0.17045,0 -0.50681,0.17821 -0.74748,0.39601 -0.24068,0.21781 -0.75607,0.42237 -1.14532,0.45459 -0.38925,0.0322 -0.70772,0.13843 -0.70772,0.23605 0,0.0976 -0.183,0.16094 -0.40667,0.14073 -0.55716,-0.0503 -1.06535,0.98218 -1.41436,2.87366 -0.1611,0.87313 -0.47843,1.72431 -0.70518,1.89151 -0.28983,0.21372 -0.31747,0.3356 -0.0931,0.4104 0.22859,0.0762 0.18486,0.3114 -0.15411,0.82873 -0.26031,0.39729 -0.40779,0.78784 -0.32774,0.86789 0.13171,0.13171 -0.72341,1.60888 -1.39306,2.40645 -0.14757,0.17576 -0.26831,0.41992 -0.26831,0.54257 0,0.39238 -0.65421,1.64721 -0.8599,1.64935 -0.10914,10e-4 -0.19844,0.17647 -0.19844,0.38963 0,0.21316 -0.26789,0.52971 -0.59531,0.70345 -0.32742,0.17373 -0.75089,0.53511 -0.94105,0.80306 -0.19015,0.26794 -0.51757,0.48717 -0.7276,0.48717 -0.21003,0 -0.38187,0.12201 -0.38187,0.27114 0,0.14912 -0.26789,0.37447 -0.59532,0.50078 -0.79134,0.30528 -2.60155,1.76386 -2.41749,1.94791 0.0799,0.0799 0.007,0.40413 -0.1626,0.72052 -0.25889,0.48374 -0.37019,2.0584 -0.28377,4.01473 0.0169,0.38334 0.35344,0.59403 1.14407,0.71631 0.10914,0.0169 0.19844,-0.1479 0.19844,-0.36618 z m 11.65046,-7.52828 c -0.68027,-0.95537 -0.2475,-1.32533 0.47536,-0.40637 0.32603,0.41448 0.56752,0.54634 0.6342,0.34629 0.0666,-0.19991 0.17007,-0.22215 0.27131,-0.0583 0.09,0.1456 -0.0607,0.40482 -0.33486,0.57604 -0.42588,0.26597 -0.57821,0.19932 -1.04601,-0.45763 z m 1.57872,-3.70821 c 0,-0.14095 -0.18216,-0.18637 -0.4048,-0.10094 -0.22843,0.0877 -0.60308,-0.0704 -0.8599,-0.36287 -0.2503,-0.28502 -0.78252,-0.59905 -1.1827,-0.69785 -0.68283,-0.16859 -0.94358,-0.65913 -0.55624,-1.04647 0.0943,-0.0942 0.60026,0.055 1.12448,0.33167 1.24606,0.65763 2.67469,1.10454 2.96242,0.92671 0.12579,-0.0777 0.49795,0.003 0.82701,0.17884 0.58911,0.31529 0.58412,0.32531 -0.32526,0.65357 -1.14936,0.41487 -1.58501,0.44713 -1.58501,0.11734 z m -27.10554,10.55198 c 0.0978,-0.1582 0.056,-0.40939 -0.0928,-0.5582 -0.33499,-0.33499 0.07,-1.61584 0.84539,-2.67347 0.46635,-0.63613 0.48801,-0.77618 0.15284,-0.98813 -0.21479,-0.13583 -0.72168,-0.24878 -1.12643,-0.25101 -0.40475,-0.002 -0.79512,-0.15834 -0.86748,-0.34692 -0.0843,-0.21972 -0.45732,-0.30483 -1.03862,-0.23696 -0.74609,0.0871 -0.95336,0.25359 -1.16798,0.93817 -0.29126,0.92908 -0.36643,1.54273 -0.32152,2.62477 0.0314,0.75675 0.48594,1.06008 2.27942,1.52116 1.1258,0.28942 1.14031,0.2891 1.33717,-0.0294 z m 38.48262,0.17096 c 0,-0.0642 -0.11906,-0.19026 -0.26458,-0.2802 -0.14552,-0.0899 -0.26458,-0.0374 -0.26458,0.11668 0,0.15411 0.11906,0.2802 0.26458,0.2802 0.14552,0 0.26458,-0.0525 0.26458,-0.11668 z m -13.92196,-0.55852 c 0.0904,-0.23546 0.046,-0.34167 -0.10399,-0.24897 -0.14385,0.0889 -0.26155,0.27368 -0.26155,0.41061 0,0.38059 0.18965,0.29672 0.36554,-0.16164 z m 17.774,-0.25926 c -0.28248,-0.21365 -0.6992,-0.38467 -0.92604,-0.38005 -0.32974,0.007 -0.30946,0.0863 0.10113,0.39688 0.28248,0.21365 0.6992,0.38467 0.92605,0.38005 0.32974,-0.007 0.30945,-0.0863 -0.10114,-0.39688 z m -52.07786,-0.8129 c -0.0879,-0.0879 -0.31612,-0.0973 -0.50712,-0.0209 -0.21107,0.0845 -0.14837,0.14715 0.15985,0.15985 0.27892,0.0115 0.43519,-0.0511 0.34727,-0.13897 z m 36.58416,-0.98144 c 0,-0.13553 -0.1786,-0.0982 -0.39688,0.083 -0.21828,0.18116 -0.39309,0.52316 -0.38846,0.76 0.007,0.36177 0.0705,0.34851 0.39687,-0.083 0.21366,-0.28248 0.38847,-0.62448 0.38847,-0.76 z m -39.991004,0.21525 c 0.0538,-0.29104 0.26572,-0.62578 0.47084,-0.74386 0.20513,-0.11809 0.29746,-0.33685 0.20518,-0.48615 -0.64893,-1.04999 0.10345,-5.22857 1.149574,-6.38452 0.44029,-0.48651 0.42641,-0.53411 -0.33289,-1.14161 -0.43578,-0.34867 -0.957954,-0.63453 -1.160384,-0.63525 -0.20242,-7.2e-4 -0.9168,-0.56686 -1.5875,-1.25808 -1.16504,-1.2007 -1.19127,-1.26076 -0.58791,-1.34607 0.34734,-0.0491 0.72782,0.0665 0.84551,0.25692 0.11768,0.19042 0.30629,0.25389 0.41913,0.14106 0.11284,-0.11284 0.0758,-0.28799 -0.0823,-0.38922 -0.15807,-0.10123 -0.36632,-0.43718 -0.46278,-0.74656 -0.13179,-0.42274 -0.0463,-0.59627 0.34413,-0.69837 0.30356,-0.0794 0.57814,0.017 0.66057,0.23179 0.20147,0.52501 0.635,0.45507 0.59131,-0.0954 -0.0202,-0.25466 0.11208,-0.43325 0.29398,-0.39687 0.181904,0.0364 0.330734,-0.0921 0.330734,-0.28559 0,-0.46147 -1.107794,-0.41553 -1.481224,0.0614 -0.7544,0.96355 -1.02723,-0.76316 -0.49993,-3.16397 0.14742,-0.67119 0.29251,-0.77906 1.04782,-0.77906 0.898664,0 1.309394,0.45997 1.039284,1.16386 -0.0781,0.20356 -0.0234,0.44342 0.12155,0.53301 0.14496,0.0896 0.33614,-0.0658 0.42485,-0.34524 0.0887,-0.27948 0.33075,-0.48327 0.53788,-0.45287 0.43296,0.0636 1.78885,1.95109 1.60973,2.24092 -0.1705,0.27587 0.31077,0.98153 0.524,0.7683 0.0977,-0.0978 0.066,-0.95511 -0.0707,-1.90524 -0.13662,-0.95013 -0.15662,-1.87602 -0.0444,-2.05752 0.25059,-0.40546 -0.48024,-1.26814 -1.07432,-1.26814 -0.23611,0 -0.68167,-0.17677 -0.99014,-0.39283 -0.30847,-0.21606 -1.01957,-0.38668 -1.580224,-0.37916 -0.56066,0.008 -1.19798,0.002 -1.41626,-0.0117 -0.21828,-0.014 -0.84274,0.0403 -1.38768,0.12066 -0.70397,0.10376 -1.30023,-0.0118 -2.0596,-0.39921 -1.20006,-0.61222 -1.5798,-0.51743 -1.5798,0.39437 0,0.34309 -0.14883,0.69325 -0.33073,0.77814 -0.26458,0.12347 -0.26458,0.1852 0,0.30868 0.1819,0.0849 0.33073,0.43621 0.33073,0.78072 0,1.34498 0.59508,3.29212 1.20837,3.95387 0.35404,0.38202 0.64371,0.80287 0.64371,0.93522 0,0.13236 0.24402,0.46799 0.54226,0.74584 l 0.54226,0.50519 -0.56888,0.14877 c -0.31288,0.0818 -0.49538,0.26769 -0.40554,0.41305 0.0898,0.14536 -0.0888,0.44091 -0.397,0.65677 -0.50921,0.35666 -0.53657,0.50922 -0.29986,1.67175 0.14327,0.7036 0.27239,1.45786 0.28692,1.67614 0.0752,1.1302 0.40682,2.17433 0.72983,2.29828 0.20007,0.0768 0.36376,0.29938 0.36376,0.49469 0,0.19531 0.41672,0.67295 0.92604,1.06143 0.50933,0.38848 0.92605,0.85805 0.92605,1.04349 0,0.29508 -0.58193,0.70037 -1.10243,0.7678 -0.41924,0.0543 -0.52254,0.43933 -0.33826,1.26071 0.10844,0.48334 0.24876,0.72998 0.31181,0.54808 0.16497,-0.47591 0.86429,-0.40817 0.86429,0.0837 0,0.64597 1.42491,0.38635 1.54859,-0.28216 z m 37.919644,-0.041 c 0.6491,-0.58743 0.61084,-0.94053 -0.0907,-0.83729 -0.37768,0.0556 -0.5892,0.28854 -0.61724,0.67986 -0.0509,0.71054 0.0677,0.73691 0.70797,0.15743 z m -34.19003,-2.14181 c 0.20165,-0.69122 0.71631,-1.90747 1.14368,-2.70278 0.56407,-1.0497 0.68385,-1.47708 0.43703,-1.55935 -0.18701,-0.0623 -0.60003,-0.3939 -0.91783,-0.7368 -0.72102,-0.778 -1.07296,-0.78602 -1.47564,-0.0336 -0.17362,0.32442 -0.47529,0.74946 -0.67037,0.94454 -0.57672,0.57673 -0.70485,1.58222 -0.39696,3.11532 0.49787,2.47907 1.317,2.90286 1.88009,0.97268 z m -7.527164,0.46302 c -0.0899,-0.14552 -0.27555,-0.26458 -0.41249,-0.26458 -0.13693,0 -0.24896,0.11906 -0.24896,0.26458 0,0.14552 0.18562,0.26459 0.41249,0.26459 0.22686,0 0.3389,-0.11907 0.24896,-0.26459 z m -1.5875,-0.26458 c -0.0899,-0.14552 -0.27555,-0.26458 -0.41249,-0.26458 -0.13693,0 -0.24896,0.11906 -0.24896,0.26458 0,0.14552 0.18562,0.26458 0.41249,0.26458 0.22686,0 0.3389,-0.11906 0.24896,-0.26458 z m -2.29292,-0.56194 c -0.1941,-0.12304 -0.51632,-0.22553 -0.71604,-0.22776 -0.28616,-0.003 -0.29608,0.0767 -0.0468,0.3771 0.17398,0.20963 0.4962,0.31212 0.71604,0.22776 0.32476,-0.12462 0.33354,-0.19534 0.0468,-0.3771 z m 49.256474,0.29736 c 0,-0.14552 -0.11907,-0.26459 -0.26459,-0.26459 -0.14552,0 -0.26458,0.11907 -0.26458,0.26459 0,0.14552 0.11906,0.26458 0.26458,0.26458 0.14552,0 0.26459,-0.11906 0.26459,-0.26458 z m 2.79706,-3.09148 c 0.67147,-1.38606 1.16724,-5.11061 0.68027,-5.11061 -0.12651,0 -0.37594,0.74414 -0.55429,1.65365 -0.17834,0.9095 -0.43964,1.89686 -0.58068,2.19412 -0.14103,0.29727 -0.28575,0.74031 -0.3216,0.98453 -0.0358,0.24423 -0.14799,0.52687 -0.24922,0.6281 -0.10122,0.10123 -0.18222,0.55116 -0.17999,0.99985 0.005,0.95943 0.18426,0.75847 1.20551,-1.34964 z m -24.92369,0.16758 c 0.12688,-0.11537 0.39628,-0.1462 0.59869,-0.0685 0.2024,0.0777 0.54356,-0.004 0.75814,-0.18256 0.21457,-0.17808 0.57024,-0.25467 0.79038,-0.1702 0.23324,0.0895 0.40024,0.007 0.40024,-0.1972 0,-0.40617 -1.10751,-0.39077 -2.11667,0.0294 -0.3638,0.15148 -0.84005,0.1833 -1.05833,0.0707 -0.21828,-0.11261 -1.03619,-0.20386 -1.81759,-0.20279 -0.7814,0.001 -1.49577,-0.11282 -1.5875,-0.25308 -0.0917,-0.14026 -0.4254,-0.23411 -0.74149,-0.20855 -0.31609,0.0256 -1.02196,-0.17109 -1.5686,-0.43697 -0.54663,-0.26589 -1.1909,-0.48344 -1.43171,-0.48344 -0.2408,0 -0.52064,-0.0828 -0.62187,-0.18404 -0.10123,-0.10123 -0.32943,-0.20879 -0.50712,-0.23902 -0.17769,-0.0302 -0.52084,-0.13469 -0.76257,-0.23211 -0.40465,-0.16309 -0.40737,-0.10627 -0.0344,0.71665 0.33221,0.73292 0.557,0.89809 1.24895,0.9177 0.46411,0.0132 1.40648,0.21494 2.09415,0.44841 0.68767,0.23347 1.47725,0.4245 1.75462,0.4245 0.27737,0 0.58146,0.12484 0.67577,0.27743 0.11735,0.18988 0.27455,0.19187 0.49816,0.006 0.18869,-0.1566 0.43022,-0.17287 0.57176,-0.0385 0.54594,0.51821 2.28959,0.52181 2.85697,0.006 z m -12.26921,-2.89694 c 0,-0.14552 -0.10932,-0.26458 -0.24294,-0.26458 -0.13362,0 -0.46104,-0.0693 -0.72761,-0.15389 -0.4435,-0.14082 -0.44104,-0.11835 0.0289,0.26458 0.58815,0.47923 0.94162,0.53699 0.94162,0.15389 z m 1.96568,-0.23433 c 0.0797,-0.12888 -0.15145,-0.29096 -0.51355,-0.36018 -0.63807,-0.12197 -0.8437,0.0564 -0.48199,0.41812 0.25145,0.25145 0.82496,0.21808 0.99554,-0.0579 z m -5.06842,-1.24904 c 0.0883,-0.0882 -0.0705,-0.40836 -0.35277,-0.71135 -0.28228,-0.30299 -0.51324,-0.7413 -0.51324,-0.97402 0,-0.23271 -0.34003,-0.83042 -0.75562,-1.32823 l -0.75561,-0.90511 -0.12255,0.83499 c -0.0674,0.45924 -0.025,0.77471 0.0942,0.70105 0.19972,-0.12344 0.24468,-0.004 0.32652,0.8709 0.0289,0.30889 1.46661,1.67128 1.76432,1.6719 0.0849,1.8e-4 0.22654,-0.0719 0.31479,-0.16013 z m -9.488014,-1.07562 c 0.38395,0.14733 0.46385,-0.66717 0.0895,-0.91217 -0.13772,-0.0901 -0.26854,-0.477 -0.29071,-0.85971 -0.0222,-0.38271 -0.11166,-0.69592 -0.19887,-0.69602 -0.0872,-1.1e-4 -0.38016,-0.53754 -0.651,-1.1943 -0.27084,-0.65676 -0.6162,-1.1536 -0.76748,-1.10408 -0.39095,0.12798 -0.50125,1.46935 -0.15512,1.88642 0.21957,0.26455 0.1758,0.39415 -0.17931,0.53096 -0.43449,0.16738 -0.43649,0.19967 -0.0266,0.42981 0.24374,0.13686 0.58668,0.6944 0.76208,1.23898 0.1754,0.54458 0.45222,1.15862 0.61516,1.36453 0.24398,0.30833 0.31163,0.26975 0.38345,-0.21866 0.0508,-0.34545 0.22569,-0.53991 0.41892,-0.46576 z m 12.855344,-0.35142 c 0,-0.14552 -0.11907,-0.26459 -0.26459,-0.26459 -0.14552,0 -0.26458,0.11907 -0.26458,0.26459 0,0.14552 0.11906,0.26458 0.26458,0.26458 0.14552,0 0.26459,-0.11906 0.26459,-0.26458 z m -2.64584,-1.35532 c 0,-0.67721 -0.0666,-0.77085 -0.36956,-0.51944 -0.20326,0.16869 -0.30843,0.54046 -0.23372,0.82615 0.2117,0.80957 0.60328,0.61049 0.60328,-0.30671 z m 2.24725,0.0986 c -0.10484,-0.25467 -0.24658,-0.70115 -0.31497,-0.99219 -0.0684,-0.29104 -0.25005,-0.79042 -0.40368,-1.10973 -0.15362,-0.31931 -0.21454,-1.06345 -0.13538,-1.65365 0.0792,-0.59019 0.0362,-1.07308 -0.0955,-1.07308 -0.13168,0 -0.23941,-0.29063 -0.23941,-0.64584 0,-0.67026 -0.50614,-1.23721 -0.55933,-0.62655 -0.0166,0.19049 -0.0708,0.69771 -0.12053,1.12716 -0.0497,0.42945 0.038,0.93546 0.19485,1.12448 0.15687,0.18902 0.19653,0.34367 0.0881,0.34367 -0.10839,0 -0.0502,0.17704 0.12944,0.39344 0.18657,0.2248 0.25535,0.67705 0.16045,1.05513 -0.0913,0.36394 -0.0538,0.8715 0.0834,1.12792 0.13723,0.25642 0.314,0.67457 0.39281,0.92924 0.0788,0.25466 0.33837,0.46302 0.57679,0.46302 0.30907,0 0.37878,-0.1329 0.24287,-0.46302 z m 37.18926,-4.51358 c -0.30359,-1.12744 -1.07192,-2.05146 -1.07192,-1.28912 0,0.22751 0.12476,0.49076 0.27724,0.585 0.15248,0.0942 0.24715,0.36916 0.21037,0.61093 -0.0827,0.5434 0.61991,1.87952 0.76284,1.45073 0.0569,-0.1707 -0.0234,-0.78159 -0.17853,-1.35754 z m -47.170064,-4.23421 c 0.0576,-0.17281 -0.0838,-0.31419 -0.31419,-0.31419 -0.23041,0 -0.41892,0.18851 -0.41892,0.41892 0,0.46724 0.56958,0.38587 0.73311,-0.10473 z m 25.272644,-10.36862 c -0.19038,-0.72802 -0.34118,-0.66253 -0.34118,0.14817 0,0.37239 0.10789,0.61039 0.23974,0.5289 0.13186,-0.0815 0.17751,-0.38618 0.10144,-0.67707 z m 1.24632,-0.67681 c 0,-0.22687 -0.11906,-0.33891 -0.26458,-0.24897 -0.14552,0.0899 -0.26459,0.27556 -0.26459,0.41249 0,0.13693 0.11907,0.24897 0.26459,0.24897 0.14552,0 0.26458,-0.18562 0.26458,-0.41249 z m 2.91042,-7.52501 c 0,-0.14552 -0.12609,-0.26459 -0.2802,-0.26459 -0.15411,0 -0.20661,0.11907 -0.11668,0.26459 0.0899,0.14552 0.21603,0.26458 0.2802,0.26458 0.0642,0 0.11668,-0.11906 0.11668,-0.26458 z m -50.990974,52.05677 c -0.39068,-0.43049 -0.36962,-0.46302 0.29965,-0.46302 0.78606,0 1.7434,0.42012 1.7434,0.76508 0,0.40394 -1.61965,0.16447 -2.04305,-0.30206 z m -1.15219,0.26458 c -0.18682,-0.61045 -0.12866,-0.99219 0.15118,-0.99219 0.21843,0 0.29699,0.19768 0.21031,0.52917 -0.11923,0.45594 -0.29482,0.68085 -0.36149,0.46302 z m 3.79056,-0.12686 c -0.59141,-0.10767 -0.83701,-0.57485 -0.33073,-0.62909 0.84083,-0.0901 2.59741,0.004 3.10885,0.16582 0.80267,0.2546 0.75723,0.66375 -0.0661,0.5956 -0.3638,-0.0301 -0.66146,-0.15486 -0.66146,-0.27723 0,-0.12237 -0.14883,-0.12961 -0.33073,-0.0161 -0.40611,0.25344 -0.93834,0.30327 -1.71979,0.16099 z m 3.78965,-0.24886 c -0.21329,-0.55585 0.22204,-0.83739 1.05007,-0.67911 0.36708,0.0702 1.03465,-0.11181 1.57103,-0.42828 0.51299,-0.30267 1.09897,-0.48651 1.30218,-0.40853 0.20321,0.078 0.44808,0.0146 0.54415,-0.14084 0.25494,-0.41251 0.6726,-0.34535 0.6726,0.10815 0,0.48637 -1.20117,1.3032 -1.57586,1.07163 -0.15192,-0.0939 -0.27622,-0.0319 -0.27622,0.13779 0,0.16968 -0.17478,0.24143 -0.3884,0.15946 -0.21362,-0.082 -0.46235,-0.0294 -0.55272,0.11683 -0.10558,0.17084 -0.30693,0.14753 -0.56325,-0.0652 -0.32591,-0.27048 -0.44507,-0.24862 -0.65105,0.11944 -0.32196,0.57531 -0.91335,0.57983 -1.13253,0.009 z m -10.60001,-0.083 c -0.0914,-0.1479 -0.38455,-0.2689 -0.65143,-0.2689 -0.26689,0 -0.56392,-0.20503 -0.66008,-0.45561 -0.14742,-0.38417 -0.21185,-0.39571 -0.41095,-0.0736 -0.19909,0.32215 -0.26352,0.31061 -0.41095,-0.0736 -0.0962,-0.25058 -0.3268,-0.45561 -0.51254,-0.45561 -0.18574,0 -0.39998,-0.23812 -0.47609,-0.52916 -0.17438,-0.66686 -0.15398,-0.66485 1.34345,0.13229 0.6834,0.3638 1.36368,0.66146 1.51174,0.66146 0.38957,0 0.96203,1.00461 0.67392,1.18267 -0.13248,0.0819 -0.31566,0.0279 -0.40707,-0.12002 z m 1.11483,-0.10005 c 0.0775,-0.12541 -0.0197,-0.32729 -0.21604,-0.44863 -0.19633,-0.12134 -0.27399,-0.30359 -0.17258,-0.405 0.10141,-0.10141 0.36585,-0.0338 0.58765,0.1503 0.26317,0.21842 0.40327,0.2344 0.40327,0.046 0,-0.15877 0.17859,-0.22014 0.39687,-0.13638 0.73233,0.28102 0.46293,1.02172 -0.37161,1.02172 -0.42266,0 -0.70507,-0.10261 -0.62756,-0.22802 z m 7.23777,-2.70444 c 0.0127,-0.30823 0.0754,-0.37092 0.15985,-0.15986 0.0764,0.191 0.067,0.4192 -0.0209,0.50712 -0.0879,0.0879 -0.15045,-0.0684 -0.13896,-0.34726 z m -5.84172,-3.28525 c 0,-0.14552 -0.23813,-0.26458 -0.52917,-0.26458 -0.29693,0 -0.52917,-0.17639 -0.52917,-0.40192 0,-0.29659 -0.17333,-0.35841 -0.66146,-0.2359 -0.42262,0.10608 -0.66145,0.0545 -0.66145,-0.14286 0,-0.16989 0.13237,-0.22707 0.29416,-0.12708 0.16179,0.1 0.3879,0.0301 0.50246,-0.15523 0.13201,-0.21358 0.38768,-0.26074 0.69803,-0.12874 0.26935,0.11457 1.02479,0.2612 1.67876,0.32585 0.65398,0.0646 1.27905,0.25615 1.38907,0.42556 0.14781,0.22764 0.26029,0.21458 0.43095,-0.05 0.18509,-0.28696 0.34935,-0.29467 0.8274,-0.0388 0.32805,0.17557 0.67062,0.21763 0.76125,0.0935 0.24836,-0.34024 1.68841,-0.27098 1.81027,0.0871 0.0586,0.17205 -0.13889,0.44413 -0.43878,0.60462 -0.30841,0.16506 -0.54524,0.18402 -0.54524,0.0436 0,-0.14165 -0.69677,-0.19235 -1.62353,-0.11813 -1.18261,0.0947 -1.68449,0.0338 -1.84803,-0.22417 -0.16747,-0.26422 -0.22553,-0.27018 -0.22856,-0.0235 -0.002,0.1819 -0.11937,0.33073 -0.26033,0.33073 -0.14095,0 -0.1968,-0.20836 -0.1241,-0.46302 0.0727,-0.25466 -0.009,-0.19513 -0.18103,0.13229 -0.32149,0.61107 -0.7615,0.80217 -0.7615,0.33073 z m 6.19881,-0.52916 c 0,-0.34278 0.17639,-0.52917 0.50077,-0.52917 0.34795,0 0.45177,0.12773 0.34018,0.41851 -0.0883,0.23019 -0.1606,0.46831 -0.1606,0.52917 0,0.0609 -0.15308,0.11065 -0.34017,0.11065 -0.1871,0 -0.34018,-0.23812 -0.34018,-0.52916 z m 1.59923,-0.0116 c -0.0939,-0.1519 -0.0268,-0.44956 0.14908,-0.66146 0.42533,-0.5125 2.0048,-0.50419 2.20272,0.0116 0.17953,0.46784 0.14376,0.47481 -0.73054,0.1424 -0.42849,-0.16291 -0.72591,-0.16291 -0.82659,0 -0.0865,0.13996 0.0354,0.25447 0.27083,0.25447 0.23546,0 0.35452,0.11907 0.26458,0.26459 -0.21499,0.34786 -1.11276,0.34004 -1.33008,-0.0116 z m -14.32303,-1.15236 c -0.63128,-0.19262 -0.8797,-0.45434 -1.01276,-1.067 l -0.17632,-0.81178 -0.25637,0.65177 c -0.141,0.35847 -0.30097,0.69637 -0.3555,0.7509 -0.11793,0.11793 -1.82161,-1.05055 -1.94872,-1.33653 -0.0485,-0.10914 -0.28663,-0.19661 -0.52916,-0.19438 -0.3814,0.004 -0.38736,0.0387 -0.0441,0.26053 0.27751,0.17934 0.2949,0.2577 0.0578,0.26053 -0.18647,0.002 -0.40757,-0.17454 -0.49133,-0.39282 -0.0838,-0.21828 -0.30541,-0.39688 -0.49256,-0.39688 -0.58477,0 -0.67255,-0.78265 -0.14675,-1.30846 0.42867,-0.42866 0.44375,-0.52533 0.10242,-0.65631 -0.52506,-0.20149 -0.952356,0.0761 -0.785685,0.51046 0.234515,0.61113 -0.124465,0.63233 -0.797538,0.0471 l -0.65621,-0.57057 0.575882,-0.46632 c 0.632552,-0.51221 1.311011,-0.61661 1.311011,-0.20174 0,0.14552 0.29063,0.26458 0.64584,0.26458 0.35522,0 0.72445,0.12718 0.82051,0.28262 0.0961,0.15545 0.34573,0.21698 0.5548,0.13676 0.20907,-0.0802 0.44789,0.0307 0.53071,0.24654 0.0828,0.21583 0.34621,0.40078 0.5853,0.41101 0.34481,0.0147 0.32891,0.06 -0.0769,0.21894 -0.36587,0.14328 -0.4191,0.25752 -0.18685,0.40106 0.17862,0.11039 0.48877,0.0646 0.68923,-0.10177 0.29244,-0.24271 0.33788,-0.20082 0.22994,0.21194 -0.17925,0.68548 0.35637,0.99222 0.56804,0.3253 0.17859,-0.56268 0.33661,-0.53545 2.58106,0.44488 0.90367,0.3947 0.95388,0.47009 0.58473,0.878 -0.36572,0.40412 -0.35153,0.4599 0.15044,0.59117 0.41505,0.10854 0.61543,-0.0159 0.79778,-0.49554 0.22548,-0.59307 0.78578,-0.90347 0.78578,-0.43532 0,0.11284 1.07928,0.095 2.39841,-0.0395 2.07629,-0.21183 2.45619,-0.18693 2.82852,0.18541 0.52579,0.52578 0.45876,0.592 -0.79516,0.78549 -0.75729,0.11686 -0.99219,0.0631 -0.99219,-0.22713 0,-0.20914 -0.17859,-0.38024 -0.39688,-0.38024 -0.22048,0 -0.39687,0.23518 -0.39687,0.52916 0,0.29104 -0.11906,0.52917 -0.26458,0.52917 -0.14552,0 -0.26459,-0.11906 -0.26459,-0.26458 0,-0.42337 -0.83733,-0.30578 -1.41309,0.19843 -0.50791,0.4448 -0.52196,0.4422 -0.35707,-0.0661 0.15166,-0.46756 0.12278,-0.46054 -0.24809,0.0603 -0.34072,0.47848 -0.51754,0.53709 -0.93929,0.31138 -0.32005,-0.17128 -0.79174,-0.1911 -1.2284,-0.0516 -0.41368,0.13216 -1.05715,0.12018 -1.5453,-0.0288 z m 0.30728,-0.95274 c 0.0899,-0.14552 0.0374,-0.26458 -0.11668,-0.26458 -0.15411,0 -0.2802,0.11906 -0.2802,0.26458 0,0.14552 0.0525,0.26458 0.11668,0.26458 0.0642,0 0.19026,-0.11906 0.2802,-0.26458 z m -2.24896,-0.59781 c 0,-0.18328 -0.23813,-0.48195 -0.52917,-0.6637 -0.31367,-0.19589 -0.52916,-0.22181 -0.52916,-0.0636 0,0.14676 0.11532,0.26683 0.25628,0.26683 0.14095,0 0.18774,0.17859 0.10398,0.39687 -0.0964,0.25131 0.004,0.39688 0.27289,0.39688 0.23385,0 0.42518,-0.14996 0.42518,-0.33323 z m 2.28676,-0.32823 c -0.21829,-0.21828 -0.47949,-0.39688 -0.58047,-0.39688 -0.10097,0 -0.0354,0.1786 0.14579,0.39688 0.18116,0.21828 0.44237,0.39687 0.58047,0.39687 0.13809,0 0.0725,-0.17859 -0.14579,-0.39687 z m -3.68134,-0.82131 c -0.0879,-0.0879 -0.31612,-0.0973 -0.50711,-0.0209 -0.21107,0.0845 -0.14838,0.14716 0.15985,0.15985 0.27891,0.0115 0.43518,-0.051 0.34726,-0.13896 z m 21.37062,2.5411 c 0.26339,-0.29104 0.60927,-0.53289 0.76861,-0.53744 0.15935,-0.005 0.88504,-0.30112 1.61264,-0.65904 1.66212,-0.81762 2.39088,-0.87567 1.94055,-0.15457 -0.17437,0.2792 -1.21456,0.80635 -2.34942,1.19062 -2.44689,0.82855 -2.58736,0.83998 -1.97238,0.16043 z m -8.30319,-1.03836 c -0.28603,-0.17733 -0.24281,-0.2657 0.19844,-0.40575 0.59452,-0.1887 0.75483,-0.78805 0.28795,-1.07659 -0.15189,-0.0939 -0.42378,-0.0482 -0.60418,0.10154 -0.18041,0.14972 -0.47566,0.18097 -0.65612,0.0694 -0.65411,-0.40426 1.28022,-1.40079 3.4975,-1.80186 0.2782,-0.0503 0.88757,-0.32743 1.35415,-0.61579 0.93141,-0.57565 1.58161,-0.69103 1.29675,-0.23013 -0.1,0.16179 -0.0374,0.38339 0.13905,0.49246 0.21936,0.13557 0.1464,0.24391 -0.23069,0.34252 -0.30334,0.0793 -0.55153,0.0475 -0.55153,-0.0708 0,-0.2597 -1.05933,-0.0263 -1.52136,0.33519 -0.46031,0.36015 -0.4129,0.72314 0.0945,0.72314 0.27713,0 0.36984,0.14422 0.26625,0.41418 -0.12079,0.31476 -0.0363,0.37526 0.35185,0.25205 0.42356,-0.13443 0.49851,-0.0469 0.43889,0.51229 -0.0938,0.88007 -0.32411,1.0857 -0.78629,0.70213 -0.29448,-0.24439 -0.47773,-0.2098 -0.85148,0.16074 -0.44589,0.44205 -0.46507,0.44264 -0.30092,0.009 0.20388,-0.53843 -0.14437,-0.61733 -0.55278,-0.12523 -0.33848,0.40784 -1.3657,0.52395 -1.86993,0.21135 z m 3.01153,-1.34289 c 0.0899,-0.14552 0.0445,-0.26458 -0.10107,-0.26458 -0.14552,0 -0.33816,0.11906 -0.4281,0.26458 -0.0899,0.14552 -0.0445,0.26458 0.10106,0.26458 0.14552,0 0.33817,-0.11906 0.42811,-0.26458 z m 11.64167,-0.26458 c 0.0899,-0.14552 0.27555,-0.26459 0.41249,-0.26459 0.13693,0 0.24897,0.11907 0.24897,0.26459 0,0.14552 -0.18563,0.26458 -0.41249,0.26458 -0.22687,0 -0.33891,-0.11906 -0.24897,-0.26458 z m -10.05417,-0.27175 -0.79375,-0.17291 0.74893,-0.3084 c 2.0843,-0.85829 6.09175,-1.21808 8.03944,-0.7218 0.89892,0.22906 1.06584,0.36127 0.8599,0.68111 -0.19748,0.30668 -0.304,0.32204 -0.46872,0.0676 -0.14721,-0.2274 -0.65882,-0.28494 -1.65364,-0.18598 -0.79228,0.0788 -1.87912,0.16127 -2.41522,0.18324 -0.5361,0.022 -0.95282,0.16518 -0.92604,0.31827 0.0268,0.15308 -0.34113,0.28234 -0.81756,0.28724 -0.59883,0.006 -0.826,-0.0959 -0.73591,-0.33073 0.0873,-0.22745 -0.10725,-0.33349 -0.58897,-0.32104 -0.60464,0.0156 -0.63803,0.0504 -0.20948,0.21832 0.74419,0.29153 -0.0319,0.50447 -1.03898,0.28509 z m 9.39271,-1.05117 c 0,-0.14552 0.11906,-0.26458 0.26458,-0.26458 0.14552,0 0.26459,0.11906 0.26459,0.26458 0,0.14552 -0.11907,0.26458 -0.26459,0.26458 -0.14552,0 -0.26458,-0.11906 -0.26458,-0.26458 z m -32.146883,-0.79375 c 0.139097,-0.22506 -0.077,-0.33157 -0.661458,-0.32598 -0.07276,6.9e-4 -0.48948,-0.35611 -0.926042,-0.79288 -0.728933,-0.72929 -0.745138,-0.78288 -0.198438,-0.65616 0.409304,0.0949 0.595313,0.0168 0.595313,-0.24974 0,-0.21325 0.12871,-0.30817 0.286022,-0.21095 0.161268,0.0997 0.212843,0.46834 0.118245,0.84525 -0.156674,0.62424 -0.115846,0.65809 0.616943,0.51153 0.915516,-0.1831 1.545586,0.32297 1.036245,0.83231 -0.37836,0.37836 -1.0957,0.41694 -0.86683,0.0466 z m -9.657292,-0.84114 c 0,-0.30944 1.039208,-0.78941 1.325751,-0.61232 0.364443,0.22524 -0.24176,0.8109 -0.839344,0.8109 -0.267524,0 -0.486407,-0.0894 -0.486407,-0.19858 z m 5.885842,-0.1464 c -1.020825,-0.0919 -1.100012,-0.14917 -0.850587,-0.61523 0.176995,-0.33072 0.531068,-0.50296 0.993325,-0.4832 0.453844,0.0194 0.546634,0.0755 0.252035,0.15231 -0.585201,0.15265 -0.334705,0.61074 0.333969,0.61074 0.273865,0 0.571521,0.11907 0.661458,0.26459 0.08994,0.14552 0.0672,0.24378 -0.05053,0.21836 -0.117729,-0.0254 -0.72058,-0.0918 -1.33967,-0.14757 z m -2.038085,-0.58168 c -0.180729,-0.29242 0.236646,-0.60818 0.480964,-0.36386 0.251562,0.25156 0.204678,0.61016 -0.07977,0.61016 -0.136932,0 -0.317468,-0.11083 -0.401191,-0.2463 z m -0.93734,-0.28286 c 0,-0.14552 0.126089,-0.26459 0.280198,-0.26459 0.154109,0 0.206614,0.11907 0.116677,0.26459 -0.08994,0.14552 -0.216026,0.26458 -0.280199,0.26458 -0.06417,0 -0.116676,-0.11906 -0.116676,-0.26458 z m 4.693703,-0.43962 c -0.07093,-0.12201 -0.104861,-0.5127 -0.07541,-0.86819 0.05878,-0.70958 0.53809,-1.03192 0.727579,-0.48931 0.142653,0.40849 -0.466619,1.6767 -0.652169,1.3575 z m 24.586855,-0.53052 c -0.35868,-0.35868 -0.15916,-0.85176 0.41892,-1.03533 0.59096,-0.18766 2.24749,-0.39367 3.77032,-0.46887 0.43656,-0.0216 0.95223,-0.18919 1.14594,-0.3725 0.51427,-0.48667 1.83819,-0.31615 1.98782,0.25603 0.0872,0.33335 -0.0258,0.47414 -0.38041,0.47414 -0.27742,0 -0.5044,0.13364 -0.5044,0.29698 0,0.20225 -0.12946,0.18953 -0.40589,-0.0399 -0.32812,-0.27231 -0.52608,-0.27254 -1.0331,-0.001 -0.34497,0.18462 -0.7516,0.2588 -0.90362,0.16484 -0.15202,-0.094 -0.99306,0.0706 -1.86897,0.36567 -1.7412,0.58657 -1.9641,0.62262 -2.22661,0.36011 z m 65.040704,-1.68008 c -0.10412,-0.16847 -0.0866,-0.39492 0.039,-0.50323 0.38628,-0.3332 2.4727,-0.84935 2.74728,-0.67965 0.14253,0.0881 0.25915,0.0447 0.25915,-0.0964 0,-0.50038 2.28985,-1.32726 5.29166,-1.91085 4.09221,-0.79558 5.90446,-0.91416 6.31993,-0.41356 0.27495,0.33129 0.0944,0.43716 -1.20555,0.70704 -0.84091,0.17457 -1.68215,0.3762 -1.86944,0.44807 -0.22474,0.0862 -0.2849,-0.0143 -0.17692,-0.29566 0.20284,-0.52861 -0.31685,-0.56758 -0.60893,-0.0457 -0.19536,0.3491 -1.86556,0.74295 -4.78407,1.12815 -0.62872,0.083 -1.27738,0.35169 -1.45521,0.60283 -0.56004,0.79089 -4.19981,1.63672 -4.55689,1.05896 z m -32.01188,-8.9694 c 0,-0.42444 0.0893,-0.861 0.19844,-0.97014 0.10914,-0.10914 0.19844,-0.42375 0.19844,-0.69912 0,-0.27538 0.11906,-0.4271 0.26458,-0.33717 0.14552,0.0899 0.28272,0.008 0.30489,-0.18282 0.0431,-0.37016 0.12383,-0.75254 0.22683,-1.07395 0.1008,-0.31453 0.1931,-0.70689 0.22896,-0.97328 0.0182,-0.13513 0.23952,-0.45214 0.49185,-0.70447 0.25233,-0.25233 0.47232,-0.58825 0.48887,-0.7465 0.0165,-0.15825 0.049,-0.46632 0.0721,-0.6846 0.0231,-0.21828 0.41059,-0.60669 0.86112,-0.86313 0.51984,-0.29589 0.76513,-0.60697 0.67133,-0.85142 -0.0813,-0.21184 -0.0541,-0.44308 0.0604,-0.51386 0.11452,-0.0708 0.35553,-0.78693 0.53557,-1.59146 0.35625,-1.59187 0.52294,-1.81928 1.0808,-1.4745 0.30087,0.18594 0.30573,0.30106 0.0269,0.63701 -0.18718,0.22553 -0.36828,0.82865 -0.40246,1.34027 -0.0342,0.51163 -0.26034,1.14922 -0.50257,1.41689 -0.24223,0.26766 -0.44042,0.71039 -0.44042,0.98384 0,0.27344 -0.39709,0.91891 -0.88241,1.43437 -0.5672,0.60242 -1.05607,1.53233 -1.36856,2.60324 -0.26738,0.91632 -0.67396,1.77735 -0.90352,1.91339 -0.36859,0.21843 -0.37098,0.27826 -0.0205,0.51178 0.33421,0.22269 0.27548,0.36968 -0.37188,0.93089 -0.42282,0.36654 -0.78001,0.66644 -0.79375,0.66644 -0.0138,0 -0.025,-0.34727 -0.025,-0.7717 z m 11.87276,-0.34081 c -0.38876,-0.62903 -0.3757,-1.79791 0.0201,-1.79791 0.46192,0 0.56101,0.15624 0.79705,1.25677 0.14455,0.67397 0.0975,0.8599 -0.21786,0.8599 -0.22125,0 -0.49093,-0.14344 -0.59929,-0.31876 z m -3.66052,-2.8398 c -0.0844,-0.13648 -0.12582,-0.60962 -0.0922,-1.05142 0.0657,-0.86172 0.69507,-1.31768 1.04898,-0.75992 0.31424,0.49525 0.27445,0.66045 -0.20325,0.84377 -0.27077,0.1039 -0.3766,0.35616 -0.28936,0.68976 0.13993,0.5351 -0.18502,0.72956 -0.46422,0.27781 z m 19.89974,-6.81341 c -0.5658,-0.14786 -0.57114,-0.28798 -0.0577,-1.51674 0.22291,-0.5335 0.34808,-1.06258 0.27814,-1.17574 -0.0699,-0.11316 0.10487,-0.40441 0.38846,-0.64722 0.28359,-0.24282 0.51561,-0.71649 0.51561,-1.05262 0,-0.33612 0.11172,-0.72424 0.24825,-0.86248 0.13654,-0.13825 0.28963,-0.56561 0.3402,-0.9497 0.0506,-0.38409 0.2162,-0.86034 0.36808,-1.05833 0.15188,-0.198 0.48063,-0.80648 0.73055,-1.35218 0.24993,-0.5457 0.5689,-0.99219 0.70883,-0.99219 0.14129,0 0.11381,-0.22513 -0.0618,-0.50634 -0.2606,-0.41729 -0.18596,-0.81282 0.42441,-2.24896 0.40734,-0.95844 0.83354,-1.74261 0.94712,-1.74261 0.49574,0 0.41251,0.83053 -0.3185,3.17846 -0.42983,1.38055 -0.81098,2.7482 -0.84702,3.03925 -0.036,0.29104 -0.31917,1.09181 -0.62919,1.7795 -0.31002,0.68768 -0.73571,1.81877 -0.94597,2.51354 -0.40462,1.33695 -1.42341,3.79783 -1.55086,3.74605 -0.0416,-0.0169 -0.28391,-0.0851 -0.53857,-0.15169 z M 125.1479,121.74721 c 0,-0.50932 0.11906,-0.99963 0.26458,-1.08956 0.14552,-0.0899 0.26459,-0.39462 0.26459,-0.67708 0,-0.28245 0.12708,-0.51355 0.28241,-0.51355 0.15787,0 0.21147,-0.22354 0.12153,-0.5069 -0.0885,-0.2788 -0.037,-0.58348 0.11446,-0.67707 0.15144,-0.0936 0.27535,-0.40127 0.27535,-0.68373 0,-0.28245 0.10791,-0.51355 0.23981,-0.51355 0.1319,0 0.18183,-0.22173 0.11096,-0.49273 -0.14647,-0.56012 0.91184,-0.99633 1.35123,-0.55694 0.16483,0.16484 0.0899,0.25592 -0.21051,0.25592 -0.28577,0 -0.44818,0.17934 -0.41932,0.46302 0.0941,0.92558 -0.0208,1.38908 -0.34457,1.38984 -0.19185,4.5e-4 -0.34025,0.36154 -0.3534,0.8599 -0.0237,0.89715 -0.97315,3.22103 -1.43184,3.50452 -0.15802,0.0977 -0.26528,-0.21048 -0.26528,-0.76209 z m 2.11667,-6.46943 c 0,-0.37279 0.29802,-0.54382 0.68732,-0.39443 0.55217,0.21189 0.44851,0.61492 -0.15816,0.61492 -0.29104,0 -0.52916,-0.0992 -0.52916,-0.22049 z"
       id="path3" />
  </g>
</svg>
