<?xml version="1.0" encoding="UTF-8" standalone="no"?>
<!-- Created with Inkscape (http://www.inkscape.org/) -->

<svg
   width="136.40323mm"
   height="68.680382mm"
   viewBox="0 0 136.40322 68.680386"
   version="1.1"
   id="svg1"
   inkscape:version="1.4.1-rc (06eac75fbf, 2025-03-29)"
   sodipodi:docname="boat3.svg"
   xmlns:inkscape="http://www.inkscape.org/namespaces/inkscape"
   xmlns:sodipodi="http://sodipodi.sourceforge.net/DTD/sodipodi-0.dtd"
   xmlns="http://www.w3.org/2000/svg"
   xmlns:svg="http://www.w3.org/2000/svg">
  <sodipodi:namedview
     id="namedview1"
     pagecolor="#ffffff"
     bordercolor="#000000"
     borderopacity="0.25"
     inkscape:showpageshadow="2"
     inkscape:pageopacity="0.0"
     inkscape:pagecheckerboard="0"
     inkscape:deskcolor="#d1d1d1"
     inkscape:document-units="mm"
     inkscape:zoom="0.72248176"
     inkscape:cx="257.44595"
     inkscape:cy="129.41503"
     inkscape:window-width="1850"
     inkscape:window-height="1016"
     inkscape:window-x="0"
     inkscape:window-y="0"
     inkscape:window-maximized="1"
     inkscape:current-layer="layer1" />
  <defs
     id="defs1" />
  <g
     inkscape:label="Layer 1"
     inkscape:groupmode="layer"
     id="layer1"
     transform="translate(-37.835398,-114.03575)">
    <path
       style="fill:#000000"
       d="m 106.05838,182.52197 c 0,-0.10826 -0.44649,-0.18761 -0.99219,-0.17634 -0.93741,0.0194 -3.21881,-0.53125 -3.50573,-0.84611 -0.0728,-0.0798 -0.78713,-0.48937 -1.587497,-0.91005 -0.80036,-0.42069 -1.84249,-1.05207 -2.31582,-1.40308 -0.47334,-0.35101 -1.24725,-0.77045 -1.7198,-0.9321 -0.47254,-0.16165 -0.93957,-0.41587 -1.03784,-0.56493 -0.0983,-0.14906 -1.07324,-0.30572 -2.16661,-0.34813 -1.09337,-0.0424 -2.08453,-0.0936 -2.20258,-0.11385 -0.11805,-0.0202 -0.30394,-0.008 -0.41308,0.0277 -0.10914,0.0354 -0.52586,0.0851 -0.92604,0.11048 -0.40018,0.0254 -0.96573,0.12681 -1.25677,0.22547 -0.29104,0.0987 -0.70776,0.0631 -0.92604,-0.0791 -0.34835,-0.22693 -0.34929,-0.28914 -0.008,-0.50874 0.88426,-0.56843 -0.0125,-0.48764 -1.72862,0.15573 -2.42026,0.90734 -2.87028,0.92349 -2.98549,0.10713 -0.0806,-0.57118 -0.0403,-0.60627 0.33679,-0.29331 0.36665,0.3043 0.40517,0.29512 0.26747,-0.0637 -0.0885,-0.23058 -0.3591,-0.47174 -0.60137,-0.5359 -0.39188,-0.10379 -0.3894,-0.12005 0.0225,-0.14735 0.25466,-0.0169 0.46302,-0.14976 0.46302,-0.29528 0,-0.14552 0.36569,-0.26458 0.81265,-0.26458 0.44696,0 0.97701,-0.16437 1.1779,-0.36526 0.43639,-0.43639 3.93783,-1.33908 4.92101,-1.26867 0.38162,0.0273 0.83327,-0.1183 1.00367,-0.32362 0.25516,-0.30744 0.13274,-0.39976 -0.69385,-0.52323 -2.31959,-0.34649 -4.56334,-0.14996 -5.838,0.51134 -0.36051,0.18704 -0.81373,0.27933 -1.00715,0.20511 -0.19343,-0.0742 -0.62183,0.0543 -0.952,0.28552 -0.33017,0.23126 -0.76499,0.42047 -0.96626,0.42047 -0.20128,0 -0.7197,0.29766 -1.15206,0.66146 -0.43235,0.3638 -1.00235,0.66146 -1.26665,0.66146 -0.26431,0 -0.54909,0.17859 -0.63286,0.39688 -0.17298,0.45079 -0.96265,0.54504 -0.96265,0.11489 0,-0.6076 0.55131,-1.28042 0.93008,-1.13507 0.21606,0.0829 0.39284,0.0446 0.39284,-0.0851 0,-0.38244 1.5805,-1.20298 2.00407,-1.04044 0.21405,0.0821 0.62151,-0.083 0.90546,-0.36694 0.28396,-0.28396 1.26352,-0.70309 2.17681,-0.9314 0.91329,-0.22832 2.05973,-0.5193 2.54765,-0.64662 0.48791,-0.12733 1.38088,-0.19467 1.98437,-0.14965 0.60349,0.045 1.23779,-0.032 1.40954,-0.1711 0.21368,-0.17308 0.4017,-0.0859 0.59549,0.27624 0.15577,0.29105 0.67861,0.67216 1.16187,0.84691 0.48326,0.17475 0.9892,0.56869 1.1243,0.87542 0.13511,0.30672 0.48377,0.59428 0.77481,0.63901 0.29104,0.0447 0.76729,0.19152 1.05833,0.3262 0.29105,0.13467 0.70776,0.22884 0.92605,0.20926 0.88393,-0.0793 1.32291,0.0683 1.32291,0.44464 0,0.26083 0.26099,0.39687 0.76136,0.39687 0.41874,0 0.90957,0.17859 1.09073,0.39688 0.18115,0.21828 0.61245,0.39687 0.95843,0.39687 0.34599,0 0.62907,0.11906 0.62907,0.26458 0,0.14552 0.186607,0.26459 0.414697,0.26459 0.2943,0 0.36594,0.15364 0.24675,0.52916 -0.11918,0.37553 -0.0475,0.52917 0.24676,0.52917 0.22809,0 0.63298,0.20836 0.89977,0.46302 0.54769,0.52279 0.48561,0.50386 3.20303,0.97702 1.3561,0.23613 2.10767,0.26236 2.33332,0.0814 0.19224,-0.15414 0.8629,-0.19383 1.5875,-0.0939 2.41694,0.33315 3.76818,0.15333 3.76818,-0.50148 0,-0.49071 1.06008,-0.70017 1.23511,-0.24404 0.1782,0.46437 0.6168,0.49676 0.61743,0.0456 5.2e-4,-0.3644 3.58998,-2.32284 4.24864,-2.31808 0.22695,0.002 0.82226,-0.46806 1.32291,-1.04377 1.07009,-1.23053 3.77596,-2.31813 6.99569,-2.81186 1.54755,-0.23731 1.3317,-0.17608 2.57119,-0.72937 0.54103,-0.24151 1.05849,-0.4391 1.14991,-0.4391 0.46402,0 3.02579,-0.85591 3.02584,-1.01097 4e-5,-0.0988 -1.23905,-0.15857 -2.75352,-0.1328 -2.16849,0.0369 -3.22261,0.1974 -4.96099,0.75531 -2.96398,0.95125 -3.88408,1.07332 -4.08783,0.54234 -0.0883,-0.23016 -0.41574,-0.41092 -0.72759,-0.4017 -0.56075,0.0166 -0.56044,0.0194 0.0283,0.25606 0.32742,0.13161 0.59531,0.34945 0.59531,0.48409 0,0.25151 -0.70565,0.65283 -1.20899,0.68758 -0.15563,0.0108 -0.57235,0.20308 -0.92604,0.42741 -0.95873,0.60806 -3.652,1.83226 -4.03104,1.83226 -0.18192,0 -0.56562,0.16338 -0.85266,0.36307 -0.49297,0.34295 -2.02974,0.78538 -2.40613,0.69272 -0.0953,-0.0235 -0.26693,0.1089 -0.38141,0.29414 -0.11448,0.18523 -0.54451,0.36114 -0.95562,0.39091 -0.41112,0.0298 -1.31303,0.14003 -2.00425,0.24502 -1.03611,0.15737 -1.25677,0.11962 -1.25677,-0.215 0,-0.22816 0.31861,-0.47499 0.7276,-0.56368 1.78721,-0.38754 2.10413,-0.44292 2.99042,-0.52255 0.89075,-0.08 3.09454,-0.9001 3.95489,-1.4717 0.81251,-0.53982 2.49224,-1.3296 2.82783,-1.3296 0.19094,0 0.34717,-0.1224 0.34717,-0.27201 0,-0.16964 -0.44502,-0.21166 -1.18249,-0.11165 -0.65036,0.0882 -1.33497,0.064 -1.52135,-0.0538 -0.79413,-0.50199 -1.79682,-0.30178 -2.34515,0.46827 -0.41461,0.58226 -0.75428,0.76298 -1.43409,0.76298 -0.48994,0 -1.2257,0.12733 -1.63503,0.28296 -0.45275,0.17213 -1.36621,0.20881 -2.33233,0.0936 l -1.5881,-0.1893 1.12448,-0.38028 c 0.61847,-0.20916 1.12448,-0.46079 1.12448,-0.55918 0,-0.39765 -0.9808,-0.74994 -1.85208,-0.66524 -3.07595,0.299 -4.80664,0.13854 -5.45051,-0.50532 -0.10667,-0.10668 -0.69004,-0.19395 -1.29638,-0.19395 -0.606327,0 -1.191717,-0.0893 -1.300867,-0.19844 -0.10914,-0.10914 -0.30757,-0.21332 -0.44097,-0.23151 -0.13339,-0.0182 -0.33183,-0.0606 -0.44097,-0.0942 -0.10914,-0.0336 -0.52586,-0.0395 -0.92604,-0.0131 -0.40018,0.0264 -0.72761,-0.08 -0.72761,-0.23654 0,-0.15649 -0.41671,-0.28453 -0.92604,-0.28453 -0.50932,0 -0.92604,-0.11906 -0.92604,-0.26458 0,-0.14552 -0.18233,-0.26458 -0.40518,-0.26458 -0.22285,0 -0.47371,-0.1786 -0.55747,-0.39688 -0.0838,-0.21828 -0.2974,-0.39687 -0.47474,-0.39687 -0.17735,0 -0.60208,-0.29766 -0.94386,-0.66146 -0.34177,-0.3638 -0.78627,-0.66146 -0.98778,-0.66146 -0.2015,0 -0.30174,-0.10457 -0.22275,-0.23237 0.079,-0.1278 -0.24141,-0.32682 -0.71199,-0.44226 -1.65189,-0.40524 -2.12966,-0.42379 -7.53633,-0.29269 -0.61847,0.015 -1.12448,0.10438 -1.12448,0.19862 0,0.0942 -0.56555,0.24677 -1.25677,0.33893 -0.69123,0.0922 -1.6466,0.40516 -2.12306,0.69555 -1.395561,0.85054 -1.770721,0.65073 -0.90086,-0.47981 0.25852,-0.336 0.64282,-0.64016 0.85401,-0.6759 0.21118,-0.0357 0.83832,-0.21914 1.39364,-0.40756 0.55531,-0.18842 1.26349,-0.27621 1.57373,-0.19508 0.31023,0.0811 0.70658,0.0292 0.88076,-0.11532 0.17418,-0.14456 1.8274,-0.30825 3.67382,-0.36375 1.84643,-0.0555 3.42783,-0.1716 3.51422,-0.25799 0.28974,-0.28974 -0.85609,-0.91585 -1.42305,-0.77759 -0.39368,0.096 -0.7251,-0.0727 -1.11386,-0.56691 -0.30438,-0.38696 -0.68248,-0.6238 -0.84022,-0.52631 -0.15773,0.0975 -0.45115,0.0408 -0.65204,-0.12588 -0.22515,-0.18686 -0.80425,-0.24094 -1.50976,-0.14099 -3.57599,0.5066 -4.5421,0.73033 -5.72995,1.32695 -0.72174,0.36251 -1.440051,0.65911 -1.596251,0.65911 -0.1562,0 -0.21547,0.17859 -0.13171,0.39687 0.0838,0.21829 0.0503,0.40599 -0.0744,0.41712 -0.75105,0.0671 -1.15983,0.25138 -1.65451,0.74607 -0.55174,0.55174 -0.875,0.66738 -1.58677,0.56764 -0.20279,-0.0284 -0.47974,0.1063 -0.61545,0.29938 -0.19332,0.27503 -0.27582,0.27943 -0.38095,0.0203 -0.0738,-0.18191 -0.33264,-0.32891 -0.57517,-0.32668 -0.3814,0.003 -0.38736,0.0387 -0.0441,0.26053 0.23264,0.15035 0.26784,0.25816 0.085,0.26053 -0.37694,0.005 -1.14338,-0.72495 -1.14338,-1.08879 0,-0.14372 -0.12352,-0.18497 -0.27447,-0.0917 -0.15096,0.0933 -0.64982,-0.19733 -1.10857,-0.64584 -0.45875,-0.44852 -0.93055,-0.81548 -1.04844,-0.81548 -0.1179,0 -0.21436,-0.11906 -0.21436,-0.26458 0,-0.14552 0.29766,-0.26459 0.66146,-0.26459 0.3638,0 0.66146,0.11609 0.66146,0.25797 0,0.14552 0.34599,0.18877 0.79375,0.0992 0.52441,-0.10488 0.79375,-0.0524 0.79375,0.15452 0,0.18839 0.13184,0.22794 0.33073,0.0992 0.1819,-0.11773 0.62839,-0.22791 0.99219,-0.24484 0.3638,-0.0169 0.87495,-0.12094 1.13589,-0.23113 0.26093,-0.11018 0.54448,-0.13028 0.6301,-0.0447 0.20986,0.20987 1.14442,-0.30703 1.14442,-0.63298 0,-0.14271 -0.35718,-0.23226 -0.79375,-0.19899 -0.43656,0.0333 -0.79375,0.1407 -0.79375,0.23876 0,0.0981 -0.38381,0.2346 -0.85293,0.30345 -1.05231,0.15445 -3.64498,-0.59398 -3.64498,-1.05221 0,-0.1847 -0.18451,-0.33583 -0.41002,-0.33583 -0.2255,0 -0.79105,-0.20482 -1.25677,-0.45517 -0.46571,-0.25034 -1.44597,-0.46545 -2.17833,-0.47802 -0.73237,-0.0126 -1.47886,-0.11388 -1.65886,-0.22513 -0.18001,-0.11124 -0.95001,-0.23461 -1.71113,-0.27415 -1.05669,-0.0549 -1.571506,0.059 -2.177601,0.48186 -0.962771,0.67165 -2.023489,0.83124 -1.808952,0.27216 0.08018,-0.20893 0.311631,-0.37988 0.514343,-0.37988 0.202712,0 0.368567,-0.1318 0.368567,-0.29289 0,-0.17079 -0.193018,-0.21822 -0.463021,-0.11376 -0.254661,0.0985 -0.820208,0.24707 -1.25677,0.33012 -0.436563,0.083 -0.923768,0.25227 -1.082678,0.37605 -0.15891,0.12378 -0.360414,0.15357 -0.447787,0.0662 -0.08737,-0.0874 -0.511517,0.0923 -0.942542,0.39917 -0.914218,0.65098 -1.275257,0.70374 -1.275257,0.18638 0,-0.20441 0.143386,-0.31663 0.318635,-0.24938 0.17525,0.0673 0.389794,-0.0632 0.476766,-0.28981 0.08697,-0.22664 0.273178,-0.41208 0.413793,-0.41208 0.140614,0 0.590836,-0.1359 1.000491,-0.30201 0.409656,-0.1661 0.923422,-0.32627 1.141704,-0.35593 0.218281,-0.0297 1.051718,-0.19082 1.852083,-0.35813 0.800364,-0.16732 1.990989,-0.34586 2.645836,-0.39677 0.65484,-0.0509 1.39328,-0.1811 1.64097,-0.28934 0.50044,-0.21868 1.08898,0.0291 0.8784,0.36982 -0.21691,0.35097 0.56184,0.52657 0.88814,0.20026 0.34679,-0.34679 1.84658,0.10512 2.97235,0.89562 0.38023,0.26698 0.74655,0.43021 0.81404,0.36272 0.0675,-0.0675 0.73807,0.17415 1.49019,0.53698 1.06704,0.51476 1.78436,0.6597 3.26496,0.6597 1.04361,0 1.81701,-0.0805 1.71867,-0.1788 -0.17783,-0.17783 1.50983,-0.86795 2.14113,-0.87555 0.667641,-0.008 0.30552,0.73618 -0.52917,1.08752 l -0.85989,0.36195 0.92604,0.15289 c 0.56041,0.0925 1.157411,0.0145 1.512051,-0.19756 0.3223,-0.19275 0.79855,-0.35228 1.05833,-0.35452 0.25978,-0.002 1.42483,-0.25149 2.589,-0.5539 2.72613,-0.70817 3.30715,-0.73496 4.05178,-0.18683 0.33671,0.24785 0.78319,0.38503 0.99219,0.30483 0.49554,-0.19016 0.48643,-1.00329 -0.0169,-1.50661 -0.54515,-0.54514 -0.49866,-0.86214 0.19843,-1.35317 0.4846,-0.34135 0.52553,-0.46287 0.22009,-0.65343 -0.60535,-0.37767 -0.60628,-2.51648 -0.001,-3.21393 0.27991,-0.32273 0.50892,-0.78287 0.50892,-1.02254 0,-0.58776 0.51028,-1.06141 0.95828,-0.8895 0.20055,0.077 0.36463,0.008 0.36463,-0.15296 0,-0.16109 -0.22885,-0.29289 -0.50857,-0.29289 -0.45921,0 -0.42053,-0.16052 0.39846,-1.65365 0.49886,-0.9095 0.97255,-1.83453 1.05263,-2.05561 0.0801,-0.22108 0.5623,-0.68749 1.07159,-1.03646 0.5093,-0.34898 1.18721,-0.91018 1.50647,-1.24711 0.60212,-0.63547 1.61482,-0.79609 2.29758,-0.36443 0.28321,0.17906 0.58118,0.0745 1.05833,-0.3712 0.75212,-0.70262 1.71216,-1.06383 2.13421,-0.80298 0.31239,0.19306 -0.42933,1.18144 -0.8866,1.18144 -0.5719,0 -1.89397,2.27515 -2.15585,3.71 -0.25952,1.42192 -0.29619,1.55405 -0.48322,1.74108 -0.0961,0.0961 -0.075,0.36745 0.047,0.60298 0.25015,0.48309 0.21638,1.51489 -0.0586,1.78985 -0.28117,0.28116 -0.21465,1.09687 0.0979,1.20106 0.59651,0.19884 -0.10965,1.00294 -1.03288,1.17614 -0.53165,0.0997 -0.97811,0.13275 -0.99212,0.0734 -0.014,-0.0594 -0.22487,0.0575 -0.46856,0.25972 -0.56885,0.4721 -1.776,0.60561 -2.21106,0.24454 -0.24645,-0.20453 -0.33761,-0.18004 -0.33761,0.0907 0,0.20397 -0.23812,0.54249 -0.52917,0.75226 -0.29104,0.20977 -0.52916,0.53371 -0.52916,0.71987 0,0.18672 -0.30355,0.33847 -0.67708,0.33847 -0.38117,0 -0.60605,0.1149 -0.51457,0.26293 0.17381,0.28122 1.81476,0.20329 2.58071,-0.12257 0.30976,-0.13178 0.46436,-0.0781 0.46707,0.16206 0.003,0.29224 0.048,0.28966 0.24013,-0.0139 0.12985,-0.20511 0.69096,-0.41959 1.24692,-0.47663 0.55596,-0.057 1.21452,-0.28802 1.46347,-0.51331 0.40885,-0.37001 0.51105,-0.36869 1.05685,0.0136 l 0.60424,0.42322 h -0.60365 c -0.33506,0 -0.5309,0.11773 -0.44013,0.26459 0.0917,0.14838 -0.11605,0.26458 -0.47307,0.26458 -0.56123,0 -0.89317,0.19583 -2.21681,1.3078 -0.52083,0.43754 -0.0855,1.35181 0.72039,1.51299 0.45832,0.0917 0.69015,0.27752 0.60922,0.48842 -0.16869,0.43961 1.11767,1.63282 1.99867,1.85394 0.82178,0.20625 1.38802,0.64018 1.2104,0.92757 -0.0714,0.11546 0.1104,0.14713 0.40391,0.0704 0.29351,-0.0768 0.59908,-0.24542 0.67904,-0.3748 0.12784,-0.20685 -0.71138,-1.05007 -1.98489,-1.99435 -0.22928,-0.17001 -0.31802,-0.40795 -0.19721,-0.52876 0.12081,-0.12081 0.38059,4.5e-4 0.57729,0.26945 0.1967,0.269 0.4868,0.40928 0.64465,0.31172 0.15786,-0.0976 0.70156,0.0788 1.20823,0.39196 0.50667,0.31313 0.92304,0.47033 0.92527,0.34932 0.002,-0.12101 0.0958,-0.0757 0.2079,0.10077 0.34582,0.54418 1.41668,0.0939 1.317,-0.55371 -0.0475,-0.30845 -0.21699,-0.53617 -0.37671,-0.50603 -1.52624,0.288 -1.68141,0.28394 -1.68141,-0.044 0,-0.19307 0.17859,-0.41958 0.39688,-0.50334 0.51497,-0.19761 0.50232,-0.56887 -0.041,-1.20344 -0.39088,-0.45651 -0.49967,-0.47094 -1.01331,-0.13439 -0.31648,0.20737 -0.65644,0.29601 -0.75547,0.19698 -0.099,-0.099 -0.33748,0.0352 -0.52989,0.29838 -0.2917,0.39893 -0.58801,0.45174 -1.7832,0.31783 -0.78835,-0.0883 -1.5822,-0.16348 -1.7641,-0.16701 -0.1819,-0.004 -0.33073,-0.16805 -0.33073,-0.3656 0,-0.24313 0.49978,-0.41142 1.54674,-0.52085 0.8507,-0.0889 2.44812,-0.5226 3.5498,-0.96374 1.10169,-0.44113 2.26718,-0.80206 2.58999,-0.80206 0.57071,0 0.56767,0.0151 -0.11022,0.54837 -0.775,0.60961 -0.89831,1.33655 -0.30959,1.82514 0.3115,0.25852 0.54514,0.20942 1.19062,-0.25021 l 0.803077,-0.57184 v 0.67948 c 0,0.37371 -0.0893,0.66537 -0.19844,0.64814 -0.10914,-0.0172 -0.436557,-0.0166 -0.727597,0.001 -0.44779,0.0277 -0.4071,0.10792 0.26458,0.52165 0.682817,0.42058 0.866687,0.43888 1.315637,0.13089 0.76205,-0.52276 1.26476,-0.4563 1.07483,0.1421 -0.11716,0.36913 0.12073,0.72145 0.90821,1.34515 0.58682,0.46477 1.06694,0.75169 1.06694,0.63759 0,-0.11409 0.14288,-0.0646 0.3175,0.11006 0.17463,0.17463 0.50937,0.3175 0.74386,0.3175 0.2345,0 0.68467,0.24065 1.00037,0.53478 0.82656,0.77004 1.97769,0.9443 2.45102,0.37105 0.29391,-0.35596 0.30575,-0.4884 0.0513,-0.57403 -0.1819,-0.0612 -0.33073,-0.4218 -0.33073,-0.80129 0,-0.62377 -0.0324,-0.64574 -0.33709,-0.22898 -0.31037,0.42446 -0.38442,0.397 -0.93396,-0.3463 -0.32828,-0.44402 -0.71406,-0.80731 -0.85728,-0.80731 -0.33848,0 -1.82259,-1.6313 -1.83267,-2.01444 -0.004,-0.16206 -0.31596,-0.60285 -0.69265,-0.97954 -0.37669,-0.37669 -0.60779,-0.80965 -0.51355,-0.96212 0.0942,-0.15248 -0.0218,-0.27723 -0.25778,-0.27723 -0.26132,0 -0.39934,-0.18106 -0.35295,-0.46302 0.0419,-0.25467 -0.0121,-0.60363 -0.11998,-0.77547 -0.10788,-0.17185 -0.0741,-0.38786 0.075,-0.48002 0.38436,-0.23755 0.8123,1.00274 0.43179,1.25143 -0.19684,0.12866 -0.16271,0.19576 0.10094,0.19844 0.2191,0.002 0.75488,0.43467 1.19063,0.96098 2.4802,2.99565 3.19933,3.62455 4.11485,3.59852 0.52318,-0.0149 1.03505,-0.2178 1.2333,-0.48893 0.39487,-0.54002 0.44906,-0.99082 0.0926,-0.77052 -0.13546,0.0837 -0.30758,0.0531 -0.38249,-0.0681 -0.0749,-0.1212 0.22237,-0.43216 0.6606,-0.69102 0.72292,-0.42704 0.83898,-0.43247 1.25214,-0.0586 0.27023,0.24456 0.69211,0.35019 1.0377,0.25982 0.40265,-0.1053 0.63605,-0.0123 0.7564,0.30131 0.22275,0.58048 -0.23179,0.85642 -1.30391,0.7916 -0.62491,-0.0378 -1.00468,0.13025 -1.44309,0.63855 -0.69702,0.80813 -0.74705,1.0867 -0.19517,1.0867 0.22026,0 0.61949,0.13679 0.88719,0.30396 0.60156,0.37569 2.14172,-0.21438 2.17053,-0.83157 0.0122,-0.26156 0.0911,-0.21665 0.22954,0.13074 0.14528,0.36444 0.0481,0.7604 -0.31204,1.272 -0.59888,0.85063 -0.54252,0.95412 0.76432,1.40339 1.17925,0.4054 1.88245,0.16235 2.68094,-0.92665 0.33178,-0.45248 0.77826,-0.8227 0.99219,-0.8227 0.21392,0 0.38895,-0.091 0.38895,-0.20228 0,-0.11126 0.71438,-0.23769 1.5875,-0.28096 1.29626,-0.0642 1.5875,-0.003 1.5875,0.33457 0,0.31112 -0.31061,0.42294 -1.25677,0.45243 -0.69122,0.0215 -1.43536,0.0634 -1.65365,0.0931 -0.21828,0.0297 -0.55372,0.0716 -0.74543,0.0931 -0.22369,0.0251 -0.28839,0.22874 -0.18061,0.56834 0.13098,0.41269 0.0476,0.52917 -0.37904,0.52917 -0.30085,0 -0.547,0.11906 -0.547,0.26458 0,0.14552 -0.17859,0.26459 -0.39687,0.26459 -0.44931,0 -0.53217,0.41432 -0.13229,0.66146 0.14552,0.0899 0.26458,0.0581 0.26458,-0.0709 0,-0.1289 0.33991,-0.18448 0.75536,-0.12351 0.57602,0.0845 0.88343,-0.052 1.29485,-0.57499 0.29672,-0.37722 0.72368,-0.68585 0.94881,-0.68585 0.22513,0 0.48292,-0.11907 0.57285,-0.26459 0.23846,-0.38583 0.92604,-0.32378 0.92604,0.0836 0,0.19149 -0.47625,0.61583 -1.05833,0.94298 -0.58208,0.32714 -1.05833,0.65402 -1.05833,0.72639 0,0.0724 0.5217,0.0533 1.15934,-0.0423 0.7359,-0.11036 1.22479,-0.068 1.33853,0.11608 0.32997,0.53389 0.91279,0.29813 1.89959,-0.7684 0.92681,-1.00171 1.68795,-1.36424 1.68795,-0.80398 0,0.1399 -0.47625,0.72588 -1.05833,1.30217 -0.58208,0.5763 -1.05833,1.17082 -1.05833,1.32117 0,0.29786 2.20227,0.23929 3.63802,-0.0968 0.98557,-0.23067 1.12872,-0.58792 0.2853,-0.71202 -0.9456,-0.13915 -0.86581,-0.69999 0.12607,-0.88607 1.37289,-0.25756 2.18226,-0.0753 2.09057,0.47079 -0.0995,0.59238 1.21217,0.65275 1.43727,0.0661 0.0838,-0.21829 0.31287,-0.39688 0.50912,-0.39688 0.56043,0 2.28996,-1.27091 2.61399,-1.92083 0.16123,-0.32342 0.52829,-0.63042 0.81568,-0.68224 0.56069,-0.1011 1.97773,-1.31492 1.97773,-1.69411 0,-0.12619 0.35663,-0.60993 0.79252,-1.07498 0.43589,-0.46505 0.79308,-0.97193 0.79375,-1.12639 6.8e-4,-0.15446 0.24543,-0.54295 0.54389,-0.86332 0.29847,-0.32036 0.47003,-0.7 0.38126,-0.84364 -0.0888,-0.14364 0.0811,-0.26116 0.37741,-0.26116 0.29635,0 1.18441,-0.34928 1.97347,-0.77617 0.78906,-0.4269 1.50612,-0.70471 1.59347,-0.61736 0.0873,0.0873 0.15881,0.0199 0.15881,-0.14987 0,-0.16977 0.18235,-0.30868 0.40522,-0.30868 0.5903,0 3.4065,-0.98057 4.41582,-1.53754 1.91517,-1.05684 4.77499,-1.49265 9.03046,-1.37615 1.12468,0.0308 3.15421,0.63897 4.06471,1.21806 0.3223,0.20499 0.72496,0.37271 0.8948,0.37271 0.36235,0 1.94698,1.62412 2.18187,2.23624 0.13279,0.34605 0.0703,0.37283 -0.34777,0.14909 -0.2803,-0.15002 -0.66971,-0.50129 -0.86536,-0.78061 -0.19564,-0.27932 -0.678,-0.6547 -1.0719,-0.83417 -0.3939,-0.17948 -0.71618,-0.4333 -0.71618,-0.56405 0,-0.13075 -0.10639,-0.17198 -0.23642,-0.0916 -0.13002,0.0804 -0.73769,-0.0308 -1.35038,-0.24692 -0.61268,-0.21617 -1.94118,-0.41525 -2.95222,-0.44241 -1.01105,-0.0272 -1.90268,-0.15361 -1.98141,-0.28101 -0.0787,-0.12739 -0.431,-0.043 -0.78281,0.18749 -0.46493,0.30463 -0.77397,0.34724 -1.13134,0.15598 -0.27042,-0.14473 -0.55464,-0.20018 -0.63159,-0.12323 -0.0769,0.0769 -0.50932,0.15041 -0.96083,0.16324 -0.45151,0.0128 -0.82092,0.12429 -0.82092,0.24766 0,0.12338 -0.22151,0.22432 -0.49225,0.22432 -0.27073,0 -0.92143,0.29126 -1.44599,0.64723 -0.52456,0.35598 -1.46556,0.70743 -2.09111,0.781 -1.18198,0.13901 -3.50915,1.05065 -3.77337,1.47817 -0.0834,0.13502 -0.31041,0.1846 -0.50434,0.11018 -0.19394,-0.0744 -0.66867,0.24029 -1.05496,0.69937 -0.4123,0.48999 -0.85884,0.77462 -1.08133,0.68924 -0.3701,-0.14202 -1.19832,1.11046 -1.19832,1.81216 0,0.17337 -0.23812,0.53072 -0.52916,0.79411 -0.29105,0.26339 -0.52917,0.5795 -0.52917,0.70247 0,0.57525 0.88953,0.0884 2.49214,-1.36393 0.96345,-0.87312 1.88423,-1.5875 2.04616,-1.5875 0.16193,0 0.48698,-0.22109 0.72233,-0.49132 0.23535,-0.27022 0.72557,-0.58196 1.08937,-0.69275 0.3638,-0.11079 0.84005,-0.35386 1.05833,-0.54016 1.42086,-1.2127 4.23334,-2.12101 4.23334,-1.36719 0,0.55178 -0.61352,0.97709 -1.58724,1.10032 -0.46743,0.0591 -1.04566,0.27089 -1.28496,0.47052 -0.2393,0.19963 -0.94814,0.58515 -1.57518,0.8567 -0.62705,0.27156 -1.36987,0.81644 -1.65072,1.21085 -0.28084,0.39441 -0.8055,0.79112 -1.16591,0.88158 -0.3604,0.0905 -1.1654,0.69853 -1.78887,1.35128 -0.62347,0.65274 -1.28241,1.18729 -1.46431,1.18787 -0.1819,5.8e-4 -0.33073,0.12012 -0.33073,0.26564 0,0.65824 1.74072,-0.11024 2.63635,-1.16387 0.69907,-0.8224 2.58913,-2.27572 2.9596,-2.27572 0.6484,0 0.0806,1.07227 -0.96574,1.82367 -0.65485,0.47028 -1.19063,0.99843 -1.19063,1.17367 0,0.38255 -2.45605,1.87229 -3.57187,2.16655 -0.43656,0.11513 -1.05965,0.18272 -1.38463,0.1502 -0.32499,-0.0325 -0.74163,0.034 -0.92589,0.14791 -0.18425,0.11388 -0.6438,0.17466 -1.02122,0.13507 -0.60975,-0.064 -2.62139,0.85962 -2.62139,1.20352 0,0.0736 0.96656,0.0611 2.14792,-0.0276 2.04575,-0.15368 2.14142,-0.13654 2.01151,0.36025 -0.075,0.28688 -0.0593,0.51157 0.0349,0.49931 0.0942,-0.0123 0.23083,-1.5e-4 0.30359,0.0269 0.76927,0.28603 5.82083,0.51182 5.82083,0.26017 0,-0.0982 0.57895,-0.25532 1.28655,-0.34918 0.7076,-0.0939 1.86846,-0.46981 2.57969,-0.83543 1.46551,-0.75336 2.71507,-0.99316 4.97683,-0.95505 1.58865,0.0268 2.20795,0.29196 1.88857,0.80874 -0.11452,0.18529 -0.94928,0.23606 -2.38931,0.14533 -1.51375,-0.0954 -2.27246,-0.0437 -2.40047,0.16338 -0.13528,0.21889 -0.2487,0.20332 -0.40911,-0.0561 -0.18137,-0.29334 -0.30547,-0.27547 -0.67878,0.0977 -0.25127,0.25119 -0.38226,0.5313 -0.2911,0.62246 0.17149,0.17149 6.35353,0.17635 7.71923,0.006 0.90866,-0.1133 3.06974,0.54373 3.48677,1.06008 0.15991,0.19799 0.36768,0.28305 0.46171,0.18902 0.26536,-0.26536 2.29026,0.48804 2.29026,0.85214 0,0.50057 -1.02579,0.66113 -1.28336,0.20088 -0.12308,-0.21993 -0.56929,-0.43331 -0.99157,-0.47418 -0.42228,-0.0409 -1.24403,-0.2887 -1.82612,-0.55072 -0.58208,-0.26202 -1.143,-0.45583 -1.24649,-0.43068 -0.10349,0.0251 -1.06179,0.10134 -2.12956,0.16931 -2.26557,0.14423 -2.78155,0.30182 -2.89363,0.88378 -0.0649,0.33698 -0.48861,0.44247 -2.02258,0.50356 -1.06726,0.0425 -2.13843,-0.0277 -2.38036,-0.15607 -0.24193,-0.12834 -1.83783,-0.31557 -3.54643,-0.41607 -1.70861,-0.10049 -3.40297,-0.26199 -3.76525,-0.35888 -0.78396,-0.20968 -4.02202,0.0537 -5.6959,0.4632 -0.65485,0.16022 -1.53074,0.34574 -1.94642,0.41228 -0.41569,0.0665 -0.89194,0.22912 -1.05833,0.36131 -0.1664,0.13219 -0.65973,0.30682 -1.0963,0.38807 -1.84982,0.34426 -5.63001,1.65018 -6.2177,2.14798 -0.21828,0.1849 -0.60524,0.41007 -0.8599,0.50038 -0.25466,0.0903 -0.46302,0.29974 -0.46302,0.4654 0,0.187 0.17555,0.22502 0.46302,0.10028 1.55534,-0.67491 3.03205,-0.23129 1.52136,0.45703 -0.36381,0.16575 -0.66146,0.40835 -0.66146,0.5391 0,0.13076 -0.12101,0.16295 -0.2689,0.0715 -0.1479,-0.0914 -0.2004,-0.27702 -0.11668,-0.41249 0.0837,-0.13546 0.0548,-0.2463 -0.0643,-0.2463 -0.1191,0 -0.34716,0.20836 -0.50678,0.46302 -0.15963,0.25467 -0.84445,0.62539 -1.52183,0.82384 -1.53907,0.45089 -1.96852,0.97666 -0.61884,0.75764 0.52451,-0.0851 1.34669,-0.32786 1.82707,-0.53944 0.48038,-0.21157 1.2306,-0.5233 1.66716,-0.69273 0.43657,-0.16942 1.07937,-0.54424 1.42846,-0.83293 0.60794,-0.50276 0.61411,-0.53997 0.14632,-0.88202 -0.45155,-0.33018 -0.3999,-0.3977 0.68457,-0.89486 1.23832,-0.56769 1.81093,-0.52285 1.29298,0.10125 -0.25017,0.30143 -0.20169,0.37332 0.25173,0.37332 0.52606,0 0.67448,-0.24283 0.58818,-0.96232 -0.0571,-0.47609 1.18334,-0.68424 4.67206,-0.78398 2.97796,-0.0851 3.33531,-0.043 4.36562,0.51441 0.61719,0.33391 1.64583,0.77258 2.28587,0.9748 0.64459,0.20366 1.21541,0.56536 1.2796,0.81081 0.0719,0.2748 0.29648,0.3959 0.59132,0.3188 0.26149,-0.0684 0.84619,0.0674 1.29932,0.30172 0.45314,0.23433 1.74397,0.54271 2.86851,0.68528 1.12453,0.14258 2.25491,0.32598 2.51194,0.40756 0.25703,0.0816 0.61249,0.0586 0.78991,-0.051 0.17742,-0.10966 0.85302,-0.23228 1.50133,-0.2725 0.6483,-0.0402 1.30193,-0.19631 1.45249,-0.34688 0.15056,-0.15056 0.48806,-0.27375 0.75,-0.27375 0.26194,0 0.47625,-0.10554 0.47625,-0.23454 0,-0.129 0.53578,-0.31488 1.19062,-0.41308 0.65485,-0.0982 1.19063,-0.27903 1.19063,-0.40183 0,-0.17181 1.60392,-0.19456 2.36567,-0.0336 0.0642,0.0136 -0.11308,0.19271 -0.39395,0.39808 -0.28087,0.20538 -0.58096,0.32998 -0.66686,0.27689 -0.24647,-0.15233 -2.5239,0.59235 -3.23349,1.05729 -1.02406,0.671 -3.82628,1.12114 -6.40575,1.029 -2.6403,-0.0943 -3.2053,-0.16515 -3.47602,-0.43588 -0.10122,-0.10122 -0.38459,-0.18404 -0.62971,-0.18404 -0.24511,0 -0.96941,-0.27446 -1.60955,-0.60991 -3.22504,-1.68999 -5.78959,-2.57814 -7.82053,-2.70838 -1.3514,-0.0867 -2.0993,-0.0308 -2.22088,0.16591 -0.13513,0.21865 -0.3312,0.21744 -0.74612,-0.005 -0.37037,-0.19821 -0.56281,-0.20755 -0.56281,-0.0273 0,0.15064 0.11906,0.27389 0.26458,0.27389 0.14552,0 0.26459,0.11906 0.26459,0.26458 0,0.14552 -0.23813,0.26459 -0.52917,0.26459 -0.29104,0 -0.52917,0.12609 -0.52917,0.2802 0,0.1541 -0.12427,0.20339 -0.27617,0.10951 -0.1519,-0.0939 -0.46785,-0.0116 -0.70212,0.18282 -0.23428,0.19443 -0.46719,0.32374 -0.51758,0.28736 -0.22172,-0.16006 -0.62079,-0.0444 -0.62079,0.17997 0,0.14766 0.31753,0.15505 0.79375,0.0185 0.91052,-0.26113 0.97442,-0.1052 0.29192,0.71229 -0.32882,0.39385 -0.66566,0.53254 -1.04953,0.43216 -0.31092,-0.0813 -0.56531,-0.0301 -0.56531,0.11379 0,0.1439 -0.49107,0.34015 -1.09128,0.43613 -0.6002,0.096 -1.6057,0.40885 -2.23444,0.69528 -0.62874,0.28642 -1.27493,0.52077 -1.43599,0.52077 -0.16105,0 -0.76857,0.26789 -1.35004,0.59531 -1.03646,0.58363 -1.06466,0.58536 -1.43675,0.0882 -0.37696,-0.50367 -1.64746,-0.66723 -2.50566,-0.32255 -1.6719,0.67147 -2.77247,0.94117 -2.98272,0.73091 -0.14535,-0.14534 -0.5104,-0.10169 -0.91802,0.10978 -1.18815,0.61642 -6.8383,0.10759 -9.46073,-0.852 -1.84296,-0.67436 -2.513537,-1.17286 -2.513537,-1.8685 0,-0.40297 -0.15785,-0.59781 -0.48433,-0.59781 -0.26638,0 -1.07005,-0.29716 -1.78594,-0.66035 -0.71588,-0.36319 -1.43586,-0.66085 -1.59994,-0.66146 -0.16408,-6.1e-4 -0.44655,-0.1797 -0.62771,-0.39798 -0.18116,-0.21828 -0.61245,-0.39688 -0.95844,-0.39688 -0.34598,0 -0.62906,-0.10763 -0.62906,-0.23918 0,-0.23845 -1.74255,-0.38797 -3.9316,-0.33735 -1.16154,0.0269 -4.16011,0.7751 -3.94965,0.98556 0.0622,0.0622 1.57584,0.16981 3.36361,0.23909 3.01002,0.11664 4.78222,0.49486 4.78222,1.0206 0,0.11915 0.21167,0.18077 0.47037,0.13694 0.77839,-0.13187 3.40028,1.14632 3.85562,1.87964 0.23234,0.37418 0.4256,0.5315 0.42947,0.3496 0.004,-0.1819 0.13884,-0.33073 0.29993,-0.33073 0.16109,0 0.22436,0.17859 0.1406,0.39688 -0.1079,0.28118 0.0234,0.39687 0.45029,0.39687 0.331417,0 0.833697,0.17481 1.116167,0.38846 0.28248,0.21365 0.69678,0.39225 0.92067,0.39688 0.22389,0.005 0.83111,0.22459 1.34937,0.48882 0.5562,0.28357 1.14827,0.40554 1.44501,0.29769 0.27649,-0.10049 0.60277,-0.12441 0.72507,-0.0531 0.46856,0.27307 8.87417,0.33398 9.04009,0.0655 0.0918,-0.14847 0.26944,-0.20653 0.39485,-0.12902 0.12541,0.0775 0.30281,0.0199 0.39421,-0.12798 0.21483,-0.34761 1.45788,-0.35129 1.45788,-0.004 0,0.14552 -0.16586,0.26458 -0.36857,0.26458 -0.20271,0 -0.4371,0.17859 -0.52086,0.39688 -0.089,0.232 -0.48549,0.39687 -0.95435,0.39687 -0.44113,0 -0.80206,0.0977 -0.80206,0.21707 0,0.11939 -1.78593,0.21803 -3.96875,0.2192 -2.18281,0.001 -3.96876,-0.0864 -3.96876,-0.19469 z m -20.771667,-6.58855 c 0.0927,-0.14998 -0.0135,-0.19434 -0.24897,-0.10398 -0.45836,0.17589 -0.54223,0.36553 -0.16164,0.36553 0.13693,0 0.32171,-0.1177 0.41061,-0.26155 z m 6.05595,-1.73656 c 0.0904,-0.23546 0.046,-0.34167 -0.10398,-0.24897 -0.14385,0.0889 -0.26155,0.27368 -0.26155,0.41062 0,0.38058 0.18964,0.29672 0.36553,-0.16165 z m 14.715717,-2.77006 c 0,-0.14864 -0.31302,-0.41287 -0.69559,-0.58719 -0.38257,-0.17431 -1.06235,-0.65954 -1.51062,-1.07828 -0.83508,-0.78008 -0.83513,-0.78009 -3.08546,-0.34073 -0.75905,0.1482 -0.56341,0.83532 0.32216,1.13148 1.01726,0.3402 2.96883,0.82441 3.91117,0.97042 0.36381,0.0564 0.75076,0.11871 0.8599,0.13853 0.10914,0.0198 0.19844,-0.0856 0.19844,-0.23423 z m 5.29167,-0.11731 c 0,-0.57383 -0.92286,-0.96478 -2.11183,-0.89463 -1.26474,0.0746 -1.6426,-0.21447 -0.94603,-0.72381 0.28224,-0.20638 0.36352,-0.37524 0.18062,-0.37524 -0.47259,0 -1.35609,0.50518 -1.35609,0.77541 0,0.34246 2.12101,1.32298 2.5258,1.16764 0.19386,-0.0744 0.56807,-0.01 0.83157,0.14343 0.6598,0.38379 0.87596,0.36089 0.87596,-0.0928 z m 8.20209,0.11333 c 0,-0.14021 -0.60234,-0.25493 -1.33853,-0.25493 -0.7362,0 -1.27431,0.10392 -1.19582,0.23092 0.19652,0.31797 2.53435,0.34012 2.53435,0.024 z m -4.29948,-1.11483 c -0.0606,-0.1819 -0.269,-0.33072 -0.46302,-0.33072 -0.19403,0 -0.40239,0.14882 -0.46302,0.33072 -0.0656,0.19675 0.122,0.33073 0.46302,0.33073 0.34102,0 0.5286,-0.13398 0.46302,-0.33073 z m 5.68854,0.0999 c 0.10914,-0.0186 0.19844,-0.15209 0.19844,-0.29669 0,-0.14461 -0.26789,-0.21299 -0.59532,-0.15196 -0.32742,0.061 -0.75116,0.11982 -0.94165,0.13064 -0.19049,0.0108 -0.28272,0.1226 -0.20496,0.24843 0.11967,0.19363 0.66897,0.21839 1.54349,0.0696 z m -22.424877,-0.29603 c 0.0794,-0.12853 -0.48306,-0.54514 -1.24999,-0.92581 -0.76693,-0.38067 -1.53267,-0.8727 -1.70166,-1.0934 -0.27081,-0.3537 -0.34278,-0.34418 -0.60682,0.0802 -0.24479,0.39343 -0.26783,0.31696 -0.12603,-0.41814 0.14831,-0.76876 0.10935,-0.87498 -0.26786,-0.73023 -0.53822,0.20653 -2.26392,-0.47487 -2.26392,-0.89393 0,-0.42397 -1.09918,-1.29332 -1.6486,-1.30388 -0.27401,-0.005 -0.52591,0.26185 -0.62709,0.66498 -0.21416,0.8533 0.0972,1.18888 0.54056,0.58257 0.18604,-0.25443 0.46123,-0.4626 0.61152,-0.4626 0.37857,0 0.62866,0.74138 0.31539,0.93499 -0.14077,0.087 0.0133,0.38824 0.34228,0.66942 1.8848,1.61069 2.21391,1.8199 2.64682,1.6825 0.34884,-0.11072 0.46496,5e-5 0.46496,0.44352 0,0.32511 0.0752,0.51593 0.16705,0.42405 0.0919,-0.0919 0.37932,-0.0184 0.63876,0.16336 0.55468,0.38851 2.55565,0.52052 2.76463,0.1824 z m 14.819577,-0.26853 c 0.62244,-0.68779 0.38191,-0.89812 -0.77819,-0.68049 -0.84768,0.15903 -0.90388,0.22288 -0.61015,0.69322 0.41123,0.65849 0.78399,0.65507 1.38834,-0.0127 z m -6.35147,-0.88906 c 0.51636,-0.28133 0.51476,-0.2905 -0.0662,-0.37867 -0.32743,-0.0497 -0.59532,-0.18627 -0.59532,-0.30348 0,-0.37913 -1.571,-0.54001 -2.2504,-0.23045 -0.865,0.39412 -0.83326,0.56409 0.19988,1.07014 0.86641,0.42439 1.73669,0.37384 2.71198,-0.15754 z m -7.404387,-0.16126 c -0.0753,-0.12189 0.11725,-0.15514 0.427977,-0.0739 0.93494,0.24449 0.45301,-0.49839 -0.761597,-1.17398 -0.77779,-0.43263 -1.31915,-0.55866 -1.90034,-0.44243 -0.95886,0.19178 -1.0496,0.51576 -0.21739,0.77623 0.32742,0.10248 0.93282,0.46849 1.34532,0.81335 0.68148,0.56973 1.4385,0.63866 1.10603,0.10071 z m 11.156747,0.0859 c 0.0922,0.0922 0.32895,0.0339 0.52604,-0.12969 0.2707,-0.22466 0.2849,-0.38587 0.0581,-0.65916 -0.33871,-0.40812 -1.29379,-0.49303 -1.29379,-0.11502 0,0.13571 -0.23812,0.32233 -0.52916,0.41471 -0.29104,0.0924 -0.52917,0.27026 -0.52917,0.3953 0,0.34428 0.88054,0.47056 1.26317,0.18116 0.18541,-0.14025 0.41258,-0.17953 0.50482,-0.0873 z m -7.47376,-1.40866 c 1.26132,-0.47955 0.64493,-1.39957 -0.98312,-1.4674 -1.02922,-0.0429 -1.16253,0.0131 -1.05056,0.44129 0.0705,0.26972 0.29295,0.4904 0.49426,0.4904 0.20131,0 0.36602,0.17859 0.36602,0.39687 0,0.46374 0.24317,0.49251 1.1734,0.13884 z m 33.32242,-0.40697 c 1.04436,-0.43636 1.27053,-0.92249 0.42919,-0.92249 -0.29104,0 -0.52917,-0.13166 -0.52917,-0.29257 0,-0.16091 -0.35718,0.0898 -0.79375,0.55715 -0.43656,0.46734 -0.79375,0.89665 -0.79375,0.95402 0,0.22213 0.77093,0.0868 1.68748,-0.29611 z M 72.720882,166.5068 c 0,-0.0558 -0.23813,-0.10143 -0.52917,-0.10143 -0.29104,0 -0.52917,0.10792 -0.52917,0.23981 0,0.1319 0.23813,0.17755 0.52917,0.10144 0.29104,-0.0761 0.52917,-0.18403 0.52917,-0.23982 z m 27.676118,0.0309 c -0.2761,-0.20899 -0.625377,-0.30373 -0.776187,-0.21052 -0.15822,0.0978 -0.0578,0.25418 0.23742,0.3698 0.827247,0.32395 1.078887,0.24956 0.538767,-0.15928 z m -25.271778,-0.3723 0.82963,-0.50453 -1.08632,0.0415 c -0.84175,0.0322 -1.08666,0.14576 -1.08782,0.50453 -0.002,0.59411 0.31543,0.58432 1.34451,-0.0415 z m 14.009131,-3.58529 c -0.3387,-0.40812 -1.06764,-0.56548 -1.06764,-0.23049 0,0.0977 0.19959,0.39815 0.44354,0.66771 0.55192,0.60987 1.14708,0.19292 0.6241,-0.43722 z m 1.04903,0.004 c 0,-0.0642 -0.11906,-0.19026 -0.26459,-0.2802 -0.14552,-0.0899 -0.26458,-0.0374 -0.26458,0.11667 0,0.15411 0.11906,0.2802 0.26458,0.2802 0.14553,0 0.26459,-0.0525 0.26459,-0.11667 z m -1.97808,-4.01587 c -0.2356,-0.2356 -0.49415,-0.36259 -0.57456,-0.28218 -0.23553,0.23553 0.16744,0.71056 0.60278,0.71056 0.34554,0 0.34168,-0.0585 -0.0282,-0.42838 z m 3.99157,-0.91871 c 0.19856,-0.16479 0.54113,-0.2305 0.76126,-0.14603 0.42056,0.16139 0.44639,0.10331 0.49947,-1.1232 0.0285,-0.65977 -0.0501,-0.74916 -0.5753,-0.65392 -1.04934,0.19028 -1.16441,-0.18569 -0.2904,-0.94879 0.72216,-0.63051 0.84207,-0.91191 0.84207,-1.97606 0,-0.93623 0.0881,-1.20703 0.35908,-1.10306 0.19749,0.0758 0.35908,0.0324 0.35908,-0.0964 0,-0.12883 -0.14883,-0.28447 -0.33073,-0.34587 -0.24769,-0.0836 -0.20395,-0.37146 0.17423,-1.14653 0.27773,-0.56919 0.52572,-1.24325 0.5511,-1.49791 0.0708,-0.71006 -0.92941,-0.56659 -1.87394,0.26881 -0.44983,0.39786 -1.22374,1.08388 -1.71979,1.5245 -0.49605,0.44061 -1.08032,1.15499 -1.29837,1.5875 -0.21805,0.43251 -0.49823,0.86053 -0.62263,0.95117 -0.12439,0.0906 -0.0945,0.41083 0.0664,0.71154 0.19282,0.36028 0.20213,0.60269 0.0273,0.71073 -0.14591,0.0902 -0.2653,0.90527 -0.2653,1.81132 v 1.64736 l 1.4877,0.0623 c 0.81823,0.0342 1.65015,-0.0726 1.84871,-0.23737 z m -4.39474,-0.24041 c 0,-0.14552 -0.11906,-0.26459 -0.26459,-0.26459 -0.14552,0 -0.26458,0.11907 -0.26458,0.26459 0,0.14552 0.11906,0.26458 0.26458,0.26458 0.14553,0 0.26459,-0.11906 0.26459,-0.26458 z m -17.339281,24.35967 c -0.44154,-0.10582 -1.03686,-0.32814 -1.32291,-0.49404 -0.4273,-0.2478 -0.18963,-0.30611 1.33198,-0.32676 4.00434,-0.0543 5.16878,-0.28836 7.342191,-1.47552 0.40018,-0.21859 0.7276,-0.33452 0.7276,-0.25763 0,0.0769 0.55352,-0.1545 1.23003,-0.51421 1.25487,-0.66722 2.20955,-0.84568 2.20955,-0.41303 0,0.22186 -0.58067,0.53041 -3.21498,1.70832 -0.53132,0.23757 -1.26843,0.43195 -1.63803,0.43195 -0.369601,0 -0.745591,0.11906 -0.835531,0.26458 -0.0899,0.14552 -0.58024,0.26458 -1.08956,0.26458 -0.54999,0 -0.85964,0.10745 -0.76252,0.26459 0.14706,0.23795 -0.20022,0.37918 -0.7276,0.29591 -0.10914,-0.0172 -0.19844,0.0877 -0.19844,0.23325 0,0.47297 -1.27678,0.29266 -1.40512,-0.19843 -0.11524,-0.44098 -0.12246,-0.44098 -0.15169,0 -0.0327,0.49286 -0.22527,0.52075 -1.49497,0.21644 z m -0.21681,-1.78728 c -0.1,-0.1 -0.38771,-0.19994 -0.63941,-0.22213 -0.97073,-0.0856 -2.17701,-0.44104 -2.07219,-0.61063 0.0604,-0.0977 -0.41334,-0.19798 -1.05278,-0.22273 -0.69175,-0.0268 -1.47516,-0.26754 -1.93431,-0.59449 -0.42444,-0.30222 -0.94779,-0.5495 -1.16302,-0.5495 -0.21522,0 -0.44785,-0.21618 -0.51695,-0.48041 -0.10068,-0.38502 -0.32302,-0.45738 -1.11964,-0.36438 -0.65904,0.0769 -1.0729,-0.006 -1.22814,-0.24718 -0.195969,-0.30402 -0.280555,-0.29854 -0.518865,0.0336 -0.214391,0.29884 -0.317877,0.31518 -0.418923,0.0662 -0.07381,-0.1819 -0.362401,-0.33073 -0.641316,-0.33073 -0.278915,0 -0.507118,-0.0932 -0.507118,-0.20704 0,-0.33798 2.340702,-0.35126 4.965902,-0.0282 2.45843,0.30255 3.15774,0.6234 2.34729,1.07695 -0.23871,0.13359 -0.43402,0.43046 -0.43402,0.6597 0,0.322 0.18053,0.38069 0.79375,0.25805 0.44775,-0.0896 0.79375,-0.0463 0.79375,0.0992 0,0.14188 0.51593,0.25796 1.14652,0.25796 0.63059,0 1.23431,0.0878 1.34159,0.19507 0.10729,0.10728 0.38105,0.19658 0.60837,0.19843 0.22732,0.002 0.51273,0.27127 0.63426,0.59869 0.21134,0.56941 -8.3e-4,0.79745 -0.38475,0.41354 z m 0.75505,-0.0828 c -0.2769,-0.44802 0.12646,-0.79375 0.92604,-0.79375 1.02398,0 1.25652,0.46691 0.39557,0.79425 -0.87243,0.33169 -1.11636,0.3316 -1.32161,-5e-4 z m 2.24895,-0.26458 c 0,-0.29104 0.15875,-0.52917 0.35278,-0.52917 0.49765,0 0.69277,0.25462 0.52673,0.68733 -0.21596,0.56278 -0.87951,0.44346 -0.87951,-0.15816 z m -0.923,-1.27579 c -0.0605,-0.0605 -0.9089,-0.14512 -1.88531,-0.18802 -1.28943,-0.0567 -1.8398,-0.19328 -2.01103,-0.49925 -0.16671,-0.29789 -0.4369,-0.37076 -0.92266,-0.24884 -0.45678,0.11464 -0.62829,0.0775 -0.51193,-0.11074 0.0962,-0.15573 -0.0348,-0.33788 -0.29126,-0.40477 -0.25645,-0.0669 -0.0198,-0.13544 0.52592,-0.15232 0.54571,-0.0169 0.99219,0.0586 0.99219,0.16775 0,0.10914 0.44649,0.21253 0.99219,0.22976 1.03345,0.0326 5.42423,1.06764 4.96094,1.16941 -0.54248,0.11917 -1.74287,0.1432 -1.84905,0.037 z m 29.365708,-3.68679 c -0.29104,-0.0692 -0.61061,-0.25509 -0.71014,-0.41321 -0.30837,-0.48985 0.0737,-0.76098 0.80515,-0.57128 1.23728,0.3209 1.46647,0.34972 3.07999,0.38734 1.35513,0.0316 1.49068,0.0766 0.92604,0.30725 -0.74091,0.30269 -3.28904,0.48282 -4.10104,0.2899 z m 48.68335,-1.65201 c -0.0899,-0.14552 -0.0374,-0.26458 0.11667,-0.26458 0.15411,0 0.2802,0.11906 0.2802,0.26458 0,0.14552 -0.0525,0.26459 -0.11667,0.26459 -0.0642,0 -0.19027,-0.11907 -0.2802,-0.26459 z m -76.667188,-1.25677 c 0.0698,-0.1819 0.3523,-0.33073 0.62778,-0.33073 0.27547,0 0.50085,0.14883 0.50085,0.33073 0,0.1819 -0.28249,0.33073 -0.62777,0.33073 -0.39351,0 -0.58041,-0.12341 -0.50086,-0.33073 z m -2.1898,-0.0842 c -0.0961,-0.15544 -0.34122,-0.21871 -0.54479,-0.1406 -0.20356,0.0781 -0.37011,0.0267 -0.37011,-0.11425 0,-0.14095 -0.18242,-0.25628 -0.40537,-0.25628 -0.22296,0 -0.84803,-0.19698 -1.38906,-0.43774 -0.54103,-0.24075 -1.08789,-0.41438 -1.21525,-0.38583 -0.12735,0.0285 -0.42501,-0.12159 -0.66145,-0.33363 -0.23645,-0.21204 -0.87639,-0.46838 -1.4221,-0.56965 -0.5457,-0.10127 -0.99218,-0.29696 -0.99218,-0.43488 0,-0.13791 -0.11084,-0.18225 -0.24631,-0.0985 -0.13546,0.0837 -0.31121,0.0472 -0.39056,-0.0812 -0.0793,-0.12838 -0.42223,-0.18028 -0.76197,-0.11533 -0.35828,0.0685 -0.75968,-0.053 -0.95571,-0.28917 -0.93572,-1.12747 3.21286,-0.53255 5.45688,0.78253 0.62205,0.36454 1.131,0.5952 1.131,0.51257 0,-0.0826 0.35594,0.0338 0.79098,0.25879 0.43503,0.22497 0.82199,0.38915 0.85989,0.36485 0.17787,-0.11404 1.25954,0.3592 1.25954,0.55106 0,0.11954 0.14883,0.21183 0.33073,0.20507 0.18191,-0.007 0.62839,0.007 0.99219,0.031 l 0.66146,0.0433 -0.75785,0.39525 c -0.90051,0.46964 -1.13728,0.48911 -1.36996,0.11262 z m 92.283208,-0.91888 c -0.32666,-0.2288 -0.59393,-0.33127 -0.59393,-0.2277 0,0.10356 -0.23895,-0.0279 -0.53099,-0.29224 -0.59668,-0.53999 -1.08378,-0.83137 -3.17318,-1.89816 -0.80036,-0.40865 -1.57427,-0.87413 -1.71979,-1.0344 -0.14552,-0.16027 -0.6813,-0.44845 -1.19062,-0.6404 -0.50933,-0.19195 -1.10464,-0.48838 -1.32292,-0.65873 -0.21828,-0.17034 -0.78383,-0.46284 -1.25677,-0.64998 -0.47294,-0.18714 -0.8599,-0.44487 -0.8599,-0.57274 0,-0.29934 -0.0489,-0.30616 1.47422,0.20579 0.71715,0.24104 1.40052,0.60074 1.51861,0.79931 0.11808,0.19858 0.31923,0.29644 0.447,0.21747 0.12777,-0.079 0.97499,0.21619 1.88271,0.6559 0.90772,0.4397 1.78945,0.79946 1.95938,0.79946 0.16994,0 0.52448,0.23813 0.78787,0.52917 0.26339,0.29104 0.62372,0.52917 0.80073,0.52917 0.503,0 2.59901,1.97163 2.47894,2.33183 -0.0794,0.23824 -0.26227,0.2138 -0.70136,-0.0937 z m -85.657477,-0.12142 c -0.0899,-0.14552 0.0151,-0.26458 0.23335,-0.26458 0.21828,0 0.47046,0.11906 0.5604,0.26458 0.0899,0.14552 -0.0151,0.26459 -0.23336,0.26459 -0.21828,0 -0.47046,-0.11907 -0.56039,-0.26459 z m 61.675367,-1.74366 c -0.21144,-0.55103 0.028,-0.91504 0.48629,-0.73919 0.21119,0.081 0.43418,-0.0797 0.53018,-0.38212 0.0911,-0.2871 0.47943,-0.60075 0.86291,-0.697 0.38349,-0.0962 0.99059,-0.40574 1.34912,-0.68776 0.35853,-0.28202 0.82204,-0.51277 1.03002,-0.51277 0.20798,0 0.9956,-0.27997 1.75026,-0.62217 0.75466,-0.34219 2.05711,-0.69081 2.89434,-0.77472 1.32315,-0.1326 1.55793,-0.0858 1.79524,0.35759 0.25252,0.47183 0.17476,0.51014 -1.03563,0.51014 -1.49281,0 -4.35101,0.81361 -5.03604,1.43355 -0.2533,0.22924 -0.77926,0.44318 -1.16878,0.47541 -0.39848,0.033 -0.771,0.2564 -0.85175,0.51082 -0.13554,0.42705 -1.74606,1.54897 -2.22355,1.54897 -0.12163,0 -0.2938,-0.18934 -0.38261,-0.42075 z m -79.086578,-0.80678 c -0.2742,-0.2742 0.0722,-0.62456 0.61748,-0.62456 0.3404,0 0.45556,0.12949 0.35295,0.39688 -0.15644,0.40767 -0.66996,0.52815 -0.97043,0.22768 z m -1.506502,-0.35997 c 0,-0.14552 0.119063,-0.26459 0.264584,-0.26459 0.14552,0 0.264583,0.11907 0.264583,0.26459 0,0.14552 -0.119063,0.26458 -0.264583,0.26458 -0.145521,0 -0.264584,-0.11906 -0.264584,-0.26458 z m 65.94741,-0.70183 c -0.41913,-0.17238 -0.41419,-1.15907 0.008,-1.67942 0.34969,-0.43059 2.04211,-0.70775 2.04211,-0.33443 0,0.12573 -0.14288,0.37147 -0.3175,0.54609 -0.24695,0.24695 -0.15875,0.3175 0.39687,0.3175 0.39291,0 0.71438,-0.14287 0.71438,-0.3175 0,-0.22961 0.08,-0.23747 0.28909,-0.0284 0.39702,0.39702 -0.13948,1.3723 -0.7526,1.36812 -0.2544,-0.002 -0.81972,0.057 -1.25629,0.13046 -0.43656,0.0735 -0.94257,0.0724 -1.12447,-0.002 z m -87.284739,-2.27068 c -0.103185,-0.16695 -0.05518,-0.3477 0.106672,-0.40165 0.161855,-0.0539 0.688951,-0.44425 1.171324,-0.86733 0.658504,-0.57757 0.898358,-0.67239 0.962588,-0.38055 0.120775,0.54877 0.615814,0.48635 0.521365,-0.0657 -0.05435,-0.31769 0.16111,-0.50732 0.716006,-0.63015 1.229713,-0.27222 3.571875,-0.26669 3.571875,0.008 0,0.37623 -0.862407,0.56884 -1.933171,0.43175 -0.529196,-0.0678 -1.02891,-0.0152 -1.110475,0.11676 -0.08157,0.13198 -0.323082,0.17289 -0.536702,0.0909 -0.239301,-0.0918 -0.388402,0.01 -0.388402,0.26415 0,0.26449 -0.340859,0.47713 -0.947166,0.59088 -0.520941,0.0977 -1.006397,0.33204 -1.07879,0.5207 -0.186262,0.48539 -0.832262,0.68243 -1.055124,0.32183 z m 113.676919,0.029 c 0,-0.29422 0.55318,-0.29202 1.02044,0.004 0.25334,0.16052 0.15601,0.22746 -0.33073,0.22746 -0.37934,0 -0.68971,-0.10418 -0.68971,-0.23151 z M 49.574002,164.0724 c -0.241837,-0.24184 0.426064,-0.8126 0.788257,-0.67362 0.19627,0.0753 0.580934,0.017 0.854807,-0.12955 0.51869,-0.2776 1.4015,0.0433 1.059626,0.38521 -0.239748,0.23975 -2.527162,0.59349 -2.70269,0.41796 z m -1.689262,-0.66792 c -0.391967,-0.47229 -0.08206,-0.74722 0.494474,-0.43867 0.252775,0.13528 0.534776,0.17078 0.62667,0.0789 0.09189,-0.0919 0.16708,0.0314 0.16708,0.27389 0,0.53217 -0.869727,0.59016 -1.288224,0.0859 z m 72.25383,-0.22164 c -0.24978,-0.0989 -0.76327,-0.18821 -1.1411,-0.19844 -0.37782,-0.0102 -1.04571,-0.19757 -1.48419,-0.41631 -0.43848,-0.21874 -1.1967,-0.44422 -1.68493,-0.50107 -0.48823,-0.0568 -0.93159,-0.23506 -0.98525,-0.39604 -0.0537,-0.16097 -0.32576,-0.29267 -0.60468,-0.29267 -0.27891,0 -0.50712,-0.1 -0.50712,-0.22212 0,-0.12216 -0.29765,-0.35773 -0.66145,-0.52349 -0.36381,-0.16576 -0.66146,-0.42673 -0.66146,-0.57994 0,-0.45479 0.82777,-0.63426 1.08098,-0.23436 0.12861,0.2031 0.23565,0.27724 0.23788,0.16474 0.002,-0.11249 0.29428,-0.0144 0.64901,0.21806 0.83957,0.55011 3.70808,1.2161 4.28476,0.9948 0.30344,-0.11644 0.38681,-0.072 0.25745,0.13734 -0.11619,0.188 -0.0219,0.30955 0.24008,0.30955 0.23726,0 0.60998,0.17859 0.82826,0.39687 0.21828,0.21829 0.50743,0.39688 0.64256,0.39688 0.3939,0 0.28302,-0.45822 -0.15119,-0.62485 -0.21828,-0.0838 -0.39688,-0.30556 -0.39688,-0.49288 0,-0.49754 -1.26226,-0.96703 -2.77812,-1.03332 -1.32302,-0.0579 -3.48952,-0.63446 -3.94685,-1.05044 -0.36835,-0.33506 0.64209,-0.62686 1.13763,-0.32854 0.23538,0.14171 0.93205,0.28428 1.54816,0.31681 0.86655,0.0458 1.08803,-0.0247 0.97815,-0.31099 -0.26314,-0.68575 -1.39846,-1.04844 -3.39194,-1.08358 -1.09017,-0.0192 -2.0686,-0.12143 -2.1743,-0.22712 -0.31344,-0.31344 -0.63314,-0.21962 -0.63314,0.1858 0,0.20789 0.17292,0.5509 0.38427,0.76225 0.21135,0.21136 0.31057,0.45799 0.22049,0.54807 -0.0901,0.0901 -0.0376,0.16379 0.11658,0.16379 0.15421,0 0.35777,0.20168 0.45236,0.44819 0.16163,0.42119 0.14216,0.42119 -0.32325,0 -0.27239,-0.24651 -0.62519,-0.44819 -0.784,-0.44819 -0.15882,0 -0.80429,-0.55065 -1.43438,-1.22367 -0.63009,-0.67301 -1.38398,-1.47668 -1.67532,-1.78593 -0.29134,-0.30925 -1.04946,-0.97899 -1.68473,-1.48832 -0.63526,-0.50932 -1.31112,-1.07487 -1.50192,-1.25677 -0.19079,-0.1819 -0.52786,-0.33073 -0.74904,-0.33073 -0.54072,0 -1.84113,-1.22976 -1.64167,-1.55248 0.0966,-0.15628 0.47974,-0.0965 0.9795,0.15281 0.68897,0.3437 0.85691,0.35118 1.04519,0.0465 0.15381,-0.24888 0.0614,-0.42324 -0.29405,-0.55472 -0.28511,-0.10547 -0.51838,-0.38122 -0.51838,-0.61278 0,-0.23156 -0.11174,-0.35195 -0.24832,-0.26754 -0.13658,0.0844 -0.34493,-7.2e-4 -0.46302,-0.18918 -0.21288,-0.33973 -1.5208,-1.25598 -1.79289,-1.25598 -0.0779,0 -0.1416,0.23812 -0.1416,0.52917 0,0.68743 -0.39728,0.67462 -0.889887,-0.0287 -0.21491,-0.30681 -0.50915,-0.48467 -0.65387,-0.39522 -0.14472,0.0894 -0.30833,0.027 -0.36357,-0.13872 -0.1361,-0.4083 -1.26767,-0.0335 -1.26767,0.41986 0,0.1929 -0.17859,0.41927 -0.39687,0.50303 -0.21829,0.0838 -0.39688,0.33463 -0.39688,0.55747 0,0.45082 -0.22582,0.50559 -0.73993,0.17946 -0.2735,-0.1735 -0.24669,-0.38689 0.13229,-1.05261 0.26144,-0.45924 0.55614,-0.83574 0.65489,-0.83666 0.0987,-9.2e-4 0.34147,-0.1505 0.5394,-0.3324 0.6961,-0.63976 1.50094,-0.98871 1.66566,-0.72219 0.42201,0.68283 0.68226,0.1551 0.56893,-1.15367 l -0.12235,-1.41284 0.956907,0.0581 c 0.5263,0.032 1.22873,-0.0658 1.56097,-0.21713 0.52677,-0.24002 0.60406,-0.4693 0.60406,-1.79196 0,-1.19102 0.0978,-1.55426 0.45561,-1.69155 0.39264,-0.15067 0.40178,-0.21222 0.0661,-0.44533 -0.25334,-0.17595 -0.28731,-0.31291 -0.0972,-0.39187 0.16075,-0.0668 0.23617,-0.41488 0.16759,-0.77361 -0.0963,-0.50395 -0.0124,-0.65315 0.36919,-0.65628 0.40745,-0.003 0.42576,-0.0471 0.10465,-0.25019 -0.21407,-0.13538 -0.30624,-0.32912 -0.20483,-0.43053 0.10141,-0.10141 0.36335,-0.0358 0.58209,0.14569 0.29622,0.24584 0.32923,0.45802 0.12937,0.83145 -0.14758,0.27576 -0.19003,0.50139 -0.0943,0.50139 0.0957,0 0.0207,0.18472 -0.16669,0.4105 -0.21114,0.25441 -0.39953,1.57945 -0.49542,3.48455 -0.11567,2.29824 -0.24831,3.10502 -0.52557,3.19679 -0.26701,0.0884 -0.32951,-0.0353 -0.22321,-0.44184 0.13101,-0.50099 0.0312,-0.56906 -0.88592,-0.60427 -0.56846,-0.0218 -1.17252,-0.0516 -1.34236,-0.0661 -0.532087,-0.0456 -0.42713,1.20011 0.15225,1.80709 1.15137,1.20623 3.46156,1.58234 2.38026,0.38752 -0.25112,-0.27749 -0.4077,-0.55142 -0.34796,-0.60874 0.0597,-0.0573 1.06112,-0.003 2.22529,0.11964 3.60917,0.38173 3.57188,0.38861 3.57188,-0.6588 v -0.91121 l -1.99994,0.0225 c -1.09995,0.0124 -2.12375,-0.1013 -2.2751,-0.25265 -0.35131,-0.35131 0.68561,-0.58794 2.767,-0.63144 l 1.53466,-0.0321 -0.16662,-0.75865 c -0.14174,-0.64533 -0.0844,-0.75864 0.38356,-0.75864 0.30261,0 0.55019,0.11907 0.55019,0.26459 0,0.14552 -0.11906,0.26458 -0.26458,0.26458 -0.14552,0 -0.26458,0.17141 -0.26458,0.3809 0,0.24381 0.33528,0.41046 0.93156,0.46302 1.04963,0.0925 1.26038,0.53843 0.35544,0.75206 -0.78104,0.18438 -1.24142,1.738 -0.68106,2.29836 0.29788,0.29788 0.66275,0.32473 1.7435,0.12829 0.75173,-0.13663 1.42076,-0.16108 1.48673,-0.0543 0.14491,0.23447 1.47059,0.0215 1.88283,-0.30241 0.19155,-0.15053 0.25404,-0.97315 0.17815,-2.34522 -0.10077,-1.82196 -0.0608,-2.09185 0.28975,-1.95733 0.31896,0.1224 0.40164,0.58505 0.38347,2.14586 -0.0243,2.08714 0.18829,2.51072 1.13576,2.26295 0.36977,-0.0967 0.4627,-0.0246 0.34929,0.27094 -0.085,0.22148 -0.38442,0.46281 -0.66539,0.53629 -0.35318,0.0923 -0.52312,0.38625 -0.55056,0.95211 -0.0218,0.45019 -0.0516,0.96735 -0.0662,1.14925 -0.0187,0.23384 0.3611,0.3069 1.29646,0.24938 1.21876,-0.075 1.28067,-0.051 0.78628,0.30464 -0.29516,0.21229 -0.83094,0.42749 -1.19063,0.47822 -0.42969,0.0606 -0.66702,0.27372 -0.692,0.6214 -0.0209,0.29105 -0.0507,0.678 -0.0662,0.8599 -0.0584,0.6873 -0.55729,0.29671 -0.55729,-0.43635 v -0.76708 l -1.78594,-0.0289 c -0.98227,-0.0159 -2.20266,-0.0577 -2.71198,-0.0928 -0.77437,-0.0534 -0.9395,0.0307 -1.00824,0.51351 -0.13795,0.96895 0.79048,1.21891 4.63556,1.24804 2.21302,0.0168 3.48219,0.12461 3.42737,0.29121 -0.0479,0.14553 -0.34886,0.27828 -0.66883,0.29501 -0.82719,0.0433 -0.94071,0.24598 -0.66875,1.19425 0.23712,0.82678 0.52557,1.0895 1.55893,1.41986 0.49143,0.15711 0.49614,0.18772 0.0661,0.42912 -0.65894,0.36992 -0.57263,0.76281 0.16758,0.76281 0.40808,0 0.67943,0.18672 0.76898,0.52916 0.0761,0.29104 0.32205,0.52917 0.54652,0.52917 0.36054,0 0.36481,-0.10372 0.0366,-0.88915 -0.20433,-0.48903 -0.44465,-1.23317 -0.53405,-1.65364 -0.17133,-0.8058 -0.47114,-4.89019 -0.42513,-5.79159 0.0391,-0.76678 0.0142,-2.78295 -0.0458,-3.70416 -0.035,-0.5373 0.071,-0.79375 0.32807,-0.79375 0.2975,0 0.38456,0.47288 0.40188,2.18281 0.0134,1.31794 -0.0847,2.18442 -0.24748,2.18686 -0.17971,0.003 -0.17843,0.0689 0.004,0.19844 0.15039,0.10691 0.283,0.49204 0.2947,0.85585 0.0215,0.67052 0.449,3.31996 0.71935,4.45876 0.0813,0.34227 0.28113,0.78304 0.44417,0.97949 0.16304,0.19645 0.21789,0.60467 0.12189,0.90714 -0.11445,0.36062 0.0602,0.95054 0.50731,1.71346 0.37502,0.63992 0.68185,1.39745 0.68185,1.68339 0,0.28594 0.18834,0.59216 0.41852,0.68049 0.63466,0.24354 2.04523,0.18468 2.4919,-0.10398 0.31042,-0.20061 0.24178,-0.25737 -0.31511,-0.26054 -0.97085,-0.006 -1.18172,-0.46532 -0.38078,-0.83025 0.80066,-0.36481 2.01881,-0.10271 2.01881,0.43437 0,0.21551 0.18662,0.39183 0.4147,0.39183 0.5278,0 0.26765,-1.01221 -0.40801,-1.5875 -0.47464,-0.40413 -1.2174,-3.50814 -0.94495,-3.94897 0.0813,-0.13154 0.035,-0.2791 -0.10286,-0.32791 -0.13787,-0.0488 -0.31428,-0.44593 -0.39203,-0.88249 -0.28147,-1.58052 -0.78482,-3.44507 -0.99639,-3.69094 -0.11896,-0.13824 -0.2163,-0.53302 -0.2163,-0.87729 0,-0.34426 -0.12884,-0.86668 -0.28631,-1.16092 -0.15747,-0.29423 -0.33839,-0.82219 -0.40205,-1.17323 -0.0892,-0.49206 -1e-4,-0.63825 0.38916,-0.63825 0.37408,0 0.55293,0.25707 0.69031,0.99219 0.10198,0.5457 0.27971,1.11125 0.39497,1.25677 0.11525,0.14552 0.27213,0.6813 0.34861,1.19063 0.0765,0.50932 0.21255,1.40229 0.30237,1.98437 0.0898,0.58208 0.35265,1.46229 0.58409,1.95601 0.23143,0.49372 0.4369,1.17682 0.45659,1.518 0.0276,0.47719 0.14904,0.58443 0.52654,0.46476 0.26991,-0.0856 1.01746,-0.008 1.66124,0.17216 0.64377,0.18024 1.23831,0.2599 1.3212,0.17701 0.23244,-0.23244 -0.7674,-1.45653 -1.31015,-1.60401 -0.39176,-0.10646 -0.42992,-0.23004 -0.20235,-0.65527 0.33348,-0.62311 -0.12018,-3.385 -0.65956,-4.01536 -0.18787,-0.21956 -0.39603,-0.6995 -0.46259,-1.06653 -0.0665,-0.36703 -0.34442,-1.08035 -0.61749,-1.58517 -0.56647,-1.04722 -1.02084,-2.35198 -1.2871,-3.69597 -0.1009,-0.50933 -0.35218,-1.11775 -0.5584,-1.35206 -0.29278,-0.33267 -0.3121,-0.59131 -0.0882,-1.1803 0.15773,-0.41486 0.20111,-1.05658 0.0964,-1.42607 -0.1047,-0.36948 -0.17084,-0.76108 -0.14697,-0.87022 0.0239,-0.10914 -0.0757,-0.19844 -0.22118,-0.19844 -0.14552,0 -0.26458,-0.23221 -0.26458,-0.51602 0,-0.28381 -0.16316,-0.61123 -0.36259,-0.7276 -0.19942,-0.11637 -0.35678,-0.44971 -0.3497,-0.74075 0.007,-0.29104 -0.008,-0.9784 -0.0343,-1.52746 l -0.0472,-0.99828 -0.67498,0.44226 c -1.31294,0.86027 -1.45532,1.56642 -0.79349,3.93556 0.82508,2.9535 1.19899,5.47606 0.87261,5.88698 -0.18637,0.23465 -0.1462,0.33073 0.13828,0.33073 0.22053,0 0.47323,0.18833 0.56156,0.41851 0.22654,0.59034 0.20879,0.63982 -0.22948,0.63982 -0.80579,0 -1.74596,-3.08751 -1.76699,-5.80278 -0.007,-0.91177 -0.11941,-1.34097 -0.35101,-1.34097 -0.37861,0 -0.6578,0.80849 -0.6633,1.92082 -0.002,0.40161 -0.24174,0.93408 -0.53278,1.18328 -0.53978,0.46217 -0.74456,1.029 -0.26459,0.73236 0.16326,-0.1009 0.26459,0.3565 0.26459,1.19441 0,1.15333 -0.0698,1.34352 -0.46302,1.26225 -0.28717,-0.0593 -0.43396,-0.29281 -0.3865,-0.61471 0.0421,-0.28547 0.14038,-1.3516 0.21842,-2.36918 0.2021,-2.63496 0.89108,-5.72539 1.56846,-7.03529 0.69913,-1.35197 2.56779,-3.68227 2.9528,-3.68227 0.20592,0 0.30081,-0.11906 0.21088,-0.26458 -0.0899,-0.14553 -0.0304,-0.26459 0.13229,-0.26459 0.1627,0 0.22756,-0.11044 0.14413,-0.24543 -0.0834,-0.13498 0.3858,-0.63142 1.04272,-1.10318 0.65692,-0.47177 1.1944,-0.9929 1.1944,-1.15808 0,-0.39333 1.70955,-2.25581 2.07059,-2.25581 0.56311,0 0.54899,0.47742 -0.0342,1.15612 -0.32892,0.38278 -0.68217,0.69597 -0.78502,0.69597 -0.34319,0 -1.25137,0.90677 -1.25137,1.24942 0,0.18594 -0.15948,0.33808 -0.35441,0.33808 -0.19492,0 -0.49002,0.29765 -0.65578,0.66145 -0.16576,0.36381 -0.48253,0.66146 -0.70393,0.66146 -0.2214,0 -0.40255,0.1603 -0.40255,0.35623 0,0.19592 -0.19281,0.74273 -0.42847,1.21512 -0.32514,0.65176 -0.36106,0.99656 -0.14892,1.42971 0.36163,0.73842 0.56624,1.48661 0.70859,2.59112 0.0631,0.48956 0.33879,1.54496 0.61265,2.34532 0.27387,0.80037 0.44541,1.60804 0.3812,1.79484 -0.0642,0.18679 0.0156,0.49912 0.17742,0.69406 0.16179,0.19495 0.21523,0.56015 0.11875,0.81156 -0.0965,0.25141 -0.0681,0.5344 0.063,0.62885 0.31619,0.22777 0.89704,1.91848 0.89704,2.61105 0,0.30231 0.35719,1.22868 0.79375,2.0586 0.43657,0.82992 0.79375,1.78748 0.79375,2.12792 0,0.34044 0.11907,0.69256 0.26459,0.7825 0.14552,0.0899 0.26458,0.45634 0.26458,0.81423 0,0.35789 0.30802,1.23979 0.68449,1.95977 0.64708,1.23753 0.71576,1.28904 1.25677,0.94267 0.31475,-0.20152 0.92947,-0.4054 1.36603,-0.45307 0.43656,-0.0477 0.8551,-0.16798 0.93007,-0.26734 0.15926,-0.21104 2.90639,-0.55931 2.90639,-0.36846 0,0.0709 -0.32742,0.43525 -0.7276,0.80967 -0.49398,0.46218 -0.91355,0.63522 -1.30671,0.53891 -0.3185,-0.078 -0.65081,-0.0258 -0.73847,0.11602 -0.0877,0.14183 -0.75857,0.33737 -1.49091,0.43451 -1.27161,0.16869 -1.32415,0.20772 -1.16772,0.86757 0.0901,0.38001 0.39651,0.85429 0.68094,1.05394 0.28442,0.19965 0.51714,0.52707 0.51714,0.7276 0,0.45699 0.0656,0.45486 1.25128,-0.0406 1.17172,-0.48958 1.89973,-0.33583 1.37926,0.29129 -0.1867,0.22497 -0.73589,0.57467 -1.22042,0.77712 -0.48453,0.20245 -0.88096,0.54316 -0.88096,0.75713 0,0.3211 0.17329,0.34197 0.99219,0.1195 0.5457,-0.14825 1.19611,-0.45075 1.44535,-0.67222 0.25417,-0.22584 0.65007,-0.32711 0.90155,-0.23061 0.4106,0.15756 0.40489,0.21257 -0.0677,0.65289 -0.4812,0.44831 -1.34853,0.97546 -2.60989,1.58626 -0.29104,0.14094 -1.18401,0.45518 -1.98437,0.69832 -0.80037,0.24315 -1.65175,0.61767 -1.89197,0.83227 -0.31264,0.27931 -0.48946,0.3049 -0.62225,0.09 -0.18477,-0.29897 -2.39643,-0.31783 -2.90974,-0.0248 -0.37304,0.21294 -4.28938,0.19542 -4.83753,-0.0216 z m 10.62461,-2.0628 c 0.12696,-0.003 0.0674,-0.2032 -0.13227,-0.44384 -0.19971,-0.24063 -0.33381,-0.62759 -0.29799,-0.85989 0.11325,-0.73451 -0.31963,-1.0757 -1.88059,-1.48228 -1.97439,-0.51427 -2.0733,-0.50424 -1.97328,0.20001 0.0583,0.41021 0.29021,0.61834 0.74601,0.66938 1.34101,0.15017 1.85208,0.34164 1.85208,0.69386 0,0.47743 -0.93064,0.70675 -1.32272,0.32594 -0.23309,-0.22639 -0.28732,-0.17013 -0.22075,0.22904 0.13372,0.80173 0.93654,1.15351 2.04458,0.89591 0.52475,-0.122 1.05797,-0.22466 1.18493,-0.22813 z M 115.7211,156.1548 c -0.25134,-1.33979 -0.30089,-1.39108 -1.34395,-1.39108 -0.50074,0 -0.91043,-0.13364 -0.91043,-0.29698 0,-0.20784 -0.11678,-0.20006 -0.38905,0.0259 -0.26395,0.21906 -0.81696,0.26403 -1.71979,0.13986 -0.84074,-0.11563 -1.33074,-0.0846 -1.33074,0.0843 0,0.14705 0.14883,0.32193 0.33073,0.38863 0.23848,0.0874 0.25089,0.20663 0.0445,0.42734 -0.21356,0.22836 -0.46547,0.12683 -0.99219,-0.39988 -0.38828,-0.38828 -0.70596,-0.81581 -0.70596,-0.95008 0,-0.13426 -0.10557,-0.17887 -0.2346,-0.0991 -0.12903,0.0797 -0.38174,-0.0323 -0.56157,-0.24897 -0.17982,-0.21668 -0.50089,-0.39396 -0.71348,-0.39396 -0.21259,0 -0.33631,-0.14883 -0.27492,-0.33073 0.0614,-0.1819 -0.31566,-0.59491 -0.83786,-0.91779 -1.16459,-0.72007 -1.34633,-0.73617 -1.34633,-0.11925 0,0.27244 0.53202,0.86637 1.21614,1.35768 0.80549,0.57844 1.10865,0.9398 0.89781,1.07011 -0.22797,0.14088 -0.23521,0.24813 -0.0255,0.37773 0.16105,0.0995 0.29283,0.0549 0.29283,-0.0992 0,-0.50726 0.38672,-0.27931 1.05545,0.62211 0.57154,0.77043 0.85127,0.90761 2.11667,1.03805 1.65655,0.17076 2.9787,0.4181 3.14987,0.58927 0.0639,0.0639 0.64539,0.1162 1.29217,0.1162 h 1.17598 z m -6.48771,-3.47731 c 0,-0.4091 -1.27795,-1.08942 -1.72451,-0.91805 -0.35179,0.13499 -0.29456,0.2536 0.31686,0.65673 0.80066,0.5279 1.40765,0.64058 1.40765,0.26132 z m 5.5522,-2.23913 c -0.007,-1.059 -0.36684,-1.26156 -2.40341,-1.35496 -1.07699,-0.0494 -2.17981,-0.13098 -2.4507,-0.1813 -0.60191,-0.11182 -0.98056,0.73401 -0.68447,1.52898 0.15496,0.41606 0.52512,0.6095 1.42425,0.74434 0.66819,0.1002 1.44143,0.11028 1.71832,0.0224 0.27689,-0.0879 0.57562,-0.043 0.66385,0.0998 0.29968,0.4849 1.73665,-0.22788 1.73216,-0.85921 z m -6.67668,0.45443 c 0.43509,-0.1166 0.59531,-0.35614 0.59531,-0.89003 0,-1.12579 -0.51922,-1.37342 -2.61004,-1.24479 -1.01914,0.0627 -1.96805,-0.001 -2.10868,-0.14171 -0.16455,-0.16455 -0.24151,-0.009 -0.21589,0.43528 0.0248,0.43047 0.23467,0.75292 0.55664,0.85524 0.28425,0.0903 0.68655,0.33399 0.89401,0.54144 0.20745,0.20745 0.52145,0.32182 0.69779,0.25416 0.17633,-0.0677 0.4884,-0.0168 0.69349,0.11302 0.43994,0.2785 0.69731,0.2918 1.49737,0.0774 z m -62.0448,12.13129 c -0.637203,-0.10177 -0.840464,-0.85202 -0.230834,-0.85202 0.35528,0 1.136813,0.73684 0.929995,0.87682 -0.05712,0.0387 -0.371739,0.0275 -0.699161,-0.0248 z m 98.00102,-0.18427 c -0.0769,-0.20046 0.002,-0.47175 0.17513,-0.60285 0.66401,-0.50246 2.75907,-1.12286 3.76343,-1.11443 l 1.04949,0.009 -0.62462,0.52036 c -0.34355,0.2862 -0.84515,0.52037 -1.11469,0.52037 -0.26953,0 -1.07929,0.23225 -1.79947,0.51612 -1.07292,0.4229 -1.33467,0.45029 -1.44927,0.15163 z m 25.98384,-0.25956 c -0.094,-0.0972 -0.61293,-0.2315 -1.15324,-0.29852 -0.5403,-0.067 -1.19972,-0.23817 -1.46538,-0.38034 -0.26565,-0.14218 -0.76621,-0.2585 -1.11236,-0.2585 -0.65319,0 -2.27963,-1.44733 -1.97206,-1.7549 0.0951,-0.0951 0.24799,0.0227 0.33975,0.26182 0.10155,0.26465 0.46631,0.43475 0.93227,0.43475 0.42099,0 0.76544,0.12609 0.76544,0.28019 0,0.15411 0.11477,0.20927 0.25504,0.12258 0.14027,-0.0867 0.94394,0.006 1.78594,0.20516 1.51192,0.35829 3.13314,0.4338 3.64756,0.16989 0.46382,-0.23795 2.06397,-0.12656 2.15891,0.15029 0.0503,0.14666 -0.14858,0.41654 -0.44192,0.59973 -0.60459,0.37758 -3.47943,0.7372 -3.73995,0.46785 z M 76.954212,162.0602 c 0,-0.18141 0.922741,-0.63774 2.050521,-1.01405 1.53949,-0.5137 2.38022,-0.64996 3.37344,-0.54678 0.7276,0.0756 1.50151,0.13328 1.71979,0.12818 0.74269,-0.0173 1.5875,0.23096 1.5875,0.46657 0,0.12919 -0.62508,0.23286 -1.38906,0.23038 -1.25653,-0.004 -3.95211,0.20963 -4.96094,0.3933 -0.21828,0.0397 -0.56409,0.1766 -0.76847,0.30413 -0.60185,0.37555 -1.612781,0.39954 -1.612781,0.0383 z m 17.890961,-2.06902 c -0.71863,-0.35112 -0.94318,-0.58523 -0.74828,-0.78014 0.15316,-0.15315 0.21907,-0.43325 0.14648,-0.62242 -0.17896,-0.46638 0.3995,-1.49862 0.72655,-1.2965 0.14413,0.0891 0.18967,0.39007 0.10118,0.66887 -0.10786,0.33983 -0.0349,0.5069 0.22143,0.5069 0.60485,0 0.94977,-0.60158 1.03225,-1.80037 0.098,-1.42397 0.44266,-1.29539 0.95961,0.35796 0.22529,0.72057 0.55413,1.39913 0.73074,1.50793 0.17834,0.10986 0.25451,0.4525 0.17132,0.77062 l -0.14979,0.57281 -0.50607,-0.62498 c -0.40062,-0.49474 -0.5986,-0.56601 -0.95008,-0.34199 -0.24421,0.15565 -0.40854,0.52605 -0.3652,0.82311 0.11243,0.77061 -0.20064,0.8296 -1.37014,0.2582 z m 27.391177,-0.0218 c -0.44288,-0.53364 0.0672,-0.99165 1.04032,-0.93411 1.09849,0.065 1.97203,0.46128 1.66169,0.75391 -0.42003,0.39607 -2.41258,0.52895 -2.70201,0.1802 z m -16.70714,-0.28882 c 0,-0.2304 0.18852,-0.41892 0.41892,-0.41892 0.46724,0 0.38587,0.56958 -0.10473,0.73312 -0.1728,0.0576 -0.31419,-0.0838 -0.31419,-0.3142 z m 33.2095,0.0845 c -0.0806,-0.20993 -0.0426,-1.33182 0.0843,-2.49309 0.2726,-2.49454 0.19642,-2.82125 -0.61063,-2.61869 -0.48755,0.12236 -0.62347,0.0235 -0.72941,-0.53074 -0.0716,-0.37462 0.0162,-0.88132 0.19509,-1.126 0.29622,-0.40511 0.35526,-0.3874 0.66055,0.19813 0.44175,0.84725 0.39022,0.81161 0.89391,0.61832 0.32653,-0.1253 0.36771,-0.25833 0.15814,-0.51084 -0.32095,-0.38673 0.15037,-3.72504 0.56183,-3.97933 0.30599,-0.18912 0.30994,-1.1737 0.005,-1.1737 -0.12787,0 -0.38776,0.38695 -0.57754,0.8599 -0.18977,0.47294 -0.6211,1.19664 -0.95849,1.60822 -0.51358,0.6265 -0.64046,0.67793 -0.77937,0.31593 -0.14458,-0.37677 0.79951,-2.68325 1.24787,-3.04863 0.0893,-0.0728 0.27881,-0.48948 0.42117,-0.92605 0.28354,-0.86952 1.40801,-1.30682 1.40801,-0.54756 0,0.2284 -0.11907,0.41527 -0.26459,0.41527 -0.14552,0 -0.26458,0.23813 -0.26458,0.52917 0,0.29398 0.17639,0.52917 0.39687,0.52917 0.50074,0 0.52134,1.0401 0.0434,2.19131 -0.1944,0.46827 -0.38141,1.32764 -0.41558,1.90973 -0.28414,4.84053 -0.56778,7.06448 -0.97599,7.65246 -0.28439,0.40964 -0.3817,0.43438 -0.49965,0.12702 z m -34.16729,-0.88765 c -0.0811,-0.21131 -0.0703,-0.50896 0.0239,-0.66145 0.30816,-0.49862 0.66929,-0.29132 0.66929,0.3842 0,0.71726 -0.4546,0.89907 -0.69321,0.27725 z m 44.34947,-0.0127 c 0,-0.24253 0.12799,-0.3983 0.28443,-0.34616 0.15643,0.0521 0.28442,0.20792 0.28442,0.34616 0,0.13825 -0.12799,0.29402 -0.28442,0.34617 -0.15644,0.0521 -0.28443,-0.10363 -0.28443,-0.34617 z m -25.31722,-0.98097 c -0.41139,-0.5304 -0.66666,-1.3075 -0.79193,-2.41084 -0.0631,-0.55582 -0.34564,-1.38925 -0.62785,-1.85209 -0.5302,-0.86954 -0.76967,-2.30632 -0.2505,-1.50297 0.17098,0.26458 0.25783,0.28663 0.26053,0.0661 0.002,-0.18191 -0.23408,-0.56886 -0.52512,-0.8599 -0.49604,-0.49604 -0.72314,-1.8345 -0.371,-2.18663 0.39262,-0.39263 0.90017,0.19232 0.90017,1.03745 0,0.50098 0.19437,1.28675 0.43194,1.74615 0.23756,0.4594 0.45579,1.13851 0.48494,1.50913 0.0292,0.37062 0.19473,0.93865 0.36794,1.2623 0.26606,0.49714 0.2524,0.56445 -0.0881,0.4338 -0.57572,-0.22093 -0.49889,0.24396 0.10237,0.61945 0.27796,0.17359 0.58766,0.69025 0.68823,1.14813 0.20354,0.92669 -0.15604,1.53862 -0.58165,0.98987 z m 7.4408,-0.76639 c -0.21409,-0.34641 0.33808,-0.75632 1.02663,-0.76213 0.26422,-0.002 0.71521,-0.12971 1.00218,-0.28329 0.62105,-0.33238 1.56011,-0.0925 1.56011,0.39851 0,0.63554 -3.2355,1.21875 -3.58892,0.64691 z m 4.11809,-1.79427 c 0,-0.12888 0.17786,-0.57537 0.39524,-0.99218 0.21739,-0.41682 0.39598,-0.94346 0.39688,-1.1703 0.002,-0.52878 0.69934,-1.49157 0.92023,-1.27069 0.41479,0.41479 0.0576,2.4982 -0.54188,3.16062 -0.47359,0.5233 -1.17047,0.68558 -1.17047,0.27255 z M 95.527513,154.0392 c 0.19419,-0.23413 0.14997,-0.37432 -0.15496,-0.49133 -0.23467,-0.09 -0.42667,-0.26632 -0.42667,-0.3917 0,-0.12539 0.1699,-0.16277 0.37757,-0.0831 0.27699,0.1063 0.33864,-0.004 0.23145,-0.41387 -0.0878,-0.33563 0.0397,-0.76413 0.31925,-1.073 0.54697,-0.6044 1.01427,-0.43479 0.78575,0.28521 -0.0878,0.27654 -0.16599,0.96744 -0.17383,1.53533 -0.0125,0.90754 -0.0879,1.02814 -0.62226,0.99629 -0.45147,-0.0269 -0.53805,-0.12059 -0.3363,-0.36384 z m 37.055357,-0.78527 c -0.59423,-0.0769 -0.8599,-0.25208 -0.8599,-0.56699 0,-0.35589 0.24632,-0.46109 1.12448,-0.48026 0.61847,-0.0135 1.51143,-0.11343 1.98438,-0.22206 0.96023,-0.22056 1.12249,0.0791 0.39687,0.73306 -0.55509,0.50024 -1.47831,0.68736 -2.64583,0.53625 z m 0.36173,-1.81217 c -0.11167,-0.291 0.10999,-0.52344 0.75694,-0.79375 1.01999,-0.42618 2.51935,-0.51162 2.51935,-0.14355 0,0.26248 -1.47174,0.84719 -1.6596,0.65934 -0.0644,-0.0644 -0.26768,0.0644 -0.45176,0.28619 -0.43103,0.51935 -0.96392,0.51559 -1.16493,-0.008 z m -2.93006,-0.4484 c 0.0986,-0.32742 0.50437,-0.9525 0.90167,-1.38906 0.3973,-0.43656 1.11412,-1.50813 1.59293,-2.38125 0.79733,-1.45395 1.27543,-1.9742 1.99196,-2.16755 0.14552,-0.0393 0.74083,-0.17441 1.32291,-0.30032 0.58209,-0.12591 1.59412,-0.46849 2.24896,-0.76128 2.81081,-1.25678 3.175,-1.34816 3.175,-0.79665 0,0.37453 -1.32743,1.24767 -1.89682,1.24767 -0.19799,0 -0.80038,0.23605 -1.33865,0.52454 -0.53828,0.2885 -1.16159,0.45436 -1.38515,0.36857 -0.26555,-0.1019 -0.40646,-0.003 -0.40646,0.28584 0,0.26233 -0.1881,0.42268 -0.46302,0.39472 -1.23599,-0.12573 -1.69226,0.0428 -2.00753,0.74144 -0.54792,1.21422 -1.5359,2.71198 -1.78892,2.71198 -0.13115,0 -0.23845,0.22538 -0.23845,0.50086 0,0.46091 -0.65419,0.96361 -1.12448,0.86406 -0.10914,-0.0231 -0.19843,0.13659 -0.19843,0.35487 0,0.21828 -0.12709,0.39687 -0.28242,0.39687 -0.16961,0 -0.21079,-0.23778 -0.1031,-0.59531 z m -9.13949,-2.97656 c 0,-0.71931 0.24748,-0.83732 0.73454,-0.35026 0.22726,0.22726 0.23279,0.40569 0.0205,0.66146 -0.44981,0.54199 -0.75506,0.41618 -0.75506,-0.3112 z m -22.650967,-2.75618 c 0.016,-0.71554 0.13597,-1.40015 0.26659,-1.52136 0.13762,-0.12769 0.17725,0.0246 0.0942,0.36225 -0.0793,0.32258 -0.008,0.62813 0.15937,0.68457 0.21978,0.074 0.21084,0.21322 -0.0327,0.50832 -0.18441,0.2235 -0.26097,0.60005 -0.17013,0.83678 0.0908,0.23672 0.05,0.43041 -0.0907,0.43041 -0.1407,0 -0.24274,-0.58544 -0.22674,-1.30097 z m 42.362427,-0.022 c 0.0899,-0.14552 0.27556,-0.26458 0.41249,-0.26458 0.13694,0 0.24897,0.11906 0.24897,0.26458 0,0.14552 -0.18562,0.26459 -0.41249,0.26459 -0.22687,0 -0.3389,-0.11907 -0.24897,-0.26459 z m -25.68462,-2.02728 c -0.38749,-0.13988 0.0619,-3.44268 0.56641,-4.16299 0.20882,-0.29813 0.37967,-0.6864 0.37967,-0.86283 0,-0.43916 0.43228,-1.38849 1.06534,-2.33961 0.29058,-0.43656 0.5982,-0.99387 0.68361,-1.23846 0.1754,-0.50235 0.89688,-0.87311 0.89688,-0.4609 0,0.14762 -0.29765,0.82754 -0.66146,1.51094 -0.3638,0.6834 -0.66145,1.43201 -0.66145,1.66358 0,0.23156 -0.0807,0.50169 -0.17926,0.60028 -0.25841,0.25841 -1.40228,3.60744 -1.5401,4.5091 -0.13411,0.87742 -0.16412,0.92007 -0.54964,0.78089 z m -6.22331,-0.5524 c -0.18505,-1.43242 0.41636,-4.12515 0.88634,-3.96849 0.4717,0.15724 0.51375,1.25651 0.0481,1.25651 -0.22595,0 -0.34486,0.10674 -0.26423,0.2372 0.21455,0.34715 -0.14735,2.67321 -0.41591,2.67321 -0.12574,0 -0.24016,-0.0893 -0.25426,-0.19843 z m -10.531267,-1.15232 c 0.069,-1.52356 0.22833,-1.89719 0.65728,-1.5412 0.42608,0.35362 0.50418,1.03987 0.11834,1.03987 -0.14095,0 -0.19507,0.15952 -0.12025,0.35448 0.0748,0.19497 -0.0512,0.50987 -0.28001,0.69977 -0.3653,0.30317 -0.41108,0.23574 -0.37536,-0.55292 z m 0.37044,-2.35341 c 0.0899,-0.14553 0.27556,-0.26459 0.41249,-0.26459 0.13693,0 0.24897,0.11906 0.24897,0.26459 0,0.14552 -0.18562,0.26458 -0.41249,0.26458 -0.22687,0 -0.3389,-0.11906 -0.24897,-0.26458 z m 5.688537,-1.28233 c 0,-0.58917 1.78462,-2.49477 2.13411,-2.27877 0.13593,0.084 0.247,0.23501 0.24682,0.33556 -5.7e-4,0.32167 -1.24098,1.63804 -1.54351,1.63804 -0.1604,0 -0.22311,0.17859 -0.13935,0.39687 0.0964,0.25131 -0.004,0.39688 -0.27288,0.39688 -0.23702,0 -0.42519,-0.21622 -0.42519,-0.48858 z m 5.55626,0.0812 c 0,-0.50376 0.95355,-2.40701 1.31914,-2.63296 0.1476,-0.0912 0.26836,-0.37128 0.26836,-0.62236 0,-0.44139 1.23577,-1.36435 1.82676,-1.36435 0.49646,0 0.32401,0.39503 -0.64319,1.47329 -0.5132,0.57214 -1.19781,1.60092 -1.52135,2.28618 -0.57302,1.21364 -1.24972,1.67943 -1.24972,0.8602 z m -10.847917,-0.073 c 0,-0.14007 0.24084,-0.53575 0.53519,-0.8793 l 0.5352,-0.62462 -0.0722,0.79149 c -0.0462,0.50698 -0.23861,0.82305 -0.5352,0.87929 -0.25466,0.0483 -0.46302,-0.0268 -0.46302,-0.16686 z m 0.90123,-1.94093 c -0.10358,-0.1676 0.0382,-0.47366 0.315117,-0.68014 0.27689,-0.20647 0.47367,-0.48607 0.43729,-0.62132 -0.0364,-0.13525 0.11245,-0.2459 0.33073,-0.2459 0.59629,0 0.47728,0.73257 -0.15142,0.93211 -0.32965,0.10463 -0.49123,0.32276 -0.40518,0.547 0.17136,0.44656 -0.25831,0.50225 -0.526537,0.0682 z m 1.215427,-1.80653 c -0.32527,-0.20577 -0.18025,-0.45566 0.80375,-1.38502 1.33922,-1.26484 3.85705,-2.68324 4.2891,-2.41622 0.16512,0.10206 0.20277,0.0475 0.0915,-0.13254 -0.11635,-0.18825 0.0954,-0.41414 0.55047,-0.58714 0.40675,-0.15465 1.09852,-0.43738 1.53727,-0.62829 2.07431,-0.90258 3.66002,-1.45042 5.07472,-1.75324 1.43146,-0.3064 2.47884,-0.77588 1.73095,-0.77588 -0.19872,0 -0.30024,-0.39195 -0.27413,-1.05834 0.0228,-0.58208 0.1556,-1.05833 0.29508,-1.05833 0.13948,0 0.10664,-0.17708 -0.073,-0.39351 -0.18047,-0.21745 -0.24298,-0.60217 -0.13973,-0.85989 0.10277,-0.25652 0.23421,-1.41889 0.29208,-2.58305 0.10501,-2.11224 0.4782,-4.4212 0.79829,-4.93913 0.093,-0.15046 0.51263,-0.20485 0.93253,-0.12087 0.65898,0.1318 0.80847,0.0461 1.09239,-0.62586 l 0.32893,-0.77856 0.65545,0.50058 c 0.64386,0.49174 0.64865,0.52313 0.27087,1.777 -0.21151,0.70203 -0.39218,2.28845 -0.40149,3.52538 -0.01,1.31344 -0.15944,2.50684 -0.35952,2.86891 -0.18843,0.34097 -0.2725,0.89922 -0.18683,1.24055 0.0857,0.34133 0.0497,0.68612 -0.0798,0.7662 -0.36337,0.22457 -0.90448,-0.58198 -0.71745,-1.06938 0.0916,-0.23857 0.0486,-0.57582 -0.0955,-0.74942 -0.37756,-0.45494 -0.20181,-4.97788 0.19862,-5.11136 0.17534,-0.0584 0.3188,-0.28196 0.3188,-0.49671 0,-0.21474 -0.11906,-0.31685 -0.26458,-0.22692 -0.14552,0.0899 -0.26459,-0.0221 -0.26459,-0.24896 0,-0.68052 -0.63059,-0.4634 -1.11217,0.38293 -0.38962,0.68471 -0.39647,0.79208 -0.0505,0.79208 0.2201,0 0.33066,0.11249 0.24568,0.24999 -0.085,0.1375 -0.21449,1.06023 -0.2878,2.05053 -0.0733,0.99027 -0.188,2.21723 -0.25486,2.72655 -0.17222,1.312 -0.17227,3.21874 -9e-5,3.39092 0.0801,0.0801 1.24498,-0.13986 2.58864,-0.48879 2.54103,-0.65986 4.7121,-0.80743 7.2836,-0.49508 1.58177,0.19214 3.31787,-0.12252 4.04378,-0.7329 0.52601,-0.44229 0.72128,-0.44067 1.17168,0.01 0.38496,0.38495 0.0615,0.96195 -0.53926,0.96195 -0.16459,0 -0.45855,0.29765 -0.65325,0.66145 -0.43419,0.81129 -0.64798,0.82673 -1.16796,0.0844 -0.39212,-0.55982 -0.42014,-0.56271 -0.93553,-0.0963 -0.47209,0.42724 -0.54919,0.43424 -0.69172,0.0628 -0.13243,-0.3451 -0.56024,-0.4046 -2.45291,-0.3411 -1.26088,0.0423 -2.76875,0.20649 -3.35084,0.36486 -0.58208,0.15838 -2.01083,0.478 -3.175,0.71027 -1.16416,0.23227 -2.47385,0.55055 -2.91041,0.70729 -0.43657,0.15673 -1.05574,0.27388 -1.37595,0.26033 -0.32021,-0.0136 -0.65466,0.0926 -0.74322,0.23589 -0.0886,0.14329 -0.44462,0.26053 -0.79125,0.26053 -0.34663,0 -0.70501,0.12101 -0.79642,0.2689 -0.0914,0.1479 -0.28329,0.19652 -0.42643,0.10806 -0.36138,-0.22334 -3.14277,1.17423 -3.14277,1.57916 0,0.18134 -0.29766,0.58851 -0.66146,0.90484 -0.36381,0.31632 -0.66147,0.5018 -0.66147,0.41219 0,-0.0896 -0.19796,4.7e-4 -0.4399,0.20018 -0.34295,0.2831 -0.46444,0.29024 -0.55122,0.0324 -0.17975,-0.53408 -0.99371,-0.3813 -1.762,0.33073 -0.39255,0.3638 -0.95275,0.66146 -1.24488,0.66146 -0.29213,0 -0.45756,0.11906 -0.36763,0.26458 0.0899,0.14552 0.0374,0.26459 -0.11667,0.26459 -0.15411,0 -0.2802,0.17859 -0.2802,0.39687 0,0.45568 -0.22847,0.49531 -0.79375,0.13771 z m 12.60668,-2.84969 c 0.19279,-0.73341 0.97353,-1.60618 1.52073,-1.69999 0.27575,-0.0473 0.98486,-0.53243 1.5758,-1.07813 1.11806,-1.03247 1.94079,-1.3176 1.65532,-0.57368 -0.0883,0.23019 -0.1606,0.52135 -0.1606,0.64702 0,0.2287 -0.71964,0.67018 -2.29452,1.40766 -0.46163,0.21616 -1.04087,0.70063 -1.28721,1.07658 -0.50909,0.77699 -1.19519,0.92687 -1.00952,0.22054 z"
       id="path2" />
  </g>
</svg>
