<?xml version="1.0" encoding="UTF-8" standalone="no"?>
<!-- Created with Inkscape (http://www.inkscape.org/) -->

<svg
   width="197.3456mm"
   height="58.342178mm"
   viewBox="0 0 197.34558 58.342182"
   version="1.1"
   id="svg1"
   inkscape:version="1.4.1-rc (06eac75fbf, 2025-03-29)"
   sodipodi:docname="seamonster.svg"
   xmlns:inkscape="http://www.inkscape.org/namespaces/inkscape"
   xmlns:sodipodi="http://sodipodi.sourceforge.net/DTD/sodipodi-0.dtd"
   xmlns="http://www.w3.org/2000/svg"
   xmlns:svg="http://www.w3.org/2000/svg">
  <sodipodi:namedview
     id="namedview1"
     pagecolor="#ffffff"
     bordercolor="#000000"
     borderopacity="0.25"
     inkscape:showpageshadow="2"
     inkscape:pageopacity="0.0"
     inkscape:pagecheckerboard="0"
     inkscape:deskcolor="#d1d1d1"
     inkscape:document-units="mm"
     inkscape:zoom="0.72248176"
     inkscape:cx="372.32774"
     inkscape:cy="110.03738"
     inkscape:window-width="1850"
     inkscape:window-height="1016"
     inkscape:window-x="0"
     inkscape:window-y="0"
     inkscape:window-maximized="1"
     inkscape:current-layer="layer1" />
  <defs
     id="defs1" />
  <g
     inkscape:label="Layer 1"
     inkscape:groupmode="layer"
     id="layer1"
     transform="translate(-7.4083143,-119.06283)">
    <path
       d="m 117.1063,177.1547 c -0.0781,-0.1264 -0.77986,-0.20822 -1.55939,-0.18181 -2.00251,0.0679 -4.27816,-0.33497 -4.28362,-0.75823 -0.003,-0.22247 -0.10872,-0.19345 -0.27964,0.0766 -0.23261,0.36763 -0.4062,0.37341 -1.12498,0.0374 -0.46746,-0.21845 -1.34284,-0.41858 -1.94529,-0.44471 -0.60244,-0.0261 -1.31408,-0.22904 -1.58142,-0.45092 -0.26735,-0.22188 -0.48609,-0.32137 -0.48609,-0.22106 0,0.10026 -0.4497,-0.0702 -0.99935,-0.37896 -1.25581,-0.70534 -3.07977,-1.14106 -2.78587,-0.66551 0.36363,0.58835 -0.84955,0.36319 -1.94344,-0.36069 -0.576889,-0.38176 -1.658869,-0.8776 -2.404406,-1.10185 -0.745525,-0.22425 -1.62661,-0.566 -1.957954,-0.75944 -2.178115,-1.27157 -8.833304,-1.84228 -11.295892,-0.96866 -0.446651,0.15845 -1.891524,0.53184 -2.651428,0.6852 -0.215744,0.0435 -0.724054,0.29657 -1.129594,0.56228 -0.40554,0.26573 -0.737339,0.34331 -0.737339,0.17241 0,-0.20009 -0.187691,-0.21259 -0.527152,-0.0352 -1.245002,0.65086 -3.430324,0.99442 -7.082457,1.11347 -2.146431,0.07 -4.04432,0.2148 -4.217528,0.32185 -0.183387,0.11339 -0.225147,0.0494 -0.09996,-0.15314 0.118209,-0.19126 0.07935,-0.34776 -0.08629,-0.34776 -0.165672,0 -0.373913,0.11762 -0.46276,0.26136 -0.0888,0.14376 -1.282116,0.28528 -2.651724,0.31453 -1.813185,0.0387 -2.399984,-0.037 -2.158374,-0.27867 0.344915,-0.34491 2.832971,-0.54295 9.024552,-0.71834 2.000147,-0.0567 3.897864,-0.23886 4.217141,-0.40489 0.319277,-0.16605 1.221207,-0.39482 2.004291,-0.5084 0.783084,-0.11362 1.496334,-0.32389 1.584998,-0.46736 0.08869,-0.14346 0.63367,-0.21692 1.21112,-0.16325 0.577462,0.0536 0.981317,-0.0135 0.897479,-0.14909 -0.08379,-0.13566 0.289277,-0.35011 0.829158,-0.47654 0.539881,-0.12645 1.117162,-0.2677 1.282834,-0.31389 3.983535,-1.11072 7.113759,-1.00248 11.561955,0.39984 0.726195,0.22894 1.386846,0.34976 1.46811,0.26849 0.146307,-0.14631 -0.972254,-0.68926 -2.863766,-1.39008 -0.538435,-0.19948 -0.978972,-0.50024 -0.978972,-0.66833 0,-0.44983 2.499748,-0.0389 3.67701,0.60451 1.097374,0.5997 2.715792,1.62985 2.949909,1.87764 0.28237,0.29887 3.999369,2.11368 4.334779,2.11645 0.69433,0.006 3.19546,1.40509 2.97474,1.66435 -0.1269,0.14904 -0.006,0.0995 0.2696,-0.11021 0.34761,-0.26486 0.56141,-0.28238 0.70047,-0.0574 0.11009,0.17811 0.35936,0.30419 0.55396,0.28016 0.80543,-0.0993 1.43305,0.0448 1.27904,0.29406 -0.0905,0.1465 0.47755,0.26901 1.26241,0.27224 0.78489,0.003 2.03704,0.0942 2.78256,0.20203 0.74553,0.10792 3.25322,0.20463 5.57265,0.21501 3.73191,0.0168 4.52802,-0.0739 6.91912,-0.78751 2.52271,-0.75285 2.72693,-0.77222 3.07813,-0.29193 0.31583,0.43193 0.45284,0.45078 0.85442,0.11749 0.26304,-0.21832 0.85559,-0.43823 1.31677,-0.48873 1.46477,-0.16035 9.06787,-3.43268 9.06787,-3.90276 0,-0.33453 -1.9746,0.27222 -2.67634,0.82236 -0.39511,0.30977 -1.00509,0.55833 -1.3555,0.55237 -0.57932,-0.0103 -0.55512,-0.0783 0.26652,-0.75369 0.49704,-0.40858 1.51366,-0.9611 2.25919,-1.22783 4.87023,-1.74243 6.30734,-2.37399 5.80471,-2.55101 -0.78142,-0.2752 -3.15437,-0.0629 -3.38011,0.30226 -0.10679,0.17274 -0.49265,0.25659 -0.85753,0.18632 -0.36487,-0.0702 -0.6634,-0.0103 -0.6634,0.1328 0,0.14332 -0.45247,0.40989 -1.00547,0.59241 -0.55302,0.1825 -1.70578,0.9296 -2.56171,1.6602 -0.85592,0.73061 -1.81422,1.41025 -2.12955,1.51034 -0.31532,0.10005 -0.65015,0.38217 -0.74404,0.62686 -0.0939,0.24468 -0.47919,0.57807 -0.8562,0.74087 -0.377,0.16279 -0.88879,0.41078 -1.1373,0.55111 -1.38049,0.77948 -1.79232,0.91798 -1.9536,0.65705 -0.1796,-0.29061 0.1374,-0.52181 2.70665,-1.97398 0.82838,-0.46822 2.04833,-1.36584 2.71102,-1.99473 0.6627,-0.62888 2.05363,-1.57467 3.09096,-2.10176 1.03733,-0.52709 1.83359,-1.01081 1.76947,-1.07492 -0.43625,-0.43626 -5.90497,1.52403 -6.51715,2.33611 -0.23681,0.31412 -2.23404,1.31829 -2.48511,1.24945 -0.12426,-0.034 -0.22591,0.0733 -0.22591,0.23858 0,0.4079 -3.05375,1.85659 -3.52908,1.67419 -0.20879,-0.0801 -0.34734,3.4e-4 -0.30792,0.17881 0.0394,0.17846 -0.26718,0.38207 -0.68136,0.45249 -0.4142,0.0703 -0.9564,0.16335 -1.2049,0.20655 -0.24851,0.0432 -0.72294,0.22232 -1.05429,0.39806 -0.79115,0.41958 -4.13347,0.35432 -4.27935,-0.0836 -0.0699,-0.20985 0.16308,-0.28441 0.61736,-0.19757 0.8351,0.15965 5.44228,-0.92939 6.80249,-1.60796 0.50064,-0.24976 1.1849,-0.47477 1.52059,-0.50007 0.33568,-0.0253 0.61033,-0.15039 0.61033,-0.27802 0,-0.12763 0.71165,-0.58836 1.58143,-1.02388 0.86979,-0.4355 2.01292,-1.11554 2.54031,-1.5112 0.52738,-0.39564 1.10348,-0.71936 1.28021,-0.71936 0.17672,0 0.32131,-0.13555 0.32131,-0.30122 0,-0.16567 0.17621,-0.30123 0.3916,-0.30123 0.21537,0 0.54474,-0.15316 0.73196,-0.34036 0.34383,-0.34383 2.78449,-1.26644 4.44908,-1.68182 1.46415,-0.36534 4.27028,-0.24105 4.81789,0.21343 0.39146,0.32488 0.54932,0.33384 0.73002,0.0414 0.12681,-0.20518 0.35369,-0.34985 0.50418,-0.32148 0.15049,0.0284 0.53795,0.0355 0.861,0.0159 0.75632,-0.0459 0.25544,-0.58666 -0.7601,-0.82061 -1.11,-0.2557 -4.91672,-0.16266 -6.32915,0.1547 -0.68944,0.1549 -1.44015,0.21001 -1.66826,0.12249 -0.22812,-0.0875 -0.41475,-0.0387 -0.41475,0.1086 0,0.14727 -0.34631,0.29642 -0.76961,0.33145 -0.45349,0.0375 -0.69248,-0.061 -0.58184,-0.24009 0.24717,-0.39994 2.17555,-1.19833 2.89436,-1.19833 0.31111,0 0.56565,-0.13891 0.56565,-0.30867 0,-0.94599 -3.77839,-0.99557 -6.02447,-0.079 -1.69667,0.69232 -2.10858,0.74468 -2.10858,0.268 0,-0.48359 1.13522,-1.25526 1.42312,-0.96736 0.0916,0.0916 0.56486,-0.16849 1.0516,-0.57805 0.48674,-0.40956 1.0779,-0.74466 1.31369,-0.74466 0.23581,0 0.42873,-0.15136 0.42873,-0.33634 0,-0.20534 -0.26404,-0.26101 -0.67775,-0.14291 -0.37278,0.10644 -1.32162,0.27664 -2.10857,0.37832 -0.78695,0.10169 -1.43082,0.29322 -1.43082,0.42566 0,0.13245 -0.60386,0.33136 -1.34192,0.44205 -0.73806,0.11065 -1.58149,0.3764 -1.87428,0.5905 -0.46437,0.33956 -0.60286,0.27339 -1.08411,-0.51798 -0.4822,-0.7929 -0.91543,-0.91762 -0.99712,-0.28705 -0.0144,0.11044 -0.12744,0.43011 -0.2514,0.71036 -0.12395,0.28024 -0.17746,0.75468 -0.11889,1.05428 0.1102,0.56364 1.0424,0.66017 2.65548,0.27502 1.9611,-0.46824 2.71102,-0.5335 2.71102,-0.23593 0,0.17294 -0.28871,0.40607 -0.64157,0.51808 -0.64244,0.20389 -0.85811,0.23879 -3.80149,0.6151 -1.40661,0.17983 -1.58142,0.28119 -1.58142,0.91692 0,0.39311 -0.12286,0.71474 -0.27303,0.71474 -0.15016,0 -0.20613,0.25579 -0.12436,0.56845 0.0817,0.31265 10e-4,0.65951 -0.17881,0.77082 -0.18011,0.11136 -0.32747,0.80439 -0.32747,1.54013 0,0.7407 -0.14238,1.33772 -0.31901,1.33772 -0.17544,0 -0.24747,0.11574 -0.16005,0.25719 0.26679,0.43168 -1.2003,0.95522 -1.58861,0.56691 -0.24482,-0.24482 -0.42501,-0.0737 -0.67364,0.63944 -0.42899,1.23059 -0.91746,1.08028 -1.4047,-0.43229 -0.87701,-2.72256 -1.61623,-3.17638 -2.90638,-1.78431 -0.38385,0.4142 -0.78404,0.75306 -0.88929,0.75306 -0.4598,0 -0.12821,-0.99422 0.56169,-1.68411 0.41417,-0.41418 0.75306,-0.93363 0.75306,-1.15432 0,-0.22069 0.20332,-0.57 0.45183,-0.77625 0.24852,-0.20625 0.45184,-0.56972 0.45184,-0.80772 0,-0.25039 0.14654,-0.34216 0.34776,-0.21779 0.21278,0.1315 0.26612,0.0828 0.13739,-0.12549 -0.11571,-0.18722 0.0634,-0.85203 0.39806,-1.47735 1.07913,-2.01645 2.65304,-5.62976 2.857,-6.55898 0.10906,-0.49701 0.47194,-1.24256 0.80634,-1.65673 l 0.60798,-0.75307 -0.20436,1.35552 c -0.11237,0.74552 -0.33866,1.44076 -0.50278,1.54496 -0.18118,0.11502 -0.15003,0.23891 0.0793,0.31536 0.26597,0.0887 0.14127,0.50045 -0.42153,1.39196 -0.43957,0.69634 -0.72793,1.26607 -0.6408,1.26607 0.29621,0 -0.77065,2.25745 -1.23143,2.60565 -0.25216,0.19056 -0.47991,0.63109 -0.50612,0.97898 -0.0262,0.34788 -0.13966,0.63252 -0.25211,0.63252 -0.11248,0 -0.28635,0.32628 -0.38646,0.72506 -0.10005,0.3988 -0.25772,0.9225 -0.35032,1.16378 -0.11947,0.31136 0.21404,0.56459 1.14891,0.87236 l 1.31725,0.43366 0.35593,-1.53095 c 0.19576,-0.84202 0.35593,-1.72157 0.35593,-1.95454 0,-0.23299 0.24801,-0.70345 0.55114,-1.04548 0.30312,-0.34202 0.79732,-1.50293 1.09823,-2.57982 0.51188,-1.83196 2.09932,-6.82305 2.49094,-7.83182 0.0964,-0.24851 0.20405,-0.5535 0.23907,-0.67776 0.0351,-0.12425 0.0919,-0.2598 0.12643,-0.30122 0.0345,-0.0414 0.0965,-0.3464 0.13795,-0.67775 0.14741,-1.18086 0.52413,-1.95795 0.94918,-1.95795 0.52507,0 0.56486,-0.64987 0.0701,-1.14466 -0.28115,-0.28115 -0.22241,-0.36146 0.26435,-0.36146 0.34418,0 0.7939,-0.20256 0.99938,-0.45014 0.30702,-0.36993 0.24649,-0.55316 -0.33965,-1.02836 -1.12199,-0.90961 -0.49563,-1.02621 1.59436,-0.2968 1.72672,0.60263 2.00879,0.62723 2.79643,0.2438 1.25391,-0.61045 1.33469,-1.17952 0.16741,-1.17952 -1.26063,0 -1.04453,-0.72005 0.23541,-0.78442 1.63481,-0.0822 2.36211,-0.3836 2.69643,-1.11738 0.3164,-0.69443 0.29079,-0.71045 -1.07796,-0.67407 -0.98358,0.0262 -1.73919,-0.16939 -2.53164,-0.65517 -0.62128,-0.38083 -1.1337,-0.58907 -1.13875,-0.46275 -0.004,0.12635 -0.15301,-0.0177 -0.32884,-0.32002 -0.45865,-0.78875 -0.13782,-0.93407 0.76138,-0.34489 0.42728,0.27996 0.98124,0.43059 1.23103,0.33475 0.24979,-0.0958 0.45416,-0.043 0.45416,0.11749 0,0.16047 0.44054,0.29384 0.97898,0.29637 0.53843,0.002 1.17921,0.13124 1.42393,0.286 0.30443,0.19251 0.61362,0.12872 0.97898,-0.20191 0.7057,-0.63865 0.67354,-0.83464 -0.14373,-0.87631 -1.60881,-0.0821 -3.65549,-0.70074 -4.23489,-1.28014 -0.86131,-0.8613 -0.47322,-1.09954 0.74281,-0.45599 1.09278,0.57832 1.37481,0.66303 2.96494,0.89044 1.14686,0.16403 2.43196,-0.35869 2.64957,-1.07771 0.10815,-0.35726 0.0557,-0.3756 -0.25004,-0.0877 -0.50128,0.472 -2.96465,0.16978 -3.67974,-0.45145 -0.28993,-0.25188 -0.52921,-0.33528 -0.53174,-0.18534 -0.006,0.31802 -0.58638,-0.52129 -0.59324,-0.857 -0.002,-0.12426 0.31327,-0.22591 0.70176,-0.22591 0.99119,0 1.82069,-0.99788 1.59083,-1.91375 -0.15379,-0.61273 -0.0513,-0.76642 0.62367,-0.93583 0.8254,-0.20717 2.57133,-1.30667 2.75219,-1.73321 0.0552,-0.13024 0.22532,-0.2368 0.37801,-0.2368 0.15267,0 0.98555,-0.34153 1.85085,-0.75896 0.86527,-0.41742 1.77578,-0.68124 2.02333,-0.58623 0.39518,0.15163 0.396,0.20692 0.007,0.45311 -0.36601,0.23147 -0.34527,0.28121 0.11887,0.28502 0.42623,0.003 0.52165,-0.15068 0.39443,-0.63725 -0.15469,-0.5915 0.3652,-1.46671 0.87123,-1.46671 0.11783,0 0.37459,-0.21933 0.57062,-0.4874 0.38527,-0.52689 1.9692,-0.84038 1.9692,-0.38974 0,0.15108 0.1886,0.2747 0.41913,0.2747 0.46486,0 1.49789,-2.28986 1.22917,-2.72465 -0.0935,-0.15133 -0.0234,-0.54905 0.15571,-0.88382 0.23012,-0.42998 0.23219,-0.7835 0.007,-1.20421 -0.2537,-0.47405 -0.19221,-0.72206 0.3014,-1.21566 0.54447,-0.54448 0.67388,-0.56632 1.06118,-0.17903 0.24259,0.24259 0.44107,0.69318 0.44107,1.0013 0,0.87418 -1.04566,3.62717 -1.61784,4.25943 -0.28372,0.3135 -0.49415,0.68864 -0.46761,0.83363 0.141,0.77068 -0.10622,1.37056 -0.84841,2.05878 -0.4539,0.42088 -0.70892,0.76525 -0.56668,0.76525 0.14222,0 -0.11721,0.49267 -0.57649,1.09484 -0.93582,1.22691 -3.43821,3.72474 -3.73157,3.72474 -0.10485,0 -0.4029,0.23722 -0.66245,0.52714 -0.25955,0.28993 -0.78136,0.73047 -1.15961,0.97898 -0.83567,0.54906 -2.41498,2.17293 -2.4169,2.4851 -7.8e-4,0.12426 -0.28656,0.51108 -0.63508,0.8596 -0.34854,0.34852 -0.66092,0.78908 -0.69419,0.97899 -0.12661,0.72254 -1.09763,2.27241 -1.75661,2.80379 -0.37769,0.30455 -1.21693,1.29803 -1.865,2.20774 -0.64804,0.9097 -1.47868,1.89029 -1.84584,2.1791 -0.36717,0.28881 -0.75968,0.89206 -0.87224,1.34053 -0.1126,0.44849 -0.59531,1.60282 -1.0728,2.56518 -0.94117,1.89694 -0.9043,1.9894 0.4567,1.14514 1.80655,-1.12063 4.94925,-2.70886 5.36017,-2.70886 0.23163,0 0.85417,-0.21603 1.38344,-0.48007 1.50215,-0.74937 2.74495,-0.86524 2.74495,-0.25595 0,0.37676 0.17216,0.45892 0.67775,0.32344 0.37277,-0.0999 0.88107,-0.18557 1.12959,-0.19038 0.39544,-0.008 0.39654,-0.0437 0.009,-0.28895 -0.24372,-0.15413 -0.35441,-0.36895 -0.24597,-0.47738 0.10839,-0.10838 0.37562,-0.082 0.59373,0.059 0.21811,0.14084 1.48098,0.27122 2.80636,0.28972 3.80763,0.0532 6.59507,0.35731 9.0592,0.98856 2.50781,0.64244 4.99418,2.04083 4.34358,2.44292 -0.42641,0.26354 -2.00298,-0.17826 -2.70932,-0.7592 -0.24851,-0.20439 -0.71832,-0.32846 -1.04404,-0.27567 -0.3257,0.0528 -0.73235,-0.0142 -0.90367,-0.14892 -0.42976,-0.33786 -2.18492,-0.85808 -3.59416,-1.06527 -0.64576,-0.0949 -1.47328,-0.24773 -1.83892,-0.3395 -0.99897,-0.25073 -4.93152,-0.30502 -4.78353,-0.066 0.071,0.11445 -0.34861,0.1306 -0.93218,0.0359 -0.65914,-0.10701 -1.06103,-0.0503 -1.06103,0.14957 0,0.17697 -0.50832,0.31531 -1.12959,0.30742 -0.62128,-0.008 -1.70882,0.14222 -2.41675,0.33358 -0.70793,0.19136 -1.41957,0.26609 -1.58142,0.16607 -0.16185,-0.10006 -0.29428,-0.0502 -0.29428,0.11066 0,0.16089 -0.54221,0.38412 -1.20489,0.49607 -0.66269,0.11192 -1.20489,0.32721 -1.20489,0.47832 0,0.15111 -0.20333,0.27476 -0.45185,0.27476 -0.24851,0 -0.45183,0.12085 -0.45183,0.26856 0,0.14772 -0.32737,0.35074 -0.72751,0.45117 -0.4087,0.10262 -0.89694,0.56534 -1.11412,1.05598 -0.22386,0.50573 -0.90031,1.13485 -1.60697,1.49452 -1.72511,0.87804 -3.01168,1.66459 -3.12249,1.90896 -0.0521,0.11495 -0.28111,0.13749 -0.50885,0.0501 -0.22774,-0.0874 -0.65952,-0.002 -0.95951,0.19028 -0.51859,0.332 -0.51762,0.3404 0.0199,0.17062 0.31091,-0.0983 0.71757,-0.0597 0.90367,0.0854 0.91045,0.7105 3.39923,0.62991 5.30854,-0.17189 1.27206,-0.53421 4.73741,-0.82615 5.20452,-0.43849 0.46016,0.3819 2.27732,0.3781 2.51425,-0.006 0.0969,-0.15676 0.31313,-0.15099 0.5164,0.0138 0.19234,0.15594 0.95969,0.35791 1.70523,0.44882 0.74552,0.091 2.10102,0.2571 3.01223,0.36928 0.9112,0.11214 1.99561,0.43439 2.4098,0.71604 0.41418,0.28163 1.3108,0.67215 1.99247,0.86781 0.68168,0.19567 1.62181,0.65656 2.08919,1.0242 0.46737,0.36762 0.99404,0.69978 1.17038,0.73813 0.17632,0.0384 1.20168,0.39824 2.27856,0.79978 1.07687,0.40154 2.85986,0.82436 3.96218,0.93959 1.10232,0.11524 2.2545,0.41037 2.5604,0.65587 0.50093,0.40202 0.36405,0.42847 -1.37813,0.26621 -1.06389,-0.099 -2.04662,-0.24957 -2.18387,-0.3344 -0.13727,-0.0848 -0.24956,-0.0292 -0.24956,0.12385 0,0.15294 0.61084,0.51136 1.35743,0.79649 0.74658,0.28512 1.28659,0.63305 1.19998,0.77317 -0.0867,0.14011 -0.004,0.34927 0.18237,0.46477 0.1869,0.11552 0.44328,0.0426 0.56973,-0.16199 0.25227,-0.40818 1.25485,-0.26877 3.71395,0.51645 1.0827,0.34571 2.11448,0.41546 4.06652,0.27486 1.43864,-0.10359 3.61317,-0.25881 4.8323,-0.34487 1.21911,-0.0861 2.33741,-0.23115 2.48509,-0.32244 0.14769,-0.0913 0.26852,-0.0272 0.26852,0.14246 0,0.27043 -1.2324,1.11706 -1.43081,0.98295 -0.0414,-0.028 -0.10918,-0.0456 -0.15062,-0.0391 -0.0414,0.007 -0.93449,0.0771 -1.98461,0.15666 -1.05012,0.0797 -2.28678,0.33998 -2.74813,0.57857 -0.46136,0.23857 -0.88989,0.38563 -0.95232,0.32682 -0.27741,-0.26144 -3.01055,-0.47125 -2.85475,-0.21917 0.24198,0.39152 2.37259,0.8766 4.92935,1.12226 1.78616,0.17162 2.12628,0.28475 1.85149,0.61586 -0.31204,0.37597 -1.08476,0.36974 -3.88898,-0.0313 -0.82436,-0.11791 -2.25475,-0.53298 -2.5604,-0.74297 -0.35462,-0.24363 -2.86202,-1.03689 -3.34794,-1.05917 -0.18464,-0.008 -0.52352,-0.16432 -0.75306,-0.34633 -0.22955,-0.18202 -0.6207,-0.34217 -0.86921,-0.35591 -0.74773,-0.0413 -2.71101,-0.79051 -2.71101,-1.03452 0,-0.12513 -0.27546,-0.22751 -0.61215,-0.22751 -0.34786,0 -0.71375,-0.27466 -0.84748,-0.63616 -0.12943,-0.34989 -0.67672,-0.82174 -1.21619,-1.04857 -0.8936,-0.37574 -0.97118,-0.36604 -0.8722,0.10907 0.0695,0.33404 0.34778,0.49564 0.77404,0.44967 0.79972,-0.0862 0.81327,0.007 0.15413,1.06133 -0.2812,0.44977 -0.39595,0.7179 -0.25501,0.59585 0.14095,-0.12207 0.67601,0.0247 1.18904,0.3262 0.51302,0.30148 1.54275,0.73041 2.28827,0.95321 0.74552,0.22278 1.55884,0.56158 1.80734,0.75287 0.86058,0.66245 2.60314,1.32736 4.23481,1.61589 0.90149,0.15942 2.52015,0.51359 3.59702,0.78708 2.3958,0.60845 7.77989,0.72256 9.61434,0.20379 1.41466,-0.40007 2.30659,-0.27207 1.96423,0.28189 -0.14562,0.2356 -0.2823,0.21425 -0.45904,-0.0717 -0.20212,-0.32705 -0.33153,-0.29802 -0.6572,0.14737 -0.2533,0.3464 -0.8514,0.58192 -1.59333,0.62737 -2.28628,0.14005 -2.46857,0.19974 -1.49623,0.48987 0.51899,0.15486 1.00855,0.15542 1.16265,10e-4 0.15411,-0.1541 0.64024,-0.13579 1.1545,0.0435 0.48858,0.17032 1.68909,0.23141 2.6678,0.13574 2.02388,-0.19781 2.77356,0.25353 0.81776,0.49233 -2.08306,0.25434 -3.83753,0.25391 -3.83747,-9.3e-4 3e-5,-0.13097 -0.71162,-0.24031 -1.58143,-0.24296 -2.55801,-0.008 -4.51614,-0.22593 -5.72332,-0.63756 -0.62127,-0.21184 -1.12958,-0.33287 -1.12958,-0.26895 0,0.0639 -0.44055,-0.0188 -0.97899,-0.18368 -0.53843,-0.16494 -1.8888,-0.42222 -3.0008,-0.57173 -1.11201,-0.14949 -2.26419,-0.40033 -2.5604,-0.55741 -0.29622,-0.15709 -1.01301,-0.48861 -1.59286,-0.73674 -2.97979,-1.27512 -4.46035,-2.02828 -4.80608,-2.44486 -0.21064,-0.25381 -0.49181,-0.39422 -0.62481,-0.31204 -0.133,0.0822 -0.62596,-0.008 -1.09546,-0.20101 -0.46951,-0.19276 -1.18998,-0.4059 -1.60106,-0.47362 -0.41108,-0.0678 -0.84955,-0.28376 -0.97437,-0.48005 -0.16809,-0.26433 -0.22814,-0.25463 -0.23156,0.0374 -0.002,0.21687 -0.11374,0.32683 -0.24724,0.24435 -0.5608,-0.34659 -2.90661,-0.45256 -3.09976,-0.14002 -0.11214,0.18135 -0.57026,0.36997 -1.01816,0.41913 -1.4552,0.15974 -3.90841,0.79773 -4.52557,1.17692 -0.33134,0.20359 -1.13368,0.45463 -1.78296,0.55787 -0.6493,0.10326 -1.25928,0.30519 -1.35552,0.44874 -0.24529,0.3659 -4.53484,2.47134 -5.03503,2.47134 -0.22625,0 -0.41137,0.13556 -0.41137,0.30123 0,0.16567 -0.24399,0.30122 -0.54221,0.30122 -0.2982,0 -0.67097,0.12416 -0.82836,0.27592 -0.30705,0.29606 -2.31769,0.71016 -3.28453,0.67646 -0.3237,-0.0114 -0.73202,0.0986 -0.90734,0.24405 -0.36394,0.30203 -3.54667,0.72405 -5.62947,0.74645 -0.77116,0.008 -1.35271,0.0949 -1.29232,0.19261 0.0604,0.0977 -0.5104,0.201 -1.26842,0.22968 -0.75802,0.0287 -1.48874,0.12043 -1.6238,0.2039 -0.13506,0.0835 -0.33209,0.0118 -0.43782,-0.15928 -0.10576,-0.17107 -0.34546,-0.21635 -0.53274,-0.10066 -0.47342,0.29258 -1.7407,0.32122 -1.91252,0.0432 z m -15.7788,-3.8585 c 0,-0.16568 -0.14356,-0.30123 -0.31901,-0.30123 -0.17545,0 -0.23522,0.13555 -0.13283,0.30123 0.10236,0.16567 0.24594,0.30122 0.31901,0.30122 0.0731,0 0.13283,-0.13555 0.13283,-0.30122 z m -1.03267,-0.56748 c -0.23856,-0.38599 -2.919916,-1.60484 -3.110738,-1.41401 -0.08869,0.0886 0.570051,0.50173 1.463909,0.91783 1.829419,0.8516 1.874969,0.86534 1.646829,0.49618 z m 21.67642,-1.8583 c 0.18557,-0.30028 -1.03372,-1.621 -1.27436,-1.38036 -0.17658,0.17657 0.57891,1.69755 0.84321,1.69755 0.1293,0 0.32332,-0.14273 0.43115,-0.31719 z m 1.34563,-0.11686 c 0,-0.0731 -0.13556,-0.21661 -0.30124,-0.31901 -0.16567,-0.10231 -0.30122,-0.0426 -0.30122,0.13285 0,0.17545 0.13555,0.31899 0.30122,0.31899 0.16568,0 0.30124,-0.0597 0.30124,-0.13283 z m 18.97712,-0.25067 c 0.57985,-0.20593 1.18983,-0.45905 1.3555,-0.56248 0.16567,-0.10337 0.74176,-0.28255 1.2802,-0.39802 0.53843,-0.1155 0.97898,-0.32529 0.97898,-0.46624 0,-0.28616 -1.37765,0.053 -2.3678,0.58289 -0.35445,0.18969 -0.64444,0.25575 -0.64444,0.14679 0,-0.10895 -0.20333,-0.0294 -0.45183,0.17689 -0.24851,0.20625 -0.45185,0.27403 -0.45185,0.15061 0,-0.12341 -0.1819,-0.0734 -0.40424,0.11113 -0.22233,0.18452 -0.49344,0.24629 -0.60245,0.13728 -0.10907,-0.10907 -0.1982,-0.0401 -0.1982,0.15323 0,0.43909 0.19093,0.43501 1.50613,-0.0321 z m 8.62479,-2.6828 c -0.76971,-0.43334 -4.05359,-0.70386 -3.6546,-0.30105 0.34185,0.34512 1.26167,0.52182 3.01223,0.57866 0.98753,0.0321 1.10341,-0.018 0.64237,-0.27761 z m 2.89381,-0.7743 c -0.45985,-0.45704 -1.2758,-0.75381 -4.13862,-1.50525 -0.44609,-0.11709 -0.51853,-0.0676 -0.2791,0.19112 0.17783,0.1921 0.58448,0.40152 0.90367,0.46539 0.31918,0.0639 1.25808,0.3857 2.08645,0.7152 1.91718,0.76256 2.07534,0.77735 1.4276,0.13354 z m -2.33127,-2.18387 c 0.32006,-0.51788 -0.14443,-0.93282 -0.58677,-0.52414 -0.41358,0.38211 -0.34111,0.82537 0.13492,0.82537 0.14613,0 0.34946,-0.13556 0.45185,-0.30123 z m 1.27392,0.11922 c -0.10005,-0.10005 -0.3599,-0.11077 -0.57734,-0.0238 -0.2403,0.0962 -0.16893,0.16755 0.18198,0.182 0.31754,0.0131 0.49545,-0.0582 0.39536,-0.15821 z M 124.9736,164.5607 c 0.10231,-0.16568 0.0426,-0.30122 -0.13282,-0.30122 -0.17546,0 -0.31901,0.13554 -0.31901,0.30122 0,0.16567 0.0597,0.30122 0.13284,0.30122 0.0731,0 0.2166,-0.13555 0.31899,-0.30122 z m 25.15221,0.099 c 0,-0.36133 -0.98696,-1.30391 -1.3653,-1.30391 -0.20255,0 -0.54234,-0.20975 -0.75509,-0.46611 -0.29028,-0.34976 -0.44303,-0.37516 -0.612,-0.1018 -0.16655,0.26948 -0.36602,0.22348 -0.7662,-0.17669 -0.34126,-0.34126 -0.58277,-0.4158 -0.65408,-0.20187 -0.0804,0.24113 -0.28197,0.24876 -0.69744,0.0264 -0.3214,-0.17201 -0.70775,-0.2365 -0.85856,-0.14328 -0.15079,0.0933 -0.34033,0.0624 -0.42121,-0.0685 -0.20545,-0.33244 -5.83446,-0.45376 -6.03452,-0.13005 -0.0899,0.14538 1.69541,0.56985 3.96726,0.94328 2.27184,0.37342 4.40172,0.78569 4.73307,0.91613 0.52424,0.2064 2.58544,0.76046 3.23816,0.87043 0.12426,0.021 0.22591,-0.053 0.22591,-0.16413 z m -12.30404,-3.4125 c 0.16397,0 0.0948,-0.20332 -0.15372,-0.45183 -0.5719,-0.57191 -0.91027,-0.58138 -0.69463,-0.0194 0.0913,0.2378 0.0719,0.48669 -0.043,0.55307 -0.11495,0.0663 -0.0285,0.0752 0.19216,0.0194 0.22066,-0.0556 0.53532,-0.10119 0.69928,-0.10119 z m -8.65566,-5.30364 c 0.26205,-0.10057 0.47647,-0.29189 0.47647,-0.42519 0,-0.36915 -1.00527,-0.14149 -1.13837,0.25783 -0.13247,0.39744 -0.015,0.42713 0.6619,0.16736 z m 0.17524,-4.33552 c 0,-0.16566 -0.12754,-0.30123 -0.28345,-0.30123 -0.15589,0 -0.36721,0.13557 -0.46961,0.30123 -0.10231,0.16567 0.0252,0.30122 0.28344,0.30122 0.25829,0 0.46962,-0.13555 0.46962,-0.30122 z m 0.84549,-1.06226 c -0.0927,-0.0927 -0.26116,0.0745 -0.37428,0.37151 -0.16348,0.42931 -0.12888,0.46391 0.16862,0.16864 0.20586,-0.20434 0.29842,-0.4474 0.20566,-0.54015 z m 1.6934,-1.21844 c 0.26035,-0.26034 0.47336,-0.51972 0.47336,-0.57639 0,-0.27241 -1.63287,0.3757 -1.73753,0.68964 -0.17376,0.52131 0.70867,0.44227 1.26417,-0.11329 z m 5.74477,-10.06949 c -0.10231,-0.16567 -0.38948,-0.30122 -0.63799,-0.30122 -0.24852,0 -0.36806,0.13555 -0.26568,0.30122 0.10231,0.16568 0.3895,0.30122 0.63801,0.30122 0.2485,0 0.36806,-0.13554 0.26566,-0.30122 z m 4.50332,-0.93767 c 0.1716,-0.16026 -0.0322,-0.26722 -0.50938,-0.26722 -0.43754,0 -0.87931,-0.13556 -0.98169,-0.30123 -0.28184,-0.45603 -0.59176,-0.36918 -1.41932,0.39777 l -0.75421,0.69898 1.68921,-0.13054 c 0.92907,-0.0719 1.81799,-0.2508 1.97539,-0.39776 z m 0.48049,-1.82727 c -1.83596,-0.21179 -2.42727,-0.15077 -2.06354,0.21297 0.0874,0.0874 0.67725,0.2254 1.31057,0.30648 0.63333,0.081 1.21215,0.20807 1.28627,0.28219 0.0741,0.0741 0.42192,-0.0255 0.77291,-0.22129 0.56146,-0.31327 0.40453,-0.383 -1.30621,-0.58035 z m 2.52217,-0.43014 c 0.78107,-0.29973 0.54715,-0.62961 -0.66453,-0.93716 -0.86492,-0.21954 -1.2322,-0.19198 -1.518,0.11398 -0.30856,0.33032 -0.23814,0.40357 0.38794,0.40357 0.42072,0 0.76494,0.13556 0.76494,0.30122 0,0.34374 0.34042,0.38287 1.02965,0.11839 z m -0.72843,-1.92573 c 0,-0.16568 -0.0597,-0.30122 -0.13284,-0.30122 -0.0731,0 -0.2166,0.13554 -0.319,0.30122 -0.10231,0.16567 -0.0426,0.30123 0.13283,0.30123 0.17546,0 0.31901,-0.13556 0.31901,-0.30123 z m 1.1948,0.0126 c 0.28615,-0.18097 0.59515,-0.15283 0.87734,0.0799 0.34876,0.28766 0.40623,0.27036 0.28819,-0.0867 -0.2034,-0.61518 -2.05911,-0.75291 -2.05911,-0.15282 0,0.51297 0.2611,0.5596 0.89358,0.15958 z m 1.32993,-1.68498 c 0.10282,-0.26807 0.0523,-0.38898 -0.11838,-0.28346 -0.16378,0.10119 -0.29778,0.3116 -0.29778,0.46749 0,0.43329 0.21591,0.33781 0.41616,-0.18403 z m 1.02093,-0.0785 c 0.18072,-0.54215 -0.4419,-0.42824 -0.652,0.11931 -0.11261,0.29336 -0.0454,0.43107 0.17485,0.35769 0.19685,-0.0656 0.41157,-0.28025 0.47715,-0.477 z m 0.67148,-0.79176 c 0,-0.0731 -0.13556,-0.2166 -0.30123,-0.31899 -0.16568,-0.10232 -0.30122,-0.0426 -0.30122,0.13283 0,0.17545 0.13554,0.319 0.30122,0.319 0.16567,0 0.30123,-0.0598 0.30123,-0.13284 z m 35.54444,44.11062 c 0,-0.21922 0.24014,-0.30775 0.58801,-0.21679 0.32339,0.0846 0.62839,0.0405 0.67775,-0.0978 0.0495,-0.13833 0.42862,-0.32302 0.84281,-0.4104 0.41418,-0.0873 1.36304,-0.3143 2.10857,-0.50425 0.74552,-0.18998 1.52494,-0.35238 1.73203,-0.36089 0.20709,-0.008 0.37653,-0.12847 0.37653,-0.26652 0,-0.13806 0.19908,-0.25102 0.44238,-0.25102 0.26948,0 0.37462,0.1766 0.26901,0.45183 -0.0954,0.24851 -0.36406,0.45184 -0.5971,0.45184 -0.23302,0 -0.65906,0.11891 -0.94673,0.26424 -1.70451,0.86113 -5.49326,1.50925 -5.49326,0.93973 z m -70.91734,-0.56765 c -0.10497,-0.16983 -0.41207,-0.22388 -0.68244,-0.12013 -0.32862,0.1261 -0.4194,0.0719 -0.2738,-0.16377 0.11979,-0.19383 0.6455,-0.35241 1.16825,-0.35241 0.85867,0 0.90533,-0.045 0.4833,-0.46714 -0.25693,-0.25692 -0.80002,-0.50263 -1.20687,-0.546 -0.40687,-0.0434 -0.89723,-0.17619 -1.08969,-0.29515 -0.19247,-0.11895 -0.67121,-0.13563 -1.06389,-0.0371 -0.45506,0.11421 -0.85273,0.0119 -1.09662,-0.28188 -0.73005,-0.87966 -0.19054,-1.05171 1.48165,-0.47245 0.9112,0.31565 1.95765,0.57833 2.32546,0.58374 0.38608,0.006 0.95114,0.39179 1.33686,0.9135 0.76004,1.02801 1.32939,1.17168 1.32939,0.33545 0,-0.37258 -0.15037,-0.51052 -0.43671,-0.40065 -0.28067,0.1077 -0.35888,0.0416 -0.21889,-0.18483 0.26581,-0.4301 1.08592,-0.46876 1.08592,-0.0512 0,0.16567 0.51336,0.30122 1.1408,0.30122 0.92484,0 1.14937,0.11404 1.18617,0.60245 0.0259,0.34416 -0.1403,0.60245 -0.38774,0.60245 -0.2382,0 -0.4331,-0.13868 -0.4331,-0.30817 0,-0.17797 -0.28635,-0.1322 -0.67777,0.10838 -0.81301,0.49964 -3.70086,0.66963 -3.97028,0.23368 z m 3.74437,-0.63631 c 0,-0.16567 -0.0597,-0.30123 -0.13283,-0.30123 -0.0731,0 -0.21662,0.13556 -0.31901,0.30123 -0.10232,0.16568 -0.0426,0.30122 0.13284,0.30122 0.17545,0 0.319,-0.13554 0.319,-0.30122 z m -6.43576,0.0907 c -0.11576,-0.11576 -0.85973,-0.23361 -1.65329,-0.26191 -0.79354,-0.0283 -1.72915,-0.20468 -2.07911,-0.39198 -0.34997,-0.1873 -0.83781,-0.34054 -1.08409,-0.34054 -0.39593,0 -4.80477,-2.56348 -5.872629,-3.41458 -0.22381,-0.17837 -0.608465,-0.35389 -0.854783,-0.39005 -0.246334,-0.0362 -0.683864,-0.27931 -0.972312,-0.54035 -0.288446,-0.26103 -0.683204,-0.47461 -0.877247,-0.47461 -0.194043,0 -0.352817,-0.10884 -0.352817,-0.24193 0,-0.40898 -3.991265,-1.49203 -5.322723,-1.44436 -0.690913,0.0247 -1.20076,-0.0447 -1.132986,-0.1544 0.06774,-0.10964 -0.137592,-0.26759 -0.456367,-0.35095 -0.334658,-0.0875 -0.647866,0.0263 -0.741108,0.26929 -0.1011,0.26344 -0.518592,0.39182 -1.116274,0.34323 -0.525114,-0.0427 -1.002959,0.058 -1.061865,0.22362 -0.05886,0.16566 0.333008,0.31282 0.870897,0.32699 1.868663,0.0493 5.044494,0.47519 5.039906,0.67595 -0.01742,0.7638 -0.521642,0.95751 -1.523543,0.58537 -0.567739,-0.21089 -2.116654,-0.38342 -3.442043,-0.38342 -1.773543,0 -2.509403,-0.11929 -2.787056,-0.45183 -0.327236,-0.39191 -0.35292,-0.38192 -0.193691,0.0754 0.138007,0.3963 0.02163,0.52714 -0.468873,0.52714 -0.358851,0 -0.568685,-0.13555 -0.466289,-0.30123 0.233457,-0.37773 -0.23273,-0.39648 -0.617515,-0.0248 -0.157384,0.15202 -1.060225,0.35668 -2.006317,0.45477 -0.946081,0.0981 -2.057583,0.30667 -2.470012,0.46347 -0.412416,0.1568 -1.32178,0.35404 -2.02081,0.43828 -0.699018,0.0842 -1.354432,0.28829 -1.456463,0.45336 -0.165615,0.26799 -1.822897,0.61736 -3.477844,0.73319 -0.331344,0.0232 -0.715879,0.17771 -0.8545,0.34339 -0.144087,0.1722 -0.190947,0.0206 -0.109409,-0.35399 0.102241,-0.46974 0.02436,-0.60985 -0.275092,-0.49493 -0.229758,0.0881 -0.417744,0.006 -0.417744,-0.1826 0,-0.1886 0.169441,-0.38906 0.376531,-0.44547 2.473039,-0.67371 3.890248,-1.17526 4.208193,-1.48928 1.428263,-1.41062 3.849547,-2.48159 3.849547,-1.70271 0,0.16568 -0.263104,0.30122 -0.58467,0.30122 -0.321564,0 -0.66845,0.13555 -0.770833,0.30122 -0.210734,0.34099 0.274124,0.38094 1.297235,0.10691 0.396534,-0.10622 0.631518,-0.35097 0.547394,-0.57018 -0.195318,-0.50901 1.229371,-1.06369 2.3725,-0.92369 0.497029,0.0609 1.039232,0.009 1.204904,-0.11418 0.165672,-0.12366 0.865294,-0.29641 1.554726,-0.38389 1.092035,-0.13856 1.278325,-0.0759 1.446195,0.48647 l 0.192688,0.6455 0.27614,-0.67775 c 0.269627,-0.66177 1.328088,-0.88949 3.458398,-0.74403 0.331355,0.0226 1.95796,0.0965 3.614683,0.16414 3.640294,0.14865 5.205083,0.65632 8.430378,2.73508 1.32754,0.85562 3.02369,1.81361 3.76922,2.1289 0.74552,0.31526 1.56951,0.75111 1.83106,0.96854 0.26156,0.21743 0.64882,0.39532 0.86059,0.39532 0.21851,0 0.31006,0.19543 0.21166,0.45184 -0.0954,0.2485 -0.008,0.45391 0.19369,0.45644 0.27002,0.003 0.26375,0.0701 -0.0237,0.25252 -0.54733,0.34718 0.0768,0.8163 1.44508,1.08608 1.7583,0.3467 2.12498,0.49511 1.94455,0.78705 -0.20262,0.32784 -1.14841,0.37282 -1.45216,0.0691 z m -2.70137,-1.44627 c 0,-0.2485 -0.10497,-0.45183 -0.23325,-0.45183 -0.33926,0 -0.58603,0.48602 -0.36101,0.71104 0.32875,0.32875 0.59426,0.21294 0.59426,-0.25921 z m -1.61145,-0.60551 c -0.29865,-0.21838 -0.54398,-0.63197 -0.54517,-0.91909 -10e-4,-0.32254 -0.63534,-0.86366 -1.6589,-1.41589 -0.91119,-0.49161 -1.72451,-0.99875 -1.80735,-1.12697 -0.0829,-0.12823 -1.06558,-0.66471 -2.18388,-1.19218 -1.118288,-0.52749 -2.033254,-1.08737 -2.033254,-1.24422 0,-0.15683 -0.340646,-0.19967 -0.756978,-0.0952 -0.424188,0.10645 -0.945876,0.0332 -1.186677,-0.16664 -0.236338,-0.19613 -0.810669,-0.30434 -1.276298,-0.24046 l -0.846578,0.11618 1.054283,0.51898 c 3.291371,1.62023 6.181382,3.25051 6.811362,3.84234 0.39558,0.37163 0.71925,0.59257 0.71925,0.49097 0,-0.10159 0.8472,0.33332 1.88266,0.96647 1.03546,0.63315 1.99242,1.08629 2.12659,1.00698 0.13418,-0.0794 -4.1e-4,-0.3229 -0.29906,-0.54129 z m -34.133824,-1.95483 c 0,-0.16568 -0.143551,-0.30122 -0.319003,-0.30122 -0.175452,0 -0.235222,0.13554 -0.132838,0.30122 0.102353,0.16567 0.245946,0.30123 0.319004,0.30123 0.07309,0 0.132837,-0.13556 0.132837,-0.30123 z m 9.939416,-2.4851 c 5.36e-4,-0.12425 0.204301,-0.22592 0.45281,-0.22592 0.565485,0 0.572498,-0.22358 0.02425,-0.77189 -0.253723,-0.25373 -0.469511,-0.30197 -0.530625,-0.11861 -0.0567,0.16996 -0.887108,0.49128 -1.845439,0.71404 -2.389758,0.55553 -2.411151,0.73258 -0.08175,0.67621 1.088881,-0.0263 1.980224,-0.14957 1.980758,-0.27383 z m -20.934093,5.49734 c -0.497028,-0.12647 -1.419986,-0.24599 -2.051048,-0.26558 -0.680745,-0.0212 -1.071655,-0.15815 -0.9612,-0.33687 0.213853,-0.34601 1.750352,-0.40842 2.074524,-0.0842 0.119336,0.11934 0.683854,0.17675 1.254485,0.12759 0.840692,-0.0724 1.002937,7e-4 0.855287,0.38548 -0.100184,0.26118 -0.201603,0.45883 -0.225307,0.43922 -0.02368,-0.0195 -0.449723,-0.13912 -0.946741,-0.26559 z M 192.5984,173.14556 c 0,-0.26107 0.17938,-0.3641 0.45186,-0.25953 0.2485,0.0954 0.45183,0.21215 0.45183,0.25953 0,0.0474 -0.20333,0.16418 -0.45183,0.25954 -0.27248,0.10452 -0.45186,0.001 -0.45186,-0.25954 z M 65.783061,171.42969 c -0.745537,-0.14564 -2.236588,-0.29356 -3.313469,-0.3287 -1.325629,-0.0433 -1.935526,-0.17982 -1.888507,-0.42284 0.04189,-0.21638 -0.49655,-0.4367 -1.355514,-0.55467 -3.146601,-0.43217 -6.8694,-1.90209 -8.392613,-3.31376 -0.440833,-0.40855 -1.052825,-0.74282 -1.359989,-0.74282 -0.307151,0 -0.558461,-0.12086 -0.558461,-0.26857 0,-0.14772 -0.304989,-0.34554 -0.67775,-0.43962 -0.69664,-0.17581 -4.202022,-3.51331 -3.679708,-3.50346 0.318479,0.006 1.855877,1.1919 3.181904,2.45443 0.463979,0.44176 1.155494,0.90056 1.536716,1.01958 0.381222,0.11901 0.760895,0.29977 0.843731,0.40171 0.08288,0.1019 1.43835,0.82488 3.012249,1.60658 2.611103,1.29684 6.718858,2.50895 7.295296,2.15267 0.129423,-0.0799 0.235301,-0.004 0.235301,0.16744 0,0.19704 0.529578,0.24782 1.430814,0.13718 0.786955,-0.0967 2.040791,-0.21151 2.786328,-0.25533 0.745525,-0.0438 2.056468,-0.1743 2.913212,-0.28996 1.553906,-0.20979 1.688669,-0.11316 1.326972,0.95172 -0.01264,0.0373 -0.335171,-0.0508 -0.716654,-0.19585 -0.411903,-0.15662 -0.901269,-0.14751 -1.204893,0.0224 -0.342547,0.1917 -0.511293,0.17828 -0.511293,-0.0406 0,-0.23059 -0.187303,-0.22654 -0.636207,0.0137 -0.349914,0.18727 -0.947516,0.28097 -1.328009,0.20825 -0.448324,-0.0858 -0.64371,-0.007 -0.555148,0.22385 0.09632,0.25104 1.021425,0.32513 3.135352,0.25109 2.413281,-0.0844 2.998701,-0.0231 2.998701,0.31482 0,0.23089 -0.338882,0.4846 -0.753062,0.56376 -0.41418,0.0791 -0.753062,0.0371 -0.753062,-0.0935 0,-0.39231 -1.03182,-0.4794 -1.355503,-0.11442 -0.207728,0.23422 -0.721993,0.25746 -1.656734,0.075 z m 130.430039,0.0414 c 0,-0.17545 0.13556,-0.23524 0.30123,-0.13284 0.16567,0.10231 0.30122,0.24595 0.30122,0.319 0,0.0731 -0.13555,0.13284 -0.30122,0.13284 -0.16567,0 -0.30123,-0.14355 -0.30123,-0.319 z m 0.60245,-0.58467 c 0,-0.16568 0.18313,-0.30123 0.40698,-0.30123 0.22383,0 1.0443,-0.33888 1.82328,-0.75306 1.66888,-0.88736 1.68565,-0.89018 1.68565,-0.28345 0,0.25829 -0.12539,0.39212 -0.27864,0.2974 -0.41558,-0.25684 -1.84119,0.47719 -1.62046,0.83435 0.11562,0.18707 -0.007,0.23269 -0.31067,0.11601 -0.27568,-0.10576 -0.50125,-0.061 -0.50125,0.0994 0,0.16048 -0.27109,0.29177 -0.60244,0.29177 -0.33134,0 -0.60245,-0.13556 -0.60245,-0.30122 z m -81.20761,-1.11962 c -0.28986,-1.02989 -2.07084,-1.43037 -2.5961,-0.58379 -0.3081,0.4966 -1.11998,-0.66905 -1.13191,-1.62512 -0.006,-0.42248 0.13779,-0.91549 0.3179,-1.09559 0.2358,-0.23581 0.21474,-0.39266 -0.0753,-0.56037 -0.22152,-0.1281 -0.31154,-0.13125 -0.20005,-0.007 0.23347,0.26016 -1.31648,1.97923 -1.78452,1.97923 -0.17144,0 -0.3833,0.18658 -0.4708,0.4146 -0.19321,0.50352 -1.79075,0.28211 -1.63204,-0.2262 0.0582,-0.18646 0.50441,-0.54262 0.99156,-0.79147 0.48715,-0.24885 1.33109,-0.76982 1.8754,-1.15772 0.54433,-0.38789 1.18816,-0.62909 1.43074,-0.536 0.29266,0.11226 0.58402,-0.15698 0.86589,-0.80025 0.23363,-0.53322 0.84333,-1.44391 1.35487,-2.02378 1.06153,-1.20331 1.19608,-1.66892 0.35165,-1.21699 -0.7437,0.39802 -2.13119,0.288 -2.13119,-0.16898 0,-0.2579 -0.31115,-0.2437 -1.17393,0.0535 -0.82477,0.28416 -1.46468,0.32108 -2.15145,0.12411 -0.53764,-0.1542 -1.08781,-0.21219 -1.2226,-0.12888 -0.13479,0.0834 -0.75937,-0.0678 -1.38794,-0.33573 -0.62856,-0.26796 -2.15948,-0.75609 -3.40202,-1.08474 -1.91179,-0.50566 -4.89543,-1.98929 -5.422047,-2.69614 -0.08288,-0.11123 -0.818878,-0.15151 -1.635627,-0.0896 -1.074445,0.0814 -1.703606,0.32197 -2.275671,0.87002 -1.049126,1.00513 -1.328294,0.95728 -0.765416,-0.13123 0.252767,-0.48877 0.459573,-0.94081 0.459573,-1.0045 0,-0.0636 -1.050525,-0.0937 -2.334485,-0.0667 -1.283967,0.0269 -2.458508,-0.0172 -2.610085,-0.0983 -0.563891,-0.30147 2.710908,-0.88621 4.324927,-0.77224 1.60877,0.11362 1.723757,0.071 2.954129,-1.09698 0.704107,-0.66833 1.280203,-1.25239 1.280203,-1.29789 0,-0.0983 2.816409,-3.27573 3.972259,-4.48155 0.44517,-0.46442 0.90215,-1.14749 1.01551,-1.51795 0.21425,-0.70019 2.22803,-4.47615 2.52794,-4.74007 0.0941,-0.0829 0.56445,-0.7606 1.04515,-1.50612 0.87826,-1.36212 1.3052,-1.89038 3.11159,-3.84998 0.53844,-0.58411 0.97898,-1.16764 0.97898,-1.29675 0,-0.12909 0.29353,-0.32787 0.65228,-0.44174 0.35876,-0.11386 0.98079,-0.59743 1.3823,-1.07458 0.40149,-0.47716 0.90567,-0.86755 1.1204,-0.86755 0.21473,0 0.61246,-0.33889 0.88384,-0.75306 0.27139,-0.41419 0.7534,-0.75306 1.07116,-0.75306 0.31774,0 0.6562,-0.12697 0.7521,-0.28216 0.27643,-0.44728 1.92956,-1.1899 3.12966,-1.4059 0.60459,-0.10884 1.23482,-0.29909 1.40048,-0.42283 0.16568,-0.12375 1.14843,-0.20328 2.18389,-0.17676 1.26353,0.0324 1.88265,-0.0677 1.88265,-0.30399 0,-0.44802 1.40419,-0.75928 3.99121,-0.88471 1.89165,-0.0917 2.68003,0.23483 1.58316,0.65573 -0.24755,0.0949 -0.36946,0.30321 -0.2709,0.46268 0.0986,0.15947 0.56562,-0.14286 1.03791,-0.67186 0.54148,-0.60651 1.03102,-0.89569 1.32519,-0.78281 0.25657,0.0985 0.46648,0.0541 0.46648,-0.0986 0,-0.29939 2.0767,-0.96363 2.3959,-0.76635 0.10634,0.0657 0.38702,-3.1e-4 0.62384,-0.14668 0.28231,-0.17446 0.61446,-0.0997 0.9646,0.21718 0.48426,0.43825 0.53401,0.43887 0.53401,0.007 0,-0.82579 1.34412,-1.62829 2.5661,-1.53206 0.61212,0.0481 1.27881,0.2253 1.48154,0.39355 0.26106,0.21666 0.6691,0.0842 1.39864,-0.45403 0.56652,-0.41798 0.97863,-0.85352 0.91578,-0.9679 -0.2555,-0.46505 1.85967,-1.29465 3.00805,-1.17982 0.64501,0.0645 1.17275,0.002 1.17275,-0.13877 0,-0.14082 -0.12384,-0.25603 -0.27519,-0.25603 -0.25305,0 -0.1573,-0.45582 0.46135,-2.1962 0.28376,-0.79826 0.86005,-0.44565 0.92222,0.56427 0.1148,1.86497 -1.03993,3.21106 -2.37331,2.76661 -0.21291,-0.071 -0.53123,0.15301 -0.7074,0.49774 -0.17615,0.3447 -0.54998,0.58693 -0.83071,0.53825 -0.30428,-0.0528 -0.51044,0.10645 -0.51044,0.3943 0,0.26555 -0.13554,0.39904 -0.30122,0.29666 -0.16567,-0.10232 -0.30123,-0.0268 -0.30123,0.16795 0,0.20579 -0.25226,0.28818 -0.60214,0.19668 -0.63954,-0.16725 -1.10992,0.22559 -0.62728,0.52387 0.15759,0.0975 -0.0448,0.53466 -0.44992,0.9717 -0.90147,0.97272 -0.72572,1.26498 0.34058,0.56632 1.07005,-0.70112 1.26887,-0.37668 0.39727,0.6483 -0.6942,0.81636 -2.37196,1.33775 -2.37196,0.73713 0,-0.16373 0.11875,-0.34285 0.26391,-0.39808 0.14515,-0.0552 0.20252,-0.50706 0.12748,-1.00409 -0.11385,-0.7537 -0.27489,-0.90367 -0.97069,-0.90367 -0.45883,0 -1.03697,0.16826 -1.28478,0.37393 -0.2478,0.20565 -0.53887,0.28557 -0.64682,0.17762 -0.10794,-0.10793 -0.43437,0.0688 -0.72536,0.39264 -0.29097,0.32392 -0.7743,0.53749 -1.07404,0.47461 -0.30083,-0.063 -0.80688,0.18764 -1.12958,0.55973 l -0.58461,0.67405 v -0.67311 c 0,-0.59922 -0.11918,-0.65704 -1.08564,-0.5268 -0.59711,0.0805 -1.2342,0.29485 -1.41576,0.47641 -0.18156,0.18156 -0.5741,0.3301 -0.8723,0.3301 -0.29822,0 -0.5422,0.13556 -0.5422,0.30122 0,0.16567 -0.17778,0.30124 -0.39505,0.30124 -0.21727,0 -0.67727,0.26293 -1.02222,0.5843 -0.34496,0.32138 -0.69619,0.5153 -0.78053,0.43096 -0.19923,-0.19922 -1.49708,0.53136 -1.8084,1.01799 -0.13248,0.20709 -0.39291,0.37653 -0.57873,0.37653 -0.18582,0 -0.58656,0.22509 -0.89055,0.50019 -0.30399,0.27511 -0.64536,0.40755 -0.7586,0.2943 -0.11329,-0.11328 0.0686,-0.39808 0.40384,-0.63298 0.33536,-0.23489 1.15754,-0.87564 1.82706,-1.42389 0.66952,-0.54823 1.47137,-1.16894 1.78187,-1.37934 0.51753,-0.35067 0.5043,-0.3666 -0.15876,-0.19116 -0.59412,0.1572 -0.68828,0.10005 -0.52714,-0.31984 0.10793,-0.28119 0.19618,-0.55523 0.19618,-0.60901 0,-0.0538 0.305,-0.04 0.67775,0.0308 0.59773,0.11339 0.60881,0.0984 0.0938,-0.12738 -0.62143,-0.2724 -2.27767,0.35887 -2.27767,0.86812 0,0.15354 -0.14355,0.27916 -0.319,0.27916 -0.17545,0 -0.23619,-0.134 -0.13497,-0.29777 0.10554,-0.17075 -0.0153,-0.22126 -0.28345,-0.11838 -0.25711,0.0987 -0.46747,0.30043 -0.46747,0.44838 0,0.14794 -0.12018,0.269 -0.26706,0.269 -0.14689,0 -1.04706,0.50624 -2.00037,1.125 -0.95331,0.61874 -1.88365,1.1348 -2.06742,1.14679 -0.9747,0.0637 -1.35886,0.51169 -1.18481,1.38192 0.17361,0.86803 0.15946,0.87991 -0.6236,0.52312 -1.19252,-0.54335 -1.60481,-0.007 -1.18979,1.54799 0.25626,0.96007 0.24046,1.20333 -0.0782,1.20333 -0.21966,0 -0.54177,-0.26605 -0.7158,-0.59123 -0.18512,-0.34591 -0.50111,-0.52036 -0.76152,-0.42043 -0.49846,0.19128 -0.38131,1.11695 0.34765,2.74704 0.42468,0.94964 0.34942,1.57809 -0.189,1.57809 -0.14304,0 -0.42254,-0.50833 -0.62106,-1.1296 -0.42421,-1.32747 -0.90007,-1.91172 -1.10401,-1.3555 -0.0759,0.2071 -0.3301,0.37653 -0.5648,0.37653 -0.2347,0 -0.42673,0.27109 -0.42673,0.60244 0,0.33134 -0.14355,0.60245 -0.31901,0.60245 -0.17545,0 -0.23067,0.14291 -0.12271,0.31759 0.13048,0.21114 0.43581,0.16065 0.91086,-0.15061 0.90001,-0.58972 1.3382,-0.59508 1.3382,-0.0164 0,0.25102 -0.26776,0.45184 -0.60245,0.45184 -0.88324,0 -0.79645,1.53056 0.15061,2.65608 0.73761,0.8766 1.00211,1.86227 0.49972,1.86227 -0.13934,0 -0.62223,-0.67775 -1.0731,-1.50612 -0.45084,-0.82836 -0.9807,-1.50405 -1.17744,-1.50151 -0.25842,0.003 -0.25231,0.0715 0.022,0.24569 0.28233,0.17923 0.18573,0.42335 -0.37654,0.95158 -0.86911,0.81649 -0.96637,1.6814 -0.27493,2.44542 0.70409,0.77801 0.22253,1.35452 -0.55526,0.66477 -0.44819,-0.39745 -0.65252,-0.44395 -0.74826,-0.17024 -0.15706,0.44904 -0.98517,0.50891 -0.98517,0.0713 0,-0.16792 0.15695,-0.55661 0.34875,-0.86376 0.47238,-0.75637 0.10555,-1.74274 -0.47038,-1.26478 -0.74369,0.61722 -0.75367,1.47283 -0.0263,2.25763 0.59535,0.64239 0.65734,0.9101 0.43695,1.88726 -0.20219,0.89647 -0.1504,1.25627 0.24341,1.69144 0.48231,0.53294 0.50769,0.53315 0.70837,0.006 0.11447,-0.30074 0.13815,-0.85331 0.0525,-1.22795 -0.12195,-0.5342 -0.0508,-0.64097 0.32985,-0.49492 0.27529,0.10566 0.48534,0.0342 0.48534,-0.16498 0,-0.19317 0.15649,-0.25452 0.34776,-0.13629 0.21421,0.13238 0.26605,0.0828 0.13499,-0.12935 -0.11702,-0.18936 0.16252,-0.81463 0.62121,-1.38948 0.57557,-0.72134 0.90565,-0.93242 1.06529,-0.68124 0.34109,0.53668 0.29026,0.8158 -0.14855,0.8158 -0.214,0 -0.75909,0.75443 -1.21131,1.67651 l -0.82226,1.6765 0.59807,0.83989 c 0.84961,1.19319 2.38473,2.29414 3.94572,2.82981 1.20931,0.41499 1.41539,0.41426 2.07092,-0.007 0.66197,-0.42572 0.76054,-0.42359 1.08749,0.0236 0.42069,0.57533 1.67136,0.64967 2.19082,0.13022 0.55841,-0.5584 0.44208,-0.69162 -0.61752,-0.7073 -1.56804,-0.0232 -3.17791,-0.39418 -4.51625,-1.04081 -0.68468,-0.3308 -1.42272,-0.60144 -1.64011,-0.60144 -0.21739,0 -0.39525,-0.20333 -0.39525,-0.45184 0,-0.24851 -0.10169,-0.43718 -0.22592,-0.41926 -0.51439,0.0741 -1.551,-0.42247 -1.70176,-0.81532 -0.23751,-0.61894 0.0818,-0.5348 2.39678,0.63144 2.46138,1.24003 5.11204,2.06607 5.93731,1.85026 0.32251,-0.0843 0.88606,-0.0394 1.25233,0.0998 0.50247,0.19103 0.75023,0.11822 1.00932,-0.29663 0.30713,-0.49183 0.20963,-0.5705 -0.9242,-0.74583 -1.47731,-0.22844 -2.94972,-0.62917 -4.4304,-1.20576 -0.57985,-0.22581 -1.39785,-0.48342 -1.81775,-0.57247 -0.49044,-0.10406 -0.77999,-0.38113 -0.80965,-0.77491 -0.0541,-0.71797 -0.0689,-0.71411 1.02637,-0.2662 0.46638,0.19074 1.16819,0.3146 1.55957,0.27524 0.43617,-0.0438 0.6355,0.0516 0.51499,0.24652 -0.32893,0.53221 1.88824,1.24001 3.88432,1.24001 1.49193,0 1.98575,-0.12295 2.4197,-0.60244 0.29986,-0.33135 0.72641,-0.60245 0.9479,-0.60245 0.57629,0 -0.34831,2.26842 -1.44293,3.54007 -0.46381,0.53882 -1.13717,1.49029 -1.49636,2.11439 -0.35918,0.6241 -1.27713,1.60653 -2.03991,2.18319 -0.76276,0.57665 -1.69887,1.35344 -2.08025,1.72621 -0.38136,0.37277 -0.82277,0.67775 -0.98092,0.67775 -0.15814,0 -0.28752,0.21578 -0.28752,0.47951 0,0.54844 -0.71766,1.53374 -2.86165,3.92886 -1.5173,1.69505 -2.02921,2.46733 -2.3691,3.57407 -0.17124,0.55756 -0.0666,0.59504 1.40474,0.50297 1.43238,-0.0896 1.62919,-0.0257 1.98814,0.64494 0.29676,0.55449 0.31428,0.88727 0.0687,1.30437 -0.31237,0.53048 -0.33963,0.52481 -0.51769,-0.10781 z m -7.05105,-9.53076 c 0,-0.18937 -0.37276,-0.3606 -0.82836,-0.3805 -0.4556,-0.0199 -1.16725,-0.12576 -1.58143,-0.23523 -0.50663,-0.13389 -0.40806,-0.0234 0.30122,0.33742 0.57986,0.29505 1.09694,0.6305 1.14905,0.74545 0.14508,0.31994 0.95952,-0.0766 0.95952,-0.46714 z m 2.22211,-0.69019 c -0.9614,-0.49877 -1.11563,-0.50888 -0.83496,-0.0547 0.1437,0.23251 0.0574,0.29085 -0.25377,0.17145 -0.30452,-0.11685 -0.52382,0.0189 -0.6191,0.38321 -0.21655,0.8281 -0.005,0.88832 1.30907,0.37222 l 1.1836,-0.46493 z m 0.79014,1.09894 c 0,-0.16567 -0.0597,-0.30122 -0.13284,-0.30122 -0.0731,0 -0.21661,0.13555 -0.319,0.30122 -0.10231,0.16567 -0.0426,0.30123 0.13283,0.30123 0.17545,0 0.31901,-0.13556 0.31901,-0.30123 z m 4.0759,-1.74776 c -0.054,-0.054 -0.55258,-0.10997 -1.10804,-0.12454 -0.55544,-0.0146 -1.29183,-0.20965 -1.6364,-0.43361 -0.34458,-0.22397 -0.69982,-0.33389 -0.78944,-0.24427 -0.21148,0.21148 -1.74692,-0.48628 -1.74692,-0.79386 0,-0.1293 0.13554,-0.31887 0.30123,-0.42126 0.16567,-0.10231 0.30122,-0.0574 0.30122,0.10005 0,0.35556 4.95414,1.30053 5.57307,1.06303 0.4668,-0.17913 0.62388,-0.69205 0.22549,-0.73632 -1.3633,-0.15147 -3.44125,-0.57422 -3.74487,-0.76187 -0.52475,-0.32432 0.0954,-0.71864 0.65732,-0.41791 0.32746,0.17525 0.63631,0.18889 0.73305,0.0323 0.19098,-0.30901 -0.5071,-0.63484 -1.36014,-0.63484 -0.31779,0 -0.5778,-0.12641 -0.5778,-0.28092 0,-0.15452 -0.305,-0.37733 -0.67776,-0.49518 -0.37277,-0.11783 -1.10339,-0.53834 -1.62361,-0.93446 l -0.94585,-0.72021 -0.33435,0.95911 c -0.45401,1.30236 -0.42032,1.77288 0.12694,1.77288 0.25371,0 0.53901,0.20255 0.63402,0.45012 0.0949,0.24755 0.29406,0.37511 0.44238,0.28345 0.14831,-0.0916 0.26966,-0.031 0.26966,0.13456 0,0.46438 -0.70227,0.79039 -0.83632,0.38823 -0.0654,-0.19604 -0.24279,-0.27981 -0.39431,-0.18617 -0.15152,0.0937 -0.27549,0.0267 -0.27549,-0.14873 0,-0.17545 -0.34227,-0.319 -0.7606,-0.319 -0.60411,0 -0.79777,-0.1859 -0.94132,-0.90368 -0.0994,-0.49701 -0.31372,-0.90367 -0.47626,-0.90367 -0.16255,0 -0.56209,-0.33888 -0.88789,-0.75306 -0.73932,-0.93989 -1.62262,-0.97549 -1.86802,-0.0753 -0.14641,0.53709 0.0807,0.91038 1.09446,1.79849 2.83377,2.4827 5.07876,3.48832 8.19997,3.67312 0.4085,0.0242 0.57961,0.21289 0.51825,0.57152 -0.0812,0.47461 0.0276,0.45733 0.95743,-0.15225 0.57696,-0.37822 1.00488,-0.73181 0.9509,-0.78578 z m -11.12863,0.31695 c -0.34008,-0.34152 -3.18891,-1.22564 -3.18891,-0.98966 0,0.11316 0.64387,0.4136 1.43082,0.6677 1.72903,0.55832 2.05244,0.61754 1.75809,0.32196 z m 4.04048,0.0811 c 0,-0.0591 -0.50831,-0.41377 -1.12959,-0.78832 -0.62127,-0.37454 -1.73957,-1.20739 -2.4851,-1.85075 -0.74553,-0.64338 -1.53189,-1.30867 -1.74749,-1.47845 -0.41041,-0.32321 -1.27149,-0.14377 -1.25545,0.26162 0.0118,0.29898 2.39262,2.10944 4.08576,3.107 1.12144,0.66073 2.53187,1.07791 2.53187,0.7489 z m -11.384137,-4.43165 c -0.284006,-0.28401 -0.363621,-0.24761 -0.363621,0.16624 0,0.29142 -0.133999,0.44704 -0.29777,0.34583 -0.173801,-0.10736 -0.219352,0.0204 -0.109409,0.3068 0.171171,0.44608 0.231488,0.44771 0.661391,0.0178 0.369473,-0.36947 0.393438,-0.55264 0.109409,-0.83666 z m 21.023317,1.02516 c 0,-0.13081 -0.98275,-0.76373 -2.18388,-1.40651 -1.20113,-0.64278 -2.50479,-1.41499 -2.89703,-1.71603 -0.39224,-0.30103 -0.83278,-0.47341 -0.97899,-0.38305 -0.39216,0.24238 -0.32344,1.63485 0.0807,1.63485 0.19058,0 1.07591,0.35687 1.96742,0.79304 1.36605,0.66835 2.77634,1.14692 3.78586,1.2847 0.12425,0.017 0.22592,-0.0762 0.22592,-0.207 z m -18.374699,-0.83422 c 0,-0.25829 -0.13556,-0.38585 -0.30123,-0.28345 -0.16567,0.10231 -0.301218,0.31371 -0.301218,0.46962 0,0.15588 0.135548,0.28344 0.301218,0.28344 0.16567,0 0.30123,-0.21133 0.30123,-0.46961 z m 1.957969,-0.43406 c -0.10235,-0.16569 -0.32173,-0.30123 -0.4874,-0.30123 -0.16567,0 -0.21745,0.13554 -0.11505,0.30123 0.10235,0.16567 0.32171,0.30122 0.4874,0.30122 0.16567,0 0.21743,-0.13555 0.11505,-0.30122 z m 6.23208,-0.73137 c -0.0515,-0.28502 0.0536,-0.69566 0.23361,-0.91253 0.24283,-0.29262 0.20951,-0.43949 -0.12921,-0.56948 -0.31006,-0.11898 -0.51623,0.0629 -0.6428,0.56728 -0.10247,0.40833 -0.32379,0.74242 -0.49178,0.74242 -0.17261,0 -0.13874,0.20088 0.0779,0.46187 0.48133,0.57996 1.07672,0.39895 0.95232,-0.28956 z m -4.58602,-2.24245 c 0.0211,-0.81671 -0.7571,0.20505 -0.81662,1.07222 l -0.0582,0.8473 0.43205,-0.75305 c 0.23763,-0.41419 0.43685,-0.9391 0.44273,-1.16647 z m 7.84251,0.59234 c 0,-0.50106 -0.93092,-1.83566 -1.28042,-1.83566 -0.47645,0 -0.37512,1.55546 0.13715,2.10531 0.63612,0.6828 1.14327,0.56318 1.14327,-0.26965 z m -4.35438,-0.63437 c 0.007,-0.49504 -0.0954,-0.90007 -0.22661,-0.90007 -0.13124,0 -0.24067,-0.30499 -0.24321,-0.67775 -0.004,-0.67949 -0.47689,-1.68835 -0.6657,-1.42209 -0.30148,0.42512 -1.13695,2.47456 -1.1365,2.78781 6.3e-4,0.42769 1.51562,1.36866 1.95813,1.2162 0.16606,-0.0573 0.30731,-0.50906 0.31389,-1.0041 z m 2.09435,-1.1986 c 0.20528,-0.64678 -0.0124,-1.20758 -0.46876,-1.20758 -0.15591,0 -0.28345,0.40664 -0.28345,0.90367 0,1.02258 0.46454,1.21028 0.75221,0.30391 z m -0.95744,-3.2053 c 0.32167,-1.24394 0.32584,-1.64695 0.0213,-2.06342 -0.88233,-1.20667 -1.65208,1.14814 -0.9815,3.00259 0.21899,0.60561 0.43468,0.98987 0.47929,0.85391 0.0446,-0.13596 0.26102,-0.94284 0.4809,-1.79308 z m 1.14567,0.28827 c -0.26253,-0.45148 -0.32131,-0.46449 -0.32883,-0.0728 -0.0103,0.50727 0.307,0.96404 0.52049,0.75055 0.0704,-0.0703 -0.0158,-0.37541 -0.19166,-0.67775 z m -3.95268,0.035 c 0,-0.25829 -0.13556,-0.38585 -0.30123,-0.28345 -0.16568,0.10231 -0.30122,0.31371 -0.30122,0.46962 0,0.15589 0.13554,0.28345 0.30122,0.28345 0.16567,0 0.30123,-0.21134 0.30123,-0.46962 z m 0.30122,-2.67546 c 0,-0.31795 -0.57809,-0.45151 -0.75002,-0.17331 -0.10406,0.16838 0.0221,0.30613 0.2804,0.30613 0.25829,0 0.46962,-0.0597 0.46962,-0.13282 z m 4.44408,-2.57562 c -0.10782,-1.05958 -0.92312,-1.10602 -1.31238,-0.0747 -0.22015,0.58324 -0.22419,1.06466 -0.0129,1.53816 l 0.30754,0.68921 0.54703,-0.70106 c 0.30086,-0.38558 0.51269,-1.03877 0.47072,-1.45154 z m -4.26684,0.6767 c -0.32397,-0.32395 -0.49595,0.12976 -0.26854,0.70843 0.21333,0.54283 0.22944,0.54377 0.33495,0.0195 0.0609,-0.30288 0.0311,-0.63046 -0.0664,-0.72795 z m 6.75092,-0.67927 c 0.61469,-0.86326 0.61786,-0.90367 0.0708,-0.90367 -0.31502,0 -0.57922,0.16944 -0.58709,0.37653 -0.008,0.20709 -0.11271,0.61374 -0.23305,0.90367 -0.33727,0.81289 0.0361,0.62532 0.74942,-0.37653 z m -5.87601,0.003 c 0.10554,-0.17076 -0.0154,-0.22126 -0.28345,-0.11839 -0.52184,0.20026 -0.61732,0.41616 -0.18403,0.41616 0.15589,0 0.36626,-0.13399 0.46748,-0.29777 z m 0.7552,-1.05774 c 0,-0.2485 -0.0533,-0.45184 -0.11839,-0.45184 -0.0651,0 -0.1964,0.20334 -0.29176,0.45184 -0.0954,0.24851 -0.0421,0.45183 0.11838,0.45183 0.16047,0 0.29177,-0.20332 0.29177,-0.45183 z m 4.40177,-1.77905 c -0.17334,-0.69062 -0.26378,-0.73704 -0.7926,-0.40678 -0.61191,0.38216 -0.74434,0.99935 -0.40446,1.88506 0.17391,0.45324 0.25027,0.44373 0.79259,-0.0986 0.43278,-0.43278 0.54555,-0.81751 0.40447,-1.37971 z m -3.19688,0.42354 c 0,-0.16568 -0.0598,-0.30122 -0.13283,-0.30122 -0.0731,0 -0.21662,0.13554 -0.319,0.30122 -0.10235,0.16568 -0.0426,0.30123 0.13283,0.30123 0.17545,0 0.319,-0.13555 0.319,-0.30123 z m 5.34673,-1.95745 c 0.647,-0.99886 0.92908,-2.58446 0.45183,-2.53974 -0.12425,0.0116 -0.49701,0.13767 -0.82836,0.28006 -0.57484,0.24701 -0.57139,0.25984 0.0753,0.28004 0.73887,0.0231 0.76123,0.0555 0.50222,0.73058 -0.0966,0.25161 -0.35394,0.389 -0.57199,0.30533 -0.21804,-0.0837 -0.48728,-0.004 -0.59833,0.17454 -0.11101,0.17967 -0.32653,0.24965 -0.47886,0.15551 -0.15231,-0.0942 -0.21073,0.0392 -0.1298,0.29631 0.0809,0.25711 0.2107,0.6708 0.28832,0.91932 0.2172,0.69522 0.55006,0.53986 1.28967,-0.60195 z m -3.38877,-0.15112 c -0.10231,-0.16567 -0.32171,-0.30122 -0.48739,-0.30122 -0.16567,0 -0.21745,0.13555 -0.11505,0.30122 0.10231,0.16568 0.32171,0.30122 0.48738,0.30122 0.16567,0 0.21745,-0.13554 0.11506,-0.30122 z m 0.37026,-0.78444 c -0.10005,-0.10005 -0.35991,-0.11076 -0.57735,-0.0238 -0.24029,0.0962 -0.16893,0.16754 0.18199,0.18199 0.31754,0.0131 0.49545,-0.0581 0.39536,-0.15821 z m 5.32077,-1.8006 c 0.24264,-0.63233 0.23167,-0.72842 -0.0832,-0.72842 -0.14633,0 -0.33697,0.2711 -0.42362,0.60245 -0.18604,0.71136 0.24148,0.81762 0.50688,0.12597 z m -1.32329,-1.33086 c 0.24852,-0.16062 0.31629,-0.29201 0.15061,-0.29201 -0.16567,0 -0.50453,0.13139 -0.75305,0.29201 -0.24852,0.16059 -0.31629,0.292 -0.15062,0.292 0.16568,0 0.50455,-0.13141 0.75306,-0.292 z m 4.51837,-2.11332 c 0,-0.44082 -0.47695,-0.35882 -0.90367,0.15536 -0.20625,0.24851 -0.54293,0.45183 -0.74817,0.45183 -0.24211,0 -0.31911,0.28291 -0.2192,0.8055 l 0.15397,0.8055 0.85854,-0.96087 c 0.47219,-0.52847 0.85853,-1.09426 0.85853,-1.25732 z m -2.88676,1.31714 c 0.10451,-0.27222 0.12224,-0.56264 0.0395,-0.64538 -0.2398,-0.23979 -1.07956,0.57776 -0.89695,0.87324 0.25847,0.41821 0.64939,0.31434 0.85744,-0.22786 z m 18.34503,-4.44115 c 0.11406,-0.29722 -0.0143,-0.37207 -0.44506,-0.25944 -0.46322,0.12114 -0.51098,0.21816 -0.20338,0.41313 0.50939,0.3229 0.46118,0.33434 0.64844,-0.15369 z m 5.32619,-1.40991 c 0.39205,-0.21576 -0.21891,-0.22119 -1.58143,-0.014 -0.12425,0.0189 -0.22592,0.17902 -0.22592,0.35586 0,0.32348 0.91178,0.15103 1.80735,-0.34183 z m 4.96806,-2.08482 c 0.10554,-0.17075 -0.0153,-0.22125 -0.28344,-0.11838 -0.52184,0.20025 -0.61733,0.41615 -0.18404,0.41615 0.1559,0 0.36627,-0.13398 0.46748,-0.29777 z m 32.09434,44.44124 c -0.21276,-0.25634 -0.26856,-0.48045 -0.12403,-0.49801 0.69872,-0.0848 2.09744,0.10885 2.31891,0.32113 0.13682,0.13114 -0.11482,0.16893 -0.55919,0.084 -0.45765,-0.0874 -0.90351,2.2e-4 -1.0284,0.20227 -0.16216,0.26238 -0.32277,0.23346 -0.60729,-0.10941 z m 3.00041,-0.16486 c 0,-0.16567 0.2791,-0.30122 0.62023,-0.30122 0.34112,0 0.53644,0.13555 0.43405,0.30122 -0.10231,0.16568 -0.3815,0.30122 -0.62022,0.30122 -0.23874,0 -0.43406,-0.13554 -0.43406,-0.30122 z m 21.38691,0 c 0,-0.16567 0.2791,-0.30122 0.62023,-0.30122 0.34111,0 0.53644,0.13555 0.43406,0.30122 -0.10231,0.16568 -0.3815,0.30122 -0.62024,0.30122 -0.23872,0 -0.43405,-0.13554 -0.43405,-0.30122 z m 1.50612,-0.31901 c 0,-0.17545 0.12018,-0.24471 0.26708,-0.15392 0.14692,0.0908 0.43337,-0.0353 0.63659,-0.28013 0.20322,-0.24487 0.49977,-0.36468 0.65902,-0.26627 0.15923,0.0984 -0.075,0.36803 -0.52041,0.59914 -0.97191,0.50422 -1.04228,0.51105 -1.04228,0.10118 z m -16.56732,-0.50394 c -0.4142,-0.0762 -0.93697,-0.28962 -1.16173,-0.47437 -0.22476,-0.18475 -0.69919,-0.48782 -1.05428,-0.67351 -0.35509,-0.18569 -0.60833,-0.50618 -0.56275,-0.71221 0.0541,-0.24428 -0.12054,-0.31005 -0.5018,-0.18905 -0.32156,0.10211 -0.6759,0.0379 -0.78745,-0.14254 -0.11997,-0.19413 -0.34557,-0.22144 -0.55248,-0.0669 -0.19234,0.14366 -0.72681,0.18413 -1.18768,0.09 -0.79871,-0.16325 -0.80996,-0.18864 -0.23989,-0.54163 0.35398,-0.21921 0.6692,-0.25531 0.77232,-0.0884 0.0958,0.15504 0.38328,0.20167 0.6388,0.10359 0.6007,-0.2305 5.13325,1.12995 5.53972,1.66275 0.28105,0.3684 2.10945,0.9045 2.10945,0.61851 0,-0.15444 0.31028,-0.20292 0.68952,-0.10771 0.37922,0.0952 1.09087,0.018 1.58142,-0.17149 1.1831,-0.45703 2.54865,-0.62562 2.54865,-0.31465 0,0.21009 -0.68598,0.45062 -2.25919,0.79213 -0.16566,0.036 -0.369,0.089 -0.45184,0.11793 -0.647,0.22564 -2.63344,0.18795 -2.93692,-0.0556 -0.25715,-0.20646 -0.37653,-0.19512 -0.37653,0.0358 0,0.34169 -0.4347,0.36998 -1.80734,0.11761 z m -17.30397,-0.61653 c -0.0647,-0.0647 0.0891,-0.35889 0.34171,-0.6539 0.35396,-0.4134 0.75944,-0.50253 1.7686,-0.38878 0.72014,0.0811 1.55286,0.0451 1.85048,-0.0803 0.29764,-0.12529 0.92243,-0.27756 1.38845,-0.33835 0.46602,-0.0608 1.10098,-0.2463 1.41101,-0.41223 0.75291,-0.40294 1.29143,-0.38277 1.031,0.0386 -0.1288,0.20842 -0.0481,0.28138 0.20814,0.18827 0.23016,-0.0836 0.38457,-0.30454 0.34316,-0.49091 -0.0414,-0.18638 0.0602,-0.33889 0.22592,-0.33889 0.16567,0 0.30122,0.14355 0.30122,0.319 0,0.17546 0.13447,0.2359 0.29883,0.13432 0.16437,-0.1016 0.53713,-0.0459 0.82838,0.12367 0.43905,0.25568 0.44913,0.30992 0.0589,0.31753 -0.25881,0.004 -1.03745,0.28304 -1.73028,0.61779 -0.78195,0.37779 -1.5395,0.5384 -1.99742,0.42347 -0.40573,-0.1018 -0.91484,-0.0708 -1.13135,0.0691 -0.21651,0.13985 -0.93584,0.27427 -1.59855,0.29871 -0.66269,0.0245 -1.20489,0.0686 -1.20489,0.0981 0,0.11443 -2.28243,0.18566 -2.39338,0.0747 z m -2.45844,-0.54309 c 0.10056,-0.26206 0.18491,-0.56704 0.18745,-0.67775 0.006,-0.26952 0.58733,0.63992 0.59322,0.92831 0.002,0.12426 -0.21322,0.22591 -0.47945,0.22591 -0.31765,0 -0.42121,-0.16381 -0.30122,-0.47647 z m -4.09454,-0.18623 c 0.28114,-0.28112 0.44178,-0.28112 0.72293,0 0.28114,0.28114 0.20082,0.36148 -0.36146,0.36148 -0.56229,0 -0.64262,-0.0804 -0.36147,-0.36148 z m -46.93072,-0.42255 c 0,-0.0895 0.20801,-0.37068 0.46223,-0.62492 0.3288,-0.32878 0.37183,-0.57116 0.14908,-0.83956 -0.22474,-0.2708 -0.14262,-0.59415 0.29082,-1.14519 0.33219,-0.42232 0.60399,-0.89491 0.60399,-1.05019 0,-0.15528 0.28229,-0.53779 0.62732,-0.85005 0.34502,-0.31224 0.82123,-1.0318 1.05823,-1.59904 0.52463,-1.25564 0.71948,-1.11454 0.89187,0.64585 0.10231,1.04502 -0.009,1.52723 -0.49375,2.14384 -0.34419,0.43756 -0.74554,0.72156 -0.8919,0.63109 -0.38209,-0.23613 -1.37226,0.84158 -1.59741,1.73864 -0.16094,0.64123 -1.10048,1.4519 -1.10048,0.94953 z m 79.52316,-0.11964 c 0.584,-0.37742 0.90367,-0.37742 0.90367,0 0,0.16566 -0.30499,0.29914 -0.67775,0.2966 -0.54806,-0.003 -0.5913,-0.0605 -0.22592,-0.2966 z M 17.112611,165.80237 c 0.08789,-0.14229 1.01011,-0.3608 2.049284,-0.48558 1.039163,-0.12477 2.186062,-0.26533 2.54868,-0.31233 1.057857,-0.13714 4.032946,-1.32301 4.940614,-1.96934 0.487465,-0.34711 1.406985,-0.61916 2.210983,-0.65414 0.757046,-0.0329 1.376439,-0.16055 1.376439,-0.28354 0,-0.12299 0.508322,-0.37534 1.129594,-0.56078 1.267999,-0.37848 3.400301,-0.28857 3.403352,0.14348 0.0023,0.30706 -0.398402,0.41603 -2.343742,0.6376 -0.701182,0.0798 -1.616147,0.27496 -2.033265,0.43355 -0.417107,0.15858 -0.75838,0.20732 -0.75838,0.10826 0,-0.099 -0.1895,-0.0227 -0.421102,0.16945 -0.231613,0.19223 -0.67215,0.40415 -0.978983,0.47098 -0.82563,0.1798 -2.643778,0.88302 -2.817055,1.08957 -0.08288,0.0987 -0.556503,0.27908 -1.052598,0.40075 -0.496094,0.12166 -1.091203,0.37824 -1.322452,0.57017 -0.485154,0.40263 -6.174105,0.63463 -5.931369,0.24188 z m -1.444714,-0.40057 c 0.206418,-0.334 1.015631,-0.29909 1.015631,0.0438 0,0.15538 -0.261704,0.26281 -0.581573,0.2387 -0.319868,-0.0242 -0.515198,-0.15122 -0.434058,-0.2825 z m 46.984991,-0.45704 c -0.03722,-0.0372 -0.772985,-0.0926 -1.634978,-0.12319 -1.494397,-0.053 -1.544218,-0.0809 -1.071804,-0.60294 0.272486,-0.30109 0.627305,-0.46595 0.788481,-0.36633 0.398196,0.2461 7.137867,0.30575 7.232384,0.064 0.04144,-0.10588 0.685243,-0.26845 1.430779,-0.36123 0.745526,-0.0927 1.379707,-0.1756 1.409296,-0.18402 0.0296,-0.008 0.265438,-0.22695 0.524124,-0.48563 0.502095,-0.50209 0.94879,-0.55531 2.524875,-0.30086 0.614474,0.0991 0.924074,0.047 0.81059,-0.13659 -0.100986,-0.16341 -0.412849,-0.30817 -0.692996,-0.32168 -0.401805,-0.0193 1.10967,-0.89822 1.749817,-1.0174 0.08288,-0.0155 0.421718,-0.18982 0.753062,-0.38756 0.84512,-0.50431 0.03973,-0.46542 -1.214569,0.0586 -0.574537,0.24005 -1.044617,0.37083 -1.044617,0.29062 0,-0.0802 -0.304773,0.0173 -0.677274,0.21663 -0.716733,0.38358 -3.061681,0.68872 -5.394687,0.70199 -0.771653,0.004 -1.339734,0.11032 -1.262431,0.23543 0.143483,0.23215 -1.969954,0.32854 -7.199664,0.32837 -1.819083,-7e-5 -2.936937,0.11829 -2.936937,0.31094 0,0.18591 -0.14543,0.16564 -0.36147,-0.0504 -0.198813,-0.19881 -0.69583,-0.36147 -1.104489,-0.36147 -0.671262,0 -0.683524,0.39834 -0.01502,0.48949 0.151862,0.0208 0.411676,0.0547 0.577348,0.0754 0.165673,0.0208 0.301221,0.17579 0.301221,0.34461 0,0.18178 -0.337834,0.22669 -0.828361,0.1101 -1.174496,-0.27909 -3.99122,-1.67085 -3.99122,-1.97208 0,-0.1388 -0.203334,-0.25235 -0.451842,-0.25235 -0.248509,0 -0.451831,-0.14356 -0.451831,-0.31901 0,-0.17544 -0.136515,-0.23463 -0.303349,-0.13151 -0.166845,0.10314 -0.384672,-0.0245 -0.484073,-0.28346 -0.09939,-0.259 -0.345906,-0.47091 -0.547805,-0.47091 -0.201909,0 -0.685458,-0.33889 -1.07457,-0.75306 -0.3891,-0.41419 -0.887164,-0.75306 -1.106788,-0.75306 -0.219637,0 -0.640661,-0.23722 -0.935619,-0.52715 -0.29497,-0.28992 -0.904947,-0.71949 -1.355514,-0.95457 -0.450566,-0.23509 -0.819219,-0.61585 -0.819219,-0.84614 0,-0.46301 -0.05111,-0.48757 2.4668,1.18476 1.010394,0.67107 1.907702,1.0638 2.186323,0.95688 0.534655,-0.20516 2.304715,0.55035 2.861673,1.22144 0.266951,0.32167 0.506511,0.36078 0.86987,0.14202 0.354035,-0.21313 1.16007,-0.13208 2.741836,0.27571 2.355069,0.60716 5.168641,0.71452 5.339846,0.20378 0.05556,-0.16567 -0.339553,-0.31518 -0.877999,-0.33223 -1.670898,-0.053 -3.349991,-0.33575 -4.292441,-0.72304 -0.497016,-0.20424 -1.275501,-0.42036 -1.729973,-0.48029 -0.45446,-0.0598 -1.538867,-0.47806 -2.409785,-0.9292 -0.870929,-0.45117 -1.673868,-0.82668 -1.784313,-0.8345 -0.110433,-0.008 -0.302484,-0.11587 -0.426738,-0.24014 -0.410993,-0.41098 1.039243,-0.23444 2.198756,0.26768 2.065621,0.8945 4.386718,1.61499 5.202863,1.61499 0.302257,0 0.302962,-0.091 0.0034,-0.45183 -0.31486,-0.37939 -0.260395,-0.45667 0.339643,-0.48187 l 0.714639,-0.03 -0.753062,-0.21369 c -0.527528,-0.14968 -0.783529,-0.0888 -0.854832,0.20337 -0.08561,0.35098 -0.181087,0.34829 -0.60244,-0.0171 -0.437451,-0.37928 -1.321974,-0.69758 -2.308028,-0.83054 -0.496299,-0.0669 -1.957954,-1.00155 -1.957954,-1.25198 0,-0.128 -0.542203,-0.31943 -1.204893,-0.4254 -0.6627,-0.10599 -1.204904,-0.32598 -1.204904,-0.48891 0,-0.36809 2.216948,0.006 2.359589,0.39841 0.05522,0.15183 0.281308,0.27605 0.502402,0.27605 0.221082,0 1.102235,0.35172 1.958092,0.78159 0.859192,0.43154 1.825606,0.71113 2.157838,0.62425 0.330958,-0.0865 1.204334,0.0241 1.940855,0.24566 0.73652,0.22164 1.437121,0.43243 1.556901,0.4684 0.119779,0.036 0.35334,0.097 0.519012,0.13566 0.165672,0.0387 0.978972,0.29198 1.807344,0.56296 1.616398,0.52878 6.719292,0.49746 10.091005,-0.0619 1.428298,-0.23696 4.821005,-1.31523 6.777537,-2.15404 0.331355,-0.14207 1.327723,-0.48672 2.214159,-0.7659 1.428343,-0.44986 1.662813,-0.45651 2.060862,-0.0584 0.398037,0.39804 0.386026,0.44561 -0.105651,0.41806 -1.031456,-0.0579 -2.554726,0.39573 -2.364269,0.7039 0.115215,0.18641 -0.286443,0.30477 -1.034313,0.30477 -0.672469,0 -1.222676,0.13554 -1.222676,0.30122 0,0.16567 -0.308757,0.30123 -0.686119,0.30123 -0.377362,0 -0.918234,0.27109 -1.201943,0.60244 -0.283711,0.33135 -0.686598,0.62008 -0.895317,0.64163 -0.208707,0.0215 -0.71835,0.0694 -1.13253,0.10633 -0.414192,0.037 -0.956396,0.14441 -1.204904,0.23878 -0.248508,0.0944 -0.994034,0.30629 -1.656734,0.47093 -1.038367,0.25798 -0.913475,0.27825 0.903672,0.14678 1.159718,-0.0839 2.311898,-0.18757 2.560406,-0.23036 0.248509,-0.0428 1.129594,-0.1762 1.957955,-0.2965 1.815245,-0.26358 4.433772,-1.10722 4.739671,-1.52701 0.121716,-0.16703 0.223383,-0.18542 0.225922,-0.0408 0.0023,0.14455 0.186517,0.1118 0.408852,-0.0728 0.222334,-0.18453 0.493442,-0.2463 0.602452,-0.13729 0.344243,0.34424 0.215299,0.70024 -0.253632,0.70024 -0.248508,0 -0.451841,0.10565 -0.451841,0.23491 0,0.12921 -0.677752,0.49791 -1.506113,0.81938 -0.828373,0.32145 -1.506124,0.67436 -1.506124,0.78424 0,0.10986 -0.299069,0.27799 -0.664602,0.37358 -0.365534,0.0956 -0.58616,0.25224 -0.490278,0.3481 0.09587,0.0958 0.767715,-0.0428 1.492964,-0.30824 1.436039,-0.52554 4.315973,-0.80653 8.548027,-0.83404 3.705012,-0.0241 4.841163,0.1537 10.594894,1.65781 0.79045,0.20664 1.311004,0.53531 1.402607,0.8856 0.174334,0.66669 0.209824,0.66123 -0.881249,0.13595 -1.591478,-0.76619 -2.24778,-0.87903 -2.045414,-0.35169 0.23372,0.60907 -0.383669,0.60939 -1.839848,9.7e-4 -0.619427,-0.25882 -1.309394,-0.40029 -1.533255,-0.31439 -0.223871,0.086 -0.487146,0.0265 -0.585067,-0.13187 -0.09791,-0.15844 -0.508913,-0.28807 -0.913315,-0.28807 -0.404413,0 -0.735279,-0.10542 -0.735279,-0.23417 0,-0.12879 -0.711639,-0.19191 -1.581429,-0.14027 -4.983819,0.29592 -6.181198,0.35908 -6.94593,0.36637 -0.485791,0.004 -0.76686,0.13636 -0.659979,0.30929 0.181008,0.29288 -0.213045,0.42318 -0.978972,0.32371 -0.20709,-0.0268 -0.376531,0.0925 -0.376531,0.26554 0,0.17293 -0.205167,0.31442 -0.455929,0.31442 -0.250752,0 -0.691299,0.12415 -0.978972,0.27591 -0.849207,0.44793 -2.706531,1.23022 -2.920851,1.23022 -0.108953,0 -0.09632,-0.16944 0.02801,-0.37653 0.172036,-0.28635 0.111571,-0.28363 -0.252709,0.0114 -0.263411,0.21334 -0.729974,0.43923 -1.036795,0.50198 -0.306834,0.0627 -1.133977,0.24653 -1.838084,0.40843 -0.704108,0.1619 -1.280203,0.2244 -1.280203,0.13889 0,-0.0854 -0.21366,0.0219 -0.474794,0.23857 -0.280773,0.23303 -0.557732,0.27888 -0.677751,0.11214 -0.27343,-0.37972 -0.956021,-0.49851 -0.956021,-0.16637 0,0.14634 -0.271106,0.33698 -0.602452,0.42363 -0.331344,0.0867 -0.60244,0.0266 -0.60244,-0.13326 0,-0.15993 -0.143096,-0.20236 -0.31799,-0.0943 -0.604968,0.37389 -3.382096,0.52212 -3.16377,0.16886 0.112141,-0.18141 0.06034,-0.32984 -0.115157,-0.32984 -0.175452,0 -0.319003,0.16945 -0.319003,0.37653 0,0.30337 -1.369165,0.56371 -1.624049,0.30881 z m 10.660772,-1.89023 c 0,-0.16567 -0.135548,-0.30122 -0.30122,-0.30122 -0.165674,0 -0.301222,0.13555 -0.301222,0.30122 0,0.16568 0.135548,0.30122 0.301222,0.30122 0.165672,0 0.30122,-0.13554 0.30122,-0.30122 z m -14.361097,-1.68611 c -0.08903,-0.23188 -0.618369,-0.31399 -1.495958,-0.232 -0.747017,0.0698 -1.28617,0.0103 -1.198107,-0.1322 0.08812,-0.14248 -0.0034,-0.26344 -0.203163,-0.26878 -0.568309,-0.0151 -2.708797,-0.38688 -3.375527,-0.58616 -0.45741,-0.13672 -0.389419,0.006 0.282435,0.59237 0.486691,0.42485 0.972733,0.71817 1.080092,0.65181 0.107359,-0.0663 0.590258,-0.008 1.073079,0.129 1.348466,0.38346 4.002525,0.27692 3.837149,-0.15404 z m 2.538058,0.27357 c -0.960586,-0.25102 -0.546018,-0.57725 0.568251,-0.44717 0.795402,0.093 1.034541,0.0294 0.873196,-0.23164 -0.122205,-0.19773 -0.418838,-0.28404 -0.659195,-0.19181 -0.244045,0.0937 -0.355753,0.0362 -0.252982,-0.13008 0.101212,-0.16378 0.05158,-0.29777 -0.11032,-0.29777 -0.161903,0 -0.542669,-0.0894 -0.846144,-0.19861 -0.303475,-0.10918 -0.454882,-0.0914 -0.336456,0.0396 0.377908,0.41808 -0.333611,1.35739 -0.871784,1.15089 -0.333018,-0.12781 -0.424894,-0.0745 -0.278849,0.16181 0.119792,0.19383 0.718122,0.3367 1.329614,0.31748 0.611502,-0.0192 0.874607,-0.0969 0.58468,-0.17271 z m 3.087536,-0.57765 c 0,-0.0651 -0.2791,-0.11837 -0.620224,-0.11837 -0.341124,0 -0.540108,0.12962 -0.442187,0.28806 0.160742,0.26009 1.062411,0.11607 1.062411,-0.16969 z m 1.204904,0.18285 c 0,-0.16567 -0.237215,-0.29915 -0.527141,-0.29661 -0.450498,0.004 -0.46145,0.047 -0.07526,0.29661 0.56848,0.36738 0.602452,0.36738 0.602452,0 z m 2.328213,-0.18198 c -0.100071,-0.10005 -0.359899,-0.11078 -0.577349,-0.0238 -0.2403,0.0962 -0.168916,0.16752 0.181987,0.18198 0.317547,0.0131 0.495457,-0.0582 0.395362,-0.15822 z m 4.755804,-0.49732 c 0.838073,-0.43911 0.832311,-0.4423 -0.634034,-0.35046 -0.81388,0.051 -2.089768,0.11089 -2.835294,0.13317 -0.745536,0.0223 -1.185231,0.10918 -0.977105,0.19304 0.208127,0.0839 0.288982,0.29725 0.179699,0.47407 -0.290382,0.46986 3.217255,0.10005 4.266734,-0.44982 z m -9.368534,-1.02003 c 0.158647,-0.41344 0.114565,-0.43206 -0.268991,-0.11374 -0.5227,0.4338 -0.577097,0.60817 -0.189739,0.60817 0.147946,0 0.354376,-0.2225 0.45873,-0.49444 z m 3.48941,-0.14315 c 0,-0.14635 -0.423244,-0.26608 -0.94056,-0.26608 -0.770992,0 -0.877601,0.0758 -0.591363,0.42073 0.360752,0.43467 1.531923,0.31645 1.531923,-0.15465 z m -17.772225,0.0352 c 0,-0.16567 -0.14354,-0.30122 -0.318992,-0.30122 -0.175452,0 -0.235234,0.13555 -0.132839,0.30122 0.102354,0.16567 0.245947,0.30122 0.319003,0.30122 0.07309,0 0.132828,-0.13555 0.132828,-0.30122 z m 12.04897,0 c -0.384272,-0.24834 -0.386526,-0.2927 -0.01502,-0.2966 0.336298,-0.003 0.354776,-0.0867 0.08027,-0.36107 -0.196047,-0.19605 -0.443223,-0.26967 -0.549285,-0.16361 -0.294378,0.29438 0.113279,1.12312 0.549877,1.11789 0.269889,-0.003 0.250091,-0.0924 -0.06581,-0.29661 z m 8.133051,0.0299 c 0,-0.149 -0.47443,-0.27093 -1.054282,-0.27093 -1.369359,0 -1.36888,0.36908 6.03e-4,0.46672 0.579523,0.0413 1.053679,-0.0468 1.053679,-0.19579 z m -4.599945,-0.21192 c -0.10007,-0.10005 -0.359898,-0.11078 -0.577348,-0.0238 -0.240289,0.0962 -0.168918,0.16753 0.181986,0.18199 0.317546,0.0131 0.495458,-0.0582 0.395362,-0.1582 z m -4.946147,-0.38613 c 0.134034,-0.0189 0.154208,-0.17913 0.04485,-0.3561 -0.109409,-0.17696 -0.422366,-0.2264 -0.695535,-0.10987 -0.737282,0.31457 -1.935594,0.18015 -2.207225,-0.24759 -0.187976,-0.29601 -0.23915,-0.29366 -0.242794,0.0114 -0.008,0.6847 1.232365,0.96572 3.100709,0.70239 z m -1.297975,-0.93801 c 0,-0.16568 -0.304989,-0.29169 -0.677751,-0.28005 -0.646705,0.0202 -0.650155,0.033 -0.07526,0.28005 0.331346,0.14239 0.636334,0.26841 0.677752,0.28006 0.04144,0.0116 0.07525,-0.11439 0.07525,-0.28006 z m -0.15875,6.31255 c -0.09791,-0.15844 0.101099,-0.28806 0.442199,-0.28806 0.72732,0 0.800696,0.16751 0.178036,0.40644 -0.243204,0.0934 -0.522314,0.0401 -0.620235,-0.11838 z m 43.685627,-0.21245 c -3.113396,-0.69997 -3.293687,-0.76021 -4.138135,-1.38279 -0.947811,-0.69878 -0.855025,-1.06037 0.147366,-0.57426 0.372512,0.18064 1.083951,0.42961 1.58096,0.55324 0.497029,0.12363 0.971469,0.24163 1.054299,0.26219 0.0829,0.0206 0.69282,0.22647 1.35551,0.45755 0.6627,0.23108 2.27792,0.42863 3.5894,0.43899 1.6473,0.0129 2.42402,0.13725 2.51236,0.40185 0.16882,0.50569 -3.58404,0.40926 -6.10176,-0.15677 z m 85.69827,0.28422 c 0,-0.1565 -0.32481,-0.28452 -0.72181,-0.28452 -0.397,0 -1.15899,-0.21811 -1.69332,-0.48466 -0.53433,-0.26657 -1.11155,-0.39812 -1.28269,-0.29234 -0.17842,0.11021 -0.22056,0.0457 -0.0988,-0.15134 0.14586,-0.23598 -0.0743,-0.31027 -0.70278,-0.2371 -0.93748,0.10918 -1.82618,-0.49559 -1.25083,-0.85117 0.33113,-0.20464 3.25593,0.64566 3.87486,1.12652 0.21109,0.164 0.45471,0.22726 0.54136,0.14062 0.23444,-0.23445 2.56453,0.51012 2.63167,0.84093 0.0318,0.15678 -0.24715,0.32838 -0.61991,0.38131 -0.37277,0.053 -0.67775,-0.0318 -0.67775,-0.18825 z M 56.821637,164.06001 c -0.207089,-0.0836 -0.37653,-0.27534 -0.37653,-0.42616 0,-0.39184 1.300468,-0.14193 1.440013,0.27673 0.118231,0.35469 -0.380961,0.42484 -1.063483,0.14943 z m -34.249001,-1.28197 c -0.257172,-0.41612 5.362171,-2.73566 6.627439,-2.73566 0.331799,0 0.913634,-0.21739 1.292965,-0.4831 0.379343,-0.26568 1.019479,-0.42003 1.422536,-0.34299 0.403058,0.0771 0.732832,0.0142 0.732832,-0.13966 0,-0.15387 0.237214,-0.20531 0.527141,-0.11432 0.289927,0.091 1.757491,0.22719 3.261235,0.30266 1.503756,0.0755 3.130367,0.22638 3.614689,0.33531 1.188977,0.26742 3.348443,1.25353 3.58568,1.63738 0.320632,0.5188 -0.992701,0.35123 -2.449814,-0.31254 -0.752629,-0.34288 -1.56553,-0.54775 -1.806456,-0.4553 -0.240938,0.0924 -0.36362,0.0477 -0.272645,-0.0995 0.154641,-0.25022 -0.584304,-0.33809 -3.146361,-0.37417 -0.579865,-0.008 -1.223723,-0.15323 -1.430814,-0.32239 -0.210517,-0.17195 -0.376531,-0.18452 -0.376531,-0.0286 0,0.15347 -0.508322,0.29347 -1.129593,0.3111 -1.600231,0.0455 -2.769899,0.29993 -3.264275,0.71022 -0.234141,0.19432 -0.425725,0.25235 -0.425725,0.12894 0,-0.12341 -0.197379,-0.0606 -0.438635,0.13966 -0.241257,0.20022 -0.580127,0.27659 -0.753063,0.16971 -0.172923,-0.1069 -0.314415,-0.0448 -0.314415,0.1379 0,0.18271 -0.169441,0.29781 -0.37653,0.25579 -0.207091,-0.0421 -0.684321,0.0938 -1.060511,0.30195 -0.376189,0.2081 -0.816726,0.29631 -0.978982,0.19604 -0.162246,-0.10026 -0.294993,-0.0161 -0.294993,0.18688 0,0.20307 -0.08505,0.28422 -0.188875,0.18033 -0.10383,-0.10383 -0.643119,9.4e-4 -1.198312,0.2329 -0.555205,0.23198 -1.076289,0.31364 -1.157987,0.18144 z m 145.116444,-0.0425 c -0.13357,-0.12784 -0.58175,-0.27787 -0.99594,-0.3334 -0.49701,-0.0666 -0.73901,-0.27904 -0.71176,-0.6247 0.0226,-0.28808 -0.0849,-0.44578 -0.23912,-0.35046 -0.15422,0.0953 -0.50382,-0.008 -0.77686,-0.22917 -0.35401,-0.28696 -0.43157,-0.29442 -0.27026,-0.0259 0.14235,0.23695 0.0521,0.37653 -0.24339,0.37653 -0.25829,0 -0.46962,-0.13554 -0.46962,-0.30122 0,-0.16567 -0.33492,-0.30123 -0.74426,-0.30123 -0.83476,0 -3.47288,-1.72978 -3.47288,-2.27712 0,-0.87507 -4.26603,-2.76011 -7.37999,-3.26103 -0.49702,-0.0799 -1.33401,-0.27746 -1.85998,-0.43892 -0.52596,-0.16147 -1.02796,-0.22191 -1.11556,-0.13431 -0.0875,0.0875 -0.53127,0.0659 -0.98594,-0.0482 -0.62387,-0.15658 -0.72322,-0.27143 -0.40494,-0.46814 0.23196,-0.14336 0.54428,-0.18492 0.69404,-0.0923 0.14978,0.0926 0.86301,0.15644 1.58497,0.14194 0.72196,-0.0145 1.39468,0.10634 1.49492,0.26859 0.10025,0.16221 0.29219,0.22699 0.42652,0.14397 0.2128,-0.13152 2.18902,0.37327 5.30817,1.35584 1.25333,0.39482 1.60116,0.36862 2.13022,-0.16043 0.56982,-0.56983 1.69989,-0.5771 2.92367,-0.0188 0.52207,0.23817 1.42363,0.64209 2.00348,0.89762 1.34718,0.59367 2.0618,1.06068 3.91592,2.5591 l 0.75305,0.60858 -0.97897,0.0103 c -0.53844,0.006 -0.97899,-0.13466 -0.97899,-0.3115 0,-0.18032 -0.25476,-0.24067 -0.58008,-0.13741 -0.34761,0.11033 -0.67961,0.0135 -0.82837,-0.24168 -0.22104,-0.37909 -3.31806,-2.0104 -3.81672,-2.0104 -0.10827,0 -0.19685,0.17072 -0.19685,0.37937 0,0.48151 1.13498,1.20551 1.51836,0.96857 0.15894,-0.0983 0.28898,-0.0301 0.28898,0.15111 0,0.18134 0.61849,0.59482 1.37443,0.91885 0.75593,0.32403 1.57892,0.79365 1.82886,1.04358 0.24993,0.24994 0.84341,0.45443 1.31882,0.45443 0.4754,0 0.94815,0.13556 1.05053,0.30122 0.11135,0.18017 -0.27493,0.30491 -0.9612,0.31039 -0.95514,0.008 -1.05534,0.0626 -0.59807,0.32859 0.38925,0.22636 0.78421,0.22284 1.35551,-0.012 0.44342,-0.18232 1.34842,-0.32376 2.01111,-0.31434 0.66269,0.009 1.54377,-0.0416 1.95796,-0.11338 0.41419,-0.0719 1.62694,-0.27832 2.69502,-0.45891 1.14632,-0.19383 2.0472,-0.51641 2.19884,-0.78736 0.39609,-0.70778 0.90916,-0.56845 0.52818,0.14342 -0.17734,0.33135 -0.216,0.61975 -0.086,0.64089 0.13008,0.0212 0.52272,0.0696 0.87254,0.10747 1.24231,0.13486 2.22561,0.47217 2.22561,0.7635 0,0.48482 -1.45155,0.3359 -2.72557,-0.27964 -1.18047,-0.57033 -1.52424,-0.48173 -0.82887,0.21365 0.28113,0.28113 0.24766,0.36147 -0.15063,0.36147 -0.28163,0 -0.51208,-0.13555 -0.51208,-0.30122 0,-0.40391 -0.79361,-0.38133 -1.59072,0.0453 -0.35609,0.19057 -1.87214,0.3863 -3.36896,0.43496 -1.49684,0.0486 -3.08665,0.14434 -3.53293,0.21265 -0.44628,0.0683 -0.92071,0.0195 -1.05428,-0.10826 z M 39.132261,162.28237 c -0.843538,-0.43985 -2.756135,-0.42304 -3.490265,0.0306 -0.155414,0.096 -0.282571,0.0278 -0.282571,-0.15182 0,-0.44363 1.158089,-0.82975 2.259186,-0.75325 0.497016,0.0344 1.203891,0.0803 1.570824,0.1017 0.366934,0.0214 0.812241,0.30994 0.989571,0.64127 0.386925,0.72298 0.145738,0.75327 -1.046745,0.13147 z m 91.042479,-2.1095 c -0.40476,-0.40476 2.12346,-2.35772 4.43426,-3.42531 2.39819,-1.10798 4.04033,-1.50373 6.584,-1.58677 0.6691,-0.0219 1.22457,-0.21078 1.31537,-0.44744 0.12015,-0.31308 0.25542,-0.32814 0.57386,-0.0639 0.5819,0.48293 0.51991,1.13397 -0.11044,1.16022 -0.28993,0.012 -0.86602,0.0298 -1.2802,0.0394 -1.6442,0.038 -4.46338,0.73226 -6.2438,1.53745 -1.03181,0.46663 -2.14433,0.84844 -2.47225,0.84844 -0.32791,0 -0.97475,0.47441 -1.43743,1.05427 -0.8484,1.06331 -1.05179,1.19512 -1.36332,0.8836 z M 10.582261,159.56392 c -0.101781,-0.1018 -0.8762353,-0.27297 -1.7210483,-0.38045 -0.8448011,-0.10747 -1.4975286,-0.33097 -1.4505092,-0.49664 0.090054,-0.31716 0.1477753,-0.31687 3.2483485,0.0165 2.662598,0.2863 6.563309,0.13367 7.571471,-0.29626 0.270993,-0.11556 0.982023,-0.23544 1.58008,-0.2664 0.598047,-0.0309 1.08797,-0.15796 1.088711,-0.28221 7.51e-4,-0.12426 0.225419,-0.22592 0.499283,-0.22592 0.843833,0 -0.737784,1.16974 -1.816863,1.34373 -0.517134,0.0834 -1.414669,0.23459 -1.994534,0.33603 -1.580206,0.27647 -6.792851,0.4637 -7.004939,0.25161 z m 73.123635,-1.29516 c 0.946957,-0.66253 1.656735,-0.82108 1.656735,-0.37011 0,0.14636 -0.305001,0.33227 -0.677763,0.41311 -0.372763,0.0808 -0.948847,0.24648 -1.280204,0.3681 -0.331345,0.12163 -0.195796,-0.0635 0.301232,-0.4111 z m -71.187755,-0.23059 c 0.0732,-0.37994 0.392231,-0.56973 1.006661,-0.59882 0.494751,-0.0234 1.907018,-0.2585 3.138381,-0.52239 1.231351,-0.2639 2.290688,-0.42796 2.354079,-0.36456 0.133988,0.13399 0.721378,-0.36018 3.343422,-2.81277 1.051527,-0.98356 2.415124,-1.98967 3.030225,-2.23579 1.269593,-0.50798 3.761713,-0.70456 4.772403,-0.37643 1.241506,0.40306 0.7001,0.64279 -1.355514,0.60022 -2.164829,-0.0448 -2.79761,0.10359 -2.149448,0.50417 0.575743,0.35582 0.186302,0.61126 -1.030215,0.67573 -0.58172,0.0309 -1.002789,0.11202 -0.935697,0.18047 0.06705,0.0684 -0.294469,0.37768 -0.803452,0.68722 -0.927922,0.56431 -1.386663,0.90756 -2.337127,1.74877 -0.597101,0.52845 -2.08395,1.51268 -2.300547,1.52286 -0.08231,0.003 -0.714832,0.20644 -1.405676,0.45018 -0.690844,0.24374 -1.320529,0.37872 -1.399312,0.29995 -0.07878,-0.0788 -0.396511,-0.008 -0.706065,0.15799 -0.39025,0.20885 -0.562844,0.20015 -0.562844,-0.0284 0,-0.18832 -0.161403,-0.22877 -0.376531,-0.0944 -0.207091,0.12937 -0.529214,0.25847 -0.715823,0.28688 -0.186597,0.0284 -0.6396,0.14697 -1.00666,0.26347 -0.541964,0.17201 -0.647251,0.10724 -0.56026,-0.3444 z m 13.311711,-5.97653 c -0.09495,-0.24757 -0.30854,-0.36618 -0.474543,-0.26358 -0.185584,0.1147 -0.144428,0.28626 0.106904,0.44549 0.548476,0.34753 0.567273,0.33824 0.367673,-0.18191 z m 35.284237,4.24405 c -0.6627,-0.33419 -1.476,-0.62393 -1.807344,-0.64383 -0.691811,-0.0416 -3.395052,-1.23393 -4.066531,-1.79364 -0.248508,-0.20717 -0.969636,-0.54299 -1.602508,-0.74627 -0.632884,-0.2033 -1.223177,-0.55853 -1.311774,-0.78942 -0.08857,-0.23088 -0.279635,-0.34651 -0.424518,-0.25697 -0.144894,0.0896 -0.571223,-0.007 -0.947413,-0.21554 -0.376189,-0.20809 -0.851256,-0.34447 -1.055705,-0.30305 -0.222312,0.045 -0.300161,-0.11112 -0.193691,-0.38864 0.201592,-0.52533 0.464946,-0.58479 0.8817,-0.19911 0.157384,0.14567 0.79448,0.42727 1.415751,0.62582 0.621272,0.19854 1.129594,0.486 1.129594,0.63883 0,0.15282 0.254497,0.27786 0.565565,0.27786 0.311056,0 0.73431,0.20334 0.940548,0.45184 0.206247,0.24851 0.567124,0.45183 0.801947,0.45183 0.70215,0 2.724805,1.14369 2.919371,1.65073 0.144976,0.37781 0.291442,0.40247 0.737147,0.12413 0.440331,-0.27499 0.802609,-0.22935 1.738865,0.2191 0.93629,0.44845 1.872921,0.56646 4.496126,0.56646 1.822407,0 3.402498,0.1231 3.511303,0.27356 0.112141,0.15505 0.653832,0.0572 1.250421,-0.22592 1.287922,-0.61117 1.413371,-0.61623 1.413371,-0.0572 0,0.26948 -0.176601,0.37462 -0.45183,0.26901 -0.248508,-0.0954 -0.451842,-0.0271 -0.451842,0.15157 0,0.21007 -0.949462,0.31603 -2.68515,0.2997 -1.476831,-0.0139 -2.820971,0.0586 -2.986962,0.16125 -0.166003,0.10262 -0.625313,0.0635 -1.020697,-0.0868 -0.395385,-0.15032 -0.915081,-0.17757 -1.154869,-0.0606 -0.239787,0.11702 -0.978185,-0.0607 -1.640875,-0.39486 z m -13.705705,-0.17926 c 0,-0.16568 -0.195318,-0.30122 -0.434059,-0.30122 -0.570061,0 -0.789937,-0.38539 -0.49351,-0.86501 0.190469,-0.30819 0.320916,-0.302 0.657885,0.0311 0.23117,0.22862 0.687599,0.51703 1.01431,0.64092 0.49819,0.18893 0.522485,0.2705 0.150611,0.50568 -0.579091,0.36621 -0.895237,0.36212 -0.895237,-0.0116 z m 24.531386,-0.23654 c 0.06103,-0.41549 0.778291,-0.88432 1.4492,-0.94718 0.520777,-0.0488 0.160469,0.46572 -0.64831,0.9258 -0.78026,0.44385 -0.86321,0.44606 -0.80089,0.0214 z m 74.11952,0.23764 c -0.33134,-0.14265 -0.97521,-0.33937 -1.43081,-0.43719 -0.45561,-0.0978 -0.82837,-0.33792 -0.82837,-0.53357 0,-0.27031 0.0869,-0.26893 0.36147,0.006 0.19881,0.19881 0.78288,0.36147 1.29794,0.36147 0.51505,0 1.19958,0.19901 1.52117,0.44225 0.67078,0.50735 0.11033,0.60545 -0.9214,0.1613 z M 42.588803,155.9035 c 0,-0.14218 -0.503336,-0.4405 -1.118527,-0.66297 -0.615192,-0.22244 -1.302631,-0.58856 -1.527642,-0.81357 -0.22501,-0.22501 -0.636629,-0.41212 -0.914727,-0.4158 -0.278097,-0.003 -0.844506,-0.27177 -1.258686,-0.59576 -0.685823,-0.53644 -0.699713,-0.58964 -0.155574,-0.59574 0.663497,-0.007 3.821893,1.50517 4.940831,2.36624 0.475704,0.36607 0.60302,0.6246 0.37653,0.76459 -0.188214,0.11632 -0.342205,0.0952 -0.342205,-0.047 z m 49.772804,-0.31233 c -0.396363,-0.0641 -0.597738,-0.24696 -0.4806,-0.43649 0.122798,-0.1987 0.06056,-0.23903 -0.159331,-0.10314 -0.198528,0.12269 -0.524465,0.0954 -0.724303,-0.0606 -0.548523,-0.42822 -1.718833,-0.65418 -1.718833,-0.33186 0,0.16985 -0.228517,0.16133 -0.569675,-0.0213 -0.638542,-0.34174 -4.8448,-0.29328 -4.84941,0.0559 -0.0034,0.26489 -1.099913,0.13492 -1.400906,-0.16606 -0.114713,-0.11472 0.07708,-0.20859 0.426306,-0.20859 0.349173,0 0.716471,-0.13203 0.816202,-0.29339 0.206589,-0.33426 6.480859,-0.22973 7.0424,0.11733 0.197641,0.12215 0.78807,0.27635 1.312069,0.34265 1.10819,0.14025 2.044491,0.87263 1.3882,1.08585 -0.219944,0.0715 -0.706897,0.0803 -1.082119,0.0198 z m 31.858943,-0.0671 c 0,-0.16569 0.13555,-0.30123 0.30122,-0.30123 0.16567,0 0.30122,0.13554 0.30122,0.30123 0,0.16567 -0.13555,0.30122 -0.30122,0.30122 -0.16567,0 -0.30122,-0.13555 -0.30122,-0.30122 z m 21.59274,-0.79827 c -0.37607,-0.37605 -0.21369,-0.57582 0.51725,-0.63632 0.43058,-0.0356 0.79892,0.13781 0.91056,0.42875 0.14683,0.38262 0.0995,0.41558 -0.21816,0.15192 -0.2685,-0.22283 -0.50679,-0.23553 -0.70473,-0.0375 -0.1645,0.16448 -0.39171,0.20644 -0.50492,0.0933 z m -72.80085,-0.43489 c 0,-0.18118 0.271095,-0.40032 0.602451,-0.48697 0.331345,-0.0866 0.602441,-0.26189 0.602441,-0.38943 0,-0.20777 0.54703,-0.35622 2.589188,-0.70261 0.34718,-0.0588 0.763592,-0.18888 0.925349,-0.28885 0.161766,-0.0999 0.894347,-0.21665 1.627953,-0.25927 0.733605,-0.0426 1.740481,-0.28356 2.237497,-0.53539 1.422628,-0.72083 7.54919,-0.74643 10.392232,-0.0435 2.992223,0.73988 3.815506,1.08715 3.815506,1.60942 0,0.36734 -0.1169,0.37382 -0.756569,0.0421 -0.416104,-0.21587 -0.867947,-0.32367 -1.004075,-0.23953 -0.13614,0.0841 -0.25822,-0.0922 -0.271301,-0.39195 -0.01491,-0.34091 -0.08254,-0.39836 -0.180688,-0.15346 -0.123367,0.30778 -0.319403,0.285 -0.916982,-0.10656 -0.41804,-0.27391 -0.658625,-0.33388 -0.534643,-0.13327 0.165809,0.26829 0.0362,0.30205 -0.490062,0.12769 -1.482142,-0.49105 -7.995732,-0.83499 -8.242794,-0.43525 -0.08494,0.13749 -0.44665,0.17357 -0.803736,0.0802 -0.477993,-0.125 -0.586035,-0.0676 -0.409604,0.21797 0.160732,0.26008 0.101891,0.33869 -0.178821,0.23877 -0.230157,-0.082 -0.662816,-0.0231 -0.961486,0.13063 -0.298669,0.15379 -1.07622,0.28698 -1.7279,0.29597 -0.701102,0.009 -1.109693,0.13802 -1.000717,0.31433 0.115716,0.18724 -0.157623,0.22292 -0.735381,0.0959 -0.671581,-0.1475 -1.359727,0.007 -2.551857,0.57024 -1.833882,0.86756 -2.026001,0.90955 -2.026001,0.44278 z m 70.48645,-0.0359 c 0,-0.1304 0.34687,-0.23712 0.77083,-0.23712 0.42397,0 0.69239,0.12693 0.59652,0.28207 -0.20704,0.33501 -1.36735,0.29688 -1.36735,-0.0449 z m -99.102743,-0.45634 c -0.248508,-0.0944 -0.843583,-0.4976 -1.322372,-0.89594 -0.478801,-0.39835 -1.054898,-0.65353 -1.280204,-0.56706 -0.225318,0.0864 -0.409661,0.0179 -0.409661,-0.15236 0,-0.17025 -0.135547,-0.22576 -0.301232,-0.12337 -0.165672,0.10231 -0.30122,0.0426 -0.30122,-0.13284 0,-0.17545 -0.203321,-0.319 -0.451831,-0.319 -0.248508,0 -0.451841,-0.11861 -0.451841,-0.26357 0,-0.42137 1.461188,-0.30413 1.83584,0.14729 0.187544,0.22598 0.451444,0.34261 0.586456,0.25917 0.251879,-0.15568 2.843776,1.46964 3.160252,1.98171 0.190754,0.30864 -0.33904,0.34147 -1.064187,0.0659 z m -16.052805,-0.98573 c -0.09722,-0.36991 0.17963,-0.43273 1.527026,-0.34653 1.142026,0.0731 1.583109,0.003 1.44106,-0.22593 -0.112596,-0.18216 -0.02721,-0.33328 0.189615,-0.33582 0.319049,-0.003 0.31758,-0.0533 -0.008,-0.25943 -0.739753,-0.46892 0.697186,-0.59084 1.749373,-0.14842 0.539528,0.22686 1.313197,0.41246 1.719248,0.41246 0.94336,0 1.974179,0.54572 1.741621,0.92203 -0.10588,0.17132 -0.443839,0.10372 -0.828522,-0.16573 -0.829648,-0.5811 -1.419326,-0.58127 -1.419326,-3.9e-4 0,0.3378 -0.32909,0.44862 -1.280203,0.43111 -0.704108,-0.013 -2.052688,0.0196 -2.996845,0.0724 -1.329112,0.0743 -1.743441,-0.006 -1.835362,-0.3558 z m 5.058128,-0.60244 c -0.102353,-0.16567 -0.347602,-0.29914 -0.544924,-0.2966 -0.215561,0.002 -0.178401,0.12115 0.09313,0.2966 0.578692,0.37397 0.682976,0.37397 0.451842,0 z m 1.600254,0.69791 c 0.217439,-0.087 0.477253,-0.0763 0.577349,0.0238 0.100071,0.10005 -0.07787,0.17129 -0.395362,0.15821 -0.350903,-0.0145 -0.422287,-0.0859 -0.181987,-0.182 z m 13.556519,-2.21853 c -0.05852,-0.17573 -0.337333,-0.35338 -0.619462,-0.39478 -0.282127,-0.0414 -0.607244,-0.16958 -0.722493,-0.28483 -0.115238,-0.11525 -0.458035,-0.20954 -0.761772,-0.20954 -0.303736,0 -0.552244,-0.14355 -0.552244,-0.319 0,-0.17544 -0.141492,-0.23156 -0.314428,-0.12468 -0.172923,0.1069 -0.537819,0.0132 -0.810874,-0.20814 -0.354012,-0.28699 -0.431554,-0.29442 -0.270253,-0.0259 0.124413,0.20709 0.155209,0.37653 0.06842,0.37653 -0.08676,0 -0.313494,-0.29094 -0.503802,-0.64652 -0.317422,-0.5931 -0.287184,-0.6293 0.365931,-0.43812 0.391571,0.11463 0.99943,0.24946 1.350824,0.29962 0.886527,0.12654 3.427636,1.38521 3.427636,1.69779 0,0.40453 -0.539278,0.63223 -0.657486,0.27759 z m -19.676455,-1.79501 c -0.103146,-0.16683 -0.0092,-0.35101 0.208149,-0.40929 0.217587,-0.0583 0.879673,-0.26064 1.471286,-0.44971 0.591626,-0.18906 1.32917,-0.34377 1.638998,-0.34377 0.546085,0 0.545812,0.0129 -0.0092,0.41833 -0.314643,0.23008 -0.74721,0.35114 -0.961245,0.26901 -0.214024,-0.0821 -0.389146,-0.003 -0.389146,0.17466 0,0.1782 -0.189614,0.25123 -0.421364,0.1623 -0.23175,-0.0889 -0.510849,-0.017 -0.620224,0.16007 -0.25041,0.40516 -0.673414,0.41365 -0.917686,0.0184 z m 13.932935,0.0957 c -0.289926,-0.0758 -0.52714,-0.24925 -0.52714,-0.38554 0,-0.13628 -0.533882,-0.22052 -1.186404,-0.1872 -0.697641,0.0356 -1.112573,-0.0588 -1.007183,-0.22941 0.104399,-0.16894 -0.09199,-0.21908 -0.470331,-0.12013 -0.357257,0.0935 -0.649552,0.0628 -0.649552,-0.0681 0,-0.37099 0.999886,-0.54111 1.66154,-0.2827 0.328702,0.12839 1.090144,0.24295 1.692106,0.25459 0.83089,0.016 1.132395,0.16625 1.251992,0.62362 0.08664,0.33135 0.06853,0.58672 -0.04018,0.5675 -0.108726,-0.0192 -0.434935,-0.0969 -0.724862,-0.17268 z m 76.059097,-0.79886 c -0.70412,-0.17276 -1.28021,-0.43162 -1.28021,-0.57524 0,-0.14364 -0.13555,-0.17738 -0.30122,-0.0751 -0.16567,0.10231 -0.30122,-0.0342 -0.30122,-0.30374 0,-0.36057 0.16696,-0.43692 0.63243,-0.28919 0.34784,0.11044 0.95818,0.25177 1.35633,0.31417 0.39812,0.0624 1.06682,0.16636 1.48598,0.23106 1.00153,0.15459 1.2823,0.46556 0.73367,0.81253 -0.50351,0.31843 -0.57521,0.31489 -2.32576,-0.1146 z m -85.536447,-0.22102 c -0.683774,-0.23966 0.05488,-0.49464 1.26899,-0.43807 0.497028,0.0231 1.615315,0.0686 2.485107,0.10077 0.86978,0.0322 1.581423,0.16582 1.581423,0.29678 0,0.27053 -4.58001,0.30528 -5.33552,0.0405 z m 85.762367,-1.47358 c -0.97929,-0.2158 -0.99411,-0.23514 -0.20814,-0.27197 0.48894,-0.0228 0.76627,-0.16889 0.65694,-0.34579 -0.10406,-0.16837 -0.31661,-0.2274 -0.47232,-0.13116 -0.3967,0.24517 -1.48261,-0.13948 -1.48261,-0.52518 0,-0.20455 0.46037,-0.25161 1.28021,-0.13085 0.96434,0.14207 1.15014,0.11067 0.75306,-0.12707 -0.75582,-0.45259 -0.69559,-1.28346 0.0753,-1.03878 0.74309,0.23584 0.78267,-0.098 0.0753,-0.63498 -0.46753,-0.35489 -0.39543,-0.40123 0.63759,-0.40972 1.04955,-0.009 1.14759,-0.0751 0.99157,-0.67167 -0.0953,-0.36414 -0.036,-0.82731 0.1316,-1.02926 0.16762,-0.20196 0.34982,-0.75122 0.4049,-1.22057 0.0551,-0.46936 0.11559,-0.94668 0.13448,-1.06072 0.0642,-0.38742 1.68862,-1.96014 2.21821,-2.1476 0.28993,-0.10262 0.52715,-0.39415 0.52715,-0.64785 0,-0.25372 0.13555,-0.46129 0.30123,-0.46129 0.16567,0 0.30122,0.13555 0.30122,0.30123 0,0.53707 1.256,0.32147 1.40304,-0.24085 0.078,-0.29815 0.42193,-0.71705 0.76436,-0.93088 0.58535,-0.36556 0.61094,-0.33765 0.42787,0.46675 -0.18764,0.82447 -0.17737,0.83366 0.28237,0.25314 0.26238,-0.33135 0.58549,-0.79093 0.71801,-1.02128 0.13251,-0.23034 0.39655,-0.32264 0.58674,-0.20511 0.19018,0.11755 0.26781,0.33992 0.1725,0.49415 -0.0953,0.15422 -0.0297,0.2804 0.14569,0.2804 0.17545,0 0.319,-0.27111 0.319,-0.60245 0,-0.33134 0.15006,-0.60246 0.33345,-0.60246 0.18543,0 0.24923,-0.21949 0.14373,-0.49444 -0.15811,-0.41199 -0.11385,-0.43142 0.26567,-0.11647 0.25048,0.20787 0.3887,0.48593 0.30715,0.61787 -0.0816,0.13195 -0.0696,0.445 0.0266,0.69564 0.1529,0.39848 0.24025,0.39243 0.6953,-0.0481 0.28623,-0.27711 0.39993,-0.58664 0.25268,-0.68784 -0.14727,-0.10119 -0.0531,-0.26639 0.20934,-0.36709 0.37931,-0.14556 0.4771,0.033 0.4771,0.8712 0,0.67656 -0.16809,1.1188 -0.46915,1.23432 -0.25803,0.099 -0.40007,0.36004 -0.31565,0.58007 0.11756,0.30634 -0.0135,0.33653 -0.55951,0.12893 -0.54048,-0.2055 -0.75589,-0.15935 -0.89022,0.19073 -0.0975,0.25401 -0.10097,0.58515 -0.008,0.73585 0.0932,0.15074 0.0258,0.27406 -0.14963,0.27406 -0.17545,0 -0.31901,0.20333 -0.31901,0.45184 0,0.48353 -0.0506,0.50932 -1.20489,0.6152 -0.41417,0.038 -1.14789,0.22514 -1.63048,0.41587 -0.66685,0.26359 -0.79335,0.43088 -0.52714,0.69708 0.19266,0.19266 0.35888,0.83149 0.36937,1.41963 0.0161,0.90821 0.0584,0.97186 0.28011,0.42241 0.38905,-0.96422 0.81931,-1.0943 0.9723,-0.29396 0.18337,0.95924 -0.41518,1.69395 -1.38002,1.69395 -0.43733,0 -0.79515,0.13555 -0.79515,0.30122 0,0.16569 -0.27111,0.30124 -0.60245,0.30124 -0.33135,0 -0.60244,0.18752 -0.60244,0.4167 0,0.42636 -1.03251,0.89551 -1.76228,0.80072 -0.22371,-0.029 -0.31737,0.0917 -0.20814,0.26855 0.12125,0.19619 -0.13099,0.33498 -0.64752,0.35632 -0.50923,0.0211 -0.63626,0.0898 -0.31901,0.17269 0.62105,0.16231 0.71563,0.99726 0.11295,0.99726 -0.2278,0 -0.8039,0.0546 -1.2802,0.12135 -0.47632,0.0667 -1.34046,0.0169 -1.92031,-0.11101 z m 1.50612,-0.29385 c 0,-0.15589 -0.11293,-0.35325 -0.25103,-0.43858 -0.13805,-0.0853 -0.25102,0.0423 -0.25102,0.28345 0,0.24122 0.11294,0.43858 0.25102,0.43858 0.13807,0 0.25103,-0.12755 0.25103,-0.28345 z m 3.56761,-2.55263 c 0.34964,-0.34963 0.31218,-0.5135 -0.24466,-1.07036 -0.58183,-0.58181 -0.6471,-0.5942 -0.56695,-0.10758 0.1335,0.81045 -0.26506,1.26781 -0.94896,1.08898 -0.43182,-0.11294 -0.60215,-0.009 -0.60215,0.36715 0,0.43078 0.17439,0.48974 0.97494,0.32964 0.53623,-0.10725 1.16072,-0.38077 1.38778,-0.60783 z m 1.92512,-2.05882 c 0.31174,-0.86846 0.0687,-2.73633 -0.37193,-2.85801 -0.35176,-0.0971 -0.36457,-0.0633 -0.0578,0.15264 0.47289,0.33298 0.20663,1.67975 -0.43782,2.2146 -0.35185,0.29201 -0.36072,0.41039 -0.0457,0.6102 0.54386,0.34499 0.75659,0.31717 0.91332,-0.11943 z m -1.75302,-1.39805 c 0.3173,-0.12438 0.61028,-0.45372 0.65111,-0.73189 0.055,-0.37472 -0.153,-0.50576 -0.8028,-0.50576 -0.73466,0 -0.877,0.12223 -0.877,0.75306 0,0.79603 0.10633,0.84614 1.02869,0.48459 z m 6.58769,5.01371 c -1.37425,-1.17946 -1.66154,-1.55126 -1.29602,-1.67734 0.49763,-0.17167 3.01758,1.77665 3.01758,2.33307 0,0.56134 -0.54564,0.35351 -1.72156,-0.65573 z m 17.0886,-15.84291 c 0.0114,-0.48679 0.56156,-1.00875 0.86538,-0.82097 0.51401,0.31767 0.39934,0.68676 -0.26754,0.86115 -0.33135,0.0866 -0.60038,0.0685 -0.59784,-0.0402 z m 1.20028,-1.21652 c 0,-0.16568 0.13557,-0.38501 0.30123,-0.48739 0.16567,-0.10232 0.30122,-0.0507 0.30122,0.11505 0,0.16567 -0.13555,0.385 -0.30122,0.48739 -0.16566,0.10231 -0.30123,0.0507 -0.30123,-0.11505 z m -0.22591,-2.21938 c 0.069,-0.2071 0.30625,-0.37652 0.52714,-0.37652 0.22089,0 0.4581,0.16942 0.52714,0.37652 0.0746,0.22399 -0.1389,0.37653 -0.52714,0.37653 -0.38824,0 -0.60181,-0.15254 -0.52714,-0.37653 z m 2.78328,-2.33948 c -0.10406,-0.16838 -0.31538,-0.22816 -0.46961,-0.13285 -0.15422,0.0953 -0.28226,0.0636 -0.28452,-0.0703 -0.002,-0.13403 -0.0809,-0.53001 -0.1749,-0.87997 -0.12674,-0.47221 -0.009,-0.6785 0.45565,-0.80008 0.73374,-0.19189 0.96876,0.10015 1.05237,1.30802 0.0608,0.87835 -0.21953,1.15688 -0.57899,0.57526 z m -2.9339,-3.24731 c -0.74908,-0.15061 -0.65223,-0.44032 0.33494,-1.00181 0.86394,-0.4914 1.69804,-0.32196 2.20558,0.44805 0.39562,0.60017 -0.11689,0.82219 -0.82576,0.35771 -0.86622,-0.56756 -0.96578,-0.57514 -1.09022,-0.0831 -0.0537,0.21182 -0.3346,0.33743 -0.62454,0.27913 z"
       style="fill:#000000;stroke-width:1.13849"
       id="path1-2" />
  </g>
</svg>
