<?xml version="1.0" encoding="UTF-8" standalone="no"?>
<!-- Created with Inkscape (http://www.inkscape.org/) -->

<svg
   width="41.769302mm"
   height="18.165054mm"
   viewBox="0 0 41.769302 18.165054"
   version="1.1"
   id="svg1"
   inkscape:version="1.4.2 (2aeb623e1d, 2025-05-12)"
   sodipodi:docname="islands4.svg"
   xmlns:inkscape="http://www.inkscape.org/namespaces/inkscape"
   xmlns:sodipodi="http://sodipodi.sourceforge.net/DTD/sodipodi-0.dtd"
   xmlns="http://www.w3.org/2000/svg"
   xmlns:svg="http://www.w3.org/2000/svg">
  <sodipodi:namedview
     id="namedview1"
     pagecolor="#ffffff"
     bordercolor="#000000"
     borderopacity="0.25"
     inkscape:showpageshadow="2"
     inkscape:pageopacity="0.0"
     inkscape:pagecheckerboard="0"
     inkscape:deskcolor="#d1d1d1"
     inkscape:document-units="mm"
     inkscape:zoom="0.7349537"
     inkscape:cx="288.45354"
     inkscape:cy="500.0315"
     inkscape:window-width="1854"
     inkscape:window-height="1011"
     inkscape:window-x="0"
     inkscape:window-y="0"
     inkscape:window-maximized="1"
     inkscape:current-layer="layer1" />
  <defs
     id="defs1" />
  <g
     inkscape:label="Layer 1"
     inkscape:groupmode="layer"
     id="layer1"
     transform="translate(-28.665009,-16.230409)">
    <path
       style="fill:#000000"
       d="m 59.17196,34.27681 c -0.0828,-0.13405 1.26238,-0.22715 3.1108,-0.21529 1.79122,0.0115 3.1377,0.0612 2.99218,0.11054 -0.66133,0.22409 -5.97287,0.31526 -6.10298,0.10475 z M 57.9066,33.44937 c -0.16752,-0.10692 0.29073,-0.19771 1.01834,-0.20176 0.7276,-0.004 3.10885,-0.0682 5.29166,-0.14245 2.5681,-0.0874 3.77289,-0.0478 3.41378,0.11216 -0.67348,0.30004 -9.29488,0.50578 -9.72378,0.23205 z M 34.98014,32.70849 c -0.28109,-0.1882 0.16544,-0.25242 1.5307,-0.22016 1.06016,0.025 1.98992,0.14644 2.06613,0.26976 0.19625,0.31754 -3.11668,0.27185 -3.59683,-0.0496 z m 4.49792,0.051 c 0,-0.14039 0.62508,-0.30394 1.38906,-0.36344 2.33474,-0.18183 13.29394,-0.2502 13.12563,-0.0819 -0.0868,0.0869 -2.88217,0.21101 -6.21182,0.27591 -3.32965,0.0649 -6.55993,0.18701 -7.17839,0.27134 -0.65184,0.0889 -1.12448,0.046 -1.12448,-0.10192 z m 17.73738,-0.27281 c 0.51822,-0.33332 12.15888,-0.69336 11.68688,-0.36147 -0.18775,0.13202 -2.27134,0.26252 -4.63021,0.29 -2.35886,0.0275 -5.00322,0.11373 -5.87634,0.19166 -1.0996,0.0982 -1.46236,0.0612 -1.18033,-0.12019 z M 34.45098,31.65941 c -0.70632,-0.14867 -0.41182,-0.20319 1.24115,-0.22976 1.19941,-0.0193 2.24022,0.0833 2.33072,0.22976 0.18808,0.30431 -2.12614,0.30431 -3.57187,0 z m 3.83646,-0.39727 c -0.7192,-0.59659 -1.02364,-0.65856 -3.24115,-0.65975 -1.34607,-7.2e-4 -2.44767,-0.0906 -2.448,-0.19975 -3.4e-4,-0.10914 1.08367,-0.15991 2.40891,-0.11281 1.66843,0.0593 2.35552,-0.002 2.23395,-0.19843 -0.10489,-0.16972 -1.17488,-0.28408 -2.65788,-0.28408 -1.4775,0 -2.55313,-0.11458 -2.65725,-0.28306 -0.11833,-0.19145 0.36895,-0.2673 1.50574,-0.23438 2.3169,0.0671 2.66279,0.0285 2.47443,-0.27631 -0.0899,-0.14552 -1.25783,-0.28906 -2.59531,-0.31899 l -2.43178,-0.0544 2.31511,-0.0882 c 3.20014,-0.1219 2.9494,-0.59675 -0.31512,-0.59675 -1.46807,0 -2.70247,-0.1169 -2.79374,-0.26458 -0.10452,-0.16911 0.72045,-0.26459 2.28626,-0.26459 1.72805,0 2.36703,-0.0827 2.16888,-0.2809 -0.15449,-0.15449 -1.24607,-0.27877 -2.42572,-0.27618 -1.17965,0.003 -2.21518,-0.10913 -2.30117,-0.24827 -0.0948,-0.15339 0.73512,-0.25298 2.10822,-0.25298 1.33333,0 2.26457,-0.1088 2.26457,-0.26458 0,-0.15564 -0.92604,-0.26459 -2.24895,-0.26459 -1.23693,0 -2.24896,-0.0902 -2.24896,-0.2004 0,-0.11021 0.96684,-0.15649 2.14853,-0.10282 1.72538,0.0784 2.12496,0.0266 2.02882,-0.26263 -0.0853,-0.25653 -0.71188,-0.37482 -2.17733,-0.41103 -2.76127,-0.0682 -2.91543,-0.34603 -0.19204,-0.34603 1.26412,0 2.16077,-0.1098 2.16077,-0.26459 0,-0.15417 -0.87674,-0.26458 -2.10105,-0.26458 -1.28386,0 -2.17336,-0.11699 -2.28695,-0.30078 -0.13531,-0.21894 0.40037,-0.26684 1.96876,-0.17604 1.68251,0.0974 2.15465,0.0473 2.15465,-0.22839 0,-0.26501 -0.52814,-0.35312 -2.11666,-0.35312 -1.23473,0 -2.11667,-0.11025 -2.11667,-0.26459 0,-0.14581 0.7423,-0.27448 1.65365,-0.28663 0.9095,-0.0121 1.91743,-0.0515 2.23983,-0.0874 0.89666,-0.1 1.16119,0.19398 1.31421,1.46038 0.27783,2.29928 2.33248,5.65276 3.99041,6.51291 0.98953,0.51337 1.29106,0.42079 1.9144,-0.5878 0.49313,-0.79789 0.71275,-0.92604 1.58714,-0.92604 0.55815,0 1.57035,0.23813 2.24932,0.52917 1.88341,0.80732 2.45377,0.71998 2.66541,-0.40818 0.16541,-0.88171 0.22636,-0.92932 1.02698,-0.80208 0.84316,0.134 1.29898,0.25616 2.19459,0.58814 0.25466,0.0944 0.74425,0.34591 1.08799,0.31172 0.42058,-0.0418 0.58697,0.0535 0.50879,0.29139 -0.0639,0.19445 -0.52373,0.38375 -1.02185,0.42066 -1.98806,0.14731 -3.5476,0.2649 -3.5476,0.50507 0,0.14613 1.23528,0.12229 2.39058,0.0703 1.09869,-0.0495 2.04926,-0.006 2.1124,0.0958 0.0631,0.10215 -2.45779,0.27342 -5.60206,0.3806 -3.14426,0.10718 -5.56994,0.28566 -5.39039,0.39663 0.17954,0.11097 0.55139,0.14293 0.82632,0.071 0.27494,-0.0719 0.49988,0.002 0.49988,0.16473 0,0.16249 -0.38695,0.29706 -0.8599,0.29905 -0.47294,0.002 -1.09802,0.0608 -1.38906,0.13059 -0.32024,0.0768 -0.84255,-0.13299 -1.32291,-0.53147 z m 5.22552,-1.11705 c -0.58462,0.0178 -4.03949,-0.028 -2.67913,0.28896 0.46414,0.10812 2.43369,0.0605 3.56452,-0.032 0.94274,-0.0771 -0.20458,-0.27774 -0.88539,-0.25697 z M 42.8956,29.37318 c -0.0755,-0.0266 -0.26679,-0.0951 -0.72761,-0.0951 -0.46082,0 -0.83785,0.12133 -0.83785,0.26962 0,0.2373 2.51476,0.16047 2.12122,0.0216 z m 6.56749,-0.2524 c -0.45917,-0.40315 -2.12314,-0.92811 -1.94609,-0.0573 0.0806,0.39646 0.37045,0.2682 0.98538,0.21466 0.6126,-0.0533 1.04724,-0.0708 0.96071,-0.15733 z m 6.49252,2.50613 c -0.19751,-0.19752 -2.41273,-0.25781 -7.05977,-0.19215 -3.72457,0.0526 -6.77195,0.006 -6.77195,-0.10445 0,-0.1694 8.98033,-0.34125 12.30313,-0.23543 3.02864,0.0964 11.49061,0.006 12.23698,-0.13062 0.54879,-0.10055 0.85989,-0.0512 0.85989,0.13649 0,0.19222 -0.80156,0.29866 -2.3151,0.30742 -2.78481,0.0161 -6.72223,0.20182 -8.02148,0.37834 -0.51912,0.0705 -1.07339,-0.001 -1.2317,-0.1596 z M 68.7972,31.21403 c 0.191,-0.0764 0.4192,-0.067 0.50712,0.0209 0.0879,0.0879 -0.0684,0.15045 -0.34727,0.13897 -0.30822,-0.0127 -0.37092,-0.0754 -0.15985,-0.15986 z M 53.36869,30.30784 c -0.58209,-0.0885 1.26338,-0.17863 4.10104,-0.20031 2.83765,-0.0217 6.85601,-0.11619 8.92968,-0.21002 2.76732,-0.12522 3.77032,-0.0895 3.77032,0.13416 0,0.22 -1.63737,0.31252 -5.88698,0.33265 -3.23784,0.0153 -6.77995,0.0451 -7.87136,0.0661 -1.0914,0.0211 -2.46062,-0.0341 -3.0427,-0.12262 z m -1.1068,-1.06762 c -0.26439,-0.10423 0.73266,-0.19787 2.21566,-0.2081 1.49081,-0.0103 2.76948,-0.13689 2.85989,-0.28318 0.10444,-0.169 -0.70802,-0.26458 -2.24896,-0.26458 -1.3916,0 -2.34917,-0.10245 -2.26286,-0.2421 0.0823,-0.13316 0.91692,-0.22246 1.85471,-0.19844 1.13667,0.0291 1.6169,-0.0445 1.44056,-0.22092 -0.14548,-0.14552 -1.1219,-0.26458 -2.16982,-0.26458 -1.81815,0 -1.90242,0.0272 -1.84227,0.59531 0.0347,0.32742 -0.2302,0.66069 -0.36893,0.66069 -0.13869,0 -0.20994,-0.33327 -0.3781,-0.66069 -0.16816,-0.32742 -0.77149,-1.01203 -1.34073,-1.52136 -0.91337,-0.81723 -1.05734,-1.11183 -1.22525,-2.50728 -0.16577,-1.3776 -0.27542,-1.60757 -0.8514,-1.7856 -0.36362,-0.11239 -1.52877,-0.45558 -2.58922,-0.76263 -1.06045,-0.30705 -2.08526,-0.71543 -2.27733,-0.90751 -0.28926,-0.28926 -0.58694,-0.23911 -1.7333,0.29201 -2.05801,0.95349 -4.28785,1.2139 -8.63536,1.00848 -2.10211,-0.0993 -3.7577,-0.24491 -3.67909,-0.32352 0.0786,-0.0786 0.7054,-0.12395 1.39285,-0.10074 0.68745,0.0232 2.87873,-0.0679 4.8695,-0.20237 3.61054,-0.24397 5.1105,-0.6186 6.11441,-1.52713 0.41984,-0.37995 1.42188,-0.47312 6.75656,-0.62823 9.21478,-0.26793 10.89382,-0.26235 10.89382,0.0362 0,0.16694 -2.02617,0.27551 -5.49011,0.2942 -3.01955,0.0163 -6.6212,0.12068 -8.00364,0.23197 -2.00073,0.16108 -1.245,0.20461 3.70416,0.2134 8.05474,0.0143 8.20203,0.0188 8.20241,0.25262 1.8e-4,0.10914 -2.17271,0.16347 -4.82864,0.12075 -2.65594,-0.0427 -5.48382,0.0326 -6.28418,0.1675 -1.13444,0.19115 -0.0263,0.26264 5.02708,0.32432 l 6.48229,0.0791 -4.36562,0.1798 c -2.4011,0.0989 -4.71289,0.19626 -5.13733,0.21639 -0.42444,0.0201 -0.71056,0.0977 -0.63584,0.17247 0.0747,0.0747 2.20792,0.17224 4.74045,0.21671 4.68219,0.0822 5.5221,-0.0473 6.28777,-0.96991 0.25341,-0.30535 1.09189,-0.38903 3.94948,-0.39417 2.25233,-0.004 3.37697,0.0761 2.9663,0.21154 -0.3638,0.11993 -1.76981,0.22992 -3.12447,0.24443 -1.74518,0.0187 -2.40963,0.11274 -2.27985,0.32273 0.12723,0.20586 1.22279,0.25403 3.5876,0.15774 1.91112,-0.0778 3.46927,-0.0337 3.55224,0.10051 0.12586,0.20365 -1.2467,0.2887 -5.75907,0.35686 -0.41253,0.006 -0.61749,0.10957 -0.48335,0.24371 0.12809,0.12809 1.19787,0.24717 2.37728,0.26461 1.79149,0.0265 2.06954,0.0865 1.68956,0.3643 -0.38129,0.2788 -0.13648,0.3378 1.51397,0.36488 l 1.9688,0.0323 -1.71979,0.33227 c -0.94589,0.18275 -1.66026,0.35807 -1.5875,0.38961 0.0728,0.0315 0.87332,0.0827 1.77903,0.11359 2.24166,0.0766 2.44592,0.42284 0.24944,0.42284 -1.39151,0 -1.76389,0.0838 -1.76389,0.39688 0,0.31722 0.39514,0.39687 1.96876,0.39687 1.08282,0 2.03113,0.10092 2.10735,0.22425 0.0762,0.12334 -0.75018,0.16721 -1.83646,0.0975 -1.69739,-0.10893 -1.97507,-0.0664 -1.97507,0.30243 0,0.36112 0.31526,0.42318 1.98819,0.39138 1.09351,-0.0208 2.06585,0.0399 2.16077,0.13479 0.0949,0.0949 -0.6311,0.17257 -1.61337,0.17257 -1.31211,0 -1.75621,0.0878 -1.67389,0.33073 0.0758,0.22388 0.63971,0.31571 1.7453,0.28425 0.94583,-0.0269 1.56955,0.0566 1.48189,0.19844 -0.0832,0.1347 -0.94801,0.24674 -1.92169,0.24897 -0.97368,0.002 -1.94892,0.12431 -2.1672,0.27129 -0.28048,0.18887 0.2447,0.25376 1.79077,0.22126 1.2032,-0.0253 2.24688,0.0133 2.31929,0.0857 0.15982,0.15983 -4.08088,0.47606 -6.38405,0.47606 -0.91494,0 -1.74006,0.12382 -1.83359,0.27517 -0.11616,0.18795 1.22076,0.23992 4.21772,0.16396 2.43525,-0.0617 4.38778,-0.008 4.38778,0.12171 0,0.1281 -3.24445,0.2456 -7.2099,0.26112 -3.96544,0.0155 -7.94608,0.0496 -8.84586,0.0758 -0.89978,0.0262 -1.85228,-0.0377 -2.11666,-0.14191 z m 7.97039,-0.89657 c 0.33219,-0.25126 1.13593,-0.38846 2.27562,-0.38846 1.71059,0 3.42849,-0.38579 3.42849,-0.76994 0,-0.10395 -0.24276,-0.69147 -0.53948,-1.3056 -0.29672,-0.61413 -0.4698,-1.22935 -0.38464,-1.36715 0.0852,-0.1378 0.0353,-0.47399 -0.1109,-0.74709 -0.19487,-0.36411 -0.79795,-0.5824 -2.26119,-0.81845 -1.0975,-0.17704 -1.99545,-0.42925 -1.99545,-0.56046 0,-0.1312 -0.34928,-0.41917 -0.77618,-0.63993 -0.73472,-0.37994 -0.81871,-0.36558 -1.57271,0.26886 -0.70742,0.59526 -0.94693,0.65029 -2.14091,0.49191 -1.92275,-0.25507 -2.38635,0.20454 -2.09098,2.07301 0.23963,1.51593 0.74342,2.06658 2.33216,2.54914 0.51773,0.15725 1.28727,0.58596 1.71008,0.95268 0.87249,0.75674 1.38754,0.82009 2.12609,0.26148 z m -5.93755,-1.49207 c 0,-0.12062 -0.65485,-0.21931 -1.45521,-0.21931 -0.84117,0 -1.45521,0.11739 -1.45521,0.27818 0,0.16794 0.57671,0.25485 1.45521,0.21931 0.80036,-0.0324 1.45521,-0.15756 1.45521,-0.27818 z M 53.16435,26.1746 c -0.54895,-0.0573 -1.38239,-0.0563 -1.85209,0.002 -0.46969,0.0585 -0.0206,0.10531 0.99809,0.10414 1.01865,-0.001 1.40295,-0.049 0.854,-0.10627 z m -0.83236,-0.60066 c 0.64294,0 1.16924,-0.0893 1.16954,-0.19844 3.1e-4,-0.10914 -0.77433,-0.15848 -1.72141,-0.10964 -1.04002,0.0536 -1.65833,0.19175 -1.56129,0.34877 0.0884,0.14298 0.33696,0.19232 0.55242,0.10964 0.21547,-0.0827 0.9178,-0.15033 1.56074,-0.15033 z m 0.9044,-1.05833 c 0,-0.15119 -0.79375,-0.26459 -1.85208,-0.26459 -1.05833,0 -1.85208,0.1134 -1.85208,0.26459 0,0.15119 0.79375,0.26458 1.85208,0.26458 1.05833,0 1.85208,-0.11339 1.85208,-0.26458 z m 0.20007,-1.16415 c 0.46237,-1.03239 0.14885,-1.2171 -2.06589,-1.2171 -1.65956,0 -2.05782,0.0743 -1.94698,0.3631 0.0965,0.25142 0.67843,0.37479 1.89211,0.40111 2.3838,0.0517 2.4767,0.29412 0.11271,0.29412 -1.34163,0 -1.8956,0.0967 -1.89417,0.33073 0.001,0.22986 0.55883,0.3388 1.82768,0.35721 1.61303,0.0234 1.85467,-0.0382 2.07454,-0.52917 z m 12.49993,-0.9777 c 0,-0.13167 0.55563,-0.2394 1.23473,-0.2394 0.67909,0 1.18511,0.0431 1.12447,0.0959 -0.26655,0.23184 -2.3592,0.35915 -2.3592,0.14351 z M 28.89473,20.81144 c 0,-0.14552 0.60234,-0.26458 1.33853,-0.26458 0.82498,0 1.27579,0.10151 1.17501,0.26458 -0.21332,0.34516 -2.51354,0.34516 -2.51354,0 z m 29.05455,-0.44532 c 0.191,-0.0764 0.4192,-0.067 0.50712,0.0209 0.0879,0.0879 -0.0684,0.15046 -0.34726,0.13897 -0.30823,-0.0127 -0.37092,-0.0754 -0.15986,-0.15985 z M 28.66874,19.8909 c 0.0697,-0.0697 2.91731,-0.18362 6.32795,-0.25309 3.98313,-0.0811 5.82262,-0.0412 5.14283,0.11154 -1.07709,0.24206 -11.70241,0.37318 -11.47078,0.14155 z m 31.44682,-0.13779 c 0.21828,-0.14107 0.81359,-0.24422 1.32292,-0.22923 l 0.92604,0.0272 -0.79375,0.20198 c -0.43656,0.11108 -1.03188,0.21424 -1.32292,0.22922 -0.4354,0.0224 -0.45884,-0.0182 -0.13229,-0.22922 z M 30.34994,18.70905 c 0.7502,-0.21185 22.82026,-0.64137 22.59544,-0.43974 -0.17324,0.15537 -8.05358,0.4261 -15.98086,0.54902 -4.27922,0.0663 -7.07307,0.0202 -6.61458,-0.10928 z m 4.66228,-1.19288 c 0.20893,-0.20893 17.69505,-0.28618 17.69503,-0.0782 -1e-5,0.10914 -4.00846,0.19844 -8.90766,0.19844 -4.8992,0 -8.85352,-0.0541 -8.78737,-0.12027 z m 5.02457,-1.05582 c 0.22552,-0.22552 12.16122,-0.3286 12.29866,-0.10622 0.0761,0.12319 -2.68642,0.22398 -6.139,0.22398 -3.45258,0 -6.22442,-0.053 -6.15966,-0.11776 z"
       id="path34"
       sodipodi:nodetypes="sscsssssssssssssssssssssssssssssscssssscssssscssssssssssssssssscssssssssssssscsssssssssssssssssscssscssssssscsssssssssssssssssssssssssssssssssssssssssssscssssssssssscsssscsscsssssssssssscssssssssssssssssssssssssssscssscscccsssssssssssssssscsssscssssssssssssssssscssssssssssssssssss" />
  </g>
</svg>
