<?xml version="1.0" encoding="UTF-8" standalone="no"?>
<!-- Created with Inkscape (http://www.inkscape.org/) -->

<svg
   width="52.603954mm"
   height="44.17799mm"
   viewBox="0 0 52.603954 44.17799"
   version="1.1"
   id="svg1"
   inkscape:version="1.4.2 (2aeb623e1d, 2025-05-12)"
   sodipodi:docname="islands7.svg"
   xmlns:inkscape="http://www.inkscape.org/namespaces/inkscape"
   xmlns:sodipodi="http://sodipodi.sourceforge.net/DTD/sodipodi-0.dtd"
   xmlns="http://www.w3.org/2000/svg"
   xmlns:svg="http://www.w3.org/2000/svg">
  <sodipodi:namedview
     id="namedview1"
     pagecolor="#ffffff"
     bordercolor="#000000"
     borderopacity="0.25"
     inkscape:showpageshadow="2"
     inkscape:pageopacity="0.0"
     inkscape:pagecheckerboard="0"
     inkscape:deskcolor="#d1d1d1"
     inkscape:document-units="mm"
     inkscape:zoom="0.7349537"
     inkscape:cx="99.325984"
     inkscape:cy="83.67874"
     inkscape:window-width="1854"
     inkscape:window-height="1011"
     inkscape:window-x="0"
     inkscape:window-y="0"
     inkscape:window-maximized="1"
     inkscape:current-layer="layer1" />
  <defs
     id="defs1" />
  <g
     inkscape:label="Layer 1"
     inkscape:groupmode="layer"
     id="layer1"
     transform="translate(-78.845829,-126.47084)">
    <path
       style="fill:#000000"
       d="m 97.1284,170.48402 c -0.32742,-0.0535 -0.59531,-0.21988 -0.59531,-0.36963 0,-0.18154 1.03607,-0.21158 3.10885,-0.0901 4.35466,0.25514 5.11169,0.32949 5.30304,0.52084 0.17074,0.17073 -6.72867,0.11683 -7.81658,-0.0611 z m 5.75469,-1.15044 c -1.09141,-0.0901 -2.85461,-0.17942 -3.91822,-0.19844 -1.36382,-0.0244 -1.87935,-0.12276 -1.74896,-0.33372 0.12518,-0.20256 0.76426,-0.2453 1.9794,-0.13236 0.98698,0.0917 3.20277,0.24188 4.92396,0.33367 1.72119,0.0918 3.30804,0.26884 3.52632,0.39345 0.42535,0.24282 -1.34563,0.21954 -4.7625,-0.0626 z m 3.93669,-0.88245 c -0.0661,-0.0661 -1.54451,-0.19865 -3.28525,-0.29446 -1.74074,-0.0958 -3.5817,-0.27739 -4.09102,-0.40349 -0.94666,-0.23439 -0.55552,-0.22354 6.68073,0.18532 1.70986,0.0966 3.10885,0.27854 3.10885,0.40427 0,0.23156 -2.19171,0.32997 -2.41331,0.10836 z m 1.22268,-1.08694 c -0.29104,-0.0422 -2.64252,-0.22411 -5.22552,-0.40414 -2.64697,-0.1845 -4.69635,-0.4398 -4.69635,-0.58505 0,-0.15402 0.55893,-0.19588 1.38906,-0.10405 0.76399,0.0845 3.05594,0.28947 5.09323,0.45547 3.64137,0.2967 6.58125,0.74316 4.7625,0.72326 -0.43656,-0.005 -1.03187,-0.0433 -1.32292,-0.0855 z m -1.32291,-1.19262 c -1.16417,-0.11503 -3.45556,-0.2472 -5.09198,-0.29372 -2.31087,-0.0657 -2.97559,-0.16608 -2.97656,-0.4495 -0.001,-0.29421 0.37044,-0.32794 1.91698,-0.1741 1.05502,0.10494 3.61149,0.33524 5.68104,0.51176 2.06955,0.17652 3.84557,0.40369 3.9467,0.50483 0.21284,0.21283 -0.533,0.19154 -3.47618,-0.0993 z m 0.79375,-1.05366 c -1.30969,-0.10706 -3.30399,-0.20726 -4.43177,-0.22267 -1.19144,-0.0163 -2.05052,-0.14045 -2.05052,-0.29637 0,-0.1476 0.32742,-0.21602 0.7276,-0.15205 0.40018,0.064 2.98979,0.20139 5.75469,0.30537 2.9295,0.11018 4.80628,0.27627 4.49791,0.39804 -0.60891,0.24046 -1.214,0.23611 -4.49791,-0.0323 z m -8.59896,-0.56109 c 0,-0.12032 0.35719,-0.21876 0.79375,-0.21876 0.43656,0 0.79375,0.046 0.79375,0.10226 0,0.0562 -0.35719,0.15469 -0.79375,0.21876 -0.43656,0.0641 -0.79375,0.0181 -0.79375,-0.10226 z m 16.27187,-0.50612 c -5.28238,-0.4602 -10.55194,-0.80032 -13.16301,-0.84959 -2.034,-0.0384 -2.84427,-0.14573 -2.84428,-0.3768 0,-0.23554 0.51991,-0.29123 1.91823,-0.20547 6.83632,0.41927 6.89674,0.41911 6.53438,-0.0175 -0.19367,-0.23337 -0.69595,-0.39384 -1.15636,-0.36945 -2.57531,0.13644 -7.03166,-0.0418 -7.03166,-0.2812 0,-0.17756 1.3254,-0.23022 3.85159,-0.15302 2.87112,0.0877 3.82465,0.0388 3.74572,-0.19231 -0.11607,-0.33983 -0.28543,-0.35474 -4.62075,-0.40665 -1.63711,-0.0196 -2.97656,-0.14478 -2.97656,-0.27818 0,-0.13339 0.5457,-0.24253 1.21267,-0.24253 1.16575,0 1.66967,-0.16036 1.38825,-0.44178 -0.1542,-0.1542 -2.32185,-0.36184 -6.4161,-0.61459 -2.04977,-0.12654 -2.92313,-0.28104 -3.00619,-0.53182 -0.1185,-0.35784 0.0557,-0.35343 3.77866,0.0958 0.58208,0.0702 2.12989,0.18476 3.43958,0.25449 1.73322,0.0923 2.46286,0.23826 2.68113,0.5364 0.39843,0.54421 1.50786,0.0649 1.91423,-0.82696 0.15845,-0.34776 0.51271,-0.63229 0.78725,-0.63229 0.78741,0 1.8083,0.9634 1.99149,1.87933 0.21111,1.05559 1.91185,2.72314 2.51635,2.46726 0.23557,-0.0997 0.72596,-0.24352 1.08976,-0.31956 0.3638,-0.076 1.322,-0.5846 2.12932,-1.13013 1.09456,-0.73963 1.65022,-0.95702 2.18489,-0.85481 1.67932,0.32102 3.09688,-1.03989 2.55841,-2.45618 -0.35323,-0.92906 -0.32073,-1.20893 0.22237,-1.91474 0.35063,-0.4557 0.80443,-0.63696 1.80222,-0.71987 0.73347,-0.0609 1.61461,-0.21477 1.9581,-0.34183 l 0.62452,-0.23103 -0.87193,-0.85234 c -0.97373,-0.95185 -0.93334,-1.12713 0.29065,-1.26112 1.608,-0.17604 2.77014,-1.49404 1.38266,-1.56809 -1.14689,-0.0612 -1.69562,-0.41957 -1.90875,-1.24651 -0.30454,-1.18168 -1.15076,-1.24545 -2.469,-0.18609 -1.33432,1.07229 -2.06367,0.98347 -2.67899,-0.32626 -0.25637,-0.54571 -0.57452,-0.99219 -0.707,-0.99219 -0.13247,0 -0.42919,-0.0723 -0.65937,-0.1606 -0.2547,-0.0977 -0.41903,-0.0201 -0.41983,0.19844 -7.2e-4,0.19747 -0.28019,0.70756 -0.62104,1.13355 -0.55867,0.69821 -0.76057,0.77009 -2.04921,0.72961 -1.66407,-0.0523 -2.68702,0.56408 -2.44871,1.47539 0.41962,1.60463 -1.63524,2.32793 -4.15101,1.46114 -1.38663,-0.47775 -2.37038,-0.5206 -2.37038,-0.10326 0,0.10866 0.40458,0.67022 0.89906,1.24792 0.85872,1.00322 0.88304,1.08847 0.54194,1.89971 -0.19642,0.46714 -0.54322,0.84935 -0.77066,0.84935 -0.22745,0 -0.64947,0.38695 -0.93783,0.85989 -0.34898,0.57238 -0.52462,0.70508 -0.52528,0.39688 -5.4e-4,-0.25466 -0.0903,-0.47479 -0.19942,-0.48917 -0.10914,-0.0144 -0.67469,-0.0558 -1.25677,-0.092 -6.28836,-0.39115 -7.54063,-0.51399 -7.54063,-0.73966 0,-0.15422 0.45909,-0.19819 1.12448,-0.1077 2.45845,0.33435 8.40052,0.50526 8.40052,0.24162 0,-0.31197 -1.75354,-0.52068 -6.42965,-0.76529 -2.13631,-0.11175 -3.29424,-0.26987 -3.13588,-0.42822 0.21897,-0.21897 6.56137,0.0887 9.50284,0.46093 0.57623,0.0729 0.85644,-0.002 0.85644,-0.23055 0,-0.25238 -1.35128,-0.42967 -5.29166,-0.69425 -2.91042,-0.19543 -5.29167,-0.45397 -5.29167,-0.57454 0,-0.27467 -0.44072,-0.29045 5.23916,0.18759 2.65838,0.22374 4.94834,0.33577 5.0888,0.24896 0.65115,-0.40243 0.11425,-0.6562 -1.39827,-0.66092 -1.87214,-0.006 -8.39704,-0.69692 -8.61228,-0.91215 -0.22226,-0.22227 1.11932,-0.15875 5.03371,0.23833 1.99722,0.20259 3.87246,0.3053 4.16718,0.22822 1.16931,-0.30577 0.4041,-0.54383 -2.3084,-0.71813 -1.56435,-0.10053 -3.38006,-0.23893 -4.0349,-0.30756 -0.65484,-0.0686 -1.70042,-0.16516 -2.3235,-0.21451 -0.62308,-0.0494 -1.2184,-0.18132 -1.32292,-0.29327 -0.10452,-0.11195 0.82199,-0.12844 2.05892,-0.0366 6.42119,0.47655 7.67292,0.51059 7.67292,0.20865 0,-0.17787 -0.43207,-0.30445 -1.03919,-0.30445 -0.57156,0 -1.97054,-0.13235 -3.10886,-0.29411 -1.13831,-0.16175 -2.72451,-0.32717 -3.52487,-0.36759 -0.80037,-0.0404 -1.6706,-0.0867 -1.93384,-0.10276 -0.26325,-0.0161 -0.41206,-0.13702 -0.33068,-0.26869 0.15541,-0.25146 0.5594,-0.22897 4.67751,0.26047 1.39991,0.16638 3.60256,0.31956 4.89479,0.34041 1.29223,0.0208 2.49834,0.13367 2.68024,0.25071 0.1819,0.11703 0.42003,0.15949 0.52917,0.0943 0.10914,-0.0652 0.91208,-0.20043 1.78431,-0.30063 1.80857,-0.20774 2.23814,-0.40309 0.90562,-0.41182 -3.44179,-0.0226 -14.34934,-1.10868 -12.72715,-1.26731 0.48227,-0.0472 1.91102,0.0489 3.175,0.21351 4.89295,0.63713 12.61725,0.63026 9.97107,-0.009 -0.43656,-0.10545 -1.57913,-0.2058 -2.53904,-0.22302 -3.10057,-0.0556 -6.6197,-0.37147 -6.40306,-0.5747 0.11597,-0.10879 1.10382,-0.10845 2.19523,7.6e-4 2.97879,0.29808 7.67291,0.33624 7.67291,0.0624 0,-0.24142 -1.96495,-0.44097 -7.14375,-0.72549 -1.52797,-0.0839 -3.37343,-0.19366 -4.10104,-0.24381 -0.7276,-0.0502 -2.42424,-0.10171 -3.77031,-0.11456 -1.50219,-0.0143 -2.4474,-0.12959 -2.4474,-0.2984 0,-0.28423 0.88519,-0.25887 10.58334,0.30325 7.53527,0.43676 11.52597,0.42674 11.24479,-0.0282 -0.0902,-0.14596 -1.27636,-0.26458 -2.64584,-0.26458 -1.44622,0 -2.55388,-0.1158 -2.65378,-0.27745 -0.11812,-0.19113 0.73037,-0.2223 2.72705,-0.10019 2.03073,0.12419 2.95343,0.0884 3.0819,-0.11943 0.12207,-0.19752 -0.15347,-0.30808 -0.82445,-0.3308 -0.55429,-0.0188 -1.30546,-0.0639 -1.66926,-0.10023 -0.3638,-0.0364 -3.04271,-0.13861 -5.95312,-0.22721 -11.44513,-0.34841 -17.06563,-0.76535 -17.06563,-1.26597 0,-0.13449 0.50602,-0.17969 1.12448,-0.10043 3.50715,0.44943 10.57073,0.83416 19.89839,1.0838 3.48616,0.0933 6.61568,0.27503 6.95449,0.40384 0.3388,0.12881 0.70116,0.21477 0.80526,0.19101 0.43698,-0.0997 3.99471,0.38039 5.21634,0.70394 0.7276,0.19272 2.6388,0.42591 4.2471,0.51821 1.6083,0.0923 3.27518,0.28273 3.70417,0.42317 0.80395,0.26319 -0.16956,0.23492 -5.90075,-0.1713 -1.65106,-0.11703 -2.44739,-0.0826 -2.44739,0.10589 0,0.15365 0.74414,0.35451 1.65364,0.44636 0.90951,0.0918 3.11536,0.30968 4.90189,0.48408 1.81376,0.17705 3.23827,0.43393 3.22566,0.58167 -0.0124,0.14552 -0.22399,0.23452 -0.47013,0.19779 -3.89316,-0.58109 -8.30956,-0.90068 -8.11588,-0.58729 0.0874,0.14146 0.44257,0.25721 0.78919,0.25721 0.34663,0 0.69655,0.1073 0.7776,0.23845 0.0811,0.13114 1.54659,0.31773 3.25676,0.41463 3.47001,0.19662 3.98722,0.29471 3.5993,0.68263 -0.17032,0.17032 -0.93865,0.17032 -2.22705,-1e-5 -3.09877,-0.40967 -4.55527,-0.44354 -4.66809,-0.10857 -0.0682,0.20257 0.9415,0.41019 3.08577,0.6345 1.75294,0.18338 3.18717,0.43375 3.18717,0.55638 0,0.12263 -0.50602,0.15612 -1.12448,0.0744 -2.50475,-0.33089 -6.06527,-0.51052 -6.36334,-0.32104 -0.26728,0.1699 0.76949,0.34504 1.45482,0.24576 0.46102,-0.0668 5.58057,0.74802 5.73138,0.91218 0.0931,0.10137 -0.60458,0.1049 -1.55046,0.008 -4.00545,-0.41103 -6.74963,-0.49746 -6.47702,-0.204 0.14842,0.15978 1.10092,0.35273 2.11666,0.42879 1.01575,0.0761 2.56119,0.25753 3.43431,0.40329 0.87313,0.14577 1.61727,0.26572 1.65365,0.26656 0.0364,8.4e-4 0.0661,0.10281 0.0661,0.2266 0,0.12379 -0.56555,0.13624 -1.25677,0.0277 -0.69123,-0.10857 -2.17951,-0.27695 -3.30729,-0.37416 -1.67367,-0.14427 -2.05052,-0.10804 -2.05052,0.19715 0,0.28923 0.6729,0.41476 2.97175,0.55438 1.63447,0.0993 3.09298,0.31151 3.24115,0.47164 0.19422,0.20991 0.011,0.24048 -0.65665,0.10957 -1.58891,-0.31156 -8.88651,-0.4664 -8.5965,-0.1824 0.14417,0.14118 1.60792,0.3294 3.25279,0.41827 1.64487,0.0889 3.51633,0.25978 4.15881,0.37981 0.64248,0.12003 1.23145,0.15493 1.30881,0.0776 0.0774,-0.0774 0.14067,0.006 0.14067,0.18454 0,0.23932 -0.43669,0.28362 -1.65365,0.16774 -4.37091,-0.41621 -7.93192,-0.62949 -8.28003,-0.49591 -0.6834,0.26225 -0.41056,0.48768 0.60718,0.50167 1.79685,0.0247 5.99945,0.41471 7.07754,0.65678 0.89425,0.2008 0.7917,0.21897 -0.66146,0.11722 -5.85368,-0.40989 -7.67291,-0.45577 -7.67291,-0.19351 0,0.15301 0.8632,0.35659 1.91823,0.4524 2.99983,0.27241 6.13753,0.7022 6.28341,0.86067 0.073,0.0793 -0.64117,0.0705 -1.58706,-0.0195 -4.61106,-0.43894 -6.61458,-0.50444 -6.61458,-0.21624 0,0.4812 0.83426,0.7667 2.375,0.81276 0.79692,0.0238 1.56585,0.1602 1.70872,0.30307 0.16995,0.16996 -0.53678,0.20063 -2.04428,0.0887 -1.89962,-0.14101 -2.30403,-0.10473 -2.30403,0.20671 0,0.21389 0.25823,0.37987 0.59532,0.38264 2.12903,0.0175 3.10885,0.14246 3.10885,0.39644 0,0.20292 -1.09156,0.24765 -3.63802,0.14907 l -3.63802,-0.14082 1.98437,0.35004 c 1.09141,0.19253 2.07804,0.29431 2.19253,0.22619 0.35808,-0.21309 2.30539,0.21616 2.30539,0.50817 0,0.18877 -0.74147,0.21032 -2.3151,0.0673 -3.30849,-0.30072 -4.95074,-0.29897 -5.02885,0.005 -0.0389,0.15168 0.63851,0.28585 1.5875,0.31441 0.91047,0.0274 2.31025,0.11241 3.11062,0.1889 0.80036,0.0765 1.61106,0.14337 1.80155,0.14862 0.19049,0.005 0.27651,0.12252 0.19116,0.26062 -0.0853,0.1381 -0.47933,0.21071 -0.87551,0.16135 -2.64756,-0.32985 -7.4179,-0.44168 -7.58104,-0.17771 -0.1257,0.20338 0.33425,0.30253 1.48728,0.3206 2.17843,0.0342 4.65147,0.33084 4.3151,0.51768 -0.14552,0.0808 -1.21709,0.064 -2.38125,-0.0374 z m -8.59895,-3.41681 c 0,-0.14614 -0.62183,-0.25278 -1.38907,-0.23821 -1.09289,0.0207 -1.24803,0.0715 -0.7276,0.23821 0.95879,0.30706 2.11667,0.30706 2.11667,0 z m -0.8854,-1.0938 c -0.35011,-0.2035 -0.57125,-0.20122 -0.78052,0.008 -0.21295,0.21295 -0.0807,0.28982 0.48852,0.28396 0.68424,-0.007 0.72026,-0.0431 0.292,-0.29201 z m 13.6767,-10.7463 c 0.0674,-0.10914 -0.52089,-0.22676 -1.3073,-0.26136 -0.80754,-0.0355 -1.42984,0.0508 -1.42984,0.19844 0,0.302 2.55326,0.36069 2.73714,0.0629 z m 7.78005,10.34196 c 0.1819,-0.0734 0.47956,-0.0734 0.66146,0 0.1819,0.0734 0.0331,0.13345 -0.33073,0.13345 -0.3638,0 -0.51263,-0.0601 -0.33073,-0.13345 z m -28.00174,-0.19089 c -0.13271,-0.12224 -3.62979,-0.40263 -5.20347,-0.41721 -0.64586,-0.006 -1.12448,-0.13627 -1.12448,-0.30609 0,-0.20527 0.58649,-0.24705 1.91823,-0.13665 1.05503,0.0875 3.01721,0.23568 4.3604,0.32938 1.3432,0.0937 2.37797,0.27426 2.29949,0.40124 -0.13863,0.22431 -2.02906,0.33297 -2.25017,0.12933 z m -6.78593,-8.28391 c 0.25743,-0.0671 0.61462,-0.0627 0.79375,0.01 0.17913,0.0725 -0.0315,0.12736 -0.46806,0.12197 -0.43656,-0.005 -0.58312,-0.0647 -0.32569,-0.13178 z m 2.11163,-0.54332 c -1.68262,-0.0477 -2.97656,-0.19565 -2.97656,-0.34032 0,-0.29965 0.78963,-0.31478 4.29948,-0.0824 1.41882,0.094 2.57968,0.27193 2.57968,0.3955 0,0.12358 -0.20836,0.19923 -0.46302,0.16812 -0.25466,-0.0311 -1.80247,-0.0945 -3.43958,-0.14095 z m 32.08073,-1.68719 c -1.30969,-0.12412 -4.51434,-0.52475 -7.12144,-0.89028 -2.6071,-0.36553 -5.79203,-0.6646 -7.0776,-0.6646 -1.52188,0 -2.33742,-0.10143 -2.33742,-0.2907 0,-0.42677 5.72246,-0.11674 10.05417,0.54471 1.96453,0.29999 4.52437,0.61316 5.68854,0.69594 2.06267,0.14668 4.10104,0.53439 4.10104,0.78004 0,0.13735 -0.0238,0.13609 -3.30729,-0.17511 z m -24.76059,-0.0672 c -0.13803,-0.12502 -8.75254,-0.53414 -10.09827,-0.47959 -0.5457,0.0221 -0.99218,-0.0698 -0.99218,-0.20426 0,-0.21029 4.71335,-0.12905 6.87916,0.11857 0.3638,0.0416 1.64373,0.0892 2.84427,0.10579 1.25871,0.0174 2.18282,0.14218 2.18282,0.29475 0,0.25369 -0.58678,0.37218 -0.8158,0.16474 z m 1.08038,-0.15645 c 0,-0.23384 4.19402,-0.0831 4.47587,0.16087 0.0606,0.0525 -0.92163,0.0954 -2.18282,0.0954 -1.30291,0 -2.29305,-0.11067 -2.29305,-0.2563 z m 27.46837,-0.67394 c -0.0672,-0.0672 -1.0065,-0.18876 -2.08742,-0.27022 -1.08093,-0.0815 -3.69173,-0.31543 -5.80178,-0.51993 -2.11006,-0.2045 -5.20568,-0.44842 -6.87917,-0.54205 -1.67349,-0.0936 -3.51896,-0.20902 -4.10104,-0.25642 -0.58209,-0.0474 -3.20146,-0.1679 -5.82084,-0.26778 -2.61937,-0.0999 -5.23875,-0.23202 -5.82083,-0.29365 -1.99565,-0.21128 -4.49834,-0.24198 -5.42396,-0.0665 l -0.92604,0.17554 1.05833,0.0632 c 0.58209,0.0347 1.77271,0.0894 2.64584,0.12141 0.87312,0.032 3.07578,0.14463 4.89479,0.25022 4.36554,0.25343 6.92608,0.39512 7.38628,0.40873 0.20616,0.006 0.2965,0.0894 0.20077,0.18515 -0.17223,0.17222 -2.74617,0.1423 -4.27976,-0.0498 -0.43656,-0.0547 -3.53219,-0.1802 -6.87917,-0.27894 -3.34697,-0.0987 -6.20447,-0.26802 -6.35,-0.37616 -0.14552,-0.10814 -3.15887,-0.17475 -6.69633,-0.14801 -5.80738,0.0439 -7.56327,-0.0829 -6.17478,-0.44605 0.26641,-0.0697 2.61656,-0.0807 5.22254,-0.0246 4.83192,0.10408 7.12605,-0.0889 6.78027,-0.57034 -0.11822,-0.16461 -1.43976,-0.21459 -3.49732,-0.13229 -3.11384,0.12455 -8.91156,-0.0527 -8.33438,-0.25474 0.14553,-0.051 2.11006,-0.1126 4.36563,-0.137 6.51479,-0.0705 7.19661,-0.11113 7.09264,-0.42304 -0.0644,-0.19324 -1.82565,-0.27565 -5.446,-0.25482 -4.74724,0.0273 -5.35081,-0.0171 -5.35081,-0.39368 0,-0.28804 0.15278,-0.37597 0.47534,-0.2736 1.12473,0.35698 10.37258,0.2454 10.37258,-0.12514 0,-0.1812 -1.73153,-0.26411 -5.09323,-0.24389 -2.80128,0.0169 -5.09323,-0.057 -5.09323,-0.16421 0,-0.10716 2.18573,-0.16726 4.85717,-0.13356 3.93193,0.0496 4.83499,-0.005 4.7407,-0.28888 -0.0893,-0.2685 -1.17568,-0.36703 -4.65873,-0.42254 -2.51265,-0.0401 -4.54226,-0.18041 -4.54226,-0.31413 0,-0.14129 1.62155,-0.18382 3.9026,-0.10236 3.20363,0.1144 3.99612,0.0688 4.42475,-0.25472 0.47289,-0.35692 0.23581,-0.39663 -2.51355,-0.42093 -3.24449,-0.0287 -5.34641,-0.24126 -5.17223,-0.52309 0.0588,-0.0952 0.98037,-0.10452 2.04782,-0.0207 3.77163,0.29632 6.52403,0.11789 6.01614,-0.39001 -0.0626,-0.0627 -1.68563,-0.14232 -3.60661,-0.17703 -1.92097,-0.0347 -3.64573,-0.16971 -3.83278,-0.29998 -0.20315,-0.14148 0.70144,-0.16659 2.24632,-0.0624 2.81091,0.18966 5.74795,-0.0398 5.74795,-0.44898 0,-0.14111 -0.56554,-0.22945 -1.25677,-0.19632 -3.22438,0.15457 -6.4594,-0.0266 -6.33897,-0.35506 0.0667,-0.1819 0.28497,-0.28425 0.48507,-0.22743 0.20009,0.0568 1.97846,0.13619 3.95194,0.17639 3.20436,0.0653 3.61968,0.0226 3.88296,-0.39899 0.27248,-0.4363 0.16097,-0.46977 -1.47148,-0.44169 -3.20643,0.0552 -6.3965,-0.0971 -6.3965,-0.30537 0,-0.11269 1.99857,-0.15907 4.44126,-0.10306 3.84215,0.0881 4.48897,0.0444 4.7949,-0.32427 0.32278,-0.38893 -0.0416,-0.4261 -4.17668,-0.4261 -2.85356,0 -4.53031,-0.0983 -4.53031,-0.26544 0,-0.17362 1.44816,-0.20574 4.18636,-0.0929 2.89992,0.11955 4.34308,0.0816 4.69636,-0.12339 0.63396,-0.36792 0.98756,-0.33879 -6.30303,-0.51932 -1.27331,-0.0315 -2.31522,-0.14662 -2.31537,-0.25576 -1.4e-4,-0.10914 2.02392,-0.15864 4.49792,-0.10999 3.10989,0.0611 4.49818,-1e-4 4.49818,-0.19844 0,-0.19423 -1.37432,-0.28689 -4.25539,-0.28689 -3.29259,0 -4.22794,-0.0748 -4.13411,-0.33073 0.0667,-0.1819 0.28498,-0.28836 0.48507,-0.23657 0.20009,0.0518 2.11997,0.13574 4.26641,0.18659 3.28158,0.0777 3.9026,0.0312 3.9026,-0.29259 0,-0.36849 -2.54389,-0.53954 -7.34785,-0.49406 -0.62158,0.006 -1.09208,-0.10346 -1.04557,-0.24299 0.0511,-0.15326 2.80298,-0.25282 6.95097,-0.25149 4.51198,0.001 6.32207,-0.0694 5.27891,-0.20669 -0.87313,-0.1149 -3.81975,-0.2475 -6.54805,-0.29466 -3.15415,-0.0545 -4.92765,-0.18211 -4.87019,-0.35035 0.0981,-0.28723 1.21374,-0.28609 8.53692,0.009 3.46563,0.13952 4.84278,0.11009 4.97655,-0.10636 0.12612,-0.20407 -0.1777,-0.30494 -0.95514,-0.31712 -0.62705,-0.01 -1.49728,-0.0577 -1.93384,-0.10632 -1.02351,-0.11406 -7.52935,-0.47815 -8.13594,-0.45531 -0.25466,0.01 -0.46302,-0.10775 -0.46302,-0.26075 0,-0.17533 0.41576,-0.22056 1.12448,-0.12235 1.93535,0.26821 11.02339,0.42138 9.85573,0.16611 -0.58209,-0.12725 -1.53459,-0.24005 -2.11667,-0.25066 -0.58208,-0.0106 -1.23693,-0.1444 -1.45521,-0.29731 -0.28238,-0.19781 0.21375,-0.2226 1.71979,-0.0859 1.16417,0.10565 3.48589,0.22373 5.15938,0.26239 3.6128,0.0835 7.08314,0.30554 7.34976,0.47032 0.20137,0.12445 3.61389,0.35735 8.26066,0.56376 3.86348,0.17163 5.45672,0.39388 6.00856,0.8382 0.44871,0.36128 0.44578,0.37431 -0.0554,0.24665 -1.07401,-0.27355 -5.12448,-0.66409 -8.46667,-0.81635 -1.89177,-0.0862 -4.15396,-0.262 -5.02708,-0.39072 -2.32661,-0.34299 -7.89812,-0.57473 -6.74688,-0.28063 0.50933,0.13012 1.87855,0.26189 3.04271,0.29284 1.16417,0.0309 2.35479,0.20061 2.64584,0.37703 0.55271,0.33504 4.13469,0.63389 9.51748,0.79406 3.58803,0.10677 4.98879,0.30633 4.75909,0.678 -0.0869,0.14054 -0.239,0.20841 -0.33809,0.15083 -0.0991,-0.0576 -2.08515,-0.18604 -4.41348,-0.28544 -2.32834,-0.0994 -5.22384,-0.26765 -6.43446,-0.37388 -1.21062,-0.10624 -2.25944,-0.0988 -2.33072,0.0165 -0.0713,0.11533 -0.0333,0.22007 0.0845,0.23276 0.11773,0.0127 0.8689,0.0698 1.66926,0.12703 0.80037,0.0572 1.99099,0.16597 2.64584,0.24174 0.96116,0.11122 3.15317,0.27809 8.68072,0.66084 0.045,0.003 0.0176,0.10945 -0.0608,0.2363 -0.13752,0.22251 -2.74242,0.16132 -4.65119,-0.10927 -0.50932,-0.0722 -1.9976,-0.19603 -3.30729,-0.27517 -1.9924,-0.1204 -2.29484,-0.0889 -1.85208,0.19313 0.63383,0.40369 0.29856,0.34577 4.36562,0.75412 1.81901,0.18264 3.66448,0.43561 4.10104,0.56216 l 0.79375,0.23009 -0.80673,-0.11414 c -0.4437,-0.0628 -2.43799,-0.19876 -4.43177,-0.30217 -2.6566,-0.13779 -3.62504,-0.10706 -3.62504,0.11504 0,0.16669 0.26789,0.30626 0.59531,0.31016 2.98658,0.0356 6.52366,0.38668 7.07761,0.70252 0.61676,0.35166 0.56313,0.36688 -0.79375,0.22519 -1.76546,-0.18435 -5.40217,-0.4716 -6.45647,-0.50998 -1.43565,-0.0523 -1.05671,0.57634 0.42357,0.70263 3.71716,0.31714 7.35581,0.82585 7.35581,1.0284 0,0.27388 0.0165,0.27412 -2.11666,-0.0314 -0.94589,-0.13546 -2.43417,-0.31251 -3.30729,-0.39344 -0.87313,-0.0809 -2.09352,-0.21316 -2.71198,-0.29384 -0.63674,-0.0831 -1.12448,-0.0377 -1.12448,0.10465 0,0.31962 1.13662,0.52595 3.95197,0.7174 1.2277,0.0835 2.30753,0.19837 2.39962,0.25528 0.0921,0.0569 0.75449,0.18179 1.47199,0.27749 0.7175,0.0957 1.36407,0.23631 1.43683,0.31248 0.0728,0.0762 -0.52255,0.0626 -1.32291,-0.0301 -0.80037,-0.0928 -2.49005,-0.24323 -3.75485,-0.33439 l -2.29964,-0.16575 -0.82957,0.82956 c -0.60666,0.60667 -0.71745,0.83846 -0.41234,0.86264 0.22948,0.0182 0.50653,0.0547 0.61567,0.0811 0.10914,0.0264 1.50812,0.15552 3.10885,0.28686 1.60073,0.13135 3.02948,0.2597 3.175,0.28523 0.14552,0.0255 0.49676,0.0602 0.78052,0.0769 0.37698,0.0223 0.43711,0.10935 0.22327,0.3232 -0.21151,0.2115 -0.79488,0.21535 -2.10344,0.0139 -3.20719,-0.49383 -9.98818,-0.92118 -10.75499,-0.67781 -0.79242,0.25151 -0.24798,0.49182 1.22297,0.53982 6.53882,0.21338 10.15294,0.54329 10.40413,0.94972 0.1143,0.18493 -0.29708,0.2188 -1.25647,0.10345 -2.45259,-0.29488 -7.70831,-0.68399 -9.29776,-0.68837 -2.99868,-0.008 -1.4389,0.45017 3.04271,0.89425 5.70835,0.56564 6.03013,0.6088 6.24266,0.83731 0.0954,0.1026 -0.24323,0.11833 -0.75256,0.035 -2.21004,-0.36176 -9.46608,-0.78356 -10.18838,-0.59226 -0.4355,0.11535 -0.67276,0.24954 -0.52724,0.29821 0.53015,0.17731 6.40058,0.70665 8.25123,0.74402 1.04568,0.0211 1.99818,0.14098 2.11667,0.26638 0.18704,0.19794 -4.86005,0.0231 -7.58978,-0.263 -2.7997,-0.29339 -8.20208,-0.42276 -8.20208,-0.19641 0,0.23231 5.46574,0.69976 12.43542,1.06352 1.52797,0.0797 3.4925,0.2352 4.36562,0.34545 l 1.5875,0.20045 -1.5875,0.0237 c -1.54072,0.023 -3.65575,-0.10602 -12.37757,-0.75518 -3.01081,-0.22409 -4.27222,-0.23051 -4.52226,-0.023 -0.437,0.36268 -0.69496,0.11456 -0.69496,-0.66844 0,-0.91602 0.78863,-1.18297 2.97625,-1.00743 1.85303,0.14868 1.97114,0.12371 2.6565,-0.56165 0.39449,-0.39449 0.71725,-1.00122 0.71725,-1.3483 0,-0.9153 1.06305,-1.34915 2.25219,-0.91915 0.71943,0.26015 1.13387,0.25867 2.03745,-0.007 1.39091,-0.40937 2.44079,-1.54537 1.42821,-1.54537 -0.20216,0 -0.63294,-0.2149 -0.9573,-0.47755 l -0.58975,-0.47755 0.82502,-0.82501 c 0.45376,-0.45376 0.82501,-1.01885 0.82501,-1.25575 0,-0.48303 -1.48312,-1.19748 -2.48584,-1.19748 -0.379,0 -0.86803,-0.27622 -1.17105,-0.66145 -0.61756,-0.7851 -2.21911,-0.91099 -3.16457,-0.24876 -0.55118,0.38606 -0.71392,0.3519 -2.52123,-0.52917 -2.56642,-1.25114 -3.25995,-1.24194 -3.79549,0.0503 -0.22615,0.5457 -0.46818,1.05172 -0.53784,1.12448 -0.0697,0.0728 -1.11839,0.13426 -2.3305,0.13666 -1.7722,0.004 -2.31021,0.10065 -2.74699,0.49593 -0.29874,0.27036 -0.52833,0.68511 -0.5102,0.92167 0.0927,1.20896 -0.17353,1.72681 -1.63837,3.18711 -1.85569,1.84994 -2.00631,2.55344 -0.8041,3.75565 0.68054,0.68054 0.7483,0.87572 0.51608,1.48652 -0.39165,1.03009 0.44347,2.07071 1.61497,2.01238 1.21432,-0.0605 1.76503,-0.67137 1.37562,-1.52602 -0.36855,-0.80889 0.15165,-1.47407 1.15279,-1.47407 0.62744,0 1.02025,0.30099 2.09777,1.60739 0.94919,1.15082 1.58817,1.31386 6.1637,1.57275 2.4308,0.13753 5.134,0.31362 6.00713,0.3913 1.39154,0.1238 3.79628,0.30128 11.1125,0.82017 3.36205,0.23845 9.4498,0.86895 9.57223,0.99139 0.0661,0.0661 0.01,0.18848 -0.12501,0.27186 -0.13491,0.0834 -0.30023,0.0967 -0.36739,0.0295 z M 97.9883,144.49434 c -0.0899,-0.14552 -0.69228,-0.26459 -1.33853,-0.26459 -0.64626,0 -1.17501,0.11907 -1.17501,0.26459 0,0.14552 0.60234,0.26458 1.33853,0.26458 0.82498,0 1.27579,-0.10151 1.17501,-0.26458 z m -1.25677,-0.97614 c -0.25466,-0.0666 -0.67138,-0.0666 -0.92604,0 -0.25467,0.0666 -0.0463,0.121 0.46302,0.121 0.50932,0 0.71768,-0.0544 0.46302,-0.121 z m 9.32656,-11.98845 c 0,-0.14552 -0.32742,-0.25271 -0.7276,-0.23821 l -0.72761,0.0264 0.66146,0.21183 c 0.3638,0.11651 0.69122,0.22371 0.7276,0.23821 0.0364,0.0145 0.0661,-0.0927 0.0661,-0.23821 z m 21.4092,14.44847 c -0.13723,-0.12898 -5.92243,-0.48609 -13.35707,-0.8245 -1.75596,-0.0799 -4.85159,-0.3203 -6.87917,-0.53416 -2.02757,-0.21386 -4.13299,-0.38905 -4.67869,-0.38932 -0.5457,-2.7e-4 -0.99219,-0.12863 -0.99219,-0.28525 0,-0.25477 2.29019,-0.18696 4.79442,0.14195 1.5392,0.20216 3.35867,0.42741 4.33371,0.53652 0.58208,0.0651 3.43958,0.18526 6.35,0.26694 5.67767,0.15935 10.64653,0.60101 10.87235,0.9664 0.13724,0.22205 -0.22944,0.32248 -0.44336,0.12142 z m -6.35,-6.61213 c -0.13902,-0.12757 -1.99254,-0.34918 -4.88021,-0.58348 -1.23282,-0.10003 -2.24149,-0.28885 -2.24149,-0.4196 0,-0.26221 3.21046,-0.0479 4.89479,0.32674 0.58208,0.12947 1.44529,0.23831 1.91823,0.24187 0.47294,0.004 0.8599,0.12553 0.8599,0.27105 0,0.26083 -0.33639,0.36056 -0.55122,0.16342 z m -29.47899,-9.953 c -0.99356,-0.1779 -0.96117,-0.19155 0.52916,-0.22299 0.87313,-0.0184 1.7661,0.0819 1.98438,0.22299 0.46888,0.30301 -0.82118,0.30301 -2.51354,0 z m 17.83732,0.16568 c -0.0606,-0.0544 -2.72961,-0.18252 -5.93107,-0.28471 -3.44652,-0.11002 -5.92876,-0.29844 -6.08542,-0.46193 -0.1836,-0.1916 0.82873,-0.21471 3.30729,-0.0755 4.33619,0.24354 6.30401,0.33188 8.15155,0.36596 0.86332,0.0159 1.34166,0.12788 1.24116,0.2905 -0.166,0.26859 -0.48311,0.34546 -0.68351,0.16568 z M 89.91851,129.1485 c 0,-0.14552 0.11906,-0.26458 0.26458,-0.26458 0.14552,0 0.26458,0.11906 0.26458,0.26458 0,0.14552 -0.11906,0.26459 -0.26458,0.26459 -0.14552,0 -0.26458,-0.11907 -0.26458,-0.26459 z m 20.04673,-0.41438 c -0.17463,-0.17462 -9.04314,-0.64753 -14.02746,-0.74801 -0.25466,-0.005 -0.46302,-0.1763 -0.46302,-0.38037 0,-0.25682 0.18326,-0.32073 0.59531,-0.2076 1.00038,0.27464 7.19983,0.60658 12.43542,0.66583 1.2733,0.0144 2.3151,0.13252 2.3151,0.26248 0,0.26272 -0.67743,0.5856 -0.85535,0.40767 z m 1.09788,-1.27377 c -0.13103,-0.11963 -12.61396,-0.49614 -14.99305,-0.45222 -0.96017,0.0177 -1.65365,-0.0819 -1.65365,-0.23747 0,-0.33521 -0.10612,-0.32893 4.49792,-0.26635 10.17258,0.13828 13.12026,0.32617 12.81693,0.81697 -0.1532,0.24788 -0.47549,0.31497 -0.66815,0.13907 z"
       id="path33" />
  </g>
</svg>
