<?xml version="1.0" encoding="UTF-8" standalone="no"?>
<!-- Created with Inkscape (http://www.inkscape.org/) -->

<svg
   width="31.08869mm"
   height="15.90743mm"
   viewBox="0 0 31.08869 15.90743"
   version="1.1"
   id="svg1"
   inkscape:version="1.4.2 (2aeb623e1d, 2025-05-12)"
   sodipodi:docname="islands5.svg"
   xmlns:inkscape="http://www.inkscape.org/namespaces/inkscape"
   xmlns:sodipodi="http://sodipodi.sourceforge.net/DTD/sodipodi-0.dtd"
   xmlns="http://www.w3.org/2000/svg"
   xmlns:svg="http://www.w3.org/2000/svg">
  <sodipodi:namedview
     id="namedview1"
     pagecolor="#ffffff"
     bordercolor="#000000"
     borderopacity="0.25"
     inkscape:showpageshadow="2"
     inkscape:pageopacity="0.0"
     inkscape:pagecheckerboard="0"
     inkscape:deskcolor="#d1d1d1"
     inkscape:document-units="mm"
     inkscape:zoom="0.7349537"
     inkscape:cx="299.33858"
     inkscape:cy="470.09764"
     inkscape:window-width="1854"
     inkscape:window-height="1011"
     inkscape:window-x="0"
     inkscape:window-y="0"
     inkscape:window-maximized="1"
     inkscape:current-layer="layer1" />
  <defs
     id="defs1" />
  <g
     inkscape:label="Layer 1"
     inkscape:groupmode="layer"
     id="layer1"
     transform="translate(-25.92918,-24.077085)">
    <path
       style="fill:#000000"
       d="m 33.46705,39.75903 c 0.53895,-0.21044 6.22454,-0.10611 6.44899,0.11834 0.0684,0.0684 -1.47306,0.11599 -3.42547,0.10576 -1.98246,-0.0104 -3.31745,-0.10933 -3.02352,-0.2241 z m -0.39401,-0.81886 -1.71979,-0.13552 1.32291,-0.18231 c 1.53405,-0.2114 7.99024,-0.11127 8.22914,0.12763 0.21704,0.21703 -5.67571,0.36013 -7.83226,0.1902 z m -3.43959,-1.05782 c 0,-0.3381 7.33319,-0.33293 7.54224,0.005 0.0731,0.11822 -1.59405,0.22934 -3.7047,0.24695 -2.57901,0.0215 -3.83754,-0.0612 -3.83754,-0.25227 z m 19.22877,-0.43903 c -0.0264,-0.0247 -1.53595,-0.14302 -3.35454,-0.26299 -3.63057,-0.2395 -10.52322,-0.23192 -14.73428,0.0162 -1.48309,0.0874 -2.75138,0.0697 -2.81842,-0.0393 -0.067,-0.109 0.71996,-0.22817 1.74889,-0.2648 1.02894,-0.0366 1.93659,-0.13241 2.01701,-0.21283 0.34487,-0.34487 -0.76124,-0.63879 -2.41816,-0.64255 -1.09721,-0.002 -1.78593,-0.11398 -1.78593,-0.2891 0,-0.18527 0.55939,-0.24365 1.59805,-0.16677 1.10725,0.082 1.56734,0.0273 1.49806,-0.17798 -0.055,-0.16293 -0.6253,-0.3008 -1.26733,-0.30638 -2.04815,-0.0178 -2.98026,-0.1172 -2.79891,-0.29856 0.097,-0.097 0.95031,-0.14835 1.89618,-0.11406 1.08294,0.0393 1.71978,-0.0424 1.71978,-0.22047 0,-0.16485 -0.63456,-0.29382 -1.52135,-0.30919 -1.59158,-0.0276 -3.35726,-0.40571 -2.31511,-0.49578 0.29104,-0.0251 1.36261,-0.0346 2.38125,-0.0209 1.01865,0.0136 2.20927,-0.0865 2.64584,-0.22249 0.91883,-0.28623 1.10224,-0.25872 -2.87639,-0.43146 -3.30365,-0.14343 -3.18569,-0.39046 0.18645,-0.39046 1.7051,0 2.82223,-0.10473 2.82223,-0.26458 0,-0.14552 -0.68461,-0.27636 -1.52136,-0.29075 -0.83674,-0.0144 -2.1762,-0.12517 -2.97656,-0.24618 -1.18439,-0.17907 -0.94825,-0.20437 1.26887,-0.13598 1.95039,0.0602 2.69494,-0.001 2.62149,-0.21685 -0.0564,-0.16547 -0.44881,-0.31069 -0.87199,-0.32269 -0.42317,-0.012 -1.51355,-0.0418 -2.42306,-0.0661 -0.9095,-0.0244 -1.65364,-0.16251 -1.65364,-0.30697 0,-0.16666 0.83651,-0.20055 2.28902,-0.0927 1.69331,0.12569 2.2401,0.0908 2.10105,-0.13423 -0.11634,-0.18824 -0.997,-0.30414 -2.31107,-0.30414 -1.58677,0 -2.09247,-0.0835 -2.00183,-0.33072 0.0667,-0.18191 0.25175,-0.30212 0.41124,-0.26715 0.15948,0.035 1.12686,0.14137 2.14974,0.23643 1.3199,0.12267 1.85976,0.085 1.85976,-0.12973 0,-0.19439 -0.59128,-0.30387 -1.65364,-0.30619 -1.83425,-0.004 -2.90534,-0.21269 -2.71042,-0.52809 0.0704,-0.11382 0.57503,-0.10454 1.12151,0.0206 0.54648,0.12517 3.57736,0.20207 6.7353,0.17089 3.82807,-0.0378 5.65335,0.0315 5.47661,0.20789 -0.14729,0.14701 -1.67815,0.26459 -3.44489,0.26459 -2.71667,0 -3.07116,0.0464 -2.4339,0.31879 0.93577,0.39995 11.81236,0.4758 11.19693,0.0781 -0.26458,-0.17099 -0.28663,-0.25783 -0.0661,-0.26053 0.1819,-0.002 0.33073,-0.12311 0.33073,-0.26864 0,-0.15434 -0.88195,-0.26458 -2.11667,-0.26458 -1.16417,0 -2.11667,-0.10988 -2.11667,-0.24418 0,-0.14082 0.83998,-0.18065 1.98438,-0.0941 1.40082,0.10594 1.98437,0.061 1.98437,-0.1527 0,-0.19847 -0.63801,-0.30277 -1.85208,-0.30277 -1.01865,0 -1.85208,-0.11368 -1.85208,-0.25261 0,-0.14009 0.76626,-0.22849 1.72014,-0.19844 0.94608,0.0298 1.71998,-0.0351 1.71979,-0.14426 -1.9e-4,-0.10914 -0.44683,-0.20006 -0.99254,-0.20205 -1.12673,-0.004 -2.18317,-0.24147 -2.18206,-0.49027 4.1e-4,-0.0922 1.90541,-0.17851 4.23333,-0.19187 2.32793,-0.0134 4.23259,0.0759 4.23259,0.19844 0,0.1225 -0.66187,0.22273 -1.47083,0.22273 -1.01111,0 -1.41404,0.0919 -1.28915,0.29394 0.11315,0.18309 0.76176,0.25198 1.71988,0.18268 0.84602,-0.0612 1.47864,-0.0149 1.40583,0.10293 -0.0728,0.11781 -0.72066,0.2142 -1.43968,0.2142 -1.51405,0 -1.79638,0.50962 -0.31511,0.56881 0.79809,0.0319 0.84985,0.0612 0.26458,0.14986 -0.40018,0.0606 -0.72761,0.23672 -0.72761,0.39132 0,0.18407 0.45352,0.22094 1.31385,0.10681 1.36566,-0.18116 2.39032,0.17516 2.39032,0.83122 0,0.22752 0.46161,0.33323 1.45521,0.33323 1.78238,0 1.93547,0.4623 0.19844,0.59927 -1.24289,0.098 -1.23996,0.0996 0.26458,0.14679 0.83675,0.0262 1.52135,0.16508 1.52135,0.30855 0,0.15271 -0.66444,0.22324 -1.6026,0.1701 -1.13004,-0.064 -1.51982,-0.008 -1.32183,0.19002 0.15443,0.15443 0.66724,0.25671 1.13958,0.22731 0.47235,-0.0294 1.216,0.0551 1.65256,0.18783 0.66662,0.20266 0.50771,0.24495 -0.99218,0.26405 -0.99908,0.0127 -1.78594,0.13932 -1.78594,0.28733 0,0.15268 0.83264,0.26458 1.96876,0.26458 1.11912,0 2.04465,0.12279 2.14461,0.28453 0.12295,0.19894 -0.40096,0.23166 -1.74151,0.10879 -1.72347,-0.15797 -1.9002,-0.13104 -1.74773,0.26628 0.0933,0.24311 0.16962,0.55134 0.16962,0.68496 0,0.13362 0.26789,0.24799 0.59531,0.25415 0.32742,0.006 1.25016,0.17729 2.05052,0.38027 l 1.45521,0.36906 -2.18281,-0.15372 c -1.55135,-0.10926 -2.18282,-0.0662 -2.18282,0.14889 0,0.16644 0.14883,0.31219 0.33073,0.32388 0.1819,0.0117 0.92605,0.0517 1.65365,0.089 1.86358,0.0954 1.98437,0.12134 1.98437,0.4263 0,0.17375 -0.64492,0.21933 -1.78593,0.12622 -1.30167,-0.10621 -1.62452,-0.0746 -1.19063,0.1164 0.70253,0.30934 0.79975,0.63786 0.13229,0.44705 -1.01149,-0.28916 -6.02082,-0.44944 -5.62239,-0.17989 0.21828,0.14767 0.96242,0.27032 1.65364,0.27255 0.69123,0.002 1.25677,0.11122 1.25677,0.2422 0,0.18829 -2.01156,0.29228 -2.20248,0.11386 z M 37.11365,36.06695 c 0.1642,-0.16421 0.54263,-0.30089 0.84095,-0.30373 0.44355,-0.004 0.34418,-0.17143 -0.5453,-0.91743 -1.05532,-0.88511 -1.07899,-0.94008 -0.79516,-1.84691 0.1609,-0.51406 0.38247,-0.93465 0.49239,-0.93465 0.53478,0 0.0975,-0.45987 -0.71748,-0.75457 -0.68556,-0.24791 -1.05646,-0.25725 -1.46802,-0.037 -0.46521,0.24897 -0.69387,0.16901 -1.47313,-0.5152 -0.50734,-0.44545 -1.0076,-0.8251 -1.11167,-0.84368 -1.05504,-0.18826 -1.39695,-0.12782 -1.26228,0.22312 0.0808,0.2107 0.147,0.53558 0.147,0.72195 0,0.18637 0.35719,0.78832 0.79375,1.33766 0.91961,1.15718 0.9822,1.45521 0.30559,1.45521 -0.26848,0 -0.70962,0.24471 -0.98029,0.5438 -0.4832,0.53394 -0.47782,0.55718 0.29689,1.28121 0.43397,0.40557 0.9644,0.81356 1.17873,0.90664 0.60789,0.26399 3.96475,0.0168 4.29803,-0.31643 z m 7.74892,0.0797 c -0.55585,-0.40933 -5.25248,-0.53951 -6.49787,-0.1801 -0.59902,0.17288 -0.56156,0.20619 0.39688,0.35296 0.58208,0.0891 2.30849,0.1718 3.83646,0.18371 2.46869,0.0192 2.72092,-0.0205 2.26453,-0.35657 z m 3.15299,-0.45608 c 0.2875,-0.14808 1.19286,-0.24506 2.01191,-0.21551 1.29964,0.0469 1.54067,-0.0248 1.89363,-0.5635 0.37597,-0.57381 0.35853,-0.67061 -0.24788,-1.37561 -0.52448,-0.60975 -0.61933,-0.93423 -0.48397,-1.65576 0.0926,-0.49356 0.0896,-1.14558 -0.007,-1.44892 -0.15945,-0.50236 -0.32398,-0.53957 -1.84562,-0.41743 -1.54548,0.12406 -1.6813,0.0914 -1.81377,-0.43642 -0.0788,-0.31379 -0.50554,-0.91767 -0.94841,-1.34197 -0.6234,-0.59725 -0.87644,-0.70021 -1.12068,-0.45597 -0.24424,0.24424 -0.18476,0.62485 0.26342,1.68567 0.31839,0.75361 0.54085,1.40825 0.49435,1.45475 -0.15477,0.15477 -1.35505,0.11772 -2.10588,-0.065 -0.70594,-0.17181 -0.73293,-0.14431 -0.56981,0.58066 0.0942,0.41856 0.52037,1.08984 0.94711,1.49173 0.66049,0.62202 0.73188,0.81296 0.47995,1.28368 -0.24945,0.46611 -0.18142,0.67252 0.43303,1.31387 0.75194,0.78485 1.34455,0.82235 2.61931,0.16575 z m 4.43821,0.42031 c -0.32743,-0.0631 -0.86321,-0.0631 -1.19063,0 -0.32742,0.0631 -0.0595,0.11466 0.59531,0.11466 0.65485,0 0.92274,-0.0516 0.59532,-0.11466 z m -8.40052,-1.1362 c 0.10509,-0.17004 -0.84031,-0.26458 -2.64584,-0.26458 -1.80553,0 -2.75092,0.0945 -2.64583,0.26458 0.0902,0.14597 1.27636,0.26459 2.64583,0.26459 1.36947,0 2.55562,-0.11862 2.64584,-0.26459 z m 0.13179,-0.85989 c 2.7e-4,-0.10914 -0.42325,-0.19844 -0.94116,-0.19844 -0.51791,0 -0.87794,-0.10309 -0.80006,-0.2291 0.0779,-0.126 0.44209,-0.17166 0.80936,-0.10145 0.39149,0.0748 0.66777,0.005 0.66777,-0.16777 0,-0.19003 -0.67646,-0.29543 -1.89618,-0.29543 -1.0429,0 -1.81592,-0.0802 -1.71783,-0.17834 0.0981,-0.0981 0.83945,-0.16596 1.64747,-0.15081 1.02147,0.0191 1.4371,-0.0676 1.36402,-0.28468 -0.0578,-0.17172 -0.43551,-0.27217 -0.83935,-0.22323 -0.47809,0.0579 -0.67227,-0.0113 -0.55661,-0.19844 0.0977,-0.15808 0.3492,-0.28742 0.55889,-0.28742 0.20969,0 0.38128,-0.0893 0.3813,-0.19843 5e-5,-0.25525 -4.56137,-0.0828 -4.84191,0.18306 -0.11642,0.11032 0.57017,0.20058 1.52576,0.20058 0.95559,0 1.81482,0.0774 1.90941,0.17198 0.0946,0.0946 -0.80739,0.17198 -2.0044,0.17198 -1.24805,0 -2.11259,0.10322 -2.02682,0.24199 0.0823,0.13309 -2e-5,0.29232 -0.18283,0.35384 -0.26038,0.0876 -0.25372,0.20716 0.0308,0.55177 0.19972,0.24195 0.25925,0.44827 0.13229,0.4585 -0.12696,0.0102 0.007,0.12633 0.29834,0.25801 0.62378,0.28222 6.48107,0.21158 6.48179,-0.0782 z m -5.75419,-0.38795 c 0.40018,-0.0606 1.05503,-0.0606 1.45521,0 0.40018,0.0606 0.0728,0.11023 -0.72761,0.11023 -0.80036,0 -1.12778,-0.0496 -0.7276,-0.11023 z m 2.53008,0.009 c 0.19099,-0.0764 0.4192,-0.067 0.50712,0.0209 0.0879,0.0879 -0.0683,0.15045 -0.34727,0.13896 -0.30822,-0.0127 -0.37092,-0.0754 -0.15985,-0.15985 z m -2.86081,-0.87759 c -0.30816,-0.19915 -0.23074,-0.25739 0.34634,-0.26053 0.42892,-0.002 0.67407,0.10784 0.5797,0.26053 -0.20303,0.32851 -0.4177,0.32851 -0.92604,0 z m 2.70716,-1.85209 c 2.83159,0 2.05299,-0.19123 -1.35803,-0.33354 -2.92991,-0.12224 -2.99869,-0.11242 -2.39587,0.34229 0.46123,0.3479 0.78171,0.4069 1.24778,0.2297 0.34494,-0.13115 1.47269,-0.23845 2.50612,-0.23845 z M 54.90116,34.448 c -0.7276,-0.10539 -1.41221,-0.14199 -1.52135,-0.0813 -0.10914,0.0607 -0.19844,-0.0168 -0.19844,-0.17221 0,-0.3314 2.8956,-0.0808 3.29406,0.28506 0.15875,0.14577 0.15875,0.21778 0,0.19545 -0.13824,-0.0194 -0.84666,-0.12158 -1.57427,-0.22698 z M 41.27512,29.68325 c -0.83972,-0.17675 -0.79039,-0.19779 0.52917,-0.2257 0.80036,-0.0169 1.6338,0.0846 1.85208,0.2257 0.47556,0.30733 -0.92118,0.30733 -2.38125,0 z m 10.58318,0.0661 c -2e-4,-0.23983 1.79018,-0.21639 2.0332,0.0266 0.0945,0.0945 -0.32428,0.17182 -0.93062,0.17182 -0.60633,0 -1.1025,-0.0893 -1.10258,-0.19844 z M 27.05377,28.44473 c -0.61847,-0.0632 -1.12453,-0.19732 -1.12459,-0.29809 -6e-5,-0.10077 3.15489,-0.18322 7.01101,-0.18322 3.85612,0 7.01133,0.0893 7.01157,0.19843 2.4e-4,0.10914 -0.14838,0.20328 -0.33029,0.20918 -3.41837,0.11105 -11.72526,0.15976 -12.5677,0.0737 z m 4.56141,-1.20086 c -0.87167,-0.10471 -2.0611,-0.30684 -2.64319,-0.44918 -0.91166,-0.22292 -0.82,-0.23832 0.66146,-0.1111 0.94589,0.0812 3.54091,0.14896 5.76671,0.15052 2.2258,0.002 3.97257,0.0777 3.88171,0.1692 -0.26761,0.26946 -5.94349,0.44756 -7.66669,0.24056 z m 12.27158,-0.91648 c -1.71312,-0.22922 -2.38284,-0.418 -2.18308,-0.61536 0.13007,-0.12851 1.00922,-0.1332 1.99128,-0.0106 0.96711,0.12072 2.78281,0.2028 4.0349,0.18241 1.25208,-0.0204 2.27652,0.0448 2.27651,0.14485 0,0.1631 -5.22648,0.41821 -6.11961,0.29871 z m -6.58039,-0.25776 c -2.8362,-0.14835 -6.89996,-0.70393 -7.06158,-0.96544 -0.0902,-0.14588 -0.0494,-0.19447 0.0905,-0.10796 0.24132,0.14914 3.67234,0.3916 8.02936,0.5674 1.09141,0.044 2.04391,0.10435 2.11667,0.13404 0.23392,0.0955 -0.91195,0.50984 -1.32292,0.47842 -0.21828,-0.0167 -1.05172,-0.0646 -1.85208,-0.10646 z m 6.87917,-1.0275 c -0.90218,-0.35802 -0.87832,-0.36481 0.92604,-0.26345 1.01864,0.0572 2.3581,0.11258 2.97656,0.12303 0.61847,0.0104 1.12448,0.13806 1.12448,0.28358 0,0.39708 -3.94912,0.28461 -5.02708,-0.14316 z m -2.11667,-0.38601 c 0,-0.14552 0.23813,-0.26458 0.52917,-0.26458 0.29104,0 0.52916,0.11906 0.52916,0.26458 0,0.14553 -0.23812,0.26459 -0.52916,0.26459 -0.29104,0 -0.52917,-0.11906 -0.52917,-0.26459 z m 3.96875,-0.24915 c -0.52905,-0.15708 -0.37888,-0.21801 0.75021,-0.30435 0.92492,-0.0707 1.50627,0.006 1.68604,0.22278 0.21193,0.25546 0.0412,0.32472 -0.75021,0.30435 -0.56352,-0.0145 -1.32224,-0.11475 -1.68604,-0.22278 z"
       id="path28" />
  </g>
</svg>
