<?xml version="1.0" encoding="UTF-8" standalone="no"?>
<!-- Created with Inkscape (http://www.inkscape.org/) -->

<svg
   width="57.710255mm"
   height="32.163689mm"
   viewBox="0 0 57.710255 32.163689"
   version="1.1"
   id="svg1"
   inkscape:version="1.4.2 (2aeb623e1d, 2025-05-12)"
   sodipodi:docname="islands1.svg"
   xmlns:inkscape="http://www.inkscape.org/namespaces/inkscape"
   xmlns:sodipodi="http://sodipodi.sourceforge.net/DTD/sodipodi-0.dtd"
   xmlns="http://www.w3.org/2000/svg"
   xmlns:svg="http://www.w3.org/2000/svg">
  <sodipodi:namedview
     id="namedview1"
     pagecolor="#ffffff"
     bordercolor="#000000"
     borderopacity="0.25"
     inkscape:showpageshadow="2"
     inkscape:pageopacity="0.0"
     inkscape:pagecheckerboard="0"
     inkscape:deskcolor="#d1d1d1"
     inkscape:document-units="mm"
     inkscape:zoom="0.7349537"
     inkscape:cx="346.96063"
     inkscape:cy="527.24409"
     inkscape:window-width="1854"
     inkscape:window-height="1011"
     inkscape:window-x="0"
     inkscape:window-y="0"
     inkscape:window-maximized="1"
     inkscape:current-layer="layer1" />
  <defs
     id="defs1" />
  <g
     inkscape:label="Layer 1"
     inkscape:groupmode="layer"
     id="layer1"
     transform="translate(-13.493749,-8.9958427)">
    <path
       style="fill:#000000"
       d="m 34.721666,40.93611 c -0.69391,-0.0975 -1.76548,-0.41767 -2.38125,-0.71156 -0.65935,-0.31469 -1.77216,-0.55866 -2.70708,-0.59348 -1.77204,-0.066 -2.24896,-0.18006 -2.24896,-0.53781 0,-0.14155 0.72062,-0.16982 1.71979,-0.0675 1.21247,0.12422 1.71979,0.0874 1.71979,-0.12492 0,-0.17496 -0.47115,-0.30891 -1.12448,-0.31972 -0.61846,-0.0102 -1.3626,-0.12366 -1.65364,-0.25207 -0.34927,-0.15411 0.033,-0.19488 1.12448,-0.11994 1.32745,0.0912 1.65364,0.0371 1.65364,-0.27397 0,-0.21313 -0.20836,-0.37006 -0.46302,-0.34871 -1.02843,0.0862 -2.78952,-0.0557 -2.63309,-0.21213 0.0919,-0.0919 0.88565,-0.15085 1.76389,-0.13099 0.9173,0.0207 1.5968,-0.077 1.5968,-0.22979 0,-0.14829 -0.69522,-0.26589 -1.57188,-0.26589 -0.86454,0 -1.64296,-0.115 -1.72983,-0.25556 -0.0992,-0.16048 0.48566,-0.19547 1.57188,-0.094 1.16576,0.10886 1.72983,0.068 1.72983,-0.12534 0,-0.15778 -0.44648,-0.33358 -0.99218,-0.39066 l -0.99219,-0.10378 1.0078,-0.0445 c 1.28084,-0.0565 1.0356,-0.56099 -0.29581,-0.60848 l -0.97657,-0.0348 0.92604,-0.18149 0.92604,-0.1815 -1.32292,-0.19736 c -2.3416,-0.34934 -2.1771,-0.40367 0.81715,-0.26988 2.36136,0.10551 2.99611,0.056 3.25308,-0.2536 0.2774,-0.33425 -0.36749,-0.38663 -4.91819,-0.39949 -5.64183,-0.016 -9.8063,-0.25035 -9.99942,-0.56282 -0.0661,-0.10702 0.3234,-0.15641 0.86565,-0.10977 2.39319,0.20585 14.11954,0.28458 13.15673,0.0883 -0.58208,-0.11864 -3.03919,-0.23897 -5.46025,-0.26739 -3.88533,-0.0456 -8.23884,-0.3306 -7.50433,-0.49126 0.14552,-0.0318 0.97866,-0.0385 1.85142,-0.0148 2.68092,0.0727 1.44373,-0.26861 -2.01555,-0.5561 -1.8015,-0.14972 -3.632641,-0.3785 -4.069204,-0.5084 -0.56766,-0.1689 -0.247367,-0.19987 1.124484,-0.10874 1.21436,0.0807 1.91823,0.0281 1.91823,-0.14328 0,-0.14889 -0.50602,-0.28976 -1.12448,-0.31304 -0.97476,-0.0367 -1.00999,-0.0566 -0.26459,-0.14906 1.4154,-0.17565 0.97242,-0.60003 -0.66146,-0.6337 -0.836741,-0.0172 -1.670178,-0.012 -1.852079,0.0116 -0.181901,0.0236 -0.33073,-0.0921 -0.33073,-0.25707 0,-0.18588 0.427786,-0.27743 1.12448,-0.24065 1.736249,0.0917 2.361319,0.0125 2.182809,-0.27628 -0.0899,-0.14552 -0.87087,-0.26459 -1.735403,-0.26459 -0.864537,0 -1.571886,-0.0928 -1.571886,-0.20616 0,-0.11339 0.834682,-0.16066 1.854848,-0.10504 1.863511,0.10159 2.881791,-0.0674 2.529381,-0.41984 -0.10418,-0.10418 -1.28208,-0.26072 -2.617554,-0.34785 l -2.428133,-0.15842 2.500313,-0.0428 c 2.774774,-0.0475 3.091044,-0.51927 0.405624,-0.60504 -0.870663,-0.0278 -1.880676,-0.14901 -2.244479,-0.26934 -0.432619,-0.14309 0.0049,-0.18762 1.264794,-0.12872 1.059435,0.0495 1.989195,-0.0118 2.066135,-0.13628 0.0769,-0.12449 -0.3959,-0.22634 -1.05074,-0.22634 -0.654844,0 -1.249711,-0.0956 -1.321927,-0.21245 -0.07222,-0.11685 0.188647,-0.19212 0.579697,-0.16726 0.68348,0.0434 2.04715,-0.33457 1.50475,-0.41711 -0.14552,-0.0222 -0.93726,-0.0226 -1.759425,-9.6e-4 -0.924913,0.0243 -1.570447,-0.083 -1.693144,-0.28156 -0.151762,-0.24556 0.189538,-0.27698 1.454215,-0.1339 1.140424,0.12902 1.598774,0.1 1.479094,-0.0937 -0.0954,-0.15433 -0.61289,-0.28243 -1.150001,-0.28466 -0.537115,-0.002 -1.155166,-0.12049 -1.373448,-0.26279 -0.271919,-0.17728 -0.0012,-0.20633 0.859896,-0.0923 0.859412,0.11383 1.256773,0.0714 1.256773,-0.13408 0,-0.17982 -0.478286,-0.30055 -1.190627,-0.30055 -1.656019,0 -1.496892,-0.48009 0.198438,-0.59869 l 1.389059,-0.0972 -1.389059,-0.0489 c -0.84519,-0.0298 -1.389063,-0.16853 -1.389063,-0.35436 0,-0.22529 0.88502,-0.25309 3.373442,-0.10598 5.66873,0.33513 10.64948,0.43024 10.64948,0.20334 0,-0.63347 -0.79248,-0.8515 -3.16178,-0.86989 -1.38972,-0.0108 -3.06255,-0.11814 -3.71739,-0.23855 -0.75529,-0.13889 0.0912,-0.16904 2.3151,-0.0824 3.10647,0.12094 3.50573,0.0878 3.50573,-0.29062 0,-0.33211 -0.27952,-0.42873 -1.25677,-0.43443 -1.74581,-0.0102 -5.19788,-0.29928 -5.35781,-0.4487 -0.0728,-0.068 1.38575,-0.045 3.24114,0.051 2.3184,0.12 3.37344,0.0865 3.37344,-0.10707 0,-0.15492 -0.38695,-0.29541 -0.85989,-0.31219 -0.47295,-0.0168 -0.97896,-0.0582 -1.12448,-0.092 -0.14552,-0.0338 -1.48498,-0.0796 -2.97657,-0.10177 -1.67149,-0.0248 -2.71197,-0.14564 -2.71197,-0.31487 0,-0.16446 0.41759,-0.22424 1.04129,-0.14906 0.97168,0.11712 4.49767,0.2181 6.18422,0.17711 1.39159,-0.0338 0.43143,-0.54723 -1.02342,-0.54723 -0.79178,0 -1.43959,-0.11974 -1.43959,-0.2661 0,-0.16441 0.50552,-0.20452 1.32291,-0.10497 1.48376,0.18072 1.91089,-0.30861 0.46302,-0.53045 -0.75225,-0.11526 -4.74624,-0.40779 -5.70415,-0.41778 -0.19049,-0.002 -0.26775,-0.13079 -0.17168,-0.28624 0.0961,-0.15544 0.33897,-0.21957 0.53978,-0.14251 0.20081,0.0771 1.49845,0.21878 2.88365,0.31494 1.78931,0.12422 2.51855,0.0889 2.51855,-0.12206 0,-0.1633 -0.44649,-0.31505 -0.99219,-0.33721 -0.5457,-0.0222 -1.11125,-0.068 -1.25677,-0.10177 -0.14552,-0.0338 -0.94919,-0.0752 -1.78594,-0.092 -0.83674,-0.0168 -1.52135,-0.1446 -1.52135,-0.28403 0,-0.15508 1.00376,-0.19236 2.58512,-0.096 l 2.58513,0.15749 0.0577,-0.69773 c 0.0511,-0.61717 -0.0412,-0.70102 -0.79919,-0.72625 -0.47131,-0.0157 -1.27365,-0.0624 -1.78297,-0.10377 -0.50933,-0.0414 -1.21378,-0.0881 -1.56545,-0.10376 -0.35168,-0.0157 -0.55006,-0.11782 -0.44085,-0.22697 0.10921,-0.10914 1.69454,-0.15579 3.52297,-0.10368 3.0113,0.0858 3.30853,0.0534 3.15585,-0.34447 -0.0927,-0.24157 -0.0631,-0.37404 0.0658,-0.29437 0.30756,0.19008 1.87623,-0.12674 1.87623,-0.37895 0,-0.10748 -1.22039,-0.31846 -2.71198,-0.46883 l -2.71198,-0.27341 2.83507,0.0771 c 2.17489,0.0591 2.90638,-0.009 3.14126,-0.29184 0.25678,-0.30941 -0.009,-0.37422 -1.64445,-0.40179 -1.07285,-0.0181 -2.78407,-0.11667 -3.80271,-0.2191 -1.01865,-0.10243 2.79135,-0.14298 8.46666,-0.0901 5.67532,0.0529 11.19057,0.21099 12.25613,0.35139 1.06555,0.14041 2.07163,0.25528 2.23573,0.25528 0.18752,0 0.20498,0.0909 0.047,0.24463 -0.15017,0.14615 -0.73064,0.15198 -1.44198,0.0145 -1.61279,-0.31175 -14.73745,-0.65222 -14.47828,-0.37558 0.33632,0.35899 0.91188,0.41787 5.34944,0.54726 2.32794,0.0679 4.3235,0.21429 4.43458,0.32537 0.11107,0.11107 -1.53428,0.14972 -3.65633,0.0859 -2.28285,-0.0687 -3.96216,-0.0122 -4.11267,0.13831 -0.16279,0.16279 -0.13212,0.26078 0.0852,0.27215 0.18675,0.01 1.23252,0.0835 2.32393,0.16373 1.0914,0.0803 3.72855,0.18143 5.86033,0.22477 2.13178,0.0433 3.81558,0.1775 3.74179,0.29812 -0.0738,0.12063 -1.57985,0.19563 -3.34679,0.16668 -4.19437,-0.0687 -4.72932,-0.0381 -4.54486,0.26039 0.0848,0.13723 1.4313,0.24769 2.99218,0.24548 3.56703,-0.005 3.62347,-0.002 3.41566,0.20614 -0.0946,0.0946 -1.36458,0.1542 -2.82222,0.1325 -1.6154,-0.0241 -2.65026,0.0638 -2.65026,0.22491 0,0.15578 0.94194,0.26438 2.29305,0.26438 1.26119,0 2.20379,0.0893 2.09468,0.19843 -0.19053,0.19059 -0.59654,0.24041 -2.46383,0.30238 -0.81795,0.0272 -0.84112,0.0571 -0.54563,0.70565 l 0.3086,0.67729 4.84543,-0.082 c 3.934905,-0.0666 4.845375,-0.0148 4.845115,0.27565 -2.6e-4,0.28664 -0.74871,0.34517 -3.770645,0.29489 -4.2399,-0.0706 -5.10485,-0.0468 -4.92272,0.13535 0.0695,0.0695 1.30977,0.20321 2.75608,0.29708 5.037065,0.32689 5.876435,0.56785 1.57133,0.45109 -5.12471,-0.139 -5.12471,0.3084 0,0.53932 1.89177,0.0852 3.469355,0.15918 3.505735,0.16429 0.0364,0.005 0.0662,0.13783 0.0662,0.29491 0,0.169 -0.29706,0.22865 -0.727615,0.14609 -0.40018,-0.0767 -2.09682,-0.2036 -3.77031,-0.28193 -2.78173,-0.1302 -2.97463,-0.10972 -2.24896,0.23885 0.43656,0.2097 0.67469,0.40231 0.52917,0.42803 -0.14552,0.0257 0.15213,0.12562 0.66146,0.222 0.50932,0.0964 1.17912,0.0684 1.48844,-0.0623 0.33741,-0.14251 1.23709,-0.13419 2.24895,0.0208 l 1.686565,0.25834 -1.653645,0.0337 c -1.18412,0.0241 -1.65365,0.1338 -1.65365,0.38621 0,0.26551 0.35912,0.32272 1.45521,0.23182 0.97223,-0.0806 1.45521,-0.022 1.45521,0.17667 0,0.18089 -0.52424,0.29735 -1.33853,0.29735 -0.82498,0 -1.2758,0.10151 -1.17501,0.26458 0.0899,0.14552 0.63274,0.26458 1.20624,0.26458 0.57349,0 1.04272,0.11906 1.04272,0.26459 0,0.14552 -0.53578,0.26458 -1.19063,0.26458 -0.65484,0 -1.19062,0.11906 -1.19062,0.26458 0,0.14552 0.53578,0.26459 1.19062,0.26459 0.65485,0 1.19063,0.11906 1.19063,0.26458 0,0.14552 -0.59532,0.26458 -1.32292,0.26458 -0.7276,0 -1.32292,0.11906 -1.32292,0.26459 0,0.14552 0.65485,0.26458 1.45521,0.26458 0.90325,0 1.45521,0.11312 1.45521,0.29824 0,0.19846 -0.44264,0.25572 -1.32292,0.17113 -1.02453,-0.0984 -1.32291,-0.0426 -1.32291,0.24756 0,0.20606 0.20836,0.35347 0.46302,0.32756 1.12714,-0.11465 2.447395,0.0364 2.447395,0.27994 0,0.16514 -0.512385,0.20369 -1.350485,0.10161 -1.30353,-0.15876 -1.34403,-0.14413 -1.16476,0.42069 0.18166,0.57233 0.14596,0.58252 -1.62607,0.46418 -0.9965,-0.0666 -2.04994,-0.0268 -2.34098,0.0884 -0.6272,0.24816 -0.84424,0.22393 3.37344,0.37656 2.00543,0.0726 3.373445,0.0217 3.373445,-0.12553 0,-0.14178 0.86368,-0.20047 2.02066,-0.13732 l 2.02067,0.1103 2.5434,2.52415 c 2.12386,2.1078 2.67989,2.52427 3.37089,2.52482 0.45512,3.7e-4 0.97572,-0.17793 1.15688,-0.39621 0.41453,-0.49949 0.80041,-0.49985 1.75569,-0.002 1.30478,0.68049 2.18773,0.52375 2.59937,-0.46146 0.50686,-1.21307 0.24122,-2.21108 -0.75186,-2.82484 -0.45876,-0.28353 -1.12153,-0.82146 -1.47284,-1.1954 -0.59911,-0.63773 -0.60992,-0.70097 -0.17436,-1.01946 0.39876,-0.29158 0.41823,-0.44085 0.13776,-1.0564 -0.17964,-0.39427 -0.44641,-0.71685 -0.59283,-0.71685 -0.14642,0 -0.19022,-0.076 -0.0973,-0.16887 0.27583,-0.27584 5.05567,-0.0876 5.34328,0.21044 0.18229,0.18889 -0.46434,0.21913 -2.07893,0.0972 -1.88343,-0.14222 -2.32064,-0.10828 -2.22695,0.17286 0.0641,0.19241 0.42963,0.3553 0.81227,0.36198 0.92286,0.0161 1.27037,0.38472 0.36271,0.38472 -0.38806,0 -0.70556,0.11906 -0.70556,0.26459 0,0.24423 1.49362,0.39426 3.24115,0.32555 0.40018,-0.0157 0.7276,0.0911 0.7276,0.23743 0,0.16001 -0.73283,0.23612 -1.83875,0.19097 -1.01131,-0.0413 -1.92412,0.0103 -2.02847,0.11466 -0.10435,0.10434 0.15754,0.20159 0.58198,0.21609 0.7525,0.0257 0.75531,0.0309 0.11291,0.20974 -0.9206,0.25623 -0.42296,0.47261 1.58483,0.68911 2.10318,0.22678 2.49903,0.47041 0.60149,0.37019 -2.53216,-0.13374 -1.95205,0.30496 0.85372,0.6456 0.60172,0.073 0.52549,0.10596 -0.31511,0.13601 -1.1024,0.0394 -1.93178,0.56881 -0.89113,0.56881 0.72683,0 0.69471,0.41912 -0.0505,0.65935 -0.45573,0.14691 -0.16106,0.26984 1.25677,0.52428 l 1.85208,0.33237 -1.77662,0.0358 c -1.46364,0.0294 -1.82488,0.12591 -2.05052,0.54752 -0.41646,0.77816 -0.37584,0.80885 1.11517,0.84245 0.76398,0.0172 1.74625,0.12366 2.18281,0.23653 0.43656,0.11287 -1.34938,0.16194 -3.96875,0.10904 -3.21424,-0.0649 -4.46145,-0.0172 -3.83646,0.14658 0.50932,0.13351 1.73308,0.26576 2.71945,0.29388 0.98638,0.0281 1.85979,0.15853 1.94092,0.28981 0.0861,0.13938 -0.8801,0.17561 -2.32257,0.0871 -4.04499,-0.24828 -7.09128,-0.37134 -9.56331,-0.38633 -1.35968,-0.008 -2.2676,-0.11627 -2.17921,-0.25929 0.0885,-0.14325 1.59692,-0.18087 3.62894,-0.0905 2.60021,0.11565 3.42965,0.0774 3.28807,-0.15172 -0.12103,-0.19582 -1.05886,-0.30637 -2.59909,-0.30637 -1.32535,0 -2.33701,-0.0727 -2.24814,-0.16159 0.0889,-0.0889 1.00853,-0.14869 2.04369,-0.13293 1.19104,0.0181 1.82221,-0.0683 1.71898,-0.23529 -0.0949,-0.15363 -1.60065,-0.26394 -3.60271,-0.26394 -2.37259,0 -3.38538,0.0877 -3.26487,0.28269 0.10584,0.17125 0.62619,0.22147 1.31989,0.12739 0.66576,-0.0903 1.2149,-0.0425 1.31172,0.11418 0.10467,0.16936 -0.33077,0.26949 -1.17198,0.26949 -0.73619,0 -1.33853,0.11906 -1.33853,0.26458 0,0.14552 0.13364,0.26458 0.29698,0.26458 0.20519,0 0.19517,0.12268 -0.0324,0.39688 -0.28829,0.34737 -0.0366,0.40073 2.01812,0.4278 1.29113,0.017 3.12141,0.12144 4.0673,0.23206 1.37748,0.1611 1.0219,0.19444 -1.78646,0.16751 -2.23397,-0.0214 -3.47458,0.0624 -3.41898,0.23096 0.048,0.14552 0.79236,0.33387 1.65416,0.41855 1.4574,0.1432 1.53086,0.24472 0.24399,0.33718 -0.32925,0.0237 -0.51529,0.21296 -0.49242,0.50104 0.0474,0.59687 0.0607,0.60017 -1.30812,-0.32363 -1.58299,-1.06835 -1.89797,-1.50628 -1.81084,-2.51764 0.0678,-0.7875 5.7e-4,-0.87469 -0.76121,-0.9865 -0.740275,-0.10865 -0.884675,-0.0198 -1.265305,0.77837 l -0.42966,0.90102 -1.92216,-0.18012 -1.92216,-0.18012 0.38505,0.77184 c 0.61493,1.23266 4.37745,4.7264 5.477755,5.08645 0.95812,0.31353 1.00255,0.29697 2.18282,-0.81371 0.66263,-0.62356 1.20479,-1.29828 1.20479,-1.49936 0,-0.2487 0.14805,-0.30107 0.46302,-0.16377 0.25466,0.11101 1.58342,0.30157 2.95279,0.42346 1.36937,0.12189 2.56,0.29455 2.64583,0.38369 0.1689,0.1754 -5.26758,-0.1272 -5.56275,-0.30962 -0.0984,-0.0608 -0.24713,0.0674 -0.33057,0.28481 -0.1208,0.31478 0.10273,0.39951 1.09675,0.41573 0.68666,0.0112 1.78304,0.0795 2.4364,0.15165 2.20632,0.2438 1.47579,0.40499 -1.42604,0.31464 -1.9676,-0.0613 -2.91678,0.005 -2.98732,0.20708 -0.0708,0.20334 0.67105,0.31253 2.35477,0.34657 1.35199,0.0273 2.87488,0.14569 3.3842,0.26301 0.5721,0.13178 -0.43917,0.18119 -2.64583,0.12928 -3.1387,-0.0738 -3.34096,-0.0545 -1.66776,0.15923 1.04726,0.13379 2.47601,0.362 3.175,0.50713 1.16904,0.24274 1.11716,0.25274 -0.64735,0.12477 -1.13959,-0.0826 -1.91823,-0.0365 -1.91823,0.11363 0,0.15986 -0.36462,0.16139 -0.99218,0.004 -0.54571,-0.13672 -1.82563,-0.23667 -2.84427,-0.2221 -2.815665,0.0403 -7.540635,-0.30742 -7.540635,-0.55489 0,-0.12071 1.22039,-0.14975 2.71198,-0.0645 2.20322,0.12587 2.65203,0.0911 2.39239,-0.18514 -0.18422,-0.19603 -1.19284,-0.39138 -2.38125,-0.46121 -1.13391,-0.0666 -2.24026,-0.22851 -2.45854,-0.35975 -0.2438,-0.14658 0.36847,-0.17365 1.5875,-0.0702 1.55729,0.13219 1.91877,0.0989 1.67955,-0.15465 -0.16766,-0.1777 -0.91732,-0.35614 -1.66591,-0.39653 -0.7486,-0.0404 -1.44486,-0.1591 -1.54725,-0.26379 -0.1024,-0.1047 0.49859,-0.14879 1.33554,-0.098 1.51578,0.092 2.02233,-0.11169 0.9652,-0.38813 -0.30568,-0.0799 -0.48353,-0.26225 -0.39522,-0.40514 0.22595,-0.3656 -0.35399,-0.52174 -1.36409,-0.36726 -0.54074,0.0827 -0.8599,0.0205 -0.8599,-0.16769 0,-0.16456 0.36421,-0.2992 0.80937,-0.2992 0.4722,0 0.74124,-0.11022 0.64584,-0.26459 -0.0899,-0.14552 -0.51368,-0.26458 -0.94166,-0.26458 -0.42797,0 -0.77813,-0.12708 -0.77813,-0.28241 0,-0.16201 0.2256,-0.21081 0.52916,-0.11446 0.29105,0.0924 0.52917,0.0564 0.52917,-0.0799 0,-0.13628 -0.44648,-0.32159 -0.99219,-0.41179 -1.55161,-0.25647 -4.03489,-0.19814 -4.03489,0.0948 0,0.14552 0.0893,0.25049 0.19843,0.23325 0.76821,-0.12129 3.24115,0.0742 3.24115,0.25618 0,0.12367 -0.92273,0.16819 -2.05052,0.0989 -2.56414,-0.15745 -2.31611,0.22985 0.41626,0.65001 l 2.03114,0.31234 -1.77843,-0.13415 c -0.97814,-0.0738 -1.90984,-0.0529 -2.07044,0.0463 -0.52233,0.32281 0.73074,1.18274 1.97122,1.35277 0.963,0.13199 1.17107,0.25719 1.13882,0.68526 -0.034,0.45189 -0.18574,0.50641 -1.10552,0.39732 -0.58634,-0.0695 -1.36373,-0.0344 -1.72753,0.078 -0.6104,0.18862 -0.58998,0.20847 0.26458,0.25714 0.50933,0.029 1.2237,0.15402 1.5875,0.27779 0.66416,0.22595 -0.95706,0.14809 -3.28663,-0.15783 -1.08255,-0.14217 -1.46406,0.11822 -1.47181,1.00452 -0.003,0.38947 0.24564,0.46302 1.56783,0.46302 0.86454,0 1.64074,0.11142 1.72491,0.2476 0.16905,0.27353 -2.39501,0.25736 -4.42617,-0.0279 z m 0.76705,-1.78147 c 0.14463,-0.72317 0.22542,-0.76569 1.38244,-0.72761 0.96905,0.0319 1.20973,-0.0435 1.13844,-0.35643 -0.0497,-0.21828 -0.12594,-1.07169 -0.16937,-1.89646 -0.0434,-0.82477 -0.16343,-1.63625 -0.26666,-1.80328 -0.13933,-0.22544 0.55939,-0.25857 2.71153,-0.12855 2.79417,0.1688 2.90448,0.15504 3.04434,-0.37978 0.1313,-0.50213 0.31195,-0.54861 1.89849,-0.48853 1.32418,0.0501 1.81498,-0.0308 2.00503,-0.33048 0.4265,-0.67264 0.29187,-0.85853 -0.534,-0.73731 -0.8388,0.12311 -1.08295,-0.15343 -0.37523,-0.42501 0.23018,-0.0883 2.48497,-0.1606 5.010645,-0.1606 4.40879,0 4.59055,-0.0208 4.55278,-0.52226 -0.0512,-0.68001 -0.43329,-0.80786 -2.93768,-0.98306 -1.14613,-0.0802 -2.39628,-0.24069 -2.77812,-0.35669 -0.38387,-0.11662 0.41868,-0.14251 1.79507,-0.0579 1.85454,0.114 2.44093,0.0747 2.29949,-0.15416 -0.10441,-0.16895 -0.70372,-0.30718 -1.33178,-0.30718 -1.33445,0 -2.79533,-0.25918 -2.79618,-0.49609 -3.3e-4,-0.091 0.86287,-0.13302 1.91823,-0.0935 1.55592,0.0583 1.82266,0.0135 1.41036,-0.23701 -0.71987,-0.43733 -4.12175,-0.65586 -4.12175,-0.26478 0,0.19332 -0.34617,0.25972 -0.958215,0.18381 -0.87083,-0.10801 -4.32406,-0.21523 -5.45793,-0.16946 -0.25466,0.0103 -0.46302,0.11394 -0.46302,0.23035 0,0.11641 0.57367,0.18531 1.27482,0.1531 0.70115,-0.0322 1.44529,0.0493 1.65365,0.18116 0.25011,0.15827 -0.18303,0.2411 -1.27483,0.24378 -0.92334,0.002 -1.65364,0.1209 -1.65364,0.26863 0,0.1467 0.70035,0.26458 1.57188,0.26458 0.86454,0 1.6419,0.11329 1.72748,0.25175 0.095,0.15372 -0.43982,0.2002 -1.37345,0.11936 -0.84097,-0.0728 -5.03769,-0.13079 -9.32603,-0.12883 -7.16487,0.003 -7.82984,0.042 -8.20209,0.47756 -0.22279,0.26071 -0.37864,0.427 -0.34632,0.36954 0.0323,-0.0575 -0.24831,-0.46943 -0.62363,-0.91548 -0.57236,-0.6802 -0.66125,-0.99878 -0.55117,-1.97539 0.16418,-1.45655 -0.34938,-1.97914 -2.12978,-2.16725 -1.13062,-0.11946 -1.26022,-0.20289 -1.33582,-0.8599 -0.0714,-0.62087 -0.20729,-0.72931 -0.92604,-0.73922 -0.46328,-0.006 -1.31857,-0.18319 -1.90066,-0.39289 -1.45838,-0.5254 -1.68432,-0.49041 -1.8805,0.29124 -0.13272,0.52879 0.004,0.86794 0.61253,1.52136 0.43082,0.46247 0.93375,1.36974 1.11763,2.01614 0.29704,1.04425 0.28361,1.21236 -0.12048,1.50783 -0.32035,0.23425 -0.40487,0.53145 -0.28592,1.00538 0.14915,0.59426 0.27295,0.65629 1.06017,0.53118 0.60954,-0.0969 1.22467,0.0321 1.94584,0.408 1.13493,0.59156 3.13898,0.7622 3.90657,0.33263 0.2751,-0.15395 0.81585,-0.17701 1.29198,-0.0551 0.45037,0.11533 2.30713,0.20686 4.12614,0.2034 5.41398,-0.0103 14.86348,0.37496 14.63346,0.59663 -0.11752,0.11324 -2.59492,0.10188 -5.50533,-0.0253 -6.49743,-0.28384 -12.87258,-0.29391 -14.2875,-0.0226 -0.72594,0.13921 0.68674,0.26413 4.49791,0.39774 3.05594,0.10713 6.44922,0.23939 7.54063,0.2939 1.0914,0.0545 2.72851,0.10679 3.63802,0.11618 0.9095,0.009 1.65366,0.10635 1.65367,0.21549 2e-5,0.10914 -1.4585,0.17661 -3.24114,0.14993 -2.3882,-0.0357 -2.96266,0.0125 -2.18284,0.18319 0.58208,0.12743 2.0406,0.23856 3.24114,0.24695 1.20055,0.008 2.18281,0.11711 2.18281,0.24161 0,0.31488 -5.73198,0.10439 -6.3637,-0.2337 -0.74723,-0.3999 -1.72459,-0.1918 -2.494,0.53102 -0.39662,0.3726 -1.06535,0.66239 -1.63149,0.70697 -0.52766,0.0416 -0.98887,0.10908 -1.02493,0.15005 -0.036,0.041 -0.006,0.97132 0.0668,2.06743 0.13236,1.99232 0.13269,1.99306 1.09349,2.42198 0.52859,0.23598 1.35101,0.44049 1.82759,0.45447 0.75288,0.0221 0.88666,-0.0753 1.02012,-0.74263 z m 10.68107,-8.22779 c 0,-0.14552 0.12609,-0.26458 0.2802,-0.26458 0.15411,0 0.20662,0.11906 0.11668,0.26458 -0.0899,0.14552 -0.21603,0.26458 -0.2802,0.26458 -0.0642,0 -0.11668,-0.11906 -0.11668,-0.26458 z m 3.102375,0.0514 c -0.694805,-0.0445 -1.212505,-0.16357 -1.150455,-0.26459 0.1566,-0.25495 3.604335,-0.0562 3.604335,0.20779 0,0.11771 -0.26789,0.19685 -0.59531,0.17586 -0.32742,-0.021 -1.16378,-0.0746 -1.85857,-0.11906 z m 2.98305,0.01 c 0,-0.11188 0.71432,-0.20117 1.58737,-0.19844 0.87305,0.003 1.58743,0.0943 1.5875,0.20342 7e-5,0.10914 -0.71424,0.19843 -1.58737,0.19843 -0.87312,0 -1.5875,-0.0915 -1.5875,-0.20341 z M 28.007256,30.60008 c -0.0687,-0.11119 0.68575,-0.18835 1.67661,-0.17147 1.92689,0.0328 1.81168,0.15606 -0.27193,0.29086 -0.70385,0.0455 -1.33596,-0.008 -1.40468,-0.11939 z m 12.15697,0.15895 c 0.20762,-0.20762 3.88077,-0.19285 4.09007,0.0165 0.0834,0.0834 -0.84058,0.1516 -2.05326,0.1516 -1.21267,0 -2.12923,-0.0756 -2.03681,-0.16805 z m 4.88109,-0.007 c 0.1819,-0.0734 0.47955,-0.0734 0.66145,0 0.1819,0.0734 0.0331,0.13346 -0.33073,0.13346 -0.3638,0 -0.51263,-0.0601 -0.33072,-0.13346 z m -11.49729,-0.28624 c 1.13444,-0.0497 2.92038,-0.0494 3.96875,6.8e-4 1.04838,0.0501 0.1202,0.0908 -2.06261,0.0904 -2.18281,-3.7e-4 -3.04057,-0.0414 -1.90614,-0.0911 z m 12.72679,-0.55275 c 0.12889,-0.20855 1.74706,-0.0991 1.74706,0.11821 0,0.0562 -0.42375,0.10226 -0.94166,0.10226 -0.51791,0 -0.88034,-0.0992 -0.8054,-0.22047 z m 0.68872,-0.83786 -1.19062,-0.18511 1.19062,-0.0211 c 0.65485,-0.0116 1.42875,0.0812 1.7198,0.20625 l 0.529165,0.22739 -0.529165,-0.0211 c -0.29105,-0.0116 -1.06495,-0.10444 -1.7198,-0.20625 z m -6.28021,9.07417 c -0.32542,-0.0628 -0.92073,-0.0644 -1.32292,-0.004 -0.40218,0.0608 -0.13593,0.1122 0.59168,0.11419 0.7276,0.002 1.05666,-0.0478 0.73124,-0.11057 z m -16.67239,-6.0744 c -0.1819,-0.0734 -0.47956,-0.0734 -0.66146,0 -0.1819,0.0734 -0.0331,0.13345 0.33073,0.13345 0.3638,0 0.51263,-0.06 0.33073,-0.13345 z m -3.00457,-0.73473 c -0.26142,-0.26142 -1.50219,-0.34693 -1.84893,-0.12742 -0.25033,0.15849 0.0102,0.23685 0.79656,0.23958 0.64271,0.002 1.11628,-0.0482 1.05237,-0.11216 z m 11.11185,-1.80973 c 1.49321,0.10745 1.67146,0.0704 1.52302,-0.3164 -0.13397,-0.34912 -0.0556,-0.40239 0.38573,-0.26232 1.18207,0.37518 1.95779,0.30201 3.07054,-0.28965 l 1.15623,-0.61477 0.95224,0.6462 c 0.97986,0.66495 1.80404,0.80608 2.42152,0.41465 0.25752,-0.16324 0.30289,-0.55428 0.1684,-1.45115 -0.10126,-0.67524 -0.14004,-1.2277 -0.0862,-1.2277 0.0539,0 0.51387,0.12195 1.02223,0.27102 1.29499,0.37971 2.97117,0.0832 2.79447,-0.49439 -0.19784,-0.64661 -0.21072,-2.1739 -0.0263,-3.11645 0.13801,-0.70534 0.073,-0.85002 -0.44423,-0.98857 -0.33324,-0.0893 -1.02752,-0.16393 -1.54283,-0.16592 -0.75346,-0.003 -1.12907,-0.2126 -1.91823,-1.07089 -0.67158,-0.73042 -0.9813,-1.31497 -0.9813,-1.85208 0,-0.43164 -0.10137,-0.78481 -0.22526,-0.78481 -0.1239,0 -0.92757,-0.69486 -1.78594,-1.54414 -2.00723,-1.98596 -2.48712,-2.23206 -3.93044,-2.01563 -1.03857,0.15575 -1.22308,0.0997 -1.77586,-0.53968 -0.33928,-0.39242 -0.93777,-0.88041 -1.32997,-1.08443 -0.65564,-0.34107 -0.74624,-0.32363 -1.12448,0.21638 -0.22626,0.32303 -0.41138,0.72325 -0.41138,0.88939 0,0.2993 -1.75943,1.08173 -2.77813,1.23545 -0.29104,0.0439 -0.67617,0.1716 -0.85584,0.28374 -0.34882,0.21772 -0.3595,1.50059 -0.0125,1.50059 0.11378,0 0.20687,0.16121 0.20687,0.35824 0,0.42228 1.06248,1.62412 1.6058,1.81642 0.29964,0.10606 0.25445,0.26925 -0.21673,0.78266 -0.32743,0.35676 -0.59532,0.72994 -0.59532,0.82928 0,0.32494 1.90584,2.29882 2.21958,2.29882 0.16826,0 0.52571,0.40812 0.79434,0.90693 0.26863,0.49882 0.84964,1.05657 1.29114,1.23944 0.70394,0.29158 0.92324,0.26314 1.78211,-0.23116 0.73605,-0.42362 1.05471,-0.48834 1.28257,-0.26048 0.44605,0.44605 0.3775,0.78756 -0.35828,1.78485 -0.3638,0.4931 -0.66146,1.09766 -0.66146,1.34346 0,0.2458 -0.26789,0.5187 -0.59531,0.60644 -0.75646,0.20273 -5.36451,0.21756 -5.16358,0.0166 0.0826,-0.0826 1.17761,-0.16099 2.43341,-0.17426 3.21487,-0.034 2.8771,-0.58493 -0.40127,-0.65454 -3.79952,-0.0807 -3.87241,-0.17242 -0.26335,-0.33147 2.28613,-0.10074 3.31927,-0.24543 3.39549,-0.47553 0.0837,-0.25277 -0.65966,-0.32978 -3.15365,-0.32668 -1.79476,0.002 -3.39983,0.0915 -3.56683,0.19844 -0.16701,0.10691 -0.3456,0.55157 -0.39688,0.98813 -0.089,0.75765 -0.0511,0.79103 0.83281,0.73377 l 0.92604,-0.06 -0.81988,0.32457 c -1.43155,0.56672 -0.79222,0.88094 1.41748,0.69669 1.12653,-0.0939 2.80924,-0.11603 3.73936,-0.0491 z m 6.64324,-0.29471 c 0,-0.25099 -0.792,-0.37749 -0.93318,-0.14905 -0.086,0.13917 0.0888,0.25303 0.3884,0.25303 0.29963,0 0.54478,-0.0468 0.54478,-0.10398 z m -7.54062,-3.07102 c -0.0903,-0.14616 -1.28157,-0.26458 -2.66145,-0.26458 -1.4889,0 -2.49793,0.10688 -2.49793,0.26458 0,0.15886 1.06354,0.26459 2.66145,0.26459 1.70692,0 2.6028,-0.0949 2.49793,-0.26459 z m 2.51354,0 c 0.34202,-0.22103 0.33504,-0.25704 -0.0505,-0.26053 -0.24607,-0.002 -0.52099,0.11501 -0.61093,0.26053 -0.20695,0.33486 0.14331,0.33486 0.66146,0 z m -3.49229,-0.81958 c -0.0596,-0.17865 -0.32109,-0.35604 -0.58119,-0.39422 -0.64569,-0.0948 -0.885,-0.3737 -0.32063,-0.3737 0.25112,0 0.40141,-0.0893 0.33397,-0.19844 -0.10302,-0.16672 -1.84444,-0.18746 -6.88632,-0.082 -0.61755,0.0129 -0.70287,0.0847 -0.45521,0.38314 0.22837,0.27517 0.55159,0.30992 1.28917,0.1386 1.39721,-0.32454 2.69179,-0.31066 2.175,0.0233 -0.21828,0.14106 -0.69453,0.26012 -1.05833,0.26458 -0.41255,0.005 -0.54081,0.0848 -0.34083,0.21186 0.17634,0.11207 1.58783,0.23705 3.13663,0.27773 2.1338,0.056 2.78978,-0.005 2.70774,-0.25084 z m -3.7991,-0.52817 c -0.0815,-0.13186 0.15651,-0.23975 0.5289,-0.23975 0.81069,0 0.87618,0.1508 0.14817,0.34118 -0.2909,0.0761 -0.59558,0.0304 -0.67707,-0.10143 z m 2.58456,-1.36423 c -0.20044,-0.24219 -1.21585,-0.30888 -3.79328,-0.2491 -4.56026,0.10576 -4.02696,0.5702 0.66115,0.57578 2.6946,0.003 3.34868,-0.065 3.13213,-0.32668 z m -7.79473,-0.11624 c -0.25467,-0.0666 -0.67138,-0.0666 -0.92605,0 -0.25466,0.0666 -0.0463,0.121 0.46303,0.121 0.50932,0 0.71768,-0.0544 0.46302,-0.121 z m 16.93333,17.04674 c -1.12779,-0.14229 -2.05052,-0.37159 -2.05052,-0.50957 0,-0.13797 0.20836,-0.19306 0.46302,-0.12241 0.25466,0.0707 1.11889,0.20271 1.92051,0.29347 0.80161,0.0908 1.63505,0.27729 1.85208,0.4145 0.21703,0.13721 0.27553,0.23445 0.13001,0.21609 -0.14552,-0.0184 -1.18731,-0.1498 -2.3151,-0.29208 z m 20.918625,-0.64093 c 0.19099,-0.0764 0.4192,-0.067 0.50712,0.0209 0.0879,0.0879 -0.0684,0.15045 -0.34727,0.13897 -0.30822,-0.0127 -0.37092,-0.0754 -0.15985,-0.15986 z M 43.391666,37.27726 c -0.46546,-0.20001 -0.43969,-0.22963 0.21405,-0.24599 0.43186,-0.0108 0.67472,0.0922 0.5797,0.24599 -0.0899,0.14552 -0.18626,0.25622 -0.21405,0.24599 -0.0278,-0.0102 -0.28866,-0.12092 -0.5797,-0.24599 z m -3.94833,-0.23154 c -0.1318,-0.21325 2.22166,-0.0852 2.47107,0.13445 0.0606,0.0534 -0.43835,0.0971 -1.10886,0.0971 -0.67051,0 -1.2835,-0.10419 -1.36221,-0.23154 z m 15.193125,-0.29763 -1.45521,-0.17833 1.71979,-0.0279 c 0.94589,-0.0153 2.19605,0.0706 2.77813,0.19103 l 1.05833,0.2189 -1.32291,-0.0127 c -0.72761,-0.007 -1.97776,-0.093 -2.77813,-0.19104 z m 0.52917,-1.13967 c 0,-0.2153 2.9133,0.0292 3.17248,0.26629 0.0714,0.0653 -0.61324,0.0819 -1.52136,0.0369 -0.90812,-0.045 -1.65112,-0.18142 -1.65112,-0.30315 z m 3.83646,-0.71241 c -0.0899,-0.14552 -0.0374,-0.26458 0.11667,-0.26458 0.15411,0 0.2802,0.11906 0.2802,0.26458 0,0.14552 -0.0525,0.26458 -0.11668,0.26458 -0.0642,0 -0.19026,-0.11906 -0.28019,-0.26458 z m 7.20989,-0.70439 c 0.1819,-0.0734 0.47956,-0.0734 0.66146,0 0.1819,0.0734 0.0331,0.13345 -0.33073,0.13345 -0.3638,0 -0.51263,-0.06 -0.33073,-0.13345 z m 3.353,-1.3792 c 0.0787,-0.12733 0.44508,-0.23151 0.81419,-0.23151 0.36911,0 0.73549,0.10418 0.81419,0.23151 0.0787,0.12733 -0.28769,0.23151 -0.81419,0.23151 -0.5265,0 -0.89289,-0.10418 -0.81419,-0.23151 z m -2.82383,-0.22755 c -0.69123,-0.0545 -1.25677,-0.21867 -1.25677,-0.3648 0,-0.14614 0.10096,-0.2033 0.22437,-0.12704 0.1234,0.0763 0.95684,0.16065 1.85208,0.18751 0.89524,0.0269 1.62771,0.15009 1.62771,0.27383 0,0.12373 -0.26789,0.20351 -0.59531,0.17728 -0.32742,-0.0262 -1.16086,-0.0923 -1.85208,-0.14678 z M 17.528646,32.30271 c -0.83675,-0.0436 -1.521355,-0.1725 -1.521355,-0.28635 0,-0.19749 2.923255,-0.0733 3.152955,0.13394 0.21866,0.1973 -0.13594,0.23042 -1.6316,0.15241 z m -3.01331,-1.96448 c -0.18096,-0.2928 0.754536,-0.24639 1.227371,0.0609 0.302211,0.1964 0.218284,0.24436 -0.35186,0.20108 -0.411804,-0.0313 -0.805784,-0.14915 -0.875511,-0.26197 z m 52.627725,0.14068 c 0.25743,-0.0671 0.61462,-0.0627 0.79375,0.01 0.17913,0.0725 -0.0315,0.12736 -0.46806,0.12197 -0.43656,-0.005 -0.58312,-0.0647 -0.32569,-0.13178 z m -2.18785,-2.72706 c 0,-0.14552 0.11906,-0.26458 0.26458,-0.26458 0.14553,0 0.26459,0.11906 0.26459,0.26458 0,0.14552 -0.11906,0.26458 -0.26459,0.26458 -0.14552,0 -0.26458,-0.11906 -0.26458,-0.26458 z m 1.12448,0.0822 c 0.25466,-0.0665 0.67138,-0.0665 0.92604,0 0.25466,0.0666 0.0463,0.121 -0.46302,0.121 -0.50932,0 -0.71768,-0.0545 -0.46302,-0.121 z M 46.963536,27.21629 c 0,-0.15182 0.46519,-0.23908 1.05795,-0.19843 1.375265,0.0943 1.375575,0.46941 3.9e-4,0.46941 -0.58209,0 -1.05834,-0.12194 -1.05834,-0.27098 z m 5.696335,-0.009 c -0.43227,-0.12901 -1.23595,-0.26112 -1.78593,-0.29357 -0.54999,-0.0324 -1.00015,-0.12502 -1.00035,-0.20571 -2.1e-4,-0.0807 1.57737,-0.10694 3.50573,-0.0583 1.92835,0.0486 3.44621,0.0284 3.37301,-0.0449 -0.0732,-0.0733 -1.4901,-0.25998 -3.14868,-0.41484 -2.79413,-0.26089 -3.4624,-0.39837 -3.17847,-0.65392 0.0606,-0.0546 1.30086,0.0602 2.75607,0.25506 3.25304,0.43559 3.30729,0.43724 3.30729,0.10044 0,-0.35142 -0.2034,-0.40516 -2.97656,-0.78649 -1.27331,-0.17509 -2.3151,-0.41242 -2.3151,-0.5274 0,-0.11498 0.44648,-0.11587 0.99219,-0.002 1.72374,0.35976 3.77031,0.51404 3.77031,0.28424 0,-0.28228 -0.95325,-0.5393 -2.01745,-0.54395 -1.20361,-0.005 -2.49176,-0.30045 -2.34529,-0.53745 0.0696,-0.11265 0.5737,-0.10099 1.12018,0.0259 0.54648,0.12689 1.76751,0.21964 2.71339,0.2061 l 1.71979,-0.0246 -1.32291,-0.20839 c -0.72761,-0.11462 -2.00914,-0.28806 -2.84785,-0.38543 -0.8756,-0.10165 -1.45759,-0.28598 -1.36679,-0.4329 0.087,-0.14072 0.35647,-0.19819 0.59888,-0.12771 0.24242,0.0705 1.45239,0.20688 2.68882,0.30311 1.23644,0.0962 2.48452,0.22049 2.77353,0.27615 0.289,0.0556 2.31346,0.1697 4.49881,0.25344 4.44339,0.17025 5.26003,0.2787 5.02023,0.6667 -0.091,0.14717 -0.36371,0.20743 -0.60613,0.13391 -0.74667,-0.22646 -8.31787,-0.20542 -9.38238,0.0261 l -1.00412,0.21836 0.6734,0.9113 c 1.13202,1.53197 0.84383,1.92921 -1.13186,1.56011 -0.6928,-0.12943 -1.34782,-0.11121 -1.6409,0.0456 -0.2683,0.14359 -0.52541,0.25083 -0.57135,0.23833 -0.046,-0.0125 -0.43723,-0.1283 -0.86951,-0.25731 z m 12.9568,-1.04287 -0.79375,-0.20197 0.97657,-0.0313 c 0.53712,-0.0172 1.05016,0.0878 1.1401,0.23328 0.18336,0.29669 -0.15695,0.29669 -1.32292,0 z m -8.06979,-3.24621 c -1.09141,-0.11189 -2.75828,-0.31406 -3.70417,-0.44927 l -1.71979,-0.24583 2.11667,0.12408 c 1.16416,0.0682 3.57518,0.19949 5.35781,0.29166 1.78263,0.0922 3.24114,0.27452 3.24114,0.40523 0,0.25397 -2.06592,0.20483 -5.29166,-0.12587 z m 0.66146,-1.02432 c -4.97872,-0.62922 -6.22965,-0.82647 -6.33635,-0.99911 -0.0637,-0.10309 0.68106,-0.1004 1.65505,0.006 0.97398,0.10638 2.9615,0.27406 4.41671,0.37263 1.45521,0.0986 2.94349,0.21765 3.30729,0.26463 0.36381,0.047 0.81732,0.0951 1.00781,0.10692 0.19049,0.0118 0.27276,0.14056 0.18282,0.28608 -0.18955,0.3067 -1.61153,0.29423 -4.23333,-0.0371 z M 43.722396,20.69746 c 0.1819,-0.0734 0.47956,-0.0734 0.66146,0 0.1819,0.0734 0.0331,0.13345 -0.33073,0.13345 -0.3638,0 -0.51263,-0.06 -0.33073,-0.13345 z M 21.232816,18.8244 c -1.05972,-0.0549 -1.78594,-0.21022 -1.78594,-0.38191 0,-0.19385 0.45844,-0.23428 1.38906,-0.1225 0.76399,0.0918 1.71649,0.16788 2.11667,0.16915 0.40018,0.001 0.7276,0.12136 0.7276,0.26688 0,0.14552 -0.14883,0.24126 -0.33073,0.21276 -0.1819,-0.0285 -1.1344,-0.0935 -2.11666,-0.14438 z m 19.2265,-1.6204 c 0.13173,-0.21314 1.47714,-0.0969 1.47714,0.12765 0,0.0558 -0.36421,0.10145 -0.80936,0.10145 -0.44515,0 -0.74565,-0.10309 -0.66778,-0.2291 z m -19.95411,-1.43174 c 0,-0.2776 4.40533,-0.10744 4.69409,0.18132 0.10795,0.10795 -0.90405,0.16454 -2.24891,0.12574 -1.34485,-0.0388 -2.44518,-0.17697 -2.44518,-0.30706 z m 4.89479,-1.44402 c -1.62829,-0.16231 -1.61785,-0.47879 0.0124,-0.37638 0.79354,0.0498 1.44279,0.19868 1.44279,0.33073 0,0.13205 -0.0893,0.22008 -0.19844,0.19562 -0.10914,-0.0245 -0.67469,-0.0919 -1.25677,-0.14997 z m -2.51354,-0.33472 c 0,-0.14552 0.11906,-0.26458 0.26459,-0.26458 0.14552,0 0.26458,0.11906 0.26458,0.26458 0,0.14552 -0.11906,0.26458 -0.26458,0.26458 -0.14553,0 -0.26459,-0.11906 -0.26459,-0.26458 z m -1.25173,-0.18336 c 0.25743,-0.0671 0.61461,-0.0627 0.79375,0.01 0.17913,0.0725 -0.0315,0.12736 -0.46806,0.12197 -0.43656,-0.005 -0.58312,-0.0647 -0.32569,-0.13178 z m 7.73402,-2.72706 c -2.64265,-0.1619 -2.64137,-0.16212 1.05834,-0.18241 2.03729,-0.0112 4.47807,0.0667 5.42395,0.17299 1.56688,0.17613 1.47278,0.19235 -1.05833,0.18242 -1.52797,-0.006 -3.96875,-0.0838 -5.42396,-0.173 z m -4.825,-0.18986 c 0.40218,-0.0608 0.99749,-0.0592 1.32291,0.004 0.32542,0.0628 -0.004,0.11256 -0.73124,0.11058 -0.7276,-0.002 -0.99386,-0.0534 -0.59167,-0.11419 z m 1.7823,-0.62348 c -0.65485,-0.091 -1.1311,-0.18678 -1.05834,-0.21278 0.14187,-0.0507 7.47796,-0.0925 9.63524,-0.0549 0.71548,0.0125 1.23784,0.0857 1.1608,0.16274 -0.20862,0.20862 -8.36003,0.29644 -9.7377,0.10492 z m 3.07307,-0.9896 c -0.0732,-0.1185 0.45182,-0.2202 1.16679,-0.22601 0.71496,-0.006 1.23708,0.0911 1.16025,0.21544 -0.17807,0.28813 -2.14996,0.29708 -2.32704,0.0106 z m 3.03782,-0.0278 c -0.23489,-0.1487 0.44586,-0.24269 1.85208,-0.25569 1.22292,-0.0113 2.40208,0.0945 2.62036,0.23514 0.27257,0.1756 -0.30752,0.25569 -1.85209,0.25569 -1.23692,0 -2.41608,-0.10581 -2.62035,-0.23514 z"
       id="path23" />
  </g>
</svg>
