<?xml version="1.0" encoding="UTF-8" standalone="no"?>
<!-- Created with Inkscape (http://www.inkscape.org/) -->

<svg
   width="59.296249mm"
   height="26.772631mm"
   viewBox="0 0 59.296249 26.772631"
   version="1.1"
   id="svg1"
   inkscape:version="1.4.2 (2aeb623e1d, 2025-05-12)"
   sodipodi:docname="islands2.svg"
   xmlns:inkscape="http://www.inkscape.org/namespaces/inkscape"
   xmlns:sodipodi="http://sodipodi.sourceforge.net/DTD/sodipodi-0.dtd"
   xmlns="http://www.w3.org/2000/svg"
   xmlns:svg="http://www.w3.org/2000/svg">
  <sodipodi:namedview
     id="namedview1"
     pagecolor="#ffffff"
     bordercolor="#000000"
     borderopacity="0.25"
     inkscape:showpageshadow="2"
     inkscape:pageopacity="0.0"
     inkscape:pagecheckerboard="0"
     inkscape:deskcolor="#d1d1d1"
     inkscape:document-units="mm"
     inkscape:zoom="0.7349537"
     inkscape:cx="236.74961"
     inkscape:cy="457.85197"
     inkscape:window-width="1854"
     inkscape:window-height="1011"
     inkscape:window-x="0"
     inkscape:window-y="0"
     inkscape:window-maximized="1"
     inkscape:current-layer="layer1" />
  <defs
     id="defs1" />
  <g
     inkscape:label="Layer 1"
     inkscape:groupmode="layer"
     id="layer1"
     transform="translate(-42.63125,-27.277486)">
    <path
       style="fill:#000000"
       d="m 48.993738,53.9355 c 0.29437,-0.1276 5.1164,-0.27653 10.71563,-0.33097 5.59922,-0.0544 9.5304,-0.0187 8.73596,0.0794 -2.29481,0.28335 -20.0548,0.51306 -19.45159,0.25159 z m -0.45254,-1.00342 c 0.191,-0.0764 0.4192,-0.067 0.50712,0.0209 0.0879,0.0879 -0.0684,0.15045 -0.34726,0.13897 -0.30823,-0.0127 -0.37092,-0.0754 -0.15986,-0.15986 z m 0.84325,-0.14998 c 6e-5,-0.10915 2.53019,-0.19934 5.62251,-0.20044 3.09232,-10e-4 8.74328,-0.0331 12.55769,-0.0711 3.8144,-0.038 6.77998,0.0179 6.59016,0.12409 -0.45977,0.2573 -24.77051,0.40197 -24.77036,0.14741 z m -0.41999,-1.21919 c 0.1581,-0.25581 25.22189,-0.19483 25.47871,0.062 0.0908,0.0908 -5.6364,0.16501 -12.727,0.16501 -7.10425,0 -12.82902,-0.10191 -12.75171,-0.227 z m 26.28312,0.0518 c 0.18191,-0.0734 0.47956,-0.0734 0.661464,0 0.1819,0.0734 0.0331,0.13345 -0.330734,0.13345 -0.3638,0 -0.51263,-0.0601 -0.33073,-0.13345 z m -25.55564,-1.01409 c 0.18522,-0.18522 6.85323,-0.20493 7.03737,-0.0208 0.0835,0.0835 -1.49525,0.15178 -3.50829,0.15178 -2.01304,0 -3.60112,-0.0589 -3.52908,-0.13098 z m 7.62907,-0.13295 c 0.57093,-0.35285 -1.35859,-0.61508 -4.56301,-0.62012 -1.56435,-0.002 -2.84427,-0.10221 -2.84427,-0.22167 0,-0.11945 1.09538,-0.21719 2.43417,-0.21719 1.81198,0 2.35761,-0.0766 2.13466,-0.2995 -0.202,-0.202 -1.83426,-0.2935 -5.01385,-0.28104 -2.87662,0.0113 -4.50808,-0.071 -4.18519,-0.21107 0.29104,-0.12624 2.19604,-0.23972 4.23334,-0.25218 2.55029,-0.0156 3.58053,-0.10454 3.30729,-0.28554 -0.22449,-0.1487 -2.15761,-0.25088 -4.45059,-0.23525 -2.22954,0.0152 -4.12462,-0.0433 -4.21128,-0.12993 -0.0867,-0.0867 1.58867,-0.15758 3.72298,-0.15758 2.41065,0 3.88055,-0.10022 3.88055,-0.26458 0,-0.31297 0.07,-0.30875 -4.5431,-0.2743 -2.23166,0.0167 -3.68174,-0.0776 -3.78593,-0.24622 -0.11115,-0.17984 0.61048,-0.27323 2.11133,-0.27323 1.61652,0 2.22684,-0.0863 2.09692,-0.29653 -0.12094,-0.19568 -0.89113,-0.25555 -2.26458,-0.17605 -1.14471,0.0663 -2.0813,0.0211 -2.0813,-0.10034 0,-0.12146 0.89297,-0.22083 1.98437,-0.22083 1.85708,0 2.41389,-0.23248 1.66515,-0.69523 -0.17557,-0.10851 -1.0983,-0.27722 -2.05052,-0.37492 l -1.73129,-0.17764 1.5875,-0.0562 c 1.95648,-0.0692 3.21126,-0.49566 1.5875,-0.53953 -1.23728,-0.0334 -3.12657,-0.28251 -3.28525,-0.43313 -0.0606,-0.0575 0.85508,-0.10464 2.03491,-0.10464 1.23098,0 2.21931,-0.11999 2.31917,-0.28157 0.11881,-0.19224 -0.54972,-0.26417 -2.10727,-0.22671 -1.25471,0.0302 -2.35787,-0.0217 -2.45146,-0.1153 -0.0936,-0.0936 0.8617,-0.17017 2.12288,-0.17017 1.35232,0 2.29306,-0.10855 2.29306,-0.26458 0,-0.14552 -0.44649,-0.26562 -0.99219,-0.26688 -0.5457,-10e-4 -1.64703,-0.0906 -2.4474,-0.19844 -1.42309,-0.19181 -1.39973,-0.19912 1.05834,-0.33129 l 2.51354,-0.13516 -2.45664,-0.23042 c -1.35116,-0.12674 -2.38965,-0.29742 -2.30777,-0.3793 0.0819,-0.0819 1.2469,-0.12244 2.58893,-0.0901 1.34203,0.0323 2.61866,-0.0618 2.83694,-0.20911 0.28039,-0.18923 -0.39906,-0.26902 -2.31511,-0.27189 -1.49159,-0.002 -2.71198,-0.11394 -2.71198,-0.24826 0,-0.13514 0.91577,-0.20823 2.05052,-0.16366 2.26533,0.089 4.0349,-0.0744 4.0349,-0.37265 0,-0.1064 -0.74414,-0.15061 -1.65365,-0.0982 -0.9095,0.0524 -2.18942,-0.0185 -2.84427,-0.15748 -0.96502,-0.20481 -0.57641,-0.24338 2.05088,-0.20354 2.4432,0.037 3.24142,-0.0323 3.24115,-0.28158 -2.5e-4,-0.23383 -0.60113,-0.33846 -2.05088,-0.35711 -3.25317,-0.0418 -3.82524,-0.44034 -0.7276,-0.50684 2.16763,-0.0465 2.45455,-0.0964 1.5875,-0.27571 -0.58209,-0.1204 -1.56435,-0.22577 -2.18282,-0.23416 -0.61846,-0.008 -1.12448,-0.13279 -1.12448,-0.27645 0,-0.16314 0.73095,-0.19943 1.94674,-0.0967 1.30294,0.11014 2.0065,0.0678 2.12748,-0.12791 0.19164,-0.31008 -0.96601,-0.72604 -1.35374,-0.48641 -0.121,0.0748 -0.63379,0.0386 -1.13951,-0.0803 -0.78823,-0.1854 -0.66452,-0.22014 0.86643,-0.24336 0.99618,-0.0151 1.78594,-0.14408 1.78594,-0.29166 0,-0.14553 -0.53578,-0.26459 -1.19063,-0.26459 -0.65484,0 -1.19062,-0.11766 -1.19062,-0.26146 0,-0.14381 0.20836,-0.24401 0.46302,-0.22266 1.08668,0.0911 2.18281,-0.0644 2.18281,-0.30963 0,-0.14552 -0.38695,-0.28049 -0.8599,-0.29993 -0.67813,-0.0279 -0.58026,-0.0806 0.46303,-0.24916 1.53395,-0.24792 11.24479,0.003 11.24479,0.29025 0,0.1063 -2.11336,0.15467 -4.69636,0.10749 -3.18765,-0.0582 -4.31386,-0.0115 -3.50573,0.14547 0.65485,0.12718 2.27707,0.24007 3.60495,0.25085 2.67429,0.0217 4.13076,0.23314 3.92291,0.56944 -0.0751,0.12145 -0.28148,0.17521 -0.45873,0.11946 -0.17724,-0.0557 -1.63194,-0.16345 -3.23267,-0.23937 -3.39253,-0.16089 -2.61433,0.21635 1.03037,0.49947 1.29431,0.10055 2.20935,0.27177 2.03342,0.3805 -0.17593,0.10873 -0.6396,0.15114 -1.03037,0.0942 l -0.7105,-0.10345 0.61427,0.45286 c 0.52351,0.38594 1.3641,0.45983 5.68854,0.50002 9.31829,0.0866 10.58765,0.12648 10.3877,0.32613 -0.1093,0.10914 -3.52242,0.15569 -7.58472,0.10343 -6.60771,-0.085 -7.386,-0.0508 -7.386,0.32473 0,0.3731 0.8141,0.42007 7.32466,0.42264 4.02856,0.002 7.39208,0.0936 7.47448,0.20444 0.18911,0.25439 0.0127,0.23602 4.293204,0.44688 4.30713,0.21217 5.38733,-0.23165 1.27363,-0.5233 -3.1626,-0.22422 -3.29193,-0.48013 -0.20503,-0.40572 2.44552,0.0589 2.672,-0.25119 0.29152,-0.39919 -3.08492,-0.1918 -4.948254,-0.39057 -5.091884,-0.54318 -0.0809,-0.0859 1.251954,-0.0709 2.961824,0.0334 2.0273,0.12366 3.10885,0.0974 3.10885,-0.0756 0,-0.1484 -1.22544,-0.34875 -2.78221,-0.45486 -1.53022,-0.1043 -2.856404,-0.30965 -2.947064,-0.45634 -0.174,-0.28155 5.894654,-0.0183 6.381024,0.27682 0.14018,0.085 0.64053,0.19421 1.11189,0.24256 0.67321,0.0691 0.92497,-0.0411 1.1738,-0.51351 0.17423,-0.33079 0.44778,-0.69222 0.6079,-0.80318 0.16012,-0.11096 2.00368,-0.12272 4.09682,-0.0261 3.1147,0.14373 3.78431,0.11145 3.6879,-0.17778 -0.0737,-0.22123 -0.65596,-0.38619 -1.55674,-0.44106 -2.12383,-0.12938 -3.1175,-0.32772 -3.32515,-0.66371 -0.122,-0.19739 -0.0329,-0.24093 0.26178,-0.12786 0.90797,0.34842 4.85925,0.51438 5.04617,0.21194 0.20459,-0.33104 0.26653,-0.31514 -1.70549,-0.43793 -0.8023,-0.05 -1.7548,-0.21191 -2.11666,-0.35989 -0.4874,-0.19933 0.009,-0.23875 1.91357,-0.15209 3.27031,0.14876 4.14779,-0.13666 1.79413,-0.58357 l -1.71979,-0.32656 2.18785,0.12845 c 1.20332,0.0707 2.39394,0.0218 2.64583,-0.10857 0.58732,-0.30395 6.146518,-0.0528 6.146518,0.27771 0,0.14462 -0.71762,0.19003 -1.71074,0.10824 -0.971848,-0.08 -1.778538,-0.0312 -1.867698,0.11306 -0.0889,0.14377 0.28029,0.26539 0.85085,0.28033 0.55429,0.0145 1.305458,0.1217 1.669258,0.23821 0.6135,0.19647 0.59591,0.21374 -0.24253,0.2382 -1.134208,0.0331 -0.991018,0.19509 0.32603,0.36886 1.52436,0.20112 1.50252,0.45127 -0.0394,0.45127 -0.75186,0 -1.367018,0.11906 -1.367018,0.26458 0,0.14552 0.52876,0.26459 1.175008,0.26459 0.64626,0 1.2486,0.11906 1.33854,0.26458 0.0989,0.16003 -0.26704,0.26458 -0.92605,0.26458 -0.659,0 -1.024938,0.10456 -0.92604,0.26459 0.0899,0.14552 0.51368,0.26458 0.94166,0.26458 0.81874,0 1.11323,0.51405 0.31511,0.55005 -0.2766,0.0125 -0.32986,0.0746 -0.13229,0.15434 0.7219,0.2913 0.26697,0.61853 -0.85989,0.61853 -1.510488,0 -1.561778,0.46531 -0.0661,0.60002 0.80168,0.0722 0.60731,0.11455 -0.677068,0.1475 -1.15394,0.0296 -1.74124,0.14382 -1.63377,0.31771 0.0923,0.14931 0.42673,0.24986 0.74322,0.22343 1.08496,-0.0906 2.648018,0.0342 2.483888,0.19837 -0.2419,0.24189 -5.808958,0.11034 -6.131108,-0.14488 -0.36091,-0.28593 -4.35762,-0.52811 -4.51493,-0.27358 -0.0668,0.10805 0.18468,0.39702 0.55879,0.64215 0.57652,0.37775 1.38286,0.44157 5.2894,0.41868 3.35369,-0.0197 4.609178,0.0572 4.609178,0.28202 0,0.22909 -0.87383,0.26152 -3.378518,0.12536 -2.06646,-0.11233 -3.63343,-0.082 -4.0349,0.0782 -0.77699,0.31 -0.83871,0.28855 1.32417,0.46021 2.17627,0.17274 2.40201,0.36437 0.42919,0.36437 -0.94257,0 -1.45314,0.1 -1.35139,0.26458 0.0899,0.14552 0.48391,0.2846 0.87551,0.30906 0.39159,0.0245 -0.002,0.11748 -0.87551,0.20669 l -1.5875,0.16221 0.92604,0.32136 c 0.89629,0.31103 0.87928,0.31722 -0.52917,0.19249 -0.80036,-0.0709 -2.82443,-0.13828 -4.49792,-0.14977 -1.67349,-0.0115 -2.8209,-0.1081 -2.54982,-0.21468 0.39427,-0.15501 0.26193,-0.2667 -0.66145,-0.55823 -0.63489,-0.20044 -1.27341,-0.4462 -1.41893,-0.54612 -0.14552,-0.0999 -1.39568,-0.25415 -2.77813,-0.34272 -1.38245,-0.0886 -3.21672,-0.24207 -4.07617,-0.34111 l -1.562634,-0.18006 0.53737,0.53737 c 0.295554,0.29555 0.582024,0.6665 0.636594,0.82433 0.0606,0.17542 1.0899,0.3033 2.64782,0.32898 1.40173,0.0231 2.71142,0.14929 2.91042,0.28042 0.22463,0.14802 -0.7207,0.22388 -2.49339,0.20009 -1.57036,-0.0211 -2.91744,0.0239 -2.9935,0.1 -0.1884,0.18839 10.07735,0.70809 14.16985,0.71733 1.19103,0.003 1.87166,0.0997 1.71979,0.24504 -0.15093,0.14446 -3.16922,0.11803 -7.55425,-0.0661 -7.52495,-0.31605 -8.17523,-0.30734 -8.17523,0.10955 0,0.13485 1.17161,0.24518 2.60357,0.24518 4.8687,0 11.41934,0.34446 11.41934,0.60047 0,0.15709 -1.37709,0.18486 -3.63802,0.0734 -7.86363,-0.38784 -9.59114,-0.38913 -9.59114,-0.007 0,0.26188 0.24946,0.31795 0.92604,0.20816 0.60099,-0.0975 0.92604,-0.0452 0.92604,0.14893 0,0.16456 -0.37703,0.2992 -0.83785,0.2992 -1.65387,0 -0.56249,0.22281 2.42535,0.49514 1.67349,0.15253 4.94771,0.34509 7.27604,0.42791 4.37012,0.15544 7.11691,0.38261 6.92665,0.57287 -0.11533,0.11533 -10.6125,-0.31541 -14.53342,-0.59636 -1.4549,-0.10425 -2.3151,-0.0691 -2.3151,0.0946 0,0.14325 0.9525,0.34354 2.11666,0.4451 1.18177,0.10308 2.11667,0.3071 2.11667,0.46189 0,0.16022 -0.25131,0.20734 -0.59531,0.11164 -1.26284,-0.35134 -7.257374,-0.51197 -7.450404,-0.19965 -0.13468,0.21793 0.36611,0.30355 1.775464,0.30355 2.47975,0 4.41817,0.26053 4.41817,0.59382 0,0.14151 -0.26789,0.19129 -0.59531,0.11061 -1.20835,-0.29776 -5.859944,-0.25638 -5.963084,0.053 -0.0552,0.16548 0.14775,0.30087 0.45092,0.30087 0.30317,0 0.55122,0.1083 0.55122,0.24067 0,0.36783 -2.3513,0.28096 -3.83646,-0.14174 -1.51796,-0.43204 -10.98021,-0.50005 -10.98021,-0.0789 0,0.26787 1.26891,0.33255 7.33224,0.37373 2.21373,0.015 4.10881,0.11119 4.21129,0.21368 0.10248,0.10248 -2.3268,0.18633 -5.3984,0.18633 -3.0716,0 -5.6496,0.10495 -5.72888,0.23323 -0.19112,0.30924 4.37742,0.55115 8.92004,0.47232 2.00625,-0.0348 3.79219,0.0285 3.96875,0.14069 0.39563,0.25141 0.93765,0.23403 -6.62431,0.21239 -3.54444,-0.0102 -6.15156,0.0847 -6.15156,0.22383 0,0.33553 2.36828,0.47932 8.99042,0.54582 3.12572,0.0314 5.738,0.11195 5.80507,0.17901 0.0671,0.0671 -4.08993,0.10997 -9.23776,0.0953 -5.20785,-0.0148 -9.19941,-0.12565 -8.99837,-0.2499 z m 2.78748,-0.99284 c -0.0515,-0.25466 -0.22324,-0.79819 -0.38168,-1.20785 -0.15844,-0.40965 -0.28808,-0.85436 -0.28808,-0.98823 0,-0.14374 1.85565,-0.19028 4.53147,-0.11367 4.01433,0.11493 4.49375,0.0843 4.20094,-0.26854 -0.40609,-0.4893 -0.33243,-0.49167 0.97245,-0.0313 0.57208,0.20184 1.74791,0.4102 2.61295,0.46302 l 1.57282,0.096 0.0829,-0.85989 c 0.0647,-0.67111 0.20992,-0.86652 0.66145,-0.89007 1.01912,-0.0531 2.104574,-0.20497 2.471224,-0.34567 0.5421,-0.20802 0.42515,-1.15619 -0.18273,-1.48152 -0.41162,-0.22029 -0.526414,-0.51955 -0.48564,-1.26608 0.0294,-0.53768 -0.0297,-1.23269 -0.131234,-1.54446 -0.23972,-0.73603 -1.53744,-1.27148 -2.48006,-1.02329 -1.16187,0.30592 -2.23678,0.24203 -3.37551,-0.20064 -0.90494,-0.35178 -1.089,-0.35728 -1.26992,-0.0379 -0.38336,0.67673 -0.76452,0.41004 -0.58462,-0.40905 l 0.17188,-0.78256 -4.40225,0.0951 c -2.42123,0.0523 -4.4677,0.16051 -4.5477,0.24051 -0.33192,0.33193 1.39186,0.47277 4.7818,0.39071 1.98143,-0.048 3.60244,0.002 3.60223,0.11123 -2.1e-4,0.10914 -1.90538,0.19843 -4.23371,0.19843 -2.64583,0 -4.23333,0.0992 -4.23333,0.26459 0,0.23855 4.37743,0.40157 7.22338,0.26901 1.83683,-0.0856 2.23812,1.09033 0.63053,1.84765 -1.07088,0.50449 -0.99611,1.04024 0.37346,2.67605 0.56818,0.67862 1.03304,1.29863 1.03304,1.37781 0,0.20118 -5.92462,0.0455 -6.26458,-0.16461 -0.15258,-0.0943 -0.42387,-0.69454 -0.60287,-1.33387 -0.32366,-1.15601 -2.58724,-4.22233 -3.32631,-4.50594 -0.31811,-0.12207 -0.28903,-0.30626 0.17161,-1.08699 0.45979,-0.77928 0.49646,-1.01011 0.21443,-1.34993 -0.52398,-0.63135 -1.80834,-1.21255 -2.32042,-1.05002 -0.58833,0.18673 -3.31558,-0.51523 -4.61356,-1.18746 l -0.99901,-0.51739 -0.25777,0.67798 c -0.33809,0.88927 -0.32687,1.87212 0.029,2.53702 0.34039,0.63603 -0.14189,2.07527 -0.69541,2.07527 -0.18946,0 -0.69581,0.29563 -1.12521,0.65695 -0.73406,0.61766 -0.76736,0.72855 -0.55698,1.85462 0.12306,0.65873 0.12961,1.46443 0.0145,1.79046 -0.43444,1.23099 -0.15471,1.45519 1.94808,1.56138 1.78783,0.0903 2.03822,0.17433 2.8429,0.95425 0.48532,0.47039 0.98642,0.85526 1.11355,0.85526 0.12714,0 0.41913,0.16012 0.64887,0.35583 0.60151,0.51241 2.56562,1.23369 3.82927,1.40622 0.59749,0.0816 1.13596,0.19475 1.1966,0.25147 0.27651,0.2587 0.51215,0.0602 0.42722,-0.35988 z m 6.87087,-4.03489 c -0.0899,-0.14552 -1.11603,-0.26459 -2.28019,-0.26459 -1.34374,0 -2.05696,0.0966 -1.95315,0.26459 0.0899,0.14552 1.11602,0.26458 2.28019,0.26458 1.34374,0 2.05696,-0.0966 1.95315,-0.26458 z m -1.0815,-0.68918 c 0.89687,-0.34416 0.0299,-0.63374 -1.89745,-0.63374 -2.31916,0 -2.36628,0.4415 -0.0638,0.59736 0.80036,0.0542 1.47523,0.12053 1.49971,0.14745 0.0245,0.0269 0.23216,-0.0231 0.4615,-0.11107 z m -0.10913,-1.16291 c 0,-0.15589 -0.84231,-0.25374 -2.05052,-0.2382 -1.43137,0.0184 -1.85079,0.0903 -1.38906,0.2382 0.96566,0.30926 3.43958,0.30926 3.43958,0 z m -0.33319,-0.90153 c 0.0862,-0.0862 -0.90484,-0.13809 -2.2024,-0.11523 -1.99828,0.0352 -2.15682,0.0673 -1.03628,0.20984 1.47824,0.18802 3.00052,0.14356 3.23868,-0.0946 z m 0.4884,-0.75286 c 0.10949,-0.10955 -0.089,-0.18062 -0.44109,-0.15792 -0.35209,0.0227 -1.5629,-0.0505 -2.69068,-0.16263 -1.40449,-0.13965 -2.05052,-0.1149 -2.05052,0.0786 0,0.40946 4.79134,0.63318 5.18229,0.24198 z m 1.56458,-0.99144 c 0.10482,-0.1696 -0.77869,-0.26458 -2.461,-0.26458 -1.44348,0 -3.17692,-0.0757 -3.85207,-0.16826 -0.7981,-0.10939 -1.22755,-0.0695 -1.22755,0.11389 0,0.4053 0.79463,0.50686 4.28386,0.5475 1.81739,0.0212 3.16069,-0.0731 3.25676,-0.22855 z m 24.475054,-0.04 c 0.81454,-0.28395 0.84071,-0.32881 0.38579,-0.66145 -0.26841,-0.19627 -0.67362,-0.36061 -0.90047,-0.36521 -0.83064,-0.0168 -1.86766,-1.23794 -1.86766,-2.19918 0,-0.82157 -0.10772,-0.95311 -1.1085,-1.35354 -0.79498,-0.31809 -1.46845,-0.39402 -2.38125,-0.26848 -1.13185,0.15567 -1.27275,0.24777 -1.27275,0.83195 0,0.57439 -0.10801,0.65099 -0.85989,0.60982 -1.89387,-0.10368 -1.91458,-0.0836 -1.02778,0.99873 1.48292,1.80979 1.90363,2.12821 3.15768,2.38991 1.76102,0.3675 4.8444,0.37666 5.87483,0.0174 z m -19.844844,-1.1789 c 0,-0.0572 -0.24515,-0.10399 -0.54478,-0.10399 -0.29963,0 -0.47441,0.11387 -0.3884,0.25303 0.14118,0.22845 0.93318,0.10195 0.93318,-0.14904 z m 10.825874,0.18265 c 0.20615,-0.0121 0.29595,-0.10092 0.19955,-0.19732 -0.0964,-0.0964 -1.57475,-0.22045 -3.28524,-0.27566 -1.71048,-0.0552 -3.66888,-0.12846 -4.351994,-0.16276 -0.68311,-0.0343 -1.18015,4.5e-4 -1.10453,0.0772 0.15073,0.15303 6.786064,0.69568 7.638224,0.62466 0.29104,-0.0242 0.69783,-0.054 0.90399,-0.0661 z m -9.023764,-0.93929 c -0.0453,-0.0372 -1.14636,-0.1461 -2.44686,-0.242 -2.36583,-0.17446 -2.97469,0.0668 -0.87919,0.34835 1.01126,0.13589 3.52312,0.0556 3.32605,-0.10635 z m 23.517844,-1.53016 c 0.13273,-0.6606 0.2528,-0.7276 1.30375,-0.7276 1.278978,0 1.420758,-0.20895 0.62838,-0.92604 -0.29711,-0.26889 -0.52916,-0.81491 -0.52916,-1.24514 0,-1.54533 -2.91816,-1.92366 -4.84131,-0.62765 -0.8772,0.59114 -1.27667,1.47458 -0.6682,1.47772 0.19257,9.9e-4 0.64159,0.44748 0.99781,0.99219 1.07124,1.63807 1.3128,1.84109 2.15596,1.81198 0.65841,-0.0227 0.83342,-0.1615 0.95277,-0.75546 z m -2.69807,0.33073 c -0.0899,-0.14552 -0.27556,-0.26458 -0.41249,-0.26458 -0.13694,0 -0.24897,0.11906 -0.24897,0.26458 0,0.14552 0.18562,0.26459 0.41249,0.26459 0.22687,0 0.3389,-0.11907 0.24897,-0.26459 z m -2.50955,-0.2889 c -1.06146,-0.13722 -1.81317,-0.12442 -1.97114,0.0335 -0.16408,0.16408 0.4492,0.24336 1.71579,0.2218 l 1.97115,-0.0335 z m 0.0358,-0.82974 c -1.18686,-0.1819 -1.76543,-0.172 -1.97115,0.0337 -0.21185,0.21185 0.24584,0.282 1.67997,0.25747 l 1.97115,-0.0337 z m -0.11187,-0.66195 c -0.54895,-0.0573 -1.38239,-0.0563 -1.85209,0.002 -0.46969,0.0584 -0.0206,0.10532 0.99809,0.10414 1.01865,-10e-4 1.40295,-0.049 0.854,-0.10627 z m -14.26507,12.18318 c 0.191,-0.0764 0.4192,-0.067 0.50712,0.0209 0.0879,0.0879 -0.0684,0.15046 -0.34726,0.13897 -0.30823,-0.0127 -0.37092,-0.0754 -0.15986,-0.15986 z m 5.27514,-1.58198 c 0.1819,-0.0734 0.47955,-0.0734 0.66145,0 0.1819,0.0734 0.0331,0.13345 -0.33073,0.13345 -0.3638,0 -0.51263,-0.06 -0.33072,-0.13345 z m -1.78594,-1.96192 c -0.94589,-0.084 -1.60073,-0.18347 -1.45521,-0.221 0.40352,-0.10404 3.1599,0.006 3.28524,0.13137 0.2216,0.22133 -0.14523,0.23929 -1.83003,0.0896 z m 2.51354,0.0205 c -0.46546,-0.20002 -0.43969,-0.22963 0.21405,-0.24599 0.43186,-0.0108 0.67472,0.0922 0.5797,0.24599 -0.0899,0.14552 -0.18626,0.25621 -0.21405,0.24599 -0.0278,-0.0102 -0.28866,-0.12093 -0.5797,-0.24599 z m 1.19063,-0.0662 c -1e-5,-0.25943 1.30778,-0.22199 1.98437,0.0568 0.37185,0.15322 0.15555,0.20669 -0.7276,0.17984 -0.69122,-0.021 -1.25677,-0.12751 -1.25677,-0.23665 z m 3.77031,0.14835 c 0.25466,-0.0666 0.67138,-0.0666 0.92604,0 0.25466,0.0665 0.0463,0.121 -0.46302,0.121 -0.50933,0 -0.71768,-0.0545 -0.46302,-0.121 z m -5.68854,-2.91476 c 0.32742,-0.0631 0.8632,-0.0631 1.19062,0 0.32742,0.0631 0.0595,0.11466 -0.59531,0.11466 -0.65485,0 -0.92274,-0.0516 -0.59531,-0.11466 z m -7.535594,-3.96538 c 0.257434,-0.0671 0.614614,-0.0627 0.793754,0.01 0.17913,0.0725 -0.0315,0.12736 -0.46806,0.12196 -0.436564,-0.005 -0.583134,-0.0647 -0.325694,-0.13177 z m -8.97104,-1.43358 c -2.93039,-0.0965 -5.53891,-0.29351 -5.79672,-0.43778 -0.31941,-0.17875 0.87216,-0.22844 3.74048,-0.15596 4.62384,0.11684 9.71569,0.37245 9.58448,0.48113 -0.27536,0.22807 -2.85206,0.26662 -7.52824,0.11261 z m 0.21921,-1.04236 c -2.95534,-0.1067 -5.45565,-0.2787 -5.55625,-0.38222 -0.10059,-0.10352 2.07929,-0.12004 4.84419,-0.0367 2.76489,0.0833 5.80099,0.16354 6.74687,0.17825 1.21149,0.0189 1.56339,0.094 1.19063,0.25415 -0.29105,0.12507 -0.82683,0.21685 -1.19063,0.20397 -0.3638,-0.0129 -3.07947,-0.11073 -6.03481,-0.21743 z m 0.47856,-1.05931 c -0.97826,-0.10102 -0.0882,-0.18831 2.71578,-0.26635 4.37472,-0.12176 4.69255,-0.10009 4.69255,0.31991 0,0.26657 -4.63242,0.23308 -7.40833,-0.0536 z m -2.91042,-0.25014 c -0.62671,-0.20071 -0.61628,-0.21323 0.19844,-0.23821 0.47294,-0.0145 0.8599,0.0927 0.8599,0.23821 0,0.29901 -0.12467,0.29901 -1.05834,0 z m -1.37252,-0.18075 c 0.19099,-0.0764 0.4192,-0.067 0.50712,0.0209 0.0879,0.0879 -0.0684,0.15046 -0.34727,0.13897 -0.30822,-0.0127 -0.37092,-0.0754 -0.15985,-0.15986 z m -6.03581,-0.36157 c -2.11005,-0.10172 -4.5806,-0.1999 -5.4901,-0.21819 -0.90951,-0.0183 -1.65365,-0.14566 -1.65365,-0.28305 0,-0.22721 3.50188,-0.17473 7.67292,0.11498 0.80036,0.0556 2.02075,0.10867 2.71198,0.11795 0.69122,0.009 1.25677,0.13594 1.25677,0.28146 0,0.14552 -0.14883,0.2437 -0.33073,0.21819 -0.1819,-0.0255 -2.05714,-0.12962 -4.16719,-0.23134 z m 4.47587,-0.61385 c -0.14951,-0.13268 -5.92929,-0.41792 -8.7092,-0.42982 -1.49463,-0.006 -2.11826,-0.0923 -1.8593,-0.25604 0.21431,-0.13553 1.524,-0.18321 2.91042,-0.10595 3.30212,0.18403 5.95324,0.30483 7.36501,0.33562 0.68734,0.015 1.07516,0.12993 0.97658,0.28944 -0.1657,0.2681 -0.48227,0.34533 -0.68351,0.16675 z m -2.3592,-1.23971 c -1.09141,-0.11089 -3.08513,-0.2248 -4.43049,-0.25313 -1.567,-0.033 -2.38677,-0.14753 -2.281,-0.31866 0.10509,-0.17005 1.37877,-0.21266 3.50444,-0.11723 3.8071,0.17092 5.5883,0.4063 5.5883,0.73848 0,0.12636 -0.0893,0.21229 -0.19844,0.19095 -0.10914,-0.0213 -1.09141,-0.12953 -2.18281,-0.24041 z m 39.026044,-0.51454 -2.11667,-0.16755 2.71198,-0.0485 c 1.663948,-0.0298 2.711978,0.0537 2.711978,0.21607 0,0.14552 -0.26789,0.24275 -0.59531,0.21606 -0.32742,-0.0267 -1.547808,-0.12391 -2.711978,-0.21606 z m -3.70417,-0.26458 c -0.0899,-0.14553 0.0151,-0.26459 0.23336,-0.26459 0.21828,0 0.47046,0.11906 0.56039,0.26459 0.0899,0.14552 -0.0151,0.26458 -0.23335,0.26458 -0.21828,0 -0.47046,-0.11906 -0.5604,-0.26458 z m 4.60816,-0.6328 c -0.0606,-0.057 -1.35146,-0.17307 -2.8685,-0.25795 -1.54343,-0.0863 -2.88354,-0.28882 -3.04271,-0.4597 -0.21156,-0.22712 -0.11495,-0.2678 0.37701,-0.15876 0.3638,0.0806 2.24154,0.2305 4.17275,0.33301 1.93121,0.10251 3.575338,0.29003 3.653628,0.41671 0.13601,0.22006 -2.063508,0.34163 -2.292178,0.12669 z m -1.69774,-1.15626 c -2.16617,-0.18903 -5.17586,-0.6694 -5.28331,-0.84325 -0.0666,-0.1078 0.44003,-0.10816 1.12588,-8.1e-4 0.68586,0.10736 2.63076,0.2808 4.32201,0.38543 1.69125,0.10463 3.239068,0.29665 3.439588,0.42672 0.33623,0.21809 -1.304238,0.23261 -3.604168,0.0319 z m -1.79891,-1.28868 c -0.0481,-0.0481 -0.73464,-0.20352 -1.52556,-0.3453 -1.18322,-0.2121 -0.92233,-0.23305 1.47239,-0.11823 3.91292,0.18762 5.637618,0.58546 2.45159,0.56552 -1.27099,-0.008 -2.35028,-0.0539 -2.39842,-0.10199 z"
       id="path25" />
  </g>
</svg>
