<?xml version="1.0" encoding="UTF-8" standalone="no"?>
<!-- Created with Inkscape (http://www.inkscape.org/) -->

<svg
   width="26.969954mm"
   height="18.643759mm"
   viewBox="0 0 26.969954 18.643759"
   version="1.1"
   id="svg1"
   inkscape:version="1.4.2 (2aeb623e1d, 2025-05-12)"
   sodipodi:docname="islands6.svg"
   xmlns:inkscape="http://www.inkscape.org/namespaces/inkscape"
   xmlns:sodipodi="http://sodipodi.sourceforge.net/DTD/sodipodi-0.dtd"
   xmlns="http://www.w3.org/2000/svg"
   xmlns:svg="http://www.w3.org/2000/svg">
  <sodipodi:namedview
     id="namedview1"
     pagecolor="#ffffff"
     bordercolor="#000000"
     borderopacity="0.25"
     inkscape:showpageshadow="2"
     inkscape:pageopacity="0.0"
     inkscape:pagecheckerboard="0"
     inkscape:deskcolor="#d1d1d1"
     inkscape:document-units="mm"
     inkscape:zoom="0.7349537"
     inkscape:cx="51.703937"
     inkscape:cy="34.696063"
     inkscape:window-width="1854"
     inkscape:window-height="1011"
     inkscape:window-x="0"
     inkscape:window-y="0"
     inkscape:window-maximized="1"
     inkscape:current-layer="layer1" />
  <defs
     id="defs1" />
  <g
     inkscape:label="Layer 1"
     inkscape:groupmode="layer"
     id="layer1"
     transform="translate(-91.545837,-139.17082)">
    <path
       style="fill:#000000"
       d="m 100.65641,157.59512 c -0.82965,-0.14855 -0.55471,-0.19761 1.27238,-0.22704 1.49542,-0.0241 2.27212,0.0573 2.1672,0.22704 -0.18084,0.29261 -1.80532,0.29261 -3.43958,0 z m -1.5875,-1.05834 c -0.50492,-0.21697 -0.50189,-0.22824 0.0661,-0.24598 0.32742,-0.0102 0.59531,0.10046 0.59531,0.24598 0,0.14552 -0.0298,0.25622 -0.0661,0.24599 -0.0364,-0.0102 -0.30427,-0.12092 -0.59531,-0.24599 z m 1.32291,0 c -0.46545,-0.20001 -0.43968,-0.22963 0.21406,-0.24598 0.43185,-0.0108 0.67471,0.0922 0.57969,0.24598 -0.0899,0.14552 -0.18626,0.25622 -0.21405,0.24599 -0.0278,-0.0102 -0.28866,-0.12092 -0.5797,-0.24599 z m 1.19063,-0.0661 c 0,-0.25943 1.30778,-0.22199 1.98437,0.0568 0.37186,0.15323 0.15555,0.20669 -0.7276,0.17984 -0.69122,-0.021 -1.25676,-0.1275 -1.25677,-0.23664 z m -0.83908,-0.70992 c -1.5529,-0.0825 -2.92212,-0.25585 -3.04271,-0.38525 -0.12769,-0.13702 0.98578,-0.16464 2.66618,-0.0661 1.58698,0.093 3.78964,0.17095 4.89479,0.17318 1.39503,0.003 1.88802,0.0825 1.61248,0.26053 -0.41266,0.26669 -1.39011,0.26951 -6.13074,0.0177 z m 1.50054,-0.84266 c -6.42735,-0.29145 -6.95911,-0.49534 -0.92605,-0.35506 2.69214,0.0626 5.34831,0.11559 5.9026,0.11776 0.60365,0.002 0.94223,0.11004 0.84428,0.26852 -0.0899,0.14552 -0.36485,0.24662 -0.61093,0.22466 -0.24607,-0.022 -2.59053,-0.1371 -5.2099,-0.25588 z m 3.0427,-1.02711 c -1.96453,-0.0857 -3.33375,-0.18643 -3.0427,-0.22383 0.37953,-0.0488 0.2299,-0.18327 -0.52917,-0.47561 -0.58208,-0.22418 -1.29646,-0.50639 -1.5875,-0.62714 -0.29104,-0.12075 -1.76274,-0.28985 -3.27044,-0.37577 -1.5077,-0.0859 -2.93645,-0.27711 -3.175,-0.42484 -0.31148,-0.19291 -0.0236,-0.22839 1.02148,-0.12587 2.74633,0.26939 5.22801,0.24913 4.93856,-0.0403 -0.0972,-0.0972 -1.63508,-0.2247 -3.41753,-0.28335 -1.78245,-0.0587 -3.35988,-0.22998 -3.5054,-0.38074 -0.18234,-0.18891 0.69228,-0.21668 2.8137,-0.0893 1.98877,0.11938 3.13678,0.0901 3.24355,-0.0826 0.10449,-0.16908 -0.81197,-0.33668 -2.49232,-0.45582 -3.16261,-0.22421 -3.29193,-0.48012 -0.20504,-0.40572 2.51677,0.0607 2.64131,-0.25965 0.15738,-0.40475 -2.78182,-0.16251 -4.52436,-0.35924 -4.68635,-0.52907 -0.0846,-0.0887 1.18561,-0.0755 2.82272,0.0294 1.95908,0.12552 2.97656,0.0991 2.97656,-0.0773 0,-0.15199 -1.20466,-0.35015 -2.78221,-0.45768 -1.53022,-0.1043 -2.85639,-0.30966 -2.94705,-0.45635 -0.17401,-0.28155 5.89465,-0.0183 6.38101,0.27683 0.14018,0.0851 0.64054,0.1942 1.1119,0.24256 0.6732,0.0691 0.92496,-0.0411 1.1738,-0.51352 0.17422,-0.33079 0.44778,-0.69222 0.60789,-0.80318 0.16012,-0.11096 2.00369,-0.12272 4.09682,-0.0261 3.1147,0.14373 3.78432,0.11145 3.6879,-0.17779 -0.0737,-0.22123 -0.65595,-0.38618 -1.55674,-0.44105 -2.12382,-0.12938 -3.11749,-0.32772 -3.32515,-0.66371 -0.12199,-0.1974 -0.0329,-0.24093 0.26179,-0.12786 0.90796,0.34842 4.85925,0.51437 5.04616,0.21194 0.2046,-0.33104 0.26653,-0.31514 -1.70548,-0.43793 -0.80231,-0.05 -1.75481,-0.21191 -2.11667,-0.3599 -0.4874,-0.19932 0.009,-0.23874 1.91358,-0.15209 3.25591,0.14811 4.15949,-0.13928 1.79412,-0.57064 l -1.71979,-0.31363 2.38125,-0.0151 c 5.90931,-0.0375 7.95606,0.0305 8.20208,0.27251 0.17369,0.17083 -0.29982,0.21142 -1.37827,0.11814 -0.94093,-0.0814 -1.71067,-0.0324 -1.80156,0.11467 -0.0911,0.14734 0.2708,0.26801 0.84911,0.28314 0.5543,0.0145 1.30546,0.1217 1.66926,0.23821 0.6135,0.19648 0.59592,0.21375 -0.24253,0.23821 -1.13421,0.0331 -0.99102,0.19509 0.32604,0.36886 1.52435,0.20112 1.50251,0.45126 -0.0394,0.45126 -0.75186,0 -1.36701,0.11907 -1.36701,0.26459 0,0.14552 0.52875,0.26458 1.17501,0.26458 0.64625,0 1.24859,0.11906 1.33853,0.26458 0.0989,0.16003 -0.26704,0.26459 -0.92604,0.26459 -0.659,0 -1.02495,0.10455 -0.92604,0.26458 0.0899,0.14552 0.57321,0.26458 1.07394,0.26458 0.50074,0 0.91043,0.11907 0.91043,0.26459 0,0.14552 -0.26789,0.2664 -0.59531,0.26863 -0.4648,0.003 -0.51107,0.0573 -0.21107,0.24713 0.21133,0.13369 0.47922,0.18437 0.59531,0.11262 0.11609,-0.0717 0.21107,-0.004 0.21107,0.14975 0,0.16325 -0.60739,0.2802 -1.45521,0.2802 -1.92725,0 -1.87457,0.47644 0.0661,0.59823 1.25663,0.0789 1.13882,0.10417 -0.67707,0.14549 -1.50508,0.0343 -2.14237,0.14075 -2.02066,0.33766 0.0978,0.1582 0.3941,0.23106 0.65852,0.16192 0.26441,-0.0692 0.87605,-0.0322 1.3592,0.0822 0.6203,0.14679 0.0582,0.21583 -1.91291,0.23496 -1.53524,0.0149 -2.90446,-0.0783 -3.04271,-0.20709 -0.31711,-0.29544 -4.32727,-0.5497 -4.49101,-0.28475 -0.0668,0.10805 0.18921,0.39999 0.56887,0.64875 0.53108,0.34798 1.30858,0.45613 3.37116,0.46894 1.47448,0.009 2.1451,0.0572 1.49025,0.1068 -1.93329,0.1464 -2.93457,0.36421 -2.78521,0.60588 0.0769,0.1245 0.34985,0.17147 0.60644,0.10437 0.25659,-0.0671 0.76249,-0.004 1.12421,0.14036 0.63379,0.25283 0.62527,0.26297 -0.2346,0.27913 -0.76237,0.0143 -0.84433,0.0746 -0.56292,0.41365 0.2828,0.34075 0.18448,0.39983 -0.69521,0.41776 -0.56352,0.0115 -0.87575,0.0809 -0.69385,0.15434 0.1819,0.0734 0.33073,0.24259 0.33073,0.37599 0,0.13339 -0.14883,0.21806 -0.33073,0.18815 -0.1819,-0.0299 -1.93807,-0.1245 -3.90261,-0.2102 z m 3.1761,-1.09836 c 0.81454,-0.28395 0.8407,-0.32881 0.38578,-0.66146 -0.26841,-0.19626 -0.67362,-0.36061 -0.90047,-0.36521 -0.83063,-0.0168 -1.86766,-1.23794 -1.86766,-2.19918 0,-0.82156 -0.10772,-0.9531 -1.10849,-1.35353 -0.79499,-0.31809 -1.46846,-0.39403 -2.38125,-0.26849 -1.13186,0.15567 -1.27276,0.24777 -1.27276,0.83196 0,0.57438 -0.10801,0.65098 -0.85989,0.60982 -1.89386,-0.10369 -1.91458,-0.0836 -1.02777,0.99872 1.48292,1.80979 1.90363,2.12821 3.15767,2.38991 1.76103,0.36751 4.84441,0.37667 5.87484,0.0175 z m 5.4751,-3.4657 c 0.13274,-0.6606 0.2528,-0.72761 1.30375,-0.72761 1.27898,0 1.42077,-0.20895 0.62839,-0.92604 -0.29711,-0.26888 -0.52917,-0.81491 -0.52917,-1.24513 0,-1.54534 -2.91816,-1.92367 -4.8413,-0.62766 -0.87721,0.59115 -1.27668,1.47458 -0.6682,1.47773 0.19257,9.9e-4 0.64158,0.44747 0.9978,0.99218 1.07124,1.63808 1.3128,1.8411 2.15597,1.81198 0.65841,-0.0227 0.83341,-0.1615 0.95276,-0.75545 z m -2.69807,0.33073 c -0.0899,-0.14552 -0.27556,-0.26459 -0.41249,-0.26459 -0.13693,0 -0.24897,0.11907 -0.24897,0.26459 0,0.14552 0.18562,0.26458 0.41249,0.26458 0.22687,0 0.33891,-0.11906 0.24897,-0.26458 z m -2.50954,-0.28891 c -1.06147,-0.13721 -1.81318,-0.12442 -1.97115,0.0335 -0.16408,0.16409 0.4492,0.24337 1.71579,0.22181 l 1.97115,-0.0335 z m 0.0358,-0.82974 c -1.18685,-0.18189 -1.76543,-0.17199 -1.97114,0.0337 -0.21185,0.21185 0.24584,0.28199 1.67996,0.25746 l 1.97115,-0.0337 z m -0.11187,-0.66195 c -0.54895,-0.0573 -1.38239,-0.0563 -1.85208,0.002 -0.4697,0.0584 -0.0206,0.10531 0.99809,0.10414 1.01864,-0.001 1.40294,-0.049 0.85399,-0.10628 z m -13.29398,5.74196 c -0.10857,-0.17567 0.34847,-0.2551 1.29072,-0.22431 2.08395,0.0681 2.52285,0.48726 0.5154,0.49223 -0.90091,0.002 -1.71367,-0.11834 -1.80612,-0.26792 z m 4.30405,0.0852 c 0.32742,-0.0631 0.8632,-0.0631 1.19062,0 0.32743,0.0631 0.0595,0.11466 -0.59531,0.11466 -0.65484,0 -0.92273,-0.0516 -0.59531,-0.11466 z m -7.40833,-3.95726 c 0.1819,-0.0734 0.47955,-0.0734 0.66145,0 0.18191,0.0734 0.0331,0.13345 -0.33072,0.13345 -0.36381,0 -0.51264,-0.06 -0.33073,-0.13345 z m 22.42343,-6.70394 -2.11666,-0.16754 2.3151,-0.0485 c 1.39936,-0.0293 2.3151,0.0561 2.3151,0.21606 0,0.14552 -0.0893,0.24275 -0.19843,0.21607 -0.10914,-0.0267 -1.15094,-0.12392 -2.31511,-0.21607 z m -3.70416,-0.26458 c -0.0899,-0.14552 0.0151,-0.26458 0.23335,-0.26458 0.21828,0 0.47046,0.11906 0.5604,0.26458 0.0899,0.14552 -0.0151,0.26458 -0.23336,0.26458 -0.21828,0 -0.47046,-0.11906 -0.56039,-0.26458 z m 4.60816,-0.63279 c -0.0606,-0.057 -1.35146,-0.17307 -2.86851,-0.25795 -1.51704,-0.0849 -2.88626,-0.28892 -3.04271,-0.45342 -0.20958,-0.22037 -0.0755,-0.26095 0.50931,-0.15418 0.43656,0.0797 2.07367,0.22276 3.63802,0.31791 1.56435,0.0952 2.84427,0.28062 2.84427,0.41214 0,0.23341 -0.86131,0.34143 -1.08038,0.1355 z m -1.69775,-1.15192 c -2.27356,-0.21086 -5.17659,-0.67494 -5.28123,-0.84424 -0.0655,-0.10596 0.56022,-0.10006 1.39046,0.0131 0.83024,0.11316 2.55132,0.28246 3.82463,0.37622 1.2733,0.0938 2.3151,0.25901 2.3151,0.36721 0,0.19673 -0.75578,0.22621 -2.24896,0.0877 z m -1.79796,-1.29207 c -0.0487,-0.0487 -0.73559,-0.20448 -1.52651,-0.34626 -1.16409,-0.20867 -0.85841,-0.23058 1.60468,-0.11504 3.27275,0.15353 4.72698,0.63014 1.76888,0.57974 -0.96722,-0.0165 -1.79839,-0.0698 -1.84705,-0.11844 z"
       id="path43" />
  </g>
</svg>
