<?xml version="1.0" encoding="UTF-8" standalone="no"?>
<!-- Created with Inkscape (http://www.inkscape.org/) -->

<svg
   width="46.632088mm"
   height="29.07864mm"
   viewBox="0 0 46.632088 29.07864"
   version="1.1"
   id="svg1"
   inkscape:version="1.4.2 (2aeb623e1d, 2025-05-12)"
   sodipodi:docname="islands3.svg"
   xmlns:inkscape="http://www.inkscape.org/namespaces/inkscape"
   xmlns:sodipodi="http://sodipodi.sourceforge.net/DTD/sodipodi-0.dtd"
   xmlns="http://www.w3.org/2000/svg"
   xmlns:svg="http://www.w3.org/2000/svg">
  <sodipodi:namedview
     id="namedview1"
     pagecolor="#ffffff"
     bordercolor="#000000"
     borderopacity="0.25"
     inkscape:showpageshadow="2"
     inkscape:pageopacity="0.0"
     inkscape:pagecheckerboard="0"
     inkscape:deskcolor="#d1d1d1"
     inkscape:document-units="mm"
     inkscape:zoom="0.7349537"
     inkscape:cx="250.35591"
     inkscape:cy="374.85354"
     inkscape:window-width="1854"
     inkscape:window-height="1011"
     inkscape:window-x="0"
     inkscape:window-y="0"
     inkscape:window-maximized="1"
     inkscape:current-layer="layer1" />
  <defs
     id="defs1" />
  <g
     inkscape:label="Layer 1"
     inkscape:groupmode="layer"
     id="layer1"
     transform="translate(-38.89375,-49.477071)">
    <path
       style="fill:#000000"
       d="m 59.04963,78.33868 c -1.06525,-0.11173 -1.99721,-0.26353 -2.071,-0.33733 -0.17879,-0.17879 3.9898,0.0969 5.33074,0.35259 l 1.05834,0.20177 -1.19063,-0.007 c -0.65484,-0.004 -2.0622,-0.0984 -3.12745,-0.2101 z m 2.78252,-0.68728 c -0.0469,-0.0469 -1.59585,-0.098 -3.44206,-0.11342 -1.84622,-0.0155 -3.35676,-0.13694 -3.35676,-0.26995 0,-0.28145 0.13405,-0.29643 2.24896,-0.2513 2.62137,0.0559 5.47529,0.27252 6.87917,0.52206 l 1.32291,0.23515 -1.78346,-0.0186 c -0.9809,-0.0102 -1.82184,-0.057 -1.86876,-0.10393 z m -1.83788,-0.83573 c -0.98227,-0.043 -1.78594,-0.19186 -1.78594,-0.33073 0,-0.30952 0.59834,-0.29504 5.95313,0.14406 l 4.23333,0.34713 -3.30729,-0.0411 c -1.81901,-0.0226 -4.11097,-0.0763 -5.09323,-0.11935 z m 8.51076,-0.41832 c -0.14726,-0.13315 -4.43939,-0.4101 -6.59253,-0.42538 -1.19073,-0.008 -1.5977,-0.0894 -1.32292,-0.2632 0.21828,-0.13804 0.93266,-0.20537 1.5875,-0.14961 0.65484,0.0557 2.64914,0.18367 4.43177,0.28427 1.78263,0.1006 3.24115,0.28881 3.24115,0.41825 0,0.22668 -1.11942,0.3396 -1.34497,0.13567 z m 1.21268,-0.95866 -1.5875,-0.17562 1.78593,-0.0445 c 1.04389,-0.026 1.78594,0.0654 1.78594,0.2201 0,0.14552 -0.0893,0.24457 -0.19844,0.22011 -0.10914,-0.0245 -0.91281,-0.12351 -1.78593,-0.22011 z m -2.03713,-0.14094 c -0.0775,-0.0775 -1.33991,-0.16071 -2.80533,-0.18488 -1.46896,-0.0242 -2.59938,-0.14914 -2.51948,-0.27841 0.17967,-0.29073 5.14926,0.0423 5.49662,0.36831 0.13825,0.12976 0.18786,0.23592 0.11025,0.23592 -0.0776,0 -0.20454,-0.0634 -0.28206,-0.14094 z m 3.69148,-0.69053 c -0.69084,-0.10054 -2.7001,-0.23329 -4.46502,-0.295 -3.01356,-0.10538 -3.23878,-0.15102 -3.69898,-0.74964 -0.26953,-0.35059 -0.49263,-0.75649 -0.49578,-0.90201 -0.004,-0.17186 -1.14167,-0.20045 -3.24703,-0.0816 -3.80653,0.21491 -12.62679,0.0109 -13.95768,-0.32281 -0.70866,-0.17769 -0.38328,-0.21944 1.38985,-0.17831 1.44914,0.0336 2.28234,-0.0453 2.22747,-0.21096 -0.0487,-0.14717 -1.31,-0.29845 -2.84102,-0.34076 -1.51435,-0.0419 -2.87389,-0.20257 -3.02122,-0.35716 -0.18852,-0.1978 0.41791,-0.24092 2.04724,-0.14557 1.28352,0.0751 2.31511,0.0302 2.31511,-0.10082 0,-0.30967 -1.06409,-0.5689 -2.01998,-0.4921 -1.45001,0.11651 -2.74252,-0.0206 -2.74252,-0.29081 0,-0.17664 0.74179,-0.21682 2.11666,-0.11467 1.81203,0.13464 2.11667,0.0976 2.11667,-0.25723 0,-0.34558 -0.39596,-0.4145 -2.38125,-0.4145 -1.39055,0 -2.38125,-0.10867 -2.38125,-0.2612 0,-0.15742 0.96165,-0.23627 2.42025,-0.19844 1.74516,0.0453 2.45241,-0.0295 2.53559,-0.26797 0.0877,-0.25163 -0.58602,-0.33073 -2.81712,-0.33073 -2.00454,0 -2.93247,-0.0947 -2.93247,-0.29916 0,-0.21507 0.78081,-0.24788 2.77813,-0.11671 1.8935,0.12434 2.77812,0.0932 2.77812,-0.0977 0,-0.15409 -0.32742,-0.29008 -0.7276,-0.30221 -0.40019,-0.0121 -1.02526,-0.0612 -1.38907,-0.10909 -0.3638,-0.0479 -1.4056,-0.11476 -2.3151,-0.14862 -0.90951,-0.0339 -1.65365,-0.16465 -1.65365,-0.29064 0,-0.126 1.19063,-0.15392 2.64584,-0.062 1.87653,0.11847 2.64583,0.0808 2.64583,-0.12942 0,-0.28476 -0.80136,-0.36265 -4.21022,-0.4092 -0.9554,-0.013 -1.47224,-0.13893 -1.5527,-0.37819 -0.09,-0.26762 0.072,-0.32006 0.63834,-0.20664 0.41743,0.0836 1.4138,0.16584 2.21416,0.18276 2.18421,0.0462 2.26911,0.0323 1.92194,-0.31492 -0.16531,-0.16532 -1.43928,-0.36013 -2.83104,-0.43293 -1.39177,-0.0728 -2.53048,-0.24238 -2.53048,-0.37686 0,-0.14534 1.01644,-0.16988 2.50651,-0.0605 l 2.5065,0.18399 0.27162,-0.71442 c 0.14939,-0.39293 0.27162,-0.75421 0.27162,-0.80284 0,-0.0486 -1.48828,-0.17427 -3.30729,-0.27918 -1.81901,-0.10492 -3.30729,-0.30566 -3.30729,-0.4461 0,-0.15485 0.75487,-0.19423 1.91823,-0.10008 1.05502,0.0854 7.24591,0.18484 13.75753,0.22101 8.55391,0.0475 11.83952,0.14836 11.8401,0.36342 0.001,0.37768 1.23295,0.62777 2.18362,0.4433 0.77111,-0.14963 0.94552,-0.46448 0.39687,-0.71646 -0.1819,-0.0836 -0.0828,-0.0918 0.22027,-0.0183 0.85581,0.20753 3.12333,0.2132 3.76539,0.009 0.34822,-0.11052 0.5784,-0.0712 0.5784,0.0988 0,0.15532 -0.24804,0.28241 -0.55121,0.28241 -0.30317,0 -0.51064,0.12174 -0.46104,0.27053 0.0532,0.15949 1.53467,0.31061 3.60932,0.36817 1.93552,0.0537 3.5869,0.16541 3.66973,0.24824 0.0828,0.0828 -1.54211,0.14214 -3.61098,0.1318 -2.42842,-0.0121 -3.8657,0.0853 -4.05537,0.27498 -0.21532,0.21532 1.00994,0.30477 4.58778,0.33493 2.68486,0.0226 5.14946,0.0181 5.47688,-0.01 0.32742,-0.0281 0.59531,0.0832 0.59531,0.24747 0,0.21764 -1.39907,0.25041 -5.15937,0.12082 -3.63111,-0.12513 -5.15938,-0.0931 -5.15938,0.10827 0,0.18041 0.80619,0.29293 2.18281,0.30466 1.20055,0.0102 2.42094,0.12968 2.71198,0.26545 0.37157,0.17334 0.017,0.21965 -1.19062,0.15551 -1.83594,-0.0975 -2.38125,-0.0114 -2.38125,0.37624 0,0.13339 0.92273,0.26399 2.05052,0.29022 1.39939,0.0326 1.65814,0.0789 0.81483,0.14593 -0.67963,0.054 -1.37882,0.2707 -1.55375,0.48148 -0.27245,0.32827 -0.0383,0.38804 1.63256,0.4167 3.30679,0.0567 4.74079,0.15496 4.92305,0.33722 0.0962,0.0962 -1.53484,0.14143 -3.62451,0.10054 -2.85793,-0.0559 -3.82701,0.008 -3.91081,0.25638 -0.0831,0.24679 0.48178,0.33737 2.22575,0.3569 1.28543,0.0144 2.99199,0.11785 3.79236,0.22992 1.01322,0.14187 0.17009,0.19419 -2.77598,0.17227 -3.59779,-0.0268 -4.23151,0.0279 -4.23334,0.36539 -0.001,0.21828 -0.27003,0.43492 -0.59745,0.48142 -0.70069,0.0995 -0.80438,-0.37415 -0.1323,-0.60435 0.25467,-0.0872 0.77671,-0.61333 1.16011,-1.16913 l 0.69709,-1.01053 -1.08078,-0.70079 c -0.59443,-0.38543 -1.25172,-0.70079 -1.46065,-0.70079 -0.29939,0 -0.34443,-0.25859 -0.21259,-1.22052 l 0.16729,-1.22052 -1.2558,0.1883 c -0.6907,0.10357 -1.45634,0.29561 -1.70144,0.42677 -0.66683,0.35685 -1.73287,0.2885 -2.61497,-0.16765 -0.91162,-0.47142 -0.98271,-0.3766 -1.09811,1.46446 -0.0586,0.93487 -0.17185,1.1831 -0.52727,1.1556 -0.24895,-0.0193 -0.42755,0.0927 -0.39687,0.24887 0.0307,0.15614 -0.18236,0.33228 -0.4734,0.39143 -0.94946,0.19296 -0.97999,0.50549 -0.14255,1.45929 l 0.82437,0.9389 -0.31807,1.72626 c -0.25888,1.40497 -0.25268,1.80506 0.0333,2.14966 0.57504,0.69289 1.66113,0.39022 2.11648,-0.58981 0.38602,-0.8308 1.12466,-1.13588 1.45521,-0.60104 0.0899,0.14552 -0.0887,0.26459 -0.39688,0.26459 -0.30821,0 -0.50265,0.0934 -0.43207,0.20762 0.0706,0.1142 0.76221,0.14397 1.53697,0.0661 1.55942,-0.15663 1.66972,-0.34393 1.07392,-1.82373 -0.44067,-1.09447 -0.30203,-1.25944 0.70715,-0.84142 0.43244,0.17912 0.91484,0.24621 1.07199,0.14909 0.15715,-0.0971 0.67035,-0.0513 1.14045,0.10183 0.47009,0.15313 2.2537,0.29929 3.96357,0.32479 1.70987,0.0255 3.10886,0.13689 3.10886,0.24752 0,0.37043 -0.50633,0.37902 -4.69544,0.0797 -2.29246,-0.1638 -4.26404,-0.21074 -4.3813,-0.10431 -0.21899,0.19877 1.00919,0.37861 4.71111,0.68985 1.16417,0.0979 2.27615,0.26246 2.47106,0.36575 0.41648,0.22069 -3.44443,0.0524 -5.4341,-0.23686 -1.41726,-0.20604 -2.04202,-0.0665 -1.71935,0.38411 0.10146,0.14168 1.55369,0.3001 3.22718,0.35205 1.67349,0.0519 3.09232,0.14124 3.15296,0.19843 0.33674,0.31766 -0.46012,0.35014 -3.04652,0.12415 -1.58651,-0.13862 -2.98423,-0.15377 -3.10605,-0.0337 -0.3735,0.36825 0.14017,0.49324 2.40798,0.58593 1.19837,0.049 2.17892,0.19466 2.17899,0.32374 8e-5,0.13421 -1.10424,0.1487 -2.57954,0.0338 -3.88863,-0.30276 -5.9573,-0.30124 -6.06289,0.004 -0.0564,0.16338 0.4646,0.28128 1.29758,0.29362 2.38311,0.0353 5.30439,0.32965 5.53216,0.55742 0.2636,0.2636 -0.28787,0.27174 -1.95677,0.0289 z m -8.21734,-3.02681 c 0.13652,-0.41053 -8.60192,-0.31745 -9.31201,0.0992 -0.41599,0.24407 0.51313,0.2973 4.3438,0.24885 3.20936,-0.0406 4.90549,-0.15941 4.96821,-0.34804 z M 52.58281,71.32837 c 0.53463,-0.22338 1.45228,-0.46649 2.03921,-0.54023 0.58693,-0.0737 1.34663,-0.31721 1.68823,-0.54103 l 0.62108,-0.40695 -0.949,-0.949 c -0.63148,-0.63147 -0.949,-1.19385 -0.949,-1.68082 0,-0.49945 -0.16802,-0.78515 -0.52917,-0.89977 -0.87314,-0.27713 -0.62455,-0.74668 0.29766,-0.56224 0.45475,0.091 1.58585,0.16536 2.51354,0.16536 0.94809,0 1.68672,0.11587 1.68672,0.26459 0,0.14993 -0.76435,0.26458 -1.76389,0.26458 -0.97014,0 -1.71428,0.046 -1.65364,0.10224 0.26014,0.24128 6.54364,0.39992 7.38628,0.18648 0.82211,-0.20823 0.7256,-0.23759 -0.8599,-0.26164 -0.98226,-0.0149 -1.78593,-0.12925 -1.78593,-0.25412 0,-0.12488 0.83039,-0.21708 1.84531,-0.2049 1.13187,0.0136 1.97068,-0.10322 2.16958,-0.30212 0.25598,-0.25598 -0.2302,-0.33267 -2.30833,-0.36414 l -2.6326,-0.0399 2.47178,-0.18243 c 2.50862,-0.18514 2.93918,-0.3863 2.94812,-1.37739 0.004,-0.40769 -0.53664,-0.4525 -5.88293,-0.48782 -3.23783,-0.0214 -6.30369,-0.0791 -6.81302,-0.12825 -0.50932,-0.0491 -1.24366,0.0671 -1.63187,0.25824 -0.50094,0.2467 -0.78793,0.26549 -0.98868,0.0647 -0.20075,-0.20075 -0.45667,-0.12531 -0.88167,0.25989 -0.45827,0.41536 -0.76876,0.49465 -1.32285,0.33783 -1.12061,-0.31715 -1.83845,-0.0363 -1.63588,0.64011 0.15596,0.52073 1.84211,2.55191 2.2935,2.76281 0.10899,0.0509 0.12424,0.72154 0.0339,1.49026 l -0.16426,1.39768 1.42131,0.68737 c 1.671,0.80812 2.04167,0.84151 3.33641,0.30053 z m -0.59229,-6.03921 c -0.43662,-0.194 -0.95721,-0.54955 -1.15688,-0.79013 -0.33121,-0.39909 -0.22688,-0.43337 1.19073,-0.3912 1.3267,0.0395 1.38855,0.0611 0.42324,0.1478 -1.88163,0.16907 -0.96849,0.59762 1.34456,0.63103 2.93018,0.0423 4.46596,0.42185 1.90262,0.47017 -1.01865,0.0192 -2.09021,0.0912 -2.38125,0.15998 -0.29104,0.0688 -0.8864,-0.0337 -1.32302,-0.22765 z m 5.68864,-0.15117 c 0,-0.13559 0.29785,-0.21478 0.66189,-0.17596 0.99963,0.10657 1.1312,0.4225 0.17596,0.4225 -0.46081,0 -0.83785,-0.11094 -0.83785,-0.24654 z m 3.22719,-0.85935 c -0.24698,-0.0989 0.20578,-0.18983 1.00615,-0.20205 0.80036,-0.0122 1.7231,-0.094 2.05052,-0.18174 0.3347,-0.0897 0.59531,-0.0405 0.59531,0.1124 0,0.31573 -2.987,0.53771 -3.65198,0.27139 z m -6.25667,-0.17117 c 0.13825,-0.12029 1.44198,-0.13992 2.89719,-0.0436 l 2.64584,0.1751 -2.89719,0.0436 c -1.59346,0.024 -2.78408,-0.0548 -2.64584,-0.17511 z m 8.58573,6.56872 C 63.72851,70.51827 63.42547,70.4443 62.04479,70.38557 57.59749,70.19638 57.15,70.22553 57.15,70.7045 c 0,0.28973 5.16739,0.2657 6.08541,-0.0283 z m 0.21784,-0.92869 c -0.0742,-0.0742 -1.40375,-0.21063 -2.95451,-0.30313 -2.04023,-0.1217 -2.81958,-0.0844 -2.81958,0.13494 0,0.20969 0.91076,0.30313 2.95452,0.30313 1.62498,0 2.89379,-0.0607 2.81957,-0.13494 z m -0.62307,-0.93691 c -0.20397,-0.33004 -5.94477,-0.27154 -5.94477,0.0606 0,0.11964 1.37625,0.21753 3.05833,0.21753 2.07063,0 3.00281,-0.0898 2.88644,-0.2781 z m -0.6531,-0.78023 c 0,-0.16277 -1.29817,-0.26302 -3.37344,-0.26053 -2.2758,0.003 -3.2443,0.0875 -2.97656,0.26053 0.53424,0.34525 6.35,0.34525 6.35,0 z m -0.29109,-0.64387 c -0.20838,-0.20837 -5.74598,-0.28632 -5.94862,-0.0837 -0.10916,0.10914 1.21042,0.19843 2.93242,0.19843 1.722,0 3.07928,-0.0516 3.0162,-0.1147 z M 48.15416,63.47575 c 0,-0.11434 -0.38695,-0.20607 -0.85989,-0.20384 -0.50485,0.002 -0.72746,0.0882 -0.53914,0.20789 0.41853,0.26597 1.39903,0.26313 1.39903,-0.004 z m 26.19375,6.40669 -0.92604,-0.19492 0.99219,-0.0348 c 0.5457,-0.0192 0.99219,0.0842 0.99219,0.22975 0,0.14552 -0.0298,0.24891 -0.0661,0.22976 -0.0364,-0.0192 -0.48286,-0.12255 -0.99219,-0.22976 z m 1.7198,0 c -0.0944,-0.15269 0.15078,-0.26287 0.57969,-0.26053 0.57709,0.003 0.65451,0.0614 0.34635,0.26053 -0.50834,0.32852 -0.72301,0.32852 -0.92604,0 z m 1.4552,-0.0243 c 0,-0.19979 2.92516,-0.007 3.16899,0.20916 0.0695,0.0615 -0.61515,0.0851 -1.52135,0.0524 -0.9062,-0.0327 -1.64764,-0.15038 -1.64764,-0.26151 z m 1.52136,-3.87359 c 0.61846,-0.0557 1.63049,-0.0557 2.24896,0 0.61846,0.0557 0.11244,0.10128 -1.12448,0.10128 -1.23693,0 -1.74295,-0.0456 -1.12448,-0.10128 z M 40.21666,64.06161 c -0.50932,-0.10721 -0.80698,-0.22292 -0.66145,-0.25713 0.61737,-0.14515 4.49837,0.0603 5.00425,0.26491 0.69364,0.28055 -3.00445,0.27393 -4.3428,-0.008 z m 33.60203,-0.99219 c -3e-5,-0.10914 2.32164,-0.19844 5.15926,-0.19844 2.83763,0 5.15937,0.0893 5.15943,0.19844 7e-5,0.10914 -2.3216,0.19844 -5.15926,0.19844 -2.83765,0 -5.1594,-0.0893 -5.15943,-0.19844 z M 48.87157,62.05883 c -0.0842,-0.0634 -7.01436,-0.37045 -8.45647,-0.37473 -0.69122,-0.002 -1.25677,-0.12708 -1.25677,-0.27783 0,-0.18016 0.92935,-0.22703 2.71198,-0.13678 6.39311,0.32365 15.42608,0.47499 26.9875,0.45214 6.8031,-0.0134 12.36927,0.0757 12.36927,0.19803 0,0.17328 -32.12659,0.31146 -32.35551,0.13917 z m 32.62009,-0.0777 c 0,-0.18603 0.53002,-0.30219 1.38907,-0.30442 0.76398,-0.002 1.68672,-0.0777 2.05052,-0.16829 0.51947,-0.12933 0.5957,-0.094 0.35513,0.16441 -0.41162,0.44221 -3.79472,0.71707 -3.79472,0.3083 z M 58.7375,61.15088 c -0.3638,-0.0992 -4.58044,-0.2586 -9.3703,-0.35426 -7.85156,-0.1568 -9.22706,-0.23853 -8.8639,-0.5267 0.0606,-0.0481 2.43196,-0.0183 5.26961,0.0661 2.83766,0.0845 5.63563,0.0941 6.21771,0.0213 2.13404,-0.26675 0.33248,-0.52586 -4.86341,-0.69947 -4.39768,-0.14694 -5.32305,-0.2447 -5.32305,-0.56239 0,-0.30031 0.215,-0.3442 0.98168,-0.20036 1.95727,0.36718 8.97544,0.58913 9.27137,0.2932 0.48203,-0.48203 -0.77481,-0.67288 -4.63705,-0.70415 -3.36365,-0.0272 -4.29308,-0.11043 -4.29308,-0.38429 0,-0.36072 0.15135,-0.36071 6.13649,3e-4 1.294,0.078 2.36638,0.0314 2.45172,-0.10669 0.27358,-0.44266 -0.254,-0.52181 -3.74282,-0.56148 -3.15803,-0.0359 -4.46502,-0.23284 -3.88145,-0.58483 0.12468,-0.0752 1.89356,-0.0459 3.93085,0.0652 2.03729,0.11106 3.79347,0.15068 3.90261,0.088 0.5765,-0.33088 0.0399,-0.61183 -1.16858,-0.61183 -0.75186,0 -1.28914,-0.0779 -1.19396,-0.17305 0.0952,-0.0952 1.06752,-0.14694 2.16076,-0.11502 1.1437,0.0334 1.98771,-0.0506 1.98771,-0.19784 0,-0.26519 -1.31066,-0.43834 -5.48844,-0.72507 -1.34515,-0.0923 -2.39501,-0.24991 -2.33302,-0.35021 0.062,-0.1003 0.98397,-0.0951 2.04886,0.0116 2.8495,0.28546 5.7726,0.26777 5.7726,-0.0349 0,-0.14389 -0.26789,-0.25054 -0.59531,-0.23699 -0.96372,0.0399 -3.90982,-0.35736 -4.02432,-0.54261 -0.0579,-0.0937 0.89829,-0.12516 2.12488,-0.0699 1.25309,0.0565 2.23017,-0.006 2.23017,-0.14282 0,-0.13381 -0.20836,-0.23384 -0.46302,-0.22228 -1.29484,0.0588 -6.29345,-0.43162 -6.65801,-0.65316 -0.27495,-0.16708 0.31006,-0.18603 1.69707,-0.055 2.93712,0.27751 5.22797,0.24977 5.3343,-0.0646 0.0526,-0.15565 -0.53685,-0.2671 -1.43178,-0.27069 -2.78611,-0.0112 -6.94523,-0.42948 -6.94523,-0.6985 0,-0.16349 0.53316,-0.20546 1.38907,-0.10937 2.84691,0.31962 10.44034,0.49091 10.59601,0.23902 0.0946,-0.15313 -0.90689,-0.27255 -2.541,-0.303 -1.48346,-0.0276 -2.99282,-0.1078 -3.35414,-0.17814 -0.36131,-0.0703 -1.46264,-0.14444 -2.44739,-0.16469 -0.98476,-0.0202 -1.79046,-0.13087 -1.79046,-0.24585 0,-0.35583 0.62046,-0.4404 1.5875,-0.21636 1.15227,0.26695 9.1833,0.62619 8.97871,0.40164 -0.0822,-0.0902 -1.95553,-0.27831 -4.163,-0.41802 -2.20747,-0.13971 -4.22383,-0.3873 -4.48079,-0.55019 -0.3604,-0.22846 -0.074,-0.26154 1.25258,-0.1447 5.15449,0.45398 6.48026,0.46642 7.23089,0.0679 0.53557,-0.28437 0.98732,-0.33331 1.5875,-0.17197 1.0135,0.27245 2.96338,0.42674 8.37952,0.66307 2.25558,0.0984 4.81542,0.27774 5.68855,0.3985 1.01204,0.13998 -0.22791,0.17152 -3.42066,0.087 -2.75448,-0.0729 -5.10596,-0.19301 -5.22552,-0.2669 -0.11955,-0.0739 -0.21737,-0.0369 -0.21737,0.0822 0,0.63653 1.24249,0.86251 5.01287,0.91171 2.36896,0.0309 3.98297,0.15628 3.98297,0.30936 0,0.16229 -1.51522,0.20092 -4.10104,0.10457 -3.45539,-0.12876 -4.10105,-0.0931 -4.10105,0.22644 0,0.29039 0.40299,0.37926 1.7198,0.37926 0.94588,0 1.71965,0.0893 1.71948,0.19844 -1.6e-4,0.10914 -0.71273,0.20258 -1.58348,0.20764 -2.29998,0.0134 -2.78566,0.64465 -0.51965,0.67543 0.93861,0.0128 2.30187,0.1159 3.02948,0.22923 1.07563,0.16754 0.7418,0.21266 -1.78594,0.24141 -1.87261,0.0213 -3.10885,0.14056 -3.10885,0.29993 0,0.14552 0.56554,0.28329 1.25677,0.30615 l 1.25677,0.0416 -1.32292,0.15687 c -1.86438,0.22108 -1.21289,0.47655 1.70648,0.66917 3.21513,0.21213 3.48646,0.46636 0.41899,0.39259 -1.5889,-0.0382 -2.39723,0.0427 -2.46524,0.24673 -0.0683,0.20473 0.44445,0.31533 1.57449,0.33963 2.28986,0.0493 3.70002,0.1803 3.88031,0.36058 0.083,0.083 -1.15298,0.10369 -2.74664,0.046 -2.97991,-0.10794 -3.66351,-0.032 -3.40959,0.37889 0.0805,0.13028 1.6942,0.23686 3.58597,0.23686 1.89177,0 3.37599,0.1029 3.29827,0.22866 -0.0777,0.12577 -2.45102,0.17241 -5.27397,0.10366 -3.59466,-0.0876 -5.18695,-0.0371 -5.31387,0.16821 -0.12833,0.20765 0.692,0.29767 2.81096,0.30847 1.6457,0.008 3.46843,0.11424 4.05051,0.23523 0.63977,0.13298 -0.61592,0.16688 -3.175,0.0857 -2.92607,-0.0928 -4.15163,-0.0494 -3.96875,0.14077 0.14552,0.15128 1.6338,0.35832 3.30729,0.4601 1.67349,0.10178 3.09232,0.23024 3.15295,0.28546 0.0606,0.0552 -1.09049,0.1004 -2.55805,0.1004 -2.71337,0 -3.50532,0.12782 -3.50532,0.56578 0,0.20808 19.74198,0.12265 23.4789,-0.1016 0.61688,-0.037 1.15266,0.0454 1.19062,0.18324 0.0826,0.2999 -2.15193,0.37 -15.80597,0.49586 -5.67532,0.0523 -10.61641,0.014 -10.98021,-0.0852 z m 1.16177,-0.93472 c 0.30701,-0.307 0.34382,-0.5689 0.15119,-1.07555 -0.47616,-1.2524 -0.36435,-1.35648 1.6636,-1.54859 1.05503,-0.0999 2.15094,-0.35322 2.43536,-0.56284 0.46809,-0.34498 0.47806,-0.42018 0.10515,-0.79309 -0.34857,-0.34858 -0.69627,-0.48826 -1.54562,-0.62094 -0.0713,-0.0111 0.204,-0.32957 0.61172,-0.70762 0.96573,-0.89549 1.29335,-1.77755 0.97308,-2.61992 -0.27386,-0.7203 -0.77328,-0.80728 -2.42776,-0.42285 -0.84632,0.19664 -1.04277,0.14522 -1.51351,-0.39618 -1.01619,-1.16872 -2.8225,-1.19039 -2.53135,-0.0304 0.20466,0.81542 -0.71944,1.24628 -2.673,1.24628 -1.44519,0 -1.44748,10e-4 -1.27386,0.7276 0.0957,0.40018 0.27652,0.92814 0.40191,1.17323 0.52222,1.02075 -0.0597,2.67652 -0.7834,2.22922 -0.13245,-0.0819 -0.4568,0.0898 -0.7208,0.38155 -0.46438,0.51314 -0.4622,0.56149 0.0671,1.48769 0.3009,0.52652 0.84869,1.1403 1.2173,1.36396 0.6255,0.37953 0.76175,0.35916 2.04288,-0.30552 l 1.37268,-0.71217 0.90656,0.79597 c 1.05695,0.92801 0.99801,0.91289 1.52075,0.39014 z m -2.08781,-0.12334 c -0.0899,-0.14552 -0.32807,-0.26458 -0.52917,-0.26458 -0.20111,0 -0.43923,0.11906 -0.52917,0.26458 -0.0931,0.15065 0.13475,0.26458 0.52917,0.26458 0.39442,0 0.62227,-0.11393 0.52917,-0.26458 z m 5.84163,-9.02949 c 0.0785,-0.12701 -0.45962,-0.23093 -1.19581,-0.23093 -0.73619,0 -1.33853,0.11472 -1.33853,0.25493 0,0.31611 2.33782,0.29397 2.53434,-0.024 z m -16.89602,5.12894 c -0.98668,-0.051 -1.74256,-0.17652 -1.67972,-0.27891 0.16907,-0.27549 4.13515,-0.0534 4.13515,0.23161 0,0.13403 -0.14883,0.22036 -0.33073,0.19186 -0.1819,-0.0285 -1.13802,-0.0936 -2.1247,-0.14456 z m 20.64553,-0.7726 c 0.1819,-0.0734 0.47956,-0.0734 0.66146,0 0.1819,0.0734 0.0331,0.13346 -0.33073,0.13346 -0.3638,0 -0.51263,-0.0601 -0.33073,-0.13346 z m 1.98801,-2.13129 c 0.40219,-0.0608 0.9975,-0.0592 1.32292,0.004 0.32542,0.0628 -0.004,0.11256 -0.73124,0.11057 -0.72761,-0.002 -0.99386,-0.0534 -0.59168,-0.11418 z M 53.57812,50.11896 C 52.705,50.07266 51.69297,49.95899 51.32916,49.86642 l -0.66145,-0.16832 0.6365,-0.16649 c 0.79064,-0.20681 5.09325,0.21871 5.43568,0.53757 0.14871,0.13848 -0.1214,0.21363 -0.66146,0.18403 -0.50204,-0.0275 -1.62718,-0.0879 -2.50031,-0.13425 z"
       id="path30" />
  </g>
</svg>
