<?xml version="1.0" encoding="UTF-8" standalone="no"?>
<!-- Created with Inkscape (http://www.inkscape.org/) -->

<svg
   width="19.485773mm"
   height="14.375005mm"
   viewBox="0 0 19.485773 14.375005"
   version="1.1"
   id="svg1"
   inkscape:version="1.4.2 (2aeb623e1d, 2025-05-12)"
   sodipodi:docname="isle7.svg"
   xmlns:inkscape="http://www.inkscape.org/namespaces/inkscape"
   xmlns:sodipodi="http://sodipodi.sourceforge.net/DTD/sodipodi-0.dtd"
   xmlns="http://www.w3.org/2000/svg"
   xmlns:svg="http://www.w3.org/2000/svg">
  <sodipodi:namedview
     id="namedview1"
     pagecolor="#ffffff"
     bordercolor="#000000"
     borderopacity="0.25"
     inkscape:showpageshadow="2"
     inkscape:pageopacity="0.0"
     inkscape:pagecheckerboard="0"
     inkscape:deskcolor="#d1d1d1"
     inkscape:document-units="mm"
     inkscape:zoom="0.7349537"
     inkscape:cx="180.96378"
     inkscape:cy="440.16378"
     inkscape:window-width="1854"
     inkscape:window-height="1011"
     inkscape:window-x="0"
     inkscape:window-y="0"
     inkscape:window-maximized="1"
     inkscape:current-layer="layer1" />
  <defs
     id="defs1" />
  <g
     inkscape:label="Layer 1"
     inkscape:groupmode="layer"
     id="layer1"
     transform="translate(-57.134987,-31.948752)">
    <path
       style="fill:#000000"
       d="m 67.55878,46.2846 c -0.69123,-0.0444 -1.25677,-0.20936 -1.25677,-0.36669 0,-0.18809 0.4204,-0.22843 1.22755,-0.1178 0.67515,0.0925 2.6,0.16826 4.27743,0.16826 1.67743,0 2.99229,0.0576 2.92191,0.12796 -0.15868,0.15868 -5.46133,0.29792 -7.17012,0.18827 z m -1.42824,-1.44071 c -0.0684,-0.10914 2.08534,-0.19844 4.78606,-0.19844 2.97139,0 4.91041,0.10061 4.91041,0.25479 0,0.30136 -9.50694,0.24611 -9.69647,-0.0563 z m 8.59538,-0.59396 c -0.0811,-0.0811 -2.06914,-0.14801 -4.41795,-0.14875 -2.57836,-8.1e-4 -4.27055,-0.10293 -4.27055,-0.2577 0,-0.30357 8.19561,-0.29639 9.39271,0.008 0.43656,0.11109 0.65466,0.21606 0.48466,0.23328 -0.17,0.0172 -0.47387,0.0945 -0.67528,0.17183 -0.2014,0.0773 -0.43252,0.0742 -0.51359,-0.007 z M 70.66763,43.0035 c -1.74625,-0.1027 -4.00844,-0.30304 -5.02708,-0.4452 l -1.85209,-0.25845 2.51355,0.112 c 1.38244,0.0616 2.90049,0.18616 3.37343,0.2768 0.51129,0.098 0.8599,0.0565 0.8599,-0.10243 0,-0.31643 -3.54532,-0.84157 -6.35,-0.94058 l -1.98438,-0.07 2.18282,-0.0526 c 1.24377,-0.0299 2.18281,-0.16639 2.18281,-0.31715 0,-0.31649 -0.45582,-0.35401 -3.57188,-0.29399 -1.68396,0.0324 -2.26503,-0.0328 -1.98437,-0.22289 0.55546,-0.37616 5.37273,-0.35456 5.75309,0.0258 0.16647,0.16647 1.38604,0.50623 2.71017,0.75502 2.32501,0.43685 2.41649,0.43555 2.66997,-0.0381 0.27546,-0.51471 1.0376,-0.6806 1.0376,-0.22585 0,0.14552 -0.17859,0.26458 -0.39687,0.26458 -0.21828,0 -0.39688,0.0948 -0.39688,0.21073 0,0.11591 0.32743,0.2037 0.72761,0.19509 0.6998,-0.015 0.72461,-0.0632 0.64924,-1.25919 -0.0641,-1.01712 0.0202,-1.30512 0.46302,-1.58165 0.75498,-0.47149 0.67493,-1.30678 -0.20611,-2.15087 -0.59255,-0.5677 -1.237,-0.8017 -3.10886,-1.12883 -1.29874,-0.22697 -2.77807,-0.35471 -3.2874,-0.28388 -1.45091,0.20179 -3.54875,0.74105 -3.80085,0.97701 -0.12593,0.11788 0.0824,0.62259 0.46303,1.12158 0.38059,0.49899 0.69199,0.98531 0.69199,1.08072 0,0.36585 -0.74528,0.15222 -0.90302,-0.25884 -0.14666,-0.38217 -0.58716,-0.41349 -3.79862,-0.27011 -2.00768,0.0896 -3.39602,0.0637 -3.10357,-0.0581 0.471,-0.19606 2.23483,-0.33309 5.22546,-0.40596 1.11456,-0.0272 1.15227,-0.0703 0.5975,-0.68329 -0.33054,-0.36524 -0.33789,-0.51395 -0.0452,-0.91428 0.53637,-0.73353 4.66527,-1.73505 7.31908,-1.77534 4.48124,-0.068 6.35,0.0331 6.35,0.34368 0,0.21915 -0.81831,0.25371 -2.97657,0.1257 -1.8581,-0.11021 -2.83716,-0.0843 -2.60559,0.069 0.20404,0.13504 1.55784,0.33047 3.00845,0.4343 1.54983,0.11092 2.49308,0.27801 2.28733,0.40518 -0.19259,0.11902 -0.68319,0.1498 -1.09023,0.0684 -1.19764,-0.23953 -0.8471,0.34637 0.38442,0.64251 1.08023,0.25976 1.09064,0.27165 0.26458,0.30218 -1.08135,0.0399 -1.14278,0.56094 -0.0661,0.56094 0.43656,0 0.79375,0.11906 0.79375,0.26458 0,0.14552 -0.30469,0.26459 -0.67708,0.26459 -0.384,0 -0.60629,0.11452 -0.51355,0.26458 0.0899,0.14552 0.40165,0.26458 0.69269,0.26458 0.71668,0 0.35374,0.52478 -0.37757,0.54594 -0.5516,0.016 -0.54763,0.0309 0.0818,0.3092 l 0.66145,0.29242 -0.92604,0.18514 -0.92604,0.18514 0.8599,0.0348 c 1.19408,0.0484 1.08522,0.564 -0.11907,0.564 -1.13376,0 -0.9084,0.42692 0.3175,0.60145 l 0.79375,0.11301 -0.87551,0.0397 c -0.91814,0.0416 -0.9505,0.56881 -0.0349,0.56881 0.28245,0 0.51355,0.11906 0.51355,0.26458 0,0.14552 -0.35016,0.26458 -0.77814,0.26458 -0.42797,0 -0.85171,0.11906 -0.94165,0.26459 -0.0973,0.15745 0.21774,0.26458 0.77813,0.26458 0.51791,0 0.94166,0.10071 0.94166,0.22381 0,0.25379 -0.91564,0.25148 -5.42396,-0.0137 z M 59.15826,39.89418 c -0.29751,-0.20068 -0.0988,-0.27304 0.79375,-0.289 0.65484,-0.0117 2.05598,-0.0582 3.11363,-0.10334 1.05766,-0.0451 1.98742,0.0222 2.06614,0.14953 0.0787,0.12737 -0.80152,0.23158 -1.95609,0.23158 -1.15456,0 -2.44151,0.0628 -2.85988,0.13947 -0.41837,0.0767 -0.93927,0.019 -1.15755,-0.12824 z m -1.81627,-0.92899 c 0.20599,-0.20599 6.01308,-0.26529 6.2149,-0.0635 0.10311,0.10311 -1.28096,0.18747 -3.07572,0.18747 -1.79475,0 -3.20739,-0.0558 -3.13918,-0.12401 z M 67.3604,33.49988 c -1e-4,-0.27872 1.35718,-0.41049 3.43952,-0.33391 1.09141,0.0401 2.84758,0.0796 3.90261,0.0877 1.05502,0.008 1.91823,0.11347 1.91823,0.23417 0,0.12071 -2.08357,0.21001 -4.63016,0.19844 -2.54658,-0.0116 -4.63017,-0.0954 -4.6302,-0.18639 z m 4.36756,-0.97035 c -1.30859,-0.0426 -2.49327,-0.19139 -2.63261,-0.33073 -0.34063,-0.34063 5.93948,-0.32972 6.46707,0.0112 0.35278,0.22799 0.35278,0.25939 0,0.28259 -0.21828,0.0143 -0.635,0.0459 -0.92604,0.0702 -0.29104,0.0243 -1.59983,0.009 -2.90842,-0.0333 z"
       id="path41" />
  </g>
</svg>
