<?xml version="1.0" encoding="UTF-8" standalone="no"?>
<!-- Created with Inkscape (http://www.inkscape.org/) -->

<svg
   width="20.115864mm"
   height="13.593243mm"
   viewBox="0 0 20.115864 13.593243"
   version="1.1"
   id="svg1"
   inkscape:version="1.4.2 (2aeb623e1d, 2025-05-12)"
   sodipodi:docname="isle4.svg"
   xmlns:inkscape="http://www.inkscape.org/namespaces/inkscape"
   xmlns:sodipodi="http://sodipodi.sourceforge.net/DTD/sodipodi-0.dtd"
   xmlns="http://www.w3.org/2000/svg"
   xmlns:svg="http://www.w3.org/2000/svg">
  <sodipodi:namedview
     id="namedview1"
     pagecolor="#ffffff"
     bordercolor="#000000"
     borderopacity="0.25"
     inkscape:showpageshadow="2"
     inkscape:pageopacity="0.0"
     inkscape:pagecheckerboard="0"
     inkscape:deskcolor="#d1d1d1"
     inkscape:document-units="mm"
     inkscape:zoom="0.7349537"
     inkscape:cx="38.097638"
     inkscape:cy="25.171654"
     inkscape:window-width="1854"
     inkscape:window-height="1011"
     inkscape:window-x="0"
     inkscape:window-y="0"
     inkscape:window-maximized="1"
     inkscape:current-layer="layer1" />
  <defs
     id="defs1" />
  <g
     inkscape:label="Layer 1"
     inkscape:groupmode="layer"
     id="layer1"
     transform="translate(-94.9854,-141.81666)">
    <path
       style="fill:#000000"
       d="m 103.68559,155.18029 c -0.45367,-0.28039 2.30586,-0.26491 3.47064,0.0195 0.74949,0.18298 0.53893,0.22246 -1.10435,0.2071 -1.11672,-0.0104 -2.18155,-0.1124 -2.36629,-0.22657 z m -1.29186,-1.09227 c 0,-0.1163 0.56555,-0.20205 1.25678,-0.19056 1.38335,0.023 1.27144,0.15144 -0.26459,0.30368 -0.5457,0.0541 -0.99219,0.003 -0.99219,-0.11312 z m 2.91042,-0.005 c 0,-0.25266 3.13568,-0.0692 3.40404,0.19917 0.0727,0.0727 -0.66345,0.11496 -1.63592,0.0939 -0.97246,-0.0211 -1.76812,-0.15296 -1.76812,-0.29304 z m 2.77813,-0.75588 c -1.3136,-0.15985 -1.3108,-0.1611 0.39687,-0.17618 0.94589,-0.008 2.01745,0.0803 2.38125,0.19697 0.54887,0.17606 0.48132,0.20604 -0.39687,0.17618 -0.58209,-0.0198 -1.65365,-0.10843 -2.38125,-0.19697 z m -7.54063,-0.25266 c -0.26917,-0.17974 0.62472,-0.20946 2.77813,-0.0924 1.74625,0.0949 3.22461,0.21602 3.28524,0.26906 0.26818,0.2346 -5.70826,0.0605 -6.06337,-0.17668 z m 9.70219,-0.42378 c -0.0247,-0.0195 -2.40698,-0.0995 -5.29398,-0.1779 -2.887,-0.0784 -5.32778,-0.22234 -5.42396,-0.31996 -0.0962,-0.0976 1.10518,-0.13663 2.66969,-0.0867 1.56452,0.05 2.84444,0.0177 2.84428,-0.0717 -4.5e-4,-0.24268 -2.20542,-0.49844 -4.33671,-0.50303 -1.03471,-0.002 -2.05989,-0.11947 -2.27818,-0.26054 -0.27365,-0.17685 0.29453,-0.25773 1.83004,-0.26053 1.2248,-0.002 2.16536,-0.0656 2.09013,-0.14083 -0.0752,-0.0752 -1.16553,-0.14433 -2.42288,-0.15356 -1.25735,-0.009 -2.35377,-0.12628 -2.43647,-0.2601 -0.0865,-0.14004 0.72095,-0.24331 1.90253,-0.24331 1.55228,0 1.97838,-0.0745 1.74731,-0.3056 -0.18356,-0.18355 -1.12925,-0.29581 -2.36802,-0.2811 -1.43158,0.017 -1.8601,-0.0433 -1.40097,-0.1972 0.3638,-0.12193 1.16748,-0.23355 1.78594,-0.24806 1.96207,-0.046 1.21114,-0.48153 -0.91529,-0.53083 -2.67833,-0.0621 -2.86498,-0.28929 -0.23767,-0.28929 1.29535,0 1.98419,-0.0969 1.88056,-0.26459 -0.0899,-0.14552 -1.04946,-0.26458 -2.13228,-0.26458 -1.08282,0 -1.96876,-0.0932 -1.96876,-0.20709 0,-0.11389 0.84932,-0.15909 1.88739,-0.10044 1.34875,0.0762 1.8351,0.0221 1.70417,-0.18978 -0.10429,-0.16876 -0.9105,-0.29644 -1.87177,-0.29644 -0.92871,0 -1.76214,-0.11906 -1.85208,-0.26458 -0.10214,-0.16527 0.43822,-0.26459 1.43959,-0.26459 0.88172,0 1.60312,-0.0975 1.60312,-0.21671 0,-0.1192 -0.44649,-0.22214 -0.99219,-0.22876 -1.79245,-0.0217 -2.18281,-0.0806 -2.18281,-0.32916 0,-0.13935 0.62909,-0.18054 1.45521,-0.0953 1.00065,0.10328 1.4552,0.056 1.4552,-0.1514 0,-0.17617 -0.49518,-0.31536 -1.19062,-0.33468 -1.53788,-0.0427 -1.63527,-0.0588 -1.88809,-0.31161 -0.11682,-0.11682 0.39945,-0.14244 1.14727,-0.0569 0.82172,0.094 1.42662,0.0471 1.52888,-0.11833 0.10949,-0.17716 -0.39659,-0.27379 -1.4339,-0.27379 -0.88172,0 -1.60312,-0.11724 -1.60312,-0.26053 0,-0.16047 0.6097,-0.1968 1.5875,-0.0946 1.11074,0.11609 1.5875,0.0751 1.5875,-0.13635 0,-0.19306 -0.57359,-0.30227 -1.5875,-0.30227 -0.87312,0 -1.5875,-0.10001 -1.5875,-0.22224 0,-0.12223 1.87524,-0.21167 4.16719,-0.19875 2.29195,0.0129 4.47653,-0.0634 4.85462,-0.16959 0.56641,-0.1591 0.73803,-0.082 0.97486,0.43776 0.27826,0.61071 0.38297,0.63082 3.28132,0.63001 5.32803,-0.001 6.30118,0.0474 6.30118,0.31656 0,0.16495 -1.71861,0.27637 -4.56406,0.29588 -4.79334,0.0329 -5.03643,0.39284 -0.33073,0.48974 1.4552,0.03 3.24114,0.15284 3.96875,0.27306 0.82531,0.13635 -0.46844,0.17254 -3.43959,0.0962 -3.66055,-0.0941 -4.64949,-0.0518 -4.2741,0.18247 0.26863,0.16766 1.87597,0.35565 3.57188,0.41776 3.53921,0.12962 5.0678,0.2733 5.29192,0.49743 0.0865,0.0865 -1.24126,0.0736 -2.95057,-0.0285 -2.6069,-0.15585 -3.08479,-0.12617 -2.96487,0.18416 0.10672,0.27615 0.77452,0.38069 2.63345,0.41225 1.36976,0.0233 2.67032,0.14294 2.89014,0.26595 0.22878,0.12803 -0.8943,0.18259 -2.6267,0.1276 -2.52289,-0.0801 -3.02636,-0.0317 -3.02636,0.29084 0,0.31007 0.51237,0.39556 2.57969,0.43044 1.41883,0.0239 2.93688,0.15122 3.37344,0.28286 0.51865,0.1564 -0.28373,0.18655 -2.3151,0.087 -3.27252,-0.16041 -3.56441,-0.0543 -2.51355,0.91341 0.41096,0.37846 1.08692,0.59137 2.18282,0.68753 0.87312,0.0766 1.88515,0.26034 2.24895,0.40827 0.49244,0.20025 0.14324,0.22974 -1.3666,0.11542 -2.23243,-0.16903 -3.45366,0.0623 -2.42536,0.45943 0.31551,0.12185 1.35458,0.22154 2.30905,0.22154 0.95446,0 1.94647,0.12327 2.20446,0.27393 0.33251,0.19417 -0.35902,0.22579 -2.37519,0.10862 -2.0656,-0.12005 -2.84427,-0.0819 -2.84427,0.13949 0,0.1925 0.56047,0.31164 1.52135,0.32338 0.83675,0.0102 1.75948,0.12352 2.05052,0.25175 0.35943,0.15836 -0.0505,0.21605 -1.27801,0.17984 -0.99395,-0.0293 -1.82739,-0.0693 -1.85209,-0.0888 z m -0.89653,-1.68581 c 0.19799,-0.76406 0.14697,-0.95489 -0.35689,-1.33496 -0.3964,-0.299 -0.60137,-0.75409 -0.62924,-1.39706 -0.0512,-1.17985 -0.0617,-1.19005 -1.63517,-1.57885 -1.09912,-0.27158 -1.35443,-0.46237 -1.75312,-1.31007 -0.48649,-1.03437 -0.81887,-1.22117 -1.17695,-0.66145 -0.61748,0.96519 -1.08083,1.05796 -2.18484,0.43747 -0.5882,-0.33058 -1.06945,-0.6982 -1.06945,-0.81692 0,-0.11873 -0.3412,-0.21587 -0.75822,-0.21587 -0.74212,0 -0.75406,0.0228 -0.56212,1.07244 0.10786,0.58984 0.56813,1.53536 1.02281,2.10115 0.45468,0.5658 0.8267,1.14476 0.8267,1.28658 0,0.35056 1.86175,1.80106 2.80618,2.18631 0.95143,0.3881 4.64439,1.26389 4.98687,1.18263 0.13884,-0.0329 0.35638,-0.46107 0.48344,-0.9514 z m -5.89524,-7.14868 c 0,-0.15183 -0.46519,-0.23908 -1.05795,-0.19844 -1.37525,0.0943 -1.37556,0.46941 -3.9e-4,0.46941 0.58209,0 1.05834,-0.12194 1.05834,-0.27097 z m 8.20208,5.82722 -1.45521,-0.17833 1.52136,-0.0431 c 0.86659,-0.0246 1.52135,0.0707 1.52135,0.22145 0,0.14552 -0.0298,0.24518 -0.0661,0.22146 -0.0364,-0.0237 -0.72099,-0.12337 -1.52136,-0.22146 z m 2.57969,0.0894 c 0.1819,-0.0734 0.47956,-0.0734 0.66146,0 0.1819,0.0734 0.0331,0.13345 -0.33073,0.13345 -0.3638,0 -0.51263,-0.06 -0.33073,-0.13345 z m -16.5872,-7.55016 c -0.64637,-0.11101 -1.30122,-0.25662 -1.45521,-0.32357 -0.21178,-0.0921 5.66505,-0.0223 7.98824,0.0948 0.1819,0.009 0.33073,0.13203 0.33073,0.27303 0,0.29663 -5.06931,0.26396 -6.86376,-0.0442 z"
       id="path29" />
  </g>
</svg>
