<?xml version="1.0" encoding="UTF-8" standalone="no"?>
<!-- Created with Inkscape (http://www.inkscape.org/) -->

<svg
   width="19.199745mm"
   height="17.397482mm"
   viewBox="0 0 19.199745 17.397482"
   version="1.1"
   id="svg1"
   inkscape:version="1.4.2 (2aeb623e1d, 2025-05-12)"
   sodipodi:docname="isle5.svg"
   xmlns:inkscape="http://www.inkscape.org/namespaces/inkscape"
   xmlns:sodipodi="http://sodipodi.sourceforge.net/DTD/sodipodi-0.dtd"
   xmlns="http://www.w3.org/2000/svg"
   xmlns:svg="http://www.w3.org/2000/svg">
  <sodipodi:namedview
     id="namedview1"
     pagecolor="#ffffff"
     bordercolor="#000000"
     borderopacity="0.25"
     inkscape:showpageshadow="2"
     inkscape:pageopacity="0.0"
     inkscape:pagecheckerboard="0"
     inkscape:deskcolor="#d1d1d1"
     inkscape:document-units="mm"
     inkscape:zoom="0.7349537"
     inkscape:cx="220.42205"
     inkscape:cy="412.95118"
     inkscape:window-width="1854"
     inkscape:window-height="1011"
     inkscape:window-x="0"
     inkscape:window-y="0"
     inkscape:window-maximized="1"
     inkscape:current-layer="layer1" />
  <defs
     id="defs1" />
  <g
     inkscape:label="Layer 1"
     inkscape:groupmode="layer"
     id="layer1"
     transform="translate(-46.831244,-39.15833)">
    <path
       style="fill:#000000"
       d="m 61.0039,56.33315 c -0.51094,-0.13332 -0.33031,-0.20718 0.79375,-0.32459 1.75678,-0.18349 4.23334,0.0288 4.23334,0.3629 0,0.26625 -3.97599,0.23595 -5.02709,-0.0383 z m -0.2631,-1.00978 c -1.23611,-0.0428 -2.3672,-0.20331 -2.51354,-0.3566 -0.27073,-0.28361 6.94558,-0.11497 7.2295,0.16895 0.0733,0.0733 -0.0354,0.14568 -0.24157,0.16086 -1.19889,0.0883 -2.47865,0.096 -4.47439,0.0268 z m 2.11519,-1.11273 -1.45521,-0.17833 1.78594,-0.0431 c 1.04298,-0.0252 1.78593,0.0669 1.78593,0.22146 0,0.14552 -0.14883,0.24518 -0.33073,0.22146 -0.1819,-0.0237 -0.98557,-0.12338 -1.78593,-0.22146 z m -6.53923,-0.35911 c -0.15737,-0.25196 4.08099,-0.0707 4.33718,0.18554 0.0888,0.0888 -0.81893,0.13435 -2.01707,0.10132 -1.19814,-0.033 -2.24219,-0.16211 -2.32011,-0.28686 z m -1.83484,-1.02995 c -0.16092,-0.25788 8.87794,-0.22304 9.54047,0.0368 0.27773,0.10891 -1.7274,0.18984 -4.45584,0.17985 -2.72844,-0.01 -5.01652,-0.10747 -5.08463,-0.21661 z m -1.46516,-1.02284 c -0.51105,-0.31591 1.29361,-0.45473 6.31225,-0.48557 3.24189,-0.0199 5.13302,0.0676 5.24114,0.24253 0.093,0.15053 0.0133,0.27624 -0.17719,0.27935 -6.47974,0.10592 -11.17034,0.091 -11.3762,-0.0363 z m -2.06702,-1.34782 c 0,-0.24842 10.02161,-0.22854 12.30312,0.0244 0.87313,0.0968 -1.53789,0.17794 -5.35781,0.18032 -3.81992,0.002 -6.94531,-0.0897 -6.94531,-0.20472 z m 5.30039,-0.67197 c -4.69066,-0.0504 -7.09297,-0.17202 -7.27604,-0.36838 -0.19973,-0.21422 1.43634,-0.24918 6.07669,-0.12984 3.4925,0.0898 7.09414,0.16422 8.00364,0.16535 0.92467,10e-4 1.65365,0.1187 1.65365,0.26664 0,0.14552 -0.32742,0.23689 -0.7276,0.20303 -0.40019,-0.0339 -3.87884,-0.0954 -7.73034,-0.1368 z m -8.02878,-1.18118 c -0.41489,-0.26381 -0.45594,-0.26191 4.57327,-0.21175 2.39713,0.0239 4.54025,0.15251 4.7625,0.28579 0.25247,0.1514 -1.36414,0.22047 -4.30869,0.18407 -2.59202,-0.032 -4.85421,-0.14819 -5.02708,-0.25811 z m 9.97125,0.003 c -0.16365,-0.26479 5.35469,-0.22876 6.25089,0.0408 0.37078,0.11153 -0.82872,0.19262 -2.72954,0.18453 -1.86505,-0.008 -3.44966,-0.10934 -3.52135,-0.22534 z m -10.0967,-1.0522 c -0.2494,-0.0989 0.43951,-0.19003 1.53092,-0.20249 2.48831,-0.0284 2.01695,-0.52506 -0.52917,-0.55757 -1.43505,-0.0183 -1.62123,-0.0695 -1.12448,-0.30907 0.32743,-0.1579 0.59532,-0.43922 0.59532,-0.62514 0,-0.18593 -0.26789,-0.39074 -0.59532,-0.45515 l -0.59531,-0.11711 0.59531,-0.19673 c 0.32743,-0.10821 0.59532,-0.30192 0.59532,-0.43047 0,-0.12855 -0.26789,-0.24753 -0.59532,-0.26441 -0.44798,-0.0231 -0.48072,-0.0606 -0.13229,-0.1517 0.25466,-0.0666 0.46302,-0.23133 0.46302,-0.36618 0,-0.13485 -0.20836,-0.25458 -0.46302,-0.26607 -0.2766,-0.0125 -0.32987,-0.0746 -0.13229,-0.15434 0.60802,-0.24534 0.35789,-0.88311 -0.34634,-0.88311 -0.41282,0 -0.6089,-0.1103 -0.50241,-0.28262 0.0961,-0.15544 0.32225,-0.22599 0.50263,-0.15677 0.18038,0.0692 0.49242,0.0242 0.69343,-0.10002 0.30648,-0.18942 0.30261,-0.24613 -0.024,-0.35143 -0.2142,-0.0691 -0.56805,-0.18513 -0.78633,-0.25793 -0.21828,-0.0728 -0.0765,-0.14177 0.31511,-0.15325 0.8057,-0.0236 1.29682,-0.53318 0.5604,-0.58141 -0.26325,-0.0172 -0.62746,-0.012 -0.80936,0.0116 -0.18191,0.0236 -0.33073,-0.076 -0.33073,-0.22133 0,-0.15813 1.14247,-0.2738 2.84427,-0.28798 1.56435,-0.013 3.14192,-0.0627 3.50573,-0.11043 0.3638,-0.0477 0.81731,-0.10192 1.0078,-0.12049 0.19049,-0.0186 0.27806,-0.14426 0.19459,-0.2793 -0.0835,-0.13505 0.0807,-0.31932 0.36487,-0.4095 0.53059,-0.16841 3.73562,0.0489 3.95485,0.26812 0.11309,0.11308 -2.61497,0.23361 -3.31935,0.14666 -0.17093,-0.0211 -0.39335,0.0952 -0.49427,0.25853 -0.12991,0.2102 0.30847,0.27606 1.50141,0.22555 0.92669,-0.0392 2.10161,-0.0387 2.61093,0.001 0.86742,0.0678 0.88417,0.0858 0.26458,0.28426 -0.3638,0.11651 -1.227,0.2237 -1.91823,0.23821 -0.69122,0.0145 -1.25677,0.13964 -1.25677,0.27807 0,0.15159 0.87938,0.18965 2.21073,0.0957 1.5211,-0.10735 2.26878,-0.0621 2.39686,0.14517 0.13186,0.21335 -0.31365,0.30118 -1.52762,0.30118 -1.70744,0 -2.5508,0.16395 -2.5508,0.49589 0,0.0961 1.10133,0.0956 2.4474,-10e-4 1.34606,-0.0966 2.62598,-0.0725 2.84427,0.0535 0.25711,0.14851 -0.16218,0.23288 -1.19063,0.23958 -1.97234,0.0129 -4.3656,0.29004 -4.36569,0.50563 -3e-5,0.0889 1.51801,0.14609 3.37344,0.12715 1.85543,-0.0189 2.83772,0.009 2.18288,0.063 -0.65485,0.0536 -2.05383,0.16853 -3.10886,0.25544 -3.06341,0.25236 -2.21816,0.51839 1.32291,0.41637 1.78264,-0.0513 3.1552,-0.005 3.05014,0.10282 -0.10506,0.10791 -1.47428,0.28078 -3.04271,0.38416 l -2.85169,0.18795 3.30729,0.0862 c 1.81901,0.0474 2.77151,0.12376 2.11667,0.16969 -3.07414,0.21563 -4.49174,0.41374 -4.37001,0.61071 0.073,0.11817 1.38382,0.15101 2.91286,0.073 1.96111,-0.10009 2.78006,-0.0545 2.78006,0.15465 0,0.16387 -0.3847,0.2841 -0.85989,0.26873 -2.65837,-0.086 -4.45273,0.0565 -4.2777,0.33972 0.1301,0.21051 0.95583,0.24677 2.77158,0.12171 1.69398,-0.11667 2.64495,-0.0832 2.75634,0.097 0.11301,0.18284 -0.64156,0.27517 -2.24884,0.27517 -1.81696,0 -2.39175,0.0823 -2.30976,0.33073 0.0721,0.21833 0.92726,0.37664 2.51633,0.46581 1.32394,0.0743 2.48161,0.20952 2.57259,0.3005 0.22472,0.22472 -16.43262,0.14022 -17.00365,-0.0863 z m 10.63976,-0.7774 c -0.11281,-0.18254 -0.89212,-0.98481 -1.73179,-1.78283 -1.23539,-1.17411 -1.47902,-1.54001 -1.27687,-1.91773 0.70913,-1.32502 -0.19319,-2.41826 -1.78691,-2.16501 -0.55329,0.0879 -1.26698,0.32875 -1.58598,0.53517 -0.37048,0.23973 -1.08732,0.34405 -1.98438,0.28877 l -1.40437,-0.0865 0.0352,1.05834 c 0.0194,0.58208 0.12208,1.54754 0.22827,2.14547 0.18778,1.0573 0.23764,1.10103 1.81689,1.59372 2.00037,0.62406 8.03156,0.88339 7.68995,0.33065 z m -7.85758,-5.94949 c -0.0879,-0.0879 -0.31612,-0.0973 -0.50712,-0.0209 -0.21107,0.0845 -0.14837,0.14716 0.15985,0.15986 0.27892,0.0115 0.43519,-0.051 0.34727,-0.13897 z m -2.14475,-1.21097 c -0.7012,-0.0991 -1.35256,-0.2648 -1.44748,-0.36818 -0.0949,-0.10339 0.30368,-0.11291 0.88576,-0.0211 0.58208,0.0918 2.1299,0.17569 3.43958,0.18651 1.76324,0.0146 2.22034,0.0842 1.76124,0.26811 -0.65362,0.26189 -2.5091,0.23577 -4.6391,-0.0653 z"
       id="path39" />
  </g>
</svg>
