<?xml version="1.0" encoding="UTF-8" standalone="no"?>
<!-- Created with Inkscape (http://www.inkscape.org/) -->

<svg
   width="26.239832mm"
   height="17.759523mm"
   viewBox="0 0 26.239832 17.759523"
   version="1.1"
   id="svg1"
   inkscape:version="1.4.2 (2aeb623e1d, 2025-05-12)"
   sodipodi:docname="isle3.svg"
   xmlns:inkscape="http://www.inkscape.org/namespaces/inkscape"
   xmlns:sodipodi="http://sodipodi.sourceforge.net/DTD/sodipodi-0.dtd"
   xmlns="http://www.w3.org/2000/svg"
   xmlns:svg="http://www.w3.org/2000/svg">
  <sodipodi:namedview
     id="namedview1"
     pagecolor="#ffffff"
     bordercolor="#000000"
     borderopacity="0.25"
     inkscape:showpageshadow="2"
     inkscape:pageopacity="0.0"
     inkscape:pagecheckerboard="0"
     inkscape:deskcolor="#d1d1d1"
     inkscape:document-units="mm"
     inkscape:zoom="0.7349537"
     inkscape:cx="251.71654"
     inkscape:cy="456.49134"
     inkscape:window-width="1854"
     inkscape:window-height="1011"
     inkscape:window-x="0"
     inkscape:window-y="0"
     inkscape:window-maximized="1"
     inkscape:current-layer="layer1" />
  <defs
     id="defs1" />
  <g
     inkscape:label="Layer 1"
     inkscape:groupmode="layer"
     id="layer1"
     transform="translate(-38.629159,-27.781252)">
    <path
       style="fill:#000000"
       d="m 55.45426,45.28987 c -0.30926,-0.19986 -0.23625,-0.25737 0.33073,-0.26053 0.40019,-0.002 0.72761,0.11501 0.72761,0.26053 0,0.33454 -0.54067,0.33454 -1.05834,0 z m -8.99583,-0.30821 c 0,-0.30431 7.01103,-0.17729 7.32095,0.13263 0.0939,0.0939 -1.51485,0.16541 -3.57508,0.15883 -2.44668,-0.008 -3.74587,-0.1089 -3.74587,-0.29146 z m 4.36563,-0.76955 c -1.81961,-0.14905 -1.80801,-0.15207 0.66145,-0.17206 1.38245,-0.0112 2.8112,0.0787 3.175,0.19972 0.74547,0.24801 -0.58856,0.2384 -3.83645,-0.0277 z m -6.35,-0.24516 c 0.19741,-0.31943 3.22539,-0.31943 3.96875,0 0.35152,0.15106 -0.25327,0.23364 -1.80156,0.24599 -1.49086,0.0119 -2.27179,-0.0767 -2.16719,-0.24599 z m 10.42899,-0.63877 c -0.0606,-0.0603 -2.78822,-0.17655 -6.0613,-0.25836 -3.45883,-0.0865 -5.98678,-0.25596 -6.03637,-0.40473 -0.13237,-0.39712 12.35919,0.11314 12.76795,0.52155 0.15869,0.15856 0.10179,0.25115 -0.15434,0.25115 -0.22314,0 -0.45531,-0.0493 -0.51594,-0.10961 z m 3.1309,-1.13545 c 0.32742,-0.0631 0.8632,-0.0631 1.19063,0 0.32742,0.0631 0.0595,0.11466 -0.59532,0.11466 -0.65484,0 -0.92273,-0.0516 -0.59531,-0.11466 z m -10.2526,-0.35496 c -1.81901,-0.0796 -2.89653,-0.16894 -2.39448,-0.19844 1.79581,-0.10551 0.40079,-0.55239 -2.30188,-0.73739 -1.49158,-0.1021 -2.71225,-0.25791 -2.71259,-0.34625 -3.4e-4,-0.0883 1.02434,-0.12174 2.27708,-0.0742 3.06754,0.11634 2.70964,-0.38464 -0.45145,-0.63193 -1.32072,-0.10332 -2.28006,-0.26278 -2.13187,-0.35437 0.14818,-0.0916 1.11129,-0.10396 2.14022,-0.0275 1.02894,0.0765 1.8708,0.0574 1.8708,-0.0422 0,-0.0997 -1.07415,-0.26526 -2.387,-0.36796 -1.31286,-0.1027 -2.46066,-0.30591 -2.55069,-0.45157 -0.10782,-0.17446 0.67102,-0.20121 2.28227,-0.0784 1.45915,0.11122 2.38572,0.089 2.29665,-0.0551 -0.0821,-0.13286 -0.77631,-0.26376 -1.54266,-0.29088 -0.76635,-0.0271 -1.51524,-0.1734 -1.66419,-0.32506 -0.18767,-0.19107 0.23694,-0.21905 1.38281,-0.0911 1.44098,0.16087 1.65364,0.12788 1.65364,-0.25646 0,-0.29617 -0.19556,-0.42425 -0.59531,-0.3899 -1.47966,0.12717 -4.44892,-0.0539 -4.31944,-0.26342 0.079,-0.12775 1.26248,-0.17579 2.63005,-0.10675 1.64658,0.0831 2.54705,0.0275 2.66579,-0.16459 0.12249,-0.19819 -0.34965,-0.29495 -1.48995,-0.30537 -1.98366,-0.0181 -3.89585,-0.32587 -3.51462,-0.56564 0.14921,-0.0938 1.26127,-0.0856 2.47124,0.0184 1.61238,0.13856 2.31723,0.0998 2.63911,-0.14499 0.3782,-0.28767 0.29924,-0.33522 -0.56863,-0.34246 -0.62277,-0.005 -0.94341,-0.1126 -0.83926,-0.28112 0.0978,-0.15816 0.54883,-0.20136 1.07395,-0.10284 0.72649,0.13629 0.90541,0.0856 0.90541,-0.25647 0,-0.35837 -0.35598,-0.42632 -2.23335,-0.42632 -1.22833,0 -2.29258,-0.0958 -2.36498,-0.213 -0.0724,-0.11715 0.9326,-0.16212 2.23334,-0.0999 1.63927,0.0784 2.36499,0.022 2.36499,-0.18387 0,-0.16332 -0.14883,-0.30787 -0.33073,-0.32121 -0.1819,-0.0134 -1.21894,-0.078 -2.30453,-0.14377 -2.727,-0.16511 -2.68487,-0.36114 0.0776,-0.36114 1.35231,0 2.29305,-0.10854 2.29305,-0.26458 0,-0.15268 -0.83264,-0.26458 -1.96876,-0.26458 -1.08282,0 -2.02878,-0.0971 -2.10214,-0.21582 -0.0734,-0.1187 0.54469,-0.19145 1.37345,-0.16167 1.62947,0.0586 2.43287,-0.0701 2.43287,-0.38958 0,-0.11124 -0.83344,-0.19246 -1.85209,-0.18051 -1.01864,0.012 -1.85208,-0.0676 -1.85208,-0.1768 0,-0.1092 0.8297,-0.19854 1.84378,-0.19854 1.53021,0 1.81788,-0.0675 1.69149,-0.39687 -0.11315,-0.29485 -0.60415,-0.40166 -1.90993,-0.41548 -1.07258,-0.0113 -1.56033,-0.0959 -1.25143,-0.21704 0.27841,-0.10915 1.02255,-0.17603 1.65365,-0.14862 0.63109,0.0274 1.14744,-0.0535 1.14744,-0.17983 0,-0.12631 -0.44648,-0.24153 -0.99219,-0.25603 -0.5457,-0.0145 -1.28984,-0.1217 -1.65364,-0.23821 -0.49783,-0.15943 -0.23602,-0.2267 1.05833,-0.27193 l 1.71979,-0.0601 -1.65488,-0.25414 c -0.94743,-0.14549 -1.58703,-0.36392 -1.49617,-0.51094 0.0873,-0.14125 0.47481,-0.18939 0.86114,-0.10699 0.38633,0.0824 1.49809,0.0521 2.47057,-0.0674 1.32037,-0.16218 1.9405,-0.12688 2.44866,0.13937 0.43968,0.23037 1.45251,0.33831 2.86205,0.30502 3.14476,-0.0743 11.28046,0.27943 12.36801,0.53772 0.52061,0.12365 -2.24885,0.15861 -6.32574,0.0798 -5.55793,-0.10737 -7.20644,-0.0667 -7.05769,0.17394 0.10674,0.17271 0.57207,0.29739 1.03407,0.27706 2.19685,-0.0967 12.93432,0.32633 13.46629,0.53053 0.36217,0.13901 -1.08732,0.17653 -3.63047,0.094 -3.3339,-0.10823 -4.1686,-0.0686 -3.92864,0.18662 0.27942,0.29717 1.25622,0.3648 7.30207,0.5056 0.69123,0.0161 1.25696,0.11856 1.25719,0.2277 2.2e-4,0.10915 -1.75595,0.16239 -3.90261,0.11833 -2.8028,-0.0575 -3.82239,7.2e-4 -3.617,0.20664 0.1687,0.16913 1.77052,0.32068 3.90534,0.36948 1.99063,0.0455 3.69747,0.16087 3.79298,0.25638 0.0955,0.0955 -1.53688,0.17365 -3.62753,0.17365 -4.64366,0 -4.63786,0.40996 0.009,0.62283 1.81901,0.0833 3.33706,0.15588 3.37344,0.16122 0.0364,0.005 0.0662,0.11049 0.0662,0.23368 0,0.12319 -1.51805,0.16793 -3.37344,0.0994 -1.85539,-0.0685 -3.28751,-0.0337 -3.18248,0.0772 0.20367,0.21519 1.61491,0.33089 4.5054,0.36935 0.98226,0.0131 1.78593,0.11943 1.78593,0.23636 0,0.11693 -1.33945,0.17715 -2.97656,0.13382 -3.58421,-0.0949 -3.08645,0.39065 0.6532,0.63713 1.26877,0.0836 2.2438,0.25406 2.16674,0.37875 -0.0771,0.12468 -0.90829,0.15208 -1.84717,0.0609 -1.56812,-0.15233 -1.70078,-0.12547 -1.62991,0.32998 0.15698,1.00895 0.45512,1.15726 2.3264,1.15726 1.11783,0 1.83647,0.10981 1.83647,0.2806 0,0.1879 -0.60045,0.22144 -1.81745,0.10152 -1.23197,-0.12139 -1.87625,-0.0839 -1.99999,0.11627 -0.12894,0.20864 0.48239,0.29536 2.08204,0.29536 1.36847,0 2.26457,0.10719 2.26457,0.27089 0,0.17723 -0.79031,0.21115 -2.28569,0.0981 -1.66829,-0.1261 -2.23582,-0.0921 -2.10106,0.12598 0.11342,0.18351 1.04018,0.29876 2.40237,0.29876 1.27277,0 2.29138,0.11916 2.39057,0.27966 0.11935,0.19312 -0.61263,0.23079 -2.36564,0.12175 -1.56318,-0.0972 -2.53847,-0.0598 -2.53847,0.0974 0,0.14039 1.07156,0.33908 2.38125,0.44154 1.30969,0.10245 2.38125,0.29801 2.38125,0.43456 0,0.13656 -0.20836,0.18662 -0.46302,0.11124 -0.77022,-0.22798 -10.00233,-0.50156 -9.79913,-0.29039 0.20637,0.21446 1.1889,0.29052 6.53199,0.50569 1.95024,0.0785 3.61711,0.22003 3.70417,0.31445 0.0871,0.0944 -2.36759,0.10075 -5.45476,0.0141 -3.08718,-0.0867 -5.67458,-0.058 -5.74979,0.0637 -0.18337,0.29671 1.63224,0.45204 6.00197,0.51351 1.99557,0.0281 3.89907,0.16428 4.23,0.30269 0.60621,0.25353 -10.47909,0.12719 -13.09049,-0.14919 -0.69122,-0.0732 -1.25677,-0.0263 -1.25677,0.10415 0,0.24959 2.23949,0.54803 5.54039,0.7383 1.08268,0.0624 2.03518,0.18101 2.11667,0.26355 0.15022,0.15218 -3.23697,0.0881 -9.24456,-0.17497 z m 0.66501,-1.475 c -0.22024,-0.5271 -0.40043,-1.00335 -0.40043,-1.05834 0,-0.29532 1.15127,-0.0273 1.97803,0.46051 1.25458,0.74022 2.3402,0.51612 3.63779,-0.75094 l 0.99662,-0.97318 1.25784,0.45216 c 1.38732,0.49871 2.60262,0.50188 3.01263,0.008 1.05865,-1.27559 0.55654,-2.97099 -1.07299,-3.62299 -1.19277,-0.47726 -1.73591,-1.18557 -1.98019,-2.58237 -0.23896,-1.36644 -1.00502,-1.96038 -2.48663,-1.92793 -0.66864,0.0146 -1.25933,0.15749 -1.31265,0.31745 -0.22222,0.66665 -1.1921,1.6403 -1.63396,1.6403 -0.26153,0 -0.86022,-0.47198 -1.33042,-1.04885 -1.2119,-1.48683 -2.93618,-2.44089 -4.22814,-2.33949 l -1.03262,0.0811 0.66771,1.85208 c 1.30341,3.61537 1.27359,4.29068 -0.2795,6.33019 -0.43496,0.57118 -0.66416,0.96022 -0.50932,0.86453 0.15483,-0.0957 0.59986,0.28539 0.98896,0.84685 0.90821,1.31055 2.45588,2.40947 3.39339,2.40947 h 0.7343 z m 1.38,-0.25984 c -0.0879,-0.0879 -0.31613,-0.0973 -0.50712,-0.0209 -0.21107,0.0845 -0.14837,0.14715 0.15985,0.15985 0.27892,0.0115 0.43519,-0.051 0.34727,-0.13897 z M 51.15787,30.556 c -0.25296,-0.0662 -0.72921,-0.0686 -1.05833,-0.005 -0.32912,0.0633 -0.12215,0.11747 0.45993,0.1204 0.58209,0.003 0.85136,-0.0488 0.5984,-0.11506 z m -0.20152,-0.56023 c 0,-0.11707 -0.47625,-0.24096 -1.05834,-0.27531 -0.59664,-0.0352 -1.05833,0.0577 -1.05833,0.21286 0,0.15142 0.47625,0.2753 1.05833,0.2753 0.58209,0 1.05834,-0.0958 1.05834,-0.21285 z m 0.98667,0.053 c -0.0879,-0.0879 -0.31612,-0.0973 -0.50712,-0.0209 -0.21106,0.0845 -0.14837,0.14716 0.15986,0.15985 0.27891,0.0115 0.43518,-0.051 0.34726,-0.13896 z M 41.43135,41.5857 c 0,-0.14552 0.11203,-0.26458 0.24897,-0.26458 0.13693,0 0.32255,0.11906 0.41249,0.26458 0.0899,0.14552 -0.0221,0.26459 -0.24897,0.26459 -0.22687,0 -0.41249,-0.11907 -0.41249,-0.26459 z m 2.38125,0 c 0,-0.14552 0.12609,-0.26458 0.2802,-0.26458 0.1541,0 0.20661,0.11906 0.11667,0.26458 -0.0899,0.14552 -0.21602,0.26459 -0.2802,0.26459 -0.0642,0 -0.11667,-0.11907 -0.11667,-0.26459 z m 16.3157,-5.83819 c 0.1933,-0.19331 0.77143,-0.20335 1.83885,-0.0319 l 1.55691,0.25 -1.83886,0.0319 c -1.3014,0.0226 -1.75645,-0.0505 -1.5569,-0.25 z m -19.62299,-0.77639 -1.32292,-0.18145 1.24116,-0.0416 c 0.68263,-0.0229 1.31474,0.0775 1.40467,0.22302 0.0899,0.14552 0.12673,0.24588 0.0818,0.22302 -0.045,-0.0229 -0.67707,-0.12322 -1.40467,-0.22302 z"
       id="path24" />
  </g>
</svg>
