<?xml version="1.0" encoding="UTF-8" standalone="no"?>
<!-- Created with Inkscape (http://www.inkscape.org/) -->

<svg
   width="20.767307mm"
   height="14.598347mm"
   viewBox="0 0 20.767307 14.598347"
   version="1.1"
   id="svg1"
   inkscape:version="1.4.2 (2aeb623e1d, 2025-05-12)"
   sodipodi:docname="isle2.svg"
   xmlns:inkscape="http://www.inkscape.org/namespaces/inkscape"
   xmlns:sodipodi="http://sodipodi.sourceforge.net/DTD/sodipodi-0.dtd"
   xmlns="http://www.w3.org/2000/svg"
   xmlns:svg="http://www.w3.org/2000/svg">
  <sodipodi:namedview
     id="namedview1"
     pagecolor="#ffffff"
     bordercolor="#000000"
     borderopacity="0.25"
     inkscape:showpageshadow="2"
     inkscape:pageopacity="0.0"
     inkscape:pagecheckerboard="0"
     inkscape:deskcolor="#d1d1d1"
     inkscape:document-units="mm"
     inkscape:zoom="0.7349537"
     inkscape:cx="281.65039"
     inkscape:cy="361.24724"
     inkscape:window-width="1854"
     inkscape:window-height="1011"
     inkscape:window-x="0"
     inkscape:window-y="0"
     inkscape:window-maximized="1"
     inkscape:current-layer="layer1" />
  <defs
     id="defs1" />
  <g
     inkscape:label="Layer 1"
     inkscape:groupmode="layer"
     id="layer1"
     transform="translate(-30.427063,-52.916671)">
    <path
       style="fill:#000000"
       d="m 39.88343,67.36525 c -0.9095,-0.0517 -1.65365,-0.20587 -1.65365,-0.34269 0,-0.32228 2.92845,-0.0784 3.28001,0.27318 0.14597,0.14597 0.21183,0.24247 0.14635,0.21443 -0.0655,-0.028 -0.8632,-0.0933 -1.77271,-0.14492 z m -3.77031,-0.33327 c 0,-0.14552 0.35016,-0.26458 0.77813,-0.26458 0.42798,0 0.85172,0.11906 0.94166,0.26458 0.0973,0.15746 -0.21774,0.26459 -0.77814,0.26459 -0.51791,0 -0.94165,-0.11906 -0.94165,-0.26459 z m -0.47886,-0.93225 c 0.25731,-0.25731 6.23191,-0.45489 6.65168,-0.21997 0.24784,0.13869 -1.00357,0.25467 -3.19413,0.29603 -1.98089,0.0374 -3.53679,0.003 -3.45755,-0.0761 z m 2.9924,-0.9096 c -2.32833,-0.0784 -4.01524,-0.23182 -3.74867,-0.34096 0.26656,-0.10914 1.18929,-0.19844 2.05052,-0.19844 0.86752,0 1.56586,-0.11799 1.56586,-0.26458 0,-0.23569 -2.33516,-0.40121 -3.89423,-0.27603 -0.32281,0.0259 -0.79906,-0.0763 -1.05833,-0.22725 -0.34803,-0.20257 0.23836,-0.27648 2.24058,-0.28242 3.2016,-0.01 3.76475,-0.51075 0.66146,-0.58875 -1.12779,-0.0283 -2.34818,-0.0769 -2.71198,-0.10798 -0.3638,-0.031 -0.8341,-0.0674 -1.04511,-0.0808 -0.23827,-0.0151 -0.2884,-0.11534 -0.13229,-0.26455 0.1443,-0.13792 1.32189,-0.15719 2.7649,-0.0452 1.38245,0.10724 2.56438,0.15459 2.62652,0.10521 0.0621,-0.0494 -0.11646,-0.26335 -0.39688,-0.4755 -0.36308,-0.27468 -1.24798,-0.38815 -3.07392,-0.39414 -1.49935,-0.005 -2.63551,-0.124 -2.73611,-0.28677 -0.11879,-0.1922 0.67487,-0.22305 2.56407,-0.0997 2.03078,0.13263 2.66395,0.10154 2.45621,-0.12061 -0.15406,-0.16473 -1.58156,-0.37388 -3.175,-0.46517 -1.59231,-0.0912 -2.94471,-0.20934 -3.00534,-0.26249 -0.31659,-0.27749 0.39998,-0.30991 3.20025,-0.14475 2.69024,0.15867 3.05263,0.13157 2.85934,-0.21381 -0.25425,-0.45433 -0.14524,-0.43842 -3.36966,-0.49152 -1.55535,-0.0256 -2.4474,-0.14473 -2.4474,-0.32682 0,-0.18734 0.48085,-0.23725 1.38906,-0.14416 0.76399,0.0783 2.13321,0.1477 3.04271,0.15423 1.28825,0.009 1.65365,0.0996 1.65365,0.40874 0,0.21828 0.12708,0.39688 0.28241,0.39688 0.22494,0 0.12716,-0.93187 -0.13104,-1.24892 -0.0261,-0.0321 -1.38054,-0.13926 -3.00984,-0.23822 -2.33529,-0.14183 -2.96237,-0.2615 -2.96237,-0.56532 0,-0.24607 0.15448,-0.32613 0.42727,-0.22145 0.235,0.0902 1.60711,0.23926 3.04914,0.33129 2.30327,0.147 2.60273,0.11744 2.46434,-0.24319 -0.12301,-0.32055 -0.63178,-0.41793 -2.32153,-0.44432 -1.1902,-0.0186 -2.58073,-0.14364 -3.09005,-0.27789 -0.65571,-0.17283 -0.0204,-0.21035 2.17632,-0.12851 2.74248,0.10217 3.13083,0.0625 3.34771,-0.34218 0.22011,-0.41067 0.10857,-0.44809 -1.0846,-0.36386 -0.9187,0.0649 -1.27439,0.004 -1.15027,-0.19685 0.28706,-0.46447 3.02254,-0.30029 3.4011,0.20413 0.68319,0.91034 1.49915,0.54536 1.50777,-0.67443 0.005,-0.71168 0.40173,-0.85631 1.59155,-0.58026 0.50933,0.11817 2.29526,0.23922 3.96875,0.26899 l 3.04271,0.0541 -2.69117,0.1506 c -1.48015,0.0828 -2.77992,0.23991 -2.88837,0.34905 -0.10846,0.10914 0.031,0.19976 0.30992,0.20138 1.20964,0.007 5.80877,0.34115 5.90903,0.4293 0.0606,0.0533 -1.28584,0.0969 -2.99217,0.0969 -2.00091,0 -3.04437,0.0939 -2.9389,0.26459 0.0956,0.15461 1.60494,0.26458 3.63158,0.26458 1.90744,0 3.38912,0.079 3.29263,0.17544 -0.0965,0.0965 -1.6163,0.15072 -3.37736,0.12052 -2.52109,-0.0432 -3.17756,0.0179 -3.08736,0.28758 0.0863,0.25807 0.908,0.33323 3.33326,0.30487 1.77029,-0.0207 3.2187,0.0686 3.2187,0.19844 0,0.12984 -1.30968,0.23607 -2.91041,0.23607 -1.76389,0 -2.91042,0.10423 -2.91042,0.26458 0,0.16105 1.19063,0.26458 3.04271,0.26458 1.97019,0 3.04271,0.099 3.04271,0.28095 0,0.18439 -0.5184,0.22496 -1.50853,0.11804 -1.69729,-0.18328 -3.59783,0.0525 -3.37177,0.41821 0.082,0.13263 1.24333,0.26364 2.58081,0.29114 l 2.43178,0.05 -2.38125,0.1532 c -1.61474,0.10389 -2.22754,0.22645 -1.90375,0.38075 0.26263,0.12514 1.36783,0.1704 2.456,0.10057 1.08817,-0.0698 2.04118,-0.0256 2.1178,0.0984 0.0766,0.12397 -0.94631,0.2254 -2.27318,0.2254 -1.54094,0 -2.3534,0.0956 -2.24895,0.26458 0.0899,0.14553 0.81133,0.26459 1.60311,0.26459 0.79178,0 1.43987,0.0893 1.44021,0.19844 3.4e-4,0.10914 -0.90655,0.15877 -2.01531,0.1103 -1.213,-0.053 -2.13006,0.026 -2.30249,0.19844 -0.2057,0.2057 0.18878,0.28657 1.39795,0.28657 0.92648,0 1.60428,0.0802 1.50622,0.17829 -0.0981,0.0981 -0.90435,0.14865 -1.79177,0.11243 -1.09762,-0.0448 -1.55728,0.0251 -1.43769,0.21859 0.0967,0.15644 0.85337,0.29631 1.68153,0.31081 0.82815,0.0145 1.80339,0.12352 2.16719,0.24225 0.39945,0.13036 -0.13925,0.16366 -1.35994,0.0841 -2.15483,-0.14051 -2.75261,0.12502 -1.79364,0.7967 l 0.55943,0.39184 -0.53761,0.28772 c -0.29569,0.15825 -0.99193,0.26256 -1.5472,0.23181 -0.55527,-0.0308 -2.91458,-0.12005 -5.24291,-0.19844 z m 4.10104,-0.5394 c 0.34202,-0.22103 0.33504,-0.25704 -0.0505,-0.26053 -0.24607,-0.002 -0.52099,0.11501 -0.61093,0.26053 -0.20695,0.33486 0.14331,0.33486 0.66146,0 z m -1.14651,-0.51286 c 0.82841,-0.50513 0.84928,-0.50507 1.8506,0.005 1.00161,0.51065 1.56331,0.28775 0.91318,-0.36238 -0.49001,-0.49001 -0.33234,-1.27311 0.36711,-1.82329 0.3638,-0.28617 0.66145,-0.67811 0.66145,-0.87098 0,-0.19287 -0.7,-1.08404 -1.55556,-1.98038 -0.85556,-0.89634 -1.55118,-1.77169 -1.54582,-1.94523 0.0415,-1.34216 -0.0674,-1.50614 -0.99966,-1.50614 -0.90139,0 -0.92604,0.0277 -0.92604,1.04081 0,0.96287 -0.049,1.03193 -0.65455,0.92212 -0.36,-0.0653 -0.96306,-0.23599 -1.34014,-0.37935 -0.37707,-0.14336 -0.7185,-0.26066 -0.75871,-0.26066 -0.1437,0 0.27517,2.27486 0.47985,2.60603 0.12413,0.20085 0.0186,0.54779 -0.26034,0.85604 -0.45291,0.50045 -0.4398,0.54849 0.3805,1.39483 0.50941,0.52557 0.91257,1.26479 1.00693,1.84627 0.1347,0.83007 0.25718,0.9696 0.85035,0.96876 0.38114,-5.5e-4 1.07002,-0.23089 1.53085,-0.51188 z m 6.85547,-1.30618 c -0.13179,-0.21325 2.22166,-0.0852 2.47108,0.13446 0.0606,0.0534 -0.43836,0.0971 -1.10887,0.0971 -0.67051,0 -1.2835,-0.10419 -1.36221,-0.23154 z m 1.17021,-0.78097 c 0,-0.12031 0.35719,-0.16633 0.79375,-0.10226 0.43656,0.0641 0.79375,0.16252 0.79375,0.21876 0,0.0563 -0.35719,0.10226 -0.79375,0.10226 -0.43656,0 -0.79375,-0.0984 -0.79375,-0.21876 z M 30.95374,55.91948 c -0.19639,-0.31776 1.14572,-0.32546 2.64584,-0.0152 0.98356,0.20344 0.93326,0.22105 -0.71199,0.24933 -0.97368,0.0167 -1.84391,-0.0886 -1.93385,-0.23416 z m 0.52917,-0.79942 c -0.6774,-0.12492 0.10814,-0.18283 2.18244,-0.16089 1.78242,0.0188 3.24094,0.12357 3.24114,0.23271 4.7e-4,0.24615 -3.98556,0.19336 -5.42358,-0.0718 z m 13.09687,-0.29022 c -0.73518,-0.12989 -0.58521,-0.17079 0.72761,-0.19844 0.9095,-0.0192 1.65364,0.0545 1.65364,0.16361 0,0.24079 -1.12252,0.25721 -2.38125,0.0348 z m -2.70889,-0.15582 c 0.32912,-0.0633 0.80537,-0.0609 1.05833,0.005 0.25297,0.0662 -0.0163,0.118 -0.59839,0.11507 -0.58209,-0.003 -0.78906,-0.0571 -0.45994,-0.12041 z M 30.42982,54.07589 c -0.14728,-0.23831 5.6531,-0.0833 5.92583,0.15841 0.0606,0.0537 -1.21226,0.0977 -2.82865,0.0977 -1.6164,0 -3.01013,-0.11524 -3.09718,-0.25609 z m 8.6641,-0.0284 c -0.8258,-0.29321 0.25961,-0.40923 2.31086,-0.24701 l 1.98438,0.15694 -1.93334,0.12112 c -1.06333,0.0666 -2.12619,0.0526 -2.3619,-0.031 z m 4.60365,-0.0463 c 0.15826,-0.26237 1.66883,-0.22071 2.33742,0.0645 0.36419,0.15534 0.0636,0.21141 -0.96398,0.17984 -0.82122,-0.0252 -1.43928,-0.13516 -1.37344,-0.24431 z M 37.0363,53.0309 c 0.53895,-0.21044 6.22454,-0.10612 6.44899,0.11833 0.0684,0.0684 -1.47307,0.11599 -3.42547,0.10576 -1.98246,-0.0104 -3.31745,-0.10933 -3.02352,-0.22409 z m 7.74192,0.0675 c 0.1819,-0.0734 0.47956,-0.0734 0.66146,0 0.1819,0.0734 0.0331,0.13345 -0.33073,0.13345 -0.3638,0 -0.51263,-0.06 -0.33073,-0.13345 z"
       id="path31" />
  </g>
</svg>
