<?xml version="1.0" encoding="UTF-8" standalone="no"?>
<!-- Created with Inkscape (http://www.inkscape.org/) -->

<svg
   width="26.740562mm"
   height="19.33079mm"
   viewBox="0 0 26.740562 19.33079"
   version="1.1"
   id="svg1"
   inkscape:version="1.4.2 (2aeb623e1d, 2025-05-12)"
   sodipodi:docname="isle11.svg"
   xmlns:inkscape="http://www.inkscape.org/namespaces/inkscape"
   xmlns:sodipodi="http://sodipodi.sourceforge.net/DTD/sodipodi-0.dtd"
   xmlns="http://www.w3.org/2000/svg"
   xmlns:svg="http://www.w3.org/2000/svg">
  <sodipodi:namedview
     id="namedview1"
     pagecolor="#ffffff"
     bordercolor="#000000"
     borderopacity="0.25"
     inkscape:showpageshadow="2"
     inkscape:pageopacity="0.0"
     inkscape:pagecheckerboard="0"
     inkscape:deskcolor="#d1d1d1"
     inkscape:document-units="mm"
     inkscape:zoom="0.7349537"
     inkscape:cx="206.81575"
     inkscape:cy="470.09764"
     inkscape:window-width="1854"
     inkscape:window-height="1011"
     inkscape:window-x="0"
     inkscape:window-y="0"
     inkscape:window-maximized="1"
     inkscape:current-layer="layer1" />
  <defs
     id="defs1" />
  <g
     inkscape:label="Layer 1"
     inkscape:groupmode="layer"
     id="layer1"
     transform="translate(-50.451677,-24.255005)">
    <path
       style="fill:#000000"
       d="m 66.46156,43.38262 c 0,-0.11455 0.2407,-0.22641 0.53489,-0.24857 0.29418,-0.0222 0.46575,0.0716 0.38126,0.20828 -0.18587,0.30074 -0.91615,0.33286 -0.91615,0.0403 z m -5.55625,-0.85005 c -0.30179,-0.19504 -0.20671,-0.24996 0.39688,-0.22923 0.43656,0.015 1.15093,0.11814 1.5875,0.22923 0.72389,0.18419 0.68896,0.20437 -0.39688,0.22922 -0.65484,0.015 -1.36922,-0.0882 -1.5875,-0.22922 z m 4.56737,0.10693 c 0.0867,-0.0867 0.96975,-0.20076 1.96233,-0.25346 1.1995,-0.0637 1.62723,-0.0171 1.27551,0.13906 -0.58818,0.26105 -3.48691,0.36347 -3.23784,0.1144 z m -5.98171,-1.09912 c -0.0675,-0.10914 0.43153,-0.16364 1.10887,-0.1211 2.09954,0.13186 2.36172,0.24589 0.65181,0.2835 -0.90091,0.0198 -1.69322,-0.0533 -1.76068,-0.1624 z m 4.90217,0.062 c 0.075,-0.075 1.61294,-0.18511 3.41754,-0.24459 2.43206,-0.0802 2.8703,-0.0523 1.69359,0.10773 -1.81744,0.24714 -5.31506,0.3408 -5.11113,0.13686 z m -6.00137,-0.92189 c -0.0954,-0.15436 0.17364,-0.26458 0.64584,-0.26458 0.44515,0 0.80937,0.11906 0.80937,0.26458 0,0.14552 -0.29063,0.26459 -0.64585,0.26459 -0.35521,0 -0.71942,-0.11907 -0.80936,-0.26459 z m 1.71979,0 c 0,-0.14552 0.11204,-0.26458 0.24897,-0.26458 0.13693,0 0.32255,0.11906 0.41249,0.26458 0.0899,0.14552 -0.0221,0.26459 -0.24897,0.26459 -0.22687,0 -0.41249,-0.11907 -0.41249,-0.26459 z m 1.25677,0.0894 c 0.1819,-0.0734 0.47956,-0.0734 0.66146,0 0.1819,0.0734 0.0331,0.13345 -0.33073,0.13345 -0.3638,0 -0.51263,-0.06 -0.33073,-0.13345 z m 2.05052,-0.3398 c 0.29104,-0.12449 2.55323,-0.2183 5.02709,-0.20846 2.77027,0.011 3.88815,0.0803 2.91041,0.18052 -2.55554,0.26182 -8.53348,0.28286 -7.9375,0.0279 z m -6.3059,-0.7197 c -0.25056,-0.25055 -0.21934,-0.67513 0.0379,-0.51612 0.11788,0.0729 1.07459,0.15758 2.12601,0.18828 1.05142,0.0307 1.97403,0.15671 2.05024,0.28003 0.1621,0.26228 -3.95303,0.30897 -4.21419,0.0478 z m 5.11528,-0.0495 c 0,-0.1387 0.62508,-0.29929 1.38906,-0.35687 2.64511,-0.19934 10.64217,-0.24775 10.45772,-0.0633 -0.10188,0.10189 -2.12448,0.22529 -4.49466,0.27424 -2.37018,0.0489 -4.99402,0.15855 -5.83077,0.24356 -0.8961,0.091 -1.52135,0.0509 -1.52135,-0.0976 z m -5.15938,-1.09701 c -0.83467,-0.14944 -0.57237,-0.19742 1.24116,-0.22703 1.29053,-0.0211 2.37124,0.0785 2.46301,0.22703 0.18571,0.3005 -2.02589,0.3005 -3.70417,0 z m 3.96875,-0.39726 c -0.71919,-0.59659 -1.02364,-0.65856 -3.24114,-0.65975 -1.34607,-7.3e-4 -2.44767,-0.0906 -2.44801,-0.19976 -3.3e-4,-0.10914 1.08368,-0.1599 2.40891,-0.1128 1.66843,0.0593 2.35552,-0.002 2.23395,-0.19844 -0.10501,-0.16991 -1.17936,-0.28407 -2.67349,-0.28407 -1.58373,0 -2.49793,-0.10268 -2.49793,-0.28056 0,-0.17061 0.59622,-0.26215 1.52136,-0.23359 2.13757,0.066 2.43,0.0558 2.3151,-0.2796 -0.0899,-0.26245 -3.92195,-0.28972 -3.92195,-0.28972 -0.28136,-0.0252 -0.59235,-0.40869 -0.37976,-0.39295 l 1.74541,0.0575 c 2.5308,0.0834 2.77876,-0.4332 -0.20621,-0.4332 -1.3011,0 -2.43922,-0.11906 -2.52915,-0.26459 -0.10398,-0.16823 0.63225,-0.26458 2.02167,-0.26458 1.54142,0 2.10244,-0.0827 1.9043,-0.2809 -0.15449,-0.15449 -1.24607,-0.27878 -2.42572,-0.27618 -1.17965,0.003 -2.21518,-0.10913 -2.30118,-0.24827 -0.0948,-0.15339 0.73513,-0.25298 2.10823,-0.25298 1.33332,0 2.26457,-0.1088 2.26457,-0.26459 0,-0.15782 -1.01424,-0.26458 -2.51354,-0.26458 -1.38245,0 -2.51354,-0.10411 -2.51354,-0.23136 0,-0.12725 1.08729,-0.16937 2.41619,-0.0936 1.99347,0.11366 2.39423,0.0731 2.29063,-0.23166 -0.1241,-0.36508 -0.40856,-0.39874 -3.97922,-0.47095 -0.83674,-0.0169 -1.52135,-0.13171 -1.52135,-0.25509 0,-0.12337 1.19062,-0.16699 2.64583,-0.0969 1.87044,0.0901 2.64583,0.0395 2.64583,-0.17255 0,-0.20538 -0.91771,-0.29996 -2.91041,-0.29996 -1.96154,0 -2.91042,-0.096 -2.91042,-0.29459 0,-0.20423 0.85219,-0.26305 2.77813,-0.19176 2.12922,0.0788 2.77812,0.024 2.77812,-0.23457 0,-0.25341 -0.73775,-0.33742 -2.96333,-0.33742 -1.85043,0 -2.86894,-0.0934 -2.71198,-0.24859 0.27625,-0.27321 6.10003,-0.47322 6.355,-0.21825 0.0872,0.0872 0.22079,0.67441 0.29685,1.30489 0.27546,2.28325 2.3357,5.63928 3.98822,6.49662 0.98953,0.51338 1.29107,0.42079 1.91441,-0.58779 0.49312,-0.7979 0.71275,-0.92604 1.58714,-0.92604 0.55815,0 1.57034,0.23812 2.24932,0.52916 1.88341,0.80733 2.45376,0.71999 2.66541,-0.40817 0.16541,-0.88172 0.22636,-0.92932 1.02697,-0.80208 0.84317,0.134 1.29899,0.25616 2.19459,0.58814 0.25467,0.0944 0.74426,0.14366 1.08799,0.10947 0.42059,-0.0418 0.58698,0.0535 0.50879,0.29139 -0.0639,0.19445 -0.52372,0.38374 -1.02184,0.42065 -1.98806,0.14731 -4.03105,0.44083 -4.03105,0.68101 0,0.14613 1.71873,0.1486 2.87403,0.0966 1.09868,-0.0495 2.04926,-0.006 2.11239,0.0958 0.0631,0.10215 -2.45779,0.27342 -5.60205,0.3806 -3.14426,0.10718 -6.11564,0.25259 -5.9361,0.36356 0.17955,0.11096 1.0971,0.176 1.37203,0.10407 0.27493,-0.0719 0.49988,0.002 0.49988,0.16472 0,0.1625 -0.38696,0.29707 -0.8599,0.29906 -0.47294,0.002 -1.09802,0.0608 -1.38906,0.13058 -0.32024,0.0769 -0.84256,-0.13299 -1.32292,-0.53146 z m 2.2289,-0.91942 c -0.20699,0.12072 3.22142,0.12688 4.13031,0.0243 3.02921,-0.34193 -3.05892,-0.64913 -4.13031,-0.0243 z m 1.65166,-1.06454 c -0.46082,0 -0.83785,0.12134 -0.83785,0.26963 0,0.23729 2.12336,0.13978 1.79931,-0.081 -0.28454,-0.19388 -0.62127,-0.18487 -0.96146,-0.18863 z m 7.2951,-0.1573 c -0.24905,-0.24906 -1.79938,-0.29473 -1.9461,-0.0573 -0.073,0.11806 0.37046,0.21465 0.98538,0.21465 0.61493,0 1.04725,-0.0708 0.96072,-0.15732 z m -7.3392,2.22904 c 0,-0.1208 2.29195,-0.21023 5.09323,-0.19874 2.80128,0.0115 4.97417,0.0632 4.82865,0.11497 -0.58737,0.20886 -9.92188,0.28767 -9.92188,0.0838 z m 10.53372,-1.19412 c 0.191,-0.0764 0.4192,-0.067 0.50712,0.0209 0.0879,0.0879 -0.0684,0.15045 -0.34726,0.13896 -0.30823,-0.0127 -0.37092,-0.0754 -0.15986,-0.15985 z m -0.34726,-0.88414 c -0.38793,-0.1619 -0.18195,-0.22581 0.7717,-0.23944 0.71548,-0.0102 1.25126,0.0242 1.19062,0.0765 -0.30051,0.25916 -1.4943,0.3583 -1.96232,0.16297 z m -0.94858,-1.11793 c -0.16816,-0.32743 -0.77149,-1.01204 -1.34073,-1.52136 -0.91338,-0.81723 -1.05734,-1.11183 -1.22525,-2.50729 -0.16577,-1.37759 -0.27542,-1.60756 -0.8514,-1.78559 -0.36362,-0.1124 -1.52877,-0.45558 -2.58922,-0.76263 -1.06046,-0.30705 -2.08526,-0.71543 -2.27734,-0.90751 -0.28926,-0.28926 -0.58655,-0.23929 -1.73107,0.29098 -0.76002,0.35212 -2.11647,0.76011 -3.01434,0.90664 -1.8451,0.30112 -10.1691,0.0533 -10.39328,-0.30948 -0.0782,-0.12647 0.74113,-0.16603 1.82477,-0.0881 2.76157,0.19854 8.935,-0.28169 10.15064,-0.78962 0.54964,-0.22965 1.22449,-0.62137 1.49966,-0.87048 0.42608,-0.38573 1.15377,-0.45858 4.90448,-0.49104 4.7029,-0.0407 4.64683,0.0603 -0.22605,0.40733 l -3.04271,0.21667 3.96875,0.0751 3.96875,0.0751 -2.88219,0.22112 c -1.58521,0.12162 -2.94451,0.28343 -3.02066,0.35958 -0.0762,0.0762 1.28036,0.15034 3.01448,0.16484 1.98886,0.0166 2.90874,0.10459 2.4915,0.23821 -0.36381,0.11651 -1.18732,0.22371 -1.83004,0.23821 -0.64271,0.0145 -1.08232,0.11263 -0.97689,0.21806 0.10543,0.10543 0.94723,0.15775 1.87067,0.11628 0.98012,-0.044 1.75117,0.0414 1.8524,0.20519 0.11246,0.18196 -0.2477,0.28059 -1.02452,0.28059 -0.91107,0 -1.16431,0.0876 -1.05752,0.36592 0.086,0.22418 0.55479,0.37163 1.21022,0.38067 0.58839,0.008 1.13663,0.0816 1.2183,0.16326 0.0817,0.0817 -0.40714,0.14849 -1.08623,0.14849 -0.81517,0 -1.23473,0.11303 -1.23473,0.33263 0,0.23287 0.36443,0.30366 1.21497,0.23601 0.66986,-0.0533 1.34649,0.0349 1.50812,0.19653 0.21449,0.21449 -0.11154,0.29316 -1.21496,0.29316 -0.82947,0 -1.50813,0.11906 -1.50813,0.26458 0,0.147 0.70556,0.26459 1.5875,0.26459 0.88195,0 1.5875,0.11759 1.5875,0.26458 0,0.14552 -0.60234,0.26458 -1.33853,0.26458 -0.73619,0 -1.27703,0.0995 -1.20186,0.22114 0.0752,0.12163 0.79657,0.16642 1.60312,0.0995 0.9811,-0.0814 1.46644,-0.0232 1.46644,0.17574 0,0.17667 -0.56376,0.3154 -1.38906,0.34182 l -1.38906,0.0445 1.5875,0.17563 c 1.40316,0.15523 1.45693,0.18079 0.46302,0.2201 -1.60981,0.0637 -1.39218,0.56641 0.26458,0.61119 1.35952,0.0367 1.36656,0.041 0.33073,0.19844 -0.90037,0.13688 -1.04893,0.24975 -0.99531,0.75621 0.0347,0.32742 -0.0504,0.59531 -0.18913,0.59531 -0.13868,0 -0.38974,-0.26789 -0.55789,-0.59531 z m 1.48172,0.0597 c 0.0921,-0.14905 0.45183,-0.23293 0.79936,-0.18639 1.05589,0.1414 1.06894,0.4574 0.0189,0.4574 -0.60539,0 -0.92113,-0.10457 -0.81826,-0.27101 z m -24.8538,-7.43589 c 0.0784,-0.12683 0.91642,-0.2306 1.86231,-0.2306 1.09119,0 1.65938,0.0977 1.55453,0.2674 -0.0909,0.14706 -0.92893,0.25083 -1.86231,0.23059 -0.93337,-0.0202 -1.63291,-0.14057 -1.55453,-0.26739 z m 3.55087,-1.03121 c 3.24769,-0.27368 9.94769,-0.25628 8.59896,0.0223 -0.58209,0.12024 -3.26099,0.20705 -5.95313,0.1929 -4.0198,-0.0211 -4.49277,-0.0596 -2.64583,-0.21523 z m 0.66146,-1.03227 c 0.48648,-0.19517 17.4452,-0.57517 17.25671,-0.38668 -0.20604,0.20604 -3.7903,0.36966 -10.50984,0.47975 -4.00182,0.0656 -7.03792,0.0237 -6.74687,-0.0931 z m 2.56183,-1.21402 c 0.18881,-0.18881 13.19313,-0.20403 13.3815,-0.0157 0.0837,0.0837 -2.92363,0.15215 -6.68292,0.15215 -3.75929,0 -6.77365,-0.0614 -6.69858,-0.13649 z"
       id="path44-5"
       sodipodi:nodetypes="sssssssssssssssssssssssssssssssssssssscssssssssssssssssssssssscssssccssssscssssssssssssssssssssssssssssssscssssscssssssssssssssscsssssssssssssssssssssssssscccsssssssssscsssssssssssssscsssssssssssssssssssssssssssssssss" />
  </g>
</svg>
