<?xml version="1.0" encoding="UTF-8" standalone="no"?>
<!-- Created with Inkscape (http://www.inkscape.org/) -->

<svg
   width="14.181448mm"
   height="12.361428mm"
   viewBox="0 0 14.181448 12.361428"
   version="1.1"
   id="svg1"
   inkscape:version="1.4.2 (2aeb623e1d, 2025-05-12)"
   sodipodi:docname="isle6.svg"
   xmlns:inkscape="http://www.inkscape.org/namespaces/inkscape"
   xmlns:sodipodi="http://sodipodi.sourceforge.net/DTD/sodipodi-0.dtd"
   xmlns="http://www.w3.org/2000/svg"
   xmlns:svg="http://www.w3.org/2000/svg">
  <sodipodi:namedview
     id="namedview1"
     pagecolor="#ffffff"
     bordercolor="#000000"
     borderopacity="0.25"
     inkscape:showpageshadow="2"
     inkscape:pageopacity="0.0"
     inkscape:pagecheckerboard="0"
     inkscape:deskcolor="#d1d1d1"
     inkscape:document-units="mm"
     inkscape:zoom="0.7349537"
     inkscape:cx="427.2378"
     inkscape:cy="440.16378"
     inkscape:window-width="1854"
     inkscape:window-height="1011"
     inkscape:window-x="0"
     inkscape:window-y="0"
     inkscape:window-maximized="1"
     inkscape:current-layer="layer1" />
  <defs
     id="defs1" />
  <g
     inkscape:label="Layer 1"
     inkscape:groupmode="layer"
     id="layer1"
     transform="translate(7.9374968,-32.014573)">
    <path
       style="fill:#000000"
       d="m 0.80232,44.23868 c -0.73984,-0.15878 2.01771,-0.37677 3.91761,-0.30969 0.40018,0.0141 0.7276,-0.0996 0.7276,-0.25264 0,-0.18891 -1.10833,-0.2253 -3.45017,-0.11329 -2.20245,0.10535 -3.39286,0.0723 -3.29168,-0.0914 0.0913,-0.1477 1.75068,-0.24759 3.91319,-0.23556 2.06509,0.0115 3.6009,0.0826 3.41293,0.15802 -0.26245,0.1053 -0.27028,0.22328 -0.0337,0.50828 0.36516,0.43999 0.43649,0.42572 -2.35146,0.47036 C 2.5106,44.39096 1.23068,44.33066 0.80237,44.2387 Z M -5.2681,42.70834 c 1.3763,-0.29778 11.50938,-0.4997 11.50938,-0.22935 0,0.11387 -0.92274,0.20743 -2.05052,0.20792 -1.12779,4.8e-4 -3.95552,0.057 -6.28386,0.12565 -2.72008,0.0802 -3.85502,0.0429 -3.175,-0.10422 z m -1.19062,-0.80878 c 0,-0.17298 1.41956,-0.27863 3.9026,-0.29047 2.14644,-0.0102 4.14073,-0.12092 4.43177,-0.24598 0.32389,-0.13918 -1.25849,-0.23461 -4.07899,-0.24599 -2.53449,-0.0102 -4.5511,-0.0757 -4.48136,-0.1454 0.0697,-0.0697 1.26299,-0.14137 2.65166,-0.15916 1.38866,-0.0178 2.6909,-0.14904 2.89385,-0.29163 0.24529,-0.17234 -0.62515,-0.20998 -2.59617,-0.11227 -1.8053,0.0895 -3.02749,0.0462 -3.12447,-0.11073 -0.0983,-0.15912 0.65661,-0.25774 1.97299,-0.25774 2.93305,0 2.77131,-0.51466 -0.18282,-0.58174 l -2.3151,-0.0526 1.91823,-0.0913 c 1.05502,-0.0502 1.91823,-0.20015 1.91823,-0.33317 0,-0.13303 -0.92274,-0.27768 -2.05052,-0.32146 l -2.05053,-0.0796 1.66256,-0.2313 c 2.0489,-0.28506 1.89948,-0.58964 -0.2291,-0.46703 -1.01045,0.0582 -1.56575,-0.0123 -1.56575,-0.19874 0,-0.17077 0.54738,-0.28892 1.33853,-0.28892 0.82498,0 1.2758,-0.10152 1.17501,-0.26459 -0.0899,-0.14552 -0.77165,-0.26458 -1.51492,-0.26458 -1.74923,0 -1.4202,-0.34586 0.37741,-0.39671 0.83974,-0.0238 1.41406,-0.16834 1.48234,-0.37317 0.0842,-0.2527 -0.22155,-0.29846 -1.25171,-0.18732 -0.84897,0.0916 -1.30341,0.0503 -1.20472,-0.10932 0.0872,-0.14102 0.74675,-0.2564 1.46576,-0.2564 0.71902,0 1.3073,-0.11906 1.3073,-0.26458 0,-0.14552 -0.381,-0.26458 -0.84666,-0.26458 -0.60115,0 -0.76461,-0.0821 -0.56368,-0.28299 0.15564,-0.15564 2.11422,-0.38839 4.35239,-0.51722 2.23818,-0.12883 4.93261,-0.31624 5.98764,-0.41647 1.31832,-0.12524 1.91823,-0.0921 1.91823,0.10585 0,0.15845 -0.56555,0.33268 -1.25677,0.38718 l -1.25677,0.0991 1.25677,0.0477 c 1.35514,0.0514 1.77688,0.57686 0.46302,0.57686 -0.43656,0 -0.79375,0.0992 -0.79375,0.22048 0,0.43296 0.32863,0.53582 0.95325,0.29834 0.49846,-0.18952 0.63425,-0.15424 0.63425,0.1648 0,0.22327 -0.11084,0.33744 -0.2463,0.25372 -0.13547,-0.0837 -0.32109,-0.0312 -0.41249,0.11667 -0.0914,0.1479 0.0194,0.2689 0.2463,0.2689 0.22687,0 0.41249,0.1786 0.41249,0.39688 0,0.22048 -0.23519,0.39687 -0.52917,0.39687 -0.29104,0 -0.52916,0.11907 -0.52916,0.26459 0,0.14552 0.23812,0.26458 0.52916,0.26458 0.86701,0 0.59968,0.48689 -0.33073,0.60235 l -0.85989,0.10671 0.85989,0.0423 c 1.32474,0.0652 1.01792,0.57151 -0.34634,0.57151 -0.73852,0 -1.1427,0.10281 -1.04236,0.26515 0.0943,0.15262 0.60629,0.19442 1.20624,0.0985 0.69579,-0.11126 1.04236,-0.0675 1.04236,0.13172 0,0.16464 -0.41511,0.2984 -0.92604,0.2984 -0.50933,0 -0.92604,0.11906 -0.92604,0.26458 0,0.2836 0.31069,0.35157 1.25677,0.27494 0.32742,-0.0265 0.59531,0.0794 0.59531,0.23529 0,0.15594 -0.29766,0.28352 -0.66146,0.28352 -0.3638,0 -0.66146,0.11906 -0.66146,0.26458 0,0.14552 0.29766,0.26459 0.66146,0.26459 0.3638,0 0.66146,0.11906 0.66146,0.26458 0,0.16444 -1.62728,0.27465 -4.29948,0.29119 -2.36471,0.0146 -5.22221,0.0774 -6.35,0.13958 -1.30058,0.0717 -2.05052,0.0135 -2.05052,-0.1589 z m 10.31875,-1.6192 c 0,-0.30447 -0.23813,-0.85631 -0.52917,-1.22631 -0.81865,-1.04074 -0.68424,-1.39511 0.52917,-1.39511 1.19871,0 1.18523,0.0221 0.69756,-1.14504 -0.63268,-1.51419 -1.2903,-1.74303 -4.67946,-1.62832 -2.53081,0.0857 -3.11348,0.18786 -3.74877,0.65756 l -0.75221,0.55613 0.53727,0.75453 c 0.2955,0.415 0.53728,0.87079 0.53728,1.01288 0,0.3458 2.34484,1.50929 4.6302,2.29747 2.34104,0.80738 2.77813,0.82566 2.77813,0.11621 z M -4.7868,33.25299 c 0.24278,-0.24278 11.02797,-0.26803 11.02803,-0.0258 3e-5,0.10914 -2.52011,0.19844 -5.6003,0.19844 -3.08019,0 -5.52267,-0.0777 -5.42773,-0.17262 z m 0.44475,-0.89874 c 0,-0.31068 1.8512,-0.39683 6.54843,-0.30477 2.2192,0.0435 4.0349,0.18194 4.0349,0.30766 0,0.12571 -2.38125,0.22657 -5.29167,0.22412 -2.91041,-0.002 -5.29166,-0.10461 -5.29166,-0.22701 z"
       id="path42" />
  </g>
</svg>
