<?xml version="1.0" encoding="UTF-8" standalone="no"?>
<!-- Created with Inkscape (http://www.inkscape.org/) -->

<svg
   width="29.750883mm"
   height="15.342953mm"
   viewBox="0 0 29.750883 15.342953"
   version="1.1"
   id="svg1"
   inkscape:version="1.4.2 (2aeb623e1d, 2025-05-12)"
   sodipodi:docname="isle1.svg"
   xmlns:inkscape="http://www.inkscape.org/namespaces/inkscape"
   xmlns:sodipodi="http://sodipodi.sourceforge.net/DTD/sodipodi-0.dtd"
   xmlns="http://www.w3.org/2000/svg"
   xmlns:svg="http://www.w3.org/2000/svg">
  <sodipodi:namedview
     id="namedview1"
     pagecolor="#ffffff"
     bordercolor="#000000"
     borderopacity="0.25"
     inkscape:showpageshadow="2"
     inkscape:pageopacity="0.0"
     inkscape:pagecheckerboard="0"
     inkscape:deskcolor="#d1d1d1"
     inkscape:document-units="mm"
     inkscape:zoom="0.7349537"
     inkscape:cx="259.88031"
     inkscape:cy="485.06457"
     inkscape:window-width="1854"
     inkscape:window-height="1011"
     inkscape:window-x="0"
     inkscape:window-y="0"
     inkscape:window-maximized="1"
     inkscape:current-layer="layer1" />
  <defs
     id="defs1" />
  <g
     inkscape:label="Layer 1"
     inkscape:groupmode="layer"
     id="layer1"
     transform="translate(-36.512496,-20.10833)">
    <path
       style="fill:#000000"
       d="m 47.48529,35.3113 c -1.73974,-0.17389 -2.64584,-0.37579 -2.64584,-0.58955 0,-0.20343 4.23402,0.4147 4.47222,0.6529 0.1147,0.1147 -0.12988,0.10622 -1.82638,-0.0634 z m -5.42396,-0.6165 c -0.7276,-0.0998 -1.14432,-0.21169 -0.92604,-0.24865 0.71487,-0.12105 2.44818,0.0255 3.01588,0.25495 0.51924,0.20988 0.51227,0.2231 -0.10547,0.19994 -0.3638,-0.0136 -1.25677,-0.10645 -1.98437,-0.20624 z m 8.06979,-0.29473 c -1.25421,-0.24939 -3.32359,-0.41213 -5.93107,-0.46643 -0.861,-0.0179 -1.48686,-0.11119 -1.39079,-0.20726 0.41078,-0.41077 8.525,0.24224 9.02842,0.72659 0.2986,0.28728 -0.0501,0.27647 -1.70656,-0.0529 z m -8.33437,-0.76361 c -0.50492,-0.21697 -0.50189,-0.22824 0.0661,-0.24598 0.32742,-0.0102 0.59531,0.10046 0.59531,0.24598 0,0.14553 -0.0298,0.25622 -0.0661,0.24599 -0.0364,-0.0102 -0.30427,-0.12092 -0.59531,-0.24599 z m 11.73387,0.13631 c -0.17209,-0.17209 -8.06917,-0.8776 -11.8581,-1.05938 -1.66906,-0.0801 -3.15139,-0.26233 -3.29407,-0.40501 -0.31702,-0.31702 -0.3222,-0.31701 3.55059,-0.009 1.67349,0.133 4.1738,0.3182 5.55625,0.41156 1.38245,0.0934 3.27659,0.27401 4.2092,0.40145 0.93261,0.12744 1.76605,0.22391 1.85208,0.21438 0.64406,-0.0713 1.34705,0.0904 1.34705,0.30992 0,0.26518 -1.12193,0.37738 -1.363,0.13631 z M 39.48164,33.44974 c 0.32742,-0.0631 0.86321,-0.0631 1.19063,0 0.32742,0.0631 0.0595,0.11466 -0.59532,0.11466 -0.65484,0 -0.92273,-0.0516 -0.59531,-0.11466 z m 9.98802,-1.0792 c -2.03729,-0.19607 -4.12277,-0.47756 -4.63441,-0.62552 -0.82841,-0.23958 -2.09112,-0.39024 -3.8984,-0.46514 -0.32742,-0.0136 -0.59558,-0.11396 -0.59591,-0.2231 -3.3e-4,-0.10914 0.85656,-0.15799 1.9042,-0.10854 1.7164,0.081 1.87026,0.0483 1.5557,-0.33073 -0.26088,-0.31433 -0.83842,-0.42063 -2.28546,-0.42063 -1.065,0 -2.00321,-0.10816 -2.08492,-0.24036 -0.0864,-0.13982 0.68187,-0.19071 1.83647,-0.12166 2.49785,0.14937 2.66517,-0.32365 0.19909,-0.5628 -2.4891,-0.24139 -2.62364,-0.35216 -0.46302,-0.38126 1.01864,-0.0137 2.03067,-0.14035 2.24895,-0.28142 0.28705,-0.1855 0.0491,-0.2576 -0.85989,-0.26053 -0.69122,-0.002 -1.25677,-0.11265 -1.25677,-0.24538 0,-0.13273 0.58291,-0.18358 1.29537,-0.11299 0.77495,0.0768 1.36586,0.0143 1.47082,-0.15554 0.11625,-0.1881 -0.29853,-0.28726 -1.22922,-0.29388 -1.55399,-0.0111 -3.44855,-0.23877 -3.65364,-0.43914 -0.0728,-0.0711 1.11787,-0.0451 2.64583,0.0579 4.03685,0.27191 3.0607,-0.26658 -1.18733,-0.65499 -1.88996,-0.17281 -3.49354,-0.37144 -3.56352,-0.44142 -0.07,-0.07 1.41683,-0.0477 3.304,0.0496 2.89644,0.14926 3.37762,0.12046 3.08727,-0.18475 -0.18918,-0.19886 -0.78449,-0.37381 -1.32292,-0.38878 -4.22006,-0.11729 -5.34458,-0.20774 -5.34458,-0.42986 0,-0.15755 1.16705,-0.19785 3.05337,-0.10543 1.94298,0.0952 2.9957,0.0563 2.8948,-0.10697 -0.0872,-0.14111 -0.65755,-0.26494 -1.26743,-0.27516 -0.60987,-0.0102 -1.34699,-0.12705 -1.63803,-0.25961 -0.43385,-0.19759 -0.36236,-0.23708 0.39687,-0.21918 1.45066,0.0342 1.85209,-0.0163 1.85209,-0.23278 0,-0.11055 -0.32742,-0.20556 -0.72761,-0.21113 -2.48536,-0.0346 -3.77031,-0.14216 -3.77035,-0.31548 -2e-5,-0.10914 1.01201,-0.15645 2.24896,-0.10514 1.87731,0.0779 2.249,0.0268 2.249,-0.30909 0,-0.22131 0.0611,-0.56095 0.13589,-0.75475 0.10877,-0.28203 -0.37982,-0.33567 -2.44739,-0.26868 -3.84235,0.12448 -2.75789,-0.40393 1.25316,-0.61062 4.63496,-0.23884 10.07317,-0.26567 16.40417,-0.0809 2.98318,0.087 6.17184,0.17013 7.08591,0.18463 1.2365,0.0196 1.70206,0.13088 1.81862,0.43465 0.0862,0.22455 0.10997,0.45499 0.0529,0.51207 -0.0571,0.0571 -0.935,0.002 -1.95092,-0.12199 -1.01592,-0.12417 -3.21634,-0.29537 -4.88983,-0.38043 -1.67349,-0.0851 -4.1738,-0.21335 -5.55625,-0.28509 -7.76239,-0.4028 -8.58645,-0.42067 -8.33438,-0.1808 0.14552,0.13848 2.52677,0.33438 5.29167,0.43532 5.37608,0.19628 8.7843,0.49874 9.07876,0.80569 0.0999,0.10415 -0.53272,0.11799 -1.40584,0.0308 -3.16203,-0.31591 -4.72964,-0.27584 -4.48826,0.11472 0.0952,0.15412 0.42969,0.26 0.74321,0.2353 0.31353,-0.0247 1.12445,-0.0317 1.80205,-0.0156 1.09538,0.026 1.21665,0.088 1.09362,0.55846 -0.0761,0.29104 -0.0352,0.53375 0.0909,0.53935 1.70976,0.0759 3.93413,0.3779 4.9918,0.67763 l 1.32292,0.3749 -1.5875,-0.14213 c -4.31415,-0.38624 -6.28401,-0.44816 -6.12605,-0.19257 0.16618,0.26887 4.23358,0.75201 5.46459,0.6491 0.71119,-0.0595 1.54562,0.34046 1.27501,0.61107 -0.0907,0.0907 -0.85324,0.0376 -1.69458,-0.1179 -1.85513,-0.34294 -4.2582,-0.36935 -4.45621,-0.049 -0.0795,0.1286 0.71717,0.31534 1.77032,0.41498 1.05316,0.0996 2.33155,0.28847 2.84087,0.41963 0.67505,0.17384 0.42405,0.19497 -0.92604,0.0779 -2.38791,-0.20697 -4.43064,-0.12452 -4.74927,0.19168 -0.15807,0.15687 -0.0599,0.25385 0.26459,0.26131 0.77549,0.0178 3.27508,0.24157 4.58275,0.41018 0.71841,0.0926 1.06258,0.24294 0.90869,0.39683 -0.15389,0.15389 -0.99272,0.14791 -2.21474,-0.0158 -2.24197,-0.30032 -3.27164,-0.36269 -5.12879,-0.31064 -1.59946,0.0448 -1.33234,0.48712 0.38365,0.63524 0.79026,0.0682 0.50112,0.11832 -0.8599,0.149 -1.15981,0.0261 -2.05052,0.16115 -2.05052,0.3108 0,0.14553 0.20836,0.26694 0.46302,0.26982 1.09762,0.0124 8.09627,0.79295 8.22011,0.91678 0.28682,0.28682 -0.14168,0.31247 -1.80396,0.108 -0.94589,-0.11635 -2.82417,-0.29431 -4.17396,-0.39547 -2.04599,-0.15334 -2.43055,-0.12239 -2.31218,0.18608 0.0781,0.2035 0.46809,0.37519 0.86667,0.38154 2.3776,0.0378 6.14863,0.59029 6.14863,0.90076 0,0.10158 -0.92273,0.0335 -2.05052,-0.15134 -2.4558,-0.40246 -4.56406,-0.45721 -4.56406,-0.11854 0,0.13505 0.62508,0.31543 1.38906,0.40084 1.9677,0.21999 3.44882,0.37113 3.85208,0.39309 0.19049,0.0104 0.28125,0.12418 0.20169,0.25291 -0.14433,0.23353 -1.18221,0.21382 -3.88275,-0.0738 -2.62618,-0.27964 -6.19188,-0.47376 -6.04903,-0.32931 0.0777,0.0786 1.50644,0.2792 3.175,0.44587 1.66856,0.16666 3.50999,0.40133 4.09208,0.52148 0.97983,0.20225 0.94059,0.21571 -0.52917,0.18138 -0.87313,-0.0204 -3.25438,-0.19749 -5.29167,-0.39356 z m -1.94918,-1.26581 c 0.63163,-0.32663 0.9755,-0.35482 1.61384,-0.1323 0.44615,0.15553 1.34051,0.28278 1.98747,0.28278 h 1.17628 l -0.6866,-1.17159 c -0.37763,-0.64438 -0.6866,-1.33229 -0.6866,-1.5287 0,-0.5922 1.00979,-1.26742 1.92125,-1.28469 0.47128,-0.009 1.42989,-0.27682 2.13023,-0.59532 l 1.27335,-0.57907 -1.28208,-1.42868 c -1.20779,-1.34589 -1.36697,-1.43572 -2.747,-1.55016 -1.13527,-0.0942 -1.56496,-0.0214 -1.9095,0.3231 -0.24452,0.24452 -0.44458,0.3245 -0.44458,0.17773 0,-0.15614 -0.37631,-0.20578 -0.90706,-0.11965 -0.65543,0.10636 -1.11416,10e-4 -1.65364,-0.3788 -0.41063,-0.28929 -1.01448,-0.60917 -1.34191,-0.71082 -0.32742,-0.10166 -0.59531,-0.29588 -0.59531,-0.43159 0,-0.13572 -0.51667,-0.24676 -1.14815,-0.24676 -0.93456,0 -1.19822,0.11075 -1.41725,0.59532 -0.44597,0.98662 -0.1265,1.85847 1.11832,3.05193 1.36433,1.30802 1.52919,2.16321 0.52104,2.70275 -1.14772,0.61425 -0.60575,2.38475 0.92604,3.02516 1.18051,0.49355 1.19621,0.49354 2.15186,-6.4e-4 z m 9.42515,-7.32399 c -0.0598,-0.18191 -0.63529,-0.36802 -1.27882,-0.41358 -0.75716,-0.0536 -1.0767,0.007 -0.90548,0.17275 0.5532,0.53443 2.34584,0.73207 2.1843,0.24083 z m -6.28534,-1.25678 c 0,-0.1515 -0.70674,-0.2512 -1.65365,-0.23327 -1.31627,0.0249 -1.49171,0.0725 -0.85989,0.23327 1.18208,0.3008 2.51354,0.3008 2.51354,0 z m -13.00144,7.17213 c 0.32835,-0.20804 1.35977,-0.10581 1.35977,0.13477 0,0.0558 -0.38695,0.0996 -0.85989,0.0974 -0.58464,-0.003 -0.74465,-0.0771 -0.49988,-0.23216 z m 19.88714,-0.82813 c -0.50573,-0.11895 -1.01174,-0.15927 -1.12448,-0.0896 -0.11273,0.0697 -0.20497,-0.005 -0.20497,-0.1655 0,-0.18187 0.32466,-0.23953 0.85989,-0.15271 0.47295,0.0767 1.56858,0.20539 2.43474,0.28596 0.86617,0.0806 1.63015,0.20179 1.69775,0.26939 0.2017,0.2017 -2.66985,0.086 -3.66293,-0.14754 z M 37.06486,27.81132 c 0.17623,-0.17622 0.90033,-0.18774 2.10344,-0.0335 l 1.8347,0.23527 -2.10344,0.0335 c -1.42398,0.0226 -2.01663,-0.0533 -1.8347,-0.23528 z m 0.3032,-0.71213 c 0.32912,-0.0633 0.80537,-0.0609 1.05833,0.005 0.25297,0.0662 -0.0163,0.11801 -0.59839,0.11507 -0.58209,-0.003 -0.78906,-0.0571 -0.45994,-0.1204 z m -0.73069,-2.98737 c 0,-0.27847 2.01085,-0.19452 2.30145,0.0961 0.0924,0.0924 -0.38763,0.16799 -1.06673,0.16799 -0.67909,0 -1.23472,-0.11884 -1.23472,-0.26408 z M 63.228,24.09152 c -0.72761,-0.12185 -2.21589,-0.32987 -3.3073,-0.46227 -1.80769,-0.21928 -1.86658,-0.24402 -0.66145,-0.27793 1.6581,-0.0466 5.42395,0.51282 5.42395,0.8058 0,0.12035 -0.0298,0.20466 -0.0661,0.18738 -0.0364,-0.0173 -0.66146,-0.13113 -1.38906,-0.25298 z m 0.66145,-1.03851 c -1.35525,-0.2107 -1.16728,-0.33818 0.39688,-0.26915 0.58208,0.0257 1.17144,0.15629 1.30969,0.29022 0.27627,0.26766 0.13973,0.26597 -1.70657,-0.0211 z M 60.97904,22.78843 60.053,22.5935 61.17748,22.5587 c 0.61846,-0.0192 1.12447,0.0842 1.12447,0.22976 0,0.14552 -0.0893,0.24891 -0.19843,0.22975 -0.10914,-0.0192 -0.61516,-0.12254 -1.12448,-0.22975 z M 36.53935,22.51604 c 0.18214,-0.18215 1.09815,-0.19407 2.76489,-0.036 l 2.49251,0.23642 -2.7649,0.036 c -1.89609,0.0247 -2.6793,-0.0496 -2.4925,-0.23642 z m 1.15636,-1.75412 c 0,-0.13627 0.32742,-0.24908 0.7276,-0.25068 0.40018,-0.002 1.91823,-0.10439 3.37344,-0.22843 3.2059,-0.27327 12.1623,-0.21446 15.08125,0.099 1.69095,0.1816 0.89274,0.22749 -3.96875,0.22817 -3.34698,4.7e-4 -8.13925,0.0906 -10.64948,0.20028 -2.80178,0.12242 -4.56406,0.10375 -4.56406,-0.0484 z"
       id="path26"
       sodipodi:nodetypes="sssssssssssssssssssscsscssssccsssssssssssssssscssssscssssssssssssssssssssssscssssscsssssscsssssssssssssssssssssssssssssssssssssssscsssscssssscsssssssssscssssssscsssssssssssccssccsccssssssssssssssssscccssscsscssscssssss" />
  </g>
</svg>
