<?xml version="1.0" encoding="UTF-8" standalone="no"?>
<!-- Created with Inkscape (http://www.inkscape.org/) -->

<svg
   width="24.091921mm"
   height="15.914171mm"
   viewBox="0 0 24.091921 15.914171"
   version="1.1"
   id="svg1"
   inkscape:version="1.4.2 (2aeb623e1d, 2025-05-12)"
   sodipodi:docname="isle10.svg"
   xmlns:inkscape="http://www.inkscape.org/namespaces/inkscape"
   xmlns:sodipodi="http://sodipodi.sourceforge.net/DTD/sodipodi-0.dtd"
   xmlns="http://www.w3.org/2000/svg"
   xmlns:svg="http://www.w3.org/2000/svg">
  <sodipodi:namedview
     id="namedview1"
     pagecolor="#ffffff"
     bordercolor="#000000"
     borderopacity="0.25"
     inkscape:showpageshadow="2"
     inkscape:pageopacity="0.0"
     inkscape:pagecheckerboard="0"
     inkscape:deskcolor="#d1d1d1"
     inkscape:document-units="mm"
     inkscape:zoom="0.7349537"
     inkscape:cx="265.32283"
     inkscape:cy="425.19685"
     inkscape:window-width="1854"
     inkscape:window-height="1011"
     inkscape:window-x="0"
     inkscape:window-y="0"
     inkscape:window-maximized="1"
     inkscape:current-layer="layer1" />
  <defs
     id="defs1" />
  <g
     inkscape:label="Layer 1"
     inkscape:groupmode="layer"
     id="layer1"
     transform="translate(-34.798748,-35.987916)">
    <path
       style="fill:#000000"
       d="m 44.0625,51.82706 c -2.18281,-0.0787 -3.4925,-0.18444 -2.91041,-0.23499 1.88121,-0.16337 7.05404,-0.15593 7.32344,0.0105 0.51091,0.3157 -0.48186,0.36619 -4.41303,0.22446 z m -4.60271,-1.16323 c 0.22367,-0.22366 6.83113,-0.32504 7.17011,-0.11001 0.18866,0.11968 -1.37346,0.21942 -3.47139,0.22165 -2.09792,0.002 -3.76235,-0.048 -3.69872,-0.11164 z m 6.71938,-0.56476 c -0.58208,-0.18546 -2.39779,-0.34636 -4.03489,-0.35755 -1.63711,-0.0112 -2.97657,-0.11051 -2.97657,-0.22073 0,-0.11022 0.97852,-0.15596 2.1745,-0.10165 1.97817,0.0898 2.14246,0.0601 1.81968,-0.32877 -0.43193,-0.52044 -0.36709,-0.52458 0.94818,-0.0605 0.57208,0.20184 1.74791,0.4102 2.61295,0.46302 l 1.57282,0.096 0.0829,-0.8599 c 0.0647,-0.6711 0.20993,-0.86652 0.66146,-0.89006 1.01911,-0.0531 2.10456,-0.20497 2.47122,-0.34567 0.54209,-0.20802 0.42514,-1.15619 -0.18274,-1.48152 -0.41161,-0.22029 -0.52641,-0.51956 -0.48564,-1.26608 0.0294,-0.53768 -0.0297,-1.23269 -0.13123,-1.54446 -0.23972,-0.73603 -1.53744,-1.27148 -2.48006,-1.02329 -1.16187,0.30592 -2.23677,0.24203 -3.37551,-0.20064 -0.90493,-0.35179 -1.089,-0.35728 -1.26991,-0.0379 -0.38814,0.68516 -0.76408,0.408 -0.58048,-0.42794 l 0.17603,-0.80145 -3.97752,0.13728 c -2.49134,0.086 -4.038,0.0394 -4.13937,-0.1246 -0.10298,-0.16662 0.92649,-0.26633 2.83033,-0.27414 7.44355,-0.0305 11.18881,0.0531 11.31845,0.25274 0.0772,0.11888 1.19238,0.24007 2.47815,0.26932 1.28576,0.0292 2.59545,0.16194 2.91041,0.29486 0.38258,0.16146 -0.4071,0.22171 -2.37907,0.18153 -1.62346,-0.0331 -2.89635,0.0292 -2.82866,0.13829 0.0677,0.10914 0.6816,0.19929 1.36424,0.20032 2.16934,0.003 4.81303,0.33011 4.81303,0.59499 0,0.14384 -0.37632,0.18821 -0.8599,0.1014 -0.47294,-0.0849 -1.68188,-0.23554 -2.68654,-0.33474 l -1.82664,-0.18036 0.56987,0.56987 c 0.31343,0.31343 0.56988,0.68894 0.56988,0.83446 0,0.15468 0.90669,0.26627 2.18281,0.26864 1.20055,0.002 2.3614,0.124 2.57969,0.27061 0.27856,0.1871 -0.33493,0.25386 -2.05804,0.22395 -1.3502,-0.0234 -2.53091,0.0334 -2.62379,0.12626 -0.0929,0.0929 0.41652,0.18065 1.132,0.19504 0.71548,0.0144 1.95571,0.12088 2.75608,0.23664 1.44746,0.20934 1.44394,0.21051 -0.66146,0.21972 -2.99728,0.0131 -3.04271,0.0178 -3.04271,0.31122 0,0.15959 1.10243,0.26459 2.77812,0.26459 1.52797,0 2.77813,0.10032 2.77813,0.22293 0,0.12261 -1.07156,0.19528 -2.38125,0.1615 -1.83293,-0.0473 -2.38125,0.0194 -2.38125,0.2896 0,0.25341 0.25752,0.30924 0.92604,0.20076 0.57385,-0.0931 0.92604,-0.0429 0.92604,0.13216 0,0.15534 -0.38695,0.32391 -0.85989,0.3746 -0.52095,0.0558 -0.0256,0.17642 1.25677,0.30591 4.13502,0.41757 4.93137,0.67125 1.65364,0.52678 -3.55301,-0.15661 -4.30542,0.25888 -0.99218,0.5479 1.18177,0.10309 2.11666,0.3071 2.11666,0.4619 0,0.16021 -0.25131,0.20734 -0.59531,0.11164 -1.26284,-0.35134 -7.25737,-0.51198 -7.45039,-0.19965 -0.13469,0.21793 0.3661,0.30355 1.77545,0.30355 2.47975,0 4.41817,0.26053 4.41817,0.59381 0,0.14152 -0.26789,0.19129 -0.59531,0.11061 -1.20835,-0.29775 -5.85994,-0.25637 -5.96308,0.053 -0.0552,0.16547 0.14776,0.30086 0.45092,0.30086 0.30317,0 0.55122,0.10341 0.55122,0.22979 0,0.34685 -2.63324,0.2669 -3.83646,-0.11649 z m 0.92604,-8.21139 c 0,-0.0572 -0.24515,-0.10399 -0.54478,-0.10399 -0.29963,0 -0.47441,0.11386 -0.3884,0.25303 0.14118,0.22844 0.93318,0.10195 0.93318,-0.14904 z m 1.80211,-0.75664 c -0.0453,-0.0372 -1.14636,-0.1461 -2.44686,-0.242 -2.36583,-0.17446 -2.97469,0.0668 -0.87919,0.34835 1.01126,0.13588 3.52312,0.0556 3.32605,-0.10635 z m 3.96912,9.20316 c 0.19099,-0.0764 0.4192,-0.067 0.50711,0.0209 0.0879,0.0879 -0.0684,0.15045 -0.34726,0.13896 -0.30823,-0.0127 -0.37092,-0.0754 -0.15985,-0.15985 z m 5.27513,-1.58199 c 0.1819,-0.0734 0.47955,-0.0734 0.66146,0 0.1819,0.0734 0.0331,0.13345 -0.33073,0.13345 -0.36381,0 -0.51263,-0.0601 -0.33073,-0.13345 z M 39.03542,48.09885 c -0.5199,-0.10947 -0.12656,-0.17793 1.14009,-0.19844 1.21463,-0.0197 1.87303,-0.1297 1.77033,-0.29589 -0.0899,-0.14552 -0.98993,-0.26458 -1.99999,-0.26458 -1.151,0 -1.83647,-0.10784 -1.83647,-0.2889 0,-0.17648 0.48908,-0.26616 1.25677,-0.23044 1.69718,0.0789 1.97769,0.0358 1.78594,-0.27441 -0.0899,-0.14552 -0.9304,-0.26458 -1.8677,-0.26458 -0.9373,0 -1.70439,-0.0893 -1.70466,-0.19844 -2.6e-4,-0.10914 0.71411,-0.1581 1.5875,-0.10879 1.02352,0.0578 1.58798,-0.0128 1.58798,-0.19844 0,-0.18028 -0.69302,-0.28808 -1.85208,-0.28808 -1.1739,0 -1.85208,-0.10689 -1.85208,-0.29191 0,-0.19113 0.43384,-0.24446 1.25677,-0.15446 0.69122,0.0756 1.49489,0.0367 1.78593,-0.0864 0.35881,-0.15175 -0.0884,-0.2298 -1.38906,-0.24241 -1.17559,-0.0114 -1.91823,-0.12829 -1.91823,-0.30195 0,-0.18776 0.66863,-0.23955 1.98188,-0.15351 1.09003,0.0714 2.03991,0.0359 2.11085,-0.0788 0.0709,-0.11478 -0.49348,-0.23053 -1.25427,-0.25721 -0.76079,-0.0267 -1.8595,-0.14765 -2.44158,-0.26882 -0.81325,-0.1693 -0.34202,-0.22736 2.0349,-0.25074 1.74199,-0.0171 3.16468,-0.14601 3.25676,-0.29501 0.10509,-0.17004 -0.9057,-0.27123 -2.82865,-0.28318 -1.6457,-0.0102 -3.2303,-0.12127 -3.52135,-0.24675 -0.33202,-0.14315 0.751,-0.22744 2.90708,-0.22625 1.88994,0.001 3.57429,0.11645 3.743,0.25647 0.49154,0.40794 0.13034,1.12893 -0.78054,1.55804 -1.07088,0.50449 -0.99611,1.04024 0.37347,2.67604 0.56817,0.67862 1.03304,1.31414 1.03304,1.41226 0,0.20607 -3.1894,0.0933 -4.36563,-0.15439 z m 15.83951,-1.47307 c 0.18823,-0.18823 2.59029,-0.12276 2.79157,0.0761 0.0606,0.0599 -0.58429,0.10891 -1.43316,0.10891 -0.84887,0 -1.46016,-0.0832 -1.35841,-0.18499 z M 36.125,41.61618 c 1.83627,-0.19161 6.48287,-0.21378 6.48259,-0.0309 -1.6e-4,0.10914 -1.6374,0.17939 -3.63832,0.1561 -2.00091,-0.0233 -3.28083,-0.0796 -2.84427,-0.12517 z m 16.1027,-1.339 c 0.193,-0.19301 2.31719,-0.13784 2.52049,0.0655 0.065,0.065 -0.51687,0.11813 -1.29298,0.11813 -0.77611,0 -1.32849,-0.0826 -1.22751,-0.18359 z m -1.61172,-0.26434 c 0.25743,-0.0671 0.61462,-0.0627 0.79375,0.01 0.17913,0.0725 -0.0315,0.12736 -0.46806,0.12197 -0.43656,-0.005 -0.58312,-0.0647 -0.32569,-0.13177 z M 40.09375,39.66702 c -3.05593,-0.0728 -5.43577,-0.21109 -5.28852,-0.3074 0.14724,-0.0963 2.29037,-0.1416 4.7625,-0.10064 2.47212,0.041 5.72219,0.09 7.22237,0.10897 1.61537,0.0204 2.66526,0.13534 2.57473,0.28182 -0.0841,0.13603 -0.9543,0.22533 -1.93384,0.19844 -0.97954,-0.0269 -4.2813,-0.10843 -7.33724,-0.18119 z M 50.4125,39.38236 c -0.62464,-0.14314 -0.48372,-0.18531 0.66146,-0.19795 0.80037,-0.009 1.93146,0.0861 2.51354,0.211 0.96508,0.20704 0.90679,0.22449 -0.66145,0.19795 -0.94589,-0.016 -2.07698,-0.11095 -2.51355,-0.211 z m -8.76756,-0.8031 c -2.93039,-0.0965 -5.53891,-0.29351 -5.79671,-0.43778 -0.31942,-0.17876 0.87215,-0.22844 3.74048,-0.15596 4.62383,0.11684 9.71569,0.37244 9.58447,0.48113 -0.27535,0.22807 -2.85206,0.26661 -7.52824,0.11261 z m 10.22277,0.0976 c -1.97745,-0.13385 -2.38114,-0.59842 -0.51593,-0.59374 1.63885,0.004 2.6326,0.21414 2.6326,0.55641 0,0.12855 -0.14883,0.2117 -0.33073,0.18478 -0.1819,-0.0269 -0.98557,-0.0933 -1.78594,-0.14745 z M 41.86415,37.5369 c -2.95534,-0.1067 -5.45565,-0.2787 -5.55625,-0.38222 -0.10059,-0.10352 2.07929,-0.12004 4.84419,-0.0367 2.76489,0.0833 5.80099,0.16353 6.74687,0.17825 1.21149,0.0189 1.56339,0.094 1.19063,0.25415 -0.29104,0.12506 -0.82683,0.21685 -1.19063,0.20397 -0.3638,-0.0129 -3.07946,-0.11073 -6.03481,-0.21743 z m 0.47856,-1.05932 c -0.97826,-0.10101 -0.0882,-0.18831 2.71579,-0.26635 4.37472,-0.12175 4.69255,-0.10008 4.69255,0.31991 0,0.26658 -4.63243,0.23309 -7.40834,-0.0536 z M 39.4323,36.22744 c -0.62671,-0.20071 -0.61629,-0.21322 0.19843,-0.23821 0.47295,-0.0145 0.8599,0.0927 0.8599,0.23821 0,0.29901 -0.12467,0.29901 -1.05833,0 z M 38.05977,36.0467 c 0.191,-0.0764 0.4192,-0.067 0.50712,0.0209 0.0879,0.0879 -0.0684,0.15045 -0.34727,0.13896 -0.30822,-0.0127 -0.37092,-0.0754 -0.15985,-0.15985 z"
       id="path45-1" />
  </g>
</svg>
