<?xml version="1.0" encoding="UTF-8" standalone="no"?>
<!-- Created with Inkscape (http://www.inkscape.org/) -->

<svg
   width="16.912363mm"
   height="13.163318mm"
   viewBox="0 0 16.912363 13.163318"
   version="1.1"
   id="svg1"
   inkscape:version="1.4.2 (2aeb623e1d, 2025-05-12)"
   sodipodi:docname="isle9.svg"
   xmlns:inkscape="http://www.inkscape.org/namespaces/inkscape"
   xmlns:sodipodi="http://sodipodi.sourceforge.net/DTD/sodipodi-0.dtd"
   xmlns="http://www.w3.org/2000/svg"
   xmlns:svg="http://www.w3.org/2000/svg">
  <sodipodi:namedview
     id="namedview1"
     pagecolor="#ffffff"
     bordercolor="#000000"
     borderopacity="0.25"
     inkscape:showpageshadow="2"
     inkscape:pageopacity="0.0"
     inkscape:pagecheckerboard="0"
     inkscape:deskcolor="#d1d1d1"
     inkscape:document-units="mm"
     inkscape:zoom="0.7349537"
     inkscape:cx="258.51969"
     inkscape:cy="460.57323"
     inkscape:window-width="1854"
     inkscape:window-height="1011"
     inkscape:window-x="0"
     inkscape:window-y="0"
     inkscape:window-maximized="1"
     inkscape:current-layer="layer1" />
  <defs
     id="defs1" />
  <g
     inkscape:label="Layer 1"
     inkscape:groupmode="layer"
     id="layer1"
     transform="translate(-36.580426,-26.78791)">
    <path
       style="fill:#000000"
       d="m 46.27784,39.74864 c -0.83951,-0.0847 -1.52412,-0.24326 -1.52135,-0.3524 0.007,-0.27228 0.0637,-0.27429 1.86056,-0.0657 0.87175,0.10118 1.65134,0.2913 1.73243,0.42251 0.0811,0.1312 -0.008,0.21853 -0.19891,0.19407 -0.19049,-0.0245 -1.03322,-0.11376 -1.87273,-0.19844 z m 0.20347,-1.34458 c -0.20695,-0.33486 0.1433,-0.33486 0.66146,0 0.34202,0.22103 0.33504,0.25704 -0.0505,0.26053 -0.24608,0.002 -0.52099,-0.11501 -0.61093,-0.26053 z m -3.9838,-0.28894 c -0.12627,-0.20431 0.31475,-0.23539 1.50574,-0.10613 2.19442,0.23818 2.30912,0.39507 0.28881,0.39507 -0.88879,0 -1.69634,-0.13002 -1.79455,-0.28894 z m -0.67896,-0.80917 c -0.9025,-0.24692 -0.40368,-0.30144 2.14922,-0.23492 1.23692,0.0322 2.36792,0.17261 2.51331,0.31195 0.29253,0.28033 -3.59086,0.21617 -4.66253,-0.077 z m 2.32403,-1.10967 c -0.20154,-0.1466 -0.16243,-0.17775 0.11376,-0.0906 0.23148,0.073 0.58867,0.0265 0.79375,-0.10328 0.2686,-0.17004 0.1509,-0.2415 -0.42086,-0.25554 -1.71624,-0.0421 -4.5047,-0.3044 -4.63011,-0.43546 -0.0728,-0.0761 0.84844,-0.0952 2.04724,-0.0424 1.76116,0.0776 2.16755,0.0247 2.11667,-0.27525 -0.10343,-0.60979 0.53933,-0.63418 0.86124,-0.0327 0.34371,0.64221 1.39968,1.11792 1.98391,0.89372 0.45919,-0.17621 0.52064,-0.9627 0.13196,-1.68897 -0.23504,-0.43917 -0.14742,-0.51887 0.7276,-0.66189 2.43142,-0.39743 2.4597,-0.40865 2.2058,-0.87519 -0.13241,-0.24331 -0.57868,-0.79957 -0.99171,-1.23613 -1.65325,-1.74747 -2.14685,-2.05144 -3.44795,-2.12328 -0.76915,-0.0425 -1.74444,-0.3394 -2.4753,-0.75362 -1.11279,-0.63067 -1.25091,-0.65213 -1.78594,-0.27738 -0.31893,0.22339 -0.57987,0.58095 -0.57987,0.79458 0,0.43805 -1.03221,0.90449 -2.0016,0.90449 -0.35433,0 -0.64424,-0.11906 -0.64424,-0.26458 0,-0.14552 0.41672,-0.26459 0.92605,-0.26459 0.50932,0 0.92604,-0.11906 0.92604,-0.26458 0,-0.14552 -0.51303,-0.26458 -1.14006,-0.26458 -0.6348,0 -1.36767,-0.18236 -1.65364,-0.41147 -0.49613,-0.39748 -0.49394,-0.40198 0.0643,-0.1323 0.92254,0.44566 3.25854,0.36129 3.25854,-0.11769 0,-0.29447 -0.32429,-0.40168 -1.25677,-0.41547 -0.69122,-0.0102 -1.49489,-0.12155 -1.78593,-0.24739 -0.33481,-0.14475 0.0539,-0.17695 1.05833,-0.0876 1.00612,0.0894 2.24757,-0.0137 3.38985,-0.28179 1.89332,-0.44427 7.53386,-0.543 9.04557,-0.15834 0.46347,0.11794 -1.18788,0.21669 -3.96875,0.23733 -3.18331,0.0236 -4.6309,0.12041 -4.36563,0.29184 0.21828,0.14106 2.4507,0.2583 4.96094,0.26053 2.51023,0.002 4.56406,0.10578 4.56406,0.23011 0,0.12433 -1.72641,0.16744 -3.83646,0.0958 -2.64202,-0.0897 -3.83646,-0.0416 -3.83646,0.15437 0,0.15655 0.20836,0.28577 0.46303,0.28716 0.25466,10e-4 1.98106,0.007 3.83645,0.0115 2.29413,0.006 3.37344,0.10311 3.37344,0.30323 0,0.20186 -0.66616,0.25519 -2.12118,0.16982 -1.16665,-0.0685 -2.18571,-0.0201 -2.26457,0.10755 -0.0789,0.12761 -0.0471,0.23636 0.0707,0.24166 3.05662,0.13782 4.11074,0.22697 4.2426,0.35884 0.0884,0.0884 -0.69962,0.16068 -1.75111,0.16068 -1.20716,0 -1.85153,0.0975 -1.74827,0.26458 0.0899,0.14552 1.00977,0.26459 2.04408,0.26459 1.03431,0 1.79842,0.0822 1.69801,0.18256 -0.10041,0.10041 -0.80487,0.15102 -1.56546,0.11247 -1.07461,-0.0545 -1.31339,8.7e-4 -1.07114,0.24825 0.17147,0.17509 0.85179,0.3075 1.51183,0.29425 0.66004,-0.0133 1.27092,0.0905 1.35751,0.23065 0.091,0.14727 -0.2956,0.25473 -0.91651,0.25473 -1.5103,0 -1.34534,0.51919 0.18282,0.57539 l 1.25677,0.0462 -1.1106,0.1006 c -0.73588,0.0667 -1.06882,0.20947 -0.98677,0.42327 0.0783,0.20414 0.51061,0.28579 1.17674,0.22226 0.65286,-0.0623 1.05292,0.0107 1.05292,0.19196 0,0.17461 -0.5595,0.29779 -1.38906,0.30582 -1.51413,0.0147 -3.70481,0.24741 -3.88055,0.41229 -0.0606,0.0569 1.15975,0.10343 2.71198,0.10343 1.67059,0 2.82222,0.10602 2.82222,0.25982 0,0.15445 -0.61699,0.20897 -1.52136,0.13444 -1.78961,-0.14749 -3.77031,0.0882 -3.77031,0.44872 0,0.13955 0.62508,0.23494 1.38906,0.21198 2.18841,-0.0658 2.62362,-0.0172 2.44437,0.27286 -0.10214,0.16527 -0.83545,0.20898 -1.89618,0.11302 -1.36815,-0.12378 -1.7047,-0.0833 -1.6104,0.19353 0.0656,0.1925 0.36549,0.31454 0.66649,0.2712 0.30101,-0.0433 0.62935,0.054 0.72965,0.21627 0.21856,0.35365 -5.28909,0.26193 -5.78151,-0.0963 z m -2.88371,-0.096 c 0.32912,-0.0633 0.80537,-0.0609 1.05834,0.005 0.25296,0.0662 -0.0163,0.118 -0.5984,0.11507 -0.58208,-0.003 -0.78906,-0.0571 -0.45994,-0.12041 z m 1.29614,-1.31382 c -0.0979,-0.0979 -0.90477,-0.21024 -1.793,-0.2496 -2.071,-0.0918 -2.37838,-0.36612 -0.41021,-0.36612 0.82461,0 1.4993,-0.11906 1.4993,-0.26458 0,-0.14925 -0.74965,-0.26458 -1.71979,-0.26458 -1.0314,0 -1.71979,-0.11189 -1.71979,-0.27952 0,-0.18246 0.65594,-0.23395 1.88902,-0.14828 2.24792,0.15619 2.11708,-0.2498 -0.15657,-0.48583 -2.19066,-0.22742 -2.24939,-0.49424 -0.0795,-0.36135 2.03168,0.12443 2.06782,-0.3442 0.0396,-0.51418 -0.67357,-0.0565 -1.47878,-0.21509 -1.78935,-0.35252 -0.38923,-0.17224 -0.0361,-0.20141 1.13676,-0.0939 1.52587,0.13988 1.66586,0.11311 1.35667,-0.25944 -0.24208,-0.29168 -0.86708,-0.42782 -2.09831,-0.45705 l -1.75354,-0.0416 1.85208,-0.17112 1.85209,-0.17112 1.13116,1.11904 c 0.63984,0.63298 1.01334,1.19187 0.8599,1.2867 -0.1492,0.0922 -0.27127,0.45602 -0.27127,0.80846 0,0.46286 0.18367,0.6869 0.66146,0.80682 0.3638,0.0913 0.66145,0.27217 0.66145,0.40191 0,0.27483 -0.88653,0.31951 -1.14817,0.0579 z m -5.5987,-5.11363 c -0.51018,-0.21924 -0.50837,-0.22806 0.0505,-0.24599 0.31883,-0.0102 0.65328,0.10047 0.74322,0.24599 0.19341,0.31294 -0.0655,0.31294 -0.79375,0 z"
       id="path27" />
  </g>
</svg>
