<?xml version="1.0" encoding="UTF-8" standalone="no"?>
<!-- Created with Inkscape (http://www.inkscape.org/) -->

<svg
   width="16.331234mm"
   height="13.140491mm"
   viewBox="0 0 16.331234 13.140491"
   version="1.1"
   id="svg1"
   inkscape:version="1.4.2 (2aeb623e1d, 2025-05-12)"
   sodipodi:docname="isle8.svg"
   xmlns:inkscape="http://www.inkscape.org/namespaces/inkscape"
   xmlns:sodipodi="http://sodipodi.sourceforge.net/DTD/sodipodi-0.dtd"
   xmlns="http://www.w3.org/2000/svg"
   xmlns:svg="http://www.w3.org/2000/svg">
  <sodipodi:namedview
     id="namedview1"
     pagecolor="#ffffff"
     bordercolor="#000000"
     borderopacity="0.25"
     inkscape:showpageshadow="2"
     inkscape:pageopacity="0.0"
     inkscape:pagecheckerboard="0"
     inkscape:deskcolor="#d1d1d1"
     inkscape:document-units="mm"
     inkscape:zoom="0.7349537"
     inkscape:cx="156.47244"
     inkscape:cy="421.11496"
     inkscape:window-width="1854"
     inkscape:window-height="1011"
     inkscape:window-x="0"
     inkscape:window-y="0"
     inkscape:window-maximized="1"
     inkscape:current-layer="layer1" />
  <defs
     id="defs1" />
  <g
     inkscape:label="Layer 1"
     inkscape:groupmode="layer"
     id="layer1"
     transform="translate(-63.76458,-37.04166)">
    <path
       style="fill:#000000"
       d="m 70.71787,50.08174 c 0.69562,-0.0547 1.76718,-0.054 2.38125,10e-4 0.61408,0.0555 0.0449,0.10023 -1.26475,0.0994 -1.30969,-8e-4 -1.81211,-0.0462 -1.1165,-0.10089 z m 5.96168,-0.25052 c 0.191,-0.0764 0.4192,-0.067 0.50712,0.0209 0.0879,0.0879 -0.0684,0.15045 -0.34727,0.13897 -0.30822,-0.0127 -0.37091,-0.0754 -0.15985,-0.15986 z m -9.41043,-0.76616 c 0.18998,-0.18998 4.45567,-0.17691 4.64682,0.0142 0.0764,0.0764 -0.97233,0.13892 -2.33053,0.13892 -1.35819,0 -2.40053,-0.0689 -2.31629,-0.15315 z m 5.29373,-0.002 c 0.18357,-0.18357 6.85295,-0.15676 7.038,0.0283 0.0698,0.0698 -1.52011,0.12692 -3.53315,0.12692 -2.01303,0 -3.59022,-0.0698 -3.50485,-0.15521 z m -7.58452,-1.13028 c -0.0772,-0.12494 0.6599,-0.1919 1.63803,-0.14878 1.94942,0.0859 2.7944,-0.0582 2.5604,-0.43686 -0.0835,-0.13504 -1.21628,-0.24553 -2.51738,-0.24553 -1.3011,0 -2.36563,-0.10262 -2.36563,-0.22804 0,-0.12542 0.44648,-0.23074 0.99218,-0.23406 2.60465,-0.0158 3.26212,-0.0837 3.11513,-0.32151 -0.0865,-0.13994 -1.05446,-0.2245 -2.15104,-0.18791 -1.09659,0.0366 -2.05191,-0.0275 -2.12294,-0.14244 -0.071,-0.11493 0.76382,-0.20896 1.85523,-0.20896 1.0914,0 2.05796,-0.11906 2.14789,-0.26458 0.10425,-0.16867 -0.67341,-0.26459 -2.14515,-0.26459 -1.26976,0 -2.25735,-0.0513 -2.19463,-0.11403 0.0627,-0.0627 1.18326,-0.19107 2.49009,-0.28523 1.30682,-0.0941 2.42629,-0.22143 2.4877,-0.28284 0.0614,-0.0614 -1.03929,-0.11165 -2.44599,-0.11165 -1.52871,0 -2.55764,-0.10644 -2.55764,-0.26458 0,-0.15679 0.97014,-0.26458 2.38125,-0.26458 1.41111,0 2.38125,-0.1078 2.38125,-0.26459 0,-0.15575 -1.06112,-0.2799 -2.57969,-0.30183 -2.26224,-0.0327 -2.40061,-0.0594 -1.12448,-0.21726 0.80037,-0.099 1.84216,-0.15165 2.31511,-0.117 0.59521,0.0436 0.85989,-0.0524 0.85989,-0.31191 0,-0.28714 -0.48004,-0.38607 -2.05052,-0.42258 l -2.05052,-0.0477 1.95711,-0.15077 c 1.58797,-0.12233 2.01216,-0.25036 2.24896,-0.6788 0.16052,-0.29042 0.52389,-0.87784 0.80749,-1.30537 0.36084,-0.54397 0.42041,-0.80909 0.19844,-0.88308 -0.99818,-0.33273 0.0681,-0.47457 2.92394,-0.38893 3.96343,0.11885 4.64292,0.27811 1.3073,0.3064 -1.56969,0.0133 -2.4037,0.11685 -2.29949,0.28547 0.0955,0.15443 1.59545,0.26458 3.60311,0.26458 1.89177,0 3.37895,0.0981 3.30485,0.218 -0.0741,0.1199 -1.42058,0.16594 -2.99218,0.10231 -1.5716,-0.0636 -2.78817,-0.0428 -2.7035,0.0462 0.20728,0.21797 1.58021,0.36192 3.79275,0.39768 1.00652,0.0163 1.74428,0.11533 1.63946,0.22015 -0.10482,0.10482 -0.61429,0.15408 -1.13216,0.10946 -0.6265,-0.054 -0.88213,0.0151 -0.76394,0.2063 0.0977,0.15808 0.64686,0.28741 1.22035,0.28741 0.5735,0 1.04272,0.11907 1.04272,0.26459 0,0.14552 -0.53578,0.26458 -1.19063,0.26458 -1.61259,0 -1.50414,0.39447 0.19844,0.72178 l 1.38906,0.26704 -1.30086,0.0347 c -1.56863,0.0419 -1.45717,0.25907 0.28281,0.55104 l 1.28264,0.21523 -1.1401,0.0311 c -1.53749,0.042 -1.17414,0.54937 0.42811,0.59784 l 1.24115,0.0375 -1.05833,0.1789 c -1.2409,0.20976 -0.83985,0.47712 0.92604,0.61735 0.97638,0.0775 0.89025,0.10286 -0.47863,0.14077 -1.98954,0.0551 -1.99292,0.45256 -0.005,0.54328 1.92683,0.0879 1.96843,0.29244 0.0643,0.31635 -0.861,0.0108 -1.86311,0.0797 -2.22691,0.15308 -0.3638,0.0734 -0.80684,0.16031 -0.98453,0.19317 -0.65038,0.12028 -0.71146,0.46615 -0.0718,0.40677 1.40744,-0.13066 4.83837,0.0313 4.64882,0.21951 -0.21926,0.21765 -0.25299,0.22018 -3.80651,0.28547 -1.35741,0.0249 -2.39777,0.15084 -2.31766,0.28046 0.0799,0.12935 1.4562,0.18559 3.05833,0.12497 1.88937,-0.0715 2.91296,-0.0147 2.91296,0.16168 0,0.33695 -14.71797,0.38107 -14.92583,0.0447 z m 9.11905,-1.89852 c 0.67259,-0.43161 1.35428,-0.78474 1.51485,-0.78474 0.59147,0 0.61501,-0.57157 0.0621,-1.50863 -0.34099,-0.57793 -0.50893,-1.19593 -0.42061,-1.54782 0.11693,-0.46587 -0.0138,-0.65241 -0.63886,-0.9113 -0.43224,-0.17904 -1.06337,-0.25588 -1.40252,-0.17076 -0.3936,0.0988 -1.06697,-0.085 -1.86168,-0.50802 l -1.24503,-0.66278 -0.67547,0.72884 c -0.55982,0.60405 -0.64582,0.88867 -0.50232,1.66247 0.0952,0.51349 0.3407,1.12054 0.5455,1.34899 0.3204,0.35739 0.31845,0.48663 -0.014,0.92604 -0.50707,0.67028 -0.49885,1.18238 0.0312,1.93905 0.39673,0.56642 0.5619,0.60507 1.90911,0.44673 0.96042,-0.11288 1.90132,-0.44703 2.69771,-0.95807 z m -9.6698,-5.02056 c 0.16915,-0.2737 3.21397,-0.17749 3.50212,0.11066 0.086,0.086 -0.7039,0.15641 -1.75539,0.15641 -1.21904,0 -1.85198,-0.0968 -1.74673,-0.26707 z m 0.26304,-0.79126 c -0.10069,-0.16291 0.34483,-0.26458 1.1594,-0.26458 0.7276,0 1.3965,0.11906 1.48643,0.26458 0.10069,0.16291 -0.34482,0.26458 -1.15939,0.26458 -0.72761,0 -1.3965,-0.11906 -1.48644,-0.26458 z m 0.5984,-0.98088 c 0.32912,-0.0633 0.80537,-0.0609 1.05833,0.005 0.25297,0.0662 -0.0163,0.118 -0.5984,0.11507 -0.58208,-0.003 -0.78905,-0.0571 -0.45993,-0.12041 z m 11.2417,-0.25984 c 0.25467,-0.0666 0.67138,-0.0666 0.92605,0 0.25466,0.0666 0.0463,0.121 -0.46302,0.121 -0.50933,0 -0.71769,-0.0545 -0.46303,-0.121 z m -8.79739,-0.82587 c 0,-0.1239 1.9943,-0.24153 4.43177,-0.26139 2.44319,-0.0199 4.19433,0.059 3.9026,0.17576 -0.7218,0.28901 -8.33437,0.36722 -8.33437,0.0856 z m 1.09798,-0.87393 c 0.34413,-0.21808 6.77736,-0.34426 6.55289,-0.12853 -0.0606,0.0583 -1.64022,0.16196 -3.51018,0.23043 -1.93278,0.0708 -3.24578,0.0268 -3.04271,-0.1019 z"
       id="path36" />
  </g>
</svg>
