<?xml version="1.0" encoding="UTF-8" standalone="no"?>
<!-- Created with Inkscape (http://www.inkscape.org/) -->

<svg
   width="37.803379mm"
   height="18.382318mm"
   viewBox="0 0 37.803379 18.382318"
   version="1.1"
   id="svg1"
   inkscape:version="1.4.2 (2aeb623e1d, 2025-05-12)"
   sodipodi:docname="isle12.svg"
   xmlns:inkscape="http://www.inkscape.org/namespaces/inkscape"
   xmlns:sodipodi="http://sodipodi.sourceforge.net/DTD/sodipodi-0.dtd"
   xmlns="http://www.w3.org/2000/svg"
   xmlns:svg="http://www.w3.org/2000/svg">
  <sodipodi:namedview
     id="namedview1"
     pagecolor="#ffffff"
     bordercolor="#000000"
     borderopacity="0.25"
     inkscape:showpageshadow="2"
     inkscape:pageopacity="0.0"
     inkscape:pagecheckerboard="0"
     inkscape:deskcolor="#d1d1d1"
     inkscape:document-units="mm"
     inkscape:zoom="0.7349537"
     inkscape:cx="212.25827"
     inkscape:cy="268.72441"
     inkscape:window-width="1854"
     inkscape:window-height="1011"
     inkscape:window-x="0"
     inkscape:window-y="0"
     inkscape:window-maximized="1"
     inkscape:current-layer="layer1" />
  <defs
     id="defs1" />
  <g
     inkscape:label="Layer 1"
     inkscape:groupmode="layer"
     id="layer1"
     transform="translate(-49.13667,-19.973331)">
    <path
       style="fill:#000000"
       d="m 72.12338,38.09107 c 0,-0.14552 0.35016,-0.26458 0.77814,-0.26458 0.42797,0 0.85172,0.11906 0.94165,0.26458 0.0973,0.15746 -0.21774,0.26458 -0.77813,0.26458 -0.51791,0 -0.94166,-0.11906 -0.94166,-0.26458 z m 2.11667,0.003 c 0,-0.25952 2.85871,-0.14309 3.12925,0.12744 0.0737,0.0737 -0.60028,0.13394 -1.49765,0.13394 -0.89804,0 -1.6316,-0.11751 -1.6316,-0.26138 z m -2.59553,-0.93545 c 0.25731,-0.25731 6.23191,-0.45489 6.65168,-0.21998 0.24784,0.1387 -1.00356,0.25468 -3.19413,0.29604 -1.98089,0.0374 -3.53678,0.003 -3.45755,-0.0761 z m 2.9924,-0.9096 c -2.32833,-0.0784 -4.01523,-0.23182 -3.74867,-0.34096 0.26656,-0.10914 1.1893,-0.19844 2.05052,-0.19844 0.86752,0 1.56586,-0.118 1.56586,-0.26458 0,-0.23569 -2.33516,-0.40121 -3.89422,-0.27604 -0.32282,0.0259 -0.79907,-0.0763 -1.05834,-0.22725 -0.34803,-0.20256 0.23836,-0.27648 2.24058,-0.28242 3.2016,-0.009 3.76476,-0.51075 0.66146,-0.58875 -1.12779,-0.0283 -2.34818,-0.0769 -2.71198,-0.10798 -0.3638,-0.031 -0.8341,-0.0674 -1.0451,-0.0807 -0.23828,-0.0151 -0.28841,-0.11534 -0.13229,-0.26455 0.1443,-0.13792 1.32188,-0.15719 2.76489,-0.0452 1.38245,0.10724 2.56438,0.15459 2.62652,0.10521 0.0621,-0.0494 -0.11646,-0.26335 -0.39688,-0.4755 -0.36307,-0.27469 -1.24798,-0.38815 -3.07392,-0.39414 -1.49935,-0.005 -2.63551,-0.124 -2.73611,-0.28677 -0.11878,-0.1922 0.67487,-0.22305 2.56408,-0.0997 2.03077,0.13263 2.66395,0.10154 2.4562,-0.12061 -0.15406,-0.16474 -1.58156,-0.37388 -3.175,-0.46517 -1.5923,-0.0912 -2.94471,-0.20935 -3.00534,-0.26249 -0.31659,-0.2775 0.39999,-0.30991 3.20025,-0.14475 2.69025,0.15867 3.05263,0.13157 2.85934,-0.21382 -0.25425,-0.45432 -0.14523,-0.43842 -3.36966,-0.49151 -1.55535,-0.0256 -2.4474,-0.14474 -2.4474,-0.32683 0,-0.18734 0.48085,-0.23724 1.38907,-0.14416 0.76398,0.0783 2.1332,0.14771 3.04271,0.15424 1.28824,0.009 1.65364,0.0996 1.65364,0.40874 0,0.21828 0.12709,0.39687 0.28241,0.39687 0.22494,0 0.12716,-0.93187 -0.13104,-1.24891 -0.0261,-0.0321 -1.38054,-0.13926 -3.00984,-0.23822 -2.33529,-0.14184 -2.96236,-0.2615 -2.96236,-0.56533 0,-0.24606 0.15447,-0.32612 0.42726,-0.22144 0.235,0.0902 1.60711,0.23925 3.04914,0.33128 2.30327,0.147 2.60273,0.11745 2.46435,-0.24318 -0.12301,-0.32055 -0.63178,-0.41793 -2.32154,-0.44432 -1.1902,-0.0186 -2.58072,-0.14364 -3.09005,-0.27789 -0.65571,-0.17283 -0.0204,-0.21035 2.17633,-0.12851 2.74247,0.10217 3.13082,0.0625 3.34771,-0.34218 0.22011,-0.41068 0.10856,-0.4481 -1.08461,-0.36386 -0.9187,0.0649 -1.27439,0.004 -1.15026,-0.19685 0.28706,-0.46447 3.02254,-0.3003 3.40109,0.20412 0.68319,0.91035 1.49916,0.54536 1.50778,-0.67443 0.005,-0.71167 0.40173,-0.8563 1.59155,-0.58025 0.50932,0.11817 2.29526,0.23921 3.96875,0.26899 l 3.04271,0.0541 -2.69118,0.15061 c -1.48015,0.0828 -2.77991,0.23991 -2.88837,0.34905 -0.10845,0.10914 0.031,0.19976 0.30993,0.20138 1.20964,0.007 5.80876,0.34115 5.90903,0.4293 0.0606,0.0533 -1.28585,0.0969 -2.99218,0.0969 -2.00091,0 -3.04436,0.0939 -2.9389,0.26458 0.0931,0.1507 1.42856,0.26459 3.10242,0.26459 1.61639,0 2.86536,0.0735 2.77547,0.16343 -0.0899,0.0899 -1.37147,0.14445 -2.84795,0.12125 -2.09043,-0.0328 -2.65923,0.0335 -2.57022,0.29959 0.0838,0.25056 0.8612,0.34177 2.91303,0.34177 1.53929,0 2.8885,0.0893 2.99823,0.19844 0.10973,0.10914 -1.01096,0.19843 -2.49042,0.19843 -1.6169,0 -2.68994,0.10555 -2.68994,0.26459 0,0.15959 1.10244,0.26458 2.77813,0.26458 1.63704,0 2.77812,0.10645 2.77812,0.25918 0,0.15263 -0.50395,0.1999 -1.22591,0.11499 -1.44464,-0.1699 -3.33814,0.0985 -3.12522,0.44303 0.082,0.13262 1.1838,0.26332 2.44852,0.29043 l 2.29949,0.0493 -2.24896,0.15466 c -1.50277,0.10334 -2.09416,0.22851 -1.78242,0.37724 0.2566,0.12242 1.2984,0.17558 2.31511,0.11813 1.01671,-0.0575 1.84856,-0.0113 1.84856,0.10263 0,0.1139 -0.95953,0.20709 -2.13228,0.20709 -1.35415,0 -2.07261,0.0965 -1.96876,0.26458 0.0899,0.14552 0.81134,0.26458 1.60311,0.26458 0.79178,0 1.43987,0.0893 1.44021,0.19844 3.4e-4,0.10914 -0.90655,0.15878 -2.0153,0.11031 -1.213,-0.053 -2.13006,0.026 -2.30249,0.19844 -0.20571,0.2057 0.18878,0.28656 1.39794,0.28656 0.92648,0 1.60429,0.0802 1.50623,0.17829 -0.0981,0.0981 -0.90436,0.14866 -1.79178,0.11244 -1.09762,-0.0448 -1.55728,0.0251 -1.43769,0.21859 0.0967,0.15644 0.85337,0.2963 1.68153,0.31081 0.82816,0.0145 1.8034,0.12351 2.1672,0.24224 0.39944,0.13036 -0.13925,0.16366 -1.35994,0.0841 -2.18402,-0.14241 -2.75054,0.1249 -1.75334,0.8273 0.50876,0.35835 0.53953,0.46082 0.20286,0.67551 -0.21828,0.13919 -0.93266,0.22973 -1.5875,0.20121 -0.65484,-0.0285 -3.09562,-0.116 -5.42396,-0.19439 z m 4.10104,-0.5394 c 0.34203,-0.22103 0.33504,-0.25704 -0.0505,-0.26053 -0.24607,-0.002 -0.52099,0.11501 -0.61092,0.26053 -0.20696,0.33486 0.1433,0.33486 0.66146,0 z m -1.14651,-0.51267 c 0.82841,-0.50512 0.84929,-0.50506 1.8506,0.005 1.00161,0.51065 1.56331,0.28774 0.91318,-0.36239 -0.49001,-0.49 -0.33234,-1.2731 0.36711,-1.82328 0.3638,-0.28617 0.66146,-0.67811 0.66146,-0.87098 0,-0.19287 -0.70001,-1.08404 -1.55557,-1.98038 -0.85556,-0.89634 -1.55118,-1.7717 -1.54582,-1.94523 0.0415,-1.34216 -0.0674,-1.50614 -0.99965,-1.50614 -0.9014,0 -0.92605,0.0277 -0.92605,1.04081 0,0.96287 -0.049,1.03192 -0.65454,0.92212 -0.36001,-0.0653 -0.96307,-0.23599 -1.34014,-0.37935 -0.37708,-0.14337 -0.7185,-0.26067 -0.75872,-0.26067 -0.1437,0 0.27517,2.27487 0.47985,2.60604 0.12413,0.20085 0.0186,0.54779 -0.26034,0.85603 -0.4529,0.50046 -0.4398,0.5485 0.3805,1.39483 0.50941,0.52558 0.91257,1.2648 1.00693,1.84628 0.1347,0.83007 0.25718,0.9696 0.85035,0.96875 0.38115,-5.4e-4 1.07003,-0.23089 1.53085,-0.51188 z m 6.85548,-1.30617 c -0.1318,-0.21325 2.22165,-0.0852 2.47107,0.13445 0.0606,0.0534 -0.43836,0.0971 -1.10887,0.0971 -0.6705,0 -1.2835,-0.10419 -1.3622,-0.23154 z m 1.1702,-0.7901 c 0,-0.12534 0.29766,-0.17099 0.66146,-0.10145 0.3638,0.0696 0.66146,0.1721 0.66146,0.22789 0,0.0558 -0.29766,0.10145 -0.66146,0.10145 -0.3638,0 -0.66146,-0.10255 -0.66146,-0.22789 z M 66.96401,26.97857 c -0.1964,-0.31777 1.14571,-0.32547 2.64583,-0.0152 0.98356,0.20345 0.93326,0.22106 -0.71199,0.24934 -0.97368,0.0167 -1.84391,-0.0886 -1.93384,-0.23416 z m 0.52916,-0.79942 c -0.6774,-0.12492 0.10815,-0.18283 2.18244,-0.16089 1.78242,0.0188 3.24094,0.12357 3.24115,0.23271 4.6e-4,0.24614 -3.98557,0.19336 -5.42359,-0.0718 z m 13.09688,-0.29023 c -0.73518,-0.12989 -0.58522,-0.17078 0.7276,-0.19844 0.90951,-0.0192 1.65365,0.0545 1.65365,0.16361 0,0.2408 -1.12253,0.25722 -2.38125,0.0348 z m -2.7089,-0.15581 c 0.32912,-0.0633 0.80537,-0.0609 1.05834,0.005 0.25296,0.0662 -0.0163,0.118 -0.5984,0.11506 -0.58208,-0.003 -0.78905,-0.0571 -0.45994,-0.1204 z M 66.44009,25.13498 c -0.14729,-0.23831 5.6531,-0.0833 5.92583,0.15841 0.0606,0.0537 -1.21227,0.0977 -2.82866,0.0977 -1.61639,0 -3.01012,-0.11524 -3.09717,-0.25609 z m 8.66409,-0.0284 c -0.8258,-0.29322 0.25961,-0.40924 2.31087,-0.24701 l 1.98437,0.15694 -1.93333,0.12112 c -1.06334,0.0666 -2.1262,0.0526 -2.36191,-0.031 z m 4.60365,-0.0463 c 0.15827,-0.26238 1.66883,-0.22072 2.33743,0.0645 0.36418,0.15534 0.0636,0.21141 -0.96398,0.17984 -0.82123,-0.0252 -1.43928,-0.13517 -1.37345,-0.24431 z M 65.64109,24.05592 c 1.98536,-0.30923 4.8506,-0.30124 4.36562,0.0122 -0.21828,0.14107 -1.5875,0.2424 -3.0427,0.22518 -2.28642,-0.027 -2.46613,-0.0593 -1.32292,-0.23735 z m 8.80529,0.0538 c 0.33183,-0.21057 4.83779,-0.11275 5.06039,0.10985 0.0622,0.0622 -1.1271,0.11131 -2.64294,0.10909 -1.51584,-0.002 -2.60369,-0.10075 -2.41745,-0.21894 z m 6.34211,0.0478 c 0.1819,-0.0734 0.47955,-0.0734 0.66145,0 0.1819,0.0734 0.0331,0.13345 -0.33073,0.13345 -0.3638,0 -0.51263,-0.06 -0.33072,-0.13345 z m -19.12863,-0.9033 c -0.0876,-0.14181 0.82724,-0.25352 2.17968,-0.26615 1.28189,-0.012 2.65814,-0.0756 3.05832,-0.14134 0.40181,-0.066 0.7276,0.003 0.7276,0.15405 0,0.1505 -0.56554,0.28509 -1.25677,0.29909 -0.69122,0.014 -1.9995,0.0645 -2.90728,0.1121 -0.90778,0.0477 -1.71848,-0.0233 -1.80155,-0.15775 z M 59.1588,22.2256 c -0.28258,-0.1894 0.25079,-0.2739 1.85208,-0.29342 1.23693,-0.0151 2.81107,-0.0706 3.49809,-0.12345 0.68701,-0.0528 1.31912,0.0172 1.40467,0.15566 0.0855,0.13843 -0.11936,0.25963 -0.45537,0.26934 -0.33601,0.01 -1.80156,0.0717 -3.25676,0.13776 -1.54746,0.0702 -2.81059,0.01 -3.04271,-0.14589 z m -4.59296,-0.80643 c 0.12503,-0.12083 1.65608,-0.28223 3.40233,-0.35865 1.74625,-0.0764 3.53219,-0.20811 3.96875,-0.29263 0.72896,-0.14112 1.73949,0.19652 1.44755,0.48367 -0.0686,0.0674 -2.13193,0.18215 -4.5853,0.25495 -2.45337,0.0728 -4.35837,0.0335 -4.23333,-0.0873 z m -4.63033,-0.82373 c -0.4889,-0.14388 -0.84608,-0.30171 -0.79375,-0.35071 0.0523,-0.049 2.71454,-0.15441 5.916,-0.23423 6.29205,-0.15686 7.17891,0.21721 1.13744,0.47978 -1.93528,0.0841 -3.93541,0.20104 -4.44473,0.25984 -0.50933,0.0588 -1.32606,-0.0108 -1.81496,-0.15468 z"
       id="path40" />
  </g>
</svg>
