<?xml version="1.0" encoding="UTF-8" standalone="no"?>
<!-- Created with Inkscape (http://www.inkscape.org/) -->

<svg
   width="57.34293mm"
   height="30.4268mm"
   viewBox="0 0 57.342928 30.426798"
   version="1.1"
   id="svg1"
   inkscape:version="1.4.1-rc (06eac75fbf, 2025-03-29)"
   sodipodi:docname="mounts6.svg"
   xmlns:inkscape="http://www.inkscape.org/namespaces/inkscape"
   xmlns:sodipodi="http://sodipodi.sourceforge.net/DTD/sodipodi-0.dtd"
   xmlns="http://www.w3.org/2000/svg"
   xmlns:svg="http://www.w3.org/2000/svg">
  <sodipodi:namedview
     id="namedview1"
     pagecolor="#ffffff"
     bordercolor="#000000"
     borderopacity="0.25"
     inkscape:showpageshadow="2"
     inkscape:pageopacity="0.0"
     inkscape:pagecheckerboard="0"
     inkscape:deskcolor="#d1d1d1"
     inkscape:document-units="mm"
     inkscape:zoom="0.72248176"
     inkscape:cx="107.9612"
     inkscape:cy="57.440896"
     inkscape:window-width="1850"
     inkscape:window-height="1016"
     inkscape:window-x="0"
     inkscape:window-y="0"
     inkscape:window-maximized="1"
     inkscape:current-layer="layer1" />
  <defs
     id="defs1" />
  <g
     inkscape:label="Layer 1"
     inkscape:groupmode="layer"
     id="layer1"
     transform="translate(-76.46458,-133.08718)">
    <path
       style="fill:#000000"
       d="m 123.09186,163.51398 h -0.35277 l 0.17638,-0.17639 0.17639,-0.17639 0.17639,0.17639 0.17639,0.17639 z m 1.32292,-0.0418 h -0.66146 l 0.33073,-0.13345 0.33073,-0.13345 0.33073,0.13345 0.33073,0.13345 z m -30.515278,-0.311 -0.176389,0.17639 v -0.35278 -0.35278 l 0.176389,0.17639 0.176389,0.17639 z m 1.675694,0.0882 h -0.352778 l 0.176389,-0.17639 0.176389,-0.17639 0.176389,0.17639 0.176389,0.17639 z m 25.135414,0 h -0.35277 l 0.17638,-0.17639 0.17639,-0.17639 0.17639,0.17639 0.17639,0.17639 z m 1.27239,-0.004 -0.0818,-0.004 -0.39688,-0.25648 -0.39687,-0.25648 0.31511,-0.004 0.31512,-0.004 0.16352,0.26458 0.16352,0.26459 z m -6.31508,-0.26053 h -0.24897 v -0.24356 -0.24356 l 0.81267,-0.17849 0.81267,-0.1785 0.15746,0.15747 0.15747,0.15747 h -0.55764 -0.55765 l -0.16353,0.26459 -0.16352,0.26458 z m 3.1499,0 h -0.12273 l -0.51318,-0.37524 -0.51317,-0.37525 0.15554,-0.15554 0.15555,-0.15555 0.48036,0.53079 0.48035,0.53079 z m 5.37021,-0.004 -0.62362,0.004 0.1523,-0.39688 0.1523,-0.39687 h -0.36027 -0.36026 l -0.1523,-0.39688 -0.15229,-0.39687 h -0.2885 -0.28851 l 0.18104,0.29293 0.18104,0.29293 -0.59543,-0.18899 -0.59543,-0.18898 0.18104,0.29293 0.18104,0.29293 h -0.26459 -0.26458 l -0.15873,-0.25683 -0.15873,-0.25682 0.67046,-0.16828 0.67045,-0.16827 -0.17387,-0.28132 -0.17387,-0.28132 0.44028,0.16895 0.44028,0.16895 v -0.23287 -0.23287 l 0.44868,0.0658 0.44868,0.0658 0.11179,0.33538 0.11179,0.33538 -0.62662,-0.17665 -0.62661,-0.17664 0.66146,0.53987 0.66145,0.53987 0.3813,0.006 0.3813,0.006 -0.51359,-0.39752 -0.51359,-0.39753 0.52917,0.17531 0.52916,0.17531 -0.63377,-0.69567 -0.63377,-0.6957 -0.20784,0.12845 -0.20784,0.12845 -0.15614,-0.25263 -0.15614,-0.25264 -0.50834,0.0979 -0.50834,0.0979 0.13532,-0.35265 0.13533,-0.35265 0.31243,0.0475 0.31244,0.0475 0.3315,0.20709 0.3315,0.20709 -0.90934,-1.80203 -0.90934,-1.80203 -0.4188,-0.52917 -0.4188,-0.52916 0.9292,1.85208 0.9292,1.85209 0.001,0.15757 0.001,0.15758 -0.68907,-0.0368 -0.68906,-0.0368 -0.35989,-0.64993 -0.3599,-0.64994 -0.009,0.27186 -0.009,0.27186 0.3579,0.52189 0.35791,0.52189 -0.005,0.42627 -0.005,0.42628 -0.41893,-0.0294 -0.41892,-0.0294 0.085,0.3969 0.085,0.39688 -0.3364,-0.33073 -0.3364,-0.33076 h -0.17081 -0.1708 l 0.0401,0.72763 0.0401,0.72761 h 0.5566 0.5566 l 0.21428,0.21242 0.21428,0.21242 -0.45496,-0.17458 -0.45495,-0.17459 v 0.31302 0.31301 l -0.74808,-0.61543 -0.74808,-0.61544 0.41735,-0.33138 0.41735,-0.33138 -0.43626,0.15098 -0.43626,0.15098 -0.1856,-0.30032 -0.18561,-0.30034 0.48957,0.0838 0.48957,0.0838 -0.068,-0.33624 -0.068,-0.33624 0.68431,0.12409 0.68432,0.12409 -0.31558,-0.38025 -0.31559,-0.38025 -0.23157,0.14312 -0.23157,0.14312 0.15698,-0.4091 0.15699,-0.4091 0.27774,0.17166 0.27774,0.17165 -0.19146,-0.30978 -0.19145,-0.30978 -0.23374,0.14446 -0.23374,0.14446 -0.39884,-0.73546 -0.39885,-0.73546 -0.0212,0.39688 -0.0212,0.39688 -0.39473,-0.72761 -0.39473,-0.72761 h -0.07 -0.07 l 0.0123,0.72761 0.0123,0.72761 0.52917,-0.009 0.52917,-0.009 0.19438,0.27343 0.19439,0.27344 0.004,0.21405 0.004,0.21405 -0.26458,-0.16352 -0.26458,-0.16352 v 0.27204 0.27205 l -1.41712,-1.05978 -1.41711,-1.05979 -0.30268,-0.6643 -0.30268,-0.66431 v -0.13546 -0.13545 l 0.26156,0.16164 0.26155,0.16165 -0.16608,-0.4328 -0.16608,-0.4328 -0.1968,0.31842 -0.1968,0.31843 -0.31436,-0.95253 -0.31436,-0.95252 0.15671,-0.25357 0.15672,-0.25357 -0.44587,-1.60369 -0.44586,-1.60368 h -0.58399 -0.584 l -0.17549,1.32291 -0.17549,1.32292 h -0.221 -0.22101 l 0.002,0.46302 0.002,0.46302 -0.0363,0.46302 -0.0363,0.46302 h -0.23012 -0.23012 l 0.0216,-0.46302 0.0216,-0.46302 -0.44463,-1.46746 -0.44464,-1.46745 -0.73588,-0.64921 -0.73588,-0.64921 0.60993,0.69408 0.60994,0.69408 -0.4304,0.4304 -0.4304,0.4304 h -0.24568 -0.24569 v 0.4579 0.45791 l -0.58117,1.40219 -0.58118,1.40219 -0.5433,0.11607 -0.54331,0.11608 -0.55475,0.0743 -0.55476,0.0744 -0.0566,-0.26459 -0.0566,-0.26458 -0.55927,-0.59531 -0.55927,-0.59532 h 0.32632 0.32632 l -0.20382,-0.33073 -0.20382,-0.33072 0.78352,0.50117 0.78352,0.50118 -0.65524,-0.71431 -0.65523,-0.7143 0.5002,0.19194 0.5002,0.19195 -0.21658,-0.35043 -0.21657,-0.35042 0.37161,0.21341 0.37161,0.21342 0.46302,0.39764 0.46302,0.39763 v 0.2697 0.2697 l -0.72761,-0.64047 -0.7276,-0.64048 0.75798,0.83898 0.75798,0.83897 0.37325,-0.14323 0.37325,-0.14323 -0.28237,-0.34024 -0.28238,-0.34025 0.30463,-0.10155 0.30464,-0.10154 -0.43194,-0.35849 -0.43195,-0.35848 0.18072,0.50045 0.18072,0.50044 -0.71956,-0.65621 -0.71956,-0.65622 0.28196,-0.094 0.28197,-0.094 -0.10855,-0.17584 -0.10855,-0.17583 0.65406,-0.0393 0.65407,-0.0393 -0.13456,0.35066 -0.13456,0.35066 0.44729,0.34135 0.44729,0.34135 -0.18912,-0.2245 -0.18913,-0.22451 0.27794,-0.51934 0.27794,-0.51934 -0.61798,-0.67916 -0.61798,-0.67916 0.37569,0.21836 0.37569,0.21836 -0.18331,-0.4777 -0.18331,-0.4777 0.40002,0.33198 0.40002,0.33199 -0.1337,0.21632 -0.13369,0.21632 0.21539,0.13312 0.21538,0.13312 0.38425,-0.24308 0.38424,-0.24307 -0.32142,-0.004 -0.32142,-0.004 -0.30029,-0.5611 -0.30029,-0.56109 0.35713,0.20446 0.35712,0.20447 0.52917,0.42088 0.52917,0.42088 -0.64144,-0.72571 -0.64143,-0.72571 0.24456,-0.0338 0.24456,-0.0338 0.66145,-0.0706 0.66146,-0.0706 0.39688,0.33493 0.39687,0.33494 0.66146,0.33442 0.66146,0.33442 -0.19614,-0.20993 -0.19615,-0.20994 0.29469,-0.35507 0.29468,-0.35507 0.56292,0.006 0.56291,0.006 1.12448,0.51042 1.12448,0.51042 v 0.5421 0.5421 l 0.99219,0.0314 0.99219,0.0314 0.33427,-0.0438 0.33427,-0.0438 0.1718,0.47543 0.17181,0.47544 0.50634,0.73071 0.50635,0.73072 0.23868,-0.14752 0.23868,-0.14751 0.76978,0.56912 0.76978,0.56912 0.93826,-0.33928 0.93827,-0.33928 0.41138,0.34142 0.41138,0.34141 -0.12621,0.20421 -0.12621,0.20422 0.28626,0.82118 0.28627,0.82118 0.9832,0.55258 0.98319,0.5526 0.30413,0.80572 0.30413,0.80572 0.46569,-0.17871 0.4657,-0.1787 -0.18808,0.18807 -0.18807,0.18808 0.32843,0.40461 0.32843,0.40461 -0.46302,-0.17352 -0.46302,-0.17353 v 0.23423 0.23423 l 0.33073,0.13346 0.33073,0.13345 -0.32152,0.0209 -0.32152,0.0209 -0.96701,-0.84904 -0.96701,-0.84905 -0.36637,-0.0538 -0.36638,-0.0538 0.16005,0.25896 0.16004,0.25896 0.1536,-0.1536 0.1536,-0.15359 0.73817,0.70721 0.73817,0.70721 -0.6774,0.35144 -0.6774,0.35144 -0.52811,-0.28263 -0.5281,-0.28264 0.13229,-0.13229 0.13229,-0.13229 0.61797,0.30061 0.61797,0.30062 -0.4589,-0.37149 -0.45891,-0.37148 0.15242,-0.15243 0.15242,-0.15242 -0.41346,0.0607 -0.41346,0.0607 -0.18509,0.18509 -0.18509,0.18509 0.58698,0.62481 0.58698,0.62481 -0.87257,0.17581 -0.87257,0.17582 0.39688,0.25261 0.39687,0.25262 z m -4.93263,-1.31887 h 0.1323 v -0.13229 -0.13229 h -0.1323 -0.13229 v 0.13229 0.13229 z m 7.15937,-0.79375 h 0.11668 v -0.11667 -0.11668 l -0.30547,-0.18879 -0.30546,-0.18878 0.18879,0.30546 0.18878,0.30546 z m -6.36562,-0.26458 h 0.1323 v -0.13229 -0.13229 h -0.1323 -0.13229 v 0.13229 0.13229 z m 0.79375,-0.52917 h 0.1323 v -0.13229 -0.13229 h -0.1323 -0.13229 v 0.13229 0.13229 z m 3.70781,-0.26458 h 0.11731 l -0.30189,-0.66258 -0.30189,-0.66257 -0.11075,0.11075 -0.11075,0.11075 0.29533,0.55182 0.29533,0.55183 z m -3.17864,-0.79375 h 0.13229 v -0.13229 -0.13229 h -0.13229 -0.13229 v 0.13229 0.13229 z m 0.52917,0 h 0.13229 v -0.13229 -0.13229 h -0.13229 -0.13229 v 0.13229 0.13229 z m 1.29168,0 h 0.1323 l 0.16352,-0.26458 0.16352,-0.26459 h -0.13229 -0.13229 l -0.16353,0.26459 -0.16352,0.26458 z m 1.88332,0 h 0.13229 v -0.13229 -0.13229 h -0.13229 -0.13229 v 0.13229 0.13229 z m 0.52916,0 h 0.1323 v -0.13229 -0.13229 h -0.1323 -0.13229 v 0.13229 0.13229 z m -6.08541,-0.52917 h 0.13229 v -0.13229 -0.13229 h -0.13229 -0.13229 v 0.13229 0.13229 z m 1.5875,0 h 0.13229 v -0.13229 -0.13229 h -0.13229 -0.13229 v 0.13229 0.13229 z m 1.85208,0 h 0.13229 v -0.13229 -0.13229 h -0.13229 -0.13229 v 0.13229 0.13229 z m 1.87965,-0.0717 0.15985,-0.15985 -0.13897,-0.34727 -0.13896,-0.34726 -0.0209,0.50711 -0.0209,0.50713 z m -1.0418,-0.28112 0.17639,-0.17639 -0.17639,-0.17639 -0.17639,-0.17639 v 0.35278 0.35278 z m 1.5434,0.0882 h 0.13229 v -0.13229 -0.13229 h -0.13229 -0.13229 v 0.13229 0.13229 z m 0.52917,0 h 0.13229 v -0.13229 -0.13229 h -0.13229 -0.13229 v 0.13229 0.13229 z m -8.74406,-0.26458 h 0.12725 l -0.56804,-0.99219 -0.56805,-0.99219 -0.0845,-0.11024 -0.0845,-0.11024 9.9e-4,0.24253 9.9e-4,0.24254 0.52429,0.85989 0.52429,0.8599 z m 2.12947,0 h 0.1323 v -0.13234 -0.1323 h -0.1323 -0.13229 v 0.1323 0.13229 z m 3.52776,-0.26452 0.10818,-0.32453 0.19573,0.31671 0.19574,0.31671 0.16608,-0.43281 0.16608,-0.4328 -0.30652,0.18944 -0.30651,0.18944 0.1779,-0.50643 0.1779,-0.50642 -0.34561,0.4426 -0.34561,0.4426 -0.31233,-0.4426 -0.31233,-0.4426 0.31656,0.75761 0.31656,0.75762 z m -1.39547,-7e-5 h 0.11667 v -0.11667 -0.11668 l -0.30546,-0.18879 -0.30546,-0.18878 0.18878,0.30546 0.18879,0.30546 z m 2.8948,0 h 0.13229 v -0.13229 -0.13229 h -0.13229 -0.13229 v 0.13229 0.13229 z m -5.82084,-0.26458 h 0.1323 v -0.13229 -0.13229 h -0.1323 -0.13229 v 0.13229 0.13229 z m 2.11667,0 h 0.0757 l 0.13537,-0.35278 0.13538,-0.35278 h -0.34643 -0.34642 l 0.13537,0.35278 0.13537,0.35278 z m 3.43958,-0.26458 h 0.1323 v -0.13234 -0.1323 h -0.1323 -0.13229 v 0.1323 0.13229 z m -5.80521,-0.26459 h 0.11667 v -0.11667 -0.11668 l -0.30546,-0.18879 -0.30546,-0.18878 0.18878,0.30546 0.18879,0.30546 z m 1.04271,0 h 0.1323 v -0.13229 -0.13229 h -0.1323 -0.13229 v 0.13229 0.13229 z m -2.38125,-0.26458 h 0.1323 v -0.13229 -0.13229 h -0.1323 -0.13229 v 0.13229 0.13229 z m 6.87917,0 h 0.13229 v -0.13229 -0.13229 h -0.13229 -0.13229 v 0.13229 0.13229 z m -5.29167,-0.26458 h 0.1323 v -0.13234 -0.1323 h -0.1323 -0.13229 v 0.1323 0.13229 z m 0.52917,0 h 0.13229 v -0.13234 -0.1323 h -0.13229 -0.13229 v 0.1323 0.13229 z m 0.52917,0 h 0.13229 v -0.13234 -0.1323 h -0.13229 -0.13229 v 0.1323 0.13229 z m 0.52916,0 h 0.1323 v -0.13234 -0.1323 h -0.1323 -0.13229 v 0.1323 0.13229 z m 0.52917,0 h 0.13229 v -0.13234 -0.1323 h -0.13229 -0.13229 v 0.1323 0.13229 z m -3.90506,-0.37237 0.11002,-0.11002 -0.40699,-0.75099 -0.40699,-0.751 -0.0106,0.18599 -0.0106,0.18599 0.30757,0.67502 0.30756,0.67503 z m 0.99464,0.10778 h 0.1323 v -0.13229 -0.13229 h -0.1323 -0.13229 v 0.13229 0.13229 z m 3.96875,0 h 0.1323 v -0.13229 -0.13229 h -0.1323 -0.13229 v 0.13229 0.13229 z m 1.87414,-0.004 0.0221,0.004 v -0.37169 -0.37165 l -0.37497,0.14388 -0.37496,0.14389 0.35291,0.22371 0.35292,0.22371 z m -5.31372,-0.26053 h 0.13229 v -0.13229 -0.13229 h -0.13229 -0.13229 v 0.13229 0.13229 z m 0.83616,-0.0882 h 0.32588 l -0.2596,-0.48507 -0.2596,-0.48507 h -0.0663 -0.0663 v 0.48507 0.48507 z m 0.75134,0.0882 h 0.13229 v -0.13229 -0.13229 h -0.13229 -0.13229 v 0.13229 0.13229 z m -13.71221,-0.26458 h 0.0862 v -0.0862 -0.0862 l -0.72761,-0.64144 -0.7276,-0.64143 0.64143,0.72761 0.64144,0.7276 z m 11.33096,0 h 0.13229 v -0.13229 -0.1323 h -0.13229 -0.13229 v 0.1323 0.13229 z m 4.7625,0 h 0.13229 v -0.13229 -0.1323 h -0.13229 -0.13229 v 0.1323 0.13229 z m -2.64583,-0.26459 h 0.13229 v -0.13229 -0.13229 h -0.13229 -0.13229 v 0.13229 0.13229 z m 1.5875,0 h 0.13229 v -0.13229 -0.13229 h -0.13229 -0.13229 v 0.13229 0.13229 z m -6.04132,-0.35277 0.17639,-0.17639 -0.17639,-0.17639 -0.17639,-0.17639 v 0.35278 0.35278 z m 2.41834,-0.56627 0.14812,-0.14811 -0.32877,-0.32632 -0.32876,-0.32632 0.18065,0.47443 0.18065,0.47444 z m 0.44798,0.12529 h 0.13229 v -0.13229 -0.13229 h -0.13229 -0.13229 v 0.13229 0.13229 z m 1.5875,0 h 0.13229 v -0.13229 -0.13229 h -0.13229 -0.13229 v 0.13229 0.13229 z m -4.23334,-0.52916 h 0.1323 v -0.13229 -0.1323 h -0.1323 -0.13229 v 0.1323 0.13229 z m 3.43959,0 h 0.13229 v -0.13229 -0.1323 h -0.13229 -0.13229 v 0.1323 0.13229 z m -0.52917,-0.26459 h 0.13229 v -0.13229 -0.13229 h -0.13229 -0.13229 v 0.13229 0.13229 z m -3.1309,-0.35277 0.17639,-0.17639 -0.17639,-0.17639 -0.17639,-0.17639 v 0.35278 0.35278 z m 1.5434,0.0882 h 0.13229 v -0.13229 -0.1323 h -0.13229 -0.13229 v 0.1323 0.13229 z m 1.32292,-0.26459 h 0.13229 v -0.13228 -0.1323 h -0.13229 -0.13229 v 0.1323 0.13229 z m -6.35,-0.52916 h 0.13229 v -0.13229 -0.1323 h -0.13229 -0.13229 v 0.1323 0.13229 z m 3.20256,-0.0717 0.15985,-0.15985 -0.13896,-0.34727 -0.13897,-0.34727 -0.0209,0.50712 -0.0209,0.50712 z m 0.5016,-0.19293 h 0.1323 v -0.13228 -0.1323 h -0.1323 -0.13229 v 0.1323 0.13229 z m -3.70416,-0.26458 h 0.13229 v -0.13229 -0.13229 h -0.13229 -0.13229 v 0.13229 0.13229 z m 0.16469,-0.79375 h 0.23218 v -0.12298 -0.12299 l -0.59531,-0.31721 -0.59531,-0.31721 0.36312,0.4402 0.36313,0.44019 z m 2.78982,-0.0882 0.17639,-0.17639 -0.17639,-0.17639 -0.17639,-0.17639 v 0.35278 0.35278 z m 0.48507,-0.17639 h 0.13229 v -0.13229 -0.13229 h -0.13229 -0.13229 v 0.13229 0.13229 z m -4.46552,-0.52917 h 0.0999 v -0.0999 -0.0999 l -0.46302,-0.36312 -0.46302,-0.36313 0.36312,0.46302 0.36313,0.46302 z m -13.923021,12.17084 h -0.352777 l 0.176388,-0.17639 0.176389,-0.17639 0.176389,0.17639 0.176389,0.17639 z m 26.039411,-0.0209 -0.50712,-0.0209 0.34727,-0.13896 0.34726,-0.13897 0.15986,0.15986 0.15985,0.15985 z m 3.32934,0.0209 h -0.35278 l 0.17639,-0.17639 0.17639,-0.17639 0.17639,0.17639 0.17639,0.17639 z m -6.90431,-0.2823 -0.10715,-0.0177 -1.00265,-0.54282 -1.00264,-0.54281 -0.67368,-0.88324 -0.67368,-0.88324 0.17853,-0.28887 0.17852,-0.28886 0.37041,0.30741 0.37041,0.30741 -0.1698,0.27474 -0.1698,0.27474 0.3974,0.29059 0.39741,0.2906 0.0326,0.248 0.0326,0.248 0.43214,0.0634 0.43213,0.0634 -0.60327,-0.64216 -0.60327,-0.64215 h 0.21941 0.21942 l -0.43846,-0.48449 -0.43845,-0.4845 0.16866,-0.16866 0.16867,-0.16867 -0.5479,0.10551 -0.54791,0.10552 -0.31934,-0.38479 -0.31935,-0.38479 0.15944,-0.15945 0.15944,-0.15944 -0.40583,-0.78479 -0.40583,-0.7848 0.13334,-0.13334 0.13334,-0.13334 0.53629,1.05121 0.53629,1.05121 -0.1452,0.1452 -0.1452,0.1452 0.48727,-0.0814 0.48726,-0.0814 0.83159,0.7872 0.83158,0.78719 0.57751,-0.30907 0.5775,-0.30907 -0.2753,0.5144 -0.2753,0.51441 0.11038,0.11038 0.11038,0.11039 h -0.49714 -0.49714 l 0.10995,-0.17791 0.10996,-0.17791 -0.46011,-0.36071 -0.46011,-0.36071 0.36313,0.46303 0.36312,0.46302 h -0.20569 -0.2057 l 0.47889,0.52916 0.47889,0.52917 h -0.21431 -0.2143 l 0.47889,0.52917 0.47889,0.52916 z m -0.37173,-2.36353 h 0.13229 v -0.13229 -0.13229 h -0.13229 -0.13229 v 0.13229 0.13229 z m -1.3073,-0.52917 h 0.11667 v -0.11667 -0.11668 l -0.30546,-0.18879 -0.30546,-0.18879 0.18878,0.30547 0.18879,0.30546 z m -22.769786,2.64584 h -0.132291 v -0.1323 -0.13229 h 0.132291 0.132292 v 0.13229 0.1323 z m 3.175,0 h -0.132291 v -0.1323 -0.13229 h 0.132291 0.132292 v 0.13229 0.1323 z m 29.104166,0 h -0.13229 v -0.1323 -0.13229 h 0.13229 0.13229 v 0.13229 0.1323 z m -33.028818,-0.61737 -0.176389,0.17639 v -0.35277 -0.35278 l 0.176389,0.17639 0.176389,0.17639 z m 1.278819,0.0882 h -0.132292 v -0.13229 -0.13229 h 0.132292 0.132292 v 0.13229 0.13229 z m 3.417535,-0.0209 -0.507118,-0.0209 0.347265,-0.13896 0.347266,-0.13896 0.159852,0.15985 0.159853,0.15985 z m 28.993924,0.0209 H 127.237 l 0.17639,-0.17638 0.17639,-0.17639 0.17639,0.17639 0.17639,0.17638 z M 91.871029,161.1328 h -0.352777 l 0.176389,-0.17639 0.176388,-0.17639 0.176389,0.17639 0.176389,0.17639 z m 0.944941,0 h -0.151191 v -0.26458 -0.26458 h 0.308681 0.308681 l -0.181779,-0.18178 -0.181779,-0.18178 -0.589923,-0.0824 -0.589922,-0.0824 -0.723007,-0.0182 -0.723007,-0.0182 -0.150631,-0.24373 -0.150631,-0.24372 0.376502,0.14447 0.376502,0.14448 0.390748,-0.39075 0.390748,-0.39074 1.10102,0.65656 1.10102,0.65657 -0.380421,0.38042 -0.380421,0.38043 z m -0.283482,-1.05833 h 0.132291 v -0.13229 -0.13229 h -0.132291 -0.132292 v 0.13229 0.13229 z m -0.815799,-0.28547 0.507118,0.0209 -0.159852,-0.15985 -0.159853,-0.15986 -0.347265,0.13897 -0.347266,0.13896 z m 2.683497,1.3438 h -0.116677 l -0.163521,-0.26458 -0.163522,-0.26458 h 0.280198 0.280199 v 0.26458 0.26458 z m 2.527144,-0.002 -0.690676,-0.002 -0.726841,-0.37916 -0.726841,-0.37915 -0.331492,-0.20709 -0.331492,-0.20708 -0.36974,-0.0559 -0.36974,-0.0559 -0.360749,-0.36075 -0.36075,-0.36075 0.730489,0.0444 0.73049,0.0444 v 0.0544 0.0544 l 0.487265,0.0922 0.487265,0.0922 0.174193,0.1943 0.174193,0.1943 -0.529166,-0.19079 -0.529167,-0.19079 0.656568,0.61165 0.656567,0.61166 1.600605,-0.0229 1.600605,-0.0229 0.71939,-0.18056 0.719394,-0.18055 v -0.28792 -0.28785 l -0.377535,0.14487 -0.37753,0.14487 -0.316325,-0.38114 -0.316324,-0.38115 h 0.197085 0.197085 l -0.314042,-0.3784 -0.314042,-0.3784 -0.505805,0.0974 -0.505806,0.0974 -0.535466,-0.68074 -0.535466,-0.68073 v 0.21329 0.21328 l 0.43935,0.48548 0.439351,0.48548 -0.17581,0.17581 -0.175811,0.17581 -0.666105,-0.62578 -0.666106,-0.62577 -0.43415,-0.0637 -0.434151,-0.0637 -0.629199,-0.67857 -0.6292,-0.67856 -0.452314,-0.004 -0.452313,-0.004 0.396875,-0.25648 0.396875,-0.25648 -0.42596,-0.004 -0.42596,-0.004 -0.496734,-0.66146 -0.496735,-0.66146 h -0.220683 -0.220684 l -0.439476,-0.43947 -0.439475,-0.43948 0.722958,0.1382 0.722957,0.1382 v -0.2277 -0.22789 h -0.620305 -0.620305 l -0.768757,-0.66113 -0.768757,-0.66114 0.346344,-3.2e-4 0.346344,-3.3e-4 -0.19131,-0.30954 -0.191311,-0.30955 0.461919,0.17726 0.461918,0.17725 0.176798,0.004 0.176797,0.004 -0.396875,0.25648 -0.396875,0.25648 0.463021,0.004 0.463021,0.004 v -0.39626 -0.39688 h -0.259542 -0.259543 l -0.166015,-0.66146 -0.166016,-0.66145 H 89.710065 89.45855 l 0.163521,-0.26459 0.163522,-0.26458 -0.346344,-0.004 -0.346344,-0.004 0.396874,-0.25648 0.396875,-0.25648 -0.374826,-0.004 -0.374826,-0.004 0.163789,-0.16379 0.16379,-0.16379 -0.403825,-0.40383 -0.403826,-0.40382 0.350279,-0.22209 0.350279,-0.22208 -0.346344,-0.004 -0.346344,-0.004 0.163521,-0.26458 0.163522,-0.26458 H 88.69603 88.400216 l 0.163522,-0.26459 0.163521,-0.26458 -0.346344,-0.004 -0.346344,-0.004 0.396875,-0.27035 0.396875,-0.27035 -1.058333,0.18344 -1.058333,0.18345 -0.322315,0.42168 -0.322314,0.42169 -0.0084,-0.43062 -0.0084,-0.43063 0.330729,-0.25975 0.33073,-0.25975 0.860009,-0.16293 0.860009,-0.16293 0.707261,0.2689 0.70726,0.2689 0.612865,0.66129 0.612864,0.6613 0.530756,-0.28406 0.530756,-0.28405 0.794839,0.58765 0.794839,0.58765 v 0.34177 0.34176 l 0.418225,1.04525 0.418225,1.04524 0.811568,0.28292 0.811567,0.28291 0.340795,-0.28283 0.340794,-0.28284 0.556472,0.29782 0.556471,0.29781 0.490251,-0.081 0.490251,-0.081 0.55769,0.50403 0.557688,0.50403 v 0.91149 0.91149 l 0.89959,0.89959 0.89958,0.89958 h 0.70353 0.70353 l -0.14167,0.22922 -0.14166,0.22923 0.58907,0.49838 0.58907,0.49838 -0.50402,-0.59531 -0.50403,-0.59532 h 0.22239 0.22239 l 0.67051,0.59532 0.6705,0.59531 -0.38887,-0.51256 -0.38887,-0.51256 0.50045,0.18789 0.50044,0.18789 -0.34639,-0.41738 -0.34639,-0.41738 -0.51671,-0.27653 -0.51671,-0.27654 0.17983,0.29098 0.17984,0.29098 h -0.26458 -0.26459 l -0.14639,-0.23686 -0.14638,-0.23686 0.41923,-0.16087 0.41923,-0.16088 0.30685,0.18394 0.30686,0.18394 -0.39688,-0.5107 -0.39687,-0.51071 0.66146,0.42604 0.66145,0.42605 0.004,0.23231 0.004,0.23231 0.21267,0.33504 0.21267,0.33505 0.29834,-0.18438 0.29833,-0.18438 -0.6437,0.90767 -0.6437,0.90767 -0.77247,0.66146 -0.77248,0.66146 -0.65806,0.4402 -0.65805,0.4402 -0.34537,-0.13253 -0.34537,-0.13253 -0.55608,0.51808 -0.55609,0.51807 -1.214319,0.16644 -1.214318,0.16644 z m -3.056311,-1.32131 h 0.116677 v -0.11668 -0.11668 l -0.305464,-0.18878 -0.305463,-0.18879 0.188787,0.30546 0.188787,0.30547 z m 6.598971,-0.26459 h 0.13229 v -0.13229 -0.13229 h -0.13229 -0.13229 v 0.13229 0.13229 z m 1.32291,0 h 0.1323 v -0.13229 -0.13229 h -0.1323 -0.13229 v 0.13229 0.13229 z m -1.811072,-0.26458 h 0.09128 v -0.0913 -0.0913 l -0.595319,-0.50403 -0.595312,-0.50403 0.504028,0.59532 0.504028,0.59531 z m 2.316832,0 h 0.10888 l -0.0502,-0.33073 -0.0502,-0.33073 -0.2344,-0.37569 -0.2344,-0.3757 0.39618,0.15203 0.39618,0.15203 v -0.31495 -0.31496 h -0.45334 -0.45333 l 0.0803,0.40633 0.0803,0.40633 0.0533,0.0661 0.0533,0.0662 0.0662,0.26458 0.0661,0.26458 0.0331,0.1323 0.0331,0.13229 z m -1.67378,-0.41084 0.25061,-0.15489 -0.15488,-0.25062 -0.1549,-0.25062 -0.25061,0.15489 -0.25062,0.15489 0.15489,0.25062 0.15489,0.25062 z m -0.15489,-0.11833 h -0.13229 v -0.13229 -0.13229 h 0.13229 0.13229 v 0.13229 0.13229 z m 0.73404,0.26459 h 0.16077 l 0.14499,-0.23461 0.145,-0.2346 -0.46011,-0.36071 -0.46011,-0.36071 0.32844,0.42122 0.32843,0.42122 -0.17409,0.17409 -0.1741,0.1741 z m -1.16928,-1.05834 h 0.12038 l -0.469389,-0.51867 -0.469386,-0.51866 -0.166934,0.0208 -0.166933,0.0208 -0.132292,-0.0576 -0.132292,-0.0576 -0.714676,-0.0645 -0.714676,-0.0645 0.260964,0.48761 0.260965,0.48762 h 0.114678 0.114679 l -0.144465,-0.37647 -0.144464,-0.37647 0.39066,0.0573 0.39066,0.0573 0.423567,0.35153 0.423567,0.35153 v -0.2176 -0.21761 l 0.3175,0.3175 0.3175,0.3175 z m -0.887679,-0.52917 h -0.132292 v -0.13229 -0.13229 h 0.132292 0.132292 v 0.13229 0.13229 z m 3.968749,0.52917 h 0.13229 v -0.1319 -0.1323 h -0.13229 -0.13229 v 0.1323 0.13229 z m -4.762499,-0.26459 h 0.132292 v -0.13229 -0.13229 h -0.132292 -0.132292 v 0.13229 0.13229 z m 2.661449,0 h 0.11668 v -0.11667 -0.11668 l -0.30547,-0.18879 -0.30546,-0.18878 0.18879,0.30546 0.18878,0.30546 z m -5.307282,-0.52916 h 0.132291 v -0.1319 -0.1323 h -0.132291 -0.132292 v 0.1323 0.13229 z m 5.833762,-0.17387 0.38395,-0.14733 v -0.1319 -0.13229 l -0.3665,0.14064 -0.3665,0.14064 -0.62569,-0.39812 -0.625689,-0.39812 0.608239,0.53711 0.60825,0.5371 z m -6.347314,-0.0907 h 0.116677 v -0.11628 -0.11668 l -0.305464,-0.18879 -0.305464,-0.18878 0.188787,0.30546 0.188787,0.30546 z m 0.778135,-0.26458 h 0.132292 v -0.13229 -0.13229 h -0.132292 -0.132292 v 0.13229 0.13229 z m 0.529167,0 h 0.132291 v -0.13229 -0.13229 h -0.132291 -0.132292 v 0.13229 0.13229 z m 2.926031,0 h 0.116677 v -0.11668 -0.11667 l -0.305464,-0.18879 -0.305463,-0.18879 0.188786,0.30547 0.188787,0.30546 z m -4.774478,-0.52917 h 0.11731 l -0.30189,-0.66257 -0.30189,-0.66258 -0.110749,0.11075 -0.110749,0.11075 0.295329,0.55183 0.295329,0.55182 z m 3.70053,0 h 0.132292 v -0.13229 -0.13229 h -0.132292 -0.132292 v 0.13229 0.13229 z m -0.257272,-0.52916 h 0.108373 l -0.156675,-0.40829 -0.156674,-0.40828 -0.126099,0.1261 -0.1261,0.1261 0.174401,0.28218 0.174401,0.28219 z m 6.607271,0 h 0.13229 v -0.1319 -0.1323 h -0.13229 -0.13229 v 0.1323 0.13229 z m -11.813609,-0.40596 0.09264,-0.088 -0.174401,-0.28219 -0.1744,-0.28218 h -0.2594 -0.2594 l 0.34116,0.37019 0.341161,0.37019 z m 5.992777,-0.12321 h 0.132291 v -0.13229 -0.13229 h -0.132291 -0.132292 v 0.13229 0.13229 z m -5.027084,-0.52917 h 0.132292 v -0.13229 -0.13229 h -0.132292 -0.132291 v 0.13229 0.13229 z m 4.7625,0 h 0.132292 v -0.13229 -0.13229 h -0.132292 -0.132291 v 0.13229 0.13229 z m -1.5875,-0.26458 h 0.132292 v -0.13229 -0.13229 h -0.132292 -0.132291 v 0.13229 0.13229 z m -1.322916,-0.26458 h 0.132291 v -0.1319 -0.13229 h -0.132291 -0.132292 v 0.13229 0.13229 z m 3.307291,-0.26459 h 0.352778 l -0.176389,-0.17638 -0.176389,-0.17639 -0.176389,0.17639 -0.176388,0.17638 z m -4.894791,-0.26458 h 0.132291 v -0.13229 -0.13229 h -0.132291 -0.132292 v 0.13229 0.13229 z m 3.682118,-0.0209 0.507118,0.0209 -0.159853,-0.15985 -0.159852,-0.15985 -0.347266,0.13896 -0.347265,0.13897 z m -6.57692,-0.2433 h 0.38126 l -0.0186,-0.33073 -0.0186,-0.33073 -0.250053,-0.52917 -0.250053,-0.52917 0.149798,0.76107 0.149798,0.76107 -0.424057,-0.16272 -0.424057,-0.16273 0.161649,0.26155 0.161648,0.26156 z m 7.789593,-0.0371 0.396875,0.004 -0.529166,-0.21349 -0.529167,-0.21349 -0.926042,-0.15622 -0.926041,-0.15623 1.058333,0.36615 1.058333,0.36615 z m -7.011458,-0.22748 h 0.132292 v -0.13229 -0.13229 h -0.132292 -0.132292 v 0.13229 0.13229 z m 2.645833,-0.26459 h 0.132292 v -0.13229 -0.13229 h -0.132292 -0.132291 v 0.13229 0.13229 z m 4.497917,-0.26458 h 0.132292 v -0.13228 -0.1323 h -0.132292 -0.132292 v 0.1323 0.13229 z m -3.093239,-0.54776 0.08176,0.0186 -0.163522,-0.26458 -0.163521,-0.26459 -0.447406,0.0186 -0.447406,0.0186 0.529166,0.22739 0.529167,0.22739 z m 2.299489,0.0186 h 0.132292 v -0.13229 -0.13229 h -0.132292 -0.132292 v 0.13229 0.13229 z m -4.075159,-0.26458 h 0.238701 v -0.1259 -0.1259 l -0.528178,-0.86629 -0.528178,-0.86629 -9.89e-4,0.15896 -9.89e-4,0.15895 0.290467,0.83323 0.290466,0.83324 z m -3.290237,-0.46303 0.133452,-0.33072 -0.133452,-0.33073 -0.133453,-0.33073 v 0.66146 0.66145 z m 0.51379,-0.1378 0.159853,-0.15985 -0.138965,-0.34727 -0.138964,-0.34726 -0.02089,0.50711 -0.02089,0.50712 z m 0.544543,-0.12678 0.133452,-0.33073 -0.133452,-0.33073 -0.133452,-0.33073 v 0.66146 0.66146 z m 1.324077,0.11024 0.176389,-0.17638 -0.176389,-0.17639 -0.176389,-0.17639 v 0.35278 0.35277 z m -0.573264,-0.44097 h 0.132292 v -0.13229 -0.13229 h -0.132292 -0.132292 v 0.13229 0.13229 z m -2.116667,-0.79375 h 0.132292 v -0.13229 -0.13229 h -0.132292 -0.132291 v 0.13229 0.13229 z m 0.573264,-0.0882 0.176389,-0.17639 -0.176389,-0.17639 -0.176389,-0.17639 v 0.35278 0.35278 z m 0.529167,0 0.176389,-0.17639 -0.176389,-0.17639 -0.176389,-0.17639 v 0.35278 0.35278 z m 1.194178,-0.0902 0.179941,-0.0945 -0.0713,-0.66874 -0.0713,-0.66875 -0.515293,-0.36092 -0.515293,-0.36093 -0.717641,0.0417 -0.717641,0.0417 -1.87e-4,0.33073 -1.87e-4,0.33073 h 0.396875 0.396875 v 0.41249 0.41249 l 0.254933,-0.15756 0.254932,-0.15755 0.472672,0.49684 0.472671,0.49685 z m -2.825775,-0.0861 h 0.132291 v -0.13229 -0.13229 h -0.132291 -0.132292 v 0.13229 0.13229 z m 0.79375,-0.52917 h 0.132291 v -0.13229 -0.13229 h -0.132291 -0.132292 v 0.13229 0.13229 z m -0.529167,-0.26458 h 0.132292 v -0.13229 -0.13229 h -0.132292 -0.132292 v 0.13229 0.13229 z m -0.79375,-0.79375 h 0.132292 v -0.13229 -0.13229 h -0.132292 -0.132292 v 0.13229 0.13229 z m 0.573264,-0.35278 0.176389,-0.17639 -0.176389,-0.17638 -0.176389,-0.17639 v 0.35277 0.35278 z m 0.08819,13.05279 h -0.352777 l 0.176389,-0.17639 0.176388,-0.17639 0.176389,0.17639 0.176389,0.17639 z m 1.322917,0 h -0.352778 l 0.176389,-0.17639 0.176389,-0.17639 0.176389,0.17639 0.176389,0.17639 z m 5.664198,-0.23782 -0.288928,0.23322 -0.198,-0.19614 -0.198001,-0.19614 h -0.500132 -0.500135 l -0.02398,-0.26458 -0.02398,-0.26459 -0.443036,-0.48955 -0.443036,-0.48954 0.528036,0.0927 0.528036,0.0927 -0.03627,-0.46018 -0.03627,-0.46017 0.252749,0.15621 0.252748,0.1562 -0.117192,0.3054 -0.117191,0.3054 0.671873,0.50679 0.671873,0.50679 -0.191459,-0.30978 -0.191459,-0.30979 0.346344,-0.0314 0.346344,-0.0314 0.357281,0.049 0.35728,0.049 -0.160103,-0.25905 -0.160103,-0.25906 0.331989,0.0487 0.331989,0.0487 0.08864,0.25878 0.08865,0.25878 0.254931,0.30717 0.254932,0.30718 -0.211285,0.10603 -0.211285,0.10604 -0.661459,-0.0534 -0.661458,-0.0534 z m 0.569125,-0.55593 h 0.116677 v -0.11668 -0.11668 l -0.305464,-0.18878 -0.305463,-0.18879 0.188787,0.30546 0.188786,0.30547 z m -1.852083,-0.26459 h 0.116677 v -0.11667 -0.11668 l -0.305464,-0.18879 -0.305464,-0.18879 0.188787,0.30547 0.188787,0.30546 z m 2.630218,-0.26458 h 0.132292 v -0.13229 -0.13229 H 98.6179 98.485609 v 0.13229 0.13229 z m -9.11251,1.05833 h -0.248968 l -0.163521,-0.26458 -0.163522,-0.26458 h 0.41249 0.41249 v 0.26458 0.26458 z m 27.36876,-0.26458 h -0.13229 v -0.13229 -0.13229 h 0.13229 0.1323 v 0.13229 0.13229 z m 2.91042,0 h -0.13229 v -0.13229 -0.13229 h 0.13229 0.13228 v 0.13229 0.13229 z m -40.334321,-0.98371 -0.884264,0.85142 0.736291,-0.99939 0.736291,-0.99939 0.147974,0.14797 0.147973,0.14798 z m 42.186401,0.71913 h -0.13229 v -0.1323 -0.13229 h 0.13229 0.1323 v 0.13229 0.1323 z m -43.407797,-1.85209 -1.764273,1.71979 0.304199,-0.59531 0.304198,-0.59531 h 0.283582 0.283582 l -0.152292,-0.39688 -0.152295,-0.39688 h 0.275178 0.275179 l 0.375614,-0.37561 0.375613,-0.37561 -0.196075,-0.11019 -0.196075,-0.11019 0.354606,0.0898 0.354605,0.0898 0.268955,-0.16622 0.268954,-0.16623 -0.358976,-0.22746 -0.358977,-0.22745 0.572014,-0.004 0.572014,-0.004 -0.07033,-0.64071 -0.07033,-0.64071 0.490505,-0.12827 0.490506,-0.12827 v -0.68789 -0.68798 l 0.661458,-0.57513 0.661458,-0.57513 v -0.71364 -0.71364 l 0.334084,-0.27727 0.334084,-0.27726 1.035324,-0.0859 1.035323,-0.0859 0.47957,-0.79375 0.47957,-0.79375 0.250918,-0.52917 0.250919,-0.52916 0.01677,0.33952 0.01677,0.33952 -0.665916,1.31413 -0.665915,1.31412 -0.326272,0.004 -0.326272,0.004 0.396875,0.25648 0.396875,0.25648 -0.309707,0.004 -0.309707,0.004 -0.174336,0.79375 -0.174337,0.79375 h -0.34278 -0.342779 v -0.68508 -0.68509 l -0.402755,-0.40275 -0.402754,-0.40275 -0.177225,0.62481 -0.177225,0.62482 -0.27755,0.72424 -0.27755,0.72424 -0.274757,-0.16981 -0.274757,-0.16981 0.190761,0.30866 0.190762,0.30866 -0.797164,1.38587 -0.797164,1.38586 z m 25.416127,1.5875 h -0.13228 v -0.13229 -0.13229 h 0.13229 0.13229 v 0.13229 0.13229 z m -21.034367,-0.52916 h -0.352778 l 0.176389,-0.17639 0.176389,-0.17639 0.176389,0.17639 0.176389,0.17639 z m 23.671707,-0.30281 -0.46292,0.4351 0.22911,-0.39688 0.2291,-0.39687 -0.067,-0.52917 -0.067,-0.52917 0.30079,0.49094 0.3008,0.49095 z m 21.43975,0.30281 h -0.13229 v -0.1323 -0.13229 h 0.13229 0.13229 v 0.13229 0.1323 z m -45.905207,-0.26459 h -0.352778 l 0.176389,-0.17639 0.176389,-0.17639 0.176389,0.17639 0.176389,0.17639 z m 0.926042,-0.26458 h -0.132292 v -0.13229 -0.13229 h 0.132292 0.132291 v 0.13229 0.13229 z m 45.772915,0 h -0.13229 v -0.13229 -0.13229 h 0.13229 0.13229 v 0.13229 0.13229 z m -40.084374,-0.26458 h -0.352778 l 0.176389,-0.1764 0.176389,-0.17639 0.176389,0.17639 0.176389,0.1764 z m 21.431254,0 h -0.35278 l 0.17639,-0.1764 0.17639,-0.17639 0.17639,0.17639 0.17638,0.1764 z m 8.11389,-0.0882 -0.17639,0.17638 v -0.35278 -0.35278 l 0.17639,0.17639 0.17638,0.17639 z m -35.233685,-0.17639 h -0.132292 v -0.13229 -0.1323 h 0.132292 0.132291 v 0.1323 0.13229 z m 0.926041,0 h -0.352777 l 0.176388,-0.17639 0.176389,-0.17639 0.176389,0.17639 0.176389,0.17639 z m 3.704167,0 h -0.352778 l 0.176389,-0.17639 0.176389,-0.17639 0.176389,0.17639 0.176389,0.17639 z m 1.962326,-0.0209 -0.507118,-0.0209 0.347266,-0.13896 0.347265,-0.13897 0.159853,0.15985 0.159852,0.15986 z m 38.585071,0.0168 -0.19844,-0.004 -0.39687,-0.25648 -0.39688,-0.25648 0.59531,-0.004 0.59532,-0.004 v 0.26458 0.26459 z m -47.129149,-0.45456 -0.328765,0.32632 0.180653,-0.47443 0.180653,-0.47444 0.148113,0.14812 0.148112,0.14811 z m 5.523419,0.19403 h -0.352778 l 0.176389,-0.17639 0.176389,-0.17639 0.176388,0.17639 0.176389,0.17639 z m 1.984375,0 h -0.132292 v -0.13229 -0.1323 h 0.132292 0.132291 v 0.1323 0.13229 z m 2.365635,0 H 90.2523 l 0.166188,-0.2689 0.166189,-0.2689 0.246301,0.15222 0.246301,0.15222 v 0.11668 0.11668 z m 19.67654,-0.004 -0.4474,0.004 -0.16352,-0.26459 -0.16353,-0.26458 0.21406,0.004 0.21405,0.004 0.39687,0.25648 0.39688,0.25648 z m -32.7578,-0.26049 h -0.352778 l 0.176389,-0.17639 0.176389,-0.17639 0.176389,0.17639 0.176389,0.17639 z m 10.451041,-0.26458 H 87.90228 v -0.13229 -0.1323 h 0.132291 0.132292 v 0.1323 0.13229 z M 77.715821,156.8996 H 77.58353 v -0.13229 -0.13229 h 0.132291 0.132292 v 0.13229 0.13229 z m 31.749999,0 h -0.13229 v -0.13229 -0.13229 h 0.13229 0.13229 v 0.13229 0.13229 z m 17.4625,0 h -0.13229 v -0.13229 -0.13229 h 0.13229 0.13229 v 0.13229 0.13229 z m 1.05833,0 h -0.13229 v -0.13229 -0.13229 h 0.13229 0.1323 v 0.13229 0.13229 z m -46.566662,-0.26458 h -0.132292 v -0.13229 -0.13229 h 0.132292 0.132292 v 0.13229 0.13229 z m 22.769782,-0.26458 h -0.11668 l -0.16352,-0.26459 -0.16352,-0.26458 h 0.2802 0.2802 v 0.26458 0.26459 z m 22.73855,0 h -0.13229 v -0.13229 -0.1323 h 0.13229 0.13229 v 0.1323 0.13229 z m -0.26458,-0.52917 h -0.13229 v -0.13229 -0.13229 h 0.13229 0.13229 v 0.13229 0.13229 z m -43.612155,-0.35278 -0.176389,0.17639 v -0.35278 -0.35277 l 0.176389,0.17639 0.176389,0.17638 z m 42.818405,0.0882 h -0.13229 v -0.13228 -0.1323 h 0.13229 0.13229 v 0.1323 0.13229 z m 1.36701,-0.0882 -0.17639,0.17639 v -0.35278 -0.35277 l 0.17639,0.17639 0.17639,0.17638 z m 0.88195,0.0882 h -0.35278 l 0.17639,-0.17639 0.17639,-0.17638 0.17639,0.17638 0.17638,0.17639 z m -2.64584,-0.52916 h -0.35277 l 0.17638,-0.17639 0.17639,-0.17639 0.17639,0.17639 0.17639,0.17639 z m 0.92604,0 h -0.13229 v -0.1323 -0.13229 h 0.13229 0.1323 v 0.13229 0.1323 z m 1.85209,0 h -0.13229 v -0.1323 -0.13229 h 0.13229 0.13229 v 0.13229 0.1323 z m -49.344794,-0.26458 h -0.352777 l 0.176389,-0.17639 0.176388,-0.17639 0.176389,0.17639 0.176389,0.17639 z m 4.233334,0 h -0.352778 l 0.176389,-0.17639 0.176389,-0.17639 0.176389,0.17639 0.176388,0.17639 z m 23.94479,0 h -0.13229 v -0.13229 -0.1323 h 0.13229 0.13229 v 0.1323 0.13229 z m 19.84375,0 h -0.13229 v -0.13229 -0.1323 h 0.13229 0.13229 v 0.1323 0.13229 z m -24.87083,-0.26459 h -0.13229 v -0.13229 -0.13229 h 0.13229 0.13229 v 0.13229 0.13229 z m -18.653127,-0.26458 h -0.352778 l 0.176389,-0.17639 0.176389,-0.17639 0.176389,0.17639 0.176389,0.17639 z m 3.439583,-0.26458 h -0.352778 l 0.176389,-0.17639 0.176389,-0.17639 0.176389,0.17639 0.176389,0.17639 z m 0.935351,0 h -0.122983 l -0.283201,-0.52917 -0.283202,-0.52917 h 0.406185 0.406184 v 0.52917 0.52917 z m -4.42529,-0.26458 h -0.258325 l 0.104731,-0.3142 0.104731,-0.31419 0.314373,-0.10479 0.314373,-0.10479 -0.16078,0.41898 -0.160779,0.41898 z m 19.739763,-0.55006 -0.50712,-0.0209 0.34727,-0.13896 0.34726,-0.13897 0.15986,0.15985 0.15985,0.15986 z m 1.08038,0.0209 h -0.13229 v -0.13229 -0.1323 h 0.13229 0.1323 v 0.1323 0.13229 z m -1.98437,-0.26459 H 101.837 l 0.17639,-0.17638 0.17639,-0.17639 0.17639,0.17639 0.17639,0.17638 z m 5.42396,0 h -0.13229 v -0.13229 -0.13229 h 0.13229 0.13229 v 0.13229 0.13229 z m 12.55209,0 h -0.2802 l 0.16352,-0.26458 0.16353,-0.26458 h 0.11667 0.11668 v 0.26458 0.26458 z m -16.65313,-0.26458 h -0.35278 l 0.17639,-0.17639 0.17639,-0.17639 0.17638,0.17639 0.17639,0.17639 z m 1.5875,0 h -0.26459 v -0.2802 -0.28019 l 0.26459,0.16352 0.26458,0.16352 v 0.11667 0.11668 z m 2.87738,-0.40793 -0.13543,0.13542 -0.89371,-0.92208 -0.89372,-0.92208 h 0.16787 0.16786 l 0.86128,0.78666 0.86127,0.78665 z m 2.28199,0.14335 h -0.13229 v -0.13229 -0.1323 h 0.13229 0.13229 v 0.1323 0.13229 z m -3.42397,-0.26459 h -0.11667 l -0.18879,-0.30546 -0.18879,-0.30546 0.30547,0.18878 0.30546,0.18879 v 0.11668 0.11667 z m 14.93335,-0.0418 h -0.66146 l 0.33073,-0.13345 0.33073,-0.13345 0.33073,0.13345 0.33072,0.13345 z m 2.74689,-0.2228 h -0.39687 l 0.16352,-0.26459 0.16352,-0.26458 h 0.39687 0.39688 l -0.16352,0.26458 -0.16352,0.26459 z m -6.97214,-0.34206 -0.78461,0.0548 -0.203,-0.3194 -0.203,-0.3194 -0.004,-0.25617 -0.004,-0.25616 -1.05834,-0.59938 -1.05833,-0.59938 -0.21405,-0.004 -0.21405,-0.004 0.17983,0.29098 0.17984,0.29098 -0.62724,-0.32682 -0.62725,-0.32682 -0.13229,-0.12932 -0.13229,-0.12932 0.62845,0.19351 0.62844,0.1935 -0.18104,-0.29293 -0.18104,-0.29293 0.34635,-0.0314 0.34634,-0.0314 0.92604,-0.0464 0.92604,-0.0464 0.37536,0.27616 0.37536,0.27616 -0.99549,-1.38907 -0.99549,-1.38906 h 0.16043 0.16043 l -0.6681,-1.05833 -0.66809,-1.05834 h 0.16801 0.168 l -0.25017,-0.33072 -0.25017,-0.33073 -0.0325,-0.62335 -0.0325,-0.62335 0.58098,0.48916 0.58098,0.48917 -0.64143,-0.72571 -0.64144,-0.72572 h -0.30975 -0.30974 l -0.47889,0.52917 -0.47889,0.52917 h -0.43524 -0.43525 l -0.37662,-0.33073 -0.37663,-0.33073 0.52215,0.64079 0.52215,0.6408 -0.34232,-0.20055 -0.34232,-0.20055 -0.38855,0.32246 -0.38855,0.32247 0.2746,0.33087 0.2746,0.33087 -0.37776,0.14496 -0.37776,0.14496 -0.12321,-0.1232 -0.1232,-0.12321 0.10132,-1.57836 0.10132,-1.57835 h -0.24967 -0.24967 l -0.41577,0.41577 -0.41577,0.41578 v 0.32847 0.32848 l -0.74209,0.71096 -0.74208,0.71095 h -0.22094 -0.22093 l -0.36484,-0.46302 -0.36484,-0.46302 -0.67303,0.83734 -0.67302,0.83733 -0.57881,1.14704 -0.5788,1.14704 -0.92604,0.13229 -0.92604,0.1323 -0.51709,0.96573 -0.51709,0.96573 -1.143634,0.55562 -1.143636,0.55562 h -0.537704 -0.537703 l 0.153937,-0.24907 0.153937,-0.24908 -0.998218,-0.11347 -0.998218,-0.11347 1.542257,0.0748 1.542257,0.0748 -0.139768,-0.13977 -0.139768,-0.13977 -0.873322,-0.22669 -0.873323,-0.22669 1.209188,0.13414 1.209187,0.13415 0.642896,-0.25689 0.642896,-0.25689 -1.455208,-0.0565 -1.455209,-0.0565 1.190625,-0.17295 1.190625,-0.17295 -0.79375,-0.14454 -0.79375,-0.14454 1.455209,-0.0853 1.455207,-0.0853 -1.719791,-0.17325 -1.719791,-0.17325 1.984375,-0.0854 1.984377,-0.0854 -1.19063,-0.18511 -1.190622,-0.18511 1.804832,-0.0397 1.80484,-0.0397 0.401,-0.401 0.40101,-0.40101 -0.75063,0.0525 -0.75064,0.0525 -0.92604,-0.09 -0.926039,-0.09 1.322919,-0.18144 1.32291,-0.18145 -1.32291,-0.0583 -1.322919,-0.0583 0.529169,-0.20823 0.52916,-0.20822 1.30483,-0.0435 1.30482,-0.0435 0.12834,-0.12834 0.12833,-0.12833 h -2.60173 -2.601738 l 0.120683,-0.12069 0.120683,-0.12068 2.436952,-0.0444 2.43696,-0.0444 v -0.2158 -0.21581 l -0.99219,-0.10379 -0.99219,-0.10378 1.19063,-0.0485 1.19062,-0.0485 0.39688,-0.28349 0.39687,-0.28348 -0.63342,0.14044 -0.63343,0.14044 0.2669,-0.2669 0.2669,-0.2669 1.66784,-0.0605 1.66785,-0.0605 0.20095,-0.3854 0.20094,-0.3854 0.11934,-0.40116 0.11935,-0.40117 0.69828,-0.3737 0.69828,-0.37371 0.86771,0.84102 0.86771,0.84101 0.25198,-0.006 0.25199,-0.006 0.66146,-0.5174 0.66146,-0.5174 0.381,-0.006 0.38101,-0.006 0.94191,1.02703 0.94191,1.02702 1.05833,0.52783 1.05834,0.52783 0.83951,-0.12668 0.83951,-0.12669 0.67329,1.06657 0.6733,1.06657 0.68653,0.48183 0.68653,0.48182 0.77232,0.6147 0.77231,0.6147 0.53792,-0.17073 0.53792,-0.17073 -0.15175,-0.24553 -0.15175,-0.24554 h 0.95727 0.95728 l -0.16353,-0.26458 -0.16352,-0.26458 0.34635,0.0186 0.34634,0.0186 0.52917,0.22739 0.52916,0.22739 -0.39687,0.0226 -0.39688,0.0226 0.37682,0.23848 0.37681,0.23848 -1.02207,-0.095 -1.02207,-0.095 -0.26322,0.16268 -0.26322,0.16269 0.5116,0.20034 0.5116,0.20035 -0.66145,0.0226 -0.66146,0.0226 0.35587,0.22554 0.35587,0.22553 -0.69742,0.17505 -0.69742,0.17504 0.15873,0.25682 0.15872,0.25683 h -0.69446 -0.69447 l -0.50938,0.27261 -0.50939,0.27262 -0.86228,-0.44577 -0.86229,-0.44577 -0.98433,-0.79086 -0.98434,-0.79086 0.11629,-0.18815 0.11628,-0.18815 -0.71756,-0.63377 -0.71755,-0.63377 0.50213,0.59531 0.50214,0.59531 h -0.21431 -0.2143 l 0.45405,0.50173 0.45406,0.50172 -0.34691,0.14077 -0.3469,0.14076 0.86407,0.81272 0.86407,0.81272 0.45885,-9.9e-4 0.45884,-9.9e-4 -0.83102,-0.50673 -0.83103,-0.50674 -0.17677,-0.28602 -0.17678,-0.28603 h 0.26458 0.26459 l 0.16505,0.26705 0.16505,0.26706 0.97504,0.515 0.97504,0.515 -0.46302,0.0117 -0.46302,0.0117 -1.8e-4,0.19844 -1.9e-4,0.19843 -0.72742,0.0826 -0.72742,0.0826 -0.46302,0.0402 -0.46302,0.0402 -5.2e-4,0.14175 -5.3e-4,0.14174 z m -0.45549,-0.19116 0.31511,-0.004 0.33578,-0.21312 0.33578,-0.21312 -0.66651,-0.35671 -0.66651,-0.3567 v -0.2414 -0.24145 l 0.99219,0.60535 0.99219,0.60534 -0.36313,-0.45147 -0.36312,-0.45148 h 0.26458 0.26458 l 0.29469,0.35507 0.29468,0.35508 -0.15616,0.15616 -0.15617,0.15617 0.54052,-0.14135 0.54053,-0.14135 -1.10967,-0.85737 -1.10967,-0.85737 -0.49793,0.33841 -0.49794,0.33841 -0.58152,-0.38103 -0.58151,-0.38102 -0.15466,0.15466 -0.15466,0.15465 -0.55182,-0.29533 -0.55183,-0.29533 v 0.13481 0.13481 l 0.79375,0.41046 0.79375,0.41046 0.004,-0.20523 0.004,-0.20523 0.19439,0.27371 0.19438,0.2737 0.79375,0.619 0.79375,0.619 -0.62844,-0.19345 -0.62845,-0.19344 0.18104,0.29293 0.18104,0.29293 z m 0.74322,-1.31887 h -0.26459 l -0.16352,-0.26458 -0.16352,-0.26458 h 0.26458 0.26459 l 0.16352,0.26458 0.16352,0.26458 z m -2.28019,-0.52916 h -0.13229 v -0.13229 -0.1323 h 0.13229 0.13229 v 0.1323 0.13229 z m 7.01453,0.65956 0.34941,-0.21595 -0.74597,-0.59481 -0.74596,-0.59482 -0.39972,0.15339 -0.39972,0.15339 0.17278,-0.27957 0.17278,-0.27957 -0.44475,-0.36071 -0.44475,-0.3607 0.19869,0.33073 0.1987,0.33072 h -0.3369 -0.33689 l 0.43075,0.43076 0.43076,0.43075 0.66916,0.0735 0.66916,0.0734 0.28401,0.17553 0.28402,0.17554 -0.17749,0.28718 -0.17749,0.28718 z m -1.1937,-0.92415 h -0.13229 v -0.13228 -0.1323 h 0.13229 0.13229 v 0.1323 0.13229 z m -0.79375,-0.52916 h -0.13229 v -0.13229 -0.1323 h 0.13229 0.13229 v 0.1323 0.13229 z m 2.11667,0.52916 h 0.13229 v -0.13228 -0.1323 h -0.13229 -0.13229 v 0.1323 0.13229 z m -1.32292,-0.79375 h 0.13229 v -0.13228 -0.1323 h -0.13229 -0.13229 v 0.1323 0.13229 z m -4.44735,-0.52916 h 0.0817 v -0.12298 -0.12298 l -0.59532,-0.28849 -0.59531,-0.28849 0.51359,0.41147 0.51359,0.41147 z m -1.37348,-1.32292 h 0.13229 v -0.13229 -0.13229 h -0.13229 -0.13229 v 0.13229 0.13229 z m 4.49791,0 h 0.1323 v -0.13229 -0.13229 h -0.1323 -0.13229 v 0.13229 0.13229 z m -3.96875,-0.26458 h 0.1323 v -0.13229 -0.1323 h -0.1323 -0.13229 v 0.1323 0.13229 z m 1.60312,0 h 0.11668 v -0.11668 -0.11668 l -0.30547,-0.18878 -0.30546,-0.18879 0.18879,0.30546 0.18878,0.30547 z m 1.61308,0 h 0.0745 l -0.17353,-0.46302 -0.17352,-0.46302 0.44641,0.36312 0.44641,0.36313 -0.006,-0.23084 -0.006,-0.23083 -0.45714,-0.58951 -0.45714,-0.5895 -0.61125,0.16151 -0.61126,0.16151 0.7269,0.75873 0.72691,0.75872 z m -3.74536,-0.26459 h 0.13229 v -0.13228 -0.1323 h -0.13229 -0.13229 v 0.1323 0.13229 z m 0.26458,-0.52916 h 0.13229 v -0.13229 -0.1323 h -0.13229 -0.13229 v 0.1323 0.13229 z m -0.51355,-0.26459 h 0.11668 v -0.11667 -0.11668 l -0.30547,-0.18879 -0.30546,-0.18878 0.18879,0.30546 0.18878,0.30546 z m -0.79375,-1.32291 h 0.11668 v -0.11668 -0.11668 l -0.30547,-0.18878 -0.30546,-0.18879 0.18879,0.30546 0.18878,0.30547 z m -6.10103,7.40833 h -0.13229 v -0.13229 -0.13229 h 0.13229 0.13229 v 0.13229 0.13229 z m 17.72708,-0.28456 -0.52917,0.004 0.39688,-0.22617 0.39687,-0.22618 0.92605,-0.15935 0.92604,-0.15935 -0.79375,0.38164 -0.79375,0.38163 z m -23.28333,-0.2446 h -0.13229 v -0.13229 -0.1323 h 0.13229 0.13229 v 0.1323 0.13229 z m -7.143752,-0.33131 -1.058334,-0.005 0.598398,-0.11506 0.598397,-0.11507 0.459936,0.1204 0.459936,0.12041 z m 29.368752,0.0667 h -0.13229 v -0.13229 -0.13229 h 0.13229 0.13229 v 0.13229 0.13229 z M 102.05749,150.285 h -0.13229 v -0.13229 -0.13229 h 0.13229 0.13229 v 0.13229 0.13229 z m 4.36562,0 h -0.35278 l 0.17639,-0.17639 0.17639,-0.17639 0.17639,0.17639 0.17639,0.17639 z m 5.3229,0 h -0.26458 l -0.15532,-0.25131 -0.15532,-0.25131 0.51919,-0.27785 0.51918,-0.27786 0.21583,0.008 0.21583,0.008 -0.46858,0.2728 -0.46859,0.2728 0.15347,0.24832 0.15347,0.24832 z m 14.10193,-0.0209 -0.50712,-0.0209 0.34727,-0.13896 0.34726,-0.13897 0.15986,0.15986 0.15985,0.15985 z m 3.9971,0.0209 h -0.37195 l -0.15638,-0.25303 -0.15638,-0.25302 -0.32225,0.0774 -0.32226,0.0774 0.19844,-0.11098 0.19844,-0.11098 v -0.38313 -0.38313 l 0.40465,-0.15528 0.40465,-0.15528 -0.4708,-0.38018 -0.4708,-0.38018 0.57469,0.27745 0.57468,0.27745 0.41698,0.41698 0.41698,0.41698 -0.27337,0.5108 -0.27337,0.51079 z m 0.1416,-0.52916 h 0.24897 v -0.22049 -0.22049 l -0.16919,-0.16919 -0.1692,-0.1692 -0.23199,0.14338 -0.232,0.14338 0.15222,0.2463 0.15223,0.24631 z m -26.62828,0.24369 -0.50712,-0.0209 0.34726,-0.13896 0.34727,-0.13897 0.15985,0.15985 0.15985,0.15986 z m 1.19705,0.0209 h -0.28019 l 0.16352,-0.26458 0.16352,-0.26459 h 0.11668 0.11667 v 0.26459 0.26458 z m 0.79375,0 h -0.24896 v -0.26458 -0.26459 h 0.41249 0.41249 l -0.16353,0.26459 -0.16352,0.26458 z m 21.43125,0 h -0.28019 l 0.16352,-0.26458 0.16352,-0.26459 h 0.11668 0.11667 v 0.26459 0.26458 z m -1.57188,-0.26458 h -0.35278 l 0.17639,-0.17639 0.17639,-0.17639 0.17639,0.17639 0.17639,0.17639 z m -14.40418,-0.26459 h -0.11667 l -0.18879,-0.30546 -0.18879,-0.30546 0.30547,0.18878 0.30546,0.18879 v 0.11668 0.11667 z m 17.29898,0 h -0.2802 l 0.16352,-0.26458 0.16353,-0.26458 h 0.11667 0.11668 v 0.26458 0.26458 z m -19.03438,-0.26458 h -0.35278 l 0.17639,-0.17639 0.17639,-0.17639 0.17639,0.17639 0.17638,0.17639 z m -13.361462,-0.26459 h -0.132292 v -0.13229 -0.13229 h 0.132292 0.132291 v 0.13229 0.13229 z m 1.058333,0 h -0.132292 v -0.13229 -0.13229 h 0.132292 0.132292 v 0.13229 0.13229 z m 11.355029,-0.28547 -0.50711,-0.0209 0.34726,-0.13896 0.34727,-0.13896 0.15985,0.15985 0.15985,0.15985 z m 23.0849,0.0209 h -0.35278 l -0.15815,-0.15816 -0.15816,-0.15815 0.12391,-0.32291 0.1239,-0.3229 -0.73745,-0.0267 -0.73745,-0.0267 -1.05833,-0.40667 -1.05834,-0.40667 0.59532,-0.0116 0.59531,-0.0116 v -0.2739 -0.27389 l 0.59531,0.28154 0.59531,0.28153 -0.59531,-0.43679 -0.59531,-0.43679 v -0.26026 -0.26026 l -0.68167,-0.81012 -0.68167,-0.81012 0.41918,-0.23458 0.41918,-0.23459 0.24421,0.15093 0.24421,0.15093 0.16618,-0.2689 0.16619,-0.2689 h -0.2802 -0.28019 v -0.2899 -0.28989 l -0.59429,-0.83459 -0.59428,-0.8346 0.0651,-0.0661 0.0651,-0.0661 -0.0341,-0.0662 -0.0341,-0.0661 -0.0972,-0.79375 -0.0972,-0.79375 -0.013,-0.52162 -0.013,-0.52163 -0.36083,-0.40441 -0.36084,-0.40442 -0.0804,-0.79391 -0.0804,-0.79391 0.17123,-0.27705 0.17123,-0.27706 -0.18098,-0.28244 -0.18098,-0.28243 -0.60271,-0.18813 -0.60271,-0.18813 -0.46221,0.57081 -0.46221,0.5708 -0.74894,-0.34123 -0.74893,-0.34124 -0.76303,0.91508 -0.76304,0.91509 -0.28297,1.0122 -0.28297,1.0122 -0.96312,0.40242 -0.96313,0.40242 -1.33556,1.16832 -1.33555,1.16831 -0.34531,-0.13251 -0.3453,-0.13251 0.16164,0.26156 0.16165,0.26155 h -0.25189 -0.25189 l -0.15229,-0.39688 -0.1523,-0.39687 0.85159,-0.0348 0.85159,-0.0348 -0.92604,-0.19492 -0.92604,-0.19493 1.10887,-0.0348 1.10886,-0.0348 0.15239,-0.24657 0.1524,-0.24658 -0.7321,-0.11065 -0.73209,-0.11066 0.95171,-0.0396 0.9517,-0.0396 0.61014,-0.52917 0.61013,-0.52916 h 0.42504 0.42504 l 0.31577,-0.50564 0.31578,-0.50564 -0.38442,-0.14752 -0.38443,-0.14751 v -0.25449 -0.25448 l 0.46302,-0.11351 0.46302,-0.1135 -1.32291,0.077 -1.32292,0.0771 1.43371,-0.29118 1.43371,-0.29118 0.46247,-0.46247 0.46247,-0.46247 -0.15434,-0.15434 -0.15434,-0.15434 0.37483,-0.0254 0.37482,-0.0254 -1.32291,-0.34883 -1.32292,-0.34882 1.45521,0.10485 1.45521,0.10486 -0.66146,-0.25333 -0.66146,-0.25333 0.79375,0.10094 0.79375,0.10093 1.05833,0.17909 1.05834,0.1791 -0.39688,-0.28245 -0.39687,-0.28244 0.52916,-0.0304 0.52917,-0.0304 -0.66146,-0.21184 -0.66146,-0.21183 0.45767,-0.0264 0.45767,-0.0264 0.99754,0.3834 0.99754,0.38341 1.19063,0.28507 1.19062,0.28506 1.52307,0.70391 1.52307,0.70392 -0.33244,0.23806 -0.33245,0.23807 0.59568,-0.13057 0.59568,-0.13057 -0.14828,0.23991 -0.14827,0.23991 h 0.3243 0.32429 l -0.13969,0.13969 -0.13969,0.1397 -0.72036,-0.27388 -0.72036,-0.27388 -0.29522,0.18246 -0.29522,0.18246 1.04503,0.48579 1.04503,0.4858 -0.5957,-0.11253 -0.5957,-0.11252 0.4574,0.77431 0.4574,0.77431 0.39482,-0.15151 0.39482,-0.1515 -0.19663,0.19662 -0.19662,0.19662 0.73386,0.35052 0.73385,0.35052 -0.46302,-0.12798 -0.46302,-0.12798 -0.39536,0.15172 -0.39535,0.15171 0.14638,0.23686 0.14639,0.23686 h 0.26458 0.26459 l -0.16353,-0.26459 -0.16352,-0.26458 0.21406,0.004 0.21405,0.004 0.35587,0.22554 0.35587,0.22554 -0.75275,0.1976 -0.75274,0.1976 0.52916,0.21567 0.52917,0.21567 -0.47863,0.0186 -0.47864,0.0186 0.16352,0.26458 0.16352,0.26459 h -0.1653 -0.1653 l -0.57792,-0.30791 -0.57792,-0.3079 0.36313,0.4402 0.36313,0.44019 h -0.12404 -0.12404 l -0.76825,-0.38131 -0.76826,-0.38132 -0.70511,-0.12625 -0.7051,-0.12625 -0.15068,0.15067 -0.15068,0.15068 0.45891,0.37653 0.45891,0.37652 -0.65398,-0.1425 -0.65397,-0.1425 0.78627,0.67117 0.78626,0.67117 -0.39687,-0.19691 -0.39688,-0.19691 0.52917,0.62013 0.52917,0.62012 -0.37161,-0.21865 -0.37161,-0.21865 0.17749,0.28718 0.17748,0.28718 -0.28048,0.17335 -0.28049,0.17336 -0.34119,-0.28317 -0.34119,-0.28316 v 0.40399 0.40398 l 0.94809,0.83487 0.94809,0.83486 -0.0793,0.25164 -0.0793,0.25163 0.14358,0.37417 0.14359,0.37417 0.2793,-0.17262 0.2793,-0.17261 -0.30983,-0.37332 -0.30983,-0.37332 h 0.18208 0.18208 l 0.51178,0.27389 0.51177,0.27389 v 0.78444 0.78444 z m -1.4993,-1.07612 0.13229,9.6e-4 -0.51359,-0.38846 -0.51359,-0.38846 -0.28016,0.009 -0.28016,0.009 0.66146,0.37812 0.66145,0.37813 z m 1.4552,0.0178 h 0.1323 v -0.13229 -0.1323 h -0.1323 -0.13229 v 0.1323 0.13229 z m -3.43958,-3.70417 h 0.13229 v -0.13229 -0.13229 h -0.13229 -0.13229 v 0.13229 0.13229 z m 4.23333,-2.64583 h 0.1323 v -0.13229 -0.1323 h -0.1323 -0.13229 v 0.1323 0.13229 z m -1.19062,-0.26458 h 0.26458 v -0.26459 -0.26458 h -0.26458 -0.26458 v 0.26458 0.26459 z m -2.88782,-0.41085 0.25062,-0.15489 -0.15489,-0.25061 -0.15489,-0.25062 -0.25062,0.15489 -0.25062,0.15489 0.15489,0.25062 0.15489,0.25061 z m -0.15489,-0.11832 h -0.13229 v -0.13229 -0.1323 h 0.13229 0.13229 v 0.1323 0.13229 z m 1.60312,0.26458 h 0.11667 v -0.0999 -0.0999 l -0.37332,-0.30983 -0.37332,-0.30982 -0.19672,0.31831 -0.19673,0.31831 0.28718,-0.17749 0.28718,-0.17749 0.16619,0.2689 0.16619,0.2689 z m 2.64583,0 h 0.11668 v -0.11667 -0.11668 l -0.30547,-0.18879 -0.30546,-0.18878 0.18879,0.30546 0.18878,0.30546 z m -2.09989,-0.26458 h 0.0999 v -0.0999 -0.0999 l -0.46302,-0.36313 -0.46302,-0.36312 0.36312,0.46302 0.36313,0.46302 z m 1.83531,-0.52917 h 0.11667 v -0.11667 -0.11668 l -0.30546,-0.18879 -0.30546,-0.18878 0.18878,0.30546 0.18879,0.30546 z m -4.24895,-0.26458 h 0.13229 v -0.13229 -0.1323 h -0.13229 -0.13229 v 0.1323 0.13229 z m 0.52916,0 h 0.1323 v -0.13229 -0.1323 h -0.1323 -0.13229 v 0.1323 0.13229 z m 2.39687,0 h 0.11668 v -0.11668 -0.11667 l -0.30547,-0.18879 -0.30546,-0.18879 0.18879,0.30547 0.18878,0.30546 z m -1.60312,-0.52917 h 0.1323 v -0.13229 -0.13229 h -0.1323 -0.13229 v 0.13229 0.13229 z m 0.26459,-0.52916 h 0.13229 v -0.1323 -0.13229 h -0.13229 -0.13229 v 0.13229 0.1323 z m -0.0933,-0.85685 0.18526,-0.29975 0.39622,0.32883 0.39623,0.32884 -0.12758,-0.48787 -0.12758,-0.48787 -1.17087,-0.27165 -1.17087,-0.27165 0.45937,0.54596 0.45937,0.54596 0.2576,0.18448 0.2576,0.18447 z m -1.4942,0.0631 h 0.13229 v -0.13229 -0.1323 h -0.13229 -0.13229 v 0.1323 0.13229 z m 2.77812,-0.26459 h 0.35278 l -0.17639,-0.17639 -0.17639,-0.17638 -0.17639,0.17638 -0.17638,0.17639 z m -10.47309,-0.28547 0.50712,0.0209 -0.15985,-0.15985 -0.15985,-0.15985 -0.34727,0.13896 -0.34727,0.13897 z m 7.43038,0.0209 h 0.1323 v -0.13229 -0.1323 h -0.1323 -0.13229 v 0.1323 0.13229 z m 2.24896,-0.57457 0.39688,0.0267 0.60981,-0.33842 0.60981,-0.33843 -0.6581,-0.29985 -0.65811,-0.29986 0.0992,0.51537 0.0992,0.51536 h -0.23378 -0.23378 l -0.17017,-0.27535 -0.17017,-0.27535 -0.44076,0.13702 -0.44075,0.13701 -0.35292,-0.22172 -0.35291,-0.22172 0.43823,-0.16817 0.43822,-0.16816 0.46591,0.24934 0.4659,0.24935 v -0.37095 -0.37094 l -0.20221,0.12497 -0.2022,0.12496 -0.16886,-0.27321 -0.16885,-0.27322 -0.24083,0.14885 -0.24084,0.14884 -0.53463,-0.28613 -0.53464,-0.28613 v 0.2739 0.27389 l 0.46302,0.004 0.46302,0.004 -0.37986,0.24037 -0.37986,0.24036 0.33293,0.40116 0.33293,0.40115 0.5761,0.11215 0.5761,0.11214 z m 0.79375,-0.48376 h -0.35277 l 0.17638,-0.17639 0.17639,-0.17639 0.17639,0.17639 0.17639,0.17639 z m -3.57187,0.26458 h 0.13229 v -0.13229 -0.1323 h -0.13229 -0.13229 v 0.1323 0.13229 z m -5.82084,-0.52916 h 0.1323 v -0.1323 -0.13229 h -0.1323 -0.13229 v 0.13229 0.1323 z m 5.55625,0 h 0.1323 v -0.1323 -0.13229 h -0.1323 -0.13229 v 0.13229 0.1323 z m 1.98438,0 h 0.35278 l -0.17639,-0.17639 -0.17639,-0.17639 -0.17639,0.17639 -0.17639,0.17639 z m -4.63021,-1.05834 h 0.13229 v -0.13229 -0.1323 h -0.13229 -0.13229 v 0.1323 0.13229 z m -26.590624,13.49375 h -0.352778 l 0.176389,-0.17639 0.176389,-0.17639 0.176389,0.17639 0.176389,0.17639 z m 31.088544,0 h -0.13229 v -0.13229 -0.1323 h 0.13229 0.13229 v 0.1323 0.13229 z m -32.676044,-0.26459 h -0.352778 l 0.176389,-0.17638 0.176389,-0.17639 0.176389,0.17639 0.176389,0.17638 z m 11.773954,0 h -0.13229 v -0.13229 -0.13229 h 0.13229 0.1323 v 0.13229 0.13229 z m 4.8066,-0.35277 -0.17639,0.17639 v -0.35278 -0.35278 l 0.17639,0.17639 0.17639,0.17639 z m 6.3059,0.0882 h -0.13229 v -0.13229 -0.1323 h 0.13229 0.1323 v 0.1323 0.13229 z m 9.92188,0 h -0.35278 l 0.17639,-0.17639 0.17639,-0.17639 0.17639,0.17639 0.17639,0.17639 z m -14.69999,-0.26459 h -0.41249 l 0.16619,-0.2689 0.16619,-0.26889 0.2463,0.15222 0.2463,0.15222 v 0.11668 0.11667 z m -1.04272,-0.55181 -0.52916,-0.0145 0.52916,-0.22739 0.52917,-0.22739 0.39687,-0.0145 0.39688,-0.0145 -0.39688,0.25648 -0.39687,0.25648 z m -12.964582,-0.24193 h -0.132292 v -0.13229 -0.1323 h 0.132292 0.132291 v 0.1323 0.13229 z m 0.926042,0 h -0.35278 l 0.17639,-0.17639 0.17639,-0.17639 0.17639,0.17639 0.17639,0.17639 z m 7.14375,0 h -0.35278 l 0.17639,-0.17639 0.17639,-0.17639 0.17639,0.17639 0.17639,0.17639 z m 4.7625,-0.26459 h -0.35278 l 0.17639,-0.17638 0.17639,-0.17639 0.17639,0.17639 0.17639,0.17638 z m 10.84792,0 h -0.635 l 0.3175,-0.3175 0.3175,-0.31749 0.3175,0.31749 0.3175,0.3175 z m 7.73906,-0.0156 -0.19844,-0.0156 -0.93068,-0.61081 -0.93068,-0.61082 -0.39224,-0.48675 -0.39223,-0.48675 1.05833,0.78196 1.05833,0.78196 -0.34177,-0.43685 -0.34177,-0.43684 0.32839,-0.10947 0.3284,-0.10946 -0.46339,-0.17782 -0.46338,-0.17782 0.18691,0.30244 0.18692,0.30243 -0.32852,-0.20304 -0.32852,-0.20303 0.29424,-0.29424 0.29424,-0.29424 0.51898,0.3241 0.51897,0.3241 h 0.1515 0.15149 l -0.16352,-0.26458 -0.16352,-0.26458 h 0.2802 0.2802 v 0.21166 0.21167 l -0.3175,0.3175 -0.3175,0.3175 h 0.3175 0.3175 v 0.2802 0.2802 l -0.33073,-0.18672 -0.33073,-0.18673 0.33073,0.35632 0.33073,0.35631 v 0.21167 0.21167 z m -22.82031,-0.24901 h -0.35278 l 0.17639,-0.17639 0.17639,-0.17639 0.17639,0.17639 0.17638,0.17639 z m 13.74271,0 h -0.28019 l 0.16352,-0.26459 0.16352,-0.26458 h 0.11668 0.11667 v 0.26458 0.26459 z m -12.94896,-0.52917 h -0.35278 l 0.17639,-0.17639 0.17639,-0.17639 0.17639,0.17639 0.17638,0.17639 z m 16.66875,-0.0128 -0.1323,-0.005 -0.59531,-0.49663 -0.59531,-0.49663 v -0.17164 -0.17164 l 0.23686,0.14639 0.23686,0.14638 0.15171,-0.39535 0.15171,-0.39536 h 0.38313 0.38313 l 0.12127,-0.33073 0.12127,-0.33073 0.35057,0.33073 0.35057,0.33073 h -0.28081 -0.28081 l 0.13183,0.6896 0.13182,0.68961 -0.36695,0.23238 -0.36695,0.23239 z m 0.30592,-0.67415 0.26935,-0.16647 -0.28323,-0.28323 -0.28322,-0.28323 -0.1632,0.1632 -0.1632,0.1632 0.17707,0.2865 0.17707,0.2865 z m -13.00592,0.42242 h -0.35278 l 0.17639,-0.17639 0.17639,-0.17639 0.17639,0.17639 0.17638,0.17639 z m -3.70417,-0.26458 h -0.26458 v -0.2802 -0.2802 l 0.26458,0.16352 0.26458,0.16353 v 0.11667 0.11668 z m 11.55347,-0.0882 -0.17639,0.17639 v -0.35278 -0.35278 l 0.17639,0.17639 0.17639,0.17639 z m 2.99861,0.0882 h -0.35277 l 0.17638,-0.17639 0.17639,-0.17639 0.17639,0.17639 0.17639,0.17639 z m -31.088539,-0.52917 h -0.132292 v -0.13229 -0.13229 h 0.132292 0.132292 v 0.13229 0.13229 z m 1.719792,0 h -0.352778 l 0.176389,-0.17639 0.176389,-0.17639 0.176389,0.17639 0.176388,0.17639 z m 2.778125,0 h -0.132292 v -0.13229 -0.13229 h 0.132292 0.132291 v 0.13229 0.13229 z m -3.439584,-0.27268 h -0.264583 l -0.396875,-0.25649 -0.396875,-0.25647 h 0.264583 0.264584 l 0.396875,0.25647 0.396875,0.25649 z m 1.556271,0.008 h -0.132292 l 0.163521,-0.26459 0.163522,-0.26458 h 0.132292 0.132291 l -0.163521,0.26458 -0.163522,0.26459 z m 0.957271,0 h -0.352778 l 0.176389,-0.17639 0.176389,-0.17639 0.176389,0.17639 0.176389,0.17639 z m -4.630208,-0.26459 h -0.132292 v -0.13229 -0.13229 h 0.132292 0.132291 v 0.13229 0.13229 z m 3.042708,0 h -0.352778 l 0.176389,-0.17639 0.176389,-0.17639 0.176389,0.17639 0.176389,0.17639 z m 2.645833,0 h -0.352777 l 0.176388,-0.17639 0.176389,-0.17639 0.176389,0.17639 0.176389,0.17639 z m 4.101041,-0.26458 h -0.13229 v -0.13229 -0.13229 h 0.13229 0.13229 v 0.13229 0.13229 z m 8.86354,0 h -0.35277 l 0.17638,-0.17639 0.17639,-0.17639 0.17639,0.17639 0.17639,0.17639 z m -11.509372,-0.26458 h -0.132292 v -0.13229 -0.1323 h 0.132292 0.132291 v 0.1323 0.13229 z m 1.719792,0 h -0.35278 l 0.17639,-0.17639 0.17639,-0.17639 0.17639,0.17639 0.17639,0.17639 z m 1.05833,-0.26459 h -0.35278 l 0.17639,-0.17638 0.17639,-0.17639 0.17639,0.17639 0.17639,0.17638 z m 1.16858,-0.0209 -0.50712,-0.0209 0.34727,-0.13896 0.34726,-0.13896 0.15986,0.15985 0.15985,0.15985 z m -2.75608,-0.24369 h -0.352775 l 0.176389,-0.17639 0.176386,-0.17639 0.17639,0.17639 0.17639,0.17639 z m 4.89479,-0.26458 h -0.13229 v -0.13229 -0.1323 h 0.13229 0.1323 v 0.1323 0.13229 z m 16.27188,-0.0418 h -0.66146 l 0.33073,-0.13346 0.33073,-0.13345 0.33073,0.13345 0.33073,0.13346 z m 2.91042,0.0418 h -0.26459 v -0.26459 -0.26458 h 0.26459 0.26458 v 0.26458 0.26459 z m -28.36671,-0.49259 -0.111412,0.33423 -0.207227,-0.3353 -0.207227,-0.3353 0.158786,-0.15879 0.158786,-0.15878 0.159852,0.15985 0.159853,0.15985 z m 10.63962,0.18623 h -0.66146 l 0.33073,-0.13346 0.33073,-0.13345 0.33073,0.13345 0.33073,0.13346 z m 10.16441,0.0209 -0.50712,-0.0209 0.34727,-0.13897 0.34727,-0.13896 0.15985,0.15985 0.15985,0.15985 z m 5.29167,-0.26459 -0.50712,-0.0209 0.34727,-0.13896 0.34726,-0.13897 0.15986,0.15986 0.15985,0.15985 z m 1.21267,0.0209 h -0.35277 l 0.17638,-0.17639 0.17639,-0.17638 0.17639,0.17638 0.17639,0.17639 z m -16.93333,-0.30636 h -0.66146 l 0.33073,-0.13345 0.33073,-0.13345 0.33073,0.13345 0.33073,0.13345 z m 5.42396,0.0418 h -0.13229 v -0.13229 -0.1323 h 0.13229 0.13229 v 0.1323 0.13229 z m 19.05,-0.0226 -0.26459,-0.0145 -0.52916,-0.22739 -0.52917,-0.22739 0.39688,-0.0145 0.39687,-0.0145 0.39688,0.25648 0.39687,0.25648 z m -23.30538,-0.26282 -0.50712,-0.0209 0.34726,-0.13896 0.34727,-0.13897 0.15985,0.15985 0.15985,0.15986 z m 14.83871,0.0209 h -0.13229 v -0.13229 -0.13229 h 0.13229 0.13229 v 0.13229 0.13229 z m -17.59479,-0.26459 h -0.35278 l 0.17639,-0.17639 0.17639,-0.17639 0.17639,0.17639 0.17639,0.17639 z m 1.32292,-0.0418 h -0.66146 l 0.33073,-0.13345 0.33073,-0.13345 0.33072,0.13345 0.33073,0.13345 z m 1.43316,-0.24369 -0.50712,-0.0209 0.34726,-0.13897 0.34727,-0.13896 0.15985,0.15985 0.15985,0.15985 z m 5.57829,-0.2437 h -0.13229 v -0.13229 -0.13229 h 0.13229 0.1323 v 0.13229 0.13229 z m 9.525,0 h -0.13229 v -0.13229 -0.13229 h 0.13229 0.1323 v 0.13229 0.13229 z m -19.18229,-0.26458 h -0.35278 l 0.17639,-0.17639 0.17639,-0.17639 0.17639,0.17639 0.17639,0.17639 z m 2.51354,-0.0907 -2.11666,-0.002 1.13147,-0.10162 1.13147,-0.10162 0.9852,0.10337 0.98519,0.10337 z m 6.4823,-0.17388 h -0.26459 v -0.26458 -0.26459 h 0.26459 0.26458 v 0.26459 0.26458 z m -11.50938,-0.26459 h -0.13229 v -0.13229 -0.13229 h 0.13229 0.13229 v 0.13229 0.13229 z m 3.70417,-0.0939 -2.38125,-0.001 1.26475,-0.0994 1.26476,-0.0994 1.11649,0.1009 1.1165,0.10089 z m 5.79878,0.073 -0.50711,-0.0209 0.34726,-0.13896 0.34727,-0.13896 0.15985,0.15985 0.15985,0.15985 z m 3.85851,0.0209 h -0.35278 l 0.17639,-0.17639 0.17639,-0.17639 0.17639,0.17639 0.17639,0.17639 z m -6.08542,-0.26459 h -0.35278 l 0.17639,-0.17639 0.17639,-0.17639 0.17639,0.17639 0.17639,0.17639 z m -0.79375,-0.26458 h -0.35278 l 0.17639,-0.17639 0.17639,-0.17639 0.17639,0.17639 0.17639,0.17639 z m 1.05834,-0.26459 h -0.35278 l 0.17639,-0.17638 0.17639,-0.17639 0.17639,0.17639 0.17638,0.17638 z m 7.67291,-0.0721 h -1.19062 l 0.59531,-0.11466 0.59531,-0.11466 0.59532,0.11466 0.59531,0.11466 z m 0.52917,-0.49887 h -0.66146 l 0.33073,-0.13346 0.33073,-0.13345 0.33073,0.13345 0.33073,0.13346 z m 6.45398,-0.22281 h -0.10398 v -0.39688 -0.39687 h 0.25628 0.25628 l -0.1523,0.39687 -0.15229,0.39688 z m 9.63507,-0.004 -0.4474,0.004 -0.14639,-0.23686 -0.14639,-0.23686 0.43323,-0.16624 0.43322,-0.16625 0.13852,0.13852 0.13852,0.13852 -0.37483,0.004 -0.37482,0.004 0.39687,0.25648 0.39688,0.25648 z m -14.69999,-0.28142 -1.25677,-0.0209 0.26458,-0.0922 0.26459,-0.0922 0.99219,-0.0983 0.99218,-0.0983 v 0.21145 0.21146 z m 4.43177,0.0209 h -0.35277 l 0.17638,-0.17639 0.17639,-0.17639 0.17639,0.17639 0.17639,0.17639 z m 1.71979,0 h -0.13229 v -0.13229 -0.1323 h 0.13229 0.1323 v 0.1323 0.13229 z m -5.95312,-0.57094 h -0.66146 l 0.33073,-0.13346 0.33073,-0.13345 0.33073,0.13345 0.33073,0.13346 z m 0.52917,-0.4874 h -0.35278 l 0.17639,-0.17638 0.17639,-0.17639 0.17639,0.17639 0.17638,0.17638 z m -1.7198,-1.05833 h -0.13229 v -0.13229 -0.13229 h 0.13229 0.1323 v 0.13229 0.13229 z m 1.05834,-0.0372 h -0.79375 l 0.52916,-0.22739 0.52917,-0.22739 -0.92604,-0.0493 -0.92604,-0.0493 0.49409,-0.12698 0.49408,-0.12699 1.22571,0.19017 1.2257,0.19017 -0.52917,0.21349 -0.52916,0.2135 z m 1.19062,-0.79833 h -0.66146 l 0.33073,-0.13346 0.33073,-0.13345 0.33073,0.13345 0.33073,0.13346 z m 11.90625,0.024 -0.13229,-9.6e-4 -0.66146,-0.37813 -0.66146,-0.37812 0.28016,-0.009 0.28016,-0.009 0.51359,0.38846 0.51359,0.38846 z m -13.22916,-0.28857 h -0.66146 l 0.33073,-0.13345 0.33073,-0.13346 0.33073,0.13346 0.33072,0.13345 z m 2.49149,0.0209 -0.50712,-0.0209 0.34727,-0.13897 0.34726,-0.13896 0.15986,0.15985 0.15985,0.15985 z m -0.90399,-0.2437 h -0.35278 l 0.17639,-0.17639 0.17639,-0.17639 0.17639,0.17639 0.17638,0.17639 z m -1.98438,-0.26458 h -0.13229 v -0.13229 -0.13229 h 0.13229 0.13229 v 0.13229 0.13229 z m 0.92604,0 h -0.35277 l 0.17638,-0.17639 0.17639,-0.17639 0.17639,0.17639 0.17639,0.17639 z m 10.94259,0 h -0.27106 l -0.16296,-0.16296 -0.16296,-0.16296 -0.87333,-0.20684 -0.87332,-0.20682 0.79375,-0.0187 0.79375,-0.0187 0.51359,0.38846 0.51359,0.38846 z m -6.70925,-0.79375 h -0.35278 l 0.17639,-0.17639 0.17639,-0.17639 0.17639,0.17639 0.17638,0.17639 z m 3.96875,0 h -0.35278 l 0.17639,-0.17639 0.17639,-0.17639 0.17639,0.17639 0.17638,0.17639 z m -6.61459,-0.26458 h -0.35277 l 0.17638,-0.17639 0.17639,-0.17639 0.17639,0.17639 0.17639,0.17639 z m 1.19063,-0.26459 h -0.13229 v -0.13226 -0.1323 h 0.13229 0.13229 v 0.1323 0.13229 z"
       id="path5" />
  </g>
</svg>
