<?xml version="1.0" encoding="UTF-8" standalone="no"?>
<!-- Created with Inkscape (http://www.inkscape.org/) -->

<svg
   width="38.465862mm"
   height="16.70256mm"
   viewBox="0 0 38.465862 16.70256"
   version="1.1"
   id="svg1"
   inkscape:version="1.4.1-rc (06eac75fbf, 2025-03-29)"
   sodipodi:docname="mounts1.svg"
   xmlns:inkscape="http://www.inkscape.org/namespaces/inkscape"
   xmlns:sodipodi="http://sodipodi.sourceforge.net/DTD/sodipodi-0.dtd"
   xmlns="http://www.w3.org/2000/svg"
   xmlns:svg="http://www.w3.org/2000/svg">
  <sodipodi:namedview
     id="namedview1"
     pagecolor="#ffffff"
     bordercolor="#000000"
     borderopacity="0.25"
     inkscape:showpageshadow="2"
     inkscape:pageopacity="0.0"
     inkscape:pagecheckerboard="0"
     inkscape:deskcolor="#d1d1d1"
     inkscape:document-units="mm"
     inkscape:zoom="0.72248176"
     inkscape:cx="71.974135"
     inkscape:cy="31.142655"
     inkscape:window-width="1850"
     inkscape:window-height="1016"
     inkscape:window-x="0"
     inkscape:window-y="0"
     inkscape:window-maximized="1"
     inkscape:current-layer="layer1" />
  <defs
     id="defs1" />
  <g
     inkscape:label="Layer 1"
     inkscape:groupmode="layer"
     id="layer1"
     transform="translate(-85.989583,-140.23)">
    <path
       style="fill:#000000"
       d="m 121.65224,156.91097 -0.23945,-0.0227 -0.74452,-0.22348 -0.74452,-0.22348 -0.43074,-0.34909 -0.43075,-0.34909 0.18047,0.30124 0.18047,0.30124 -1.09989,-0.0367 -1.09989,-0.0367 -0.13115,-0.39687 -0.13115,-0.39688 0.50604,0.39232 0.50605,0.39231 -0.50403,-0.59075 -0.50402,-0.59075 h -0.1069 -0.1069 l 0.16352,0.26458 0.16352,0.26458 h -0.38009 -0.3801 l -0.3403,-0.41003 -0.34029,-0.41004 -0.0736,-0.71444 -0.0736,-0.71444 -0.10678,-0.68675 -0.10677,-0.68674 -0.18877,-0.30544 -0.18878,-0.30545 h -0.3315 -0.3315 l -0.60972,0.82469 -0.60972,0.82469 -1.18904,-0.13402 -1.18904,-0.13403 -1.0529,1.05291 -1.05291,1.0529 -0.70382,-0.61909 -0.70383,-0.61909 0.63495,0.7207 0.63495,0.7207 -0.44792,0.17188 -0.44792,0.17188 -0.1418,-0.14179 -0.14179,-0.14179 -1.18405,0.40345 -1.18405,0.40344 -0.13789,-0.13789 -0.1379,-0.13789 0.54911,-0.17428 0.54911,-0.17428 v -0.25213 -0.25213 l -1.04063,0.53089 -1.04063,0.53088 -1.71694,0.14395 -1.71694,0.14394 -0.168465,-0.27258 -0.168462,-0.27258 h 1.172607 1.17261 l 1.2904,-0.57141 1.2904,-0.57142 0.85803,-0.19405 0.85803,-0.19405 -0.13474,0.21802 -0.13474,0.21802 0.33505,0.19299 0.33504,0.19299 -0.19614,-0.21651 -0.19614,-0.21651 0.26199,-0.31568 0.26199,-0.31568 0.0149,-0.63471 0.0149,-0.6347 -0.19002,-0.79161 -0.19002,-0.79161 -0.88296,-1.2562 -0.88296,-1.2562 v -0.2673 -0.26729 h -0.35587 -0.35587 l -0.43788,0.48385 -0.43788,0.48386 v 0.14244 0.14244 l 1.08261,0.71644 1.08261,0.71644 -0.1454,0.14539 -0.14539,0.1454 -0.84839,-0.71387 -0.84839,-0.71388 -0.55185,0.14817 -0.55184,0.14817 -0.32153,0.004 -0.32152,0.004 -0.93525,0.82116 -0.935247,0.82116 v 0.25279 0.25279 l 0.220487,-0.13627 0.22049,-0.13627 v 0.38104 0.38104 l -0.311765,-0.25874 -0.311761,-0.25874 -0.839148,0.92216 -0.839147,0.92216 -1.355287,0.72984 -1.355288,0.72984 -0.558561,0.333 -0.558561,0.333 -0.641054,-0.0684 -0.641054,-0.0684 -0.12054,-0.36655 -0.120539,-0.36656 1.026177,0.17793 1.026176,0.17793 -0.369132,-0.2476 -0.369133,-0.2476 0.501424,-0.10364 0.501425,-0.10365 -0.550621,-0.15128 -0.550621,-0.15128 -1.555444,0.48127 -1.555444,0.48126 -0.103242,-0.10324 -0.103242,-0.10325 0.152343,-0.24649 0.152342,-0.2465 1.600529,-0.31488 1.600529,-0.31488 -0.182281,-0.29494 -0.18228,-0.29494 0.410331,0.15746 0.410332,0.15746 -0.122614,-0.46888 -0.122614,-0.46887 0.79805,-0.33056 0.79805,-0.33057 0.244454,0.15108 0.244454,0.15109 -0.04267,-1.11779 -0.04267,-1.11778 -0.05352,-1.52136 -0.05352,-1.52135 h -1.165592 -1.165592 l -1.123738,0.93886 -1.123739,0.93885 -0.37567,-0.14416 -0.37567,-0.14415 -0.49327,0.26399 -0.49327,0.26399 -0.582317,1.03609 -0.582316,1.03609 -1.155197,0.86555 -1.155197,0.86556 0.28776,0.17784 0.28776,0.17785 -0.379289,0.14555 -0.37929,0.14554 0.05111,-0.70404 0.05111,-0.70404 0.04141,-0.16975 0.04141,-0.16976 0.67228,-0.16873 0.672279,-0.16873 -0.136873,-0.22146 -0.136874,-0.22147 0.522928,-0.47324 0.522927,-0.47325 v -0.29745 -0.29746 l 0.523282,-0.37716 0.523282,-0.37716 -0.324844,-0.20637 -0.324845,-0.20636 0.926042,-0.0304 0.926042,-0.0304 -0.630431,-0.17667 -0.63043,-0.17667 0.365847,-0.30245 0.365847,-0.30244 0.989872,-0.18498 0.989873,-0.18498 -0.143719,-0.23255 -0.143718,-0.23254 0.45402,0.17423 0.454021,0.17422 -0.167583,-0.27115 -0.167583,-0.27116 1.455043,-1.00213 1.455044,-1.00212 0.193199,-0.34523 0.193199,-0.34523 1.046327,-0.34468 1.046328,-0.34468 0.252727,-0.88332 0.252728,-0.88333 0.745617,0.10944 0.745618,0.10943 0.148965,-0.46935 0.148967,-0.46935 0.51582,-0.16371 0.51581,-0.16371 0.79357,0.56507 0.79357,0.56507 v -0.26884 -0.26883 l 0.77629,0.27061 0.77629,0.27062 0.37442,0.57552 0.37441,0.57551 0.17626,0.94987 0.17626,0.94988 0.59787,0.56166 0.59787,0.56167 1.39516,0.35705 1.39516,0.35704 -0.0127,0.18194 -0.0127,0.18193 v 0.42774 0.42773 l -0.52953,-0.13848 -0.52953,-0.13847 0.14827,0.23991 0.14827,0.23991 h -0.78773 -0.78772 l -0.4407,-0.16912 -0.4407,-0.16911 0.25495,-0.16162 0.25495,-0.16161 -1.20836,-0.74828 -1.20836,-0.74827 0.34653,0.41754 0.34654,0.41755 h -0.18911 -0.1891 l -0.62807,-0.49404 -0.62807,-0.49404 0.11457,-0.11458 0.11457,-0.11457 -0.21057,-0.78045 -0.21056,-0.78045 -0.13934,0.7196 -0.13934,0.7196 0.22636,-0.1399 0.22636,-0.1399 v 0.2802 0.2802 l -0.33073,0.009 -0.33073,0.009 0.64121,0.35522 0.64121,0.35523 0.0652,0.44412 0.0652,0.44413 -0.30952,-0.1142 -0.30951,-0.11419 0.0727,-0.31733 0.0727,-0.31732 -0.27546,0.17024 -0.27545,0.17024 0.1987,0.31245 0.1987,0.31245 0.004,0.17639 0.004,0.17638 0.24086,0.22049 0.24085,0.22049 -0.21811,-0.3757 -0.21812,-0.37569 0.45402,0.17423 0.45403,0.17422 -0.15035,-0.24327 -0.15035,-0.24327 0.28049,-0.17335 0.28049,-0.17335 0.35174,0.29192 0.35175,0.29193 0.47382,-0.18182 0.47381,-0.18182 -0.19118,0.30933 -0.19118,0.30934 0.94837,0.55954 0.94836,0.55955 0.26385,0.49302 0.26386,0.49301 0.85378,0.22197 0.85379,0.22196 0.34963,-0.34827 0.34963,-0.34828 h 0.29625 0.29626 l -0.51359,0.38846 -0.51359,0.38847 0.30909,0.008 0.30909,0.008 0.4018,-0.15419 0.40181,-0.15419 -0.14389,-0.37498 -0.14389,-0.37498 0.35903,-0.004 0.35904,-0.004 -0.39688,-0.25648 -0.39687,-0.25648 h -0.39688 -0.39687 l 0.39687,0.26016 0.39688,0.26017 -0.8599,-0.165 -0.85989,-0.16499 v 0.28935 0.28935 l 0.44028,-0.16895 0.44027,-0.16895 -0.19131,0.30955 -0.19131,0.30954 -0.71199,-0.004 -0.71198,-0.004 0.39687,-0.25648 0.39688,-0.25648 -0.33073,-0.004 -0.33073,-0.004 v -0.24782 -0.24782 l 0.85989,-0.10671 0.8599,-0.10671 -1.19063,-0.0662 -1.19062,-0.0662 1.95227,-0.35351 1.95228,-0.3535 0.64463,0.24509 0.64464,0.24509 0.18122,-0.022 0.18121,-0.022 -1.30308,-0.5952 -1.30308,-0.5952 0.27176,-0.16796 0.27176,-0.16795 1.01911,0.51957 1.01912,0.51957 0.26356,-0.26356 0.26356,-0.26356 h 0.36172 0.36173 l 0.87337,-0.92604 0.87337,-0.92604 h 0.44669 0.4467 l 0.72996,0.7992 0.72996,0.7992 1.17335,0.19686 1.17336,0.19687 0.42801,0.85287 0.42801,0.85287 0.31244,0.37646 0.31244,0.37647 -0.21129,0.12058 -0.21128,0.12057 -1.543,0.84902 -1.543,0.84903 -0.38897,-0.14926 -0.38897,-0.14926 0.16165,0.26155 0.16164,0.26155 h -0.1653 -0.1653 l -0.51918,-0.27786 -0.51918,-0.27786 0.13679,-0.22133 0.13679,-0.22132 -0.44476,-0.36071 -0.44475,-0.36071 0.1987,0.33073 0.19869,0.33073 h -0.1653 -0.1653 l -0.5437,-0.29098 -0.5437,-0.29098 0.17984,0.29098 0.17983,0.29098 h -0.1653 -0.1653 l -0.51528,-0.27577 -0.51528,-0.27577 -0.45951,0.29575 -0.45952,0.29574 0.5003,-0.15827 0.50031,-0.15827 0.69032,0.46581 0.69032,0.46582 0.50803,0.26779 0.50804,0.26779 0.10455,0.78897 0.10455,0.78897 0.0762,0.0762 0.0762,0.0762 1.12588,0.11201 1.12588,0.11201 0.47819,0.43276 0.4782,0.43276 0.68954,0.0757 0.68955,0.0757 0.47804,0.43262 0.47804,0.43262 h 0.32551 0.32551 l -0.16352,0.26459 -0.16353,0.26458 h 0.41249 0.41249 v 0.26458 0.26459 h -1.19062 -1.19063 v -0.26459 -0.26458 l 0.46302,-0.0104 0.46302,-0.0104 -0.89027,-0.38652 -0.89027,-0.38652 -0.16806,0.009 -0.16806,0.009 0.66146,0.40409 0.66145,0.40408 -0.61966,-0.13048 -0.61967,-0.13047 0.46224,0.51077 0.46223,0.51076 z m -1.26538,-0.771 h 0.0999 v -0.0999 -0.0999 l -0.46302,-0.36313 -0.46302,-0.36313 0.36312,0.46302 0.36313,0.46303 z m -1.88448,-0.35278 h 0.39687 v -0.0558 -0.0558 l -0.39687,-0.32938 -0.39688,-0.32938 v 0.38518 0.38517 z m 0.85854,-0.17639 h 0.13229 l -0.29468,-0.35507 -0.29469,-0.35508 0.19615,-0.21651 0.19614,-0.21651 -0.34358,0.19826 -0.34358,0.19827 0.30983,0.37332 0.30983,0.37332 z m -13.29396,-0.52917 h 0.13229 v -0.13229 -0.13229 h -0.13229 -0.13229 v 0.13229 0.13229 z m 10.58334,-0.26458 h 0.13229 v -0.13229 -0.13229 h -0.13229 -0.1323 v 0.13229 0.13229 z m 1.5875,0 h 0.13229 v -0.13229 -0.13229 h -0.13229 -0.1323 v 0.13229 0.13229 z m -22.489588,-0.26458 h 0.132291 v -0.1323 -0.13229 H 95.748212 95.61592 v 0.13229 0.1323 z m -1.058334,-0.26459 h 0.132292 v -0.13229 -0.13229 h -0.132292 -0.132291 v 0.13229 0.13229 z m 13.955752,-0.0658 0.28121,-0.0937 0.19421,-0.52499 0.1942,-0.52499 h -0.47863 -0.47863 l 0.27433,0.51259 0.27433,0.51259 -0.4414,-0.16938 -0.4414,-0.16938 0.17028,0.27552 0.17028,0.27552 z M 95.351337,154.0233 h 0.352778 l -0.176389,-0.17639 -0.176389,-0.17638 -0.176389,0.17638 -0.176389,0.17639 z m 1.058333,0 h 0.352778 l -0.176389,-0.17639 -0.176389,-0.17638 -0.176389,0.17638 -0.176389,0.17639 z m 0.661458,-0.26458 h 0.132292 v -0.13229 -0.13229 h -0.132292 -0.132291 v 0.13229 0.13229 z m 0.529167,-0.26458 h 0.132292 v -0.13229 -0.1323 h -0.132292 -0.132292 v 0.1323 0.13229 z m 18.829515,-0.0882 0.17639,-0.17639 -0.17639,-0.17639 -0.17639,-0.17639 v 0.35278 0.35278 z m -18.218587,-0.18044 0.08176,0.004 -0.163521,-0.26459 -0.163522,-0.26458 -0.315114,0.004 -0.315114,0.004 0.396875,0.25648 0.396875,0.25648 z m 11.967087,-0.47523 0.53947,-0.57905 h 0.25428 0.25428 v -0.39688 -0.39688 l 0.46302,-0.004 0.46302,-0.004 -0.39688,-0.27616 -0.39687,-0.27617 1.0923,0.0857 1.09229,0.0857 -0.11924,-0.31075 -0.11925,-0.31075 0.61445,-0.20137 0.61445,-0.20138 1.05833,-0.0591 1.05834,-0.0591 0.59233,-0.19041 0.59234,-0.19041 -0.14894,-0.30065 -0.14893,-0.30065 0.41649,0.51359 0.4165,0.51359 v -0.33076 -0.33077 l 0.26155,0.16165 0.26155,0.16165 -0.17422,-0.45402 -0.17423,-0.45403 0.3757,0.23441 0.37569,0.2344 0.3722,0.0563 0.3722,0.0563 -0.52215,-0.52215 -0.52214,-0.52215 -0.44385,0.17032 -0.44385,0.17032 0.16959,0.30301 0.16959,0.303 -0.34693,-0.32133 -0.34692,-0.32134 -0.0352,-0.47707 -0.0352,-0.47706 -0.14933,-0.25993 -0.14933,-0.25993 -0.17391,-0.72761 -0.17392,-0.7276 h -0.24152 -0.24152 l -0.54425,0.76433 -0.54426,0.76433 -0.59824,0.15024 -0.59824,0.15024 -0.47549,0.88329 -0.47549,0.8833 -1.59792,0.87846 -1.59792,0.87846 0.12719,0.48638 0.1272,0.48638 -0.36048,0.47531 -0.36047,0.47532 -0.008,0.24833 -0.008,0.24833 z m 5.41365,-2.96031 h -0.13229 v -0.13229 -0.13229 h 0.13229 0.13229 v 0.13229 0.13229 z m 1.36702,-0.61736 -0.17639,0.17639 v -0.35277 -0.35278 l 0.17639,0.17639 0.17638,0.17639 z m 2.33715,-0.17639 h -0.13229 v -0.13229 -0.13229 h 0.13229 0.13229 v 0.13229 0.13229 z m -3.54817,-0.32186 -0.82491,-0.0234 0.19909,-0.15807 0.19908,-0.15807 0.13705,-0.17588 0.13704,-0.17589 0.48878,0.35741 0.48878,0.3574 z m 0.38878,-0.73647 h -0.11667 l -0.16353,-0.26458 -0.16352,-0.26459 h 0.2802 0.2802 v 0.26459 0.26458 z m -20.042184,5.02303 0.08176,0.004 -0.163522,-0.26458 -0.163521,-0.26458 -0.315115,0.004 -0.315114,0.004 0.396875,0.25648 0.396875,0.25648 z m 0.992187,-0.26053 h 0.116677 v -0.11668 -0.11667 l -0.305464,-0.18879 -0.305463,-0.18879 0.188787,0.30547 0.188787,0.30546 z m 1.517151,-0.1493 0.474431,-0.18065 -0.148112,-0.14812 -0.148112,-0.14811 -0.32632,0.32877 -0.326319,0.32876 z m 10.638066,0.1493 h 0.13229 v -0.13229 -0.13229 h -0.13229 -0.13229 v 0.13229 0.13229 z m 6.87917,0 h 0.13229 v -0.13229 -0.13229 h -0.13229 -0.13229 v 0.13229 0.13229 z m 0.57326,-0.35277 0.17639,-0.17639 -0.17639,-0.17639 -0.17639,-0.17639 v 0.35278 0.35277 z M 97.3123,152.17122 h 0.108881 l -0.05712,-0.38922 -0.05712,-0.38922 -0.164194,-0.16419 -0.164194,-0.1642 0.0922,0.48727 0.0922,0.48726 0.02024,0.0662 0.02024,0.0661 z m 11.67672,-0.0882 h 0.38523 v -0.0726 -0.0726 l -0.2463,-0.15223 -0.2463,-0.15222 -0.13893,0.2248 -0.13894,0.2248 z m -11.124142,-0.1764 h 0.132292 v -0.13229 -0.13229 h -0.132292 -0.132291 v 0.13229 0.13229 z m 1.20624,0 h 0.248969 v -0.10398 -0.10399 l -0.410617,-0.15756 -0.410617,-0.15757 0.161648,0.26155 0.161649,0.26155 z m 10.715622,0 h 0.11668 v -0.11667 -0.11668 l -0.30546,-0.18879 -0.30547,-0.18879 0.18879,0.30547 0.18879,0.30546 z m 3.27606,0 h 0.24897 l 0.16165,-0.26155 0.16165,-0.26155 -0.41062,0.15756 -0.41061,0.15757 v 0.10399 0.10398 z m -0.64584,-0.26458 h 0.13229 v -0.13229 -0.13229 h -0.13229 -0.13229 v 0.13229 0.13229 z m -24.473956,-0.26458 h 0.352777 l -0.176389,-0.17639 -0.176388,-0.17639 -0.176389,0.17639 -0.176389,0.17639 z m 10.13066,0 h 0.276284 l -0.110243,-0.0749 -0.110243,-0.0749 -0.529167,-0.38816 -0.529167,-0.38815 0.363126,0.46302 0.363126,0.46302 z m 1.61816,-0.25213 0.473316,-0.38441 -0.488673,-0.1923 -0.488672,-0.19231 -0.264583,-0.0106 -0.264584,-0.0105 0.468586,0.2728 0.468586,0.2728 -0.188646,0.31447 -0.188645,0.31447 z m 9.020976,0.25213 h 0.13229 v -0.1323 -0.13229 h -0.13229 -0.1323 v 0.13229 0.1323 z m 4.23333,0 h 0.13229 v -0.1323 -0.13229 h -0.13229 -0.13229 v 0.13229 0.1323 z m -14.022918,-0.26459 h 0.132291 v -0.13229 -0.13229 H 98.923212 98.79092 v 0.13229 0.13229 z m 19.314578,0 h 0.1323 v -0.13229 -0.13229 h -0.1323 -0.13229 v 0.13229 0.13229 z M 98.129462,150.8483 h 0.132291 v -0.13229 -0.13229 H 98.129462 97.99717 v 0.13229 0.13229 z m 21.431248,0 h 0.13229 v -0.13229 -0.13229 h -0.13229 -0.13229 v 0.13229 0.13229 z m -1.32291,-0.26458 h 0.13229 v -0.1323 -0.13229 h -0.13229 -0.1323 v 0.13229 0.1323 z m 0.80936,0 h 0.11668 v -0.11668 -0.11668 l -0.30547,-0.18879 -0.30546,-0.18878 0.18879,0.30546 0.18878,0.30547 z m -21.964393,-0.35278 h 0.385236 v -0.0726 -0.0726 l -0.246301,-0.15223 -0.246301,-0.15222 -0.138935,0.2248 -0.138935,0.22481 z m 3.163363,0.0882 h 0.36564 l 0.16165,-0.26155 0.16165,-0.26156 -0.38385,0.1473 -0.38386,0.1473 -0.199932,-0.3235 -0.199935,-0.3235 0.261367,0.16153 0.26137,0.16153 v -0.34848 -0.34849 l -0.28664,0.005 -0.286628,0.005 -0.529167,-0.0457 -0.529167,-0.0457 0.396875,-0.25648 0.396875,-0.25648 -0.374826,-0.004 -0.374826,-0.004 0.139694,-0.1397 0.139694,-0.13969 0.763863,0.29042 0.763863,0.29042 -0.528731,-0.51377 -0.528731,-0.51377 -0.170713,0.0969 -0.170713,0.0969 -0.125736,-0.3292 -0.125736,-0.32921 0.751363,-0.0278 0.751367,-0.0278 -0.15612,0.25259 -0.15611,0.2526 0.56109,-0.30029 0.5611,-0.30029 v -0.11468 -0.11468 l -0.37011,0.14203 -0.37011,0.14203 -0.16337,-0.26434 -0.16338,-0.26434 0.2371,-0.14653 0.23709,-0.14654 1.17834,0.62653 1.17833,0.62653 v -0.3967 -0.39669 l -0.7487,-0.45531 -0.74871,-0.45531 0.0652,-0.11246 0.0652,-0.11246 -0.27981,0.31483 -0.27981,0.31483 -0.36642,-0.22645 -0.36641,-0.22646 -0.305825,0.41823 -0.30582,0.41824 -0.338699,-0.20933 -0.338698,-0.20933 0.436422,-0.24423 0.436422,-0.24424 0.559398,-0.10773 0.5594,-0.10773 0.15644,-0.15645 0.15645,-0.15644 -0.0174,-1.97886 -0.0174,-1.97885 -0.31817,-0.31818 -0.31818,-0.31818 -0.24927,0.39467 -0.24926,0.39466 -0.0815,0.23151 -0.08147,0.23151 h -0.69818 -0.69818 l -0.319271,0.77079 -0.319271,0.77079 -0.498347,0.2667 -0.498347,0.26671 -0.220398,-0.13621 -0.220398,-0.13622 -1.030905,0.91753 -1.030905,0.91752 -0.198437,2e-4 -0.198438,2.1e-4 v 0.39687 0.39688 h -0.440972 -0.440972 l 0.165137,0.16514 0.165138,0.16514 -0.584061,0.49616 -0.584061,0.49616 1.12755,-0.48798 1.127551,-0.48799 0.1685,-0.1685 0.168499,-0.16849 0.688325,0.16395 0.688324,0.16396 0.346016,0.27318 0.346015,0.27319 0.372067,0.89048 0.372066,0.89048 0.917472,0.38334 0.917471,0.38335 0.165999,0.26859 0.165999,0.26859 z m 2.38125,-3.19183 h -0.26459 l -0.51359,-0.38846 -0.51359,-0.38846 h 0.26459 0.26458 l 0.51359,0.38846 0.51359,0.38846 z m -3.83646,-0.24775 h -0.352778 l 0.176389,-0.17639 0.176389,-0.17639 0.176389,0.17639 0.176389,0.17639 z m -0.79375,-1.7512 -1.058333,0.70037 0.01004,-0.20219 0.01004,-0.20219 1.048292,-0.72509 1.048292,-0.72509 v 0.22691 0.22691 z m 1.455208,-1.68838 h -0.132291 v -0.1323 -0.13229 h 0.132291 0.132292 v 0.13229 0.1323 z m 20.077102,6.87916 h 0.13229 l 0.16352,-0.26458 0.16353,-0.26458 h -0.1323 -0.13229 l -0.16352,0.26458 -0.16352,0.26458 z m 0.85346,0 h 0.0726 l 0.15223,-0.2463 0.15222,-0.2463 -0.2248,-0.13894 -0.22481,-0.13893 v 0.38524 0.38523 z m -19.60765,-0.79375 h 0.1323 v -0.13229 -0.13229 h -0.1323 -0.13229 v 0.13229 0.13229 z m 1.3514,-0.26458 h 0.0726 l 0.15223,-0.2463 0.15222,-0.2463 -0.2248,-0.13894 -0.22481,-0.13893 v 0.38523 0.38524 z m -2.409728,-0.26458 h 0.132291 v -0.1323 -0.13229 H 99.716962 99.58467 v 0.13229 0.1323 z m 1.058338,0 h 0.13229 v -0.1323 -0.13229 h -0.13229 -0.1323 v 0.13229 0.1323 z m 0.77855,0 h 0.1171 l -0.10658,-0.55344 -0.10658,-0.55344 0.37788,0.14501 0.37789,0.145 0.18318,-0.31917 0.18319,-0.31917 -0.2095,0.18913 -0.2095,0.18912 -0.45283,-0.24234 -0.45283,-0.24235 0.0645,0.71468 0.0645,0.71467 0.0262,0.0661 0.0262,0.0661 z m 19.0652,0 h 0.13229 v -0.1323 -0.13229 h -0.13229 -0.1323 v 0.13229 0.1323 z m -8.12033,-0.28472 0.0818,0.0201 -0.14955,-0.24198 -0.14956,-0.24199 0.33238,-0.14439 0.33238,-0.14439 -0.79375,0.14319 -0.79375,0.1432 0.39687,-0.31095 0.39688,-0.31094 -0.48466,0.15725 -0.48466,0.15725 -0.30909,0.0201 -0.30909,0.0201 0.92604,0.35662 0.92604,0.35662 z m 0.41618,0.0201 h 0.13229 l 0.16352,-0.26458 0.16352,-0.26458 h -0.13229 -0.13229 l -0.16352,0.26458 -0.16352,0.26458 z m 8.4979,0 h 0.13229 v -0.13229 -0.13229 h -0.13229 -0.1323 v 0.13229 0.13229 z m -20.6375,-0.26458 h 0.13229 v -0.13229 -0.13229 h -0.13229 -0.1323 v 0.13229 0.13229 z m 19.25877,-0.23523 0.28134,-0.28135 0.35631,0.29572 0.35631,0.29571 -0.17249,-0.44951 -0.17249,-0.4495 -0.38437,0.1475 -0.38437,0.14749 h -0.25856 -0.25856 l 0.17777,0.28764 0.17777,0.28764 z m -17.14211,-0.0293 h 0.13229 v -0.1323 -0.13229 h -0.13229 -0.13229 v 0.13229 0.1323 z m 15.34584,0 h 0.13229 v -0.1323 -0.13229 h -0.13229 -0.1323 v 0.13229 0.1323 z m -17.4625,-0.26459 h 0.13229 v -0.13229 -0.13229 h -0.13229 -0.1323 v 0.13229 0.13229 z m 6.61458,-1.32291 h 0.13229 v -0.1323 -0.13229 h -0.13229 -0.13229 v 0.13229 0.1323 z m -7.672918,-0.26459 h 0.132291 v -0.13229 -0.13229 H 99.716962 99.58467 v 0.13229 0.13229 z m 2.392888,-1.14653 h 0.38524 v -0.0726 -0.0726 l -0.2463,-0.15222 -0.2463,-0.15222 -0.13894,0.2248 -0.13894,0.2248 z m 1.84045,-0.17638 h 0.13229 v -0.1323 -0.13229 h -0.13229 -0.1323 v 0.13229 0.1323 z m -0.22165,-0.72761 0.13345,-0.33073 -0.13345,-0.33073 -0.13345,-0.33073 v 0.66146 0.66146 z m -1.05717,-1.21267 0.17639,-0.17639 -0.17639,-0.17639 -0.17639,-0.17639 v 0.35278 0.35278 z m 0.74965,0.0882 h 0.13229 v -0.13229 -0.1323 h -0.13229 -0.13229 v 0.1323 0.13229 z m -0.26458,-0.52917 h 0.13229 v -0.13229 -0.13229 h -0.13229 -0.1323 v 0.13229 0.13229 z m 0.52916,0 h 0.13229 v -0.1323 -0.13229 h -0.13229 -0.13229 v 0.13229 0.1323 z m -0.20386,-0.87605 0.99761,0.0229 -0.61863,-0.23497 -0.61862,-0.23498 -0.37899,0.21209 -0.37899,0.2121 z m -11.19527,14.6135 -0.507118,-0.0209 0.347265,-0.13897 0.347266,-0.13896 0.159853,0.15985 0.159852,0.15985 z m 1.874132,0.0209 H 94.02842 v -0.1323 -0.13229 h 0.132292 0.132291 v 0.13229 0.1323 z m 1.002728,-0.0209 -0.473562,-0.0209 0.396875,-0.15059 0.396875,-0.1506 1.372109,-0.62227 1.372109,-0.62227 h 0.24914 0.24914 l 0.329377,-0.39687 0.329377,-0.39688 0.298333,0.008 0.298332,0.008 -0.742358,0.6531 -0.742358,0.6531 h -0.392662 -0.392661 l -1.037253,0.52916 -1.037252,0.52917 z m 11.43269,0.0209 h -0.13229 v -0.1323 -0.13229 h 0.13229 0.13229 v 0.13229 0.1323 z m 1.85208,-0.0125 -0.26458,-0.004 0.50985,-0.38573 0.50985,-0.38573 0.14395,0.14395 0.14394,0.14394 -0.38921,0.24615 -0.38921,0.24614 z m 5.45519,0.0125 h -0.26458 l -0.16353,-0.26459 -0.16352,-0.26458 h 0.26459 0.26458 l 0.16352,0.26458 0.16352,0.26459 z m 0.67433,-0.0882 -0.17639,0.17638 V 156.14 155.78722 l 0.17639,0.17639 0.17638,0.17639 z m 0.53168,-0.12129 -0.13713,0.34177 -0.0125,-0.26458 -0.0125,-0.26458 0.35363,-0.46596 0.35363,-0.46595 0.32219,0.38821 0.32219,0.38822 -0.17862,0.28902 -0.17863,0.28903 -0.34759,-0.28848 -0.34759,-0.28847 z m 0.76275,-0.0551 h 0.11668 v -0.11668 -0.11667 l -0.30547,-0.18879 -0.30546,-0.18879 0.18879,0.30547 0.18878,0.30546 z m -17.08124,0 h -0.352778 l 0.176389,-0.17639 0.176389,-0.17639 0.176389,0.17639 0.176389,0.17639 z m 12.43542,-0.0226 -0.39688,-0.0146 0.52917,-0.22739 0.52916,-0.22739 0.26459,-0.0145 0.26458,-0.0146 -0.39687,0.25648 -0.39688,0.25648 z m -23.437677,-0.79199 -0.507118,-0.0209 0.347266,-0.13897 0.347265,-0.13896 0.159853,0.15985 0.159852,0.15986 z m -1.596681,-0.24371 h -0.132291 l 0.163521,-0.26458 0.163522,-0.26458 h 0.132291 0.132292 l -0.163522,0.26458 -0.163521,0.26458 z m 2.859886,-0.004 -0.447406,-0.004 0.396875,-0.25648 0.396875,-0.25648 0.214052,-0.004 0.214053,-0.004 -0.163522,0.26458 -0.163521,0.26459 z m 21.909882,0.004 h -0.26458 v -0.26458 -0.26458 h 0.26458 0.26459 v 0.26458 0.26458 z m -22.835924,-0.28471 -0.315114,-0.0201 -0.910565,-0.32899 -0.910564,-0.329 0.423709,-0.16259 0.423709,-0.16259 0.93994,0.28847 0.93994,0.28848 -0.13797,0.22324 -0.137971,0.22324 z m -0.315114,-0.24445 h 0.132292 v -0.1323 -0.13229 H 87.810712 87.67842 v 0.13229 0.1323 z m -0.79375,-0.26459 h 0.132292 v -0.13229 -0.13229 H 87.016962 86.88467 v 0.13229 0.13229 z m 25.151838,0.42079 -0.64588,0.0689 -0.27829,-0.33531 -0.27829,-0.33532 0.1741,-0.17409 0.17409,-0.1741 h 0.2361 0.2361 l -0.16352,0.26459 -0.16352,0.26458 h 0.85346 0.85346 l -0.17596,0.17597 -0.17597,0.17596 z m -1.60392,-0.42079 h -0.13229 v -0.13229 -0.13229 h 0.13229 0.13229 v 0.13229 0.13229 z M 100.643,154.0233 h -0.26458 v -0.26458 -0.26459 h 0.26458 0.26459 v 0.26459 0.26458 z m -10.665091,-0.53322 -0.05053,-0.004 -0.396875,-0.25648 -0.396875,-0.25648 0.610927,-0.004 0.610927,-0.004 -0.163521,0.26458 -0.163522,0.26459 z m 14.592961,-0.10297 -0.30546,0.18878 0.18058,-0.29219 0.18058,-0.29218 -0.47043,-0.24211 -0.47043,-0.24211 -0.31486,0.1133 -0.31487,0.1133 -0.74347,-0.40157 -0.74347,-0.40157 1.1201,0.1019 1.12009,0.1019 0.29855,0.18452 0.29855,0.18451 0.23095,-0.36462 0.23095,-0.36463 0.004,0.71199 0.004,0.71199 z m -2.73724,-0.15756 h -0.39688 v -0.26458 -0.26459 h 0.39688 0.39687 v 0.26459 0.26458 z m 17.19791,0 h -0.13229 v -0.13229 -0.13229 h 0.13229 0.1323 v 0.13229 0.13229 z m -5.29166,-0.26458 h -0.13229 v -0.1323 -0.13229 h 0.13229 0.13229 v 0.13229 0.1323 z m -22.206103,-1.32292 h -0.15119 v -0.20094 -0.20094 l 0.529167,-0.33047 0.529166,-0.33047 v 0.15343 0.15344 l -0.377976,0.37797 -0.377976,0.37798 z m 1.43631,0 h -0.264584 v -0.26458 -0.26459 h 0.264584 0.264583 v 0.26459 0.26458 z m 7.773973,0 h -0.13229 l 0.16353,-0.26458 0.16352,-0.26459 h 0.13229 0.13229 l -0.16352,0.26459 -0.16352,0.26458 z m 2.80936,-0.26458 h -0.35278 l 0.17639,-0.17639 0.17639,-0.17639 0.17639,0.17639 0.17639,0.17639 z m 1.45521,0 h -0.13229 v -0.1323 -0.13229 h 0.13229 0.13229 v 0.13229 0.1323 z m 11.80519,-0.26459 h -0.26459 l -0.16352,-0.26458 -0.16352,-0.26458 h 0.26458 0.26459 l 0.16352,0.26458 0.16352,0.26458 z m -23.73349,-0.28547 -0.507118,-0.0209 0.347265,-0.13896 0.347266,-0.13897 0.159853,0.15985 0.159852,0.15986 z m 8.88559,0.0209 h -0.35278 l 0.17639,-0.17639 0.17639,-0.17639 0.17639,0.17639 0.17639,0.17639 z m 15.47812,0 h -0.13229 v -0.13229 -0.13229 h 0.13229 0.1323 v 0.13229 0.13229 z M 91.779462,150.58372 H 91.64717 v -0.1323 -0.13229 h 0.132292 0.132292 v 0.13229 0.1323 z m 1.984375,-1.05834 h -0.264584 v -0.26458 -0.26458 h 0.264584 0.264583 v 0.26458 0.26458 z m 0.544781,-0.52916 H 94.05965 l -0.163522,-0.26459 -0.163521,-0.26458 h 0.41249 0.41249 v 0.26458 0.26459 z m 16.785422,-1.5875 h -0.13229 v -0.1323 -0.13229 h 0.13229 0.1323 v 0.13229 0.1323 z m -5.65731,-0.52917 h -0.26458 l -0.16352,-0.26458 -0.16352,-0.26459 h 0.26458 0.26458 l 0.16352,0.26459 0.16353,0.26458 z m -1.22185,-0.26458 h -0.13229 v -0.1323 -0.13229 h 0.13229 0.13229 v 0.13229 0.1323 z m 8.86354,-0.30636 h -0.66146 l 0.33073,-0.13346 0.33073,-0.13345 0.33073,0.13345 0.33073,0.13346 z m 1.69774,0.0209 -0.50711,-0.0209 0.34726,-0.13897 0.34727,-0.13896 0.15985,0.15985 0.15985,0.15985 z"
       id="path8" />
  </g>
</svg>
