<?xml version="1.0" encoding="UTF-8" standalone="no"?>
<!-- Created with Inkscape (http://www.inkscape.org/) -->

<svg
   width="30.162634mm"
   height="9.0497503mm"
   viewBox="0 0 30.162633 9.0497499"
   version="1.1"
   id="svg1"
   inkscape:version="1.4.1-rc (06eac75fbf, 2025-03-29)"
   sodipodi:docname="mounts4.svg"
   xmlns:inkscape="http://www.inkscape.org/namespaces/inkscape"
   xmlns:sodipodi="http://sodipodi.sourceforge.net/DTD/sodipodi-0.dtd"
   xmlns="http://www.w3.org/2000/svg"
   xmlns:svg="http://www.w3.org/2000/svg">
  <sodipodi:namedview
     id="namedview1"
     pagecolor="#ffffff"
     bordercolor="#000000"
     borderopacity="0.25"
     inkscape:showpageshadow="2"
     inkscape:pageopacity="0.0"
     inkscape:pagecheckerboard="0"
     inkscape:deskcolor="#d1d1d1"
     inkscape:document-units="mm"
     inkscape:zoom="0.72248176"
     inkscape:cx="58.132955"
     inkscape:cy="17.301475"
     inkscape:window-width="1850"
     inkscape:window-height="1016"
     inkscape:window-x="0"
     inkscape:window-y="0"
     inkscape:window-maximized="1"
     inkscape:current-layer="layer1" />
  <defs
     id="defs1" />
  <g
     inkscape:label="Layer 1"
     inkscape:groupmode="layer"
     id="layer1"
     transform="translate(-89.693747,-143.9348)">
    <path
       style="fill:#000000"
       d="m 104.79852,152.98431 h -0.26458 l -0.16353,-0.26458 -0.16352,-0.26458 h 0.26459 0.26458 l 0.16352,0.26458 0.16352,0.26458 z m 0.91043,0 h -0.11668 l -0.18879,-0.30546 -0.18879,-0.30546 0.30547,0.18878 0.30546,0.18879 v 0.11668 0.11667 z m 0.98273,0 h -0.2235 l -0.45431,-0.45431 -0.45432,-0.45432 -0.72686,-0.0418 -0.72686,-0.0418 0.0579,-0.27306 0.0579,-0.27305 -0.32252,0.0473 -0.32253,0.0473 v 0.25877 0.25878 l 0.15434,-0.0514 0.15434,-0.0515 v 0.38218 0.38217 h -0.18808 -0.18809 l -0.33209,-0.40013 -0.33208,-0.40014 -0.3045,0.25271 -0.3045,0.25271 -0.388,-0.24341 -0.388,-0.24341 -0.52917,0.12381 -0.52917,0.12381 0.33221,-0.15239 0.3322,-0.15239 -0.59678,-0.49291 -0.596793,-0.49292 0.661463,0.1568 0.66145,0.15679 0.39688,0.29252 0.39687,0.29251 -0.36312,-0.46302 -0.36313,-0.46302 h -0.36448 -0.36447 v -0.30868 -0.30868 l -0.16708,0.16708 -0.16708,0.16708 -0.494383,-0.26458 -0.49438,-0.26459 v -0.27089 -0.27089 l 0.2463,0.15223 0.2463,0.15222 0.14061,-0.22751 0.14061,-0.22751 -0.71764,0.0444 -0.71764,0.0444 0.0356,0.43635 0.0356,0.43634 -0.48037,-0.25708 -0.48037,-0.25709 -0.20127,-2.18326 -0.20127,-2.18325 0.0557,-0.52917 0.0557,-0.52917 -0.46797,0.6245 -0.46797,0.6245 -0.61024,0.65923 -0.61024,0.65923 -0.54041,-0.14132 -0.54041,-0.14132 0.14256,0.14255 0.14256,0.14256 -0.31482,0.39361 -0.31483,0.3936 -0.55507,0.57039 -0.55506,0.57039 -0.29125,0.55254 -0.29124,0.55254 0.14956,0.57194 0.14957,0.57194 h -0.28714 -0.28714 l 0.16535,-0.46302 0.16535,-0.46302 -0.62837,0.77672 -0.62837,0.77672 -0.0546,0.372 -0.0546,0.372 -0.13955,0.13955 -0.13954,0.13955 -0.4056,-0.4056 -0.4056,-0.4056 0.33133,-0.63864 0.33133,-0.63865 0.2973,0.0991 0.2973,0.0991 0.55812,-0.70953 0.55812,-0.70954 v -0.34199 -0.34199 l 0.66146,-0.5203 0.66146,-0.52031 v -0.30528 -0.30529 l 0.70009,-0.64882 0.70009,-0.64882 0.2921,0.004 0.29209,0.004 -0.39687,0.25648 -0.39688,0.25648 0.47194,0.004 0.47195,0.004 0.53945,-0.91431 0.53946,-0.91431 0.50759,-0.1611 0.50758,-0.16111 0.26695,0.16499 0.26696,0.16498 v 0.64585 0.64584 h 0.668 0.66801 l 0.23047,0.60619 0.23047,0.60618 0.384993,0.31951 0.38498,0.31951 1.18561,0.16251 1.18561,0.1625 0.36287,-0.88976 0.36286,-0.88976 0.40921,-0.32232 0.40921,-0.32231 0.55963,-0.008 0.55963,-0.008 0.68965,-0.54249 0.68966,-0.54248 0.53391,0.28574 0.53391,0.28575 0.4041,0.78142 0.40409,0.78143 0.73248,0.37878 0.73248,0.37878 0.36691,0.68558 0.36691,0.68558 1.12606,0.65991 1.12606,0.65991 h 0.38351 0.3835 l 0.30671,0.36956 0.30671,0.36956 0.52502,-0.13729 0.52501,-0.13729 -0.30588,-0.36857 -0.30588,-0.36856 0.29744,-1.4811 0.29745,-1.48109 -0.16028,-0.25934 -0.16028,-0.25934 0.0139,-1.00447 0.0139,-1.00448 -0.53248,0.13925 -0.53248,0.13925 -0.23773,0.62529 -0.23774,0.62529 -0.33728,-0.004 -0.33727,-0.004 0.26458,-0.19439 0.26458,-0.19438 0.28349,-0.51342 0.28349,-0.51342 0.72401,-0.24134 0.72401,-0.24133 0.49489,0.44787 0.4949,0.44788 0.51327,-0.16291 0.51326,-0.1629 0.43174,0.65891 0.43174,0.65892 v 0.61482 0.61482 l 0.53306,1.04559 0.53307,1.04558 -0.13932,0.36307 -0.13933,0.36308 -0.44328,-0.36053 -0.44328,-0.36053 0.1566,0.41893 0.15661,0.41892 -0.30551,0.0104 -0.3055,0.0104 -0.26458,0.065 -0.26459,0.065 -0.44175,-0.0313 -0.44176,-0.0313 0.0803,-1.19062 0.0803,-1.19063 h -0.10808 -0.10809 l -0.30411,0.72761 -0.30412,0.7276 -0.0324,0.59531 -0.0323,0.59531 h 0.22963 0.22963 l -0.3736,0.3736 -0.3736,0.3736 -1.08924,0.0786 -1.08924,0.0787 -0.2097,-0.23008 -0.20971,-0.23008 0.37161,0.21559 0.37161,0.21559 -0.19146,-0.30978 -0.19145,-0.30977 -0.24811,0.15333 -0.24811,0.15334 -0.72579,-0.50251 -0.7258,-0.50252 -0.39688,-0.19529 -0.39687,-0.1953 0.47885,0.3911 0.47885,0.39109 -0.3,0.18542 -0.3,0.18541 -0.64756,-0.60836 -0.64757,-0.60835 -0.39013,-0.0573 -0.39013,-0.0573 -0.1569,0.25387 -0.1569,0.25386 -0.41664,-0.34358 -0.41663,-0.34357 0.31721,0.59531 0.31721,0.59531 h 0.25527 0.25528 l -0.0661,-0.19843 -0.0661,-0.19844 0.26459,-0.0662 0.26458,-0.0661 v 0.28591 0.28591 l 0.45599,0.33343 0.45599,0.33343 0.7897,-0.047 0.7897,-0.047 -0.10464,0.16932 -0.10465,0.16932 0.57875,-0.0141 0.57874,-0.0141 0.0614,0.26458 0.0614,0.26458 -0.79342,-0.048 -0.79342,-0.048 0.15044,0.24342 0.15044,0.24341 -0.38385,-0.1473 -0.38386,-0.1473 -0.17467,0.28263 -0.17466,0.28262 h -0.20488 -0.20487 v -0.39702 -0.39687 l 0.28664,-0.0313 0.28663,-0.0314 0.35728,0.049 0.35728,0.049 -0.18561,-0.30032 -0.1856,-0.30031 -0.38398,0.14734 -0.38397,0.14735 -0.70351,-0.46004 -0.70351,-0.46004 0.20382,0.33073 0.20382,0.33073 h -0.33077 -0.33077 l 0.51359,0.39752 0.51359,0.39753 -0.50642,-0.1779 -0.50643,-0.17791 0.2191,0.35451 0.2191,0.35451 -0.39812,-0.15278 -0.39813,-0.15277 -0.37288,0.23996 -0.37288,0.23996 0.97857,-0.1183 0.97856,-0.11829 -0.14639,0.3815 -0.1464,0.3815 -0.24906,-0.15392 -0.24906,-0.15393 -1.17578,-0.0796 -1.17579,-0.0796 0.14527,0.23504 0.14527,0.23505 z m 0.14601,-0.65035 0.70772,-0.091 0.67262,-0.30819 0.67261,-0.30818 0.0347,-0.46078 0.0347,-0.46077 -0.52302,-0.32664 -0.52302,-0.32663 0.0803,0.47409 0.0803,0.4741 -0.31551,-0.0611 -0.31552,-0.0611 -0.49451,0.62866 -0.49451,0.62867 -0.51289,-0.28371 -0.51289,-0.28372 0.3506,0.42864 0.35061,0.42864 z m 0.45876,-0.1434 h -0.11668 l -0.18879,-0.30546 -0.18879,-0.30546 0.30547,0.18878 0.30546,0.18879 v 0.11668 0.11667 z m 0.52916,-0.26458 h -0.11667 l -0.18879,-0.30546 -0.18879,-0.30547 0.30547,0.18879 0.30546,0.18879 v 0.11667 0.11668 z m 0.51355,-0.26458 h -0.13229 v -0.13229 -0.1323 h 0.13229 0.1323 v 0.1323 0.13229 z m 2.64584,0.26458 h 0.13229 v -0.13229 -0.13229 h -0.13229 -0.13229 v 0.13229 0.13229 z m -8.45105,-0.26458 h 0.11667 v -0.11668 -0.11668 l -0.30546,-0.18878 -0.30547,-0.18879 0.18879,0.30546 0.18879,0.30547 z m 3.12089,-0.13229 h 0.64942 l -0.10671,-0.17267 -0.10672,-0.17266 0.76159,-0.26549 0.76159,-0.26549 0.11058,-0.94722 0.11058,-0.94721 -0.22992,-0.41085 -0.22993,-0.41084 v -1.44494 -1.44493 h -0.21328 -0.21329 l -0.30498,0.36748 -0.30498,0.36748 -1.11648,0.29044 -1.11648,0.29044 -0.46302,1.01626 -0.46302,1.01627 v 0.39636 0.39637 l 0.66146,0.6214 0.66146,0.62141 v 0.29784 0.29784 l 0.25135,0.25135 0.25135,0.25136 z m -0.37839,-2.51355 h -0.22797 l 0.1523,-0.39687 0.15229,-0.39688 h 0.22797 0.22797 l -0.15229,0.39688 -0.1523,0.39687 z m 7.03146,2.64584 h 0.1323 v -0.13229 -0.1323 h -0.1323 -0.13229 v 0.1323 0.13229 z m 0.79375,0 h 0.1323 v -0.13229 -0.1323 h -0.1323 -0.13229 v 0.1323 0.13229 z m -9.5281,-0.61736 h 0.39158 l -0.29809,-0.35918 -0.29808,-0.35917 -0.13639,0.13639 -0.13639,0.13639 -0.42122,-0.32387 -0.42122,-0.32388 0.46412,0.54666 0.46412,0.54666 z m -0.26148,-0.17639 h -0.13229 v -0.13229 -0.1323 h 0.13229 0.13229 v 0.1323 0.13229 z m -2.41248,-0.26459 h 0.13229 l 0.16352,-0.26458 0.16353,-0.26458 h -0.1323 -0.13229 l -0.16352,0.26458 -0.16352,0.26458 z m -0.76252,-0.52916 h 0.13229 v -0.13229 -0.1323 h -0.13229 -0.13229 v 0.1323 0.13229 z m 0.51355,0 h 0.11668 l 0.16352,-0.26459 0.16352,-0.26458 h -0.2802 -0.28019 v 0.26458 0.26459 z m 17.21353,0 h 0.1323 v -0.13229 -0.1323 h -0.1323 -0.13229 v 0.1323 0.13229 z m -0.52916,-0.26459 h 0.13229 v -0.13229 -0.13229 h -0.13229 -0.13229 v 0.13229 0.13229 z m 1.06317,0 h 0.11084 l -0.14446,-0.37647 -0.14447,-0.37646 0.35121,0.0532 0.35121,0.0532 0.39687,0.24586 0.39688,0.24587 -0.44175,-0.65018 -0.44174,-0.65018 -0.3058,0.0728 -0.3058,0.0728 0.18058,-0.56895 0.18057,-0.56895 -0.27033,0.16708 -0.27033,0.16707 -0.11152,-0.20009 -0.11153,-0.20008 0.0949,0.368 0.0949,0.368 -0.16721,0.52685 -0.16722,0.52686 -0.2558,-0.36569 -0.2558,-0.36569 0.0929,0.35057 0.0929,0.35058 0.21043,-0.086 0.21043,-0.086 0.25912,0.46302 0.25912,0.46302 z m -0.22533,-0.88194 -0.17638,0.17639 v -0.35278 -0.35278 l 0.17638,0.17639 0.17639,0.17639 z m 0.52917,0 -0.17639,0.17639 v -0.35278 -0.35278 l 0.17639,0.17639 0.17639,0.17639 z m -18.56493,0.0882 h 0.13229 v -0.13229 -0.13229 h -0.13229 -0.13229 v 0.13229 0.13229 z m -0.264583,-0.52917 h 0.132293 v -0.13229 -0.13229 h -0.132293 -0.13229 v 0.13229 0.13229 z m -0.79375,-0.26458 h 0.13229 v -0.13229 -0.13229 h -0.13229 -0.13229 v 0.13229 0.13229 z m 10.583333,0 h 0.13229 v -0.13229 -0.13229 h -0.13229 -0.13229 v 0.13229 0.13229 z m -1.5875,-0.26458 h 0.13229 v -0.1323 -0.13229 h -0.13229 -0.13229 v 0.13229 0.1323 z m 1.45521,-0.26459 h 0.35278 l -0.17639,-0.17639 -0.17639,-0.17638 -0.17639,0.17638 -0.17639,0.17639 z m -10.522473,-0.64732 0.25222,-0.4507 -0.0981,-0.0981 -0.0981,-0.0981 -0.35696,0.22062 -0.35697,0.22061 0.20281,0.32814 0.2028,0.32815 z m 9.298773,0.38274 h 0.11582 l -0.14112,-0.53966 -0.14112,-0.53966 -0.13138,0.13137 -0.13137,0.13138 0.15667,0.40828 0.15667,0.40829 z m 8.27925,-0.35278 0.17639,-0.17639 -0.17639,-0.17639 -0.17638,-0.17638 v 0.35277 0.35278 z m 0.61737,-0.17639 0.25648,-0.39687 0.0304,-0.52917 0.0304,-0.52916 0.21183,0.66145 0.21184,0.66146 0.0228,-0.39687 0.0228,-0.39688 -0.161,-0.60089 -0.16099,-0.60089 -0.36119,0.29976 -0.36119,0.29976 -0.40024,-0.15358 -0.40025,-0.15359 v 0.22388 0.22388 l 0.39688,0.32938 0.39687,0.32938 0.004,0.56291 0.004,0.56292 z m -1.19063,-0.79375 h 0.13229 v -0.13229 -0.13229 h -0.13229 -0.13229 v 0.13229 0.13229 z m -5.42396,6.87917 h -0.49793 l -0.13627,-0.22049 -0.13627,-0.22048 h 0.77047 0.77047 l -0.13626,0.22048 -0.13627,0.22049 z m 1.5875,-0.26458 h -0.35278 l 0.17639,-0.17639 0.17639,-0.17639 0.17639,0.17639 0.17639,0.17639 z m 0.904,-0.0209 -0.50712,-0.0209 0.34726,-0.13897 0.34727,-0.13896 0.15985,0.15985 0.15985,0.15985 z m -16.117543,-0.50828 h -0.13229 v -0.13229 -0.13229 h 0.13229 0.13229 v 0.13229 0.13229 z m 0.58554,-0.39687 -0.12728,0.52917 -0.0307,-0.60384 -0.0307,-0.60384 -0.59532,-0.23929 -0.59531,-0.23928 0.33073,-0.0168 0.33073,-0.0168 0.0916,0.0661 0.0916,0.0661 0.40244,-0.334 0.40243,-0.33399 0.26363,0.33399 0.26362,0.334 -0.008,0.46302 -0.008,0.46302 h -0.24879 -0.24879 l 0.17627,-0.46302 0.17628,-0.46302 -0.25458,0.26458 -0.25458,0.26458 z m 2.30926,0.39687 h -0.11667 v -0.26458 -0.26458 h 0.280193 0.2802 l -0.16352,0.26458 -0.163523,0.26458 z m 10.202083,0 h -0.35278 l 0.17639,-0.17639 0.17639,-0.17638 0.17638,0.17638 0.17639,0.17639 z m -6.4823,-0.26458 h -0.13229 v -0.13229 -0.13229 h 0.13229 0.1323 v 0.13229 0.13229 z m -10.120313,-0.27465 -0.19844,-0.0101 -0.34116,-0.38681 -0.34116,-0.38681 0.0766,-0.0202 0.0766,-0.0202 0.46302,-0.0886 0.46302,-0.0886 v 0.50576 0.50575 z m 16.633843,0.0101 h -0.26459 l -0.16352,-0.26458 -0.16352,-0.26458 h 0.26458 0.26459 l 0.16352,0.26458 0.16352,0.26458 z m -15.906233,-0.26458 h -0.35278 l 0.17639,-0.17639 0.17639,-0.17639 0.17638,0.17639 0.17639,0.17639 z m 1.23472,-0.0882 -0.17639,0.17639 v -0.35278 -0.35278 l 0.17639,0.17639 0.17639,0.17639 z m 0.48507,-0.17639 h -0.13229 v -0.13229 -0.13229 h 0.13229 0.13229 v 0.13229 0.13229 z m 3.57187,0 h -0.26458 v -0.26458 -0.26459 h 0.26458 0.26459 v 0.26459 0.26458 z m 13.427613,-0.004 -0.0662,-0.004 -0.38424,-0.24307 -0.38424,-0.24308 -0.25195,0.15572 -0.25196,0.15571 0.18923,-0.30618 0.18923,-0.30618 0.51311,0.27461 0.51311,0.27461 v 0.12298 0.12298 z m -2.14181,-0.52512 h -0.0913 l -0.50403,-0.59531 -0.50403,-0.59531 0.59531,0.50403 0.59532,0.50403 v 0.0913 0.0913 z m -17.768093,-0.26458 h -0.13229 v -0.13229 -0.13229 h 0.13229 0.13229 v 0.13229 0.13229 z m 0.52917,0 h -0.13229 v -0.13229 -0.13229 h 0.13229 0.13229 v 0.13229 0.13229 z m 0.79375,0 h -0.13229 v -0.13229 -0.13229 h 0.13229 0.13229 v 0.13229 0.13229 z m 20.681593,-0.35278 -0.17638,0.17639 v -0.35278 -0.35277 l 0.17638,0.17639 0.17639,0.17638 z m -20.722603,-0.17639 h -0.0913 v -0.26458 -0.26458 h 0.28019 0.2802 l -0.16352,-0.26459 -0.16352,-0.26458 h 0.4535 0.45349 l -0.47889,0.52917 -0.47889,0.52916 z m 4.53892,0 h -0.13229 v -0.13224 -0.13229 h 0.13229 0.1323 v 0.13229 0.13229 z m 15.610423,0 h -0.13229 v -0.13224 -0.13229 h 0.13229 0.13229 v 0.13229 0.13229 z m -21.579163,-0.26458 h -0.28019 l 0.16352,-0.26458 0.16352,-0.26459 h 0.11668 0.11667 v 0.26459 0.26458 z m 23.739923,-0.0882 -0.17638,0.17639 v -0.35278 -0.35278 l 0.17638,0.17639 0.17639,0.17639 z m -23.062843,-0.44097 h -0.13229 v -0.13225 -0.13229 h 0.13229 0.13229 v 0.13229 0.13229 z m 2.80935,0 h -0.26458 l -0.16352,-0.26458 -0.16352,-0.26459 h 0.26458 0.26458 l 0.16352,0.26459 0.16353,0.26458 z m 14.931493,-0.79375 h -0.14605 v -0.37658 -0.37657 l 0.68498,-0.81405 0.68497,-0.81405 0.43951,0.0106 0.4395,0.0106 -0.69954,0.38003 -0.69955,0.38003 -0.27888,0.8 -0.27888,0.8 z m 2.20397,0 h -0.26458 l 0.16352,-0.26458 0.16352,-0.26459 h 0.26458 0.26459 l -0.16353,0.26459 -0.16352,0.26458 z m -17.563563,-0.26458 h -0.13229 v -0.1323 -0.13229 h 0.13229 0.13229 v 0.13229 0.1323 z m -3.20623,-0.26459 h -0.13229 l 0.16352,-0.26458 0.16352,-0.26458 h 0.13229 0.13229 l -0.16352,0.26458 -0.16352,0.26458 z"
       id="path10" />
  </g>
</svg>
