<?xml version="1.0" encoding="UTF-8" standalone="no"?>
<!-- Created with Inkscape (http://www.inkscape.org/) -->

<svg
   width="62.00629mm"
   height="23.077959mm"
   viewBox="0 0 62.006288 23.077958"
   version="1.1"
   id="svg1"
   inkscape:version="1.4.1-rc (06eac75fbf, 2025-03-29)"
   sodipodi:docname="mounts7.svg"
   xmlns:inkscape="http://www.inkscape.org/namespaces/inkscape"
   xmlns:sodipodi="http://sodipodi.sourceforge.net/DTD/sodipodi-0.dtd"
   xmlns="http://www.w3.org/2000/svg"
   xmlns:svg="http://www.w3.org/2000/svg">
  <sodipodi:namedview
     id="namedview1"
     pagecolor="#ffffff"
     bordercolor="#000000"
     borderopacity="0.25"
     inkscape:showpageshadow="2"
     inkscape:pageopacity="0.0"
     inkscape:pagecheckerboard="0"
     inkscape:deskcolor="#d1d1d1"
     inkscape:document-units="mm"
     inkscape:zoom="0.72248176"
     inkscape:cx="117.65003"
     inkscape:cy="43.599716"
     inkscape:window-width="1850"
     inkscape:window-height="1016"
     inkscape:window-x="0"
     inkscape:window-y="0"
     inkscape:window-maximized="1"
     inkscape:current-layer="layer1" />
  <defs
     id="defs1" />
  <g
     inkscape:label="Layer 1"
     inkscape:groupmode="layer"
     id="layer1"
     transform="translate(-74.08333,-136.79071)">
    <path
       style="fill:#000000"
       d="m 130.52134,159.8499 -0.0818,-0.0186 -0.52916,-0.20937 -0.52917,-0.20937 -0.27857,0.10397 -0.27857,0.10396 -1.04435,-0.41358 -1.04434,-0.41359 0.52916,0.44089 0.52917,0.44089 -0.52917,-0.20062 -0.52916,-0.20062 -0.79375,-0.18456 -0.79375,-0.18456 0.59531,-0.19741 0.59531,-0.19741 v -0.20205 -0.20204 l -0.59531,-0.2853 -0.59531,-0.2853 -0.39688,-0.11967 -0.39687,-0.11967 -0.52917,0.19734 -0.52917,0.19735 -0.99218,-0.54726 -0.99219,-0.54727 v -0.21586 -0.21586 h -0.29698 -0.29698 l 0.29468,0.35507 0.29469,0.35507 -0.19614,0.21652 -0.19615,0.21651 0.37161,-0.21559 0.37161,-0.21559 -0.19544,0.31622 -0.19543,0.31623 -0.54004,-0.1714 -0.54003,-0.1714 0.21621,0.35907 0.21622,0.35908 -0.4443,-0.36033 -0.44429,-0.36033 -0.35809,0.13741 -0.3581,0.13741 -0.34169,-0.21117 -0.3417,-0.21118 0.56413,-0.17905 0.56413,-0.17905 0.004,-0.44519 0.004,-0.44519 0.21554,0.33969 0.21553,0.33969 0.42265,-0.16218 0.42264,-0.16219 -0.10255,-0.5325 -0.10255,-0.53251 0.42378,0.16262 0.42378,0.16262 -0.26802,-0.33679 -0.26803,-0.33678 0.0747,-0.4618 0.0747,-0.46181 -0.7121,-0.50705 -0.7121,-0.50706 -0.0431,-0.5725 -0.0431,-0.57249 0.42815,0.35073 0.42814,0.35073 -0.45334,-0.69682 -0.45334,-0.69683 0.0416,-0.22922 0.0416,-0.22922 -0.0313,-0.33072 -0.0313,-0.33073 h -0.37852 -0.37847 l -0.0845,0.56829 -0.0846,0.56829 -0.44753,0.28048 -0.44754,0.28048 -0.60624,-0.51804 -0.60624,-0.51805 0.35857,0.46303 0.35857,0.46302 h -0.19709 -0.19708 l 0.25496,0.33073 0.25496,0.33072 -0.16772,0.6588 -0.16772,0.65879 -0.17563,-0.28419 -0.17564,-0.28418 -0.17174,-0.90377 -0.17174,-0.90378 -0.0382,-0.38674 -0.0382,-0.38673 0.40442,-0.0844 0.40442,-0.0844 0.55961,0.52135 0.5596,0.52135 0.16046,-0.16046 0.16045,-0.16046 v -0.72663 -0.72664 l 0.8599,0.0716 0.85989,0.0716 0.15597,0.0377 0.15597,0.0377 0.31814,0.69825 0.31815,0.69825 0.65036,0.51158 0.65037,0.51158 v 0.40712 0.40711 l 0.99219,-0.18502 0.99219,-0.18503 0.21158,-0.37358 0.21159,-0.37359 0.58216,0.0264 0.58217,0.0264 -0.66146,0.21184 -0.66146,0.21183 1.05833,0.056 1.05834,0.056 -1.32292,0.23781 -1.32292,0.2378 -0.61866,0.14038 -0.61866,0.14038 0.29278,0.35278 0.29278,0.35277 1.33099,0.1279 1.33099,0.12789 0.84698,0.92271 0.84697,0.92271 0.96645,0.18038 0.96645,0.18038 0.43699,0.66693 0.43699,0.66693 0.84552,0.51554 0.84552,0.51555 -0.43063,9.9e-4 -0.43062,9.9e-4 -0.36105,0.43504 -0.36105,0.43504 0.65938,-0.16802 0.65938,-0.16801 -0.33237,0.15245 -0.33238,0.15244 0.14955,0.24199 0.14956,0.24199 h -0.26458 -0.26459 l -0.16352,-0.26459 -0.16352,-0.26458 h -0.26458 -0.26459 l 0.16352,0.26458 0.16353,0.26459 z m -1.66926,-0.51057 h 0.36565 l 0.15532,-0.25131 0.15531,-0.25131 -0.58326,-0.31215 -0.58326,-0.31215 0.716,-0.37514 0.71599,-0.37515 -0.15576,-0.25202 -0.15576,-0.25202 -0.31511,0.004 -0.31512,0.004 0.39688,0.25648 0.39687,0.25648 -0.39687,0.006 -0.39688,0.006 -0.73955,0.38575 -0.73955,0.38576 -0.14865,-0.38739 -0.14865,-0.38738 h -0.55226 -0.55227 l 0.89656,0.66146 0.89656,0.66146 h 0.0965 0.0965 l -0.16353,-0.26459 -0.16352,-0.26458 h 0.39688 0.39687 l 0.16352,0.26458 0.16353,0.26459 h -0.29582 -0.29581 l 0.16352,0.26458 0.16352,0.26458 z m 0.1323,-0.26458 h -0.35278 l 0.17639,-0.17639 0.17639,-0.17639 0.17638,0.17639 0.17639,0.17639 z m 1.04271,0.26458 h 0.24897 l 0.16165,-0.26155 0.16165,-0.26155 -0.41062,0.15756 -0.41061,0.15757 v 0.10399 0.10398 z m -0.10106,-0.52917 h 0.11668 v -0.11667 -0.11668 l -0.30546,-0.18879 -0.30547,-0.18878 0.18879,0.30546 0.18879,0.30546 z m -9.78958,-1.5875 h 0.11668 v -0.11667 -0.11668 l -0.30547,-0.18879 -0.30546,-0.18878 0.18879,0.30546 0.18878,0.30546 z m 3.12857,-0.0936 0.64777,-0.0387 -0.10775,-0.10794 -0.10774,-0.10795 0.27514,-0.33152 0.27513,-0.33152 -0.28399,-0.17551 -0.28398,-0.17551 0.0727,0.31732 0.0727,0.31732 -0.31903,0.11737 -0.31904,0.11737 0.10433,-0.54175 0.10434,-0.54176 -0.26593,-0.16435 -0.26592,-0.16435 -0.15239,0.1524 -0.15239,0.15239 0.30904,0.37237 0.30904,0.37237 -0.41737,0.16016 -0.41737,0.16016 0.15035,-0.24327 0.15034,-0.24327 -0.25061,-0.15489 -0.25062,-0.15489 -0.153,0.24757 -0.15301,0.24756 0.39075,0.39075 0.39075,0.39075 z m -1.02752,-0.70014 h -0.13229 v -0.1323 -0.13229 h 0.13229 0.13229 v 0.13229 0.1323 z m 0.79375,-0.52917 h -0.13229 v -0.13229 -0.13229 h 0.13229 0.13229 v 0.13229 0.13229 z m 4.89479,1.32292 h 0.35278 l -0.17639,-0.17639 -0.17639,-0.17639 -0.17639,0.17639 -0.17639,0.17639 z m -7.26042,-0.26459 h 0.11667 v -0.11667 -0.11668 l -0.30546,-0.18879 -0.30546,-0.18878 0.18878,0.30546 0.18879,0.30546 z m 4.21771,0 h 0.1323 v -0.13229 -0.13229 h -0.1323 -0.13229 v 0.13229 0.13229 z m 3.70417,0 h 0.13229 v -0.13229 -0.13229 h -0.13229 -0.13229 v 0.13229 0.13229 z m -7.54062,-1.05833 h 0.35277 l -0.17639,-0.17639 -0.17638,-0.17639 -0.17639,0.17639 -0.17639,0.17639 z m 1.19062,-0.26458 h 0.13229 v -0.1323 -0.13229 h -0.13229 -0.13229 v 0.13229 0.1323 z m 1.60312,0 h 0.11667 v -0.11668 -0.11668 l -0.30546,-0.18878 -0.30546,-0.18879 0.18878,0.30546 0.18879,0.30547 z m 0.77813,0 h 0.13229 v -0.1323 -0.13229 h -0.13229 -0.13229 v 0.13229 0.1323 z m 1.63551,0 h 0.14908 l -0.29469,-0.35508 -0.29468,-0.35507 0.1476,-0.1476 0.1476,-0.1476 -0.25896,-0.16005 -0.25896,-0.16004 0.0504,0.33199 0.0504,0.33199 0.20661,0.33073 0.20661,0.33073 z m -1.10634,-0.26459 h 0.13229 v -0.13229 -0.13229 h -0.13229 -0.13229 v 0.13229 0.13229 z m -2.08427,-0.26458 h 0.0999 v -0.0999 -0.0999 l -0.46302,-0.36313 -0.46302,-0.36312 0.36312,0.46302 0.36313,0.46302 z m 1.63686,-0.008 0.0818,0.008 -0.19131,-0.30955 -0.19131,-0.30954 0.44028,0.16895 0.44028,0.16895 v -0.23859 -0.23858 l -0.78942,0.0224 -0.78943,0.0224 0.4587,0.34832 0.45869,0.34832 z m -2.72759,-0.25617 h 0.13229 v -0.13229 -0.13229 h -0.13229 -0.13229 v 0.13229 0.13229 z m 0.082,-0.52917 h 0.13229 l -0.43846,-0.48449 -0.43846,-0.48449 0.17697,-0.17697 0.17696,-0.17696 h -0.30868 -0.30868 v 0.1776 0.17761 l 0.43788,0.48385 0.43789,0.48385 z m 0.47955,-0.26458 h 0.0999 v -0.0999 -0.0999 l -0.46302,-0.36313 -0.46302,-0.36312 0.36312,0.46302 0.36313,0.46302 z m -2.67823,-1.32292 h 0.13229 v -0.13229 -0.13229 h -0.13229 -0.13229 v 0.13229 0.13229 z m 0.79375,0 h 0.13229 v -0.13229 -0.13229 h -0.13229 -0.13229 v 0.13229 0.13229 z m 0.80936,-0.26458 h 0.11668 v -0.11668 -0.11667 l -0.30547,-0.18879 -0.30546,-0.18879 0.18879,0.30547 0.18879,0.30546 z m -4.51353,-0.26458 h 0.13229 v -0.13229 -0.1323 h -0.13229 -0.13229 v 0.1323 0.13229 z m 3.175,-1.5875 h 0.13229 v -0.13229 -0.1323 h -0.13229 -0.13229 v 0.1323 0.13229 z m -14.76366,8.34718 -0.84676,0.40968 0.51359,-0.40968 0.51359,-0.40968 0.28016,-0.004 0.28016,-0.004 -0.39687,-0.25728 -0.39688,-0.25729 1.19063,0.1582 1.19062,0.15819 0.11025,0.10314 0.11024,0.10314 h -0.85098 -0.85099 z m 19.52616,-0.1532 h -0.26458 l -0.39688,-0.25648 -0.39687,-0.25648 h 0.26458 0.26458 l 0.39688,0.25648 0.39687,0.25648 z m 0.79375,-0.28639 -0.26458,-0.0131 -0.79375,-0.36345 -0.79375,-0.36345 0.54474,-0.0119 0.54474,-0.0119 0.51359,0.38846 0.51359,0.38846 z M 104.6427,158.2814 h -0.35278 l 0.17639,-0.17639 0.17639,-0.17639 0.17639,0.17639 0.17639,0.17639 z m 4.16844,-0.65916 -0.61546,0.66375 v -0.53146 -0.53147 l 0.27403,-0.009 0.27403,-0.009 -0.6378,-0.3534 -0.6378,-0.3534 1.146,0.0816 1.146,0.0816 0.73543,-0.38031 0.73543,-0.38031 0.21158,0.009 0.21158,0.009 -0.62463,0.52037 -0.62462,0.52036 h -0.48915 -0.48915 z m 10.64823,0.65916 h -0.35278 l 0.17639,-0.17639 0.17639,-0.17639 0.17638,0.17639 0.17639,0.17639 z m -15.875,-0.26459 h -0.35278 l 0.17639,-0.17638 0.17639,-0.17639 0.17638,0.17639 0.17639,0.17638 z m 3.83645,0 h -0.13229 v -0.13229 -0.13229 h 0.13229 0.1323 v 0.13229 0.13229 z m 8.59896,0 H 115.667 l 0.17639,-0.17638 0.17639,-0.17639 0.17639,0.17639 0.17639,0.17638 z m -30.427075,-0.30676 h -0.661458 l 0.330729,-0.13345 0.330729,-0.13345 0.330729,0.13345 0.330729,0.13345 z m 27.160255,0.0418 h -0.24411 l 0.76328,-0.57654 0.76329,-0.57655 0.39687,-0.24649 0.39688,-0.24649 -0.91605,0.82304 -0.91605,0.82303 z m 4.32517,-0.0226 -0.39688,-0.0145 0.52917,-0.22739 0.52916,-0.22739 0.26459,-0.0145 0.26458,-0.0145 -0.39687,0.25648 -0.39688,0.25648 z m 1.4552,0.0226 h -0.13229 v -0.13229 -0.13229 h 0.13229 0.1323 v 0.13229 0.13229 z m -29.919965,-0.28547 -0.507118,-0.0209 0.347265,-0.13896 0.347266,-0.13896 0.159852,0.15985 0.159853,0.15985 z m 14.971015,0.0209 h -0.35278 l 0.17639,-0.17639 0.17639,-0.17638 0.17638,0.17638 0.17639,0.17639 z m -19.298977,-0.26459 h -0.544781 v -0.10398 -0.10398 l 0.388401,-0.14905 0.388402,-0.14904 0.15638,0.25303 0.15638,0.25302 z m 2.614604,-0.26458 h -0.544782 l 0.15638,-0.25303 0.15638,-0.25303 0.388401,0.14905 0.388402,0.14904 v 0.10399 0.10398 z m 18.117533,-0.0209 -0.50712,-0.0209 0.34726,-0.13896 0.34727,-0.13897 0.15985,0.15985 0.15985,0.15986 z m 12.98663,0.0209 h -0.13229 v -0.13229 -0.13229 h 0.13229 0.13229 v 0.13229 0.13229 z m -29.368757,-0.26458 h -0.396875 v -0.25628 -0.25628 l 0.396875,0.15229 0.396875,0.1523 v 0.10398 0.10399 z m 30.014597,0 h -0.24897 v -0.10399 -0.10398 l 0.41062,-0.15757 0.41062,-0.15757 -0.16165,0.26155 -0.16165,0.26156 z m -41.275003,-0.26462 h -0.513552 v -0.10144 -0.10145 l 0.653451,-0.12492 0.653452,-0.12491 -0.1399,0.22636 -0.1399,0.22636 z m 2.976562,-0.004 -0.447406,-0.004 0.396875,-0.25648 0.396875,-0.25648 0.214053,-0.004 0.214052,-0.004 -0.163521,0.26459 -0.163522,0.26458 z m 5.108844,0.004 h -0.132291 v -0.13229 -0.13229 h 0.132291 0.132292 v 0.13229 0.13229 z m 4.447386,-0.004 -0.214052,-0.004 -0.353096,-0.22382 -0.353096,-0.22382 0.59771,-0.15631 0.59771,-0.1563 0.416844,0.26452 0.416844,0.26452 -0.628446,-0.17327 -0.628446,-0.17327 0.18104,0.29293 0.18104,0.29293 z m 1.373448,0.004 h -0.132292 v -0.13229 -0.13229 h 0.132292 0.132291 v 0.13229 0.13229 z m 1.902614,-0.0264 -0.478636,0.0264 0.163522,-0.26458 0.163521,-0.26458 0.976573,0.0264 0.976572,0.0264 -0.661458,0.21183 -0.661458,0.21184 z m 4.844261,0.0264 h -0.352778 l 0.176389,-0.17639 0.176389,-0.17638 0.176388,0.17638 0.176389,0.17639 z m 3.439588,-0.0227 -0.39688,-0.0145 -0.52916,-0.22739 -0.52917,-0.22739 0.52917,-0.0145 0.52916,-0.0145 0.39688,0.25648 0.39687,0.25648 z m 4.10104,-0.0441 -1.05833,-0.005 0.59839,-0.11506 0.5984,-0.11507 0.45994,0.12041 0.45993,0.1204 z m 12.43542,0.0667 h -0.13229 v -0.13229 -0.13229 h 0.13229 0.13229 v 0.13229 0.13229 z m -43.656257,-0.31967 -0.264583,0.0942 0.661458,-0.54283 0.661459,-0.54283 -0.529167,-0.01 -0.529167,-0.01 0.396875,-0.25648 0.396875,-0.25648 0.214053,-0.004 0.214052,-0.004 -0.181007,0.29287 -0.181008,0.29288 0.892997,-0.19439 0.892997,-0.19439 0.461337,-0.32066 0.461338,-0.32065 -0.174706,-0.17471 -0.174706,-0.1747 1.036285,-0.0168 1.036285,-0.0168 -0.595313,-0.23929 -0.595312,-0.23929 v -0.0877 -0.0877 l 0.992187,0.10795 0.992188,0.10795 -0.264583,-0.27096 -0.264584,-0.27097 -0.529166,-0.12137 -0.529167,-0.12138 0.883888,0.0862 0.883887,0.0862 0.571321,-0.31798 0.571321,-0.31799 0.493478,-0.39688 0.493479,-0.39687 -1.816396,-0.15172 -1.816395,-0.15171 1.984375,-0.0508 1.984375,-0.0508 -0.396875,-0.25648 -0.396875,-0.25648 -0.699297,-0.004 -0.699296,-0.004 -0.154645,-0.403 -0.154644,-0.403 0.457066,0.23411 0.457066,0.2341 0.727604,0.17394 0.727605,0.17393 v -0.23347 -0.23347 l -1.653646,-0.36233 -1.653646,-0.36232 0.577273,-0.0867 0.577274,-0.0867 1.142518,0.38685 1.142518,0.38685 0.248501,-0.15279 0.248501,-0.15278 -0.57923,-0.21803 -0.57923,-0.21803 -0.595313,-0.25943 -0.595312,-0.25943 0.977522,0.15383 0.977523,0.15384 0.849065,-0.42357 0.849065,-0.42357 h 0.987254 0.987253 l 0.445006,-0.67917 0.445006,-0.67916 -0.314681,-0.37917 -0.314682,-0.37917 h 0.444887 0.444887 l -0.151831,-0.24567 -0.151831,-0.24566 0.599237,-0.0927 0.599237,-0.0927 0.529166,0.27225 0.529167,0.27225 0.486917,0.39336 0.486918,0.39336 0.336001,-0.4595 0.336001,-0.45951 0.367706,-0.008 0.367707,-0.008 -0.459776,-0.26787 -0.459776,-0.26787 -0.280064,-0.5233 -0.280063,-0.52331 0.169927,-0.27494 0.169927,-0.27495 0.386071,0.47885 0.386071,0.47886 -0.280602,-0.58058 -0.280602,-0.58058 -0.304041,-0.18791 -0.304041,-0.1879 0.19017,0.3077 0.19017,0.3077 -0.588622,0.21774 -0.588622,0.21775 0.439332,0.16859 0.439333,0.16859 v 0.30528 0.30528 l -0.396875,-0.32937 -0.396875,-0.32938 v 0.19709 0.19708 l -0.396875,-0.32938 -0.396875,-0.32937 v -0.24781 -0.2478 l 0.264583,0.16353 0.264583,0.16352 v -0.23773 -0.23773 l 0.673908,-0.30705 0.673908,-0.30706 h 0.116523 0.116523 l 0.664777,1.05308 0.664778,1.05307 v 0.16995 0.16995 l -0.462578,-0.36313 -0.462577,-0.36312 0.669974,0.92604 0.669975,0.92604 0.320137,0.66146 0.320136,0.66145 0.735176,1.32292 0.735175,1.32292 0.920103,0.43441 0.920104,0.43442 0.504028,0.55777 0.504028,0.55778 h 0.628423 0.628424 l 1.571557,0.66145 1.57156,0.66146 h 0.78008 0.78008 l 0.41852,0.1606 0.41851,0.1606 v 0.24568 0.24568 l -1.21256,0.51976 -1.21256,0.51977 -0.44108,-0.0186 -0.44109,-0.0186 0.52917,-0.22739 0.52916,-0.22739 -0.61092,-0.0186 -0.61093,-0.0186 0.16165,-0.26156 0.16165,-0.26155 -0.4005,0.15369 -0.4005,0.15368 -0.80833,-0.40324 -0.808323,-0.40325 0.180151,0.29149 0.180151,0.2915 -0.454021,-0.17423 -0.45402,-0.17422 0.161648,0.26155 0.161649,0.26155 h -0.227282 -0.227281 l -0.3175,-0.3175 -0.3175,-0.3175 v 0.32681 0.32681 l -0.511773,-0.27389 -0.511773,-0.27389 h -0.1653 -0.165301 l 0.19131,0.30954 0.19131,0.30955 -0.440278,-0.17726 -0.440279,-0.17725 -0.463021,-0.15389 -0.46302,-0.15389 0.529166,0.45407 0.529167,0.45407 -0.463021,-0.16789 -0.463021,-0.16789 -0.386357,-0.15656 -0.386358,-0.15656 0.106836,0.55475 0.106835,0.55475 -0.496834,-0.2659 -0.496834,-0.26589 h -0.1653 -0.165301 l 0.146387,0.23685 0.146387,0.23686 -0.386882,0.14846 -0.386882,0.14847 -0.181646,-0.29391 -0.181645,-0.29391 0.346344,0.21405 0.346344,0.21405 -0.181645,-0.29391 -0.181645,-0.2939 -0.386882,0.14846 -0.386883,0.14846 0.162702,0.26325 0.162701,0.26326 -0.627242,-0.32682 -0.627241,-0.32682 -0.132292,-0.12932 -0.132292,-0.12932 0.628446,0.1935 0.628446,0.19351 -0.156949,-0.25395 -0.15695,-0.25395 0.351231,-0.48034 0.351231,-0.48033 0.846152,0.60251 0.846152,0.60251 0.161155,-0.16115 0.161156,-0.16116 -0.374827,-0.004 -0.374826,-0.004 0.396875,-0.25648 0.396875,-0.25648 -0.396875,-0.0354 -0.396875,-0.0354 -0.305202,0.0371 -0.305202,0.0371 -0.958496,-1.11979 -0.958495,-1.11978 0.136187,-0.3549 0.136188,-0.3549 -0.232541,0.14372 -0.232541,0.14372 -0.1685,-0.89819 -0.1685,-0.89818 -0.40342,-0.1548 -0.40342,-0.15481 0.150349,0.24327 0.15035,0.24327 -0.2689,0.16619 -0.268899,0.16619 -0.254473,-0.15727 -0.254474,-0.15728 0.244364,-0.64272 0.244363,-0.64273 -0.254473,-0.15727 -0.254473,-0.15728 v -0.75673 -0.7565 l -0.1606,-0.41851 -0.160599,-0.41852 -0.302421,0.01 -0.302422,0.01 -0.529167,1.11489 -0.529166,1.1149 -1.227813,0.0795 -1.227813,0.0795 -0.491979,0.53639 -0.491979,0.53638 -0.661458,1.35133 -0.661458,1.35133 -0.515224,0.28178 -0.515223,0.28178 -1.045829,0.72761 -1.045828,0.7276 h -0.26466 -0.26466 l -1.349288,0.62404 -1.349288,0.62403 -0.79375,0.35967 -0.79375,0.35966 z m 18.536448,-1.53241 h 0.116677 v -0.11668 -0.11667 l -0.305464,-0.18879 -0.305463,-0.18879 0.188787,0.30547 0.188787,0.30546 z m 10.281089,-0.0209 0.50712,0.0209 -0.15985,-0.15985 -0.15985,-0.15985 -0.34727,0.13896 -0.34727,0.13896 z m -8.188084,-0.50827 h 0.124244 l 0.942137,-0.52916 0.942136,-0.52917 h 0.139859 0.139859 l -0.146387,0.23686 -0.146387,0.23686 0.409098,0.15698 0.409097,0.15699 -0.161649,-0.26155 -0.161648,-0.26156 0.346344,-0.0168 0.346344,-0.0168 -0.595607,-0.23939 -0.595607,-0.2394 -0.439984,0.16884 -0.439984,0.16884 0.207624,-0.33594 0.207625,-0.33595 -0.543702,0.29098 -0.543702,0.29098 h -0.1653 -0.165301 l 0.137517,-0.2225 0.137517,-0.22251 -0.849506,-0.62182 -0.849506,-0.62182 0.363125,0.44745 0.363126,0.44745 h -0.197085 -0.197085 l 0.294684,0.35508 0.294685,0.35507 -0.174093,0.17409 -0.174094,0.1741 h -0.220486 -0.220486 l 0.06615,-0.23813 0.06615,-0.23812 -0.264583,-0.0453 -0.264584,-0.0453 -0.418923,-0.37913 -0.418924,-0.37912 v 0.39798 0.39797 l 0.124914,-0.12491 0.124914,-0.12491 0.779433,0.65585 0.779433,0.65584 0.242181,-0.14967 0.242181,-0.14968 v 0.2802 0.2802 z m 0.113881,-0.635 -0.805413,0.0558 0.169583,-0.16958 0.169583,-0.16958 0.789351,-0.0397 0.789351,-0.0397 -0.153521,0.15352 -0.153522,0.15352 z m -1.42875,-0.42333 h -0.132292 v -0.13229 -0.13229 h 0.132292 0.132291 v 0.13229 0.13229 z m 1.206239,-0.26458 h -0.248968 l -0.161648,-0.26156 -0.161649,-0.26155 0.410617,0.15757 0.410617,0.15757 v 0.10398 0.10399 z m 4.167188,1.05428 0.08176,0.004 -0.163522,-0.26458 -0.163521,-0.26459 -0.315115,0.004 -0.315114,0.004 0.396875,0.25648 0.396875,0.25648 z m 0.926042,-0.54297 0.214054,0.0179 -0.14145,-0.22888 -0.141464,-0.22889 -1.067779,-0.14322 -1.067778,-0.14322 -0.764617,-0.81852 -0.764617,-0.81853 h -0.150126 -0.150126 l 0.144445,0.37642 0.144445,0.37642 0.393187,0.15088 0.393188,0.15088 -0.164677,0.26645 -0.164676,0.26645 0.214052,0.0117 0.214053,0.0117 1.322917,0.36734 1.322919,0.36734 z m -3.653636,-1.04048 h 0.132292 v -0.13229 -0.13229 H 96.30833 96.176038 v 0.13229 0.13229 z m -0.529167,-0.26458 h 0.132292 v -0.13229 -0.1323 h -0.132292 -0.132291 v 0.1323 0.13229 z m -3.439583,-0.26459 h 0.132292 v -0.13229 -0.13229 H 92.33958 92.207288 v 0.13229 0.13229 z m -0.248969,-0.52916 h 0.116677 v -0.11668 -0.11668 l -0.305464,-0.18878 -0.305463,-0.18879 0.188787,0.30546 0.188787,0.30547 z M 91.54583,150.3434 h 0.132292 v -0.13229 -0.1323 H 91.54583 91.413538 v 0.1323 0.13229 z m 1.322917,-0.79375 h 0.132291 v -0.13229 -0.1323 h -0.132291 -0.132292 v 0.1323 0.13229 z m 0.79375,0 h 0.132291 v -0.13229 -0.1323 h -0.132291 -0.132292 v 0.1323 0.13229 z m -10.069782,-0.26449 h 0.116677 l 0.163521,-0.26458 0.163522,-0.26458 h -0.280199 -0.280198 v 0.26458 0.26458 z m 8.482282,-0.26458 h 0.132291 v -0.13229 -0.13229 h -0.132291 -0.132292 v 0.13229 0.13229 z m 1.435183,-0.0307 0.112266,0.0307 -0.562797,-0.59907 -0.562798,-0.59907 -0.06657,-0.98843 -0.06657,-0.98843 h -0.327795 -0.327795 l -0.389261,0.55575 -0.389261,0.55574 -0.670575,0.0396 -0.670575,0.0396 0.224501,0.22478 0.224501,0.22477 0.687854,0.0398 0.687853,0.0398 1.87e-4,0.19843 1.87e-4,0.19844 0.463021,0.004 0.463021,0.004 -0.396875,0.27787 -0.396875,0.27786 0.628446,-0.17797 0.628446,-0.17797 -0.168665,0.27291 -0.168664,0.2729 0.46626,0.12163 0.46626,0.12162 z m -3.007069,-0.23389 h 0.116677 v -0.11668 -0.11667 l -0.305464,-0.18879 -0.305463,-0.18879 0.188787,0.30547 0.188787,0.30546 z m -0.280198,-0.79375 h 0.132292 v -0.1323 -0.13229 h -0.132292 -0.132291 v 0.13229 0.1323 z m 1.918229,8.19149 -0.06615,-0.0106 -0.727605,-0.39473 -0.727604,-0.39473 v -0.13065 -0.13063 l 0.79375,0.41046 0.79375,0.41047 v 0.12549 0.1255 z m 3.615973,-0.0103 -0.507118,-0.0209 0.347265,-0.13897 0.347266,-0.13896 0.159852,0.15985 0.159853,0.15986 z m 1.212673,0.0209 H 96.61701 l 0.176389,-0.17639 0.176389,-0.17639 0.176389,0.17639 0.176389,0.17639 z m 10.715632,0 h -0.13229 v -0.13229 -0.13229 h 0.13229 0.13229 v 0.13229 0.13229 z m 1.5875,-0.0516 -0.79375,-0.01 0.46805,-0.12197 0.46806,-0.12197 0.32569,0.13177 0.3257,0.13178 z m -30.707288,-0.21298 h -0.116677 v -0.26459 -0.26458 h 0.280198 0.280198 l -0.163521,0.26458 -0.163522,0.26459 z m 21.182284,0 h -0.132294 v -0.13229 -0.1323 h 0.132294 0.13229 v 0.1323 0.13229 z m 5.027084,-0.0516 -0.79375,-0.01 0.46806,-0.12197 0.46805,-0.12197 0.3257,0.13177 0.32569,0.13177 z m 1.56545,0.0307 -0.50712,-0.0209 0.34727,-0.13897 0.34727,-0.13896 0.15985,0.15985 0.15985,0.15985 z m 8.7533,0.0209 h -0.13229 v -0.13229 -0.1323 h 0.13229 0.13229 v 0.1323 0.13229 z m -5.82083,-0.34657 -1.5875,-0.003 0.86463,-0.10707 0.86464,-0.10706 0.72286,0.10976 0.72287,0.10977 z m 2.81712,0.082 h -0.21539 l -0.17639,-0.1764 -0.17638,-0.17638 v -0.20209 -0.20208 l 0.59531,-0.11068 0.59531,-0.11068 -0.86908,-0.20722 -0.86908,-0.20721 0.16352,-0.16353 0.16353,-0.16353 0.30868,-0.009 0.30868,-0.009 0.18405,0.26578 0.18405,0.26577 0.21241,-0.21241 0.21241,-0.21241 -0.52875,-0.4083 -0.52875,-0.40831 0.59593,0.14075 0.59594,0.14075 0.24535,-0.43842 0.24535,-0.43841 h 0.8785 0.87851 l 0.0848,-0.59695 0.0848,-0.59695 -0.61393,-0.24618 -0.61393,-0.24617 0.44138,-0.0168 0.44139,-0.0168 0.3992,-0.15319 0.39921,-0.15319 -0.0971,0.48392 -0.097,0.48392 -0.14907,0.7109 -0.14908,0.71091 -0.85905,0.0829 -0.85904,0.0828 -0.60042,1.25677 -0.60041,1.25677 z m -29.804627,-0.26459 h -0.132291 v -0.13229 -0.13229 h 0.132291 0.132292 v 0.13229 0.13229 z m 15.0614,-0.27119 -0.249157,0.24916 -0.350701,-0.21675 -0.350702,-0.21675 0.456929,-0.17534 0.456928,-0.17534 0.142929,0.14293 0.14293,0.14293 z m 2.425283,0.16062 -1.44801,-0.0217 -0.281922,-0.0887 -0.281923,-0.0887 0.138156,-0.22354 0.138155,-0.22354 1.383496,0.12573 1.383502,0.12572 0.20828,0.20829 0.20829,0.20828 z m 7.045124,0.0709 -0.7193,-0.0396 -0.72761,-0.11022 -0.7276,-0.11022 v -0.23186 -0.23186 l 1.3043,0.0101 1.3043,0.0101 0.1426,0.37162 0.14261,0.37162 z m -0.32243,-0.22494 h 0.35278 l -0.17639,-0.17638 -0.17639,-0.17639 -0.17639,0.17639 -0.17639,0.17638 z m -26.85521,0 h -0.132292 v -0.13229 -0.13229 h 0.132292 0.132292 v 0.13229 0.13229 z m 15.610417,0 h -0.132292 v -0.13229 -0.13229 h 0.132292 0.132291 v 0.13229 0.13229 z m 15.478133,-0.0226 -0.66146,0.0145 -0.39688,-0.25648 -0.39687,-0.25648 0.52916,0.0145 0.52917,0.0145 0.52917,0.22739 0.52916,0.22739 z m 6.92969,-0.24598 -0.4474,-0.004 0.39687,-0.25648 0.39688,-0.25648 0.21405,-0.004 0.21405,-0.004 -0.16352,0.26458 -0.16352,0.26458 z M 89.032288,154.57687 H 88.67951 l 0.176389,-0.17639 0.176389,-0.17639 0.176389,0.17639 0.176389,0.17639 z m 19.182292,-0.0516 -0.79375,-0.01 0.46806,-0.12197 0.46806,-0.12197 0.32569,0.13177 0.32569,0.13178 z m 12.30313,0.0516 h -0.35278 l 0.17639,-0.17639 0.17639,-0.17639 0.17639,0.17639 0.17639,0.17639 z m -45.133512,-0.28547 -0.507118,-0.0209 0.347265,-0.13896 0.347266,-0.13897 0.159853,0.15985 0.159852,0.15986 z m 1.477257,0.0209 h -0.352778 l 0.176389,-0.17639 0.176389,-0.17639 0.176389,0.17639 0.176389,0.17639 z m 12.964583,0 H 89.47326 l 0.176389,-0.17639 0.176389,-0.17639 0.176389,0.17639 0.176389,0.17639 z m 1.190625,0 h -0.101062 l -0.163521,-0.26458 -0.163522,-0.26459 h 0.428105 0.428105 l -0.163521,0.26459 -0.163522,0.26458 z m 2.910417,0 h -0.132292 v -0.13229 -0.13229 h 0.132292 0.132292 v 0.13229 0.13229 z m 12.56771,-0.0614 h -0.92604 l 0.46302,-0.121 0.46302,-0.121 0.46302,0.121 0.46302,0.121 z m 2.11667,-0.24498 H 107.95 l 0.33073,-0.13345 0.33073,-0.13345 0.33073,0.13345 0.33073,0.13345 z m 11.93748,0.0418 h -0.26458 l -0.16353,-0.26458 -0.16352,-0.26458 h 0.26459 0.26458 l 0.16352,0.26458 0.16352,0.26458 z m -43.555193,-0.26464 h -0.132292 v -0.13229 -0.13229 h 0.132292 0.132291 v 0.13229 0.13229 z m 15.41003,-0.10829 -0.121082,0.12108 -0.334684,-0.40327 -0.334683,-0.40327 h 0.281365 0.281365 l 0.174401,0.28219 0.174401,0.28218 z m 12.900393,0.10829 h -0.13229 v -0.13229 -0.13229 h 0.13229 0.13229 v 0.13229 0.13229 z m 1.32291,-0.0667 -1.05833,-0.005 0.5984,-0.11507 0.5984,-0.11506 0.45993,0.1204 0.45994,0.12041 z m 3.96875,0.009 -0.52916,-0.005 -0.79375,-0.20197 -0.79375,-0.20198 0.66146,-0.005 0.66145,-0.005 0.66146,0.21184 0.66146,0.21183 z m 15.85296,0.0368 -0.50712,-0.0209 0.34726,-0.13896 0.34727,-0.13897 0.15985,0.15985 0.15985,0.15986 z m -18.23421,-0.50824 h -0.13229 v -0.13229 -0.13229 h 0.13229 0.1323 v 0.13229 0.13229 z m 2.51355,0 h -0.35278 l 0.17639,-0.17639 0.17639,-0.17638 0.17638,0.17638 0.17639,0.17639 z m 20.12394,0 h -0.54478 v -0.10398 -0.10398 l 0.3884,-0.14905 0.38841,-0.14904 0.15638,0.25303 0.15638,0.25302 z m -55.445823,-0.26458 h -0.396875 v -0.10398 -0.10399 l 0.396875,-0.15229 0.396875,-0.1523 v 0.25628 0.25628 z m 15.08125,0 h -0.132292 v -0.13229 -0.13229 h 0.132292 0.132291 v 0.13229 0.13229 z m 19.027953,-0.0209 -0.50712,-0.0209 0.34727,-0.13896 0.34727,-0.13897 0.15985,0.15985 0.15985,0.15986 z m 2.53559,0.0209 h -0.35278 l 0.17639,-0.17639 0.17639,-0.17639 0.17639,0.17639 0.17639,0.17639 z m -26.326043,-0.26461 h -0.132292 v -0.13229 -0.1323 h 0.132292 0.132291 v 0.1323 0.13229 z m 25.532293,0 h -0.35278 l 0.17639,-0.17639 0.17639,-0.17639 0.17639,0.17639 0.17639,0.17639 z M 86.254163,152.46016 H 86.153101 L 85.98958,152.19558 85.826058,151.931 h 0.428105 0.428105 l -0.163521,0.26458 -0.163522,0.26458 z m 17.330217,-0.0372 h -0.39688 l 0.52917,-0.22739 0.52916,-0.22739 h 0.39688 0.39687 l -0.52916,0.22739 -0.52917,0.22739 z m 5.13732,0.0163 -0.50712,-0.0209 0.34727,-0.13896 0.34727,-0.13897 0.15985,0.15986 0.15985,0.15985 z m 4.25538,-0.002 -0.26458,-0.0145 -0.52917,-0.22739 -0.52916,-0.22739 0.39687,-0.0145 0.39688,-0.0145 0.39687,0.25648 0.39688,0.25648 z m 14.4198,0.0226 h -0.35278 l 0.17639,-0.17639 0.17639,-0.17638 0.17638,0.17638 0.17639,0.17639 z m -47.625008,-0.26458 h -0.352778 l 0.176389,-0.17639 0.176389,-0.17639 0.176388,0.17639 0.176389,0.17639 z m 9.128125,0 h -0.132292 v -0.13229 -0.13229 h 0.132292 0.132291 v 0.13229 0.13229 z m 39.753653,-0.0264 -0.0662,-0.0264 -0.66146,-0.21184 -0.66146,-0.21183 0.7276,-0.0264 0.72761,-0.0264 v 0.26458 0.26459 z m 4.03489,-0.12751 -1.19062,0.16022 -0.48219,-0.29163 -0.48219,-0.29162 -0.62607,0.15714 -0.62608,0.15713 -0.14699,-0.23783 -0.14698,-0.23783 0.3292,-0.12556 0.32921,-0.12557 0.92605,0.0679 0.92604,0.068 0.21405,0.0299 0.21405,0.0299 -0.16352,0.26459 -0.16352,0.26458 h 0.26458 0.26459 l 0.16352,-0.26458 0.16352,-0.26459 h -0.29223 -0.29222 l -0.67858,-0.67858 -0.67858,-0.67858 -0.43387,0.18584 -0.43388,0.18583 0.66146,0.18119 0.66146,0.18119 -1.19062,0.17344 -1.19063,0.17344 -1.45521,0.16026 -1.45521,0.16026 0.75515,-0.41761 0.75514,-0.41762 0.30319,0.17331 0.30319,0.17331 -0.2115,-0.23188 -0.2115,-0.23187 1.00525,-0.33207 1.00525,-0.33208 -0.92604,0.13956 -0.92604,0.13957 -0.57997,0.014 -0.57996,0.014 -0.87525,-0.58238 -0.87524,-0.58237 0.72563,0.67133 0.72562,0.67133 -0.27424,0.16949 -0.27424,0.16949 -0.65825,-0.43131 -0.65826,-0.4313 0.13449,-0.2176 0.13448,-0.2176 -0.52293,-0.47324 -0.52292,-0.47325 v -0.25597 -0.25598 l 0.4507,0.36313 0.4507,0.36313 -0.51685,-0.71637 -0.51685,-0.71635 -0.334,-0.13649 -0.334,-0.13649 0.1747,0.69607 0.17471,0.69606 -1.95737,-0.14243 -1.95737,-0.14244 0.66146,0.2067 0.66146,0.2067 0.79375,0.0303 0.79375,0.0303 -0.66146,0.34341 -0.66146,0.3434 -0.46004,-0.1128 -0.46005,-0.11281 0.14493,-0.2345 0.14493,-0.2345 h -1.05455 -1.05454 l -0.11294,0.46302 -0.11294,0.46302 0.002,-0.8722 0.002,-0.8722 0.27689,0.27689 0.27688,0.27688 h 0.34396 0.34396 v -0.24513 -0.24519 l -0.33073,-0.11312 -0.33073,-0.11311 0.53724,0.0842 0.53724,0.0842 0.69079,-0.45349 0.69079,-0.45348 -0.77856,-0.92605 -0.77857,-0.92604 0.19081,0.50643 0.19081,0.50642 -0.30651,-0.18944 -0.30652,-0.18943 0.15389,0.47676 0.15389,0.47676 -0.52355,-0.64139 -0.52354,-0.64139 -0.27007,-0.87996 -0.27007,-0.87997 h 0.24913 0.24913 l -0.27996,-0.5231 -0.27996,-0.5231 -0.58924,-0.28525 -0.58925,-0.28524 0.51934,0.41568 0.51934,0.41568 0.0358,0.67014 0.0358,0.67015 -0.37044,-0.14216 -0.37045,-0.14215 0.16165,0.26155 0.16165,0.26155 h -0.2478 -0.24781 l -0.36312,-0.43754 -0.36313,-0.43754 -0.0331,-0.4885 -0.0331,-0.4885 -0.0331,-1.07723 -0.0331,-1.07723 -0.43099,0.43099 -0.43099,0.43099 -0.35428,-0.13596 -0.35429,-0.13595 -0.14508,0.23475 -0.14508,0.23474 0.26793,0.16559 0.26793,0.16559 -0.42086,0.81385 -0.42086,0.81384 0.31172,0.19265 0.31172,0.19266 -0.4633,0.17778 -0.4633,0.17779 -0.25021,-0.25021 -0.2502,-0.2502 0.22086,-0.35378 0.22086,-0.35378 0.0597,-0.26459 0.0597,-0.26458 0.23696,-1.37667 0.23696,-1.37667 -0.37928,-0.14554 -0.37928,-0.14555 -0.2407,0.14877 -0.24071,0.14876 v 0.59528 0.59527 l -0.38846,0.51359 -0.38846,0.51359 -0.008,0.45057 -0.008,0.45057 -0.29891,0.65603 -0.2989,0.65602 -0.69885,0.28948 -0.69886,0.28947 -0.68874,0.86318 -0.68874,0.86317 -0.18762,0.85421 -0.18761,0.85421 -0.75858,0.39228 -0.75858,0.39227 h -0.30568 -0.30567 l -0.79592,0.66973 -0.79593,0.66973 -0.56518,-0.15789 -0.56519,-0.1579 0.37608,0.25942 0.37608,0.25941 -0.93344,0.39002 -0.93344,0.39002 -0.89785,0.1814 -0.89785,0.1814 -0.529164,0.12358 -0.529171,0.12358 0.648131,-0.37935 0.648124,-0.37934 0.38747,0.14869 0.38746,0.14868 -0.17143,-0.27737 -0.17142,-0.27738 -0.94563,-0.44873 -0.945636,-0.44873 -0.37266,0.30928 -0.372659,0.30928 -0.339625,-0.13642 -0.339625,-0.13641 0.478635,-0.0209 0.478636,-0.0209 -0.151928,-0.24583 -0.151929,-0.24582 0.785533,0.0994 0.785534,0.0994 0.655954,0.4298 0.65596,0.42979 0.52394,-0.2804 0.52393,-0.2804 -0.0576,-0.3922 -0.0576,-0.39221 -0.22646,-0.20609 -0.22647,-0.2061 0.18845,0.3277 0.18845,0.3277 -0.47676,-0.16486 -0.47676,-0.16485 0.52917,0.43312 0.52916,0.43312 -0.50642,-0.17791 -0.50643,-0.1779 0.18944,0.30651 0.18944,0.30652 -0.4328,-0.16608 -0.4328,-0.16608 0.35291,-0.22371 0.35291,-0.22372 -0.39687,-0.008 -0.39688,-0.008 0.39688,-0.25648 0.39687,-0.25648 -0.39687,-0.0121 -0.39688,-0.0121 0.46685,-0.27182 0.46685,-0.27183 0.8377,0.59649 0.83769,0.59649 -0.19568,-0.31662 -0.19568,-0.31662 h 0.26458 0.26459 l 0.16352,0.26459 0.16352,0.26458 h 0.38126 0.38126 v -0.25628 -0.25628 l -0.44028,0.16895 -0.44028,0.16895 0.19131,-0.30954 0.19131,-0.30955 h 0.66146 0.66146 l -0.16619,-0.2689 -0.16619,-0.2689 -0.31244,0.17543 -0.31245,0.17542 0.29048,-0.31607 0.29048,-0.31606 0.70888,0.32299 0.70889,0.32299 0.32355,-0.34914 0.32355,-0.34914 -0.33309,0.18818 -0.3331,0.18819 -0.59295,-0.18852 -0.59294,-0.18852 0.52917,-0.18981 0.52916,-0.18982 -1.12193,0.026 -1.12193,0.026 0.0288,0.26913 0.0288,0.26913 -0.0314,0.29989 -0.0313,0.29989 -0.64288,0.12289 -0.64287,0.12289 -0.18327,-0.68736 -0.18327,-0.68736 -0.1088,-1.19063 -0.1088,-1.19062 -0.0716,-0.45537 -0.0716,-0.45536 -0.16582,-0.16582 -0.16581,-0.16581 0.13458,-0.35072 0.13458,-0.35072 -0.53177,-0.28459 -0.53177,-0.28459 -0.16731,-0.52718 -0.16732,-0.52718 -0.12914,-0.71216 -0.12914,-0.71216 -0.242584,-0.41459 -0.242585,-0.41459 -0.008,0.2971 -0.008,0.29709 -0.574869,1.29041 -0.574869,1.2904 -0.226446,-0.85989 -0.226446,-0.8599 h -0.203867 -0.203867 l -0.317735,0.87868 -0.317735,0.87868 v 0.47038 0.47037 l -0.859896,0.81526 -0.859895,0.81525 0.333451,-0.19723 0.333451,-0.19723 -0.815217,1.20792 -0.815217,1.20792 h -0.298755 -0.298755 l 0.314208,-0.31421 0.314209,-0.31421 -0.856605,-0.7709 -0.856604,-0.77091 0.79375,0.45888 0.79375,0.45889 -0.88964,-0.93841 -0.88964,-0.93841 0.204455,-0.35359 0.204456,-0.35359 -0.209836,0.18947 -0.209836,0.18946 -0.499519,-0.63503 -0.49952,-0.63504 0.04751,-1.34243 0.04751,-1.34242 -0.153528,-0.15353 -0.153529,-0.15353 -0.748403,0.53014 -0.748403,0.53013 -0.628447,0.18297 -0.628446,0.18296 0.206306,-0.33381 0.206306,-0.33381 -0.317054,0.19595 -0.317054,0.19595 -0.391259,-0.32471 -0.391258,-0.32472 0.16139,-0.5085 0.16139,-0.50849 -0.533141,0.33295 -0.53314,0.33295 1.047826,0.80533 1.047827,0.80533 -0.272734,0.0909 -0.272734,0.0909 -0.891619,-0.55105 -0.891619,-0.55105 -0.233354,0.009 -0.233353,0.009 0.641207,0.35523 0.641207,0.35522 0.06156,0.41943 0.06156,0.41944 -1.466785,0.54879 -1.466784,0.5488 -0.294316,-0.12132 -0.294315,-0.12131 0.478636,-0.0209 0.478636,-0.0209 -0.150216,-0.24306 -0.150215,-0.24305 0.813936,-0.17877 0.813937,-0.17877 0.15529,-0.40468 0.15529,-0.40468 -0.427112,-0.23902 -0.427111,-0.23903 -0.172925,-0.92177 -0.172925,-0.92177 -0.236957,-0.14645 -0.236957,-0.14644 -0.520898,0.16532 -0.520898,0.16533 -0.280683,1.04238 -0.280682,1.04237 H 82.566346 81.94122 l -0.54638,0.92605 -0.546381,0.92605 -1.662566,1.05977 -1.662567,1.05977 -0.583078,0.46158 -0.583078,0.46157 -0.01223,0.33073 -0.01224,0.33073 H 75.935625 75.53875 v -0.12999 -0.12999 l 0.800837,-0.76532 0.800837,-0.76532 1.737656,-1.01622 1.737656,-1.01622 0.494695,-0.96969 0.494695,-0.96968 0.78371,-0.2732 0.78371,-0.2732 0.08571,-0.74819 0.08571,-0.74819 1.036001,-0.33825 1.036002,-0.33825 0.709003,0.67926 0.709003,0.67927 0.337913,-0.40716 0.337913,-0.40716 h 0.371027 0.371026 l 0.238327,0.62685 0.238327,0.62685 0.679486,0.12989 0.679486,0.12989 0.298661,-0.35986 0.29866,-0.35987 0.695207,0.011 0.695208,0.011 0.992874,0.87752 0.992874,0.87751 0.275398,0.79001 0.275399,0.79001 0.787916,0.58253 0.787917,0.58253 0.258915,-0.16001 0.258915,-0.16002 v -0.74587 -0.74582 l 0.412905,-0.98822 0.412905,-0.98822 0.802903,0.16058 0.802903,0.16058 0.137967,-0.52759 0.137968,-0.52759 h 0.310071 0.310074 l 1.01855,0.51929 1.01854,0.51928 0.4785,0.78682 0.47849,0.78682 1.00294,0.083 1.00293,0.083 0.62834,1.1423 0.62833,1.14231 0.63858,0.24278 0.63859,0.24279 0.15381,0.40085 0.15382,0.40085 h 0.28795 0.28794 l 0.72521,-0.6948 0.72521,-0.69479 0.61218,-0.30344 0.61219,-0.30343 0.26925,-1.10988 0.26925,-1.10988 0.32606,-0.32606 0.32607,-0.32606 0.004,-0.67469 0.004,-0.67468 0.22993,-0.36298 0.22993,-0.36298 0.7582,0.25022 0.75821,0.25023 0.3545,0.72755 0.35451,0.72756 0.46346,-0.41942 0.46345,-0.41942 0.68706,0.63675 0.68707,0.63674 -0.18211,0.20248 -0.18211,0.20248 0.26458,-0.14621 0.26459,-0.14622 1.05833,0.1738 1.05833,0.1738 0.1323,0.90115 0.13229,0.90115 0.27322,0.0901 0.27322,0.0901 1.88661,-1.79891 1.88661,-1.79892 0.0891,-0.78365 0.0891,-0.78365 0.66146,0.0158 0.66145,0.0158 0.63444,0.21287 0.63443,0.21287 -0.16681,-0.83406 -0.16681,-0.83407 0.39441,-0.15135 0.39442,-0.15135 0.90755,0.43065 0.90754,0.43066 0.16648,0.52452 0.16647,0.52451 h 0.36343 0.36343 l 0.16352,-0.26458 0.16353,-0.26459 h 0.51355 0.51355 v 0.28631 0.2863 l 1.0349,1.10276 1.0349,1.10276 0.91126,1.05833 0.91126,1.05833 0.12959,0.7055 0.12959,0.7055 -0.5544,-0.20449 -0.55439,-0.20449 -0.29102,0.10312 -0.29102,0.10311 -0.33669,-0.40568 -0.33669,-0.40569 h 0.17815 0.17816 l -0.70681,-0.92667 -0.7068,-0.92666 0.32886,-0.39625 0.32886,-0.39625 h -0.42927 -0.42927 l 0.0313,0.19843 0.0313,0.19844 -0.0313,0.30732 -0.0313,0.30732 -0.37019,-0.0543 -0.37018,-0.0543 -0.4775,-0.38528 -0.47749,-0.38528 1.0964,1.44902 1.09639,1.44903 -0.0938,0.0938 -0.0938,0.0938 -0.61797,-0.30378 -0.61798,-0.30378 0.62586,0.50496 0.62586,0.50496 -0.54999,-0.0405 -0.54999,-0.0405 -0.60503,-0.51093 -0.60504,-0.51094 0.64045,0.72467 0.64046,0.72467 0.12194,-0.12194 0.12194,-0.12194 0.50178,0.26855 0.50179,0.26855 -0.15531,0.25131 -0.15532,0.2513 h -0.23976 -0.23976 l -0.99765,-0.85989 -0.99765,-0.8599 0.49743,0.79375 0.49743,0.79375 -0.76576,-0.66146 -0.76576,-0.66145 -0.0882,-0.0441 -0.0882,-0.0441 0.53848,-0.53848 0.53848,-0.53848 0.54897,0.10572 0.54897,0.10573 -0.15764,-0.25507 -0.15764,-0.25507 -0.25185,0.15565 -0.25184,0.15565 -0.39488,-0.94509 -0.39489,-0.94508 h -0.36412 -0.36412 l -0.35246,-1.19372 -0.35247,-1.19373 -0.60926,-0.7245 -0.60926,-0.72451 0.0378,0.39688 0.0378,0.39687 -0.0314,0.32228 -0.0314,0.32228 -0.7276,0.39473 -0.72761,0.39473 0.33073,0.0106 0.33073,0.0106 v 0.52917 0.52917 h -0.21558 -0.21558 l -0.44159,-0.92604 -0.4416,-0.92605 h -0.26887 -0.26886 v 0.68166 0.68165 l -1.75054,1.6996 -1.75054,1.69959 h -0.23383 -0.23384 v 0.51442 0.51441 l 0.59531,0.69067 0.59531,0.69068 1.55409,0.21027 1.55408,0.21028 0.82717,0.96117 0.82716,0.96116 1.19063,0.52808 1.19062,0.52808 0.8396,0.006 0.8396,0.006 0.7479,0.62215 0.7479,0.62215 0.5829,0.30656 0.5829,0.30655 1.44846,0.0635 1.44846,0.0635 -0.39378,0.22058 -0.39379,0.22058 -0.41434,-0.159 -0.41434,-0.159 -0.29719,0.24439 -0.29719,0.24439 z m 0.39688,-0.37528 h 0.13229 v -0.13229 -0.1323 h -0.13229 -0.13229 v 0.1323 0.13229 z m -5.02709,-0.79375 h 0.1323 v -0.13229 -0.1323 h -0.1323 -0.13229 v 0.1323 0.13229 z m 0.92605,-0.26459 h 0.35277 l -0.17639,-0.17638 -0.17638,-0.17639 -0.17639,0.17639 -0.17639,0.17638 z m -26.32605,-0.26454 h 0.1323 v -0.13229 -0.1323 h -0.1323 -0.13229 v 0.1323 0.13229 z m 24.0927,-0.79375 h 0.11668 v -0.11668 -0.11668 l -0.30546,-0.18878 -0.30547,-0.18879 0.18879,0.30546 0.18879,0.30547 z M 104.775,149.28487 h 0.13229 v -0.13229 -0.13229 h -0.13229 -0.13229 v 0.13229 0.13229 z m -3.30729,-0.26458 h 0.35278 l -0.17639,-0.17639 -0.17639,-0.17639 -0.17639,0.17639 -0.17639,0.17639 z m 24.55425,0 h 0.11357 l -1.00372,-1.12448 -1.00373,-1.12448 -0.41612,-0.24529 -0.41613,-0.24529 0.39688,0.48439 0.39687,0.48439 -0.0397,0.15778 -0.0397,0.15777 0.20061,-0.0536 0.20061,-0.0536 0.74847,0.78124 0.74848,0.78125 z m -1.93238,-1.5875 h -0.13229 v -0.1323 -0.13229 h 0.13229 0.1323 v 0.13229 0.1323 z m 0.52917,1.05833 h 0.13229 v -0.13229 -0.13229 h -0.13229 -0.13229 v 0.13229 0.13229 z m -21.41563,-0.26429 h 0.11667 v -0.11668 -0.11667 l -0.30546,-0.18879 -0.30546,-0.18879 0.18878,0.30546 0.18879,0.30547 z m 18.65312,-0.26458 h 0.54478 l -0.15638,-0.25303 -0.15638,-0.25303 -0.3884,0.14904 -0.3884,0.14904 v 0.10399 0.10399 z m -15.11248,-0.26459 h 0.2802 v -0.26458 -0.26459 h -0.11668 -0.11667 l -0.16353,0.26459 -0.16352,0.26458 z m -1.61639,-0.39965 0.35237,-0.12952 0.57367,-0.008 0.57367,-0.008 -0.39687,-0.22751 -0.39688,-0.22752 -0.66145,0.0695 -0.66146,0.0695 -0.26459,0.0378 -0.26458,0.0378 0.39688,0.25775 0.39687,0.25776 z m -0.22008,-0.12952 h -0.35278 l 0.17639,-0.17639 0.17639,-0.17638 0.17639,0.17638 0.17639,0.17639 z m 16.53646,0.26459 h 0.13229 v -0.1323 -0.13229 h -0.13229 -0.13229 v 0.13229 0.1323 z m 3.70417,0 h 0.13229 v -0.1323 -0.13229 h -0.13229 -0.13229 v 0.13229 0.1323 z m -21.92802,-0.26459 h 0.0999 v -0.0999 -0.0999 l -0.46302,-0.36312 -0.46302,-0.36313 0.36312,0.46302 0.36313,0.46302 z m 3.81967,-0.26458 h 0.24897 v -0.10398 -0.10399 l -0.41061,-0.15757 -0.41062,-0.15757 0.16165,0.26156 0.16165,0.26155 z m -2.79374,-0.26458 h 0.1323 v -0.1323 -0.13229 h -0.1323 -0.13229 v 0.13229 0.1323 z m 16.94895,0 h 0.11668 v -0.11668 -0.11668 l -0.30546,-0.18878 -0.30547,-0.18879 0.18879,0.30546 0.18879,0.30547 z m 0.91043,-0.0418 h 0.66146 l -0.33073,-0.13345 -0.33073,-0.13345 -0.33073,0.13345 -0.33073,0.13345 z m -18.37293,-0.22281 h 0.11668 v -0.11667 -0.11668 l -0.30546,-0.18879 -0.30547,-0.18878 0.18879,0.30546 0.18879,0.30546 z m 3.55626,0 h 0.35278 l -0.17639,-0.17639 -0.17639,-0.17638 -0.17639,0.17638 -0.17639,0.17639 z m -12.552095,-0.52916 h 0.116677 v -0.11668 -0.11668 l -0.305464,-0.18878 -0.305464,-0.18879 0.188787,0.30546 0.188787,0.30547 z m 10.094705,0 h 0.0761 v -0.10089 -0.10089 l -0.99218,-0.71195 -0.99219,-0.71195 0.91604,0.81284 0.91605,0.81284 z m 1.2363,-0.004 0.29505,-0.004 -0.39687,-0.25088 -0.39688,-0.25089 v -0.3081 -0.30811 l -0.65018,-0.42915 -0.65018,-0.42915 0.23056,0.3757 0.23057,0.37569 -0.50643,-0.19293 -0.50642,-0.19293 0.26458,0.23497 0.26458,0.23497 0.76329,0.57446 0.76329,0.57445 z m -0.86434,-0.7897 h -0.26459 l -0.16352,-0.26458 -0.16352,-0.26459 h 0.26458 0.26459 l 0.16352,0.26459 0.16352,0.26458 z m 1.95314,0.79375 h 0.13229 v -0.13229 -0.13229 h -0.13229 -0.13229 v 0.13229 0.13229 z m -0.52917,-0.26458 h 0.1323 v -0.1323 -0.13229 h -0.1323 -0.13229 v 0.13229 0.1323 z m -3.43958,-0.26459 h 0.13229 v -0.13229 -0.13229 h -0.13229 -0.13229 v 0.13229 0.13229 z m 15.6741,-0.10778 0.11002,-0.11002 -0.40699,-0.75099 -0.40698,-0.751 -0.0106,0.18599 -0.0106,0.18599 0.30756,0.67502 0.30756,0.67503 z m -24.524436,-0.44276 0.192212,-0.311 0.36031,0.18533 0.360311,0.18532 -0.727605,-0.62439 -0.727604,-0.62439 v -0.22089 -0.2209 l 0.452684,0.36313 0.452683,0.36312 -0.584975,-0.83459 -0.584975,-0.83459 v -0.52208 -0.52207 l -0.440193,-0.36312 -0.440192,-0.36313 0.302739,0.56827 0.30274,0.56828 -0.09148,1.07895 -0.09148,1.07895 0.193568,-0.11963 0.193568,-0.11963 0.473243,0.52293 0.473243,0.52292 h -0.252674 -0.252673 l -0.287638,-0.28763 -0.287637,-0.28764 -0.203035,0.32852 -0.203035,0.32851 0.275485,-0.17026 0.275485,-0.17025 0.337353,0.40648 0.337353,0.40649 z m -0.582063,-1.70283 -0.136702,0.13671 -0.176389,-0.17639 -0.176388,-0.17639 v -0.2734 -0.27341 l 0.31309,0.31309 0.31309,0.31309 z m 1.51051,1.19504 h 0.116677 v -0.11668 -0.11667 l -0.305464,-0.18879 -0.305463,-0.18879 0.188787,0.30547 0.188787,0.30546 z m 8.731259,-0.26458 h 0.11667 v -0.11668 -0.11668 l -0.30546,-0.18878 -0.30546,-0.18879 0.18878,0.30546 0.18879,0.30547 z m 31.20521,0 h 0.1323 v -0.1323 -0.13229 h -0.1323 -0.13229 v 0.13229 0.1323 z m -21.96041,-0.26454 h 0.13229 v -0.13229 -0.13229 h -0.13229 -0.13229 v 0.13229 0.13229 z m 16.66875,0 h 0.13229 v -0.13229 -0.13229 h -0.13229 -0.13229 v 0.13229 0.13229 z m 4.7625,0 h 0.13229 v -0.13229 -0.13229 h -0.13229 -0.13229 v 0.13229 0.13229 z m -17.72709,-0.26458 h 0.1323 v -0.1323 -0.13229 h -0.1323 -0.13229 v 0.13229 0.1323 z m 1.5875,-0.26459 h 0.1323 v -0.13229 -0.13229 h -0.1323 -0.13229 v 0.13229 0.13229 z m -1.5875,-0.26458 h 0.1323 v -0.13229 -0.13229 h -0.1323 -0.13229 v 0.13229 0.13229 z m -15.7427,-0.26458 h 0.35277 l -0.17639,-0.17639 -0.17638,-0.17639 -0.17639,0.17639 -0.17639,0.17639 z m 17.13611,-0.21147 0.1059,-0.3177 h 0.41892 0.41893 l -0.15645,-0.15645 -0.15645,-0.15645 -0.55295,0.1755 -0.55295,0.1755 0.18458,0.29865 0.18457,0.29865 z m 0.45868,0.21147 h 0.13229 v -0.1323 -0.13229 h -0.13229 -0.13229 v 0.13229 0.1323 z m -33.337507,-0.26459 h 0.132292 v -0.13229 -0.13229 h -0.132292 -0.132291 v 0.13229 0.13229 z m 6.894782,0 h 0.116677 v -0.11667 -0.11668 l -0.305464,-0.18879 -0.305464,-0.18878 0.188787,0.30546 0.188787,0.30546 z m 9.509385,0 h 0.1323 v -0.13229 -0.13229 h -0.1323 -0.13229 v 0.13229 0.13229 z m 31.48542,0 h 0.13229 v -0.13229 -0.13229 H 133.35 133.21771 v 0.13229 0.13229 z m -46.56667,-0.52916 h 0.132292 v -0.1323 -0.13229 H 86.78333 86.651038 v 0.13229 0.1323 z m 5.820833,0 h 0.132292 v -0.1323 -0.13229 h -0.132292 -0.132291 v 0.13229 0.1323 z m 21.431257,0 h 0.13229 v -0.1323 -0.13229 h -0.13229 -0.13229 v 0.13229 0.1323 z m -21.431257,-0.52917 h 0.132292 v -0.13229 -0.13229 h -0.132292 -0.132291 v 0.13229 0.13229 z m 9.260417,0 h 0.1323 v -0.13229 -0.13229 h -0.1323 -0.13229 v 0.13229 0.13229 z m 28.83991,-0.79375 h 0.076 l -0.0147,-0.59531 -0.0147,-0.59532 0.2052,-0.46807 0.20521,-0.46807 -0.82233,0.46807 -0.82232,0.46807 -0.002,0.19844 -0.002,0.19844 h 0.40518 0.40518 l 0.1523,0.39687 0.15229,0.39688 z m 1.05801,0 h 0.13229 v -0.13229 -0.13229 h -0.13229 -0.13229 v 0.13229 0.13229 z m -2.38125,-0.26458 h 0.13229 v -0.1323 -0.13229 h -0.13229 -0.13229 v 0.13229 0.1323 z m 2.13228,-0.26459 h 0.11668 v -0.11667 -0.11668 l -0.30546,-0.18879 -0.30547,-0.18878 0.18879,0.30546 0.18879,0.30546 z m -2.79374,-2.11666 h 0.35278 l -0.17639,-0.17639 -0.17639,-0.17639 -0.17639,0.17639 -0.17639,0.17639 z m -47.360418,13.98756 -0.396875,-0.0273 -0.79375,-0.20197 -0.79375,-0.20198 0.79375,-0.0272 0.79375,-0.0273 0.396875,0.25648 0.396875,0.25648 z m 24.209378,0.0354 h -0.13229 v -0.13229 -0.13229 h 0.13229 0.13229 v 0.13229 0.13229 z m 17.52865,-0.0307 -0.72761,0.0307 v -0.36603 -0.36603 l 0.72258,-0.13813 0.72257,-0.13813 -0.47702,0.34881 -0.47701,0.3488 0.48204,0.12466 0.48205,0.12467 z m -11.31094,-0.2339 h -0.35278 l 0.17639,-0.17639 0.17639,-0.17638 0.17639,0.17638 0.17639,0.17639 z m 5.42396,0 h -0.13229 v -0.13229 -0.13229 h 0.13229 0.13229 v 0.13229 0.13229 z m -40.415111,-0.26863 -0.330729,-0.004 -0.358977,-0.22746 -0.358977,-0.22746 h 0.689706 0.689706 v 0.23151 0.23151 z m 10.384896,0.004 h -0.352778 l 0.176389,-0.17639 0.176389,-0.17639 0.176389,0.17639 0.176389,0.17639 z m 2.935088,-0.37798 h -0.465644 v -0.31495 -0.31495 l 0.396182,0.15203 0.396181,0.15202 -0.180011,-0.29126 -0.180011,-0.29126 0.309779,-0.19146 0.30978,-0.19145 -0.174821,0.28286 -0.17482,0.28287 0.332377,0.134 0.332378,0.134 -0.346344,0.0209 -0.346344,0.0209 0.128481,0.20789 0.128481,0.20789 z m 34.481407,0.0925 -0.50712,-0.0209 0.34727,-0.13896 0.34727,-0.13897 0.15985,0.15986 0.15985,0.15985 z m 6.37205,0.0209 h -0.13229 v -0.13229 -0.13229 h 0.13229 0.13229 v 0.13229 0.13229 z M 77.655205,150.8726 h -0.352778 l 0.176389,-0.17639 0.176389,-0.17638 0.176389,0.17638 0.176389,0.17639 z m 19.84375,0 h -0.352778 l 0.176389,-0.17639 0.176389,-0.17638 0.176389,0.17638 0.176389,0.17639 z m 2.595305,-0.004 -0.0818,-0.004 -0.396878,-0.25648 -0.396875,-0.25648 0.315114,-0.004 0.315115,-0.004 0.163524,0.26459 0.16352,0.26458 z m 7.59116,0.004 h -0.13229 v -0.13229 -0.13229 h 0.13229 0.13229 v 0.13229 0.13229 z m 14.81666,-0.0516 -0.79375,-0.01 0.46806,-0.12197 0.46806,-0.12197 0.32569,0.13178 0.32569,0.13177 z m -42.465625,-0.25478 h -0.661458 l 0.330729,-0.13345 0.330729,-0.13345 0.330729,0.13345 0.330729,0.13345 z m 7.276042,0.0418 h -0.132292 v -0.13229 -0.13229 h 0.132292 0.132291 v 0.13229 0.13229 z m 36.783343,-0.0662 h -0.67736 l -0.17087,-0.27647 -0.17087,-0.27647 0.50642,0.17844 0.50642,0.17845 -0.74235,-0.66265 -0.74236,-0.66265 h 0.29495 0.29495 l -0.16352,-0.26458 -0.16352,-0.26459 h 0.23919 0.23919 l 0.47889,0.52917 0.47889,0.52917 h -0.21431 -0.2143 l 0.44896,0.49609 0.44896,0.49609 z m -0.18908,-0.99623 0.0818,0.004 -0.16352,-0.26459 -0.16352,-0.26458 -0.31512,0.004 -0.31511,0.004 0.39688,0.25648 0.39687,0.25648 z m -9.20988,0.7978 h -0.35278 l 0.17639,-0.17639 0.17639,-0.17639 0.17638,0.17639 0.17639,0.17639 z m 0.79375,0 h -0.35278 l 0.17639,-0.17639 0.17639,-0.17639 0.17638,0.17639 0.17639,0.17639 z m 2.11666,0 h -0.35278 l 0.17639,-0.17639 0.17639,-0.17639 0.17639,0.17639 0.17639,0.17639 z m 5.02709,0 h -0.35278 l 0.17639,-0.17639 0.17639,-0.17639 0.17638,0.17639 0.17639,0.17639 z m -9.37107,-0.36857 -0.41852,0.1606 v -0.26205 -0.26204 l 0.66778,-0.12766 0.66777,-0.12765 0.14159,0.2291 0.14159,0.2291 h -0.39085 -0.39085 z m 8.54901,0.10398 h -0.29289 l 0.14593,-0.3803 0.14594,-0.38029 -0.44836,-0.11818 -0.44836,-0.11818 0.41246,-0.0307 0.41245,-0.0307 0.51359,0.4165 0.51359,0.4165 -0.33073,-0.16753 -0.33073,-0.16753 v 0.2802 0.2802 z m -11.61336,-0.26458 h -0.35278 l 0.17639,-0.17639 0.17639,-0.17639 0.17639,0.17639 0.17639,0.17639 z m 4.63021,0 h -0.13229 v -0.13229 -0.13229 h 0.13229 0.13229 v 0.13229 0.13229 z m 1.85208,-0.0516 -0.79375,-0.01 0.46806,-0.12197 0.46805,-0.12197 0.3257,0.13177 0.32569,0.13178 z m -16.66875,-0.47759 h -0.132294 v -0.13229 -0.13229 h 0.132294 0.13229 v 0.13229 0.13229 z m 12.71562,0 h -0.11668 l -0.16352,-0.26458 -0.16352,-0.26458 h 0.28019 0.2802 v 0.26458 0.26458 z m 2.76251,0 h -0.35278 l 0.17639,-0.17639 0.17639,-0.17638 0.17638,0.17638 0.17639,0.17639 z m 1.5875,0 h -0.35278 l 0.17639,-0.17639 0.17639,-0.17638 0.17638,0.17638 0.17639,0.17639 z m 2.05052,-0.004 -0.0661,-0.004 -0.39688,-0.25648 -0.39687,-0.25648 0.46302,-0.004 0.46302,-0.004 v 0.26459 0.26458 z m -7.90259,-0.26053 h -0.26458 l 0.16352,-0.26458 0.16352,-0.26459 h 0.26459 0.26458 l -0.16352,0.26459 -0.16352,0.26458 z m -14.983876,-0.26863 -0.330729,0.004 v -0.42519 -0.42518 l 0.418514,0.1606 0.418515,0.1606 0.30909,0.004 0.309089,0.004 -0.396875,0.25648 -0.396875,0.25648 z m 17.015056,-0.005 -0.28016,-0.009 0.66146,-0.37813 0.66146,-0.37812 -0.24901,-0.009 -0.249,-0.009 0.51359,-0.37555 0.51359,-0.37555 0.004,-0.21976 0.004,-0.21977 0.52474,-0.60389 0.52474,-0.60389 0.0331,-0.25601 0.0331,-0.256 0.0331,-0.56156 0.0331,-0.56157 0.36334,0.30155 0.36334,0.30154 0.42673,-0.16375 0.42673,-0.16375 0.26109,0.68672 0.26109,0.68672 0.44901,0.68527 0.44901,0.68528 0.31884,-0.59575 0.31884,-0.59576 0.30906,0.5775 0.30907,0.57749 -0.44333,0.17013 -0.44334,0.17012 -0.49411,-0.30858 -0.49412,-0.30858 v 0.31294 0.31295 l -0.71418,-0.64144 -0.71419,-0.64143 0.497,0.79375 0.497,0.79375 -0.98265,-0.85989 -0.98265,-0.8599 h -0.10789 -0.10789 l 0.10457,0.54302 0.10458,0.54302 -0.58279,-0.18137 -0.58279,-0.18138 0.66146,0.54434 0.66146,0.54434 0.0887,-0.24618 0.0887,-0.24617 0.23895,0.14768 0.23896,0.14768 -0.15757,-0.41061 -0.15757,-0.41062 h 0.15129 0.15129 l 0.30029,0.56109 0.30029,0.5611 -0.29098,-0.17983 -0.29098,-0.17984 v 0.29581 0.29582 l -0.26458,-0.16353 -0.26459,-0.16352 v 0.2361 0.23611 l -0.33073,0.0126 -0.33073,0.0126 -0.52916,0.18876 -0.52917,0.18877 0.39688,-0.28549 0.39687,-0.28549 -0.39687,0.004 -0.39688,0.004 -0.51359,0.38846 -0.51359,0.38846 z m 2.44744,-0.80298 0.0818,0.0186 -0.16352,-0.26458 -0.16352,-0.26458 -0.44741,0.0186 -0.44741,0.0186 0.52917,0.22739 0.52917,0.22739 z m 4.16719,-1.03974 h 0.11667 v -0.11667 -0.11668 l -0.30546,-0.18878 -0.30546,-0.18879 0.18878,0.30546 0.18879,0.30546 z m -1.57072,-0.26458 h 0.0999 v -0.0999 -0.0999 l -0.46302,-0.36312 -0.46302,-0.36313 0.36312,0.46302 0.36313,0.46302 z m -1.53814,-1.06238 0.18282,-0.004 0.36463,-0.23095 0.36463,-0.23095 -0.18447,-0.29849 -0.18448,-0.29848 -0.25061,0.15489 -0.25062,0.15489 0.18001,0.29127 0.18001,0.29126 -0.45402,-0.17422 -0.45402,-0.17423 0.16165,0.26156 0.16165,0.26155 z m -0.63297,3.15816 -0.50712,-0.0209 0.34726,-0.13896 0.34727,-0.13896 0.15985,0.15985 0.15985,0.15985 z m 16.75694,-0.0632 -0.7276,0.14413 -0.0331,-0.16232 -0.0331,-0.16232 -0.0331,-0.30868 -0.0331,-0.30869 -0.36755,-0.12251 -0.36756,-0.12252 0.18286,0.29587 0.18286,0.29588 -0.45402,-0.17422 -0.45402,-0.17423 0.21451,0.3757 0.21451,0.37569 -0.35631,-0.33073 -0.35632,-0.33073 h -0.22728 -0.22728 l 0.15674,0.25362 0.15674,0.25361 -1.2656,-0.55251 -1.26561,-0.55251 -0.13229,-0.1352 -0.13229,-0.1352 0.79375,0.20242 0.79375,0.20243 0.62569,0.0794 0.6257,0.0794 0.37427,-0.14362 0.37426,-0.14362 -0.47079,-0.35717 -0.4708,-0.35717 0.29833,-0.008 0.29834,-0.008 0.33433,0.40285 0.33433,0.40285 0.55796,-0.1556 0.55796,-0.1556 -0.35291,0.2451 -0.35292,0.24509 0.47779,0.18335 0.47779,0.18335 -0.38946,0.2463 -0.38946,0.24629 0.44139,0.004 0.44138,0.004 0.41851,-0.16059 0.41852,-0.1606 v -0.23633 -0.23628 h -0.61737 -0.61736 v -0.39687 -0.39688 l 0.15434,0.006 0.15434,0.006 0.66146,0.5174 0.66146,0.5174 0.66146,0.033 0.66146,0.033 -0.92604,0.2557 -0.92605,0.25569 z m -2.97656,-0.70968 h 0.13229 v -0.13254 -0.1323 h -0.13229 -0.13229 v 0.1323 0.13229 z m 0.79375,0 h 0.13229 v -0.13254 -0.1323 h -0.13229 -0.13229 v 0.1323 0.13229 z m 0.52916,-0.26459 h 0.1323 v -0.13229 -0.13229 h -0.1323 -0.13229 v 0.13229 0.13229 z m -50.270833,0.79351 h -0.132292 v -0.13229 -0.1323 h 0.132292 0.132291 v 0.1323 0.13229 z m 1.852083,-0.0372 h -0.529167 l -0.529166,-0.22739 -0.529167,-0.22739 h 0.529167 0.529166 l 0.529167,0.22739 0.529167,0.22739 z m 34.26355,0.0372 h -0.35278 l 0.17639,-0.17639 0.17639,-0.17639 0.17638,0.17639 0.17639,0.17639 z m 11.27481,-0.10583 h -0.96378 l -0.31946,-0.19744 -0.31945,-0.19743 0.47858,-0.18365 0.47857,-0.18365 0.80467,0.38108 0.80466,0.38109 z m -0.55919,-0.15876 h 0.13229 v -0.13229 -0.13229 h -0.13229 -0.13229 v 0.13229 0.13229 z m -43.788545,-0.0285 -0.132292,-0.0117 -0.926041,-0.35661 -0.926042,-0.35662 0.544743,-0.0201 0.544742,-0.0201 0.513591,0.38846 0.513591,0.38846 z m 14.816667,0.0285 h -0.264584 v -0.28019 -0.28021 l 0.264584,0.16353 0.264583,0.16352 v 0.11668 0.11667 z m 12.303128,0 h -0.13229 v -0.13229 -0.13229 h 0.13229 0.13229 v 0.13229 0.13229 z m 0.92604,0 h -0.35278 l 0.17639,-0.17638 0.17639,-0.1764 0.17639,0.1764 0.17639,0.17638 z m -35.388023,-0.46277 -0.595312,0.14865 v -0.10397 -0.10397 l 0.958353,-0.40043 0.958354,-0.40043 h 0.158851 0.158851 l -0.521892,0.35575 -0.521892,0.35574 z m 7.820824,-0.0704 -0.346344,-0.004 -0.396875,-0.25648 -0.396875,-0.25648 0.579697,-0.004 0.579698,-0.004 0.163521,0.26458 0.163522,0.26458 z m 12.860774,-0.0168 -0.507118,-0.0209 0.347265,-0.13897 0.347266,-0.13896 0.159852,0.15985 0.159853,0.15985 z m 16.029345,0.0209 h -0.35278 l 0.17639,-0.17639 0.17639,-0.17639 0.17639,0.17639 0.17639,0.17639 z m -38.260604,-0.26456 h -0.103984 v -0.24897 -0.24897 l 0.261552,-0.16165 0.261553,-0.16165 -0.157569,0.41062 -0.157568,0.41062 z m 10.56111,-0.0168 -0.214053,-0.0168 -0.595312,-0.23929 -0.595313,-0.23929 v -0.14502 -0.14502 l 0.727604,0.0478 0.727605,0.0478 0.859895,-0.19687 0.859896,-0.19687 v 0.2773 0.2773 l -0.440278,-0.16895 -0.440279,-0.16895 0.215159,0.34814 0.215158,0.34813 -0.723091,-0.18148 -0.72309,-0.18149 0.170075,0.27519 0.170076,0.27519 z m 25.847414,0.0168 h -0.35278 l 0.17639,-0.17639 0.17639,-0.17639 0.17638,0.17639 0.17639,0.17639 z m 18.42929,-0.10001 -0.56992,0.0323 -0.59531,-0.2222 -0.59531,-0.2222 v -0.15864 -0.15865 l 0.59531,0.17748 0.59531,0.17749 -0.52917,-0.41582 -0.52916,-0.41583 0.21583,-0.008 0.21583,-0.008 0.51918,0.27786 0.51919,0.27786 -0.15345,0.24828 -0.15344,0.24827 0.38385,-0.14729 0.38386,-0.1473 0.13366,0.21647 0.13367,0.21648 z m 4.19258,0.0919 h -0.26458 l 0.39687,-0.28348 0.39688,-0.28348 -0.64769,0.14417 -0.64769,0.14417 -0.32759,-0.27187 -0.32758,-0.27187 -0.48845,0.26141 -0.48845,0.2614 -0.65294,-0.50174 -0.65295,-0.50175 0.24901,-0.006 0.24901,-0.006 -0.51359,-0.39753 -0.51359,-0.39754 0.92604,0.14763 0.92604,0.14763 0.26458,0.28872 0.26459,0.28872 -0.33073,-0.18672 -0.33073,-0.18673 v 0.11551 0.11551 l 0.44766,0.36313 0.44767,0.36313 -0.1987,-0.33073 -0.19869,-0.33073 h 0.15721 0.15722 l 0.70806,0.46302 0.70806,0.46302 -0.20382,-0.33073 -0.20382,-0.33073 h 0.13546 0.13546 l 0.68141,0.31047 0.68142,0.31048 -0.33824,0.21464 -0.33824,0.21464 z M 131.7949,146.904 h 0.0999 v -0.0999 -0.0999 l -0.46302,-0.36313 -0.46302,-0.36312 0.36313,0.46302 0.36312,0.46302 z m -15.64282,0.26458 h -0.13229 v -0.13229 -0.13229 h 0.13229 0.1323 v 0.13229 0.13229 z m 11.1125,-0.26458 h -0.13229 v -0.13229 -0.13229 h 0.13229 0.1323 v 0.13229 0.13229 z m -48.947917,-0.26458 h -0.132291 v -0.1323 -0.13229 h 0.132291 0.132292 v 0.13229 0.1323 z m 15.345834,0 h -0.132292 v -0.1323 -0.13229 h 0.132292 0.132291 v 0.13229 0.1323 z m 22.621883,0 h -0.35278 l 0.17639,-0.17639 0.17639,-0.17639 0.17638,0.17639 0.17639,0.17639 z m 13.80106,-0.008 -0.17502,-0.008 -0.51359,-0.38846 -0.51359,-0.38846 h -0.53152 -0.53151 l 0.3241,-0.32411 0.32411,-0.3241 0.58871,0.36158 0.5887,0.36158 -0.48025,-0.54037 -0.48026,-0.54038 0.29341,-0.18134 0.29341,-0.18134 0.37683,0.31274 0.37682,0.31274 -0.0229,0.17306 -0.0229,0.17306 0.0516,0.13229 0.0516,0.13229 0.0886,0.46302 0.0886,0.46303 z m -0.17502,-0.52076 h 0.13229 v -0.13229 -0.13229 h -0.13229 -0.13229 v 0.13229 0.13229 z m -4.10104,0.26459 h -0.35278 l 0.17639,-0.17639 0.17639,-0.17639 0.17638,0.17639 0.17639,0.17639 z m 1.16857,-0.0209 -0.50712,-0.0209 0.34727,-0.13897 0.34727,-0.13896 0.15985,0.15985 0.15985,0.15986 z m 0.94809,0.0209 h -0.35278 l 0.17639,-0.17639 0.17639,-0.17639 0.17639,0.17639 0.17639,0.17639 z m 6.00788,-0.0825 -1.00357,-0.0231 -0.26605,-0.32056 -0.26604,-0.32056 0.27743,-0.17146 0.27744,-0.17146 0.26889,0.16618 0.2689,0.16619 -0.17748,0.28719 -0.17749,0.28718 0.28103,-0.17369 0.28103,-0.17368 0.61974,0.23538 0.61975,0.23539 z m -1.11309,-0.4467 h 0.1323 v -0.13229 -0.13229 h -0.1323 -0.13229 v 0.13229 0.13229 z m 2.38125,0.26458 h -0.13229 v -0.13229 -0.13229 h 0.13229 0.1323 v 0.13229 0.13229 z m -44.390327,-0.36835 -0.126592,0.12659 -0.16311,-0.42505 -0.163109,-0.42506 -0.203224,0.1256 -0.203224,0.1256 -0.510673,-0.37341 -0.510672,-0.37342 h 0.262236 0.262237 l 0.3175,0.3175 0.3175,0.3175 v -0.37637 -0.37637 l 0.423862,0.60515 0.423862,0.60515 z m 8.111258,0.10377 h -0.264583 l -0.513591,-0.38846 -0.51359,-0.38846 h 0.264583 0.264583 l 0.513591,0.38846 0.51359,0.38846 z m 35.527589,0 h -0.338 l -0.51359,-0.38846 -0.51359,-0.38846 0.23944,-0.008 0.23945,-0.008 -0.47889,-0.52917 -0.47889,-0.52916 h 0.2047 0.2047 l -0.69286,-0.90839 -0.69286,-0.90839 v -0.12653 -0.12654 l 0.38358,0.0563 0.38358,0.0563 0.56166,0.71404 0.56167,0.71404 h -0.18389 -0.18389 l 0.29468,0.35508 0.29468,0.35507 -0.15336,0.15336 -0.15336,0.15336 0.67746,-0.0744 0.67745,-0.0744 -0.16833,0.27235 -0.16832,0.27236 0.38616,-0.14819 0.38617,-0.14818 0.0392,0.52009 0.0392,0.5201 -0.43147,-0.35073 -0.43148,-0.35073 0.17353,0.46302 0.17352,0.46302 z m -0.30685,-0.79375 h 0.13229 v -0.13229 -0.13229 h -0.13229 -0.13229 v 0.13229 0.13229 z m -1.01733,-1.5875 h 0.0913 v -0.0913 -0.0913 l -0.59531,-0.50403 -0.59532,-0.50403 0.50403,0.59532 0.50403,0.59531 z m -51.921389,2.09578 -0.507118,-0.0209 0.347266,-0.13897 0.347265,-0.13896 0.159853,0.15985 0.159852,0.15986 z m 0.948091,-0.2437 h -0.352778 l 0.176389,-0.17639 0.176389,-0.17638 0.176388,0.17638 0.176389,0.17639 z m 9.143739,0 h -0.116676 l -0.188787,-0.30546 -0.188787,-0.30546 0.305463,0.18878 0.305464,0.18879 v 0.11668 0.11667 z m 31.189609,0 h -0.11668 v -0.26458 -0.26458 h 0.2802 0.2802 l -0.16352,0.26458 -0.16352,0.26458 z m -34.11564,-0.26459 h -0.132292 v -0.1323 -0.13229 h 0.132292 0.132292 v 0.13229 0.1323 z m 10.435427,0 h -0.248969 v -0.10399 -0.10398 l 0.410617,-0.15757 0.410617,-0.15757 -0.161649,0.26155 -0.161648,0.26156 z m 34.178103,0 h -0.26459 l -0.16352,-0.26459 -0.16352,-0.26458 h 0.26458 0.26459 l 0.16352,0.26458 0.16352,0.26459 z m -19.6104,-0.52917 h -0.35278 l 0.17639,-0.17639 0.17639,-0.17639 0.17639,0.17639 0.17639,0.17639 z m 10.84792,0 h -0.35278 l 0.17639,-0.17639 0.17639,-0.17639 0.17638,0.17639 0.17639,0.17639 z m -36.924998,-0.26458 h -0.41249 l 0.166189,-0.2689 0.166188,-0.2689 0.246301,0.15222 0.246302,0.15222 v 0.11668 0.11668 z m 1.221854,0 h -0.248968 l -0.163521,-0.26459 -0.163522,-0.26458 h 0.41249 0.41249 v 0.26458 0.26459 z m 38.194634,-0.0209 -0.50712,-0.0209 0.34727,-0.13897 0.34726,-0.13896 0.15985,0.15985 0.15986,0.15985 z m -41.385248,-0.2437 h -0.352778 l 0.176389,-0.17639 0.176389,-0.17638 0.176388,0.17638 0.176389,0.17639 z m 40.267198,-0.008 -0.34634,0.008 0.14955,-0.24198 0.14956,-0.24199 -0.30413,-0.10138 -0.30414,-0.10137 0.9793,-0.0278 0.97929,-0.0278 -0.47837,0.3627 -0.47837,0.36271 z m -27.567198,-0.52076 h -0.352778 l 0.176389,-0.17639 0.176389,-0.17639 0.176388,0.17639 0.176389,0.17639 z m -9.921875,-0.52917 h -0.132292 v -0.13229 -0.13229 h 0.132292 0.132291 v 0.13229 0.13229 z m 10.451041,0 h -0.529166 v -0.10143 -0.10144 l 0.529166,-0.13838 0.529167,-0.13838 v 0.23982 0.23981 z m 15.875002,0 h -0.35278 l 0.17639,-0.17639 0.17639,-0.17639 0.17639,0.17639 0.17639,0.17639 z m 15.47813,-0.0309 -0.52917,0.0108 -0.3363,-0.38161 -0.3363,-0.3816 0.0244,-0.20365 0.0244,-0.20364 0.39793,-0.22269 0.39792,-0.22269 0.17093,0.17093 0.17093,0.17093 -0.3091,0.19104 -0.3091,0.19103 0.18447,0.28408 0.18447,0.28407 0.39688,0.15108 0.39687,0.15107 z m -40.878132,-0.25628 -0.132291,0.0145 -0.32778,-0.20818 -0.32778,-0.20818 0.989238,-0.0209 0.989238,-0.0209 -0.529166,0.21453 -0.529167,0.21453 z m 37.438542,0.0226 h -0.13229 v -0.13229 -0.13229 h 0.13229 0.1323 v 0.13229 0.13229 z m 0.26459,-1.05833 h -0.13229 v -0.13229 -0.1323 h 0.13229 0.13229 v 0.1323 0.13229 z m -3.83646,-2.11667 h -0.35278 l 0.17639,-0.17639 0.17639,-0.17639 0.17639,0.17639 0.17639,0.17639 z"
       id="path6" />
  </g>
</svg>
