<?xml version="1.0" encoding="UTF-8" standalone="no"?>
<!-- Created with Inkscape (http://www.inkscape.org/) -->

<svg
   width="118.7979mm"
   height="158.54283mm"
   viewBox="0 0 118.7979 158.54283"
   version="1.1"
   id="svg1"
   inkscape:version="1.4.1-rc (06eac75fbf, 2025-03-29)"
   sodipodi:docname="mounts9.svg"
   xmlns:inkscape="http://www.inkscape.org/namespaces/inkscape"
   xmlns:sodipodi="http://sodipodi.sourceforge.net/DTD/sodipodi-0.dtd"
   xmlns="http://www.w3.org/2000/svg"
   xmlns:svg="http://www.w3.org/2000/svg">
  <sodipodi:namedview
     id="namedview1"
     pagecolor="#ffffff"
     bordercolor="#000000"
     borderopacity="0.25"
     inkscape:showpageshadow="2"
     inkscape:pageopacity="0.0"
     inkscape:pagecheckerboard="0"
     inkscape:deskcolor="#d1d1d1"
     inkscape:document-units="mm"
     inkscape:zoom="0.72248176"
     inkscape:cx="224.91917"
     inkscape:cy="299.66154"
     inkscape:window-width="1850"
     inkscape:window-height="1016"
     inkscape:window-x="0"
     inkscape:window-y="0"
     inkscape:window-maximized="1"
     inkscape:current-layer="layer1" />
  <defs
     id="defs1" />
  <g
     inkscape:label="Layer 1"
     inkscape:groupmode="layer"
     id="layer1"
     transform="translate(-45.508333,-69.320831)">
    <path
       style="fill:#000000"
       d="m 62.838527,227.59909 c 0.0899,-0.14553 0.28259,-0.26459 0.42811,-0.26459 0.14552,0 0.191,0.11906 0.10106,0.26459 -0.0899,0.14552 -0.28259,0.26458 -0.42811,0.26458 -0.14552,0 -0.191,-0.11906 -0.10106,-0.26458 z m 100.026393,-0.43855 c -0.71997,-0.22093 -1.81298,-0.74842 -2.42892,-1.1722 -0.93504,-0.64332 -1.38498,-0.7705 -2.72587,-0.7705 -1.55526,0 -1.60597,-0.0218 -1.60597,-0.6915 0,-0.67442 0.0311,-0.68695 1.25677,-0.5073 1.23418,0.1809 3.7494,1.30106 5.13407,2.28649 0.38627,0.27489 0.95181,0.49981 1.25677,0.49981 0.31647,0 0.55447,0.17035 0.55447,0.39687 0,0.21828 -0.0298,0.38858 -0.0662,0.37845 -0.0364,-0.0101 -0.65521,-0.19919 -1.37518,-0.42012 z m -97.742453,-0.2138 c 0.0677,-0.0677 0.53407,-0.18176 1.03628,-0.25336 0.50222,-0.0716 1.3596,-0.21035 1.9053,-0.30832 0.60105,-0.10791 0.99219,-0.0744 0.99219,0.0851 0,0.14478 -0.5524,0.33895 -1.22755,0.43149 -1.43809,0.19711 -2.88231,0.22117 -2.70622,0.0451 z m 7.07808,-0.43055 c -0.2014,-0.12756 -0.24712,-0.23537 -0.1016,-0.23958 0.14552,-0.004 0.54841,-0.0836 0.89532,-0.17647 0.4546,-0.12166 0.59836,-0.0717 0.51482,0.17894 -0.14243,0.42729 -0.81563,0.54928 -1.30854,0.23711 z m 74.249553,0.0422 c -0.98548,-0.19203 -1.27948,-1.08026 -0.35336,-1.06759 0.77102,0.0106 1.73744,0.7068 1.39424,1.00447 -0.1377,0.11943 -0.6061,0.14784 -1.04088,0.0631 z m 4.44713,-0.8281 c -0.39302,-0.13786 -0.37774,-0.21948 0.13747,-0.73469 0.43181,-0.43182 0.76409,-0.53753 1.30317,-0.41459 0.99091,0.22598 2.70795,0.96652 2.70795,1.16792 0,0.20692 -3.55104,0.19097 -4.14859,-0.0186 z m -85.809743,-0.8886 c 1.35107,-0.49434 2.91042,-0.7441 2.91042,-0.46615 0,0.13203 -0.6747,0.37555 -1.49934,0.54116 -1.93815,0.38923 -2.5858,0.35481 -1.41108,-0.075 z m 11.04635,-0.32828 c 0.18191,-0.0734 0.47956,-0.0734 0.66146,0 0.1819,0.0734 0.0331,0.13345 -0.33073,0.13345 -0.3638,0 -0.51263,-0.0601 -0.33073,-0.13345 z m -5.5916,-0.40375 c 0.073,-0.11813 0.6218,-0.21477 1.21955,-0.21477 0.59774,0 0.99757,0.0893 0.8885,0.19844 -0.27006,0.27022 -2.27457,0.28575 -2.10805,0.0163 z m 35.139493,-3.04248 c 0.9542,-0.97316 1.8056,-1.99211 1.89201,-2.26434 0.11175,-0.3521 0.36055,-0.47143 0.86198,-0.41344 1.12588,0.13022 1.07253,1.08353 -0.12185,2.17773 -1.00888,0.92426 -3.39341,2.26943 -4.02291,2.26943 -0.18928,0 0.43656,-0.79622 1.39077,-1.76938 z m -40.065073,1.40253 c 0,-0.0562 0.3509,-0.15376 0.77977,-0.21671 0.42888,-0.0629 0.71951,-0.0169 0.64585,0.10226 -0.13111,0.21214 -1.42562,0.31606 -1.42562,0.11445 z m 2.24896,-0.4269 c 0.73507,-0.31588 1.25355,-0.31588 1.05833,0 -0.0899,0.14552 -0.48392,0.25621 -0.87551,0.24598 -0.63575,-0.0166 -0.65533,-0.0429 -0.18282,-0.24598 z m 9.65729,-0.52917 c -0.33917,-0.21919 -0.32955,-0.25707 0.0661,-0.26053 0.25466,-0.002 0.46302,0.11501 0.46302,0.26053 0,0.32269 -0.0298,0.32269 -0.52916,0 z m 5.31371,0.16951 c 0.31172,-0.26882 1.59366,-0.4292 1.43972,-0.18012 -0.0935,0.15136 -0.48055,0.27519 -0.86002,0.27519 -0.37947,0 -0.64033,-0.0428 -0.5797,-0.0951 z m -21.98246,-0.96326 c 0,-0.14552 0.18562,-0.26458 0.41249,-0.26458 0.22687,0 0.3389,0.11906 0.24896,0.26458 -0.0899,0.14552 -0.27555,0.26458 -0.41249,0.26458 -0.13693,0 -0.24896,-0.11906 -0.24896,-0.26458 z m 25.54552,0.0187 c 0.13824,-0.13522 0.60854,-0.32193 1.0451,-0.4149 0.75465,-0.16071 0.76845,-0.1486 0.28016,0.24586 -0.54861,0.4432 -1.76404,0.59823 -1.32526,0.16904 z m 46.470293,-0.29784 c -0.66634,-0.26724 -0.55571,-0.78435 0.16491,-0.7708 0.56033,0.0105 1.42437,0.64621 1.19294,0.87764 -0.2249,0.22491 -0.60531,0.19498 -1.35785,-0.10684 z m -45.571893,-1.37298 c -1.21554,-0.2663 -2.26518,-0.5393 -2.33255,-0.60666 -0.36149,-0.3615 0.35737,-0.36916 1.86347,-0.0199 3.09671,0.71817 3.84857,0.72063 5.85629,0.0192 1.98201,-0.69247 2.70891,-0.7952 2.94329,-0.41596 0.20978,0.33944 -2.2999,1.09928 -4.35663,1.31904 -1.30624,0.13957 -2.33715,0.0629 -3.97387,-0.29572 z m 35.981693,0.17755 c -0.18998,-0.22891 -0.79179,-0.64393 -1.33736,-0.92226 -1.87127,-0.95465 -1.7169,-1.60455 0.21286,-0.89615 1.38128,0.50706 1.9343,1.00912 1.9343,1.75603 0,0.58924 -0.35015,0.61622 -0.8098,0.0624 z m 2.55709,0.009 c -0.85266,-0.85267 -1.81805,-2.25609 -1.66037,-2.41376 0.0884,-0.0884 0.52092,-0.0115 0.96118,0.17086 0.60202,0.24937 0.87083,0.59281 1.08421,1.38524 0.32924,1.22269 0.22104,1.46371 -0.38502,0.85766 z m -7.03895,-0.25428 c -0.18116,-0.21828 -0.53835,-0.39688 -0.79375,-0.39688 -0.5694,0 -1.16632,-0.66955 -0.93321,-1.04674 0.30929,-0.50044 1.18976,-0.28845 1.99395,0.48007 0.43524,0.41594 0.79134,0.89219 0.79134,1.05834 0,0.4328 -0.67029,0.37276 -1.05833,-0.0948 z m 32.80867,-0.44373 c -0.65466,-0.45312 -1.69646,-0.99633 -2.31511,-1.20713 -0.61864,-0.21079 -1.12481,-0.4841 -1.12481,-0.60736 0,-0.94224 2.55486,0.0238 4.02528,1.52208 1.30713,1.33186 1.08018,1.44524 -0.58536,0.29241 z m 5.22518,0.39364 c -0.25466,-0.0666 -0.46302,-0.23134 -0.46302,-0.36619 0,-0.3738 0.42505,-0.29257 0.79375,0.15169 0.18116,0.21829 0.28503,0.38307 0.23083,0.36619 -0.0542,-0.0169 -0.3069,-0.0851 -0.56156,-0.15169 z M 97.324667,218.074 c 0.60266,-0.43657 1.20198,-0.79375 1.33183,-0.79375 0.29462,0 1.998323,-1.86853 2.417003,-2.65083 0.21969,-0.4105 0.39351,-0.4984 0.59235,-0.29956 0.55923,0.55922 -1.896353,3.06997 -4.009113,4.09919 -1.3928,0.67849 -1.54063,0.52042 -0.33207,-0.35505 z m 30.696133,0.14541 c -0.95247,-0.64722 -1.39378,-1.65861 -1.00102,-2.29411 0.26528,-0.42922 0.94173,0.0912 1.19031,0.91582 0.0948,0.31428 0.47882,0.89884 0.8535,1.29902 0.87352,0.93298 0.27996,0.9781 -1.04279,0.0793 z m 11.06183,0.47195 c -0.097,-0.097 -0.17639,-0.35072 -0.17639,-0.56379 0,-0.50443 1.76549,-0.25356 2.35348,0.33443 0.36461,0.36461 0.28375,0.40575 -0.79748,0.40575 -0.66177,0 -1.2826,-0.0794 -1.37961,-0.17639 z m 7.71514,-0.22236 c -0.0738,-0.0738 -0.65918,-0.20406 -1.30087,-0.28948 -1.45597,-0.19383 -2.06597,-0.69081 -1.5746,-1.28287 0.38512,-0.46404 0.86466,-0.51864 1.53597,-0.1749 0.25269,0.12938 0.90295,0.45252 1.44504,0.71808 1.18843,0.58219 1.50699,1.16333 0.63768,1.16333 -0.33498,0 -0.66943,-0.0604 -0.74322,-0.13416 z m -70.200903,-0.395 c -0.0899,-0.14553 0.0291,-0.26459 0.26458,-0.26459 0.23546,0 0.35452,0.11906 0.26458,0.26459 -0.0899,0.14552 -0.209,0.26458 -0.26458,0.26458 -0.0556,0 -0.17465,-0.11906 -0.26458,-0.26458 z m 1.33406,0.018 c -0.10681,-0.17281 0.11409,-0.29411 0.56855,-0.31219 0.40877,-0.0163 1.12433,-0.0739 1.59014,-0.12803 0.4658,-0.0541 0.91931,0.0187 1.0078,0.16187 0.0964,0.15589 -0.31429,0.26032 -1.02372,0.26032 -0.65153,0 -1.36089,0.0676 -1.57635,0.15033 -0.21546,0.0827 -0.47035,0.0231 -0.56642,-0.1323 z m 5.74858,0.0632 c 0.25743,-0.0671 0.61461,-0.0627 0.79375,0.01 0.17913,0.0725 -0.0315,0.12736 -0.46806,0.12197 -0.43656,-0.005 -0.58313,-0.0647 -0.32569,-0.13177 z m 70.979653,-0.44384 c -0.34496,-0.34496 -0.94332,-0.70654 -1.32969,-0.80351 -0.78742,-0.19763 -0.78008,-0.72776 0.0117,-0.8486 0.47098,-0.0719 2.76293,1.67577 2.76293,2.10678 0,0.39841 -0.86367,0.12665 -1.445,-0.45467 z m -23.955,-0.36283 c -1.42911,-0.93574 -1.85209,-1.47549 -1.85209,-2.36339 0,-0.62354 0.12115,-0.87992 0.41578,-0.87992 0.45418,0 1.17172,0.61163 1.17172,0.99878 0,0.36577 0.79215,1.87941 1.07509,2.05428 0.29537,0.18255 0.33214,0.657 0.0494,0.63722 -0.10914,-0.008 -0.49609,-0.20877 -0.8599,-0.44697 z m -69.585423,-0.44736 c 0,-0.29015 0.25428,-0.4147 0.84667,-0.4147 0.90396,0 0.77228,0.34028 -0.25136,0.64955 -0.44065,0.13313 -0.59531,0.0721 -0.59531,-0.23485 z m 29.93763,-0.38456 c -0.19644,-0.12449 -1.01985,-0.24162 -1.8298,-0.26029 -0.80994,-0.0187 -1.52647,-0.0878 -1.59228,-0.15361 -0.32804,-0.32804 1.54865,-0.45818 2.84007,-0.19694 0.80758,0.16336 2.09342,0.2656 2.8574,0.2272 1.42763,-0.0718 1.84984,0.1683 0.79375,0.45132 -0.87058,0.2333 -2.65632,0.19392 -3.06914,-0.0677 z m 40.842293,-1.41921 c -1.00352,-1.00029 -1.44311,-1.66675 -1.5706,-2.38125 -0.15568,-0.87243 -0.11374,-0.99218 0.34753,-0.99218 0.38194,0 0.75281,0.46362 1.364,1.70511 0.46169,0.93782 1.06446,1.90877 1.3395,2.15768 0.27504,0.2489 0.50007,0.55316 0.50007,0.67613 0,0.53065 -0.68084,0.12999 -1.9805,-1.16549 z m -36.913253,0.93156 c 0,-0.37671 2.76748,-1.24146 3.30856,-1.03383 0.62903,0.24139 0.36335,0.45887 -0.85068,0.69638 -0.55147,0.10789 -1.3301,0.28426 -1.73028,0.39195 -0.41896,0.11274 -0.7276,0.0896 -0.7276,-0.0545 z m 61.383333,-0.0717 c 0,-0.14552 -0.18503,-0.26458 -0.41118,-0.26458 -0.46939,0 -3.16064,-1.42972 -3.95445,-2.10079 -0.29104,-0.24605 -0.84342,-0.64205 -1.22752,-0.88001 -0.3841,-0.23797 -1.03895,-0.96998 -1.45521,-1.62669 -0.87425,-1.37924 -1.24849,-1.56417 -0.84956,-0.4198 0.15214,0.43645 0.99293,1.51431 1.86841,2.39525 0.87549,0.88093 1.52508,1.66841 1.44355,1.74994 -0.29867,0.29867 -2.46028,-1.37828 -3.70335,-2.87301 -1.27165,-1.5291 -1.76486,-1.85906 -1.76486,-1.18071 0,0.41086 1.91059,3.46017 2.71895,4.33946 0.85672,0.9319 0.323,1.01094 -0.65256,0.0967 -0.48167,-0.45142 -0.9613,-0.82131 -1.06585,-0.82199 -0.27864,-0.002 -2.14617,-2.62276 -2.66684,-3.74275 -0.36345,-0.78181 -0.89338,-1.28555 -1.35237,-1.28555 -0.2937,0 1.17981,3.57902 1.88972,4.58998 0.4954,0.70547 0.84552,1.33789 0.77804,1.40537 -0.23458,0.23458 -2.05465,-1.57699 -2.71294,-2.70028 -0.60766,-1.0369 -1.33352,-1.63172 -1.62973,-1.33552 -0.138,0.138 1.39427,2.4303 1.78659,2.67277 0.14364,0.0888 0.26116,0.28757 0.26116,0.44178 0,0.1542 -0.38695,-0.0116 -0.8599,-0.36851 -0.70645,-0.5331 -2.30964,-1.26601 -2.76929,-1.26601 -0.0608,0 -0.0311,0.26789 0.0662,0.59531 0.15739,0.52981 0.0938,0.50797 -0.57748,-0.19844 -0.41488,-0.43656 -1.09391,-0.94556 -1.50895,-1.13111 -0.63551,-0.28412 -0.72738,-0.4459 -0.58204,-1.02497 0.22801,-0.90848 -1.00266,-2.78685 -1.66378,-2.53941 -0.35495,0.13285 -0.37993,0.0913 -0.13029,-0.21666 0.45445,-0.56063 -0.22046,-1.41126 -0.93882,-1.18326 -0.54563,0.17318 -1.82163,-0.46162 -2.22745,-1.10813 -0.11637,-0.18539 -0.32473,-0.33708 -0.46302,-0.33708 -0.31609,0 -1.30977,-0.97907 -1.30977,-1.29052 0,-0.1277 -0.17859,-0.38041 -0.39687,-0.56156 -0.27421,-0.22757 -0.39688,-0.23759 -0.39688,-0.0324 0,0.16334 0.11906,0.29698 0.26458,0.29698 0.14553,0 0.26459,0.17204 0.26459,0.38231 0,0.4213 1.95965,2.35254 3.10741,3.06236 0.45114,0.279 1.28376,1.48382 2.18425,3.16068 0.80037,1.4904 1.74128,2.93729 2.09092,3.21531 0.99387,0.7903 0.48764,0.85269 -0.90605,0.11166 -0.69502,-0.36955 -1.42454,-0.6719 -1.62115,-0.6719 -0.49422,0 -0.44813,0.78419 0.0804,1.36822 0.79727,0.88098 -0.1793,0.54001 -1.26647,-0.44218 -0.56376,-0.50933 -1.13428,-0.92604 -1.26782,-0.92604 -0.13353,0 -0.31796,-0.34224 -0.40983,-0.76053 -0.0919,-0.41828 -0.42876,-0.98597 -0.74863,-1.26153 -0.96515,-0.83142 -2.26217,-1.68211 -2.56465,-1.68211 -0.40259,0 -1.31923,-2.25296 -1.50034,-3.68763 -0.0838,-0.66394 -0.29121,-1.32622 -0.46088,-1.47175 -0.66471,-0.57012 -1.55481,-2.07042 -1.75504,-2.95819 -0.1369,-0.607 -0.0777,-1.44299 0.16916,-2.39096 0.33445,-1.28404 0.33187,-1.55341 -0.0216,-2.26207 -0.22072,-0.44245 -0.40313,-1.3517 -0.40536,-2.02057 -0.006,-1.89032 -0.22162,-2.04029 -1.78899,-1.24604 -1.06631,0.54034 -1.7559,0.68437 -3.40981,0.71221 -1.14026,0.0192 -2.57921,-0.0497 -3.19767,-0.15305 -0.61847,-0.10337 -1.13141,-0.0861 -1.13989,0.0383 -0.008,0.12443 -0.0568,1.35732 -0.10737,2.73977 -0.0506,1.38245 -0.17067,2.98979 -0.26688,3.57187 -0.27643,1.67252 -1.45299,3.76499 -2.68433,4.77398 -0.93706,0.76785 -1.44388,0.9648 -2.97861,1.15751 -2.24551,0.28196 -3.42848,1.07681 -4.27138,2.86999 -0.559,1.18922 -1.90962,3.34872 -2.76033,4.41347 -0.26911,0.33683 -0.50125,0.42512 -0.67111,0.25526 -0.16987,-0.16987 0.0451,-0.71406 0.62152,-1.57328 0.48467,-0.72248 1.08596,-1.78984 1.33621,-2.37193 0.25025,-0.58208 0.59609,-1.34518 0.76853,-1.69578 0.47979,-0.97548 2.61981,-2.31409 4.03997,-2.52706 2.0542,-0.30805 3.8984,-1.29939 4.71622,-2.53521 0.91753,-1.38648 1.43591,-3.92293 1.45769,-7.13257 0.0236,-3.47229 0.11592,-4.01133 0.76066,-4.43942 0.82144,-0.54542 2.54758,-0.17656 3.63284,0.77632 1.33422,1.17146 2.39345,1.24008 3.76397,0.24384 0.61846,-0.44957 1.12448,-0.92944 1.12448,-1.06639 0,-0.45856 -2.76239,-1.64676 -4.17006,-1.79369 -1.21731,-0.12706 -1.53263,-0.29286 -2.51354,-1.32172 -0.61689,-0.64703 -1.97248,-1.75664 -3.01243,-2.46579 -2.0412,-1.39191 -3.00397,-2.41687 -3.00397,-3.198 0,-0.77803 0.85394,-0.57459 1.56854,0.3737 1.08079,1.43423 3.6393,3.52909 5.23003,4.28227 0.82993,0.39296 1.63407,0.87173 1.78697,1.06395 0.1529,0.19222 1.17097,0.72531 2.26237,1.18464 1.09141,0.45933 2.2225,0.94338 2.51354,1.07568 0.29105,0.13229 1.06495,0.31399 1.7198,0.40377 0.65484,0.0898 1.24049,0.21292 1.30144,0.27365 0.0609,0.0607 0.31831,-0.0774 0.57192,-0.30686 0.25379,-0.22967 0.78631,-0.37863 1.18446,-0.3313 0.62334,0.0741 0.77131,0.26891 1.07005,1.40889 0.19068,0.72761 0.35194,1.75335 0.35837,2.27942 0.007,0.53915 0.24156,1.24877 0.53853,1.62631 0.46858,0.59569 0.63623,0.64513 1.51547,0.44683 0.75506,-0.1703 1.25085,-0.10697 2.09871,0.26808 0.61056,0.27008 1.1576,0.44357 1.21565,0.38553 0.058,-0.058 0.45411,-0.15073 0.88015,-0.20596 1.26294,-0.16373 1.63236,-0.42379 1.8012,-1.26799 0.0933,-0.46635 0.295,-0.75454 0.48405,-0.69152 0.17827,0.0594 0.74475,-0.1783 1.25884,-0.52827 1.32133,-0.89951 2.68977,-0.65639 4.1097,0.73013 1.06986,1.04469 2.60757,1.85223 3.52699,1.85223 0.64784,0 2.41265,1.40359 3.07227,2.44344 0.45282,0.71384 0.5071,1.24054 0.45705,4.43489 l -0.0568,3.62485 1.44377,1.69373 c 2.14116,2.51184 2.51455,2.87239 4.74083,4.57781 1.12089,0.85864 1.98397,1.61519 1.91795,1.6812 -0.066,0.066 -0.78231,0.11213 -1.59177,0.10246 -0.80946,-0.01 -1.47175,0.097 -1.47175,0.23702 0,0.14003 -0.11906,0.2546 -0.26458,0.2546 -0.14552,0 -0.26459,-0.11906 -0.26459,-0.26458 z m -1.53265,-2.97656 c -0.13295,-0.9681 -1.09583,-2.38276 -2.04521,-3.00482 -1.11235,-0.72883 -1.24068,-0.1473 -0.25784,1.16843 2.33492,3.12576 2.49797,3.25577 2.30305,1.83639 z m -19.01167,-0.52917 c -0.94509,-1.54251 -1.57594,-2.20688 -2.47977,-2.61154 -0.57915,-0.25929 -1.05299,-0.35808 -1.05299,-0.21953 0,0.37974 2.9757,3.1618 3.38187,3.1618 0.2145,0 0.27384,-0.13006 0.15089,-0.33073 z m 5.46307,-0.16604 c 0,-0.1277 -0.17859,-0.38041 -0.39687,-0.56156 -0.21829,-0.18116 -0.39688,-0.4934 -0.39688,-0.69386 0,-0.20046 -0.17859,-0.36448 -0.39687,-0.36448 -0.21829,0 -0.39688,-0.17068 -0.39688,-0.3793 0,-0.21675 -0.31085,-0.41518 -0.72534,-0.46302 -0.45547,-0.0526 -0.76003,-0.26645 -0.81856,-0.57484 -0.13718,-0.72268 0.36728,-1.12705 0.87762,-0.7035 0.22797,0.18919 0.47327,0.2852 0.54512,0.21336 0.21399,-0.21399 -1.09819,-2.46098 -2.0952,-3.58783 l -0.53116,-0.60034 -0.28475,0.69665 -0.28476,0.69664 -1.53277,-1.24859 c -1.52868,-1.24525 -2.45071,-1.56288 -1.04835,-0.36115 1.50216,1.28726 3.26409,3.49221 4.05735,5.07753 0.84934,1.6974 2.16831,3.06711 2.96528,3.07936 0.25466,0.004 0.46302,-0.0974 0.46302,-0.22507 z m 1.1188,-2.08714 c 0.19733,-0.75457 -0.14358,-1.35962 -1.09051,-1.93549 l -0.88687,-0.53933 0.18286,1.00801 c 0.10057,0.55441 0.44258,1.21372 0.76002,1.46515 0.73102,0.579 0.88346,0.57925 1.0345,0.002 z m 4.05441,-1.25932 c -0.19756,-0.57467 -0.51962,-1.12121 -0.71569,-1.21454 -1.22797,-0.58453 -2.41258,-1.02765 -2.74729,-1.02765 -0.58618,0 -3.53323,-1.65923 -3.69477,-2.08022 -0.0777,-0.20245 0.005,-0.54383 0.18283,-0.7586 0.28272,-0.34065 0.37714,-0.32792 0.73961,0.0997 0.3555,0.41939 6.80973,3.79748 7.25552,3.79748 0.30261,0 0.15279,-1.52558 -0.17415,-1.77322 -0.1819,-0.13777 -1.10255,-0.45821 -2.04589,-0.71207 -1.8987,-0.51095 -4.76713,-2.1173 -4.76713,-2.66964 0,-0.19477 -0.52592,-0.60871 -1.16871,-0.91988 -0.64279,-0.31117 -1.34794,-0.83931 -1.567,-1.17364 -0.21907,-0.33433 -0.76471,-0.75965 -1.21254,-0.94515 -0.49557,-0.20527 -0.81425,-0.52942 -0.81425,-0.82824 0,-0.27003 -0.30941,-0.6937 -0.68758,-0.94148 -0.60775,-0.39822 -0.87203,-0.41242 -2.27651,-0.12233 -1.32979,0.27466 -1.65997,0.26741 -2.02441,-0.0445 -0.9963,-0.8527 -1.16554,-0.72693 -0.30317,0.22531 1.33117,1.46988 1.80871,1.90178 3.43959,3.11082 1.60079,1.18673 5.02708,4.56655 5.02708,4.95889 0,0.1362 0.40475,0.24763 0.89946,0.24763 0.89916,0 3.26798,1.35912 4.059,2.32887 0.26874,0.32946 0.40317,0.36106 0.50417,0.11852 0.24201,-0.58119 0.83201,-0.35559 1.191,0.45541 0.27925,0.63088 0.88539,1.10389 1.20581,0.94097 0.0298,-0.0152 -0.10742,-0.49775 -0.30498,-1.07242 z m -9.31637,-6.02188 c -0.90008,-0.50629 -3.74325,-3.31545 -3.92035,-3.87344 -0.31828,-1.00281 0.36368,-0.78294 1.78998,0.57712 0.80027,0.76311 1.88436,1.71997 2.40908,2.12636 1.41341,1.09466 1.19764,2.00042 -0.27871,1.16996 z m -8.02767,2.86927 c 0,-0.0642 -0.11907,-0.19027 -0.26459,-0.2802 -0.14552,-0.0899 -0.26458,-0.0374 -0.26458,0.11667 0,0.15411 0.11906,0.2802 0.26458,0.2802 0.14552,0 0.26459,-0.0525 0.26459,-0.11667 z m 18.25625,-1.55902 c 0,-1.00974 -0.16141,-1.25771 -0.68733,-1.05589 -0.37584,0.14422 -0.51872,1.43734 -0.19462,1.76144 0.46095,0.46095 0.88195,0.12415 0.88195,-0.70555 z m -2.39097,-0.51553 c -0.22362,-0.17728 -0.67821,-0.70927 -1.0102,-1.18221 -0.33199,-0.47295 -0.78549,-0.8599 -1.00778,-0.8599 -0.61416,0 -1.8815,-0.99582 -2.26297,-1.77815 -0.18675,-0.38297 -0.69673,-0.80994 -1.13329,-0.94882 -0.43656,-0.13887 -0.98172,-0.41555 -1.21146,-0.61485 -0.48379,-0.41967 -1.56667,-0.48725 -1.56667,-0.0978 0,0.14552 0.15892,0.26458 0.35314,0.26458 0.19423,0 0.66713,0.3524 1.05089,0.78311 0.38377,0.43071 1.05829,0.96954 1.49895,1.19742 0.44065,0.22787 0.80119,0.51855 0.80119,0.64596 0,0.21936 0.31285,0.43521 3.175,2.19054 1.19763,0.73449 2.07053,1.00043 1.3132,0.40008 z m -12.16112,-0.59281 c 0,-0.076 -0.47062,-0.64877 -1.04582,-1.27279 -0.5752,-0.62402 -1.17385,-1.47131 -1.33032,-1.88287 -0.34714,-0.91304 -0.53853,-0.80804 -0.34677,0.19024 0.15055,0.78377 2.72291,3.58522 2.72291,2.96542 z m 1.85209,-0.65555 c 0,-0.14552 -0.12609,-0.26458 -0.2802,-0.26458 -0.15411,0 -0.20662,0.11906 -0.11668,0.26458 0.0899,0.14552 0.21603,0.26458 0.2802,0.26458 0.0642,0 0.11668,-0.11906 0.11668,-0.26458 z m 11.8224,-1.10794 c -0.0845,-0.21107 -0.14715,-0.14838 -0.15985,0.15985 -0.0115,0.27891 0.051,0.43518 0.13897,0.34726 0.0879,-0.0879 0.0973,-0.31612 0.0209,-0.50711 z m 0.0838,-1.00873 c 0,-0.14552 -0.11906,-0.26458 -0.26458,-0.26458 -0.14552,0 -0.26458,0.11906 -0.26458,0.26458 0,0.14552 0.11906,0.26459 0.26458,0.26459 0.14552,0 0.26458,-0.11907 0.26458,-0.26459 z m 0.67538,-2.05792 c -0.15713,-0.1587 -1.46913,0.47215 -1.46913,0.70641 0,0.50151 0.66305,0.45107 1.09643,-0.0834 0.24504,-0.3022 0.41275,-0.58255 0.3727,-0.623 z m -6.23163,0.22145 c 0,-0.13693 -0.11906,-0.32255 -0.26458,-0.41249 -0.14552,-0.0899 -0.26458,-0.39462 -0.26458,-0.67707 0,-0.28245 -0.17157,-0.51355 -0.38126,-0.51355 -0.6848,0 -0.73027,0.53142 -0.10213,1.19374 0.64531,0.68045 1.01255,0.82892 1.01255,0.40937 z m 1.85209,-1.20624 c -0.187,-0.22531 -0.39952,-0.35013 -0.47228,-0.27737 -0.0728,0.0728 0.0207,0.31664 0.20769,0.54196 0.187,0.22531 0.39953,0.35013 0.47229,0.27737 0.0728,-0.0728 -0.0207,-0.31664 -0.2077,-0.54196 z m -16.89365,-5.02708 c 0,-0.13824 -0.12799,-0.29402 -0.28443,-0.34616 -0.15643,-0.0521 -0.28442,0.10363 -0.28442,0.34616 0,0.24254 0.12799,0.39831 0.28442,0.34616 0.15644,-0.0521 0.28443,-0.20791 0.28443,-0.34616 z m -46.606356,23.35411 c 0,-0.80222 1.98505,-1.22158 3.93568,-0.83145 1.38455,0.27691 0.92984,0.56416 -1.09141,0.68945 -1.05502,0.0654 -2.12659,0.21022 -2.38125,0.32181 -0.32108,0.14071 -0.46302,0.0856 -0.46302,-0.17981 z m 7.01736,-1.51754 c -0.51063,-0.18534 -0.50946,-0.19731 0.0488,-0.49606 0.70001,-0.37463 5.27439,-0.40918 5.5016,-0.0416 0.0899,0.14552 0.008,0.27449 -0.18282,0.28659 -0.19049,0.0121 -1.27501,0.0683 -2.41005,0.12482 -1.13503,0.0566 -2.14707,0.15081 -2.24896,0.20947 -0.10189,0.0587 -0.42072,0.0212 -0.70852,-0.0833 z m 11.90035,-0.2664 c -0.48985,-0.19493 -0.47711,-0.22429 0.17153,-0.39511 0.84903,-0.22361 1.945136,-0.0963 1.945136,0.22597 0,0.31536 -1.456696,0.43176 -2.116666,0.16914 z m -37.31745,-1.34766 c -0.0838,-0.13556 0.0546,-0.24647 0.30753,-0.24647 0.25292,0 0.85226,-0.1419 1.33188,-0.31533 0.90678,-0.32789 1.44843,-0.14194 0.97259,0.3339 -0.36305,0.36306 -2.41767,0.54233 -2.612,0.2279 z m 30.62826,-0.0209 c -0.35391,-0.1334 -0.22748,-0.26909 0.57098,-0.6128 0.77961,-0.33559 1.44583,-0.40239 2.77813,-0.27857 2.49172,0.23157 5.324456,0.7208 5.324456,0.91956 0,0.22112 -8.081846,0.19486 -8.673566,-0.0282 z m 23.490226,-0.55539 c 0,-0.62841 0.71821,-1.06938 1.44473,-0.88704 0.53746,0.1349 0.62706,0.0849 0.48961,-0.27329 -0.10172,-0.26508 0.0134,-0.57122 0.29115,-0.77432 0.37453,-0.27386 0.67561,-0.26222 1.63018,0.063 1.63587,0.5574 1.69471,0.87857 0.16097,0.87857 -1.01785,0 -1.38641,0.11875 -1.66926,0.53785 -0.46321,0.68632 -2.34738,1.0517 -2.34738,0.4552 z m -16.205726,-1.98233 c -1.52359,-0.0956 -1.89038,-0.36541 -1.09892,-0.80834 0.43051,-0.24092 3.267196,0.28204 4.065456,0.74949 0.42555,0.24921 0.15308,0.25461 -2.966536,0.0589 z m -37.80504,-1.00546 c 0.48965,-0.21258 1.08496,-0.38273 1.32292,-0.3781 0.36533,0.007 0.35274,0.0688 -0.081,0.39688 -0.28247,0.21365 -0.87779,0.3838 -1.32292,0.3781 l -0.80932,-0.0104 z m 2.02014,-0.38651 c -0.0899,-0.14552 0.0746,-0.26459 0.36565,-0.26459 0.29104,0 0.60275,-0.11906 0.69269,-0.26458 0.0899,-0.14552 0.27556,-0.26458 0.41249,-0.26458 0.13693,0 0.24897,0.11906 0.24897,0.26458 0,0.14552 -0.1786,0.26458 -0.39688,0.26458 -0.21828,0 -0.39687,0.11907 -0.39687,0.26459 0,0.14552 -0.17157,0.26458 -0.38126,0.26458 -0.2097,0 -0.45485,-0.11906 -0.54479,-0.26458 z m 3.57188,-1.58397 c 0,-0.31086 0.75364,-0.54706 0.91459,-0.28664 0.0758,0.12262 -0.099,0.28487 -0.3884,0.36055 -0.2894,0.0757 -0.52619,0.0424 -0.52619,-0.0739 z m 35.586456,-0.0187 c -0.58208,-0.1204 -1.50482,-0.22577 -2.05052,-0.23416 -1.090066,-0.0168 -1.347076,-0.41488 -0.386376,-0.59853 0.799916,-0.15292 3.556056,0.40599 3.951336,0.80127 0.36426,0.36426 0.11928,0.36934 -1.51444,0.0314 z m 15.27381,-0.29792 c 0.13471,-0.40414 1.75956,-0.47741 1.85796,-0.0838 0.0364,0.14552 -0.3929,0.30229 -0.95397,0.34837 -0.75181,0.0617 -0.98957,-0.008 -0.90399,-0.26459 z m -31.653226,-0.66414 c 0.53968,-0.39504 2.3565,-0.37377 2.3565,0.0276 0,0.13254 -0.64371,0.26362 -1.43046,0.29131 -1.28253,0.0451 -1.3783,0.0121 -0.92604,-0.3189 z m -23.33525,-0.47791 c 0.2761,-0.20899 0.5953,-0.32233 0.70932,-0.25185 0.11403,0.0705 0.28211,0.007 0.37351,-0.14077 0.20353,-0.32932 1.45788,-0.36006 1.45788,-0.0357 0,0.12825 -0.52897,0.36637 -1.1755,0.52917 -1.58322,0.39866 -1.9858,0.36893 -1.36521,-0.10082 z m 22.91363,-0.7005 c 0.3638,-0.14852 0.84005,-0.30386 1.05833,-0.34521 1.93446,-0.36645 2.50145,-0.41099 3.30729,-0.25981 1.64051,0.30776 1.00229,0.68078 -1.06166,0.62051 -1.09325,-0.0319 -2.06559,0.0198 -2.16077,0.11502 -0.0952,0.0952 -0.54016,0.16551 -0.98885,0.15628 -0.81338,-0.0167 -0.81384,-0.0176 -0.15434,-0.28679 z m 5.68854,0.039 c -0.0899,-0.14552 -0.0374,-0.26458 0.11668,-0.26458 0.15411,0 0.28019,0.11906 0.28019,0.26458 0,0.14552 -0.0525,0.26458 -0.11667,0.26458 -0.0642,0 -0.19026,-0.11906 -0.2802,-0.26458 z m -11.77396,-0.13722 c 0,-0.0626 0.36271,-0.30134 0.80603,-0.53059 0.59474,-0.30755 1.08647,-0.36135 1.87591,-0.20523 0.58844,0.11637 1.05988,0.31613 1.04764,0.44392 -0.0217,0.22688 -3.72958,0.51708 -3.72958,0.2919 z m -3.96875,-0.63144 c 0.73912,-0.60619 1.20604,-0.69284 1.46609,-0.27207 0.23766,0.38455 0.14822,0.43805 -1.06921,0.63947 l -1.05834,0.17509 z m 28.839586,0.1019 c -0.94589,-0.19268 -2.58603,-0.37588 -3.64476,-0.40711 -1.778956,-0.0525 -2.480246,-0.29765 -2.058286,-0.71961 0.0939,-0.0939 1.2019,-0.14194 2.462156,-0.1067 2.21674,0.062 3.86607,0.44477 5.3202,1.23476 0.58568,0.31819 0.61314,0.37717 0.16964,0.36432 -0.29104,-0.008 -1.30307,-0.17297 -2.24895,-0.36566 z m -37.570836,-0.0878 c 0,-0.41426 0.72591,-0.86289 1.56883,-0.96957 0.44683,-0.0566 0.81242,0.0106 0.81242,0.1492 0,0.13861 -0.18451,0.25201 -0.41001,0.25201 -0.22551,0 -0.76129,0.18165 -1.19063,0.40367 -0.42933,0.22202 -0.78061,0.29613 -0.78061,0.16469 z m 3.43958,-0.80463 c 0,-0.29741 0.68822,-0.57482 0.90018,-0.36286 0.31849,0.3185 0.14471,0.59913 -0.37101,0.59913 -0.29104,0 -0.52917,-0.10632 -0.52917,-0.23627 z m 24.73855,-0.2976 c -0.49813,-0.19117 -0.50097,-0.21456 -0.0484,-0.3989 0.26444,-0.1077 0.60223,-0.0744 0.75065,0.074 0.37187,0.37186 -0.0597,0.57148 -0.70229,0.32487 z m 14.155206,-0.52475 c -0.65183,-0.38391 -4.00542,-1.32232 -4.74092,-1.32661 -1.18314,-0.007 -2.65977,-0.63862 -2.41573,-1.03348 0.15125,-0.24473 0.5251,-0.2997 1.23922,-0.18219 0.56245,0.0925 1.26076,0.19646 1.5518,0.23093 0.29104,0.0345 0.6865,0.21151 0.87879,0.39341 0.1923,0.1819 0.60902,0.33185 0.92605,0.33321 0.54141,0.002 3.35454,1.44696 3.35454,1.72266 0,0.18723 -0.34283,0.12766 -0.79375,-0.13793 z m -46.302086,-0.21561 c 0,-0.27031 1.0872,-0.63718 1.28931,-0.43506 0.16836,0.16835 5.3e-4,0.29014 -0.694,0.50363 -0.32824,0.1009 -0.59531,0.0701 -0.59531,-0.0686 z m 45.111456,-2.5811 c -1.45521,-0.34444 -3.09232,-0.69485 -3.63802,-0.7787 -0.5457,-0.0838 -0.99219,-0.27414 -0.99219,-0.42287 0,-0.14873 0.20836,-0.20559 0.46302,-0.12634 0.25466,0.0792 0.62878,0.04 0.83137,-0.0872 0.62402,-0.39179 6.11395,1.28827 6.11395,1.87102 0,0.12342 -0.0298,0.21223 -0.0661,0.19736 -0.0364,-0.0149 -1.25677,-0.30886 -2.71198,-0.65329 z m -37.967706,0.11509 c 0,-0.12568 0.47625,-0.22851 1.05833,-0.22851 0.58209,0 1.05834,0.10283 1.05834,0.22851 0,0.12567 -0.47625,0.2285 -1.05834,0.2285 -0.58208,0 -1.05833,-0.10283 -1.05833,-0.2285 z m -7.67292,-0.22851 c 0,-0.14552 0.11907,-0.26458 0.26459,-0.26458 0.14552,0 0.26458,0.11906 0.26458,0.26458 0,0.14552 -0.11906,0.26459 -0.26458,0.26459 -0.14552,0 -0.26459,-0.11907 -0.26459,-0.26459 z m 1.19063,-0.26458 c 0.0899,-0.14552 0.28258,-0.26458 0.4281,-0.26458 0.14552,0 0.191,0.11906 0.10107,0.26458 -0.0899,0.14552 -0.28259,0.26458 -0.42811,0.26458 -0.14552,0 -0.191,-0.11906 -0.10106,-0.26458 z m 3.175,-1.5875 c 0.0899,-0.14552 0.27556,-0.26458 0.41249,-0.26458 0.13693,0 0.24897,0.11906 0.24897,0.26458 0,0.14552 -0.18562,0.26458 -0.41249,0.26458 -0.22687,0 -0.33891,-0.11906 -0.24897,-0.26458 z m 2.12989,-0.24229 c 0.22947,-0.22119 1.35242,-0.38418 2.16959,-0.31491 0.1819,0.0154 0.33073,0.1471 0.33073,0.29262 0,0.14552 -0.61913,0.26458 -1.37584,0.26458 -0.83941,0 -1.27783,-0.0945 -1.12448,-0.24229 z m 40.468026,-0.31577 c -0.87313,-0.28039 -2.33164,-0.5844 -3.24115,-0.67559 -1.21145,-0.12145 -1.65364,-0.27083 -1.65364,-0.55859 0,-0.32817 0.31561,-0.36248 1.91822,-0.20851 1.71436,0.1647 3.65034,0.83754 4.96094,1.72416 0.62525,0.42298 -0.1198,0.3173 -1.98437,-0.28147 z m 2.71198,-0.96474 c -1.15907,-0.77739 -1.33435,-1.31356 -0.24532,-0.7504 0.76034,0.39318 1.52958,1.15119 1.34135,1.32176 -0.0571,0.0517 -0.55033,-0.20536 -1.09603,-0.57136 z m -50.469276,-0.32575 c 0,-0.21941 0.64434,-0.5327 1.09559,-0.5327 0.14221,0 0.19386,0.10469 0.11478,0.23265 -0.19403,0.31394 -1.21037,0.56589 -1.21037,0.30005 z m 46.698956,-1.24705 c -0.87312,-0.2079 -1.86026,-0.43337 -2.19363,-0.50104 -0.73206,-0.1486 -0.51826,-0.63669 0.27889,-0.63669 0.81796,0 4.42829,1.11983 4.42829,1.37354 0,0.27937 -0.57746,0.22519 -2.51355,-0.23581 z m -43.788536,-0.0794 c 0,-0.14552 0.12609,-0.26458 0.2802,-0.26458 0.15411,0 0.20661,0.11906 0.11668,0.26458 -0.0899,0.14552 -0.21603,0.26458 -0.2802,0.26458 -0.0642,0 -0.11668,-0.11906 -0.11668,-0.26458 z m 14.2875,0 c 0,-0.14552 0.15514,-0.26458 0.34475,-0.26458 0.18962,0 0.83525,-0.36072 1.43475,-0.8016 0.5995,-0.44087 1.15593,-0.69491 1.23651,-0.56452 0.20221,0.32718 -0.59548,1.00157 -1.76042,1.48832 -1.14748,0.47944 -1.25559,0.4917 -1.25559,0.14238 z m 32.280246,-1.65039 c -1.38185,-0.68943 -2.55263,-1.37404 -2.60173,-1.52135 -0.1113,-0.33389 0.0937,-0.3397 0.68601,-0.0194 0.25269,0.13663 1.11427,0.54489 1.91464,0.90726 1.44168,0.65272 2.88917,1.64047 2.64188,1.80279 -0.0706,0.0463 -1.25894,-0.47984 -2.6408,-1.16927 z m -49.551726,-1.02771 c 0.12999,-0.12999 0.70573,-0.26521 1.27943,-0.30048 0.5737,-0.0353 1.1747,-0.2323 1.33556,-0.43785 0.1665,-0.21275 0.48521,-0.29975 0.73998,-0.20199 0.30326,0.11637 0.74203,-0.12279 1.36118,-0.74194 0.97726,-0.97726 1.15177,-1.34388 0.52526,-1.10346 -0.21362,0.082 -0.45106,0.0477 -0.52765,-0.0763 -0.15985,-0.25865 0.46424,-0.54534 1.18715,-0.54534 0.27082,0 0.91917,-0.25179 1.44076,-0.55954 1.44835,-0.85455 0.88198,-1.26605 -1.33391,-0.96916 -2.12504,0.28471 -2.67909,0.134 -1.43628,-0.39069 1.0802,-0.45604 3.28199,-0.39285 3.88986,0.11163 0.35522,0.29481 0.46571,0.2719 0.71267,-0.14774 0.16074,-0.27315 0.57652,-0.84474 0.92394,-1.2702 l 0.63167,-0.77357 -0.56553,-0.14789 c -0.86762,-0.22689 -0.67145,-0.61534 0.31076,-0.61534 0.66194,0 1.0163,-0.18938 1.4487,-0.77424 0.72565,-0.98149 0.82444,-1.43973 0.32085,-1.4882 -0.21828,-0.021 -0.60524,-0.0563 -0.8599,-0.0785 -0.68796,-0.0599 -0.56155,-0.54211 0.13229,-0.50466 2.41878,0.13056 2.81915,-0.0868 3.21654,-1.74616 l 0.18089,-0.75531 -2.06252,0.0632 c -1.13438,0.0347 -2.30064,0.0397 -2.59168,0.0109 -0.49178,-0.0485 -0.48679,-0.0693 0.0706,-0.29316 0.32987,-0.13251 1.57017,-0.22837 2.75623,-0.21301 2.27758,0.0295 2.86173,-0.25939 2.86173,-1.41518 0,-0.42628 -0.26025,-0.47859 -2.38125,-0.47859 -1.31165,0 -2.38125,-0.11184 -2.38125,-0.24899 0,-0.13694 0.56555,-0.23837 1.25677,-0.2254 3.14051,0.0589 3.98912,-0.16252 3.75837,-0.98082 -0.041,-0.14552 -0.0849,-0.8599 -0.0975,-1.5875 l -0.0229,-1.32292 -2.64584,-0.0811 c -1.66183,-0.0509 -3.28543,0.0637 -4.36562,0.30808 -2.67374,0.60496 -3.43959,0.70513 -3.43959,0.44986 0,-0.453 4.77673,-1.36116 7.67513,-1.4592 l 2.87953,-0.0974 0.93413,-0.93412 0.93412,-0.93413 -1.38281,0.0474 c -3.0724,0.10529 -5.85797,-0.0738 -5.57343,-0.35837 0.34547,-0.34547 0.62615,-0.35737 6.70417,-0.28446 1.39968,0.0168 1.47248,-0.0172 1.90788,-0.89002 0.24897,-0.49912 0.36436,-0.96207 0.25642,-1.02878 -0.10794,-0.0667 -1.35344,-0.20624 -2.76778,-0.31006 -1.41434,-0.10382 -2.57152,-0.29151 -2.57152,-0.41709 0,-0.1985 1.05081,-0.35935 1.66708,-0.25519 1.05753,0.17874 3.6023,0.17102 4.49758,-0.0137 1.76587,-0.36425 3.53198,-0.64671 4.55096,-0.72783 0.55128,-0.0439 2.13825,-1.28264 1.92122,-1.49967 -0.15055,-0.15056 -2.87221,0.40359 -3.24413,0.66053 -0.43906,0.30332 -3.74957,0.34969 -4.29068,0.0601 -0.41349,-0.2213 -1.48148,-0.36551 -4.10985,-0.55498 -0.34167,-0.0246 -0.21633,-0.47998 0.17327,-0.62949 0.20444,-0.0784 1.18666,0.0279 2.18272,0.23628 2.64046,0.55245 5.61071,0.49136 7.29847,-0.15013 0.76554,-0.29096 1.7604,-0.52909 2.21079,-0.52916 0.80822,-1.3e-4 1.69465,-0.66849 1.69465,-1.27774 0,-0.39921 -0.59806,-0.39975 -0.9969,-9.1e-4 -0.6975,0.6975 -6.14685,0.43407 -6.14685,-0.29714 0,-0.34933 0.60744,-0.49714 1.07022,-0.26041 0.22482,0.11501 1.20337,0.19443 2.17457,0.17649 0.9712,-0.0179 1.84173,0.0433 1.93451,0.13609 0.0928,0.0928 0.4166,-0.0623 0.71959,-0.34453 0.30299,-0.28228 0.74275,-0.51324 0.97725,-0.51324 0.2345,0 0.56924,-0.14287 0.74386,-0.3175 0.67274,-0.67273 0.31137,-0.93476 -1.46844,-1.06477 -1.77674,-0.1298 -4.56406,-0.93939 -4.56406,-1.32566 0,-0.29444 1.17123,-0.24833 1.47774,0.0582 0.4198,0.41981 2.79777,0.76254 3.94622,0.56877 l 1.05833,-0.17857 -0.0569,-1.4499 c -0.0549,-1.39911 0.31327,-2.90512 0.71017,-2.90512 0.10572,0 0.20311,-0.38327 0.21643,-0.85171 0.0344,-1.20931 0.56996,-1.51886 1.99979,-1.15581 0.63673,0.16167 1.32782,0.43514 1.53575,0.60771 0.49415,0.41011 2.31972,0.81461 3.12309,0.69201 0.94947,-0.1449 1.351246,-0.58639 2.167386,-2.38162 0.40862,-0.89882 0.8789,-1.71824 1.04506,-1.82093 0.16617,-0.1027 0.96314,-0.23264 1.77106,-0.28876 1.25631,-0.0873 1.6163,1e-4 2.48701,0.6035 0.58921,0.40832 1.07948,0.99546 1.16385,1.3938 0.0802,0.37855 0.25659,0.96176 0.39204,1.29603 0.13545,0.33427 0.24628,0.84029 0.24628,1.12448 0,0.2842 0.0999,0.51672 0.22211,0.51672 0.12216,0 0.35553,0.29282 0.5186,0.65071 0.16306,0.35789 0.78602,0.97467 1.38434,1.37062 1.30937,0.8665 1.9915,2.11122 2.23795,4.08374 0.1604,1.28382 0.31652,1.58252 1.23648,2.36575 1.2994,1.10626 1.44119,1.14382 4.06133,1.0757 1.49465,-0.0389 2.35333,0.0664 2.91041,0.35692 0.43463,0.22663 1.09117,0.41278 1.45897,0.41368 0.86665,0.002 1.74508,0.62881 2.24999,1.60519 0.22119,0.42773 0.56711,0.77769 0.76872,0.77769 0.59473,0 1.65416,1.46592 2.14525,2.96835 0.25119,0.7685 0.62944,1.75446 0.84057,2.19102 0.53616,1.10869 3.34315,3.69402 5.20715,4.79596 1.31542,0.77765 3.65745,2.49532 4.12688,3.02671 0.66499,0.75277 6.97577,4.74504 7.50072,4.74504 0.17547,0 0.55389,0.16428 0.84093,0.36507 0.28704,0.20079 0.70049,0.42354 0.91877,0.49501 0.21828,0.0715 0.0397,0.0842 -0.39688,0.0283 -0.43656,-0.0559 -1.98437,-0.67317 -3.43958,-1.37173 -1.45521,-0.69855 -3.94131,-1.8919 -5.52467,-2.65188 -1.58336,-0.75998 -2.93473,-1.32588 -3.00305,-1.25755 -0.26687,0.26687 0.25665,0.68859 0.8548,0.68859 0.34663,0 0.71132,0.13121 0.81044,0.29158 0.0991,0.16037 0.55262,0.4598 1.0078,0.66541 0.86515,0.39079 1.20264,0.58287 2.94426,1.67568 0.58209,0.36525 1.50482,0.86899 2.05052,1.11944 1.16788,0.53599 1.29048,0.81708 0.26459,0.60664 -0.70722,-0.14506 -4.56327,-1.95375 -4.82865,-2.26489 -0.24829,-0.29109 -1.9294,-0.77094 -2.70093,-0.77094 -1.20891,0 -0.65118,0.47883 2.04585,1.75643 2.30717,1.09291 3.53209,1.94774 2.791,1.94774 -0.17056,0 -0.66139,-0.18165 -1.09073,-0.40367 -0.42933,-0.22202 -0.78061,-0.33834 -0.78061,-0.25849 0,0.0799 -0.27739,-0.0366 -0.61643,-0.25871 -0.33904,-0.22215 -0.67926,-0.34108 -0.75605,-0.26429 -0.0768,0.0768 -0.29022,-0.0419 -0.47429,-0.26366 -0.18408,-0.2218 -0.5166,-0.40327 -0.73894,-0.40327 -0.48257,0 -3.06555,-1.21151 -4.10609,-1.9259 -0.51673,-0.35477 -0.95389,-0.45314 -1.45489,-0.3274 -0.69625,0.17475 -0.70147,0.19006 -0.18736,0.54932 0.99681,0.69657 2.51322,2.06929 2.51322,2.27507 0,0.11316 -1.26995,-0.56435 -2.82211,-1.50559 -1.55216,-0.94123 -2.93237,-1.71133 -3.06712,-1.71133 -0.13476,0 -0.54774,-0.23812 -0.91774,-0.52917 -0.37,-0.29104 -0.95036,-0.52916 -1.28968,-0.52916 -0.58692,0 -2.48668,-1.60187 -2.48668,-2.09676 0,-0.12487 -0.45908,-0.41072 -1.02017,-0.63522 -1.28653,-0.51477 -2.41942,-1.83641 -2.41942,-2.82252 0,-0.41328 -0.10054,-0.79109 -0.22342,-0.8396 -0.12289,-0.0485 -0.71937,-0.81873 -1.32552,-1.7116 -0.60616,-0.89288 -1.27952,-1.77066 -1.49637,-1.95063 -0.21685,-0.17997 -0.39427,-0.46477 -0.39427,-0.63289 0,-0.16813 -0.20836,-0.48523 -0.46303,-0.70468 -0.25466,-0.21946 -0.90877,-0.92134 -1.45358,-1.55974 -0.54481,-0.6384 -1.04092,-1.11036 -1.10248,-1.0488 -0.15517,0.15517 2.21054,3.76165 3.66784,5.59157 0.66183,0.83106 1.20333,1.6764 1.20333,1.87854 0,0.62331 1.55281,2.61003 3.50297,4.48181 1.0234,0.98226 1.95841,1.78593 2.0778,1.78593 0.11939,0 0.72353,0.46765 1.34254,1.03922 0.61901,0.57158 1.66598,1.30529 2.3266,1.63048 0.66062,0.32518 1.69814,0.92862 2.3056,1.34096 0.60745,0.41235 1.38136,0.86897 1.71979,1.01473 0.61563,0.26515 0.94698,0.44009 1.93825,1.02337 0.29104,0.17125 1.39236,0.73224 2.44739,1.24664 1.05503,0.5144 1.91823,0.98539 1.91823,1.04666 0,0.45497 -2.91847,-0.74486 -9.525,-3.91592 -0.90626,-0.43499 -2.07278,-1.26039 -2.83233,-2.00408 -0.46023,-0.45062 -0.81145,-0.57609 -1.28203,-0.45798 -0.35648,0.0895 -0.64814,0.0621 -0.64814,-0.0607 0,-0.12289 -0.74414,-0.83396 -1.65365,-1.58016 -0.90951,-0.74621 -2.5888,-2.25528 -3.73176,-3.35349 -1.14296,-1.09822 -2.19149,-1.99676 -2.33006,-1.99676 -0.43994,0 0.64783,1.55733 1.97859,2.83268 0.70637,0.67696 1.57824,1.61619 1.93748,2.08718 0.35924,0.47099 1.3313,1.31287 2.16013,1.87085 0.82884,0.55797 2.11311,1.46098 2.85394,2.00669 0.74082,0.5457 1.41079,0.99218 1.4888,0.99218 0.078,0 1.37688,0.68577 2.88637,1.52392 1.5095,0.83816 3.30373,1.81685 3.9872,2.17488 0.68346,0.35802 1.19745,0.69615 1.1422,0.7514 -0.33632,0.33633 -6.3421,-2.4554 -9.43129,-4.38405 -0.52444,-0.32742 -1.19132,-0.59531 -1.48194,-0.59531 -0.29062,0 -0.81319,-0.20836 -1.16127,-0.46302 -1.09769,-0.80309 -1.79047,-1.12131 -1.93435,-0.88852 -0.11563,0.1871 2.55034,2.40987 2.89037,2.40987 0.12819,0 2.5889,1.62696 2.78049,1.83839 0.0728,0.0803 0.8169,0.488 1.65365,0.90603 0.83674,0.41802 1.52135,0.87908 1.52135,1.02458 0,0.17631 -0.11031,0.17629 -0.33073,-5e-5 -0.1819,-0.14553 -0.62838,-0.35511 -0.99219,-0.46573 -1.23566,-0.37571 -3.53616,-1.50986 -4.90174,-2.41655 -0.83201,-0.55242 -1.5295,-0.83889 -1.79474,-0.73711 -0.24063,0.0923 -0.82998,-0.0783 -1.32334,-0.38326 -0.93651,-0.57879 -3.62159,-3.28675 -3.62221,-3.65307 -6.7e-4,-0.39089 -2.09104,-2.57669 -2.28179,-2.38594 -0.10301,0.10301 -0.0647,0.18729 0.0851,0.18729 0.14979,0 0.64289,0.75267 1.09577,1.67259 0.78116,1.58676 1.55071,2.40064 4.16586,4.40582 2.2053,1.69093 6.39371,4.19762 7.05577,4.22276 0.25466,0.01 0.46302,0.19618 0.46302,0.41446 0,0.487 -0.10046,0.49025 -1.15064,0.0372 -1.92714,-0.83141 -2.35307,-0.96322 -3.11254,-0.96322 -1.12769,0 -1.70936,-0.36405 -3.75726,-2.35151 -2.46501,-2.39228 -2.48687,-2.41099 -2.81689,-2.41099 -0.16048,0 -0.35411,-0.16244 -0.4303,-0.36096 -0.0762,-0.19853 -0.78545,-0.68829 -1.57616,-1.08835 -1.31548,-0.66557 -2.61928,-2.09546 -2.45753,-2.6952 0.0328,-0.12161 -0.4489,-1.21834 -1.07045,-2.43718 -0.82303,-1.61395 -1.05086,-2.29527 -0.83854,-2.50759 0.38199,-0.38199 1.16759,0.0926 1.29647,0.78326 0.0514,0.27545 0.25049,0.6794 0.44241,0.89768 0.19192,0.21828 0.43066,0.7243 0.53054,1.12448 0.15349,0.61504 0.32042,0.72761 1.07894,0.72761 0.49355,0 0.89736,-0.0683 0.89736,-0.15183 0,-0.24753 -2.82991,-3.55412 -4.58731,-5.36 -1.60074,-1.6449 -1.62971,-1.70079 -1.59288,-3.07276 0.0376,-1.40081 0.43185,-2.52791 0.8842,-2.52791 0.6209,0 2.44161,2.39914 2.50991,3.30729 0.0575,0.76445 0.98471,3.30729 1.20597,3.30729 0.14146,0 0.2572,0.12388 0.2572,0.2753 0,1.03578 6.06487,7.86965 6.6585,7.50276 0.1236,-0.0764 0.075,-0.29226 -0.10804,-0.47973 -0.18301,-0.18746 -0.76793,-0.86448 -1.29981,-1.50448 -0.53188,-0.64 -1.22678,-1.4613 -1.54422,-1.8251 -1.90649,-2.18489 -2.35488,-2.88664 -4.64906,-7.27604 -0.76058,-1.45521 -1.56416,-2.98725 -1.78574,-3.40453 -0.22157,-0.41728 -1.23831,-1.54837 -2.25941,-2.51354 -2.40379,-2.27212 -3.00263,-3.84879 -2.00358,-5.27514 0.39211,-0.55981 0.36844,-0.66861 -0.39687,-1.82402 -0.98007,-1.47963 -1.10453,-3.36638 -0.32316,-4.89898 0.29929,-0.58705 0.40408,-1.09909 0.26863,-1.31271 -0.12213,-0.19264 -0.22388,-0.64463 -0.22611,-1.00443 -0.004,-0.63075 -0.0169,-0.63549 -0.36145,-0.13229 -0.19657,0.28704 -0.44172,0.86824 -0.54476,1.29155 -0.16615,0.68248 -0.90523,1.50981 -2.685256,3.00586 -0.7644,0.64245 -2.41078,1.38385 -3.07302,1.38385 -0.3064,0 -1.13758,-0.35718 -1.84709,-0.79375 -0.7095,-0.43656 -1.39454,-0.79375 -1.52231,-0.79375 -0.41113,0 -0.63417,0.88179 -0.7027,2.77813 -0.0368,1.01865 -0.24376,2.50693 -0.45987,3.30729 -0.45409,1.68175 -2.13787,4.41038 -2.86371,4.64075 -0.27278,0.0866 -0.49597,0.27427 -0.49597,0.4171 0,0.51065 -2.23761,1.28048 -3.73891,1.28634 -1.38343,0.005 -1.53948,0.0708 -2.18281,0.9142 -0.38107,0.49961 -0.69286,1.03539 -0.69286,1.19062 0,0.15523 -0.17859,0.28224 -0.39687,0.28224 -0.21829,0 -0.39688,0.17554 -0.39688,0.39008 0,0.21455 -0.3277,0.55954 -0.72823,0.76666 -0.40052,0.20712 -0.92116,0.59713 -1.15697,0.86669 -0.58773,0.67185 -0.99482,2.76065 -0.98031,5.02994 0.0162,2.52447 -0.93404,4.45533 -3.74621,7.61264 -1.15752,1.29959 -2.29029,2.75423 -2.51726,3.23253 -0.23743,0.50035 -1.02027,1.27294 -1.84349,1.81937 -0.78696,0.52235 -1.9003,1.41919 -2.47409,1.99299 -0.5738,0.5738 -1.16783,1.04327 -1.32008,1.04327 -0.15225,0 -0.47345,0.19664 -0.71379,0.43698 -0.31478,0.31477 -0.99237,0.4543 -2.42281,0.49891 -1.16569,0.0363 -1.88822,-0.0357 -1.74949,-0.17441 z m 64.666956,-13.13075 c -0.13647,-0.25467 -0.61691,-0.79137 -1.06764,-1.19267 -0.45072,-0.4013 -0.8195,-0.83977 -0.8195,-0.97436 0,-0.13459 -0.23812,-0.32029 -0.52917,-0.41266 -0.29104,-0.0924 -0.52916,-0.37979 -0.52916,-0.6387 0,-0.25891 -0.41466,-0.8977 -0.92145,-1.41954 -1.76545,-1.81782 -3.67718,-5.74697 -2.79619,-5.74697 0.38112,0 1.53587,1.62405 1.74197,2.4499 0.10021,0.40155 0.28808,0.79553 0.41748,0.87551 0.50538,0.31234 0.19283,-0.92977 -0.67954,-2.70056 -0.50314,-1.02131 -0.96501,-2.26432 -1.02638,-2.76224 -0.0614,-0.49793 -0.2468,-1.2452 -0.41209,-1.66061 -0.24315,-0.61111 -0.4177,-0.72587 -0.91441,-0.60121 -0.33764,0.0847 -1.46093,0.2328 -2.49619,0.32902 l -1.8823,0.17494 0.55463,1.08773 c 0.30504,0.59825 1.23358,1.9807 2.06342,3.0721 0.82984,1.09141 1.70285,2.36062 1.94003,2.82046 0.23717,0.45985 0.83519,1.17422 1.32892,1.5875 0.49373,0.41328 1.08223,1.11449 1.30779,1.55824 0.35822,0.70478 2.01506,2.3245 4.15556,4.06246 0.81716,0.6635 0.87579,0.67302 0.56422,0.0917 z m 3.14994,-0.87065 c -0.50383,-0.43065 -1.01504,-0.783 -1.13603,-0.783 -0.12099,0 -0.54099,-0.29766 -0.93333,-0.66146 -0.39234,-0.3638 -0.86915,-0.66146 -1.05955,-0.66146 -0.19042,0 -1.1739,-0.84763 -2.18552,-1.88362 -1.01163,-1.036 -1.83932,-1.76453 -1.83932,-1.61895 0,0.37706 3.10668,3.53883 4.36563,4.44305 0.58208,0.41808 1.21566,0.91328 1.40796,1.10045 0.19229,0.18718 0.51972,0.34032 0.7276,0.34032 0.20789,0 0.37798,0.11907 0.37798,0.26459 0,0.14552 0.26789,0.25974 0.59531,0.25383 0.54788,-0.01 0.52233,-0.0731 -0.32073,-0.79375 z m 0.894,-1.04023 c -0.71175,-0.72531 -1.94171,-1.14531 -1.56393,-0.53404 0.14319,0.23168 1.91945,1.27629 2.22538,1.30874 0.0606,0.006 -0.23702,-0.34218 -0.66145,-0.7747 z M 112.6085,171.3534 c -0.0883,-0.23018 -0.1606,-0.68276 -0.1606,-1.00573 0,-0.51651 -1.15853,-2.45919 -2.77813,-4.65849 -0.29104,-0.39521 -0.87241,-1.21234 -1.29193,-1.81583 -0.63024,-0.90664 -1.22161,-1.39631 -1.22161,-1.01154 0,0.19172 2.17766,4.29835 2.40282,4.53125 0.13366,0.13824 0.24302,0.45293 0.24302,0.6993 0,0.24636 0.17859,0.51647 0.39687,0.60023 0.21828,0.0838 0.39688,0.33463 0.39688,0.55748 0,0.22285 0.0971,0.40518 0.21586,0.40518 0.11872,0 0.48353,0.47625 0.81068,1.05833 0.57217,1.01805 1.31663,1.50106 0.98614,0.63982 z m 11.48107,-5.40232 c 0,-0.14552 -0.12609,-0.26458 -0.2802,-0.26458 -0.15411,0 -0.20661,0.11906 -0.11667,0.26458 0.0899,0.14552 0.21602,0.26458 0.28019,0.26458 0.0642,0 0.11668,-0.11906 0.11668,-0.26458 z m -13.02599,-1.5875 c -0.18176,-0.29104 -0.43935,-0.52917 -0.57242,-0.52917 -0.13307,0 -0.0264,0.23813 0.23695,0.52917 0.26339,0.29104 0.52097,0.52917 0.57241,0.52917 0.0514,0 -0.0552,-0.23813 -0.23694,-0.52917 z m -0.89999,-1.83042 c -0.0942,-0.47113 -0.58367,-1.29382 -1.08765,-1.8282 -0.50398,-0.53437 -0.89504,-1.00433 -0.86901,-1.04435 0.14825,-0.22794 -0.2223,-0.68555 -0.4115,-0.50816 -0.12485,0.11705 -0.0519,0.32359 0.16221,0.45897 0.21407,0.13538 0.27611,0.24796 0.13786,0.25019 -0.13824,0.002 -0.10848,0.14693 0.0662,0.32155 0.17462,0.17463 0.3175,0.53182 0.3175,0.79375 0,0.26194 0.11906,0.47625 0.26458,0.47625 0.14552,0 0.26459,0.1786 0.26459,0.39688 0,0.21828 0.11906,0.39687 0.26458,0.39687 0.14552,0 0.26458,0.15479 0.26458,0.34396 0,0.35001 0.55573,1.04059 0.7118,0.88452 0.0471,-0.0471 0.009,-0.4711 -0.0857,-0.94223 z m 1.87126,-2.99822 c -0.20083,-0.76399 -0.49238,-1.62809 -0.64789,-1.92023 -0.32509,-0.61073 -2.0541,-1.86595 -2.27121,-1.64884 -0.20619,0.20618 1.02383,2.04048 1.37092,2.04444 0.15826,0.002 0.56456,0.65811 0.9029,1.45848 0.77918,1.84323 1.12166,1.87834 0.64528,0.0661 z m -31.277106,32.19353 c 0.2512,-0.263 0.52929,-0.40562 0.61798,-0.31693 0.0887,0.0887 -0.11684,0.30387 -0.45672,0.47818 -0.59078,0.30298 -0.59788,0.29588 -0.16126,-0.16125 z m 31.558936,-0.51488 c -0.43598,-0.35619 -1.44801,-0.90563 -2.24896,-1.22097 -1.39439,-0.54899 -2.52249,-1.28737 -1.96683,-1.28737 0.14537,0 0.96991,0.248 1.83232,0.55111 1.68808,0.59331 4.55167,2.63116 3.67373,2.61437 -0.27367,-0.005 -0.85429,-0.30095 -1.29026,-0.65714 z m -5.82306,0.13562 c -0.17946,-0.29037 0.26268,-0.49556 0.99334,-0.461 0.25466,0.012 0.46302,0.18065 0.46302,0.37468 0,0.41076 -1.21146,0.48257 -1.45636,0.0863 z M 82.285404,190.4146 c 0,-0.21254 0.16867,-0.38644 0.37482,-0.38644 0.20616,0 0.41452,-0.10064 0.46302,-0.22365 0.11465,-0.29073 1.54746,-0.64342 1.53036,-0.3767 -0.007,0.11191 -0.54296,0.46667 -1.19063,0.78835 -0.94201,0.46788 -1.17757,0.50757 -1.17757,0.19844 z m 32.146866,0.14273 c -0.20695,-0.33486 0.14331,-0.33486 0.66146,0 0.34203,0.22103 0.33504,0.25704 -0.0505,0.26053 -0.24607,0.002 -0.52099,-0.11501 -0.61093,-0.26053 z m 2.64584,-0.26475 c -0.58209,-0.27307 -1.44529,-0.65194 -1.91823,-0.84192 -0.47294,-0.18998 -0.8599,-0.48437 -0.8599,-0.65419 0,-0.16982 -0.36555,-0.61636 -0.81234,-0.99231 -0.55009,-0.46287 -0.78498,-0.87445 -0.7276,-1.27491 0.0812,-0.56652 0.12919,-0.55139 1.14307,0.36033 0.58208,0.52344 1.32312,1.03407 1.64674,1.13474 0.32363,0.10067 0.83153,0.49212 1.12868,0.86988 0.29715,0.37777 0.9187,0.96604 1.38123,1.30728 1.00089,0.73844 0.49773,0.78514 -0.98165,0.0911 z M 94.507334,189.7396 c 0.0678,-0.20509 0.80285,-0.72142 1.6334,-1.1474 1.42927,-0.73304 1.53436,-0.75007 1.96332,-0.3181 0.42813,0.43112 0.4166,0.48467 -0.20824,0.96705 -0.37215,0.28731 -1.08595,0.51324 -1.632,0.51655 -0.5338,0.003 -1.17513,0.0844 -1.42517,0.18033 -0.31914,0.12247 -0.41787,0.0633 -0.33131,-0.19843 z m 17.584456,-0.62008 c -0.65472,-0.49976 -1.54925,-1.09422 -1.98786,-1.32104 -0.83901,-0.43386 -1.2442,-0.88492 -1.00754,-1.12158 0.25919,-0.25919 1.9381,0.44686 2.47979,1.04285 0.29424,0.32374 0.90841,0.88497 1.36481,1.24718 0.82654,0.65594 1.05015,1.06123 0.58551,1.06123 -0.13438,0 -0.77999,-0.40889 -1.43471,-0.90864 z m -19.752226,-1.15511 c 0,-0.40974 0.64173,-0.84666 1.24355,-0.84666 0.74188,0 0.7927,0.41198 0.0968,0.78444 -0.60839,0.3256 -1.34032,0.35958 -1.34032,0.0622 z m -9.26041,-0.27503 c 0,-0.2307 1.15854,-0.83622 1.59995,-0.83622 0.57095,0 0.19446,0.49751 -0.5811,0.76787 -0.99997,0.34859 -1.01885,0.34986 -1.01885,0.0683 z m 15.14739,-0.78847 c -0.81682,-0.11601 -0.74614,-0.45024 0.17599,-0.8322 1.29738,-0.53739 2.575276,-0.74384 3.029796,-0.48948 0.64754,0.36239 0.52722,0.67624 -0.42766,1.11555 -0.80727,0.3714 -1.337446,0.41074 -2.778126,0.20613 z m -32.74218,-2.16441 c 0.0899,-0.14552 0.21602,-0.26459 0.28019,-0.26459 0.0642,0 0.11668,0.11907 0.11668,0.26459 0,0.14552 -0.12609,0.26458 -0.2802,0.26458 -0.15411,0 -0.20661,-0.11906 -0.11667,-0.26458 z m 0.92604,-0.28156 c 0,-0.30261 0.70399,-0.48064 2.4438,-0.61802 0.83477,-0.0659 1.58594,-0.01 1.66926,0.12528 0.0833,0.13482 -0.15318,0.24513 -0.52557,0.24513 -0.37239,0 -0.67708,0.1185 -0.67708,0.26333 0,0.14686 -0.6436,0.24849 -1.4552,0.22978 -0.80037,-0.0185 -1.45521,-0.12892 -1.45521,-0.2455 z m 82.321476,-0.67286 c -0.67467,-0.30665 -1.67943,-0.64064 -2.23278,-0.7422 -1.06524,-0.19552 -1.56849,-0.84794 -0.95069,-1.23247 0.20311,-0.12642 0.66365,-0.17702 1.02342,-0.11245 0.43759,0.0786 0.87553,-0.0883 1.32292,-0.50409 1.17434,-1.09133 2.84579,-1.0367 4.54912,0.14867 0.38793,0.26998 1.07061,0.56392 1.51706,0.65321 0.44644,0.0893 0.74868,0.26435 0.67163,0.38902 -0.16636,0.26917 -2.40924,0.12301 -4.08466,-0.26618 -1.12506,-0.26134 -3.29076,-0.3628 -2.32419,-0.10888 0.24967,0.0656 0.81844,0.45975 1.26393,0.8759 0.4455,0.41616 1.1626,0.8341 1.59356,0.92875 0.43095,0.0947 0.85367,0.28556 0.93937,0.42423 0.27435,0.44389 -2.00616,0.12941 -3.28869,-0.45351 z m -82.421866,-1.61541 c -0.0958,-0.0958 0.50312,-0.44976 1.33096,-0.78656 1.55183,-0.63135 3.26734,-0.81395 3.26734,-0.34778 0,0.14552 -0.0893,0.27978 -0.19843,0.29835 -0.10914,0.0186 -0.43657,0.074 -0.72761,0.12306 -1.22568,0.20681 -3.09333,0.63698 -3.28806,0.75733 -0.1155,0.0714 -0.28839,0.0514 -0.3842,-0.0444 z m 87.555166,-0.95326 c -0.42445,-0.31754 -0.45918,-0.46069 -0.19036,-0.78461 0.57422,-0.69188 1.61373,-0.71284 2.38602,-0.0481 0.38762,0.33364 0.62531,0.68629 0.52819,0.78367 -0.39597,0.397 -2.21495,0.42975 -2.72385,0.049 z m -82.427696,-0.18108 c 0,-0.14552 0.12609,-0.26458 0.2802,-0.26458 0.15411,0 0.20661,0.11906 0.11668,0.26458 -0.0899,0.14552 -0.21603,0.26458 -0.2802,0.26458 -0.0642,0 -0.11668,-0.11906 -0.11668,-0.26458 z m 87.607686,-0.36 c -0.54933,-0.66191 -0.081,-1.03935 1.09407,-0.88174 1.00145,0.13432 1.76445,0.55748 1.49359,0.82834 -0.0685,0.0685 -0.60211,0.20095 -1.18575,0.29427 -0.7918,0.12662 -1.14766,0.0655 -1.40191,-0.24087 z m -57.82584,-0.14291 c -0.4343,-0.70272 0.77536,-1.6017 2.16659,-1.61014 0.7316,-0.004 0.82671,0.91486 0.13229,1.27869 -0.81063,0.42471 -2.12419,0.6141 -2.29888,0.33145 z m -35.053896,-0.93793 c 0.85946,-0.82509 5.07011,-1.68392 4.61059,-0.94041 -0.0899,0.14552 -0.48391,0.26549 -0.87551,0.2666 -0.39159,0.001 -1.47707,0.23467 -2.41216,0.519 -1.21357,0.36902 -1.5922,0.41333 -1.32292,0.15481 z m -0.0196,-2.45521 c 0,-0.32461 1.81237,-0.88018 1.98104,-0.60728 0.0712,0.11522 -0.13704,0.26732 -0.46277,0.33801 -0.32572,0.0707 -0.80058,0.2161 -1.05525,0.32315 -0.25466,0.10704 -0.46302,0.0828 -0.46302,-0.0539 z m 2.49642,-0.62958 c -0.0925,-0.14964 -0.11175,-0.32848 -0.0428,-0.39742 0.19761,-0.19761 2.94764,-0.5921 3.17311,-0.45518 0.40229,0.24431 -0.11805,0.61573 -0.86261,0.61573 -0.4185,0 -1.0621,0.11451 -1.43022,0.25447 -0.44355,0.16864 -0.72604,0.1627 -0.83747,-0.0176 z m 67.353586,-1.03062 c 0,-0.14552 0.1786,-0.26458 0.39688,-0.26458 0.21828,0 0.39687,0.11906 0.39687,0.26458 0,0.14552 -0.17859,0.26458 -0.39687,0.26458 -0.21829,0 -0.39688,-0.11906 -0.39688,-0.26458 z m -69.430296,-1.03183 c 0.4961,-0.44914 2.05654,-0.83109 2.31981,-0.56782 0.30062,0.30062 -0.001,0.42761 -1.52606,0.64145 -0.56952,0.0799 -0.92671,0.0467 -0.79375,-0.0736 z m 3.14644,-0.57856 c -0.60918,-0.238 -0.6155,-0.23526 0.90818,-0.3925 2.13689,-0.22052 5.84442,-0.2809 5.84442,-0.0952 0,0.40257 -2.38169,0.77773 -3.43496,0.54108 -0.58526,-0.1315 -1.45338,-0.1513 -1.92916,-0.044 -0.47577,0.10731 -1.10059,0.10308 -1.38848,-0.009 z m 21.0401,-4.43218 c 0,-0.47138 1.58387,-1.42177 2.43432,-1.46069 0.91556,-0.0419 1.14731,0.28133 0.66073,0.92156 -0.37694,0.49598 -3.09505,0.96944 -3.09505,0.53913 z m -20.10833,-0.30012 c 0,-0.35866 0.47019,-0.58137 0.64166,-0.30393 0.082,0.13264 -0.0289,0.30944 -0.2463,0.39288 -0.21745,0.0834 -0.39536,0.0434 -0.39536,-0.089 z m 1.45521,-3.18231 c 0.0899,-0.14552 0.46118,-0.26458 0.82498,-0.26458 0.3736,0 0.59029,0.11514 0.49794,0.26458 -0.0899,0.14552 -0.46118,0.26458 -0.82498,0.26458 -0.3736,0 -0.5903,-0.11514 -0.49794,-0.26458 z m 1.85208,-0.26458 c 0.0899,-0.14552 0.40165,-0.26459 0.69269,-0.26459 0.29104,0 0.45558,0.11907 0.36565,0.26459 -0.0899,0.14552 -0.40165,0.26458 -0.69269,0.26458 -0.29104,0 -0.45558,-0.11906 -0.36565,-0.26458 z m -2.77812,-2.11667 c 0,-0.14552 0.18562,-0.26458 0.41249,-0.26458 0.22687,0 0.3389,0.11906 0.24897,0.26458 -0.0899,0.14552 -0.27556,0.26458 -0.41249,0.26458 -0.13694,0 -0.24897,-0.11906 -0.24897,-0.26458 z m 1.47234,-0.23686 c -0.0805,-0.13027 0.0277,-0.30366 0.2405,-0.38532 0.41345,-0.15866 0.76656,0.17125 0.48483,0.45298 -0.23919,0.23919 -0.55383,0.20984 -0.72533,-0.0677 z m 1.57037,-0.29231 c -0.0899,-0.14552 0.0221,-0.26458 0.24896,-0.26458 0.22687,0 0.41249,0.11906 0.41249,0.26458 0,0.14552 -0.11203,0.26459 -0.24896,0.26459 -0.13694,0 -0.32256,-0.11907 -0.41249,-0.26459 z m 0.73442,-2.73279 c 0.1267,-0.38056 0.98537,-0.57914 0.98537,-0.22788 0,0.13922 -0.24493,0.31717 -0.54428,0.39545 -0.34623,0.0905 -0.50673,0.0296 -0.44109,-0.16757 z m 6.19449,0.15783 c -0.62621,-0.065 -0.96893,-0.22373 -0.90399,-0.41855 0.0575,-0.17258 0.2435,-0.30187 0.41327,-0.28732 0.16977,0.0145 0.58358,0.0443 0.91957,0.0661 0.33599,0.0218 0.842,0.21449 1.12448,0.42814 0.58193,0.44016 0.61021,0.43631 -1.55333,0.21158 z m -4.81704,-0.34321 c -0.19686,-0.31853 0.66877,-0.5463 1.11887,-0.2944 0.32313,0.18083 0.26253,0.25549 -0.29363,0.36181 -0.38543,0.0737 -0.75679,0.0433 -0.82524,-0.0674 z m 2.09953,-0.22134 c 0.13173,-0.21314 1.47714,-0.0969 1.47714,0.12765 0,0.0558 -0.36422,0.10145 -0.80937,0.10145 -0.44515,0 -0.74565,-0.1031 -0.66777,-0.2291 z m -0.63953,-2.68132 c 0,-0.14552 0.11906,-0.26458 0.26458,-0.26458 0.14552,0 0.26459,0.11906 0.26459,0.26458 0,0.14552 -0.11907,0.26458 -0.26459,0.26458 -0.14552,0 -0.26458,-0.11906 -0.26458,-0.26458 z m 5.75469,0.0822 c -0.25466,-0.0666 -0.46302,-0.23961 -0.46302,-0.38458 0,-0.37417 1.12675,-0.16259 1.25809,0.23624 0.11168,0.33911 0.009,0.35835 -0.79507,0.14834 z m -3.2632,-0.31111 c 0.0778,-0.12589 0.45254,-0.19475 0.83273,-0.15302 1.09098,0.11976 1.09891,0.38193 0.0115,0.38193 -0.54216,0 -0.92209,-0.10301 -0.84428,-0.22891 z m -12.01649,-1.19799 c 0,-0.25099 0.792,-0.37749 0.93318,-0.14904 0.086,0.13916 -0.0888,0.25302 -0.3884,0.25302 -0.29963,0 -0.54478,-0.0468 -0.54478,-0.10398 z m 1.32292,-0.17458 c 0,-0.32189 0.65779,-0.6046 1.07961,-0.46399 0.16683,0.0556 -0.008,0.24288 -0.38815,0.41616 -0.43394,0.19771 -0.69146,0.21553 -0.69146,0.0478 z m 7.9375,0.014 c 0,-0.14552 0.12609,-0.26458 0.2802,-0.26458 0.1541,0 0.20661,0.11906 0.11667,0.26458 -0.0899,0.14552 -0.21602,0.26458 -0.2802,0.26458 -0.0642,0 -0.11667,-0.11906 -0.11667,-0.26458 z m 1.3582,-0.39957 c 0.5925,-0.61127 3.76691,-1.2412 5.24664,-1.04115 3.19067,0.43137 2.7998,0.78992 -0.79901,0.73295 -2.0946,-0.0332 -3.20326,0.0674 -3.90275,0.35387 -0.91527,0.37489 -0.94972,0.372 -0.54488,-0.0457 z m 8.29909,0.13585 c -0.66522,-0.13598 -0.70806,-0.18674 -0.26458,-0.31344 0.89493,-0.25568 3.417,-0.22463 3.83645,0.0472 0.33092,0.21448 0.30894,0.26266 -0.13229,0.28986 -2.01454,0.12418 -2.74077,0.11919 -3.43958,-0.0237 z m 34.517106,-1.73393 c -0.28069,-0.33821 -0.26614,-0.48442 0.0829,-0.8335 0.37304,-0.37305 0.61399,-0.38289 2.02779,-0.0829 1.01182,0.21472 1.60445,0.47372 1.60445,0.70121 0,0.19839 -0.23813,0.36072 -0.52917,0.36072 -0.29104,0 -0.52917,-0.12582 -0.52917,-0.27959 0,-0.15671 -0.25843,-0.0986 -0.58803,0.13229 -0.75071,0.52582 -1.63325,0.52655 -2.06882,0.002 z M 65.731474,153.544 c 0.0996,-0.16108 0.46461,-0.29288 0.81124,-0.29288 0.34662,0 0.70381,-0.11906 0.79375,-0.26458 0.0899,-0.14552 0.77165,-0.26459 1.51492,-0.26459 0.74327,0 1.29911,0.0523 1.23519,0.11621 -0.11782,0.11783 -1.21843,0.37957 -2.26638,0.53899 -0.31603,0.0481 -0.956,0.17118 -1.42216,0.27357 -0.59122,0.12985 -0.79282,0.0976 -0.66656,-0.10672 z m 49.560716,-0.47526 c -0.54981,-0.14368 -0.57793,-0.35309 -0.1297,-0.96607 0.28286,-0.38684 0.46308,-0.4106 1.19062,-0.15698 0.47152,0.16438 0.85731,0.38717 0.85731,0.49509 0,0.16885 -1.25181,0.86522 -1.40151,0.77965 -0.0295,-0.0169 -0.26206,-0.0851 -0.51672,-0.15169 z m -52.453646,-0.81208 c 0.39975,-0.41202 1.98438,-0.69109 1.98438,-0.34948 0,0.15709 -0.20836,0.28723 -0.46302,0.28922 -0.25467,0.002 -0.76068,0.0777 -1.12448,0.16829 -0.45136,0.11237 -0.57742,0.078 -0.39688,-0.10803 z m 26.72292,-0.0458 c -0.29104,-0.11516 -0.678,-0.15358 -0.8599,-0.0854 -0.36743,0.13774 -0.45977,-0.35081 -0.10746,-0.56856 0.29706,-0.18359 2.09651,0.32241 2.29633,0.64572 0.18597,0.30091 -0.57731,0.30563 -1.32897,0.008 z m -5.61479,-0.44455 c 0.0934,-0.0934 0.65082,-0.25781 1.23868,-0.3653 0.76494,-0.13988 1.06882,-0.10491 1.06882,0.123 0,0.19619 -0.47555,0.33644 -1.23868,0.3653 -0.68127,0.0258 -1.16224,-0.0296 -1.06882,-0.123 z m 2.83666,-0.10264 c 0,-0.14552 0.11907,-0.26458 0.26459,-0.26458 0.14552,0 0.26458,0.11906 0.26458,0.26458 0,0.14552 -0.11906,0.26458 -0.26458,0.26458 -0.14552,0 -0.26459,-0.11906 -0.26459,-0.26458 z m 0.79375,0 c 0,-0.14552 0.11907,-0.26458 0.26459,-0.26458 0.14552,0 0.26458,0.11906 0.26458,0.26458 0,0.14552 -0.11906,0.26458 -0.26458,0.26458 -0.14552,0 -0.26459,-0.11906 -0.26459,-0.26458 z m -18.52083,-1.71979 c 0.36307,-0.43747 1.20846,-0.53154 1.43807,-0.16002 0.17022,0.27541 -0.45024,0.55689 -1.22752,0.55689 -0.44994,0 -0.48503,-0.0661 -0.21055,-0.39687 z m 7.27604,-0.15478 c 2.31823,-2.72353 3.78214,-3.91 4.3734,-3.54458 0.47387,0.29286 0.26297,0.90516 -0.47079,1.36681 -0.40019,0.25178 -1.07093,0.73647 -1.49054,1.07708 -0.41962,0.34062 -1.25305,0.8675 -1.85209,1.17084 l -1.08914,0.55154 z m -14.00406,-0.23449 c 0.39498,-0.39498 1.49598,-0.44487 1.62767,-0.0738 0.0805,0.22698 -0.19663,0.33073 -0.88364,0.33073 -0.64759,0 -0.91028,-0.0907 -0.74403,-0.25698 z m 1.96552,-0.27219 c 0,-0.14552 0.17859,-0.26458 0.39688,-0.26458 0.21828,0 0.39687,0.11906 0.39687,0.26458 0,0.14552 -0.17859,0.26458 -0.39687,0.26458 -0.21829,0 -0.39688,-0.11906 -0.39688,-0.26458 z m 20.67293,-0.1374 c 0.38329,-0.20707 1.33579,-0.42894 2.11667,-0.49306 0.78088,-0.0641 1.5567,-0.15685 1.72405,-0.20608 0.16735,-0.0492 0.31391,0.0296 0.32569,0.17508 0.0282,0.34837 -0.75832,0.54126 -3.01121,0.73844 -1.70371,0.14911 -1.79626,0.13194 -1.1552,-0.21438 z m -18.0271,-0.0885 c 0,-0.40481 1.65122,-2.15534 2.03306,-2.15534 0.61222,0 0.37858,0.39171 -0.84243,1.41235 -0.65485,0.54738 -1.19063,0.88173 -1.19063,0.74299 z m 22.75545,-0.23711 c -7.4e-4,-0.19137 0.33318,-0.33073 0.79247,-0.33073 0.43656,0 0.79375,0.0984 0.79375,0.21876 0,0.12032 0.34309,0.16841 0.76242,0.10686 0.41933,-0.0615 0.84593,0.0232 0.948,0.18837 0.13291,0.21507 -0.3083,0.2786 -1.55489,0.22387 -1.17435,-0.0516 -1.74088,-0.18397 -1.74175,-0.40713 z m 20.107056,-0.0661 c 0,-0.14552 -0.14883,-0.26807 -0.33073,-0.27233 -0.79565,-0.0187 -3.04477,-2.62878 -2.71917,-3.15561 0.37436,-0.60573 0.9666,-0.19999 2.01056,1.37742 0.60193,0.90951 1.20108,1.69334 1.33146,1.74184 0.3229,0.12014 0.30113,0.57327 -0.0275,0.57327 -0.14552,0 -0.26458,-0.11906 -0.26458,-0.26459 z m 1.7079,-1.16886 c -1.02616,-0.54308 -2.40981,-1.87765 -3.31433,-3.19676 -0.49891,-0.7276 -1.05594,-1.41813 -1.23785,-1.5345 -0.1819,-0.11637 -0.33072,-0.3847 -0.33072,-0.59627 0,-0.21158 -0.23813,-0.82898 -0.52917,-1.372 -0.6313,-1.17786 -0.66953,-1.65661 -0.13229,-1.65661 0.96797,0 -0.19004,-1.87634 -2.06685,-3.34897 -2.07969,-1.6318 -3.87871,-3.4 -3.912596,-3.84558 -0.0145,-0.19034 -0.0713,-0.83977 -0.12623,-1.44319 -0.065,-0.71423 0.0274,-1.20273 0.264736,-1.39974 0.29641,-0.24599 0.0211,-0.6339 -1.471036,-2.07283 -1.00963,-0.97362 -2.00989,-1.8677 -2.2228,-1.98685 -0.2129,-0.11914 -0.38916,-0.35954 -0.39167,-0.53421 -0.003,-0.17467 -0.28411,-0.58251 -0.62577,-0.90632 -0.55669,-0.52759 -0.94615,-1.77004 -0.95425,-3.04424 -0.002,-0.26918 0.26978,-0.52642 0.65855,-0.624 0.3638,-0.0913 0.66146,-0.25386 0.66146,-0.36122 0,-0.10737 -0.54847,-0.69436 -1.21882,-1.30443 -0.8804,-0.80123 -1.18115,-1.25325 -1.08317,-1.62793 0.23654,-0.90453 -0.23694,-0.80358 -1.39415,0.29725 -0.61733,0.58725 -1.17532,1.01483 -1.23998,0.95018 -0.0647,-0.0647 -0.67712,0.0218 -1.36103,0.1922 -1.14525,0.28528 -1.29858,0.42392 -1.94109,1.75513 -0.38369,0.79496 -0.64213,1.5386 -0.57431,1.65253 0.18743,0.31491 -0.84163,1.98623 -2.05441,3.33659 -0.46275,0.51524 -1.36512,4.58775 -1.14413,5.16363 0.0775,0.20198 0.0129,0.44635 -0.14358,0.54305 -0.15647,0.0967 -0.35159,9.7e-4 -0.4336,-0.21275 -0.12316,-0.32095 -0.44414,-0.25481 -1.8444,0.38011 -1.89388,0.85872 -3.32956,1.05176 -2.76525,0.3718 0.18116,-0.21828 0.48709,-0.39687 0.67986,-0.39687 0.19276,0 0.92195,-0.30386 1.62042,-0.67524 0.69847,-0.37138 1.47867,-0.62065 1.73379,-0.55393 0.30343,0.0793 0.4651,-0.0303 0.46746,-0.31696 0.002,-0.24103 0.0754,-0.70614 0.16315,-1.03356 0.2118,-0.79032 -0.57842,-0.80291 -1.88827,-0.0301 -0.6963,0.41082 -1.03746,0.48579 -1.24884,0.27441 -0.21137,-0.21137 -0.0803,-0.36728 0.47987,-0.5707 0.42388,-0.15393 1.05334,-0.4245 1.39881,-0.60126 0.34546,-0.17677 0.81383,-0.32314 1.0408,-0.32527 0.24461,-0.002 0.50679,-0.36592 0.64374,-0.89279 0.26654,-1.02547 0.14908,-1.24318 -0.51532,-0.95518 -1.07259,0.46495 -2.50874,0.59258 -2.6362,0.23429 -0.0604,-0.1698 0.66583,-0.43178 1.77933,-0.64188 1.42092,-0.26811 2.08649,-0.54684 2.71941,-1.13886 l 0.83803,-0.78387 -2.97656,0.14283 c -2.36291,0.11339 -2.97656,0.0708 -2.97656,-0.20684 0,-0.42383 2.84312,-0.78101 4.75468,-0.59733 l 1.28715,0.12368 0.27286,-1.07501 c 0.15008,-0.59126 0.21392,-1.13396 0.14188,-1.206 -0.0721,-0.072 -0.78034,-0.10382 -1.57399,-0.0706 -0.79365,0.0332 -1.443,-0.0453 -1.443,-0.17446 0,-0.33191 1.90398,-0.59637 2.88335,-0.40049 0.85286,0.17057 0.83242,0.19799 0.92614,-1.24264 0.0148,-0.22804 0.51388,-0.91211 1.109,-1.52015 1.26783,-1.29538 2.89122,-1.73376 5.61154,-1.51533 1.05736,0.0849 1.60772,0.0387 1.50573,-0.12628 -0.0884,-0.14304 -0.33231,-0.26008 -0.542,-0.26008 -0.63313,0 -0.4256,-0.63496 0.34802,-1.06484 0.97457,-0.54154 2.85208,-0.28657 3.37371,0.45816 0.21042,0.30041 0.67807,0.62037 1.03923,0.71102 1.461846,0.3669 3.819986,1.66718 4.509376,2.48647 0.67783,0.80555 0.71457,0.96455 0.48908,2.11664 -0.28245,1.4431 -0.0255,2.5868 0.80159,3.568 0.46944,0.55691 0.88608,0.70423 2.41919,0.85537 1.01865,0.10042 1.97115,0.18616 2.11667,0.19053 0.14552,0.004 1.19001,-0.18774 2.32108,-0.42691 1.13108,-0.23917 2.38124,-0.35811 2.77813,-0.2643 1.56981,0.37102 2.43679,1.88325 2.43994,4.25584 8.1e-4,0.61162 0.10689,1.38553 0.23573,1.71979 0.12883,0.33427 0.43961,1.31471 0.69062,2.17874 0.30745,1.05838 0.77059,1.89251 1.41939,2.55642 0.52966,0.54199 1.55834,1.60429 2.28594,2.36067 0.85644,0.8903 1.976,1.68252 3.175,2.24669 2.65862,1.25097 3.0149,1.35868 4.7625,1.43978 0.82563,0.0383 0.94198,0.0962 0.52917,0.2633 -0.6179,0.25011 -2.67508,0.11585 -3.43958,-0.22447 -0.29104,-0.12956 -1.32892,-0.36944 -2.3064,-0.53307 -0.97748,-0.16363 -1.98951,-0.375 -2.24896,-0.4697 -0.4479,-0.1635 -0.44865,-0.14583 -0.0148,0.34973 0.25128,0.28706 1.50144,1.03646 2.77813,1.66532 3.51125,1.72956 3.63802,1.80536 3.72536,2.2274 0.1249,0.60359 -0.89365,0.78879 -1.64187,0.29854 -0.36231,-0.2374 -1.04247,-0.49211 -1.51145,-0.56602 -0.7428,-0.11707 -1.54082,-0.50502 -2.48413,-1.20765 -2.85452,-2.12622 -2.83277,-2.11477 -3.24103,-1.70652 -0.35244,0.35244 -0.30454,0.44424 0.43002,0.8241 0.45465,0.23511 0.82664,0.54348 0.82664,0.68526 0,0.36148 -0.10451,0.33365 -1.24164,-0.33076 -1.27506,-0.74499 -1.23914,-0.71729 -3.0876,-2.38099 -0.85312,-0.76785 -1.65124,-1.43392 -1.7736,-1.48017 -0.12237,-0.0462 -0.906,-1.17734 -1.74141,-2.51354 -2.59469,-4.15008 -4.63995,-6.53183 -6.69637,-7.79806 -0.3701,-0.22789 -1.1194,-0.83399 -1.66511,-1.34688 -1.19427,-1.12248 -1.2877,-0.78332 -0.19843,0.72037 0.43656,0.60265 0.79375,1.13394 0.79375,1.18064 0,0.0467 1.53377,1.63611 3.40838,3.53205 1.87462,1.89593 3.49801,3.73399 3.60754,4.08458 0.10953,0.35058 0.27643,0.69695 0.3709,0.76971 0.0945,0.0728 0.64396,0.71745 1.22111,1.43264 1.16297,1.44113 3.73079,4.06561 4.80312,4.9091 0.38095,0.29966 0.61818,0.61931 0.52716,0.71032 -0.16004,0.16005 -1.60872,-0.80601 -2.69342,-1.79613 -0.29104,-0.26566 -0.83698,-0.75325 -1.21319,-1.08353 -0.37621,-0.33029 -0.79293,-0.79151 -0.92604,-1.02495 -0.58883,-1.03261 -2.63088,-3.14745 -3.03913,-3.14745 -0.24713,0 -0.65877,-0.32742 -0.91476,-0.7276 -0.57071,-0.89216 -1.34097,-1.65364 -1.67272,-1.65364 -0.13604,0 -0.32241,-0.19564 -0.41417,-0.43475 -0.0917,-0.23911 -0.23558,-0.36599 -0.31961,-0.28196 -0.084,0.084 0.1569,0.55879 0.5354,1.05503 0.3785,0.49624 0.68818,1.03709 0.68818,1.2019 0,0.16481 0.29765,0.49469 0.66145,0.73306 0.36381,0.23838 0.66468,0.56854 0.66862,0.73371 0.008,0.34292 1.74999,2.28467 2.04943,2.28467 0.29179,0 0.89284,1.04574 0.74165,1.29038 -0.19662,0.31814 1.39588,1.888 3.0971,3.05308 0.83215,0.56989 1.51336,1.10567 1.51382,1.19062 4.5e-4,0.085 0.57062,0.1547 1.26706,0.155 1.05907,4.4e-4 1.41449,0.13909 2.17241,0.84742 0.49839,0.46579 0.85095,0.89412 0.78346,0.95184 -0.0675,0.0577 -1.07522,0.0336 -2.23938,-0.0537 -2.10693,-0.15789 -2.11667,-0.16204 -2.11667,-0.90334 0,-0.63126 -0.23021,-0.87312 -1.51107,-1.5875 -1.5681,-0.87458 -3.33425,-2.43786 -5.67517,-5.02329 -0.75098,-0.82942 -1.49818,-1.50803 -1.66044,-1.50803 -0.53467,0 0.51903,1.66512 2.06348,3.26085 1.4393,1.48708 1.83844,1.87425 4.13737,4.01324 l 1.05833,0.98471 -1.32291,-0.72562 c -0.72761,-0.39909 -1.56104,-0.93394 -1.85209,-1.18857 -0.29104,-0.25463 -0.79357,-0.54309 -1.11673,-0.64103 -0.32316,-0.0979 -1.03753,-0.66379 -1.5875,-1.25744 -0.54996,-0.59365 -1.31738,-1.37144 -1.70537,-1.72841 -0.388,-0.35697 -0.85514,-1.0252 -1.03811,-1.48494 -0.18296,-0.45975 -0.72872,-1.20916 -1.21279,-1.66535 -0.48407,-0.45619 -0.88012,-0.94762 -0.88012,-1.09208 0,-0.14446 -0.20089,-0.42605 -0.44641,-0.62577 -0.38352,-0.31196 -0.42368,-0.30721 -0.28503,0.0337 0.48625,1.19573 0.89739,1.84819 1.16578,1.85002 0.16612,0.001 0.37344,0.28654 0.46071,0.63424 0.22003,0.8767 2.43535,3.77716 3.86024,5.05414 0.65088,0.58331 1.66292,1.52812 2.24896,2.09957 0.89844,0.87608 1.3136,1.07388 2.64734,1.26135 2.48633,0.34948 4.16013,1.28947 2.18851,1.22905 -0.47294,-0.0145 -1.38105,0.11686 -2.01803,0.2919 -1.26349,0.34721 -1.5297,0.22263 -1.66373,-0.7786 -0.0699,-0.52182 -0.22818,-0.65134 -0.75001,-0.61354 -1.27062,0.092 -1.98939,-0.44284 -3.36432,-2.50362 -1.26289,-1.89285 -2.57677,-3.49742 -2.8638,-3.49742 -0.18132,0 1.54339,3.22579 2.05121,3.83646 1.60496,1.93001 2.89564,3.6151 2.81566,3.67607 -0.0517,0.0394 -0.33743,-0.0572 -0.63501,-0.21473 z m 9.66918,-9.63322 c 0,-0.27662 -2.20549,-2.69167 -2.45811,-2.69167 -0.43226,0 -0.11667,0.51405 1.02906,1.6762 1.24814,1.26602 1.42905,1.39458 1.42905,1.01547 z m -12.72831,-2.36094 c -1.30931,-1.80536 -2.03184,-2.53979 -2.74982,-2.79511 -0.31861,-0.1133 -0.0851,0.23497 0.58694,0.87526 0.61386,0.5849 1.24857,1.31096 1.41047,1.61348 0.40752,0.76145 1.35875,1.82773 1.63053,1.82773 0.12387,0 -0.27129,-0.68461 -0.87812,-1.52136 z m 8.57571,0.12833 c -0.99883,-1.0566 -3.40962,-4.70903 -3.92956,-5.95342 -0.21839,-0.52268 -0.38451,-1.76361 -0.38451,-2.87232 0,-1.07364 -0.0412,-1.95206 -0.0916,-1.95206 -0.0504,0 -0.47753,0.1925 -0.94918,0.42779 -0.77556,0.3869 -2.5168,0.53067 -3.82549,0.31585 -0.27538,-0.0452 -0.54859,0.0528 -0.60713,0.21783 -0.12134,0.34203 0.18295,0.64786 1.93913,1.94894 0.68747,0.50932 1.61511,1.3367 2.0614,1.83861 0.4463,0.50191 1.34724,1.47039 2.00208,2.15219 0.65484,0.6818 1.60057,1.81896 2.10161,2.52702 1.06187,1.50062 2.12621,2.57173 2.34152,2.35641 0.083,-0.083 -0.2132,-0.53608 -0.65823,-1.00684 z m -9.18937,-3.57421 c -0.45713,-0.43662 -0.46423,-0.42952 -0.16125,0.16125 0.17431,0.33989 0.38949,0.54541 0.47818,0.45672 0.0887,-0.0887 -0.0539,-0.36677 -0.31693,-0.61797 z m -2.44933,-3.01589 c -0.70088,-0.89823 -1.51305,-1.88049 -1.80483,-2.18282 -0.29178,-0.30232 -0.91685,-1.02329 -1.38906,-1.60215 -0.58379,-0.71564 -0.85856,-0.90616 -0.85856,-0.59531 0,0.25144 0.11679,0.45716 0.25954,0.45716 0.14275,0 0.33472,0.29954 0.42661,0.66564 0.0919,0.36611 0.42218,0.87212 0.73398,1.12448 0.3118,0.25236 0.78542,0.81602 1.05248,1.25259 0.50808,0.83055 2.26603,2.50282 2.63817,2.5096 0.1188,0.002 -0.35745,-0.73097 -1.05833,-1.62919 z m -4.31703,-5.12481 c 0,-0.0788 -0.22681,-0.3868 -0.50402,-0.68435 -0.27721,-0.29755 -0.583166,-0.96294 -0.679916,-1.47865 -0.19517,-1.04035 -1.32215,-2.98531 -1.7298,-2.98531 -0.46834,0 -0.27618,0.94666 0.46634,2.2974 1.09423,1.99057 2.447396,3.56683 2.447396,2.85091 z m -43.392026,23.38885 c 6e-4,-0.286 0.783789,-0.49133 1.87408,-0.49133 1.57928,0 1.23602,0.46778 -0.41888,0.57083 -0.80056,0.0498 -1.4554,0.0141 -1.4552,-0.0795 z m 7.14411,-0.23675 c 0,-0.23166 2.09188,-0.48684 2.57968,-0.31468 0.76509,0.27001 0.23169,0.51367 -1.12447,0.51367 -0.80037,0 -1.45521,-0.0895 -1.45521,-0.19899 z m 7.14375,-0.018 c 0,-0.33537 1.09371,-0.57163 1.36951,-0.29583 0.16748,0.16749 -0.0274,0.29978 -0.55581,0.37733 -0.44753,0.0657 -0.8137,0.029 -0.8137,-0.0815 z m 22.65656,-0.50944 c -0.41748,-0.12506 -1.94732,-0.18241 -3.39964,-0.12744 -3.50897,0.1328 -3.29597,-0.12433 0.45454,-0.54871 1.87529,-0.2122 4.10104,0.0978 4.10104,0.57116 0,0.42155 -0.076,0.42846 -1.15594,0.10499 z m -40.25136,-0.25632 c 0.0899,-0.14552 0.21603,-0.26458 0.280199,-0.26458 0.0642,0 0.116681,0.11906 0.116681,0.26458 0,0.14553 -0.12609,0.26459 -0.2802,0.26459 -0.15411,0 -0.20661,-0.11906 -0.11668,-0.26459 z m 15.00656,-0.0409 c 0.0652,-0.1958 0.33075,-0.39714 0.59011,-0.44741 0.30163,-0.0585 0.42885,0.0369 0.35303,0.26458 -0.0652,0.1958 -0.33075,0.39713 -0.59011,0.44741 -0.30163,0.0585 -0.42885,-0.0369 -0.35303,-0.26458 z m -14.08051,-0.22371 c 0,-0.14552 0.23812,-0.26458 0.529159,-0.26458 0.291041,0 0.52917,0.11906 0.52917,0.26458 0,0.14552 -0.238129,0.26458 -0.52917,0.26458 -0.291039,0 -0.529159,-0.11906 -0.529159,-0.26458 z m 8.1039,-0.52281 c 0.34159,-0.32084 2.67346,-0.65028 2.34714,-0.3316 -0.14552,0.14211 -0.78502,0.32357 -1.4211,0.40323 -0.63608,0.0797 -1.0528,0.0474 -0.92604,-0.0716 z m 6.9112,-0.24271 c -0.65269,-0.66181 -0.57733,-0.81782 0.27672,-0.57289 0.64648,0.18541 0.92165,0.0525 2.18281,-1.05408 0.79369,-0.69642 1.36322,-1.34639 1.26562,-1.44436 -0.0976,-0.098 -0.84712,-0.0391 -1.66559,0.13081 -1.36319,0.283 -3.81265,0.14542 -3.47221,-0.19502 0.0794,-0.0794 0.87144,-0.18554 1.76008,-0.23587 0.88865,-0.0503 2.15653,-0.33074 2.81752,-0.62312 0.66099,-0.29239 1.44229,-0.53162 1.73623,-0.53162 0.29393,0 1.04298,-0.41671 1.66454,-0.92604 0.62156,-0.50932 1.22913,-0.92663 1.35016,-0.92735 0.12103,-7.3e-4 0.57725,-0.30793 1.01381,-0.68268 0.57295,-0.49183 0.64655,-0.63308 0.26458,-0.50781 -0.29104,0.0954 -1.55452,0.4492 -2.80773,0.78611 -1.25322,0.3369 -2.52591,0.74492 -2.82822,0.90671 -0.3023,0.16179 -0.608,0.19974 -0.67932,0.0843 -0.0713,-0.11541 0.487,-0.42282 1.24071,-0.68314 0.75372,-0.26033 2.64377,-0.9699 4.20011,-1.57683 2.29759,-0.896 2.85975,-1.22133 2.98944,-1.73005 0.21454,-0.84155 0.0234,-0.96655 -0.70154,-0.45878 -0.33283,0.23312 -0.78878,0.42386 -1.01322,0.42386 -0.22443,0 -0.83663,0.2297 -1.36044,0.51044 -1.19764,0.6419 -2.64568,0.9215 -3.44856,0.66587 -0.49975,-0.15911 -0.24447,-0.28482 1.33129,-0.65558 1.07228,-0.2523 2.02478,-0.57548 2.11666,-0.71819 0.0919,-0.14271 1.00051,-0.62418 2.01916,-1.06992 1.33315,-0.58337 1.87577,-0.96415 1.93663,-1.35903 0.10347,-0.67139 -4.5e-4,-0.67441 -1.81351,-0.0529 -2.12683,0.72911 -2.90125,0.87842 -2.90125,0.55935 0,-0.15286 0.20836,-0.34661 0.46302,-0.43054 0.25466,-0.0839 0.99138,-0.38897 1.63714,-0.67785 0.64577,-0.28888 1.56851,-0.58923 2.05053,-0.66745 0.48201,-0.0782 0.87639,-0.2457 0.87639,-0.37218 0,-0.12648 0.1533,-0.22997 0.34066,-0.22997 0.48952,0 0.524,1.99303 0.0414,2.39355 -0.21013,0.17439 -0.38722,0.57039 -0.39353,0.87999 -0.006,0.30961 -0.30316,1.03917 -0.65966,1.62125 -0.3565,0.58209 -0.72954,1.23693 -0.82897,1.45521 -0.0994,0.21828 -0.60626,0.77887 -1.12628,1.24576 l -0.94549,0.84888 0.74965,0.011 c 0.91718,0.0135 0.82928,0.63 -0.10892,0.76397 -0.3524,0.0503 -0.75979,0.18323 -0.90531,0.29535 -0.14553,0.11211 -0.62178,0.18427 -1.05834,0.16035 -0.9339,-0.0512 -0.99041,-0.0122 -3.28977,2.27142 -1.55205,1.54141 -3.32133,2.89781 -3.72169,2.85321 -0.0728,-0.008 -0.34065,-0.226 -0.59531,-0.48422 z m -4.16719,-0.29281 c 0,-0.14552 0.23813,-0.26459 0.52917,-0.26459 0.29104,0 0.52917,0.11907 0.52917,0.26459 0,0.14552 -0.23813,0.26458 -0.52917,0.26458 -0.29104,0 -0.52917,-0.11906 -0.52917,-0.26458 z m 1.32292,0 c 0,-0.14552 0.18562,-0.26459 0.41249,-0.26459 0.22687,0 0.33891,0.11907 0.24897,0.26459 -0.0899,0.14552 -0.27556,0.26458 -0.41249,0.26458 -0.13693,0 -0.24897,-0.11906 -0.24897,-0.26458 z m 15.18372,-0.11459 c -0.18029,-0.46983 0.59526,-1.98184 1.11977,-2.18311 0.57506,-0.22067 0.98791,0.30449 0.80308,1.02156 -0.20426,0.7924 -1.71443,1.70467 -1.92285,1.16155 z m 40.207416,-0.14822 c -0.80825,-0.32612 -1.01242,-0.78346 -0.55429,-1.24159 0.35066,-0.35067 0.49608,-0.3442 1.28808,0.0573 0.49103,0.24892 1.09364,0.62849 1.33913,0.84347 0.2455,0.21499 0.56469,0.31776 0.70933,0.22837 0.14463,-0.0894 0.33775,-0.0415 0.42916,0.10637 0.20516,0.33196 -2.39154,0.33688 -3.21141,0.006 z m -27.477596,-1.04818 c -1.57231,-0.13516 -1.73218,-0.19139 -1.05833,-0.37225 0.43656,-0.11717 0.95115,-0.26218 1.14354,-0.32225 0.45294,-0.1414 2.65857,0.41293 2.84532,0.71511 0.0789,0.12763 -0.13151,0.21102 -0.46752,0.18532 -0.33601,-0.0257 -1.44436,-0.11836 -2.46301,-0.20593 z m 6.369906,0.0203 c -0.16509,-0.26713 1.36928,-0.63342 1.72706,-0.4123 0.13057,0.0807 0.23741,0.25876 0.23741,0.3957 0,0.31463 -1.77103,0.32959 -1.96447,0.0166 z m -39.753396,-1.01614 c 0.19646,-0.31787 4.08928,-1.01411 4.32912,-0.77427 0.29244,0.29244 -0.0524,0.43492 -1.39702,0.57725 -0.71423,0.0756 -1.70247,0.20964 -2.19609,0.29787 -0.56148,0.10036 -0.83703,0.0626 -0.73601,-0.10085 z m 0.83974,-2.45566 c -0.0899,-0.14552 -0.0374,-0.26459 0.11668,-0.26459 0.15411,0 0.2802,0.11907 0.2802,0.26459 0,0.14552 -0.0525,0.26458 -0.11668,0.26458 -0.0642,0 -0.19026,-0.11906 -0.2802,-0.26458 z m 34.72657,0.0645 c -1.30919,-0.17925 -0.76274,-0.59194 0.73797,-0.55734 0.93751,0.0216 1.43055,0.13887 1.36836,0.32543 -0.1029,0.30869 -0.90253,0.39673 -2.10633,0.23191 z m -33.55994,-0.34948 c -0.27137,-0.1718 -0.17481,-0.23716 0.35473,-0.24011 0.7901,-0.004 0.93237,0.12534 0.37288,0.34004 -0.1951,0.0749 -0.52252,0.0299 -0.72761,-0.0999 z m 1.4563,-0.28123 c -0.0582,-0.0942 0.16122,-0.17688 0.48768,-0.18368 3.75135,-0.0782 5.06512,-0.0437 5.24613,0.13776 0.11814,0.11841 -1.09982,0.21572 -2.70657,0.21626 -1.60675,5.4e-4 -2.96901,-0.0761 -3.02724,-0.17034 z m -4.21043,-1.28585 c 0.0899,-0.14552 0.27556,-0.26458 0.41249,-0.26458 0.13693,0 0.24897,0.11906 0.24897,0.26458 0,0.14553 -0.18562,0.26459 -0.41249,0.26459 -0.22687,0 -0.33891,-0.11906 -0.24897,-0.26459 z m -3.683731,-0.72921 c -0.328,-0.328 0.22242,-0.5937 1.2299,-0.5937 0.59775,0 1.016881,0.0699 0.931391,0.15543 -0.23707,0.23707 -2.004151,0.59541 -2.161291,0.43827 z m 5.932291,-0.18455 c 0.36358,-0.20122 0.71732,-0.30959 0.78609,-0.24082 0.178,0.178 -0.57768,0.61833 -1.05027,0.61199 -0.23009,-0.003 -0.11907,-0.15907 0.26418,-0.37117 z m 31.48582,0.1343 c 0,-0.34604 0.72871,-0.54345 2.00601,-0.54345 1.1568,0 1.60007,0.38383 0.70597,0.6113 -0.82047,0.20873 -2.71198,0.16141 -2.71198,-0.0678 z m -22.28296,-0.8057 c -0.39567,-0.11923 -1.497,-0.19696 -2.44739,-0.17275 -0.95039,0.0242 -1.72799,-0.0466 -1.72799,-0.15737 0,-0.23503 0.23377,-0.25082 3.00038,-0.20263 2.22276,0.0387 2.90407,0.18108 2.67103,0.55814 -0.17149,0.27748 -0.5099,0.27174 -1.49603,-0.0254 z m -5.82902,-0.17756 c 0.1819,-0.0734 0.47955,-0.0734 0.66146,0 0.1819,0.0734 0.0331,0.13345 -0.33073,0.13345 -0.36381,0 -0.51263,-0.06 -0.33073,-0.13345 z m 21.76198,-0.59022 c 0,-0.31071 0.77372,-0.60108 1.08652,-0.40776 0.13477,0.0833 0.17653,0.26227 0.0928,0.39774 -0.19455,0.31479 -1.17932,0.32316 -1.17932,0.01 z m -35.0573,-1.08664 c -0.0899,-0.14552 -0.0374,-0.26458 0.11668,-0.26458 0.15411,0 0.280199,0.11906 0.280199,0.26458 0,0.14552 -0.0525,0.26458 -0.116679,0.26458 -0.0642,0 -0.19026,-0.11906 -0.2802,-0.26458 z m 10.18646,0.024 c 1.33025,-0.75244 7.67292,-1.67539 7.67292,-1.11653 0,0.16433 -0.0893,0.30725 -0.19844,0.3176 -0.10914,0.0104 -0.97234,0.077 -1.91823,0.14819 -0.94588,0.0711 -2.47132,0.3008 -3.38985,0.51034 -1.93698,0.44186 -2.79801,0.49766 -2.1664,0.1404 z m -15.09674,-0.53769 c 0.63825,-0.63824 2.13433,-0.88515 2.31264,-0.38167 0.0601,0.16963 -0.340321,0.36642 -0.94087,0.46245 -0.57499,0.0919 -1.25511,0.24763 -1.51137,0.34597 -0.353561,0.13567 -0.31988,0.0327 0.1396,-0.42675 z m 5.73026,0.31942 c -0.34172,-0.34172 -0.132291,-0.62682 0.34838,-0.47426 0.278799,0.0885 0.58348,0.037 0.677079,-0.11447 0.25179,-0.40741 1.812381,-0.33397 2.40347,0.11312 0.47742,0.3611 0.429741,0.39118 -0.677029,0.42704 -0.65484,0.0212 -1.50624,0.0765 -1.892001,0.12284 -0.385759,0.0463 -0.772709,0.0129 -0.859899,-0.0743 z m 17.96544,-0.59949 c -0.59234,-0.25454 -0.42902,-0.2967 1.38885,-0.3586 0.74335,-0.0253 1.12434,0.0738 1.12448,0.29246 2.5e-4,0.38008 -1.67986,0.4243 -2.51333,0.0661 z m 3.04271,-0.14605 c 0,-0.24929 0.27726,-0.38311 0.79375,-0.38311 0.43656,0 0.79375,0.0479 0.79375,0.1064 0,0.0585 -0.35719,0.23093 -0.79375,0.38312 -0.64389,0.22446 -0.79375,0.20437 -0.79375,-0.10641 z m 19.05,-0.11853 c 0,-0.14552 0.41672,-0.26458 0.92604,-0.26458 0.50933,0 0.92604,0.11906 0.92604,0.26458 0,0.14552 -0.41671,0.26458 -0.92604,0.26458 -0.50932,0 -0.92604,-0.11906 -0.92604,-0.26458 z m -48.947921,-0.79375 c 0,-0.14552 0.11906,-0.26458 0.26459,-0.26458 0.145521,0 0.26458,0.11906 0.26458,0.26458 0,0.14552 -0.119059,0.26458 -0.26458,0.26458 -0.14553,0 -0.26459,-0.11906 -0.26459,-0.26458 z m 20.108341,-0.71528 c 0,-0.27219 2.46525,-1.16118 2.83094,-1.02086 0.22612,0.0868 0.54487,0.0504 0.70832,-0.0808 0.16346,-0.13123 0.68415,-0.32133 1.15709,-0.42246 1.03571,-0.22146 1.19101,0.27455 0.20352,0.65 -0.77655,0.29524 -4.89987,1.03086 -4.89987,0.87415 z m 10.64815,-0.93837 c 0.12947,-0.39312 1.2581,-0.61304 1.2581,-0.24514 0,0.25659 -0.61099,0.57587 -1.10202,0.57587 -0.14575,0 -0.21598,-0.14883 -0.15608,-0.33073 z m 13.42893,0.0856 c 0,-0.30868 0.74319,-0.46964 1.52136,-0.32951 0.98828,0.17798 0.66866,0.57469 -0.46303,0.57469 -0.58208,0 -1.05833,-0.11033 -1.05833,-0.24518 z m -17.5435,-0.1886 c -0.27585,-0.27585 0.0735,-0.62455 0.62578,-0.62455 0.61815,0 0.67952,0.40886 0.095,0.63315 -0.51653,0.19821 -0.51398,0.19824 -0.72082,-0.009 z m 1.94075,-0.085 c -0.52794,-0.33388 -0.25018,-0.55338 0.46393,-0.36664 0.31943,0.0835 0.51557,0.25741 0.43585,0.38639 -0.18297,0.29606 -0.40823,0.29112 -0.89978,-0.0197 z m 18.64546,-2.127 c 0.0899,-0.14552 0.21603,-0.26458 0.2802,-0.26458 0.0642,0 0.11667,0.11906 0.11667,0.26458 0,0.14552 -0.12608,0.26458 -0.28019,0.26458 -0.15411,0 -0.20662,-0.11906 -0.11668,-0.26458 z m -22.48958,-0.52917 c 0.0899,-0.14552 0.40164,-0.26458 0.69268,-0.26458 0.29105,0 0.45559,0.11906 0.36565,0.26458 -0.0899,0.14552 -0.40165,0.26459 -0.69269,0.26459 -0.29104,0 -0.45558,-0.11907 -0.36564,-0.26459 z m 6.09938,0.0226 c -0.20282,-0.32817 0.31052,-0.47074 1.21629,-0.3378 0.41179,0.0604 0.68337,0.21561 0.60351,0.34484 -0.19102,0.30907 -1.62787,0.30352 -1.8198,-0.007 z m -3.85043,-0.28718 c 0,-0.14552 0.11907,-0.26458 0.26459,-0.26458 0.14552,0 0.26458,0.11906 0.26458,0.26458 0,0.14552 -0.11906,0.26458 -0.26458,0.26458 -0.14552,0 -0.26459,-0.11906 -0.26459,-0.26458 z m 1.32292,0 c 0,-0.14552 0.12609,-0.26458 0.2802,-0.26458 0.15411,0 0.20661,0.11906 0.11668,0.26458 -0.0899,0.14552 -0.21603,0.26458 -0.2802,0.26458 -0.0642,0 -0.11668,-0.11906 -0.11668,-0.26458 z m 4.89479,0 c 0.0899,-0.14552 0.33509,-0.26458 0.54478,-0.26458 0.2097,0 0.38126,0.11906 0.38126,0.26458 0,0.14552 -0.24515,0.26458 -0.54478,0.26458 -0.29963,0 -0.47119,-0.11906 -0.38126,-0.26458 z M 65.053754,126.442 c 0.39169,-0.47759 1.62125,-0.61272 1.62125,-0.17818 0,0.14552 -0.14883,0.26621 -0.33073,0.2682 -0.1819,0.002 -0.62838,0.0822 -0.99219,0.17817 -0.5939,0.15674 -0.62437,0.12934 -0.29833,-0.26819 z m 2.01813,-0.17818 c 0.0899,-0.14552 0.39461,-0.26458 0.67707,-0.26458 0.28245,0 0.51355,0.11906 0.51355,0.26458 0,0.14552 -0.30468,0.26459 -0.67707,0.26459 -0.38401,0 -0.6063,-0.11453 -0.51355,-0.26459 z m 11.1125,-0.76515 c -1.24445,-0.18918 -0.97952,-0.43961 0.56021,-0.52953 0.78692,-0.046 1.13355,0.0515 1.24847,0.35094 0.17119,0.44614 0.0378,0.45931 -1.80868,0.17859 z m -15.74271,-1.48381 c 0.7238,-0.41376 3.43958,-0.54056 3.43958,-0.1606 0,0.38388 -0.79537,0.57523 -1.29019,0.31041 -0.27772,-0.14863 -0.60878,-0.14985 -0.84073,-0.003 -0.21044,0.13313 -0.73981,0.23967 -1.17637,0.23674 l -0.79375,-0.005 z m 6.87916,0.23255 c -0.21828,-0.0782 -0.55911,-0.19369 -0.7574,-0.25664 -0.28855,-0.0916 -0.29529,-0.19307 -0.0337,-0.5082 0.39225,-0.47263 1.29439,-0.50203 2.67869,-0.0873 1.07256,0.32134 1.3742,0.75187 0.52679,0.75187 -0.27285,0 -0.8384,0.0546 -1.25677,0.12122 -0.41838,0.0667 -0.93928,0.0572 -1.15756,-0.021 z m -14.55208,-0.894 c 0,-0.14553 0.12609,-0.26459 0.2802,-0.26459 0.15411,0 0.20661,0.11906 0.11667,0.26459 -0.0899,0.14552 -0.21602,0.26458 -0.28019,0.26458 -0.0642,0 -0.11668,-0.11906 -0.11668,-0.26458 z m 1.44062,-0.15434 c 0.28193,-0.20616 0.84703,-0.37483 1.25578,-0.37483 0.46479,0 0.74318,0.14041 0.74318,0.37483 0,0.27073 -0.34875,0.37482 -1.25578,0.37482 -1.14826,0 -1.2119,-0.0321 -0.74318,-0.37482 z m 15.87999,-1.01059 c -0.4831,-0.35325 -0.45645,-0.38562 0.45879,-0.55732 1.03073,-0.19337 1.62525,-0.003 1.46769,0.46953 -0.14923,0.44769 -1.3589,0.50281 -1.92648,0.0878 z m 2.39085,0.15069 c -0.36254,-0.36254 -0.0445,-0.59812 0.70723,-0.52388 1.09148,0.10779 1.28049,0.65617 0.22616,0.65617 -0.4406,0 -0.86063,-0.0595 -0.93339,-0.13229 z m -7.49334,-0.58282 c 0.18544,-0.55635 1.43612,-0.7884 1.98912,-0.36908 0.43589,0.33053 0.40466,0.36253 -0.36112,0.37022 -0.46104,0.005 -1.04283,0.0869 -1.29287,0.18287 -0.31324,0.1202 -0.41746,0.063 -0.33513,-0.18401 z m 7.28814,-1.43495 c -0.25094,-0.18349 -0.45626,-0.4052 -0.45626,-0.49269 0,-0.35555 2.07932,-0.70974 2.72514,-0.4642 0.36302,0.13802 0.7125,0.19848 0.77663,0.13435 0.18782,-0.18782 1.7899,0.44358 1.7899,0.70543 0,0.13128 -0.47625,0.2387 -1.05834,0.2387 -0.66811,0 -1.05982,-0.12194 -1.06238,-0.33073 -0.003,-0.22768 -0.0646,-0.24043 -0.19844,-0.0409 -0.3073,0.45816 -2.0014,0.62652 -2.51625,0.25005 z m -10.9073,-0.67216 c 0.0899,-0.14552 0.21602,-0.26458 0.2802,-0.26458 0.0642,0 0.11667,0.11906 0.11667,0.26458 0,0.14552 -0.12609,0.26458 -0.28019,0.26458 -0.15411,0 -0.20662,-0.11906 -0.11668,-0.26458 z m 0.92604,-0.30623 c 0,-0.5565 2.91404,-0.60894 3.09843,-0.0558 0.054,0.16195 -0.54342,0.26862 -1.50444,0.26862 -0.8767,0 -1.59399,-0.0958 -1.59399,-0.21285 z m 17.4625,-0.77668 c -0.50932,-0.12925 -1.84531,-0.2782 -2.96886,-0.331 -2.03984,-0.0959 -3.13026,-0.53031 -2.61765,-1.04291 0.14121,-0.14122 1.12853,-0.22865 2.19403,-0.19431 1.0655,0.0343 2.14563,0.057 2.40029,0.0503 0.25466,-0.007 0.46302,0.1718 0.46302,0.3966 0,0.23957 0.1517,0.35053 0.3665,0.2681 0.40304,-0.15466 1.48559,0.49591 1.48559,0.89278 0,0.28389 -0.0547,0.28225 -1.32292,-0.0396 z m -22.357291,-1.29834 c 0.728261,-0.31295 0.987161,-0.31295 0.793751,0 -0.0899,0.14552 -0.42439,0.25621 -0.74322,0.24599 -0.5589,-0.0179 -0.56071,-0.0268 -0.0505,-0.24599 z m 7.540621,-0.51554 c 0,-0.29275 1.56341,-0.91966 1.77238,-0.7107 0.24116,0.24116 0.001,0.41612 -0.94269,0.68677 -0.45633,0.13087 -0.82969,0.14164 -0.82969,0.0239 z m 17.6229,-0.20601 c -0.0979,-0.0979 -1.15429,-0.18395 -2.34754,-0.19124 -1.78743,-0.0109 -2.18432,-0.0892 -2.2534,-0.44427 -0.0945,-0.48562 1.08165,-0.90659 1.60844,-0.5757 0.17521,0.11005 0.83741,0.23499 1.47155,0.27764 1.17289,0.0789 2.39531,0.68119 1.94606,0.95884 -0.13591,0.084 -0.32721,0.0726 -0.42511,-0.0253 z m 0.76305,-1.81375 c -0.14695,-0.0618 -1.1493,-0.20117 -2.22745,-0.30984 -2.25235,-0.22701 -2.9753,-0.85903 -0.98262,-0.85903 1.39519,0 1.75296,-0.32572 0.82312,-0.74939 -0.62018,-0.28257 -0.80754,-0.59554 -0.52541,-0.87767 0.0703,-0.0703 1.1716,0.0185 2.4474,0.19734 2.38646,0.33446 4.30401,0.97302 4.30401,1.43327 0,0.32129 -0.16928,0.32827 -0.74499,0.0307 -0.2451,-0.12667 -1.33123,-0.31468 -2.41362,-0.4178 -1.74054,-0.16582 -1.92955,-0.14117 -1.63537,0.2133 0.18295,0.22043 0.67337,0.47563 1.08982,0.5671 0.41645,0.0915 0.89905,0.33724 1.07245,0.54617 0.25931,0.31246 0.20387,0.37616 -0.31245,0.35898 -0.34524,-0.0115 -0.74794,-0.0714 -0.89489,-0.13316 z m -10.97761,-0.6397 c 0,-0.14552 0.17859,-0.26458 0.39687,-0.26458 0.21828,0 0.4832,-0.009 0.5887,-0.0198 0.1055,-0.0109 0.23449,0.10815 0.28663,0.26459 0.0521,0.15643 -0.21277,0.28442 -0.5887,0.28442 -0.37592,0 -0.6835,-0.11906 -0.6835,-0.26458 z m -10.05417,-1.43059 c 0,-0.26267 1.45024,-0.87983 1.78594,-0.76002 0.4955,0.17685 0.39833,0.57444 -0.13229,0.54131 -0.25467,-0.0159 -0.73092,0.059 -1.05834,0.16657 -0.32742,0.10751 -0.59531,0.13097 -0.59531,0.0521 z m 20.43906,-1.8756 c -0.1819,-0.2066 -0.33073,-0.4573 -0.33073,-0.5571 0,-0.27497 3.56679,0.11444 4.41541,0.48206 l 0.74397,0.32229 -1.14403,0.0904 c -0.68046,0.0538 -1.31437,-0.0501 -1.56438,-0.25647 -0.33181,-0.27382 -0.4438,-0.27723 -0.53167,-0.0162 -0.14961,0.44452 -1.17697,0.40245 -1.58857,-0.065 z m 4.16719,-1.24937 c -2.16444,-0.40716 -2.32157,-0.46353 -2.48589,-0.89175 -0.1394,-0.36327 0.0192,-0.40637 1.09529,-0.29751 2.30767,0.23346 4.5656,0.91796 4.5656,1.38408 0,0.17696 -1.77896,0.0678 -3.175,-0.19482 z m 6.21771,-0.47152 c -0.0899,-0.14553 -0.45415,-0.26459 -0.80937,-0.26459 -0.43715,0 -0.64715,-0.14961 -0.64989,-0.46302 -0.003,-0.34054 -0.0611,-0.37317 -0.21959,-0.12333 -0.20704,0.3263 -0.55781,0.28499 -1.76073,-0.2074 -0.29105,-0.11913 -0.73753,-0.28319 -0.99219,-0.36458 -0.25466,-0.0814 -0.46302,-0.26854 -0.46302,-0.41589 0,-0.25111 1.72602,-0.21535 2.64583,0.0548 1.28706,0.37803 2.91042,1.38315 2.91042,1.80201 0,0.32794 -0.45531,0.31554 -0.66146,-0.018 z m 2.12755,-1.04073 c -0.0959,-0.15521 -0.46503,-0.28219 -0.82025,-0.28219 -0.35521,0 -0.64584,-0.10418 -0.64584,-0.23151 0,-0.12733 -0.29389,-0.23151 -0.65309,-0.23151 -0.87693,0 -3.1149,-1.07175 -2.91462,-1.3958 0.0876,-0.14182 0.44757,-0.25785 0.79984,-0.25785 0.8039,0 2.76787,0.77134 2.76787,1.08706 0,0.12972 0.21967,0.23586 0.48816,0.23586 0.51877,0 1.55061,0.95984 1.3006,1.20985 -0.0815,0.0815 -0.22675,0.0213 -0.32267,-0.13391 z m -39.95031,-0.39102 c 0.28087,-0.20538 0.61399,-0.30956 0.74028,-0.23151 0.27717,0.1713 -0.33635,0.5952 -0.86965,0.60087 -0.26934,0.003 -0.23135,-0.10559 0.12937,-0.36936 z m 38.68266,-2.32036 c -1.12779,-0.59263 -2.05053,-1.18148 -2.05053,-1.30854 0,-0.34644 0.88078,-0.27864 1.88592,0.14517 0.86874,0.3663 2.96513,2.28396 2.46547,2.25527 -0.13769,-0.008 -1.17308,-0.49926 -2.30086,-1.0919 z m -17.92553,0.31252 c 0,-0.14552 0.1786,-0.26458 0.39688,-0.26458 0.21828,0 0.39687,0.11906 0.39687,0.26458 0,0.14552 -0.17859,0.26459 -0.39687,0.26459 -0.21828,0 -0.39688,-0.11907 -0.39688,-0.26459 z m -18.88755,-0.74238 c 0.59866,-0.24654 1.2535,-0.58108 1.4552,-0.74345 0.2017,-0.16236 0.50721,-0.34095 0.6789,-0.39687 0.1717,-0.0559 0.98064,-0.74133 1.79765,-1.52312 0.81701,-0.7818 1.56285,-1.34407 1.65744,-1.24949 0.0946,0.0946 -0.47828,0.79377 -1.27302,1.55375 -1.4881,1.42299 -3.95227,2.84828 -4.87929,2.8222 -0.32252,-0.009 -0.10509,-0.18786 0.56312,-0.46302 z m 39.49759,-0.14245 c -1.59342,-0.95316 -2.76249,-1.958 -2.54178,-2.1847 0.28818,-0.296 2.04008,0.68506 2.04008,1.14244 0,0.20395 0.0967,0.31104 0.21494,0.23798 0.21946,-0.13564 1.637136,0.95275 1.637136,1.25688 0,0.268 -0.331436,0.15691 -1.350376,-0.4526 z M 101.6,103.80717 c -1.39269,-0.5798 -3.935436,-2.6819 -3.960386,-3.27408 -0.005,-0.10914 0.23264,-0.19843 0.52719,-0.19843 0.44589,0 4.132796,3.3833 3.900066,3.57891 -0.0385,0.0324 -0.24859,-0.0155 -0.46687,-0.1064 z m -43.534836,-0.5797 c -0.24351,-0.394 0.0388,-0.60822 0.545409,-0.41383 0.233781,0.0897 0.350951,0.28302 0.260381,0.42956 -0.21447,0.34702 -0.58608,0.33976 -0.80579,-0.0157 z m 45.122336,-0.83296 c -0.3638,-0.15832 -0.95911,-0.33155 -1.32291,-0.38496 -1.29679,-0.19037 -3.865866,-3.7357 -3.193936,-4.40762 0.1994,-0.1994 0.62035,0.0817 1.439086,0.96086 0.6365,0.68348 1.31017,1.2427 1.49706,1.2427 0.38094,0 0.0377,-0.4524 -1.854296,-2.44389 -1.19675,-1.25969 -1.77291,-2.5082 -1.3518,-2.9293 0.30627,-0.30628 1.19311,0.27962 1.692416,1.11811 0.6518,1.09457 1.85695,2.31896 2.46957,2.509 0.77291,0.23975 1.94773,1.36512 1.94773,1.86574 0,0.25778 -0.2393,0.40951 -0.64584,0.40951 -0.69024,0 -1.24339,0.56088 -0.72392,0.73403 0.17128,0.0571 0.31143,0.3082 0.31143,0.55801 0,0.24982 0.14287,0.59708 0.3175,0.77171 0.37754,0.37754 0.29312,0.37697 -0.58209,-0.004 z M 62.442524,99.87164 c 0.91972,-0.98227 1.8911,-1.98362 2.1586,-2.22523 0.26751,-0.24161 0.49436,-0.53926 0.50411,-0.66146 0.01,-0.12219 0.54497,-0.93654 1.18936,-1.80967 0.64439,-0.87312 1.33864,-1.95992 1.54277,-2.41509 0.20413,-0.45518 0.49118,-0.90179 0.63789,-0.99246 0.14671,-0.0907 0.20801,-0.38942 0.13624,-0.66389 -0.0718,-0.27448 -10e-4,-0.57904 0.15713,-0.67681 0.1582,-0.0978 0.28763,-0.52552 0.28763,-0.95055 0,-0.42503 0.16695,-1.22168 0.37101,-1.77032 0.20405,-0.54865 0.46047,-1.23567 0.56983,-1.52671 0.10935,-0.29104 0.17521,-0.72471 0.14635,-0.9637 -0.0838,-0.69419 1.23461,-1.54984 2.38808,-1.54984 0.69106,0 1.02265,0.1179 1.02265,0.36362 0,0.53176 -1.68341,2.28221 -2.19481,2.28221 -0.54449,0 -1.17344,1.18048 -1.40694,2.64073 -0.0975,0.60983 -0.30928,1.16003 -0.47059,1.22267 -0.16131,0.0626 -0.31351,0.49892 -0.33822,0.96951 -0.0467,0.88881 -1.13899,3.07924 -1.81557,3.64074 -0.21365,0.17732 -0.38846,0.47966 -0.38846,0.67187 0,0.19221 -0.21043,0.50505 -0.46762,0.69521 -0.25719,0.19015 -0.67071,0.66408 -0.91893,1.05317 -0.65613,1.0285 -4.08841,4.45193 -4.46345,4.45193 -0.17561,0 0.43321,-0.80367 1.35294,-1.78593 z m 17.52228,1.47174 c 0.16298,-0.48893 0.57413,-0.52305 1.14069,-0.0947 0.49175,0.37182 0.47302,0.39246 -0.36348,0.40044 -0.56599,0.005 -0.84442,-0.10415 -0.77721,-0.30578 z m -3.00788,-1.0027 c 0.70506,-0.60411 0.80744,-0.62539 1.35208,-0.28094 0.51155,0.32351 0.35313,0.43437 -0.91837,0.64271 l -1.05834,0.17341 z m 5.73528,-1.04832 c -0.10015,-0.16206 -0.34391,-0.26173 -0.54168,-0.22149 -0.19776,0.0402 -0.33761,-0.0459 -0.31077,-0.19142 0.0268,-0.14552 0.34556,-0.22579 0.70828,-0.17837 0.8292,0.10841 0.96727,0.24494 0.60951,0.60271 -0.20125,0.20124 -0.33594,0.19794 -0.46534,-0.0114 z m 0.91613,-0.16394 c 0,-0.22687 0.11907,-0.33891 0.26459,-0.24897 0.14552,0.0899 0.26458,0.27556 0.26458,0.41249 0,0.13693 -0.11906,0.24897 -0.26458,0.24897 -0.14552,0 -0.26459,-0.18562 -0.26459,-0.41249 z m 20.217156,-0.88006 c -0.44947,-0.27492 -1.07935,-0.8407 -1.39974,-1.2573 -0.32039,-0.41659 -2.01545,-2.20702 -3.766796,-3.97872 -2.28734,-2.31392 -3.21905,-3.44198 -3.30776,-4.00484 -0.1307,-0.82934 0.41627,-1.63743 1.10834,-1.63743 0.62639,0 0.42789,-0.70313 -0.4449,-1.57591 -0.45258,-0.45258 -1.97062,-1.59334 -3.37344,-2.53502 -2.64174,-1.77335 -4.27036,-3.08512 -4.27036,-3.43956 0,-0.11262 -0.30555,-0.60537 -0.67901,-1.095 -0.56264,-0.73766 -0.69035,-1.2181 -0.74513,-2.8031 -0.0364,-1.05208 0.0398,-2.23185 0.16919,-2.62172 0.15173,-0.45705 0.13115,-0.90348 -0.0579,-1.25677 -0.29908,-0.55883 -1.06837,-0.76285 -1.06837,-0.28333 0,0.14552 -0.41213,0.26458 -0.91584,0.26458 -0.8352,0 -0.93898,0.0874 -1.17862,0.99219 -0.14452,0.5457 -0.33502,2.2737 -0.42333,3.83999 -0.18344,3.25372 -0.85606,5.13363 -2.29575,6.4164 -0.89467,0.79715 -1.51748,0.89587 -3.69384,0.58549 -0.92455,-0.13185 -1.31168,-0.0788 -1.55375,0.21287 -0.39168,0.47195 -2.20351,0.53763 -2.04907,0.0743 0.0576,-0.1728 0.60331,-0.48038 1.21268,-0.6835 0.60937,-0.20313 1.10794,-0.52948 1.10794,-0.72524 0,-0.19577 0.20165,-0.55758 0.44811,-0.80404 0.36172,-0.36172 0.74559,-0.41702 1.9911,-0.28684 0.84864,0.0887 1.8385,0.23545 2.19969,0.3261 1.16344,0.292 1.8388,-1.96278 2.10784,-7.03728 0.14666,-2.76617 0.43762,-4.46683 0.81826,-4.78274 0.43087,-0.35758 3.5475,-0.57341 3.5475,-0.24566 0,0.12815 0.20836,0.22451 0.46302,0.21413 0.25466,-0.0104 0.67138,0.0693 0.92604,0.17704 0.25467,0.10776 0.46302,0.0871 0.46302,-0.0459 0,-0.133 -0.32742,-0.35832 -0.7276,-0.50071 -1.25237,-0.44562 -0.099,-0.58251 1.94393,-0.23071 1.78649,0.30764 3.01701,0.9561 3.01701,1.5899 0,0.38031 3.30148,3.29547 3.73219,3.29547 0.52706,0 2.08454,-0.54588 3.886456,-1.36217 0.91604,-0.41497 1.92024,-0.7545 2.23157,-0.7545 1.01111,0 2.83983,1.05888 3.01176,1.74388 0.088,0.35056 0.26463,0.63737 0.39255,0.63737 0.12792,0 0.54906,0.50602 0.93586,1.12448 0.3868,0.61847 0.84631,1.20949 1.02112,1.31338 0.17481,0.1039 0.32835,0.55863 0.3412,1.01053 0.0128,0.4519 0.13407,0.9622 0.26938,1.13402 0.13532,0.17181 0.31004,0.81638 0.38827,1.43237 0.0782,0.61598 0.38902,1.62975 0.69064,2.25281 0.59913,1.23764 2.4182,3.3053 3.48375,3.95985 0.37032,0.22748 0.94949,0.81667 1.28706,1.30932 0.33757,0.49265 1.55999,1.54438 2.71649,2.33718 3.22681,2.21202 3.26573,2.53524 0.20982,1.74255 -1.5744,-0.4084 -1.82215,-0.36844 -1.33737,0.21568 0.26454,0.31875 0.21574,0.3595 -0.29303,0.24467 -0.33573,-0.0758 -1.00705,-0.31471 -1.49181,-0.53096 -1.16645,-0.52035 -1.34455,-0.27173 -0.40592,0.56664 l 0.75813,0.67716 -0.76255,-0.27345 c -0.4194,-0.1504 -0.99303,-0.2003 -1.27473,-0.11089 -0.32792,0.10408 -0.8816,-0.0934 -1.53898,-0.549 -1.54899,-1.07345 -1.74568,-0.67542 -0.263,0.5322 1.34669,1.09687 1.73782,1.69438 0.77011,1.17648 -2.5742,-1.37767 -6.58814,-4.89839 -6.58814,-5.77861 0,-0.16096 -0.11906,-0.29266 -0.26458,-0.29266 -0.44046,0 -0.29712,0.68229 0.24674,1.17448 0.28123,0.25451 0.44429,0.63742 0.36237,0.85091 -0.0956,0.24911 0.50167,0.99849 1.66719,2.09181 0.99889,0.937 1.71404,1.70364 1.58923,1.70364 -0.12481,0 -0.94012,-0.47625 -1.8118,-1.05834 -0.87167,-0.58208 -1.66059,-1.05651 -1.75315,-1.05428 -0.0926,0.002 0.008,0.11545 0.2232,0.2516 0.21532,0.13616 0.40924,0.6006 0.43094,1.0321 l 0.0395,0.78455 -1.25555,-0.77255 c -1.14168,-0.70248 -2.77742,-2.33235 -4.31294,-4.29745 -0.32179,-0.41181 -0.972016,-1.16786 -1.444956,-1.68011 -0.47295,-0.51224 -0.8599,-1.00987 -0.8599,-1.10584 0,-0.096 -0.23812,-0.32319 -0.52917,-0.50495 -0.65956,-0.4119 -0.70274,0.0272 -0.0661,0.67262 0.25466,0.25819 0.70084,0.91746 0.9915,1.46504 0.29067,0.54758 1.04891,1.4916 1.684976,2.09782 0.63607,0.60621 1.6034,1.70716 2.14962,2.44655 0.54622,0.7394 1.42509,1.72362 1.95305,2.18717 0.52795,0.46355 0.95991,0.96552 0.95991,1.11548 0,0.14997 0.14996,0.27267 0.33323,0.27267 0.35277,0 1.10995,1.02627 0.90695,1.22927 -0.28024,0.28024 -1.44793,-0.26624 -2.41617,-1.13079 -0.57404,-0.51256 -1.3715,-1.10143 -1.77212,-1.3086 -0.6627,-0.34269 -3.051676,-3.55816 -3.474756,-4.67686 -0.0963,-0.25466 -0.28387,-0.46302 -0.41681,-0.46302 -0.33304,0 0.28558,1.71598 0.90681,2.5154 0.2799,0.36018 0.925626,1.24399 1.434956,1.964 0.50932,0.72002 1.10463,1.37783 1.32291,1.4618 1.35311,0.52052 3.43582,2.0906 3.43778,2.59161 9.9e-4,0.25466 -0.10752,0.46302 -0.24114,0.46302 -0.13362,0 -0.40151,0.0598 -0.59531,0.13282 -0.1938,0.073 -0.72012,-0.0921 -1.16959,-0.36703 z m 1.29339,-7.00974 c -0.32879,-0.56686 -2.22598,-2.6038 -2.32911,-2.50068 -0.0506,0.0506 0.44562,0.71604 1.10272,1.47874 1.16402,1.35108 1.65422,1.75955 1.22639,1.02194 z m 8.28682,-0.12931 c -0.24593,-0.27175 -1.27126,-1.07543 -2.2785,-1.78594 -1.00725,-0.71051 -1.83651,-1.41203 -1.84282,-1.55892 -0.0134,-0.31119 -1.06306,-1.01848 -1.2436,-0.83793 -0.17712,0.17711 2.41916,2.71932 3.84839,3.76825 1.36583,1.00239 2.27292,1.25035 1.51653,0.41454 z m -3.8682,0.11284 c 0,-0.0642 -0.11906,-0.19027 -0.26458,-0.2802 -0.14552,-0.0899 -0.26458,-0.0374 -0.26458,0.11667 0,0.15411 0.11906,0.2802 0.26458,0.2802 0.14552,0 0.26458,-0.0525 0.26458,-0.11667 z m -1.05833,-0.90474 c 0,-0.12521 -0.31862,-0.69076 -0.70804,-1.25677 -0.38942,-0.56601 -1.04335,-1.71372 -1.45317,-2.55046 -0.40982,-0.83675 -0.79716,-1.52136 -0.86075,-1.52136 -0.33107,0 0.0416,2.31962 0.44637,2.77813 1.13058,1.28076 2.44875,2.7257 2.50944,2.75079 0.0364,0.015 0.0661,-0.0751 0.0661,-0.20033 z m -4.40688,-3.64578 c -0.41387,-0.52027 -1.05015,-1.39646 -1.41395,-1.94707 -1.35874,-2.05646 -2.03956,-2.85126 -4.929706,-5.75501 -1.62944,-1.63711 -3.15137,-2.97656 -3.38208,-2.97656 -0.23071,0 -0.41947,-0.11906 -0.41947,-0.26458 0,-0.14552 -0.17859,-0.26459 -0.39687,-0.26459 -0.21828,0 -0.39688,-0.11906 -0.39688,-0.26458 0,-0.14552 -0.17859,-0.26458 -0.39687,-0.26458 -0.21828,0 -0.39688,0.10167 -0.39688,0.22594 0,0.31308 1.02973,1.36416 2.1115,2.15531 0.49744,0.3638 1.09307,0.84005 1.32361,1.05833 0.23053,0.21828 0.91327,0.73501 1.51718,1.14829 1.61162,1.1029 3.854836,3.56688 4.533886,4.98008 0.69518,1.44677 2.7466,3.87226 2.896,3.42407 0.0567,-0.17 -0.2356,-0.73477 -0.64947,-1.25505 z m -5.033146,-2.75 c -0.52705,-0.89222 -3.07034,-3.43072 -3.43719,-3.43072 -0.12889,0 -0.41948,-0.20836 -0.64575,-0.46302 -0.54671,-0.61529 -2.39875,-2.28727 -2.81505,-2.54135 -0.50051,-0.30548 -0.40068,-0.0697 0.3304,0.7804 0.36363,0.42282 0.66128,0.855 0.66146,0.9604 1.8e-4,0.1054 0.32775,0.36687 0.72793,0.58103 0.40018,0.21416 1.73963,1.39991 2.97656,2.635 1.23693,1.23509 2.34499,2.25355 2.46236,2.26324 0.11736,0.01 4e-5,-0.34355 -0.26072,-0.78498 z m 6.024196,0.31783 c -0.1427,-0.26663 -0.44298,-0.6371 -0.66729,-0.82326 -0.36121,-0.29978 -0.37503,-0.24434 -0.12086,0.48478 0.15785,0.45279 0.45813,0.82326 0.6673,0.82326 0.2867,0 0.31644,-0.11931 0.12085,-0.48478 z m -9.191966,-0.66637 c -0.41451,-0.48761 -0.85098,-0.83281 -0.96992,-0.76712 -0.18896,0.10437 1.32214,1.65369 1.61289,1.65369 0.0609,0 -0.22845,-0.39896 -0.64297,-0.88657 z m 7.348796,-2.54974 c -0.66146,-1.26904 -0.71359,-1.85536 -0.16496,-1.85536 0.55669,0 0.49456,-0.44282 -0.19844,-1.41436 -0.45192,-0.63357 -0.59531,-1.20181 -0.59531,-2.35912 0,-2.18981 -0.52983,-2.26676 -2.415406,-0.35083 -0.80028,0.81316 -1.6175,1.47848 -1.81603,1.47848 -0.37238,0 -1.19112,-0.69314 -1.19433,-1.01109 -0.004,-0.37915 -1.78451,-1.37016 -2.46196,-1.37016 -0.86329,0 -0.94048,0.41403 -0.11592,0.62182 0.60305,0.15197 1.28751,0.61346 2.51139,1.69328 0.37111,0.32742 0.76828,0.59531 0.88261,0.59531 0.11433,0 0.77151,0.59532 1.4604,1.32292 0.6889,0.7276 1.393676,1.32292 1.566166,1.32292 0.1725,0 0.87399,0.60831 1.55887,1.35181 0.68488,0.7435 1.31263,1.28442 1.395,1.20205 0.0824,-0.0824 -0.10307,-0.63482 -0.41208,-1.22767 z m -9.293086,0.426 c 0,-0.055 -0.20835,-0.26331 -0.46302,-0.46303 -0.41964,-0.3291 -0.429,-0.31974 -0.0999,0.0999 0.34564,0.44073 0.56291,0.58089 0.56291,0.36313 z m -3.44363,-10.4173 c -0.002,-0.10914 -0.11482,-0.37358 -0.2502,-0.58765 -0.30483,-0.48201 -0.66246,-0.18056 -0.4482,0.3778 0.15824,0.41238 0.70589,0.57693 0.6984,0.20985 z m -3.70012,26.39219 c 0,-0.14552 0.17157,-0.26458 0.38126,-0.26458 0.2097,0 0.45485,0.11906 0.54479,0.26458 0.0899,0.14552 -0.0816,0.26458 -0.38126,0.26458 -0.29963,0 -0.54479,-0.11906 -0.54479,-0.26458 z m -7.8052,-0.26458 c 0.0899,-0.14552 0.21602,-0.26459 0.28019,-0.26459 0.0642,0 0.11668,0.11907 0.11668,0.26459 0,0.14552 -0.12609,0.26458 -0.2802,0.26458 -0.15411,0 -0.20661,-0.11906 -0.11667,-0.26458 z m 1.05833,-0.26459 c 0.0899,-0.14552 0.27556,-0.26458 0.41249,-0.26458 0.13693,0 0.24897,0.11906 0.24897,0.26458 0,0.14552 -0.18562,0.26459 -0.41249,0.26459 -0.22687,0 -0.33891,-0.11907 -0.24897,-0.26459 z m 3.95317,-0.1407 c 0.57171,-0.43242 1.2062,-0.51382 1.2062,-0.15474 0,0.12855 -0.26789,0.30552 -0.59531,0.39326 -0.95797,0.25673 -1.16091,0.17749 -0.61089,-0.23852 z m 5.06823,-6.82567 -0.76819,-0.32792 0.6359,-0.40753 c 0.92148,-0.59056 1.5079,-0.76897 1.95881,-0.59594 0.5629,0.21601 0.4921,1.08443 -0.1149,1.40929 -0.63042,0.33739 -0.75171,0.33187 -1.71162,-0.0779 z m -11.52114,-1.75274 c -0.29588,-0.18565 -0.20554,-0.28315 0.39687,-0.42831 0.42897,-0.10337 1.29135,-0.48321 1.91638,-0.84407 1.09949,-0.6348 1.61797,-0.66644 1.25337,-0.0765 -0.18962,0.3068 -1.78557,1.16602 -2.65438,1.42905 -0.29104,0.0881 -0.70155,0.052 -0.91224,-0.0802 z m 1.08782,-2.6365 c 0.82418,-0.26358 1.9098,-0.73342 2.41248,-1.0441 1.02109,-0.63107 1.2484,-0.68583 1.2484,-0.30077 0,0.14525 -0.56555,0.61924 -1.25677,1.0533 -0.97016,0.60923 -1.55847,0.78711 -2.57969,0.78001 l -1.32292,-0.009 z"
       id="path17" />
  </g>
</svg>
