<?xml version="1.0" encoding="UTF-8" standalone="no"?>
<!-- Created with Inkscape (http://www.inkscape.org/) -->

<svg
   width="31.749928mm"
   height="60.230412mm"
   viewBox="0 0 31.749927 60.23041"
   version="1.1"
   id="svg1"
   inkscape:version="1.4.1-rc (06eac75fbf, 2025-03-29)"
   sodipodi:docname="mounts2.svg"
   xmlns:inkscape="http://www.inkscape.org/namespaces/inkscape"
   xmlns:sodipodi="http://sodipodi.sourceforge.net/DTD/sodipodi-0.dtd"
   xmlns="http://www.w3.org/2000/svg"
   xmlns:svg="http://www.w3.org/2000/svg">
  <sodipodi:namedview
     id="namedview1"
     pagecolor="#ffffff"
     bordercolor="#000000"
     borderopacity="0.25"
     inkscape:showpageshadow="2"
     inkscape:pageopacity="0.0"
     inkscape:pagecheckerboard="0"
     inkscape:deskcolor="#d1d1d1"
     inkscape:document-units="mm"
     inkscape:zoom="0.72248176"
     inkscape:cx="59.517073"
     inkscape:cy="114.18973"
     inkscape:window-width="1850"
     inkscape:window-height="1016"
     inkscape:window-x="0"
     inkscape:window-y="0"
     inkscape:window-maximized="1"
     inkscape:current-layer="layer1" />
  <defs
     id="defs1" />
  <g
     inkscape:label="Layer 1"
     inkscape:groupmode="layer"
     id="layer1"
     transform="translate(-89.164582,-118.26976)">
    <path
       style="fill:#000000"
       d="m 112.69044,178.47927 -0.50712,-0.0209 0.34727,-0.13896 0.34726,-0.13897 0.15986,0.15986 0.15985,0.15985 z m 1.08038,0.0209 h -0.10106 l -0.16352,-0.26458 -0.16353,-0.26458 h 0.42811 0.42811 l -0.16353,0.26458 -0.16352,0.26458 z m -2.51354,-0.26458 h -0.35278 l 0.17638,-0.17639 0.1764,-0.17639 0.17639,0.17639 0.17639,0.17639 z m -6.17362,-0.61736 -0.17639,0.17639 v -0.35278 -0.35278 l 0.17639,0.17639 0.17639,0.17639 z m 1.25677,0.0673 -0.50711,-0.0209 0.34726,-0.13896 0.34727,-0.13897 0.15985,0.15985 0.15985,0.15986 z m 6.10748,0.0209 h -0.39688 v -0.26458 -0.26459 h 0.39688 0.39687 v 0.26459 0.26458 z m 1.90152,-0.1908 -0.31402,0.11757 -0.45095,-0.16182 -0.45095,-0.16183 0.63351,-0.29834 0.6335,-0.29834 0.13146,0.34259 0.13146,0.34259 z m -0.31402,-0.0738 h 0.13229 v -0.1323 -0.13229 h -0.13229 -0.13229 v 0.13229 0.13229 z m 1.93228,0.26458 h -0.87706 l -0.36319,-0.82048 -0.36318,-0.82048 -0.16442,0.22517 -0.16443,0.22516 -0.58951,-0.008 -0.58951,-0.008 -0.40989,-0.52152 -0.4099,-0.52152 0.0489,0.39687 0.0489,0.39688 -0.20492,0.46977 -0.20493,0.46977 -0.4155,-0.33748 -0.41553,-0.33748 0.17353,0.46302 0.17352,0.46302 h -0.24066 -0.24067 l -0.16554,-0.26786 -0.16555,-0.26786 -0.40446,0.22635 -0.40446,0.22635 -0.63623,-0.12163 -0.63624,-0.12162 v -0.26845 -0.26836 l 0.95883,0.1556 0.95882,0.15559 -0.16096,-0.16096 -0.16096,-0.16096 0.45891,-0.3367 0.45891,-0.33669 0.50793,0.44283 0.50792,0.44282 -0.62383,-0.8599 -0.62383,-0.85989 h -0.0742 -0.0742 l 0.17353,0.46302 0.17352,0.46302 -0.42909,-0.34875 -0.42909,-0.34875 -0.50081,-0.97417 -0.50081,-0.97416 0.0576,-1.32292 0.0577,-1.32292 0.0951,-0.3638 0.0951,-0.3638 -0.30719,-0.11342 -0.30719,-0.11342 -0.5641,0.60549 -0.5641,0.60549 -0.81824,-0.0858 -0.81823,-0.0858 -0.22465,0.35443 -0.22465,0.35444 -0.004,0.71829 -0.004,0.7183 -0.53464,0.28613 -0.53463,0.28612 -0.24964,-0.15428 -0.24964,-0.15428 -0.67425,1.06809 -0.67426,1.06809 h -0.24343 -0.24344 l -0.15797,0.49774 -0.15798,0.49774 -0.52131,0.60107 -0.52131,0.60108 v -0.27267 -0.27267 l 0.39687,-0.32938 0.39688,-0.32937 v -0.32524 -0.32524 l 0.7276,-0.78732 0.7276,-0.78732 0.26459,-0.4491 0.26458,-0.44909 0.63111,-0.11744 0.63112,-0.11745 0.1607,-0.16071 0.16071,-0.1607 0.26758,-1.10436 0.26759,-1.10436 0.99111,0.0776 0.99112,0.0776 v -0.54062 -0.54062 h 0.37524 0.37523 l 0.41042,-0.15749 0.41041,-0.15749 0.80185,0.87791 0.80185,0.87792 0.008,0.53634 0.008,0.53635 0.67846,0.49446 0.67845,0.49447 1.06583,-0.14296 1.06583,-0.14296 0.56251,0.6032 0.56251,0.6032 0.74477,1.09581 0.74476,1.09582 h 0.49639 0.49639 l 0.14941,0.24174 0.1494,0.24175 -0.77616,0.34356 -0.77617,0.34357 0.12883,0.20844 0.12882,0.20844 z m -0.52149,-0.79279 0.0896,-0.26884 0.30813,0.17276 0.30813,0.17275 -0.32805,-0.35364 -0.32805,-0.35363 -0.38593,-0.0566 -0.38592,-0.0566 0.31623,0.50636 0.31623,0.50637 z m -0.0879,-0.26554 h -0.13229 v -0.1323 -0.13229 h 0.13229 0.13229 v 0.13229 0.1323 z m 1.05833,0 h 0.13229 v -0.1323 -0.13229 h -0.13229 -0.13229 v 0.13229 0.13229 z m -4.75519,-0.79375 h 0.10838 l -0.16895,-0.44028 -0.16896,-0.44028 0.35043,0.21657 0.35043,0.21658 -0.20304,-0.32852 -0.20303,-0.32851 -0.26459,0.26458 -0.26458,0.26458 0.17777,0.28764 0.17777,0.28764 z m 1.66139,-0.12529 0.14811,-0.14812 -0.32877,-0.32632 -0.32876,-0.32632 0.18065,0.47444 0.18065,0.47443 z m 0.44797,-0.1393 h 0.13229 v -0.1323 -0.13229 h -0.13229 -0.13229 v 0.13229 0.1323 z m 0.80936,-0.52916 h 0.11668 v -0.11669 -0.11668 l -0.30546,-0.18878 -0.30547,-0.18879 0.18879,0.30546 0.18879,0.30547 z m -3.70418,-0.52918 h 0.11668 v -0.11667 -0.11668 l -0.30546,-0.18879 -0.30547,-0.18879 0.18879,0.30547 0.18879,0.30546 z m 2.10106,0 h 0.1323 v -0.13229 -0.13229 h -0.1323 -0.13229 v 0.13229 0.13229 z m 0.73303,-0.4949 0.25274,-0.25274 -0.17063,-0.27608 -0.17062,-0.27608 -0.39516,0.15163 -0.39515,0.15164 0.31304,0.37719 0.31304,0.37719 z m 0.85447,0.23032 h 0.1323 v -0.13229 -0.13229 h -0.1323 -0.13229 v 0.13229 0.13229 z m -2.10105,-0.26458 h 0.11668 v -0.26459 -0.26458 h -0.2802 -0.2802 l 0.16352,0.26458 0.16353,0.26459 z m -1.07395,-0.26459 h 0.1323 v -0.13229 -0.13229 h -0.1323 -0.13229 v 0.13229 0.13229 z m -1.02594,-0.26458 h 0.0999 v -0.0999 -0.0999 l -0.46302,-0.36313 -0.46302,-0.36312 0.36312,0.46302 0.36313,0.46302 z m 1.04156,-0.26458 h 0.11668 v -0.11668 -0.11668 l -0.30547,-0.18879 -0.30547,-0.18878 0.18879,0.30546 0.18879,0.30547 z m -4.24896,4.22523 h -0.26458 l 0.39687,-0.25648 0.39688,-0.25649 h 0.26458 0.26459 l -0.39688,0.25649 -0.39687,0.25648 z m -2.926,-0.52107 h -0.11668 v -0.26458 -0.26458 h 0.2802 0.2802 l -0.16352,0.26458 -0.16352,0.26458 z m 1.20624,-1.5875 h -0.35278 l 0.17639,-0.17639 0.17639,-0.17639 0.17639,0.17639 0.17639,0.17639 z m 2.49793,-0.26458 h -0.11668 v -0.26458 -0.26459 h 0.2802 0.2802 l -0.16352,0.26459 -0.16352,0.26458 z m -1.23803,-0.3642 -0.72448,-0.0327 -0.12194,-0.31726 -0.12195,-0.31725 0.35664,0.13685 0.35664,0.13686 0.17467,-0.28262 0.17467,-0.28262 h 0.28136 0.28137 l -0.30802,0.37114 -0.30803,0.37115 0.34177,0.12455 0.34178,0.12455 z m -2.71511,-2.54622 h -0.13229 v -0.13229 -0.13229 h 0.13229 0.13229 v 0.13229 0.13229 z m -1.88331,-0.26458 h -0.13229 l 0.16352,-0.26458 0.16352,-0.26459 h 0.13229 0.13229 l -0.16352,0.26459 -0.16352,0.26458 z m 1.29941,-0.1493 -0.47443,0.18065 0.32632,-0.32877 0.32632,-0.32876 0.14811,0.14811 0.14811,0.14811 z m 14.50577,0.1493 h -0.26459 l -0.16352,-0.26458 -0.16352,-0.26459 h 0.26458 0.26459 l 0.16352,0.26459 0.16352,0.26458 z M 101.3354,171.621 h -0.13229 v -0.1323 -0.13229 h 0.13229 0.13229 v 0.13229 0.1323 z m 1.69669,-0.41948 -0.37377,0.19413 0.51359,-0.41649 0.51359,-0.4165 0.67703,0.0271 0.67704,0.0271 -0.81685,0.19528 -0.81684,0.19528 z m 13.1356,-0.10969 h -0.11668 l -0.16353,-0.26458 -0.16352,-0.26459 h 0.2802 0.2802 v 0.26459 0.26458 z m 1.20624,0 h -0.26458 l -0.16353,-0.26458 -0.16352,-0.26459 h 0.26459 0.26457 l 0.16353,0.26459 0.16352,0.26458 z m -16.5677,-0.26458 h -0.13229 v -0.1323 -0.13229 h 0.13229 0.13229 v 0.13229 0.1323 z m 12.68376,-0.006 -0.24833,-0.006 -0.66146,-0.5174 -0.66147,-0.5174 0.3418,-0.006 0.3418,-0.006 0.56799,0.52916 0.56798,0.52917 z m -10.56709,-0.2587 h -0.13229 v -0.1323 -0.13229 h 0.13229 0.13229 v 0.13229 0.1323 z m -1.73158,-0.34687 -0.51738,0.079 0.01,-0.19677 0.01,-0.19678 1.07552,-0.74447 1.07552,-0.74448 -0.15541,-0.1554 -0.1554,-0.15541 0.45891,-0.33799 0.4589,-0.338 -0.39687,-0.13981 -0.39688,-0.13981 -0.79375,-0.10403 -0.79375,-0.10402 1.19063,-0.066 1.19062,-0.066 -0.66145,-0.21184 -0.66146,-0.21183 0.63941,-0.0264 0.63941,-0.0264 -0.16942,-0.16942 -0.16942,-0.16942 0.4345,-0.73554 0.4345,-0.73555 0.90848,-0.17043 0.90848,-0.17043 0.14936,0.14935 0.14935,0.14935 h -0.49389 -0.49389 l 0.3175,0.3175 0.3175,0.3175 0.2296,-0.25135 0.22959,-0.25136 0.15832,-0.84815 0.15832,-0.84815 -0.40312,0.15469 -0.40312,0.15469 0.13402,0.34926 0.13403,0.34926 -0.3834,-0.14713 -0.3834,-0.14712 v -0.20387 -0.20388 l 0.33072,-0.2733 0.33073,-0.2733 1.05834,-0.15026 1.05833,-0.15026 -0.66146,0.235 -0.66146,0.23499 0.99166,-0.0423 0.99166,-0.0423 5.3e-4,-0.16016 5.3e-4,-0.16016 -0.8599,-0.25863 -0.85989,-0.25863 1.05526,-0.45396 1.05526,-0.45395 0.66453,0.18807 0.66453,0.18807 -0.79375,0.1781 -0.79375,0.17811 0.79375,0.1097 0.79375,0.10969 0.59175,1.17331 0.59175,1.17331 0.52887,0.039 0.52887,0.039 0.48994,0.44338 0.48993,0.44338 0.81519,-0.16304 0.81519,-0.16303 0.42532,0.82249 0.42533,0.82249 h 0.42589 0.42588 l 0.61302,0.66146 0.61302,0.66145 h 0.62352 0.62352 l 0.51359,0.38372 0.5136,0.38371 -0.66146,-0.14208 -0.66146,-0.14208 0.39687,0.28348 0.39688,0.28348 -0.26458,0.008 -0.26459,0.008 0.35178,0.22301 0.35177,0.22301 -1.11048,0.28187 -1.11048,0.28187 -0.40918,-0.15702 -0.40917,-0.15701 0.20481,0.3314 0.20482,0.3314 -0.75673,-0.3767 -0.75672,-0.37669 -0.66146,0.19617 -0.66146,0.19618 -0.33073,0.0264 -0.33073,0.0264 v -0.29289 -0.29289 l 0.39688,0.15229 0.39687,0.1523 -0.0146,-0.19014 -0.0146,-0.19013 -0.84525,-0.65627 -0.84526,-0.65626 0.38265,0.48135 0.38264,0.48135 -0.38264,-0.0693 -0.38265,-0.0693 -0.69414,0.33757 -0.69413,0.33758 -0.60496,-0.32375 -0.60494,-0.32376 0.44128,-0.24695 0.44129,-0.24695 0.30337,0.18749 0.30337,0.18749 -0.17483,-0.28286 -0.17482,-0.28287 0.319,-0.10633 0.319,-0.10634 -0.46338,-0.17781 -0.46339,-0.17782 0.18287,0.29588 0.18286,0.29587 -0.36756,-0.12252 -0.36757,-0.12251 -0.0161,-0.24254 -0.0161,-0.24253 -0.48104,-1.05834 -0.48103,-1.05833 -0.032,-1.52124 -0.032,-1.52123 -0.46303,-1.2e-4 -0.46302,-1.2e-4 v 0.39183 0.39184 l -0.59531,0.12703 -0.59531,0.12703 -0.52917,0.0791 -0.52916,0.0791 -0.0904,0.63721 -0.0904,0.63721 -0.82032,0.8153 -0.82031,0.81529 0.17154,-0.45455 0.17155,-0.45454 -0.23184,-0.14329 -0.23184,-0.14328 -0.55035,0.69966 -0.55036,0.69966 v 0.59338 0.59338 l -0.39687,0.32937 -0.39688,0.32938 v 0.32347 0.32347 l -0.54095,0.48956 -0.54095,0.48955 z m 0.37743,-0.1823 h 0.13229 l 0.16353,-0.26457 0.16352,-0.26458 h -0.13229 -0.1323 l -0.16352,0.26458 -0.16352,0.26459 z m 16.35441,-0.26457 h 0.25109 l -0.39688,-0.39687 -0.39687,-0.39688 h -0.18359 -0.18359 l 0.32938,0.39688 0.32938,0.39687 z m -2.43254,-0.26458 h 0.35277 l -0.17638,-0.17639 -0.17639,-0.17639 -0.17639,0.17639 -0.17639,0.17639 z m 3.43958,0 h 0.35278 l -0.17639,-0.17639 -0.17639,-0.17639 -0.17639,0.17639 -0.17639,0.17639 z m -2.43705,-0.26458 h 0.40858 l -0.11025,-0.0964 -0.11024,-0.0965 -0.66146,-0.34374 -0.66146,-0.34374 0.36313,0.44019 0.36313,0.44019 z m 1.77559,0 h 0.13229 v -0.1323 -0.13229 h -0.13229 -0.13229 v 0.13229 0.1323 z m -7.14376,-0.26459 h 0.1323 v -0.13229 -0.13229 h -0.1323 -0.13229 v 0.13229 0.13229 z m 7.40835,-0.26458 h 0.13229 v -0.13229 -0.13229 h -0.13229 -0.1323 v 0.13229 0.13229 z m -6.05694,-0.26458 h 0.0726 l 0.15222,-0.24631 0.15223,-0.2463 -0.22481,-0.13893 -0.22481,-0.13894 v 0.38524 0.38524 z m 1.55902,-0.52917 h 0.13229 v -0.13229 -0.13229 h -0.13229 -0.13229 v 0.13229 0.13229 z m 0.56156,-0.26458 h 0.0999 v -0.0999 -0.0999 l -0.46302,-0.36313 -0.46302,-0.36313 0.36313,0.46302 0.36312,0.46303 z m -3.2074,-0.26459 h 0.1323 v -0.13229 -0.13229 h -0.1323 -0.13229 v 0.13229 0.13229 z m 4.63021,-0.29872 0.66146,6e-4 -0.59746,-0.24009 -0.59746,-0.24008 -0.27731,-0.60861 -0.2773,-0.60862 -1.00084,0.0954 -1.00084,0.0954 -0.4206,-0.4206 -0.4206,-0.4206 h -0.34235 -0.34236 l 0.5219,0.36512 0.52189,0.36513 1.45521,0.80813 1.4552,0.80814 z m -2.44739,-0.24104 0.0661,0.0106 v -0.12549 -0.1255 l -0.79375,-0.41046 -0.79375,-0.41047 v 0.13064 0.13064 l 0.7276,0.39473 0.72761,0.39473 z m -2.39939,-0.25399 h 0.14908 l -0.2947,-0.35507 -0.29468,-0.35507 0.1476,-0.1476 0.1476,-0.1476 -0.25896,-0.16005 -0.25896,-0.16005 0.0504,0.33199 0.0504,0.33199 0.20661,0.33073 0.20661,0.33073 z m 0.51355,-0.79375 h 0.0999 v -0.0999 -0.0999 l -0.46302,-0.36312 -0.46303,-0.36313 0.36314,0.46302 0.36313,0.46302 z m -7.85111,-0.26458 h 0.31588 l 0.39688,-0.39688 0.39687,-0.39687 h -0.38337 -0.38338 l -0.32938,0.39687 -0.32938,0.39688 z m 6.49579,-0.52917 h 0.13229 v -0.13229 -0.13229 h -0.13229 -0.13229 v 0.13229 0.13229 z m 0.30868,-1.41111 0.17639,-0.17639 -0.17639,-0.17639 -0.17639,-0.17639 v 0.35278 0.35278 z m -2.29305,-1.4993 h 0.35277 l -0.17638,-0.17639 -0.17639,-0.17639 -0.17639,0.17639 -0.17639,0.17639 z m -4.65226,8.18119 -0.50712,-0.0209 0.34727,-0.13896 0.34726,-0.13897 0.15986,0.15985 0.15985,0.15986 z m -1.06751,-0.24369 h -0.1323 l 0.16353,-0.26459 0.16352,-0.26458 h 0.13229 0.13229 l -0.16352,0.26458 -0.16352,0.26459 z m -1.82086,-0.79375 h -0.13229 v -0.1323 -0.13229 h 0.13229 0.13229 v 0.13229 0.1323 z m 0.13229,-0.52917 h -0.35277 l 0.17639,-0.17639 0.17638,-0.17639 0.17639,0.17639 0.17639,0.17639 z m 1.19063,-0.26458 h -0.13229 v -0.1323 -0.13229 h 0.13229 0.13229 v 0.13229 0.1323 z m -1.05833,-0.26459 h -0.1323 v -0.13229 -0.13229 h 0.1323 0.13229 v 0.13229 0.13229 z m 6.48229,0 h -0.35278 l 0.17639,-0.17639 0.17639,-0.17639 0.17639,0.17639 0.17639,0.17639 z m -0.8788,-0.26863 -0.21733,0.004 0.42837,-0.42838 0.42837,-0.42837 0.17818,0.17818 0.17817,0.17817 -0.38921,0.24615 -0.38921,0.24614 z m -5.20662,-0.26053 h -0.35278 l 0.17639,-0.17639 0.17639,-0.17639 0.17639,0.17639 0.17639,0.17639 z m 1.32292,0 h -0.35278 l 0.17639,-0.17639 0.17639,-0.17639 0.17639,0.17639 0.17639,0.17639 z m 3.35139,-0.0882 -0.17639,0.17638 v -0.35278 -0.35278 l 0.17639,0.17639 0.17639,0.17639 z m 1.78593,-0.72645 -0.50711,-0.0209 0.34726,-0.13896 0.34727,-0.13897 0.15985,0.15986 0.15985,0.15985 z m -6.19566,-0.2437 h -0.35277 l 0.17639,-0.17639 0.17638,-0.17639 0.17639,0.17639 0.17639,0.17639 z m 0.11025,-0.55005 -0.50712,-0.0209 0.34727,-0.13897 0.34726,-0.13896 0.15985,0.15985 0.15986,0.15985 z m 0.55121,-0.77286 h -0.13229 v -0.1323 -0.13229 h 0.13229 0.13229 v 0.13229 0.1323 z m -0.66146,-1.05834 h -0.35277 l 0.17639,-0.17639 0.17638,-0.17639 0.17639,0.17639 0.17639,0.17639 z m 13.62605,0 h -0.39688 v -0.26458 -0.26458 h 0.39688 0.39688 v 0.26458 0.26458 z m 2.77813,-0.045 -0.39688,-0.008 -0.66145,-0.21183 -0.66146,-0.21184 0.52916,-0.008 0.52917,-0.008 0.52916,0.22739 0.52917,0.22739 z m -17.06563,-0.21961 h -0.1323 v -0.13229 -0.13229 h 0.1323 0.13229 v 0.13229 0.13229 z m 10.71563,-0.52917 h -0.35278 l 0.17639,-0.17639 0.17639,-0.17639 0.17638,0.17639 0.17639,0.17639 z m -9.92188,-0.29501 -0.52917,0.0223 -0.39688,-0.28067 -0.39687,-0.28068 0.33238,-0.13474 0.33238,-0.13475 -0.17483,-0.28287 -0.17482,-0.28286 0.25729,0.15901 0.25729,0.15902 0.72696,-0.67408 0.72696,-0.67407 -0.095,-0.095 -0.095,-0.095 -0.58078,0.15188 -0.58079,0.15188 0.13364,0.21622 0.13363,0.21622 -0.25062,0.15489 -0.25062,0.15489 -0.15488,-0.25061 -0.15489,-0.25062 0.59962,-0.64297 0.59963,-0.64297 0.66146,-0.16662 0.66146,-0.16662 -0.33073,0.15189 -0.33073,0.1519 v 0.2734 0.27339 l 0.52916,-0.13838 0.52917,-0.13838 v 0.23981 0.23981 h -0.21128 -0.21129 l -1.16176,1.11633 -1.16177,1.11634 0.64545,0.18021 0.64544,0.18021 z m 0.79375,0.0304 h -0.1323 v -0.13229 -0.13229 h 0.1323 0.13229 v 0.13229 0.13229 z m 10.18646,0 h -0.63501 l 0.3175,-0.3175 0.3175,-0.3175 0.3175,0.3175 0.3175,0.3175 z m -8.59896,-0.26457 h -0.1323 v -0.1323 -0.13229 h 0.1323 0.13229 v 0.13229 0.1323 z m -1.85209,-0.26459 h -0.13229 v -0.13229 -0.13229 h 0.13229 0.13229 v 0.13229 0.13229 z m 8.63271,-0.53322 -0.16604,-0.004 -0.39688,-0.27786 -0.39687,-0.27786 0.66146,0.15929 0.66146,0.15929 -0.76446,-0.4343 -0.76445,-0.4343 0.33072,-0.2044 0.33072,-0.20439 0.48548,0.12695 0.48547,0.12695 -0.0419,-0.55625 -0.0419,-0.55626 h -0.19917 -0.19915 l -0.812,-0.79375 -0.81199,-0.79375 h -0.22958 -0.22958 l -0.3388,-0.8599 -0.33879,-0.8599 -0.29541,-0.76226 -0.2954,-0.76227 -0.42549,0.64938 -0.42549,0.64938 -0.0907,0.62207 -0.0907,0.62206 -0.79375,0.46367 -0.79375,0.46367 -0.19844,0.0193 -0.19843,0.0193 v -0.24675 -0.24675 l 0.54309,-0.17238 0.5431,-0.17237 -0.31091,-0.37462 -0.31091,-0.37463 0.36313,-0.004 0.36312,-0.004 -0.39687,-0.25648 -0.39688,-0.25648 h 0.26458 0.26459 l 0.39687,0.25648 0.39688,0.25648 -0.34635,0.004 -0.34634,0.004 0.16619,0.2689 0.16619,0.2689 0.2463,-0.15222 0.2463,-0.15222 v -0.64585 -0.64584 h -0.2802 -0.2802 l 0.16352,0.26458 0.16353,0.26459 -0.21405,-0.004 -0.21406,-0.004 -0.39687,-0.25648 -0.39688,-0.25648 0.52917,-0.0444 0.52917,-0.0444 0.39353,-0.0263 0.39353,-0.0263 0.33119,-0.691 0.33119,-0.691 0.68523,0.13099 0.68524,0.13099 0.42891,0.89945 0.42892,0.89945 0.67467,0.13454 0.67467,0.13454 0.72342,0.37167 0.72342,0.37167 0.40106,-0.40106 0.40107,-0.40106 v -0.36867 -0.36867 l -0.48639,-0.26031 -0.4864,-0.2603 -0.57194,0.14956 -0.57194,0.14957 v 0.23372 0.23373 l -0.59532,-0.0164 -0.59532,-0.0164 1.12324,-0.56427 1.12322,-0.56427 0.72886,0.25872 0.72886,0.25872 v 0.85816 0.85816 l 0.39688,0.2535 0.39687,0.2535 0.60624,0.004 0.60624,0.004 0.79946,1.28606 0.79946,1.28606 0.97555,0.28836 0.97555,0.28836 0.79375,0.17899 0.79375,0.17899 -0.85554,0.36224 -0.85553,0.36224 -1.90394,0.11957 -1.90394,0.11957 -0.2214,-0.13684 -0.22141,-0.13683 0.16968,-0.27455 0.16969,-0.27455 0.16536,0.2564 0.16536,0.25641 1.19063,-0.19504 1.19062,-0.19504 -1.16979,-0.0331 -1.16979,-0.0331 -0.51902,-0.46302 -0.51901,-0.46302 0.17821,0.57305 0.17822,0.57304 -0.29038,0.17947 -0.29039,0.17947 -0.65724,-0.16496 -0.65724,-0.16496 0.12914,-0.20895 0.12914,-0.20895 -0.77127,0.1132 -0.77126,0.11319 -0.30549,0.3681 -0.30549,0.36809 z m 3.00896,-0.52511 h 0.13229 v -0.13229 -0.13229 h -0.13229 -0.13228 v 0.13229 0.13229 z m 4.49792,-0.26458 h 0.13229 v -0.1323 -0.13229 h -0.13229 -0.1323 v 0.13229 0.1323 z m -4.73513,-0.26459 h 0.0883 l -0.17351,-0.46302 -0.17353,-0.46302 0.44641,0.36313 0.44642,0.36312 v -0.12368 -0.12368 l -0.54874,-0.4966 -0.54874,-0.49661 0.0509,0.25716 0.0509,0.25716 -0.0313,0.2119 -0.0313,0.21191 -0.8599,-0.63589 -0.85989,-0.63589 -0.39688,-0.19095 -0.39688,-0.19095 0.52917,0.42789 0.52917,0.42788 v 0.23997 0.23996 l 0.38411,0.34396 0.38412,0.34396 -0.35037,-0.46302 -0.35036,-0.46302 h 0.1891 0.1891 l 0.67273,0.52917 0.67272,0.52916 z m 3.41221,0 h 0.13229 v -0.13229 -0.13229 h -0.13229 -0.13229 v 0.13229 0.13229 z m -1.5703,-0.26458 h 0.0847 l -0.1118,-0.58057 -0.11181,-0.58057 -0.43308,-0.41162 -0.43307,-0.41162 0.3048,0.59532 0.3048,0.59531 h -0.174 -0.174 l 0.32938,0.39687 0.32938,0.39688 z m -0.28179,-0.52917 h -0.13229 v -0.13229 -0.13229 h 0.13229 0.1323 v 0.13229 0.13229 z m 0.79375,0.52917 h 0.1323 v -0.13229 -0.13229 h -0.1323 -0.13229 v 0.13229 0.13229 z m 0.53648,-0.79375 h 0.10838 l -0.15668,-0.40829 -0.15667,-0.40828 -0.1261,0.1261 -0.12609,0.1261 0.1744,0.28218 0.1744,0.28219 z m -1.06564,-1.5875 h 0.13229 v -0.13229 -0.13229 h -0.13229 -0.13229 v 0.13229 0.13229 z m -1.24116,-0.26864 0.0818,0.004 -0.16352,-0.26458 -0.16352,-0.26458 -0.31512,0.004 -0.31511,0.004 0.39688,0.25648 0.39687,0.25648 z m -3.12447,-0.5429 0.13229,9.6e-4 -0.51359,-0.38846 -0.51359,-0.38846 -0.28016,0.009 -0.28016,0.009 0.66146,0.37812 0.66146,0.37813 z m -10.84791,3.98654 h -0.35278 l 0.17639,-0.17639 0.17639,-0.17639 0.17639,0.17639 0.17639,0.17639 z m 4.74688,0 h -0.28019 l 0.16352,-0.26458 0.16352,-0.26459 h 0.11667 0.11668 v 0.26459 0.26458 z m 0.81069,-1.05904 -0.49837,0.26672 -0.13195,-0.21349 -0.13194,-0.21348 0.77919,-0.29411 0.77918,-0.29411 -0.14887,0.24087 -0.14887,0.24088 z m -5.68986,7.1e-4 h -0.1323 v -0.1323 -0.13229 h 0.1323 0.13229 v 0.13229 0.1323 z m 4.23333,-0.52917 h -0.13229 v -0.13229 -0.13229 h 0.13229 0.13229 v 0.13229 0.13229 z m -0.39688,-0.66146 -0.22739,0.52917 -0.0499,-0.26459 -0.0499,-0.26458 0.0223,-0.1713 0.0223,-0.1713 -0.53139,0.13896 -0.53139,0.13896 0.0774,-0.36453 0.0774,-0.36454 0.26459,-0.19439 0.26458,-0.19438 -0.33297,-0.004 -0.33297,-0.004 0.29675,-0.47517 0.29674,-0.47517 0.76383,-0.0582 0.76383,-0.0582 v 0.26879 0.26878 h -0.64584 -0.64585 l -0.13045,0.21107 -0.13044,0.21108 0.21621,0.34984 0.21621,0.34984 0.28745,-0.49477 0.28745,-0.49476 -0.0105,0.52916 -0.0106,0.52917 z m -2.11666,-0.92604 h -0.35278 l 0.17639,-0.17639 0.17639,-0.17639 0.17639,0.17639 0.17639,0.17639 z m 5.82083,0 h -0.35278 l 0.17639,-0.17639 0.17639,-0.17639 0.17639,0.17639 0.17639,0.17639 z m -6.74687,-0.26458 h -0.1323 v -0.1323 -0.13229 h 0.1323 0.13229 v 0.13229 0.1323 z m 1.03628,-0.28548 -0.50712,-0.0209 0.34727,-0.13896 0.34726,-0.13896 0.15986,0.15985 0.15985,0.15985 z m -3.63802,-0.33189 -0.176389,0.17639 v -0.35277 -0.35278 l 0.176389,0.17639 0.176389,0.17639 z m 3.66007,-0.17638 h -0.13229 v -0.1323 -0.13229 h 0.13229 0.13229 v 0.13229 0.1323 z m 16.11754,-0.0209 -0.50712,-0.0209 0.34727,-0.13897 0.34727,-0.13896 0.15985,0.15985 0.15985,0.15985 z m -17.30817,-0.2437 h -0.35277 l 0.17639,-0.17639 0.17638,-0.17639 0.17639,0.17639 0.17639,0.17639 z m -2.778121,-0.26458 h -0.132291 v -0.13229 -0.13229 h 0.132291 0.132292 v 0.13229 0.13229 z m 17.015091,-0.004 -0.4474,0.004 -0.16352,-0.26458 -0.16353,-0.26459 0.21407,0.004 0.21405,0.004 0.39687,0.25648 0.39688,0.25648 z m 1.17501,0 -0.5953,0.004 v -0.26458 -0.26459 l 0.19844,0.004 0.19843,0.004 0.39688,0.25648 0.39687,0.25648 z m -16.07343,-0.52507 h -0.1323 v -0.13229 -0.13229 h 0.1323 0.13229 v 0.13229 0.13229 z m 2.06193,-0.1493 -0.47443,0.18065 0.32632,-0.32876 0.32632,-0.32877 0.14811,0.14811 0.14811,0.14812 z m -2.31807,-0.28742 -0.432806,0.16608 0.161648,-0.26156 0.161649,-0.26155 -0.346344,-0.008 -0.346344,-0.008 0.46302,-0.26968 0.463017,-0.26969 v -0.27974 -0.27974 l -0.396871,0.15229 -0.396875,0.1523 v -0.38857 -0.38858 h 0.242944 0.242944 l 0.461918,-0.17725 0.46192,-0.17726 -0.19131,0.30955 -0.19131,0.30955 h 0.18282 0.18282 l 0.89113,-0.55075 0.89112,-0.55074 v 0.25601 0.25602 l -0.99218,0.46965 -0.99219,0.46965 -0.30818,0.41872 -0.308171,0.41871 0.264211,0.16329 0.26422,0.1633 z m 0.25614,-1.41536 h 0.13229 v -0.13229 -0.13229 h -0.13229 -0.1323 v 0.13229 0.13229 z m 11.88421,1.56661 -0.50712,-0.0209 0.34726,-0.13896 0.34727,-0.13897 0.15985,0.15985 0.15985,0.15986 z m -6.55571,-0.51416 -0.30142,-0.006 0.66146,-0.5174 0.66146,-0.5174 0.26458,0.003 0.26458,0.003 -0.62462,0.52036 -0.62462,0.52037 z m -6.651421,-0.2587 h -0.132291 v -0.13229 -0.13229 h 0.132291 0.132292 v 0.13229 0.13229 z m 18.470301,-0.0397 -0.21405,-0.0397 -1.19063,-0.18511 -1.19061,-0.1851 1.27237,-0.0397 1.2724,-0.0397 -0.1399,-0.22637 -0.1399,-0.22636 0.65736,0.12566 0.65736,0.12567 0.15054,0.24359 0.15055,0.2436 -0.72309,-0.18148 -0.72309,-0.18149 0.18737,0.30317 0.18737,0.30317 z m -19.544249,-0.48943 h -0.41249 l 0.166189,-0.2689 0.166189,-0.2689 0.246301,0.15223 0.246301,0.15222 v 0.11668 0.11667 z m 0.79375,0 h -0.116677 v -0.26458 -0.26458 h 0.280198 0.280199 l -0.163522,0.26458 -0.163521,0.26458 z m 11.128109,0 h -0.13229 v -0.13229 -0.13229 h 0.13229 0.1323 v 0.13229 0.13229 z m 3.90262,-0.004 -0.59531,0.004 v -0.26458 -0.26458 l 0.19843,0.004 0.19844,0.004 0.39688,0.25648 0.39687,0.25648 z m 5.0427,-0.27913 -0.21405,-0.0186 -0.52917,-0.2167 -0.52917,-0.2167 -0.71787,0.13413 -0.71787,0.13414 -0.72354,-0.1816 -0.72354,-0.1816 0.33479,-0.20691 0.33478,-0.2069 -0.80824,-0.33479 -0.80824,-0.33479 0.10292,-0.16773 0.10292,-0.16773 -0.82121,-0.0309 -0.8212,-0.0309 1.12181,0.52798 1.12181,0.52798 -0.11965,0.11965 -0.11964,0.11965 -0.55729,-0.29826 -0.5573,-0.29826 -0.32526,0.18695 -0.32526,0.18695 0.19443,-0.21481 0.19443,-0.2148 -0.6877,-0.35678 -0.6877,-0.35678 -0.43278,0.0209 -0.43278,0.0209 0.39688,0.14767 0.39687,0.14767 0.47333,0.4929 0.47334,0.4929 h -0.18792 -0.18791 l -0.41771,-0.36558 -0.41771,-0.36558 -0.62844,-0.19194 -0.62845,-0.19193 0.16974,0.27465 0.16974,0.27464 -0.28557,0.1765 -0.28557,0.17649 -0.50199,-0.4543 -0.502,-0.45429 0.0387,-0.16694 0.0387,-0.16693 -0.40451,-0.92604 -0.4045,-0.92605 -0.19069,-1.01823 -0.19068,-1.01823 0.25137,0.15536 0.25138,0.15536 0.13313,-0.5091 0.13314,-0.50911 -0.36711,-0.14087 -0.36711,-0.14087 -0.42783,0.65295 -0.42783,0.65295 h -0.48559 -0.48559 l -0.26019,-0.46302 -0.26018,-0.46302 -0.34371,1.28182 -0.3437,1.28182 -0.74064,0.383 -0.74065,0.383 -0.91071,1.26764 -0.91071,1.26765 h -0.76666 -0.766665 l 0.666145,-0.61736 0.66614,-0.61736 h 0.34893 0.34893 l 0.2739,-0.51177 0.27389,-0.51178 v -0.14968 -0.14969 l -0.46302,0.004 -0.46302,0.004 0.39687,0.25648 0.39688,0.25648 -0.55122,0.004 -0.55121,0.004 v -0.42433 -0.42434 l 0.88194,0.14312 0.88195,0.14312 v -0.24291 -0.24291 l 0.65963,-0.16555 0.65963,-0.16556 -0.14608,-0.23636 -0.14608,-0.23636 h 0.2986 0.2986 l -0.0845,-0.58447 -0.0846,-0.58446 -0.66146,-0.16048 -0.66146,-0.16048 0.71838,-0.14264 0.71837,-0.14264 0.093,0.27889 0.093,0.2789 0.18151,-0.47301 0.18151,-0.47301 -1.12514,0.14536 -1.12514,0.14536 1.02551,-0.28845 1.02551,-0.28845 0.94959,0.29144 0.9496,0.29144 0.56345,-0.52934 0.56345,-0.52934 0.43265,0.16603 0.43265,0.16602 0.59568,0.96382 0.59567,0.96383 0.005,0.39898 0.005,0.39899 0.92604,0.46261 0.92606,0.46261 0.59531,4.1e-4 0.59531,4.1e-4 v -0.26458 -0.26458 h 0.66146 0.66146 l 0.52916,0.52916 0.52917,0.52917 v 0.24133 0.24132 l 1.12448,0.20106 1.12448,0.20105 0.39687,0.0288 0.39688,0.0288 0.96124,0.21397 0.96123,0.21397 -0.13295,0.50842 -0.13296,0.50842 -0.62801,0.15762 -0.62802,0.15762 0.14608,0.23636 0.14608,0.23636 z m -2.99218,-0.51057 h 0.26457 v -0.26458 -0.26458 h -0.26457 -0.26458 v 0.26458 0.26458 z m 0.83679,-0.42348 0.30764,-0.19013 0.81685,-0.19527 0.81685,-0.19528 -0.70597,-0.0271 -0.70596,-0.0271 -0.41852,0.1606 -0.41851,0.1606 v 0.25189 0.25189 z m 1.94133,0.0922 1.05833,0.005 -0.45994,-0.1204 -0.45993,-0.12041 -0.5984,0.11507 -0.5984,0.11506 z m -17.75118,-0.19781 h 0.0916 l 0.32938,-0.39688 0.32937,-0.39687 h -0.26867 -0.26867 l -0.1523,0.39687 -0.15229,0.39688 z m 14.95745,-0.26459 h 0.24896 l 0.16164,-0.26155 0.16165,-0.26155 -0.41062,0.15757 -0.41061,0.15756 v 0.10399 0.10398 z m -6.20211,-0.26458 h 0.13229 v -0.13229 -0.13229 h -0.13229 -0.13229 v 0.13229 0.13229 z m 5.55625,0 h 0.13229 v -0.13229 -0.13229 h -0.13229 -0.13229 v 0.13229 0.13229 z m -0.56224,-0.26458 h 0.11583 l -0.14113,-0.53967 -0.14112,-0.53966 -0.13138,0.13138 -0.13137,0.13137 0.15668,0.40829 0.15667,0.40829 z m 1.09141,0 h 0.13229 v -0.1323 -0.13229 h -0.13229 -0.13229 v 0.13229 0.1323 z m -6.0698,-0.26459 h 0.11667 v -0.11667 -0.11668 l -0.30546,-0.18879 -0.30546,-0.18879 0.18878,0.30547 0.18879,0.30546 z m 0.77813,0 h 0.13229 v -0.13229 -0.13229 h -0.13229 -0.13229 v 0.13229 0.13229 z m 2.91042,0 h 0.13229 v -0.13229 -0.13229 h -0.13229 -0.13229 v 0.13229 0.13229 z m -1.19063,-0.26458 h 0.35278 l -0.17639,-0.17639 -0.17639,-0.17639 -0.17639,0.17639 -0.17637,0.17639 z m -2.23334,-0.52917 h 0.11668 v -0.11667 -0.11668 l -0.30547,-0.18879 -0.30546,-0.18879 0.18879,0.30547 0.18878,0.30546 z m 1.3073,0 h 0.13229 v -0.13229 -0.13229 h -0.13229 -0.13229 v 0.13229 0.13229 z m 3.175,-0.26458 h 0.13229 v -0.13229 -0.13229 h -0.13229 -0.13229 v 0.13229 0.13229 z m -5.82083,-1.32292 h 0.13229 v -0.13229 -0.13229 h -0.13229 -0.13229 v 0.13229 0.13229 z m -0.79375,4.18537 -1.05833,-0.0172 0.52916,-0.21339 0.52917,-0.2134 -0.39688,-0.0354 -0.39687,-0.0354 0.61975,-0.24832 0.61975,-0.24833 0.30629,0.1836 0.30629,0.18359 -0.39687,-0.49098 -0.39688,-0.49098 0.55093,0.29345 0.55093,0.29346 0.32289,0.38907 0.3229,0.38907 -0.47695,0.13917 -0.47695,0.13917 z m 0.54478,-0.21662 h 0.11668 v -0.11667 -0.11668 l -0.30547,-0.18879 -0.30546,-0.18879 0.18879,0.30547 0.18878,0.30546 z m 1.96876,0.26459 h -0.35278 l 0.17639,-0.17639 0.17639,-0.17639 0.17639,0.17639 0.17639,0.17639 z m 0.36564,-0.52917 h -0.39687 l 0.16352,-0.26458 0.16352,-0.26459 h 0.39688 0.39687 l -0.16352,0.26459 -0.16352,0.26458 z m -6.07582,-0.79375 h -0.11065 v -0.23373 -0.23372 l 0.52916,-0.13838 0.52917,-0.13838 v 0.2115 0.21151 l -0.41851,0.1606 -0.41852,0.1606 z M 99.880191,152.571 h -0.352778 l 0.176389,-0.17639 0.176389,-0.17639 0.176389,0.17639 0.17639,0.17639 z m -0.214052,-0.53322 -0.447406,-0.004 0.396875,-0.25648 0.396872,-0.25648 0.21405,-0.004 0.21406,-0.004 -0.16352,0.26458 -0.16353,0.26458 z m 1.647211,-0.0168 -0.50712,-0.0209 0.34727,-0.13897 0.34726,-0.13896 0.15986,0.15985 0.15985,0.15985 z m 4.51997,0.0209 h -0.1323 v -0.13229 -0.1323 h 0.1323 0.13229 v 0.1323 0.13229 z m -6.350004,-0.52917 h -0.132292 v -0.13229 -0.13229 h 0.132292 0.132292 v 0.13229 0.13229 z m 0.661454,-0.26458 h -0.352774 l 0.176389,-0.17639 0.176385,-0.17639 0.17639,0.17639 0.17639,0.17639 z m -0.529162,-0.56636 h -0.396875 l 0.529166,-0.22739 0.529171,-0.22739 h 0.39687 0.39688 l -0.52917,0.22739 -0.52917,0.22739 z m -0.926042,-0.25004 -0.264583,0.0145 0.396875,-0.25648 0.396875,-0.25648 0.396875,0.0146 0.396872,0.0145 -0.529164,0.22739 -0.529167,0.22739 z m 3.307294,-0.1006 -0.66146,0.13411 0.52917,-0.25142 0.52916,-0.25142 -0.52916,-0.0389 -0.52917,-0.0389 1.05833,-0.34879 1.05834,-0.3488 -0.39688,-0.0318 -0.39687,-0.0318 0.39687,-0.25648 0.39688,-0.25648 h 0.39687 0.39688 l -0.39688,0.25648 -0.39687,0.25648 0.34634,0.004 0.34634,0.004 -0.16352,0.26458 -0.16352,0.26458 -0.5797,0.004 -0.57969,0.004 0.39687,0.25648 0.39688,0.25648 -0.39688,0.008 -0.39687,0.008 z m -3.307294,-0.40592 h -0.132292 v -0.13229 -0.13229 h 0.132292 0.132292 v 0.13229 0.13229 z m 1.984374,-0.0418 h -0.66146 l 0.33073,-0.13345 0.33073,-0.13345 0.33073,0.13345 0.33073,0.13345 z m 15.34583,0.0418 h -0.26457 v -0.26458 -0.26459 h 0.26457 0.26459 v 0.26459 0.26458 z m -17.197912,-0.58713 -0.79375,0.0226 -0.02024,-0.0485 -0.02024,-0.0485 -0.09164,-0.48349 -0.09164,-0.4835 0.442615,0.18279 0.442615,0.18278 0.463021,0.13313 0.463021,0.13314 v 0.19346 0.19346 z m -0.418924,-0.22751 0.507118,0.0209 -0.159852,-0.15985 -0.159853,-0.15985 -0.347266,0.13896 -0.347265,0.13897 z m 1.852086,0.26459 -0.507121,-0.0209 0.347261,-0.13897 0.34727,-0.13896 0.15985,0.15985 0.15985,0.15985 z m 11.796,0.0209 h -0.26458 v -0.2802 -0.2802 l 0.26458,0.16352 0.26459,0.16352 v 0.11668 0.11668 z m -1.07395,-0.26459 h -0.54478 l 0.15638,-0.25302 0.15638,-0.25303 0.3884,0.14904 0.38841,0.14905 v 0.10398 0.10398 z m 5.70416,-0.59037 -0.52917,-0.008 -0.92604,-0.19492 -0.92604,-0.19492 0.79375,-0.008 0.79375,-0.008 0.66147,0.21183 0.66146,0.21184 z m -17.594789,-0.20338 h -0.352778 l 0.176389,-0.17639 0.176389,-0.17639 0.176389,0.17639 0.176389,0.17639 z m 14.552079,-0.0418 h -0.66146 l 0.33073,-0.13345 0.33073,-0.13345 0.33073,0.13345 0.33073,0.13345 z m -15.874996,-0.2228 h -0.352778 l 0.176389,-0.17639 0.176389,-0.17639 0.176389,0.17639 0.176389,0.17639 z m 2.22691,-0.28547 -0.507118,-0.0209 0.347266,-0.13897 0.347268,-0.13896 0.15985,0.15985 0.15985,0.15985 z m -2.359201,-0.2437 h -0.132292 v -0.13229 -0.13229 h 0.132292 0.132291 v 0.13229 0.13229 z m 8.202087,-0.26458 h -0.1323 v -0.13229 -0.13229 h 0.1323 0.13229 v 0.13229 0.13229 z m -8.202087,-0.26458 h -0.132292 v -0.1323 -0.13229 h 0.132292 0.132291 v 0.13229 0.1323 z m 6.748617,-0.004 -0.13403,-0.004 0.39687,-0.25648 0.39688,-0.25649 0.46302,-0.004 0.46302,-0.004 -0.0661,-0.32444 -0.0662,-0.32445 0.59531,-0.0908 0.59531,-0.0908 v -0.27449 -0.27449 l -0.41061,0.15757 -0.41062,0.15757 0.16165,-0.26155 0.16165,-0.26156 0.4474,-0.004 0.44741,-0.004 -0.38946,-0.24629 -0.38946,-0.2463 0.45765,-0.17562 0.45765,-0.17562 0.67877,0.44476 0.67878,0.44475 -0.34016,-0.6141 -0.34015,-0.6141 0.0457,-0.16693 0.0457,-0.16694 -0.51867,-0.46938 -0.51867,-0.46939 v -0.40118 -0.40118 l -0.43787,-0.48356 -0.43788,-0.48385 h 0.25267 0.25267 l 0.3712,0.33072 0.37119,0.33073 -0.91359,-1.0822 -0.91359,-1.0822 -0.66146,0.37941 -0.66145,0.37941 -0.73848,1.05232 -0.73847,1.05232 -0.84884,-0.0849 -0.84884,-0.085 -0.2782,0.8601 -0.27819,0.86009 -0.32625,0.32625 -0.32625,0.32624 -0.784804,0.0395 -0.784806,0.0395 v -0.0938 -0.0938 l 0.859896,-0.22282 0.859894,-0.22282 v -0.24516 -0.24517 l -0.793748,-0.19204 -0.79375,-0.19203 0.938798,0.098 0.9388,0.098 0.34015,-0.76845 0.34015,-0.76846 h 0.88585 0.88584 l 0.55497,-0.77937 0.55496,-0.77938 -0.11889,-0.65565 -0.11889,-0.65565 0.41994,-0.16115 0.41993,-0.16114 0.28649,0.28893 0.28649,0.28893 -0.41893,-0.15935 -0.41892,-0.15935 v 0.41964 0.41965 l 0.41892,-0.19155 0.41893,-0.19155 0.71949,0.01 0.7195,0.01 -0.16506,-0.26708 -0.16507,-0.26708 0.30978,0.19145 0.30978,0.19145 -0.13826,0.22371 -0.13825,0.2237 0.92769,0.57334 0.92769,0.57335 v 0.12633 0.12632 l -0.33073,-0.19338 -0.33073,-0.19339 0.50741,0.57839 0.50742,0.57838 0.41863,-0.12096 0.41862,-0.12096 1.25936,-0.17779 1.25936,-0.17779 0.89593,0.97812 0.89593,0.97813 1.01971,0.24472 1.01971,0.24472 1.7198,-0.0483 1.71979,-0.0483 -0.0628,0.24495 -0.0628,0.24495 -2.05382,0.14992 -2.05382,0.14992 1.06778,0.0485 1.06778,0.0485 v 0.52261 0.52262 l -0.39826,0.15282 -0.39826,0.15283 0.18627,-0.18626 0.18626,-0.18626 -0.45891,-0.34847 -0.45891,-0.34848 -0.39688,0.008 -0.39687,0.008 0.66146,0.28811 0.66146,0.28812 -0.52917,0.11431 -0.52917,0.11431 -0.3203,0.41086 -0.3203,0.41087 -1.00262,-0.15713 -1.00261,-0.15712 0.49428,0.28374 0.49427,0.28375 1.62239,-0.14949 1.62239,-0.1495 -0.91695,0.2735 -0.91695,0.27349 -0.93513,-0.1246 -0.93513,-0.12461 -0.66146,-0.17753 -0.66146,-0.17754 0.7276,0.42053 0.72761,0.42054 v 0.12384 0.12384 h -0.67708 -0.67707 l 0.17106,-0.27677 0.17105,-0.27678 -1.08148,-0.42482 -1.08148,-0.42482 v -0.22444 -0.22445 h 0.1416 0.1416 l 0.60403,0.39577 0.60403,0.39578 1.66307,-0.56163 1.66308,-0.56163 -0.35563,-0.21979 -0.35562,-0.21979 -0.63045,0.41309 -0.63045,0.41309 0.16335,-0.26431 0.16335,-0.2643 -0.417,-0.16002 -0.41699,-0.16001 h -0.12628 -0.12627 l 0.16165,0.26155 0.16165,0.26155 -0.4091,-0.15698 -0.40909,-0.15699 0.12786,-0.20688 0.12785,-0.20688 -0.4601,-0.36071 -0.46011,-0.3607 0.39687,0.50604 0.39688,0.50605 -0.39688,-0.17515 -0.39687,-0.17515 -0.46301,-0.16332 -0.46302,-0.16332 v -0.22542 -0.22542 l 0.37011,0.14203 0.3701,0.14202 0.17872,-0.28917 0.17872,-0.28918 -0.31732,0.0727 -0.31731,0.0727 -0.13052,-0.35849 -0.13053,-0.3585 0.62661,0.17269 0.62662,0.17269 -0.46303,-0.29036 -0.46301,-0.29037 -0.46302,0.26969 -0.46302,0.26968 0.23892,0.008 0.23892,0.008 -0.61013,0.52917 -0.61013,0.52917 0.23892,0.0197 0.23892,0.0197 0.6558,0.1202 0.6558,0.1202 0.24236,0.24237 0.24236,0.24236 -0.71324,0.17902 -0.71325,0.17901 -0.31721,-0.37579 -0.3172,-0.37579 -0.40935,-0.2516 -0.40934,-0.2516 0.46424,0.43018 0.46423,0.43017 -0.15891,0.15891 -0.1589,0.15891 0.43322,0.16625 0.43322,0.16624 -0.12707,0.2056 -0.12707,0.20561 0.81716,0.39576 0.81715,0.39576 -0.28623,0.1769 -0.28621,0.17689 -0.56656,-0.30321 -0.56657,-0.30322 0.17984,0.29098 0.17983,0.29098 h -0.26458 -0.26458 l -0.14812,-0.23965 -0.14811,-0.23966 -1.52115,0.0932 -1.52115,0.0932 -0.92429,0.27877 -0.9243,0.27877 z m 1.85034,-0.7897 h 0.35278 l -0.17639,-0.17639 -0.17639,-0.17639 -0.17639,0.17639 -0.17639,0.17639 z m 1.47082,0 h 0.11668 v -0.11668 -0.11668 l -0.30546,-0.18878 -0.30547,-0.18879 0.18879,0.30546 0.18879,0.30547 z m 1.28343,-0.094 0.64083,-0.0383 -0.132,-0.13229 -0.13199,-0.1323 -0.62168,-0.012 -0.62168,-0.012 0.11285,0.1826 0.11284,0.18259 z m 5.44784,-0.43514 h 0.35278 l -0.17639,-0.17638 -0.17639,-0.17639 -0.17639,0.17639 -0.17638,0.17638 z m -3.83647,-1.05833 h 0.1323 v -0.13229 -0.13229 h -0.1323 -0.13229 v 0.13229 0.13229 z m -1.27234,-1.32292 h 0.0817 v -0.12298 -0.12298 l -0.59531,-0.28849 -0.59532,-0.28849 0.51359,0.41147 0.51359,0.41147 z m 2.85984,-0.26458 h 0.1323 v -0.13229 -0.13229 h -0.1323 -0.13229 v 0.13229 0.13229 z m 0.0818,-0.53322 0.0818,0.004 -0.19131,-0.30954 -0.19131,-0.30955 0.46239,0.17744 0.46239,0.17743 -0.1055,-0.31648 -0.10549,-0.31649 -0.6825,-0.18253 -0.6825,-0.18253 0.0569,0.3877 0.0569,0.3877 0.37825,0.23938 0.37826,0.23937 z m -3.52134,-0.26053 h 0.13229 v -0.13229 -0.13229 h -0.13229 -0.13229 v 0.13229 0.13229 z m 0.52917,-0.26458 h 0.13229 v -0.13225 -0.13229 h -0.13229 -0.13229 v 0.13229 0.13229 z m -2.11667,-1.85209 h 0.13229 v -0.13229 -0.13229 h -0.13229 -0.13229 v 0.13229 0.13229 z m 7.40833,6.87917 h -0.13229 v -0.13229 -0.13229 h 0.13229 0.1323 v 0.13229 0.13229 z m -16.404201,-0.26454 h -0.132291 v -0.13229 -0.13229 h 0.132291 0.132292 v 0.13229 0.13229 z m -0.661458,-0.26458 h -0.352778 l 0.176389,-0.17639 0.176389,-0.17639 0.176389,0.17639 0.176389,0.17639 z m 3.569679,-0.9157 -0.64023,0.78341 -0.004,-0.26459 -0.004,-0.26458 0.50519,-0.6575 0.50518,-0.65751 0.13868,0.13868 0.13868,0.13868 z m -3.673217,0.38653 h -0.129816 l -0.165442,-0.26769 -0.165442,-0.26769 0.877432,-0.18415 0.877431,-0.18415 -0.79375,-0.17831 -0.79375,-0.17832 0.838256,-0.0313 0.838256,-0.0313 0.484661,-0.18183 0.48466,-0.18183 -0.377604,0.46386 -0.377605,0.46386 -0.733735,0.37943 -0.733736,0.37943 z m 4.866037,-0.26458 h -0.35278 l 0.17639,-0.17639 0.17639,-0.17639 0.17639,0.17639 0.17639,0.17639 z m 13.75834,-0.0418 h -0.66146 l 0.33073,-0.13345 0.33073,-0.13345 0.33073,0.13345 0.33073,0.13345 z m -4.54844,-0.22686 -0.18283,0.004 -0.16166,-0.26155 -0.16164,-0.26155 0.45403,0.17422 0.45402,0.17422 -0.18944,-0.30651 -0.18944,-0.30652 0.4328,0.16608 0.4328,0.16608 -0.35291,0.22372 -0.35291,0.22371 z m 7.03994,-0.546 -0.50712,-0.0209 0.34726,-0.13897 0.34727,-0.13896 0.15985,0.15985 0.15985,0.15985 z m -21.210777,-0.52688 -0.727604,-0.0186 0.529167,-0.22739 0.529167,-0.22739 0.198437,-0.0186 0.198438,-0.0186 v 0.26458 0.26459 z m 6.233327,0.0145 -0.18283,0.004 -0.12251,-0.19844 -0.12252,-0.19843 0.67663,-0.0407 0.67663,-0.0407 -0.37129,0.23506 -0.37129,0.23507 z m 14.8672,-0.0377 h -0.66146 l 0.33073,-0.13345 0.33073,-0.13345 0.33073,0.13345 0.33073,0.13345 z m -21.166672,-0.7521 H 96.88158 l 0.176389,-0.17639 0.176389,-0.17639 0.176388,0.17639 0.176389,0.17639 z m 2.226909,-0.0209 -0.507118,-0.0209 0.347266,-0.13896 0.347265,-0.13897 0.159853,0.15986 0.159852,0.15985 z m -1.48369,-0.275 -0.08176,-0.0313 -0.79375,-0.20197 -0.79375,-0.20198 0.711989,-0.0313 0.711989,-0.0313 0.163522,0.26459 0.163521,0.26458 z m 6.273923,-0.34625 -0.38573,0.50985 -0.004,-0.26458 -0.004,-0.26459 0.24615,-0.38921 0.24614,-0.38921 0.14395,0.14394 0.14394,0.14394 z m 2.22766,0.11297 h -0.2802 l 0.16352,-0.26458 0.16352,-0.26458 h 0.11668 0.11668 v 0.26458 0.26458 z M 96.043732,142.7814 h -0.132291 v -0.13229 -0.13229 h 0.132291 0.132292 v 0.13229 0.13229 z m 3.042709,-0.32597 h -0.926042 l 0.463021,-0.121 0.463021,-0.121 0.463021,0.121 0.463018,0.121 z m 7.276039,-0.20319 h -0.13229 v -0.1323 -0.13229 h 0.13229 0.13229 v 0.13229 0.1323 z m -5.82083,-0.26459 h -0.13229 v -0.13229 -0.13229 h 0.13229 0.13229 v 0.13229 0.13229 z m -2.138716,-0.28547 -0.507118,-0.0209 0.347265,-0.13896 0.347266,-0.13897 0.159853,0.15985 0.159852,0.15986 z m 19.843756,-0.26458 -0.50712,-0.0209 0.34726,-0.13897 0.34727,-0.13896 0.15985,0.15985 0.15986,0.15985 z m -24.055041,-0.2437 h -0.132292 v -0.13229 -0.13229 h 0.132292 0.132292 v 0.13229 0.13229 z m 3.836459,-0.0418 h -0.661459 l 0.330729,-0.13345 0.33073,-0.13345 0.330729,0.13345 0.330729,0.13345 z m 3.640402,0.0418 h -0.095 l -0.30511,-0.30511 -0.30512,-0.30512 0.2504,-0.46788 0.2504,-0.46787 -0.7258,-0.56453 -0.72581,-0.56453 0.57926,0.2799 0.57925,0.27991 0.16397,-0.2653 0.16396,-0.2653 -0.16352,-0.26458 -0.16352,-0.26459 h -0.26459 -0.26458 l 0.16165,0.26156 0.16165,0.26155 -0.46339,-0.17782 -0.46338,-0.17782 0.319,-0.10633 0.319,-0.10633 -0.14956,-0.24199 -0.14955,-0.24198 h 0.2478 0.2478 l 0.33468,0.40326 0.33469,0.40327 0.13926,-0.13926 0.13926,-0.13926 0.44623,0.40383 0.44623,0.40383 0.41063,-0.15757 0.41063,-0.15757 -0.91602,-0.841 -0.91601,-0.84099 -0.0591,-0.39688 -0.0591,-0.39687 -0.20661,-0.33073 -0.20661,-0.33073 h 0.2478 0.2478 l 0.33468,0.40327 0.33469,0.40327 0.13639,-0.13639 0.13639,-0.13639 0.42121,0.32843 0.42122,0.32843 -0.36843,-0.46941 -0.36843,-0.46942 -0.14239,0.14239 -0.14239,0.14239 -0.7023,-0.67284 -0.7023,-0.67284 0.035,0.47535 0.035,0.47535 0.20153,0.32608 0.20153,0.32608 h -0.3126 -0.31259 l 0.29468,0.35507 0.29469,0.35508 -0.19615,0.21651 -0.19614,0.21651 0.37161,-0.21559 0.37161,-0.21559 -0.21405,0.34634 -0.21405,0.34635 0.28718,-0.17749 0.28718,-0.17749 0.15183,0.24567 0.15184,0.24568 -0.33199,-0.0691 -0.33199,-0.0691 -0.46306,-0.20058 -0.46306,-0.20058 0.11403,-0.62883 0.11403,-0.62883 -0.20395,-0.12605 -0.20394,-0.12604 -0.0471,-1.33058 -0.0471,-1.33058 0.4051,-0.96955 0.40511,-0.96956 -0.1069,-0.1069 -0.1069,-0.1069 -0.57605,0.80898 -0.576046,0.80899 h -0.346462 -0.346461 l -0.329377,-0.39688 -0.329377,-0.39687 H 98.26031 98.028124 v 0.67885 0.67885 l -0.257605,0.48134 -0.257604,0.48134 -0.633202,0.15892 -0.633201,0.15893 -0.152216,0.93799 -0.152215,0.93799 -1.073646,1.21973 -1.073645,1.21973 v 0.344 0.34401 l -0.264583,0.16353 -0.264584,0.16352 -0.281819,-0.17418 -0.281819,-0.17417 0.44003,-0.48623 0.44003,-0.48622 -0.199091,-0.32214 -0.199091,-0.32214 0.239318,0.1454 0.239317,0.14541 0.323091,-0.34976 0.32309,-0.34976 -0.719965,-0.13462 -0.719966,-0.13461 -1.190625,-0.16231 -1.190625,-0.16232 -0.661458,-0.40045 -0.661458,-0.40046 0.661458,0.15917 0.661458,0.15917 1.719792,0.38198 1.719792,0.38199 0.478636,0.005 0.478635,0.005 -0.163521,-0.26459 -0.163522,-0.26458 h 0.440798 0.440797 l -0.152295,-0.39688 -0.152295,-0.39687 0.322425,-0.004 0.322425,-0.004 -0.360667,-0.22851 -0.360668,-0.2285 0.360668,-0.14642 0.360667,-0.14641 -0.926042,0.11349 -0.926041,0.11349 0.84687,-0.26787 0.84687,-0.26788 0.160438,-0.2596 0.160438,-0.25959 -0.693803,0.26378 -0.693803,0.26379 -0.313505,-0.0186 -0.313505,-0.0186 1.058333,-0.40692 1.058333,-0.40691 0.79375,-0.22722 0.793751,-0.22721 -0.973629,0.0683 -0.973628,0.0683 0.129347,-0.20929 0.129348,-0.20929 h 0.745062 0.745062 l 0.154494,-0.77247 0.154494,-0.77247 0.558998,-0.17742 0.558999,-0.17742 0.489148,0.44267 0.489149,0.44268 0.341847,-0.61727 0.34186,-0.61726 -0.0436,-0.16067 -0.0436,-0.16067 0.67223,0.0738 0.67223,0.0738 0.13299,0.13298 0.13299,0.13299 0.0584,1.13644 0.0584,1.13645 0.62009,0.14638 0.62009,0.14638 0.28354,0.52315 0.28353,0.52315 0.53526,0.85836 0.53525,0.85835 0.85047,0.16151 0.85047,0.16151 0.29641,0.35715 0.29641,0.35716 -0.86477,-0.24802 -0.86477,-0.24801 -0.10361,0.10361 -0.10361,0.10361 0.54911,0.17428 0.5491,0.17428 -0.0209,0.44519 -0.0209,0.44519 -0.13713,-0.34177 -0.13714,-0.34178 -0.36823,0.30561 -0.36823,0.30561 0.16131,0.261 0.16131,0.261 -0.56657,-0.30322 -0.56656,-0.30321 -0.3,0.1854 -0.29999,0.18541 0.17749,-0.28718 0.17748,-0.28718 -0.30978,-0.19146 -0.30978,-0.19145 0.18879,0.30546 0.18879,0.30547 h -0.23919 -0.23919 l -0.41903,-0.46302 -0.41903,-0.46302 -0.0116,-0.24801 -0.0116,-0.248 -0.43821,-0.0643 -0.4382,-0.0643 0.87821,0.90609 0.87821,0.90608 0.0594,0.40486 0.0594,0.40486 -0.30826,-0.0378 -0.30827,-0.0378 -0.39687,0.0354 -0.39688,0.0354 0.37288,0.23605 0.37289,0.23605 0.35472,-0.13612 0.35472,-0.13611 v 0.29677 0.29678 l -0.7928,0.48214 -0.7928,0.48213 0.19749,0.21785 0.19749,0.21786 -0.33505,-0.19299 -0.33504,-0.19299 0.15035,-0.24327 0.15035,-0.24328 -0.4091,0.15699 -0.4091,0.15699 0.14639,0.23685 0.14638,0.23686 z m -0.33311,-0.52916 h 0.13229 v -0.1323 -0.13229 h -0.13229 -0.13229 v 0.13229 0.1323 z m 1.0916,-0.41362 0.69473,-0.0763 0.29746,-0.32304 0.29746,-0.32305 -0.34232,0.19389 -0.34232,0.19388 -0.38237,-0.31734 -0.38237,-0.31734 0.12646,-0.20462 0.12647,-0.20463 -0.44475,-0.36071 -0.44475,-0.3607 0.18739,0.31244 0.1874,0.31245 -0.2652,0.1639 -0.26521,0.16391 0.10894,0.58198 0.10893,0.58198 0.0197,0.0298 0.0197,0.0298 z m -0.53395,-0.11555 h -0.0726 v -0.38524 -0.38523 l 0.2248,0.13893 0.2248,0.13894 -0.15222,0.2463 -0.15222,0.2463 z m 0.76527,0 h -0.1323 v -0.13229 -0.13229 h 0.1323 0.13229 v 0.13229 0.13229 z m -0.52917,-1.05833 h -0.13229 v -0.1323 -0.13229 h 0.13229 0.13229 v 0.13229 0.1323 z m -8.995834,0.26458 h 0.132291 v -0.13229 -0.13229 h -0.132291 -0.132292 v 0.13229 0.13229 z m 11.921864,-1.32292 h 0.14791 l -0.19131,-0.30954 -0.19131,-0.30955 0.44028,0.16895 0.44027,0.16895 v -0.11468 -0.11468 l -0.50524,-0.27039 -0.50524,-0.2704 0.0881,0.45952 0.0881,0.45953 0.0202,0.0661 0.0202,0.0662 z m -3.98436,-1.05833 h 0.13229 v -0.13229 -0.13229 h -0.13229 -0.1323 v 0.13229 0.13229 z m 3.19061,-0.52917 h 0.11668 v -0.11667 -0.11668 l -0.30547,-0.18879 -0.30546,-0.18878 0.18879,0.30546 0.18878,0.30546 z m -0.2802,-0.79375 h 0.13229 v -0.13229 -0.13229 h -0.13229 -0.13229 v 0.13229 0.13229 z m -1.32291,-0.26458 h 0.13229 v -0.13229 -0.13229 h -0.13229 -0.1323 v 0.13229 0.13229 z m -1.04272,-0.79375 h 0.11667 v -0.11668 -0.11667 l -0.30546,-0.18879 -0.30546,-0.18879 0.18878,0.30547 0.18879,0.30546 z m 0.51355,0 h 0.13229 v -0.13229 -0.13229 h -0.13229 -0.13229 v 0.13229 0.13229 z m -0.52917,-2.38125 h 0.13229 v -0.13229 -0.13229 h -0.13229 -0.13229 v 0.13229 0.13229 z m -8.202081,7.9375 h -0.132292 v -0.13229 -0.13229 h 0.132292 0.132292 v 0.13229 0.13229 z m 6.879171,0 h -0.1323 v -0.13229 -0.13229 h 0.1323 0.13229 v 0.13229 0.13229 z m 14.4198,0 h -0.35278 l 0.17639,-0.17639 0.17639,-0.17639 0.17639,0.17639 0.17637,0.17639 z m -13.80888,-0.26864 -0.0818,-0.004 -0.39687,-0.25648 -0.39688,-0.25648 0.31512,-0.004 0.31511,-0.004 0.16352,0.26459 0.16352,0.26458 z m 7.85574,0.004 h -0.13229 v -0.13229 -0.13229 h 0.13229 0.13229 v 0.13229 0.13229 z m -13.270522,-0.77372 -0.702816,0.64143 0.495279,-0.85989 0.495279,-0.8599 h 0.207537 0.207537 v 0.21846 0.21847 z m 12.492392,0.50914 h -0.14791 l -0.0331,-0.13229 -0.0331,-0.13229 -0.0331,-0.2532 -0.0331,-0.25319 -0.52916,-0.39985 -0.52917,-0.39985 0.26458,-0.0422 0.26459,-0.0422 0.62429,-0.0638 0.62428,-0.0638 0.76478,0.38152 0.76477,0.38152 v 0.0846 0.0846 l -0.41062,0.15757 -0.41062,0.15756 0.16165,-0.26155 0.16165,-0.26155 -0.21405,-0.0302 -0.21405,-0.0302 -0.79375,-0.0897 -0.79375,-0.0897 0.66146,0.52018 0.66145,0.52018 -0.50642,-0.18073 -0.50642,-0.18074 0.19131,0.30955 0.19131,0.30955 z m -0.54478,-1.32292 h 0.13229 v -0.13229 -0.13229 h -0.13229 -0.1323 v 0.13229 0.13229 z m 0.79375,0 h 0.13229 v -0.13229 -0.13229 h -0.13229 -0.1323 v 0.13229 0.13229 z m -5.02709,1.05834 h -0.13229 v -0.13229 -0.1323 h 0.13229 0.13229 v 0.1323 0.13229 z m -11.697462,-0.26463 h -0.276284 l -0.363126,-0.46303 -0.363126,-0.46302 0.529167,0.38816 0.529167,0.38815 0.110243,0.0749 0.110243,0.0749 z m 19.121412,-0.26459 h -0.11668 l -0.18878,-0.30546 -0.18879,-0.30547 0.30546,0.18879 0.30547,0.18879 v 0.11668 0.11667 z m 0.79376,0 h -0.11668 l -0.18879,-0.30546 -0.18879,-0.30547 0.30547,0.18879 0.30547,0.18879 v 0.11668 0.11667 z m -18.256259,-0.26458 h -0.116677 l -0.188787,-0.30546 -0.188787,-0.30547 0.305464,0.18879 0.305463,0.18879 v 0.11667 0.11668 z m 9.806369,0 h -0.0999 l -0.36313,-0.46302 -0.36313,-0.46302 0.46303,0.36312 0.46302,0.36313 v 0.0999 0.0999 z m -6.927182,-0.79375 h -0.116677 v -0.26458 -0.26459 h 0.280198 0.280198 l -0.163521,0.26459 -0.163522,0.26458 z m 1.867698,-0.0249 -0.264583,-0.0168 0.332377,-0.134 0.332378,-0.134 -0.147682,-0.23896 -0.147682,-0.23895 0.432801,0.16608 0.432801,0.16608 -0.352913,0.22371 -0.352914,0.22371 z m -6.085417,-0.23964 h -0.132292 v -0.13229 -0.1323 h 0.132292 0.132292 v 0.1323 0.13229 z m 1.322917,0 h -0.132292 v -0.13229 -0.1323 h 0.132292 0.132291 v 0.1323 0.13229 z m 9.525004,-0.52917 h -0.1323 v -0.13229 -0.13229 h 0.1323 0.13229 v 0.13229 0.13229 z M 96.308316,136.696 h -0.132292 v -0.1323 -0.13229 h 0.132292 0.132291 v 0.13229 0.1323 z m -2.38125,-0.26459 h -0.132292 v -0.13229 -0.13229 h 0.132292 0.132291 v 0.13229 0.13229 z m 4.7625,0 h -0.132292 v -0.13229 -0.13229 h 0.132292 0.132292 v 0.13229 0.13229 z m -3.990799,-0.28547 -0.507118,-0.0209 0.347266,-0.13896 0.347265,-0.13897 0.159853,0.15985 0.159852,0.15986 z m -2.094618,-0.50828 h -0.132292 v -0.13229 -0.13229 h 0.132292 0.132292 v 0.13229 0.13229 z m 1.984375,-0.0418 h -0.661458 l 0.330729,-0.13345 0.330729,-0.13345 0.330729,0.13345 0.330729,0.13345 z m -2.645833,-0.2228 h -0.264584 v -0.26459 -0.26458 h 0.264584 0.264583 v 0.26458 0.26459 z m -1.24536,-0.41389 -0.474432,0.18065 0.326319,-0.32876 0.32632,-0.32877 0.148112,0.14811 0.148113,0.14812 z m -0.606724,-0.64445 h -0.352778 l 0.176389,-0.17639 0.176389,-0.17639 0.176389,0.17639 0.176389,0.17639 z m 3.285243,-0.0209 -0.507118,-0.0209 0.347266,-0.13896 0.347266,-0.13897 0.159852,0.15986 0.159853,0.15985 z m 0.948091,-0.24369 h -0.352778 l 0.176389,-0.17639 0.176389,-0.17639 0.176389,0.17639 0.176389,0.17639 z m 4.497917,-0.1323 -0.264584,0.16353 v -0.26459 -0.26458 l 0.264584,-0.16352 0.264583,-0.16352 v 0.26458 0.26458 z m -5.556251,-0.15493 -0.396875,-0.0145 0.529167,-0.2274 0.529167,-0.22738 0.264583,-0.0146 0.264583,-0.0145 -0.396875,0.25648 -0.396875,0.25649 z m 1.852084,0.0226 h -0.352778 l 0.176389,-0.17639 0.176389,-0.17639 0.176389,0.17639 0.176389,0.17639 z m -1.719792,-0.67037 -1.852083,0.1005 1.058333,-0.25022 1.058333,-0.25022 0.661459,-0.12895 0.661458,-0.12895 0.396875,-0.039 0.396875,-0.039 0.661458,0.0688 0.661459,0.0688 -0.926042,0.24895 -0.926042,0.24894 z m 1.455208,-0.12338 h 0.352778 l -0.176389,-0.17639 -0.176389,-0.17639 -0.176388,0.17639 -0.176389,0.17639 z m -2.116666,-0.26459 h -0.264584 v -0.2802 -0.28019 l 0.264584,0.16352 0.264583,0.16352 v 0.11668 0.11667 z m -2.116667,-0.26458 h -0.352778 l 0.176389,-0.17639 0.176389,-0.17639 0.176389,0.17639 0.176389,0.17639 z m 2.837887,-0.26458 h -0.223283 l 0.149555,-0.24199 0.149555,-0.24199 -0.332378,-0.11706 -0.332378,-0.11707 0.926042,-0.40513 0.926042,-0.40514 1.521354,-1.37364 1.521354,-1.37364 v -0.34003 -0.34003 l 0.524523,-0.66683 0.524523,-0.66682 0.996831,-0.18332 0.996829,-0.18331 0.69486,-0.65888 0.69487,-0.65889 0.99293,0.18628 0.99293,0.18627 0.13521,0.51707 0.13522,0.51708 0.69053,-0.16438 0.69054,-0.16437 0.26458,-0.0578 0.26458,-0.0578 0.0886,0.26458 0.0886,0.26459 0.28647,0.34517 0.28647,0.34518 0.51671,0.27653 0.51671,0.27653 -0.20105,-0.3253 -0.20105,-0.32531 0.36756,0.12252 0.36756,0.12252 v 0.50712 0.50712 l -0.46302,-0.0367 -0.46302,-0.0367 v 0.0813 0.0813 l 0.9701,0.59956 0.97011,0.59956 0.94812,0.16561 0.94813,0.16561 -1.45521,0.41764 -1.45521,0.41763 -1.92904,-0.0732 -1.92905,-0.0732 -0.39286,0.39286 -0.39286,0.39286 -0.45622,-0.18799 -0.45622,-0.18799 0.81988,-0.30073 0.81987,-0.30073 -0.11241,-0.39688 -0.11242,-0.39687 0.25526,0.36481 0.25526,0.3648 0.77714,-0.38769 0.77715,-0.38769 0.61178,0.22631 0.61178,0.22631 -0.31045,-0.37406 -0.31044,-0.37406 -1.03497,0.0565 -1.03496,0.0565 0.1066,-0.17249 0.10661,-0.17249 h -0.3736 -0.37359 l 0.10353,0.16753 0.10354,0.16753 -0.53974,0.33707 -0.53974,0.33707 0.1988,-0.35026 0.19879,-0.35026 -0.33564,0.31005 -0.33564,0.31005 -0.40803,-0.15657 -0.40804,-0.15658 0.18943,0.30651 0.18944,0.30652 -0.45402,-0.17423 -0.45402,-0.17422 0.19131,0.30955 0.19131,0.30954 h -0.25856 -0.25856 l -0.48466,0.17264 -0.48466,0.17263 1.25195,-1.22189 1.25195,-1.2219 -0.15956,-0.4158 -0.15956,-0.4158 0.41454,-0.45807 0.41455,-0.45806 -0.0737,-0.50212 -0.0737,-0.50211 -0.77178,-0.0472 -0.77178,-0.0472 -0.52917,0.46436 -0.52916,0.46437 -1.122716,0.29796 -1.122713,0.29797 -0.436216,0.84355 -0.436217,0.84355 -2.136007,2.05714 -2.136007,2.05714 z m 12.756919,-2.38125 h 0.28019 v -0.26459 -0.26458 h -0.11667 -0.11668 l -0.16352,0.26458 -0.16352,0.26459 z m 1.20624,0 h 0.13229 v -0.1323 -0.13229 h -0.13229 -0.1323 v 0.13229 0.1323 z m 1.10106,-0.004 0.0427,0.004 -0.0592,-0.40331 -0.0592,-0.40331 -0.645,-0.41164 -0.645,-0.41165 0.62463,0.55037 0.62462,0.55037 -0.36004,0.004 -0.36004,0.004 0.39688,0.25648 0.39687,0.25648 z m -4.54065,-1.31887 h 0.13229 v -0.13229 -0.13229 h -0.13229 -0.13229 v 0.13229 0.13229 z m 1.60312,-0.26458 h 0.11667 v -0.11668 -0.11668 l -0.30546,-0.18878 -0.30546,-0.18879 0.18878,0.30546 0.18879,0.30547 z m 1.05833,0 h 0.11668 v -0.11668 -0.11668 l -0.30547,-0.18878 -0.30546,-0.18879 0.18879,0.30546 0.18878,0.30547 z m -1.8677,-0.26459 h 0.13229 v -0.13229 -0.13229 h -0.13229 -0.13229 v 0.13229 0.13229 z m -1.05833,-0.26458 h 0.13229 v -0.13229 -0.13229 h -0.13229 -0.13229 v 0.13229 0.13229 z m 1.71979,-0.26458 h 0.35278 l -0.17639,-0.17639 -0.17639,-0.17639 -0.17639,0.17639 -0.17639,0.17639 z m 1.19063,0 h 0.13229 v -0.13229 -0.1323 h -0.13229 -0.1323 v 0.1323 0.13229 z m -1.05834,-0.52917 h 0.13229 v -0.13229 -0.13229 h -0.13229 -0.13229 v 0.13229 0.13229 z m -10.583331,5.29167 h -0.132292 v -0.13229 -0.1323 h 0.132292 0.132292 v 0.1323 0.13229 z m 0.529167,-0.52917 h -0.132292 v -0.13229 -0.13229 h 0.132292 0.132291 v 0.13229 0.13229 z m -3.96875,-0.26458 h -0.132292 v -0.13229 -0.1323 h 0.132292 0.132291 v 0.1323 0.13229 z m 0.661458,0 h -0.352778 l 0.176389,-0.17639 0.176389,-0.17639 0.176389,0.17639 0.176389,0.17639 z m 3.96875,0 h -0.352778 l 0.176389,-0.17639 0.176389,-0.17639 0.176389,0.17639 0.176389,0.17639 z m -3.307292,-0.26459 h -0.132291 v -0.13229 -0.13229 h 0.132291 0.132292 v 0.13229 0.13229 z m 3.175,-0.26458 h -0.132291 v -0.13229 -0.13229 h 0.132291 0.132292 v 0.13229 0.13229 z m 0.529167,0 h -0.132292 v -0.13229 -0.13229 h 0.132292 0.132292 v 0.13229 0.13229 z m 2.513542,-0.26458 h -0.352778 l 0.176389,-0.17639 0.176389,-0.17639 0.176389,0.17639 0.176389,0.17639 z m -2.116667,-0.26459 h -0.352778 l 0.176389,-0.17639 0.176389,-0.17638 0.176389,0.17638 0.176389,0.17639 z m 0.926042,0 h -0.132292 v -0.13229 -0.13229 h 0.132292 0.132292 v 0.13229 0.13229 z m 7.276044,0 h -0.35278 l 0.17639,-0.17639 0.17639,-0.17638 0.17639,0.17638 0.17639,0.17639 z m -5.446009,-0.28547 -0.507118,-0.0209 0.347265,-0.13896 0.347266,-0.13897 0.159856,0.15986 0.15985,0.15985 z m -6.19566,-0.24369 h -0.352778 l 0.176389,-0.17639 0.176389,-0.17639 0.176389,0.17639 0.176389,0.17639 z m 1.322916,-1.40221 h -1.455208 l 0.727604,-0.11022 0.727604,-0.11022 0.727605,0.11022 0.727604,0.11022 z m 5.291663,0.0668 -0.13229,0.004 -0.38921,-0.24614 -0.389213,-0.24615 0.226998,-0.21282 0.226998,-0.21282 0.123509,0.3469 0.123509,0.3469 0.503349,-0.45552 0.50335,-0.45553 0.1775,0.17751 0.1775,0.1775 -0.50985,0.38572 -0.50985,0.38573 z m -3.439579,-0.55847 h -0.661459 l 0.33073,-0.13345 0.330729,-0.13346 0.330729,0.13346 0.330729,0.13345 z m 11.773959,0.0418 h -0.13229 v -0.13229 -0.1323 h 0.13229 0.13229 v 0.1323 0.13229 z m 3.5622,-0.64256 h -0.49998 l -0.53922,-0.19947 -0.53922,-0.19947 -0.3888,0.1492 -0.3888,0.14919 -0.71081,-0.55912 -0.71081,-0.55912 -0.45024,0.1429 -0.45024,0.1429 -0.33433,-0.40285 -0.33434,-0.40285 h 0.24407 0.24406 l 0.35632,0.33073 0.35631,0.33073 -0.18672,-0.33073 -0.18672,-0.33073 h 0.22728 0.22728 l 0.3175,0.3175 0.3175,0.3175 0.33073,-0.35632 0.33073,-0.35631 -0.34217,0.19379 -0.34216,0.19378 -0.93198,-0.71085 -0.93199,-0.71086 0.13823,-0.13823 0.13823,-0.13823 -0.60212,-0.82724 -0.60211,-0.82724 0.0182,-0.37483 0.0182,-0.37482 0.27075,-0.0902 0.27076,-0.0902 0.98601,0.5027 0.98602,0.5027 v -0.35113 -0.35113 l -0.25803,-0.67868 -0.25804,-0.67868 0.23458,-0.61697 0.23457,-0.61697 -0.87951,-0.39865 -0.87952,-0.39864 -0.44384,0.24838 -0.44384,0.24839 -0.77603,-0.1139 -0.77603,-0.11389 -0.50516,0.81737 -0.50517,0.81737 -1.32124,1.17889 -1.32125,1.1789 0.11128,0.18005 0.11128,0.18005 -0.41923,0.16088 -0.419236,0.16087 -0.306853,-0.17557 -0.306852,-0.17557 0.196142,0.21651 0.196142,0.21652 -0.328434,0.40461 -0.328434,0.40461 0.529167,-0.20721 0.529168,-0.20722 0.37413,-0.15187 0.37413,-0.15187 -0.17962,0.29063 -0.17961,0.29063 0.46694,0.11551 0.46694,0.11551 -0.74075,-0.0926 -0.740758,-0.0926 0.143924,0.23288 0.143924,0.23287 -0.433224,0.16625 -0.433224,0.16624 -0.13852,-0.13852 -0.13852,-0.13852 0.374827,-0.0215 0.374826,-0.0215 -0.79375,-0.36345 -0.79375,-0.36345 0.495418,-0.0119 0.495418,-0.0119 -0.305958,-0.36866 -0.305958,-0.36866 1.37231,-0.88811 1.372305,-0.88811 0.62979,-0.42501 0.62978,-0.425 0.74923,-1.18141 0.74923,-1.18142 1.7148,0.0279 1.7148,0.0279 0.70223,0.46012 0.70223,0.46012 v 0.49067 0.49067 l 0.35853,0.29756 0.35854,0.29755 1.03053,0.37766 1.03052,0.37765 -0.71199,0.0186 -0.71198,0.0186 -0.14956,0.24199 -0.14955,0.24199 0.33237,0.15244 0.33238,0.15245 -0.62845,-0.15819 -0.62844,-0.1582 0.18104,0.29293 0.18104,0.29293 -0.34635,0.004 -0.34634,0.004 0.26458,0.19438 0.26459,0.19439 0.077,0.36319 0.077,0.36319 -0.45901,-0.17614 -0.459,-0.17614 0.40794,0.47441 0.40794,0.47441 0.21594,0.37569 0.21594,0.37569 -0.39618,-0.15203 -0.39618,-0.15203 v 0.34643 0.34642 l 0.41892,-0.13962 0.41892,-0.13962 -0.59974,0.44753 -0.59973,0.44753 0.13079,0.21164 0.1308,0.21163 1.58536,0.17937 1.58536,0.17936 0.12093,0.19566 0.12092,0.19566 z m -3.32103,-2.00328 h 0.10888 l -0.0571,-0.38921 -0.0571,-0.38922 -0.16419,-0.16419 -0.1642,-0.1642 0.0922,0.48727 0.0922,0.48726 0.0202,0.0661 0.0202,0.0662 z m -8.70784,-2.11666 h 0.13229 v -0.13229 -0.13229 h -0.13229 -0.132289 v 0.13229 0.13229 z m 6.63664,-0.26864 0.0221,0.004 v -0.37164 -0.37165 l -0.37497,0.14388 -0.37496,0.14389 0.35292,0.22371 0.35291,0.22371 z m 2.09461,0.004 h 0.13229 v -0.13229 -0.13229 h -0.13229 -0.13229 v 0.13229 0.13229 z m -2.64583,-0.79375 h 0.13229 v -0.13229 -0.13229 h -0.13229 -0.13229 v 0.13229 0.13229 z m 2.91041,0 h 0.1323 v -0.13229 -0.13229 h -0.1323 -0.13229 v 0.13229 0.13229 z m 0.49794,-0.26458 h 0.13229 l 0.16352,-0.26458 0.16353,-0.26459 h -0.1323 -0.13229 l -0.16352,0.26459 -0.16352,0.26458 z m -0.46554,-0.26458 h 0.0999 v -0.0999 -0.0999 l -0.46302,-0.36313 -0.46302,-0.36312 0.36313,0.46302 0.36312,0.46302 z m -13.393853,4.9853 h -0.661458 l 0.330729,-0.13345 0.330729,-0.13345 0.33073,0.13345 0.330729,0.13345 z m 1.058334,0.0418 h -0.352778 l 0.176389,-0.17638 0.176389,-0.17639 0.176389,0.17639 0.176389,0.17638 z m -1.984375,-0.26458 h -0.132292 v -0.13229 -0.13229 h 0.132292 0.132291 v 0.13229 0.13229 z m 3.307292,-0.26458 H 97.67533 l 0.176389,-0.17639 0.176389,-0.17639 0.176388,0.17639 0.176389,0.17639 z m 1.190625,-0.52917 h -0.132292 v -0.13229 -0.13229 h 0.132292 0.132291 v 0.13229 0.13229 z m 8.216837,0 h -0.11754 l -0.74236,-0.68572 -0.74235,-0.68572 0.85989,0.57145 0.8599,0.57144 v 0.11427 0.11428 z m -10.862671,-0.52917 h -0.132292 v -0.13229 -0.13229 h 0.132292 0.132292 v 0.13229 0.13229 z m 1.300868,-0.0209 -0.507118,-0.0209 0.347266,-0.13896 0.347265,-0.13897 0.159853,0.15985 0.159852,0.15986 z m 2.800173,0.0209 h -0.35278 l 0.17639,-0.17639 0.17639,-0.17639 0.17639,0.17639 0.17639,0.17639 z m 5.24114,-0.004 -0.0818,-0.004 -0.39688,-0.25648 -0.39687,-0.25648 0.31511,-0.004 0.31512,-0.004 0.16352,0.26458 0.16352,0.26459 z m -9.099646,-0.546 -0.507118,-0.0209 0.347265,-0.13897 0.347266,-0.13896 0.159853,0.15985 0.159852,0.15985 z m 9.811636,-0.2437 h -0.1323 v -0.13229 -0.13229 h 0.1323 0.13229 v 0.13229 0.13229 z m -3.66007,-1.41111 -0.17639,0.17639 v -0.35273 -0.35278 l 0.17639,0.17639 0.17638,0.17639 z m 0.73403,0.0882 h -0.41248 l 0.16352,-0.26458 0.16352,-0.26459 h 0.24897 0.24896 v 0.26459 0.26458 z m 6.36562,0 h -0.13229 v -0.13229 -0.13229 h 0.13229 0.13229 v 0.13229 0.13229 z m -5.42396,-0.52917 h -0.35278 l 0.17639,-0.17638 0.17639,-0.17639 0.17639,0.17639 0.17639,0.17638 z m -0.13229,-1.32291 h -0.39688 v -0.25528 -0.25527 l 0.54384,-0.29105 0.54383,-0.29105 0.31607,0.12856 0.31606,0.12856 -0.46302,0.0209 -0.46303,0.0209 v 0.39688 0.39687 z m 0.66146,-1.32292 h -0.35278 l 0.17639,-0.17639 0.17639,-0.17639 0.17639,0.17639 0.17639,0.17639 z"
       id="path7" />
  </g>
</svg>
