<?xml version="1.0" encoding="UTF-8" standalone="no"?>
<!-- Created with Inkscape (http://www.inkscape.org/) -->

<svg
   width="25.929361mm"
   height="16.02932mm"
   viewBox="0 0 25.929361 16.029319"
   version="1.1"
   id="svg1"
   inkscape:version="1.4.1-rc (06eac75fbf, 2025-03-29)"
   sodipodi:docname="mounts3.svg"
   xmlns:inkscape="http://www.inkscape.org/namespaces/inkscape"
   xmlns:sodipodi="http://sodipodi.sourceforge.net/DTD/sodipodi-0.dtd"
   xmlns="http://www.w3.org/2000/svg"
   xmlns:svg="http://www.w3.org/2000/svg">
  <sodipodi:namedview
     id="namedview1"
     pagecolor="#ffffff"
     bordercolor="#000000"
     borderopacity="0.25"
     inkscape:showpageshadow="2"
     inkscape:pageopacity="0.0"
     inkscape:pagecheckerboard="0"
     inkscape:deskcolor="#d1d1d1"
     inkscape:document-units="mm"
     inkscape:zoom="0.72248176"
     inkscape:cx="48.444129"
     inkscape:cy="29.758537"
     inkscape:window-width="1850"
     inkscape:window-height="1016"
     inkscape:window-x="0"
     inkscape:window-y="0"
     inkscape:window-maximized="1"
     inkscape:current-layer="layer1" />
  <defs
     id="defs1" />
  <g
     inkscape:label="Layer 1"
     inkscape:groupmode="layer"
     id="layer1"
     transform="translate(-92.074998,-140.49474)">
    <path
       style="fill:#000000"
       d="m 114.2114,156.46316 -0.90887,0.0609 -0.33716,-0.20837 -0.33715,-0.20837 -0.42087,0.13277 -0.42087,0.13277 0.27343,-0.2234 0.27344,-0.22339 -0.009,-0.37483 -0.009,-0.37483 -0.36756,-0.12252 -0.36756,-0.12252 0.21991,0.36506 0.21991,0.36505 -0.42411,-0.34357 -0.42411,-0.34358 -0.17413,0.28175 -0.17413,0.28174 -0.26828,-0.16581 -0.26828,-0.1658 0.81128,-0.49337 0.81128,-0.49337 0.40132,0.154 0.40133,0.154 6.9e-4,-0.35903 6.9e-4,-0.35904 -0.43334,-1.78594 -0.43334,-1.78594 h -0.22088 -0.22089 l -0.58685,0.79375 -0.58684,0.79375 h -0.47404 -0.47403 l -0.52855,1.03606 -0.52856,1.03605 -0.84751,0.60348 -0.84751,0.60348 0.22416,-0.3627 0.22416,-0.3627 -0.001,-0.81381 -10e-4,-0.81381 -0.18229,-0.9656 -0.18229,-0.96561 -0.359,-0.29794 -0.35901,-0.29795 -0.4875,-1.70224 -0.48749,-1.70223 -0.48291,0.0737 -0.4829,0.0737 -0.51179,0.84157 -0.51178,0.84156 -0.46691,0.0314 -0.46691,0.0314 -0.39688,-0.0565 -0.39687,-0.0565 0.19062,0.19373 0.19062,0.19372 -0.5711,0.82362 -0.57109,0.82362 -0.942442,1.00797 -0.94245,1.00798 -0.49495,0.27519 -0.49495,0.27519 0.17984,-0.29098 0.17983,-0.29098 -0.21405,0.009 -0.21405,0.009 -0.66146,0.37812 -0.66146,0.37813 -0.26458,0.008 -0.26458,0.008 0.79362,-0.63496 0.79361,-0.63496 0.20513,0.12677 0.20512,0.12677 -0.0727,-0.34411 -0.0727,-0.34411 0.66073,-0.0994 0.66073,-0.0994 -0.51862,0.62228 -0.51862,0.62229 0.62987,-0.58089 0.62986,-0.58088 -0.35374,-0.42623 -0.35374,-0.42623 0.37551,0.0811 0.37552,0.0811 -0.0294,-0.5678 -0.0294,-0.56779 -0.87505,-1.35044 -0.87505,-1.35043 h -0.2022 -0.20219 l -0.16392,0.51645 -0.16391,0.51645 -1.30782,1.33563 -1.30781,1.33564 h -0.18869 -0.18869 l 1.06371,-1.12448 1.0637,-1.12448 0.74475,-1.01855 0.74474,-1.01855 0.82633,0.20058 0.82633,0.20057 1.16155,0.0458 1.161552,0.0457 0.35026,0.47901 0.35026,0.47901 0.0916,0.27466 0.0916,0.27467 0.42716,-0.16392 0.42716,-0.16392 0.44701,-0.94201 0.44702,-0.94202 h 0.60967 0.60968 l 0.41851,-0.1606 0.41851,-0.1606 v 0.37461 0.37462 l 0.35956,0.49171 0.35955,0.49172 0.96336,-0.0362 0.96337,-0.0362 v 0.47499 0.47499 l 0.70412,0.64143 0.70412,0.64144 -0.21178,-0.36506 -0.21179,-0.36505 0.32126,0.10708 0.32125,0.10709 -0.001,0.25797 -10e-4,0.25797 0.40358,0.22585 0.40358,0.22586 0.292,-0.292 0.292,-0.29201 h 0.48286 0.48287 l 0.15943,0.79719 0.15944,0.79718 0.56155,0.12453 0.56156,0.12454 0.92604,-0.0618 0.92604,-0.0618 -0.0459,0.51817 -0.0459,0.51817 0.25369,0.47402 0.25368,0.47401 h 0.59923 0.59924 l 0.3175,0.3175 0.3175,0.3175 v 0.21167 0.21167 l -0.59532,0.004 -0.59531,0.004 0.39688,0.25648 0.39687,0.25648 -1.19062,0.0354 -1.19063,0.0354 -0.2181,-0.0379 -0.21811,-0.0379 0.16044,0.25958 0.16043,0.25959 0.45454,-0.1457 0.45455,-0.14569 -0.39687,0.28549 -0.39688,0.28549 0.25136,0.004 0.25135,0.004 -0.30424,0.30424 -0.30425,0.30425 z m -0.85304,-0.14022 h 0.11668 l 0.14167,-0.22922 0.14167,-0.22922 -0.56841,-0.49839 -0.56841,-0.49838 0.23987,0.39688 0.23986,0.39687 0.0371,0.19844 0.0371,0.19844 0.0331,0.13229 0.0331,0.13229 z m 0.0156,-0.26458 h -0.13229 v -0.13229 -0.1323 h 0.13229 0.13229 v 0.1323 0.13229 z m 1.61546,0.085 0.3685,-0.14141 -0.63684,-0.50094 -0.63684,-0.50094 h -0.33511 -0.33512 l 0.60345,0.64235 0.60346,0.64235 z m -0.26015,-0.085 h -0.0999 l -0.36313,-0.46302 -0.36312,-0.46302 0.46302,0.36312 0.46302,0.36313 v 0.0999 0.0999 z m -3.20739,-1.05834 h 0.13229 v -0.13229 -0.13229 h -0.13229 -0.1323 v 0.13229 0.13229 z m 1.85208,-0.52916 h 0.13229 v -0.13229 -0.1323 h -0.13229 -0.13229 v 0.1323 0.13229 z m 1.45521,0 h 0.35278 l -0.17639,-0.17639 -0.17639,-0.17639 -0.17639,0.17639 -0.17639,0.17639 z m -0.92604,-0.26459 h 0.13229 v -0.13229 -0.13229 h -0.13229 -0.1323 v 0.13229 0.13229 z m -5.85007,-0.87904 0.69825,-0.74675 -0.17964,-0.29067 -0.17965,-0.29067 -0.23168,0.62629 -0.23168,0.6263 -0.28693,0.41112 -0.28692,0.41113 z m 5.86568,-0.17929 h 0.11668 v -0.11668 -0.11667 l -0.30547,-0.18879 -0.30546,-0.18879 0.18879,0.30547 0.18878,0.30546 z m 1.04272,-0.26458 h 0.13229 v -0.13229 -0.1323 h -0.13229 -0.13229 v 0.1323 0.13229 z m -1.83647,-0.26459 h 0.11668 v -0.11667 -0.11668 l -0.30547,-0.18879 -0.30546,-0.18878 0.18879,0.30546 0.18878,0.30546 z m 0.91043,-0.26458 h 0.52916 v -0.23981 -0.23981 l -0.52916,0.13837 -0.52917,0.13839 v 0.10143 0.10143 z m -5.26907,-0.94001 0.25062,-0.15489 -0.15489,-0.25061 -0.15489,-0.25062 -0.25062,0.15489 -0.25062,0.15489 0.15489,0.25062 0.15489,0.25061 z m -0.15489,-0.11832 h -0.13229 v -0.13229 -0.1323 h 0.13229 0.13229 v 0.1323 0.13229 z m 0.841,0.26053 0.21733,-0.004 0.38922,-0.24614 0.38921,-0.24615 -0.17818,-0.17818 -0.17817,-0.17817 -0.42838,0.42837 -0.42837,0.42837 z m -9.556642,-0.7897 h 0.116682 v -0.11668 -0.11667 l -0.305462,-0.18879 -0.30547,-0.18879 0.18879,0.30547 0.18879,0.30546 z m 8.186472,-0.26458 h 0.13229 v -0.13229 -0.1323 H 108.08229 107.95 v 0.1323 0.13229 z m 0.52917,0 h 0.13229 v -0.13229 -0.1323 h -0.13229 -0.13229 v 0.1323 0.13229 z m -8.33791,-0.26459 h 0.2115 l 0.1606,-0.41851 0.1606,-0.41852 v -0.11065 -0.11065 h -0.23372 -0.23373 l -0.13838,0.52917 -0.13838,0.52916 z m 6.23686,0 h 0.11667 v -0.11667 -0.11668 l -0.30546,-0.18879 -0.30546,-0.18878 0.18878,0.30546 0.18879,0.30546 z m 0.77813,-0.26458 h 0.13229 v -0.13229 -0.13229 h -0.13229 -0.13229 v 0.13229 0.13229 z m -1.04272,-0.79375 h 0.11668 v -0.11667 -0.11668 l -0.30546,-0.18879 -0.30547,-0.18879 0.18879,0.30547 0.18879,0.30546 z m -6.10103,-0.52917 h 0.13229 v -0.13229 -0.13229 h -0.13229 -0.13229 v 0.13229 0.13229 z m 6.96093,-0.004 0.0818,0.004 -0.16352,-0.26458 -0.16352,-0.26458 -0.31512,0.004 -0.31511,0.004 0.39687,0.25648 0.39688,0.25648 z m 0.71199,-0.26053 H 107.95 v -0.13229 -0.13229 h -0.13229 -0.13229 v 0.13229 0.13229 z m -8.731252,-0.26458 h 0.13229 v -0.13229 -0.13229 h -0.13229 -0.13229 v 0.13229 0.13229 z m -0.52917,-0.26458 h 0.13229 v -0.1323 -0.13229 h -0.13229 -0.13229 v 0.13229 0.1323 z m 1.476422,-0.19347 0.6266,-0.16386 -0.34705,-0.11569 -0.347062,-0.11568 -0.27955,0.27954 -0.27954,0.27955 z m 11.35587,8.39555 h -0.35277 l 0.17639,-0.17639 0.17638,-0.17639 0.17639,0.17639 0.17639,0.17639 z m -5.15937,-1.32292 h -0.13227 v -0.13224 -0.13229 h 0.13229 0.13229 v 0.13229 0.13229 z m 0.26458,-0.52916 h -0.13229 v -0.1323 -0.13229 h 0.13229 0.13229 v 0.13229 0.1323 z m -12.567712,-0.26459 h -0.26458 v -0.26458 -0.26458 h 0.26458 0.26459 v 0.26458 0.26458 z m 1.19063,0 h -0.10106 l -0.16352,-0.26458 -0.16353,-0.26458 h 0.42811 0.4281 l -0.16352,0.26458 -0.16352,0.26458 z m 15.162332,-0.56659 -0.44808,0.34201 0.0384,-0.51044 0.0385,-0.51043 0.48627,0.12716 0.48628,0.12717 -0.0766,0.0413 -0.0766,0.0413 z m -18.072752,-0.22716 h -0.13229 v -0.13224 -0.13229 h 0.13229 0.13229 v 0.13229 0.13229 z m 0.39688,-0.52916 h -0.35278 l 0.17639,-0.17639 0.17639,-0.17639 0.17639,0.17639 0.17639,0.17639 z m 0.70316,-0.64829 -0.75096,0.18848 0.35212,-0.56385 0.35213,-0.56384 h 0.31762 0.31761 l 0.17441,0.28218 0.1744,0.28219 -0.0932,0.0932 -0.0932,0.0932 z m 1.5458,-0.41005 h -0.1323 v -0.13229 -0.13229 h 0.1323 0.13229 v 0.13229 0.13229 z m 10.054162,-0.27336 -0.26458,0.005 -0.7126,-0.46995 -0.71259,-0.46995 0.24552,-0.38821 0.24552,-0.3882 0.004,0.40174 0.004,0.40174 0.7276,0.45112 0.72761,0.45111 z m -8.705862,-0.61452 -0.63607,-0.0382 0.12252,-0.19844 0.12252,-0.19844 h 0.51355 0.51355 v 0.2366 0.23659 z m 6.456902,0.0941 h -0.35277 l 0.17639,-0.17639 0.17638,-0.17639 0.17639,0.17639 0.17639,0.17639 z m -5.556252,-1.32292 h -0.35277 l 0.17639,-0.17639 0.17638,-0.17639 0.17639,0.17639 0.17639,0.17639 z m 12.334362,-0.26458 h -0.13229 l -0.16352,-0.26459 -0.16353,-0.26458 h 0.15722 0.15722 l -0.28613,-0.53463 -0.28613,-0.53464 0.19411,-0.31407 0.1941,-0.31407 0.0642,-0.60232 0.0642,-0.60232 -0.24609,-0.15209 -0.24609,-0.15209 v 0.57309 0.57309 l -0.41418,-0.15893 -0.41417,-0.15894 0.14735,0.46425 0.14734,0.46425 -0.82551,0.0337 -0.82551,0.0337 0.3521,-0.21761 0.35211,-0.21761 0.25275,0.15621 0.25274,0.15621 -0.14929,-0.57091 -0.1493,-0.57091 0.22181,0.13709 0.2218,0.13708 0.36765,-0.52489 0.36766,-0.5249 -0.0745,-1.2641 -0.0745,-1.26409 0.25004,0.3955 0.25003,0.3955 0.004,-0.33903 0.004,-0.33903 -0.35765,-0.13725 -0.35765,-0.13724 0.12391,-0.6482 0.12392,-0.6482 h -0.36892 -0.36892 l -0.45309,0.52916 -0.45308,0.52917 h -0.54737 -0.54738 l 0.16353,-0.26458 0.16352,-0.26459 h 0.48115 0.48116 l 0.31976,-0.38528 0.31975,-0.38529 -0.1562,-0.25275 -0.15621,-0.25274 1.03582,0.0427 1.03583,0.0427 0.57201,0.7276 0.57202,0.7276 h 0.3352 0.3352 l 0.30706,0.67391 0.30705,0.67391 v 0.23491 0.23491 l -0.30524,0.74483 -0.30524,0.74483 -0.0676,0.32684 -0.0677,0.32684 -0.61765,0.99607 -0.61765,0.99608 0.067,0.2058 0.067,0.2058 -0.39781,0.15265 -0.39781,0.15266 0.14638,0.23685 0.14639,0.23686 z m 0.26575,-0.79375 h 0.0999 v -0.0999 -0.0999 l -0.46302,-0.36313 -0.46302,-0.36312 0.36313,0.46302 0.36312,0.46302 z m 0.23319,-0.79375 h 0.11468 l -0.16895,-0.44028 -0.16895,-0.44028 0.29126,0.18001 0.29127,0.18001 0.15764,-0.25507 0.15764,-0.25506 -0.53624,0.10327 -0.53623,0.10326 v -0.29344 -0.29349 l -0.15373,0.15373 -0.15373,0.15373 0.29533,0.55182 0.29533,0.55183 z m 0.26358,-1.32292 h 0.13229 v -0.13229 -0.13229 h -0.13229 -0.13229 v 0.13229 0.13229 z m 0.52917,0 h 0.13229 v -0.13229 -0.13229 h -0.13229 -0.1323 v 0.13229 0.13229 z m -1.01114,-0.26458 h 0.0522 l -0.0365,-0.48507 -0.0365,-0.48507 h -0.3186 -0.31859 l 0.30293,0.48507 0.30293,0.48507 z m 0.71532,-0.26459 h 0.13229 l 0.16353,-0.26458 0.16352,-0.26458 h -0.13229 -0.1323 l -0.16352,0.26458 -0.16352,0.26458 z m -0.23335,-0.52916 h 0.13229 v -0.13229 -0.1323 h -0.13229 -0.13229 v 0.1323 0.13229 z m -1.32292,-0.52917 h 0.13229 v -0.13229 -0.13229 h -0.13229 -0.13229 v 0.13229 0.13229 z m 1.06565,0 h 0.10837 l -0.15667,-0.40828 -0.15668,-0.40829 -0.1261,0.1261 -0.1261,0.1261 0.1744,0.28219 0.1744,0.28218 z m 1.35024,0 h 0.10214 l -0.32296,-0.51713 -0.32295,-0.51714 -0.11387,0.11387 -0.11386,0.11386 0.33468,0.40327 0.33468,0.40327 z m -2.10721,-0.61736 0.17639,-0.17639 -0.17639,-0.17639 -0.17639,-0.17639 v 0.35278 0.35278 z m 0.74966,-0.44097 h 0.13229 v -0.13229 -0.1323 h -0.13229 -0.1323 v 0.1323 0.13229 z m 0.54478,-0.79375 h 0.11667 v -0.26459 -0.26458 h -0.28019 -0.2802 l 0.16352,0.26458 0.16352,0.26459 z m -8.19993,4.23333 h -0.15006 v -0.24538 -0.24538 l 0.66146,-0.5203 0.66145,-0.5203 v -0.17803 -0.17802 l 0.94833,-0.97452 0.94833,-0.97453 -0.35052,0.59532 -0.35051,0.59531 h -0.20094 -0.20094 v 0.35986 0.35987 l -0.90827,0.96305 -0.90827,0.96305 z m -2.928192,-1.05833 h -0.13229 v -0.13229 -0.1323 h 0.13229 0.13229 v 0.1323 0.13229 z m 6.598972,-0.79375 h -0.11668 v -0.26459 -0.26458 h 0.2802 0.2802 l -0.16352,0.26458 -0.16352,0.26459 z m 0.80937,-0.79375 h -0.1323 v -0.13229 -0.1323 h 0.1323 0.13229 v 0.1323 0.13229 z m 0.51355,-0.79375 h -0.11668 v -0.26459 -0.26458 h 0.2802 0.2802 l -0.16352,0.26458 -0.16353,0.26459 z"
       id="path9" />
  </g>
</svg>
