<?xml version="1.0" encoding="UTF-8" standalone="no"?>
<!-- Created with Inkscape (http://www.inkscape.org/) -->

<svg
   width="84.402077mm"
   height="25.75275mm"
   viewBox="0 0 84.402074 25.752749"
   version="1.1"
   id="svg1"
   inkscape:version="1.4.1-rc (06eac75fbf, 2025-03-29)"
   sodipodi:docname="mounts5.svg"
   xmlns:inkscape="http://www.inkscape.org/namespaces/inkscape"
   xmlns:sodipodi="http://sodipodi.sourceforge.net/DTD/sodipodi-0.dtd"
   xmlns="http://www.w3.org/2000/svg"
   xmlns:svg="http://www.w3.org/2000/svg">
  <sodipodi:namedview
     id="namedview1"
     pagecolor="#ffffff"
     bordercolor="#000000"
     borderopacity="0.25"
     inkscape:showpageshadow="2"
     inkscape:pageopacity="0.0"
     inkscape:pagecheckerboard="0"
     inkscape:deskcolor="#d1d1d1"
     inkscape:document-units="mm"
     inkscape:zoom="0.72248176"
     inkscape:cx="159.17357"
     inkscape:cy="47.75207"
     inkscape:window-width="1850"
     inkscape:window-height="1016"
     inkscape:window-x="0"
     inkscape:window-y="0"
     inkscape:window-maximized="1"
     inkscape:current-layer="layer1" />
  <defs
     id="defs1" />
  <g
     inkscape:label="Layer 1"
     inkscape:groupmode="layer"
     id="layer1"
     transform="translate(-62.97083,-135.73273)">
    <path
       style="fill:#000000"
       d="m 117.3427,161.48548 h -0.635 l 0.3175,-0.3175 0.3175,-0.3175 0.3175,0.3175 0.3175,0.3175 z m 1.65365,-0.28318 -0.8599,0.0186 v -0.26459 -0.26458 l 0.33073,0.0186 0.33073,0.0186 0.52917,0.22739 0.52916,0.22739 z M 99.6,160.95631 h -0.24896 v -0.26458 -0.26459 h 0.41249 0.41249 l -0.16353,0.26459 -0.16352,0.26458 z m 21.71145,0 h -0.635 l 0.3175,-0.3175 0.3175,-0.3175 0.3175,0.3175 0.3175,0.3175 z m 2.64584,-0.31801 -0.39688,-0.0162 -0.92604,-0.19492 -0.92604,-0.19493 0.85989,-0.0348 0.8599,-0.0348 v -0.2856 -0.28561 l 0.82685,0.18161 0.82685,0.18161 -0.15142,-0.24501 -0.15142,-0.245 0.84593,0.14424 0.84592,0.14423 -0.73209,0.0905 -0.73209,0.0905 0.11822,0.19128 0.11821,0.19128 -0.97362,-0.0775 -0.97363,-0.0775 0.52916,0.24653 0.52917,0.24653 z m -7.54063,-0.21116 h -0.39687 v -0.25628 -0.25627 l 0.39687,0.15229 0.39688,0.1523 v 0.10398 0.10398 z m 3.31912,-0.12026 h -1.044 l -0.4761,-0.34854 -0.4761,-0.34854 -0.66146,0.13322 -0.66146,0.13321 0.73385,-0.33565 0.73385,-0.33566 -0.20468,-0.21551 -0.20469,-0.2155 0.62845,0.1935 0.62845,0.19351 -0.19736,-0.31933 -0.19735,-0.31932 0.49495,0.26489 0.49495,0.26489 0.26458,0.0261 0.26458,0.0261 v 0.24253 0.24253 l 0.24086,0.22049 0.24086,0.22049 -0.17319,-0.30301 -0.17319,-0.303 0.38688,-0.14846 0.38688,-0.14846 0.18164,0.2939 0.18165,0.29391 -0.33381,-0.2063 -0.33381,-0.20631 0.15938,0.50217 0.15938,0.50217 z m -0.48972,-0.3083 0.1902,-0.11755 -0.15488,-0.40361 -0.15488,-0.4036 -0.38437,0.14749 -0.38437,0.1475 -0.30909,0.009 -0.30909,0.009 0.65814,0.36429 0.65813,0.36428 z m -0.16795,-0.1006 h -0.11668 l -0.18878,-0.30547 -0.18879,-0.30546 0.30546,0.18879 0.30547,0.18878 v 0.11668 0.11668 z m 2.74689,0 h -0.54478 l 0.15638,-0.25303 0.15638,-0.25303 0.3884,0.14905 0.38841,0.14904 v 0.10398 0.10399 z m -22.47396,-0.26459 h -0.35278 l 0.17639,-0.17638 0.17639,-0.17639 0.17639,0.17639 0.17638,0.17638 z m 2.22691,-0.28547 -0.50712,-0.0209 0.34726,-0.13896 0.34727,-0.13897 0.15985,0.15986 0.15985,0.15985 z m 21.59873,0.0209 h -0.25143 l -0.26969,-0.46302 -0.26968,-0.46302 -0.0165,0.39688 -0.0165,0.39687 -0.42406,-0.52917 -0.42405,-0.52916 0.16099,0.4667 0.16099,0.46669 -0.79751,-0.0608 -0.79752,-0.0608 -0.42722,-0.47207 -0.42722,-0.47208 h 0.31489 0.3149 l -0.27389,-0.51177 -0.27389,-0.51177 v -0.58148 -0.58148 l -0.55075,-0.89112 -0.55074,-0.89113 h 0.16066 0.16067 l -0.42281,-0.81763 -0.42282,-0.81763 0.1604,-0.41798 0.1604,-0.41799 -0.29306,-0.18112 -0.29306,-0.18112 -0.97268,0.50239 -0.97267,0.5024 -0.84024,-0.1523 -0.84024,-0.15229 -0.89962,1.39737 -0.89961,1.39736 -0.45838,0.74184 -0.45838,0.74183 -0.57989,0.23358 -0.57989,0.23358 0.36313,0.0168 0.36312,0.0168 -0.36312,0.43754 -0.36313,0.43754 0.0661,0.0916 0.0661,0.0916 v 0.26459 0.26458 h -0.36856 -0.36857 l -0.1523,0.39688 -0.15229,0.39687 h -0.45619 -0.45618 l 0.84475,-0.69983 0.84476,-0.69983 v -0.32611 -0.3261 l -0.39396,-0.32696 -0.39396,-0.32696 0.14499,-0.2346 0.14499,-0.23461 h -0.2741 -0.27409 l -0.39164,0.59772 -0.39164,0.59771 -0.80509,0.47558 -0.80508,0.47558 0.0102,-0.2134 0.0102,-0.2134 0.83109,-0.52916 0.83108,-0.52917 0.0919,-0.28595 0.0919,-0.28595 -0.86701,0.0758 -0.86702,0.0758 1.32291,-0.33706 1.32292,-0.33706 -0.39687,-0.15954 -0.39688,-0.15954 0.46302,-0.0209 0.46302,-0.0209 v 0.24676 0.24675 l 0.54212,0.17207 0.54213,0.17206 0.58235,-0.38395 0.58236,-0.38394 0.30504,-0.82145 0.30504,-0.82145 -0.9665,-0.15708 -0.9665,-0.15708 -0.39687,-0.084 -0.39688,-0.084 0.84268,-0.0307 0.84267,-0.0307 0.65819,0.25024 0.65818,0.25024 0.31488,-0.3794 0.31488,-0.3794 -0.36053,-0.11004 -0.36053,-0.11004 -0.47676,-0.15465 -0.47676,-0.15464 0.16164,0.26155 0.16165,0.26155 h 0.42536 0.42536 l -0.14107,0.14107 -0.14107,0.14107 -1.1057,-0.17681 -1.1057,-0.17681 0.60736,-0.34527 0.60736,-0.34527 0.79375,-0.36942 0.79375,-0.36943 0.76107,-0.18904 0.76107,-0.18905 -0.14699,0.38304 -0.14699,0.38304 0.76857,0.1128 0.76856,0.1128 -0.32431,-0.39342 -0.32432,-0.39343 0.58936,0.31402 0.58936,0.31402 -0.17587,-0.46914 -0.17588,-0.46914 0.44328,0.36053 0.44328,0.36052 0.14558,-0.37936 0.14557,-0.37936 0.75948,0.11147 0.75947,0.11147 0.71892,0.75039 0.71892,0.75038 0.30346,0.60869 0.30346,0.60868 0.92896,0.151 0.92896,0.151 0.32174,0.19885 0.32175,0.19884 v 0.61723 0.61723 l 1.2025,1.33747 1.2025,1.33747 0.51729,0.16418 0.51729,0.16419 -0.004,0.44519 -0.004,0.44519 -0.19439,-0.28388 -0.19439,-0.28389 -0.49248,-0.18214 -0.49248,-0.18213 0.14076,0.3668 0.14076,0.3668 h -0.63564 -0.63564 l 0.13178,-0.21323 0.13178,-0.21323 -0.27321,-0.16885 -0.27322,-0.16886 0.14093,-0.22802 0.14092,-0.22802 -0.33504,-0.20927 -0.33505,-0.20928 -0.36223,-0.0548 -0.36223,-0.0548 0.69666,0.72716 0.69667,0.72716 -0.16884,0.16884 -0.16885,0.16884 -0.43017,-0.45737 -0.43018,-0.45736 0.19844,0.25695 0.19844,0.25695 v 0.21167 0.21166 z m -2.77565,-0.52916 h 0.11667 v -0.11668 -0.11668 l -0.30546,-0.18878 -0.30546,-0.18879 0.18878,0.30546 0.18879,0.30547 z m -0.0156,-0.79375 h 0.13229 v -0.1323 -0.13229 h -0.13229 -0.13229 v 0.1323 0.13229 z m 2.11667,-0.26459 h 0.13229 v -0.13229 -0.13229 h -0.13229 -0.13229 v 0.13229 0.13229 z m -0.79375,-0.52916 h 0.13229 v -0.1323 -0.13229 h -0.13229 -0.13229 v 0.13229 0.1323 z m 0.52916,0 h 0.1323 v -0.1323 -0.13229 h -0.1323 -0.13229 v 0.13229 0.1323 z m 0.79375,-0.26459 h 0.1323 v -0.13229 -0.13229 h -0.1323 -0.13229 v 0.13229 0.13229 z m -2.91041,-0.26458 h 0.13229 v -0.13229 -0.13229 h -0.13229 -0.13229 v 0.13229 0.13229 z m 1.89618,-0.0882 0.17639,-0.17639 -0.17639,-0.17639 -0.17639,-0.17639 v 0.35278 0.35278 z m -0.1277,-1.35092 0.18098,-0.25541 -0.13045,-0.21107 -0.13045,-0.21107 0.34634,-0.0348 0.34635,-0.0348 -0.92604,-0.17574 -0.92605,-0.17574 -0.0836,0.0517 -0.0836,0.0517 0.61281,0.62538 0.61281,0.62538 z m -2.28203,-0.67755 h 0.11667 v -0.11668 -0.11668 l -0.30546,-0.18878 -0.30546,-0.18879 0.18878,0.30546 0.18879,0.30547 z m 0.51355,0 h 0.13229 v -0.13229 -0.1323 h -0.13229 -0.13229 v 0.1323 0.13229 z m -1.05834,-0.79375 h 0.1323 v -0.13229 -0.1323 h -0.1323 -0.13229 v 0.1323 0.13229 z m 0.52917,-0.79375 h 0.13229 v -0.13229 -0.1323 h -0.13229 -0.13229 v 0.1323 0.13229 z m -6.52954,-0.54777 0.085,0.0186 0.44412,-0.44471 0.44412,-0.44472 -0.66146,0.17652 -0.66146,0.17652 -0.39687,0.0222 -0.39688,0.0222 0.52917,0.22739 0.52917,0.22739 z m 5.47121,-0.77515 h 0.13229 v -0.13229 -0.13229 h -0.13229 -0.13229 v 0.13229 0.13229 z m -18.2783,7.38745 -0.50712,-0.0209 0.34727,-0.13897 0.34726,-0.13896 0.15986,0.15985 0.15985,0.15985 z m 3.06476,0.0209 h -0.35278 l 0.17639,-0.17639 0.17639,-0.17639 0.17639,0.17639 0.17638,0.17639 z m 1.19062,-0.26459 h -0.13229 v -0.13229 -0.13229 h 0.13229 0.13229 v 0.13229 0.13229 z m -4.35001,-0.26458 h -0.24897 l -0.16165,-0.26155 -0.16164,-0.26156 0.41061,0.15757 0.41062,0.15757 v 0.10399 0.10398 z m 4.87918,-0.0226 -0.26459,0.0145 0.39688,-0.25648 0.39687,-0.25648 0.39688,0.0145 0.39687,0.0145 -0.52916,0.22739 -0.52917,0.22739 z m 18.80103,-0.24194 h -0.11668 l -0.18878,-0.30546 -0.18879,-0.30546 0.30546,0.18878 0.30547,0.18879 v 0.11668 0.11667 z m -21.31457,-0.52916 h -0.35278 l 0.17639,-0.17639 0.17639,-0.17639 0.17639,0.17639 0.17638,0.17639 z m 2.91041,-0.0614 h -0.92604 l 0.46302,-0.121 0.46302,-0.121 0.46302,0.121 0.46302,0.121 z m -10.45104,-0.2032 h -0.13229 v -0.13229 -0.13229 h 0.13229 0.13229 v 0.13229 0.13229 z m 1.53161,-0.17819 -0.84963,0.16086 -0.15817,-0.25592 -0.15816,-0.25592 h 0.92604 0.92604 l 0.16352,-0.26458 0.16352,-0.26458 0.71199,0.0307 0.71199,0.0307 -0.52917,0.13007 -0.52916,0.13007 -0.26459,0.19888 -0.26458,0.19888 z m 6.80277,-0.12817 h -0.66146 l 0.33073,-0.13345 0.33073,-0.13346 0.33073,0.13346 0.33072,0.13345 z m 2.91041,0 h -0.66146 l 0.33073,-0.13345 0.33073,-0.13346 0.33073,0.13346 0.33073,0.13345 z m -1.05833,-0.26 h -0.39688 l -0.52916,-0.22739 -0.52917,-0.22739 h 0.39688 0.39687 l 0.52917,0.22739 0.52916,0.22739 z m 11.04635,0.0204 -0.0661,-0.0168 -0.56824,-0.22927 -0.56824,-0.22927 -0.17498,-0.28313 -0.17498,-0.28312 h 0.41249 0.41249 v 0.26458 0.26459 h 0.39687 0.39688 v 0.26458 0.26458 z m -9.45885,-0.27046 -0.39688,0.0145 -0.39687,-0.25648 -0.39688,-0.25648 0.26459,0.0145 0.26458,0.0145 0.52917,0.22739 0.52916,0.22739 z m 7.52501,0.0226 h -0.41249 l 0.16619,-0.2689 0.16619,-0.2689 0.2463,0.15222 0.2463,0.15223 v 0.11667 0.11668 z m -23.79689,-0.42606 -0.79375,0.17755 0.39688,-0.26857 0.39687,-0.26857 0.50712,-0.004 0.50712,-0.004 -0.11024,0.0951 -0.11025,0.0951 z m 14.81667,0.16148 h -0.13229 v -0.13229 -0.1323 h 0.13229 0.13229 v 0.1323 0.13229 z m -5.95312,-0.26459 h -0.35278 l 0.17639,-0.17639 0.17639,-0.17638 0.17639,0.17638 0.17638,0.17639 z m 16.93333,0 h -0.35278 l 0.17639,-0.17639 0.17639,-0.17638 0.17639,0.17638 0.17639,0.17639 z m -24.38708,-0.40568 -0.35146,0.18034 0.51359,-0.41649 0.51359,-0.4165 0.54474,0.0227 0.54474,0.0227 -0.70687,0.21342 -0.70688,0.21341 z m 13.64941,0.12021 -0.50712,-0.0209 0.34726,-0.13896 0.34727,-0.13897 0.15985,0.15986 0.15985,0.15985 z m 8.35642,0.0209 h -0.35278 l 0.17639,-0.17639 0.17639,-0.17639 0.17639,0.17639 0.17639,0.17639 z m 10.58333,-0.0418 h -0.66146 l 0.33073,-0.13345 0.33073,-0.13345 0.33073,0.13345 0.33073,0.13345 z m 1.52136,0.0377 -0.72761,0.004 v -0.26458 -0.26459 l 0.33073,0.004 0.33073,0.004 0.39688,0.25649 0.39687,0.25648 z m -25.46615,-0.26053 h -0.13229 v -0.13229 -0.13229 h 0.13229 0.13229 v 0.13229 0.13229 z m 6.21771,0 h -0.35278 l 0.17639,-0.17639 0.17639,-0.17639 0.17639,0.17639 0.17639,0.17639 z m 3.43958,0 h -0.35277 l 0.17638,-0.17639 0.17639,-0.17639 0.17639,0.17639 0.17639,0.17639 z m 5.55625,0 h -0.35277 l 0.17638,-0.17639 0.17639,-0.17639 0.17639,0.17639 0.17639,0.17639 z m -26.06286,-0.528 -0.39547,0.32821 v -0.29194 -0.29194 l 0.68083,-0.17088 0.68083,-0.17087 0.28333,0.28332 0.28332,0.28333 -0.56869,-0.14872 -0.56869,-0.14871 z m 18.52224,0.26342 h -0.13229 v -0.13229 -0.1323 h 0.13229 0.13229 v 0.1323 0.13229 z m 0.0461,-0.48274 -0.74766,0.15244 0.25654,-0.25654 0.25654,-0.25654 0.49112,0.1041 0.49113,0.1041 z m 2.31312,0.19727 -0.50712,-0.0209 0.34727,-0.13897 0.34726,-0.13896 0.15985,0.15985 0.15986,0.15985 z m 5.04913,0.0209 h -0.13229 v -0.1323 -0.13229 h 0.13229 0.13229 v 0.13229 0.1323 z m -47.49271,-0.39688 -0.26458,0.16352 v -0.26458 -0.26458 l 0.26458,-0.16353 0.26459,-0.16352 v 0.26459 0.26458 z m 0.92605,0.13229 h -0.1323 v -0.13229 -0.13229 h 0.1323 0.13229 v 0.13229 0.13229 z m 23.34947,-0.0264 -0.0661,-0.0264 -0.66146,-0.21183 -0.66146,-0.21184 0.72761,-0.0264 0.7276,-0.0264 v 0.26458 0.26459 z m 3.05202,-0.19284 -0.84126,0.12347 0.12156,-0.19669 0.12156,-0.19668 -0.33397,-0.11131 -0.33397,-0.11131 0.76066,0.11956 0.76065,0.11957 0.16539,-0.22672 0.16538,-0.22672 1.32292,-0.48218 1.32292,-0.48218 0.33073,-0.0249 0.33073,-0.0249 v -0.22048 -0.22049 l 0.59531,9.9e-4 0.59531,9.9e-4 -0.86629,0.52818 -0.86629,0.52818 h -0.38243 -0.38243 l -0.87261,0.49011 -0.8726,0.49011 z m 14.21205,0.21922 h -0.35278 l 0.17639,-0.17639 0.17639,-0.17639 0.17639,0.17639 0.17638,0.17639 z m -42.15695,-0.35278 -0.17639,0.17639 v -0.35278 -0.35278 l 0.17639,0.17639 0.17639,0.17639 z m 43.61215,0.0578 -0.26458,-0.0223 -0.66146,-0.21184 -0.66146,-0.21183 0.52917,-0.0223 0.52917,-0.0223 0.39687,0.25648 0.39688,0.25648 z m 4.49792,0.0304 h -0.13229 v -0.13229 -0.13229 h 0.13229 0.13229 v 0.13229 0.13229 z m -25.42205,-0.28547 -0.50712,-0.0209 0.34727,-0.13897 0.34727,-0.13896 0.15985,0.15985 0.15985,0.15985 z m 2.91042,-0.26459 -0.50712,-0.0209 0.34727,-0.13896 0.34726,-0.13896 0.15986,0.15985 0.15985,0.15985 z m 18.54288,-0.0207 -0.26458,-0.0335 -1.05834,-0.18949 -1.05833,-0.18949 0.92604,-0.0335 0.92604,-0.0335 0.39688,0.25648 0.39687,0.25648 z m -19.8658,-0.24387 -0.50712,-0.0209 0.34727,-0.13896 0.34727,-0.13897 0.15985,0.15985 0.15985,0.15986 z m 2.71397,-0.19726 -0.74767,0.15244 0.25654,-0.25654 0.25655,-0.25654 0.49112,0.1041 0.49112,0.1041 z m 11.03503,-0.5998 -1.29153,0.90185 1.5875,-1.57096 1.5875,-1.57096 0.10198,0.0655 0.10199,0.0655 -0.39796,0.60357 -0.39796,0.60357 z m 20.80118,0.80149 -0.1323,3.7e-4 -0.48659,-0.28288 -0.48659,-0.28288 -0.63789,0.12194 -0.63788,0.12194 v -0.38849 -0.38849 l 0.39687,0.15229 0.39688,0.1523 v -0.25124 -0.25124 l 0.67378,-0.16911 0.67378,-0.1691 -0.11981,-0.11981 -0.1198,-0.1198 -0.9661,0.26675 -0.9661,0.26676 -0.99498,-0.35105 -0.99498,-0.35105 -0.45495,0.2546 -0.45495,0.2546 -0.32076,-0.13013 -0.32076,-0.13013 0.49542,-0.0209 0.49542,-0.0209 -0.34319,-0.41351 -0.34318,-0.41351 0.64151,0.16072 0.64152,0.16073 0.5036,-0.36865 0.50359,-0.36864 -0.83432,-0.29085 -0.83433,-0.29085 v -0.32244 -0.32244 l -0.17409,0.17409 -0.17409,0.17409 -0.35508,-0.29468 -0.35507,-0.29469 v -0.26458 -0.26458 l 0.43938,0.36312 0.43938,0.36313 -0.37236,-0.59792 -0.37237,-0.59793 -0.0896,0.26884 -0.0896,0.26885 -0.23895,-0.14768 -0.23896,-0.14769 0.17423,0.45402 0.17422,0.45402 -0.37569,-0.22648 -0.37569,-0.22648 0.36843,0.45405 0.36843,0.45406 -0.1677,0.1677 -0.1677,0.1677 0.29999,0.36147 0.3,0.36147 -0.16888,0.16887 -0.16888,0.16888 -0.72872,-0.33203 -0.72872,-0.33203 -0.0448,0.0906 -0.0448,0.0906 -0.74703,-0.66146 -0.74703,-0.66145 0.52728,0.64017 0.52727,0.64018 -0.47304,-0.1727 -0.47303,-0.17269 -0.14913,0.38861 -0.14912,0.38861 -0.56119,-0.39307 -0.56119,-0.39307 h -0.22133 -0.22132 l 0.14638,0.23686 0.14639,0.23686 -0.40148,0.15406 -0.40147,0.15406 0.29099,-0.54373 0.291,-0.54374 0.37658,0.15282 0.37659,0.15281 0.37705,0.15299 0.37706,0.153 -0.1328,-0.84263 -0.1328,-0.84263 0.35105,0.21125 0.35106,0.21126 -0.35007,-0.43193 -0.35008,-0.43194 -0.44367,0.13654 -0.44368,0.13654 0.47688,-0.30546 0.47687,-0.30546 0.36221,0.30061 0.3622,0.3006 -0.13723,-0.61043 -0.13723,-0.61044 0.55318,0.79375 0.55318,0.79375 0.002,-0.34634 0.002,-0.34635 0.33073,0.19033 0.33073,0.19033 -0.22048,-0.24086 -0.22049,-0.24086 h -0.18716 -0.18717 l -0.83252,-0.92604 -0.83252,-0.92604 0.057,0.39687 0.057,0.39688 0.20661,0.33073 0.20662,0.33073 h -0.19958 -0.19957 l -0.80727,-0.72761 -0.80727,-0.7276 0.64048,0.7276 0.64047,0.72761 h -0.25779 -0.25779 l -0.37662,-0.33073 -0.37663,-0.33073 0.49701,0.59531 0.49701,0.59531 h -0.19251 -0.1925 l 0.55208,0.70185 0.55207,0.70185 -0.11333,0.11334 -0.11334,0.11334 -0.54919,-0.29392 -0.5492,-0.29392 0.0287,-0.19054 0.0287,-0.19054 -0.0644,-0.19843 -0.0644,-0.19844 -0.0425,-0.19844 -0.0425,-0.19844 -0.32492,-0.58459 -0.32493,-0.5846 0.0598,-0.20915 0.0598,-0.20916 -0.32437,-0.58459 -0.32437,-0.5846 0.058,-0.20915 0.058,-0.20916 -0.4307,-0.80696 -0.4307,-0.80697 0.0211,-0.38366 0.0211,-0.38366 -0.0417,-0.56447 -0.0417,-0.56446 -0.66146,-0.12645 -0.66146,-0.12645 v 0.2279 0.22789 h 0.41249 0.41249 l -0.16352,0.26458 -0.16352,0.26459 0.34634,0.008 0.34635,0.008 -0.46859,0.2728 -0.46858,0.2728 0.15347,0.24832 0.15347,0.24832 h -0.14284 -0.14283 l -0.67426,-1.25677 -0.67425,-1.25677 0.15355,0.58178 0.15355,0.58178 -0.49321,0.49321 -0.49321,0.49321 0.36076,0.33699 0.36075,0.337 -0.2908,0.3504 -0.2908,0.35039 0.26151,0.16163 0.26152,0.16162 -0.37047,0.88666 -0.37047,0.88666 0.1659,0.1659 0.1659,0.16589 h -0.26931 -0.26931 l 0.011,-1.25677 0.0111,-1.25677 -0.1076,-0.72124 -0.1076,-0.72124 -0.33969,-0.13035 -0.33969,-0.13035 v 0.33502 0.33502 l -0.92605,1.80829 -0.92604,1.80829 v 0.5855 0.58551 l -0.5204,0.47095 -0.5204,0.47096 h -0.68053 -0.68053 l -0.37305,0.7214 -0.37306,0.7214 -0.92217,0.80968 -0.92217,0.80968 -0.57319,0.18192 -0.57318,0.18192 -0.29087,-0.29087 -0.29086,-0.29086 0.91281,-0.0186 0.91281,-0.0186 -0.52917,-0.22739 -0.52916,-0.22739 0.66146,-0.0226 0.66145,-0.0226 0.32831,-0.20851 0.32831,-0.2085 -3.50331,0.0432 -3.50331,0.0432 -0.88371,0.29 -0.88372,0.29001 -2.03716,-0.004 -2.03715,-0.005 -0.34287,-0.21191 -0.34287,-0.2119 0.0424,-0.22839 0.0424,-0.22839 -0.35057,-0.0929 -0.35058,-0.0929 0.39688,0.28067 0.39687,0.28068 -0.34634,0.004 -0.34634,0.004 0.17924,0.29001 0.17924,0.29002 -0.49436,-0.10729 -0.49435,-0.1073 0.0472,-0.25832 0.0472,-0.25831 -0.44412,-0.0405 -0.44412,-0.0405 -1.36421,-0.0824 -1.36421,-0.0824 0.12305,0.19843 0.12306,0.19844 h -0.14256 -0.14255 l -1.06197,-0.42492 -1.06197,-0.42491 0.13489,-0.21826 0.13489,-0.21826 -0.30978,-0.19146 -0.30978,-0.19145 0.18879,0.30546 0.18879,0.30547 h -0.16105 -0.16104 l -0.78062,-0.40367 -0.78061,-0.40367 v 0.13463 0.13463 l 1.32292,0.67037 1.32292,0.67037 v 0.10307 0.10306 l -0.59532,-0.13047 -0.59531,-0.13048 0.39688,0.30768 0.39687,0.30768 -0.39687,-0.11936 -0.39688,-0.11936 0.077,-0.33012 0.077,-0.33011 -0.36987,0.14193 -0.36987,0.14193 -0.72113,-0.47305 -0.72112,-0.47305 0.0439,-0.18764 0.0439,-0.18764 -0.19676,-0.17639 -0.19676,-0.17638 0.19033,0.33072 0.19033,0.33073 H 80.1742 80.01558 l -0.78304,-0.57892 -0.78304,-0.57892 v -0.24723 -0.24722 l 0.46302,0.35037 0.46303,0.35036 -0.34396,-0.38411 -0.34396,-0.38412 h -0.29545 -0.29545 l -0.12252,-0.36756 -0.12252,-0.36755 0.36505,0.21154 0.36506,0.21154 -0.2061,-0.22647 -0.2061,-0.22647 -0.38572,-0.0566 -0.38572,-0.0566 0.26109,0.48785 0.26109,0.48785 -0.008,0.21583 -0.008,0.21583 -0.38846,-0.51359 -0.38846,-0.51359 -0.004,0.3813 -0.004,0.3813 -0.25648,-0.39688 -0.25648,-0.39687 -0.004,0.32152 -0.004,0.32152 0.78773,0.89718 0.78773,0.89717 -0.19242,0.21279 -0.19241,0.21278 0.39687,-0.21352 0.39688,-0.21353 -0.33329,0.35887 -0.33328,0.35887 0.58508,0.31313 0.58509,0.31312 -0.78097,-0.0427 -0.78097,-0.0427 -0.35378,-0.22342 -0.35378,-0.22343 0.13051,-0.49904 0.1305,-0.49904 -0.28063,-0.17344 -0.28062,-0.17343 0.21405,0.34634 0.21405,0.34635 -0.30546,-0.18879 -0.30546,-0.18879 v -0.49794 -0.49793 l -0.26459,-0.16352 -0.26458,-0.16353 v -0.67126 -0.67127 l -0.42293,-1.45483 -0.42293,-1.45484 0.12166,-0.63641 0.12165,-0.63641 h -0.20687 -0.20687 l -0.17433,0.79376 -0.17434,0.79375 h -0.22573 -0.22573 l -0.16795,0.52916 -0.16796,0.52917 h -0.77592 -0.77592 l 0.0661,0.33073 0.0662,0.33073 0.39687,0.17984 0.39688,0.17984 -0.46303,0.0186 -0.46302,0.0186 v 0.39687 0.39688 h -0.23513 -0.23514 l -0.20403,-0.99219 -0.20402,-0.99219 -0.0907,-0.47851 -0.0907,-0.47852 0.58874,0.41237 0.58875,0.41237 h 0.57428 0.57428 l 0.16059,-0.41851 0.1606,-0.41852 v -0.25337 -0.25338 l -0.3691,0.34116 -0.3691,0.34116 0.12013,0.19844 0.12014,0.19844 h -0.42989 -0.42988 l -0.52444,-0.28067 -0.52444,-0.28067 -0.26175,-0.68846 -0.26175,-0.68845 -0.28699,0.28699 -0.28699,0.28699 -0.36464,-0.13992 -0.36463,-0.13992 v 0.32375 0.32374 l 0.63183,-0.12079 0.63183,-0.12078 -0.0615,0.42067 -0.0615,0.42067 -0.50417,0.0639 -0.50417,0.0639 0.52917,-0.24375 0.52917,-0.24374 -0.59532,-0.0186 -0.59531,-0.0186 -0.0313,0.33073 -0.0313,0.33073 0.0338,0.2058 0.0338,0.2058 -0.43208,0.16581 -0.43209,0.1658 -0.24497,-0.43775 -0.24498,-0.43775 H 67.61917 67.1327 l -1.01561,2.05052 -1.01561,2.05052 -0.73373,1.03189 -0.73373,1.03188 -0.0331,-0.17199 -0.0331,-0.17199 -0.0399,-0.33073 -0.0399,-0.33073 0.38277,-0.29412 0.38277,-0.29413 0.0631,-0.42998 0.0631,-0.42998 -0.5279,0.28252 -0.52791,0.28253 -0.11131,-0.11131 -0.11131,-0.11131 0.52293,-0.60294 0.52292,-0.60293 0.4048,0.15534 0.40479,0.15533 v -0.25628 -0.25628 l -0.46302,-0.0313 -0.46302,-0.0313 0.77192,-0.16713 0.77193,-0.16713 0.10322,-0.31033 0.10322,-0.31033 -0.61056,-0.11666 -0.61056,-0.11666 0.92604,-0.0673 0.92604,-0.0673 -0.79375,-0.20198 -0.79375,-0.20197 0.8599,-0.0313 0.85989,-0.0313 v -0.39688 -0.39687 l -0.33073,-0.0314 -0.33072,-0.0314 1.32291,-0.30885 1.32292,-0.30885 0.45801,-0.91649 0.45801,-0.91649 0.56349,-0.46302 0.56349,-0.46302 0.566,0.009 0.566,0.009 0.66146,0.40408 0.66146,0.40408 -0.62561,-0.13203 -0.6256,-0.13202 0.58142,0.6189 0.58143,0.6189 0.6453,-0.0708 0.64531,-0.0708 0.47804,-0.43262 0.47804,-0.43262 h 0.4027 0.40271 l 0.83292,0.29035 0.83292,0.29036 -0.13755,0.22255 -0.13754,0.22255 0.46859,0.2728 0.46858,0.2728 -0.34634,0.008 -0.34635,0.008 0.17467,0.28262 0.17467,0.28262 0.4282,-0.16431 0.42819,-0.16432 -0.18808,0.18808 -0.18808,0.18808 0.29469,0.35507 0.29468,0.35507 H 79.32724 79.61 l -0.51359,-0.38846 -0.51359,-0.38846 0.34634,-0.008 0.34634,-0.008 -0.17467,-0.28262 -0.17467,-0.28262 -0.32601,0.1251 -0.32602,0.12511 v -0.37165 -0.37165 l 0.15434,0.01 0.15435,0.01 0.79375,0.66055 0.79375,0.66056 -0.46303,-0.16921 -0.46302,-0.16921 v 0.15215 0.15215 l 0.72761,0.41499 0.7276,0.41499 -0.62844,-0.17031 -0.62845,-0.1703 0.21542,0.34856 0.21543,0.34857 -0.99194,-0.58526 -0.99194,-0.58526 0.21029,0.33119 0.21028,0.33118 0.0371,0.19844 0.0371,0.19844 0.0331,0.26458 0.0331,0.26459 h 0.60956 0.60956 l 0.89755,0.92604 0.89756,0.92604 h 0.73302 0.73303 l 0.89083,0.89083 0.89083,0.89083 1.96226,0.16882 1.96226,0.16881 1.03828,-0.11155 1.03827,-0.11156 -0.37682,0.23848 -0.37681,0.23849 0.27781,0.004 0.27781,0.004 0.28583,-0.28583 0.28583,-0.28583 1.15615,0.39672 1.15615,0.39672 0.52917,0.17197 0.52916,0.17196 -0.66145,-0.43342 -0.66146,-0.43343 0.4876,0.1517 0.4876,0.15169 0.67634,0.16975 0.67634,0.16975 -0.18737,-0.30317 -0.18737,-0.30317 h 0.29582 0.29581 l -0.16352,-0.26458 -0.16352,-0.26458 0.47863,0.008 0.47864,0.008 0.47704,0.36173 0.47705,0.36174 -0.34476,0.12164 -0.34475,0.12163 1.18002,-0.0605 1.18002,-0.0605 0.74332,0.21318 0.74331,0.21318 -0.17686,-0.28616 -0.17686,-0.28617 0.76707,0.17892 0.76706,0.17891 -0.36066,-0.24059 -0.36067,-0.24059 0.36067,-0.16188 0.36066,-0.16188 -0.66145,0.1875 -0.66146,0.18749 -0.73116,-0.0199 -0.73115,-0.0198 -0.48031,-0.43467 -0.4803,-0.43467 -1.0375,-0.012 -1.0375,-0.012 -1.16663,-0.61023 -1.16664,-0.61024 0.74189,-0.18621 0.74188,-0.1862 0.29246,0.30897 0.29246,0.30897 -0.66146,-0.1949 -0.66146,-0.1949 0.13229,0.11295 0.13229,0.11295 0.76019,0.47653 0.76018,0.47653 -0.22336,-0.35817 -0.22336,-0.35817 -0.0776,-0.49854 -0.0776,-0.49854 0.39217,0.32548 0.39218,0.32547 -0.0229,0.17306 -0.0229,0.17307 0.0313,0.33072 0.0313,0.33073 h 0.24117 0.24117 l -0.0543,-0.37018 -0.0543,-0.37018 -0.31387,-0.37819 -0.31387,-0.37819 -0.0791,-0.5084 -0.0791,-0.5084 -0.21727,-0.34833 -0.21728,-0.34833 0.11193,-0.11193 0.11193,-0.11193 0.75781,0.79099 0.75782,0.79099 -0.38023,0.008 -0.38023,0.008 0.44843,0.26152 0.44843,0.26152 0.81037,-0.49281 0.81036,-0.49281 -0.59734,-0.30732 -0.59734,-0.30731 0.57305,0.14445 0.57305,0.14444 0.19544,-0.31622 0.19543,-0.31623 -0.32696,0.20208 -0.32696,0.20207 -0.75075,-0.71926 -0.75075,-0.71927 -0.26798,0.16563 -0.26798,0.16562 -0.42008,-0.59974 -0.42007,-0.59974 -0.0611,0.10497 -0.061,0.10497 -0.59531,-0.18895 -0.59532,-0.18894 v -0.24669 -0.24675 h -0.47859 -0.4786 l -0.51359,-0.38846 -0.51359,-0.38846 -0.47864,-0.008 -0.47863,-0.008 0.16352,-0.26459 0.16352,-0.26458 -0.47864,-0.008 -0.47863,-0.008 -0.51359,-0.38846 -0.51359,-0.38846 0.51359,0.0112 0.51359,0.0112 1.45521,0.35084 1.4552,0.35084 -0.79375,0.12747 -0.79375,0.12748 1.06779,0.0396 1.06778,0.0396 v -0.5098 -0.50974 l -0.20789,0.12848 -0.20788,0.12849 -0.33073,-0.20662 -0.33073,-0.20661 -0.33199,-0.0504 -0.33199,-0.0504 0.14917,0.24136 0.14916,0.24135 h -0.25189 -0.25189 l -0.13609,-0.35464 -0.13609,-0.35465 -0.81826,0.12009 -0.81826,0.1201 v -0.5592 -0.5592 l -0.0198,-0.19182 -0.0198,-0.19182 0.28442,-0.0948 0.28443,-0.0948 v 0.68351 0.6835 h 0.29289 0.29289 l -0.1606,-0.41851 -0.1606,-0.41852 v -0.37523 -0.37524 l -0.59531,-0.0186 -0.59531,-0.0186 0.52916,-0.22739 0.52917,-0.22739 -0.33577,-0.0186 -0.33577,-0.0186 0.16602,-0.66146 0.16601,-0.66145 h -0.14404 -0.14405 l -0.60292,1.07275 -0.60292,1.07275 -0.5642,-0.1416 -0.5642,-0.14161 -0.68298,1.39481 -0.68297,1.39481 -0.17989,0.71675 -0.17989,0.71675 h -0.61716 -0.61716 l -0.16165,0.26155 -0.16165,0.26156 0.36652,-0.14065 0.36652,-0.14065 0.003,0.34212 0.003,0.34211 0.18102,0.56164 0.18102,0.56163 -0.94239,0.82743 -0.94239,0.82743 h -0.28459 -0.28459 l 1.0214,-0.912 1.0214,-0.912 -0.52916,-0.39613 -0.52917,-0.39613 -0.63332,-0.34442 -0.63331,-0.34442 -0.29273,0.49059 -0.29272,0.49058 -0.49319,0.64673 -0.49318,0.64673 -0.13505,-0.13505 -0.13506,-0.13505 0.69439,-0.82522 0.69438,-0.82523 v -0.24428 -0.24428 h -0.26459 -0.26458 v -0.29698 -0.29699 l 0.39688,0.32938 0.39687,0.32938 v -0.29698 -0.29698 l 0.46302,-0.008 0.46302,-0.008 0.47705,-0.36174 0.47704,-0.36174 -0.34475,-0.13812 -0.34475,-0.13813 0.34812,-0.0209 0.34812,-0.0209 0.5437,0.29098 0.54371,0.29098 -0.20763,-0.33594 -0.20762,-0.33595 0.45402,0.17423 0.45402,0.17422 -0.16165,-0.26155 -0.16165,-0.26155 0.34634,-0.009 0.34635,-0.009 -0.64681,-0.53833 -0.64681,-0.53833 0.71295,0.17894 0.71296,0.17894 v -0.38332 -0.3833 l -0.98904,-0.70371 -0.98905,-0.70372 h 0.29191 0.2919 l 0.67273,0.52917 0.67272,0.52916 h 0.22536 0.22535 l 0.33047,-0.52916 0.33047,-0.52917 h 0.61903 0.61903 l 0.46813,-1.03811 0.46812,-1.03811 0.43195,0.16182 0.43196,0.16182 0.29034,0.3872 0.29035,0.38721 0.18829,-0.30466 0.18829,-0.30467 h 0.27728 0.27727 l -0.14041,0.36592 -0.14041,0.36591 0.90585,-0.27801 0.90586,-0.27802 v -0.25259 -0.25259 l 0.39396,0.32696 0.39396,0.32696 -0.12577,0.20351 -0.12577,0.2035 0.5917,0.75224 0.59171,0.75223 -0.0661,0.0726 -0.0661,0.0726 0.15434,0.0221 0.15434,0.0221 0.17639,-0.19676 0.17639,-0.19676 -0.39688,0.21713 -0.39687,0.21713 0.19936,-0.21973 0.19937,-0.21974 -0.44401,-0.68258 -0.44401,-0.68258 0.40128,0.32844 0.40128,0.32843 0.13,-0.13 0.12999,-0.12999 0.0229,0.33073 0.0229,0.33073 0.1397,0.60238 0.13971,0.60238 -0.25075,-0.15498 -0.25076,-0.15497 v 0.29581 0.29581 l -0.30546,-0.18878 -0.30546,-0.18879 0.19145,0.30978 0.19145,0.30978 0.21826,-0.13489 0.21826,-0.13489 0.42821,1.07019 0.42821,1.0702 0.19777,-0.12222 0.19776,-0.12223 0.86819,0.36504 0.86818,0.36505 0.27956,0.80193 0.27956,0.80194 0.43713,0.0261 0.43714,0.0261 0.65216,0.0401 0.65217,0.0401 0.27388,0.53137 0.27387,0.53137 0.39688,0.53104 0.39687,0.53103 0.66146,0.32291 0.66146,0.3229 0.70695,0.56915 0.70694,0.56916 0.41753,-0.16022 0.41754,-0.16023 -0.004,-0.47132 -0.004,-0.47133 -0.25648,0.39688 -0.25648,0.39687 -0.004,-0.22011 -0.004,-0.22012 1.10587,-2.16113 1.10586,-2.16114 0.17849,-0.39488 0.17848,-0.39488 0.81804,-0.23461 0.81804,-0.23461 0.0804,-0.69343 0.0804,-0.69342 0.66146,0.0775 0.66145,0.0775 0.66146,0.0994 0.66146,0.0994 0.46302,0.0215 0.46302,0.0215 v 0.52307 0.52306 l 0.63344,0.41505 0.63345,0.41505 0.65741,-0.165 0.6574,-0.165 1.42113,1.24854 1.42113,1.24854 0.12423,0.10899 0.12423,0.109 -0.48116,-0.18464 -0.48115,-0.18463 0.35692,0.57481 0.35693,0.57481 1.07572,0.52188 1.07573,0.52189 0.37948,7.6e-4 0.37949,7.6e-4 0.52777,0.78771 0.52778,0.78771 0.66285,0.27339 0.66285,0.27338 0.66146,-3.1e-4 0.66145,-3.1e-4 0.98399,-0.0109 0.98398,-0.011 0.67904,1.07566 0.67903,1.07565 0.80636,0.49038 0.80636,0.49038 -0.2811,0.17373 -0.28109,0.17373 -0.60079,-0.31082 -0.60078,-0.31082 -0.52916,-0.42902 -0.52917,-0.42902 0.50403,0.59531 0.50403,0.59531 h -0.2057 -0.20569 l 0.30982,0.37332 0.30983,0.37332 -0.3205,0.19808 -0.3205,0.19808 -0.76952,-0.86124 -0.76952,-0.86124 -0.11241,0.11241 -0.11241,0.11241 0.66042,0.62042 0.66041,0.62043 v 0.18234 0.18234 l -0.59531,-0.0624 -0.59531,-0.0624 -0.0661,-0.0668 -0.0661,-0.0668 -0.24254,-0.0331 -0.24253,-0.0331 -0.22049,-0.24086 -0.22049,-0.24086 0.39688,0.21353 0.39687,0.21353 -0.28648,-0.31208 -0.28649,-0.31207 -0.44889,0.17226 -0.4489,0.17226 0.4708,0.35716 0.4708,0.35717 z m 1.56747,-0.25649 0.11227,0.008 -0.62141,-0.66145 -0.62141,-0.66146 h -0.23322 -0.23321 l 0.74236,0.65309 0.74235,0.6531 z m 1.21065,-0.25622 h 0.13229 v -0.13229 -0.13229 h -0.13229 -0.13229 v 0.13229 0.13229 z m -3.43958,-0.52917 h 0.13229 v -0.13229 -0.13229 h -0.13229 -0.13229 v 0.13229 0.13229 z m -1.15748,-0.72575 0.61466,-0.16074 -0.39005,-0.12167 -0.39005,-0.12167 -0.52917,-0.24343 -0.52916,-0.24343 0.45891,0.37149 0.4589,0.37149 -0.15435,0.15435 -0.15435,0.15435 z m -1.22377,-0.068 h 0.13229 v -0.13229 -0.13229 h -0.13229 -0.13229 v 0.13229 0.13229 z m 3.175,0 h 0.13229 v -0.13229 -0.13229 h -0.13229 -0.13229 v 0.13229 0.13229 z m -0.92604,-0.26458 h 0.35277 l -0.17639,-0.17639 -0.17638,-0.17639 -0.17639,0.17639 -0.17639,0.17639 z m 1.85208,0 h 0.26458 v -0.79375 -0.79375 h -0.37523 -0.37524 l -0.35237,-0.0889 -0.35237,-0.0889 0.19844,0.11097 0.19844,0.11098 v 0.35005 0.35006 l -0.59531,-0.10381 -0.59532,-0.10382 0.8599,0.29915 0.8599,0.29915 v 0.22631 0.22631 z m -37.17396,-0.26459 h 0.13229 v -0.13229 -0.13229 h -0.13229 -0.13229 v 0.13229 0.13229 z m 2.49793,0 h 0.24897 l 0.16165,-0.26155 0.16164,-0.26155 -0.41061,0.15756 -0.41062,0.15757 v 0.10399 0.10398 z m 31.8979,0 h 0.1323 v -0.13229 -0.13229 h -0.1323 -0.13229 v 0.13229 0.13229 z m -33.60208,-0.2726 h 0.26458 l -0.39687,-0.25648 -0.39688,-0.25648 h -0.26458 -0.26458 l 0.39687,0.25648 0.39688,0.25648 z m 0.92604,0.008 h 0.35278 l -0.17639,-0.17639 -0.17639,-0.17639 -0.17639,0.17639 -0.17638,0.17639 z m 0.66146,-0.26459 h 0.13229 v -0.13229 -0.13229 H 92.6042 92.47191 v 0.13229 0.13229 z m 3.41754,-0.0209 0.50711,0.0209 -0.15985,-0.15985 -0.15985,-0.15985 -0.34727,0.13896 -0.34726,0.13897 z m 23.76665,0.018 0.33248,-0.003 -0.91991,-0.72467 -0.91992,-0.72467 -0.13842,0.0437 -0.13842,0.0436 -0.39687,-0.30823 -0.39688,-0.30823 0.36071,0.46011 0.36071,0.46011 0.19473,-0.12036 0.19474,-0.12035 0.56729,0.65243 0.56728,0.65244 z m 3.77206,0.003 h 0.13229 v -0.13229 -0.13229 h -0.13229 -0.13229 v 0.13229 0.13229 z m -34.925,-0.26458 h 0.13229 v -0.13229 -0.13229 h -0.13229 -0.13229 v 0.13229 0.13229 z m 35.59969,-0.004 0.14552,0.004 0.25135,-0.2389 0.25136,-0.2389 0.52916,-0.12728 0.52917,-0.12729 -0.7276,-0.0307 -0.72761,-0.0307 v 0.28242 0.28241 l -0.59531,-0.16745 -0.59531,-0.16746 0.39687,0.27787 0.39688,0.27786 z m 0.91281,0.004 h 0.13229 v -0.13229 -0.13229 h -0.13229 -0.13229 v 0.13229 0.13229 z M 96.04378,150.373 h 0.1323 v -0.1323 -0.13229 h -0.1323 -0.13229 v 0.13229 0.1323 z m 5.95313,0 h 0.35278 l -0.17639,-0.17639 -0.17639,-0.17639 -0.17639,0.17639 -0.17639,0.17639 z m -18.35614,-0.26459 h 0.0999 v -0.0999 -0.0999 l -0.46302,-0.36312 -0.46302,-0.36313 0.36312,0.46302 0.36313,0.46302 z m 16.10718,0 h 0.13229 v -0.13229 -0.13229 h -0.13229 -0.13229 v 0.13229 0.13229 z m 2.91042,0 h 0.13229 v -0.13229 -0.13229 h -0.13229 -0.13229 v 0.13229 0.13229 z m 16.96573,0 h 0.0999 v -0.0999 -0.0999 l -0.46302,-0.36312 -0.46302,-0.36313 0.36313,0.46302 0.36312,0.46302 z m 2.66791,0 h 0.10475 l -0.70633,-0.92604 -0.70633,-0.92604 h -0.13328 -0.13329 l 0.35133,0.46302 0.35132,0.46302 0.38354,0.46302 0.38354,0.46302 z m 0.78028,0 h 0.0913 v -0.0913 -0.0913 l -0.59532,-0.50403 -0.59531,-0.50402 0.50403,0.59531 0.50403,0.59531 z m -24.10247,-0.26458 h 0.11667 v -0.11668 -0.11667 l -0.30546,-0.18879 -0.30546,-0.18879 0.18878,0.30547 0.18879,0.30546 z m 1.4679,0 h 0.29289 l -0.1523,-0.39688 -0.15229,-0.39687 h 0.20336 0.20336 l 0.37089,0.33073 0.37088,0.33073 -0.31567,-0.42122 -0.31567,-0.42122 0.19614,-0.20993 0.19614,-0.20993 -0.59531,0.30973 -0.59531,0.30973 v 0.38756 0.38757 z m 1.55919,0 h 0.35278 l -0.17639,-0.17639 -0.17639,-0.17639 -0.17639,0.17639 -0.17639,0.17639 z m -19.97604,-0.26458 h 0.13229 v -0.1323 -0.13229 h -0.13229 -0.13229 v 0.13229 0.1323 z m 17.59479,0 h 0.35278 l -0.17639,-0.17639 -0.17639,-0.17639 -0.17639,0.17639 -0.17639,0.17639 z m 3.83646,0 h 0.13229 v -0.1323 -0.13229 h -0.13229 -0.13229 v 0.13229 0.1323 z M 81.4917,149.31462 h 0.13229 v -0.13229 -0.13229 H 81.4917 81.35941 v 0.13229 0.13229 z m 1.05834,0 h 0.13229 v -0.13229 -0.13229 h -0.13229 -0.1323 v 0.13229 0.13229 z m 20.24062,0 h 0.35278 l -0.17639,-0.17639 -0.17639,-0.17639 -0.17639,0.17639 -0.17639,0.17639 z m -19.69584,-0.26458 h 0.11667 v -0.11668 -0.11667 l -0.30546,-0.18879 -0.30546,-0.18879 0.18878,0.30547 0.18879,0.30546 z m 14.53646,0 h 0.1323 v -0.13229 -0.13229 h -0.1323 -0.13229 v 0.13229 0.13229 z m 0.66146,0 h 0.35278 l -0.17639,-0.17639 -0.17639,-0.17639 -0.17639,0.17639 -0.17638,0.17639 z m 0.66146,0 h 0.13229 v -0.13229 -0.13229 H 98.9542 98.82191 v 0.13229 0.13229 z m 2.64583,0 h 0.1323 v -0.13229 -0.13229 h -0.1323 -0.13229 v 0.13229 0.13229 z m 0.52917,0 h 0.13229 v -0.13229 -0.13229 h -0.13229 -0.13229 v 0.13229 0.13229 z m 2.19843,-0.004 0.0818,0.004 -0.16352,-0.26458 -0.16352,-0.26459 -0.31512,0.004 -0.31511,0.004 0.39687,0.25648 0.39688,0.25648 z m -1.66926,-0.26053 h 0.13229 v -0.13229 -0.1323 h -0.13229 -0.13229 v 0.13229 0.1323 z m -3.83646,-0.32597 h 0.92604 l -0.46302,-0.121 -0.46302,-0.121 -0.46302,0.121 -0.46302,0.121 z m 3.30729,0.0614 h 0.13229 v -0.13229 -0.13229 h -0.13229 -0.13229 v 0.13229 0.13229 z m 16.93434,0 h 0.11468 l -0.16895,-0.44028 -0.16895,-0.44028 0.30954,0.19131 0.30955,0.19131 v -0.12177 -0.12177 l -0.97501,-0.57527 -0.97502,-0.57527 0.31126,0.37504 0.31126,0.37504 -0.19614,0.21652 -0.19614,0.21651 0.31745,-0.18212 0.31746,-0.18213 0.28716,0.53658 0.28717,0.53658 z m -39.65611,-0.26458 h 0.0999 v -0.0999 -0.0999 l -0.46302,-0.36313 -0.46302,-0.36313 0.36312,0.46302 0.36313,0.46302 z m 17.69469,0 h 0.13229 v -0.1323 -0.13229 h -0.13229 -0.13229 v 0.13229 0.1323 z m 5.55625,0 h 0.13229 v -0.1323 -0.13229 h -0.13229 -0.13229 v 0.13229 0.1323 z m 1.09073,0 h 0.0999 v -0.0999 -0.0999 l -0.46302,-0.36313 -0.46302,-0.36313 0.36313,0.46302 0.36312,0.46302 z m -5.58865,-0.26459 h 0.13229 v -0.13229 -0.13229 h -0.13229 -0.13229 v 0.13229 0.13229 z m 0.92604,-0.0418 h 0.66146 l -0.33073,-0.13345 -0.33073,-0.13345 -0.33073,0.13345 -0.33073,0.13345 z m 1.05834,0.0418 h 0.35277 l -0.17638,-0.17639 -0.17639,-0.17639 -0.17639,0.17639 -0.17639,0.17639 z m 1.19062,0 h 0.13229 v -0.13229 -0.13229 h -0.13229 -0.13229 v 0.13229 0.13229 z m 0.79375,0 h 0.13229 v -0.13229 -0.13229 h -0.13229 -0.13229 v 0.13229 0.13229 z m 19.31458,0 h 0.1323 v -0.13229 -0.13229 h -0.1323 -0.13229 v 0.13229 0.13229 z m -0.74318,-0.26458 h 0.0817 v -0.12291 -0.12298 l -0.59532,-0.28849 -0.59531,-0.28849 0.51359,0.41147 0.51359,0.41147 z m -44.23598,-0.26458 h 0.13229 v -0.1323 -0.13229 h -0.13229 -0.13229 v 0.13229 0.1323 z m 0.52917,0 h 0.13229 v -0.1323 -0.13229 h -0.13229 -0.1323 v 0.13229 0.1323 z m 22.48958,0 h 0.13229 v -0.1323 -0.13229 h -0.13229 -0.13229 v 0.13229 0.1323 z m 0.51355,0 h 0.11668 l 0.16352,-0.26459 0.16352,-0.26458 h -0.2802 -0.2802 v 0.26458 0.26459 z m 21.18228,0 h 0.13229 v -0.1323 -0.13229 h -0.13229 -0.13229 v 0.13229 0.1323 z m -44.97916,-0.52917 h 0.13229 v -0.13229 -0.13229 h -0.13229 -0.1323 v 0.13229 0.13229 z m 0.52916,0 h 0.13229 v -0.13229 -0.13229 H 76.7292 76.59691 v 0.13229 0.13229 z m 24.40781,-0.0307 0.0662,0.0307 v -0.12291 -0.12298 l -0.52917,-0.2832 -0.52916,-0.2832 v 0.25449 0.25449 l 0.46302,0.121 0.46302,0.121 z m 0.46302,0.0307 h 0.1323 v -0.13229 -0.13229 h -0.1323 -0.13229 v 0.13229 0.13229 z m 0.79375,0 h 0.1323 v -0.13229 -0.13229 h -0.1323 -0.13229 v 0.13229 0.13229 z m -23.54791,-0.26458 h 0.13229 v -0.13229 -0.1323 h -0.13229 -0.13229 v 0.1323 0.13229 z m 0.52917,0 h 0.13229 v -0.13229 -0.1323 h -0.13229 -0.1323 v 0.1323 0.13229 z m 36.24791,0 h 0.13229 v -0.13229 -0.1323 h -0.13229 -0.13229 v 0.1323 0.13229 z m -38.1,-0.26459 h 0.13229 v -0.13229 -0.13229 h -0.13229 -0.13229 v 0.13229 0.13229 z m 37.32187,0 h 0.11667 v -0.11667 -0.11668 l -0.30546,-0.18879 -0.30546,-0.18878 0.18878,0.30546 0.18879,0.30546 z m 3.72094,0 h 0.0999 v -0.0999 -0.0999 l -0.46302,-0.36312 -0.46302,-0.36313 0.36312,0.46302 0.36313,0.46302 z m -42.63031,-0.26458 h 0.13229 v -0.13229 -0.13229 h -0.13229 -0.13229 v 0.13229 0.13229 z m 24.07708,-0.26458 h 0.1323 v -0.1323 -0.13229 h -0.1323 -0.13229 v 0.13229 0.1323 z m 15.10303,0 h 0.11802 l -0.70041,-1.05826 -0.70037,-1.05834 h -0.11275 -0.11274 l 0.19129,0.33073 0.19128,0.33073 0.50381,0.72761 0.5038,0.7276 z M 98.9542,145.6104 h 0.13229 v -0.13229 -0.13229 H 98.9542 98.82191 v 0.13229 0.13229 z m -23.28333,-0.26458 h 0.13229 v -0.13229 -0.13229 h -0.13229 -0.13229 v 0.13229 0.13229 z m 39.50411,-0.38987 0.14811,-0.14812 -0.32877,-0.32632 -0.32876,-0.32632 0.18065,0.47444 0.18066,0.47443 z m 3.5368,0.12529 h 0.21846 v -0.0804 -0.0804 l -0.96577,-0.9118 -0.96578,-0.9118 0.21139,0.39687 0.21138,0.39688 0.53593,0.59531 0.53593,0.59531 z m -46.21591,-0.26459 h 0.13229 v -0.13229 -0.13229 h -0.13229 -0.13229 v 0.13229 0.13229 z m 25.57639,0 h 0.22048 v -0.39687 -0.39688 h -0.22048 -0.22049 v 0.39688 0.39687 z m 18.87361,0 h 0.13229 v -0.13229 -0.13229 h -0.13229 -0.13229 v 0.13229 0.13229 z m -18.21215,-0.35278 0.17638,-0.17638 -0.17638,-0.17639 -0.17639,-0.17639 v 0.35278 0.35277 z m -26.15609,-0.18044 0.0818,0.004 -0.16352,-0.26458 -0.16352,-0.26458 -0.31512,0.004 -0.31511,0.004 0.39687,0.25648 0.39688,0.25648 z m 2.82866,0.004 h 0.13229 v -0.13229 -0.13229 h -0.13229 -0.1323 v 0.13229 0.13229 z m 0.52916,0 h 0.13229 v -0.13229 -0.13229 h -0.13229 -0.13229 v 0.13229 0.13229 z m 9.12813,0 h 0.35277 l -0.17638,-0.17638 -0.17639,-0.17639 -0.17639,0.17639 -0.17639,0.17638 z m 30.8338,-0.008 0.01,0.008 0.0378,-0.50185 0.0378,-0.50185 -0.77524,-0.11378 -0.77525,-0.11378 v 0.23437 0.23437 l -0.33073,-0.19869 -0.33073,-0.1987 0.36312,0.44767 0.36313,0.44766 h 0.11551 0.11551 l -0.16352,-0.26458 -0.16352,-0.26459 h 0.22962 0.22963 l 0.51359,0.38846 0.51359,0.38846 z m -18.92755,-0.25616 h 0.35277 l -0.17638,-0.17639 -0.17639,-0.17639 -0.17639,0.17639 -0.17639,0.17639 z m -0.79375,-0.26459 h 0.35277 l -0.17638,-0.17639 -0.17639,-0.17639 -0.17639,0.17639 -0.17639,0.17639 z m 2.26457,0 h 0.11668 v -0.11667 -0.11668 l -0.30547,-0.18879 -0.30546,-0.18879 0.18879,0.30547 0.18878,0.30546 z m -14.18648,-0.26457 h 0.2802 v -0.26458 -0.26459 h -0.11668 -0.11667 l -0.16352,0.26459 -0.16353,0.26458 z m 12.58332,0 h 0.1323 v -0.13229 -0.13229 h -0.1323 -0.13229 v 0.13229 0.13229 z m -27.08337,-0.36491 0.31422,-0.0606 0.066,-0.44994 0.066,-0.44994 -0.24568,0.15183 -0.24567,0.15184 0.13826,0.2237 0.13825,0.2237 -0.27284,0.13505 -0.27285,0.13505 z m 26.28962,0.10033 h 0.1323 v -0.13229 -0.1323 h -0.1323 -0.13229 v 0.1323 0.13229 z m -0.81579,-0.28547 0.50711,0.0209 -0.15985,-0.15986 -0.15985,-0.15985 -0.34727,0.13897 -0.34726,0.13896 z m 2.66788,0.0209 h 0.13229 v -0.1323 -0.13229 h -0.13229 -0.13229 v 0.13229 0.13229 z m 15.875,0 h 0.13229 v -0.1323 -0.13229 h -0.13229 -0.13229 v 0.13229 0.13229 z m -43.12708,-0.26459 h 0.13229 v -0.13229 -0.13229 h -0.13229 -0.1323 v 0.13229 0.13229 z m 22.9967,-0.0209 0.50711,0.0209 -0.15985,-0.15985 -0.15985,-0.15985 -0.34727,0.13896 -0.34726,0.13896 z m 2.40329,0.0209 h 0.1323 v -0.13229 -0.13229 h -0.1323 -0.13229 v 0.13229 0.13229 z m -1.05833,-0.26458 h 0.39688 v -0.10399 -0.10398 l -0.39688,-0.1523 -0.39687,-0.15229 v 0.25628 0.25628 z m 18.78542,-0.52917 h 0.13229 v -0.13229 -0.13229 h -0.13229 -0.13229 v 0.13229 0.13229 z m -18.19257,-0.37236 0.11002,-0.11002 -0.40699,-0.751 -0.40698,-0.75099 -0.0106,0.18598 -0.0106,0.18599 0.30756,0.67503 0.30756,0.67502 z m -0.82565,-0.23269 0.1029,-0.10289 -0.29637,-0.85016 -0.29637,-0.85016 -0.10289,0.10289 -0.1029,0.1029 0.29637,0.85016 0.29637,0.85016 z m -2.28074,-0.98245 0.25648,-0.39687 -0.0145,-0.39688 -0.0145,-0.39687 -0.22739,0.52916 -0.22739,0.52917 -0.0146,0.26458 -0.0145,0.26459 z m 0.92604,0.26458 h 0.13229 v -0.13229 -0.13229 h -0.13229 -0.13229 v 0.13229 0.13229 z m 0.52917,0 h 0.13229 v -0.13229 -0.13229 h -0.13229 -0.13229 v 0.13229 0.13229 z m -0.79375,-0.52916 h 0.13229 v -0.13229 -0.1323 h -0.13229 -0.13229 v 0.1323 0.13229 z m 0.52916,0 h 0.1323 v -0.13229 -0.1323 h -0.1323 -0.13229 v 0.1323 0.13229 z m -1.5875,-0.26459 h 0.1323 v -0.13229 -0.13229 h -0.1323 -0.13229 v 0.13229 0.13229 z m 2.64584,0 h 0.13229 v -0.13229 -0.13229 h -0.13229 -0.13229 v 0.13229 0.13229 z m -0.79375,-0.52916 h 0.13229 v -0.13229 -0.1323 h -0.13229 -0.13229 v 0.1323 0.13229 z m -2.11667,-0.26459 h 0.13229 v -0.13229 -0.13229 h -0.13229 -0.13229 v 0.13229 0.13229 z m -0.52917,-0.79375 h 0.1323 v -0.13229 -0.13229 h -0.1323 -0.13229 v 0.13229 0.13229 z m 31.55157,15.34179 -0.0661,-0.004 -0.39687,-0.25648 -0.39688,-0.25649 0.46302,-0.004 0.46302,-0.004 v 0.26459 0.26458 z m 0.74322,0.004 h -0.11668 l -0.16352,-0.26459 -0.16352,-0.26458 h 0.28019 0.2802 v 0.26458 0.26459 z m -30.20017,-0.29096 -0.55121,0.0264 -0.17639,-0.17639 -0.17639,-0.17639 v -0.22049 -0.22048 h 0.77814 0.77813 l 0.16352,-0.26459 0.16352,-0.26458 h 0.77814 0.77813 v -0.26458 -0.26459 l 0.46302,0.004 0.46302,0.004 -0.36066,0.22851 -0.36067,0.2285 0.36067,0.14343 0.36066,0.14344 -1.19062,0.0522 -1.19063,0.0522 0.79375,0.20197 0.79375,0.20198 -1.71979,0.0577 -1.71979,0.0577 0.66146,0.21183 0.66146,0.21184 z m -5.5342,-0.23821 h -0.13229 v -0.13229 -0.13229 h 0.13229 0.13229 v 0.13229 0.13229 z m 42.06875,0 h -0.13229 v -0.13229 -0.13229 h 0.13229 0.13229 v 0.13229 0.13229 z M 65.0875,152.75428 h -0.1323 v -0.1323 -0.13229 h 0.1323 0.13229 v 0.13229 0.1323 z m 23.79045,-0.0209 -0.50712,-0.0209 0.34726,-0.13897 0.34727,-0.13896 0.15985,0.15985 0.15985,0.15985 z m 32.54375,0 -0.50712,-0.0209 0.34726,-0.13897 0.34727,-0.13896 0.15985,0.15985 0.15985,0.15985 z m 1.46164,0.0209 h -0.54478 l 0.15638,-0.25303 0.15638,-0.25303 0.3884,0.14904 0.3884,0.14905 v 0.10398 0.10399 z m 6.4979,0 h -0.13229 v -0.1323 -0.13229 h 0.13229 0.1323 v 0.13229 0.1323 z m -45.9052,-0.26459 h -0.35278 l 0.17639,-0.17639 0.17639,-0.17639 0.17639,0.17639 0.17638,0.17639 z m 7.88697,-0.0264 -0.0818,-0.0264 -0.66145,-0.21183 -0.66146,-0.21184 0.5797,-0.0264 0.57969,-0.0264 0.16352,0.26458 0.16353,0.26459 z m 6.51077,0.005 -0.50712,-0.0209 0.34727,-0.13896 0.34726,-0.13897 0.15986,0.15986 0.15985,0.15985 z m -33.27135,-0.33189 -0.17639,0.17639 v -0.35278 -0.35277 l 0.17639,0.17638 0.17638,0.17639 z m 15.22915,0.0882 h -0.82223 l -0.16106,-0.2606 -0.16106,-0.2606 0.87305,0.16632 0.87305,0.16631 0.11024,0.0943 0.11024,0.0943 z m 1.92467,-0.0396 -0.26459,-0.0235 -0.84707,-0.30838 -0.84706,-0.30838 -0.18106,-0.18106 -0.18105,-0.18105 0.81018,0.23236 0.81017,0.23235 0.48253,0.2806 0.48253,0.28061 z m 2.11666,-0.26445 -0.26458,-0.002 0.33238,-0.134 0.33237,-0.13401 -0.1343,-0.21731 -0.13431,-0.21731 0.58151,0.15207 0.58151,0.15207 -0.515,0.20154 -0.51499,0.20153 z m 36.14686,0.0395 h -0.26459 l -0.16352,-0.26458 -0.16352,-0.26459 h 0.26458 0.26459 l 0.16352,0.26459 0.16352,0.26458 z m -56.023,-0.26458 h -0.0999 v -0.0999 -0.0999 l 0.46302,-0.36313 0.46302,-0.36313 -0.36312,0.46302 -0.36313,0.46303 z m 5.72093,0 h -0.35277 l 0.17638,-0.17639 0.17639,-0.17639 0.17639,0.17639 0.17639,0.17639 z m 12.43542,-0.0285 -0.13229,-0.0117 -0.92604,-0.35662 -0.92604,-0.35662 0.54474,-0.0201 0.54474,-0.0201 0.51359,0.38846 0.51359,0.38846 z m 1.19063,0.0285 h -0.1323 v -0.1323 -0.13229 h 0.1323 0.13229 v 0.13229 0.1323 z m 14.28749,0 h -0.13229 v -0.1323 -0.13229 h 0.13229 0.1323 v 0.13229 0.1323 z m 1.45521,-0.0614 h -0.92604 l 0.46302,-0.121 0.46302,-0.121 0.46302,0.121 0.46302,0.121 z m -30.1625,-0.46779 h -0.35277 l 0.17638,-0.17639 0.17639,-0.17639 0.17639,0.17639 0.17639,0.17639 z m 2.11667,0 h -0.35278 l 0.17639,-0.17639 0.17639,-0.17639 0.17639,0.17639 0.17639,0.17639 z m -3.43958,-0.26458 h -0.35278 l 0.17639,-0.17639 0.17639,-0.17639 0.17639,0.17639 0.17638,0.17639 z m 4.60816,-0.0209 -0.50712,-0.0209 0.34726,-0.13896 0.34727,-0.13897 0.15985,0.15985 0.15985,0.15986 z m 7.01789,0.0209 h -0.2802 l 0.14005,-0.22661 0.14006,-0.22661 -1.05048,-0.84419 -1.05048,-0.84419 v -0.28452 -0.28451 l 0.39687,0.32938 0.39688,0.32938 v -0.21081 -0.21081 l 0.59531,0.54751 0.59531,0.5475 0.92604,0.55596 0.92605,0.55596 -0.41011,9.9e-4 -0.4101,9.9e-4 -0.3175,-0.3175 -0.3175,-0.3175 v 0.44979 0.44979 z m -0.10106,-0.79375 h 0.11667 v -0.11668 -0.11667 l -0.30546,-0.18879 -0.30546,-0.18879 0.18878,0.30547 0.18879,0.30546 z m -1.07395,-1.05833 h 0.13229 v -0.1323 -0.13229 h -0.13229 -0.13229 v 0.13229 0.1323 z m 42.80279,1.85208 h -0.42536 l 0.17732,-0.17732 0.17731,-0.17731 -0.4197,-0.64055 -0.4197,-0.64054 0.80526,0.59535 0.80526,0.59535 -0.13752,0.22251 -0.13752,0.22251 z m 1.38262,0 h -0.13229 v -0.13229 -0.13229 h 0.13229 0.1323 v 0.13229 0.13229 z M 66.675,150.63763 h -0.1323 v -0.1323 -0.13229 h 0.1323 0.13229 v 0.13229 0.1323 z m 1.85208,-0.26459 h -0.13229 v -0.13229 -0.13229 h 0.13229 0.13229 v 0.13229 0.13229 z m 29.8422,-0.0119 -0.20887,-0.0119 -0.79375,-0.36472 -0.79375,-0.36472 0.68229,0.0337 0.68228,0.0337 0.32034,0.34292 0.32033,0.34292 z m 9.44842,-0.12036 -0.26458,0.16353 v -0.26459 -0.26458 l 0.26458,-0.16352 0.26459,-0.16352 v 0.26458 0.26458 z m 3.83646,0.1323 h -0.13229 v -0.1323 -0.13229 h 0.13229 0.13229 v 0.13229 0.1323 z m -43.80415,-0.26459 h -0.2802 l 0.16352,-0.26458 0.16352,-0.26458 h 0.11668 0.11667 v 0.26458 0.26458 z m 25.01873,0 h -0.13229 v -0.13229 -0.13229 h 0.13229 0.1323 v 0.13229 0.13229 z m 1.85209,0 h -0.13229 v -0.13229 -0.13229 h 0.13229 0.13229 v 0.13229 0.13229 z m 15.74271,0 h -0.35278 l 0.17639,-0.17639 0.17639,-0.17638 0.17639,0.17638 0.17638,0.17639 z m -17.06563,-0.26458 h -0.13229 v -0.13229 -0.13229 h 0.13229 0.13229 v 0.13229 0.13229 z m 20.10833,0 h -0.13229 v -0.13229 -0.13229 h 0.13229 0.1323 v 0.13229 0.13229 z m 17.85938,-0.0614 h -0.92604 l 0.46302,-0.121 0.46302,-0.121 0.46302,0.121 0.46302,0.121 z m 1.69774,0.0405 -0.50712,-0.0209 0.34727,-0.13896 0.34727,-0.13897 0.15985,0.15985 0.15985,0.15986 z m 1.87413,0.0209 h -0.13229 v -0.13229 -0.13229 h 0.13229 0.1323 v 0.13229 0.13229 z M 63.23541,149.5712 h -0.26458 l 0.39687,-0.25648 0.39688,-0.25648 h 0.26458 0.26459 L 63.89687,149.31472 63.5,149.5712 Z m 29.93733,-0.11754 -0.83316,0.007 -1.26326,-0.0876 -1.26327,-0.0876 0.15707,-0.25413 0.15706,-0.25414 0.25257,0.1561 0.25257,0.15609 1.14385,-0.43684 1.14385,-0.43684 0.96655,0.40385 0.96655,0.40385 v 0.16363 0.16362 l -0.5623,-0.17847 -0.5623,-0.17847 0.13869,0.22679 0.13869,0.22678 z m -0.43629,-0.13894 h 0.35278 l -0.17639,-0.17639 -0.17639,-0.17638 -0.17639,0.17638 -0.17638,0.17639 z m -0.79375,-0.26458 h 0.35278 l -0.17639,-0.17639 -0.17639,-0.17639 -0.17639,0.17639 -0.17638,0.17639 z m 1.71979,-0.0226 0.26459,0.0145 -0.39688,-0.25648 -0.39687,-0.25648 -0.39688,0.0145 -0.39687,0.0145 0.52916,0.22739 0.52917,0.22739 z m 11.1125,0.55181 h -0.13229 v -0.13229 -0.13229 h 0.13229 0.1323 v 0.13229 0.13229 z m -18.12395,-0.26458 h -0.35278 l 0.17639,-0.17639 0.17639,-0.17639 0.17639,0.17639 0.17638,0.17639 z m 2.22691,-0.0209 -0.50712,-0.0209 0.34726,-0.13896 0.34727,-0.13897 0.15985,0.15985 0.15985,0.15986 z m 23.0639,-0.0292 -0.90294,-0.034 0.35487,-0.35487 0.35488,-0.35488 h 0.1668 0.16681 l -0.18928,0.30627 -0.18928,0.30626 0.57054,-0.1492 0.57054,-0.1492 v 0.23175 0.23176 z m 20.74669,0.0501 h -0.35278 l 0.17639,-0.17639 0.17639,-0.17639 0.17638,0.17639 0.17639,0.17639 z m 1.32291,-0.0614 h -0.92604 l 0.46302,-0.121 0.46302,-0.121 0.46302,0.121 0.46302,0.121 z m -17.59479,-0.2032 h -0.13229 v -0.13229 -0.13229 h 0.13229 0.13229 v 0.13229 0.13229 z m 12.83229,-0.0418 h -0.66146 l 0.33073,-0.13345 0.33073,-0.13345 0.33073,0.13345 0.33073,0.13345 z m 1.32292,-0.26458 h -0.66146 l 0.33073,-0.13345 0.33073,-0.13346 0.33073,0.13346 0.33073,0.13345 z m 4.31645,-0.051 -2.59666,0.0395 1.19063,-0.20118 1.19062,-0.20118 0.33073,0.12379 0.33073,0.1238 v -0.29289 -0.2929 l 0.33073,0.0119 0.33073,0.0119 0.74458,0.31879 0.74457,0.31879 z m 4.78963,0.0719 -0.50712,-0.0209 0.34726,-0.13897 0.34727,-0.13896 0.15985,0.15985 0.15985,0.15985 z m -43.36962,-0.2437 h -0.13229 v -0.13229 -0.13229 h 0.13229 0.13229 v 0.13229 0.13229 z m 42.36164,0 h -0.36857 l -0.16283,-0.42432 -0.16283,-0.42433 -0.39147,0.15022 -0.39147,0.15022 0.063,-0.25632 0.063,-0.25632 -0.92604,-0.56287 -0.92604,-0.56286 0.79375,0.67423 0.79375,0.67423 -0.79375,-0.0601 -0.79375,-0.0601 -1.02078,-0.4624 -1.02079,-0.46239 -0.14779,0.14779 -0.14779,0.14779 0.37482,0.004 0.37483,0.004 -0.35291,0.22371 -0.35292,0.22371 0.43281,0.16608 0.4328,0.16608 -0.16165,-0.26155 -0.16165,-0.26155 0.21405,0.008 0.21405,0.008 0.46836,0.35539 0.46837,0.35538 -0.73295,0.003 -0.73294,0.002 -0.71447,-0.3663 -0.71446,-0.3663 h -0.196 -0.196 l 0.51359,0.41147 0.51359,0.41148 -0.57792,-0.27918 -0.57792,-0.27918 h -0.33255 -0.33254 l 0.51359,0.38891 0.51359,0.38891 -0.92604,-0.29378 -0.92605,-0.29379 -0.52916,-0.23392 -0.52917,-0.23393 0.8599,0.13219 0.85989,0.13218 v -0.22857 -0.22857 l 0.33073,0.0123 0.33073,0.0123 0.66146,-0.073 0.66146,-0.073 -0.79375,-0.22041 -0.79375,-0.22041 1.64808,0.0697 1.64807,0.0697 -0.11329,-0.11329 -0.1133,-0.1133 -0.85354,-0.17457 -0.85354,-0.17457 -0.10798,-0.32393 -0.10797,-0.32392 h 0.66145 0.66146 l 0.0882,-0.22833 0.0882,-0.22833 1.32292,-0.16341 1.32291,-0.16341 -0.52916,0.24085 -0.52917,0.24085 0.66146,0.0372 0.66146,0.0372 -0.52917,0.22739 -0.52917,0.22739 0.42202,0.0186 0.42201,0.0186 0.47889,0.52917 0.47889,0.52917 h -0.18261 -0.18261 l -0.71829,-0.42478 -0.7183,-0.42478 0.78494,0.6209 0.78493,0.6209 1.26502,0.0238 1.26501,0.0238 -0.0656,-0.0518 -0.0656,-0.0518 -0.62724,-0.32682 -0.62724,-0.32682 0.17984,0.29098 0.17983,0.29098 h -0.24451 -0.24452 l -0.69207,-0.54438 -0.69207,-0.54438 0.0473,-0.18322 0.0474,-0.18323 -0.20254,-0.59531 -0.20254,-0.59531 -0.70978,-0.0313 -0.70977,-0.0313 0.79375,-0.20198 0.79375,-0.20197 -0.28084,-0.0313 -0.28084,-0.0313 -0.62426,-0.58159 -0.62426,-0.58159 -0.48616,-0.0358 -0.48617,-0.0358 -0.63134,-0.59312 -0.63135,-0.59311 -0.15729,0.2545 -0.15729,0.2545 0.42065,0.34911 0.42066,0.34911 0.32352,0.0475 0.32352,0.0475 1.03885,0.54774 1.03885,0.54773 -0.49133,0.0117 -0.49133,0.0117 0.14202,0.3701 0.14202,0.37009 -0.97361,0.12317 -0.97361,0.12316 -0.40401,-0.34858 -0.40402,-0.34858 -0.48398,-1.53374 -0.48399,-1.53375 -0.21509,-0.56083 -0.2151,-0.56083 -0.1825,-1.217 -0.1825,-1.21699 -0.74886,0.38725 -0.74886,0.38726 -0.41294,0.58955 -0.41294,0.58954 v 0.18231 0.1823 l 0.38922,-0.0571 0.38922,-0.0571 0.20609,-0.22647 0.2061,-0.22647 -0.37161,0.21559 -0.37161,0.2156 0.19145,-0.30978 0.19146,-0.30978 0.26434,0.16337 0.26433,0.16337 -0.18561,0.43626 -0.18561,0.43625 0.0363,0.68594 0.0363,0.68593 -0.49508,0.57084 -0.49508,0.57084 h -0.3438 -0.34379 l 0.16742,-0.16742 0.16741,-0.16742 -0.58634,-0.43843 -0.58634,-0.43843 -0.7276,-0.31452 -0.7276,-0.31452 v -0.38694 -0.38693 l 0.27617,-0.17068 0.27617,-0.17069 0.38192,0.31696 0.38191,0.31697 0.41702,-0.16003 0.41701,-0.16002 -0.15753,-0.2549 -0.15754,-0.25489 -0.4318,0.1657 -0.43181,0.1657 0.17873,-0.28919 0.17873,-0.2892 0.82594,-0.1814 0.82595,-0.18141 -0.36596,-0.23177 -0.36596,-0.23177 0.47864,-0.004 0.47864,-0.004 -0.16353,-0.26458 -0.16352,-0.26458 0.47864,-0.0186 0.47863,-0.0186 -0.52916,-0.22739 -0.52917,-0.22739 1.05833,-0.045 1.05834,-0.045 -0.66146,-0.18701 -0.66146,-0.187 0.59531,-0.15873 0.59532,-0.15872 v 0.22782 0.22782 l 0.9488,0.178 0.94881,0.178 0.70484,0.99813 0.70484,0.99814 0.43173,0.78716 0.43173,0.78716 h 0.72176 0.72176 l -0.75662,-0.62522 -0.75661,-0.62522 1.11117,0.59123 1.11116,0.59123 -0.54029,0.19986 -0.54029,0.19987 -0.30629,-0.15296 -0.3063,-0.15296 0.62463,0.54932 0.62462,0.54932 h 0.44929 0.44928 l 0.51359,0.37724 0.51359,0.37723 v 0.60371 0.60372 l 0.86376,0.24906 0.86375,0.24906 0.67123,0.62207 0.67124,0.62208 0.44939,0.002 0.44938,0.002 0.79375,0.43357 0.79375,0.43358 1.85209,0.1977 1.85208,0.1977 -2.448,-0.0376 -2.44801,-0.0376 6.1e-4,0.18004 6.1e-4,0.18003 0.46302,0.11738 0.46302,0.11737 -0.92604,-0.0915 -0.92604,-0.0915 0.39687,0.25303 0.39688,0.25303 -0.69453,0.004 -0.69454,0.004 -0.82682,0.16537 -0.82682,0.16536 v -0.28935 -0.28935 l 0.46302,0.14559 0.46302,0.14558 -0.51359,-0.41847 -0.51359,-0.41848 h -0.22963 -0.22963 l 0.17984,0.29098 0.17983,0.29099 -0.58375,-0.31242 -0.58376,-0.31242 -0.14382,0.14382 -0.14382,0.14383 0.69565,0.31695 0.69565,0.31696 v 0.22212 0.22211 z m 2.22065,-0.79375 h 0.35278 l -0.17639,-0.17639 -0.17639,-0.17639 -0.17639,0.17639 -0.17639,0.17639 z m -4.91037,-0.273 0.24901,0.008 -0.51359,-0.38846 -0.51359,-0.38846 -0.24901,-0.008 -0.24901,-0.008 0.51359,0.38847 0.51359,0.38846 z m 5.04266,-0.25616 h 0.13229 v -0.1323 -0.13229 h -0.13229 -0.13229 v 0.13229 0.1323 z m -0.55121,-0.27691 0.24253,0.0123 -0.11024,-0.0898 -0.11025,-0.0898 -1.52118,-0.81069 -1.52118,-0.81069 0.15031,0.24321 0.15032,0.24322 1.23858,0.64497 1.23857,0.64496 z m 0.55121,-0.25226 h 0.13229 v -0.13229 -0.13229 h -0.13229 -0.13229 v 0.13229 0.13229 z m -5.82083,-0.26458 h 0.13229 v -0.1323 -0.13229 h -0.13229 -0.13229 v 0.13229 0.1323 z m 2.91041,0 h 0.1323 v -0.1323 -0.13229 h -0.1323 -0.13229 v 0.13229 0.1323 z m 2.38125,0 h 0.1323 v -0.1323 -0.13229 h -0.1323 -0.13229 v 0.13229 0.1323 z m -0.39687,-0.28238 0.13229,9.6e-4 -0.51359,-0.38846 -0.51359,-0.38846 -0.28016,0.009 -0.28016,0.009 0.66146,0.37813 0.66146,0.37812 z m -6.30638,-0.35313 1.10588,-0.0259 0.10876,-0.33073 0.10875,-0.33073 h -0.30224 -0.30225 l 0.15394,0.24908 0.15393,0.24907 -1.06632,0.10761 -1.06633,0.1076 z m 4.6022,-0.42283 h 0.11668 v -0.11667 -0.11668 l -0.30546,-0.18879 -0.30547,-0.18879 0.18879,0.30547 0.18879,0.30546 z m -4.38124,-1.05833 h 0.35278 l -0.17639,-0.17639 -0.17639,-0.17639 -0.17639,0.17639 -0.17639,0.17639 z m 0.73795,-0.26458 h 0.1206 l -0.32696,-0.39397 -0.32696,-0.39396 -0.20351,0.12578 -0.2035,0.12577 -0.75871,-0.58464 -0.7587,-0.58464 0.30823,0.38981 0.30823,0.3898 0.0179,0.24167 0.0179,0.24166 0.69522,0.0741 0.69523,0.0741 0.14723,0.14724 0.14723,0.14723 z m -1.66399,-0.52917 h -0.13229 v -0.13229 -0.13229 h 0.13229 0.13229 v 0.13229 0.13229 z m 4.10104,0 h 0.35278 l -0.17639,-0.17639 -0.17639,-0.17639 -0.17639,0.17639 -0.17639,0.17639 z m -0.79375,-0.26458 h 0.35278 l -0.17639,-0.17639 -0.17639,-0.17639 -0.17639,0.17639 -0.17639,0.17639 z m -7.67291,-1.32292 h 0.35277 l -0.17639,-0.17639 -0.17638,-0.17639 -0.17639,0.17639 -0.17639,0.17639 z m -0.55748,-0.52917 h 0.76544 l 0.1636,-0.42633 0.1636,-0.42634 -0.42151,0.16176 -0.42152,0.16175 h -0.50752 -0.50753 v 0.26458 0.26458 z m 5.2033,0 h 0.11668 v -0.11667 -0.11668 l -0.30547,-0.18879 -0.30546,-0.18879 0.18879,0.30547 0.18878,0.30546 z m -0.78106,-0.26458 h 0.10399 v -0.54478 -0.54478 l -0.25303,0.15638 -0.25303,0.15638 0.14904,0.3884 0.14905,0.3884 z m -4.26164,-0.52917 h 0.13229 v -0.13237 -0.13229 h -0.13229 -0.13229 v 0.13229 0.13229 z m -0.52917,-1.05833 h 0.1323 v -0.13229 -0.13229 h -0.1323 -0.13229 v 0.13229 0.13229 z m 3.98437,0 h 0.11668 v -0.11668 -0.11667 l -0.30547,-0.18879 -0.30546,-0.18879 0.18879,0.30547 0.18878,0.30546 z m 9.37709,8.95406 h -0.66146 l 0.33073,-0.13346 0.33073,-0.13345 0.33073,0.13345 0.33073,0.13346 z m -28.83958,-0.22281 h -0.35278 l 0.17639,-0.17639 0.17639,-0.17639 0.17639,0.17639 0.17639,0.17639 z m 3.83646,0 h -0.13229 v -0.13229 -0.13229 h 0.13229 0.13229 v 0.13229 0.13229 z m 27.11979,-0.0614 h -0.92604 l 0.46302,-0.121 0.46302,-0.121 0.46302,0.121 0.46302,0.121 z m -52.12292,-0.24506 h -0.66146 l 0.33073,-0.13345 0.33073,-0.13345 0.33073,0.13345 0.33073,0.13345 z m 1.32292,0.0418 h -0.26458 v -0.2802 -0.2802 l 0.26458,0.16352 0.26458,0.16352 v 0.11668 0.11668 z m -17.30265,-0.33624 -0.15985,0.15985 0.0209,-0.50712 0.0209,-0.50711 0.13896,0.34726 0.13897,0.34727 z m 14.9214,0.0717 h -0.35278 l 0.17639,-0.17639 0.17639,-0.17639 0.17639,0.17639 0.17639,0.17639 z m 26.87082,0 h -0.11667 l -0.18879,-0.30546 -0.18879,-0.30547 0.30547,0.18879 0.30546,0.18879 v 0.11667 0.11668 z m 10.54567,-0.0209 -0.50712,-0.0209 0.34727,-0.13896 0.34727,-0.13897 0.15985,0.15985 0.15985,0.15986 z m 19.20434,-0.0209 h -0.66146 l 0.33073,-0.13345 0.33073,-0.13345 0.33073,0.13345 0.33073,0.13345 z M 70.37916,147.4626 h -0.13229 v -0.13229 -0.13229 h 0.13229 0.13229 v 0.13229 0.13229 z m 26.72292,0 h -0.13229 v -0.13229 -0.13229 h 0.13229 0.13229 v 0.13229 0.13229 z m 15.36145,0 h -0.11668 l -0.16352,-0.26458 -0.16352,-0.26458 h 0.28019 0.2802 v 0.26458 0.26458 z m -41.42291,-0.26458 h -0.35278 l 0.17639,-0.17639 0.17639,-0.17639 0.17639,0.17639 0.17639,0.17639 z m 26.7516,-0.15002 -0.26159,0.16167 -0.94102,-0.82623 -0.94102,-0.82623 0.13575,-0.21965 0.13574,-0.21964 -0.30977,-0.19146 -0.30978,-0.19145 0.18878,0.30546 0.18879,0.30547 -0.21405,-0.004 -0.21406,-0.004 -0.39687,-0.25648 -0.39688,-0.25648 0.39688,-0.008 0.39687,-0.008 -0.38921,-0.24615 -0.38921,-0.24614 0.14958,-0.14958 0.14958,-0.14958 0.96724,0.65638 0.96723,0.65639 v -0.16524 -0.16532 l 0.53079,0.48035 0.53079,0.48036 -0.13162,0.13162 -0.13162,0.13162 0.27514,0.33152 0.27514,0.33151 z m -0.16098,-0.11456 h 0.1323 v -0.13229 -0.1323 h -0.1323 -0.13229 v 0.1323 0.13229 z m -0.51355,-0.26459 h 0.11668 v -0.11667 -0.11668 l -0.30546,-0.18879 -0.30547,-0.18878 0.18879,0.30546 0.18879,0.30546 z m 0.28137,-0.52916 h 0.0999 v -0.0999 -0.0999 l -0.46302,-0.36313 -0.46302,-0.36312 0.36313,0.46302 0.36312,0.46302 z m 26.69052,1.05833 h -0.10106 l -0.16353,-0.26458 -0.16352,-0.26459 h 0.42811 0.4281 l -0.16352,0.26459 -0.16352,0.26458 z m 4.47587,-0.0209 -0.50712,-0.0209 0.34726,-0.13896 0.34727,-0.13897 0.15985,0.15985 0.15985,0.15986 z m -64.00712,-0.29527 -0.79375,-0.01 0.46806,-0.12197 0.46805,-0.12197 0.3257,0.13177 0.32569,0.13177 z m 58.47291,0.0516 h -0.13229 v -0.1323 -0.13229 h 0.13229 0.1323 v 0.13229 0.1323 z m 6.74688,-0.008 h -0.39688 l -0.39687,-0.25649 -0.39688,-0.25648 h 0.39688 0.39687 l 0.39688,0.25648 0.39687,0.25649 z m 7.80521,0.008 h -0.13229 v -0.1323 -0.13229 h 0.13229 0.13229 v 0.13229 0.1323 z m -67.20721,-0.32403 -0.52612,0.0789 0.46858,-0.29059 0.46859,-0.29059 -0.15347,-0.24832 -0.15348,-0.24832 h 0.2996 0.2996 l -0.0886,0.45998 -0.0886,0.45998 z m 75.65183,0.0385 -0.50712,-0.0209 0.34726,-0.13896 0.34727,-0.13897 0.15985,0.15986 0.15985,0.15985 z m -81.7342,-0.24369 h -0.1323 v -0.13229 -0.1323 h 0.1323 0.13229 v 0.1323 0.13229 z m 16.53645,0 h -0.35277 l 0.17638,-0.17639 0.17639,-0.17639 0.17639,0.17639 0.17639,0.17639 z m 6.72687,0 h -0.36026 l 0.1523,-0.39688 0.15229,-0.39687 h 0.36027 0.36026 l -0.1523,0.39687 -0.15229,0.39688 z m 42.59588,-0.0209 -0.50712,-0.0209 0.34726,-0.13897 0.34727,-0.13896 0.15985,0.15985 0.15985,0.15985 z m 14.02291,0 -0.50712,-0.0209 0.34727,-0.13897 0.34727,-0.13896 0.15985,0.15985 0.15985,0.15985 z m -75.51649,-0.2437 h -0.35278 l 0.17639,-0.17638 0.17639,-0.17639 0.17639,0.17639 0.17639,0.17638 z m 1.45521,0 h -0.13229 v -0.13229 -0.13229 h 0.13229 0.13229 v 0.13229 0.13229 z m 2.91042,0 h -0.1323 v -0.13229 -0.13229 h 0.1323 0.13229 v 0.13229 0.13229 z m 15.80664,-0.0654 -0.24033,0.0801 v -0.41157 -0.41157 l 0.24033,0.0801 0.24033,0.0801 v 0.25135 0.25136 z m 1.48551,0.009 -0.79197,0.0225 0.29665,-0.35744 0.29665,-0.35744 -0.51592,-0.16375 -0.51592,-0.16375 0.1352,-0.51698 0.13519,-0.51699 0.23882,0.1476 0.23882,0.1476 -0.15222,0.2463 -0.15223,0.2463 h 0.38206 0.38206 l 0.4074,0.62176 0.40739,0.62176 z m 1.36097,0.0569 h -0.26458 v -0.28019 -0.2802 l 0.26458,0.16352 0.26458,0.16352 v 0.11668 0.11667 z m 32.12483,-0.0209 -0.50712,-0.0209 0.34726,-0.13897 0.34727,-0.13896 0.15985,0.15985 0.15985,0.15985 z m 8.09184,-0.0284 -0.39688,-0.0121 -0.46302,-0.121 -0.46302,-0.12099 v -0.37748 -0.37748 h 0.41249 0.41249 l -0.18879,-0.30546 -0.18878,-0.30546 0.30546,0.18878 0.30546,0.18879 v -0.23598 -0.23598 l 0.52378,0.0386 0.52378,0.0386 0.18177,0.18178 0.18178,0.18178 h -0.58888 -0.58887 l 0.16164,0.26155 0.16165,0.26155 -0.42143,-0.16172 -0.42144,-0.16172 0.077,0.36319 0.077,0.36319 0.39688,0.17984 0.39687,0.17984 z m -0.79375,-0.47987 h 0.35277 l -0.17639,-0.17639 -0.17638,-0.17639 -0.17639,0.17639 -0.17639,0.17639 z m -10.11923,-0.2314 -1.00971,0.51512 0.31996,-0.51234 0.31996,-0.51233 0.41586,0.15543 0.41586,0.15543 -0.34357,-0.42286 -0.34358,-0.42286 0.25356,-0.1567 0.25355,-0.15671 0.4869,0.15475 0.48689,0.15475 -0.48128,-0.39485 -0.48128,-0.39485 0.55127,-0.17497 0.55127,-0.17496 -0.14988,-0.24251 -0.14987,-0.2425 0.47676,0.1788 0.47676,0.1788 -0.34357,-0.42286 -0.34358,-0.42286 0.29503,-0.18234 0.29504,-0.18234 0.16644,0.16645 0.16645,0.16644 0.0571,0.38922 0.0571,0.38921 h -0.25679 -0.25679 l 0.18098,0.29284 0.18098,0.29283 0.21405,-0.34635 0.21406,-0.34634 -0.11332,-0.18335 -0.11331,-0.18334 0.39535,-0.15172 0.39536,-0.15171 -0.004,-0.33903 -0.004,-0.33903 -0.21774,0.34325 -0.21775,0.34325 -0.34898,-0.4205 -0.34899,-0.42051 0.81734,0.144 0.81735,0.144 0.17447,-0.54971 0.17447,-0.5497 0.11804,0.11804 0.11803,0.11804 -0.33419,0.76179 -0.3342,0.7618 -1.32005,1.28039 -1.32005,1.28039 z m 0.62546,-0.56235 h 0.26458 l -0.16352,-0.26459 -0.16352,-0.26458 h -0.26459 -0.26458 l 0.16352,0.26458 0.16352,0.26459 z m 0.71199,-0.7978 0.18282,-0.004 0.35897,-0.22746 0.35898,-0.22746 -0.26895,-0.16622 -0.26896,-0.16623 -0.41923,0.16088 -0.41923,0.16087 0.14639,0.23686 0.14638,0.23686 z m 0.18282,-0.26054 h -0.13229 v -0.13226 -0.13229 h 0.13229 0.13229 v 0.13229 0.13229 z m 2.76251,2.11667 h -0.2802 l 0.16352,-0.26458 0.16352,-0.26459 h 0.11668 0.11668 v 0.26459 0.26458 z m 17.7427,-0.0418 h -0.66146 l 0.33073,-0.13345 0.33073,-0.13345 0.33072,0.13345 0.33073,0.13345 z m -78.44896,-0.22281 h -0.13229 v -0.13229 -0.13229 h 0.13229 0.13229 v 0.13229 0.13229 z m 58.20833,0 h -0.13229 v -0.13229 -0.13229 h 0.13229 0.13229 v 0.13229 0.13229 z m 22.225,0 h -0.13229 v -0.13229 -0.13229 h 0.13229 0.13229 v 0.13229 0.13229 z m -78.97812,-0.28723 -0.39688,-0.0145 -0.52916,-0.22739 -0.52917,-0.22739 0.52917,-0.0145 0.52916,-0.0145 0.39688,0.25648 0.39687,0.25648 z m 4.49791,0.0226 h -0.35277 l 0.17638,-0.17639 0.17639,-0.17639 0.17639,0.17639 0.17639,0.17639 z m 73.81875,0 h -0.35278 l 0.17639,-0.17639 0.17639,-0.17639 0.17639,0.17639 0.17639,0.17639 z m -63.3677,-0.26458 h -0.1323 v -0.13229 -0.1323 h 0.1323 0.13229 v 0.1323 0.13229 z m 0.52916,-0.26459 h -0.13229 v -0.13229 -0.13229 h 0.13229 0.13229 v 0.13229 0.13229 z m 8.86354,-0.26458 h -0.35277 l 0.17638,-0.17639 0.17639,-0.17639 0.17639,0.17639 0.17639,0.17639 z M 66.01354,144.288 h -0.35278 l 0.17639,-0.17639 0.17639,-0.17639 0.17639,0.17639 0.17638,0.17639 z m 15.74271,0 h -0.1323 v -0.13229 -0.13229 h 0.1323 0.13229 v 0.13229 0.13229 z m 18.41857,0 h -0.23456 l -0.11649,-0.79375 -0.1165,-0.79375 h 0.19045 0.19045 l 0.1606,0.41852 0.1606,0.41851 v 0.37524 0.37523 z m -32.3092,-0.26458 h -0.35278 l 0.17639,-0.17639 0.17639,-0.17639 0.17639,0.17639 0.17639,0.17639 z m 57.81146,-0.26459 h -0.13229 v -0.13229 -0.13229 h 0.13229 0.13229 v 0.13229 0.13229 z m -47.88958,-0.5541 -0.26459,-0.0168 0.33238,-0.134 0.33238,-0.134 -0.14768,-0.23896 -0.14769,-0.23895 0.4328,0.16608 0.43281,0.16608 -0.35292,0.22371 -0.35291,0.22371 z m 50.40312,0.0249 h -0.35278 l 0.17639,-0.17639 0.17639,-0.17639 0.17639,0.17639 0.17639,0.17639 z M 73.025,142.70006 h -0.1323 v -0.13229 -0.13229 h 0.1323 0.13229 v 0.13229 0.13229 z m 10.03211,-0.0209 -0.50711,-0.0209 0.34726,-0.13896 0.34727,-0.13897 0.15985,0.15986 0.15985,0.15985 z m -9.10607,-0.24369 h -0.35278 l 0.17639,-0.17639 0.17639,-0.17639 0.17639,0.17639 0.17638,0.17639 z m 9.92187,0 h -0.13229 v -0.13229 -0.1323 h 0.13229 0.13229 v 0.1323 0.13229 z m 49.50948,0 h -0.0999 l -0.36313,-0.46302 -0.36313,-0.46302 0.46303,0.36312 0.46302,0.36313 v 0.0999 0.0999 z m -18.53761,-0.26459 h -0.11668 l -0.18879,-0.30546 -0.18878,-0.30546 0.30546,0.18878 0.30546,0.18879 v 0.11668 0.11667 z M 75.00937,141.9063 h -0.35278 l 0.17639,-0.17639 0.17639,-0.17639 0.17639,0.17639 0.17639,0.17639 z m 10.75972,-0.18582 -0.35278,0.13537 v -0.34642 -0.34643 l 0.35278,0.13538 0.35278,0.13537 v 0.0757 0.0757 z m -12.34722,-0.13583 -0.66146,-0.004 -0.46302,-0.121 -0.46302,-0.121 10e-4,-0.17903 0.001,-0.17904 1.12311,-0.0294 1.12311,-0.0294 -0.66146,0.13597 -0.66146,0.13598 0.66146,0.19782 0.66146,0.19782 z m 31.85106,0.0571 h -0.13229 l 0.16352,-0.26458 0.16352,-0.26458 h 0.13229 0.1323 l -0.16353,0.26458 -0.16352,0.26458 z m 9.82081,0 h -0.13229 v -0.13229 -0.13229 h 0.13229 0.1323 v 0.13229 0.13229 z m -21.96041,-0.26458 h -0.13229 v -0.1323 -0.13229 h 0.13229 0.13229 v 0.13229 0.13229 z m 14.3316,-0.0882 -0.17639,0.17639 v -0.35279 -0.35278 l 0.17639,0.17639 0.17638,0.17639 z m 16.88923,-0.17639 h -0.13229 v -0.13229 -0.13229 h 0.13229 0.13229 v 0.13229 0.13229 z m -37.8061,-0.52917 h -0.10298 l -0.62463,-0.54487 -0.62462,-0.54487 0.7276,0.44301 0.72761,0.44301 v 0.10186 0.10186 z m 38.59985,-0.26458 h -0.13229 v -0.13229 -0.13229 h 0.13229 0.13229 v 0.13229 0.13229 z m -40.21666,-0.79375 h -0.1323 v -0.13229 -0.13229 h 0.1323 0.13229 v 0.13229 0.13229 z m 2.10109,-0.273 -0.24901,-0.008 -0.51359,-0.38846 -0.51359,-0.38846 0.249,0.008 0.24901,0.008 0.51359,0.38846 0.51359,0.38846 z m 0.54474,-0.52075 h -0.13229 v -0.13229 -0.13229 h 0.13229 0.13229 v 0.13229 0.13229 z m -2.11667,-0.26458 h -0.13229 v -0.13229 -0.1323 h 0.13229 0.13229 v 0.1323 0.13229 z m 1.47082,0 h -0.24896 l -0.16165,-0.26155 -0.16165,-0.26156 0.41062,0.15757 0.41061,0.15757 v 0.10398 0.10399 z m 1.70418,0 h -0.13229 v -0.13229 -0.1323 h 0.13229 0.13229 v 0.1323 0.13229 z m -0.92604,-0.26459 h -0.35278 l 0.17639,-0.17638 0.17639,-0.17639 0.17639,0.17639 0.17639,0.17638 z m -0.5797,-0.28547 -0.0818,-0.0209 -0.33073,-0.13345 -0.33073,-0.13345 v -0.24254 -0.24254 l 0.59532,0.0209 0.59531,0.0209 -0.33238,0.134 -0.33238,0.134 0.14956,0.24199 0.14955,0.24199 z m 8.68189,0.0209 h -0.0999 l -0.36312,-0.46302 -0.36313,-0.46302 0.46302,0.36313 0.46302,0.36312 v 0.0999 0.0999 z m -11.40948,-0.26458 h -0.13229 v -0.13229 -0.13229 h 0.13229 0.13229 v 0.13229 0.13229 z m 3.68212,-0.0209 -0.50712,-0.0209 0.34726,-0.13897 0.34727,-0.13896 0.15985,0.15985 0.15985,0.15985 z m 0.94809,-0.2437 h -0.35278 l 0.17639,-0.17639 0.17639,-0.17638 0.17639,0.17638 0.17638,0.17639 z m -4.38768,-0.28547 -0.50711,-0.0209 0.34726,-0.13896 0.34727,-0.13897 0.15985,0.15986 0.15985,0.15985 z m 3.32934,0.0209 h -0.35277 l 0.17638,-0.17639 0.17639,-0.17639 0.17639,0.17639 0.17639,0.17639 z m 3.57188,0 h -0.13229 v -0.13229 -0.13229 h 0.13229 0.13229 v 0.13229 0.13229 z m 36.29201,-0.0882 -0.17639,0.17639 v -0.35278 -0.35277 l 0.17639,0.17638 0.17639,0.17639 z m -35.49826,-0.17639 h -0.13229 v -0.13229 -0.13229 h 0.13229 0.13229 v 0.13229 0.13229 z m 1.20624,0 h -0.24897 l -0.16165,-0.26155 -0.16165,-0.26155 0.41062,0.15757 0.41062,0.15756 v 0.10399 0.10398 z m -7.31371,-0.28547 -0.50711,-0.0209 0.34726,-0.13896 0.34727,-0.13897 0.15985,0.15986 0.15985,0.15985 z m 5.29167,0 -0.50712,-0.0209 0.34727,-0.13896 0.34726,-0.13897 0.15986,0.15986 0.15985,0.15985 z m 37.83542,0 -0.50712,-0.0209 0.34726,-0.13896 0.34727,-0.13897 0.15985,0.15986 0.15985,0.15985 z m -39.004,-0.24369 h -0.35277 l 0.17638,-0.17639 0.17639,-0.17639 0.17639,0.17639 0.17639,0.17639 z m 1.98438,0 h -0.13229 v -0.1323 -0.13229 h 0.13229 0.13229 v 0.13229 0.1323 z m -0.66146,-0.26459 h -0.35278 l 0.17639,-0.17639 0.17639,-0.17638 0.17639,0.17638 0.17639,0.17639 z"
       id="path11" />
  </g>
</svg>
