<?xml version="1.0" encoding="UTF-8" standalone="no"?>
<!-- Created with Inkscape (http://www.inkscape.org/) -->

<svg
   width="144.0659mm"
   height="106.37247mm"
   viewBox="0 0 144.0659 106.37247"
   version="1.1"
   id="svg1"
   inkscape:version="1.4.1-rc (06eac75fbf, 2025-03-29)"
   sodipodi:docname="mounts10.svg"
   xmlns:inkscape="http://www.inkscape.org/namespaces/inkscape"
   xmlns:sodipodi="http://sodipodi.sourceforge.net/DTD/sodipodi-0.dtd"
   xmlns="http://www.w3.org/2000/svg"
   xmlns:svg="http://www.w3.org/2000/svg">
  <sodipodi:namedview
     id="namedview1"
     pagecolor="#ffffff"
     bordercolor="#000000"
     borderopacity="0.25"
     inkscape:showpageshadow="2"
     inkscape:pageopacity="0.0"
     inkscape:pagecheckerboard="0"
     inkscape:deskcolor="#d1d1d1"
     inkscape:document-units="mm"
     inkscape:zoom="1.4449635"
     inkscape:cx="273.01727"
     inkscape:cy="201.7352"
     inkscape:window-width="1850"
     inkscape:window-height="1016"
     inkscape:window-x="0"
     inkscape:window-y="0"
     inkscape:window-maximized="1"
     inkscape:current-layer="layer1" />
  <defs
     id="defs1" />
  <g
     inkscape:label="Layer 1"
     inkscape:groupmode="layer"
     id="layer1"
     transform="translate(-32.80832,-95.250001)">
    <path
       style="fill:#000000"
       d="m 144.57089,200.93123 c -0.6417,-0.46124 -1.20607,-0.93728 -1.25415,-1.05786 -0.0481,-0.12059 -0.52433,-0.41885 -1.05834,-0.6628 -1.55522,-0.71049 -2.45698,-1.67775 -1.56411,-1.67775 0.98452,0 4.16508,2.189 4.16508,2.86659 0,0.13413 0.26789,0.42396 0.59531,0.64409 0.32742,0.22012 0.52503,0.4736 0.43912,0.56328 -0.0859,0.0897 -0.68121,-0.21431 -1.32291,-0.67555 z m -4.00488,-0.87184 c -0.83338,-0.44373 -1.48823,-0.92585 -1.45521,-1.07137 0.0647,-0.2853 0.49954,-0.21711 0.71898,0.11277 0.0741,0.11145 0.43245,0.28135 0.79626,0.37756 0.82218,0.21743 1.67407,0.85517 1.54899,1.15958 -0.0516,0.12553 -0.77564,-0.13482 -1.60902,-0.57854 z m 4.34603,-0.70226 c -2.02919,-1.7208 -2.43731,-2.48345 -1.17715,-2.19977 0.67993,0.15307 2.9587,2.31535 3.5326,3.35202 0.5178,0.93532 -0.45479,0.45955 -2.35545,-1.15225 z m -11.56205,1.0861 c -0.43138,-0.18537 -0.44648,-0.23082 -0.0818,-0.24598 0.24608,-0.0102 0.52099,0.10046 0.61093,0.24598 0.18803,0.30424 0.17884,0.30424 -0.52917,0 z m 3.37344,-0.39446 c -0.47294,-0.20556 -0.85989,-0.49855 -0.85989,-0.6511 0,-0.45513 0.45355,-0.31791 1.24201,0.37574 0.85522,0.75239 0.80262,0.7903 -0.38212,0.27536 z m 11.30086,-0.20085 c -0.6493,-0.32742 -1.29808,-0.8632 -1.44172,-1.19063 -0.14365,-0.32742 -0.35201,-0.59531 -0.46303,-0.59531 -0.11101,0 -0.20184,-0.17859 -0.20184,-0.39687 0,-0.72438 0.66008,-0.41224 1.95831,0.92604 0.70584,0.7276 1.3874,1.32292 1.5146,1.32292 0.12719,0 0.23126,0.11906 0.23126,0.26458 0,0.38961 -0.28686,0.33023 -1.59758,-0.33073 z m -23.00867,-0.0313 c 0,-0.37183 0.91558,-0.96091 1.49351,-0.96091 0.48747,0 0.63883,0.12205 0.57421,0.46302 -0.0613,0.32359 -0.38586,0.48775 -1.07773,0.54514 -0.5445,0.0452 -0.98999,0.0239 -0.98999,-0.0472 z m -4.37279,-0.70791 c -0.41754,-0.6756 1.52177,-1.75118 2.64786,-1.46855 1.07057,0.26869 0.77244,0.8364 -0.6867,1.30765 -1.59036,0.51363 -1.73578,0.52556 -1.96116,0.1609 z m 29.1801,-0.50099 c -1.3258,-0.8408 -2.20516,-1.93782 -1.92139,-2.39697 0.0976,-0.15784 0.41297,-0.2122 0.70095,-0.1208 0.47314,0.15017 0.49035,0.11297 0.17867,-0.38611 -0.1897,-0.30376 -0.47576,-0.55229 -0.63568,-0.55229 -0.41096,0 -0.98354,-1.35008 -0.69497,-1.63865 0.13725,-0.13725 0.6806,0.21014 1.30446,0.834 0.58807,0.58808 1.20821,1.06923 1.37808,1.06923 0.58462,0 1.87007,0.80792 1.87007,1.17537 0,0.20242 0.14883,0.42103 0.33073,0.48581 0.1819,0.0648 -0.23267,0.10446 -0.92128,0.0882 -0.73214,-0.0173 -1.30546,-0.1669 -1.38076,-0.36031 -0.14876,-0.38211 -0.67452,-0.44955 -0.67452,-0.0865 0,0.13432 0.47625,0.71106 1.05833,1.28164 1.63413,1.60185 1.38232,1.85991 -0.59269,0.6074 z m -33.27398,0.27917 c 0,-0.30635 1.75187,-1.35409 2.26408,-1.35409 1.00843,0 -0.16115,1.07969 -1.53647,1.41839 -0.40019,0.0986 -0.72761,0.0696 -0.72761,-0.0643 z m -0.64588,-2.27172 c 0.28247,-0.21365 0.69549,-0.39225 0.91781,-0.39688 0.22232,-0.005 0.60811,-0.24654 0.85731,-0.53758 0.24919,-0.29104 0.71789,-0.52916 1.04154,-0.52916 0.51326,0 0.53894,0.0477 0.20102,0.37344 -0.6509,0.6274 -2.3547,1.47864 -2.95958,1.47864 -0.55948,0 -0.56072,-0.008 -0.0581,-0.38846 z m 36.36463,-0.60028 c -0.21828,-0.0843 -0.55245,-0.37253 -0.74261,-0.64057 -0.19015,-0.26805 -0.51757,-0.48736 -0.7276,-0.48736 -0.21003,0 -0.38187,-0.11906 -0.38187,-0.26458 0,-0.14552 -0.24079,-0.26458 -0.53508,-0.26458 -0.29429,0 -1.03843,-0.46081 -1.65365,-1.02402 -0.61521,-0.5632 -1.59481,-1.26491 -2.1769,-1.55934 -1.59157,-0.80507 -2.0593,-1.4561 -2.11148,-2.93898 -0.0266,-0.75592 -0.27167,-1.67286 -0.59239,-2.21644 -0.30086,-0.50992 -0.61395,-1.1502 -0.69576,-1.42283 -0.20861,-0.69524 0.20717,-2.3609 0.57017,-2.28412 0.35551,0.0752 0.009,-0.97956 -0.61361,-1.86871 -0.57032,-0.81425 -0.48689,-1.60031 0.20193,-1.90251 0.97276,-0.42678 0.73457,-1.03752 -0.46302,-1.18722 -0.58209,-0.0728 -1.38307,-0.35258 -1.77997,-0.62183 -1.69019,-1.14658 -3.68325,-0.95598 -4.38544,0.4194 -0.28425,0.55677 -0.89269,2.01713 -0.96621,2.3191 -0.13502,0.55451 -1.04494,2.11666 -1.23291,2.11666 -0.12893,0 -0.50221,0.26789 -0.8295,0.59532 -0.50196,0.50216 -0.91004,0.60264 -2.6082,0.64218 -1.10722,0.0258 -2.41702,0.21835 -2.91066,0.42794 -1.5455,0.65618 -2.96253,2.26502 -4.4753,5.08111 -1.12009,2.08508 -1.95548,2.83433 -5.17878,4.64475 -1.16657,0.65522 -1.37047,0.65101 -0.76698,-0.0158 0.59005,-0.652 0.50198,-0.74564 -1.23347,-1.31139 -1.77865,-0.57983 -2.06114,-1.15376 -0.44604,-0.90617 0.63188,0.0969 1.47038,0.33815 1.86334,0.53619 0.99352,0.50072 1.39575,0.45404 2.22359,-0.25804 0.92447,-0.7952 0.64483,-1.23396 -0.78643,-1.23396 -0.61845,0 -1.35556,-0.17039 -1.63804,-0.37864 -0.49913,-0.36799 -0.49501,-0.38558 0.1465,-0.62512 0.6767,-0.25268 1.5142,-0.0801 3.04408,0.62738 0.73387,0.33935 0.82868,0.32248 1.25668,-0.2236 0.25461,-0.32486 0.57208,-0.7238 0.70549,-0.88654 0.13341,-0.16274 0.54639,-0.89545 0.91772,-1.62824 0.51616,-1.01859 0.59925,-1.39242 0.35284,-1.58749 -0.55756,-0.44137 -2.2148,-1.14559 -3.81112,-1.61948 -1.84807,-0.54861 -2.15931,-1.27053 -0.4856,-1.12633 1.14869,0.099 2.68545,0.78708 4.05974,1.81783 l 0.87908,0.65934 0.70259,-0.62341 c 0.38642,-0.34288 0.84587,-0.81048 1.02101,-1.03912 0.17513,-0.22864 0.82913,-0.56872 1.45333,-0.75573 l 1.13492,-0.34003 -0.78605,-0.40721 c -0.43233,-0.22396 -0.84558,-0.494 -0.91834,-0.60008 -0.14342,-0.20911 -1.85614,-0.65756 -2.18754,-0.57278 -0.36101,0.0924 -2.04579,-0.70972 -2.04579,-0.97395 0,-0.44385 0.59372,-0.48023 2.10604,-0.12906 1.83757,0.42669 2.61932,0.82679 3.39866,1.73941 0.60427,0.70762 2.29128,1.3832 2.74846,1.10066 0.38877,-0.24028 -1.86994,-2.10906 -3.52355,-2.91526 -1.40288,-0.68396 -2.0465,-1.4188 -1.24267,-1.4188 0.60472,0 2.20908,0.6677 2.86081,1.19062 0.36274,0.29104 1.18215,1.03518 1.82091,1.65365 0.63876,0.61846 1.28123,1.12448 1.42771,1.12448 0.14648,0 0.75589,-0.45357 1.35425,-1.00793 0.95866,-0.88816 1.09841,-1.16814 1.17617,-2.3564 0.0754,-1.15142 0.0123,-1.3726 -0.4316,-1.51348 -0.68082,-0.21608 -1.64102,-1.05696 -1.64102,-1.43708 0,-0.16483 -0.11907,-0.2997 -0.26459,-0.2997 -0.14552,0 -0.26458,-0.11906 -0.26458,-0.26458 0,-0.14552 0.24663,-0.26458 0.54806,-0.26458 0.56307,0 1.30402,0.56731 1.30402,0.99842 0,0.13336 0.24888,0.46771 0.55307,0.74299 0.5416,0.49015 0.56061,0.49019 0.91756,0.002 0.40592,-0.55512 0.2831,-0.94969 -0.29562,-0.94969 -0.20969,0 -0.38126,-0.11907 -0.38126,-0.26459 0,-0.14552 -0.16084,-0.26458 -0.35742,-0.26458 -0.19657,0 -1.14907,-0.5993 -2.11666,-1.33179 -1.37083,-1.03774 -1.76617,-1.49047 -1.79058,-2.05052 -0.043,-0.98713 -0.0493,-0.91818 0.1414,-1.54845 0.12961,-0.4283 -0.0777,-0.82402 -0.85625,-1.63431 -1.78788,-1.86083 -2.37352,-3.80136 -1.30434,-4.32197 0.25466,-0.124 0.66429,-0.32326 0.91029,-0.4428 0.246,-0.11954 0.48253,-0.3279 0.52562,-0.46302 0.087,-0.27284 -1.5747,-1.42642 -2.25722,-1.567 -0.23951,-0.0493 -0.92307,-0.2019 -1.51903,-0.33906 -0.81728,-0.18808 -1.26051,-0.15665 -1.80358,0.12789 -1.06543,0.55823 -1.7426,1.20082 -1.74664,1.65744 -0.002,0.22232 -0.56752,0.88046 -1.25677,1.46255 -1.62337,1.37095 -2.97298,2.80685 -2.97298,3.16306 0,0.15484 -0.23813,0.43024 -0.52917,0.61199 -0.29104,0.18176 -0.52917,0.48522 -0.52917,0.67435 0,0.18914 -0.47343,0.69414 -1.05208,1.12224 -0.57864,0.4281 -1.05489,0.8624 -1.05833,0.96512 -0.008,0.23312 -3.56658,2.32678 -3.95502,2.32678 -0.62152,0 -0.20638,-0.48452 1.46938,-1.71495 0.96468,-0.70831 2.01324,-1.54712 2.33014,-1.86403 0.3169,-0.3169 0.68848,-0.62354 0.82574,-0.68141 0.13725,-0.0579 0.83729,-0.97244 1.55564,-2.03236 0.71834,-1.05993 1.70135,-2.17142 2.18446,-2.47 0.4831,-0.29857 0.8161,-0.64361 0.74,-0.76675 -0.0761,-0.12313 0.0829,-0.38085 0.35324,-0.57271 0.27038,-0.19186 0.63575,-0.62046 0.81193,-0.95245 0.17618,-0.33199 0.80825,-0.95706 1.4046,-1.38906 0.87699,-0.63529 1.35191,-0.78545 2.48418,-0.78545 0.76994,0 1.47348,0.11907 1.56341,0.26459 0.0899,0.14552 0.37825,0.26458 0.6407,0.26458 0.26244,0 0.92663,0.35719 1.47597,0.79375 0.85265,0.6776 1.22523,0.79375 2.54613,0.79375 2.60762,0 3.87661,0.47956 4.79285,1.81126 1.18453,1.72166 4.15344,4.53874 4.78336,4.53874 0.14472,0 0.63155,0.27021 1.08185,0.60048 0.4503,0.33026 1.38427,0.87439 2.0755,1.20918 0.98258,0.47591 1.25677,0.74764 1.25677,1.24551 0,0.89839 1.0148,1.46776 2.81142,1.5774 1.46481,0.0894 1.54978,0.0577 2.46173,-0.91794 1.41112,-1.50967 2.55552,-1.5463 4.99688,-0.15995 0.33701,0.19138 1.31615,1.01768 2.17587,1.83622 0.85972,0.81855 1.77461,1.49091 2.03309,1.49415 0.25848,0.003 0.76762,0.23871 1.13142,0.52328 0.36381,0.28457 0.76904,0.52005 0.90052,0.52329 0.13148,0.003 0.84585,0.29119 1.5875,0.63989 0.74164,0.34871 1.79493,0.81889 2.34063,1.04484 0.5457,0.22595 0.99219,0.53595 0.99219,0.6889 0,0.15294 0.2311,0.27808 0.51355,0.27808 0.28245,0 0.5821,0.11092 0.66588,0.24648 0.20395,0.32999 -0.89326,1.07644 -1.58226,1.07644 -0.30232,0 -0.68897,0.1393 -0.85923,0.30955 -0.30435,0.30436 -1.38097,0.10078 -3.18216,-0.60169 -0.33427,-0.13036 -1.02671,-0.23703 -1.53875,-0.23703 -0.51204,0 -1.15406,-0.11938 -1.4267,-0.2653 -0.70522,-0.37742 -0.96154,0.16905 -0.38045,0.81114 0.26805,0.29619 0.33482,0.5125 0.15821,0.5125 -0.16808,0 -0.30559,-0.11907 -0.30559,-0.26459 0,-0.14552 -0.24404,-0.26458 -0.54231,-0.26458 -0.29827,0 -0.89358,-0.18165 -1.32291,-0.40367 -0.42934,-0.22202 -0.78062,-0.33297 -0.78062,-0.24657 0,0.0864 -0.32742,-0.0696 -0.7276,-0.34669 -1.23638,-0.85609 -1.49551,-0.97686 -1.25259,-0.5838 0.38799,0.62777 2.02896,1.96496 3.0017,2.446 1.10786,0.54786 1.52152,0.91323 1.29285,1.1419 -0.231,0.231 -2.99889,-1.10514 -4.49778,-2.17121 -0.69156,-0.49186 -1.40594,-0.89694 -1.5875,-0.90018 -0.18156,-0.003 -0.62777,-0.23871 -0.99158,-0.52328 -0.3638,-0.28457 -0.79659,-0.52005 -0.96175,-0.52328 -0.16517,-0.003 -0.49507,-0.30314 -0.73311,-0.66644 -0.23805,-0.36331 -1.28797,-1.08318 -2.33317,-1.59973 -1.04519,-0.51655 -2.03432,-1.05037 -2.19807,-1.18627 -0.16374,-0.13589 -0.5265,-0.28395 -0.80612,-0.32902 -0.27962,-0.0451 -1.04418,-0.38914 -1.69902,-0.76461 -0.65485,-0.37548 -1.68948,-0.90653 -2.29919,-1.18011 -0.60971,-0.27358 -1.24075,-0.73554 -1.40231,-1.02658 -0.29851,-0.53774 -2.38392,-2.15748 -2.38392,-1.85159 0,0.35092 1.40069,1.98388 1.70169,1.98388 0.17379,0 0.65818,0.35719 1.07643,0.79375 0.41826,0.43656 0.85509,0.79375 0.97073,0.79375 0.11565,0 0.63938,0.41672 1.16384,0.92604 0.52446,0.50932 0.88556,0.92604 0.80243,0.92604 -0.34307,0 -3.33387,-1.68481 -3.33387,-1.87807 0,-0.11534 -0.28206,-0.36504 -0.6268,-0.55489 -0.34474,-0.18984 -1.13018,-0.62136 -1.74543,-0.95893 -0.61525,-0.33758 -1.17894,-0.55346 -1.25265,-0.47975 -0.0737,0.0737 0.41407,0.66671 1.08397,1.31777 0.66989,0.65107 1.21799,1.38571 1.21799,1.63254 0,0.29143 0.14001,0.39506 0.39931,0.29555 0.21962,-0.0843 0.96376,0.20934 1.65365,0.65247 1.13109,0.72653 1.39776,0.79019 2.71415,0.64791 1.31098,-0.1417 1.58748,-0.0768 2.71198,0.63632 0.68869,0.43675 1.25216,0.91418 1.25216,1.06095 0,0.14678 0.40714,0.43698 0.90475,0.64489 0.89453,0.37376 1.64614,1.32213 1.525,1.92423 -0.0344,0.17093 0.0597,0.38631 0.20907,0.47863 0.14938,0.0923 0.2716,0.39896 0.2716,0.68141 0,0.31117 0.18247,0.51515 0.46302,0.51761 0.33629,0.003 0.37109,0.0624 0.12715,0.21723 -0.24521,0.15563 -0.058,0.49664 0.69351,1.26331 0.98617,1.00604 1.47142,1.27037 4.37729,2.38442 0.71244,0.27314 1.42681,0.72373 1.5875,1.00133 0.49027,0.84698 2.09365,2.27141 2.59623,2.30648 1.2379,0.0864 2.06155,0.4943 2.06155,1.02104 0,0.26911 -0.14248,0.53678 -0.31663,0.59483 -0.17415,0.0581 0.24191,0.37593 0.92457,0.7064 1.47803,0.7155 1.69871,0.98828 0.98322,1.21537 -0.34217,0.1086 -0.82949,-0.0417 -1.36021,-0.41966 l -0.82702,-0.58889 -0.44923,0.59555 c -0.42222,0.55976 -0.51687,0.57528 -1.57484,0.25831 -0.84709,-0.2538 -1.17248,-0.26143 -1.31498,-0.0308 -0.21345,0.34537 -2.01093,-0.0352 -2.28864,-0.48455 -0.21416,-0.34652 -1.18458,-0.32424 -1.18458,0.0272 0,0.4706 0.52976,1.30552 0.82837,1.30552 0.40609,0 1.8749,1.0891 1.70199,1.262 -0.0803,0.0803 -0.54783,-0.0705 -1.03902,-0.33501 -1.14501,-0.61662 -1.75592,-0.38971 -1.75592,0.65221 0,0.66156 -0.10428,0.79839 -0.59531,0.78116 -0.32742,-0.0115 -0.77391,-0.0898 -0.99219,-0.1741 z m 0.26458,-1.92168 c 0,-0.14552 -0.18278,-0.26458 -0.40618,-0.26458 -0.45376,0 -1.36366,-0.53248 -2.81525,-1.6475 -0.53487,-0.41085 -1.03735,-0.64204 -1.11663,-0.51376 -0.16863,0.27285 1.76324,1.89273 2.27203,1.90509 0.19043,0.005 0.57736,0.18322 0.85983,0.39688 0.59115,0.44712 1.2062,0.51028 1.2062,0.12387 z m 4.43411,-1.91823 c -0.19667,-0.6028 -3.1288,-2.78164 -3.96964,-2.94981 -0.45464,-0.0909 -1.04352,-0.36162 -1.30862,-0.60153 -0.2651,-0.23992 -0.56592,-0.3523 -0.66848,-0.24974 -0.30237,0.30238 1.33228,1.47636 1.84336,1.32388 0.30279,-0.0903 0.46302,0.005 0.46302,0.27656 0,0.22809 0.17185,0.41471 0.38188,0.41471 0.21003,0 0.56066,0.25525 0.77918,0.56723 0.75629,1.07976 2.75442,2.06194 2.4793,1.2187 z m -4.43411,-0.31511 c 0,-0.27926 -0.50776,-0.39659 -0.65879,-0.15222 -0.0914,0.14789 0.0194,0.2689 0.24631,0.2689 0.22686,0 0.41248,-0.0525 0.41248,-0.11668 z m -1.58749,-0.67707 c -0.36381,-0.28457 -0.81029,-0.52005 -0.99219,-0.52329 -0.1819,-0.003 -0.3325,-0.0952 -0.33467,-0.20432 -0.008,-0.41438 -1.80853,-2.30554 -2.00762,-2.10892 -0.28799,0.28439 2.94918,3.36709 3.52816,3.35981 0.38314,-0.005 0.3481,-0.0995 -0.19368,-0.52328 z m 5.08814,-2.17773 c -0.46082,-0.46081 -0.92351,-0.75219 -1.0282,-0.64749 -0.1047,0.10469 0.21891,0.53346 0.71912,0.95281 1.17888,0.9883 1.39208,0.77769 0.30908,-0.30532 z m -10.37981,-9.86082 c 0,-0.21828 -0.11533,-0.39687 -0.25628,-0.39687 -0.14095,0 -0.18775,0.17859 -0.10399,0.39687 0.0838,0.21829 0.19909,0.39688 0.25628,0.39688 0.0572,0 0.10399,-0.17859 0.10399,-0.39688 z m 7.28049,-1.56687 c -1.08425,-0.96461 -1.32666,-1.09792 -3.58144,-1.96961 -1.6392,-0.63371 -1.84697,-0.66946 -1.84697,-0.3178 0,0.13571 0.26789,0.33035 0.59531,0.43253 0.32743,0.10218 0.65485,0.26723 0.72761,0.36678 0.0728,0.0996 0.64529,0.38299 1.27229,0.62986 0.627,0.24688 1.28185,0.57245 1.45521,0.72348 0.43584,0.37969 2.14234,1.21618 2.2794,1.11731 0.0617,-0.0445 -0.34397,-0.48662 -0.90141,-0.98255 z m 2.74642,-0.35135 c -0.19615,-0.25467 -0.68698,-0.85412 -1.09073,-1.33213 -0.40375,-0.478 -0.7341,-0.98402 -0.7341,-1.12448 0,-0.58538 1.20068,-0.18998 2.03653,0.67067 1.08817,1.12045 1.55777,1.19894 1.02649,0.17157 -0.46415,-0.89757 -2.00441,-2.30081 -2.80405,-2.55461 -1.01056,-0.32073 -2.21509,0.0768 -2.57373,0.84933 -0.29819,0.64236 -0.26114,0.784 0.38023,1.45344 0.39084,0.40795 0.91944,0.74173 1.17467,0.74173 0.25523,0 0.53832,0.12017 0.6291,0.26705 0.13945,0.22564 1.91066,1.27279 2.21368,1.30875 0.0542,0.006 -0.0619,-0.19666 -0.25809,-0.45132 z m -18.43641,-1.34183 c 0.38662,-0.1534 0.32769,-0.27799 -0.39688,-0.83903 -0.468,-0.36239 -1.26763,-1.08027 -1.77695,-1.59529 -1.37648,-1.39188 -2.11667,-1.96409 -2.11667,-1.63631 0,0.16058 0.29765,0.61314 0.66146,1.00569 0.3638,0.39255 0.66146,0.85166 0.66146,1.02026 0,0.45647 1.73502,2.26492 2.15235,2.24343 0.19865,-0.0102 0.5655,-0.0997 0.81523,-0.19875 z m 8.67408,-1.7366 c 0,-0.056 -0.32742,-0.31258 -0.7276,-0.57012 l -0.72761,-0.46827 0.50403,0.57013 c 0.44602,0.50451 0.95118,0.7532 0.95118,0.46826 z m -12.17083,-8.89397 c 0,-0.34741 0.17639,-0.52917 0.51355,-0.52917 0.69156,0 0.91872,-0.43009 0.34482,-0.65287 -0.61414,-0.2384 -4.03337,-0.52252 -4.03337,-0.33515 0,0.0809 0.52514,0.40129 1.16698,0.71199 0.64184,0.31071 1.23342,0.73805 1.31461,0.94965 0.21755,0.56691 0.69341,0.46778 0.69341,-0.14445 z m -22.68802,30.21343 c -1.08589,-0.0786 -1.42267,-0.36458 -0.8477,-0.71993 0.36044,-0.22276 2.89822,0.12607 2.89822,0.39839 0,0.29797 -0.75025,0.41562 -2.05052,0.32154 z m 4.31325,-0.8224 c -0.0853,-0.13801 -0.8079,-0.39703 -1.60578,-0.57559 -1.45269,-0.32509 -1.78003,-0.58662 -1.07356,-0.85771 0.89085,-0.34186 3.82478,1.07216 3.12367,1.50547 -0.15908,0.0983 -0.35904,0.0658 -0.44433,-0.0722 z m 24.98935,-1.34756 c 0,-0.42676 0.7921,-1.03655 1.36076,-1.04756 0.40168,-0.008 0.90412,0.72532 0.66263,0.96681 -0.0582,0.0582 -0.53721,0.17576 -1.06456,0.26134 -0.6806,0.11044 -0.95883,0.058 -0.95883,-0.18059 z m -11.37708,-0.79794 c 0,-0.29746 1.31829,-0.88002 1.52459,-0.67372 0.0706,0.0706 0.0578,0.31201 -0.0284,0.53657 -0.17257,0.44971 -1.4962,0.57105 -1.4962,0.13715 z m -17.85374,-1.57183 c -0.15845,-0.25638 1.31396,-1.06745 1.93784,-1.06745 0.32307,0 0.94697,0.76962 0.76855,0.94805 -0.29797,0.29796 -2.53504,0.39666 -2.70639,0.1194 z m 15.00092,-0.05 c 0.0652,-0.1958 0.33075,-0.39714 0.59011,-0.44742 0.30163,-0.0585 0.42885,0.0369 0.35303,0.26459 -0.0652,0.1958 -0.33075,0.39713 -0.59011,0.44741 -0.30163,0.0585 -0.42885,-0.0369 -0.35303,-0.26458 z m 4.7049,-1.09 c 0,-0.11476 0.17791,-0.27692 0.39536,-0.36036 0.57398,-0.22026 0.22968,-0.60096 -0.39562,-0.43744 -0.2909,0.0761 -0.5289,0.0121 -0.5289,-0.14213 0,-0.36758 1.06417,-1.10623 1.58022,-1.09685 0.5814,0.0106 2.01176,1.53637 1.70943,1.82349 -0.31678,0.30085 -2.76049,0.48965 -2.76049,0.21329 z m -10.84791,-1.26186 c -0.50933,-0.12175 -1.37253,-0.29343 -1.91823,-0.38151 -0.6615,-0.10678 -0.99219,-0.29982 -0.99219,-0.57921 0,-0.35742 0.24327,-0.39182 1.65364,-0.23387 0.90951,0.10185 1.69334,0.29583 1.74185,0.43105 0.0485,0.13522 0.24228,0.24586 0.43062,0.24586 0.18834,0 0.49065,0.17859 0.67181,0.39687 0.27331,0.32933 0.24505,0.39222 -0.16605,0.36953 -0.27247,-0.015 -0.91213,-0.12696 -1.42145,-0.24872 z m -5.95313,-0.18297 c -1.6301,-0.16249 -1.66933,-0.51521 -0.10886,-0.97862 1.36102,-0.40418 1.43166,-0.3998 1.95113,0.12098 0.46499,0.46617 0.4845,0.57491 0.14211,0.79217 -0.21829,0.1385 -0.51594,0.23363 -0.66146,0.21139 -0.14552,-0.0222 -0.74084,-0.0879 -1.32292,-0.14592 z m 20.16497,-0.23398 c -0.30964,-0.30964 -0.21512,-0.6299 0.1859,-0.6299 0.20615,0 0.41978,-0.13486 0.47472,-0.29969 0.16115,-0.48345 1.31059,0.01 1.21385,0.52073 -0.0861,0.45509 -1.51629,0.76704 -1.87447,0.40886 z m -13.61653,-1.32472 c -0.61847,-0.19993 -1.6305,-0.51234 -2.24896,-0.69424 -1.39165,-0.40931 -1.33516,-0.8778 0.0974,-0.80789 1.86513,0.091 3.67291,0.9212 3.67291,1.68668 0,0.2927 -0.0721,0.28396 -1.52135,-0.18455 z m -10.3849,-0.49581 c 0.18116,-0.21828 0.55293,-0.39687 0.82615,-0.39687 0.27322,0 0.49677,-0.13197 0.49677,-0.29327 0,-0.17233 -0.2464,-0.23142 -0.59751,-0.1433 -0.32863,0.0825 -0.76144,0.0487 -0.96179,-0.0752 -0.46102,-0.28492 0.22158,-0.68629 1.75193,-1.03014 0.86544,-0.19445 1.16864,-0.14889 1.68792,0.25361 0.47818,0.37063 0.54991,0.54481 0.2933,0.71216 -0.18683,0.12185 -0.27003,0.40307 -0.18489,0.62495 0.12246,0.31912 -0.13825,0.4386 -1.24781,0.57186 -2.21928,0.26653 -2.45024,0.24148 -2.06407,-0.22383 z m -1.20269,-2.79765 c -0.0846,-0.13684 0.0621,-0.31642 0.32603,-0.39909 0.26388,-0.0827 0.9474,-0.31866 1.51892,-0.52445 1.03019,-0.37094 1.53513,-0.31446 1.0599,0.11856 -0.46899,0.42732 -2.74795,1.05886 -2.90485,0.80498 z m 14.29957,-0.68457 c -1.79517,-0.43073 -2.64384,-1.01306 -1.89511,-1.30038 0.48846,-0.18744 0.68602,-0.14323 2.76943,0.61977 2.80576,1.02753 2.27937,1.43729 -0.87432,0.68061 z m -15.47813,-1.07835 c 0,-0.42431 2.09715,-1.25332 2.40124,-0.94923 0.17964,0.17964 0.15512,0.35951 -0.0749,0.54963 -0.47957,0.39636 -2.32632,0.71357 -2.32632,0.3996 z m 24.20938,-1.11547 c -1.24722,-0.58611 -2.37786,-1.70655 -2.12877,-2.10958 0.25076,-0.40574 0.67356,-0.35124 0.67356,0.0868 0,0.20405 0.35719,0.49551 0.79375,0.6477 0.43656,0.15219 0.79375,0.38285 0.79375,0.51258 0,0.12973 0.29765,0.3715 0.66146,0.53726 0.3638,0.16576 0.66146,0.42299 0.66146,0.57163 0,0.36953 -0.22594,0.33127 -1.45521,-0.24641 z m -23.61407,-0.22916 c -0.32742,-0.0466 -0.59531,-0.17376 -0.59531,-0.28259 0,-0.27799 2.91867,-1.16819 3.13169,-0.95517 0.23605,0.23605 -0.73834,0.92526 -1.30813,0.92526 -0.2511,0 -0.49623,0.0894 -0.54474,0.19861 -0.0485,0.10923 -0.35608,0.16049 -0.68351,0.11389 z m 24.87808,-1.56927 c -1.04659,-0.57389 -2.19005,-1.56637 -2.19005,-1.90087 0,-0.87295 1.09785,-0.32808 2.49725,1.23941 1.0869,1.21744 1.00974,1.38359 -0.3072,0.66146 z m 36.43911,0.29049 c -0.53271,-0.1755 -1.61594,-0.63034 -2.17126,-0.9117 -0.2483,-0.12581 -0.94311,-0.30736 -1.54402,-0.40345 -0.60091,-0.0961 -1.1495,-0.32309 -1.2191,-0.50445 -0.0696,-0.18136 -0.45209,-0.39486 -0.85,-0.47444 -0.80327,-0.16065 -2.15312,-1.37384 -2.15312,-1.93514 0,-0.54795 0.66274,-0.43376 1.74496,0.30066 0.96523,0.65502 1.69462,0.85174 1.69462,0.45705 0,-0.11243 -0.41671,-0.42884 -0.92604,-0.70313 -0.50932,-0.27428 -0.92604,-0.59902 -0.92604,-0.72162 0,-0.12261 -0.17157,-0.22292 -0.38126,-0.22292 -0.5499,0 -0.8084,-0.54907 -0.38244,-0.81232 0.52242,-0.32287 1.58611,-0.009 2.3512,0.69482 0.80654,0.74146 3.88364,2.49875 4.37543,2.49875 0.19571,0 0.44063,0.13719 0.54427,0.30488 0.25481,0.41229 -1.67359,0.1032 -2.70188,-0.43307 -0.8718,-0.45466 -1.68865,-0.52308 -1.68865,-0.14143 0,0.14274 0.32624,0.34142 0.72498,0.4415 0.39874,0.10007 0.8835,0.34047 1.07723,0.5342 0.19374,0.19374 0.52737,0.35225 0.7414,0.35225 0.21402,0 0.53294,0.11611 0.7087,0.25801 1.9227,1.55237 2.08295,1.78458 0.98102,1.42155 z m -60.58958,-0.87123 c 0.3638,-0.29259 0.79668,-0.53462 0.96194,-0.53786 0.16527,-0.003 0.64152,-0.18374 1.05834,-0.40113 0.96505,-0.50331 1.4193,-0.50383 1.4193,-0.002 0,0.21828 -0.14883,0.39761 -0.33073,0.39851 -0.1819,8.9e-4 -0.63946,0.16273 -1.0168,0.35963 -0.37734,0.19691 -1.15125,0.43821 -1.71979,0.53623 l -1.03372,0.17822 z m 5.29051,0.0295 c -0.45431,-0.1521 -0.28906,-0.47665 0.40334,-0.79213 0.36673,-0.16709 0.78296,-0.6094 0.92497,-0.98291 0.34743,-0.91381 2.40598,-1.85336 3.16762,-1.44574 0.88383,0.47301 0.62943,0.99591 -0.59217,1.21717 -0.61846,0.11202 -1.33284,0.17453 -1.5875,0.13892 -0.63869,-0.0893 -0.58486,0.42335 0.0661,0.62997 0.56951,0.18076 0.70775,0.78444 0.2451,1.07037 -0.30732,0.18994 -2.19787,0.30819 -2.62751,0.16435 z m -4.09989,-2.16076 c -0.0899,-0.14552 -0.0249,-0.26459 0.1444,-0.26459 0.16936,0 0.91068,-0.30275 1.64739,-0.67277 1.28515,-0.6455 2.04467,-0.69747 2.04467,-0.13991 0,0.14424 -0.78645,0.50516 -1.74766,0.80205 -2.04309,0.63105 -1.882,0.60982 -2.0888,0.27522 z m 56.75313,-1.95134 c -1.72814,-0.54772 -3.175,-1.64682 -3.175,-2.41188 0,-0.5154 0.89581,-0.51704 1.32291,-0.002 0.18116,0.21828 0.47494,0.39688 0.65285,0.39688 0.17791,0 0.52901,0.22711 0.78022,0.5047 0.25121,0.27758 1.03679,0.75422 1.74572,1.0592 2.50372,1.07707 1.60742,1.38346 -1.3267,0.45351 z m 2.11666,-1.39619 c -0.72999,-0.2405 -1.4437,-0.54816 -3.0427,-1.31163 -0.87313,-0.41688 -1.70657,-0.76441 -1.85209,-0.77227 -0.75992,-0.0411 -2.49522,-1.08071 -2.87394,-1.72183 -0.54075,-0.91541 -0.55606,-1.57799 -0.0365,-1.57799 0.96756,0 0.23071,-0.78037 -1.71655,-1.81791 -2.91195,-1.55156 -3.63528,-2.78086 -2.34407,-3.9838 l 0.56959,-0.53065 -0.7374,-0.28036 c -1.14394,-0.43493 -3.3122,-2.74992 -3.3122,-3.53635 0,-0.36719 -0.10852,-0.73469 -0.24117,-0.81667 -0.1419,-0.0877 -0.1232,-0.46158 0.0454,-0.90832 0.24292,-0.64359 0.19904,-0.87057 -0.288,-1.48975 -0.72069,-0.9162 -0.79107,-2.04655 -0.11157,-1.79189 0.40547,0.15196 0.41789,0.11804 0.0999,-0.27289 -0.45731,-0.5622 -1.51308,-0.58075 -1.72431,-0.0303 -0.0878,0.22887 0.0373,1.01847 0.27814,1.75467 0.34775,1.06318 0.37293,1.44246 0.12241,1.84361 -0.17348,0.27778 -0.25608,0.60105 -0.18356,0.71838 0.0725,0.11733 -0.21507,0.5457 -0.63907,0.95192 -0.69213,0.66309 -0.88722,0.71844 -1.90882,0.54152 -1.8193,-0.31507 -3.18962,-0.39105 -4.12567,-0.22875 -0.99152,0.17193 -2.4362,1.4765 -2.4362,2.19994 0,0.26608 -0.42993,1.00106 -0.9554,1.63329 -1.06896,1.28614 -1.64458,1.65573 -1.15554,0.74194 0.2808,-0.52469 0.24203,-0.66235 -0.30504,-1.08306 -0.3447,-0.26509 -0.48493,-0.48462 -0.31161,-0.48786 0.17331,-0.003 0.3887,0.11318 0.47863,0.2587 0.30726,0.49716 0.68827,0.26505 1.07184,-0.65296 0.47622,-1.13977 0.47825,-1.29214 0.0148,-1.11431 -0.2027,0.0778 -0.82778,-0.0744 -1.38906,-0.3382 -1.64043,-0.77095 -2.22723,-0.98267 -2.87261,-1.03645 -0.21828,-0.0182 -0.39687,-0.13028 -0.39687,-0.24907 0,-0.34878 3.2515,-0.0602 3.69548,0.32799 0.80336,0.70238 1.61489,0.77279 2.03264,0.17637 0.58633,-0.83711 1.81063,-1.36517 3.45824,-1.4916 0.81344,-0.0624 1.51706,-0.15158 1.56361,-0.19813 0.0465,-0.0465 -0.71605,-0.49378 -1.69465,-0.99386 -0.9786,-0.50007 -2.05775,-1.23729 -2.39811,-1.63825 -0.34036,-0.40097 -0.82816,-0.72903 -1.084,-0.72903 -0.25584,0 -0.74751,-0.24488 -1.0926,-0.54417 -0.61481,-0.53322 -1.36912,-0.91716 -3.09155,-1.57357 -0.47294,-0.18024 -0.85989,-0.44584 -0.85989,-0.59022 0,-0.33073 1.01052,-0.13937 3.03521,0.57477 0.869,0.30651 1.71971,0.50368 1.89047,0.43816 0.17075,-0.0655 0.67051,0.46008 1.11059,1.16801 0.90986,1.46367 2.01955,2.30071 5.0163,3.78385 1.42685,0.70616 2.04742,0.69069 2.62405,-0.0654 0.34344,-0.45034 0.22653,-1.27514 -0.36357,-2.56489 -0.20854,-0.45578 -0.34249,-1.28874 -0.29767,-1.85101 0.0803,-1.00759 0.0648,-1.02636 -1.0768,-1.30267 -0.77505,-0.1876 -1.45349,-0.60249 -2.05052,-1.25396 -1.45895,-1.59199 -1.1114,-1.98957 0.72552,-0.82998 1.62729,1.02727 1.54145,0.56722 -0.13589,-0.72824 -0.81392,-0.62862 -1.48058,-1.262 -1.48148,-1.40752 -9e-4,-0.14552 -0.77526,-0.73707 -1.7208,-1.31456 -0.94554,-0.57749 -1.71916,-1.13501 -1.71916,-1.23894 0,-0.10393 -0.26125,-0.27188 -0.58055,-0.37322 -0.3193,-0.10135 -0.78276,-0.43399 -1.02991,-0.73921 -0.40336,-0.49813 -0.51792,-0.51826 -1.11887,-0.19665 -0.7158,0.38309 -2.16877,0.19499 -1.89652,-0.24552 0.0871,-0.14087 0.62975,-0.33152 1.20598,-0.42366 l 1.04768,-0.16753 -0.1675,-1.26265 c -0.14705,-1.10852 -0.0992,-1.29923 0.39234,-1.56227 0.30792,-0.16479 0.55985,-0.50974 0.55985,-0.76656 0,-0.60293 0.5055,-1.10194 1.11629,-1.10194 0.37744,0 0.4465,-0.1386 0.32006,-0.64236 -0.2279,-0.90803 0.0991,-1.73889 0.68438,-1.73889 0.44355,0 0.46657,-0.0933 0.212,-0.8599 -0.48094,-1.44815 -0.74483,-1.59137 -2.07052,-1.12364 -0.63902,0.22546 -1.3808,0.64493 -1.64839,0.93215 -0.68127,0.73126 -3.15785,0.7407 -3.88373,0.0148 -0.74662,-0.74661 -3.25437,-1.01198 -4.13159,-0.4372 -0.37,0.24243 -0.63679,0.64141 -0.59539,0.89038 0.0511,0.30717 -0.13605,0.4803 -0.58645,0.54261 -0.87652,0.12124 -1.32977,0.52256 -1.76433,1.56214 -0.47911,1.14621 -0.95466,1.12206 -0.73714,-0.0374 l 0.16834,-0.89734 -2.33916,0.003 c -1.28654,0.002 -3.25688,-0.18965 -4.37853,-0.42558 -1.12165,-0.23592 -2.99689,-0.42895 -4.16719,-0.42895 -1.21461,0 -2.12782,-0.11139 -2.12782,-0.25955 0,-0.47686 1.35235,-0.60676 3.75986,-0.36113 1.93089,0.197 2.41162,0.1751 2.52291,-0.11493 0.0756,-0.19706 0.0149,-0.48089 -0.13493,-0.63072 -0.50193,-0.50193 -3.46934,-0.67748 -5.45122,-0.32248 -2.1971,0.39356 -5.02614,0.47099 -4.81653,0.13184 0.0796,-0.12873 0.71166,-0.3254 1.40468,-0.43704 0.69301,-0.11164 1.43861,-0.23439 1.6569,-0.27277 2.28811,-0.40233 3.36797,-0.40005 5.88269,0.0124 2.3157,0.37983 2.88766,0.39886 3.41073,0.1135 0.60877,-0.33212 0.58288,-0.35732 -0.82676,-0.80463 -0.80036,-0.25398 -1.87192,-0.47068 -2.38125,-0.48156 -1.19199,-0.0254 -2.11666,-0.27558 -2.11666,-0.57257 0,-0.38121 2.504,-0.26599 3.52928,0.1624 1.05094,0.43912 4.48303,0.57182 6.78947,0.26252 1.36208,-0.18266 1.428,-0.16644 1.03003,0.25341 -0.24344,0.25683 -1.24206,0.58621 -2.33624,0.77057 -1.79595,0.30261 -1.87225,0.34277 -1.26666,0.66687 0.54183,0.28998 0.89261,0.2737 2.20394,-0.10228 0.95119,-0.27273 2.54005,-0.45187 4.07309,-0.45923 2.14627,-0.0103 2.70894,0.083 3.8508,0.63859 1.40546,0.68385 2.35066,0.62334 3.31379,-0.21214 0.22974,-0.1993 0.54724,-0.36235 0.70555,-0.36235 0.15832,0 0.3342,-0.13907 0.39086,-0.30904 0.0625,-0.18756 0.61722,-0.29378 1.41111,-0.27021 0.71946,0.0214 1.90341,0.0439 2.63102,0.0501 1.48886,0.0127 1.8995,0.26181 2.61785,1.58815 0.27565,0.50895 0.71072,1.16349 0.96683,1.45453 0.49397,0.56137 1.41973,2.51039 1.35097,2.84427 -0.0225,0.10914 0.12962,0.19844 0.338,0.19844 0.20837,0 0.65025,0.38695 0.98196,0.85989 0.64933,0.92581 2.02708,2.31222 2.30518,2.31968 0.0937,0.003 0.43507,0.28378 0.75848,0.62503 0.32341,0.34125 1.10053,0.76395 1.72691,0.93933 0.80037,0.22409 1.32387,0.58882 1.76119,1.22705 0.34226,0.4995 0.72601,0.90818 0.85277,0.90818 0.12677,0 0.46693,0.23645 0.75593,0.52545 0.28899,0.28899 1.00337,0.60187 1.5875,0.69527 0.58413,0.0934 1.06205,0.27368 1.06205,0.4006 0,0.12692 0.1786,0.23077 0.39688,0.23077 0.50711,0 0.50882,0.37146 0.004,0.79072 -0.22714,0.18851 -0.81383,0.27553 -1.38906,0.20602 -0.54771,-0.0662 -1.32529,-0.008 -1.72797,0.13038 -0.53818,0.1843 -0.88864,0.14893 -1.32291,-0.1335 -0.32493,-0.21132 -1.06704,-0.53786 -1.64912,-0.72565 -0.58208,-0.18778 -1.35599,-0.5435 -1.71979,-0.79048 -1.36738,-0.9283 -1.41385,-0.93415 -1.21785,-0.15324 0.18105,0.7214 0.17531,0.72493 -0.88746,0.54537 -0.7051,-0.11912 -1.06969,-0.0826 -1.06969,0.10712 0,0.15831 0.20836,0.2918 0.46302,0.29663 0.67203,0.0128 2.56135,1.38882 2.66813,1.9433 0.0824,0.42768 -0.0562,0.45473 -1.44262,0.28151 l -1.53375,-0.19162 0.45381,0.69259 0.4538,0.6926 -0.86192,-0.16335 c -0.47406,-0.0899 -1.08466,-0.27753 -1.35688,-0.41707 -0.60522,-0.31024 -0.38701,0.16451 0.467,1.01603 0.42308,0.42185 0.68656,0.49749 1.09512,0.31438 0.74078,-0.33201 3.6599,1.28701 3.77701,2.09482 0.11598,0.80005 1.19617,1.87913 2.07858,2.07645 1.68018,0.37571 3.60571,1.32161 3.86968,1.90095 0.14999,0.32919 0.3632,0.59854 0.4738,0.59854 0.1106,0 0.27954,0.35718 0.37543,0.79375 0.0959,0.43656 0.33354,0.79375 0.52814,0.79375 0.19459,0 0.39349,0.0893 0.442,0.19843 0.0485,0.10914 0.58065,0.46633 1.18255,0.79375 1.24521,0.67738 2.94668,0.79495 3.16773,0.2189 0.0795,-0.20703 0.32327,-0.44504 0.54183,-0.52891 0.32088,-0.12313 0.36338,0.002 0.22073,0.65184 -0.2115,0.96295 0.1365,1.45949 1.38996,1.98322 0.68639,0.28679 0.8637,0.49213 0.74579,0.86364 -0.16887,0.53205 1.4042,2.774 2.18519,3.11436 0.2442,0.10642 1.04915,0.22008 1.78878,0.25258 1.37924,0.0606 2.49167,0.47499 2.49167,0.92816 0,0.33978 -0.23928,0.32406 -1.98384,-0.13034 -0.95522,-0.24881 -1.69543,-0.30391 -2.08627,-0.15531 -0.66769,0.25385 -2.52341,-0.43739 -3.47051,-1.29274 -0.4789,-0.4325 -3.04271,-0.99319 -3.04271,-0.66541 0,0.0752 0.54709,0.37114 1.21575,0.65776 0.71293,0.3056 1.27252,0.73819 1.35299,1.04594 0.0755,0.28865 0.56151,0.78702 1.08005,1.1075 0.51855,0.32048 0.79578,0.6317 0.61608,0.6916 -0.17971,0.0599 -0.52821,-0.0664 -0.77445,-0.28059 -0.24624,-0.21422 -0.59654,-0.33558 -0.77844,-0.26969 -0.1819,0.0659 -0.33073,-0.0428 -0.33073,-0.24157 0,-0.25079 -0.41514,-0.37944 -1.35655,-0.4204 -1.18156,-0.0514 -1.3139,-0.008 -1.02594,0.33933 0.18184,0.2191 0.54713,0.39836 0.81177,0.39836 0.26464,0 0.55474,0.11907 0.64468,0.26459 0.0899,0.14552 0.52039,0.26458 0.95657,0.26458 0.5532,0 1.02484,0.25378 1.55946,0.83911 0.42153,0.46152 0.70545,0.93777 0.63093,1.05834 -0.29319,0.47439 -4.33759,-0.051 -4.33759,-0.56347 0,-0.10489 -0.30139,-0.32803 -0.66975,-0.49587 -0.62328,-0.28398 -0.65018,-0.26857 -0.38757,0.22212 0.1552,0.29 0.45068,0.52727 0.65661,0.52727 0.20593,0 0.46963,0.15133 0.586,0.3363 0.34074,0.54158 1.49742,0.93692 2.42519,0.8289 0.64876,-0.0755 1.02204,0.062 1.52021,0.56018 0.36316,0.36317 0.58733,0.77837 0.49815,0.92267 -0.16708,0.27035 -1.2818,0.32085 -1.98301,0.0898 z m -3.70416,-5.64831 c 0,-0.14552 -0.18562,-0.26458 -0.41249,-0.26458 -0.22687,0 -0.33891,0.11906 -0.24897,0.26458 0.0899,0.14552 0.27556,0.26459 0.41249,0.26459 0.13693,0 0.24897,-0.11907 0.24897,-0.26459 z m -1.47284,-0.85989 c -0.14712,-0.36497 -3.34385,-2.84427 -3.66731,-2.84427 -0.11155,0 0.3677,0.59531 1.06501,1.32291 0.69731,0.72761 1.48276,1.32292 1.74545,1.32292 0.26268,0 0.4776,0.11906 0.4776,0.26458 0,0.14552 0.11533,0.26459 0.25628,0.26459 0.14096,0 0.19629,-0.14883 0.12297,-0.33073 z m 7.02909,-0.60603 c 0,-0.26246 -1.15484,-1.70908 -1.36437,-1.70908 -0.27781,0 0.0274,0.81605 0.51955,1.38907 0.38146,0.44414 0.84482,0.61966 0.84482,0.32001 z m -7.01632,-1.98153 c -0.0926,-0.14985 -0.97102,-0.80123 -1.95203,-1.44752 -0.981,-0.64628 -2.00227,-1.41665 -2.26948,-1.71192 -0.26722,-0.29527 -0.5911,-0.53686 -0.71974,-0.53686 -0.12863,0 0.009,0.26058 0.30559,0.57906 0.29672,0.31848 0.53948,0.65588 0.53948,0.74977 0,0.16694 2.25767,1.76054 3.30729,2.33448 0.67376,0.36842 1.00475,0.38226 0.78889,0.033 z m -14.9441,-17.46317 c -0.80036,-0.71969 -1.5445,-1.30985 -1.65364,-1.31146 -0.52714,-0.008 -0.0769,0.73924 0.86615,1.4369 0.57864,0.4281 1.05208,0.87458 1.05208,0.99219 0,0.1176 0.26789,0.20867 0.59531,0.20237 0.50606,-0.01 0.37714,-0.20763 -0.8599,-1.32 z m 1.68377,-0.91598 c -0.0835,-0.21745 -0.25099,-0.33401 -0.37231,-0.25902 -0.12133,0.075 -0.31722,-0.0157 -0.4353,-0.20152 -0.11809,-0.18582 -0.63142,-0.64921 -1.14074,-1.02975 -0.50932,-0.38053 -1.26865,-1.33233 -1.68739,-2.1151 -0.73349,-1.37113 -1.11104,-1.80741 -1.57159,-1.81604 -0.28239,-0.005 0.0375,0.98977 0.4969,1.54559 0.19763,0.2391 0.75111,0.93266 1.22997,1.54125 1.48211,1.88361 3.94008,3.53235 3.48046,2.33459 z m -3.80043,-1.04424 c 0,-0.0642 -0.11907,-0.19026 -0.26459,-0.2802 -0.14552,-0.0899 -0.26458,-0.0374 -0.26458,0.11668 0,0.15411 0.11906,0.2802 0.26458,0.2802 0.14552,0 0.26459,-0.0525 0.26459,-0.11668 z m 8.33437,-0.41249 c -0.0899,-0.14552 -0.28258,-0.26458 -0.4281,-0.26458 -0.14553,0 -0.191,0.11906 -0.10107,0.26458 0.0899,0.14552 0.28259,0.26458 0.42811,0.26458 0.14552,0 0.191,-0.11906 0.10106,-0.26458 z m -7.91051,-5.06884 c -0.23313,-0.33284 -0.42386,-0.51751 -0.42386,-0.4104 0,0.29499 0.62669,1.23657 0.74457,1.11869 0.0567,-0.0567 -0.0876,-0.37546 -0.32071,-0.70829 z m -17.95251,-5.41474 c 2.0503,-0.74411 1.27029,-1.14616 -1.19703,-0.61701 -1.94464,0.41705 -3.50639,0.47741 -4.76623,0.18422 -1.3369,-0.31113 -1.64203,-0.13164 -0.99383,0.58461 0.83726,0.92516 4.19126,0.85197 6.95709,-0.15182 z m -12.1278,38.52188 c 0.70746,-0.60274 1.47832,-0.59692 1.47832,0.0112 0,0.27078 -0.32959,0.41496 -1.05833,0.46297 l -1.05834,0.0697 z m 9.8127,-2.37372 c 0,-0.61439 0.2123,-0.65236 0.86767,-0.15517 0.42299,0.32091 0.42751,0.37378 0.0445,0.52076 -0.70736,0.27144 -0.91217,0.18935 -0.91217,-0.36559 z m 21.56354,-1.94908 c 0.43656,-0.37275 0.9496,-0.682 1.14009,-0.68724 0.19049,-0.005 0.27599,-0.12334 0.19001,-0.26247 -0.086,-0.13913 0.14999,-0.45367 0.52439,-0.69899 0.55237,-0.36193 0.80622,-0.38885 1.34626,-0.14279 0.81671,0.37212 0.59924,0.83016 -0.39415,0.83016 -0.95513,0 -1.19306,0.26084 -0.62009,0.67981 0.65115,0.47613 0.33704,0.65555 -1.43105,0.81741 l -1.54921,0.14183 z m -1.19063,-1.46219 c 0,-0.26384 0.63853,-0.55748 1.21227,-0.55748 0.20638,0 0.37523,0.1786 0.37523,0.39688 0,0.26458 -0.26458,0.39687 -0.79375,0.39687 -0.43656,0 -0.79375,-0.10632 -0.79375,-0.23627 z m -10.18646,-2.1069 -0.79375,-0.43495 0.89354,-0.0854 c 0.95039,-0.0909 1.53098,0.24877 1.23738,0.72382 -0.22101,0.3576 -0.3488,0.33815 -1.33717,-0.20345 z m 13.09688,-0.54517 c 0,-0.44803 1.2121,-1.10632 1.6955,-0.92083 0.81238,0.31175 0.36049,1.02474 -0.70551,1.11317 -0.56012,0.0465 -0.98999,-0.0371 -0.98999,-0.19234 z m -12.16317,-1.07007 c -0.21407,-0.13538 -0.32041,-0.31496 -0.23631,-0.39905 0.20843,-0.20843 1.0224,0.12358 1.0224,0.41702 0,0.30157 -0.29136,0.29491 -0.78609,-0.018 z m -2.52121,-1.06867 c -0.0899,-0.14552 0.0151,-0.26458 0.23336,-0.26458 0.21828,0 0.47046,0.11906 0.56039,0.26458 0.0899,0.14552 -0.0151,0.26458 -0.23335,0.26458 -0.21828,0 -0.47046,-0.11906 -0.5604,-0.26458 z m 1.98438,-0.92604 c -0.34178,-0.3638 -0.53521,-0.66146 -0.42986,-0.66146 0.4039,0 1.75278,0.81969 1.75278,1.06513 0,0.47603 -0.696,0.26365 -1.32292,-0.40367 z m -4.23295,-1.23894 c -6.5e-4,-0.30201 1.02445,-0.52714 1.58712,-0.34856 0.91528,0.2905 0.57527,0.6774 -0.52878,0.6017 -0.58187,-0.0399 -1.05812,-0.15381 -1.05834,-0.25314 z m -7.40872,-1.80377 c 0,-0.31707 0.98193,-0.31707 1.71979,0 0.40983,0.17611 0.27558,0.23158 -0.59531,0.24599 -0.61846,0.0102 -1.12448,-0.10047 -1.12448,-0.24599 z m 5.00504,-0.37166 c -0.0606,-0.0589 -0.5865,-0.18746 -1.16858,-0.2857 -0.58208,-0.0983 -1.1774,-0.2015 -1.32292,-0.22946 -0.66869,-0.12848 -0.44099,-0.57689 0.33073,-0.6513 0.53116,-0.0512 0.8599,0.0365 0.8599,0.2293 0,0.17352 0.21746,0.25534 0.48955,0.18418 0.26926,-0.0704 0.77527,0.0917 1.12448,0.36014 0.46469,0.35727 0.52261,0.48973 0.216,0.49403 -0.2304,0.003 -0.46853,-0.0423 -0.52916,-0.10119 z m 9.66846,-0.70428 c -0.0959,-0.1552 -0.11087,-0.34572 -0.0332,-0.42337 0.18952,-0.18952 0.70556,0.14442 0.70556,0.45659 0,0.33813 -0.45678,0.31556 -0.67234,-0.0332 z m 1.20468,-1.3329 c -1.27315,-1.23555 -2.77691,-1.9765 -4.78369,-2.35708 -1.52895,-0.28996 -2.26453,-0.73028 -1.87339,-1.12143 0.15387,-0.15387 0.72208,-0.0378 1.50006,0.30629 0.6888,0.30469 1.44558,0.55514 1.68175,0.55656 0.89164,0.005 3.11898,1.30358 4.25478,2.47992 1.50025,1.55379 0.80622,1.67465 -0.77951,0.13574 z m -9.39589,0.52653 c -0.87312,-0.12665 -1.73632,-0.28699 -1.91823,-0.35631 -0.58463,-0.22277 -0.35259,-0.6718 0.34717,-0.6718 0.89806,0 3.29086,0.79167 3.29086,1.08879 0,0.12877 -0.0298,0.21961 -0.0661,0.20187 -0.0364,-0.0178 -0.78052,-0.13589 -1.65365,-0.26255 z m 7.41964,0.0485 c -0.0837,-0.13547 -0.0312,-0.32109 0.11667,-0.41249 0.1479,-0.0914 0.2689,0.0194 0.2689,0.2463 0,0.46475 -0.15876,0.53318 -0.38557,0.16619 z m -3.1863,-1.3412 c 0.0899,-0.14552 0.21602,-0.26458 0.2802,-0.26458 0.0642,0 0.11667,0.11906 0.11667,0.26458 0,0.14552 -0.12609,0.26458 -0.2802,0.26458 -0.15411,0 -0.20661,-0.11906 -0.11667,-0.26458 z m -2.35981,-0.35613 c -0.71581,-0.16793 -1.35497,-0.46665 -1.42037,-0.66382 -0.0813,-0.24505 0.0375,-0.31283 0.37544,-0.21419 0.27187,0.0794 1.00034,0.27505 1.6188,0.43484 0.61846,0.15979 1.12448,0.405 1.12448,0.54491 0,0.29669 -4e-5,0.29669 -1.69835,-0.10174 z m 11.62364,-0.62437 c -0.86215,-0.53927 -1.77709,-1.19005 -2.03321,-1.44617 -0.25612,-0.25612 -1.03529,-0.7579 -1.73148,-1.11506 -2.65312,-1.36112 -2.85611,-2.04289 -0.25667,-0.86205 0.75466,0.34281 1.82763,0.70709 2.38438,0.8095 0.82758,0.15224 1.08177,0.35254 1.39316,1.0978 0.20949,0.50138 0.87316,1.2682 1.47482,1.70404 1.55075,1.12335 0.64414,0.98485 -1.231,-0.18806 z m -22.88987,-1.05919 c 0,-0.39865 1.18376,-1.39989 1.65508,-1.39989 0.96902,0 0.6992,1.0276 -0.33847,1.28902 -0.21481,0.0541 -0.59893,0.15731 -0.85359,0.2293 -0.25467,0.072 -0.46302,0.0187 -0.46302,-0.11843 z m 41.32771,-0.35178 c -1.02594,-0.22675 -1.22679,-0.3822 -0.98964,-0.76593 0.26223,-0.42429 1.61865,-0.33909 2.00456,0.12591 0.48037,0.57881 0.0204,0.86885 -1.01492,0.64002 z m -17.7798,-0.78353 c -0.3638,-0.28457 -0.80226,-0.52005 -0.97436,-0.52328 -0.31818,-0.006 -0.76042,-1.00513 -0.5417,-1.22385 0.0659,-0.0659 0.40416,-0.0116 0.75176,0.12053 0.34761,0.13216 0.69154,0.23443 0.7643,0.22728 0.52448,-0.0516 1.32292,0.71873 1.32292,1.27634 0,0.78243 -0.42889,0.8223 -1.32292,0.12298 z m 21.915,0.26758 c -1.59951,-0.47683 -1.50588,-1.12491 0.20902,-1.44662 1.19645,-0.22446 2.50463,0.48812 1.91749,1.04448 -0.52123,0.4939 -1.3151,0.64402 -2.12651,0.40214 z m -46.73151,-1.68964 c 0.18687,-0.20004 0.48922,-0.30637 0.67189,-0.23627 0.18267,0.0701 0.33212,-0.0353 0.33212,-0.23409 0,-0.19885 0.26789,-0.52887 0.59531,-0.73337 0.77137,-0.4818 1.85118,-0.60636 1.70614,-0.19681 -0.0602,0.16998 -0.30499,0.29252 -0.54399,0.27231 -0.239,-0.0202 -0.43454,0.10295 -0.43454,0.27368 0,0.4124 -1.3903,1.21828 -2.10178,1.21828 -0.46765,0 -0.50641,-0.0626 -0.22515,-0.36373 z m 37.1437,-0.0281 c -1.08851,-0.38788 -2.22673,-1.33021 -1.94591,-1.61103 0.091,-0.091 0.95516,0.0147 1.9204,0.2349 1.50491,0.34327 1.77543,0.34704 1.89845,0.0265 0.11007,-0.28683 0.61498,-0.35595 2.16888,-0.29693 2.24936,0.0855 2.68099,0.24493 2.68099,0.99063 0,0.57396 -0.97232,0.93011 -1.81185,0.66365 -0.28992,-0.092 -0.79579,-0.21904 -1.12415,-0.28228 -0.32837,-0.0632 -0.71888,-0.23683 -0.8678,-0.38575 -0.46972,-0.46972 -0.71029,-0.29508 -0.53818,0.39068 0.14848,0.59159 0.0861,0.66023 -0.59027,0.64984 -0.41596,-0.006 -1.22171,-0.17746 -1.79056,-0.38016 z m -36.91917,-1.9055 c 0.0183,-0.27807 3.07766,-2.46522 3.44827,-2.46522 0.62481,0 0.0428,0.86147 -0.949,1.4047 -0.58208,0.31882 -1.11786,0.65292 -1.19062,0.74245 -0.22696,0.27925 -1.32367,0.54581 -1.30865,0.31807 z m 10.56907,-0.85032 c 0,-0.49804 1.27944,-0.97045 1.64318,-0.60672 0.39105,0.39105 0.23625,0.53416 -0.80258,0.74193 -0.55336,0.11067 -0.8406,0.0645 -0.8406,-0.13521 z m -11.1125,-1.63551 c 0,-0.14772 0.37583,-0.47141 0.83518,-0.7193 0.45936,-0.2479 1.0249,-0.64355 1.25677,-0.87924 1.10853,-1.12677 1.93275,-2.11726 1.83948,-2.21053 -0.0568,-0.0568 -1.04347,0.0135 -2.19267,0.1562 -1.14921,0.14268 -2.33798,0.2239 -2.64172,0.18051 -0.89779,-0.12828 -0.50329,-0.54509 0.57168,-0.604 1.32729,-0.0727 4.89868,-0.89984 5.20843,-1.20621 0.37385,-0.36978 -0.0488,-0.63711 -0.46333,-0.29307 -0.19881,0.16499 -0.43694,0.22452 -0.52917,0.13229 -0.0922,-0.0922 -0.3399,-0.0248 -0.55036,0.14988 -0.25093,0.20825 -0.77684,0.25508 -1.52774,0.13603 -0.62981,-0.0999 -2.24642,-0.17652 -3.59249,-0.17039 -1.34607,0.006 -2.4474,-0.0954 -2.4474,-0.22558 0,-0.52807 3.01478,-0.78853 5.29167,-0.45717 0.91886,0.13372 2.0647,0.0961 3.10885,-0.10206 1.41431,-0.26841 1.65365,-0.39562 1.65365,-0.87889 0,-0.5471 -0.0484,-0.5553 -1.52136,-0.25813 -1.21317,0.24475 -1.84077,0.23306 -3.0982,-0.0577 -0.86726,-0.20056 -2.22405,-0.33045 -3.01509,-0.28864 -0.93186,0.0493 -1.47702,-0.0344 -1.5484,-0.23776 -0.1662,-0.47338 1.58353,-0.52979 4.15368,-0.13391 1.65666,0.25518 2.53861,0.27255 3.35831,0.0661 1.5961,-0.40191 2.72939,-0.35982 2.72939,0.10134 0,0.2097 -0.1371,0.466 -0.30466,0.56956 -0.21273,0.13147 -0.16481,0.29056 0.15878,0.52717 0.50926,0.37238 0.34338,0.90326 -0.28222,0.90326 -0.21828,0 -0.32329,0.11907 -0.23336,0.26459 0.0899,0.14552 0.39462,0.26458 0.67708,0.26458 0.28245,0 0.51355,0.10632 0.51355,0.23628 0,0.289 -0.65492,0.55747 -1.3599,0.55747 -0.49775,0 -2.44345,1.78243 -3.00573,2.75351 -0.14552,0.25132 -0.62177,0.65733 -1.05833,0.90224 -0.43656,0.24491 -0.85328,0.51351 -0.92604,0.59688 -0.27547,0.31566 -1.05833,0.48186 -1.05833,0.22468 z m 14.02291,-0.75156 c 0,-0.13366 0.4137,-0.49868 0.91932,-0.81118 0.89475,-0.55298 0.93695,-0.55533 1.57919,-0.0877 0.91281,0.66461 0.8379,0.93177 -0.23536,0.8393 -0.50152,-0.0432 -0.99761,0.007 -1.10243,0.11202 -0.27479,0.27479 -1.16072,0.23478 -1.16072,-0.0524 z m -15.14739,-0.19681 c 0.1819,-0.0734 0.47955,-0.0734 0.66145,0 0.18191,0.0734 0.0331,0.13345 -0.33072,0.13345 -0.36381,0 -0.51263,-0.06 -0.33073,-0.13345 z m 13.36145,-0.54135 c -0.45773,-0.16784 -0.41694,-0.87092 0.0505,-0.87092 0.48125,0 0.81071,0.50778 0.50849,0.78373 -0.12556,0.11465 -0.37712,0.15388 -0.55903,0.0872 z m -14.61822,-0.87092 c -0.23847,-0.15411 -0.27111,-0.2581 -0.0818,-0.26054 0.17332,-0.002 0.3887,0.11502 0.47864,0.26054 0.20302,0.32848 0.11142,0.32848 -0.39687,0 z m 15.61041,-0.7661 c 0,-0.13032 0.49482,-0.48175 1.0996,-0.78098 0.80959,-0.40055 1.22829,-0.47517 1.5875,-0.28292 0.62731,0.33572 0.61924,0.68276 -0.0239,1.02694 -0.62731,0.33572 -2.66323,0.36398 -2.66323,0.037 z m -19.64089,-0.59404 c -0.28298,-0.17586 0.0983,-0.32675 1.57713,-0.6242 0.91089,-0.18322 1.92418,0.0228 1.92418,0.39117 0,0.26787 -3.11195,0.47499 -3.50131,0.23303 z m 3.76589,-0.24298 c 0,-0.15411 0.11906,-0.20661 0.26459,-0.11667 0.14552,0.0899 0.26458,0.21602 0.26458,0.28019 0,0.0642 -0.11906,0.11668 -0.26458,0.11668 -0.14553,0 -0.26459,-0.12609 -0.26459,-0.2802 z m -4.59385,-4.68806 c -0.21671,-0.35064 1.62853,-0.91819 3.26,-1.00269 3.04227,-0.15758 5.82344,-0.15084 6.09137,0.0147 0.15276,0.0944 1.17491,0.17517 2.27143,0.17947 1.3575,0.005 1.96198,0.1029 1.89435,0.30579 -0.13336,0.40009 -1.83202,0.72968 -2.19748,0.42638 -0.15987,-0.13268 -2.00648,-0.28931 -4.10356,-0.34806 -3.35172,-0.0939 -5.04989,0.0388 -6.63489,0.5183 -0.24241,0.0733 -0.50396,0.0311 -0.58122,-0.0939 z m -0.43323,-2.27692 c 0,-0.23488 1.07042,-0.35765 1.20598,-0.13831 0.0815,0.13186 -0.15652,0.23974 -0.52891,0.23974 -0.37239,0 -0.67707,-0.0456 -0.67707,-0.10143 z m -22.82031,-3.53877 c -0.7492,-0.4645 -0.99983,-1.38688 -0.37685,-1.38688 0.33763,0 1.22127,0.83505 1.60987,1.52135 0.26641,0.4705 -0.36906,0.40119 -1.23302,-0.13447 z m 2.84427,0.0575 c -1.19302,-0.59476 -2.97991,-2.30004 -3.85346,-3.67748 -0.9521,-1.50131 -0.97514,-1.83522 -0.11529,-1.67085 0.74589,0.14259 0.85528,-0.17331 0.26458,-0.76401 -0.21828,-0.21828 -0.39687,-0.61947 -0.39687,-0.89153 0,-0.27206 -0.11907,-0.56823 -0.26459,-0.65817 -0.35344,-0.21844 -0.33899,-0.92604 0.0189,-0.92604 0.36199,0 0.86602,0.50451 1.28367,1.28489 0.18029,0.33688 0.37869,0.56163 0.44088,0.49943 0.2862,-0.28619 -1.85073,-3.75359 -3.0112,-4.88599 -1.96805,-1.92044 -2.701,-3.03324 -2.701,-4.10081 0,-0.51415 0.1786,-1.08303 0.39688,-1.26419 0.58286,-0.48373 0.49824,-0.83641 -0.52917,-2.20554 -0.50932,-0.67872 -1.34276,-1.78936 -1.85208,-2.46809 -0.78544,-1.04667 -0.92604,-1.44604 -0.92604,-2.63022 0,-0.76789 0.11906,-1.46975 0.26458,-1.55969 0.47003,-0.2905 0.28428,-0.8524 -0.65242,-1.97356 -0.50435,-0.60366 -1.12116,-1.74523 -1.37068,-2.53682 -0.44891,-1.42411 -0.44752,-1.4458 0.13206,-2.06274 0.48884,-0.52034 0.52527,-0.6737 0.22017,-0.9269 -0.28474,-0.23632 -0.53363,-0.15899 -1.12566,0.34973 -0.42018,0.36105 -1.2715,0.72982 -1.90366,0.82461 -1.21386,0.18203 -1.39875,0.65375 -0.31422,0.80165 2.10561,0.28715 2.54386,0.70761 1.19987,1.15117 -1.09459,0.36125 -1.02873,0.63141 0.30993,1.27144 0.52409,0.25057 0.99537,0.58702 1.04729,0.74767 0.0993,0.3073 -2.19144,0.63627 -4.39451,0.63109 -2.19939,-0.005 -4.78984,-1.07681 -4.78984,-1.98151 0,-0.17317 -0.22521,-0.51867 -0.50046,-0.76777 -0.29746,-0.2692 -0.44593,-0.66147 -0.36602,-0.96705 0.0793,-0.30336 10e-4,-0.51414 -0.19102,-0.51414 -0.33352,0 -0.26963,-1.00167 0.12235,-1.91822 0.36476,-0.85291 -0.27752,-0.47583 -2.02799,1.19062 -1.78164,1.69612 -2.7119,3.31168 -2.5138,4.36562 0.0615,0.32743 0.0355,0.59532 -0.058,0.59532 -0.16573,0 -0.84259,1.45717 -0.92175,1.98437 -0.0399,0.26595 -1.05818,2.33923 -1.75426,3.57188 -1.02404,1.81343 -1.6743,2.61247 -2.24196,2.75495 -0.34338,0.0862 -0.69606,0.38271 -0.78374,0.65894 -0.17541,0.55268 -1.03426,0.87147 -2.65398,0.98513 -3.88835,0.27286 -6.25156,1.83601 -7.9146,5.23515 -0.93652,1.91418 -3.10841,3.60866 -5.16242,4.02764 -1.76934,0.36091 -3.32216,1.28847 -3.76849,2.25105 -0.18343,0.39562 -0.474,0.64186 -0.66906,0.567 -0.18964,-0.0728 -0.34481,0.005 -0.34481,0.17327 0,0.16807 -0.32742,0.5998 -0.7276,0.95941 l -0.7276,0.65382 0.79375,-0.3208 c 0.43656,-0.17644 0.98171,-0.47637 1.21145,-0.66651 0.22974,-0.19015 0.55717,-0.34572 0.72761,-0.34572 0.17044,0 0.30989,-0.10632 0.30989,-0.23628 0,-0.28089 0.80991,-0.62951 1.00628,-0.43314 0.20882,0.20882 -1.72075,1.99234 -2.15548,1.99234 -0.20992,0 -0.45021,0.17859 -0.53398,0.39687 -0.0838,0.21828 -0.44095,0.39688 -0.79375,0.39688 -0.3528,0 -0.70412,0.1633 -0.7807,0.36289 -0.14085,0.36703 -3.51926,1.15049 -3.79069,0.87907 -0.0799,-0.08 0.31236,-0.39071 0.87179,-0.69058 l 1.01716,-0.54521 -1.5875,0.13111 -1.5875,0.13111 0.92604,-0.51998 c 0.50932,-0.28599 1.08975,-0.52497 1.28983,-0.53107 0.70032,-0.0213 3.47267,-1.40942 3.47267,-1.73871 0,-0.18284 0.18093,-0.40187 0.40208,-0.48673 0.22114,-0.0849 0.64962,-0.57384 0.95217,-1.08664 0.30256,-0.51279 0.66879,-0.93235 0.81385,-0.93235 0.14507,0 0.62834,-0.2596 1.07394,-0.5769 0.44561,-0.3173 1.17836,-0.61659 1.62835,-0.66509 1.32413,-0.14271 4.12544,-1.71683 4.12544,-2.31817 0,-0.0924 0.29915,-0.46721 0.66478,-0.83283 0.36563,-0.36563 0.96351,-1.2543 1.32863,-1.97483 1.07863,-2.12858 3.26371,-3.51592 6.24942,-3.96787 1.85105,-0.28018 3.35181,-0.94263 4.59625,-2.02881 0.72302,-0.63107 2.24217,-2.91833 2.24217,-3.37585 0,-0.2024 0.10996,-0.43596 0.24436,-0.51902 0.24892,-0.15384 0.99988,-2.22775 1.15418,-3.1875 0.1484,-0.92304 1.01789,-3.30729 1.2061,-3.30729 0.0995,0 0.46115,-0.44649 0.80372,-0.99219 0.8005,-1.27514 3.55852,-2.66361 5.37502,-2.70595 1.23077,-0.0287 4.04048,0.63377 4.60778,1.08639 0.45818,0.36556 2.53759,0.0101 3.33303,-0.56981 0.39429,-0.28743 0.83085,-0.52261 0.97013,-0.52261 0.13929,0 0.29504,-0.12536 0.34611,-0.27858 0.11989,-0.35967 2.04186,-0.80333 2.72936,-0.63003 2.14941,0.5418 2.74767,0.84246 3.77032,1.89487 0.68717,0.70717 1.12448,1.40339 1.12448,1.79026 0,0.34818 0.25277,0.81011 0.56172,1.02651 0.30895,0.21639 0.69802,0.66963 0.8646,1.00719 0.16657,0.33756 0.56864,0.73127 0.89348,0.87492 0.32484,0.14364 0.59061,0.37916 0.59061,0.52337 0,0.14421 0.4573,0.68153 1.01623,1.19403 0.67154,0.61577 1.21107,1.47029 1.59067,2.51934 0.55169,1.52463 1.28364,3.02912 1.60904,3.30729 0.0851,0.0728 0.39174,0.59094 0.68139,1.15151 0.28965,0.56057 0.79452,1.23255 1.12194,1.49328 0.32743,0.26074 0.59532,0.56141 0.59532,0.66815 0,0.28599 3.72534,4.62456 3.97091,4.62456 0.11523,0 0.60836,0.39087 1.09586,0.8686 1.90123,1.86317 5.884,4.36962 6.18065,3.88963 0.0755,-0.12222 -0.0915,-0.29485 -0.37122,-0.38363 -0.52306,-0.16601 -0.9516,-0.89366 -0.68394,-1.16131 0.0828,-0.0828 0.38112,-0.007 0.66293,0.16943 1.13615,0.70954 3.44755,1.42205 6.11143,1.88392 2.47591,0.42927 2.98111,0.61224 4.23334,1.53321 0.78205,0.57518 2.28511,1.44825 3.34014,1.94016 2.01983,0.94174 2.50488,1.48009 1.05833,1.1746 -0.97627,-0.20617 -5.15388,-2.17632 -5.37564,-2.53514 -0.0801,-0.12965 -0.36687,-0.23572 -0.63719,-0.23572 -0.27033,0 -0.53119,-0.10065 -0.5797,-0.22365 -0.0485,-0.12301 -0.42525,-0.30629 -0.83721,-0.40729 -0.62497,-0.15323 -0.73412,-0.10634 -0.65911,0.28315 0.0494,0.25673 0.32735,0.58884 0.61758,0.73802 0.29023,0.14917 1.25725,0.71771 2.14894,1.26341 0.89168,0.54571 1.75449,0.99219 1.91736,0.99219 0.16287,0 0.29612,0.11906 0.29612,0.26458 0,0.43238 -1.00694,0.3025 -2.19559,-0.28319 -1.41717,-0.69829 -3.52976,-1.47282 -4.55129,-1.66863 -0.43656,-0.0837 0.33735,0.42246 1.7198,1.12475 1.38244,0.7023 2.60283,1.2282 2.71197,1.16867 0.10915,-0.0595 0.34727,-0.0119 0.52917,0.10581 0.1819,0.11773 0.91719,0.33311 1.63396,0.47864 0.71678,0.14552 1.34817,0.40256 1.40308,0.57121 0.17956,0.55143 -1.3709,0.66254 -2.72924,0.19558 -1.47001,-0.50534 -4.69636,-0.62094 -7.84842,-0.2812 -1.3569,0.14625 -2.05052,0.1301 -2.05052,-0.0477 0,-0.14782 0.25856,-0.30681 0.57458,-0.35331 0.31603,-0.0465 0.62993,-0.25235 0.69756,-0.45744 0.0847,-0.25678 -0.0126,-0.32088 -0.3123,-0.20585 -0.2394,0.0919 -0.76166,0.0345 -1.16058,-0.12756 -0.39892,-0.16202 -0.9039,-0.31526 -1.12218,-0.34053 -1.13951,-0.13193 -3.04627,-0.87378 -3.52684,-1.37216 -0.30065,-0.31181 -0.70167,-0.50743 -0.89115,-0.43472 -0.18948,0.0727 -0.34451,4e-4 -0.34451,-0.16069 0,-0.16109 -0.19123,-0.29289 -0.42495,-0.29289 -0.23372,0 -0.87593,-0.35718 -1.42713,-0.79375 -0.55121,-0.43656 -1.13288,-0.79375 -1.29261,-0.79375 -0.15972,0 -0.43912,-0.23812 -0.62088,-0.52916 -0.39593,-0.63398 -0.99693,-0.69798 -0.99693,-0.10616 0,0.5052 1.24183,1.7158 2.21483,2.15913 0.38257,0.17431 0.69559,0.43855 0.69559,0.58719 0,0.14864 0.16717,0.27025 0.3715,0.27025 0.20432,0 1.37648,0.51707 2.60479,1.14904 1.22831,0.63197 2.51445,1.22256 2.85809,1.31242 0.34364,0.0899 0.56535,0.22283 0.4927,0.29549 -0.25918,0.25917 -3.4921,-0.65911 -5.36182,-1.52297 -1.04608,-0.48332 -2.332,-1.25634 -2.8576,-1.71783 -0.96958,-0.8513 -1.54725,-1.06225 -1.54725,-0.56503 0,0.15073 0.26789,0.51722 0.59532,0.81443 0.5234,0.4751 1.22435,0.93801 4.52087,2.98555 1.12806,0.70066 0.70204,0.76365 -0.90749,0.13418 -2.39184,-0.93542 -4.152,-1.84601 -4.88947,-2.52948 -0.38557,-0.35733 -0.75064,-0.60007 -0.81128,-0.53944 -0.26466,0.26466 0.47386,1.51983 1.14951,1.95367 0.82006,0.52656 0.97555,0.64218 1.93004,1.43513 0.3638,0.30223 0.98888,0.7198 1.38907,0.92793 0.40018,0.20813 0.7276,0.49543 0.7276,0.63845 0,0.16802 -0.16383,0.17016 -0.46302,0.006 -0.25466,-0.1397 -0.93927,-0.46105 -1.52136,-0.71409 -1.94376,-0.84502 -4.48758,-2.53657 -5.46833,-3.63626 -0.53373,-0.59846 -1.05644,-1.00208 -1.16158,-0.89694 -0.10515,0.10514 0.24822,0.70033 0.78526,1.32264 0.53703,0.62231 1.06684,1.25053 1.17736,1.39605 0.11051,0.14552 0.84868,0.82723 1.64036,1.5149 0.99691,0.86594 1.29174,1.2523 0.95902,1.25677 -0.26423,0.004 -0.74048,-0.1322 -1.05833,-0.30167 -0.85065,-0.45353 -4.09576,-3.113 -4.24462,-3.47859 -0.0981,-0.24094 -0.13286,-0.24035 -0.14887,0.003 -0.0115,0.17427 0.75302,1.12579 1.6989,2.11449 2.10099,2.19609 2.14878,2.33393 0.52917,1.52652 z m 20.04171,-3.09289 c 0.7434,0 1.20275,-0.0993 1.07065,-0.23137 -0.4229,-0.42291 -4.65144,-1.55966 -5.80169,-1.55966 -0.77799,0 -1.81946,-0.3306 -3.32681,-1.05605 -1.20685,-0.58083 -2.29617,-1.05708 -2.4207,-1.05834 -0.4161,-0.004 1.40044,1.52314 2.48213,2.08695 0.58733,0.30614 1.36187,0.55661 1.72119,0.55661 0.35932,0 0.65331,0.11447 0.65331,0.25439 0,0.13991 0.44648,0.378 0.99219,0.52909 0.5457,0.15109 1.17078,0.3936 1.38906,0.5389 0.21828,0.1453 0.74377,0.19112 1.16776,0.10183 0.42399,-0.0893 1.3568,-0.16235 2.07291,-0.16235 z m -22.68755,-1.52644 c -0.0899,-0.14552 -0.30532,-0.26276 -0.47863,-0.26053 -0.18934,0.002 -0.15671,0.10642 0.0818,0.26053 0.5083,0.32848 0.59989,0.32848 0.39687,0 z m 4.36563,-1.0488 c 0,-0.14027 -0.41212,-0.53508 -0.91581,-0.87735 -0.84982,-0.57747 -2.20864,-2.0426 -1.89438,-2.0426 0.10882,0 -2.24976,-3.747 -2.65083,-4.21129 -0.0524,-0.0606 -0.16428,-0.0412 -0.24866,0.0432 -0.0844,0.0844 0.0484,0.46142 0.29501,0.83785 0.24665,0.37643 0.38091,0.68441 0.29837,0.68441 -0.0825,0 0.1851,0.67329 0.59475,1.49619 0.51902,1.04261 1.25712,1.92308 2.43474,2.90435 1.70241,1.41857 2.08681,1.63321 2.08681,1.16525 z m 6.62458,-2.40154 c -0.50383,-0.43065 -1.03511,-0.783 -1.18063,-0.783 -0.14552,0 0.14763,0.35235 0.65146,0.783 0.50383,0.43065 1.03511,0.783 1.18063,0.783 0.14552,0 -0.14764,-0.35235 -0.65146,-0.783 z m -6.87832,-0.76776 c -0.31682,-0.44494 -0.69084,-0.80899 -0.83114,-0.80899 -0.1403,0 -0.34055,-0.20836 -0.445,-0.46302 -0.30653,-0.74735 -2.20214,-3.24114 -2.46369,-3.24114 -0.64646,0 0.48563,2.02541 1.78374,3.19128 0.41504,0.37276 1.0856,1.07366 1.49012,1.55756 0.89802,1.07423 1.26614,0.88803 0.46597,-0.23569 z m 8.19124,-0.80219 c 0,-0.14179 -0.38695,-0.45459 -0.8599,-0.69512 l -0.85989,-0.43734 0.64143,0.69513 c 0.66243,0.71787 1.07836,0.88655 1.07836,0.43733 z m -1.85208,-1.5943 c 0,-0.14552 -0.11907,-0.26458 -0.26459,-0.26458 -0.14552,0 -0.26458,0.11906 -0.26458,0.26458 0,0.14552 0.11906,0.26459 0.26458,0.26459 0.14552,0 0.26459,-0.11907 0.26459,-0.26459 z m -8.37537,-3.05412 c -0.0862,-0.22455 -0.21342,-0.35154 -0.28277,-0.28218 -0.0694,0.0693 -0.0476,0.25308 0.0483,0.40828 0.26089,0.42214 0.41338,0.34013 0.23447,-0.1261 z m -3.175,-1.5875 c -0.0862,-0.22455 -0.21342,-0.35154 -0.28277,-0.28218 -0.0694,0.0694 -0.0476,0.25308 0.0483,0.40828 0.26089,0.42214 0.41338,0.34013 0.23447,-0.1261 z m 0.77124,-2.44445 c -0.095,-0.25 -0.32716,-0.75221 -0.51598,-1.11601 -0.18881,-0.3638 -0.34403,-0.79571 -0.34493,-0.95979 -9e-4,-0.16408 -0.17413,-0.4415 -0.38497,-0.61648 -0.21084,-0.17498 -0.52348,-0.74277 -0.69476,-1.26176 -0.35711,-1.08205 -2.07371,-3.70415 -2.54645,-3.88968 -0.48835,-0.19166 -0.0651,0.7036 0.57067,1.20706 0.6247,0.49469 1.79881,2.94141 2.30004,4.79305 0.18711,0.69122 0.43621,1.25677 0.55357,1.25677 0.11735,0 0.32926,0.30482 0.47091,0.67738 0.14164,0.37256 0.37162,0.60687 0.51106,0.52069 0.13944,-0.0862 0.17582,-0.36123 0.0808,-0.61123 z m -3.25677,-3.07858 c -0.46128,-0.68349 -0.9065,-1.1749 -0.98937,-1.09202 -0.0829,0.0829 0.092,0.47894 0.38863,0.88015 0.29663,0.40121 0.62742,1.00704 0.73509,1.3463 0.12523,0.39455 0.28741,0.5252 0.45006,0.36255 0.16265,-0.16265 -0.048,-0.70209 -0.58441,-1.49698 z m 5.48539,-0.73287 c -0.0845,-0.21107 -0.14716,-0.14837 -0.15986,0.15985 -0.0115,0.27892 0.051,0.43518 0.13897,0.34727 0.0879,-0.0879 0.0973,-0.31613 0.0209,-0.50712 z m -3.09116,-1.95711 c 0,-0.17936 -2.41321,-3.28495 -2.55257,-3.28495 -0.40065,0 0.0897,0.94096 0.96507,1.85208 0.58208,0.60584 1.05833,1.21086 1.05833,1.34451 0,0.13365 0.11907,0.24299 0.26459,0.24299 0.14552,0 0.26458,-0.0696 0.26458,-0.15463 z m 1.86421,-0.61646 c -0.16243,-0.3035 -0.43997,-0.55 -0.61675,-0.54777 -0.2183,0.003 -0.23034,0.0664 -0.0375,0.19844 0.15614,0.10691 0.3673,0.41978 0.46925,0.69527 0.10195,0.27549 0.25174,0.43452 0.33287,0.35339 0.0811,-0.0811 0.0146,-0.39582 -0.14783,-0.69933 z m -5.35768,-6.36062 c -0.17763,-0.28443 -0.36003,-0.48006 -0.40535,-0.43475 -0.15683,0.15684 0.25225,0.95188 0.48979,0.95188 0.13118,0 0.0932,-0.23271 -0.0844,-0.51713 z m 23.45908,31.22567 c 0.0957,-0.1548 0.39513,-0.28146 0.66546,-0.28146 0.27032,0 0.54607,-0.14882 0.61277,-0.33073 0.0962,-0.2623 0.19288,-0.26321 0.46743,-0.004 0.43895,0.4138 0.34493,0.48825 -0.90138,0.71379 -0.69332,0.12547 -0.96272,0.0945 -0.84428,-0.0972 z m 2.25939,-0.32429 c 0,-0.23481 0.66674,-0.54089 1.83232,-0.84115 1.54478,-0.39794 2.00152,-0.42132 2.91042,-0.14901 0.59295,0.17765 1.07809,0.40539 1.07809,0.50609 0,0.10069 -1.04179,0.26031 -2.3151,0.35471 -1.27331,0.0944 -2.583,0.24517 -2.91042,0.33506 -0.41099,0.11283 -0.59531,0.0491 -0.59531,-0.2057 z m -23.77194,-0.69221 c -0.46964,-0.25187 -1.23644,-0.82277 -1.704,-1.26867 -1.15439,-1.10091 -2.76122,-2.04154 -3.1145,-1.8232 -0.26485,0.16368 -1.30748,-0.69466 -1.30748,-1.07639 0,-0.29053 1.95645,0.0413 3.00516,0.50964 1.08087,0.48275 1.65813,0.40906 0.72167,-0.0921 -1.35937,-0.72751 -0.21135,-1.07881 1.36842,-0.41874 1.03903,0.43414 2.96501,2.8801 2.73656,3.47541 -0.21139,0.55087 -0.95264,0.44896 -0.95264,-0.13097 0,-0.27596 -0.42086,-0.87128 -0.93525,-1.32291 -1.07512,-0.94397 -1.18142,-0.97907 -1.18142,-0.39008 0,0.2371 0.55716,0.94994 1.23814,1.58409 1.37475,1.28023 1.42335,1.65008 0.12534,0.95395 z m -7.58119,-0.40087 c -2.07475,-1.07696 -2.75963,-1.35202 -2.93351,-1.17814 -0.27006,0.27006 -1.7446,-0.58436 -1.62674,-0.94261 0.057,-0.17337 0.66205,-0.35159 1.34447,-0.39604 0.92113,-0.06 1.43752,0.0593 2.00453,0.46302 0.42008,0.29912 0.88364,0.54385 1.03014,0.54385 0.31216,0 1.63632,1.5152 1.63632,1.87238 0,0.33273 -0.22287,0.27722 -1.45521,-0.36246 z m 3.89287,-0.17656 c -0.59754,-0.43285 -1.39046,-0.86331 -1.76205,-0.95657 -0.37158,-0.0933 -0.67561,-0.28961 -0.67561,-0.43633 0,-0.14672 -0.20836,-0.2136 -0.46302,-0.14862 -0.55752,0.14225 -2.89972,-1.17833 -2.71198,-1.52907 0.2219,-0.41454 2.10428,-0.17474 3.22862,0.4113 1.8592,0.96907 3.96749,2.94927 3.56673,3.35002 -0.0529,0.053 -0.58516,-0.25788 -1.18269,-0.69073 z m -8.65537,0.10015 c -0.43656,-0.22843 -1.1807,-0.37066 -1.65364,-0.31608 -0.47294,0.0546 -0.8599,0.0152 -0.8599,-0.0874 0,-0.10268 -0.23791,-0.12447 -0.5287,-0.0484 -0.55607,0.14541 -1.85255,-0.54577 -1.85255,-0.98765 0,-0.14217 0.7311,-0.25848 1.62467,-0.25848 1.76868,0 3.58292,0.70386 4.14848,1.60946 0.38385,0.61464 0.16849,0.63637 -0.87836,0.0886 z M 37.9677,129.13797 c 0.18116,-0.21829 0.45131,-0.39688 0.60033,-0.39688 0.41005,0 3.18759,-1.88655 3.58292,-2.43358 0.469,-0.64896 1.90969,-1.3689 2.18614,-1.09245 0.31204,0.31204 0.007,0.67911 -1.14387,1.37876 -0.5457,0.33161 -0.99218,0.6951 -0.99218,0.80775 0,0.25113 -3.71151,2.13327 -4.20673,2.13327 -0.28643,0 -0.29163,-0.0775 -0.0266,-0.39687 z m 20.57136,0.24513 c -0.10914,-0.11057 -0.19844,-0.37527 -0.19844,-0.58822 0,-0.30301 0.26171,-0.35769 1.20369,-0.25152 1.89353,0.21343 1.99755,0.66828 0.20722,0.90608 -0.55772,0.0741 -1.10333,0.0442 -1.21247,-0.0663 z m -16.44683,-0.44357 c 0.23975,-0.56975 3.33238,-2.84427 3.86731,-2.84427 0.28029,0 0.73747,-0.12195 1.01596,-0.27099 0.62102,-0.33236 1.84012,-0.0626 1.84012,0.40713 0,0.20971 -0.49671,0.41168 -1.27605,0.51887 -0.70183,0.0965 -1.56503,0.33686 -1.91823,0.53408 -0.3532,0.19722 -1.13283,0.59218 -1.73251,0.87768 -0.59969,0.2855 -1.17226,0.65165 -1.27239,0.81366 -0.24987,0.4043 -0.69658,0.37348 -0.52421,-0.0362 z m 24.40369,0.11658 c -0.72028,-0.0832 -1.48019,-0.72832 -1.19451,-1.014 0.38994,-0.38995 3.30573,-0.13418 4.30179,0.37734 l 1.04054,0.53437 -1.71979,0.0921 c -0.94588,0.0506 -2.0385,0.0552 -2.42803,0.0102 z m 60.63637,-0.019 c 0,-0.236 1.39524,-0.67368 3.87003,-1.21401 0.91708,-0.20023 1.55989,-0.21123 1.98438,-0.034 0.87476,0.36532 0.87386,0.36389 0.50563,0.80758 -0.26283,0.3167 -0.72025,0.36457 -2.24902,0.23534 -1.30659,-0.11045 -1.97829,-0.0664 -2.10462,0.138 -0.21695,0.35103 -2.0064,0.41083 -2.0064,0.067 z M 53.1151,128.70972 c -1.15193,-0.3326 -1.08469,-0.65874 0.17741,-0.86056 1.07715,-0.17224 1.87523,-0.003 2.18638,0.46318 0.46204,0.6925 -0.67796,0.88415 -2.36379,0.39738 z m 86.3558,-0.15357 c -0.10175,-0.10174 -0.7169,-0.15228 -1.36701,-0.1123 -0.6721,0.0413 -1.18202,-0.0433 -1.18202,-0.19627 0,-0.37792 0.22852,-0.47295 1.62311,-0.67498 0.95099,-0.13776 1.32273,-0.0811 1.65608,0.25221 0.23641,0.23641 0.36219,0.5393 0.2795,0.67309 -0.17773,0.28757 -0.74747,0.32044 -1.00966,0.0583 z M 46.69895,128.3199 c 0,-0.0471 0.50602,-0.37961 1.12448,-0.73894 1.46234,-0.84962 4.20254,-1.36236 4.99999,-0.93558 0.78414,0.41966 0.31886,0.65187 -2.02567,1.01093 -1.01741,0.15581 -2.35585,0.38813 -2.97432,0.51625 -0.61846,0.12812 -1.12448,0.19443 -1.12448,0.14734 z m 84.53438,-1.70582 -1.05834,-0.14674 0.96142,-0.48493 c 1.28779,-0.64954 3.93338,-0.3965 3.93338,0.37621 0,0.42005 -0.19783,0.48357 -1.38907,0.44601 -0.76398,-0.0241 -1.86531,-0.10984 -2.44739,-0.19055 z m -80.59751,-1.7821 c 0.32953,-0.61574 1.74725,-0.77442 1.51515,-0.16959 -0.0882,0.22983 -0.16035,0.46767 -0.16035,0.52852 0,0.0609 -0.36138,0.11066 -0.80306,0.11066 -0.68711,0 -0.76677,-0.0678 -0.55174,-0.46959 z m 71.80887,-0.0733 c -0.61365,-0.12116 -1.80428,-0.70382 -2.64584,-1.29479 -1.37183,-0.96334 -1.74343,-1.0922 -3.59236,-1.24573 -1.69609,-0.14084 -2.04696,-0.24639 -1.97611,-0.59445 0.0678,-0.33304 0.40852,-0.41667 1.59924,-0.39252 1.42333,0.0289 1.86941,-0.17611 1.23565,-0.56779 -0.18937,-0.11704 -0.17822,-0.291 0.0351,-0.54805 0.21528,-0.25939 0.4121,-0.29394 0.6325,-0.11103 0.17598,0.14606 0.39784,0.18768 0.49302,0.0925 0.24435,-0.24434 1.79318,-0.39419 2.42409,-0.23453 0.29105,0.0736 0.88636,0.4505 1.32292,0.83743 0.43656,0.38693 1.54376,1.05882 2.46045,1.49309 0.91668,0.43427 1.62075,0.83553 1.56458,0.89169 -0.28445,0.28445 -2.71258,-0.31935 -3.44759,-0.85732 -1.71424,-1.25468 -3.92397,-1.88158 -4.44013,-1.25965 -0.23164,0.27911 -0.13777,0.41661 0.43243,0.6334 0.40057,0.15229 1.15765,0.60889 1.68241,1.01466 0.94407,0.73 2.24898,1.40071 3.4015,1.74831 0.62548,0.18866 0.83303,0.6939 0.26458,0.64407 -0.1819,-0.0159 -0.8328,-0.12812 -1.44645,-0.24929 z m -76.01032,-0.59637 c 0,-0.0823 0.71794,-0.51455 1.59541,-0.96045 1.59376,-0.80989 2.48763,-1.00338 2.74105,-0.59334 0.17799,0.288 -0.80207,1.11205 -1.51898,1.27717 -1.11427,0.25665 -2.81748,0.42387 -2.81748,0.27662 z m 83.87292,-0.43895 c 0,-0.39124 0.93284,-0.80306 1.81907,-0.80306 0.89442,0 1.34859,0.46833 0.79451,0.81928 -0.49655,0.31451 -2.61358,0.30137 -2.61358,-0.0162 z m -86.2142,-0.51367 c -0.33609,-0.20782 0.527,-0.47921 2.22964,-0.70111 0.3024,-0.0394 1.00362,-0.37961 1.55827,-0.75601 1.12794,-0.76543 1.99295,-0.88876 1.99295,-0.28414 0,0.89414 -4.80847,2.34251 -5.78086,1.74126 z m 81.64045,-1.72837 c -0.55103,-0.19657 -1.53961,-0.77636 -2.19685,-1.2884 -0.83386,-0.64966 -1.5904,-0.98538 -2.50356,-1.11097 -0.71972,-0.099 -1.37542,-0.28811 -1.45709,-0.42027 -0.17676,-0.286 1.05729,-0.80209 1.53468,-0.64182 0.18316,0.0615 0.82114,0.23652 1.41772,0.38894 0.59659,0.15243 1.46586,0.64139 1.93171,1.08658 0.46585,0.44519 1.3636,1.03088 1.995,1.30153 2.12825,0.91228 1.52389,1.48548 -0.72161,0.68441 z m 5.51448,-0.9185 c -0.0904,-0.1462 0.20408,-0.45631 0.65432,-0.68914 0.67197,-0.34749 0.98402,-0.36872 1.74214,-0.11851 0.50795,0.16763 0.8782,0.44235 0.82279,0.61048 -0.12627,0.38313 -2.99571,0.55887 -3.21925,0.19717 z m -4.90205,-1.0478 c -1.87925,-0.68485 -4.08526,-3.20931 -2.80446,-3.20931 0.20789,0 0.58485,0.20836 0.83769,0.46302 0.5036,0.50723 0.93552,0.81759 2.97725,2.13937 0.74984,0.48542 1.36334,0.9319 1.36334,0.99218 0,0.22959 -1.238,0.0287 -2.37382,-0.38526 z m -58.61195,-1.09151 c -0.22886,-0.37031 1.05618,-0.9032 1.63608,-0.67847 0.45716,0.17716 0.45556,0.20387 -0.0337,0.56395 -0.59602,0.43864 -1.36796,0.49381 -1.60238,0.11452 z m 37.70243,-0.007 c 0,-0.45343 1.29226,-0.92457 1.62454,-0.59229 0.158,0.158 0.20728,0.41671 0.1095,0.57491 -0.22527,0.36449 -1.73404,0.37962 -1.73404,0.0174 z m 22.88646,-0.35475 c -1.58759,-0.36126 -2.32428,-0.75134 -3.63878,-1.92672 -0.54612,-0.48832 -1.15662,-0.88786 -1.35667,-0.88786 -0.20004,0 -0.51193,-0.17859 -0.69309,-0.39687 -0.18116,-0.21829 -0.54224,-0.39688 -0.8024,-0.39688 -0.85775,0 -2.58881,-1.37034 -3.20982,-2.54096 -0.59494,-1.12147 -0.59804,-1.16617 -0.13505,-1.94995 0.47055,-0.79657 0.4694,-0.80385 -0.16366,-1.04454 -0.65551,-0.24923 -3.0974,-2.85595 -3.0974,-3.30649 0,-0.13865 -0.26663,-0.53589 -0.5925,-0.88276 -0.48122,-0.51224 -0.58855,-0.92169 -0.57145,-2.18007 0.0234,-1.72499 -0.10943,-1.84282 -2.08612,-1.84995 -1.03152,-0.004 -1.22571,0.13997 -3.24474,2.40107 -0.44345,0.49661 -0.8862,1.11122 -0.98389,1.36579 -0.0977,0.25457 -0.30041,0.46286 -0.4505,0.46286 -0.15009,0 -0.27289,0.1317 -0.27289,0.29266 0,0.37061 -1.55824,2.35317 -1.84954,2.35317 -0.11967,0 -1.10396,0.59883 -2.18733,1.33072 -1.52786,1.03219 -2.28465,1.36801 -3.37348,1.49697 -1.55876,0.18461 -1.70592,-0.26453 -0.19338,-0.59024 1.32988,-0.28637 2.22319,-0.83031 3.80878,-2.31918 0.80448,-0.75541 1.56988,-1.49254 1.7009,-1.63806 0.77591,-0.8618 2.06536,-2.57833 2.72673,-3.62984 0.53705,-0.85387 1.16882,-1.42056 2.12046,-1.90205 1.52923,-0.77371 1.94283,-0.814 3.84629,-0.37463 1.12211,0.25901 1.49146,0.24385 2.203,-0.0904 0.58149,-0.27319 1.10145,-0.334 1.62594,-0.19015 0.4241,0.11631 0.87058,0.14998 0.99219,0.0748 0.12161,-0.0752 0.22111,-0.0235 0.22111,0.11486 0,0.13833 0.26865,0.31894 0.59701,0.40136 0.68282,0.17137 1.92776,1.1263 3.5894,2.75325 1.34281,1.31477 4.30107,3.11407 5.54011,3.36966 0.55246,0.11396 1.12369,0.51994 1.5875,1.12827 1.01161,1.32679 3.16729,2.97509 3.89088,2.97509 0.33292,0 0.75352,0.17859 0.93468,0.39688 0.18116,0.21828 0.62028,0.39687 0.97583,0.39687 0.7685,0 1.73694,0.47139 1.55922,0.75895 -0.0691,0.11178 -1.14316,0.1839 -2.38683,0.16026 -1.86666,-0.0355 -2.20973,0.0191 -1.96608,0.31265 0.16234,0.1956 0.45214,0.35564 0.64402,0.35564 0.37299,0 0.77846,0.48358 0.57557,0.68646 -0.0671,0.0672 -0.46602,-0.0189 -0.88639,-0.19115 -0.42036,-0.17228 -0.88336,-0.33607 -1.02888,-0.36398 -0.14552,-0.0279 -0.32411,-0.0787 -0.39687,-0.11279 -0.0728,-0.0341 -0.48948,-0.10651 -0.92605,-0.16085 -0.43656,-0.0543 -0.64492,-0.0346 -0.46302,0.0438 0.1819,0.0784 0.33073,0.31128 0.33073,0.51743 0,0.20616 0.0958,0.37483 0.21279,0.37483 0.40164,0 2.75876,1.61456 2.59549,1.77784 -0.14685,0.14684 -0.72131,-0.0607 -2.07708,-0.75038 -0.25269,-0.12854 -0.67536,-0.23371 -0.93927,-0.23371 -0.26392,0 -0.62074,-0.14089 -0.79293,-0.31309 -0.47343,-0.47342 -0.63574,-0.11545 -0.32191,0.70997 0.15366,0.40416 0.21918,0.79505 0.14559,0.86864 -0.0736,0.0736 -0.64645,-0.062 -1.27302,-0.30128 -0.62657,-0.23929 -1.31463,-0.43507 -1.52901,-0.43507 -0.21439,0 -0.98431,-0.53392 -1.71095,-1.18648 -1.49056,-1.3386 -2.64638,-1.69043 -1.24808,-0.37991 0.47676,0.44683 1.04999,1.09196 1.27386,1.43362 0.27092,0.41348 0.77731,0.68284 1.51442,0.80556 2.05074,0.34143 3.84231,1.54369 3.52655,2.36655 -0.17266,0.44995 -0.0949,0.44831 -1.88999,0.0398 z m -5.15937,-5.81117 c 0,-0.0474 -0.31686,-0.37481 -0.70413,-0.7276 -0.64233,-0.58514 -0.65055,-0.33739 -0.016,0.48304 0.22938,0.29659 0.72016,0.46326 0.72016,0.24456 z m 2.91041,-0.44299 c 0,-0.14552 -0.0984,-0.26459 -0.21866,-0.26459 -0.12026,0 -0.91217,-0.62507 -1.75979,-1.38906 -1.95152,-1.75895 -2.50846,-2.15019 -2.73501,-1.92129 -0.2577,0.26037 3.69167,3.81948 4.25044,3.83044 0.25466,0.005 0.46302,-0.10998 0.46302,-0.2555 z m 1.85209,-1.42381 c 0,-0.28897 -1.88346,-1.47847 -2.54353,-1.60637 -0.42007,-0.0814 -0.59067,-0.0697 -0.37912,0.0259 0.21156,0.0956 0.91948,0.51307 1.57316,0.92762 1.204,0.76356 1.34949,0.83394 1.34949,0.65284 z m -4.2499,-2.80426 c -0.50021,-0.42763 -1.02854,-0.77739 -1.17406,-0.77725 -0.14552,1.4e-4 0.20174,0.41203 0.77169,0.9153 0.56995,0.50327 1.09828,0.85303 1.17406,0.77725 0.0758,-0.0758 -0.27148,-0.48767 -0.77169,-0.9153 z m -1.83552,-3.80933 c 0,-0.0549 -0.18132,-0.25037 -0.40293,-0.4343 -0.33691,-0.2796 -0.37563,-0.26323 -0.23628,0.0999 0.14232,0.37087 0.63921,0.63082 0.63921,0.3344 z m -5.67207,-2.57259 c 0.10337,-0.16726 0.50985,-0.22527 0.95481,-0.13628 0.47748,0.0955 0.71301,0.055 0.61376,-0.10563 -0.24848,-0.40204 -1.61303,-0.30821 -1.98192,0.13627 -0.2077,0.25027 -0.22544,0.39688 -0.048,0.39688 0.15475,0 0.36236,-0.13106 0.46136,-0.29124 z m 17.8429,14.82552 c 0,-0.34473 0.33799,-0.46778 1.82779,-0.66541 1.28209,-0.17007 1.39231,-0.14345 1.3036,0.31486 -0.0807,0.41681 -0.35095,0.50612 -1.61414,0.53338 -0.83449,0.018 -1.51725,-0.0643 -1.51725,-0.18283 z m -27.78125,-0.71881 c 0,-0.38431 1.68134,-1.11611 2.55353,-1.11142 0.97502,0.005 1.63813,0.40804 1.27294,0.77323 -0.37028,0.37028 -3.82647,0.67574 -3.82647,0.33819 z m 10.68601,-0.36977 c -0.1555,-0.25143 0.97967,-1.01029 1.5113,-1.01029 0.64532,0 1.15421,0.68595 0.71398,0.9624 -0.41838,0.26272 -2.07042,0.29828 -2.22528,0.0479 z m -46.66934,-0.17553 c 0,-0.29599 0.80363,-0.97535 1.40823,-1.19047 0.58252,-0.20725 1.50219,0.238 1.50219,0.72728 0,0.20231 -0.42348,0.42294 -0.99219,0.51694 -1.36347,0.22537 -1.91823,0.20983 -1.91823,-0.0537 z m -3.38218,-0.61405 c 0.064,-0.19415 0.38816,-0.39278 0.72039,-0.44141 0.41044,-0.0601 0.56677,0.0247 0.48772,0.26459 -0.064,0.19414 -0.38816,0.39277 -0.7204,0.4414 -0.41043,0.0601 -0.56676,-0.0247 -0.48771,-0.26458 z m 1.79468,-0.47849 c 0,-0.39414 1.4998,-1.08218 1.96761,-0.90266 0.55851,0.21432 0.52076,0.55533 -0.0981,0.88655 -0.64716,0.34635 -1.86948,0.35688 -1.86948,0.0161 z m 40.81198,-0.18203 c -0.58603,-0.23646 -0.35431,-0.5697 0.61967,-0.89114 1.04873,-0.34611 1.61868,-0.0693 1.34199,0.65171 -0.15371,0.40058 -1.23517,0.53258 -1.96166,0.23943 z m -3.60053,-1.01768 c 0.20944,-0.5458 1.33728,-0.79072 1.81511,-0.39416 0.58582,0.48619 0.22426,0.79332 -0.93387,0.79332 -0.81341,0 -1.00169,-0.0853 -0.88124,-0.39916 z m -33.1918,-0.0542 c -0.70874,-0.13541 -0.63975,-0.69233 0.10332,-0.83407 0.27898,-0.0532 0.59654,-0.23181 0.70568,-0.39687 0.1398,-0.21145 0.25706,-0.21625 0.39687,-0.0162 0.10914,0.15613 0.42021,0.3659 0.69126,0.46615 0.40274,0.14895 0.43309,0.25424 0.16604,0.57601 -0.32041,0.38607 -0.84354,0.43806 -2.06317,0.20502 z m -2.43215,-1.71758 c 0,-0.19847 0.36899,-0.57882 0.81999,-0.84523 0.71657,-0.42329 0.8684,-0.43596 1.2039,-0.10046 0.48145,0.48144 0.0959,0.85327 -1.16399,1.12268 -0.63969,0.13678 -0.8599,0.0914 -0.8599,-0.17699 z m 41.53216,-0.78672 c 0.71269,-0.5771 1.41868,-0.54024 1.53819,0.0803 0.0645,0.33497 -0.15359,0.4239 -1.03961,0.4239 h -1.12124 z m -40.73841,-3.9281 c 0,-0.33097 0.90997,-0.78721 1.57011,-0.78721 0.5815,0 0.78376,0.77212 0.21583,0.82392 -0.1819,0.0166 -0.65815,0.069 -1.05834,0.11644 -0.40018,0.0475 -0.7276,-0.0215 -0.7276,-0.15315 z"
       id="path18" />
  </g>
</svg>
