<?xml version="1.0" encoding="UTF-8" standalone="no"?>
<!-- Created with Inkscape (http://www.inkscape.org/) -->

<svg
   width="162.63696mm"
   height="50.973061mm"
   viewBox="0 0 162.63696 50.973058"
   version="1.1"
   id="svg1"
   inkscape:version="1.4.1-rc (06eac75fbf, 2025-03-29)"
   sodipodi:docname="mounts4.svg"
   xmlns:inkscape="http://www.inkscape.org/namespaces/inkscape"
   xmlns:sodipodi="http://sodipodi.sourceforge.net/DTD/sodipodi-0.dtd"
   xmlns="http://www.w3.org/2000/svg"
   xmlns:svg="http://www.w3.org/2000/svg">
  <sodipodi:namedview
     id="namedview1"
     pagecolor="#ffffff"
     bordercolor="#000000"
     borderopacity="0.25"
     inkscape:showpageshadow="2"
     inkscape:pageopacity="0.0"
     inkscape:pagecheckerboard="0"
     inkscape:deskcolor="#d1d1d1"
     inkscape:document-units="mm"
     inkscape:zoom="0.72248176"
     inkscape:cx="307.96625"
     inkscape:cy="96.1962"
     inkscape:window-width="1850"
     inkscape:window-height="1016"
     inkscape:window-x="0"
     inkscape:window-y="0"
     inkscape:window-maximized="1"
     inkscape:current-layer="layer1" />
  <defs
     id="defs1" />
  <g
     inkscape:label="Layer 1"
     inkscape:groupmode="layer"
     id="layer1"
     transform="translate(-23.812497,-123.03273)">
    <path
       style="fill:#000000"
       d="m 115.74415,173.7591 c -0.22988,-0.37196 -3.28387,-2.65914 -3.55065,-2.65914 -0.12608,0 -0.38358,-0.18597 -0.57222,-0.41328 -0.26647,-0.32107 -0.0228,-0.28552 1.09208,0.15933 0.78929,0.31493 1.89571,0.74332 2.45872,0.95198 1.03855,0.3849 1.99423,1.27945 2.01026,1.88166 0.0102,0.38441 -1.20811,0.45172 -1.43819,0.0795 z m -86.650853,-0.31005 c -0.01,-0.49262 2.86681,-3.40424 3.36502,-3.40615 0.63742,-0.002 0.32115,0.80206 -0.7276,1.85081 -0.58208,0.58209 -1.25357,1.05834 -1.49219,1.05834 -0.23861,0 -0.59202,0.20836 -0.78533,0.46302 -0.31079,0.40941 -0.35246,0.41335 -0.3599,0.034 z m -4.77091,-0.22562 c 0,-0.14179 0.34213,-0.43472 0.7603,-0.65096 0.41816,-0.21624 1.2761,-0.87414 1.90652,-1.462 1.11553,-1.04022 1.56221,-1.24953 1.91456,-0.89718 0.23069,0.23069 -1.60849,1.94501 -2.08668,1.94501 -0.20792,0 -0.37804,0.097 -0.37804,0.21558 0,0.18734 -1.6561,1.10733 -1.99335,1.10733 -0.0678,0 -0.12331,-0.116 -0.12331,-0.25778 z m 10.84791,0.0451 c 0,-0.11697 0.41672,-0.61658 0.92605,-1.11023 0.50932,-0.49366 0.92604,-0.80009 0.92604,-0.68097 0,0.11913 0.18364,0.0642 0.40809,-0.12209 0.30017,-0.24912 0.48612,-0.26065 0.70316,-0.0436 0.41579,0.41579 -0.0757,0.93934 -1.51871,1.61761 -1.30519,0.61351 -1.44463,0.64626 -1.44463,0.33929 z m 4.7625,-0.68533 c 0,-0.22004 0.44649,-0.5964 0.99219,-0.83634 0.5457,-0.23995 1.24443,-0.55493 1.55273,-0.69997 0.67153,-0.31593 1.47215,-0.19973 1.61677,0.23465 0.16333,0.49056 -1.00004,1.09431 -2.31177,1.19974 -0.65603,0.0527 -1.34064,0.18725 -1.52135,0.29893 -0.20637,0.12754 -0.32857,0.0543 -0.32857,-0.19701 z m 68.713083,-0.55719 c -0.52443,-0.50933 -1.07847,-0.92605 -1.23121,-0.92605 -0.15273,0 -0.2777,-0.1647 -0.2777,-0.36601 0,-0.20131 -0.26789,-0.45455 -0.59531,-0.56276 -0.58759,-0.19418 -0.58808,-0.19819 -0.0376,-0.30891 0.30673,-0.0617 1.25923,0.22336 2.11667,0.63347 1.37735,0.65878 1.56862,0.84529 1.64187,1.60097 0.11036,1.13846 -0.39439,1.11638 -1.61671,-0.0707 z m -76.003293,0.37394 c -0.0677,-0.1096 0.17563,-0.43431 0.54082,-0.72157 0.36519,-0.28725 0.66398,-0.65397 0.66398,-0.81493 0,-0.16096 0.25086,-0.29265 0.55747,-0.29265 0.42716,0 0.51292,0.10824 0.36686,0.46302 -0.10484,0.25466 -0.24741,0.65944 -0.31682,0.89952 -0.1295,0.44794 -1.59125,0.82429 -1.81231,0.46661 z m 70.905583,-0.77948 c -1.71309,-0.8761 -2.80088,-1.75783 -1.83515,-1.48751 0.29104,0.0815 0.88635,0.22257 1.32291,0.31356 1.55525,0.32416 2.9264,1.25781 2.60676,1.77501 -0.19656,0.31804 -0.42624,0.25213 -2.09452,-0.60106 z m 51.61068,0.38915 c -0.43656,-0.22067 -1.00767,-0.6942 -1.26912,-1.05231 -0.42026,-0.57561 -0.42625,-0.6511 -0.0516,-0.6511 1.1331,0 3.04054,1.25845 3.04054,2.00602 0,0.24579 -0.97386,0.0744 -1.71979,-0.30261 z m -19.84375,-0.0785 c -1.32986,-0.43838 -3.35592,-1.68211 -3.12172,-1.91632 0.15682,-0.15681 0.58767,-0.11193 1.15665,0.12048 0.4987,0.2037 1.49087,0.45464 2.20481,0.55764 1.67451,0.24158 2.2436,0.74448 1.31912,1.1657 -0.71698,0.32668 -0.77901,0.32957 -1.55886,0.0725 z m -88.691353,-0.39878 c 0.17544,-0.52633 2.56042,-1.05061 3.28255,-0.72158 0.84684,0.38584 0.49726,0.90074 -0.51107,0.75275 -0.43651,-0.0641 -1.26074,-0.0311 -1.83162,0.0733 -0.71736,0.13118 -1.00766,0.0989 -0.93986,-0.10449 z m 81.119003,-0.49316 c -0.52678,-0.13205 -1.36021,-0.58427 -1.85209,-1.00494 -0.79568,-0.6805 -0.83223,-0.76604 -0.33139,-0.77561 0.3096,-0.006 0.71235,0.16931 0.895,0.38939 0.23445,0.2825 0.42847,0.32014 0.65996,0.12802 0.39268,-0.32589 2.28263,0.22414 2.44201,0.7107 0.17157,0.52376 -0.77617,0.81247 -1.81349,0.55244 z m 21.63095,-0.223 c -0.38343,-0.30161 -0.69714,-0.47209 -0.69714,-0.37886 0,0.0932 -0.35719,-0.0848 -0.79375,-0.39569 -0.96714,-0.68866 -1.01335,-1.05833 -0.13229,-1.05833 0.3638,0 0.66146,0.12609 0.66146,0.2802 0,0.1541 0.10047,0.2181 0.22326,0.14221 0.34507,-0.21327 2.06176,0.33347 2.42633,0.77274 0.25794,0.3108 0.25716,0.47484 -0.004,0.78922 -0.44526,0.5365 -0.8565,0.49951 -1.68411,-0.15149 z m -28.14766,-0.54428 c -1.62798,-0.94125 -1.78258,-1.32163 -0.41148,-1.0124 0.53767,0.12127 1.05899,0.17017 1.15848,0.10868 0.226,-0.13967 1.76439,0.61348 1.98621,0.97239 0.20355,0.32935 0.14164,0.3817 -0.68269,0.57741 -0.46209,0.1097 -1.08013,-0.085 -2.05052,-0.64608 z m 16.47031,0.29594 c -2.96453,-1.38584 -2.92394,-2.35587 0.0589,-1.40863 2.1391,0.67929 2.61339,1.03374 2.14249,1.60115 -0.37479,0.4516 -0.92684,0.40332 -2.20143,-0.19252 z M 26.165467,169.21913 c 1.03028,-0.88893 1.99375,-1.84143 2.14105,-2.11666 0.31964,-0.59724 1.30753,-0.67194 1.30753,-0.0989 0,0.85047 -3.79294,3.83178 -4.87494,3.83178 -0.26377,0 0.32069,-0.66225 1.42636,-1.61625 z m 86.130883,0.9115 c -0.87313,-0.34366 -1.62719,-0.74239 -1.6757,-0.88608 -0.0485,-0.14369 -0.23841,-0.26125 -0.42201,-0.26125 -0.1836,0 -0.53518,-0.2225 -0.78129,-0.49445 -0.47405,-0.52382 -3.2842,-1.99182 -4.39704,-2.29697 -0.56958,-0.15619 -0.51446,-0.0499 0.39687,0.76484 1.35188,1.20866 0.89028,1.22675 -1.07686,0.0422 -0.84581,-0.50932 -1.69987,-0.92604 -1.8979,-0.92604 -0.19803,0 -0.48457,-0.35719 -0.63676,-0.79375 -0.15219,-0.43656 -0.44365,-0.79375 -0.64769,-0.79375 -0.20405,0 -0.371,-0.15154 -0.371,-0.33676 0,-0.18522 -0.4275,-0.9859 -0.950003,-1.77928 -0.52251,-0.79338 -1.13609,-1.8027 -1.36352,-2.24292 -0.51605,-0.99891 -1.6838,-2.25562 -2.09593,-2.25562 -0.17058,0 -1.06393,-0.74435 -1.98524,-1.6541 -2.37533,-2.34555 -3.13031,-2.98032 -3.13031,-2.63191 0,0.16729 0.93787,1.28937 2.08416,2.49352 1.14628,1.20415 2.58283,2.72514 3.19232,3.37999 1.14984,1.23539 3.19019,4.12532 3.19019,4.51854 0,0.1237 0.773913,1.02988 1.719793,2.01373 1.52846,1.58981 1.97309,2.19898 1.60503,2.19898 -0.0631,0 -0.86656,-0.60335 -1.78541,-1.34078 -0.96401,-0.77367 -2.522573,-2.48032 -3.684773,-4.0349 -2.09094,-2.79687 -5.03635,-6.00141 -5.51612,-6.00141 -0.15181,0 -0.2783,-0.0893 -0.2811,-0.19843 -0.003,-0.10914 -0.42857,-0.67469 -0.94618,-1.25677 -0.5176,-0.58209 -1.04815,-1.32623 -1.179,-1.65365 -0.19559,-0.48946 -0.78016,-0.85905 -0.78016,-0.49327 0,0.68196 2.77728,4.51364 4.43177,6.11432 0.76399,0.73913 1.38907,1.46584 1.38907,1.61491 0,0.14907 0.26789,0.55709 0.59531,0.90672 0.32742,0.34964 0.71437,0.83131 0.85989,1.0704 0.91958,1.51081 1.762,2.62702 1.98266,2.62702 0.14092,0 0.33072,0.29684 0.42178,0.65963 0.0911,0.3628 0.25889,0.60195 0.37297,0.53144 0.11408,-0.0705 0.40178,0.16844 0.63934,0.531 0.23755,0.36255 0.37054,0.65918 0.29553,0.65918 -0.14468,0 -1.23117,-0.88165 -2.03783,-1.65364 -0.2661,-0.25466 -0.54732,-0.46302 -0.62493,-0.46302 -0.33122,0 -3.82764,-3.91427 -3.82764,-4.28506 0,-0.46307 -2.72357,-3.12328 -3.19767,-3.12328 -0.25432,0 -0.52245,-0.14882 -0.59585,-0.33073 -0.0797,-0.19757 -0.14186,-0.14431 -0.15434,0.1323 -0.0115,0.25466 0.0725,0.46302 0.18665,0.46302 0.11414,0 0.40101,0.32752 0.63748,0.72783 0.23647,0.40031 1.06581,1.39516 1.84298,2.21078 1.66399,1.7463 4.19117,4.94034 4.19117,5.29711 0,0.15536 -0.17477,0.15438 -0.46302,-0.003 -0.52817,-0.28766 -2.36995,-2.1477 -2.12662,-2.1477 0.088,0 -0.48321,-0.62507 -1.26937,-1.38906 -0.78615,-0.76398 -1.43011,-1.53789 -1.43101,-1.71979 -9.1e-4,-0.1819 -0.18055,-0.33073 -0.39921,-0.33073 -0.41155,0 -2.11555,-1.74124 -2.68048,-2.73905 -0.40239,-0.71073 -1.25033,-2.44426 -1.97115,-4.02981 -0.3032,-0.66694 -0.61103,-1.15286 -0.68407,-1.07982 -0.073,0.073 0.0448,0.52941 0.26187,1.01417 0.21706,0.48476 0.47011,1.2187 0.56233,1.63097 0.0922,0.41228 0.48953,1.24571 0.88291,1.85209 0.39338,0.60637 0.89465,1.45968 1.11392,1.89624 0.21928,0.43656 0.9854,1.42255 1.70249,2.19108 0.71708,0.76854 1.46178,1.62289 1.65487,1.89857 0.33488,0.47811 0.31651,0.48399 -0.39834,0.12737 -0.41218,-0.20562 -1.12999,-0.79208 -1.59515,-1.30325 -0.46515,-0.51117 -0.9619,-0.92939 -1.10389,-0.92939 -0.14199,0 -0.2284,-0.0974 -0.19202,-0.21655 0.0364,-0.1191 -0.38034,-0.63917 -0.92604,-1.15572 -0.54571,-0.51655 -0.99219,-1.0348 -0.99219,-1.15168 0,-0.11688 -0.16099,-0.40048 -0.35776,-0.63022 -0.19677,-0.22974 -0.64326,-1.30983 -0.99219,-2.4002 -0.34893,-1.09037 -0.84278,-2.1917 -1.09745,-2.4474 -0.25466,-0.25569 -0.46566,-0.5542 -0.4689,-0.66334 -0.0109,-0.369 -1.04063,-1.52426 -1.04657,-1.17419 -0.0115,0.67653 0.87415,3.12404 1.98062,5.47367 0.96004,2.03869 1.47826,2.73786 3.60232,4.86016 1.36454,1.3634 2.92746,2.77821 3.47316,3.14402 1.05601,0.70788 1.22215,1.05231 0.61919,1.28369 -0.7679,0.29467 -2.23374,-0.83809 -5.2494,-4.05658 -0.69122,-0.73771 -1.25677,-1.45395 -1.25677,-1.59164 0,-0.13769 -0.23813,-0.46584 -0.52917,-0.72923 -0.29104,-0.26339 -0.52916,-0.5795 -0.52916,-0.70247 0,-0.12296 -0.20836,-0.45316 -0.46302,-0.73378 -0.75837,-0.83564 -0.96571,-1.14777 -1.65627,-2.49343 -0.36236,-0.70612 -0.80254,-1.34197 -0.97817,-1.413 -0.18993,-0.0768 -0.26375,-0.41427 -0.18217,-0.83282 0.10148,-0.52064 -0.005,-0.79028 -0.40827,-1.03664 -0.29999,-0.18313 -0.54544,-0.2185 -0.54544,-0.0786 0,0.23923 0.12399,0.57559 0.93198,2.52823 0.18065,0.43656 0.47026,1.23857 0.64358,1.78225 0.17332,0.54368 0.42551,1.05672 0.56041,1.1401 0.13491,0.0834 0.24528,0.37009 0.24528,0.63716 0,0.26706 0.34152,0.85117 0.75894,1.29801 0.41742,0.44685 0.68549,0.88589 0.59573,0.97566 -0.0898,0.0898 0.0747,0.33476 0.36554,0.54444 0.29081,0.20968 1.48125,1.30879 2.64542,2.44247 1.16416,1.13368 2.54675,2.25988 3.0724,2.50267 1.26205,0.58291 1.7478,1.16079 1.32832,1.58026 -0.2408,0.2408 -0.43246,0.23822 -0.83186,-0.0112 -0.28544,-0.17826 -0.65375,-0.3241 -0.81847,-0.3241 -0.31567,0 -2.99176,-2.70001 -4.33789,-4.37667 -1.16723,-1.45383 -1.68832,-1.97333 -1.97934,-1.97333 -0.14274,0 -0.33516,-0.3013 -0.42758,-0.66954 -0.12198,-0.48601 -0.29512,-0.62921 -0.63161,-0.52242 -0.33456,0.10619 -0.55374,-0.0706 -0.78768,-0.63537 -0.17826,-0.43038 -0.60927,-1.169 -0.95779,-1.64139 -0.34852,-0.47239 -0.713,-1.28175 -0.80995,-1.79857 -0.097,-0.51682 -0.39559,-1.29928 -0.66362,-1.7388 -0.26803,-0.43952 -0.48777,-0.9313 -0.48832,-1.09284 -10e-4,-0.41376 -1.84187,-2.31922 -2.04445,-2.11664 -0.0918,0.0918 0.0626,0.34044 0.34299,0.55259 0.28041,0.21215 0.4021,0.38952 0.2704,0.39415 -0.13169,0.005 -0.0554,0.21677 0.16964,0.47143 0.22499,0.25466 0.49144,0.96553 0.59211,1.57971 0.10067,0.61418 0.41993,1.41785 0.70947,1.78594 0.28953,0.36809 0.45015,0.66925 0.35691,0.66925 -0.0932,0 0.0513,0.32742 0.32106,0.7276 0.76005,1.12728 1.23731,2.16666 1.07117,2.3328 -0.0829,0.0829 -0.37084,-0.17325 -0.63981,-0.56931 -0.26896,-0.39605 -0.87025,-1.12475 -1.3362,-1.61934 -0.78752,-0.83591 -2.19553,-3.41075 -2.19553,-4.01497 0,-0.14607 -0.58811,-0.93764 -1.30692,-1.75907 -0.71881,-0.82142 -1.38311,-1.84038 -1.47623,-2.26435 -0.0931,-0.42397 -0.27891,-0.77086 -0.41287,-0.77086 -0.3136,0 -0.31291,0.67079 0.001,1.26036 0.70649,1.32567 2.1364,4.5326 2.1364,4.79142 0,0.16402 0.11906,0.29822 0.26458,0.29822 0.14552,0 0.26459,0.16014 0.26459,0.35586 0,0.19573 0.22625,0.56063 0.50278,0.81089 0.53414,0.48338 0.91217,1.47908 0.56157,1.47908 -0.35452,0 -2.12269,-2.09439 -2.12269,-2.5143 0,-0.21787 -0.11906,-0.39612 -0.26458,-0.39612 -0.14552,0 -0.26458,-0.13164 -0.26458,-0.29253 0,-0.1609 -0.29766,-0.64628 -0.66146,-1.07863 -0.3638,-0.43236 -0.66146,-0.95556 -0.66146,-1.16268 0,-0.20711 -0.11906,-0.37657 -0.26458,-0.37657 -0.14553,0 -0.26572,-0.14883 -0.2671,-0.33073 -10e-4,-0.1819 -0.47763,-1.07966 -1.05833,-1.99501 -0.58071,-0.91536 -1.05582,-1.83106 -1.05582,-2.03491 0,-0.20384 -0.11907,-0.44421 -0.26459,-0.53414 -0.14552,-0.0899 -0.26458,-0.44713 -0.26458,-0.79375 0,-0.34663 -0.11727,-0.70271 -0.2606,-0.79129 -0.47081,-0.29098 0.0302,1.52107 0.95445,3.45208 0.49151,1.02688 0.89365,2.11832 0.89365,2.42542 0,0.30711 0.3996,1.31241 0.88801,2.234 0.48841,0.92159 0.97814,1.96071 1.08829,2.30915 0.19661,0.62192 0.19108,0.62434 -0.30207,0.13229 -0.27629,-0.27568 -1.01863,-1.18585 -1.64963,-2.02259 -0.63101,-0.83675 -1.25187,-1.52136 -1.37969,-1.52136 -0.12783,0 -0.23669,-0.14882 -0.24193,-0.33073 -0.005,-0.1819 -0.31595,-0.68791 -0.69049,-1.12447 -0.37454,-0.43657 -0.63254,-0.67469 -0.57332,-0.52917 0.3787,0.93068 0.94114,1.92373 1.33947,2.36499 0.25467,0.2821 0.46303,0.89357 0.46303,1.35882 0,0.46525 0.17786,1.18694 0.39524,1.60376 0.39347,0.75445 0.51818,1.4193 0.26621,1.4193 -0.24085,0 -1.19062,-1.05351 -1.19062,-1.32067 0,-0.14429 -0.23813,-0.41105 -0.52917,-0.59281 -0.29104,-0.18176 -0.52916,-0.46585 -0.52916,-0.63131 0,-0.16545 -0.1786,-0.44905 -0.39688,-0.63021 -0.65128,-0.54051 -0.3842,0.4462 0.88745,3.2786 0.31958,0.71182 0.54087,1.3344 0.49176,1.38351 -0.26712,0.26713 -2.44173,-2.45114 -3.5091,-4.38639 -1.10542,-2.00424 -1.21747,-2.36021 -1.07353,-3.41042 0.0902,-0.65781 0.364,-1.3223 0.62374,-1.51359 0.39569,-0.29141 0.4053,-0.36356 0.0661,-0.49615 -0.30283,-0.11839 -0.40301,-0.64963 -0.42276,-2.24186 -0.0194,-1.56282 -0.16435,-2.35237 -0.57741,-3.14484 -0.30334,-0.58197 -0.47374,-1.13592 -0.37866,-1.231 0.0951,-0.0951 0.0573,-0.2557 -0.084,-0.35693 -0.14131,-0.10123 -0.64885,-0.97226 -1.12788,-1.93563 -0.98506,-1.98106 -1.37701,-3.67238 -0.85106,-3.67238 0.26467,0 0.26516,-0.0801 0.002,-0.39664 -0.36829,-0.44377 -0.0464,-1.53027 0.83193,-2.80823 0.26134,-0.38022 0.41712,-0.74935 0.34619,-0.82029 -0.0709,-0.0709 -0.17481,-0.71233 -0.23084,-1.42534 -0.0741,-0.94256 0.0345,-1.51998 0.39786,-2.11568 0.27485,-0.45062 0.42802,-0.89103 0.34036,-0.97868 -0.0877,-0.0877 -0.0327,-0.52264 0.12203,-0.96663 0.22153,-0.63549 0.20679,-0.80726 -0.0693,-0.80726 -0.19289,0 -0.49632,0.17544 -0.67428,0.38987 -0.17796,0.21443 -0.75809,0.46592 -1.28917,0.55887 -1.37704,0.24099 -2.15622,0.80302 -2.15622,1.55529 0,0.35186 -0.10533,0.70483 -0.23406,0.78439 -0.12873,0.0796 -0.31462,0.6819 -0.41309,1.33853 -0.0985,0.65664 -0.3037,1.19388 -0.45608,1.19388 -0.16341,0 -0.20896,0.27133 -0.11104,0.66146 0.14894,0.59343 0.0858,0.66146 -0.61336,0.66146 -0.67196,0 -0.89879,0.20968 -1.64581,1.52135 -1.15702,2.03159 -1.22022,2.08151 -2.88627,2.27969 -1.44089,0.17141 -2.48097,-0.0991 -1.85904,-0.48345 0.16744,-0.10348 0.4778,-0.0443 0.68971,0.13161 0.27135,0.2252 0.38528,0.23194 0.38528,0.0228 0,-0.16334 0.40822,-0.29698 0.90715,-0.29698 1.16743,0 1.63628,-0.49231 2.14923,-2.25681 0.30545,-1.05071 0.68719,-1.66119 1.43754,-2.29888 0.93182,-0.79193 1.0325,-1.00684 1.14512,-2.44434 0.15003,-1.91513 0.78684,-2.59175 2.85715,-3.03575 1.02657,-0.22016 1.59048,-0.53032 2.19711,-1.20843 1.162,-1.29894 1.95895,-1.41388 2.91128,-0.41987 0.70726,0.73823 0.76719,0.96062 0.80558,2.98967 0.0409,2.15824 0.48259,3.9698 1.13655,4.66084 0.18324,0.19364 0.25728,0.47484 0.16454,0.6249 -0.40447,0.65445 1.33087,0.82106 2.14813,0.20625 0.46652,-0.35096 1.42085,-0.14102 1.83777,0.4043 0.40187,0.52563 0.40776,0.5251 0.88269,-0.0803 0.40338,-0.51417 0.58595,-0.56843 1.16793,-0.34716 1.15705,0.43991 2.1393,1.98918 2.21626,3.49564 0.0371,0.7263 0.19884,1.47885 0.35941,1.67232 0.16057,0.19347 0.21762,0.54545 0.12678,0.78218 -0.0908,0.23673 -0.0631,0.43231 0.0616,0.43464 0.35148,0.007 1.82846,1.39785 2.01549,1.89858 0.092,0.24619 0.47665,0.65037 0.85487,0.89819 0.59893,0.39243 0.77505,0.40382 1.36477,0.0882 0.63284,-0.33868 0.72694,-0.30659 1.43949,0.49088 0.8044,0.90029 1.03442,1.02873 1.03442,0.57761 0,-0.15161 0.24102,-0.53435 0.5356,-0.85055 l 0.5356,-0.5749 1.06467,1.09691 c 1.31353,1.35332 2.49788,1.69949 3.06148,0.89484 0.61682,-0.88063 1.56038,-0.70587 2.33374,0.43222 0.36904,0.5431 0.67099,0.9086 0.67099,0.81222 0,-0.0964 0.38423,-0.0651 0.85383,0.0696 0.96102,0.27562 2.08991,0.0658 1.52489,-0.28338 -0.26125,-0.16146 -0.21893,-0.37807 0.18823,-0.96326 0.2889,-0.41523 0.80313,-1.32051 1.14273,-2.01173 0.56196,-1.14381 1.18965,-1.56092 1.65248,-1.09808 0.25315,0.25314 -0.38407,1.42881 -0.77442,1.42881 -0.20164,0 -0.3544,0.28511 -0.3544,0.66146 0,0.3638 -0.10616,0.66145 -0.2359,0.66145 -0.12975,0 -0.30498,0.27523 -0.38941,0.61162 -0.0844,0.33638 -0.45438,0.96146 -0.82211,1.38906 -0.64231,0.74688 -0.88238,1.93133 -0.47419,2.33953 0.10729,0.10728 0.2022,0.33548 0.21091,0.50711 0.0986,1.94218 0.50776,2.87827 1.86623,4.26969 0.9223,0.94466 1.56111,1.40016 1.82281,1.29974 0.28226,-0.10831 0.40291,0.0123 0.40291,0.40286 0,0.37244 0.16783,0.55748 0.50564,0.55748 0.64472,0 1.812633,1.37693 2.468633,2.91041 1.20198,2.80984 1.55965,3.46072 2.37827,4.32802 0.47584,0.50412 1.01254,1.07601 1.19266,1.27085 0.96404,1.04283 1.45134,1.36312 2.15853,1.41875 0.81148,0.0638 2.40877,1.03667 2.40877,1.46707 0,0.13561 0.11654,0.24656 0.25897,0.24656 0.14244,0 0.82705,0.56646 1.52136,1.2588 0.6943,0.69234 1.56003,1.45323 1.92383,1.69087 1.06974,0.69877 0.51702,0.72186 -1.19062,0.0498 z m -23.579193,-14.0936 c -0.43106,-0.72973 -0.89477,-1.06891 -0.89477,-0.65447 0,0.29572 1.11565,1.72537 1.24527,1.59575 0.0711,-0.0711 -0.0867,-0.49464 -0.3505,-0.94128 z m -0.9616,-2.20113 c -0.0348,-0.61072 -0.9915,-2.10488 -0.9915,-1.54854 0,0.40193 0.7281,2.14385 0.89609,2.14385 0.0712,0 0.11408,-0.26789 0.0954,-0.59531 z m 1.25857,-1.25496 c -0.14286,-0.23116 -0.27356,-1.0299 -0.50643,-3.09501 -0.036,-0.31881 -0.2151,-0.76008 -0.39812,-0.9806 -0.18301,-0.22051 -0.26678,-0.50767 -0.18615,-0.63813 0.0806,-0.13046 -0.0244,-0.4631 -0.23339,-0.73919 -0.51244,-0.67699 -0.51589,-0.0609 -0.008,1.35008 0.2097,0.58208 0.3865,1.49779 0.39289,2.0349 0.006,0.53712 0.13068,1.05016 0.2762,1.1401 0.14552,0.0899 0.26458,0.39462 0.26458,0.67707 0,0.28246 0.12609,0.51355 0.2802,0.51355 0.15411,0 0.20711,-0.11825 0.11779,-0.26277 z m -4.32217,-1.12141 c -0.19634,-0.19634 -0.23077,-0.093 -0.11569,0.34706 0.0936,0.35777 0.2135,0.4777 0.27955,0.27954 0.0636,-0.19088 -0.0101,-0.47285 -0.16386,-0.6266 z m -4.80707,0.0613 c 0,-0.14552 -0.12609,-0.26459 -0.2802,-0.26459 -0.15411,0 -0.20661,0.11907 -0.11668,0.26459 0.0899,0.14552 0.21603,0.26458 0.2802,0.26458 0.0642,0 0.11668,-0.11906 0.11668,-0.26458 z m -0.68806,-2.02876 c -0.20453,-0.67962 -0.55249,-1.4239 -0.77324,-1.65397 -0.78377,-0.81685 -3.03662,-4.11646 -3.03662,-4.44754 0,-0.18502 -0.11906,-0.3364 -0.26458,-0.3364 -0.40477,0 -0.31477,0.70577 0.14916,1.1697 0.22756,0.22756 0.34555,0.52408 0.2622,0.65894 -0.18209,0.29463 1.32164,2.82998 2.16413,3.64883 0.32973,0.32047 0.59951,0.76696 0.59951,0.99219 0,0.22523 0.11104,0.40951 0.24675,0.40951 0.13572,0 0.32288,0.23985 0.41593,0.53301 0.093,0.29315 0.26805,0.47189 0.38891,0.3972 0.12085,-0.0747 0.0524,-0.69186 -0.15215,-1.37147 z m -3.01611,0.97042 c 0,-0.14552 -0.12609,-0.26458 -0.2802,-0.26458 -0.1541,0 -0.20661,0.11906 -0.11667,0.26458 0.0899,0.14552 0.21602,0.26459 0.2802,0.26459 0.0642,0 0.11667,-0.11907 0.11667,-0.26459 z m 7.63922,-1.33018 c -0.5172,-1.07048 -1.29178,-1.83546 -0.90729,-0.89603 0.114,0.27853 0.26718,0.71478 0.34041,0.96944 0.0732,0.25466 0.23831,0.46302 0.36685,0.46302 0.12855,0 0.23555,0.26789 0.23778,0.59532 0.003,0.42945 0.0667,0.49646 0.22894,0.2405 0.13861,-0.2187 0.0363,-0.74512 -0.26669,-1.37225 z m 2.71922,0.85834 c -0.16735,-0.0558 -0.30427,-0.31141 -0.30427,-0.56805 0,-0.41629 -0.26095,-0.81888 -1.36951,-2.11292 -0.58417,-0.68191 -0.56049,0.19217 0.0254,0.937 0.3027,0.38482 0.55037,0.79257 0.55037,0.9061 0,0.40618 1.19067,1.54875 1.29646,1.24408 0.0582,-0.16763 -0.0311,-0.35042 -0.19844,-0.40621 z m -4.90934,-0.61201 c -0.20827,-0.49529 -0.76564,-1.25771 -1.2386,-1.69427 l -0.85994,-0.79375 0.62018,1.05833 c 1.4649,2.49989 2.24606,3.25533 1.47836,1.42969 z m -6.14321,-0.55219 c -0.11987,-0.19158 -0.22202,-0.46739 -0.227,-0.61291 -0.009,-0.25126 -0.69283,-1.84628 -1.22027,-2.84465 -0.13465,-0.25487 -0.30642,-0.95366 -0.38171,-1.55287 -0.0753,-0.59921 -0.3089,-1.33507 -0.51915,-1.63524 -0.24469,-0.34934 -0.29321,-0.65308 -0.13481,-0.84394 0.16205,-0.19525 0.0818,-0.43997 -0.23239,-0.70902 -0.45199,-0.38701 -0.47515,-0.35539 -0.39892,0.54472 0.27716,3.27247 1.37088,6.58789 2.56829,7.78529 0.52875,0.52876 0.90268,0.43877 0.54596,-0.13138 z m -8.00484,-0.9238 c -0.2306,-0.39655 -0.28223,-0.40798 -0.28884,-0.0639 -0.009,0.44558 0.26967,0.84677 0.45718,0.65925 0.0619,-0.0618 -0.0139,-0.32973 -0.16834,-0.59531 z m 4.86623,-0.5143 c -0.61396,-0.93701 -0.76246,-0.64171 -0.22205,0.44156 0.24499,0.49109 0.49482,0.74473 0.55519,0.56364 0.0604,-0.1811 -0.0896,-0.63343 -0.33314,-1.0052 z m -0.81381,-3.20485 c -0.12156,-1.13511 -0.38627,-2.04554 -0.72987,-2.51028 -0.29652,-0.40107 -0.58403,-0.68432 -0.6389,-0.62945 -0.22709,0.22709 1.14479,4.92081 1.43825,4.92081 0.0667,0 0.0354,-0.80149 -0.0695,-1.78108 z m -4.98879,-0.43886 c -0.21038,-0.69907 -0.32684,-1.41612 -0.25879,-1.59346 0.068,-0.17734 -0.0584,-0.6718 -0.28112,-1.09879 -0.22266,-0.427 -0.41463,-1.01448 -0.4266,-1.30552 -0.012,-0.29104 -0.19128,-0.94589 -0.39848,-1.45521 -0.37487,-0.9215 -0.37603,-0.91826 -0.23672,0.66146 0.077,0.87312 0.20652,2.03398 0.28782,2.57969 0.11988,0.80472 0.0655,0.99218 -0.28794,0.99218 -0.23966,0 -0.36021,0.12222 -0.26789,0.2716 0.0923,0.14938 0.36014,0.23868 0.59514,0.19844 0.28327,-0.0485 0.51237,0.21663 0.67978,0.78673 0.13888,0.47295 0.35434,0.8599 0.47881,0.8599 0.12447,0 0.23571,0.20836 0.2472,0.46302 0.0115,0.25466 0.0727,0.33881 0.1361,0.18701 0.0634,-0.15181 -0.0569,-0.84798 -0.26731,-1.54705 z m 2.49157,1.2939 c 0,-0.21829 -0.11906,-0.39688 -0.26458,-0.39688 -0.14552,0 -0.26458,0.17859 -0.26458,0.39688 0,0.21828 0.11906,0.39687 0.26458,0.39687 0.14552,0 0.26458,-0.17859 0.26458,-0.39687 z m -0.90671,-3.49365 c -0.0847,-0.97563 -0.26316,-1.8831 -0.39668,-2.01662 -0.13352,-0.13352 -0.18821,-0.38491 -0.12154,-0.55864 0.0667,-0.17374 -0.061,-0.66525 -0.28363,-1.09224 -0.22266,-0.427 -0.40558,-0.97769 -0.40647,-1.22376 -0.002,-0.48326 -0.4674,-0.89481 -0.7231,-0.63912 -0.13759,0.13759 0.28939,1.97159 0.97376,4.1826 0.14722,0.47562 0.11989,0.76337 -0.0817,0.8599 -0.22356,0.10706 -0.22017,0.18421 0.0129,0.29445 0.17372,0.0822 0.45085,0.55841 0.61584,1.05833 0.16499,0.49992 0.35949,0.90895 0.43223,0.90895 0.0727,0 0.063,-0.79823 -0.0217,-1.77385 z m 3.84996,-2.53004 c -0.26131,-0.25936 -0.2917,-0.22897 -0.14811,0.14812 0.0994,0.26093 0.2473,0.40778 0.32876,0.32632 0.0815,-0.0815 1.7e-4,-0.29496 -0.18065,-0.47444 z m -8.23491,-2.00201 c 0,-0.37936 -0.30057,-0.54285 -0.70951,-0.38592 -0.3205,0.12298 -0.32794,0.19224 -0.0403,0.37459 0.45242,0.28679 0.74979,0.29129 0.74979,0.0113 z m -0.79375,-1.35871 c 0,-0.14095 -0.1786,-0.18775 -0.39688,-0.10398 -0.21828,0.0838 -0.39687,0.19908 -0.39687,0.25628 0,0.0572 0.17859,0.10398 0.39687,0.10398 0.21828,0 0.39688,-0.11533 0.39688,-0.25628 z m 3.23937,-1.03493 c -0.13875,-0.0902 -0.39782,-0.61048 -0.57572,-1.15619 -0.36831,-1.12983 -0.89063,-1.37835 -0.55607,-0.26458 0.35107,1.16878 0.60067,1.76062 0.91005,2.15787 0.2422,0.31099 0.30476,0.29451 0.38184,-0.10059 0.0507,-0.25988 -0.0214,-0.54631 -0.1601,-0.63651 z m 1.28335,-1.70023 c -0.34553,-0.34553 -0.39359,0.0374 -0.0988,0.78699 0.18385,0.46745 0.19413,0.46722 0.2894,-0.006 0.0543,-0.27012 -0.0315,-0.62135 -0.19063,-0.78052 z m -1.87689,-7.34375 c 0,-0.13648 -0.23813,-0.24814 -0.52917,-0.24814 -0.29104,0 -0.52916,0.0937 -0.52916,0.20828 0,0.11455 0.23812,0.22621 0.52916,0.24814 0.29104,0.0219 0.52917,-0.0718 0.52917,-0.20828 z m 78.184383,44.52919 c -0.43657,-0.25279 -0.83121,-0.54223 -0.87699,-0.6432 -0.0458,-0.10096 -0.25414,-0.11799 -0.46302,-0.0378 -0.20888,0.0802 -0.37978,0.0139 -0.37978,-0.14715 0,-0.16109 -0.17157,-0.29289 -0.38126,-0.29289 -0.2097,0 -0.44725,-0.10677 -0.5279,-0.23726 -0.24372,-0.39434 3.09147,-0.0452 3.76141,0.39379 0.66626,0.43655 0.6993,1.25078 0.0551,1.35838 -0.21661,0.0362 -0.75102,-0.14104 -1.18758,-0.39383 z m -47.236853,-0.94775 c -1.38713,-1.08897 -2.55122,-2.46409 -2.29925,-2.71606 0.23634,-0.23634 0.9703,0.22734 1.1234,0.70971 0.0872,0.27464 0.24053,0.48224 0.3408,0.46132 0.49147,-0.10251 1.63752,0.41464 1.63752,0.73892 0,0.20251 0.16402,0.36819 0.36448,0.36819 0.42004,0 1.0423,0.6752 1.12187,1.21732 0.10102,0.68833 -0.81775,0.37546 -2.28882,-0.7794 z m 20.646223,0.64275 c -0.21828,-0.11612 -1.43867,-0.71721 -2.71198,-1.33576 -1.27331,-0.61855 -2.3151,-1.20852 -2.3151,-1.31105 0,-0.27632 -1.6317,-1.43247 -2.02167,-1.43247 -0.18497,0 -0.27324,-0.10203 -0.19617,-0.22674 0.16367,-0.26483 -2.24828,-1.39256 -2.48088,-1.15996 -0.17809,0.17809 -1.3867,-0.88267 -1.3867,-1.21706 0,-0.36965 2.55634,-0.24822 2.87572,0.13661 0.16208,0.19529 0.21635,0.43342 0.1206,0.52917 -0.0958,0.0958 0.0744,0.17409 0.37821,0.17409 0.30377,0 1.05467,0.49737 1.66868,1.10527 l 1.11637,1.10527 -0.19066,-1.27139 c -0.25656,-1.71089 -0.33896,-1.87896 -1.08868,-2.22055 -0.68465,-0.31195 -0.87819,-0.83526 -0.3089,-0.83526 0.1859,0 0.60842,0.1894 0.93893,0.4209 0.55082,0.38581 0.67848,0.38411 1.53099,-0.0204 l 0.93007,-0.44134 -0.58656,-0.50873 c -0.32262,-0.2798 -0.68742,-0.50873 -0.81067,-0.50873 -0.12325,0 -0.2241,-0.17859 -0.2241,-0.39687 0,-0.56814 0.32162,-0.50161 2.11185,0.4368 1.55221,0.81365 3.14932,2.43 2.68476,2.71712 -0.12792,0.0791 -0.72671,-0.2142 -1.33064,-0.65168 l -1.09806,-0.79543 0.17618,0.73409 c 0.0969,0.40376 0.21793,0.78268 0.26896,0.84205 0.051,0.0594 -0.0527,0.28327 -0.23058,0.49756 -0.26191,0.31559 -0.22377,0.46207 0.20073,0.77089 2.77372,2.01787 4.20184,2.98922 4.39489,2.98922 0.12663,0 0.23024,0.11907 0.23024,0.26459 0,0.42751 -0.51033,0.3121 -2.22333,-0.50283 -0.88722,-0.42208 -1.96477,-1.13849 -2.39456,-1.59203 l -0.78144,-0.82461 -0.59097,0.68775 c -0.61575,0.7166 -0.57735,1.43797 0.0765,1.43797 0.2088,0 0.61618,0.22037 0.90529,0.48972 0.28911,0.26935 1.1771,0.81933 1.97331,1.22217 0.79621,0.40285 1.44765,0.77778 1.44765,0.83319 0,0.16806 -0.63637,0.083 -1.05833,-0.1415 z m 13.75833,-0.15462 c -0.18115,-0.21829 -0.44123,-0.39688 -0.57794,-0.39688 -0.60316,0 -3.38784,-1.49132 -4.75752,-2.54786 -0.82446,-0.63597 -1.6016,-1.15631 -1.72698,-1.15631 -0.41279,0 -1.93339,-1.54896 -1.93339,-1.96946 0,-0.46372 0.41117,-0.55219 0.66413,-0.14289 0.0914,0.1479 0.26303,0.20905 0.38139,0.1359 0.11836,-0.0731 0.51587,0.1035 0.88334,0.39256 0.36748,0.28906 0.7513,0.52556 0.85292,0.52556 0.10162,0 0.41338,0.29063 0.69279,0.64584 0.64877,0.82478 3.52466,2.83955 4.95223,3.46939 0.70413,0.31066 1.0982,0.65613 1.0982,0.96277 0,0.58181 -0.10096,0.59734 -0.52917,0.0814 z M 24.929317,167.93354 c 0.15974,-0.42321 0.38034,-0.71392 0.49022,-0.64601 0.10987,0.0679 1.05594,-0.68362 2.10238,-1.67006 1.78579,-1.6834 2.59667,-2.68736 3.77277,-4.67116 0.47697,-0.80451 0.47697,-0.81207 0,-0.28378 -0.2695,0.29851 -0.92576,0.86193 -1.45835,1.25204 -0.53258,0.39012 -1.41408,1.1297 -1.95888,1.64351 -1.84087,1.73616 -1.18488,0.7701 1.20921,-1.78079 1.30871,-1.39442 2.37947,-2.6572 2.37947,-2.80618 0,-0.14898 0.20844,-0.33703 0.4632,-0.41789 0.25476,-0.0809 0.61203,-0.48323 0.79393,-0.89417 0.38169,-0.8623 1.29221,-1.90489 1.66359,-1.90489 0.47216,0 0.25856,0.68368 -0.56236,1.79996 -0.62305,0.84721 -0.71713,1.11046 -0.39688,1.11046 0.81879,0 0.39366,0.95145 -1.30043,2.91041 -3.34348,3.86624 -5.56793,6.12528 -6.52208,6.6235 l -0.96624,0.50453 z m 7.59515,-8.50644 c 0,-0.14552 -0.11906,-0.191 -0.26458,-0.10106 -0.14552,0.0899 -0.26459,0.28258 -0.26459,0.4281 0,0.14552 0.11907,0.191 0.26459,0.10106 0.14552,-0.0899 0.26458,-0.28258 0.26458,-0.4281 z m 90.289073,8.48965 c -0.32743,-0.13161 -0.59532,-0.36219 -0.59532,-0.5124 0,-0.45387 0.64699,-0.30716 1.12924,0.25606 0.49138,0.57389 0.38417,0.62537 -0.53392,0.25634 z m 9.37338,-0.36894 c -0.70185,-0.34387 -1.54296,-0.87593 -1.86914,-1.18235 -0.32617,-0.30642 -0.70442,-0.55919 -0.84057,-0.5617 -0.13614,-0.003 -0.52791,-0.30017 -0.87061,-0.66146 -0.3427,-0.36129 -0.84069,-0.65689 -1.10665,-0.65689 -0.26596,0 -0.55652,-0.22985 -0.64568,-0.51078 -0.091,-0.28658 -0.50525,-0.58614 -0.94387,-0.68248 -0.76644,-0.16834 -1.0416,-0.73159 -0.51606,-1.05639 0.37672,-0.23283 2.29104,0.86177 3.76659,2.15372 0.68979,0.60396 1.7224,1.34218 2.29469,1.64047 0.5723,0.2983 1.25808,0.72539 1.52397,0.9491 0.26588,0.2237 0.72155,0.5838 1.01259,0.80021 l 0.52917,0.39349 -0.52917,1.4e-4 c -0.29104,8e-5 -1.10341,-0.28121 -1.80526,-0.62508 z m 4.80736,-0.3949 c -0.96823,-0.40414 -2.21575,-1.11013 -2.77227,-1.56886 -0.55652,-0.45873 -1.14487,-0.83406 -1.30744,-0.83406 -0.16257,0 -0.52239,-0.25099 -0.79961,-0.55776 -0.40219,-0.44507 -2.68295,-1.81048 -3.28215,-1.96491 -0.0728,-0.0188 -0.70776,-0.29228 -1.4111,-0.60783 -1.31999,-0.59223 -1.52892,-1.16634 -0.48053,-1.32044 1.20039,-0.17643 6.32324,2.9165 7.26259,4.3848 0.11637,0.1819 0.36687,0.33073 0.55668,0.33073 0.1898,0 0.6899,0.32318 1.11133,0.71819 0.42143,0.395 0.8853,0.72653 1.03082,0.73672 0.39983,0.028 1.98079,1.03037 1.9827,1.25707 9.2e-4,0.10914 -0.0281,0.19004 -0.0645,0.17979 -0.0364,-0.0102 -0.85833,-0.3493 -1.82655,-0.75344 z m 5.92759,0.14769 c -0.32742,-0.16216 -0.59531,-0.38986 -0.59531,-0.50599 0,-0.20155 0.46188,0.004 1.32292,0.58831 0.5165,0.35059 0.037,0.29634 -0.72761,-0.0823 z M 23.824867,166.93336 c 0.16494,-0.4467 2.36941,-2.18337 2.77151,-2.18337 0.70332,0 0.34816,0.92687 -0.58269,1.52066 -1.08248,0.69051 -2.33963,1.07115 -2.18882,0.66271 z m 97.202733,-0.0573 c -1.37607,-0.57628 -3.44078,-2.91985 -2.57241,-2.91985 0.33127,0 1.43768,0.80036 2.50626,1.813 1.30475,1.23642 1.3286,1.63555 0.0662,1.10685 z m -35.513513,-0.18239 c -1.09666,-0.44413 -3.6316,-3.63375 -3.38877,-4.26398 0.16101,-0.41788 0.20028,-0.41166 0.44994,0.0713 0.2973,0.57513 2.86935,3.0427 3.17153,3.0427 0.10214,0 0.37391,0.1882 0.60392,0.41821 0.65535,0.65535 0.12346,1.12057 -0.83662,0.73175 z m 60.318203,-0.14996 c -0.32742,-0.15791 -0.59531,-0.40072 -0.59531,-0.53957 0,-0.13885 -0.17967,-0.18351 -0.39927,-0.0992 -0.24752,0.095 -1.20538,-0.4976 -2.5203,-1.5592 -1.16657,-0.94182 -2.21585,-1.7124 -2.33173,-1.7124 -0.11588,0 -0.67246,-0.34431 -1.23684,-0.76512 -0.56438,-0.42081 -1.18091,-0.70573 -1.37005,-0.63315 -0.18914,0.0726 -0.3439,0.008 -0.3439,-0.1431 0,-0.15128 -0.23812,-0.35063 -0.52917,-0.44301 -0.29104,-0.0924 -0.52916,-0.35126 -0.52916,-0.5753 0,-0.26275 0.14856,-0.35034 0.41851,-0.24676 0.23019,0.0883 0.6469,0.1606 0.92604,0.1606 0.27914,0 0.75,0.24247 1.04635,0.53882 0.29635,0.29635 0.62847,0.48341 0.73804,0.41569 0.26499,-0.16377 2.20051,1.15059 3.32706,2.25932 1.38296,1.36109 2.20078,1.95608 3.7966,2.76213 1.37232,0.69316 0.99155,1.2499 -0.39687,0.58029 z m -6.41615,-0.8677 c -0.80036,-0.50275 -1.62388,-0.91678 -1.83003,-0.92007 -0.20616,-0.003 -0.29424,-0.0866 -0.19574,-0.18506 0.16479,-0.1648 -0.57139,-0.70167 -4.18542,-3.05224 -0.72402,-0.47091 -1.486,-0.88108 -1.6933,-0.91151 -0.2073,-0.0304 -0.44836,-0.16396 -0.53569,-0.29675 -0.0873,-0.13279 -0.4986,-0.32468 -0.91394,-0.42643 -1.02561,-0.25123 -2.02296,-0.93513 -2.02296,-1.38717 0,-0.49524 1.01157,-0.24156 2.91041,0.72985 0.80037,0.40945 1.86595,0.93828 2.36797,1.17516 0.50202,0.23688 1.63311,1.08569 2.51354,1.88624 0.88043,0.80055 2.52352,1.99006 3.65131,2.64336 1.91364,1.10851 2.50283,1.67883 1.71979,1.66468 -0.1819,-0.003 -0.98557,-0.41731 -1.78594,-0.92006 z m 8.72105,-0.60811 c -1.60345,-0.83304 -2.1712,-1.22047 -3.26857,-2.23045 -0.77223,-0.71072 -0.99138,-1.06691 -0.78402,-1.27428 0.20736,-0.20736 0.71598,0.0869 1.81959,1.05262 0.84248,0.73723 1.69185,1.34042 1.88749,1.34042 0.19564,0 0.35571,0.09 0.35571,0.2 0,0.11 0.35719,0.3581 0.79375,0.55134 0.80955,0.35834 1.06831,0.83616 0.45282,0.83616 -0.18751,0 -0.75306,-0.21411 -1.25677,-0.47581 z m -68.072813,-1.45804 c -0.81232,-0.91864 -2.40851,-3.86282 -2.20473,-4.06661 0.0694,-0.0693 0.59967,0.50825 1.17849,1.28355 0.57882,0.77529 1.48238,1.81993 2.00791,2.32142 0.52553,0.50149 0.95551,1.00751 0.95551,1.12448 0,0.53139 -1.26345,0.0991 -1.93718,-0.66284 z m 69.935103,0.39979 c -0.5235,-0.25456 -1.09857,-0.81609 -1.32292,-1.29175 -0.26626,-0.56451 -0.8105,-1.03656 -1.65365,-1.43429 -0.69122,-0.32607 -1.25677,-0.67537 -1.25677,-0.77622 0,-0.10086 -0.50601,-0.52664 -1.12448,-0.9462 -0.61846,-0.41955 -1.21969,-0.91199 -1.33606,-1.09431 -0.11637,-0.18233 -0.37576,-0.3315 -0.57641,-0.3315 -0.20066,0 -0.5554,-0.19056 -0.78831,-0.42348 -0.47255,-0.47254 -2.7709,-1.69036 -3.19342,-1.69208 -0.1495,-6.1e-4 -0.59954,-0.37459 -1.00009,-0.83106 -0.40054,-0.45647 -0.81356,-0.74466 -0.9178,-0.64042 -0.17536,0.17536 1.22804,1.57609 3.75868,3.75151 0.89283,0.76752 0.95955,0.89386 0.47199,0.89386 -0.67601,0 -2.43785,-0.80027 -2.43785,-1.10733 0,-0.11857 -0.14883,-0.21877 -0.33073,-0.22266 -0.1819,-0.004 -0.84694,-0.48014 -1.47787,-1.05833 -0.63093,-0.57819 -1.37507,-1.05126 -1.65364,-1.05126 -0.32278,0 -0.50651,-0.18395 -0.50651,-0.50712 0,-0.27891 -0.0969,-0.5468 -0.21526,-0.59531 -0.29717,-0.12175 -2.95974,-3.59421 -2.95974,-3.86002 0,-0.11832 -0.35719,-0.42612 -0.79375,-0.684 -0.74462,-0.43986 -0.79375,-0.44076 -0.79375,-0.0145 0,0.83665 2.79758,4.18294 5.39625,6.45466 2.15098,1.88036 2.47742,2.26359 1.99175,2.33823 -0.31949,0.0491 -0.91704,-0.15926 -1.32789,-0.46302 -0.41086,-0.30376 -0.93043,-0.55229 -1.1546,-0.55229 -0.22418,0 -0.41079,-0.14883 -0.41471,-0.33073 -0.004,-0.1819 -0.48016,-0.62256 -1.05833,-0.97923 -0.57817,-0.35668 -1.05122,-0.73321 -1.05122,-0.83674 0,-0.10353 -0.65484,-0.84833 -1.45521,-1.65511 -0.80036,-0.80679 -1.45521,-1.59111 -1.45521,-1.74295 0,-0.15184 -0.11906,-0.27608 -0.26458,-0.27608 -0.14552,0 -0.26458,-0.16217 -0.26458,-0.36038 0,-0.19821 -0.44454,-0.90858 -0.98787,-1.57859 -1.21364,-1.4966 -1.81427,-1.2366 -0.77415,0.33512 0.38702,0.58484 0.70368,1.12311 0.70368,1.19617 0,0.34854 1.89328,3.01153 2.64119,3.71498 1.06434,1.00104 1.48128,1.71979 0.99766,1.71979 -0.48967,0 -4.04926,-3.5008 -4.55602,-4.48078 -0.23063,-0.44599 -0.53534,-0.81089 -0.67712,-0.81089 -0.34402,0 -0.33051,0.71757 0.0176,0.93269 0.15144,0.0936 0.20546,0.39035 0.12005,0.65945 -0.11181,0.35228 0.23707,0.88409 1.24601,1.89936 2.18634,2.20004 2.48915,2.59392 1.99419,2.59392 -0.22834,0 -0.84428,-0.41672 -1.36874,-0.92604 -0.52446,-0.50933 -1.01888,-0.92605 -1.09871,-0.92605 -0.0798,0 -0.58368,-0.41568 -1.11967,-0.92374 -0.53598,-0.50806 -1.06382,-0.92478 -1.17296,-0.92604 -0.10914,-0.001 -0.19844,-0.17626 -0.19844,-0.38887 0,-0.21261 -0.22902,-0.59993 -0.50893,-0.86071 -0.27991,-0.26078 -0.87523,-1.17048 -1.32292,-2.02155 l -0.81398,-1.5474 v 0.9529 c 0,0.52947 0.13227,0.95291 0.29766,0.95291 0.19069,0 0.23966,0.28996 0.13627,0.80691 -0.0891,0.44542 -0.0562,0.74192 0.0733,0.66185 0.20378,-0.12594 0.6235,0.41356 1.745,2.24295 0.14733,0.24033 0.907,1.17471 1.68814,2.07639 1.45229,1.6764 1.67796,2.45917 0.38208,1.32529 -1.37303,-1.20139 -3.66472,-3.54432 -4.11106,-4.20297 -0.43416,-0.64069 -0.44867,-0.64346 -0.46211,-0.0882 -0.008,0.31529 0.0868,0.61295 0.20982,0.66145 0.12303,0.0485 0.68845,0.74304 1.25649,1.54341 0.56803,0.80036 1.41987,1.84613 1.89297,2.32392 0.47309,0.47779 0.86017,0.98381 0.86017,1.12448 0,0.39458 -0.69012,0.30256 -1.05833,-0.14111 -0.18116,-0.21828 -0.471,-0.39688 -0.6441,-0.39688 -0.1731,0 -0.5788,-0.35718 -0.90157,-0.79375 -0.32276,-0.43656 -0.70805,-0.79375 -0.85619,-0.79375 -0.313,0 -1.54619,-1.34103 -1.55853,-1.69481 -0.005,-0.13179 -0.29704,-0.61809 -0.64988,-1.08068 -0.6009,-0.78782 -1.31191,-3.46106 -1.0383,-3.90377 0.22375,-0.36204 0.76072,-0.20894 1.24309,0.35442 0.6551,0.7651 0.79006,0.49862 0.27269,-0.53847 -0.237,-0.47508 -0.45591,-1.18151 -0.48646,-1.56985 -0.0507,-0.64505 -0.67828,-1.80855 -2.07275,-3.84304 -0.67436,-0.98388 -0.95077,-3.06963 -0.40679,-3.06963 0.20811,0 0.50781,0.12944 0.66601,0.28764 0.78928,0.78928 0.40695,-0.42744 -0.87163,-2.77388 -1.5495,-2.84362 -1.62451,-3.10575 -1.02997,-3.59918 0.21828,-0.18115 0.39688,-0.48664 0.39688,-0.67885 0,-0.19221 0.2521,-0.52605 0.56023,-0.74187 0.52289,-0.36625 0.53918,-0.48013 0.24445,-1.70869 -0.17681,-0.73702 -0.23884,-1.82931 -0.14095,-2.48204 0.13444,-0.89653 0.078,-1.2461 -0.24446,-1.51371 -0.2306,-0.19138 -0.41927,-0.51198 -0.41927,-0.71244 0,-0.20046 -0.10933,-0.36448 -0.24295,-0.36448 -0.13362,0 -0.40151,-0.0602 -0.59531,-0.1337 -0.51158,-0.19411 -1.93987,1.13888 -1.93987,1.81044 0,0.38617 -0.14303,0.54867 -0.43989,0.49978 -0.33148,-0.0546 -0.40319,0.0679 -0.29096,0.49712 0.11398,0.43587 -0.11935,0.80997 -0.99406,1.59379 -1.19784,1.07337 -1.63243,1.1933 -2.76453,0.76288 -0.42282,-0.16076 -0.86229,-0.1682 -1.1417,-0.0193 -0.61654,0.32851 -1.47671,0.63593 -1.67592,0.59897 -0.0898,-0.0167 -0.438,0.26209 -0.77373,0.61946 -0.65723,0.69958 -1.9884,0.87272 -2.91152,0.37868 -0.39416,-0.21094 -0.848,-0.0987 -2.04637,0.50628 -1.659113,0.83751 -2.174863,1.5645 -2.174863,3.06563 0,0.49208 -0.18618,1.08088 -0.41374,1.30844 -0.22756,0.22756 -0.35448,0.50964 -0.28205,0.62684 0.21013,0.34 -0.27374,0.9354 -0.59755,0.73528 -0.44006,-0.27197 -0.35678,-0.77732 0.23232,-1.40964 0.28956,-0.31081 0.42892,-0.6254 0.30968,-0.69909 -0.11923,-0.0737 -0.18546,-0.68896 -0.14717,-1.36726 0.0797,-1.41252 0.77057,-2.34022 2.193843,-2.94605 1.08285,-0.46093 1.40543,-0.76468 1.91205,-1.80045 0.34036,-0.69586 0.50999,-0.7841 1.40232,-0.72942 0.55832,0.0342 1.17209,0.19248 1.36393,0.35169 0.20465,0.16984 1.01846,0.24389 1.9691,0.17916 1.34713,-0.0917 1.73339,-0.23227 2.29108,-0.83371 0.57692,-0.62219 0.84264,-0.71148 1.89921,-0.63824 1.06288,0.0737 1.26364,0.005 1.48962,-0.51016 0.14364,-0.32743 0.352,-0.59532 0.46302,-0.59532 0.11101,0 0.20265,-0.32742 0.20365,-0.7276 0.003,-1.1544 1.47801,-2.02133 3.1638,-1.85934 0.72307,0.0695 1.3484,0.0285 1.38963,-0.091 0.12246,-0.35497 2.18446,0.47494 2.27381,0.91517 0.0452,0.22266 0.43215,0.48171 0.8599,0.57566 0.90003,0.19768 0.95263,0.33453 0.3147,0.81879 -0.29137,0.22118 -0.33846,0.3546 -0.12704,0.3599 0.1848,0.005 0.79489,0.2981 1.35577,0.65217 0.87211,0.55054 1.1245,0.94323 1.74305,2.71198 0.91008,2.60241 0.84594,2.44968 1.42411,3.39114 0.2681,0.43656 0.42617,0.95943 0.35128,1.16193 -0.1082,0.29253 0.0674,0.33 0.85442,0.18234 0.71106,-0.13339 1.17109,-0.0676 1.63018,0.23323 0.60372,0.39557 0.63958,0.38906 0.63958,-0.11619 0,-0.2944 0.17293,-0.53527 0.38428,-0.53527 0.40843,0 3.0553,2.51261 3.0553,2.90032 0,0.12611 0.59532,0.59559 1.32292,1.04329 0.80742,0.49681 1.32292,1.00228 1.32292,1.29719 0,0.49696 1.08039,2.74536 1.99507,4.15191 0.87513,1.34574 2.03884,2.5163 3.0875,3.10568 0.55156,0.31 1.00285,0.66077 1.00285,0.7795 0,0.11872 0.21536,0.21586 0.47859,0.21586 0.26323,0 0.70971,0.17481 0.99219,0.38846 0.28247,0.21365 0.90054,0.39225 1.37349,0.39688 0.60689,0.006 0.85989,0.13247 0.85989,0.43006 0,0.2319 0.23813,0.48391 0.52917,0.56002 0.29104,0.0761 0.52917,0.24356 0.52917,0.37211 0,0.12854 0.17859,0.23372 0.39687,0.23372 0.21828,0 0.62647,0.20836 0.90708,0.46302 0.93531,0.84882 1.24552,1.05814 1.89137,1.27627 0.35262,0.1191 0.78806,0.18841 0.96764,0.15404 0.19862,-0.038 0.26323,0.10237 0.16497,0.35844 -0.13069,0.34058 -0.0317,0.38837 0.51835,0.2503 0.37394,-0.0938 0.83549,-0.0738 1.02566,0.0446 0.19017,0.11837 0.84926,0.23861 1.46465,0.2672 0.85331,0.0396 1.40283,0.28464 2.31511,1.03219 0.65792,0.53911 1.19621,1.07048 1.19621,1.18082 0,0.36129 1.53548,0.84614 2.10611,0.66503 0.3067,-0.0973 0.78954,-0.42591 1.07299,-0.73016 0.44469,-0.47732 0.60945,-0.51031 1.2015,-0.24055 0.37738,0.17194 0.78805,0.24964 0.91261,0.17266 0.12456,-0.077 0.29292,-0.0325 0.37413,0.0989 0.0812,0.1314 0.56899,0.31795 1.08397,0.41456 1.425,0.26733 0.82762,0.67774 -0.74127,0.50926 -0.75891,-0.0815 -1.4609,-0.19785 -1.55998,-0.25857 -0.0991,-0.0607 -0.24877,6.1e-4 -0.33263,0.1363 -0.0838,0.13568 0.621,0.50409 1.56635,0.81868 0.94534,0.31459 1.77824,0.66815 1.85089,0.78569 0.20654,0.33419 -1.27665,0.52524 -1.65408,0.21307 -0.18542,-0.15336 -0.4201,-0.19586 -0.52151,-0.0944 -0.23754,0.23754 0.45256,0.67547 1.07268,0.68072 0.26325,0.002 0.41278,0.11062 0.33228,0.24086 -0.0858,0.13891 -0.59709,0.13553 -1.23667,-0.008 -0.59967,-0.13474 -1.28498,-0.18545 -1.5229,-0.11268 -0.23793,0.0728 -0.87971,0.0293 -1.42619,-0.0966 -0.57681,-0.13286 -1.05505,-0.12944 -1.14009,0.008 -0.0806,0.13037 -0.0105,0.23704 0.15575,0.23704 0.16623,0 0.24767,0.14883 0.18098,0.33073 -0.0667,0.1819 -0.26748,0.29687 -0.44617,0.2555 -0.1787,-0.0414 -0.73437,-0.0906 -1.23484,-0.10944 -0.50046,-0.0188 -0.97148,-0.13379 -1.0467,-0.2555 -0.0752,-0.12171 -0.31918,-0.22129 -0.54212,-0.22129 -1.0382,0 -3.72775,-3.07746 -3.41098,-3.90294 0.12356,-0.322 -0.007,-0.36654 -0.67868,-0.23213 -0.45736,0.0915 -1.12348,0.16632 -1.48026,0.16632 -0.69656,0 -0.71508,-0.022 1.50156,1.78434 0.22214,0.18103 0.88015,0.74478 1.46223,1.25279 0.58208,0.50802 1.29627,1.09431 1.58708,1.30288 0.87635,0.62852 0.29019,0.73217 -0.95237,0.16842 -0.64013,-0.29044 -1.40949,-0.53068 -1.70969,-0.53387 -0.30019,-0.003 -0.89551,-0.37335 -1.32291,-0.82256 -0.86825,-0.91253 -4.74201,-3.54191 -5.82451,-3.95348 -0.51965,-0.19757 -0.665,-0.40162 -0.56325,-0.79074 0.0754,-0.28845 0.0292,-0.52445 -0.10266,-0.52445 -0.1319,0 -0.23981,0.12579 -0.23981,0.27954 0,0.25502 -1.53818,-0.44609 -1.85209,-0.84418 -0.24463,-0.31025 -2.12926,-1.28744 -2.48295,-1.28744 -0.19261,0 -0.67137,-0.29766 -1.06392,-0.66146 -0.7044,-0.65281 -1.21947,-0.84966 -1.21158,-0.46302 0.01,0.46828 0.95311,1.23719 1.91418,1.55989 0.25466,0.0855 0.46302,0.26065 0.46302,0.3892 0,0.12854 0.14883,0.23648 0.33073,0.23985 0.39948,0.007 4.28426,2.80558 5.26119,3.7896 0.38343,0.3862 0.76497,0.70219 0.84787,0.70219 0.0829,0 0.43793,0.26789 0.78894,0.59531 0.35101,0.32742 1.0751,1.0032 1.6091,1.50173 0.534,0.49853 1.18228,1.03431 1.44062,1.19062 1.35635,0.82067 2.42155,1.53912 2.42155,1.63326 0,0.26214 -1.2756,0.0394 -2.11666,-0.36957 z m -5.29167,-8.76968 c 0,-0.27163 -1.04133,-1.07334 -1.39414,-1.07334 -0.11994,0 -0.004,0.29392 0.25731,0.65314 0.47327,0.65026 1.13683,0.89552 1.13683,0.4202 z m -2.24896,-0.54417 c 0.0899,-0.14552 -0.0291,-0.26459 -0.26458,-0.26459 -0.23546,0 -0.35452,0.11907 -0.26459,0.26459 0.0899,0.14552 0.209,0.26458 0.26459,0.26458 0.0556,0 0.17464,-0.11906 0.26458,-0.26458 z m -6.2996,-0.91345 c -0.22521,-0.22521 -0.56681,-0.40551 -0.75911,-0.40067 -0.20009,0.005 -0.079,0.23418 0.28317,0.53579 0.7182,0.5981 1.10059,0.48954 0.47594,-0.13512 z m 9.07773,-0.52615 c 0,-0.0642 -0.11907,-0.19026 -0.26459,-0.28019 -0.14552,-0.0899 -0.26458,-0.0374 -0.26458,0.11667 0,0.15411 0.11906,0.2802 0.26458,0.2802 0.14552,0 0.26459,-0.0525 0.26459,-0.11668 z m -10.31876,-0.64876 c 0,-0.12995 -0.19543,-0.31127 -0.43429,-0.40293 -0.36314,-0.13935 -0.37951,-0.10063 -0.0999,0.23627 0.38103,0.45912 0.53419,0.5069 0.53419,0.16666 z m -9.52886,-2.68394 c -0.28891,-0.73299 -0.5253,-1.38783 -0.5253,-1.45521 0,-0.0674 -0.1786,-0.12249 -0.39688,-0.12249 -0.53475,0 -0.51108,0.11554 0.33073,1.61438 0.94403,1.68083 1.26069,1.6612 0.59145,-0.0367 z m 12.1747,0.95145 c 0,-0.0642 -0.11906,-0.19026 -0.26459,-0.28019 -0.14552,-0.0899 -0.26458,-0.0374 -0.26458,0.11667 0,0.15411 0.11906,0.2802 0.26458,0.2802 0.14553,0 0.26459,-0.0525 0.26459,-0.11668 z m -15.61042,-2.24611 c 0,-0.44639 -1.56749,-3.57728 -2.12868,-4.25179 l -0.55032,-0.66146 0.1866,0.65798 c 0.10262,0.3619 0.45523,1.07627 0.78356,1.5875 0.32834,0.51124 0.752,1.376 0.94147,1.92171 0.31432,0.90525 0.76737,1.34572 0.76737,0.74606 z m 13.49375,-0.0185 c 0,-0.14552 -0.11906,-0.26458 -0.26458,-0.26458 -0.14552,0 -0.26459,0.11906 -0.26459,0.26458 0,0.14552 0.11907,0.26458 0.26459,0.26458 0.14552,0 0.26458,-0.11906 0.26458,-0.26458 z m -8.86525,-0.46302 c -0.10484,-0.25466 -0.25515,-0.70115 -0.33402,-0.99219 -0.0789,-0.29104 -0.30349,-0.76402 -0.49915,-1.05106 -0.19566,-0.28704 -0.35575,-0.73771 -0.35575,-1.00149 0,-0.55937 -0.74736,-1.78391 -1.08876,-1.78391 -0.38424,0 -0.2652,0.96777 0.16272,1.32292 0.21828,0.18116 0.39688,0.4751 0.39688,0.65321 0,0.1781 0.17129,0.66954 0.38065,1.09208 0.20937,0.42254 0.50408,1.09567 0.65491,1.49586 0.15084,0.40018 0.409,0.7276 0.5737,0.7276 0.1814,0 0.2243,-0.18251 0.10882,-0.46302 z m 4.10949,-1.94681 c -0.44004,-0.93017 -0.80017,-1.81776 -0.80028,-1.97244 -1.1e-4,-0.15467 -0.36733,-0.63092 -0.81603,-1.05833 l -0.81582,-0.77711 0.19253,1.05834 c 0.10589,0.58208 0.27943,1.11786 0.38565,1.19062 0.10621,0.0728 0.41646,0.4916 0.68944,0.93075 0.73982,1.19021 1.76905,2.51491 1.87311,2.41085 0.0503,-0.0503 -0.26856,-0.85251 -0.7086,-1.78268 z m 1.76412,0.36434 c -0.0671,-0.25743 -0.12639,-0.11086 -0.13178,0.3257 -0.005,0.43656 0.0495,0.64719 0.12197,0.46805 0.0725,-0.17913 0.0769,-0.53631 0.01,-0.79375 z m -9.47634,-0.43386 c -0.17433,-0.38261 -0.41317,-0.69565 -0.53077,-0.69565 -0.11759,0 -0.14566,-0.17759 -0.0624,-0.39464 0.0873,-0.22764 -0.033,-0.46541 -0.2843,-0.56186 -0.78769,-0.30226 -0.7465,0.11245 0.13279,1.33684 0.93272,1.29879 1.25492,1.43522 0.74465,0.31531 z m 11.19357,0.30536 c -0.18985,-0.18986 -0.31309,-0.20548 -0.31309,-0.0397 0,0.35316 0.3129,0.66606 0.48948,0.48948 0.0752,-0.0752 -0.004,-0.27759 -0.17639,-0.44979 z m -6.50434,-1.15976 c -0.0942,-0.24539 -0.23074,-0.38662 -0.3035,-0.31386 -0.0728,0.0728 -0.0553,0.33306 0.0389,0.57844 0.0942,0.24539 0.23073,0.38663 0.3035,0.31387 0.0728,-0.0728 0.0552,-0.33306 -0.0389,-0.57845 z m 4.50472,-0.24685 c -0.18431,-0.48032 -0.69472,-0.51279 -0.69472,-0.0442 0,0.48166 0.62747,1.08092 0.74926,0.71557 0.0519,-0.15578 0.0274,-0.4579 -0.0545,-0.67138 z m -10.84578,-1.99711 c -0.15731,-0.78652 -1.22602,-2.44269 -1.22602,-1.89994 0,0.3926 1.05735,2.71515 1.23608,2.71515 0.0841,0 0.0796,-0.36684 -0.0101,-0.81521 z m 4.91231,0.23313 c -0.16977,-0.16978 -0.39651,-0.22085 -0.50386,-0.1135 -0.10736,0.10735 -0.0235,0.3013 0.18636,0.431 0.49413,0.30539 0.71726,0.0823 0.3175,-0.3175 z m -2.16958,-0.47984 c 0,-0.32444 -0.48569,-1.21185 -1.15548,-2.1112 l -0.49401,-0.66334 0.19798,0.92216 c 0.10889,0.50719 0.37466,1.1918 0.59059,1.52136 0.40776,0.62232 0.86092,0.79655 0.86092,0.33102 z m -2.00646,-3.53042 c -0.0918,-0.23911 -0.27416,-0.43474 -0.40534,-0.43474 -0.13119,0 -0.0932,0.23271 0.0844,0.51713 0.37451,0.59969 0.56398,0.55105 0.3209,-0.0824 z m -69.542423,23.76969 c -0.37531,-0.29926 -0.68238,-0.67494 -0.68238,-0.83486 0,-0.45245 1.6452,-0.59551 2.06145,-0.17926 0.19859,0.19859 0.58991,0.48354 0.8696,0.63323 0.79212,0.42393 0.60381,0.71804 -0.52888,0.82606 -0.75636,0.0721 -1.2223,-0.0485 -1.71979,-0.44517 z m 5.55091,-0.26806 c -0.28248,-0.21365 -0.72896,-0.38846 -0.99219,-0.38846 -0.26323,0 -0.4786,-0.12609 -0.4786,-0.28019 0,-0.15411 -0.0996,-0.21861 -0.22146,-0.14333 -0.32307,0.19967 -1.36604,-0.59948 -1.36604,-1.04669 0,-0.63587 1.63889,-0.46331 2.64424,0.27841 0.97495,0.7193 1.31421,1.14446 1.32046,1.65482 0.005,0.42945 -0.26999,0.40681 -0.90641,-0.0746 z m 4.41619,-1.65287 c -1.81428,-1.85123 -2.45852,-2.96828 -1.49971,-2.60035 0.23018,0.0883 0.57301,0.1606 0.76185,0.1606 0.45254,0 2.53212,2.02747 2.66422,2.59745 0.0568,0.24489 0.17781,0.69971 0.26902,1.01071 0.32187,1.09751 -0.29799,0.76761 -2.19538,-1.16841 z M 118.64635,162.91 c -0.29104,-0.12038 -0.81781,-0.52955 -1.1706,-0.90927 -0.35279,-0.37971 -0.79252,-0.69039 -0.97719,-0.69039 -0.38522,0 -1.1595,-1.01106 -1.1595,-1.51408 0,-0.90305 2.5097,0.0996 3.26144,1.30301 0.33882,0.5424 0.82722,2.08903 0.6462,2.04638 -0.0392,-0.009 -0.30931,-0.11526 -0.60035,-0.23565 z m -42.929833,-0.73976 c -0.28755,-0.25467 -0.7867,-0.90951 -1.10922,-1.45521 -0.45012,-0.7616 -0.49868,-0.99219 -0.20896,-0.99219 0.2076,0 0.59295,0.23813 0.85634,0.52917 0.26339,0.29104 0.59018,0.52916 0.7262,0.52916 0.33064,0 1.2383,1.10525 1.24937,1.52136 0.0129,0.48406 -0.90871,0.40352 -1.51373,-0.13229 z m 47.728013,-0.0854 c -0.38343,-0.30161 -0.69795,-0.74809 -0.69895,-0.99219 -0.002,-0.44419 -1.4909,-1.63444 -2.0448,-1.63444 -0.47648,0 0.38443,1.47771 1.15509,1.98266 1.08032,0.70785 0.38301,0.98489 -1.08061,0.42931 -1.14021,-0.43282 -2.76246,-1.88219 -2.78325,-2.48664 -0.0128,-0.37342 1.16538,-0.67275 1.52063,-0.38633 0.61716,0.49761 0.68835,-0.0605 0.0891,-0.69841 -0.47599,-0.50667 -0.57427,-0.87747 -0.50816,-1.91719 0.0987,-1.55315 0.72165,-1.76565 1.164,-0.39708 0.15856,0.49057 0.84317,1.64164 1.52136,2.55792 0.67818,0.91628 1.23305,1.80333 1.23305,1.97122 0,0.42335 0.57462,0.95599 1.26912,1.17642 0.63387,0.20118 0.80834,0.94312 0.22177,0.94312 -0.19865,0 -0.6749,-0.24677 -1.05833,-0.54837 z m -63.411463,-0.57713 c -1.72039,-0.80696 -2.81251,-1.81729 -2.504,-2.31646 0.20943,-0.33887 1.45374,-0.34265 1.45374,-0.004 0,0.14178 0.37519,0.45181 0.83377,0.68895 1.2209,0.63135 2.89891,2.56374 2.14279,2.46762 -0.10914,-0.0139 -0.97598,-0.38994 -1.9263,-0.83569 z m 6.22578,0.54461 c -1.1557,-0.65567 -2.18397,-1.94582 -2.33113,-2.92484 -0.11159,-0.74232 -0.0565,-0.99219 0.21874,-0.99219 0.415,0 0.82161,0.52347 2.10658,2.71198 0.91798,1.56348 0.91875,1.72299 0.006,1.20505 z m 18.25625,-0.47745 c -0.0899,-0.14552 -0.0445,-0.26458 0.10106,-0.26458 0.14552,0 0.33817,0.11906 0.4281,0.26458 0.0899,0.14552 0.0445,0.26459 -0.10106,0.26459 -0.14552,0 -0.33817,-0.11907 -0.4281,-0.26459 z m -15.89196,-0.61696 c -1.9156,-1.08571 -3.29033,-2.72419 -3.29033,-3.9216 0,-0.78483 0.97021,-0.58705 1.49729,0.30523 0.25789,0.43656 0.56227,0.79375 0.67642,0.79375 0.11414,0 0.20754,0.13156 0.20754,0.29236 0,0.1608 0.36277,0.82989 0.80617,1.48688 0.89191,1.32157 0.90957,1.50058 0.10291,1.04338 z m 74.001903,-0.41482 c -0.19964,-0.12646 -0.3187,-0.34551 -0.26458,-0.48678 0.0541,-0.14127 0.32758,-0.036 0.6077,0.23398 0.52258,0.50362 0.30541,0.66362 -0.34312,0.2528 z m 22.33469,-1.0666 c -0.18073,-0.29243 0.23665,-0.60819 0.48097,-0.36387 0.25156,0.25156 0.20468,0.61017 -0.0798,0.61017 -0.13693,0 -0.31746,-0.11084 -0.40119,-0.2463 z m 1.04704,-1.22828 c -1.16417,-0.34436 -2.50589,-0.6297 -2.98161,-0.6341 -0.80832,-0.007 -0.85351,-0.0556 -0.69038,-0.73559 0.22581,-0.94125 0.22769,-0.94273 0.80195,-0.63255 0.26883,0.14521 1.61004,0.65947 2.98047,1.14281 1.37042,0.48334 2.5412,1.02763 2.60173,1.20953 0.14553,0.43732 -0.20159,0.39251 -2.71216,-0.3501 z m -34.79271,-0.11292 c 0,-0.14552 0.11906,-0.26458 0.26458,-0.26458 0.14552,0 0.26458,0.11906 0.26458,0.26458 0,0.14552 -0.11906,0.26458 -0.26458,0.26458 -0.14552,0 -0.26458,-0.11906 -0.26458,-0.26458 z m 44.78073,-1.00006 c -0.32742,-0.0523 -0.59531,-0.26539 -0.59531,-0.47355 0,-0.47513 0.25584,-0.46834 0.90672,0.0241 0.59872,0.45296 0.51021,0.5807 -0.31141,0.44947 z m -2.65794,-1.01808 c -1.37175,-0.70527 -2.69024,-1.21962 -3.22904,-1.25966 -0.21828,-0.0162 -0.39688,-0.26762 -0.39688,-0.55866 0,-0.43005 0.14868,-0.51359 0.79375,-0.44602 0.83886,0.0879 3.6426,1.33957 3.79237,1.69307 0.0485,0.11449 0.25686,0.20816 0.46302,0.20816 0.46349,0 0.48737,0.38218 0.0441,0.70592 -0.21524,0.15721 -0.7276,0.0375 -1.46731,-0.34281 z m 5.42283,0.38329 c -0.40745,-0.14858 -0.69767,-0.39963 -0.64492,-0.55788 0.17019,-0.51056 0.57443,-0.44721 1.38576,0.21719 0.83322,0.68232 0.5514,0.81192 -0.74084,0.34069 z m -19.74279,-1.10836 c -0.62582,-1.0126 -0.71338,-1.75471 -0.20702,-1.75471 0.18904,0 0.50353,0.44649 0.69885,0.99219 0.19532,0.5457 0.41057,1.14102 0.47833,1.32292 0.25937,0.69624 -0.44496,0.2894 -0.97016,-0.5604 z m 4.46069,-0.0916 c -1.31348,-1.40664 -1.88894,-2.81893 -2.03769,-5.00088 -0.1369,-2.0082 0.11325,-2.5333 0.85398,-1.79258 0.56774,0.56775 0.79667,0.30477 0.39235,-0.45071 -0.17639,-0.32959 -0.36077,-1.36473 -0.40973,-2.30031 -0.049,-0.93557 -0.19642,-1.83696 -0.3277,-2.00308 -0.45416,-0.57472 -0.93323,-2.42236 -0.86121,-3.32147 0.0912,-1.1383 0.55846,-1.61078 1.593,-1.61078 0.60616,0 0.81265,-0.12101 0.81265,-0.47625 0,-0.26194 -0.0984,-0.58936 -0.21858,-0.72761 -0.12022,-0.13824 -0.37979,-0.78713 -0.57683,-1.44198 -0.19703,-0.65484 -0.44768,-1.31202 -0.55699,-1.46041 -0.1093,-0.14838 -0.46763,-1.08888 -0.79627,-2.09 -0.59002,-1.79731 -0.59165,-1.84053 -0.12914,-3.43438 0.41957,-1.4459 0.49866,-2.02788 0.42611,-3.13552 -0.0119,-0.1819 0.0577,-0.66419 0.15468,-1.07176 0.1682,-0.70684 0.14123,-0.73267 -0.58468,-0.55978 -0.41856,0.0997 -0.97219,0.36486 -1.23029,0.58926 -0.35975,0.31279 -0.54191,0.33537 -0.78052,0.0968 -0.41634,-0.41635 0.0235,-0.8445 0.97136,-0.94556 0.39911,-0.0426 0.80362,-0.18532 0.89892,-0.31726 0.41434,-0.57368 1.60951,-0.96201 2.33569,-0.75892 0.4114,0.11505 0.89847,0.1842 1.08238,0.15365 0.58868,-0.0978 1.36326,0.64244 2.06937,1.97754 0.37789,0.7145 0.85585,1.48819 1.06215,1.7193 0.50349,0.56407 2.57603,0.63956 3.01565,0.10984 0.18156,-0.21877 0.6628,-0.39776 1.06942,-0.39776 0.40662,0 0.77993,-0.12187 0.82958,-0.27082 0.0496,-0.14895 0.5178,-0.3402 1.04033,-0.42499 0.8466,-0.13739 1.05908,-0.0431 1.95114,0.86613 0.5506,0.56117 1.15784,1.38887 1.34944,1.83933 0.1916,0.45047 0.80093,1.40867 1.35407,2.12934 2.18077,2.84127 2.56879,3.7652 2.35285,5.60251 -0.0916,0.77912 -0.3397,1.75154 -0.55141,2.16093 -0.33848,0.65455 -0.33716,0.78398 0.011,1.0729 0.23217,0.19268 0.32963,0.53729 0.23567,0.83332 -0.0881,0.27762 0.0332,0.79995 0.26961,1.16074 0.23639,0.36079 0.35671,0.77426 0.26736,0.91883 -0.0894,0.14456 0.20336,0.85737 0.65046,1.584 0.4471,0.72663 0.81291,1.43108 0.81291,1.56543 0,0.13435 0.35719,0.63535 0.79375,1.11332 0.43657,0.47798 0.7939,1.05087 0.79408,1.2731 1.7e-4,0.22223 0.29783,0.75 0.66146,1.17282 0.6715,0.78081 0.83227,1.21561 0.44946,1.21561 -0.11641,0 -0.3411,-0.12943 -0.4993,-0.28763 -0.17394,-0.17394 -0.34862,-0.18896 -0.44192,-0.038 -0.15391,0.24904 -0.0449,0.37415 1.65764,1.90234 0.49589,0.44512 0.82957,0.88134 0.74152,0.9694 -0.17967,0.17967 -1.62894,-0.66332 -2.43689,-1.41744 -0.29105,-0.27165 -0.73753,-0.57346 -0.99219,-0.67069 -0.67705,-0.25849 -0.57989,-0.98637 0.13229,-0.99103 l 0.59531,-0.004 -0.58753,-0.32683 c -2.09633,-1.16613 -4.25617,-2.9688 -4.59192,-3.83256 -0.12728,-0.32742 -0.41537,-0.59531 -0.64021,-0.59531 -0.34601,0 -0.32485,0.16455 0.1377,1.07122 0.30057,0.58917 0.71971,1.13769 0.93142,1.21893 0.2117,0.0812 0.38492,0.40635 0.38492,0.72245 0,0.31611 0.23812,0.74638 0.52916,0.95615 0.60285,0.4345 0.70481,1.05833 0.17299,1.05833 -0.36416,0 -2.55424,-2.24803 -2.55424,-2.62181 0,-0.11363 -0.23812,-0.42209 -0.52916,-0.68548 -0.29105,-0.26339 -0.52917,-0.63925 -0.52917,-0.83526 0,-0.196 -0.36178,-1.39793 -0.80396,-2.67097 -0.44218,-1.27303 -0.7448,-2.55372 -0.67247,-2.84597 0.0723,-0.29225 0.0238,-0.70563 -0.10785,-0.91863 -0.20468,-0.33118 -0.26409,-0.32276 -0.41025,0.0581 -0.21284,0.55465 0.63664,4.68915 1.07422,5.22831 0.17715,0.21828 0.26802,0.54619 0.20192,0.72867 -0.15784,0.43582 1.67514,4.17598 2.62236,5.35089 0.40803,0.5061 0.74186,1.16865 0.74186,1.47235 0,0.37055 0.3046,0.69742 0.92605,0.99377 0.50932,0.24288 0.92604,0.63485 0.92604,0.87106 0,0.27977 0.14338,0.37444 0.41137,0.2716 0.24426,-0.0937 0.70108,0.11935 1.12448,0.5245 l 0.71311,0.68236 -0.92605,-0.18067 c -0.50932,-0.0994 -1.04997,-0.33684 -1.20144,-0.52771 -0.15147,-0.19087 -0.74678,-0.47418 -1.32292,-0.62957 -0.57613,-0.1554 -1.64282,-0.81169 -2.37043,-1.45844 -1.24798,-1.10929 -1.29754,-1.20197 -0.87493,-1.6363 0.42204,-0.43374 0.39574,-0.52143 -0.45411,-1.51429 -1.01413,-1.18478 -2.94593,-6.04023 -2.61575,-6.57449 0.0768,-0.12419 0.0284,-0.22581 -0.10756,-0.22581 -0.13592,0 -0.24713,-0.2966 -0.24713,-0.65911 0,-0.36251 -0.1492,-1.01932 -0.33156,-1.45958 -0.18236,-0.44026 -0.26462,-1.21304 -0.18279,-1.71729 0.0826,-0.50908 0.0282,-0.99137 -0.12244,-1.08445 -0.17921,-0.11076 -0.24506,0.58328 -0.1941,2.04567 0.0574,1.64759 0.23939,2.57228 0.71198,3.61779 0.34917,0.77247 0.61614,1.81427 0.59327,2.31511 -0.0837,1.83337 0.0564,3.28123 0.30278,3.12895 0.20512,-0.12677 1.6164,2.55392 1.4383,2.73202 -0.1873,0.1873 -1.22325,-0.80585 -1.22325,-1.1727 0,-0.18594 -0.11906,-0.33808 -0.26458,-0.33808 -0.40859,0 -1.2492,-0.93611 -1.46147,-1.62752 -0.10494,-0.34179 -0.27995,-0.7405 -0.38892,-0.88602 -0.47267,-0.63122 -1.09421,-4.56869 -1.13614,-7.19742 -0.0341,-2.14011 0.0611,-3.08905 0.3796,-3.78279 l 0.42517,-0.92604 0.29058,0.72761 c 0.15982,0.40018 0.35679,0.7276 0.43771,0.7276 0.20428,0 0.0819,-1.92451 -0.14306,-2.24896 -0.10089,-0.14552 -0.19059,-0.44318 -0.19935,-0.66146 -0.0191,-0.47573 -0.23844,-1.87832 -0.35172,-2.24895 -0.0445,-0.14553 8.5e-4,-0.65154 0.10071,-1.12448 0.32339,-1.5315 1.64341,-0.80037 1.59567,0.8838 -0.0141,0.49679 0.0748,0.96531 0.19752,1.04115 0.12272,0.0759 0.30455,0.70067 0.40408,1.3885 0.0995,0.68784 0.28917,1.3869 0.42144,1.55349 0.13227,0.16658 0.21741,0.40471 0.1892,0.52916 -0.0282,0.12446 0.0177,0.40489 0.10205,0.62317 0.0843,0.21828 0.22316,0.57547 0.30851,0.79375 0.0853,0.21828 0.0808,-0.13891 -0.01,-0.79375 -0.0908,-0.65485 -0.14659,-1.63405 -0.12389,-2.17601 0.0227,-0.54195 -0.14503,-1.34562 -0.37272,-1.78593 -0.2277,-0.44031 -0.32759,-0.80056 -0.22199,-0.80056 0.10561,0 0.0491,-0.14288 -0.12549,-0.3175 -0.17463,-0.17463 -0.3175,-0.51576 -0.3175,-0.75807 0,-0.24231 -0.22291,-0.72452 -0.49536,-1.07156 -0.27245,-0.34705 -0.58057,-1.13701 -0.68472,-1.75548 -0.22361,-1.32793 -0.75114,-1.46621 -1.90848,-0.50024 -1.15268,0.96207 -2.50667,1.5773 -3.52603,1.60215 -0.90232,0.022 -0.92573,0.0497 -0.91403,1.08091 0.0133,1.17538 0.20922,2.97185 0.64914,5.95312 0.16105,1.09141 0.35039,2.57969 0.42075,3.30729 0.0704,0.72761 0.17316,1.68011 0.22843,2.11667 0.0553,0.43656 0.17888,1.50275 0.27468,2.36931 0.0958,0.86656 0.28989,1.79176 0.4313,2.05599 0.14142,0.26423 0.17804,0.60838 0.0814,0.76477 -0.0967,0.15639 -0.0552,0.54088 0.0921,0.85443 0.70459,1.49984 1.32222,3.87737 1.00726,3.87737 -0.31739,0 -1.47724,-2.03088 -1.47724,-2.58662 0,-0.15383 -0.11674,-0.31938 -0.25942,-0.36789 -0.23901,-0.0813 -0.82888,-2.38262 -0.88725,-3.46163 -0.0138,-0.25466 -0.0888,-0.46324 -0.16679,-0.4635 -0.078,-2.6e-4 -0.15722,-0.6551 -0.17613,-1.45521 -0.0218,-0.9232 0.0748,-1.45621 0.26458,-1.45878 0.1733,-0.002 0.14535,-0.10135 -0.0665,-0.23552 -0.201,-0.1273 -0.3796,-0.48419 -0.39687,-0.79308 -0.0583,-1.0429 -0.56078,-0.69654 -0.53848,0.37119 0.0424,2.02962 0.22304,3.18362 0.69415,4.43461 0.26091,0.69279 0.47437,1.85526 0.47437,2.58328 0,0.72802 0.10141,1.53041 0.22535,1.7831 0.12394,0.25268 0.50578,1.02017 0.84853,1.70551 0.65097,1.30165 0.4888,2.10707 -0.2138,1.06184 -0.22275,-0.33137 -0.80531,-1.03954 -1.29458,-1.57369 -1.16011,-1.26655 -1.62778,-0.92272 -1.01577,0.7468 0.74165,2.02314 0.75056,2.09084 0.27489,2.09084 -0.24384,0 -0.36619,0.12485 -0.27189,0.27743 0.11811,0.19112 0.28272,0.1851 0.52905,-0.0193 0.26962,-0.22376 0.64595,-0.16921 1.5298,0.22176 1.4247,0.63021 1.98765,1.2982 0.81695,0.96938 -0.42189,-0.1185 -1.09449,-0.24005 -1.49468,-0.2701 -0.40018,-0.0301 -0.8169,-0.0833 -0.92604,-0.11824 -0.10914,-0.035 -0.37703,-0.0796 -0.59531,-0.0992 -0.26941,-0.0242 -0.39996,-0.33692 -0.40649,-0.97372 -0.005,-0.53092 -0.26384,-1.29512 -0.59531,-1.76064 -0.32214,-0.45239 -0.5857,-0.95298 -0.5857,-1.11242 0,-0.15944 -0.11609,-0.28989 -0.25797,-0.28989 -0.40786,0 0.0869,2.27106 0.84458,3.87652 0.5099,1.08047 0.0657,1.16651 -0.86684,0.16788 z m 1.79983,-5.9294 c -0.2537,-0.44204 -0.46127,-0.97266 -0.46127,-1.17915 0,-0.20648 -0.11157,-0.37543 -0.24795,-0.37543 -0.28495,0 -0.0673,1.74226 0.30927,2.4758 0.19022,0.37053 0.32719,0.41653 0.55675,0.18696 0.22957,-0.22956 0.191,-0.50218 -0.1568,-1.10818 z m -0.88318,-3.37134 c -0.0962,-0.60151 -0.25883,-1.09366 -0.36144,-1.09366 -0.21561,0 -0.17336,0.60983 0.11542,1.66597 0.29306,1.07179 0.45039,0.70578 0.24602,-0.57231 z m 13.26057,-2.04648 c -0.21999,-0.42183 -0.40071,-0.61031 -0.40161,-0.41884 -0.002,0.44161 0.53221,1.45519 0.686,1.3014 0.0636,-0.0636 -0.0644,-0.46073 -0.28439,-0.88256 z m -0.40806,-2.76036 c -0.46868,-0.87572 -0.61725,-0.4072 -0.22796,0.71889 0.2841,0.82182 0.36602,0.90158 0.43985,0.42825 0.0499,-0.31991 -0.0454,-0.83612 -0.21189,-1.14714 z m -11.60599,-2.13548 c -0.62935,-0.67553 -0.6821,-0.5923 -0.28561,0.45057 0.19641,0.5166 0.3556,0.64058 0.56003,0.43615 0.20442,-0.20442 0.12642,-0.45648 -0.27442,-0.88672 z m -1.88294,0.557 c 0,-0.14552 -0.12609,-0.26459 -0.2802,-0.26459 -0.15411,0 -0.20661,0.11907 -0.11668,0.26459 0.0899,0.14552 0.21603,0.26458 0.2802,0.26458 0.0642,0 0.11668,-0.11906 0.11668,-0.26458 z m 13.11343,-5.4956 c -0.32932,-0.32932 -0.42,0.19473 -0.22377,1.29309 l 0.20721,1.1598 0.0827,-1.15202 c 0.0455,-0.63361 0.0157,-1.219 -0.0661,-1.30087 z m -15.55164,21.19294 c -0.18103,-0.41161 -0.42508,-0.81755 -0.54234,-0.90209 -0.33519,-0.24164 -0.5665,-2.09525 -0.26147,-2.09525 0.53532,0 1.56729,1.86864 1.73769,3.14652 0.0941,0.70585 -0.60711,0.59384 -0.93388,-0.14918 z m 15.48803,0.19928 c -0.46244,-0.23017 -1.17682,-0.71615 -1.5875,-1.07996 -0.41068,-0.3638 -0.86576,-0.67296 -1.01128,-0.68703 -0.9481,-0.0916 -2.51354,-0.94579 -2.51354,-1.37148 0,-0.20987 -0.45475,-0.93389 -1.01056,-1.60893 -1.29421,-1.57183 -1.55825,-2.32127 -1.76832,-5.01904 -0.0944,-1.21231 -0.35267,-2.87918 -0.57393,-3.70417 -0.22126,-0.82498 -0.44122,-2.27388 -0.48879,-3.21976 -0.10573,-2.10237 -0.3086,-3.45105 -0.65688,-4.36712 -0.37939,-0.99786 -0.33261,-2.24747 0.0841,-2.24747 0.55379,0 1.43169,1.85327 1.62933,3.43959 0.19421,1.5587 0.52293,2.77947 1.1271,4.1857 0.20757,0.48313 0.29598,1.07844 0.19646,1.32292 -0.36758,0.90297 -0.36107,2.6036 0.0157,4.10389 0.21308,0.8485 0.38743,1.80559 0.38743,2.12687 0,0.32128 0.23122,1.03767 0.51382,1.59197 0.2826,0.55431 0.58971,1.35339 0.68248,1.77574 0.0928,0.42235 0.28367,0.76791 0.42425,0.76791 0.14057,0 0.52542,0.26983 0.85521,0.59963 0.3298,0.32979 0.92999,0.62697 1.33376,0.66038 0.79947,0.0662 1.72391,0.97924 1.73792,1.71655 0.0115,0.6034 0.53797,0.60605 0.53797,0.003 0,-0.36439 0.14431,-0.30469 0.69248,0.28649 0.84722,0.91368 0.53092,1.29112 -0.60724,0.72462 z m -20.3281,-0.82242 c -0.0936,-0.29492 -0.45881,-0.72533 -0.81158,-0.95647 -0.35276,-0.23114 -0.64139,-0.65144 -0.64139,-0.934 0,-0.47022 0.0474,-0.48054 0.55964,-0.12175 0.58234,0.40789 1.55703,1.84156 1.55703,2.29025 0,0.47213 -0.49087,0.26651 -0.6637,-0.27803 z m -121.573813,0.0748 c 0,-0.44196 0.85428,-2.18444 1.07095,-2.18444 0.38102,0 -0.002,1.43022 -0.52286,1.95076 -0.30145,0.30144 -0.54809,0.4066 -0.54809,0.23368 z m 150.151053,-0.11935 c -0.29104,-0.16504 -0.61847,-0.42931 -0.72761,-0.58727 -0.13498,-0.19536 -0.28174,-0.16028 -0.45896,0.10968 -0.17422,0.26539 -0.26188,0.28731 -0.26459,0.0661 -0.002,-0.1819 -0.18264,-0.33073 -0.40092,-0.33073 -0.4469,0 -0.49561,-0.22828 -0.16128,-0.75592 0.30893,-0.48755 1.10444,-0.19931 2.11483,0.76627 1.11067,1.06142 1.06468,1.3931 -0.10147,0.73182 z M 47.076547,154.21838 c 0,-0.38589 1.73625,-1.90398 2.17758,-1.90398 0.64106,0 0.87565,1.02894 0.35359,1.55085 -0.34152,0.34143 -0.47825,0.36136 -0.64366,0.0938 -0.22123,-0.35781 -1.09376,-0.16978 -1.09376,0.23571 0,0.12995 -0.17859,0.23627 -0.39687,0.23627 -0.21828,0 -0.39688,-0.0957 -0.39688,-0.21268 z m 134.367943,-1.03267 c -0.9004,-0.13822 -1.75582,-1.65951 -1.13006,-2.00971 0.21331,-0.11937 0.31335,-0.33758 0.2223,-0.4849 -0.091,-0.14732 0.085,-0.11136 0.39131,0.0799 0.30627,0.19127 0.55685,0.43818 0.55685,0.5487 0,0.11051 0.16014,0.20094 0.35587,0.20094 0.19573,0 0.56664,0.2329 0.82426,0.51756 0.42225,0.46659 0.42815,0.55779 0.0599,0.92604 -0.22466,0.22466 -0.44675,0.39064 -0.49352,0.36884 -0.0468,-0.0218 -0.40089,-0.0881 -0.78691,-0.14738 z M 48.728017,151.14613 c -0.23396,-0.37953 1.31402,-1.47479 2.08645,-1.47625 0.81019,-0.002 1.36583,0.54939 1.1421,1.13241 -0.1768,0.46073 -2.97292,0.75851 -3.22855,0.34384 z m -12.01252,-0.0195 c -0.4138,-0.4163 1.55219,-3.83931 2.20509,-3.83931 0.38298,0 0.23683,0.38248 -0.41459,1.085 -0.34818,0.3755 -0.85419,1.18835 -1.12448,1.80635 -0.27028,0.61799 -0.56999,1.04458 -0.66602,0.94796 z m 68.238663,-0.86905 c -0.40018,-0.0522 -0.7276,-0.18233 -0.7276,-0.28908 0,-0.33726 0.61868,-0.82903 1.0451,-0.83072 0.22556,-9e-4 0.7265,-0.16671 1.1132,-0.36847 0.78615,-0.41017 1.28128,-0.14125 1.28128,0.6959 0,0.66364 -1.14209,0.99733 -2.71198,0.79237 z m 1.68468,-2.6705 c -0.58803,-0.16479 -0.59958,-0.20228 -0.17175,-0.55735 0.25228,-0.20937 0.61054,-0.40296 0.79615,-0.4302 0.18561,-0.0272 0.5909,-0.12997 0.90066,-0.22828 0.68626,-0.21781 1.04696,0.46231 0.55778,1.05173 -0.34077,0.4106 -1.01395,0.46364 -2.08284,0.1641 z m -66.537133,-0.96121 c 0.0838,-0.21829 0.39226,-0.39688 0.68555,-0.39688 0.444,0 0.47813,0.0664 0.20388,0.39688 -0.18116,0.21828 -0.48966,0.39687 -0.68555,0.39687 -0.2079,0 -0.29278,-0.16522 -0.20388,-0.39687 z m 77.343593,-0.40332 c -0.27442,-0.16961 -0.30124,-0.31689 -0.0952,-0.52292 0.20603,-0.20603 0.3767,-0.17851 0.60595,0.0977 0.38292,0.4614 0.0271,0.75761 -0.51074,0.4252 z M 41.255717,145.8289 c 0,-0.0948 0.42251,-0.68793 0.93891,-1.31813 0.53878,-0.65751 1.00824,-1.57298 1.10157,-2.14814 0.21698,-1.33707 0.60131,-2.02719 1.59429,-2.86272 0.4553,-0.38311 0.96407,-1.10939 1.13059,-1.61395 0.19041,-0.57696 0.47275,-0.91739 0.76084,-0.91739 0.25194,0 0.68919,-0.1748 0.97167,-0.38846 0.58155,-0.43986 2.23338,-0.54393 2.23338,-0.1407 0,0.14552 0.24515,0.26458 0.54478,0.26458 0.29963,0 0.4782,0.10773 0.39683,0.2394 -0.0814,0.13167 -0.60481,0.17812 -1.16318,0.10323 -1.25036,-0.16771 -2.52913,0.43743 -3.05943,1.44779 -0.20876,0.39772 -0.85797,1.18631 -1.4427,1.75242 -0.76922,0.74472 -1.1127,1.32993 -1.24235,2.11667 -0.0986,0.59805 -0.30047,1.23752 -0.4487,1.42104 -0.14823,0.18351 -0.47555,0.7193 -0.72737,1.19062 -0.39117,0.73214 -1.58913,1.37573 -1.58913,0.85374 z m 108.306103,-0.45981 c -0.0675,-0.10914 0.12241,-0.19843 0.42204,-0.19843 0.29963,0 0.54478,-0.11907 0.54478,-0.26459 0,-0.14552 0.1786,-0.26458 0.39688,-0.26458 0.47804,0 0.5298,-0.44076 0.0698,-0.5941 -0.20645,-0.0688 -0.0458,-0.36972 0.43551,-0.8158 0.8064,-0.74735 2.27284,-0.98143 2.27284,-0.36281 0,0.53004 -0.57025,0.97896 -1.24354,0.97896 -0.38495,0 -0.60854,0.15773 -0.60854,0.42927 0,0.35158 0.0718,0.36966 0.39687,0.0999 0.32883,-0.27291 0.39618,-0.24444 0.39283,0.16604 -0.002,0.27248 -0.0915,0.62694 -0.19844,0.7877 -0.21428,0.3222 -2.68508,0.35517 -2.881,0.0384 z m -11.06685,-1.51347 c -0.0873,-0.14119 0.0754,-0.8258 0.36141,-1.52135 0.28604,-0.69556 0.67303,-1.89932 0.85998,-2.67502 0.34172,-1.41789 1.62161,-2.95526 2.46031,-2.95526 0.38709,0 2.66965,-2.1397 3.32489,-3.11679 0.21828,-0.32549 0.75406,-0.64725 1.19062,-0.71501 0.43657,-0.0678 1.43713,-0.24107 2.22348,-0.38514 0.78635,-0.14407 1.5438,-0.19144 1.68323,-0.10527 0.13942,0.0862 0.3354,0.0242 0.43551,-0.13783 0.1001,-0.16197 0.56304,-0.3707 1.02875,-0.46384 0.66267,-0.13254 0.84674,-0.0798 0.84674,0.24277 0,0.61785 -0.81992,0.84261 -3.83646,1.05167 -0.7276,0.0504 -1.56104,0.22414 -1.85208,0.38604 -0.29104,0.16189 -0.74023,0.35988 -0.99819,0.43996 -0.25796,0.0801 -0.53665,0.35666 -0.6193,0.61463 -0.36629,1.14316 -0.75879,1.65226 -1.46315,1.8978 -0.4157,0.14492 -0.75582,0.37928 -0.75582,0.52081 0,0.14153 -0.35719,0.33577 -0.79375,0.43166 -0.5459,0.1199 -0.79375,0.33301 -0.79375,0.68248 0,0.27948 -0.12609,0.50814 -0.2802,0.50814 -0.15411,0 -0.21187,0.11055 -0.12836,0.24567 0.0835,0.13512 -0.11783,0.28677 -0.44741,0.33701 -0.34482,0.0526 -0.56508,0.24732 -0.51878,0.45873 0.0938,0.42823 -0.45918,1.86901 -0.71732,1.86901 -0.0967,0 -0.19645,0.20836 -0.2217,0.46302 -0.17935,1.8088 -0.57943,2.58824 -0.98865,1.92611 z m 16.26701,-0.93392 c -0.18374,-0.22139 -0.21239,-0.39688 -0.0648,-0.39688 0.14552,0 0.4128,0.1786 0.59396,0.39688 0.18374,0.22139 0.21239,0.39687 0.0648,0.39687 -0.14552,0 -0.41281,-0.17859 -0.59396,-0.39687 z m -96.969803,-8.06979 c 0.0899,-0.14552 0.28258,-0.26459 0.4281,-0.26459 0.14553,0 0.191,0.11907 0.10107,0.26459 -0.0899,0.14552 -0.28259,0.26458 -0.42811,0.26458 -0.14552,0 -0.191,-0.11906 -0.10106,-0.26458 z m 94.853133,-3.51567 c 0,-0.0612 0.305,-0.44033 0.67778,-0.84256 0.37277,-0.40224 0.6161,-0.89206 0.54072,-1.0885 -0.0754,-0.19644 -0.0371,-0.41893 0.085,-0.49443 0.12216,-0.0755 0.30288,-0.78376 0.4016,-1.57391 0.18439,-1.47581 0.6571,-2.00897 1.20059,-1.35411 0.2278,0.27448 0.1981,0.41604 -0.12525,0.597 -0.25972,0.14534 -0.46264,0.69152 -0.524,1.41042 -0.0551,0.64527 -0.2579,1.64947 -0.45071,2.23155 -0.28208,0.85155 -0.49274,1.07469 -1.07818,1.14205 -0.40018,0.0461 -0.7276,0.0337 -0.7276,-0.0275 z m -30.69167,-4.951 c 0,-0.14552 0.11906,-0.26458 0.26458,-0.26458 0.14553,0 0.26459,0.11906 0.26459,0.26458 0,0.14552 -0.11906,0.26458 -0.26459,0.26458 -0.14552,0 -0.26458,-0.11906 -0.26458,-0.26458 z m 33.88418,-0.90494 c -0.28828,-0.34736 -0.23269,-0.44986 0.36783,-0.67818 0.89109,-0.33879 1.46674,-0.34377 1.46674,-0.0127 0,0.14095 0.16655,0.19236 0.37011,0.11425 0.41542,-0.15941 0.8256,0.30709 0.46563,0.52956 -0.12718,0.0786 -0.60428,0.0359 -1.06023,-0.0949 -0.64044,-0.18367 -0.8792,-0.14803 -1.04973,0.15668 -0.19447,0.3475 -0.26114,0.34574 -0.56035,-0.0148 z"
       id="path13" />
  </g>
</svg>
