<?xml version="1.0" encoding="UTF-8" standalone="no"?>
<!-- Created with Inkscape (http://www.inkscape.org/) -->

<svg
   width="40.904316mm"
   height="28.625521mm"
   viewBox="0 0 40.904307 28.625516"
   version="1.1"
   id="svg1"
   inkscape:version="1.4.1-rc (06eac75fbf, 2025-03-29)"
   sodipodi:docname="mounts5a.svg"
   xmlns:inkscape="http://www.inkscape.org/namespaces/inkscape"
   xmlns:sodipodi="http://sodipodi.sourceforge.net/DTD/sodipodi-0.dtd"
   xmlns="http://www.w3.org/2000/svg"
   xmlns:svg="http://www.w3.org/2000/svg">
  <sodipodi:namedview
     id="namedview1"
     pagecolor="#ffffff"
     bordercolor="#000000"
     borderopacity="0.25"
     inkscape:showpageshadow="2"
     inkscape:pageopacity="0.0"
     inkscape:pagecheckerboard="0"
     inkscape:deskcolor="#d1d1d1"
     inkscape:document-units="mm"
     inkscape:zoom="1.0217435"
     inkscape:cx="77.318818"
     inkscape:cy="54.318916"
     inkscape:window-width="1850"
     inkscape:window-height="1016"
     inkscape:window-x="0"
     inkscape:window-y="0"
     inkscape:window-maximized="1"
     inkscape:current-layer="layer1" />
  <defs
     id="defs1" />
  <g
     inkscape:label="Layer 1"
     inkscape:groupmode="layer"
     id="layer1"
     transform="translate(-86.254159,-134.4084)">
    <path
       style="fill:#000000"
       d="m 98.033402,162.1908 c -0.0722,-0.47294 -0.0363,-0.97896 0.0798,-1.12448 0.11611,-0.14552 0.2142,-0.38365 0.21799,-0.52917 0.004,-0.14552 0.24279,-0.32411 0.53113,-0.39687 0.28833,-0.0728 0.89722,-0.60854 1.353098,-1.19063 1.08874,-1.39016 4.08363,-4.22768 5.4776,-5.18977 2.00416,-1.38324 4.6214,-0.98395 7.22837,1.10277 2.66894,2.13632 6.07112,3.41221 7.01341,2.63017 0.42822,-0.35539 1.60879,-0.2524 1.53501,0.13392 -0.0278,0.14552 -0.32544,0.3278 -0.66145,0.40508 -0.39943,0.0919 -0.69738,0.43113 -0.86065,0.97998 -0.14941,0.50229 -0.4151,0.82755 -0.66146,0.80977 -1.30973,-0.0945 -1.88743,0.0703 -1.8124,0.51715 0.0587,0.3498 -0.084,0.44878 -0.58371,0.40479 -2.43293,-0.21417 -3.48763,-0.15985 -3.70434,0.1908 -0.20342,0.32913 -1.02164,0.44136 -3.83629,0.52617 -0.81624,0.0246 -2.61713,-0.43751 -2.70196,-0.69331 -0.1427,-0.43029 1.11602,-0.67892 2.43542,-0.48106 1.80655,0.2709 4.51097,-1.12574 3.17359,-1.63895 -0.22014,-0.0845 -0.55801,-0.0226 -0.75084,0.13739 -0.19283,0.16003 -0.78662,0.29241 -1.31955,0.29418 -0.53292,0.002 -1.37901,0.003 -1.88019,0.002 -0.50119,-7.3e-4 -0.98498,-0.12063 -1.07511,-0.26645 -0.25634,-0.41477 0.62992,-0.62619 1.31552,-0.31381 0.52213,0.2379 0.63919,0.20198 0.75239,-0.23089 0.0874,-0.33419 0.27809,-0.45735 0.54785,-0.35384 0.59322,0.22764 2.55741,-0.73236 2.47535,-1.20984 -0.0809,-0.47055 -1.1247,-0.52228 -2.04643,-0.10142 -0.8771,0.40049 -3.53617,0.5646 -3.70416,0.22862 -0.0728,-0.14552 0.40349,-0.39806 1.05833,-0.56119 1.60027,-0.39866 3.175,-1.07748 3.175,-1.36867 0,-0.57618 -1.10919,-1.15633 -2.48164,-1.29797 l -1.47792,-0.15254 -1.98897,1.78012 c -1.99518,1.78567 -2.33028,2.2617 -1.59209,2.2617 0.46942,0 0.5256,0.41838 0.0922,0.68627 -0.1676,0.10358 -0.46227,-0.0271 -0.65483,-0.29047 -0.32533,-0.44492 -0.42469,-0.3963 -1.40422,0.68718 -0.57976,0.64129 -1.059,1.31855 -1.06496,1.50502 -0.006,0.18646 -0.18945,0.40756 -0.407728,0.49132 -0.21828,0.0838 -0.39688,0.30542 -0.39688,0.49256 0,0.18714 -0.17859,0.40879 -0.39687,0.49255 -0.21828,0.0838 -0.39688,0.45369 -0.39688,0.82206 0,0.96582 -0.44543,0.82477 -0.60044,-0.19013 z m 19.915028,-3.09324 c 0,-0.35729 -0.48232,-0.60497 -0.79806,-0.40982 -0.1479,0.0914 -0.2004,0.27702 -0.11668,0.41249 0.19862,0.32136 0.91474,0.31928 0.91474,-0.003 z m -4.23333,-0.80937 c 0,-0.14552 -0.12609,-0.26458 -0.2802,-0.26458 -0.15411,0 -0.20661,0.11906 -0.11668,0.26458 0.0899,0.14553 0.21603,0.26459 0.2802,0.26459 0.0642,0 0.11668,-0.11906 0.11668,-0.26459 z m -8.33438,3.175 c -0.0899,-0.14552 -0.0374,-0.26458 0.11668,-0.26458 0.15411,0 0.2802,0.11906 0.2802,0.26458 0,0.14553 -0.0525,0.26459 -0.11668,0.26459 -0.0642,0 -0.19026,-0.11906 -0.2802,-0.26459 z m -5.15937,-0.23627 c 0,-0.32233 0.77882,-0.59794 1.11046,-0.39297 0.16872,0.10427 0.13516,0.25099 -0.09,0.39368 -0.4703,0.298 -1.02044,0.29761 -1.02044,-7.1e-4 z m -5.291668,-1.08664 c 0,-0.14728 0.71076,-0.26459 1.60312,-0.26459 1.00137,0 1.54173,0.0993 1.43959,0.26459 -0.0899,0.14552 -0.81134,0.26458 -1.60311,0.26458 -0.79178,0 -1.4396,-0.11906 -1.4396,-0.26458 z m -0.31419,-0.97449 c 0.191,-0.0764 0.4192,-0.067 0.50712,0.0209 0.0879,0.0879 -0.0683,0.15045 -0.34727,0.13896 -0.30822,-0.0127 -0.37092,-0.0754 -0.15985,-0.15985 z m 27.433978,-1.40676 c -0.0899,-0.14552 0.0887,-0.26459 0.39688,-0.26459 0.30822,0 0.48681,0.11907 0.39687,0.26459 -0.0899,0.14552 -0.26853,0.26458 -0.39687,0.26458 -0.12835,0 -0.30694,-0.11906 -0.39688,-0.26458 z m -4.38602,-6.88971 c -0.66172,-0.34219 -0.99429,-0.38512 -1.33499,-0.17235 -0.33071,0.20653 -0.56077,0.19452 -0.84853,-0.0443 -0.27198,-0.22573 -0.44898,-0.24001 -0.56893,-0.0459 -0.24198,0.39153 -0.67498,0.0733 -0.50456,-0.37081 0.14048,-0.3661 0.84111,-0.55439 3.01283,-0.80967 3.16744,-0.37233 3.43958,-0.44764 3.43958,-0.9518 0,-0.49134 -1.16689,-0.75122 -1.4956,-0.33309 -0.36652,0.46622 -2.20368,0.68927 -3.66378,0.44482 l -1.05833,-0.17719 0.92604,-0.23797 c 0.50933,-0.13089 1.28323,-0.30574 1.71979,-0.38855 0.92495,-0.17545 2.11268,-1.24349 1.85196,-1.66533 -0.12856,-0.20803 -0.28487,-0.20244 -0.55259,0.0197 -0.20533,0.17041 -0.37711,0.20595 -0.38174,0.079 -0.005,-0.12696 -0.15345,-0.046 -0.33073,0.17984 -0.17727,0.22586 -0.56044,0.41585 -0.85148,0.42219 -0.29104,0.006 -0.97565,0.10268 -1.52135,0.21409 -0.89003,0.18171 -0.99219,0.14665 -0.99219,-0.34043 0,-0.73074 0.41997,-0.94335 1.72953,-0.87556 1.24412,0.0644 1.79968,-0.38217 1.66422,-1.33775 -0.0824,-0.58152 -0.19462,-0.61115 -2.41219,-0.63715 -1.93958,-0.0227 -2.51067,0.0716 -3.43958,0.56838 -0.61262,0.32761 -1.30144,0.9352 -1.53072,1.35019 -0.22927,0.415 -0.66687,0.79142 -0.97243,0.8365 -0.60908,0.0898 -2.97633,2.16868 -2.97633,2.6137 0,0.15709 0.6557,0.29256 1.51152,0.31229 1.71138,0.0395 2.45723,0.21844 2.45723,0.58969 0,0.27154 -3.07811,0.15931 -3.35993,-0.1225 -0.0898,-0.0898 -0.32304,-0.0306 -0.51833,0.13142 -0.26377,0.21892 -0.46367,0.20456 -0.77741,-0.0558 -0.23228,-0.19278 -0.72779,-0.35619 -1.10113,-0.36313 -1.22924,-0.0229 -0.90819,-0.60033 0.78398,-1.41012 0.91604,-0.43838 2.41192,-1.45948 3.32418,-2.26912 0.91226,-0.80963 1.86476,-1.59569 2.11667,-1.74679 0.42849,-0.25703 0.42473,-0.30046 -0.0583,-0.6738 -0.35467,-0.27412 -0.81027,-0.34697 -1.45521,-0.23268 -0.71502,0.1267 -0.86901,0.092 -0.6458,-0.14559 0.1612,-0.17157 0.7507,-0.36871 1.30998,-0.43808 1.7074,-0.21177 1.60101,-0.6416 -0.21893,-0.88451 -0.75237,-0.10042 -1.11956,-0.27959 -1.11956,-0.5463 0,-0.21828 -0.1786,-0.39687 -0.39688,-0.39687 -0.21828,0 -0.363,0.16115 -0.32159,0.35812 0.17639,0.83917 -0.20082,1.27101 -1.00689,1.15271 -0.77055,-0.1131 -1.58194,0.28806 -1.58194,0.78212 0,0.13408 0.14883,0.22446 0.33073,0.20084 0.66447,-0.0863 1.0197,0.0258 0.86667,0.27338 -0.16932,0.27396 -4.1146,0.18667 -5.77732,-0.12781 -0.74364,-0.14065 -0.968298,-0.29427 -0.85649,-0.58565 0.11965,-0.31179 -0.0215,-0.36958 -0.670098,-0.27439 -0.53264,0.0782 -0.86928,-0.003 -0.95704,-0.23217 -0.0888,-0.23127 -0.36349,-0.29551 -0.79772,-0.18652 -0.61058,0.15324 -0.63858,0.12181 -0.35819,-0.40212 0.22754,-0.42516 0.41804,-0.50916 0.75609,-0.33337 0.45819,0.23826 1.54926,0.20739 3.230038,-0.0914 0.50932,-0.0905 1.2237,-0.19413 1.5875,-0.23021 1.12201,-0.11127 3.09932,-1.17621 3.24939,-1.75004 0.15254,-0.58331 -0.29053,-1.04436 -0.56964,-0.59275 -0.0943,0.15262 -0.5275,0.36289 -0.96261,0.46725 -0.4351,0.10436 -0.93841,0.30572 -1.11846,0.44745 -0.18004,0.14174 -0.49265,0.19428 -0.69468,0.11675 -0.20203,-0.0775 -0.6574,0.01 -1.01193,0.19347 -0.76465,0.39671 -2.771218,0.69981 -3.297028,0.49804 -0.61869,-0.23742 0.12794,-0.87434 1.02493,-0.87434 0.43367,0 1.341828,-0.29098 2.018118,-0.64663 0.67629,-0.35564 1.43798,-0.70909 1.69264,-0.78544 0.82227,-0.24653 0.51474,-0.88059 -0.52138,-1.07496 -0.79436,-0.14903 -1.06383,-0.0866 -1.39577,0.32333 -0.44833,0.55366 -0.59914,0.59817 -2.417318,0.71338 -0.6741,0.0427 -1.33025,0.14233 -1.45813,0.22137 -0.29621,0.18306 -1.30462,-0.53942 -1.07433,-0.76971 0.0946,-0.0946 0.69269,-0.19374 1.32903,-0.22025 1.30892,-0.0545 3.183188,-0.91744 3.301178,-1.51986 0.0466,-0.2381 -0.24987,-0.53619 -0.73198,-0.73589 -1.609228,-0.66657 -4.675768,0.20522 -5.529198,1.57189 -0.23748,0.3803 -0.62043,0.65279 -0.85098,0.60553 -0.25404,-0.0521 -0.98371,0.5947 -1.85209,1.64169 -1.35409,1.63262 -1.82976,2.0249 -1.82976,1.509 0,-0.3664 1.44291,-2.21131 2.58887,-3.31013 1.70376,-1.63367 3.42071,-2.47129 5.74052,-2.80051 1.825938,-0.25914 2.655398,0.0332 5.164358,1.82021 2.33343,1.66198 4.23309,2.27546 6.81743,2.20162 l 2.18722,-0.0625 -0.17392,0.72507 c -0.22585,0.94155 -0.23227,0.94652 -0.81868,0.63268 -0.61102,-0.32701 -0.98131,-0.0948 -1.05948,0.66435 -0.0715,0.69449 1.01233,1.14783 2.74421,1.14783 1.12319,0 1.54825,0.39339 0.75426,0.69807 -0.80722,0.30977 -0.3929,0.69344 0.57859,0.53579 0.5365,-0.0871 1.10205,-0.0582 1.25677,0.0642 0.15472,0.12238 0.89777,0.27879 1.65121,0.34758 1.10947,0.1013 1.61247,0.32631 2.64583,1.18355 0.70177,0.58216 1.85141,1.27527 2.55476,1.54025 1.12721,0.42467 1.43574,0.44157 2.60235,0.14258 1.60334,-0.41092 2.19535,-0.0876 1.41615,0.77339 -0.2665,0.29448 -0.3768,0.54379 -0.2451,0.55401 0.13169,0.0102 0.004,0.1106 -0.28382,0.22304 -0.31244,0.12206 -0.52564,0.45577 -0.52917,0.82825 -0.004,0.43069 -0.19504,0.66882 -0.61683,0.76916 -0.86587,0.20598 -0.74792,0.65056 0.21405,0.80679 1.31637,0.21379 0.78359,0.66739 -0.69933,0.59541 -0.99589,-0.0483 -1.40064,0.0378 -1.50941,0.32125 -0.22164,0.57759 -4.30153,0.47832 -5.48457,-0.13346 z m 4.63664,-1.07038 c -0.0852,-0.13784 -0.26767,-0.18092 -0.40551,-0.0957 -0.13783,0.0852 -0.18091,0.26767 -0.0957,0.40551 0.0852,0.13784 0.26767,0.18092 0.40551,0.0957 0.13784,-0.0852 0.18092,-0.26767 0.0957,-0.40551 z m 1.20459,-0.2576 c 0,-0.13693 -0.17859,-0.24897 -0.39687,-0.24897 -0.40916,0 -0.52565,0.3122 -0.22768,0.61017 0.21138,0.21138 0.62455,-0.0276 0.62455,-0.3612 z m -0.77635,-1.31661 c 0.53655,-0.28716 0.70932,-1.04903 0.23788,-1.04903 -0.47542,0 -1.58014,0.84113 -1.42802,1.08728 0.19142,0.30971 0.56224,0.29779 1.19014,-0.0383 z m -19.00125,-5.20226 c 0.55305,-0.31027 0.0661,-0.60927 -0.99219,-0.60927 -1.21477,0 -1.43235,0.18161 -0.87971,0.73425 0.27363,0.27363 1.28129,0.20636 1.8719,-0.12498 z m 9.19427,-0.63757 c 0,-0.30232 -0.71749,-0.30915 -0.90323,-0.009 -0.0774,0.12522 -0.0728,0.29561 0.0102,0.37865 0.20647,0.20647 0.89298,-0.078 0.89298,-0.37005 z m -5.29167,-0.86534 c 0,-0.0549 -0.17859,-0.24812 -0.39687,-0.42927 -0.32505,-0.26976 -0.39688,-0.25168 -0.39688,0.0999 0,0.2361 0.1786,0.42927 0.39688,0.42927 0.21828,0 0.39687,-0.045 0.39687,-0.0999 z m 2.47752,-1.08921 c -0.0834,-0.21745 -0.2583,-0.32948 -0.38858,-0.24897 -0.37357,0.23088 -0.27622,0.64432 0.15172,0.64432 0.23603,0 0.32901,-0.1552 0.23686,-0.39535 z m 3.34332,9.52348 c 0,-0.21828 0.11906,-0.39688 0.26458,-0.39688 0.14552,0 0.26458,0.1786 0.26458,0.39688 0,0.21828 -0.11906,0.39687 -0.26458,0.39687 -0.14552,0 -0.26458,-0.17859 -0.26458,-0.39687 z m -14.907958,-2.9974 c -0.52256,-0.57743 -0.55674,-0.84222 -0.10715,-0.83026 0.35379,0.009 1.52136,0.8982 1.52136,1.15809 0,0.35455 -1.00816,0.12085 -1.41421,-0.32783 z m 14.907958,-0.27867 c 0,-0.14552 0.11906,-0.33817 0.26458,-0.42811 0.14552,-0.0899 0.26458,-0.0445 0.26458,0.10106 0,0.14553 -0.11906,0.33817 -0.26458,0.42811 -0.14552,0.0899 -0.26458,0.0445 -0.26458,-0.10106 z m -16.789748,-0.8067 c -0.19567,-0.3166 0.30206,-0.6303 0.65448,-0.41249 0.2959,0.18288 0.10164,0.65879 -0.2689,0.65879 -0.12835,0 -0.30185,-0.11083 -0.38558,-0.2463 z m -1.99567,-1.07662 c 0,-0.14552 0.11906,-0.26458 0.26458,-0.26458 0.14552,0 0.26459,0.11906 0.26459,0.26458 0,0.14553 -0.11907,0.26459 -0.26459,0.26459 -0.14552,0 -0.26458,-0.11906 -0.26458,-0.26459 z m -5.35307,-1.85208 c -0.18176,-0.29104 -0.48043,-0.52917 -0.6637,-0.52917 -0.43057,0 -0.43237,0.44507 -0.002,0.61853 0.21058,0.085 0.17429,0.14104 -0.0999,0.15434 -0.23685,0.0115 -0.58777,-0.16846 -0.77984,-0.39988 -0.31746,-0.38253 -0.38062,-0.37781 -0.69484,0.0519 -0.26116,0.35715 -0.42027,0.39807 -0.65094,0.1674 -0.23067,-0.23067 -0.22319,-0.40422 0.0306,-0.71001 0.18474,-0.2226 0.27597,-0.56085 0.20275,-0.75168 -0.10149,-0.26447 0.23548,-0.33749 1.41741,-0.30715 0.85281,0.0219 1.70307,0.15803 1.88948,0.30251 0.18641,0.14449 0.54728,0.33699 0.80195,0.42777 0.64416,0.22964 0.58022,0.71084 -0.0944,0.71084 -0.38683,0 -0.51086,0.12148 -0.40518,0.39687 0.22962,0.59839 -0.56343,0.48805 -0.95084,-0.13229 z m 2.32888,-0.2346 c -0.16039,-0.25953 0.57722,-0.97764 0.78785,-0.76701 0.18689,0.18689 -0.15652,1.00161 -0.42219,1.00161 -0.12136,0 -0.28591,-0.10557 -0.36566,-0.2346 z m 1.31569,-0.54087 c -0.0837,-0.13546 -0.0435,-0.31353 0.0895,-0.39569 0.36084,-0.22301 1.89765,0.14058 1.73138,0.40962 -0.19125,0.30945 -1.62781,0.29846 -1.82088,-0.0139 z m 20.632788,-1.59513 c -0.22439,-0.36307 -0.0258,-0.63563 0.36528,-0.50123 0.16014,0.055 0.18061,0.24183 0.0496,0.45268 -0.16537,0.26617 -0.27264,0.27872 -0.41489,0.0485 z m 1.18404,-0.90838 c 0,-0.38449 0.63892,-0.7564 0.88195,-0.51338 0.077,0.077 0.0759,0.30688 -0.002,0.51094 -0.18447,0.4807 -0.87951,0.48263 -0.87951,0.002 z m -1.94997,-1.78706 c -0.39949,-0.2321 -0.42497,-0.33167 -0.13229,-0.51707 0.49792,-0.31542 2.01438,-0.29703 2.21455,0.0269 0.0899,0.14552 0.48392,0.26641 0.87551,0.26864 0.55689,0.003 0.62554,0.0599 0.31512,0.26053 -0.53294,0.34441 -2.65654,0.31913 -3.27289,-0.039 z"
       id="path13-8"
       sodipodi:nodetypes="cscsssssssssssssssssccsssssssssscsssssssssscccssccssssssssssssssssssssssssssssssssssssssscsssscscssssssscsssscsssssssssssssssssssscsssssssssscsssssssssssssssssssscsssssssssssssscssssssssssssssscssccsssscccccssssssssssssssscsssssssssssssssscscsssssssssssccssssscssscsscccscccssscss" />
  </g>
</svg>
