<?xml version="1.0" encoding="UTF-8" standalone="no"?>
<!-- Created with Inkscape (http://www.inkscape.org/) -->

<svg
   width="64.754181mm"
   height="31.947582mm"
   viewBox="0 0 64.754167 31.947578"
   version="1.1"
   id="svg1"
   inkscape:version="1.4.1-rc (06eac75fbf, 2025-03-29)"
   sodipodi:docname="mounts4.svg"
   xmlns:inkscape="http://www.inkscape.org/namespaces/inkscape"
   xmlns:sodipodi="http://sodipodi.sourceforge.net/DTD/sodipodi-0.dtd"
   xmlns="http://www.w3.org/2000/svg"
   xmlns:svg="http://www.w3.org/2000/svg">
  <sodipodi:namedview
     id="namedview1"
     pagecolor="#ffffff"
     bordercolor="#000000"
     borderopacity="0.25"
     inkscape:showpageshadow="2"
     inkscape:pageopacity="0.0"
     inkscape:pagecheckerboard="0"
     inkscape:deskcolor="#d1d1d1"
     inkscape:document-units="mm"
     inkscape:zoom="1.0217435"
     inkscape:cx="122.3399"
     inkscape:cy="60.191232"
     inkscape:window-width="1850"
     inkscape:window-height="1016"
     inkscape:window-x="0"
     inkscape:window-y="0"
     inkscape:window-maximized="1"
     inkscape:current-layer="layer1" />
  <defs
     id="defs1" />
  <g
     inkscape:label="Layer 1"
     inkscape:groupmode="layer"
     id="layer1"
     transform="translate(-74.347911,-132.8209)">
    <path
       style="fill:#000000"
       d="m 127.25559,164.68587 c -0.51426,-0.0955 -1.08175,-0.26424 -1.26109,-0.37508 -0.43287,-0.26753 -0.105,-0.77074 0.38074,-0.58435 0.45202,0.17346 4.60142,-1.94058 4.7944,-2.44265 0.0737,-0.19169 -0.005,-0.48729 -0.17443,-0.6569 -0.23479,-0.23478 -0.34525,-0.1674 -0.46287,0.28237 -0.12879,0.49252 -0.33853,0.59075 -1.26133,0.59075 -0.60877,0 -1.23935,0.1325 -1.4013,0.29445 -0.16933,0.16933 -0.44463,0.20162 -0.64791,0.076 -0.1944,-0.12015 -0.5322,-0.23229 -0.75066,-0.24919 -0.21845,-0.0169 -0.66508,-0.0511 -0.9925,-0.076 -0.97232,-0.0739 -0.67604,-0.57443 0.34004,-0.57443 0.51444,0 1.21924,-0.18601 1.56622,-0.41336 0.34697,-0.22735 0.79232,-0.37628 0.98965,-0.33097 0.42913,0.0986 1.85488,-0.96512 1.61508,-1.20492 -0.26123,-0.26123 -1.2671,-0.19662 -1.56419,0.10048 -0.30183,0.30182 -1.95461,0.0531 -1.95461,-0.29417 0,-0.1236 0.3277,-0.39418 0.72823,-0.6013 0.40052,-0.20712 0.963,-0.63601 1.24996,-0.95309 0.52126,-0.57598 0.52114,-0.57696 -0.13292,-1.07954 -1.38189,-1.06185 -4.64183,-0.2146 -6.17219,1.60413 -0.77957,0.92646 -0.85686,1.31053 -0.36944,1.83585 0.27029,0.2913 0.2442,0.32593 -0.14275,0.1895 -0.26041,-0.0918 -0.67713,-0.0585 -0.92604,0.074 -0.24891,0.13253 -0.66092,0.30546 -0.91558,0.38428 -0.58582,0.1813 -0.59493,0.89852 -0.0195,1.53439 0.53216,0.58803 0.0984,1.29621 -0.49847,0.8138 -0.18807,-0.152 -0.84734,-0.35972 -1.46504,-0.4616 -0.6177,-0.10188 -1.20037,-0.31027 -1.29482,-0.46309 -0.21248,-0.34381 0.92179,-1.2497 1.57477,-1.25771 0.26388,-0.003 1.42353,-0.90489 2.57702,-2.00367 4.63696,-4.41708 7.62171,-4.37548 11.07015,0.15426 2.39401,3.14469 3.69352,3.71215 5.25282,2.29374 0.52202,-0.47486 0.67327,-0.49842 1.24274,-0.19365 1.10635,0.59209 1.17794,1.59552 0.11384,1.59552 -0.40353,0 -0.4926,0.12218 -0.3702,0.50783 0.19999,0.63013 -0.52883,0.9087 -2.28156,0.87203 -0.99342,-0.0208 -1.25498,0.0698 -1.3599,0.47105 -0.0969,0.37053 -0.35587,0.48885 -1.01897,0.46557 -0.48898,-0.0172 -1.84155,0.0319 -3.00571,0.10899 -1.16417,0.0771 -2.53743,0.0621 -3.0517,-0.0334 z m 4.60596,-1.74424 c -0.29749,-0.45403 -0.52971,-0.58764 -0.70926,-0.40809 -0.3234,0.32341 0.22439,1.08314 0.78099,1.08314 0.29897,0 0.28511,-0.13044 -0.0717,-0.67505 z m -7.3638,-3.80459 c -0.0837,-0.13546 -0.0312,-0.32108 0.11668,-0.41249 0.14789,-0.0914 0.2689,0.0194 0.2689,0.2463 0,0.46475 -0.15877,0.53318 -0.38558,0.16619 z m 0.91474,-0.28286 c 0,-0.14553 0.11907,-0.26459 0.26459,-0.26459 0.14552,0 0.26458,0.11906 0.26458,0.26459 0,0.14552 -0.11906,0.26458 -0.26458,0.26458 -0.14552,0 -0.26459,-0.11906 -0.26459,-0.26458 z m -25.25499,-2.17881 c -0.294919,-0.42106 -0.469859,-0.4818 -0.740569,-0.25713 -0.26198,0.21742 -0.6274,0.20032 -1.40079,-0.0656 -1.14239,-0.39274 -1.27933,-0.76083 -0.32923,-0.88492 0.33319,-0.0435 0.78439,-0.14858 1.00267,-0.23349 0.21828,-0.0849 1.17078,-0.20777 2.116659,-0.27303 1.32091,-0.0911 2.00584,-0.30068 2.95305,-0.90348 1.34912,-0.85855 1.94318,-1.71946 1.0199,-1.47802 -0.29306,0.0766 -0.60351,0.025 -0.68989,-0.11478 -0.0924,-0.14948 -0.42878,-0.0761 -0.81697,0.17827 -0.36295,0.23782 -0.7209,0.3714 -0.79545,0.29686 -0.0745,-0.0745 -0.61871,0.11632 -1.20926,0.42413 -1.755399,0.91497 -4.661299,0.68533 -4.040409,-0.31929 0.0939,-0.15189 0.32767,-0.27617 0.51954,-0.27617 0.19188,0 0.49501,-0.17609 0.67363,-0.39132 0.24791,-0.29871 0.44924,-0.32469 0.85079,-0.10979 0.6942,0.37153 1.573849,0.12778 2.573019,-0.71296 1.38146,-1.16243 0.89785,-1.63962 -0.58884,-0.58101 -0.65844,0.46886 -1.258869,0.60183 -2.999979,0.66438 -1.19723,0.043 -2.24615,-0.034 -2.33092,-0.17119 -0.18087,-0.29265 0.89996,-1.11868 1.21167,-0.92603 0.29888,0.18472 2.11593,-0.78132 2.71445,-1.44313 0.409629,-0.45294 0.439519,-0.62468 0.166039,-0.9542 -0.183419,-0.22101 -0.547299,-0.40183 -0.808619,-0.40183 -0.69018,0 -1.3296,-0.28691 -1.17976,-0.52935 0.11913,-0.19276 0.80684,-0.0771 2.513429,0.42278 0.3638,0.10656 1.4949,0.86897 2.51354,1.69426 2.43934,1.97629 3.19076,2.45868 4.70475,3.02027 1.67341,0.62073 2.35,0.39398 1.36151,-0.45629 l -0.71438,-0.61449 0.8254,-0.52261 c 0.45398,-0.28743 1.39293,-1.34709 2.08657,-2.35479 1.43767,-2.08861 3.27491,-3.60032 5.30597,-4.36584 3.0957,-1.16677 5.10816,-0.36994 7.15289,2.83219 0.48294,0.75631 1.35117,1.80252 1.92941,2.32492 0.91663,0.82812 1.16849,0.92783 1.96575,0.77827 0.56744,-0.10645 0.91442,-0.067 0.91442,0.10408 0,0.15159 0.26789,0.31367 0.59532,0.36017 0.39074,0.0555 0.59531,0.26639 0.59531,0.61372 0,0.43439 -0.15401,0.51714 -0.8599,0.46201 -0.68316,-0.0534 -0.85989,0.033 -0.85989,0.42011 0,0.43499 -0.22926,0.48476 -2.13754,0.46402 -1.80671,-0.0196 -2.19418,0.0541 -2.50349,0.47662 -0.33795,0.4616 -0.66139,0.48981 -4.22736,0.36875 -2.33873,-0.0794 -3.97899,-0.24868 -4.1596,-0.42929 -0.47936,-0.47936 -0.18291,-0.51668 1.85538,-0.23358 1.93361,0.26856 2.70585,0.11139 1.83828,-0.37412 -0.59997,-0.33576 -0.33965,-0.75765 0.4675,-0.75765 0.34482,0 0.80554,-0.17859 1.02382,-0.39687 0.21828,-0.21828 0.63932,-0.39688 0.93563,-0.39688 0.29632,0 0.67114,-0.24736 0.83294,-0.54969 0.17303,-0.32331 0.4534,-0.48859 0.68079,-0.40133 0.21263,0.0816 0.45633,-0.0334 0.54156,-0.25547 0.21403,-0.55776 -0.0847,-0.78529 -0.53763,-0.40943 -0.20648,0.17137 -0.47725,0.28528 -0.6017,0.25314 -0.12446,-0.0321 -0.64301,0.12314 -1.15233,0.34507 -1.09235,0.47598 -3.12269,0.78725 -3.29685,0.50544 -0.16464,-0.26638 1.34283,-1.35831 2.18683,-1.58403 0.37327,-0.0998 0.72893,-0.33231 0.79037,-0.51662 0.087,-0.26114 -0.31105,-0.29346 -1.80328,-0.14642 -1.57691,0.15538 -1.89333,0.12367 -1.79233,-0.17963 0.0675,-0.20257 0.35091,-0.41199 0.62989,-0.46536 0.71535,-0.13685 1.90866,-1.02787 2.26279,-1.68957 0.53521,-1.00004 -1.14911,-1.91441 -2.35445,-1.27817 -0.25269,0.13338 -0.85117,0.38793 -1.32995,0.56567 -0.47879,0.17773 -1.26412,0.78298 -1.74518,1.34499 -0.48105,0.562 -0.98824,1.02183 -1.12708,1.02183 -0.51325,0 -0.86671,0.60267 -0.62182,1.06025 0.18177,0.33965 0.0542,0.62879 -0.52005,1.17899 -0.41849,0.40094 -0.88963,0.64942 -1.04698,0.55217 -0.16952,-0.10477 -0.28608,0.0442 -0.28608,0.36573 0,0.2984 0.23813,0.69125 0.52917,0.87301 0.29104,0.18176 0.52916,0.41476 0.52916,0.51778 0,0.4296 -1.25119,1.49177 -1.85806,1.57734 -0.89417,0.1261 -0.82835,0.54422 0.10128,0.64333 1.01475,0.10819 1.04889,0.18322 0.40022,0.87948 -0.40008,0.42943 -0.63808,0.51728 -0.84388,0.31148 -0.35295,-0.35295 -2.73679,-0.3815 -2.95073,-0.0353 -0.0854,0.13822 0.0861,0.38054 0.38126,0.53848 0.81622,0.43683 0.64597,0.65899 -0.55798,0.7281 -0.60049,0.0345 -1.22496,0.17049 -1.38769,0.30228 -0.16273,0.13178 -1.2777,0.30293 -2.4777,0.38033 -1.99729,0.12883 -2.21448,0.0941 -2.56796,-0.41055 z m 5.94041,-2.35034 c 0,-0.14552 -0.11906,-0.191 -0.26458,-0.10106 -0.14552,0.0899 -0.26459,0.28258 -0.26459,0.4281 0,0.14552 0.11907,0.191 0.26459,0.10106 0.14552,-0.0899 0.26458,-0.28258 0.26458,-0.4281 z m 16.65382,-3.02947 c -0.24145,-0.29093 -0.4238,-0.30321 -0.87275,-0.0588 -0.56615,0.30821 -0.56593,0.30937 0.0939,0.48193 0.84577,0.22117 1.16817,0.046 0.77882,-0.42312 z m -0.83174,-3.34222 c 0.46286,-0.46285 0.3893,-0.74083 -0.19605,-0.74083 -0.58146,0 -0.92136,0.39848 -0.67707,0.79375 0.21651,0.35032 0.48624,0.33397 0.87312,-0.0529 z m -29.44812,7.72584 c 0.08994,-0.14553 0.216026,-0.26459 0.280198,-0.26459 0.06417,0 0.116677,0.11906 0.116677,0.26459 0,0.14552 -0.126089,0.26458 -0.280198,0.26458 -0.15411,0 -0.206614,-0.11906 -0.116677,-0.26458 z m -3.175,-0.81363 c -1.517914,-0.71976 -2.116667,-1.24311 -2.116667,-1.85011 0,-0.43251 0.169486,-0.66265 0.529167,-0.71855 1.306971,-0.20311 2.771095,-1.08585 4.299479,-2.59222 0.909505,-0.8964 1.653646,-1.82384 1.653646,-2.06099 0,-0.31334 0.244038,-0.43117 0.892966,-0.43117 0.49114,0 1.26504,-0.0744 1.71979,-0.16537 0.53407,-0.10681 0.82683,-0.06 0.82683,0.1323 0,0.16371 -0.11554,0.29765 -0.25674,0.29765 -0.67031,0 -3.144319,1.38095 -3.92513,2.19094 -0.704964,0.7313 -0.84051,1.04298 -0.698921,1.60712 0.194888,0.77649 -0.09065,0.88986 -1.006604,0.39965 -0.478994,-0.25635 -0.650384,-0.19621 -1.173231,0.41163 -0.752146,0.87443 -0.779671,1.60253 -0.08313,2.19893 0.915894,0.78421 0.513382,1.13727 -0.661458,0.58019 z m 6.746871,-1.56762 c 0,-0.14553 0.12609,-0.26459 0.2802,-0.26459 0.15411,0 0.20662,0.11906 0.11668,0.26459 -0.0899,0.14552 -0.21603,0.26458 -0.2802,0.26458 -0.0642,0 -0.11668,-0.11906 -0.11668,-0.26458 z M 88.72781,148.2275 c -0.15116,-0.19444 -0.35426,-0.5753 -0.451332,-0.84635 -0.13994,-0.39075 -0.253995,-0.4285 -0.550685,-0.18227 -0.49647,0.41203 -2.586969,0.24969 -2.73919,-0.21272 -0.08934,-0.27138 0.07242,-0.3168 0.664881,-0.18667 0.527899,0.11594 0.884351,0.0498 1.09425,-0.20314 0.586498,-0.70669 0.100737,-1.10118 -1.421671,-1.15455 -1.620645,-0.0568 -2.240903,-0.28597 -1.692093,-0.62515 0.189596,-0.11718 0.567479,-0.0938 0.83974,0.0519 0.361021,0.19322 0.666749,0.15241 1.129427,-0.15075 0.348923,-0.22862 0.862142,-0.41568 1.140485,-0.41568 0.278344,0 0.648367,-0.17144 0.822273,-0.38099 0.173907,-0.20954 0.566113,-0.4179 0.871569,-0.46302 0.791432,-0.1169 0.884609,-0.70184 0.15596,-0.97909 -0.434877,-0.16548 -0.743676,-0.12383 -1.044255,0.14083 -0.234731,0.20668 -0.710981,0.45094 -1.058333,0.5428 -0.774143,0.20473 -2.596252,0.18901 -2.809501,-0.0242 -0.252204,-0.25221 0.789899,-1.24838 1.15812,-1.10708 0.353595,0.13568 2.615393,-1.01831 2.900724,-1.47999 0.31328,-0.5069 -0.607336,-1.04139 -2.050192,-1.19031 -1.209535,-0.12483 -1.660873,-0.039 -2.782311,0.5293 -0.736219,0.37307 -1.682974,0.9623 -2.103901,1.3094 -0.420927,0.34709 -0.983163,0.71078 -1.249413,0.80819 -0.388372,0.14208 -0.447937,0.34171 -0.301244,1.0096 l 0.182847,0.8325 -1.049523,-0.16783 c -1.790664,-0.28634 -2.442147,1.10778 -1.186103,2.53816 0.223623,0.25466 0.559701,0.46302 0.74684,0.46302 0.514687,0 0.674798,0.43223 0.281134,0.75894 -0.262444,0.21781 -0.570042,0.12673 -1.239115,-0.36689 -0.489505,-0.36115 -1.08655,-0.65663 -1.326766,-0.65663 -0.49213,0 -1.312521,-0.80266 -1.312521,-1.28415 0,-0.17405 0.267891,-0.42884 0.595313,-0.56621 0.656923,-0.27561 1.747318,-1.0744 4.079075,-2.98821 0.848826,-0.69668 2.195104,-1.64343 2.991728,-2.10389 1.224103,-0.70755 1.68205,-0.82797 2.95711,-0.77762 0.829786,0.0328 1.585065,-0.064 1.678398,-0.21499 0.09333,-0.15102 0.667634,-0.52744 1.276224,-0.8365 0.60859,-0.30906 1.797311,-1.19976 2.641601,-1.97934 2.11852,-1.95613 3.997241,-2.80559 6.291101,-2.84452 1.22152,-0.0207 1.91523,0.0869 2.14832,0.33328 0.28909,0.30557 0.21733,0.34128 -0.44782,0.2228 -1.81193,-0.32274 -4.96462,0.65332 -6.401081,1.98174 -0.490014,0.45317 -0.530512,0.62153 -0.264583,1.09998 0.172694,0.31071 0.465322,0.66154 0.650283,0.77962 0.184962,0.11808 0.27399,0.31551 0.197841,0.43872 -0.07615,0.12321 -0.631463,-0.0142 -1.23403,-0.3053 -0.950469,-0.45922 -1.182314,-0.48291 -1.750447,-0.17885 -0.854952,0.45756 -1.09876,1.17312 -0.745595,2.18829 0.3183,0.91495 2.213967,2.76439 3.513527,3.42786 0.991591,0.50623 2.779055,0.56531 3.602405,0.11906 0.31786,-0.17227 0.87558,-0.34457 1.23938,-0.38289 0.3638,-0.0383 1.04827,-0.11254 1.52104,-0.16494 0.47276,-0.0524 1.00855,-0.28839 1.190619,-0.52443 0.18208,-0.23604 0.62349,-0.46735 0.98093,-0.51402 0.84651,-0.11054 1.87077,-1.90338 1.37223,-2.40192 -0.21222,-0.21222 -0.38915,-0.23179 -0.51177,-0.0566 -0.31431,0.44904 -1.61035,0.91422 -2.063079,0.7405 -0.23613,-0.0906 -0.53114,0.001 -0.66054,0.20554 -0.15903,0.25115 -0.23512,0.26614 -0.23788,0.0469 -0.002,-0.17734 -0.17334,-0.25747 -0.38025,-0.17807 -0.20691,0.0794 -0.59694,0.0262 -0.86673,-0.11816 -0.28137,-0.15058 -0.66199,-0.16657 -0.89264,-0.0375 -0.49534,0.27721 -1.28754,-0.14201 -0.90493,-0.47886 0.41549,-0.3658 2.52113,-0.91289 3.96654,-1.03059 1.589819,-0.12945 2.547219,-0.8604 1.996349,-1.52415 -0.41062,-0.49477 -1.2275,-0.53807 -1.52018,-0.0806 -0.11637,0.1819 -0.611209,0.474 -1.099639,0.6491 -0.74721,0.26788 -0.99367,0.24918 -1.55394,-0.11792 l -0.66588,-0.4363 0.72329,-0.62214 c 0.3978,-0.34218 1.06979,-0.69145 1.49329,-0.77615 1.007769,-0.20155 1.180989,-0.53152 0.61016,-1.16228 -0.2559,-0.28277 -0.39682,-0.58257 -0.31317,-0.66622 0.25395,-0.25395 1.174519,0.3645 2.505459,1.6832 1.66419,1.64889 3.14629,2.78438 4.40383,3.37391 1.01514,0.47591 1.02685,0.47505 1.46608,-0.10725 0.24352,-0.32285 0.61647,-0.5316 0.82877,-0.46389 0.2123,0.0677 0.7051,0.19275 1.0951,0.27788 0.39001,0.0851 0.90689,0.35258 1.14864,0.59432 0.30305,0.30305 0.88665,0.43848 1.87948,0.43615 1.42097,-0.003 1.9793,0.2344 1.39646,0.59461 -0.1644,0.10161 -1.20814,0.25866 -2.31942,0.34902 -1.54588,0.12568 -2.02076,0.2575 -2.02158,0.56115 -5.9e-4,0.21828 -0.23886,0.4013 -0.52949,0.40672 -0.29062,0.005 -0.67709,0.10174 -0.85882,0.21405 -0.46074,0.28475 -0.41386,0.96673 0.0665,0.96673 0.21828,0 0.39688,-0.12655 0.39688,-0.28122 0,-0.15467 0.26789,-0.24396 0.59531,-0.19844 0.36743,0.0511 0.56999,-0.0438 0.52916,-0.24795 -0.0364,-0.1819 0.16496,-0.33073 0.44741,-0.33073 0.28245,0 0.58834,-0.121 0.67974,-0.2689 0.26099,-0.42229 0.57647,-0.0786 0.52828,0.57554 -0.0896,1.21569 -1.21123,1.66134 -4.44799,1.76721 -2.19295,0.0717 -3.08206,0.2033 -3.42401,0.50671 -0.37906,0.33633 -0.91502,0.38005 -2.98903,0.24382 -1.596709,-0.10489 -2.739059,-0.31443 -3.102709,-0.56915 -0.75251,-0.52708 -1.2448,-0.5095 -1.67702,0.0599 -0.44714,0.58903 -0.46687,1.16357 -0.0376,1.09434 0.53984,-0.087 1.25677,0.32363 1.25677,0.7199 0,0.20271 0.11906,0.36857 0.26459,0.36857 0.67328,0 0.16395,0.52407 -0.65947,0.67854 -1.10301,0.20693 -2.04681,-0.0496 -1.47738,-0.40149 0.20272,-0.12528 0.28846,-0.41496 0.19495,-0.65863 -0.13626,-0.3551 -0.27005,-0.3798 -0.72842,-0.13449 -0.41062,0.21976 -0.48277,0.37923 -0.26851,0.5935 0.46457,0.46457 0.34962,0.66184 -0.4936,0.84704 -0.432623,0.095 -1.15959,0.5212 -1.61548,0.94706 -0.45589,0.42587 -1.099073,0.7743 -1.429295,0.7743 -0.330222,0 -0.949378,0.0698 -1.375902,0.1551 -0.494787,0.099 -0.874981,0.0271 -1.050333,-0.19844 z m 3.479476,-1.27957 c 0.08994,-0.14553 0.03743,-0.26459 -0.116676,-0.26459 -0.154109,0 -0.280199,0.11906 -0.280199,0.26459 0,0.14552 0.0525,0.26458 0.116677,0.26458 0.06417,0 0.190262,-0.11906 0.280198,-0.26458 z m -3.428435,-0.81179 c 0.09607,-0.15544 0.329146,-0.22334 0.51795,-0.15089 0.407581,0.1564 2.574685,-1.37028 2.383713,-1.67928 -0.178968,-0.28958 -2.330516,0.3659 -2.45818,0.7489 -0.05602,0.16805 -0.449119,0.30556 -0.873555,0.30556 -0.725694,0 -1.028562,0.44869 -0.595312,0.88194 0.268666,0.26867 0.8296,0.21055 1.025384,-0.10623 z m 11.498229,-3.15696 c 0,-0.14553 -0.20836,-0.26276 -0.463019,-0.26054 -0.3957,0.003 -0.40532,0.0414 -0.0661,0.26054 0.499319,0.32268 0.529159,0.32268 0.529159,0 z m 6.98768,-1.03207 c 0.26943,-0.29771 0.34884,-0.56859 0.19463,-0.66389 -0.3292,-0.20346 -1.15346,0.59664 -0.95142,0.92354 0.20302,0.3285 0.23421,0.3178 0.75679,-0.25965 z m 3.77639,-0.34046 c -0.0845,-0.21107 -0.14716,-0.14837 -0.15985,0.15985 -0.0115,0.27892 0.0511,0.43519 0.13896,0.34727 0.0879,-0.0879 0.0973,-0.31612 0.0209,-0.50712 z m -2.70673,-1.05119 c 0.73343,-0.33418 0.86246,-0.64263 0.34318,-0.82043 -0.4315,-0.14775 -1.56003,0.58627 -1.37118,0.89184 0.1852,0.29965 0.21872,0.29732 1.028,-0.0714 z m -4.08859,-0.17155 c 0,-0.11771 -0.17481,-0.44513 -0.38846,-0.7276 -0.38166,-0.5046 -0.38861,-0.50394 -0.39688,0.0376 -0.005,0.30317 0.071,0.63059 0.16798,0.72761 0.24399,0.24399 0.61736,0.22124 0.61736,-0.0376 z m 0.79375,-0.69641 c 0,-0.39718 -0.47502,-0.81942 -0.68529,-0.60915 -0.18454,0.18454 0.18081,0.99041 0.44901,0.99041 0.12995,0 0.23628,-0.17157 0.23628,-0.38126 z m 7.40833,2.52916 c 0,-0.14553 0.11906,-0.33817 0.26458,-0.42811 0.14553,-0.0899 0.26459,-0.0445 0.26459,0.10106 0,0.14552 -0.11906,0.33817 -0.26459,0.42811 -0.14552,0.0899 -0.26458,0.0445 -0.26458,-0.10106 z"
       id="path10" />
  </g>
</svg>
