<?xml version="1.0" encoding="UTF-8" standalone="no"?>
<!-- Created with Inkscape (http://www.inkscape.org/) -->

<svg
   width="110.28471mm"
   height="24.274473mm"
   viewBox="0 0 110.2847 24.27447"
   version="1.1"
   id="svg1"
   inkscape:version="1.4.1-rc (06eac75fbf, 2025-03-29)"
   sodipodi:docname="mounts1.svg"
   xmlns:inkscape="http://www.inkscape.org/namespaces/inkscape"
   xmlns:sodipodi="http://sodipodi.sourceforge.net/DTD/sodipodi-0.dtd"
   xmlns="http://www.w3.org/2000/svg"
   xmlns:svg="http://www.w3.org/2000/svg">
  <sodipodi:namedview
     id="namedview1"
     pagecolor="#ffffff"
     bordercolor="#000000"
     borderopacity="0.25"
     inkscape:showpageshadow="2"
     inkscape:pageopacity="0.0"
     inkscape:pagecheckerboard="0"
     inkscape:deskcolor="#d1d1d1"
     inkscape:document-units="mm"
     inkscape:zoom="1.0217435"
     inkscape:cx="208.46719"
     inkscape:cy="45.510443"
     inkscape:window-width="1850"
     inkscape:window-height="1016"
     inkscape:window-x="0"
     inkscape:window-y="0"
     inkscape:window-maximized="1"
     inkscape:current-layer="layer1" />
  <defs
     id="defs1" />
  <g
     inkscape:label="Layer 1"
     inkscape:groupmode="layer"
     id="layer1"
     transform="translate(-51.593745,-136.78961)">
    <path
       style="fill:#000000"
       d="m 83.872912,160.7995 c 0,-0.14553 0.119062,-0.26459 0.264583,-0.26459 0.145521,0 0.264583,0.11906 0.264583,0.26459 0,0.14552 -0.119062,0.26458 -0.264583,0.26458 -0.145521,0 -0.264583,-0.11906 -0.264583,-0.26458 z m 1.058333,0 c 0,-0.14553 0.238125,-0.26459 0.529167,-0.26459 0.291041,0 0.529166,0.11906 0.529166,0.26459 0,0.14552 -0.238125,0.26458 -0.529166,0.26458 -0.291042,0 -0.529167,-0.11906 -0.529167,-0.26458 z m -24.60625,-1.0328 c 0,-0.22971 2.64709,-0.55614 2.902754,-0.35796 0.06855,0.0531 -0.05052,0.20738 -0.264583,0.34276 -0.500999,0.31684 -2.638171,0.32915 -2.638171,0.0152 z m 24.741209,-0.0299 c 0.0914,-0.1479 0.277024,-0.2004 0.41249,-0.11668 0.366988,0.22681 0.298559,0.38558 -0.166189,0.38558 -0.226869,0 -0.337705,-0.12101 -0.246301,-0.2689 z m 1.452541,0.0351 c 0,-0.25986 1.499885,-0.20657 1.769326,0.0629 0.09402,0.094 -0.265611,0.17096 -0.799187,0.17096 -0.533577,0 -0.970139,-0.10522 -0.970139,-0.23383 z m 3.307292,-0.81715 c -0.727605,-0.1082 -1.412214,-0.1471 -1.521355,-0.0864 -0.50778,0.28225 -0.690303,-0.26106 -0.291948,-0.86902 0.418013,-0.63797 0.754969,-0.64781 0.754969,-0.0221 0,0.49723 1.958327,0.55214 2.147101,0.0602 0.199091,-0.51883 0.631024,-0.54053 0.631024,-0.0317 0,0.5419 0.399629,0.71966 1.178457,0.52419 0.833366,-0.20916 0.875024,-0.57546 0.07831,-0.68861 -1.044055,-0.14828 -0.377705,-0.61287 0.912368,-0.63612 0.683704,-0.0123 1.398079,-0.14547 1.5875,-0.29589 0.189422,-0.15043 0.70159,-0.28632 1.138153,-0.30199 0.976948,-0.0351 2.861646,-0.68861 2.976113,-1.03202 0.04632,-0.13896 -0.07669,-0.3862 -0.273353,-0.54941 -0.269469,-0.22364 -0.510371,-0.18974 -0.97771,0.1376 -0.341076,0.2389 -1.22593,0.46562 -1.966344,0.50383 -0.740413,0.0382 -1.944447,0.14427 -2.67563,0.23569 -1.302748,0.16288 -3.032181,-0.22283 -2.661435,-0.59358 0.100964,-0.10096 0.742555,-0.21673 1.425757,-0.25727 1.127129,-0.0669 1.717625,-0.24025 2.994169,-0.87917 0.253417,-0.12684 0.552484,-0.0913 0.730544,0.0867 0.22558,0.22558 0.442037,0.16092 0.859813,-0.25686 0.571328,-0.57133 0.459074,-1.39391 -0.12475,-0.91415 -0.646538,0.5313 -3.324994,1.12484 -4.273251,0.94695 -1.209194,-0.22685 -1.064181,-0.71492 0.282701,-0.95149 1.717932,-0.30174 3.067765,-0.97872 2.970392,-1.48974 -0.04862,-0.25514 -0.373274,-0.48452 -0.744927,-0.52631 -1.277953,-0.14369 -1.849381,-0.33602 -1.849381,-0.62247 0,-0.35378 2.116287,-0.08 3.348323,0.43315 0.459129,0.19123 1.709285,1.06488 2.778125,1.94144 2.320198,1.90281 2.858208,2.13341 4.589178,1.96699 1.25319,-0.12048 1.32478,-0.0932 1.35833,0.51719 0.0195,0.3544 -0.10172,0.64437 -0.26932,0.64437 -0.1676,0 -0.6214,0.0795 -1.00846,0.17663 -0.46916,0.11775 -0.83611,0.0443 -1.10085,-0.22049 -0.64306,-0.64306 -1.02371,-0.46951 -0.55136,0.25139 0.56082,0.85592 0.28391,1.73275 -0.54722,1.73275 -0.87122,0 -1.08519,0.48256 -0.34551,0.77922 0.54171,0.21726 0.49029,0.25189 -0.44603,0.30041 -3.457925,0.1792 -5.249448,0.0966 -5.36557,-0.2475 -0.08705,-0.25791 0.03346,-0.30947 0.429483,-0.18378 0.302762,0.0961 0.777444,0.0532 1.054849,-0.0952 0.277405,-0.14846 0.583689,-0.19061 0.680632,-0.0937 0.320475,0.32047 2.275056,0.30191 2.266256,-0.0215 -0.01276,-0.46917 -1.25089,-1.28424 -1.453307,-0.95673 -0.09373,0.15166 -0.39852,0.20334 -0.677315,0.11486 -0.324024,-0.10284 -0.507585,-0.0351 -0.508798,0.18767 -0.0023,0.42008 -2.530453,0.61394 -2.778226,0.21303 -0.313653,-0.5075 -0.685602,-0.2754 -0.40347,0.25177 0.151034,0.28221 0.184989,0.56499 0.07545,0.62842 -0.442426,0.25616 -3.191824,0.37324 -4.432486,0.18874 z m 11.007673,-1.93781 c -0.33959,-0.33959 -0.68396,-0.0771 -0.43255,0.32967 0.0974,0.15757 0.29828,0.21159 0.44642,0.12003 0.18071,-0.11169 0.17615,-0.25968 -0.0139,-0.4497 z m -39.714965,1.66587 c 0,-0.14552 0.119062,-0.26458 0.264583,-0.26458 0.145521,0 0.264584,0.11906 0.264584,0.26458 0,0.14552 -0.119063,0.26458 -0.264584,0.26458 -0.145521,0 -0.264583,-0.11906 -0.264583,-0.26458 z m 2.38125,-0.26458 c 0,-0.14553 0.238125,-0.26459 0.529167,-0.26459 0.291041,0 0.529166,0.11906 0.529166,0.26459 0,0.14552 -0.238125,0.26458 -0.529166,0.26458 -0.291042,0 -0.529167,-0.11906 -0.529167,-0.26458 z m 19.435119,-0.019 c -0.180752,-0.29246 3.065428,-3.81768 5.171131,-5.61564 1.163419,-0.99339 3.415143,-2.30283 3.959954,-2.30283 0.621643,0 0.198234,0.46023 -0.925831,1.00634 -0.659565,0.32044 -1.271439,0.77085 -1.35972,1.0009 -0.08828,0.23006 -0.374002,0.49762 -0.634936,0.59458 -0.701205,0.26057 -4.47905,4.01282 -4.47905,4.44871 0,0.20592 0.17791,0.44268 0.395355,0.52612 0.217445,0.0834 0.329481,0.2583 0.248968,0.38857 -0.206532,0.33418 -2.164254,0.29566 -2.375871,-0.0467 z m -4.353869,-0.24556 c 0,-0.14552 0.119062,-0.26458 0.264583,-0.26458 0.145521,0 0.264584,0.11906 0.264584,0.26458 0,0.14552 -0.119063,0.26459 -0.264584,0.26459 -0.145521,0 -0.264583,-0.11907 -0.264583,-0.26459 z m 11.377083,-0.52916 c 0,-0.14553 0.119063,-0.26459 0.264584,-0.26459 0.14552,0 0.264583,0.11906 0.264583,0.26459 0,0.14552 -0.119063,0.26458 -0.264583,0.26458 -0.145521,0 -0.264584,-0.11906 -0.264584,-0.26458 z m 13.129642,-0.14231 c -0.0905,-0.23579 0.0164,-0.47308 0.25406,-0.5643 0.49407,-0.18959 1.03471,0.28073 0.78575,0.68355 -0.25963,0.42009 -0.85923,0.35133 -1.03981,-0.11925 z m -38.914744,-0.10324 c -0.185652,-0.30039 0.803607,-0.64784 1.180801,-0.41472 0.149196,0.0922 0.202766,0.27849 0.119044,0.41395 -0.19686,0.31853 -1.103128,0.31907 -1.299845,7.7e-4 z m 21.551769,-0.22519 c 0,-0.45842 1.369553,-0.32727 1.52501,0.14603 0.07615,0.23186 -0.144146,0.31736 -0.707199,0.27445 -0.480588,-0.0366 -0.817811,-0.21 -0.817811,-0.42048 z M 76.017767,156.712 c 0.123295,-0.37525 1.238546,-0.51827 1.557124,-0.19969 0.16432,0.16432 -0.08429,0.2952 -0.696489,0.36667 -0.591646,0.0691 -0.917427,0.006 -0.860635,-0.16698 z m 28.492643,0.11875 c 0,-0.14553 0.11906,-0.26459 0.26458,-0.26459 0.14553,0 0.26459,0.11906 0.26459,0.26459 0,0.14552 -0.11906,0.26458 -0.26459,0.26458 -0.14552,0 -0.26458,-0.11906 -0.26458,-0.26458 z m 1.32292,0 c 0,-0.14553 0.29765,-0.26459 0.66146,-0.26459 0.3638,0 0.66145,0.11906 0.66145,0.26459 0,0.14552 -0.29765,0.26458 -0.66145,0.26458 -0.36381,0 -0.66146,-0.11906 -0.66146,-0.26458 z m -40.337422,-0.5105 c -0.100419,-0.16248 0.03466,-0.28325 0.316805,-0.28325 0.270526,0 0.630915,-0.13905 0.800866,-0.309 0.407738,-0.40774 1.990202,-0.94426 2.391024,-0.81065 0.40718,0.13573 0.412055,0.59048 0.0063,0.59048 -0.170443,0 -0.497865,0.16563 -0.727605,0.36807 -0.56046,0.49386 -2.559839,0.81258 -2.78742,0.44435 z m 13.085337,-0.81242 c 0,-0.14552 0.119062,-0.26458 0.264583,-0.26458 0.145521,0 0.264584,0.11906 0.264584,0.26458 0,0.14552 -0.119063,0.26458 -0.264584,0.26458 -0.145521,0 -0.264583,-0.11906 -0.264583,-0.26458 z m -8.069792,-1.31798 c -0.639433,-0.28074 -0.554523,-0.32693 0.737023,-0.40093 0.635151,-0.0364 0.966377,0.0498 0.905318,0.23544 -0.124196,0.37772 -0.965817,0.46252 -1.642341,0.16549 z m 4.894792,-0.005 c 0,-0.14552 0.178594,-0.26458 0.396875,-0.26458 0.218281,0 0.396875,0.11906 0.396875,0.26458 0,0.14552 -0.178594,0.26459 -0.396875,0.26459 -0.218281,0 -0.396875,-0.11907 -0.396875,-0.26459 z m -1.955126,-1.07288 c 0.367854,-0.36785 1.037466,-0.59468 2.070239,-0.70127 1.401137,-0.14461 1.518186,-0.11625 1.42504,0.34528 -0.08641,0.42817 -0.326135,0.49827 -1.614567,0.47214 -0.832197,-0.0169 -1.513086,0.0724 -1.513086,0.19844 0,0.12602 -0.205052,0.22913 -0.455671,0.22913 -0.40261,0 -0.392357,-0.0633 0.08805,-0.54372 z m -9.421957,-0.51868 c 0,-0.25623 1.005291,-0.47968 2.568416,-0.57089 1.112664,-0.0649 1.803321,0.19392 1.107474,0.41505 -0.761406,0.24197 -3.67589,0.36552 -3.67589,0.15584 z M 153.0603,152.3309 c -0.0906,-0.14655 0.0266,-0.33985 0.26038,-0.42956 0.50659,-0.1944 0.78891,0.0198 0.54541,0.41383 -0.21971,0.35549 -0.59132,0.36274 -0.80579,0.0157 z m 1.45637,-0.0814 c 0,-0.44057 1.71645,-1.27507 2.2229,-1.08072 0.47119,0.18081 1.74585,-0.62259 1.74585,-1.10038 0,-0.19329 -0.26201,-0.53496 -0.58225,-0.75926 -0.54527,-0.38192 -0.62948,-0.3595 -1.32613,0.35305 -0.63866,0.65324 -0.92121,0.75188 -1.99745,0.69726 -0.68945,-0.035 -1.6405,-0.0815 -2.11345,-0.10347 -0.47294,-0.0219 -0.85989,-0.165 -0.85989,-0.31794 0,-0.42047 1.86156,-1.13052 2.91042,-1.11012 0.96436,0.0188 1.5875,-0.30954 1.5875,-0.83636 0,-0.22059 -0.75494,-0.27736 -2.66713,-0.20056 -1.61922,0.065 -2.77387,3.8e-4 -2.93882,-0.16457 -0.44164,-0.44164 0.81159,-0.94251 2.43095,-0.97155 1.26279,-0.0226 1.4552,-0.095 1.4552,-0.54753 0,-0.43414 -0.15504,-0.5086 -0.92604,-0.4448 -0.50932,0.0422 -1.26757,0.14401 -1.68499,0.22635 -0.56528,0.1115 -0.72851,0.0582 -0.63964,-0.20893 0.0656,-0.19725 0.40716,-0.41817 0.75896,-0.49093 1.60772,-0.33252 2.36706,-1.54618 1.31848,-2.10736 -0.8243,-0.44115 -1.75535,-0.32108 -3.34446,0.43133 -1.13184,0.5359 -1.84824,1.14984 -2.98379,2.55707 -1.96933,2.44045 -3.34749,3.88146 -3.71218,3.88146 -0.51498,0 -0.31919,-0.46131 0.26008,-0.61279 0.30568,-0.0799 0.48255,-0.26385 0.39303,-0.40869 -0.0895,-0.14484 0.071,-0.33754 0.35675,-0.42822 0.84097,-0.26692 0.3627,-0.79324 -0.79309,-0.87278 -1.22931,-0.0846 -1.81477,0.14933 -1.26833,0.50679 0.237,0.15503 0.0222,0.21535 -0.63213,0.1775 -0.5451,-0.0315 -1.13446,0.0861 -1.30968,0.26127 -0.2484,0.24839 -0.21463,0.31859 0.15325,0.31859 0.26043,0 0.42198,0.14818 0.36056,0.33072 -0.16881,0.50173 -1.59062,0.23671 -2.07777,-0.38729 -0.23384,-0.29952 -0.49303,-0.43478 -0.57597,-0.30057 -0.17682,0.2861 -1.10512,0.27026 -2.04158,-0.0348 -0.62398,-0.20329 -0.63147,-0.22722 -0.13229,-0.42234 0.29104,-0.11376 1.02843,-0.2152 1.63864,-0.22543 0.81878,-0.0137 1.21298,-0.16636 1.50448,-0.58255 0.23626,-0.3373 0.55789,-0.50144 0.80028,-0.40843 0.5602,0.21497 0.76651,-0.2196 0.29143,-0.61388 -0.31334,-0.26005 -0.57805,-0.21208 -1.35313,0.24523 -0.73809,0.43548 -1.42271,0.57388 -2.92546,0.59138 -1.07903,0.0126 -2.02854,-0.0438 -2.11003,-0.12532 -0.35245,-0.35245 0.26721,-0.66377 1.67006,-0.83905 1.72716,-0.21579 2.76794,-0.56197 3.0501,-1.01451 0.344,-0.55173 -0.91934,-0.65567 -1.92363,-0.15827 -0.93022,0.46071 -3.15628,0.44125 -3.15628,-0.0276 0,-0.20471 0.8848,-0.57319 1.5875,-0.66114 0.97094,-0.12152 1.84573,-0.47682 2.23616,-0.90824 0.38813,-0.42888 0.38625,-0.49785 -0.0227,-0.8361 -1.06891,-0.88406 -5.38843,-0.091 -5.38843,0.98935 0,0.25712 -0.14813,0.36154 -0.38431,0.27091 -0.55589,-0.21331 -2.85765,2.90268 -2.64323,3.57825 0.19702,0.62074 -0.30262,1.27511 -0.97361,1.27511 -0.5699,0 -0.63813,0.28197 -0.17927,0.74084 0.24695,0.24694 -0.0379,0.3175 -1.28191,0.3175 -1.26339,0 -1.70002,-0.11118 -2.0783,-0.52917 -0.26339,-0.29104 -0.4009,-0.54405 -0.30559,-0.56224 0.35131,-0.067 0.58691,-0.12388 1.3255,-0.31977 0.59703,-0.15834 0.72536,-0.31493 0.61233,-0.74716 -0.12751,-0.48758 -0.0551,-0.52925 0.66835,-0.38457 0.69154,0.13831 0.94299,0.0227 1.70278,-0.78292 0.49028,-0.51985 0.89143,-1.09132 0.89143,-1.26992 0,-0.53893 2.07079,-2.52005 3.11956,-2.98448 0.59834,-0.26496 1.75612,-0.44535 2.96585,-0.46209 1.76648,-0.0245 2.10553,0.0547 3.0877,0.72129 0.60683,0.41182 1.41063,1.21313 1.78623,1.78071 0.86294,1.30398 2.25141,2.01728 4.16236,2.1383 l 1.49565,0.0947 1.1395,-1.29423 c 1.45486,-1.65243 3.78819,-2.8063 5.67542,-2.8066 1.49492,-2.3e-4 2.19093,0.54019 3.17271,2.4635 0.65949,1.29193 2.7381,2.84079 4.68199,3.48876 1.65974,0.55324 1.87738,0.82726 0.8599,1.08263 -0.3638,0.0913 -0.66146,0.25205 -0.66146,0.35721 0,0.10515 -0.30781,0.35593 -0.68403,0.55727 -0.37622,0.20135 -0.85552,0.69772 -1.06513,1.10305 -0.31847,0.61585 -0.55133,0.73696 -1.41702,0.73696 -0.56976,0 -1.10951,0.11906 -1.19944,0.26458 -0.24614,0.39826 -1.71979,0.32689 -1.71979,-0.0833 z m -5.94897,-0.17457 c -0.21382,-0.34596 0.39514,-0.6393 0.69814,-0.3363 0.16936,0.16936 0.11841,0.31338 -0.14687,0.41518 -0.22341,0.0857 -0.47148,0.0502 -0.55127,-0.0789 z m 1.98022,-0.007 c 0,-0.14553 0.41671,-0.26459 0.92604,-0.26459 0.50932,0 0.92604,0.11906 0.92604,0.26459 0,0.14552 -0.41672,0.26458 -0.92604,0.26458 -0.50933,0 -0.92604,-0.11906 -0.92604,-0.26458 z m -4.6964,-0.33073 c 0.10845,-0.32544 1.33866,-0.48615 1.9829,-0.25904 0.64753,0.22826 0.0172,0.58977 -1.02833,0.58977 -0.73421,0 -1.03056,-0.10268 -0.95457,-0.33073 z m -3.96871,-0.11195 c -0.44543,-0.17588 -0.42132,-0.61566 0.0337,-0.61566 0.20046,0 0.50549,-0.16991 0.67784,-0.37758 0.58885,-0.70951 3.26293,0.14823 2.79956,0.89798 -0.12864,0.20814 -3.02616,0.28675 -3.51115,0.0953 z m 17.39636,-0.22709 c 0,-0.42793 0.41344,-0.52528 0.64432,-0.15171 0.0805,0.13027 -0.0315,0.30513 -0.24897,0.38857 -0.24015,0.0922 -0.39535,-8.3e-4 -0.39535,-0.23686 z m -94.720842,-0.12398 c 0,-0.14553 0.12609,-0.26459 0.280199,-0.26459 0.154109,0 0.206613,0.11906 0.116676,0.26459 -0.08994,0.14552 -0.216026,0.26458 -0.280198,0.26458 -0.06417,0 -0.116677,-0.11906 -0.116677,-0.26458 z m 14.2875,-0.52917 c 0,-0.14552 0.238125,-0.26458 0.529167,-0.26458 0.291042,0 0.529167,0.11906 0.529167,0.26458 0,0.14552 -0.238125,0.26458 -0.529167,0.26458 -0.291042,0 -0.529167,-0.11906 -0.529167,-0.26458 z m 57.943752,-0.25937 c 0,-0.14265 0.47029,-0.21407 1.04509,-0.15871 0.63261,0.0609 1.08824,-0.0194 1.1544,-0.20365 0.0601,-0.16737 0.21147,-0.20854 0.33631,-0.0915 0.12485,0.11705 0.0519,0.32359 -0.16221,0.45897 -0.51823,0.32774 -2.37359,0.32374 -2.37359,-0.005 z m -78.316668,-0.28541 c 0,-0.15411 0.119062,-0.20662 0.264583,-0.11668 0.145521,0.0899 0.264583,0.21603 0.264583,0.2802 0,0.0642 -0.119062,0.11668 -0.264583,0.11668 -0.145521,0 -0.264583,-0.12609 -0.264583,-0.2802 z m 1.124479,-0.0505 c 0.06063,-0.1819 0.30868,-0.32081 0.551215,-0.30868 0.242535,0.0121 0.857691,0.0419 1.367014,0.0661 1.525925,0.0727 1.044578,0.57327 -0.551215,0.57327 -1.064213,0 -1.446433,-0.0925 -1.367014,-0.33073 z m -8.003646,-0.19815 c 0,-0.14552 0.357187,-0.26458 0.79375,-0.26458 0.436562,0 0.79375,0.11906 0.79375,0.26458 0,0.14552 -0.357188,0.26458 -0.79375,0.26458 -0.436563,0 -0.79375,-0.11906 -0.79375,-0.26458 z m 3.439583,-0.51925 c 0,-0.29062 2.179353,-0.59995 2.73219,-0.38781 0.833324,0.31978 0.441209,0.51019 -1.145385,0.5562 -0.872743,0.0253 -1.586805,-0.0505 -1.586805,-0.16839 z m 24.870834,-0.01 c 0,-0.14552 0.47625,-0.26458 1.058333,-0.26458 0.582083,0 1.058333,0.11906 1.058333,0.26458 0,0.14552 -0.47625,0.26459 -1.058333,0.26459 -0.582083,0 -1.058333,-0.11907 -1.058333,-0.26459 z m 39.422918,-0.79375 c 0,-0.15434 0.88194,-0.26458 2.11667,-0.26458 1.23472,0 2.11666,0.11024 2.11666,0.26458 0,0.15434 -0.88194,0.26459 -2.11666,0.26459 -1.23473,0 -2.11667,-0.11025 -2.11667,-0.26459 z M 82.020828,148.364 c 0,-0.14552 0.185621,-0.26458 0.41249,-0.26458 0.22687,0 0.338905,0.11906 0.248969,0.26458 -0.08994,0.14552 -0.275558,0.26458 -0.41249,0.26458 -0.136933,0 -0.248969,-0.11906 -0.248969,-0.26458 z m 50.535422,-0.0155 c 0,-0.1541 0.11906,-0.20661 0.26458,-0.11667 0.14552,0.0899 0.26459,0.21602 0.26459,0.2802 0,0.0642 -0.11907,0.11667 -0.26459,0.11667 -0.14552,0 -0.26458,-0.12609 -0.26458,-0.2802 z m -2.11667,-0.26458 c 0,-0.15411 0.11906,-0.20661 0.26459,-0.11668 0.14552,0.0899 0.26458,0.21603 0.26458,0.2802 0,0.0642 -0.11906,0.11668 -0.26458,0.11668 -0.14553,0 -0.26459,-0.12609 -0.26459,-0.2802 z m 1.32292,0 c 0,-0.15411 0.11906,-0.20661 0.26458,-0.11668 0.14552,0.0899 0.26459,0.21603 0.26459,0.2802 0,0.0642 -0.11907,0.11668 -0.26459,0.11668 -0.14552,0 -0.26458,-0.12609 -0.26458,-0.2802 z m -45.23634,-0.50337 c -0.335188,-0.21198 -0.327736,-0.26998 0.05348,-0.41627 0.522846,-0.20063 1.071574,0.0721 0.853852,0.42437 -0.190237,0.30781 -0.410911,0.30584 -0.907328,-0.008 z m 13.295221,-0.60549 c -0.140749,-0.1819 -0.330185,-0.53909 -0.420968,-0.79375 -0.259545,-0.72807 -0.74396,-0.55484 -0.554901,0.19843 0.125542,0.5002 0.06227,0.66146 -0.259542,0.66146 -0.234057,0 -0.411459,-0.0893 -0.394226,-0.19844 0.0737,-0.46675 -0.04815,-0.85989 -0.266518,-0.85989 -0.129351,0 -0.218648,0.20836 -0.198437,0.46302 0.03148,0.3967 -0.190621,0.45859 -1.550752,0.43208 -3.102853,-0.0605 -3.476591,-0.10569 -3.984326,-0.48211 -0.437019,-0.32399 -0.464282,-0.46152 -0.182862,-0.92245 0.440891,-0.72212 0.438006,-0.72917 -0.383076,-0.93525 -0.963032,-0.2417 -0.315051,-0.66233 1.02892,-0.66791 0.537114,-0.002 1.040491,-0.10747 1.118615,-0.23388 0.07812,-0.1264 0.605468,-0.30393 1.171878,-0.3945 1.144707,-0.18305 1.769256,-0.74188 1.52896,-1.36808 -0.119387,-0.31112 -0.277904,-0.34747 -0.649063,-0.14883 -0.926122,0.49564 -2.75397,1.04243 -3.074095,0.91958 -0.176086,-0.0676 -0.613622,-0.0113 -0.972304,0.12509 -0.448056,0.17036 -0.846134,0.14413 -1.271997,-0.0838 -0.792804,-0.4243 -0.297313,-0.76438 0.610697,-0.41915 0.394449,0.14997 0.735268,0.15771 0.821213,0.0187 0.189044,-0.30588 1.706577,-1.06498 2.129026,-1.06498 0.178106,0 0.472048,-0.17859 0.653205,-0.39688 0.505001,-0.60848 -0.134177,-1.19062 -1.307291,-1.19062 -1.475066,0 -3.706174,0.75179 -4.375982,1.47453 -0.327313,0.35317 -0.712166,0.64214 -0.855229,0.64214 -0.338198,0 -3.251081,3.05239 -3.251081,3.40679 0,0.14909 0.193883,0.37958 0.430852,0.51219 0.80734,0.45182 -0.104721,0.59892 -1.917664,0.3093 -0.97817,-0.15626 -1.893321,-0.35508 -2.033668,-0.44182 -0.37507,-0.23181 0.886581,-0.85578 1.752372,-0.86667 0.635466,-0.008 0.719402,-0.0914 0.568975,-0.56535 -0.159482,-0.50248 -0.100257,-0.53924 0.615554,-0.38202 0.718001,0.1577 0.911776,0.0352 2.073583,-1.31048 0.886782,-1.02716 1.810388,-1.74477 2.998232,-2.32955 1.52326,-0.7499 1.970754,-0.84515 3.972026,-0.84552 l 2.255363,-4.2e-4 1.852083,1.49649 c 1.49714,1.20969 2.136866,1.54898 3.338067,1.77042 0.8173,0.15066 1.72786,0.21068 2.02347,0.13337 0.60411,-0.15798 1.73726,0.34539 1.53053,0.67989 -0.0738,0.11944 0.0992,0.48627 0.38445,0.81518 0.45051,0.51943 0.54043,0.54131 0.68428,0.16644 0.18763,-0.48897 1.56265,-0.59762 1.84204,-0.14556 0.0972,0.15732 0.45414,0.21641 0.79315,0.13132 0.339,-0.0851 0.69023,-0.0352 0.7805,0.11086 0.0903,0.14605 0.51428,0.26555 0.94225,0.26555 0.71282,0 0.98026,0.23885 0.64398,0.57513 -0.0738,0.0738 -0.66948,0.0529 -1.32375,-0.0464 -0.82541,-0.12527 -1.34602,-0.071 -1.70056,0.17736 -0.31028,0.21733 -0.57307,0.2574 -0.66909,0.10203 -0.25089,-0.40594 -0.93494,-0.009 -0.93494,0.54308 0,0.27547 -0.11906,0.50086 -0.26458,0.50086 -0.14553,0 -0.26459,-0.1786 -0.26459,-0.39688 0,-0.21828 -0.11906,-0.39687 -0.26458,-0.39687 -0.14552,0 -0.26459,-0.1786 -0.26459,-0.39688 0,-0.24694 -0.24988,-0.39687 -0.66145,-0.39687 -0.68829,0 -0.90631,-0.39763 -0.33073,-0.60319 0.59274,-0.21169 -0.0214,-0.52268 -1.23121,-0.62347 -1.27581,-0.10628 -1.71205,0.17617 -1.08098,0.69991 0.61291,0.50867 0.47428,1.05591 -0.2675,1.05591 -0.8607,0 -0.85587,0.43032 0.007,0.5952 0.43455,0.0831 0.76367,-0.0218 0.9414,-0.29988 0.20054,-0.31381 0.31025,-0.33959 0.41225,-0.0969 0.0764,0.1819 0.36719,0.33073 0.6461,0.33073 0.27892,0 0.50712,0.11338 0.50712,0.25196 0,0.13857 -0.74414,0.2874 -1.65365,0.33073 -1.14984,0.0548 -1.63349,0.17953 -1.5875,0.4095 0.0364,0.1819 -0.0383,0.33073 -0.16604,0.33073 -0.1277,0 -0.347342,-0.14883 -0.488091,-0.33073 z m -5.429266,-2.09223 c 0.231993,-0.23199 0.402193,-0.22669 0.701678,0.0219 0.246192,0.20432 0.624822,0.25136 1.003401,0.12465 0.334405,-0.11193 0.846134,-0.17909 1.137176,-0.14926 0.651858,0.0668 2.322071,-0.92683 2.195608,-1.30622 -0.110119,-0.33036 -0.168913,-0.33392 -1.604116,-0.0972 -0.616362,0.10165 -1.258933,0.29624 -1.427935,0.43242 -0.169001,0.13618 -0.827675,0.27826 -1.463719,0.31572 -1.276878,0.0752 -1.890315,0.341 -1.657289,0.71805 0.208884,0.33798 0.746127,0.30908 1.115196,-0.06 z m -8.133902,1.69535 c -0.0076,-0.62023 0.12855,-0.70435 1.245074,-0.76922 1.230768,-0.0715 1.606899,0.19926 0.989084,0.712 -0.316045,0.26229 -0.550292,0.2658 -1.097583,0.0164 -0.553523,-0.25221 -0.740435,-0.24663 -0.914155,0.0272 -0.167698,0.26439 -0.219308,0.26753 -0.22242,0.0135 z m 33.399597,0.003 c -0.76399,-0.0534 -1.38906,-0.21638 -1.38906,-0.36208 0,-0.16106 0.59634,-0.2143 1.52135,-0.13582 1.83284,0.15551 1.65365,0.10909 1.65365,0.42838 0,0.14552 -0.0893,0.24255 -0.19844,0.21564 -0.10914,-0.0269 -0.82352,-0.0927 -1.5875,-0.14612 z m -28.905732,-0.54833 c 0,-0.14208 0.188543,-0.33068 0.418984,-0.41911 0.257681,-0.0989 0.378641,-0.0397 0.314193,0.1536 -0.131837,0.3955 -0.733177,0.61327 -0.733177,0.26551 z m 29.065202,-0.73188 c -0.34757,-0.34757 -0.59746,-0.36833 -1.50199,-0.12476 -0.9585,0.25809 -2.13335,0.18074 -2.77602,-0.18277 -0.35984,-0.20354 2.82629,-1.66172 3.30138,-1.51093 0.24304,0.0771 0.51847,0.0163 0.61207,-0.13509 0.0936,-0.15144 0.44474,-0.27535 0.78033,-0.27535 0.69399,0 2.08138,-0.98438 1.86983,-1.32668 -0.17621,-0.2851 -2.05654,-0.003 -2.28313,0.34305 -0.23481,0.35815 -2.34475,0.52109 -2.34475,0.18107 0,-0.14981 0.20835,-0.33817 0.46302,-0.41857 0.81074,-0.25598 2.12985,-1.0186 2.2241,-1.28583 0.10603,-0.30061 -2.16308,-0.4052 -2.55483,-0.11776 -0.80743,0.59242 -3.57433,0.0959 -3.16413,-0.56787 0.0869,-0.14059 0.27995,-0.18024 0.42902,-0.0881 0.39781,0.24586 3.34092,-0.43449 3.68784,-0.85251 0.43795,-0.52769 0.0986,-1.121 -0.74297,-1.29884 -0.40641,-0.0859 -0.94177,-0.26559 -1.18969,-0.39934 -0.24791,-0.13376 -0.51313,-0.14226 -0.58937,-0.0189 -0.0762,0.12336 -0.71216,0.30038 -1.41315,0.39337 -1.07904,0.14314 -1.47564,0.37423 -2.58563,1.50657 -1.20128,1.22549 -1.27231,1.36627 -0.84807,1.68091 0.66808,0.49549 0.57025,0.68981 -0.26458,0.52558 -0.59767,-0.11757 -0.91438,0.049 -1.77349,0.93266 -2.26829,2.33315 -1.382,0.59385 1.18128,-2.31818 1.03103,-1.17131 1.92177,-1.86814 3.13752,-2.45448 1.63721,-0.78961 1.76236,-0.80921 3.51032,-0.54978 1.59368,0.23654 1.97856,0.41422 3.18688,1.47123 1.85957,1.6267 4.23332,2.87471 5.06891,2.66499 0.35589,-0.0893 0.72534,-0.0337 0.82273,0.1239 0.0972,0.15731 0.40195,0.28602 0.67717,0.28602 0.27523,0 0.61386,0.20274 0.75253,0.45052 0.20944,0.37424 0.3217,0.39279 0.66302,0.10952 0.75714,-0.62837 0.98945,-0.0612 0.42672,1.04186 -0.37412,0.73334 -0.70416,1.04394 -1.10928,1.04394 -0.41437,0 -0.49595,-0.0808 -0.28981,-0.2869 0.15779,-0.15779 0.22484,-0.5242 0.14899,-0.81423 -0.11595,-0.44342 -0.29004,-0.50279 -1.09387,-0.37305 -0.52579,0.0849 -1.40589,0.22658 -1.9558,0.31491 -0.81455,0.13085 -0.94337,0.22862 -0.69521,0.52765 0.16754,0.20187 0.55793,0.36886 0.86753,0.37108 0.83898,0.006 1.41819,0.43715 1.06365,0.79168 -0.41594,0.41594 -3.96076,0.23256 -3.87417,-0.20042 0.0798,-0.39897 -0.0774,-0.41414 -0.72113,-0.0696 -0.31868,0.17055 -0.4396,0.44586 -0.34862,0.79375 0.16676,0.63769 -0.18002,0.69082 -0.75515,0.11569 z m 2.96923,-1.50791 c -0.0327,-0.31636 -0.39563,-0.25509 -0.50933,0.086 -0.0582,0.17463 0.037,0.26988 0.21167,0.21167 0.17462,-0.0582 0.30857,-0.19216 0.29766,-0.29766 z m -17.87922,-0.72099 c -0.0899,-0.14552 -0.0374,-0.26458 0.11667,-0.26458 0.15411,0 0.2802,0.11906 0.2802,0.26458 0,0.14552 -0.0525,0.26459 -0.11667,0.26459 -0.0642,0 -0.19027,-0.11907 -0.2802,-0.26459 z"
       id="path12" />
  </g>
</svg>
