<?xml version="1.0" encoding="UTF-8" standalone="no"?>
<!-- Created with Inkscape (http://www.inkscape.org/) -->

<svg
   width="105.62724mm"
   height="25.849112mm"
   viewBox="0 0 105.62722 25.849108"
   version="1.1"
   id="svg1"
   inkscape:version="1.4.1-rc (06eac75fbf, 2025-03-29)"
   sodipodi:docname="mounts3.svg"
   xmlns:inkscape="http://www.inkscape.org/namespaces/inkscape"
   xmlns:sodipodi="http://sodipodi.sourceforge.net/DTD/sodipodi-0.dtd"
   xmlns="http://www.w3.org/2000/svg"
   xmlns:svg="http://www.w3.org/2000/svg">
  <sodipodi:namedview
     id="namedview1"
     pagecolor="#ffffff"
     bordercolor="#000000"
     borderopacity="0.25"
     inkscape:showpageshadow="2"
     inkscape:pageopacity="0.0"
     inkscape:pagecheckerboard="0"
     inkscape:deskcolor="#d1d1d1"
     inkscape:document-units="mm"
     inkscape:zoom="1.0217435"
     inkscape:cx="199.65872"
     inkscape:cy="48.446601"
     inkscape:window-width="1850"
     inkscape:window-height="1016"
     inkscape:window-x="0"
     inkscape:window-y="0"
     inkscape:window-maximized="1"
     inkscape:current-layer="layer1" />
  <defs
     id="defs1" />
  <g
     inkscape:label="Layer 1"
     inkscape:groupmode="layer"
     id="layer1"
     transform="translate(-53.974994,-135.9959)">
    <path
       style="fill:#000000"
       d="m 144.15155,161.73161 c -0.21829,-0.0466 -0.96243,-0.15918 -1.65365,-0.25011 -0.69121,-0.0909 -1.25676,-0.27708 -1.25676,-0.41369 0,-0.1366 0.17859,-0.24837 0.39687,-0.24837 0.21828,0 0.39688,-0.11906 0.39688,-0.26458 0,-0.14552 -0.20836,-0.26641 -0.46302,-0.26864 -0.3957,-0.003 -0.40532,-0.0413 -0.0662,-0.26053 0.6657,-0.43022 1.09755,-0.30473 1.00881,0.29315 -0.0742,0.49976 0.063,0.56578 1.31961,0.63524 0.96835,0.0535 1.37084,-0.0167 1.30051,-0.227 -0.056,-0.16748 -0.54414,-0.28961 -1.08469,-0.2714 -0.74727,0.0252 -0.96384,-0.063 -0.90363,-0.36776 0.073,-0.36963 0.58533,-0.51798 2.32814,-0.67416 0.3638,-0.0326 0.84005,-0.17247 1.05833,-0.31082 0.21828,-0.13835 0.65339,-0.21842 0.96692,-0.17794 0.31352,0.0405 0.65023,-0.0561 0.74824,-0.21472 0.105,-0.1699 0.52987,-0.22235 1.03442,-0.1277 0.96193,0.18046 1.60335,-0.31862 1.32886,-1.03394 -0.18701,-0.48735 -1.95928,-0.45522 -2.56379,0.0465 -0.19162,0.15904 -0.58104,0.28969 -0.86538,0.29034 -0.28434,6.5e-4 -0.96346,0.0685 -1.50916,0.1509 -0.5457,0.0824 -0.99219,0.0478 -0.99219,-0.0768 0,-0.12458 -0.56554,-0.21669 -1.25677,-0.20466 -0.69122,0.012 -1.28654,-0.0972 -1.32292,-0.24273 -0.0364,-0.14552 0.043,-0.26458 0.17639,-0.26458 0.1334,0 0.33183,-0.0893 0.44098,-0.19844 0.10914,-0.10914 0.59531,-0.19844 1.08038,-0.19844 0.48507,0 0.88193,-0.1318 0.88193,-0.29289 0,-0.16109 0.17478,-0.22582 0.3884,-0.14385 0.4709,0.1807 0.70878,-0.13064 0.43647,-0.57125 -0.15277,-0.24718 -0.39933,-0.25127 -1.06928,-0.0177 -0.70023,0.2441 -0.91483,0.2322 -1.09589,-0.0608 -0.30506,-0.49359 0.075,-0.81711 1.01539,-0.86441 0.4288,-0.0216 0.94523,-0.16827 1.1476,-0.326 0.20237,-0.15774 0.57631,-0.36107 0.83097,-0.45186 0.25466,-0.0908 0.46302,-0.34433 0.46302,-0.56344 0,-0.63445 -1.43541,-1.20573 -3.02957,-1.20573 -0.80759,0 -1.46835,-0.11906 -1.46835,-0.26458 0,-0.14729 0.71111,-0.26458 1.60416,-0.26458 2.10279,0 3.96624,0.90621 6.29726,3.06241 0.96573,0.89331 2.01301,1.70541 2.32729,1.80468 0.31428,0.0993 0.71582,0.35447 0.8923,0.56711 0.17956,0.21636 0.76858,0.38663 1.3375,0.38663 0.72089,0 1.09336,0.14338 1.28041,0.49288 0.20917,0.39084 0.53991,0.48412 1.5976,0.45056 1.17112,-0.0372 1.31547,0.0155 1.18343,0.43149 -0.10801,0.34031 -0.0412,0.43193 0.23703,0.32516 0.58679,-0.22517 0.73384,0.25841 0.27693,0.91073 -0.3415,0.48757 -0.56191,0.55184 -1.37803,0.40183 -1.11216,-0.20441 -1.35183,-0.45835 -1.18545,-1.256 0.10558,-0.50618 0.0868,-0.51707 -0.17787,-0.103 -0.16277,0.25466 -0.46862,0.46302 -0.67967,0.46302 -0.21105,0 -0.38373,0.11906 -0.38373,0.26458 0,0.14552 0.17859,0.26458 0.39687,0.26458 0.21828,0 0.39688,0.11907 0.39688,0.26459 0,0.33782 -1.2403,0.34772 -1.44807,0.0115 -0.086,-0.13916 -0.35068,-0.17846 -0.58817,-0.0873 -0.27975,0.10735 -0.36733,0.0614 -0.24871,-0.13057 0.10071,-0.16295 -0.0505,-0.42131 -0.33608,-0.57413 -0.75606,-0.40463 -0.84721,-0.35186 -0.66262,0.3836 0.13642,0.54356 0.0699,0.66146 -0.37343,0.66146 -0.33892,0 -0.57088,-0.20061 -0.624,-0.53965 -0.0465,-0.2968 -0.20361,-0.53964 -0.34913,-0.53964 -0.14552,0 -0.30263,0.24284 -0.34913,0.53964 -0.0465,0.29681 -0.21914,0.53965 -0.38365,0.53965 -0.18838,0 -0.20605,0.0916 -0.0477,0.24749 0.13824,0.13611 1.52806,0.27593 3.08849,0.3107 1.56042,0.0348 2.98917,0.1597 3.175,0.27763 0.31019,0.19684 -12.1185,0.2697 -13.02359,0.0764 z m 4.89479,-0.64759 c 0.0899,-0.14552 0.0374,-0.26458 -0.11668,-0.26458 -0.15411,0 -0.2802,0.11906 -0.2802,0.26458 0,0.14553 0.0525,0.26459 0.11668,0.26459 0.0642,0 0.19026,-0.11906 0.2802,-0.26459 z m 0.39687,-0.77813 c 0,-0.13693 -0.11905,-0.32255 -0.26457,-0.41249 -0.14553,-0.0899 -0.26458,0.0221 -0.26458,0.24897 0,0.22687 0.11905,0.41249 0.26458,0.41249 0.14552,0 0.26457,-0.11204 0.26457,-0.24897 z m 1.08581,-0.35857 c -0.33959,-0.33959 -0.68397,-0.0771 -0.43255,0.32967 0.0974,0.15757 0.29828,0.21159 0.44641,0.12003 0.18072,-0.11169 0.17616,-0.25968 -0.0139,-0.4497 z m 4.99961,-0.67067 c 0,-0.12093 -0.32741,-0.37295 -0.72761,-0.56004 -0.40018,-0.18708 -0.93044,-0.44289 -1.17834,-0.56845 -0.58881,-0.29822 -0.85172,0.13241 -0.3401,0.55703 0.21668,0.17983 0.39397,0.25991 0.39397,0.17796 0,-0.082 0.32742,0.0218 0.7276,0.23056 0.83217,0.4341 1.12448,0.47646 1.12448,0.16294 z m -7.58298,-3.26368 c 0.20068,-0.32023 0.17778,-0.55949 -0.0837,-0.87452 -0.32715,-0.3942 -0.41381,-0.36612 -0.95166,0.30842 -0.32545,0.40815 -0.5323,0.83827 -0.45967,0.9558 0.21322,0.34499 1.19495,0.0891 1.49499,-0.3897 z m -25.56179,4.911 c -0.28232,-0.28232 -0.23546,-1.69203 0.0562,-1.69203 0.13694,0 0.31047,0.0995 0.38561,0.22111 0.1993,0.32247 -0.21411,1.69867 -0.44185,1.47092 z m 2.45311,-0.0516 c 0,-0.11642 0.13247,-0.34414 0.29438,-0.50605 0.16191,-0.16191 0.31565,-0.69174 0.34163,-1.1774 0.0452,-0.84508 0.088,-0.87944 0.99631,-0.79985 1.07277,0.094 2.9873,-0.59824 2.74387,-0.9921 -0.0879,-0.14222 -0.31552,-0.19883 -0.50582,-0.1258 -0.19031,0.073 -0.49873,-0.0512 -0.68538,-0.27614 -0.4824,-0.58126 -0.98122,-0.50603 -1.15926,0.17485 -0.084,0.32106 -0.23572,0.50069 -0.33725,0.39917 -0.10153,-0.10153 -0.33915,-0.0563 -0.52807,0.10047 -0.18892,0.15679 -0.48841,0.1955 -0.66553,0.086 -0.42615,-0.26338 -1.91312,-0.3145 -2.0875,-0.0718 -0.0756,0.10519 -0.64562,0.1231 -1.26676,0.0398 -1.4273,-0.19144 -1.31765,-0.74058 0.14787,-0.74058 0.59376,0 1.16894,-0.0893 1.27817,-0.19843 0.10924,-0.10915 0.63355,-0.19844 1.16513,-0.19844 1.00966,0 2.12029,-0.9019 2.12029,-1.72181 0,-0.50816 -0.08,-0.49978 -1.33346,0.13969 -0.57629,0.29399 -1.04778,0.4809 -1.04778,0.41534 0,-0.0656 -0.34989,-0.0189 -0.77754,0.10379 -0.49404,0.14169 -1.18561,0.1025 -1.89682,-0.1075 -1.3574,-0.40079 -1.04705,-0.66477 1.02751,-0.87395 1.17102,-0.11808 1.68609,-0.31884 2.27081,-0.88513 0.41594,-0.40282 0.6802,-0.85546 0.58725,-1.00586 -0.17976,-0.29086 -3.07135,-0.73398 -4.03407,-0.6182 -0.99792,0.12002 -2.95209,1.37683 -3.79442,2.44036 -0.79867,1.00841 -0.803,1.02993 -0.26492,1.3179 0.72795,0.38958 0.38712,0.88098 -0.491,0.70791 -0.5309,-0.10462 -0.90113,0.0591 -1.55649,0.68845 -0.65707,0.63096 -0.85991,0.7204 -0.85991,0.37919 0,-0.24559 0.24448,-0.59637 0.54328,-0.7795 0.29879,-0.18314 0.9499,-0.92829 1.44693,-1.65589 1.39931,-2.04853 1.74953,-2.38446 3.16918,-3.03993 3.59103,-1.65801 6.59005,-0.59736 9.54162,3.37454 1.53361,2.06377 2.83264,2.94351 4.16522,2.82082 0.89848,-0.0827 0.9891,-0.0368 0.84206,0.42646 -0.14234,0.44847 -0.0384,0.51915 0.76349,0.51915 0.51053,0 1.00541,0.12484 1.0997,0.27743 0.11663,0.18869 0.29447,0.17535 0.55601,-0.0417 0.29125,-0.24173 0.45883,-0.24484 0.69082,-0.0129 0.58802,0.58803 -0.22644,0.86211 -2.82526,0.95075 -1.42139,0.0485 -2.7072,0.22012 -2.87022,0.38314 -0.41887,0.41887 -0.99567,0.36608 -1.55771,-0.14257 -0.43166,-0.39064 -0.53381,-0.39504 -0.94688,-0.0408 -0.57333,0.49163 -1.68433,0.47328 -2.30021,-0.038 -0.43976,-0.36506 -0.43847,-0.3941 0.0256,-0.57672 0.39522,-0.15552 0.35251,-0.19586 -0.22332,-0.2109 -0.73595,-0.0192 -1.34225,0.53138 -0.78841,0.716 0.17219,0.0574 0.24578,0.21325 0.16352,0.34634 -0.18387,0.29752 -1.17666,0.3231 -1.17666,0.0303 z m 4.23334,-0.84667 c 0,-0.14552 -0.11907,-0.26458 -0.26459,-0.26458 -0.14552,0 -0.26458,0.11906 -0.26458,0.26458 0,0.14552 0.11906,0.26458 0.26458,0.26458 0.14552,0 0.26459,-0.11906 0.26459,-0.26458 z m 11.1125,0 c 0,-0.14552 0.11906,-0.26458 0.26458,-0.26458 0.14552,0 0.26458,0.11906 0.26458,0.26458 0,0.14552 -0.11906,0.26458 -0.26458,0.26458 -0.14552,0 -0.26458,-0.11906 -0.26458,-0.26458 z m -26.02726,-0.18628 c -0.10245,-0.10246 -0.50925,-0.20617 -0.90399,-0.23047 -1.2431,-0.0765 -1.37917,-0.10744 -1.37917,-0.31335 0,-0.11052 0.24492,-0.3539 0.54426,-0.54084 0.42838,-0.26752 0.7523,-0.27387 1.52135,-0.0298 1.80863,0.57399 2.1983,0.77264 2.03474,1.03729 -0.18583,0.30068 -1.53633,0.35804 -1.81719,0.0772 z m 9.22622,-0.0783 c -0.21577,-0.34912 0.10059,-0.84457 0.41515,-0.65016 0.32137,0.19861 0.31928,0.91474 -0.003,0.91474 -0.13693,0 -0.32255,-0.11906 -0.41249,-0.26458 z m -3.3073,-0.26459 c 0,-0.14552 0.11907,-0.26458 0.26459,-0.26458 0.14552,0 0.26458,0.11906 0.26458,0.26458 0,0.14553 -0.11906,0.26459 -0.26458,0.26459 -0.14552,0 -0.26459,-0.11906 -0.26459,-0.26459 z m 1.05834,0 c 0,-0.14552 0.11906,-0.26458 0.26458,-0.26458 0.14552,0 0.26458,0.11906 0.26458,0.26458 0,0.14553 -0.11906,0.26459 -0.26458,0.26459 -0.14552,0 -0.26458,-0.11906 -0.26458,-0.26459 z m 3.2663,-0.1437 c -0.21427,-0.55836 0.14336,-0.85981 0.4482,-0.3778 0.3239,0.51217 0.31741,0.78609 -0.0186,0.78609 -0.15009,0 -0.34339,-0.18373 -0.42956,-0.40829 z m 10.42939,-1.32257 c 0.10975,-0.57414 0.66823,-0.85998 0.61165,-0.31305 -0.0109,0.1055 -0.0198,0.37042 -0.0198,0.5887 0,0.21828 -0.16209,0.39687 -0.36019,0.39687 -0.24311,0 -0.3184,-0.2186 -0.23162,-0.67252 z m -33.53944,-0.17848 c 0,-0.25955 -0.11907,-0.47191 -0.26459,-0.47191 -0.14552,0 -0.26458,0.12609 -0.26458,0.2802 0,0.1541 -0.11684,0.20798 -0.25965,0.11972 -0.14281,-0.0883 -0.935905,-0.20972 -1.762425,-0.26991 -1.57851,-0.11494 -2.13713,-0.40156 -1.81102,-0.92921 0.12932,-0.20925 0.55401,-0.25879 1.25606,-0.14653 0.79967,0.12787 1.18214,0.0597 1.55427,-0.27709 0.463395,-0.41936 0.524375,-0.41885 0.996495,0.008 0.61248,0.55429 0.97418,0.14475 0.55836,-0.63222 -0.31144,-0.58193 -0.67169,-0.68633 -0.92941,-0.26933 -0.1096,0.17734 -0.32831,0.17734 -0.659685,0 -0.27264,-0.14592 -0.83797,-0.2653 -1.25629,-0.2653 -0.836,0 -1.90215,-0.63525 -1.59002,-0.94739 0.1083,-0.1083 0.49081,-0.063 0.85004,0.10068 0.40117,0.18279 0.71286,0.20093 0.80798,0.047 0.0852,-0.13781 0.41684,-0.25031 0.73705,-0.25 0.834145,8e-4 2.613495,-0.23463 3.055665,-0.4043 0.31099,-0.11934 0.29419,-0.23572 -0.0964,-0.66727 -0.30078,-0.33237 -0.57886,-0.43572 -0.76362,-0.28383 -0.15981,0.13139 -0.85611,0.32308 -1.547335,0.42598 -0.69123,0.10291 -1.25678,0.2957 -1.25678,0.42843 0,0.13274 -0.35718,0.0566 -0.79375,-0.16912 -0.43656,-0.22576 -0.79375,-0.586 -0.79375,-0.80055 0,-0.50494 0.38873,-0.4943 1.19297,0.0327 0.59104,0.38727 0.68066,0.38727 1.06793,0 0.2325,-0.23251 0.6339,-0.42274 0.892005,-0.42274 0.55186,0 1.34502,-0.80021 1.34502,-1.35698 0,-0.65726 -0.58778,-1.02427 -1.640425,-1.02427 -0.55297,0 -1.00541,-0.11906 -1.00541,-0.26458 0,-0.38416 1.727585,-0.32424 2.720475,0.0944 0.46827,0.19742 1.49179,0.88203 2.27449,1.52136 2.38956,1.95185 3.03143,2.35304 3.76472,2.35304 0.38766,0 1.04586,0.17706 1.46268,0.39346 0.41681,0.2164 0.97796,0.32371 1.24699,0.23846 0.41121,-0.1303 0.45919,-0.056 0.30115,0.46644 -0.25156,0.83157 -1.38723,1.80423 -2.15436,1.84513 -0.34117,0.0182 -1.1164,0.048 -1.72274,0.0661 -0.62063,0.0186 -1.15061,0.17762 -1.21267,0.36381 -0.11731,0.35192 0.55397,0.41488 4.10104,0.38462 2.17681,-0.0186 2.66317,0.45426 0.52917,0.51445 -1.77095,0.0499 -2.09423,0.0873 -2.57969,0.29798 -0.21828,0.0947 -1.73633,0.21047 -3.37344,0.25717 -2.71155,0.0774 -2.97656,0.0429 -2.97656,-0.387 z m 2.11666,-1.53025 c 0,-0.14552 -0.11906,-0.26458 -0.26458,-0.26458 -0.14552,0 -0.26458,0.11906 -0.26458,0.26458 0,0.14553 0.11906,0.26459 0.26458,0.26459 0.14552,0 0.26458,-0.11906 0.26458,-0.26459 z m 0.32147,-0.85633 c 0.2798,0.23222 0.43478,0.18339 0.68386,-0.21545 0.17714,-0.28364 0.55919,-0.51572 0.849,-0.51572 0.28981,0 0.52692,-0.17156 0.52692,-0.38126 0,-0.59065 -0.51509,-0.76919 -1.00886,-0.34969 -0.24549,0.20857 -0.82529,0.52902 -1.28845,0.71211 -0.57205,0.22614 -0.79358,0.45934 -0.69078,0.72722 0.11781,0.307 0.19729,0.31994 0.35892,0.0584 0.15629,-0.2529 0.29699,-0.26171 0.56939,-0.0356 z m -0.0569,-2.69993 c 0,-0.42138 -0.48005,-0.81438 -0.71175,-0.58268 -0.21765,0.21765 0.12211,0.96394 0.43886,0.96394 0.15009,0 0.27289,-0.17156 0.27289,-0.38126 z m 28.60515,4.64619 c -0.43534,-0.33448 -0.5344,-0.54493 -0.31914,-0.67797 0.17169,-0.10611 0.45578,-0.0737 0.6313,0.0719 0.17553,0.14568 0.43821,0.27499 0.58373,0.28737 0.14552,0.0124 0.26458,0.1614 0.26458,0.33117 0,0.50837 -0.4894,0.5031 -1.16047,-0.0125 z m -41.644515,0.07 c -0.0896,-0.0896 -0.55595,-0.24334 -1.03628,-0.34158 -1.15396,-0.23601 -1.2101,-1.08711 -0.0914,-1.38629 0.61445,-0.16432 0.88578,-0.0976 1.26708,0.3117 0.35513,0.38119 0.83286,0.5208 1.78219,0.5208 0.71335,0 1.37058,0.11906 1.46052,0.26458 0.15971,0.25843 -0.72129,0.39712 -1.89835,0.29884 -0.31649,-0.0264 -0.65094,0.0741 -0.74322,0.22343 -0.18915,0.30605 -0.49774,0.35127 -0.74049,0.10852 z m 3.77894,-0.10162 c 0,-0.14552 0.11906,-0.26459 0.26459,-0.26459 0.14552,0 0.26458,0.11907 0.26458,0.26459 0,0.14552 -0.11906,0.26458 -0.26458,0.26458 -0.14553,0 -0.26459,-0.11906 -0.26459,-0.26458 z m 41.539585,-0.15791 c 0,-0.67164 4.93975,-5.13376 5.68329,-5.13376 0.44087,0 10e-4,0.50838 -0.85677,0.99056 -1.41213,0.79367 -2.20292,1.71574 -2.11923,2.47107 0.0592,0.53428 -0.0597,0.65377 -0.72291,0.72675 -0.43657,0.048 -1.06164,0.33667 -1.38907,0.64143 -0.32742,0.30475 -0.59531,0.44153 -0.59531,0.30395 z m 18.52084,-0.37126 c 0,-0.14552 0.26789,-0.26276 0.59531,-0.26053 0.48139,0.003 0.51936,0.0531 0.19844,0.26053 -0.51297,0.3315 -0.79375,0.3315 -0.79375,0 z m 2.38125,0 c 0,-0.14552 0.18562,-0.26458 0.41249,-0.26458 0.22686,0 0.3389,0.11906 0.24896,0.26458 -0.0899,0.14552 -0.27555,0.26458 -0.41249,0.26458 -0.13693,0 -0.24896,-0.11906 -0.24896,-0.26458 z m -46.83125,-0.4872 c 0,-0.32254 2.57821,-0.36543 2.77552,-0.0462 0.10488,0.1697 -0.37615,0.2688 -1.3047,0.2688 -0.80895,0 -1.47082,-0.10018 -1.47082,-0.22262 z m 32.01458,-1.11591 c 0,-0.15411 0.11906,-0.20662 0.26458,-0.11668 0.14552,0.0899 0.26459,0.21603 0.26459,0.2802 0,0.0642 -0.11907,0.11667 -0.26459,0.11667 -0.14552,0 -0.26458,-0.12608 -0.26458,-0.28019 z m -50.535425,-1.00039 c 0,-0.12224 0.73848,-0.96073 1.64106,-1.86331 1.66742,-1.66741 4.32594,-3.42009 4.6585,-3.07118 0.10051,0.10545 -0.0388,0.32658 -0.30951,0.49142 -2.90237,1.76707 -3.29868,2.26643 -2.35202,2.96361 0.43806,0.32262 0.43617,0.3514 -0.035,0.53395 -0.27966,0.10833 -0.72842,0.0491 -1.02335,-0.1351 -0.45648,-0.28508 -0.63548,-0.22124 -1.36662,0.48741 -0.849,0.82289 -1.21301,1.0009 -1.21301,0.5932 z m 20.637515,-0.0423 c 0,-0.14552 0.24515,-0.26459 0.54478,-0.26459 0.29963,0 0.47119,0.11907 0.38126,0.26459 -0.0899,0.14552 -0.33509,0.26458 -0.54478,0.26458 -0.2097,0 -0.38126,-0.11906 -0.38126,-0.26458 z M 81.365685,151.0389 c -1.27555,-0.24694 -1.6487,-0.59819 -1.29911,-1.22286 0.19835,-0.35443 0.60925,-0.47573 1.65946,-0.48987 1.60152,-0.0216 1.9574,-0.44619 0.84081,-1.00322 -0.61178,-0.3052 -0.93201,-0.31753 -1.66701,-0.0642 -0.89961,0.3101 -1.83133,0.18605 -1.92153,-0.25585 -0.0581,-0.28461 3.75893,-1.20168 4.23741,-1.01807 0.39984,0.15343 1.66915,-0.59804 1.66915,-0.98819 0,-0.33229 -1.40238,-0.33777 -1.73338,-0.007 -0.38668,0.38668 -4.02956,0.44118 -4.40485,0.0659 -0.24709,-0.24709 -0.10371,-0.31761 0.64574,-0.31761 0.52984,0 1.03693,-0.11906 1.12686,-0.26458 0.0899,-0.14552 0.49523,-0.26459 0.90065,-0.26459 0.4123,0 0.95823,-0.24431 1.23886,-0.5544 0.49446,-0.54637 0.49271,-0.56171 -0.1206,-1.05833 -1.32713,-1.07465 -4.7113,-0.43815 -6.781265,1.27543 l -1.03079,0.85331 0.61176,0.65119 0.61176,0.65119 -0.62561,-0.15366 c -0.34408,-0.0845 -0.76206,-0.25984 -0.92885,-0.38962 -0.37912,-0.29499 -2.73946,1.24414 -2.73946,1.78635 0,0.20797 -0.1318,0.37813 -0.29289,0.37813 -0.16109,0 -0.22882,0.16695 -0.15052,0.37101 0.1857,0.48393 -0.0896,0.7489 -0.45935,0.44206 -0.15949,-0.13237 -0.70623,-0.28016 -1.21497,-0.32843 -1.07674,-0.10217 -1.13885,-0.57633 -0.0924,-0.7052 0.78961,-0.0972 3.12289,-1.60192 4.63639,-2.98992 1.57258,-1.44219 2.390385,-1.97022 3.772405,-2.43573 2.87328,-0.96784 5.21272,-0.35752 7.61324,1.98614 1.55469,1.51786 3.67816,2.77943 4.16838,2.47646 0.16452,-0.10168 0.4725,-0.041 0.6844,0.13489 0.27135,0.2252 0.38529,0.23194 0.38529,0.0228 0,-0.16334 0.38695,-0.28758 0.85989,-0.27609 0.47295,0.0115 0.71107,0.0809 0.52917,0.15434 -0.32318,0.13041 -0.47749,0.8831 -0.18104,0.8831 0.0823,0 0.38928,-0.12823 0.68213,-0.28495 0.74969,-0.40123 1.45704,-0.10903 1.01767,0.42038 -0.22693,0.27343 -0.23604,0.39374 -0.0298,0.39374 0.16334,0 0.29698,0.11906 0.29698,0.26458 0,0.14553 -0.37383,0.26459 -0.83073,0.26459 -0.47768,0 -0.98368,0.19678 -1.19063,0.46302 -0.34276,0.44097 -0.37703,0.44097 -0.71979,0 -0.19794,-0.25466 -0.54811,-0.46302 -0.77814,-0.46302 -0.23003,0 -0.48326,-0.10521 -0.56273,-0.2338 -0.12569,-0.20336 -0.46096,-0.21247 -2.20184,-0.0598 -0.1819,0.016 -0.33073,0.15257 -0.33073,0.3036 0,0.15103 0.32742,0.24033 0.72761,0.19844 0.61547,-0.0644 0.71789,0.0156 0.66457,0.51915 -0.0577,0.54537 0.0464,0.59531 1.24116,0.59531 0.7173,0 1.37777,0.11907 1.4677,0.26459 0.19115,0.30927 -8.41052,0.31704 -10.00147,0.009 z m 5.5891,-0.71391 c -0.071,-0.36547 -0.44225,-0.44193 -2.18452,-0.44995 -1.49855,-0.007 -2.13191,0.0892 -2.21412,0.33577 -0.0814,0.24408 0.0477,0.29373 0.43999,0.16923 0.30532,-0.0969 0.7659,-0.0535 1.02349,0.0965 0.2576,0.14997 1.04264,0.27629 1.74453,0.28072 1.05062,0.007 1.26106,-0.0698 1.19063,-0.43225 z m -0.13282,-1.92014 c 0.17424,-0.17424 0.15787,-0.38962 -0.0485,-0.63831 -0.2658,-0.32027 -0.46465,-0.32259 -1.35501,-0.0158 -0.57392,0.19773 -1.22642,0.28932 -1.44999,0.20353 -0.63475,-0.24358 -0.47676,0.26805 0.18882,0.61149 0.66275,0.34198 2.25817,0.24566 2.66471,-0.16088 z m -12.255855,1.83127 c 0,-0.3315 0.28078,-0.3315 0.79375,0 0.32093,0.2074 0.28295,0.25725 -0.19844,0.26053 -0.32742,0.002 -0.59531,-0.11501 -0.59531,-0.26053 z m -2.05052,-0.32396 c -0.32742,-0.15734 -0.59532,-0.38694 -0.59532,-0.51022 0,-0.31681 0.99286,-0.27958 1.1933,0.0447 0.0914,0.1479 0.29247,0.19086 0.44681,0.0955 0.15823,-0.0978 0.22959,-0.0203 0.16362,0.17758 -0.15919,0.47757 -0.50159,0.5321 -1.20841,0.19243 z m -5.96651,-5.13543 c -0.0861,-0.0861 -0.94201,-0.15193 -1.90212,-0.14639 -1.58074,0.009 -1.73097,-0.0362 -1.5902,-0.47973 0.0996,-0.31384 -0.0151,-0.58551 -0.31916,-0.75623 -0.55192,-0.30982 -0.47589,-0.34722 1.69509,-0.83384 1.50632,-0.33763 2.23161,-0.88383 1.53075,-1.15278 -0.22775,-0.0874 -0.61894,-0.031 -0.86933,0.12541 -0.28713,0.17931 -0.77225,0.20216 -1.31369,0.0619 -0.98951,-0.25641 -1.24423,-0.6889 -0.44061,-0.74811 1.04385,-0.0769 3.01564,-0.73271 3.32547,-1.10603 0.44646,-0.53795 -0.0763,-1.01131 -0.73308,-0.66376 -1.1203,0.59286 -2.76939,0.88327 -3.16259,0.55695 -0.45536,-0.37792 -0.0422,-1.03903 0.65025,-1.04062 0.54687,-0.001 2.15041,-0.9688 2.15041,-1.29751 0,-0.44736 -1.86655,-0.88347 -3.0037,-0.7018 -0.815687,0.13031 -1.020673,0.0986 -0.798645,-0.1237 0.164281,-0.16445 0.769985,-0.36222 1.346005,-0.43948 1.2773,-0.17132 2.19492,0.26285 3.75468,1.77655 1.44399,1.40134 3.2479,2.24421 3.97279,1.85626 0.75024,-0.40152 1.42783,-0.3479 1.25618,0.0994 -0.15898,0.41429 0.42381,0.74067 0.95712,0.53602 0.67584,-0.25935 2.4508,-0.30148 3.067685,-0.0728 0.60937,0.22587 0.61458,0.2509 0.15743,0.75604 -0.559425,0.61816 -0.966175,0.68616 -0.751055,0.12557 0.0842,-0.21953 0.008,-0.39688 -0.17145,-0.39688 -0.19937,0 -0.26752,0.21502 -0.1774,0.55966 0.26486,1.01281 -0.34182,1.557 -1.73578,1.557 -0.91004,0 -1.25927,0.10395 -1.25927,0.37483 0,0.20616 0.14883,0.42885 0.33073,0.49489 0.1819,0.066 -0.43015,0.0794 -1.36011,0.0297 -0.92996,-0.0497 -1.88246,0.0217 -2.11667,0.15853 -0.35167,0.20553 -0.31064,0.25729 0.23563,0.29722 1.19817,0.0876 1.28382,0.10503 1.48063,0.30184 0.10729,0.10729 -0.1522,0.20545 -0.57664,0.21813 -0.42443,0.0127 -1.37947,0.0697 -2.1223,0.12666 -0.74283,0.057 -1.421,0.0332 -1.50705,-0.0529 z m -1.88927,-1.0145 c 0.49281,-0.37274 0.48478,-0.3888 -0.1984,-0.39687 -0.71844,-0.008 -1.1364,0.30395 -0.82422,0.61614 0.25284,0.25284 0.45604,0.20927 1.02262,-0.21927 z m 2.61281,0.1521 c 0.17456,-0.28243 -1.08646,-0.64221 -1.45425,-0.41491 -0.1412,0.0873 -0.18823,0.2695 -0.10451,0.40497 0.19427,0.31434 1.36601,0.32181 1.55876,0.01 z m 5.39315,-1.61572 c 0.2931,0 0.5754,-0.2283 0.65401,-0.52891 0.20663,-0.79014 -0.34858,-0.95655 -0.87279,-0.2616 -0.27899,0.36987 -0.61934,0.547 -0.86784,0.45164 -0.22486,-0.0863 -0.47002,0.003 -0.54479,0.19742 -0.19693,0.51317 0.0891,0.69085 0.63872,0.39672 0.26234,-0.1404 0.70905,-0.25527 0.99269,-0.25527 z m -2.20071,0 c 0.0899,-0.14552 0.0374,-0.26459 -0.11667,-0.26459 -0.15411,0 -0.2802,0.11907 -0.2802,0.26459 0,0.14552 0.0525,0.26458 0.11668,0.26458 0.0642,0 0.19026,-0.11906 0.28019,-0.26458 z m -2.13519,-1.02836 c 0.0798,-0.12903 -0.0414,-0.38927 -0.26914,-0.5783 -0.34189,-0.28374 -0.45605,-0.27743 -0.65449,0.0362 -0.1322,0.20893 -0.24219,0.46916 -0.24442,0.5783 -0.006,0.27916 0.99226,0.24826 1.16805,-0.0362 z m -11.424703,2.42913 c -0.327422,-0.0631 -0.595312,-0.23933 -0.595312,-0.3917 0,-0.15818 0.255405,-0.20859 0.595312,-0.1175 0.327422,0.0877 0.684609,0.16116 0.79375,0.16315 0.109141,0.002 0.198438,0.12267 0.198438,0.26819 0,0.14553 -0.0893,0.24837 -0.198438,0.22856 -0.109141,-0.0198 -0.466328,-0.0876 -0.79375,-0.1507 z m 1.653646,-0.0779 c 0.08994,-0.14552 0.275557,-0.26458 0.41249,-0.26458 0.136932,0 0.248968,0.11906 0.248968,0.26458 0,0.14553 -0.18562,0.26459 -0.41249,0.26459 -0.226869,0 -0.338905,-0.11906 -0.248968,-0.26459 z m -4.192326,-1.01302 c -0.607158,-0.6709 -0.570401,-0.75983 0.554305,-1.34102 0.545703,-0.28199 1.522993,-1.05831 2.171755,-1.72516 1.330528,-1.36763 1.68206,-1.50499 1.446158,-0.56509 -0.141056,0.56202 -0.04815,0.67701 0.704567,0.87205 0.476876,0.12358 0.920852,0.38609 0.986613,0.58337 0.089,0.267 -0.04168,0.31001 -0.51117,0.16823 -1.69326,-0.51133 -2.459307,-0.4113 -3.336291,0.43566 -0.644804,0.62273 -0.815686,0.97481 -0.698921,1.44004 0.12229,0.48724 0.04667,0.61578 -0.362292,0.61578 -0.284263,0 -0.713889,-0.21774 -0.954724,-0.48386 z m 4.589201,-4.64938 c 0,-0.18875 1.872191,-1.21707 2.197936,-1.20725 0.496287,0.015 -1.2169,1.31062 -1.734915,1.31209 -0.254662,7.2e-4 -0.463021,-0.0465 -0.463021,-0.10484 z"
       id="path9" />
  </g>
</svg>
