<?xml version="1.0" encoding="UTF-8" standalone="no"?>
<!-- Created with Inkscape (http://www.inkscape.org/) -->

<svg
   width="43.656246mm"
   height="15.588933mm"
   viewBox="0 0 43.656241 15.588931"
   version="1.1"
   id="svg1"
   inkscape:version="1.4.1-rc (06eac75fbf, 2025-03-29)"
   sodipodi:docname="mounts2.svg"
   xmlns:inkscape="http://www.inkscape.org/namespaces/inkscape"
   xmlns:sodipodi="http://sodipodi.sourceforge.net/DTD/sodipodi-0.dtd"
   xmlns="http://www.w3.org/2000/svg"
   xmlns:svg="http://www.w3.org/2000/svg">
  <sodipodi:namedview
     id="namedview1"
     pagecolor="#ffffff"
     bordercolor="#000000"
     borderopacity="0.25"
     inkscape:showpageshadow="2"
     inkscape:pageopacity="0.0"
     inkscape:pagecheckerboard="0"
     inkscape:deskcolor="#d1d1d1"
     inkscape:document-units="mm"
     inkscape:zoom="1.0217435"
     inkscape:cx="82.212414"
     inkscape:cy="29.850936"
     inkscape:window-width="1850"
     inkscape:window-height="1016"
     inkscape:window-x="0"
     inkscape:window-y="0"
     inkscape:window-maximized="1"
     inkscape:current-layer="layer1" />
  <defs
     id="defs1" />
  <g
     inkscape:label="Layer 1"
     inkscape:groupmode="layer"
     id="layer1"
     transform="translate(-84.931244,-141.02294)">
    <path
       style="fill:#000000"
       d="m 123.4407,156.37367 c -0.083,-0.13433 -0.50677,-0.32238 -0.94166,-0.4179 -0.43489,-0.0955 -0.79072,-0.28328 -0.79072,-0.41723 0,-0.3963 1.22995,-0.27752 1.5875,0.15331 0.18116,0.21828 0.55293,0.39688 0.82615,0.39688 0.27322,0 0.49677,0.11906 0.49677,0.26458 0,0.33267 -0.97461,0.34951 -1.17804,0.0204 z m -27.396956,-1.31242 c 0,-0.12855 0.26584,-0.30324 0.59075,-0.38821 0.45682,-0.11946 0.51934,-0.22589 0.2758,-0.46943 -0.24355,-0.24355 -0.40893,-0.23697 -0.72944,0.029 -0.47848,0.39711 -0.79908,0.20254 -0.58509,-0.35509 0.0806,-0.21006 0.66086,-0.4582 1.28945,-0.55143 1.99089,-0.29528 5.243946,-1.29296 5.243946,-1.60827 0,-0.54315 -0.26744,-0.59309 -1.26639,-0.23646 -0.54041,0.19293 -1.131396,0.356 -1.313296,0.36239 -0.57151,0.0201 -0.35957,-0.51969 0.30298,-0.77159 0.348536,-0.13251 0.675956,-0.35295 0.727596,-0.48985 0.14618,-0.38752 1.81369,-0.0409 1.81369,0.37704 0,0.20177 0.11906,0.36685 0.26458,0.36685 0.37238,0 0.32923,-0.31914 -0.13223,-0.97797 -0.21826,-0.3116 -0.32458,-0.75481 -0.23628,-0.98491 0.0883,-0.23011 0.0415,-0.41837 -0.10404,-0.41837 -0.14552,0 -0.32954,0.16929 -0.40894,0.3762 -0.0963,0.25108 -0.46329,0.35089 -1.10328,0.30011 -0.58454,-0.0464 -1.112316,0.0773 -1.351846,0.31686 -0.21612,0.21612 -0.71465,0.41912 -1.10785,0.45112 -0.3932,0.032 -0.90293,0.14178 -1.13275,0.24396 -0.22982,0.10218 -1.11019,0.2106 -1.95639,0.24095 -1.11951,0.0401 -1.57382,-0.0458 -1.66809,-0.31568 -0.0957,-0.27388 0.029,-0.32938 0.47699,-0.21224 0.39299,0.10277 0.83721,-0.0228 1.26172,-0.35675 0.36036,-0.28345 0.9384,-0.51537 1.28456,-0.51537 0.57119,0 1.05184,-0.18174 2.20968,-0.8355 0.21828,-0.12325 0.66477,-0.33993 0.99219,-0.4815 0.839096,-0.36281 0.739516,-0.70435 -0.26458,-0.90746 -0.6784,-0.13722 -0.95262,-0.0604 -1.29918,0.36381 -0.29066,0.35579 -0.75482,0.53774 -1.37184,0.53774 -0.51291,0 -1.24795,0.11991 -1.63344,0.26647 -0.38549,0.14656 -0.81574,0.1955 -0.95611,0.10874 -0.32244,-0.19928 0.25323,-0.93526 0.66565,-0.85103 0.16249,0.0332 0.77597,-0.15551 1.36329,-0.41932 0.7974,-0.35817 1.1384,-0.70503 1.34639,-1.36952 0.31891,-1.01891 0.0682,-1.43951 -0.85802,-1.43951 -0.77697,0 -1.42393,-0.26065 -1.42393,-0.57369 0,-0.4064 2.40151,0.0639 3.51233,0.68782 0.5525,0.31032 1.746376,1.28941 2.653076,2.17574 1.8561,1.81442 3.22133,2.73476 4.05889,2.73622 0.31185,5.5e-4 0.6375,0.18472 0.72368,0.40928 0.12127,0.31604 0.27317,0.34593 0.67237,0.13229 0.65753,-0.3519 2.40257,-0.36019 2.40257,-0.0114 0,0.14552 -0.11907,0.26458 -0.26459,0.26458 -0.14552,0 -0.26458,0.11906 -0.26458,0.26459 0,0.14552 0.23812,0.26458 0.52917,0.26458 0.29104,0 0.52916,0.11906 0.52916,0.26458 0,0.14552 -0.44053,0.26459 -0.97896,0.26459 -1.76999,0 -0.55561,0.52328 1.33529,0.57538 0.98346,0.0271 1.83866,0.13104 1.90043,0.23098 0.14291,0.23124 -1.91208,0.51655 -3.72059,0.51655 -0.99145,0 -1.43363,0.11379 -1.54226,0.39688 -0.0838,0.21828 -0.2751,0.39687 -0.42519,0.39687 -0.15008,0 -0.27288,-0.17859 -0.27288,-0.39687 0,-0.50952 -0.37203,-0.50815 -0.79619,0.003 -0.29457,0.35494 -0.36791,0.35044 -0.65347,-0.0401 -0.22644,-0.30968 -0.37739,-0.34971 -0.50995,-0.13523 -0.10356,0.16757 -0.112,0.42812 -0.0187,0.579 0.20483,0.3314 -1.70952,0.27677 -2.15793,-0.0616 -0.18696,-0.14108 -0.36159,-0.0653 -0.46388,0.20126 -0.23829,0.62098 0.0754,0.99598 0.52268,0.62478 0.29161,-0.24201 0.37332,-0.22745 0.37332,0.0665 0,0.83049 -0.62459,1.01136 -3.492496,1.01136 -1.57163,0 -2.8575,-0.10518 -2.8575,-0.23373 z m 2.78634,-1.0759 c -0.0974,-0.15758 -0.30062,-0.21015 -0.45162,-0.11683 -0.17777,0.10987 -0.1507,0.24622 0.0768,0.38681 0.42459,0.26241 0.61786,0.12321 0.37485,-0.26998 z m 4.679316,-3.76596 c -0.40332,-0.40333 -0.649,-0.15765 -0.4253,0.42529 0.12306,0.32069 0.25592,0.37027 0.45602,0.17016 0.2001,-0.2001 0.19115,-0.37358 -0.0307,-0.59545 z m 16.08226,4.41413 c 0,-0.27251 0.1734,-0.40228 0.46302,-0.34651 0.5577,0.1074 0.52253,0.57697 -0.0522,0.69664 -0.23971,0.0499 -0.41085,-0.0959 -0.41085,-0.35013 z m -16.27188,-0.13229 c 0.0899,-0.14553 0.28259,-0.26459 0.42811,-0.26459 0.14552,0 0.19099,0.11906 0.10106,0.26459 -0.0899,0.14552 -0.28259,0.26458 -0.42811,0.26458 -0.14552,0 -0.191,-0.11906 -0.10106,-0.26458 z m 1.52639,0.0812 c 0.25743,-0.0671 0.61462,-0.0627 0.79375,0.01 0.17913,0.0725 -0.0315,0.12736 -0.46806,0.12197 -0.43656,-0.005 -0.58312,-0.0647 -0.32569,-0.13177 z m 2.69137,-0.20511 c -0.28248,-0.21365 -0.3745,-0.39225 -0.2045,-0.39688 0.50265,-0.0137 1.14612,0.29458 1.14612,0.54906 0,0.34676 -0.35859,0.2888 -0.94162,-0.15218 z m 9.67287,-0.14071 c 0,-0.14552 0.11906,-0.26458 0.26458,-0.26458 0.14552,0 0.26458,0.11906 0.26458,0.26458 0,0.14552 -0.11906,0.26459 -0.26458,0.26459 -0.14552,0 -0.26458,-0.11907 -0.26458,-0.26459 z m -2.11667,-1.0583 c 0,-0.14552 0.11204,-0.26458 0.24897,-0.26458 0.13693,0 0.32255,0.11906 0.41249,0.26458 0.0899,0.14552 -0.0221,0.26458 -0.24897,0.26458 -0.22687,0 -0.41249,-0.11906 -0.41249,-0.26458 z M 87.723244,152.4978 c -0.2834,-0.20917 -0.72042,-0.3152 -0.97114,-0.23562 -0.43676,0.13862 -1.82086,-1.03766 -1.82086,-1.54746 0,-0.44295 0.77337,-0.97599 1.41601,-0.97599 0.72915,0 1.63031,-0.65924 4.00795,-2.93197 1.73449,-1.65796 3.44125,-2.88887 4.00567,-2.88887 0.5802,0 0.41317,0.47748 -0.23536,0.67282 -0.73922,0.22265 -2.3151,1.69106 -2.3151,2.15721 0,0.18973 -0.14883,0.34556 -0.33073,0.34629 -0.1819,7.2e-4 -0.68792,0.29007 -1.12448,0.643 -0.70807,0.57243 -0.75708,0.70197 -0.45406,1.20008 0.4881,0.80233 0.15024,1.13919 -0.62989,0.62803 -0.63344,-0.41504 -0.69037,-0.40252 -1.44142,0.31702 -0.87127,0.83474 -0.98135,1.1793 -0.37674,1.1793 0.22284,0 0.48205,0.20836 0.57601,0.46302 0.094,0.25466 0.29759,0.54736 0.4525,0.65044 0.18606,0.12381 0.19261,0.27493 0.0193,0.44521 -0.17073,0.16776 -0.44233,0.12497 -0.77766,-0.12251 z m 26.378306,-0.50901 c -0.47398,-0.53835 -0.40796,-0.92715 0.15743,-0.92715 0.55171,0 1.45898,0.87508 1.18811,1.14595 -0.29408,0.29409 -0.99421,0.18023 -1.34554,-0.2188 z m -16.205726,-0.1334 c 0,-0.14552 0.17157,-0.26458 0.38126,-0.26458 0.2097,0 0.45485,0.11906 0.54478,0.26458 0.0899,0.14552 -0.0816,0.26459 -0.38126,0.26459 -0.29963,0 -0.54478,-0.11907 -0.54478,-0.26459 z m 15.090896,-1.49049 c 0.0138,-0.32899 1.85856,-1.68451 2.29246,-1.68451 0.20064,0 0.83157,-0.23812 1.40206,-0.52916 0.57049,-0.29105 1.22992,-0.52917 1.46541,-0.52917 0.23549,0 0.91208,-0.50366 1.50353,-1.11925 1.06342,-1.1068 1.06834,-1.12104 0.44228,-1.2809 -0.66728,-0.17038 -1.29455,0.14369 -1.29455,0.64817 0,0.44141 -1.51239,1.03428 -2.26931,0.88958 -0.40031,-0.0765 -0.73637,0.0213 -0.86539,0.25181 -0.24577,0.43918 -3.00421,0.39059 -2.88805,-0.0509 0.0383,-0.14552 0.19695,-0.26657 0.35258,-0.269 0.15562,-0.002 0.5897,-0.2054 0.96462,-0.45106 0.37493,-0.24566 1.0215,-0.52565 1.43684,-0.6222 0.92723,-0.21554 3.00412,-1.37646 3.00412,-1.6792 0,-0.12157 -0.17859,-0.36926 -0.39687,-0.55041 -0.4665,-0.38717 -1.19063,0.0536 -1.19063,0.72471 0,0.25977 -0.17443,0.34972 -0.5087,0.26231 -0.27978,-0.0732 -0.86202,0.0818 -1.29387,0.34446 -0.93306,0.56743 -1.94997,0.758 -2.07212,0.38831 -0.0481,-0.14552 0.39774,-0.49716 0.99072,-0.78142 1.20435,-0.57734 2.09022,-1.55083 2.09022,-2.29697 0,-0.39413 -0.19977,-0.49319 -0.99218,-0.49201 -1.7204,0.003 -2.93031,0.51098 -4.59212,1.92969 -1.84363,1.57392 -3.11015,2.42716 -3.30844,2.22886 -0.25351,-0.2535 4.25288,-3.80392 5.39237,-4.24844 2.23337,-0.87125 4.861,-0.38854 7.12074,1.30812 0.46323,0.34781 0.9665,0.63238 1.11838,0.63238 0.15188,0 0.4601,0.28075 0.68493,0.6239 0.22484,0.34314 0.88368,0.83804 1.46408,1.09976 0.92928,0.41905 1.18178,0.43412 2.11464,0.12625 0.58264,-0.19228 1.19128,-0.50859 1.35254,-0.70289 0.33458,-0.40315 1.02215,-0.47586 1.02215,-0.10809 0,0.13485 0.20836,0.29963 0.46302,0.36618 0.34843,0.0911 0.31569,0.1286 -0.13229,0.15169 -0.65068,0.0336 -0.8543,0.94043 -0.26459,1.17838 0.25516,0.10296 0.25188,0.13823 -0.0143,0.15434 -0.18979,0.0115 -0.72557,0.37815 -1.19062,0.81479 -0.7812,0.73348 -0.85198,0.75362 -0.9301,0.26458 -0.0982,-0.61508 -0.52394,-0.68805 -0.94461,-0.16191 -0.16157,0.20207 -0.7562,0.44858 -1.3214,0.54781 -0.86423,0.15172 -1.00254,0.11497 -0.86975,-0.23108 0.096,-0.25005 -0.039,-0.51686 -0.34402,-0.68009 -0.67321,-0.36029 -0.80129,-0.33979 -0.80129,0.12825 0,0.21828 -0.11907,0.39688 -0.26459,0.39688 -0.14552,0 -0.26458,0.17859 -0.26458,0.39687 0,0.21828 0.11906,0.39688 0.26458,0.39688 0.14552,0 0.26459,-0.1786 0.26459,-0.39688 0,-0.5983 0.34847,-0.48214 1.19062,0.39688 0.75312,0.78608 0.75456,0.79375 0.1494,0.79375 -0.51317,0 -0.5583,0.0636 -0.28169,0.39687 0.28733,0.34621 0.0972,0.39708 -1.48896,0.39851 -1.11985,0.001 -2.11855,0.15818 -2.59988,0.40917 -0.59082,0.30808 -1.13968,0.3596 -2.24896,0.21112 -0.80708,-0.10803 -1.58647,-0.15858 -1.73199,-0.11234 -0.92365,0.29355 -1.18953,0.3198 -1.18098,0.11659 z m -4.77215,-1.56783 c 0,-0.22687 0.12101,-0.33771 0.2689,-0.2463 0.1479,0.0914 0.2004,0.27702 0.11668,0.41249 -0.22681,0.36699 -0.38558,0.29856 -0.38558,-0.16619 z m 15.34584,-0.15048 c 0,-0.32118 1.47623,-0.60193 2.76489,-0.52583 0.31255,0.0184 0.41685,0.12253 0.26459,0.26402 -0.33452,0.31081 -3.02948,0.54372 -3.02948,0.26181 z m -17.44987,-0.21737 c -0.21133,-0.1337 -0.4662,-0.19243 -0.56637,-0.13052 -0.10017,0.0619 -0.39036,-0.20524 -0.64487,-0.59366 -0.44945,-0.68595 -0.44564,-0.72008 0.13266,-1.18836 0.7103,-0.57516 1.2848,-0.60004 1.9651,-0.0851 0.42167,0.31917 0.44683,0.44701 0.15674,0.79655 -0.26173,0.31536 -0.27126,0.49065 -0.0393,0.72264 0.16845,0.16846 0.30628,0.40154 0.30628,0.51796 0,0.28626 -0.83511,0.26108 -1.31028,-0.0395 z m 21.6832,-0.55088 c 0,-0.14096 0.17859,-0.25628 0.39687,-0.25628 0.21829,0 0.39688,0.0468 0.39688,0.10398 0,0.0572 -0.17859,0.17252 -0.39688,0.25628 -0.21828,0.0838 -0.39687,0.037 -0.39687,-0.10398 z m -15.61042,-3.18231 c 0,-0.15411 0.11907,-0.20662 0.26459,-0.11668 0.14552,0.0899 0.26458,0.21603 0.26458,0.2802 0,0.0642 -0.11906,0.11668 -0.26458,0.11668 -0.14552,0 -0.26459,-0.12609 -0.26459,-0.2802 z"
       id="path11" />
  </g>
</svg>
