<?xml version="1.0" encoding="UTF-8" standalone="no"?>
<!-- Created with Inkscape (http://www.inkscape.org/) -->

<svg
   width="26.627638mm"
   height="36.807117mm"
   viewBox="0 0 26.627638 36.807117"
   version="1.1"
   id="svg1"
   inkscape:version="1.4.2 (2aeb623e1d, 2025-05-12)"
   sodipodi:docname="city4.svg"
   xmlns:inkscape="http://www.inkscape.org/namespaces/inkscape"
   xmlns:sodipodi="http://sodipodi.sourceforge.net/DTD/sodipodi-0.dtd"
   xmlns="http://www.w3.org/2000/svg"
   xmlns:svg="http://www.w3.org/2000/svg">
  <sodipodi:namedview
     id="namedview1"
     pagecolor="#ffffff"
     bordercolor="#000000"
     borderopacity="0.25"
     inkscape:showpageshadow="2"
     inkscape:pageopacity="0.0"
     inkscape:pagecheckerboard="0"
     inkscape:deskcolor="#d1d1d1"
     inkscape:document-units="mm"
     inkscape:zoom="0.7349537"
     inkscape:cx="265.32283"
     inkscape:cy="400.70551"
     inkscape:window-width="1854"
     inkscape:window-height="1011"
     inkscape:window-x="0"
     inkscape:window-y="0"
     inkscape:window-maximized="1"
     inkscape:current-layer="layer1" />
  <defs
     id="defs1" />
  <g
     inkscape:label="Layer 1"
     inkscape:groupmode="layer"
     id="layer1"
     transform="translate(-34.925002,-42.333334)">
    <path
       style="fill:#000000"
       d="m 36.17189,78.92504 c -0.6948,-0.0728 -1.25585,-0.25135 -1.24678,-0.39688 0.0228,-0.36631 2.22853,-0.1995 3.25452,0.24613 l 0.84302,0.36616 -0.79375,-0.0416 C 37.79234,79.07595 36.86668,78.99776 36.17189,78.925 Z m 4.17368,-0.52917 c -0.29104,-0.12506 -1.12448,-0.24649 -1.85209,-0.26985 -1.30156,-0.04176 -1.30871,-0.04654 -0.44263,-0.296023 0.64722,-0.186435 1.26016,-0.143135 2.31511,0.163545 0.78915,0.229408 1.43482,0.473318 1.43482,0.542018 0,0.1952 -0.87028,0.11167 -1.45521,-0.13969 z m 2.95652,-0.438963 c -0.0959,-0.09591 -0.91938,-0.224844 -1.82992,-0.286518 -0.91055,-0.06167 -1.69728,-0.153874 -1.7483,-0.204889 -0.26032,-0.26032 0.34708,-0.657126 1.00588,-0.657126 0.44863,0 0.81622,-0.173019 0.91512,-0.430733 0.12673,-0.330265 0.39562,-0.397633 1.15278,-0.288825 0.54313,0.07805 0.83867,0.08336 0.65677,0.01181 -0.61944,-0.243671 -0.33314,-0.615169 0.47409,-0.615169 0.44421,0 1.06425,-0.241709 1.38386,-0.539465 0.62856,-0.585593 2.52616,-0.671374 3.97639,-0.179752 1.14863,0.389379 0.65454,0.535221 -1.72847,0.510202 l -2.18764,-0.02297 1.45521,0.494856 1.45521,0.494856 -2.24896,-0.111959 c -1.99862,-0.0995 -2.15535,-0.0754 -1.40805,0.216449 1.48175,0.578684 1.27211,0.719617 -0.86736,0.583076 l -2.09022,-0.133399 0.92605,0.459965 c 1.17003,0.581155 1.17276,0.583153 1.01423,0.741682 -0.0728,0.07276 -0.21076,0.05382 -0.30667,-0.04209 z m 4.05494,-4.05895 c 0.48369,-0.312587 2.57986,-0.312587 3.30729,0 0.35636,0.153134 -0.16205,0.232141 -1.5875,0.241936 -1.45859,0.01002 -1.99328,-0.0652 -1.71979,-0.241936 z m 2.91041,-1.322916 c 0,-0.304937 0.63534,-0.304937 1.5875,0 0.56192,0.179957 0.49224,0.215805 -0.46302,0.238209 -0.61846,0.01451 -1.12448,-0.09269 -1.12448,-0.238209 z m -0.42863,-1.109714 c -0.0844,-0.136625 -0.098,-0.303968 -0.0301,-0.371873 0.17479,-0.174785 2.31078,0.19071 2.31078,0.395403 0,0.271585 -2.11179,0.249797 -2.28072,-0.02353 z m 0.29634,-1.246957 c -0.76358,-0.09055 -1.18987,-0.243178 -1.00824,-0.361002 0.39275,-0.25478 2.46345,0.05643 2.46345,0.370239 0,0.126922 -0.0298,0.212062 -0.0661,0.1892 -0.0364,-0.02286 -0.66145,-0.112159 -1.38906,-0.198437 z m -0.52917,-1.054313 c -0.58208,-0.08849 -0.9281,-0.245721 -0.76893,-0.349401 0.35622,-0.232034 2.18407,0.04191 2.37847,0.356463 0.15081,0.244004 0.0387,0.243512 -1.60954,-0.0071 z m -1.71979,-1.376914 c 0,-0.39233 1.66178,-0.367894 2.38125,0.03502 0.25263,0.141472 -0.108,0.218968 -0.99218,0.213212 -0.76399,-0.005 -1.38907,-0.116675 -1.38907,-0.248228 z m -0.52965,-1.099081 c 2.7e-4,-0.109141 0.23861,-0.198438 0.52965,-0.198438 0.29104,0 0.52917,-0.04979 0.52917,-0.110652 0,-0.06086 0.0696,-0.291931 0.15459,-0.513495 0.12657,-0.329848 -0.0412,-0.383364 -0.92605,-0.295338 -0.59434,0.05913 -1.08062,-0.0075 -1.08062,-0.147963 0,-0.140508 0.60333,-0.255468 1.34074,-0.255468 1.22034,0 1.32567,0.04752 1.1728,0.529166 -0.12569,0.396005 -0.047,0.530186 0.3129,0.533218 0.26447,0.0022 0.64787,0.109799 0.85201,0.239044 0.24603,0.155766 -0.17785,0.265905 -1.25725,0.326678 -0.89563,0.05043 -1.6282,0.0024 -1.62794,-0.106752 z m -1.76227,-2.434076 c 0.10597,-0.299881 3.08569,-0.237528 3.40304,0.07121 0.10178,0.09903 -0.64435,0.186047 -1.65809,0.193373 -1.1788,0.0085 -1.80776,-0.08685 -1.74495,-0.264584 z m -0.3983,-0.968166 c -0.27939,-0.171217 1.04365,-0.500362 2.01127,-0.500362 0.3178,0 0.80023,0.162634 1.07207,0.361409 0.43594,0.318765 0.2987,0.357789 -1.1631,0.330729 -0.91155,-0.01687 -1.77566,-0.103173 -1.92024,-0.191776 z m -0.30016,-0.933106 c -0.41302,-0.413022 -0.13153,-0.624595 0.80757,-0.606993 0.5457,0.01023 1.23031,0.120922 1.52135,0.245987 0.42726,0.183596 0.34225,0.230972 -0.44138,0.245987 -0.5338,0.01023 -1.13533,0.08183 -1.33673,0.159116 -0.20141,0.07729 -0.44927,0.05744 -0.55081,-0.0441 z m 0.93986,-1.085235 c -0.76398,-0.05345 -1.38906,-0.210016 -1.38906,-0.347932 0,-0.375298 2.13402,-0.279519 3.04271,0.136564 0.84996,0.389193 0.86351,0.387462 -1.65365,0.211368 z m 0,-1.058333 c -1.29453,-0.09056 -1.72372,-0.360625 -1.14326,-0.719373 0.24657,-0.152388 2.33498,0.265231 3.32607,0.665115 0.59351,0.239465 0.4984,0.241829 -2.18281,0.05426 z m 2.31511,-1.038868 c -0.50933,-0.05 -1.46183,-0.166377 -2.11667,-0.258615 -1.1501,-0.161996 -1.16444,-0.175074 -0.42133,-0.38418 0.82422,-0.231934 3.22374,0.165003 3.47727,0.575222 0.0827,0.133743 0.1135,0.224115 0.0685,0.200826 -0.045,-0.02329 -0.49848,-0.08325 -1.0078,-0.133253 z m 0.39687,-1.14732 c -0.43656,-0.111087 -1.47836,-0.216062 -2.3151,-0.233279 -0.86185,-0.01773 -1.52136,-0.151198 -1.52136,-0.307877 0,-0.162956 0.35325,-0.221871 0.8599,-0.143415 0.47294,0.07324 1.54263,0.206027 2.37708,0.29509 0.83445,0.08906 1.58562,0.272662 1.66926,0.407998 0.16919,0.273763 0.0723,0.272085 -1.06978,-0.01852 z m 0.79375,-0.948421 c -0.29104,-0.04543 -1.60073,-0.165341 -2.91042,-0.26646 -1.70231,-0.131433 -2.184,-0.239228 -1.68943,-0.378073 0.69372,-0.194757 0.99588,-0.182919 3.65058,0.143021 1.53659,0.188661 3.04171,0.641019 2.0076,0.60338 -0.29104,-0.01059 -0.76729,-0.05643 -1.05833,-0.101868 z m 1.19063,-1.143476 c 0,-0.131897 0.23812,-0.177542 0.52916,-0.101433 0.29104,0.07611 0.52917,0.184025 0.52917,0.239814 0,0.05579 -0.23813,0.101432 -0.52917,0.101432 -0.29104,0 -0.52916,-0.107915 -0.52916,-0.239813 z m -7.14334,-0.32464 c -8e-4,-0.322622 1.079,-0.444886 2.8124,-0.318446 3.68675,0.268923 3.96725,0.520493 0.56104,0.503174 -1.85516,-0.0094 -3.37321,-0.09256 -3.37344,-0.184728 z m 6.79327,-0.667553 c -0.0433,-0.04334 -1.64918,-0.101722 -3.56853,-0.129738 -1.98224,-0.02893 -3.48974,-0.159098 -3.48974,-0.301318 0,-0.284654 7.1693,-0.0084 8.86354,0.341512 1.05659,0.218229 1.05604,0.218549 -0.33406,0.193467 -0.76582,-0.01382 -1.42787,-0.06058 -1.47121,-0.103923 z m 2.68171,-1.065401 c 0.19099,-0.07643 0.4192,-0.06703 0.50712,0.02089 0.0879,0.08792 -0.0684,0.150453 -0.34727,0.138965 -0.30822,-0.0127 -0.37092,-0.07539 -0.15985,-0.159853 z M 43.85665,53.64064 c -0.48976,-0.489764 0.31348,-0.613207 3.04704,-0.468274 1.63178,0.08652 3.01649,0.201263 3.07712,0.25499 0.0606,0.05373 -0.90675,0.09769 -2.14974,0.09769 -1.24299,0 -2.60311,0.06863 -3.0225,0.152503 -0.41938,0.08388 -0.84774,0.06727 -0.95192,-0.0369 z M 54.1039,52.983608 c -1.35766,-0.220634 -5.42036,-0.469803 -8.15155,-0.49994 -1.04812,-0.01157 -1.47969,-0.109642 -1.35688,-0.308358 0.30978,-0.50123 10.30212,0.240123 11.24088,0.833984 0.46989,0.297257 0.23316,0.293747 -1.73245,-0.02569 z m 2.22691,-0.885572 c -0.10346,-0.09769 -1.70764,-0.227927 -8.44462,-0.685606 l -2.77812,-0.188733 2.51354,-0.03209 c 2.58182,-0.03296 9.98303,0.586603 10.25488,0.85845 0.16759,0.167592 -1.36849,0.215274 -1.54568,0.04798 z m -5.30088,-1.073704 c -0.0657,-0.0657 -1.74182,-0.179259 -3.72471,-0.252346 -3.10619,-0.114491 -5.25402,-0.292901 -6.82736,-0.567114 -0.21828,-0.03804 -1.20055,-0.155391 -2.18281,-0.260771 -0.98227,-0.10538 -1.78594,-0.289839 -1.78594,-0.409908 0,-0.120069 0.80367,-0.253513 1.78594,-0.296542 l 1.78593,-0.07823 0.0821,-0.992187 c 0.0643,-0.777281 0.19328,-0.992188 0.59531,-0.992188 0.28226,0 0.5132,-0.126546 0.5132,-0.281214 0,-0.154668 0.26789,-0.243965 0.59531,-0.198438 0.57033,0.0793 0.59852,-0.0078 0.67177,-2.075683 0.0493,-1.390691 0.19043,-2.198549 0.39687,-2.271165 0.17623,-0.06199 1.1241,0.07117 2.10636,0.295901 1.40689,0.321883 1.78594,0.511563 1.78594,0.893701 0,0.266803 -0.14883,0.465769 -0.33073,0.442148 -0.90991,-0.118157 -0.96821,0.01609 -0.52557,1.210375 0.46044,1.242331 0.89856,1.625306 0.68103,0.595313 -0.11626,-0.550491 -0.1021,-0.558061 0.18798,-0.100548 0.25381,0.400306 0.35754,0.425563 0.54332,0.132292 0.12629,-0.19936 0.22962,-0.481536 0.22962,-0.627057 0,-0.14552 -0.11542,-0.08599 -0.25648,0.132292 -0.14107,0.218281 -0.25831,0.261933 -0.26054,0.09701 -0.002,-0.164929 -0.24217,-0.362142 -0.53321,-0.438251 -0.29105,-0.07611 -0.52917,-0.306359 -0.52917,-0.511667 0,-0.286418 0.26168,-0.338207 1.12448,-0.222546 1.02177,0.136973 1.11723,0.213176 1.04508,0.834291 -0.0945,0.813483 0.586,1.555519 0.83395,0.90938 0.11593,-0.302122 0.57284,-0.404228 1.81683,-0.406014 1.52377,-0.0022 1.71695,0.06351 2.32341,0.790099 0.3638,0.435866 0.95911,0.823892 1.32292,0.862281 0.61491,0.06489 0.67076,-0.02644 0.79375,-1.297924 0.13216,-1.366402 0.67336,-2.094411 1.88425,-2.53465 0.76545,-0.278294 1.67012,1.301869 1.81991,3.178791 0.13302,1.66676 0.53771,2.20509 0.80535,1.071314 0.0791,-0.335246 0.33564,-0.646466 0.57,-0.691599 0.43628,-0.08402 0.79349,0.734189 1.11041,2.543474 0.13524,0.772075 0.0937,0.857701 -0.34786,0.717547 -0.27578,-0.08753 -1.42783,0.08351 -2.56011,0.380079 -1.88087,0.492647 -7.17897,0.787344 -7.54655,0.419764 z m -0.4979,-0.626268 c 0,-0.119109 -0.1867,-0.845228 -0.41488,-1.613598 -0.59301,-1.996869 -0.32135,-1.918758 0.39625,0.113939 0.33323,0.943921 0.70478,1.71622 0.82566,1.71622 0.25777,0 -0.95571,-3.694097 -1.33959,-4.077972 -0.17187,-0.171871 -0.26119,-0.161271 -0.26119,0.031 0,0.188374 -0.63456,0.277681 -1.78594,0.251354 l -1.78594,-0.04084 -0.0847,0.883723 -0.0847,0.883723 -1.50281,-0.152218 c -3.54481,-0.359048 -3.61949,-0.351806 -3.61949,0.351047 0,0.890467 0.98676,1.119596 6.87917,1.597373 1.30969,0.106194 2.47055,0.21102 2.57969,0.232945 0.10914,0.02193 0.19844,-0.05759 0.19844,-0.176695 z m -1.85209,-1.900106 c 0,-0.291042 -0.11906,-0.529167 -0.26458,-0.529167 -0.14552,0 -0.26458,0.178594 -0.26458,0.396875 0,0.218282 -0.1318,0.396875 -0.29289,0.396875 -0.16109,0 -0.22063,-0.188331 -0.1323,-0.418514 0.0883,-0.230183 0.1606,-0.527839 0.1606,-0.661459 0,-0.133619 0.27233,-0.242943 0.60518,-0.242943 0.4826,0 0.61743,0.160784 0.66566,0.79375 0.0333,0.436562 -0.0605,0.79375 -0.2083,0.79375 -0.14783,0 -0.26879,-0.238125 -0.26879,-0.529167 z m 3.53387,1.389063 c -0.31025,-1.251394 -0.80842,-2.261099 -0.97923,-1.984719 -0.20985,0.339538 0.59049,2.712323 0.91486,2.712323 0.13461,0 0.16358,-0.327422 0.0644,-0.727604 z m 0.85625,0.132291 c -0.0932,-0.327422 -0.24107,-0.922734 -0.32852,-1.322916 -0.0874,-0.400183 -0.27706,-0.727605 -0.42136,-0.727605 -0.14593,0 -0.18714,0.264209 -0.0928,0.595313 0.0932,0.327422 0.24107,0.922734 0.32851,1.322917 0.0874,0.400182 0.27707,0.727604 0.42137,0.727604 0.14592,0 0.18713,-0.264209 0.0928,-0.595313 z m 0.97821,0.06615 c -0.0761,-0.291042 -0.24355,-0.529167 -0.3721,-0.529167 -0.27337,0 -0.31402,0.625264 -0.0573,0.881945 0.34687,0.34687 0.56545,0.167313 0.42944,-0.352778 z m 0.98167,0 c 0,-0.293981 -0.17639,-0.529167 -0.39687,-0.529167 -0.44531,0 -0.4632,0.04846 -0.23628,0.639819 0.22686,0.591185 0.63315,0.52018 0.63315,-0.110652 z m 0.52358,-0.709877 c -0.33813,-1.057481 -0.78816,-1.746997 -0.78816,-1.207572 0,0.167777 0.10938,0.578543 0.24306,0.912812 0.13368,0.334269 0.31508,0.833163 0.4031,1.108652 0.088,0.27549 0.22864,0.432295 0.31248,0.348457 0.0838,-0.08384 0.007,-0.606895 -0.17048,-1.162349 z m 0.90007,0.246856 c -0.22192,-0.928341 -0.63494,-1.736796 -0.80196,-1.569773 -0.19642,0.196419 0.48777,2.297377 0.74815,2.297377 0.12526,0 0.14948,-0.327422 0.0538,-0.727604 z m 0.27209,-1.629593 c -0.37039,-1.206084 -0.61608,-2.250234 -0.54598,-2.320333 0.0701,-0.0701 0.45358,0.896386 0.8522,2.147744 0.56453,1.772242 0.81816,2.248179 1.14733,2.152979 0.23242,-0.06722 0.99996,-0.203823 1.70564,-0.303562 1.26207,-0.178381 1.28041,-0.194531 1.12172,-0.987966 -0.24365,-1.218249 -0.63497,-1.352572 -0.79864,-0.274138 -0.0563,0.370684 -0.30476,0.487265 -1.03865,0.487265 -0.6729,0 -0.9703,0.120048 -0.98322,0.396875 -0.0295,0.632738 -0.99875,-1.740438 -1.15967,-2.839464 -0.14354,-0.980405 -0.13826,-0.976394 0.31784,0.241066 0.2551,0.680934 0.57209,1.335777 0.70441,1.455209 0.13981,0.126183 0.17366,0.03012 0.0808,-0.229325 -0.0879,-0.245559 -0.28635,-0.91646 -0.44102,-1.490891 -0.21528,-0.799471 -0.43683,-1.074163 -0.94468,-1.171244 -0.51996,-0.0994 -0.69526,-4.3e-5 -0.81057,0.459398 -0.20856,0.830958 1.00982,4.925378 1.36111,4.574087 0.0577,-0.05765 -0.19823,-1.091615 -0.56862,-2.2977 z m -3.29536,0.482453 c -0.16244,-0.303505 -0.34802,-0.499139 -0.41242,-0.434744 -0.18518,0.185181 0.19023,0.986572 0.46216,0.986572 0.13516,0 0.11279,-0.24813 -0.0497,-0.551828 z m 0.80587,-0.125246 c 0,-0.226869 -0.121,-0.337704 -0.2689,-0.246301 -0.14789,0.0914 -0.20039,0.277025 -0.11667,0.41249 0.22681,0.366989 0.38557,0.298559 0.38557,-0.166189 z m -8.73125,-0.753131 c 0,-0.44586 -0.88684,-2.147424 -1.59886,-3.067712 l -0.51177,-0.661458 0.0812,1.124479 c 0.0446,0.618464 -0.0262,1.124479 -0.15736,1.124479 -0.50809,0 0.0129,0.663099 0.54287,0.690895 0.53738,0.02819 0.54405,-0.0038 0.15702,-0.752192 -0.67254,-1.300537 -0.21208,-1.115556 0.53054,0.213137 0.38048,0.68075 0.69178,1.263386 0.69178,1.294748 0,0.03136 -0.56555,-0.03607 -1.25677,-0.149845 -1.70185,-0.280126 -1.91823,-0.278809 -1.91823,0.01168 0,0.137547 0.56555,0.29468 1.25677,0.349184 0.69122,0.0545 1.46513,0.120559 1.71979,0.146789 0.25466,0.02623 0.46302,-0.119652 0.46302,-0.324181 z m 7.67292,-0.421879 c 0,-0.14552 -0.12609,-0.264583 -0.2802,-0.264583 -0.15411,0 -0.20661,0.119063 -0.11668,0.264583 0.0899,0.145521 0.21603,0.264584 0.2802,0.264584 0.0642,0 0.11668,-0.119063 0.11668,-0.264584 z m -2.2214,-0.722092 c -0.26895,-0.268953 -0.49087,0.135968 -0.27019,0.49302 0.16669,0.269721 0.22901,0.26993 0.31863,0.0011 0.0613,-0.183829 0.0395,-0.406168 -0.0484,-0.494087 z m 7.41404,-0.741844 c -0.0819,-0.213481 -0.2692,-0.388147 -0.41616,-0.388147 -0.1677,0 -0.14988,0.257528 0.0478,0.691468 0.31657,0.694814 0.64694,0.422752 0.36832,-0.303321 z m -12.3448,0.471749 c -0.0152,-0.358628 -0.77635,-1.221663 -0.93633,-1.061679 -0.20915,0.209147 0.36588,1.260116 0.68947,1.260116 0.1404,0 0.25148,-0.0893 0.24686,-0.198437 z m 11.42633,-1.983224 c -0.30299,-0.302997 -0.91195,-0.0097 -0.69814,0.336305 0.0798,0.12911 0.32787,0.164605 0.55127,0.07888 0.26529,-0.1018 0.31624,-0.245819 0.14687,-0.415182 z M 44.1699,43.712802 c -0.16243,-0.303505 -0.36218,-0.484976 -0.44389,-0.403269 -0.0817,0.08171 0.002,0.330029 0.18613,0.551827 0.47567,0.573149 0.60432,0.499001 0.25776,-0.148558 z m 1.07046,0.31964 c 0,-0.127702 -0.17859,-0.380406 -0.39688,-0.561563 -0.43079,-0.35753 -0.48464,-0.272009 -0.23627,0.375235 0.17001,0.443036 0.63315,0.579333 0.63315,0.186328 z"
       id="path19" />
  </g>
</svg>
