<?xml version="1.0" encoding="UTF-8" standalone="no"?>
<!-- Created with Inkscape (http://www.inkscape.org/) -->

<svg
   width="37.711243mm"
   height="25.699646mm"
   viewBox="0 0 37.711243 25.699646"
   version="1.1"
   id="svg1"
   inkscape:version="1.4.2 (2aeb623e1d, 2025-05-12)"
   sodipodi:docname="city3.svg"
   xmlns:inkscape="http://www.inkscape.org/namespaces/inkscape"
   xmlns:sodipodi="http://sodipodi.sourceforge.net/DTD/sodipodi-0.dtd"
   xmlns="http://www.w3.org/2000/svg"
   xmlns:svg="http://www.w3.org/2000/svg">
  <sodipodi:namedview
     id="namedview1"
     pagecolor="#ffffff"
     bordercolor="#000000"
     borderopacity="0.25"
     inkscape:showpageshadow="2"
     inkscape:pageopacity="0.0"
     inkscape:pagecheckerboard="0"
     inkscape:deskcolor="#d1d1d1"
     inkscape:document-units="mm"
     inkscape:zoom="2.9398148"
     inkscape:cx="102.04724"
     inkscape:cy="102.55748"
     inkscape:window-width="1854"
     inkscape:window-height="1011"
     inkscape:window-x="0"
     inkscape:window-y="0"
     inkscape:window-maximized="1"
     inkscape:current-layer="layer1" />
  <defs
     id="defs1" />
  <g
     inkscape:label="Layer 1"
     inkscape:groupmode="layer"
     id="layer1"
     transform="translate(-33.337492,-46.302086)">
    <path
       style="fill:#000000"
       d="m 63.09422,71.907793 c -0.19255,-0.10273 -1.34516,-0.32908 -2.56136,-0.503 -2.25006,-0.32178 -3.47727,-0.71535 -3.47727,-1.11517 0,-0.12217 0.48328,-0.22212 1.07395,-0.22212 0.59067,0 1.01413,-0.0968 0.94101,-0.21509 -0.0731,-0.1183 -0.78521,-0.16866 -1.58243,-0.11191 -2.18215,0.15533 -3.64689,-0.84915 -1.55701,-1.06776 0.59696,-0.0624 0.27385,-0.1215 -0.81114,-0.14826 -0.99184,-0.0245 -2.0634,-0.19008 -2.38125,-0.36805 -0.55496,-0.31071 -0.54113,-0.33035 0.34812,-0.49433 0.8727,-0.16093 0.85265,-0.17278 -0.34812,-0.2056 -1.51655,-0.0415 -2.4001,-0.44472 -2.18761,-0.99846 0.11277,-0.29387 0.0197,-0.35218 -0.36636,-0.22964 -0.28463,0.0903 -0.77917,0.0242 -1.09897,-0.14694 -0.98409,-0.52667 -0.005,-0.77932 1.94799,-0.50272 2.16279,0.30628 3.08276,0.71065 3.26454,1.43491 0.0911,0.36312 0.37599,0.57908 0.81133,0.61511 0.36898,0.0305 1.00591,0.29409 1.4154,0.58568 0.40949,0.29158 1.00581,0.53015 1.32516,0.53015 0.65867,0 2.38039,0.75539 2.38039,1.04438 0,0.10469 0.14883,0.20671 0.33073,0.22673 1.78018,0.19588 4.98691,1.1645 4.88339,1.47507 -0.12091,0.36273 -1.87047,0.67313 -2.35049,0.41702 z m -7.89071,-1.59132 c 0,-0.15411 0.11906,-0.20661 0.26458,-0.11668 0.14552,0.0899 0.26458,0.21603 0.26458,0.2802 0,0.0642 -0.11906,0.11668 -0.26458,0.11668 -0.14552,0 -0.26458,-0.12609 -0.26458,-0.2802 z m -8.33625,-5.34587 c -0.53003,-0.29662 -0.49914,-0.66113 0.068,-0.80273 0.25466,-0.0636 -0.0247,-0.0673 -0.62068,-0.008 -0.72348,0.0716 -1.18745,-0.0177 -1.39582,-0.26878 -0.42283,-0.50948 0.21781,-0.74809 1.50836,-0.56179 0.53414,0.0771 1.60444,0.18046 2.37846,0.22967 0.77402,0.0492 1.54197,0.22415 1.70656,0.38874 0.36184,0.36184 0.0365,0.37382 -1.59251,0.0587 -0.61846,-0.11964 -1.12448,-0.13815 -1.12448,-0.0411 0,0.097 0.89297,0.33506 1.98438,0.52898 1.0914,0.19392 1.98406,0.42598 1.98367,0.51568 -10e-4,0.24859 -4.44533,0.21316 -4.89596,-0.039 z m -3.17623,-2.05186 c -0.3324,-0.53784 0.23015,-0.74047 1.65675,-0.59676 1.6164,0.16283 1.87342,0.60177 0.35237,0.60177 -0.57019,0 -1.21299,0.0676 -1.42845,0.15033 -0.21546,0.0827 -0.47676,0.0128 -0.58067,-0.15534 z m 5.29477,-0.83579 c -0.58209,-0.0986 -2.27652,-0.15585 -3.76541,-0.12714 -1.91177,0.0369 -2.74309,-0.0416 -2.82964,-0.26719 -0.0674,-0.17567 0.0792,-0.3679 0.32582,-0.42718 0.24662,-0.0593 0.15074,-0.0965 -0.21306,-0.0826 -0.36381,0.0138 -0.68965,-0.0939 -0.72411,-0.23943 -0.0723,-0.30543 2.2223,-0.32493 7.07411,-0.0601 4.03763,0.22038 5.82083,0.45399 5.82083,0.76258 0,0.12851 -0.26789,0.17496 -0.59531,0.10322 -1.41764,-0.31062 -10.69345,-0.81964 -10.12032,-0.55537 0.14553,0.0671 1.87193,0.23743 3.83646,0.37851 1.96453,0.14108 3.86953,0.37771 4.23334,0.52585 0.56386,0.22959 0.46626,0.26188 -0.66146,0.21879 -0.72761,-0.0278 -1.79917,-0.13125 -2.38125,-0.22989 z m 13.89062,-0.50816 c -0.80036,-0.12354 -2.28864,-0.28857 -3.30729,-0.36672 -2.21424,-0.1699 -3.88382,-0.31511 -6.27767,-0.54601 -2.99871,-0.28925 -10.31901,-0.52472 -11.62901,-0.37407 -1.77418,0.20403 -2.56307,-0.1537 -0.90516,-0.41045 1.09848,-0.17012 5.61256,-0.0544 10.87434,0.27877 0.72761,0.0461 2.8112,0.16203 4.63021,0.25768 2.92126,0.15361 8.34903,0.98102 8.6932,1.32519 0.15376,0.15376 -0.19734,0.12599 -2.07862,-0.16439 z m 1.98438,-0.65535 c -1.73877,-0.39713 -2.30538,-0.46896 -7.47448,-0.94762 l -3.50573,-0.32463 -0.004,-1.86745 c -0.002,-1.02709 -0.13095,-2.04604 -0.28605,-2.26432 -0.20374,-0.28673 -0.23785,0.25936 -0.1229,1.96767 0.20126,2.99107 -0.0469,2.82018 -0.3985,-0.27445 -0.14675,-1.29152 -0.39676,-2.46873 -0.55557,-2.61603 -0.20555,-0.19064 -0.24249,-0.0707 -0.1282,0.4162 0.37636,1.60342 0.51134,4.47536 0.21035,4.47536 -0.19261,0 -0.30997,-0.60103 -0.32291,-1.65365 -0.0183,-1.48671 -0.67823,-4.42112 -0.74568,-3.31559 -0.0183,0.29995 -0.16916,0.40045 -0.44326,0.29527 -0.34898,-0.13392 -0.38663,-0.006 -0.23513,0.80205 l 0.18037,0.9615 H 48.883 c -1.92481,0 -2.14611,-0.0513 -2.14611,-0.49791 0,-0.44631 -0.23841,-0.50197 -2.30065,-0.5371 -1.26536,-0.0215 -2.57393,-0.10778 -2.90795,-0.19161 -0.9634,-0.2418 -1.12849,0.64059 -0.25967,1.38792 0.47748,0.41071 0.70577,0.86792 0.70577,1.41351 v 0.80644 h 4.49792 c 2.47385,0 4.58721,-0.0298 4.69635,-0.0661 0.10914,-0.0364 0.15735,-0.89959 0.10713,-1.91823 -0.0598,-1.21217 -0.002,-1.76067 0.16802,-1.5875 0.14264,0.14552 0.31328,1.16562 0.37921,2.26689 l 0.11987,2.00231 -1.21394,-0.073 c -0.66766,-0.0401 -4.64989,-0.0867 -8.84939,-0.10338 -4.19949,-0.0167 -7.78572,-0.0881 -7.9694,-0.15853 -0.21195,-0.0813 -0.34717,-0.71294 -0.37014,-1.72889 -0.0199,-0.88041 -0.0968,-1.69879 -0.17085,-1.81863 -0.0741,-0.11984 -0.0137,-0.29268 0.13424,-0.38409 0.14789,-0.0914 0.2689,-0.50246 0.2689,-0.91346 0,-0.52476 0.15757,-0.78848 0.52916,-0.88566 0.36611,-0.0957 0.5349,-0.37021 0.54777,-0.89075 0.0169,-0.68358 0.41787,-1.99479 0.51326,-1.67842 0.0219,0.0728 0.17967,0.66808 0.35052,1.32292 0.28149,1.07898 0.37874,1.18348 1.03704,1.11446 0.67329,-0.0706 0.72864,-0.003 0.75693,0.92605 0.056,1.84058 0.0195,1.79069 1.37752,1.87736 l 1.27574,0.0814 -0.0851,-0.87102 c -0.0556,-0.56869 0.0309,-0.87246 0.24908,-0.87516 0.1838,-0.002 0.60052,-0.32805 0.92604,-0.72393 l 0.59185,-0.71978 1.13385,0.78592 c 0.62362,0.43226 1.18377,0.78593 1.24478,0.78593 0.061,0 0.18911,-0.41672 0.28466,-0.92604 0.0995,-0.53038 0.45719,-0.805351 0.66763,-0.805351 0.45354,0 0.32718,-0.126689 -0.14818,1.010571 l -0.38912,0.9313 1.03579,0.0988 1.03579,0.0988 -0.64038,-0.83959 c -0.48292,-0.63313 -0.693637,-1.467705 -0.504429,-1.253288 0.399269,0.452467 0.523589,-0.185072 0.362719,-1.269392 -0.49381,-3.32855 -0.49275,-3.45015 0.0315,-3.58724 0.27114,-0.0709 0.62637,-0.53308 0.7894,-1.02706 0.37085,-1.1237 0.62815,-1.13301 1.05787,-0.0382 0.18564,0.47294 0.50039,0.99402 0.69944,1.15795 0.25636,0.21112 0.36761,1.02135 0.38147,2.77812 0.0305,3.87268 0.20934,4.99362 0.79651,4.99362 0.39417,0 0.49684,-0.20223 0.5037,-0.99219 0.008,-0.86759 0.12257,-1.04551 0.916,-1.41681 0.87658,-0.4102 0.9271,-0.40362 1.48844,0.19389 0.31958,0.34018 0.80035,0.68811 1.06837,0.77318 0.26803,0.0851 0.48732,0.32524 0.48732,0.53371 0,0.20848 0.14883,0.39147 0.33073,0.40665 2.10517,0.17572 2.31511,0.14536 2.31511,-0.33478 0,-0.29246 0.1903,-0.48657 0.47704,-0.48657 0.51358,0 2.69796,1.49462 2.69796,1.84602 0,0.30922 1.60102,0.54702 4.7625,0.70738 3.54244,0.17968 6.13684,0.64279 6.29712,1.12406 0.0994,0.29859 -0.101,0.33202 -1.03641,0.17287 -0.63782,-0.10853 -1.81452,-0.24938 -2.61488,-0.31301 -1.90509,-0.15147 -1.24735,0.33776 0.79147,0.5887 0.80162,0.0987 1.69561,0.27468 1.98665,0.39116 l 0.52917,0.21178 -0.52917,0.0115 c -0.29104,0.006 -1.51431,-0.1487 -2.71838,-0.34448 -1.20407,-0.19577 -2.24356,-0.26803 -2.30997,-0.16057 -0.0664,0.10747 0.83743,0.31771 2.00855,0.46722 1.17113,0.14951 2.20069,0.34321 2.28793,0.43044 0.40297,0.40297 -0.35535,0.44229 -2.88354,0.14952 -4.97208,-0.57579 -5.65687,-0.57616 -3.13146,-0.002 1.23693,0.28136 2.78474,0.68859 3.43958,0.90495 1.04277,0.34454 1.09206,0.39222 0.39688,0.38398 -0.43656,-0.005 -1.50813,-0.17257 -2.38125,-0.372 z m -3.88059,-1.30302 c -0.24529,-0.24528 -1.80795,-0.3296 -1.80795,-0.0975 0,0.12643 0.43656,0.22987 0.97014,0.22987 0.53357,0 0.91059,-0.0596 0.83781,-0.13233 z m -4.70237,-3.1325 c -0.19772,-0.19772 -0.28058,0.11269 -0.28058,1.05115 0,1.73142 0.37245,2.10584 0.47902,0.48156 0.0452,-0.68867 -0.0441,-1.37838 -0.19844,-1.53271 z m 8.29756,2.50476 c 0.1955,-0.31632 -3.41671,-0.64776 -4.15072,-0.38086 -0.56263,0.20459 -0.0169,0.29469 3.42832,0.5661 0.31883,0.0251 0.64391,-0.0582 0.7224,-0.18524 z m -23.30877,-1.13226 c -0.17134,-0.87234 -0.68693,-0.9869 -3.67648,-0.81694 -2.13762,0.12153 -2.27101,0.0976 -2.40979,-0.43312 -0.0884,-0.33808 -0.35911,-0.56177 -0.67983,-0.56177 -0.46859,0 -0.51313,0.11977 -0.36893,0.99218 0.0902,0.54571 0.16531,1.13746 0.16691,1.31502 0.002,0.2331 0.9405,0.3434 3.37635,0.39687 1.85539,0.0407 3.45358,0.0145 3.55152,-0.0582 0.0979,-0.0728 0.11606,-0.44806 0.0402,-0.834 z m 13.49761,-0.30577 c 0.0569,-0.68281 3.9e-4,-1.24148 -0.12553,-1.24148 -0.12593,0 -0.22895,0.61516 -0.22895,1.36701 0,1.65907 0.21207,1.58397 0.35448,-0.12553 z m 0.72082,-1.06576 c -0.19902,-0.19902 -0.28155,0.0701 -0.28155,0.91789 0,1.55968 0.3722,1.93404 0.47999,0.48276 0.0457,-0.6155 -0.0436,-1.2458 -0.19844,-1.40065 z m 1.99571,2.0516 c -0.0883,-0.23019 -0.1606,-0.8255 -0.1606,-1.32292 0,-0.49742 -0.12125,-0.9044 -0.26944,-0.9044 -0.15319,0 -0.24924,0.5708 -0.22262,1.32292 0.0339,0.95703 0.15281,1.32291 0.43004,1.32291 0.24075,0 0.32351,-0.1556 0.22262,-0.41851 z m 0.89774,-0.9926 c 0,-1.11966 -0.17078,-1.58851 -0.50366,-1.38278 -0.25381,0.15686 -0.005,2.52931 0.26571,2.52931 0.13087,0 0.23795,-0.51594 0.23795,-1.14653 z m 0.93178,-0.15024 c -0.2606,-1.18651 -0.56674,-1.00701 -0.44578,0.26137 0.0679,0.71199 0.19238,0.99201 0.36449,0.8199 0.14375,-0.14375 0.18034,-0.63032 0.0813,-1.08127 z m 6.21197,0.78392 c -0.37678,-0.22042 -4.44877,-0.41902 -5.29167,-0.25809 -0.21828,0.0417 0.61516,0.15047 1.85208,0.24177 3.69297,0.27258 3.87915,0.27347 3.43959,0.0163 z m -28.43299,-3.10026 c -0.0969,-0.51638 -0.23981,-0.87521 -0.31764,-0.79738 -0.0778,0.0778 -0.0526,0.65554 0.0561,1.28381 0.1087,0.62827 0.25164,0.98709 0.31764,0.79738 0.066,-0.18972 0.0407,-0.76743 -0.0561,-1.28381 z m -1.24563,0.17353 c -0.044,-1.12366 -0.48388,-1.50409 -0.48388,-0.41852 0,0.64943 0.23714,1.47685 0.42327,1.47685 0.0562,0 0.0834,-0.47625 0.0606,-1.05833 z m 12.50866,-3.57188 -0.24669,-1.5875 0.0148,2.12727 c 0.008,1.17 0.0871,2.53922 0.17551,3.04271 0.28454,1.62027 0.33796,-1.77079 0.0564,-3.58248 z m -13.40418,3.59575 c 0.21131,-0.3419 -0.12551,-1.1085 -0.40984,-0.93278 -0.31506,0.19472 -0.30496,1.17349 0.0121,1.17349 0.13693,0 0.31591,-0.10832 0.39773,-0.24071 z m 12.80609,-1.9421 c -0.0999,-1.20055 -0.19101,-2.6293 -0.20258,-3.175 -0.0116,-0.54571 -0.11034,-0.99231 -0.21948,-0.99246 -0.10914,-1.5e-4 -0.12176,1.22024 -0.028,2.71198 0.0937,1.49173 0.18302,2.92061 0.19844,3.17527 0.0154,0.25466 0.1192,0.46302 0.23062,0.46302 0.11142,0 0.12089,-0.98227 0.021,-2.18281 z m -5.0412,1.22059 c -0.27856,-0.27856 -0.60556,-0.36282 -0.91659,-0.23619 -0.45731,0.1862 -0.45484,0.20868 0.0456,0.41446 0.29104,0.11968 0.70351,0.22596 0.91659,0.23619 0.31972,0.0153 0.31174,-0.0571 -0.0456,-0.41446 z m 4.06422,-3.80028 -0.24311,-1.45521 -0.0309,1.88516 c -0.017,1.03683 0.0584,2.28699 0.1675,2.77812 0.18992,0.85464 0.20169,0.83618 0.27405,-0.42995 0.0416,-0.7276 -0.0338,-1.97776 -0.16751,-2.77812 z m -11.23673,2.33164 c -0.0845,-0.21107 -0.14716,-0.14837 -0.15986,0.15985 -0.0115,0.27892 0.0511,0.43519 0.13897,0.34727 0.0879,-0.0879 0.0973,-0.31612 0.0209,-0.50712 z m 11.99009,-4.97747 c 0,-0.14553 -0.11906,-0.26459 -0.26458,-0.26459 -0.14552,0 -0.26459,0.11906 -0.26459,0.26459 0,0.14552 0.11907,0.26458 0.26459,0.26458 0.14552,0 0.26458,-0.11906 0.26458,-0.26458 z m -0.0661,9.85592 c -0.25466,-0.0578 -0.46302,-0.33454 -0.46302,-0.61491 0,-0.64651 0.32119,-0.64896 0.90227,-0.007 0.48808,0.53931 0.30969,0.79184 -0.43925,0.62177 z m -3.37343,-1.12467 c 0,-0.14552 0.23812,-0.26459 0.52916,-0.26459 0.29104,0 0.52917,0.11907 0.52917,0.26459 0,0.14552 -0.23813,0.26458 -0.52917,0.26458 -0.29104,0 -0.52916,-0.11906 -0.52916,-0.26458 z"
       id="path9"
       sodipodi:nodetypes="sssscscccscscccccssscssscssscccssssssscccssscsccscccsssssssccscssscssscsccsssssscssccsscssscscccsccccsccscsccscccccscssssccccsscsssscscsscscsssscsscsccssscscsccccssccsssscssccssssccccccsscsssscsscscsssssssssccscccssscsssssccccccsssssscsccssscscsccsccccsscssssssscscccsssss" />
  </g>
</svg>
