<?xml version="1.0" encoding="UTF-8" standalone="no"?>
<!-- Created with Inkscape (http://www.inkscape.org/) -->

<svg
   width="52.708447mm"
   height="20.42766mm"
   viewBox="0 0 52.708447 20.42766"
   version="1.1"
   id="svg1"
   inkscape:version="1.4.2 (2aeb623e1d, 2025-05-12)"
   sodipodi:docname="city1.svg"
   xmlns:inkscape="http://www.inkscape.org/namespaces/inkscape"
   xmlns:sodipodi="http://sodipodi.sourceforge.net/DTD/sodipodi-0.dtd"
   xmlns="http://www.w3.org/2000/svg"
   xmlns:svg="http://www.w3.org/2000/svg">
  <sodipodi:namedview
     id="namedview1"
     pagecolor="#ffffff"
     bordercolor="#000000"
     borderopacity="0.25"
     inkscape:showpageshadow="2"
     inkscape:pageopacity="0.0"
     inkscape:pagecheckerboard="0"
     inkscape:deskcolor="#d1d1d1"
     inkscape:document-units="mm"
     inkscape:zoom="0.7349537"
     inkscape:cx="234.02835"
     inkscape:cy="391.1811"
     inkscape:window-width="1854"
     inkscape:window-height="1011"
     inkscape:window-x="0"
     inkscape:window-y="0"
     inkscape:window-maximized="1"
     inkscape:current-layer="layer1" />
  <defs
     id="defs1" />
  <g
     inkscape:label="Layer 1"
     inkscape:groupmode="layer"
     id="layer1"
     transform="translate(-43.127083,-44.97917)">
    <path
       style="fill:#000000"
       d="m 47.230438,65.14796 c -0.0051,-0.39988 2.278667,-0.48073 3.295592,-0.11666 l 1.048946,0.37553 -2.171112,-0.0383 C 48.209752,65.34743 47.23171,65.2482 47.230438,65.14798 Z m 3.834145,-0.71522 c -0.714588,-0.10863 -0.945337,-0.23386 -0.710436,-0.38555 0.410382,-0.26501 2.077755,6.9e-4 2.30427,0.3672 0.166803,0.2699 0.06825,0.27103 -1.593834,0.0183 z m 2.38125,-0.5054 c -1.291815,-0.10708 -1.774039,-0.49143 -0.89376,-0.71236 0.624316,-0.15669 2.641363,0.48403 2.183984,0.69375 -0.12754,0.0585 -0.70814,0.0668 -1.290224,0.0186 z m 0.306913,-1.19717 c -0.558803,-0.17072 -0.936794,-0.38882 -0.83998,-0.48466 0.09681,-0.0958 0.551285,-0.0666 1.009938,0.0649 0.458652,0.13154 1.073835,0.16302 1.367072,0.07 0.46982,-0.14912 0.490266,-0.11754 0.172107,0.26582 -0.413247,0.49793 -0.362346,0.49543 -1.709137,0.084 z m 1.380853,-0.8275 c -0.06612,-0.0661 -0.562215,-0.14998 -1.102431,-0.18636 -0.540215,-0.0364 -0.98221,-0.17656 -0.98221,-0.3115 0,-0.32045 2.095788,-0.0378 2.466204,0.33262 0.188667,0.18867 0.192756,0.28546 0.01206,0.28546 -0.150371,0 -0.327502,-0.0541 -0.393623,-0.12022 z m -1.50539,-1.1307 c -0.530641,-0.0654 -0.830512,-0.23121 -0.760677,-0.42068 0.0634,-0.17202 0.278991,-0.26596 0.479083,-0.20874 0.200091,0.0572 0.619086,0.0894 0.931101,0.0714 0.312015,-0.0179 0.713547,0.14361 0.892293,0.35899 0.351482,0.42351 0.316907,0.42797 -1.5418,0.199 z m 8.019708,-1.10173 c -0.718092,-0.10916 -0.945969,-0.23343 -0.708819,-0.38655 0.45007,-0.29058 2.752528,0.0479 2.550408,0.37493 -0.162099,0.26229 -0.19153,0.26247 -1.841589,0.0116 z m -9.128125,-0.29318 c 0,-0.33761 1.329666,-0.33761 1.852083,0 0.290648,0.18783 0.0959,0.25757 -0.727604,0.26053 -0.618464,0.002 -1.124479,-0.11501 -1.124479,-0.26053 z M 64.63519,58.70427 c -0.079,-0.079 -0.714005,-0.1683 -1.41113,-0.19844 -1.365245,-0.059 -2.059927,-0.71627 -0.757081,-0.71627 0.874297,0 2.48823,0.54933 2.48823,0.8469 0,0.24608 -0.116966,0.27086 -0.320019,0.0678 z m -12.710711,-0.3137 c -0.545703,-0.0571 -0.992187,-0.22368 -0.992187,-0.37022 0,-0.32157 2.655565,-0.0409 3.029479,0.32023 0.255016,0.24627 -0.08187,0.25453 -2.037292,0.05 z m 6.68073,-1.13018 c 0,-0.14552 0.357187,-0.26458 0.79375,-0.26458 0.436562,0 0.79375,0.11906 0.79375,0.26458 0,0.14553 -0.357188,0.26459 -0.79375,0.26459 -0.436563,0 -0.79375,-0.11906 -0.79375,-0.26459 z m 5.298203,-0.006 c -0.505727,-0.11895 -1.003516,-0.16436 -1.106197,-0.1009 -0.10268,0.0635 -0.273055,-0.0243 -0.378609,-0.19514 -0.238292,-0.38557 2.240256,-0.10029 2.644976,0.30443 0.300422,0.30043 0.148107,0.29932 -1.16017,-0.008 z m -14.982269,-0.3019 c -0.191496,-0.30985 1.792206,-0.26974 2.275732,0.046 0.284953,0.18608 0.03931,0.24733 -0.871054,0.21721 -0.697361,-0.0231 -1.329466,-0.14152 -1.404678,-0.26322 z m 16.563232,-0.36724 c -0.654843,-0.20633 -1.637109,-0.37696 -2.182812,-0.37917 -0.545703,-0.002 -0.992188,-0.096 -0.992188,-0.20847 0,-0.27965 3.135179,0.0458 4.034896,0.41884 0.400183,0.16592 0.727604,0.36416 0.727604,0.44052 0,0.19507 -0.232223,0.15532 -1.5875,-0.27172 z M 58.7375,56.46664 c -0.09731,-0.15745 0.217739,-0.26458 0.778135,-0.26458 0.517911,0 0.941657,0.11906 0.941657,0.26458 0,0.14553 -0.350161,0.26459 -0.778135,0.26459 -0.427975,0 -0.85172,-0.11906 -0.941657,-0.26459 z M 48.154167,55.93748 c -0.348917,-0.14994 -0.39398,-0.23235 -0.132292,-0.24194 0.218281,-0.008 0.575469,0.10087 0.79375,0.24194 0.483649,0.31256 0.0659,0.31256 -0.661458,0 z m 10.451042,-0.54575 c 0,-0.1364 0.47625,-0.248 1.058333,-0.248 0.582083,0 1.058333,0.10503 1.058333,0.23339 0,0.12837 -0.47625,0.23997 -1.058333,0.248 -0.582083,0.008 -1.058333,-0.097 -1.058333,-0.23339 z m 7.342187,0.0884 c -0.545703,-0.0571 -0.992187,-0.21793 -0.992187,-0.35743 0,-0.13951 0.26789,-0.19135 0.595312,-0.11519 0.327422,0.0762 1.071563,0.24506 1.653646,0.37534 1.078752,0.24144 0.528526,0.28403 -1.256771,0.0973 z m -21.26987,-0.66094 c -0.164953,-0.2669 2.120597,-0.23624 3.476641,0.0466 0.861347,0.17969 0.648059,0.21494 -1.145922,0.18938 -1.21234,-0.0173 -2.261164,-0.12348 -2.330719,-0.23602 z m 17.962578,0.13503 c 0.400183,-0.0606 1.055027,-0.0606 1.455209,0 0.400182,0.0606 0.07276,0.11022 -0.727604,0.11022 -0.800365,0 -1.127787,-0.0496 -0.727605,-0.11022 z m 7.518352,0.0129 c -0.254227,-0.25422 -7.074015,-0.868 -7.782935,-0.70046 -0.366011,0.0865 -0.595312,0.0178 -0.595312,-0.17834 0,-0.35508 4.883382,-0.31505 6.085416,0.0499 0.363803,0.11044 1.227006,0.27011 1.91823,0.3548 0.691224,0.0847 1.256771,0.26575 1.256771,0.40236 0,0.28496 -0.618641,0.33528 -0.88217,0.0718 z M 58.737833,54.34944 c 0.162311,-0.26262 1.901519,-0.17018 2.187996,0.1163 0.08185,0.0819 -0.413828,0.14882 -1.101513,0.14882 -0.767879,0 -1.187112,-0.1023 -1.086483,-0.26512 z m 28.177794,-0.0246 c -2.47587,-0.62981 -7.310157,-1.33393 -9.921876,-1.44512 l -2.910417,-0.12392 1.260981,0.44011 c 1.874353,0.65418 1.356364,0.70603 -1.169547,0.11706 -1.228105,-0.28635 -2.584522,-0.58705 -3.01426,-0.66821 -1.012869,-0.19129 -8.079184,-0.21325 -8.266749,-0.0257 -0.118261,0.11826 1.506437,0.26067 2.099673,0.18405 0.317286,-0.041 6.952061,0.77092 7.572593,0.92666 1.345024,0.33758 0.282018,0.32406 -2.467122,-0.0314 -1.592105,-0.20584 -4.04071,-0.41062 -5.441345,-0.45507 -1.567841,-0.0497 -2.507353,-0.1831 -2.444471,-0.34697 0.05618,-0.14639 -0.167069,-0.2793 -0.496099,-0.29535 -0.329031,-0.0161 -0.982671,-0.11972 -1.452534,-0.23039 -0.76314,-0.17973 -0.882426,-0.12722 -1.11793,0.49221 -0.3128,0.82272 -0.655322,0.94026 -0.400516,0.13743 0.15741,-0.49595 0.09507,-0.53958 -0.577482,-0.40419 -0.414669,0.0835 -1.706443,0.21928 -2.870609,0.30179 -1.164167,0.0825 -2.473855,0.19793 -2.910417,0.25649 -1.776142,0.23823 -9.252025,0.37508 -7.805209,0.14287 0.800365,-0.12846 2.407709,-0.2524 3.571876,-0.27543 3.165622,-0.0626 5.688541,-0.30108 5.688541,-0.53767 0,-0.11549 -0.863203,-0.16201 -1.918229,-0.10336 -4.350654,0.24184 -7.689074,0.29542 -6.945313,0.11148 0.436563,-0.10797 2.103438,-0.21922 3.704167,-0.24723 1.600729,-0.028 3.446198,-0.13155 4.101042,-0.23012 L 53.975,51.83566 V 50.65853 49.4814 l 1.389063,0.0727 c 1.107862,0.0579 1.389062,-0.0101 1.389062,-0.33629 0,-0.23706 -0.352187,-0.50018 -0.837984,-0.62607 l -0.837984,-0.21714 1.306592,-0.95912 c 0.718625,-0.52752 1.633738,-1.10819 2.033583,-1.29037 0.658021,-0.29982 0.796921,-0.26424 1.464099,0.37495 0.876728,0.83996 1.369611,0.90367 1.369611,0.17703 0,-0.41157 0.176389,-0.52916 0.79375,-0.52916 0.662043,0 0.79375,0.10564 0.79375,0.63668 0,0.84299 0.671449,0.67128 2.075916,-0.53089 0.578001,-0.49475 1.12639,-0.89954 1.218642,-0.89954 0.09225,0 0.800648,0.47785 1.574213,1.0619 1.139362,0.86023 1.383885,1.18012 1.287496,1.68435 -0.09623,0.50338 0.01334,0.64773 0.572854,0.75469 0.861948,0.16477 0.91337,0.0781 0.823073,-1.38674 -0.06889,-1.11751 -0.01026,-1.23281 0.985953,-1.939 0.582556,-0.41297 1.132213,-0.64419 1.22146,-0.51383 0.08925,0.13035 0.459925,0.44081 0.823727,0.68991 0.602758,0.41271 0.661458,0.62259 0.661458,2.36504 0,1.7974 0.03572,1.91398 0.595313,1.94303 0.472449,0.0245 0.596148,-0.11182 0.599364,-0.66058 0.0075,-1.28489 0.357255,-1.46002 1.311719,-0.6569 0.809311,0.681 1.009975,0.72523 3.01675,0.66506 1.182377,-0.0355 3.757117,0.1263 5.721647,0.35945 1.96453,0.23316 4.04812,0.4288 4.63021,0.43476 1.62588,0.0166 4.83536,0.68347 5.48726,1.14008 0.73828,0.51711 0.67473,0.51428 -2.40299,-0.10705 -1.40531,-0.28371 -3.44807,-0.59128 -4.53948,-0.68351 -1.09141,-0.0922 -2.28203,-0.21653 -2.64583,-0.27623 -0.36381,-0.0597 -2.25685,-0.1863 -4.20677,-0.28131 -2.635704,-0.12843 -3.497203,-0.0949 -3.357821,0.1306 0.111676,0.1807 1.010279,0.31602 2.222389,0.33466 1.119202,0.0172 2.392092,0.13007 2.828652,0.25077 0.49236,0.13614 -0.14506,0.16869 -1.67868,0.0857 -1.701709,-0.092 -2.418523,-0.0465 -2.29949,0.14611 0.09512,0.1539 0.400307,0.27983 0.678193,0.27983 0.327519,0 0.454584,0.13203 0.361219,0.37533 -0.109423,0.28515 0.226318,0.42443 1.397368,0.57968 0.84777,0.11239 1.34455,0.24766 1.10396,0.3006 -0.24059,0.0529 -1.25263,-0.0154 -2.24896,-0.15191 -3.47773,-0.47641 -2.482322,0.1349 1.15326,0.70825 2.01622,0.31796 4.43614,0.80516 5.37762,1.08265 1.7048,0.50248 1.48998,0.70362 -0.27261,0.25525 z M 55.165625,51.9996 c 0,-0.69109 0.97263,-0.91633 1.143034,-0.26471 0.170979,0.65383 0.610968,0.63749 0.7853,-0.0292 0.115148,-0.44032 0.284355,-0.50018 1.023046,-0.36188 0.486793,0.0911 0.998188,0.26902 1.136433,0.39529 0.432728,0.39527 0.636631,0.25487 0.723259,-0.49801 0.112245,-0.97551 1.27213,-1.23226 1.278396,-0.28298 0.0061,0.92989 0.292792,1.15221 1.451157,1.12546 0.582084,-0.0134 2.159662,-0.0448 3.50573,-0.0696 2.255933,-0.0417 2.447395,-0.0866 2.447395,-0.57439 0,-0.725 0.47224,-0.67086 0.576911,0.0662 0.0648,0.45627 0.285381,0.61467 0.944444,0.67822 0.768064,0.074 0.859896,0.0105 0.859896,-0.59531 0,-0.64405 0.07188,-0.67822 1.426525,-0.67822 1.300967,0 1.441138,0.0582 1.592541,0.66145 0.151966,0.60548 0.289444,0.66146 1.624487,0.66146 1.080145,0 1.499747,-0.10756 1.617591,-0.41466 0.258868,-0.6746 -0.286507,-0.95684 -2.135694,-1.10528 -0.95931,-0.077 -1.7442,-0.24277 -1.7442,-0.36837 0,-0.12559 -0.446485,-0.24741 -0.992188,-0.2707 -0.976869,-0.0417 -0.978912,-0.044 -0.132292,-0.14905 0.472943,-0.0587 0.859896,-0.20956 0.859896,-0.33527 0,-0.1257 -0.361018,-0.18286 -0.802262,-0.12702 -0.466785,0.0591 -0.736853,-0.004 -0.645843,-0.15156 0.08603,-0.1392 0.447048,-0.25309 0.802262,-0.25309 0.972207,0 0.776422,-0.52273 -0.214053,-0.57151 l -0.859895,-0.0423 0.859895,-0.10671 c 0.750703,-0.0932 0.859896,-0.20538 0.859896,-0.8837 0,-0.74545 -0.04874,-0.77699 -1.200639,-0.77699 -1.083878,0 -1.195664,0.0579 -1.149476,0.59531 0.02814,0.32743 0.03265,0.96038 0.01001,1.40657 l -0.04115,0.81126 -3.042708,-0.01 -3.042709,-0.01 V 48.7639 c 0,-0.53905 -0.162048,-0.74709 -0.683959,-0.87808 -1.156025,-0.29014 -1.621317,0.007 -1.483168,0.94877 0.08569,0.58387 0.03094,0.77219 -0.185593,0.63837 -0.168931,-0.10441 -0.289882,-0.32968 -0.268781,-0.50061 0.09635,-0.78047 -0.07395,-0.97223 -0.863394,-0.97223 -0.461485,0 -1.065304,-0.20475 -1.34182,-0.45499 -0.47631,-0.43106 -0.553958,-0.42758 -1.476042,0.0661 -0.738049,0.39519 -1.032524,0.76094 -1.218385,1.51333 -0.241902,0.97923 -0.262132,0.99219 -1.549662,0.99219 -1.080887,0 -1.277025,0.0717 -1.143962,0.41851 0.08833,0.23018 0.160599,0.76596 0.160599,1.19062 0,0.42467 0.119063,0.77212 0.264584,0.77212 0.145521,0 0.264583,-0.22424 0.264583,-0.49831 z m 3.175,-2.3965 c 0,-0.67324 0.349173,-0.86462 1.191694,-0.65316 0.637859,0.16009 0.881948,0.98416 0.263515,0.88965 -0.145521,-0.0222 -0.234818,-0.14759 -0.198438,-0.27856 0.03638,-0.13097 -0.112448,-0.23812 -0.330729,-0.23812 -0.218281,0 -0.396875,0.17859 -0.396875,0.39687 0,0.21828 -0.119063,0.39688 -0.264583,0.39688 -0.145521,0 -0.264584,-0.2311 -0.264584,-0.51356 z m 4.497917,-0.92604 c 0,-0.37239 0.119062,-0.67707 0.264583,-0.67707 0.145521,0 0.264584,0.2311 0.264584,0.51355 0,0.28245 -0.119063,0.58714 -0.264584,0.67707 -0.15006,0.0927 -0.264583,-0.12954 -0.264583,-0.51355 z m 9.475391,-1.1224 c 0.190996,-0.0764 0.419199,-0.067 0.507118,0.0209 0.08792,0.0879 -0.06835,0.15046 -0.347266,0.13897 -0.308224,-0.0127 -0.370919,-0.0754 -0.159852,-0.15986 z m -0.387129,4.27331 c -0.224082,-0.58395 -0.592626,-0.46706 -0.434453,0.13779 0.07568,0.28941 0.237929,0.46419 0.36055,0.3884 0.122621,-0.0758 0.155877,-0.31257 0.0739,-0.52619 z m 1.580826,0.0343 c 0.178412,-0.46493 -0.03482,-0.68732 -0.659018,-0.68732 -0.308681,0 -0.48507,0.19242 -0.48507,0.52917 0,0.61633 0.919491,0.74344 1.144088,0.15815 z m -12.539768,-0.092 c -0.01023,-0.10914 -0.120922,-0.43656 -0.245987,-0.7276 -0.201496,-0.46891 -0.229508,-0.44631 -0.245987,0.19843 -0.01023,0.40019 0.100466,0.72761 0.245987,0.72761 0.145521,0 0.256215,-0.0893 0.245987,-0.19844 z m 18.142555,-0.33073 c -0.722677,-0.31054 -0.926041,-0.31054 -0.926041,0 0,0.14552 0.327422,0.25622 0.727604,0.24599 0.644748,-0.0165 0.667345,-0.0445 0.198437,-0.24599 z m -2.513541,-1.35122 c 0,-0.16286 0.192806,-0.21891 0.434298,-0.12624 0.363134,0.13935 0.379503,0.10063 0.0999,-0.23627 -0.368668,-0.44422 -0.927174,-0.56016 -0.666485,-0.13835 0.08994,0.14552 0.03743,0.26458 -0.116677,0.26458 -0.154109,0 -0.280198,0.11906 -0.280198,0.26459 0,0.14552 0.119063,0.26458 0.264583,0.26458 0.145521,0 0.264584,-0.1318 0.264584,-0.29289 z m -9.85573,-1.74158 c -0.254661,-0.0665 -0.67138,-0.0665 -0.926041,0 -0.254662,0.0666 -0.0463,0.121 0.46302,0.121 0.509323,0 0.717683,-0.0544 0.463021,-0.121 z m 1.317405,0.0225 c -0.08792,-0.0879 -0.316122,-0.0973 -0.507118,-0.0209 -0.211067,0.0845 -0.148372,0.14716 0.159852,0.15986 0.278915,0.0115 0.435185,-0.0511 0.347266,-0.13897 z M 57.82251,47.29975 c 0.581921,-0.3851 0.996817,-0.7614 0.921991,-0.83622 -0.07483,-0.0748 -0.354513,0.0617 -0.621525,0.3033 -0.267012,0.24164 -0.610351,0.43935 -0.762975,0.43935 -0.152624,0 -0.425719,0.17859 -0.606876,0.39687 -0.488209,0.58826 -0.120074,0.48385 1.069385,-0.3033 z m 10.43999,0.4356 c -0.08994,-0.14553 -0.818365,-0.26459 -1.618729,-0.26459 -0.902765,0 -1.393131,0.10045 -1.291687,0.26459 0.08994,0.14552 0.818365,0.26458 1.61873,0.26458 0.902764,0 1.39313,-0.10045 1.291686,-0.26458 z M 62.441667,46.9416 c -0.08994,-0.14553 -0.275557,-0.26459 -0.41249,-0.26459 -0.136933,0 -0.248968,0.11906 -0.248968,0.26459 0,0.14552 0.18562,0.26458 0.41249,0.26458 0.226869,0 0.338905,-0.11906 0.248968,-0.26458 z m 4.894792,0.003 c 0,-0.0772 -0.25106,-0.29711 -0.557911,-0.48874 -0.442335,-0.27624 -0.715692,-0.28307 -1.319554,-0.0329 -0.418904,0.17352 -0.71496,0.39096 -0.657902,0.48322 0.124956,0.20203 2.535367,0.2386 2.535367,0.0385 z m 5.55625,-0.78116 c 0,-0.40083 -0.492595,-0.59205 -1.060701,-0.41174 -0.796116,0.25268 -0.631257,0.66071 0.266951,0.66071 0.436562,0 0.79375,-0.11204 0.79375,-0.24897 z m -28.045834,7.92188 -1.719792,-0.17324 1.719792,-0.0144 c 0.945885,-0.008 2.076979,0.0765 2.513541,0.18761 l 0.793751,0.20198 -0.793751,-0.0144 c -0.436562,-0.008 -1.567656,-0.0923 -2.513541,-0.18762 z m 7.672917,0 c 0,-0.14552 0.119062,-0.26458 0.264583,-0.26458 0.145521,0 0.264583,0.11906 0.264583,0.26458 0,0.14553 -0.119062,0.26459 -0.264583,0.26459 -0.145521,0 -0.264583,-0.11906 -0.264583,-0.26459 z m 34.726565,-0.56059 c -0.47294,-0.13656 -0.8599,-0.31789 -0.8599,-0.40297 0,-0.24123 2.55865,0.0935 3.09363,0.40469 0.39809,0.23157 0.32303,0.27555 -0.44779,0.26238 -0.50933,-0.009 -1.313,-0.12754 -1.78594,-0.2641 z M 59.398959,53.29157 c 0,-0.33699 1.066036,-0.33699 1.5875,0 0.295209,0.19078 0.142711,0.25752 -0.595313,0.26054 -0.545703,0.002 -0.992187,-0.11501 -0.992187,-0.26054 z m 30.294788,-0.27699 c -1.30968,-0.27115 -3.68838,-0.69763 -5.28599,-0.94774 -1.5976,-0.25011 -2.75059,-0.50613 -2.56219,-0.56893 0.3988,-0.13293 3.82086,0.33317 6.61473,0.90096 1.06784,0.21702 2.25847,0.43717 2.64583,0.48923 0.38736,0.0521 1.00195,0.21612 1.36575,0.36459 1.04014,0.42446 -0.0143,0.33409 -2.77813,-0.23811 z m -5.68854,-0.25217 c -0.60132,-0.19258 -0.57726,-0.21254 0.26459,-0.21962 0.50932,-0.004 1.16416,0.0945 1.4552,0.21962 0.44932,0.19308 0.4094,0.22622 -0.26458,0.21961 -0.43656,-0.004 -1.09141,-0.1031 -1.45521,-0.21961 z m 8.90058,-0.29071 c -1.84955,-0.49278 -4.38508,-0.92424 -7.11464,-1.21065 -0.83674,-0.0878 -1.52135,-0.26216 -1.52135,-0.38747 0,-0.3948 1.35473,-0.22635 7.14375,0.88824 1.52797,0.29419 3.11761,0.59542 3.53253,0.66941 0.54537,0.0973 0.65534,0.1973 0.39688,0.36109 -0.19665,0.12461 -0.41707,0.21226 -0.48983,0.19477 -0.0728,-0.0175 -0.94906,-0.24942 -1.94734,-0.51539 z m -12.07558,-1.03221 c 0,-0.14552 0.11907,-0.26458 0.26459,-0.26458 0.14552,0 0.26458,0.11906 0.26458,0.26458 0,0.14552 -0.11906,0.26459 -0.26458,0.26459 -0.14552,0 -0.26459,-0.11907 -0.26459,-0.26459 z"
       id="path4" />
  </g>
</svg>
