<?xml version="1.0" encoding="UTF-8" standalone="no"?>
<!-- Created with Inkscape (http://www.inkscape.org/) -->

<svg
   width="49.828518mm"
   height="15.125175mm"
   viewBox="0 0 49.828518 15.125175"
   version="1.1"
   id="svg1"
   inkscape:version="1.4.2 (2aeb623e1d, 2025-05-12)"
   sodipodi:docname="city2.svg"
   xmlns:inkscape="http://www.inkscape.org/namespaces/inkscape"
   xmlns:sodipodi="http://sodipodi.sourceforge.net/DTD/sodipodi-0.dtd"
   xmlns="http://www.w3.org/2000/svg"
   xmlns:svg="http://www.w3.org/2000/svg">
  <sodipodi:namedview
     id="namedview1"
     pagecolor="#ffffff"
     bordercolor="#000000"
     borderopacity="0.25"
     inkscape:showpageshadow="2"
     inkscape:pageopacity="0.0"
     inkscape:pagecheckerboard="0"
     inkscape:deskcolor="#d1d1d1"
     inkscape:document-units="mm"
     inkscape:zoom="4.157526"
     inkscape:cx="74.563575"
     inkscape:cy="100.66083"
     inkscape:window-width="1854"
     inkscape:window-height="1011"
     inkscape:window-x="0"
     inkscape:window-y="0"
     inkscape:window-maximized="1"
     inkscape:current-layer="layer1" />
  <defs
     id="defs1" />
  <g
     inkscape:label="Layer 1"
     inkscape:groupmode="layer"
     id="layer1"
     transform="translate(-24.857083,-31.80208)">
    <path
       style="fill:#000000"
       d="m 29.874251,46.67559 c -0.52843,-0.21209 -1.68791,-0.27485 -3.98438,-0.21565 -0.34204,0.009 -0.74243,-0.10451 -0.88976,-0.25183 -0.33528,-0.33529 -0.0434,-0.84314 0.48455,-0.84314 0.21829,0 0.31786,0.12785 0.22129,0.28412 -0.0966,0.15626 0.0735,0.12856 0.3779,-0.0616 l 0.55349,-0.34566 -0.59195,-0.24227 c -0.52144,-0.21341 -0.43437,-0.27699 0.73096,-0.53376 0.72761,-0.16033 1.4713,-0.38755 1.65265,-0.50494 0.18136,-0.11739 0.58932,-0.26343 0.9066,-0.32453 0.31727,-0.0611 0.64514,-0.21577 0.7286,-0.34371 0.0834,-0.12794 0.60486,-0.31597 1.15868,-0.41783 0.55382,-0.10187 1.23843,-0.4167 1.52135,-0.69963 0.46004,-0.46003 0.88498,-0.51228 4.02014,-0.49428 2.38799,0.0137 3.80098,0.14063 4.43177,0.39807 l 0.92604,0.37794 -1.05833,-0.1627 c -1.45171,-0.22317 -5.90893,-0.14677 -6.87917,0.11792 -0.62386,0.17019 -0.26177,0.25138 1.69186,0.37934 1.39119,0.0911 2.61441,0.30287 2.77813,0.48091 0.21632,0.23525 0.20866,0.27089 -0.0294,0.13683 -0.17707,-0.0997 -1.6975,-0.18129 -3.37875,-0.18129 -3.77633,0 -4.88421,0.40978 -1.65291,0.61138 1.2353,0.0771 2.46895,0.27884 2.74145,0.4484 0.38833,0.24162 -0.13386,0.27956 -2.41495,0.17548 -1.82177,-0.0831 -2.58375,-0.0497 -2.03709,0.0892 1.26388,0.32132 1.42716,0.65143 0.21353,0.43171 -0.5664,-0.10254 -1.93562,-0.0961 -3.04271,0.0143 -1.73691,0.17319 -1.88593,0.22556 -1.08685,0.38197 0.50932,0.0997 1.32939,0.26066 1.82237,0.3577 1.09435,0.21542 1.88179,0.61677 1.88179,0.95912 0,0.3161 -0.98502,0.30425 -1.79689,-0.0216 z m 1.19607,-3.05797 c -0.0879,-0.0879 -0.31612,-0.0973 -0.50712,-0.0209 -0.21107,0.0845 -0.14837,0.14716 0.15985,0.15985 0.27892,0.0115 0.43519,-0.051 0.34727,-0.13896 z m 30.44148,0.54357 c -0.08,-0.08 -0.96304,-0.19358 -1.96232,-0.25239 -2.80381,-0.16502 -4.33042,-0.41883 -4.33042,-0.71994 0,-0.16658 0.36927,-0.21445 0.93987,-0.12186 0.68596,0.11132 0.98003,0.0478 1.08855,-0.23494 0.21536,-0.56121 6.59269,-0.5165 8.37362,0.0587 0.70065,0.2263 1.22502,0.46034 1.16526,0.52009 -0.0597,0.0598 -1.28785,-0.0135 -2.72912,-0.16291 -3.44867,-0.35737 -6.1924,-0.44514 -6.19237,-0.19808 10e-6,0.10914 0.50604,0.20726 1.1245,0.21806 0.97497,0.017 3.72687,0.96621 2.95452,1.01909 -0.15765,0.0108 -0.35209,-0.0458 -0.43209,-0.12583 z m 7.97029,-1.55472 c -0.062,-0.062 -0.86398,-0.17866 -1.78225,-0.25933 -0.91828,-0.0807 -2.10781,-0.26004 -2.64342,-0.39862 -0.5356,-0.13857 -2.22397,-0.24842 -3.75194,-0.2441 -1.52797,0.004 -2.99228,-0.0782 -3.25403,-0.18342 -0.26174,-0.1052 -1.45237,-0.11331 -2.64583,-0.018 -1.19347,0.0953 -3.00337,0.1599 -4.02202,0.14359 -3.06187,-0.049 -6.82026,-0.21612 -7.80521,-0.34697 -1.54791,-0.20564 -5.05869,-0.21764 -6.87916,-0.0235 -2.62849,0.28029 -1.77109,-0.0753 1.33686,-0.55437 2.8551,-0.44014 7.75571,-0.35809 9.56254,0.1601 0.94064,0.26977 1.26088,0.13343 0.79077,-0.33668 -0.36263,-0.36262 -0.257481,-3.517023 0.101709,-3.295033 0.22278,0.13769 0.538711,2.974373 0.428281,3.418513 -0.0713,0.28673 3.66064,0.37724 7.52685,0.18254 1.30492,-0.0657 1.6071,-0.16293 1.5416,-0.49594 -0.0448,-0.22781 -0.0906,-0.74163 -0.10171,-1.14181 -0.0152,-0.54447 -0.15344,-0.72761 -0.54941,-0.72761 -0.29105,0 -0.52917,0.12752 -0.52917,0.28337 0,0.18673 -0.81225,0.2544 -2.38186,0.19843 -2.12458,-0.0757 -2.38179,-0.0349 -2.38125,0.3781 3.4e-4,0.25466 -0.13119,0.46302 -0.29228,0.46302 -0.17493,0 -0.21637,-0.18648 -0.1029,-0.46302 0.43907,-1.07005 0.304,-1.25609 -0.92713,-1.27689 -0.87444,-0.0148 -1.21252,-0.1335 -1.27309,-0.44703 -0.0453,-0.23479 -0.37648,-0.46386 -0.73583,-0.50904 -0.35935,-0.0452 -0.65364,0.02379 -0.61274,-0.12173 0.0409,-0.14552 0.24142,-0.3214 0.36309,-0.28084 0.21167,-0.15065 0.25064,-0.3028 0.32784,-0.59802 0.20324,-0.7772 0.45959,-0.66281 0.8724,0.38928 0.38512,0.98152 1.35064,1.33137 1.27788,0.46302 -0.0888,-1.05983 0.0426,-1.37329 0.50806,-1.21149 0.25466,0.0885 0.58924,0.31476 0.74352,0.50274 0.15427,0.18798 0.80912,0.39157 1.45521,0.45244 1.09208,0.10288 1.17528,0.16463 1.18283,0.87802 0.007,0.67334 0.11556,0.77774 0.88502,0.85214 0.8559,0.0828 0.87253,0.065 0.69527,-0.74208 -0.18081,-0.82323 -0.17715,-0.8265 0.83478,-0.74624 l 1.01639,0.0806 0.0794,-1.52136 c 0.063,-1.20727 0.1555,-1.61135 -0.15762,-1.61135 -0.49193,0 -0.988026,0.09322 0.29238,-1.13176 l 1.00768,-0.96406 0.78835,0.75529 c 0.671175,0.643029 1.502086,1.316023 0.733675,1.22372 -0.386632,-0.04644 -0.09666,0.549268 -0.116055,1.2642 -0.03909,1.440817 -0.0825,1.891 0.34171,2.65272 0.29347,0.52692 0.75779,0.95623 1.08659,1.00464 0.49355,0.0727 0.57415,-0.0423 0.57415,-0.81888 0,-0.56899 0.19692,-1.08165 0.53194,-1.38484 0.51646,-0.46739 0.55116,-0.46334 1.19255,0.13922 0.64692,0.60775 0.66844,0.61002 1.03791,0.10966 0.36303,-0.49165 0.41758,-0.47179 1.44349,0.52537 0.97898,0.95156 1.02912,1.0658 0.61296,1.39667 -0.39259,0.31214 -0.24083,0.34676 1.13427,0.25878 1.64839,-0.10546 5.35893,0.48621 5.82084,0.92816 0.26712,0.25559 -2.22336,0.13161 -5.6224,-0.2799 -1.29244,-0.15647 -1.65365,-0.12412 -1.65365,0.14811 0,0.25537 0.54715,0.35668 2.05052,0.37965 1.12779,0.0172 2.11006,0.0274 2.18282,0.0225 0.0728,-0.005 0.78713,0.15941 1.5875,0.365 l 1.45521,0.3738 -1.85209,-0.14796 c -1.01864,-0.0814 -2.65575,-0.21053 -3.63802,-0.28702 -1.04618,-0.0815 -1.78594,-0.0352 -1.78594,0.11165 0,0.27526 2.09047,0.58309 3.98433,0.5867 0.68686,10e-4 1.42733,0.17837 1.71979,0.41123 0.48079,0.38281 0.446,0.40041 -0.54474,0.27547 -2.6464,-0.33372 -5.54181,-0.44043 -5.17661,-0.19078 0.2088,0.14274 1.04999,0.33733 1.86932,0.43242 1.82689,0.21203 2.69639,0.65144 1.30086,0.65741 -0.52144,0.002 -0.99879,-0.0466 -1.06075,-0.10862 z m -3.83404,-2.7757 c -0.21115,-1.59173 -0.49877,-1.55681 -0.45609,0.0554 0.0265,1.00156 10e-4,0.96062 -0.25204,-0.40815 -0.15483,-0.83674 -0.36479,-1.52135 -0.46658,-1.52135 -0.10179,0 -0.14738,0.26789 -0.10131,0.59531 0.31134,2.21297 0.4191,2.55086 0.84371,2.64555 0.63575,0.14177 0.6334,0.14917 0.43231,-1.36673 z m 1.05493,1.10243 c 0.19101,-0.62067 -0.0641,-2.5105 -0.38179,-2.82818 -0.16256,-0.16257 -0.25421,0.38488 -0.25421,1.51849 0,1.67239 0.32097,2.33336 0.636,1.30969 z m -6.87735,-0.46302 c -0.1023,-0.40757 -0.0534,-0.66146 0.12725,-0.66146 0.16129,0 0.29326,0.2311 0.29326,0.51355 0,0.28246 0.1282,0.59278 0.28488,0.68962 0.18441,0.11397 0.25439,-0.0905 0.19844,-0.5797 -0.0628,-0.54925 -0.24911,-0.77886 -0.68175,-0.84031 -0.50643,-0.0719 -0.59532,0.0367 -0.59532,0.72761 0,0.44668 0.12133,0.81215 0.26963,0.81215 0.15548,0 0.19934,-0.28002 0.10361,-0.66146 z m 1.74343,-0.13229 c 0,-0.43656 -0.11906,-0.79375 -0.26458,-0.79375 -0.14552,0 -0.26459,0.35719 -0.26459,0.79375 0,0.43656 0.11907,0.79375 0.26459,0.79375 0.14552,0 0.26458,-0.35719 0.26458,-0.79375 z m 1.09436,0.19844 0.036,-0.59532 0.11466,0.59532 c 0.16449,0.85399 0.65847,0.73697 0.55845,-0.1323 -0.0669,-0.58118 -0.23746,-0.74515 -0.84772,-0.81483 -0.62099,-0.0709 -0.73243,-0.005 -0.59531,0.35237 0.0928,0.24178 0.16869,0.60845 0.16869,0.81483 0,0.62478 0.52647,0.41978 0.56519,-0.22007 z m 1.55147,-0.18283 c 0,-0.42797 -0.11906,-0.85172 -0.26458,-0.94165 -0.15746,-0.0973 -0.26458,0.21773 -0.26458,0.77813 0,0.51791 0.11906,0.94166 0.26458,0.94166 0.14552,0 0.26458,-0.35016 0.26458,-0.77814 z m -5.3426,-0.59036 c -0.0447,-0.60715 -0.2013,-1.14323 -0.3479,-1.19128 -0.16144,-0.0529 -0.22918,0.38237 -0.17179,1.10392 0.0521,0.6552 0.20866,1.19127 0.3479,1.19127 0.13923,0 0.21654,-0.49676 0.17179,-1.10391 z m 0.73578,-1.47443 c -0.28903,-0.28903 -0.48722,0.17062 -0.27971,0.6487 0.19677,0.45333 0.21103,0.45292 0.32066,-0.009 0.0631,-0.26605 0.0447,-0.55379 -0.041,-0.63941 z m 0.90266,0.19709 c 0,-0.14552 -0.11907,-0.26458 -0.26459,-0.26458 -0.14552,0 -0.26458,0.11906 -0.26458,0.26458 0,0.14553 0.11906,0.26459 0.26458,0.26459 0.14552,0 0.26459,-0.11906 0.26459,-0.26459 z m 3.39184,-0.31 c -0.0465,-0.31602 -0.21777,-0.6184 -0.3806,-0.67195 -0.18682,-0.0614 -0.24865,0.15054 -0.16759,0.57459 0.15611,0.81662 0.66738,0.90742 0.54819,0.0974 z m -9.53176,-0.43903 c -0.11333,-0.58849 -1.62851,-0.58925 -1.74245,-8.8e-4 -0.0496,0.25615 0.11489,0.48349 0.39278,0.54287 0.78042,0.16674 1.4355,-0.0963 1.34967,-0.54199 z m 6.25706,-0.0692 c -0.0816,-0.13204 -0.31166,-0.24007 -0.51123,-0.24007 -0.19957,0 -0.41446,-0.26789 -0.47752,-0.59531 -0.0961,-0.49913 -0.12049,-0.47506 -0.1507,0.14892 -0.0261,0.53886 -0.1638,0.73124 -0.49905,0.69714 -0.25466,-0.0259 -0.82021,-0.025 -1.25677,0.002 -0.57214,0.0354 -0.66805,0.0993 -0.34351,0.22891 0.63829,0.25495 3.41753,0.0477 3.23878,-0.24155 z m -8.75271,-0.63694 c -0.0838,-0.21829 -0.25862,-0.39688 -0.38857,-0.39688 -0.12996,0 -0.23628,0.17859 -0.23628,0.39688 0,0.21828 0.17486,0.39687 0.38857,0.39687 0.2367,0 0.32905,-0.15512 0.23628,-0.39687 z m 7.2853,-1.52136 c -0.0266,-1.60979 -0.0344,-1.6272 -0.29203,-0.65653 -0.24008,0.90441 -0.12316,2.31018 0.19213,2.31018 0.07,0 0.11494,-0.74414 0.0999,-1.65365 z m 0.63472,-0.52916 c 0.0848,-0.54962 0.0425,-0.99219 -0.0948,-0.99219 -0.13637,0 -0.24795,0.49609 -0.24795,1.10243 0,1.30567 0.13079,1.26361 0.34279,-0.11024 z m -9.55162,4.16718 c 0.005,-0.43656 0.11243,-0.59903 0.1795,-0.3416 0.0671,0.25743 0.04679,0.487341 -0.05773,0.80966 -0.0725,0.17913 -0.12737,-0.0315 -0.12197,-0.46806 z"
       id="path11"
       sodipodi:nodetypes="cccscccsssscscsscsscscsccccscssscccccccsssscsccscsssccsccscsccsssscscsscssscccscssscssccsccssscsssccssssssssssccscccscsssscccsscscsssssssssssccssssssssccscscsccssssscsssccscccsssssscssssscscscsscccccssscccsccssccccccc" />
  </g>
</svg>
