<?xml version="1.0" encoding="UTF-8" standalone="no"?>
<!-- Created with Inkscape (http://www.inkscape.org/) -->

<svg
   width="63.592667mm"
   height="13.548428mm"
   viewBox="0 0 63.592667 13.548428"
   version="1.1"
   id="svg1"
   inkscape:version="1.4.2 (2aeb623e1d, 2025-05-12)"
   sodipodi:docname="city5.svg"
   xmlns:inkscape="http://www.inkscape.org/namespaces/inkscape"
   xmlns:sodipodi="http://sodipodi.sourceforge.net/DTD/sodipodi-0.dtd"
   xmlns="http://www.w3.org/2000/svg"
   xmlns:svg="http://www.w3.org/2000/svg">
  <sodipodi:namedview
     id="namedview1"
     pagecolor="#ffffff"
     bordercolor="#000000"
     borderopacity="0.25"
     inkscape:showpageshadow="2"
     inkscape:pageopacity="0.0"
     inkscape:pagecheckerboard="0"
     inkscape:deskcolor="#d1d1d1"
     inkscape:document-units="mm"
     inkscape:zoom="0.7349537"
     inkscape:cx="297.97795"
     inkscape:cy="295.93701"
     inkscape:window-width="1854"
     inkscape:window-height="1011"
     inkscape:window-x="0"
     inkscape:window-y="0"
     inkscape:window-maximized="1"
     inkscape:current-layer="layer1" />
  <defs
     id="defs1" />
  <g
     inkscape:label="Layer 1"
     inkscape:groupmode="layer"
     id="layer1"
     transform="translate(-26.19375,-70.379168)">
    <path
       style="fill:#000000"
       d="m 37.04167,83.625729 c -0.50932,-0.186636 -0.80698,-0.350635 -0.66146,-0.364442 2.36228,-0.224127 3.58725,-0.217989 4.31326,0.02161 0.48486,0.16002 0.8089,0.363612 0.72009,0.452429 -0.30721,0.307202 -3.44942,0.228429 -4.37189,-0.109601 z m 3.22485,-0.840101 c -1.32913,-0.272145 -1.84911,-0.481512 -1.66159,-0.669032 0.2746,-0.274604 1.3659,-0.03476 3.46382,0.761281 1.15786,0.43934 0.67273,0.414508 -1.80223,-0.09225 z m -5.57066,-0.08643 c -1.22159,-0.249841 -1.28576,-0.441009 -0.21545,-0.6418 0.98419,-0.184635 2.46397,0.03391 2.68839,0.397036 0.18396,0.297653 -1.43221,0.457616 -2.47294,0.244764 z m -4.50217,-1.534464 c -0.9625,-0.609592 2.29379,-0.656472 3.33868,-0.04807 0.35389,0.206061 0.0512,0.272649 -1.2532,0.275679 -0.94589,0.0022 -1.88435,-0.100229 -2.08548,-0.227613 z m 45.60943,-0.708707 c -1.4552,-0.19698 -4.402,-0.376289 -6.54843,-0.398464 -2.14643,-0.02217 -3.90261,-0.13942 -3.90261,-0.260544 0,-0.61147 12.29283,0.128802 13.4599,0.810552 0.54745,0.319799 0.42926,0.313847 -3.00886,-0.151544 z m -47.74411,-0.06143 c -0.24477,-0.08159 -0.15707,-0.236516 0.2775,-0.490221 0.5849,-0.341468 0.52503,-0.3577 -0.7537,-0.204355 -0.76398,0.09162 -1.38906,0.06533 -1.38906,-0.05842 0,-0.383983 2.16958,-0.963679 3.88075,-1.036909 0.89981,-0.03851 1.90864,-0.250445 2.24896,-0.472468 1.53112,-0.998892 2.96254,-1.074161 15.76456,-0.828954 l 8.53281,0.163435 v -1.456891 -1.456891 l 1.38907,-0.07997 c 1.35458,-0.07799 1.39112,-0.101316 1.47197,-0.939868 0.0703,-0.728666 0.19139,-0.863664 0.79375,-0.884581 3.12542,-0.108536 3.0874,-0.09835 3.17581,-0.850533 0.0782,-0.665758 0.16898,-0.712282 1.38906,-0.712282 1.12895,0 1.30534,0.0715 1.30534,0.529166 0,0.352778 0.17639,0.529167 0.52917,0.529167 0.40466,0 0.52917,-0.176389 0.52917,-0.749653 0,-0.421994 0.14455,-0.75075 0.33073,-0.752163 0.1819,-0.0014 0.59862,-0.08878 0.92604,-0.194219 0.36528,-0.11763 0.59531,-0.08258 0.59531,0.0907 0,0.158412 0.52389,0.282413 1.19315,0.282413 h 1.19315 l -0.10406,1.24914 c -0.0572,0.687027 -0.0459,1.400718 0.0252,1.58598 0.18756,0.488766 0.57174,0.158794 0.45173,-0.387987 -0.061,-0.278089 0.20482,-0.701714 0.6662,-1.061553 0.65973,-0.514533 0.86368,-0.555097 1.44933,-0.28826 0.54421,0.24796 0.68372,0.501915 0.6923,1.260254 l 0.0108,0.949718 0.71782,-0.837977 0.71782,-0.837978 0.72663,0.529317 c 0.63752,0.464399 0.72664,0.475802 0.72664,0.09298 0,-0.239986 -0.12326,-0.666635 -0.2739,-0.94811 -0.25858,-0.48316 -0.17106,-0.511773 1.56527,-0.511773 1.8296,0 1.84352,0.0055 2.67738,1.058334 l 0.83821,1.058333 h -0.68369 c -0.43134,0 -0.68369,0.146489 -0.68369,0.396875 0,0.321918 0.46223,0.402787 2.4474,0.428179 1.34606,0.01722 2.80458,0.128995 3.24114,0.248394 0.54767,0.149787 0.076,0.201602 -1.52139,0.167134 -1.27333,-0.02748 -2.31513,0.03934 -2.31511,0.148481 3e-5,0.10914 1.04184,0.201559 2.31515,0.205375 1.76005,0.0053 2.56884,0.132085 3.37343,0.528922 l 1.05834,0.521984 -0.92604,-0.129424 c -0.50933,-0.07118 -1.2237,-0.179258 -1.5875,-0.240166 -0.36381,-0.06091 -2.06045,-0.196449 -3.77032,-0.301202 L 80.16879,75.515609 V 74.35898 c 0,-1.057348 -0.0568,-1.156629 -0.66146,-1.156629 -0.57636,0 -0.66146,0.116184 -0.66146,0.903083 v 0.903082 l -2.24896,0.0063 c -2.33631,0.0065 -2.35785,-0.0052 -2.25835,-1.224398 0.0441,-0.540524 -0.0392,-0.587029 -0.80834,-0.451516 -1.12652,0.198464 -1.29893,0.323558 -1.29893,0.94247 0,0.397822 -0.13864,0.489975 -0.59531,0.395706 -0.32742,-0.06759 -1.19063,-0.197492 -1.91823,-0.288676 -0.72761,-0.09118 -1.70066,-0.222627 -2.16235,-0.292097 -0.56772,-0.08542 -0.91029,-1.31e-4 -1.05834,0.263498 -0.14269,0.254098 -0.77157,0.426509 -1.80639,0.495232 -1.5693,0.104218 -1.59079,0.09611 -1.8742,-0.707467 -0.25018,-0.709344 -0.42757,-0.823279 -1.3926,-0.894425 -1.04455,-0.07701 -1.11483,-0.03691 -1.26676,0.72275 -0.14633,0.731663 -0.2774,0.819742 -1.45167,0.975514 -1.19527,0.158558 -1.29082,0.225863 -1.29082,0.909257 0,0.405913 -0.0759,0.935844 -0.16869,1.177625 -0.13711,0.357314 -0.0257,0.423272 0.59532,0.352369 0.64988,-0.0742 0.77656,-0.218067 0.84811,-0.963177 0.07,-0.729335 0.18073,-0.862187 0.66145,-0.79375 0.43654,0.06215 0.59758,0.291915 0.66026,0.94209 0.10899,1.13029 0.57855,1.112395 0.57855,-0.02205 0,-1.080486 0.18678,-1.294983 0.82854,-0.951521 0.31212,0.167043 0.49438,0.553773 0.49438,1.049025 0,0.608052 0.11899,0.784441 0.52917,0.784441 0.35277,0 0.52916,-0.176389 0.52916,-0.529167 0,-0.685344 0.42661,-0.685344 0.60583,0 0.1948,0.744907 1.17735,0.695824 1.32411,-0.06615 l 0.11467,-0.595312 0.036,0.595312 c 0.0562,0.928692 1.24575,0.822398 1.48047,-0.132291 0.34461,-1.401619 0.87027,-1.919244 1.9351,-1.905521 1.50428,0.01939 2.79254,0.758356 3.09132,1.773229 0.24245,0.823542 0.31236,0.861294 1.65365,0.892969 0.77027,0.01819 1.60885,0.04747 1.86351,0.06507 0.32083,0.02217 0.46478,-0.164618 0.46876,-0.60825 0.009,-1.021001 0.64938,-0.997952 0.69536,0.02503 0.036,0.800503 0.0498,0.814756 0.14987,0.154341 0.13772,-0.909139 0.60424,-0.960208 0.60424,-0.06615 0,0.593011 0.10728,0.661458 1.03669,0.661458 0.57018,0 1.21777,0.06948 1.43907,0.154407 0.29806,0.114375 0.4485,-0.09141 0.58026,-0.79375 0.17727,-0.944967 0.18245,-0.948094 1.53749,-0.929561 0.74779,0.01023 1.59774,0.129228 1.88878,0.264445 0.37117,0.172442 -0.004,0.222395 -1.25677,0.167302 -1.21254,-0.05333 -1.78594,0.01889 -1.78594,0.22495 0,0.196353 0.92821,0.364325 2.62924,0.475801 2.4595,0.16118 4.2305,0.544033 3.92585,0.848684 -0.0731,0.07309 -0.95281,0.01704 -1.95493,-0.12456 -3.14129,-0.443856 -4.62807,-0.50422 -4.523,-0.183637 0.0547,0.166771 1.25447,0.393735 2.78753,0.527312 1.48036,0.128985 2.69156,0.337344 2.69156,0.463021 0,0.283802 -0.43878,0.277405 -2.77812,-0.0405 -4.71969,-0.641381 -14.67199,-0.777886 -34.13125,-0.468139 -4.07458,0.06486 -7.51972,0.05797 -7.65586,-0.0153 -0.13614,-0.07327 -0.91004,-0.09373 -1.71979,-0.04546 -0.80975,0.04827 -2.00805,0.10724 -2.66289,0.131049 -2.2323,0.08116 -2.37326,0.11522 -2.21235,0.534553 0.1292,0.336681 -0.30345,0.404607 -2.85257,0.447855 -1.77224,0.03007 -2.2994,0.08496 -1.28508,0.133821 0.94588,0.04556 2.01745,0.155327 2.38125,0.24392 0.61864,0.150651 0.6272,0.174349 0.13229,0.36606 -0.29104,0.11274 -0.82682,0.151014 -1.19063,0.08505 -0.3638,-0.06596 -1.32211,-0.01503 -2.12958,0.113175 -0.80746,0.128206 -1.62916,0.179422 -1.82599,0.113813 z m 33.23497,-3.818802 c -0.0734,-0.181901 -0.13345,-0.03307 -0.13345,0.330729 0,0.363802 0.06,0.51263 0.13345,0.330729 0.0734,-0.181901 0.0734,-0.479557 0,-0.661458 z m 6.13702,0.195926 c 0.052,-0.268305 0.34966,-0.700962 0.66146,-0.96146 0.41581,-0.347393 0.46113,-0.474898 0.17004,-0.478383 -0.66022,-0.0079 -1.05528,0.376874 -1.31432,1.280092 -0.18315,0.638605 -0.16495,0.831772 0.071,0.753222 0.17451,-0.0581 0.35984,-0.325166 0.41184,-0.593471 z m 2.55129,0.404249 c -0.7276,-0.103959 -1.56104,-0.0956 -1.85208,0.01858 -0.32888,0.129024 0.17182,0.200565 1.32291,0.189017 1.82702,-0.01833 1.83418,-0.02114 0.52917,-0.207597 z m -10.2904,-0.394079 c -0.0958,-0.652473 -0.42522,-0.795071 -0.42522,-0.184047 0,0.315295 0.10852,0.573263 0.24117,0.573263 0.13264,0 0.21546,-0.175147 0.18405,-0.389216 z m 11.21644,-0.09467 c 0,-0.120618 -0.68461,-0.225456 -1.52135,-0.232973 l -1.52136,-0.01367 1.19063,0.193234 c 1.77903,0.28873 1.85208,0.290837 1.85208,0.05341 z m -0.59531,-0.756828 c -0.25466,-0.06655 -0.67138,-0.06655 -0.92604,0 -0.25466,0.06655 -0.0463,0.121 0.46302,0.121 0.50932,0 0.71768,-0.05445 0.46302,-0.121 z m 12.11571,-0.893776 c 0.0839,-0.135716 -0.27125,-0.246757 -0.78916,-0.246757 -0.51791,0 -0.94165,0.100944 -0.94165,0.224319 0,0.308352 1.54175,0.328339 1.73081,0.02244 z M 64.50801,73.131436 c -0.0665,-0.478876 0.0306,-0.574883 0.51334,-0.507757 0.45173,0.06281 0.59532,-0.04887 0.59532,-0.463021 0,-0.430053 -0.16833,-0.545798 -0.79375,-0.545798 -0.60241,0 -0.79375,0.120738 -0.79375,0.50086 0,0.275472 -0.1786,0.569392 -0.39688,0.653154 -0.56236,0.215797 -0.51061,1.428985 0.0662,1.55086 0.56698,0.119809 0.91935,-0.397396 0.80957,-1.188298 z m 2.13347,0.600091 c 0.25127,0 0.59973,-0.142875 0.77435,-0.3175 0.24695,-0.246944 0.3175,-0.246944 0.3175,0 0,0.174625 0.1228,0.3175 0.27287,0.3175 0.15008,0 0.2451,-0.412511 0.21114,-0.916691 -0.034,-0.50418 0.0219,-1.000274 0.124,-1.102431 0.10216,-0.102156 0.18574,0.310355 0.18574,0.916691 0,0.759007 0.11333,1.102431 0.36381,1.102431 0.20009,0 0.73827,0.07489 1.19596,0.166432 L 70.919,74.06439 70.8363,72.773479 c -0.0802,-1.251136 -0.11002,-1.293549 -0.96798,-1.37655 -1.34311,-0.129936 -2.08728,0.143197 -2.18274,0.801133 -0.0681,0.469355 -0.2632,0.584762 -1.00566,0.594876 -0.97587,0.01329 -1.30348,0.522141 -0.91234,1.417065 0.18158,0.415464 0.20356,0.414356 0.30636,-0.01546 0.0609,-0.254662 0.31633,-0.463021 0.56759,-0.463021 z m 9.97097,0.38846 c -0.64328,-0.486549 -0.7963,-0.485482 -1.2062,0.0084 -0.28328,0.341326 -0.18597,0.395697 0.69521,0.38846 0.9583,-0.0079 0.99136,-0.03354 0.51099,-0.396875 z M 65.24318,73.269846 c -0.28903,-0.289031 -0.48722,0.170618 -0.27971,0.648708 0.19676,0.453328 0.21103,0.452914 0.32066,-0.0093 0.0631,-0.266051 0.0447,-0.553786 -0.041,-0.63941 z m 12.98413,0.130952 c -0.0734,-0.181901 -0.13345,-0.03307 -0.13345,0.330729 0,0.363802 0.06,0.51263 0.13345,0.330729 0.0734,-0.181901 0.0734,-0.479557 0,-0.661458 z m -4.53264,-0.978901 c -0.0974,-0.157576 -0.30062,-0.210146 -0.45162,-0.116821 -0.17776,0.109865 -0.1507,0.24622 0.0768,0.386804 0.42459,0.262413 0.61786,0.123214 0.37485,-0.269983 z m 6.60637,-0.01329 c -0.0899,-0.145521 -0.52071,-0.264583 -0.95727,-0.264583 -0.46179,0 -0.72536,0.110653 -0.63023,0.264583 0.0899,0.145521 0.52071,0.264584 0.95727,0.264584 0.46179,0 0.72537,-0.110653 0.63023,-0.264584 z m -16.33802,7.497689 c 0.1819,-0.0734 0.47956,-0.0734 0.66146,0 0.1819,0.0734 0.0331,0.133452 -0.33073,0.133452 -0.3638,0 -0.51263,-0.06005 -0.33073,-0.133452 z m 15.27969,-0.363794 c -0.87313,-0.11278 -4.26641,-0.288292 -7.54063,-0.390025 -3.27422,-0.101734 -6.00273,-0.231973 -6.06336,-0.28942 -0.22479,-0.212972 11.84168,-0.08206 14.2759,0.154884 3.10083,0.301829 4.60151,0.775008 2.3708,0.747537 -0.80037,-0.0099 -2.16959,-0.110195 -3.04271,-0.222976 z M 64.77331,78.84245 c 0.19099,-0.07643 0.4192,-0.06703 0.50712,0.02089 0.0879,0.08792 -0.0684,0.150453 -0.34727,0.138965 -0.30822,-0.0127 -0.37092,-0.07539 -0.15985,-0.159853 z m 21.61315,-1.935926 c -0.74975,-0.190778 -0.73228,-0.20371 0.31511,-0.233279 0.60988,-0.01722 1.18245,0.08776 1.27239,0.233279 0.18461,0.298713 -0.41358,0.298713 -1.5875,0 z m -1.98438,-0.264583 c -0.33917,-0.219188 -0.32955,-0.25707 0.0662,-0.260532 0.25466,-0.0022 0.46302,0.115011 0.46302,0.260532 0,0.322688 -0.0298,0.322688 -0.52917,0 z m 4.36563,-1.271318 c -0.43657,-0.05077 -0.91282,-0.211483 -1.05834,-0.35713 -0.17652,-0.176682 0.0876,-0.202252 0.79375,-0.07683 1.55711,0.276572 1.75904,0.607774 0.26459,0.433963 z"
       id="path16" />
  </g>
</svg>
