<?xml version="1.0" encoding="UTF-8" standalone="no"?>
<!-- Created with Inkscape (http://www.inkscape.org/) -->

<svg
   width="79.835526mm"
   height="18.504499mm"
   viewBox="0 0 79.835526 18.504499"
   version="1.1"
   id="svg1"
   inkscape:version="1.4.2 (2aeb623e1d, 2025-05-12)"
   sodipodi:docname="city6.svg"
   xmlns:inkscape="http://www.inkscape.org/namespaces/inkscape"
   xmlns:sodipodi="http://sodipodi.sourceforge.net/DTD/sodipodi-0.dtd"
   xmlns="http://www.w3.org/2000/svg"
   xmlns:svg="http://www.w3.org/2000/svg">
  <sodipodi:namedview
     id="namedview1"
     pagecolor="#ffffff"
     bordercolor="#000000"
     borderopacity="0.25"
     inkscape:showpageshadow="2"
     inkscape:pageopacity="0.0"
     inkscape:pagecheckerboard="0"
     inkscape:deskcolor="#d1d1d1"
     inkscape:document-units="mm"
     inkscape:zoom="0.7349537"
     inkscape:cx="555.13701"
     inkscape:cy="531.32598"
     inkscape:window-width="1854"
     inkscape:window-height="1011"
     inkscape:window-x="0"
     inkscape:window-y="0"
     inkscape:window-maximized="1"
     inkscape:current-layer="layer1" />
  <defs
     id="defs1" />
  <g
     inkscape:label="Layer 1"
     inkscape:groupmode="layer"
     id="layer1"
     transform="translate(41.80417,-7.9374997)">
    <path
       style="fill:#000000"
       d="m 32.89412,26.124599 c -1.33055,-0.35915 -1.6574,-0.63688 -1.13694,-0.96603 0.30117,-0.19047 0.23958,-0.24798 -0.27224,-0.25425 -0.3638,-0.004 -0.84005,-0.12352 -1.05833,-0.26458 -0.28015,-0.18104 0.08,-0.25768 1.22437,-0.26054 1.03785,-0.003 1.72729,0.12373 1.91593,0.35103 0.16208,0.19529 0.22599,0.42377 0.14203,0.50773 -0.084,0.084 0.099,0.28734 0.40658,0.45195 0.30758,0.16461 0.48935,0.41238 0.40392,0.5506 -0.17557,0.28409 -0.13198,0.2872 -1.62532,-0.11591 z m -74.31223,-0.67112 c 0.35835,-0.69297 0.46278,-0.73253 1.45497,-0.55109 0.5879,0.1075 1.06891,0.0924 1.06891,-0.0336 0,-0.12599 -0.18562,-0.22906 -0.41249,-0.22906 -0.22687,0 -0.33344,-0.1279 -0.23683,-0.28422 0.25125,-0.40653 4.06483,0.18644 5.02473,0.78128 0.44537,0.276 0.36856,0.30122 -0.53895,0.17699 -0.58208,-0.0797 -1.65365,-0.20188 -2.38125,-0.27156 l -1.32292,-0.1267 1.10608,0.32513 c 1.49521,0.4395 1.76051,0.77902 0.47149,0.60336 -0.57662,-0.0786 -1.45618,-0.19598 -1.95458,-0.26091 -0.4984,-0.0649 -1.30196,0.0473 -1.7857,0.24944 l -0.87952,0.36749 z m 7.41867,-0.9616 c -0.87312,-0.19702 -2.03398,-0.36342 -2.57968,-0.36977 -0.56192,-0.007 -0.99219,-0.14287 -0.99219,-0.31438 0,-0.460198 3.22024,-0.0826 4.56423,0.53519 1.3212,0.60732 1.15169,0.63276 -0.99236,0.14896 z m 1.71979,-0.66268 c -1.0914,-0.277021 -2.31882,-0.505633 -2.72759,-0.508027 -0.4796,-0.0028 -0.67838,-0.109263 -0.56043,-0.300119 0.31224,-0.50521 5.66927,0.557245 5.66927,1.124386 0,0.28873 0.005,0.28935 -2.38125,-0.31624 z m 63.69023,0.11881 c -0.0894,-0.0894 -0.55574,-0.19541 -1.03629,-0.23557 -1.58142,-0.132171 -1.67533,-0.17417 -0.90507,-0.404788 1.02028,-0.305475 3.60322,0.08404 3.60322,0.543378 0,0.2814 -1.39597,0.36287 -1.66186,0.097 z M -28.70777,23.56165 c -0.69631,-0.201914 -1.38122,-0.353131 -4.36563,-0.963855 -0.58075,-0.118845 -0.6011,-0.15765 -0.16676,-0.318055 0.82494,-0.304654 5.72301,0.925642 5.72301,1.437509 0,0.15979 -0.18748,0.13529 -1.19062,-0.155599 z m 0,-0.831353 c -1.16417,-0.2969 -2.29526,-0.593447 -2.51354,-0.658994 -0.23837,-0.07158 -1.5e-4,-0.257048 0.5965,-0.464395 1.4874,-0.516901 6.81183,0.231947 6.81183,0.95804 0,0.341607 -0.6274,0.270656 -2.71001,-0.306463 -1.05026,-0.291042 -2.3882,-0.516861 -2.97321,-0.501822 l -1.06365,0.02735 1.05833,0.248706 c 1.88822,0.443728 3.16952,0.842187 3.42635,1.065526 0.37442,0.325593 -0.26192,0.236656 -2.6326,-0.367944 z m 60.42346,0.199911 c -0.0671,-0.06712 -0.95016,-0.156411 -1.96233,-0.198437 -2.17749,-0.09041 -2.48593,-0.579627 -0.38509,-0.610786 1.84411,-0.02735 2.97302,0.193023 3.11112,0.607322 0.10187,0.305588 -0.50071,0.464892 -0.7637,0.201901 z m -54.9995,-1.183738 c -0.21828,-0.127237 -1.05172,-0.306764 -1.85209,-0.398949 -2.21804,-0.255472 -2.91041,-0.428152 -2.91041,-0.725866 0,-0.152289 0.20365,-0.191329 0.46302,-0.08876 0.25466,0.10071 0.87974,0.236863 1.38906,0.302562 2.89134,0.372962 4.79608,0.734147 4.91881,0.932726 0.18268,0.295576 -1.49519,0.277437 -2.00839,-0.02171 z m 54.23958,-0.0805 c -0.80036,-0.129012 -1.90169,-0.178866 -2.44739,-0.110786 -0.54571,0.06808 -0.99219,0.01605 -0.99219,-0.115625 0,-0.286481 4.14638,-0.288069 4.87723,-0.0019 0.88232,0.34552 0.08,0.472914 -1.43765,0.228279 z m -52.78437,-0.875 c -1.89177,-0.187601 -3.72206,-0.350874 -4.0673,-0.36283 -0.5272,-0.01826 -0.57497,-0.08528 -0.29833,-0.418613 0.18116,-0.218281 0.70175,-0.385006 1.15688,-0.370501 0.77639,0.02474 0.78682,0.03769 0.16898,0.209672 -0.41251,0.114821 0.76178,0.304943 3.14327,0.50891 2.09099,0.179085 3.99467,0.4383 4.2304,0.576032 0.54518,0.318541 0.20352,0.307293 -4.3339,-0.14267 z m 54.8084,-0.03624 c -0.0995,-0.09946 -1.45497,-0.207138 -3.01223,-0.239282 -1.76778,-0.03649 -2.86769,-0.16734 -2.92802,-0.34833 -0.12212,-0.366354 2.06726,-0.374574 4.54041,-0.01705 1.88383,0.272333 3.22518,0.761493 2.13189,0.77745 -0.30317,0.0044 -0.63259,-0.07333 -0.73205,-0.172791 z m 2.20931,-0.480621 c 0.18115,-0.218281 0.52315,-0.393089 0.76,-0.388461 0.36177,0.0071 0.3485,0.07053 -0.083,0.396875 -0.66848,0.505613 -1.0992,0.50026 -0.67703,-0.0084 z m -53.18126,-0.03429 c -0.21828,-0.05786 -1.28984,-0.21651 -2.38125,-0.35256 l -1.98437,-0.247365 2.24896,0.108057 c 2.21118,0.106241 3.99426,0.339547 4.21128,0.551023 0.13624,0.132755 -1.55028,0.08513 -2.09462,-0.05916 z m -15.08121,-0.42873 c -4e-5,-0.254316 2.35228,-0.224406 3.02323,0.03844 0.30264,0.118563 -0.20791,0.191624 -1.25674,0.179841 -0.97155,-0.01091 -1.76648,-0.10914 -1.76649,-0.218281 z m 19.55708,0.224157 c -0.23953,-0.23156 -5.09745,-0.691999 -8.84936,-0.838752 -2.17849,-0.08521 -4.30607,-0.264558 -4.72797,-0.398552 -0.42189,-0.133993 -1.31486,-0.246271 -1.98437,-0.249507 l -1.21729,-0.0059 0.64792,-0.49796 c 0.35636,-0.273878 0.88647,-0.45202 1.17803,-0.395872 0.29156,0.05615 0.61506,-0.03538 0.7189,-0.203391 0.11096,-0.179538 0.98881,-0.321752 2.12926,-0.344948 l 1.94047,-0.03947 -0.0825,-0.80623 c -0.0538,-0.525779 0.0535,-0.858396 0.30834,-0.956195 0.54235,-0.208118 1.8837,0.184334 1.92386,0.562886 0.0182,0.171431 0.048,0.474708 0.0661,0.673949 0.0411,0.449888 1.86566,0.777052 2.30413,0.413151 0.17608,-0.146133 0.25902,-0.499444 0.18431,-0.785135 -0.12478,-0.477154 0.005,-0.519439 1.59724,-0.519439 1.68124,0 1.73558,-0.02115 1.8168,-0.707199 0.14183,-1.198088 0.70422,-1.03723 0.79529,0.227473 0.078,1.082585 0.12783,1.145554 0.97129,1.226273 l 0.88911,0.08509 -0.1911,-2.201755 c -0.1051,-1.210966 -0.20779,-2.221843 -0.2282,-2.246395 -0.0204,-0.02455 -0.35643,-0.124788 -0.74673,-0.222748 -0.66879,-0.167855 -0.71445,-0.119589 -0.79321,0.838389 -0.11524,1.401798 -0.58916,1.034972 -0.68557,-0.530651 l -0.079,-1.282566 1.13424,0.144642 c 0.62383,0.07955 1.5137,0.150692 1.97749,0.158087 0.80756,0.01288 0.83715,0.05112 0.69889,0.903151 -0.12946,0.797739 -0.073,0.903345 0.5458,1.021644 0.61687,0.117922 0.69018,0.04957 0.69018,-0.643526 0,-0.652845 0.0941,-0.762093 0.59531,-0.690914 0.40506,0.05753 0.62361,0.295938 0.68386,0.746006 0.15916,1.188852 0.57291,1.227069 0.57291,0.05292 v -1.11125 h 1.05833 1.05834 v 1.190625 c 0,0.907613 0.0992,1.190625 0.41711,1.190625 0.32675,0 0.3996,-0.242448 0.33629,-1.119274 -0.0693,-0.959272 -0.006,-1.123004 0.44279,-1.145368 1.85378,-0.09238 1.95994,-0.122501 1.80991,-0.513483 -0.11803,-0.307573 0.0624,-0.396875 0.80205,-0.396875 0.77796,0 0.95435,0.0978 0.95435,0.529167 0,0.822914 1.1831,0.666458 2.40881,-0.318545 1.41156,-1.134366 2.81053,-1.161568 3.94292,-0.07667 0.63992,0.613078 0.79202,0.977943 0.79202,1.899923 0,0.627618 0.11906,1.141124 0.26458,1.141124 0.14552,0 0.26459,-0.479197 0.26459,-1.064882 0,-0.894866 0.10652,-1.105382 0.66719,-1.318551 0.44025,-0.167381 0.7215,-0.525154 0.82683,-1.051784 0.0878,-0.438964 0.22169,-0.798116 0.29755,-0.798116 0.0759,0 0.74558,0.565547 1.48828,1.256771 1.274,1.185709 1.35035,1.331046 1.35035,2.570367 v 1.313597 l 1.45521,0.02951 c 0.80037,0.01623 3.21138,0.12247 5.35781,0.236084 3.7019,0.195947 3.90218,0.181301 3.89425,-0.284776 -0.005,-0.291524 -0.47695,-0.775502 -1.16058,-1.190059 -0.82174,-0.498313 -1.24392,-0.976631 -1.472,-1.667698 -0.47138,-1.428289 -0.17774,-2.16794 1.10711,-2.788709 1.26073,-0.609119 1.82546,-0.665121 2.26589,-0.224698 0.23524,0.235243 0.55866,0.196015 1.35884,-0.164815 0.72474,-0.326811 1.32183,-0.416665 1.92701,-0.289987 0.48228,0.100954 1.62102,0.167369 2.53053,0.147591 1.14455,-0.02489 1.65364,0.06342 1.65364,0.286853 0,0.212083 0.16597,0.172612 0.48386,-0.115068 0.26612,-0.240835 0.73534,-0.437882 1.04271,-0.437882 0.30738,0 0.62847,-0.11262 0.71354,-0.250266 0.0873,-0.141175 0.73294,0.04018 1.48127,0.416047 1.02899,0.516829 1.36136,0.840085 1.48152,1.440891 0.0852,0.426018 0.25909,0.774578 0.38642,0.774578 0.12734,0 0.23152,0.515027 0.23152,1.144505 0,1.149963 -0.60646,2.048417 -1.58552,2.348936 -0.21719,0.06667 0.17773,0.199698 0.87761,0.295627 1.24588,0.170766 2.82457,1.294973 2.82457,2.011413 0,0.156715 0.19844,0.284936 0.44097,0.284936 0.24254,0 0.35155,0.0893 0.24226,0.198437 -0.1093,0.109141 -2.89734,0.156509 -6.19566,0.105262 -3.29832,-0.05125 -5.93741,-0.03543 -5.86465,0.03515 0.1157,0.112234 8.92697,0.54893 10.51719,0.521243 0.35924,-0.0063 0.59531,0.148149 0.59531,0.389366 0,0.303424 -0.1753,0.356255 -0.72761,0.219283 -0.40018,-0.09925 -2.93026,-0.231822 -5.62239,-0.294613 -2.69214,-0.06279 -6.02589,-0.239904 -7.40833,-0.393584 -4.1033,-0.456143 -4.5159,-0.484798 -7.2099,-0.500718 -1.41883,-0.0084 -2.57969,-0.106325 -2.57969,-0.217647 0,-0.213366 3.19788,-0.192904 7.40834,0.0474 1.49398,0.08527 2.29818,0.0516 1.98262,-0.08301 -0.52865,-0.2255 -2.54008,-0.386041 -8.89387,-0.709858 -2.33524,-0.119014 -3.39409,-0.08165 -3.52134,0.124254 -0.12537,0.202855 0.28038,0.294442 1.30446,0.294442 0.81754,0 1.42176,0.10465 1.34271,0.232554 -0.079,0.127905 -0.68139,0.171952 -1.33853,0.09788 -0.79127,-0.08919 -1.1948,-0.03369 -1.1948,0.164321 0,0.199037 0.77396,0.300974 2.3151,0.304919 4.1008,0.0105 10.77901,0.564575 11.13858,0.924147 0.31865,0.31865 -0.24544,0.35526 -1.82484,0.118431 -2.28905,-0.34324 -7.90461,-0.700919 -7.77759,-0.495388 0.0557,0.09013 1.32532,0.246084 2.82137,0.346567 1.49605,0.100483 3.1368,0.313161 3.64613,0.472619 0.50932,0.159458 1.09191,0.335444 1.29464,0.39108 0.20272,0.05564 0.30603,0.163726 0.22955,0.240198 -0.0765,0.07647 -1.10554,-0.02787 -2.28682,-0.231872 -1.18129,-0.204002 -2.14779,-0.280546 -2.14779,-0.170097 0,0.110449 0.57124,0.279383 1.26942,0.375407 0.69819,0.09602 1.44233,0.292821 1.65365,0.437325 0.27069,0.185099 0.0715,0.219229 -0.67411,0.115503 -0.58209,-0.08098 -1.71318,-0.207349 -2.51354,-0.280824 -0.80037,-0.07348 -1.75287,-0.183408 -2.11667,-0.244294 -3.43502,-0.574882 -5.78993,-0.698757 -15.34583,-0.807235 -8.06471,-0.09155 -11.61249,-0.230727 -13.36146,-0.524159 -2.65054,-0.444691 -11.50938,-0.571894 -11.50938,-0.165261 0,0.134101 1.49855,0.254416 3.33565,0.267812 1.83461,0.01338 4.06703,0.08571 4.96094,0.160749 0.89391,0.07503 2.33418,0.197087 3.20062,0.271231 1.97766,0.169236 2.22115,0.366787 0.51928,0.421316 -1.468,0.04704 -1.63045,0.03983 -3.28524,-0.145715 -0.65484,-0.07343 -3.00042,-0.216849 -5.21239,-0.318718 -2.50527,-0.115377 -4.00177,-0.287301 -3.96875,-0.455946 0.0292,-0.148901 -0.39347,-0.288151 -0.93917,-0.309446 -0.5457,-0.02129 -0.99219,0.05873 -0.99219,0.177839 0,0.119105 0.38695,0.230642 0.8599,0.24786 l 0.85989,0.0313 -0.79375,0.201975 c -0.90729,0.230868 -0.62353,0.298496 1.71979,0.409866 6.17559,0.293504 10.59234,0.760334 11.37709,1.202505 0.34582,0.194855 0.34298,0.224656 -0.0221,0.231666 -0.23041,0.0044 -0.46853,-0.03991 -0.52917,-0.09853 z M 7.40786,15.925943 c 0,-1.137389 -0.0744,-2.440049 -0.16537,-2.894802 C 7.06755,12.156425 6.37077,11.881935 6.319,12.667339 6.3022,12.922 6.2608,13.249422 6.227,13.394943 c -0.0338,0.145521 -0.0796,0.419211 -0.10177,0.6082 -0.0296,0.252464 -0.40878,0.307876 -1.42936,0.208885 -0.76399,-0.0741 -2.21503,-0.210829 -3.22455,-0.303836 -1.00952,-0.09301 -2.08196,-0.330599 -2.3832,-0.52798 -0.30165,-0.197648 -1.43781,-0.393819 -2.52897,-0.436656 -1.61006,-0.06321 -1.98633,-0.0034 -2.00828,0.319095 -0.0783,1.151006 -0.0496,1.135441 -1.83377,0.992223 l -1.72616,-0.13856 0.16242,0.865785 c 0.0963,0.513066 0.045,0.938386 -0.12592,1.043992 -0.18998,0.117415 -0.28835,-0.18815 -0.28835,-0.895741 0,-0.590672 -0.0969,-1.073949 -0.21532,-1.073949 -0.38175,0 -0.005,3.28096 0.41121,3.585655 0.56564,0.413612 1.91899,0.150871 1.9292,-0.374539 0.008,-0.396338 0.0358,-0.397055 0.33174,-0.0085 0.17783,0.233486 0.58116,0.506352 0.89629,0.60637 0.44156,0.140145 0.61395,0.05268 0.75172,-0.38137 0.17225,-0.542714 0.19136,-0.545225 0.52494,-0.06897 0.30833,0.440194 0.79639,0.503003 4.46221,0.57424 l 4.11602,0.07999 0.16601,-0.749682 c 0.27443,-1.239198 0.34154,-1.319448 0.36343,-0.434568 0.0269,1.087608 0.55006,1.446711 0.55006,0.377574 0,-0.436562 0.11906,-0.867334 0.26458,-0.957271 0.1571,-0.09709 0.26458,0.21188 0.26458,0.760561 0,0.809114 0.0905,0.935673 0.72761,1.017249 0.40018,0.05124 0.8169,0.05212 0.92604,0.002 0.10914,-0.05017 0.19844,-1.021799 0.19844,-2.159187 z m -8.46667,1.303028 c 0.65484,-0.110428 1.30373,-0.09553 1.44198,0.03312 0.1476,0.137353 -0.34384,0.220227 -1.19063,0.20078 l -1.44198,-0.03312 z m 2.59622,0.08627 c 0.191,-0.07643 0.4192,-0.06703 0.50712,0.02089 0.0879,0.08792 -0.0684,0.150453 -0.34727,0.138965 -0.30822,-0.0127 -0.37091,-0.07539 -0.15985,-0.159853 z M 0.79724,16.445059 c -0.24477,-0.457348 -0.20766,-0.536577 0.25131,-0.536577 0.29616,0 0.53847,0.171567 0.53847,0.38126 0,0.632643 -0.48344,0.727716 -0.78978,0.155317 z m 1.9672,0.288068 c -0.35078,-0.35079 -0.0391,-0.824645 0.54237,-0.824645 0.478,0 0.66146,0.142207 0.66146,0.512723 0,0.353781 -0.16813,0.500058 -0.54237,0.471868 -0.2983,-0.02247 -0.59596,-0.09445 -0.66146,-0.159946 z M -4.03537,16.50485 c -0.63096,-0.144448 -0.5889,-0.860952 0.0505,-0.860952 0.5852,0 0.98245,0.478034 0.64079,0.771114 -0.12557,0.107712 -0.43666,0.148139 -0.69132,0.08984 z m -4.01295,-0.296274 c -0.11398,-0.184415 -0.13578,-0.406754 -0.0484,-0.494086 0.23679,-0.236792 0.49497,0.111469 0.36708,0.495153 -0.0896,0.268863 -0.15195,0.268654 -0.31864,-0.0011 z m 1.69784,-0.167803 c 0,-0.218281 0.1786,-0.396875 0.39688,-0.396875 0.21828,0 0.39687,0.178594 0.39687,0.396875 0,0.218282 -0.17859,0.396875 -0.39687,0.396875 -0.21828,0 -0.39688,-0.178593 -0.39688,-0.396875 z m 3.53527,-1.5875 c -0.0838,-0.218281 -0.0838,-0.575468 0,-0.79375 0.19335,-0.503878 0.96265,-0.521171 0.96265,-0.02164 0,0.206379 0.0723,0.563567 0.1606,0.79375 0.11559,0.301222 0.002,0.418514 -0.40518,0.418514 -0.31118,0 -0.63431,-0.178593 -0.71807,-0.396874 z M -4.4984,13.867802 c 0,-0.428765 0.15425,-0.605154 0.52917,-0.605154 0.38446,0 0.52917,0.176389 0.52917,0.645015 0,0.481913 -0.13381,0.634936 -0.52917,0.605154 C -4.33254,14.485447 -4.4984,14.28328 -4.4984,13.867802 Z M 8.83971,15.974628 C 8.64865,12.950944 8.49372,12.204315 8.05732,12.204315 c -0.28963,0 -0.38488,0.356274 -0.38488,1.439594 0,0.791776 0.11065,1.507977 0.24588,1.591558 0.14485,0.08952 0.20385,-0.474882 0.14359,-1.373447 -0.10055,-1.499354 -0.0983,-1.505073 0.13138,-0.334788 0.12852,0.654844 0.2425,1.934765 0.25329,2.844271 0.0108,0.909505 0.1328,1.653645 0.27115,1.653645 0.14852,0 0.19848,-0.839892 0.12198,-2.05052 z m 0.803,-0.396875 c -0.0995,-1.346068 -0.28748,-2.62599 -0.41782,-2.844271 -0.23338,-0.39085 -0.0168,4.683707 0.21739,5.093229 0.31447,0.549942 0.36519,-0.01917 0.20043,-2.248958 z m -20.53249,2.053234 c -0.23552,-0.235526 -3.3982,-0.580822 -3.3982,-0.371011 0,0.182155 0.74577,0.29947 2.88837,0.454365 0.35168,0.02542 0.5811,-0.01209 0.50983,-0.08335 z m 22.99707,-0.05221 c -0.25296,-0.06622 -0.72921,-0.06863 -1.05833,-0.0053 -0.32912,0.06329 -0.12215,0.117469 0.45994,0.120406 0.58208,0.0029 0.85136,-0.04884 0.59839,-0.115067 z m 1.45213,0.0066 c -0.1819,-0.0734 -0.47956,-0.0734 -0.66146,0 -0.1819,0.0734 -0.0331,0.133452 0.33073,0.133452 0.3638,0 0.51263,-0.06005 0.33073,-0.133452 z m 11.8401,-0.353939 c 0.34203,-0.221032 0.33504,-0.25704 -0.0505,-0.260531 -0.24607,-0.0022 -0.52099,0.115011 -0.61093,0.260531 -0.20695,0.334856 0.14331,0.334856 0.66146,0 z m -41.4698,-0.186248 c -0.32542,-0.0628 -0.92073,-0.06443 -1.32291,-0.0036 -0.40219,0.06082 -0.13593,0.1122 0.59167,0.114186 0.7276,0.002 1.05666,-0.04777 0.73124,-0.110574 z m 5.3785,-1.089515 c -0.0654,-0.535257 -0.12738,-1.241085 -0.13775,-1.568507 -0.0104,-0.327422 -0.10816,-0.595563 -0.2173,-0.595868 -0.10914,-3.05e-4 -0.15848,0.774329 -0.10965,1.72141 0.0505,0.979519 0.19547,1.656039 0.3362,1.569062 0.13607,-0.0841 0.1939,-0.59084 0.1285,-1.126097 z m -11.58144,0.415868 c -0.0465,-0.327422 -0.20361,-0.595313 -0.34913,-0.595313 -0.14552,0 -0.30263,0.267891 -0.34913,0.595313 -0.0582,0.409619 0.0507,0.595312 0.34913,0.595312 0.2984,0 0.4073,-0.185693 0.34913,-0.595312 z m 12.14574,-1.582762 c -0.0589,-0.475549 -0.10828,-0.150259 -0.10976,0.722866 -10e-4,0.873125 0.0467,1.26221 0.10706,0.864634 0.0604,-0.397576 0.0616,-1.111951 0.003,-1.5875 z m -2.25172,0.524593 c -0.13613,-2.501584 -0.24129,-2.748624 -0.28164,-0.661623 -0.0218,1.127786 0.0497,2.050595 0.1588,2.050685 0.10914,9.1e-5 0.16442,-0.624987 0.12284,-1.389062 z m 0.9052,-0.132456 c -0.0805,-0.836745 -0.15125,-1.55112 -0.15724,-1.5875 -0.006,-0.03638 -0.1002,-0.06636 -0.20934,-0.06663 -0.10914,-2.65e-4 -0.1581,0.71411 -0.10879,1.5875 0.0493,0.87339 0.20936,1.587982 0.35568,1.587982 0.16444,0 0.21015,-0.580951 0.11969,-1.521354 z m 47.85373,1.234943 c -0.43656,-0.09908 -2.1332,-0.194234 -3.77031,-0.211452 -2.92136,-0.03072 -4.09158,-0.429617 -1.85209,-0.631325 1.07507,-0.09683 1.06344,-0.103311 -0.26458,-0.147504 -0.98905,-0.03291 -1.37001,0.04902 -1.32292,0.284504 0.0454,0.226933 -0.34903,0.338104 -1.25677,0.354226 -2.40945,0.0428 -3.04271,0.106746 -3.04228,0.307233 2.4e-4,0.10914 2.76844,0.204294 6.15156,0.211451 3.38313,0.0072 5.79395,-0.06805 5.35739,-0.167133 z m -53.1151,-0.160557 c -0.25467,-0.06655 -0.67138,-0.06655 -0.92605,0 -0.25466,0.06655 -0.0463,0.121 0.46302,0.121 0.50933,0 0.71769,-0.05445 0.46303,-0.121 z m 40.35892,-0.253639 c 0.94745,-0.156575 1.24997,-0.712167 0.43028,-0.790228 -0.82096,-0.07818 -0.87475,-0.158545 -0.24181,-0.361249 0.61734,-0.197707 0.60205,-0.213595 -0.22928,-0.238209 -0.81932,-0.02426 -0.88029,0.02831 -0.76038,0.65554 0.11347,0.593617 0.0555,0.663133 -0.44757,0.536865 -1.84351,-0.46269 -11.79193,-0.818312 -11.79193,-0.421521 0,0.152909 1.1236,0.272683 2.71197,0.289091 1.49159,0.01541 3.78355,0.115609 5.09323,0.222666 3.40899,0.278659 4.11028,0.292997 5.23549,0.107045 z m 2.56972,-0.357727 c 0,-0.14552 -0.11906,-0.264583 -0.26458,-0.264583 -0.14552,0 -0.26458,0.119063 -0.26458,0.264583 0,0.145521 0.11906,0.264584 0.26458,0.264584 0.14552,0 0.26458,-0.119063 0.26458,-0.264584 z m 1.5875,-0.174142 c -1.15462,-0.38509 -1.19058,-0.427877 -0.52916,-0.629653 0.55191,-0.168373 0.47524,-0.206158 -0.46303,-0.228164 -0.61846,-0.01451 -1.12447,0.09269 -1.12447,0.238209 0,0.145521 0.17859,0.264584 0.39687,0.264584 0.21828,0 0.39688,0.119062 0.39688,0.264583 0,0.145521 0.38695,0.255184 0.85989,0.243695 0.47294,-0.01149 0.6813,-0.08045 0.46302,-0.153254 z m 6.15156,-0.0011 c -0.1819,-0.0734 -0.47955,-0.0734 -0.66145,0 -0.18191,0.0734 -0.0331,0.133452 0.33073,0.133452 0.3638,0 0.51263,-0.06005 0.33072,-0.133452 z M 22.26736,14.206672 c -0.0696,-0.875046 -0.18758,-1.136452 -0.46493,-1.030026 -0.39244,0.150593 -0.53172,-0.855599 -0.40011,-2.890557 0.0604,-0.934399 -0.27027,-1.314519 -0.63301,-0.727604 -0.0899,0.145521 -0.35172,0.264583 -0.58176,0.264583 -0.50573,0 -1.11804,0.752529 -1.12961,1.3883 -0.005,0.254243 0.4247,0.94167 0.95407,1.527617 0.70601,0.781466 1.09829,1.022254 1.47213,0.903602 0.33909,-0.107621 0.4935,-0.04331 0.46138,0.192175 -0.0968,0.709388 0.0194,1.544556 0.21476,1.544556 0.11019,0 0.15838,-0.527691 0.10708,-1.172646 z m 3.13216,-0.01798 c 0,-0.654844 -0.11906,-1.190625 -0.26458,-1.190625 -0.14552,0 -0.26458,0.535781 -0.26458,1.190625 0,0.654844 0.11906,1.190625 0.26458,1.190625 0.14552,0 0.26458,-0.535781 0.26458,-1.190625 z m 3.58511,0.941916 c 0.13824,-0.136791 0.84666,-0.293924 1.57427,-0.349185 1.29215,-0.09814 1.28491,-0.101584 -0.31133,-0.148165 -1.30914,-0.0382 -1.65832,-0.139801 -1.75525,-0.510712 -0.0666,-0.254661 -0.13481,-0.07607 -0.15169,0.396875 -0.0309,0.867093 0.18155,1.068766 0.644,0.611187 z m 6.44701,-0.111347 c -0.0606,-0.05251 -0.64602,-0.166315 -1.30087,-0.252901 -0.79502,-0.10512 -1.0148,-0.07958 -0.66146,0.07688 0.50532,0.223745 2.19215,0.375058 1.96233,0.176025 z M 24.47348,14.0564 c -0.0899,-0.14552 -0.51368,-0.264583 -0.94166,-0.264583 -0.42797,0 -0.77813,0.119063 -0.77813,0.264583 0,0.145521 0.42374,0.264584 0.94166,0.264584 0.56039,0 0.87544,-0.107125 0.77813,-0.264584 z m 3.30729,0 c 0,-0.14552 -0.48327,-0.264583 -1.07395,-0.264583 -0.64859,0 -1.00918,0.104793 -0.91042,0.264583 0.0899,0.145521 0.57321,0.264584 1.07395,0.264584 0.50073,0 0.91042,-0.119063 0.91042,-0.264584 z m 3.96875,0 c 0,-0.14552 -0.44648,-0.256215 -0.99219,-0.245987 -0.79591,0.01492 -0.88751,0.06358 -0.46302,0.245987 0.73525,0.315947 1.45521,0.315947 1.45521,0 z M -7.6734,12.865775 c 0,-0.363802 -0.11906,-0.661458 -0.26458,-0.661458 -0.14552,0 -0.26458,0.297656 -0.26458,0.661458 0,0.363803 0.11906,0.661459 0.26458,0.661459 0.14552,0 0.26458,-0.297656 0.26458,-0.661459 z m 0.43982,-0.198437 c -0.0734,-0.181901 -0.13346,-0.03307 -0.13346,0.330729 0,0.363802 0.0601,0.51263 0.13346,0.330729 0.0734,-0.181901 0.0734,-0.479557 0,-0.661458 z M 4.23286,12.88139 c 0,-0.355213 -0.11907,-0.719428 -0.26459,-0.809365 -0.15436,-0.0954 -0.26458,0.173642 -0.26458,0.645844 0,0.445151 0.11906,0.809365 0.26458,0.809365 0.14552,0 0.26459,-0.29063 0.26459,-0.645844 z m 19.7776,0.46346 c -0.25466,-0.06655 -0.67138,-0.06655 -0.92604,0 -0.25466,0.06655 -0.0463,0.121 0.46302,0.121 0.50932,0 0.71768,-0.05445 0.46302,-0.121 z m 6.94531,-0.242799 c 0,-0.05719 -0.80367,-0.08458 -1.78594,-0.06086 l -1.78593,0.04313 1.45521,0.159645 c 1.36405,0.149646 2.11666,0.09919 2.11666,-0.141915 z m 2.38125,0.321199 c 0,-0.05719 -0.17859,-0.172517 -0.39687,-0.25628 -0.21828,-0.08376 -0.39688,-0.03697 -0.39688,0.103984 0,0.140954 0.1786,0.25628 0.39688,0.25628 0.21828,0 0.39687,-0.04679 0.39687,-0.103984 z M -9.8739,12.683874 c -0.0845,-0.211066 -0.14716,-0.148372 -0.15986,0.159853 -0.0115,0.278915 0.0511,0.435184 0.13897,0.347265 0.0879,-0.08792 0.0973,-0.316121 0.0209,-0.507118 z M 1.0538,12.402755 c 0.002,-0.109141 -0.11501,-0.198438 -0.26053,-0.198438 -0.14552,0 -0.26276,0.267891 -0.26053,0.595313 0.003,0.481393 0.0531,0.519366 0.26053,0.198437 0.14107,-0.218281 0.25831,-0.486172 0.26053,-0.595312 z m 0.79781,0.346344 c 0,-0.282454 -0.11907,-0.587137 -0.26459,-0.677074 -0.15006,-0.09274 -0.26458,0.129545 -0.26458,0.513552 0,0.372391 0.11906,0.677073 0.26458,0.677073 0.14552,0 0.26459,-0.231098 0.26459,-0.513551 z m 1.53542,-0.114834 c -0.0499,-0.349753 -0.3052,-0.594193 -0.67553,-0.646787 -0.47807,-0.0679 -0.59531,0.04283 -0.59531,0.562239 0,0.51711 0.13544,0.646788 0.67552,0.646788 0.53755,0 0.65915,-0.114839 0.59532,-0.56224 z m 20.95416,0.262355 c 0,-0.0558 -0.29766,-0.158348 -0.66146,-0.227893 -0.3638,-0.06955 -0.66146,-0.02389 -0.66146,0.101447 0,0.125341 0.29766,0.227893 0.66146,0.227893 0.3638,0 0.66146,-0.04565 0.66146,-0.101447 z M -0.97282,12.469606 c -0.3503,-0.317319 -4.00438,-0.560834 -4.17888,-0.278488 -0.0907,0.146744 0.5386,0.285142 1.50551,0.331104 0.91374,0.04343 1.93816,0.09385 2.27649,0.112043 0.33834,0.01819 0.51693,-0.05591 0.39688,-0.164659 z m 31.92859,-0.192709 c 0,-0.202616 0.11906,-0.294808 0.26459,-0.204872 0.14552,0.08994 0.26458,-0.002 0.26458,-0.204259 0,-0.202279 -0.26789,-0.506708 -0.59531,-0.676509 -0.751,-0.389468 -5.57475,-0.660859 -5.35243,-0.301136 0.087,0.140725 0.83572,0.257686 1.66387,0.259914 0.90425,0.0024 1.36709,0.09198 1.15864,0.224172 -0.1909,0.121065 -0.93504,0.163625 -1.65364,0.09458 -0.86721,-0.08333 -1.30655,-0.02525 -1.30655,0.172704 0,0.19918 0.79096,0.298246 2.38125,0.298246 1.30969,0 2.36715,0.0893 2.34992,0.198437 -0.0616,0.390221 0.0371,0.507118 0.42821,0.507118 0.21828,0 0.39687,-0.165776 0.39687,-0.368392 z m -1.32291,-0.705731 c 0,-0.250992 0.79199,-0.377486 0.93318,-0.149043 0.086,0.139165 -0.0888,0.253027 -0.3884,0.253027 -0.29963,0 -0.54478,-0.04679 -0.54478,-0.103984 z m 3.90568,0.980528 c -0.25296,-0.06622 -0.72921,-0.06863 -1.05833,-0.0053 -0.32912,0.06329 -0.12215,0.11747 0.45994,0.120406 0.58208,0.0029 0.85136,-0.04884 0.59839,-0.115066 z m -8.93277,-0.347377 c 0,-0.145521 -0.41672,-0.264583 -0.92604,-0.264583 -0.50932,0 -0.92604,-0.111577 -0.92604,-0.247949 0,-0.136372 0.41658,-0.180347 0.92574,-0.09772 0.8682,0.14089 0.93597,0.09911 1.09022,-0.672159 0.0905,-0.452312 0.32872,-0.958697 0.52947,-1.1253 0.55423,-0.459971 0.44273,-0.632191 -0.42937,-0.663168 -0.43623,-0.0155 -0.79314,0.08769 -0.79314,0.229296 0,0.141608 -0.23813,0.195198 -0.52917,0.119089 -0.34392,-0.08994 -0.52917,-0.0081 -0.52917,0.233725 0,0.220523 -0.26945,0.372104 -0.66146,0.372104 -0.55231,0 -0.66145,0.125633 -0.66145,0.761354 0,0.933349 0.38512,1.278492 1.58856,1.423644 0.50874,0.06136 1.01427,0.130621 1.12341,0.153909 0.10914,0.02329 0.19844,-0.07672 0.19844,-0.22224 z m 2.4474,0.08935 c -0.1819,-0.0734 -0.47956,-0.0734 -0.66146,0 -0.1819,0.0734 -0.0331,0.133452 0.33073,0.133452 0.3638,0 0.51263,-0.06005 0.33073,-0.133452 z M 8.73077,11.707542 c 0,-0.127702 -0.18767,-0.387937 -0.41704,-0.578299 -0.34562,-0.286842 -0.4582,-0.281063 -0.65741,0.03375 -0.38367,0.606335 -0.29307,0.776737 0.41299,0.776737 0.36381,0 0.66146,-0.104484 0.66146,-0.232188 z m -6.58228,-1.00474 c -0.2306,-0.396551 -0.28223,-0.407981 -0.28884,-0.06394 -0.009,0.445579 0.26966,0.846772 0.45718,0.659254 0.0618,-0.06185 -0.0139,-0.329737 -0.16834,-0.595314 z m 1.02603,0.458792 c 0,-0.136933 -0.11906,-0.322553 -0.26458,-0.41249 -0.14552,-0.08994 -0.26458,0.0221 -0.26458,0.248968 0,0.22687 0.11906,0.41249 0.26458,0.41249 0.14552,0 0.26458,-0.112036 0.26458,-0.248968 z m 30.22865,0.06224 c -0.32742,-0.06306 -0.86321,-0.06306 -1.19063,0 -0.32742,0.06306 -0.0595,0.114662 0.59532,0.114662 0.65484,0 0.92273,-0.0516 0.59531,-0.114662 z m 0.68326,-0.739559 c -0.19779,-0.197794 -3.12244,-0.228458 -3.31613,-0.03477 -0.092,0.09202 0.64629,0.167302 1.64068,0.167302 0.99439,0 1.74835,-0.05964 1.67545,-0.132534 z m -4.06995,-0.418071 c -0.0972,-0.157312 -0.45414,-0.216406 -0.79315,-0.13132 -0.33901,0.08508 -0.69023,0.0352 -0.7805,-0.110854 -0.0913,-0.147754 0.10689,-0.269123 0.44681,-0.2736 0.50411,-0.0066 0.53718,-0.05116 0.18916,-0.254643 -0.49669,-0.290403 -2.35636,-0.04344 -2.35636,0.312922 0,0.135069 -0.11906,0.171995 -0.26458,0.08206 -0.14553,-0.08994 -0.26459,0.0221 -0.26459,0.248969 0,0.337218 0.36496,0.41249 1.99999,0.41249 1.36589,0 1.94395,-0.09068 1.82322,-0.286022 z m 3.1221,-0.434543 c -0.47294,-0.05869 -1.24684,-0.05869 -1.71979,0 -0.47294,0.05869 -0.086,0.106712 0.8599,0.106712 0.94588,0 1.33284,-0.04802 0.85989,-0.106712 z m -1.7253,-0.762204 c -0.0879,-0.08792 -0.31612,-0.09732 -0.50712,-0.02089 -0.21106,0.08446 -0.14837,0.147156 0.15985,0.159852 0.27892,0.01149 0.43519,-0.05105 0.34727,-0.138964 z m 1.12999,-0.104731 c 0,-0.145521 -0.11906,-0.264583 -0.26458,-0.264583 -0.14552,0 -0.26458,0.119062 -0.26458,0.264583 0,0.145521 0.11906,0.264583 0.26458,0.264583 0.14552,0 0.26458,-0.119062 0.26458,-0.264583 z m 1.78507,11.178673 c -0.25515,-0.05792 -2.10062,-0.260575 -4.10105,-0.450343 l -3.63714,-0.345033 2.38125,-0.01567 c 2.44581,-0.01609 6.5578,0.502767 6.08541,0.767871 -0.14552,0.08167 -0.47333,0.101094 -0.72847,0.04317 z M -23.598,19.696485 c 0.19099,-0.07643 0.41919,-0.06703 0.50711,0.02089 0.0879,0.08792 -0.0683,0.150453 -0.34726,0.138965 -0.30823,-0.0127 -0.37092,-0.07539 -0.15985,-0.159853 z m -4.77904,-0.259071 c 0.1819,-0.0734 0.47956,-0.0734 0.66146,0 0.1819,0.0734 0.0331,0.133452 -0.33073,0.133452 -0.3638,0 -0.51263,-0.06005 -0.33073,-0.133452 z m -1.849,-0.276484 c 0.32912,-0.06329 0.80537,-0.06088 1.05833,0.0053 0.25297,0.06622 -0.0163,0.118003 -0.59839,0.115067 -0.58209,-0.0029 -0.78906,-0.05712 -0.45994,-0.120406 z m 64.56997,-0.217071 c -0.10777,-0.10777 -6.1849,-0.40139 -8.10013,-0.391363 -0.19049,9.97e-4 -0.27323,-0.116477 -0.18388,-0.261054 0.15023,-0.243073 2.22357,-0.209935 7.91107,0.126438 1.94237,0.114877 3.13998,0.665596 1.44742,0.665596 -0.51417,0 -0.99769,-0.06283 -1.07448,-0.139617 z m -44.92774,-7.797883 c 0,-0.145521 0.11906,-0.264584 0.26458,-0.264584 0.14552,0 0.26458,0.119063 0.26458,0.264584 0,0.145521 -0.11906,0.264583 -0.26458,0.264583 -0.14552,0 -0.26458,-0.119062 -0.26458,-0.264583 z"
       id="path14" />
  </g>
</svg>
