<?xml version="1.0" encoding="UTF-8" standalone="no"?>
<!-- Created with Inkscape (http://www.inkscape.org/) -->

<svg
   width="42.639496mm"
   height="12.007417mm"
   viewBox="0 0 42.639496 12.007417"
   version="1.1"
   id="svg1"
   inkscape:version="1.4.2 (2aeb623e1d, 2025-05-12)"
   sodipodi:docname="house2.svg"
   xmlns:inkscape="http://www.inkscape.org/namespaces/inkscape"
   xmlns:sodipodi="http://sodipodi.sourceforge.net/DTD/sodipodi-0.dtd"
   xmlns="http://www.w3.org/2000/svg"
   xmlns:svg="http://www.w3.org/2000/svg">
  <sodipodi:namedview
     id="namedview1"
     pagecolor="#ffffff"
     bordercolor="#000000"
     borderopacity="0.25"
     inkscape:showpageshadow="2"
     inkscape:pageopacity="0.0"
     inkscape:pagecheckerboard="0"
     inkscape:deskcolor="#d1d1d1"
     inkscape:document-units="mm"
     inkscape:zoom="0.7349537"
     inkscape:cx="297.97795"
     inkscape:cy="302.74016"
     inkscape:window-width="1854"
     inkscape:window-height="1011"
     inkscape:window-x="0"
     inkscape:window-y="0"
     inkscape:window-maximized="1"
     inkscape:current-layer="layer1" />
  <defs
     id="defs1" />
  <g
     inkscape:label="Layer 1"
     inkscape:groupmode="layer"
     id="layer1"
     transform="translate(-26.193746,-39.6875)">
    <path
       style="fill:#000000"
       d="m 26.56361,51.42323 c -0.57641,-0.334001 -0.55465,-0.357901 0.60925,-0.669196 1.27606,-0.341295 1.3707,-0.825739 0.17133,-0.876994 -0.62619,-0.02676 -0.60039,-0.05534 0.21405,-0.237151 0.50932,-0.113699 2.10217,-0.516726 3.53965,-0.895615 1.43749,-0.37889 2.94203,-0.688891 3.34341,-0.688891 0.60861,0 0.74914,-0.131809 0.84629,-0.79375 0.0895,-0.609978 0.0148,-0.79375 -0.32274,-0.79375 -0.82006,0 -0.77658,-0.333145 0.2088,-1.599838 1.08686,-1.39715 1.88066,-1.721629 4.72022,-1.929471 0.9149,-0.06697 1.92846,-0.320684 2.32869,-0.582924 0.49713,-0.325733 0.79202,-0.381012 0.98785,-0.185182 0.19583,0.195831 0.61263,-0.06886 1.39627,-0.88671 0.76223,-0.79551 1.33667,-1.165875 1.8083,-1.165875 0.38016,0 0.76157,-0.113863 0.84758,-0.253028 0.28721,-0.464714 0.88775,0.0185 1.29835,1.044693 0.51127,1.277782 0.84946,1.491213 1.27732,0.806102 0.35565,-0.569489 1.12481,-0.720468 1.40022,-0.27485 0.0899,0.145521 0.38004,0.264583 0.64467,0.264583 0.72626,0 1.12474,0.653317 1.23248,2.020674 0.0534,0.677819 0.12914,1.264385 0.16831,1.30348 0.0392,0.03909 1.55949,0.0982 3.3785,0.131345 4.26298,0.07768 11.1125,1.394864 11.1125,2.13697 0,0.315727 -0.29458,0.287659 -1.52051,-0.144875 -1.88858,-0.666328 -7.85487,-1.477558 -11.25472,-1.53029 -1.22104,-0.01894 -1.65239,0.09084 -2.13372,0.543021 -0.33181,0.311717 -0.80397,0.566759 -1.04925,0.566759 -0.24528,0 -0.44597,0.172371 -0.44597,0.383048 0,0.273361 0.39776,0.410874 1.38906,0.480223 l 1.38906,0.09718 -1.38906,0.04894 c -1.84062,0.06485 -1.79576,0.57811 0.0505,0.57811 1.81354,0 2.26998,0.517025 0.49425,0.559858 -0.69981,0.01688 -1.03426,0.08309 -0.74322,0.147133 0.79025,0.173889 2.01455,0.673951 1.90884,0.77966 -0.0509,0.05088 -0.9179,-0.07733 -1.92671,-0.284913 -2.85667,-0.587811 -5.1415,-0.762853 -5.1415,-0.393891 0,0.181941 -0.22079,0.254467 -0.52917,0.173823 -0.29104,-0.07611 -0.52916,-0.03046 -0.52916,0.101433 0,0.131898 0.26789,0.249041 0.59531,0.26032 0.64303,0.02215 3.43097,0.983422 2.95049,1.017321 -0.15985,0.01128 -1.5886,-0.266304 -3.175,-0.616849 -3.04494,-0.67284 -7.43906,-1.0742 -11.27305,-1.029681 -2.67822,0.0311 -4.47073,0.599228 -5.49019,1.740099 -0.78766,0.881458 -2.44007,1.198004 -3.38761,0.64895 z M 42.5142,47.659351 c -0.004,-0.65438 -0.0963,-1.190161 -0.20544,-1.190625 -0.24547,-10e-4 -0.26509,1.960972 -0.0221,2.204019 0.097,0.09701 0.18946,0.176388 0.20544,0.176388 0.016,0 0.0259,-0.535402 0.0221,-1.189782 z m 0.91904,0.115834 c 0,-0.590671 0.10859,-1.006837 0.24131,-0.924812 0.13272,0.08202 0.18674,0.495342 0.12006,0.918481 -0.0667,0.423139 0.003,0.846331 0.15556,0.940427 0.17724,0.10954 0.27682,-0.262833 0.27682,-1.035158 0,-1.110267 -0.0526,-1.20624 -0.66146,-1.20624 -0.60756,0 -0.66146,0.09701 -0.66146,1.190625 0,0.654844 0.11907,1.190625 0.26459,1.190625 0.14552,0 0.26458,-0.483276 0.26458,-1.073948 z m 1.50964,-0.579697 c -0.0631,-0.327422 -0.11466,-0.05953 -0.11466,0.595312 0,0.654844 0.0516,0.922734 0.11466,0.595313 0.0631,-0.327422 0.0631,-0.863204 0,-1.190625 z m 0.87161,0.743219 c 0,-0.500735 -0.11906,-0.984012 -0.26458,-1.073949 -0.15979,-0.09876 -0.26459,0.261836 -0.26459,0.910427 0,0.590672 0.11907,1.073948 0.26459,1.073948 0.14552,0 0.26458,-0.409692 0.26458,-0.910426 z M 40.96564,47.39393 c -0.0253,-0.654841 -0.10547,-1.192248 -0.17823,-1.194238 -0.0728,-0.002 -0.4188,-0.08028 -0.76898,-0.173975 -0.42905,-0.114798 -0.57812,-0.07559 -0.45709,0.120232 0.12271,0.198561 -0.13651,0.252896 -0.81853,0.171569 -0.94666,-0.112886 -0.9606,-0.104122 -0.27051,0.170012 0.40018,0.158969 0.72761,0.386736 0.72761,0.506149 0,0.119413 -0.59659,-0.0096 -1.32576,-0.286632 -1.86077,-0.707035 -2.26107,-0.600297 -0.59247,0.157978 1.65994,0.75434 1.83095,1.058209 0.28945,0.514338 -0.60478,-0.21338 -1.1604,-0.327161 -1.23472,-0.252846 -0.0743,0.07431 -0.019,0.135116 0.123,0.135116 0.14196,0 0.48922,0.179288 0.7717,0.398418 0.47905,0.371624 0.4635,0.380521 -0.23124,0.132292 -0.98139,-0.350649 -1.3069,-0.335886 -1.17714,0.05339 0.0634,0.190125 0.79553,0.360959 1.80799,0.421861 0.93581,0.05629 1.75109,0.150634 1.81172,0.209653 0.0606,0.05902 0.4385,0.107306 0.83969,0.107306 0.69495,0 0.72728,-0.05631 0.68351,-1.19062 z m 0.75268,-0.132297 c -0.0536,-0.727604 0.0127,-1.322916 0.14727,-1.322916 0.1346,0 0.24111,-0.267891 0.23669,-0.595313 -0.007,-0.531654 -0.0369,-0.545801 -0.27773,-0.132292 -0.50965,0.875009 -0.74875,0.462058 -0.36395,-0.628577 0.51076,-1.447654 0.49028,-1.587382 -0.21017,-1.433721 -0.32743,0.07183 -1.1311,0.185116 -1.78594,0.251751 -1.47555,0.150147 -3.32408,1.03421 -3.72367,1.780845 -0.29301,0.547496 -0.26918,0.555863 0.98409,0.345455 1.71266,-0.287534 3.77218,-0.203468 4.22515,0.172465 0.22062,0.183104 0.36651,0.817862 0.36651,1.5947 0,0.709786 0.11232,1.29052 0.24961,1.29052 0.13728,0 0.20574,-0.595312 0.15214,-1.322917 z m 5.41909,0.897735 c 0,-0.279009 -0.14389,-0.36997 -0.41852,-0.264584 -0.23018,0.08833 -0.47533,0.160599 -0.54478,0.160599 -0.0695,0 -0.0527,0.119063 0.0373,0.264584 0.26055,0.421579 0.92605,0.306166 0.92605,-0.160599 z m 0.79375,0.01269 c 0,-0.226869 -0.12101,-0.337705 -0.2689,-0.246301 -0.1479,0.0914 -0.2004,0.277024 -0.11668,0.41249 0.22681,0.366989 0.38558,0.298559 0.38558,-0.166189 z m 1.75623,0.228443 c -0.28597,-0.285965 -0.96248,-0.326117 -0.96248,-0.05712 0,0.132645 0.25797,0.241172 0.57326,0.241172 0.3153,0 0.49044,-0.08282 0.38922,-0.184047 z M 50.84157,47.5106 c 0,-0.427975 -0.11906,-0.778135 -0.26458,-0.778135 -0.14552,0 -0.26458,0.423745 -0.26458,0.941656 0,0.560397 0.10712,0.87545 0.26458,0.778135 0.14552,-0.08994 0.26458,-0.513682 0.26458,-0.941656 z m -1.05833,-0.149074 c 0,-0.30647 -0.0946,-0.354478 -0.33073,-0.167818 -0.1819,0.1438 -0.50932,0.327573 -0.7276,0.408384 -0.22621,0.08374 -0.084,0.155912 0.33073,0.167818 0.50335,0.01445 0.7276,-0.111412 0.7276,-0.408384 z m -1.78594,-0.01054 c -0.1819,-0.0734 -0.47956,-0.0734 -0.66146,0 -0.1819,0.0734 -0.0331,0.133452 0.33073,0.133452 0.3638,0 0.51263,-0.06005 0.33073,-0.133452 z m 0.0662,-0.883105 c -1.39509,-0.191348 -1.48427,-0.277486 -0.39236,-0.378968 1.64449,-0.152838 2.11215,-0.403964 2.11215,-1.134198 0,-0.551704 0.0706,-0.638778 0.3175,-0.391834 0.17462,0.174625 0.56158,0.319323 0.8599,0.321552 0.44713,0.0033 0.47269,0.0491 0.14552,0.260532 -0.26459,0.170986 -0.28664,0.25783 -0.0662,0.260531 0.1819,0.0022 0.33073,0.123114 0.33073,0.268635 0,0.145521 -0.41672,0.264584 -0.92604,0.264584 -0.50932,0 -0.92604,0.09376 -0.92604,0.208361 0,0.29553 2.02923,0.339838 2.72538,0.05951 0.57154,-0.230154 0.57013,-0.234926 -0.0796,-0.26787 l -0.66146,-0.03354 0.66146,-0.273703 0.66146,-0.273702 -0.63664,-0.245454 c -0.61868,-0.238531 -0.62241,-0.256926 -0.13229,-0.65219 0.34108,-0.275072 0.4021,-0.449713 0.18848,-0.5395 -0.17373,-0.07302 -0.25029,-0.303666 -0.17013,-0.512545 0.0829,-0.216065 -0.0105,-0.379781 -0.21665,-0.379781 -0.19931,0 -0.58591,-0.297656 -0.85912,-0.661459 -0.59348,-0.790294 -0.95178,-0.848395 -0.95178,-0.15434 0,0.278915 -0.14883,0.567172 -0.33073,0.64057 -0.1819,0.0734 -0.003,0.142852 0.39688,0.154341 0.80488,0.02311 1.02454,0.550055 0.2293,0.550055 -0.28209,0 -0.58368,0.258318 -0.69505,0.595312 l -0.19674,0.595313 -0.11711,-0.595313 c -0.0644,-0.327422 -0.27627,-0.595312 -0.4708,-0.595312 -0.23261,0 -0.30234,-0.196442 -0.20366,-0.573795 0.1194,-0.456553 0.0596,-0.539085 -0.29262,-0.403923 -0.36267,0.139169 -0.41299,0.05159 -0.27843,-0.484539 0.10073,-0.401343 0.0508,-0.65441 -0.12902,-0.65441 -0.1613,0 -0.29327,0.119062 -0.29327,0.264583 0,0.145521 -0.14287,0.264583 -0.3175,0.264583 -0.24694,0 -0.24694,-0.07055 0,-0.3175 0.17463,-0.174625 0.3175,-0.550265 0.3175,-0.834757 0,-0.491068 -0.0254,-0.494268 -0.50172,-0.0632 -0.33593,0.304009 -0.53543,0.352964 -0.6037,0.148142 -0.13336,-0.400085 -1.9829,0.675555 -2.35404,1.369048 -0.31052,0.580202 0.15409,1.357913 1.69609,2.839087 0.51562,0.495286 0.86622,1.054122 0.78845,1.256771 -0.10939,0.285077 0.17006,0.355816 1.27734,0.323343 l 1.41737,-0.04157 z m -1.05834,-1.058333 c 0.0899,-0.145521 0.42439,-0.26276 0.74322,-0.260532 0.47129,0.0033 0.50548,0.05202 0.18283,0.260532 -0.52126,0.336864 -1.13424,0.336864 -0.92605,0 z m 3.04271,-1.322917 c 0,-0.145521 0.23813,-0.264583 0.52917,-0.264583 0.29104,0 0.52917,0.119062 0.52917,0.264583 0,0.145521 -0.23813,0.264584 -0.52917,0.264584 -0.29104,0 -0.52917,-0.119063 -0.52917,-0.264584 z m -3.96875,1.898204 c 0,-0.120154 -0.29765,-0.498096 -0.66146,-0.83987 -0.75791,-0.71202 -0.85569,-0.542401 -0.23415,0.406184 0.41775,0.637559 0.89561,0.868959 0.89561,0.433686 z m -3.175,-0.310704 c 0,-0.145521 -0.12609,-0.264583 -0.2802,-0.264583 -0.1541,0 -0.20661,0.119062 -0.11667,0.264583 0.0899,0.145521 0.21602,0.264584 0.2802,0.264584 0.0642,0 0.11667,-0.119063 0.11667,-0.264584 z m 0.44371,-1.173551 c -0.31133,-0.790974 -0.60992,-1.394264 -0.66354,-1.340644 -0.0833,0.08332 0.0554,0.623572 0.6285,2.448049 0.0571,0.181902 0.21576,0.33073 0.35249,0.33073 0.13673,0 -0.006,-0.647161 -0.31745,-1.438135 z m 1.0832,0.531023 c -0.32705,-0.498912 -0.64182,-0.859917 -0.69951,-0.802234 -0.22471,0.22471 0.58036,1.709346 0.92693,1.709346 0.269,0 0.20817,-0.242603 -0.22742,-0.907112 z m 15.40643,5.669612 c -0.53174,-0.170294 -0.55769,-0.213361 -0.1323,-0.219614 0.29105,-0.0043 0.7673,0.09455 1.05834,0.219614 0.67422,0.289721 -0.0214,0.289721 -0.92604,0 z M 27.24405,50.255893 c 0.19099,-0.07643 0.4192,-0.06703 0.50711,0.02089 0.0879,0.08792 -0.0683,0.150453 -0.34726,0.138964 -0.30823,-0.0127 -0.37092,-0.07539 -0.15985,-0.159852 z M 49.5848,49.976525 c -0.9095,-0.228719 -1.65364,-0.501879 -1.65364,-0.607023 0,-0.213082 2.9374,0.355929 3.96875,0.768796 l 0.66145,0.264794 -0.66145,-0.0054 c -0.36381,-0.0029 -1.4056,-0.19249 -2.31511,-0.42121 z m 8.32794,-0.648684 c -0.45139,-0.286765 1.12879,-0.236388 1.79237,0.05714 0.41348,0.182896 0.31083,0.224759 -0.46946,0.191476 -0.54924,-0.02343 -1.14455,-0.135306 -1.32291,-0.248616 z m 4.17362,-0.120916 c -0.7276,-0.203656 -2.60283,-0.508624 -4.16718,-0.677708 -1.56435,-0.169084 -2.84427,-0.378492 -2.84427,-0.46535 0,-0.203416 4.25224,0.134954 6.18427,0.49211 0.81703,0.151035 1.81363,0.452609 2.21468,0.670165 0.88876,0.482128 0.37842,0.47506 -1.3875,-0.01922 z m 1.98438,-0.376447 c -1.60603,-0.473813 -4.09734,-0.945494 -8.20208,-1.552902 -1.60765,-0.237895 -1.55589,-0.245518 0.79375,-0.116896 1.38244,0.07568 3.40651,0.313222 4.49791,0.527879 2.10714,0.414429 5.55625,1.394908 5.55625,1.579472 0,0.218767 -0.95843,0.06027 -2.64583,-0.437553 z m -8.1309,0.09989 c 0.25743,-0.06708 0.61462,-0.06267 0.79375,0.0098 0.17913,0.07247 -0.0315,0.127362 -0.46806,0.12197 -0.43656,-0.0054 -0.58312,-0.06469 -0.32569,-0.131774 z m 11.43819,-0.51719 c -0.29104,-0.0605 -1.18401,-0.273893 -1.98437,-0.474215 -1.39081,-0.348105 -5.47745,-0.99498 -8.86355,-1.403012 l -1.5875,-0.191297 1.32292,-0.09445 c 0.72761,-0.05195 2.09682,0.03269 3.04271,0.188085 0.94589,0.155395 2.42946,0.351215 3.29684,0.435157 0.86737,0.08394 2.41519,0.39648 3.43958,0.694531 1.0244,0.298051 2.0709,0.537048 2.32556,0.531105 0.25466,-0.0059 0.46302,0.100857 0.46302,0.237334 0,0.251217 -0.49126,0.277131 -1.45521,0.07676 z M 53.95043,46.29266 c 0.1819,-0.0734 0.47955,-0.0734 0.66146,0 0.1819,0.0734 0.0331,0.133452 -0.33073,0.133452 -0.36381,0 -0.51263,-0.06005 -0.33073,-0.133452 z"
       id="path17" />
  </g>
</svg>
