<?xml version="1.0" encoding="UTF-8" standalone="no"?>
<!-- Created with Inkscape (http://www.inkscape.org/) -->

<svg
   width="45.59856mm"
   height="21.314699mm"
   viewBox="0 0 45.59856 21.314699"
   version="1.1"
   id="svg1"
   inkscape:version="1.4.2 (2aeb623e1d, 2025-05-12)"
   sodipodi:docname="house3.svg"
   xmlns:inkscape="http://www.inkscape.org/namespaces/inkscape"
   xmlns:sodipodi="http://sodipodi.sourceforge.net/DTD/sodipodi-0.dtd"
   xmlns="http://www.w3.org/2000/svg"
   xmlns:svg="http://www.w3.org/2000/svg">
  <sodipodi:namedview
     id="namedview1"
     pagecolor="#ffffff"
     bordercolor="#000000"
     borderopacity="0.25"
     inkscape:showpageshadow="2"
     inkscape:pageopacity="0.0"
     inkscape:pagecheckerboard="0"
     inkscape:deskcolor="#d1d1d1"
     inkscape:document-units="mm"
     inkscape:zoom="0.7349537"
     inkscape:cx="278.92913"
     inkscape:cy="494.58898"
     inkscape:window-width="1854"
     inkscape:window-height="1011"
     inkscape:window-x="0"
     inkscape:window-y="0"
     inkscape:window-maximized="1"
     inkscape:current-layer="layer1" />
  <defs
     id="defs1" />
  <g
     inkscape:label="Layer 1"
     inkscape:groupmode="layer"
     id="layer1"
     transform="translate(-31.485417,-17.462501)">
    <path
       style="fill:#000000"
       d="m 56.593904,37.981567 c -0.80036,-0.41618 -1.65654,-0.75805 -1.90261,-0.7597 -0.24607,-0.002 -0.52099,-0.12207 -0.61093,-0.26759 -0.24695,-0.39958 0.14698,-0.32705 2.1298,0.39215 1.75861,0.63788 3.1103,1.50357 2.22638,1.42589 -0.21309,-0.0187 -1.04227,-0.37457 -1.84264,-0.79075 z m 11.24479,0.13934 c -2.89235,-0.86185 -5.31566,-1.42884 -6.16798,-1.44315 -0.39115,-0.007 -1.06837,-0.16605 -1.50493,-0.35442 -0.74578,-0.3218 -0.6978,-0.33643 0.79375,-0.24206 l 1.5875,0.10044 -1.45521,-0.57613 c -3.51801,-1.39282 -5.25555,-1.90777 -6.61458,-1.96034 -2.26318,-0.0875 -2.42263,-0.11414 -2.26026,-0.37685 0.0837,-0.13547 0.0434,-0.31359 -0.0897,-0.39583 -0.13307,-0.0822 -0.32569,-0.98344 -0.42804,-2.00266 -0.10236,-1.01922 -0.24206,-1.85313 -0.31044,-1.85313 -0.0684,0 -0.28915,0.16481 -0.49058,0.36624 -0.29693,0.29693 -1.34492,0.33969 -5.53735,0.22594 -3.899448,-0.1058 -5.171108,-0.0629 -5.171108,0.17448 0,0.21309 0.49152,0.29736 1.52135,0.26084 3.622748,-0.12845 7.739058,0.04 7.739058,0.31662 0,0.1996 -1.29658,0.23677 -4.29947,0.12326 -2.7553,-0.10416 -4.442018,-0.0657 -4.696358,0.10703 -0.29559,0.20078 -0.0593,0.27408 0.92604,0.28722 5.104248,0.0681 6.583058,0.16045 6.668368,0.41639 0.0641,0.19238 -0.54763,0.24454 -1.89781,0.16184 -1.4087,-0.0863 -1.99243,-0.0318 -1.99243,0.18585 0,0.16935 0.14883,0.28858 0.33073,0.26496 0.90209,-0.11714 2.57969,0.0474 2.57969,0.25306 0,0.12832 -1.79485,0.21762 -3.98856,0.19844 -3.517518,-0.0308 -4.028708,0.0198 -4.328638,0.42814 -0.18706,0.25467 -0.64737,0.46303 -1.02292,0.46303 -0.37555,0 -0.75641,0.11906 -0.84634,0.26458 -0.0954,0.15436 0.17364,0.26458 0.64584,0.26458 0.44515,0 0.80937,0.11005 0.80937,0.24456 0,0.13603 -0.58702,0.18144 -1.32292,0.10233 -0.82322,-0.0885 -1.32292,-0.0393 -1.32292,0.13027 0,0.14987 0.14883,0.33255 0.33073,0.40595 0.1819,0.0734 -0.20505,0.15091 -0.85989,0.17224 -1.05736,0.0345 -1.12399,0.0709 -0.59532,0.32591 0.32743,0.15791 0.59532,0.37468 0.59532,0.48171 0,0.30389 -2.44467,0.24284 -3.10886,-0.0776 -0.866396,-0.41805 -0.729377,-0.72699 0.32243,-0.72699 0.70706,0 0.88277,-0.0911 0.76544,-0.39688 -0.11774,-0.30682 0.0607,-0.39687 0.78644,-0.39687 0.5163,0 1.01925,-0.13028 1.11765,-0.2895 0.0984,-0.15923 0.46366,-0.23507 0.81168,-0.16854 0.51567,0.0986 0.5764,0.053 0.32816,-0.24606 -0.44209,-0.53269 -0.0981,-0.73015 1.14435,-0.65684 0.90963,0.0537 1.04286,0.002 0.78861,-0.30405 -0.24374,-0.29369 -0.16419,-0.43321 0.3913,-0.68631 0.68699,-0.31301 0.69478,-0.34673 0.53006,-2.29533 l -0.16717,-1.97764 1.90678,-1.84724 c 1.1391,-1.10353 2.132108,-1.84724 2.466478,-1.84724 0.77486,0 0.95718,-0.25768 0.5034,-0.71146 -0.6468,-0.6468 -0.7374,-1.5608 -0.21517,-2.17072 0.50415,-0.5888 1.27669,-0.73551 1.54941,-0.29425 0.0895,0.14474 0.40315,0.39188 0.6971,0.5492 0.48865,0.26152 0.50863,0.23777 0.23312,-0.27703 -0.16574,-0.30968 -0.2558,-0.76518 -0.20015,-1.01221 0.0696,-0.30915 0.2356,-0.13988 0.5324,0.54303 0.60362,1.38893 1.00382,1.26507 0.85487,-0.26459 l -0.12238,-1.25677 0.37169,1.05834 c 0.38989,1.11016 0.48647,1.05139 0.4348,-0.26459 -0.0171,-0.43656 0.10109,-0.97234 0.26274,-1.19062 0.2461,-0.33233 0.26815,-0.3176 0.13558,0.0906 -0.12837,0.39525 -0.004,0.35771 0.6568,-0.19844 0.44832,-0.37723 0.91531,-0.68587 1.03776,-0.68587 0.12245,0 0.44074,-0.0691 0.7073,-0.15351 0.30286,-0.0959 0.18692,0.10208 -0.30908,0.52785 -0.76939,0.66045 -0.77495,0.6814 -0.18105,0.68268 0.33699,7.2e-4 0.85685,-0.12935 1.15524,-0.28904 0.39982,-0.21398 0.85062,-0.2041 1.7137,0.0375 1.23439,0.3456 1.94818,1.07114 1.93351,1.96532 -0.009,0.5187 -0.0252,0.51675 -0.50543,-0.0589 -0.34742,-0.41645 -0.76212,-0.58609 -1.38026,-0.56462 -0.55764,0.0194 -0.68841,0.0776 -0.35446,0.15797 0.88637,0.2132 0.99602,0.52371 0.1406,0.39816 -0.4833,-0.0709 -0.80206,-6.3e-4 -0.80206,0.1769 0,0.16203 0.27782,0.29461 0.61737,0.29461 0.33956,0 1.0837,0.41176 1.65365,0.91503 l 1.03627,0.91503 -0.91281,0.011 c -0.69427,0.008 -0.83908,0.0847 -0.60485,0.31898 0.23423,0.23423 0.18782,0.41216 -0.19385,0.74318 -0.41517,0.36008 -0.8132,0.40061 -2.30556,0.23479 -2.5609,-0.28456 -5.96671,-0.26499 -6.43397,0.037 -0.27139,0.17539 0.43967,0.26103 2.24896,0.27089 3.71088,0.0202 6.82016,0.27308 7.20989,0.58637 0.22297,0.17924 0.33073,0.17628 0.33073,-0.009 0,-0.15121 -0.14883,-0.32808 -0.33073,-0.39304 -0.65366,-0.23345 0.0641,-0.51627 1.35986,-0.53581 0.72665,-0.011 1.26158,-0.11636 1.18874,-0.23422 -0.0728,-0.11786 -0.006,-0.21429 0.14777,-0.21429 0.1541,0 0.29393,0.14883 0.31071,0.33073 0.0692,0.74979 0.11613,0.88782 0.4292,1.26215 0.18008,0.21532 0.72192,0.92728 1.20408,1.58212 0.85296,1.15842 1.49715,1.49736 1.69841,0.89359 0.0545,-0.16338 -0.17374,-0.38685 -0.50712,-0.49661 l -0.60613,-0.19957 0.59531,-0.11711 c 0.32743,-0.0644 0.59532,-0.24079 0.59532,-0.39197 0,-0.16107 -0.27385,-0.20613 -0.66146,-0.10884 -0.38144,0.0957 -0.66146,0.0519 -0.66146,-0.10361 0,-0.1483 0.15584,-0.26963 0.34631,-0.26963 0.19046,0 0.57742,-0.18128 0.85989,-0.40285 0.47859,-0.3754 0.44597,-0.39142 -0.4786,-0.23514 -1.13672,0.19215 -1.13026,0.20231 -0.57688,-0.90696 0.22842,-0.45788 0.33946,-1.07148 0.24676,-1.36357 -0.24947,-0.786 -0.58647,-0.64422 -0.4672,0.19654 0.0576,0.40571 -0.0804,0.96171 -0.31195,1.25677 -0.39496,0.50342 -0.40222,0.49293 -0.14904,-0.21566 0.33545,-0.93884 0.33582,-1.23954 0.002,-1.23954 -0.14552,0 -0.26458,0.28307 -0.26458,0.62906 0,0.34598 -0.19809,0.79247 -0.44019,0.99218 -0.39792,0.32826 -0.41063,0.30764 -0.13229,-0.21479 0.42991,-0.80693 0.38391,-1.00442 -0.13486,-0.57896 -0.39238,0.32182 -0.42642,0.29967 -0.29918,-0.1946 0.079,-0.30676 0.0342,-0.75324 -0.0996,-0.99219 -0.15746,-0.28137 -0.14527,-0.43445 0.0346,-0.43445 0.15275,0 0.27773,0.11906 0.27773,0.26458 0,0.14552 0.13395,0.26458 0.29766,0.26458 0.18875,0 0.24032,-0.28666 0.14095,-0.78349 -0.0862,-0.43092 -0.0713,-0.83366 0.0331,-0.89497 0.37153,-0.21827 1.35665,0.33793 1.80178,1.01728 0.36913,0.56337 0.40084,0.85767 0.17256,1.60148 -0.15382,0.50119 -0.1877,0.96811 -0.0753,1.03758 0.37783,0.23351 1.10251,-0.85861 1.12636,-1.69746 l 0.0236,-0.8311 0.48686,0.73836 c 0.60123,0.91184 0.6101,1.5062 0.0524,3.51212 -0.34432,1.23846 -0.57676,1.62142 -1.08745,1.79165 -0.61455,0.20485 -0.65319,0.33874 -0.71761,2.48681 l -0.0681,2.2703 2.28001,0.74191 c 1.25401,0.40805 2.62367,0.91154 3.04369,1.11887 0.42002,0.20734 2.14643,0.54949 3.83646,0.76035 3.38519,0.42235 5.82459,1.04026 6.27695,1.59 0.16156,0.19634 0.54149,0.35698 0.84428,0.35698 0.30279,0 0.60676,0.091 0.67548,0.20218 0.25033,0.40504 -1.58876,0.28429 -3.13643,-0.20593 -2.68804,-0.85144 -8.50195,-1.80436 -8.2194,-1.34719 0.0782,0.12659 0.93074,0.31461 1.89446,0.41782 1.81501,0.19437 3.98312,0.83659 5.30051,1.57008 l 0.75985,0.42306 -0.79375,-0.16835 c -0.43656,-0.0926 -1.19899,-0.33266 -1.69427,-0.53348 -0.49529,-0.20083 -0.95401,-0.31164 -1.01939,-0.24626 -0.0654,0.0654 -0.43406,-0.005 -0.81928,-0.15708 -1.23216,-0.48546 -6.71396,-1.51419 -6.38894,-1.19896 0.0728,0.0706 1.32292,0.42959 2.77813,0.79784 2.57471,0.65155 4.63021,1.3798 4.63021,1.64044 0,0.18141 -0.14205,0.14995 -2.51355,-0.55671 z m -4.89479,-2.60762 c 0,-0.065 -0.71722,-0.3796 -1.59383,-0.69922 -0.87661,-0.31963 -1.53917,-0.63581 -1.47235,-0.70263 0.13709,-0.1371 2.79093,0.68865 3.19847,0.99522 0.43906,0.33026 2.1556,0.61988 1.85209,0.31249 -0.32706,-0.33125 -4.42681,-1.76687 -5.68854,-1.99197 -0.91286,-0.16286 -0.91662,-0.15978 -0.26459,0.21636 0.85494,0.49319 0.45795,0.49339 -1.16653,5.9e-4 -0.71435,-0.21671 -1.54779,-0.38714 -1.85208,-0.37873 -0.30429,0.008 0.54317,0.35923 1.88326,0.7796 1.34009,0.42038 2.76884,0.94451 3.175,1.16475 0.68932,0.37377 1.9291,0.56885 1.9291,0.30354 z m -10.19968,-5.10745 -0.0811,-2.3151 0.34307,2.38125 0.34308,2.38125 0.0348,-1.99995 c 0.0359,-2.06191 -0.4183,-3.33241 -0.98763,-2.76255 -0.29841,0.29869 -0.0792,4.63021 0.23433,4.63021 0.10703,0 0.15808,-1.0418 0.11345,-2.31511 z m 1.43537,0.66146 c -0.0796,-2.68064 -0.45098,-3.26564 -0.41988,-0.66146 0.0152,1.27331 0.12696,2.31511 0.24833,2.31511 0.12137,0 0.19857,-0.74414 0.17155,-1.65365 z m 2.94348,0.8599 c 0,-0.43656 -0.11906,-0.79375 -0.26458,-0.79375 -0.14552,0 -0.26459,0.35719 -0.26459,0.79375 0,0.43656 0.11907,0.79375 0.26459,0.79375 0.14552,0 0.26458,-0.35719 0.26458,-0.79375 z m 1.05833,-1.19063 c 0,-1.0914 -0.0893,-1.98437 -0.19843,-1.98437 -0.10914,0 -0.19844,0.89297 -0.19844,1.98437 0,1.09141 0.0893,1.98438 0.19844,1.98438 0.10914,0 0.19843,-0.89297 0.19843,-1.98438 z m 0.76306,-0.19843 c -0.0344,-2.44835 -0.15816,-2.28359 -0.29805,0.39687 -0.0513,0.98227 0.002,1.78594 0.11777,1.78594 0.11603,0 0.19716,-0.98227 0.18028,-2.18281 z m -3.75093,0.53225 c -0.0633,-0.32912 -0.11747,-0.12215 -0.1204,0.45993 -0.003,0.58209 0.0488,0.85137 0.11506,0.5984 0.0662,-0.25296 0.0686,-0.72921 0.005,-1.05833 z m 4.3776,-0.39996 c -0.18301,-2.38866 -0.33139,-2.43802 -0.33139,-0.11025 0,1.0429 0.10535,1.89619 0.23411,1.89619 0.12877,0 0.17254,-0.80368 0.0973,-1.78594 z m -15.67722,0.93002 c 0,-0.11133 -0.9,-0.20242 -1.999988,-0.20242 -1.1,0 -1.94419,0.0903 -1.87598,0.20066 0.16271,0.26327 3.875968,0.26496 3.875968,0.002 z m 11.11249,-2.43576 c 0,-0.35522 -0.11906,-0.71943 -0.26458,-0.80937 -0.15436,-0.0954 -0.26458,0.17365 -0.26458,0.64585 0,0.44515 0.11906,0.80936 0.26458,0.80936 0.14552,0 0.26458,-0.29063 0.26458,-0.64584 z m 0.79375,-0.29581 c 0,-0.35522 -0.11906,-0.64585 -0.26458,-0.64585 -0.14552,0 -0.26458,0.36422 -0.26458,0.80937 0,0.4722 0.11022,0.74124 0.26458,0.64584 0.14552,-0.0899 0.26458,-0.45415 0.26458,-0.80936 z m 0.79375,0.28019 c 0,-0.89406 0.46652,-0.84299 0.60424,0.0661 0.10259,0.67722 0.11297,0.66805 0.14987,-0.13229 0.0346,-0.75141 -0.0438,-0.8599 -0.62181,-0.8599 -0.55857,0 -0.66146,0.12347 -0.66146,0.79375 0,0.43656 0.11906,0.79375 0.26458,0.79375 0.14552,0 0.26458,-0.29765 0.26458,-0.66146 z m -14.1552,-0.13229 c -0.740878,-0.31837 -2.248958,-0.31837 -2.248958,0 0,0.14552 0.62508,0.25622 1.38906,0.24599 1.020158,-0.0137 1.248528,-0.079 0.859898,-0.24599 z m 4.83243,-0.40944 c 0.52758,-0.36953 0.56924,-0.36953 0.42744,0 -0.24546,0.63967 0.59756,0.4979 1.1053,-0.18587 l 0.44206,-0.59531 -0.1377,0.59531 c -0.20903,0.90367 0.50819,0.68487 1.08409,-0.33073 0.27895,-0.49192 0.30064,-0.4773 0.30812,0.20775 0.007,0.66507 0.062,0.70802 0.56168,0.44061 0.3045,-0.16296 0.84894,-0.96402 1.20986,-1.78014 0.36093,-0.81612 0.85594,-1.63256 1.10002,-1.81431 0.4048,-0.30144 0.3973,-0.32797 -0.0854,-0.30205 -0.29104,0.0156 -2.3151,-0.0625 -4.49791,-0.17369 -2.18282,-0.11117 -4.38798,-0.22017 -4.90036,-0.24223 -0.82011,-0.0353 -1.09904,0.14435 -2.330538,1.50109 -0.76941,0.84766 -1.35294,1.67916 -1.29673,1.84778 0.0562,0.16862 1.21489,0.4731 2.574848,0.67661 1.96969,0.29475 2.57877,0.30376 2.99431,0.0443 0.44516,-0.27801 0.49784,-0.26375 0.3593,0.0973 -0.20795,0.54189 0.31794,0.54852 1.0816,0.0136 z m -0.26837,-1.35329 c 0.1819,-0.0734 0.47956,-0.0734 0.66146,0 0.1819,0.0734 0.0331,0.13346 -0.33073,0.13346 -0.3638,0 -0.51263,-0.0601 -0.33073,-0.13346 z m -3.30365,-0.27921 c 0.40218,-0.0608 0.99749,-0.0592 1.32291,0.004 0.32542,0.0628 -0.004,0.11256 -0.73124,0.11057 -0.7276,-0.002 -0.99386,-0.0534 -0.59167,-0.11418 z m 4.92741,-0.45739 c -0.0649,-0.0649 -1.48377,-0.18276 -3.15295,-0.26182 -3.605488,-0.17077 -3.548838,-0.1613 -2.35898,-0.39422 0.96089,-0.1881 6.75661,0.31322 7.0535,0.61012 0.0902,0.0902 -0.19318,0.164 -0.62974,0.164 -0.43656,0 -0.84689,-0.0531 -0.91183,-0.11808 z m 0.0299,-0.98708 c -1.81901,-0.12947 -3.81331,-0.2008 -4.43177,-0.15852 -0.61847,0.0423 -1.12448,-0.0294 -1.12448,-0.15932 0,-0.35259 8.43443,-0.038 8.80068,0.32828 0.16554,0.16553 0.2474,0.28387 0.18192,0.26297 -0.0655,-0.0209 -1.60735,-0.14394 -3.42635,-0.27341 z m 8.25499,2.11058 c -0.51406,-0.51406 -0.36288,-0.86392 0.16636,-0.38497 0.79825,0.72241 1.2046,0.52466 0.59532,-0.28972 -1.17904,-1.57595 -2.37931,-2.82296 -2.55146,-2.65081 -0.0996,0.0996 0.13141,0.55242 0.51332,1.00629 0.38191,0.45387 0.69438,0.96042 0.69438,1.12566 0,0.16524 -0.35235,-0.11179 -0.783,-0.61561 -0.43065,-0.50383 -0.78783,-0.81844 -0.79375,-0.69914 -0.017,0.34239 1.53402,2.50035 1.90429,2.64951 0.54369,0.21902 0.58941,0.19365 0.25454,-0.14121 z m -2.43416,-0.31156 c 0,-0.20047 -0.1786,-0.5127 -0.39688,-0.69386 -0.21828,-0.18116 -0.39687,-0.45802 -0.39687,-0.61526 0,-0.15723 0.47625,0.17916 1.05833,0.74755 0.58208,0.56839 1.05833,0.90658 1.05833,0.75154 0,-0.21407 -1.17166,-1.87156 -1.704,-2.41056 -0.0822,-0.0832 -1.471,1.97729 -1.471,2.18252 0,0.0759 0.17486,0.13796 0.38857,0.13796 0.2367,0 0.32905,-0.15512 0.23628,-0.39687 -0.0838,-0.21828 -0.0285,-0.39688 0.12277,-0.39688 0.15128,0 0.35064,0.23813 0.44301,0.52917 0.19053,0.60032 0.66146,0.71757 0.66146,0.16469 z m 4.01554,-0.62771 c -0.96401,-1.20855 -2.42804,-2.62174 -2.42804,-2.34372 0,0.31324 2.69322,3.33591 2.97233,3.33591 0.13592,0 -0.10901,-0.44649 -0.54429,-0.99219 z m -6.16813,-3.76232 c -0.47421,-0.6414 -0.71895,-0.72566 -2.25198,-0.77529 -0.94597,-0.0306 -2.12787,-0.1079 -2.62644,-0.17174 -0.50206,-0.0643 -0.90649,0.001 -0.90649,0.14691 0,0.14463 0.62508,0.27036 1.38906,0.27941 1.73213,0.0205 3.7218,0.24066 3.90015,0.43152 0.0741,0.0793 -1.02611,0.0649 -2.44494,-0.0319 -2.87168,-0.19606 -3.68488,0.23319 -0.92604,0.48881 0.9095,0.0843 2.01083,0.18749 2.44739,0.22938 0.43656,0.0419 1.0542,0.0866 1.37253,0.0994 l 0.57879,0.0232 z m -6.44082,-0.25067 c 0.0793,-0.20624 0.0141,-0.5039 -0.14484,-0.66146 -0.20836,-0.2066 -0.24165,-0.13893 -0.11937,0.24268 0.15791,0.49278 0.14354,0.49761 -0.20892,0.0703 -0.43819,-0.5313 -0.76252,-0.35373 -0.52298,0.28633 0.14227,0.38017 0.10541,0.38982 -0.28282,0.074 -0.40014,-0.32549 -0.66121,-0.0722 -0.29895,0.2901 0.2873,0.2873 1.43591,0.0675 1.57788,-0.30194 z m 7.17481,0.11038 c -0.0838,-0.21828 -0.007,-0.40066 0.17013,-0.40529 0.18708,-0.005 0.12806,-0.15595 -0.1406,-0.35989 -0.51151,-0.3883 -0.64293,-0.83245 -0.15755,-0.53247 0.18925,0.11697 0.23364,0.0726 0.11667,-0.11667 -0.29834,-0.48273 -0.68672,-0.35621 -0.68672,0.2237 0,0.29104 0.12609,0.52917 0.2802,0.52917 0.15411,0 0.20661,0.11906 0.11668,0.26458 -0.0899,0.14552 -0.0899,0.38364 0,0.52917 0.25267,0.40883 0.47189,0.31254 0.30119,-0.1323 z m -1.49182,-1.18002 c 0,-0.16315 -0.67322,-0.26761 -1.65365,-0.25659 -1.79492,0.0202 -1.48404,0.33081 0.45542,0.45503 0.70239,0.045 1.19823,-0.0371 1.19823,-0.19844 z m 0.0654,-1.27236 c -0.0996,-0.67853 -0.18406,-0.72528 -1.1448,-0.63366 -0.78853,0.0752 -1.03728,0.21386 -1.03728,0.57824 0,0.55764 0.34726,0.73817 1.47553,0.76712 0.74266,0.0191 0.80464,-0.0434 0.70655,-0.7117 z m -1.53378,-0.0867 c -0.40761,-0.15948 -0.33538,-0.20579 0.34389,-0.22048 0.47294,-0.0102 0.8599,0.0806 0.8599,0.20189 0,0.27523 -0.52705,0.28337 -1.20379,0.0186 z m 3.18816,-1.29741 c -0.0899,-0.14553 -0.57321,-0.26459 -1.07395,-0.26459 -0.50073,0 -0.91042,0.11906 -0.91042,0.26459 0,0.14552 0.48327,0.26458 1.07395,0.26458 0.64859,0 1.00918,-0.10479 0.91042,-0.26458 z m 5.42396,18.86684 c -2.99013,-1.0066 -2.84882,-0.94034 -2.2883,-1.07298 0.57238,-0.13544 3.90516,0.88759 4.59413,1.41021 0.71868,0.54516 0.006,0.44086 -2.30583,-0.33723 z m 4.56732,0.1767 c -0.61667,-0.27403 -1.86655,-0.6334 -2.77751,-0.79859 -1.89855,-0.34427 -3.0859,-0.88715 -1.39293,-0.63688 1.44037,0.21294 4.38577,1.08145 5.32026,1.5688 1.087,0.56688 0.19247,0.46315 -1.14982,-0.13333 z m -9.32982,-3.07112 c -1.90038,-0.97275 -4.53643,-1.54365 -3.58745,-0.77695 0.63838,0.51576 0.60683,0.51299 -1.17505,-0.10312 -1.2968,-0.44839 -1.3633,-0.50518 -0.61092,-0.52172 0.46435,-0.0102 0.9076,-0.12101 0.98499,-0.24624 0.32512,-0.52604 5.20571,1.284 5.98097,2.21814 0.17839,0.21494 0.27999,0.37267 0.22579,0.3505 -0.0542,-0.0222 -0.87244,-0.43644 -1.81833,-0.92061 z m 4.63021,0.69633 c -0.0899,-0.14553 -0.0374,-0.26459 0.11668,-0.26459 0.1541,0 0.28019,0.11906 0.28019,0.26459 0,0.14552 -0.0525,0.26458 -0.11667,0.26458 -0.0642,0 -0.19026,-0.11906 -0.2802,-0.26458 z m -2.72347,-0.97154 c -0.91583,-0.37465 -1.61998,-0.72634 -1.56477,-0.78155 0.12086,-0.12086 2.895,0.81531 3.55551,1.19986 0.91411,0.53219 -0.28119,0.28102 -1.99074,-0.41831 z m -16.458818,-1.6743 c 0,-0.14552 0.26789,-0.26276 0.59531,-0.26053 0.4814,0.003 0.51937,0.0531 0.19844,0.26053 -0.51296,0.3315 -0.79375,0.3315 -0.79375,0 z"
       id="path7" />
  </g>
</svg>
