<?xml version="1.0" encoding="UTF-8" standalone="no"?>
<!-- Created with Inkscape (http://www.inkscape.org/) -->

<svg
   width="59.18906mm"
   height="25.778633mm"
   viewBox="0 0 59.18906 25.778633"
   version="1.1"
   id="svg1"
   inkscape:version="1.4.2 (2aeb623e1d, 2025-05-12)"
   sodipodi:docname="house4.svg"
   xmlns:inkscape="http://www.inkscape.org/namespaces/inkscape"
   xmlns:sodipodi="http://sodipodi.sourceforge.net/DTD/sodipodi-0.dtd"
   xmlns="http://www.w3.org/2000/svg"
   xmlns:svg="http://www.w3.org/2000/svg">
  <sodipodi:namedview
     id="namedview1"
     pagecolor="#ffffff"
     bordercolor="#000000"
     borderopacity="0.25"
     inkscape:showpageshadow="2"
     inkscape:pageopacity="0.0"
     inkscape:pagecheckerboard="0"
     inkscape:deskcolor="#d1d1d1"
     inkscape:document-units="mm"
     inkscape:zoom="0.7349537"
     inkscape:cx="331.9937"
     inkscape:cy="407.50866"
     inkscape:window-width="1854"
     inkscape:window-height="1011"
     inkscape:window-x="0"
     inkscape:window-y="0"
     inkscape:window-maximized="1"
     inkscape:current-layer="layer1" />
  <defs
     id="defs1" />
  <g
     inkscape:label="Layer 1"
     inkscape:groupmode="layer"
     id="layer1"
     transform="translate(-17.197917,-40.745833)">
    <path
       style="fill:#000000"
       d="m 31.988593,66.322407 c 0.94395,-0.52821 3.1296,-0.7071 4.90969,-0.40185 1.0095,0.17311 1.83511,0.37981 1.83469,0.45933 -4.1e-4,0.0795 -1.59932,0.14458 -3.55312,0.14458 -1.95379,0 -3.38986,-0.0909 -3.19126,-0.20206 z m 6.81203,-1.06709 c -0.40059,-0.11596 -1.31454,-0.14889 -2.031,-0.0732 -0.99705,0.10535 -1.2298,0.0648 -0.99208,-0.17293 0.41654,-0.41655 3.70528,-0.29159 4.99634,0.18984 l 1.00256,0.37385 -1.12373,-0.0534 c -0.61806,-0.0294 -1.45149,-0.14825 -1.85209,-0.2642 z m 3.79509,-0.46136 c -0.42252,-0.12641 -1.58104,-0.30992 -2.57449,-0.40781 -0.99344,-0.0979 -1.75563,-0.25992 -1.69374,-0.36006 0.16661,-0.26957 4.01338,0.19455 5.27113,0.63598 0.81657,0.28658 0.92311,0.37941 0.42679,0.37182 -0.36381,-0.006 -1.00716,-0.11353 -1.42969,-0.23993 z m 2.36388,-0.81752 c -1.26198,-0.29552 -2.25514,-0.42 -3.84461,-0.48187 -0.99861,-0.0389 -1.09424,-0.0851 -0.59295,-0.28651 0.32871,-0.13208 1.06639,-0.20042 1.63927,-0.15185 0.67013,0.0568 1.08782,-0.0321 1.17119,-0.24935 0.13905,-0.36238 1.94641,-0.24563 2.94186,0.19004 0.43487,0.19032 0.39764,0.21319 -0.20892,0.12833 -1.0846,-0.15174 -0.7402,0.39212 0.48905,0.7723 0.98082,0.30333 0.99562,0.32257 0.24904,0.32366 -0.43656,6.4e-4 -1.26633,-0.10949 -1.84393,-0.24475 z m -0.33888,-0.93449 c -0.1819,-0.0734 -0.47956,-0.0734 -0.66146,0 -0.1819,0.0734 -0.0331,0.13345 0.33073,0.13345 0.3638,0 0.51263,-0.0601 0.33073,-0.13345 z m 3.30729,0.51489 c -0.40018,-0.0606 -0.7276,-0.23084 -0.7276,-0.37826 0,-0.27166 1.2074,-0.0995 2.24895,0.32074 0.47212,0.19047 0.45785,0.21102 -0.13229,0.19061 -0.3638,-0.0126 -0.98888,-0.0725 -1.38906,-0.13309 z m 7.99893,-0.031 c -0.14293,-0.0485 -0.25987,-0.18406 -0.25987,-0.30122 0,-0.20476 3.429606,-0.10563 3.640456,0.10522 0.13088,0.13088 -3.032116,0.31427 -3.380586,0.196 z m -4.89008,-0.47331 c -1.01864,-0.20872 -2.53669,-0.3956 -3.37343,-0.41529 -1.92212,-0.0452 -2.01471,-0.47841 -0.10226,-0.47841 1.71819,0 3.76783,0.36806 4.96916,0.89232 1.10304,0.48136 0.85021,0.4816 -1.49347,10e-4 z m 3.2024,-0.3202 c -0.48683,-0.78771 -6.37734,-2.94595 -11.0076,-4.0331 -0.50933,-0.11959 -1.55765,-0.39709 -2.32962,-0.61668 -0.77197,-0.21959 -2.08166,-0.47708 -2.91042,-0.57219 -0.82876,-0.0951 -1.57205,-0.21136 -1.65176,-0.25832 -0.0797,-0.047 -0.30818,0.0155 -0.50771,0.13883 -0.24283,0.15008 0.0676,0.28248 0.93867,0.40044 1.46561,0.19845 4.60947,1.13665 4.9924,1.48985 0.36312,0.33492 0.0905,0.29247 -1.76715,-0.27517 -2.21336,-0.67634 -4.67217,-1.19844 -4.84239,-1.02822 -0.0756,0.0756 0.72872,0.34678 1.78743,0.60255 1.93436,0.46733 3.53748,1.1281 3.30382,1.36176 -0.069,0.069 -0.98759,-0.17571 -2.04127,-0.54385 -2.22537,-0.77749 -4.35571,-1.12166 -4.59058,-0.74162 -0.0901,0.14571 0.27502,0.33135 0.82599,0.42002 1.56948,0.25256 3.7655,0.96426 3.7655,1.22034 0,0.12887 -0.62507,0.018 -1.38906,-0.24634 -1.63287,-0.56501 -3.55237,-0.9533 -2.71198,-0.54859 0.29104,0.14016 0.99393,0.43965 1.56198,0.66553 0.56805,0.22589 0.97048,0.47304 0.89429,0.54922 -0.0762,0.0762 -0.71954,-0.0892 -1.42968,-0.36747 -0.71015,-0.27829 -1.70789,-0.57971 -2.21721,-0.66983 l -0.92605,-0.16384 1.05834,0.50822 c 1.28698,0.61801 0.97684,0.67754 -0.76966,0.14772 -0.71435,-0.21671 -1.54779,-0.38605 -1.85208,-0.37631 -0.32621,0.0104 -0.11893,0.15435 0.50507,0.35068 1.26667,0.39853 2.34075,0.95094 2.17373,1.11796 -0.0663,0.0663 -0.70158,-0.10487 -1.41173,-0.38038 -1.74447,-0.67681 -2.74637,-0.90052 -2.74637,-0.61325 0,0.13102 0.54094,0.37443 1.2021,0.54091 0.66115,0.16648 1.13319,0.41419 1.04896,0.55047 -0.0938,0.15181 -0.4313,0.14075 -0.87137,-0.0286 -0.96087,-0.36969 -4.45802,-0.9451 -7.06824,-1.16298 -1.16416,-0.0972 -2.65244,-0.25502 -3.30729,-0.35076 l -1.19062,-0.17407 0.0921,-1.82113 0.0921,-1.82112 -0.65709,0.16492 c -0.41696,0.10465 -0.77057,0.0282 -0.96761,-0.20924 -0.4518,-0.54438 0.38913,-2.04742 2.36593,-4.22875 1.56036,-1.72179 1.60644,-1.81246 1.16749,-2.2975 -0.39012,-0.43106 -0.40855,-0.61128 -0.12596,-1.23149 0.18207,-0.39959 0.37782,-1.19679 0.435,-1.77155 0.13183,-1.32513 0.65348,-1.84512 1.8179,-1.81211 0.68478,0.0194 0.96144,-0.10213 1.07955,-0.47425 0.0873,-0.27519 0.0813,-0.62568 -0.0133,-0.77888 -0.33396,-0.54035 0.45437,-1.04911 1.62559,-1.04911 0.63703,0 1.15823,0.10983 1.15823,0.24406 0,0.13424 0.42505,0.38435 0.94457,0.5558 0.51951,0.17146 1.00849,0.47835 1.08664,0.68198 0.21823,0.56871 1.23011,0.4411 2.30924,-0.29122 0.5361,-0.3638 1.08021,-0.66146 1.20915,-0.66146 0.12893,0 0.27286,-0.26789 0.31983,-0.59531 0.0659,-0.4593 0.23505,-0.57846 0.74038,-0.52156 0.79283,0.0893 0.94483,0.24345 1.16628,1.18302 0.20444,0.86741 -0.4837,1.06001 -0.709,0.19844 -0.0761,-0.29104 -0.25745,-0.52917 -0.40297,-0.52917 -0.14552,0 -0.20231,0.23813 -0.1262,0.52917 0.11337,0.43351 0.008,0.52916 -0.58224,0.52916 -0.54524,0 -0.68195,0.10081 -0.56169,0.41418 0.12455,0.3246 0.0365,0.37531 -0.40731,0.23446 -0.47931,-0.15213 -0.5439,-0.0943 -0.42073,0.3767 0.13584,0.51946 0.10814,0.53025 -0.41701,0.16242 -0.74858,-0.52433 -1.07228,-0.49788 -0.84457,0.069 0.52667,1.3112 0.52383,1.27704 0.076,0.91319 -0.64227,-0.52185 -0.80384,0.0666 -0.17463,0.63598 0.30108,0.27249 0.66333,0.71199 0.80499,0.97668 0.23245,0.43434 0.16855,0.46455 -0.65567,0.30992 -1.25209,-0.23489 -1.54437,0.3018 -0.60459,1.11017 0.39524,0.33996 0.8608,0.61835 1.03459,0.61863 0.17378,2.8e-4 0.71228,0.582 1.19666,1.29271 0.63559,0.93256 1.01387,1.25737 1.3592,1.16706 0.26319,-0.0688 0.56639,0.0171 0.6738,0.19085 0.1387,0.22442 0.0324,0.26426 -0.36701,0.13751 -0.64356,-0.20426 -0.74659,0.25433 -0.21432,0.95388 0.25679,0.33748 0.41831,0.36719 0.71919,0.13229 0.59564,-0.46501 0.4605,-1.30616 -0.27404,-1.70577 -0.65718,-0.35752 -0.65614,-0.35871 0.18731,-0.21491 0.7067,0.12049 0.82055,0.0727 0.68264,-0.28671 -0.10243,-0.26692 -0.059,-0.36546 0.11406,-0.25853 0.15376,0.095 0.43119,-0.01 0.61652,-0.23322 0.18532,-0.2233 0.49647,-0.34479 0.69143,-0.26998 0.64977,0.24934 0.36532,-0.11312 -0.50541,-0.64401 -1.09327,-0.66658 -0.83639,-0.66571 0.8599,0.003 1.52452,0.60091 1.5875,0.61298 1.5875,0.30409 0,-0.1238 -1.00344,-0.56578 -2.22988,-0.98218 -1.22643,-0.41641 -2.17768,-0.84156 -2.11388,-0.94479 0.0638,-0.10323 0.84974,0.0999 1.74652,0.4513 1.92354,0.75383 2.43621,0.62796 0.65375,-0.16051 -0.67733,-0.29961 -1.23151,-0.59577 -1.23151,-0.65812 0,-0.14288 1.08558,0.26639 2.10532,0.79372 0.42835,0.22151 0.87403,0.39878 0.99039,0.39394 0.35638,-0.0148 -1.0136,-1.04953 -1.38962,-1.04953 -0.19357,0 -0.4149,-0.10187 -0.49184,-0.22636 -0.077,-0.1245 0.18392,-0.16776 0.57969,-0.0961 1.03101,0.18661 0.5083,-0.25504 -0.95275,-0.80499 -0.88172,-0.33188 -1.0096,-0.43241 -0.44432,-0.34925 0.43657,0.0642 1.03188,0.19585 1.32292,0.29253 0.43183,0.14345 0.45617,0.12208 0.13229,-0.11615 -0.21828,-0.16056 -1.03078,-0.48046 -1.80555,-0.71089 -0.77478,-0.23043 -1.34678,-0.48087 -1.27111,-0.55654 0.0757,-0.0757 0.69999,0.0541 1.3874,0.28829 1.40969,0.48033 1.8667,0.41011 0.63941,-0.0983 -0.83078,-0.34412 -0.90449,-0.521 -0.63547,-1.52487 0.22854,-0.85278 1.37393,-0.79499 2.09201,0.10557 l 0.55886,0.70087 0.54173,-1.0316 c 0.42887,-0.81669 0.67556,-1.01747 1.18409,-0.96374 0.58429,0.0617 0.6329,-0.0132 0.5377,-0.82865 -0.18609,-1.59402 1.27671,-1.61255 1.80136,-0.0228 0.28132,0.8524 0.44436,0.95474 2.53853,1.5935 l 2.2379,0.6826 0.51173,-0.61396 c 0.28145,-0.33767 0.51569,-0.71616 0.52053,-0.84107 0.0137,-0.35348 1.30165,0.0568 2.15201,0.68545 0.61318,0.45334 0.76721,0.76971 0.76721,1.5758 0,0.55472 0.12074,1.00857 0.26831,1.00857 0.14757,0 0.62693,0.38696 1.06525,0.8599 0.67237,0.72549 0.77509,1.01248 0.65716,1.83611 -0.0769,0.53692 -0.0403,1.0377 0.0813,1.11283 0.38721,0.23932 0.002,1.75173 -0.51714,2.02948 -0.4549,0.24345 -0.46568,0.33299 -0.12051,1.00049 0.61512,1.1895 0.16264,1.51385 -1.16617,0.83594 l -1.12653,-0.57471 0.14457,1.34477 c 0.11079,1.03059 0.0602,1.34478 -0.21666,1.34478 -0.19868,0 -0.43482,-0.11906 -0.52475,-0.26459 -0.27652,-0.44742 -0.66146,-0.29344 -0.66146,0.26459 0,0.38364 0.17639,0.52916 0.64141,0.52916 0.35277,0 1.87082,0.43283 3.37343,0.96185 1.50262,0.52901 3.20828,1.00386 3.79037,1.05521 1.03446,0.0913 1.04043,0.087 0.26458,-0.18913 -0.43656,-0.15538 -1.68672,-0.62025 -2.77812,-1.03303 -1.09141,-0.41279 -2.34157,-0.83909 -2.77813,-0.94734 -0.53763,-0.1333 -0.64815,-0.23136 -0.34251,-0.3039 0.57833,-0.13725 4.00457,0.79488 6.56022,1.78474 1.914486,0.74152 2.226656,0.77828 8.863536,1.0436 6.81087,0.27229 8.93729,0.42353 10.15168,0.72206 0.57392,0.14109 0.54188,0.18321 -0.38067,0.50037 -0.83978,0.2887 -1.33491,0.28363 -2.9765,-0.0304 -1.08303,-0.20722 -3.23345,-0.44533 -4.77871,-0.52913 -1.54525,-0.0838 -3.3751,-0.19514 -4.06632,-0.24743 -0.69122,-0.0523 -1.25677,-0.006 -1.25677,0.10312 0,0.19301 3.46089,0.62323 7.87135,0.97848 1.20055,0.0967 2.18282,0.27776 2.18282,0.40236 0,0.28092 0.24272,0.28957 -3.70417,-0.13201 -1.81901,-0.19429 -3.54542,-0.35953 -3.83646,-0.36719 -0.29104,-0.008 -1.71979,-0.10087 -3.175,-0.20714 -2.11478,-0.15443 -2.58345,-0.12669 -2.33504,0.13823 0.1863,0.19867 1.24614,0.37386 2.64583,0.43734 2.67151,0.12115 7.57271,0.61319 7.73695,0.77672 0.31826,0.31686 -0.35218,0.35564 -1.9889,0.11505 -2.36264,-0.34731 -11.144526,-0.67099 -10.894226,-0.40153 0.10543,0.1135 1.534176,0.24554 3.174996,0.29342 2.97471,0.0868 6.53657,0.51173 6.80866,0.81225 0.0789,0.0871 -0.63051,0.0794 -1.57639,-0.0172 -3.5808,-0.36562 -9.150606,-0.47477 -8.671576,-0.16994 0.25111,0.15979 0.99758,0.30139 1.658836,0.31466 0.66125,0.0133 1.26649,0.12803 1.34497,0.25502 0.0785,0.12699 -0.78705,0.20587 -1.923406,0.17529 -1.13637,-0.0306 -2.38055,0.0386 -2.76485,0.15377 -0.41405,0.12406 -0.765,0.10216 -0.86137,-0.0538 z m 1.28229,-0.81544 c -0.63711,-0.61325 -8.56679,-3.33625 -9.14969,-3.14195 -0.14577,0.0486 0.72517,0.41287 1.93541,0.80951 1.21023,0.39665 2.97433,1.12532 3.92022,1.61928 1.55315,0.81108 3.93053,1.32578 3.29406,0.71316 z m 0.89817,-0.68111 c -0.30624,-0.30624 -7.27776,-2.74026 -9.02088,-3.14953 -0.40018,-0.094 -0.7276,-0.0766 -0.7276,0.0386 0,0.11521 0.63277,0.35658 1.40616,0.53639 0.77338,0.1798 2.70815,0.85647 4.29948,1.5037 2.44457,0.99427 4.51456,1.54254 4.04284,1.07082 z m -0.44968,-1.21325 c -1.9636,-0.87154 -6.5341,-2.36222 -7.20536,-2.35005 -0.35103,0.006 0.51081,0.41257 1.91518,0.90267 1.40438,0.49011 2.82618,1.03708 3.15955,1.2155 0.84728,0.45345 1.84385,0.73448 2.62141,0.73925 0.53287,0.003 0.43745,-0.0954 -0.49078,-0.50737 z m 2.448456,0.0423 c -0.130836,-0.11825 -0.595066,-0.34204 -1.031636,-0.49732 -0.43656,-0.15527 -1.97972,-0.71454 -3.42925,-1.24282 -2.99229,-1.09055 -5.69887,-1.7816 -5.69887,-1.45506 0,0.12106 0.38695,0.3038 0.8599,0.40609 0.99231,0.21464 6.27579,2.00428 7.52338,2.54836 0.94113,0.41043 2.144676,0.57354 1.776476,0.24075 z m -31.352396,-2.27081 c -0.0442,-1.90527 -0.0722,-1.9895 -0.60549,-1.81724 -0.68267,0.22053 -3.75031,0.19967 -4.11871,-0.028 -0.17304,-0.10695 -0.15321,-0.34517 0.0567,-0.68135 0.40115,-0.64234 0.76716,-0.67891 0.53922,-0.0539 -0.15158,0.41567 -0.11015,0.41148 0.40518,-0.041 0.5942,-0.52174 0.81842,-0.24307 0.25653,0.31882 -0.22426,0.22427 -0.2299,0.3175 -0.0192,0.3175 0.16407,0 0.61342,-0.38696 0.99854,-0.8599 l 0.70022,-0.85989 -0.42326,0.85989 c -0.24644,0.50069 -0.30826,0.8599 -0.14798,0.8599 0.15139,0 0.51119,-0.38696 0.79955,-0.8599 0.53496,-0.87739 0.74972,-0.58116 0.25238,0.34813 -0.44927,0.83946 -0.0264,0.57974 0.56684,-0.34813 l 0.54975,-0.85989 -0.17254,0.77034 c -0.1676,0.74833 -0.15561,0.75911 0.41965,0.37715 0.58244,-0.38672 1.78023,-3.05425 1.80696,-4.02416 0.0119,-0.43232 -0.0434,-0.44917 -0.43402,-0.13229 -0.30418,0.24674 -0.38398,0.25712 -0.24897,0.0324 0.10929,-0.1819 0.0796,-0.33073 -0.0659,-0.33073 -0.14552,0 -0.34603,0.13178 -0.44557,0.29284 -0.1287,0.20823 -0.2395,0.19814 -0.38356,-0.035 -0.14245,-0.23049 -0.25573,-0.16034 -0.38163,0.23633 -0.0985,0.31027 -0.29811,0.56413 -0.44363,0.56413 -0.14552,0 -0.19369,-0.22337 -0.10705,-0.49637 0.25813,-0.81328 -0.83646,-0.92875 -1.35158,-0.14258 -0.58339,0.89036 -1.00426,0.80565 -0.44043,-0.0887 l 0.45874,-0.7276 -0.56168,0.48299 c -0.54378,0.4676 -0.56521,0.4676 -0.67228,0 -0.0938,-0.40959 -0.1618,-0.37744 -0.44752,0.21154 -0.22869,0.47142 -0.54699,0.69453 -0.99083,0.69453 -0.46635,0 -0.57232,-0.0816 -0.36947,-0.28443 0.15643,-0.15643 0.28178,-0.46897 0.27854,-0.69453 -0.004,-0.29087 -0.16285,-0.21779 -0.54575,0.25136 -0.52167,0.63916 -0.53425,0.64139 -0.37316,0.0661 0.26228,-0.9366 -0.0172,-0.70739 -0.96774,0.79375 -1.04886,1.65638 -1.3475,2.5135 -0.92531,2.65572 0.21711,0.0731 0.20026,0.22854 -0.0588,0.5424 -0.19972,0.24195 -0.24407,0.4399 -0.0986,0.4399 0.14552,0 0.41748,-0.18423 0.60436,-0.40939 0.26611,-0.32065 0.38476,-0.3366 0.54733,-0.0736 0.1568,0.25372 0.25031,0.22443 0.38239,-0.11976 0.0962,-0.25059 0.28534,-0.45561 0.42042,-0.45561 0.13507,0 0.10617,0.26789 -0.0642,0.59531 -0.29755,0.57177 -0.2808,0.56915 0.42347,-0.0661 0.72332,-0.65247 0.72896,-0.65317 0.41548,-0.0512 -0.34785,0.66795 -0.56099,0.78217 -1.7226,0.92311 -0.77237,0.0937 -0.77744,0.10565 -0.70543,1.66176 0.0399,0.86205 0.0923,1.58707 0.11651,1.61114 0.0242,0.0241 0.9667,0.12379 2.09448,0.22159 1.40965,0.12225 2.05052,0.0879 2.05052,-0.10991 0,-0.39813 0.70814,-0.36292 0.8647,0.043 0.0702,0.1819 0.62326,0.3637 1.22911,0.40401 l 1.10154,0.0733 z m -5.66257,-0.66225 c -0.10561,-0.17088 -0.0729,-0.42975 0.0726,-0.57527 0.17639,-0.17639 0.32859,-0.16102 0.4566,0.0461 0.10561,0.17088 0.073,0.42975 -0.0726,0.57527 -0.17639,0.17639 -0.32859,0.16102 -0.4566,-0.0461 z m 1.98438,-0.28663 c 0,-0.6448 0.61827,-0.55366 0.747,0.11012 0.0506,0.26108 -0.0843,0.4411 -0.33073,0.4411 -0.24543,0 -0.41627,-0.22622 -0.41627,-0.55122 z m 2.02098,-5.40191 c 0.0838,-0.21828 0.25489,-0.39687 0.38027,-0.39687 0.12538,0 0.15944,0.17859 0.0757,0.39687 -0.0838,0.21828 -0.25489,0.39688 -0.38027,0.39688 -0.12538,0 -0.15944,-0.1786 -0.0757,-0.39688 z m 2.47693,6.74688 c 0,-0.72761 -0.10419,-1.32292 -0.23153,-1.32292 -0.17533,0 -0.22903,2.20889 -0.0627,2.57969 0.1662,0.37054 0.29425,-0.1764 0.29425,-1.25677 z m 1.34566,0.82149 c 0.16768,0.2648 0.23489,0.15906 0.23779,-0.37409 0.002,-0.40877 -0.10837,-0.67374 -0.24577,-0.58882 -0.13894,0.0859 -0.29392,-0.40626 -0.34918,-1.10886 -0.0874,-1.11124 -0.10559,-1.0563 -0.15111,0.45653 -0.0367,1.22117 -0.1261,1.60472 -0.30822,1.32291 -0.22183,-0.34325 -0.25703,-0.3373 -0.26053,0.0441 -0.005,0.56498 0.62742,0.79579 0.75035,0.27377 0.0783,-0.33248 0.12977,-0.33651 0.32667,-0.0255 z m 32.917876,0.23684 c 0.10287,-0.16645 -0.40655,-0.24916 -1.37344,-0.22302 l -1.53697,0.0416 1.32291,0.18145 c 0.72761,0.0998 1.34566,0.20016 1.37345,0.22302 0.0278,0.0229 0.12412,-0.0775 0.21405,-0.22302 z m -3.43958,-0.26458 c -0.0899,-0.14552 -0.335086,-0.26459 -0.544776,-0.26459 -0.20969,0 -0.38126,0.11907 -0.38126,0.26459 0,0.14552 0.24515,0.26458 0.54478,0.26458 0.299626,0 0.471196,-0.11906 0.381256,-0.26458 z m -26.855206,-0.67405 c 0,-0.20803 -0.1992,-0.61088 -0.44266,-0.89523 -0.55496,-0.64814 -1.41404,-0.28832 -1.40004,0.5864 0.009,0.57321 0.0181,0.57156 0.41139,-0.0755 l 0.40202,-0.66145 -0.11012,0.7276 c -0.12028,0.7947 0.23235,1.01275 0.42786,0.26458 0.0888,-0.33972 0.12918,-0.30034 0.15169,0.14791 0.0324,0.64425 0.55986,0.55535 0.55986,-0.0944 z m 0.68902,-0.31263 c -0.26895,-0.26895 -0.49087,0.13597 -0.27019,0.49302 0.16669,0.26972 0.22901,0.26993 0.31863,10e-4 0.0613,-0.18383 0.0395,-0.40617 -0.0484,-0.49409 z m 0.71653,-1.42509 c 0.0702,-1.23865 -0.005,-2.22217 -0.19609,-2.58013 -0.25419,-0.47496 -0.29697,-0.1866 -0.23904,1.6114 0.0388,1.20443 0.0745,2.41808 0.0792,2.69699 0.0209,1.22177 0.25234,0.098 0.3559,-1.72826 z m -4.91662,-0.95577 c -0.0573,-0.54895 -0.1051,-0.16465 -0.10627,0.854 -0.001,1.01864 0.0457,1.46778 0.10413,0.99808 0.0585,-0.46969 0.0594,-1.30313 0.002,-1.85208 z m 15.75586,2.24306 c -0.14049,-0.1819 -0.2808,-0.92604 -0.3118,-1.65365 -0.0834,-1.95784 -0.5559,-2.16023 -0.5559,-0.23812 0,1.4816 0.29304,2.2225 0.87906,2.2225 0.14297,0 0.13826,-0.137 -0.0114,-0.33073 z m -10.02159,-0.24012 c -0.12968,-0.20983 -0.01,-0.25928 0.38126,-0.15706 0.38461,0.10058 0.57054,0.0279 0.57054,-0.2229 0,-0.20466 -0.23812,-0.37211 -0.52916,-0.37211 -0.29105,0 -0.52917,-0.10791 -0.52917,-0.23981 0,-0.1319 0.22469,-0.18106 0.49931,-0.10924 0.57558,0.15052 0.8931,-0.22032 0.67509,-0.78846 -0.0898,-0.23404 -0.3562,-0.33765 -0.66232,-0.2576 -0.28164,0.0737 -0.51208,9.6e-4 -0.51208,-0.16153 0,-0.16249 0.28773,-0.29544 0.63941,-0.29544 0.73964,0 1.00846,-0.5066 0.52523,-0.98983 -0.39899,-0.39898 -0.90006,-0.43712 -0.90006,-0.0685 0,0.14553 0.1786,0.26459 0.39688,0.26459 0.21828,0 0.39687,0.11532 0.39687,0.25628 0,0.14095 -0.14882,0.20173 -0.33073,0.13507 -0.54372,-0.19927 -0.93571,0.22041 -0.99369,1.06386 -0.10021,1.45778 -10e-4,2.24895 0.2817,2.24895 0.15411,0 0.19503,-0.13781 0.0909,-0.30626 z m 11.1989,0.14641 c -0.0879,-0.0879 -0.31613,-0.0973 -0.50712,-0.0209 -0.21107,0.0845 -0.14838,0.14716 0.15985,0.15986 0.27891,0.0115 0.43518,-0.051 0.34727,-0.13897 z m -15.58645,-2.55212 c -0.0267,-1.36928 -0.0915,-1.89091 -0.14706,-1.18414 -0.0565,0.71819 -0.20902,1.19549 -0.3535,1.1062 -0.13977,-0.0864 -0.17427,-0.2863 -0.0767,-0.44425 0.10532,-0.17041 0.0545,-0.21115 -0.12503,-0.10021 -0.21785,0.13464 -0.18318,0.36911 0.12386,0.83772 0.27631,0.42169 0.37073,0.92906 0.26826,1.44141 -0.0891,0.44533 -0.0455,0.79066 0.0998,0.79066 0.15241,0 0.23845,-1.00141 0.21028,-2.44739 z m 12.40257,1.19365 -0.0787,-1.25375 -2.36778,-0.45022 c -1.30228,-0.24762 -2.72497,-0.44112 -3.16153,-0.43001 -0.60545,0.0154 -0.65252,0.0474 -0.19844,0.13486 0.32743,0.0631 0.59532,0.23933 0.59532,0.39171 0,0.15237 -0.23813,0.21476 -0.52917,0.13866 -0.29104,-0.0761 -0.52917,-0.0391 -0.52917,0.0822 0,0.12132 0.89638,0.36518 1.99195,0.54192 1.09558,0.17673 2.05805,0.42828 2.13884,0.559 0.0808,0.13071 -0.13098,0.18022 -0.4706,0.11001 -0.33961,-0.0702 -1.09373,-0.20039 -1.67581,-0.28929 -0.58209,-0.0889 -1.25181,-0.21813 -1.48828,-0.28716 -0.31659,-0.0924 -0.42995,0.0508 -0.42995,0.54327 0,0.5502 0.12315,0.66549 0.69453,0.65019 0.63134,-0.0169 0.64638,-0.0403 0.16536,-0.25755 -0.42775,-0.19317 -0.36315,-0.22562 0.33709,-0.16932 0.47643,0.0383 0.83362,0.18021 0.79375,0.31534 -0.0399,0.13513 0.7014,0.38119 1.64729,0.54681 2.80998,0.492 2.65456,0.54511 2.5653,-0.87667 z m -2.5653,-0.99522 c -1.27121,-0.36827 -0.77968,-0.49805 0.8599,-0.22705 0.5457,0.0902 0.99218,0.26748 0.99218,0.39396 0,0.29411 -0.37843,0.26001 -1.85208,-0.16691 z m -1.85208,-0.39687 c -0.33917,-0.21919 -0.32955,-0.25707 0.0661,-0.26053 0.25466,-0.002 0.46302,0.11501 0.46302,0.26053 0,0.32269 -0.0298,0.32269 -0.52916,0 z m 10.24129,1.25985 c -0.0633,-0.32912 -0.11747,-0.12214 -0.1204,0.45994 -0.003,0.58208 0.0488,0.85136 0.11506,0.5984 0.0662,-0.25297 0.0686,-0.72922 0.005,-1.05834 z m -1.51004,-0.20152 c 0,-0.7276 -0.11907,-1.32292 -0.26459,-1.32292 -0.14552,0 -0.26458,0.59532 -0.26458,1.32292 0,0.72761 0.11906,1.32292 0.26458,1.32292 0.14552,0 0.26459,-0.59531 0.26459,-1.32292 z m 0.87871,-0.21707 c 0.11078,-0.98014 0.0694,-1.37777 -0.13636,-1.3092 -0.31265,0.10422 -0.48947,1.5928 -0.28581,2.40611 0.17128,0.684 0.2415,0.50155 0.42217,-1.09691 z m -14.85367,-0.64282 c -0.12454,-2.56809 -0.31254,-2.63441 -0.31254,-0.11025 0,1.11566 0.0913,2.02847 0.20278,2.02847 0.11153,0 0.16093,-0.8632 0.10976,-1.91822 z m 12.91662,1.65364 c 0,-0.14552 -0.20836,-0.27839 -0.46302,-0.29527 -0.44097,-0.0292 -0.44097,-0.0365 0,-0.1517 0.55715,-0.14559 0.61944,-0.61136 0.0818,-0.61136 -0.49004,0 -0.76497,0.44764 -0.57653,0.93871 0.16549,0.43126 0.95779,0.53021 0.95779,0.11962 z m -14.39652,-3.06423 c 0.0128,-1.58889 -0.0232,-2.32949 -0.0801,-1.64578 -0.0791,0.95111 -0.1933,1.2086 -0.48628,1.09618 -0.30977,-0.11887 -0.38294,0.17865 -0.38294,1.55705 0,1.72578 0.13633,2.1432 0.64492,1.97462 0.17363,-0.0575 0.29002,-1.19783 0.30439,-2.98207 z m -0.68473,1.40415 c 0,-0.67051 0.0893,-1.27416 0.19844,-1.34146 0.25256,-0.15572 0.24309,2.11905 -0.01,2.37201 -0.1037,0.10371 -0.18856,-0.36004 -0.18856,-1.03055 z m 1.5875,-0.97014 c 0,-1.3011 -0.10561,-2.43091 -0.2347,-2.51069 -0.13013,-0.0804 -0.23673,0.97356 -0.23925,2.36564 -0.002,1.38088 0.10312,2.51069 0.2347,2.51069 0.13159,0 0.23925,-1.06454 0.23925,-2.36564 z m 10.91011,0.72062 c -0.27325,-0.56718 -0.29205,-0.54837 -0.30887,0.30887 -0.0136,0.69579 0.0555,0.83938 0.29096,0.60395 0.22838,-0.22838 0.23305,-0.46626 0.0179,-0.91282 z m 1.78989,0.0575 c 0,-0.14552 -0.12609,-0.26459 -0.2802,-0.26459 -0.1541,0 -0.20661,0.11907 -0.11667,0.26459 0.0899,0.14552 0.21602,0.26458 0.2802,0.26458 0.0642,0 0.11667,-0.11906 0.11667,-0.26458 z m 1.05834,0.0131 c 0,-0.13828 -0.15895,-0.34664 -0.35322,-0.46302 -0.19427,-0.11637 -0.57497,-0.83666 -0.84601,-1.60064 -0.27105,-0.76399 -0.57691,-1.38907 -0.6797,-1.38907 -0.21108,0 0.64831,2.37716 1.14955,3.17976 0.34536,0.55301 0.72938,0.69673 0.72938,0.27297 z m 3.70416,-0.14543 c 0,-0.21829 -0.11906,-0.39688 -0.26458,-0.39688 -0.14552,0 -0.26458,0.17859 -0.26458,0.39688 0,0.21828 0.11906,0.39687 0.26458,0.39687 0.14552,0 0.26458,-0.17859 0.26458,-0.39687 z m -7.21124,-0.46302 c 0.0114,-0.18191 0.26679,-0.95036 0.56758,-1.70769 0.3327,-0.83767 0.44549,-1.43963 0.28798,-1.53697 -0.14239,-0.088 -0.2589,-0.34616 -0.2589,-0.57367 0,-0.33769 0.0729,-0.35317 0.39687,-0.0843 0.25027,0.2077 0.39688,0.22544 0.39688,0.048 0,-0.42723 -0.4742,-0.63028 -1.0472,-0.44842 -0.33166,0.10527 -0.46419,0.32197 -0.37453,0.61239 0.12433,0.40271 0.10779,0.4013 -0.15894,-0.0135 -0.5365,-0.83441 -0.81678,-0.48481 -0.40378,0.50364 0.22214,0.53167 0.34978,1.02079 0.28363,1.08693 -0.0661,0.0661 -0.29976,-0.30932 -0.51914,-0.83437 -0.21938,-0.52505 -0.51793,-0.95464 -0.66346,-0.95464 -0.15308,0 -0.10153,0.39024 0.12235,0.92604 0.2128,0.50933 0.31972,0.92604 0.23758,0.92604 -0.0821,0 -0.34339,-0.44648 -0.58055,-0.99218 -0.32263,-0.74238 -0.45837,-0.87034 -0.5391,-0.50824 -0.0593,0.26617 0.0377,0.83553 0.21574,1.26525 0.17799,0.42972 0.25994,0.845 0.18209,0.92284 -0.0778,0.0778 -0.28685,-0.31292 -0.46445,-0.86838 -0.1776,-0.55545 -0.42759,-1.12302 -0.55554,-1.26126 -0.38016,-0.41078 -0.25208,0.71368 0.16426,1.44197 0.4857,0.84965 0.4978,1.2069 0.0277,0.81672 -0.20306,-0.16852 -0.4458,-0.7147 -0.53942,-1.21374 -0.0936,-0.49903 -0.29226,-0.98276 -0.44143,-1.07495 -0.25041,-0.15476 -0.20068,0.50819 0.1799,2.39802 0.0586,0.29104 -0.0655,0.17198 -0.27576,-0.26459 -0.21027,-0.43656 -0.38768,-1.05461 -0.39425,-1.37344 -0.007,-0.31884 -0.13859,-0.65798 -0.29339,-0.75365 -0.19059,-0.1178 -0.22691,0.15476 -0.11249,0.84428 0.12528,0.75502 0.0965,0.91564 -0.11137,0.62135 -0.15418,-0.21828 -0.28215,-0.5982 -0.28438,-0.84428 -0.002,-0.24607 -0.12168,-0.5201 -0.26544,-0.60895 -0.16439,-0.1016 -0.21529,0.30989 -0.13715,1.10886 l 0.12425,1.27042 -0.32588,-0.97054 c -0.38241,-1.1389 -0.88183,-1.72992 -0.63313,-0.74926 0.0923,0.36381 0.16937,1.00277 0.17135,1.41993 0.003,0.62124 0.0971,0.73402 0.5201,0.6234 0.28406,-0.0743 0.55195,-0.0473 0.59531,0.0599 0.0434,0.10724 1.15039,0.37497 2.46008,0.59496 1.30969,0.21998 2.39117,0.41725 2.4033,0.43839 0.0121,0.0211 0.0314,-0.11041 0.0428,-0.29231 z m -4.56272,-0.99219 c -0.0899,-0.14552 -0.0374,-0.26459 0.11668,-0.26459 0.15411,0 0.2802,0.11907 0.2802,0.26459 0,0.14552 -0.0525,0.26458 -0.11668,0.26458 -0.0642,0 -0.19026,-0.11906 -0.2802,-0.26458 z m 4.8066,-1.23472 c -0.097,-0.097 -0.17639,-0.29942 -0.17639,-0.4498 0,-0.16579 0.12324,-0.15016 0.31309,0.0397 0.1722,0.1722 0.25158,0.37461 0.17639,0.44979 -0.0752,0.0752 -0.21607,0.0573 -0.31309,-0.0397 z m -13.23033,1.16857 c -0.0734,-0.1819 -0.13345,-0.0331 -0.13345,0.33073 0,0.3638 0.0601,0.51263 0.13345,0.33073 0.0734,-0.1819 0.0734,-0.47956 0,-0.66146 z m 14.90603,0.48025 c 0,-0.35545 -0.56579,-1.52401 -0.68174,-1.40806 -0.20872,0.20872 0.17602,1.52312 0.44584,1.52312 0.12974,0 0.2359,-0.0518 0.2359,-0.11506 z m 1.5875,0.0194 c 0,-0.2878 -1.63672,-3.64745 -1.731,-3.55317 -0.17506,0.17506 1.26334,3.64886 1.51089,3.64886 0.12106,0 0.22011,-0.0431 0.22011,-0.0957 z m 0.38684,-1.16108 c -0.97817,-1.7032 -1.30052,-2.0083 -0.76876,-0.7276 0.65885,1.5868 0.9013,1.98437 1.21012,1.98437 0.15423,0 -0.0444,-0.56554 -0.44136,-1.25677 z m 1.46524,1.04386 c 0,-0.17845 -2.09603,-3.29423 -2.46283,-3.66103 -0.0647,-0.0647 -0.19051,0.0723 -0.27958,0.3044 -0.0928,0.24185 -0.0515,0.35379 0.0967,0.26219 0.25482,-0.15749 1.7014,1.88694 1.99932,2.8256 0.15096,0.47563 0.64641,0.68168 0.64641,0.26884 z m 1.85208,-0.15565 c 0,-0.37598 -0.76201,-0.8097 -1.00161,-0.5701 -0.1689,0.1689 0.46208,0.93866 0.76943,0.93866 0.1277,0 0.23218,-0.16585 0.23218,-0.36856 z m -13.7302,-1.7605 c -0.24313,-0.60888 -0.26021,-0.59037 -0.27594,0.29903 -0.009,0.52145 0.0725,1.03877 0.18166,1.1496 0.3127,0.31753 0.38092,-0.73077 0.0943,-1.44863 z m 15.42792,0.97631 c -0.17011,-0.44329 -0.63938,-0.60702 -0.63938,-0.22308 0,0.25741 0.59027,0.87376 0.71619,0.74784 0.0495,-0.0495 0.0149,-0.28565 -0.0768,-0.52476 z m -1.69772,-0.12216 c 0,-0.11912 -0.38695,-0.42105 -0.85989,-0.67097 -0.47295,-0.24991 -0.62177,-0.38205 -0.33073,-0.29365 1.03831,0.31539 2.22446,0.37656 2.38129,0.1228 0.0877,-0.14186 -0.32789,-0.45291 -0.92348,-0.69122 -0.59559,-0.23831 -1.02107,-0.4951 -0.94552,-0.57066 0.0756,-0.0756 0.68304,0.071 1.34997,0.32573 0.66693,0.2547 1.28262,0.39307 1.36821,0.30748 0.19107,-0.19107 -2.00007,-1.20949 -2.61954,-1.21753 -0.24608,-0.003 -0.52888,-0.13763 -0.62845,-0.29874 -0.19683,-0.31848 0.41622,-0.17805 1.93575,0.44341 1.38752,0.56747 0.98551,-0.001 -0.48912,-0.69187 -0.74195,-0.34752 -1.20995,-0.6782 -1.04,-0.73485 0.16995,-0.0566 0.89318,0.26015 1.60719,0.704 0.7759,0.48233 1.36465,0.69947 1.46337,0.53972 0.21083,-0.34113 0.32557,-0.26317 -2.07061,-1.40691 -1.12779,-0.53831 -2.05052,-1.02901 -2.05052,-1.09044 0,-0.17161 2.13892,0.71702 3.14714,1.30752 0.66721,0.39077 0.86569,0.42847 0.7718,0.14659 -0.0695,-0.2087 -1.12854,-0.82369 -2.35339,-1.36664 -1.22486,-0.54295 -2.07165,-0.98943 -1.88178,-0.99219 0.18988,-0.003 1.20191,0.35903 2.24896,0.80395 2.07138,0.88018 2.081,0.60166 0.0157,-0.4537 -0.70782,-0.3617 -1.10836,-0.60593 -0.89008,-0.54275 1.45558,0.42135 1.55725,0.36817 0.39688,-0.2076 -0.72761,-0.36103 -1.51052,-0.65796 -1.73982,-0.65983 -0.22929,-0.002 -0.69653,-0.30106 -1.03831,-0.66486 -0.34177,-0.3638 -0.83878,-0.66146 -1.10445,-0.66146 -0.51995,0 -0.65027,0.39459 -0.21846,0.66146 0.4785,0.29573 0.276,0.70074 -0.26459,0.52917 -0.64361,-0.20428 -0.6776,0.0589 -0.0913,0.70677 0.34796,0.38449 0.36154,0.48428 0.0661,0.48592 -0.20445,10e-4 -0.51125,0.30279 -0.68177,0.67035 -0.25279,0.54491 -0.23578,0.72771 0.0922,0.99013 1.06039,0.84848 2.03528,2.02174 2.61207,3.14356 0.52249,1.01622 0.74922,1.22166 1.28356,1.163 0.35694,-0.0392 0.80656,0.0287 0.99915,0.15077 0.43985,0.27888 0.48246,0.28007 0.48246,0.0135 z m -1.45521,-1.49366 c -1.02183,-0.46789 -0.54654,-0.47475 0.66146,-0.01 0.50933,0.19614 0.74745,0.3603 0.52917,0.36481 -0.21828,0.005 -0.75406,-0.15536 -1.19063,-0.35526 z m -24.74259,-0.48819 c 0.002,-0.11773 -0.11501,-0.14046 -0.26053,-0.0505 -0.14552,0.0899 -0.26276,0.36486 -0.26053,0.61093 0.003,0.38557 0.0395,0.39255 0.26053,0.0505 0.14106,-0.21828 0.2583,-0.4932 0.26053,-0.61093 z m 7.04307,-0.11116 c -0.26895,-0.26895 -0.49087,0.13597 -0.27019,0.49302 0.16669,0.26972 0.22901,0.26993 0.31863,10e-4 0.0613,-0.18383 0.0395,-0.40617 -0.0484,-0.49409 z m -2.34965,-0.79188 c 0.0805,-0.20985 0.33843,-0.28957 0.63363,-0.19588 0.27381,0.0869 0.49784,0.0472 0.49784,-0.0883 0,-0.13544 -0.74414,-0.4093 -1.65365,-0.60858 -1.00386,-0.21996 -1.41792,-0.39758 -1.05374,-0.45204 0.32995,-0.0493 1.02253,0.0498 1.53908,0.22025 1.06405,0.35117 1.58331,0.13928 0.61141,-0.24949 -0.3506,-0.14024 -0.45642,-0.26475 -0.23685,-0.27868 0.57584,-0.0366 -0.48255,-0.80211 -1.10891,-0.80211 -0.26322,0 -0.47859,-0.13295 -0.47859,-0.29544 0,-0.18022 0.23216,-0.22933 0.59531,-0.12592 1.51926,0.43262 2.05052,0.47776 2.05052,0.17424 0,-0.1723 -0.1187,-0.23991 -0.26378,-0.15025 -0.17407,0.10758 -0.17731,-0.0644 -0.01,-0.50573 0.20125,-0.52932 0.15971,-0.72935 -0.19923,-0.95937 -0.39315,-0.25193 -0.37428,-0.27387 0.14181,-0.16488 0.32742,0.0692 0.59531,0.0234 0.59531,-0.10165 0,-0.28514 -1.73317,-0.77798 -2.74282,-0.77994 -0.65624,-10e-4 -0.7422,-0.0865 -0.63786,-0.6323 0.10077,-0.52712 0.018,-0.62498 -0.50353,-0.59531 -0.391,0.0223 -0.60324,0.18375 -0.56821,0.43238 0.0838,0.59469 -0.30333,1.58076 -0.82563,2.10306 -0.42159,0.42159 -0.48949,0.42519 -0.75394,0.04 -0.25652,-0.37363 -0.32279,-0.37673 -0.56484,-0.0264 -0.18515,0.26795 -0.27555,0.28944 -0.27828,0.0661 -0.002,-0.1819 -0.0934,-0.33065 -0.20249,-0.33055 -0.30847,3e-4 -0.3167,1.41551 -0.0104,1.78576 0.19948,0.24111 0.15731,0.33072 -0.15565,0.33072 -0.55654,0 -0.54463,0.24787 0.0337,0.7025 0.41439,0.32573 0.37965,0.34774 -0.33073,0.20958 -0.76826,-0.14942 -0.77675,-0.14045 -0.26459,0.2792 0.29105,0.23847 0.5011,0.53916 0.46679,0.6682 -0.0343,0.12904 0.32287,0.29756 0.79375,0.37448 2.8285,0.46205 4.69637,0.44532 4.88404,-0.0438 z m -0.77023,-0.25427 c 0.191,-0.0764 0.4192,-0.067 0.50712,0.0209 0.0879,0.0879 -0.0684,0.15045 -0.34726,0.13896 -0.30823,-0.0127 -0.37092,-0.0754 -0.15986,-0.15985 z m -0.47955,-1.67134 c -0.35278,-0.22798 -0.35278,-0.25648 0,-0.25648 0.21828,0 0.57547,0.11541 0.79375,0.25648 0.35277,0.22798 0.35277,0.25648 0,0.25648 -0.21828,0 -0.57547,-0.11542 -0.79375,-0.25648 z m 1.4552,-1.85209 c -0.0899,-0.14552 -0.0444,-0.26458 0.10107,-0.26458 0.14552,0 0.33816,0.11906 0.4281,0.26458 0.0899,0.14553 0.0445,0.26459 -0.10106,0.26459 -0.14552,0 -0.33817,-0.11906 -0.42811,-0.26459 z m 12.03855,3.99961 c 0,-0.12855 -0.20836,-0.29363 -0.46302,-0.36685 -0.25467,-0.0732 -0.70115,-0.22636 -0.99219,-0.34031 -0.52201,-0.20437 -0.52235,-0.1994 -0.0251,0.36686 0.49804,0.56721 1.48035,0.79303 1.48035,0.3403 z m 1.2062,-0.43615 c -0.28248,-0.21365 -0.6624,-0.38846 -0.84428,-0.38846 -0.18188,0 -0.40206,-0.11547 -0.48929,-0.25661 -0.0872,-0.14115 0.33743,-0.0816 0.94369,0.13229 1.46615,0.51729 2.11688,0.52508 1.42209,0.017 -0.47143,-0.34471 -0.45097,-0.3618 0.28016,-0.23403 0.76927,0.13443 0.77567,0.12676 0.25955,-0.31119 -0.49378,-0.41901 -0.49571,-0.43833 -0.0287,-0.28908 0.41651,0.13312 0.44624,0.0946 0.17727,-0.22945 -0.17774,-0.21417 -0.76013,-0.52893 -1.29419,-0.69948 -0.53406,-0.17054 -1.08206,-0.41268 -1.21776,-0.53808 -0.13571,-0.1254 0.16195,-0.10138 0.66146,0.0534 0.4995,0.15476 1.10013,0.34087 1.33472,0.41357 0.39783,0.1233 0.93725,-0.61923 0.65495,-0.90153 -0.0669,-0.0669 -0.87336,-0.40083 -1.79217,-0.7421 -2.03104,-0.75438 -1.59889,-0.86 0.50016,-0.12224 1.82218,0.64044 2.17652,0.48056 0.57983,-0.26162 -1.05556,-0.49065 -0.8361,-0.53048 0.55674,-0.10105 0.29302,0.0903 0.52917,0.0412 0.52917,-0.11024 0,-0.15037 -0.68461,-0.51204 -1.52135,-0.80372 -0.83675,-0.29168 -1.32797,-0.53973 -1.0916,-0.55122 0.23636,-0.0115 0.93954,0.15898 1.56262,0.37881 1.41864,0.50053 1.69051,0.33593 0.3337,-0.20203 -1.55996,-0.6185 -2.72295,-0.81729 -2.72295,-0.46544 0,0.19014 -0.21252,0.23598 -0.56919,0.12278 -0.45256,-0.14364 -0.53559,-0.0931 -0.40518,0.24675 0.10849,0.28272 0.022,0.42741 -0.25542,0.42741 -0.28884,0 -0.37645,0.16437 -0.28138,0.52791 0.11868,0.45383 0.043,0.50405 -0.53936,0.35789 -0.61347,-0.15397 -0.66139,-0.11015 -0.50768,0.46428 0.0933,0.34886 0.17136,0.90219 0.17334,1.22961 0.002,0.32742 0.14307,0.59531 0.31351,0.59531 0.17044,0 0.52652,0.19605 0.79129,0.43565 0.44894,0.40629 0.45136,0.45762 0.0358,0.76145 -0.39293,0.28731 -0.3067,0.38946 0.73007,0.86497 0.64658,0.29655 1.41373,0.54542 1.70477,0.55306 0.52203,0.0137 0.52224,0.009 0.0156,-0.37459 z m -0.0156,-3.29887 c -0.7276,-0.26849 -1.08479,-0.49426 -0.79375,-0.50172 0.29104,-0.007 1.00542,0.21179 1.5875,0.48724 1.3508,0.63921 0.92056,0.64706 -0.79375,0.0145 z m -0.99219,-1.76273 c 0.1819,-0.0734 0.47956,-0.0734 0.66146,0 0.1819,0.0734 0.0331,0.13345 -0.33073,0.13345 -0.3638,0 -0.51263,-0.06 -0.33073,-0.13345 z m -1.85759,3.45496 c -0.0879,-0.0879 -0.31612,-0.0973 -0.50712,-0.0209 -0.21107,0.0845 -0.14837,0.14716 0.15985,0.15985 0.27892,0.0115 0.43519,-0.051 0.34727,-0.13896 z m 10.29765,-2.68662 c -0.53107,-0.21182 -0.96558,-0.55098 -0.96558,-0.7537 0,-0.20272 -0.18851,-0.36858 -0.41892,-0.36858 -0.23041,0 -0.37083,0.14883 -0.31205,0.33073 0.13666,0.42287 2.10936,1.49029 2.42415,1.31169 0.13089,-0.0743 -0.19653,-0.30832 -0.7276,-0.52014 z m -12.04124,-0.0728 c -0.34355,-0.2862 -0.87933,-0.51537 -1.19063,-0.50927 -0.45971,0.009 -0.3921,0.10629 0.36004,0.51807 1.20077,0.6574 1.62487,0.6529 0.83059,-0.009 z m 13.19233,-0.37246 c 0,-0.53185 -0.5454,-0.81432 -0.79441,-0.41142 -0.14636,0.23682 -0.2604,0.16226 -0.39357,-0.25732 -0.12667,-0.3991 -0.2745,-0.50376 -0.45567,-0.3226 -0.34114,0.34115 -0.0512,0.81536 0.67854,1.10979 0.81497,0.32882 0.96511,0.3104 0.96511,-0.11845 z m -13.82999,-0.57234 c -0.0879,-0.0879 -0.31612,-0.0973 -0.50712,-0.0209 -0.21107,0.0845 -0.14837,0.14716 0.15985,0.15986 0.27892,0.0115 0.43519,-0.0511 0.34727,-0.13897 z m -7.73355,-0.36931 c -0.0899,-0.14552 -0.50666,-0.26459 -0.92604,-0.26459 -0.41939,0 -0.83611,0.11907 -0.92605,0.26459 -0.0989,0.16003 0.26705,0.26458 0.92605,0.26458 0.659,0 1.02494,-0.10455 0.92604,-0.26458 z m 12.83471,-1.4523 c -0.33048,-0.39819 -0.79617,-0.31338 -0.79617,0.145 0,0.13693 0.2527,0.24896 0.56156,0.24896 0.46733,0 0.5067,-0.0661 0.23461,-0.39396 z m 20.105906,20.24707 c -0.65484,-0.0779 -1.07156,-0.20539 -0.92604,-0.28329 0.14552,-0.0779 0.80037,-0.0779 1.45521,0 0.65484,0.0779 1.07156,0.20538 0.92604,0.28329 -0.14552,0.0779 -0.80036,0.0779 -1.45521,0 z M 33.392433,50.600947 c 0.191,-0.0764 0.4192,-0.067 0.50712,0.0209 0.0879,0.0879 -0.0683,0.15045 -0.34726,0.13897 -0.30823,-0.0127 -0.37092,-0.0754 -0.15986,-0.15986 z m 1.29776,-0.2468 c -0.0896,-0.0896 -0.55596,-0.25604 -1.03628,-0.36979 -0.72296,-0.17122 -0.75944,-0.20988 -0.21187,-0.22454 0.36381,-0.01 0.95912,0.15245 1.32292,0.36042 0.3638,0.20796 0.53247,0.38234 0.37483,0.3875 -0.15765,0.005 -0.35997,-0.064 -0.4496,-0.15359 z m -0.4544,-3.27662 c -0.53174,-0.1703 -0.55768,-0.21336 -0.13229,-0.21962 0.29104,-0.004 0.76729,0.0946 1.05833,0.21962 0.67422,0.28972 -0.0214,0.28972 -0.92604,0 z"
       id="path13" />
  </g>
</svg>
