<?xml version="1.0" encoding="UTF-8" standalone="no"?>
<!-- Created with Inkscape (http://www.inkscape.org/) -->

<svg
   width="24.834478mm"
   height="33.341721mm"
   viewBox="0 0 24.834478 33.341721"
   version="1.1"
   id="svg1"
   inkscape:version="1.4.2 (2aeb623e1d, 2025-05-12)"
   sodipodi:docname="house1.svg"
   xmlns:inkscape="http://www.inkscape.org/namespaces/inkscape"
   xmlns:sodipodi="http://sodipodi.sourceforge.net/DTD/sodipodi-0.dtd"
   xmlns="http://www.w3.org/2000/svg"
   xmlns:svg="http://www.w3.org/2000/svg">
  <sodipodi:namedview
     id="namedview1"
     pagecolor="#ffffff"
     bordercolor="#000000"
     borderopacity="0.25"
     inkscape:showpageshadow="2"
     inkscape:pageopacity="0.0"
     inkscape:pagecheckerboard="0"
     inkscape:deskcolor="#d1d1d1"
     inkscape:document-units="mm"
     inkscape:zoom="0.7349537"
     inkscape:cx="346.96063"
     inkscape:cy="442.88504"
     inkscape:window-width="1854"
     inkscape:window-height="1011"
     inkscape:window-x="0"
     inkscape:window-y="0"
     inkscape:window-maximized="1"
     inkscape:current-layer="layer1" />
  <defs
     id="defs1" />
  <g
     inkscape:label="Layer 1"
     inkscape:groupmode="layer"
     id="layer1"
     transform="translate(-13.229174,-31.220828)">
    <path
       style="fill:#000000"
       d="m 17.16029,64.28967 c 0,-0.40253 0.70205,-0.60125 1.4558,-0.41207 1.02655,0.25765 0.77859,0.68495 -0.39747,0.68495 -0.58208,0 -1.05833,-0.12279 -1.05833,-0.27288 z m 1.5875,-1.31462 c 0,-0.33699 1.06603,-0.33699 1.5875,0 0.29521,0.19078 0.14271,0.25752 -0.59532,0.26054 -0.5457,0.002 -0.99218,-0.11501 -0.99218,-0.26054 z m 1.19062,-1.05833 c 0.0899,-0.14552 0.44713,-0.26458 0.79375,-0.26458 0.34663,0 0.70382,0.11906 0.79375,0.26458 0.0975,0.15777 -0.22294,0.26458 -0.79375,0.26458 -0.5708,0 -0.89125,-0.10681 -0.79375,-0.26458 z m 1.32292,-1.05833 c -0.44345,-0.19056 -0.38987,-0.23041 0.33073,-0.24599 0.47294,-0.0102 0.85989,0.10047 0.85989,0.24599 0,0.3141 -0.45966,0.3141 -1.19062,0 z m 2.51354,-1.07497 c 0,-0.15466 -0.20836,-0.26002 -0.46302,-0.23411 -0.80891,0.0823 -1.06392,-0.004 -1.22016,-0.41071 -0.22344,-0.58227 0.93855,-0.51353 1.6427,0.0972 0.61593,0.53419 0.72438,0.82886 0.30506,0.82886 -0.14552,0 -0.26458,-0.12655 -0.26458,-0.28122 z m 0.74414,-1.22244 c 0.191,-0.0764 0.4192,-0.067 0.50712,0.0209 0.0879,0.0879 -0.0683,0.15045 -0.34727,0.13896 -0.30822,-0.0127 -0.37092,-0.0754 -0.15985,-0.15985 z m -0.5457,-1.09424 c -1.62391,-0.52436 -1.63974,-0.9661 -0.0267,-0.74501 1.28685,0.17638 2.04051,0.59294 1.7941,0.99164 -0.16958,0.27439 -0.14194,0.27825 -1.76741,-0.24663 z m 0.26458,-1.32801 c -0.83674,-0.22885 -1.52135,-0.51071 -1.52135,-0.62635 0,-0.51481 2.65254,0.0863 3.17876,0.72033 0.37861,0.4562 0.34772,0.45445 -1.65741,-0.094 z M 24.1182,55.06701 c -2.14175,-0.58107 -2.42977,-0.90451 -0.60312,-0.67728 0.8549,0.10635 1.66466,0.38501 1.97223,0.67871 0.287,0.27406 0.4656,0.48602 0.39688,0.47104 -0.0687,-0.015 -0.86342,-0.22759 -1.76599,-0.47247 z m -0.94305,-1.24654 c -0.0873,-0.0873 -0.57871,-0.15875 -1.09199,-0.15875 -0.85907,0 -1.74972,-0.5626 -1.41714,-0.89518 0.17606,-0.17606 3.14913,0.65596 3.4925,0.97739 0.15233,0.1426 0.0394,0.23529 -0.28664,0.23529 -0.29589,0 -0.60942,-0.0714 -0.69673,-0.15875 z m -2.1784,-1.493 c -0.43657,-0.1499 -0.95013,-0.31499 -1.14125,-0.36686 -0.40823,-0.1108 -0.16289,-0.62784 0.29696,-0.62587 0.17332,7.5e-4 0.79137,0.29469 1.37345,0.6532 1.09085,0.67188 0.86353,0.81773 -0.52916,0.33953 z m 0.66145,-0.99408 c -0.21828,-0.14107 -0.78382,-0.25831 -1.25677,-0.26053 -0.8339,-0.004 -1.13158,-0.33408 -0.59836,-0.66363 0.26603,-0.16441 2.64888,0.77256 2.64888,1.04157 0,0.2217 -0.34886,0.1701 -0.79375,-0.11741 z m -0.19843,-1.16977 c -1.27609,-0.28913 -1.49581,-0.68231 -0.3813,-0.68231 0.69414,0 1.93014,0.63684 1.63765,0.84379 -0.0725,0.0513 -0.63789,-0.0214 -1.25635,-0.16148 z M 21.72435,49.03 c -0.32742,-0.0631 -0.59531,-0.22545 -0.59531,-0.36085 0,-0.34931 0.79032,-0.28445 1.71979,0.14114 0.76396,0.34981 0.76892,0.36291 0.13229,0.34891 -0.3638,-0.008 -0.92935,-0.0661 -1.25677,-0.1292 z m 2.4474,-0.88534 c -0.43657,-0.12336 -1.12605,-0.29329 -1.53218,-0.37762 -0.40613,-0.0843 -0.67347,-0.25843 -0.59408,-0.38688 0.1812,-0.2932 1.46343,-0.0996 2.66459,0.40224 1.45407,0.60754 1.12156,0.8313 -0.53833,0.36226 z m 0.0349,-1.46147 c -1.68987,-0.46075 -1.93795,-0.7531 -0.43178,-0.50881 1.38023,0.22386 3.09796,0.88931 2.24896,0.87125 -0.29104,-0.006 -1.10877,-0.16928 -1.81718,-0.36244 z M 26.553,46.02118 c -0.87313,-0.27579 -1.97445,-0.50305 -2.4474,-0.50503 -0.47294,-0.002 -0.85989,-0.12266 -0.85989,-0.26818 0,-0.45553 2.02962,-0.28924 3.62809,0.29726 2.7549,1.0108 2.51224,1.37081 -0.3208,0.47595 z m -0.79375,-1.71076 c -1.16417,-0.33359 -1.85839,-0.6163 -1.54273,-0.62824 0.6728,-0.0255 3.7449,0.72613 4.32085,1.05707 0.71144,0.40879 -0.51646,0.21926 -2.77812,-0.42883 z m 1.85208,-0.93237 c -1.01864,-0.27458 -2.23903,-0.50196 -2.71198,-0.50529 -0.47294,-0.003 -0.85989,-0.11471 -0.85989,-0.24754 0,-0.4037 4.14287,0.29664 5.22395,0.88309 0.93661,0.50809 0.62487,0.48351 -1.65208,-0.13026 z m 0.26458,-1.18933 c -0.7276,-0.20136 -2.03729,-0.41878 -2.91041,-0.48316 -0.87313,-0.0644 -1.68383,-0.12711 -1.80155,-0.1394 -0.11773,-0.0123 -0.15487,-0.11812 -0.0825,-0.23516 0.21168,-0.34251 4.65524,0.21738 5.97083,0.75233 1.40742,0.5723 0.73011,0.63298 -1.17634,0.10539 z m 1.19063,-1.05983 c -1.52797,-0.34053 -3.4032,-0.62461 -4.16719,-0.63128 -0.76398,-0.007 -1.38906,-0.13234 -1.38906,-0.27925 0,-0.26517 1.05659,-0.22762 3.43958,0.12223 2.24246,0.32921 5.02709,1.0176 5.02709,1.24274 0,0.12378 -0.0298,0.21148 -0.0661,0.19489 -0.0364,-0.0166 -1.31631,-0.30879 -2.84427,-0.64933 z m 0.41535,-1.04615 c -1.29953,-0.34067 -3.23277,-0.70091 -4.29608,-0.80055 -1.06332,-0.0996 -1.88145,-0.26506 -1.81808,-0.3676 0.23193,-0.37527 6.10223,0.63154 8.21235,1.4085 1.56395,0.57585 0.58966,0.46424 -2.09819,-0.24035 z M 15.4405,40.06134 c -0.33751,-0.25981 -0.84062,-0.35862 -1.38907,-0.27281 -1.07747,0.16858 -1.09679,-0.15664 -0.0534,-0.89957 0.63392,-0.45139 1.01178,-0.53573 1.76613,-0.39421 1.07002,0.20073 3.05758,0.9467 2.91154,1.09274 -0.0517,0.0517 -1.01242,-0.0656 -2.13483,-0.26079 -2.06599,-0.35927 -2.4038,-0.26494 -0.89888,0.25099 0.45372,0.15554 0.87181,0.42344 0.9291,0.59531 0.14603,0.43808 -0.49918,0.37435 -1.13055,-0.11166 z m 16.00729,-0.67183 c -0.75451,-0.30651 -3.70148,-0.8951 -5.75068,-1.14857 -0.76178,-0.0942 -1.77302,-0.28259 -2.24721,-0.41859 -0.47419,-0.136 -1.22013,-0.23843 -1.65766,-0.22764 l -0.79549,0.0196 1.05833,0.48992 c 1.42407,0.65923 0.9829,0.6309 -1.85208,-0.11893 -2.24463,-0.59369 -2.33852,-0.6463 -1.63643,-0.9169 0.40966,-0.1579 0.9011,-0.28708 1.09209,-0.28708 0.93146,0 1.12967,-1.67424 0.21361,-1.80434 -0.32743,-0.0465 -0.58596,-0.2251 -0.57452,-0.39688 0.0379,-0.5691 1.49105,-2.69477 1.79617,-2.62743 0.16483,0.0364 0.2997,-0.0599 0.2997,-0.21405 0,-0.15411 0.11906,-0.20662 0.26458,-0.11668 0.14552,0.0899 0.40848,0.0746 0.58435,-0.0341 0.26891,-0.1662 2.01605,-0.26688 6.36429,-0.36676 0.474,-0.0109 1.14828,0.33207 1.91823,0.97567 l 1.1873,0.99246 v 1.87661 1.87662 l 1.12448,0.0639 c 2.0567,0.11684 6.44169,1.32703 4.9077,1.35445 -0.24756,0.004 -1.081,-0.15577 -1.85208,-0.35599 -0.77109,-0.20021 -2.05682,-0.43399 -2.85718,-0.51949 l -1.45521,-0.15545 1.5875,0.38161 c 2.94879,0.70885 4.27072,1.13806 3.57187,1.15973 -0.3638,0.0113 -1.3163,-0.15525 -2.11666,-0.37007 -0.80037,-0.21483 -1.69334,-0.38395 -1.98438,-0.37583 l -0.52916,0.0148 0.52916,0.22197 c 0.29104,0.12209 0.91994,0.36818 1.39755,0.54688 1.66251,0.62201 0.62967,0.54347 -1.68761,-0.12834 -1.28309,-0.37198 -2.75476,-0.66304 -3.27037,-0.6468 -0.79954,0.0252 -0.68442,0.0933 0.78231,0.46302 0.94588,0.23842 1.95791,0.5787 2.24896,0.75618 0.63689,0.38838 0.2564,0.40939 -0.66146,0.0365 z m -4.0349,-1.46764 c -0.25466,-0.0666 -0.46403,-0.20157 -0.46526,-0.30004 -0.001,-0.0985 -0.67374,-0.20663 -1.49447,-0.24035 -1.63858,-0.0673 -1.71836,0.1667 -0.15986,0.46894 1.07796,0.20905 2.87837,0.26974 2.11959,0.0714 z m 4.36563,0.007 c -0.18191,-0.0734 -0.47956,-0.0734 -0.66146,0 -0.1819,0.0734 -0.0331,0.13346 0.33073,0.13346 0.3638,0 0.51263,-0.0601 0.33073,-0.13346 z m -4.0349,-2.88309 c 0,-1.22834 -0.10929,-2.23334 -0.24286,-2.23334 -0.13358,0 -0.22534,1.06171 -0.20392,2.35937 0.0214,1.29765 0.13071,2.30266 0.24286,2.23334 0.11216,-0.0693 0.20392,-1.13103 0.20392,-2.35937 z m 2.11667,0.2802 c 0,-1.32292 -0.10895,-2.24896 -0.26459,-2.24896 -0.28683,0 -0.36012,2.92382 -0.0978,3.9026 0.27848,1.03912 0.36241,0.65615 0.36241,-1.65364 z m 0.79375,1.98437 c 0,-0.14552 -0.11907,-0.26458 -0.26459,-0.26458 -0.14552,0 -0.26458,0.11906 -0.26458,0.26458 0,0.14552 0.11906,0.26459 0.26458,0.26459 0.14552,0 0.26459,-0.11907 0.26459,-0.26459 z m -3.92193,-1.0738 c 0.13122,-1.37593 -0.27192,-1.75414 -1.47591,-1.38462 -0.48335,0.14834 -1.35074,0.22252 -1.92753,0.16484 -0.57679,-0.0577 -1.33743,0.0105 -1.69032,0.15155 l -0.6416,0.25641 0.74321,0.0168 c 0.85829,0.0194 0.71703,0.52531 -0.16352,0.58567 -0.31883,0.0219 -0.0439,0.12304 0.61093,0.22485 l 1.19063,0.1851 -1.12448,0.0397 c -0.61847,0.0219 -1.12448,0.14608 -1.12448,0.27606 0,0.12997 0.80367,0.21035 1.78593,0.17863 0.98227,-0.0317 2.0836,0.0303 2.4474,0.13782 1.14636,0.33882 1.26488,0.26676 1.36974,-0.83282 z m -4.01557,-0.51859 c 0,-0.16006 0.29566,-0.19869 0.7276,-0.0951 1.03875,0.2492 1.07367,0.3647 0.11024,0.3647 -0.46081,0 -0.83784,-0.12134 -0.83784,-0.26963 z m 5.82083,0.68212 c 0,-0.0642 -0.11906,-0.19027 -0.26458,-0.2802 -0.14552,-0.0899 -0.26459,-0.0374 -0.26459,0.11667 0,0.15411 0.11907,0.2802 0.26459,0.2802 0.14552,0 0.26458,-0.0525 0.26458,-0.11667 z m 1.905,-1.25916 c -0.24694,-0.24695 -0.3175,-0.17639 -0.3175,0.3175 0,0.49389 0.0706,0.56444 0.3175,0.3175 0.24694,-0.24695 0.24694,-0.38806 0,-0.635 z m -2.25343,0.003 c -0.0845,-0.21107 -0.14715,-0.14838 -0.15985,0.15985 -0.0115,0.27891 0.0511,0.43518 0.13897,0.34726 0.0879,-0.0879 0.0973,-0.31612 0.0209,-0.50711 z m -5.78428,-1.33946 0.64828,-0.59531 -0.3098,0.59531 c -0.36194,0.6955 -0.11556,0.76048 0.70479,0.18588 0.52758,-0.36953 0.56924,-0.36953 0.42744,0 -0.23092,0.60176 0.36191,0.49937 0.69325,-0.11973 0.34856,-0.65129 0.83575,-0.70317 0.62119,-0.0661 -0.14836,0.44049 0.85984,-0.48974 1.73882,-1.60433 0.35391,-0.44879 0.30037,-0.46683 -0.92604,-0.31206 -0.71592,0.0903 -1.89699,0.20567 -2.62459,0.25628 -0.72761,0.0506 -1.46869,0.10253 -1.64686,0.11539 -0.17816,0.0129 -0.50558,0.37464 -0.7276,0.80398 -0.4846,0.93711 -0.52036,1.294 -0.0862,0.85981 0.44073,-0.44073 0.75479,-0.39714 0.57193,0.0794 -0.21957,0.57221 0.16755,0.48828 0.91536,-0.19844 z m 7.89544,-0.26458 c -0.0734,-0.1819 -0.13345,-0.0331 -0.13345,0.33073 0,0.3638 0.0601,0.51263 0.13345,0.33073 0.0734,-0.1819 0.0734,-0.47956 0,-0.66146 z m -1.78133,-0.2802 c -0.0102,-0.31883 -0.12092,-0.81782 -0.24598,-1.10886 -0.17057,-0.39693 -0.23204,-0.2112 -0.24599,0.74322 -0.0115,0.78504 0.0827,1.20975 0.24599,1.10886 0.14552,-0.0899 0.25621,-0.42438 0.24598,-0.74322 z m 0.46991,-1.04272 c -0.0631,-0.32742 -0.11466,-0.0595 -0.11466,0.59532 0,0.65484 0.0516,0.92273 0.11466,0.59531 0.0631,-0.32742 0.0631,-0.8632 0,-1.19063 z M 18.88008,38.623 c -0.87313,-0.26219 -1.94469,-0.48986 -2.38125,-0.50593 -0.648,-0.0239 -0.71249,-0.0766 -0.35118,-0.28746 0.54293,-0.3168 3.336,0.28304 4.22839,0.9081 0.73369,0.51389 0.55054,0.49985 -1.49596,-0.11471 z"
       id="path5" />
  </g>
</svg>
