<?xml version="1.0" encoding="UTF-8" standalone="no"?>
<!-- Created with Inkscape (http://www.inkscape.org/) -->

<svg
   width="85.666603mm"
   height="49.620216mm"
   viewBox="0 0 85.666601 49.620218"
   version="1.1"
   id="svg1"
   inkscape:version="1.4.1-rc (06eac75fbf, 2025-03-29)"
   sodipodi:docname="city11.svg"
   xmlns:inkscape="http://www.inkscape.org/namespaces/inkscape"
   xmlns:sodipodi="http://sodipodi.sourceforge.net/DTD/sodipodi-0.dtd"
   xmlns="http://www.w3.org/2000/svg"
   xmlns:svg="http://www.w3.org/2000/svg">
  <sodipodi:namedview
     id="namedview1"
     pagecolor="#ffffff"
     bordercolor="#000000"
     borderopacity="0.25"
     inkscape:showpageshadow="2"
     inkscape:pageopacity="0.0"
     inkscape:pagecheckerboard="0"
     inkscape:deskcolor="#d1d1d1"
     inkscape:document-units="mm"
     inkscape:zoom="0.72248176"
     inkscape:cx="161.9418"
     inkscape:cy="93.427964"
     inkscape:window-width="1850"
     inkscape:window-height="1016"
     inkscape:window-x="0"
     inkscape:window-y="0"
     inkscape:window-maximized="1"
     inkscape:current-layer="layer1" />
  <defs
     id="defs1" />
  <g
     inkscape:label="Layer 1"
     inkscape:groupmode="layer"
     id="layer1"
     transform="translate(-62.44167,-123.56073)">
    <path
       style="fill:#000000"
       d="m 88.224931,173.07874 c -0.42456,-0.0847 -0.81782,-0.29203 -0.87391,-0.46068 -0.12674,-0.38104 0.98496,-0.62747 2.63802,-0.58476 1.04046,0.0269 1.25677,0.11776 1.25677,0.52807 0,0.27259 -0.14883,0.50594 -0.33073,0.51857 -0.1819,0.0126 -0.68791,0.0522 -1.12448,0.0879 -0.43656,0.0357 -1.14111,-0.004 -1.56567,-0.0891 z m 16.894139,-0.52744 c -0.0616,-0.0599 -1.60002,-0.12833 -3.41864,-0.1522 -1.818619,-0.0239 -3.388909,-0.12571 -3.489529,-0.22633 -0.35854,-0.35854 0.44968,-0.7984 1.56195,-0.85007 0.621639,-0.0289 1.427909,-0.0747 1.791709,-0.10192 0.66137,-0.0494 0.66138,-0.0494 0.0662,-0.28871 -0.78021,-0.31361 -0.75565,-0.73764 0.0607,-1.04802 0.87813,-0.33386 6.26087,-0.43438 8.04904,-0.15031 1.05721,0.16795 1.38014,0.14793 1.24116,-0.077 -0.10333,-0.16719 -0.41305,-0.30397 -0.68827,-0.30397 -0.27522,0 -0.60309,-0.18349 -0.72859,-0.40775 -0.19878,-0.3552 -0.64236,-0.37421 -3.4417,-0.14751 -1.76742,0.14313 -3.42683,0.36731 -3.68756,0.49816 -0.26073,0.13086 -1.63484,0.227 -3.053569,0.21366 -1.41873,-0.0134 -2.57959,0.0548 -2.57968,0.15145 -1e-4,0.0966 -1.67668,0.18487 -3.72572,0.19604 -2.04905,0.0112 -3.80523,0.0685 -3.90261,0.12741 -0.45328,0.27418 -3.52769,0.40279 -4.64386,0.19427 -1.48594,-0.27761 -1.66877,-0.41939 -1.22705,-0.95163 0.28398,-0.34218 0.23959,-0.40229 -0.29302,-0.3968 -0.34524,0.004 -1.14495,0.12574 -1.77713,0.27152 -0.90594,0.20891 -1.32089,0.17951 -1.95888,-0.13876 -0.44521,-0.2221 -1.20325,-0.40381 -1.68455,-0.40381 -1.10326,0 -1.85996,-0.77683 -2.09146,-2.14712 -0.1563,-0.92513 -0.25243,-1.02788 -0.96155,-1.02788 -0.92718,0 -1.47118,-0.26648 -3.30829,-1.62056 -0.96045,-0.70791 -2.46358,-1.37099 -5.07553,-2.23898 l -3.710971,-1.23322 0.09209,-1.09164 c 0.169019,-2.00355 0.469462,-3.61585 0.700387,-3.75857 0.125686,-0.0777 0.05036,-0.48575 -0.167386,-0.90683 -0.396892,-0.7675 -0.53641,-3.02827 -0.235305,-3.81294 0.08833,-0.23018 0.308001,-0.41851 0.488159,-0.41851 0.506733,0 1.154718,-0.84736 1.312226,-1.71597 0.0783,-0.43191 0.39699,-0.97732 0.70816,-1.21203 0.56282,-0.42454 1.70535,-0.39617 1.98059,0.0492 0.0792,0.12815 0.25603,0.23299 0.39296,0.23299 0.3439,0 0.31415,-1.41649 -0.0371,-1.76776 -0.20507,-0.20507 -0.20286,-0.9881 0.008,-2.7649 0.16165,-1.36333 0.34705,-3.66059 0.412,-5.10501 0.065,-1.44441 0.21027,-2.71535 0.32292,-2.82431 0.11266,-0.10896 0.71085,-0.10401 1.32931,0.011 0.93951,0.1747 1.13004,0.13878 1.15825,-0.2184 0.13097,-1.65805 0.3161,-2.14728 0.81257,-2.14728 0.15727,0 0.43817,-0.20817 0.62422,-0.46261 0.18604,-0.25443 0.42157,-0.3793 0.52338,-0.27748 0.10182,0.10182 0.19976,2.63171 0.21765,5.62198 0.0249,4.17031 0.10996,5.43686 0.36492,5.43686 0.39785,0 2.5209,-1.86995 2.33459,-2.05627 -0.0715,-0.0715 0.007,-0.38221 0.1734,-0.6905 0.16686,-0.30829 0.33124,-0.81062 0.3653,-1.1163 0.0557,-0.49952 0.65193,-3.14363 1.09782,-4.86818 0.0941,-0.3638 0.18684,-0.78052 0.20617,-0.92604 0.0193,-0.14552 0.17063,-0.74084 0.33621,-1.32292 0.16558,-0.58208 0.34681,-1.47505 0.40273,-1.98438 0.17793,-1.62062 0.50098,-2.64583 0.83371,-2.64583 0.17754,0 0.5383,-0.23812 0.80169,-0.52917 0.39957,-0.44151 0.41202,-0.52916 0.0752,-0.52916 -0.33771,0 -0.36566,-0.20374 -0.17097,-1.24587 0.4269,-2.28509 1.22176,-2.23172 1.24942,0.0839 0.0123,1.03406 0.14508,1.57955 0.4361,1.79235 0.23009,0.16825 0.41458,0.54173 0.40998,0.82996 -0.005,0.28823 -0.0125,0.70265 -0.0176,0.92093 -0.0219,0.93955 0.50785,4.21723 0.89806,5.55625 0.23323,0.80036 0.4847,2.04318 0.5588,2.76182 0.12634,1.22522 0.41427,2.36224 0.9639,3.80644 0.12875,0.33833 0.17437,0.71179 0.10136,0.82992 -0.24781,0.40097 0.51812,0.73124 2.11039,0.91 2.02812,0.22769 2.27816,0.48195 1.97723,2.01057 -0.40087,2.03629 -0.37286,2.12938 0.54447,1.80959 0.44105,-0.15375 1.03198,-0.21938 1.31319,-0.14584 0.84176,0.22012 1.10859,-0.40739 0.91202,-2.14482 -0.16646,-1.47133 -0.1388,-1.59292 0.40136,-1.76437 0.31909,-0.10127 0.64339,-0.1209 0.72067,-0.0436 0.0773,0.0773 0.3731,-0.0762 0.65736,-0.341 0.34348,-0.32 0.56859,-0.98287 0.67111,-1.9762 0.0848,-0.82207 0.25631,-1.55775 0.38104,-1.63483 0.12472,-0.0771 0.22676,-0.377 0.22676,-0.66648 0,-0.28949 0.22319,-0.98828 0.49597,-1.55288 0.42743,-0.88467 0.48694,-1.5685 0.43063,-4.94816 -0.0653,-3.91696 0.0131,-4.30432 0.87324,-4.31443 0.25105,-0.003 0.33359,0.44492 0.30399,1.64959 -0.055,2.2389 0.28002,4.50656 0.71341,4.82865 0.24101,0.1791 0.39049,1.09231 0.46272,2.8267 0.11159,2.67983 0.22682,3.12642 0.80666,3.12642 0.21363,0 0.42145,0.46836 0.53051,1.19564 0.12678,0.84544 0.36467,1.3171 0.81216,1.61031 0.679749,0.44539 1.185299,0.31159 1.185299,-0.31369 0,-0.21282 0.29765,-0.52256 0.66145,-0.68832 0.36381,-0.16576 0.66146,-0.44697 0.66146,-0.62492 0,-0.34847 0.81513,-0.64042 1.80434,-0.64624 0.95416,-0.006 0.67439,1.09331 -0.34913,1.37138 -0.43656,0.11861 -1.21047,0.57305 -1.71979,1.00987 -0.83283,0.71428 -0.87944,0.82197 -0.46302,1.06991 0.25466,0.15163 0.46302,0.58017 0.46302,0.95231 0,0.51616 0.10207,0.63745 0.43041,0.51145 0.48489,-0.18607 1.22884,0.30757 1.00627,0.6677 -0.0798,0.12903 -0.43562,0.2346 -0.79084,0.2346 -0.35521,0 -0.65555,0.0893 -0.66743,0.19844 -0.0119,0.10914 -0.0458,0.93539 -0.0754,1.8361 -0.0452,1.3761 0.0216,1.65738 0.4182,1.7611 0.25961,0.0679 0.53869,0.0155 0.62018,-0.11631 0.0815,-0.13186 0.46857,-0.24019 0.86016,-0.24073 0.39159,-5.5e-4 1.10847,-0.24272 1.59305,-0.53815 0.48459,-0.29544 0.7971,-0.40131 0.69447,-0.23525 -0.12446,0.20138 -0.0214,0.25043 0.30956,0.14731 0.83913,-0.26146 1.14386,0.16865 1.10793,1.56382 -0.0675,2.6216 0.13594,3.8533 0.68504,4.14717 0.46282,0.24769 0.47367,0.31008 0.10127,0.58238 -0.32387,0.23682 -0.40844,0.76108 -0.37841,2.34586 0.0213,1.12249 0.0982,2.03932 0.17095,2.0374 0.39219,-0.0103 0.74548,-0.4824 0.88763,-1.18601 0.15679,-0.77605 0.49391,-4.37204 0.48369,-5.15938 -0.009,-0.69573 0.53337,-1.85208 0.86873,-1.85208 0.17808,0 0.53927,0.23812 0.80266,0.52916 0.65613,0.72502 1.88245,0.66972 2.93394,-0.13229 0.47697,-0.3638 0.96445,-0.65662 1.0833,-0.6507 0.11885,0.006 0.62832,0.3631 1.13214,0.79375 0.93493,0.79914 1.5975,1.00675 1.5975,0.50058 0,-0.15533 0.22135,-0.21216 0.49189,-0.12629 0.68628,0.21781 1.36019,-0.0919 1.36019,-0.62502 0,-0.24637 0.12656,-0.5745 0.28125,-0.72919 0.15469,-0.15469 0.29245,-0.68452 0.30614,-1.1774 0.0137,-0.49288 0.18077,-1.01521 0.37127,-1.16073 0.27311,-0.20863 0.28816,-0.60029 0.0711,-1.85208 -0.34604,-1.99594 -0.36017,-2.50552 -0.1284,-4.63021 0.31268,-2.86643 -0.46794,-5.05562 -1.01421,-2.84427 -0.13481,0.5457 -0.37293,0.99401 -0.52917,0.99624 -0.1716,0.002 -0.15699,0.0848 0.0369,0.20801 0.24791,0.15754 0.22045,0.62335 -0.12063,2.04647 -0.24287,1.01338 -0.53613,1.8822 -0.65169,1.9307 -0.11555,0.0485 -0.21009,0.32023 -0.21009,0.60381 0,0.28359 -0.17764,0.94076 -0.39475,1.46038 -0.21711,0.51962 -0.42155,1.29658 -0.45432,1.72657 -0.0328,0.43 -0.21231,0.90858 -0.399,1.06351 -0.18669,0.15494 -0.33943,0.60447 -0.33943,0.99896 0,0.89079 -0.24074,1.15463 -0.70326,0.77076 -0.20881,-0.17329 -0.35508,-0.82973 -0.35508,-1.59351 0,-0.91043 -0.11868,-1.34436 -0.39687,-1.45112 -0.26944,-0.10339 -0.39688,-0.52551 -0.39688,-1.31461 0,-0.63927 -0.0643,-1.16232 -0.14283,-1.16232 -0.0786,0 -0.58475,0.22545 -1.12487,0.501 -1.40324,0.71588 -4.94635,0.73167 -5.87605,0.0262 -0.61473,-0.46647 -0.63065,-0.53296 -0.22544,-0.94112 0.3092,-0.31145 0.94403,-0.44979 2.18277,-0.47564 0.96071,-0.02 1.74677,-0.0803 1.74679,-0.13382 3e-5,-0.0536 -0.35714,-0.50418 -0.7937,-1.00139 -0.43656,-0.49722 -0.79375,-1.19052 -0.79375,-1.54067 0,-1.03908 -0.41939,-0.99208 -1.16209,0.13022 -0.38363,0.5797 -0.80874,1.05399 -0.9447,1.05399 -0.47713,0 -1.54576,1.20929 -1.63724,1.85274 -0.11019,0.77509 -1.35967,1.35148 -1.85529,0.85587 -0.23017,-0.23018 -0.22713,-0.39866 0.0124,-0.68729 0.24838,-0.29928 0.24307,-0.40829 -0.0244,-0.50172 -0.25427,-0.0888 -0.21272,-0.26474 0.16226,-0.68719 0.27721,-0.3123 0.64043,-0.56782 0.80715,-0.56782 0.62188,0 1.66475,-0.65797 2.07669,-1.31022 0.23418,-0.37079 0.81786,-1.1378 1.29708,-1.70447 0.57513,-0.68009 0.75888,-1.06982 0.54057,-1.14653 -0.372,-0.13071 -0.45295,-1.28827 -0.10512,-1.50323 0.12408,-0.0767 0.44651,0.0221 0.71652,0.21953 0.27,0.19743 0.63515,0.30362 0.81144,0.23597 0.18269,-0.0701 0.54634,0.36922 0.84564,1.02162 0.28882,0.62954 0.94059,1.58392 1.44838,2.12083 0.50779,0.53692 0.85653,1.04294 0.77498,1.12448 -0.0815,0.0815 0.0127,0.14827 0.20951,0.14827 0.19678,0 0.62164,0.24788 0.94413,0.55085 0.3225,0.30297 1.06581,0.61517 1.65181,0.69376 1.05473,0.14147 1.06828,0.13237 1.34779,-0.90566 0.15529,-0.57672 0.39404,-1.63305 0.53054,-2.34741 0.39291,-2.05622 1.35199,-5.75262 1.62325,-6.25618 0.13612,-0.25269 0.24749,-0.68459 0.24749,-0.95979 0,-0.61615 0.776,-1.36479 0.82508,-0.79599 0.0172,0.19972 0.0172,0.45242 0,0.56156 -0.0172,0.10914 0.31312,0.19844 0.73411,0.19844 0.96503,0 1.14872,0.41755 1.22219,2.77813 0.0317,1.01864 0.20753,2.56645 0.39073,3.43958 0.1832,0.87312 0.35456,1.73288 0.38081,1.91057 0.0262,0.17769 0.13055,0.40589 0.23178,0.50712 0.10123,0.10122 0.18405,0.45483 0.18405,0.78579 0,0.33096 0.10556,0.66699 0.23459,0.74673 0.12902,0.0797 0.31394,0.56798 0.41093,1.08496 0.097,0.51699 0.4379,1.53993 0.75759,2.27321 l 0.58126,1.33323 1.25677,-0.16273 c 1.02398,-0.13259 1.25677,-0.0875 1.25677,0.24326 0,0.44055 0.40901,0.54988 0.64268,0.17179 0.0796,-0.1288 0.0123,-0.61407 -0.14955,-1.07838 -0.22269,-0.63881 -0.21663,-0.91977 0.0249,-1.15487 0.40627,-0.39541 1.54622,0.9031 2.6432,3.01088 0.42196,0.81078 1.13345,1.86621 1.5811,2.34541 0.44764,0.47921 0.81389,0.95764 0.81389,1.06318 0,0.10554 0.30948,0.35752 0.68773,0.55995 0.38279,0.20486 0.92024,0.89926 1.21211,1.56606 0.28841,0.6589 0.69655,1.59579 0.90697,2.08197 0.37697,0.87098 0.40289,0.88197 1.76445,0.74817 2.52195,-0.24782 2.97394,-0.42779 3.49243,-1.39057 0.26747,-0.49666 0.64615,-0.90302 0.84152,-0.90302 0.42451,0 0.42843,0.0376 0.0954,0.91349 -0.59434,1.56322 -0.71873,5.29192 -0.1975,5.91996 0.16837,0.20287 0.30612,1.01052 0.30612,1.79479 0,0.80165 0.11997,1.42956 0.27403,1.43424 0.34382,0.0104 1.30251,1.30037 1.10972,1.49315 -0.0783,0.0783 0.0889,0.39057 0.3715,0.69393 0.41071,0.44084 0.77932,0.53748 1.83615,0.48139 1.50498,-0.0799 1.72377,0.27701 0.54388,0.88716 -1.03065,0.53297 -6.15077,0.64767 -6.74899,0.15119 -0.33479,-0.27785 -0.48768,-0.27596 -0.83258,0.0103 -0.35663,0.29598 -0.46258,0.27897 -0.67975,-0.10908 -0.20533,-0.36692 -0.5156,-0.43572 -1.53705,-0.34084 -0.70388,0.0654 -1.53928,0.25776 -1.85645,0.4275 -0.31717,0.16975 -0.63825,0.24705 -0.71351,0.17179 -0.0753,-0.0753 -0.44404,-0.02 -0.8195,0.12271 -0.37547,0.14276 -2.00034,0.23577 -3.61082,0.20669 -6.22996,-0.11246 -7.71095,-0.0966 -8.28596,0.0887 -0.32742,0.10554 -0.88875,0.0803 -1.2474,-0.056 -0.35865,-0.13636 -0.70688,-0.15929 -0.77383,-0.051 -0.16729,0.27068 -2.32742,0.12813 -2.51973,-0.16628 -0.0903,-0.13819 -1.14308,-0.0921 -2.51212,0.11007 -1.2962,0.19138 -2.45612,0.28654 -2.57759,0.21146 -0.12148,-0.0751 -0.42668,-0.0213 -0.67824,0.11946 -0.7543,0.42212 0.96496,0.59407 4.87663,0.48771 1.92358,-0.0523 3.63757,-0.008 3.80887,0.0974 0.1713,0.10587 0.23558,0.39024 0.14283,0.63193 -0.14756,0.38453 -0.6235,0.43143 -3.80887,0.37539 -5.03791,-0.0886 -6.15378,-0.20755 -6.15378,-0.65577 0,-0.20363 -0.12609,-0.37023 -0.2802,-0.37023 -0.15411,0 -0.20556,0.12076 -0.11434,0.26835 0.10915,0.17661 -0.99361,0.25898 -3.22553,0.24091 -1.86526,-0.0151 -3.74857,0.092 -4.18514,0.23807 -0.59227,0.19812 -0.65943,0.27516 -0.26458,0.30352 1.00059,0.0718 5.02811,0.31525 5.95313,0.35978 0.73479,0.0354 0.92604,0.15386 0.92604,0.57374 0,0.48677 -0.17639,0.52917 -2.20161,0.52917 -1.21089,0 -2.25204,-0.049 -2.31367,-0.10881 z m -14.870659,-3.79017 c 0.2518,0.0159 0.53504,-0.0961 0.62943,-0.24884 0.22008,-0.35609 -3.0886,-0.0128 -3.46849,0.35991 -0.17316,0.16988 0.19252,0.19055 1.05834,0.0598 0.7276,-0.10986 1.52893,-0.18676 1.78072,-0.17089 z m 27.065859,-0.41555 c -0.0815,-0.0815 -0.29496,-1.7e-4 -0.47443,0.18066 -0.25936,0.2613 -0.22897,0.29169 0.14811,0.14811 0.26094,-0.0994 0.40778,-0.24731 0.32632,-0.32877 z m 14.41279,-0.71255 c 0,-0.21829 -0.10554,-0.39688 -0.23454,-0.39688 -0.35935,0 -0.61472,-2.23335 -0.58011,-5.07326 0.0274,-2.24562 -0.0272,-2.57925 -0.44303,-2.71124 -0.61801,-0.19615 -2.12448,0.24219 -2.73679,0.79632 -0.70368,0.63682 -2.67968,0.80714 -3.12594,0.26943 -0.19399,-0.23375 -0.5098,-0.425 -0.7018,-0.425 -0.45037,0 -0.20578,3.6432 0.28421,4.23333 0.18124,0.21829 0.41225,0.97137 0.51337,1.67353 0.1645,1.14231 0.13311,1.26806 -0.29836,1.19496 -0.26522,-0.0449 -0.51278,0.0354 -0.55013,0.17856 -0.0411,0.1573 1.21486,0.28898 3.175,0.3329 1.7836,0.04 3.42151,0.11544 3.63979,0.16774 0.82497,0.19767 1.05833,0.14466 1.05833,-0.24039 z m -4.25538,-1.78594 c -0.0246,-0.0737 -0.12449,-0.66754 -0.34506,-2.05052 -0.22589,-1.41637 -1.7e-4,-1.8594 0.85974,-1.68741 0.48352,0.0967 0.84449,0.005 1.07594,-0.27416 0.43749,-0.52715 1.23747,-0.54413 1.43459,-0.0305 0.0822,0.21407 -0.014,0.55262 -0.21378,0.75235 -0.19972,0.19972 -0.34349,0.59012 -0.31949,0.86755 0.0337,0.38997 -0.12609,0.50169 -0.70445,0.4924 -0.65605,-0.0106 -0.73266,0.0688 -0.62257,0.64469 0.17135,0.89632 -0.045,1.3517 -0.64201,1.3517 -0.27548,0 -0.51078,-0.0298 -0.52291,-0.0661 z m -13.60399,1.6491 c 0.93837,0.19284 1.71979,0.0478 1.71979,-0.31921 0,-0.14411 -0.1786,-0.19349 -0.39688,-0.10973 -0.21828,0.0838 -0.39687,0.0449 -0.39687,-0.0864 0,-0.13129 -0.32427,-0.27638 -0.72059,-0.32243 -0.57636,-0.067 -0.77495,-0.27798 -0.99219,-1.05425 -0.14938,-0.53379 -0.36089,-1.05965 -0.47003,-1.16858 -0.32958,-0.32892 -0.223,-0.9036 0.16759,-0.9036 0.41246,0 0.78243,-1.40664 0.40593,-1.5434 -0.13354,-0.0485 -0.2428,-0.25686 -0.2428,-0.46302 0,-0.26402 0.33243,-0.37589 1.12448,-0.37844 1.63397,-0.005 2.31511,-0.2468 2.31511,-0.82099 0,-0.5958 -0.0379,-0.60013 -1.15778,-0.13222 -0.4819,0.20136 -1.5987,0.44996 -2.48176,0.55245 -1.4064,0.16323 -1.6721,0.11982 -2.14183,-0.34991 l -0.53625,-0.53625 -1.10918,0.53589 -1.10918,0.5359 0.1618,2.0276 c 0.20967,2.62749 0.36926,3.13888 1.03382,3.31267 0.46011,0.12032 0.49391,0.20879 0.21032,0.55049 -0.27559,0.33207 -0.27142,0.43054 0.0226,0.53408 0.59272,0.2087 2.70274,0.29141 3.27094,0.12822 0.29105,-0.0836 0.88636,-0.0786 1.32292,0.0111 z M 78.485861,167.2788 c 0.18531,-0.11761 0.38535,-0.46525 0.44453,-0.77253 0.15216,-0.79014 0.64639,-1.65137 0.94765,-1.65137 0.1404,0 0.25527,0.47625 0.25527,1.05833 0,0.84275 0.097,1.05834 0.47625,1.05834 0.26194,0 0.58936,0.10629 0.72761,0.2362 0.34204,0.32143 1.90526,0.0525 2.06149,-0.35461 0.0866,-0.22579 -0.0819,-0.28841 -0.54039,-0.20077 -0.61467,0.1175 -0.6534,0.0682 -0.49969,-0.63662 0.0917,-0.4202 0.21778,-1.18071 0.28029,-1.69004 0.0625,-0.50932 0.18693,-1.46676 0.2765,-2.12765 0.15792,-1.16532 0.13634,-1.21327 -0.7143,-1.5875 -1.01792,-0.44783 -1.2595,-1.28774 -0.64161,-2.23076 0.2826,-0.43129 0.57452,-0.58027 0.94645,-0.48301 0.55903,0.14619 0.72453,0.72605 0.28479,0.99782 -0.37158,0.22966 -0.0281,0.92292 0.37976,0.76642 0.19114,-0.0734 0.53191,0.12988 0.75727,0.45162 l 0.40974,0.58498 0.13133,-0.63335 c 0.0722,-0.34835 0.18324,-1.1989 0.24667,-1.89013 0.10394,-1.13251 0.0597,-1.26075 -0.44747,-1.29707 -0.30955,-0.0222 -0.73165,-0.0524 -0.93801,-0.0673 -0.20636,-0.0148 -0.42465,-0.17529 -0.48507,-0.35657 -0.0604,-0.18129 -0.28446,-0.32961 -0.49784,-0.32961 -0.80217,0 -1.88695,-0.7992 -2.22763,-1.64117 -0.19413,-0.4798 -0.46614,-0.94951 -0.60447,-1.04379 -0.49845,-0.33973 -1.7134,0.33915 -2.04661,1.1436 -0.5627,1.35846 -0.48945,1.9392 0.75105,5.95466 0.39115,1.26615 0.38975,1.4476 -0.0185,2.38125 -0.26333,0.60228 -0.40436,1.47191 -0.34901,2.15215 0.0587,0.7219 -0.0398,1.27418 -0.26808,1.50246 -0.19853,0.19853 -0.36097,0.48853 -0.36097,0.64444 0,0.33195 0.77723,0.36983 1.26297,0.0615 z m 17.98856,0.0401 c -0.25297,-0.0662 -0.72922,-0.0686 -1.05834,-0.005 -0.32911,0.0633 -0.12214,0.11747 0.45994,0.12041 0.58208,0.003 0.85136,-0.0488 0.5984,-0.11507 z m 24.497149,-0.20661 c 0.082,-0.21362 0.0421,-0.45452 -0.0887,-0.53533 -0.13075,-0.0808 -0.30808,-0.65017 -0.39406,-1.26525 -0.086,-0.61507 -0.20507,-1.47549 -0.26464,-1.91206 -0.0596,-0.43656 -0.25019,-1.27 -0.42359,-1.85208 -0.1734,-0.58208 -0.33221,-1.49029 -0.35291,-2.01823 -0.0368,-0.93889 -0.51431,-1.81823 -0.98735,-1.81823 -0.13055,0 -0.16956,0.32742 -0.0867,0.72761 0.30997,1.49687 0.68364,5.1973 0.66644,6.59978 -0.006,0.4648 0.11544,0.92285 0.26921,1.01789 0.15377,0.095 0.38836,0.45888 0.5213,0.80855 0.26892,0.70732 0.91106,0.84653 1.14099,0.24735 z m -35.668589,-0.86833 c 0.0916,-0.5457 0.28367,-1.37563 0.42681,-1.8443 0.14314,-0.46866 0.22538,-1.06397 0.18276,-1.32291 -0.0426,-0.25895 0.0125,-0.61416 0.12244,-0.78937 0.10996,-0.17521 0.11809,-0.64461 0.0181,-1.04312 l -0.18185,-0.72455 -0.26052,0.64624 c -0.14328,0.35543 -0.27659,0.82484 -0.29624,1.04312 -0.13322,1.47955 -0.52412,3.64714 -0.72863,4.04036 -0.13401,0.25767 -0.17159,0.58509 -0.0835,0.72761 0.32315,0.52287 0.63825,0.23437 0.80066,-0.73308 z m 6.01634,-2.84427 c -0.0743,-4.68515 0.0868,-5.21125 1.9114,-6.241 0.77393,-0.43678 1.46659,-0.94905 1.53924,-1.13837 0.20393,-0.53144 3.72792,-0.56529 4.47363,-0.043 0.32265,0.22599 0.756839,0.41089 0.964869,0.41089 0.37042,0 2.04344,1.66505 2.85788,2.84428 0.45943,0.66519 1.14405,0.79689 1.14405,0.22007 0,-0.20638 0.0661,-0.54738 0.1468,-0.75777 0.10211,-0.2661 -0.10134,-0.43217 -0.66838,-0.54558 -0.59662,-0.11932 -1.0084,-0.47935 -1.53586,-1.34284 -0.39637,-0.64889 -0.95881,-1.21679 -1.24985,-1.262 -0.73512,-0.11419 -0.66198,-0.7941 0.12779,-1.18785 0.66137,-0.32973 1.32742,-1.06153 1.32742,-1.45846 0,-0.11771 -0.48571,-0.21401 -1.07935,-0.21401 -1.04819,0 -1.07459,-0.0217 -0.91428,-0.75159 0.17482,-0.79599 -0.508019,-1.73651 -0.870799,-1.19942 -0.0981,0.14516 -0.8566,0.41253 -1.68567,0.59415 -1.29002,0.28261 -1.76202,0.26637 -3.27308,-0.11259 -1.36219,-0.34162 -1.81104,-0.36944 -1.96413,-0.12172 -0.38079,0.61612 -1.92322,0.73033 -2.81528,0.20846 -0.74972,-0.43859 -0.84422,-0.44416 -0.99219,-0.0585 -0.2646,0.68953 -0.18716,2.76417 0.10317,2.76417 0.27703,0 0.30575,2.31228 0.0345,2.77813 -0.27349,0.46969 -0.32413,0.9987 -0.43882,4.58336 -0.062,1.93876 -0.23438,3.96282 -0.38299,4.49791 -0.14862,0.53509 -0.27089,1.06763 -0.2717,1.18342 -8.1e-4,0.11579 0.8022,0.17532 1.78447,0.13229 l 1.78593,-0.0782 z m 1.32335,-6.9169 c -0.45968,-0.94255 -0.0179,-2.74261 0.67149,-2.73634 0.24486,0.002 0.62379,0.12356 0.84207,0.26961 0.34398,0.23017 0.32941,0.31706 -0.10929,0.65198 -0.27839,0.21253 -0.54003,0.70408 -0.58142,1.09233 -0.10359,0.97162 -0.52212,1.33906 -0.82285,0.72242 z m 1.87382,10.35649 c -0.0838,-0.21829 -0.25862,-0.39688 -0.38857,-0.39688 -0.12995,0 -0.23628,0.17859 -0.23628,0.39688 0,0.21828 0.17486,0.39687 0.38858,0.39687 0.23669,0 0.32904,-0.15512 0.23627,-0.39687 z m 9.125909,-0.28651 c 0.0514,-0.27899 0.26577,-0.70185 0.47637,-0.9397 0.27729,-0.31318 0.34805,-0.86052 0.25655,-1.98438 -0.0695,-0.85355 -0.13503,-1.83586 -0.14564,-2.18291 l -0.0193,-0.63099 -0.4871,0.63099 c -0.62113,0.80461 -0.90031,1.82976 -0.45138,1.65749 0.17849,-0.0685 0.47318,0.0546 0.65486,0.27348 0.27655,0.33322 0.22196,0.42521 -0.33534,0.56509 -0.36612,0.0919 -0.71579,0.30515 -0.77704,0.47392 -0.0849,0.2339 -0.0445,2.14655 0.0586,2.77629 0.0507,0.30923 0.69293,-0.22447 0.76936,-0.63928 z m 30.35838,0.31739 c 0.0772,-0.20129 -0.0557,-0.82637 -0.29533,-1.38906 -0.23968,-0.56269 -0.50222,-1.94581 -0.58343,-3.07359 -0.1211,-1.68179 -0.22726,-2.05053 -0.59035,-2.05053 -0.38848,0 -0.44055,0.3618 -0.42521,2.95447 0.0129,2.18329 0.10766,2.98453 0.36297,3.06967 0.19002,0.0634 0.48767,0.27715 0.66146,0.47506 0.40899,0.46579 0.69475,0.47038 0.86989,0.014 z m 2.35557,-0.36161 c -0.10441,-0.25466 -0.25169,-0.96904 -0.3273,-1.5875 -0.10673,-0.87301 -0.24812,-1.12448 -0.63223,-1.12448 -0.52977,0 -0.67865,0.64886 -0.21468,0.93561 0.15988,0.0988 0.20824,0.50014 0.11268,0.9352 -0.20472,0.93211 -0.002,1.30419 0.7095,1.30419 0.41198,0 0.49636,-0.11098 0.35203,-0.46302 z m 2.51446,-0.053 c 0,-0.28381 -0.20384,-0.6301 -0.45299,-0.76953 -0.34103,-0.19085 -0.46,-0.63549 -0.48134,-1.79908 -0.0321,-1.74937 -0.30888,-2.81669 -0.67222,-2.59214 -0.3815,0.23578 -0.28932,1.52776 0.15418,2.16094 0.25301,0.36123 0.30156,0.63133 0.13229,0.73595 -0.36589,0.22613 -0.33589,1.20403 0.0633,2.06361 0.38718,0.83368 1.25677,0.97224 1.25677,0.20025 z m -32.47501,-0.43088 c 0.0843,-0.44088 -0.002,-0.73331 -0.24515,-0.82643 -0.53659,-0.20592 -0.66827,0.0231 -0.46924,0.81607 0.2216,0.88293 0.54669,0.88765 0.71439,0.0104 z m 35.38543,0.30105 c 0,-0.42705 -0.37473,-0.74331 -0.60633,-0.51172 -0.20647,0.20648 0.078,0.89298 0.37005,0.89298 0.12995,0 0.23628,-0.17156 0.23628,-0.38126 z m -19.67664,-1.91293 c -0.18615,-1.35816 -0.32961,-1.63283 -0.65814,-1.26004 -0.29064,0.32978 0.18024,2.4959 0.54256,2.4959 0.18708,0 0.22679,-0.42454 0.11558,-1.23586 z m -24.060879,0.39948 c 0.55402,-0.31449 1.51333,-1.05366 2.131789,-1.64259 0.88164,-0.83955 1.12448,-1.26029 1.12448,-1.94829 0,-0.68426 -0.14068,-0.93099 -0.63882,-1.12038 -0.35135,-0.13358 -0.712179,-0.45806 -0.801839,-0.72106 -0.0897,-0.26299 -0.59528,-0.8056 -1.12358,-1.20578 -1.18464,-0.89734 -2.4026,-0.94322 -4.2839,-0.16139 -1.50537,0.6256 -1.98732,1.47618 -1.29684,2.28872 0.24842,0.29233 0.34704,0.83999 0.27878,1.54808 -0.0905,0.93857 0.0181,1.23663 0.75696,2.07817 1.37889,1.57046 2.28011,1.77735 3.85297,0.88452 z m 18.602099,-0.0897 c 0,-0.21828 -0.11906,-0.39688 -0.26458,-0.39688 -0.14552,0 -0.26459,0.1786 -0.26459,0.39688 0,0.21828 0.11907,0.39687 0.26459,0.39687 0.14552,0 0.26458,-0.17859 0.26458,-0.39687 z m -40.793749,-1.15349 c 0.0629,-0.42048 -0.0212,-0.52316 -0.33132,-0.40417 -0.609,0.2337 -1.73743,-0.11426 -1.73743,-0.53574 0,-0.41955 0.56591,-0.68473 1.46123,-0.68473 1.22422,0 0.96759,-0.89805 -0.2706,-0.94693 -1.94018,-0.0766 -1.94547,-0.0794 -2.50116,-1.33566 -0.29786,-0.67334 -0.55179,-1.41748 -0.56429,-1.65364 -0.0125,-0.23617 -0.1261,-0.0839 -0.25243,0.33832 -0.129,0.43117 -0.12959,0.95475 -10e-4,1.19439 0.28568,0.5338 -0.39089,1.57738 -0.77416,1.19411 -0.53148,-0.53148 -0.6987,-2.32184 -0.32335,-3.46199 0.55587,-1.68847 1.08278,-2.04815 2.54392,-1.73652 1.43971,0.30706 2.93114,0.0618 2.93114,-0.48209 0,-0.21765 -0.28852,-0.41502 -0.66146,-0.45249 -1.30218,-0.13084 -3.43951,-0.63626 -3.43553,-0.81241 0.002,-0.0987 0.10579,-0.34001 0.23015,-0.53624 0.18215,-0.28743 0.5711,-0.30307 2.00081,-0.0805 1.10903,0.17266 2.01514,0.18489 2.41568,0.0326 0.85596,-0.32543 0.82041,-0.62377 -0.0483,-0.40573 -0.37912,0.0951 -1.21256,0.0945 -1.85208,-10e-4 -0.90143,-0.13518 -1.16276,-0.28655 -1.16276,-0.67349 0,-0.27452 0.14882,-0.5139 0.33073,-0.53195 0.88075,-0.0874 3.27162,0.10897 3.50573,0.28797 0.14552,0.11128 0.92492,0.26687 1.732,0.34578 l 1.46742,0.14346 -0.0122,-1.95859 c -0.007,-1.07723 -0.10151,-1.95909 -0.21065,-1.9597 -0.10914,-6e-4 -0.19844,0.1075 -0.19844,0.24023 0,0.13273 -0.50602,0.32536 -1.12448,0.42807 -0.61846,0.10271 -1.36198,0.23101 -1.65225,0.28512 -0.74802,0.13943 -1.4566,-0.13292 -1.4566,-0.55986 0,-0.19988 -0.13182,-0.44489 -0.29293,-0.54447 -0.19712,-0.12182 -0.23456,0.003 -0.11446,0.38126 0.20336,0.64076 0.16239,0.65725 -0.76096,0.30619 -0.43637,-0.16591 -0.62091,-0.39348 -0.52396,-0.64613 0.11768,-0.30668 0.62786,-0.3797 2.38739,-0.34171 2.45892,0.0531 2.77514,-0.12082 2.57132,-1.41409 -0.0637,-0.40435 -0.002,-0.80572 0.13773,-0.89192 0.14136,-0.0874 0.16808,-0.47818 0.0604,-0.88307 -0.17307,-0.65061 -0.34306,-0.74276 -1.63043,-0.88385 -1.42137,-0.15577 -2.36325,0.0689 -2.36325,0.56369 0,0.1404 -0.1786,0.25528 -0.39688,0.25528 -0.21828,0 -0.39687,-0.11158 -0.39687,-0.24795 0,-0.13637 -0.38696,-0.19156 -0.8599,-0.12263 -0.47294,0.0689 -1.21708,0.0229 -1.65364,-0.10231 -0.75017,-0.21513 -0.79563,-0.30645 -0.82785,-1.66331 -0.0187,-0.78962 -0.11475,-2.26911 -0.21331,-3.28776 -0.0986,-1.01865 -0.19236,-2.00812 -0.20843,-2.19882 -0.0161,-0.19071 -0.36658,-0.52119 -0.77889,-0.7344 l -0.74965,-0.38766 -0.0536,0.99898 c -0.0295,0.54944 -0.0682,1.53476 -0.0861,2.18961 -0.0178,0.65484 -0.12584,1.3999 -0.24003,1.65569 -0.13157,0.29471 -0.0437,0.71524 0.23989,1.14806 0.24614,0.37565 0.51477,1.33461 0.59697,2.13102 0.11967,1.15952 0.0356,1.67592 -0.4218,2.59183 -0.67483,1.35123 -0.54817,1.86009 0.55907,2.24608 0.64421,0.22457 0.94492,0.20055 1.42469,-0.11381 0.33446,-0.21915 0.89723,-0.39846 1.25058,-0.39846 0.75944,0 1.12421,0.67481 0.48233,0.89229 -0.24459,0.0829 -0.62331,0.25733 -0.84159,0.38767 -0.21828,0.13034 -0.8059,0.36991 -1.30582,0.53238 -0.86051,0.27965 -1.01088,0.22623 -2.82186,-1.0025 -1.80357,-1.2237 -1.93689,-1.27141 -2.3322,-0.8346 -0.23061,0.25482 -0.41928,0.8945 -0.41928,1.42151 0,0.57427 -0.15815,1.04671 -0.39468,1.17908 -0.33869,0.18954 -0.35279,0.54532 -0.0994,2.5083 0.35745,2.76908 0.16498,4.17629 -0.571211,4.17629 -0.321157,0 -0.572086,0.23886 -0.6729,0.64053 -0.31815,1.26761 -0.0736,1.52527 2.021051,2.12941 1.74186,0.50239 2.07451,0.52991 2.55441,0.21127 0.50621,-0.33611 0.61102,-0.28864 1.26989,0.57518 0.39497,0.51784 0.83101,0.94153 0.96897,0.94153 0.13796,0 0.64108,0.29765 1.11805,0.66146 0.47697,0.3638 0.95159,0.66145 1.05472,0.66145 0.10312,0 0.62269,0.29572 1.15459,0.65716 0.84894,0.57687 1.03309,0.61357 1.50732,0.30041 0.29712,-0.19621 0.57819,-0.61041 0.6246,-0.92043 z m -9.43727,-4.68563 c -0.28091,-0.61652 -0.0494,-2.63138 0.38272,-3.33052 0.18466,-0.29879 1.59153,0.45084 1.78312,0.95011 0.19637,0.51173 -0.51395,1.23145 -1.02268,1.03623 -0.2975,-0.11416 -0.38922,0.0719 -0.38922,0.78938 0,1.16891 -0.35508,1.4302 -0.75394,0.5548 z m 74.572689,5.04537 c 0,-0.21828 -0.11533,-0.39688 -0.25628,-0.39688 -0.14095,0 -0.18775,0.1786 -0.10399,0.39688 0.0838,0.21828 0.19909,0.39687 0.25628,0.39687 0.0572,0 0.10399,-0.17859 0.10399,-0.39687 z m -26.19375,-1.19063 c 0,-0.29104 -0.11906,-0.52916 -0.26459,-0.52916 -0.14552,0 -0.26458,0.23812 -0.26458,0.52916 0,0.29105 0.11906,0.52917 0.26458,0.52917 0.14553,0 0.26459,-0.23812 0.26459,-0.52917 z m 1.5875,-0.15434 c 0,-0.2304 -0.14139,-0.37179 -0.31419,-0.31419 -0.4906,0.16353 -0.57197,0.73312 -0.10474,0.73312 0.23041,0 0.41893,-0.18852 0.41893,-0.41893 z m 19.31458,-1.68212 c 0,-1.51566 -0.35871,-1.88586 -1.0786,-1.11315 -0.61658,0.66182 -0.63769,1.06049 -0.097,1.83241 0.7178,1.0248 1.17563,0.7447 1.17563,-0.71926 z m 4.7625,0.64584 c 0,-0.21828 -0.11532,-0.39688 -0.25628,-0.39688 -0.14095,0 -0.18774,0.1786 -0.10398,0.39688 0.0838,0.21828 0.19909,0.39687 0.25628,0.39687 0.0572,0 0.10398,-0.17859 0.10398,-0.39687 z m -54.239579,-2.38121 c 0,-0.50932 -0.11906,-0.92604 -0.26459,-0.92604 -0.14552,0 -0.26458,0.22838 -0.26458,0.50752 0,0.27914 -0.0723,0.69586 -0.1606,0.92605 -0.10538,0.27463 -0.0144,0.41851 0.26459,0.41851 0.30953,0 0.42518,-0.25188 0.42518,-0.92604 z m 34.797749,0.26458 c -0.43499,-2.09509 -0.45345,-2.14132 -0.6464,-1.61868 -0.19874,0.53832 0.24344,2.28014 0.57885,2.28014 0.11268,0 0.14308,-0.29766 0.0675,-0.66146 z m -45.381089,0.029 c 0,-0.22125 -0.35764,-0.40968 -0.89711,-0.47266 -1.11594,-0.13028 -1.48414,-0.0147 -1.48414,0.46576 0,0.26785 0.33981,0.37483 1.19063,0.37483 0.84031,0 1.19062,-0.10826 1.19062,-0.36793 z m 38.496879,-0.17161 c 0.43656,-0.12218 1.27,-0.39651 1.85208,-0.60963 1.05268,-0.38542 1.05922,-0.39647 1.22296,-2.06656 0.23307,-2.37723 0.1449,-2.98482 -0.44987,-3.10004 -0.2784,-0.0539 -0.79332,-0.32392 -1.14425,-0.59997 -0.5799,-0.45615 -0.68855,-0.46505 -1.19179,-0.0977 -1.13852,0.83108 -1.73103,0.94849 -2.57755,0.51074 -0.94749,-0.48997 -1.04657,-0.42705 -1.14995,0.73025 -0.2034,2.27698 -0.40587,3.75175 -0.53245,3.87834 -0.0764,0.0764 0.25002,0.52407 0.72535,0.99487 0.90232,0.89374 1.21382,0.92827 3.24547,0.3597 z m -1.23093,-1.77557 c -0.1981,-0.97547 0.17535,-1.68674 0.76652,-1.45989 0.18683,0.0717 0.33212,-0.0709 0.33212,-0.32604 0,-0.30483 0.1372,-0.40084 0.41851,-0.29289 0.23019,0.0883 0.52784,0.16059 0.66146,0.16059 0.13362,0 0.24294,0.29766 0.24294,0.66146 0,0.55437 -0.12494,0.66146 -0.7717,0.66146 -0.42443,0 -0.82485,-0.14883 -0.88982,-0.33073 -0.0687,-0.19237 -0.21628,-0.23256 -0.35277,-0.0961 -0.13649,0.13649 -0.0963,0.28408 0.0961,0.35278 0.46629,0.16653 0.41284,0.86777 -0.0661,0.86777 -0.21828,0 -0.41501,-0.0893 -0.43718,-0.19844 z m 12.63232,0.35056 c 0.0391,-0.26606 0.58531,-0.96333 1.21391,-1.54949 0.73481,-0.6852 1.11219,-1.24706 1.05688,-1.57353 -0.0566,-0.33424 0.10164,-0.55687 0.46308,-0.65139 0.30202,-0.079 0.54911,-0.25671 0.54911,-0.39497 0,-0.13826 0.29766,-0.64163 0.66146,-1.1186 0.36381,-0.47697 0.66146,-1.0048 0.66146,-1.17297 0,-0.16816 0.11193,-0.30575 0.24873,-0.30575 0.13681,0 0.22155,-0.32742 0.18834,-0.72761 -0.0504,-0.60735 -0.16805,-0.71353 -0.71176,-0.64244 -0.35824,0.0468 -1.24436,0.12922 -1.96915,0.18308 -0.72478,0.0539 -1.35978,0.22389 -1.41111,0.37786 -0.12218,0.36655 -0.84297,0.36353 -0.84297,-0.004 0,-0.40413 -0.68883,-1.03944 -1.12701,-1.03944 -0.20409,0 -0.52528,0.28816 -0.71376,0.64034 -0.18849,0.35218 -0.4909,0.58347 -0.67203,0.51396 -0.44994,-0.17266 -0.71823,0.62787 -0.40597,1.21133 0.13988,0.26137 0.18926,0.54027 0.10975,0.61979 -0.2246,0.2246 -0.23385,3.20079 -0.0111,3.56126 0.1092,0.17669 0.23803,0.7612 0.28628,1.29891 0.0482,0.5377 0.28726,1.12355 0.53113,1.30187 0.58986,0.43132 1.80351,0.0927 1.8947,-0.52867 z m 2.62153,0.64163 c 0.0899,-0.14552 0.0445,-0.26458 -0.10107,-0.26458 -0.14552,0 -0.33816,0.11906 -0.4281,0.26458 -0.0899,0.14552 -0.0445,0.26458 0.10106,0.26458 0.14552,0 0.33817,-0.11906 0.42811,-0.26458 z m 6.2177,-0.25095 c 0,-0.13802 -0.29765,-0.57213 -0.66145,-0.96468 -0.36381,-0.39255 -0.66146,-0.8679 -0.66146,-1.05635 0,-0.18844 -0.11906,-0.41621 -0.26459,-0.50614 -0.54484,-0.33673 -0.23608,0.59596 0.55206,1.66766 0.8347,1.13502 1.03544,1.30166 1.03544,0.85951 z m -3.9026,-0.18886 c -0.1819,-0.0734 -0.47956,-0.0734 -0.66146,0 -0.1819,0.0734 -0.0331,0.13345 0.33073,0.13345 0.3638,0 0.51263,-0.0601 0.33073,-0.13345 z M 75.720401,157.2865 c -0.18587,-0.48436 -2.46626,-0.4369 -2.46626,0.0513 0,0.4016 0.62592,0.54935 1.76736,0.41722 0.59053,-0.0684 0.79886,-0.20803 0.6989,-0.46854 z m 60.239989,0.0672 c 0,-0.18586 -1.3737,-2.69214 -1.60956,-2.93659 -0.55659,-0.57686 -0.19545,0.99528 0.4541,1.97682 0.57798,0.87338 1.15546,1.35306 1.15546,0.95977 z m -30.95625,-0.9346 c 0,-0.60366 -0.13807,-0.7893 -0.66145,-0.88935 -0.73173,-0.13988 -0.78129,-0.0203 -0.40343,0.97357 0.35931,0.94506 1.06488,0.88926 1.06488,-0.0842 z m -18.079489,-1.76867 c 0.60165,-0.55759 0.60556,-0.58754 0.12292,-0.94041 -0.41181,-0.30108 -0.45691,-0.51404 -0.25924,-1.22437 0.13763,-0.4946 0.41248,-0.8599 0.64699,-0.8599 0.65591,0 0.32673,-1.04297 -0.48356,-1.53211 -0.68382,-0.41279 -0.74247,-0.40827 -1.10404,0.0851 -0.53547,0.73061 -0.73201,1.92752 -0.41406,2.52162 0.32686,0.61074 0.0609,1.83585 -0.39856,1.83585 -0.18288,0 -0.63524,-0.23812 -1.00524,-0.52917 -0.89042,-0.7004 -1.04032,-0.66872 -0.93892,0.19844 0.0938,0.80246 0.48075,0.98424 2.14251,1.00656 0.74625,0.01 1.25769,-0.15981 1.6912,-0.56157 z m -4.93926,-0.11426 c 0,-0.14552 -0.12608,-0.26458 -0.28019,-0.26458 -0.15411,0 -0.20662,0.11906 -0.11668,0.26458 0.0899,0.14552 0.21603,0.26458 0.2802,0.26458 0.0642,0 0.11667,-0.11906 0.11667,-0.26458 z m 22.706429,-0.99491 c 0.0465,-0.32593 -0.0428,-0.59261 -0.19844,-0.59261 -0.15564,0 -0.36188,-0.0298 -0.45831,-0.0661 -0.0964,-0.0364 -0.18982,0.26506 -0.20754,0.66987 -0.0397,0.90768 0.73462,0.89772 0.86429,-0.0111 z m 14.0905,0.39296 c -0.0327,-0.31636 -0.39563,-0.25509 -0.50932,0.086 -0.0582,0.17463 0.037,0.26988 0.21167,0.21167 0.17462,-0.0582 0.30857,-0.19215 0.29765,-0.29766 z m 14.92091,-0.44313 c 0.0854,-0.13822 -0.0952,-0.38535 -0.40129,-0.54919 -0.51079,-0.27337 -0.53241,-0.25269 -0.26268,0.25131 0.32842,0.61366 0.43833,0.66297 0.66397,0.29788 z m -29.00055,-2.21779 c 0.21513,-0.25921 0.2062,-0.461 -0.0337,-0.76284 -0.29322,-0.36885 -0.46686,-0.36992 -1.71531,-0.0106 -1.88309,0.54206 -1.86559,1.12582 0.0337,1.12582 0.86221,0 1.53806,-0.13886 1.71531,-0.35243 z m -13.059989,-1.49965 c 0,-0.24672 -0.2002,-0.36709 -0.52917,-0.31816 -0.93124,0.13853 -1.22857,0.30729 -1.05012,0.59604 0.26017,0.42096 1.57929,0.18885 1.57929,-0.27788 z m 5.25184,-2.18281 c 0.0936,-1.34607 0.24293,-2.76897 0.33182,-3.162 l 0.1616,-0.71461 -1.84949,0.0343 -1.84949,0.0343 -0.31056,2.75991 c -0.1708,1.51795 -0.27403,2.78296 -0.22939,2.81113 0.60542,0.38206 1.61391,0.65202 2.48969,0.66647 l 1.0856,0.0179 z m 1.49098,1.57188 c 0.002,-0.11773 -0.11501,-0.14046 -0.26053,-0.0505 -0.14552,0.0899 -0.26276,0.36486 -0.26053,0.61093 0.004,0.38557 0.0395,0.39255 0.26053,0.0505 0.14106,-0.21828 0.2583,-0.4932 0.26053,-0.61093 z m -7.24993,-0.99488 c 0.68748,-0.57055 0.38844,-0.72791 -1.2777,-0.67234 -1.2381,0.0413 -1.67195,0.15601 -1.73,0.45743 -0.06,0.31167 0.22785,0.41624 1.27771,0.46414 0.74535,0.034 1.52385,-0.0781 1.72999,-0.24923 z m 31.856179,0.0845 c -0.002,-0.10914 -0.11482,-0.37359 -0.2502,-0.58765 -0.30483,-0.48202 -0.66246,-0.18056 -0.4482,0.3778 0.15824,0.41237 0.70589,0.57692 0.6984,0.20985 z m -40.192239,-0.52917 c 0.0112,-0.10914 0.0758,-0.69427 0.14363,-1.3003 0.069,-0.61704 0.002,-1.17689 -0.15267,-1.27238 -0.16897,-0.10443 -0.27592,0.14925 -0.27592,0.65445 0,0.45374 -0.0928,0.76761 -0.20628,0.69749 -0.15665,-0.0968 -0.21722,0.93016 -0.0798,1.35303 0.0526,0.16173 0.55275,0.0458 0.57104,-0.13229 z m 1.6597,-1.13044 c 0.0686,-0.36052 0.18498,-0.83409 0.25858,-1.05237 0.40276,-1.19452 0.41681,-1.76389 0.0435,-1.76389 -0.47969,0 -0.60143,0.44803 -0.61173,2.25127 -0.008,1.47801 0.0987,1.67345 0.30962,0.56499 z m -2.5964,-3.39888 c -0.044,-0.23739 -0.16727,-1.08646 -0.27381,-1.88683 -0.10654,-0.80036 -0.28947,-1.63782 -0.40652,-1.86101 -0.42436,-0.80923 -0.87279,-5.45788 -0.57271,-5.93711 0.30991,-0.49492 0.27536,-0.93313 -0.0736,-0.93313 -0.69461,0 -0.88142,2.35473 -0.38832,4.8948 0.59664,3.07344 0.43682,4.40551 -0.42437,3.53703 -0.4759,-0.47993 -0.88433,-3.19531 -0.73726,-4.90155 0.0657,-0.76267 4e-4,-1.43695 -0.14814,-1.52876 -0.30152,-0.18635 -0.89271,0.74948 -0.63579,1.0064 0.0919,0.0919 0.0259,0.16708 -0.14664,0.16708 -0.1987,0 -0.25551,0.23193 -0.15495,0.6326 0.0873,0.34792 0.0301,0.71214 -0.12725,0.80936 -0.15731,0.0972 -0.28602,0.59029 -0.28602,1.0957 0,0.50541 -0.15633,1.30205 -0.3474,1.77032 -0.19107,0.46827 -0.3399,1.20859 -0.33073,1.64515 0.0161,0.76597 0.0686,0.79933 1.50034,0.95328 0.81601,0.0877 1.61832,0.24275 1.7829,0.34447 0.19213,0.11874 0.24284,0.038 0.14168,-0.22568 -0.0867,-0.22583 -0.0828,-0.60541 0.008,-0.8435 0.15137,-0.39448 0.21257,-0.39084 0.68976,0.041 0.61993,0.56103 0.73709,2.24397 0.15622,2.24397 -0.21183,0 -0.44249,0.40012 -0.54468,0.94483 -0.0975,0.51966 -0.23854,1.10456 -0.31345,1.29978 -0.0777,0.2024 0.0711,0.39643 0.34624,0.45147 0.39364,0.0788 0.56377,-0.21498 0.92423,-1.59576 0.24298,-0.93076 0.40574,-1.88651 0.36168,-2.12391 z m 14.87595,-0.89464 c 0.32606,-0.40528 0.19196,-1.74466 -0.29091,-2.9055 l -0.35973,-0.86481 -0.19902,1.40357 c -0.13325,0.93965 -0.36507,1.50727 -0.70137,1.71729 -0.69393,0.43337 -0.629,0.66126 0.22526,0.79067 0.40018,0.0606 0.80232,0.12806 0.89364,0.14987 0.0913,0.0218 0.28578,-0.10919 0.43213,-0.29109 z m 23.527369,-5.53971 c -0.0845,-0.21107 -0.14716,-0.14837 -0.15986,0.15985 -0.0115,0.27892 0.0511,0.43519 0.13897,0.34727 0.0879,-0.0879 0.0973,-0.31613 0.0209,-0.50712 z m -40.930629,-2.79466 c -0.007,-0.36213 -0.49379,-0.97942 -0.64925,-0.82396 -0.20842,0.20843 0.12358,1.02239 0.41703,1.02239 0.12995,0 0.23445,-0.0893 0.23222,-0.19843 z m 1.72384,-6.15157 c 0.0899,-0.14552 0.0374,-0.26458 -0.11667,-0.26458 -0.15411,0 -0.2802,0.11906 -0.2802,0.26458 0,0.14553 0.0525,0.26459 0.11667,0.26459 0.0642,0 0.19027,-0.11906 0.2802,-0.26459 z"
       id="path12" />
  </g>
</svg>
