<?xml version="1.0" encoding="UTF-8" standalone="no"?>
<!-- Created with Inkscape (http://www.inkscape.org/) -->

<svg
   width="75.828606mm"
   height="37.541157mm"
   viewBox="0 0 75.828606 37.541157"
   version="1.1"
   id="svg1"
   inkscape:version="1.4.1-rc (06eac75fbf, 2025-03-29)"
   sodipodi:docname="city1.svg"
   xmlns:inkscape="http://www.inkscape.org/namespaces/inkscape"
   xmlns:sodipodi="http://sodipodi.sourceforge.net/DTD/sodipodi-0.dtd"
   xmlns="http://www.w3.org/2000/svg"
   xmlns:svg="http://www.w3.org/2000/svg">
  <sodipodi:namedview
     id="namedview1"
     pagecolor="#ffffff"
     bordercolor="#000000"
     borderopacity="0.25"
     inkscape:showpageshadow="2"
     inkscape:pageopacity="0.0"
     inkscape:pagecheckerboard="0"
     inkscape:deskcolor="#d1d1d1"
     inkscape:document-units="mm"
     inkscape:zoom="0.72248176"
     inkscape:cx="142.56415"
     inkscape:cy="71.282076"
     inkscape:window-width="1850"
     inkscape:window-height="1016"
     inkscape:window-x="0"
     inkscape:window-y="0"
     inkscape:window-maximized="1"
     inkscape:current-layer="layer1" />
  <defs
     id="defs1" />
  <g
     inkscape:label="Layer 1"
     inkscape:groupmode="layer"
     id="layer1"
     transform="translate(-67.204166,-129.64571)">
    <path
       style="fill:#000000"
       d="m 126.75759,166.84753 c -0.50769,-0.57934 -2.46797,-0.77509 -2.99406,-0.29899 -0.4076,0.36887 -0.49267,0.3614 -0.89047,-0.0782 -0.2419,-0.2673 -0.43982,-0.61553 -0.43982,-0.77384 0,-0.40995 -0.5671,-0.55537 -1.22259,-0.3135 -0.30862,0.11387 -0.90393,0.1456 -1.32291,0.0705 -2.28455,-0.40946 -3.62309,-0.40374 -3.85826,0.0165 -0.13041,0.23304 -0.50504,0.42371 -0.8325,0.42371 -0.32747,0 -0.73546,0.14006 -0.90665,0.31125 -0.23861,0.23861 -0.44126,0.19358 -0.86836,-0.19293 -0.52277,-0.4731 -0.57289,-0.47598 -0.81315,-0.0467 -0.31712,0.56666 -0.99928,0.59177 -1.39446,0.0513 -0.22886,-0.31298 -1.0248,-0.43395 -3.46875,-0.52717 -1.74446,-0.0665 -4.00518,-0.22931 -5.02382,-0.3617 -1.67554,-0.21777 -1.88669,-0.19274 -2.21509,0.26259 -0.42999,0.59618 -0.977709,0.65414 -1.180779,0.12495 -0.188312,-0.49073 -1.810043,-0.7211 -4.938511,-0.70152 -2.60566,0.0163 -6.360704,-0.0123 -9.789584,-0.0747 -1.756621,-0.0319 -1.984375,-0.0935 -1.984375,-0.53604 0,-0.36343 0.32514,-0.59716 1.190625,-0.85588 0.654844,-0.19576 1.47836,-0.35773 1.830035,-0.35994 0.351675,-0.002 0.569075,-0.0743 0.48311,-0.16031 -0.08596,-0.086 -1.445262,-0.19899 -3.02066,-0.25117 -1.575398,-0.0522 -3.757329,-0.17908 -4.848735,-0.28201 -1.091406,-0.10293 -2.460625,-0.18982 -3.042708,-0.19308 -1.390065,-0.008 -6.518689,0.3463 -6.721267,0.46406 -0.08685,0.0505 -0.447216,-0.0174 -0.800823,-0.15082 -0.577939,-0.21808 -0.601882,-0.28364 -0.236879,-0.64865 0.289835,-0.28983 1.102335,-0.43255 2.838953,-0.49865 1.369933,-0.0521 2.600537,-0.23173 2.816567,-0.41102 0.261545,-0.21706 0.383657,-0.22597 0.383657,-0.028 0,0.20243 0.205635,0.21225 0.678683,0.0324 0.373275,-0.14192 0.957441,-0.25803 1.298146,-0.25803 0.476174,0 0.589355,-0.11514 0.489296,-0.49777 -0.0779,-0.29787 0.09782,-0.71016 0.437567,-1.02668 0.617405,-0.5752 1.470047,-4.49553 1.177924,-5.41593 -0.08621,-0.27163 0.03667,-0.78906 0.273064,-1.14984 0.236397,-0.36079 0.375891,-0.74323 0.309987,-0.84986 -0.192202,-0.31099 0.564609,-1.18388 0.865313,-0.99804 0.154269,0.0953 0.202112,0.52609 0.109735,0.98798 -0.126396,0.63198 -0.07912,0.79079 0.207104,0.69569 0.487796,-0.16207 0.731654,-2.12232 0.809466,-6.50688 0.04197,-2.36501 0.167517,-3.60377 0.383395,-3.78293 0.207004,-0.1718 1.073166,-0.18707 2.439174,-0.043 l 2.118185,0.22338 -0.14585,-1.33524 c -0.332922,-3.04786 -0.174461,-3.67481 0.778398,-3.07974 0.487132,0.30422 0.610202,0.28875 0.904467,-0.11368 0.187337,-0.2562 0.388138,-0.59776 0.446224,-0.75903 0.276167,-0.76672 0.579571,0.35862 0.622269,2.30803 0.04685,2.13905 0.05472,2.16216 0.765041,2.2486 0.394736,0.048 0.790153,-0.0156 0.878703,-0.14142 0.08855,-0.12581 0.505255,-0.49314 0.926009,-0.81629 0.5669,-0.43539 0.854024,-0.51367 1.108752,-0.30226 0.189059,0.1569 0.278552,0.45517 0.198872,0.66281 -0.09723,0.25337 0.03847,0.37753 0.412602,0.37753 0.556122,0 0.690148,0.46126 0.576599,1.98438 -0.03596,0.48237 0.123789,0.52916 1.806506,0.52916 1.573265,0 1.928055,-0.0879 2.40172,-0.59531 0.30567,-0.32742 0.836043,-0.59531 1.178608,-0.59531 0.649824,0 1.066054,-0.59724 0.968074,-1.38906 -0.03151,-0.25466 0.0507,-0.46302 0.182702,-0.46302 0.308906,0 0.916459,-3.92875 0.900152,-5.82084 -0.01672,-1.9396 0.977087,-5.29166 1.568847,-5.29166 0.51596,0 0.817,1.16393 0.40706,1.57387 -0.19456,0.19456 -0.18274,0.37368 0.0393,0.59571 0.17462,0.17462 0.3175,0.71471 0.3175,1.2002 0,0.92723 0.9464,5.20983 1.30175,5.89063 0.11393,0.21828 0.11972,0.635 0.0129,0.92605 -0.13556,0.3692 0.006,0.79587 0.4667,1.41144 0.48626,0.64904 0.58299,0.96029 0.36588,1.17739 -0.16231,0.16232 -0.29512,0.41022 -0.29512,0.55089 0,0.14067 0.0796,0.17613 0.17697,0.0788 0.26685,-0.26686 1.14595,0.6326 1.14595,1.17249 0,0.70803 -0.47469,0.86492 -1.19295,0.39429 -0.82419,-0.54003 -0.92372,-0.52889 -0.92372,0.10339 0,1.19906 -3.18501,1.84954 -4.146516,0.84685 -0.921249,-0.96071 -1.601022,-1.16556 -2.31514,-0.69765 -0.470377,0.30821 -1.079774,0.39405 -2.239546,0.3155 -0.876331,-0.0594 -1.704593,-0.038 -1.840584,0.0475 -0.137902,0.0867 -0.185681,1.00882 -0.108031,2.08504 l 0.139224,1.92965 1.220402,-0.0309 c 0.671222,-0.017 1.664777,0.0526 2.207902,0.15473 0.804377,0.15121 1.02048,0.0997 1.165355,-0.27786 0.115059,-0.29984 0.01812,-0.55288 -0.274566,-0.71667 -0.683989,-0.38278 -0.01135,-1.06774 0.87585,-0.89189 0.376995,0.0747 1.393987,0.16235 2.25998,0.19474 1.4911,0.0558 1.59718,0.018 2.00188,-0.71214 0.46574,-0.8403 1.31386,-1.13884 3.56733,-1.25569 l 1.32292,-0.0686 0.18181,-2.5436 c 0.1,-1.39898 0.36181,-2.97441 0.58181,-3.50095 l 0.40001,-0.95735 h 1.74598 c 1.5709,0 1.8111,-0.073 2.39535,-0.7276 0.61922,-0.69384 0.66679,-0.70508 1.02507,-0.24213 0.26211,0.33867 0.37726,1.23275 0.38079,2.95674 0.004,2.00691 0.11352,2.68628 0.58225,3.61557 0.71404,1.41563 0.61717,1.32121 1.14684,1.11795 0.24522,-0.0941 0.42714,-0.36479 0.40427,-0.60154 -0.0813,-0.84152 0.025,-1.0919 0.46359,-1.0919 0.24433,0 0.81525,-0.40505 1.26871,-0.90012 0.45346,-0.49506 1.27851,-1.15513 1.83344,-1.46682 0.93436,-0.52479 1.05577,-0.53604 1.64171,-0.15212 0.34801,0.22803 0.63274,0.59746 0.63274,0.82098 0,0.22351 0.11906,0.33281 0.26459,0.24287 0.14552,-0.0899 0.26502,0.0519 0.26557,0.31511 5.4e-4,0.26325 0.24906,0.88556 0.55227,1.38292 0.70415,1.15504 1.05387,0.69293 0.68743,-0.90839 -0.48075,-2.10091 0.6215,-3.93908 1.57782,-2.63124 0.28772,0.39348 0.4053,0.41067 0.76526,0.11193 0.35028,-0.2907 0.46317,-0.29172 0.6399,-0.006 0.11802,0.19097 0.64257,0.3732 1.16566,0.40496 1.13384,0.0688 1.20093,-0.075 1.23089,-2.63828 0.0119,-1.01864 0.0685,-2.38786 0.12586,-3.04271 0.0573,-0.65484 0.1107,-1.27801 0.11864,-1.38483 0.008,-0.10681 0.51827,-0.16046 1.13405,-0.11923 l 1.1196,0.075 0.071,1.44215 c 0.12453,2.52859 0.27161,5.13821 0.30412,5.39616 0.0173,0.13741 0.31699,-0.13715 0.66595,-0.61014 0.42061,-0.57011 0.68137,-0.7435 0.77361,-0.51442 0.0897,0.22273 0.21683,0.25151 0.35772,0.081 0.12022,-0.14552 0.58203,-0.28771 1.02625,-0.31598 0.66514,-0.0423 0.88973,0.10098 1.2727,0.81211 0.25576,0.47493 0.44376,0.9743 0.41776,1.10973 -0.026,0.13542 -0.0263,0.30575 -7.5e-4,0.37851 0.0256,0.0728 0.0886,0.93663 0.14012,1.9197 0.0765,1.46067 0.0101,1.84759 -0.36333,2.11666 -0.81879,0.59002 -0.83737,1.04703 -0.17475,4.29802 0.089,0.43656 0.29187,1.44859 0.45087,2.24896 0.15899,0.80036 0.52342,1.91655 0.80984,2.48041 0.2886,0.56814 0.45507,1.2759 0.3734,1.5875 -0.18932,0.72235 0.36944,2.28209 0.81753,2.28209 0.18905,0 0.35861,0.23812 0.3768,0.52916 0.0182,0.29105 0.049,0.678 0.0685,0.8599 0.0213,0.19888 0.4564,0.34018 1.09141,0.35443 0.58079,0.013 1.23458,0.0954 1.45286,0.18295 0.21828,0.0876 0.63363,0.19735 0.923,0.24392 0.28937,0.0466 0.56626,0.29308 0.61532,0.5478 0.0823,0.4271 -0.20678,0.45607 -3.71636,0.37246 -2.89157,-0.0689 -4.01925,-0.19726 -4.69531,-0.53452 -0.74819,-0.37325 -1.00887,-0.39114 -1.63841,-0.11248 -0.89066,0.39424 -0.98322,1.13749 -0.16821,1.35062 0.55731,0.14574 0.5619,0.1723 0.11502,0.66609 -0.45033,0.49761 -0.43666,0.52381 0.42099,0.80686 0.48754,0.1609 1.17992,0.28854 1.53863,0.28365 2.02941,-0.0277 5.6525,0.30784 6.13964,0.56855 l 0.56626,0.30305 -0.57404,0.46482 c -0.41477,0.33586 -0.9242,0.43979 -1.83622,0.37461 -0.6942,-0.0496 -2.21469,-0.15494 -3.37886,-0.23405 -1.16416,-0.0791 -2.47385,-0.21131 -2.91041,-0.29379 l -0.79375,-0.14997 0.63336,0.50812 c 1.01992,0.81824 0.49417,1.11121 -1.90467,1.0614 -1.24769,-0.0259 -2.41364,0.0872 -2.74619,0.26632 -0.72262,0.3893 -0.93168,0.38012 -1.31544,-0.0578 z M 127.19574,165.1 c 0,-0.14552 -0.11906,-0.26458 -0.26458,-0.26458 -0.14553,0 -0.26459,0.11906 -0.26459,0.26458 0,0.14553 0.11906,0.26459 0.26459,0.26459 0.14552,0 0.26458,-0.11906 0.26458,-0.26459 z m -23.39035,-1.3638 c 0.10856,-0.17565 0.17912,-1.64912 0.15682,-3.27437 -0.0235,-1.71024 0.10463,-3.51477 0.30413,-4.28385 0.3112,-1.1997 0.30009,-1.3567 -0.11427,-1.61547 -0.7065,-0.44122 -1.35562,0.76765 -1.45757,2.71445 -0.15277,2.91724 -0.39303,4.82483 -0.78687,6.24757 -0.0841,0.30391 0.11964,0.42458 0.79359,0.46997 0.49874,0.0336 0.99561,-0.0826 1.10417,-0.2583 z m 5.66327,-0.51914 c 0,-0.27277 -0.31675,-0.29863 -0.90288,-0.0737 -0.22935,0.088 -0.35803,0.25543 -0.28596,0.37204 0.16675,0.26981 1.18884,0.0133 1.18884,-0.29833 z m 11.1125,-0.21811 c 0,-0.28245 -0.11907,-0.58713 -0.26459,-0.67707 -0.15006,-0.0927 -0.26458,0.12954 -0.26458,0.51355 0,0.37239 0.11906,0.67707 0.26458,0.67707 0.14552,0 0.26459,-0.23109 0.26459,-0.51355 z m 5.72251,-0.34634 c -0.31,-1.62081 -1.06014,-3.90261 -1.28297,-3.90261 -0.42051,0 -0.54095,0.82975 -0.21016,1.44783 0.18202,0.34011 0.25586,0.73988 0.16409,0.88837 -0.0918,0.14849 -0.056,0.5468 0.0796,0.88512 0.13553,0.33833 0.3119,0.8235 0.39193,1.07816 0.08,0.25466 0.34273,0.46302 0.58376,0.46302 0.35179,0 0.40581,-0.16965 0.27379,-0.85989 z m -31.802285,0.36036 c 0.07986,-0.12922 -0.396941,-0.31624 -1.059564,-0.41561 -1.019831,-0.15293 -1.155315,-0.24025 -0.8826,-0.56886 0.258322,-0.31125 0.890874,-0.36573 3.191846,-0.27488 1.585675,0.0626 2.869677,0.008 2.869677,-0.12224 0,-0.12955 -0.234742,-0.23554 -0.521647,-0.23554 -0.286906,0 -1.418,-0.19696 -2.513542,-0.43769 -1.365607,-0.30007 -1.991895,-0.55865 -1.991895,-0.82243 0,-0.3184 0.376383,-0.35723 2.182813,-0.22522 1.200546,0.0877 2.578156,0.21511 3.061353,0.28305 0.611409,0.086 0.846105,0.0262 0.771867,-0.19649 -0.05867,-0.17601 -0.750564,-0.41269 -1.537539,-0.52595 -1.611471,-0.23191 -2.407819,-0.78095 -1.887467,-1.3013 0.175664,-0.17566 0.31939,-0.77091 0.31939,-1.32276 0,-0.78131 0.175672,-1.1599 0.79375,-1.71061 0.895802,-0.79817 1.01423,-1.20463 0.330729,-1.1351 -0.254661,0.0259 -0.522552,0.0235 -0.595313,-0.005 -0.404867,-0.16069 -5.861144,-0.26952 -6.807513,-0.13579 l -1.118971,0.15813 0.05092,2.75552 c 0.04851,2.62524 0.01881,2.79025 -0.62818,3.49034 -0.979873,1.06029 -1.121845,1.60672 -0.380641,1.46503 0.41853,-0.08 0.721494,0.0839 1.032662,0.55885 0.393053,0.59988 0.646606,0.68189 2.360108,0.76342 1.055859,0.0502 2.121077,0.115 2.36715,0.14391 0.246074,0.0289 0.512748,-0.0531 0.592611,-0.18237 z m -2.506543,-1.68328 c -0.0062,-0.0364 -0.07692,-1.11587 -0.15709,-2.39887 -0.156633,-2.50653 0.127621,-3.70294 0.989354,-4.16412 0.395879,-0.21187 0.557553,-0.11627 0.889754,0.52614 0.563175,1.08906 0.525605,1.86966 -0.08998,1.86966 -0.436411,0 -0.490964,0.19853 -0.454404,1.65365 0.0456,1.81506 -0.185218,2.57969 -0.778745,2.57969 -0.213161,0 -0.392659,-0.0298 -0.398884,-0.0661 z m 25.998628,1.11283 c 0.065,-0.44297 0.0186,-0.86697 -0.10318,-0.94222 -0.12177,-0.0753 -0.15861,-0.49323 -0.0819,-0.92882 0.0767,-0.43559 0.007,-1.28319 -0.1544,-1.88355 -0.16166,-0.60036 -0.30043,-2.09236 -0.30838,-3.31556 -0.0105,-1.61927 -0.11218,-2.26149 -0.37385,-2.3619 -0.47581,-0.18259 -0.45651,-0.85836 0.0402,-1.40722 0.22782,-0.25173 0.45796,-1.17059 0.53537,-2.1375 0.13867,-1.73213 0.72906,-2.94472 1.5085,-3.09826 0.43032,-0.0848 0.80246,1.34342 0.44996,1.72685 -0.10346,0.11254 -0.26905,0.47251 -0.36797,0.79993 -0.13313,0.44066 -0.0721,0.59532 0.23485,0.59532 0.22808,0 0.4147,-0.10537 0.4147,-0.23416 0,-0.12878 0.28944,-0.4238 0.64319,-0.65559 0.57774,-0.37854 0.73991,-0.38102 1.59349,-0.0244 0.87823,0.36696 0.9615,0.36149 1.09812,-0.072 0.0813,-0.25798 0.23463,-0.70719 0.34071,-0.99823 0.26085,-0.71565 0.0709,-1.45521 -0.37369,-1.45521 -0.4484,0 -1.74781,-2.51528 -1.5567,-3.0133 0.0946,-0.24656 -0.13004,-0.40101 -0.70629,-0.48559 -0.66018,-0.0969 -0.87281,-0.0178 -0.97201,0.36154 -0.0698,0.26706 -0.22482,0.4251 -0.3444,0.35119 -0.11958,-0.0739 -0.51735,0.16556 -0.88393,0.53214 -0.36659,0.36659 -0.89548,0.66652 -1.17532,0.66652 -0.27983,0 -0.64563,0.16488 -0.81288,0.36641 -0.24298,0.29277 -0.16505,0.4013 0.38783,0.54006 0.55062,0.1382 0.63022,0.248 0.38979,0.5377 -0.16616,0.20022 -0.26597,0.80753 -0.22179,1.34958 l 0.0803,0.98555 -2.059,0.0254 c -2.02924,0.025 -2.05831,0.035 -2.01062,0.69004 0.0975,1.33889 -0.0122,1.59066 -0.69287,1.59066 -0.5573,0 -0.66146,-0.12392 -0.66146,-0.78695 0,-0.61109 -0.18185,-0.881 -0.81372,-1.20775 -0.97816,-0.50583 -3.64248,-0.97496 -4.05269,-0.7136 -0.37379,0.23816 -0.47012,0.25417 -1.76844,0.29398 -1.04404,0.032 -1.0771,0.0606 -1.03153,0.89297 0.0259,0.47294 0.0203,0.91943 -0.0125,0.99219 -0.0328,0.0728 -0.098,0.68306 -0.14494,1.35624 -0.0704,1.00931 0.0242,1.32691 0.53964,1.81112 0.57568,0.54082 0.70083,0.55976 1.58537,0.23991 0.94558,-0.34193 0.95934,-0.36775 0.89447,-1.67883 -0.0362,-0.73236 0.0743,-1.58576 0.24558,-1.89645 0.31935,-0.57918 1.47397,-1.02932 1.92509,-0.75051 0.33479,0.20691 0.32502,1.90075 -0.0122,2.10914 -0.14552,0.0899 -0.26458,0.348 -0.26458,0.57347 0,0.3206 0.15856,0.36519 0.7276,0.20457 0.40018,-0.11295 1.26339,-0.23315 1.91823,-0.26712 1.63328,-0.0847 2.64584,-0.51849 2.64584,-1.13343 0,-0.92643 1.21574,-1.49431 1.98885,-0.92899 0.42991,0.31436 0.45979,0.45677 0.18735,0.89302 -0.17827,0.28545 -0.32413,0.84883 -0.32413,1.25195 0,0.40312 -0.11653,1.13926 -0.25895,1.63587 -0.19111,0.66639 -0.15441,1.26253 0.14009,2.27561 0.28283,0.9729 0.32477,1.56806 0.14401,2.0435 -0.14027,0.36894 -0.19407,0.90396 -0.11955,1.18892 0.0745,0.28497 -0.0524,0.70596 -0.28192,0.93554 -0.49823,0.49822 -0.5495,1.8048 -0.0889,2.2654 0.26162,0.26164 0.25124,0.37627 -0.051,0.56307 -0.27014,0.16696 -0.0789,0.26534 0.66366,0.34138 0.57375,0.0588 1.1785,0.12684 1.34389,0.15131 0.16538,0.0245 0.35389,-0.31796 0.4189,-0.76093 z m 6.28796,0.47467 c -0.002,-0.1819 -0.22965,-1.0451 -0.50558,-1.91823 -0.64739,-2.04863 -1.04545,-1.33037 -0.43206,0.77962 0.38216,1.31459 0.9478,2.00147 0.93764,1.13861 z m 6.2216,0.0661 c 0.0899,-0.14552 -0.0816,-0.26458 -0.38126,-0.26458 -0.29963,0 -0.54478,0.11906 -0.54478,0.26458 0,0.14552 0.17157,0.26458 0.38126,0.26458 0.20969,0 0.45484,-0.11906 0.54478,-0.26458 z m -23.74635,-0.66641 c 0,-0.53831 -0.0706,-0.60785 -0.36706,-0.36177 -0.27773,0.23049 -0.29399,0.39269 -0.0668,0.66641 0.40425,0.48709 0.43388,0.46629 0.43388,-0.30464 z m 15.17969,-0.0414 c -0.3119,-0.53637 -0.38722,-0.36469 -0.1319,0.30066 0.0907,0.23646 0.22071,0.37419 0.28883,0.30606 0.0681,-0.0681 -0.002,-0.34114 -0.15693,-0.60672 z m 5.89025,-1.6582 c -0.12217,-1.46501 -0.3329,-2.35859 -0.64779,-2.74696 -0.7322,-0.90307 -0.82843,-0.40612 -0.27778,1.43463 0.27869,0.93165 0.58575,2.15257 0.68235,2.71314 0.29448,1.70892 0.43505,0.89934 0.24322,-1.40081 z m -15.67375,0.65074 c 0.3427,-0.36129 0.75934,-0.65894 0.92589,-0.66146 0.18832,-0.003 0.28104,-0.42968 0.24526,-1.12905 -0.0316,-0.61846 -0.0786,-1.51712 -0.10437,-1.99701 -0.0302,-0.56197 -0.29601,-1.10346 -0.74692,-1.52135 -0.76483,-0.70883 -1.55704,-0.81458 -2.58691,-0.34534 -0.51409,0.23423 -0.75842,0.22684 -1.07078,-0.0324 -0.27614,-0.22918 -0.40471,-0.24153 -0.40471,-0.0389 0,0.16334 0.13751,0.29698 0.30559,0.29698 0.19535,0 0.16153,0.16702 -0.0937,0.46302 -0.32045,0.37155 -1.0056,2.94906 -1.0056,3.78303 0,0.30366 2.21461,0.77507 2.85474,0.60767 0.49336,-0.12902 0.58485,-0.0446 0.58485,0.53938 0,0.86614 0.29956,0.87582 1.0967,0.0354 z m -29.909508,-0.58237 c 0.27602,0.0722 0.560549,0.0363 0.632287,-0.0798 0.19505,-0.31559 -1.675711,-0.46888 -1.982179,-0.16242 -0.464168,0.46417 -0.283813,0.71674 0.291822,0.40867 0.305919,-0.16372 0.78205,-0.23862 1.05807,-0.16644 z m 2.883631,-0.61283 c 0,-0.14552 -0.119062,-0.26458 -0.264583,-0.26458 -0.145521,0 -0.264584,0.11906 -0.264584,0.26458 0,0.14552 0.119063,0.26458 0.264584,0.26458 0.145521,0 0.264583,-0.11906 0.264583,-0.26458 z m -5.820834,-0.26458 c 0,-0.14552 -0.119062,-0.26459 -0.264583,-0.26459 -0.145521,0 -0.264583,0.11907 -0.264583,0.26459 0,0.14552 0.119062,0.26458 0.264583,0.26458 0.145521,0 0.264583,-0.11906 0.264583,-0.26458 z m 27.362121,-0.16972 c 0.13935,-0.36313 0.10063,-0.3795 -0.23627,-0.0999 -0.45912,0.38104 -0.5069,0.5342 -0.16666,0.5342 0.12995,0 0.31127,-0.19544 0.40293,-0.4343 z m 26.55673,-0.2933 c -0.0699,-0.34087 -0.30137,-0.44028 -0.87733,-0.3768 -0.91971,0.10135 -1.03106,0.17924 -0.7972,0.55763 0.0959,0.1552 0.5333,0.28219 0.97194,0.28219 0.61934,0 0.77632,-0.10346 0.70259,-0.46302 z m 2.17281,-0.72761 c 0,-0.21828 -0.11906,-0.39687 -0.26458,-0.39687 -0.14552,0 -0.26458,0.17859 -0.26458,0.39687 0,0.21828 0.11906,0.39688 0.26458,0.39688 0.14552,0 0.26458,-0.1786 0.26458,-0.39688 z m -55.555484,-0.5476 c 0.199675,-0.52519 0.161038,-0.77736 -0.16979,-1.10818 -0.325903,-0.32591 -0.392243,-0.73262 -0.277511,-1.70136 0.113412,-0.95758 0.06371,-1.27307 -0.20056,-1.27307 -0.371063,0 -0.630552,0.90369 -0.854809,2.97693 -0.133637,1.23546 0.04792,1.50959 1.17148,1.7688 0.03998,0.009 0.189017,-0.28918 0.33119,-0.66312 z m 2.912992,-0.2346 c -0.339563,-0.40915 0.328169,-1.08712 0.789742,-0.80185 0.436464,0.26975 2.111368,-0.11017 2.109297,-0.47846 -0.0011,-0.20247 -0.55457,-0.34617 -1.51719,-0.39395 -1.479294,-0.0734 -2.212302,-0.38274 -1.824937,-0.7701 0.165086,-0.16509 1.243019,-0.27828 3.161097,-0.33192 0.965134,-0.027 0.118347,-0.54256 -0.891126,-0.54256 -0.714878,0 -1.042718,-0.11588 -1.042718,-0.36857 0,-0.45986 0.575231,-0.68976 1.725816,-0.68976 0.488833,0 0.970599,-0.13238 1.070591,-0.29417 0.255942,-0.41412 -0.428853,-0.77081 -1.138098,-0.5928 -0.699856,0.17565 -1.093797,-0.50239 -0.622102,-1.07075 0.236137,-0.28452 0.531971,-0.30501 1.362019,-0.0943 0.583199,0.14803 1.130325,0.19919 1.215837,0.11368 0.341856,-0.34186 -0.208023,-0.99199 -0.967491,-1.14388 -0.981671,-0.19634 -1.213423,-0.51401 -0.767212,-1.05166 0.225423,-0.27162 0.562303,-0.35068 1.014965,-0.2382 0.372653,0.0926 1.351761,0.2241 2.175797,0.29222 1.344599,0.11115 1.485466,0.075 1.373618,-0.35273 -0.08364,-0.31985 -0.573483,-0.5832 -1.489479,-0.80079 -1.49404,-0.3549 -2.316289,-0.94998 -1.894888,-1.37139 0.16837,-0.16836 0.735709,-0.1327 1.626363,0.10225 0.752287,0.19845 1.4345,0.29411 1.516029,0.21259 0.439225,-0.43923 0.02333,-0.79906 -1.065399,-0.92177 -1.400402,-0.15785 -1.927179,-0.52624 -1.495779,-1.04604 0.441783,-0.53232 -0.248323,-1.26724 -1.189963,-1.26724 -0.439082,0 -0.94655,-0.17859 -1.127707,-0.39687 -0.225942,-0.27224 -0.828894,-0.39688 -1.920024,-0.39688 H 81.35174 l 0.167744,3.08186 c 0.112557,2.06794 0.07306,3.19593 -0.120038,3.42861 -0.15828,0.19071 -0.334409,1.09583 -0.391399,2.01137 -0.05699,0.91554 -0.177635,2.0039 -0.268101,2.41857 -0.145426,0.66658 -0.102646,0.73431 0.369223,0.58454 0.75802,-0.24058 0.933764,0.23172 0.440882,1.18485 -0.597554,1.15555 -0.425567,2.17626 0.401942,2.38546 0.829692,0.20975 1.168893,0.0411 0.803335,-0.39933 z m 0.166804,-8.25773 c -0.519968,-0.51997 0.186,-3.26319 0.839782,-3.26319 0.209385,0 0.538868,0.20836 0.732183,0.46302 0.45839,0.60385 0.467219,1.65364 0.01391,1.65364 -0.194923,0 -0.490026,0.29766 -0.655786,0.66146 -0.301455,0.66162 -0.598576,0.81658 -0.930086,0.48507 z m 16.910876,8.64306 c 0.206382,0 0.375232,-0.19248 0.375232,-0.42774 0,-0.28657 -0.16223,-0.3853 -0.491583,-0.29918 -0.270373,0.0707 -0.673629,0.0267 -0.896124,-0.0978 -0.291827,-0.16331 -0.441904,-0.0835 -0.538658,0.2865 -0.141463,0.54095 0.232853,0.8362 0.823529,0.64958 0.193803,-0.0612 0.521225,-0.11133 0.727604,-0.11133 z m 32.411452,-0.52917 c 0.72236,0 0.62883,-0.74982 -0.13706,-1.09879 -0.92823,-0.42293 -1.43436,-0.14611 -1.2733,0.69641 0.0906,0.47398 0.25671,0.65032 0.5181,0.55002 0.2116,-0.0812 0.61312,-0.14764 0.89226,-0.14764 z m -7.43959,-0.38528 c 0.43583,-0.52515 0.0925,-1.07125 -0.41081,-0.6535 -0.4121,0.34201 -0.50677,1.03878 -0.14113,1.03878 0.1277,0 0.37607,-0.17338 0.55194,-0.38528 z m -3.42996,-0.38259 c 0,-0.13128 0.38695,-0.38603 0.85989,-0.56611 0.61389,-0.23375 0.73192,-0.35938 0.41257,-0.43914 -0.24604,-0.0615 -0.75205,0.0879 -1.12448,0.33196 -0.6865,0.44981 -0.89558,0.91199 -0.41257,0.91199 0.14552,0 0.26459,-0.10741 0.26459,-0.2387 z m 13.44303,-0.31031 c -0.0521,-0.15643 -0.20791,-0.28442 -0.34616,-0.28442 -0.13824,0 -0.29402,0.12799 -0.34616,0.28442 -0.0522,0.15644 0.10363,0.28443 0.34616,0.28443 0.24254,0 0.39831,-0.12799 0.34616,-0.28443 z m -34.01056,-0.40289 c 0.35329,-0.3533 -0.17359,-0.90018 -0.867257,-0.90018 -0.61041,0 -0.716335,0.0931 -0.602292,0.52917 0.131484,0.50279 1.094599,0.74595 1.469549,0.37101 z m 25.95162,-0.51178 c -0.082,-0.21362 -0.25537,-0.3884 -0.38532,-0.3884 -0.27149,0 -0.31923,0.6226 -0.0671,0.87475 0.28225,0.28225 0.61151,-0.0717 0.4524,-0.48635 z m -5.67689,-0.3884 c 0.28577,0 0.69817,-0.17859 0.91646,-0.39687 0.21828,-0.21829 0.6435,-0.39688 0.94494,-0.39688 0.31078,0 0.54806,-0.17183 0.54806,-0.39687 0,-0.46796 -0.12811,-0.48853 -0.80065,-0.1286 -0.32611,0.17453 -0.88592,0.18184 -1.60208,0.0209 -1.34404,-0.30199 -1.80318,-0.68706 -1.35435,-1.13588 0.17462,-0.17463 0.3175,-0.67734 0.3175,-1.11714 0,-0.79731 -0.001,-0.79811 -0.52461,-0.27502 -0.40743,0.40743 -0.5331,0.91644 -0.56265,2.27885 -0.0471,2.17156 0.12257,2.51409 0.97016,1.95872 0.34521,-0.22619 0.86146,-0.41125 1.14722,-0.41125 z m 10.34696,0 c 0,-0.14552 -0.26789,-0.25621 -0.59531,-0.24599 -0.56803,0.0177 -0.57107,0.029 -0.0662,0.24599 0.29104,0.12507 0.55893,0.23576 0.59531,0.24599 0.0364,0.0102 0.0662,-0.10047 0.0662,-0.24599 z m -3.0984,-0.79401 c -0.0761,-0.2909 -0.25623,-0.52891 -0.40035,-0.52891 -0.14411,0 -0.18976,0.18834 -0.10143,0.41852 0.0883,0.23018 0.1606,0.53486 0.1606,0.67707 0,0.14221 0.10788,0.19188 0.23974,0.11039 0.13186,-0.0815 0.17751,-0.38618 0.10144,-0.67707 z m 3.56275,-0.72734 c 0.0735,-0.22332 -0.199,-0.33073 -0.83917,-0.33073 -0.52145,0 -0.94809,0.10914 -0.94809,0.24253 0,0.58107 1.59896,0.65997 1.78726,0.0882 z m -31.68518,-0.8599 c 0,-0.14552 -0.17859,-0.26458 -0.396871,-0.26458 -0.218282,0 -0.396875,0.11906 -0.396875,0.26458 0,0.14552 0.178593,0.26458 0.396875,0.26458 0.218281,0 0.396871,-0.11906 0.396871,-0.26458 z m 0.79375,0 c 0,-0.14552 -0.11906,-0.26458 -0.26458,-0.26458 -0.14552,0 -0.26458,0.11906 -0.26458,0.26458 0,0.14552 0.11906,0.26458 0.26458,0.26458 0.14552,0 0.26458,-0.11906 0.26458,-0.26458 z m 25.25526,-0.30705 c 0.37065,-0.16888 0.67391,-0.39312 0.67391,-0.49831 0,-0.10519 0.26789,-0.27293 0.59531,-0.37276 0.57742,-0.17605 0.57164,-0.19203 -0.19228,-0.53165 -0.60976,-0.27108 -0.79688,-0.53489 -0.82874,-1.16843 -0.0335,-0.66646 0.1077,-0.89255 0.76108,-1.2185 0.52206,-0.26044 0.90842,-0.31209 1.10627,-0.14789 0.16721,0.13877 0.65539,0.21165 1.08483,0.16195 0.42945,-0.0497 0.93957,-0.10393 1.1336,-0.12052 0.19402,-0.0166 0.30938,-0.16034 0.25635,-0.31944 -0.0543,-0.16282 -0.90244,-0.3201 -1.94028,-0.3598 -2.68474,-0.1027 -2.56558,-0.0669 -2.24073,-0.67385 0.2504,-0.46787 0.20122,-0.52917 -0.42458,-0.52917 -0.70067,0 -0.70626,0.0148 -0.55594,1.4712 0.0943,0.91412 0.0151,1.92571 -0.20941,2.67152 -0.30929,1.02771 -0.30215,1.9427 0.0152,1.9427 0.0503,0 0.3948,-0.13817 0.76544,-0.30705 z m -35.04484,-0.22035 c 0.626019,-0.0615 -0.537412,-0.49057 -1.389063,-0.51234 -0.415603,-0.0106 -0.727612,0.12323 -0.727623,0.31214 -1.8e-5,0.29835 0.568818,0.35215 2.116686,0.2002 z m 40.21666,-0.22225 c 0,-0.34451 -0.31453,-0.57363 -0.57038,-0.4155 -0.27364,0.16912 -0.0377,0.63598 0.32141,0.63598 0.13694,0 0.24897,-0.0992 0.24897,-0.22048 z m -32.693169,-0.81013 c 0.272616,-0.4411 -0.676937,-0.55678 -1.390386,-0.16938 l -0.709147,0.38506 0.976573,0.0106 c 0.537115,0.006 1.042447,-0.096 1.12296,-0.22627 z m -3.929976,-0.2923 c 0.206379,0 0.375235,-0.11104 0.375235,-0.24676 0,-0.46524 -1.035382,-0.57511 -2.171129,-0.23039 l -1.136163,0.34484 0.926042,0.16258 c 0.509323,0.0894 1.084608,0.11919 1.27841,0.0661 0.193803,-0.053 0.521225,-0.0964 0.727605,-0.0964 z m 28.781325,-0.13229 c -0.0838,-0.21829 -0.19909,-0.39688 -0.25628,-0.39688 -0.0572,0 -0.10398,0.17859 -0.10398,0.39688 0,0.21828 0.11532,0.39687 0.25628,0.39687 0.14095,0 0.18774,-0.17859 0.10398,-0.39687 z m -22.9215,-0.0276 c -0.0879,-0.0879 -0.31612,-0.0973 -0.50712,-0.0209 -0.211063,0.0845 -0.14837,0.14715 0.15986,0.15985 0.27891,0.0115 0.43518,-0.0511 0.34726,-0.13897 z m 0.72833,-1.41989 c 0.19113,-0.30927 -1.03706,-0.66011 -1.439698,-0.41126 -0.156165,0.0965 -0.215437,0.28631 -0.131714,0.42178 0.200812,0.32493 1.368922,0.31711 1.571402,-0.0105 z m 26.86175,-4.07145 c 0.30253,-0.014 0.40748,-0.38716 0.43535,-1.54777 0.0379,-1.5792 -0.25208,-1.8621 -0.52255,-0.50977 -0.11052,0.55261 -0.38068,0.84805 -0.96022,1.05008 -0.81685,0.28476 -1.08137,0.94742 -0.47569,1.19168 0.1819,0.0734 0.50932,0.0661 0.7276,-0.0162 0.21828,-0.0823 0.57626,-0.15788 0.79551,-0.16803 z m -18.19366,-0.49398 c -0.1516,-0.18542 -0.23485,-0.69431 -0.185,-1.13087 0.45266,-3.96378 0.45399,-4.10105 0.0397,-4.10105 -0.56188,0 -0.97493,1.40778 -1.0482,3.57251 -0.0588,1.73756 -0.0327,1.824 0.59998,1.9893 0.79858,0.20864 0.96033,0.11874 0.59351,-0.32989 z m -7.59409,-0.48702 c 0.24961,-0.40387 0.0263,-0.54214 -0.91918,-0.56902 -0.4567,-0.013 -0.88946,-0.11923 -0.96169,-0.2361 -0.19298,-0.31225 -0.908133,0.028 -0.908133,0.43211 0,0.19058 0.148828,0.40657 0.330733,0.47997 0.61733,0.2491 2.28301,0.17662 2.45827,-0.10696 z m 10.9555,-0.18083 c -0.0259,-0.25467 -0.0248,-0.52256 0.002,-0.59532 0.16979,-0.45281 0.10415,-2.11695 -0.0835,-2.11682 -0.12492,9e-5 -0.15242,-0.2975 -0.0611,-0.6613 0.16334,-0.65079 -0.18317,-0.91846 -0.5082,-0.39256 -0.0914,0.14789 -0.27702,0.2004 -0.41249,0.11668 -0.37588,-0.23231 -0.29352,0.24453 0.14173,0.82062 0.24511,0.32442 0.33365,0.82005 0.24037,1.34563 -0.0812,0.45762 -0.0135,1.0827 0.15044,1.38906 0.36274,0.67777 0.59379,0.71874 0.53024,0.094 z m 12.18466,-0.97541 c 0,-0.33739 -0.17859,-0.76167 -0.39688,-0.94282 -0.43876,-0.36415 -0.47636,-0.19898 -0.23237,1.02096 0.18452,0.9226 0.62925,0.86737 0.62925,-0.0781 z m 6.35,0.2478 c 0,-0.3638 -0.11906,-0.66146 -0.26458,-0.66146 -0.14552,0 -0.26459,0.10933 -0.26459,0.24295 0,0.13362 -0.0723,0.43127 -0.1606,0.66146 -0.10538,0.27463 -0.0144,0.41851 0.26459,0.41851 0.27714,0 0.42518,-0.23031 0.42518,-0.66146 z m -42.068747,0.13229 c 0,-0.14552 -0.290629,-0.26458 -0.645843,-0.26458 -0.355214,0 -0.719428,0.11906 -0.809365,0.26458 -0.0954,0.15437 0.173641,0.26459 0.645843,0.26459 0.445151,0 0.809365,-0.11907 0.809365,-0.26459 z m 1.322917,-0.52916 c 0,-0.14552 0.208359,-0.26641 0.463021,-0.26864 0.395697,-0.004 0.405314,-0.0413 0.06615,-0.26053 -0.552605,-0.35712 -1.130228,-0.33038 -0.900284,0.0417 0.130375,0.21095 0.007,0.2586 -0.396381,0.15311 -0.483469,-0.12643 -0.531203,-0.0875 -0.27356,0.2229 0.358184,0.43159 1.041058,0.50471 1.041058,0.11148 z m 11.47331,-0.80336 c -0.1508,-0.1508 -0.74016,-0.33045 -1.30969,-0.39922 l -1.03549,-0.12502 0.79375,0.38728 c 0.94511,0.46113 1.9657,0.55123 1.55143,0.13696 z m 24.11314,0.01 c 0.0899,-0.14552 0.0374,-0.26458 -0.11667,-0.26458 -0.15411,0 -0.2802,0.11906 -0.2802,0.26458 0,0.14552 0.0525,0.26458 0.11668,0.26458 0.0642,0 0.19026,-0.11906 0.28019,-0.26458 z M 86.558659,140.2309 c 0.01494,-0.50483 -0.107576,-0.79525 -0.335494,-0.79524 -0.21869,10e-6 -0.296259,0.16362 -0.198438,0.41854 0.08833,0.23018 0.160599,0.66674 0.160599,0.97013 0,0.85491 0.346775,0.30369 0.373333,-0.59343 z m 16.030831,0.16085 c 0,-0.39755 -1.52523,-0.7417 -1.74087,-0.3928 -0.0715,0.11576 0.26113,0.32329 0.73926,0.46119 0.47813,0.1379 0.89909,0.26147 0.93547,0.27459 0.0364,0.0131 0.0662,-0.14121 0.0662,-0.34298 z m -1.05833,-2.2946 c 0,-0.13693 -0.11906,-0.24897 -0.26458,-0.24897 -0.14552,0 -0.26459,0.18562 -0.26459,0.41249 0,0.22687 0.11907,0.33891 0.26459,0.24897 0.14552,-0.0899 0.26458,-0.27556 0.26458,-0.41249 z m 29.10416,-3.15939 c 0,-0.14552 -0.0525,-0.26458 -0.11667,-0.26458 -0.0642,0 -0.19027,0.11906 -0.2802,0.26458 -0.0899,0.14552 -0.0374,0.26459 0.11667,0.26459 0.15411,0 0.2802,-0.11907 0.2802,-0.26459 z"
       id="path7" />
  </g>
</svg>
