<?xml version="1.0" encoding="UTF-8" standalone="no"?>
<!-- Created with Inkscape (http://www.inkscape.org/) -->

<svg
   width="77.875603mm"
   height="43.511574mm"
   viewBox="0 0 77.875603 43.511574"
   version="1.1"
   id="svg1"
   inkscape:version="1.4.1-rc (06eac75fbf, 2025-03-29)"
   sodipodi:docname="city5.svg"
   xmlns:inkscape="http://www.inkscape.org/namespaces/inkscape"
   xmlns:sodipodi="http://sodipodi.sourceforge.net/DTD/sodipodi-0.dtd"
   xmlns="http://www.w3.org/2000/svg"
   xmlns:svg="http://www.w3.org/2000/svg">
  <sodipodi:namedview
     id="namedview1"
     pagecolor="#ffffff"
     bordercolor="#000000"
     borderopacity="0.25"
     inkscape:showpageshadow="2"
     inkscape:pageopacity="0.0"
     inkscape:pagecheckerboard="0"
     inkscape:deskcolor="#d1d1d1"
     inkscape:document-units="mm"
     inkscape:zoom="0.72248176"
     inkscape:cx="148.10062"
     inkscape:cy="82.35502"
     inkscape:window-width="1850"
     inkscape:window-height="1016"
     inkscape:window-x="0"
     inkscape:window-y="0"
     inkscape:window-maximized="1"
     inkscape:current-layer="layer1" />
  <defs
     id="defs1" />
  <g
     inkscape:label="Layer 1"
     inkscape:groupmode="layer"
     id="layer1"
     transform="translate(-66.145833,-126.73574)">
    <path
       style="fill:#000000"
       d="m 123.28479,170.07428 c -0.80036,-0.1469 -3.7174,-0.24172 -6.4823,-0.21072 -7.99339,0.0896 -12.1517,-0.0491 -14.67972,-0.48963 -0.7978,-0.13903 -2.930795,-0.19608 -4.739965,-0.12678 -3.78284,0.1449 -5.58344,-0.0442 -5.58344,-0.58623 0,-0.20253 -0.4133,-0.48235 -0.91844,-0.62183 -0.8825,-0.24367 -2.47448,-1.2065 -2.81861,-1.7047 -0.2346,-0.33963 -2.55784,-0.73632 -3.26817,-0.55804 -0.458708,0.11513 -0.630742,0.0155 -0.748079,-0.43319 -0.123118,-0.4708 -0.291662,-0.55607 -0.877703,-0.44404 -0.398928,0.0763 -0.996523,0.0151 -1.327987,-0.13594 -0.461847,-0.21043 -0.75698,-0.17348 -1.263102,0.15814 -0.496123,0.32507 -0.910241,0.38084 -1.664484,0.22413 -1.232518,-0.25608 -1.37774,-0.95972 -0.210296,-1.01894 0.436562,-0.0221 1.444749,-0.15729 2.240415,-0.30032 0.795666,-0.14303 1.590651,-0.20481 1.766633,-0.13727 0.211547,0.0812 0.271225,-0.0636 0.176121,-0.42729 -0.07912,-0.30253 -0.04066,-0.55021 0.08545,-0.55039 0.126113,-1.7e-4 0.218895,-0.74431 0.206182,-1.65364 -0.01271,-0.90933 0.06139,-2.08853 0.164679,-2.62044 0.180759,-0.93088 0.156847,-0.97169 -0.638344,-1.08951 -0.924633,-0.13698 -1.487596,0.005 -1.487596,0.3762 0,0.13604 -0.238125,0.50294 -0.529166,0.81534 -0.334242,0.35876 -0.529167,0.93371 -0.529167,1.56082 0,0.54605 -0.119063,1.06641 -0.264583,1.15635 -0.145521,0.0899 -0.264584,0.44712 -0.264584,0.79375 0,0.79538 -0.323205,1.00269 -0.902672,0.57897 -0.374804,-0.27406 -0.402283,-0.45947 -0.161832,-1.09191 0.159298,-0.41898 0.383589,-1.44881 0.498424,-2.2885 0.19301,-1.41132 0.167299,-1.53786 -0.340169,-1.67413 -1.093619,-0.29368 -1.366608,-0.16125 -0.709344,0.3441 0.699821,0.53808 0.561677,1.08876 -0.273128,1.08876 -0.456324,0 -0.509055,0.11619 -0.360237,0.79375 0.109686,0.4994 0.06842,0.79375 -0.111269,0.79375 -0.423803,0 -0.345958,1.22477 0.10661,1.67733 0.346566,0.34657 0.337425,0.45988 -0.07853,0.97357 -0.411304,0.50794 -0.803302,0.59857 -3.104195,0.71772 -4.813339,0.24926 -6.817438,0.22049 -6.923806,-0.0994 -0.05535,-0.16645 -0.333053,-0.24186 -0.617117,-0.16758 -0.784325,0.20511 -0.616894,-0.3903 0.2334,-0.83001 0.675364,-0.34924 0.827793,-0.34039 1.533933,0.089 0.662349,0.40279 1.049051,0.44189 2.491265,0.25186 0.938967,-0.12371 2.001947,-0.2949 2.362177,-0.38042 l 0.654964,-0.15548 -0.630117,-0.4753 c -0.721927,-0.54455 -0.598685,-1.30373 0.247566,-1.52503 0.290307,-0.0759 0.527831,-0.35846 0.527831,-0.62789 0,-0.26942 0.327422,-0.66271 0.727604,-0.87398 l 0.727605,-0.38412 -0.727605,-0.27924 c -0.764007,-0.2932 -0.957412,-0.91277 -0.396875,-1.27137 0.181901,-0.11637 0.464526,-0.44971 0.628054,-0.74075 0.216745,-0.38576 0.539422,-0.51572 1.190625,-0.47953 0.491315,0.0273 1.310019,0.0678 1.819342,0.0899 0.509323,0.0222 1.153093,0.23794 1.4306,0.47953 0.481486,0.41918 0.496775,0.40902 0.334342,-0.22219 -0.09362,-0.36381 -0.171842,-0.75779 -0.173829,-0.87551 -0.002,-0.11773 -0.09291,-0.15975 -0.20205,-0.0934 -0.262141,0.15941 -4.273399,-0.23976 -4.479398,-0.44576 -0.08804,-0.088 -0.0095,-0.34154 0.174612,-0.56334 0.392143,-0.4725 2.921654,-0.56031 3.726867,-0.12937 0.444161,0.23771 0.511773,0.18421 0.511773,-0.40491 0,-0.65662 -0.05403,-0.67869 -1.653646,-0.67552 -2.590953,0.005 -2.636166,0.001 -3.15342,-0.27565 -0.346713,-0.18555 -0.444218,-0.4418 -0.334482,-0.87902 0.127411,-0.50765 0.02843,-0.64886 -0.558003,-0.79604 -0.39209,-0.0984 -0.758005,-0.13381 -0.813146,-0.0787 -0.176894,0.1769 -0.190358,2.62879 -0.02907,5.29424 0.163567,2.70313 -0.212152,4.82627 -0.964587,5.45073 -0.522979,0.43404 -1.063544,-0.29068 -0.808057,-1.08334 0.283519,-0.87962 0.373481,-1.91062 0.383559,-4.39575 0.0078,-1.92935 -0.06021,-2.25622 -0.55257,-2.65491 -0.533007,-0.43161 -0.544977,-0.53862 -0.23594,-2.10942 0.294128,-1.49503 0.686712,-2.09486 1.386433,-2.11834 0.114232,-0.004 0.743342,-0.26627 1.398024,-0.5832 0.912115,-0.44154 1.155216,-0.68686 1.040096,-1.04957 -0.08263,-0.26034 0.03745,-0.66103 0.26684,-0.89042 0.229391,-0.22939 0.393509,-0.68842 0.364707,-1.02007 -0.13053,-1.503 0.04772,-2.6108 0.44459,-2.7631 0.658719,-0.25277 0.852401,0.17757 1.004746,2.23244 0.151358,2.04156 0.32596,2.35491 1.689449,3.03198 l 0.859896,0.427 -0.01442,-1.50107 c -0.0079,-0.82559 -0.160537,-2.47093 -0.33912,-3.65631 -0.303773,-2.01635 -0.292755,-2.17519 0.170974,-2.46479 0.395028,-0.2467 0.557899,-0.22786 0.802141,0.0928 0.471517,0.61904 1.574416,0.92709 2.575623,0.7194 l 0.905846,-0.18791 -0.0066,-2.30161 c -0.0037,-1.26589 0.08564,-2.30161 0.198438,-2.30161 0.112793,0 0.205077,-0.40699 0.205077,-0.90441 0,-0.49742 0.07227,-1.09273 0.160599,-1.32291 0.256003,-0.66713 0.873093,-0.48498 1.047083,0.30909 0.27898,1.2732 0.35253,1.38906 0.88178,1.38906 0.91572,0 1.56698,-1.03245 1.37988,-2.18754 -0.0181,-0.11174 0.14553,-0.63023 0.36362,-1.1522 0.2181,-0.52197 0.32712,-1.22563 0.24227,-1.56368 -0.19859,-0.79127 0.0941,-1.71116 0.5445,-1.71116 0.52446,0 0.71582,0.75901 1.04261,4.1353 0.0582,0.60093 0.23249,1.32941 0.38739,1.61886 0.15491,0.28944 0.22631,0.60144 0.15867,0.69334 -0.0676,0.0919 -0.0457,0.10966 0.0487,0.0395 0.0944,-0.0702 0.3028,-0.3882 0.46302,-0.70671 0.50342,-1.00074 0.82178,-0.93864 1.90191,0.37101 0.51184,0.62059 0.69285,1.78623 0.27739,1.78623 -0.40952,0 -0.77151,0.98127 -0.43802,1.18738 0.11532,0.0713 0.26972,-0.10006 0.34312,-0.38072 0.12069,-0.46154 0.22848,-0.48114 1.12796,-0.20508 0.61597,0.18905 1.05077,0.51031 1.1423,0.84401 0.11352,0.41385 0.20082,0.29337 0.37653,-0.51955 0.1258,-0.58209 0.22876,-1.47505 0.2288,-1.98438 3e-5,-0.50932 -2.5e-4,-1.46182 -6.1e-4,-2.11666 -3.7e-4,-0.65485 0.0197,-2.33532 0.0447,-3.73439 0.0315,-1.76802 -0.0693,-2.75805 -0.33075,-3.24649 -0.4715,-0.881 -0.0312,-1.52702 0.71852,-1.05413 0.25066,0.15811 0.39667,0.33402 0.32447,0.39092 -0.0722,0.0569 0.1539,0.50393 0.50244,0.9934 0.37086,0.52083 0.62299,1.23413 0.60789,1.71979 -0.0142,0.45642 0.19454,1.72282 0.46385,2.81423 0.26931,1.0914 0.57244,2.57969 0.67362,3.30729 0.10117,0.7276 0.25398,1.43659 0.33958,1.57553 0.0856,0.13894 0.18841,0.61519 0.22848,1.05834 0.16154,1.78667 1.02888,5.17134 1.325175,5.17134 0.12124,0 1.22241,-1.15607 2.14801,-2.25509 0.55127,-0.65456 0.59548,-0.93639 0.52917,-3.37369 -0.0437,-1.60516 0.0325,-2.69312 0.19222,-2.74437 0.67653,-0.21712 0.93209,0.4446 1.09378,2.83206 0.0931,1.37411 0.28223,2.64199 0.42039,2.81752 0.13815,0.17553 0.163,0.46181 0.0552,0.63619 -0.12521,0.20259 -0.0837,0.24766 0.11505,0.12484 0.19847,-0.12266 0.45532,0.15317 0.70982,0.76226 0.2197,0.52583 0.67745,1.06042 1.01926,1.19037 0.34125,0.12975 0.69513,0.51248 0.78639,0.85051 0.0913,0.33803 0.59697,1.07502 1.12379,1.63775 l 0.95785,1.02314 1.1578,-0.57823 c 1.09344,-0.54609 2.21793,-0.5538 2.21793,-0.0152 0,0.12461 -0.13846,0.82636 -0.30766,1.55943 -0.29323,1.27032 -0.27299,1.3829 0.43121,2.39907 0.71,1.02454 0.7815,1.05947 1.82901,0.89387 1.9532,-0.30877 1.89191,-0.34491 1.80183,1.06231 -0.0622,0.97236 0.0276,1.36231 0.37193,1.61408 0.29054,0.21244 0.40066,0.53593 0.30586,0.89845 -0.0815,0.31157 -0.0349,1.47869 0.10352,2.59359 0.14822,1.19379 0.15426,2.1245 0.0147,2.26404 -0.2119,0.2119 -0.12082,2.83538 0.10739,3.09324 0.0505,0.0571 0.25829,-0.0342 0.46164,-0.203 0.36357,-0.30174 1.23055,-0.15436 1.23055,0.20918 0,0.10214 -0.16572,0.41233 -0.36824,0.68931 -0.30324,0.4147 -0.4392,0.44471 -0.77021,0.17001 -0.61527,-0.51063 -0.77523,0.0712 -0.21594,0.78549 0.53817,0.6873 1.61898,2.94831 1.61898,3.38684 0,0.17073 0.49384,0.22892 1.29533,0.15261 0.93805,-0.0893 1.38486,-0.0154 1.6199,0.26776 0.24833,0.29923 0.92283,0.38488 2.87185,0.3647 1.40101,-0.0145 2.84495,-0.11686 3.20875,-0.22745 l 0.66146,-0.20109 -0.73439,-0.29774 c -0.78675,-0.31897 -0.89431,-0.49978 -1.08039,-1.81618 -0.066,-0.46698 -0.30976,-1.22941 -0.54168,-1.6943 -0.23192,-0.46488 -0.42167,-1.08639 -0.42167,-1.38112 0,-1.04628 -0.63257,-2.30912 -1.23204,-2.45957 -0.32448,-0.0814 -0.6988,-0.0808 -0.83182,0.001 -0.13302,0.0822 -0.89748,0.0428 -1.69879,-0.0877 -0.80132,-0.13041 -1.88034,-0.14163 -2.39784,-0.0249 -2.20454,0.4972 -3.22988,-0.62312 -1.06656,-1.16537 0.60766,-0.15231 1.19249,-0.36623 1.29962,-0.47537 0.10714,-0.10914 0.44611,-0.19844 0.75328,-0.19844 0.30717,0 0.81324,-0.17843 1.1246,-0.39652 0.43477,-0.30452 0.59422,-0.31987 0.68726,-0.0661 0.0941,0.25659 0.20239,0.24913 0.48495,-0.0334 0.28287,-0.28287 0.29022,-0.39078 0.0331,-0.48507 -0.47964,-0.17587 -0.40541,-0.80113 0.13229,-1.11431 0.43275,-0.25206 0.43327,-0.27022 0.008,-0.27774 -0.25023,-0.004 -0.87893,0.23008 -1.39711,0.52113 -1.04399,0.58637 -2.40391,0.72935 -2.08888,0.21962 0.12687,-0.20529 0.0495,-0.25514 -0.22962,-0.14802 -0.23152,0.0888 -0.56514,-0.0122 -0.74138,-0.22459 -0.25495,-0.30719 -0.23186,-0.48399 0.11295,-0.865 0.23836,-0.26339 0.43761,-0.64811 0.44276,-0.85493 0.0196,-0.78707 0.66594,-1.43571 1.51198,-1.51745 0.76816,-0.0742 0.8599,-0.0107 0.8599,0.59532 0,0.68377 0.34184,0.83518 1.16898,0.51778 0.57426,-0.22036 0.52489,-0.56373 -0.11003,-0.76525 -0.29071,-0.0923 -0.60127,-0.45747 -0.69014,-0.81158 -0.0889,-0.3541 -0.26775,-0.64382 -0.39749,-0.64382 -0.12975,0 -0.2359,-0.19133 -0.2359,-0.42518 0,-0.30399 -0.13199,-0.36874 -0.46303,-0.22717 -0.85988,0.36775 -1.85447,0.44039 -2.0348,0.14861 -0.0986,-0.1595 -0.39212,-0.29001 -0.65231,-0.29001 -0.72213,0 -1.66227,-0.95259 -1.70579,-1.72839 -0.0332,-0.59181 -0.13542,-0.67345 -0.70032,-0.55931 -1.60535,0.32437 -1.7198,0.31086 -1.7198,-0.203 0,-0.37227 0.35027,-0.62337 1.32292,-0.94836 1.25942,-0.4208 1.33015,-0.49518 1.47369,-1.54945 0.19758,-1.45114 0.49065,-1.6989 1.9744,-1.66912 2.16448,0.0434 2.32689,0.16993 2.12945,1.65833 -0.18858,1.42157 0.095,2.22877 0.86949,2.47456 0.47214,0.14986 1.26224,2.36029 1.46988,4.11224 0.0572,0.48263 0.21364,0.63852 0.57866,0.57662 1.58379,-0.26859 1.95547,-0.40772 1.95547,-0.73198 0,-0.19794 0.53892,-0.8988 1.19759,-1.55747 1.00225,-1.00225 1.36239,-1.19759 2.20795,-1.19759 0.68209,0 1.16962,0.17598 1.50052,0.54162 0.26959,0.29789 0.94289,0.79606 1.49622,1.10705 0.55333,0.31099 1.00606,0.64984 1.00606,0.753 0,0.47214 0.90407,0.46038 1.51439,-0.0197 1.16561,-0.91687 1.46629,-0.7191 1.3062,0.85918 -0.25499,2.51382 -0.23907,3.76001 0.0576,4.50958 0.16092,0.4066 0.36978,1.06145 0.46412,1.45521 0.0943,0.39377 0.36316,1.07313 0.59736,1.50969 0.2342,0.43656 0.48685,1.0914 0.56143,1.45521 0.13297,0.64856 0.18369,0.66145 2.60274,0.66145 2.27892,0 2.50604,0.048 2.97729,0.62955 0.69461,0.85714 0.2555,1.45227 -0.77506,1.05043 -0.38891,-0.15165 -1.57639,-0.2616 -2.63884,-0.24434 -1.06245,0.0173 -2.43167,-0.13164 -3.04271,-0.3309 -1.14346,-0.37288 -5.1279,-0.42543 -5.69474,-0.0751 -0.17107,0.10573 -0.31103,0.35969 -0.31103,0.56437 0,0.43269 1.43994,1.97788 1.84316,1.97788 0.15043,0 0.27351,0.1357 0.27351,0.30156 0,0.16586 0.19793,0.4463 0.43986,0.6232 0.27887,0.20391 0.37372,0.494 0.25915,0.79256 -0.15468,0.4031 -0.38952,0.44639 -1.63049,0.30053 -0.99219,-0.11661 -1.44977,-0.0772 -1.44977,0.12481 0,0.16236 -0.18484,0.22428 -0.41074,0.13759 -0.22591,-0.0867 -0.69319,0.0274 -1.0384,0.25364 -0.34522,0.2262 -1.14265,0.45937 -1.77208,0.51817 -0.62942,0.0588 -1.56113,0.16034 -2.07045,0.22565 -0.50932,0.0653 -1.58089,-0.001 -2.38125,-0.14833 z m -10.01955,-1.81275 c -0.0537,-0.21482 -0.12143,-0.86861 -0.15047,-1.45285 -0.029,-0.58424 -0.18156,-1.29235 -0.33894,-1.57358 -0.18275,-0.32655 -0.20007,-0.73772 -0.0479,-1.13787 0.14551,-0.38273 0.13886,-0.81221 -0.0171,-1.10362 -0.14042,-0.26238 -0.17953,-0.55284 -0.0869,-0.64546 0.38321,-0.38321 0.62147,-7.91211 0.26177,-8.27181 -0.1057,-0.10569 -0.70213,-0.22221 -1.32541,-0.25893 -2.40741,-0.14182 -4.14261,-0.33017 -4.37716,-0.47513 -0.13453,-0.0831 -0.44404,0.15321 -0.6878,0.52522 -0.35396,0.54021 -0.58723,0.64476 -1.15856,0.51927 -0.44371,-0.0975 -0.91438,-0.007 -1.23941,0.23896 -0.70395,0.53211 -1.36793,0.51269 -1.68237,-0.0492 -0.22567,-0.40326 -0.36795,-0.42083 -1.11735,-0.13796 -0.54146,0.20438 -0.96907,0.23257 -1.15737,0.0763 -0.164235,-0.13632 -0.570675,-0.1767 -0.903185,-0.0898 -0.57448,0.15023 -0.59965,0.25826 -0.50595,2.17174 0.0542,1.1075 0.18916,2.16001 0.29983,2.33891 0.11068,0.17889 0.0514,0.59561 -0.1318,0.92604 -0.18317,0.33043 -0.31941,0.66031 -0.30277,0.73307 0.23687,1.03551 0.33588,3.96875 0.13396,3.96875 -0.27539,0 -0.7029,1.23695 -0.61437,1.77764 0.029,0.17734 -0.17367,0.46387 -0.45047,0.63673 -0.31232,0.19505 -0.45341,0.50492 -0.37186,0.81674 0.11732,0.44865 0.29061,0.48187 1.61804,0.31018 1.956755,-0.25307 3.280675,-0.25059 3.697365,0.007 0.44333,0.27399 0.62093,0.0741 0.41377,-0.46577 -0.11689,-0.30461 -0.35392,-0.38572 -0.79998,-0.27377 -0.38321,0.0962 -0.63387,0.0431 -0.63387,-0.13417 0,-0.1613 0.11906,-0.29327 0.26458,-0.29327 0.14552,0 0.26458,-0.1357 0.26458,-0.30156 0,-0.16586 0.19679,-0.44545 0.4373,-0.62132 0.26326,-0.1925 0.35456,-0.45364 0.22938,-0.65616 -0.18562,-0.30034 -0.19265,-1.00323 -0.0456,-4.55684 0.0262,-0.63405 0.24918,-1.1712 0.63572,-1.53166 0.32742,-0.30534 0.59531,-0.78864 0.59531,-1.07402 0,-0.45244 0.25407,-0.62733 0.81907,-0.5638 0.0867,0.01 0.682,-0.13709 1.32292,-0.32632 2.10773,-0.62229 4.25347,-0.009 4.58473,1.31123 0.0894,0.35614 0.27931,0.64753 0.42207,0.64753 0.14275,0 0.25954,0.28774 0.25954,0.63941 0,0.35168 0.1431,0.68712 0.31802,0.74542 0.37732,0.12577 0.52087,3.84771 0.15708,4.07255 -0.12992,0.0803 -0.0968,0.31398 0.0736,0.5193 0.2353,0.28353 0.23596,0.46234 0.003,0.74341 -0.3224,0.38847 -0.27043,1.92467 0.0845,2.49902 0.2876,0.46535 1.37465,0.26584 1.25077,-0.22956 z m -12.38511,-8.65882 c -0.0897,-0.25466 -0.31279,-0.83754 -0.49582,-1.29529 -0.31363,-0.78442 -0.28405,-0.87948 0.51468,-1.65364 1.34588,-1.30448 1.63685,-1.07683 1.48651,1.16299 -0.0293,0.43657 -0.17555,0.94258 -0.32501,1.12448 -0.14947,0.1819 -0.18305,0.33073 -0.0747,0.33073 0.1084,0 0.0489,0.1786 -0.13229,0.39688 -0.4354,0.52462 -0.77346,0.50165 -0.97341,-0.0661 z m 14.99633,8.40052 c 0,-0.14552 -0.12609,-0.26458 -0.2802,-0.26458 -0.15411,0 -0.20661,0.11906 -0.11668,0.26458 0.0899,0.14552 0.21603,0.26459 0.2802,0.26459 0.0642,0 0.11668,-0.11907 0.11668,-0.26459 z m -19.314595,-0.79375 c -0.52003,-0.33607 -1.32291,-0.33607 -1.32291,0 0,0.14552 0.38695,0.26276 0.85989,0.26053 0.65253,-0.003 0.76419,-0.0659 0.46302,-0.26053 z m 0.0657,-1.8102 c 0.11057,-0.4228 -0.13244,-0.52768 -1.83648,-0.7926 -2.23455,-0.3474 -2.99173,-0.67108 -2.99173,-1.27893 0,-0.34842 0.22287,-0.39883 1.25678,-0.28423 0.69122,0.0766 1.04165,0.0828 0.77872,0.0137 -0.7092,-0.18636 -0.97499,-1.16326 -0.67715,-2.48885 0.30082,-1.33888 0.88505,-2.0901 1.62547,-2.0901 0.42576,0 0.46233,-0.0702 0.2008,-0.38528 -0.55796,-0.67231 -0.0466,-1.00172 1.27844,-0.82354 1.13313,0.15238 1.18678,0.13435 0.7119,-0.23923 -0.28248,-0.22222 -0.72046,-0.40403 -0.97329,-0.40403 -0.48986,0 -1.29125,-0.66857 -1.29125,-1.07723 0,-0.13513 0.17124,-0.24569 0.38054,-0.24569 0.24953,0 0.36339,-0.24652 0.33073,-0.71607 -0.0379,-0.54437 0.12465,-0.80159 0.67779,-1.07277 0.5191,-0.25448 0.73094,-0.56107 0.73922,-1.06987 0.006,-0.39224 0.17095,-1.15965 0.3657,-1.70535 0.19474,-0.5457 0.24905,-0.99219 0.12068,-0.99219 -0.12838,0 -0.23341,-0.1647 -0.23341,-0.36601 0,-0.36431 -0.76541,-0.68182 -1.66019,-0.68871 -0.25946,-0.002 -0.5821,0.29236 -0.72106,0.65785 -0.31077,0.81738 -1.30883,0.90478 -1.51084,0.13229 -0.095,-0.36332 -0.36089,-0.52917 -0.84835,-0.52917 -0.39049,0 -0.83118,-0.1212 -0.97931,-0.26934 -0.16865,-0.16864 -0.80048,-0.1929 -1.69004,-0.0649 l -1.4207,0.20446 -0.0956,1.80811 c -0.0574,1.08547 0.0226,1.9506 0.20027,2.16463 0.21865,0.26346 0.21509,0.50752 -0.0137,0.93493 -0.17025,0.31813 -0.23876,0.93238 -0.15223,1.36502 0.1279,0.63951 0.0576,0.81268 -0.37584,0.92603 -0.40919,0.10701 -0.46527,0.22124 -0.24115,0.49129 0.16061,0.19352 0.2193,0.58098 0.13042,0.86102 -0.0889,0.28004 -0.21935,1.26802 -0.28994,2.19551 -0.25701,3.37722 -0.34478,4.18261 -0.51386,4.71531 -0.137,0.43167 -0.0567,0.54291 0.39208,0.54291 0.31041,0 0.82445,0.13965 1.14231,0.31033 0.31785,0.17068 1.35286,0.29235 2.30002,0.27039 0.94715,-0.022 2.07825,0.0663 2.51354,0.1961 0.43529,0.12982 1.3431,0.24627 2.01735,0.25877 0.97969,0.0182 1.25151,-0.0751 1.35334,-0.46454 z m -3.94243,-10.82491 c -0.32594,-0.0543 -0.70426,-0.42042 -0.88475,-0.85617 -0.63149,-1.52453 0.31126,-3.17747 1.81226,-3.17747 0.58909,0 0.62482,0.0749 0.4732,0.99219 -0.0902,0.5457 -0.16531,1.29685 -0.16691,1.66922 -0.004,0.90071 -0.53286,1.48906 -1.2338,1.37223 z m -7.17102,9.32782 c -0.0816,-0.42666 -0.30333,-0.66146 -0.62477,-0.66146 -0.586784,0 -0.607473,0.097 -0.17009,0.79734 0.46518,0.74487 0.94747,0.66242 0.79486,-0.13588 z m 23.010005,-0.46302 c 0.50824,-0.34648 0.86977,-0.8165 0.86492,-1.12448 -0.005,-0.29104 0.0699,-0.70776 0.16557,-0.92604 0.0956,-0.21828 0.0512,-0.69453 -0.0987,-1.05833 -0.14996,-0.36381 -0.30482,-0.81621 -0.34413,-1.00534 -0.2248,-1.08141 -1.34637,-1.31738 -3.04081,-0.63975 -1.01939,0.40767 -1.5504,1.98184 -1.17851,3.49368 0.18156,0.73806 0.36853,1.06335 0.49427,0.8599 0.28537,-0.46173 1.32456,-0.42783 1.14604,0.0374 -0.15874,0.41368 0.28791,0.95828 0.78594,0.95828 0.18271,0 0.72517,-0.26789 1.20546,-0.59531 z m -11.611775,-0.10795 c 0.265,-0.265 -0.35389,-0.88424 -0.88374,-0.88424 -0.47709,0 -0.88227,0.61295 -0.59504,0.90018 0.21282,0.21282 1.26132,0.20152 1.47878,-0.0159 z m 36.069985,-0.4353 c 0.30159,0.11573 0.33842,-0.078 0.19253,-1.01281 -0.0992,-0.63576 -0.34101,-1.61737 -0.53732,-2.18137 -0.19631,-0.564 -0.35693,-1.40944 -0.35693,-1.87875 0,-0.46931 -0.1307,-1.22825 -0.29046,-1.68653 -0.22709,-0.65142 -0.44358,-0.83355 -0.99219,-0.8347 -0.38595,-8.1e-4 -1.14647,-0.12499 -1.69005,-0.27596 -0.70592,-0.19604 -1.14712,-0.1895 -1.54402,0.0229 -0.71893,0.38476 -0.57272,0.50281 1.08232,0.87382 1.23133,0.27604 1.40097,0.40198 1.69469,1.25812 0.17951,0.52326 0.24331,1.1781 0.14177,1.45521 -0.22674,0.61884 -0.30631,3.4945 -0.1135,4.10201 0.11503,0.36243 0.31407,0.40426 1.09048,0.22915 0.52236,-0.11782 1.11757,-0.14981 1.32268,-0.0711 z m -35.711215,-2.13627 c -0.0584,-0.16337 -0.38331,-0.26471 -0.72208,-0.22519 -0.79316,0.0925 -0.98887,0.29757 -0.54554,0.57156 0.4657,0.28782 1.40273,0.0318 1.26762,-0.34637 z m -1.10613,-2.01683 c -0.0899,-0.14552 -0.28258,-0.26459 -0.42811,-0.26459 -0.14552,0 -0.19099,0.11907 -0.10106,0.26459 0.0899,0.14552 0.28259,0.26458 0.42811,0.26458 0.14552,0 0.191,-0.11906 0.10106,-0.26458 z m 29.633335,-0.26459 c 0.0912,-0.14754 -0.10673,-0.26279 -0.4474,-0.26053 -0.4915,0.003 -0.53335,0.0542 -0.21406,0.26053 0.49232,0.31816 0.46483,0.31816 0.66146,0 z m 3.3126,-0.40327 c 0.38621,-0.46535 0.35052,-0.52047 -0.50835,-0.78502 -0.528,-0.16263 -0.60622,-0.11983 -0.46302,0.25336 0.0948,0.24697 0.17231,0.55837 0.17231,0.69199 0,0.3739 0.42675,0.28828 0.79906,-0.16033 z m -42.867815,-1.84569 c 0,-0.41567 -0.15981,-0.47161 -1.44936,-0.50734 -1.070405,-0.0297 -1.226762,-0.81051 -0.21752,-1.08631 0.40746,-0.11135 1.15165,-0.17411 1.65375,-0.13946 0.7875,0.0543 0.86734,0.008 0.58121,-0.33666 -0.20763,-0.25019 -0.78553,-0.39967 -1.54512,-0.39967 -0.722595,0 -1.301163,-0.14195 -1.430318,-0.35093 -0.248338,-0.40182 0.343244,-0.68735 1.797908,-0.86777 0.51104,-0.0634 1.00606,-0.1986 1.10004,-0.30048 0.094,-0.10187 -0.32783,-0.12162 -0.93736,-0.0439 -0.84144,0.10732 -1.20768,0.0315 -1.521351,-0.31515 -0.733449,-0.81046 -0.495666,-1.07629 0.962711,-1.07629 1.80138,0 1.36029,-0.51399 -0.53367,-0.62186 -1.579461,-0.09 -1.747853,-0.19615 -1.50825,-0.95107 0.163122,-0.51395 0.305082,-0.54199 1.94239,-0.3836 1.34527,0.13014 1.6972,0.0969 1.47616,-0.13936 -0.25239,-0.26977 -1.07176,-0.42183 -2.818612,-0.5231 -0.486832,-0.0282 -0.678405,-1.08518 -0.196688,-1.08518 0.146483,0 0.525142,-0.29766 0.841464,-0.66146 0.316326,-0.3638 0.859336,-0.66146 1.206706,-0.66146 0.51169,0 0.59961,-0.10069 0.46321,-0.53047 -0.10736,-0.33824 -0.0322,-0.58274 0.20753,-0.67471 0.2364,-0.0907 0.32991,-0.38478 0.25198,-0.79245 -0.11068,-0.57897 -0.26898,-0.65363 -1.48213,-0.69902 -1.461339,-0.0547 -1.947683,-0.045 -4.030998,0.0801 -1.207662,0.0725 -1.33603,0.13796 -1.218556,0.6212 0.07222,0.29707 0.228119,0.66531 0.346447,0.8183 0.329211,0.42565 0.345129,4.18591 0.02029,4.79287 -0.166704,0.31149 -0.188952,0.63665 -0.05305,0.77541 0.12872,0.13143 0.305842,1.29626 0.393605,2.5885 0.20432,3.00845 0.520176,3.67696 1.457275,3.08434 0.243761,-0.15415 0.449284,-0.15046 0.548354,0.01 0.157817,0.25535 1.963796,0.68984 3.096653,0.74501 0.36566,0.0178 0.59531,-0.12411 0.59531,-0.36789 z m 10.58334,-0.92604 c -0.21828,-0.14106 -0.57547,-0.25648 -0.79375,-0.25648 -0.35278,0 -0.35278,0.0285 0,0.25648 0.21828,0.14107 0.57547,0.25648 0.79375,0.25648 0.35278,0 0.35278,-0.0285 0,-0.25648 z m 29.104165,0 c -0.21828,-0.14106 -0.57546,-0.25648 -0.79375,-0.25648 -0.35277,0 -0.35277,0.0285 0,0.25648 0.21829,0.14107 0.57547,0.25648 0.79375,0.25648 0.35278,0 0.35278,-0.0285 0,-0.25648 z m 4.63021,-1.87413 c 0,-0.20615 -0.14882,-0.34506 -0.33073,-0.30868 -0.1819,0.0364 -0.33073,-0.0529 -0.33073,-0.19844 0,-0.14552 -0.11906,-0.26458 -0.26458,-0.26458 -0.36638,0 -0.33179,0.62071 0.0562,1.00872 0.39587,0.39587 0.86982,0.26672 0.86982,-0.23702 z m -23.19829,-0.952 c 0.32061,-0.32116 0.44413,-0.90314 0.44413,-2.09267 v -1.64778 l -1.64614,-0.17655 c -0.90538,-0.0971 -1.75986,-0.10626 -1.89885,-0.0204 -0.23706,0.14651 -0.1894,2.28111 0.0772,3.4562 0.066,0.29104 0.12915,0.61846 0.14028,0.7276 0.0416,0.40737 2.43494,0.20281 2.88341,-0.24644 z m -7.0965,-1.55839 c 0,-1.01493 -0.483975,-1.70089 -1.200035,-1.70089 -0.29624,0 -0.39062,0.13932 -0.28348,0.41851 0.0883,0.23018 0.16059,0.8255 0.16059,1.32292 0,0.7883 0.0849,0.9044 0.66146,0.9044 0.582095,0 0.661465,-0.11339 0.661465,-0.94494 z M 76.011883,149.9822 c -0.427126,-0.28019 -0.836601,-0.38572 -0.971853,-0.25047 -0.380666,0.38066 -0.01568,0.67471 0.875934,0.70569 l 0.834042,0.029 z m 43.004377,-1.02657 c -0.004,-0.8718 -0.13247,-1.66228 -0.28511,-1.75662 -0.15906,-0.0983 -0.22199,-0.0146 -0.14743,0.19604 0.0716,0.20216 -0.0449,0.8138 -0.25877,1.35921 -0.42492,1.08357 -0.30393,1.78647 0.30751,1.78647 0.30274,0 0.38966,-0.35899 0.3838,-1.5851 z m -25.719325,-1.45086 c 0.37143,-0.26016 0.61738,-0.81106 0.73826,-1.65364 0.0997,-0.69494 0.30831,-1.70061 0.46356,-2.23483 0.24568,-0.8454 0.20906,-1.06439 -0.28252,-1.68933 -0.56915,-0.72356 -0.61734,-0.67499 -0.67088,0.67626 -0.0188,0.47446 -0.1945,0.68536 -0.62152,0.74601 -0.51506,0.0731 -0.59531,0.24257 -0.59531,1.25677 v 1.17222 l -0.99219,0.0179 c -0.92449,0.0167 -0.95033,0.038 -0.37871,0.31312 0.40645,0.19559 0.57101,0.45763 0.48763,0.77647 -0.072,0.27526 0.0618,0.59079 0.31257,0.73716 0.60776,0.35477 0.8955,0.33269 1.53911,-0.11812 z m 3.94096,-1.28896 c -0.004,-1.5448 -0.0469,-1.66995 -0.53854,-1.56497 -0.52529,0.11217 -0.52497,0.10586 0.0186,-0.37144 0.48648,-0.42719 0.52354,-0.62481 0.30837,-1.64436 -0.22576,-1.0697 -0.27764,-1.12575 -0.67454,-0.72884 -0.25017,0.25016 -0.44985,0.92994 -0.47753,1.62559 -0.0262,0.65759 -0.17457,1.34867 -0.32981,1.53572 -0.15524,0.18706 -0.36086,0.83163 -0.45692,1.4324 -0.17334,1.08397 -0.16788,1.09312 0.716,1.2013 0.48986,0.06 1.01394,0.12806 1.16462,0.15135 0.16493,0.0255 0.2723,-0.62595 0.26979,-1.63675 z m 6.386495,0.0916 c 0.19019,0 0.3458,-0.11906 0.3458,-0.26458 0,-0.14553 0.44648,-0.27365 0.99219,-0.28472 l 0.99218,-0.0201 -0.84823,-0.3106 c -1.27786,-0.46791 -1.59208,-0.86947 -1.18741,-1.51746 0.27352,-0.43796 0.25948,-0.63589 -0.0792,-1.11787 l -0.41161,-0.58568 -0.15667,0.59531 c -0.0862,0.32742 -0.25382,0.59531 -0.37256,0.59531 -0.11875,0 -0.29048,0.235 -0.38164,0.52222 -0.0912,0.28722 -0.47844,0.67417 -0.86063,0.8599 -0.9179,0.44605 -1.231,1.58534 -0.58718,2.13659 0.79439,0.68018 1.6756,0.67687 1.9597,-0.007 0.13723,-0.33051 0.40512,-0.60093 0.59531,-0.60093 z m 2.72705,0.89773 c 0,-0.0572 -0.24514,-0.10398 -0.54478,-0.10398 -0.29962,0 -0.47441,0.11386 -0.3884,0.25303 0.14118,0.22844 0.93318,0.10195 0.93318,-0.14905 z m -20.902085,-0.10398 c -0.21828,-0.14107 -0.51593,-0.25648 -0.66145,-0.25648 -0.14552,0 -0.086,0.11541 0.13229,0.25648 0.21828,0.14106 0.51594,0.25648 0.66146,0.25648 0.14552,0 0.086,-0.11542 -0.1323,-0.25648 z m 3.6164,-1.2343 c -0.28318,-0.28318 -1.49973,-0.34042 -1.49973,-0.0706 0,0.1356 0.37703,0.24654 0.83785,0.24654 0.46081,0 0.75866,-0.0792 0.66188,-0.17597 z m -2.43523,-4.04206 c 0.0847,-0.13711 0.19502,-0.73242 0.24509,-1.32292 0.068,-0.80234 -0.006,-1.07364 -0.29176,-1.07364 -0.28768,0 -0.33947,-0.19723 -0.20845,-0.79375 0.0959,-0.43656 0.0821,-0.79375 -0.0306,-0.79375 -0.41754,0 -1.64468,1.39554 -1.51782,1.72612 0.0723,0.18834 0.0156,0.76196 -0.126,1.27469 -0.141573,0.51274 -0.189846,0.99982 -0.10727,1.08239 0.24807,0.24807 1.87109,0.16907 2.03686,-0.0991 z m 1.99383,-4.64552 c 0,-0.21828 -0.11906,-0.39687 -0.26458,-0.39687 -0.14552,0 -0.26458,0.17859 -0.26458,0.39687 0,0.21829 0.11906,0.39688 0.26458,0.39688 0.14552,0 0.26458,-0.17859 0.26458,-0.39688 z m 33.337915,28.6496 c -0.93708,-2.17829 -0.93595,-2.64837 0.008,-3.34626 0.8746,-0.64661 1.52289,-0.46208 1.56351,0.44504 0.011,0.24496 0.0823,1.14293 0.15858,1.9955 0.13949,1.55956 -0.11617,2.28633 -0.80425,2.28633 -0.18255,0 -0.59916,-0.62127 -0.92582,-1.38061 z m -17.19833,-27.1944 c 0,-0.14552 0.12609,-0.26458 0.2802,-0.26458 0.15411,0 0.20661,0.11906 0.11667,0.26458 -0.0899,0.14552 -0.21602,0.26459 -0.2802,0.26459 -0.0642,0 -0.11667,-0.11907 -0.11667,-0.26459 z"
       id="path9" />
  </g>
</svg>
