<?xml version="1.0" encoding="UTF-8" standalone="no"?>
<!-- Created with Inkscape (http://www.inkscape.org/) -->

<svg
   width="90.838272mm"
   height="49.195343mm"
   viewBox="0 0 90.838272 49.195343"
   version="1.1"
   id="svg1"
   inkscape:version="1.4.1-rc (06eac75fbf, 2025-03-29)"
   sodipodi:docname="city4.svg"
   xmlns:inkscape="http://www.inkscape.org/namespaces/inkscape"
   xmlns:sodipodi="http://sodipodi.sourceforge.net/DTD/sodipodi-0.dtd"
   xmlns="http://www.w3.org/2000/svg"
   xmlns:svg="http://www.w3.org/2000/svg">
  <sodipodi:namedview
     id="namedview1"
     pagecolor="#ffffff"
     bordercolor="#000000"
     borderopacity="0.25"
     inkscape:showpageshadow="2"
     inkscape:pageopacity="0.0"
     inkscape:pagecheckerboard="0"
     inkscape:deskcolor="#d1d1d1"
     inkscape:document-units="mm"
     inkscape:zoom="0.72248176"
     inkscape:cx="171.63063"
     inkscape:cy="92.043846"
     inkscape:window-width="1850"
     inkscape:window-height="1016"
     inkscape:window-x="0"
     inkscape:window-y="0"
     inkscape:window-maximized="1"
     inkscape:current-layer="layer1" />
  <defs
     id="defs1" />
  <g
     inkscape:label="Layer 1"
     inkscape:groupmode="layer"
     id="layer1"
     transform="translate(-59.795833,-124.08991)">
    <path
       style="fill:#000000"
       d="m 75.27795,173.00806 c -0.36147,-0.21028 -0.40659,-0.36358 -0.18542,-0.63007 0.41794,-0.50358 3.9704,-0.4928 3.9704,0.0121 0,0.20032 -0.2303,0.48748 -0.51177,0.63812 -0.65777,0.35202 -2.65463,0.33976 -3.27321,-0.0201 z m 1.70631,-1.72703 c -0.77946,-0.20009 -1.5236,-0.42955 -1.65364,-0.50992 -0.79102,-0.48887 0.52863,-1.3488 1.37486,-0.89591 0.68443,0.3663 2.85513,0.38916 3.21047,0.0338 0.34685,-0.34685 -0.61299,-0.85779 -1.82258,-0.97021 -1.14441,-0.10636 -1.31932,-0.26984 -0.86913,-0.81228 0.34702,-0.41814 1.1776,-0.41808 2.15154,1.6e-4 0.32957,0.14153 0.55458,-0.0205 0.86669,-0.62404 0.23185,-0.44837 0.58763,-0.8152 0.79061,-0.8152 0.20321,0 0.44962,-0.38643 0.54834,-0.8599 0.0986,-0.47294 0.32748,-1.09802 0.50859,-1.38907 0.18112,-0.29104 0.40272,-1.16073 0.49244,-1.93265 0.15615,-1.3434 0.13899,-1.39582 -0.40069,-1.22454 -0.3101,0.0984 -1.52565,0.149 -2.70122,0.11237 -4.46837,-0.13919 -4.93168,-0.10559 -7.28626,0.52844 -0.59458,0.1601 -1.19578,0.2202 -1.33598,0.13355 -0.14021,-0.0867 -0.69848,-0.0351 -1.24061,0.1146 -1.14935,0.31736 -2.99018,0.0934 -2.99018,-0.36372 0,-0.56324 -1.3064,-1.4691 -2.11868,-1.4691 -0.43545,0 -0.79173,-0.10449 -0.79173,-0.23219 0,-0.4008 0.75466,-0.87982 1.44928,-0.91993 0.36685,-0.0212 0.66709,-0.12781 0.6672,-0.23695 1e-4,-0.10914 0.252,-0.19844 0.55978,-0.19844 0.53291,0 0.53936,0.0309 0.13523,0.64766 -0.266,0.40597 -0.32501,0.70907 -0.15813,0.81221 0.37507,0.23181 3.90396,0.19425 4.29218,-0.0457 0.60113,-0.37152 1.32719,-0.27514 1.44945,0.19241 0.10842,0.41456 0.22491,0.42932 1.07257,0.13585 0.9052,-0.31339 0.95208,-0.38935 0.97444,-1.57913 0.013,-0.69078 0.17147,-1.34135 0.35428,-1.45434 0.18194,-0.11244 0.45161,-0.95462 0.59927,-1.8715 0.14766,-0.91689 0.28679,-1.74128 0.30919,-1.83198 0.0224,-0.0907 -0.1068,-0.97781 -0.28708,-1.97136 -0.39255,-2.16328 -0.26003,-2.69669 0.80703,-3.24849 0.65524,-0.33883 0.85089,-0.35294 1.02343,-0.0737 0.17021,0.2754 0.31154,0.25627 0.69933,-0.0947 0.43123,-0.39027 0.66857,-0.40221 2.10596,-0.106 0.89098,0.18361 1.8404,0.25251 2.10984,0.15311 0.26943,-0.0994 1.11495,-0.2665 1.87894,-0.37134 0.76398,-0.10483 1.39971,-0.26872 1.41273,-0.36421 0.013,-0.0955 0.0496,-1.69419 0.0812,-3.55268 0.0649,-3.81016 0.297,-4.39803 1.54857,-3.92219 0.79055,0.30057 1.15283,0.0129 1.29774,-1.03041 0.10746,-0.77366 0.93999,-1.04183 1.19239,-0.38409 0.0953,0.24832 0.0354,0.67222 -0.1331,0.94201 -0.32804,0.52528 -0.42792,3.9921 -0.12377,4.29624 0.10041,0.10041 0.15055,0.78564 0.11143,1.52273 -0.0624,1.17533 -0.0116,1.32881 0.41275,1.24789 0.28803,-0.0549 0.51276,-0.35889 0.55524,-0.75102 0.25262,-2.33224 0.27949,-2.37855 1.38022,-2.37855 1.23075,0 1.44824,-0.28153 1.35749,-1.75726 -0.0378,-0.61456 0.063,-1.36355 0.22406,-1.66443 0.16103,-0.30088 0.19487,-0.54706 0.0752,-0.54706 -0.38608,0 -0.31235,-1.08179 0.0841,-1.23392 0.21095,-0.0809 0.67609,0.0445 1.03365,0.27879 0.90432,0.59253 1.14513,0.53382 0.99663,-0.24301 -0.19477,-1.01885 0.44959,-2.96368 1.12953,-3.4092 0.46638,-0.30558 0.81353,-0.33448 1.55582,-0.12953 0.61987,0.17116 1.27898,0.17451 1.87643,0.01 0.50651,-0.13985 1.22238,-0.22119 1.59082,-0.18074 0.37392,0.041 0.65458,-0.0567 0.63522,-0.22118 -0.12524,-1.06444 0.28866,-1.27925 0.69529,-0.36085 0.15681,0.35418 0.45181,0.56344 0.7283,0.51662 0.33453,-0.0566 0.51064,0.15089 0.62862,0.74079 0.14629,0.73143 0.24173,0.80237 0.88839,0.66034 0.5309,-0.1166 0.76941,-0.0421 0.89256,0.27886 0.0971,0.25311 0.33465,0.37406 0.56272,0.28654 0.26744,-0.10263 0.39464,0.0164 0.39464,0.36942 0,0.28648 0.11907,0.52086 0.26459,0.52086 0.14552,0 0.26458,0.20949 0.26458,0.46553 0,0.25603 0.23812,0.61423 0.52917,0.79599 0.29104,0.18176 0.52916,0.505 0.52916,0.71831 0,0.21331 0.34124,0.56429 0.7583,0.77997 1.01346,0.52407 2.5772,0.12612 2.8194,-0.71751 0.0927,-0.32289 0.3575,-1.0038 0.58844,-1.51312 0.23094,-0.50932 0.39493,-1.47525 0.36441,-2.1465 -0.0305,-0.67126 0.13029,-2.04048 0.35734,-3.04271 0.22705,-1.00224 0.46107,-2.65569 0.52005,-3.67433 0.059,-1.01865 0.30972,-2.59623 0.55721,-3.50573 0.43696,-1.60579 0.47538,-1.65365 1.32784,-1.65365 0.48283,0 0.94268,0.10487 1.02189,0.23303 0.0792,0.12816 0.2137,1.82481 0.29887,3.77031 0.0852,1.94551 0.2101,4.07307 0.27762,4.72791 0.0675,0.65485 0.16371,1.63722 0.21378,2.18304 0.0501,0.54583 0.25431,1.22453 0.45388,1.50823 0.33326,0.47374 0.47074,0.48956 1.68577,0.19396 1.56559,-0.38089 2.58532,-0.9092 2.3839,-1.23509 -0.0794,-0.12856 0.0345,-0.74766 0.25333,-1.37579 0.21877,-0.62813 0.39951,-1.56205 0.40162,-2.07537 0.003,-0.76593 0.30651,-1.50092 0.96806,-2.34553 0.0447,-0.0571 0.2571,0.042 0.47191,0.22029 0.36763,0.3051 1.68345,0.1368 1.37126,-0.17539 -0.2863,-0.2863 0.41096,-1.17167 0.80396,-1.02086 0.21766,0.0835 0.61802,0.0329 0.88969,-0.11248 0.33433,-0.17893 0.5493,-0.17479 0.66525,0.0128 0.15595,0.25234 0.24633,2.2257 0.1237,2.70082 -0.0563,0.21814 -0.0656,1.08763 -0.0248,2.32014 0.0243,0.73278 0.0866,0.78462 0.75407,0.6273 0.40018,-0.0943 0.83141,-0.26588 0.95828,-0.38124 0.31245,-0.2841 0.95995,-0.0101 0.95995,0.40627 0,0.18489 0.17859,0.48439 0.39687,0.66555 0.21828,0.18116 0.39688,0.61004 0.39688,0.95308 0,1.14305 0.81116,2.74537 1.47404,2.91175 0.34151,0.0857 0.74952,0.31079 0.9067,0.50019 0.3462,0.41714 2.33841,0.23304 2.87061,-0.26527 0.28405,-0.26597 0.29199,-0.45449 0.039,-0.92717 -0.20039,-0.37444 -0.25945,-1.12602 -0.16007,-2.03735 0.17048,-1.56346 0.30879,-1.92898 0.72988,-1.92898 0.14999,0 0.47038,-0.2322 0.71199,-0.516 0.25639,-0.30116 1.0119,-0.61556 1.81461,-0.75513 1.15318,-0.20051 1.49403,-0.16127 2.11024,0.24296 0.95958,0.62947 1.07539,1.02633 0.96344,3.30146 l -0.0936,1.90118 0.99727,-0.34503 c 0.85003,-0.29409 1.06222,-0.28679 1.43709,0.0494 0.2419,0.21696 0.65862,0.42921 0.92604,0.47167 0.31075,0.0493 0.45625,0.25696 0.40315,0.5753 -0.0457,0.27396 -0.12254,1.25532 -0.17077,2.18079 -0.097,1.86169 -0.61557,2.74973 -1.28245,2.19628 -0.419,-0.34775 -0.39119,-0.54919 -0.52381,3.79396 -0.0878,2.87557 0.17408,4.41163 0.91957,5.3935 0.26349,0.34705 0.47908,1.01708 0.47908,1.48896 0,0.47189 0.17859,1.00619 0.39688,1.18735 0.21828,0.18116 0.39687,0.4934 0.39687,0.69386 0,0.20046 0.0896,0.36448 0.19901,0.36448 0.10945,0 0.77431,0.53577 1.47747,1.19062 0.70315,0.65485 1.38332,1.19063 1.51147,1.19063 0.12816,0 0.36789,0.25202 0.53274,0.56004 0.37869,0.7076 -0.19038,1.36261 -1.26715,1.45853 -0.40356,0.0359 -1.81906,0.14895 -3.14556,0.25112 -1.98311,0.15274 -2.40639,0.26147 -2.38125,0.61169 0.0205,0.28612 -0.22997,0.45517 -0.76319,0.51503 -0.43656,0.049 -0.88896,0.25736 -1.00533,0.46302 -0.11637,0.20566 -0.42922,0.37392 -0.69521,0.37392 -0.59422,0 -0.78618,0.22645 -1.97449,2.32932 -0.7275,1.28738 -0.9311,1.92963 -0.89255,2.81548 0.0279,0.63987 -0.10635,1.33597 -0.30332,1.5733 -0.51995,0.62651 -1.32271,0.5235 -1.59979,-0.20527 -0.23947,-0.62986 -0.24253,-0.63028 -1.77939,-0.24262 -0.84673,0.21358 -2.28002,0.40191 -3.1851,0.41852 -1.61496,0.0296 -1.64325,0.0428 -1.51977,0.70563 0.0692,0.3715 0.0465,0.49898 -0.0506,0.2833 -0.41533,-0.92333 -0.83824,-1.05167 -3.4402,-1.04402 -7.73159,0.0227 -8.98138,0.0629 -9.27342,0.29839 -0.17553,0.14151 -0.47318,0.15957 -0.66146,0.0401 -0.5146,-0.32646 -0.82432,-0.27243 -1.3285,0.23175 -0.54982,0.54982 -1.26278,0.34524 -1.26278,-0.36234 0,-0.44447 -0.0754,-0.46984 -0.58523,-0.19696 -0.37637,0.20142 -2.40027,0.34021 -5.67088,0.38887 -2.7971,0.0416 -5.5289,0.19805 -6.07066,0.34764 -0.54176,0.14959 -1.11241,0.19325 -1.26811,0.097 -0.3259,-0.20142 -4.63158,-0.15891 -8.50848,0.084 -2.21109,0.13853 -2.71323,0.0981 -2.99485,-0.24125 -0.47876,-0.57687 -1.82411,-0.82517 -2.30565,-0.42554 -0.21707,0.18016 -1.18256,0.37157 -2.14552,0.42536 -1.35204,0.0755 -1.8601,-10e-4 -2.23046,-0.33624 -0.56487,-0.5112 -1.28819,-0.31339 -1.47568,0.40355 -0.11742,0.44901 -0.61451,0.74491 -1.93406,1.15129 -0.21828,0.0672 -1.03462,-0.0415 -1.81409,-0.24156 z m 20.13673,-2.37006 c 0.51793,-0.10602 0.77122,-0.35277 0.87821,-0.85552 0.0827,-0.38859 0.26118,-0.98003 0.39663,-1.3143 0.13545,-0.33427 0.24627,-1.0784 0.24627,-1.65364 0,-1.18951 -0.24812,-1.28097 -1.7606,-0.64902 -1.36826,0.5717 -1.67898,0.50914 -1.67898,-0.338 0,-1.2165 0.67284,-1.91097 1.85147,-1.91097 0.56524,0 1.1013,0.11907 1.19123,0.26459 0.289,0.46761 0.66134,0.28257 0.66551,-0.33073 0.007,-0.96915 0.38718,-1.34876 1.15818,-1.15526 0.5656,0.14196 0.68986,0.0808 0.68986,-0.33942 0,-0.28191 0.0684,-0.69076 0.15195,-0.90855 0.12514,-0.32611 -0.0499,-0.37116 -0.99219,-0.25532 -0.62928,0.0774 -1.42373,0.31575 -1.76546,0.52977 -1.31657,0.82453 -6.67453,0.60038 -8.16228,-0.34148 -0.75539,-0.47822 -0.86957,-0.26122 -1.06043,2.01536 -0.0858,1.02358 -0.25295,1.92096 -0.37141,1.99417 -0.11846,0.0732 -0.0966,0.44558 0.0486,0.82748 0.23568,0.61989 0.14779,0.80943 -0.8194,1.76704 -0.88064,0.87192 -1.12925,1.00019 -1.32839,0.68533 -0.40304,-0.63723 -0.28914,-1.18726 0.37507,-1.81126 0.52735,-0.49542 0.61647,-0.80697 0.55527,-1.94117 -0.0401,-0.74307 0.0769,-1.92848 0.25996,-2.63424 0.29984,-1.15593 0.28413,-1.33938 -0.15839,-1.84962 -0.572,-0.65953 -0.63249,-1.51407 -0.15354,-2.16908 0.55532,-0.75945 1.23812,-0.2848 1.17293,0.81537 -0.0464,0.78238 0.0407,0.95112 0.5321,1.03129 0.73482,0.11989 1.0133,-0.38293 1.2626,-2.2797 0.1052,-0.80037 0.36488,-1.65186 0.57707,-1.89219 0.35675,-0.40408 0.13311,-0.42991 -2.97069,-0.34308 -1.84606,0.0516 -3.43084,0.16827 -3.52172,0.25915 -0.22538,0.22538 -0.18815,2.4119 0.0621,3.64602 0.13293,0.65565 0.0985,1.1361 -0.0983,1.3733 -0.16654,0.20066 -0.27245,0.5803 -0.23537,0.84364 0.10139,0.72003 -0.26626,2.59894 -0.99971,5.10903 -1.06704,3.65174 -1.46056,3.29924 3.74902,3.35819 5.07135,0.0574 6.12897,0.15141 6.56084,0.58328 0.28837,0.28837 1.92915,0.2304 3.69201,-0.13046 z m -7.38231,-4.48099 c -0.0971,-0.25316 -0.0564,-0.65247 0.0906,-0.88735 0.30356,-0.48511 1.61098,-0.72328 1.97456,-0.3597 0.33014,0.33015 0.0198,1.04305 -0.52223,1.19947 -0.2446,0.0706 -0.65208,0.21374 -0.90551,0.31811 -0.31393,0.12929 -0.51709,0.0431 -0.63742,-0.27053 z m 10.32416,3.77884 c 0.21971,-0.81986 0.20769,-2.17965 -0.0173,-1.95468 -0.10122,0.10123 -0.21275,0.38896 -0.24784,0.63941 -0.0351,0.25045 -0.12788,0.7828 -0.20621,1.18298 -0.17021,0.86957 0.2427,0.98546 0.47134,0.13229 z m 3.20947,0.33073 c 0.0899,-0.14552 0.0374,-0.26458 -0.11668,-0.26458 -0.15411,0 -0.2802,0.11906 -0.2802,0.26458 0,0.14552 0.0525,0.26458 0.11668,0.26458 0.0642,0 0.19026,-0.11906 0.2802,-0.26458 z m 5.42396,0.0324 c 0,-0.12771 -0.17745,-0.37946 -0.39432,-0.55945 -0.24743,-0.20535 -0.33604,-0.55945 -0.23786,-0.95062 0.0988,-0.39374 4.1e-4,-0.77941 -0.26715,-1.04696 -0.23297,-0.23297 -0.42359,-0.6515 -0.42359,-0.93007 0,-0.7979 0.56182,-2.92117 1.0979,-4.14922 0.26928,-0.61687 0.4896,-1.34026 0.4896,-1.60753 0,-0.83082 1.11445,-1.58144 3.04271,-2.04938 1.01864,-0.2472 1.98693,-0.61626 2.15175,-0.82013 0.42569,-0.52656 2.35199,-0.19684 3.62721,0.62085 0.55906,0.35849 1.092,0.57626 1.18432,0.48394 0.0923,-0.0923 0.17917,-0.70078 0.19301,-1.35214 0.0309,-1.45249 0.49018,-1.95084 1.6324,-1.7711 0.90197,0.14194 1.15189,0.54796 1.19134,1.93545 0.0242,0.85069 -0.35341,1.25635 -1.84409,1.9811 -0.47295,0.22993 -0.8599,0.47363 -0.8599,0.54154 0,0.18848 0.61756,1.25197 1.01811,1.75326 0.19615,0.24549 0.28626,0.56024 0.20023,0.69943 -0.086,0.1392 0.0205,0.75452 0.23673,1.36739 0.44316,1.25604 0.31022,2.14965 -0.48989,3.29288 -0.29984,0.42841 -0.55042,1.08326 -0.55685,1.45522 -0.0103,0.59317 0.11837,0.69252 1.04676,0.80856 1.21545,0.15191 2.77824,-0.24596 2.77824,-0.70731 0,-0.17227 -0.16559,-0.47884 -0.36798,-0.68123 -0.25454,-0.25453 -0.29091,-0.50573 -0.11798,-0.81474 0.13751,-0.24572 0.17659,-0.56557 0.0868,-0.71079 -0.0898,-0.14521 -0.0392,-0.65029 0.11228,-1.12239 0.15149,-0.47209 0.3492,-1.91182 0.43935,-3.19938 0.11924,-1.70314 0.28851,-2.46563 0.62122,-2.79834 0.66613,-0.66614 0.83074,-1.26408 0.43779,-1.5902 -0.18949,-0.15726 -0.41739,-0.90114 -0.50645,-1.65306 -0.0891,-0.75192 -0.31389,-1.46815 -0.49963,-1.59163 -0.18575,-0.12348 -0.9489,-0.16968 -1.6959,-0.10268 -0.74699,0.067 -1.8788,-0.0349 -2.51514,-0.22637 -0.63633,-0.19151 -1.65599,-0.35509 -2.2659,-0.36351 -0.60991,-0.008 -1.32356,-0.12301 -1.5859,-0.25465 -0.50642,-0.25413 -1.40975,-0.23585 -3.81669,0.0772 -1.11487,0.14501 -1.83111,0.0794 -2.85846,-0.26182 l -1.37083,-0.45532 -0.87256,0.89846 c -0.85443,0.87978 -0.87043,0.93945 -0.76961,2.87027 0.0566,1.08448 0.11373,2.09085 0.1269,2.23638 0.0252,0.27848 -0.28583,7.67295 -0.32274,7.67295 -0.1299,0 -0.23239,1.9943 -0.12503,2.43296 0.11671,0.47685 0.36698,0.59861 1.39753,0.67991 0.69044,0.0545 1.34465,0.1205 1.45379,0.14673 0.10914,0.0262 0.19844,-0.0568 0.19844,-0.18449 z m -0.24308,-12.30966 c -0.3818,-0.46004 -0.28835,-1.52771 0.14622,-1.67065 0.46984,-0.15454 1.07494,0.60745 1.02474,1.29043 -0.0536,0.72876 -0.70591,0.94058 -1.17096,0.38022 z m 21.02098,10.99995 c -0.42649,-3.34562 -0.38343,-4.12444 0.27315,-4.94043 0.7997,-0.99385 1.21144,-0.78874 2.30608,1.14882 0.73885,1.30778 0.75784,1.4135 0.33733,1.87817 -0.27983,0.30921 -0.34452,0.55484 -0.17389,0.6603 0.18063,0.11164 0.18577,0.39395 0.0153,0.84222 -0.141,0.37087 -0.18924,0.7829 -0.10721,0.91564 0.12303,0.19906 4.07708,0.24668 4.08537,0.0492 0.001,-0.0341 -0.35382,-0.79772 -0.78944,-1.697 -0.67722,-1.39805 -0.81304,-2.04107 -0.93694,-4.436 -0.22416,-4.33264 0.21952,-3.86962 -3.63558,-3.79401 -4.3463,0.0853 -4.67392,0.21278 -4.74313,1.84642 -0.0294,0.69483 -0.08,1.79911 -0.11232,2.45395 -0.0323,0.65485 0.067,1.59742 0.22087,2.09459 0.2237,0.72305 0.20251,0.96134 -0.10586,1.19064 -0.37183,0.27647 -1.00803,1.778 -1.00701,2.37668 3.2e-4,0.18546 0.81707,0.30781 2.2488,0.33685 l 2.24831,0.0456 z m -14.09717,-2.3548 c 0.5457,-0.22936 0.99755,-0.54777 1.00411,-0.70757 0.007,-0.1598 0.0727,-1.15515 0.14693,-2.2119 0.12684,-1.80523 0.0994,-1.93452 -0.45442,-2.13938 -1.27076,-0.47009 -3.39517,-0.35636 -4.34842,0.23278 -0.50356,0.31121 -0.8566,0.66125 -0.78454,0.77785 0.0721,0.1166 -0.0462,0.35914 -0.26293,0.53897 -0.75538,0.62691 -0.40092,2.16176 0.76949,3.33195 0.9657,0.96551 1.94893,1.00987 3.92978,0.1773 z m -14.82467,-1.67123 c 0.065,-0.44297 0.019,-0.86672 -0.10226,-0.94166 -0.12126,-0.0749 -0.22047,0.28749 -0.22047,0.80541 0,1.15388 0.16326,1.22281 0.32273,0.13625 z m 38.3419,-2.01338 c -0.24893,-0.42826 -0.28494,-0.39224 -0.292,0.292 -0.006,0.56921 0.071,0.70147 0.28396,0.48853 0.20927,-0.20928 0.21155,-0.43042 0.008,-0.78053 z m 1.93039,0.20292 c 0.0797,-0.12904 -0.0323,-0.38174 -0.24897,-0.56156 -0.32785,-0.27209 -0.39396,-0.23272 -0.39396,0.2346 0,0.56763 0.37601,0.75885 0.64293,0.32696 z m -63.40211,-1.6704 c 0.23552,-0.23551 0.3945,-0.2405 0.61568,-0.0193 0.20112,0.20113 0.50978,0.21773 0.94825,0.051 0.35753,-0.13593 0.74643,-0.18759 0.86422,-0.1148 0.11779,0.0728 0.28866,-0.16448 0.37971,-0.52728 0.0911,-0.36279 0.28095,-0.65963 0.42197,-0.65963 0.14103,0 0.33155,-0.46983 0.42337,-1.04407 0.12762,-0.7981 0.29977,-1.063 0.73073,-1.12448 0.38634,-0.0551 0.57391,-0.2819 0.59595,-0.72058 0.0177,-0.35209 0.21582,-0.77445 0.44028,-0.93858 0.22445,-0.16413 0.4481,-0.64996 0.49699,-1.07963 0.0958,-0.84151 -0.0677,-0.80065 2.73473,-0.68357 1.8084,0.0756 2.28129,-0.0344 2.0858,-0.48508 -0.40976,-0.94458 -0.41435,-1.89874 -0.0113,-2.34411 0.38309,-0.42331 0.37328,-0.48954 -0.11796,-0.79632 -0.32477,-0.20283 -0.50824,-0.56395 -0.46583,-0.91692 0.0385,-0.32027 -0.0879,-0.87054 -0.28085,-1.22282 -0.29456,-0.5378 -0.29117,-0.6863 0.0212,-0.92605 0.2437,-0.18706 0.39485,-0.92421 0.43832,-2.13761 0.0701,-1.95737 -0.17355,-2.68725 -0.81494,-2.44113 -0.31272,0.12 -0.39437,0.80644 -0.41357,3.47683 -0.0268,3.72034 -0.22578,4.38187 -1.30418,4.33483 -1.94289,-0.0847 -4.72834,0.36392 -5.43416,0.87532 -0.52961,0.38372 -0.95915,0.48921 -1.50437,0.36946 l -0.76311,-0.1676 0.021,2.46469 c 0.0311,3.65538 -0.23501,5.19276 -0.91638,5.29356 -0.30329,0.0449 -0.76691,0.46852 -1.03025,0.94147 l -0.47882,0.8599 h 1.00004 c 0.55002,0 1.14292,-0.14287 1.31754,-0.3175 z m 2.31722,-5.89016 c -0.25116,-1.67486 0.12234,-2.25695 1.37614,-2.14467 l 0.98977,0.0886 v 1.41986 c 0,1.28344 -0.0558,1.42063 -0.58121,1.42781 -0.31967,0.004 -0.66693,0.0937 -0.7717,0.19844 -0.47098,0.47098 -0.84936,0.10116 -1.013,-0.99007 z m 16.89798,5.17667 c 0.15653,-0.124 0.64178,-0.28579 1.07835,-0.35955 3.47811,-0.58758 5.33993,-1.07161 5.68854,-1.47886 0.21828,-0.255 0.61346,-0.54657 0.87818,-0.64792 0.40736,-0.15597 0.47163,-0.45095 0.41837,-1.92023 -0.0616,-1.69996 -0.0395,-1.76303 1.06954,-3.04165 0.93114,-1.07356 1.24483,-1.2775 1.76445,-1.14708 0.59965,0.1505 0.63196,0.0945 0.63196,-1.09553 v -1.25415 l -1.09448,0.1468 c -0.62084,0.0833 -1.30142,0.0176 -1.5727,-0.15185 -0.38155,-0.23829 -0.59328,-0.19454 -1.04742,0.21646 -0.56532,0.51161 -0.57245,0.51113 -1.04323,-0.0703 -0.43737,-0.54013 -0.65528,-0.57771 -2.81903,-0.48616 -1.28976,0.0546 -2.79991,0.18104 -3.35588,0.28105 -0.75358,0.13556 -1.13145,0.0727 -1.48463,-0.24691 -0.65153,-0.58962 -1.59528,-0.5887 -4.44967,0.004 -2.16701,0.45025 -2.44727,0.5734 -2.4474,1.07548 -1.5e-4,0.57981 0.459,0.8882 1.32236,0.8882 0.77424,0 0.77728,0.60597 0.007,1.32292 -0.95417,0.88771 -1.20135,1.58751 -0.56072,1.58751 0.64732,0 2.67311,-0.90789 3.53031,-1.58216 0.62505,-0.49167 0.72268,-0.50238 1.1039,-0.12117 0.23711,0.23711 0.4182,0.86153 0.4182,1.44203 0,0.5631 0.10465,1.0885 0.23255,1.16755 0.22948,0.14182 0.18474,1.07081 -0.20849,4.32862 l -0.20073,1.66299 0.92822,-0.14752 c 0.51052,-0.0811 1.05629,-0.24897 1.21281,-0.37297 z m -0.54051,-5.17304 c -0.31085,-0.81008 2.0146,-3.42797 2.5603,-2.88227 0.13426,0.13426 0.32064,0.80249 0.41418,1.48497 0.13852,1.01057 0.0893,1.27188 -0.26541,1.40798 -0.23952,0.0919 -0.62409,0.0106 -0.8546,-0.18072 -0.35191,-0.29206 -0.45954,-0.27559 -0.67124,0.10269 -0.30821,0.55074 -0.98299,0.58915 -1.18323,0.0673 z m 5.47624,-0.56683 c -0.33598,-0.56945 -0.42498,-0.94818 -0.24846,-1.05728 0.15571,-0.0962 0.20575,-0.53942 0.11533,-1.02141 -0.12063,-0.643 -0.0352,-0.96413 0.34916,-1.31193 0.48385,-0.43788 0.52182,-0.43741 0.77203,0.01 0.21863,0.39067 0.3723,0.4205 0.90822,0.17632 0.71426,-0.32544 1.43362,-0.0481 1.13376,0.43705 -0.1055,0.17071 -0.24729,0.69004 -0.31508,1.15407 -0.35887,2.45638 -0.29887,2.35187 -1.3999,2.43849 -0.64884,0.051 -0.88595,-0.0977 -1.31506,-0.82502 z m 43.37075,5.585 c 0,-0.039 -0.31037,-0.0709 -0.68971,-0.0709 -0.441,0 -0.56891,0.0747 -0.35472,0.20703 0.28617,0.17686 1.04443,0.078 1.04443,-0.13612 z m 2.44336,-0.005 c -0.0978,-0.36856 -1.72326,-0.30822 -1.84888,0.0686 -0.068,0.20412 0.23782,0.28894 0.90823,0.25186 0.55596,-0.0307 0.97925,-0.17498 0.94065,-0.3205 z m -8.4601,-2.30428 c 0.003,-2.20819 -0.13646,-3.64887 -0.35288,-3.64887 -0.0968,0 -0.14748,1.10133 -0.11257,2.44741 0.0797,3.0721 0.0956,3.23369 0.29774,3.0315 0.091,-0.091 0.16652,-0.91458 0.16771,-1.83004 z m 4.56153,0.84906 c 0.0899,-0.14552 0.38759,-0.26458 0.66146,-0.26458 1.08877,0 0.70522,-0.46384 -0.40194,-0.48606 -0.80713,-0.0162 -1.18556,0.0857 -1.18556,0.31932 0,0.64488 0.61657,0.93206 0.92604,0.43132 z m 2.24896,-0.52917 c 0,-0.14552 -0.0525,-0.26458 -0.11668,-0.26458 -0.0642,0 -0.19026,0.11906 -0.2802,0.26458 -0.0899,0.14552 -0.0374,0.26459 0.11668,0.26459 0.15411,0 0.2802,-0.11907 0.2802,-0.26459 z m -16.79992,-0.2664 c 0.0618,-0.1 0.6821,-0.0919 1.37851,0.0179 0.88141,0.13899 1.6401,0.0799 2.49657,-0.19463 1.12618,-0.36091 1.24063,-0.47647 1.35151,-1.36468 0.0666,-0.5337 0.074,-1.0245 0.0164,-1.09065 -0.0576,-0.0662 -1.32066,-0.13853 -2.80672,-0.16082 -1.48607,-0.0223 -3.06144,-0.12043 -3.50084,-0.21807 -1.11333,-0.24742 -1.73059,0.27882 -1.83242,1.56222 -0.12493,1.57461 0.0111,1.72858 1.48101,1.67656 0.71704,-0.0254 1.35425,-0.12793 1.41602,-0.22788 z m 6.86644,-2.24805 c 0.0169,-0.50883 -0.0629,-0.92514 -0.17729,-0.92514 -0.11439,0 -0.20798,0.49609 -0.20798,1.10243 0,1.31251 0.34105,1.15557 0.38527,-0.17729 z m -2.56809,-1.85412 c 0.32743,-0.0767 0.59532,-0.27477 0.59532,-0.44016 0,-0.16539 0.31446,-0.713 0.6988,-1.2169 l 0.69881,-0.91618 -0.83421,-0.82858 c -0.45882,-0.45572 -1.3185,-1.4528 -1.91041,-2.21573 -1.20265,-1.55012 -1.34164,-1.55143 -3.09397,-0.0293 -0.47801,0.41522 -0.99395,0.75495 -1.14654,0.75495 -0.15259,0 -0.68212,0.41671 -1.17674,0.92604 -0.49462,0.50932 -1.01629,0.92604 -1.15926,0.92604 -0.39036,0 -0.94524,1.14479 -0.60918,1.25681 0.15094,0.0503 0.21366,0.32389 0.13937,0.60796 -0.1367,0.52275 0.10144,0.61678 1.38187,0.54567 0.29104,-0.0162 1.10405,0.11948 1.8067,0.30144 1.44573,0.37439 3.7202,0.53619 4.60944,0.3279 z m -3.1269,-1.07715 c -0.54203,-0.65311 -0.32373,-2.52245 0.37721,-3.23008 0.72808,-0.73503 1.16349,-0.60051 1.99411,0.61606 0.6091,0.89212 0.59096,1.31285 -0.0566,1.31285 -0.16778,0 -0.34927,0.23812 -0.4033,0.52916 -0.21753,1.17171 -1.23773,1.58376 -1.91143,0.77201 z m 5.83888,0.81549 c 0,-0.21828 -0.11906,-0.39687 -0.26458,-0.39687 -0.14552,0 -0.26458,0.17859 -0.26458,0.39687 0,0.21829 0.11906,0.39688 0.26458,0.39688 0.14552,0 0.26458,-0.17859 0.26458,-0.39688 z m -22.225,-1.03585 c 1.15996,-0.20657 2.16444,-0.25988 2.4178,-0.12832 0.34039,0.17676 0.46303,0.0703 0.57135,-0.496 0.0759,-0.39659 0.0415,-0.89341 -0.0763,-1.10403 -0.11781,-0.21062 -0.10656,-0.66609 0.025,-1.01215 0.40021,-1.05264 0.40827,-3.57494 0.0118,-3.70708 -0.25702,-0.0857 -0.33189,0.18444 -0.2877,1.03798 0.0329,0.63458 -0.0682,1.45144 -0.22448,1.81524 -0.15633,0.36381 -0.35427,0.98888 -0.43987,1.38907 -0.17468,0.81656 -0.36054,0.88339 -1.05157,0.3781 -0.6126,-0.44795 -0.67111,-2.89116 -0.0854,-3.56468 0.51381,-0.5908 0.75951,-2.60367 0.41115,-3.36823 -0.21673,-0.47568 -0.56947,-0.63859 -1.68431,-0.77788 -0.84377,-0.10542 -1.62164,-0.063 -1.93668,0.10559 -0.28958,0.15498 -0.83199,0.28178 -1.20536,0.28178 -0.872,0 -0.97948,0.75463 -0.30437,2.13696 0.33373,0.68333 0.26211,1.85089 -0.31933,5.20558 -0.24524,1.41495 -0.15312,1.66363 0.7386,1.99376 0.62354,0.23084 1.30816,0.19389 3.43958,-0.18569 z m -2.13188,-1.26329 c -0.17352,-0.3362 -0.5394,-0.85777 -0.81305,-1.15904 -0.666,-0.7332 -0.41788,-2.74419 0.45475,-3.68577 0.38862,-0.41933 0.4841,-0.66126 0.26099,-0.66126 -0.19352,0 -0.50007,-0.17859 -0.68123,-0.39687 -0.44295,-0.53372 0.0904,-1.19063 0.96675,-1.19063 0.74098,0 1.08285,0.63384 0.63373,1.17499 -0.24084,0.2902 -0.21815,0.55369 0.10081,1.17048 0.22639,0.43779 0.53185,0.87029 0.6788,0.96111 0.17798,0.11 0.17138,0.34412 -0.0198,0.70129 -0.15783,0.2949 -0.30698,1.20889 -0.33145,2.03108 -0.0348,1.16828 -0.14176,1.51359 -0.48966,1.5804 -0.25582,0.0491 -0.57936,-0.17451 -0.76067,-0.52578 z m 11.27949,0.69014 c 0.68559,-0.26183 1.23341,-0.69408 1.46405,-1.15521 0.2027,-0.40525 1.40887,-1.66376 2.68038,-2.79668 l 2.31182,-2.05985 -0.16513,-1.08442 c -0.0908,-0.59643 -0.25557,-1.20348 -0.36609,-1.349 -0.23635,-0.31119 -0.75774,-2.04466 -0.95498,-3.17501 -0.14797,-0.84803 -0.51542,-1.3873 -0.77108,-1.13165 -0.17645,0.17646 0.0833,1.12168 1.02177,3.71857 l 0.64804,1.79317 -0.82746,0.90007 c -0.98934,1.07613 -3.08371,1.61217 -4.76218,1.21883 -1.55676,-0.36481 -1.75383,-0.18392 -1.75383,1.60983 0,1.18796 -0.13742,1.75577 -0.56481,2.33384 -1.07136,1.44911 -0.11599,2.0007 2.0395,1.17751 z m -1.07445,-1.16368 c -0.0881,-0.14253 -0.0167,-0.73784 0.15855,-1.32292 0.25419,-0.84839 0.44416,-1.06377 0.9383,-1.06377 0.50039,0 0.61888,0.13997 0.61596,0.7276 -0.007,1.34908 -0.28491,1.91823 -0.93767,1.91823 -0.33824,0 -0.68706,-0.11661 -0.77514,-0.25914 z m 16.18488,-0.23944 c 0.21194,-0.62699 0.32539,-1.19994 0.25209,-1.27323 -0.23143,-0.23144 -0.69763,0.19766 -0.69763,0.64211 0,0.23462 -0.19025,0.63681 -0.42279,0.89376 -0.42844,0.47342 -0.28357,1.13285 0.21255,0.96748 0.14874,-0.0496 0.44384,-0.60313 0.65578,-1.23012 z m -37.90436,-2.95054 c 0.5146,-0.16212 0.88982,-0.14711 1.12111,0.0448 0.58568,0.48608 1.14779,0.0534 1.15218,-0.88686 0.005,-1.15464 0.255,-1.48886 1.26242,-1.69035 0.72222,-0.14444 0.87728,-0.0785 1.08006,0.45904 0.14482,0.38394 0.13613,0.81949 -0.0224,1.12158 -0.18826,0.3588 -0.15047,0.60257 0.13817,0.8912 0.51529,0.5153 0.86971,0.27716 1.06876,-0.71812 0.20406,-1.02028 0.66388,-1.0227 1.04782,-0.005 0.42172,1.11725 1.23147,1.0752 1.2739,-0.0662 0.039,-1.04817 0.006,-1.71143 -0.12729,-2.57969 -0.0559,-0.3638 -0.11692,-0.9665 -0.1355,-1.33934 -0.0325,-0.65246 -0.0958,-0.67758 -1.68741,-0.66982 -1.33516,0.006 -1.73849,0.11158 -2.09419,0.54558 l -0.44054,0.53754 -0.63485,-0.59531 c -0.34916,-0.32743 -0.94756,-0.59532 -1.32977,-0.59532 -0.8756,0 -1.23038,-0.51604 -0.48821,-0.71012 0.52319,-0.13682 0.68251,-0.41495 0.56996,-0.995 -0.0267,-0.13745 0.0935,-0.51523 0.26705,-0.83951 0.19785,-0.36969 0.23697,-0.86858 0.10488,-1.33759 -0.11587,-0.41139 -0.23525,-0.83728 -0.26531,-0.94642 -0.03,-0.10914 -0.0713,-0.34727 -0.0916,-0.52917 -0.0203,-0.1819 -0.18748,-0.0331 -0.37143,0.33073 -0.29955,0.59241 -0.50673,0.66503 -1.9846,0.69566 -0.90758,0.0188 -1.71484,-0.0705 -1.79392,-0.19843 -0.54068,-0.87484 -1.03618,0.42299 -0.93529,2.44972 0.0766,1.53913 -0.11838,1.8856 -1.10204,1.95807 -0.26339,0.0194 -0.5404,-0.0643 -0.61558,-0.18591 -0.0752,-0.12166 -0.30042,-0.22119 -0.50051,-0.22119 -0.28326,0 -0.35087,0.46927 -0.3054,2.11981 l 0.0584,2.11981 -0.93575,0.25996 c -0.51466,0.14298 -1.08231,0.26063 -1.26144,0.26144 -0.33679,0.001 -0.77222,1.24072 -0.52339,1.48955 0.0773,0.0773 0.81028,-0.0301 1.6289,-0.23857 1.4126,-0.35978 1.54348,-0.34961 2.57047,0.1997 1.1156,0.59669 2.07303,0.56646 4.30235,-0.13586 z m -0.81316,-1.57793 c -0.14804,-0.74018 -0.88635,-1.15398 -0.88635,-0.49677 0,0.20519 -0.12268,0.19518 -0.39688,-0.0324 -0.41969,-0.34831 -0.50641,-0.99419 -0.23014,-1.71414 0.0917,-0.23898 0.74251,-0.71227 1.44623,-1.05175 1.05624,-0.50955 1.33105,-0.55514 1.57492,-0.26129 0.1763,0.21243 0.21282,0.60112 0.0906,0.96397 -0.11267,0.3344 -0.17455,0.81636 -0.13752,1.07103 0.037,0.25466 -0.089,0.46484 -0.28002,0.46707 -0.26234,0.003 -0.2539,0.0632 0.0345,0.24563 0.30912,0.19559 0.3228,0.37115 0.0718,0.92199 -0.42332,0.92909 -1.09035,0.87035 -1.28709,-0.11334 z m 37.59308,2.14489 c 0.0803,-0.12999 -0.14243,-0.30877 -0.49505,-0.39727 -0.35262,-0.0885 -0.82805,-0.34783 -1.0565,-0.57629 -0.22846,-0.22846 -0.41538,-0.29645 -0.41538,-0.1511 0,0.28965 1.26545,1.36102 1.60757,1.36102 0.1173,0 0.27902,-0.10636 0.35936,-0.23636 z m 5.17682,-0.68968 c 0,-0.21828 -0.11533,-0.39687 -0.25628,-0.39687 -0.14095,0 -0.18775,0.17859 -0.10398,0.39687 0.0838,0.21828 0.19908,0.39687 0.25628,0.39687 0.0572,0 0.10398,-0.17859 0.10398,-0.39687 z m 0,-2.4002 c 0,-0.83351 -0.33914,-0.9496 -1.98438,-0.67929 -1.27305,0.20916 -1.29646,0.22829 -0.62101,0.50762 0.38605,0.15965 0.76205,0.38691 0.83557,0.50503 0.0735,0.11812 0.5018,0.23973 0.95174,0.27025 0.7103,0.0482 0.81808,-0.0313 0.81808,-0.60361 z m -18.9442,0.25709 c 0.31692,-0.12162 0.35075,-0.27632 0.14463,-0.66146 -0.14798,-0.2765 -0.20533,-0.50272 -0.12745,-0.50272 0.0779,0 -0.10449,-0.24609 -0.40527,-0.54687 -0.59876,-0.59877 -1.136,-0.39338 -1.37648,0.52625 -0.1636,0.62558 0.0641,0.98289 0.73273,1.14994 0.29104,0.0727 0.54919,0.14602 0.57367,0.1629 0.0245,0.0169 0.23066,-0.0407 0.45817,-0.12804 z m 1.83473,-0.96574 c -0.0896,-0.47295 -0.27428,-1.00208 -0.4104,-1.17586 -0.13612,-0.17378 -0.41546,-1.11876 -0.62075,-2.09996 -0.34657,-1.65643 -0.73117,-2.48069 -1.02185,-2.19001 -0.21728,0.21728 1.10231,5.11227 1.4054,5.2133 0.16201,0.054 0.29457,0.32639 0.29457,0.6053 0,0.27892 0.11608,0.50712 0.25797,0.50712 0.14807,0 0.18856,-0.36633 0.0951,-0.85989 z m 2.41159,-0.0661 c -0.18467,-0.29104 -0.66255,-1.6305 -1.06195,-2.97657 -0.3994,-1.34606 -0.8198,-2.44739 -0.93423,-2.44739 -0.4906,0 -0.48612,0.6247 0.0183,2.55043 0.75655,2.88842 1.05576,3.47947 1.74032,3.43769 0.50719,-0.031 0.5346,-0.0961 0.23758,-0.56416 z m -10.18137,-0.59532 c -0.008,-0.6894 -0.0284,-0.70125 -0.3884,-0.2256 -0.38268,0.50556 -0.31325,0.95321 0.14785,0.95321 0.13693,0 0.24518,-0.32742 0.24055,-0.72761 z m 13.49686,0.0598 c -0.18408,-0.22179 -0.38917,-0.34878 -0.45577,-0.28218 -0.18348,0.18349 0.18932,0.68545 0.50909,0.68545 0.17544,0 0.15537,-0.15181 -0.0533,-0.40327 z m 3.39149,-0.37308 c 0.0325,-0.427 -0.0612,-0.85075 -0.20831,-0.94166 -0.16109,-0.0996 -0.26746,0.20921 -0.26746,0.77636 0,1.13113 0.3918,1.26726 0.47577,0.1653 z m 1.87418,-0.61271 c -0.0287,-1.03178 -0.0465,-1.05904 -0.21516,-0.33073 -0.10113,0.43656 -0.13383,0.94258 -0.0727,1.12448 0.21067,0.6267 0.31906,0.3278 0.28784,-0.79375 z m 3.45134,-0.0897 c -0.46851,-0.56452 -0.83229,-0.44707 -0.50565,0.16326 0.15794,0.29512 0.40603,0.46311 0.55132,0.37332 0.17037,-0.1053 0.15416,-0.2958 -0.0457,-0.53658 z m 2.66538,-0.24103 c 0,-0.21828 -0.17859,-0.39687 -0.39687,-0.39687 -0.21829,0 -0.39688,0.17859 -0.39688,0.39687 0,0.21828 0.17859,0.39688 0.39688,0.39688 0.21828,0 0.39687,-0.1786 0.39687,-0.39688 z m -11.97898,-0.74255 c -0.18286,-1.12681 -0.94603,-2.95709 -1.14857,-2.75456 -0.17408,0.17409 0.91619,3.6294 1.1452,3.6294 0.0799,0 0.0815,-0.39368 0.003,-0.87484 z m -14.27098,-0.8229 c -0.14221,-0.44869 -0.31322,-1.70877 -0.38001,-2.80017 -0.0668,-1.09141 -0.14481,-2.3118 -0.17335,-2.71198 -0.0285,-0.40018 -0.17095,-0.72389 -0.31647,-0.71935 -0.34274,0.0107 -0.87643,2.95079 -0.65185,3.59101 0.1631,0.46497 0.0326,1.38798 -0.37664,2.66307 -0.19698,0.61381 0.0871,0.76634 1.46039,0.78417 0.65842,0.009 0.68236,-0.0356 0.43793,-0.80675 z m 3.49579,-0.27102 c 0,-0.9336 -0.35693,-1.43439 -0.66595,-0.93438 -0.0953,0.15427 -0.042,0.43878 0.11857,0.63224 0.16056,0.19346 0.2176,0.54543 0.12676,0.78216 -0.0912,0.23775 -0.0341,0.43041 0.12773,0.43041 0.16109,0 0.29289,-0.40969 0.29289,-0.91043 z m -12.83229,0.37865 c 0.74236,-0.19135 0.75612,-0.21678 0.21261,-0.39273 -0.31963,-0.10347 -0.61819,-0.3805 -0.66347,-0.61563 -0.0686,-0.35617 -0.17667,-0.32624 -0.64771,0.17936 -0.35741,0.38364 -0.63005,0.50221 -0.74121,0.32236 -0.29814,-0.4824 -0.63201,-0.31426 -0.48584,0.24467 0.14819,0.56669 0.84073,0.6447 2.32562,0.26197 z m 32.94063,-1.1724 c 0,-0.54348 -0.54776,-0.81052 -0.80588,-0.39287 -0.11965,0.1936 -0.15884,0.44698 -0.0871,0.56306 0.22236,0.35979 0.89297,0.23198 0.89297,-0.17019 z m -10.45105,-1.47082 c -0.0899,-0.14552 -0.28258,-0.26458 -0.4281,-0.26458 -0.14552,0 -0.191,0.11906 -0.10106,0.26458 0.0899,0.14552 0.28258,0.26458 0.4281,0.26458 0.14552,0 0.191,-0.11906 0.10106,-0.26458 z m 12.94165,-1.24012 c -0.57824,-0.42282 -0.65964,-0.35302 -0.46342,0.39736 0.1265,0.48374 0.22372,0.53157 0.54257,0.26694 0.33829,-0.28075 0.32807,-0.36653 -0.0791,-0.6643 z m -12.0156,0.18179 c 0,-0.14552 -0.20836,-0.26276 -0.46303,-0.26053 -0.39569,0.003 -0.40531,0.0413 -0.0661,0.26053 0.49932,0.32268 0.52917,0.32268 0.52917,0 z m -4.4864,-1.09141 c -0.0664,-0.20009 -0.16549,-1.16747 -0.22015,-2.14974 -0.0878,-1.57836 -0.16107,-1.78594 -0.63018,-1.78594 -0.4926,0 -0.52501,0.14757 -0.4504,2.05052 0.0601,1.53337 0.18278,2.09562 0.48636,2.22933 0.56906,0.25063 0.95735,0.0865 0.81437,-0.34417 z m -9.17099,-7.78588 c 0.0904,-0.23546 0.046,-0.34166 -0.10398,-0.24897 -0.14385,0.0889 -0.26155,0.27369 -0.26155,0.41062 0,0.38059 0.18964,0.29672 0.36553,-0.16165 z m -56.18935,33.4856 c -0.53511,-0.33072 -0.0984,-0.72166 1.3399,-1.19938 1.43031,-0.47507 1.85157,-0.37087 1.3993,0.34613 -0.34109,0.54073 -2.27177,1.14213 -2.7392,0.85325 z"
       id="path5" />
  </g>
</svg>
