<?xml version="1.0" encoding="UTF-8" standalone="no"?>
<!-- Created with Inkscape (http://www.inkscape.org/) -->

<svg
   width="69.197464mm"
   height="53.882233mm"
   viewBox="0 0 69.197462 53.882234"
   version="1.1"
   id="svg1"
   inkscape:version="1.4.1-rc (06eac75fbf, 2025-03-29)"
   sodipodi:docname="city10.svg"
   xmlns:inkscape="http://www.inkscape.org/namespaces/inkscape"
   xmlns:sodipodi="http://sodipodi.sourceforge.net/DTD/sodipodi-0.dtd"
   xmlns="http://www.w3.org/2000/svg"
   xmlns:svg="http://www.w3.org/2000/svg">
  <sodipodi:namedview
     id="namedview1"
     pagecolor="#ffffff"
     bordercolor="#000000"
     borderopacity="0.25"
     inkscape:showpageshadow="2"
     inkscape:pageopacity="0.0"
     inkscape:pagecheckerboard="0"
     inkscape:deskcolor="#d1d1d1"
     inkscape:document-units="mm"
     inkscape:zoom="0.72248176"
     inkscape:cx="131.49121"
     inkscape:cy="101.73267"
     inkscape:window-width="1850"
     inkscape:window-height="1016"
     inkscape:window-x="0"
     inkscape:window-y="0"
     inkscape:window-maximized="1"
     inkscape:current-layer="layer1" />
  <defs
     id="defs1" />
  <g
     inkscape:label="Layer 1"
     inkscape:groupmode="layer"
     id="layer1"
     transform="translate(-70.379171,-121.44406)">
    <path
       style="fill:#000000"
       d="m 106.79109,175.27707 c -0.0628,-0.0628 -0.61541,-0.13388 -1.22796,-0.15789 -0.61254,-0.024 -1.17833,-0.14819 -1.25731,-0.27599 -0.2351,-0.38039 0.45207,-1.01748 0.85453,-0.79226 0.20034,0.11212 1.46255,0.1161 2.8049,0.009 1.34235,-0.10725 2.49739,-0.13825 2.56676,-0.0689 0.25838,0.25838 -1.16508,1.01043 -2.07444,1.09598 -0.51838,0.0488 -1.0797,0.13722 -1.24737,0.19655 -0.16767,0.0593 -0.35627,0.0565 -0.41911,-0.006 z m 7.07889,-0.73903 c -0.44426,-0.32484 -0.32774,-0.38968 1.17636,-0.65463 1.7445,-0.30729 2.12601,-0.24608 2.12601,0.34105 0,0.72592 -2.42372,0.95607 -3.30237,0.31358 z m 4.20808,-1.7232 c 0.12181,-0.19709 -0.0756,-0.23861 -0.61824,-0.13008 -0.43844,0.0877 -1.10971,0.081 -1.49171,-0.0149 -0.57551,-0.14444 -0.63915,-0.24105 -0.37135,-0.56373 0.25716,-0.30986 0.78642,-0.3597 2.59071,-0.24396 2.35923,0.15135 2.68766,0.24266 2.27454,0.63236 -0.39233,0.37008 -2.59785,0.66641 -2.38395,0.3203 z m -42.60548,-1.40096 c -0.22396,-0.36238 -0.12052,-0.41243 1.28467,-0.62161 0.85889,-0.12785 1.25677,-0.0938 1.25677,0.10755 0,0.16204 -0.0893,0.29746 -0.19844,0.30093 -0.10914,0.003 -0.64555,0.11014 -1.19203,0.23704 -0.6131,0.14237 -1.05387,0.13321 -1.15097,-0.0239 z m 5.78206,-0.0194 c 0.0603,-0.18104 0.53036,-0.55067 1.04447,-0.8214 0.79987,-0.42122 0.98042,-0.69631 1.25123,-1.90643 0.17406,-0.77781 0.58678,-1.8125 0.91715,-2.29933 0.61856,-0.9115 1.21945,-2.39401 1.21945,-3.00862 0,-0.25653 -0.22686,-0.21576 -0.8599,0.15454 -0.62187,0.36377 -1.57672,0.54154 -3.44951,0.64222 -2.67982,0.14405 -3.48957,-0.004 -4.2655,-0.77995 -0.33954,-0.33953 -0.53117,-0.37871 -0.75544,-0.15445 -0.44868,0.44869 -0.73058,0.36284 -0.53369,-0.16253 0.1571,-0.41919 0.12749,-0.4255 -0.31285,-0.0667 -0.46357,0.37772 -0.47987,0.32863 -0.34768,-1.04714 0.0763,-0.79389 0.27954,-1.49039 0.45169,-1.54777 0.54849,-0.18283 1.3593,-1.21015 1.22707,-1.55474 -0.0701,-0.1828 0.0229,-0.48464 0.20675,-0.67075 0.50129,-0.50743 0.71271,-1.22631 0.41479,-1.41043 -0.53709,-0.33194 0.24553,-4.88108 0.83973,-4.88108 0.1233,0 0.15565,-0.1786 0.0719,-0.39688 -0.0838,-0.21828 -0.0304,-0.39687 0.11855,-0.39687 0.14896,0 0.31595,0.13532 0.37108,0.30071 0.0551,0.16539 0.33294,-0.043 0.61736,-0.46302 0.43434,-0.64148 0.50683,-1.15057 0.4528,-3.18024 -0.0463,-1.73989 0.0331,-2.49739 0.28371,-2.70536 0.37423,-0.31058 1.96621,-0.20671 2.32459,0.15168 0.11988,0.11988 0.23543,1.24302 0.25677,2.49586 0.0523,3.07169 0.18717,3.2175 1.65397,1.78842 1.09841,-1.07017 1.18949,-1.25767 1.10628,-2.2775 -0.10892,-1.33492 0.36655,-1.91916 1.02556,-1.26016 0.2337,0.2337 0.4249,0.53546 0.4249,0.67059 0,0.13513 0.29766,0.24568 0.66146,0.24568 0.42503,0 0.66146,0.14867 0.66146,0.41591 0,0.61721 1.32162,2.75909 1.70246,2.75909 0.1811,0 0.47065,-0.3103 0.64346,-0.68956 0.28115,-0.61708 0.41485,-0.67068 1.27177,-0.50992 0.52668,0.0988 1.21021,0.34517 1.51898,0.54748 0.48227,0.31599 0.72849,0.31067 1.74725,-0.0378 0.65223,-0.22309 1.29898,-0.51633 1.43723,-0.65167 0.37351,-0.36564 1.1274,-0.29775 1.2861,0.11582 0.18455,0.48094 1.50525,0.73643 1.50525,0.2912 0,-0.18253 -0.18418,-0.40255 -0.40929,-0.48894 -0.2251,-0.0864 -0.38346,-0.30748 -0.35191,-0.49132 0.0316,-0.18385 -0.0247,-0.87006 -0.12504,-1.5249 -0.10033,-0.65484 -0.20986,-1.8452 -0.2434,-2.64523 l -0.061,-1.45461 -1.05834,0.0902 c -0.58208,0.0496 -1.10362,0.13432 -1.15898,0.18825 -0.0554,0.0539 -0.13116,0.54884 -0.16846,1.09982 -0.0373,0.55098 -0.14999,1.20084 -0.25045,1.44413 -0.10046,0.24329 -0.0627,0.66642 0.0838,0.94029 0.33779,0.63117 -0.008,1.2117 -0.64767,1.08845 -0.42469,-0.0818 -0.488,-0.34371 -0.46997,-1.94427 0.0277,-2.46469 0.25823,-3.86938 0.67863,-4.13602 0.45811,-0.29055 0.81011,-0.28624 0.62845,0.008 -0.20581,0.33302 1.47583,0.54427 2.02908,0.2549 0.25295,-0.1323 0.53553,-0.54186 0.62796,-0.91014 0.11153,-0.44438 0.29785,-0.6198 0.55393,-0.52153 0.21223,0.0814 0.43566,0.14807 0.49652,0.14807 0.0609,0 0.11065,0.22539 0.11065,0.50086 0,0.61239 0.73214,0.93799 1.21257,0.53926 0.56204,-0.46645 0.95479,-0.0212 0.76072,0.86247 -0.29098,1.32481 -0.35475,6.1277 -0.088,6.62616 0.30038,0.56127 0.84722,0.60336 1.26703,0.0975 0.16869,-0.20325 0.54296,-0.30777 0.83172,-0.23226 0.4166,0.10894 0.46144,0.21389 0.21715,0.50824 -0.52319,0.6304 -0.0728,0.68003 0.99202,0.10931 0.55916,-0.29969 1.16724,-0.54489 1.35129,-0.54489 0.18406,0 0.33465,-0.1786 0.33465,-0.39688 0,-0.6816 0.62993,-0.43638 1.41882,0.55234 0.91403,1.14554 1.31145,0.91185 1.24033,-0.72934 -0.0273,-0.63025 -0.0435,-1.40508 -0.0361,-1.72183 0.0143,-0.60372 1.46893,-3.26585 1.94991,-3.56844 0.31187,-0.1962 1.26702,-0.13886 1.65589,0.0994 0.27582,0.169 1.4554,0.30505 1.77475,0.20469 0.63059,-0.19817 1.79779,-0.0824 1.9018,0.18868 0.18597,0.48462 -0.83896,0.73578 -3.01406,0.7386 l -1.97215,0.003 -0.20824,1.05833 c -0.11453,0.58209 -0.36302,1.35599 -0.55219,1.71979 -0.18917,0.36381 -0.323,1.25678 -0.2974,1.98438 0.0256,0.7276 -0.06,1.5256 -0.1902,1.77333 -0.16325,0.31059 -0.0717,0.7443 0.29498,1.39711 0.29245,0.52068 0.53173,1.06214 0.53173,1.20323 0,0.57381 -0.78456,0.19434 -1.65773,-0.8018 -0.51023,-0.58208 -1.03058,-1.05816 -1.15634,-1.05796 -0.12575,2e-4 -0.76442,0.47916 -1.41927,1.06435 -3.49109,3.11978 -5.04675,4.25636 -5.58985,4.08399 -0.50926,-0.16163 -0.69627,0.25227 -0.24109,0.53358 0.16063,0.0993 0.14949,0.42214 -0.0302,0.87552 -0.40092,1.01147 -0.3106,2.51428 0.17234,2.86741 0.46074,0.3369 2.61202,0.2058 3.47402,-0.21171 0.31416,-0.15217 1.41089,-0.21518 2.47961,-0.14247 2.6686,0.18157 3.96853,-0.0206 3.96853,-0.61716 0,-0.25976 -0.12426,-0.5137 -0.27614,-0.56433 -0.15188,-0.0506 -0.0202,-0.3668 0.29268,-0.7026 0.4923,-0.52843 0.54511,-0.80033 0.39257,-2.02125 -0.11185,-0.89523 -0.0738,-1.47403 0.10419,-1.58402 0.15425,-0.0953 0.28045,-0.39169 0.28045,-0.65857 0,-1.04479 1.37897,-0.83102 2.10139,0.32575 0.30148,0.48276 0.27291,0.51093 -0.3577,0.35266 -0.61102,-0.15336 -0.68758,-0.0926 -0.70587,0.56063 -0.1105,3.94668 -0.0767,13.67242 0.0483,13.8745 0.088,0.14237 0.56427,0.22026 1.05833,0.17308 0.72729,-0.0694 0.88283,-0.1865 0.81705,-0.61494 -0.0447,-0.29104 -0.12418,-1.74974 -0.17667,-3.24156 -0.0944,-2.68253 -0.0884,-2.71417 0.54426,-2.87296 0.44014,-0.11047 0.6397,-0.34682 0.6397,-0.75765 0,-0.3284 0.2366,-0.89788 0.52577,-1.26551 0.47936,-0.60939 0.71248,-0.67114 2.64025,-0.6993 2.03852,-0.0298 2.12036,-0.007 2.27832,0.62192 0.0901,0.35905 0.56013,0.88663 1.04448,1.1724 0.67198,0.39648 0.84659,0.6498 0.73692,1.06915 -0.079,0.30225 -0.026,0.54955 0.11792,0.54955 0.33014,0 0.66779,-1.76015 0.74515,-3.88442 0.0328,-0.8995 0.13385,-1.75565 0.22464,-1.90255 0.10533,-0.17043 -0.17223,-0.21236 -0.7669,-0.11586 -0.79349,0.12877 -0.93197,0.0762 -0.93197,-0.35368 0,-0.2777 0.18549,-0.76974 0.4122,-1.09341 0.22672,-0.32368 0.34646,-0.69488 0.26611,-0.8249 -0.0804,-0.13002 0.0616,-0.3169 0.3154,-0.41531 0.42665,-0.1654 0.42154,-0.20831 -0.0677,-0.56828 -0.29104,-0.21415 -0.52916,-0.53144 -0.52916,-0.70508 0,-0.43711 -0.94959,-0.58067 -1.19666,-0.18092 -0.15555,0.25169 -0.39889,0.25768 -1.06306,0.0261 -0.65814,-0.22943 -0.95286,-0.22429 -1.24936,0.0218 -0.31505,0.26147 -0.48098,0.20725 -0.88224,-0.28828 -0.27182,-0.33568 -0.64513,-0.55727 -0.82957,-0.49243 -0.18445,0.0648 -0.59403,0.0224 -0.91018,-0.0944 -0.70175,-0.25912 -1.19592,0.23861 -1.1174,1.12544 0.13142,1.48422 -0.0487,1.77369 -0.80562,1.29476 -0.26022,-0.16464 -0.36088,-0.63312 -0.31724,-1.47635 0.0788,-1.52233 0.47405,-2.19498 1.34977,-2.2971 0.50737,-0.0592 0.68008,-0.24002 0.70642,-0.73977 0.0192,-0.3638 0.12138,-0.98888 0.22712,-1.38906 0.1323,-0.50069 0.0918,-0.72761 -0.12996,-0.72761 -0.22663,0 -0.27101,-0.29431 -0.14959,-0.99218 0.0949,-0.54571 0.16703,-1.34938 0.16021,-1.78594 -0.007,-0.43656 0.12725,-1.06164 0.29792,-1.38906 0.24212,-0.4645 0.23358,-0.73869 -0.0389,-1.24775 -0.28316,-0.52909 -0.28549,-0.72918 -0.0123,-1.05834 0.18527,-0.22324 0.21766,-0.40589 0.072,-0.40589 -0.43312,0 -0.7957,-1.33992 -0.85916,-3.175 -0.0721,-2.08587 -0.16803,-5.36325 -0.22303,-7.62239 -0.0226,-0.92677 -0.14787,-1.60299 -0.28172,-1.52026 -0.13259,0.0819 -0.2152,0.65452 -0.18358,1.27238 0.0316,0.61787 -0.0487,1.26701 -0.17857,1.44253 -0.12984,0.17553 -0.14459,0.46717 -0.0328,0.6481 0.3655,0.59139 0.26785,1.58311 -0.17946,1.8225 -0.24083,0.1289 -0.51307,0.15917 -0.60496,0.0673 -0.0919,-0.0919 -0.16708,-0.0409 -0.16708,0.1133 0,0.1542 0.17726,0.34839 0.39391,0.43153 0.30138,0.11565 0.33557,0.30462 0.14555,0.80443 -0.14174,0.3728 -0.14786,0.68923 -0.0142,0.73704 0.12877,0.0461 0.0789,0.82354 -0.11072,1.72769 -0.18966,0.90415 -0.29678,1.91618 -0.23803,2.24895 0.13328,0.75499 -0.89726,2.50364 -1.26107,2.13983 -0.33645,-0.33645 -0.0185,-1.1379 0.45145,-1.1379 0.20271,0 0.36856,-0.11906 0.36856,-0.26459 0,-0.14552 -0.17859,-0.26458 -0.39687,-0.26458 -0.40641,0 -0.57738,-1.3188 -0.21761,-1.67857 0.19398,-0.19398 0.42187,-2.53936 0.35107,-3.6131 -0.0872,-1.32304 -0.066,-1.76013 0.19708,-4.04737 0.14722,-1.28017 0.33384,-2.39374 0.4147,-2.4746 0.0809,-0.0809 0.033,-0.44692 -0.10636,-0.81346 -0.16964,-0.44617 -0.15937,-0.7797 0.031,-1.00915 0.15644,-0.1885 0.32402,-0.68003 0.3724,-1.0923 0.0484,-0.41227 0.10153,-0.8459 0.11813,-0.96363 0.0166,-0.11773 0.141,-0.14555 0.27647,-0.0618 0.13546,0.0837 0.32108,0.0312 0.41249,-0.11667 0.0914,-0.1479 0.0268,-0.2689 -0.14346,-0.2689 -0.21183,0 -0.25358,-0.29886 -0.13215,-0.9461 0.10948,-0.5836 0.06,-1.08765 -0.12913,-1.31554 -0.23638,-0.28483 -0.21402,-0.46203 0.0976,-0.77369 0.68777,-0.68778 1.20312,-0.49992 1.17671,0.42893 -0.021,0.73903 0.36987,1.30207 1.11401,1.60467 0.10237,0.0416 0.26634,0.40311 0.36439,0.80329 0.1354,0.55266 0.0816,0.7276 -0.22365,0.7276 -0.50791,0 -0.52193,0.62936 -0.0232,1.04324 0.49288,0.40906 0.45922,1.87121 -0.0567,2.46249 -0.36402,0.4172 -0.36067,0.46302 0.0339,0.46302 0.24084,0 0.44358,0.14883 0.45055,0.33073 0.0502,1.31031 0.30333,3.38186 0.50092,4.09897 0.14812,0.53755 0.13985,0.91746 -0.0222,1.01758 -0.14829,0.0916 -0.0746,0.29427 0.17287,0.47521 0.29131,0.21301 0.51146,0.99947 0.678,2.422 0.43281,3.69703 0.49571,4.11871 0.6522,4.3719 0.22486,0.36384 0.63369,0.30363 1.09922,-0.16189 0.51307,-0.51308 1.27089,-0.39074 1.27497,0.20582 0.002,0.24669 0.16798,0.60193 0.36955,0.78942 0.30161,0.28056 0.32851,0.2744 0.15196,-0.0348 -0.15932,-0.27903 -0.10123,-0.33222 0.22577,-0.20674 0.24215,0.0929 0.44027,0.0536 0.44027,-0.0873 0,-0.14096 0.18279,-0.25628 0.40619,-0.25628 0.3185,0 0.34752,0.10962 0.1344,0.50782 -0.19208,0.35891 -0.18442,0.53694 0.0261,0.60712 0.20499,0.0683 0.1837,0.21941 -0.0683,0.48437 -0.20139,0.21178 -0.39582,0.98038 -0.43207,1.70798 -0.0362,0.7276 -0.10114,1.97776 -0.14422,2.77812 -0.10106,1.87766 0.0481,2.64584 0.51386,2.64584 0.20588,0 0.44287,0.17859 0.52663,0.39687 0.23643,0.61615 0.67859,0.47207 1.66427,-0.54229 0.49892,-0.51344 1.09286,-0.89775 1.31987,-0.85404 0.65302,0.12576 0.67233,1.03804 0.0322,1.52089 -0.60481,0.45622 -0.87334,1.5841 -0.51513,2.16369 0.16314,0.26396 0.25203,0.23801 0.38667,-0.11285 0.0962,-0.25058 0.40022,-0.45561 0.67569,-0.45561 0.62252,0 0.65971,0.77742 0.0899,1.8793 l -0.41094,0.79468 0.74167,-0.37872 c 0.4268,-0.21793 1.11919,-0.32165 1.63088,-0.24432 0.58839,0.0889 0.9697,0.0109 1.12712,-0.23067 0.29993,-0.46025 0.0538,-1.54702 -0.48595,-2.14603 -0.33576,-0.37259 -0.35056,-0.53304 -0.0793,-0.8599 0.36035,-0.43419 1.47114,-0.54624 1.70259,-0.17174 0.21156,0.34231 2.32581,-0.11542 2.66298,-0.57653 0.28015,-0.38312 0.73787,-0.5454 1.35012,-0.47866 0.45279,0.0494 0.20847,5.83318 -0.26867,6.36041 -0.36826,0.40692 -0.41582,0.53036 -0.41582,1.07927 0,0.14552 -0.14996,0.26458 -0.33323,0.26458 -0.4131,0 -1.02532,0.93454 -0.77568,1.18406 0.10058,0.10052 0.2091,0.44078 0.24117,0.75613 0.15407,1.51504 0.62711,3.14523 1.39479,4.80669 0.26895,0.58208 0.56392,1.40013 0.65549,1.81789 0.21717,0.99075 0.7732,1.52332 1.81227,1.73583 2.17828,0.44551 0.0114,1.59271 -2.81566,1.49066 -1.17128,-0.0423 -1.78364,0.0422 -1.86625,0.2575 -0.17027,0.44372 -1.65883,0.62196 -2.79291,0.33443 -1.4792,-0.37504 -3.96706,-0.29395 -6.23562,0.20323 -1.51805,0.3327 -4.88999,0.39935 -5.43544,0.10743 -0.29664,-0.15875 -1.27862,-0.29647 -2.18216,-0.30603 -0.90355,-0.01 -1.78593,-0.13165 -1.96085,-0.27133 -0.17491,-0.13968 -0.55185,-0.17975 -0.83763,-0.089 -0.28577,0.0907 -0.59617,0.041 -0.68977,-0.11044 -0.0936,-0.15144 -0.30205,-0.27534 -0.46323,-0.27534 -0.16119,0 -0.21054,0.0825 -0.10968,0.18339 0.36946,0.36945 -2.50271,0.89256 -3.45579,0.6294 -0.50172,-0.13853 -1.07262,-0.19032 -1.26868,-0.11508 -0.19605,0.0752 -0.61826,-0.003 -0.93823,-0.17457 -0.35533,-0.19017 -0.5149,-0.20316 -0.40997,-0.0334 0.18367,0.29718 -5.14703,0.22673 -5.63438,-0.0745 -0.14181,-0.0876 -0.33281,-0.038 -0.42444,0.11023 -0.16663,0.26961 -1.76996,0.22086 -5.16162,-0.15693 -0.94589,-0.10536 -1.89839,-0.18144 -2.11667,-0.16906 -0.21828,0.0124 -1.52797,0.0806 -2.91042,0.15162 -1.38244,0.071 -2.57307,0.15738 -2.64583,0.19195 -0.0728,0.0346 -0.54901,0.0993 -1.05833,0.14395 -1.82072,0.15947 -3.18069,0.43101 -3.32457,0.6638 -0.2381,0.38526 -2.82489,0.29646 -2.69523,-0.0925 z m 19.64584,-1.25834 c -0.0775,-0.12541 -0.0199,-0.30281 0.12798,-0.39421 0.14789,-0.0914 0.26889,-0.0401 0.26889,0.11401 0,0.15411 0.17486,0.2802 0.38858,0.2802 0.25371,0 0.32993,-0.1528 0.21962,-0.44028 -0.0987,-0.2573 -0.0609,-0.37353 0.0909,-0.27967 0.14294,0.0883 1.91934,0.19043 3.94757,0.22688 l 3.68769,0.0663 0.0649,-0.64649 c 0.0357,-0.35556 0.11398,-1.26217 0.17399,-2.01468 0.06,-0.75251 0.18765,-1.61572 0.28366,-1.91823 0.14435,-0.4548 0.0624,-0.55003 -0.47352,-0.55003 -0.58007,0 -0.64967,0.11402 -0.66309,1.08623 -0.0169,1.22088 -0.044,1.27267 -0.73919,1.41052 -0.27435,0.0544 -0.67131,0.13996 -0.88212,0.19014 -0.26196,0.0623 -0.46089,-0.25804 -0.62845,-1.01213 -0.22032,-0.99158 -0.17943,-1.16909 0.40354,-1.75207 0.95856,-0.95856 1.57694,-1.21689 2.27885,-0.952 0.33677,0.1271 0.5381,0.35115 0.44741,0.4979 -0.0907,0.14675 -0.0516,0.26682 0.087,0.26682 0.37908,0 0.51789,-0.56194 0.3758,-1.52135 -0.13636,-0.9207 -0.12733,-0.91267 -1.12563,-1.00174 -0.3638,-0.0325 -1.45067,-0.14342 -2.41526,-0.24658 -1.37241,-0.14677 -1.93302,-0.0949 -2.57789,0.23859 -1.59924,0.82699 -2.11105,0.94533 -2.48243,0.57395 -0.19235,-0.19235 -0.92473,-0.60408 -1.62751,-0.91495 -1.11979,-0.49534 -1.26212,-0.64715 -1.15112,-1.22782 0.16494,-0.86282 -0.22125,-0.86383 -0.43777,-0.001 -0.12197,0.48598 -0.34236,0.66146 -0.83074,0.66146 -0.79066,0 -1.11187,0.63183 -0.62155,1.22263 0.29547,0.35602 0.2768,0.47591 -0.11923,0.76549 -0.37062,0.271 -0.46947,0.72496 -0.46908,2.15418 4.7e-4,1.72099 -0.0447,1.85349 -0.91012,2.67072 -0.90795,0.85739 -2.03504,1.12853 -2.37884,0.57226 -0.19816,-0.32063 0.25714,-0.88112 0.75202,-0.92576 0.17631,-0.0159 0.52893,-0.047 0.78359,-0.0692 0.25466,-0.0222 0.46302,-0.15123 0.46302,-0.28682 0,-0.13559 -0.56555,-0.19696 -1.25677,-0.13638 -0.69123,0.0606 -1.43437,-0.002 -1.65144,-0.13933 -0.66239,-0.41873 0.0906,-0.87124 1.40583,-0.84484 0.96243,0.0193 1.20658,-0.0725 1.31713,-0.49523 0.11982,-0.45821 -0.002,-0.51895 -1.04329,-0.51895 -1.23978,0 -2.74021,0.60283 -2.74021,1.10093 0,0.44949 -1.32368,1.57566 -1.6297,1.38653 -0.31758,-0.19627 -0.11907,-2.22091 0.29329,-2.99142 0.41082,-0.76762 1.29388,-1.3097 1.88269,-1.15573 0.28163,0.0736 0.51205,0.21791 0.51205,0.32057 0,0.24253 2.82709,0.18773 3.07442,-0.0596 0.10382,-0.10383 0.0499,-0.18878 -0.11991,-0.18878 -0.16977,0 -0.30868,-0.18662 -0.30868,-0.4147 0,-0.40183 -0.27195,-0.38709 -1.52135,0.0824 -0.36654,0.13775 -0.4124,-0.55447 -0.0911,-1.3758 0.1756,-0.44892 0.23444,-0.46296 0.44443,-0.10607 0.32386,0.55044 1.61651,0.86077 1.76866,0.42461 0.19647,-0.56321 -0.10265,-0.99157 -0.69504,-0.99534 -0.98402,-0.006 -1.75763,-0.3094 -1.75763,-0.68871 0,-0.36366 0.52471,-0.46599 1.91823,-0.37411 0.40018,0.0264 0.7276,-0.0801 0.7276,-0.23654 0,-0.30559 -0.0508,-0.32693 -1.05833,-0.44462 -1.14718,-0.13401 -1.52244,-0.25029 -1.9483,-0.60372 -0.2278,-0.18905 -0.88843,-0.36811 -1.46808,-0.39791 -0.57964,-0.0298 -1.27437,-0.2537 -1.54385,-0.49757 -0.26947,-0.24387 -0.91753,-0.51135 -1.44012,-0.5944 -0.94276,-0.14983 -0.95094,-0.14292 -1.04914,0.88679 -0.0544,0.57079 -0.0238,1.40552 0.0682,1.85494 0.0919,0.44943 0.1047,0.87957 0.0284,0.95586 -0.0763,0.0763 -0.18869,0.8138 -0.24978,1.63889 -0.0965,1.304 -0.74083,3.0391 -1.90095,5.11929 -0.28154,0.50482 -0.81509,2.19417 -0.81509,2.58077 0,0.35701 1.80915,0.23315 2.61681,-0.17915 0.30701,-0.15672 0.77196,-0.38981 1.03322,-0.51797 0.26718,-0.13106 1.10651,-0.13607 1.91823,-0.0115 0.79376,0.12186 2.09804,0.16817 2.89841,0.10292 2.22625,-0.18152 2.4985,-0.16813 2.59711,0.12769 0.059,0.17706 0.25437,0.18701 0.55134,0.0281 0.26808,-0.14347 1.11451,-0.157 2.02918,-0.0324 0.86308,0.11754 1.72517,0.15426 1.91576,0.0816 0.19832,-0.0756 0.4092,0.10762 0.4931,0.42845 0.0806,0.3083 0.25405,0.49413 0.3854,0.41295 0.13135,-0.0812 0.17541,-0.2502 0.0979,-0.37561 z m -0.48444,-3.12558 c -0.24288,-0.26838 -0.4416,-0.67703 -0.4416,-0.9081 0,-0.23108 -0.14883,-0.4802 -0.33073,-0.55359 -0.1819,-0.0734 -0.0926,-0.14468 0.19844,-0.1584 0.37802,-0.0178 0.43214,-0.0865 0.18947,-0.24047 -0.72583,-0.46055 0.33692,-1.40747 1.66261,-1.4814 0.14552,-0.008 0.26458,0.61753 0.26458,1.39033 0,1.08121 -0.12691,1.52431 -0.55059,1.92233 -0.53454,0.50218 -0.56345,0.50304 -0.99218,0.0293 z m 30.81018,2.59641 c 0.42899,0 0.47028,-0.087 0.24294,-0.51177 -0.15064,-0.28148 -0.27389,-0.70614 -0.27389,-0.9437 0,-0.23755 -0.29918,-0.82417 -0.66485,-1.30358 -0.36566,-0.47941 -0.63355,-1.14696 -0.59531,-1.48345 0.0495,-0.43529 -0.17512,-0.77947 -0.7785,-1.193 -0.74307,-0.50926 -0.80536,-0.63958 -0.50316,-1.05286 0.18968,-0.2594 0.46851,-0.39524 0.61962,-0.30185 0.27274,0.16857 1.04347,-0.52672 0.82549,-0.74469 -0.0626,-0.0626 -0.60263,-0.19196 -1.20012,-0.2875 l -1.08634,-0.17371 0.0642,1.28608 c 0.0353,0.70734 0.0822,1.80597 0.10409,2.44141 0.0335,0.97055 0.11567,1.13551 0.51385,1.03139 0.40924,-0.10702 0.48205,0.0785 0.53298,1.3582 0.0609,1.53029 0.56939,2.30603 1.32218,2.01716 0.19798,-0.076 0.59254,-0.13813 0.8768,-0.13813 z m -7.30699,-0.52917 c 0.46397,-0.51267 0.46213,-0.52916 -0.0589,-0.52916 -0.58439,0 -1.2343,0.60299 -0.95305,0.88424 0.28293,0.28293 0.50511,0.20497 1.01194,-0.35508 z m 2.40881,-0.4575 c -0.26895,-0.26896 -0.49087,0.13596 -0.2702,0.49302 0.1667,0.26972 0.22902,0.26992 0.31864,0.001 0.0613,-0.18383 0.0395,-0.40617 -0.0484,-0.49408 z m -4.64328,-1.15034 c 0.30289,-0.42537 0.7212,-0.77341 0.92957,-0.77341 0.52353,0 0.47384,-0.44638 -0.14668,-1.31782 -0.28905,-0.40593 -0.76636,-1.29985 -1.06068,-1.98648 -0.42373,-0.98853 -0.63104,-1.21073 -0.99582,-1.06733 -0.25337,0.0996 -0.99033,0.36281 -1.6377,0.58491 -2.14084,0.73447 -2.29237,0.92216 -2.22605,2.75722 0.0641,1.77404 0.37075,2.3636 0.97045,1.86589 0.28504,-0.23656 0.46216,-0.20124 0.78617,0.15674 0.26534,0.29315 0.8591,0.47883 1.62413,0.50789 1.05621,0.0401 1.27425,-0.0502 1.75661,-0.72761 z m -2.39574,-0.6255 c 0,-0.20969 0.10557,-0.44651 0.23461,-0.52625 0.29134,-0.18006 0.88431,0.49415 0.64504,0.73342 -0.31479,0.31479 -0.87965,0.18176 -0.87965,-0.20717 z m -1.52135,-0.47863 c 0.0606,-0.18191 0.26899,-0.33073 0.46302,-0.33073 0.19403,0 0.40239,0.14882 0.46302,0.33073 0.0656,0.19674 -0.122,0.33072 -0.46302,0.33072 -0.34102,0 -0.5286,-0.13398 -0.46302,-0.33072 z m 18.1901,1.65364 c 0,-0.14552 -0.11906,-0.26458 -0.26458,-0.26458 -0.14552,0 -0.26459,0.11906 -0.26459,0.26458 0,0.14552 0.11907,0.26458 0.26459,0.26458 0.14552,0 0.26458,-0.11906 0.26458,-0.26458 z m -1.5875,-0.21401 c 0,-0.11771 -0.17481,-0.44513 -0.38846,-0.72761 -0.38166,-0.50459 -0.38861,-0.50393 -0.39687,0.0376 -0.005,0.30317 0.071,0.63059 0.16797,0.7276 0.244,0.244 0.61736,0.22124 0.61736,-0.0376 z m -9.27901,-4.74693 c -0.0162,-0.63519 -0.0456,-0.6604 -0.23148,-0.19843 -0.11708,0.29104 -0.16122,0.61846 -0.0981,0.7276 0.22412,0.38741 0.3479,0.18865 0.32956,-0.52917 z M 79.71648,161.7905 c 1.89849,-0.99001 5.03419,-0.92633 5.93486,0.12052 0.3169,0.36833 0.34578,0.33053 0.23513,-0.30769 -0.0887,-0.51145 -0.0145,-0.72761 0.24965,-0.72761 0.22041,0 0.29637,-0.12851 0.18371,-0.3108 -0.10564,-0.17094 -0.22532,-0.98848 -0.26595,-1.81676 -0.0647,-1.3185 0.007,-1.57622 0.57536,-2.07045 0.76401,-0.6643 2.36795,-0.74554 3.14316,-0.1592 0.6655,0.50336 2.1165,0.4987 2.62361,-0.008 0.24318,-0.24318 0.89159,-0.39688 1.6743,-0.39688 0.70258,0 1.68916,-0.11809 2.1924,-0.26241 0.73164,-0.20984 0.95926,-0.18333 1.13588,0.13229 0.12149,0.21709 0.34862,0.3947 0.50472,0.3947 0.19346,0 0.18782,-0.11569 -0.0177,-0.36334 -0.46982,-0.5661 -0.0742,-1.17593 1.25994,-1.94219 1.41806,-0.81446 3.09905,-2.19238 2.67457,-2.19238 -0.15917,0 -0.21666,-0.1177 -0.12775,-0.26155 0.094,-0.15207 -0.0169,-0.19306 -0.26476,-0.0979 -0.29156,0.11188 -0.473,-0.0146 -0.57376,-0.39991 -0.081,-0.30994 -0.28231,-0.57595 -0.44724,-0.59113 -0.16493,-0.0152 -0.74554,-0.0555 -1.29024,-0.0896 -0.5447,-0.0341 -1.20931,-0.26018 -1.47691,-0.50235 -0.4584,-0.41484 -0.52752,-0.39435 -1.19449,0.35422 -0.7194,0.8074 -1.23302,1.02166 -1.23302,0.51434 0,-0.15411 -0.12013,-0.20596 -0.26695,-0.11521 -0.3728,0.23039 -1.36123,-0.11847 -1.17758,-0.41563 0.0829,-0.13407 -0.12376,-0.22752 -0.45918,-0.20765 -0.33541,0.0199 -0.78181,-0.0107 -0.992,-0.0679 -0.25077,-0.0683 -0.43519,0.16887 -0.53638,0.68972 -0.11794,0.60706 -0.29254,0.78881 -0.74231,0.77274 -0.47413,-0.0169 -0.5881,0.12408 -0.5881,0.72761 0,0.56463 -0.12621,0.74861 -0.51355,0.74861 -0.28246,0 -0.59155,-0.1262 -0.68688,-0.28044 -0.10938,-0.17699 -0.68419,-0.21662 -1.55811,-0.10743 -0.76163,0.0952 -1.79468,0.0598 -2.29566,-0.0785 -0.72464,-0.20008 -1.09814,-0.15107 -1.82681,0.23972 -1.09203,0.58566 -2.37941,0.65264 -2.37941,0.1238 0,-0.40286 -1.6815,-0.82757 -2.14422,-0.54159 -0.15572,0.0962 -0.22302,0.40484 -0.14955,0.68578 0.0735,0.28094 0.0179,0.89258 -0.12343,1.3592 -0.14135,0.46663 -0.30034,1.55951 -0.35331,2.42864 -0.053,0.86913 -0.22517,1.62319 -0.38269,1.6757 -0.15751,0.0525 -0.28638,0.35555 -0.28638,0.67345 0,0.31789 -0.30317,1.02414 -0.67371,1.56944 l -0.67371,0.99146 0.60756,0.24382 c 0.91148,0.36578 1.84077,0.32088 2.7069,-0.13078 z m 3.85379,-3.89678 c 0,-0.22053 -0.17859,-0.4695 -0.39687,-0.55326 -0.5608,-0.2152 -0.49613,-1.56101 0.10852,-2.25817 0.59822,-0.68976 2.07023,-0.91601 1.89966,-0.29199 -0.0597,0.21829 -0.16199,0.78383 -0.22739,1.25678 -0.0654,0.47294 -0.22493,0.85989 -0.35453,0.85989 -0.1296,0 -0.23564,0.16402 -0.23564,0.36448 0,0.20046 -0.17859,0.5127 -0.39687,0.69385 -0.32309,0.26814 -0.39688,0.25483 -0.39688,-0.0716 z m -3.78324,-0.80414 c -0.28551,-0.22392 -0.3364,-0.4819 -0.17614,-0.89292 0.22535,-0.57799 1.29736,-1.34481 1.33178,-0.95264 0.01,0.11426 0.0591,0.51307 0.109,0.88624 0.11445,0.85541 -0.65395,1.43829 -1.26464,0.95932 z m 14.76765,-2.55064 c -0.19632,-0.61852 0.52742,-2.12989 1.01992,-2.12989 0.19199,0 0.57115,0.2454 0.84258,0.54532 0.42235,0.4667 0.4378,0.58056 0.10715,0.7897 -0.21249,0.13441 -0.46176,0.2462 -0.55393,0.24843 -0.0922,0.002 -0.22985,0.24218 -0.30596,0.53322 -0.17718,0.67756 -0.89619,0.68612 -1.10976,0.0132 z m 5.37015,-3.63354 c 0.19099,-0.0764 0.4192,-0.067 0.50712,0.0209 0.0879,0.0879 -0.0684,0.15045 -0.34727,0.13896 -0.30822,-0.0127 -0.37092,-0.0754 -0.15985,-0.15985 z m 20.61545,10.07505 c -0.0879,-0.0879 -0.31612,-0.0973 -0.50712,-0.0209 -0.21106,0.0845 -0.14837,0.14716 0.15985,0.15986 0.27892,0.0115 0.43519,-0.0511 0.34727,-0.13897 z m 9.59666,-0.6015 c 0,-0.66102 -1.53284,-1.0257 -1.91418,-0.4554 -0.36865,0.55133 -0.19904,0.68759 0.85584,0.68759 0.58209,0 1.05834,-0.10449 1.05834,-0.23219 z m -1.16899,-2.14906 c 0.96806,0 0.7864,-0.71177 -0.22007,-0.86229 -0.85624,-0.12804 -1.24486,0.12772 -1.25272,0.82445 -0.002,0.21928 0.15886,0.29652 0.41446,0.19844 0.23018,-0.0883 0.70643,-0.1606 1.05833,-0.1606 z m 6.19607,-2.38125 c 0,-0.29398 -0.17639,-0.52917 -0.39687,-0.52917 -0.22049,0 -0.39688,0.23519 -0.39688,0.52917 0,0.29398 0.17639,0.52916 0.39688,0.52916 0.22048,0 0.39687,-0.23518 0.39687,-0.52916 z m -35.18958,-0.39688 c 0.35753,-0.43079 0.27201,-0.48464 -0.37524,-0.23627 -0.23018,0.0883 -0.41851,0.26692 -0.41851,0.39687 0,0.36598 0.42872,0.27924 0.79375,-0.1606 z m 35.02422,-1.66628 c 0.0717,-0.11608 0.0435,-0.35169 -0.0627,-0.52355 -0.1371,-0.22184 -0.32317,-0.16061 -0.64141,0.21107 -0.42444,0.4957 -0.4211,0.52355 0.0627,0.52355 0.28103,0 0.56966,-0.095 0.64141,-0.21107 z m -14.82346,-2.31094 c -0.082,-0.21362 -0.25537,-0.3884 -0.38532,-0.3884 -0.27149,0 -0.31923,0.6226 -0.0671,0.87475 0.28225,0.28225 0.61151,-0.0717 0.4524,-0.48635 z m -32.63618,0.19005 c 0,-0.35354 -1.19172,-1.3722 -1.60531,-1.3722 -0.51156,0 -0.96086,0.8644 -0.52485,1.00974 0.15476,0.0516 0.23106,0.17519 0.16957,0.27469 -0.0615,0.0995 0.35449,0.19312 0.9244,0.20807 0.5699,0.0149 1.03619,-0.0392 1.03619,-0.1203 z m -6.05407,-0.51231 c 0.0172,-0.25466 0.012,-0.61185 -0.0116,-0.79375 -0.0236,-0.1819 0.0648,-0.33073 0.19655,-0.33073 0.29198,0 0.0779,-1.27335 -0.24789,-1.47473 -0.12814,-0.0792 -0.24148,0.13092 -0.25185,0.46693 -0.0104,0.33601 -0.0732,1.05741 -0.13971,1.60312 -0.0708,0.58146 -0.008,0.99218 0.15116,0.99218 0.1496,0 0.2861,-0.20835 0.30334,-0.46302 z m 25.89782,-0.95118 c 0,-0.36842 -1.03278,-1.44752 -1.09141,-1.14034 -0.0182,0.0953 -0.0498,0.26259 -0.0702,0.37173 -0.0204,0.10914 -0.12534,0.3371 -0.23316,0.50657 -0.20717,0.32563 0.16219,0.56231 0.93174,0.59702 0.25466,0.0115 0.46302,-0.13925 0.46302,-0.33498 z m 12.6865,-0.28036 c 0.18727,-0.34992 0.2599,-0.76664 0.16139,-0.92604 -0.33455,-0.54131 -0.61884,-0.29261 -0.72727,0.63623 -0.12606,1.07977 0.0852,1.18797 0.56588,0.28981 z m 2.13017,-2.27419 c 0,-0.14552 -0.12609,-0.26458 -0.2802,-0.26458 -0.15411,0 -0.20661,0.11906 -0.11668,0.26458 0.0899,0.14553 0.21603,0.26459 0.2802,0.26459 0.0642,0 0.11668,-0.11906 0.11668,-0.26459 z m -1.75427,-0.59531 c 0.23463,-0.87551 0.20757,-0.99219 -0.23011,-0.99219 -0.26458,0 -0.39687,0.26459 -0.39687,0.79375 0,0.93079 0.39705,1.05646 0.62698,0.19844 z M 81.4536,145.77886 c 0,-0.29963 -0.11386,-0.47441 -0.25302,-0.38841 -0.13917,0.086 -0.18596,0.33117 -0.10399,0.54479 0.20988,0.54692 0.35701,0.48247 0.35701,-0.15638 z m 37.03762,-1.25677 c -0.003,-0.38558 -0.0395,-0.39256 -0.26053,-0.0505 -0.33486,0.51816 -0.33486,0.86842 0,0.66146 0.14552,-0.0899 0.26276,-0.36485 0.26053,-0.61092 z m 2.75664,-0.97771 c 0.47204,-0.35727 0.47451,-0.39236 0.0394,-0.55931 -0.27723,-0.10638 -0.55837,-0.0294 -0.69802,0.19116 -0.51129,0.80748 -0.17228,0.99699 0.65857,0.36815 z m -5.47008,-16.16601 c -0.0879,-0.0879 -0.31612,-0.0973 -0.50712,-0.0209 -0.21106,0.0845 -0.14837,0.14716 0.15985,0.15985 0.27892,0.0115 0.43519,-0.051 0.34727,-0.13896 z m 0.33624,-0.75058 c 0,-0.27926 -0.50776,-0.39658 -0.65879,-0.15222 -0.0914,0.1479 0.0194,0.2689 0.2463,0.2689 0.22687,0 0.41249,-0.0525 0.41249,-0.11668 z M 72.2589,166.63041 c 0.17775,-0.53532 1.4688,-0.88642 1.85167,-0.50356 0.25981,0.25982 0.24592,0.37851 -0.0675,0.57667 -0.59528,0.37635 -1.91543,0.32225 -1.78416,-0.0731 z m -0.58959,-1.62793 c -0.59798,-0.26726 -0.68189,-0.56483 -0.23684,-0.83988 0.46809,-0.2893 5.02663,-0.18513 5.33363,0.12187 0.65609,0.65608 -3.8234,1.28713 -5.09679,0.71801 z m -1.19669,-2.27593 c -0.25027,-0.40494 -0.009,-0.59847 0.85901,-0.68821 0.4011,-0.0415 0.90786,-0.10067 1.12614,-0.13153 0.21828,-0.0309 0.74981,-0.0374 1.18118,-0.0144 0.68827,0.0366 0.73686,0.089 0.39687,0.42825 -0.49945,0.49835 -3.30831,0.81834 -3.5632,0.40593 z m 36.28316,-4.29822 c -0.26325,-0.98232 -0.18783,-2.00613 0.16397,-2.22591 0.49113,-0.30681 0.99219,-0.34004 0.99219,-0.0658 0,0.50513 0.55329,0.21217 0.79375,-0.42028 0.13832,-0.36381 0.425,-0.66146 0.63708,-0.66146 0.57173,0 0.80184,1.0175 0.34834,1.54031 -0.21185,0.24424 -0.46297,0.77148 -0.55805,1.17167 -0.11659,0.4907 -0.34352,0.7276 -0.697,0.7276 -0.28827,0 -0.52412,0.11906 -0.52412,0.26458 0,0.54043 -0.9993,0.25457 -1.15616,-0.33072 z m -3.2925,-0.007 c -0.45868,-0.55267 0.0486,-1.85006 0.67608,-1.72921 0.64554,0.12432 0.70658,0.81516 0.13447,1.5217 -0.42081,0.51967 -0.52859,0.54726 -0.81055,0.20751 z m 15.88823,-1.30813 c -0.15409,-0.18629 -0.21783,-0.66336 -0.14166,-1.06014 0.10675,-0.55604 0.26816,-0.70169 0.70415,-0.63536 0.7498,0.11408 0.85567,0.81272 0.22565,1.48898 -0.40293,0.43249 -0.56592,0.4752 -0.78814,0.20652 z m -7.99999,-9.43022 c 0,-1.99528 0.77382,-3.00142 1.57029,-2.04173 0.20831,0.25098 0.22944,0.5371 0.0635,0.85989 -0.13675,0.26607 -0.35441,0.83979 -0.48367,1.27494 -0.12927,0.43514 -0.44093,0.83083 -0.69259,0.87929 -0.37223,0.0717 -0.45755,-0.10963 -0.45755,-0.97239 z"
       id="path2" />
  </g>
</svg>
