<?xml version="1.0" encoding="UTF-8" standalone="no"?>
<!-- Created with Inkscape (http://www.inkscape.org/) -->

<svg
   width="79.218819mm"
   height="43.057323mm"
   viewBox="0 0 79.218819 43.057324"
   version="1.1"
   id="svg1"
   inkscape:version="1.4.1-rc (06eac75fbf, 2025-03-29)"
   sodipodi:docname="city2.svg"
   xmlns:inkscape="http://www.inkscape.org/namespaces/inkscape"
   xmlns:sodipodi="http://sodipodi.sourceforge.net/DTD/sodipodi-0.dtd"
   xmlns="http://www.w3.org/2000/svg"
   xmlns:svg="http://www.w3.org/2000/svg">
  <sodipodi:namedview
     id="namedview1"
     pagecolor="#ffffff"
     bordercolor="#000000"
     borderopacity="0.25"
     inkscape:showpageshadow="2"
     inkscape:pageopacity="0.0"
     inkscape:pagecheckerboard="0"
     inkscape:deskcolor="#d1d1d1"
     inkscape:document-units="mm"
     inkscape:zoom="0.72248176"
     inkscape:cx="149.48474"
     inkscape:cy="80.970902"
     inkscape:window-width="1850"
     inkscape:window-height="1016"
     inkscape:window-x="0"
     inkscape:window-y="0"
     inkscape:window-maximized="1"
     inkscape:current-layer="layer1" />
  <defs
     id="defs1" />
  <g
     inkscape:label="Layer 1"
     inkscape:groupmode="layer"
     id="layer1"
     transform="translate(-65.352084,-126.99984)">
    <path
       style="fill:#000000"
       d="m 90.72124,169.94107 c -0.0639,-0.0639 -0.4305,-0.1732 -0.81464,-0.24286 -0.90514,-0.16413 -1.80318,-0.6488 -1.80318,-0.97316 0,-0.33507 1.62679,-0.32784 2.51852,0.0112 0.87455,0.3325 1.33191,0.0963 0.87635,-0.45265 -0.2779,-0.33485 -0.23571,-0.48404 0.24749,-0.87532 0.46647,-0.37772 0.78365,-0.42647 1.59246,-0.24474 0.55548,0.12481 1.59919,0.18686 2.31935,0.13788 1.70865,-0.11619 1.70625,-0.11564 1.70625,-0.38927 0,-0.12908 -0.62508,-0.2403 -1.38907,-0.24715 -0.76398,-0.007 -2.45978,-0.13644 -3.76844,-0.28798 -1.30865,-0.15155 -2.67787,-0.20845 -3.04271,-0.12645 -0.36483,0.082 -0.89596,0.14418 -1.1803,0.13819 -0.28433,-0.006 -0.64493,0.0953 -0.80132,0.22509 -0.3494,0.28998 -5.94195,0.24345 -6.1239,-0.0509 -0.18696,-0.30251 -1.51349,0.0669 -1.76522,0.49158 -0.31864,0.53754 -1.18658,0.42876 -1.51785,-0.19023 -0.27364,-0.5113 -0.33437,-0.51997 -0.92604,-0.13229 -0.34826,0.22819 -1.10662,0.41489 -1.68523,0.41489 -0.57862,0 -1.12681,0.121 -1.21822,0.2689 -0.0914,0.14789 -0.29415,0.18981 -0.45055,0.0931 -0.1564,-0.0967 -0.65418,-0.21445 -1.10619,-0.26175 -0.45201,-0.0473 -1.20879,-0.15415 -1.68173,-0.23744 -0.76418,-0.13457 -1.24957,0.2172 -0.61516,0.44581 0.13461,0.0485 0.28343,0.25097 0.33073,0.44992 0.0627,0.26383 -0.21832,0.35884 -1.03849,0.35108 -0.61846,-0.006 -1.15425,-0.0309 -1.19063,-0.0557 -0.0364,-0.0248 -0.58536,-0.0828 -1.21996,-0.12906 -2.04861,-0.14922 -2.20761,-1.18954 -0.18179,-1.18954 0.72945,0 1.19755,0.13251 1.28645,0.36417 0.16933,0.44127 1.57614,0.24803 1.42808,-0.19616 -0.0541,-0.16239 -0.56513,-0.42619 -1.13555,-0.58623 -1.06327,-0.29833 -1.49181,-1.10571 -0.50796,-0.95701 0.29105,0.044 1.48685,0.11534 2.65735,0.15855 l 2.12818,0.0786 0.0553,-0.9523 c 0.0304,-0.52376 0.0847,-1.19042 0.12077,-1.48146 0.0526,-0.42452 -0.0915,-0.53096 -0.72823,-0.53821 -0.43656,-0.005 -1.25017,-0.10938 -1.80802,-0.23203 -0.87493,-0.19235 -0.99026,-0.30014 -0.83958,-0.7847 0.0961,-0.30895 0.23988,-1.76435 0.31958,-3.23421 0.1405,-2.59125 0.16603,-2.67989 0.83959,-2.91598 0.6413,-0.22478 0.71501,-0.41237 0.95926,-2.44141 l 0.26458,-2.19791 1.38357,-0.76277 c 0.76097,-0.41952 1.71347,-1.12469 2.11667,-1.56704 0.8883,-0.97456 1.73388,-0.86796 2.24326,0.28281 0.27249,0.61559 0.5056,0.76541 1.19095,0.76541 0.58463,0 0.94209,-0.16806 1.13865,-0.53534 0.28802,-0.53818 0.22162,-2.12615 -0.12335,-2.94972 -0.10191,-0.24329 -0.0563,-0.68332 0.10131,-0.97785 0.25203,-0.47092 0.3901,-0.50097 1.14485,-0.24915 0.47204,0.1575 0.95976,0.37756 1.08381,0.48903 0.28964,0.26025 1.22966,-0.5367 1.22966,-1.04251 0,-0.34363 0.34279,-1.5651 0.74984,-2.67196 0.21967,-0.59732 0.24484,-0.8069 0.27797,-2.31511 0.0168,-0.76398 0.13987,-1.38906 0.27353,-1.38906 0.35732,0 1.40723,1.79771 1.27511,2.18331 -0.10571,0.30852 0.3474,1.54468 1.30888,3.57086 0.22456,0.47323 0.5663,0.86041 0.75941,0.86041 0.60371,0 0.77922,0.59593 0.77922,2.64584 v 1.98437 l 1.27586,-0.0899 c 0.84747,-0.0597 1.42491,0.0394 1.71979,0.29519 0.55362,0.48022 1.89914,0.8196 1.89914,0.47902 0,-0.13849 0.23601,-0.3267 0.52448,-0.41826 0.46342,-0.14708 0.52044,-0.38789 0.48981,-2.06835 -0.0416,-2.28008 -0.21316,-2.67404 -1.4126,-3.24322 -1.37745,-0.65364 -1.61369,-0.42251 -1.8183,1.77902 -0.18132,1.95102 -0.62713,2.84098 -1.23495,2.46533 -0.24651,-0.15235 -0.27775,-0.82972 -0.12652,-2.74329 0.11045,-1.39754 0.19903,-2.81471 0.19684,-3.14928 -0.002,-0.35669 0.12157,-0.55532 0.29957,-0.48021 0.16695,0.0704 0.77979,0.268 1.36188,0.439 0.58208,0.171 1.3056,0.42594 1.60781,0.56654 0.30222,0.14059 0.95706,0.21678 1.45521,0.1693 0.80403,-0.0766 0.90853,-0.17545 0.93069,-0.88008 0.0137,-0.43656 -0.0878,-1.01706 -0.22554,-1.29 -0.22836,-0.45242 -0.28723,-0.89717 -0.41791,-3.15738 -0.0855,-1.47846 -0.57214,-0.37985 -0.57214,1.29159 0,1.96708 -0.68741,3.54855 -1.36138,3.13202 -0.23517,-0.14534 -0.2307,-3.30338 0.005,-3.68039 0.091,-0.14552 0.18315,-1.03849 0.20467,-1.98438 0.12962,-5.69725 0.54679,-9.54391 1.05335,-9.71277 0.57732,-0.19244 1.13827,3.57615 0.58336,3.9191 -0.28186,0.1742 -0.26623,0.28322 0.08,0.5577 0.23667,0.18765 0.50354,0.81743 0.59304,1.39951 0.17407,1.13201 0.34108,2.07331 0.57508,3.24115 0.0802,0.40018 0.20688,1.97547 0.28155,3.50065 0.0747,1.52517 0.19659,2.83386 0.27093,2.90821 0.0743,0.0743 0.25122,-0.0722 0.39306,-0.32565 0.41649,-0.74422 0.71444,-0.53692 0.95387,0.66367 l 0.22425,1.12447 1.18038,-0.0191 c 2.31801,-0.0375 3.1641,-0.20512 3.1812,-0.6303 0.0739,-1.83867 0.003,-3.73546 -0.1491,-3.98141 -0.10107,-0.16353 0.0179,-0.5202 0.26443,-0.79258 0.35139,-0.38829 0.5729,-0.43843 1.0256,-0.23217 0.4019,0.18312 0.81641,0.16425 1.36367,-0.0621 1.1018,-0.45567 2.28652,-0.34716 3.4032,0.31169 0.95393,0.56284 0.95492,0.56286 0.95492,0.0231 0,-0.29716 0.22791,-0.69993 0.50646,-0.89503 0.27855,-0.19511 0.5897,-0.79849 0.69145,-1.34085 0.17999,-0.95943 0.53727,-1.44994 0.83745,-1.14976 0.0814,0.0814 0.18138,0.97958 0.22209,1.99586 0.0407,1.01628 0.12659,1.94384 0.19085,2.06124 0.0643,0.11739 0.14441,0.91508 0.17812,1.77264 0.0337,0.85756 0.16816,1.84029 0.29878,2.18386 0.24404,0.64188 -0.1489,1.94549 -0.58642,1.94549 -0.12216,0 -0.22211,0.42664 -0.22211,0.94809 0,1.26535 0.6045,1.0669 0.82177,-0.26978 0.18912,-1.16349 0.62571,-1.53593 1.59411,-1.35987 0.63558,0.11556 0.69462,0.0529 0.67918,-0.72042 -0.009,-0.46584 0.13974,-1.83726 0.33121,-3.04759 0.25927,-1.63897 0.27163,-2.27711 0.0484,-2.50032 -0.76211,-0.76211 0.0651,-2.46744 1.57574,-3.24865 0.42372,-0.21911 0.77039,-0.55934 0.77039,-0.75607 0,-0.19672 0.17029,-0.49901 0.37842,-0.67174 0.52131,-0.43265 0.87596,0.31663 0.80676,1.70447 -0.029,0.58209 0.0686,1.13662 0.21693,1.23229 0.49831,0.32142 0.97914,-0.0921 0.97914,-0.84208 0,-0.988 0.24589,-1.58083 0.65568,-1.58083 0.38866,0 0.64506,1.63172 0.83029,5.28395 0.0699,1.3782 0.25503,2.58489 0.4114,2.68153 0.15636,0.0966 0.23406,0.60602 0.17266,1.13196 -0.0744,0.63692 -0.0234,0.86797 0.15271,0.6919 0.14539,-0.14539 0.47866,-0.26434 0.74059,-0.26434 0.3679,0 0.47625,0.21068 0.47625,0.92604 0,0.50932 0.0893,0.93571 0.19844,0.94754 1.80108,0.19509 2.76423,0.0733 2.19618,-0.27782 -0.42039,-0.25982 -0.79462,-2.9171 -0.51456,-3.65372 0.20119,-0.52915 0.3561,-0.58944 1.13779,-0.44279 1.26645,0.23758 2.00924,-0.052 2.00924,-0.78337 0,-0.33144 0.23369,-0.8141 0.51931,-1.07259 0.58303,-0.52763 1.33277,-0.37845 1.33277,0.26519 0,0.29641 0.15171,0.37486 0.5069,0.26213 0.7286,-0.23125 0.91655,0.27086 0.57466,1.53519 -0.18398,0.68037 -0.2122,1.40796 -0.0736,1.89732 0.20455,0.72214 0.31805,0.78891 1.25791,0.74012 0.56819,-0.0295 1.06665,-0.14857 1.10769,-0.26459 0.041,-0.11602 0.19416,-0.38954 0.34027,-0.60782 0.22659,-0.33851 0.34318,-0.30441 0.79281,0.2319 0.28993,0.34582 0.60116,0.94113 0.69162,1.32291 0.0905,0.38178 0.34198,0.89859 0.55894,1.14847 0.22341,0.2573 0.33002,0.7008 0.24585,1.02267 -0.14378,0.54981 -0.0855,0.75664 0.57022,2.02515 0.16824,0.32545 0.30589,0.75919 0.30589,0.96388 0,0.20469 0.19094,0.44543 0.42432,0.53498 0.24227,0.093 0.35936,0.33216 0.27289,0.55748 -0.0898,0.23394 0.007,0.40811 0.23713,0.42772 0.42549,0.0362 0.84398,0.12848 1.05003,0.23151 0.0728,0.0364 0.25136,0.0959 0.39688,0.13229 0.14552,0.0364 0.29435,0.0873 0.33073,0.11321 0.0364,0.0259 0.9916,0.0792 2.12271,0.1185 1.13112,0.0393 2.18806,0.20292 2.34876,0.36362 0.6671,0.66709 -3.35787,1.15027 -10.49074,1.25936 -2.18282,0.0334 -4.05805,0.0911 -4.16719,0.12827 -0.36976,0.12589 -0.72626,0.19974 -1.12448,0.23293 -0.21828,0.0182 -0.39688,0.27119 -0.39688,0.56223 0,0.40074 -0.17659,0.52932 -0.7276,0.52977 -0.6207,5.2e-4 -0.73157,0.11371 -0.7546,0.77043 -0.0191,0.54496 0.0775,0.72972 0.33073,0.63254 0.39835,-0.15286 0.38905,-0.18184 0.51083,1.59139 l 0.0876,1.27517 -0.79957,-0.17562 c -0.56269,-0.12358 -0.94125,-0.0474 -1.27784,0.25723 -0.26306,0.23806 -0.58248,0.40258 -0.70984,0.36559 -0.12735,-0.037 -0.50151,0.0824 -0.83147,0.26532 -0.49644,0.2752 -0.70055,0.26208 -1.18335,-0.0761 -0.8221,-0.57582 -0.99486,-0.51515 -0.99486,0.34942 0,0.41693 -0.26318,1.09264 -0.58484,1.50157 -0.37753,0.47996 -0.58855,1.12253 -0.59531,1.81273 -0.008,0.86538 -0.13443,1.13122 -0.66074,1.39449 l -0.65028,0.32528 0.78257,0.30886 c 0.43041,0.16987 1.29131,0.37071 1.91312,0.44631 1.20213,0.14616 1.61575,0.4695 1.17036,0.9149 -0.31598,0.31598 -2.34159,0.36544 -3.04637,0.0744 -0.26448,-0.10922 -0.74073,-0.0732 -1.05833,0.0801 -0.86487,0.41733 -2.46729,0.65534 -4.63369,0.68825 -1.49004,0.0226 -2.01127,-0.0679 -2.24896,-0.39064 -0.17017,-0.23105 -0.45813,-0.36999 -0.6399,-0.30875 -0.18178,0.0612 -0.93991,-0.0194 -1.68473,-0.17909 -1.10713,-0.23744 -1.50062,-0.2174 -2.15654,0.10982 -0.48349,0.24119 -0.91798,0.30732 -1.09339,0.16641 -0.1601,-0.12861 -1.12453,-0.26157 -2.14317,-0.29547 -1.01865,-0.0339 -2.26881,-0.0773 -2.77813,-0.0964 -0.84819,-0.0318 -0.92009,0.0236 -0.85522,0.65881 0.0562,0.55074 -0.0903,0.76031 -0.71163,1.01767 -0.43035,0.17826 -0.9171,0.24089 -1.08166,0.13919 -0.16456,-0.10171 -0.97542,-0.16485 -1.80191,-0.14032 -0.82649,0.0245 -1.6813,0.0441 -1.89958,0.0435 -0.21828,-5.8e-4 -0.84301,0.0615 -1.3883,0.13796 -0.89252,0.12515 -0.97544,0.2027 -0.83121,0.77735 0.15316,0.61022 0.10263,0.63833 -1.14729,0.63833 -0.71913,0 -1.35979,-0.0523 -1.42371,-0.11621 z m 20.66528,-4.69683 c 1.3e-4,-0.10055 -0.11773,-0.25572 -0.26189,-0.34483 -0.14417,-0.0891 -0.2453,-0.60214 -0.22474,-1.14009 0.0206,-0.53795 -0.0481,-1.24589 -0.15251,-1.5732 -0.15552,-0.48733 -0.0602,-0.6444 0.52601,-0.8673 0.39375,-0.1497 0.7887,-0.19862 0.87766,-0.10871 0.089,0.0899 0.16174,1.01598 0.16174,2.05792 0,1.55001 0.0722,1.87709 0.39688,1.79895 0.21828,-0.0525 0.72674,-0.12442 1.12991,-0.15978 0.40318,-0.0353 0.80997,-0.1412 0.904,-0.23523 0.094,-0.094 0.50829,-0.17095 0.9206,-0.17095 0.79261,0 0.91356,-0.25769 0.49128,-1.04673 -0.1421,-0.26552 -0.27591,-1.38879 -0.29735,-2.49615 -0.0439,-2.26543 0.0661,-2.18443 -2.41131,-1.7764 -0.81096,0.13356 -1.34788,0.1049 -1.53493,-0.0819 -0.16139,-0.1612 -1.29802,-0.29104 -2.58921,-0.29576 -1.77624,-0.006 -2.46673,-0.11855 -3.02531,-0.49095 -0.70627,-0.47084 -0.74789,-0.46889 -1.71979,0.0808 -0.54781,0.30981 -1.32344,0.70566 -1.72362,0.87969 -0.67297,0.29264 -0.72971,0.4362 -0.75564,1.91203 -0.0154,0.87761 -0.009,1.9028 0.0152,2.27822 0.0562,0.88645 -0.62278,1.49785 -1.16428,1.04845 -0.73243,-0.60787 -0.98786,-1.9477 -0.56449,-2.96098 0.30364,-0.72672 0.35528,-1.73936 0.24178,-4.74184 -0.0794,-2.09979 -0.16134,-4.3297 -0.18215,-4.95537 l -0.0378,-1.13757 -1.4552,0.0711 c -1.72334,0.0841 -2.12019,-0.10354 -1.91366,-0.90502 0.1416,-0.54951 0.11439,-0.56569 -0.35557,-0.21141 -0.27989,0.211 -0.82841,0.67218 -1.21892,1.02485 -0.93628,0.84552 -2.09747,0.95457 -3.32904,0.31264 -1.1007,-0.57371 -2.9081,-0.47676 -3.15602,0.1693 -0.22578,0.58838 -0.80227,0.40965 -1.40388,-0.43522 -0.31086,-0.43657 -0.74309,-0.79376 -0.96052,-0.79376 -0.32728,0 -0.38927,0.46677 -0.36017,2.71198 0.0193,1.49159 0.008,2.89058 -0.0252,3.10886 -0.0332,0.21828 -0.0416,0.73887 -0.0187,1.15687 0.0353,0.64385 0.10234,0.70967 0.43856,0.43063 0.21828,-0.18116 0.39688,-0.50042 0.39688,-0.70947 0,-0.20905 0.11906,-0.30651 0.26458,-0.21657 0.14552,0.0899 0.26458,3.5e-4 0.26458,-0.19908 0,-0.68922 0.97913,-1.46248 1.68176,-1.32816 0.37349,0.0714 0.92898,-0.0587 1.26976,-0.2974 0.3332,-0.23338 0.91269,-0.42432 1.28777,-0.42432 0.37508,0 0.81979,-0.13783 0.98825,-0.30629 0.22569,-0.22569 0.39972,-0.22875 0.66135,-0.0116 0.19529,0.16208 0.85518,0.37465 1.46643,0.4724 1.06311,0.16999 1.11135,0.14821 1.11135,-0.50195 0,-0.71577 0.55653,-1.29027 0.73404,-0.75774 0.16778,0.50334 0.63807,0.3564 0.48516,-0.15159 -0.0767,-0.25466 0.0348,-0.69474 0.24775,-0.97797 0.59175,-0.78714 0.9849,-0.16138 0.87542,1.39337 -0.0768,1.08992 -0.002,1.38393 0.42169,1.64792 0.50514,0.31511 0.50386,0.33042 -0.0661,0.79198 -0.75973,0.6152 -0.73611,0.83167 0.0687,0.62968 0.53448,-0.13415 0.67887,-0.0479 0.81275,0.48555 0.14696,0.58554 0.10075,1.37058 -0.3271,5.5575 -0.0857,0.83875 -0.29898,1.37903 -0.63809,1.61656 -0.91382,0.64006 -0.35118,1.19044 1.31194,1.28337 2.80444,0.15669 11.41927,0.0743 11.41949,-0.10922 z m -7.07573,-0.95742 c -0.181,-0.11653 -0.43754,-0.79237 -0.57009,-1.50186 -0.18965,-1.01515 -0.15533,-1.42071 0.16108,-1.90362 0.43343,-0.66149 0.74317,-0.76896 1.00328,-0.3481 0.0903,0.14606 0.4465,0.19468 0.79163,0.10806 0.53013,-0.13305 0.71014,0.005 1.16009,0.88647 0.58082,1.13849 0.39279,1.65034 -0.60624,1.65034 -0.29285,0 -0.77505,0.29713 -1.07156,0.66029 -0.34116,0.41785 -0.65994,0.5825 -0.86819,0.44842 z m -24.40945,0.72781 c 0.21828,-0.001 1.42114,0.0313 2.67302,0.0726 2.06149,0.0681 2.25037,0.0339 2.00274,-0.36242 -0.19016,-0.30437 -0.17923,-0.86835 0.0359,-1.85209 0.48454,-2.21584 0.70012,-6.40927 0.35964,-6.99573 -0.27504,-0.47372 -0.29319,-0.46717 -0.30075,0.10857 -0.01,0.74595 -0.45808,1.63625 -0.82388,1.63625 -0.14743,0 -0.73829,0.22719 -1.31301,0.50487 -0.57473,0.27767 -1.11179,0.39674 -1.19346,0.26458 -0.21334,-0.34518 -1.20353,-0.27938 -1.94022,0.12893 -0.52686,0.29202 -0.8347,0.28956 -1.84577,-0.0147 -1.56074,-0.46971 -1.94284,-0.31259 -1.87122,0.76948 0.0313,0.47322 -0.009,1.039 -0.0903,1.25728 -0.081,0.21828 -0.20686,1.31279 -0.27967,2.43224 l -0.13239,2.03536 0.83834,0.0813 c 0.46109,0.0447 1.43366,0.0486 2.16126,0.009 0.72761,-0.04 1.50151,-0.0738 1.7198,-0.0752 z m -2.75226,-2.29573 c -0.087,-0.087 -0.15816,-0.66607 -0.15816,-1.28685 0,-0.90999 0.1064,-1.16247 0.54911,-1.30298 0.74907,-0.23775 0.80054,-0.13027 0.60851,1.2707 -0.15284,1.11511 -0.60574,1.71286 -0.99946,1.31913 z m 3.10797,-0.34925 c -0.30448,-0.30447 -0.0524,-2.25276 0.34025,-2.6303 0.23757,-0.22839 0.79147,-0.3515 1.33518,-0.29676 0.33881,0.0341 1.14386,1.48139 1.14386,2.05637 0,0.32681 -0.47017,0.47357 -1.22667,0.38289 -0.16534,-0.0198 -0.36997,0.14467 -0.45472,0.36553 -0.17863,0.4655 -0.7349,0.52528 -1.1379,0.12227 z m 6.46942,1.75536 c -0.10589,-0.73688 -1.0043,-0.90521 -1.0043,-0.18817 0,0.29312 -0.12101,0.60774 -0.2689,0.69914 -0.55002,0.33993 0.0428,0.62992 0.68734,0.33624 0.44988,-0.20498 0.63887,-0.47829 0.58586,-0.84721 z m 7.14095,0.46147 c 0.39506,-0.24404 1.20297,-0.90273 1.79536,-1.46377 1.17679,-1.1145 1.17872,-1.12621 0.76337,-4.63681 -0.17424,-1.47264 -0.28336,-1.70152 -1.0178,-2.13474 -1.24878,-0.73663 -1.89365,-0.82954 -3.75082,-0.5404 -1.3463,0.2096 -1.87285,0.43512 -2.51483,1.0771 -0.53391,0.53391 -0.7093,0.87547 -0.51214,0.99733 0.19271,0.1191 0.2414,0.60154 0.13626,1.35006 -0.09,0.6406 -0.17501,1.34332 -0.18894,1.5616 -0.0139,0.21829 -0.15615,0.48435 -0.31604,0.59127 -0.20439,0.13666 -0.20574,0.19558 -0.005,0.19843 0.15739,0.002 0.67001,0.59642 1.13914,1.32042 1.00017,1.54353 1.22981,1.71598 2.18774,1.64299 0.39478,-0.0301 0.79217,0.0657 0.88309,0.21277 0.23305,0.37708 0.57382,0.33419 1.40015,-0.17625 z m 23.76538,-2.06218 c -0.0314,-0.21406 -0.13101,-0.4631 -0.22132,-0.55341 -0.12718,-0.12718 -0.10241,0.40971 0.0404,0.87649 0.0781,0.25535 0.22681,-0.0102 0.18088,-0.32308 z m 2.74978,-1.46286 c 0,-0.29104 -0.11906,-0.52917 -0.26458,-0.52917 -0.14552,0 -0.26458,0.23813 -0.26458,0.52917 0,0.29104 0.11906,0.52916 0.26458,0.52916 0.14552,0 0.26458,-0.23812 0.26458,-0.52916 z M 73.32052,160.863 c 0.0186,-0.10914 0.0616,-0.46211 0.0957,-0.78437 0.0341,-0.32226 0.257,-0.88362 0.4954,-1.24746 0.23839,-0.36384 0.43345,-0.82586 0.43345,-1.02671 0,-0.20084 0.23589,-0.57865 0.5242,-0.83957 0.39835,-0.3605 0.61025,-0.40299 0.88258,-0.17697 0.237,0.19669 1.2916,0.25606 3.11382,0.17529 1.51549,-0.0672 2.93403,-0.12689 3.15231,-0.13268 1.0271,-0.0273 1.15552,-0.42834 0.54256,-1.69455 -0.32437,-0.67006 -0.72797,-1.22012 -0.89689,-1.22234 -0.21868,-0.003 -0.22329,-0.06 -0.016,-0.19844 0.34311,-0.2291 0.89951,-1.23295 0.89951,-1.62289 0,-0.4758 -1.02057,-0.86788 -1.52469,-0.58576 -0.32849,0.18383 -0.58657,0.14194 -0.90587,-0.14703 -0.533,-0.48236 -1.08895,-0.22714 -0.88754,0.40745 0.11968,0.37709 0.16526,1.93923 0.11834,4.05663 -0.0151,0.68037 -0.99839,0.88563 -1.44147,0.3009 -0.43557,-0.57484 -0.49367,-1.3152 -0.12127,-1.54535 0.40602,-0.25094 0.31394,-1.19063 -0.11668,-1.19063 -0.20969,0 -0.46222,0.131 -0.56117,0.2911 -0.22908,0.37066 -2.80362,0.10462 -4.1508,-0.42892 -0.39484,-0.15638 -0.46302,-0.0259 -0.46302,0.88604 0,1.37843 -0.41163,2.44559 -1.00297,2.60022 -0.37425,0.0979 -0.45344,0.36129 -0.39725,1.32137 0.0386,0.65952 -0.0583,1.43921 -0.21535,1.73265 -0.43804,0.81848 0.085,1.20026 1.11289,0.81229 0.68379,-0.25811 0.78954,-0.24609 0.66607,0.0757 -0.087,0.22661 0.0116,0.3825 0.24179,0.3825 0.21372,0 0.40377,-0.0893 0.42234,-0.19844 z m 51.93833,-2.94658 c 0.17283,-0.27965 -0.58553,-0.96933 -0.8143,-0.74055 -0.22045,0.22045 0.0984,0.97515 0.41203,0.97515 0.1415,0 0.32252,-0.10557 0.40227,-0.2346 z m -16.16148,-0.493 c 0.0677,-0.10914 1.20576,-0.19844 2.52901,-0.19844 1.32325,0 2.40219,-0.0595 2.39764,-0.13229 -0.005,-0.0728 -0.17386,-0.35081 -0.37626,-0.61789 -0.28122,-0.3711 -0.76273,-0.49587 -2.0421,-0.52917 -1.43451,-0.0373 -1.66299,-0.10984 -1.59637,-0.50659 0.096,-0.57193 -0.18005,-0.58687 -0.94492,-0.0511 -0.41406,0.29002 -0.58804,0.68141 -0.58804,1.32292 0,0.83347 0.319,1.19949 0.62104,0.7126 z m -3.99447,-0.9132 c 0.47699,-0.18059 0.729,-0.46947 0.73165,-0.83869 0.005,-0.75491 0.22899,-1.03928 1.29041,-1.64148 0.66672,-0.37826 0.92759,-0.42417 1.01424,-0.17851 0.12978,0.36795 0.8663,0.45905 0.8663,0.10716 0,-0.12297 -0.23812,-0.43908 -0.52917,-0.70247 -0.29104,-0.26339 -0.52916,-0.59521 -0.52916,-0.73738 0,-0.14217 -0.25692,-0.67419 -0.57092,-1.18227 l -0.57093,-0.92377 -0.90623,1.09098 c -0.49842,0.60004 -1.05649,1.09098 -1.24015,1.09098 -0.18366,0 -0.54942,0.23813 -0.81281,0.52917 -0.26339,0.29104 -0.63629,0.52916 -0.82866,0.52916 -0.59895,0 -1.10711,1.12913 -1.01213,2.24896 0.0494,0.58209 0.0968,1.07677 0.10538,1.09931 0.0475,0.12465 2.37461,-0.25733 2.99218,-0.49115 z m 17.44486,-0.004 c -0.18986,-0.18986 -0.31309,-0.20548 -0.31309,-0.0397 0,0.35316 0.3129,0.66606 0.48948,0.48948 0.0752,-0.0752 -0.004,-0.27759 -0.17639,-0.44979 z m -0.60237,-2.5456 c -0.16041,-0.46016 -0.39612,-0.83666 -0.52381,-0.83666 -0.20977,0 0.0735,1.03304 0.45065,1.64323 0.30943,0.50066 0.35474,0.001 0.0732,-0.80657 z M 85.193,154.44688 c 0,-0.14552 -0.0525,-0.26458 -0.11667,-0.26458 -0.0642,0 -0.19027,0.11906 -0.2802,0.26458 -0.0899,0.14552 -0.0374,0.26458 0.11667,0.26458 0.15411,0 0.2802,-0.11906 0.2802,-0.26458 z m 30.29758,-1.63782 c 0.0506,-0.33613 0.17382,-0.87903 0.27388,-1.20645 0.23619,-0.77287 -0.27955,-0.78322 -1.86608,-0.0375 -0.65272,0.30681 -1.3658,0.48914 -1.58461,0.40518 -0.56386,-0.21637 -0.49304,0.19173 0.13131,0.75676 0.29105,0.26339 0.52917,0.68037 0.52917,0.92662 0,0.24625 0.25657,0.56221 0.57015,0.70213 0.44947,0.20056 0.70602,0.12848 1.21218,-0.34062 0.35312,-0.32726 0.68342,-0.87003 0.734,-1.20616 z m 3.56909,1.78573 c 0,-0.0642 -0.11906,-0.19027 -0.26459,-0.2802 -0.14552,-0.0899 -0.26458,-0.0374 -0.26458,0.11667 0,0.15411 0.11906,0.2802 0.26458,0.2802 0.14553,0 0.26459,-0.0525 0.26459,-0.11667 z m -41.69122,-3.83385 c -0.39184,-0.59211 -0.77148,-1.07656 -0.84364,-1.07656 -0.0722,0 -0.59247,0.41672 -1.15623,0.92604 -0.56376,0.50932 -1.20327,0.92604 -1.42113,0.92604 -0.46333,0 -0.52635,0.41745 -0.10256,0.67936 0.16145,0.0998 0.99674,0.18615 1.8562,0.19191 1.05785,0.007 1.66816,0.13879 1.88926,0.40768 0.27888,0.33915 0.33859,0.29672 0.40857,-0.29035 0.0494,-0.41437 -0.20111,-1.11531 -0.63047,-1.76412 z m 24.75789,1.56927 c 0,-0.14552 -0.11907,-0.26458 -0.26459,-0.26458 -0.14552,0 -0.26458,0.11906 -0.26458,0.26458 0,0.14552 0.11906,0.26459 0.26458,0.26459 0.14552,0 0.26459,-0.11907 0.26459,-0.26459 z m 19.20119,-1.20952 c -0.0973,-0.38775 -0.23648,-0.64547 -0.30924,-0.57271 -0.0728,0.0728 -0.0527,0.44954 0.0446,0.83729 0.0973,0.38775 0.23648,0.64547 0.30924,0.57271 0.0728,-0.0728 0.0527,-0.44954 -0.0446,-0.83729 z m -17.78909,-0.39462 c -0.20361,-0.20361 -0.32347,-0.0838 -0.41971,0.41972 -0.12301,0.64347 -0.0982,0.66824 0.285,0.285 0.29986,-0.29986 0.33833,-0.5011 0.13471,-0.70472 z m 9.26612,-0.3262 c 0.45713,-0.21736 1.14445,-0.53936 1.52737,-0.71555 0.40612,-0.18687 1.04005,-0.24484 1.52136,-0.13913 0.5993,0.13163 0.82743,0.085 0.83354,-0.17052 0.005,-0.19346 0.18618,-0.5869 0.40344,-0.87432 0.33094,-0.43779 0.47838,-0.4705 0.90888,-0.20166 0.32818,0.20496 0.73212,0.2402 1.11791,0.0976 0.33224,-0.12286 0.75289,-0.17102 0.9348,-0.10703 0.22216,0.0782 0.32939,-0.17315 0.32667,-0.76559 -0.007,-1.5002 -0.15425,-1.56525 -2.58458,-1.14097 -1.66753,0.29111 -2.32903,0.30928 -2.83682,0.0779 -0.89232,-0.40658 -1.01304,-0.20407 -0.65996,1.10715 0.36017,1.33759 0.1977,1.5841 -0.59636,0.90486 -0.79376,-0.67899 -2.72731,-0.58294 -2.91766,0.14494 -0.0709,0.27108 -0.41056,0.54201 -0.75483,0.60206 -0.56858,0.0992 -0.53288,0.15096 0.38947,0.56484 0.68411,0.30698 0.96738,0.5808 0.8682,0.83926 -0.081,0.21099 -0.0702,0.58422 0.0239,0.8294 0.15073,0.3928 0.20032,0.38019 0.41732,-0.10611 0.13544,-0.30354 0.62027,-0.72973 1.0774,-0.94709 z m 14.98636,0.82148 c 0,-0.11773 -0.16867,-0.21405 -0.37483,-0.21405 -0.20615,0 -0.43521,-0.14883 -0.50902,-0.33073 -0.10514,-0.25911 -0.18763,-0.25471 -0.38095,0.0203 -0.13572,0.19307 -0.45985,0.31214 -0.7203,0.26458 -0.26045,-0.0476 -0.52103,0.0487 -0.57906,0.21387 -0.0702,0.19991 0.34082,0.2936 1.22932,0.2802 0.73416,-0.0111 1.33484,-0.11646 1.33484,-0.23419 z m 1.32291,-0.15786 c 0,-0.19777 -0.19849,-0.32108 -0.44109,-0.27403 -0.64304,0.12471 -0.7163,0.63361 -0.0912,0.63361 0.29277,0 0.53231,-0.16181 0.53231,-0.35958 z m 1.97954,-0.25463 c -0.31452,-0.75165 -0.61287,-2.51813 -0.48262,-2.85755 0.0949,-0.24734 -0.9666,-0.79185 -1.11422,-0.57154 -0.0205,0.0306 0.0874,0.85519 0.2399,1.8324 0.26355,1.68926 0.40399,1.90449 1.32394,2.02902 0.12471,0.0169 0.13956,-0.17767 0.033,-0.43233 z m -28.4616,-0.43443 c 0.46392,-0.55899 1.28968,-0.69096 1.46498,-0.23414 0.19697,0.5133 0.70687,0.11521 1.43659,-1.12157 0.41892,-0.71001 0.45623,-0.94462 0.18591,-1.16896 -0.25872,-0.21472 -0.44026,-0.0208 -0.77261,0.82527 l -0.43443,1.10594 -0.6621,-0.62202 c -0.65654,-0.61678 -0.65809,-0.62888 -0.18434,-1.43736 0.31266,-0.53358 0.70067,-0.82581 1.12281,-0.84566 0.35478,-0.0167 0.861,-0.12163 1.12494,-0.23322 0.34161,-0.14443 0.59372,-0.0404 0.8749,0.36105 0.21985,0.31389 0.68165,0.56395 1.04146,0.56395 0.35555,0 0.64645,0.14996 0.64645,0.33323 0,0.18328 0.2196,0.47037 0.48799,0.63799 0.43038,0.26877 0.47378,0.23038 0.36758,-0.32515 -0.0662,-0.34645 -0.27714,-0.75998 -0.4687,-0.91896 -0.23076,-0.19151 -0.29672,-0.61831 -0.19548,-1.26485 0.15166,-0.96857 0.14875,-0.97222 -0.39267,-0.49304 -0.44325,0.3923 -0.78535,0.44802 -1.82573,0.29735 -0.70415,-0.10197 -1.42389,-0.2997 -1.59942,-0.43939 -0.17552,-0.13969 -0.46867,-0.16157 -0.65143,-0.0486 -0.18276,0.11295 -0.73257,0.17841 -1.2218,0.14546 -0.48923,-0.0329 -1.25617,0.12302 -1.70432,0.34658 -1.04214,0.51989 -1.44151,0.51274 -1.74595,-0.0313 -0.46476,-0.83047 -1.06346,-0.22242 -1.00038,1.01599 0.032,0.62786 -0.0347,1.26902 -0.14814,1.42482 -0.14064,0.1931 0.22245,0.264 1.14074,0.22274 1.13187,-0.0508 1.36814,0.0201 1.47908,0.44434 0.0726,0.27768 0.29673,0.50486 0.49804,0.50486 0.21402,0 0.36601,0.27467 0.36601,0.66146 0,0.73565 0.30609,0.85219 0.77002,0.29318 z m -2.09293,-2.75615 c 0,-0.26323 0.16415,-0.7031 0.36479,-0.97749 0.35392,-0.484 0.38675,-0.48451 1.10013,-0.0171 l 0.73533,0.48181 -0.63711,0.4898 c -0.82211,0.63204 -1.56314,0.64292 -1.56314,0.023 z m -15.61447,2.26454 c -0.003,-0.4648 -0.0574,-0.51107 -0.24713,-0.21107 -0.13369,0.21133 -0.18437,0.47922 -0.11262,0.59531 0.22949,0.37132 0.36391,0.22775 0.35975,-0.38424 z m 47.88958,0 c -0.002,-0.32743 -0.10641,-0.75686 -0.23151,-0.95429 -0.33552,-0.52952 -0.64697,0.10152 -0.44577,0.90318 0.20369,0.81153 0.6827,0.84767 0.67728,0.0511 z m 1.85613,0.34634 c 0,-0.13693 -0.11906,-0.32255 -0.26458,-0.41249 -0.14552,-0.0899 -0.26458,0.0221 -0.26458,0.24897 0,0.22687 0.11906,0.41249 0.26458,0.41249 0.14552,0 0.26458,-0.11204 0.26458,-0.24897 z m -6.34987,-1.96445 c -0.18092,-0.60163 -0.36463,-1.21294 -0.40823,-1.35846 -0.0436,-0.14552 -0.0887,0.24926 -0.10017,0.87729 -0.0115,0.62803 0.11812,1.40162 0.28802,1.71909 0.46846,0.87532 0.61252,0.0661 0.22038,-1.23792 z m -43.52199,-0.42546 c 0.0331,-0.58591 -0.0432,-1.06529 -0.16943,-1.06529 -0.12625,0 -0.22954,0.55563 -0.22954,1.23473 0,1.47807 0.31353,1.34493 0.39897,-0.16944 z m 41.58836,0.25648 c -0.16455,-0.43593 -0.39214,-0.7926 -0.50575,-0.7926 -0.26443,0 -0.26231,0.0258 0.0838,1.01854 0.15969,0.4581 0.38728,0.77301 0.50575,0.69979 0.11847,-0.0732 0.0808,-0.48979 -0.0838,-0.92573 z m 7.93508,0.48071 c -0.0845,-0.21107 -0.14716,-0.14838 -0.15985,0.15985 -0.0115,0.27891 0.051,0.43518 0.13896,0.34726 0.0879,-0.0879 0.0973,-0.31612 0.0209,-0.50711 z m -50.98479,-1.11588 c -0.006,-0.39481 -0.46705,-1.09781 -0.61943,-0.94352 -0.0677,0.0685 -0.21005,0.60088 -0.31635,1.18296 l -0.19326,1.05834 0.56654,-0.50403 c 0.3116,-0.27722 0.56473,-0.6344 0.5625,-0.79375 z m 49.2125,0.70246 c -0.007,-0.36212 -0.4938,-0.97941 -0.64925,-0.82395 -0.20843,0.20842 0.12358,1.02239 0.41702,1.02239 0.12995,0 0.23445,-0.0893 0.23223,-0.19844 z m 1.71254,-0.31244 c 0.0837,-0.13547 0.0312,-0.32109 -0.11668,-0.41249 -0.14789,-0.0914 -0.2689,0.0194 -0.2689,0.2463 0,0.46475 0.15877,0.53318 0.38558,0.16619 z m -12.72531,-0.94433 c -0.0838,-0.21828 -0.19909,-0.39687 -0.25628,-0.39687 -0.0572,0 -0.10399,0.17859 -0.10399,0.39687 0,0.21829 0.11533,0.39688 0.25628,0.39688 0.14096,0 0.18775,-0.17859 0.10399,-0.39688 z m -10.76286,-0.44648 c -0.0845,-0.21107 -0.14715,-0.14837 -0.15985,0.15985 -0.0115,0.27892 0.0511,0.43519 0.13896,0.34727 0.0879,-0.0879 0.0973,-0.31612 0.0209,-0.50712 z m 16.64684,-0.94663 c 0.90734,-0.60585 0.88755,-2.44334 -0.0263,-2.44334 -0.45886,0 -0.55322,0.20672 -0.75478,1.65364 -0.13764,0.9881 0.10961,1.23807 0.7811,0.7897 z m -41.16924,-0.49442 c 0,-0.51155 -0.64755,-2.21351 -0.84218,-2.21351 -0.12609,0 -0.34622,0.30765 -0.48918,0.68366 -0.21706,0.57091 -0.16143,0.76583 0.33728,1.18183 0.61272,0.5111 0.99408,0.64462 0.99408,0.34802 z m 30.42708,-0.4781 c 0,-0.35522 -0.11906,-0.71943 -0.26459,-0.80937 -0.14552,-0.0899 -0.26458,0.0124 -0.26458,0.22733 0,0.21497 -0.0723,0.57918 -0.1606,0.80937 -0.10538,0.27463 -0.0144,0.41851 0.26459,0.41851 0.27439,0 0.42518,-0.22904 0.42518,-0.64584 z m 2.35502,0.13848 c 0.28938,-0.18322 0.32297,-0.54488 0.15318,-1.64959 -0.1196,-0.77821 -0.19185,-2.21859 -0.16054,-3.20086 0.0313,-0.98227 -0.0525,-1.78594 -0.18626,-1.78594 -0.13374,0 -0.59959,-0.0713 -1.03522,-0.15841 -0.77931,-0.15586 -0.79077,-0.14204 -0.71293,0.8599 0.23519,3.02753 0.8899,6.17914 1.2825,6.17363 0.15874,-0.002 0.45541,-0.10966 0.65927,-0.23873 z m -12.93835,-1.5921 c 0,-1.35544 0.40786,-2.39848 0.93789,-2.39848 0.28611,0 0.39462,-0.19153 0.33728,-0.59531 -0.0718,-0.50579 -0.2202,-0.58197 -0.98658,-0.5066 -0.49612,0.0488 -1.19525,0.2002 -1.55364,0.33646 -0.6056,0.23025 -0.64315,0.3498 -0.53175,1.69312 0.18999,2.29112 1.7968,3.6064 1.7968,1.47081 z m 2.56199,-0.0668 c -0.0845,-0.21107 -0.14716,-0.14838 -0.15986,0.15985 -0.0115,0.27891 0.0511,0.43518 0.13897,0.34726 0.0879,-0.0879 0.0973,-0.31612 0.0209,-0.50711 z m 9.87342,-6.65317 c 0,-0.19403 -0.0783,-0.43112 -0.17409,-0.52687 -0.23927,-0.23928 -0.91348,0.35369 -0.73342,0.64504 0.22545,0.36479 0.90751,0.27598 0.90751,-0.11817 z m -23.28333,-0.3243 c 0,-0.22687 -0.11906,-0.3389 -0.26458,-0.24897 -0.14553,0.0899 -0.26459,0.27556 -0.26459,0.41249 0,0.13694 0.11906,0.24897 0.26459,0.24897 0.14552,0 0.26458,-0.18562 0.26458,-0.41249 z m -11.86835,32.71518 c -0.56525,-0.3495 0.08,-0.60556 1.57011,-0.62307 1.22693,-0.0144 1.82243,0.16772 1.52402,0.46613 -0.25121,0.25121 -2.73769,0.37734 -3.09413,0.15694 z"
       id="path6" />
  </g>
</svg>
