<?xml version="1.0" encoding="UTF-8" standalone="no"?>
<!-- Created with Inkscape (http://www.inkscape.org/) -->

<svg
   width="79.052505mm"
   height="43.559288mm"
   viewBox="0 0 79.052503 43.559289"
   version="1.1"
   id="svg1"
   inkscape:version="1.4.1-rc (06eac75fbf, 2025-03-29)"
   sodipodi:docname="city8.svg"
   xmlns:inkscape="http://www.inkscape.org/namespaces/inkscape"
   xmlns:sodipodi="http://sodipodi.sourceforge.net/DTD/sodipodi-0.dtd"
   xmlns="http://www.w3.org/2000/svg"
   xmlns:svg="http://www.w3.org/2000/svg">
  <sodipodi:namedview
     id="namedview1"
     pagecolor="#ffffff"
     bordercolor="#000000"
     borderopacity="0.25"
     inkscape:showpageshadow="2"
     inkscape:pageopacity="0.0"
     inkscape:pagecheckerboard="0"
     inkscape:deskcolor="#d1d1d1"
     inkscape:document-units="mm"
     inkscape:zoom="0.72248176"
     inkscape:cx="149.48474"
     inkscape:cy="82.35502"
     inkscape:window-width="1850"
     inkscape:window-height="1016"
     inkscape:window-x="0"
     inkscape:window-y="0"
     inkscape:window-maximized="1"
     inkscape:current-layer="layer1" />
  <defs
     id="defs1" />
  <g
     inkscape:label="Layer 1"
     inkscape:groupmode="layer"
     id="layer1"
     transform="translate(-65.616669,-126.73574)">
    <path
       style="fill:#000000"
       d="m 66.04025,170.16123 c -0.61311,-0.13824 -0.59053,-0.28199 0.26458,-1.68478 0.40018,-0.65649 0.85835,-1.42394 1.01816,-1.70545 0.1598,-0.2815 0.54091,-0.63895 0.8469,-0.79433 0.4906,-0.24912 0.51753,-0.35855 0.22791,-0.92604 -0.18063,-0.35395 -0.36042,-1.61163 -0.39951,-2.79485 -0.0686,-2.07623 -0.0453,-2.17156 0.66626,-2.73131 0.47372,-0.37262 0.9711,-0.53531 1.39113,-0.45501 0.43389,0.0829 0.94778,-0.0993 1.52787,-0.54172 0.61074,-0.46583 0.97355,-0.58826 1.2042,-0.40636 0.52509,0.41412 2.4053,0.61006 3.32446,0.34645 0.46316,-0.13283 0.8421,-0.14209 0.8421,-0.0206 0,0.12151 0.49211,0.15493 1.09357,0.0743 0.8624,-0.11568 1.06781,-0.0684 0.97173,0.22361 -0.1517,0.46107 -1.97501,0.64231 -2.45491,0.24403 -0.26021,-0.21596 -0.38075,-0.2085 -0.45973,0.0285 -0.0646,0.1937 -0.88858,0.38184 -2.07625,0.47406 l -1.9692,0.15291 -0.2107,1.5875 c -0.11588,0.87312 -0.32326,1.93972 -0.46083,2.3702 -0.16139,0.50497 -0.15704,0.87582 0.0122,1.04511 0.14432,0.14432 0.2624,0.46397 0.2624,0.71034 0,0.54031 -0.76365,0.89453 -0.93554,0.43395 -0.16929,-0.45362 -0.26303,-5.00031 -0.1131,-5.48564 0.0901,-0.29183 -0.0875,-0.39688 -0.67115,-0.39688 -0.7261,0 -0.80579,0.0902 -0.93506,1.05834 -0.0777,0.58208 -0.0442,1.41552 0.0745,1.85208 0.28867,1.06177 -0.026,3.30876 -0.48824,3.48613 -0.20237,0.0777 -0.29384,0.26109 -0.20327,0.40763 0.0906,0.14655 0.0601,0.34243 -0.0677,0.4353 -0.36226,0.26329 -1.15837,1.79438 -1.15837,2.2278 0,0.52453 -0.55643,0.91286 -1.12448,0.78478 z m 11.24479,0.003 c -0.1819,-0.062 -0.33073,-0.38759 -0.33073,-0.72349 0,-0.43079 -0.19489,-0.65964 -0.66146,-0.77675 -0.3638,-0.0913 -0.66146,-0.34684 -0.66146,-0.56786 0,-0.27942 -0.21881,-0.37864 -0.7182,-0.32569 -0.89143,0.0945 -1.17952,-0.76243 -0.43847,-1.3043 0.28211,-0.20628 0.50241,-0.71653 0.5216,-1.20811 0.041,-1.05087 0.55095,-3.80813 0.76973,-4.16213 0.28498,-0.46111 0.66427,-0.27972 0.97618,0.46685 l 0.30399,0.7276 0.15248,-0.92304 c 0.17838,-1.07981 0.93418,-1.40378 1.2145,-0.52058 0.13183,0.41537 0.26049,0.49153 0.47239,0.27963 0.44139,-0.44139 0.71455,-0.35043 0.71455,0.23795 0,0.8317 0.44522,0.61816 0.62921,-0.30178 0.10492,-0.52458 0.0157,-1.13263 -0.24203,-1.64923 -0.39334,-0.78849 -0.38374,-0.83612 0.26376,-1.30779 0.68118,-0.4962 0.89064,-1.33733 0.4074,-1.63599 -0.14552,-0.0899 -0.26459,0.0689 -0.26459,0.35295 0,0.60023 -0.75626,0.98099 -1.15549,0.58176 -0.15029,-0.15029 -0.48757,-0.27325 -0.74951,-0.27325 -0.30902,0 -0.47625,-0.19719 -0.47625,-0.56157 0,-0.46166 -0.0685,-0.50467 -0.38528,-0.2418 -0.68312,0.56694 -0.86732,0.067 -0.7495,-2.03403 0.11369,-2.02733 0.60562,-3.4191 0.60562,-1.71344 0,0.46567 0.1318,0.84667 0.29289,0.84667 0.16109,0 0.22023,-0.18934 0.13143,-0.42075 -0.0888,-0.23141 -0.0746,-0.55884 0.0316,-0.72761 0.10618,-0.16876 0.19586,-0.69378 0.1993,-1.16669 0.005,-0.68937 -0.10012,-0.85985 -0.53021,-0.85989 -0.29504,-3e-5 -0.81722,-0.19673 -1.1604,-0.4371 -0.50678,-0.35496 -0.77869,-0.38281 -1.44793,-0.14827 -0.45319,0.15882 -1.30023,0.37266 -1.88231,0.4752 -1.17791,0.2075 -1.48715,0.51148 -1.32104,1.29854 0.30953,1.46661 0.37779,3.81806 0.11553,3.98014 -0.53875,0.33297 -0.67108,-0.14766 -0.89464,-3.24925 -0.076,-1.05443 -0.20776,-2.19436 -0.29279,-2.53318 -0.20217,-0.80547 0.34282,-1.25227 1.15317,-0.94541 0.3748,0.14194 0.53757,0.35281 0.41962,0.54366 -0.12945,0.20945 -0.051,0.2574 0.23911,0.14609 0.23749,-0.0911 0.49621,-0.0615 0.57492,0.0659 0.0787,0.12737 0.52575,0.0407 0.99339,-0.19259 0.92449,-0.4612 1.71467,-0.51199 3.82789,-0.24603 1.06076,0.1335 1.4693,0.0794 1.78512,-0.23643 0.24312,-0.24312 0.62023,-0.34269 0.92797,-0.24502 0.76503,0.24281 2.39363,-0.12894 2.39363,-0.54638 0,-0.20962 -0.1643,-0.29608 -0.39465,-0.20769 -0.48562,0.18635 -0.82555,-0.57624 -0.45972,-1.03131 0.14475,-0.18005 0.27565,-0.98171 0.29089,-1.78147 0.0152,-0.79976 0.149,-1.49454 0.29724,-1.54395 0.14825,-0.0494 0.18513,-0.22641 0.082,-0.39332 -0.28589,-0.46259 -0.30705,-1.33555 -0.0405,-1.67095 0.15166,-0.19082 0.10024,-0.3528 -0.14143,-0.44554 -0.28705,-0.11015 -0.3295,-0.36831 -0.17394,-1.05802 0.36191,-1.60467 0.76072,-1.86518 1.63883,-1.07051 0.53639,0.48543 1.13216,0.19274 1.41378,-0.69458 0.21997,-0.69305 1.88196,-2.38464 2.34292,-2.38464 0.83822,0 1.23003,0.33911 1.23003,1.06459 0,0.40887 0.14743,0.79254 0.32762,0.8526 0.2588,0.0863 0.25999,0.25764 0.006,0.8158 -0.40662,0.89244 -0.008,0.92413 0.56842,0.0451 0.30242,-0.46154 0.3356,-0.66146 0.10981,-0.66146 -0.22258,0 -0.2383,-0.0853 -0.0503,-0.27325 0.29956,-0.29957 1.22881,-0.0594 1.02792,0.26562 -0.0685,0.11082 0.084,0.39022 0.33888,0.62088 0.39174,0.35452 0.46239,0.89556 0.45678,3.49819 l -0.007,3.0788 0.95169,-0.15219 c 0.76507,-0.12234 2.31406,-0.73657 4.26787,-1.69235 0.10586,-0.0518 0.49282,0.22992 0.8599,0.626 0.62303,0.67227 0.66741,0.68344 0.66741,0.16797 0,-0.3037 0.12391,-0.62876 0.27535,-0.72236 0.15144,-0.0936 0.20751,-0.38391 0.12459,-0.64515 -0.0829,-0.26124 0.047,-1.05489 0.28866,-1.76367 0.24167,-0.70878 0.43046,-1.9733 0.41952,-2.81005 -0.0109,-0.83674 0.084,-1.52135 0.21094,-1.52135 0.12696,0 0.22283,-0.38696 0.21306,-0.8599 -0.01,-0.47294 0.0645,-1.69333 0.16505,-2.71198 0.10056,-1.01864 0.23165,-2.50693 0.29132,-3.30729 0.11879,-1.59332 0.30543,-2.64669 0.50416,-2.84542 0.21416,-0.21417 0.94694,0.66143 0.94694,1.1315 0,0.2423 -0.23514,0.50203 -0.52252,0.57719 -0.50586,0.13228 -0.50702,0.15047 -0.0364,0.57054 0.47987,0.42834 0.70266,0.94203 1.3644,3.14603 0.2638,0.87859 0.2688,1.27579 0.0229,1.81555 -0.20286,0.44521 -0.22484,0.79933 -0.0618,0.99576 0.42395,0.51084 0.79983,3.97035 0.45633,4.2 -0.21806,0.14579 -0.21853,0.25108 -0.002,0.39687 0.47955,0.32251 0.72292,1.38841 0.31807,1.39312 -0.23352,0.003 -0.25357,0.0682 -0.0608,0.19843 0.15829,0.10691 0.35833,0.4731 0.44454,0.81375 0.139,0.54921 0.0839,0.60108 -0.48623,0.45798 -0.57154,-0.14345 -0.64297,-0.0751 -0.64297,0.61536 0,0.42721 -0.14883,0.8368 -0.33073,0.9102 -0.26459,0.10676 -0.26459,0.13763 0,0.15434 0.48397,0.0306 0.41112,0.46135 -0.35016,2.07055 -0.37448,0.79159 -0.63781,1.48233 -0.58518,1.53496 0.0526,0.0526 0.52973,-0.0535 1.06021,-0.23588 0.73573,-0.25294 0.90864,-0.42199 0.72896,-0.71272 -0.21776,-0.35234 -0.13926,-1.63082 0.16454,-2.67991 0.0702,-0.24241 0.002,-0.51853 -0.15203,-0.61359 -0.44574,-0.27548 -0.0581,-0.6294 0.52298,-0.47745 0.58579,0.15318 0.66105,0.36778 0.26714,0.76169 -0.24586,0.24586 1.49477,1.21309 3.50291,1.94649 1.1162,0.40765 0.9242,0.90331 -0.26458,0.68304 -0.5457,-0.10112 -1.03233,-0.29433 -1.08139,-0.42935 -0.0491,-0.13503 -0.34672,-0.37934 -0.66146,-0.5429 -0.31474,-0.16357 -0.48399,-0.20292 -0.37611,-0.0875 0.10787,0.11546 0.0782,0.35199 -0.0658,0.52561 -0.30737,0.37036 -0.33254,0.85576 -0.19289,3.71971 0.11923,2.44525 0.24784,2.76018 1.12723,2.76018 0.37467,0 0.75816,0.22725 0.93217,0.55239 0.21865,0.40855 0.45799,0.51165 0.91914,0.3959 0.69335,-0.17402 1.09667,0.22453 0.72552,0.71694 -0.13231,0.17553 -0.25523,0.60049 -0.27317,0.94436 -0.0179,0.34387 -0.0998,0.69239 -0.1819,0.7745 -0.21374,0.21374 -1.12999,-0.83031 -1.24282,-1.41617 -0.14709,-0.76378 -1.85711,-1.07369 -2.98118,-0.54028 -1.30867,0.621 -2.53427,0.49269 -2.53427,-0.26533 0,-0.26679 0.37214,-0.36856 1.34774,-0.36856 h 1.34775 l -0.20731,-1.38907 c -0.11402,-0.76398 -0.21608,-1.74625 -0.2268,-2.18281 -0.0166,-0.67749 -0.11585,-0.7867 -0.67742,-0.74565 -1.83154,0.13391 -3.23089,0.46036 -3.35454,0.7826 -0.23383,0.60935 -0.98078,0.39848 -1.53671,-0.43382 -0.57836,-0.86588 -1.38557,-1.11993 -1.05088,-0.33073 0.29469,0.69485 0.29101,1.45758 -0.007,1.54753 -0.14552,0.0439 -0.62177,-0.39855 -1.05833,-0.98311 -0.43656,-0.58456 -1.01203,-1.30291 -1.27881,-1.59635 -0.26678,-0.29343 -0.63867,-0.89884 -0.82642,-1.34537 -0.24037,-0.57167 -0.54696,-0.83378 -1.03629,-0.88595 -0.46112,-0.0492 -0.69494,0.0534 -0.69494,0.30474 0,0.20835 0.10032,0.37882 0.22292,0.37882 0.12261,0 0.44877,0.44648 0.72481,0.99219 0.27605,0.5457 0.69377,1.23031 0.92828,1.52135 0.66099,0.82032 0.81636,1.45521 0.35612,1.45521 -0.39992,0 -0.94422,1.02538 -0.73407,1.38287 0.2864,0.48719 0.44429,2.13039 0.42228,4.39495 -0.024,2.46736 -0.0232,2.47033 0.59911,2.31413 0.34272,-0.086 0.70279,-0.0275 0.80016,0.13007 0.11551,0.18689 0.64992,0.22048 1.53757,0.0966 0.74829,-0.10441 1.59866,-0.20794 1.8897,-0.23006 0.29104,-0.0221 0.50451,-0.16892 0.47437,-0.3262 -0.26512,-1.38353 -0.27288,-1.67697 -0.0444,-1.67697 0.14447,0 0.17753,-0.13777 0.0735,-0.30616 -0.10407,-0.16838 -0.17455,-0.69619 -0.15663,-1.1729 0.0365,-0.97121 -0.3831,-1.19897 -1.60361,-0.87041 -0.7001,0.18846 -1.01697,-0.18339 -0.55226,-0.6481 0.0964,-0.0964 0.21704,-0.55626 0.26801,-1.02182 0.051,-0.46555 0.2734,-1.1223 0.49429,-1.45942 l 0.40163,-0.61295 1.1163,0.62225 c 1.05967,0.59069 1.11684,0.68481 1.12707,1.85526 0.006,0.67815 -0.0904,1.233 -0.21405,1.233 -0.12366,0 -0.14868,0.1232 -0.0556,0.27378 0.0931,0.15058 0.20455,1.32047 0.24775,2.59976 0.0432,1.27928 0.16542,2.59974 0.27162,2.93435 0.13212,0.41626 0.10059,0.55121 -0.0998,0.42733 -0.38269,-0.23651 -0.37135,-0.004 0.0312,0.64097 0.27023,0.43271 0.24512,0.57678 -0.15098,0.86642 -0.2613,0.19107 -0.44746,0.46191 -0.41369,0.60187 0.10158,0.42098 -0.49418,1.64512 -0.86684,1.78115 -0.27176,0.0992 -0.27821,0.20093 -0.0295,0.46516 0.39095,0.41532 -0.0143,1.31546 -0.59223,1.31546 -0.52572,0 -0.48706,-0.65316 0.11575,-1.9554 1.12372,-2.42755 1.30422,-2.9297 1.14543,-3.18663 -0.0913,-0.14776 -0.17223,-0.5693 -0.17979,-0.93675 -0.009,-0.43551 -0.14497,-0.63971 -0.39067,-0.58655 -0.20731,0.0448 -1.56931,0.12208 -3.02667,0.17164 -2.14904,0.0731 -2.71369,0.17755 -2.98817,0.55293 -0.31251,0.42737 -0.35806,0.41122 -0.59457,-0.21084 -0.16892,-0.4443 -0.46454,-0.67942 -0.86823,-0.69054 -0.33666,-0.009 -1.05859,-0.094 -1.6043,-0.18818 -1.09427,-0.18895 -1.01921,-0.33128 -1.12623,2.13553 -0.0842,1.93948 -0.59067,3.67209 -1.23582,4.22726 -0.64933,0.55877 -0.69667,1.38668 -0.10624,1.85815 0.18224,0.14552 0.47404,0.53248 0.64845,0.8599 0.2739,0.51421 0.25276,0.59358 -0.15522,0.5826 -0.25978,-0.007 -0.8779,-0.21535 -1.37359,-0.46302 -0.83754,-0.41848 -0.901,-0.5396 -0.89769,-1.71338 0.002,-0.69469 0.0801,-1.33961 0.17365,-1.43316 0.0935,-0.0935 0.17009,-0.43962 0.17009,-0.76905 0,-0.41547 0.17864,-0.62486 0.58313,-0.68351 0.42497,-0.0616 0.58285,-0.26552 0.58208,-0.75179 -5.7e-4,-0.36699 -0.0842,-0.80179 -0.18582,-0.96623 -0.27538,-0.44556 -0.34309,-4.39632 -0.0824,-4.80933 0.27806,-0.44058 1.64417,-0.21625 2.30056,0.37777 0.53208,0.48153 0.8495,0.15767 0.89644,-0.91462 0.0158,-0.36101 0.1558,-0.69874 0.31112,-0.75051 0.61293,-0.20431 1.27136,-0.8368 1.07526,-1.0329 -0.11406,-0.11405 -0.6247,-0.17927 -1.13476,-0.14492 -0.51006,0.0344 -1.07139,-0.0274 -1.24742,-0.13714 -0.41863,-0.26109 -3.18686,-0.27384 -3.37916,-0.0155 -0.0818,0.10985 -0.71586,0.0938 -1.40904,-0.0357 -1.32243,-0.24706 -1.39758,-0.20205 -1.56036,0.93465 -0.0449,0.31323 -0.2238,0.74091 -0.39766,0.95039 -0.17385,0.20948 -0.22784,0.47401 -0.11996,0.58784 0.10788,0.11383 -0.0675,0.12595 -0.38981,0.0269 -0.54616,-0.16779 -0.58435,-0.10006 -0.56232,0.99735 0.013,0.64755 -0.0515,1.29892 -0.1433,1.44747 -0.0918,0.14856 -0.0174,0.33074 0.16545,0.40485 0.25512,0.10343 0.24434,0.19608 -0.0464,0.39864 -0.21367,0.14886 -0.41731,0.82078 -0.46717,1.54149 -0.0486,0.70269 -0.19849,1.75386 -0.33305,2.33594 -0.42299,1.8298 -0.55383,2.94757 -0.29386,2.51052 0.25849,-0.43455 1.44679,-5.27245 1.7317,-7.05018 0.097,-0.60504 0.3466,-1.31941 0.55476,-1.5875 0.71488,-0.92071 0.25728,4.38347 -0.68839,7.97925 -0.15308,0.58208 -0.30676,1.17739 -0.34151,1.32291 -0.0347,0.14552 -0.15666,0.41425 -0.27094,0.59718 -0.12654,0.20258 -0.05,0.39314 0.19581,0.48747 0.22196,0.0852 0.47323,0.37434 0.55837,0.64258 0.20426,0.64359 0.86201,0.75978 1.90737,0.33694 0.99824,-0.40377 1.39756,-0.43478 1.39756,-0.10852 0,0.70888 -3.9732,1.45743 -4.36563,0.82248 -0.0899,-0.14552 -0.28258,-0.26459 -0.4281,-0.26459 -0.14552,0 -0.19048,0.11991 -0.0999,0.26646 0.24238,0.39216 -0.646,0.64974 -1.0045,0.29124 -0.23204,-0.23204 -0.22772,-0.43217 0.0178,-0.82529 0.39275,-0.6289 0.4168,-1.05532 0.0595,-1.05532 -0.14552,0 -0.26459,0.13005 -0.26459,0.28899 0,0.15895 -0.2487,0.60544 -0.55268,0.99219 -0.53427,0.67976 -1.07211,0.87494 -1.76242,0.63957 z m 0.37172,-2.30622 c -0.0862,-0.22455 -0.27948,-0.40828 -0.42956,-0.40828 -0.38776,0 -0.33937,0.72591 0.0578,0.86777 0.44948,0.16053 0.55811,0.0262 0.37172,-0.45949 z m 1.14963,-0.15931 c 0,-0.13694 -0.11906,-0.24897 -0.26458,-0.24897 -0.14552,0 -0.26458,0.18562 -0.26458,0.41249 0,0.22687 0.11906,0.3389 0.26458,0.24897 0.14552,-0.0899 0.26458,-0.27556 0.26458,-0.41249 z m -0.46673,-4.01929 c 0.2051,-0.9095 0.31289,-1.76651 0.23954,-1.90445 -0.0733,-0.13795 -0.27229,0.39783 -0.4421,1.19062 -0.1698,0.79279 -0.39907,1.6498 -0.50949,1.90446 -0.11689,0.2696 -0.088,0.46302 0.0692,0.46302 0.14848,0 0.43776,-0.74414 0.64285,-1.65365 z m -1.69284,0.66146 c -0.0419,-0.25466 0.0172,-0.61185 0.13127,-0.79375 0.11728,-0.18697 0.0857,-0.33073 -0.0727,-0.33073 -0.15411,0 -0.29012,0.0893 -0.30225,0.19844 -0.0121,0.10914 -0.0518,0.46633 -0.0881,0.79375 -0.0363,0.32742 0.0406,0.59531 0.17097,0.59531 0.13035,0 0.20272,-0.20836 0.16083,-0.46302 z m 11.9451,-6.08541 c 0.002,-0.1819 -0.11501,-0.33073 -0.26053,-0.33073 -0.14552,0 -0.26276,0.32742 -0.26053,0.7276 0.003,0.56699 0.0607,0.64 0.26053,0.33073 0.14107,-0.21828 0.25831,-0.5457 0.26053,-0.7276 z m 11.77801,-0.8599 c 0.0899,-0.14552 0.0374,-0.26458 -0.11667,-0.26458 -0.15411,0 -0.2802,0.11906 -0.2802,0.26458 0,0.14552 0.0525,0.26458 0.11668,0.26458 0.0642,0 0.19026,-0.11906 0.28019,-0.26458 z m -7.21369,-0.99219 c 0.13625,-1.12426 -0.25987,-1.57199 -0.8561,-0.96764 -0.35292,0.35774 -0.34832,0.42986 0.0415,0.65127 0.27187,0.1544 0.38578,0.45024 0.29987,0.77877 -0.0762,0.29139 -0.0186,0.52979 0.12795,0.52979 0.14658,0 0.32061,-0.44648 0.38674,-0.99219 z m -10.64568,-0.33073 c 0,-0.14552 -0.11906,-0.26458 -0.26458,-0.26458 -0.14552,0 -0.26459,0.11906 -0.26459,0.26458 0,0.14552 0.11907,0.26459 0.26459,0.26459 0.14552,0 0.26458,-0.11907 0.26458,-0.26459 z m -0.0838,-1.37252 c -0.0845,-0.21107 -0.14716,-0.14837 -0.15986,0.15985 -0.0115,0.27892 0.0511,0.43518 0.13897,0.34727 0.0879,-0.0879 0.0973,-0.31613 0.0209,-0.50712 z m -4.14949,-0.77537 c 0,-0.14552 -0.11907,-0.191 -0.26459,-0.10106 -0.14552,0.0899 -0.26458,0.28258 -0.26458,0.4281 0,0.14552 0.11906,0.191 0.26458,0.10106 0.14552,-0.0899 0.26459,-0.28258 0.26459,-0.4281 z m 3.175,-0.0855 c 0,-0.20969 -0.10659,-0.44713 -0.23686,-0.52765 -0.27237,-0.16833 -0.60078,0.51225 -0.36227,0.75075 0.2839,0.28391 0.59913,0.16652 0.59913,-0.2231 z m 8.9956,-0.6818 c 1.3e-4,-0.0754 -0.30315,-0.58348 -0.67395,-1.12916 -0.68065,-1.00167 -0.67109,-1.51195 0.0283,-1.51195 0.50257,0 0.49523,-1.12878 -0.0138,-2.11304 -0.21725,-0.42012 -0.32396,-0.94898 -0.23713,-1.17526 0.32122,-0.83707 -0.64704,-0.73775 -1.43801,0.14751 -0.73328,0.82068 -0.82401,0.85189 -1.53477,0.52805 -0.69422,-0.31631 -0.71791,-0.37163 -0.29241,-0.68276 0.38673,-0.28278 0.47652,-0.85396 0.54496,-3.46656 0.0551,-2.10445 0.18412,-3.16206 0.39423,-3.2321 0.44685,-0.14895 0.38708,-1.11834 -0.069,-1.11834 -0.20969,0 -0.45986,0.12718 -0.55593,0.28262 -0.0961,0.15545 -0.34122,0.21871 -0.54478,0.1406 -0.20356,-0.0781 -0.37011,-0.0105 -0.37011,0.15022 0,0.19327 -0.39521,0.23807 -1.16701,0.13228 l -1.167,-0.15995 0.26847,0.98389 c 0.14766,0.54114 0.38973,1.13271 0.53794,1.31461 0.18553,0.22771 0.16967,0.45099 -0.0509,0.71677 -0.1975,0.23798 -0.25169,0.69879 -0.14128,1.20146 0.0985,0.44849 0.0606,0.95938 -0.0842,1.13532 -0.34481,0.41891 -0.4804,2.08339 -0.20588,2.52756 0.24595,0.39795 0.24645,3.65256 6.2e-4,4.05031 -0.0896,0.14492 0.0896,0.53222 0.39818,0.86066 0.51908,0.55254 0.77824,0.59557 3.46708,0.57573 1.59833,-0.0118 2.90616,-0.0831 2.90628,-0.15847 z m -4.16696,-0.69967 c -0.1851,-0.0747 -0.33073,-0.58705 -0.33073,-1.16364 0,-1.23553 0.5703,-1.69131 2.4474,-1.95595 1.15014,-0.16215 1.25677,-0.13091 1.25677,0.36819 0,0.38812 -0.17166,0.54642 -0.59531,0.54899 -1.21374,0.007 -1.78594,0.30586 -1.78594,0.93165 0,0.72225 -0.25243,1.45443 -0.49133,1.4251 -0.0936,-0.0115 -0.31896,-0.0809 -0.50086,-0.15434 z m 5.85211,0.67214 c 0.90074,-0.4104 1.07372,-1.26305 0.37856,-1.86596 -0.68864,-0.59725 -1.38752,-0.64246 -1.17004,-0.0757 0.086,0.22404 0.0204,0.62498 -0.14574,0.891 -0.27161,0.43491 -0.16488,1.3475 0.15759,1.3475 0.0705,0 0.42131,-0.13358 0.77963,-0.29684 z m 7.5755,-0.49691 c 0,-0.63639 -0.11304,-0.79375 -0.57018,-0.79375 -0.54723,0 -0.55151,0.0206 -0.10637,0.5125 0.25509,0.28187 0.38558,0.63905 0.28998,0.79375 -0.0956,0.15469 -0.0477,0.28125 0.10637,0.28125 0.15411,0 0.2802,-0.35719 0.2802,-0.79375 z m -18.25625,-1.20624 c 0,-0.35521 -0.11907,-0.64584 -0.26459,-0.64584 -0.14552,0 -0.26458,0.36421 -0.26458,0.80936 0,0.4722 0.11022,0.74125 0.26458,0.64585 0.14552,-0.0899 0.26459,-0.45416 0.26459,-0.80937 z m -1.5875,-1.04272 c 0,-0.21828 -0.17486,-0.39687 -0.38857,-0.39687 -0.2367,0 -0.32905,0.15512 -0.23628,0.39687 0.0838,0.21828 0.25862,0.39688 0.38857,0.39688 0.12995,0 0.23628,-0.1786 0.23628,-0.39688 z m 12.57858,-0.64385 c -0.0959,-0.15521 -0.30101,-0.28219 -0.45576,-0.28219 -0.17545,0 -0.15537,0.15181 0.0533,0.40327 0.36288,0.43725 0.68721,0.33967 0.40244,-0.12108 z m -14.96514,-0.15629 c -0.18408,-0.2218 -0.40357,-0.33439 -0.48776,-0.2502 -0.0842,0.0842 0.0221,0.26384 0.23615,0.39922 0.56011,0.35423 0.6333,0.31088 0.25161,-0.14902 z m 15.11885,-1.62741 c -0.23059,-0.39655 -0.28222,-0.40798 -0.28883,-0.0639 -0.009,0.44558 0.26966,0.84677 0.45718,0.65925 0.0618,-0.0618 -0.0139,-0.32973 -0.16835,-0.59531 z m 8.56666,-0.086 c 0.0899,-0.14552 0.0374,-0.26458 -0.11667,-0.26458 -0.15411,0 -0.2802,0.11906 -0.2802,0.26458 0,0.14552 0.0525,0.26458 0.11668,0.26458 0.0642,0 0.19026,-0.11906 0.28019,-0.26458 z m -4.79386,-1.00759 c 0.0727,-0.11761 -0.14952,-0.5641 -0.4938,-0.99219 -0.51753,-0.64351 -0.68668,-0.7182 -0.97644,-0.43114 -0.29066,0.28795 -0.27145,0.3918 0.11254,0.60846 0.25466,0.14369 0.46302,0.43393 0.46302,0.64498 0,0.40568 0.67029,0.53296 0.89468,0.16989 z m 2.10415,-0.27039 c -0.16282,-0.62262 -1.36676,-2.02978 -1.5661,-1.83044 -0.22343,0.22343 1.02793,2.31024 1.38677,2.31263 0.16828,10e-4 0.24898,-0.21586 0.17933,-0.48219 z m 2.29013,-0.0435 c 0.55425,-0.29662 1.31652,-1.66892 1.2106,-2.17941 -0.0383,-0.18457 -0.14131,-0.51417 -0.22891,-0.73245 -0.0876,-0.21828 -0.19489,-0.68521 -0.2384,-1.03761 -0.0564,-0.45682 -0.25697,-0.65348 -0.69874,-0.68517 -0.3408,-0.0245 -0.72128,-0.20893 -0.84551,-0.40995 -0.12424,-0.20102 -0.31448,-0.2769 -0.42275,-0.16863 -0.10828,0.10827 0.0537,0.37233 0.35983,0.58679 0.48922,0.34266 0.52034,0.48623 0.25676,1.18453 -0.16496,0.43704 -0.38916,0.79462 -0.49821,0.79462 -0.10905,0 -0.13762,0.15806 -0.0635,0.35125 0.0741,0.19318 0.0138,0.66943 -0.13405,1.05833 -0.17187,0.45205 -0.17576,0.70709 -0.0108,0.70709 0.14192,0 0.25804,0.17859 0.25804,0.39687 0,0.46046 0.35994,0.50606 1.05562,0.13374 z M 88.8606,141.78507 c 0,-0.14552 -0.12609,-0.26458 -0.2802,-0.26458 -0.15411,0 -0.20661,0.11906 -0.11668,0.26458 0.0899,0.14552 0.21603,0.26459 0.2802,0.26459 0.0642,0 0.11668,-0.11907 0.11668,-0.26459 z m 0.13229,-0.79375 c 0.0899,-0.14552 0.0374,-0.26458 -0.11668,-0.26458 -0.1541,0 -0.28019,0.11906 -0.28019,0.26458 0,0.14552 0.0525,0.26459 0.11667,0.26459 0.0642,0 0.19026,-0.11907 0.2802,-0.26459 z m 12.39881,-0.13229 c 0.0838,-0.21828 0.037,-0.39687 -0.10399,-0.39687 -0.14095,0 -0.25628,0.17859 -0.25628,0.39687 0,0.21828 0.0468,0.39688 0.10399,0.39688 0.0572,0 0.17251,-0.1786 0.25628,-0.39688 z m 0.0312,-1.65163 c 0.25331,-1.35026 0.38868,-1.50162 0.8442,-0.94389 0.2151,0.26337 0.32079,0.33825 0.23487,0.16641 -0.0859,-0.17185 -0.0288,-0.39123 0.12704,-0.48752 0.19038,-0.11766 0.14082,-0.3925 -0.15114,-0.83808 -0.23893,-0.36466 -0.47548,-1.3359 -0.52567,-2.15832 -0.11834,-1.93919 -0.76571,-2.10568 -0.83616,-0.21504 -0.0322,0.86433 -0.19565,1.38845 -0.5031,1.61326 -0.31991,0.23393 -0.36447,0.3892 -0.14976,0.52189 0.1681,0.10389 0.25252,0.44949 0.18761,0.76799 -0.45751,2.24492 -0.44823,2.56347 0.0746,2.56347 0.38165,0 0.55893,-0.25168 0.69747,-0.99017 z m -13.99406,-0.73682 c 0.3915,-0.51328 0.63444,-1.01062 0.53987,-1.10519 -0.2272,-0.2272 -1.75392,1.2448 -1.75392,1.69106 0,0.608 0.48019,0.37627 1.21405,-0.58587 z m -17.00806,29.86686 c -0.20438,-0.53263 0.70966,-1.3209 0.99545,-0.85847 0.2723,0.44058 -0.0272,1.2936 -0.45415,1.2936 -0.20587,0 -0.44946,-0.19581 -0.5413,-0.43513 z m 40.08275,-0.64967 c -0.0896,-0.26873 -5.24605,-0.35523 -7.4877,-0.12561 -0.78327,0.0802 -1.45521,-0.22799 -1.45521,-0.66752 0,-0.1241 0.30541,-0.10952 0.67868,0.0324 0.37328,0.14192 0.99836,0.25441 1.38906,0.24999 0.61029,-0.007 0.64514,-0.0461 0.24736,-0.27773 -0.46539,-0.27107 -0.63168,-1.30945 -0.26795,-1.67318 0.10728,-0.10728 0.20066,-0.33549 0.20752,-0.50712 0.007,-0.17163 0.1624,-0.98106 0.34566,-1.79873 0.18326,-0.81767 0.30961,-1.59158 0.28078,-1.71979 -0.0288,-0.12821 0.13664,-0.6568 0.3677,-1.17464 0.40831,-0.91505 2.28463,-2.18938 3.22364,-2.18938 0.20753,0 0.36533,-0.0694 0.35069,-0.15434 -0.0771,-0.44677 0.52063,-1.22008 0.98207,-1.27054 0.29104,-0.0318 0.91612,-0.13463 1.38906,-0.22846 0.74566,-0.14794 0.8599,-0.0986 0.8599,0.37102 0,0.39417 0.19807,0.56441 0.7276,0.62534 0.40923,0.0471 0.69866,0.22843 0.66146,0.41445 -0.0423,0.21125 0.24999,0.33073 0.80898,0.33073 0.76864,0 0.93267,0.13045 1.34814,1.07211 0.28937,0.65589 0.40717,1.33445 0.30343,1.74781 -0.10382,0.41364 -0.018,0.90709 0.22134,1.27234 0.21502,0.32815 0.36407,0.77973 0.33123,1.0035 -0.11861,0.80814 -1.638,2.66526 -2.46237,3.0097 -0.46363,0.19372 -0.91098,0.5626 -0.99412,0.81973 -0.0831,0.25713 -0.47272,0.61634 -0.86575,0.79825 -0.87688,0.40583 -1.06703,0.41216 -1.1912,0.0397 z m -5.96635,-1.40017 c 0.25466,-0.19332 0.46302,-0.56748 0.46302,-0.83146 0,-0.42586 -0.0746,-0.40991 -0.66146,0.14143 -0.98141,0.922 -0.82475,1.46674 0.19844,0.69003 z m 2.05052,0.10372 c 0,-0.14552 -0.18562,-0.26458 -0.41249,-0.26458 -0.22687,0 -0.3389,0.11906 -0.24897,0.26458 0.0899,0.14553 0.27556,0.26459 0.41249,0.26459 0.13694,0 0.24897,-0.11906 0.24897,-0.26459 z m 2.91042,-0.81114 c 0,-0.15509 -0.11531,-0.49743 -0.25624,-0.76077 -0.22607,-0.42242 -0.10925,-0.49847 0.99219,-0.6459 0.68663,-0.0919 1.58946,-0.34487 2.00627,-0.56214 0.41682,-0.21728 0.90993,-0.39505 1.0958,-0.39505 0.33853,0 0.8145,-1.2224 0.66965,-1.71979 -0.0424,-0.14552 -0.0818,-0.41341 -0.0875,-0.59531 -0.006,-0.1819 -0.0935,-0.33073 -0.19495,-0.33073 -0.10148,0 -0.50443,-0.46166 -0.89546,-1.02591 -0.54185,-0.78189 -0.94223,-1.06344 -1.68332,-1.1837 -0.5348,-0.0868 -1.08832,-0.0418 -1.23003,0.0999 -0.14171,0.14171 -0.6208,0.25948 -1.06464,0.26171 -1.2302,0.006 -1.45951,0.283 -1.99009,2.40246 -0.45773,1.82846 -0.46169,2.02028 -0.0593,2.87638 0.23712,0.5045 0.61367,1.11965 0.83677,1.36701 0.44825,0.49698 1.86086,0.65781 1.86086,0.21187 z m 3.53199,2.06953 c -0.24342,-0.39386 0.22054,-0.65186 1.44861,-0.80554 0.91588,-0.11462 1.11548,-0.0685 1.00049,0.23115 -0.16279,0.42421 0.25087,0.51479 0.5012,0.10975 0.0899,-0.14552 0.39156,-0.26458 0.67028,-0.26458 0.51943,0 1.3141,-1.2015 1.3141,-1.98685 0,-0.2341 0.12698,-0.34715 0.28218,-0.25123 0.15521,0.0959 0.21949,0.23711 0.14285,0.31375 -0.0766,0.0766 0.0369,0.48026 0.25242,0.89694 l 0.39177,0.75759 2.57424,-0.10608 c 1.41584,-0.0583 2.7733,-0.1854 3.01659,-0.28235 0.24329,-0.097 0.69676,-0.0401 1.00771,0.1263 0.32177,0.17221 0.91535,0.22571 1.37766,0.12416 0.81171,-0.17828 0.8122,-0.17949 0.66117,-1.6428 -0.0831,-0.80542 -0.27705,-1.59031 -0.43095,-1.7442 -0.1539,-0.1539 -0.28163,-0.52389 -0.28386,-0.82221 -0.003,-0.44282 -0.0499,-0.46994 -0.25357,-0.14773 -0.15693,0.24822 -0.15543,0.48875 0.004,0.64823 0.33505,0.33504 0.32659,0.75326 -0.011,0.54461 -0.32672,-0.20193 -0.33836,0.0262 -0.0313,0.6127 0.2967,0.56669 -0.094,1.63625 -0.59776,1.63625 -0.27893,0 -0.37661,-0.32301 -0.36333,-1.20147 0.01,-0.66081 -0.11983,-1.33946 -0.28849,-1.50812 -0.16866,-0.16866 -0.30665,-0.73528 -0.30665,-1.25916 0,-0.52387 -0.14373,-1.09622 -0.31939,-1.27189 -0.24947,-0.24946 -0.22768,-0.4111 0.0995,-0.73829 0.44744,-0.44744 0.4797,-0.42905 1.43766,0.81956 0.37449,0.48812 0.39357,0.4063 0.24589,-1.05477 -0.18097,-1.79054 -0.45127,-2.2342 -1.05558,-1.73266 -0.22445,0.18627 -0.40809,0.24999 -0.40809,0.1416 0,-0.1084 -0.14883,-0.0913 -0.33073,0.0379 -0.38682,0.27487 -0.92493,0.26143 -1.62652,-0.0406 -0.28598,-0.12313 -0.82684,-0.0936 -1.25677,0.0687 -0.60826,0.22959 -0.75473,0.21231 -0.75473,-0.089 0,-0.20564 -0.11907,-0.37389 -0.26459,-0.37389 -0.14552,0 -0.26458,0.11906 -0.26458,0.26458 0,0.14552 -0.42997,0.26459 -0.95549,0.26459 -0.95399,0 -0.9552,10e-4 -0.77655,0.95382 0.13476,0.71831 0.0948,0.92579 -0.16169,0.84028 -0.18735,-0.0624 -0.41682,-0.40237 -0.50995,-0.75539 -0.14227,-0.53931 -0.19984,-0.57034 -0.3604,-0.19427 -0.29142,0.68254 -0.0476,1.40888 0.45911,1.36777 0.24909,-0.0202 0.45289,0.0691 0.45289,0.19844 0,0.12935 -0.11907,0.23518 -0.26459,0.23518 -0.14552,0 -0.26458,0.17009 -0.26458,0.37798 0,0.20788 -0.17553,0.55351 -0.39008,0.76805 -0.34371,0.34371 -0.34171,0.40863 0.0168,0.5462 0.22377,0.0859 0.33275,0.27602 0.24217,0.42257 -0.0906,0.14655 -0.0386,0.26645 0.11552,0.26645 0.15411,0 0.2802,0.29766 0.2802,0.66146 0,1.04083 -0.84725,0.83347 -1.36369,-0.33377 -0.38599,-0.87239 -0.47971,-1.49534 -0.54687,-3.63498 -0.009,-0.29104 0.0687,-1.24354 0.17286,-2.11667 0.1042,-0.87312 0.22953,-1.98764 0.27851,-2.4767 0.10682,-1.06654 0.47077,-1.49107 1.07839,-1.25791 0.56088,0.21523 0.36966,1.8254 -0.30536,2.57129 -0.39949,0.44143 -0.40225,0.50693 -0.0274,0.65078 0.22925,0.088 0.62934,0.041 0.88908,-0.10434 0.30525,-0.17083 0.64043,-0.17429 0.9478,-0.01 0.30521,0.16334 0.97802,0.16161 1.87833,-0.005 0.89844,-0.16608 1.80617,-0.16868 2.52479,-0.007 0.61711,0.13865 1.23301,0.1835 1.36866,0.0997 0.50095,-0.30961 1.49908,-0.4373 3.89407,-0.49819 1.44187,-0.0367 2.58275,-0.19035 2.76489,-0.37249 0.17055,-0.17055 0.51052,-0.31009 0.7555,-0.31009 0.26499,0 0.49662,-0.26793 0.57185,-0.66146 0.0695,-0.3638 0.0239,-0.66146 -0.10145,-0.66146 -0.12534,0 -0.22789,-0.23812 -0.22789,-0.52916 0,-0.58129 0.31216,-0.66392 1.03889,-0.27499 0.26121,0.1398 1.21525,0.30372 2.12008,0.36428 1.26463,0.0846 1.67906,0.0217 1.79176,-0.27196 0.26441,-0.68905 -0.40085,-0.95981 -2.4929,-1.01458 -2.55863,-0.067 -2.45783,-0.0456 -2.45783,-0.52254 0,-0.21829 0.20836,-0.41451 0.46302,-0.43605 0.25466,-0.0215 0.64161,-0.0634 0.85989,-0.0931 0.21828,-0.0297 0.94969,-0.0716 1.62534,-0.0931 0.87769,-0.028 1.2768,-0.16513 1.39774,-0.48029 0.27372,-0.7133 -0.15797,-0.88649 -2.37559,-0.95308 -1.75395,-0.0527 -2.11033,-0.13831 -2.1848,-0.525 -0.11526,-0.5985 1.06147,-0.63854 1.54771,-0.0526 0.22504,0.27116 0.39906,0.31347 0.51535,0.12529 0.0966,-0.15625 0.7971,-0.35771 1.55674,-0.44767 1.05161,-0.12455 1.36234,-0.26127 1.30231,-0.57299 -0.0595,-0.30901 -0.44183,-0.41317 -1.55896,-0.42474 -0.81406,-0.008 -1.6676,-0.17097 -1.89674,-0.36118 -0.35813,-0.29729 -0.39774,-0.27362 -0.2821,0.16858 0.12532,0.47923 0.0482,0.49832 -1.12625,0.2789 -0.69343,-0.12955 -1.80083,-0.18509 -2.46091,-0.12343 -0.66007,0.0617 -1.40556,0.002 -1.65663,-0.1322 -0.45999,-0.24617 -0.89383,0.0575 -0.55962,0.39168 0.0986,0.0986 0.21712,0.50212 0.26346,0.8968 0.0463,0.39468 0.26496,1.53628 0.48581,2.53688 0.22086,1.00061 0.35423,1.86662 0.29639,1.92446 -0.27482,0.27481 -0.97561,-0.29226 -0.98308,-0.79549 -0.009,-0.58091 -0.5601,-1.49304 -0.9027,-1.49304 -0.10522,0 -0.14118,0.14883 -0.0799,0.33073 0.15012,0.44561 -0.58227,0.97342 -1.36509,0.98377 -0.60295,0.008 -0.61302,0.0342 -0.19206,0.49932 0.52778,0.58319 0.38393,1.05362 -0.52572,1.7193 -0.65682,0.48065 -0.68194,0.47933 -1.26258,-0.0661 -0.69393,-0.65191 -0.9552,-0.70089 -0.9552,-0.17906 0,0.39707 -1.5686,1.3171 -1.81887,1.06683 -0.08,-0.08 -10e-4,-0.37657 0.17524,-0.65902 0.17639,-0.28245 0.32071,-0.69375 0.32071,-0.91401 0,-0.22025 0.14883,-0.40425 0.33073,-0.40888 0.18592,-0.005 0.10526,-0.17894 -0.18421,-0.39786 -0.59121,-0.44713 -0.36908,-0.76468 0.71338,-1.01981 0.54969,-0.12956 0.7276,-0.0732 0.7276,0.23042 0,0.22106 0.1318,0.40192 0.29289,0.40192 0.16109,0 0.22557,-0.17545 0.14328,-0.38988 -0.2042,-0.53215 0.59854,-0.95228 1.15524,-0.60461 0.31966,0.19963 0.61878,0.15166 1.12579,-0.18054 0.70072,-0.45914 0.72669,-1.20622 0.0419,-1.20622 -0.19759,0 -0.48848,-0.24146 -0.64643,-0.53658 -0.15794,-0.29512 -0.39431,-0.47036 -0.52527,-0.38942 -0.13096,0.0809 -0.62037,-0.27291 -1.08757,-0.78634 -0.90269,-0.99199 -1.29361,-1.16347 -1.29361,-0.56748 0,0.32196 -0.66546,0.68278 -1.45521,0.78902 -0.14552,0.0196 -0.26458,0.17363 -0.26458,0.34235 0,0.30733 -1.30843,1.46712 -1.58199,1.40228 -0.66128,-0.15674 -2.22925,0.409 -2.63648,0.95128 -0.26722,0.35583 -0.65628,0.64697 -0.86457,0.64697 -0.20829,0 -0.56655,0.18784 -0.79613,0.41742 -0.22958,0.22958 -0.6378,0.35979 -0.90715,0.28935 -0.26934,-0.0704 -0.48972,-0.0314 -0.48972,0.0869 0,0.1182 -0.30123,0.0773 -0.66941,-0.0909 -0.5126,-0.23419 -0.63537,-0.44528 -0.52412,-0.90115 0.0799,-0.32742 0.0239,-0.59531 -0.12435,-0.59531 -0.14829,0 -0.26962,0.17859 -0.26962,0.39688 0,0.21828 -0.0893,0.40604 -0.19844,0.41725 -0.10914,0.0112 -0.67469,0.0689 -1.25677,0.12822 -1.53514,0.15644 -2.01579,-0.29929 -1.70934,-1.62072 0.13283,-0.57278 0.24435,-1.36109 0.24782,-1.7518 0.003,-0.39071 0.12735,-1.02873 0.27528,-1.41782 0.22936,-0.60327 0.32975,-0.657 0.68173,-0.36488 0.3317,0.27529 0.37684,0.65762 0.22987,1.94698 -0.10058,0.88244 -0.29248,1.81279 -0.42645,2.06745 -0.17224,0.32742 -0.14398,0.46184 0.0965,0.45897 0.59735,-0.007 1.08348,-0.459 0.92844,-0.86304 -0.0826,-0.21524 -0.0511,-0.49515 0.0699,-0.62202 0.12106,-0.12687 0.26058,-1.2869 0.31005,-2.57783 0.0921,-2.40447 0.0707,-2.46551 -1.0502,-2.98223 -0.23416,-0.10796 -0.2645,-1.82106 -0.0371,-2.09506 0.183,-0.2205 0.1508,-0.36268 -0.10429,-0.46057 -0.27518,-0.1056 -0.34415,-0.54836 -0.27127,-1.74134 0.0838,-1.37086 0.0243,-1.63904 -0.41544,-1.87439 -0.32042,-0.17149 -0.57167,-0.18001 -0.6689,-0.0227 -0.19585,0.31689 -0.0684,2.4818 0.15664,2.65988 0.0919,0.0728 -0.0114,0.68867 -0.22956,1.36868 -0.35154,1.09559 -0.46087,1.21195 -0.95999,1.0217 -0.34892,-0.13299 -0.5332,-0.40212 -0.48425,-0.70722 0.0435,-0.2709 0.12153,-0.75362 0.17348,-1.07273 0.052,-0.31911 0.17225,-0.70606 0.26732,-0.8599 0.0951,-0.15383 0.0322,-0.2797 -0.13973,-0.2797 -0.2391,0 -0.23975,-0.0878 -0.003,-0.37332 0.21181,-0.2552 0.22206,-0.42756 0.0324,-0.54478 -0.3024,-0.18689 -0.36009,-1.26035 -0.11653,-2.16834 0.0845,-0.3151 0.44009,-0.64479 0.79014,-0.73265 0.59282,-0.14878 0.63674,-0.28186 0.64051,-1.94063 0.005,-2.1379 0.28932,-2.79126 0.93444,-2.14631 0.34671,0.34662 0.37834,0.60983 0.16577,1.37968 -0.29461,1.06702 -0.11254,3.08677 0.27826,3.08677 0.13999,0 0.31679,-0.23812 0.3929,-0.52917 0.17355,-0.66366 0.24935,-0.66034 1.29599,0.0568 l 0.85519,0.58599 -0.0847,2.25828 c -0.0466,1.24205 -0.10777,2.28804 -0.13602,2.32442 -0.0283,0.0364 -0.07,0.66146 -0.0927,1.38907 -0.0344,1.09928 0.0369,1.32291 0.42168,1.32291 0.28663,0 0.46302,0.20159 0.46302,0.52917 0,0.29104 0.10632,0.52917 0.23627,0.52917 0.30194,0 0.55748,-0.66399 0.55748,-1.44854 0,-0.50218 0.68382,-1.13756 0.93933,-0.8728 0.0384,0.0398 0.13918,1.29681 0.22392,2.79334 0.23773,4.19785 0.41002,4.54268 1.74716,3.49675 0.70739,-0.55333 1.5875,-0.70002 1.5875,-0.26459 0,0.49444 0.84257,0.26734 0.98167,-0.26458 0.0761,-0.29104 0.31767,-0.52917 0.5368,-0.52917 0.30477,0 0.32863,-0.0841 0.10152,-0.35773 -0.22953,-0.27656 -0.1163,-0.54669 0.49907,-1.19062 0.78441,-0.82081 0.78424,-0.88811 -0.002,-0.93934 -0.22775,-0.0148 -0.43255,-0.33592 -0.4806,-0.75345 -0.11367,-0.98794 -0.47567,-0.91513 -0.86985,0.17496 -0.24742,0.68421 -0.5076,0.92917 -1.07546,1.01251 -0.62205,0.0913 -0.74909,0.0145 -0.74909,-0.45278 0,-0.30949 0.13239,-0.6951 0.2942,-0.85691 0.41611,-0.41611 0.45633,-3.21299 0.0538,-3.74199 -0.36522,-0.48 -0.46204,-1.36121 -0.14958,-1.3615 0.10914,-1e-4 0.21561,-0.29776 0.23659,-0.66146 0.021,-0.3637 -0.0433,-0.66127 -0.14287,-0.66127 -0.314,0 -0.15849,-1.56242 0.19022,-1.91113 0.26815,-0.26815 0.37997,-0.25806 0.57133,0.0516 0.20573,0.33287 0.36852,0.32271 1.20263,-0.0751 0.94072,-0.4486 0.96818,-0.44671 1.10483,0.0758 0.0771,0.29473 0.24758,0.53586 0.3789,0.53586 0.13132,0 0.16405,-0.29765 0.0727,-0.66145 -0.13777,-0.5489 -0.0711,-0.66146 0.39183,-0.66146 0.33014,0 0.55785,0.16928 0.55785,0.4147 0,0.28793 0.15464,0.36563 0.50585,0.25415 0.56613,-0.17968 0.66562,0.12451 0.95612,2.92349 0.1593,1.53489 0.20801,1.62284 1.07157,1.93511 0.81962,0.29638 1.02774,0.26017 2.21329,-0.38509 1.20896,-0.65799 1.3414,-0.67943 1.73937,-0.28146 0.23692,0.23692 0.51156,0.42894 0.6103,0.42671 0.32482,-0.007 0.88803,-0.44842 0.79745,-0.62454 -0.10568,-0.2055 1.28128,-0.95891 1.76528,-0.95891 0.55128,0 0.7381,0.87569 0.26121,1.22439 -0.25534,0.18671 -0.32033,0.37831 -0.1616,0.47641 0.14628,0.0904 0.20549,0.66617 0.13186,1.28217 -0.0735,0.61494 -0.13893,1.38597 -0.14537,1.71339 -0.008,0.38178 -0.17475,0.59531 -0.46624,0.59531 -0.30443,0 -0.53697,0.32762 -0.70423,0.99219 l -0.24971,0.99219 -0.68719,-0.72761 c -0.69458,-0.73544 -1.28796,-0.94876 -1.28796,-0.46302 0,0.14552 0.10518,0.26458 0.23372,0.26458 0.12855,0 0.29423,0.23134 0.36817,0.51409 0.11385,0.43536 0.31102,0.49546 1.28763,0.39247 0.63425,-0.0669 1.7485,-0.17032 2.47611,-0.22984 0.7276,-0.0595 1.82087,-0.21867 2.42949,-0.35367 0.84379,-0.18716 1.19268,-0.15935 1.46911,0.11708 0.28784,0.28783 0.53961,0.30079 1.22203,0.0629 0.47273,-0.16479 0.93828,-0.22084 1.03457,-0.12455 0.0963,0.0963 0.21462,1.21138 0.26295,2.47798 0.16731,4.38454 0.23197,5.21544 0.44198,5.68031 0.11604,0.25684 0.15434,0.68355 0.0851,0.94826 -0.0838,0.32056 0.12684,0.65057 0.63088,0.98823 0.92434,0.61924 0.97975,1.00786 0.12027,0.84356 -0.55593,-0.10627 -0.60017,-0.0614 -0.34392,0.34891 0.16173,0.25899 0.39238,0.41012 0.51254,0.33586 0.12016,-0.0743 0.3461,0.23109 0.50209,0.67857 0.15599,0.44748 0.38157,0.81359 0.5013,0.81359 0.11972,0 0.29432,0.34896 0.388,0.77547 0.0937,0.42651 0.33211,0.90974 0.52985,1.07386 0.2052,0.17029 0.30672,0.58964 0.2365,0.97688 -0.0967,0.53344 -0.0345,0.64453 0.29092,0.51965 0.23483,-0.0901 0.64033,0.0675 0.93712,0.36431 0.62272,0.62273 0.67428,1.05233 0.12629,1.05233 -0.21828,0 -0.39688,0.11907 -0.39688,0.26459 0,0.14552 -0.2282,0.26458 -0.50711,0.26458 -0.27892,0 -0.56718,0.14883 -0.64057,0.33073 -0.0734,0.1819 -0.14286,0.2041 -0.15435,0.0493 -0.0137,-0.18483 -0.76996,-0.24033 -2.2037,-0.16172 -1.20054,0.0658 -2.68329,0.12739 -3.295,0.13681 -0.85127,0.0131 -1.04858,0.0938 -0.84104,0.34384 0.20791,0.25053 0.0175,0.32321 -0.81673,0.31169 -0.59833,-0.008 -1.29142,0.16033 -1.5402,0.37464 -0.40048,0.34497 -2.23251,0.45481 -3.09817,0.18575 -0.14552,-0.0452 -0.89318,0.0112 -1.66147,0.1253 -0.98156,0.14583 -1.51256,0.11153 -1.78594,-0.11535 -0.26011,-0.21588 -0.38905,-0.22721 -0.38905,-0.0342 0,0.15877 -0.17859,0.22014 -0.39688,0.13638 -0.21828,-0.0838 -0.39687,-0.0243 -0.39687,0.13214 0,0.33376 -2.86553,0.32345 -3.07226,-0.011 -0.0742,-0.12001 -0.35689,-0.0994 -0.62826,0.0459 -0.27852,0.14906 -0.74398,0.17137 -1.06877,0.0512 -0.32762,-0.12119 -1.27597,-0.0715 -2.20251,0.11549 -2.11899,0.42758 -5.97026,0.61491 -6.16496,0.29988 z m 20.54825,-1.52522 0.7463,-0.53141 -0.66639,-1.25452 c -0.36652,-0.68999 -0.75542,-1.31406 -0.86423,-1.38682 -0.1088,-0.0728 -0.27437,-0.31088 -0.36793,-0.52917 -0.17412,-0.40625 -0.0543,1.032 0.16535,1.98438 0.0671,0.29104 0.004,0.67799 -0.14097,0.8599 -0.1755,0.22069 -0.17243,0.33072 0.009,0.33072 0.14972,0 0.20994,0.23813 0.13383,0.52917 -0.17448,0.66724 0.0453,0.66674 0.98483,-0.002 z m -3.53387,-0.0125 c 0.27387,-0.27387 0.11418,-1.7053 -0.3009,-2.69728 -0.14365,-0.34329 -0.0667,-0.4651 0.29758,-0.47106 0.46402,-0.008 0.4653,-0.0232 0.023,-0.28072 -0.56586,-0.32943 -1.51602,-0.0747 -1.51602,0.40649 0,0.19065 0.17859,0.49486 0.39688,0.67602 0.45539,0.37794 0.53111,1.4733 0.11944,1.72773 -0.18966,0.11722 -0.17941,0.28958 0.0324,0.54478 0.37031,0.44621 0.57515,0.46653 0.94765,0.094 z m 1.58733,-0.129 c 0.21426,-0.55836 -0.14337,-0.85982 -0.4482,-0.3778 -0.32391,0.51216 -0.31741,0.78608 0.0186,0.78608 0.15009,0 0.34339,-0.18372 0.42956,-0.40828 z m 4.58922,-0.92394 c 0,-0.1404 0.44648,-0.25906 0.99218,-0.26369 0.83513,-0.007 0.92544,-0.0594 0.5705,-0.33073 -0.51764,-0.39566 -0.8968,-2.19644 -0.51247,-2.43396 0.49731,-0.30736 0.2826,-0.9404 -0.40801,-1.20297 -0.79914,-0.30383 -0.78483,-1.12393 0.0223,-1.27702 0.61971,-0.11754 0.96643,-0.56638 0.79624,-1.03076 -0.0667,-0.1819 0.0454,-0.33073 0.24896,-0.33073 0.20359,0 0.40822,0.25857 0.45472,0.57459 0.14397,0.97845 0.65563,0.83856 0.63384,-0.17331 -0.0214,-0.99413 -0.67447,-1.48531 -1.29269,-0.97224 -0.2167,0.17985 -0.69047,0.16793 -1.45689,-0.0366 -1.35806,-0.36249 -1.73486,-0.0265 -1.4975,1.33519 0.11571,0.66384 0.0567,0.8599 -0.25898,0.8599 -0.22487,0 -0.40886,-0.17859 -0.40886,-0.39687 0,-0.21829 -0.11906,-0.39688 -0.26458,-0.39688 -0.14552,0 -0.26459,0.29766 -0.26459,0.66146 0,0.55071 0.12616,0.66146 0.75349,0.66146 0.6558,0 0.75641,0.1029 0.77605,0.79375 0.0124,0.43656 -0.0885,0.79375 -0.22432,0.79375 -0.13578,0 -0.24688,0.12609 -0.24688,0.2802 0,0.1541 0.11812,0.20719 0.26248,0.11797 0.14437,-0.0892 0.45263,-0.0558 0.68501,0.0742 0.36491,0.20421 0.37131,0.28766 0.047,0.61199 -0.20654,0.20655 -0.32628,0.52331 -0.26608,0.70391 0.0602,0.1806 -0.005,0.32836 -0.14411,0.32836 -0.25432,0 -0.36392,1.28083 -0.14156,1.65437 0.15249,0.25616 1.14478,-0.26855 1.14478,-0.60534 z m 3.64276,-0.25528 c -0.18176,-0.29104 -0.48461,-0.52916 -0.67301,-0.52916 -0.26055,0 -0.27475,0.12666 -0.0593,0.52916 0.15576,0.29105 0.45862,0.52917 0.67301,0.52917 0.32358,0 0.33366,-0.0899 0.0593,-0.52917 z m -8.40526,-0.13229 c 0,-0.21828 -0.1786,-0.39687 -0.39688,-0.39687 -0.41316,0 -0.52492,0.31292 -0.22048,0.61736 0.30443,0.30444 0.61736,0.19268 0.61736,-0.22049 z m -0.48066,-1.77712 c -0.18986,-0.18985 -0.31309,-0.20547 -0.31309,-0.0397 0,0.35316 0.3129,0.66606 0.48948,0.48948 0.0752,-0.0752 -0.004,-0.2776 -0.17639,-0.4498 z m -0.84226,-1.26559 c 0,-0.14552 -0.12609,-0.26458 -0.2802,-0.26458 -0.15411,0 -0.20661,0.11906 -0.11667,0.26458 0.0899,0.14552 0.21602,0.26459 0.28019,0.26459 0.0642,0 0.11668,-0.11907 0.11668,-0.26459 z m 8.88693,-0.72626 c -0.28903,-0.28903 -0.48722,0.17062 -0.27971,0.64871 0.19676,0.45333 0.21103,0.45291 0.32066,-0.009 0.0631,-0.26605 0.0447,-0.55379 -0.0409,-0.63941 z m -9.74131,0.24671 c 0.0585,-0.17551 -0.13858,-0.3142 -0.44649,-0.3142 -0.54962,0 -0.71436,0.27783 -0.36931,0.62288 0.24513,0.24513 0.68691,0.078 0.8158,-0.30868 z m 3.17318,-1.50759 c -0.15532,-0.72608 -0.28115,-1.65306 -0.27962,-2.05996 0.004,-0.9492 -0.80603,-0.87949 -0.94137,0.0811 -0.0511,0.36231 -0.22965,0.74623 -0.39688,0.85314 -0.19684,0.12584 -0.14453,0.19581 0.14835,0.19844 0.30658,0.003 0.55084,0.3665 0.75782,1.12853 0.55522,2.0442 0.51689,1.96855 0.76962,1.51858 0.12728,-0.22661 0.1022,-0.97124 -0.0579,-1.71979 z m 1.64995,1.3413 c 0,-0.27926 -0.50777,-0.39659 -0.65879,-0.15222 -0.0914,0.14789 0.0194,0.2689 0.2463,0.2689 0.22687,0 0.41249,-0.0525 0.41249,-0.11668 z m -3.68111,-1.81819 c -0.1582,-0.1582 -0.28764,-0.68054 -0.28764,-1.16076 0,-1.05061 -0.65337,-1.20387 -0.9024,-0.21166 -0.0913,0.3638 -0.29555,0.66145 -0.45386,0.66145 -0.15832,0 -0.21593,-0.18744 -0.12802,-0.41653 0.0879,-0.22909 -0.007,-0.58296 -0.21,-0.78637 -0.31673,-0.31673 -0.41474,-0.31573 -0.68255,0.007 -0.38311,0.46162 -0.16443,1.23371 0.52654,1.85902 0.44502,0.40275 0.57907,0.41714 0.95775,0.10287 0.37871,-0.3143 0.47944,-0.30337 0.72012,0.0782 0.15391,0.24399 0.3851,0.37856 0.51376,0.29904 0.12866,-0.0795 0.1045,-0.27402 -0.0537,-0.43222 z m 6.28516,-2.44019 c 1.65067,0.11985 1.77497,0.0501 1.63419,-0.91661 -0.088,-0.60432 -0.47409,-0.73367 -1.58407,-0.53069 -0.55689,0.10183 -1.20424,0.0779 -1.43857,-0.0533 -0.63896,-0.35758 -0.93806,-0.0291 -0.89981,0.98814 0.0251,0.66911 0.11763,0.84341 0.34664,0.65335 0.17179,-0.14257 1.04552,-0.20599 1.94162,-0.14092 z m -25.35822,-4.62078 c 0,-0.14552 -0.0525,-0.26458 -0.11667,-0.26458 -0.0642,0 -0.19027,0.11906 -0.2802,0.26458 -0.0899,0.14552 -0.0374,0.26459 0.11667,0.26459 0.15411,0 0.2802,-0.11907 0.2802,-0.26459 z m 27.51667,-3.175 c 0,-0.14552 -0.12609,-0.26458 -0.2802,-0.26458 -0.15411,0 -0.20661,0.11906 -0.11667,0.26458 0.0899,0.14552 0.21602,0.26459 0.28019,0.26459 0.0642,0 0.11668,-0.11907 0.11668,-0.26459 z M 112.872,147.18738 c -0.0875,-0.0876 -0.362,-0.0457 -0.60989,0.093 -0.2735,0.15306 -0.34308,0.31873 -0.17697,0.42139 0.15054,0.093 0.22169,0.43694 0.15809,0.76422 -0.0823,0.42335 0.0147,0.34769 0.33617,-0.2622 0.24849,-0.47149 0.38016,-0.92888 0.2926,-1.01644 z m 14.6602,0.94764 c 0.19324,-0.43656 0.50314,-0.79375 0.68867,-0.79375 0.20961,0 0.29111,-0.2254 0.21524,-0.59531 -0.39037,-1.90349 -0.4242,-2.64927 -0.13593,-2.99662 0.22347,-0.26926 0.22796,-0.37682 0.0157,-0.37682 -0.16334,0 -0.29698,-0.25797 -0.29698,-0.57326 0,-1.02753 -0.31395,-0.2896 -0.48981,1.15127 -0.14919,1.22239 -0.25437,1.41806 -0.80399,1.49577 -0.60418,0.0854 -0.62623,0.0352 -0.49505,-1.12866 0.14281,-1.26701 -0.10952,-1.72025 -0.68966,-1.23877 -0.23916,0.19848 -0.42184,0.19788 -0.62176,-0.002 -0.15571,-0.1557 -0.49276,-0.24217 -0.74901,-0.19214 -0.74825,0.14608 -0.61892,2.02235 0.225,3.26429 0.37976,0.55886 0.63312,1.1089 0.56303,1.2223 -0.12142,0.19647 1.66314,1.55749 2.04216,1.55749 0.0995,0 0.3391,-0.35718 0.53234,-0.79375 z m -5.59866,0.14791 c 0,-0.0642 -0.11907,-0.19026 -0.26459,-0.2802 -0.14552,-0.0899 -0.26458,-0.0374 -0.26458,0.11668 0,0.15411 0.11906,0.2802 0.26458,0.2802 0.14552,0 0.26459,-0.0525 0.26459,-0.11668 z m 11.37708,-0.41249 c 0,-0.14552 -0.11906,-0.26458 -0.26458,-0.26458 -0.14552,0 -0.26459,0.11906 -0.26459,0.26458 0,0.14552 0.11907,0.26458 0.26459,0.26458 0.14552,0 0.26458,-0.11906 0.26458,-0.26458 z m -11.37714,-0.52898 c 0,-0.14552 -0.11204,-0.26458 -0.24897,-0.26458 -0.13693,0 -0.32255,0.11906 -0.41249,0.26458 -0.0899,0.14552 0.0221,0.26459 0.24897,0.26459 0.22687,0 0.41249,-0.11907 0.41249,-0.26459 z m -9.26042,-1.07394 c 0,-0.13694 -0.17859,-0.24897 -0.39688,-0.24897 -0.40915,0 -0.52564,0.3122 -0.22767,0.61017 0.21138,0.21138 0.62455,-0.0276 0.62455,-0.3612 z m 9.39271,-0.77814 c -0.12801,-0.20713 -0.28021,-0.2225 -0.4566,-0.0461 -0.14552,0.14552 -0.17818,0.4044 -0.0726,0.57528 0.12801,0.20712 0.28021,0.22249 0.4566,0.0461 0.14552,-0.14552 0.17818,-0.40439 0.0726,-0.57527 z m -2.24896,-1.37583 c 0,-0.42742 -0.0782,-0.50385 -0.29445,-0.28764 -0.16194,0.16195 -0.21445,0.42388 -0.11667,0.58208 0.27368,0.44283 0.41112,0.3444 0.41112,-0.29444 z m 2.64583,-0.22728 c 0,-0.13694 -0.11906,-0.24897 -0.26458,-0.24897 -0.14552,0 -0.26458,0.18562 -0.26458,0.41249 0,0.22687 0.11906,0.3389 0.26458,0.24897 0.14552,-0.0899 0.26458,-0.27556 0.26458,-0.41249 z m 7.40834,-0.51356 c 0,-0.58208 -0.11907,-1.05833 -0.26459,-1.05833 -0.14552,0 -0.35388,0 -0.46302,0 -0.10914,0 -0.18355,0.17859 -0.16536,0.39688 0.0182,0.21828 0.0479,0.69453 0.0661,1.05833 0.0198,0.39687 0.19183,0.66146 0.42995,0.66146 0.28663,0 0.39688,-0.29398 0.39688,-1.05834 z m -7.44748,-0.85989 c 0.0256,-0.47294 0.0637,-1.03849 0.0846,-1.25677 0.0819,-0.85616 -0.0536,-2.46126 -0.19574,-2.31911 -0.18964,0.18963 -0.37411,3.96478 -0.20696,4.23524 0.21321,0.34498 0.27012,0.22705 0.31815,-0.65936 z m -2.31355,-0.63851 c -0.0947,-2.26603 -0.0827,-3.02452 0.0587,-3.70384 0.086,-0.41298 0.0938,-0.60874 0.0174,-0.43502 -0.0764,0.17373 -0.30979,0.25029 -0.51867,0.17013 -0.22758,-0.0873 -0.37978,0.0158 -0.37978,0.2574 0,0.22173 -0.14681,0.45207 -0.32625,0.51189 -0.25834,0.0861 -0.25734,0.51066 0.005,2.0395 0.1821,1.06192 0.40188,2.04531 0.48841,2.18531 0.26944,0.43596 0.68897,-0.22047 0.65532,-1.02537 z m -9.02439,-0.91408 c 0,-0.14552 -0.11906,-0.19099 -0.26458,-0.10106 -0.14552,0.0899 -0.26459,0.28259 -0.26459,0.42811 0,0.14552 0.11907,0.191 0.26459,0.10106 0.14552,-0.0899 0.26458,-0.28259 0.26458,-0.42811 z m -22.225,26.3668 c 0,-0.50866 0.62633,-0.79184 1.23487,-0.55832 0.51014,0.19575 0.23848,0.53619 -0.63956,0.80147 -0.44412,0.13418 -0.59531,0.0724 -0.59531,-0.24315 z m 3.54594,-0.0749 c -0.18239,-0.18148 -0.51906,-0.25804 -0.74816,-0.17013 -0.27636,0.10605 -0.41653,0.0114 -0.41653,-0.28136 0,-0.38462 0.22907,-0.42003 1.78594,-0.2761 3.43056,0.31715 3.90496,0.32356 4.24117,0.0573 0.22958,-0.18183 0.53831,-0.17713 0.95911,0.0146 0.3413,0.15551 1.11168,0.21686 1.71196,0.13635 1.1381,-0.15265 1.19288,-0.11986 0.93266,0.55826 -0.12161,0.31692 -0.27632,0.35074 -0.66146,0.14462 -0.34188,-0.18297 -0.66606,-0.18162 -1.01329,0.004 -0.72528,0.38815 -6.36943,0.23214 -6.7914,-0.18773 z m -0.0958,-2.83233 c -0.32492,-0.3915 -0.17431,-1.31436 0.31421,-1.92537 0.18547,-0.23197 0.40369,-0.24826 0.76137,-0.0568 0.59845,0.32028 0.66315,1.18936 0.10451,1.40373 -0.21828,0.0838 -0.39688,0.33463 -0.39688,0.55748 0,0.51118 -0.3682,0.52105 -0.78321,0.021 z m 4.92835,0.20779 c -0.097,-0.097 -0.17639,-0.41452 -0.17639,-0.70556 0,-0.29104 -0.0893,-0.43987 -0.19843,-0.33073 -0.10915,0.10914 -0.19844,0.33571 -0.19844,0.5035 0,0.16778 -0.20411,0.34436 -0.45357,0.3924 -0.54,0.104 -0.95804,-1.15557 -0.52669,-1.58692 0.15259,-0.1526 0.21487,-0.44054 0.13838,-0.63986 -0.19157,-0.49921 0.62125,-0.76099 1.32275,-0.42601 0.3176,0.15166 0.78582,0.34234 1.04048,0.42373 0.49779,0.15909 0.63355,1.08629 0.19844,1.35521 -0.14552,0.0899 -0.26458,0.39462 -0.26458,0.67707 0,0.49718 -0.52227,0.69684 -0.88195,0.33717 z m -12.47951,-0.35278 c -0.0899,-0.14552 -0.0793,-0.40081 0.0236,-0.5673 0.1029,-0.16649 0.17681,-0.6643 0.16424,-1.10625 -0.0246,-0.86353 0.34621,-1.76604 0.7255,-1.76604 0.12827,0 0.33921,0.31795 0.46874,0.70656 0.4497,1.34908 -0.75951,3.74031 -1.38204,2.73303 z m 37.89741,-0.33073 c -0.0698,-0.1819 -0.1357,-0.44979 -0.14643,-0.59531 -0.0107,-0.14553 -0.52318,-0.38722 -1.13876,-0.5371 -1.18259,-0.28794 -1.72364,-0.91811 -0.78827,-0.91811 0.36193,0 0.60218,-0.22314 0.71219,-0.66146 0.18484,-0.73646 0.40422,-0.80012 1.25052,-0.36288 1.11558,0.57637 1.5269,1.07477 1.20605,1.46137 -0.18545,0.22346 -0.19568,0.35672 -0.0274,0.35672 0.36179,0 0.60926,0.69992 0.42096,1.19062 -0.1841,0.47976 -1.31096,0.52982 -1.48889,0.0661 z m -47.88543,-8.49636 c -0.83931,-0.67539 -0.99159,-1.75625 -0.24744,-1.75625 0.53606,0 1.53597,1.79802 1.18767,2.13565 -0.11695,0.11336 -0.54005,-0.0574 -0.94023,-0.3794 z m 51.79159,-1.22804 c -0.24211,-0.39175 0.1914,-1.0849 0.62616,-1.00118 0.64275,0.12378 0.67858,0.91074 0.049,1.07538 -0.29794,0.0779 -0.60175,0.0445 -0.67513,-0.0742 z m -17.06503,-8.20112 c -0.34202,-0.22104 -0.33504,-0.25704 0.0505,-0.26053 0.24607,-0.002 0.52099,0.11501 0.61093,0.26053 0.20695,0.33485 -0.14331,0.33485 -0.66146,0 z m -15.61042,-3.4552 c 0,-0.29963 0.10562,-0.47951 0.23471,-0.39972 0.12909,0.0798 0.21839,-0.0575 0.19844,-0.30498 -0.0199,-0.24752 0.17209,-0.49309 0.42675,-0.54572 0.36279,-0.075 0.46302,0.0837 0.46302,0.73308 0,0.45582 -0.11084,0.76027 -0.2463,0.67654 -0.13547,-0.0837 -0.32109,-0.0312 -0.41249,0.11668 -0.28196,0.45623 -0.66413,0.29747 -0.66413,-0.27588 z"
       id="path3" />
  </g>
</svg>
