<?xml version="1.0" encoding="UTF-8" standalone="no"?>
<!-- Created with Inkscape (http://www.inkscape.org/) -->

<svg
   width="118.38741mm"
   height="62.17321mm"
   viewBox="0 0 118.38741 62.173212"
   version="1.1"
   id="svg1"
   inkscape:version="1.4.1-rc (06eac75fbf, 2025-03-29)"
   sodipodi:docname="city9.svg"
   xmlns:inkscape="http://www.inkscape.org/namespaces/inkscape"
   xmlns:sodipodi="http://sodipodi.sourceforge.net/DTD/sodipodi-0.dtd"
   xmlns="http://www.w3.org/2000/svg"
   xmlns:svg="http://www.w3.org/2000/svg">
  <sodipodi:namedview
     id="namedview1"
     pagecolor="#ffffff"
     bordercolor="#000000"
     borderopacity="0.25"
     inkscape:showpageshadow="2"
     inkscape:pageopacity="0.0"
     inkscape:pagecheckerboard="0"
     inkscape:deskcolor="#d1d1d1"
     inkscape:document-units="mm"
     inkscape:zoom="0.72248176"
     inkscape:cx="222.843"
     inkscape:cy="116.95797"
     inkscape:window-width="1850"
     inkscape:window-height="1016"
     inkscape:window-x="0"
     inkscape:window-y="0"
     inkscape:window-maximized="1"
     inkscape:current-layer="layer1" />
  <defs
     id="defs1" />
  <g
     inkscape:label="Layer 1"
     inkscape:groupmode="layer"
     id="layer1"
     transform="translate(-46.037501,-117.47531)">
    <path
       style="fill:#000000"
       d="m 104.7887,179.39532 c -0.79382,-0.58045 -0.21209,-0.96597 1.408,-0.93307 0.82715,0.0168 2.42615,-0.0386 3.55334,-0.12319 3.38578,-0.25395 4.68156,0.69921 1.38983,1.02234 -3.78178,0.37124 -5.87457,0.38242 -6.35117,0.0339 z m 16.67669,-0.42139 c -0.30603,-0.33815 -0.80978,-0.52093 -1.43007,-0.51888 -0.52669,0.002 -1.59851,0.001 -2.38182,-0.001 -0.78332,-0.002 -1.55722,0.0794 -1.7198,0.18155 -0.29764,0.18703 -0.83228,0.16405 -1.97258,-0.0848 -1.07021,-0.23351 -0.1594,-0.9513 1.12829,-0.88917 1.36524,0.0659 2.57433,-0.39616 2.3777,-0.90858 -0.0799,-0.20822 -0.0181,-0.45718 0.13734,-0.55325 0.15545,-0.0961 0.28263,-0.40577 0.28263,-0.68822 0,-0.61893 0.27921,-0.59571 -7.80522,-0.6491 -3.34698,-0.0221 -7.39511,-0.14545 -8.99584,-0.27411 -1.600726,-0.12865 -3.118766,-0.20957 -3.373426,-0.17983 -0.25467,0.0297 -0.46681,-0.0933 -0.47144,-0.27353 -0.005,-0.18255 -0.17844,-0.10289 -0.39243,0.17991 -0.32896,0.43475 -0.48234,0.46272 -1.06975,0.19508 -0.37715,-0.17185 -0.80426,-0.23919 -0.94913,-0.14965 -0.14488,0.0895 -0.89351,0.15527 -1.66363,0.14607 -1.15799,-0.0138 -1.50603,0.0959 -2.01185,0.63432 -0.76588,0.81524 -1.68159,0.89151 -1.46325,0.12187 0.0826,-0.29104 0.21768,-0.76729 0.30024,-1.05833 0.10439,-0.36795 0.0238,-0.52917 -0.26458,-0.52917 -0.26596,0 -0.41471,0.23725 -0.41471,0.66146 0,0.87987 -0.71127,0.86736 -1.1154,-0.0196 -0.23836,-0.52314 -0.23705,-0.79839 0.006,-1.18704 0.17379,-0.27828 0.31598,-0.67344 0.31598,-0.87813 0,-0.20468 0.16737,-0.43638 0.37193,-0.51488 0.20456,-0.0785 0.45702,-0.53772 0.56103,-1.02049 0.10401,-0.48278 0.36233,-1.21663 0.57405,-1.63078 l 0.38493,-0.753 -0.78849,0.17318 c -0.43367,0.0953 -0.85788,0.0609 -0.94268,-0.0763 -0.2442,-0.39511 -3.626814,-0.95993 -3.827464,-0.6391 -0.23659,0.37832 -5.03391,0.62806 -5.65715,0.29451 -0.34091,-0.18245 -0.60696,-0.17823 -0.83773,0.0133 -0.18599,0.15435 -0.41362,0.20518 -0.50586,0.11295 -0.0922,-0.0922 -0.3225,-0.0392 -0.5117,0.11779 -0.40329,0.3347 -1.42903,0.26386 -2.20684,-0.15241 -0.30394,-0.16266 -1.27394,-0.24693 -2.17459,-0.18892 -1.082,0.0697 -1.6942,-0.002 -1.83007,-0.2142 -0.27181,-0.4246 -1.89082,-0.92966 -2.7177,-0.8478 -0.3638,0.036 -0.99413,0.19921 -1.40073,0.36267 -0.8763,0.35227 -1.57763,0.52309 -2.8326,0.68995 -2.1364,0.28405 -4.12969,0.63396 -4.5373,0.79649 -0.74858,0.29849 -0.7884,-0.31024 -0.0757,-1.15721 0.3752,-0.44591 0.60566,-0.93457 0.51212,-1.08591 -0.39165,-0.63371 0.99164,-3.7988 2.08863,-4.77896 l 0.78733,-0.70348 -0.0553,-2.81515 c -0.0373,-1.89746 0.0392,-2.81516 0.23449,-2.81516 0.1594,0 0.0941,-0.19571 -0.1451,-0.43491 -0.28521,-0.28521 -0.37887,-0.6582 -0.27209,-1.08364 0.0896,-0.3568 0.0315,-0.80701 -0.12909,-1.00046 -0.16055,-0.19345 -0.32784,-0.68808 -0.37176,-1.09917 l -0.0799,-0.74744 h -2.08703 c -1.17706,0 -2.16694,-0.12217 -2.27032,-0.28019 -0.27912,-0.42666 -5.36492,-0.2387 -7.80121,0.28832 -0.31689,0.0686 -0.75487,-0.0541 -0.97329,-0.27248 -0.53934,-0.53934 -0.74971,-0.49314 -1.32018,0.28993 -0.465644,0.63918 -0.466815,0.69426 -0.02514,1.18231 0.254789,0.28155 0.623399,0.5119 0.819129,0.5119 0.19573,0 0.35587,0.23812 0.35587,0.52917 0,0.52398 0.71645,0.6972 2.21991,0.53671 0.35776,-0.0382 0.45427,0.0661 0.33903,0.36641 -0.0886,0.23089 -0.0458,0.41979 0.0952,0.41979 0.14096,0 0.25628,0.10555 0.25628,0.23456 0,0.37883 -1.37693,0.47177 -2.57345,0.1737 -0.89197,-0.2222 -1.317476,-0.5576 -2.184165,-1.72164 -0.592011,-0.79512 -1.013889,-1.60853 -0.937507,-1.80758 0.07638,-0.19904 0.142662,-0.50099 0.14729,-0.67099 0.02903,-1.0665 0.905721,-1.36681 6.606172,-2.26292 0.65484,-0.10294 1.75617,-0.47069 2.44739,-0.81721 0.98141,-0.492 1.25677,-0.77085 1.25677,-1.27268 0,-0.37204 0.28132,-0.86391 0.66812,-1.16817 1.19953,-0.94354 1.92008,-3.59501 1.43583,-5.2835 -0.2988,-1.04186 0.0691,-1.75306 1.01255,-1.95749 1.00256,-0.21723 1.94381,-0.66583 2.60364,-1.24092 0.5535,-0.4824 0.57622,-0.47328 1.75345,0.70395 0.65597,0.65598 1.26926,1.1161 1.36285,1.02251 0.16775,-0.16775 0.45369,-0.23661 1.73675,-0.41824 0.59703,-0.0845 0.6451,-0.19321 0.57678,-1.30427 -0.0567,-0.92258 0.0338,-1.2727 0.37914,-1.46596 0.37976,-0.21252 0.42034,-0.46422 0.24907,-1.54487 -0.11253,-0.71004 -0.18515,-2.12442 -0.16138,-3.14307 0.0238,-1.01865 0.0485,-2.62599 0.055,-3.57188 0.0188,-2.75878 1.43125,-4.41461 3.04951,-3.57505 0.3954,0.20513 0.80182,0.32173 0.90315,0.25911 0.10133,-0.0626 0.23871,-0.77077 0.3053,-1.57366 0.0666,-0.80288 0.2018,-1.54053 0.30048,-1.63921 0.38156,-0.38156 0.94281,0.85419 0.82753,1.82205 -0.0898,0.75395 0.0244,1.14608 0.49206,1.68977 0.54313,0.63142 0.58799,0.86863 0.41479,2.19322 -0.33224,2.54099 -0.47598,6.52332 -0.24873,6.89102 0.17812,0.28821 0.36103,0.279 1.02355,-0.0515 0.78657,-0.39239 0.82608,-0.38109 1.58584,0.45383 0.63734,0.7004 0.92932,0.83422 1.60405,0.73519 0.45368,-0.0666 0.82487,-0.23201 0.82487,-0.36761 0,-0.14074 0.41767,-0.16818 0.97332,-0.0639 0.85832,0.16102 1.04315,0.095 1.56449,-0.55881 0.54071,-0.67813 0.65597,-0.71457 1.35036,-0.42694 0.41755,0.17296 1.09897,0.60643 1.51426,0.96328 0.57995,0.49833 0.6871,0.73072 0.46198,1.00197 -0.29249,0.35243 0.0516,1.08255 0.937795,1.98963 0.18785,0.1923 0.34155,0.46813 0.34155,0.61297 0,0.14483 0.31086,0.6709 0.6908,1.16902 0.75426,0.98889 0.68987,1.70484 -0.15333,1.70484 -0.29561,0 -0.53747,0.10345 -0.53747,0.22988 0,0.22475 1.29851,0.16209 2.13364,-0.10297 0.5458,-0.17323 1.30883,-6.67725 0.81888,-6.98005 -0.19512,-0.1206 -0.22674,-0.458 -0.0905,-0.96559 0.11519,-0.42913 0.18784,-1.55413 0.16144,-2.50002 -0.0264,-0.94588 0.0513,-1.98204 0.17274,-2.30257 0.12141,-0.32052 0.27241,-1.76944 0.33556,-3.21982 0.0632,-1.45038 0.18924,-2.75748 0.28021,-2.90467 0.091,-0.14719 0.0444,-0.34241 -0.1035,-0.43381 -0.38396,-0.23731 -0.33223,-1.01137 0.12635,-1.89066 0.21739,-0.41681 0.39598,-0.95918 0.39688,-1.20525 0.004,-0.96864 0.6042,-0.73741 1.78756,0.68812 0.1819,0.21913 0.33073,0.63306 0.33073,0.91985 0,0.28678 0.20836,0.72927 0.46302,0.98329 0.25466,0.25402 0.60988,1.24479 0.78936,2.20171 0.55824,2.97621 0.64247,3.31886 0.88988,3.61992 0.13224,0.16091 0.28474,0.63716 0.3389,1.05833 0.25231,1.96245 0.77205,4.25057 1.11701,4.91766 0.20898,0.40413 0.41859,1.0665 0.4658,1.47194 0.0472,0.40544 0.20659,0.97281 0.35419,1.26083 0.1476,0.28802 0.42539,1.25121 0.61732,2.14042 0.27222,1.26116 0.44257,1.59226 0.77455,1.50545 0.33261,-0.087 0.44072,-0.52688 0.49489,-2.01362 0.0381,-1.04628 0.21445,-2.67623 0.39184,-3.62212 l 0.32252,-1.71979 1.120566,0.0445 c 0.61631,0.0245 1.12057,-0.0648 1.12057,-0.19844 0,-0.41646 0.69163,-0.26715 1.42133,0.30684 0.51536,0.40538 0.90446,0.50465 1.48135,0.37795 0.7815,-0.17165 0.78243,-0.17419 0.80379,-2.20344 0.019,-1.80201 0.14949,-6.16433 0.23889,-7.98472 0.0511,-1.03993 0.40851,-1.41644 1.16454,-1.22669 0.48281,0.12118 0.72101,0.40703 0.85663,1.028 0.10331,0.47308 0.40733,1.14012 0.67558,1.4823 0.26825,0.34218 0.56606,1.05656 0.6618,1.5875 0.0957,0.53094 0.28709,1.18387 0.42523,1.45095 0.13813,0.26708 0.28758,0.92192 0.33211,1.45521 0.0445,0.53328 0.17047,1.60345 0.27986,2.37815 0.18853,1.33512 0.23326,1.39991 0.8582,1.24306 0.47479,-0.11916 0.83446,-9.1e-4 1.28521,0.42254 0.34424,0.32341 0.70601,0.50791 0.80391,0.41 0.0979,-0.0979 0.39793,0.021 0.66671,0.26426 0.45812,0.41459 0.51228,0.41049 0.86552,-0.0656 0.55975,-0.75438 1.55062,-3.99539 1.39889,-4.57561 -0.0725,-0.27712 -0.0356,-0.65951 0.082,-0.84974 0.30967,-0.50107 1.28879,0.74914 1.30007,1.66003 0.0126,1.01592 1.32918,5.05384 1.76182,5.40332 0.2676,0.21617 0.36364,1.04309 0.36364,3.1309 0,2.15142 0.0799,2.81083 0.33073,2.72823 0.1819,-0.0599 0.37058,-0.39725 0.41928,-0.74965 0.0487,-0.3524 0.18606,-0.74237 0.30523,-0.86659 0.36313,-0.3785 1.15793,0.25976 1.46717,1.17822 0.1607,0.47728 0.40304,0.90243 0.53853,0.94479 0.1355,0.0424 0.53385,-0.53047 0.88523,-1.27295 0.53697,-1.13462 0.58626,-1.43422 0.30901,-1.87817 -0.35695,-0.57157 -0.17134,-0.89096 0.60174,-1.03546 0.27022,-0.0505 0.74647,-0.56733 1.05834,-1.14851 0.31187,-0.58117 0.67668,-1.13656 0.8107,-1.23419 0.13845,-0.10086 0.0441,-0.4821 -0.21854,-0.88292 -0.25422,-0.38798 -0.39737,-0.87439 -0.31812,-1.08091 0.22321,-0.58167 0.94177,-0.44331 1.19802,0.23068 0.12676,0.33341 0.42147,0.7647 0.65491,0.95844 0.23344,0.19374 0.42444,0.61549 0.42444,0.93722 0,0.32173 0.0822,0.66717 0.18269,0.76765 0.10048,0.10048 0.2132,1.03077 0.2505,2.06731 0.0373,1.03653 0.19321,2.01001 0.34648,2.16328 0.15326,0.15327 0.28806,0.52275 0.29955,0.82106 0.0149,0.38657 0.0643,0.42838 0.17197,0.14553 0.18899,-0.49648 0.63953,-0.80111 0.92442,-0.62504 0.11907,0.0736 0.14862,0.86941 0.0657,1.76848 -0.18212,1.9737 0.0642,2.50968 0.91438,1.9898 0.50842,-0.3109 0.6271,-0.29261 0.95303,0.14688 0.20475,0.2761 0.29839,0.62157 0.20807,0.76771 -0.24784,0.401 -0.0887,3.72151 0.19191,4.00432 0.13476,0.13582 0.31192,0.18004 0.39369,0.0983 0.23002,-0.23002 0.2439,-3.44571 0.0178,-4.12823 -0.11109,-0.3354 -0.0848,-0.7506 0.0587,-0.92604 0.14308,-0.17492 0.36459,-0.85381 0.49225,-1.50865 0.1834,-0.94079 0.35548,-1.20837 0.82006,-1.27518 0.32337,-0.0465 0.58795,0.0428 0.58795,0.19844 0,0.34576 1.60678,0.35833 3.0427,0.0238 0.58209,-0.1356 1.09398,-0.14488 1.13755,-0.0206 0.0436,0.12426 0.53785,0.16442 1.0984,0.0892 1.24429,-0.16689 1.77606,0.48815 1.33597,1.64567 -0.37825,0.99487 -0.29648,1.99604 0.23772,2.91052 0.48038,0.82235 1.58776,1.23463 1.64844,0.61371 0.0188,-0.19202 0.0678,-0.64678 0.10902,-1.01058 0.0412,-0.36381 0.12732,-1.52692 0.19137,-2.58469 0.0641,-1.05778 0.19639,-2.00316 0.29407,-2.10084 0.0977,-0.0977 0.73711,-0.2245 1.42095,-0.28181 0.68384,-0.0573 1.45326,-0.21656 1.70983,-0.35387 0.78403,-0.4196 1.20758,1.07086 1.069,3.76168 -0.0981,1.90405 -0.0487,2.30323 0.30127,2.43754 0.26377,0.10122 0.52581,-0.0398 0.70861,-0.38136 0.15953,-0.29809 0.36396,-0.46807 0.45428,-0.37775 0.29574,0.29574 0.5356,3.68507 0.30392,4.29445 -0.13826,0.36364 -0.12309,0.65873 0.039,0.75892 0.14588,0.0902 0.19605,0.3819 0.11149,0.64832 -0.0846,0.26642 -0.0799,0.77843 0.0102,1.1378 0.15175,0.60461 0.26408,0.64625 1.50451,0.55773 1.4959,-0.10675 2.44443,-0.72909 2.08637,-1.3689 -0.12223,-0.21841 -0.14437,-0.76815 -0.0492,-1.22165 0.0952,-0.45349 0.138,-1.7175 0.0952,-2.80891 -0.0428,-1.0914 -0.08,-2.10344 -0.0827,-2.24896 -0.006,-0.32533 0.22188,-6.27163 0.25099,-6.55156 0.0115,-0.11086 0.52698,-0.12874 1.14545,-0.0397 2.80371,0.4035 3.62787,0.85671 3.10283,1.70624 -0.1219,0.19724 -0.12402,0.54363 -0.005,0.76976 0.11932,0.22612 0.29102,1.95894 0.38157,3.85071 0.0905,1.89177 0.21306,3.79677 0.27226,4.23333 0.0592,0.43657 0.11732,1.53789 0.12914,2.4474 0.0163,1.25711 0.1431,1.77525 0.52862,2.16076 0.27891,0.27892 0.45451,0.55972 0.39022,0.62401 -0.0643,0.0643 0.13184,0.69715 0.43584,1.40636 0.53405,1.24589 0.53777,1.337 0.11009,2.69671 -0.41843,1.33028 -0.41711,1.43546 0.0241,1.92299 0.25671,0.28365 0.61414,0.51573 0.7943,0.51573 0.55473,0 0.68882,0.84011 0.21725,1.36118 -0.39924,0.44117 -0.40339,0.53782 -0.0409,0.95393 0.22185,0.25466 0.35308,0.60093 0.29162,0.7695 -0.0615,0.16857 0.008,0.38074 0.15526,0.47149 0.14685,0.0908 0.19935,0.34131 0.11666,0.55679 -0.0827,0.21547 -0.0335,0.53908 0.10935,0.71913 0.14283,0.18005 0.33789,0.76188 0.43348,1.29296 0.0956,0.53108 0.35192,1.11344 0.56964,1.29412 0.22586,0.18746 0.32914,0.5387 0.2405,0.81797 -0.20173,0.63561 0.12529,1.21617 0.41814,0.74233 0.25629,-0.4147 0.64914,1.94153 0.42227,2.53273 -0.0857,0.22337 -0.36691,0.48324 -0.62487,0.57749 -0.25796,0.0943 -0.75512,0.45072 -1.10481,0.79215 -0.5091,0.49708 -0.81185,0.58775 -1.51936,0.45502 -0.48596,-0.0912 -1.09283,-0.0711 -1.34859,0.0445 -0.72602,0.32835 -2.18434,0.33381 -2.18885,0.008 -0.002,-0.16096 -0.11114,-0.12345 -0.24203,0.0833 -0.21467,0.33917 -2.82787,0.63701 -5.31017,0.60523 -0.3638,-0.005 -0.7994,0.10562 -0.968,0.24507 -0.46265,0.38267 -2.91559,-0.032 -3.57566,-0.60452 -0.73159,-0.6345 -0.32252,-1.23436 0.53045,-0.77787 0.99283,0.53135 1.00961,-0.26607 0.0229,-1.09056 -0.74777,-0.62486 -0.83575,-0.79944 -0.50766,-1.00732 0.21828,-0.13831 0.48617,-0.25329 0.59531,-0.25552 0.10915,-0.002 0.19844,-0.36124 0.19844,-0.7978 0,-0.67028 -0.10289,-0.79375 -0.66146,-0.79375 -0.83303,0 -0.8818,-0.68108 -0.0635,-0.88647 0.65843,-0.16525 1.64476,-1.60591 1.38607,-2.02449 -0.0898,-0.14523 -0.45382,-0.26404 -0.80903,-0.26404 -0.72906,0 -0.89996,-0.51641 -0.18283,-0.55243 1.59904,-0.0803 2.23045,-0.0598 3.77032,0.12241 0.94588,0.11193 1.94436,0.26764 2.21884,0.34603 0.43341,0.12377 0.4742,0.043 0.31011,-0.61435 -0.3454,-1.38368 -0.73783,-1.58372 -3.17225,-1.61706 -1.22984,-0.0168 -2.47336,-0.15761 -2.76337,-0.31282 -0.29002,-0.15521 -0.85409,-0.2822 -1.25351,-0.2822 -1.16014,0 -2.51216,-0.58675 -2.41586,-1.04844 0.0914,-0.43798 0.26294,-0.45151 1.98281,-0.15636 1.11789,0.19185 1.12448,0.18828 1.12448,-0.60841 0,-0.44077 -0.12503,-0.87866 -0.27784,-0.9731 -0.17478,-0.10802 -0.0449,-0.48183 0.35021,-1.00781 0.34542,-0.45985 0.69829,-1.02739 0.78415,-1.26121 0.16875,-0.45954 1.82622,-0.78927 3.1349,-0.62365 0.70124,0.0888 0.77108,0.0261 0.77108,-0.69189 0,-0.92492 -0.13925,-0.99385 -2.2883,-1.13263 -1.92078,-0.12404 -2.36968,-0.31921 -1.93602,-0.84174 0.54901,-0.66151 -2.85235,-1.7844 -3.57883,-1.18148 -0.21786,0.18082 -0.63504,0.26628 -0.92706,0.18991 -0.29202,-0.0764 -0.47256,-0.0444 -0.4012,0.0711 0.18892,0.30568 -0.41101,0.70727 -1.29545,0.86717 -0.52514,0.0949 -1.13988,-0.0676 -1.93544,-0.51177 -0.92488,-0.51635 -1.24436,-0.58577 -1.54554,-0.33581 -0.29474,0.24461 -0.46987,0.24023 -0.78293,-0.0196 -0.57688,-0.47877 -0.68159,-0.25126 -0.68864,1.49621 -0.007,1.8681 0.41599,3.18975 0.89785,2.80174 0.17949,-0.14454 0.74307,-0.34932 1.25239,-0.45508 0.50932,-0.10576 1.13137,-0.37335 1.38233,-0.59464 0.41645,-0.36721 0.48089,-0.33767 0.73786,0.33822 0.16339,0.42974 0.18162,0.80531 0.0435,0.89482 -0.13096,0.0848 -0.32146,0.71979 -0.42334,1.41101 -0.14741,1.00018 -0.10791,1.25677 0.19345,1.25677 0.25066,0 0.43818,0.42486 0.55469,1.25677 0.0968,0.69123 0.23254,1.4949 0.30162,1.78594 0.0691,0.29104 0.19207,0.94589 0.2733,1.45521 0.0812,0.50932 0.27447,1.1859 0.42941,1.5035 0.15494,0.31761 0.20816,0.76913 0.11827,1.00338 -0.25544,0.66567 0.40703,2.73888 1.07598,3.36733 l 0.60465,0.56803 0.64801,-0.60878 0.64801,-0.60877 0.16727,0.66645 c 0.0947,0.37746 0.006,0.99431 -0.20442,1.42255 -0.20442,0.41586 -0.32207,0.9768 -0.26143,1.24655 0.0996,0.44291 -0.001,0.46995 -1.03891,0.27897 -0.63204,-0.11631 -1.50635,-0.22404 -1.94291,-0.23939 -0.43656,-0.0154 -1.21047,-0.11346 -1.71979,-0.21803 -0.50932,-0.10456 -1.96784,-0.0936 -3.24115,0.0244 -2.00093,0.18539 -2.31565,0.15917 -2.31915,-0.19323 -0.004,-0.35621 -0.0354,-0.35819 -0.25199,-0.0156 -0.20214,0.31968 -0.98341,0.38824 -4.22929,0.37114 -2.18973,-0.0115 -3.98134,0.0799 -3.98134,0.2032 0,0.12329 0.22731,0.45149 0.50514,0.72931 0.27783,0.27783 0.54634,0.71909 0.5967,0.98059 0.0504,0.2615 0.33609,0.5402 0.63495,0.61934 0.96479,0.25549 1.99301,1.26796 2.04752,2.01617 0.0673,0.92389 -0.41994,1.08698 -1.09207,0.36554 l -0.52983,-0.56871 -0.29676,0.55451 c -0.3011,0.5626 -1.60107,0.79963 -1.60107,0.29194 0,-0.14442 -0.24516,-0.54454 -0.54482,-0.88917 -0.45184,-0.51967 -0.74844,-0.61136 -1.73801,-0.53728 -1.01367,0.0759 -1.18017,0.0206 -1.10657,-0.3676 0.0517,-0.27294 0.3787,-0.49064 0.81198,-0.54065 0.85903,-0.0992 0.9235,-0.52984 0.19617,-1.31053 -0.29104,-0.3124 -0.52916,-0.7493 -0.52916,-0.97089 0,-0.55689 -1.25362,-0.81974 -2.2021,-0.46172 -0.43223,0.16314 -0.88748,0.23383 -1.01167,0.15707 -0.1242,-0.0768 -0.22582,0.22465 -0.22582,0.6698 0,0.44516 0.11907,0.80937 0.26459,0.80937 0.14552,0 0.26458,0.17445 0.26458,0.38767 0,0.21322 0.36446,0.80276 0.80991,1.31011 0.67866,0.77294 0.76291,1.01027 0.51986,1.46441 -0.36208,0.67656 -0.59329,0.68043 -1.19104,0.0199 z m 6.52436,-0.85819 c -0.18986,-0.18985 -0.31309,-0.20547 -0.31309,-0.0397 0,0.35316 0.3129,0.66606 0.48948,0.48948 0.0752,-0.0752 -0.004,-0.2776 -0.17639,-0.4498 z m -5.86934,0.0573 c 0,-0.14552 -0.26789,-0.26276 -0.59531,-0.26053 -0.4814,0.003 -0.51937,0.0531 -0.19844,0.26053 0.51296,0.3315 0.79375,0.3315 0.79375,0 z m -2.38125,-2.11667 c 0,-0.14552 -0.12609,-0.26458 -0.2802,-0.26458 -0.15411,0 -0.20661,0.11906 -0.11668,0.26458 0.0899,0.14552 0.21603,0.26459 0.2802,0.26459 0.0642,0 0.11668,-0.11907 0.11668,-0.26459 z m 6.08542,-1.7481 c 0,-0.0572 -0.1786,-0.10398 -0.39688,-0.10398 -0.21828,0 -0.39687,0.11533 -0.39687,0.25628 0,0.14095 0.17859,0.18775 0.39687,0.10398 0.21828,-0.0838 0.39688,-0.19908 0.39688,-0.25628 z m -23.01877,-0.22066 c 0,-0.0642 -0.11906,-0.19026 -0.26458,-0.2802 -0.14552,-0.0899 -0.26458,-0.0374 -0.26458,0.11668 0,0.15411 0.11906,0.2802 0.26458,0.2802 0.14552,0 0.26458,-0.0525 0.26458,-0.11668 z m 3.34708,-0.76095 c 0.0808,-0.0808 0.40257,-0.0541 0.71503,0.0593 0.74635,0.2709 9.69415,0.13536 9.96802,-0.15099 0.36237,-0.3789 0.36177,-1.23242 -0.002,-2.47024 -0.52945,-1.80287 -0.57517,-6.02338 -0.0768,-7.08953 0.40789,-0.87258 2.36042,-2.43547 3.04265,-2.43547 0.19934,0 0.47555,-0.11033 0.61379,-0.24517 0.13825,-0.13484 1.08479,-0.32558 2.10344,-0.42387 1.82226,-0.17582 1.8662,-0.16519 2.72883,0.66045 0.69252,0.66282 0.95417,0.7749 1.24518,0.53338 0.49965,-0.41467 0.82118,-0.16291 1.01228,0.79262 0.094,0.47 0.32607,0.79925 0.56334,0.79925 0.26583,0 0.40062,0.24826 0.39508,0.72761 -0.01,0.82761 -0.43033,1.4705 -1.13583,1.73547 -0.45928,0.17249 -0.45605,0.21531 0.0661,0.87918 0.5892,0.74904 0.77269,2.83822 0.27623,3.14505 -0.16145,0.0998 -0.20121,0.56489 -0.0975,1.1401 0.35629,1.97539 0.12243,1.89502 5.31588,1.8267 2.94474,-0.0387 4.70144,-0.16304 4.75932,-0.33677 0.0561,-0.16837 -0.37827,-0.25667 -1.11794,-0.22725 -1.63634,0.0651 -2.23709,-0.1266 -2.23709,-0.71382 0,-0.55872 1.05074,-0.93426 1.78534,-0.63809 0.86917,0.35043 4.82943,0.29819 4.82933,-0.0637 -5e-5,-0.1819 -0.20845,-0.34446 -0.46311,-0.36125 -0.44032,-0.029 -0.83363,-0.0987 -1.12448,-0.19916 -0.0728,-0.0251 -0.99474,-0.0936 -2.04884,-0.15202 -1.23407,-0.0684 -2.05847,-0.24823 -2.3151,-0.50486 -0.61647,-0.61647 -0.4795,-0.78331 0.5111,-0.62256 0.94458,0.15329 1.68183,-0.3179 1.34646,-0.86054 -0.21808,-0.35286 -1.46237,-0.36272 -1.46237,-0.0116 0,0.14552 -0.17859,0.26459 -0.39687,0.26459 -0.46693,0 -0.50547,-0.36106 -0.11618,-1.08845 0.19883,-0.37151 0.43815,-0.47451 0.82056,-0.35314 0.49204,0.15617 0.52329,0.0928 0.35285,-0.71489 -0.10285,-0.48743 -0.36863,-1.27744 -0.59061,-1.75559 -0.48045,-1.03488 -0.3934,-1.15693 0.91387,-1.28125 2.03124,-0.19318 2.72055,-0.38873 2.72055,-0.7718 0,-0.21169 -0.0893,-0.39292 -0.19844,-0.40274 -0.10914,-0.01 -0.58026,-0.0678 -1.04693,-0.12882 -0.46666,-0.061 -1.37255,-0.15461 -2.01308,-0.20797 -1.30575,-0.10878 -1.85269,-0.35362 -1.62238,-0.72629 0.0852,-0.13783 0.25325,-0.18982 0.37347,-0.11552 0.12022,0.0743 0.29199,-0.0562 0.38172,-0.29007 0.11439,-0.29809 0.26106,-0.34657 0.49075,-0.16221 0.28464,0.22846 0.98306,0.25206 2.90728,0.0983 0.55584,-0.0444 0.61922,-0.78743 0.0847,-0.99256 -0.20809,-0.0799 -0.80695,0.0582 -1.33079,0.30677 -0.81574,0.38709 -1.01775,0.39963 -1.40758,0.0874 -0.90816,-0.72752 -1.53256,-0.94186 -2.51391,-0.86296 -0.55024,0.0442 -1.11685,0.15238 -1.25914,0.24032 -0.14229,0.0879 -0.49613,0.0845 -0.78632,-0.008 -1.35127,-0.42887 1.02004,-1.22973 3.83964,-1.29675 l 1.05833,-0.0252 0.0338,-1.19062 c 0.0186,-0.65484 -0.0814,-1.33478 -0.2222,-1.51096 -0.14082,-0.17618 -0.2287,-0.77149 -0.19529,-1.32292 0.0883,-1.457 0.0176,-1.97892 -0.24584,-1.81607 -0.12795,0.0791 -0.51491,-0.13319 -0.8599,-0.4717 -0.8401,-0.82431 -1.74365,-1.01575 -2.63023,-0.55728 -0.64923,0.33573 -2.69328,0.37494 -3.92092,0.0752 -0.26872,-0.0656 -0.35904,0.57547 -0.39859,2.82908 -0.0281,1.60265 -0.13846,3.05519 -0.24518,3.22787 -0.11465,0.1855 0.0255,0.43145 0.34254,0.60113 0.29512,0.15794 0.53658,0.47545 0.53658,0.70557 0,0.32635 -0.16009,0.3764 -0.72761,0.22746 -0.40018,-0.10502 -1.19377,-0.20819 -1.76353,-0.22928 -0.56976,-0.0211 -1.0857,-0.18716 -1.14653,-0.36906 -0.18909,-0.56545 -0.5928,-0.36254 -0.5264,0.26458 0.0455,0.42971 -0.0762,0.59532 -0.43731,0.59532 -0.50819,0 -0.64267,-0.17414 -1.22588,-1.5875 l -0.32754,-0.79375 -0.25635,0.74083 c -0.141,0.40746 -0.39306,0.69526 -0.56015,0.63957 -0.21316,-0.0711 -0.30394,-1.47801 -0.30427,-4.71612 l -4.8e-4,-4.61485 -0.84432,-0.41537 c -0.72885,-0.35855 -0.89564,-0.36404 -1.21954,-0.0401 -0.20637,0.20637 -0.77892,0.4718 -1.27234,0.58984 -0.49342,0.11804 -1.09628,0.29708 -1.33969,0.39787 -0.31062,0.12861 -0.76419,-0.13839 -1.52136,-0.89555 -1.41484,-1.41484 -2.13162,-1.44451 -2.09222,-0.0866 0.0158,0.5457 0.1446,1.1395 0.28613,1.31954 0.14154,0.18005 0.17319,0.53724 0.0703,0.79375 -0.10285,0.25652 -0.23617,1.47843 -0.29626,2.71535 -0.0601,1.23693 -0.16412,2.39779 -0.23117,2.57969 -0.067,0.1819 0.0488,0.33073 0.25735,0.33073 0.64636,0 0.91372,0.85052 0.54387,1.73013 -0.18424,0.43817 -0.33497,1.34308 -0.33497,2.01092 0,0.66784 -0.083,1.34852 -0.18441,1.51263 -0.3272,0.52941 0.21537,0.96323 1.24471,0.99522 1.04395,0.0324 1.82219,0.67871 1.70215,1.4135 -0.13011,0.79639 -6.35188,1.50082 -8.16713,0.92469 -0.28443,-0.0903 -0.68482,-0.025 -0.88974,0.14508 -0.20493,0.17007 -0.49771,0.23189 -0.65063,0.13738 -0.15293,-0.0945 -0.34443,0.001 -0.42556,0.21257 -0.0811,0.21142 -0.34818,0.33242 -0.59344,0.26889 -0.24526,-0.0635 -0.85602,0.18774 -1.35723,0.5584 -1.20393,0.89033 -1.4297,0.85061 -1.22955,-0.2163 0.12608,-0.67207 0.0382,-1.04488 -0.35862,-1.52135 -0.43919,-0.52733 -0.52709,-0.55498 -0.53444,-0.16811 -0.005,0.25466 -0.1316,0.46302 -0.28169,0.46302 -0.43832,0 -0.60835,-0.76642 -0.26248,-1.18316 0.17687,-0.21312 0.25051,-0.70985 0.16619,-1.12111 -0.0833,-0.40614 -0.17706,-1.2521 -0.20843,-1.8799 -0.0657,-1.3152 -0.33019,-1.61857 -0.74134,-0.85033 -0.15795,0.29512 -0.461576,0.53658 -0.674736,0.53658 -0.38632,0 -0.48926,0.39312 -0.39806,1.52026 0.0374,0.46241 -0.0588,0.56106 -0.43373,0.44475 -0.31656,-0.0982 -0.27812,-0.0268 0.11209,0.20808 0.59124,0.35596 0.59154,0.35958 0.066,0.80955 -0.50838,0.43528 -0.55644,0.41258 -1.30012,-0.61404 -0.66268,-0.9148 -0.73809,-1.18506 -0.53159,-1.90508 0.13235,-0.46148 0.14137,-0.93832 0.02,-1.05964 -0.3538,-0.3538 -1.77061,0.61604 -2.1491,1.47111 -0.34264,0.77407 -0.35249,0.77723 -0.77207,0.2473 -0.23375,-0.29522 -0.68112,-0.61326 -0.99414,-0.70676 -0.52365,-0.1564 -0.57805,-0.0582 -0.68074,1.22859 -0.0614,0.76922 10e-4,2.17249 0.13903,3.11838 0.13785,0.94588 0.22241,2.4937 0.18791,3.43958 -0.17104,4.68984 -0.18302,4.54321 0.38896,4.76068 0.29552,0.11235 1.72717,0.21521 3.18147,0.22858 2.4971,0.023 7.334436,0.29066 7.468296,0.4133 0.12872,0.11793 2.21928,-0.0547 2.3594,-0.19477 z m 5.02392,-0.57758 c 0.0838,-0.21828 0.2732,-0.39687 0.42097,-0.39687 0.15486,0 0.12915,0.16811 -0.0607,0.39687 -0.18116,0.21828 -0.37059,0.39688 -0.42097,0.39688 -0.0504,0 -0.0231,-0.1786 0.0607,-0.39688 z m -15.564646,-1.9899 c -0.5097,-1.90232 -0.38525,-2.64031 0.44524,-2.64031 0.91394,0 1.16527,0.52723 1.06155,2.22682 -0.0833,1.36422 -0.37461,1.98643 -0.93769,2.00246 -0.0782,0.002 -0.33434,-0.71281 -0.5691,-1.58897 z m 15.701786,0.35019 c -0.16438,-0.40784 -0.36648,-1.4062 -0.44911,-2.21857 -0.17803,-1.74999 0.18436,-2.24404 1.44315,-1.96757 0.92369,0.20288 1.25037,0.93188 0.76552,1.70826 -0.24684,0.39525 -0.26389,0.67338 -0.0618,1.00874 0.15344,0.25466 0.27137,0.82021 0.26208,1.25677 -0.0147,0.69005 -0.1243,0.80421 -0.83892,0.87383 -0.68809,0.067 -0.87072,-0.0407 -1.1209,-0.66146 z m -9.83105,-0.0477 c 0,-0.16334 -0.1786,-0.29698 -0.39688,-0.29698 -0.46908,0 -0.47765,-0.0954 -0.12318,-1.37166 0.31292,-1.12665 1.03023,-1.37941 2.14929,-0.75737 l 0.70319,0.39088 -0.62599,0.74395 c -0.3641,0.4327 -0.56483,0.93466 -0.47979,1.1998 0.11856,0.36971 0.0953,0.38407 -0.12318,0.076 -0.2232,-0.31473 -0.34088,-0.32052 -0.68642,-0.0337 -0.27918,0.2317 -0.41704,0.24794 -0.41704,0.0491 z m 5.96578,-0.8923 c -0.0567,-0.1819 -0.1559,-0.50932 -0.22053,-0.7276 -0.19201,-0.64856 0.31342,-1.32292 0.99153,-1.32292 0.72746,0 0.9752,0.65205 0.55291,1.45521 -0.47614,0.90556 -1.13498,1.20182 -1.32391,0.59531 z m 23.56868,-3.49186 c -0.51717,-0.78931 -0.31304,-1.42615 0.56403,-1.75961 0.91401,-0.34751 1.38694,0.12348 1.38694,1.38127 0,0.95445 -0.0532,1.02593 -0.76332,1.02593 -0.51789,0 -0.89976,-0.20822 -1.18765,-0.64759 z m -13.24512,-8.2159 c -0.10165,-0.54183 -0.32955,-0.92604 -0.5493,-0.92604 -1.08379,0 -1.01756,-3.08579 0.0955,-4.44957 0.86849,-1.06413 1.29766,-0.95118 2.09323,0.55086 0.76024,1.43534 0.74674,1.78204 -0.0694,1.78204 -0.74949,0 -0.84996,0.53685 -0.39642,2.11826 0.177,0.61716 0.177,0.95349 0,1.01249 -0.14577,0.0486 -0.26504,0.25702 -0.26504,0.46318 0,0.79015 -0.74131,0.34042 -0.90858,-0.55122 z m 13.21772,-1.35124 c -0.47116,-0.34452 -0.44441,-0.40887 0.51446,-1.23774 0.90638,-0.78351 0.97871,-0.93552 0.69628,-1.46325 -0.34858,-0.65133 -0.19344,-1.10714 0.37683,-1.10714 0.4943,0 1.71371,1.82113 1.71371,2.55934 0,0.72693 -0.43508,1.02312 -0.91627,0.62376 -0.27567,-0.22878 -0.41723,-0.21827 -0.58372,0.0434 -0.44892,0.70545 -1.26958,0.97045 -1.80129,0.58166 z m -1.99604,-0.77223 c -0.26167,-0.3153 -0.18904,-0.56405 0.38412,-1.31549 0.76446,-1.00227 1.07269,-1.13444 1.29492,-0.55531 0.22554,0.58775 -0.0704,1.3097 -0.73961,1.80403 -0.53934,0.39841 -0.65723,0.40679 -0.93943,0.0668 z m 26.5433,16.68685 c 2.58063,-0.12801 3.21542,-0.26497 2.98161,-0.64329 -0.20128,-0.32567 -3.37852,-0.31484 -3.77339,0.0129 -0.27354,0.22702 -0.51326,0.22208 -0.96543,-0.0199 -0.38638,-0.20678 -1.11367,-0.26337 -2.03341,-0.15821 -1.6436,0.18792 -1.70534,0.22221 -1.47605,0.81972 0.13861,0.36121 0.39893,0.41244 1.42175,0.27981 0.68864,-0.0893 2.41885,-0.22023 3.84492,-0.29098 z m -36.7241,-0.93734 c -0.0899,-0.14552 -0.28259,-0.26458 -0.42811,-0.26458 -0.14552,0 -0.191,0.11906 -0.10106,0.26458 0.0899,0.14552 0.28258,0.26459 0.4281,0.26459 0.14553,0 0.191,-0.11907 0.10107,-0.26459 z m 2.74022,-1.02931 c 0.21806,-0.13817 0.2558,-0.29123 0.0961,-0.38991 -0.14456,-0.0893 -0.40998,0.0148 -0.58981,0.23151 -0.35702,0.43019 -0.077,0.52002 0.49369,0.1584 z m 36.22334,-0.23845 c 0.10682,-0.32045 -1.21349,-0.78187 -2.78179,-0.97218 -1.25486,-0.15227 -1.31137,-0.0919 -0.68807,0.73496 0.36446,0.48349 0.67908,0.573 1.90819,0.54291 0.80948,-0.0198 1.51223,-0.15738 1.56167,-0.30569 z m -6.51206,-0.0552 c 0.66845,0 0.77746,-0.0919 0.70597,-0.59532 -0.073,-0.51381 -0.25661,-0.60178 -1.34132,-0.64257 -1.29037,-0.0485 -1.4637,0.1262 -1.09034,1.09916 0.0934,0.24348 0.33503,0.36903 0.55081,0.28622 0.2114,-0.0811 0.7401,-0.14749 1.17488,-0.14749 z m -10.4338,-1.9448 c -0.10639,-0.31917 -2.23972,-0.77338 -2.59656,-0.55284 -0.33318,0.20591 0.0183,0.86981 0.51128,0.96569 0.81774,0.15905 2.18564,-0.11177 2.08528,-0.41285 z m 15.24866,-0.10732 c 0.068,-0.11002 -0.14203,-0.50888 -0.46673,-0.88635 -0.42684,-0.49624 -0.93307,-0.72495 -1.8278,-0.8258 -1.1489,-0.1295 -1.23745,-0.0968 -1.23745,0.45708 0,0.32811 0.14882,0.71966 0.33073,0.87013 0.52154,0.4314 2.98915,0.72813 3.20125,0.38494 z m -31.57686,-0.59423 c 0.2708,-0.14493 0.57127,-0.51211 0.66771,-0.81596 0.17861,-0.56276 -0.0459,-2.2702 -0.36196,-2.75339 -0.0959,-0.14663 -0.17442,-0.67757 -0.17442,-1.17987 0,-0.84349 -0.0791,-0.93219 -1.03522,-1.16094 -0.88336,-0.21133 -1.08929,-0.17439 -1.4038,0.25182 -0.20272,0.27471 -0.55249,0.46175 -0.77727,0.41564 -0.22872,-0.0469 -0.33398,0.037 -0.23903,0.19066 0.0933,0.15098 -0.0138,0.62928 -0.23803,1.06289 -0.22423,0.43361 -0.40769,1.31949 -0.40769,1.96863 0,0.98826 0.12995,1.28959 0.79888,1.85246 0.83185,0.69995 2.05577,0.76482 3.17083,0.16806 z m 26.72196,0.01 c 0,-0.42846 -1.08036,-0.88686 -1.38119,-0.58604 -0.14632,0.14632 -0.18604,0.39548 -0.0883,0.55368 0.21986,0.35574 1.46946,0.38326 1.46946,0.0324 z m -71.62122,-1.07601 c 0.79059,0.12867 1.72089,0.18416 2.06734,0.12331 3.36598,-0.59121 3.68232,-0.75168 3.48647,-1.76859 -0.15486,-0.80409 -0.62737,-0.93462 -1.22389,-0.3381 -0.31356,0.31356 -0.44419,0.3236 -0.67,0.0515 -0.19912,-0.23992 -0.17762,-0.72797 0.0741,-1.68227 0.39978,-1.51549 0.22014,-2.18284 -0.3944,-1.46511 -0.45917,0.53627 -0.5101,0.67523 -0.5101,1.39176 0,0.63628 -0.7027,0.98233 -1.12903,0.55599 -0.22152,-0.22151 -0.22227,-0.37716 -0.003,-0.59654 0.16325,-0.16325 0.2386,-0.44855 0.16743,-0.634 -0.0712,-0.18546 0.087,-0.49837 0.35141,-0.69537 0.27289,-0.20329 0.48486,-0.70142 0.4902,-1.15193 0.005,-0.43656 0.0944,-1.11173 0.19822,-1.50038 0.16584,-0.62069 0.10034,-0.72572 -0.53858,-0.86356 -0.96277,-0.20771 -3.44356,-8.9e-4 -4.40472,0.36723 -0.4218,0.16154 -1.20147,0.26808 -1.73259,0.23674 -0.53113,-0.0313 -1.10351,0.0282 -1.27196,0.13231 -0.16845,0.10411 -0.72703,0.0135 -1.24127,-0.20138 -1.12056,-0.4682 -1.04318,-1.21367 0.12598,-1.21367 0.74452,0 0.74481,-7e-4 0.33697,-0.81824 -0.34222,-0.686 -0.35264,-0.92207 -0.0644,-1.46056 0.25767,-0.48146 0.26808,-0.71797 0.0416,-0.94447 -0.2265,-0.22649 -0.34604,-0.0278 -0.47738,0.79356 -0.21818,1.36446 -0.6462,1.98252 -1.22035,1.7622 -0.59441,-0.2281 -0.81575,-0.90809 -0.44213,-1.35827 0.29185,-0.35166 0.35446,-4.55275 0.0721,-4.83515 -0.0667,-0.0667 -0.44532,-0.1552 -0.84143,-0.19673 -0.39612,-0.0415 -1.27433,-0.21439 -1.95158,-0.38414 -1.04428,-0.26175 -1.44627,-0.23634 -2.64583,0.16722 -0.77796,0.26172 -1.69619,0.45794 -2.04053,0.43605 -0.53034,-0.0337 -0.59953,0.0512 -0.45253,0.5551 0.0954,0.32719 0.24021,0.83302 0.3217,1.12406 0.14707,0.52529 0.14824,2.20248 0.003,4.23333 -0.0768,1.07329 0.25696,2.22167 0.74857,2.57564 0.17118,0.12325 0.14894,0.19587 -0.0608,0.19843 -0.1819,0.002 -0.33073,0.2276 -0.33073,0.50083 0,0.27322 -0.17859,0.64499 -0.39688,0.82614 -0.21828,0.18116 -0.39687,0.50516 -0.39687,0.72 0,0.21484 -0.34443,0.71235 -0.76539,1.10559 -0.87413,0.81657 -1.65857,2.84875 -1.43283,3.71195 0.15787,0.6037 0.25038,0.60789 2.82933,0.12811 0.66839,-0.12435 0.65787,-0.10678 0.9271,-1.54792 0.27562,-1.4753 0.95726,-2.38406 1.2385,-1.65116 0.31923,0.8319 0.51047,0.44448 0.59563,-1.20659 0.0468,-0.90694 0.20189,-1.7212 0.34469,-1.80946 0.14281,-0.0883 0.2236,-0.32815 0.17954,-0.5331 -0.0546,-0.25379 0.17246,-0.3757 0.71187,-0.38225 0.58,-0.007 0.81291,-0.14869 0.8702,-0.52917 0.19979,-1.32707 0.36047,-1.71016 0.71731,-1.71016 0.51399,0 1.23572,1.44101 1.16732,2.33066 -0.0945,1.22973 0.006,1.68082 0.33132,1.48004 0.20984,-0.12969 0.25929,-0.01 0.15707,0.38126 -0.0848,0.32441 -0.0259,0.57054 0.13673,0.57054 0.15726,0 0.027,0.27556 -0.28935,0.61236 -0.31641,0.3368 -0.57529,0.74996 -0.57529,0.91812 0,0.16817 -0.35719,0.56984 -0.79375,0.8926 -0.71562,0.52908 -1.09452,1.52256 -0.59531,1.56091 0.10914,0.008 0.6525,0.0629 1.20746,0.12115 0.55497,0.0582 1.53945,0.007 2.18774,-0.11429 0.66059,-0.12341 1.24156,-0.11852 1.32169,0.0111 0.0786,0.12724 0.41973,0.23135 0.75797,0.23135 0.38095,0 0.66484,0.19066 0.746,0.50101 0.11588,0.44312 0.27036,0.47498 1.33695,0.27572 0.67698,-0.12648 1.83644,-0.12268 2.64338,0.009 z m -7.18258,-3.06205 c 0.10837,-0.56815 1.18891,-0.83154 1.62447,-0.39597 0.36925,0.36924 0.19929,0.51354 -0.85272,0.72394 -0.75436,0.15087 -0.85494,0.10813 -0.77175,-0.32797 z m 5.58703,0.21011 c -0.44667,-0.28308 -0.58126,-1.38324 -0.25698,-2.10063 0.2509,-0.55506 1.50596,-0.8854 1.50783,-0.39687 4.2e-4,0.10914 0.35726,0.43656 0.79299,0.7276 0.88597,0.59178 1.03064,1.31993 0.33073,1.66462 -0.61393,0.30235 -1.96884,0.36243 -2.37457,0.10528 z m -7.99922,-8.7606 c -0.39599,-0.73992 -0.35442,-2.66659 0.0575,-2.66659 0.44424,0 1.065,1.01676 1.16643,1.91056 0.10965,0.96611 -0.80814,1.53301 -1.22397,0.75603 z m 69.87989,10.95945 c -0.11252,-0.65221 -0.0352,-0.58352 -0.90143,-0.80093 -0.60278,-0.15129 -0.72706,-0.0962 -0.72706,0.32246 0,0.68344 0.54039,1.17667 1.18754,1.08392 0.36929,-0.0529 0.5043,-0.2383 0.44095,-0.60545 z m -49.534846,-0.7276 c -0.0157,-0.80431 -0.0328,-0.81983 -0.2651,-0.24015 -0.13658,0.34086 -0.18154,0.72781 -0.0999,0.85989 0.27089,0.43831 0.38196,0.24972 0.365,-0.61974 z m -3.42282,0.34634 c 0,-0.49368 -0.58896,-0.59838 -1.00812,-0.17921 -0.39452,0.39452 -0.37173,0.42818 0.28997,0.42818 0.39498,0 0.71815,-0.11204 0.71815,-0.24897 z m 1.68532,-0.61093 c 0.24443,-0.91206 0.19657,-1.78593 -0.0978,-1.78593 -0.14552,0 -0.26458,0.34745 -0.26458,0.77211 0,0.42466 -0.0723,0.96044 -0.1606,1.19062 -0.0883,0.23018 -0.0427,0.41852 0.10144,0.41852 0.14411,0 0.33382,-0.26789 0.42156,-0.59532 z m 69.487616,-0.18282 c 0,-0.13693 -0.11907,-0.32255 -0.26459,-0.41249 -0.14552,-0.0899 -0.26458,0.0221 -0.26458,0.24897 0,0.22687 0.11906,0.41249 0.26458,0.41249 0.14552,0 0.26459,-0.11204 0.26459,-0.24897 z m -18.66443,-0.79108 c 0.0837,-0.13547 0.042,-0.31445 -0.0928,-0.39774 -0.34509,-0.21327 -1.11406,0.12085 -0.9371,0.40718 0.19165,0.31009 0.83607,0.30418 1.0299,-0.009 z m 18.20158,-1.14303 c -0.0817,-0.32727 -0.32225,-0.83317 -0.5345,-1.12421 -0.3705,-0.50801 -0.37858,-0.50272 -0.2021,0.13229 0.10111,0.3638 0.24737,0.92796 0.32502,1.25369 0.0777,0.32572 0.23546,0.53396 0.35068,0.46275 0.11521,-0.0712 0.14262,-0.39724 0.0609,-0.72452 z m -68.720166,-2.16601 c 0.0866,-1.54069 -0.25759,-2.04926 -0.45885,-0.67799 -0.12861,0.87623 0.0461,2.47981 0.24811,2.27776 0.0704,-0.0704 0.16525,-0.7903 0.21074,-1.59977 z m 17.721536,1.43867 c 0.0899,-0.14552 0.0374,-0.26458 -0.11667,-0.26458 -0.15411,0 -0.2802,0.11906 -0.2802,0.26458 0,0.14552 0.0525,0.26459 0.11667,0.26459 0.0642,0 0.19027,-0.11907 0.2802,-0.26459 z M 68.40998,162.2982 c 0,-0.14552 -0.0525,-0.26458 -0.11668,-0.26458 -0.0642,0 -0.19026,0.11906 -0.28019,0.26458 -0.0899,0.14552 -0.0374,0.26458 0.11667,0.26458 0.15411,0 0.2802,-0.11906 0.2802,-0.26458 z m 85.19585,-0.40841 c 0,-0.51917 -0.16925,-0.65258 -0.99219,-0.78207 -2.18966,-0.34456 -2.18281,-0.34512 -2.18281,0.17714 0,0.27543 -0.17791,0.56905 -0.39536,0.65249 -0.8202,0.31474 -0.0777,0.56158 1.71407,0.56984 1.77798,0.008 1.85629,-0.0179 1.85629,-0.6174 z m -66.262556,-0.79063 c -0.66848,-0.50561 -1.0992,-0.50026 -0.67704,0.008 0.18116,0.21829 0.52316,0.39309 0.76,0.38846 0.36177,-0.007 0.34851,-0.0705 -0.083,-0.39687 z m -3.719754,-0.12388 c 0.0899,-0.14552 0.0374,-0.26458 -0.11667,-0.26458 -0.15411,0 -0.2802,0.11906 -0.2802,0.26458 0,0.14552 0.0525,0.26459 0.11667,0.26459 0.0642,0 0.19027,-0.11907 0.2802,-0.26459 z m 1.71979,-0.83784 c 0,-1.29981 -0.12553,-1.26279 -0.37376,0.11024 -0.11356,0.62814 -0.0779,0.99219 0.0972,0.99219 0.15211,0 0.27657,-0.4961 0.27657,-1.10243 z m 23.93731,0.007 c 0.2391,-0.2391 -1.14604,-0.53999 -1.69041,-0.36721 -0.26691,0.0847 -0.64932,-0.06 -0.90487,-0.34234 -0.3949,-0.43636 -0.4028,-0.60071 -0.0733,-1.5251 0.22534,-0.63214 0.50951,-0.99921 0.72893,-0.94157 0.19778,0.052 0.81076,0.15755 1.36217,0.23466 1.05174,0.14709 1.84004,0.91479 1.595,1.55334 -0.0773,0.20157 -0.0111,0.3665 0.14721,0.3665 0.28845,0 0.39436,-0.33427 0.69157,-2.18281 0.13488,-0.83895 0.0858,-0.99219 -0.31799,-0.99219 -0.26264,0 -0.62623,-0.23813 -0.80799,-0.52917 -0.43305,-0.69341 -1.58233,-0.68394 -2.33081,0.0192 -0.53676,0.50426 -1.0326,0.70134 -1.89778,0.7543 -0.23383,0.0143 -0.33073,0.60996 -0.33073,2.03292 0,1.66084 0.0679,1.98663 0.3884,1.86364 0.21362,-0.082 0.45283,-0.0448 0.53157,0.0826 0.15861,0.25663 2.64852,0.2337 2.909,-0.0268 z m -22.089266,-0.82293 c -0.003,-0.65252 -0.0659,-0.76419 -0.26054,-0.46302 -0.33607,0.52003 -0.33607,1.32291 0,1.32291 0.14553,0 0.26276,-0.38695 0.26054,-0.85989 z m 23.551966,0.59531 c 0,-0.14552 -0.17157,-0.26458 -0.38127,-0.26458 -0.20969,0 -0.45484,0.11906 -0.54478,0.26458 -0.0899,0.14552 0.0816,0.26458 0.38126,0.26458 0.29963,0 0.54479,-0.11906 0.54479,-0.26458 z m -15.590156,-1.85208 c 0.13438,0 0.24432,0.10949 0.24432,0.24331 0,0.13383 0.56555,0.19074 1.25677,0.12647 1.69329,-0.15743 3.28748,-0.18677 3.770306,-0.0694 0.2892,0.0703 0.41042,-0.15477 0.44679,-0.82956 0.0274,-0.50932 0.12811,-1.18427 0.22368,-1.49988 0.15415,-0.50904 0.01,-0.62559 -1.280366,-1.03221 -1.30164,-0.41031 -1.57517,-0.41853 -2.60816,-0.0785 -1.31532,0.43302 -3.03868,0.17395 -3.58993,-0.53968 -0.28756,-0.37227 -0.3568,-0.37517 -0.59126,-0.0248 -0.14606,0.21828 -0.27649,0.57547 -0.28985,0.79375 -0.0134,0.21828 -0.0742,0.635 -0.13518,0.92604 -0.0987,0.47101 -0.199,3.12958 -0.1372,3.63627 0.0132,0.10818 0.56889,-0.21924 1.23488,-0.7276 0.66599,-0.50836 1.32083,-0.92429 1.4552,-0.92429 z m 57.335116,1.54087 c 0.42418,-0.42417 -0.0792,-1.01171 -0.86683,-1.01171 -0.67797,0 -1.32162,0.63232 -1.06549,1.04675 0.2313,0.37425 1.54688,0.3504 1.93232,-0.035 z m -62.201716,-0.53215 c -0.0845,-0.21107 -0.14716,-0.14837 -0.15986,0.15985 -0.0115,0.27892 0.0511,0.43519 0.13897,0.34727 0.0879,-0.0879 0.0973,-0.31612 0.0209,-0.50712 z m -1.23908,-0.0671 c 0,-0.0642 -0.11906,-0.19026 -0.26458,-0.2802 -0.14552,-0.0899 -0.26459,-0.0374 -0.26459,0.11668 0,0.15411 0.11907,0.2802 0.26459,0.2802 0.14552,0 0.26458,-0.0525 0.26458,-0.11668 z m 66.015696,-1.53916 c -0.10732,-1.71623 -0.38156,-2.84208 -0.69228,-2.84208 -0.29918,0 -0.29682,0.098 0.0603,2.49883 0.33276,2.23729 0.76514,2.47212 0.63202,0.34325 z m -64.163616,0.8904 c 0,-0.12996 -0.17859,-0.30481 -0.39687,-0.38857 -0.24175,-0.0928 -0.39688,-4.2e-4 -0.39688,0.23627 0,0.21372 0.1786,0.38857 0.39688,0.38857 0.21828,0 0.39687,-0.10632 0.39687,-0.23627 z M 75.55373,157.53554 c 0,-0.14552 -0.17157,-0.26458 -0.38126,-0.26458 -0.20969,0 -0.45484,0.11906 -0.54478,0.26458 -0.0899,0.14552 0.0816,0.26458 0.38126,0.26458 0.29963,0 0.54478,-0.11906 0.54478,-0.26458 z m 4.7625,-0.37495 c 0.65484,0.0121 2.0524,0.11482 3.10567,0.22837 1.55924,0.16809 1.94221,0.13567 2.061224,-0.17447 0.17874,-0.46578 3.74957,-0.41082 4.65095,0.0716 0.44179,0.23644 0.6157,0.22725 0.78168,-0.0413 0.11742,-0.18998 0.15433,-0.44112 0.082,-0.55809 -0.35063,-0.56733 -0.1192,-2.34728 0.4,-3.07643 0.30806,-0.43263 0.56011,-0.90247 0.56011,-1.04409 0,-0.14161 0.1845,-0.4106 0.40999,-0.59775 0.34847,-0.2892 0.60307,-0.15009 1.69667,0.92707 1.38704,1.36619 1.31946,1.35431 3.92181,0.68954 0.976,-0.24933 1.31384,-0.2121 2.429086,0.26767 1.13877,0.48989 1.52065,0.52821 3.15805,0.31693 1.48655,-0.19182 1.93739,-0.16559 2.2329,0.12992 0.3173,0.3173 0.47012,0.27041 1.0683,-0.32778 0.38393,-0.38392 0.80954,-0.62913 0.94581,-0.54491 0.26885,0.16617 0.23967,-1.40853 -0.0342,-1.84443 -0.0914,-0.14552 -0.15506,-1.00851 -0.14142,-1.91775 0.0228,-1.51905 -0.0425,-1.71895 -0.80435,-2.46384 l -0.82916,-0.81066 -0.40927,0.79144 c -0.2251,0.43529 -0.65526,0.86951 -0.95591,0.96493 -0.69686,0.22118 -0.52285,0.79005 0.24167,0.79005 0.78172,0 1.0872,0.56552 0.72619,1.34437 -0.40048,0.86403 -1.22078,0.84961 -1.22078,-0.0214 0,-0.41158 -0.14993,-0.66146 -0.39687,-0.66146 -0.27718,0 -0.39688,0.27928 -0.39688,0.92604 0,0.50932 -0.0893,0.92226 -0.19843,0.91763 -0.54705,-0.0232 -1.12448,-0.79525 -1.12448,-1.50348 0,-0.48434 -0.26472,-1.07772 -0.68135,-1.52728 -0.37475,-0.40435 -0.79243,-1.02735 -0.9282,-1.38444 -0.22793,-0.59949 -0.33287,-0.63344 -1.369166,-0.44288 -0.61728,0.1135 -1.47951,0.2131 -1.91607,0.22133 -0.74188,0.014 -0.8024,0.0928 -0.92605,1.20558 -0.10939,0.98457 -0.23532,1.20526 -0.7276,1.27517 -0.42624,0.0605 -0.59531,0.26275 -0.59531,0.71199 0,0.34509 -0.11351,0.69759 -0.25224,0.78333 -0.31517,0.19479 -1.33526,-0.65283 -1.33526,-1.1095 0,-0.18594 -0.11907,-0.33807 -0.26459,-0.33807 -0.14552,0 -0.26458,0.13294 -0.26458,0.29544 0,0.17254 -0.23791,0.23322 -0.57194,0.14587 -0.31457,-0.0823 -0.79843,-0.0283 -1.07525,0.1198 -0.34851,0.18651 -0.61126,0.17976 -0.85433,-0.022 -0.33846,-0.2809 -0.80083,-0.31658 -2.79015,-0.21535 -1.01922,0.0519 -2.15911,-0.13737 -3.173634,-0.52685 -0.46852,-0.17988 -0.81406,-0.15289 -1.19062,0.093 -0.498,0.32516 -4.50393,0.57893 -5.42533,0.34369 -0.33758,-0.0862 -0.39967,0.43453 -0.41555,3.48515 -0.0103,1.97257 -0.10031,3.71857 -0.20009,3.88001 -0.24474,0.39601 0.3343,0.5869 1.14481,0.3774 0.3638,-0.094 1.19724,-0.1611 1.85208,-0.14904 z m 1.47125,-2.98594 c -0.19886,-0.51822 0.50671,-1.06684 1.66658,-1.29586 0.83336,-0.16455 1.34255,0.11513 1.35604,0.74484 0.006,0.29247 -0.82242,0.64802 -1.89354,0.81241 -0.73117,0.11222 -1.01053,0.0476 -1.12908,-0.26139 z m 6.241364,0.11974 c -0.18191,-0.1819 -0.47361,-0.33073 -0.64823,-0.33073 -0.57072,0 -0.51134,-1.11751 0.0814,-1.5327 0.56511,-0.39582 1.58543,-0.32609 1.58543,0.10835 0,0.12855 0.27782,0.23373 0.61737,0.23373 0.33954,0 0.68853,0.0712 0.77552,0.15816 0.24703,0.24703 -0.0887,0.90017 -0.46275,0.90017 -0.1849,0 -0.4844,0.1786 -0.66555,0.39688 -0.40134,0.48357 -0.84303,0.50634 -1.28323,0.0661 z m -7.352264,-1.65343 c -0.23213,-0.6049 0.39716,-1.19084 1.27895,-1.19084 1.06365,0 0.90473,0.76692 -0.25716,1.241 -0.75094,0.30639 -0.88755,0.29969 -1.02179,-0.0502 z m 16.304374,-1.72753 c -0.38396,-0.71745 -0.18479,-2.56288 0.33243,-3.0801 0.31678,-0.31678 0.59247,-0.33813 1.43538,-0.11115 1.01435,0.27313 1.04254,0.31224 1.01605,1.40912 -0.023,0.95047 -0.11901,1.14152 -0.60979,1.21275 -0.43991,0.0638 -0.58254,-0.0495 -0.58254,-0.46303 0,-0.74319 -0.51887,-0.69969 -0.56947,0.0478 -0.0222,0.32742 -0.0524,0.76415 -0.0673,0.97051 -0.0443,0.61602 -0.62805,0.62467 -0.95479,0.0142 z m 29.506236,6.35566 c 0.0906,-0.14655 -0.0266,-0.33985 -0.26038,-0.42956 -0.50659,-0.1944 -0.78891,0.0198 -0.54541,0.41382 0.21971,0.35549 0.59132,0.36275 0.80579,0.0157 z m -22.181,-2.02554 c -0.0782,-0.0782 -0.28195,-0.0559 -0.45269,0.0496 -0.23017,0.14225 -0.21762,0.24952 0.0485,0.41489 0.35281,0.2192 0.69479,-0.17385 0.40414,-0.4645 z m 18.0788,0.43991 c 0,-0.14553 -0.12609,-0.26459 -0.2802,-0.26459 -0.15411,0 -0.20661,0.11906 -0.11667,0.26459 0.0899,0.14552 0.21602,0.26458 0.2802,0.26458 0.0642,0 0.11667,-0.11906 0.11667,-0.26458 z m -47.09584,-0.77814 c 0,-0.28245 -0.0893,-0.56874 -0.19844,-0.63619 -0.10914,-0.0674 -0.19844,0.16364 -0.19844,0.51355 0,0.34991 0.0893,0.63619 0.19844,0.63619 0.10914,0 0.19844,-0.2311 0.19844,-0.51355 z m 76.94438,-1.27239 c 0.0456,-0.47294 0.006,-0.85989 -0.089,-0.85989 -0.14535,0 -2.50741,1.61186 -2.50741,1.71105 0,0.0186 0.56555,0.0282 1.25677,0.0213 1.22149,-0.0122 1.2591,-0.0367 1.33968,-0.87245 z m -40.93196,-0.66142 c -0.15163,-0.41319 -0.4728,-0.62068 -1.04982,-0.67823 -0.45724,-0.0456 -0.83135,0.005 -0.83135,0.11146 0,0.44414 0.91911,1.16208 1.4877,1.16208 0.52293,0 0.58015,-0.0866 0.39347,-0.59531 z m 32.07698,-0.1323 c 0.45901,-0.25466 0.89019,-0.49879 0.95816,-0.54251 0.068,-0.0437 0.14324,-0.60477 0.16725,-1.24679 0.024,-0.64201 0.10994,-1.43967 0.19096,-1.77259 0.23028,-0.94628 -0.66097,-1.8501 -1.72293,-1.74725 l -0.86342,0.0836 -0.0662,1.98438 c -0.0364,1.09141 -0.12379,2.30342 -0.19416,2.69337 -0.11001,0.60953 0.0441,0.86198 0.6043,0.98991 0.0503,0.0115 0.46702,-0.18747 0.92604,-0.44214 z m -5.72884,-1.79508 c -0.13026,-1.26978 -0.71263,-1.86378 -0.71263,-0.72687 0,0.98552 0.22993,1.66206 0.56488,1.66206 0.13403,0 0.20052,-0.42084 0.14775,-0.93519 z m -15.26472,-0.53563 c 0,-0.66344 -0.10097,-1.14384 -0.22438,-1.06757 -0.12341,0.0763 -0.18997,0.58932 -0.14791,1.1401 0.0919,1.20401 0.0771,1.13371 0.24,1.13371 0.0728,0 0.13229,-0.54281 0.13229,-1.20624 z m -48.68334,0.67707 c 0,-0.14552 -0.0525,-0.26458 -0.11668,-0.26458 -0.0642,0 -0.19026,0.11906 -0.2802,0.26458 -0.0899,0.14552 -0.0374,0.26458 0.11668,0.26458 0.15411,0 0.2802,-0.11906 0.2802,-0.26458 z m 82.09609,-0.19844 c 0.23627,-0.98637 0.0509,-9.94536 -0.20754,-10.03155 -0.16929,-0.0565 -0.28477,1.81754 -0.32063,5.20317 -0.0315,2.97681 0.0475,5.2914 0.1806,5.2914 0.13017,0 0.28657,-0.20836 0.34757,-0.46302 z m -31.0315,-0.18282 c 0,-0.48846 -0.44176,-0.76796 -0.65879,-0.41681 -0.0914,0.1479 -0.0331,0.2689 0.12963,0.2689 0.16269,0 0.22222,0.11906 0.13229,0.26459 -0.0899,0.14552 -0.0374,0.26458 0.11667,0.26458 0.15411,0 0.2802,-0.17157 0.2802,-0.38126 z m 33.09973,-0.34635 c 0.038,-0.65722 -0.0577,-2.1856 -0.17519,-2.79551 -0.21165,-1.09904 -0.33201,-0.66974 -0.35179,1.25486 -0.0118,1.15182 0.0901,2.00368 0.23979,2.00368 0.14321,0 0.27245,-0.20836 0.28719,-0.46303 z m -9.17363,-0.0359 c 0.0797,-0.12888 -0.18121,-0.29696 -0.5797,-0.37351 -0.81832,-0.1572 -0.98751,-0.0823 -0.7354,0.32566 0.211,0.3414 1.11338,0.37423 1.3151,0.0478 z m -17.5761,-0.69171 c 0,-0.21828 -0.11906,-0.39687 -0.26458,-0.39687 -0.14552,0 -0.26458,0.17859 -0.26458,0.39687 0,0.21828 0.11906,0.39688 0.26458,0.39688 0.14552,0 0.26458,-0.1786 0.26458,-0.39688 z M 63.298,149.53664 c 0.6936,0.3482 1.74443,0.22629 2.47793,-0.28747 0.34932,-0.24467 0.90629,-0.44486 1.23771,-0.44486 0.36474,0 0.60259,-0.15993 0.60259,-0.40518 0,-0.22285 0.20836,-0.481 0.46302,-0.57366 0.57048,-0.20759 1.91823,-1.65397 1.91823,-2.05861 0,-0.8687 -1.51729,-1.25663 -2.11205,-0.53999 -0.23538,0.28361 -0.45749,0.32029 -0.80698,0.13324 -0.26522,-0.14194 -0.65409,-0.19212 -0.86415,-0.11151 -0.21006,0.0806 -0.58826,-0.0598 -0.84046,-0.31198 -0.38212,-0.38212 -0.54657,-0.40355 -0.98683,-0.12861 -0.64641,0.4037 -3.34608,0.43725 -3.73688,0.0464 -0.42541,-0.42541 0.0694,-0.76515 1.25416,-0.86112 l 1.03494,-0.0838 -0.0133,-1.39868 c -0.0154,-1.62107 0.39777,-2.69735 1.03668,-2.7003 0.65006,-0.003 0.85858,-0.50442 0.29697,-0.71411 -0.26388,-0.0985 -0.64127,-0.40378 -0.83864,-0.67832 -0.34942,-0.48606 -0.36892,-0.48479 -0.7426,0.0487 -0.27682,0.39521 -0.67192,0.5479 -1.41779,0.5479 -0.75244,0 -1.1088,0.13972 -1.30862,0.5131 -0.17433,0.32573 -0.1814,0.57073 -0.0194,0.67087 0.70251,0.43418 -0.36754,4.32839 -1.61062,5.86145 -0.14784,0.18232 -0.13287,0.58577 0.0384,1.03638 0.21305,0.56037 0.19851,0.79347 -0.0605,0.96914 -0.20177,0.13686 0.17214,0.16057 0.91579,0.058 1.36484,-0.18814 1.61885,0.0931 0.81095,0.89793 -0.41774,0.41614 -0.38858,0.45319 0.46302,0.58819 0.49986,0.0792 1.22782,0.0408 1.61769,-0.0855 0.41186,-0.13338 0.9107,-0.12823 1.19063,0.0123 z m 64.80601,-1.20614 c -0.0895,-0.65315 -0.16277,-1.64718 -0.16277,-2.20895 0,-0.68925 -0.11806,-1.02141 -0.36306,-1.02141 -0.28238,0 -0.34358,0.42633 -0.2754,1.91823 0.0482,1.05503 0.0925,2.12285 0.0985,2.37295 0.007,0.30816 0.14855,0.40186 0.43817,0.29072 0.34176,-0.13114 0.39475,-0.40186 0.26458,-1.35154 z m -57.32143,0.15215 c -0.45405,-0.37023 -0.651,-0.39509 -1.06779,-0.13479 -0.28108,0.17553 -0.51106,0.41341 -0.51106,0.52862 0,0.40329 1.17426,0.65359 1.65986,0.35381 0.45106,-0.27846 0.44686,-0.31723 -0.081,-0.74764 z m 5.03573,0.85083 c 0,-0.14553 -0.0525,-0.26459 -0.11667,-0.26459 -0.0642,0 -0.19026,0.11906 -0.2802,0.26459 -0.0899,0.14552 -0.0374,0.26458 0.11668,0.26458 0.15411,0 0.28019,-0.11906 0.28019,-0.26458 z m 35.03739,-0.50716 c 0.37834,-0.41806 0.40368,-0.61047 0.14425,-1.09521 -0.41118,-0.76828 -0.80438,-2.03531 -0.94003,-3.02905 -0.0597,-0.43722 -0.34705,-1.44757 -0.6386,-2.24522 -0.29155,-0.79765 -0.53009,-1.71984 -0.53009,-2.04932 0,-0.32947 -0.092,-0.59904 -0.20445,-0.59904 -0.11245,0 -0.20775,-0.44649 -0.21179,-0.99219 -0.004,-0.54571 -0.20081,-1.40891 -0.43728,-1.91823 -0.23646,-0.50932 -0.5144,-1.34276 -0.61764,-1.85208 -0.1839,-0.90723 -0.19266,-0.91269 -0.43116,-0.26836 -0.13389,0.36173 -0.18322,0.88795 -0.10963,1.16939 0.13569,0.51885 -0.24802,2.49733 -0.67193,3.46459 -0.37497,0.85561 -0.44699,2.245 -0.12663,2.44299 0.16298,0.10073 0.5346,0.18758 0.82582,0.193 0.34897,0.006 0.55919,0.21951 0.61661,0.62484 0.0823,0.5808 0.0211,0.60775 -1.09925,0.48454 -1.04924,-0.11538 -1.20416,-0.0641 -1.34028,0.44334 -0.26092,0.97272 -0.18588,1.19218 0.35893,1.04971 0.36157,-0.0945 0.79446,0.15492 1.42031,0.81852 0.49513,0.52498 1.1579,0.95452 1.47283,0.95452 0.57604,0 1.25482,1.10164 0.78795,1.27882 -0.27164,0.10308 -0.31377,1.19746 -0.056,1.45521 0.34917,0.34917 1.33832,0.16619 1.78807,-0.33077 z m 26.61054,0.26421 c 0,-0.42764 -0.31457,-1.07997 -0.52078,-1.07997 -0.10977,0 -0.14269,0.29766 -0.0731,0.66146 0.11823,0.6185 0.59392,0.9537 0.59392,0.41851 z m -62.11095,-0.37207 c 0.50491,0.007 0.72761,-0.12424 0.72761,-0.42837 0,-0.24106 0.14287,-0.58116 0.3175,-0.75578 0.37528,-0.37528 1.10629,-0.43018 0.88133,-0.0662 -0.0854,0.13822 0.10128,0.38863 0.41491,0.55648 0.4476,0.23955 0.61901,0.22818 0.7971,-0.0529 0.35458,-0.55956 0.27845,-0.75492 -0.29418,-0.75492 -0.35277,0 -0.52916,-0.17639 -0.52916,-0.52917 0,-0.29104 0.11906,-0.52916 0.26458,-0.52916 0.14552,0 0.26458,-0.10518 0.26458,-0.23373 0,-0.34747 -1.11806,-0.57525 -1.45422,-0.29626 -0.16012,0.13289 -0.79634,0.22147 -1.41381,0.19685 -0.96415,-0.0384 -1.11178,-0.12032 -1.04555,-0.57986 0.0563,-0.39066 0.34119,-0.57776 1.05545,-0.69318 1.06912,-0.17277 1.7998,-0.65022 1.7998,-1.17604 0,-0.53438 0.7998,-0.74327 2.57969,-0.67376 1.32371,0.0517 1.65364,-0.0148 1.65364,-0.33313 0,-0.25781 -0.37229,-0.46061 -1.05833,-0.57652 -0.63573,-0.10741 -1.05833,-0.32428 -1.05833,-0.54311 0,-0.50485 -0.99673,-0.98993 -1.6715,-0.81347 -0.75121,0.19645 -2.82642,-0.85793 -2.82642,-1.43605 0,-0.46639 -0.70881,-1.21696 -0.93534,-0.99044 -0.0708,0.0708 0.16428,0.56067 0.52248,1.08851 0.3582,0.52784 0.54902,1.02291 0.42404,1.10015 -0.49241,0.30433 -4.91248,-0.50156 -5.18698,-0.94572 -0.22025,-0.35637 -0.65478,-0.28676 -0.57889,0.0927 0.0412,0.20579 -0.23371,0.33073 -0.7276,0.33073 -0.65114,0 -0.80664,0.11884 -0.86551,0.66146 -0.0395,0.3638 -0.0856,0.78052 -0.10248,0.92604 -0.0827,0.71255 0.62985,2.54762 0.94266,2.42758 0.18659,-0.0716 1.01276,-0.21433 1.83593,-0.31717 1.25716,-0.15708 1.49669,-0.12122 1.49669,0.22402 0,0.28408 0.22472,0.39565 0.72761,0.36122 0.5667,-0.0388 0.7276,0.0666 0.7276,0.47676 0,0.37845 -0.22327,0.56483 -0.79375,0.66261 -0.66741,0.11439 -0.80694,0.2727 -0.87664,0.99454 -0.0743,0.76911 0.0419,0.93428 1.11611,1.58634 0.65946,0.40032 1.20277,0.88942 1.20737,1.08689 0.006,0.24424 0.15641,0.29238 0.47139,0.15056 0.25466,-0.11466 0.79044,-0.20401 1.19062,-0.19857 z m 73.1518,0.19058 c -0.0879,-0.0879 -0.31612,-0.0973 -0.50712,-0.0209 -0.21107,0.0845 -0.14837,0.14716 0.15985,0.15985 0.27892,0.0115 0.43519,-0.051 0.34727,-0.13896 z m -62.483356,-1.57859 c -0.17319,-0.69006 -0.16776,-0.69272 1.22646,-0.60182 l 1.40042,0.0913 -0.0641,-2.3571 c -0.0352,-1.29641 -0.10688,-2.39993 -0.15922,-2.45227 -0.2171,-0.2171 -5.288764,-0.10318 -5.515834,0.12389 -0.20881,0.20881 -0.27481,2.27535 -0.13725,4.2978 0.0217,0.31958 0.27796,0.59893 0.63053,0.68742 0.32665,0.082 0.71098,0.29012 0.85406,0.46253 0.14309,0.17241 0.63787,0.34225 1.09951,0.37743 0.783264,0.0597 0.827724,0.0176 0.665384,-0.62918 z m 45.188186,0.28323 c -0.16102,-0.41962 -0.62484,-0.55055 -0.62484,-0.17639 0,0.27981 0.28921,0.57327 0.56496,0.57327 0.1167,0 0.14364,-0.17859 0.0599,-0.39688 z m 17.08854,0.008 c 0.63415,-0.39193 0.1825,-0.53264 -1.44095,-0.44891 -1.5623,0.0806 -1.96642,0.23847 -1.58541,0.61948 0.18402,0.18402 2.68026,0.0433 3.02636,-0.17057 z m -30.23676,-0.51794 c 0.75198,-0.35012 1.42878,-0.57505 1.50399,-0.49984 0.0752,0.0752 0.54787,0.19216 1.05033,0.25987 0.8872,0.11956 0.90871,0.10122 0.74496,-0.63544 -0.0927,-0.41721 -0.43364,-1.09237 -0.75755,-1.50036 l -0.58894,-0.74179 -1.36614,1.08773 c -1.06375,0.84697 -1.44582,1.0216 -1.72616,0.78893 -0.50507,-0.41917 -0.44784,-0.96214 0.13424,-1.27366 0.35427,-0.1896 0.45677,-0.46068 0.36187,-0.95708 -0.14569,-0.76212 -0.29197,-0.8495 -1.64989,-0.9856 -0.71463,-0.0716 -0.94535,-0.22502 -1.01059,-0.6719 -0.0836,-0.57266 -0.42923,-0.76752 -0.67009,-0.3778 -0.0684,0.11071 0.18202,0.8241 0.55653,1.58532 0.66496,1.35156 0.66945,1.39672 0.19121,1.92517 -0.73959,0.81724 -1.2804,0.55999 -1.35753,-0.64574 -0.085,-1.32949 -0.30463,-1.90114 -0.61034,-1.58893 -0.32999,0.33699 0.0732,3.16751 0.44089,3.09508 0.16197,-0.0319 0.74544,0.35504 1.29661,0.85989 1.18504,1.08546 1.6403,1.12183 3.4566,0.27615 z m 11.62564,0.22325 c -0.0883,-0.23018 -0.1606,-0.89205 -0.1606,-1.47082 0,-0.62268 -0.10628,-0.98662 -0.26032,-0.89142 -0.14317,0.0885 -0.21601,0.54199 -0.16187,1.0078 0.0541,0.4658 0.11177,1.05527 0.12803,1.30993 0.0163,0.25467 0.16138,0.46303 0.32247,0.46303 0.16109,0 0.22062,-0.18834 0.13229,-0.41852 z m -24.77991,-1.28508 c 0.39729,-0.47869 0.18938,-1.20634 -0.34468,-1.20634 -0.47167,0 -0.70236,-1.12098 -0.3575,-1.7372 0.19678,-0.35163 0.13838,-0.55436 -0.23995,-0.83295 -0.45964,-0.33847 -0.50682,-0.30169 -0.58413,0.45546 -0.0616,0.60329 -0.20236,0.80088 -0.52612,0.73853 -0.24312,-0.0468 -0.48458,-0.30604 -0.53657,-0.57604 -0.10154,-0.52721 -1.85817,-2.94798 -2.12937,-2.93443 -0.0899,0.005 -0.569346,0.10742 -1.065476,0.22872 -0.77823,0.19028 -0.96643,0.13522 -1.37097,-0.40108 -0.5455,-0.72319 -1.03664,-0.45633 -0.56123,0.30493 0.39633,0.63463 0.41614,1.31448 0.0383,1.31448 -0.16223,0 -0.21077,0.22572 -0.11404,0.53047 0.1093,0.34438 0.0309,0.5832 -0.22341,0.6808 -0.2938,0.11274 -0.39178,0.60866 -0.39178,1.98307 0,1.73238 0.23816,2.32188 0.5791,1.43341 0.0843,-0.21963 0.24585,-0.36992 0.35904,-0.33397 0.21455,0.0682 1.72274,-0.45685 2.51731,-0.87627 0.740756,-0.39101 1.260356,-0.2806 1.260356,0.26781 0,0.28068 0.4119,0.94707 0.91533,1.48086 l 0.91532,0.97053 0.76182,-0.54247 c 0.419,-0.29835 0.9134,-0.72509 1.09865,-0.94832 z m -14.449686,-1.35269 c -0.22298,-1.62678 -0.53349,-1.69828 -0.74351,-0.17121 -0.19463,1.41509 -0.13354,1.94718 0.25545,2.225 0.4163,0.29732 0.66618,-0.75422 0.48806,-2.05379 z m 40.847936,1.46406 c -0.0581,-0.77187 -0.45602,-0.63828 -0.45602,0.15311 0,0.37239 0.11148,0.60817 0.24775,0.52396 0.13626,-0.0842 0.22998,-0.3889 0.20827,-0.67707 z m 14.34279,-1.78073 -0.0179,-1.52136 -0.35457,1.32159 c -0.35545,1.32484 -0.32291,1.72112 0.14132,1.72112 0.13693,0 0.24093,-0.68461 0.23111,-1.52135 z m -19.99037,0.39687 c 0.18037,-0.75182 0.025,-0.88261 -0.58752,-0.49443 -0.29335,0.18593 -0.29509,0.32118 -0.01,0.77767 0.18981,0.30393 0.36263,0.52824 0.38405,0.49848 0.0214,-0.0298 0.11749,-0.38153 0.21349,-0.78172 z m -32.727706,-2.10013 c -0.0845,-0.21106 -0.14716,-0.14837 -0.15985,0.15986 -0.0115,0.27891 0.051,0.43518 0.13896,0.34726 0.0879,-0.0879 0.0973,-0.31612 0.0209,-0.50712 z m 25.880726,0.3142 c 0.0899,-0.14553 0.0374,-0.26459 -0.11668,-0.26459 -0.15411,0 -0.2802,0.11906 -0.2802,0.26459 0,0.14552 0.0525,0.26458 0.11668,0.26458 0.0642,0 0.19026,-0.11906 0.2802,-0.26458 z m 26.85116,-1.40468 c 0.002,-0.26325 -0.10013,-0.41425 -0.22746,-0.33556 -0.12733,0.0787 -0.23151,0.45562 -0.23151,0.83762 0,0.48943 0.0672,0.58852 0.22746,0.33555 0.1251,-0.19744 0.22928,-0.57436 0.23151,-0.83761 z m -32.89628,0.54478 c -0.0748,-0.1819 -0.34465,-0.95581 -0.59954,-1.71979 -0.25489,-0.76399 -0.5735,-1.38906 -0.70801,-1.38906 -0.13452,0 -0.15354,0.20835 -0.0423,0.46302 0.11126,0.25466 0.38639,1.02856 0.61141,1.71979 0.22501,0.69122 0.51383,1.25677 0.64182,1.25677 0.12798,0 0.17145,-0.14883 0.0966,-0.33073 z m -32.98094,-1.52135 c 0,-0.14553 -0.12608,-0.26459 -0.28019,-0.26459 -0.15411,0 -0.20662,0.11906 -0.11668,0.26459 0.0899,0.14552 0.21603,0.26458 0.2802,0.26458 0.0642,0 0.11667,-0.11906 0.11667,-0.26458 z m 12.700004,-0.56157 c 0,-0.2698 -0.88746,-0.31486 -1.14423,-0.0581 -0.0957,0.0958 -0.0403,0.33534 0.1233,0.53243 0.22466,0.2707 0.38587,0.28491 0.65916,0.0581 0.19898,-0.16513 0.36177,-0.40473 0.36177,-0.53243 z m 12.223746,-0.54968 c -0.24694,-0.24695 -0.3175,-0.17639 -0.3175,0.3175 0,0.49388 0.0706,0.56444 0.3175,0.3175 0.24695,-0.24695 0.24695,-0.38806 0,-0.635 z m 12.28842,0.44564 c 0.12129,-0.31606 -0.22739,-5.64412 -0.47156,-7.20575 -0.0832,-0.5321 -0.4866,-0.38117 -0.73625,0.27546 -0.41742,1.09791 -0.8441,1.24977 -1.97055,0.70136 -0.56292,-0.27407 -1.19548,-0.71014 -1.40568,-0.96907 -0.27694,-0.34113 -0.42012,-0.37969 -0.51991,-0.14004 -0.0757,0.1819 -0.30639,0.33073 -0.51255,0.33073 -0.50787,0 -0.47687,1.03706 0.0634,2.12 l 0.4382,0.87839 0.46411,-0.57316 c 0.25526,-0.31523 0.58112,-0.57315 0.72412,-0.57315 0.3789,0 0.61944,0.78567 0.42657,1.39333 -0.11361,0.35797 -0.0697,0.46514 0.13789,0.33682 0.89642,-0.55402 1.51371,1.80978 0.65804,2.51992 -0.3452,0.2865 -0.45668,0.28196 -0.64722,-0.0263 -0.19128,-0.30951 -0.25891,-0.29759 -0.40016,0.0705 -0.23035,0.6003 0.0887,1.04922 0.6268,0.88195 0.24241,-0.0754 0.61934,-0.0225 0.83763,0.11748 0.63158,0.405 2.11303,0.31534 2.28715,-0.13843 z m 38.63942,-0.17775 c -0.0845,-0.21107 -0.14715,-0.14838 -0.15985,0.15985 -0.0115,0.27891 0.051,0.43518 0.13896,0.34726 0.0879,-0.0879 0.0973,-0.31612 0.0209,-0.50711 z m -53.4442,-0.94258 c -0.0665,-0.25466 -0.121,-0.0463 -0.121,0.46302 0,0.50932 0.0545,0.71768 0.121,0.46302 0.0666,-0.25466 0.0666,-0.67138 0,-0.92604 z m -29.73722,-0.44452 c -0.26146,-0.35363 -0.69946,-0.70379 -0.97334,-0.77812 -0.35093,-0.0953 -0.4559,-0.29603 -0.3555,-0.67996 0.17827,-0.68172 0.0886,-0.6798 -0.8557,0.0183 -0.79578,0.58834 -0.81493,1.28894 -0.0352,1.28894 0.24637,0 0.56106,0.10898 0.6993,0.24217 0.2157,0.20783 0.55039,0.30449 1.78506,0.51554 0.11593,0.0198 -0.003,-0.2533 -0.26458,-0.60692 z m 32.55022,-0.22736 c -0.081,-0.13098 -0.26125,-0.11757 -0.40928,0.0305 -0.14552,0.14552 -0.17673,0.40673 -0.0694,0.58047 0.14833,0.23999 0.24665,0.23268 0.40928,-0.0305 0.11773,-0.19049 0.14894,-0.4517 0.0694,-0.58047 z m -10.403716,0.23817 c 0,-0.20216 -0.24809,-0.64865 -0.55131,-0.99219 -0.42932,-0.4864 -0.51714,-0.51737 -0.39688,-0.13996 0.0849,0.26656 0.15444,0.71304 0.15444,0.99218 0,0.27914 0.1786,0.50753 0.39688,0.50753 0.21828,0 0.39687,-0.1654 0.39687,-0.36756 z m -1.90065,-0.62463 c -0.0731,-0.63525 -0.19832,-0.7276 -0.98665,-0.7276 -0.8009,0 -0.90653,0.0822 -0.93478,0.7276 -0.0295,0.67326 0.0442,0.72761 0.98665,0.72761 0.95499,0 1.01328,-0.0454 0.93478,-0.72761 z M 73.46082,137.20704 c -0.1427,-0.26663 -0.46404,-0.65359 -0.71409,-0.8599 -0.42097,-0.34734 -0.4289,-0.32614 -0.10712,0.28635 0.29929,0.56969 0.74817,1.04048 1.0052,1.05428 0.0415,0.002 -0.0413,-0.2141 -0.18399,-0.48073 z m 6.17177,-0.0689 c -0.66741,-0.73749 -1.46445,-1.16575 -1.37066,-0.73648 0.12496,0.57189 0.8515,1.24552 1.3677,1.2681 0.49471,0.0216 0.49477,0.0118 0.003,-0.53162 z m 4.65239,0.3047 c 0,-0.31217 -0.51603,-0.64611 -0.70555,-0.45659 -0.18953,0.18953 0.14441,0.70556 0.45658,0.70556 0.13694,0 0.24897,-0.11204 0.24897,-0.24897 z m 21.00607,-0.16955 c 0.23202,-0.60463 0.21311,-0.63981 -0.3438,-0.63981 -0.37413,0 -0.46866,0.13665 -0.36601,0.52916 0.16614,0.63534 0.48915,0.68569 0.70981,0.11065 z m -28.32893,-0.82302 c -0.27578,-0.40856 -0.66099,-1.06075 -0.85602,-1.44932 -0.20932,-0.41705 -0.50281,-0.6496 -0.71638,-0.56765 -0.3795,0.14563 0.12801,1.07392 1.31077,2.39757 0.71325,0.7982 0.88685,0.54565 0.26163,-0.3806 z m 35.36871,0.0509 c 0,-0.21828 -0.11533,-0.39687 -0.25628,-0.39687 -0.14096,0 -0.18775,0.17859 -0.10399,0.39687 0.0838,0.21828 0.19909,0.39688 0.25628,0.39688 0.0572,0 0.10399,-0.1786 0.10399,-0.39688 z m -43.1271,-0.52916 c 0,-0.21828 -0.17859,-0.39688 -0.39687,-0.39688 -0.41317,0 -0.52493,0.31292 -0.22049,0.61736 0.30444,0.30444 0.61736,0.19268 0.61736,-0.22048 z m 31.96096,-1.55787 c -0.12789,-1.27235 -0.6196,-1.08065 -0.67814,0.26438 -0.0293,0.67414 0.0239,1.35061 0.1182,1.50327 0.25187,0.40754 0.65171,-0.85468 0.55994,-1.76765 z m -26.84812,1.05457 c 0.0783,-0.20406 0.0722,-0.44115 -0.0135,-0.52687 -0.22667,-0.22667 -0.88683,0.38556 -0.71519,0.66327 0.21605,0.34959 0.56743,0.28381 0.72868,-0.1364 z m 8.48911,0.1454 c 0.0767,-0.12408 -0.006,-0.41952 -0.18282,-0.65652 -0.4019,-0.53742 -1.07133,-0.18322 -0.83207,0.44026 0.17941,0.46755 0.78043,0.59562 1.01489,0.21626 z m 9.681384,-0.68399 c 0,-0.7759 -0.0875,-0.90514 -0.59531,-0.87923 -0.78438,0.04 -1.25677,0.41891 -1.25677,1.00807 0,0.4607 0.4165,0.6856 1.38906,0.75006 0.35714,0.0237 0.46302,-0.17732 0.46302,-0.8789 z M 70.62806,134.66301 c 0.77463,-0.79766 0.90626,-1.13804 1.04874,-2.71198 0.14675,-1.62106 0.24284,-4.80413 0.19212,-6.3639 -0.0112,-0.34417 -0.18678,-0.59531 -0.41623,-0.59531 -0.21828,0 -0.39688,-0.11523 -0.39688,-0.25606 0,-0.1541 -0.23704,-0.16878 -0.59531,-0.0369 -0.90125,0.33184 -1.07367,2.0053 -0.90931,8.82568 0.0272,1.12776 0.0813,2.05049 0.12024,2.05052 0.0389,3e-5 0.46943,-0.41041 0.95663,-0.91209 z m 35.04043,-0.89452 c 0.092,-0.62521 -0.20308,-0.7471 -0.67242,-0.27776 -0.35607,0.35607 -0.13255,1.08929 0.28974,0.9504 0.16397,-0.0539 0.33618,-0.35662 0.38268,-0.67264 z m -13.303756,-1.83136 c -0.23968,-0.9705 -0.43764,-1.13607 -1.139,-0.95266 -0.38715,0.10124 -0.59075,0.35662 -0.59075,0.74098 0,0.77417 0.19884,0.93929 1.13111,0.93929 0.71627,0 0.76401,-0.058 0.59864,-0.72761 z m -0.14225,-2.4474 c 0,-0.14552 -0.23812,-0.26458 -0.52917,-0.26458 -0.32165,0 -0.52916,-0.17639 -0.52916,-0.44979 0,-0.30938 -0.0853,-0.36449 -0.27326,-0.17653 -0.43299,0.43298 0.004,1.15549 0.69844,1.15549 0.34823,0 0.63315,-0.11906 0.63315,-0.26459 z m -0.79375,-3.05832 c 0,-0.38401 -0.11452,-0.60629 -0.26458,-0.51355 -0.14552,0.0899 -0.26459,0.39462 -0.26459,0.67707 0,0.28246 0.11907,0.51355 0.26459,0.51355 0.14552,0 0.26458,-0.30468 0.26458,-0.67707 z m 0.0924,-2.63869 c -0.20987,-0.54692 -0.35701,-0.48247 -0.35701,0.15638 0,0.29963 0.11386,0.47441 0.25303,0.3884 0.13916,-0.086 0.18596,-0.33116 0.10398,-0.54478 z m 4.20684,55.26891 c -0.10902,-0.0206 -0.85307,-0.21995 -1.65343,-0.44297 -0.80037,-0.22303 -2.82443,-0.47988 -4.49792,-0.57078 -3.10665,-0.16875 -4.844084,-0.56028 -4.676414,-1.05384 0.0521,-0.15334 0.612794,-0.23992 1.260644,-0.19465 0.64175,0.0448 2.4765,0.13571 4.07723,0.20194 1.72612,0.0714 3.33286,0.2871 3.94859,0.53005 0.64571,0.25477 1.70544,0.38799 2.80322,0.35238 0.97078,-0.0315 1.88559,0.0173 2.03291,0.10831 0.14733,0.091 0.96388,0.0523 1.814546,-0.0862 1.16505,-0.18961 1.59764,-0.17139 1.75325,0.0739 0.35219,0.5551 0.0751,0.85183 -0.86542,0.92689 -1.09958,0.0878 -5.721116,0.20718 -5.997206,0.15498 z m 55.354586,-0.11051 c -0.16904,-0.27351 2.46191,-0.85974 3.31699,-0.73909 0.37009,0.0522 0.66146,0.26815 0.66146,0.49021 0,0.31358 -0.40388,0.40332 -1.92452,0.42758 -1.05848,0.0169 -1.98275,-0.0635 -2.05393,-0.1787 z m 5.69824,0.0848 c 0,-0.5165 0.67416,-0.79528 2.36988,-0.98 0.93963,-0.10236 2.11966,-0.35793 2.6223,-0.56795 0.50263,-0.21001 1.13319,-0.31224 1.40124,-0.22716 0.45329,0.14387 0.45679,0.18527 0.0499,0.5921 -0.24057,0.24058 -0.74695,0.60262 -1.12529,0.80454 -0.84381,0.45036 -5.31808,0.76877 -5.31808,0.37847 z m -24.29906,-0.49467 c 0.0733,-0.38259 0.4574,-0.56279 1.63093,-0.76506 1.73447,-0.29894 4.65759,-0.13607 4.74863,0.26459 0.0599,0.26382 -1.2276,0.49164 -4.66285,0.82504 -1.68368,0.1634 -1.80573,0.14033 -1.71671,-0.32457 z m 10.47458,0.24319 c -0.74432,-0.19452 -0.53421,-0.57631 0.39687,-0.7212 1.98061,-0.3082 4.85435,-0.41318 5.19328,-0.18973 0.50977,0.33609 0.0965,0.88479 -0.51919,0.68937 -0.28336,-0.0899 -0.5069,-0.0363 -0.5069,0.12153 0,0.27923 -3.57822,0.35765 -4.56406,0.10003 z m -2.97657,-0.34679 c -0.0899,-0.14552 0.0887,-0.26458 0.39688,-0.26458 0.30822,0 0.48681,0.11906 0.39687,0.26458 -0.0899,0.14552 -0.26853,0.26459 -0.39687,0.26459 -0.12834,0 -0.30694,-0.11907 -0.39688,-0.26459 z m -62.9198,-3.64248 c -0.48319,-0.10743 -0.5168,-1.01723 -0.0353,-0.95616 0.13688,0.0174 0.65691,0.1079 1.15562,0.2012 0.49871,0.0933 0.81845,0.0813 0.71052,-0.0266 -0.24254,-0.24253 4.53989,-1.09849 5.18904,-0.92873 0.25835,0.0676 0.46973,0.28527 0.46973,0.48381 0,0.38351 -1.13272,0.78441 -1.52729,0.54056 -0.12895,-0.0797 -0.82033,0.0354 -1.53639,0.25577 -1.32133,0.40665 -3.55518,0.62376 -4.4259,0.43016 z m -4.68125,-0.59363 c -1.56938,-0.14568 -2.1997,-0.40957 -2.05012,-0.85832 0.14465,-0.43394 6.01887,-0.54088 6.01887,-0.10957 0,0.54476 -2.35079,1.11807 -3.96875,0.96789 z m -8.61724,-0.82055 c -0.23954,-0.38759 0.35408,-0.74406 1.3412,-0.80537 1.66069,-0.10317 1.86506,-0.1332 2.33289,-0.34281 0.55768,-0.24987 1.23058,0.24735 0.82888,0.61248 -0.80677,0.73333 -4.13604,1.1294 -4.50297,0.5357 z m -10.89578,-0.64077 c -0.49737,-0.54988 -0.41277,-0.65257 0.53765,-0.65257 0.47761,0 1.47424,-0.15715 2.21472,-0.34923 1.54549,-0.4009 2.74009,-0.15892 2.23284,0.45228 -0.62483,0.75287 -4.42262,1.1715 -4.98521,0.54952 z m 3.10886,-1.88504 c -0.21829,-0.0728 -0.57547,-0.20072 -0.79375,-0.28427 -0.21829,-0.0836 -0.51594,-0.16991 -0.66146,-0.19192 -1.99668,-0.30203 -3.02157,-2.68988 -1.29456,-3.01616 0.99874,-0.18869 1.19834,-0.58285 1.0196,-2.01344 -0.23315,-1.86612 -0.21328,-1.87864 3.29248,-2.07486 0.49548,-0.0277 0.94797,0.0867 1.00556,0.25426 0.12539,0.36491 -1.35469,1.15053 -2.16755,1.15053 -0.75804,0 -0.99469,0.26409 -0.63022,0.70326 0.21845,0.26321 0.21324,0.35507 -0.0201,0.35507 -0.17652,0 -0.25358,0.20339 -0.17543,0.46302 0.18395,0.61116 -0.29338,1.20608 -1.47647,1.84017 l -0.96644,0.51798 0.83468,0.49306 c 0.45907,0.27118 1.14104,0.46971 1.51547,0.44118 0.89281,-0.068 1.71258,0.53554 1.49555,1.10112 -0.17275,0.45018 -0.30457,0.48538 -0.97734,0.261 z m 88.52505,-1.21492 c -0.79866,-2.81685 -0.87745,-3.77152 -0.32865,-3.98211 0.1951,-0.0749 0.52252,-0.0299 0.7276,0.0999 0.20509,0.12983 0.61101,0.2397 0.90205,0.24416 1.16743,0.0179 1.29874,0.42085 0.43249,1.3273 -0.63215,0.66148 -0.78384,1.01091 -0.65745,1.51448 0.21374,0.85163 -0.83939,1.63092 -1.07604,0.79624 z m -89.45102,-7.87123 c -0.0875,-0.14153 -0.42092,-0.21462 -0.74101,-0.16244 -0.78877,0.12859 -1.50802,-0.28217 -1.50802,-0.86123 0,-0.72869 0.30453,-0.8744 0.83124,-0.39773 0.30527,0.27626 0.74215,0.38239 1.2121,0.29444 0.40413,-0.0756 0.97291,-0.0466 1.26395,0.0645 0.29104,0.11114 0.72502,0.10046 0.9644,-0.0237 0.28542,-0.14806 0.54176,-0.0974 0.74469,0.14708 0.2436,0.29352 0.20728,0.42745 -0.17066,0.62939 -0.74258,0.39679 -2.41927,0.59674 -2.59669,0.30967 z m 88.13948,-0.40565 c -0.49765,-1.29687 0.012,-2.24031 1.21025,-2.24031 0.81386,0 0.94842,0.29209 0.35966,0.78071 -0.20964,0.17399 -0.418,0.63404 -0.46302,1.02233 -0.0926,0.79849 -0.853,1.09889 -1.10689,0.43727 z m -91.6592,-3.45024 c -1.7413,-0.464 -2.43348,-0.82491 -2.43348,-1.26882 0,-0.60526 0.24134,-0.62322 1.65621,-0.12331 0.86508,0.30566 2.03325,0.47801 3.10629,0.45829 2.46455,-0.0453 2.64583,-0.0166 2.64583,0.41894 0,0.38376 -0.66538,0.62249 -1.71979,0.61705 -0.29104,-0.001 -0.82682,0.059 -1.19063,0.13448 -0.3638,0.0755 -1.29279,-0.031 -2.06443,-0.23663 z"
       id="path11" />
  </g>
</svg>
