<?xml version="1.0" encoding="UTF-8" standalone="no"?>
<!-- Created with Inkscape (http://www.inkscape.org/) -->

<svg
   width="83.845505mm"
   height="47.424561mm"
   viewBox="0 0 83.845505 47.424561"
   version="1.1"
   id="svg1"
   inkscape:version="1.4.1-rc (06eac75fbf, 2025-03-29)"
   sodipodi:docname="city3.svg"
   xmlns:inkscape="http://www.inkscape.org/namespaces/inkscape"
   xmlns:sodipodi="http://sodipodi.sourceforge.net/DTD/sodipodi-0.dtd"
   xmlns="http://www.w3.org/2000/svg"
   xmlns:svg="http://www.w3.org/2000/svg">
  <sodipodi:namedview
     id="namedview1"
     pagecolor="#ffffff"
     bordercolor="#000000"
     borderopacity="0.25"
     inkscape:showpageshadow="2"
     inkscape:pageopacity="0.0"
     inkscape:pagecheckerboard="0"
     inkscape:deskcolor="#d1d1d1"
     inkscape:document-units="mm"
     inkscape:zoom="0.72248176"
     inkscape:cx="159.17357"
     inkscape:cy="90.659728"
     inkscape:window-width="1850"
     inkscape:window-height="1016"
     inkscape:window-x="0"
     inkscape:window-y="0"
     inkscape:window-maximized="1"
     inkscape:current-layer="layer1" />
  <defs
     id="defs1" />
  <g
     inkscape:label="Layer 1"
     inkscape:groupmode="layer"
     id="layer1"
     transform="translate(-62.970834,-124.61856)">
    <path
       style="fill:#000000"
       d="m 136.1255,171.70873 c -0.22691,-0.37604 -0.87446,-0.45646 -4.29478,-0.53338 -2.21516,-0.0498 -4.38688,0.0125 -4.82602,0.13841 -0.43915,0.12594 -0.79845,0.14375 -0.79845,0.0396 0,-0.28681 0.0371,-0.28578 -14.68438,-0.40819 -7.56708,-0.0629 -14.770359,-0.20924 -16.007286,-0.32514 -2.749919,-0.25769 -3.446749,-0.18999 -3.859899,0.37503 -0.274955,0.37602 -0.411479,0.38913 -0.965383,0.0927 -0.354827,-0.1899 -1.142857,-0.37336 -1.751178,-0.40769 -0.608321,-0.0343 -1.246758,-0.20314 -1.418748,-0.37513 -0.426237,-0.42624 -1.000626,-0.39439 -1.000626,0.0555 0,0.64395 -2.175173,1.07841 -3.042708,0.60774 -0.485675,-0.2635 -1.293831,-0.34693 -5.021959,-0.51844 -0.989171,-0.0455 -1.339397,-0.17086 -1.404427,-0.50268 -0.06923,-0.35324 0.202732,-0.47822 1.35351,-0.622 1.531305,-0.19132 1.57424,-0.23272 2.405894,-2.31945 0.393359,-0.987 0.389246,-1.00615 -0.269948,-1.25677 -0.871357,-0.33129 -1.257987,-0.32094 -2.084881,0.0558 -0.974806,0.44415 -1.483759,-0.0829 -0.80468,-0.83324 0.478418,-0.52865 0.471479,-0.53568 -0.548648,-0.55566 -0.568257,-0.0111 -1.271319,-0.067 -1.562361,-0.12426 -0.483939,-0.0951 -1.30894,0.18416 -3.019858,1.02229 -0.413655,0.20264 -0.670317,0.21855 -0.728627,0.0452 -0.05399,-0.16054 -0.697514,-0.21348 -1.607986,-0.13229 -1.333083,0.11887 -1.560294,0.22398 -1.865497,0.86296 -0.426666,0.89329 -0.786969,0.9299 -0.994982,0.10111 -0.135334,-0.53921 -0.362458,-0.64768 -1.630231,-0.77852 -1.454045,-0.15007 -2.207433,-0.51919 -1.83002,-0.8966 0.106574,-0.10657 1.067852,-0.17129 2.136173,-0.14381 1.765907,0.0454 1.95547,0 2.086214,-0.49997 0.07917,-0.30273 0.300336,-0.49723 0.492021,-0.43269 0.191516,0.0645 0.467272,-0.0364 0.612793,-0.22416 0.145521,-0.18776 0.917144,-0.39096 1.714718,-0.45154 1.57762,-0.11983 1.417183,0.0215 3.261659,-2.8731 0.602834,-0.94604 0.958624,-1.82838 0.96021,-2.38125 0.01515,-5.2807 0.09837,-6.7797 0.418992,-7.54706 0.485812,-1.16271 1.281833,-0.94719 1.052786,0.28504 -0.08459,0.4551 -0.209658,2.27591 -0.277921,4.04624 -0.06826,1.77034 -0.163689,3.55628 -0.212059,3.96875 -0.111508,0.9509 -0.82228,2.33405 -1.430843,2.78442 -0.564921,0.41807 -1.183344,1.7328 -0.89802,1.90914 0.226102,0.13974 2.034413,0.16431 5.937141,0.0807 1.759126,-0.0377 2.655945,-0.16346 2.797479,-0.39227 0.16638,-0.26899 0.402445,-0.25567 1.172652,0.0661 1.592043,0.6652 1.948178,0.5521 2.145407,-0.6813 0.230885,-1.44388 0.850402,-2.88452 1.240421,-2.88452 0.309971,0 0.296947,0.32875 -0.178191,4.49791 -0.227897,1.99971 -0.276489,4.7625 -0.08376,4.7625 0.629638,0 1.373199,-3.65131 1.331318,-6.53753 -0.02379,-1.63921 0.09688,-3.09601 0.306938,-3.70571 0.350578,-1.01756 0.396564,-4.02849 0.07691,-5.03563 -0.134598,-0.42409 -0.488682,-0.59446 -1.553009,-0.74728 -2.125135,-0.30513 -5.161924,-0.22237 -5.614211,0.153 -0.256245,0.21266 -0.844595,0.28084 -1.644978,0.19063 -0.959944,-0.1082 -1.41509,-0.32964 -1.98224,-0.96439 -1.384545,-1.54957 -0.668641,-2.23544 0.851312,-0.81559 0.467342,0.43657 1.057028,0.79375 1.310414,0.79375 0.769104,0 1.601586,-0.93784 2.139975,-2.41081 0.422081,-1.15476 0.461703,-1.57951 0.228224,-2.44659 -0.32987,-1.22504 0.0712,-2.28635 0.864013,-2.28635 0.277288,0 0.493115,-0.198 0.504701,-0.46302 0.01113,-0.25466 0.06678,-0.70114 0.123662,-0.99218 0.248966,-1.27391 -0.378983,-1.70447 -1.893141,-1.29805 -0.539437,0.1448 -0.557043,0.2854 -0.51293,4.09642 0.02513,2.17057 -0.03542,4.07772 -0.134552,4.23811 -0.09913,0.16039 -0.391944,0.25014 -0.650702,0.19944 -0.42899,-0.0841 -0.472849,-0.51485 -0.497462,-4.88638 -0.02052,-3.64451 0.05631,-4.87215 0.320361,-5.11919 0.275632,-0.25788 0.439526,-0.24375 0.79375,0.0684 0.365041,0.32173 0.735713,0.34585 2.033896,0.13236 0.873125,-0.14358 1.844967,-0.26266 2.15965,-0.26461 0.336461,-0.002 0.625984,-0.2094 0.702834,-0.50328 0.07188,-0.27485 0.274144,-0.49973 0.449485,-0.49973 0.228659,0 0.298715,0.6172 0.247762,2.18281 -0.09604,2.951 -0.04872,3.45364 0.380387,4.04048 0.293159,0.40092 0.445718,0.43931 0.748201,0.18827 0.26295,-0.21823 0.638109,-0.2413 1.218256,-0.0749 0.985158,0.28254 3.709309,0.40491 4.279883,0.19225 0.218281,-0.0814 0.625134,-0.18465 0.904117,-0.22955 0.278982,-0.0449 0.559501,-0.23859 0.623375,-0.43041 0.07373,-0.22142 -0.06319,-0.31803 -0.37495,-0.26459 -0.417175,0.0715 -0.502897,-0.11844 -0.569578,-1.26223 -0.11934,-2.04706 1.029046,-2.76176 2.468471,-1.53625 l 0.785023,0.66836 -1.106746,-0.12206 c -0.720666,-0.0795 -1.149574,-0.0104 -1.229519,0.19788 -0.246816,0.6432 0.153213,1.68747 0.773604,2.01949 0.350141,0.18739 0.63662,0.48932 0.63662,0.67094 0,0.44184 0.91576,2.50884 1.362787,3.07602 0.459497,0.58299 1.925395,0.84289 2.285694,0.40525 0.363562,-0.44161 0.536692,-6.00949 0.187972,-6.04549 -0.145516,-0.015 -0.717638,-0.0555 -1.271378,-0.0899 -0.55374,-0.0344 -1.192708,-0.24851 -1.41993,-0.47573 -0.374452,-0.37445 -0.36037,-0.44136 0.150409,-0.71473 0.347452,-0.18595 0.724049,-0.21177 0.982133,-0.0673 0.617134,0.34537 1.666686,0.0634 1.986166,-0.53349 0.15348,-0.28678 0.19722,-0.83776 0.0972,-1.22439 -0.10003,-0.38663 -0.19945,-1.41672 -0.22094,-2.2891 l -0.0391,-1.58614 0.92604,-0.30419 c 0.60805,-0.19974 1.03525,-0.21541 1.24408,-0.0457 0.17491,0.1422 0.55077,0.18467 0.83523,0.0944 0.40756,-0.12935 0.49299,-0.34434 0.40296,-1.01405 -0.0929,-0.69086 -0.061,-0.76325 0.17009,-0.38687 0.33225,0.54102 1.06628,0.60367 1.54982,0.13229 0.273,-0.26614 0.49003,-0.15183 1.11125,0.58532 0.77457,0.91911 0.97265,1.99528 0.8119,4.41119 -0.0509,0.76478 0.007,0.82622 0.73726,0.78946 1.14751,-0.0577 1.39013,-0.4419 1.54061,-2.43961 0.074,-0.98237 0.36225,-2.30089 0.64055,-2.93004 0.4319,-0.97638 0.62046,-1.14392 1.28738,-1.14392 0.64634,0 0.78137,-0.10871 0.78137,-0.62906 0,-0.34599 0.17323,-0.77283 0.38495,-0.94854 0.31972,-0.26535 0.47944,-0.11844 0.94272,0.86715 0.30678,0.65264 0.76918,1.2419 1.02756,1.30947 0.45632,0.11933 1.87696,2.3419 1.87924,2.94003 6.2e-4,0.16357 0.3573,0.83319 0.79262,1.48803 0.43531,0.65484 0.79199,1.38579 0.79261,1.62433 0.001,0.51559 0.94616,1.75041 1.16934,1.52827 0.15659,-0.15586 0.27634,-1.8487 0.55924,-7.9057 0.0847,-1.81384 0.27161,-3.43956 0.41531,-3.61272 0.1437,-0.17315 0.18371,-0.62386 0.0889,-1.00158 -0.10117,-0.4031 -0.0609,-0.68677 0.0975,-0.68677 0.15732,0 0.24102,-0.56488 0.20069,-1.35433 -0.0556,-1.08778 0.0485,-1.49112 0.52863,-2.04934 l 0.59781,-0.695 0.35143,0.79256 c 0.19329,0.43592 0.49052,0.91163 0.66052,1.05715 0.17,0.14553 0.38206,0.90251 0.47124,1.6822 0.0892,0.77969 0.3385,1.66938 0.55404,1.9771 0.21553,0.30772 0.39188,0.83848 0.39188,1.17947 0,0.34099 0.13523,0.87267 0.30051,1.1815 0.16529,0.30884 0.35163,1.58093 0.41409,2.82688 0.0625,1.24594 0.23501,2.74161 0.38344,3.32369 0.14843,0.58208 0.34905,1.53458 0.44581,2.11667 0.0968,0.58208 0.2681,1.04287 0.38074,1.02398 2.0129,-0.33756 3.36707,-1.41767 3.36707,-2.68562 0,-1.14325 0.37703,-1.28874 2.6191,-1.01069 0.49462,0.0613 1.19227,-0.022 1.55034,-0.1851 0.54129,-0.24663 0.71019,-0.21573 1.00196,0.18329 0.22248,0.30426 0.2742,0.68782 0.1413,1.04787 -0.1153,0.31236 -0.15311,0.72926 -0.084,0.92643 0.17214,0.4913 -1.00971,0.11353 -1.44892,-0.46315 -0.27726,-0.36402 -0.32806,-0.36796 -0.35651,-0.0276 -0.0522,0.62417 -0.0358,2.48582 0.0245,2.77812 0.03,0.14552 0.0316,0.32411 0.004,0.39687 -0.12545,0.32545 -0.22787,1.41944 -0.10532,1.12494 0.0854,-0.20531 0.40447,-0.27357 0.84315,-0.18041 0.69201,0.14695 0.69544,0.14112 0.17654,-0.30064 -0.39413,-0.33553 -0.41761,-0.4123 -0.092,-0.30084 0.62755,0.21484 0.7963,-0.0734 0.32114,-0.5486 -0.22556,-0.22555 -0.3551,-0.6794 -0.29044,-1.0176 0.0642,-0.33576 -0.0148,-0.67205 -0.17558,-0.74732 -0.16075,-0.0753 -0.0645,-0.1092 0.21385,-0.0754 0.39205,0.0476 0.57967,0.41926 0.83245,1.64898 0.57989,2.82093 0.79955,3.43646 1.25783,3.52472 0.31886,0.0614 0.4463,-0.0959 0.4463,-0.55081 0,-0.39112 0.15392,-0.63676 0.39899,-0.63676 0.3818,0 0.60986,0.40803 2.50164,4.47587 0.45682,0.98226 0.91379,1.78309 1.01549,1.77962 0.10171,-0.004 0.64586,-0.11325 1.20922,-0.24396 1.08861,-0.25257 1.75383,-0.13288 1.75383,0.31556 0,0.15029 0.20836,0.43325 0.46302,0.6288 0.4338,0.33311 0.42722,0.36566 -0.10438,0.51575 -0.52412,0.14798 -0.53938,0.2139 -0.20006,0.86424 0.20203,0.38723 0.36806,1.07612 0.36896,1.53087 0.003,1.66121 0.29265,2.42974 0.9798,2.6022 0.54863,0.1377 0.60199,0.22976 0.32596,0.56236 -0.2719,0.32763 -0.22751,0.46952 0.25193,0.80534 0.36855,0.25814 0.52818,0.57718 0.43526,0.86992 -0.087,0.2742 0.0701,0.6585 0.38619,0.94456 0.664,0.60092 0.67164,0.84974 0.0323,1.05265 -0.27533,0.0874 -0.5594,0.38373 -0.63127,0.65854 -0.0942,0.36031 -0.47114,0.55074 -1.35148,0.68274 -0.67145,0.1007 -1.22082,0.28444 -1.22082,0.40831 0,0.43079 -1.09196,0.84523 -1.40424,0.53294 -0.159,-0.159 -0.62247,-0.28908 -1.02993,-0.28908 -0.48213,0 -0.74083,-0.13859 -0.74083,-0.39689 0,-0.21828 -0.13395,-0.39687 -0.29766,-0.39687 -0.18962,0 -0.24003,-0.28811 -0.1389,-0.79375 0.11577,-0.57886 0.0587,-0.79375 -0.21081,-0.79375 -0.2844,0 -0.37274,0.48772 -0.38339,2.11666 -0.0136,2.0776 0.1084,2.40403 0.6834,1.82903 0.49729,-0.49729 0.69838,0.2486 0.25107,0.93128 -0.31886,0.48665 -0.34958,0.82646 -0.14251,1.57644 0.24454,0.88564 1.33217,2.27783 1.77952,2.27783 0.10657,0 0.4033,0.24473 0.6594,0.54384 0.34289,0.40046 0.61997,0.49087 1.05099,0.34294 0.78729,-0.27019 1.90509,-0.18414 2.62704,0.20223 0.57372,0.30705 0.55923,0.3292 -0.46008,0.70352 -0.94292,0.34628 -1.89142,0.3913 -5.68265,0.26975 -0.50933,-0.0163 -1.46183,0.0584 -2.11667,0.16597 -0.9696,0.15935 -1.24023,0.11348 -1.45783,-0.24712 z m 2.97663,-1.78269 c -0.0657,-0.1927 -0.56703,-0.33073 -1.20122,-0.33073 -0.76422,0 -1.198,-0.14985 -1.45636,-0.5031 -0.25378,-0.347 -0.42637,-0.40857 -0.55624,-0.19843 -0.29406,0.47579 -0.87515,0.358 -1.023,-0.20738 -0.0939,-0.35904 -0.29184,-0.47075 -0.66245,-0.37383 -0.29071,0.076 -0.61271,0.002 -0.71556,-0.16435 -0.26946,-0.43601 -0.64135,-2.97996 -0.79408,-5.43207 -0.18695,-3.00151 -0.36332,-3.83645 -0.81042,-3.83645 -0.21169,0 -0.38582,-0.20836 -0.38695,-0.46303 -0.002,-0.41452 -1.2672,-1.26632 -1.51421,-1.01932 -0.17162,0.17163 -0.14795,1.05308 0.0505,1.87922 0.18211,0.75823 0.42637,3.79189 0.41322,5.13197 -0.003,0.34873 0.12752,0.79521 0.291,0.99219 0.16347,0.19697 0.20853,0.35813 0.10013,0.35813 -0.10839,0 -0.0765,0.14883 0.0708,0.33073 0.41695,0.51469 0.01,2.78465 -0.56693,3.16061 -0.59317,0.38669 0.15813,0.52161 3.24777,0.58324 1.75704,0.035 3.27553,0.14464 3.37443,0.24353 0.3392,0.3392 2.26051,0.20368 2.13957,-0.15093 z m 0.86245,-0.22967 c 0,-0.14552 -0.11906,-0.191 -0.26458,-0.10106 -0.14552,0.0899 -0.26459,0.28259 -0.26459,0.42811 0,0.14552 0.11907,0.19099 0.26459,0.10106 0.14552,-0.0899 0.26458,-0.28259 0.26458,-0.42811 z m -26.00346,-0.0276 c 0.87163,0.0982 1.15925,0.0514 1.02437,-0.16686 -0.10316,-0.16691 -0.43484,-0.30346 -0.73707,-0.30346 -0.50912,0 -0.53383,-0.0924 -0.33611,-1.25677 0.11737,-0.69122 0.22285,-2.68552 0.2344,-4.43177 0.017,-2.57471 0.10854,-3.29869 0.48402,-3.82918 0.25466,-0.3598 0.46302,-0.87098 0.46302,-1.13595 0,-0.83248 2.52198,-3.21715 3.80215,-3.59514 1.06963,-0.31582 1.21031,-0.29609 2.04665,0.28707 2.08945,1.45692 3.41956,2.95616 3.58706,4.04317 0.0894,0.58026 0.29243,1.21922 0.45116,1.41989 0.15873,0.20068 0.33352,1.57844 0.38842,3.06169 0.082,2.21656 0.0241,2.77255 -0.3253,3.12197 -0.23383,0.23383 -0.42514,0.84334 -0.42514,1.35447 0,0.51113 -0.13178,1.01077 -0.29283,1.1103 -0.49961,0.30877 0.28266,0.60118 1.05166,0.3931 0.383,-0.10363 1.07124,-0.10483 1.5294,-0.003 0.45816,0.10216 0.99395,0.0838 1.19063,-0.0409 0.19668,-0.12463 0.63822,-0.22843 0.98122,-0.23066 0.45917,-0.003 0.58127,-0.11441 0.46302,-0.42256 -0.0883,-0.23018 -0.1606,-0.52784 -0.1606,-0.66146 0,-0.13361 -0.30061,-0.24294 -0.66801,-0.24294 -0.79192,0 -1.22078,-0.86479 -1.27853,-2.57807 -0.0208,-0.61758 -0.0974,-1.1236 -0.17013,-1.12448 -0.0728,-8.9e-4 -0.14058,-0.56717 -0.15071,-1.25839 -0.0101,-0.69122 -0.0392,-2.50693 -0.0647,-4.03489 -0.0254,-1.52797 -0.0314,-3.25438 -0.0132,-3.83646 0.0564,-1.80717 0.008,-1.96243 -0.57834,-1.84955 -0.30863,0.0594 -0.60586,-0.0611 -0.68976,-0.27977 -0.0811,-0.21132 -0.32364,-0.38422 -0.53899,-0.38422 -0.21535,0 -0.52638,-0.35719 -0.69116,-0.79375 -0.16478,-0.43656 -0.43752,-0.79375 -0.60608,-0.79375 -0.80918,0 -0.97958,-0.84706 -1.05282,-5.2338 -0.0993,-5.94971 -0.34337,-10.6066 -0.68652,-13.10051 -0.4888,-3.55246 -0.81886,-2.0892 -0.91282,4.04681 -0.0368,2.40109 -0.18175,4.90141 -0.32218,5.55625 -0.14043,0.65484 -0.23051,1.71 -0.20018,2.34479 0.0414,0.86688 -0.0638,1.22848 -0.42287,1.45271 -0.33887,0.21163 -0.47804,0.62507 -0.47804,1.42016 0,1.25863 -0.69836,3.24901 -1.13998,3.24901 -0.1855,0 -0.19747,0.0913 -0.0335,0.25528 0.32284,0.32284 3.29013,0.59396 3.29013,0.30062 0,-0.27732 1.34542,-0.0426 1.79475,0.31306 0.60332,0.4776 0.18822,0.81147 -1.1492,0.92428 -2.79413,0.2357 -3.70163,0.0918 -4.91368,-0.7793 -0.33827,-0.24311 -0.63273,-0.21483 -1.36085,0.13069 -1.13357,0.53791 -2.36567,0.35971 -3.53863,-0.5118 l -0.83324,-0.6191 -0.032,2.96969 c -0.0176,1.63334 -0.0788,3.32689 -0.136,3.76345 -0.0572,0.43656 -0.1722,1.44859 -0.25551,2.24895 -0.15864,1.52396 -0.60892,3.7293 -0.94537,4.63021 -0.1087,0.29104 -0.17854,1.00542 -0.1552,1.5875 0.0233,0.58209 -0.11245,1.37985 -0.30175,1.7728 -0.53914,1.11919 -0.43719,1.53211 0.38343,1.55309 0.40019,0.0102 0.96573,0.11577 1.25677,0.23454 0.29105,0.11877 0.62672,0.12596 0.74596,0.016 0.11923,-0.10998 0.76215,-0.1385 1.4287,-0.0634 z m -1.00967,-11.64897 c -0.0596,-2.00043 0.0914,-2.96635 0.51208,-3.27393 0.71926,-0.52593 1.12446,0.0481 0.93202,1.32045 -0.21236,1.404 -0.78364,2.81338 -1.14038,2.81338 -0.15295,0 -0.28962,-0.38696 -0.30372,-0.8599 z m 11.27489,-0.72037 c -0.0875,-0.14154 -0.13017,-0.74682 -0.0949,-1.34506 0.0706,-1.19638 0.68448,-1.83717 1.76003,-1.83717 0.58872,0 0.61495,0.0667 0.44214,1.12447 -0.22943,1.40438 -1.65236,2.79386 -2.1073,2.05776 z m -16.72288,11.73535 c 0.67205,-0.49837 1.68863,-3.02913 1.40264,-3.49187 -0.08,-0.12939 0.0256,-0.46116 0.23459,-0.73726 0.20899,-0.2761 0.38377,-0.78523 0.3884,-1.1314 0.008,-0.60461 -0.0447,-0.62235 -1.34075,-0.45043 -1.0481,0.13904 -1.32242,0.10236 -1.22933,-0.16435 0.0659,-0.18883 0.34562,-0.30224 0.62156,-0.25202 0.27595,0.0502 0.44219,0.049 0.36943,-0.003 -0.0728,-0.0518 -0.4127,-0.33098 -0.75542,-0.62047 l -0.62313,-0.52635 0.094,0.65856 c 0.0787,0.55165 -0.0563,0.70772 -0.83208,0.96155 -0.78487,0.25683 -0.91307,0.40854 -0.84096,0.99511 0.0468,0.38065 -0.0371,0.69208 -0.18645,0.69208 -0.14934,0 -0.35149,0.42622 -0.44922,0.94716 -0.16889,0.90028 -0.72569,1.43662 -1.10139,1.06093 -0.31511,-0.31511 -0.36997,-3.86018 -0.0597,-3.86018 0.15826,0 0.22478,-0.10186 0.14784,-0.22636 -0.0769,-0.1245 0.15415,-0.17015 0.51355,-0.10145 0.3594,0.0687 0.65345,0.25391 0.65345,0.41157 0,0.1976 0.0851,0.20157 0.27388,0.0128 0.1888,-0.18879 -0.0391,-0.61625 -0.73339,-1.37583 -0.92119,-1.00777 -1.92174,-1.45498 -1.92174,-0.85894 0,0.43607 -1.76205,1.34449 -2.607894,1.34449 -0.822643,0 -1.888164,-0.66636 -1.892088,-1.18328 -0.0028,-0.36981 -1.272568,-0.93338 -2.102952,-0.93338 -0.372131,0 -1.054167,-0.10829 -1.515635,-0.24064 -0.605192,-0.17356 -0.873665,-0.15038 -0.963294,0.0832 -0.239842,0.62503 -1.785912,0.24195 -2.736634,-0.67805 l -0.91381,-0.88429 0.122405,4.69785 0.122405,4.69784 -0.646942,0.16239 c -1.008508,0.25312 -0.596228,0.6971 0.976155,1.05124 0.984888,0.22181 1.590343,0.23967 1.931722,0.057 0.273473,-0.14636 0.930152,-0.19323 1.459288,-0.10416 0.529136,0.0891 1.616908,0.23265 2.417273,0.31905 0.800364,0.0864 1.480443,0.1792 1.511286,0.2062 0.03084,0.027 2.190349,0.0296 4.798905,0.006 4.18731,-0.0383 4.82145,-0.10165 5.4141,-0.54115 z m -14.09835,-2.07663 c -0.185246,-0.22321 -0.392223,-0.91178 -0.459949,-1.53017 -0.09622,-0.87854 0.0121,-1.32229 0.495538,-2.02998 0.74415,-1.0893 1.086436,-1.23462 1.629348,-0.69171 0.512224,0.51223 0.313842,2.23324 -0.315196,2.73442 -0.236991,0.18883 -0.430892,0.65417 -0.430892,1.0341 0,0.81789 -0.446335,1.05269 -0.918849,0.48334 z m 5.57135,-0.77941 c -0.783137,-0.808 -0.861781,-1.01915 -0.70025,-1.88019 0.167567,-0.89322 0.238237,-0.95609 0.892983,-0.79445 0.391059,0.0965 0.802178,0.26423 0.913597,0.37264 0.31691,0.30831 0.36125,3.00371 0.0512,3.11414 -0.151439,0.0539 -0.672344,-0.31152 -1.157564,-0.81214 z m 22.98841,2.68897 c -0.007,-0.73069 -0.0499,-0.78791 -0.28673,-0.3808 -0.15327,0.2635 -0.21292,0.65046 -0.13255,0.8599 0.24457,0.63731 0.42777,0.42797 0.41928,-0.4791 z m 1.36073,-0.27449 c -0.21608,-0.21609 -0.29435,-0.18648 -0.29435,0.11133 0,0.22313 0.0868,0.49251 0.19292,0.59862 0.10611,0.10611 0.23857,0.056 0.29435,-0.11135 0.0558,-0.16734 -0.031,-0.43671 -0.19292,-0.5986 z m -39.853937,-0.42719 c 0.125585,-0.74333 0.330163,-1.07314 0.73063,-1.17786 0.806922,-0.21102 1.014086,0.0236 0.676001,0.76563 -0.290735,0.63809 -0.130559,1.18718 0.238621,0.818 0.261293,-0.26129 0.600445,-3.69952 0.387059,-3.92387 -0.09672,-0.1017 -0.652099,-0.25971 -1.234182,-0.35114 -1.162036,-0.18252 -1.119678,-0.23329 -1.974785,2.36719 -0.298234,0.90696 -0.287015,1.07696 0.08922,1.35209 0.236694,0.17307 0.430352,0.50991 0.430352,0.74853 0,0.85584 0.486183,0.41295 0.657079,-0.59856 z m 34.532507,0.50324 c 0,-0.29103 -0.11907,-0.52916 -0.26459,-0.52916 -0.14552,0 -0.26458,0.23812 -0.26458,0.52916 0,0.29105 0.11906,0.52917 0.26458,0.52917 0.14552,0 0.26459,-0.23812 0.26459,-0.52917 z m 2.21934,0.11407 c 0.11919,-0.31063 0.015,-0.39387 -0.41399,-0.33073 -0.31531,0.0464 -0.6223,0.2332 -0.6822,0.4151 -0.16105,0.48901 0.90773,0.40674 1.09619,-0.0844 z m -3.80684,-0.26197 c 0,-0.22687 -0.11907,-0.33891 -0.26459,-0.24897 -0.14552,0.0899 -0.26458,0.27556 -0.26458,0.41249 0,0.13694 0.11906,0.24897 0.26458,0.24897 0.14552,0 0.26459,-0.18562 0.26459,-0.41249 z m 7.03901,-1.10335 c -0.26895,-0.26896 -0.49086,0.13596 -0.27019,0.49302 0.16669,0.26972 0.22901,0.26992 0.31863,10e-4 0.0613,-0.18383 0.0395,-0.40617 -0.0484,-0.49409 z m -2.41853,-0.97375 c 0.58305,-0.20292 1.16259,-0.62036 1.30531,-0.94022 0.16156,-0.36206 0.42563,-0.53109 0.7125,-0.45608 0.6081,0.15902 1.52744,-1.46495 1.12135,-1.9808 -0.15199,-0.19306 -0.24431,-0.75571 -0.20516,-1.25032 0.0965,-1.21952 -0.32713,-2.04458 -1.24508,-2.4248 -0.42113,-0.17444 -0.85647,-0.47937 -0.96742,-0.67762 -0.30326,-0.5419 -2.85216,-0.42768 -4.35592,0.1952 -1.19333,0.49429 -1.84135,2.23725 -1.64116,4.41415 0.16528,1.79719 0.5442,2.43508 1.4465,2.43508 0.23412,0 0.56856,0.14287 0.74318,0.3175 0.21709,0.21709 0.3175,0.22492 0.3175,0.0248 0,-0.16247 0.23547,-0.23115 0.52916,-0.15435 0.29105,0.0761 0.52917,0.30309 0.52917,0.50439 0,0.45777 0.37935,0.45624 1.71007,-0.007 z m -2.11809,-1.76178 c -0.0961,-0.15545 -0.34397,-0.21766 -0.5509,-0.13825 -0.2834,0.10875 -0.31826,0.0316 -0.14128,-0.31269 0.12922,-0.25139 0.18276,-0.60237 0.11897,-0.77997 -0.0638,-0.17759 0.19177,-0.72637 0.5679,-1.21951 0.54393,-0.71312 0.82302,-0.87001 1.36381,-0.76663 0.91461,0.17484 1.18434,1.00951 0.70125,2.17002 -0.21356,0.51303 -0.52373,1.02025 -0.68928,1.12716 -0.44323,0.28624 -1.17031,0.24373 -1.37047,-0.0801 z m 9.93302,1.07637 c 0,-0.14552 -0.12609,-0.26459 -0.2802,-0.26459 -0.15411,0 -0.20661,0.11907 -0.11667,0.26459 0.0899,0.14552 0.21602,0.26458 0.28019,0.26458 0.0642,0 0.11668,-0.11906 0.11668,-0.26458 z m 5.55625,-0.52917 c 0,-0.14552 -0.12609,-0.26458 -0.2802,-0.26458 -0.15411,0 -0.20661,0.11907 -0.11667,0.26458 0.0899,0.14552 0.21602,0.26458 0.28019,0.26458 0.0642,0 0.11668,-0.11906 0.11668,-0.26458 z m -5.72515,-0.39687 c -0.0838,-0.21829 -0.19909,-0.39688 -0.25628,-0.39688 -0.0572,0 -0.10399,0.17859 -0.10399,0.39688 0,0.21828 0.11533,0.39687 0.25628,0.39687 0.14096,0 0.18775,-0.17859 0.10399,-0.39687 z m 5.48602,-1.91063 c -0.23192,-0.39842 -0.27518,-0.34546 -0.28199,0.34517 -0.004,0.44869 0.0813,0.90648 0.19039,1.01731 0.31587,0.32076 0.39409,-0.84279 0.0916,-1.36248 z m -63.169477,0.57653 c -0.17329,-0.45159 -0.661204,-0.39604 -0.824505,0.0939 -0.05816,0.17449 0.136683,0.31419 0.43818,0.31419 0.380498,0 0.496068,-0.12206 0.386325,-0.40806 z m 70.888117,-0.82383 c -0.17913,-0.0725 -0.53631,-0.0769 -0.79375,-0.01 -0.25743,0.0671 -0.11086,0.12638 0.3257,0.13177 0.43656,0.005 0.64719,-0.0495 0.46805,-0.12197 z m 2.03503,-1.16143 c -0.4857,-0.30722 -1.65609,-0.32989 -1.4698,-0.0285 0.0762,0.12323 0.52497,0.23504 0.99735,0.24847 0.62192,0.0177 0.75227,-0.043 0.47245,-0.22 z m -9.90349,-1.50929 c -0.20964,-1.72078 -0.69625,-2.57359 -0.5515,-0.96652 0.0512,0.56797 0.10509,1.36009 0.11986,1.76027 0.0148,0.40018 0.15962,0.7276 0.32191,0.7276 0.20431,0 0.23806,-0.46792 0.10973,-1.52135 z m -28.25836,0.72189 c 0.0222,-0.29419 -0.0716,-0.46576 -0.20828,-0.38126 -0.30074,0.18586 -0.33286,0.91614 -0.0403,0.91614 0.11455,0 0.22641,-0.2407 0.24857,-0.53488 z m -4.85479,-0.13013 c 0.52709,-0.22023 0.95835,-0.50164 0.95835,-0.62538 0,-0.12372 -0.31438,-0.53933 -0.69862,-0.92357 l -0.69863,-0.69862 -0.862559,0.99327 c -0.624032,0.71859 -0.787713,1.08473 -0.591895,1.324 0.352671,0.43093 0.728281,0.41711 1.893354,-0.0697 z m 9.39738,-0.98863 c 0.15095,-0.76398 0.30091,-2.08983 0.33323,-2.94634 l 0.0588,-1.55727 -1.01387,-0.40439 c -0.93033,-0.37106 -1.04097,-0.36733 -1.3427,0.0453 -0.43644,0.59687 -1.31245,0.74971 -3.96092,0.69105 -0.29104,-0.006 -0.89296,-0.44138 -1.3376,-0.96653 -0.70839,-0.83665 -0.87813,-0.91751 -1.37166,-0.65337 -1.02972,0.55109 -1.963218,0.36157 -2.750821,-0.55846 -0.404866,-0.47295 -0.740958,-0.71107 -0.746872,-0.52917 -0.0059,0.1819 -0.181439,0.33073 -0.390054,0.33073 -0.217098,0 -0.415102,0.31115 -0.463021,0.7276 -0.06017,0.52293 -0.213966,0.70574 -0.546741,0.64986 -0.272513,-0.0458 -0.46302,0.0882 -0.46302,0.32567 0,0.32591 -0.228751,0.37206 -1.190625,0.24022 l -1.190625,-0.16319 -0.02176,0.89586 c -0.01197,0.49272 -0.07724,1.23572 -0.145046,1.65111 -0.12737,0.78025 0.524269,1.58453 1.116838,1.37844 0.158717,-0.0552 0.442553,-0.005 0.630746,0.11111 0.188193,0.11631 0.681806,0.11407 1.096918,-0.005 0.441134,-0.12652 0.818919,-0.11263 0.909183,0.0334 0.1981,0.32053 1.704784,-0.74049 1.704784,-1.20053 0,-0.19055 0.177283,-0.49359 0.393962,-0.67342 0.216679,-0.17983 0.328715,-0.43253 0.248968,-0.56156 -0.07975,-0.12903 0.0336,-0.23461 0.251886,-0.23461 0.21828,0 0.47046,0.11907 0.56039,0.26459 0.0899,0.14552 0.40561,0.26458 0.70149,0.26458 0.29588,0 0.84069,0.23813 1.21069,0.52917 0.37,0.29104 0.89174,0.52916 1.15942,0.52916 0.27255,0 0.66627,0.34728 0.89484,0.78928 0.52234,1.01009 1.51338,1.49603 3.17731,1.55796 0.82277,0.0306 1.42244,0.1964 1.58615,0.4385 0.43779,0.6474 0.61269,0.45304 0.89975,-0.9998 z m -2.61515,-0.38695 c -0.34382,-0.4371 -0.5079,-0.92844 -0.41969,-1.25677 0.0797,-0.2965 0.14646,-0.74326 0.14845,-0.9928 0.002,-0.24955 0.24935,-0.58523 0.54969,-0.74597 0.89323,-0.47804 1.29675,0.0896 1.20973,1.70165 -0.11636,2.15587 -0.52837,2.51409 -1.48818,1.29389 z m -11.468321,-1.83996 c -0.357895,-0.35789 -0.160682,-1.13632 0.358246,-1.41404 0.680489,-0.36418 1.052865,-0.13369 1.052865,0.65169 0,0.73076 -0.936668,1.23679 -1.411111,0.76235 z m 0.881945,-0.61736 c 0,-0.14552 -0.12609,-0.26458 -0.280199,-0.26458 -0.154109,0 -0.206613,0.11906 -0.116676,0.26458 0.08994,0.14552 0.216026,0.26458 0.280198,0.26458 0.06417,0 0.116677,-0.11906 0.116677,-0.26458 z m 7.672916,3.43958 c 0,-0.14552 -0.12609,-0.26459 -0.2802,-0.26459 -0.15411,0 -0.20661,0.11907 -0.11667,0.26459 0.0899,0.14553 0.21602,0.26458 0.28019,0.26458 0.0642,0 0.11668,-0.11906 0.11668,-0.26458 z m -1.5875,-0.79375 c 0,-0.14552 -0.11906,-0.26458 -0.26458,-0.26458 -0.14552,0 -0.26459,0.11906 -0.26459,0.26458 0,0.14552 0.11907,0.26459 0.26459,0.26459 0.14552,0 0.26458,-0.11907 0.26458,-0.26459 z m 39.31401,-1.25543 c -0.28903,-0.28903 -0.48722,0.17062 -0.27971,0.64871 0.19676,0.45333 0.21103,0.45291 0.32066,-0.009 0.0631,-0.26605 0.0447,-0.55379 -0.041,-0.63941 z m -5.97651,0.1971 c 0,-0.14552 -0.12609,-0.26458 -0.2802,-0.26458 -0.15411,0 -0.20661,0.11906 -0.11668,0.26458 0.0899,0.14552 0.21603,0.26458 0.2802,0.26458 0.0642,0 0.11668,-0.11906 0.11668,-0.26458 z m -43.728998,-0.52917 c -0.02192,-0.29104 -0.126187,-0.52916 -0.231696,-0.52916 -0.105509,0 -0.173898,0.23812 -0.151974,0.52916 0.02192,0.29104 0.126186,0.52917 0.231696,0.52917 0.105509,0 0.173898,-0.23813 0.151974,-0.52917 z m 0.05415,-1.52135 c -0.01648,-0.64475 -0.04449,-0.66735 -0.245987,-0.19844 -0.310545,0.72268 -0.310545,0.92604 0,0.92604 0.145521,0 0.256215,-0.32742 0.245987,-0.7276 z m 27.138388,0.46302 c 0.20695,-0.33486 -0.14331,-0.33486 -0.66146,0 -0.34202,0.22103 -0.33504,0.25704 0.0505,0.26053 0.24607,0.002 0.52099,-0.11501 0.61093,-0.26053 z m 14.72666,-0.27743 c 0.33532,-0.0181 0.4824,-0.39627 0.62207,-1.59968 0.21943,-1.89059 -0.0699,-2.40897 -1.2166,-2.17963 -0.42387,0.0848 -0.77067,0.0429 -0.77067,-0.093 0,-0.13592 -0.59532,-0.25611 -1.32292,-0.26708 -0.96008,-0.0145 -1.32292,0.0805 -1.32292,0.34634 0,0.20147 -0.16471,0.3663 -0.36601,0.3663 -0.42568,0 -0.68359,0.79831 -0.68871,2.13174 -0.003,0.78461 0.11739,0.98724 0.72399,1.21846 0.40018,0.15255 1.44198,0.23749 2.31511,0.18877 0.87312,-0.0487 1.78512,-0.0992 2.02666,-0.11223 z m 1.70363,0.0749 c 0.23656,-0.15818 0.42962,-1.12043 0.22479,-1.12043 -0.0318,0 -0.2528,0.29766 -0.49117,0.66146 -0.42481,0.64834 -0.31074,0.84487 0.26638,0.45897 z m -46.279756,-0.64087 c -0.08446,-0.21107 -0.147156,-0.14837 -0.159852,0.15985 -0.01149,0.27892 0.05104,0.43519 0.138964,0.34727 0.08792,-0.0879 0.09732,-0.31612 0.02089,-0.50712 z m 29.320296,0.31419 c 0.0899,-0.14552 0.0445,-0.26458 -0.10106,-0.26458 -0.14552,0 -0.33817,0.11906 -0.4281,0.26458 -0.0899,0.14552 -0.0445,0.26459 0.10106,0.26459 0.14552,0 0.33817,-0.11907 0.4281,-0.26459 z m 18.91771,-0.39687 c 0,-0.20111 -0.11906,-0.43923 -0.26458,-0.52917 -0.15066,-0.0931 -0.26459,0.13475 -0.26459,0.52917 0,0.39442 0.11393,0.62227 0.26459,0.52916 0.14552,-0.0899 0.26458,-0.32806 0.26458,-0.52916 z M 91.545834,153.6674 c 0,-0.88308 -0.08204,-1.16149 -0.283038,-0.9605 -0.253328,0.25333 -0.09385,2.20405 0.180192,2.20405 0.05656,0 0.102846,-0.5596 0.102846,-1.24355 z m 14.684376,0.4498 c 0.0899,-0.14553 0.4072,-0.26459 0.70502,-0.26459 0.29783,0 0.90209,-0.30341 1.34279,-0.67424 l 0.80129,-0.67424 0.61907,0.58159 c 0.7495,0.70411 0.80124,0.6034 1.08796,-2.11774 0.18284,-1.73525 0.27244,-1.9686 0.78579,-2.04643 0.40125,-0.0608 0.80853,0.19011 1.32455,0.81613 0.8884,1.07778 2.08901,1.62357 2.61366,1.18815 0.19372,-0.16077 0.87907,-0.29232 1.52299,-0.29232 h 1.17077 l -0.0689,-0.97013 c -0.0379,-0.53358 -0.0829,-1.04779 -0.1,-1.1427 -0.0241,-0.13391 -1.46908,-0.75348 -1.75727,-0.75348 -0.0328,0 -0.15079,0.38695 -0.26207,0.85989 -0.11128,0.47294 -0.23034,0.94919 -0.26458,1.05833 -0.0342,0.10915 -0.0771,0.37704 -0.0953,0.59532 -0.0403,0.48372 -1.26144,0.54027 -1.42824,0.0661 -0.18682,-0.53104 0.30228,-1.56239 1.04262,-2.19854 l 0.6853,-0.58887 -0.70268,-0.46041 c -0.6878,-0.45067 -0.73094,-0.44286 -2.03604,0.36844 -1.65514,1.02888 -1.9688,1.03364 -2.31689,0.0351 -0.30689,-0.88035 -0.70572,-0.98603 -1.53338,-0.40631 -0.39411,0.27604 -0.5162,0.58077 -0.42461,1.05985 0.0707,0.36983 -0.0144,0.84461 -0.18904,1.05507 -0.17467,0.21046 -0.25093,0.59673 -0.16947,0.85838 0.0815,0.26164 0.0419,0.64489 -0.0879,0.85167 -0.20138,0.32085 -0.33287,0.31246 -0.89713,-0.0573 -0.47511,-0.3113 -1.28188,-0.43578 -2.86685,-0.44234 -2.73132,-0.0113 -3.56119,-0.0851 -3.81533,-0.33937 -0.29387,-0.29402 -1.375819,-0.24053 -1.572518,0.0777 -0.09388,0.15189 -0.02679,0.44955 0.149073,0.66145 0.239466,0.28854 0.244366,0.47613 0.01952,0.74706 -0.225757,0.27202 -0.217384,0.42808 0.03375,0.62908 0.538635,0.43108 1.467215,0.63899 1.635785,0.36625 0.31252,-0.50568 1.55698,-0.077 2.49259,0.8586 0.94993,0.94994 2.18961,1.28693 2.55562,0.69472 z m 32.85678,-1.37253 c -0.0845,-0.21107 -0.14716,-0.14837 -0.15985,0.15985 -0.0115,0.27892 0.051,0.43519 0.13896,0.34727 0.0879,-0.0879 0.0973,-0.31612 0.0209,-0.50712 z m -44.632804,-1.75194 c -0.0011,-0.10056 -0.298792,-0.32045 -0.661458,-0.48866 -0.746237,-0.34612 -0.866058,-0.0709 -0.241189,0.55395 0.389468,0.38947 0.907359,0.35201 0.902647,-0.0653 z m 35.311484,0.17158 c 0.6285,-0.28636 0.83835,-0.89385 0.69366,-2.00805 -0.0593,-0.45649 0.90307,-0.4144 1.86193,0.0814 0.96285,0.49791 0.9634,1.35653 7.8e-4,1.21988 -0.42187,-0.0599 -0.5808,0.0241 -0.50073,0.26459 0.0645,0.19377 0.34557,0.3772 0.62456,0.40763 0.27899,0.0304 0.68585,0.079 0.90413,0.10783 0.97893,0.12951 1.32291,-0.046 1.32291,-0.67509 0,-1.15196 0.46367,-1.927 1.33442,-2.23055 0.46367,-0.16163 0.94842,-0.22875 1.07723,-0.14914 0.27203,0.16812 0.30438,-0.18946 0.0719,-0.7952 -0.13411,-0.34946 -0.44392,-0.39486 -1.78594,-0.26169 -0.93274,0.0926 -1.93213,0.0413 -2.34851,-0.12039 -0.5997,-0.23291 -0.94071,-0.17206 -1.97557,0.35253 -0.68791,0.34871 -1.3588,0.56725 -1.49085,0.48563 -0.13205,-0.0816 -0.82063,-0.1763 -1.53016,-0.21041 -1.60506,-0.0772 -1.58858,-0.23897 -0.35705,3.50731 0.13648,0.41517 1.21137,0.4273 2.09725,0.0237 z M 83.894557,150.9422 c 0.133619,0 0.242943,-0.1786 0.242943,-0.39688 0,-0.47632 -0.563949,-0.52084 -1.005416,-0.0794 -0.452129,0.45213 -0.392774,0.82634 0.101014,0.63685 0.230183,-0.0883 0.52784,-0.1606 0.661459,-0.1606 z m 3.94711,0.11915 c 0,-0.38855 -0.891797,-1.80127 -0.977381,-1.5483 -0.1427,0.4218 0.387667,1.69373 0.706249,1.69373 0.149123,0 0.271132,-0.0654 0.271132,-0.14543 z m 2.413935,-0.74993 c -0.492254,-1.02604 -0.61345,-1.00945 -0.73497,0.10057 -0.07486,0.68383 3.56e-4,0.79479 0.538759,0.79479 0.619317,0 0.62134,-0.009 0.196211,-0.89536 z m 47.998038,0.69287 c 0.15039,-0.10691 0.26644,-0.31345 0.25789,-0.45897 -0.0256,-0.43609 -0.77944,-1.98437 -0.96615,-1.98437 -0.19476,0 -0.4292,2.35507 -0.25207,2.5322 0.17302,0.17302 0.65464,0.12845 0.96033,-0.0889 z M 91.28125,149.3547 c -0.15576,-0.29105 -0.342732,-0.52917 -0.415493,-0.52917 -0.07276,0 -0.0049,0.23812 0.15091,0.52917 0.155761,0.29104 0.342733,0.52916 0.415493,0.52916 0.07276,0 0.0049,-0.23812 -0.15091,-0.52916 z m 5.55625,0.26458 c 0,-0.14552 -0.126089,-0.26458 -0.280198,-0.26458 -0.154109,0 -0.206614,0.11906 -0.116677,0.26458 0.08994,0.14552 0.216026,0.26458 0.280198,0.26458 0.06417,0 0.116677,-0.11906 0.116677,-0.26458 z m -3.941443,-1.25677 c -0.271787,-0.69282 -0.692452,-1.29653 -0.937455,-1.34537 -0.374681,-0.0747 -0.337435,0.12256 0.237314,1.25677 0.860453,1.69802 1.356109,1.76074 0.700141,0.0886 z m 10.904163,0.13229 c 0.0783,-0.47294 0.15608,-1.80202 0.17275,-2.95349 0.0167,-1.15148 0.10729,-2.21818 0.20139,-2.37043 0.0941,-0.15225 0.13411,-1.29373 0.0889,-2.53661 -0.14011,-3.85341 -0.1509,-3.89786 -0.88396,-3.6412 -0.22806,0.0799 -0.17474,0.28177 0.17991,0.6813 0.4974,0.56036 0.49676,0.56783 -0.0489,0.56783 -0.30412,0 -0.82859,-0.10491 -1.16549,-0.23313 l -0.61253,-0.23313 -0.0212,3.0774 c -0.0117,1.69257 -0.0712,4.04135 -0.13229,5.21951 -0.11945,2.30427 0.10103,2.89054 1.16494,3.09764 0.31685,0.0617 0.65214,0.12836 0.74509,0.14817 0.093,0.0198 0.23309,-0.35092 0.31144,-0.82386 z m -7.768597,0.0435 c -0.162431,-0.30351 -0.348017,-0.49914 -0.412412,-0.43474 -0.185181,0.18518 0.190227,0.98657 0.462156,0.98657 0.135157,0 0.112789,-0.24813 -0.04974,-0.55183 z m 10.661607,0.3766 c -0.1819,-0.0734 -0.47956,-0.0734 -0.66146,0 -0.1819,0.0734 -0.0331,0.13345 0.33073,0.13345 0.3638,0 0.51263,-0.06 0.33073,-0.13345 z m -19.120424,-1.42027 c -0.431333,-0.80595 -0.610797,-0.47004 -0.214069,0.40069 0.181848,0.39911 0.372621,0.59969 0.42394,0.44573 0.05132,-0.15396 -0.04312,-0.53485 -0.209871,-0.84642 z m 31.160904,-1.20304 c 0.0375,-0.42534 0.26489,-1.45871 0.50543,-2.29639 0.42804,-1.4907 0.30174,-2.36509 -0.20963,-1.45131 -0.14184,0.25345 -0.48307,0.46082 -0.75829,0.46082 -0.27523,0 -0.57426,0.1195 -0.66453,0.26555 -0.0903,0.14606 -0.43634,0.19723 -0.76904,0.11373 -0.33271,-0.0835 -1.1977,0.0421 -1.9222,0.27903 -0.76336,0.24969 -1.9207,0.39656 -2.7523,0.34929 l -1.43503,-0.0816 -0.0814,-1.12448 c -0.0799,-1.10445 -0.0988,-1.12454 -1.05833,-1.12809 -0.53733,-0.002 -1.21894,-0.0686 -1.51468,-0.14808 -0.50402,-0.13542 -0.54151,-0.0131 -0.59857,1.95288 -0.0701,2.41578 0.246,2.9896 1.3178,2.39223 0.6336,-0.35314 2.4257,-1.03593 2.46811,-0.94035 0.0132,0.0298 0.22289,0.37248 0.4659,0.76145 l 0.44183,0.70721 1.32887,-0.64107 c 1.61085,-0.7771 1.73125,-0.78297 2.20438,-0.10747 0.40654,0.58042 2.27195,1.60703 2.69897,1.48536 0.14552,-0.0415 0.29522,-0.4234 0.33267,-0.84874 z M 127,146.86984 c 0,-0.43836 1.1585,-0.77799 1.87648,-0.55011 0.27971,0.0888 0.88319,-0.0255 1.34106,-0.25389 0.45788,-0.22842 1.0325,-0.41531 1.27693,-0.41531 0.31741,0 0.44442,-0.22684 0.44442,-0.79375 0,-0.57399 -0.12588,-0.79375 -0.45464,-0.79375 -0.49639,0 -1.30925,-1.06197 -1.30925,-1.71048 0,-0.52281 -0.49463,-0.51946 -1.07669,0.007 -0.25129,0.22741 -0.90969,0.46964 -1.46311,0.53828 -0.55342,0.0686 -1.05308,0.17167 -1.11036,0.22894 -0.31454,0.31455 -0.12008,4.11096 0.21057,4.11096 0.14552,0 0.26459,-0.16568 0.26459,-0.36819 z m 7.67291,-1.3957 c 0,-0.24253 -0.0743,-0.36666 -0.16513,-0.27583 -0.0908,0.0908 -0.36755,-0.0848 -0.61494,-0.39034 -0.24848,-0.30687 -0.61863,-0.48742 -0.82705,-0.40343 -0.27206,0.10965 -0.21126,0.2025 0.21806,0.333 0.32742,0.0995 0.59531,0.29316 0.59531,0.4303 0,0.13713 -0.14882,0.17395 -0.33073,0.0818 -0.1819,-0.0921 -0.0996,0.0199 0.18287,0.24897 0.65945,0.53478 0.94161,0.52744 0.94161,-0.0245 z m -20.35448,-3.72622 c -0.28962,-0.40018 -0.58557,-1.24483 -0.65767,-1.877 -0.0721,-0.63217 -0.23974,-1.28702 -0.37255,-1.45521 -0.1328,-0.16819 -0.24952,-0.70499 -0.25937,-1.19288 -0.0207,-1.02426 -0.24885,-1.37003 -0.56573,-0.8573 -0.12134,0.19633 -0.35299,0.27515 -0.51478,0.17516 -0.1722,-0.10643 -0.30508,0.0166 -0.32048,0.29683 -0.0984,1.79002 -0.27326,2.86842 -0.50211,3.09727 -0.47766,0.47766 -0.27782,0.78198 0.21853,0.33279 0.86602,-0.78374 1.49773,-0.3288 1.18802,0.85556 -0.25631,0.98011 0.0845,1.35239 1.23816,1.35239 h 1.07456 z m 3.42115,0.46303 c 0,-0.14553 -0.11203,-0.26459 -0.24897,-0.26459 -0.13693,0 -0.32255,0.11906 -0.41249,0.26459 -0.0899,0.14552 0.0221,0.26458 0.24897,0.26458 0.22687,0 0.41249,-0.11906 0.41249,-0.26458 z m 14.01887,-1.1401 c -0.003,-0.47128 -0.052,-0.50547 -0.26054,-0.18282 -0.33686,0.52126 -0.33686,1.13423 0,0.92604 0.14552,-0.0899 0.26276,-0.42438 0.26054,-0.74322 z m -25.79282,-0.97657 c -0.12273,-0.38666 -0.0476,-0.52917 0.27915,-0.52917 0.38607,0 0.39753,-0.0601 0.084,-0.4399 -0.2831,-0.34295 -0.29024,-0.46443 -0.0324,-0.55122 0.1819,-0.0612 0.33073,-0.4685 0.33073,-0.90506 0,-0.88074 -0.59523,-0.93299 -0.75492,-0.0663 -0.0514,0.27898 -0.24264,0.68584 -0.42496,0.90412 -0.37797,0.4525 -0.0544,2.11666 0.41152,2.11666 0.15444,0 0.20127,-0.23181 0.1069,-0.52916 z m 25.53228,-0.11668 c 0,-0.0642 -0.11906,-0.19026 -0.26458,-0.2802 -0.14552,-0.0899 -0.26458,-0.0374 -0.26458,0.11668 0,0.15411 0.11906,0.2802 0.26458,0.2802 0.14552,0 0.26458,-0.0525 0.26458,-0.11668 z m -25.01442,-4.36296 c 0.0837,-0.13546 0.0437,-0.31337 -0.0889,-0.39535 -0.13264,-0.082 -0.30944,0.0289 -0.39288,0.2463 -0.16449,0.42866 0.23303,0.55163 0.48184,0.14905 z m 17.00637,-4.75171 c -0.022,-0.29218 -0.18018,-0.44541 -0.38044,-0.36856 -0.37529,0.14401 -0.44104,0.4176 -0.16637,0.69227 0.32934,0.32933 0.58461,0.17821 0.54681,-0.32371 z m -0.60281,-1.9473 c -0.27536,-0.9114 -0.57709,-1.11712 -1.0558,-0.71982 -0.38947,0.32323 -0.37235,0.39909 0.18723,0.82957 0.82828,0.63718 1.08445,0.60482 0.86857,-0.10975 z m 18.15811,38.44447 c -0.45288,-0.27989 -0.52338,-2.52886 -0.0928,-2.95946 0.16475,-0.16475 0.49424,-0.22483 0.73221,-0.13352 0.35684,0.13693 0.4025,0.40971 0.26052,1.55649 -0.19427,1.56917 -0.36778,1.8654 -0.89996,1.53649 z m -78.074326,-2.92416 c 0,-0.14552 0.119063,-0.26458 0.264583,-0.26458 0.145521,0 0.264584,0.11906 0.264584,0.26458 0,0.14552 -0.119063,0.26458 -0.264584,0.26458 -0.14552,0 -0.264583,-0.11906 -0.264583,-0.26458 z m 17.193214,-5.6942 c -0.416872,-0.5023 -0.151069,-3.56646 0.336741,-3.88193 0.44847,-0.29004 1.520045,0.95953 1.520045,1.77253 0,0.34846 -0.193477,0.74184 -0.429948,0.87417 -0.236471,0.13234 -0.429948,0.55497 -0.429948,0.93919 0,0.77375 -0.481704,0.9168 -0.99689,0.29604 z m 4.480862,-0.32507 c -0.01197,-0.10914 -0.07939,-0.5544 -0.149837,-0.98947 -0.362401,-2.2382 0.792126,-3.4522 1.944723,-2.0449 0.736158,0.89884 0.760896,1.39032 0.07895,1.56865 -0.374822,0.098 -0.529166,0.3609 -0.529166,0.90127 0,0.63736 -0.10884,0.76289 -0.661459,0.76289 -0.363802,0 -0.671249,-0.0893 -0.683215,-0.19844 z m -7.121993,-0.72559 c 0,-0.59148 0.48706,-1.45722 0.819823,-1.45722 0.485822,0 0.14794,1.70756 -0.356802,1.80317 -0.288321,0.0546 -0.463021,-0.0759 -0.463021,-0.34595 z m 20.357708,-11.94826 c -0.144568,-0.38024 -0.192264,-0.91375 -0.105992,-1.18557 0.175386,-0.55259 0.89822,-0.67763 0.945118,-0.16349 0.01659,0.1819 0.06824,0.64844 0.114781,1.03674 0.117978,0.98443 -0.608002,1.22212 -0.953907,0.31232 z"
       id="path8" />
  </g>
</svg>
