<?xml version="1.0" encoding="UTF-8" standalone="no"?>
<!-- Created with Inkscape (http://www.inkscape.org/) -->

<svg
   width="96.323196mm"
   height="59.709648mm"
   viewBox="0 0 96.323193 59.709649"
   version="1.1"
   id="svg1"
   inkscape:version="1.4.1-rc (06eac75fbf, 2025-03-29)"
   sodipodi:docname="city7.svg"
   xmlns:inkscape="http://www.inkscape.org/namespaces/inkscape"
   xmlns:sodipodi="http://sodipodi.sourceforge.net/DTD/sodipodi-0.dtd"
   xmlns="http://www.w3.org/2000/svg"
   xmlns:svg="http://www.w3.org/2000/svg">
  <sodipodi:namedview
     id="namedview1"
     pagecolor="#ffffff"
     bordercolor="#000000"
     borderopacity="0.25"
     inkscape:showpageshadow="2"
     inkscape:pageopacity="0.0"
     inkscape:pagecheckerboard="0"
     inkscape:deskcolor="#d1d1d1"
     inkscape:document-units="mm"
     inkscape:zoom="0.72248176"
     inkscape:cx="181.31946"
     inkscape:cy="112.80562"
     inkscape:window-width="1850"
     inkscape:window-height="1016"
     inkscape:window-x="0"
     inkscape:window-y="0"
     inkscape:window-maximized="1"
     inkscape:current-layer="layer1" />
  <defs
     id="defs1" />
  <g
     inkscape:label="Layer 1"
     inkscape:groupmode="layer"
     id="layer1"
     transform="translate(-57.149997,-118.79824)">
    <path
       style="fill:#000000"
       d="m 130.00781,178.09952 c -0.13089,-0.5005 -0.38015,-0.61331 -1.41096,-0.63859 -0.0728,-0.002 -0.53376,0.0718 -1.02445,0.16347 -0.80579,0.15056 -0.85722,0.1246 -0.53124,-0.26818 0.31993,-0.38549 0.29578,-0.4142 -0.21269,-0.25282 -0.88317,0.28031 -1.2559,-0.58573 -0.51759,-1.20259 0.3114,-0.26017 0.42109,-0.47699 0.24375,-0.48183 -0.53605,-0.0146 -0.0569,-0.80255 0.48807,-0.80255 0.40751,0 0.47361,0.12864 0.33988,0.66145 -0.13973,0.55676 -0.073,0.66146 0.42128,0.66146 0.53991,0 0.57021,-0.08 0.37554,-0.99219 -0.11647,-0.5457 -0.22059,-1.36838 -0.23139,-1.82818 -0.0108,-0.4598 -0.22642,-1.06449 -0.47915,-1.34375 -0.25273,-0.27927 -0.45951,-0.81877 -0.45951,-1.19891 0,-0.38013 -0.12222,-0.76669 -0.2716,-0.85901 -0.14938,-0.0923 -0.2451,-0.30771 -0.21271,-0.47864 0.16517,-0.87171 -0.90834,-2.44681 -1.44259,-2.11662 -0.11712,0.0724 -0.40569,-0.0275 -0.64126,-0.2219 -0.32099,-0.26493 -0.45496,-0.27436 -0.53467,-0.0376 -0.1224,0.3635 -0.86592,0.15726 -0.86592,-0.24019 0,-0.14552 0.17859,-0.19605 0.39687,-0.11229 0.21829,0.0838 0.39688,0.037 0.39688,-0.10398 0,-0.14096 0.0893,-0.23706 0.19844,-0.21356 0.10914,0.0235 0.53385,-0.0956 0.9438,-0.26478 0.58037,-0.23944 0.70779,-0.42593 0.5756,-0.84243 -0.0934,-0.29419 -0.0921,-0.88863 0.003,-1.32097 0.19276,-0.87762 0.48506,-0.72393 1.17923,0.62001 0.39614,0.76694 1.25798,1.39988 1.53244,1.12543 0.0846,-0.0846 0.0148,-0.15373 -0.15496,-0.15373 -0.16977,0 -0.30868,-0.1318 -0.30868,-0.29289 0,-0.16109 0.18609,-0.22148 0.41353,-0.13421 0.31703,0.12166 0.28615,-0.0202 -0.13229,-0.60785 -0.3002,-0.42159 -0.54582,-0.95768 -0.54582,-1.1913 0,-0.23362 -0.23203,-0.62343 -0.51561,-0.86625 -0.28359,-0.24281 -0.45516,-0.5393 -0.38126,-0.65886 0.0739,-0.11957 0.0153,-0.21739 -0.13023,-0.21739 -0.14552,0 -0.3283,0.10309 -0.40618,0.2291 -0.0779,0.126 -0.4607,0.1681 -0.85072,0.0935 -0.46674,-0.0892 -0.81436,0.008 -1.01695,0.28541 -0.20913,0.28599 -0.72608,0.42136 -1.61229,0.42222 -0.71746,6.9e-4 -1.75095,0.005 -2.29666,0.009 -0.66731,0.005 -0.99218,-0.11135 -0.99218,-0.35516 0,-0.48732 0.49953,-0.64803 1.74212,-0.56047 0.5698,0.0401 1.39319,-0.0266 1.82975,-0.14823 0.43656,-0.12168 1.09781,-0.2813 1.46945,-0.35471 0.65845,-0.13008 0.67533,-0.18736 0.66145,-2.24495 -0.008,-1.16131 -0.13329,-2.21992 -0.27882,-2.35247 -0.34607,-0.31524 -1.88648,0.10706 -2.06236,0.56539 -0.0739,0.19264 -0.007,0.90673 0.14857,1.58686 0.31208,1.36376 0.31373,1.35875 -0.5349,1.61963 -0.4455,0.13695 -0.63588,0.0615 -0.7516,-0.29786 -0.0852,-0.2647 -0.27469,-0.73294 -0.421,-1.04055 -0.19747,-0.41517 -0.15217,-0.77943 0.17579,-1.41365 0.243,-0.4699 0.36872,-0.92746 0.27938,-1.01681 -0.16023,-0.16023 -5.87011,-0.16267 -6.8779,-0.003 -0.34738,0.0551 -0.55164,-0.0927 -0.61764,-0.4469 -0.0542,-0.29104 -0.28167,-0.67198 -0.50543,-0.84652 -0.36502,-0.28473 -0.36293,-0.36125 0.0203,-0.74447 0.23492,-0.23492 0.53887,-0.35806 0.67545,-0.27365 0.13658,0.0844 0.31803,0.0407 0.40322,-0.0971 0.0852,-0.13784 0.0313,-0.32698 -0.1197,-0.42032 -0.1667,-0.10303 -0.0623,-0.3441 0.26579,-0.61359 0.72419,-0.5949 0.97942,-3.29576 0.29927,-3.16692 -0.24648,0.0467 -0.46728,0.39263 -0.51511,0.80706 -0.0682,0.591 -0.21523,0.72459 -0.79375,0.72129 -0.54118,-0.003 -0.61747,-0.0626 -0.32082,-0.2502 0.21407,-0.13538 0.31369,-0.32166 0.22139,-0.41396 -0.0923,-0.0923 -0.4758,0.034 -0.85223,0.28063 -0.37643,0.24664 -0.6993,0.37522 -0.71749,0.28572 -0.15094,-0.74266 -0.0691,-2.44518 0.12408,-2.58042 0.40865,-0.28613 2.40432,0.0756 2.73989,0.49659 0.282,0.35381 0.36328,0.35223 0.72963,-0.0141 0.22676,-0.22676 0.30798,-0.47675 0.1805,-0.55554 -0.12749,-0.0788 -0.17948,-0.85009 -0.11553,-1.714 l 0.11625,-1.57075 -1.07712,0.14447 c -0.83707,0.11227 -1.07712,0.0577 -1.07712,-0.2447 0,-0.28297 -0.23468,-0.36219 -0.8599,-0.29029 -0.47294,0.0544 -1.05473,0.12029 -1.29286,0.14645 -0.23812,0.0262 -0.37421,0.20064 -0.30242,0.38774 0.0879,0.22911 -0.1206,0.34018 -0.6386,0.34018 -0.78272,0 -1.41093,-0.41085 -1.39573,-0.91281 0.005,-0.1528 0.18199,-0.0484 0.39414,0.23204 0.43546,0.57558 0.51054,0.542 0.78574,-0.35144 0.15834,-0.51407 0.11567,-0.60463 -0.22353,-0.47447 -0.61077,0.23438 -1.74025,-0.43996 -2.31221,-1.38046 -0.27327,-0.44936 -0.60378,-0.81703 -0.73447,-0.81703 -0.13069,0 -0.29973,-0.23752 -0.37564,-0.52783 -0.0759,-0.2903 -0.3577,-0.60606 -0.62618,-0.70167 -0.26847,-0.0956 -0.68468,-0.3421 -0.92489,-0.54774 -0.24021,-0.20564 -0.50236,-0.26774 -0.58255,-0.13799 -0.19903,0.32204 0.0994,1.38607 0.3887,1.38607 0.12855,0 0.23373,0.17859 0.23373,0.39687 0,0.21828 0.0893,0.40062 0.19844,0.40519 0.10914,0.005 0.40345,0.29043 0.65402,0.63523 0.43546,0.59922 0.43117,0.65795 -0.0971,1.32958 -0.3461,0.44 -0.54761,1.0726 -0.53906,1.69229 0.008,0.5443 -0.0843,1.14813 -0.20402,1.34184 -0.33833,0.54744 -0.76813,0.0984 -0.67857,-0.70891 0.0443,-0.39956 -0.003,-0.786 -0.1049,-0.85876 -0.10202,-0.0728 -0.39497,-0.42995 -0.65099,-0.79375 -0.39506,-0.56137 -0.45279,-0.58208 -0.38154,-0.13685 0.0616,0.38521 -0.0742,0.5338 -0.51136,0.55919 -0.34318,0.0199 -0.59531,-0.11821 -0.59531,-0.32617 0,-0.19841 -0.13821,-0.36075 -0.30713,-0.36075 -0.16892,0 -0.64517,-0.37863 -1.05833,-0.84141 -0.83038,-0.93008 -1.038704,-0.47387 -0.25128,0.55029 0.46718,0.60765 0.47437,1.61403 0.0115,1.61403 -0.12132,0 -0.33663,-0.20736 -0.47847,-0.46081 -0.14184,-0.25345 -0.341224,-0.37748 -0.443084,-0.27563 -0.10185,0.10186 0.228994,0.81524 0.735224,1.5853 0.92234,1.40305 1.38706,2.64243 1.09886,2.93062 -0.32529,0.3253 -1.45966,-0.4395 -1.33859,-0.90248 0.1952,-0.74643 -1.250644,-1.22039 -1.860994,-0.61004 -0.41793,0.41794 -1.8332,0.51805 -1.97267,0.13954 -0.0485,-0.13164 -0.38585,-0.28047 -0.74966,-0.33073 -0.3638,-0.0503 -0.75982,-0.21045 -0.88003,-0.35597 -0.1424,-0.17236 -0.26364,-0.15449 -0.34783,0.0513 -0.0711,0.17373 -0.31216,0.24567 -0.53572,0.15988 -0.22357,-0.0858 -0.48377,-0.0356 -0.57822,0.1115 -0.27525,0.42869 -1.19572,0.61411 -1.62695,0.32773 -0.34334,-0.22802 -0.3276,-0.31643 0.11672,-0.65542 0.28247,-0.21552 0.75872,-0.40566 1.05833,-0.42254 0.43374,-0.0244 0.45216,-0.055 0.0904,-0.15002 -0.57146,-0.15009 -0.86413,-1.60197 -0.59026,-2.92814 0.1127,-0.54571 0.17679,-1.20765 0.14244,-1.47099 -0.0344,-0.26334 0.0793,-0.64964 0.25263,-0.85846 0.31246,-0.3765 0.41857,-2.4215 0.14009,-2.69998 -0.0797,-0.0797 -0.77163,-0.15648 -1.53755,-0.17053 -0.76592,-0.0141 -1.54119,-0.12176 -1.72284,-0.23933 -0.19188,-0.1242 -0.57684,-0.0411 -0.91877,0.19844 -0.32367,0.22671 -0.45284,0.4122 -0.28704,0.4122 0.18847,0 0.30835,0.57022 0.31986,1.52136 0.0101,0.83674 0.0657,2.68377 0.12343,4.1045 0.0578,1.42073 0.005,2.64493 -0.11714,2.72045 -0.1222,0.0755 -0.14761,0.33162 -0.0565,0.56911 0.10554,0.27504 0.0605,0.3668 -0.12402,0.25275 -0.15935,-0.0985 -0.60483,-0.0355 -0.98996,0.13999 -0.52533,0.23936 -0.74722,0.24302 -0.88835,0.0147 -0.1048,-0.16957 -0.68198,-0.27677 -1.30318,-0.24205 -1.01086,0.0565 -1.09949,0.0122 -0.94839,-0.47432 0.16003,-0.51529 0.146,-0.51822 -0.35235,-0.0736 -0.59767,0.53319 -1.49948,0.62225 -1.33952,0.1323 0.0594,-0.18191 0.85249,-0.45044 1.76246,-0.59674 0.90998,-0.1463 1.56584,-0.35466 1.45748,-0.46302 -0.10835,-0.10836 -1.39756,-0.19884 -2.86489,-0.20107 -1.82025,-0.003 -2.54179,-0.0855 -2.27101,-0.26053 0.32093,-0.2074 0.28296,-0.25725 -0.19844,-0.26053 -0.6568,-0.004 -0.75837,-0.26432 -0.28742,-0.73528 0.23414,-0.23414 0.0677,-0.26892 -0.69469,-0.1452 -0.775425,0.12584 -1.05829,0.0632 -1.248431,-0.27659 -0.221217,-0.3953 -0.333025,-0.3728 -1.116217,0.22457 -1.503394,1.14669 -1.797627,0.90557 -1.449924,-1.18822 0.298509,-1.79755 0.35024,-6.35223 0.08956,-7.88517 -0.165942,-0.97583 -0.301112,-1.15981 -0.947001,-1.28899 -0.414386,-0.0829 -0.689387,-0.25431 -0.611113,-0.38096 0.07827,-0.12665 0.02043,-0.43957 -0.12854,-0.69539 -0.217785,-0.37398 -0.279051,-0.38735 -0.31267,-0.0682 -0.023,0.21828 -0.07616,0.635 -0.118134,0.92604 -0.127792,0.88603 -0.122069,2.25162 0.02162,5.15938 0.07551,1.52797 0.133729,2.95672 0.129383,3.175 -0.0043,0.21828 -0.01627,1.1648 -0.0265,2.10338 -0.02003,1.83715 -0.302156,2.65912 -0.912696,2.65912 -0.308608,0 -0.369345,-0.39156 -0.308474,-1.98869 0.04959,-1.30106 -0.02017,-1.95671 -0.201736,-1.89618 -0.152641,0.0509 -0.27753,0.2482 -0.27753,0.4385 0,0.61381 -0.859487,0.96939 -1.450703,0.60017 -0.738178,-0.461 -2.14614,-0.43715 -1.965612,0.0333 0.08044,0.20961 -0.07332,0.41761 -0.365102,0.49392 -0.277229,0.0725 -0.570516,0.38596 -0.651748,0.69659 -0.08123,0.31063 -0.06381,0.51295 0.0387,0.44959 0.253667,-0.15678 0.630941,0.14031 0.98536,0.77592 0.176845,0.31716 0.600872,0.54593 1.058334,0.571 0.419798,0.023 0.903817,0.0528 1.075597,0.0661 0.17178,0.0134 0.350373,0.28288 0.396875,0.5989 0.0465,0.31602 0.263141,0.62998 0.481422,0.69768 0.218282,0.0677 0.311768,0.0316 0.207747,-0.0802 -0.268621,-0.28875 0.29292,-1.2409 0.61459,-1.0421 0.454438,0.28086 0.09879,4.03325 -0.438546,4.627 -0.399905,0.44189 -0.407654,0.51471 -0.05478,0.51471 0.314791,0 0.454579,0.43365 0.597027,1.85208 0.102299,1.01865 0.292976,1.85209 0.423728,1.85209 0.130752,0 0.23773,0.23812 0.23773,0.52916 0,0.29104 0.149954,0.52917 0.333231,0.52917 0.412606,0 1.061097,0.99332 0.860445,1.31798 -0.21809,0.35288 -1.65317,-0.55774 -1.968038,-1.2488 -0.193827,-0.4254 -0.499175,-0.59835 -1.056434,-0.59835 -0.431094,0 -0.862408,-0.12718 -0.958476,-0.28262 -0.09607,-0.15544 -0.34122,-0.21871 -0.544782,-0.14059 -0.203562,0.0781 -0.370112,0.0267 -0.370112,-0.11426 0,-0.14095 -0.211665,-0.25628 -0.470366,-0.25628 -0.83993,0 -1.421816,-0.9724 -1.221342,-2.04102 0.156185,-0.83254 0.120747,-0.93236 -0.276854,-0.77978 -0.250782,0.0962 -0.565292,0.17497 -0.698911,0.17497 -0.133619,0 -0.242944,0.77764 -0.242944,1.72809 0,1.28641 -0.100703,1.76674 -0.394002,1.87929 -0.578173,0.22187 -0.995266,2.00449 -0.66949,2.86134 0.203334,0.53481 0.167591,0.84955 -0.151843,1.33707 -0.229777,0.35068 -0.346217,0.75339 -0.258755,0.89491 0.08746,0.14151 -0.110635,0.29558 -0.440215,0.34236 -0.32958,0.0468 -0.558803,0.19342 -0.509384,0.32586 0.04942,0.13244 -0.09941,0.34672 -0.330729,0.47617 -0.23132,0.12945 -0.420582,0.42263 -0.420582,0.65149 0,0.32498 0.08044,0.34937 0.367262,0.11133 0.247142,-0.20511 0.571657,-0.2244 0.992188,-0.059 0.343709,0.1352 1.101175,0.3763 1.683258,0.53576 0.582084,0.15947 1.428721,0.61792 1.881418,1.01877 0.452696,0.40086 1.182167,1.02649 1.621047,1.39029 1.130383,0.93701 3.24441,3.77028 3.24441,4.34823 0,0.47321 -0.85615,0.0354 -1.130067,-0.57792 -0.178735,-0.40018 -0.563136,-0.932 -0.854224,-1.18182 -0.291088,-0.24982 -0.449112,-0.45818 -0.351165,-0.46302 0.193506,-0.01 -1.330211,-1.5963 -1.532902,-1.5963 -0.06792,0 -0.444495,-0.29766 -0.83684,-0.66146 -0.392344,-0.36381 -0.870424,-0.66146 -1.0624,-0.66146 -0.191977,0 -0.283313,-0.10636 -0.20297,-0.23636 0.08034,-0.13 -0.150755,-0.31086 -0.513552,-0.40192 -0.362796,-0.091 -0.659607,-0.25258 -0.65958,-0.35895 2.8e-5,-0.10637 -0.684582,-0.17362 -1.521354,-0.14944 -0.836772,0.0242 -1.521404,0.0631 -1.521404,0.0864 0,0.20515 -1.131829,0.17501 -1.535232,-0.0409 -0.282277,-0.15107 -1.190188,-0.27467 -2.01758,-0.27467 -0.994231,0 -1.702723,-0.14964 -2.089353,-0.44127 l -0.585002,-0.44127 0.689854,-1.38436 c 0.37942,-0.76139 0.783793,-1.38435 0.898608,-1.38435 0.114815,0 0.343564,-0.90641 0.508332,-2.01423 0.33448,-2.24888 0.456052,-2.56183 0.90751,-2.33609 0.171845,0.0859 0.108289,-0.0115 -0.141238,-0.21647 -0.320427,-0.26322 -0.439735,-0.71584 -0.406192,-1.54097 0.02612,-0.64256 -0.03372,-1.97875 -0.132986,-2.96931 -0.175254,-1.74888 -0.164294,-1.79589 0.378548,-1.6236 0.485884,0.15422 0.510899,0.12591 0.191189,-0.21634 -0.202312,-0.21658 -0.517294,-0.33642 -0.699961,-0.26633 -0.468181,0.17966 -0.413144,-0.45943 0.08718,-1.01227 0.230613,-0.25483 0.485794,-0.9591 0.567068,-1.56504 0.17144,-1.27818 0.606765,-1.56017 1.355463,-0.87804 1.322254,1.20469 1.375018,1.22757 2.02674,0.87878 0.339759,-0.18184 0.91216,-0.25672 1.272002,-0.1664 0.671666,0.16858 1.155054,-0.38338 0.816084,-0.93184 -0.0878,-0.14207 0.04891,-0.41081 0.303807,-0.5972 0.28579,-0.20897 0.358215,-0.40392 0.188929,-0.50855 -0.410589,-0.25375 0.311477,-2.14058 0.861679,-2.25164 0.249525,-0.0504 0.388792,0.0134 0.309482,0.14174 -0.259407,0.41973 2.111176,0.48373 2.609158,0.0704 0.182695,-0.15162 0.611453,-0.20585 0.952794,-0.12051 0.472553,0.11815 0.683745,0.0145 0.885204,-0.43451 0.310644,-0.69234 1.103077,-1.07002 0.847467,-0.40391 -0.08959,0.23348 -0.05252,0.49272 0.08237,0.57609 0.134899,0.0834 0.31347,-0.12117 0.396824,-0.45455 0.195646,-0.78248 0.0218,-6.88356 -0.206671,-7.25324 -0.23156,-0.37467 0.28768,-2.21643 0.624868,-2.21643 0.145629,0 0.554154,-0.31224 0.907833,-0.69387 l 0.643052,-0.69386 0.261886,0.68881 c 0.345336,0.9083 1.016194,0.65295 1.123638,-0.4277 0.135488,-1.36273 0.742688,-1.21932 0.742688,0.17541 0,1.09664 0.05557,1.20367 0.595312,1.14653 0.533467,-0.0565 0.598243,0.0584 0.623515,1.10614 0.01551,0.64305 -0.08044,1.59555 -0.213226,2.11667 -0.334965,1.31458 -0.445806,2.91957 -0.211621,3.0643 0.177729,0.10984 0.07875,0.7864 -0.416108,2.84413 -0.244476,1.0166 0.126871,0.90982 1.420715,-0.40851 0.715884,-0.72943 1.023677,-1.22745 0.859856,-1.39128 -0.140337,-0.14033 -0.160365,-0.40853 -0.04451,-0.59599 0.302177,-0.48893 1.511077,0.26821 2.677727,1.67707 1.13713,1.3732 2.9633,2.30746 3.85079,1.97004 0.93037,-0.35373 1.19916,-1.11679 1.27797,-3.62787 0.0436,-1.38935 0.18792,-2.32815 0.3671,-2.38788 0.16239,-0.0541 0.22967,-0.26931 0.14951,-0.47819 -0.1889,-0.49227 0.26833,-0.48217 1.25431,0.0277 0.72033,0.37249 0.85549,0.36759 1.57436,-0.0571 0.82793,-0.48907 0.95839,-0.74206 0.5218,-1.01189 -0.35419,-0.2189 -0.3403,-1.98438 0.0156,-1.98438 0.15411,0 0.19133,-0.14379 0.0827,-0.31954 -0.37992,-0.61472 -0.33416,-1.62752 0.0875,-1.93583 0.43424,-0.31752 0.24128,-1.05129 -0.20409,-0.77604 -0.38294,0.23667 -0.29057,-0.22723 0.17863,-0.8971 0.44185,-0.63082 0.65669,-2.37587 0.31827,-2.58503 -0.10674,-0.066 -0.0892,-0.38358 0.039,-0.7058 0.12819,-0.32223 0.3062,-0.81414 0.39557,-1.09313 0.12258,-0.3827 0.23731,-0.43244 0.46718,-0.20257 0.40739,0.40739 0.47202,1.45548 0.1047,1.69797 -0.20643,0.13628 -0.19558,0.1956 0.0363,0.19844 0.1819,0.002 0.33073,0.18264 0.33073,0.40092 0,0.21828 -0.10689,0.39688 -0.23752,0.39688 -0.2514,0 -0.22653,1.57793 0.0315,2.00018 0.34747,0.56857 0.33298,2.31727 -0.0202,2.4379 -0.26203,0.0895 -0.3092,-0.0328 -0.17531,-0.45471 0.168,-0.52932 0.13761,-0.54869 -0.36673,-0.23373 -0.46139,0.28814 -0.54155,0.57888 -0.49796,1.80613 0.0286,0.80448 -0.0391,1.60995 -0.15029,1.78992 -0.11123,0.17997 -0.0832,0.32722 0.0623,0.32722 0.42973,0 0.6811,-0.59329 0.71072,-1.67744 0.0261,-0.95474 0.49886,-1.61813 0.9531,-1.33739 0.33376,0.20627 0.0155,3.87217 -0.35606,4.10183 -0.57463,0.35515 -0.0567,0.53615 0.63381,0.22151 0.36069,-0.16434 0.81589,-0.7068 1.01155,-1.20547 0.47333,-1.20632 0.9127,-0.99162 0.92243,0.45074 0.005,0.78593 0.115,1.14382 0.33654,1.09793 0.18077,-0.0374 0.44297,0.23253 0.58266,0.59993 0.27473,0.7226 0.74952,0.73505 2.96714,0.0779 0.691854,-0.20503 1.084434,-0.20863 1.322924,-0.0122 0.66785,0.55023 4.17558,0.35325 4.17558,-0.23448 0,-0.12693 -0.14882,-0.20101 -0.33072,-0.16463 -0.19577,0.0392 -0.34163,-0.23076 -0.35743,-0.66145 -0.0147,-0.40019 0.0562,-0.72761 0.15743,-0.72761 0.22825,0 1.05989,0.90157 1.05989,1.14902 0,0.40573 1.2139,2.01966 1.52136,2.02271 0.1819,0.002 0.33072,0.2414 0.33072,0.53244 0,0.29398 0.17639,0.52916 0.39688,0.52916 0.21828,0 0.39687,0.1786 0.39687,0.39688 0,0.21828 0.10184,0.39687 0.22631,0.39687 0.12447,0 0.33761,0.38696 0.47365,0.8599 0.225,0.78226 0.34119,0.8599 1.28683,0.8599 0.9847,0 1.05582,-0.0558 1.34939,-1.05834 0.17366,-0.59307 0.2645,-2.0237 0.20664,-3.25427 -0.0769,-1.63528 0.002,-2.40009 0.31026,-2.99556 0.32243,-0.62352 0.34443,-0.88286 0.0999,-1.17751 -0.17248,-0.20782 -0.20922,-0.37787 -0.0816,-0.37787 0.25165,0 0.293,-2.37179 0.0486,-2.78809 -0.25144,-0.42828 0.0905,-3.30278 0.37218,-3.12869 0.14222,0.0879 0.118,-0.10288 -0.0538,-0.42395 -0.3539,-0.66127 -0.21307,-0.93949 0.36354,-0.71822 0.2927,0.11231 0.36131,0.45659 0.27226,1.36601 -0.0655,0.66871 -0.006,1.42712 0.1322,1.68534 0.15869,0.29652 0.15846,0.88256 -6.5e-4,1.59069 -0.13855,0.61665 -0.30796,2.69265 -0.37645,4.61332 -0.0685,1.92068 -0.15582,4.14698 -0.19405,4.94734 l -0.0695,1.45521 0.92604,-0.0353 c 1.43107,-0.0546 2.11667,-0.18993 2.11667,-0.41785 0,-0.11455 0.11906,-0.20828 0.26458,-0.20828 0.14552,0 0.26458,0.17633 0.26458,0.39184 0,0.40113 -1.11452,0.82652 -1.51576,0.57854 -0.12261,-0.0758 -0.22293,0.079 -0.22293,0.34396 0,0.3995 0.18228,0.46815 1.06779,0.40212 0.58728,-0.0438 1.09754,-0.1056 1.13392,-0.13736 0.0364,-0.0318 0.18521,-0.0726 0.33073,-0.0908 0.14552,-0.0182 0.27777,-0.12548 0.29388,-0.23841 0.0627,-0.4397 -0.91275,-4.16029 -1.09076,-4.16029 -0.10377,0 -0.16241,-0.62508 -0.1303,-1.38906 0.0321,-0.76399 -0.0584,-1.53789 -0.20108,-1.7198 -0.357,-0.45508 0.19192,-1.06595 1.22768,-1.36625 l 0.82663,-0.23967 -0.8599,-0.0239 c -0.47294,-0.0131 -0.8599,0.0952 -0.8599,0.24072 0,0.14552 -0.11906,0.26458 -0.26458,0.26458 -0.14552,0 -0.25048,-0.0893 -0.23325,-0.19843 0.0172,-0.10914 0.007,-0.25797 -0.0221,-0.33073 -0.0828,-0.20521 -0.2537,-1.08775 -0.43548,-2.24896 -0.0911,-0.58208 -0.25388,-1.1774 -0.36168,-1.32292 -0.37462,-0.50571 -0.52884,-2.03075 -0.25677,-2.53912 0.20909,-0.39068 0.18116,-0.54695 -0.11829,-0.66186 -0.24574,-0.0943 -0.46039,-0.69777 -0.57529,-1.61742 -0.13961,-1.11737 -0.30113,-1.49782 -0.67774,-1.5963 -0.41159,-0.10764 -0.49839,-0.40127 -0.51796,-1.75209 -0.0409,-2.82418 0.0556,-4.26091 0.3035,-4.51557 0.3636,-0.37357 0.59723,0.0111 0.57083,0.93971 -0.0231,0.81296 -0.0144,0.81923 0.37216,0.26738 0.32476,-0.46367 0.49198,-0.51367 0.93138,-0.27851 0.42661,0.22831 0.52173,0.51109 0.46755,1.38999 -0.0374,0.60686 -0.002,1.28197 0.0793,1.50025 0.31202,0.84073 0.62479,3.72445 0.43693,4.02842 -0.10859,0.1757 -0.0706,0.47228 0.0844,0.65906 0.15501,0.18678 0.17797,0.34339 0.051,0.34802 -0.12696,0.005 -0.0272,0.16316 0.22178,0.35229 0.57795,0.43909 1.00825,1.56694 1.17468,3.07888 0.0721,0.65484 0.23489,1.54781 0.36179,1.98437 0.1269,0.43657 0.29724,1.24696 0.37853,1.80089 0.0813,0.55392 0.34403,1.38661 0.58387,1.8504 0.40265,0.77864 0.56282,2.26031 0.60419,5.5891 l 0.0162,1.3029 0.64667,-0.60751 c 0.52644,-0.49457 0.82156,-0.5747 1.5875,-0.43101 0.68385,0.12829 0.94194,0.0829 0.94488,-0.16622 0.008,-0.66757 0.5169,0.4321 0.52107,1.12572 0.002,0.37108 0.13357,0.80421 0.29187,0.96251 0.28018,0.28018 0.33164,2.35825 0.12183,4.91935 l -0.10363,1.26487 0.97147,-0.17489 c 0.53431,-0.0962 1.11137,-0.28561 1.28236,-0.42092 0.17099,-0.13531 0.61606,-0.27855 0.98903,-0.31832 0.43844,-0.0467 0.94797,-0.44479 1.44152,-1.12612 0.66056,-0.91186 0.74882,-1.23857 0.65523,-2.42531 -0.0785,-0.99576 -0.015,-1.37259 0.23196,-1.37553 0.25543,-0.003 0.24804,-0.0624 -0.0297,-0.23819 -0.24307,-0.15391 -0.40224,-0.87782 -0.46451,-2.11262 -0.0935,-1.85364 -0.086,-1.87847 0.56823,-1.87847 0.36462,0 0.66294,0.13231 0.66294,0.29403 0,0.48842 1.84952,-5.6e-4 2.82959,-0.74809 1.01477,-0.77401 1.16375,-0.71969 1.19662,0.43632 0.013,0.4567 0.11945,0.88959 0.23659,0.96199 0.22096,0.13656 0.0686,5.13134 -0.16367,5.36356 -0.20915,0.20916 0.70573,1.10052 1.12956,1.10052 0.2125,0 0.32335,-0.15851 0.24806,-0.35472 -0.22604,-0.58905 0.23114,-1.07213 0.7804,-0.82462 0.26935,0.12137 0.72785,0.22802 1.01889,0.23699 0.43781,0.0135 0.52396,0.18761 0.49899,1.0085 -0.0206,0.67636 0.0847,0.99218 0.33073,0.99218 0.1985,0 0.36091,0.11907 0.36091,0.26459 0,0.14552 0.17859,0.26458 0.39687,0.26458 0.21828,0 0.39688,0.11906 0.39688,0.26458 0,0.14553 0.16585,0.26459 0.36857,0.26459 0.46027,0 0.6416,0.4554 0.54296,1.36363 -0.0553,0.5087 0.0638,0.73881 0.43215,0.83513 0.27962,0.0731 0.51505,0.35245 0.52318,0.62074 0.008,0.26828 0.21819,0.98841 0.4668,1.60029 0.33479,0.824 0.54648,1.05411 0.81631,0.88734 0.29809,-0.18423 0.24639,-0.46178 -0.28449,-1.52711 -0.71001,-1.42479 -0.69817,-1.92794 0.0453,-1.92794 0.7679,0 1.32251,-0.28926 1.32251,-0.68976 0,-0.20272 0.2024,-0.36857 0.44979,-0.36857 0.34984,0 0.37923,-0.0706 0.13229,-0.3175 -0.17463,-0.17463 -0.3175,-0.88526 -0.3175,-1.5792 0,-1.01752 0.0775,-1.23197 0.40024,-1.10811 0.22014,0.0845 0.56227,0.0191 0.76029,-0.14522 0.27938,-0.23186 0.44608,-0.16439 0.74402,0.30113 0.61779,0.96527 0.76081,1.52598 0.38923,1.52598 -0.22868,0 -0.30042,0.29997 -0.22541,0.94251 0.0779,0.66713 0.21697,0.90146 0.47604,0.80205 0.2013,-0.0772 0.36601,-0.0181 0.36601,0.13144 0,0.14955 0.11928,0.19818 0.26508,0.10807 0.14579,-0.0901 0.38097,0.14099 0.52261,0.51355 0.14165,0.37256 0.35746,0.67738 0.47958,0.67738 0.12212,0 0.2093,0.90044 0.19373,2.00098 -0.0204,1.44081 -0.13626,2.06927 -0.41392,2.24491 -0.2121,0.13416 -0.28822,0.24575 -0.16917,0.24798 0.11905,0.002 -0.0488,0.3766 -0.37306,0.83194 -0.46859,0.65808 -0.52903,0.92472 -0.29467,1.3 0.16216,0.25966 0.32365,0.96029 0.35885,1.55696 0.047,0.79693 0.22578,1.19085 0.67353,1.48423 0.33524,0.21965 0.60952,0.56374 0.60952,0.76464 0,0.54162 1.61628,2.26836 2.12325,2.26836 0.54857,0 2.63925,2.0196 2.63925,2.54953 0,0.21566 0.11907,0.31853 0.26459,0.2286 0.48137,-0.29751 0.27443,0.27084 -0.26761,0.73495 -0.62913,0.53867 -0.97053,0.57773 -1.12038,0.12817 -0.0974,-0.29223 -0.77066,-0.37979 -3.83753,-0.49907 -0.32743,-0.0127 -0.59532,-0.12888 -0.59532,-0.25809 0,-0.1932 -0.78608,-0.17034 -1.32292,0.0385 -0.45737,0.1779 -3.10009,0.10319 -3.37007,-0.0953 -0.18004,-0.13236 -0.53723,-0.14902 -0.79375,-0.037 -0.25651,0.11199 -0.60625,0.18168 -0.77719,0.15486 -0.17095,-0.0268 -0.4686,0.17364 -0.66146,0.44546 -0.49974,0.70433 -1.33447,0.65872 -1.12069,-0.0612 0.31638,-1.06546 0.89798,-1.7064 1.62415,-1.78985 0.61886,-0.0711 0.7467,-0.2235 0.81865,-0.97575 0.0845,-0.88382 0.0888,-0.88647 0.49364,-0.30843 0.30049,0.42901 0.33039,0.66102 0.11318,0.87824 -0.45043,0.45043 -0.35182,0.79767 0.16781,0.59093 0.25467,-0.10132 0.76068,-0.24025 1.12448,-0.30872 0.3638,-0.0685 0.7642,-0.22606 0.88976,-0.3502 0.31836,-0.31474 -0.0737,-0.86614 -0.49968,-0.70269 -0.62868,0.24125 -3.29786,-4.60473 -3.30455,-5.9995 -0.002,-0.46511 -0.10529,-1.00539 -0.22902,-1.20062 -0.31247,-0.49299 -3.77041,-0.72871 -3.67287,-0.25037 0.0512,0.25115 -0.4001,0.34075 -1.71633,0.34075 -1.25174,0 -1.78585,-0.0989 -1.78594,-0.33057 -7e-5,-0.19598 0.35,-0.33179 0.85978,-0.33357 1.834,-0.006 2.3151,-0.0607 2.3151,-0.26159 0,-0.11455 -0.1948,-0.28304 -0.43289,-0.3744 -0.39448,-0.15137 -0.39084,-0.21258 0.041,-0.68976 0.45502,-0.5028 1.6294,-0.76304 1.34155,-0.29729 -0.077,0.1245 0.16106,0.16883 0.5289,0.0985 0.49197,-0.094 0.62211,-0.24134 0.49222,-0.55709 -0.0971,-0.23608 -0.20789,-0.66737 -0.24616,-0.95841 -0.0383,-0.29104 -0.0848,-0.59295 -0.10336,-0.67091 -0.0186,-0.078 -0.26315,-0.14174 -0.54351,-0.14174 -0.28035,0 -0.45334,0.0913 -0.38442,0.20277 0.12255,0.19829 -1.9275,0.64989 -2.37483,0.52314 -0.12446,-0.0353 -0.38175,0.0649 -0.57176,0.2226 -0.24017,0.19932 -0.39786,0.20193 -0.51737,0.009 -0.11987,-0.19394 -0.33235,-0.19227 -0.70193,0.006 -0.38383,0.20542 -0.63162,0.19933 -0.89839,-0.0221 -0.47067,-0.39062 -1.05339,-0.0774 -0.68401,0.36771 0.27984,0.33719 0.25143,1.08885 -0.0527,1.39294 -0.30894,0.30894 -0.18302,2.28266 0.21712,3.40315 0.20787,0.58208 0.45429,1.56435 0.5476,2.18281 0.0933,0.61846 0.27519,1.12448 0.40419,1.12448 0.129,0 0.23454,0.16585 0.23454,0.36857 0,0.40801 0.55714,0.68976 1.36396,0.68976 0.81357,0 0.4876,0.87978 -0.44114,1.19063 -0.68264,0.22847 -0.80214,0.41273 -0.87562,1.35016 l -0.0851,1.08559 1.67259,0.0428 c 0.91993,0.0236 2.08925,-0.0782 2.59849,-0.22614 0.57365,-0.16666 0.95761,-0.17381 1.00928,-0.0188 0.0459,0.1376 0.25429,0.1846 0.46317,0.10445 0.20888,-0.0802 0.37978,-0.006 0.37978,0.16473 0,0.18259 -0.29967,0.27598 -0.7276,0.22674 -0.41523,-0.0478 -0.86744,0.0867 -1.05331,0.31316 -0.28951,0.35277 -0.35521,0.35277 -0.59126,0 -0.14606,-0.21829 -0.26738,-0.2613 -0.26961,-0.0956 -0.006,0.42493 -1.81587,0.72297 -2.24217,0.36918 -0.61023,-0.50645 -0.67666,0.38758 -0.10767,1.44919 0.28992,0.54093 0.45783,1.16408 0.37314,1.38479 -0.0847,0.22071 0.14591,0.79448 0.51245,1.27504 0.36655,0.48057 0.66645,1.06439 0.66645,1.2974 0,0.35718 0.21437,0.3952 1.36652,0.24236 1.22695,-0.16276 1.34856,-0.13445 1.19063,0.27711 -0.0967,0.25211 -0.1759,0.50818 -0.1759,0.56904 0,0.0609 -0.20836,0.11588 -0.46302,0.12227 -0.25466,0.006 -0.9048,0.16933 -1.44475,0.3621 -0.70607,0.25207 -1.01317,0.26738 -1.09368,0.0545 -0.0628,-0.16606 -0.19788,-0.0877 -0.30773,0.17848 -0.25193,0.61049 0.0165,0.87866 0.48787,0.48744 0.27895,-0.2315 0.59346,-0.20932 1.31666,0.0928 0.70995,0.29664 1.12943,0.32885 1.65923,0.12742 1.26086,-0.47937 2.28427,0.205 1.18573,0.79292 -0.64845,0.34704 -1.15626,0.35367 -0.94531,0.0123 0.0926,-0.14977 -0.0132,-0.19446 -0.24745,-0.10457 -0.225,0.0863 -0.36161,0.23381 -0.30357,0.3277 0.13487,0.21819 -2.98311,0.16249 -3.20281,-0.0572 -0.0904,-0.0904 -0.31893,-0.0361 -0.50784,0.12071 -0.38566,0.32007 -0.98799,0.0735 -0.75224,-0.30794 0.23578,-0.38151 -0.5908,-0.29047 -0.99034,0.10907 -0.2159,0.21591 -0.5608,0.28066 -0.87879,0.16499 -0.28788,-0.10471 -0.67828,-0.0665 -0.86754,0.085 -0.25732,0.20593 -0.3819,0.13094 -0.49388,-0.29728 z m 0.70165,-1.16799 c 0.002,-0.10914 -0.11501,-0.19844 -0.26053,-0.19844 -0.14552,0 -0.26276,0.26789 -0.26053,0.59531 0.003,0.4814 0.0531,0.51937 0.26053,0.19844 0.14107,-0.21828 0.25831,-0.48617 0.26053,-0.59531 z m -0.52511,-1.4022 c 0,-0.22551 -0.20237,-0.79106 -0.44971,-1.25677 -0.33556,-0.63183 -0.47413,-0.73275 -0.5459,-0.39761 -0.0529,0.24704 0.0312,0.68717 0.18688,0.97807 0.22546,0.42128 0.18849,0.58398 -0.18171,0.79957 -0.39846,0.23204 -0.36096,0.27181 0.26283,0.27871 0.4842,0.005 0.72761,-0.12912 0.72761,-0.40197 z m 3.78181,-0.0204 c 0.21321,-0.21321 -0.44194,-1.48462 -1.00641,-1.95309 -0.36798,-0.30539 -0.47127,-0.30244 -0.67485,0.0193 -0.33184,0.52442 -0.30706,0.78903 0.0666,0.71059 0.17326,-0.0364 0.36563,0.17198 0.42748,0.46302 0.15412,0.72511 0.80534,1.1421 1.18723,0.7602 z m -3.12146,-2.45795 c -0.26125,-1.05894 -0.52171,-1.14022 -0.59058,-0.18431 -0.0457,0.63498 0.0477,0.86782 0.34835,0.86782 0.30891,0 0.36902,-0.1696 0.24223,-0.68351 z m -2.24785,-1.60954 c 0,-0.14553 -0.0525,-0.26459 -0.11668,-0.26459 -0.0642,0 -0.19026,0.11906 -0.2802,0.26459 -0.0899,0.14552 -0.0374,0.26458 0.11668,0.26458 0.15411,0 0.2802,-0.11906 0.2802,-0.26458 z m 1.47237,-0.3459 c -0.082,-0.17356 -0.22261,-0.52392 -0.31243,-0.77858 -0.25548,-0.72429 -0.61544,-0.54288 -0.55398,0.27919 0.0377,0.50398 0.20957,0.75389 0.53551,0.77858 0.28634,0.0217 0.41985,-0.0909 0.3309,-0.27919 z m -0.27558,-2.05479 c 0.11835,-0.37287 0.019,-0.66198 -0.30998,-0.90258 -0.65129,-0.47623 -0.82136,-0.3148 -0.68038,0.64578 0.13498,0.91964 0.73094,1.07417 0.99036,0.2568 z m 22.08654,-0.94915 c 0,-0.39046 -1.72137,-1.67725 -2.24369,-1.67725 -0.30849,0 -0.70377,-0.14287 -0.87839,-0.3175 -0.17463,-0.17462 -0.3175,-0.22951 -0.3175,-0.12196 0,0.10754 0.46691,0.66714 1.03758,1.24354 0.67493,0.68171 1.27603,1.04801 1.71979,1.04801 0.37522,0 0.68221,-0.0787 0.68221,-0.17484 z m -20.67283,-1.69909 c -0.51019,-0.31531 -0.55409,-0.13598 -0.17301,0.7068 0.33376,0.73814 0.34244,0.74077 0.42993,0.13026 0.0491,-0.3427 -0.0665,-0.71937 -0.25692,-0.83706 z m -2.14133,0.16227 c -0.0526,-0.63549 -0.46917,-0.98123 -0.46917,-0.3894 0,0.15411 -0.12428,0.20339 -0.27617,0.10952 -0.2748,-0.16983 -1.04675,0.30727 -1.04675,0.64694 0,0.098 0.41569,0.2061 0.92375,0.24032 0.84075,0.0566 0.91877,0.002 0.86834,-0.60738 z m 18.58083,0.25645 c 0,-0.21828 -0.12757,-0.39688 -0.28348,-0.39688 -0.44009,0 -1.09242,-0.75855 -0.9084,-1.0563 0.0906,-0.14664 0.0424,-0.26661 -0.10712,-0.26661 -0.14954,0 -0.20336,-0.1786 -0.1196,-0.39688 0.13873,-0.36151 -0.12582,-0.50036 -0.63013,-0.33073 -0.2975,0.10007 -0.0973,0.69156 0.61697,1.82308 0.64674,1.0245 1.43176,1.36681 1.43176,0.62432 z m -17.73921,-0.68412 c -0.16243,-0.30351 -0.35992,-0.48724 -0.43887,-0.40829 -0.21809,0.21809 0.13124,0.96012 0.452,0.96012 0.19568,0 0.19165,-0.16919 -0.0131,-0.55183 z m -71.282207,-1.54724 c -0.09592,-0.1552 -0.29113,-0.28218 -0.4338,-0.28218 -0.14267,0 -0.105878,0.16658 0.08176,0.37018 0.379852,0.41218 0.62352,0.35126 0.35204,-0.088 z m 3.560996,0.24698 c 0,-0.14552 -0.0525,-0.26458 -0.116677,-0.26458 -0.06417,0 -0.190261,0.11906 -0.280198,0.26458 -0.08994,0.14552 -0.03743,0.26459 0.116677,0.26459 0.154109,0 0.280198,-0.11907 0.280198,-0.26459 z m 67.590361,-0.28187 c -0.26241,-0.42459 -0.44109,-1.32489 -0.61666,-3.10718 -0.0188,-0.19049 -0.14707,-0.27653 -0.28514,-0.1912 -0.3495,0.216 -0.0823,3.37423 0.30574,3.61406 0.38893,0.24038 0.8039,0.0206 0.59606,-0.31568 z m 1.73048,-0.24729 c -0.12521,-0.43657 -0.1825,-0.79375 -0.12733,-0.79375 0.0552,0 -0.071,-0.41007 -0.28042,-0.91126 -0.20941,-0.50119 -0.30914,-1.09785 -0.22163,-1.32591 0.10823,-0.28204 0.0412,-0.36942 -0.20953,-0.2732 -0.39205,0.15044 -0.40341,0.5063 -0.0865,2.7088 0.15649,1.08766 0.30327,1.38907 0.67647,1.38907 0.40376,0 0.44181,-0.12132 0.24896,-0.79375 z m -70.190488,-0.27194 c 0.382667,-1.2e-4 0.538097,-0.12388 0.448577,-0.35717 -0.0956,-0.24912 0.187132,-0.40881 0.935792,-0.52852 0.590028,-0.0943 1.072778,-0.28047 1.072778,-0.4136 0,-0.13313 0.20836,-0.29651 0.463021,-0.36306 0.284867,-0.0744 0.183064,-0.13281 -0.264583,-0.15169 -0.400183,-0.0169 -0.727876,0.0586 -0.728208,0.16775 -3.32e-4,0.10914 -0.363601,0.21142 -0.807265,0.22729 -0.676443,0.0242 -0.793803,-0.0612 -0.727001,-0.52917 0.05676,-0.39759 0.269829,-0.55802 0.741119,-0.55802 0.535165,0 0.645551,-0.11427 0.578143,-0.59849 -0.06724,-0.48304 0.07312,-0.62978 0.727604,-0.76068 0.886655,-0.17733 1.124759,-0.88979 0.297368,-0.88979 -0.282453,0 -0.588959,-0.12201 -0.681124,-0.27114 -0.09217,-0.14912 -0.06943,-0.24928 0.05053,-0.22258 0.119957,0.0267 0.426463,-0.0299 0.681124,-0.12573 0.254662,-0.0959 0.626898,-0.22445 0.827192,-0.28574 0.437071,-0.13374 0.259073,-1.47395 -0.196578,-1.48011 -0.214925,-0.003 -0.212129,-0.0599 0.0099,-0.20109 0.170364,-0.10837 0.391631,-0.52326 0.491704,-0.92199 0.173153,-0.68989 0.135781,-0.72495 -0.772773,-0.72495 -0.672255,0 -0.954724,-0.11742 -0.954724,-0.39688 0,-0.25452 0.260973,-0.39989 0.727604,-0.40529 0.400182,-0.005 0.965729,-0.19009 1.256771,-0.41215 0.49576,-0.37826 0.499936,-0.42031 0.06615,-0.66619 -0.91457,-0.5184 -0.541413,-1.02991 0.751339,-1.02991 0.930705,0 1.32409,0.13551 1.684127,0.58014 0.322976,0.39886 0.803089,0.59727 1.536471,0.63497 0.586686,0.0301 1.31711,0.1343 1.623164,0.23144 0.456288,0.14482 0.556457,0.0662 0.55644,-0.43653 -2.1e-5,-0.57636 -0.102865,-0.61412 -1.71408,-0.62948 -0.942731,-0.009 -1.776253,-0.0785 -1.852269,-0.15455 -0.07602,-0.076 -0.0338,-0.69708 0.09381,-1.38015 0.215957,-1.15596 0.196774,-1.23076 -0.277072,-1.08037 -0.28,0.0889 -0.695803,0.007 -0.924006,-0.18276 -0.63623,-0.52803 -2.280265,-1.02348 -2.59042,-0.78066 -0.441475,0.34563 -1.729933,0.50456 -1.897141,0.23401 -0.08401,-0.13592 -0.309437,-0.187 -0.500956,-0.11351 -0.191518,0.0735 -0.426103,-0.0672 -0.5213,-0.31269 -0.318554,-0.82142 -0.895057,0.35769 -0.740023,1.51355 0.07425,0.55361 -0.0081,1.27396 -0.183011,1.60078 -0.277013,0.51761 -0.22515,0.69116 0.402219,1.34599 l 0.720238,0.75177 -0.894961,0.39036 c -0.492229,0.2147 -0.701226,0.40007 -0.464437,0.41194 0.346445,0.0174 0.416824,0.27552 0.360371,1.32181 -0.03859,0.71512 -0.164777,1.45332 -0.280426,1.64044 -0.115649,0.18713 -0.227358,1.00101 -0.248244,1.80864 -0.08386,3.24288 -0.120254,3.46594 -0.592955,3.63445 -1.422577,0.50712 -1.30054,1.27623 0.163542,1.03067 0.528515,-0.0886 1.22444,-0.16125 1.546498,-0.16136 z m 1.147506,-8.96368 c -0.152823,-0.28555 -0.277859,-0.80621 -0.277859,-1.15703 0,-0.71049 0.907192,-1.70763 1.168674,-1.28454 0.08958,0.14495 0.02904,0.34625 -0.134527,0.44734 -0.185133,0.11442 -0.236486,0.56475 -0.136034,1.19294 0.179745,1.12406 -0.191108,1.60316 -0.620254,0.80129 z m 82.693582,7.28912 c -0.0942,-0.50206 -0.3466,-0.98012 -0.56093,-1.06236 -0.49516,-0.19002 -0.49592,0.0936 -0.002,0.79856 0.21315,0.30431 0.32029,0.62053 0.23809,0.70273 -0.0822,0.0822 -0.0661,0.28435 0.0358,0.44923 0.31956,0.51706 0.46751,0.0626 0.28915,-0.88816 z m -18.94227,-1.7889 c 0,-0.14552 -0.11906,-0.191 -0.26458,-0.10106 -0.14553,0.0899 -0.26459,0.28258 -0.26459,0.4281 0,0.14552 0.11906,0.191 0.26459,0.10106 0.14552,-0.0899 0.26458,-0.28258 0.26458,-0.4281 z m 18.15843,-0.2995 c -0.0877,-0.32742 -0.16299,-0.83344 -0.1672,-1.12448 -0.006,-0.44652 -0.0515,-0.46718 -0.28834,-0.13229 -0.21122,0.29866 -0.31389,0.31503 -0.41487,0.0661 -0.16225,-0.39986 -0.61927,-0.44077 -0.61927,-0.0554 0,0.38838 1.1075,1.84137 1.40353,1.84137 0.13513,0 0.17389,-0.26789 0.0862,-0.59531 z M 129.3906,159.2706 c 0,-0.14552 -0.11204,-0.26458 -0.24897,-0.26458 -0.13693,0 -0.32255,0.11906 -0.41249,0.26458 -0.0899,0.14552 0.0221,0.26459 0.24897,0.26459 0.22687,0 0.41249,-0.11907 0.41249,-0.26459 z m 0.9455,-0.87319 c 0.0361,-0.24619 -0.0428,-0.51465 -0.17532,-0.59658 -0.13256,-0.0819 -0.24101,-0.0326 -0.24101,0.1096 0,0.14221 -0.0785,0.46314 -0.17446,0.71318 -0.11869,0.3093 -0.0626,0.41735 0.17532,0.33802 0.19238,-0.0641 0.37934,-0.31802 0.41547,-0.56422 z m 11.48992,-0.18514 c 0,-0.14552 -0.12609,-0.26458 -0.2802,-0.26458 -0.15411,0 -0.20662,0.11906 -0.11668,0.26458 0.0899,0.14552 0.21603,0.26458 0.2802,0.26458 0.0642,0 0.11668,-0.11906 0.11668,-0.26458 z m -2.51355,-0.52917 c -0.0899,-0.14552 -0.0304,-0.26458 0.1323,-0.26458 0.16269,0 0.22373,-0.11663 0.13564,-0.25917 -0.10117,-0.16368 -0.34672,-0.14266 -0.66652,0.0571 -0.36651,0.22888 -0.41793,0.37241 -0.18617,0.51969 0.45417,0.28864 0.77777,0.25931 0.58475,-0.053 z m 3.57188,-0.63315 c 0,-0.20271 -0.19564,-0.44364 -0.43475,-0.53539 -0.55013,-0.21111 -0.68032,-0.0809 -0.46921,0.46921 0.20287,0.52868 0.90396,0.58001 0.90396,0.0662 z m -76.898074,-0.55747 c -0.08376,-0.21828 -0.18635,-0.39688 -0.227972,-0.39688 -0.04162,0 -0.144209,0.1786 -0.227972,0.39688 -0.09184,0.23932 -0.0013,0.39687 0.227972,0.39687 0.229313,0 0.319811,-0.15755 0.227972,-0.39687 z m 5.46057,0.1479 c 0,-0.31217 -0.516031,-0.64611 -0.705556,-0.45658 -0.189524,0.18952 0.144416,0.70555 0.456587,0.70555 0.136933,0 0.248969,-0.11203 0.248969,-0.24897 z m 58.633554,-0.14025 c -0.0958,-0.65247 -0.42522,-0.79507 -0.42522,-0.18404 0,0.31529 0.10853,0.57326 0.24117,0.57326 0.13265,0 0.21547,-0.17515 0.18405,-0.38922 z m 10.15812,-1.29327 c 0,-0.47163 -0.14883,-1.01785 -0.33073,-1.21382 -0.26459,-0.28506 -0.26459,-0.31897 0,-0.1696 0.41553,0.2346 0.44048,-0.27461 0.026,-0.53077 -0.4957,-0.30636 -1.00867,0.6629 -0.83554,1.57877 0.31184,1.64963 1.14026,1.89332 1.14026,0.33542 z m -67.931778,0.71351 c -0.181901,-0.0734 -0.479558,-0.0734 -0.661459,0 -0.181901,0.0734 -0.03307,0.13346 0.330729,0.13346 0.363803,0 0.512631,-0.0601 0.33073,-0.13346 z m 57.083858,-0.0893 c 0,-0.14552 -0.11906,-0.26458 -0.26458,-0.26458 -0.14553,0 -0.26459,0.11906 -0.26459,0.26458 0,0.14552 0.11906,0.26458 0.26459,0.26458 0.14552,0 0.26458,-0.11906 0.26458,-0.26458 z m -7.84866,-0.3686 c 3.55427,-0.029 3.96067,-0.0804 4.29948,-0.54374 0.26692,-0.36503 0.3753,-0.40242 0.37808,-0.13042 0.002,0.20972 0.16229,0.0836 0.35588,-0.28016 0.56179,-1.05575 0.007,-1.2434 -0.89309,-0.30189 -0.4462,0.4669 -0.91428,0.78524 -1.04018,0.70743 -0.35252,-0.21788 -0.001,-1.19929 0.42934,-1.19929 0.20989,0 0.31104,-0.11422 0.22476,-0.25382 -0.18265,-0.29554 0.40538,-1.33368 0.75543,-1.33368 0.13085,0 0.39608,0.20836 0.5894,0.46302 0.31504,0.41502 0.35235,0.41795 0.35989,0.0283 0.005,-0.23909 -0.17017,-0.50325 -0.38846,-0.58701 -0.21828,-0.0838 -0.39687,-0.32631 -0.39687,-0.539 0,-0.30699 -0.16978,-0.33802 -0.82353,-0.15053 -0.45295,0.12991 -0.89943,0.22175 -0.99219,0.20411 -0.27643,-0.0526 -1.19637,0.37078 -1.65207,0.76028 -0.35737,0.30546 -0.47248,0.30624 -0.72259,0.005 -0.35833,-0.43177 -1.89504,-0.27144 -1.89504,0.19771 0,0.20459 -0.46998,0.33242 -1.29089,0.35112 -1.05965,0.0241 -1.28479,-0.0507 -1.25678,-0.41789 0.0215,-0.28228 -0.16109,-0.44729 -0.49504,-0.44729 -0.38682,0 -0.5362,0.18511 -0.55532,0.68817 -0.0359,0.94421 -0.18088,1.11988 -1.41073,1.70922 -1.10793,0.53092 -1.27691,0.75491 -0.79447,1.05307 0.15521,0.0959 0.43719,-0.0376 0.62663,-0.29665 0.32462,-0.44394 0.36274,-0.43687 0.66225,0.12278 0.2664,0.49777 0.45394,0.56386 1.15931,0.40856 0.46283,-0.10189 2.60789,-0.19968 4.7668,-0.21729 z m 8.64241,-0.44077 c 0,-0.13693 -0.11906,-0.24896 -0.26458,-0.24896 -0.14553,0 -0.26459,0.18562 -0.26459,0.41248 0,0.22687 0.11906,0.33891 0.26459,0.24897 0.14552,-0.0899 0.26458,-0.27555 0.26458,-0.41249 z m 14.84259,-0.29533 c -0.0945,-0.46206 -0.33656,-0.89503 -0.53791,-0.96214 -0.2689,-0.0896 -0.3104,0.0105 -0.15631,0.37709 0.11538,0.27452 0.20128,0.70748 0.1909,0.96214 -0.0104,0.25467 0.13727,0.46303 0.32813,0.46303 0.24951,0 0.29874,-0.23605 0.17519,-0.84012 z m -74.373844,0.0464 c 0,-0.14553 -0.05251,-0.26459 -0.116677,-0.26459 -0.06417,0 -0.190261,0.11906 -0.280198,0.26459 -0.08994,0.14552 -0.03743,0.26458 0.116677,0.26458 0.154109,0 0.280198,-0.11906 0.280198,-0.26458 z m 57.943754,-0.0817 c 0,-0.19046 -0.17481,-0.57742 -0.38846,-0.85989 -0.3351,-0.44304 -0.38962,-0.45296 -0.39688,-0.0722 -0.0119,0.62253 0.26983,1.27841 0.54906,1.27841 0.12995,0 0.23628,-0.15584 0.23628,-0.34631 z m 14.81667,0.22963 c 0,-0.0642 -0.11907,-0.19026 -0.26459,-0.2802 -0.14552,-0.0899 -0.26458,-0.0374 -0.26458,0.11668 0,0.15411 0.11906,0.2802 0.26458,0.2802 0.14552,0 0.26459,-0.0525 0.26459,-0.11668 z m -9.60275,-1.88802 c 0.085,-0.52347 0.31934,-1.01503 0.52086,-1.09237 0.20381,-0.0782 0.30311,-0.34002 0.22377,-0.59 -0.17583,-0.554 0.78281,-1.49835 1.76961,-1.74322 0.68703,-0.17049 0.69968,-0.20384 0.3055,-0.80543 -0.33088,-0.50499 -0.61271,-0.6162 -1.44293,-0.56936 -0.78343,0.0442 -1.03207,0.16964 -1.03311,0.52122 -7.5e-4,0.25467 -0.12043,0.46302 -0.26595,0.46302 -0.14553,0 -0.26459,0.1871 -0.26459,0.41578 0,0.36834 -0.0502,0.36561 -0.43978,-0.024 -0.37175,-0.37175 -0.38198,-0.47638 -0.0661,-0.67631 0.2055,-0.13008 0.24862,-0.23834 0.0958,-0.24057 -0.1528,-0.002 -0.41564,0.13378 -0.5841,0.30223 -0.23079,0.23079 -0.39658,0.23136 -0.67258,0.002 -0.46073,-0.38238 -0.71447,-0.1396 -0.71447,0.68361 0,0.35167 -0.12799,0.59674 -0.28443,0.5446 -0.15643,-0.0522 -0.26532,-0.19759 -0.24198,-0.3232 0.0233,-0.12561 -0.11656,-0.32917 -0.31089,-0.45235 -0.23465,-0.14874 -0.24875,-0.22533 -0.042,-0.22802 0.38409,-0.005 1.19205,-1.56412 0.98455,-1.89987 -0.083,-0.13422 -0.007,-0.41741 0.16893,-0.62932 0.17587,-0.2119 0.23107,-0.38528 0.12267,-0.38528 -0.10839,0 -0.0585,-0.16702 0.11094,-0.37115 0.23252,-0.28016 0.23305,-0.39613 0.002,-0.47309 -0.46675,-0.15559 -0.51947,-1.5313 -0.0974,-2.54149 0.28282,-0.67687 0.29493,-0.87187 0.0484,-0.77947 -0.1808,0.0678 -0.56686,0.029 -0.8579,-0.0862 -0.49569,-0.19613 -0.49052,-0.21055 0.0818,-0.22797 0.33601,-0.0102 0.54425,-0.12648 0.46276,-0.25834 -0.0869,-0.14066 -0.52771,-0.12325 -1.06659,0.0421 l -0.91842,0.28187 0.045,1.7438 c 0.0856,3.3145 -0.0451,4.73409 -0.47552,5.16449 -0.22868,0.22868 -0.28821,0.41577 -0.13229,0.41577 0.15591,0 0.28348,0.21162 0.28348,0.47025 0,0.25864 0.33845,0.76724 0.75211,1.13022 0.41366,0.36298 0.89344,0.92404 1.06617,1.2468 0.17274,0.32276 0.67738,0.77472 1.12142,1.00434 0.53829,0.27836 0.75583,0.55176 0.65276,0.82036 -0.085,0.22158 -0.0871,0.5121 -0.005,0.64561 0.25884,0.41882 0.93558,-0.50752 1.09687,-1.50144 z m -1.77434,0.94637 c 0,-0.29105 -0.11906,-0.52917 -0.26458,-0.52917 -0.14552,0 -0.26458,0.23812 -0.26458,0.52917 0,0.29104 0.11906,0.52916 0.26458,0.52916 0.14552,0 0.26458,-0.23812 0.26458,-0.52916 z m -0.79375,-0.66909 c 0,-0.20945 -0.20291,-0.28665 -0.52916,-0.20133 -0.5956,0.15575 -0.58886,0.14243 -0.36598,0.72324 0.12631,0.32916 0.2459,0.35662 0.52917,0.12153 0.20128,-0.16705 0.36597,-0.4566 0.36597,-0.64344 z m 12.52193,0.75896 c 0.0961,-0.0961 -0.0704,-0.34635 -0.36989,-0.55615 -0.62726,-0.43935 -0.86016,-0.32822 -0.62058,0.29611 0.16997,0.44294 0.67498,0.57553 0.99047,0.26004 z m -8.28859,-0.61904 c 0,-0.29104 -0.10518,-0.52917 -0.23373,-0.52917 -0.12855,0 -0.29599,0.23813 -0.3721,0.52917 -0.0899,0.34392 -0.008,0.52917 0.23372,0.52917 0.20466,0 0.37211,-0.23813 0.37211,-0.52917 z m 2.64583,0.26458 c 0,-0.14552 -0.11906,-0.26458 -0.26458,-0.26458 -0.14553,0 -0.26459,0.11906 -0.26459,0.26458 0,0.14552 0.11906,0.26459 0.26459,0.26459 0.14552,0 0.26458,-0.11907 0.26458,-0.26459 z M 67.345804,153.1853 c 0.08994,-0.14553 0.03743,-0.26459 -0.116677,-0.26459 -0.154109,0 -0.280198,0.11906 -0.280198,0.26459 0,0.14552 0.05251,0.26458 0.116677,0.26458 0.06417,0 0.190261,-0.11906 0.280198,-0.26458 z m 48.551046,0.1479 c 0,-0.0642 -0.11906,-0.19026 -0.26458,-0.2802 -0.14553,-0.0899 -0.26459,-0.0374 -0.26459,0.11668 0,0.15411 0.11906,0.2802 0.26459,0.2802 0.14552,0 0.26458,-0.0525 0.26458,-0.11668 z m 30.1625,-0.26458 c 0,-0.27926 -0.50777,-0.39659 -0.65879,-0.15222 -0.0914,0.14789 0.0194,0.2689 0.2463,0.2689 0.22687,0 0.41249,-0.0525 0.41249,-0.11668 z m -17.99167,-0.69597 c 0,-0.30144 0.1786,-0.72666 0.39688,-0.94494 0.48306,-0.48307 0.51348,-0.88968 0.0661,-0.8842 -0.51002,0.006 -0.91149,0.35141 -0.91852,0.7897 -0.004,0.21828 -0.0356,0.51594 -0.0713,0.66146 -0.12274,0.49975 -0.002,0.92604 0.26226,0.92604 0.14553,0 0.26459,-0.24663 0.26459,-0.54806 z m 7.57764,-0.71895 c -0.61286,-0.61285 -0.87484,-0.16016 -0.28469,0.49194 0.31558,0.34872 0.53678,0.43693 0.60235,0.24022 0.057,-0.17098 -0.086,-0.50045 -0.31766,-0.73216 z m -16.65755,0.56557 c -0.0948,-0.0947 0.0195,-0.31254 0.25398,-0.48397 0.34765,-0.2542 0.36918,-0.41835 0.11677,-0.88998 -0.25253,-0.47186 -0.23463,-0.60702 0.0973,-0.73438 0.22372,-0.0858 0.34089,-0.26268 0.26038,-0.39295 -0.0805,-0.13028 0.0392,-0.23686 0.2661,-0.23686 0.22687,0 0.4216,-0.0893 0.43274,-0.19844 0.0111,-0.10914 0.0722,-0.43656 0.13578,-0.7276 0.25492,-1.16747 0.24697,-3.30933 -0.012,-3.22302 -0.14712,0.049 -0.28553,0.82507 -0.30757,1.72452 -0.042,1.7121 -0.40845,2.47913 -1.12855,2.36189 -0.23525,-0.0383 -0.43478,0.10895 -0.4434,0.32723 -0.009,0.21828 -0.10594,0.66477 -0.21626,0.99219 -0.23571,0.69949 0.0102,1.65364 0.42615,1.65364 0.15997,0 0.21333,-0.0775 0.11857,-0.17227 z m 18.35636,-0.87397 c -0.63463,-0.4787 -1.15714,-0.54668 -1.50768,-0.19614 -0.10122,0.10123 0.0512,0.18405 0.33865,0.18405 0.28748,0 0.75362,0.16886 1.03587,0.37524 0.28224,0.20639 0.57111,0.31731 0.64193,0.24649 0.0708,-0.0708 -0.15813,-0.34515 -0.50877,-0.60964 z m -66.712299,-0.5544 c -0.192689,-0.11909 -0.475092,-0.13805 -0.627561,-0.0421 -0.152469,0.0959 -0.485575,0.1401 -0.740237,0.0982 -0.254661,-0.0419 -0.463021,0.0432 -0.463021,0.18907 0,0.32878 1.947131,0.51617 2.08277,0.20044 0.05412,-0.12598 -0.05926,-0.32648 -0.251951,-0.44557 z m 68.019189,0.41002 c 0,-0.21828 -0.11533,-0.39688 -0.25628,-0.39688 -0.14096,0 -0.18775,0.1786 -0.10399,0.39688 0.0838,0.21828 0.19909,0.39687 0.25628,0.39687 0.0572,0 0.10399,-0.17859 0.10399,-0.39687 z m -21.03406,-2.76062 c 3.1e-4,-2.57291 -0.16075,-3.51715 -0.53592,-3.14198 -0.19627,0.19627 -0.3779,5.53775 -0.19894,5.85042 0.0669,0.11682 0.25949,0.1656 0.42806,0.1084 0.20553,-0.0698 0.30659,-0.99755 0.3068,-2.81684 z m 9.39239,2.24707 c 0,-0.0642 -0.11906,-0.19026 -0.26458,-0.2802 -0.14553,-0.0899 -0.26459,-0.0374 -0.26459,0.11668 0,0.15411 0.11906,0.28019 0.26459,0.28019 0.14552,0 0.26458,-0.0525 0.26458,-0.11667 z m -5.29167,-0.52917 c 0,-0.0642 -0.11906,-0.19026 -0.26458,-0.2802 -0.14552,-0.0899 -0.26458,-0.0374 -0.26458,0.11668 0,0.15411 0.11906,0.2802 0.26458,0.2802 0.14552,0 0.26458,-0.0525 0.26458,-0.11668 z m -51.112499,-0.89493 c 0.06314,-0.42898 -0.02011,-0.53318 -0.33073,-0.41398 -0.491118,0.18846 -0.573384,1.25723 -0.08438,1.09618 0.181901,-0.0599 0.368699,-0.36689 0.415106,-0.6822 z m -1.010419,0.21786 c 0,-0.14552 -0.0525,-0.26459 -0.116676,-0.26459 -0.06417,0 -0.190262,0.11907 -0.280199,0.26459 -0.08994,0.14552 -0.03743,0.26458 0.116677,0.26458 0.154109,0 0.280198,-0.11906 0.280198,-0.26458 z m -1.507665,-1.57537 c -0.07536,-0.28818 -0.302746,-0.6615 -0.505302,-0.82961 -0.202555,-0.16811 -0.368283,-0.47669 -0.368283,-0.68574 0,-0.20905 -0.119062,-0.30651 -0.264583,-0.21657 -0.145521,0.0899 -0.264583,0.45415 -0.264583,0.80936 0,0.42316 -0.150163,0.64584 -0.43551,0.64584 -0.329877,0 -0.262062,0.16075 0.279592,0.66274 0.558326,0.51744 0.822593,0.60521 1.205396,0.40034 0.317174,-0.16975 0.441912,-0.44741 0.353273,-0.78636 z m 51.280683,0.71547 c 0.0172,-0.1819 0.008,-0.49664 -0.0203,-0.69943 -0.0284,-0.20279 0.1063,-0.47974 0.29938,-0.61545 0.27503,-0.19332 0.27943,-0.27582 0.0203,-0.38095 -0.1819,-0.0738 -0.33073,-0.37114 -0.33073,-0.66072 0,-0.3509 -0.14842,-0.49793 -0.44498,-0.44082 -0.48177,0.0928 -0.57498,1.09581 -0.22307,2.4005 0.20034,0.74278 0.64281,0.99386 0.6994,0.39687 z m -31.935284,-0.88832 c 0.6724,-0.25803 0.4821,-0.63498 -0.30909,-0.61226 -0.40018,0.0115 -0.57803,0.0812 -0.39522,0.15489 0.1828,0.0737 0.26507,0.24289 0.18282,0.37598 -0.17501,0.28318 -0.0537,0.30211 0.52149,0.0814 z m -5.18952,-2.19759 c 0.0722,-0.21662 -0.0994,-0.30142 -0.49333,-0.24376 -0.7868,0.11515 -0.97248,0.67577 -0.20509,0.61924 0.32323,-0.0238 0.63752,-0.19278 0.69842,-0.37548 z m 5.60804,-0.31887 c 0,-0.14553 -0.11907,-0.191 -0.26459,-0.10107 -0.14552,0.0899 -0.26458,0.28259 -0.26458,0.42811 0,0.14552 0.11906,0.191 0.26458,0.10106 0.14552,-0.0899 0.26459,-0.28258 0.26459,-0.4281 z m 10.99019,0.27965 c 0.0857,-0.13869 -0.0303,-0.32359 -0.2578,-0.41089 -0.2275,-0.0873 -0.41364,-0.30214 -0.41364,-0.47741 0,-0.17527 -0.20836,-0.55599 -0.46303,-0.84603 -0.25466,-0.29004 -0.59058,-0.75189 -0.7465,-1.02633 -0.15592,-0.27444 -0.40099,-0.53815 -0.54461,-0.58602 -0.3258,-0.1086 -0.41236,2.51078 -0.10213,3.09044 0.25261,0.472 2.26809,0.67631 2.52771,0.25624 z m -12.57769,-0.51301 c 0,-0.14552 -0.12609,-0.26458 -0.2802,-0.26458 -0.15411,0 -0.20662,0.11906 -0.11668,0.26458 0.0899,0.14552 0.21603,0.26458 0.2802,0.26458 0.0642,0 0.11668,-0.11906 0.11668,-0.26458 z m -6.483579,-0.24325 c 0.290339,-0.11333 0.528459,-0.43238 0.529169,-0.709 7.8e-4,-0.30811 0.15503,-0.47001 0.39816,-0.41791 0.30406,0.0651 0.32451,0.0113 0.0875,-0.23005 -0.60754,-0.61867 -2.504739,0.63517 -2.057076,1.3595 0.172587,0.27926 0.321311,0.27889 1.042293,-0.003 z m 23.469833,-0.868 c -0.55246,-0.55245 -0.36574,-1.24781 0.38571,-1.43641 0.62572,-0.15705 0.65487,-0.21184 0.26458,-0.49723 -0.24124,-0.17641 -0.43863,-0.56847 -0.43863,-0.87127 0,-0.70897 -0.42339,-0.97443 -0.64269,-0.40295 -0.0929,0.24219 -0.0285,0.52715 0.14312,0.63323 0.17165,0.10609 0.23895,0.3835 0.14956,0.61647 -0.18451,0.48081 -0.9729,0.58119 -0.9729,0.12388 0,-0.33244 -1.01144,-1.2878 -1.3634,-1.2878 -0.29467,0 -0.28271,0.18987 0.0513,0.81397 0.40126,0.74978 2.17207,2.62561 2.4786,2.62561 0.14423,0 0.11936,-0.14287 -0.0553,-0.3175 z m 17.93875,-0.11177 c 0,-0.35158 0.0718,-0.36966 0.39687,-0.0999 0.32618,0.27071 0.39688,0.24964 0.39688,-0.11829 0,-0.6078 -1.15434,-0.44061 -1.27347,0.18444 -0.0485,0.25466 0.0395,0.46302 0.19573,0.46302 0.15619,0 0.28399,-0.19317 0.28399,-0.42927 z m -21.821804,-2.46121 c -0.0958,-0.302 -0.29235,-0.5491 -0.43665,-0.5491 -0.1443,0 -0.21417,0.0893 -0.15526,0.19844 0.0589,0.10914 0.1878,0.42383 0.28643,0.69932 0.2411,0.67349 0.52651,0.34774 0.30548,-0.34866 z M 118.227,139.28755 c -0.0815,-0.0815 -0.22941,0.0654 -0.32877,0.32632 -0.14358,0.37708 -0.11319,0.40747 0.14812,0.14811 0.18082,-0.17948 0.26211,-0.39297 0.18065,-0.47443 z m -25.745784,-1.18363 c 0.0899,-0.14552 -0.0291,-0.26458 -0.26458,-0.26458 -0.23546,0 -0.35452,0.11906 -0.26458,0.26458 0.0899,0.14553 0.209,0.26459 0.26458,0.26459 0.0556,0 0.17465,-0.11906 0.26458,-0.26459 z m 25.653294,-0.2463 c 0.0837,-0.13546 0.0312,-0.32108 -0.11668,-0.41249 -0.14789,-0.0914 -0.2689,0.0194 -0.2689,0.2463 0,0.46475 0.15877,0.53318 0.38558,0.16619 z m -0.77545,-3.40676 c -0.0815,-0.0815 -0.29496,-1.7e-4 -0.47443,0.18065 -0.25937,0.26131 -0.22897,0.2917 0.14811,0.14811 0.26094,-0.0994 0.40778,-0.2473 0.32632,-0.32876 z m -0.93304,-2.16777 c 0,-0.14552 -0.11907,-0.26458 -0.26459,-0.26458 -0.14552,0 -0.26458,0.11906 -0.26458,0.26458 0,0.14552 0.11906,0.26458 0.26458,0.26458 0.14552,0 0.26459,-0.11906 0.26459,-0.26458 z m -0.40772,-1.60504 c -0.0959,-0.15517 -0.17437,-0.69096 -0.17437,-1.19063 0,-0.63303 -0.12089,-0.9085 -0.39872,-0.9085 -0.27879,0 -0.33916,0.13929 -0.20071,0.46303 0.10891,0.25466 0.25423,0.79044 0.32292,1.19062 0.0687,0.40018 0.23748,0.7276 0.37507,0.7276 0.1376,0 0.17171,-0.12695 0.0758,-0.28212 z m -1.84461,-7.75737 c -0.0378,-0.63818 -0.19771,-1.38232 -0.35536,-1.65365 -0.23823,-0.40999 -0.288,-0.30045 -0.29469,0.64856 -0.007,0.97859 0.33799,2.16542 0.62926,2.16542 0.0492,0 0.0586,-0.52215 0.0208,-1.16033 z m -34.299614,54.62015 c -0.08498,-0.25493 -0.589838,-0.37581 -1.629374,-0.39012 -0.828436,-0.0114 -1.506531,0.0388 -1.506879,0.11155 -0.0013,0.28279 -3.689749,0.11832 -3.986436,-0.17776 -0.170879,-0.17053 -0.462732,-0.25171 -0.648561,-0.1804 -0.403152,0.1547 -0.772319,-0.33246 -0.417916,-0.55149 0.135683,-0.0839 0.554344,-0.0355 0.930358,0.10746 0.481568,0.18309 0.683661,0.1728 0.683661,-0.0348 0,-0.20912 0.710913,-0.23922 2.447396,-0.10363 2.675072,0.20887 3.368724,0.24057 4.564061,0.20853 2.59722,-0.0696 8.84469,0.0974 8.98828,0.24031 0.0938,0.0933 0.50749,0.0425 0.91935,-0.11299 0.6925,-0.26139 0.76224,-0.41847 0.92668,-2.08733 0.0978,-0.99257 0.10561,-1.92153 0.0173,-2.06436 -0.0883,-0.14282 -0.0356,-0.49304 0.11704,-0.77826 0.18428,-0.34431 0.18839,-0.57367 0.0122,-0.68254 -0.14591,-0.0902 -0.27427,-0.12717 -0.28524,-0.0822 -0.011,0.045 -0.1598,1.09379 -0.33073,2.33072 -0.23279,1.68456 -0.41038,2.24896 -0.70766,2.24896 -0.30717,0 -0.39221,-0.32892 -0.37626,-1.45521 0.0452,-3.18736 0.28286,-5.56869 0.58613,-5.87195 0.17561,-0.17562 0.3193,-0.82331 0.3193,-1.43931 0,-1.21565 0.0945,-1.16787 -2.30199,-1.16436 -0.32021,4.7e-4 -0.65466,-0.11639 -0.74322,-0.25968 -0.0886,-0.14329 -0.36566,-0.26053 -0.61577,-0.26053 -0.25011,0 -0.65655,-0.23568 -0.90319,-0.52374 -0.4229,-0.49392 -0.4207,-0.53857 0.0387,-0.78444 0.26793,-0.14339 0.5799,-0.1756 0.69328,-0.0716 0.11338,0.10402 0.13515,-0.098 0.0484,-0.44896 -0.0868,-0.35095 -0.0366,-0.86457 0.11159,-1.14139 0.18476,-0.34523 0.18122,-0.60951 -0.0113,-0.84146 -0.15436,-0.18599 -0.19238,-0.4356 -0.0845,-0.55468 0.10788,-0.11908 0.0393,-0.12591 -0.15239,-0.0152 -0.22535,0.13017 -0.39381,0.0282 -0.47661,-0.2884 -0.16636,-0.63615 -1.44928,-1.27333 -1.71103,-0.8498 -0.32128,0.51984 -1.46292,0.0126 -2.11564,-0.93997 -0.70041,-1.02219 -1.98217,-1.43396 -2.912963,-0.93581 -0.309997,0.1659 -0.95314,0.22648 -1.438284,0.13546 -0.97819,-0.18351 -1.409501,0.18641 -0.913783,0.78372 0.228502,0.27532 0.240498,0.59396 0.04362,1.15872 -0.213836,0.61341 -0.19163,0.80964 0.104482,0.92327 0.206817,0.0794 0.376031,0.33936 0.376031,0.57778 0,0.28467 -0.14219,0.37892 -0.414176,0.27455 -0.313663,-0.12036 -0.375261,-0.0363 -0.253821,0.3463 0.0882,0.27788 0.05366,0.57118 -0.07674,0.65177 -0.130405,0.0806 -0.153647,0.7157 -0.05165,1.41133 0.212458,1.44898 0.137297,6.64229 -0.09956,6.87915 -0.08679,0.0868 -0.03559,0.30504 0.113778,0.48502 0.149364,0.17997 0.248492,0.42905 0.220283,0.55351 -0.02821,0.12445 0.04649,0.45186 0.165998,0.72757 0.156095,0.36011 0.07478,0.61082 -0.288724,0.89025 -0.353706,0.2719 -0.406464,0.42629 -0.175281,0.51296 0.181901,0.0682 0.330729,0.22038 0.330729,0.3382 0,0.38344 -0.851331,0.55243 -1.224161,0.24301 -0.273503,-0.22698 -0.363339,-0.22356 -0.363339,0.0138 0,0.17573 -0.263615,0.27794 -0.595313,0.23083 -0.508685,-0.0722 -0.592021,-0.23855 -0.572696,-1.14288 0.02826,-1.32218 0.192289,-2.34087 0.404744,-2.51354 0.295216,-0.23993 0.539224,-1.32291 0.298066,-1.32291 -0.231648,0 -0.215519,-1.67138 0.03767,-3.90314 0.164246,-1.44779 0.401488,-2.18228 0.704883,-2.18228 0.338475,0 -0.01774,-2.39206 -0.457392,-3.07151 -0.307244,-0.47482 -0.3041,-0.60523 0.0211,-0.87512 0.282833,-0.23474 0.344521,-0.68172 0.237366,-1.71995 -0.142245,-1.37823 -0.131456,-1.40536 0.616001,-1.54882 0.41843,-0.0803 0.906554,-0.0255 1.084721,0.12187 0.528424,0.43699 3.239531,-0.53605 3.580871,-1.28521 0.15464,-0.3394 0.47628,-0.61709 0.71474,-0.61709 0.33797,0 0.41022,0.19997 0.32768,0.90698 -0.0956,0.81878 0.54581,2.23334 1.02461,2.2597 0.0831,0.005 0.0697,-0.61676 -0.0297,-1.38075 -0.0994,-0.76398 -0.12424,-1.5394 -0.0553,-1.72316 0.22272,-0.59331 -0.45462,-1.10955 -1.24769,-0.95093 -0.41229,0.0824 -0.81811,0.019 -0.91858,-0.14352 -0.22048,-0.35675 -1.207102,-0.38871 -1.207102,-0.0391 0,0.349 -2.24852,0.1874 -2.708906,-0.19468 -0.267402,-0.22193 -0.634283,-0.23686 -1.278694,-0.052 -0.497034,0.14255 -0.920364,0.25918 -0.940732,0.25918 -0.02037,0 -0.104426,-0.2577 -0.186793,-0.57268 -0.127516,-0.48762 -0.21164,-0.52132 -0.566419,-0.22688 -0.646027,0.53616 -0.780614,0.11797 -0.161338,-0.50131 0.64216,-0.64216 1.080382,-0.71109 1.080382,-0.16995 0,0.20969 0.131818,0.46273 0.292929,0.5623 0.197122,0.12183 0.234558,-0.003 0.114462,-0.38126 -0.151148,-0.47623 -0.07176,-0.5623 0.51865,-0.5623 0.581286,0 0.668651,0.0897 0.525795,0.53979 -0.166511,0.52463 -0.0797,0.53881 3.091025,0.50498 2.910971,-0.0311 3.326461,-0.0942 3.857661,-0.58591 0.32742,-0.30311 0.59531,-0.70894 0.59531,-0.90186 0,-0.19291 0.24515,-0.35075 0.54478,-0.35075 0.31001,0 0.47145,-0.11866 0.37461,-0.27535 -0.0936,-0.15144 -0.39828,-0.20295 -0.67707,-0.11446 -0.58435,0.18546 -0.71157,-0.44074 -0.17617,-0.86711 0.36966,-0.29438 3.08933,-0.25017 4.27509,0.0695 0.72127,0.19445 0.73878,0.22977 0.28015,0.56512 -0.26906,0.19674 -0.7641,0.35771 -1.10008,0.35771 -0.61195,0 -0.78445,0.26742 -0.41246,0.63941 0.10915,0.10915 0.19844,0.33735 0.19844,0.50712 0,0.16978 0.26789,0.34673 0.59531,0.39323 0.61703,0.0876 0.74625,0.45844 0.36773,1.05528 -0.20337,0.32066 -1.30431,0.2352 -1.98867,-0.15436 -0.42406,-0.24139 -2.81083,-0.26528 -2.81083,-0.0281 0,0.12832 0.14932,0.2333 0.33183,0.2333 0.22499,0 0.34887,0.53237 0.3848,1.65364 0.0291,0.90951 0.1338,2.16108 0.2326,2.78126 0.15493,0.97258 0.23526,1.08171 0.58427,0.79375 0.3129,-0.25817 0.4291,-0.26122 0.51251,-0.0135 0.0686,0.20368 0.39025,0.26392 0.88301,0.16537 0.69965,-0.13993 0.77515,-0.0874 0.77515,0.5395 0,0.38199 0.14883,0.69718 0.33073,0.70041 0.1819,0.003 0.62839,0.24049 0.99219,0.52722 0.56049,0.44176 0.60088,0.56141 0.26458,0.78382 -0.35278,0.23331 -0.35278,0.26338 0,0.27058 0.35123,0.007 0.35149,0.0368 0.002,0.25762 -0.30906,0.19539 -0.32513,0.31905 -0.0741,0.57009 0.24486,0.24485 0.5568,0.25023 1.3207,0.0228 1.16254,-0.34617 3.0228,-0.69659 3.32657,-0.62663 0.11537,0.0266 0.0912,-0.17328 -0.0538,-0.4441 -0.18387,-0.34357 -0.16797,-0.58797 0.0526,-0.80855 0.24513,-0.24512 0.23599,-0.36566 -0.0407,-0.53664 -0.24839,-0.15352 -0.30043,-0.47717 -0.17127,-1.0652 0.22206,-1.01105 0.87066,-1.34443 1.34734,-0.69252 0.31247,0.42732 0.50083,0.43847 2.21909,0.1314 l 1.87765,-0.33555 -1.19902,-0.51902 c -0.65946,-0.28547 -1.19902,-0.68244 -1.19902,-0.88217 0,-0.19973 -0.11533,-0.36314 -0.25628,-0.36314 -0.14096,0 -0.17982,-0.19927 -0.0864,-0.44281 0.12873,-0.33547 0.0626,-0.40162 -0.27289,-0.27289 -0.29015,0.11134 -0.44281,0.036 -0.44281,-0.21865 0,-0.21371 -0.11906,-0.38857 -0.26458,-0.38857 -0.14552,0 -0.26459,-0.16541 -0.26459,-0.36757 0,-0.20215 -0.21739,-0.63603 -0.4831,-0.96417 l -0.4831,-0.5966 -0.64138,0.66416 c -0.78998,0.81804 -2.69103,1.3956 -4.29829,1.30586 -0.65042,-0.0363 -0.69737,-0.0908 -0.36475,-0.42344 0.20997,-0.20997 1.16304,-0.58994 2.11795,-0.84439 1.7912,-0.47728 2.02375,-0.72298 2.0324,-2.14729 0.004,-0.69918 0.91116,-0.84072 1.16406,-0.18167 0.0873,0.22751 0.28744,0.3341 0.44477,0.23687 0.15732,-0.0972 0.58122,0.10052 0.94199,0.43946 0.36078,0.33893 1.33423,0.97878 2.16323,1.42189 1.20673,0.64501 1.4947,0.92333 1.44424,1.39585 -0.0381,0.35676 0.0819,0.59021 0.30337,0.59021 0.26643,0 0.37122,-0.40446 0.38409,-1.48251 0.015,-1.25906 -0.0606,-1.50298 -0.5018,-1.61836 -0.648,-0.16945 -0.6876,-0.86789 -0.0492,-0.86789 0.25866,0 0.71123,-0.16875 1.0057,-0.37501 0.733644,-0.51386 2.492764,-0.83014 2.492764,-0.44818 0,0.16172 0.42454,0.29403 0.94343,0.29403 0.51889,0 1.18364,0.12855 1.47722,0.28567 0.41259,0.22081 0.63864,0.19078 0.99563,-0.13229 0.25401,-0.22988 0.58284,-0.41797 0.73073,-0.41797 0.41611,0 1.22167,-0.98856 0.89444,-1.09764 -0.16036,-0.0534 0.0166,-0.51471 0.40925,-1.06651 0.3805,-0.53478 0.83772,-0.91634 1.01604,-0.84791 0.45902,0.17614 0.40258,0.84256 -0.0873,1.03054 -0.35869,0.13764 -0.36152,0.18952 -0.022,0.40421 0.3215,0.20331 0.30327,0.247 -0.10442,0.25035 -0.36434,0.003 -0.45726,0.14406 -0.35428,0.53787 0.0774,0.29595 -0.0408,0.71421 -0.26522,0.93864 -0.46664,0.46664 -0.29048,0.78265 0.30822,0.5529 0.22456,-0.0862 0.40829,-0.45806 0.40829,-0.82643 0,-0.41896 0.14862,-0.66977 0.39687,-0.66977 0.21828,0 0.48041,-0.0298 0.5825,-0.0661 0.1021,-0.0364 0.20491,0.84166 0.22848,1.95121 0.0236,1.10955 0.11948,2.14135 0.21314,2.2929 0.0937,0.15155 0.0609,0.56337 -0.0729,0.91515 -0.13482,0.35459 -0.14344,0.80098 -0.0194,1.00175 0.3146,0.50904 0.0203,0.87081 -0.41469,0.50979 -0.19895,-0.16512 -0.51457,-0.20575 -0.70138,-0.0903 -0.55,0.33991 0.86753,0.57498 1.72558,0.28615 0.49441,-0.16643 0.8406,-0.15873 1.02205,0.0227 0.39546,0.39545 -0.0214,0.91885 -0.6093,0.7651 -0.27482,-0.0719 -0.43824,-0.0313 -0.36317,0.0902 0.29203,0.47251 -1.28243,0.64099 -3.83993,0.4109 -0.80037,-0.072 -1.54451,-0.13564 -1.65365,-0.14143 -0.10914,-0.006 -0.19844,-0.18157 -0.19844,-0.39063 0,-0.23462 0.3263,-0.41184 0.85249,-0.46302 0.84806,-0.0825 0.85207,-0.0898 0.77155,-1.40582 -0.0445,-0.72761 -0.24955,-1.51089 -0.45562,-1.74063 -0.20607,-0.22974 -0.37467,-0.56123 -0.37467,-0.73665 0,-0.32087 -1.14536,-0.30202 -1.4716,0.0242 -0.18308,0.18307 -1.43877,-0.31085 -1.43888,-0.56599 -4e-5,-0.0858 -0.53582,-0.16738 -1.19063,-0.18133 l -1.19055,-0.0254 0.004,2.27433 c 0.002,1.25089 0.10682,2.43655 0.23244,2.63482 0.17018,0.26861 0.70863,0.33039 2.11261,0.24239 1.43195,-0.0897 1.88423,-0.0354 1.88423,0.22652 0,0.20169 -0.16909,0.27974 -0.4077,0.18817 -0.2476,-0.095 -0.37747,-0.0268 -0.33073,0.17367 0.0423,0.18157 -0.0719,0.38469 -0.25376,0.45138 -0.1819,0.0667 -0.33073,-0.0113 -0.33073,-0.17328 0,-0.162 -0.34065,-0.0427 -0.757,0.26512 -0.64603,0.47763 -0.89812,0.5207 -1.71979,0.29383 -0.537724,-0.14847 -0.962794,-0.16211 -0.962794,-0.0309 0,0.12923 -0.1786,0.16642 -0.39688,0.0827 -0.21828,-0.0838 -0.39687,-0.0376 -0.39687,0.10262 0,0.14021 -0.35692,0.24224 -0.79315,0.22675 -0.43623,-0.0155 -0.79342,-0.14023 -0.79375,-0.27718 -3.3e-4,-0.13696 -0.16102,-0.0296 -0.35709,0.23852 -0.24701,0.3378 -0.41431,0.39396 -0.54478,0.18286 -0.10356,-0.16757 -0.31491,-0.30467 -0.46966,-0.30467 -0.16646,0 -0.13307,0.18231 0.0818,0.44641 0.3233,0.39745 0.30508,0.42255 -0.16604,0.22879 -0.55232,-0.22716 -1.71677,-0.23725 -1.93723,-0.0168 -0.25014,0.25014 0.81177,3.5973 1.10976,3.49797 0.16407,-0.0547 0.30371,-0.26811 0.31033,-0.47426 0.007,-0.20625 0.18511,-0.31877 0.39687,-0.25019 0.21167,0.0686 1.1738,0.112 2.13807,0.0965 1.61202,-0.0258 1.7424,0.0133 1.61888,0.48564 -0.0739,0.28255 -0.28744,0.45499 -0.47456,0.38319 -0.18711,-0.0718 -0.4067,0.0427 -0.48797,0.25452 -0.10105,0.26333 -0.39194,0.34206 -0.92004,0.24902 -0.51377,-0.0905 -0.97055,0.0245 -1.36465,0.34363 -0.53757,0.4353 -0.60464,0.77178 -0.72495,3.63687 -0.19129,4.55572 -0.12247,5.93498 0.33064,6.62652 0.37115,0.56644 0.36016,0.63535 -0.14436,0.90536 -0.40462,0.21655 -0.64369,0.21124 -0.92291,-0.0205 -0.29775,-0.24711 -0.41211,-0.22081 -0.54494,0.12534 -0.287,0.74791 0.0492,0.83321 2.27852,0.57811 0.65484,-0.0749 1.33945,-0.14223 1.52135,-0.14954 0.21193,-0.009 0.15511,-0.18893 -0.15818,-0.50222 -0.64174,-0.64174 -0.86417,-2.17997 -0.59638,-4.12428 0.11897,-0.86376 0.16187,-1.77863 0.0953,-2.03304 -0.16568,-0.63357 0.39079,-2.22498 1.18112,-3.37777 0.36055,-0.52591 0.76055,-1.22623 0.8889,-1.55626 0.12834,-0.33003 0.52839,-0.71223 0.888994,-0.84933 0.3606,-0.1371 0.88363,-0.47727 1.1623,-0.75593 0.27866,-0.27867 0.67037,-0.56355 0.87046,-0.63308 0.41849,-0.14542 2.88574,0.5189 3.26099,0.87804 0.13824,0.13231 0.5252,0.24057 0.85989,0.24057 0.3347,0 0.60855,0.11906 0.60855,0.26458 0,0.14552 0.1744,0.26458 0.38756,0.26458 0.43132,0 0.99517,0.88368 0.88824,1.39206 -0.0379,0.18025 0.14689,0.65124 0.41069,1.04663 0.37216,0.55783 0.43756,0.9728 0.29188,1.85209 -0.10326,0.62325 -0.28984,1.32786 -0.41464,1.56579 -0.51486,0.98168 -0.72798,5.93294 -0.27487,6.38605 0.41208,0.41207 3.47159,0.29484 4.20124,-0.16099 0.1819,-0.11363 0.43284,-0.1435 0.55764,-0.0664 0.12481,0.0771 0.57129,0.0418 0.99219,-0.0785 0.4209,-0.12028 1.37211,-0.14052 2.1138,-0.045 1.58865,0.20466 1.9814,0.11667 1.7833,-0.39956 -0.11476,-0.29907 0.13809,-0.37978 1.18988,-0.37978 0.73458,0 1.39745,-0.10006 1.47303,-0.22235 0.16544,-0.26769 2.01531,-0.23773 2.01247,0.0326 -0.001,0.10437 -0.002,0.32371 -0.002,0.48742 0,0.19263 -0.29343,0.23897 -0.83163,0.13133 -0.47805,-0.0956 -0.98426,-0.0396 -1.19062,0.13161 -0.27256,0.22621 -0.35998,0.21051 -0.36305,-0.0652 -0.003,-0.30728 -0.0395,-0.30717 -0.2345,6.8e-4 -0.12674,0.20009 -0.52608,0.3638 -0.88741,0.3638 -0.36134,0 -0.80696,0.20808 -0.99026,0.4624 -0.19344,0.26838 -0.54099,0.40808 -0.82832,0.33294 -0.54708,-0.14306 -0.69071,0.33838 -0.16432,0.55078 0.53765,0.21695 -1.11004,0.31686 -3.70416,0.22462 -1.12404,-0.04 -1.39067,-0.13773 -1.39748,-0.51241 -0.008,-0.42008 -0.0384,-0.42365 -0.33174,-0.0385 -0.37913,0.49777 -1.68291,0.99223 -1.39716,0.52987 0.0996,-0.16111 0.055,-0.29293 -0.0992,-0.29293 -0.1541,0 -0.28019,0.11979 -0.28019,0.26619 0,0.35415 -2.5417,0.14961 -3.01424,-0.24256 -0.27841,-0.23106 -0.39861,-0.21036 -0.51324,0.0884 -0.13159,0.34294 -0.24587,0.34211 -0.94543,-0.007 -0.71586,-0.35712 -0.86215,-0.35347 -1.45708,0.0363 -0.38429,0.25179 -0.80422,0.345 -1.00243,0.2225 -0.48541,-0.3 -5.746544,-0.34747 -5.928234,-0.0535 -0.0877,0.14194 -0.30611,0.11571 -0.52093,-0.0626 -0.22705,-0.18843 -0.65219,-0.23116 -1.10093,-0.11066 -0.96187,0.2583 -6.41952,0.40723 -6.41978,0.17519 -1.2e-4,-0.0991 -1.90491,-0.18012 -4.23288,-0.18012 -2.63269,0 -4.23987,-0.10001 -4.25172,-0.26458 -0.0105,-0.14552 -0.11092,-0.0295 -0.2232,0.25783 -0.14841,0.37982 -0.23774,0.42159 -0.32726,0.15303 z m 20.941524,-1.8973 c 0,-0.14552 -0.11906,-0.191 -0.26458,-0.10106 -0.14553,0.0899 -0.26459,0.28258 -0.26459,0.4281 0,0.14552 0.11906,0.191 0.26459,0.10106 0.14552,-0.0899 0.26458,-0.28258 0.26458,-0.4281 z m 1.33743,-3.38797 c -0.55512,-0.7796 -1.07285,-1.06433 -1.07285,-0.59004 0,0.12326 0.23813,0.49866 0.52917,0.83424 0.29104,0.33557 0.52917,0.73479 0.52917,0.88715 0,0.18103 0.10294,0.17407 0.29711,-0.0201 0.21977,-0.21976 0.14619,-0.50907 -0.2826,-1.11125 z m 2.89362,-1.96222 c 0.44035,-0.20847 0.82388,-0.77025 1.15531,-1.69223 0.48957,-1.3619 0.48909,-1.39439 -0.0362,-2.45606 -0.30431,-0.61507 -0.46785,-1.32612 -0.38182,-1.66008 0.13161,-0.51086 0.0971,-0.54036 -0.27535,-0.23508 -0.31557,0.25869 -0.56212,0.27616 -0.95207,0.0675 -0.65396,-0.34999 -1.81157,-0.31641 -2.6826,0.0778 -0.84756,0.3836 -1.60527,1.26247 -1.45568,1.68843 0.0639,0.1819 0.0254,0.33073 -0.0855,0.33073 -0.3134,0 -0.764394,1.97511 -0.574564,2.51627 0.0933,0.26595 0.756314,0.81281 1.473394,1.21524 1.36965,0.76867 2.41734,0.80917 3.81504,0.14749 z m -13.491474,-0.8843 c 0,-0.33634 -0.0736,-0.35254 -0.39396,-0.0867 -0.21668,0.17983 -0.32751,0.43447 -0.2463,0.56588 0.20873,0.33773 0.64026,0.0148 0.64026,-0.47918 z m 16.139594,-0.61345 c 0,-0.14552 -0.11907,-0.26458 -0.26459,-0.26458 -0.14552,0 -0.26458,0.11906 -0.26458,0.26458 0,0.14552 0.11906,0.26459 0.26458,0.26459 0.14552,0 0.26459,-0.11907 0.26459,-0.26459 z m 0.26458,-1.32291 c 0,-0.43657 -0.11906,-0.79375 -0.26458,-0.79375 -0.2943,0 -0.36518,1.13413 -0.0882,1.41111 0.29891,0.29891 0.35277,0.20466 0.35277,-0.61736 z m -32.039443,-0.69141 c -0.384448,-0.46323 -0.62993,-0.28217 -0.406575,0.29989 0.08971,0.23378 0.288795,0.34738 0.442409,0.25244 0.191809,-0.11855 0.180583,-0.29157 -0.03583,-0.55233 z m 16.164439,0.31015 c 0,-0.0642 -0.11906,-0.19027 -0.26458,-0.2802 -0.14552,-0.0899 -0.26459,-0.0374 -0.26459,0.11667 0,0.15411 0.11907,0.2802 0.26459,0.2802 0.14552,0 0.26458,-0.0525 0.26458,-0.11667 z m 2.75648,-2.68976 c 0.23019,-0.0883 0.41852,-0.26692 0.41852,-0.39688 0,-0.37856 -0.69888,-0.27251 -1.05833,0.1606 -0.34919,0.42075 -0.0902,0.5164 0.63981,0.23628 z m -2.35961,-1.69148 c 0.0899,-0.14553 0.0445,-0.26459 -0.10106,-0.26459 -0.14552,0 -0.33817,0.11906 -0.4281,0.26459 -0.0899,0.14552 -0.0445,0.26458 0.10106,0.26458 0.14552,0 0.33817,-0.11906 0.4281,-0.26458 z m 15.045234,-5.95161 c -0.0834,-0.21745 -0.2583,-0.32948 -0.38858,-0.24897 -0.37357,0.23088 -0.27622,0.64433 0.15172,0.64433 0.23603,0 0.32901,-0.15521 0.23686,-0.39536 z m -12.497944,-2.97808 c 0.32911,-0.41965 0.31975,-0.429 -0.0999,-0.0999 -0.25466,0.19972 -0.46302,0.40808 -0.46302,0.46302 0,0.21776 0.21728,0.0776 0.56292,-0.36312 z m -9.02958,-2.71198 c -0.32678,-0.21118 -0.33067,-0.2572 -0.0221,-0.26053 0.20616,-0.002 0.32002,-0.0589 0.25303,-0.12585 -0.067,-0.067 -0.39455,-0.0505 -0.72792,0.0367 -0.45369,0.11864 -0.51733,0.21479 -0.25303,0.38232 0.1942,0.12311 0.53169,0.22383 0.74997,0.22383 0.35278,0 0.35278,-0.0285 0,-0.25648 z m 34.250314,26.48401 c -0.13824,-0.13139 -0.48947,-0.29156 -0.78052,-0.35593 -0.50262,-0.11115 -0.5046,-0.12764 -0.0394,-0.32881 0.31597,-0.13665 0.56561,-0.089 0.7036,0.13425 0.17066,0.27613 0.30272,0.25719 0.65365,-0.0937 0.24188,-0.24188 0.81823,-0.45513 1.28078,-0.4739 0.46255,-0.0188 1.16842,-0.0541 1.5686,-0.0784 0.40019,-0.0244 0.72579,0.0207 0.72356,0.10026 -0.0156,0.55702 -0.60577,0.83788 -1.81864,0.86551 -0.75747,0.0172 -1.43817,0.13 -1.51267,0.25054 -0.17641,0.28543 -0.46554,0.27811 -0.77891,-0.0197 z m -7.10305,-3.6208 c -0.25632,-0.81315 -0.40131,-1.54318 -0.32221,-1.62229 0.0791,-0.0791 0.027,-0.36206 -0.1157,-0.62878 -0.29347,-0.54836 -1.03246,-4.50421 -1.03989,-5.56661 -0.003,-0.44408 -0.23987,-0.85115 -0.6522,-1.12132 -0.5472,-0.35854 -0.63456,-0.59858 -0.56474,-1.55178 0.10887,-1.48624 0.36802,-2.04766 1.06807,-2.31382 0.52526,-0.1997 0.57319,-0.38834 0.52901,-2.08187 -0.0377,-1.44718 0.0403,-1.89639 0.35024,-2.01532 0.49058,-0.18826 0.50206,-0.17689 0.72713,0.71985 0.14617,0.58237 0.0917,0.72706 -0.27351,0.72706 -0.4123,0 -0.41855,0.0571 -0.0652,0.59638 0.38311,0.58469 0.74712,2.19243 0.73358,3.24008 -0.0133,1.03302 0.0432,5.04222 0.0848,6.01927 0.0233,0.5457 0.13964,0.99219 0.25859,0.99219 0.11894,0 0.14069,0.23812 0.0483,0.52917 -0.17241,0.54319 0.23404,0.7421 0.53183,0.26026 0.24297,-0.39313 0.65879,-0.0465 0.65879,0.5491 0,0.33716 -0.18175,0.51355 -0.52917,0.51355 -0.53924,0 -0.71665,0.38207 -0.29765,0.64102 0.12733,0.0787 0.23151,0.91916 0.23151,1.8677 0,1.44373 -0.0729,1.72462 -0.44778,1.72462 -0.31162,0 -0.58948,-0.44956 -0.91381,-1.47846 z m 12.36373,0.0314 c -0.39323,-0.27731 -0.60473,-0.3103 -0.67316,-0.10501 -0.15382,0.46148 -1.19085,0.0197 -1.34595,-0.57339 -0.18577,-0.71041 0.19614,-0.65838 0.54978,0.0749 l 0.28711,0.59532 0.0179,-0.57327 c 0.01,-0.31529 0.16674,-0.62783 0.34864,-0.69453 0.26205,-0.0961 0.25977,-0.19635 -0.011,-0.48286 -0.2888,-0.30556 -0.37732,-0.30404 -0.5713,0.01 -0.19659,0.31809 -0.2839,0.31709 -0.60792,-0.007 -0.85276,-0.85275 -0.70428,-1.39339 0.56998,-2.07535 0.4176,-0.2235 0.52277,-0.39837 0.31631,-0.52596 -0.33507,-0.20709 -0.12023,-1.07489 0.26611,-1.07489 0.12995,0 0.23627,0.17859 0.23627,0.39687 0,0.21828 0.1318,0.39688 0.29289,0.39688 0.16109,0 0.22582,0.17478 0.14385,0.3884 -0.082,0.21362 -0.0225,0.46663 0.13223,0.56224 0.1877,0.11601 0.16185,0.25916 -0.0777,0.43031 -0.27122,0.19377 -0.24333,0.21911 0.11406,0.10368 0.59399,-0.19186 0.9112,0.52583 0.51373,1.1623 -0.19283,0.30876 -0.19976,0.54778 -0.0211,0.72647 0.14646,0.14646 0.22723,0.58198 0.17947,0.96781 -0.0823,0.66448 -0.1171,0.68017 -0.66021,0.29718 z m -45.757119,-0.78059 c -0.205964,-0.53673 0.374325,-1.74113 0.838885,-1.74113 0.46749,0 0.32773,1.14966 -0.20842,1.71442 -0.42651,0.44928 -0.46764,0.45102 -0.630465,0.0267 z m 5.629285,-4.8e-4 c -0.0787,-0.20513 -0.0534,-0.71046 0.0562,-1.12295 0.22871,-0.86042 1.08554,-1.12812 1.60549,-0.50162 0.46779,0.56365 0.13565,1.78926 -0.45841,1.69159 -0.2498,-0.0411 -0.59053,0.011 -0.75718,0.11564 -0.16666,0.10467 -0.36741,0.0225 -0.44613,-0.18266 z m 33.596624,-0.19376 c -0.77861,-0.39584 -0.98743,-0.63956 -0.88466,-1.03252 0.074,-0.28291 0.0196,-0.51437 -0.12092,-0.51437 -0.14048,0 -0.18184,-0.11907 -0.0919,-0.26459 0.0899,-0.14552 0.3847,-0.26458 0.65502,-0.26458 0.27033,0 0.53864,-0.14139 0.59624,-0.31419 0.0674,-0.20222 0.311,-0.10793 0.68351,0.26458 0.31832,0.31833 0.67949,0.57878 0.80259,0.57878 0.3882,0 0.13567,1.9809 -0.25812,2.02471 -0.19941,0.0222 -0.8212,-0.19284 -1.38175,-0.47782 z M 81.459676,167.0147 c -0.0227,-0.54848 -0.0565,-1.32466 -0.0751,-1.72484 -0.0186,-0.40018 0.0596,-0.7276 0.17363,-0.7276 0.11407,0 0.21005,-0.14883 0.21329,-0.33073 0.003,-0.1819 0.23133,-0.62411 0.50688,-0.98268 0.458,-0.596 0.55847,-0.62119 1.17071,-0.29353 0.36834,0.19713 0.73053,0.51692 0.80487,0.71064 0.17007,0.44321 -0.34193,1.95463 -0.66215,1.95463 -0.13128,0 -0.2387,0.40969 -0.2387,0.91043 0,0.99208 -0.05,1.05016 -1.12447,1.30699 -0.69127,0.16523 -0.72967,0.12411 -0.76894,-0.82331 z m 35.615354,-0.0354 c -0.3781,-0.34547 -1.97193,-0.5896 -1.97193,-0.30204 0,0.13731 -0.17859,0.18113 -0.39688,0.0974 -0.51306,-0.19689 -0.51133,-0.7889 0.003,-0.98623 0.48307,-0.18537 1.93877,0.0782 2.12865,0.38544 0.0749,0.12117 0.45028,0.10087 0.83421,-0.0451 0.8365,-0.31804 2.19363,-0.0714 2.19363,0.39867 0,0.19152 -0.34097,0.34528 -0.79422,0.35817 -0.43681,0.0124 -1.00796,0.0904 -1.26921,0.17334 -0.26125,0.0829 -0.58847,0.0471 -0.72714,-0.0796 z m 3.89961,-0.0556 c 0.0521,-0.15643 0.20792,-0.28442 0.34617,-0.28442 0.13824,0 0.29402,0.12799 0.34616,0.28442 0.0521,0.15644 -0.10363,0.28443 -0.34616,0.28443 -0.24254,0 -0.39831,-0.12799 -0.34617,-0.28443 z m 19.68008,-1.38798 c -0.0921,-0.46262 -0.17185,-1.04272 -0.17714,-1.2891 -0.006,-0.27842 -0.15319,-0.39288 -0.38893,-0.30242 -0.24957,0.0958 -0.3793,-0.0312 -0.3793,-0.37128 0,-0.28425 -0.18302,-0.8837 -0.40672,-1.3321 -0.43744,-0.87688 -0.28805,-2.17644 0.25019,-2.17644 0.47156,0 0.92691,0.54678 0.77817,0.9344 -0.0719,0.18742 0.0667,0.7226 0.30803,1.18929 0.24134,0.4667 0.37826,1.08004 0.30427,1.36299 -0.0788,0.30128 0.0205,0.57391 0.23949,0.65797 0.23998,0.0921 0.35115,0.46432 0.31019,1.03863 -0.084,1.1783 -0.624,1.36386 -0.83825,0.28806 z m -17.16505,-0.37811 c -0.38182,-0.68059 -0.40622,-1.62442 -0.0496,-1.92035 0.32744,-0.27175 0.39432,-0.23575 0.39432,0.21226 0,0.29673 0.13946,0.586 0.30991,0.64282 0.52302,0.17434 0.45929,1.26371 -0.0739,1.26371 -0.25813,0 -0.51943,-0.0893 -0.58066,-0.19844 z m -14.3592,-1.74134 c -0.28803,-0.75061 -4.9e-4,-2.42585 0.41638,-2.42585 0.21828,0 0.39839,0.19996 0.40025,0.44435 0.002,0.24439 0.0855,0.52646 0.18584,0.62681 0.10035,0.10036 0.008,0.35648 -0.20425,0.56917 -0.21269,0.21269 -0.32414,0.48795 -0.24767,0.61168 0.0765,0.12373 0.0172,0.30028 -0.13172,0.39231 -0.14893,0.092 -0.3374,-0.006 -0.41883,-0.21847 z m 26.59789,-0.34136 c -0.44962,-1.18259 0.80698,-1.98137 1.60477,-1.0201 0.27738,0.33423 0.26491,0.37627 -0.0731,0.24655 -0.22415,-0.086 -0.48614,-0.0292 -0.58221,0.12623 -0.0979,0.15846 0.0246,0.28263 0.27883,0.28263 0.41981,0 0.41792,0.0393 -0.0254,0.52916 -0.63517,0.70186 -0.88655,0.66749 -1.20286,-0.16447 z m -29.09193,-0.55283 c 0,-0.44569 0.83362,-1.39936 1.2232,-1.39936 0.27967,0 0.37435,0.21818 0.31573,0.7276 -0.0658,0.57149 -0.23983,0.74557 -0.81132,0.81132 -0.40019,0.0461 -0.72761,-0.0168 -0.72761,-0.13956 z m -2.74982,-0.75955 c -0.25982,-0.6771 -0.1891,-0.86176 0.30243,-0.78962 0.42622,0.0626 0.48146,0.20326 0.37041,0.94356 -0.0616,0.41072 -0.49413,0.31177 -0.67284,-0.15394 z m 12.50624,0.0649 c -0.62634,-0.2566 -0.62583,-0.25791 0.16546,-0.4246 1.026,-0.21612 1.98437,-0.0403 1.98437,0.36407 0,0.38253 -1.27613,0.41846 -2.14983,0.0605 z m 0.034,-3.48055 c -0.38448,-1.01126 -0.0945,-1.39384 1.06856,-1.40989 1.08499,-0.015 1.64811,0.40411 1.01823,0.75779 -0.20233,0.11361 -0.65398,0.45512 -1.00367,0.75891 -0.79248,0.68847 -0.7803,0.68967 -1.08312,-0.10681 z m -26.271454,-0.74853 c -0.37853,-0.57771 -0.3649,-0.67766 0.18673,-1.36947 0.53664,-0.67301 0.61328,-0.69877 0.7807,-0.26248 0.11079,0.2887 0.0487,0.57071 -0.15404,0.69933 -0.26445,0.1678 -0.26644,0.21644 -0.009,0.21959 0.44198,0.005 0.42137,0.65778 -0.0327,1.03461 -0.2841,0.23579 -0.45253,0.1656 -0.77174,-0.32158 z m 1.7204,-0.59938 c -0.35118,-0.62753 -0.0791,-1.47576 0.44116,-1.37556 0.27791,0.0535 0.42881,0.35286 0.42881,0.85066 0,0.88382 -0.50021,1.18562 -0.86997,0.5249 z m -13.70129,-5.5777 c -0.08346,-0.26676 -0.256513,-0.68279 -0.384562,-0.92452 -0.277319,-0.52349 0.20535,-0.78806 1.039676,-0.56988 0.382296,0.1 0.554686,0.0209 0.554686,-0.25437 0,-0.21969 0.188331,-0.4717 0.418514,-0.56003 0.584636,-0.22435 0.696306,-0.20147 0.507526,0.10398 -0.0899,0.14553 -0.0633,0.26459 0.0593,0.26459 0.12253,0 0.19877,0.32742 0.1694,0.7276 -0.0294,0.40018 -0.0631,0.86255 -0.0749,1.02748 -0.0327,0.45553 -1.079825,0.65387 -1.079825,0.20452 0,-0.20465 -0.119063,-0.3721 -0.264584,-0.3721 -0.14552,0 -0.234817,0.13394 -0.198437,0.29765 0.114108,0.51349 -0.587179,0.56521 -0.746779,0.0551 z m 1.66731,-1.04175 c -0.08792,-0.0879 -0.316124,-0.0973 -0.50712,-0.0209 -0.211066,0.0845 -0.148372,0.14716 0.159853,0.15985 0.278915,0.0115 0.435187,-0.051 0.347267,-0.13896 z m -1.651074,-3.54907 c -0.24208,-0.39169 -0.01237,-0.59191 0.552599,-0.48165 0.413343,0.0807 0.417727,0.12356 0.04426,0.43311 -0.29754,0.24661 -0.465981,0.26031 -0.596863,0.0485 z m 24.741488,-0.789 c 0,-0.14552 0.12608,-0.26458 0.28019,-0.26458 0.15411,0 0.20662,0.11906 0.11668,0.26458 -0.0899,0.14553 -0.21603,0.26459 -0.2802,0.26459 -0.0642,0 -0.11667,-0.11906 -0.11667,-0.26459 z m 4.49791,-1.85926 c -0.43712,-0.33717 -0.52685,-0.51084 -0.26458,-0.51205 0.56892,-0.003 1.13967,0.40974 1.02444,0.74015 -0.0588,0.16856 -0.36466,0.0767 -0.75986,-0.2281 z m 4.95042,-17.19074 c -0.0761,-0.29104 -0.0305,-0.52916 0.10144,-0.52916 0.13189,0 0.24163,0.14883 0.24386,0.33073 0.003,0.24763 0.0603,0.24206 0.22776,-0.0222 0.18235,-0.28766 0.25161,-0.28021 0.3746,0.0403 0.083,0.21626 0.0797,0.46437 -0.007,0.55135 -0.32796,0.32796 -0.80702,0.13895 -0.94038,-0.37101 z m 0.20896,-1.32291 c 0.0899,-0.14552 0.21602,-0.26459 0.2802,-0.26459 0.0642,0 0.11667,0.11907 0.11667,0.26459 0,0.14552 -0.12609,0.26458 -0.2802,0.26458 -0.1541,0 -0.20661,-0.11906 -0.11667,-0.26458 z"
       id="path10" />
  </g>
</svg>
