<?xml version="1.0" encoding="UTF-8" standalone="no"?>
<!-- Created with Inkscape (http://www.inkscape.org/) -->

<svg
   width="100.54221mm"
   height="51.516479mm"
   viewBox="0 0 100.54221 51.51648"
   version="1.1"
   id="svg1"
   inkscape:version="1.4.1-rc (06eac75fbf, 2025-03-29)"
   sodipodi:docname="city6.svg"
   xmlns:inkscape="http://www.inkscape.org/namespaces/inkscape"
   xmlns:sodipodi="http://sodipodi.sourceforge.net/DTD/sodipodi-0.dtd"
   xmlns="http://www.w3.org/2000/svg"
   xmlns:svg="http://www.w3.org/2000/svg">
  <sodipodi:namedview
     id="namedview1"
     pagecolor="#ffffff"
     bordercolor="#000000"
     borderopacity="0.25"
     inkscape:showpageshadow="2"
     inkscape:pageopacity="0.0"
     inkscape:pagecheckerboard="0"
     inkscape:deskcolor="#d1d1d1"
     inkscape:document-units="mm"
     inkscape:zoom="0.72248176"
     inkscape:cx="189.62416"
     inkscape:cy="97.580318"
     inkscape:window-width="1850"
     inkscape:window-height="1016"
     inkscape:window-x="0"
     inkscape:window-y="0"
     inkscape:window-maximized="1"
     inkscape:current-layer="layer1" />
  <defs
     id="defs1" />
  <g
     inkscape:label="Layer 1"
     inkscape:groupmode="layer"
     id="layer1"
     transform="translate(-55.03333,-122.76699)">
    <path
       style="fill:#000000"
       d="m 109.80205,174.13366 c -2.11333,-0.19371 -2.72288,-0.2201 -5.02708,-0.2176 -0.50932,5.5e-4 -1.93807,0.002 -3.175,0.003 -1.23693,0.001 -3.14193,0.04 -4.23333,0.0864 -1.09141,0.0464 -2.08209,0.027 -2.20153,-0.0431 -0.11943,-0.0701 -1.19099,-0.17739 -2.38125,-0.23835 -2.65715,-0.13608 -2.49598,-0.13487 -3.6193,-0.0271 -0.50933,0.0489 -1.37596,-0.0223 -1.92585,-0.15813 -0.80867,-0.19979 -1.09448,-0.16132 -1.49509,0.20122 -0.2724,0.24653 -0.55802,0.34672 -0.63469,0.22265 -0.0767,-0.12406 -1.10598,-0.21153 -2.28733,-0.19436 -1.18135,0.0172 -2.20581,-0.0625 -2.27657,-0.17698 -0.0708,-0.11451 -0.3197,-0.13489 -0.55318,-0.0453 -0.28998,0.11128 -0.38406,0.0447 -0.29687,-0.21 0.0902,-0.26366 0.49343,-0.35353 1.37654,-0.30681 0.6869,0.0363 1.47861,-0.0568 1.75934,-0.2071 0.49906,-0.26708 1.45779,-0.27946 11.75765,-0.15178 2.7649,0.0343 5.32474,-0.0244 5.68854,-0.13043 0.36381,-0.10601 0.51264,-0.20297 0.33073,-0.21548 -0.52893,-0.0364 -0.38164,-1.03521 0.19844,-1.34566 0.55632,-0.29773 0.71561,-1.17646 0.26387,-1.45565 -0.17727,-0.10956 -0.17703,-0.32889 7.1e-4,-0.66102 0.16265,-0.30391 0.17003,-0.55637 0.019,-0.64971 -0.31141,-0.19247 -0.63303,0.29834 -0.42066,0.64196 0.17545,0.28388 -1.11425,0.6967 -1.37185,0.4391 -0.0888,-0.0888 0.0413,-0.61087 0.28907,-1.16026 0.24774,-0.5494 0.47967,-1.71244 0.51541,-2.58455 0.0357,-0.8721 0.15957,-1.73872 0.27519,-1.92581 0.11563,-0.18708 0.0839,-0.4924 -0.0705,-0.67847 -0.18404,-0.22175 -0.2327,-1.63834 -0.14124,-4.11167 0.13546,-3.66322 0.12434,-3.76854 -0.38096,-3.60816 -0.68502,0.21742 -1.88842,-0.0946 -1.88842,-0.48962 0,-0.32747 0.14478,-0.36319 2.21177,-0.54567 0.70714,-0.0624 1.33725,-0.16504 1.40023,-0.22802 0.063,-0.063 -0.68748,-0.74477 -1.66769,-1.51508 -1.17012,-0.91957 -1.82139,-1.28299 -1.89632,-1.05819 -0.0628,0.18831 -0.30761,0.50908 -0.54408,0.71282 -1.64169,1.41448 -1.98765,1.68008 -2.18837,1.68008 -0.12427,0 -0.22595,0.13428 -0.22595,0.2984 0,0.19919 0.34656,0.24298 1.04236,0.13172 1.22205,-0.19541 1.59867,0.16721 0.93515,0.90038 -0.6598,0.72908 -2.48145,1.05255 -3.23428,0.57432 -0.52314,-0.33233 -0.67642,-0.32504 -1.26425,0.0601 -0.36791,0.24107 -0.78931,0.3639 -0.93645,0.27297 -0.14713,-0.0909 -0.81236,-0.16534 -1.47827,-0.16534 -0.94351,0 -1.23825,-0.10514 -1.33533,-0.47638 -0.0801,-0.30633 -0.29573,-0.43162 -0.60407,-0.35099 -0.42197,0.11035 -0.47013,0.38445 -0.40136,2.28437 0.043,1.18744 0.19013,2.45663 0.327,2.82043 0.37949,1.00867 0.26121,1.85661 -0.46136,3.30729 -0.52861,1.06127 -0.66295,1.74156 -0.67922,3.43959 -0.0302,3.15037 -0.92555,5.51 -1.77024,4.66531 -0.2408,-0.2408 -0.22817,-0.44854 0.0548,-0.9016 0.44155,-0.70693 0.52068,-1.16861 0.75844,-4.42517 0.14796,-2.02659 0.30392,-2.68235 0.80499,-3.38487 0.64917,-0.91018 0.64896,-0.90357 0.14315,-4.48648 -0.1542,-1.09228 -0.18636,-1.124 -1.12314,-1.10771 -0.81221,0.0141 -0.87472,0.0529 -0.39616,0.24604 0.31253,0.1261 0.63874,0.34334 0.7249,0.48276 0.19693,0.31863 -1.96061,0.65996 -2.60605,0.41228 -0.2633,-0.10104 -1.2067,-0.20386 -2.09645,-0.2285 -4.412,-0.12218 -4.39585,-0.12011 -4.39585,-0.56291 0,-0.37872 -0.0677,-0.38433 -0.59531,-0.0494 -0.32742,0.20786 -1.01203,0.37038 -1.52135,0.36116 -0.76442,-0.0139 -0.94139,-0.12518 -1.01398,-0.63789 -0.0799,-0.56453 -0.0152,-0.60515 0.71055,-0.44575 0.54253,0.11916 1.01224,0.0353 1.46536,-0.26158 0.36678,-0.24033 0.78915,-0.36139 0.9386,-0.26903 0.14944,0.0924 0.71826,0.0842 1.26403,-0.0182 l 0.99232,-0.18616 -1.05397,-0.37797 c -0.57967,-0.20789 -1.58974,-0.4011 -2.24458,-0.42937 -0.77856,-0.0336 -1.57798,-0.30065 -2.30985,-0.77161 -1.32105,-0.85011 -1.3208,-0.85008 -2.47815,-0.26485 l -0.90054,0.45537 0.79375,0.17478 c 0.43656,0.0961 1.24023,0.18887 1.78593,0.20609 0.70887,0.0224 0.99219,0.14909 0.99219,0.44379 0,0.22687 0.11906,0.33891 0.26459,0.24897 0.14552,-0.0899 0.26458,0.0353 0.26458,0.27841 0,0.36529 -0.16761,0.41049 -0.96647,0.26063 -1.83903,-0.34501 -3.32904,-0.3724 -3.81308,-0.0701 -0.39799,0.24855 -0.57612,0.19971 -0.98312,-0.26956 -0.46369,-0.53465 -0.52662,-0.54355 -0.93753,-0.13264 -0.35357,0.35356 -1.15859,0.46612 -4.08003,0.57048 -5.78621,0.20669 -7.66166,0.15457 -8.11979,-0.22565 -0.22801,-0.18923 -0.41456,-0.42989 -0.41456,-0.53479 0,-0.10491 1.87523,-0.26609 4.16718,-0.35819 2.29196,-0.0921 4.90939,-0.24658 5.81653,-0.34328 1.5591,-0.1662 1.64092,-0.20937 1.49544,-0.789 -0.1429,-0.56936 -0.0985,-0.59729 0.62107,-0.39092 0.92756,0.26602 1.86399,-0.31091 2.04699,-1.26115 0.0649,-0.33712 0.17899,-0.8118 0.25348,-1.05484 0.0745,-0.24303 0.20544,-2.04923 0.291,-4.01376 0.0856,-1.96453 0.25843,-3.67568 0.38417,-3.80255 0.12574,-0.12687 0.16918,-0.38556 0.0965,-0.57485 -0.0726,-0.1893 0.1067,-0.58295 0.39854,-0.87479 l 0.5306,-0.5306 0.74662,0.64211 c 0.93041,0.80018 1.54854,0.87042 1.15281,0.13099 -0.38368,-0.71692 -0.40435,-0.6844 0.93326,-1.46829 0.66393,-0.3891 1.51705,-1.05525 1.89582,-1.48035 0.80928,-0.90828 2.1887,-1.09528 2.1887,-0.29671 0,0.58784 1.29938,2.63315 1.79322,2.82265 0.19898,0.0764 0.59577,0.0136 0.88177,-0.13946 0.286,-0.15306 0.75362,-0.20414 1.03917,-0.11352 0.39532,0.12547 0.51917,0.0411 0.51917,-0.35391 0,-0.40218 0.46823,-0.84778 0.88153,-0.83893 0.0245,5.2e-4 0.0611,0.83396 0.0814,1.85208 0.0203,1.01813 -0.0392,1.85081 -0.13229,1.85042 -0.0931,-3.9e-4 -0.40731,-0.43884 -0.69835,-0.97433 -0.53174,-0.97836 -1.34313,-1.58233 -1.03021,-0.76686 0.10559,0.27514 0.0148,0.41899 -0.2644,0.41899 -0.30756,0 -0.42518,0.25008 -0.42518,0.90399 0,0.4972 -0.14883,0.95636 -0.33073,1.02037 -0.1819,0.064 0.19068,0.0817 0.82797,0.0394 0.67915,-0.0451 1.67528,0.12664 2.40689,0.41501 1.10927,0.43723 2.15391,0.50724 4.43806,0.29744 0.47617,-0.0437 0.40703,-0.654 -0.15677,-1.38376 -0.39091,-0.50597 -0.4973,-1.1643 -0.53695,-3.32255 -0.0311,-1.69091 0.0566,-2.75708 0.23576,-2.86782 0.17982,-0.11114 0.19414,-0.28979 0.0388,-0.48345 -0.13555,-0.16895 -0.18736,-0.69402 -0.11515,-1.16683 l 0.1313,-0.85965 1.49136,0.0659 c 1.31632,0.0582 1.4915,0.006 1.49249,-0.44159 6.1e-4,-0.27912 0.14944,-0.55693 0.33072,-0.61736 0.22221,-0.0741 0.32961,0.19907 0.32961,0.83822 0,0.52145 -0.112,0.94809 -0.24889,0.94809 -0.13689,0 -0.0781,0.32743 0.13066,0.72761 0.44604,0.85506 0.48497,1.44566 0.11938,1.81125 -0.17486,0.17486 0.0593,0.9104 0.69639,2.18756 0.73537,1.47418 0.8871,1.99686 0.64883,2.23513 -0.23826,0.23827 -0.49392,0.206 -1.09326,-0.13797 l -0.78227,-0.44896 v 0.76899 c 0,0.42295 -0.13597,1.0674 -0.30214,1.43211 -0.24595,0.53981 -0.39356,0.6142 -0.79375,0.40002 -0.38687,-0.20705 -0.49161,-0.16999 -0.49161,0.17392 0,0.43086 0.23904,0.43008 1.85208,-0.006 0.21828,-0.059 0.70207,-0.11642 1.07509,-0.12755 0.52117,-0.0156 0.76236,-0.23468 1.04158,-0.94628 0.37311,-0.95094 0.96326,-1.21707 1.2193,-0.54985 0.0794,0.20691 0.007,0.63238 -0.16031,0.94548 -0.16756,0.3131 -0.3358,1.42788 -0.37385,2.4773 -0.0448,1.23554 -0.22469,2.14535 -0.51039,2.58137 -0.24266,0.37035 -0.3614,0.75315 -0.26388,0.85067 0.0975,0.0975 0.0511,0.17732 -0.10305,0.17732 -0.15421,0 -0.35467,0.19361 -0.44548,0.43025 -0.1522,0.39663 -0.11413,0.39686 0.48699,0.003 1.1497,-0.75331 2.0488,0.0937 0.94442,0.88967 -0.29105,0.20977 -0.52917,0.47418 -0.52917,0.58758 0,0.42384 0.95452,0.18501 1.5902,-0.39787 0.91049,-0.83487 2.63931,-1.86922 2.82084,-1.68769 0.0824,0.0824 0.32387,-0.0241 0.53653,-0.23679 0.33916,-0.33916 0.48862,-0.32949 1.21659,0.0787 0.45646,0.25598 1.38156,1.03096 2.05578,1.72218 1.06697,1.09387 1.36586,1.25677 2.30596,1.25677 1.03565,0 1.50268,-0.42275 1.35815,-1.22937 -0.0223,-0.12421 -0.0264,-0.61279 -0.009,-1.08573 0.0241,-0.66015 0.14913,-0.8599 0.53845,-0.8599 0.27891,0 0.5468,-0.0893 0.59531,-0.19844 0.0485,-0.10914 0.56444,-0.43635 1.14653,-0.72715 0.58208,-0.29079 1.18682,-0.69281 1.34386,-0.89339 0.22529,-0.28775 0.4067,-0.29984 0.85989,-0.0573 0.31591,0.16906 0.57437,0.39255 0.57437,0.49663 0,0.10409 0.48116,0.71563 1.06923,1.35897 0.98902,1.08198 1.20478,1.87275 0.51096,1.87275 -0.15868,0 -0.20241,-0.13929 -0.0972,-0.30954 0.12863,-0.20814 0.0471,-0.2542 -0.24897,-0.1406 -0.28748,0.11032 -0.44028,0.0341 -0.44028,-0.21962 0,-0.21371 -0.17859,-0.38857 -0.39687,-0.38857 -0.21829,0 -0.39688,-0.15213 -0.39688,-0.33807 0,-0.48915 -1.13648,-1.41186 -1.2648,-1.02689 -0.0562,0.16864 -0.21633,0.30663 -0.35581,0.30663 -0.13948,0 -0.5092,0.23812 -0.82159,0.52916 -0.3124,0.29105 -0.72709,0.52917 -0.92153,0.52917 -0.50081,0 -0.95674,1.296 -0.60502,1.71979 0.18942,0.22824 0.19121,0.55543 0.006,1.04338 -0.34345,0.90333 -0.34741,2.08094 -0.008,2.42021 0.17312,0.17312 0.10727,0.48308 -0.19391,0.91281 -0.25082,0.35788 -0.41756,0.87829 -0.37054,1.15648 0.0797,0.47147 0.0557,0.47596 -0.35416,0.0661 -0.608,-0.608 -1.01768,-0.5668 -0.67786,0.0682 0.15144,0.28297 0.1674,0.54656 0.036,0.59531 -0.12965,0.0481 -0.27753,0.6828 -0.32861,1.41041 -0.0904,1.28758 -0.0725,1.32525 0.67216,1.41025 0.42077,0.048 0.85524,-0.0586 0.96548,-0.23699 0.11025,-0.17838 0.39619,-0.24921 0.63543,-0.15741 0.33501,0.12855 0.37376,0.28133 0.16861,0.66466 -0.29274,0.54699 -1.83508,0.90084 -3.00322,0.68901 -0.67029,-0.12154 -0.85985,0.0645 -0.7533,0.73933 0.0172,0.10914 -0.14726,0.19844 -0.36554,0.19844 -0.43738,0 -0.49251,0.65417 -0.42309,5.0208 0.0368,2.31828 -0.005,2.54126 -0.55833,2.95847 -0.329,0.24816 -0.51185,0.53753 -0.40634,0.64304 0.10551,0.10552 2.68776,0.21351 5.73834,0.23999 4.0663,0.0353 5.65571,0.1388 5.95576,0.38782 0.22511,0.18682 0.40928,0.23137 0.40928,0.099 0,-0.13237 0.23813,-0.25862 0.52917,-0.28054 0.29104,-0.0219 0.52916,0.0718 0.52916,0.20828 0,0.13648 0.12609,0.24814 0.2802,0.24814 0.15411,0 0.20919,-0.1149 0.1224,-0.25533 -0.0961,-0.15545 0.49299,-0.2372 1.50574,-0.20897 1.34604,0.0375 1.64283,-0.0274 1.55505,-0.33998 -0.0597,-0.21249 -0.16219,-0.77507 -0.22784,-1.25017 -0.0697,-0.50432 -0.3949,-1.08056 -0.78143,-1.38461 -0.72905,-0.57347 -0.65936,-1.50358 0.0911,-1.21561 0.35051,0.1345 0.39094,0.036 0.23303,-0.56786 -0.10507,-0.40183 -0.2837,-1.44497 -0.39695,-2.3181 -0.28161,-2.17118 0.16013,-2.91573 2.39029,-4.02885 1.96572,-0.98114 4.25076,-1.15951 5.91985,-0.46212 1.10001,0.45961 2.13849,1.89896 1.72744,2.39426 -0.17039,0.20529 -0.16099,0.57141 0.0274,1.06684 0.20161,0.53028 0.2033,0.78211 0.006,0.84798 -0.1546,0.0515 -0.28109,0.21086 -0.28109,0.35406 0,0.14415 0.24817,0.1816 0.55597,0.0839 0.51185,-0.16246 0.54071,-0.10613 0.36364,0.70977 -0.10579,0.48743 -0.30353,0.95717 -0.43942,1.04387 -0.13589,0.0867 -0.27102,0.89945 -0.3003,1.80612 -0.0405,1.25359 -0.16346,1.71018 -0.51343,1.90604 -0.25312,0.14165 -0.46021,0.4277 -0.46021,0.63566 0,0.29746 0.34585,0.3569 1.62123,0.27862 1.52603,-0.0937 2.07056,-0.37673 2.07741,-1.07991 0.007,-0.67219 -0.61913,-2.39273 -0.96104,-2.64274 -0.41541,-0.30375 -0.71532,-2.42707 -0.37272,-2.6388 0.11659,-0.0721 0.12246,-0.62059 0.013,-1.21896 -0.10942,-0.59837 -0.15719,-2.05945 -0.10615,-3.24684 0.12535,-2.91643 0.1172,-3.69458 -0.0404,-3.85214 -0.20992,-0.20991 -2.04232,-0.0287 -2.35787,0.23317 -0.35915,0.29807 -6.93752,0.14685 -7.76817,-0.17857 -0.56955,-0.22313 -0.58336,-0.27156 -0.17427,-0.61107 0.24436,-0.20281 0.85988,-0.34075 1.36781,-0.30654 0.58319,0.0393 0.86104,-0.0389 0.75398,-0.21213 -0.0933,-0.15089 -0.46018,-0.27433 -0.81539,-0.27433 -0.35522,0 -0.64585,-0.12709 -0.64585,-0.28242 0,-0.15608 0.2227,-0.21173 0.49784,-0.1244 0.32261,0.10239 0.55622,0.006 0.66373,-0.27433 0.13207,-0.34416 0.39477,-0.39946 1.28811,-0.27115 0.61721,0.0887 1.73757,0.22926 2.48968,0.31247 l 1.36749,0.15129 0.18479,-1.47902 c 0.19205,-1.53713 0.53383,-2.08814 0.82483,-1.3298 0.0964,0.25108 0.0103,0.54085 -0.20031,0.67417 -0.31117,0.19704 -0.31179,0.23447 -0.004,0.23789 0.26755,0.003 0.32615,0.24559 0.2189,0.90646 -0.17287,1.06529 0.0366,1.39589 0.47487,0.74955 0.39165,-0.57755 0.32539,-3.41599 -0.0894,-3.8308 -0.23461,-0.23461 -0.30825,-0.22564 -0.30825,0.0376 0,0.20439 -0.16856,0.28113 -0.41218,0.18764 -0.2267,-0.087 -0.89997,0.0907 -1.49614,0.39483 -0.97488,0.49734 -1.10779,0.51041 -1.32076,0.12986 -0.26967,-0.48187 -0.77359,-0.57575 -0.67353,-0.12548 0.0364,0.16371 -0.0835,0.3525 -0.26638,0.41952 -0.22118,0.0811 -0.30128,-0.085 -0.23923,-0.49609 0.067,-0.44405 0.30955,-0.65519 0.86169,-0.75025 0.42262,-0.0728 1.00653,-0.27894 1.29757,-0.45818 0.44855,-0.27624 0.46987,-0.36475 0.13994,-0.58094 -0.31925,-0.20919 -0.33746,-0.449 -0.10128,-1.33385 0.15837,-0.59335 0.19363,-1.13711 0.0784,-1.20835 -0.39639,-0.24498 0.12596,-5.55275 0.57368,-5.82946 0.12944,-0.08 0.23535,-0.26198 0.23535,-0.40441 0,-0.26588 -1.90207,-0.13825 -2.38466,0.16 -0.14541,0.0899 -0.72762,0.16979 -1.2938,0.17761 -1.00049,0.0138 -1.02344,0.0351 -0.81633,0.75722 0.1172,0.40867 0.15083,0.80529 0.0747,0.8814 -0.0761,0.0761 -0.16562,0.47202 -0.19892,0.87981 -0.13891,1.70134 -0.49325,3.54096 -0.70755,3.67341 -0.12634,0.0781 -0.22971,0.47824 -0.22971,0.88924 0,0.55186 0.15527,0.78788 0.59375,0.90255 0.56922,0.14885 0.5743,0.17471 0.12293,0.62617 -0.37286,0.37293 -0.93694,0.47567 -2.71127,0.49381 -1.23225,0.0126 -2.30753,0.09 -2.38951,0.17195 -0.082,0.082 -0.21202,0.94486 -0.28899,1.91752 -0.121,1.52913 -0.0672,1.84604 0.39766,2.34159 0.46793,0.49885 0.52336,0.83665 0.42774,2.60683 -0.0604,1.11855 -0.13128,2.13058 -0.15746,2.24896 -0.0262,0.11838 0.0474,0.43373 0.16363,0.70077 0.11619,0.26705 0.0706,1.49081 -0.10127,2.71948 -0.17188,1.22866 -0.24348,2.34563 -0.15911,2.48215 0.25337,0.40995 0.22699,5.30504 -0.03,5.562 -0.131,0.131 -0.39446,0.14159 -0.58548,0.0235 -0.26656,-0.16474 -0.34172,-1.27695 -0.32328,-4.78371 l 0.024,-4.56906 -0.60055,0.17422 c -0.33031,0.0958 -1.22564,0.24604 -1.98962,0.33383 -1.27932,0.147 -1.38906,0.11638 -1.38906,-0.38751 0,-0.48446 -0.13673,-0.53766 -1.19399,-0.46459 -1.22773,0.0849 -1.73139,-0.21154 -1.22314,-0.71978 0.36776,-0.36777 3.03763,-0.30597 3.77248,0.0873 0.41896,0.22423 0.84765,0.21775 1.71812,-0.026 1.06284,-0.29758 1.15765,-0.3938 1.13349,-1.15025 -0.0145,-0.45403 -0.11304,-1.12317 -0.21895,-1.48697 -0.10592,-0.3638 -0.0711,-0.93788 0.0775,-1.27572 0.19839,-0.45124 0.18167,-0.66889 -0.063,-0.8201 -0.91249,-0.56395 -1.08464,-1.76709 -0.7161,-5.00481 0.10387,-0.91251 0.0612,-1.08989 -0.20834,-0.86619 -0.37807,0.31376 -0.96138,-0.0924 -0.96138,-0.66944 0,-0.57747 0.55247,-0.69343 0.91854,-0.1928 0.33535,0.45862 0.40322,0.46095 1.27757,0.044 0.50787,-0.24219 1.17189,-0.37536 1.4756,-0.29594 0.42901,0.11219 0.61531,-0.0245 0.83508,-0.61282 0.15559,-0.41648 0.50758,-0.93583 0.7822,-1.15411 0.43423,-0.34513 0.46756,-0.563 0.2557,-1.67128 -0.134,-0.70092 -0.30334,-1.99132 -0.37631,-2.86756 -0.11465,-1.37652 -0.0486,-1.70691 0.48534,-2.42976 0.33992,-0.46013 0.69143,-1.04496 0.78114,-1.29963 0.0897,-0.25466 0.26941,-0.46302 0.39932,-0.46302 0.12991,0 0.18018,-0.293 0.11172,-0.65112 -0.0685,-0.35812 0.0311,-1.28085 0.22115,-2.05052 0.1901,-0.76967 0.31645,-1.59721 0.2808,-1.83898 -0.0357,-0.24177 0.0547,-0.51347 0.20086,-0.60379 0.14612,-0.0903 0.20324,-0.32694 0.12691,-0.52584 -0.0763,-0.1989 -0.0116,-0.44024 0.14385,-0.53631 0.15544,-0.0961 0.28262,-0.4653 0.28262,-0.82051 0,-0.35521 0.12708,-0.64584 0.28241,-0.64584 0.16201,0 0.21081,-0.22561 0.11446,-0.52917 -0.0946,-0.29805 -0.0446,-0.54361 0.11446,-0.56224 0.15533,-0.0182 0.42132,-0.048 0.5911,-0.0661 0.16977,-0.0182 0.35517,-0.17254 0.41198,-0.34299 0.0629,-0.18863 -0.0875,-0.26001 -0.38426,-0.18241 -0.37663,0.0985 -0.48135,-0.0146 -0.46022,-0.4972 0.015,-0.34358 0.11561,-0.76752 0.22349,-0.94207 0.10788,-0.17455 0.12256,-0.43643 0.0326,-0.58195 -0.0899,-0.14552 -0.0374,-0.26458 0.11668,-0.26458 0.1541,0 0.28019,-0.2311 0.28019,-0.51355 0,-0.28246 0.12485,-0.59071 0.27744,-0.68502 0.18965,-0.11721 0.1794,-0.28957 -0.0324,-0.54478 -0.22661,-0.27305 -0.23152,-0.46768 -0.0183,-0.72464 0.19044,-0.22946 0.21161,-0.63017 0.061,-1.1552 -0.20289,-0.70743 0.0317,-1.73029 0.32023,-1.39623 0.23397,0.27089 0.72058,2.67947 0.5855,2.89804 -0.0791,0.128 -0.0228,0.30751 0.12506,0.39892 0.1479,0.0914 0.2689,0.44979 0.2689,0.79642 0,0.34662 0.11907,0.70381 0.26459,0.79375 0.14552,0.0899 0.26458,0.50665 0.26458,0.92604 0,0.41938 0.11906,0.8361 0.26458,0.92604 0.14552,0.0899 0.26459,0.69227 0.26459,1.33853 0,0.68877 0.12226,1.17501 0.29544,1.17501 0.16518,0 0.23443,0.23331 0.15706,0.52917 -0.0761,0.29104 -0.0305,0.52916 0.10143,0.52916 0.1319,0 0.23982,0.35881 0.23982,0.79734 0,0.43854 0.11906,1.03385 0.26458,1.32292 0.14552,0.28907 0.38365,0.76209 0.52917,1.05115 0.14552,0.28907 0.26458,0.93689 0.26458,1.4396 0,0.50271 0.12944,0.99401 0.28763,1.09178 0.1582,0.0978 0.22888,0.40246 0.15707,0.67707 -0.0718,0.27462 -0.0175,0.49931 0.12079,0.49931 0.13824,0 0.57087,0.29627 0.96139,0.65838 0.65344,0.60591 0.70864,0.81762 0.69249,2.65618 -0.0121,1.38195 0.0672,1.91304 0.25737,1.72286 0.32906,-0.32906 1.49201,-0.36908 1.49201,-0.0513 0,0.29891 -0.80562,0.97595 -1.42354,1.19634 -0.4433,0.1581 -0.48363,0.3936 -0.37017,2.16154 0.07,1.09126 0.18817,2.04495 0.26253,2.1193 0.0744,0.0744 0.65211,0.22344 1.28389,0.33129 l 1.14871,0.1961 -0.0732,1.37902 c -0.11871,2.2366 0.43562,3.22694 0.96164,1.71802 0.15332,-0.43982 0.1603,-0.98258 0.0176,-1.36833 -0.16334,-0.44156 -0.13634,-0.70127 0.0873,-0.83946 0.35497,-0.21939 1.0565,0.54001 0.83297,0.90168 -0.0747,0.12084 0.0847,0.43203 0.3542,0.69153 0.44531,0.42881 0.58645,0.43758 1.54831,0.0962 0.61751,-0.21913 1.47161,-0.3118 2.05052,-0.22246 1.07871,0.16646 1.32911,-0.18338 0.46302,-0.6469 -0.29104,-0.15576 -0.52917,-0.45761 -0.52917,-0.67077 0,-0.52358 -0.59891,-0.48769 -1.64559,0.0986 -0.92164,0.51625 -1.52941,0.48489 -1.52941,-0.0789 0,-0.47604 2.72212,-1.85905 3.25591,-1.65422 0.23815,0.0914 0.86908,0.77315 1.40207,1.51503 0.55281,0.76947 1.11493,1.2929 1.30865,1.21857 0.27098,-0.10399 0.64796,0.33343 0.64796,0.75186 0,0.31221 -1.78477,0.65823 -3.43959,0.66685 -1.0914,0.006 -2.16296,0.0187 -2.38125,0.0289 -0.21828,0.0102 -0.66423,-0.0435 -0.99101,-0.11951 -0.48105,-0.11183 -0.62255,-0.003 -0.74337,0.57407 -0.23887,1.14007 -0.52204,1.4937 -1.20113,1.50002 -0.43582,0.004 -0.60223,0.13099 -0.52805,0.40279 0.0596,0.21828 0.13919,0.69453 0.17694,1.05834 0.0378,0.3638 0.0909,0.72099 0.11816,0.79375 0.0272,0.0728 0.0259,0.47924 -0.003,0.90328 -0.0484,0.71101 -0.0191,0.73762 0.37649,0.34197 0.23597,-0.23596 0.6099,-0.35961 0.83096,-0.27478 0.22106,0.0848 0.54706,-0.0443 0.72445,-0.28685 0.17739,-0.24259 0.61815,-0.58768 0.97948,-0.76687 0.49326,-0.24462 0.67741,-0.57149 0.73907,-1.3119 0.13834,-1.66134 0.68389,-1.32727 1.63019,0.99827 l 0.32299,0.79375 0.91677,-1.05833 c 1.61888,-1.86888 2.96879,-3.75918 3.81273,-5.33906 1.62337,-3.03898 1.98693,-3.61951 2.34062,-3.7374 0.27972,-0.0932 0.31841,0.0964 0.1753,0.85917 -0.10099,0.53836 -0.24943,1.15031 -0.32986,1.35991 -0.096,0.25024 -0.0226,0.32755 0.21395,0.22516 0.59548,-0.25778 1.77909,-2.89115 1.5131,-3.36644 -0.17044,-0.30456 -0.0907,-0.45994 0.29961,-0.58382 1.05084,-0.33353 0.39999,-1.2444 -0.88918,-1.2444 -1.0888,0 -1.2732,-0.46847 -0.40999,-1.04162 0.43359,-0.28789 0.51079,-0.52242 0.36423,-1.10639 -0.11247,-0.4481 -0.31975,-0.68972 -0.52436,-0.61121 -0.1861,0.0714 -0.41366,0.0545 -0.5057,-0.0375 -0.092,-0.092 -0.65337,-0.19232 -1.24741,-0.22285 -0.86788,-0.0446 -1.10605,0.0438 -1.2123,0.45015 -0.0727,0.27811 -0.24211,0.50566 -0.37639,0.50566 -0.13429,0 -0.0906,0.1672 0.097,0.37155 0.18764,0.20435 0.40069,0.36885 0.47345,0.36554 0.59436,-0.027 1.05834,0.093 1.05834,0.27359 0,0.11931 -0.35552,0.61514 -0.79005,1.10184 -0.5034,0.56385 -0.7039,0.98911 -0.55262,1.17213 0.32546,0.39374 0.0513,1.65196 -0.44994,2.06509 -0.36558,0.3013 -0.39303,0.18532 -0.24804,-1.04778 0.14231,-1.21028 0.0958,-1.42258 -0.36608,-1.66976 -0.38757,-0.20742 -0.48075,-0.43557 -0.34832,-0.85282 0.0994,-0.31331 0.25416,-1.16926 0.34382,-1.90212 l 0.16302,-1.33246 h 1.19025 c 0.65464,0 1.34191,-0.0981 1.52727,-0.21795 0.18537,-0.11987 0.84021,-0.26474 1.45521,-0.32193 1.2115,-0.11267 2.22561,-0.25496 3.55523,-0.49883 0.66158,-0.12135 0.9083,-0.046 1.11511,0.3404 0.36373,0.67964 1.45822,0.44204 1.8418,-0.39984 0.16326,-0.35832 0.41539,-0.57821 0.5603,-0.48866 0.36984,0.22857 0.3283,0.85508 -0.0673,1.0147 -0.1819,0.0734 -0.20514,0.14285 -0.0517,0.15434 0.17913,0.0134 0.26097,0.95471 0.22851,2.62815 -0.0565,2.91202 -0.23729,3.77909 -0.74725,3.5834 -0.24554,-0.0942 -0.39285,0.27168 -0.51142,1.27027 -0.0995,0.83817 -0.0618,1.4381 0.0938,1.49081 0.14321,0.0485 0.26038,0.37366 0.26038,0.72256 0,0.44153 0.18523,0.68086 0.60934,0.7873 0.35144,0.0882 0.76272,0.51029 0.97173,0.99723 0.19932,0.46436 0.41126,0.93353 0.471,1.04259 0.0597,0.10907 -0.10966,0.28028 -0.37642,0.38048 -0.26676,0.1002 -0.60409,0.3309 -0.74961,0.51266 -0.14552,0.18177 -0.71107,0.41076 -1.25677,0.50887 -0.80804,0.14527 -0.99219,0.0997 -0.99219,-0.2457 0,-0.23324 0.23813,-0.57279 0.52917,-0.75455 0.29104,-0.18176 0.52917,-0.49661 0.52917,-0.69966 0,-0.28763 -0.27448,-0.33158 -1.24242,-0.1989 -1.16475,0.15964 -1.78192,0.56159 -1.51799,0.98864 0.0633,0.10242 0.33671,0.12828 0.60757,0.0574 0.33927,-0.0887 0.53724,0.0425 0.63642,0.42171 0.0954,0.3649 0.0185,0.5505 -0.22815,0.5505 -0.20465,0 -0.3721,0.22824 -0.3721,0.5072 0,0.41588 0.15483,0.48962 0.8599,0.40952 2.03122,-0.23076 3.37343,-0.69176 3.37343,-1.15864 0,-0.255 0.0796,-0.54327 0.17697,-0.64061 0.2806,-0.28059 1.12567,0.62751 0.96751,1.03968 -0.0785,0.20461 -0.0125,0.37201 0.14681,0.37201 0.38477,0 1.61913,1.97572 1.61913,2.59157 0,0.46437 -1.45508,1.37718 -2.19532,1.37718 -0.17891,0 -0.93347,0.40958 -1.6768,0.91017 -0.78149,0.52628 -1.56116,0.85907 -1.84856,0.78901 -0.37651,-0.0918 -0.71823,0.24005 -1.40931,1.36854 -1.02681,1.67672 -2.83797,3.05612 -3.21394,2.44778 -0.13656,-0.22095 -0.0896,-0.4062 0.12369,-0.48835 0.39456,-0.15193 1.7275,-1.7011 2.21659,-2.57616 0.18191,-0.32545 0.33073,-1.01006 0.33073,-1.52136 0,-1.05252 0.13407,-1.12329 0.88393,-0.46661 0.50518,0.44242 0.52083,0.44145 0.35156,-0.0216 -0.0974,-0.26656 -0.17715,-0.66054 -0.17715,-0.87551 0,-0.21496 -0.10315,-0.3271 -0.22923,-0.24918 -0.12607,0.0779 -0.43491,-0.0856 -0.68631,-0.36342 -0.76262,-0.84267 -1.12561,-0.42704 -0.93368,1.06906 0.0936,0.72929 0.0886,1.37635 -0.011,1.43792 -0.32211,0.19907 -1.25818,-2.05992 -1.86592,-4.50296 -0.3258,-1.30968 -0.73726,-2.728 -0.91435,-3.1518 -0.31696,-0.75852 -0.32676,-0.76166 -0.6269,-0.20083 -0.24206,0.45228 -0.21572,0.74221 0.12774,1.40639 0.23796,0.46016 0.46794,1.08631 0.51107,1.39145 0.0431,0.30514 0.26323,1.14067 0.48912,1.85673 0.40773,1.29253 0.3641,1.89152 -0.11616,1.5947 -0.3305,-0.20425 -1.03604,-1.90932 -1.03604,-2.50376 0,-0.25771 -0.17859,-0.53708 -0.39687,-0.62085 -0.21829,-0.0838 -0.39688,-0.44095 -0.39688,-0.79375 0,-0.3528 -0.17859,-0.70998 -0.39687,-0.79375 -0.23314,-0.0895 -0.39688,-0.004 -0.39688,0.2083 0,0.19832 -0.35719,0.74296 -0.79375,1.2103 -0.43656,0.46734 -0.7964,0.92642 -0.79963,1.02017 -0.003,0.0937 -0.22902,0.46077 -0.50175,0.81559 -0.27272,0.35483 -0.43593,0.80131 -0.36268,0.99219 0.18668,0.48649 1.30951,0.43396 1.50302,-0.0703 0.13771,-0.35887 0.26943,-0.33105 0.93971,0.19843 0.42875,0.33869 0.78614,0.77166 0.79419,0.96215 0.008,0.19049 0.12863,0.27589 0.26796,0.18979 0.28199,-0.17429 1.13756,1.29208 0.89525,1.53439 -0.0843,0.0843 0.0455,0.35195 0.28836,0.59482 0.49324,0.49325 0.46288,1.19961 -0.059,1.37339 -0.20556,0.0685 -0.51055,-0.31551 -0.76483,-0.96286 -0.23262,-0.59219 -0.50219,-1.02774 -0.59905,-0.96788 -0.31293,0.19341 0.0368,2.02916 0.41417,2.17397 0.20106,0.0771 0.36556,0.36566 0.36556,0.64113 0,0.32447 0.18636,0.50086 0.52917,0.50086 0.59771,0 0.67834,0.27416 0.21645,0.73605 -0.24056,0.24056 -0.12146,0.55069 0.51617,1.34415 0.92547,1.15162 1.24383,2.10267 0.88709,2.65005 -0.35494,0.54463 -0.82596,0.10678 -0.82596,-0.7678 0,-0.73626 -0.88154,-1.5816 -1.25739,-1.20576 -0.0846,0.0846 -0.0148,0.15373 0.15496,0.15373 0.16977,0 0.30868,0.18047 0.30868,0.40104 0,0.22057 0.14805,0.87542 0.329,1.45521 0.37454,1.20006 1.11735,1.41186 1.90381,0.54284 0.2545,-0.28123 0.62567,-0.4488 0.82481,-0.37238 0.29787,0.1143 0.2866,0.25411 -0.0636,0.78852 -0.70533,1.07648 -3.22156,1.85569 -3.66667,1.13548 -0.0961,-0.15544 -0.35631,-0.21292 -0.57832,-0.12772 -0.222,0.0852 -0.53738,0.0443 -0.70084,-0.0908 -0.3392,-0.28042 -1.7524,-0.078 -1.7524,0.25096 0,0.11951 -0.20836,0.20915 -0.46302,0.19919 -0.25466,-0.01 -1.03299,0.14238 -1.72962,0.33853 -0.92509,0.26048 -1.38998,0.27959 -1.72416,0.0709 -0.3419,-0.21352 -0.54329,-0.19398 -0.79668,0.0773 -0.24927,0.26685 -0.4737,0.29099 -0.84717,0.0911 -0.27943,-0.14954 -0.83924,-0.2655 -1.24402,-0.25766 -0.40477,0.008 -1.27174,-0.0549 -1.92658,-0.13942 -1.08993,-0.14067 -3.29526,-0.15533 -12.30312,-0.0818 -1.74625,0.0143 -3.3536,0.002 -3.57188,-0.0265 -0.35421,-0.0468 -1.23381,0.0996 -1.5875,0.26425 -0.0728,0.0339 -0.42995,0.0854 -0.79375,0.1144 -0.3638,0.0291 -0.84005,0.11184 -1.05833,0.18398 -0.21828,0.0721 -1.40891,0.0384 -2.64584,-0.075 z m 29.1861,-1.1906 c 0.55736,-0.13309 0.69722,-0.2852 0.55892,-0.60788 -0.10145,-0.23671 -0.30436,-0.90663 -0.4509,-1.48871 -0.14655,-0.58209 -0.41669,-1.40504 -0.60033,-1.82879 -0.18363,-0.42375 -0.28062,-0.90923 -0.21553,-1.07885 0.0651,-0.16962 -0.0286,-0.65635 -0.20811,-1.08163 -0.17955,-0.42528 -0.51575,-1.59616 -0.74711,-2.60197 -0.52709,-2.29147 -0.85193,-2.52596 -2.68651,-1.93929 -1.02288,0.32711 -1.47943,0.36717 -1.73808,0.1525 -0.84795,-0.70373 1.32362,-1.54385 3.9906,-1.54385 0.8001,0 1.51644,-0.0999 1.59187,-0.22191 0.22503,-0.3641 -1.79065,-1.36795 -2.21731,-1.10426 -0.21404,0.13228 -0.56264,0.12976 -0.81612,-0.006 -0.24337,-0.13024 -0.5276,-0.1517 -0.63162,-0.0477 -0.10402,0.10402 -0.32579,0.18913 -0.49281,0.18913 -0.16702,0 -0.30593,0.28182 -0.30868,0.62627 -0.004,0.5585 -0.14735,0.63863 -1.32017,0.74034 -0.72335,0.0627 -1.38916,0.23378 -1.4796,0.38011 -0.0904,0.14632 -0.0554,0.88473 0.0779,1.64091 0.37994,2.15549 0.49355,7.06341 0.1635,7.06341 -0.15476,0 -0.21732,0.16695 -0.13902,0.37101 0.0783,0.20405 0.0736,0.43973 -0.0104,0.52373 -0.084,0.084 -0.17917,0.4889 -0.2115,0.89978 l -0.0588,0.74706 2.05948,-0.0292 c 1.18285,-0.0168 2.22416,-0.16592 2.44636,-0.35033 0.31439,-0.26092 0.41198,-0.22509 0.52086,0.19125 0.0737,0.28178 0.41565,0.56426 0.75992,0.62774 0.63286,0.11669 0.82249,0.0971 2.16308,-0.22295 z m -1.00619,-1.78693 c -0.20244,-0.48452 -0.55225,-1.03379 -0.77733,-1.2206 -0.22509,-0.1868 -0.33699,-0.45657 -0.24866,-0.59948 0.16193,-0.26201 -0.27771,-1.32794 -0.85024,-2.06146 -0.4375,-0.5605 -0.68962,-2.70073 -0.37402,-3.175 0.23268,-0.34967 0.29402,-0.35031 0.51568,-0.005 0.13838,0.21531 0.32841,0.87015 0.4223,1.45521 0.0939,0.58506 0.31953,1.30187 0.50142,1.59291 0.34653,0.5545 1.73511,4.29607 1.73511,4.67531 0,0.55558 -0.59309,0.13112 -0.92426,-0.66148 z m -4.81983,-0.24352 c -0.64038,-0.83833 -0.91604,-2.0002 -0.61015,-2.57176 0.40968,-0.76549 0.92682,-0.54048 0.94509,0.4112 0.008,0.42433 0.16248,1.04185 0.34297,1.37228 0.4854,0.88867 -0.0901,1.55784 -0.67791,0.78828 z m -10.52778,1.56214 2.11666,-0.0671 0.0829,-0.84675 c 0.0896,-0.9149 -0.15835,-1.03739 -1.09026,-0.53864 -0.31664,0.16945 -0.99342,0.34961 -1.50396,0.40034 -0.51055,0.0507 -1.19857,0.23115 -1.52893,0.40093 -0.45115,0.23185 -0.67606,0.23328 -0.90361,0.006 -0.22754,-0.22754 -0.38875,-0.18999 -0.64769,0.15086 -0.55407,0.72936 -0.41962,0.92882 0.49831,0.73926 0.47295,-0.0977 1.8124,-0.20777 2.97657,-0.24466 z m 21.10849,-0.42793 c 0.0747,-0.28569 -0.0118,-0.64195 -0.1922,-0.79168 -0.23994,-0.19914 -0.40657,-0.0999 -0.6205,0.36965 -0.21985,0.48252 -0.21374,0.67389 0.0246,0.77079 0.55342,0.22498 0.64912,0.18263 0.78808,-0.34876 z m -1.66162,-0.16035 c 0,-0.0386 -0.24235,-0.63547 -0.53856,-1.32649 -0.4993,-1.16482 -1.15113,-1.93386 -1.65624,-1.95406 -0.26165,-0.0105 0.0571,1.88386 0.37481,2.22732 0.12787,0.13824 0.23249,0.4577 0.23249,0.70991 0,0.33813 0.20845,0.45262 0.79375,0.43598 0.43656,-0.0124 0.79375,-0.0541 0.79375,-0.0927 z m 1.24999,-2.04833 c -0.0782,-0.48182 -0.4641,-1.52362 -0.85758,-2.3151 -0.39349,-0.79149 -0.7564,-1.73673 -0.80647,-2.10053 -0.30092,-2.18633 -0.7311,-3.43958 -1.18063,-3.43958 -0.28966,0 -0.0874,2.33929 0.23791,2.75177 0.1262,0.16002 0.30766,0.72546 0.40324,1.25654 0.0956,0.53108 0.33678,1.10087 0.53599,1.26619 0.19921,0.16533 0.44157,0.72368 0.53857,1.24078 0.36522,1.94675 1.43313,3.21421 1.12897,1.33993 z m -19.39474,-0.51476 c 1.05094,-1.09679 1.0786,-1.17282 1.05912,-2.91042 -0.011,-0.98131 0.0783,-1.7842 0.19844,-1.7842 0.34819,0 0.25254,-0.73766 -0.11229,-0.866 -0.1819,-0.064 -0.60861,-0.0135 -0.94824,0.11213 -1.20084,0.44432 -1.52093,-0.34408 -0.37468,-0.92283 0.75305,-0.38021 1.3791,-0.30905 1.71575,0.19502 0.29218,0.43749 0.23672,-0.17149 -0.0578,-0.63499 -0.65352,-1.02834 -6.56406,0.10838 -6.42842,1.23633 0.032,0.2659 0.12048,1.66735 0.19668,3.11431 0.0762,1.44697 0.24736,2.73967 0.38037,2.87268 0.27682,0.27682 1.7057,0.64713 2.65131,0.6871 0.42991,0.0182 0.99567,-0.34341 1.71979,-1.09913 z m 2.53433,-3.90087 c 0,-0.14552 -0.11906,-0.26458 -0.26458,-0.26458 -0.14552,0 -0.26458,0.11906 -0.26458,0.26458 0,0.14552 0.11906,0.26458 0.26458,0.26458 0.14552,0 0.26458,-0.11906 0.26458,-0.26458 z m 13.04121,-1.18118 c -0.17726,-1.5787 -0.48183,-2.2584 -1.01197,-2.2584 -0.28211,0 -0.38757,0.31929 -0.38757,1.1734 0,1.58229 0.34926,2.41737 1.01105,2.41737 0.48963,0 0.52462,-0.11998 0.38849,-1.33237 z m -38.26046,-1.51426 c -0.0845,-0.21107 -0.14716,-0.14837 -0.15986,0.15985 -0.0115,0.27891 0.0511,0.43518 0.13897,0.34727 0.0879,-0.0879 0.0973,-0.31613 0.0209,-0.50712 z m 51.18926,-2.10177 c 0.38627,-0.27195 0.7782,-0.49446 0.87096,-0.49446 0.37221,0 1.16509,-0.95648 0.99259,-1.1974 -0.32637,-0.4558 -0.83875,-0.41434 -0.65928,0.0534 0.10769,0.28063 0.0635,0.37266 -0.12353,0.25709 -0.1602,-0.099 -0.36068,-0.0677 -0.44552,0.0696 -0.0848,0.13728 -0.59909,0.39287 -1.14277,0.56797 -1.27025,0.40911 -1.65453,0.72338 -1.4706,1.20267 0.17446,0.45466 0.92941,0.27955 1.97815,-0.45881 z m -50.68352,-0.68354 c 0.3349,-3.8184 0.3339,-4.57342 -0.006,-4.57342 -0.45858,0 -0.79311,2.47013 -0.42714,3.15395 0.17285,0.32298 0.17813,0.53935 0.0145,0.59502 -0.14534,0.0494 -0.18631,0.5224 -0.0942,1.08783 0.19565,1.20159 0.39332,1.10008 0.5129,-0.26338 z m 1.69476,-0.0755 c 0,-0.14552 -0.11906,-0.26458 -0.26458,-0.26458 -0.14552,0 -0.26458,0.11906 -0.26458,0.26458 0,0.14552 0.11906,0.26458 0.26458,0.26458 0.14552,0 0.26458,-0.11906 0.26458,-0.26458 z m 49.85479,-1.69666 c 0.48376,-0.16587 0.48639,-0.19819 0.0512,-0.62817 -0.4333,-0.42807 -0.47382,-0.42688 -0.72807,0.0213 -0.18486,0.32586 -0.4393,0.42065 -0.81181,0.30242 -0.32124,-0.10196 -0.62673,-0.036 -0.74891,0.16167 -0.11349,0.18364 -0.57829,0.32331 -1.03288,0.31038 -0.63473,-0.0181 -0.80943,0.0799 -0.75281,0.42204 0.12217,0.73824 0.78261,0.79025 2.18367,0.17197 0.73131,-0.32272 1.55914,-0.66545 1.83964,-0.76163 z m -14.18895,0.84999 c 0.17462,-0.17462 0.31485,-0.56157 0.31161,-0.85989 -0.005,-0.50721 -0.0394,-0.49948 -0.52328,0.11906 -0.28457,0.3638 -0.52005,0.75076 -0.52328,0.8599 -0.009,0.30046 0.37812,0.23776 0.73495,-0.11907 z m 8.9649,-0.26127 c -0.0845,-0.21107 -0.14715,-0.14837 -0.15985,0.15985 -0.0115,0.27891 0.0511,0.43518 0.13897,0.34727 0.0879,-0.0879 0.0973,-0.31613 0.0209,-0.50712 z m -1.653,-1.73633 c -0.0877,-0.40018 -0.22555,-0.9062 -0.30636,-1.12448 -0.48334,-1.30556 -0.69392,-4.01339 -0.32963,-4.23853 0.17818,-0.11013 0.23516,-0.34391 0.12663,-0.51952 -0.13536,-0.21901 -0.35151,-0.0843 -0.68825,0.42907 -0.49568,0.75562 -0.49087,1.51946 0.018,2.85787 0.14068,0.37002 0.18685,0.85239 0.1026,1.07194 -0.0842,0.21954 -0.0268,0.39917 0.12773,0.39917 0.15449,0 0.35908,0.41672 0.45463,0.92604 0.0955,0.50932 0.2818,0.92604 0.4139,0.92604 0.1321,0 0.16843,-0.32742 0.0807,-0.7276 z M 103.448,156.18414 c 0.006,-0.87527 -0.20027,-0.59881 -0.38352,0.51516 -0.10915,0.66353 -0.0775,0.80799 0.11423,0.52113 0.14588,-0.21828 0.26706,-0.68461 0.26929,-1.03629 z m 36.64885,1.03629 c 0.0899,-0.14552 0.0445,-0.26459 -0.10107,-0.26459 -0.14552,0 -0.33816,0.11907 -0.4281,0.26459 -0.0899,0.14552 -0.0445,0.26458 0.10106,0.26458 0.14552,0 0.33817,-0.11906 0.42811,-0.26458 z m -19.05,-0.26459 c 0.0899,-0.14552 -0.0291,-0.26458 -0.26459,-0.26458 -0.23546,0 -0.35452,0.11906 -0.26458,0.26458 0.0899,0.14552 0.209,0.26459 0.26458,0.26459 0.0556,0 0.17465,-0.11907 0.26459,-0.26459 z m 2.94991,-0.0836 c 0.17735,-0.17735 -0.31797,-0.29319 -0.82514,-0.19298 -0.14106,0.0279 -0.58755,0.0601 -0.99219,0.0716 -0.40464,0.0115 -0.73571,0.10674 -0.73571,0.21162 0,0.2382 2.30611,0.15669 2.55304,-0.0902 z m -19.30563,-0.49518 c -0.0845,-0.21107 -0.14716,-0.14837 -0.15985,0.15985 -0.0115,0.27891 0.051,0.43518 0.13896,0.34727 0.0879,-0.0879 0.0973,-0.31613 0.0209,-0.50712 z m -24.78699,-0.21498 c 0,-0.14552 -0.12609,-0.26458 -0.2802,-0.26458 -0.15411,0 -0.20661,0.11906 -0.11668,0.26458 0.0899,0.14552 0.21603,0.26459 0.2802,0.26459 0.0642,0 0.11668,-0.11907 0.11668,-0.26459 z m 61.72198,-0.62087 c 0.84911,-0.84911 1.77802,-2.44628 1.77802,-3.05713 0,-0.46665 -0.53176,-0.3346 -0.69376,0.17227 -0.28833,0.90218 -0.76767,1.79273 -1.2461,2.31511 -0.55308,0.60389 -1.05409,1.45521 -0.8564,1.45521 0.073,0 0.53124,-0.39846 1.01824,-0.88546 z M 128.444,155.12184 c 0.0838,-0.13558 0.0724,-0.92712 -0.0254,-1.75899 -0.15946,-1.35674 -0.21472,-1.46196 -0.53662,-1.02173 -0.28578,0.39084 -0.34156,1.97603 -0.10418,2.96107 0.0413,0.17122 0.53084,0.0387 0.66622,-0.18035 z m -43.3393,-0.69113 c 0.19563,-0.26754 0.35845,-0.67204 0.36182,-0.89888 0.003,-0.22685 0.0331,-1.78824 0.0661,-3.46975 l 0.06,-3.05729 -1.24583,-0.58073 c -0.80608,-0.37575 -1.7577,-0.58073 -2.69601,-0.58073 h -1.45017 l -0.0821,0.99219 c -0.0682,0.82466 -0.18153,0.99219 -0.67085,0.99219 -0.78127,0 -1.45728,0.9852 -1.24805,1.81886 0.11384,0.45356 -0.1031,1.15398 -0.71993,2.3244 -0.48558,0.92137 -0.9986,1.75864 -1.14004,1.8606 -0.15014,0.10823 -0.0951,0.23424 0.13229,0.30279 0.2142,0.0646 0.86571,0.28806 1.44779,0.49663 0.71293,0.25544 2.00007,0.36402 3.9438,0.33267 2.46238,-0.0397 2.93761,-0.11785 3.24114,-0.53295 z m -2.37834,-1.35543 c -0.097,-0.097 -0.17639,-0.29942 -0.17639,-0.44979 0,-0.16579 0.12324,-0.15017 0.31309,0.0397 0.1722,0.1722 0.25158,0.37461 0.17639,0.4498 -0.0752,0.0752 -0.21608,0.0573 -0.31309,-0.0397 z m -0.30868,-1.14653 c -0.0899,-0.14552 0.0449,-0.26458 0.29954,-0.26458 0.41808,0 0.41317,-0.0377 -0.0505,-0.38846 -0.28248,-0.21366 -0.38128,-0.39225 -0.21955,-0.39688 0.16994,-0.005 0.24067,-0.28758 0.16759,-0.66987 -0.0953,-0.49862 -0.0142,-0.66146 0.32958,-0.66146 0.28753,0 0.40218,0.14032 0.31029,0.37978 -0.0802,0.20888 -0.0481,0.41724 0.0712,0.46302 0.11932,0.0458 0.15865,0.47019 0.0874,0.94314 -0.12471,0.82769 -0.65568,1.14521 -0.99554,0.59531 z m 47.95966,2.18764 c 0.002,-0.40284 -0.0919,-0.85149 -0.20901,-0.99701 -0.11712,-0.14553 -0.21414,-0.38067 -0.2156,-0.52256 -0.001,-0.14188 -0.13065,-0.30063 -0.28708,-0.35277 -0.39039,-0.13013 -0.37021,2.13892 0.0225,2.53164 0.4336,0.4336 0.6846,0.19349 0.68918,-0.6593 z m -43.53119,-0.13712 c 0.32721,-0.62838 0.44459,-1.50101 0.43596,-3.24114 -0.006,-1.30969 0.0742,-2.77871 0.17931,-3.2645 0.1782,-0.82351 0.14831,-0.87677 -0.44193,-0.78747 -0.34818,0.0527 -0.60572,0.23451 -0.5723,0.40406 0.27982,1.41983 0.22906,5.86917 -0.0769,6.73623 -0.43616,1.23622 -0.13816,1.33192 0.47582,0.15282 z m 4.69966,0.632 c 0,-0.12534 0.31715,-0.16726 0.70477,-0.0932 0.59681,0.11408 0.67651,0.061 0.52021,-0.34627 -0.10873,-0.28335 -0.0481,-0.56531 0.14745,-0.6862 0.6449,-0.39856 0.0472,-0.47128 -1.09699,-0.13345 -0.6816,0.20126 -1.03131,0.42083 -0.84935,0.53329 0.44957,0.27785 0.37898,0.6321 -0.1537,0.7713 -0.34843,0.0911 -0.31569,0.1286 0.13229,0.15169 0.32742,0.0169 0.59532,-0.0719 0.59532,-0.1972 z m -15.61042,-0.68253 c 0,-0.20969 -0.12034,-0.45563 -0.26742,-0.54654 -0.16927,-0.10461 -0.12072,-0.37472 0.13229,-0.73594 0.49617,-0.70838 0.5059,-0.98209 0.0349,-0.98209 -0.7354,0 -1.33417,-3.07195 -0.86382,-4.43177 0.2331,-0.6739 0.96401,-0.81252 0.96401,-0.18283 0,0.22687 0.11906,0.33891 0.26458,0.24897 0.14552,-0.0899 0.26459,-0.69227 0.26459,-1.33853 0,-0.98192 0.0834,-1.17501 0.50752,-1.17501 0.86022,0 1.29149,-0.27809 1.16736,-0.75274 -0.0778,-0.29747 -0.36278,-0.4433 -0.82662,-0.423 -0.63696,0.0279 -1.37743,-0.39666 -1.37743,-0.78974 0,-0.0831 0.53578,-0.15119 1.19062,-0.15119 0.88195,0 1.19063,-0.10289 1.19063,-0.39687 0,-0.21828 -0.11906,-0.39688 -0.26458,-0.39688 -0.14553,0 -0.26459,-0.1521 -0.26459,-0.338 0,-0.1859 -0.17491,-0.58773 -0.3887,-0.89295 -0.38511,-0.54982 -0.39903,-0.5454 -1.50796,0.47836 -0.6156,0.56832 -1.27031,0.97534 -1.45491,0.9045 -0.18461,-0.0708 -0.39817,-0.0276 -0.47458,0.096 -0.0764,0.12364 0.15369,0.29825 0.51135,0.38801 0.69108,0.17345 0.67407,0.95157 -0.0208,0.95157 -0.20271,0 -0.37796,0.20836 -0.38945,0.46302 -0.0123,0.27308 -0.0754,0.32822 -0.15364,0.13441 -0.0966,-0.23915 -0.27118,-0.25453 -0.64125,-0.0565 -0.39658,0.21224 -0.63581,0.15354 -1.08688,-0.2667 -0.31811,-0.29636 -0.66626,-0.53884 -0.77367,-0.53884 -0.10741,0 -0.24302,-0.20836 -0.30137,-0.46302 -0.15329,-0.66913 0.01,3.25491 0.20303,4.88029 0.44858,3.77623 0.42267,4.13591 -0.34486,4.78703 l -0.71693,0.6082 1.13881,-0.16943 c 0.94469,-0.14054 1.30835,-0.0572 2.13346,0.48881 0.86819,0.57454 1.47715,0.83537 2.21783,0.94993 0.10914,0.0169 0.19844,-0.14088 0.19844,-0.35057 z m 12.94667,-0.5232 c 0.38868,-0.46833 0.62048,-6.94769 0.23475,-6.56196 -0.43925,0.43925 -0.73113,2.21591 -0.71347,4.34283 0.009,1.11968 -0.0608,2.16148 -0.15572,2.3151 -0.25814,0.41768 0.27509,0.33702 0.63444,-0.096 z m 60.21912,-0.008 c 0.50465,-0.21086 0.91754,-0.49577 0.91754,-0.63315 0,-0.35349 -0.68404,-0.57305 -0.95995,-0.30812 -0.12687,0.12183 -0.52711,0.26135 -0.88943,0.31005 -0.37064,0.0498 -0.69735,0.29106 -0.747,0.55157 -0.10894,0.57157 0.43925,0.59758 1.67884,0.0797 z M 90.75206,151.0389 c 0,-0.7805 0.11963,-2.04993 0.26585,-2.82095 0.24695,-1.30213 0.19482,-1.86507 -0.14156,-1.52869 -0.34385,0.34385 -0.94318,5.04466 -0.71019,5.5703 0.28197,0.63614 0.5859,0.003 0.5859,-1.22066 z m 34.24501,0.39074 c 0.0797,-0.12903 -0.0323,-0.38173 -0.24897,-0.56156 -0.32785,-0.27209 -0.39396,-0.23272 -0.39396,0.2346 0,0.56763 0.37601,0.75885 0.64293,0.32696 z m 23.66566,0.0692 c 0.64753,-0.1295 0.82682,-0.30162 0.82682,-0.79375 0,-0.65401 -0.36778,-0.83897 -0.67614,-0.34004 -0.10453,0.16914 -0.52899,0.22254 -1.02672,0.12916 -1.02717,-0.19269 -1.27983,0.003 -0.86375,0.66936 0.3422,0.54795 0.5124,0.58075 1.73979,0.33527 z m -21.8132,-1.62811 c -0.1769,-1.40128 -0.3982,-1.999 -0.64383,-1.73889 -0.26142,0.27683 0.28402,3.02274 0.56583,2.84857 0.11126,-0.0688 0.14636,-0.56812 0.078,-1.10968 z m -49.85581,0.19036 c 0,-0.28245 -0.10914,-0.51355 -0.24253,-0.51355 -0.1334,0 -0.36212,-0.32742 -0.50828,-0.7276 l -0.26574,-0.72764 -0.0209,0.72761 c -0.0115,0.40018 0.0982,0.7276 0.24369,0.7276 0.14552,0 0.26459,0.30468 0.26459,0.67707 0,0.38401 0.11452,0.6063 0.26458,0.51356 0.14552,-0.0899 0.26458,-0.39462 0.26458,-0.67708 z m 15.44982,-0.4029 c 0.24742,-0.64476 0.1904,-1.6485 -0.10398,-1.83044 -0.14553,-0.0899 -0.26459,0.0184 -0.26459,0.24066 0,0.25058 -0.15083,0.34631 -0.39687,0.25189 -0.24929,-0.0957 -0.39688,0.003 -0.39688,0.26459 0,0.28674 0.14454,0.36271 0.46302,0.24335 0.40103,-0.15029 0.41569,-0.11531 0.10952,0.2613 -0.34646,0.42615 -0.22796,0.98717 0.20852,0.98717 0.12136,0 0.29293,-0.18833 0.38126,-0.41852 z m 25.47124,-0.44138 c -0.0734,-0.1819 -0.13345,-0.0331 -0.13345,0.33073 0,0.3638 0.0601,0.51263 0.13345,0.33073 0.0734,-0.1819 0.0734,-0.47956 0,-0.66146 z m 29.72269,-0.36159 c 0,-0.21403 -0.27467,-0.36601 -0.66146,-0.36601 -0.60253,0 -0.88989,0.47712 -0.51384,0.85316 0.26526,0.26526 1.1753,-0.11194 1.1753,-0.48715 z m 1.5875,-0.87956 c 0,-0.13694 -0.11906,-0.32256 -0.26458,-0.41249 -0.14552,-0.0899 -0.26459,0.0221 -0.26459,0.24896 0,0.22687 0.11907,0.41249 0.26459,0.41249 0.14552,0 0.26458,-0.11203 0.26458,-0.24896 z m -1.05833,-0.89756 c 0,-0.37238 -0.15749,-0.61737 -0.39688,-0.61737 -0.39853,0 -0.5503,0.72852 -0.22048,1.05834 0.35223,0.35223 0.61736,0.16286 0.61736,-0.44097 z m -23.12348,-1.16307 c -0.26896,-0.26895 -0.49087,0.13597 -0.2702,0.49302 0.1667,0.26972 0.22902,0.26993 0.31864,0.001 0.0613,-0.18383 0.0395,-0.40617 -0.0484,-0.49409 z m -47.38798,-0.33624 c 0.0899,-0.14552 -0.0221,-0.26458 -0.24897,-0.26458 -0.22687,0 -0.41249,0.11906 -0.41249,0.26458 0,0.14552 0.11204,0.26458 0.24897,0.26458 0.13693,0 0.32255,-0.11906 0.41249,-0.26458 z m 68.79204,-0.44213 c 0.31244,-0.4273 0.24433,-1.4121 -0.0974,-1.40789 -0.26313,0.003 -0.83035,1.36925 -0.67378,1.6226 0.2076,0.3359 0.40969,0.27963 0.77116,-0.21471 z m -67.02898,-0.88079 c 0.0539,-0.40025 -0.0416,-0.66145 -0.24171,-0.66145 -0.1819,0 -0.33072,0.0893 -0.33072,0.19843 0,0.10914 0,0.51991 0,0.91282 0,0.86376 0.44244,0.51611 0.57243,-0.4498 z m 68.84622,0.46302 c 0.24537,-0.91561 0.1983,-1.25677 -0.17342,-1.25677 -0.1871,0 -0.34848,0.20836 -0.35863,0.46302 -0.0101,0.25467 -0.10793,0.67138 -0.21729,0.92605 -0.13863,0.3228 -0.0794,0.46302 0.19548,0.46302 0.21687,0 0.46611,-0.26789 0.55386,-0.59532 z M 119.158,143.35234 c 0.0926,-0.78798 0.24559,-1.65118 0.33995,-1.91823 0.13831,-0.39141 0.10412,-0.42307 -0.17637,-0.1633 -0.52036,0.48191 -1.00088,2.07938 -0.855,2.84247 0.21022,1.09971 0.51174,0.76788 0.69142,-0.76094 z m -30.39032,0.63895 c 0.0899,-0.14552 -0.0221,-0.26458 -0.24897,-0.26458 -0.22687,0 -0.41249,0.11906 -0.41249,0.26458 0,0.14552 0.11204,0.26458 0.24897,0.26458 0.13693,0 0.32255,-0.11906 0.41249,-0.26458 z m 61.64791,-0.26458 c 0.0899,-0.14552 -0.0221,-0.26459 -0.24896,-0.26459 -0.22687,0 -0.41249,0.11907 -0.41249,0.26459 0,0.14552 0.11203,0.26458 0.24897,0.26458 0.13693,0 0.32255,-0.11906 0.41248,-0.26458 z m -60.6041,-4.29094 c 0.10311,-0.91132 0.31196,-1.80696 0.46412,-1.9903 0.19957,-0.24046 0.17548,-0.33435 -0.0865,-0.33696 -0.19972,-0.002 -0.6511,-0.0807 -1.00307,-0.17482 -0.55578,-0.14869 -0.61077,-0.10473 -0.41817,0.33434 0.12198,0.27805 0.24077,0.92227 0.26399,1.43159 0.0232,0.50933 0.0626,1.32003 0.0874,1.80156 0.0717,1.38846 0.48682,0.7495 0.69215,-1.06541 z m 33.7489,1.25602 c 0.95495,-0.0137 0.98594,-0.0671 1.0774,-1.85987 0.007,-0.14553 -0.12309,-0.74084 -0.29003,-1.32292 -0.16694,-0.58208 -0.38263,-1.53458 -0.47931,-2.11667 -0.0967,-0.58208 -0.3246,-1.07321 -0.5065,-1.0914 -0.1819,-0.0182 -0.43654,-0.048 -0.56587,-0.0661 -0.12932,-0.0182 -0.31115,-0.4383 -0.40407,-0.93357 -0.14717,-0.78451 -0.56187,-1.21617 -1.16837,-1.21617 -0.0972,0 -0.18346,0.44648 -0.1916,0.99219 -0.0186,1.24344 -0.21702,2.37054 -0.46026,2.61378 -0.10252,0.10251 -0.18768,0.49397 -0.18926,0.8699 -0.002,0.37593 -0.18017,1.26797 -0.39687,1.98233 -0.50191,1.65449 -0.49643,1.74388 0.10685,1.74388 0.27547,0 0.57303,0.18808 0.66124,0.41795 0.12534,0.32663 0.3483,0.37229 1.02049,0.20896 0.47306,-0.11494 1.27683,-0.21495 1.78616,-0.22224 z m -2.01883,-1.92602 c 0.0857,-0.5457 0.2108,-1.61739 0.27809,-2.38153 0.15428,-1.75188 0.3,-1.99962 0.96641,-1.64297 0.39459,0.21117 0.45685,0.38781 0.26384,0.74845 -0.13895,0.25963 -0.31825,1.01865 -0.39844,1.68673 -0.18361,1.52961 -0.57705,2.58151 -0.96555,2.58151 -0.19806,0 -0.24713,-0.33733 -0.14435,-0.99219 z m 2.32422,-6.12069 c 0.22281,-0.60347 0.20765,-0.61388 -0.35251,-0.24194 -0.75196,0.49928 -0.96117,1.08564 -0.34394,0.96394 0.25499,-0.0503 0.5684,-0.37518 0.69645,-0.722 z m -0.56998,-0.56004 c 0,-0.14552 -0.10932,-0.26458 -0.24294,-0.26458 -0.13362,0 -0.43127,-0.0723 -0.66146,-0.1606 -0.23018,-0.0883 -0.41851,-0.0375 -0.41851,0.11289 0,0.23642 0.41033,0.43573 1.12448,0.54618 0.10914,0.0169 0.19843,-0.0884 0.19843,-0.23389 z m -0.26458,-1.05833 c 0,-0.14552 -0.11906,-0.26459 -0.26458,-0.26459 -0.14552,0 -0.26459,0.11907 -0.26459,0.26459 0,0.14552 0.11907,0.26458 0.26459,0.26458 0.14552,0 0.26458,-0.11906 0.26458,-0.26458 z m -0.52917,-2.14907 c 0,-0.46916 -0.0653,-0.50737 -0.39687,-0.23218 -0.21828,0.18115 -0.39688,0.43386 -0.39688,0.56156 0,0.1277 0.1786,0.23219 0.39688,0.23219 0.22812,0 0.39687,-0.23879 0.39687,-0.56157 z m -29.27489,41.96411 c -0.15349,-0.39999 0.29586,-1.81326 0.77664,-2.44265 0.13895,-0.1819 0.4616,-0.33073 0.71701,-0.33073 0.2554,0 0.61259,-0.17859 0.79375,-0.39687 0.50004,-0.60252 1.30429,-0.5151 1.13726,0.12362 -0.0749,0.28628 -0.29539,0.65269 -0.49006,0.81425 -0.24885,0.20653 -0.2839,0.47796 -0.11804,0.91421 0.33001,0.86798 -0.37931,1.49671 -0.89417,0.79259 -0.40883,-0.5591 -0.95791,-0.322 -0.95791,0.41365 0,0.60695 -0.7415,0.693 -0.96448,0.11193 z m 12.61085,-1.97084 c -0.43945,-0.82112 -0.20659,-2.02058 0.51351,-2.64512 0.74721,-0.64806 1.26981,-0.34941 0.82921,0.47387 -0.159,0.29709 -0.28909,0.89061 -0.28909,1.31892 0,1.07478 -0.65222,1.60238 -1.05363,0.85233 z m 4.58842,-0.52494 c -0.12878,-0.64391 -0.26846,-0.78744 -0.64881,-0.66672 -0.4186,0.13286 -0.47417,0.02 -0.40743,-0.82735 0.0832,-1.05655 0.98236,-2.04417 1.72998,-1.9002 0.61469,0.11838 0.5305,4.00177 -0.0895,4.12877 -0.28784,0.059 -0.4718,-0.17232 -0.58423,-0.7345 z m -12.56196,-1.79895 c -0.0172,-0.10914 -10e-4,-0.3175 0.0355,-0.46302 0.17791,-0.70472 0.29901,-3.86703 0.26851,-7.01146 -0.0182,-1.87331 0.2102,-2.91042 0.64087,-2.91042 0.22327,0 0.36386,0.43704 0.40429,1.25677 0.15164,3.07432 -0.20407,8.51799 -0.58782,8.99584 -0.2946,0.36684 -0.7128,0.43951 -0.76131,0.13229 z m 47.32055,-2.16192 c -0.15253,-0.58328 -0.007,-0.81464 0.51217,-0.81464 0.46081,0 0.45344,0.64541 -0.0118,1.03151 -0.28594,0.23731 -0.39385,0.19054 -0.50039,-0.21687 z m -49.54469,-1.35435 c -0.26919,-0.43557 0.40556,-3.89522 0.8281,-4.2459 0.21001,-0.17428 0.46198,-0.23674 0.55993,-0.13878 0.27962,0.27962 0.15633,2.03717 -0.16548,2.35898 -0.1595,0.15949 -0.28999,0.5541 -0.28999,0.87689 0,1.16667 -0.52319,1.81118 -0.93256,1.14881 z m -3.2743,-1.555 c -0.30562,-0.1935 -0.27091,-0.36098 0.19844,-0.95767 0.31286,-0.39773 0.56884,-0.88569 0.56884,-1.08435 0,-0.19865 0.23812,-0.36119 0.52916,-0.36119 0.60715,0 0.67938,0.54847 0.2387,1.8126 -0.29238,0.83873 -0.82165,1.04236 -1.53514,0.59061 z m -2.13383,-0.79832 c -0.32441,-0.60616 -0.36313,-1.60489 -0.0622,-1.60489 0.43945,0 0.84667,0.66174 0.84667,1.37583 0,0.85693 -0.38781,0.97018 -0.78444,0.22906 z m 19.23664,-3.5845 c -0.40775,-0.56065 -0.42556,-0.78939 -0.14356,-1.84377 0.40513,-1.51471 1.11694,-1.6359 1.6809,-0.28616 0.50911,1.21848 0.48337,1.82037 -0.10048,2.34874 -0.64154,0.58059 -0.88212,0.54395 -1.43686,-0.21881 z m 6.41863,-1.29684 c 0,-0.46634 1.34487,-0.73665 1.79846,-0.36147 0.28128,0.23266 0.28128,0.32323 0,0.50166 -0.56783,0.3602 -1.79846,0.26428 -1.79846,-0.14019 z m -1.05833,-2.2798 c 0,-0.14552 0.11906,-0.26458 0.26458,-0.26458 0.14552,0 0.26458,0.11906 0.26458,0.26458 0,0.14552 -0.11906,0.26458 -0.26458,0.26458 -0.14552,0 -0.26458,-0.11906 -0.26458,-0.26458 z m 24.45111,-3.04044 c -0.23755,-0.36255 -0.53817,-0.59351 -0.66805,-0.51324 -0.12988,0.0803 -0.36326,-0.18843 -0.51864,-0.5971 -0.15538,-0.40867 -0.43873,-0.92185 -0.62967,-1.1404 -0.19094,-0.21855 -0.43682,-0.69502 -0.54641,-1.05882 -0.10959,-0.3638 -0.31544,-0.73616 -0.45746,-0.82747 -0.35054,-0.22536 -1.25797,0.0325 -1.25797,0.35747 0,0.14412 -0.17478,0.19496 -0.3884,0.11299 -0.21362,-0.082 -0.46618,-0.0232 -0.56125,0.13064 -0.23522,0.38059 -1.67187,0.0658 -2.30191,-0.50438 -0.27949,-0.25293 -0.55519,-0.43011 -0.61267,-0.39373 -0.26285,0.16636 -0.64987,0.0418 -0.5205,-0.16751 0.0794,-0.12852 0.81293,-0.31719 1.63002,-0.41928 1.61883,-0.20226 2.52013,-0.34212 3.56454,-0.55314 0.54847,-0.11081 0.7436,0.004 1.02441,0.60074 1.10388,2.34728 2.59706,4.54666 3.09839,4.56377 0.34979,0.0119 0.66294,0.67655 0.429,0.91049 -0.33762,0.33763 -0.87013,0.12975 -1.28343,-0.50103 z m -37.94486,0.0308 c 0,-0.20009 -0.0739,-0.73335 -0.16425,-1.18502 -0.14268,-0.71341 -0.0732,-0.85584 0.52917,-1.08486 0.58466,-0.22228 0.69341,-0.42556 0.69341,-1.29612 0,-1.00636 0.5314,-1.81982 0.99973,-1.53037 0.28432,0.17572 0.15662,1.99292 -0.20731,2.95014 -0.18871,0.49634 -0.39851,0.66266 -0.69324,0.54957 -0.33786,-0.12965 -0.39042,-0.0338 -0.26203,0.47769 0.0883,0.35193 0.23337,0.82952 0.32232,1.06132 0.12246,0.31913 -0.006,0.42146 -0.52804,0.42146 -0.40886,0 -0.68976,-0.14816 -0.68976,-0.36381 z m -6.34721,-1.35262 c -0.18844,-0.22705 -0.24262,-0.59078 -0.12809,-0.85989 0.22476,-0.52812 0.22065,-4.3059 -0.009,-7.91808 -0.10251,-1.61509 -0.0581,-2.48381 0.13307,-2.60195 0.15782,-0.0975 0.22191,-0.38229 0.14241,-0.63277 -0.28843,-0.90877 1.64397,-2.12424 2.31322,-1.45499 0.0889,0.0889 1.09105,0.21061 2.22691,0.27035 1.13585,0.0597 2.24378,0.12241 2.46206,0.13924 0.21828,0.0168 0.78383,-0.047 1.25677,-0.14184 0.60424,-0.12117 0.86488,-0.073 0.87667,0.16206 0.009,0.18398 0.12728,0.059 0.26234,-0.27781 0.13507,-0.33677 0.36564,-0.5381 0.5124,-0.4474 0.14675,0.0907 0.26682,0.05 0.26682,-0.0905 0,-0.14049 0.21866,-0.19825 0.48592,-0.12836 0.3193,0.0835 0.63894,-0.10645 0.93215,-0.55394 0.24541,-0.37455 0.56253,-0.68101 0.70469,-0.68101 0.3479,0 0.33068,0.98249 -0.021,1.19986 -0.27515,0.17005 -0.0935,4.47648 0.21017,4.98129 0.0754,0.12541 -0.0269,0.33194 -0.22748,0.45897 -0.53321,0.33772 -0.76151,0.29041 -0.76151,-0.15782 0,-0.21829 -0.12313,-0.39688 -0.27363,-0.39688 -0.1505,0 -0.23045,0.32742 -0.17766,0.7276 0.0813,0.61609 0.23648,0.73969 1.01265,0.80646 0.50417,0.0434 1.20919,-0.0832 1.56672,-0.28119 2.21832,-1.22867 2.3871,-1.37842 2.23886,-1.98628 -0.0995,-0.40785 -0.008,-0.65419 0.28348,-0.76616 0.47606,-0.18269 0.82942,0.22696 1.06529,1.23499 0.15304,0.65404 0.67386,1.97851 1.21256,3.08362 0.15285,0.31355 0.20051,0.6953 0.10593,0.84834 -0.26977,0.43649 -0.88463,0.0638 -1.06223,-0.64382 -0.0887,-0.35327 -0.27801,-0.64231 -0.42076,-0.64231 -0.14274,0 -0.26136,-0.14883 -0.26359,-0.33073 -0.002,-0.1819 -0.10783,-0.49457 -0.23467,-0.69482 -0.18815,-0.29703 -0.51636,-0.22775 -1.78189,0.37612 -1.28299,0.6122 -1.92876,0.7454 -3.73408,0.77016 -1.20054,0.0165 -2.18281,-0.047 -2.18281,-0.14099 0,-0.094 -0.31715,-0.11032 -0.70478,-0.0362 -0.58302,0.11146 -0.67473,0.0564 -0.53083,-0.31857 0.2676,-0.69735 -0.86361,-0.26244 -1.67481,0.64391 -0.3638,0.40647 -0.89958,0.79611 -1.19062,0.86586 -0.41558,0.0996 -0.4312,0.1334 -0.0728,0.1575 0.66804,0.0449 0.33271,1.58367 -0.51417,2.35937 -0.76436,0.70012 -1.04541,0.61334 -0.61546,-0.19002 0.16263,-0.30388 0.3053,-1.11775 0.31706,-1.8086 0.0256,-1.50327 0.33497,-2.18214 0.99453,-2.18214 0.26811,0 0.62535,-0.16614 0.79387,-0.36919 0.16853,-0.20306 0.69861,-0.44278 1.17797,-0.53271 0.84294,-0.15813 0.87256,-0.20716 0.90184,-1.49249 0.0166,-0.73095 0.0937,-1.53303 0.1713,-1.7824 0.26385,-0.84828 -0.19544,-1.15812 -1.33662,-0.90171 -0.57891,0.13007 -1.31772,0.13561 -1.65085,0.0124 -0.36492,-0.13499 -0.81196,-0.11122 -1.13226,0.0602 -0.30751,0.16457 -0.97813,0.20742 -1.60054,0.10226 -0.77439,-0.13083 -1.13292,-0.0814 -1.29374,0.17853 -0.12236,0.19774 -0.14219,2.02639 -0.0441,4.06369 0.20739,4.3055 0.19604,6.11067 -0.0466,7.40385 -0.18942,1.00966 -0.43367,1.14897 -0.94155,0.53701 z m 9.52221,-8.86691 c 0,-0.43656 -0.10633,-0.79375 -0.23628,-0.79375 -0.33448,0 -0.56932,0.71959 -0.38857,1.19063 0.25803,0.67242 0.62485,0.43943 0.62485,-0.39688 z m 1.97307,-1.04005 c 0.0837,-0.13546 0.0312,-0.32108 -0.11667,-0.41249 -0.1479,-0.0914 -0.2689,0.0194 -0.2689,0.2463 0,0.46475 0.15876,0.53318 0.38557,0.16619 z m -1.99945,-1.80422 c 0.0469,-0.58875 -0.43744,-0.3499 -0.55681,0.27457 -0.17576,0.91943 0.11149,1.52301 0.34152,0.71762 0.10391,-0.3638 0.20079,-0.81029 0.21529,-0.99219 z m 0.1619,9.48121 c -0.43483,-0.0873 -0.82821,-0.35446 -0.87429,-0.59374 -0.0718,-0.37284 0.20892,-0.43616 1.96433,-0.44304 1.35633,-0.005 2.38983,-0.16213 3.05981,-0.46425 1.05961,-0.47782 1.43772,-0.39608 1.18725,0.25665 -0.33921,0.88396 -3.48229,1.61679 -5.3371,1.24438 z m 7.19202,0.0287 c -0.78205,-0.15638 -0.38101,-0.60824 1.01696,-1.14583 1.5448,-0.59404 2.50341,-0.46601 2.50341,0.33436 0,0.40147 -0.11761,0.5073 -0.43041,0.38726 -0.23672,-0.0908 -0.56414,-0.059 -0.7276,0.0708 -0.3585,0.28457 -1.70175,0.48555 -2.36236,0.35346 z m 30.77246,-0.84482 c 0,-0.29104 0.16744,-0.52917 0.3721,-0.52917 0.24184,0 0.32366,0.18524 0.23373,0.52917 -0.0761,0.29104 -0.24356,0.52916 -0.37211,0.52916 -0.12855,0 -0.23372,-0.23812 -0.23372,-0.52916 z m -41.50688,-5.91373 c -0.26504,-0.31934 -0.25457,-0.62146 0.0531,-1.53149 0.21077,-0.62352 0.50116,-1.17299 0.6453,-1.22104 0.51909,-0.17303 0.56982,0.76238 0.10545,1.94456 -0.40194,1.02326 -0.52362,1.14557 -0.8038,0.80797 z"
       id="path4" />
  </g>
</svg>
