<?xml version="1.0" encoding="UTF-8" standalone="no"?>
<!-- Created with Inkscape (http://www.inkscape.org/) -->

<svg
   width="70.622322mm"
   height="40.179585mm"
   viewBox="0 0 70.62232 40.179586"
   version="1.1"
   id="svg1"
   inkscape:version="1.4.1-rc (06eac75fbf, 2025-03-29)"
   sodipodi:docname="city12.svg"
   xmlns:inkscape="http://www.inkscape.org/namespaces/inkscape"
   xmlns:sodipodi="http://sodipodi.sourceforge.net/DTD/sodipodi-0.dtd"
   xmlns="http://www.w3.org/2000/svg"
   xmlns:svg="http://www.w3.org/2000/svg">
  <sodipodi:namedview
     id="namedview1"
     pagecolor="#ffffff"
     bordercolor="#000000"
     borderopacity="0.25"
     inkscape:showpageshadow="2"
     inkscape:pageopacity="0.0"
     inkscape:pagecheckerboard="0"
     inkscape:deskcolor="#d1d1d1"
     inkscape:document-units="mm"
     inkscape:zoom="0.72248176"
     inkscape:cx="134.25944"
     inkscape:cy="76.818548"
     inkscape:window-width="1850"
     inkscape:window-height="1016"
     inkscape:window-x="0"
     inkscape:window-y="0"
     inkscape:window-maximized="1"
     inkscape:current-layer="layer1" />
  <defs
     id="defs1" />
  <g
     inkscape:label="Layer 1"
     inkscape:groupmode="layer"
     id="layer1"
     transform="translate(-69.850001,-128.05864)">
    <path
       style="fill:#000000"
       d="m 105.99967,167.83263 c -0.62882,-0.43866 -4.9224,-0.52414 -10.78237,-0.21467 -3.36033,0.17746 -5.8109,0.106 -8.89376,-0.25935 -1.21505,-0.14399 -1.80621,-0.11647 -1.93385,0.0901 -0.21406,0.34637 -2.17155,0.40501 -2.37783,0.0712 -0.0769,-0.12441 -1.33952,-0.30883 -2.80584,-0.40982 -2.98934,-0.20589 -3.43559,-0.31671 -3.43559,-0.85317 0,-0.75471 1.21004,-1.00065 3.46107,-0.70346 1.68679,0.2227 2.37452,0.20471 3.34556,-0.0875 0.67226,-0.20232 1.35055,-0.35325 1.50731,-0.33541 0.72627,0.0827 1.22743,-0.0543 1.07877,-0.29483 -0.0899,-0.14552 -0.55046,-0.26458 -1.02338,-0.26458 -0.47292,0 -1.08055,-0.16138 -1.35029,-0.35861 -0.62068,-0.45386 -0.36191,-1.22889 0.4103,-1.22889 0.5594,0 0.55864,-0.007 -0.0578,-0.5121 -0.55291,-0.4533 -0.57906,-0.55581 -0.22775,-0.89286 0.48174,-0.46219 2.31171,-0.77369 2.52431,-0.4297 0.23695,0.3834 0.65069,0.29141 0.65069,-0.14467 0,-0.49294 -1.07855,-0.7754 -2.24069,-0.58681 -0.66286,0.10757 -1.00395,0.0173 -1.34065,-0.35473 -0.57609,-0.63658 -0.315,-1.42443 0.40929,-1.23503 0.28913,0.0756 0.58867,0.0356 0.66565,-0.089 0.14742,-0.23853 -0.63369,-0.75841 -1.03664,-0.68995 -0.38563,0.0655 -0.78795,-0.77903 -0.60198,-1.26366 0.0949,-0.24729 0.29643,-0.37304 0.44786,-0.27945 0.15142,0.0936 1.01901,0.21123 1.92796,0.26144 1.56553,0.0865 1.65128,0.0602 1.62686,-0.49748 -0.0442,-1.00979 -0.30456,-1.13478 -2.4258,-1.16449 -1.13414,-0.0159 -2.34559,-0.0914 -2.69211,-0.16774 -0.43729,-0.0964 -0.98369,0.11512 -1.78594,0.69125 -1.17109,0.84101 -1.18701,0.87914 -1.30311,3.12165 -0.0264,0.50932 -0.13593,1.4171 -0.24345,2.01729 -0.12769,0.71269 -0.0938,1.15408 0.0976,1.27238 0.1612,0.0996 0.29309,0.46001 0.29309,0.80085 0,0.66438 -1.45724,1.73031 -2.36552,1.73031 -0.75822,0 -0.85744,-0.97489 -0.15448,-1.51797 0.74466,-0.57532 1.18031,-2.97995 0.53987,-2.97995 -0.79322,0 -0.98049,-0.981 -0.40327,-2.11246 0.33566,-0.65795 0.4809,-1.30357 0.38194,-1.69784 -0.0878,-0.34991 -0.0352,-1.87289 0.11692,-3.3844 0.15212,-1.51152 0.21111,-2.99859 0.13108,-3.30462 -0.15365,-0.58757 -1.27677,-0.9898 -2.47988,-0.88814 -0.93566,0.0791 -1.11447,0.33575 -1.2205,1.75198 -0.0515,0.68731 -0.27414,1.4492 -0.49486,1.69309 -0.22072,0.24389 -0.4013,0.75729 -0.4013,1.1409 0,0.65688 -0.61684,1.24524 -1.30553,1.24524 -0.36491,0 -0.36133,-0.85926 0.007,-1.66753 0.21067,-0.46238 0.20506,-1.09272 -0.0207,-2.32756 -0.17029,-0.93139 -0.33007,-2.11017 -0.35506,-2.61949 -0.0502,-1.02217 -0.0512,-1.02188 1.93894,-0.5231 0.99612,0.24966 1.32386,0.2274 2.00618,-0.1362 0.78073,-0.41605 0.87671,-0.4065 2.24787,0.22368 1.43373,0.65892 1.9384,0.70141 1.35071,0.11371 -0.1722,-0.1722 -0.31309,-0.53535 -0.31309,-0.80699 0,-0.27165 -0.30936,-0.89949 -0.68746,-1.3952 -0.6055,-0.79386 -0.73391,-0.85483 -1.07723,-0.51151 -0.21438,0.21438 -0.56406,0.38978 -0.77706,0.38978 -0.21301,0 -0.66815,0.18402 -1.01142,0.40895 -0.39984,0.26198 -0.87632,0.34565 -1.32587,0.23282 -0.68183,-0.17113 -0.68826,-0.19105 -0.22646,-0.70213 0.26141,-0.2893 1.04992,-0.8174 1.75226,-1.17356 1.02743,-0.52101 1.21773,-0.71893 0.97383,-1.01282 -0.36913,-0.44477 0.11792,-1.54919 0.61138,-1.38636 0.31241,0.1031 1.88065,2.55867 2.19353,3.43466 0.091,0.25466 0.26245,0.46302 0.38109,0.46302 0.30984,0 1.3197,1.47973 1.44151,2.11222 0.14745,0.76566 0.37397,1.06278 0.81022,1.06278 0.41021,0 0.53124,-0.93441 0.15143,-1.16915 -0.12641,-0.0781 -0.31022,-0.64479 -0.40848,-1.25925 -0.0983,-0.61447 -0.29997,-1.2634 -0.44825,-1.44207 -0.18691,-0.22521 -0.14577,-0.56432 0.13411,-1.10554 0.48316,-0.93433 1.17121,-1.25969 1.58138,-0.74779 0.16341,0.20395 0.59477,0.42883 0.95857,0.49974 0.3638,0.0709 0.86223,0.2136 1.10761,0.31708 0.39597,0.16699 0.42969,0.0285 0.29972,-1.23075 -0.16666,-1.61476 0.10212,-1.99741 1.73889,-2.47559 0.86753,-0.25344 0.94273,-0.35019 0.82253,-1.05833 -0.0728,-0.42867 -0.13229,-1.75761 -0.13229,-2.95322 0,-1.69327 0.0994,-2.27315 0.44974,-2.6231 0.60793,-0.6073 1.40253,-0.046 0.99991,0.70628 -0.29702,0.55498 -0.3354,2.26897 -0.0908,4.05372 0.13174,0.96115 0.27529,1.22755 0.66145,1.22755 0.27127,0 0.49321,-0.11547 0.49321,-0.25661 0,-0.23011 0.91637,0.28401 2.56228,1.43754 0.31785,0.22276 0.72722,0.81795 0.90972,1.32265 0.38933,1.07666 0.5009,1.13206 2.74196,1.36167 1.69067,0.17321 1.71247,0.16707 1.989,-0.56025 0.2023,-0.5321 0.19216,-0.99913 -0.0367,-1.68946 -0.17394,-0.52474 -0.52075,-1.96611 -0.7707,-3.20304 -0.31286,-1.54828 -0.46475,-1.96044 -0.48751,-1.32291 -0.0523,1.46449 -0.9938,5.06982 -1.38944,5.3205 -0.93332,0.59137 -1.10062,0.0895 -0.64143,-1.92421 0.47378,-2.07772 0.69752,-4.11264 0.81092,-7.37524 0.12833,-3.69202 0.3184,-4.48772 1.07197,-4.48772 0.52675,0 0.64155,0.17171 0.79386,1.18738 0.0979,0.65305 0.1142,1.35376 0.0362,1.55713 -0.078,0.20337 0.16055,0.63273 0.5302,0.95414 0.54338,0.47246 0.64506,0.75099 0.53091,1.45435 -0.0776,0.47849 -0.0418,0.97333 0.0796,1.09964 0.12142,0.12631 0.26048,0.46778 0.30903,0.75882 0.0485,0.29104 0.19153,0.60436 0.31775,0.69627 0.12622,0.0919 0.27502,0.56815 0.33066,1.05833 0.0556,0.49018 0.40398,1.86691 0.77408,3.0594 0.54328,1.75045 0.61262,2.26471 0.35993,2.66933 -0.22698,0.36345 -0.235,0.64013 -0.0292,1.00684 0.30668,0.54643 0.26797,0.59113 0.70796,-0.81725 0.0682,-0.21829 0.36045,-0.39688 0.64947,-0.39688 0.53915,0 0.67405,0.39283 0.92832,2.7032 0.0595,0.54088 0.19522,1.12417 0.30154,1.2962 0.10632,0.17203 0.23709,0.74153 0.29061,1.26555 0.0535,0.52402 0.1486,1.42901 0.2113,2.01109 0.0627,0.58209 0.11999,1.16037 0.1273,1.28508 0.007,0.12471 0.18821,0.15963 0.40198,0.0776 0.24548,-0.0942 0.55894,0.13907 0.8508,0.63315 0.4529,0.7667 0.87719,1.0254 0.87719,0.53484 0,-0.1361 0.41672,-0.39814 0.92604,-0.58232 0.50933,-0.18417 0.92604,-0.47565 0.92604,-0.64772 0,-0.17208 0.23773,-0.37503 0.52828,-0.45101 0.39109,-0.10228 0.51367,-0.33359 0.47203,-0.89076 -0.0756,-1.01157 -1.26489,-1.97767 -1.26489,-1.0275 0,0.52487 -1.04773,1.46552 -1.63235,1.46552 -0.4461,0 -0.52796,-0.18016 -0.87326,-1.92169 -0.14768,-0.74482 0.82271,-1.1121 1.59731,-0.60456 0.35461,0.23235 0.64372,0.29766 0.64372,0.14542 0,-0.15199 0.26789,-0.39847 0.59531,-0.54773 0.53726,-0.24492 0.59635,-0.46128 0.60591,-2.2188 l 0.0106,-1.94741 -0.63275,0.49772 c -0.34802,0.27375 -1.02644,0.57158 -1.5076,0.66185 -0.5493,0.10304 -0.92379,0.35128 -1.00637,0.66707 -0.16307,0.62355 -0.91192,0.93965 -1.30198,0.54958 -0.16,-0.15999 -0.2909,-0.65033 -0.2909,-1.08963 0,-0.5551 -0.15486,-0.84789 -0.50769,-0.95987 -0.4985,-0.15822 -0.49862,-0.17147 -0.006,-0.73144 0.64665,-0.73567 1.13145,-1.88303 1.13145,-2.67778 0,-1.15963 0.26839,-1.46462 1.28508,-1.46035 0.53013,0.002 1.12114,0.10376 1.31334,0.22563 0.19221,0.12187 0.80923,0.13751 1.37117,0.0347 0.74648,-0.1365 1.12731,-0.0812 1.41376,0.20523 0.34635,0.34635 0.4568,0.26516 0.94741,-0.69653 0.30544,-0.59872 0.6085,-1.6558 0.67346,-2.34908 0.26658,-2.84522 0.49319,-4.14962 0.83454,-4.8038 0.19804,-0.37952 0.36835,-0.57098 0.37847,-0.42546 0.0101,0.14552 0.12608,-0.003 0.25768,-0.33073 0.33772,-0.84019 0.6824,-0.74367 1.41732,0.39688 0.60843,0.94425 1.27744,3.18849 1.63661,5.4901 0.20507,1.31408 0.34145,1.54555 0.7317,1.24186 0.73356,-0.57086 2.0734,-0.83876 2.64838,-0.52954 0.69139,0.37182 3.35393,0.55967 3.80367,0.26836 0.17823,-0.11545 0.36367,-0.46955 0.41211,-0.78691 0.0484,-0.31735 0.17097,-0.65992 0.2723,-0.76126 0.28241,-0.2824 1.50508,0.9896 1.50508,1.56581 0,0.28007 0.19619,0.92265 0.43598,1.42796 0.37453,0.78927 0.53071,0.89498 1.10814,0.75005 0.36969,-0.0928 0.80172,-0.34588 0.96006,-0.56243 0.1688,-0.23084 0.47354,-0.32251 0.73659,-0.22157 0.3501,0.13435 0.45457,0.52986 0.47551,1.80034 0.0148,0.89549 0.0478,2.32157 0.0735,3.16905 l 0.0467,1.54089 1.12448,-0.13771 c 0.62801,-0.0769 1.12448,-0.0271 1.12448,0.11276 0,0.13776 0.18022,0.25047 0.40048,0.25047 0.3322,0 0.37564,-0.30187 0.25478,-1.77065 -0.0801,-0.97385 -0.26614,-1.91575 -0.41333,-2.09311 -0.15851,-0.19099 -0.16868,-0.38361 -0.025,-0.47245 0.13348,-0.0825 0.31894,-0.62687 0.41214,-1.20974 0.13752,-0.85997 0.30125,-1.09284 0.86844,-1.2352 0.39039,-0.098 0.9163,-0.0397 1.19122,0.13198 0.388,0.24231 0.62651,0.21945 1.12619,-0.10796 0.847,-0.55497 1.0235,-0.22593 1.05688,1.97024 0.0146,0.9593 0.14175,1.92277 0.28261,2.14105 0.39147,0.60666 0.45122,1.52993 0.137,2.11706 -0.22659,0.42338 -0.2009,0.52878 0.12886,0.52878 0.22652,0 0.54118,0.32742 0.69924,0.7276 0.15806,0.40018 0.39363,0.93435 0.52349,1.18704 0.12987,0.25268 0.23612,0.59591 0.23612,0.76271 0,0.16681 0.22111,0.49585 0.49136,0.7312 0.27025,0.23535 0.91301,1.08791 1.42836,1.89458 0.51535,0.80667 1.13068,1.62742 1.3674,1.82388 0.39698,0.32946 0.39588,0.39533 -0.0142,0.84842 -0.24451,0.27018 -0.78329,0.49123 -1.1973,0.49123 -0.62654,0 -0.75275,0.11091 -0.75275,0.66146 0,0.68625 -0.65687,0.93877 -0.86029,0.33073 -0.0806,-0.24102 -1.10926,-0.34064 -3.79236,-0.36726 -3.90106,-0.0387 -4.03531,-0.0447 -5.99682,-0.26734 -1.00987,-0.11463 -1.25678,-0.24174 -1.25678,-0.647 0,-0.57192 0.19415,-0.60442 3.24923,-0.54392 1.6213,0.0321 2.09127,-0.0444 2.21241,-0.36007 0.0846,-0.22046 0.0423,-0.54815 -0.094,-0.72819 -0.13633,-0.18005 -0.40347,-0.86315 -0.59366,-1.51799 -0.28997,-0.99837 -0.37989,-1.10518 -0.5569,-0.66146 -0.1161,0.29104 -0.23568,0.88636 -0.26572,1.32292 -0.0472,0.68581 -0.0708,0.70868 -0.17325,0.1682 -0.10758,-0.56727 -0.21515,-0.61012 -1.1546,-0.4599 -0.93425,0.1494 -1.03597,0.10997 -1.03597,-0.40155 0,-0.31196 -0.24487,-0.96343 -0.54417,-1.44769 -0.43213,-0.69921 -0.48469,-0.99162 -0.25527,-1.4203 0.34374,-0.64228 0.61892,-0.67924 1.06403,-0.14293 0.38497,0.46387 1.47505,0.52828 1.73807,0.10271 0.3387,-0.54802 -0.53945,-0.75285 -2.96795,-0.69226 l -2.4205,0.0604 -0.007,0.92604 c -0.005,0.6211 0.16893,1.06334 0.5274,1.343 0.57977,0.4523 0.64077,0.94583 0.38602,3.123 -0.1131,0.96654 -0.0335,1.85808 0.24818,2.77813 0.22809,0.74515 0.47149,1.63876 0.54088,1.98578 0.16393,0.8198 0.80806,2.05976 1.63532,3.148 l 0.66024,0.86855 -0.63331,0.68174 c -0.60743,0.65387 -0.71761,0.67486 -2.69556,0.51335 -1.69342,-0.13827 -2.13791,-0.0927 -2.48526,0.25461 -0.33254,0.33255 -0.86769,0.4048 -2.50243,0.3379 -2.06513,-0.0845 -2.07941,-0.0806 -2.07599,0.57635 0.002,0.40351 0.36004,1.00794 0.91787,1.54992 0.8429,0.81896 1.04068,0.88668 2.52836,0.86574 1.52318,-0.0214 1.60922,0.0104 1.53015,0.56675 -0.0774,0.5446 -0.23067,0.59186 -2.0136,0.62089 -1.44571,0.0235 -2.00988,0.13907 -2.24896,0.46055 -0.29201,0.39264 -0.98405,0.4973 -2.76654,0.41842 -0.32742,-0.0145 -1.45851,-0.0217 -2.51354,-0.0159 -1.05503,0.006 -2.91006,-0.0292 -4.12229,-0.0775 -1.686,-0.0673 -2.23682,-0.003 -2.34341,0.27516 -0.17368,0.45258 -0.32797,0.44117 -1.07433,-0.0795 z m -16.34705,-3.08575 c 0.10275,-0.75152 0.22619,-1.90219 0.27431,-2.55703 0.1067,-1.45209 0.26788,-2.35513 0.5367,-3.00709 0.17158,-0.41612 0.11421,-0.46522 -0.36568,-0.3129 -0.4485,0.14234 -0.56919,0.0722 -0.56919,-0.33067 0,-0.28122 0.21786,-0.79526 0.48413,-1.1423 0.7094,-0.9246 0.89276,-1.55704 0.45144,-1.55704 -0.59094,0 -0.7137,-0.8914 -0.25061,-1.81969 0.56239,-1.12734 1.31537,-1.02241 1.2604,0.17563 -0.0214,0.46767 -0.0113,0.85031 0.0225,0.85031 0.0338,0 0.79135,-0.23961 1.68342,-0.53246 1.78633,-0.58642 3.92925,-0.56838 4.31228,0.0363 0.12676,0.20012 0.2323,0.57222 0.23452,0.82688 0.005,0.56599 0.24918,0.57951 1.23058,0.0681 0.70645,-0.36811 0.77431,-0.35855 1.00057,0.14092 0.15678,0.3461 0.14236,0.63618 -0.0407,0.81926 -0.20153,0.20153 -0.1675,0.62371 0.11777,1.46092 0.22066,0.64761 0.4622,1.11647 0.53676,1.04192 0.25624,-0.25625 0.52912,-3.72973 0.31177,-3.96856 -0.11962,-0.13143 -0.11135,-0.43729 0.0184,-0.67969 0.29285,-0.54719 0.2668,-2.09389 -0.0384,-2.28254 -0.12425,-0.0768 -0.29734,0.0465 -0.38465,0.27402 -0.23171,0.60382 -1.18361,0.51449 -1.35132,-0.12683 -0.11874,-0.45407 -0.33682,-0.53397 -1.36429,-0.49982 -0.67263,0.0223 -1.82735,-0.13492 -2.56605,-0.3495 -1.16054,-0.33711 -1.41226,-0.3392 -1.85208,-0.0153 -0.36186,0.26645 -0.8723,0.32533 -1.76577,0.20368 -1.02015,-0.1389 -1.25677,-0.0959 -1.25677,0.22853 0,0.21981 0.14883,0.46005 0.33073,0.53385 0.44792,0.18175 -0.26957,0.69192 -0.99219,0.70549 -0.86552,0.0163 -1.64038,0.85247 -1.83707,1.98254 -0.10132,0.58208 -0.23546,3.08239 -0.2981,5.55625 -0.1052,4.15491 -0.15577,4.53266 -0.66318,4.95354 -0.80069,0.66415 -0.48264,0.87875 1.15372,0.77848 l 1.44937,-0.0888 z m 23.95322,1.41172 c 0,-0.14552 -0.11906,-0.26458 -0.26458,-0.26458 -0.14552,0 -0.26458,0.11906 -0.26458,0.26458 0,0.14552 0.11906,0.26458 0.26458,0.26458 0.14552,0 0.26458,-0.11906 0.26458,-0.26458 z m -18.92658,-0.27895 c -0.10078,-0.16306 -0.5012,-0.20929 -0.95311,-0.11003 -0.52192,0.11463 -1.00008,0.0265 -1.44772,-0.2668 -0.52447,-0.34364 -0.75007,-0.37019 -1.04758,-0.12327 -0.69791,0.57921 -0.39194,0.72096 1.62151,0.75122 1.35186,0.0203 1.94433,-0.0611 1.8269,-0.25112 z m 6.88046,0.0479 0.78616,-0.16841 -0.5553,-0.52789 c -0.43756,-0.41596 -0.5597,-0.86445 -0.5761,-2.11538 -0.0114,-0.87312 -0.11561,-2.10562 -0.23149,-2.73888 l -0.21068,-1.15138 -0.49051,2.34201 c -0.52703,2.51642 -1.09964,4.06179 -1.50504,4.06179 -0.13869,0 -0.25216,0.11907 -0.25216,0.26459 0,0.28625 1.76449,0.30576 3.03512,0.0335 z m 3.82429,-0.0997 c -0.15851,-1.22066 0.0775,-3.61499 0.39919,-4.05047 0.35797,-0.48454 0.42158,-0.48922 1.12448,-0.0827 0.40977,0.23697 1.01903,0.95135 1.35392,1.5875 l 0.60887,1.15664 -0.16924,-1.05833 c -0.30616,-1.91458 -0.28392,-2.11667 0.23286,-2.11667 0.33112,0 0.60582,0.33967 0.85591,1.05833 0.48593,1.39636 0.4709,2.1697 -0.0478,2.45998 -0.23323,0.13052 -0.38055,0.46386 -0.32737,0.74075 0.0754,0.39261 0.34349,0.51185 1.2178,0.54166 0.61662,0.021 1.12047,-0.0385 1.11966,-0.13229 -0.002,-0.26261 -0.53571,-2.23803 -0.72479,-2.68406 -0.0925,-0.21828 -0.35853,-1.22297 -0.5911,-2.23265 -0.38393,-1.66682 -0.49485,-1.85503 -1.20522,-2.04501 -0.4303,-0.11509 -1.19962,-0.0933 -1.70958,0.0484 -0.50997,0.14168 -1.55229,0.25827 -2.31628,0.25908 l -1.38906,0.001 v 3.28889 c 0,3.56804 -0.10738,3.29554 1.40066,3.55425 0.11552,0.0198 0.19071,-0.1128 0.16709,-0.2947 z m 12.19058,-0.46302 c 0,-0.14552 -0.0525,-0.26458 -0.11667,-0.26458 -0.0642,0 -0.19026,0.11906 -0.2802,0.26458 -0.0899,0.14552 -0.0374,0.26458 0.11668,0.26458 0.15411,0 0.28019,-0.11906 0.28019,-0.26458 z m -4.4339,-1.19453 c -0.15417,-0.80648 -0.59318,-1.14804 -0.59318,-0.4615 0,0.38645 0.44528,1.12686 0.67769,1.12686 0.0235,0 -0.0146,-0.29941 -0.0845,-0.66536 z m -16.89003,-0.22466 c 0.53705,-0.41026 0.94599,-1.05909 1.18864,-1.88589 0.45619,-1.55442 0.18113,-2.50362 -0.87173,-3.00824 -0.41474,-0.19878 -0.81066,-0.57777 -0.87981,-0.84221 -0.22401,-0.85662 -1.3965,-0.95966 -1.3965,-0.12273 0,0.44209 -0.82274,0.73747 -1.41793,0.50908 -0.35821,-0.13746 -0.44148,0.0351 -0.47607,0.98619 -0.0231,0.63403 -0.0216,1.37701 0.003,1.65107 0.0248,0.27406 -0.0814,0.65069 -0.23604,0.83697 -0.20453,0.24644 -0.16428,0.43501 0.14778,0.69234 0.23588,0.19451 0.62554,0.56201 0.86593,0.81667 0.24038,0.25466 0.64169,0.46302 0.8918,0.46302 0.25012,0 0.52834,0.11907 0.61828,0.26459 0.25557,0.41352 0.67589,0.31645 1.56252,-0.36086 z m -10.58152,-0.59291 c 0.63055,-0.24196 0.2263,-0.63373 -0.65391,-0.63373 -0.84679,0 -1.06138,0.41634 -0.31511,0.61136 0.25466,0.0666 0.48304,0.13481 0.50752,0.1517 0.0245,0.0169 0.23216,-0.0413 0.4615,-0.12933 z m 26.70563,-2.11354 c -0.37442,-0.57143 -0.50593,-0.64214 -0.57052,-0.30673 -0.12519,0.65003 0.46979,1.63668 0.7924,1.31406 0.17656,-0.17655 0.10266,-0.51202 -0.22188,-1.00733 z m 6.89637,0.51894 c 0.0835,-0.21757 0.26278,-0.327 0.39843,-0.24317 0.13564,0.0838 0.55487,0.012 0.93161,-0.15968 0.58155,-0.26497 0.66234,-0.43528 0.53501,-1.12784 -0.0825,-0.44865 -0.1809,-1.11843 -0.21871,-1.48839 -0.0378,-0.36995 -0.16267,-0.82465 -0.2775,-1.01044 -0.11482,-0.18578 -0.25246,-0.79141 -0.30586,-1.34584 -0.0534,-0.55442 -0.22497,-1.57867 -0.38127,-2.2761 -0.23386,-1.04353 -0.21426,-1.33798 0.11071,-1.66295 0.33322,-0.33322 0.4621,-0.33911 0.82521,-0.0378 0.36188,0.30034 0.46642,0.29873 0.65728,-0.0101 0.40479,-0.65496 0.005,-0.78937 -2.34665,-0.78937 -1.44601,0 -2.43171,-0.11899 -2.63022,-0.3175 -0.17463,-0.17463 -0.3228,-0.20439 -0.32927,-0.0661 -0.006,0.13825 -0.0525,0.81355 -0.10223,1.50068 -0.0605,0.8356 0.031,1.35014 0.27636,1.55375 0.5061,0.42004 0.45916,0.7688 -0.10349,0.7688 -0.25866,0 -0.7422,0.19045 -1.07453,0.42322 -0.55069,0.38572 -0.64515,0.3862 -1.06592,0.005 -0.42105,-0.38104 -0.49995,-0.37954 -0.89656,0.0171 -0.35905,0.35905 -0.50641,0.37552 -0.84504,0.0945 -0.22559,-0.18722 -0.41016,-0.48984 -0.41016,-0.67248 0,-0.96888 -1.69092,-1.05687 -1.99344,-0.10373 -0.0874,0.27533 -0.2769,0.5006 -0.42115,0.5006 -0.14425,0 -0.71161,0.3611 -1.2608,0.80244 -1.09818,0.88253 -2.08837,0.87343 -1.61299,-0.0148 0.142,-0.26532 0.21266,-0.8785 0.15702,-1.36261 -0.0556,-0.48412 -0.11446,-1.13459 -0.13073,-1.4455 -0.0218,-0.4169 -0.23831,-0.59592 -0.82483,-0.682 -0.43739,-0.0642 -0.86403,-0.0479 -0.94809,0.0361 -0.0841,0.0841 -0.29174,0.15293 -0.46151,0.15304 -0.21293,1.4e-4 -0.30868,0.75952 -0.30868,2.44798 0,1.34628 0.0595,2.4274 0.13229,2.40248 0.0728,-0.0249 0.37208,0.083 0.66516,0.23989 0.36608,0.19592 0.9044,0.20412 1.71979,0.0262 1.74598,-0.38095 4.03974,-0.41001 4.49421,-0.057 0.29839,0.2318 0.70848,0.23472 1.65247,0.0118 1.0194,-0.24077 1.22758,-0.38484 1.10665,-0.76585 -0.17426,-0.54905 0.64495,-0.66355 1.14804,-0.16045 0.3074,0.30739 0.35682,0.23773 0.74575,-1.05108 0.14742,-0.48849 0.97779,0.0153 1.06593,0.64674 0.0378,0.27081 0.14396,0.84957 0.2359,1.28614 0.0919,0.43656 0.23068,1.27 0.30831,1.85208 0.0776,0.58208 0.24802,1.17144 0.37864,1.30969 0.13061,0.13824 0.23748,0.44033 0.23748,0.6713 0,0.53902 0.96717,0.62258 1.16738,0.10085 z m 4.12429,-1.03912 c 0,-0.22687 0.11906,-0.33891 0.26458,-0.24897 0.55379,0.34226 0.7831,-0.16717 0.36351,-0.80755 -0.56468,-0.8618 -1.42184,-0.86653 -1.42184,-0.008 0,0.81006 0.25169,1.47685 0.55747,1.47685 0.12995,0 0.23628,-0.18562 0.23628,-0.41249 z m 2.16517,-1.23234 c -0.18985,-0.18985 -0.31309,-0.20548 -0.31309,-0.0397 0,0.15037 0.0794,0.35278 0.17639,0.44979 0.097,0.097 0.2379,0.11488 0.31309,0.0397 0.0752,-0.0752 -0.004,-0.27759 -0.17639,-0.44979 z m -0.58172,-1.72861 c -0.002,-0.10914 -0.11602,-0.37553 -0.25287,-0.59198 -0.19556,-0.30929 -0.23928,-0.2668 -0.20423,0.19844 0.0395,0.52463 0.46729,0.89292 0.4571,0.39354 z m -26.98345,-0.33073 c 0,-0.14552 -0.0525,-0.26458 -0.11668,-0.26458 -0.0642,0 -0.19026,0.11906 -0.2802,0.26458 -0.0899,0.14552 -0.0374,0.26458 0.11668,0.26458 0.15411,0 0.2802,-0.11906 0.2802,-0.26458 z m -12.54379,-3.40844 c 0.18616,-0.0201 0.25036,-0.59427 0.18097,-1.61864 -0.0712,-1.05128 -0.008,-1.5875 0.18612,-1.5875 0.16151,0 0.26903,-0.14883 0.23895,-0.33073 -0.0673,-0.40693 0.29854,-1.82258 0.56409,-2.18281 0.10727,-0.14553 0.16031,-0.56224 0.11786,-0.92605 -0.0425,-0.3638 -0.0871,-0.81255 -0.0992,-0.99722 -0.0145,-0.22048 -0.2413,-0.28074 -0.66057,-0.17551 -0.44817,0.11248 -0.8044,-0.006 -1.1949,-0.39611 -0.37005,-0.37005 -1.10873,-0.63334 -2.20574,-0.78622 -0.90716,-0.12642 -1.68251,-0.2005 -1.723,-0.16464 -0.21229,0.18804 1.34962,2.78429 1.67505,2.78429 0.21836,0 0.38641,0.25586 0.39099,0.59531 0.007,0.53165 0.0369,0.5458 0.27773,0.13229 0.65359,-1.12213 1.8956,-0.046 1.60315,1.38906 -0.13873,0.68074 -0.34383,0.94844 -0.77424,1.01059 -0.39151,0.0565 -0.58551,-0.053 -0.58551,-0.33073 0,-0.23888 -0.22477,-0.41527 -0.52917,-0.41527 -0.29104,0 -0.52917,-0.1318 -0.52917,-0.29289 0,-0.16109 0.1786,-0.22436 0.39688,-0.1406 0.21828,0.0838 0.39687,0.037 0.39687,-0.10398 0,-0.14096 -0.28463,-0.25628 -0.63251,-0.25628 -0.60884,0 -0.63363,0.0753 -0.66274,2.01172 -0.0166,1.10645 -0.0917,2.11117 -0.16681,2.2327 -0.34615,0.56009 1.33875,0.80785 3.73494,0.54922 z m -7.56454,-0.29573 c 0,-0.14552 -0.11907,-0.26458 -0.26459,-0.26458 -0.14552,0 -0.26458,0.11906 -0.26458,0.26458 0,0.14552 0.11906,0.26459 0.26458,0.26459 0.14552,0 0.26459,-0.11907 0.26459,-0.26459 z m 31.64099,-0.39669 c 0.47684,-0.36371 0.94724,-0.92926 1.04534,-1.25677 0.0981,-0.32752 0.40992,-0.77922 0.69294,-1.00377 0.44972,-0.3568 0.52122,-0.79039 0.56714,-3.43958 0.0446,-2.57579 -0.007,-3.01775 -0.34433,-2.94108 -0.21828,0.0496 -1.03071,0.15649 -1.8054,0.23747 l -1.40852,0.14722 0.14979,1.21775 c 0.35069,2.85097 0.29806,4.49277 -0.1553,4.84527 -0.37993,0.29541 -0.39833,0.50996 -0.13705,1.598 0.16598,0.69122 0.35278,1.25677 0.4151,1.25677 0.0623,0 0.50345,-0.29758 0.98029,-0.66128 z m 12.01525,0.13211 c 0,-0.14552 -0.11906,-0.26458 -0.26458,-0.26458 -0.14552,0 -0.26458,0.11906 -0.26458,0.26458 0,0.14552 0.11906,0.26458 0.26458,0.26458 0.14552,0 0.26458,-0.11906 0.26458,-0.26458 z m -7.84872,-0.17697 c 0.0973,-0.0973 -0.0203,-0.39498 -0.2615,-0.66145 -0.54745,-0.60494 -1.27052,-0.65054 -1.04621,-0.066 0.0883,0.23018 0.1606,0.52784 0.1606,0.66146 0,0.27954 0.88277,0.33031 1.14711,0.066 z m -35.91347,-1.305 c -0.08,-0.20841 0.0197,-0.37011 0.22814,-0.37011 0.20359,0 0.42177,0.26789 0.48483,0.59531 0.0852,0.44217 0.12393,0.37967 0.15069,-0.24294 0.0421,-0.97998 -0.18077,-1.67529 -0.53705,-1.67529 -0.13854,0 -0.17775,0.11998 -0.0871,0.26661 0.0906,0.14664 -0.0214,0.4528 -0.24897,0.68036 -0.46495,0.46496 -0.57683,1.5663 -0.13112,1.29084 0.15544,-0.0961 0.21871,-0.34122 0.1406,-0.54478 z m 58.04969,0.15905 c -0.34615,-0.64679 -0.50749,-0.65994 -0.93438,-0.0761 -0.28009,0.38304 -0.39701,0.39848 -0.75678,0.0999 -0.23402,-0.19423 -0.4255,-0.54869 -0.4255,-0.78769 0,-0.23899 -0.23836,-0.87926 -0.52968,-1.42281 -0.29133,-0.54354 -0.45534,-0.98827 -0.36448,-0.98827 0.0909,0 0.0243,-0.16976 -0.14788,-0.37724 -0.1722,-0.20749 -0.29174,-0.53491 -0.26564,-0.72761 0.12263,-0.90534 -0.044,-1.2764 -0.57309,-1.2764 -0.47472,0 -0.53098,0.10707 -0.37753,0.71843 0.0992,0.39513 0.41939,1.24325 0.71161,1.88471 0.29222,0.64145 0.57719,1.40454 0.63327,1.69576 0.24177,1.25538 0.87188,1.78652 2.11945,1.78652 1.11185,0 1.17439,-0.0363 0.91063,-0.52917 z m 1.6198,-0.17859 c -0.3119,-0.53637 -0.38722,-0.36469 -0.1319,0.30066 0.0907,0.23646 0.22071,0.37419 0.28884,0.30606 0.0681,-0.0681 -0.002,-0.34114 -0.15694,-0.60672 z m -36.80938,-1.14432 c -0.21828,-0.14107 -0.57547,-0.25648 -0.79375,-0.25648 -0.35278,0 -0.35278,0.0285 0,0.25648 0.21828,0.14106 0.57547,0.25648 0.79375,0.25648 0.35278,0 0.35278,-0.0285 0,-0.25648 z m 14.87961,-0.80036 c 0.48483,-0.5204 0.49172,-0.52031 1.5547,0.022 0.58725,0.29959 1.20765,0.48762 1.37869,0.41784 0.17103,-0.0698 0.10963,-0.13626 -0.13645,-0.14775 -0.62327,-0.0291 -0.81751,-0.44602 -0.49155,-1.05509 0.25746,-0.48107 0.21814,-0.49934 -0.58133,-0.27005 -1.0429,0.2991 -0.88876,0.3093 -1.30508,-0.0864 -0.1923,-0.18275 -0.70566,-0.4531 -1.14081,-0.60078 -1.01328,-0.34386 -1.14387,-1.00058 -0.27747,-1.39534 0.36948,-0.16834 0.67177,-0.5255 0.67177,-0.79368 0,-0.53738 -1.03085,-2.75557 -1.04779,-2.25462 -0.006,0.1715 -0.2169,0.51819 -0.46913,0.77041 -0.36659,0.36659 -0.46426,0.96752 -0.48689,2.99547 -0.0156,1.39528 10e-4,2.5964 0.0374,2.66916 0.0361,0.0728 0.45747,0.15912 0.93632,0.19191 0.58331,0.0399 1.03136,-0.11289 1.35763,-0.4631 z m 7.34439,0.26305 c 5.5e-4,-0.0772 -0.34293,-0.27025 -0.7633,-0.42892 -0.73539,-0.27758 -0.76532,-0.35665 -0.79134,-2.09096 -0.0352,-2.34391 -0.19414,-2.81554 -0.91448,-2.71292 -0.52317,0.0745 -0.57383,0.24152 -0.58695,1.93484 -0.009,1.16772 -0.17618,2.17764 -0.4518,2.73014 l -0.43744,0.87686 1.97216,-0.0843 c 1.08468,-0.0464 1.9726,-0.14749 1.97315,-0.22473 z m -25.9066,-0.83766 c 0.19268,-0.46519 0.32506,-1.50699 0.29417,-2.3151 -0.0309,-0.80812 0.0528,-1.84616 0.18602,-2.30676 l 0.24218,-0.83745 -0.77884,0.27151 c -0.42951,0.14972 -1.60164,0.20329 -2.61331,0.11943 l -1.83447,-0.15208 -0.25727,0.9826 c -0.1415,0.54044 -0.29375,1.81605 -0.33834,2.83469 l -0.0811,1.85209 1.05437,-0.0854 c 1.48894,-0.12054 1.67367,-0.35335 1.44996,-1.82741 -0.24351,-1.60459 -0.0926,-1.97202 0.76866,-1.87186 1.13694,0.13222 1.90364,2.54284 1.11211,3.49658 -0.26916,0.32431 -0.13379,0.68492 0.25711,0.68492 0.10361,0 0.34604,-0.38061 0.53873,-0.8458 z m 3.86334,0.002 c -0.0845,-0.21107 -0.14715,-0.14837 -0.15985,0.15985 -0.0115,0.27892 0.051,0.43519 0.13896,0.34727 0.0879,-0.0879 0.0973,-0.31612 0.0209,-0.50712 z m 35.14114,-0.47956 c 0.0899,-0.14552 0.0445,-0.26458 -0.10107,-0.26458 -0.14552,0 -0.33816,0.11906 -0.4281,0.26458 -0.0899,0.14552 -0.0445,0.26459 0.10106,0.26459 0.14552,0 0.33817,-0.11907 0.42811,-0.26459 z m -1.05834,-0.26458 c 0.0899,-0.14552 -0.0221,-0.26458 -0.24897,-0.26458 -0.22686,0 -0.41249,0.11906 -0.41249,0.26458 0,0.14552 0.11204,0.26458 0.24897,0.26458 0.13694,0 0.32256,-0.11906 0.41249,-0.26458 z m -16.53646,-1.85818 v -1.06443 l -0.66145,0.4334 c -0.78204,0.51241 -0.79462,0.58061 -0.22358,1.21161 0.66434,0.73408 0.88503,0.5893 0.88503,-0.58058 z m 16.53646,0.79985 c 0.0899,-0.14552 0.0445,-0.26459 -0.10106,-0.26459 -0.14552,0 -0.33817,0.11907 -0.4281,0.26459 -0.0899,0.14552 -0.0445,0.26458 0.10106,0.26458 0.14552,0 0.33817,-0.11906 0.4281,-0.26458 z m -16.81488,-2.57969 c -0.0852,-0.83784 0.008,-1.11815 0.54907,-1.65971 0.3972,-0.3972 0.65582,-0.47069 1.00283,-0.28498 0.41212,0.22056 0.45505,0.14282 0.36186,-0.6554 -0.0878,-0.75198 -0.21416,-0.90564 -0.74479,-0.90564 -0.43821,0 -0.7181,0.20789 -0.89055,0.66146 -0.15872,0.41747 -0.45767,0.66146 -0.81045,0.66146 -0.51071,0 -0.54275,0.0971 -0.37102,1.12448 0.10337,0.61846 0.32219,1.21195 0.48627,1.31886 0.42938,0.27978 0.46921,0.25488 0.41678,-0.26053 z m -27.76741,-0.61736 c 0,-0.15765 0.14681,-0.2377 0.32625,-0.17788 0.17944,0.0598 0.48068,-0.18892 0.66943,-0.55273 0.27852,-0.53684 0.27936,-0.70197 0.004,-0.8764 -0.48583,-0.30828 -1.06209,-0.2727 -0.8607,0.0532 0.0939,0.15189 0.0599,0.41978 -0.0756,0.59531 -0.40914,0.53017 -0.59297,1.24518 -0.32013,1.24518 0.14096,0 0.25628,-0.12898 0.25628,-0.28663 z m 34.66042,-0.7717 c 0,-1.21231 -0.4143,-1.43177 -0.57939,-0.30691 -0.12812,0.87293 -0.007,1.36524 0.33685,1.36524 0.1334,0 0.24254,-0.47625 0.24254,-1.05833 z m -37.85492,-0.65527 c 0.29916,-0.095 0.66697,-0.0966 0.81734,-0.004 0.49824,0.30792 1.8311,-0.13556 1.66991,-0.55563 -0.1081,-0.28171 -0.38762,-0.34043 -1.0389,-0.21825 -0.79517,0.14918 -0.92044,0.0897 -1.16464,-0.55256 -0.21794,-0.57322 -0.39386,-0.68749 -0.86424,-0.56141 -0.32482,0.0871 -0.83078,0.15993 -1.12435,0.16191 -0.79974,0.005 -0.66935,1.77672 0.17783,2.41575 0.59508,0.44887 0.62745,0.44795 0.80162,-0.0229 0.0998,-0.26985 0.42627,-0.56832 0.72543,-0.66327 z m 25.52498,0.11935 c 0.1396,-0.13543 0.045,-0.52493 -0.22924,-0.9434 -0.34553,-0.52734 -0.42644,-1.00867 -0.31106,-1.85046 0.10029,-0.73168 0.0169,-1.47061 -0.23378,-2.07047 -0.21435,-0.51302 -0.38973,-1.31758 -0.38973,-1.78792 0,-1.36271 -0.51998,-0.5212 -0.61222,0.9908 -0.0868,1.42197 -0.822,2.93806 -1.53452,3.1642 -0.30216,0.0959 -0.39783,0.32054 -0.29842,0.70069 0.0941,0.35985 -0.0219,0.6825 -0.32495,0.90412 -0.57563,0.42092 -0.36827,1.0965 0.42683,1.39063 0.6265,0.23175 3.11974,-0.12242 3.50709,-0.49819 z m 8.89035,0.007 c 0.3488,-0.65173 0.74981,-0.673 1.24724,-0.0661 0.35035,0.4274 0.36919,0.41504 0.24496,-0.16069 -0.074,-0.34304 -0.0263,-0.90859 0.1061,-1.25677 0.28249,-0.74299 0.25358,-0.75063 -0.94533,-0.24969 -0.54344,0.22706 -0.91755,0.56917 -0.91755,0.83906 0,0.25063 -0.19705,0.67342 -0.43788,0.93954 -0.40016,0.44217 -0.40096,0.48386 -0.009,0.48386 0.23572,0 0.55601,-0.23813 0.71177,-0.52917 z m 10.88169,-0.59531 c 0.0478,-0.84214 0.16829,-1.55647 0.38338,-2.2722 0.16244,-0.54051 0.10611,-0.60728 -0.44636,-0.52917 -0.34773,0.0492 -0.60248,0.17869 -0.5661,0.28783 0.0364,0.10914 0.0661,0.85328 0.0661,1.65364 0,0.80037 0.11907,1.45521 0.26459,1.45521 0.14552,0 0.27978,-0.26789 0.29835,-0.59531 z m -27.34649,-0.678 c 0.15874,-0.47621 -0.38814,-0.37614 -0.57269,0.10479 -0.0989,0.25769 -0.0397,0.37865 0.15359,0.3142 0.17291,-0.0576 0.3615,-0.24618 0.4191,-0.41899 z m 11.73413,-0.91736 c -0.40209,-0.4021 -0.56928,-0.14711 -0.37946,0.57874 0.14266,0.54554 0.18876,0.56352 0.4138,0.16139 0.16723,-0.29882 0.15556,-0.55023 -0.0343,-0.74013 z m -1.88391,0.33859 c -0.15576,-0.29104 -0.34273,-0.52917 -0.41549,-0.52917 -0.0728,0 -0.005,0.23813 0.15091,0.52917 0.15576,0.29104 0.34273,0.52916 0.41549,0.52916 0.0728,0 0.005,-0.23812 -0.15091,-0.52916 z m 1.45521,-1.5875 c 0.0899,-0.14552 0.51368,-0.26459 0.94166,-0.26459 0.88923,0 0.95537,-0.15936 0.34571,-0.83302 -0.41181,-0.45505 -0.4717,-0.45604 -1.25677,-0.0208 -0.45339,0.25134 -0.85692,0.4697 -0.89672,0.48526 -0.0398,0.0156 0.003,0.22391 0.0944,0.46302 0.18814,0.49027 0.52757,0.56512 0.77167,0.17016 z m 7.01146,-0.36857 c 0,-0.0572 -0.1786,-0.17252 -0.39688,-0.25628 -0.21828,-0.0838 -0.39687,-0.037 -0.39687,0.10398 0,0.14096 0.17859,0.25628 0.39687,0.25628 0.21828,0 0.39688,-0.0468 0.39688,-0.10398 z m -25.4,-1.86478 c 0,-0.0642 -0.11906,-0.19026 -0.26458,-0.28019 -0.14553,-0.0899 -0.26459,-0.0374 -0.26459,0.11667 0,0.15411 0.11906,0.2802 0.26459,0.2802 0.14552,0 0.26458,-0.0525 0.26458,-0.11668 z m 14.02291,-3.73539 c 0,-0.22687 -0.11906,-0.33891 -0.26458,-0.24897 -0.14552,0.0899 -0.26458,0.27556 -0.26458,0.41249 0,0.13693 0.11906,0.24897 0.26458,0.24897 0.14552,0 0.26458,-0.18562 0.26458,-0.41249 z m -38.86597,21.89563 c -0.14207,-0.26545 -0.15706,-0.63645 -0.0338,-0.83591 0.1219,-0.19724 0.17365,-0.48848 0.11499,-0.6472 -0.0587,-0.15871 -0.14437,-0.78566 -0.19046,-1.39321 -0.0704,-0.92786 0.01,-1.14738 0.50261,-1.37181 0.88143,-0.40161 1.54698,0.42796 1.28269,1.59878 -0.10896,0.48272 -0.17422,1.38368 -0.14502,2.00214 0.049,1.03846 0.002,1.12448 -0.61125,1.12448 -0.36948,0 -0.77772,-0.21183 -0.91977,-0.47727 z"
       id="path1" />
  </g>
</svg>
