<?xml version="1.0" encoding="UTF-8" standalone="no"?>
<!-- Created with Inkscape (http://www.inkscape.org/) -->

<svg
   width="34.395828mm"
   height="23.291059mm"
   viewBox="0 0 34.395828 23.291059"
   version="1.1"
   id="svg1"
   inkscape:version="1.4.2 (2aeb623e1d, 2025-05-12)"
   sodipodi:docname="bird.svg"
   xmlns:inkscape="http://www.inkscape.org/namespaces/inkscape"
   xmlns:sodipodi="http://sodipodi.sourceforge.net/DTD/sodipodi-0.dtd"
   xmlns="http://www.w3.org/2000/svg"
   xmlns:svg="http://www.w3.org/2000/svg">
  <sodipodi:namedview
     id="namedview1"
     pagecolor="#ffffff"
     bordercolor="#000000"
     borderopacity="0.25"
     inkscape:showpageshadow="2"
     inkscape:pageopacity="0.0"
     inkscape:pagecheckerboard="0"
     inkscape:deskcolor="#d1d1d1"
     inkscape:document-units="mm"
     inkscape:zoom="2.9398148"
     inkscape:cx="167.01732"
     inkscape:cy="107.65984"
     inkscape:window-width="1854"
     inkscape:window-height="1011"
     inkscape:window-x="0"
     inkscape:window-y="0"
     inkscape:window-maximized="1"
     inkscape:current-layer="layer1" />
  <defs
     id="defs1" />
  <g
     inkscape:label="Layer 1"
     inkscape:groupmode="layer"
     id="layer1"
     transform="translate(-34.924998,-43.920832)">
    <path
       style="fill:#000000"
       d="m 56.991018,67.15185 c -1.03333,-0.0754 -2.07512,-0.30041 -2.31511,-0.50013 -0.23998,-0.19972 -0.43633,-0.2652 -0.43633,-0.14552 0,0.11969 -0.1373,0.0803 -0.30511,-0.0875 -0.19541,-0.1954 -0.46467,-0.21972 -0.74885,-0.0676 -0.28132,0.15056 -0.67807,0.12003 -1.08395,-0.0834 -0.35212,-0.17648 -1.05693,-0.35134 -1.56625,-0.38857 -2.57286,-0.18806 -5.72406,-0.71404 -6.01382,-1.0038 -0.1797,-0.1797 -0.47769,-0.3806 -0.66219,-0.44643 -0.1845,-0.0658 -0.24997,-0.21155 -0.1455,-0.32382 0.10448,-0.11227 0.5212,-0.0713 0.92604,0.091 0.40485,0.16234 1.86719,0.42396 3.24963,0.58138 1.38245,0.15742 3.42878,0.4666 4.5474,0.68707 1.11862,0.22047 2.30924,0.35254 2.64583,0.29349 0.54418,-0.0955 0.49725,-0.15878 -0.4236,-0.57143 -0.56956,-0.25524 -1.46253,-0.51124 -1.98437,-0.56889 -0.52184,-0.0577 -1.42505,-0.22365 -2.00713,-0.36889 -0.58208,-0.14523 -1.77271,-0.28473 -2.64583,-0.31001 -0.87313,-0.0253 -1.27246,-0.0944 -0.8874,-0.15352 0.38505,-0.0592 0.90952,-0.33898 1.16548,-0.62182 0.59158,-0.65369 0.99514,-0.66214 0.79024,-0.0165 -0.13818,0.43535 0.0336,0.52105 1.37123,0.6841 2.22111,0.27075 12.342019,2.79595 12.719669,3.1736 0.22079,0.22079 -0.51985,0.16855 -1.46878,-0.1036 -0.621739,-0.17831 -0.859269,-0.16009 -0.862199,0.0661 -0.003,0.22441 -0.0633,0.21901 -0.2145,-0.0192 -0.24766,-0.39007 -4.54395,-1.69159 -4.54395,-1.37656 0,0.17904 1.6244,0.87701 3.16162,1.35848 0.79099,0.24775 -0.35997,0.36066 -2.26227,0.22194 z m 5.318359,-1.32292 c -2.100259,-0.62838 -6.314439,-1.5922 -6.961689,-1.5922 -0.28287,0 -0.91581,-0.16539 -1.40652,-0.36752 -0.49072,-0.20214 -1.51729,-0.45144 -2.28127,-0.554 -0.76399,-0.10256 -1.38907,-0.30239 -1.38907,-0.44406 0,-0.14167 0.20836,-0.19204 0.46302,-0.11193 0.25467,0.0801 1.11787,0.26884 1.91823,0.41941 2.13336,0.40133 10.278609,2.36839 11.509379,2.77948 1.65924,0.55422 0.059,0.4426 -1.85208,-0.12918 z m 2.71089,-0.16013 c -0.0855,-0.0855 -0.55182,-0.25587 -1.03629,-0.37863 -12.195039,-3.09006 -14.521919,-3.57199 -14.121969,-2.92486 0.0965,0.15615 -0.003,0.28391 -0.2214,0.28391 -0.21829,0 -0.46675,-0.11306 -0.55216,-0.25124 -0.0871,-0.14086 -0.75145,-0.18064 -1.51224,-0.0905 -0.99341,0.11765 -1.30625,0.0786 -1.16764,-0.14563 0.10413,-0.16849 0.53246,-0.30635 0.95185,-0.30635 1.09066,0 1.14081,-0.2955 0.28038,-1.65227 -0.57989,-0.91438 -0.68826,-1.27558 -0.45472,-1.51546 0.2356,-0.24199 0.12276,-0.29747 -0.48712,-0.23952 -0.43656,0.0415 -1.44859,-0.009 -2.24896,-0.11119 -0.80036,-0.10264 -2.34818,-0.22859 -3.43958,-0.2799 -1.09141,-0.0513 -2.31955,-0.2297 -2.72921,-0.39643 -0.40965,-0.16673 -0.89582,-0.30314 -1.08038,-0.30314 -0.51149,0 -0.71343,-0.31241 -0.42588,-0.65888 0.19667,-0.23698 0.82451,-0.21773 2.64606,0.0811 1.76352,0.28932 2.54326,0.317 2.98099,0.10582 0.50052,-0.24146 0.35362,-0.28877 -0.94369,-0.30388 -1.62562,-0.0189 -3.80656,-0.46668 -4.02937,-0.8272 -0.0731,-0.11827 0.24564,-0.10647 0.70829,0.0262 0.69966,0.20065 6.64256,0.4093 8.231,0.28898 0.88408,-0.067 0.45472,-0.49643 -1.05833,-1.05855 -0.83675,-0.31086 -1.81901,-0.80612 -2.18282,-1.10058 l -0.66145,-0.53538 0.79375,0.17325 c 0.43656,0.0953 0.90686,0.27694 1.0451,0.40367 0.13824,0.12674 0.37637,0.22984 0.52917,0.22911 0.15279,-7.2e-4 -0.0794,-0.29409 -0.51594,-0.65194 -0.56041,-0.45936 -0.66716,-0.65343 -0.36313,-0.66014 0.23685,-0.005 0.57885,0.16907 0.76,0.38736 0.18116,0.21828 0.61665,0.39687 0.96775,0.39687 0.54915,0 0.60009,-0.0715 0.36448,-0.51177 -0.41849,-0.78196 -0.32831,-0.94241 0.24041,-0.42772 0.48319,0.43728 0.58327,0.4391 1.65392,0.0302 1.38256,-0.52801 2.02932,-0.60925 5.15921,-0.64806 2.13338,-0.0265 2.51982,-0.10515 3.14128,-0.63971 0.59782,-0.51422 0.67959,-0.7418 0.5229,-1.45521 -0.1026,-0.46712 -0.35398,-0.84567 -0.56159,-0.84567 -0.20672,0 -0.37586,-0.0971 -0.37586,-0.21586 0,-0.36929 -2.01955,-1.37164 -2.76361,-1.37164 -0.44187,0 -0.6405,-0.10791 -0.52943,-0.28763 0.0978,-0.1582 0.40245,-0.22888 0.67707,-0.15706 0.27462,0.0718 0.49931,0.0411 0.49931,-0.0681 0,-0.10929 -0.74414,-0.38584 -1.65365,-0.61456 -1.51111,-0.38001 -1.56678,-0.41776 -0.64584,-0.43798 1.16984,-0.0257 1.09342,-0.55129 -0.0802,-0.55129 -0.4185,0 -1.09609,-0.13577 -1.50574,-0.30171 l -0.74483,-0.30171 0.66146,-0.20109 c 0.6098,-0.18537 0.58913,-0.20559 -0.26459,-0.25878 -0.50932,-0.0317 -1.01533,-0.0436 -1.12448,-0.0264 -0.10914,0.0172 -0.19843,-0.086 -0.19843,-0.22934 0,-0.36679 6.6938,-0.21923 7.16956,0.15805 0.20409,0.16183 0.71639,0.37695 1.13846,0.47805 1.4634,0.3505 5.979479,4.03546 5.979479,4.87903 0,0.12422 0.71101,0.74363 1.58003,1.37646 1.51157,1.10076 2.04504,1.73846 1.72339,2.06011 -0.0817,0.0817 -0.53103,-0.0107 -0.99842,-0.20534 -0.46739,-0.19468 -1.55111,-0.59838 -2.40827,-0.89712 -1.539869,-0.53666 -1.563569,-0.53703 -1.984379,-0.031 -0.23424,0.2817 -0.75332,0.68113 -1.1535,0.88762 -0.65619,0.33859 -0.7276,0.51427 -0.7276,1.78983 0,1.22723 -0.11379,1.5383 -0.8599,2.35087 -0.83857,0.91326 -0.93321,0.94433 -3.81664,1.25288 l -2.95674,0.3164 0.36768,0.66146 c 0.33302,0.59911 0.3721,0.61158 0.4146,0.13229 0.0258,-0.29104 0.11932,-0.0529 0.20781,0.52917 l 0.1609,1.05833 2.56126,0.0398 c 1.58,0.0245 3.50597,0.26245 5.02708,0.62098 2.622209,0.61807 2.793169,0.65465 4.847069,1.03725 1.6161,0.30104 3.02076,0.83733 2.60278,0.99372 -0.1692,0.0633 -2.25279,-0.36001 -4.63021,-0.94071 -2.377409,-0.58069 -5.334599,-1.13458 -6.571529,-1.23087 -2.29336,-0.17852 -2.95756,2e-4 -0.79375,0.21358 0.65485,0.0646 1.36922,0.19314 1.5875,0.2857 0.21829,0.0926 1.46844,0.40058 2.77813,0.6845 1.30969,0.28391 3.036089,0.69188 3.836459,0.9066 0.80036,0.21471 2.14142,0.52763 2.98012,0.69537 0.83871,0.16774 1.46635,0.39975 1.39476,0.51558 -0.1805,0.29207 -1.53476,0.015 -6.491549,-1.32822 -1.71815,-0.46558 -5.41646,-1.26589 -6.48229,-1.40275 -0.58208,-0.0747 -1.69966,-0.26139 -2.48351,-0.41477 -0.78385,-0.15337 -1.79588,-0.27524 -2.24896,-0.27082 -1.31645,0.0129 -0.26611,0.42581 1.55747,0.61233 2.3885,0.24431 14.948959,3.41281 14.948959,3.77102 0,0.16727 -1.21679,0.12446 -1.39015,-0.0489 z M 51.329168,60.7282 c 0,-0.1951 -0.14883,-0.6795 -0.33073,-1.07645 -0.68761,-1.50051 -2.55119,-1.06004 -2.20357,0.52083 0.14931,0.67906 0.28812,0.76474 1.35036,0.8336 0.85164,0.0552 1.18394,-0.0228 1.18394,-0.27798 z m -3.07039,-0.92933 c -0.24715,-1.23576 0.53051,-1.67171 3.24846,-1.82104 1.31557,-0.0723 3.0634,-0.36882 4.00235,-0.67905 1.43435,-0.47391 1.72,-0.67786 2.04762,-1.46198 0.20941,-0.50118 0.36248,-1.37734 0.34016,-1.94701 -0.0285,-0.7274 0.12465,-1.21216 0.51444,-1.62827 0.72457,-0.7735 1.12143,-1.85066 0.93895,-2.54848 -0.12085,-0.46212 -0.0273,-0.55757 0.54651,-0.55757 0.79457,0 0.90675,0.37798 0.22929,0.77256 -0.40467,0.2357 -0.37967,0.27188 0.19844,0.28711 0.3638,0.01 0.959119,0.18757 1.322919,0.39554 0.97009,0.55456 1.28988,0.46188 0.54514,-0.15798 -0.35501,-0.29549 -0.77173,-0.78606 -0.92604,-1.09017 -0.154309,-0.30411 -0.617269,-0.80252 -1.028809,-1.10759 -0.72398,-0.53668 -0.75988,-0.5388 -1.10688,-0.0652 -0.21358,0.29154 -0.49093,0.40775 -0.68577,0.28733 -0.22898,-0.14152 -0.27575,-0.0682 -0.15585,0.24421 0.14163,0.36909 0.0853,0.40036 -0.32547,0.18054 -0.38046,-0.20362 -0.53499,-0.16623 -0.66006,0.1597 -0.0898,0.23406 -0.0289,0.58753 0.13538,0.78547 0.47414,0.5713 0.0649,1.50657 -0.94198,2.15272 -0.51021,0.32742 -1.04839,0.59531 -1.19595,0.59531 -0.48794,0 -0.27836,0.57607 0.26087,0.71709 1.07692,0.28162 0.47035,1.16973 -1.45521,2.13064 -0.70716,0.3529 -2.15575,0.6407 -4.36562,0.86736 -1.81901,0.18657 -4.0812,0.49745 -5.02709,0.69086 l -1.71979,0.35164 2.43415,-0.12601 c 1.47535,-0.0764 2.49844,-0.022 2.59738,0.13811 0.0898,0.14527 -0.007,0.60493 -0.21457,1.02147 -0.33238,0.66627 -0.32714,0.84086 0.0436,1.45184 0.53101,0.87516 0.58526,0.86989 0.40344,-0.0392 z m 9.2881,-10.37881 c -0.0899,-0.14552 -0.0374,-0.26459 0.11667,-0.26459 0.15411,0 0.2802,0.11907 0.2802,0.26459 0,0.14552 -0.0525,0.26458 -0.11668,0.26458 -0.0642,0 -0.19026,-0.11906 -0.28019,-0.26458 z m -10.18646,8.3875 c 0,-0.24379 -0.28851,-0.30619 -0.99219,-0.21458 l -0.99219,0.12916 0.79375,0.18328 c 1.18401,0.27339 1.19063,0.27285 1.19063,-0.0979 z m -3.51124,-1.13902 c -0.0879,-0.0879 -0.31613,-0.0973 -0.50712,-0.0209 -0.21107,0.0845 -0.14837,0.14716 0.15985,0.15985 0.27892,0.0115 0.43518,-0.051 0.34727,-0.13896 z m 8.67061,-1.29006 c 1.63729,-0.38394 3.11275,-1.13312 2.90229,-1.47366 -0.0867,-0.14035 -0.52056,-0.44282 -0.96403,-0.67215 -0.96078,-0.49684 -4.60161,-0.59364 -5.0607,-0.13455 -0.22442,0.22442 -0.068,0.26018 0.61717,0.14108 0.69229,-0.12033 0.82027,-0.09 0.5209,0.12328 -0.21828,0.15554 -0.84336,0.28463 -1.38907,0.28686 -0.5457,0.002 -0.99218,0.11438 -0.99218,0.24923 0,0.13485 -0.20836,0.29964 -0.46302,0.36619 -0.25466,0.0666 0.05,0.13481 0.67707,0.15169 0.65661,0.0177 1.07331,0.13874 0.98262,0.28549 -0.0866,0.14013 -0.89731,0.2084 -1.80155,0.1517 -1.15901,-0.0727 -1.40989,-0.04 -0.85033,0.11077 0.43656,0.11763 1.38906,0.24737 2.11667,0.2883 l 1.32291,0.0744 -1.45521,0.18628 c -1.43638,0.18387 -1.42954,0.18621 0.52917,0.18078 1.09141,-0.003 2.57969,-0.14509 3.30729,-0.31572 z m -3.88607,-1.37666 c 0.191,-0.0764 0.4192,-0.067 0.50712,0.0209 0.0879,0.0879 -0.0684,0.15045 -0.34726,0.13896 -0.30823,-0.0127 -0.37092,-0.0754 -0.15986,-0.15985 z m 11.16211,-2.4651 c 0,-0.14552 -0.0525,-0.26458 -0.11667,-0.26458 -0.0642,0 -0.19026,0.11906 -0.2802,0.26458 -0.0899,0.14553 -0.0374,0.26459 0.11668,0.26459 0.1541,0 0.28019,-0.11906 0.28019,-0.26459 z m -1.38906,-3.76946 c 0.32742,-0.15879 0.59531,-0.36198 0.59531,-0.45153 0,-0.2382 -1.67976,-1.20441 -1.94901,-1.12109 -0.12607,0.039 -0.50883,-0.11227 -0.85058,-0.3362 -0.87686,-0.57453 -1.08185,-0.50598 -0.33857,0.11323 0.76447,0.63687 0.58335,0.67481 -0.54184,0.11349 -1.06224,-0.52991 -1.40337,-0.29464 -0.37828,0.26089 0.41304,0.22384 0.63193,0.40754 0.48641,0.40821 -0.14552,6.7e-4 -0.56224,-0.16894 -0.92604,-0.37691 -1.14941,-0.65706 -1.21759,-0.42884 -0.13832,0.46302 1.85103,1.52961 2.49401,1.6771 4.04092,0.92689 z m 9.557259,15.28905 c -0.0671,-0.0671 -1.90269,-0.59436 -4.07899,-1.17159 -2.1763,-0.57723 -3.645929,-1.05808 -3.265839,-1.06855 0.642789,-0.0177 8.150349,1.98732 8.408719,2.2457 0.0641,0.0641 -0.1216,0.11652 -0.41264,0.11652 -0.29104,0 -0.58411,-0.0549 -0.65125,-0.12208 z m -0.0984,-1.03029 c -1.98166,-0.86524 -6.2833,-2.02863 -8.863549,-2.39718 -0.65484,-0.0935 -1.36921,-0.29408 -1.5875,-0.44567 -0.29493,-0.20482 -0.15902,-0.23708 0.52917,-0.1256 0.50932,0.0825 1.81901,0.27198 2.91042,0.42106 2.728609,0.37271 8.466659,2.18462 8.466659,2.67353 0,0.32548 -0.5251,0.27997 -1.4552,-0.12614 z M 57.017708,60.4063 c -1.07815,-0.27713 -1.17606,-0.34492 -0.52917,-0.36637 0.43656,-0.0145 1.38906,0.13932 2.11667,0.34178 1.04301,0.29023 1.15497,0.36775 0.52917,0.36637 -0.43657,-9.5e-4 -1.38907,-0.15476 -2.11667,-0.34178 z m -22.09271,-4.10708 c 0,-0.3315 0.28079,-0.3315 0.79375,0 0.32093,0.2074 0.28296,0.25726 -0.19844,0.26054 -0.32742,0.002 -0.59531,-0.11501 -0.59531,-0.26054 z"
       id="path21" />
  </g>
</svg>
