<?xml version="1.0" encoding="UTF-8" standalone="no"?>
<!-- Created with Inkscape (http://www.inkscape.org/) -->

<svg
   width="31.150875mm"
   height="19.047844mm"
   viewBox="0 0 31.150875 19.047844"
   version="1.1"
   id="svg1"
   inkscape:version="1.4.2 (2aeb623e1d, 2025-05-12)"
   sodipodi:docname="boat.svg"
   xmlns:inkscape="http://www.inkscape.org/namespaces/inkscape"
   xmlns:sodipodi="http://sodipodi.sourceforge.net/DTD/sodipodi-0.dtd"
   xmlns="http://www.w3.org/2000/svg"
   xmlns:svg="http://www.w3.org/2000/svg">
  <sodipodi:namedview
     id="namedview1"
     pagecolor="#ffffff"
     bordercolor="#000000"
     borderopacity="0.25"
     inkscape:showpageshadow="2"
     inkscape:pageopacity="0.0"
     inkscape:pagecheckerboard="0"
     inkscape:deskcolor="#d1d1d1"
     inkscape:document-units="mm"
     inkscape:zoom="0.7349537"
     inkscape:cx="300.69921"
     inkscape:cy="490.50709"
     inkscape:window-width="1854"
     inkscape:window-height="1011"
     inkscape:window-x="0"
     inkscape:window-y="0"
     inkscape:window-maximized="1"
     inkscape:current-layer="layer1" />
  <defs
     id="defs1" />
  <g
     inkscape:label="Layer 1"
     inkscape:groupmode="layer"
     id="layer1"
     transform="translate(-25.512082,-18.819998)">
    <path
       style="fill:#000000"
       d="m 41.075732,37.69193 c -4.24718,-0.24983 -1.71516,-0.40595 4.36562,-0.26917 5.18625,0.11665 5.71402,0.16312 3.57188,0.31449 -2.62075,0.18519 -4.16912,0.17635 -7.9375,-0.0453 z m -7.0363,-0.30235 c -0.28205,-0.11519 0.57435,-0.18303 1.94307,-0.15393 1.34607,0.0286 2.44739,0.13914 2.44739,0.2456 0,0.25322 -3.73702,0.17519 -4.39046,-0.0917 z m -2.8029,-0.40756 c 0.191,-0.0764 0.4192,-0.067 0.50712,0.0209 0.0879,0.0879 -0.0684,0.15045 -0.34726,0.13897 -0.30823,-0.0127 -0.37092,-0.0754 -0.15986,-0.15986 z m 11.9291,-0.1988 c -0.0723,-0.0723 -1.70321,-0.14682 -3.62429,-0.16565 -1.93777,-0.019 -3.42871,-0.13803 -3.34877,-0.26738 0.18172,-0.29402 16.20536,-0.26759 16.9217,0.0279 0.3077,0.12694 -1.48266,0.22608 -4.27784,0.23689 -2.64385,0.0102 -4.97179,0.0818 -5.1732,0.15912 -0.2014,0.0773 -0.42532,0.0814 -0.4976,0.009 z m -9.10136,-0.41421 -1.32292,-0.18144 1.52136,-0.0416 c 0.86556,-0.0236 1.52135,0.0725 1.52135,0.22301 0,0.14553 -0.0893,0.24588 -0.19844,0.22302 -0.10914,-0.0229 -0.79375,-0.12322 -1.52135,-0.22302 z m -3.04271,-0.26458 c -0.52376,-0.16774 -0.5513,-0.21183 -0.13229,-0.21183 0.29104,0 0.82682,0.0953 1.19062,0.21183 0.52377,0.16774 0.55131,0.21184 0.1323,0.21184 -0.29105,0 -0.82683,-0.0953 -1.19063,-0.21184 z m 2.64583,-0.55423 c -0.94588,-0.12326 -2.16848,-0.26947 -2.71687,-0.32491 -0.5484,-0.0554 -1.08418,-0.19017 -1.19063,-0.29939 -0.10645,-0.10923 0.99709,-0.11397 2.4523,-0.0105 2.16467,0.15386 2.5862,0.12562 2.31792,-0.15528 -0.32731,-0.34272 -0.96801,-0.42252 -3.83928,-0.47822 -0.83674,-0.0162 -1.52135,-0.14874 -1.52135,-0.29446 0,-0.16978 0.92663,-0.20709 2.57968,-0.10385 3.53731,0.22091 2.93699,-0.30382 -0.7276,-0.63599 l -2.77812,-0.25182 2.46078,-0.002 c 1.35343,-10e-4 2.52394,-0.0656 2.60112,-0.14278 0.0772,-0.0772 0.0167,-0.37142 -0.13448,-0.65385 -0.39846,-0.74454 -0.88764,-4.0743 -0.63558,-4.32636 0.11777,-0.11777 0.45044,0.14821 0.73927,0.59109 0.58778,0.90128 3.87684,2.71643 4.58312,2.52931 0.31912,-0.0845 0.28422,-0.12498 -0.12707,-0.14724 -0.58693,-0.0318 -0.88821,-0.49825 -0.88821,-1.37525 0,-0.37091 -0.18622,-0.50753 -0.69181,-0.50753 -0.49698,0 -1.22351,-0.51454 -2.57969,-1.82701 -1.03833,-1.00486 -2.24506,-2.1444 -2.68162,-2.53231 -0.43656,-0.38792 -1.36354,-1.24824 -2.05994,-1.91184 -0.69641,-0.66359 -1.31941,-1.15331 -1.38446,-1.08826 -0.065,0.065 -0.009,0.46761 0.12541,0.89458 0.67036,2.13551 0.8758,3.0431 0.72334,3.19556 -0.20507,0.20507 -0.70419,-1.03793 -0.90856,-2.26265 -0.0828,-0.49595 -0.54857,-1.66546 -1.03511,-2.59891 -1.11,-2.12955 -1.11598,-2.48184 -0.0247,-1.4586 0.47294,0.44348 1.68996,1.56213 2.70448,2.4859 1.01452,0.92377 2.45207,2.30384 3.19454,3.06682 1.67662,1.72291 3.81009,2.56649 5.31934,2.10329 0.83985,-0.25775 0.91709,-0.36014 0.78185,-1.03633 -0.1231,-0.61551 -0.0335,-0.80342 0.49854,-1.04585 0.96355,-0.43902 1.36135,0.0559 1.52874,1.90191 0.23046,2.54158 0.13013,2.69775 -1.62678,2.53211 -1.02581,-0.0967 -1.28161,-0.0684 -0.82519,0.0912 0.3638,0.12725 0.97773,0.24324 1.36429,0.25775 0.53907,0.0202 0.67399,0.13668 0.57903,0.4998 -0.0703,0.26884 0.11385,0.68849 0.42614,0.97111 0.53968,0.48841 0.55991,0.48698 1.08492,-0.0765 0.60504,-0.64944 1.72943,-0.73952 2.4462,-0.19598 0.39623,0.30047 0.72187,0.30443 1.93043,0.0235 0.79959,-0.18587 1.51676,-0.40091 1.59371,-0.47786 0.11885,-0.11885 -1.07059,-2.17158 -1.489,-2.56972 -0.0765,-0.0728 -0.46453,-0.52838 -0.86238,-1.01249 -0.80142,-0.9752 -0.93297,-1.63335 -0.32647,-1.63335 0.21828,0 0.39688,0.17618 0.39688,0.3915 0,0.21533 0.48589,0.63939 1.07977,0.94236 1.27832,0.65215 2.62439,0.51115 2.62439,-0.2749 0,-0.98421 0.30794,-1.32354 1.20111,-1.32354 0.66241,0 0.92363,0.13779 1.05683,0.55745 0.28061,0.88412 0.97285,1.57211 2.00422,1.9919 0.54421,0.22151 1.09797,0.69564 1.28764,1.10247 0.18303,0.39259 0.43795,0.92055 0.56649,1.17324 0.12854,0.25268 0.23372,0.77161 0.23372,1.15316 0,0.60786 0.0819,0.67318 0.66145,0.52772 0.50362,-0.1264 0.66146,-0.0627 0.66146,0.26674 0,0.32844 -0.17375,0.39955 -0.72076,0.29498 -0.53498,-0.10227 -0.87272,0.0262 -1.31028,0.49832 l -0.58952,0.6361 h 0.64882 c 0.35685,0 0.64883,0.11907 0.64883,0.26459 0,0.14552 -0.45474,0.26458 -1.01052,0.26458 -1.00427,0 -1.01596,-0.0124 -1.88883,-1.99858 -0.63036,-1.43436 -0.98609,-1.95722 -1.26008,-1.85208 -0.20998,0.0806 -0.43859,0.14649 -0.50804,0.14649 -0.0694,0 -0.0448,0.13178 0.0547,0.29284 0.12642,0.20455 0.24706,0.18591 0.40017,-0.0618 0.15594,-0.25232 0.33917,-0.0505 0.63506,0.69936 0.22873,0.5797 0.53193,1.26074 0.67378,1.51343 0.14185,0.25269 0.25229,0.60987 0.24543,0.79375 -0.007,0.18388 -0.35844,-0.32052 -0.78127,-1.12089 -0.83121,-1.57337 -1.03575,-1.62052 -0.39687,-0.0915 0.76034,1.81977 0.39055,1.78315 -0.48759,-0.0483 -0.48646,-1.01455 -1.0582,-1.98847 -1.27054,-2.16428 -0.42928,-0.35543 -1.63059,-0.15843 -1.39163,0.22821 0.0834,0.13489 0.37306,0.17497 0.64376,0.089 0.59534,-0.18895 1.04761,0.43672 1.86646,2.58208 0.60655,1.58912 0.74326,1.69686 1.58297,1.24747 0.35278,-0.18881 0.51177,-0.18881 0.51177,0 0,0.15064 0.50602,0.27571 1.12448,0.27794 0.61847,0.002 1.30308,0.11947 1.52136,0.26053 0.27529,0.17791 -0.22651,0.25772 -1.63803,0.26053 -1.1192,0.002 -2.10849,0.12312 -2.19843,0.26864 -0.10233,0.16556 0.45292,0.26458 1.48369,0.26458 0.90597,0 1.5678,0.0794 1.47073,0.17648 -0.26511,0.26511 -18.83167,0.32134 -20.8138,0.063 z m 3.175,-0.80804 c 0,-0.13322 -0.17251,-0.65512 -0.38337,-1.15977 -0.21086,-0.50465 -0.28656,-0.91754 -0.16824,-0.91754 0.11833,0 0.41976,0.53578 0.66984,1.19062 0.25009,0.65485 0.56242,1.19063 0.69407,1.19063 0.13165,0 -0.0673,-0.68461 -0.44214,-1.52136 -0.37482,-0.83674 -0.78709,-1.78924 -0.91615,-2.11666 -0.12906,-0.32742 -0.38856,-0.59532 -0.57666,-0.59532 -0.18811,0 -0.79799,-0.30984 -1.3553,-0.68854 -0.73826,-0.50167 -1.09245,-0.60938 -1.30496,-0.39688 -0.2125,0.21251 -0.1834,0.29167 0.10723,0.29167 0.44986,0 2.19093,3.28503 2.00515,3.78329 -0.0652,0.17477 -0.25489,-0.0394 -0.42161,-0.47599 -0.16672,-0.43657 -0.50834,-1.189 -0.75914,-1.67208 -0.37122,-0.71502 -0.47094,-0.78252 -0.53632,-0.36305 -0.11198,0.71847 1.13921,2.83717 1.64889,2.79213 0.23128,-0.0204 0.4158,0.16547 0.4158,0.41892 0,0.25062 0.0664,0.5221 0.14761,0.60329 0.21643,0.21643 1.1753,-0.08 1.1753,-0.36336 z m -1.64606,-2.05553 c -0.53159,-1.18202 -0.86784,-2.08814 -0.74723,-2.0136 0.34322,0.21212 1.90754,3.58138 1.80526,3.8882 -0.0503,0.15099 -0.52644,-0.69258 -1.05803,-1.8746 z m 3.49794,2.29332 c -3.5e-4,-0.5595 -1.54841,-3.63802 -1.82941,-3.63802 -0.14552,0 0.0875,0.74414 0.51773,1.65365 0.43027,0.9095 0.7824,1.80247 0.78251,1.98437 1.2e-4,0.1819 0.11927,0.33073 0.26479,0.33073 0.14553,0 0.26449,-0.14883 0.26438,-0.33073 z m 0.53946,-1.237 c -0.30251,-0.59296 -0.44297,-1.0781 -0.31215,-1.0781 0.13083,0 0.39098,0.38695 0.57812,0.85989 0.45787,1.15713 1.02722,1.78594 1.61703,1.78594 0.49692,0 0.6787,-0.64476 0.25552,-0.9063 -0.12796,-0.0791 -0.29545,-0.38393 -0.3722,-0.67744 -0.20728,-0.79263 0.21271,-0.41008 0.71738,0.65343 0.40291,0.84908 1.16828,1.37167 0.87812,0.59958 -0.0684,-0.1819 -0.19893,-0.62838 -0.29016,-0.99219 -0.12095,-0.4823 -0.0612,-0.43404 0.22077,0.17819 0.40828,0.88664 0.93082,1.37973 0.93082,0.87837 0,-0.16368 -0.12325,-0.52789 -0.27389,-0.80937 -0.15065,-0.28147 -0.16976,-0.51177 -0.0425,-0.51177 0.12728,0 0.36704,0.29766 0.5328,0.66146 0.29976,0.65791 1.01142,0.96191 0.77422,0.33073 -0.63824,-1.69829 -0.43062,-2.13549 0.25129,-0.52917 0.23165,0.54571 0.47142,0.84996 0.53282,0.67613 0.0614,-0.17383 -0.0193,-0.56079 -0.17942,-0.8599 -0.2015,-0.3765 -0.20475,-0.54383 -0.0105,-0.54383 0.15428,0 0.35195,0.35719 0.43926,0.79375 0.0873,0.43656 0.27567,0.79375 0.41857,0.79375 0.1429,0 0.20389,-0.14883 0.13553,-0.33073 -0.45441,-1.20914 -0.42087,-1.54882 0.0653,-0.6619 l 0.54369,0.99175 1.80573,-0.0914 c 0.99316,-0.0503 1.94019,-0.17446 2.10452,-0.27602 0.19855,-0.1227 -0.0649,-0.71736 -0.7852,-1.77267 -1.13182,-1.65812 -1.49492,-1.88482 -1.02058,-0.6372 0.15367,0.40417 0.21986,0.79438 0.1471,0.86714 -0.13552,0.13553 -0.67626,-1.1005 -0.67626,-1.54582 0,-0.13605 -0.11906,-0.24736 -0.26459,-0.24736 -0.34072,0 -0.33791,0.0245 0.1323,1.14982 0.45563,1.09047 0.51873,1.86714 0.13229,1.62831 -0.14552,-0.0899 -0.26459,-0.33892 -0.26459,-0.55328 0,-0.60373 -0.8386,-2.39427 -0.96575,-2.06203 -0.0621,0.16232 0.12803,0.90646 0.42255,1.65365 0.29452,0.74719 0.42773,1.35853 0.29602,1.35853 -0.2551,0 -1.22996,-2.62001 -1.1196,-3.00902 0.036,-0.12699 -0.14772,-0.14686 -0.40833,-0.0441 -1.45808,0.57466 -7.48818,0.76382 -8.30266,0.26045 -0.36689,-0.22675 -0.35924,-0.2075 0.79397,1.99896 0.49437,0.94589 0.94696,1.57986 1.00575,1.40883 0.0588,-0.17103 -0.14061,-0.79611 -0.44311,-1.38906 z m 7.15835,0.0464 c -0.17801,-0.54571 -0.39175,-1.17078 -0.47497,-1.38907 -0.0832,-0.21828 -0.0502,-0.3021 0.0734,-0.18627 0.34025,0.3188 1.14805,2.56752 0.92231,2.56752 -0.10842,0 -0.34278,-0.44648 -0.52079,-0.99218 z m -6.46288,-0.24254 c -0.097,-0.097 -0.17639,-0.29942 -0.17639,-0.44979 0,-0.16579 0.12324,-0.15017 0.31309,0.0397 0.1722,0.1722 0.25158,0.3746 0.17639,0.44979 -0.0752,0.0752 -0.21608,0.0573 -0.31309,-0.0397 z m 9.84892,-2.05276 c -0.18812,-0.52022 -0.4967,-0.94585 -0.68575,-0.94585 -0.45347,0 -0.44056,0.0702 0.21824,1.1868 0.68738,1.16502 0.93059,1.03968 0.46751,-0.24095 z m 3.46844,0.75685 c 0,-0.0822 -0.25434,-0.74063 -0.56521,-1.46326 -0.31087,-0.72263 -0.50361,-1.37548 -0.42832,-1.45077 0.0753,-0.0753 0.35941,0.40413 0.63136,1.06539 0.27195,0.66126 0.57716,1.20274 0.67824,1.20328 0.2482,10e-4 -0.88079,-2.72828 -1.22575,-2.96357 -0.62176,-0.42408 -0.73211,0.66242 -0.17963,1.76864 0.30808,0.61688 0.56014,1.31691 0.56014,1.55563 0,0.23873 0.11907,0.43404 0.26459,0.43404 0.14552,0 0.26458,-0.0672 0.26458,-0.14938 z m -10.50492,-0.93637 c -0.20927,-0.20927 -0.4304,-0.21155 -0.78052,-0.008 -0.42826,0.24893 -0.39224,0.28495 0.292,0.292 0.56921,0.006 0.70147,-0.071 0.48852,-0.28396 z m -3.25341,-0.0893 c 0,-0.0642 -0.11906,-0.19026 -0.26459,-0.28019 -0.14552,-0.0899 -0.26458,-0.0374 -0.26458,0.11667 0,0.15411 0.11906,0.2802 0.26458,0.2802 0.14553,0 0.26459,-0.0525 0.26459,-0.11668 z m 14.2875,-1.33853 c -0.76684,-1.58407 -0.96668,-1.38423 -0.24569,0.24569 0.30497,0.68942 0.6177,1.19029 0.69496,1.11303 0.0773,-0.0773 -0.12491,-0.68868 -0.44927,-1.35872 z m -15.875,0.2802 c 0,-0.0642 -0.11906,-0.19026 -0.26459,-0.2802 -0.14552,-0.0899 -0.26458,-0.0374 -0.26458,0.11668 0,0.15411 0.11906,0.2802 0.26458,0.2802 0.14553,0 0.26459,-0.0525 0.26459,-0.11668 z m 12.20666,-1.63013 c -0.17612,-0.38655 -0.26069,-0.76236 -0.18793,-0.83512 0.0728,-0.0728 0.27492,0.18075 0.44925,0.56336 0.4169,0.915 0.81793,0.89363 0.59977,-0.0319 -0.25558,-1.0844 -0.40756,-1.15427 -1.97324,-0.90714 -1.34942,0.21299 -1.38873,0.23976 -0.64347,0.43811 0.94389,0.25122 1.49949,0.64635 1.31914,0.93815 -0.24214,0.3918 0.18369,1.11044 0.48152,0.81261 0.19054,-0.19053 0.17668,-0.49141 -0.045,-0.97802 z m -0.9751,0.40517 c 0.39403,-0.38542 -0.12438,-0.72766 -1.41441,-0.93376 l -1.16306,-0.18582 0.49989,0.84624 c 0.41339,0.69981 0.61465,0.81795 1.16306,0.68272 0.36474,-0.0899 0.77628,-0.27416 0.91452,-0.40938 z m -9.83746,-0.15483 c -0.17914,-0.0725 -0.53632,-0.0769 -0.79375,-0.01 -0.25744,0.0671 -0.11087,0.12638 0.32569,0.13177 0.43656,0.005 0.64719,-0.0495 0.46806,-0.12197 z m 0.25954,-0.54669 c -0.1819,-0.0647 -0.33073,-0.28628 -0.33073,-0.49243 0,-0.21352 -0.25619,-0.37308 -0.59531,-0.37078 -0.48139,0.003 -0.51936,0.0531 -0.19844,0.26053 0.28705,0.18551 0.0491,0.25761 -0.85989,0.26054 -0.69123,0.002 -1.25677,0.1142 -1.25677,0.24884 0,0.13463 0.80367,0.23716 1.78594,0.22785 0.98226,-0.009 1.6371,-0.0699 1.4552,-0.13455 z m 11.88862,-0.66 c -0.18986,-0.18986 -0.3131,-0.20548 -0.3131,-0.0397 0,0.35316 0.3129,0.66606 0.48948,0.48948 0.0752,-0.0752 -0.004,-0.27759 -0.17638,-0.44979 z m -11.69018,-0.96861 c 0,-0.1277 -0.17859,-0.38041 -0.39687,-0.56157 -0.32187,-0.26712 -0.39688,-0.25658 -0.39688,0.0558 0,0.21185 0.0794,0.46455 0.17639,0.56157 0.25127,0.25127 0.61736,0.21818 0.61736,-0.0558 z m 10.45104,-0.29698 c -0.0899,-0.14552 -0.28258,-0.26459 -0.4281,-0.26459 -0.14552,0 -0.191,0.11907 -0.10106,0.26459 0.0899,0.14552 0.28258,0.26458 0.4281,0.26458 0.14552,0 0.191,-0.11906 0.10106,-0.26458 z m 5.49514,7.22498 c 0.25743,-0.0671 0.61462,-0.0627 0.79375,0.01 0.17913,0.0725 -0.0315,0.12736 -0.46805,0.12197 -0.43657,-0.005 -0.58313,-0.0647 -0.3257,-0.13177 z m -0.99722,-0.87498 c 0.0899,-0.14552 0.21603,-0.26459 0.2802,-0.26459 0.0642,0 0.11668,0.11907 0.11668,0.26459 0,0.14552 -0.12609,0.26458 -0.2802,0.26458 -0.15411,0 -0.20662,-0.11906 -0.11668,-0.26458 z m 0.7784,0.0248 c 0.0815,-0.13186 0.38618,-0.17751 0.67707,-0.10144 0.72802,0.19038 0.66253,0.34118 -0.14817,0.34118 -0.37239,0 -0.61039,-0.10788 -0.5289,-0.23974 z M 27.978852,32.4002 c -0.18967,-0.30689 1.39637,-0.31182 3.57188,-0.0111 1.36636,0.18888 1.30673,0.20344 -0.97658,0.23842 -1.37826,0.0211 -2.50262,-0.0774 -2.5953,-0.22734 z m 0.8599,-3.26479 c -0.40018,-1.21307 -0.72761,-2.34397 -0.72761,-2.5131 0,-0.61179 0.52304,-0.28998 0.68275,0.42008 0.09,0.40018 0.38994,1.39038 0.6665,2.20043 0.54197,1.58745 0.61621,2.0993 0.3044,2.09861 -0.10914,-2.4e-4 -0.52586,-0.99295 -0.92604,-2.20602 z"
       id="path22" />
  </g>
</svg>
