<?xml version="1.0" encoding="UTF-8" standalone="no"?>
<!-- Created with Inkscape (http://www.inkscape.org/) -->

<svg
   width="75.912674mm"
   height="42.877037mm"
   viewBox="0 0 75.912674 42.877037"
   version="1.1"
   id="svg1"
   inkscape:version="1.4.2 (2aeb623e1d, 2025-05-12)"
   sodipodi:docname="soldiers.svg"
   xmlns:inkscape="http://www.inkscape.org/namespaces/inkscape"
   xmlns:sodipodi="http://sodipodi.sourceforge.net/DTD/sodipodi-0.dtd"
   xmlns="http://www.w3.org/2000/svg"
   xmlns:svg="http://www.w3.org/2000/svg">
  <sodipodi:namedview
     id="namedview1"
     pagecolor="#ffffff"
     bordercolor="#000000"
     borderopacity="0.25"
     inkscape:showpageshadow="2"
     inkscape:pageopacity="0.0"
     inkscape:pagecheckerboard="0"
     inkscape:deskcolor="#d1d1d1"
     inkscape:document-units="mm"
     inkscape:zoom="0.7349537"
     inkscape:cx="253.07717"
     inkscape:cy="354.44409"
     inkscape:window-width="1854"
     inkscape:window-height="1011"
     inkscape:window-x="0"
     inkscape:window-y="0"
     inkscape:window-maximized="1"
     inkscape:current-layer="layer1" />
  <defs
     id="defs1" />
  <g
     inkscape:label="Layer 1"
     inkscape:groupmode="layer"
     id="layer1"
     transform="translate(-38.100002,-54.768747)">
    <path
       style="fill:#000000"
       d="m 49.94848,97.50606 c -0.95279,-0.14434 -0.93132,-0.51428 0.0381,-0.65656 0.92789,-0.13619 1.97671,0.21113 1.7492,0.57925 -0.16582,0.2683 -0.44644,0.28044 -1.78732,0.0773 z M 49.8085,96.44114 c -0.9617,-0.0545 -1.59581,-0.20016 -1.50574,-0.3459 0.29594,-0.47884 4.62228,-0.18679 4.62228,0.31203 0,0.12648 -0.32742,0.20702 -0.7276,0.17899 -0.40018,-0.028 -1.47521,-0.0933 -2.38894,-0.14512 z m 2.32279,-0.8721 c -0.65484,-0.11452 -1.9414,-0.15978 -2.85901,-0.10058 -1.06484,0.0687 -1.60955,0.0124 -1.50574,-0.15555 0.32241,-0.52167 6.48142,-0.23602 6.48142,0.30061 0,0.26112 -0.41954,0.25231 -2.11667,-0.0445 z m 0.39688,-1.04926 c -0.87313,-0.10316 -2.59953,-0.15517 -3.83646,-0.11558 -1.7055,0.0546 -2.08912,0.008 -1.5875,-0.1919 0.81871,-0.32663 7.02006,-0.1216 7.9375,0.26243 l 0.66146,0.27688 -0.79375,-0.0221 c -0.43656,-0.0122 -1.50813,-0.10653 -2.38125,-0.2097 z m 2.38125,-0.86195 c -1.16417,-0.12475 -3.83002,-0.16737 -5.92412,-0.0947 -2.45261,0.0851 -3.71637,0.041 -3.5515,-0.12382 0.37824,-0.37824 11.62009,-0.45168 11.99359,-0.0784 0.47167,0.47147 -0.17607,0.54784 -2.51797,0.29687 z M 39.299,92.46113 c 0.24673,-0.24534 2.41245,-0.54457 4.23334,-0.5849 0.60186,-0.0133 0.69504,-0.0754 0.38542,-0.25666 -0.22457,-0.13149 -1.14731,-0.20895 -2.05052,-0.17214 -0.90321,0.0368 -1.6422,-0.0306 -1.6422,-0.14975 0,-0.11918 0.72141,-0.21669 1.60312,-0.21669 1.00605,0 1.54194,-0.099 1.43887,-0.26575 -0.0903,-0.14616 -0.6629,-0.22544 -1.27238,-0.17618 -0.60948,0.0493 -1.70346,0.006 -2.43106,-0.0958 -1.21003,-0.16953 -1.13808,-0.18837 0.84326,-0.2207 l 2.16617,-0.0353 -0.1448,-0.89235 c -0.0797,-0.49079 -0.002,-1.53259 0.17211,-2.3151 0.1743,-0.78252 0.37322,-2.00712 0.44205,-2.72134 0.13576,-1.40888 0.25364,-1.20681 -2.13081,-3.65249 -1.30421,-1.33769 -1.43356,-1.64759 -0.82894,-1.98595 0.32689,-0.18294 0.28505,-0.42194 -0.27037,-1.54423 -0.36141,-0.73029 -0.73126,-1.95379 -0.82187,-2.71888 l -0.16476,-1.39109 0.69971,0.31881 c 0.61149,0.27861 0.83217,0.68266 0.73515,1.34601 -0.015,0.10235 0.22628,0.75719 0.53612,1.4552 l 0.56333,1.26911 0.18408,-0.81684 c 0.424,-1.88149 1.13006,-1.92493 1.77495,-0.1092 0.27413,0.77183 0.63136,1.32292 0.85755,1.32292 0.30154,0 0.31713,-0.0706 0.0702,-0.3175 -0.50679,-0.50679 -0.39492,-0.66567 1.00542,-1.42783 0.7276,-0.39601 1.32291,-0.80103 1.32291,-0.90005 0,-0.099 -0.46523,-0.61049 -1.03386,-1.1366 -1.29595,-1.19906 -1.72635,-2.44662 -1.51434,-4.3895 0.14767,-1.35326 0.12694,-1.43999 -0.23233,-0.97222 -0.35447,0.46151 -0.53893,2.0313 -0.406,3.45516 0.0272,0.29104 0.46625,1.16544 0.97573,1.9431 1.09289,1.66818 1.04573,2.13449 -0.0552,0.54584 -0.86894,-1.25387 -1.09668,-1.00046 -0.65988,0.73424 0.16713,0.66375 0.24766,1.26302 0.17896,1.33173 -0.20603,0.20603 -0.6896,-1.83471 -0.69118,-2.91688 -9.2e-4,-0.62419 -0.10528,-0.94365 -0.27418,-0.83926 -0.15816,0.0978 -0.20136,0.54882 -0.10285,1.07394 0.11061,0.58957 0.0673,0.90541 -0.12417,0.90541 -0.26599,0 -0.45869,-1.33118 -0.28725,-1.98437 0.0786,-0.29951 0.49488,-2.90278 0.59128,-3.69779 0.0349,-0.28753 -0.0595,-0.52565 -0.20976,-0.52916 -0.15023,-0.004 -0.80507,-0.22817 -1.4552,-0.49923 -0.65013,-0.27107 -1.62854,-0.67611 -2.17425,-0.90008 -0.99052,-0.40655 -1.36016,-1.12062 -0.58008,-1.12062 0.33741,0 1.85022,0.7385 3.15977,1.54248 0.14552,0.0893 0.38365,0.18957 0.52917,0.22274 0.14552,0.0332 0.50402,0.13226 0.79667,0.2202 0.3752,0.11275 0.75,-0.0676 1.27114,-0.61151 l 0.73905,-0.7714 -1.39447,-1.16115 c -1.50434,-1.25263 -2.84736,-2.63272 -2.85984,-2.93878 -0.0204,-0.49883 1.0896,0.30626 2.77602,2.01356 1.02175,1.03441 2.3288,2.26769 2.90455,2.74063 0.60518,0.49712 0.875,0.8599 0.63955,0.8599 -0.224,0 -0.65745,-0.23308 -0.96323,-0.51796 -0.59824,-0.55734 -0.914,-0.38968 -1.2246,0.65025 -0.12804,0.42869 0.0973,0.67032 1.18659,1.27252 0.73955,0.40885 1.37684,0.7065 1.41621,0.66146 0.0394,-0.045 0.18623,-0.76136 0.32639,-1.59181 l 0.25482,-1.50991 -1.61151,-1.69938 c -2.19092,-2.31039 -3.57226,-3.98512 -3.4175,-4.1434 0.0706,-0.0722 1.2819,1.09271 2.6917,2.5888 l 2.56328,2.72015 0.32403,-0.85847 c 0.30004,-0.79489 0.26851,-0.91802 -0.42574,-1.66275 -0.41237,-0.44236 -1.0352,-1.22101 -1.38405,-1.73033 l -0.63428,-0.92605 0.74222,0.58111 c 0.40821,0.31961 1.0831,1.01007 1.49975,1.53436 l 0.75754,0.95324 0.43983,-0.92687 c 0.24191,-0.50978 0.6076,-1.0661 0.81265,-1.23628 0.21272,-0.17654 0.0801,0.32997 -0.30884,1.17952 l -0.68166,1.48893 1.01756,0.99112 c 1.93642,1.88612 1.95217,1.88992 1.77581,0.42763 -0.0855,-0.70872 -0.31272,-1.82437 -0.50498,-2.47921 -0.57779,-1.96793 -0.72513,-2.80553 -0.44212,-2.51355 0.3014,0.31098 1.3685,4.13176 1.3685,4.89999 0,0.4703 0.0655,0.49181 0.59531,0.19549 0.32742,-0.18314 0.63473,-0.35254 0.6829,-0.37646 0.0482,-0.0239 -0.0487,-0.29805 -0.21517,-0.60918 -0.16651,-0.31113 -0.26025,-0.76781 -0.2083,-1.01485 0.0804,-0.38243 0.14166,-0.36368 0.41221,0.12617 0.17477,0.31642 0.35407,0.79267 0.39844,1.05833 0.18921,1.1328 1.51443,2.31363 1.50712,1.34291 -0.003,-0.36258 -0.8954,-4.73042 -1.31128,-6.41614 -0.33741,-1.36762 -0.33841,-1.62573 -0.005,-1.29234 0.14779,0.14779 0.51538,1.56999 0.81687,3.16044 0.30149,1.59045 0.63391,3.04494 0.7387,3.2322 0.1048,0.18726 0.60041,0.54505 1.10136,0.79509 0.82397,0.41126 0.9326,0.59967 1.13929,1.97596 0.14199,0.94551 0.35734,1.52135 0.56893,1.52135 0.26047,0 0.2168,-0.45069 -0.18584,-1.91823 -0.58745,-2.14108 -2.05434,-8.8547 -2.0619,-9.4368 -0.0134,-1.03197 0.38526,0.3822 1.45724,5.16921 0.64782,2.89288 1.17917,5.34908 1.18079,5.45822 0.002,0.10914 0.1349,0.19844 0.2962,0.19844 0.18661,0 0.22795,-0.26024 0.11366,-0.7156 -0.0988,-0.39357 -0.23344,-2.14974 -0.29925,-3.9026 -0.0658,-1.75286 -0.16908,-3.86917 -0.22949,-4.70293 -0.0604,-0.83375 0.002,-1.58492 0.13828,-1.66926 0.13646,-0.0843 0.25696,0.062 0.26778,0.32529 0.045,1.09615 1.24429,5.25601 1.45463,5.04566 0.0523,-0.0523 0.11941,-1.13428 0.14904,-2.40433 0.0326,-1.39792 0.15822,-2.27439 0.31829,-2.22104 0.26946,0.0898 0.87781,1.62494 1.05438,2.66064 0.0964,0.5655 0.25459,1.05084 0.72969,2.2388 0.31035,0.77604 0.30609,0.91764 -0.0215,0.71516 -0.14552,-0.0899 -0.26458,-0.0474 -0.26458,0.0946 0,0.14198 0.14773,0.30739 0.3283,0.36758 0.18056,0.0602 0.57346,0.92634 0.8731,1.92477 0.45874,1.5286 0.655,1.84481 1.24246,2.00193 0.94283,0.25215 1.05478,0.0597 0.53324,-0.91673 -0.47268,-0.88496 -0.51181,-0.99883 -0.56278,-1.63793 -0.0238,-0.29801 -0.20059,-0.3686 -0.62838,-0.25088 -0.51849,0.14268 -0.54139,0.11937 -0.17744,-0.18061 0.32132,-0.26484 0.36349,-0.52784 0.18252,-1.13818 -0.33236,-1.12088 -0.65855,-5.19107 -0.3949,-4.92742 0.25348,0.25348 0.98534,2.88624 0.96522,3.47221 -0.008,0.22265 -0.11868,0.13553 -0.25292,-0.19843 -0.38588,-0.96002 -0.48639,-0.68556 -0.19379,0.52916 0.14897,0.61847 0.4289,1.25297 0.62207,1.41001 0.19317,0.15703 0.47625,0.87141 0.62906,1.5875 0.15282,0.71608 0.33875,1.56986 0.41317,1.89728 0.0744,0.32743 0.32455,0.59532 0.55584,0.59532 0.32143,0 0.37957,-0.16313 0.24675,-0.69233 -0.0956,-0.38078 -0.22907,-1.06539 -0.29666,-1.52135 l -0.1229,-0.82903 0.38014,0.92604 c 0.20908,0.50932 0.3892,0.7806 0.40027,0.60283 0.0393,-0.63098 -0.8594,-4.44352 -1.1088,-4.70387 -0.16374,-0.17092 -0.2011,-0.0773 -0.10554,0.26458 0.0814,0.29104 0.21243,1.00542 0.29128,1.5875 0.27594,2.03719 -0.32685,-0.35419 -0.71988,-2.85587 -0.39044,-2.48523 -0.16329,-3.40784 0.32331,-1.31314 0.8898,3.83043 1.57374,6.02757 1.95022,6.26504 0.64504,0.40688 0.76103,0.0759 0.46815,-1.33591 l -0.26748,-1.28929 0.0951,1.29246 c 0.0552,0.75045 0.003,1.1441 -0.12351,0.93869 -0.22268,-0.36031 -0.39483,-1.51034 -0.65081,-4.34781 -0.0788,-0.87313 -0.21465,-2.00422 -0.30195,-2.51354 -0.104,-0.60665 -0.0693,-0.83479 0.10063,-0.66146 0.3755,0.38303 0.84079,3.05113 0.67882,3.89257 -0.0885,0.45964 0.0149,0.87064 0.28768,1.14338 0.2342,0.23419 0.42581,0.75173 0.42581,1.15009 0,0.39835 0.1748,0.95539 0.38846,1.23787 0.35063,0.46358 0.39007,0.26884 0.40504,-1.99995 0.009,-1.38245 0.14172,-3.40651 0.29467,-4.49792 0.15295,-1.09141 0.318,-2.34156 0.36679,-2.77812 0.0488,-0.43657 0.19986,-1.087 0.33574,-1.44541 l 0.24704,-0.65166 0.3212,0.60018 c 0.17667,0.3301 0.27105,0.74241 0.20975,0.91624 -0.0613,0.17383 -1.5e-4,0.61372 0.1359,0.97752 0.13605,0.3638 0.30276,1.11391 0.37047,1.6669 0.0677,0.55299 0.224,1.2708 0.34731,1.59513 0.12331,0.32432 0.13893,1.30062 0.0347,2.16955 -0.14315,1.19356 -0.23031,1.41814 -0.35647,0.91842 -0.26588,-1.05316 -0.35173,-2.87795 -0.12893,-2.74025 0.11182,0.0691 0.20331,0.007 0.20331,-0.13894 0,-0.14552 -0.10735,-0.33092 -0.23855,-0.41201 -0.13121,-0.0811 -0.32151,-0.86224 -0.42291,-1.73588 -0.34581,-2.97955 -0.61299,-1.86008 -0.64096,2.68558 l -0.0279,4.53896 0.55208,-0.70186 c 0.30364,-0.38602 0.71484,-0.70185 0.91378,-0.70185 0.22312,0 0.40146,-0.38013 0.46549,-0.99219 l 0.10378,-0.99219 0.0445,1.08348 c 0.029,0.70515 0.22925,1.25068 0.57364,1.56236 0.63592,0.5755 0.67008,1.13628 0.11729,1.9255 -0.38289,0.54666 -0.37603,0.58804 0.0975,0.58804 1.23127,0 0.75117,-3.41439 -1.31419,-9.34639 -0.29513,-0.84765 -0.48183,-1.59595 -0.41489,-1.66289 0.0669,-0.0669 0.6694,1.51956 1.3388,3.52556 0.80537,2.41346 1.22739,3.37875 1.24753,2.85351 0.0167,-0.43656 0.069,-1.0914 0.11623,-1.45521 0.0472,-0.3638 0.11175,-1.97114 0.14346,-3.57187 0.0494,-2.49438 0.35166,-4.55968 0.5421,-3.70417 0.12852,0.57737 0.15258,0.96247 0.35533,5.68854 0.13361,3.11415 0.34483,5.23167 0.58064,5.82084 0.32929,0.82273 0.49578,0.93766 1.49242,1.03026 1.21983,0.11332 1.89999,0.12645 3.4662,0.0669 l 1.0215,-0.0388 -0.61918,-0.50138 c -0.60779,-0.49216 -0.62565,-0.49214 -0.97101,9.3e-4 -0.26619,0.38005 -0.46777,0.44027 -0.82815,0.2474 -0.26197,-0.14021 -0.89124,-0.18759 -1.39837,-0.10529 -0.78668,0.12766 -1.00753,0.041 -1.50417,-0.5904 -0.71037,-0.90309 -0.63474,-1.73979 0.18928,-2.09397 0.68593,-0.29482 0.6813,-0.5909 -0.0849,-5.42396 -0.56986,-3.5945 -0.67708,-4.70689 -0.3953,-4.10104 0.13537,0.29104 0.53565,2.55323 0.88952,5.02709 0.35387,2.47385 0.73476,4.7258 0.84641,5.00434 0.14264,0.35583 0.11096,0.44953 -0.10653,0.31511 -0.38781,-0.23968 -0.3926,-0.0242 -0.0159,0.71721 0.16158,0.31803 -0.0562,0.16999 -0.48437,-0.3292 -0.54237,-0.6324 -0.83851,-0.80916 -0.97787,-0.58368 -0.23314,0.37722 0.48436,1.58018 1.07846,1.80816 0.50032,0.19199 0.92356,-0.41573 0.72776,-1.04497 -0.0793,-0.25466 -0.0369,-0.46302 0.0941,-0.46302 0.13101,0 0.21719,-0.20836 0.19151,-0.46302 -0.1434,-1.42222 -0.39679,-4.74307 -0.52445,-6.87333 -0.0805,-1.34287 -0.21585,-2.62279 -0.30084,-2.84428 -0.085,-0.22148 -0.0391,-0.4027 0.10205,-0.4027 0.28552,0 0.71767,2.33137 1.34871,7.27604 0.3799,2.97675 0.0638,2.55118 -0.39308,-0.52917 -0.10791,-0.7276 -0.23874,-1.07805 -0.29072,-0.77878 -0.052,0.29928 0.0386,1.25178 0.20124,2.11667 0.16268,0.86489 0.28868,1.93903 0.28002,2.38696 -0.009,0.44794 0.15526,1.04325 0.36429,1.32292 0.36965,0.49457 0.39308,0.49038 0.85616,-0.15297 0.6067,-0.84287 0.59843,-1.06513 -0.053,-1.42638 -0.29104,-0.16138 -0.5759,-0.3203 -0.63301,-0.35317 -0.0571,-0.0329 0.0467,-0.24122 0.23083,-0.46302 0.18408,-0.2218 0.27441,-0.40327 0.20073,-0.40327 -0.18759,0 0.45318,-3.03682 1.36776,-6.48229 0.42491,-1.60073 0.7828,-2.61197 0.79531,-2.24721 0.0125,0.36476 -0.0811,1.02538 -0.20807,1.46803 -0.17881,0.62348 -0.12453,0.93608 0.24085,1.38732 0.25942,0.32037 0.57165,0.5812 0.69384,0.57962 0.1222,-0.002 0.63272,-0.71595 1.13448,-1.5875 0.583,-1.01264 1.0844,-1.58463 1.38907,-1.58463 0.26221,0 0.47964,0.14882 0.48317,0.33073 0.007,0.36297 0.16286,2.01469 0.52323,5.54666 0.24466,2.39797 0.61577,3.48629 1.13031,3.31477 0.21112,-0.0704 0.27768,-1.2023 0.22253,-3.78456 -0.0433,-2.02628 -0.13437,-3.77427 -0.20245,-3.88442 -0.0681,-0.11015 -0.0104,-0.20027 0.12812,-0.20027 0.43196,0 0.52597,0.62526 0.52109,3.46577 -0.008,4.36328 -0.0597,4.11494 0.9119,4.34168 0.47294,0.11036 0.99069,0.1837 1.15056,0.16296 0.15987,-0.0207 0.75518,0.11976 1.32292,0.31222 1.52391,0.51659 2.04001,0.32475 1.88411,-0.70035 -0.17486,-1.14981 0.2056,-1.76144 1.0957,-1.76144 0.9081,0 1.8889,0.98011 1.8889,1.88756 0,0.37727 0.28497,0.91062 0.66145,1.23797 0.36381,0.31632 0.67634,0.69498 0.69453,0.84147 0.0182,0.14648 0.0628,0.38539 0.0992,0.53091 0.0364,0.14552 0.081,0.44044 0.0992,0.65537 0.0182,0.21494 0.68903,1.06805 1.49076,1.8958 0.88495,0.91369 1.58025,1.91409 1.76963,2.54619 0.43276,1.44442 0.99912,1.70028 3.90733,1.76519 1.37744,0.0307 2.58268,0.10425 2.67831,0.16336 0.0956,0.0591 1.17129,0.17608 2.39036,0.25994 1.21906,0.0839 2.51399,0.21497 2.87762,0.29134 0.6292,0.13215 0.63721,0.15635 0.16583,0.50103 -0.30643,0.22406 -0.80125,0.30099 -1.29759,0.20172 -0.57053,-0.1141 -0.74768,-0.0721 -0.61324,0.14543 0.2368,0.38315 -0.2064,0.37445 -3.94323,-0.0774 -1.70394,-0.20602 -3.01461,-0.25436 -3.16177,-0.11661 -0.15001,0.14042 0.11667,0.23514 0.66146,0.23494 1.41326,-5.2e-4 5.27464,0.58618 5.15303,0.78296 -0.0597,0.0966 -1.15723,0.0211 -2.43896,-0.16781 -1.28173,-0.18888 -2.44949,-0.3001 -2.59501,-0.24716 -0.31773,0.11561 0.60109,0.33792 2.31511,0.56016 0.69122,0.0896 1.25677,0.2664 1.25677,0.39285 0,0.12681 -0.38479,0.11954 -0.85815,-0.0162 -1.14802,-0.32925 -2.65701,-0.31787 -2.44914,0.0185 0.0899,0.14552 0.42438,0.2664 0.74322,0.26863 0.31883,0.002 0.75829,0.13056 0.97657,0.28518 0.28958,0.20512 0.003,0.23538 -1.05833,0.11192 -1.39818,-0.16257 -1.65355,0.14762 -0.39688,0.48207 0.29104,0.0775 -0.17225,0.0732 -1.02953,-0.009 -1.12527,-0.10851 -1.50718,-0.067 -1.37344,0.14943 0.10188,0.16486 0.5354,0.29974 0.96338,0.29974 0.42797,0 0.77813,0.13197 0.77813,0.29326 0,0.17579 -0.24931,0.2307 -0.62234,0.13707 -0.3423,-0.0859 -1.08644,-0.22136 -1.65365,-0.30099 -0.56722,-0.0796 -1.29919,-0.20312 -1.62661,-0.2744 -0.32742,-0.0713 -0.59531,-0.0218 -0.59531,0.11006 0,0.13181 0.7739,0.38569 1.71979,0.56416 0.94588,0.17848 1.71979,0.42714 1.71979,0.55258 0,0.12544 -0.28252,0.12066 -0.62783,-0.0106 -0.99545,-0.37847 -4.50566,-0.6636 -4.31201,-0.35026 0.091,0.14728 0.85277,0.3463 1.69277,0.44226 1.66316,0.19001 2.84468,0.67765 1.65947,0.68491 -0.36386,0.002 -1.49352,-0.17002 -2.51037,-0.38277 -1.01684,-0.21275 -1.9435,-0.29213 -2.05923,-0.1764 -0.11574,0.11574 0.62697,0.36844 1.65047,0.56156 1.02349,0.19312 1.8609,0.45336 1.8609,0.57831 0,0.12495 -0.2679,0.1722 -0.59532,0.10501 -2.50624,-0.51435 -3.43435,-0.67357 -4.79217,-0.82209 -1.08628,-0.11881 -1.49782,-0.0836 -1.37345,0.11768 0.0977,0.15803 0.61704,0.28875 1.15415,0.29047 1.16713,0.004 3.72057,0.65065 4.11155,1.04163 0.35021,0.35021 0.1364,0.35199 -0.77246,0.006 -0.82257,-0.31274 -7.52541,-1.13588 -7.71398,-0.94731 -0.33817,0.33817 0.3408,0.68988 1.33219,0.69007 1.06999,2.1e-4 4.94444,0.70446 5.18188,0.9419 0.26066,0.26065 -1.63093,0.0909 -3.02073,-0.27112 -1.64651,-0.42886 -5.76989,-0.52809 -5.13649,-0.12361 0.20902,0.13347 0.73722,0.22808 1.17378,0.21024 0.88059,-0.036 4.73661,0.81167 4.54842,0.99986 -0.0655,0.0655 -1.11568,-0.0153 -2.33375,-0.17956 -3.85366,-0.51966 -4.89074,-0.57822 -4.57168,-0.25815 0.15885,0.15935 1.11135,0.41638 2.11666,0.57118 2.18496,0.33644 3.1708,0.77118 1.43098,0.63104 -4.33017,-0.34878 -6.08542,-0.62178 -6.08542,-0.94649 0,-0.13892 -0.26789,-0.24422 -0.59531,-0.23399 -0.57064,0.0178 -0.57338,0.0286 -0.0661,0.2596 0.43385,0.1976 0.36236,0.23708 -0.39687,0.21918 -1.40023,-0.033 -1.63227,0.01 -1.47045,0.27171 0.0815,0.13195 1.2503,0.32254 2.59723,0.42352 1.34692,0.10098 2.80527,0.34054 3.24077,0.53234 1.12907,0.49727 0.34043,0.4876 -3.09515,-0.038 -2.77612,-0.42466 -3.65365,-0.38701 -3.65365,0.15678 0,0.15637 0.70608,0.28083 1.65364,0.29148 0.90951,0.0102 1.89178,0.1267 2.18282,0.25882 0.36406,0.16528 -0.0695,0.22139 -1.38973,0.17984 -1.09943,-0.0346 -1.95673,0.0526 -2.00749,0.2042 -0.0528,0.15771 -0.26042,0.12279 -0.51394,-0.0864 -0.23394,-0.19307 -0.69979,-0.30363 -1.03522,-0.24567 -0.59207,0.10229 -0.58813,0.11446 0.13496,0.41718 0.40965,0.1715 1.0277,0.31182 1.37344,0.31182 0.34574,0 0.70394,0.12187 0.796,0.27082 0.17191,0.27816 -0.30037,0.24032 -3.93335,-0.31512 -2.28803,-0.34982 -3.61113,-0.41451 -3.61113,-0.17655 0,0.24185 0.51197,0.37745 2.91042,0.77083 2.05198,0.33656 3.27204,0.75071 2.24895,0.76341 -0.29104,0.004 -0.94588,-0.1001 -1.4552,-0.23047 -1.48905,-0.38117 -2.91042,-0.53674 -2.91042,-0.31854 0,0.11107 0.74414,0.39807 1.65365,0.63778 l 1.65364,0.43584 -1.71979,-0.16271 c -0.94589,-0.0895 -2.41399,-0.19513 -3.26245,-0.23475 -0.84846,-0.0396 -1.61244,-0.14182 -1.69774,-0.22712 -0.29798,-0.29798 -0.86064,-0.15194 -0.86064,0.22339 0,0.20816 0.26789,0.43041 0.59531,0.49389 0.32742,0.0635 -0.98964,0.11882 -2.92681,0.12299 -1.93717,0.004 -3.5756,0.061 -3.64096,0.1264 -0.0654,0.0654 1.51389,0.19714 3.50945,0.29285 1.99556,0.0957 3.73594,0.28166 3.86751,0.41323 0.14257,0.14257 -0.2799,0.20803 -1.04566,0.16202 -6.09561,-0.36622 -8.24501,-0.41262 -8.82551,-0.19049 -0.5452,0.20863 -0.28944,0.28444 1.45521,0.43137 3.47544,0.29269 3.38449,0.37802 -0.25948,0.24346 -3.42259,-0.12639 -4.37646,0.0734 -1.68572,0.35308 1.3747,0.14289 1.75425,0.25172 1.52627,0.43762 -0.0606,0.0494 -1.21375,-0.0273 -2.56248,-0.17056 -1.7135,-0.182 -2.63011,-0.17462 -3.0427,0.0245 -0.54139,0.26126 -0.51106,0.28644 0.36478,0.30286 1.55038,0.0291 3.41037,0.33797 3.41037,0.5664 0,0.11659 -0.38695,0.16364 -0.8599,0.10454 -1.6133,-0.20158 -6.60242,-0.35113 -6.9728,-0.209 -0.80802,0.31007 -0.26958,0.48464 1.66088,0.53849 1.14971,0.0321 2.14925,0.19185 2.31247,0.36967 0.21587,0.23518 0.16448,0.26966 -0.20635,0.13844 -0.70842,-0.25069 -8.14425,-0.23506 -8.39314,0.0177 -0.11458,0.11633 1.06421,0.23675 2.61953,0.26761 1.55532,0.0308 3.36363,0.17417 4.01848,0.31849 1.08122,0.23829 1.02044,0.25023 -0.66146,0.12996 -3.03716,-0.21719 -16.33011,-0.20991 -17.33021,0.01 -0.61417,0.13474 -0.83694,0.11455 -0.66146,-0.06 z m 7.65439,-0.821 c 0.0797,-0.12903 -0.0323,-0.38173 -0.24897,-0.56156 -0.21668,-0.17983 -0.39396,-0.26259 -0.39396,-0.18391 0,0.0787 -0.0723,0.33138 -0.1606,0.56156 -0.17199,0.44821 0.53954,0.61106 0.80353,0.18391 z m 3.80684,-0.56719 c 1.8179,-1.10834 2.47009,-4.45958 1.44954,-7.44836 -0.42158,-1.23465 -0.45593,-1.61051 -0.19217,-2.10334 0.41778,-0.78063 0.20637,-1.28817 -0.53659,-1.28817 -0.32652,0 -0.9747,-0.13283 -1.44041,-0.29517 -1.02391,-0.35694 -1.32536,-0.14515 -0.72991,0.51282 0.6426,0.71006 0.5528,0.84068 -0.57797,0.84068 -0.98162,0 -1.49474,-0.33504 -2.02606,-1.32291 -0.1174,-0.21828 0.1609,-0.0484 0.61845,0.37758 0.95627,0.89023 1.29053,0.83844 0.58922,-0.0913 -0.29784,-0.39487 -0.78135,-0.64998 -1.28913,-0.68019 -0.79752,-0.0474 -0.80559,-0.0357 -0.43671,0.6358 0.86587,1.57621 1.06126,1.69414 2.49223,1.50432 0.85653,-0.11362 1.33391,-0.079 1.33391,0.0968 0,0.15053 -0.4097,0.27369 -0.91043,0.27369 -0.50073,0 -0.97766,0.10878 -1.05983,0.24174 -0.083,0.13432 0.19367,0.18767 0.62267,0.12006 0.44448,-0.0701 0.85645,0.0148 0.97094,0.2001 0.13506,0.21853 0.0648,0.27033 -0.21902,0.16142 -0.22984,-0.0882 -0.75539,-0.0591 -1.16788,0.0646 -0.67006,0.20097 -0.61771,0.22737 0.49116,0.24768 0.68264,0.0125 1.30774,0.13048 1.38912,0.26216 0.0837,0.13551 -0.29648,0.1798 -0.87612,0.10206 -0.61199,-0.0821 -1.09742,-0.0187 -1.2063,0.15746 -0.12233,0.19793 0.16558,0.29482 0.87612,0.29482 0.58209,0 1.13318,0.12109 1.22465,0.2691 0.10722,0.17348 -0.26331,0.22704 -1.04271,0.15071 -0.66497,-0.0651 -1.20904,-0.008 -1.20904,0.12777 0,0.13539 0.32742,0.25803 0.7276,0.27254 0.40019,0.0145 1.02526,0.12781 1.38907,0.25179 0.64529,0.21991 0.64206,0.22505 -0.13229,0.21018 -1.51903,-0.0292 -1.98438,0.0424 -1.98438,0.30541 0,0.14552 0.53578,0.26458 1.19063,0.26458 0.65484,0 1.19062,0.10288 1.19062,0.22862 0,0.12574 -0.43413,0.21503 -0.96472,0.19843 -0.5306,-0.0166 -1.0103,0.0992 -1.066,0.2574 -0.0597,0.1694 0.29779,0.30257 0.86988,0.32408 1.44605,0.0544 1.44497,0.31439 -10e-4,0.31439 -0.76619,0 -1.18702,0.10245 -1.08682,0.26458 0.0899,0.14552 0.63275,0.26458 1.20624,0.26458 0.5735,0 1.04272,0.10444 1.04272,0.23209 0,0.12764 -0.53578,0.17169 -1.19062,0.0979 -0.78789,-0.0888 -1.19063,-0.0331 -1.19063,0.16479 0,0.16445 0.29063,0.29899 0.64584,0.29899 0.35522,0 0.70612,0.0975 0.77978,0.21671 0.0737,0.11919 -0.21697,0.16521 -0.64584,0.10226 -0.46497,-0.0682 -0.77978,0.004 -0.77978,0.18017 0,0.16204 0.32742,0.29644 0.7276,0.29866 0.40019,0.002 0.9062,0.12409 1.12448,0.2708 0.2765,0.18583 -0.0366,0.21278 -1.03214,0.0889 -1.04585,-0.13019 -1.37865,-0.0964 -1.24116,0.12608 0.10333,0.16719 0.47476,0.30397 0.82541,0.30397 0.458,0 0.59465,0.11177 0.48524,0.39688 -0.095,0.24744 0.002,0.39687 0.25727,0.39687 0.22526,0 0.48205,0.11727 0.57063,0.2606 0.10063,0.16283 -0.15711,0.19697 -0.68698,0.091 -0.60745,-0.12149 -0.79441,-0.0828 -0.659,0.13628 0.29298,0.47406 1.521,0.36001 2.49092,-0.23133 z m 0.57731,-4.50549 c 0,-0.1541 0.11907,-0.20661 0.26459,-0.11667 0.14552,0.0899 0.26458,0.21602 0.26458,0.2802 0,0.0642 -0.11906,0.11667 -0.26458,0.11667 -0.14552,0 -0.26459,-0.12609 -0.26459,-0.2802 z m -6.61458,4.53518 c 0,-0.13362 0.0687,-0.42207 0.15275,-0.64101 0.084,-0.21893 -0.0946,-0.64538 -0.39688,-0.94768 -0.30229,-0.30229 -0.43923,-0.54962 -0.3043,-0.54962 0.13493,0 0.59269,0.42142 1.01726,0.9365 0.87157,1.05736 1.04724,0.97748 1.81314,-0.8245 0.52923,-1.24515 0.54984,-5.25746 0.0302,-5.88407 -0.39351,-0.47453 -1.8367,-1.1071 -2.52582,-1.1071 -0.6634,0 -1.16219,1.16877 -0.95962,2.24856 0.0898,0.4789 0.0348,1.11101 -0.12243,1.4047 -0.15718,0.29369 -0.3169,1.23766 -0.35495,2.09771 -0.0576,1.30194 0.0416,1.7263 0.59229,2.53478 0.64149,0.94174 1.05833,1.22994 1.05833,0.73173 z m -0.65999,-1.07836 c -0.2642,-0.29193 -0.35742,-0.53078 -0.20716,-0.53078 0.33291,0 0.99282,0.75627 0.81504,0.93405 -0.0701,0.0701 -0.34368,-0.11133 -0.60788,-0.40327 z m 0.77035,-1.88918 c -0.0779,-0.12601 0.22262,-0.2291 0.66778,-0.2291 0.44515,0 0.80936,0.0457 0.80936,0.10144 0,0.22453 -1.34541,0.3408 -1.47714,0.12766 z m -1.01445,-0.72276 c -0.11398,-0.18441 -0.13578,-0.40675 -0.0485,-0.49409 0.2368,-0.23679 0.49498,0.11147 0.36708,0.49516 -0.0896,0.26886 -0.15194,0.26865 -0.31863,-10e-4 z m 1.4994,-0.21789 c 0.25466,-0.0666 0.67138,-0.0666 0.92604,0 0.25467,0.0666 0.0463,0.121 -0.46302,0.121 -0.50932,0 -0.71768,-0.0544 -0.46302,-0.121 z m -0.0661,-0.87595 c 0.52126,-0.33687 1.13423,-0.33687 0.92604,0 -0.0899,0.14552 -0.42439,0.26276 -0.74322,0.26053 -0.47129,-0.003 -0.50548,-0.052 -0.18282,-0.26053 z M 44.723,85.42247 c 0,-0.21727 1.61817,-0.32675 1.74706,-0.1182 0.0749,0.12126 -0.28749,0.22047 -0.8054,0.22047 -0.51791,0 -0.94166,-0.046 -0.94166,-0.10227 z m 0.33576,-1.13942 c 0.25744,-0.0671 0.61462,-0.0627 0.79375,0.01 0.17914,0.0725 -0.0315,0.12736 -0.46805,0.12197 -0.43656,-0.005 -0.58313,-0.0647 -0.3257,-0.13177 z m -0.39731,-0.91926 c 0.22838,-0.22838 0.46626,-0.23305 0.91281,-0.0179 0.56718,0.27325 0.54838,0.29205 -0.30886,0.30887 -0.6958,0.0136 -0.83938,-0.0555 -0.60395,-0.29096 z m 8.26363,7.7172 c 0,-0.14552 -0.17156,-0.26459 -0.38126,-0.26459 -0.20969,0 -0.45484,0.11907 -0.54478,0.26459 -0.0899,0.14552 0.0816,0.26458 0.38126,0.26458 0.29963,0 0.54478,-0.11906 0.54478,-0.26458 z m 2.25557,-0.72761 c 0.99385,-1.04879 1.39513,-1.91715 1.60014,-3.4626 0.12484,-0.94103 0.0779,-1.48651 -0.15186,-1.7633 -0.20897,-0.2518 -0.28326,-0.83852 -0.19986,-1.57845 0.073,-0.64772 0.0446,-1.21231 -0.0632,-1.25463 -0.10774,-0.0423 -0.28391,-0.35976 -0.3915,-0.7054 -0.1344,-0.43179 -0.10395,-0.5718 0.0973,-0.44741 0.16111,0.0996 0.29293,0.36253 0.29293,0.58435 0,0.59959 0.64823,0.27505 0.74381,-0.37239 0.18454,-1.25002 -3.22383,-2.05345 -4.05495,-0.95584 -0.55318,0.73054 -0.47527,0.9711 0.26843,0.82894 0.3638,-0.0695 0.66146,-0.0239 0.66146,0.10144 0,0.12534 -0.30469,0.2279 -0.67708,0.2279 -0.39125,0 -0.60691,0.11351 -0.51088,0.2689 0.0914,0.14789 0.27608,0.20098 0.41039,0.11797 0.13432,-0.083 0.45351,-0.0221 0.70933,0.13541 0.42868,0.2639 0.42366,0.28337 -0.0641,0.24843 -1.21989,-0.0874 -1.53177,0.009 -1.22532,0.37811 0.16207,0.19529 0.21634,0.43341 0.12059,0.52917 -0.0957,0.0958 0.0839,0.17409 0.39917,0.17409 0.31529,0 0.57326,0.11906 0.57326,0.26458 0,0.14552 -0.0893,0.23482 -0.19843,0.19844 -0.10914,-0.0364 -0.20196,0.0529 -0.20626,0.19844 -0.004,0.14552 0.13555,0.23166 0.31078,0.19142 0.17523,-0.0402 0.39413,0.0491 0.48645,0.19844 0.0959,0.15512 -0.0885,0.2716 -0.42984,0.2716 -0.68371,0 -0.39215,0.40632 0.43418,0.60508 0.37501,0.0902 0.30179,0.13622 -0.25136,0.15797 -0.8298,0.0326 -0.67991,0.41178 0.25136,0.63578 0.39994,0.0962 0.35147,0.13478 -0.19844,0.15797 -1.02426,0.0432 -0.91013,0.55322 0.13229,0.59117 l 0.8599,0.0313 -0.77172,0.16713 c -0.59587,0.12905 -0.79458,0.3382 -0.87204,0.91786 -0.0552,0.4129 -0.006,0.69569 0.11026,0.62843 0.11582,-0.0673 0.44871,-0.0265 0.73975,0.0906 0.42847,0.17237 0.36015,0.21642 -0.35904,0.23147 -0.67662,0.0142 -0.85192,0.11314 -0.73591,0.41547 0.0838,0.21829 0.0407,0.39688 -0.0957,0.39688 -0.50012,0 0.0665,0.77252 0.75037,1.02298 0.38766,0.14199 0.72979,0.26756 0.76028,0.27905 0.0305,0.0115 0.36571,-0.30654 0.74492,-0.70672 z m -1.51143,-1.04063 c 0.191,-0.0764 0.4192,-0.067 0.50712,0.0209 0.0879,0.0879 -0.0684,0.15046 -0.34726,0.13897 -0.30823,-0.0127 -0.37092,-0.0754 -0.15986,-0.15985 z m 0.0496,-1.40676 c 0,-0.14552 0.17157,-0.26459 0.38126,-0.26459 0.2097,0 0.45485,0.11907 0.54479,0.26459 0.0899,0.14552 -0.0816,0.26458 -0.38127,0.26458 -0.29962,0 -0.54478,-0.11906 -0.54478,-0.26458 z m 1.86019,0.13229 c 0,-0.14552 0.11542,-0.44318 0.25648,-0.66146 0.14106,-0.21828 0.25648,-0.27781 0.25648,-0.13229 0,0.14552 -0.11542,0.44317 -0.25648,0.66146 -0.14106,0.21828 -0.25648,0.27781 -0.25648,0.13229 z m -2.19092,-5.07002 c 0.18191,-0.0734 0.47956,-0.0734 0.66146,0 0.1819,0.0734 0.0331,0.13345 -0.33073,0.13345 -0.3638,0 -0.51263,-0.06 -0.33073,-0.13345 z m 1.83004,-1.0595 c -0.097,-0.097 -0.17639,-0.29942 -0.17639,-0.44979 0,-0.16579 0.12324,-0.15017 0.31309,0.0397 0.1722,0.1722 0.25157,0.37461 0.17639,0.44979 -0.0752,0.0752 -0.21608,0.0573 -0.31309,-0.0397 z m -6.98438,8.46951 c -0.17913,-0.0725 -0.53631,-0.0769 -0.79375,-0.01 -0.25743,0.0671 -0.11086,0.12638 0.3257,0.13177 0.43656,0.005 0.64719,-0.0495 0.46805,-0.12197 z m 9.78455,-0.80693 c -0.32742,-0.0631 -0.8632,-0.0631 -1.19062,0 -0.32742,0.0631 -0.0595,0.11467 0.59531,0.11467 0.65484,0 0.92273,-0.0516 0.59531,-0.11467 z m 2.30248,-0.89968 c 1.64312,-1.64313 2.02385,-3.37659 1.3702,-6.23852 -0.16003,-0.70072 -0.26307,-1.49934 -0.22896,-1.77472 0.0341,-0.27538 -0.1052,-0.55932 -0.30957,-0.63098 -0.30044,-0.10534 -0.33877,0.11715 -0.20023,1.16215 0.11695,0.8821 0.0892,1.16643 -0.0874,0.89556 -0.1423,-0.21828 -0.26056,-0.71456 -0.26279,-1.10284 -0.007,-1.28574 -0.17286,-1.41731 -1.66042,-1.32016 -0.76248,0.0498 -1.5054,0.212 -1.65092,0.36046 -0.17913,0.18275 -0.074,0.21239 0.32539,0.0918 0.32448,-0.098 0.80073,-0.0446 1.05833,0.11865 0.39938,0.2531 0.36027,0.28018 -0.26556,0.18391 -0.40365,-0.0621 -0.79763,-0.01 -0.87551,0.1162 -0.0779,0.126 0.19286,0.23746 0.60163,0.24769 0.40877,0.0102 0.98134,0.12889 1.27238,0.26368 0.37522,0.17379 0.20202,0.2001 -0.59531,0.0904 -1.38976,-0.19113 -1.48129,0.2278 -0.13229,0.60552 l 0.99219,0.27781 -1.05834,0.0573 -1.05833,0.0573 0.92604,0.29862 0.92604,0.29862 -1.05833,0.0921 c -0.58208,0.0506 -1.17739,0.21161 -1.32292,0.3577 -0.17692,0.17762 -0.0454,0.21694 0.39688,0.11867 0.3638,-0.0808 1.07818,-0.0419 1.5875,0.0865 0.86705,0.21857 0.82913,0.23516 -0.59531,0.26052 -0.83675,0.0149 -1.52136,0.14615 -1.52136,0.29167 0,0.14552 0.68461,0.2866 1.52136,0.31352 l 1.52135,0.0489 -1.38906,0.0972 c -0.76399,0.0534 -1.38906,0.19468 -1.38906,0.31385 0,0.11917 0.62507,0.31718 1.38906,0.44002 l 1.38906,0.22336 -1.25677,0.0898 c -1.51376,0.10817 -1.68857,0.58998 -0.21405,0.58998 0.57349,0 1.10711,0.1042 1.18582,0.23154 0.0787,0.12735 -0.39052,0.1714 -1.04272,0.0979 -0.78399,-0.0884 -1.18582,-0.0324 -1.18582,0.16533 0,0.16445 0.40969,0.29899 0.91043,0.29899 0.50073,0 0.97965,0.11201 1.06426,0.24891 0.0908,0.1469 -0.21435,0.18917 -0.7445,0.10314 -0.52768,-0.0856 -0.97324,-0.0246 -1.07988,0.14796 -0.11455,0.18535 0.0626,0.29374 0.47992,0.29374 0.3638,0 0.73973,0.12666 0.83541,0.28146 0.11783,0.19066 -0.13321,0.22384 -0.77814,0.10285 -0.62905,-0.11801 -0.95208,-0.0788 -0.95208,0.11541 0,0.16172 0.29063,0.29403 0.64584,0.29403 0.35521,0 0.73091,0.13765 0.83489,0.30588 0.13591,0.21992 -0.0828,0.26177 -0.77814,0.14893 -0.53195,-0.0863 -0.96718,-0.0522 -0.96718,0.0758 0,0.12801 0.50602,0.27831 1.12448,0.33402 0.61847,0.0557 1.20462,0.12208 1.30257,0.1475 0.0979,0.0254 0.5479,-0.3236 0.99991,-0.7756 z m 0.29512,-4.48307 c 0.0168,-0.85725 0.0356,-0.87605 0.30886,-0.30887 0.21514,0.44656 0.21047,0.68444 -0.0179,0.91282 -0.23544,0.23543 -0.30461,0.0918 -0.29096,-0.60395 z m 2.79728,3.9978 c 1.35361,-0.65399 1.47506,-0.81879 2.28337,-3.09816 0.56626,-1.5968 0.64135,-2.14183 0.48167,-3.49613 -0.11393,-0.96624 -0.38312,-1.81872 -0.67675,-2.14318 -0.67684,-0.7479 -0.97263,-0.6729 -0.65377,0.16578 0.16132,0.42429 0.1719,0.80051 0.0266,0.9458 -0.1453,0.14529 -0.31288,-0.1405 -0.42131,-0.71847 -0.20267,-1.0803 -0.85346,-1.46717 -2.13522,-1.26927 -1.23301,0.19036 -1.13693,0.33739 0.22049,0.33739 0.67909,0 1.23472,0.0902 1.23472,0.20035 0,0.11019 -0.53578,0.15773 -1.19063,0.10565 -0.67586,-0.0538 -1.19062,0.019 -1.19062,0.16822 0,0.37412 0.67362,0.58412 1.87372,0.58412 0.57018,0 1.0367,0.0901 1.0367,0.20034 0,0.11019 -0.53578,0.15773 -1.19063,0.10565 -1.06331,-0.0846 -1.19062,-0.0353 -1.19062,0.46111 0,0.3945 0.17278,0.56121 0.59531,0.57441 0.32742,0.0102 0.83344,0.12693 1.12448,0.25934 0.44443,0.20219 0.40207,0.23099 -0.26459,0.17984 -0.43656,-0.0335 -0.79375,0.0582 -0.79375,0.20368 0,0.14552 0.23813,0.27399 0.52917,0.28547 1.16324,0.0459 1.26896,0.19616 0.26458,0.37599 -0.99882,0.17884 -1.01086,0.1916 -0.21405,0.22704 0.46436,0.0206 0.92367,0.16599 1.02069,0.32298 0.11973,0.19372 -0.13029,0.23669 -0.77813,0.13373 -0.55818,-0.0887 -0.95455,-0.0424 -0.95455,0.11144 0,0.14473 0.44649,0.2822 0.99219,0.30549 0.97687,0.0417 0.97891,0.044 0.13229,0.14905 -0.47294,0.0587 -0.85989,0.21823 -0.85989,0.35453 0,0.1363 0.38695,0.26688 0.85989,0.29017 l 0.8599,0.0423 -0.8599,0.10671 c -1.04924,0.13021 -1.12668,0.52679 -0.13229,0.67743 0.67722,0.10259 0.66806,0.11297 -0.13229,0.14986 -1.04287,0.0481 -1.15503,0.55636 -0.13229,0.5995 0.53209,0.0224 0.58541,0.0622 0.19843,0.14779 -1.19861,0.26522 -1.31167,0.44347 -0.39687,0.62571 l 0.92604,0.18449 -1.02049,0.0348 c -0.7904,0.027 -0.98616,0.12431 -0.8682,0.4317 0.0889,0.23166 0.004,0.39688 -0.20388,0.39688 -0.1959,0 -0.5044,0.17859 -0.68555,0.39687 -0.28006,0.33745 -0.21311,0.39688 0.44707,0.39688 0.42705,0 1.25458,-0.23101 1.83895,-0.51335 z m -0.89696,-7.34195 c 0.25466,-0.0665 0.67138,-0.0665 0.92604,0 0.25466,0.0666 0.0463,0.121 -0.46302,0.121 -0.50932,0 -0.71768,-0.0545 -0.46302,-0.121 z m 9.98802,6.23694 c 0,-0.12855 -0.29766,-0.23373 -0.66146,-0.23373 -0.62244,0 -0.84616,0.25627 -0.51384,0.58859 0.21283,0.21284 1.1753,-0.0778 1.1753,-0.35486 z m -4.04549,-0.40567 c 1.50816,-0.73731 2.4949,-2.67249 2.35602,-4.62056 -0.14314,-2.00779 -1.00597,-3.93875 -1.76001,-3.93875 -0.3463,0 -0.62294,0.20701 -0.70719,0.52917 -0.10026,0.38338 -0.36677,0.53245 -0.96742,0.5411 l -0.82904,0.0119 0.79375,0.38607 0.79375,0.38607 -0.7276,-0.0967 c -0.40018,-0.0532 -0.7276,0.006 -0.7276,0.13117 0,0.12534 0.29765,0.22789 0.66145,0.22789 0.36381,0 0.66146,0.11533 0.66146,0.25628 0,0.14095 -0.17136,0.19052 -0.3808,0.11015 -0.20944,-0.0804 -0.5964,-0.0207 -0.8599,0.13255 -0.40252,0.23414 -0.33108,0.28061 0.44695,0.29078 0.64806,0.008 0.81411,0.0829 0.55316,0.24815 -0.20508,0.12982 -0.5325,0.17479 -0.7276,0.0999 -0.1951,-0.0749 -0.35472,-0.004 -0.35472,0.15677 0,0.16109 0.3175,0.29289 0.70555,0.29289 0.7646,0 0.70518,0.25968 -0.086,0.3758 -0.65724,0.0965 -0.52853,0.51015 0.22473,0.72231 0.57426,0.16173 0.56726,0.17364 -0.11668,0.19843 -0.40018,0.0145 -0.7276,0.14544 -0.7276,0.29096 0,0.14552 0.32742,0.28242 0.7276,0.30423 l 0.7276,0.0396 -0.7276,0.11022 c -0.82642,0.12519 -0.99613,0.60424 -0.21405,0.60424 0.28245,0 0.58603,0.11727 0.67461,0.2606 0.0999,0.16163 -0.1454,0.19931 -0.64584,0.0992 -0.63466,-0.12693 -0.80691,-0.0696 -0.80691,0.26857 0,0.26021 0.23503,0.4423 0.59532,0.46125 0.47004,0.0247 0.43144,0.0665 -0.18344,0.19844 -0.42831,0.0919 -0.74793,0.28619 -0.71025,0.43171 0.0377,0.14553 0.2303,0.23166 0.42806,0.19143 0.19777,-0.0402 0.42777,0.0372 0.51112,0.17203 0.0833,0.13486 -0.2015,0.22075 -0.63299,0.19088 -0.47885,-0.0331 -0.84148,0.0941 -0.93068,0.32654 -0.19828,0.5167 1.58802,0.28074 2.96279,-0.39136 z m 0.9262,-4.22037 c -0.18763,-0.2036 -0.22443,-0.37019 -0.0818,-0.37019 0.27476,0 0.6725,0.5033 0.51556,0.65238 -0.051,0.0484 -0.24616,-0.0786 -0.4338,-0.28219 z M 69.06466,81.2914 c -0.23847,-0.15411 -0.2711,-0.25809 -0.0818,-0.26053 0.17331,-0.002 0.38869,0.11501 0.47863,0.26053 0.20302,0.32849 0.11142,0.32849 -0.39687,0 z m 0.14786,-0.66987 c -0.41609,-0.31472 -0.43402,-0.38846 -0.0944,-0.38846 0.23053,0 0.48767,0.17859 0.57143,0.39687 0.18451,0.48083 0.16951,0.48056 -0.47698,-0.008 z m -0.0156,-0.91763 c -0.0899,-0.14552 -0.0374,-0.26458 0.11667,-0.26458 0.15411,0 0.2802,0.11906 0.2802,0.26458 0,0.14552 -0.0525,0.26459 -0.11667,0.26459 -0.0642,0 -0.19027,-0.11907 -0.2802,-0.26459 z m 0.85438,7.51307 c -0.0879,-0.0879 -0.31612,-0.0973 -0.50712,-0.0209 -0.21106,0.0845 -0.14837,0.14716 0.15986,0.15985 0.27891,0.0115 0.43518,-0.051 0.34726,-0.13896 z m 6.6993,-0.75047 c -0.17398,-0.20963 -0.48553,-0.31621 -0.69234,-0.23685 -0.51781,0.1987 -0.20387,0.618 0.46271,0.618 0.44528,0 0.48762,-0.0703 0.22963,-0.38115 z m -3.45264,-0.14801 c -0.51296,-0.33151 -0.79375,-0.33151 -0.79375,0 0,0.14552 0.26789,0.26276 0.59531,0.26053 0.4814,-0.003 0.51937,-0.0531 0.19844,-0.26053 z m 1.98437,0 c -0.0899,-0.14552 -0.40164,-0.26459 -0.69268,-0.26459 -0.29105,0 -0.45559,0.11907 -0.36565,0.26459 0.0899,0.14552 0.40165,0.26458 0.69269,0.26458 0.29104,0 0.45558,-0.11906 0.36564,-0.26458 z m -2.21184,-1.35264 c 0.70529,-0.55836 0.99211,-1.01063 1.07135,-1.68931 0.0595,-0.50974 0.0428,-0.9268 -0.0371,-0.9268 -0.0799,0 -0.14531,-0.58519 -0.14531,-1.30042 0,-0.93886 0.0834,-1.23123 0.29983,-1.05158 0.67204,0.55774 0.69671,-1.49557 0.0282,-2.34436 -0.44447,-0.5643 -0.74168,-0.3649 -0.59153,0.39688 0.14276,0.72426 0.14212,0.72461 -0.13961,0.0758 -0.39,-0.89812 -0.44098,-0.92315 -0.91483,-0.4493 -0.41353,0.41353 -1.19556,0.33644 -1.19556,-0.11786 0,-0.12995 -0.23813,-0.23628 -0.52917,-0.23628 -0.35278,0 -0.52917,0.17639 -0.52917,0.52917 0,0.41157 0.17639,0.52917 0.79375,0.52917 0.43657,0 0.79375,0.10255 0.79375,0.22789 0,0.12534 -0.29765,0.17099 -0.66146,0.10145 -0.38611,-0.0738 -0.66145,-0.003 -0.66145,0.16898 0,0.16453 0.49822,0.31419 1.12448,0.33777 0.97475,0.0367 1.00998,0.0565 0.26458,0.14905 -1.04656,0.12988 -1.14076,0.58705 -0.13229,0.642 l 0.7276,0.0396 -0.74329,0.11174 c -0.93397,0.1404 -0.79301,0.67937 0.23595,0.90215 l 0.77192,0.16713 -0.7276,0.0313 c -0.40018,0.0172 -0.7276,0.15037 -0.7276,0.29589 0,0.14552 0.32742,0.28079 0.7276,0.30061 0.62385,0.0309 0.64271,0.0524 0.13229,0.15069 -0.70217,0.13525 -0.80065,0.59959 -0.13229,0.6238 0.33129,0.012 0.27483,0.0975 -0.19844,0.30037 l -0.66146,0.2836 0.66146,0.20242 c 0.6139,0.18787 0.61974,0.20432 0.0812,0.2288 -0.31917,0.0145 -0.76519,0.29032 -0.99115,0.61293 -0.38294,0.54673 -0.37048,0.61036 0.18344,0.93708 l 0.59427,0.35052 -0.62834,-0.17164 c -0.57366,-0.1567 -1.07489,0.17682 -1.0874,0.72355 -0.009,0.37602 2.02728,-0.40754 2.94348,-1.13287 z m -1.69076,-0.41009 c 0.1819,-0.0734 0.47956,-0.0734 0.66146,0 0.1819,0.0734 0.0331,0.13345 -0.33073,0.13345 -0.3638,0 -0.51263,-0.06 -0.33073,-0.13345 z m 3.50573,0.96898 c 0,-0.14552 -0.12609,-0.26459 -0.2802,-0.26459 -0.15411,0 -0.20661,0.11907 -0.11668,0.26459 0.0899,0.14552 0.21603,0.26458 0.2802,0.26458 0.0642,0 0.11668,-0.11906 0.11668,-0.26458 z m 1.05833,0 c -0.51815,-0.33486 -0.86841,-0.33486 -0.66146,0 0.0899,0.14552 0.36486,0.26276 0.61093,0.26053 0.38557,-0.003 0.39256,-0.0395 0.0505,-0.26053 z m 5.02709,-0.23456 c 0,-0.129 -0.35719,-0.28697 -0.79375,-0.35105 -0.76368,-0.11208 -0.98919,0.0374 -0.61737,0.40922 0.26138,0.26137 1.41112,0.21398 1.41112,-0.0582 z m -2.11667,-0.29461 c 0,-0.14552 -0.18562,-0.26458 -0.41249,-0.26458 -0.22687,0 -0.33891,0.11906 -0.24897,0.26458 0.0899,0.14552 0.27556,0.26458 0.41249,0.26458 0.13693,0 0.24897,-0.11906 0.24897,-0.26458 z m -1.65916,-0.15985 c -0.0879,-0.0879 -0.31612,-0.0973 -0.50712,-0.0209 -0.21106,0.0845 -0.14837,0.14716 0.15986,0.15985 0.27891,0.0115 0.43518,-0.051 0.34726,-0.13896 z m -1.18659,-0.83234 c 0.8873,-0.99897 2.32111,-4.05321 2.35921,-5.0255 0.0665,-1.69754 -1.01876,-3.09081 -2.16905,-2.78462 l -0.6517,0.17347 0.66146,0.187 c 0.60192,0.17018 0.5781,0.19252 -0.26459,0.24821 l -0.92604,0.0612 0.92604,0.19492 0.92604,0.19492 -0.99218,0.0348 c -1.13817,0.04 -1.36119,0.54573 -0.26459,0.60003 0.62385,0.0309 0.64271,0.0524 0.1323,0.15069 -0.32743,0.0631 -0.59532,0.27383 -0.59532,0.46837 0,0.22719 0.21294,0.30931 0.59532,0.2296 0.56439,-0.11766 0.56095,-0.10312 -0.0661,0.27998 l -0.66146,0.40408 0.8599,0.009 c 0.47294,0.005 0.85989,0.11806 0.85989,0.25088 0,0.13283 -0.35718,0.18521 -0.79375,0.11641 -0.43656,-0.0688 -0.79375,-0.006 -0.79375,0.13861 0,0.14503 0.38696,0.31172 0.8599,0.37041 0.84662,0.10507 0.84458,0.10737 -0.13229,0.14906 -1.05682,0.0451 -1.3999,0.5572 -0.39688,0.5924 0.3697,0.013 0.44491,0.0711 0.19844,0.15325 -1.11732,0.37265 -1.15124,0.45341 -0.26458,0.63005 0.82485,0.16432 0.84653,0.18829 0.19843,0.21931 -0.74247,0.0355 -1.05236,0.564 -0.33073,0.564 0.21829,0 0.39688,0.10583 0.39688,0.23518 0,0.12936 -0.14883,0.21865 -0.33073,0.19844 -0.1819,-0.0202 -0.37224,0.0823 -0.42297,0.22784 -0.0507,0.14552 -0.20374,0.47294 -0.34003,0.7276 -0.20374,0.38069 -0.13583,0.46302 0.38195,0.46302 0.34637,0 0.81483,-0.20836 1.04103,-0.46302 z m 3.83242,0.30317 c -0.0879,-0.0879 -0.31612,-0.0973 -0.50711,-0.0209 -0.21107,0.0845 -0.14838,0.14716 0.15985,0.15985 0.27891,0.0115 0.43518,-0.051 0.34726,-0.13896 z m 2.39718,0.0159 c -0.28658,-0.28658 -1.53177,-0.38887 -1.53177,-0.12584 0,0.14837 0.37703,0.26976 0.83785,0.26976 0.46082,0 0.77308,-0.0648 0.69392,-0.14392 z M 78.9865,83.67262 c 0.40832,-0.17546 0.26879,-0.23163 -0.61093,-0.24598 -0.69678,-0.0114 -1.07651,0.0843 -0.97657,0.24598 0.19447,0.31465 0.85527,0.31465 1.5875,0 z m 2.46958,-0.23181 c 0.28709,-0.18199 0.27884,-0.25214 -0.0442,-0.37612 -0.21844,-0.0838 -0.46281,0.0187 -0.54305,0.22776 -0.1636,0.42636 0.0597,0.48278 0.5873,0.14836 z m 1.89605,-0.0328 c 0,-0.14552 -0.32743,-0.25272 -0.72761,-0.23821 l -0.7276,0.0264 0.66146,0.21184 c 0.3638,0.11651 0.69122,0.2237 0.7276,0.23821 0.0364,0.0145 0.0661,-0.0927 0.0661,-0.23821 z m -3.175,-0.55307 c 0,-0.13238 -0.53579,-0.24068 -1.19063,-0.24068 -0.65484,0 -1.19062,0.1002 -1.19062,0.22268 0,0.12247 0.53578,0.23077 1.19062,0.24067 0.65484,0.01 1.19063,-0.0903 1.19063,-0.22267 z m 7.54062,-0.24068 c -0.0899,-0.14552 -0.34211,-0.26458 -0.5604,-0.26458 -0.21828,0 -0.32329,0.11906 -0.23335,0.26458 0.0899,0.14552 0.34212,0.26458 0.5604,0.26458 0.21828,0 0.32329,-0.11906 0.23335,-0.26458 z m -4.10104,-0.24795 c 0,-0.13735 -0.44258,-0.17965 -0.99219,-0.0948 -1.37385,0.212 -1.41592,0.34279 -0.11024,0.34279 0.60634,0 1.10243,-0.11158 1.10243,-0.24795 z M 42.34219,80.21744 c -0.77391,-1.45821 -1.04627,-1.79726 -1.05022,-1.30735 -0.003,0.36381 0.18044,1.01865 0.40749,1.45521 0.42432,0.81585 1.46326,2.04531 1.60695,1.90162 0.0444,-0.0444 -0.38953,-0.96663 -0.96422,-2.04948 z m 3.70369,0.54474 c -0.47401,-0.73867 -0.91791,-1.28696 -0.98645,-1.21842 -0.25789,0.25789 0.52011,2.02617 1.05688,2.40213 0.88131,0.6173 0.86046,0.26696 -0.0704,-1.18371 z m 34.925,1.32291 c 0,-0.14552 -0.54281,-0.26458 -1.20624,-0.26458 -0.73679,0 -1.1426,0.10297 -1.04272,0.26458 0.0899,0.14552 0.63274,0.26459 1.20624,0.26459 0.57349,0 1.04272,-0.11907 1.04272,-0.26459 z M 44.88947,81.15281 c -0.0708,-0.18455 -0.27458,-0.82223 -0.45279,-1.41705 -0.27787,-0.92746 -0.4519,-1.10548 -1.22183,-1.24992 -0.4938,-0.0926 -0.95877,-0.10748 -1.03327,-0.033 -0.15494,0.15495 0.53619,1.90139 1.08381,2.73869 0.26934,0.41182 0.55217,0.52634 1.0601,0.42925 0.41827,-0.08 0.64173,-0.26538 0.56398,-0.46799 z M 43.29,80.06329 c -0.13934,-0.36313 -0.10063,-0.3795 0.23628,-0.0999 0.45912,0.38103 0.5069,0.53419 0.16665,0.53419 -0.12995,0 -0.31127,-0.19543 -0.40293,-0.4343 z m 39.4613,1.59737 c -0.0879,-0.0879 -0.31612,-0.0973 -0.50712,-0.0209 -0.21106,0.0845 -0.14837,0.14716 0.15986,0.15985 0.27891,0.0115 0.43518,-0.051 0.34726,-0.13896 z m 3.1202,-0.20506 c 0.20071,-0.20071 0.44323,-0.67696 0.53895,-1.05834 0.16247,-0.6473 0.11495,-0.69218 -0.71454,-0.67482 -0.48872,0.0102 -1.1267,0.12092 -1.41774,0.24599 -0.40983,0.17611 -0.27558,0.23158 0.59531,0.24598 0.61846,0.0102 1.12448,0.11926 1.12448,0.24228 0,0.12303 -0.59633,0.21232 -1.32517,0.19844 -0.94359,-0.018 -1.28881,-0.12048 -1.19893,-0.35597 0.0746,-0.19534 -0.087,-0.33073 -0.39462,-0.33073 -0.28648,0 -0.52086,0.11231 -0.52086,0.24958 0,0.3835 1.07637,1.0498 1.45882,0.90304 0.18685,-0.0717 0.40799,-0.0199 0.49142,0.11506 0.0834,0.13499 -0.14266,0.21312 -0.50241,0.17363 -0.35975,-0.0395 -0.65408,0.0368 -0.65408,0.16948 0,0.38342 2.11617,0.27958 2.51937,-0.12362 z m 3.30146,0.24823 c 0,-0.27926 -0.50777,-0.39658 -0.65879,-0.15222 -0.0914,0.14789 0.0194,0.2689 0.2463,0.2689 0.22687,0 0.41249,-0.0525 0.41249,-0.11668 z m -9.92188,-0.41249 c -0.0899,-0.14552 -0.33508,-0.26458 -0.54478,-0.26458 -0.20969,0 -0.38126,0.11906 -0.38126,0.26458 0,0.14552 0.24515,0.26459 0.54478,0.26459 0.29963,0 0.4712,-0.11907 0.38126,-0.26459 z m 2.1662,0.0936 c -0.26944,-0.26944 -1.76932,-0.32273 -1.76932,-0.0629 0,0.1286 0.43656,0.23382 0.97014,0.23382 0.53357,0 0.89321,-0.0769 0.79918,-0.17096 z m 1.02438,-0.7635 c -0.31926,-0.24148 -1.11514,-0.38846 -2.10344,-0.38846 -2.05242,0 -1.66261,0.46502 0.50036,0.5969 0.87313,0.0532 1.70657,0.11552 1.85209,0.13841 0.14552,0.0229 0.0335,-0.1332 -0.24901,-0.34685 z m 8.58338,0.14901 c 0,-0.14095 -0.17859,-0.18775 -0.39687,-0.10398 -0.21828,0.0838 -0.39688,0.19908 -0.39688,0.25628 0,0.0572 0.1786,0.10398 0.39688,0.10398 0.21828,0 0.39687,-0.11533 0.39687,-0.25628 z M 48.56206,79.97116 c -0.4168,-0.43505 -0.81657,-0.73224 -0.88839,-0.66042 -0.17463,0.17464 1.03778,1.45141 1.37825,1.45141 0.14738,0 -0.0731,-0.35595 -0.48986,-0.79099 z m 40.08173,0.26182 c 0,-0.14552 -0.35719,-0.26458 -0.79375,-0.26458 -0.43656,0 -0.79375,0.11906 -0.79375,0.26458 0,0.14552 0.35719,0.26458 0.79375,0.26458 0.43656,0 0.79375,-0.11906 0.79375,-0.26458 z m 1.05834,-0.13229 c 0.18985,-0.22876 0.21556,-0.39688 0.0607,-0.39688 -0.14777,0 -0.33721,0.1786 -0.42097,0.39688 -0.0838,0.21828 -0.11108,0.39687 -0.0607,0.39687 0.0504,0 0.23981,-0.17859 0.42097,-0.39687 z m 4.49025,-0.14263 c -0.51281,-0.32431 -1.76936,-0.33488 -1.43432,-0.0121 0.26403,0.25439 1.48518,0.50545 1.6989,0.34928 0.0686,-0.0501 -0.0505,-0.20183 -0.26458,-0.33721 z M 41.09546,79.43923 c -0.0761,-0.29104 -0.24356,-0.52917 -0.37211,-0.52917 -0.27337,0 -0.31401,0.62527 -0.0573,0.88195 0.34687,0.34687 0.56544,0.16731 0.42944,-0.35278 z M 52.476,79.57152 c -0.0888,-0.45032 -0.79822,-0.44649 -0.97156,0.005 -0.12582,0.32788 -0.0252,0.40834 0.42972,0.34372 0.32671,-0.0464 0.57053,-0.20344 0.54184,-0.34896 z m 28.23029,0.13229 c 0,-0.14552 -0.24515,-0.26458 -0.54478,-0.26458 -0.29963,0 -0.4712,0.11906 -0.38126,0.26458 0.0899,0.14552 0.33509,0.26459 0.54478,0.26459 0.2097,0 0.38126,-0.11907 0.38126,-0.26459 z m 1.05834,0 c 0,-0.14552 -0.11907,-0.26458 -0.26459,-0.26458 -0.14552,0 -0.26458,0.11906 -0.26458,0.26458 0,0.14552 0.11906,0.26459 0.26458,0.26459 0.14552,0 0.26459,-0.11907 0.26459,-0.26459 z m 15.76156,0.0305 c -0.0796,-0.12874 -0.5217,-0.28942 -0.9825,-0.35705 -0.75639,-0.11101 -0.79037,-0.0883 -0.34955,0.23408 0.54233,0.39656 1.55915,0.49043 1.33205,0.12297 z M 51.02721,79.4731 c 0.33688,-0.21358 -0.95702,-0.55271 -2.13706,-0.56014 -0.895,-0.006 -0.45163,0.49551 0.52916,0.5981 0.54571,0.0571 1.05172,0.12198 1.12448,0.14421 0.0728,0.0222 0.2903,-0.0597 0.48342,-0.18217 z m 6.11707,-0.14657 0.64736,-0.35851 -1.38019,-0.75659 c -0.95556,-0.52381 -1.42281,-0.96009 -1.51871,-1.41804 -0.23306,-1.11286 -0.76171,-1.96109 -1.42981,-2.29418 -0.81242,-0.40503 -2.22566,0.1186 -3.18372,1.17962 -1.02446,1.13457 -2.45849,2.10677 -4.00884,2.7178 -1.87315,0.73825 -1.9425,0.8673 -0.35678,0.66391 1.51436,-0.19423 3.7041,-1.17715 4.72007,-2.11871 1.36119,-1.26151 2.54416,-2.0482 2.87816,-1.91402 0.23865,0.0959 0.21943,0.1425 -0.0648,0.15719 -0.22223,0.0115 -0.79565,0.37855 -1.27426,0.8157 -0.67436,0.61593 -0.83038,0.92855 -0.69325,1.38906 0.31571,1.06018 1.28848,1.80462 2.65772,2.0339 1.88447,0.31555 2.28527,0.3026 3.00704,-0.0971 z m -4.61611,-1.73939 c -0.19341,-0.31295 0.0655,-0.31295 0.79375,0 0.51018,0.21923 0.50836,0.22805 -0.0505,0.24598 -0.31884,0.0102 -0.65328,-0.10046 -0.74322,-0.24598 z m 36.23468,1.87448 c -0.13824,-0.1332 -0.54901,-0.29557 -0.91281,-0.36084 -0.42367,-0.076 -0.25722,-0.13162 0.46302,-0.1547 0.93608,-0.03 1.12448,-0.12469 1.12448,-0.56519 0,-0.30289 -0.17639,-0.52917 -0.41249,-0.52917 -0.22687,0 -0.3389,0.11906 -0.24897,0.26458 0.0951,0.15393 -0.16843,0.26459 -0.63022,0.26459 -0.43657,0 -0.87086,0.12476 -0.96511,0.27725 -0.33973,0.54971 0.12436,1.04566 0.97849,1.04566 0.52393,0 0.75765,-0.0938 0.60361,-0.24218 z m 6.62782,-0.0224 c -0.0899,-0.14552 -0.34212,-0.26458 -0.5604,-0.26458 -0.21828,0 -0.32329,-0.11907 -0.23335,-0.26459 0.0899,-0.14552 0.0374,-0.26458 -0.11668,-0.26458 -0.30989,0 -0.38106,0.60469 -0.10381,0.88194 0.28251,0.28251 1.19434,0.20322 1.01424,-0.0882 z m -35.79813,-0.3175 c -0.24694,-0.24694 -0.38805,-0.24694 -0.635,0 -0.24694,0.24694 -0.17639,0.3175 0.3175,0.3175 0.49389,0 0.56445,-0.0706 0.3175,-0.3175 z m 22.70125,-0.0793 c 0,-0.26458 -0.26458,-0.39687 -0.79375,-0.39687 -0.99498,0 -1.0449,0.45597 -0.0661,0.60424 0.40018,0.0606 0.75737,0.12806 0.79375,0.14987 0.0364,0.0218 0.0661,-0.13895 0.0661,-0.35724 z m 4.2322,0 c -0.004,-0.14838 -0.55752,-0.23346 -1.25993,-0.19372 -0.68886,0.039 -1.52037,0.0836 -1.84779,0.0992 -0.32742,0.0156 -0.59531,0.14193 -0.59531,0.28072 0,0.14437 0.79393,0.21513 1.85524,0.16537 1.02038,-0.0479 1.85189,-0.20605 1.84779,-0.35158 z m 4.16281,0.23703 c -0.0879,-0.0879 -0.31612,-0.0973 -0.50712,-0.0209 -0.21106,0.0845 -0.14837,0.14716 0.15986,0.15985 0.27891,0.0115 0.43518,-0.051 0.34726,-0.13896 z M 79.91254,78.91013 c 0,-0.14552 -0.12609,-0.26458 -0.2802,-0.26458 -0.1541,0 -0.20661,0.11906 -0.11667,0.26458 0.0899,0.14552 0.21602,0.26459 0.2802,0.26459 0.0642,0 0.11667,-0.11907 0.11667,-0.26459 z m 12.65039,-0.24804 c 0.0661,-0.19844 -0.0331,-0.29766 -0.23151,-0.23151 -0.19099,0.0637 -0.39935,0.27202 -0.46302,0.46302 -0.0661,0.19843 0.0331,0.29765 0.23151,0.23151 0.191,-0.0637 0.39936,-0.27203 0.46302,-0.46302 z m 6.04731,0.21478 c -0.26652,-0.15497 -0.71301,-0.22202 -0.99218,-0.14902 -0.27918,0.073 -0.5076,0.0455 -0.5076,-0.0613 0,-0.10669 -0.38672,-0.13723 -0.85938,-0.0679 -0.73382,0.10771 -0.78214,0.15628 -0.33073,0.33246 0.29076,0.11348 1.12396,0.21107 1.85157,0.21687 1.05962,0.008 1.22647,-0.0455 0.83832,-0.2712 z M 58.08589,78.11801 c -0.2642,-0.29194 -0.60172,-0.53079 -0.75006,-0.53079 -0.14833,0 0.01,0.29718 0.35073,0.66041 0.728,0.77492 1.10668,0.65199 0.39933,-0.12962 z m 9.93035,0.0585 c 0.29205,-0.25133 0.79625,-0.522 1.12043,-0.60149 0.4741,-0.11626 0.57347,-0.30182 0.50791,-0.94846 -0.0448,-0.44216 0.12003,-1.30758 0.36633,-1.92315 l 0.44782,-1.11923 -0.88402,-0.73801 c -0.85311,-0.71221 -0.86508,-0.74816 -0.3422,-1.02799 0.44021,-0.2356 0.72074,-0.1684 1.49585,0.3583 1.2435,0.84498 1.37635,0.81774 0.79862,-0.16375 -0.68475,-1.1633 -1.8162,-1.74155 -3.78527,-1.93452 -2.63221,-0.25797 -4.52964,-0.75791 -4.37784,-1.15349 0.0713,-0.18584 0.009,-0.65472 -0.13802,-1.04195 -0.14723,-0.38724 -0.49778,-1.89103 -0.779,-3.34177 -0.28123,-1.45074 -0.57415,-2.70053 -0.65094,-2.77732 -0.26149,-0.26149 -0.14074,4.15065 0.1508,5.51002 0.15973,0.74479 0.4567,1.41797 0.65994,1.49596 0.20323,0.078 0.31551,0.22918 0.24951,0.33598 -0.1085,0.17555 1.76658,1.38149 2.10019,1.35073 0.0767,-0.007 0.10976,0.0764 0.0734,0.18557 -0.0364,0.10914 -0.2745,0.18899 -0.52917,0.17743 -0.67247,-0.0305 -0.56824,0.38637 0.1323,0.52908 1.44499,0.29438 2.05052,0.32884 2.05052,0.1167 0,-0.12534 -0.23813,-0.22789 -0.52917,-0.22789 -0.31095,0 -0.52917,-0.17639 -0.52917,-0.42774 0,-0.32285 0.14597,-0.38166 0.59532,-0.23984 0.32742,0.10333 0.91891,0.24923 1.31442,0.32422 l 0.71912,0.13634 -0.65495,0.85869 c -0.46046,0.60369 -0.69343,1.31081 -0.78451,2.38125 -0.0713,0.83746 -0.38085,1.96967 -0.68801,2.5162 -1.02028,1.81534 0.28228,2.7735 1.88981,1.39013 z m -0.8037,-0.85384 c 0,-0.14552 0.10933,-0.26458 0.24295,-0.26458 0.13362,0 0.46104,-0.0693 0.7276,-0.15389 0.4435,-0.14082 0.44104,-0.11835 -0.0289,0.26458 -0.58815,0.47923 -0.94162,0.53699 -0.94162,0.15389 z m 23.94479,1.32292 c 0.095,-0.15374 -0.14784,-0.25679 -0.57969,-0.24599 -0.65374,0.0164 -0.67951,0.046 -0.21406,0.24599 0.29105,0.12506 0.55191,0.23576 0.5797,0.24599 0.0278,0.0102 0.12412,-0.10047 0.21405,-0.24599 z M 50.69499,78.34875 c -0.6794,-0.15928 -1.13303,-0.15008 -1.30968,0.0266 -0.18397,0.18396 0.14795,0.26177 1.03942,0.24368 l 1.30969,-0.0266 z m 8.57125,0.0984 c -0.0114,-0.25753 -0.9548,-1.38906 -1.15809,-1.38906 -0.31941,0 -0.14066,0.63264 0.307,1.08656 0.49115,0.49802 0.86567,0.63113 0.85109,0.3025 z M 83.40063,78.0591 c -0.18985,-0.18986 -0.31309,-0.20548 -0.31309,-0.0397 0,0.35316 0.3129,0.66606 0.48948,0.48948 0.0752,-0.0752 -0.004,-0.27759 -0.17639,-0.44979 z m 1.91874,0.0296 c -0.18467,-0.2988 -0.90891,-0.31185 -0.90891,-0.0164 0,0.37233 0.29785,0.54389 0.6858,0.39501 0.20322,-0.078 0.30362,-0.24837 0.22311,-0.37864 z m 14.82057,0.31103 c -0.36261,-0.35469 -1.91287,-0.6926 -1.57427,-0.34315 0.14552,0.15019 0.50271,0.33034 0.79375,0.40034 0.90225,0.21702 1.04981,0.20621 0.78052,-0.0572 z M 46.06327,78.10711 c 0.28148,-0.15064 0.51177,-0.438 0.51177,-0.63857 0,-0.53339 -1.43158,-0.0981 -1.54075,0.46847 -0.0975,0.5061 0.28348,0.56908 1.02898,0.1701 z m 14.53469,0.16806 c 0,-0.0582 -0.41692,-0.52275 -0.9265,-1.03233 -1.10036,-1.10036 -1.58117,-0.75411 -0.50811,0.36592 0.62705,0.65449 1.43461,1.02963 1.43461,0.66641 z m 19.08969,-0.29104 c 0,-0.13824 -0.128,-0.29402 -0.28443,-0.34616 -0.15644,-0.0521 -0.28443,0.10363 -0.28443,0.34616 0,0.24254 0.12799,0.39831 0.28443,0.34616 0.15643,-0.0521 0.28443,-0.20791 0.28443,-0.34616 z m 2.76994,-0.4378 c -0.24153,-1.20765 -0.629,-1.54657 -1.76808,-1.54657 -1.46275,0 -1.51319,0.43554 -0.0568,0.49062 1.62612,0.0615 1.82538,0.30313 0.24998,0.30313 -1.54194,0 -1.60303,0.41554 -0.11024,0.74984 l 1.12448,0.25182 -0.92604,0.0469 c -0.769,0.039 -0.83631,0.0855 -0.39688,0.27432 0.29104,0.12507 0.87147,0.23576 1.28984,0.24599 0.71485,0.0175 0.75062,-0.0317 0.59375,-0.81608 z m 4.20183,0.57009 c -0.0899,-0.14552 -0.34212,-0.26458 -0.5604,-0.26458 -0.21828,0 -0.32329,0.11906 -0.23335,0.26458 0.0899,0.14552 0.34211,0.26459 0.56039,0.26459 0.21829,0 0.32329,-0.11907 0.23336,-0.26459 z m 6.74687,0 c 0,-0.14552 -0.32742,-0.25271 -0.7276,-0.23821 l -0.72761,0.0264 0.66146,0.21183 c 0.3638,0.11651 0.69123,0.22371 0.72761,0.23821 0.0364,0.0145 0.0661,-0.0927 0.0661,-0.23821 z m 2.91042,0.0323 c 0,-0.12774 -0.16245,-0.63376 -0.36101,-1.12447 -0.48371,-1.19547 -0.75082,-2.67629 -0.44911,-2.48983 0.13213,0.0817 0.31839,0.5043 0.41391,0.93919 0.0955,0.4349 0.34053,0.79072 0.54446,0.79072 0.28743,0 0.33398,-0.26859 0.20704,-1.19468 l -0.16375,-1.19468 1.07651,-0.45896 c 0.59208,-0.25244 1.27677,-0.79771 1.52154,-1.21172 0.34383,-0.58157 0.5919,-0.72468 1.09088,-0.62929 0.64323,0.12296 0.64378,0.12118 0.13493,-0.43787 -0.28101,-0.30874 -0.80331,-0.88471 -1.16067,-1.27993 -0.35736,-0.39522 -1.04218,-1.49176 -1.52183,-2.43674 -1.00093,-1.972 -1.59022,-2.3049 -3.44492,-1.94611 -0.6574,0.12718 -1.71429,0.15692 -2.34865,0.0661 -0.89297,-0.12784 -1.12719,-0.0858 -1.03738,0.18615 0.079,0.23935 0.82585,0.39529 2.344,0.48943 2.5499,0.15812 2.94964,0.32373 2.74541,1.13742 -0.0953,0.37954 0.0489,0.79091 0.41492,1.18375 0.3085,0.33113 0.80132,1.14557 1.09517,1.80985 l 0.53426,1.20779 -0.73506,0.76725 c -0.40429,0.42198 -0.84254,0.76724 -0.97389,0.76724 -0.13135,0 -0.4623,0.26789 -0.73544,0.59531 l -0.49663,0.59531 -0.009,-0.60186 c -0.006,-0.38383 0.20685,-0.68613 0.58651,-0.83448 0.32743,-0.12795 0.86755,-0.49087 1.20028,-0.8065 l 0.60497,-0.57388 -0.5894,-0.97289 c -1.35264,-2.23272 -1.76534,-2.61447 -3.01097,-2.7852 -0.65501,-0.0898 -1.54832,-0.42747 -1.98513,-0.75042 l -0.7942,-0.58717 -0.55836,0.55836 c -0.49263,0.49262 -0.52239,0.66154 -0.25284,1.43478 0.18422,0.52846 0.23821,1.47136 0.13598,2.37495 -0.14764,1.30498 -0.0972,1.57085 0.39033,2.0584 0.30792,0.30793 0.76822,0.56383 1.02289,0.56866 0.25466,0.005 0.93927,0.33854 1.52135,0.74156 1.02012,0.70631 1.06009,0.78959 1.10701,2.30631 0.0268,0.86546 0.0565,1.66285 0.0661,1.77199 0.0248,0.28128 1.86955,0.2479 1.86955,-0.0338 z m 1.68573,-8.8297 c -0.38618,-0.61847 -0.93157,-1.4519 -1.21196,-1.85209 -0.28039,-0.40018 -0.38505,-0.7276 -0.23258,-0.7276 0.15247,0 0.52237,0.44648 0.822,0.99219 0.29963,0.5457 0.78926,1.37914 1.08807,1.85208 0.2988,0.47294 0.47429,0.8599 0.38995,0.8599 -0.0843,0 -0.46929,-0.50602 -0.85548,-1.12448 z m -0.43085,0.67906 c -0.0666,-0.11882 -0.44698,-0.78159 -0.84538,-1.47281 -0.3984,-0.69123 -0.66373,-1.25677 -0.58963,-1.25677 0.21408,0 1.81144,2.69021 1.67711,2.82454 -0.0666,0.0666 -0.17554,0.0239 -0.2421,-0.095 z m -0.0806,7.74219 c -0.27882,-0.20388 -0.60808,-0.30817 -0.7317,-0.23177 -0.12361,0.0764 0.0537,0.28399 0.39396,0.46131 0.78483,0.40897 1.00568,0.25887 0.33774,-0.22954 z m -54.0909,0.11156 c 0,-0.14552 -0.29765,-0.26458 -0.66145,-0.26458 -0.36381,0 -0.66146,0.11906 -0.66146,0.26458 0,0.14552 0.29765,0.26458 0.66146,0.26458 0.3638,0 0.66145,-0.11906 0.66145,-0.26458 z m 7.54063,0 c 0.0899,-0.14552 -0.0291,-0.26458 -0.26458,-0.26458 -0.23546,0 -0.35453,0.11906 -0.26459,0.26458 0.0899,0.14552 0.209,0.26458 0.26459,0.26458 0.0556,0 0.17464,-0.11906 0.26458,-0.26458 z m 11.21099,-2.09966 c 0.44961,-1.08205 0.78997,-1.98246 0.75636,-2.00091 -0.0336,-0.0184 -0.51099,-0.16483 -1.06085,-0.32529 -0.94595,-0.27605 -1.04125,-0.24735 -1.77072,0.53317 -1.23882,1.32554 -1.25913,1.95279 -0.10163,3.13818 0.54689,0.56007 1.07648,0.92918 1.17686,0.82026 0.10038,-0.10892 0.55038,-1.08336 0.99998,-2.16541 z m -1.82359,1.16722 c -0.51127,-0.61604 -0.14646,-0.73214 0.40071,-0.12752 0.2642,0.29194 0.35742,0.53079 0.20717,0.53079 -0.15026,0 -0.4238,-0.18147 -0.60788,-0.40327 z m 2.38656,1.09304 c 0,-0.0572 -0.1786,-0.17252 -0.39688,-0.25628 -0.21828,-0.0838 -0.39687,-0.037 -0.39687,0.10398 0,0.14096 0.17859,0.25628 0.39687,0.25628 0.21828,0 0.39688,-0.0468 0.39688,-0.10398 z m 2.11666,-0.1606 c -0.95007,-0.30427 -1.37867,-0.30427 -1.19062,0 0.0899,0.14552 0.54345,0.25271 1.0078,0.23821 0.80629,-0.0252 0.81451,-0.0359 0.18282,-0.23821 z m 22.94709,0.10473 c -0.0879,-0.0879 -0.31612,-0.0973 -0.50711,-0.0209 -0.21107,0.0845 -0.14838,0.14716 0.15985,0.15985 0.27891,0.0115 0.43518,-0.051 0.34726,-0.13896 z m 3.90812,-0.10473 c -0.0899,-0.14552 -0.54345,-0.25622 -1.0078,-0.24599 -0.71168,0.0157 -0.76117,0.0543 -0.31512,0.24599 0.73847,0.31733 1.51904,0.31733 1.32292,0 z m 11.50938,0 c 0,-0.14552 -0.36422,-0.26458 -0.80937,-0.26458 -0.4722,0 -0.74125,0.11022 -0.64584,0.26458 0.0899,0.14552 0.45415,0.26458 0.80936,0.26458 0.35522,0 0.64585,-0.11906 0.64585,-0.26458 z m -54.2391,-1.58854 c 0.14523,-0.27135 0.26405,-0.57621 0.26405,-0.67746 0,-0.37745 -2.4435,0.10879 -3.58209,0.71281 -1.23928,0.65744 -1.60222,1.21644 -0.5851,0.9012 1.53716,-0.47643 1.70901,-0.46453 1.86425,0.12909 l 0.15245,0.58298 0.8112,-0.57762 c 0.44616,-0.31769 0.93002,-0.79964 1.07524,-1.071 z m 38.49696,1.26008 c 0.11908,0.10787 0.12729,0.0415 0.0182,-0.14744 -0.15275,-0.26471 -0.28396,-0.27246 -0.57158,-0.0337 -0.2684,0.22275 -0.37332,0.22636 -0.37332,0.0129 0,-0.16334 -0.23813,-0.29698 -0.52917,-0.29698 -0.29104,0 -0.52917,0.11078 -0.52917,0.24618 0,0.32426 1.11023,0.49795 1.47955,0.23146 0.15891,-0.11465 0.38636,-0.1202 0.50545,-0.0123 z m 13.62542,0.0639 c 0,-0.14552 -0.24515,-0.26459 -0.54478,-0.26459 -0.29963,0 -0.4712,0.11907 -0.38126,0.26459 0.0899,0.14552 0.33509,0.26458 0.54478,0.26458 0.20969,0 0.38126,-0.11906 0.38126,-0.26458 z m -60.68697,-1.0937 c -0.21374,-0.48987 -0.39833,-0.7496 -0.4102,-0.57717 -0.0322,0.4683 0.50127,1.76538 0.6606,1.60605 0.076,-0.076 -0.0367,-0.53901 -0.2504,-1.02888 z m 16.39794,0.7175 c 0.19481,-0.50768 -0.35082,-1.47589 -0.83174,-1.47589 -0.46381,0 -0.46133,-0.026 -0.0971,1.01885 0.30907,0.8866 0.69174,1.0749 0.92884,0.45704 z m 8.29803,-0.16331 c -0.50312,-0.31818 -1.05067,-0.32239 -1.05067,-0.008 0,0.24205 1.07155,0.52335 1.31526,0.34528 0.0685,-0.0501 -0.0505,-0.20183 -0.26459,-0.33722 z m 19.58683,0.42283 c 0,-0.27926 -0.50776,-0.39659 -0.65879,-0.15222 -0.0914,0.14789 0.0194,0.2689 0.2463,0.2689 0.22687,0 0.41249,-0.0525 0.41249,-0.11668 z m 6.28386,-0.17293 c 0.47294,-0.003 0.85989,-0.10405 0.85989,-0.22412 0,-0.40143 -1.01684,-0.4901 -1.67926,-0.14644 -0.57327,0.29742 -0.67021,0.28109 -0.77799,-0.13106 -0.091,-0.34815 -0.30399,-0.43625 -0.81731,-0.33812 -0.3818,0.073 -0.69419,0.22137 -0.69419,0.32975 0,0.10838 0.29766,0.14015 0.66146,0.0706 0.82255,-0.15724 0.88568,0.3776 0.0661,0.56039 -0.32743,0.073 -0.11907,0.077 0.46302,0.009 0.58208,-0.0682 1.44528,-0.1266 1.91823,-0.1298 z m 2.84427,0.025 c 0.0899,-0.14552 0.008,-0.2664 -0.18283,-0.26863 -0.27185,-0.003 -0.26792,-0.0537 0.0183,-0.235 0.20054,-0.12703 0.28281,-0.36333 0.18282,-0.52512 -0.22612,-0.36587 -1.47349,-0.39091 -1.47349,-0.0296 0,0.14552 0.17859,0.26458 0.39687,0.26458 0.21829,0 0.39688,0.12609 0.39688,0.2802 0,0.15411 -0.11906,0.20661 -0.26458,0.11668 -0.14553,-0.0899 -0.41222,-0.0723 -0.59265,0.0392 -0.22329,0.138 -0.11767,0.26131 0.33073,0.38612 0.95123,0.26475 1.00757,0.2634 1.18796,-0.0285 z m 5.15937,0.16315 c 0,-0.0558 -0.23829,-0.16374 -0.52953,-0.23991 -0.29124,-0.0762 -0.46281,-0.0305 -0.38126,0.10144 0.14241,0.23043 0.91079,0.34725 0.91079,0.13847 z m 5.29167,-0.2669 c 0,-0.27854 -0.66113,-0.41416 -2.71198,-0.55631 -1.49159,-0.10338 -3.04121,-0.22685 -3.44361,-0.27436 -0.40339,-0.0476 -0.66346,0.0239 -0.57969,0.15943 0.0836,0.1352 0.65091,0.25477 1.26079,0.2657 0.87126,0.0156 5.10373,0.59647 5.40834,0.74223 0.0364,0.0174 0.0661,-0.1341 0.0661,-0.33669 z m -61.38695,-0.0947 c -0.009,-0.52103 -0.34605,-1.38907 -0.53858,-1.38907 -0.4099,0 -0.5863,1.11583 -0.21372,1.3519 0.44605,0.28263 0.75705,0.298 0.7523,0.0372 z m 29.22878,-0.34902 c -0.19648,-0.3179 -0.91475,-0.32086 -0.91475,-0.004 0,0.28673 0.57424,0.52922 0.86421,0.36493 0.11152,-0.0632 0.13426,-0.2257 0.0505,-0.36117 z m 24.88213,0.0183 c 0.0899,-0.14552 -0.0221,-0.26459 -0.24897,-0.26459 -0.22687,0 -0.41249,0.11907 -0.41249,0.26459 0,0.14552 0.11203,0.26458 0.24897,0.26458 0.13693,0 0.32255,-0.11906 0.41249,-0.26458 z M 57.24932,76.05433 c -0.084,-0.32107 -0.25528,-0.58376 -0.38071,-0.58376 -0.12543,0 -0.0922,0.29816 0.0738,0.66258 0.35785,0.78538 0.52185,0.74326 0.30688,-0.0788 z m 6.12676,0.47457 c -0.0899,-0.14552 -0.33508,-0.26458 -0.54478,-0.26458 -0.20969,0 -0.38126,0.11906 -0.38126,0.26458 0,0.14552 0.24515,0.26459 0.54478,0.26459 0.29963,0 0.4712,-0.11907 0.38126,-0.26459 z m 2.22637,-0.11078 c -0.0609,-0.0609 -0.46773,-0.19537 -0.90399,-0.29875 -0.54301,-0.12867 -0.70975,-0.10182 -0.52863,0.0851 0.14553,0.15018 0.50271,0.32223 0.79375,0.38233 0.53839,0.11118 0.83929,0.0317 0.63887,-0.16869 z m 5.2426,0.21551 c -0.0879,-0.0879 -0.31612,-0.0973 -0.50712,-0.0209 -0.21106,0.0845 -0.14837,0.14715 0.15986,0.15985 0.27891,0.0115 0.43518,-0.0511 0.34726,-0.13897 z m 4.59331,-0.53019 c 0.1681,-0.20256 0.48034,-0.36829 0.69386,-0.36829 0.21351,0 0.60613,-0.26789 0.87249,-0.59531 0.46997,-0.57773 0.46927,-0.61967 -0.0237,-1.42029 -0.73545,-1.19432 -0.67774,-1.78853 0.15345,-1.57991 0.58684,0.14728 0.661,0.0834 0.6574,-0.56663 -0.002,-0.40296 -0.0915,-0.86197 -0.19843,-1.02004 -0.24616,-0.36393 -1.8177,-0.91152 -2.02398,-0.70524 -0.0851,0.0851 -0.15478,-0.0389 -0.15478,-0.27557 0,-0.4107 -0.58439,-0.64868 -2.77813,-1.13134 -0.70018,-0.15405 -0.73137,-0.19784 -0.26458,-0.37145 0.32773,-0.1219 -0.05,-0.18914 -0.99219,-0.17664 -0.83674,0.0111 -1.52135,0.0961 -1.52135,0.18886 0,0.0928 0.98226,0.37361 2.18281,0.62407 3.37509,0.70413 3.30502,0.67544 2.71087,1.1099 -0.6538,0.47806 -2.87186,0.46471 -3.81494,-0.023 -0.69525,-0.35953 -1.07874,-0.31279 -1.07874,0.13145 0,0.29099 2.1105,0.79966 3.57187,0.8609 l 1.32292,0.0554 -0.0843,0.97017 c -0.0464,0.5336 0.10095,1.32845 0.3274,1.76635 0.40941,0.79172 0.40581,0.80085 -0.64328,1.63175 -1.15865,0.91766 -1.29278,1.23051 -0.59198,1.38072 0.65085,0.1395 1.31895,-0.054 1.67738,-0.48591 z m 8.9721,0.42546 c 0,-0.14552 -0.24515,-0.26458 -0.54478,-0.26458 -0.29963,0 -0.4712,0.11906 -0.38126,0.26458 0.0899,0.14552 0.33509,0.26459 0.54478,0.26459 0.20969,0 0.38126,-0.11907 0.38126,-0.26459 z m 1.87428,-0.13229 c 0.003,-0.14552 -0.18608,-0.30442 -0.42055,-0.3531 -0.6199,-0.12873 -1.25093,0.17137 -1.04864,0.49869 0.21341,0.3453 1.46121,0.22165 1.46919,-0.14559 z m 17.89009,-0.8643 c -0.68791,-0.68792 -0.97895,-0.84961 -0.97895,-0.54387 0,0.47485 1.55956,1.92118 1.80593,1.67481 0.0836,-0.0836 -0.28855,-0.59252 -0.82698,-1.13094 z M 57.71236,75.38955 c -0.34553,-0.34553 -0.3936,0.0374 -0.0988,0.78698 0.18385,0.46746 0.19413,0.46723 0.2894,-0.006 0.0543,-0.27012 -0.0315,-0.62135 -0.19062,-0.78052 z m 15.05643,0.84646 c 0,-0.16109 -0.16408,-0.22992 -0.36463,-0.15297 -0.20055,0.077 -0.49821,0.006 -0.66146,-0.1569 -0.21938,-0.21937 -0.38312,-0.20385 -0.62755,0.0595 -0.1819,0.19597 -0.20598,0.28717 -0.0535,0.20266 0.15247,-0.0845 0.45013,-0.0443 0.66146,0.0894 0.52632,0.33295 1.0457,0.31223 1.0457,-0.0417 z m 5.98916,-0.10246 c 0.0834,-0.21745 0.2411,-0.34011 0.35035,-0.27259 0.10925,0.0675 0.14449,-0.16049 0.0783,-0.5067 -0.1518,-0.79405 -0.96775,-1.02643 -1.50799,-0.42947 -0.49821,0.55051 -0.5097,0.72163 -0.0812,1.20834 0.43484,0.49389 0.97107,0.49408 1.16051,4.2e-4 z m 13.17671,0.15735 c 0.0809,-0.13091 -0.38279,-0.28015 -1.03042,-0.33166 -1.15626,-0.092 -1.31746,0.13051 -0.27607,0.381 0.87614,0.21074 1.15219,0.20031 1.30649,-0.0493 z m 10.87992,-0.16729 c -0.28248,-0.21365 -0.94962,-0.38846 -1.48255,-0.38846 -0.53292,0 -1.70079,-0.0765 -2.59526,-0.16998 -1.01415,-0.106 -1.62631,-0.0711 -1.62631,0.0927 0,0.21269 3.02283,0.6485 5.68854,0.82012 0.52193,0.0336 0.52215,0.0288 0.0156,-0.35439 z m -14.62764,-0.5448 c -0.43641,-0.33113 -0.42651,-0.35658 0.14174,-0.36441 0.33835,-0.005 0.53797,-0.12646 0.4474,-0.273 -0.0899,-0.14552 -0.39462,-0.26458 -0.67707,-0.26458 -0.39055,0 -0.51355,0.18418 -0.51355,0.76898 0,0.64167 0.0886,0.7458 0.53533,0.62899 0.50664,-0.13249 0.51018,-0.15908 0.0661,-0.49598 z m -22.44283,0.1905 c -0.38927,-0.35684 -1.70657,-0.6049 -1.70657,-0.32136 0,0.13863 0.32742,0.30165 0.72761,0.36228 0.40018,0.0606 0.84071,0.12806 0.97896,0.14986 0.15875,0.025 0.15875,-0.0453 0,-0.19078 z m 18.13718,-0.0342 c 0,-0.14552 -0.17859,-0.26458 -0.39687,-0.26458 -0.21828,0 -0.39688,0.11906 -0.39688,0.26458 0,0.14552 0.1786,0.26459 0.39688,0.26459 0.21828,0 0.39687,-0.11907 0.39687,-0.26459 z m 1.76348,0 c 0.85404,0 0.13925,-0.60789 -0.74531,-0.63385 -0.83475,-0.0245 -0.90775,0.0248 -0.64916,0.43855 0.16025,0.25638 0.45017,0.40521 0.64428,0.33073 0.1941,-0.0745 0.53169,-0.13543 0.75019,-0.13543 z m 1.67611,0.14791 c 0,-0.0642 -0.11907,-0.19026 -0.26459,-0.2802 -0.14552,-0.0899 -0.26458,-0.0374 -0.26458,0.11668 0,0.15411 0.11906,0.2802 0.26458,0.2802 0.14552,0 0.26459,-0.0525 0.26459,-0.11668 z M 58.57697,75.33824 c -0.0838,-0.21828 -0.19908,-0.39688 -0.25628,-0.39688 -0.0572,0 -0.10398,0.1786 -0.10398,0.39688 0,0.21828 0.11533,0.39687 0.25628,0.39687 0.14095,0 0.18775,-0.17859 0.10398,-0.39687 z m 33.10953,0.13229 c -0.0899,-0.14552 -0.66251,-0.2505 -1.27239,-0.23328 -1.04739,0.0296 -1.06486,0.0425 -0.31511,0.23328 1.17392,0.29871 1.77212,0.29871 1.5875,0 z m 1.85208,0 c -0.73096,-0.31411 -1.19062,-0.31411 -1.19062,0 0,0.14552 0.38695,0.25621 0.85989,0.24599 0.7206,-0.0156 0.77418,-0.0554 0.33073,-0.24599 z m -22.0927,-0.2802 c 0,-0.15411 -0.11907,-0.20661 -0.26459,-0.11668 -0.14552,0.0899 -0.26458,0.0176 -0.26458,-0.16077 0,-0.17836 -0.0715,-0.25284 -0.15879,-0.16551 -0.20326,0.20327 0.11233,0.72316 0.43899,0.72316 0.13693,0 0.24897,-0.12609 0.24897,-0.2802 z m 9.26041,0.0156 c -0.52278,-0.33785 -1.39942,-0.33785 -1.19062,0 0.0899,0.14552 0.48391,0.26276 0.87551,0.26053 0.55688,-0.003 0.62553,-0.0599 0.31511,-0.26053 z m 20.6375,0.0553 c 0,-0.11513 -0.48497,-0.65523 -1.07771,-1.20023 l -1.07772,-0.9909 -0.97281,0.60123 c -0.53504,0.33067 -1.00257,0.57312 -1.03895,0.53876 -0.0364,-0.0344 -0.0661,-0.003 -0.0661,0.0698 0,0.0728 0,0.30521 0,0.51655 0,0.28493 0.4274,0.40852 1.65364,0.47818 0.90951,0.0517 1.86201,0.11688 2.11667,0.14492 0.25466,0.028 0.46302,-0.0432 0.46302,-0.15834 z M 49.05868,74.74295 c -0.12431,-0.39535 -0.0844,-0.38796 0.27289,0.0506 0.58417,0.71695 0.51503,0.15643 -0.0754,-0.61135 l -0.48212,-0.62693 -0.0235,0.82536 c -0.0129,0.45395 0.0839,0.82537 0.21512,0.82537 0.13122,0 0.17306,-0.20836 0.093,-0.46302 z m 8.32344,-0.0245 c 0.38626,-0.26812 1.32738,-0.82282 2.09136,-1.23268 0.76399,-0.40985 1.38906,-0.86021 1.38906,-1.00079 0,-0.52762 -1.73961,0.11562 -2.64032,0.97629 -0.51235,0.48958 -1.28874,1.07764 -1.7253,1.30681 -0.57417,0.3014 -0.65867,0.4196 -0.30543,0.42726 0.26858,0.006 0.80436,-0.20877 1.19063,-0.47689 z m 8.24292,0.2229 c -0.21828,-0.14106 -0.75406,-0.24643 -1.19062,-0.23416 -0.77784,0.0219 -0.78049,0.0266 -0.13229,0.23416 0.3638,0.11651 0.89958,0.22188 1.19062,0.23416 0.43594,0.0184 0.45925,-0.0229 0.13229,-0.23416 z m 7.9375,0 c 0,-0.14552 -0.11906,-0.26458 -0.26458,-0.26458 -0.14552,0 -0.26458,0.11906 -0.26458,0.26458 0,0.14552 0.11906,0.26459 0.26458,0.26459 0.14552,0 0.26458,-0.11907 0.26458,-0.26459 z m 9.26042,-0.26458 c -0.20985,-0.1297 -0.44108,-0.17628 -0.51384,-0.10352 -0.0728,0.0728 0.0394,0.23841 0.24926,0.3681 0.20985,0.1297 0.44108,0.17628 0.51384,0.10352 0.0728,-0.0728 -0.0394,-0.2384 -0.24926,-0.3681 z m 19.27942,-0.50141 c -0.34446,-0.43573 -0.72067,-0.79882 -0.83601,-0.80687 -0.11535,-0.008 0.11838,0.39656 0.51939,0.89913 0.40101,0.50257 0.77722,0.86566 0.83601,0.80686 0.0588,-0.0588 -0.17493,-0.4634 -0.51939,-0.89912 z m 9.03099,0.92723 c 0,-0.0568 -0.41671,-0.15199 -0.92604,-0.21145 -0.50932,-0.0595 -0.92604,-0.013 -0.92604,0.10334 0,0.1163 0.41672,0.21146 0.92604,0.21146 0.50933,0 0.92604,-0.0465 0.92604,-0.10335 z M 47.35942,74.74292 c -0.005,-0.10915 -0.17953,-0.4961 -0.3875,-0.8599 -0.20797,-0.3638 -0.37696,-0.78052 -0.37554,-0.92604 10e-4,-0.14552 0.28947,0.2712 0.64012,0.92604 0.35065,0.65484 0.65178,1.13109 0.66917,1.05833 0.23481,-0.9825 0.16703,-1.31508 -0.37106,-1.82059 -1.12879,-1.06044 -2.10103,0.1763 -1.05085,1.33674 0.44825,0.49531 0.89241,0.64008 0.87566,0.28542 z m 3.18437,0.0661 c 0,-0.0728 -0.23812,-0.37042 -0.52916,-0.66146 -0.6029,-0.60289 -0.68037,-0.49951 -0.20094,0.26818 0.30036,0.48095 0.7301,0.71244 0.7301,0.39328 z m 4.37651,-0.37927 c -0.0959,-0.1552 -0.30102,-0.28219 -0.45577,-0.28219 -0.17544,0 -0.15537,0.15182 0.0533,0.40327 0.36289,0.43725 0.68721,0.33968 0.40245,-0.12108 z m 26.84433,0.26255 c 0,-0.13696 -0.50602,-0.37222 -1.12448,-0.52281 l -1.12448,-0.2738 1.12448,0.12907 c 0.66705,0.0766 1.12448,0.0202 1.12448,-0.13865 0,-0.24892 -0.37896,-0.37752 -0.87062,-0.29547 -0.11503,0.0192 -0.43055,-0.0836 -0.70115,-0.22841 -0.37262,-0.19941 -0.53052,-0.16293 -0.65074,0.15036 -0.22448,0.58498 -0.19705,1.21904 0.0462,1.06869 0.15575,-0.0963 1.62998,0.13635 2.11013,0.33295 0.0364,0.0149 0.0661,-0.085 0.0661,-0.22193 z m 9.65729,-0.0156 c -0.0899,-0.14552 -0.60298,-0.26276 -1.1401,-0.26053 -0.72793,0.003 -0.87552,0.0693 -0.57969,0.26053 0.52805,0.34125 1.93069,0.34125 1.71979,0 z m 1.71979,0 c -0.51815,-0.33486 -0.86841,-0.33486 -0.66146,0 0.0899,0.14552 0.36485,0.26276 0.61093,0.26053 0.38557,-0.003 0.39255,-0.0395 0.0505,-0.26053 z m 14.81667,-0.007 c -1.52879,-0.27997 -3.96945,-0.31617 -3.96642,-0.0588 10e-4,0.10914 1.16214,0.21609 2.57968,0.23766 2.05523,0.0313 2.33616,-0.005 1.38674,-0.17883 z M 66.15421,74.4433 c 0,-0.27399 -0.91638,-0.55128 -1.83885,-0.55642 -0.87379,-0.005 -0.37882,0.45162 0.64822,0.59785 0.43657,0.0621 0.88305,0.13084 0.99219,0.15265 0.10914,0.0218 0.19844,-0.0655 0.19844,-0.19408 z m 20.2562,-0.15474 c 0.28247,-0.21365 0.72195,-0.39225 0.97661,-0.39688 0.25466,-0.005 0.46302,-0.12747 0.46302,-0.27299 0,-0.14552 0.44649,-0.26641 0.99219,-0.26864 0.73802,-0.003 0.89052,-0.0697 0.59531,-0.26053 -0.21828,-0.14106 -0.66476,-0.2583 -0.99219,-0.26053 -0.32742,-0.002 -0.59531,-0.0992 -0.59531,-0.21551 0,-0.1163 0.44649,-0.17558 0.99219,-0.13175 0.77838,0.0625 0.87815,0.0266 0.46302,-0.16682 -0.7725,-0.3599 -1.71511,-0.33458 -1.75026,0.047 -0.0168,0.1819 -0.009,0.53908 0.0166,0.79375 0.0375,0.36843 -0.1595,0.46302 -0.96422,0.46302 -0.72477,0 -1.10495,0.14993 -1.34179,0.52916 -0.28495,0.45628 -0.26424,0.52917 0.15037,0.52917 0.26446,0 0.71196,-0.17481 0.99443,-0.38846 z M 51.64744,73.97455 c 0.89216,-0.80739 0.53898,-1.69895 -0.74297,-1.87556 -0.68401,-0.0942 -1.05683,0.97789 -0.62235,1.78971 0.34176,0.63859 0.72774,0.66286 1.36532,0.0859 z m 5.16298,0.13459 0.74483,-0.3033 -1.05833,-0.35071 -1.05833,-0.35072 1.05833,0.0182 c 1.50006,0.0258 1.63783,-0.009 1.19062,-0.29766 -0.57419,-0.37108 -2.31639,-0.32409 -2.45251,0.0661 -0.19491,0.55876 0.0999,0.99089 0.69488,1.01856 0.51414,0.0239 0.50533,0.0461 -0.0944,0.23821 -0.40863,0.13087 -0.49106,0.22192 -0.21566,0.23821 0.24519,0.0145 0.78097,-0.11011 1.19062,-0.27692 z m 16.75095,-0.22689 c -0.33622,-0.2916 -1.08782,-0.6585 -1.67021,-0.81532 -0.5824,-0.15682 -1.36732,-0.46598 -1.74428,-0.68702 -0.37696,-0.22103 -0.15525,0.0806 0.49269,0.67025 0.80084,0.72884 1.47861,1.10435 2.11667,1.17273 0.51623,0.0553 1.04611,0.12061 1.17752,0.14507 0.1314,0.0245 -0.0362,-0.19411 -0.37239,-0.48571 z m 9.65846,0.001 c -1.27601,-0.59069 -0.88916,-0.67938 0.6282,-0.14403 0.60038,0.21183 1.0916,0.27828 1.0916,0.14767 0,-0.38647 -2.48008,-1.01046 -2.70793,-0.68131 -0.37921,0.54778 -0.193,0.90854 0.52511,1.01733 1.41504,0.21436 1.50974,0.14489 0.46302,-0.33966 z m -4.51955,0.10398 c 0.49759,-0.19094 0.55865,-0.63246 0.0878,-0.63478 -0.1819,-8.9e-4 -0.65815,-0.17243 -1.05833,-0.38118 -0.82448,-0.43009 -0.91327,-0.26459 -0.31573,0.58852 0.43693,0.6238 0.61788,0.68393 1.28628,0.42744 z m 12.242,-0.19761 c 0.094,-0.094 -0.26561,-0.17095 -0.79918,-0.17095 -0.53358,0 -0.97014,0.10522 -0.97014,0.23382 0,0.25986 1.49988,0.20657 1.76932,-0.0629 z M 55.04171,73.61869 c 0,-0.14552 -0.26789,-0.27296 -0.59531,-0.28318 -0.32742,-0.0102 -0.83344,-0.13126 -1.12448,-0.26895 -0.3881,-0.1836 -0.2294,-0.21308 0.59531,-0.11056 1.29307,0.16073 1.53818,-0.24676 0.29766,-0.49487 -1.34724,-0.26944 -1.55443,-0.20545 -1.55443,0.48013 0,0.55105 0.14515,0.66067 0.99219,0.74927 0.5457,0.0571 1.08148,0.1238 1.19062,0.14826 0.10914,0.0245 0.19844,-0.0746 0.19844,-0.2201 z m 19.57917,0.0425 c 0,-0.25363 -1.18764,-0.8418 -1.6661,-0.82513 -0.17505,0.006 0.0984,0.23923 0.60776,0.51807 1.09462,0.59928 1.05834,0.58875 1.05834,0.30706 z M 45.99451,72.21526 c 0.24653,-0.22021 0.7459,-0.441 1.1097,-0.49065 1.0049,-0.13714 0.74866,-0.53453 -0.90583,-1.40485 -1.24738,-0.65616 -1.54176,-0.72597 -1.73599,-0.4117 -0.27903,0.45147 -0.0855,1.64184 0.47424,2.91691 0.35076,0.79901 0.42045,0.84817 0.50808,0.35836 0.0559,-0.31223 0.30327,-0.74786 0.5498,-0.96807 z m 20.00888,1.16885 c 0.30845,-0.49908 -0.75514,-0.9472 -2.24814,-0.9472 -1.48137,0 -2.10957,0.20106 -1.7504,0.56022 0.0947,0.0947 0.9182,0.25699 1.83003,0.36067 0.91183,0.10368 1.74014,0.2048 1.84069,0.22472 0.10056,0.0199 0.24807,-0.0694 0.32782,-0.19841 z m 20.39144,-0.31283 c 0.77103,-0.21393 0.7659,-0.21841 -0.17937,-0.15634 -0.92137,0.0605 -0.98247,0.0141 -1.14878,-0.87243 -0.27839,-1.48392 -1.9387,-3.98004 -2.64736,-3.98004 -0.80865,0 -1.07266,1.22221 -0.3478,1.61014 0.27592,0.14767 0.43116,0.38259 0.34498,0.52204 -0.0862,0.13945 0.11884,0.36405 0.45561,0.49912 0.33677,0.13506 0.46348,0.25312 0.28158,0.26234 -0.59049,0.0299 -0.34893,0.54537 0.26458,0.56454 0.55084,0.0172 0.5568,0.0337 0.0797,0.22035 -0.45442,0.17781 -0.41516,0.23679 0.33073,0.49681 0.46551,0.16228 0.84637,0.37351 0.84637,0.46941 0,0.0959 -0.14883,0.11843 -0.33073,0.0501 -1.08369,-0.40726 -1.52135,-0.47121 -1.52135,-0.2223 0,0.29965 1.40193,0.77589 2.24896,0.76398 0.29104,-0.004 0.88635,-0.10655 1.32291,-0.22769 z M 49.35242,72.56275 c 0.19793,-0.62363 -0.0198,-1.0607 -0.52842,-1.0607 -0.2011,0 -0.43989,0.12013 -0.53063,0.26695 -0.249,0.4029 0.11973,1.32055 0.53063,1.32055 0.19867,0 0.43646,-0.23706 0.52842,-0.5268 z m 32.5445,0.26222 c -0.0899,-0.14552 -0.39462,-0.26459 -0.67708,-0.26459 -0.28245,0 -0.51355,0.11907 -0.51355,0.26459 0,0.14552 0.30469,0.26458 0.67708,0.26458 0.384,0 0.60629,-0.11452 0.51355,-0.26458 z M 78.72798,72.2767 c 0.0957,-0.30154 0.10146,-0.83732 0.0128,-1.19062 -0.0901,-0.35893 -0.0446,-0.64236 0.10302,-0.64236 0.14534,0 0.50721,-0.47625 0.80417,-1.05834 0.56299,-1.10356 0.46497,-1.29369 -0.34891,-0.67672 -0.34935,0.26482 -0.70891,0.29947 -1.31225,0.12643 -0.52384,-0.15023 -0.9279,-0.14148 -1.09307,0.0237 -0.17297,0.17297 0.0707,0.26202 0.71694,0.26202 1.02565,0 1.30587,0.46761 0.64823,1.08172 -0.19932,0.18611 -0.29386,0.76849 -0.23794,1.46564 0.0989,1.2327 0.42094,1.5099 0.70702,0.60854 z m 1.37749,0.38841 c -0.0879,-0.0879 -0.31612,-0.0973 -0.50712,-0.0209 -0.21107,0.0845 -0.14837,0.14715 0.15985,0.15985 0.27892,0.0115 0.43519,-0.0511 0.34727,-0.13897 z M 58.48129,72.31337 c 0,-0.13585 -0.26789,-0.29958 -0.59531,-0.36383 -0.32742,-0.0642 -0.11639,-0.0781 0.46895,-0.0309 0.58535,0.0473 1.24019,-0.0253 1.45521,-0.16128 0.29784,-0.18834 0.21766,-0.24818 -0.33666,-0.25127 -0.40018,-0.002 -0.7276,-0.12311 -0.7276,-0.26863 0,-0.34985 0.15978,-0.33483 1.15064,0.10816 1.50657,0.67356 2.74552,0.70098 2.0905,0.0463 -0.21247,-0.21238 -0.31348,-1.01392 -0.32685,-2.59371 -0.006,-0.69497 -0.15801,-1.06418 -0.51787,-1.25677 -0.68476,-0.36647 -0.74763,-0.35244 -1.06325,0.2373 -0.36004,0.67273 -0.0994,1.29134 0.5867,1.39276 0.72675,0.10741 0.93247,0.74307 0.24048,0.74307 -0.80524,0 -1.3666,0.28064 -1.3666,0.68322 0,0.2872 -0.15036,0.30348 -0.72761,0.0788 -1.07333,-0.41784 -3.87357,-0.61396 -3.65222,-0.2558 0.0977,0.15816 0.55765,0.30165 1.022,0.31886 0.46436,0.0172 1.20147,0.12827 1.63803,0.24678 0.53309,0.14472 0.29415,0.16787 -0.7276,0.0705 -1.0293,-0.0981 -1.52135,-0.0495 -1.52135,0.15009 0,0.16229 0.32742,0.30916 0.7276,0.32637 l 0.7276,0.0313 -0.79375,0.20197 c -0.90634,0.23063 -0.87624,0.26425 0.39688,0.4433 0.50932,0.0716 0.97565,0.17978 1.03628,0.24034 0.21054,0.21029 0.8158,0.10872 0.8158,-0.1369 z m 7.9375,-0.0176 c 0,-0.14552 -0.26789,-0.26276 -0.59531,-0.26053 -0.48139,0.003 -0.51937,0.0531 -0.19844,0.26053 0.51297,0.3315 0.79375,0.3315 0.79375,0 z m 7.47448,0.0893 c -0.1819,-0.0734 -0.47956,-0.0734 -0.66146,0 -0.1819,0.0734 -0.0331,0.13346 0.33073,0.13346 0.3638,0 0.51263,-0.0601 0.33073,-0.13346 z m 13.16302,-0.0893 c 0,-0.14552 -0.29765,-0.26458 -0.66146,-0.26458 -0.3638,0 -0.66145,0.11906 -0.66145,0.26458 0,0.14552 0.29765,0.26458 0.66145,0.26458 0.36381,0 0.66146,-0.11906 0.66146,-0.26458 z m 13.49375,0 c 0,-0.14552 -0.12609,-0.26458 -0.2802,-0.26458 -0.15411,0 -0.20661,0.11906 -0.11667,0.26458 0.0899,0.14552 0.21602,0.26458 0.2802,0.26458 0.0642,0 0.11667,-0.11906 0.11667,-0.26458 z m -19.05,-0.30868 c 0,-0.12127 -0.17859,-0.22049 -0.39687,-0.22049 -0.21828,0 -0.39688,0.0992 -0.39688,0.22049 0,0.12127 0.1786,0.22049 0.39688,0.22049 0.21828,0 0.39687,-0.0992 0.39687,-0.22049 z m 0.79375,0.0439 c 0,-0.14552 -0.11906,-0.26459 -0.26458,-0.26459 -0.14552,0 -0.26458,0.11907 -0.26458,0.26459 0,0.14552 0.11906,0.26458 0.26458,0.26458 0.14552,0 0.26458,-0.11906 0.26458,-0.26458 z m -27.3576,-0.22127 c -0.19802,-0.3204 -2.54031,-0.36231 -2.54031,-0.0454 0,0.14669 0.60234,0.26672 1.33853,0.26672 0.73619,0 1.27699,-0.0996 1.20178,-0.22127 z M 74.224,71.76642 c 0.0899,-0.14552 0.008,-0.26977 -0.18282,-0.2761 -0.19049,-0.006 -0.85708,-0.11028 -1.48131,-0.23098 -1.32565,-0.25632 -1.2328,-0.023 0.16443,0.41319 1.28001,0.39961 1.30961,0.40146 1.4997,0.0939 z m 15.45608,-0.10869 c -0.2662,-0.26246 -2.09462,-0.45939 -2.09462,-0.2256 0,0.13957 0.36941,0.26427 0.82092,0.27711 0.45151,0.0128 0.88807,0.0905 0.97014,0.17255 0.0821,0.0821 0.20875,0.0897 0.28151,0.0169 0.0728,-0.0728 0.0827,-0.1812 0.022,-0.24098 z M 62.7025,71.2146 c -0.16243,-0.30351 -0.34802,-0.49914 -0.41241,-0.43475 -0.18518,0.18518 0.19022,0.98657 0.46215,0.98657 0.13516,0 0.11279,-0.24813 -0.0497,-0.55182 z m 18.09987,-1.76328 c 0.22251,-0.76399 0.31084,-1.38906 0.19629,-1.38906 -0.33871,0 -1.61528,2.5317 -1.61528,3.20345 0,0.61446 0.003,0.61506 0.50721,0.0965 0.27897,-0.287 0.68927,-1.1469 0.91178,-1.91088 z m 6.25392,1.96405 c 0,-0.23929 -0.25184,-0.31409 -0.79105,-0.23495 -0.91901,0.13489 -0.80723,0.586 0.14521,0.586 0.36022,0 0.64584,-0.15525 0.64584,-0.35105 z M 53.91723,71.23956 c 0.61846,-10e-4 1.12448,-0.12756 1.12448,-0.28065 0,-0.1752 -0.76464,-0.25992 -2.06335,-0.22862 -1.60969,0.0388 -2.34424,-0.0745 -3.34092,-0.5154 -0.70267,-0.31082 -1.30547,-0.56513 -1.33955,-0.56513 -0.0341,0 -0.008,0.28364 0.0585,0.63032 0.15588,0.81542 1.36619,1.23508 3.11342,1.07954 0.7276,-0.0648 1.82893,-0.1188 2.44739,-0.12006 z m 9.33226,-0.52347 c -0.57403,-0.80614 -1.06403,-1.23183 -1.06403,-0.92435 0,0.33097 1.09594,1.7101 1.35895,1.7101 0.14552,0 0.0128,-0.35359 -0.29492,-0.78575 z m 18.64743,0.52117 c -0.0899,-0.14552 -0.42439,-0.26276 -0.74322,-0.26054 -0.47129,0.003 -0.50548,0.052 -0.18282,0.26054 0.52126,0.33686 1.13423,0.33686 0.92604,0 z m 7.80521,-0.23373 c 0,-0.25733 -0.89997,-0.55076 -1.70657,-0.55641 -0.69475,-0.005 -0.20723,0.44594 0.64823,0.59941 0.3638,0.0653 0.75076,0.13488 0.8599,0.15469 0.10914,0.0198 0.19844,-0.0691 0.19844,-0.19769 z m -2.8551,-0.17437 C 87.15125,70.52494 86.27,66.93542 85.80819,66.59774 85.22871,66.17401 82.76452,65.8445 81.99698,66.08811 c -0.70079,0.22242 -0.32448,0.51614 1.20216,0.93832 0.7506,0.20757 0.93563,0.35 0.66888,0.51486 -0.29421,0.18184 -0.26328,0.26151 0.15298,0.39409 0.28696,0.0914 0.87894,0.33711 1.3155,0.54603 0.64452,0.30843 0.66939,0.34765 0.13229,0.20862 -0.3638,-0.0942 -0.82653,-0.23339 -1.02829,-0.30937 -0.22846,-0.086 -0.32086,-2.4e-4 -0.24496,0.22745 0.067,0.20108 0.41069,0.4463 0.7637,0.54495 0.42032,0.11746 0.48203,0.18847 0.17882,0.20574 -0.76433,0.0435 -0.52302,0.52309 0.39688,0.7887 0.77691,0.22432 0.79606,0.25238 0.19844,0.29074 -0.61055,0.0392 -0.62073,0.06 -0.1323,0.26985 0.63757,0.27397 1.05271,0.31431 1.24595,0.12107 z m -5.2147,-0.38565 c -0.0899,-0.14552 -0.27555,-0.26459 -0.41249,-0.26459 -0.13693,0 -0.24896,0.11907 -0.24896,0.26459 0,0.14552 0.18562,0.26458 0.41249,0.26458 0.22687,0 0.3389,-0.11906 0.24896,-0.26458 z M 51.7573,70.24507 c -0.25033,-0.25139 -2.89141,-1.12227 -3.01839,-0.9953 -0.15138,0.15139 2.15068,1.1469 2.70888,1.17144 0.27891,0.0123 0.41819,-0.067 0.30951,-0.17614 z m 2.98528,-0.15682 c 0.21197,-0.25541 0.63008,-0.30438 1.48761,-0.17424 1.22601,0.18607 1.66044,-0.0772 0.59746,-0.36207 -1.17598,-0.31515 -2.31511,-0.19049 -2.31511,0.25336 0,0.34474 -0.2018,0.38942 -1.12448,0.24897 -0.81858,-0.12461 -1.01651,-0.096 -0.7276,0.10498 0.56055,0.39004 1.73266,0.35008 2.08212,-0.071 z m 34.54176,-0.17814 c -1.27988,-0.45746 -2.01405,-0.54441 -1.9079,-0.22594 0.0591,0.17714 0.45551,0.3687 0.88102,0.42569 0.42551,0.057 0.82217,0.15213 0.88148,0.21143 0.0593,0.0593 0.23064,0.0319 0.38074,-0.0608 0.15552,-0.0961 0.0543,-0.24682 -0.23534,-0.35034 z M 54.09803,69.39459 c -0.3892,-0.38824 -2.81535,-1.63025 -2.94036,-1.50524 -0.0619,0.0619 0.22111,0.36298 0.62896,0.66903 0.40785,0.30605 0.89037,0.6815 1.07227,0.83435 0.1819,0.15284 0.33073,0.20775 0.33073,0.12202 0,-0.0857 0.20736,-0.0398 0.46081,0.10201 0.52482,0.29371 0.81856,0.1479 0.44759,-0.22217 z m 15.48551,0.01 c 0.54339,-1.01534 -0.53037,-2.03804 -1.20557,-1.14824 -0.48509,0.63925 -0.45757,1.05275 0.0913,1.37246 0.65617,0.38219 0.8058,0.35208 1.11423,-0.22422 z m 8.47692,0.24542 c 0,-0.14552 -0.26789,-0.26276 -0.59531,-0.26054 -0.4814,0.003 -0.51937,0.0531 -0.19844,0.26054 0.51296,0.3315 0.79375,0.3315 0.79375,0 z M 52.34954,69.31086 c -0.24376,-0.17727 -0.83908,-0.54674 -1.32292,-0.82103 -0.48383,-0.2743 -0.74351,-0.5479 -0.57706,-0.608 0.16645,-0.0601 0.23864,-0.35402 0.16041,-0.65315 -0.17824,-0.6816 -1.25059,-1.86231 -1.48159,-1.63131 -0.29088,0.29088 -0.19821,0.54141 0.51289,1.3865 0.37674,0.44773 0.56991,0.81405 0.42927,0.81405 -0.14064,0 -0.40392,-0.17859 -0.58508,-0.39687 -0.18116,-0.21828 -0.45631,-0.39688 -0.61145,-0.39688 -0.35133,0 0.40493,0.71375 1.91632,1.8086 0.63568,0.46048 1.34627,0.83345 1.5791,0.82882 0.37766,-0.008 0.37551,-0.0432 -0.0199,-0.33073 z m 20.15467,-0.0799 c -1.59519,-0.39522 -2.36941,-0.33229 -1.32292,0.10752 0.3638,0.1529 1.13771,0.27238 1.71979,0.26551 1.05157,-0.0124 1.04904,-0.0148 -0.39687,-0.37303 z m -22.225,-0.3881 c -1.1797,-0.9467 -1.51998,-1.07335 -1.69041,-0.6292 -0.10758,0.28035 0.10945,0.52134 0.70115,0.77855 1.28181,0.55719 1.77661,0.48249 0.98926,-0.14935 z m 39.15833,0.30031 c -0.69234,-0.39455 -2.11666,-0.61304 -2.11666,-0.32469 0,0.2337 0.63406,0.38844 2.11666,0.51656 0.35278,0.0305 0.35278,0.009 0,-0.19187 z M 56.00818,68.73373 c -0.26881,-0.20366 -0.65508,-0.30646 -0.85838,-0.22844 -0.5731,0.21992 -0.15822,0.61652 0.63513,0.60715 0.66698,-0.008 0.68109,-0.0318 0.22325,-0.37871 z m 1.67936,-0.68078 c 0,-0.0951 -0.23564,-0.38626 -0.52365,-0.6469 -0.4885,-0.44209 -0.53523,-0.44371 -0.69624,-0.0241 -0.0949,0.24736 -0.0274,0.7684 0.15004,1.15785 0.31177,0.68426 0.3352,0.69089 0.69624,0.19714 0.20549,-0.28102 0.37361,-0.5888 0.37361,-0.68396 z m -3.11822,0.12291 c 0.25098,-0.55084 0.2373,-0.72641 -0.0718,-0.92199 -0.61857,-0.39137 -0.97154,-0.28804 -1.13365,0.33186 -0.1516,0.5797 0.20596,1.27054 0.6576,1.27054 0.13082,0 0.37736,-0.30619 0.54787,-0.68041 z m 21.90364,0.15124 c 0,-0.51761 -0.85365,-1.5875 -1.26664,-1.5875 -0.25062,0 -0.3955,1.51727 -0.17841,1.86852 0.0843,0.13648 0.44399,0.24815 0.79921,0.24815 0.46945,0 0.64584,-0.14453 0.64584,-0.52917 z m 2.24896,0 c 0.45911,-0.19729 0.42408,-0.23253 -0.26459,-0.26623 -0.43656,-0.0214 -1.00211,-0.0787 -1.25677,-0.12748 -0.25466,-0.0487 -0.46302,0.0112 -0.46302,0.13314 0,0.2087 0.60101,0.44891 1.19063,0.47586 0.14552,0.007 0.50271,-0.0902 0.79375,-0.21529 z m 10.05416,-0.14185 c -0.91469,-0.41883 -1.95818,-0.51503 -1.57427,-0.14514 0.24365,0.23475 1.15954,0.46431 1.97115,0.49405 0.21828,0.008 0.0397,-0.14901 -0.39688,-0.34891 z M 73.49143,67.37404 C 73.38823,67.27085 72.856,67.09957 72.30869,66.99343 l -0.99511,-0.19298 1.1401,-0.0304 c 1.27059,-0.0339 1.29623,-0.4332 0.0397,-0.61763 -0.56259,-0.0826 -0.87688,0.009 -1.02582,0.30022 -0.35766,0.69837 -0.0665,0.97463 1.09984,1.04345 0.61143,0.0361 1.02726,-0.0188 0.92407,-0.12203 z m 15.00684,-0.0755 c -0.38858,-0.36306 -1.44198,-0.6233 -1.44198,-0.35624 0,0.404 0.32381,0.59109 1.02306,0.59109 0.40267,0 0.56992,-0.0938 0.41892,-0.23485 z M 70.63046,63.11592 c 0.0278,-2.14594 -7.4e-4,-3.8456 -0.0635,-3.77702 -0.24795,0.27111 -0.48232,7.9848 -0.23802,7.83381 0.138,-0.0853 0.27367,-1.91084 0.30149,-4.05679 z m -9.23875,3.7015 c 0,-0.39183 -1.62795,-5.36945 -1.7561,-5.36945 -0.0802,0 -0.08,0.68461 4.5e-4,1.52136 0.0805,0.83674 0.15125,2.06878 0.15725,2.73786 0.0105,1.16773 0.0427,1.21741 0.80465,1.23907 0.43656,0.0124 0.79375,-0.0456 0.79375,-0.12884 z m 28.17812,-0.0778 c 0.0931,-0.15065 -0.13475,-0.26458 -0.52916,-0.26458 -0.39442,0 -0.62228,0.11393 -0.52917,0.26458 0.0899,0.14552 0.32806,0.26458 0.52917,0.26458 0.2011,0 0.43923,-0.11906 0.52916,-0.26458 z m 4.63021,0.14791 c 0,-0.0642 -0.11906,-0.19026 -0.26458,-0.2802 -0.14552,-0.0899 -0.26458,-0.0374 -0.26458,0.11667 0,0.15411 0.11906,0.2802 0.26458,0.2802 0.14552,0 0.26458,-0.0525 0.26458,-0.11667 z m -18.5472,-2.8755 c -0.0386,-3.17351 -0.41947,-4.04103 -0.4619,-1.05215 -0.019,1.34089 -0.0501,2.53151 -0.0691,2.64584 -0.0881,0.53109 0.0527,0.88542 0.29278,0.73702 0.14552,-0.0899 0.25271,-1.13876 0.23821,-2.33071 z m 11.93262,1.80155 c 0,-0.3638 -0.11906,-0.66146 -0.26458,-0.66146 -0.14553,0 -0.26459,0.29766 -0.26459,0.66146 0,0.3638 0.11906,0.66146 0.26459,0.66146 0.14552,0 0.26458,-0.29766 0.26458,-0.66146 z m 2.38125,0.13229 c 0,-0.14552 -0.44649,-0.25272 -0.99219,-0.23821 -0.88549,0.0235 -0.92105,0.0491 -0.33073,0.23821 0.94577,0.30289 1.32292,0.30289 1.32292,0 z M 72.6365,65.68129 c -0.0899,-0.14552 -0.27556,-0.26459 -0.41249,-0.26459 -0.13693,0 -0.24897,0.11907 -0.24897,0.26459 0,0.14552 0.18562,0.26458 0.41249,0.26458 0.22687,0 0.33891,-0.11906 0.24897,-0.26458 z m 13.84037,-0.85851 c 0.0707,-0.8544 -0.12372,-1.26418 -1.4125,-2.97656 -1.44066,-1.9142 -1.96934,-2.35533 -1.98352,-1.65504 -0.004,0.1819 -0.47254,1.26693 -1.0419,2.41117 -0.86276,1.73389 -0.98326,2.1636 -0.72341,2.57969 0.1832,0.29333 0.61292,0.49925 1.0419,0.49925 0.83252,0 0.83598,-0.007 0.42799,-0.90276 -0.24423,-0.53601 -0.21771,-0.79189 0.13839,-1.33536 0.97504,-1.4881 2.77185,-0.32083 2.46041,1.59836 -0.13813,0.85121 -0.0986,0.92988 0.42924,0.85477 0.46225,-0.0658 0.59817,-0.28573 0.6634,-1.07352 z m -2.13117,-0.0675 c -0.0695,-0.3638 -0.0239,-0.66145 0.10145,-0.66145 0.12534,0 0.22789,0.17859 0.22789,0.39687 0,0.21828 0.10255,0.39688 0.2279,0.39688 0.33197,0 0.0391,-1.25616 -0.37258,-1.59778 -0.53839,-0.44683 -1.47745,0.15549 -1.37726,0.88338 0.11217,0.81486 0.42483,1.24356 0.90694,1.24356 0.29691,0 0.37676,-0.1849 0.28566,-0.66146 z m 5.35643,0.39688 c 0,-0.14552 -0.23813,-0.26458 -0.52917,-0.26458 -0.29104,0 -0.52917,0.11906 -0.52917,0.26458 0,0.14552 0.23813,0.26458 0.52917,0.26458 0.29104,0 0.52917,-0.11906 0.52917,-0.26458 z m 5.82083,-1.05833 c -0.51767,-0.33455 -1.05833,-0.33455 -1.05833,0 0,0.14552 0.32742,0.26276 0.7276,0.26053 0.56699,-0.003 0.63999,-0.0607 0.33073,-0.26053 z M 82.25667,61.21846 c 0.81186,-1.84751 0.83306,-1.97535 0.40585,-2.4474 -0.24791,-0.27394 -0.52349,-0.49807 -0.61241,-0.49807 -0.18353,0 -1.34382,4.70751 -1.34382,5.45212 0,0.45421 0.023,0.45186 0.34689,-0.0354 0.1908,-0.28704 0.73237,-1.39909 1.20349,-2.47122 z m 13.26629,2.3462 c 0,-0.14552 -0.26789,-0.25622 -0.59531,-0.24599 -0.56804,0.0177 -0.57107,0.029 -0.0662,0.24599 0.29104,0.12506 0.55893,0.23576 0.59531,0.24599 0.0364,0.0102 0.0661,-0.10047 0.0661,-0.24599 z m -9.15273,-2.05052 c -0.18224,-1.33354 -0.2967,-2.91978 -0.34363,-4.7625 -0.0157,-0.61846 -0.11794,-1.11972 -0.22708,-1.11391 -0.10914,0.006 -0.65157,0.78642 -1.20539,1.73467 l -1.00696,1.7241 1.40111,1.8372 c 0.77061,1.01047 1.43544,1.83721 1.47741,1.83721 0.042,0 -9.9e-4,-0.56555 -0.0955,-1.25677 z m -13.94986,0.41341 c -0.0845,-0.21107 -0.14716,-0.14837 -0.15986,0.15985 -0.0115,0.27892 0.051,0.43519 0.13897,0.34727 0.0879,-0.0879 0.0973,-0.31612 0.0209,-0.50712 z M 39.03442,91.34591 c -0.46891,-0.2015 -0.44631,-0.22951 0.19844,-0.24599 0.40018,-0.0102 0.7276,0.10047 0.7276,0.24599 0,0.31054 -0.20336,0.31054 -0.92604,0 z m 0.52917,-1.85208 c -0.61152,-0.15561 -0.39891,-0.2049 0.92604,-0.21469 1.18387,-0.009 1.55489,0.0582 1.19062,0.21469 -0.62915,0.27035 -1.05418,0.27035 -2.11666,0 z m 35.58645,-1.55081 c 0,-0.12534 0.29766,-0.171 0.66146,-0.10145 0.3638,0.0695 0.66146,0.1721 0.66146,0.22789 0,0.0558 -0.29766,0.10145 -0.66146,0.10145 -0.3638,0 -0.66146,-0.10255 -0.66146,-0.22789 z M 56.23053,63.7631 c -0.10465,-1.34607 -0.27867,-3.01656 -0.38672,-3.71219 -0.10804,-0.69564 -0.0946,-1.32774 0.0299,-1.40468 0.19571,-0.12096 0.35466,0.677 0.25603,1.28532 -0.0181,0.11184 0.0789,1.00481 0.21572,1.98438 0.47215,3.3813 0.53738,4.29456 0.30678,4.29456 -0.12729,0 -0.31706,-1.10132 -0.42171,-2.44739 z m 9.12993,1.12448 c 0,-0.29105 0.0456,-0.52917 0.10143,-0.52917 0.0558,0 0.16371,0.23812 0.23982,0.52917 0.0761,0.29104 0.0305,0.52916 -0.10144,0.52916 -0.13189,0 -0.23981,-0.23812 -0.23981,-0.52916 z M 52.97992,62.8994 c -0.50564,-1.89051 -0.34381,-2.27689 0.22004,-0.52537 0.59839,1.85885 0.5734,1.7198 0.30913,1.7198 -0.11534,0 -0.35347,-0.53749 -0.52917,-1.19443 z m -2.08835,-2.44359 c -0.0906,-0.25467 -0.22436,-0.57072 -0.29716,-0.70234 -0.0728,-0.13163 -0.009,-0.16325 0.14115,-0.0703 0.27562,0.17034 0.65205,1.23563 0.43662,1.23563 -0.0637,0 -0.18998,-0.20836 -0.28061,-0.46302 z m 1.40863,-0.19844 c -0.0838,-0.21828 -0.037,-0.39688 0.10398,-0.39688 0.14095,0 0.25628,0.1786 0.25628,0.39688 0,0.21828 -0.0468,0.39687 -0.10398,0.39687 -0.0572,0 -0.17252,-0.17859 -0.25628,-0.39687 z m 28.12495,-3.83119 c -0.50022,-0.42763 -0.79042,-0.77807 -0.6449,-0.77875 0.36939,-0.002 1.86219,1.24845 1.69289,1.41775 -0.0762,0.0762 -0.54778,-0.21137 -1.04799,-0.639 z"
       id="path32" />
  </g>
</svg>
